<?xml version="1.0" encoding="utf-8"?>
<!-- Generator: flash2svg, http://dissentgraphics.com/tools/flash2svg -->
<svg xmlns:xlink="http://www.w3.org/1999/xlink" id="MacBookPro" image-rendering="optimizeSpeed" baseProfile="basic" version="1.1" style="background-color:#ffffff" x="0px" y="0px" width="1024px" height="1024px" viewBox="0 0 1024 1024" enable-background="new 0 0 1024 1024" xmlns="http://www.w3.org/2000/svg">
  <defs transform="matrix(1 0 0 1 0 0) "/>
  <g id="shadow">
    <g id="shape">
      <path id="path" fill="#000000" fill-opacity="0.09803921568627451" d="M968.25,396.4 Q953.45,381.6 932.6,381.6 L131.45,381.6 C117.6,381.6 105.75,386.55 95.9,396.4 86.05,406.25 81.1,418.1 81.1,431.95 L81.1,962.8 56.05,962.8 56.05,991.8 C56.05,997.8 59.05,1000.8 65.05,1000.8 L999.05,1000.8 C1005.05,1000.8 1008.05,997.8 1008.05,991.8 L1008.05,962.8 987,962.8 987,964.5 983,964.5 983,431.95 C983,418.1 978.1,406.25 968.25,396.4z"/>
    </g>
  </g>
  <g id="Symbole.__2012">
    <g id="shape2">
      <path id="path1" fill="#14181D" fill-opacity="1" d="M935.85,390.2 Q927.85,382.2 916.6,382.2 L115.45,382.2 C107.95,382.2 101.55,384.85 96.25,390.2 90.9,395.5 88.25,401.9 88.25,409.4 L88.25,942.95 943.85,942.95 943.85,409.4 C943.85,401.9 941.2,395.5 935.85,390.2z"/>
      <path id="path2" fill="#CCCCCC" fill-opacity="1" d="M36.05,943.95 L36.05,971.35 C36.05,977.35 39.05,980.35 45.05,980.35 L979.05,980.35 C985.05,980.35 988.05,977.35 988.05,971.35 L988.05,943.95 36.05,943.95z"/>
    </g>
  </g>
  <g id="Symbole.__2013">
    <g id="shape5">
      <path id="path3" fill="#999999" fill-opacity="1" d="M948.25,374.85 C938.4,365 926.5,360.05 912.6,360.05 L111.45,360.05 C97.6,360.05 85.7,365 75.9,374.85 66,384.7 61.1,396.55 61.1,410.4 L61.1,943.95 84.25,943.95 84.25,410.4 C84.25,402.9 86.9,396.5 92.25,391.2 97.55,385.85 103.95,383.2 111.45,383.2 L912.6,383.2 Q923.85,383.2 931.85,391.2 C937.2,396.5 939.85,402.9 939.85,410.4 L939.85,943.95 963,943.95 963,410.4 C963,396.55 958.1,384.7 948.25,374.85z"/>
      <path id="path4" fill="#14181D" fill-opacity="1" d="M931.85,391.2 Q923.85,383.2 912.6,383.2 L111.45,383.2 C103.95,383.2 97.55,385.85 92.25,391.2 86.9,396.5 84.25,402.9 84.25,410.4 L84.25,943.95 939.85,943.95 939.85,410.4 C939.85,402.9 937.2,396.5 931.85,391.2z"/>
    </g>
  </g>
  <g id="Symbole.__2014">
    <g id="shape9">
      <path id="path5" fill="#FFFFFF" fill-opacity="0.6" d="M593.3,967.85 Q595.55,965.65 595.55,962.55 C595.55,960.5 594.8,958.7 593.3,957.2 591.85,955.75 590.05,955 588,955 L436.1,955 C434.05,955 432.25,955.75 430.75,957.2 429.3,958.7 428.55,960.5 428.55,962.55 428.55,964.6 429.3,966.4 430.75,967.85 432.25,969.35 434.05,970.1 436.1,970.1 L588,970.1 C590.05,970.1 591.85,969.35 593.3,967.85z"/>
      <path id="path6" fill="#333333" fill-opacity="0.6" d="M389.7,966.95 C390.95,965.75 391.55,964.3 391.55,962.55 391.55,960.8 390.95,959.35 389.7,958.1 388.5,956.9 387.05,956.3 385.3,956.3 383.55,956.3 382.1,956.9 380.85,958.1 379.65,959.35 379.05,960.8 379.05,962.55 379.05,964.3 379.65,965.75 380.85,966.95 382.1,968.2 383.55,968.8 385.3,968.8 387.05,968.8 388.5,968.2 389.7,966.95z"/>
      <path id="path7" fill="#999999" fill-opacity="1" d="M957.5,970.1 C959.55,970.1 961.35,969.35 962.8,967.85 964.3,966.4 965.05,964.6 965.05,962.55 965.05,960.5 964.3,958.7 962.8,957.2 961.35,955.75 959.55,955 957.5,955 L685.6,955 C683.55,955 681.75,955.75 680.25,957.2 678.8,958.7 678.05,960.5 678.05,962.55 678.05,964.6 678.8,966.4 680.25,967.85 681.75,969.35 683.55,970.1 685.6,970.1 L957.5,970.1z"/>
    </g>
  </g>
  <g id="Symbole.__2015">
    <g id="Symbole.__2016_1" overflow="visible">
      <g id="Calque.__202">
        <g id="shape17">
          <path id="path10" fill="#009999" fill-opacity="1" d="M506.513,405.463 C505.026,406.95 504.25,408.826 504.25,410.96 504.25,413.093 505.026,414.969 506.513,416.456 508,417.943 509.876,418.719 512.01,418.719 514.143,418.719 516.019,417.943 517.506,416.456 518.993,414.969 519.769,413.093 519.769,410.96 Q519.769,407.726 517.506,405.463 C516.019,403.976 514.143,403.2 512.01,403.2 509.876,403.2 508,403.976 506.513,405.463z"/>
        </g>
      </g>
    </g>
  </g>
  <g id="computer">
    <g id="shape13">
      <path id="path8" fill="#FFFFFF" fill-opacity="0.058823529411764705" d="M948.25,374.85 Q933.45,360.05 912.6,360.05 L520.1,360.05 963,802.9 963,410.4 C963,396.55 958.1,384.7 948.25,374.85z"/>
    </g>
  </g>
</svg>