<?xml version="1.0" encoding="utf-8"?>
<!-- Generator: flash2svg, http://dissentgraphics.com/tools/flash2svg -->
<svg xmlns:xlink="http://www.w3.org/1999/xlink" id="MacBookPro-Unibody" image-rendering="optimizeSpeed" baseProfile="basic" version="1.1" style="background-color:#ffffff" x="0px" y="0px" width="1024px" height="1024px" viewBox="0 0 1024 1024" enable-background="new 0 0 1024 1024" xmlns="http://www.w3.org/2000/svg">
  <defs transform="matrix(1 0 0 1 0 0) "/>
  <g id="shadow">
    <g id="shape">
      <path id="path" fill="#000000" fill-opacity="0.09803921568627451" d="M968.25,396.4 Q953.45,381.6 932.6,381.6 L131.45,381.6 C117.6,381.6 105.75,386.55 95.9,396.4 86.05,406.25 81.1,418.1 81.1,431.95 L81.1,962.8 56.05,962.8 56.05,991.8 C56.05,997.8 59.05,1000.8 65.05,1000.8 L999.05,1000.8 C1005.05,1000.8 1008.05,997.8 1008.05,991.8 L1008.05,962.8 987,962.8 987,964.5 983,964.5 983,431.95 C983,418.1 978.1,406.25 968.25,396.4z"/>
    </g>
  </g>
  <g id="Symbole.__2012">
    <g id="shape2">
      <path id="path1" fill="#14181D" fill-opacity="1" d="M935.85,390.2 Q927.85,382.2 916.6,382.2 L115.45,382.2 C107.95,382.2 101.55,384.85 96.25,390.2 90.9,395.5 88.25,401.9 88.25,409.4 L88.25,942.95 406.1,942.95 626.05,942.95 943.85,942.95 943.85,409.4 C943.85,401.9 941.2,395.5 935.85,390.2z"/>
      <path id="path2" fill="#CCCCCC" fill-opacity="1" d="M626.05,958.25 C626.05,964.05 623.25,967.05 617.6,967.25 L414.5,967.25 C408.85,967.05 406.05,964.05 406.05,958.25 L406.1,942.95 88.25,942.95 65.1,942.95 65.1,941.25 36.05,941.25 36.05,970.25 C36.05,976.25 39.05,979.25 45.05,979.25 L979.05,979.25 C985.05,979.25 988.05,976.25 988.05,970.25 L988.05,941.25 967,941.25 967,942.95 943.85,942.95 626.05,942.95 626.05,958.25z"/>
      <path id="path3" fill="#999999" fill-opacity="1" d="M617.6,967.25 C623.25,967.05 626.05,964.05 626.05,958.25 L626.05,942.95 406.1,942.95 406.05,958.25 C406.05,964.05 408.85,967.05 414.5,967.25 L617.6,967.25z"/>
    </g>
  </g>
  <g id="Symbole.__2013">
    <g id="shape7">
      <path id="path4" fill="#2F363F" fill-opacity="1" d="M912.6,383.2 Q923.85,383.2 931.85,391.2 C937.2,396.5 939.85,402.9 939.85,410.4 L939.85,943.95 963,943.95 963,410.4 C963,396.55 958.1,384.7 948.25,374.85 938.4,365 926.5,360.05 912.6,360.05 L111.45,360.05 C97.6,360.05 85.7,365 75.9,374.85 66,384.7 61.1,396.55 61.1,410.4 L61.1,943.95 84.25,943.95 84.25,410.4 C84.25,402.9 86.9,396.5 92.25,391.2 97.55,385.85 103.95,383.2 111.45,383.2 L912.6,383.2z"/>
      <path id="path5" fill="#14181D" fill-opacity="1" d="M931.85,391.2 Q923.85,383.2 912.6,383.2 L111.45,383.2 C103.95,383.2 97.55,385.85 92.25,391.2 86.9,396.5 84.25,402.9 84.25,410.4 L84.25,943.95 939.85,943.95 939.85,410.4 C939.85,402.9 937.2,396.5 931.85,391.2z"/>
    </g>
  </g>
  <g id="Symbole.__2014">
    <g id="Symbole.__2015_1" overflow="visible">
      <g id="Calque.__202">
        <g id="shape15">
          <path id="path8" fill="#009999" fill-opacity="1" d="M506.513,405.463 C505.026,406.95 504.25,408.826 504.25,410.96 504.25,413.093 505.026,414.969 506.513,416.456 508,417.943 509.876,418.719 512.01,418.719 514.143,418.719 516.019,417.943 517.506,416.456 518.993,414.969 519.769,413.093 519.769,410.96 Q519.769,407.726 517.506,405.463 C516.019,403.976 514.143,403.2 512.01,403.2 509.876,403.2 508,403.976 506.513,405.463z"/>
        </g>
      </g>
    </g>
  </g>
  <g id="computer">
    <g id="shape11">
      <path id="path6" fill="#FFFFFF" fill-opacity="0.058823529411764705" d="M948.25,374.85 Q933.45,360.05 912.6,360.05 L520.1,360.05 963,802.9 963,410.4 C963,396.55 958.1,384.7 948.25,374.85z"/>
    </g>
  </g>
</svg>