<?xml version="1.0" encoding="utf-8"?>
<!-- Generator: flash2svg, http://dissentgraphics.com/tools/flash2svg -->
<svg xmlns:xlink="http://www.w3.org/1999/xlink" id="Imac-Aluminium" image-rendering="optimizeSpeed" baseProfile="basic" version="1.1" style="background-color:#ffffff" x="0px" y="0px" width="1024px" height="1024px" viewBox="0 0 1024 1024" enable-background="new 0 0 1024 1024" xmlns="http://www.w3.org/2000/svg">
  <defs transform="matrix(1 0 0 1 0 0) "/>
  <g id="shadow">
    <g id="shape">
      <path id="path" fill="#000000" fill-opacity="0.09803921568627451" d="M1002.45,128.4 C1002.45,113.95 997.35,101.55 987.1,91.3 976.8,81 964.4,75.85 949.9,75.85 L114.15,75.85 C99.7,75.85 87.3,81 77.05,91.3 66.75,101.55 61.6,113.95 61.6,128.4 L61.6,774.35 C61.6,788.8 66.75,801.2 77.05,811.5 87.3,821.75 99.7,826.9 114.15,826.9 L409.875,826.9 399.55,856.35 367.45,947.8 C367.45,958.95 371.45,968.55 379.3,976.4 387.2,984.3 396.8,988.3 407.9,988.3 L669.65,988.3 Q686.4,988.3 698.25,976.4 C706.15,968.55 710.1,958.95 710.1,947.8 L678,856.35 667.675,826.9 949.9,826.9 C964.4,826.9 976.8,821.75 987.1,811.5 997.35,801.2 1002.45,788.8 1002.45,774.35 L1002.45,128.4z"/>
    </g>
  </g>
  <g id="Symbole.__2012">
    <g id="Symbole.__2015_1" overflow="visible">
      <g id="Calque.__205">
        <g id="shape19">
          <path id="path11" fill="#CCCCCC" fill-opacity="0.9882352941176471" d="M636.109,773.973 C636.109,762.843 632.129,753.264 624.237,745.372 616.344,737.48 606.766,733.5 595.635,733.5 L441.837,733.5 C430.707,733.5 421.129,737.48 413.236,745.372 Q401.364,757.244 401.364,773.973 L379.509,836.302 347.4,927.771 C347.4,938.901 351.38,948.48 359.272,956.372 367.164,964.265 376.743,968.244 387.873,968.244 L649.6,968.244 C660.73,968.244 670.308,964.265 678.201,956.372 686.093,948.48 690.073,938.901 690.073,927.771 L657.964,836.302 636.109,773.973z"/>
        </g>
      </g>
      <g id="Calque.__206">
        <g id="shape20">
          <path id="path12" fill="#000000" fill-opacity="0.2" d="M636.159,773.973 C636.159,762.843 632.179,753.264 624.287,745.372 616.394,737.48 606.816,733.5 595.685,733.5 L441.887,733.5 C430.757,733.5 421.179,737.48 413.286,745.372 Q401.414,757.244 401.414,773.973 L379.559,836.302 658.014,836.302 636.159,773.973z"/>
        </g>
      </g>
    </g>
  </g>
  <g id="Symbole.__2013">
    <g id="shape2">
      <path id="path1" fill="#2F363F" fill-opacity="1" d="M967.1,71.3 C956.8,61 944.4,55.85 929.9,55.85 L94.15,55.85 C79.7,55.85 67.3,61 57.05,71.3 46.75,81.55 41.6,93.95 41.6,108.4 L41.6,665 65.75,665 65.75,108.4 C65.75,100.55 68.55,93.9 74.1,88.35 79.65,82.8 86.3,80 94.15,80 L929.9,80 Q941.65,80 950,88.35 C955.55,93.9 958.3,100.55 958.3,108.4 L958.3,665 982.45,665 982.45,108.4 C982.45,93.95 977.35,81.55 967.1,71.3z"/>
      <path id="path2" fill="#14181D" fill-opacity="1" d="M950,88.35 Q941.65,80 929.9,80 L94.15,80 C86.3,80 79.65,82.8 74.1,88.35 68.55,93.9 65.75,100.55 65.75,108.4 L65.75,665 958.3,665 958.3,108.4 C958.3,100.55 955.55,93.9 950,88.35z"/>
      <path id="path3" fill="#CCCCCC" fill-opacity="1" d="M982.45,754.35 L982.45,665 958.3,665 65.75,665 41.6,665 41.6,754.35 C41.6,768.8 46.75,781.2 57.05,791.5 67.3,801.75 79.7,806.9 94.15,806.9 L929.9,806.9 C944.4,806.9 956.8,801.75 967.1,791.5 977.35,781.2 982.45,768.8 982.45,754.35z"/>
    </g>
  </g>
  <g id="Symbole.__2014">
    <g id="Symbole.__2017_1" overflow="visible">
      <g id="Calque.__207">
        <g id="shape21">
          <path id="path13" fill="#009999" fill-opacity="1" d="M506.261,103.211 C504.709,104.762 503.9,106.719 503.9,108.945 503.9,111.171 504.709,113.127 506.261,114.678 507.812,116.23 509.769,117.039 511.995,117.039 514.221,117.039 516.177,116.23 517.728,114.678 519.28,113.127 520.089,111.171 520.089,108.945 Q520.089,105.572 517.728,103.211 C516.177,101.659 514.221,100.85 511.995,100.85 509.769,100.85 507.812,101.659 506.261,103.211z"/>
        </g>
      </g>
    </g>
  </g>
  <g id="computer">
    <g id="shape7">
      <path id="path4" fill="#FFFFFF" fill-opacity="0.058823529411764705" d="M967.1,71.3 Q951.65,55.85 929.9,55.85 L374.4,55.85 982.45,663.9 982.45,108.4 C982.45,93.95 977.35,81.55 967.1,71.3z"/>
    </g>
  </g>
  <g id=".__E5.__9B.__BE.__E5.__B1.__82.__201">
    <g id="Symbole.__2019_1" overflow="visible">
      <g id="Calque.__208">
        <g id="shape22">
          <path id="path14" fill="#30363E" fill-opacity="1" d="M526.35,705.25 C529.25,701.7 531.2,696.85 530.65,691.95 526.5,692.1 521.4,694.75 518.4,698.25 515.7,701.4 513.35,706.35 514,711.15 518.65,711.5 523.45,708.75 526.35,705.25z M530.6,712.1 C524.1,711.45 517.95,715.9 514.65,715.9 511.35,715.9 506.3,712.2 500.9,712.3 493.85,712.4 487.35,716.4 483.7,722.7 476.35,735.45 481.8,754.35 488.95,764.65 492.45,769.7 496.65,775.4 502.1,775.2 507.4,775 509.4,771.8 515.75,771.8 522.1,771.8 523.9,775.2 529.5,775.1 535.15,775 538.75,769.95 542.25,764.85 546.25,759 547.9,753.35 548,753.05 Q547.25,752.75 546.2,752.15 544.15,750.95 542.4,749.3 536.9,744.05 536.8,736.2 C536.75,725.65 545.45,720.6 545.8,720.35 540.95,713.2 533.3,712.2 530.6,712.1z"/>
        </g>
      </g>
    </g>
  </g>
</svg>