<?xml version="1.0" encoding="utf-8"?>
<!-- Generator: flash2svg, http://dissentgraphics.com/tools/flash2svg -->
<svg xmlns:xlink="http://www.w3.org/1999/xlink" id="Adobe-Reader" image-rendering="optimizeSpeed" baseProfile="basic" version="1.1" style="background-color:#ffffff" x="0px" y="0px" width="1024px" height="1024px" viewBox="0 0 1024 1024" enable-background="new 0 0 1024 1024" xmlns="http://www.w3.org/2000/svg">
  <defs transform="matrix(1 0 0 1 0 0) "/>
  <g id="shadow">
    <g id="shape">
      <path id="path" fill="#000000" fill-opacity="0.09803921568627451" d="M965.65,347.3 Q957.05,326.45 946.25,306.45 C942.2,298.9 937.9,291.4 933.35,284.05 913.8,252.35 889.95,222.4 861.8,194.25 769.65,102.1 658.35,56 528,56 397.65,56 286.4,102.1 194.25,194.25 102.1,286.4 56,397.65 56,528 56,658.35 102.1,769.65 194.25,861.8 286.4,953.95 397.65,1000 528,1000 658.35,1000 769.65,953.95 861.8,861.8 912.55,811 949.35,754.4 972.15,692.05 990.7,641.2 1000,586.55 1000,528 1000,483.1 994.55,440.45 983.6,400.05 982.35,395.5 981.05,390.95 979.7,386.45 975.6,373.15 970.9,360.1 965.65,347.3z"/>
    </g>
  </g>
  <g id="BackgroundInner">
    <g id="shape2">
      <path id="path1" fill="#A1191E" fill-opacity="1" d="M951.95,691.1 C974.3,636.15 985.45,576.55 985.45,512.3 Q985.45,316.5 847,178.05 C754.7,85.75 643.25,39.6 512.7,39.6 382.15,39.6 270.75,85.75 178.45,178.05 86.15,270.35 40,381.75 40,512.3 40,642.85 86.15,754.3 178.45,846.6 260.6,928.8 357.95,974.4 470.4,983.35 484.25,984.5 498.35,985.05 512.7,985.05 643.25,985.05 754.7,938.9 847,846.6 893.9,799.7 928.9,747.85 951.95,691.1z"/>
    </g>
  </g>
  <g id="inner-circle">
    <g id="shape4">
      <path id="path2" fill="#FFFFFF" fill-opacity="1" d="M781.7,276.05 C776.55,270.25 771.05,264.45 765.35,258.75 695.4,188.8 611,153.85 512.05,153.85 413.1,153.85 328.7,188.8 258.75,258.75 188.8,328.7 153.85,413.1 153.85,512.05 153.85,611 188.8,695.4 258.75,765.35 299,805.6 344,834.25 393.2,851.1 430.6,863.95 470,870.25 512.05,870.25 551.1,870.25 587.85,864.8 622,854.05 675.35,837.2 723,807.7 765.35,765.35 790.55,740.15 811.2,713.05 827.35,684.05 850.05,643.3 863.75,598.7 868.45,550.3 Q870.25,531.546 870.25,512.05 C870.25,501.7 869.85,491.5 869.1,481.35 868.25,470.65 867,460.1 865.3,449.65 862.1,429.9 857.25,410.8 850.7,392.05 836.15,350.2 813.15,311.45 781.7,276.05z"/>
    </g>
  </g>
  <g id="ico-shadow">
    <g id="shape6">
      <path id="path3" fill="#000000" fill-opacity="0.2" d="M765.35,765.35 C790.55,740.15 811.2,713.05 827.35,684.05 Q861.437,622.785 868.45,550.3 L574.925,256.775 454.05,284.05 517.575,416.95 306.15,764.05 393.2,851.1 C430.6,863.95 470,870.25 512.05,870.25 551.1,870.25 587.85,864.8 622,854.05 675.35,837.2 723,807.7 765.35,765.35z"/>
    </g>
  </g>
  <g id="Calque.__202">
    <g id="Symbole.__2013_1" overflow="visible">
      <g id="Calque.__204">
        <g id="shape16">
          <path id="path11" fill="#A1191E" fill-opacity="1" d="M511.73,227.029 C490.194,226.984 471.811,234.599 456.583,249.872 441.309,265.101 433.695,283.483 433.74,305.019 433.74,316.868 436.038,327.772 440.633,337.729 450.816,371.565 462.395,404.545 475.326,436.624 456.493,479.876 434.912,521.326 410.582,560.929 363.5,565.48 316.057,573.184 268.39,584.042 259.289,586.16 252.26,591.161 247.304,599.091 242.303,606.975 240.816,615.49 242.934,624.592 245.051,633.647 250.052,640.676 257.982,645.677 265.867,650.678 274.382,652.12 283.438,650.047 309.074,644.19 334.665,639.324 359.896,635.495 339.486,662.753 317.544,689.065 294.161,714.43 287.898,721.324 284.925,729.434 285.285,738.805 285.691,748.131 289.34,755.971 296.143,762.324 302.992,768.586 311.101,771.56 320.428,771.154 329.799,770.794 337.639,767.189 343.991,760.386 383.099,717.99 418.331,673.115 449.644,625.718 491.5,623.015 533.131,622.97 574.356,625.538 605.714,672.98 640.946,717.945 680.099,760.341 686.452,767.144 694.291,770.749 703.662,771.109 712.989,771.515 721.099,768.541 727.947,762.278 734.75,755.926 738.399,748.086 738.805,738.76 739.165,729.389 736.192,721.279 729.929,714.385 706.456,688.93 684.514,662.528 664.014,635.179 689.65,639.099 715.061,644.055 740.382,650.002 749.438,652.12 757.953,650.678 765.928,645.767 773.857,640.811 778.904,633.783 781.066,624.727 783.184,615.671 781.742,607.155 776.831,599.226 Q769.397,587.286 755.836,584.087 C708.708,573.004 661.401,565.164 613.373,560.614 589.088,521.101 567.597,479.741 548.81,436.624 561.875,404.139 573.635,370.574 583.952,336.107 584.223,335.251 584.448,334.395 584.628,333.584 588.052,324.798 589.764,315.246 589.764,305.019 589.764,283.483 582.15,265.101 566.922,249.872 551.648,234.599 533.266,226.984 511.73,227.029z M504.476,312.318 L504.431,312.273 C502.403,310.245 501.412,307.857 501.457,305.019 501.457,302.181 502.448,299.748 504.476,297.765 506.458,295.738 508.891,294.747 511.73,294.747 514.568,294.747 517.001,295.738 519.029,297.765 521.011,299.748 522.002,302.181 522.047,305.019 522.047,307.857 521.056,310.245 519.074,312.273 L519.029,312.318 C517.001,314.3 514.568,315.292 511.73,315.337 508.891,315.292 506.458,314.3 504.476,312.318z M532.23,556.063 C519.029,555.793 505.467,555.838 491.861,556.108 498.844,543.538 505.557,530.833 512.045,517.902 518.533,530.743 525.246,543.493 532.23,556.063z"/>
        </g>
      </g>
    </g>
  </g>
</svg>