
<svg xmlns="http://www.w3.org/2000/svg" version="1.1" xmlns:xlink="http://www.w3.org/1999/xlink" preserveAspectRatio="none" x="0px" y="0px" width="1024px" height="1024px" viewBox="0 0 1024 1024">
<defs>
<g id="Layer9_0_FILL">
<path fill="#000000" fill-opacity="0.09803921568627451" stroke="none" d="
M 969.6 351.25
Q 961 330.4 950.2 310.4 944.1 299.05 937.3 288 907.95 240.45 865.75 198.2 727.5 59.95 531.95 59.95 336.45 59.95 198.2 198.2 59.95 336.45 59.95 531.95 59.95 727.5 198.2 865.75 336.45 1003.95 531.95 1003.95 727.5 1003.95 865.75 865.75 941.9 789.55 976.1 696 1003.95 619.75 1003.95 531.95 1003.95 464.6 987.55 404 985.7 397.15 983.65 390.4 977.5 370.45 969.6 351.25 Z"/>
</g>

<g id="Layer8_0_FILL">
<path fill="#F7F7F7" stroke="none" d="
M 969.7 392
Q 967.95 385.15 966.05 378.4 964.52578125 373.114453125 962.85 367.85 960.3787109375 359.903125 957.6 352.05 947.85 324.5 934.45 298.4 928.65 287.05 922.15 276 891.5 224 845.8 178.25 736.8 69.25 592.15 46.2 567.65 42.3 542.1 40.85 527.2 40 512 40 497.9 40 484.1 40.75 306.55 49.95 178.25 178.25 40 316.5 40 512 40 707.55 178.25 845.8 263.0400390625 930.55703125 369.35 963.35 423.8880859375 980.1630859375 484.1 983.3 484.3 983.3 484.5 983.3 496.65 983.9 509 984 510.5 984 512 984 527.25 984 542.1 983.2 545.6 983 549.05 982.75 579.1 980.6 607.75 975.05 619.55 972.75 631.15 969.9 751.75 939.85 845.8 845.8 918.7 772.85 953.15 684 980.9 612.4 983.7 530.5 984 521.3 984 512 984 511 984 510 984 509.5 984 509 983.65 447.7 969.7 392 Z"/>
</g>

<g id="Layer7_0_FILL">
<path fill="#000000" fill-opacity="0.09803921568627451" stroke="none" d="
M 983.55 534.55
L 726 277 575 224.15 369.3 257.55 253.35 386 228.1 516 175 721.3 431.45 977.75
Q 457.2216796875 981.899609375 484.1 983.3 484.3 983.3 484.5 983.3 496.65 983.9 509 984 510.5 984 512 984 527.25 984 542.1 983.2 545.6 983 549.05 982.75 579.1 980.6 607.75 975.05 619.55 972.75 631.15 969.9 751.75 939.85 845.8 845.8 918.7 772.85 953.15 684 980.213671875 614.1708984375 983.55 534.55 Z"/>
</g>

<g id="Layer4_0_FILL">
<path fill="#333333" stroke="none" d="
M 764.4 485
Q 757.35 478 747.4 478
L 723.4 478
Q 713.45 478 706.45 485 699.4 492.05 699.4 502
L 699.4 764
Q 699.4 773.95 706.45 780.95 713.45 788 723.4 788
L 747.4 788
Q 757.35 788 764.4 780.95 771.4 773.95 771.4 764
L 771.4 757.5 771.4 516.5 771.4 502
Q 771.4 492.05 764.4 485 Z"/>

<path fill="#3399FF" stroke="none" d="
M 829.75 540.9
Q 828.2865234375 531.7365234375 821.35 524.8 812.55 516 800.15 516
L 777.15 516
Q 774.17109375 516 771.4 516.5
L 771.4 757.5
Q 774.17109375 758 777.15 758
L 800.15 758
Q 812.55 758 821.35 749.2 829.43125 741.11875 830.1 730 830.15 729.012890625 830.15 728
L 830.15 546
Q 830.15 543.37421875 829.75 540.9 Z"/>

<path fill="#12375C" stroke="none" d="
M 829.75 540.9
Q 830.15 543.37421875 830.15 546
L 830.15 728
Q 830.15 729.012890625 830.1 730 851.552734375 724.479296875 868 703.7 890.4 675.45 890.4 635.5 890.4 595.55 868 567.25 851.423828125 546.344921875 829.75 540.9
M 238.95 545.6
Q 225.809765625 539 210.5 539 178.8 539 156.4 567.25 134 595.55 134 635.5 134 675.45 156.4 703.7 178.8 732 210.5 732 225.809765625 732 238.95 725.4
L 238.95 545.6 Z"/>
</g>

<g id="Layer3_0_FILL">
<path fill="#3399FF" stroke="none" d="
M 224.25 516
Q 211.85 516 203.05 524.8 194.25 533.6 194.25 546
L 194.25 728
Q 194.25 740.4 203.05 749.2 211.85 758 224.25 758
L 247.25 758
Q 259.65 758 268.45 749.2 277.25 740.4 277.25 728
L 277.25 546
Q 277.25 533.6 268.45 524.8 259.65 516 247.25 516
L 224.25 516 Z"/>
</g>

<g id="Layer2_0_FILL">
<path fill="#333333" stroke="none" d="
M 277 478
Q 267.05 478 260 485 253 492.05 253 502
L 253 764
Q 253 773.95 260 780.95 267.05 788 277 788
L 301 788
Q 310.95 788 317.95 780.95 325 773.95 325 764
L 325 502
Q 325 492.05 317.95 485 310.95 478 301 478
L 277 478 Z"/>
</g>

<path id="Layer7_0_1_STROKES" stroke="#333333" stroke-width="1" stroke-linejoin="round" stroke-linecap="round" fill="none" d="
M 367 257.95
L 369.325 257.575 373 253.5"/>

<path id="Layer6_0_1_STROKES" stroke="#2C86DF" stroke-width="22" stroke-linejoin="round" stroke-linecap="round" fill="none" d="
M 252.825 610.9
Q 230.6 559.580078125 230.6 499.05 230.6 382.5 313 300 395.45 217.6 512 217.6 628.55 217.6 711 300 793.45 382.5 793.45 499.05 793.45 559.580078125 771.2 610.9"/>

<path id="Layer5_0_1_STROKES" stroke="#12375C" stroke-width="53" stroke-linejoin="round" stroke-linecap="round" fill="none" d="
M 277.25 342.95
Q 292.59375 320.4310546875 313 300 395.45 217.6 512 217.6 628.55 217.6 711 300 731.4185546875 320.4310546875 746.775 342.95"/>

<path id="Layer1_0_1_STROKES" stroke="#333333" stroke-width="20" stroke-linejoin="round" stroke-linecap="round" fill="none" d="
M 175 721.3
Q 166.534765625 828.9375 238 830
L 404 830
Q 514.7720703125 830.7970703125 513.45 968.9"/>

<path id="Layer0_0_1_STROKES" stroke="#E6A737" stroke-width="24" stroke-linejoin="round" stroke-linecap="round" fill="none" d="
M 675.7 716
L 675.7 569
M 566.8 684
L 566.8 716
M 530.5 636
L 530.5 716
M 639.4 716
L 639.4 594
M 349 716
L 349 486.05
M 603.1 716
L 603.1 556
M 494.2 716
L 494.2 580
M 457.9 588
L 457.9 716
M 421.6 506
L 421.6 716
M 385.3 716
L 385.3 428"/>
</defs>

<g transform="matrix( 1, 0, 0, 1, 0,0) ">
<use xlink:href="#Layer9_0_FILL"/>
</g>

<g transform="matrix( 1, 0, 0, 1, 0,0) ">
<use xlink:href="#Layer8_0_FILL"/>
</g>

<g transform="matrix( 1, 0, 0, 1, 0,0) ">
<use xlink:href="#Layer7_0_FILL"/>

<use xlink:href="#Layer7_0_1_STROKES"/>
</g>

<g transform="matrix( 1, 0, 0, 1, 0,0) ">
<use xlink:href="#Layer6_0_1_STROKES"/>
</g>

<g transform="matrix( 1, 0, 0, 1, 0,0) ">
<use xlink:href="#Layer5_0_1_STROKES"/>
</g>

<g transform="matrix( 1, 0, 0, 1, 0,0) ">
<use xlink:href="#Layer4_0_FILL"/>
</g>

<g transform="matrix( 1, 0, 0, 1, 0,0) ">
<use xlink:href="#Layer3_0_FILL"/>
</g>

<g transform="matrix( 1, 0, 0, 1, 0,0) ">
<use xlink:href="#Layer2_0_FILL"/>
</g>

<g transform="matrix( 1, 0, 0, 1, 0,0) ">
<use xlink:href="#Layer1_0_1_STROKES"/>
</g>

<g transform="matrix( 1, 0, 0, 1, 0,0) ">
<use xlink:href="#Layer0_0_1_STROKES"/>
</g>
</svg>
