<?xml version="1.0" encoding="utf-8"?>
<!-- Generator: flash2svg, http://dissentgraphics.com/tools/flash2svg -->
<svg xmlns:xlink="http://www.w3.org/1999/xlink" id="Moom" image-rendering="optimizeSpeed" baseProfile="basic" version="1.1" style="background-color:#ffffff" x="0px" y="0px" width="1024px" height="1024px" viewBox="0 0 1024 1024" enable-background="new 0 0 1024 1024" xmlns="http://www.w3.org/2000/svg">
  <defs transform="matrix(1 0 0 1 0 0) "/>
  <g id="shadow">
    <g id="shape">
      <path id="path" fill="#000000" fill-opacity="0.09803921568627451" d="M969.65,351.3 Q961.05,330.45 950.25,310.45 C946.2,302.9 941.9,295.4 937.35,288.05 917.8,256.35 893.95,226.4 865.8,198.25 773.65,106.1 662.35,60 532,60 401.65,60 290.4,106.1 198.25,198.25 106.1,290.4 60,401.65 60,532 60,662.35 106.1,773.65 198.25,865.8 290.4,957.95 401.65,1004 532,1004 662.35,1004 773.65,957.95 865.8,865.8 916.55,815 953.35,758.4 976.15,696.05 994.7,645.2 1004,590.55 1004,532 1004,487.1 998.55,444.45 987.6,404.05 986.35,399.5 985.05,394.95 983.7,390.45 979.6,377.15 974.9,364.1 969.65,351.3z"/>
    </g>
  </g>
  <g id="bg">
    <g id="shape2">
      <path id="path1" fill="#333333" fill-opacity="1" d="M966.1,378.45 C965.1,375.05 964.1,371.6 962.95,367.95 961.35,362.8 959.55,357.45 957.65,352.1 951.2,333.85 943.5,316.05 934.5,298.45 930.7,291.05 926.55,283.5 922.2,276.05 901.9,241.55 876.4,208.85 845.85,178.3 773.25,105.7 688.7,61.65 592.2,46.25 575.95,43.65 559.4,41.85 542.15,40.9 532.45,40.35 522.3,40.05 512.05,40.05 502.7,40.05 493.45,40.3 484.15,40.8 365.8,46.9 263.85,92.75 178.3,178.3 Q40.05,316.55 40.05,512.05 C40.05,642.4 86.15,753.7 178.3,845.85 235,902.5 298.85,941.75 369.4,963.4 406.15,974.65 444.2,981.25 484.15,983.35 484.3,983.35 484.4,983.35 484.55,983.35 493.05,983.8 501.15,984.05 509.05,984.05 510.25,984.05 511.15,984.05 512.05,984.05 522.35,984.05 532.55,983.75 542.15,983.25 544.65,983.1 546.9,982.95 549.1,982.8 569.3,981.35 589,978.75 607.8,975.1 615.75,973.55 623.6,971.8 631.2,969.95 712,949.65 783.35,908.35 845.85,845.85 894.45,797.25 930.25,743.35 953.2,684.05 971.65,636.4 981.85,585.25 983.75,530.55 983.95,524.5 984.05,518.3 984.05,512.05 984.05,511.4 984.05,510.7 984.05,510.05 984.05,509.7 984.05,509.4 984.05,509.05 983.85,468.4 979.1,429.55 969.75,392.05 968.65,387.7 967.4,383.05 966.1,378.45z"/>
    </g>
  </g>
  <mask id="bg1">
    <g id="g">
      <g id="shape10">
        <path id="path5" fill="#FFFFFF" fill-opacity="1" d="M962.95,367.95 C961.35,362.8 959.55,357.45 957.65,352.1 951.2,333.85 943.5,316.05 934.5,298.45 930.7,291.05 926.55,283.5 922.2,276.05 901.9,241.55 876.4,208.85 845.85,178.3 773.25,105.7 688.7,61.65 592.2,46.25 575.95,43.65 559.4,41.85 542.15,40.9 532.45,40.35 522.3,40.05 512.05,40.05 502.7,40.05 493.45,40.3 484.15,40.8 365.8,46.9 263.85,92.75 178.3,178.3 Q40.05,316.55 40.05,512.05 C40.05,642.4 86.15,753.7 178.3,845.85 235,902.5 298.85,941.75 369.4,963.4 406.15,974.65 444.2,981.25 484.15,983.35 484.3,983.35 484.4,983.35 484.55,983.35 493.05,983.8 501.15,984.05 509.05,984.05 510.25,984.05 511.15,984.05 512.05,984.05 522.35,984.05 532.55,983.75 542.15,983.25 544.65,983.1 546.9,982.95 549.1,982.8 569.3,981.35 589,978.75 607.8,975.1 615.75,973.55 623.6,971.8 631.2,969.95 712,949.65 783.35,908.35 845.85,845.85 894.45,797.25 930.25,743.35 953.2,684.05 971.65,636.4 981.85,585.25 983.75,530.55 983.95,524.5 984.05,518.3 984.05,512.05 984.05,511.4 984.05,510.7 984.05,510.05 984.05,509.7 984.05,509.4 984.05,509.05 983.85,468.4 979.1,429.55 969.75,392.05 968.65,387.7 967.4,383.05 966.1,378.45 965.1,375.05 964.1,371.6 962.95,367.95z"/>
      </g>
    </g>
  </mask>
  <g id="masked" mask="url(#bg1)">
    <g id="Calque.__203">
      <g id="shape4">
        <path id="path2" fill="#666666" fill-opacity="1" d="M1094.65,178.35 C1088.95,172.6 1082.05,169.75 1074,169.75 L619.9,169.75 264.3,169.75 C257.4,169.75 251.35,171.85 246.2,176.05 245.35,176.75 244.5,177.5 243.65,178.35 237.9,184.05 235.05,190.95 235.05,199 L235.05,294.05 1103.25,294.05 1103.25,258.15 1103.25,250.1 1103.25,199 Q1103.25,186.9 1094.65,178.35z"/>
        <path id="path3" fill="#CCCCCC" fill-opacity="1" d="M1103.25,308.15 L1103.25,294.05 235.05,294.05 235.05,996.1 C235.05,1004.15 237.9,1011.05 243.65,1016.75 249.35,1022.5 256.25,1025.35 264.3,1025.35 L334.1,1025.35 339.35,1025.35 678.95,1025.35 1074,1025.35 C1080.2,1025.35 1085.7,1023.65 1090.45,1020.3 1091.9,1019.25 1093.3,1018.1 1094.65,1016.75 1100.4,1011.05 1103.25,1004.15 1103.25,996.1 L1103.25,653.1 1103.25,308.15z"/>
      </g>
    </g>
    <g id="Calque.__204">
      <g id="shape8">
        <path id="path4" fill="#FFFFFF" fill-opacity="0.09803921568627451" d="M1094.65,178.35 C1088.95,172.6 1082.05,169.75 1074,169.75 L619.9,169.75 1103.25,653.1 1103.25,308.15 1103.25,258.15 1103.25,250.1 1103.25,199 Q1103.25,186.9 1094.65,178.35z"/>
      </g>
    </g>
  </g>
  <g id="inner">
    <g id="shape12">
      <path id="path6" fill="#000000" fill-opacity="0.2980392156862745" d="M472,212 Q462.05,221.95 462.05,236.05 C462.05,245.45 465.35,253.45 472,260.1 478.65,266.75 486.65,270.05 496.05,270.05 505.45,270.05 513.45,266.75 520.1,260.1 526.75,253.45 530.05,245.45 530.05,236.05 530.05,226.65 526.75,218.65 520.1,212 513.45,205.35 505.45,202.05 496.05,202.05 486.65,202.05 478.65,205.35 472,212z M440.05,236.05 C440.05,226.65 436.75,218.65 430.1,212 423.45,205.35 415.45,202.05 406.05,202.05 396.65,202.05 388.65,205.35 382,212 375.35,218.65 372.05,226.65 372.05,236.05 372.05,245.45 375.35,253.45 382,260.1 388.65,266.75 396.65,270.05 406.05,270.05 415.45,270.05 423.45,266.75 430.1,260.1 436.75,253.45 440.05,245.45 440.05,236.05z M350.05,236.05 C350.05,226.65 346.75,218.65 340.1,212 333.45,205.35 325.45,202.05 316.05,202.05 306.65,202.05 298.65,205.35 292,212 285.35,218.65 282.05,226.65 282.05,236.05 282.05,245.45 285.35,253.45 292,260.1 298.65,266.75 306.65,270.05 316.05,270.05 325.45,270.05 333.45,266.75 340.1,260.1 346.75,253.45 350.05,245.45 350.05,236.05z"/>
    </g>
  </g>
  <g id="Calque.__205">
    <g id="shape18">
      <path id="path11" fill="#FFFFFF" fill-opacity="1" d="M915.05,436.05 Q915.05,412.1 891.05,412.1 L602.85,412.1 524.95,314.2 C522.2,311.45 518.9,310.1 515.05,310.1 511.2,310.1 507.9,311.45 505.2,314.2 L427.3,412.1 133.05,412.1 C117.1,412.1 109.1,420.1 109.1,436.05 L109.1,622.05 C109.1,638.05 117.1,646.05 133.05,646.05 L891.05,646.05 C907.05,646.05 915.05,638.05 915.05,622.05 L915.05,436.05z M901.05,436.05 L901.05,622.05 C901.05,628.7 897.7,632.05 891.05,632.05 L133.05,632.05 C126.4,632.05 123.05,628.7 123.05,622.05 L123.05,436.05 C123.05,429.4 126.4,426.05 133.05,426.05 L433.05,426.05 515.05,324.05 597.05,426.05 891.05,426.05 C897.7,426.05 901.05,429.4 901.05,436.05z"/>
      <path id="path12" fill="#1A1A1A" fill-opacity="1" d="M901.05,436.05 C901.05,429.4 897.7,426.05 891.05,426.05 L597.05,426.05 515.05,324.05 433.05,426.05 133.05,426.05 C126.4,426.05 123.05,429.4 123.05,436.05 L123.05,622.05 C123.05,628.7 126.4,632.05 133.05,632.05 L891.05,632.05 C897.7,632.05 901.05,628.7 901.05,622.05 L901.05,436.05z"/>
    </g>
  </g>
  <g id="Calque.__206">
    <g id="shape23">
      <path id="path15" fill="#999999" fill-opacity="1" d="M841.15,485.45 Q838.2,482.5 834.1,482.55 L725.3,482.55 C722.55,482.5 720.15,483.5 718.2,485.45 716.25,487.4 715.25,489.8 715.3,492.55 L715.3,530.675 L715.3,530.7 C715.35,529.8 715.45,528.95 715.7,528.15 L843.65,528.15 C843.9,529 844.05,529.9 844.1,530.85 L844.1,492.55 C844.1,489.8 843.1,487.4 841.15,485.45z M666.35,492.55 C666.35,489.8 665.35,487.4 663.4,485.45 661.45,483.5 659.1,482.5 656.35,482.55 L601.3,482.55 601.3,580.6 656.35,580.6 C659.1,580.6 661.45,579.6 663.4,577.65 665.35,575.7 666.35,573.35 666.35,570.6 L666.35,492.55z M307.85,485.45 C305.9,483.5 303.55,482.5 300.8,482.55 L192.05,482.55 C189.3,482.5 186.9,483.5 184.95,485.45 183,487.4 182,489.8 182.05,492.55 L182.05,570.6 C182,573.35 183,575.7 184.95,577.65 186.9,579.6 189.3,580.6 192.05,580.6 L300.8,580.6 C303.55,580.6 305.9,579.6 307.85,577.65 309.8,575.7 310.8,573.35 310.8,570.6 L310.8,492.55 C310.8,489.8 309.8,487.4 307.85,485.45z M425.6,482.6 C425.8,482.55 426,482.55 426.25,482.55 L369.8,482.55 C367.05,482.5 364.65,483.5 362.7,485.45 360.75,487.4 359.75,489.8 359.8,492.55 L359.8,570.6 C359.75,573.35 360.75,575.7 362.7,577.65 364.65,579.6 367.05,580.6 369.8,580.6 L426.35,580.6 C426.1,580.55 425.85,580.55 425.6,580.55 L425.6,482.6z"/>
      <path id="path16" fill="#333333" fill-opacity="1" d="M844.1,530.85 C844.05,529.9 843.9,529 843.65,528.15 L715.7,528.15 C715.45,528.95 715.35,529.8 715.3,530.7 L715.3,530.675 L715.3,570.6 C715.25,573.35 716.25,575.7 718.2,577.65 720.15,579.6 722.55,580.6 725.3,580.6 L834.1,580.6 C836.85,580.6 839.2,579.6 841.15,577.65 843.1,575.7 844.1,573.35 844.1,570.6 L844.1,530.85z M547.55,482.55 C544.8,482.5 542.4,483.5 540.45,485.45 538.5,487.4 537.5,489.8 537.55,492.55 L537.55,570.6 C537.5,573.35 538.5,575.7 540.45,577.65 542.4,579.6 544.8,580.6 547.55,580.6 L601.3,580.6 601.3,482.55 547.55,482.55z M488.55,570.6 L488.55,492.55 C488.55,489.8 487.55,487.4 485.6,485.45 483.65,483.5 481.3,482.5 478.55,482.55 L426.25,482.55 C426,482.55 425.8,482.55 425.6,482.6 L425.6,580.55 C425.85,580.55 426.1,580.55 426.35,580.6 L478.55,580.6 C481.3,580.6 483.65,579.6 485.6,577.65 487.55,575.7 488.55,573.35 488.55,570.6z"/>
    </g>
  </g>
  <g id="Calque.__207">
    <g id="shape39">
      <path id="path27" fill="#5D994D" fill-opacity="1" d="M466.1,208.1 Q456.15,218.05 456.15,232.15 C456.15,241.55 459.45,249.55 466.1,256.2 472.75,262.85 480.75,266.15 490.15,266.15 499.55,266.15 507.55,262.85 514.2,256.2 520.85,249.55 524.15,241.55 524.15,232.15 524.15,222.75 520.85,214.75 514.2,208.1 507.55,201.45 499.55,198.15 490.15,198.15 480.75,198.15 472.75,201.45 466.1,208.1z"/>
      <path id="path28" fill="#E4E77C" fill-opacity="1" d="M434.15,232.15 C434.15,222.75 430.85,214.75 424.2,208.1 417.55,201.45 409.55,198.15 400.15,198.15 390.75,198.15 382.75,201.45 376.1,208.1 369.45,214.75 366.15,222.75 366.15,232.15 366.15,241.55 369.45,249.55 376.1,256.2 382.75,262.85 390.75,266.15 400.15,266.15 409.55,266.15 417.55,262.85 424.2,256.2 430.85,249.55 434.15,241.55 434.15,232.15z"/>
      <path id="path29" fill="#DF4548" fill-opacity="1" d="M344.15,232.15 C344.15,222.75 340.85,214.75 334.2,208.1 327.55,201.45 319.55,198.15 310.15,198.15 300.75,198.15 292.75,201.45 286.1,208.1 279.45,214.75 276.15,222.75 276.15,232.15 276.15,241.55 279.45,249.55 286.1,256.2 292.75,262.85 300.75,266.15 310.15,266.15 319.55,266.15 327.55,262.85 334.2,256.2 340.85,249.55 344.15,241.55 344.15,232.15z"/>
    </g>
  </g>
</svg>