<?xml version="1.0" encoding="utf-8"?>
<!-- Generator: flash2svg, http://dissentgraphics.com/tools/flash2svg -->
<svg xmlns:xlink="http://www.w3.org/1999/xlink" id="Sketch" image-rendering="optimizeSpeed" baseProfile="basic" version="1.1" style="background-color:#ffffff" x="0px" y="0px" width="1024px" height="1024px" viewBox="0 0 1024 1024" enable-background="new 0 0 1024 1024" xmlns="http://www.w3.org/2000/svg">
  <defs transform="matrix(1 0 0 1 0 0) "/>
  <g id="shadow">
    <g id="shape">
      <path id="path" fill="#000000" fill-opacity="0.09803921568627451" d="M969.65,351.3 Q961.05,330.45 950.25,310.45 C946.2,302.9 941.9,295.4 937.35,288.05 917.8,256.35 893.95,226.4 865.8,198.25 773.65,106.1 662.35,60 532,60 401.65,60 290.4,106.1 198.25,198.25 106.1,290.4 60,401.65 60,532 60,662.35 106.1,773.65 198.25,865.8 290.4,957.95 401.65,1004 532,1004 662.35,1004 773.65,957.95 865.8,865.8 916.55,815 953.35,758.4 976.15,696.05 994.7,645.2 1004,590.55 1004,532 1004,487.1 998.55,444.45 987.6,404.05 986.35,399.5 985.05,394.95 983.7,390.45 979.6,377.15 974.9,364.1 969.65,351.3z"/>
    </g>
  </g>
  <g id="Symbole.__202">
    <g id="shape2">
      <path id="path1" fill="#201D33" fill-opacity="1" d="M845.85,178.3 C834.95,167.4 823.75,157.15 812.05,147.3 791.95,130.4 770.7,115.3 748.5,102.2 730.35,91.5 711.6,82.15 692.05,74.15 660.5,61.15 627.15,51.85 592.2,46.25 585.6,45.2 578.9,44.25 572.05,43.5 566,42.75 559.85,42.2 553.65,41.7 550.45,41.45 547.25,41.2 544.05,41 543.4,40.95 542.8,40.95 542.15,40.9 532.45,40.35 522.3,40.05 512.05,40.05 502.7,40.05 493.45,40.3 484.15,40.8 481.8,40.9 479.45,41.05 476.85,41.2 474.7,41.35 472.55,41.5 470.45,41.7 464.3,42.2 458.15,42.8 452.05,43.5 409.9,48.3 369.9,58.55 332.05,74.15 312.7,82.05 293.9,91.45 275.65,102.2 253.6,115.2 232.4,130.25 212.05,147.35 200.9,156.7 189.95,166.7 179.3,177.3 178.95,177.65 178.65,177.95 178.3,178.3 176.6,180 174.9,181.75 173.35,183.35 160.95,196.05 149.6,208.95 139.05,222.2 120.85,245.05 105.15,268.95 92.05,293.8 83.7,309.6 76.35,325.85 70.1,342.2 55.55,380.35 46.35,420.25 42.4,462.2 Q40.05,486.65 40.05,512.05 C40.05,536.2 41.65,559.75 44.75,582.2 50.6,624.85 61.85,664.75 78.45,702.2 82.7,711.95 87.2,721.2 92.05,730.35 109.3,762.95 130.75,793.65 156.05,822.2 163.35,830.45 170.65,838.2 178.3,845.85 189.35,856.9 200.7,867.3 212.05,876.85 244.35,903.85 278.4,925.65 314.2,942.2 320.1,944.95 326.05,947.55 332.05,950 370.05,965.6 410,975.8 452.05,980.65 458.2,981.35 464.3,981.95 470.45,982.45 472.65,982.6 474.75,982.75 476.85,982.9 479.45,983.1 481.8,983.25 484.15,983.35 484.3,983.35 484.4,983.35 484.55,983.35 493.05,983.8 501.15,984.05 509.05,984.05 510.25,984.05 511.15,984.05 512.05,984.05 522.35,984.05 532.55,983.75 542.15,983.25 542.8,983.2 543.4,983.15 544.05,983.15 545.75,983 547.45,982.9 549.1,982.8 550.75,982.7 552.4,982.55 553.65,982.45 560.05,981.95 566.35,981.3 572.05,980.65 584.7,979.15 596.4,977.3 607.8,975.1 615.75,973.55 623.6,971.8 631.2,969.95 652.1,964.7 672.4,958.05 692.05,950.05 698.2,947.5 704.3,944.85 709.95,942.2 746.35,925.25 780.3,903.45 812.05,876.9 821.85,868.65 831.4,860 840.85,850.85 842.45,849.25 844.15,847.55 845.85,845.85 846.2,845.5 846.5,845.2 846.85,844.85 854.2,837.45 861.3,829.9 868.1,822.2 893.65,793.35 914.95,762.8 932.05,730.4 936.95,721.25 941.5,711.8 945.7,702.2 948.35,696.3 950.85,690.2 953.2,684.05 965.7,651.75 974.4,617.85 979.4,582.2 981.65,565.45 983.15,548.2 983.75,530.55 983.95,524.5 984.05,518.3 984.05,512.05 984.05,511.4 984.05,510.7 984.05,510.05 984.05,509.7 984.05,509.4 984.05,509.05 983.95,493.25 983.2,477.7 981.75,462.2 979.45,438.4 975.45,414.95 969.75,392.05 968.65,387.7 967.4,383.05 966.1,378.45 963.6,369.7 960.75,360.85 957.65,352.1 956.5,348.9 955.35,345.7 954,342.2 948.45,327.6 941.9,312.95 934.5,298.45 933.75,297 933,295.55 932.05,293.75 929.1,288.15 925.7,282.05 922.2,276.05 911.4,257.65 899.1,239.75 885.1,222.2 873.25,207.3 860.1,192.55 845.85,178.3z"/>
    </g>
  </g>
  <g id="Symbole.__203">
    <g id="shape4">
      <path id="path2" fill="#000000" fill-opacity="0.2" d="M932.05,730.4 C936.95,721.25 941.5,711.8 945.7,702.2 948.35,696.3 950.85,690.2 953.2,684.05 965.7,651.75 974.4,617.85 979.4,582.2 Q981.705,565.295 982.875,547.925 L849.7,414.75 506.3,825.45 646.65,965.8 C662.2,961.3 677.3,956.05 692.05,950.05 698.2,947.5 704.3,944.85 709.95,942.2 746.35,925.25 780.3,903.45 812.05,876.9 821.85,868.65 831.4,860 840.85,850.85 842.45,849.25 844.15,847.55 845.85,845.85 846.2,845.5 846.5,845.2 846.85,844.85 854.2,837.45 861.3,829.9 868.1,822.2 893.65,793.35 914.95,762.8 932.05,730.4z"/>
    </g>
  </g>
  <g id="inner">
    <g id="shape6">
      <path id="path3" fill="#F8EEAC" fill-opacity="1" d="M762.7,311.75 L668.7,267.75 355.4,267.75 261.4,311.75 354.55,339.75 669.55,339.75 762.7,311.75z"/>
      <path id="path4" fill="#D98A49" fill-opacity="1" d="M762.7,311.75 L669.55,339.75 722.8,472.75 721.95,474.25 849.7,414.75 762.7,311.75z"/>
      <path id="path5" fill="#E38739" fill-opacity="1" d="M721.95,474.25 L722.8,472.75 302.75,472.75 302.15,474.25 510.3,830.15 512.05,832.35 513.8,830.15 721.95,474.25z"/>
      <path id="path6" fill="#B84C35" fill-opacity="1" d="M849.7,414.75 L721.95,474.25 513.8,830.15 849.7,414.75z"/>
      <path id="path7" fill="#E9CB65" fill-opacity="1" d="M722.8,472.75 L669.55,339.75 354.55,339.75 302.75,472.75 722.8,472.75z M302.15,474.25 L301.3,472.75 302.75,472.75 302.15,474.25z"/>
      <path id="path11" fill="#FAE88C" fill-opacity="1" d="M302.15,474.25 L301.3,472.75 302.75,472.75 354.55,339.75 261.4,311.75 174.4,414.75 302.15,474.25z"/>
      <path id="path12" fill="#C33F26" fill-opacity="1" d="M302.15,474.25 L174.4,414.75 510.3,830.15 302.15,474.25z"/>
    </g>
  </g>
  <g id="Calque.__202">
    <g id="shape18">
      <path id="path13" fill="#FFFFFF" fill-opacity="1" d="M268.25,194.45 L268.25,194.1 268.2,194.3 268.2,194.45 251.9,294.65 151.7,310.95 251.9,327.3 268.2,427.45 268.2,427.65 268.25,427.8 268.25,427.45 284.55,327.3 384.7,310.95 284.55,294.65 268.25,194.45z"/>
    </g>
  </g>
</svg>