<?xml version="1.0" encoding="utf-8"?>
<!-- Generator: flash2svg, http://dissentgraphics.com/tools/flash2svg -->
<svg xmlns:xlink="http://www.w3.org/1999/xlink" id="CyberDuck" image-rendering="optimizeSpeed" baseProfile="basic" version="1.1" style="background-color:#ffffff" x="0px" y="0px" width="1024px" height="1024px" viewBox="0 0 1024 1024" enable-background="new 0 0 1024 1024" xmlns="http://www.w3.org/2000/svg">
  <defs transform="matrix(1 0 0 1 0 0) "/>
  <g id="shadow">
    <g id="shape">
      <path id="path" fill="#000000" fill-opacity="0.09803921568627451" d="M969.65,351.3 Q961.05,330.45 950.25,310.45 C946.2,302.9 941.9,295.4 937.35,288.05 917.8,256.35 893.95,226.4 865.8,198.25 773.65,106.1 662.35,60 532,60 401.65,60 290.4,106.1 198.25,198.25 106.1,290.4 60,401.65 60,532 60,662.35 106.1,773.65 198.25,865.8 290.4,957.95 401.65,1004 532,1004 662.35,1004 773.65,957.95 865.8,865.8 916.55,815 953.35,758.4 976.15,696.05 994.7,645.2 1004,590.55 1004,532 1004,487.1 998.55,444.45 987.6,404.05 986.35,399.5 985.05,394.95 983.7,390.45 979.6,377.15 974.9,364.1 969.65,351.3z"/>
    </g>
  </g>
  <g id="circle">
    <g id="shape2">
      <path id="path1" fill="#414C44" fill-opacity="1" d="M958.55,354.65 C958.25,353.9 957.95,353 957.65,352.1 951.2,333.85 943.5,316.05 934.5,298.45 930.7,291.05 926.55,283.5 922.2,276.05 901.9,241.55 876.4,208.85 845.85,178.3 773.4,105.85 689.1,61.85 593.05,46.4 592.75,46.35 592.45,46.3 592.2,46.25 575.95,43.65 559.4,41.85 542.15,40.9 532.45,40.35 522.3,40.05 512.05,40.05 502.7,40.05 493.45,40.3 484.15,40.8 365.8,46.9 263.85,92.75 178.3,178.3 121.8,234.8 82.65,298.45 60.85,369 Q40.05,436.2 40.05,512.05 C40.05,642.4 86.15,753.7 178.3,845.85 206.7,874.25 236.95,898.3 268.1,917.4 264.05,897.2 262.05,876.1 262.05,854.05 262.05,777.3 286.45,711.75 335.25,657.45 384.1,603.2 443,576.05 512.05,576.05 520.65,576.05 529.1,576.5 537.05,577.3 549.25,578.55 560.8,580.6 572.05,583.55 615.9,595 654.8,619.65 688.8,657.45 737.65,711.75 762.05,777.3 762.05,854.05 762.05,871.45 760.8,888.25 758.35,904.3 757.95,906.9 757.55,909.3 757.1,911.7 756.75,913.65 756.4,915.55 756.05,917.45 759.1,915.55 762.1,913.65 765.1,911.7 779.75,902.2 793.75,891.95 807.35,880.8 820.6,869.9 833.4,858.3 845.85,845.85 857.7,834 868.8,821.8 879.15,809.35 911.15,770.6 935.85,728.85 953.2,684.05 957.15,673.8 960.75,663.4 963.95,652.9 966.15,645.6 968.2,638.2 970.1,630.6 977.95,598.75 982.55,565.35 983.75,530.55 983.95,524.5 984.05,518.3 984.05,512.05 984.05,511.4 984.05,510.7 984.05,510.05 984.05,509.7 984.05,509.4 984.05,509.05 983.85,468.4 979.1,429.55 969.75,392.05 968.65,387.7 967.4,383.05 966.1,378.45 963.85,370.6 961.35,362.65 958.55,354.65z"/>
      <path id="path2" fill="#F1A63C" fill-opacity="1" d="M537.05,577.3 C529.1,576.5 520.65,576.05 512.05,576.05 443,576.05 384.1,603.2 335.25,657.45 286.45,711.75 262.05,777.3 262.05,854.05 262.05,876.1 264.05,897.2 268.1,917.4 271.45,919.4 274.35,921.15 277.25,922.85 297,934.4 316.9,944.1 337.4,952.15 343.85,954.75 350,957 356.2,959.1 372.4,964.65 388.95,969.25 405.2,972.85 398.4,957.15 393.05,940.35 389.25,922.85 388.85,921 388.45,919.2 388.1,917.4 384.05,897.2 382.05,876.1 382.05,854.05 382.05,777.3 406.45,711.75 455.25,657.45 464.45,647.25 474,638 483.8,629.8 498.7,617.3 514.35,607 530.8,598.95 544.05,592.35 557.8,587.25 572.05,583.55 560.8,580.6 549.25,578.55 537.05,577.3z"/>
      <path id="path3" fill="#C77A35" fill-opacity="1" d="M483.8,629.8 C474,638 464.45,647.25 455.25,657.45 406.45,711.75 382.05,777.3 382.05,854.05 382.05,876.1 384.05,897.2 388.1,917.4 388.45,919.2 388.85,921 389.25,922.85 393.05,940.35 398.4,957.15 405.2,972.85 431.15,978.45 457.25,981.95 484.15,983.35 484.3,983.35 484.4,983.35 484.55,983.35 493.05,983.8 501.15,984.05 509.05,984.05 510.25,984.05 511.15,984.05 512.05,984.05 522.35,984.05 532.55,983.75 542.15,983.25 544.65,983.1 546.9,982.95 549.1,982.8 569.3,981.35 589,978.75 607.8,975.1 615.75,973.55 623.6,971.8 631.2,969.95 661.65,962.3 690.75,951.65 718.45,938.15 731.25,931.85 743.8,924.95 756.05,917.45 756.4,915.55 756.75,913.65 757.1,911.7 757.55,909.3 757.95,906.9 758.35,904.3 760.8,888.25 762.05,871.45 762.05,854.05 762.05,777.3 737.65,711.75 688.8,657.45 654.8,619.65 615.9,595 572.05,583.55 557.8,587.25 544.05,592.35 530.8,598.95 514.35,607 498.7,617.3 483.8,629.8z"/>
    </g>
  </g>
  <g id="circle1">
    <g id="shape7">
      <path id="path4" fill="#FDA331" fill-opacity="1" d="M572.05,583.55 C560.8,580.6 549.25,578.55 537.05,577.3 L537.05,577.275 L530.775,598.925 L530.8,598.95 C544.05,592.35 557.8,587.25 572.05,583.55z"/>
      <path id="path5" fill="#000000" fill-opacity="0.2" d="M953.2,684.05 C957.15,673.8 960.75,663.4 963.95,652.9 Q967.3,641.86 970.1,630.6 L622.375,282.875 537.05,577.275 L537.05,577.3 C549.25,578.55 560.8,580.6 572.05,583.55 615.9,595 654.8,619.65 688.8,657.45 737.65,711.75 762.05,777.3 762.05,854.05 762.05,871.45 760.8,888.25 758.35,904.3 757.95,906.9 757.55,909.3 757.1,911.7 756.75,913.65 756.4,915.55 756.05,917.45 759.1,915.55 762.1,913.65 765.1,911.7 779.75,902.2 793.75,891.95 807.35,880.8 820.6,869.9 833.4,858.3 845.85,845.85 857.7,834 868.8,821.8 879.15,809.35 911.15,770.6 935.85,728.85 953.2,684.05z"/>
      <path id="path6" fill="#C9883C" fill-opacity="1" d="M513.275,659.25 L530.775,598.925 L530.8,598.95 C514.35,607 498.7,617.3 483.8,629.8 L483.8,629.775 L513.275,659.25z"/>
    </g>
  </g>
  <g id="bubles">
    <g id="shape12">
      <path id="path7" fill="#FFFFFF" fill-opacity="1" d="M160.65,378.2 C146.95,378.2 135.3,383 125.7,392.65 116.1,402.3 111.3,413.95 111.3,427.55 L111.45,431.7 C103.95,435.15 97.95,440.4 93.45,447.45 88.85,454.5 86.55,462.25 86.55,470.75 86.55,482.6 90.8,492.8 99.2,501.3 107.7,509.7 117.9,513.95 129.75,513.95 L234.6,513.95 C244.85,513.95 253.6,510.3 260.85,503 268.05,495.85 271.6,487.1 271.6,476.9 271.6,468.2 268.9,460.5 263.55,453.8 258.15,447.1 251.3,442.8 243,440.9 245.7,436.85 247,432.4 247,427.55 247,420.75 244.6,414.95 239.8,410.1 Q232.5,402.85 222.3,402.85 C216.1,402.85 210.75,404.8 206.25,408.8 202.5,399.7 196.5,392.3 188.25,386.65 179.95,381 170.75,378.2 160.65,378.2z M713,148.05 C704.15,148.05 696.45,150.9 690,156.6 684.65,143.55 676.05,132.95 664.15,124.8 652.3,116.75 639.1,112.75 624.6,112.75 605,112.75 588.3,119.6 574.5,133.4 560.75,147.3 553.85,164 553.85,183.5 L554.05,189.45 C543.35,194.4 534.75,201.95 528.25,212.05 521.65,222.1 518.4,233.25 518.4,245.4 518.4,262.45 524.45,277.05 536.5,289.25 548.7,301.3 563.3,307.35 580.3,307.35 L730.65,307.35 C745.35,307.35 757.9,302.15 768.3,291.7 778.6,281.4 783.75,268.9 783.75,254.25 783.75,241.8 779.9,230.75 772.15,221.1 764.4,211.5 754.6,205.35 742.75,202.6 746.55,196.8 748.45,190.4 748.45,183.5 748.45,173.75 745,165.4 738.1,158.5 731.15,151.5 722.75,148.05 713,148.05z"/>
    </g>
  </g>
  <g id="head">
    <g id="shape16">
      <path id="path10" fill="#C77A35" fill-opacity="1" d="M710.85,677.55 Q702.6,671.55 692.55,673.2 C685.8,674.25 680.45,677.55 676.5,683.15 L641.5,732.5 C637.95,737.55 636.5,743.15 637.2,749.2 637.8,755.3 640.4,760.45 644.95,764.6 649.45,768.75 654.8,770.9 660.95,771.05 L766.2,773.15 C771.5,773.3 776.35,771.8 780.65,768.75 785.05,765.7 788.1,761.65 789.8,756.55 791.5,751.5 791.6,746.45 789.95,741.4 788.4,736.35 785.45,732.2 781.15,729.1 L710.85,677.55z"/>
      <path id="path11" fill="#F1A63C" fill-opacity="1" d="M236.05,745.4 C234.4,750.45 234.5,755.5 236.2,760.55 237.9,765.65 240.95,769.7 245.35,772.75 249.65,775.8 254.5,777.3 259.8,777.15 L365.05,775.05 C371.2,774.9 376.55,772.75 381.05,768.6 385.6,764.45 388.2,759.3 388.8,753.2 389.5,747.15 388.05,741.55 384.5,736.5 L349.5,687.15 C345.55,681.55 340.2,678.25 333.45,677.2 326.8,676.1 320.65,677.55 315.15,681.55 L244.85,733.1 C240.55,736.2 237.6,740.35 236.05,745.4z"/>
    </g>
  </g>
  <g id="circle2">
    <g id="shape19">
      <path id="path12" fill="#C77A35" fill-opacity="1" d="M644.25,294.8 Q624.6,275.15 602.05,262.55 C587,270.95 572.9,281.7 559.8,294.8 524.5,330.15 506.25,372.55 505.1,422.05 505.05,423.7 505.05,425.4 505.05,427.05 505.05,429.75 505.1,432.45 505.2,435.1 L505.2,613.95 C507.45,614 509.75,614.05 512.05,614.05 545.15,614.05 575.15,606.55 602.05,591.55 617.1,583.1 631.15,572.35 644.25,559.25 680.8,522.75 699.05,478.7 699.05,427.05 699.05,375.4 680.8,331.35 644.25,294.8z"/>
      <path id="path13" fill="#F1A63C" fill-opacity="1" d="M559.8,294.8 C572.9,281.7 587,270.95 602.05,262.55 575.15,247.55 545.15,240.05 512.05,240.05 460.4,240.05 416.35,258.3 379.8,294.8 343.3,331.35 325.05,375.4 325.05,427.05 325.05,478.7 343.3,522.75 379.8,559.25 414.7,594.15 456.5,612.4 505.2,613.95 L505.2,435.1 C505.1,432.45 505.05,429.75 505.05,427.05 505.05,425.4 505.05,423.7 505.1,422.05 506.25,372.55 524.5,330.15 559.8,294.8z"/>
    </g>
  </g>
  <g id="shadow1">
    <g id="shape23">
      <path id="path14" fill="#F9E062" fill-opacity="1" d="M513.15,539.175 Q512.65,539.015 512.15,538.925 L512.15,538.95 C509.1,538.4 506.05,539.55 503,542.45 L503,542.425 L448.85,576.8 C448.5,577 448.2,577.25 447.95,577.55 442.5,582.9 442.45,588.35 447.85,593.8 L447.825,593.775 L502.55,648.5 C505.75,651.7 508.95,653 512.15,652.45 512.5,652.4 512.8,652.3 513.15,652.25 L513.15,652.225 L513.15,539.175z"/>
      <path id="path15" fill="#E8A74E" fill-opacity="1" d="M518.45,542.5 C516.7,540.8 514.9,539.7 513.15,539.2 L513.15,539.175 L513.15,652.225 L513.15,652.25 C515.05,651.7 516.95,650.45 518.85,648.6 L518.825,648.575 L573.5,593.85 C578.95,588.4 578.95,583 573.5,577.55 573.2,577.25 572.9,577 572.55,576.8 L572.525,576.8 L518.425,542.475"/>
    </g>
  </g>
  <g id="Calque.__201">
    <g id="Symbole.__2027_1" overflow="visible">
      <g id="Calque.__203">
        <g id="shape31">
          <path id="path19" fill="#393316" fill-opacity="1" d="M428.55,483.95 C422.75,483.95 417.8,486 413.65,490.1 409.55,494.25 407.5,499.2 407.5,505 407.5,510.8 409.55,515.75 413.65,519.85 417.8,524 422.75,526.05 428.55,526.05 434.35,526.05 439.3,524 443.4,519.85 447.55,515.75 449.6,510.8 449.6,505 449.6,499.2 447.55,494.25 443.4,490.1 439.3,486 434.35,483.95 428.55,483.95z M610.35,490.1 Q604.2,483.95 595.5,483.95 C589.7,483.95 584.75,486 580.6,490.1 576.5,494.25 574.45,499.2 574.45,505 574.45,510.8 576.5,515.75 580.6,519.85 584.75,524 589.7,526.05 595.5,526.05 601.3,526.05 606.25,524 610.35,519.85 614.5,515.75 616.55,510.8 616.55,505 616.55,499.2 614.5,494.25 610.35,490.1z"/>
        </g>
      </g>
    </g>
  </g>
</svg>