<?xml version="1.0" encoding="utf-8"?>
<!-- Generator: flash2svg, http://dissentgraphics.com/tools/flash2svg -->
<svg xmlns:xlink="http://www.w3.org/1999/xlink" id="Apps-Omigraffle" image-rendering="optimizeSpeed" baseProfile="basic" version="1.1" style="background-color:#ffffff" x="0px" y="0px" width="1024px" height="1024px" viewBox="0 0 1024 1024" enable-background="new 0 0 1024 1024" xmlns="http://www.w3.org/2000/svg">
  <defs transform="matrix(1 0 0 1 0 0) "/>
  <g id="background-circle-shadow">
    <g id="shape">
      <path id="path" fill="#000000" fill-opacity="0.09803921568627451" d="M969.65,351.3 Q961.05,330.45 950.25,310.45 C946.2,302.9 941.9,295.4 937.35,288.05 917.8,256.35 893.95,226.4 865.8,198.25 773.65,106.1 662.35,60 532,60 401.65,60 290.4,106.1 198.25,198.25 106.1,290.4 60,401.65 60,532 60,662.35 106.1,773.65 198.25,865.8 290.4,957.95 401.65,1004 532,1004 662.35,1004 773.65,957.95 865.8,865.8 916.55,815 953.35,758.4 976.15,696.05 994.7,645.2 1004,590.55 1004,532 1004,487.1 998.55,444.45 987.6,404.05 986.35,399.5 985.05,394.95 983.7,390.45 979.6,377.15 974.9,364.1 969.65,351.3z"/>
    </g>
  </g>
  <g id="background-circle">
    <g id="shape2">
      <path id="path1" fill="#72E79F" fill-opacity="1" d="M966.1,378.45 C965.1,375.05 964.1,371.6 962.95,367.95 961.35,362.8 959.55,357.45 957.65,352.1 951.2,333.85 943.5,316.05 934.5,298.45 930.7,291.05 926.55,283.5 922.2,276.05 901.9,241.55 876.4,208.85 845.85,178.3 773.25,105.7 688.7,61.65 592.2,46.25 575.95,43.65 559.4,41.85 542.15,40.9 532.45,40.35 522.3,40.05 512.05,40.05 502.7,40.05 493.45,40.3 484.15,40.8 365.8,46.9 263.85,92.75 178.3,178.3 Q40.05,316.55 40.05,512.05 C40.05,642.4 86.15,753.7 178.3,845.85 235,902.5 298.85,941.75 369.4,963.4 406.15,974.65 444.2,981.25 484.15,983.35 484.3,983.35 484.4,983.35 484.55,983.35 493.05,983.8 501.15,984.05 509.05,984.05 510.25,984.05 511.15,984.05 512.05,984.05 522.35,984.05 532.55,983.75 542.15,983.25 544.65,983.1 546.9,982.95 549.1,982.8 569.3,981.35 589,978.75 607.8,975.1 615.75,973.55 623.6,971.8 631.2,969.95 712,949.65 783.35,908.35 845.85,845.85 894.45,797.25 930.25,743.35 953.2,684.05 971.65,636.4 981.85,585.25 983.75,530.55 983.95,524.5 984.05,518.3 984.05,512.05 984.05,511.4 984.05,510.7 984.05,510.05 984.05,509.7 984.05,509.4 984.05,509.05 983.85,468.4 979.1,429.55 969.75,392.05 968.65,387.7 967.4,383.05 966.1,378.45z"/>
    </g>
  </g>
  <g id="object-shadow">
    <g id="shape4">
      <path id="path2" fill="#000000" fill-opacity="0.2" d="M984.05,509.05 C984.05,507.25 984.05,505.45 984,503.5 L712.05,231.55 474.95,458.05 298.05,281.15 196.15,404.05 356.375,564.275 195.4,742.05 431.1,977.75 C448.65,980.55 466.2,982.4 484.15,983.35 484.3,983.35 484.4,983.35 484.55,983.35 493.05,983.8 501.15,984.05 509.05,984.05 Q510.55,984.05 512.05,984.05 C522.35,984.05 532.55,983.75 542.15,983.25 544.65,983.1 546.9,982.95 549.1,982.8 569.3,981.35 589,978.75 607.8,975.1 615.75,973.55 623.6,971.8 631.2,969.95 712,949.65 783.35,908.35 845.85,845.85 894.45,797.25 930.25,743.35 953.2,684.05 971.65,636.4 981.85,585.25 983.75,530.55 983.95,524.5 984.05,518.3 984.05,512.05 984.05,511.4 984.05,510.7 984.05,510.05 984.05,509.7 984.05,509.4 984.05,509.05z"/>
    </g>
  </g>
  <g id="Calque.__202">
    <g id="shape6">
      <path id="path3" fill="#333333" fill-opacity="1" d="M708.45,224.4 Q685.05,201 651.95,201 C629.9,201 611.05,208.8 595.45,224.4 579.85,240 572.05,258.85 572.05,280.9 572.05,298.1 576.8,313.35 586.3,326.65 L495.4,417.5 C474.3,400.55 449.7,392.05 421.55,392.05 393.65,392.05 369.2,400.4 348.25,417.05 L318.5,387.3 C326.3,374.9 330.2,360.9 330.2,345.3 330.2,323.25 322.4,304.4 306.8,288.8 291.2,273.2 272.35,265.4 250.3,265.4 228.25,265.4 209.4,273.2 193.8,288.8 178.2,304.4 170.4,323.25 170.4,345.3 170.4,367.35 178.2,386.2 193.8,401.8 209.4,417.4 228.25,425.2 250.3,425.2 268.45,425.2 284.4,419.95 298.2,409.4 L327.05,438.25 C310.4,459.2 302.05,483.65 302.05,511.55 302.05,539.7 310.55,564.3 327.5,585.45 L295.35,617.6 C282,607.95 266.6,603.1 249.25,603.1 227.2,603.1 208.35,610.9 192.75,626.5 177.15,642.1 169.35,660.95 169.35,683 169.35,705.05 177.15,723.9 192.75,739.5 208.35,755.1 227.2,762.9 249.25,762.9 271.3,762.9 290.15,755.1 305.75,739.5 321.35,723.9 329.15,705.05 329.15,683 329.15,666.55 324.85,651.95 316.2,639.1 L348.8,606.5 C369.65,622.85 393.9,631.05 421.55,631.05 449.7,631.05 474.3,622.55 495.4,605.6 L584.35,694.55 C576.3,707.05 572.25,721.2 572.25,737.05 572.25,759.1 580.05,777.95 595.65,793.55 611.25,809.15 630.1,816.95 652.15,816.95 674.2,816.95 693.05,809.15 708.65,793.55 724.25,777.95 732.05,759.1 732.05,737.05 732.05,715 724.25,696.15 708.65,680.55 693.05,664.95 674.2,657.15 652.15,657.15 634.2,657.15 618.45,662.3 604.8,672.6 L516.5,584.3 C529.75,567.45 537.6,548.35 540.15,527.05 L722.85,527.05 C725.65,542.7 733,556.5 744.9,568.4 760.5,584 779.35,591.8 801.4,591.8 823.45,591.8 842.3,584 857.9,568.4 873.5,552.8 881.3,533.95 881.3,511.9 881.3,489.85 873.5,471 857.9,455.4 842.3,439.8 823.45,432 801.4,432 779.35,432 760.5,439.8 744.9,455.4 732.95,467.35 725.55,481.25 722.8,497.05 L540.3,497.05 C537.85,475.35 529.95,455.95 516.5,438.8 L607.7,347.6 C620.65,356.4 635.4,360.8 651.95,360.8 674,360.8 692.85,353 708.45,337.4 724.05,321.8 731.85,302.95 731.85,280.9 731.85,258.85 724.05,240 708.45,224.4z"/>
    </g>
  </g>
</svg>