
<svg xmlns="http://www.w3.org/2000/svg" version="1.1" xmlns:xlink="http://www.w3.org/1999/xlink" preserveAspectRatio="none" x="0px" y="0px" width="1024px" height="1024px" viewBox="0 0 1024 1024">
<defs>
<g id="Layer7_0_FILL">
<path fill="#000000" fill-opacity="0.09803921568627451" stroke="none" d="
M 965.6 347.25
Q 957 326.4 946.2 306.4 940.1 295.05 933.3 284 903.95 236.45 861.75 194.2 723.5 55.95 527.95 55.95 332.45 55.95 194.2 194.2 55.95 332.45 55.95 527.95 55.95 723.5 194.2 861.75 332.45 999.95 527.95 999.95 723.5 999.95 861.75 861.75 937.9 785.55 972.1 692 999.95 615.75 999.95 527.95 999.95 460.6 983.55 400 981.7 393.15 979.65 386.4 973.5 366.45 965.6 347.25 Z"/>
</g>

<g id="Layer6_0_FILL">
<path fill="#CCCCCC" stroke="none" d="
M 603.45 512
Q 603.4 549.9 576.65 576.65 569.528515625 583.771484375 561.6 589
L 634.25 589
Q 656.2 555.033203125 656.2 512 656.2 452.3 613.95 410.05 571.7 367.8 512 367.85 452.3 367.8 410.05 410.05 367.8 452.3 367.85 512 367.8138671875 555.033203125 389.75 589
L 462.35 589
Q 454.471484375 583.771484375 447.35 576.65 420.6 549.9 420.6 512 420.6 474.1 447.35 447.35 474.1 420.6 512 420.6 549.9 420.6 576.65 447.35 603.4 474.1 603.45 512
M 57 512
Q 57 551.7271484375 62.9 589
L 365.75 589
Q 347.2 554.355078125 347.2 512 347.2 473.8740234375 362.2 442
L 79.8 365.45
Q 57 433.998046875 57 512
M 838.2 194.75
Q 836.0185546875 192.5177734375 833.8 190.3 833.5123046875 190.0123046875 833.2 189.7 769.7791015625 126.4734375 693.85 93.35 689.5208984375 91.48671875 685.15 89.7 605.344140625 57 512 57 414.028125 57 330.95 93
L 432 367.4
Q 467.803515625 347.2 512 347.2 551.52890625 347.2 584.35 363.35 607.916796875 374.972265625 628 394.9 628.287109375 395.187109375 628.55 395.45 630.8029296875 397.7029296875 632.95 400 650.2865234375 418.537109375 660.75 439.9 676.82109375 472.630078125 676.85 512 676.8189453125 554.355078125 658.25 589
L 947.2 589 947.2 509.7 967.05 509.7
Q 966.716015625 433.61484375 944.6 366.55 944.467578125 366.1541015625 944.3 365.7 912.926953125 271.239453125 838.2 194.75 Z"/>

<path fill="#A5A4A4" stroke="none" d="
M 576.65 576.65
Q 603.4 549.9 603.45 512 603.4 474.1 576.65 447.35 549.9 420.6 512 420.6 474.1 420.6 447.35 447.35 420.6 474.1 420.6 512 420.6 549.9 447.35 576.65 454.471484375 583.771484375 462.35 589
L 561.6 589
Q 569.528515625 583.771484375 576.65 576.65
M 512 441.25
Q 541.3 441.2 562.05 461.95 582.8 482.7 582.8 512 582.8 541.3 562.05 562.05 541.3 582.8 512 582.8 482.7 582.8 461.95 562.05 441.2 541.3 441.25 512 441.2 482.7 461.95 461.95 482.7 441.2 512 441.25
M 658.25 589
Q 676.8189453125 554.355078125 676.85 512 676.82109375 472.630078125 660.75 439.9 650.2865234375 418.537109375 632.95 400 630.8029296875 397.7029296875 628.55 395.45 628.287109375 395.187109375 628 394.9 607.916796875 374.972265625 584.35 363.35 551.52890625 347.2 512 347.2 467.803515625 347.2 432 367.4 412.477734375 378.422265625 395.45 395.45 374.1337890625 416.7662109375 362.2 442 347.2 473.8740234375 347.2 512 347.2 554.355078125 365.75 589
L 389.75 589
Q 367.8138671875 555.033203125 367.85 512 367.8 452.3 410.05 410.05 452.3 367.8 512 367.85 571.7 367.8 613.95 410.05 656.2 452.3 656.2 512 656.2 555.033203125 634.25 589
L 658.25 589 Z"/>

<path fill="#E4E4E4" stroke="none" d="
M 395.45 395.45
Q 412.477734375 378.422265625 432 367.4
L 330.95 93
Q 254.27578125 126.300390625 190.3 190.3 112.1599609375 268.3814453125 79.8 365.45
L 362.2 442
Q 374.1337890625 416.7662109375 395.45 395.45 Z"/>

<path fill="#000000" stroke="none" d="
M 947.2 589.45
L 947.2 589 658.25 589 634.25 589 561.6 589 462.35 589 389.75 589 365.75 589 62.9 589 45.6 589
Q 67.905859375 736.055859375 178.4 846.55 301.65 969.85 470.35 983.3 491.15 985 512.65 985 523.75 985 534.65 984.55 716.35 977.15 846.95 846.55 917.3 776.2 951.9 691.05 961.85 666.5 968.9 640.75 975.6986328125 615.6775390625 979.7 589.45
L 947.2 589.45 Z"/>

<path fill="#E6E6E6" stroke="none" d="
M 967.05 509.7
L 947.2 509.7 947.2 589 947.2 589.45 979.7 589.45
Q 979.7408203125 589.225390625 979.75 589 985.4 551.7865234375 985.4 512.25 985.4 510.9734375 985.4 509.7
L 967.05 509.7 Z"/>

<path fill="#FFFFFF" stroke="none" d="
M 833.8 190.3
Q 836.0185546875 192.5177734375 838.2 194.75 912.926953125 271.239453125 944.3 365.7 944.467578125 366.1541015625 944.6 366.55 966.716015625 433.61484375 967.05 509.7
L 985.4 509.7
Q 985.0318359375 431.2267578125 962.35 362 929.7189453125 262.4509765625 850.9 182 848.9548828125 180.0048828125 846.95 178 846.449609375 177.499609375 845.95 177 779.5625 110.95390625 700 76.65 614.0236328125 39.55 512.65 39.55 411.1109375 39.55 325 76.75 245.051953125 111.348046875 178.4 178 96.8501953125 259.5498046875 63.3 361 39.95 431.780078125 39.95 512.25 39.95 551.7958984375 45.6 589
L 62.9 589
Q 57 551.7271484375 57 512 57 433.998046875 79.8 365.45 112.1599609375 268.3814453125 190.3 190.3 254.27578125 126.300390625 330.95 93 414.028125 57 512 57 605.344140625 57 685.15 89.7 689.5208984375 91.48671875 693.85 93.35 769.7791015625 126.4734375 833.2 189.7 833.5123046875 190.0123046875 833.8 190.3 Z"/>
</g>

<g id="Layer5_0_FILL">
<path fill="#E4E4E4" stroke="none" d="
M 646.2 512
Q 646.2 456.45 606.9 417.1 567.55 377.8 512 377.85 456.45 377.8 417.1 417.1 377.8 456.45 377.85 512 377.8 567.55 417.1 606.9 456.45 646.2 512 646.2 567.55 646.2 606.9 606.9 646.2 567.55 646.2 512
M 613.45 512
Q 613.4 554.05 583.7 583.7 554.05 613.4 512 613.45 469.95 613.4 440.3 583.7 410.6 554.05 410.6 512 410.6 469.95 440.3 440.3 469.95 410.6 512 410.6 554.05 410.6 583.7 440.3 613.4 469.95 613.45 512 Z"/>
</g>

<g id="Layer4_0_FILL">
<path fill="#333333" stroke="none" d="
M 245.65 561.1
Q 182.20703125 582.9384765625 169.2 655.2 249.15 706.4 325.25 691.45
L 249.75 770.95
Q 323.0951171875 893.803125 442.3 980.1 442.9212890625 980.1943359375 443.5 980.25 456.471484375 981.9953125 469.7 983.05 490.5 984.75 512 984.75
L 512 894 510 899.45 508.5 903.55 390.5 550.8
Q 389.4984375 550.8556640625 388.5 550.9 388.2486328125 550.9138671875 388 550.9 316.5583984375 554.09765625 245.65 561.1 Z"/>

<path fill="#000000" stroke="none" d="
M 169.2 655.2
Q 182.20703125 582.9384765625 245.65 561.1 144.7619140625 571.141796875 44.95 588.95 67.340234375 735.890234375 177.75 846.3 290.884765625 959.4806640625 442.3 980.1 323.0951171875 893.803125 249.75 770.95
L 325.25 691.45
Q 249.15 706.4 169.2 655.2
M 780.55 562.15
Q 785.148828125 563.96171875 789.45 566.05 840 590.55 851.45 654.15 771.5 705.35 695.4 690.4
L 770.9 769.9
Q 697.55 892.75 578.3 979.05 577.25 979.85 576.2 980.6
L 575.95 980.85
Q 731.0306640625 961.5693359375 846.3 846.3 916.65 775.95 951.25 690.8 961.2 666.25 968.25 640.5 975.0708984375 615.3451171875 979.05 589 879.3205078125 572.0578125 780.55 562.15 Z"/>

<path fill="#FFFFFF" stroke="none" d="
M 39.3 510
Q 39.3 510.999609375 39.3 512 39.3 551.6654296875 44.95 588.95 144.7619140625 571.141796875 245.65 561.1 316.5583984375 554.09765625 388 550.9 388.2486328125 550.9138671875 388.5 550.9 389.4984375 550.8556640625 390.5 550.8
L 508.5 903.55 510 899.45 510 548.3
Q 507.59921875 548.29921875 505.2 548.3
L 426.4 469.5
Q 230.796875 475.33515625 39.3 510 Z"/>

<path fill="#E6E6E6" stroke="none" d="
M 779.4 562.05
Q 780.00078125 562.107421875 780.55 562.15 879.3205078125 572.0578125 979.05 589 982.573046875 566.0078125 983.9 542.1 984.75 527.2224609375 984.75 512 984.75 510.9990234375 984.75 510 789.124609375 476.3369140625 597.4 469.85
L 518.9 548.3
Q 515.4607421875 548.311328125 512 548.3 510.9998046875 548.3017578125 510 548.3
L 510 899.45 512 894 637.45 551.5
Q 708.1890625 554.931640625 779.4 562.05 Z"/>

<path fill="#232323" stroke="none" d="
M 780.55 562.15
Q 780.00078125 562.107421875 779.4 562.05 708.1890625 554.931640625 637.45 551.5
L 512 894 512 984.75
Q 523.1 984.75 534 984.3 555.3291015625 983.43125 575.95 980.85
L 576.2 980.6
Q 577.25 979.85 578.3 979.05 697.55 892.75 770.9 769.9
L 695.4 690.4
Q 771.5 705.35 851.45 654.15 840 590.55 789.45 566.05 785.148828125 563.96171875 780.55 562.15 Z"/>
</g>

<g id="Layer3_0_FILL">
<path fill="#999999" stroke="none" d="
M 564.45 720.45
Q 564.45 713.15 559.3 708.05 554.15 702.9 546.9 702.9 539.65 702.9 534.5 708.05 529.35 713.15 529.35 720.45 529.35 727.7 534.5 732.85 539.65 738 546.9 738 554.15 738 559.3 732.85 564.45 727.7 564.45 720.45
M 559.3 633.2
Q 554.15 628.1 546.9 628.1 539.65 628.1 534.5 633.2 529.35 638.35 529.35 645.65 529.35 652.9 534.5 658.05 539.65 663.15 546.9 663.15 554.15 663.15 559.3 658.05 564.45 652.9 564.45 645.65 564.45 638.35 559.3 633.2
M 564.45 570.8
Q 564.45 563.55 559.3 558.4 554.15 553.3 546.9 553.3 539.65 553.3 534.5 558.4 529.35 563.55 529.35 570.8 529.35 578.1 534.5 583.25 539.65 588.35 546.9 588.35 554.15 588.35 559.3 583.25 564.45 578.1 564.45 570.8 Z"/>
</g>

<g id="Layer2_0_FILL">
<path fill="#FFFFFF" stroke="none" d="
M 560.45 715.85
Q 560.45 708.6 555.3 703.45 550.15 698.3 542.9 698.3 535.65 698.3 530.5 703.45 525.35 708.6 525.35 715.85 525.35 723.1 530.5 728.25 535.65 733.4 542.9 733.4 550.15 733.4 555.3 728.25 560.45 723.1 560.45 715.85
M 560.45 641.05
Q 560.45 633.8 555.3 628.65 550.15 623.5 542.9 623.5 535.65 623.5 530.5 628.65 525.35 633.8 525.35 641.05 525.35 648.3 530.5 653.45 535.65 658.6 542.9 658.6 550.15 658.6 555.3 653.45 560.45 648.3 560.45 641.05
M 560.45 566.25
Q 560.45 559 555.3 553.85 550.15 548.7 542.9 548.7 535.65 548.7 530.5 553.85 525.35 559 525.35 566.25 525.35 573.5 530.5 578.65 535.65 583.8 542.9 583.8 550.15 583.8 555.3 578.65 560.45 573.5 560.45 566.25 Z"/>
</g>

<g id="Symbole_10_0_Layer0_0_FILL">
<path fill="#000000" fill-opacity="0.2" stroke="none" d="
M 549.3 88.7
L 549.3 88.65
Q 549.3 87.4 549.3 86.15 549.3 53.2 536.25 29.9 530.3 19.3 523.25 13.55 427.25 13.55 344.1 50.45
L 344.1 51.6
Q 343.75 40.35 332.1 40.35
L 217.95 40.35
Q 206.35 40.35 205.95 51.6
L 205.95 50.4
Q 122.8 13.5 26.8 13.5 19.75 19.25 13.8 29.85 0.75 53.15 0.75 86.1 0.75 87.35 0.75 88.6
L 0.75 88.65
Q 1.25 119.95 13.8 142.3 18.25 150.3 23.35 155.55 114.65 170.4 205.95 131.6 206.35 142.85 217.95 142.85
L 332.1 142.85
Q 343.8 142.85 344.1 131.45
L 344.1 131.65
Q 435.4 170.45 526.7 155.6 531.8 150.35 536.25 142.35 548.8 120 549.3 88.7 Z"/>
</g>

<g id="Symbole_9_0_Layer0_0_FILL">
<path fill="#C1572B" stroke="none" d="
M 0 75.75
L 0 75.8
Q 62.75 127.75 205.2 75.75 62.7 23.75 0 75.75
M 343.35 66.45
Q 343 81.4 331.35 81.4 274.3 94.15 217.2 81.4 205.6 81.4 205.2 66.45
L 205.2 75.75 205.2 132.85
Q 205.6 147.8 217.2 147.8
L 331.35 147.8
Q 342.952734375 147.8 343.35 132.95
L 343.35 75.8 343.35 66.45
M 548.55 75.9
L 548.55 75.8
Q 485.85 23.8 343.35 75.8 485.8 127.85 548.55 75.9 Z"/>

<path fill="#8D3D1C" stroke="none" d="
M 205.2 132.85
L 205.2 75.75
Q 62.75 127.75 0 75.8 0.5 117.4 13.05 147.1 17.5 157.7 22.6 164.7 113.9 184.4 205.2 132.85
M 525.95 164.75
Q 531.05 157.8 535.5 147.15 548.05 117.45 548.55 75.9 485.8 127.85 343.35 75.8
L 343.35 132.95
Q 434.65 184.5 525.95 164.75 Z"/>

<path fill="#EC713D" stroke="none" d="
M 26.05 -24
Q 19 -16.35 13.05 -2.3 0 28.65 0 72.45 0 74.1 0 75.75 62.7 23.75 205.2 75.75
L 205.2 66.45
Q 205.6 81.4 217.2 81.4 274.3 94.15 331.35 81.4 343 81.4 343.35 66.45
L 343.35 75.8
Q 485.85 23.8 548.55 75.8 548.55 74.15 548.55 72.5 548.55 28.75 535.5 -2.2 529.55 -16.3 522.5 -23.95 426.5 -23.95 343.35 25.1
L 343.35 26.6
Q 343 11.65 331.35 11.65
L 217.2 11.65
Q 205.6 11.65 205.2 26.6
L 205.2 25
Q 122.05 -24 26.05 -24 Z"/>
</g>
</defs>

<g transform="matrix( 1, 0, 0, 1, 0,0) ">
<use xlink:href="#Layer7_0_FILL"/>
</g>

<g transform="matrix( 1, 0, 0, 1, 0,0) ">
<use xlink:href="#Layer6_0_FILL"/>
</g>

<g transform="matrix( 1, 0, 0, 1, 0,0) ">
<use xlink:href="#Layer5_0_FILL"/>
</g>

<g transform="matrix( 1, 0, 0, 1, 0,0) ">
<use xlink:href="#Layer4_0_FILL"/>
</g>

<g transform="matrix( 1, 0, 0, 1, 0,0) ">
<use xlink:href="#Layer3_0_FILL"/>
</g>

<g transform="matrix( 1, 0, 0, 1, 0,0) ">
<use xlink:href="#Layer2_0_FILL"/>
</g>

<g transform="matrix( 1, 0, 0, 1, 237.75,473.9) ">
<g transform="matrix( 1, 0, 0, 1, 0,0) ">
<use xlink:href="#Symbole_10_0_Layer0_0_FILL"/>
</g>

<g transform="matrix( 1, 0, 0, 1, 0,0) ">
<g transform="matrix( 1, 0, 0, 1, 0,0) ">
<use xlink:href="#Symbole_9_0_Layer0_0_FILL"/>
</g>
</g>
</g>
</svg>
