<?xml version="1.0" encoding="utf-8"?>
<!-- Generator: flash2svg, http://dissentgraphics.com/tools/flash2svg -->
<svg xmlns:xlink="http://www.w3.org/1999/xlink" id="Byword" image-rendering="optimizeSpeed" baseProfile="basic" version="1.1" style="background-color:#ffffff" x="0px" y="0px" width="1024px" height="1024px" viewBox="0 0 1024 1024" enable-background="new 0 0 1024 1024" xmlns="http://www.w3.org/2000/svg">
  <defs transform="matrix(1 0 0 1 0 0) "/>
  <g id="shadow">
    <g id="shape">
      <path id="path" fill="#000000" fill-opacity="0.09803921568627451" d="M969.65,351.3 Q961.05,330.45 950.25,310.45 C946.2,302.9 941.9,295.4 937.35,288.05 917.8,256.35 893.95,226.4 865.8,198.25 773.65,106.1 662.35,60 532,60 401.65,60 290.4,106.1 198.25,198.25 106.1,290.4 60,401.65 60,532 60,662.35 106.1,773.65 198.25,865.8 290.4,957.95 401.65,1004 532,1004 662.35,1004 773.65,957.95 865.8,865.8 916.55,815 953.35,758.4 976.15,696.05 994.7,645.2 1004,590.55 1004,532 1004,487.1 998.55,444.45 987.6,404.05 986.35,399.5 985.05,394.95 983.7,390.45 979.6,377.15 974.9,364.1 969.65,351.3z"/>
    </g>
  </g>
  <g id="circle">
    <g id="shape2">
      <path id="path1" fill="#999999" fill-opacity="1" d="M969.75,392.05 C968.65,387.7 967.4,383.05 966.1,378.45 963.6,369.7 960.75,360.85 957.65,352.1 951.2,333.85 943.5,316.05 934.5,298.45 930.7,291.05 926.55,283.5 922.2,276.05 901.9,241.55 876.4,208.85 845.85,178.3 773.25,105.7 688.7,61.65 592.2,46.25 575.95,43.65 559.4,41.85 542.15,40.9 532.45,40.35 522.3,40.05 512.05,40.05 502.7,40.05 493.45,40.3 484.15,40.8 365.8,46.9 263.85,92.75 178.3,178.3 Q40.05,316.55 40.05,512.05 C40.05,642.4 86.15,753.7 178.3,845.85 248.7,916.2 330.2,959.7 422.25,976.25 442.7,979.9 463.15,982.25 484.15,983.35 484.3,983.35 484.4,983.35 484.55,983.35 493.05,983.8 501.15,984.05 509.05,984.05 510.25,984.05 511.15,984.05 512.05,984.05 522.35,984.05 532.55,983.75 542.15,983.25 544.65,983.1 546.9,982.95 549.1,982.8 569.3,981.35 589,978.75 607.8,975.1 615.75,973.55 623.6,971.8 631.2,969.95 712,949.65 783.35,908.35 845.85,845.85 894.45,797.25 930.25,743.35 953.2,684.05 971.65,636.4 981.85,585.25 983.75,530.55 983.95,524.5 984.05,518.3 984.05,512.05 984.05,511.4 984.05,510.7 984.05,510.05 984.05,509.7 984.05,509.4 984.05,509.05 983.95,489.15 982.8,469.7 980.5,450.5 978.1,430.7 974.55,411.2 969.75,392.05z"/>
    </g>
  </g>
  <mask id="circle2">
    <g id="g">
      <g id="shape29">
        <path id="path20" fill="#FFFFFF" fill-opacity="1" d="M969.75,392.05 C968.65,387.7 967.4,383.05 966.1,378.45 963.6,369.7 960.75,360.85 957.65,352.1 951.2,333.85 943.5,316.05 934.5,298.45 930.7,291.05 926.55,283.5 922.2,276.05 901.9,241.55 876.4,208.85 845.85,178.3 773.25,105.7 688.7,61.65 592.2,46.25 575.95,43.65 559.4,41.85 542.15,40.9 532.45,40.35 522.3,40.05 512.05,40.05 502.7,40.05 493.45,40.3 484.15,40.8 365.8,46.9 263.85,92.75 178.3,178.3 Q40.05,316.55 40.05,512.05 C40.05,642.4 86.15,753.7 178.3,845.85 248.7,916.2 330.2,959.7 422.25,976.25 442.7,979.9 463.15,982.25 484.15,983.35 484.3,983.35 484.4,983.35 484.55,983.35 493.05,983.8 501.15,984.05 509.05,984.05 510.25,984.05 511.15,984.05 512.05,984.05 522.35,984.05 532.55,983.75 542.15,983.25 544.65,983.1 546.9,982.95 549.1,982.8 569.3,981.35 589,978.75 607.8,975.1 615.75,973.55 623.6,971.8 631.2,969.95 712,949.65 783.35,908.35 845.85,845.85 894.45,797.25 930.25,743.35 953.2,684.05 971.65,636.4 981.85,585.25 983.75,530.55 983.95,524.5 984.05,518.3 984.05,512.05 984.05,511.4 984.05,510.7 984.05,510.05 984.05,509.7 984.05,509.4 984.05,509.05 983.95,489.15 982.8,469.7 980.5,450.5 978.1,430.7 974.55,411.2 969.75,392.05z"/>
      </g>
    </g>
  </mask>
  <g id="masked" mask="url(#circle2)">
    <g id="Calque.__207">
      <g id="shape4">
        <path id="path2" fill="#E0E0E0" fill-opacity="0.2980392156862745" d="M770,664.95 Q742.35,649.25 709,643.35 C749.65,640.3 781.8,619.25 805.4,580.3 828.15,541.8 839.55,500.9 839.55,457.55 839.55,376.6 817.25,315.6 772.65,274.45 728,234.2 660.85,214.05 571.1,214.05 L183.25,214.05 183.25,1107.4 577.65,1107.4 C673.95,1107.4 745.5,1086.4 792.35,1044.4 815.1,1022.95 832.6,994.7 844.8,959.75 856.2,924.75 861.9,882.75 861.9,833.7 861.9,786.4 847.65,744.6 819.2,708.3 804.8,690.85 788.4,676.4 770,664.95z M593.35,527.85 C584.25,539.65 570.9,545.55 553.3,545.55 L419.45,545.55 419.45,414.25 553.3,414.25 C589.65,414.25 607.85,437.25 607.85,483.2 607.85,501.6 603,516.5 593.35,527.85z M609.8,755.6 C619.85,770.5 624.9,792.6 624.9,821.9 624.9,849.9 620.55,871.1 611.8,885.55 602.6,900 587.05,907.25 565.2,907.25 L419.45,907.25 419.45,733.9 565.2,733.9 C584.9,733.9 599.75,741.15 609.8,755.6z"/>
      </g>
    </g>
    <g id="Calque.__208">
      <g id="shape12">
        <path id="path9" fill="#333333" fill-opacity="1" d="M22.15,372.325 L53.75,340.15 -22,340.15 -86.375,405.675 L-86.35,405.7 C-91.05,410.45 -93.6,416.2 -94.05,422.85 -94.5,429.5 -92.75,435.45 -88.7,440.8 -84.7,446.15 -79.45,449.55 -72.95,451 -66.45,452.45 -60.25,451.6 -54.35,448.45 3.95,418.6 79.2,419.75 171.4,451.8 L171.4,451.775 L68.375,561.225 L68.4,561.25 C63.6,566.35 61.15,572.4 61.05,579.35 60.95,586.3 63.25,592.45 67.9,597.7 72.55,602.95 78.4,605.9 85.35,606.65 246.2,622.9 382.5,683.15 494.15,787.3 499.6,792.35 506.05,794.8 513.5,794.55 520.95,794.3 527.2,791.45 532.3,786 537.4,780.55 539.85,774.1 539.6,766.65 539.35,759.2 536.5,752.95 531.05,747.8 423.3,647.05 294.25,584.4 143.9,559.85 L238.375,459.475 L238.4,459.5 C242.5,455.1 244.9,449.9 245.55,443.95 246.2,438 245.05,432.4 242,427.25 238.95,422.1 234.65,418.35 229.1,416 150.65,383.4 81.65,368.85 22.15,372.35"/>
      </g>
    </g>
    <g id="circle1">
      <g id="shape14">
        <path id="path10" fill="#000000" fill-opacity="0.2" d="M969.75,392.05 C968.65,387.7 967.4,383.05 966.1,378.45 963.6,369.7 960.75,360.85 957.65,352.1 951.2,333.85 943.5,316.05 934.5,298.45 930.7,291.05 926.55,283.5 922.2,276.05 Q891.55,224.05 845.85,178.3 C827.75,160.2 808.95,143.9 789.25,129.3 L789.25,129.275 L537.55,524.1 534.7,722.525 494.3,789.75 664.725,960.175 L664.75,960.2 C731.9,937.6 792.15,899.55 845.85,845.85 894.45,797.25 930.25,743.35 953.2,684.05 971.65,636.4 981.85,585.25 983.75,530.55 983.95,524.5 984.05,518.3 984.05,512.05 984.05,511.4 984.05,510.7 984.05,510.05 984.05,509.7 984.05,509.4 984.05,509.05 983.95,489.15 982.8,469.7 980.5,450.5 978.1,430.7 974.55,411.2 969.75,392.05z"/>
      </g>
    </g>
    <g id="Calque.__209">
      <g id="shape16">
        <path id="path11" fill="#333333" fill-opacity="1" d="M808.05,-114.7 Q793.5,-121.4 786.8,-106.85 L617.7,260.05 C613.25,269.75 615.85,276.85 625.55,281.3 L818.05,370.05 C823.95,372.75 828.9,372.85 832.9,370.35 L724.4,320.3 904.4,-70.3 808.05,-114.7z"/>
        <path id="path12" fill="#000000" fill-opacity="1" d="M1008.4,-4.7 C1012.85,-14.35 1010.25,-21.5 1000.55,-25.95 L904.4,-70.3 724.4,320.3 832.9,370.35 C835.4,368.65 837.55,366 839.3,362.2 L1008.4,-4.7z"/>
      </g>
    </g>
    <g id="Calque.__210">
      <g id="shape20">
        <path id="path13" fill="#333333" fill-opacity="1" d="M901.45,291.75 C905.95,282.1 903.3,275 893.65,270.55 L772.85,214.9 667.4,443.75 775.15,493.4 788.2,499.4 C797.85,503.85 804.95,501.25 809.4,491.6 L901.45,291.75z"/>
        <path id="path14" fill="#555555" fill-opacity="1" d="M772.85,214.9 L652.05,159.2 C642.4,154.75 635.35,157.35 630.85,167 L538.8,366.85 C534.35,376.5 536.95,383.6 546.6,388.05 L559.7,394.1 667.4,443.75 772.85,214.9z"/>
        <path id="path15" fill="#C3C24B" fill-opacity="1" d="M775.15,493.4 L667.4,443.75 625.55,534.6 C640.15,541.3 650.15,552.1 655.7,567.1 661.25,582.2 660.7,596.95 654,611.5 647.25,626.1 636.4,636.15 621.35,641.65 606.3,647.2 591.6,646.65 577,639.95 L504.2,797.95 C514.1,802.5 524.15,802.9 534.4,799.05 544.65,795.35 552,788.5 556.55,778.6 561.1,768.7 561.55,758.65 557.75,748.35 557.2,746.9 556.65,745.55 555.85,744 L724.95,603.55 C726.7,602.15 728.4,600.7 730.05,599.25 743.7,587.3 754.5,572.5 762.65,554.8 Q776.7,524.4 775.15,493.4z"/>
        <path id="path19" fill="#EDE667" fill-opacity="1" d="M508.45,498.2 C508.45,498.4 508.45,498.6 508.5,498.75 508.45,499.35 508.5,499.9 508.5,500.55 L509.55,724.15 C508.75,724.4 507.9,724.65 507,725 496.75,728.8 489.4,735.65 484.85,745.55 480.3,755.45 479.85,765.5 483.65,775.7 487.45,786 494.3,793.35 504.2,797.95 L577,639.95 C562.4,633.2 552.4,622.35 546.8,607.3 541.3,592.3 541.85,577.55 548.6,562.95 555.3,548.4 566.15,538.35 581.15,532.75 596.25,527.25 610.95,527.85 625.55,534.6 L667.4,443.75 559.7,394.1 C543.25,406.75 530.4,423.2 521.05,443.45 512.7,461.6 508.5,479.8 508.45,498.2z"/>
      </g>
    </g>
  </g>
</svg>