<?xml version="1.0" encoding="utf-8"?>
<!-- Generator: flash2svg, http://dissentgraphics.com/tools/flash2svg -->
<svg xmlns:xlink="http://www.w3.org/1999/xlink" id="Apps-Bevy" image-rendering="optimizeSpeed" baseProfile="basic" version="1.1" style="background-color:#ffffff" x="0px" y="0px" width="1024px" height="1024px" viewBox="0 0 1024 1024" enable-background="new 0 0 1024 1024" xmlns="http://www.w3.org/2000/svg">
  <defs transform="matrix(1 0 0 1 0 0) "/>
  <g id="background-circle-shadow">
    <g id="shape">
      <path id="path" fill="#000000" fill-opacity="0.09803921568627451" d="M969.65,351.3 Q961.05,330.45 950.25,310.45 C946.2,302.9 941.9,295.4 937.35,288.05 917.8,256.35 893.95,226.4 865.8,198.25 773.65,106.1 662.35,60 532,60 401.65,60 290.4,106.1 198.25,198.25 106.1,290.4 60,401.65 60,532 60,662.35 106.1,773.65 198.25,865.8 290.4,957.95 401.65,1004 532,1004 662.35,1004 773.65,957.95 865.8,865.8 916.55,815 953.35,758.4 976.15,696.05 994.7,645.2 1004,590.55 1004,532 1004,487.1 998.55,444.45 987.6,404.05 986.35,399.5 985.05,394.95 983.7,390.45 979.6,377.15 974.9,364.1 969.65,351.3z"/>
    </g>
  </g>
  <g id="background-circle">
    <g id="shape2">
      <path id="path1" fill="#666666" fill-opacity="1" d="M966.1,378.45 C965.1,375.05 964.1,371.6 962.95,367.95 961.35,362.8 959.55,357.45 957.65,352.1 951.2,333.85 943.5,316.05 934.5,298.45 930.7,291.05 926.55,283.5 922.2,276.05 901.9,241.55 876.4,208.85 845.85,178.3 773.25,105.7 688.7,61.65 592.2,46.25 575.95,43.65 559.4,41.85 542.15,40.9 532.45,40.35 522.3,40.05 512.05,40.05 502.7,40.05 493.45,40.3 484.15,40.8 365.8,46.9 263.85,92.75 178.3,178.3 Q40.05,316.55 40.05,512.05 C40.05,642.4 86.15,753.7 178.3,845.85 235,902.5 298.85,941.75 369.4,963.4 406.15,974.65 444.2,981.25 484.15,983.35 484.3,983.35 484.4,983.35 484.55,983.35 493.05,983.8 501.15,984.05 509.05,984.05 510.25,984.05 511.15,984.05 512.05,984.05 522.35,984.05 532.55,983.75 542.15,983.25 544.65,983.1 546.9,982.95 549.1,982.8 569.3,981.35 589,978.75 607.8,975.1 615.75,973.55 623.6,971.8 631.2,969.95 712,949.65 783.35,908.35 845.85,845.85 894.45,797.25 930.25,743.35 953.2,684.05 971.65,636.4 981.85,585.25 983.75,530.55 983.95,524.5 984.05,518.3 984.05,512.05 984.05,511.4 984.05,510.7 984.05,510.05 984.05,509.7 984.05,509.4 984.05,509.05 983.85,468.4 979.1,429.55 969.75,392.05 968.65,387.7 967.4,383.05 966.1,378.45z"/>
    </g>
  </g>
  <g id="object-shadow">
    <g id="shape4">
      <path id="path2" fill="#000000" fill-opacity="0.2" d="M984.05,510.05 C984.05,509.7 984.05,509.4 984.05,509.05 983.95,490 982.85,471.35 980.75,452.75 L980.725,452.725 L770.05,242.05 632.05,308.05 572.05,248.05 438.05,320.15 380.05,262.15 228.05,368.05 286.05,426.05 238.05,570.05 288.05,620.05 246.05,772.05 455,981 C464.75,982.05 474.4,982.85 484.15,983.35 484.3,983.35 484.4,983.35 484.55,983.35 493.05,983.8 501.15,984.05 509.05,984.05 Q510.55,984.05 512.05,984.05 C522.35,984.05 532.55,983.75 542.15,983.25 544.65,983.1 546.9,982.95 549.1,982.8 569.3,981.35 589,978.75 607.8,975.1 615.75,973.55 623.6,971.8 631.2,969.95 712,949.65 783.35,908.35 845.85,845.85 894.45,797.25 930.25,743.35 953.2,684.05 971.65,636.4 981.85,585.25 983.75,530.55 983.95,524.5 984.05,518.3 984.05,512.05 984.05,511.4 984.05,510.7 984.05,510.05z"/>
    </g>
  </g>
  <g id="Calque.__201">
    <g id="Symbole.__205_1" overflow="visible">
      <g id="Calque.__203">
        <g id="shape16">
          <path id="path12" fill="#1ABC9C" fill-opacity="1" d="M575.179,255.001 C557.726,237.548 536.666,228.821 512,228.821 487.334,228.821 466.274,237.548 448.821,255.001 431.368,272.454 422.641,293.514 422.641,318.18 422.641,342.846 431.368,363.906 448.821,381.359 466.274,398.812 487.334,407.539 512,407.539 536.666,407.539 557.726,398.812 575.179,381.359 592.632,363.906 601.359,342.846 601.359,318.18 601.359,293.514 592.632,272.454 575.179,255.001z"/>
          <path id="path13" fill="#F7DA64" fill-opacity="1" d="M715.642,228.821 C690.975,228.821 669.916,237.548 652.462,255.001 635.009,272.454 626.283,293.514 626.283,318.18 626.283,342.846 635.009,363.906 652.462,381.359 669.916,398.812 690.975,407.539 715.642,407.539 740.308,407.539 761.368,398.812 778.821,381.359 796.274,363.906 805,342.846 805,318.18 805,293.514 796.274,272.454 778.821,255.001 Q752.641,228.821 715.642,228.821z"/>
          <path id="path14" fill="#999999" fill-opacity="1" d="M575.179,448.821 C557.726,431.368 536.666,422.641 512,422.641 487.334,422.641 466.274,431.368 448.821,448.821 431.368,466.274 422.641,487.334 422.641,512 422.641,536.666 431.368,557.726 448.821,575.179 466.274,592.632 487.334,601.359 512,601.359 536.666,601.359 557.726,592.632 575.179,575.179 592.632,557.726 601.359,536.666 601.359,512 601.359,487.334 592.632,466.274 575.179,448.821z"/>
          <path id="path15" fill="#FAC51C" fill-opacity="1" d="M715.642,422.641 C690.975,422.641 669.916,431.368 652.462,448.821 635.009,466.274 626.283,487.334 626.283,512 626.283,536.666 635.009,557.726 652.462,575.179 669.916,592.632 690.975,601.359 715.642,601.359 740.308,601.359 761.368,592.632 778.821,575.179 796.274,557.726 805,536.666 805,512 805,487.334 796.274,466.274 778.821,448.821 761.368,431.368 740.308,422.641 715.642,422.641z"/>
          <path id="path16" fill="#E14938" fill-opacity="1" d="M805,705.82 C805,681.154 796.274,660.094 778.821,642.641 761.368,625.188 740.308,616.461 715.642,616.461 690.975,616.461 669.916,625.188 652.462,642.641 635.009,660.094 626.283,681.154 626.283,705.82 626.283,730.486 635.009,751.546 652.462,768.999 669.916,786.452 690.975,795.179 715.642,795.179 740.308,795.179 761.368,786.452 778.821,768.999 796.274,751.546 805,730.486 805,705.82z"/>
          <path id="path17" fill="#9365B8" fill-opacity="1" d="M601.359,705.82 C601.359,681.154 592.632,660.094 575.179,642.641 557.726,625.188 536.666,616.461 512,616.461 487.334,616.461 466.274,625.188 448.821,642.641 431.368,660.094 422.641,681.154 422.641,705.82 422.641,730.486 431.368,751.546 448.821,768.999 466.274,786.452 487.334,795.179 512,795.179 536.666,795.179 557.726,786.452 575.179,768.999 592.632,751.546 601.359,730.486 601.359,705.82z"/>
          <path id="path18" fill="#41A85F" fill-opacity="1" d="M371.538,255.001 C354.084,237.548 333.025,228.821 308.358,228.821 283.692,228.821 262.632,237.548 245.179,255.001 227.726,272.454 219,293.514 219,318.18 219,342.846 227.726,363.906 245.179,381.359 262.632,398.812 283.692,407.539 308.358,407.539 333.025,407.539 354.084,398.812 371.538,381.359 388.991,363.906 397.717,342.846 397.717,318.18 397.717,293.514 388.991,272.454 371.538,255.001z"/>
          <path id="path19" fill="#54ACD2" fill-opacity="1" d="M371.538,448.821 C354.084,431.368 333.025,422.641 308.358,422.641 283.692,422.641 262.632,431.368 245.179,448.821 227.726,466.274 219,487.334 219,512 219,536.666 227.726,557.726 245.179,575.179 262.632,592.632 283.692,601.359 308.358,601.359 333.025,601.359 354.084,592.632 371.538,575.179 388.991,557.726 397.717,536.666 397.717,512 397.717,487.334 388.991,466.274 371.538,448.821z"/>
          <path id="path20" fill="#2C82C9" fill-opacity="1" d="M397.717,705.82 C397.717,681.154 388.991,660.094 371.538,642.641 354.084,625.188 333.025,616.461 308.358,616.461 283.692,616.461 262.632,625.188 245.179,642.641 227.726,660.094 219,681.154 219,705.82 219,730.486 227.726,751.546 245.179,768.999 262.632,786.452 283.692,795.179 308.358,795.179 333.025,795.179 354.084,786.452 371.538,768.999 388.991,751.546 397.717,730.486 397.717,705.82z"/>
        </g>
      </g>
    </g>
  </g>
</svg>