
<svg xmlns="http://www.w3.org/2000/svg" version="1.1" xmlns:xlink="http://www.w3.org/1999/xlink" preserveAspectRatio="none" x="0px" y="0px" width="1024px" height="1024px" viewBox="0 0 1024 1024">
<defs>
<g id="Layer4_0_FILL">
<path fill="#000000" fill-opacity="0.09803921568627451" stroke="none" d="
M 969.6 351.25
Q 961 330.4 950.2 310.4 944.1 299.05 937.3 288 907.95 240.45 865.75 198.2 727.5 59.95 531.95 59.95 336.45 59.95 198.2 198.2 59.95 336.45 59.95 531.95 59.95 727.5 198.2 865.75 336.45 1003.95 531.95 1003.95 727.5 1003.95 865.75 865.75 941.9 789.55 976.1 696 1003.95 619.75 1003.95 531.95 1003.95 464.6 987.55 404 985.7 397.15 983.65 390.4 977.5 370.45 969.6 351.25 Z"/>
</g>

<g id="Layer3_0_FILL">
<path fill="#6E2E3F" stroke="none" d="
M 969.7 392
Q 967.95 385.15 966.05 378.4 964.52578125 373.114453125 962.85 367.85 960.3787109375 359.903125 957.6 352.05 947.85 324.5 934.45 298.4 928.65 287.05 922.15 276 891.5 224 845.8 178.25 736.8 69.25 592.15 46.2 567.65 42.3 542.1 40.85 527.2 40 512 40 497.9 40 484.1 40.75 306.55 49.95 178.25 178.25 40 316.5 40 512 40 707.55 178.25 845.8 263.0400390625 930.55703125 369.35 963.35 423.8880859375 980.1630859375 484.1 983.3 484.3 983.3 484.5 983.3 496.65 983.9 509 984 510.5 984 512 984 527.25 984 542.1 983.2 545.6 983 549.05 982.75 579.1 980.6 607.75 975.05 619.55 972.75 631.15 969.9 751.75 939.85 845.8 845.8 918.7 772.85 953.15 684 980.9 612.4 983.7 530.5 984 521.3 984 512 984 511 984 510 984 509.5 984 509 983.65 447.7 969.7 392 Z"/>
</g>

<g id="Layer2_0_FILL">
<path fill="#000000" fill-opacity="0.2" stroke="none" d="
M 983.35 538.9
L 744.1 299.65 289.2 735.35 537.3 983.45
Q 539.6990234375 983.329296875 542.1 983.2 545.6 983 549.05 982.75 579.1 980.6 607.75 975.05 619.55 972.75 631.15 969.9 751.75 939.85 845.8 845.8 918.7 772.85 953.15 684 979.473046875 616.0818359375 983.35 538.9 Z"/>
</g>

<g id="Layer1_0_FILL">
<path fill="#FFFFFF" stroke="none" d="
M 242.05 618.05
Q 242.05 687.5 291.15 736.6 340.25 785.7 409.7 785.7 479.1 785.65 528.2 736.55 577.3 687.45 577.3 618.05 577.3 548.65 528.2 499.55 479.1 450.45 409.65 450.4 340.25 450.4 291.15 499.5 242.05 548.6 242.05 618.05 Z"/>
</g>

<g id="Layer0_0_FILL">
<path fill="#FC6990" stroke="none" d="
M 736.05 291.65
Q 699.6 255.2 648.05 255.2 596.5 255.2 560.05 291.65 551.8 299.9 545.45 308.9 542.8 312.6 540.5 316.4 540.2 317 539.85 317.55 539.5 318.2 539.15 318.85 538.8 319.4 538.5 319.9 536.2 323.7 514.85 394.55 493.45 465.4 427.15 484.25 360.85 503.05 356.5 504.35 352.15 505.6 347.65 508.4 344.8 510.25 341.9 512.3 333.15 518.55 325.15 526.55 288.7 563 288.7 614.55 288.7 666.1 325.15 702.55 361.6 739 413.2 739.05 464.7 739 501.15 702.55 509.15 694.55 515.4 685.8 517.5 682.95 519.35 680.1 522.15 675.6 523.4 671.25 524.65 666.85 543.45 600.55 562.35 534.3 633.2 512.85 704 491.5 707.8 489.2 708.3 488.9 708.85 488.55 709.5 488.2 710.15 487.85 710.75 487.5 711.3 487.2 715.1 484.85 718.85 482.3 727.8 475.9 736.05 467.65 772.5 431.2 772.55 379.7 772.5 328.1 736.05 291.65 Z"/>
</g>
</defs>

<g transform="matrix( 1, 0, 0, 1, 0,0) ">
<use xlink:href="#Layer4_0_FILL"/>
</g>

<g transform="matrix( 1, 0, 0, 1, 0,0) ">
<use xlink:href="#Layer3_0_FILL"/>
</g>

<g transform="matrix( 1, 0, 0, 1, 0,0) ">
<use xlink:href="#Layer2_0_FILL"/>
</g>

<g transform="matrix( 1, 0, 0, 1, 0,0) ">
<use xlink:href="#Layer1_0_FILL"/>
</g>

<g transform="matrix( 1, 0, 0, 1, 0,0) ">
<use xlink:href="#Layer0_0_FILL"/>
</g>
</svg>
