<?xml version="1.0" encoding="utf-8"?>
<!-- Generator: flash2svg, http://dissentgraphics.com/tools/flash2svg -->
<svg xmlns:xlink="http://www.w3.org/1999/xlink" id="Apps-Automator" image-rendering="optimizeSpeed" baseProfile="basic" version="1.1" style="background-color:#ffffff" x="0px" y="0px" width="1024px" height="1024px" viewBox="0 0 1024 1024" enable-background="new 0 0 1024 1024" xmlns="http://www.w3.org/2000/svg">
  <defs transform="matrix(1 0 0 1 0 0) "/>
  <g id="background-circle-shadow">
    <g id="shape">
      <path id="path" fill="#000000" fill-opacity="0.09803921568627451" d="M969.65,351.3 Q961.05,330.45 950.25,310.45 C946.2,302.9 941.9,295.4 937.35,288.05 917.8,256.35 893.95,226.4 865.8,198.25 773.65,106.1 662.35,60 532,60 401.65,60 290.4,106.1 198.25,198.25 106.1,290.4 60,401.65 60,532 60,662.35 106.1,773.65 198.25,865.8 290.4,957.95 401.65,1004 532,1004 662.35,1004 773.65,957.95 865.8,865.8 916.55,815 953.35,758.4 976.15,696.05 994.7,645.2 1004,590.55 1004,532 1004,487.1 998.55,444.45 987.6,404.05 986.35,399.5 985.05,394.95 983.7,390.45 979.6,377.15 974.9,364.1 969.65,351.3z"/>
    </g>
  </g>
  <g id="background-circle">
    <g id="shape2">
      <path id="path1" fill="#3D527E" fill-opacity="1" d="M966.1,378.45 C965.1,375.05 964.1,371.6 962.95,367.95 961.35,362.8 959.55,357.45 957.65,352.1 951.2,333.85 943.5,316.05 934.5,298.45 930.7,291.05 926.55,283.5 922.2,276.05 901.9,241.55 876.4,208.85 845.85,178.3 773.25,105.7 688.7,61.65 592.2,46.25 575.95,43.65 559.4,41.85 542.15,40.9 532.45,40.35 522.3,40.05 512.05,40.05 502.7,40.05 493.45,40.3 484.15,40.8 365.8,46.9 263.85,92.75 178.3,178.3 Q40.05,316.55 40.05,512.05 C40.05,642.4 86.15,753.7 178.3,845.85 235,902.5 298.85,941.75 369.4,963.4 406.15,974.65 444.2,981.25 484.15,983.35 484.3,983.35 484.4,983.35 484.55,983.35 493.05,983.8 501.15,984.05 509.05,984.05 510.25,984.05 511.15,984.05 512.05,984.05 522.35,984.05 532.55,983.75 542.15,983.25 544.65,983.1 546.9,982.95 549.1,982.8 569.3,981.35 589,978.75 607.8,975.1 615.75,973.55 623.6,971.8 631.2,969.95 712,949.65 783.35,908.35 845.85,845.85 894.45,797.25 930.25,743.35 953.2,684.05 971.65,636.4 981.85,585.25 983.75,530.55 983.95,524.5 984.05,518.3 984.05,512.05 984.05,511.4 984.05,510.7 984.05,510.05 984.05,509.7 984.05,509.4 984.05,509.05 983.85,468.4 979.1,429.55 969.75,392.05 968.65,387.7 967.4,383.05 966.1,378.45z"/>
    </g>
  </g>
  <g id="object-shadow">
    <g id="shape4">
      <path id="path2" fill="#000000" fill-opacity="0.2" d="M984.05,510.05 C984.05,509.7 984.05,509.4 984.05,509.05 983.95,491.4 983,474.05 981.2,456.85 L981.175,456.825 L820.05,295.7 202.65,728.05 455.675,981.075 L455.7,981.1 C465.25,982.1 474.65,982.85 484.15,983.35 484.3,983.35 484.4,983.35 484.55,983.35 493.05,983.8 501.15,984.05 509.05,984.05 Q510.55,984.05 512.05,984.05 C522.35,984.05 532.55,983.75 542.15,983.25 544.65,983.1 546.9,982.95 549.1,982.8 569.3,981.35 589,978.75 607.8,975.1 615.75,973.55 623.6,971.8 631.2,969.95 712,949.65 783.35,908.35 845.85,845.85 894.45,797.25 930.25,743.35 953.2,684.05 971.65,636.4 981.85,585.25 983.75,530.55 983.95,524.5 984.05,518.3 984.05,512.05 984.05,511.4 984.05,510.7 984.05,510.05z"/>
    </g>
  </g>
  <g id="Calque.__203">
    <g id="shape6">
      <path id="path3" fill="#CCCCCC" fill-opacity="1" d="M727.55,342.05 Q727.55,296.9 664.4,264.95 C622.35,243.7 571.55,233.05 512.05,233.05 452.55,233.05 401.75,243.7 359.65,264.95 317.6,286.25 296.55,311.95 296.55,342.05 296.55,372.15 317.6,397.85 359.65,419.1 401.75,440.4 452.55,451.05 512.05,451.05 571.55,451.05 622.35,440.4 664.4,419.1 706.5,397.85 727.55,372.15 727.55,342.05z"/>
    </g>
  </g>
  <mask id="background-circle1">
    <g id="g">
      <g id="shape21">
        <path id="path13" fill="#FFFFFF" fill-opacity="1" d="M966.1,378.45 C965.1,375.05 964.1,371.6 962.95,367.95 961.35,362.8 959.55,357.45 957.65,352.1 951.2,333.85 943.5,316.05 934.5,298.45 930.7,291.05 926.55,283.5 922.2,276.05 901.9,241.55 876.4,208.85 845.85,178.3 773.25,105.7 688.7,61.65 592.2,46.25 575.95,43.65 559.4,41.85 542.15,40.9 532.45,40.35 522.3,40.05 512.05,40.05 502.7,40.05 493.45,40.3 484.15,40.8 365.8,46.9 263.85,92.75 178.3,178.3 Q40.05,316.55 40.05,512.05 C40.05,642.4 86.15,753.7 178.3,845.85 235,902.5 298.85,941.75 369.4,963.4 406.15,974.65 444.2,981.25 484.15,983.35 484.3,983.35 484.4,983.35 484.55,983.35 493.05,983.8 501.15,984.05 509.05,984.05 510.25,984.05 511.15,984.05 512.05,984.05 522.35,984.05 532.55,983.75 542.15,983.25 544.65,983.1 546.9,982.95 549.1,982.8 569.3,981.35 589,978.75 607.8,975.1 615.75,973.55 623.6,971.8 631.2,969.95 712,949.65 783.35,908.35 845.85,845.85 894.45,797.25 930.25,743.35 953.2,684.05 971.65,636.4 981.85,585.25 983.75,530.55 983.95,524.5 984.05,518.3 984.05,512.05 984.05,511.4 984.05,510.7 984.05,510.05 984.05,509.7 984.05,509.4 984.05,509.05 983.85,468.4 979.1,429.55 969.75,392.05 968.65,387.7 967.4,383.05 966.1,378.45z"/>
      </g>
    </g>
  </mask>
  <g id="masked" mask="url(#background-circle1)">
    <g id="Calque.__204">
      <g id="shape8">
        <path id="path4" fill="#4F4F4F" fill-opacity="1" d="M471.55,682.05 Q459.15,682.05 450.35,690.85 C444.5,696.7 441.55,703.8 441.55,712.05 L441.55,1030.05 C441.55,1038.3 444.5,1045.4 450.35,1051.25 456.2,1057.1 463.3,1060.05 471.55,1060.05 L552.55,1060.05 C560.8,1060.05 567.9,1057.1 573.75,1051.25 579.6,1045.4 582.55,1038.3 582.55,1030.05 L582.55,712.05 C582.55,703.8 579.6,696.7 573.75,690.85 567.9,685 560.8,682.05 552.55,682.05 L471.55,682.05z"/>
      </g>
    </g>
    <g id="Calque.__205">
      <g id="shape10">
        <path id="path5" fill="#969696" fill-opacity="1" d="M595.65,916.05 C595.65,909.4 592.3,906.05 585.65,906.05 L433.65,906.05 C427,906.05 423.65,909.4 423.65,916.05 L423.65,981.05 C423.65,987.7 427,991.05 433.65,991.05 L585.65,991.05 C592.3,991.05 595.65,987.7 595.65,981.05 L595.65,916.05z M426.05,734.05 L426.05,788.05 C426.05,794.7 429.4,798.05 436.05,798.05 L490.05,798.05 426.05,734.05z M586.05,894.55 C586.2,894.55 586.4,894.55 586.55,894.55 L501.55,809.55 434.05,809.55 C427.4,809.55 424.05,812.9 424.05,819.55 L424.05,884.55 C424.05,891.2 427.4,894.55 434.05,894.55 L586.05,894.55z"/>
        <path id="path6" fill="#6C6C6C" fill-opacity="1" d="M426.05,723.05 L426.05,734.05 490.05,798.05 588.05,798.05 C594.7,798.05 598.05,794.7 598.05,788.05 L598.05,723.05 C598.05,716.4 594.7,713.05 588.05,713.05 L436.05,713.05 C429.4,713.05 426.05,716.4 426.05,723.05z M596.05,819.55 C596.05,812.9 592.7,809.55 586.05,809.55 L501.55,809.55 586.55,894.55 C592.9,894.4 596.05,891.05 596.05,884.55 L596.05,819.55z"/>
      </g>
    </g>
  </g>
  <g id="object">
    <g id="shape23">
      <path id="path14" fill="#CCCCCC" fill-opacity="1" d="M820.05,318.05 C820.05,309.8 817.1,302.7 811.25,296.85 Q802.45,288.05 790.05,288.05 L234.05,288.05 C225.8,288.05 218.7,291 212.85,296.85 207,302.7 204.05,309.8 204.05,318.05 L204.05,707.05 C204.05,715.3 207,722.4 212.85,728.25 218.7,734.1 225.8,737.05 234.05,737.05 L790.05,737.05 C798.3,737.05 805.4,734.1 811.25,728.25 817.1,722.4 820.05,715.3 820.05,707.05 L820.05,318.05z"/>
    </g>
  </g>
  <g id="object1">
    <g id="shape25">
      <path id="path15" fill="#F1F1F1" fill-opacity="1" d="M237.05,288.05 L224.05,288.05 C215.8,288.05 208.7,291 202.85,296.85 197,302.7 194.05,309.8 194.05,318.05 L194.05,707.05 C194.05,715.3 197,722.4 202.85,728.25 208.6,734 215.55,736.95 223.65,737.05 223.8,737.05 223.9,737.05 224.05,737.05 L237.05,737.05 237.05,288.05z M800.05,288.05 L787.05,288.05 787.05,737.05 800.05,737.05 C808.3,737.05 815.4,734.1 821.25,728.25 827.1,722.4 830.05,715.3 830.05,707.05 L830.05,318.05 C830.05,309.8 827.1,302.7 821.25,296.85 815.4,291 808.3,288.05 800.05,288.05z M247.05,288.05 L247.05,737.05 777.05,737.05 777.05,288.05 247.05,288.05z"/>
    </g>
  </g>
  <g id="Calque.__206">
    <g id="shape31">
      <path id="path20" fill="#2F4065" fill-opacity="1" d="M744.65,482.05 L744.65,461.05 C744.65,452.8 741.7,445.7 735.85,439.85 730,434 722.9,431.05 714.65,431.05 L309.45,431.05 C301.2,431.05 294.1,434 288.25,439.85 282.4,445.7 279.45,452.8 279.45,461.05 L279.45,482.05 C279.45,490.3 282.4,497.4 288.25,503.25 294.1,509.1 301.2,512.05 309.45,512.05 L714.65,512.05 C722.9,512.05 730,509.1 735.85,503.25 741.7,497.4 744.65,490.3 744.65,482.05z"/>
    </g>
  </g>
  <mask id="Calque.__208">
    <g id="g1">
      <g id="shape35">
        <path id="path22" fill="#FFFFFF" fill-opacity="1" d="M744.65,482.05 L744.65,461.05 C744.65,452.8 741.7,445.7 735.85,439.85 730,434 722.9,431.05 714.65,431.05 L309.45,431.05 C301.2,431.05 294.1,434 288.25,439.85 282.4,445.7 279.45,452.8 279.45,461.05 L279.45,482.05 C279.45,490.3 282.4,497.4 288.25,503.25 294.1,509.1 301.2,512.05 309.45,512.05 L714.65,512.05 C722.9,512.05 730,509.1 735.85,503.25 741.7,497.4 744.65,490.3 744.65,482.05z"/>
      </g>
    </g>
  </mask>
  <g id="masked1" mask="url(#Calque.__208)">
    <g id="Calque.__207">
      <g id="shape33">
        <path id="path21" fill="#A4B7FF" fill-opacity="1" d="M551,431.15 Q534.85,415 512.05,415 C496.85,415 483.85,420.4 473.1,431.15 462.35,441.9 456.95,454.9 456.95,470.1 456.95,485.3 462.35,498.3 473.1,509.05 483.85,519.8 496.85,525.2 512.05,525.2 527.25,525.2 540.25,519.8 551,509.05 561.75,498.3 567.15,485.3 567.15,470.1 567.15,454.9 561.75,441.9 551,431.15z"/>
      </g>
    </g>
  </g>
  <g id="Calque.__209">
    <g id="shape37">
      <path id="path23" fill="#D7DFFB" fill-opacity="1" d="M509.2,442 Q503.2,436 494.65,436 C488.95,436 484.1,438 480.05,442 476.05,446.05 474.05,450.9 474.05,456.6 474.05,462.3 476.05,467.15 480.05,471.15 484.1,475.2 488.95,477.2 494.65,477.2 500.35,477.2 505.2,475.2 509.2,471.15 513.25,467.15 515.25,462.3 515.25,456.6 515.25,450.9 513.25,446.05 509.2,442z"/>
    </g>
  </g>
</svg>