
<svg xmlns="http://www.w3.org/2000/svg" version="1.1" xmlns:xlink="http://www.w3.org/1999/xlink" preserveAspectRatio="none" x="0px" y="0px" width="1024px" height="1024px" viewBox="0 0 1024 1024">
<defs>
<g id="Layer3_0_FILL">
<path fill="#000000" fill-opacity="0.09803921568627451" stroke="none" d="
M 969.6 351.25
Q 961 330.4 950.2 310.4 944.1 299.05 937.3 288 907.95 240.45 865.75 198.2 727.5 59.95 531.95 59.95 336.45 59.95 198.2 198.2 59.95 336.45 59.95 531.95 59.95 727.5 198.2 865.75 336.45 1003.95 531.95 1003.95 727.5 1003.95 865.75 865.75 941.9 789.55 976.1 696 1003.95 619.75 1003.95 531.95 1003.95 464.6 987.55 404 985.7 397.15 983.65 390.4 977.5 370.45 969.6 351.25 Z"/>
</g>

<g id="Layer2_0_FILL">
<path fill="#34495E" stroke="none" d="
M 969.7 392
Q 967.95 385.15 966.05 378.4 964.52578125 373.114453125 962.85 367.85 960.3787109375 359.903125 957.6 352.05 947.85 324.5 934.45 298.4 928.65 287.05 922.15 276 891.5 224 845.8 178.25 736.8 69.25 592.15 46.2 567.65 42.3 542.1 40.85 527.2 40 512 40 497.9 40 484.1 40.75 306.55 49.95 178.25 178.25 40 316.5 40 512 40 707.55 178.25 845.8 263.0400390625 930.55703125 369.35 963.35 423.8880859375 980.1630859375 484.1 983.3 484.3 983.3 484.5 983.3 496.65 983.9 509 984 510.5 984 512 984 527.25 984 542.1 983.2 545.6 983 549.05 982.75 579.1 980.6 607.75 975.05 619.55 972.75 631.15 969.9 751.75 939.85 845.8 845.8 918.7 772.85 953.15 684 980.9 612.4 983.7 530.5 984 521.3 984 512 984 511 984 510 984 509.5 984 509 983.65 447.7 969.7 392 Z"/>
</g>

<g id="Layer1_0_FILL">
<path fill="#000000" fill-opacity="0.2" stroke="none" d="
M 953.15 684
Q 967.494921875 646.9873046875 975.15 607.2
L 573.5 205.55 248.1 726.05 506 983.95
Q 507.5076171875 983.987890625 509 984 510.5 984 512 984 527.25 984 542.1 983.2 545.6 983 549.05 982.75 579.1 980.6 607.75 975.05 619.55 972.75 631.15 969.9 751.75 939.85 845.8 845.8 918.7 772.85 953.15 684 Z"/>
</g>

<g id="Layer0_0_FILL">
<path fill="#4B77BE" stroke="none" d="
M 566.25 588
Q 512 620.6 457.75 588
L 502.15 824.75
Q 502.85 828.4 505.95 830.55 508.75 832.45 512 832.05 515.25 832.45 518.1 830.55 521.15 828.4 521.85 824.75
L 566.25 588 Z"/>

<path fill="#89C4F4" stroke="none" d="
M 566.25 588
L 566.85 584.85
Q 567.35 582.3 566.35 579.85
L 547.85 533.65
Q 524.25 543.15 500.65 540.3 490.05 539.05 479.5 535.3 477.75 534.7 476 534
L 457.65 579.85
Q 456.65 582.3 457.15 584.85
L 457.75 588
Q 512 620.6 566.25 588 Z"/>

<path fill="#FFFFFF" stroke="none" d="
M 506.95 460.8
Q 504.65 462.35 503.65 464.9
L 476 534
Q 477.75 534.7 479.5 535.3 490.05 539.05 500.65 540.3 524.25 543.15 547.85 533.65
L 520.35 464.9
Q 519.35 462.35 517.05 460.8 514.75 459.25 512 459.25 509.25 459.25 506.95 460.8 Z"/>

<path fill="#FABE58" stroke="none" d="
M 418.15 588
L 475.3 447.8 339.75 447.8 282.65 588 418.15 588
M 741.6 588
L 684.45 447.8 548.95 447.8 606.1 588 741.6 588 Z"/>

<path fill="#FDE3A7" stroke="none" d="
M 232.65 710.6
Q 225.4 728.3 246.75 728.3
L 339.6 728.3
Q 360.95 728.3 368.15 710.6
L 418.15 588 282.65 588 232.65 710.6
M 656.05 710.6
Q 663.25 728.3 684.6 728.3
L 777.4 728.3
Q 798.75 728.3 791.55 710.6
L 741.6 588 606.1 588 656.05 710.6 Z"/>

<path fill="#F03434" stroke="none" d="
M 627.3 307.6
L 396.9 307.6 339.75 447.8 475.3 447.8 512.1 357.5 548.95 447.8 684.45 447.8 627.3 307.6 Z"/>

<path fill="#C0392B" stroke="none" d="
M 437.55 207.85
L 396.9 307.6 627.3 307.6 586.65 207.85
Q 579.45 190.15 558.1 190.15
L 466.1 190.15
Q 444.75 190.15 437.55 207.85 Z"/>
</g>
</defs>

<g transform="matrix( 1, 0, 0, 1, 0,0) ">
<use xlink:href="#Layer3_0_FILL"/>
</g>

<g transform="matrix( 1, 0, 0, 1, 0,0) ">
<use xlink:href="#Layer2_0_FILL"/>
</g>

<g transform="matrix( 1, 0, 0, 1, 0,0) ">
<use xlink:href="#Layer1_0_FILL"/>
</g>

<g transform="matrix( 1, 0, 0, 1, 0,0) ">
<use xlink:href="#Layer0_0_FILL"/>
</g>
</svg>
