<?xml version="1.0" encoding="utf-8"?>
<!-- Generator: flash2svg, http://dissentgraphics.com/tools/flash2svg -->
<svg xmlns:xlink="http://www.w3.org/1999/xlink" id="Apps-Uebersicht" image-rendering="optimizeSpeed" baseProfile="basic" version="1.1" style="background-color:#ffffff" x="0px" y="0px" width="1024px" height="1024px" viewBox="0 0 1024 1024" enable-background="new 0 0 1024 1024" xmlns="http://www.w3.org/2000/svg">
  <defs transform="matrix(1 0 0 1 0 0) "/>
  <g id="background-circle-shadow">
    <g id="shape">
      <path id="path" fill="#000000" fill-opacity="0.09803921568627451" d="M969.65,351.3 Q961.05,330.45 950.25,310.45 C946.2,302.9 941.9,295.4 937.35,288.05 917.8,256.35 893.95,226.4 865.8,198.25 773.65,106.1 662.35,60 532,60 401.65,60 290.4,106.1 198.25,198.25 106.1,290.4 60,401.65 60,532 60,662.35 106.1,773.65 198.25,865.8 290.4,957.95 401.65,1004 532,1004 662.35,1004 773.65,957.95 865.8,865.8 916.55,815 953.35,758.4 976.15,696.05 994.7,645.2 1004,590.55 1004,532 1004,487.1 998.55,444.45 987.6,404.05 986.35,399.5 985.05,394.95 983.7,390.45 979.6,377.15 974.9,364.1 969.65,351.3z"/>
    </g>
  </g>
  <g id="background-circle">
    <g id="shape2">
      <path id="path1" fill="#F9F9F9" fill-opacity="1" d="M969.75,392.05 C968.65,387.7 967.4,383.05 966.1,378.45 965.1,375.05 964.1,371.6 962.95,367.95 961.35,362.8 959.55,357.45 957.65,352.1 951.2,333.85 943.5,316.05 934.5,298.45 930.7,291.05 926.55,283.5 922.2,276.05 901.9,241.55 876.4,208.85 845.85,178.3 773.25,105.7 688.7,61.65 592.2,46.25 575.95,43.65 559.4,41.85 542.15,40.9 532.45,40.35 522.3,40.05 512.05,40.05 502.7,40.05 493.45,40.3 484.15,40.8 365.8,46.9 263.85,92.75 178.3,178.3 Q40.05,316.55 40.05,512.05 C40.05,642.4 86.15,753.7 178.3,845.85 235,902.5 298.85,941.75 369.4,963.4 406.15,974.65 444.2,981.25 484.15,983.35 484.3,983.35 484.4,983.35 484.55,983.35 493.05,983.8 501.15,984.05 509.05,984.05 510.25,984.05 511.15,984.05 512.05,984.05 522.35,984.05 532.55,983.75 542.15,983.25 544.65,983.1 546.9,982.95 549.1,982.8 569.3,981.35 589,978.75 607.8,975.1 615.75,973.55 623.6,971.8 631.2,969.95 712,949.65 783.35,908.35 845.85,845.85 894.45,797.25 930.25,743.35 953.2,684.05 971.65,636.4 981.85,585.25 983.75,530.55 983.95,524.5 984.05,518.3 984.05,512.05 984.05,511.4 984.05,510.7 984.05,510.05 984.05,509.7 984.05,509.4 984.05,509.05 983.85,468.4 979.1,429.55 969.75,392.05z"/>
    </g>
  </g>
  <g id="object-shadow">
    <g id="shape4">
      <path id="path2" fill="#000000" fill-opacity="0.09803921568627451" d="M984.05,510.05 C984.05,509.7 984.05,509.4 984.05,509.05 983.9,476.65 980.85,445.4 974.85,414.75 L974.825,414.725 L755.65,195.55 613.75,361.05 635.975,383.275 598.05,384.5 409.1,195.55 268.45,361.05 288.45,381.05 185.3,414.05 167.05,592.4 292.425,717.775 339.9,792.2 531.425,983.725 Q536.812,983.537 542.15,983.25 C544.65,983.1 546.9,982.95 549.1,982.8 569.3,981.35 589,978.75 607.8,975.1 615.75,973.55 623.6,971.8 631.2,969.95 712,949.65 783.35,908.35 845.85,845.85 894.45,797.25 930.25,743.35 953.2,684.05 971.65,636.4 981.85,585.25 983.75,530.55 983.95,524.5 984.05,518.3 984.05,512.05 984.05,511.4 984.05,510.7 984.05,510.05z"/>
    </g>
  </g>
  <g id="Calque.__201">
    <g id="shape6">
      <path id="path3" fill="#152034" fill-opacity="1" d="M755.65,361.05 L755.65,195.55 613.75,195.55 613.75,361.05 755.65,361.05z M409.1,361.05 L409.1,195.55 268.45,195.55 268.45,361.05 409.1,361.05z M738.05,690.3 C743.2,672.1 747.1,651.8 749.75,629.45 L605.3,629.45 C602,645.7 597.3,658.5 591.25,667.95 577.3,690 551.1,701.1 512.75,701.2 512.6,701.2 512.45,701.2 512.3,701.2 L511.2,701.2 C472.85,701.1 446.65,690 432.7,667.95 426.65,658.5 421.95,645.7 418.65,629.45 L274.2,629.45 C276.85,651.8 280.75,672.1 285.9,690.3 296.2,728.05 311.85,756.55 332.9,775.8 347.7,789.55 360.95,799.95 372.7,806.9 384.45,813.85 399.7,819 418.55,822.35 443.8,826.8 474.7,829 511.2,829.05 511.35,829.05 511.5,829.05 511.65,829.05 L512.75,829.05 C549.25,829 580.15,826.8 605.4,822.35 624.25,819 639.5,813.85 651.25,806.9 663,799.95 676.25,789.55 691.05,775.8 712.1,756.55 727.75,728.05 738.05,690.3z"/>
    </g>
  </g>
  <g id="xSymbole.__2014">
    <g id="shape12">
      <path id="path8" fill="#152034" fill-opacity="1" d="M857.25,392.95 C850.6,386.3 842.55,382.95 833.2,382.95 L191.75,382.95 C182.4,382.95 174.35,386.3 167.7,392.95 161.05,399.6 157.75,407.65 157.75,417 L157.75,569.9 C157.95,578.85 161.25,586.6 167.7,593.05 174.35,599.7 182.4,603.05 191.75,603.05 L434.5,603.05 C443.9,603.05 451.9,599.7 458.55,593.05 464.8,586.8 468.05,579.05 468.25,569.9 L468.25,476 C468.25,467.75 470.7,460.65 476.55,454.8 482.4,448.95 489.5,446 497.75,446 L526.4,446 C534.65,446 541.75,448.95 547.6,454.8 553.45,460.65 556.4,467.75 556.4,476 L556.4,569.9 C556.6,578.85 559.95,586.6 566.4,593.05 573.05,599.7 581.1,603.05 590.45,603.05 L833.2,603.05 C842.55,603.05 850.6,599.7 857.25,593.05 863.7,586.6 867.05,578.85 867.25,569.9 L867.25,417 Q867.25,402.95 857.25,392.95z M818.75,432.95 L818.75,555 C818.75,559 816.75,561 812.75,561 L614.75,561 C610.75,561 608.75,559 608.75,555 L608.75,432.95 C608.75,428.95 610.75,426.95 614.75,426.95 L812.75,426.95 C816.75,426.95 818.75,428.95 818.75,432.95z M213.75,426.95 L411.75,426.95 C415.75,426.95 417.75,428.95 417.75,432.95 L417.75,555 C417.75,559 415.75,561 411.75,561 L213.75,561 C209.75,561 207.75,559 207.75,555 L207.75,432.95 C207.75,428.95 209.75,426.95 213.75,426.95z"/>
    </g>
  </g>
</svg>