<?xml version="1.0" encoding="utf-8"?>
<!-- Generator: flash2svg, http://dissentgraphics.com/tools/flash2svg -->
<svg xmlns:xlink="http://www.w3.org/1999/xlink" id="Adobe-Dreamweaver-app" image-rendering="optimizeSpeed" baseProfile="basic" version="1.1" style="background-color:#ffffff" x="0px" y="0px" width="1024px" height="1024px" viewBox="0 0 1024 1024" enable-background="new 0 0 1024 1024" xmlns="http://www.w3.org/2000/svg">
  <defs transform="matrix(1 0 0 1 0 0) "/>
  <g id="shadow">
    <g id="shape">
      <path id="path" fill="#000000" fill-opacity="0.09803921568627451" d="M965.65,347.3 Q957.05,326.45 946.25,306.45 C942.2,298.9 937.9,291.4 933.35,284.05 913.8,252.35 889.95,222.4 861.8,194.25 769.65,102.1 658.35,56 528,56 397.65,56 286.4,102.1 194.25,194.25 102.1,286.4 56,397.65 56,528 56,658.35 102.1,769.65 194.25,861.8 286.4,953.95 397.65,1000 528,1000 658.35,1000 769.65,953.95 861.8,861.8 912.55,811 949.35,754.4 972.15,692.05 990.7,641.2 1000,586.55 1000,528 1000,483.1 994.55,440.45 983.6,400.05 982.35,395.5 981.05,390.95 979.7,386.45 975.6,373.15 970.9,360.1 965.65,347.3z"/>
    </g>
  </g>
  <g id="BackgroundInner">
    <g id="shape2">
      <path id="path1" fill="#45664D" fill-opacity="1" d="M985.45,512.3 Q985.45,316.5 847,178.05 C754.7,85.75 643.25,39.6 512.7,39.6 382.15,39.6 270.75,85.75 178.45,178.05 86.15,270.35 40,381.75 40,512.3 40,642.85 86.15,754.3 178.45,846.6 260.6,928.8 357.95,974.4 470.4,983.35 484.25,984.5 498.35,985.05 512.7,985.05 643.25,985.05 754.7,938.9 847,846.6 893.9,799.7 928.9,747.85 951.95,691.1 974.3,636.15 985.45,576.55 985.45,512.3z"/>
    </g>
  </g>
  <g id="LogoBg">
    <g id="shape4">
      <path id="path2" fill="#000000" fill-opacity="0.2" d="M788.25,571.05 L738.25,521.05 714.375,526.525 478.05,290.2 198.35,328.725 229.5,565.025 166.6,725 417.9,976.3 C435.2,979.6 452.6,981.95 470.4,983.35 484.25,984.5 498.35,985.05 512.7,985.05 643.25,985.05 754.7,938.9 847,846.6 893.9,799.7 928.9,747.85 951.95,691.1 Q963.466,662.758 971.025,632.775 L858.95,520.7 788.25,571.05z"/>
    </g>
  </g>
  <g id="APP-Alt">
    <g id="shape6">
      <path id="path3" fill="#FFFFFF" fill-opacity="1" d="M724.1,574.15 L738.4,518.55 683.85,518.55 646.6,661.8 605.2,518.55 546.65,518.55 613.05,725.85 675.25,725.85 698.45,650.85 729.8,725.85 790.75,725.85 857.9,518.55 799.35,518.55 758.3,661.8 724.1,574.15z M420.85,717.3 C436.6,712.25 450.8,704.7 463.4,694.55 486.95,675.4 504.65,648.7 516.5,614.35 528.35,580.1 534.35,538.2 534.35,488.85 534.35,328.6 479.3,248.5 369,248.5 L166.6,248.5 166.6,725 369,725 C387.9,725 405.2,722.4 420.85,717.3z M433.85,392.25 C440,416.65 443.1,448.6 443.1,488.2 Q443.1,565.7 422.8,604.85 C409.25,630.75 388.95,643.65 361.75,643.65 L257.85,643.65 257.85,329.25 361.75,329.25 C379.55,329.25 394.15,333.4 405.6,341.75 418.1,351 427.45,367.9 433.85,392.25z"/>
    </g>
  </g>
</svg>