<?xml version="1.0" encoding="utf-8"?>
<!-- Generator: flash2svg, http://dissentgraphics.com/tools/flash2svg -->
<svg id="Apps-Hammerspoon" image-rendering="optimizeSpeed" baseProfile="basic" version="1.1" style="background-color:#FFFFFF" x="0px" y="0px" width="1024px" height="1024px" viewBox="0 0 1024 1024" enable-background="new 0 0 1024 1024" xmlns="http://www.w3.org/2000/svg" xmlns:xlink="http://www.w3.org/1999/xlink">
  <defs transform="matrix(1 0 0 1 0 0) "/>
  <g id="background-circle-shadow">
    <g id="shape">
      <path id="path" fill="#000000" fill-opacity="0.09803921568627451" d="M969.6,351.25 Q961,330.4 950.2,310.4 C946.15,302.85 941.85,295.35 937.3,288 917.75,256.3 893.9,226.35 865.75,198.2 773.6,106.05 662.3,59.95 531.95,59.95 401.6,59.95 290.35,106.05 198.2,198.2 106.05,290.35 59.95,401.6 59.95,531.95 59.95,662.3 106.05,773.6 198.2,865.75 290.35,957.9 401.6,1003.95 531.95,1003.95 662.3,1003.95 773.6,957.9 865.75,865.75 916.5,814.95 953.3,758.35 976.1,696 994.65,645.15 1003.95,590.5 1003.95,531.95 1003.95,487.05 998.5,444.4 987.55,404 986.3,399.45 985,394.9 983.65,390.4 979.55,377.1 974.85,364.05 969.6,351.25z"/>
    </g>
  </g>
  <g id="background-circle">
    <g id="shape2">
      <path id="path1" fill="#E8BA4A" fill-opacity="1" d="M969.7,392 C968.6,387.65 967.35,383 966.05,378.4 965.05,375 964.05,371.55 962.9,367.9 961.3,362.75 959.5,357.4 957.6,352.05 951.15,333.8 943.45,316 934.45,298.4 930.65,291 926.5,283.45 922.15,276 901.85,241.5 876.35,208.8 845.8,178.25 773.2,105.65 688.65,61.6 592.15,46.2 575.9,43.6 559.35,41.8 542.1,40.85 532.4,40.3 522.25,40 512,40 502.65,40 493.4,40.25 484.1,40.75 365.75,46.85 263.8,92.7 178.25,178.25 Q40,316.5 40,512 C40,642.35 86.1,753.65 178.25,845.8 234.95,902.45 298.8,941.7 369.35,963.35 406.1,974.6 444.15,981.2 484.1,983.3 484.25,983.3 484.35,983.3 484.5,983.3 493,983.75 501.1,984 509,984 510.2,984 511.1,984 512,984 522.3,984 532.5,983.7 542.1,983.2 544.6,983.05 546.85,982.9 549.05,982.75 569.25,981.3 588.95,978.7 607.75,975.05 615.7,973.5 623.55,971.75 631.15,969.9 711.95,949.6 783.3,908.3 845.8,845.8 894.4,797.2 930.2,743.3 953.15,684 971.6,636.35 981.8,585.2 983.7,530.5 983.9,524.45 984,518.25 984,512 984,511.35 984,510.65 984,510 984,509.65 984,509.35 984,509 983.8,468.35 979.05,429.5 969.7,392z"/>
    </g>
  </g>
  <g id="object-shadow">
    <g id="shape4">
      <path id="path2" fill="#000000" fill-opacity="0.2" d="M953.15,684 C970.65,638.85 980.7,590.6 983.35,538.9 L744.1,299.65 289.225,735.375 537.3,983.45 Q539.699,983.329 542.1,983.2 C544.6,983.05 546.85,982.9 549.05,982.75 569.25,981.3 588.95,978.7 607.75,975.05 615.7,973.5 623.55,971.75 631.15,969.9 711.95,949.6 783.3,908.3 845.8,845.8 894.4,797.2 930.2,743.3 953.15,684z"/>
    </g>
  </g>
  <g id="object">
    <g id="shape6">
      <path id="path3" fill="#CCCCCC" fill-opacity="1" d="M695.5,284.75 L661.65,250.9 614,298.6 647.85,332.4 477.4,502.85 525.55,550.95 727.9,348.65 679.7,300.55 695.5,284.75z M804.2,394.75 C799.6,390.2 797.3,384.65 797.3,378.05 797.25,372.9 798.7,368.35 801.65,364.4 L730.25,435.8 C734.25,432.85 738.85,431.35 744.1,431.3 750.35,431.35 755.75,433.55 760.25,437.8 L761.1,438.7 C765.35,443.15 767.5,448.55 767.55,454.8 767.5,459.05 766.55,462.85 764.65,466.3 764.5,466.6 764.3,466.9 764.1,467.25 L833.1,398.2 C832.8,398.4 832.5,398.6 832.2,398.75 828.75,400.65 824.95,401.6 820.8,401.6 814.25,401.65 808.75,399.35 804.2,394.75z"/>
      <path id="path6" fill="#FFFFFF" fill-opacity="1" d="M468.4,250.15 C473.15,246.65 478.15,243.8 483.5,241.6 489.25,239.25 495.3,237.6 501.75,236.75 506.8,235.55 512.1,234.85 517.55,234.65 539,233.8 557.05,240.7 571.6,255.25 575,258.65 578,262.25 580.55,266.1 587.4,276.25 591.25,287.75 592.05,300.7 L603.6,289.15 611.7,297.2 653.25,255.6 616.5,218.95 C616.35,218.8 616.2,218.65 616.05,218.5 599.65,203.15 580.55,195.05 558.7,194.1 540.95,193.35 525.35,197.55 511.9,206.65 L468.4,250.15z"/>
    </g>
  </g>
  <g id="Calque.__202">
    <g id="shape11">
      <path id="path7" fill="#FFFFFF" fill-opacity="1" d="M804.95,361.1 L667.3,223.45 589.9,300.9 727.5,438.55 804.95,361.1z M812.15,523.1 L889.55,445.65 837.6,393.75 760.15,471.15 812.15,523.1z"/>
    </g>
  </g>
  <g id="Calque.__203">
    <g id="shape15">
      <path id="path10" fill="#333333" fill-opacity="1" d="M248.45,699.5 L288.65,739.7 524.05,504.35 483.85,464.15 C473.8,454.1 463.8,454.05 453.75,464.1 L248.4,669.4 C238.4,679.45 238.45,689.45 248.45,699.5z"/>
      <path id="path11" fill="#000000" fill-opacity="1" d="M564.3,544.6 L524.05,504.35 288.65,739.7 328.9,779.95 C338.95,790 348.95,790.05 359,780 L564.35,574.65 C574.35,564.65 574.3,554.6 564.3,544.6z"/>
    </g>
  </g>
</svg>