<?xml version="1.0" encoding="utf-8"?>
<!-- Generator: flash2svg, http://dissentgraphics.com/tools/flash2svg -->
<svg id="Firefox" image-rendering="optimizeSpeed" baseProfile="basic" version="1.1" style="background-color:#FFFFFF" x="0px" y="0px" width="1024px" height="1024px" viewBox="0 0 1024 1024" enable-background="new 0 0 1024 1024" xmlns="http://www.w3.org/2000/svg" xmlns:xlink="http://www.w3.org/1999/xlink">
  <defs transform="matrix(1 0 0 1 0 0) "/>
  <g id="shadow">
    <g id="shape">
      <path id="path" fill="#000000" fill-opacity="0.09803921568627451" d="M969.6,351.25 Q961,330.4 950.2,310.4 C946.15,302.85 941.85,295.35 937.3,288 917.75,256.3 893.9,226.35 865.75,198.2 773.6,106.05 662.3,59.95 531.95,59.95 401.6,59.95 290.35,106.05 198.2,198.2 106.05,290.35 59.95,401.6 59.95,531.95 59.95,662.3 106.05,773.6 198.2,865.75 290.35,957.9 401.6,1003.95 531.95,1003.95 662.3,1003.95 773.6,957.9 865.75,865.75 916.5,814.95 953.3,758.35 976.1,696 994.65,645.15 1003.95,590.5 1003.95,531.95 1003.95,487.05 998.5,444.4 987.55,404 986.3,399.45 985,394.9 983.65,390.4 979.55,377.1 974.85,364.05 969.6,351.25z"/>
    </g>
  </g>
  <g id="circle">
    <g id="shape2">
      <path id="path1" fill="#324860" fill-opacity="1" d="M983,511.45 Q983,492.85 981.8,474.85 C973.85,360.25 928.2,261.3 844.9,178 752.85,85.95 641.7,39.9 511.45,39.9 381.2,39.9 270.05,85.95 178,178 85.95,270.05 39.9,381.2 39.9,511.45 39.9,641.7 85.95,752.85 178,844.9 270.05,936.95 381.2,983 511.45,983 524.2,983 536.85,982.55 549.3,981.7 663.35,973.55 761.85,927.95 844.9,844.9 936.95,752.85 983,641.7 983,511.45z"/>
    </g>
  </g>
  <g id="ico-shadow">
    <g id="shape4">
      <path id="path2" fill="#000000" fill-opacity="0.2" d="M983,511.45 Q983,492.85 981.8,474.85 L674.75,167.8 646.1,342.9 548.4,381.55 334.7,167.8 274.2,471.2 449.95,882.35 549.3,981.7 C663.35,973.55 761.85,927.95 844.9,844.9 936.95,752.85 983,641.7 983,511.45z"/>
    </g>
  </g>
  <g id="ico">
    <g id="Symbole.__203_1" overflow="visible">
      <g id="Calque.__202">
        <g id="shape18">
          <path id="path13" fill="#D95400" fill-opacity="1" d="M674.75,167.8 L586.75,353.45 422.75,353.45 334.7,167.8 197.45,568.6 506.1,740.6 812.05,568.6 674.75,167.8z M369.2,572.05 L328.35,536.75 466.25,608.4 C429.3,616.05 401.1,616.05 381.85,608.4 367.2,602.8 362.95,590.7 369.2,572.05z M627.5,608.4 C608.2,616.05 580.05,616.05 543.1,608.4 L681,536.75 640.15,572.05 C646.3,590.7 642.15,602.8 627.5,608.4z"/>
          <path id="path14" fill="#FFFFFF" fill-opacity="1" d="M369.2,572.05 C362.95,590.7 367.2,602.8 381.85,608.4 401.1,616.05 429.3,616.05 466.25,608.4 L328.35,536.75 369.2,572.05z"/>
          <path id="path15" fill="#FFFFFF" fill-opacity="1" d="M627.5,608.4 C642.15,602.8 646.3,590.7 640.15,572.05 L681,536.75 543.1,608.4 C580.05,616.05 608.2,616.05 627.5,608.4z M449.95,882.35 L504.7,827.6 559.5,882.35 812.05,568.6 506.1,740.6 197.45,568.6 449.95,882.35z"/>
          <path id="path16" fill="#DB5400" fill-opacity="1" d="M504.7,827.6 L449.95,882.35 559.5,882.35 504.7,827.6z"/>
        </g>
      </g>
    </g>
  </g>
</svg>