<?xml version="1.0" encoding="utf-8"?>
<!-- Generator: flash2svg, http://dissentgraphics.com/tools/flash2svg -->
<svg id="Apps-Overwatch" image-rendering="optimizeSpeed" baseProfile="basic" version="1.1" style="background-color:#FFFFFF" x="0px" y="0px" width="1024px" height="1024px" viewBox="0 0 1024 1024" enable-background="new 0 0 1024 1024" xmlns="http://www.w3.org/2000/svg" xmlns:xlink="http://www.w3.org/1999/xlink">
  <defs transform="matrix(1 0 0 1 0 0) "/>
  <g id="background-circle-shadow">
    <g id="shape">
      <path id="path" fill="#000000" fill-opacity="0.09803921568627451" d="M969.6,351.25 Q961,330.4 950.2,310.4 C946.15,302.85 941.85,295.35 937.3,288 917.75,256.3 893.9,226.35 865.75,198.2 773.6,106.05 662.3,59.95 531.95,59.95 401.6,59.95 290.35,106.05 198.2,198.2 106.05,290.35 59.95,401.6 59.95,531.95 59.95,662.3 106.05,773.6 198.2,865.75 290.35,957.9 401.6,1003.95 531.95,1003.95 662.3,1003.95 773.6,957.9 865.75,865.75 916.5,814.95 953.3,758.35 976.1,696 994.65,645.15 1003.95,590.5 1003.95,531.95 1003.95,487.05 998.5,444.4 987.55,404 986.3,399.45 985,394.9 983.65,390.4 979.55,377.1 974.85,364.05 969.6,351.25z"/>
    </g>
  </g>
  <g id="background-circle">
    <g id="shape2">
      <path id="path1" fill="#51545A" fill-opacity="1" d="M845.8,178.25 L845.775,178.225 782.75,241.25 C857.5,316 894.9,406.25 894.9,512 894.9,617.75 857.5,708 782.75,782.75 728.2,837.3 665.45,871.95 594.4,886.7 568.05,892.15 540.6,894.9 512,894.9 406.25,894.9 316,857.5 241.25,782.75 L178.225,845.775 178.25,845.8 C234.95,902.45 298.8,941.7 369.35,963.35 406.1,974.6 444.15,981.2 484.1,983.3 484.25,983.3 484.35,983.3 484.5,983.3 493,983.75 501.1,984 509,984 510.2,984 511.1,984 512,984 522.3,984 532.5,983.7 542.1,983.2 544.6,983.05 546.85,982.9 549.05,982.75 569.25,981.3 588.95,978.7 607.75,975.05 615.7,973.5 623.55,971.75 631.15,969.9 711.95,949.6 783.3,908.3 845.8,845.8 853,838.6 859.95,831.25 866.6,823.8 904.75,781.1 933.6,734.5 953.15,684 971.6,636.35 981.8,585.2 983.7,530.5 983.9,524.45 984,518.25 984,512 984,511.35 984,510.65 984,510 984,509.65 984,509.35 984,509 983.8,468.35 979.05,429.5 969.7,392 968.6,387.65 967.35,383 966.05,378.4 965.05,375 964.05,371.55 962.9,367.9 961.3,362.75 959.5,357.4 957.6,352.05 951.15,333.8 943.45,316 934.45,298.4 930.65,291 926.5,283.45 922.15,276 901.85,241.5 876.35,208.8 845.8,178.25z"/>
      <path id="path2" fill="#36373B" fill-opacity="1" d="M782.75,241.25 L845.775,178.225 L845.8,178.25 C800.45,132.9 750.45,98.75 695.9,75.7 663.2,61.9 628.5,52 592.15,46.2 575.9,43.6 559.35,41.8 542.1,40.85 532.4,40.3 522.25,40 512,40 502.65,40 493.4,40.25 484.1,40.75 365.75,46.85 263.8,92.7 178.25,178.25 Q40,316.5 40,512 C40,642.35 86.1,753.65 178.25,845.8 L178.225,845.775 L241.25,782.75 C166.5,708 129.1,617.75 129.1,512 129.1,406.25 166.5,316 241.25,241.25 294.3,188.2 355.1,154 423.7,138.6 451.85,132.25 481.25,129.1 512,129.1 617.75,129.1 708,166.5 782.75,241.25z"/>
      <path id="path3" fill="#45474C" fill-opacity="1" d="M782.75,782.75 C857.5,708 894.9,617.75 894.9,512 894.9,406.25 857.5,316 782.75,241.25 708,166.5 617.75,129.1 512,129.1 481.25,129.1 451.85,132.25 423.7,138.6 355.1,154 294.3,188.2 241.25,241.25 166.5,316 129.1,406.25 129.1,512 129.1,617.75 166.5,708 241.25,782.75 316,857.5 406.25,894.9 512,894.9 540.6,894.9 568.05,892.15 594.4,886.7 665.45,871.95 728.2,837.3 782.75,782.75z"/>
    </g>
  </g>
  <g id="background-circle1">
    <g id="shape7">
      <path id="path4" fill="#45474C" fill-opacity="1" d="M969.7,392 C968.6,387.65 967.35,383 966.05,378.4 965.05,375 964.05,371.55 962.9,367.9 961.3,362.75 959.5,357.4 957.6,352.05 951.15,333.8 943.45,316 934.45,298.4 930.65,291 926.5,283.45 922.15,276 901.85,241.5 876.35,208.8 845.8,178.25 800.55,133 750.65,98.85 695.9,75.7 663.2,61.9 628.5,52 592.15,46.2 575.9,43.6 559.35,41.8 542.1,40.85 532.4,40.3 522.25,40 512,40 502.65,40 493.4,40.25 484.1,40.75 365.75,46.85 263.8,92.7 178.25,178.25 Q40,316.5 40,512 C40,642.35 86.1,753.65 178.25,845.8 234.95,902.45 298.8,941.7 369.35,963.35 406.1,974.6 444.15,981.2 484.1,983.3 484.25,983.3 484.35,983.3 484.5,983.3 493,983.75 501.1,984 509,984 510.2,984 511.1,984 512,984 522.3,984 532.5,983.7 542.1,983.2 544.6,983.05 546.85,982.9 549.05,982.75 569.25,981.3 588.95,978.7 607.75,975.05 615.7,973.5 623.55,971.75 631.15,969.9 711.95,949.6 783.3,908.3 845.8,845.8 853,838.6 859.95,831.25 866.6,823.8 904.75,781.1 933.6,734.5 953.15,684 971.6,636.35 981.8,585.2 983.7,530.5 983.9,524.45 984,518.25 984,512 984,511.35 984,510.65 984,510 984,509.65 984,509.35 984,509 983.8,468.35 979.05,429.5 969.7,392z"/>
    </g>
  </g>
  <g id="object">
    <g id="shape9">
      <path id="path5" fill="#FFFFFF" fill-opacity="1" d="M335.45,695.2 L335.45,737.2 349.45,737.2 349.45,743.9 499.5,593.85 499.5,335 446.55,528.95 280.3,695.2 335.45,695.2z M688.55,737.2 L688.55,695.2 743.7,695.2 577.45,528.95 524.5,335 524.5,593.85 674.55,743.9 674.55,737.2 688.55,737.2z"/>
    </g>
  </g>
  <g id="Calque.__201">
    <g id="shape13">
      <path id="path8" fill="#FFFFFF" fill-opacity="1" d="M738.35,286.7 C738.15,286.5 738,286.35 737.85,286.2 L737.825,286.175 L683.975,340.025 L684,340.05 C684.15,340.2 684.35,340.4 684.5,340.55 732.1,388.15 755.9,445.65 755.95,513 755.9,580.35 732.1,637.85 684.5,685.5 636.85,733.1 579.35,756.9 512,756.95 444.65,756.9 387.15,733.1 339.55,685.5 291.9,637.85 268.1,580.35 268.1,513 268.1,445.65 291.9,388.15 339.55,340.55 339.7,340.4 339.85,340.2 340.05,340.05 L340.025,340.025 L286.175,286.175 L286.2,286.2 C286.05,286.35 285.85,286.5 285.7,286.7 223.15,349.2 191.9,424.65 191.95,513 191.9,601.35 223.15,676.8 285.7,739.35 348.2,801.85 423.65,833.1 512,833.1 600.35,833.1 675.8,801.85 738.35,739.35 L738.325,739.325 Q832.077,645.571 832.075,513 L832.1,513 C832.1,424.65 800.85,349.2 738.35,286.7z"/>
      <path id="path12" fill="#E2A100" fill-opacity="1" d="M683.975,340.025 L737.825,286.175 L737.85,286.2 C675.4,224 600.15,192.9 512,192.95 423.85,192.9 348.6,224 286.2,286.2 L286.175,286.175 L340.025,340.025 L340.05,340.05 C387.55,292.75 444.85,269.1 512,269.1 579.15,269.1 636.45,292.75 684,340.05"/>
    </g>
  </g>
</svg>