
<svg xmlns="http://www.w3.org/2000/svg" version="1.1" xmlns:xlink="http://www.w3.org/1999/xlink" preserveAspectRatio="none" x="0px" y="0px" width="1024px" height="1024px" viewBox="0 0 1024 1024">
<defs>
<g id="Layer5_0_FILL">
<path fill="#000000" fill-opacity="0.09803921568627451" stroke="none" d="
M 969.6 351.25
Q 961 330.4 950.2 310.4 944.1 299.05 937.3 288 907.95 240.45 865.75 198.2 727.5 59.95 531.95 59.95 336.45 59.95 198.2 198.2 59.95 336.45 59.95 531.95 59.95 727.5 198.2 865.75 336.45 1003.95 531.95 1003.95 727.5 1003.95 865.75 865.75 941.9 789.55 976.1 696 1003.95 619.75 1003.95 531.95 1003.95 464.6 987.55 404 985.7 397.15 983.65 390.4 977.5 370.45 969.6 351.25 Z"/>
</g>

<g id="Layer4_0_FILL">
<path fill="#29B6F6" stroke="none" d="
M 969.7 392
Q 967.95 385.15 966.05 378.4 964.52578125 373.114453125 962.85 367.85 960.3787109375 359.903125 957.6 352.05 947.85 324.5 934.45 298.4 928.65 287.05 922.15 276 891.5 224 845.8 178.25 736.8 69.25 592.15 46.2 567.65 42.3 542.1 40.85 527.2 40 512 40 497.9 40 484.1 40.75 306.55 49.95 178.25 178.25 40 316.5 40 512 40 707.55 178.25 845.8 263.0400390625 930.55703125 369.35 963.35 423.8880859375 980.1630859375 484.1 983.3 484.3 983.3 484.5 983.3 496.65 983.9 509 984 510.5 984 512 984 527.25 984 542.1 983.2 545.6 983 549.05 982.75 579.1 980.6 607.75 975.05 619.55 972.75 631.15 969.9 751.75 939.85 845.8 845.8 918.7 772.85 953.15 684 980.9 612.4 983.7 530.5 984 521.3 984 512 984 511 984 510 984 509.5 984 509 983.65 447.7 969.7 392 Z"/>
</g>

<g id="Layer3_0_FILL">
<path fill="#000000" fill-opacity="0.2" stroke="none" d="
M 973.55 615.15
Q 975.5640625 605.75234375 977.15 596.15
L 636 255 657.45 560.05 608 674 388 695 655.95 962.95
Q 761.534375 930.065625 845.8 845.8 918.7 772.85 953.15 684 966.05703125 650.6974609375 973.55 615.15 Z"/>
</g>

<g id="Layer0_0_FILL">
<path fill="#42807F" stroke="none" d="
M 496.25 646.9
L 489.65 646.9
Q 491.3 646.95 492.95 646.95 494.6 646.95 496.25 646.9
M 581.8 558.1
Q 581.8 554.75 581.6 551.55
L 581.65 563.95
Q 581.8 561.1 581.8 558.1
M 581.8 375.85
Q 581.8 374.15 581.75 372.5 581.7 371.45 581.6 370.4
L 581.6 381.35
Q 581.8 378.65 581.8 375.85 Z"/>

<path fill="#1C7EAB" stroke="none" d="
M 650.3 295.8
Q 649.95 295.1 649.55 294.35 644.05 284.25 635.25 275.4 626.55 266.7 616.4 261.15 615.6 260.8 614.95 260.45 598.65 252.05 578.8 252.05 545.75 252.05 522.45 275.4 516.55 281.25 512.2 287.8 508.95 292.45 506.6 297.5
L 323.15 616.2
Q 328.95 619.35 335.05 621.95 365.75 635.25 401.95 635.25 471.6 635.25 520.85 586 570.1 536.75 570.1 467.1 570.1 437 560.9 410.7
L 658.35 410.7 658.35 338.95 658.35 324.85
Q 657.15 309.15 650.3 295.8
M 611.35 324.55
Q 617.8 324.55 622.4 329.1 627.05 333.75 627.05 340.2 627.05 346.7 622.4 351.3 617.8 355.9 611.35 355.9 604.85 355.9 600.2 351.3 595.65 346.7 595.65 340.2 595.65 333.75 600.2 329.1 604.85 324.55 611.35 324.55
M 581.75 372.5
Q 581.8 374.15 581.8 375.85 581.8 378.65 581.6 381.35
L 581.6 370.4
Q 581.7 371.45 581.75 372.5 Z"/>

<path fill="#FFFFFF" stroke="none" d="
M 622.4 329.1
Q 617.8 324.55 611.35 324.55 604.85 324.55 600.2 329.1 595.65 333.75 595.65 340.2 595.65 346.7 600.2 351.3 604.85 355.9 611.35 355.9 617.8 355.9 622.4 351.3 627.05 346.7 627.05 340.2 627.05 333.75 622.4 329.1 Z"/>
</g>

<path id="Layer1_0_1_STROKES" stroke="#FFFF00" stroke-width="30" stroke-linejoin="round" stroke-linecap="round" fill="none" d="
M 709.3 373.6
L 658.35 373.6"/>

<path id="Layer0_0_1_STROKES" stroke="#333333" stroke-width="30" stroke-linejoin="round" stroke-linecap="round" fill="none" d="
M 323.15 616.2
L 506.6 297.5
Q 508.95 292.45 512.2 287.8 516.55 281.25 522.45 275.4 545.75 252.05 578.8 252.05 598.65 252.05 614.95 260.45 615.6 260.8 616.4 261.15 626.55 266.7 635.25 275.4 644.05 284.25 649.55 294.35 649.95 295.1 650.3 295.8 657.15 309.15 658.35 324.85 658.65 328.35 658.65 331.85 658.65 335.45 658.35 338.95
L 658.35 410.7 658.35 558.05
Q 658.65 562.2 658.65 566.45 658.65 570.35 658.45 574 655.95 616.5 625.15 647.4 593.35 679.15 549.1 680.8 548.75 680.8 548.45 680.8 546.35 680.85 544.25 680.85 542.1 680.85 540.05 680.8
L 468.2 680.8 550.35 762.95
M 658.35 324.85
L 658.35 338.95
M 658.35 558.05
L 658.45 574
M 323.15 616.2
L 228.85 780
M 468.2 680.8
L 396.95 680.8 479.05 762.95
M 548.45 680.8
L 540.05 680.8"/>
</defs>

<g transform="matrix( 1, 0, 0, 1, 0,0) ">
<use xlink:href="#Layer5_0_FILL"/>
</g>

<g transform="matrix( 1, 0, 0, 1, 0,0) ">
<use xlink:href="#Layer4_0_FILL"/>
</g>

<g transform="matrix( 1, 0, 0, 1, 0,0) ">
<use xlink:href="#Layer3_0_FILL"/>
</g>

<g transform="matrix( 1, 0, 0, 1, 0,0) ">
<use xlink:href="#Layer1_0_1_STROKES"/>
</g>

<g transform="matrix( 1, 0, 0, 1, 0,0) ">
<use xlink:href="#Layer0_0_FILL"/>

<use xlink:href="#Layer0_0_1_STROKES"/>
</g>
</svg>
