<?xml version="1.0" encoding="utf-8"?>
<!-- Generator: flash2svg, http://dissentgraphics.com/tools/flash2svg -->
<svg xmlns:xlink="http://www.w3.org/1999/xlink" id="Apps-GuildWars" image-rendering="optimizeSpeed" baseProfile="basic" version="1.1" style="background-color:#ffffff" x="0px" y="0px" width="1024px" height="1024px" viewBox="0 0 1024 1024" enable-background="new 0 0 1024 1024" xmlns="http://www.w3.org/2000/svg">
  <defs transform="matrix(1 0 0 1 0 0) "/>
  <g id="shadow">
    <g id="shape">
      <path id="path" fill="#000000" fill-opacity="0.09803921568627451" d="M969.65,351.3 Q961.05,330.45 950.25,310.45 C946.2,302.9 941.9,295.4 937.35,288.05 917.8,256.35 893.95,226.4 865.8,198.25 773.65,106.1 662.35,60 532,60 401.65,60 290.4,106.1 198.25,198.25 106.1,290.4 60,401.65 60,532 60,662.35 106.1,773.65 198.25,865.8 290.4,957.95 401.65,1004 532,1004 662.35,1004 773.65,957.95 865.8,865.8 916.55,815 953.35,758.4 976.15,696.05 994.7,645.2 1004,590.55 1004,532 1004,487.1 998.55,444.45 987.6,404.05 986.35,399.5 985.05,394.95 983.7,390.45 979.6,377.15 974.9,364.1 969.65,351.3z"/>
    </g>
  </g>
  <g id="LogoBg">
    <g id="shape2">
      <path id="path1" fill="#CCCCCC" fill-opacity="1" d="M929.85,289.65 C927.5,285.3 924.9,280.65 922.2,276.05 901.9,241.55 876.4,208.85 845.85,178.3 773.25,105.7 688.7,61.65 592.2,46.25 575.95,43.65 559.4,41.85 542.15,40.9 532.45,40.35 522.3,40.05 512.05,40.05 502.7,40.05 493.45,40.3 484.15,40.8 365.8,46.9 263.85,92.75 178.3,178.3 157.8,198.8 139.55,220.25 123.6,242.7 108.25,264.25 95.05,286.7 84,309.9 66.35,346.8 54,385.9 47.1,426.7 43.75,446.1 41.65,465.6 40.7,485.5 L40.7,485.475 Q40.05,498.633 40.05,512.05 C40.05,517.2 40.15,522.3 40.25,527.25 40.55,537.15 41.1,546.9 41.85,556.15 42.85,567.65 44.15,578.6 45.8,589.35 51.9,628.8 62.7,666.25 78.05,701.35 79.4,704.45 80.8,707.5 82,710.15 105.2,759.7 137.15,804.7 178.3,845.85 235,902.5 298.85,941.75 369.4,963.4 406.15,974.65 444.2,981.25 484.15,983.35 484.3,983.35 484.4,983.35 484.55,983.35 493.05,983.8 501.15,984.05 509.05,984.05 510.25,984.05 511.15,984.05 512.05,984.05 522.35,984.05 532.55,983.75 542.15,983.25 544.65,983.1 546.9,982.95 549.1,982.8 569.3,981.35 589,978.75 607.8,975.1 615.75,973.55 623.6,971.8 631.2,969.95 712,949.65 783.35,908.35 845.85,845.85 883.85,807.85 914.05,766.6 936.35,722.05 942.6,709.7 948.2,697 953.2,684.05 957.45,673.1 961.25,661.95 964.7,650.45 970.8,629.75 975.55,608.3 978.8,586.15 979.65,580.45 980.4,574.7 981.05,568.8 981.3,566.4 981.55,564 981.8,561.5 982.7,551.45 983.4,541.05 983.75,530.55 983.95,524.5 984.05,518.3 984.05,512.05 984.05,511.4 984.05,510.7 984.05,510.05 984.05,509.7 984.05,509.4 984.05,509.05 983.95,485.3 982.3,462.15 979,439.35 978.25,433.9 977.35,428.45 976.35,422.85 974.55,412.65 972.3,402.3 969.75,392.05 968.65,387.7 967.4,383.05 966.1,378.45 965.1,375.05 964.1,371.6 962.95,367.95 961.35,362.8 959.55,357.45 957.65,352.1 952.6,337.85 946.8,323.85 940.2,309.95 938.35,306.15 936.45,302.3 934.5,298.45 933.05,295.6 931.55,292.75 929.85,289.65z"/>
    </g>
  </g>
  <g id="LogoBg1">
    <g id="shape4">
      <path id="path2" fill="#000000" fill-opacity="0.2" d="M953.2,684.05 C957.45,673.1 961.25,661.95 964.7,650.45 970.8,629.75 975.55,608.3 978.8,586.15 979.65,580.45 980.4,574.7 981.05,568.8 981.3,566.4 981.55,564 981.8,561.5 982.7,551.45 983.4,541.05 983.75,530.55 983.95,524.5 984.05,518.3 984.05,512.05 984.05,511.4 984.05,510.7 984.05,510.05 984.05,509.7 984.05,509.4 984.05,509.05 983.95,485.3 982.3,462.15 979,439.35 978.85,438.35 978.7,437.35 978.55,436.2 L978.55,436.175 L666.475,124.1 570.425,295.475 378.1,103.15 391.05,208.05 305.1,190.05 407.025,291.975 445.2,563.05 340.9,819.05 505.875,984.025 L505.9,984.05 C507.05,984.05 508.05,984.05 509.05,984.05 Q510.55,984.05 512.05,984.05 C522.35,984.05 532.55,983.75 542.15,983.25 544.65,983.1 546.9,982.95 549.1,982.8 569.3,981.35 589,978.75 607.8,975.1 615.75,973.55 623.6,971.8 631.2,969.95 712,949.65 783.35,908.35 845.85,845.85 883.85,807.85 914.05,766.6 936.35,722.05 942.6,709.7 948.2,697 953.2,684.05z"/>
    </g>
  </g>
  <g id="Calque.__208">
    <g id="shape6">
      <path id="path3" fill="#773825" fill-opacity="1" d="M591.85,889.4 Q623.05,869.8 623.05,842.05 C623.05,823.55 612.65,807.75 591.85,794.65 571.05,781.6 545.95,775.05 516.55,775.05 487.15,775.05 462.05,781.6 441.25,794.65 420.45,807.75 410.05,823.55 410.05,842.05 410.05,859.9 419.7,875.2 439.05,888 439.35,888.2 439.65,888.4 439.95,888.6 L419.4,907.45 C417.75,908.9 416.9,910.75 416.85,912.95 416.75,915.1 417.45,917 418.95,918.6 420.4,920.25 422.25,921.1 424.45,921.2 426.6,921.25 428.5,920.55 430.15,919.1 L454.6,896.65 C460.25,899.25 466.2,901.45 472.4,903.25 472.35,903.35 472.35,903.45 472.3,903.6 L464.3,942.45 C463.85,944.6 464.25,946.55 465.45,948.4 466.65,950.25 468.3,951.35 470.45,951.8 472.6,952.25 474.55,951.85 476.4,950.65 478.25,949.45 479.4,947.8 479.85,945.65 L487.85,906.8 487.85,906.75 C496.9,908.3 506.5,909.05 516.55,909.05 523,909.05 529.3,908.75 535.35,908.1 L543.3,946.65 C543.75,948.8 544.85,950.45 546.7,951.65 548.55,952.85 550.5,953.25 552.65,952.8 554.8,952.35 556.45,951.25 557.65,949.4 558.85,947.55 559.25,945.6 558.85,943.45 L551.05,905.65 C558.65,904.05 565.9,901.9 572.75,899.15 L595.35,919.85 C597,921.3 598.9,922 601.05,921.9 603.2,921.8 605.05,920.95 606.55,919.35 608,917.7 608.7,915.8 608.6,913.65 608.5,911.5 607.65,909.65 606.05,908.15 L588.1,891.7 C589.35,890.95 590.6,890.2 591.85,889.4z"/>
    </g>
  </g>
  <g id="Calque.__209">
    <g id="shape8">
      <path id="path4" fill="#773825" fill-opacity="1" d="M664.45,98.05 C661.15,96.7 657.85,96.7 654.55,98.1 651.2,99.5 648.85,101.85 647.5,105.15 L602.2,216.75 C602.15,216.9 602.05,217 602,217.15 601.95,217.25 601.95,217.35 601.9,217.45 L569.5,297.15 C568.15,300.45 568.15,303.75 569.6,307.1 571,310.4 573.35,312.75 576.65,314.1 579.95,315.45 583.25,315.4 586.6,314.05 589.9,312.6 592.25,310.25 593.6,306.95 L624.05,232 720.55,192.05 C723.8,190.7 726.15,188.35 727.55,185.05 728.9,181.7 728.9,178.4 727.55,175.1 726.2,171.8 723.85,169.45 720.55,168.05 717.2,166.7 713.9,166.7 710.6,168.05 L637.8,198.2 671.6,114.95 Q673.65,110 671.55,105.05 C670.1,101.7 667.75,99.4 664.45,98.05z M371.1,96.1 C367.75,94.7 364.45,94.7 361.15,96.05 357.85,97.4 355.5,99.7 354.1,103.05 352.65,106.35 352.65,109.65 354,112.95 L387.8,196.2 315.05,166.05 C311.7,164.7 308.4,164.7 305.1,166.05 301.75,167.45 299.4,169.8 298.05,173.1 296.7,176.4 296.7,179.7 298.05,183.05 299.45,186.35 301.8,188.7 305.1,190.05 L401.55,230 432,304.95 C433.35,308.25 435.7,310.6 439.05,312.05 442.35,313.4 445.65,313.45 448.95,312.1 452.25,310.75 454.6,308.4 456.05,305.1 457.45,301.75 457.45,298.45 456.1,295.15 L423.75,215.45 C423.7,215.35 423.65,215.25 423.6,215.15 423.55,215.05 423.55,214.95 423.5,214.85 L378.1,103.15 C376.75,99.85 374.4,97.5 371.1,96.1z"/>
    </g>
  </g>
  <g id="Calque.__210">
    <g id="shape12">
      <path id="path7" fill="#A95139" fill-opacity="1" d="M657.2,453.5 Q666.1,428.9 666.1,400.7 C666.1,376 661,353.4 650.7,332.95 643.45,318.55 633.75,305.25 621.45,293 591.7,263.2 555.8,248.35 513.75,248.35 471.65,248.35 435.75,263.2 406,293 393.75,305.2 384.05,318.5 376.85,332.75 366.5,353.25 361.35,375.9 361.35,400.7 361.35,421.8 365.05,441.35 372.55,459.35 375.25,464.5 377.75,469.65 380.05,474.7 390.25,497.25 396.7,519.55 399.5,541.5 398.05,615.5 377.45,701 337.7,798.1 329.9,836.9 388.35,856.9 513.15,858.2 638.15,856.9 696.7,836.9 688.9,798.1 649.15,701 628.55,615.5 627.1,541.5 629.65,521.35 635.3,500.95 644.1,480.25 647.85,471.35 652.25,462.45 657.2,453.5z"/>
    </g>
  </g>
  <g id="Calque.__211">
    <g id="shape14">
      <path id="path8" fill="#783822" fill-opacity="1" d="M598.35,424.05 C594.65,425.05 590.85,426.1 587,427.3 574.85,431.1 564.35,435.1 555.6,439.45 543.4,445.5 535.6,451.65 532.15,457.9 528.55,464.55 529.95,471.15 536.05,477.5 L598.35,424.05z M489.35,478.7 C496.55,471.8 498.25,464.85 494.45,457.9 491.05,451.65 483.2,445.5 471.05,439.45 462.25,435.1 451.8,431.1 439.6,427.3 435.75,426.1 432,425.05 428.25,424.05 L423.85,422.9 489.35,478.7z"/>
      <path id="path9" fill="#FFFFFF" fill-opacity="1" d="M602.75,422.9 L598.35,424.05 536.05,477.5 C537.45,478.95 538.8,480.15 540.3,481.35 540.4,481.35 540.45,481.35 540.5,481.4 553.25,486.2 564.35,486.1 573.75,481.15 581.2,477.15 587.5,470.15 592.55,460.05 596.15,452.9 598.95,444.55 600.9,435 601.85,430.35 602.45,426.3 602.75,423.05 602.8,423 602.8,422.95 602.75,422.9z M486.3,481.35 C487.45,480.45 488.5,479.55 489.35,478.7 L423.85,422.9 Q423.85,423 423.85,423.05 C424.15,426.3 424.8,430.35 425.75,435 427.7,444.55 430.5,452.9 434.1,460.05 439.15,470.15 445.4,477.15 452.9,481.15 462.3,486.1 473.4,486.2 486.15,481.4 486.2,481.35 486.25,481.35 486.3,481.35z"/>
      <path id="path14" fill="#000000" fill-opacity="0.2980392156862745" d="M431.55,768.45 C426,774.05 423.2,780.75 423.2,788.7 423.2,796.6 426,803.3 431.55,808.9 437.15,814.5 443.85,817.25 451.8,817.25 459.7,817.25 466.4,814.5 472,808.9 477.6,803.3 480.35,796.6 480.35,788.7 480.35,780.75 477.6,774.05 472,768.45 466.4,762.9 459.7,760.1 451.8,760.1 443.85,760.1 437.15,762.9 431.55,768.45z M554.55,768.45 C548.95,774.05 546.2,780.75 546.2,788.7 546.2,796.6 548.95,803.3 554.55,808.9 560.15,814.5 566.85,817.25 574.75,817.25 582.65,817.25 589.4,814.5 594.95,808.9 600.55,803.3 603.35,796.6 603.35,788.7 603.35,780.75 600.55,774.05 594.95,768.45 589.4,762.9 582.65,760.1 574.75,760.1 566.85,760.1 560.15,762.9 554.55,768.45z"/>
    </g>
  </g>
  <g id="Calque.__212">
    <g id="shape26">
      <path id="path17" fill="#FFFFFF" fill-opacity="1" d="M767,393.85 Q764.05,392.4 760.95,393.5 C758.9,394.2 757.4,395.55 756.45,397.5 755.5,399.45 755.35,401.5 756.1,403.55 761.1,418.55 759.8,436.1 752.15,456.15 L752.1,456.25 C743.65,479.4 728.9,496.25 707.8,506.9 L707.7,506.95 C659.35,532.1 618.6,565.1 585.4,605.95 584.05,607.65 583.45,609.6 583.7,611.8 583.9,613.95 584.85,615.75 586.55,617.1 588.25,618.45 590.2,619.05 592.4,618.85 594.55,618.6 596.3,617.65 597.7,615.95 629.55,576.8 668.6,545.15 714.9,521.05 714.95,521 714.95,521 715,521 739.75,508.55 757.1,488.8 767,461.65 L766.95,461.75 C776.15,437.55 777.5,416.4 771.05,398.35 770.3,396.3 768.95,394.8 767,393.85z M848.65,452.25 C847.4,454.05 846.95,456.05 847.4,458.2 850.85,477.55 846.05,498.85 833,522.1 L832.95,522.2 C818.35,549.05 797.15,567.05 769.35,576.2 L769.25,576.2 C706.6,597.75 651.65,630.15 604.35,673.3 602.75,674.75 601.9,676.6 601.8,678.8 601.7,680.95 602.4,682.85 603.85,684.5 605.3,686.1 607.15,686.95 609.35,687.05 611.5,687.15 613.4,686.45 615.05,685 660.7,643.35 713.8,612.1 774.25,591.25 774.3,591.25 774.35,591.25 774.4,591.2 806.15,580.85 830.3,560.35 846.9,529.75 L846.8,529.85 C862,502.75 867.4,477.9 862.95,455.25 862.5,453.1 861.4,451.45 859.6,450.2 857.8,448.95 855.85,448.5 853.7,448.95 851.55,449.35 849.85,450.45 848.65,452.25z M263.15,393.5 C261.1,392.75 259.05,392.9 257.1,393.85 255.15,394.8 253.8,396.3 253.1,398.35 246.65,416.4 248,437.55 257.15,461.75 L257.1,461.65 C267,488.8 284.35,508.55 309.1,521 309.15,521 309.15,521 309.2,521.05 355.5,545.15 394.55,576.8 426.4,615.95 427.8,617.65 429.6,618.6 431.75,618.85 433.9,619.05 435.85,618.45 437.55,617.1 439.25,615.75 440.2,613.95 440.45,611.8 440.65,609.6 440.05,607.65 438.7,605.95 405.5,565.1 364.75,532.1 316.4,506.95 L316.3,506.9 C295.2,496.25 280.45,479.4 272,456.25 L271.95,456.15 C264.35,436.1 263.05,418.55 268.05,403.55 268.75,401.5 268.65,399.45 267.7,397.5 266.75,395.55 265.2,394.2 263.15,393.5z M170.45,448.95 C168.3,448.5 166.3,448.95 164.5,450.2 162.7,451.45 161.6,453.1 161.2,455.25 156.75,477.85 162.1,502.7 177.25,529.75 177.3,529.8 177.3,529.8 177.3,529.85 193.9,560.4 218.1,580.9 249.85,591.25 L249.75,591.2 C310.25,612.05 363.35,643.3 409.05,685 410.7,686.45 412.6,687.15 414.8,687.05 416.95,686.95 418.8,686.1 420.25,684.5 421.7,682.85 422.4,680.95 422.3,678.8 422.2,676.6 421.35,674.75 419.75,673.3 372.45,630.15 317.5,597.75 254.9,576.2 L254.75,576.2 C226.95,567.05 205.75,549.05 191.2,522.2 L191.1,522.1 C178.05,498.85 173.25,477.55 176.75,458.2 177.15,456.05 176.75,454.05 175.5,452.25 174.25,450.45 172.6,449.35 170.45,448.95z"/>
    </g>
  </g>
  <g id="Calque.__213">
    <g id="shape34" transform="matrix(1 0 0 1 475.5 567.2)"/>
  </g>
  <g id="Calque.__214">
    <g id="shape35">
      <path id="path24" fill="#FFD31D" fill-opacity="1" d="M715.3,350.15 L715.25,350.1 C715.05,349.75 714.75,349.55 714.4,349.4 L714.35,349.4 C714,349.3 713.7,349.35 713.35,349.5 L713.3,349.5 C712.9,349.65 712.6,349.95 712.45,350.3 L712.4,350.3 C675.25,425.55 677.35,509.35 718.7,601.6 719.25,602.85 719.45,604.1 719.4,605.45 719.35,606.75 718.95,608 718.3,609.15 691.1,656.15 654.5,703.2 608.55,750.25 608.5,750.3 608.45,750.3 608.45,750.35 608.3,750.45 608.25,750.55 608.2,750.7 608.2,750.75 608.2,750.85 608.15,751 608.05,751.25 608.05,751.5 608.15,751.75 608.15,751.85 608.15,751.9 608.2,751.95 612.2,770.3 626.8,778.7 652.05,777.05 652.55,777 652.95,776.85 653.3,776.5 686.85,737.5 714.8,699.75 737.15,663.2 L769.25,607.6 C756.1,584.6 745.25,561.6 736.6,538.6 713.15,476.15 706.1,413.7 715.45,351.25 715.45,351.2 715.45,351.15 715.45,351.05 715.5,350.7 715.45,350.4 715.3,350.15z M312.2,349.4 C311.85,349.55 311.55,349.75 311.3,350.1 L311.3,350.15 C311.15,350.4 311.05,350.7 311.1,351.05 311.1,351.15 311.1,351.2 311.15,351.25 320.5,413.7 313.45,476.15 290,538.6 281.35,561.6 270.5,584.6 257.35,607.6 L289.5,663.2 C311.85,699.75 339.8,737.5 373.35,776.5 373.65,776.85 374.05,777 374.55,777.05 399.8,778.7 414.4,770.3 418.45,751.95 418.45,751.9 418.45,751.85 418.5,751.75 418.55,751.5 418.5,751.25 418.45,751 418.4,750.85 418.4,750.75 418.4,750.7 418.35,750.55 418.25,750.45 418.15,750.35 418.1,750.3 418.1,750.3 418.05,750.25 372.1,703.2 335.5,656.15 308.3,609.15 307.65,608 307.25,606.75 307.2,605.45 307.15,604.1 307.4,602.85 307.95,601.6 349.3,509.35 351.35,425.55 314.2,350.3 314,349.95 313.7,349.65 313.35,349.5 L313.25,349.5 C312.9,349.35 312.6,349.3 312.3,349.4 312.25,349.4 312.25,349.4 312.2,349.4z"/>
    </g>
  </g>
</svg>