
<svg xmlns="http://www.w3.org/2000/svg" version="1.1" xmlns:xlink="http://www.w3.org/1999/xlink" preserveAspectRatio="none" x="0px" y="0px" width="1024px" height="1024px" viewBox="0 0 1024 1024">
<defs>
<g id="Layer4_0_FILL">
<path fill="#000000" fill-opacity="0.09803921568627451" stroke="none" d="
M 969.6 351.25
Q 961 330.4 950.2 310.4 944.1 299.05 937.3 288 907.95 240.45 865.75 198.2 727.5 59.95 531.95 59.95 336.45 59.95 198.2 198.2 59.95 336.45 59.95 531.95 59.95 727.5 198.2 865.75 336.45 1003.95 531.95 1003.95 727.5 1003.95 865.75 865.75 941.9 789.55 976.1 696 1003.95 619.75 1003.95 531.95 1003.95 464.6 987.55 404 985.7 397.15 983.65 390.4 977.5 370.45 969.6 351.25 Z"/>
</g>

<g id="Layer3_0_FILL">
<path fill="#F5580A" stroke="none" d="
M 969.7 392
Q 967.95 385.15 966.05 378.4 964.52578125 373.114453125 962.85 367.85 960.3787109375 359.903125 957.6 352.05 947.85 324.5 934.45 298.4 928.65 287.05 922.15 276 891.5 224 845.8 178.25 736.8 69.25 592.15 46.2 567.65 42.3 542.1 40.85 527.2 40 512 40 497.9 40 484.1 40.75 306.55 49.95 178.25 178.25 40 316.5 40 512 40 707.55 178.25 845.8 263.0400390625 930.55703125 369.35 963.35 423.8880859375 980.1630859375 484.1 983.3 484.3 983.3 484.5 983.3 496.65 983.9 509 984 510.5 984 512 984 527.25 984 542.1 983.2 545.6 983 549.05 982.75 579.1 980.6 607.75 975.05 619.55 972.75 631.15 969.9 751.75 939.85 845.8 845.8 918.7 772.85 953.15 684 980.9 612.4 983.7 530.5 984 521.3 984 512 984 511 984 510 984 509.5 984 509 983.65 447.7 969.7 392 Z"/>
</g>

<g id="Layer2_0_FILL">
<path fill="#000000" fill-opacity="0.2" stroke="none" d="
M 953.15 684
Q 960.1005859375 666.0662109375 965.45 647.45
L 691 373 644.95 430.95 591 377 541 432 492 383 433 428 388 383 326 432 370.9 476.9 324.05 527.05 277 480 222 537 263 578 228 648 561.7 981.7
Q 585.155078125 979.426953125 607.75 975.05 619.55 972.75 631.15 969.9 751.75 939.85 845.8 845.8 918.7 772.85 953.15 684 Z"/>
</g>

<g id="Layer0_0_MEMBER_0_FILL">
<path fill="#FFFFFF" stroke="none" d="
M 78.4 29.8
Q 76.9 28.25 74.7 28.25 72.55 28.25 71 29.8 69.45 31.35 69.45 33.5 69.45 35.7 71 37.2 72.55 38.75 74.7 38.75 76.9 38.75 78.4 37.2 79.95 35.7 79.95 33.5 79.95 31.35 78.4 29.8 Z"/>
</g>

<g id="Layer0_0_MEMBER_1_FILL">
<path fill="#FFFFFF" stroke="none" d="
M 64.75 29.8
Q 63.25 28.25 61.05 28.25 58.9 28.25 57.35 29.8 55.8 31.35 55.8 33.5 55.8 35.7 57.35 37.2 58.9 38.75 61.05 38.75 63.25 38.75 64.75 37.2 66.3 35.7 66.3 33.5 66.3 31.35 64.75 29.8 Z"/>
</g>

<g id="Layer0_0_MEMBER_2_FILL">
<path fill="#FFFFFF" stroke="none" d="
M 23.5 29.8
Q 22 28.25 19.8 28.25 17.65 28.25 16.15 29.8 14.6 31.35 14.6 33.5 14.6 35.65 16.15 37.2 17.65 38.75 19.8 38.75 22 38.75 23.5 37.2 25.05 35.7 25.05 33.5 25.05 31.35 23.5 29.8 Z"/>
</g>

<g id="Layer0_0_MEMBER_3_FILL">
<path fill="#FFFFFF" stroke="none" d="
M 9.85 29.8
Q 8.35 28.25 6.15 28.25 4 28.25 2.45 29.8 0.9 31.35 0.9 33.5 0.9 35.7 2.45 37.2 4 38.75 6.15 38.75 8.35 38.75 9.85 37.2 11.4 35.7 11.4 33.5 11.4 31.35 9.85 29.8 Z"/>
</g>

<g id="Layer0_0_MEMBER_4_FILL">
<path fill="#FFFFFF" stroke="none" d="
M 71 23.3
Q 72.55 24.85 74.7 24.85 76.9 24.85 78.4 23.3 79.95 21.8 79.95 19.6 79.95 17.45 78.4 15.9 76.9 14.35 74.7 14.35 72.55 14.35 71 15.9 69.45 17.45 69.45 19.6 69.45 21.8 71 23.3 Z"/>
</g>

<g id="Layer0_0_MEMBER_5_FILL">
<path fill="#FFFFFF" stroke="none" d="
M 64.75 15.9
Q 63.25 14.35 61.05 14.35 58.9 14.35 57.35 15.9 55.8 17.45 55.8 19.6 55.8 21.8 57.35 23.3 58.9 24.85 61.05 24.85 63.25 24.85 64.75 23.3 66.3 21.8 66.3 19.6 66.3 17.45 64.75 15.9 Z"/>
</g>

<g id="Layer0_0_MEMBER_6_FILL">
<path fill="#FFFFFF" stroke="none" d="
M 51.05 15.9
Q 49.55 14.35 47.4 14.35 45.25 14.35 43.7 15.9 42.15 17.45 42.15 19.6 42.15 21.8 43.7 23.3 45.25 24.85 47.4 24.85 49.55 24.85 51.05 23.3 52.6 21.75 52.6 19.6 52.6 17.45 51.05 15.9 Z"/>
</g>

<g id="Layer0_0_MEMBER_7_FILL">
<path fill="#FFFFFF" stroke="none" d="
M 37.2 15.9
Q 35.7 14.35 33.5 14.35 31.35 14.35 29.8 15.9 28.25 17.45 28.25 19.6 28.25 21.8 29.8 23.3 31.35 24.85 33.5 24.85 35.7 24.85 37.2 23.3 38.75 21.8 38.75 19.6 38.75 17.45 37.2 15.9 Z"/>
</g>

<g id="Layer0_0_MEMBER_8_FILL">
<path fill="#FFFFFF" stroke="none" d="
M 23.5 15.9
Q 22 14.35 19.8 14.35 17.65 14.35 16.15 15.9 14.6 17.45 14.6 19.6 14.6 21.75 16.15 23.3 17.65 24.85 19.8 24.85 22 24.85 23.5 23.3 25.05 21.8 25.05 19.6 25.05 17.45 23.5 15.9 Z"/>
</g>

<g id="Layer0_0_MEMBER_9_FILL">
<path fill="#FFFFFF" stroke="none" d="
M 64.75 2.05
Q 63.2 0.5 61.05 0.5 58.9 0.5 57.35 2.05 55.8 3.55 55.8 5.7 55.8 7.9 57.35 9.4 58.9 10.95 61.05 10.95 63.25 10.95 64.75 9.4 66.3 7.9 66.3 5.7 66.3 3.55 64.75 2.05 Z"/>
</g>

<g id="Layer0_0_MEMBER_10_FILL">
<path fill="#FFFFFF" stroke="none" d="
M 51.05 2.05
Q 49.55 0.5 47.4 0.5 45.25 0.5 43.7 2.05 42.15 3.55 42.15 5.7 42.15 7.9 43.7 9.4 45.25 10.95 47.4 10.95 49.55 10.95 51.05 9.4 52.6 7.85 52.6 5.7 52.6 3.55 51.05 2.05 Z"/>
</g>

<g id="Layer0_0_MEMBER_11_FILL">
<path fill="#FFFFFF" stroke="none" d="
M 37.2 2.05
Q 35.65 0.5 33.5 0.5 31.35 0.5 29.8 2.05 28.25 3.55 28.25 5.7 28.25 7.9 29.8 9.4 31.35 10.95 33.5 10.95 35.7 10.95 37.2 9.4 38.75 7.9 38.75 5.7 38.75 3.55 37.2 2.05 Z"/>
</g>

<g id="Layer0_0_MEMBER_12_FILL">
<path fill="#FFFFFF" stroke="none" d="
M 23.5 2.05
Q 21.95 0.5 19.8 0.5 17.65 0.5 16.15 2.05 14.6 3.55 14.6 5.7 14.6 7.85 16.15 9.4 17.65 10.95 19.8 10.95 22 10.95 23.5 9.4 25.05 7.9 25.05 5.7 25.05 3.55 23.5 2.05 Z"/>
</g>

<g id="Layer0_0_MEMBER_13_FILL">
<path fill="#FFFFFF" stroke="none" d="
M 9.85 15.9
Q 8.35 14.35 6.15 14.35 4 14.35 2.45 15.9 0.9 17.45 0.9 19.6 0.9 21.8 2.45 23.3 4 24.85 6.15 24.85 8.35 24.85 9.85 23.3 11.4 21.8 11.4 19.6 11.4 17.45 9.85 15.9 Z"/>
</g>
</defs>

<g transform="matrix( 1, 0, 0, 1, 0,0) ">
<use xlink:href="#Layer4_0_FILL"/>
</g>

<g transform="matrix( 1, 0, 0, 1, 0,0) ">
<use xlink:href="#Layer3_0_FILL"/>
</g>

<g transform="matrix( 1, 0, 0, 1, 0,0) ">
<use xlink:href="#Layer2_0_FILL"/>
</g>

<g transform="matrix( 7.5735321044921875, 0, 0, 7.5735321044921875, 205.65,363) ">
<use xlink:href="#Layer0_0_MEMBER_0_FILL"/>
</g>

<g transform="matrix( 7.5735321044921875, 0, 0, 7.5735321044921875, 205.65,363) ">
<use xlink:href="#Layer0_0_MEMBER_1_FILL"/>
</g>

<g transform="matrix( 7.5735321044921875, 0, 0, 7.5735321044921875, 205.65,363) ">
<use xlink:href="#Layer0_0_MEMBER_2_FILL"/>
</g>

<g transform="matrix( 7.5735321044921875, 0, 0, 7.5735321044921875, 205.65,363) ">
<use xlink:href="#Layer0_0_MEMBER_3_FILL"/>
</g>

<g transform="matrix( 7.5735321044921875, 0, 0, 7.5735321044921875, 205.65,363) ">
<use xlink:href="#Layer0_0_MEMBER_4_FILL"/>
</g>

<g transform="matrix( 7.5735321044921875, 0, 0, 7.5735321044921875, 205.65,363) ">
<use xlink:href="#Layer0_0_MEMBER_5_FILL"/>
</g>

<g transform="matrix( 7.5735321044921875, 0, 0, 7.5735321044921875, 205.65,363) ">
<use xlink:href="#Layer0_0_MEMBER_6_FILL"/>
</g>

<g transform="matrix( 7.5735321044921875, 0, 0, 7.5735321044921875, 205.65,363) ">
<use xlink:href="#Layer0_0_MEMBER_7_FILL"/>
</g>

<g transform="matrix( 7.5735321044921875, 0, 0, 7.5735321044921875, 205.65,363) ">
<use xlink:href="#Layer0_0_MEMBER_8_FILL"/>
</g>

<g transform="matrix( 7.5735321044921875, 0, 0, 7.5735321044921875, 205.65,363) ">
<use xlink:href="#Layer0_0_MEMBER_9_FILL"/>
</g>

<g transform="matrix( 7.5735321044921875, 0, 0, 7.5735321044921875, 205.65,363) ">
<use xlink:href="#Layer0_0_MEMBER_10_FILL"/>
</g>

<g transform="matrix( 7.5735321044921875, 0, 0, 7.5735321044921875, 205.65,363) ">
<use xlink:href="#Layer0_0_MEMBER_11_FILL"/>
</g>

<g transform="matrix( 7.5735321044921875, 0, 0, 7.5735321044921875, 205.65,363) ">
<use xlink:href="#Layer0_0_MEMBER_12_FILL"/>
</g>

<g transform="matrix( 7.5735321044921875, 0, 0, 7.5735321044921875, 205.65,363) ">
<use xlink:href="#Layer0_0_MEMBER_13_FILL"/>
</g>
</svg>
