
<svg xmlns="http://www.w3.org/2000/svg" version="1.1" xmlns:xlink="http://www.w3.org/1999/xlink" preserveAspectRatio="none" x="0px" y="0px" width="1024px" height="1024px" viewBox="0 0 1024 1024">
<defs>
<g id="Layer4_0_FILL">
<path fill="#000000" fill-opacity="0.09803921568627451" stroke="none" d="
M 969.6 351.25
Q 961 330.4 950.2 310.4 944.1 299.05 937.3 288 907.95 240.45 865.75 198.2 727.5 59.95 531.95 59.95 336.45 59.95 198.2 198.2 59.95 336.45 59.95 531.95 59.95 727.5 198.2 865.75 336.45 1003.95 531.95 1003.95 727.5 1003.95 865.75 865.75 941.9 789.55 976.1 696 1003.95 619.75 1003.95 531.95 1003.95 464.6 987.55 404 985.7 397.15 983.65 390.4 977.5 370.45 969.6 351.25 Z"/>
</g>

<g id="Layer3_0_FILL">
<path fill="#1787F3" stroke="none" d="
M 512 40
Q 497.9 40 484.1 40.75 306.55 49.95 178.25 178.25 40 316.5 40 512 40 707.55 178.25 845.8 263.0400390625 930.55703125 369.35 963.35 423.8880859375 980.1630859375 484.1 983.3 484.3 983.3 484.5 983.3 496.65 983.9 509 984 510.5 984 512 984
L 512 40 Z"/>

<path fill="#017190" stroke="none" d="
M 962.85 367.85
Q 960.3787109375 359.903125 957.6 352.05 947.85 324.5 934.45 298.4 928.65 287.05 922.15 276 891.5 224 845.8 178.25 736.8 69.25 592.15 46.2 567.65 42.3 542.1 40.85 527.2 40 512 40
L 512 984
Q 527.25 984 542.1 983.2 545.6 983 549.05 982.75 579.1 980.6 607.75 975.05 619.55 972.75 631.15 969.9 751.75 939.85 845.8 845.8 918.7 772.85 953.15 684 980.9 612.4 983.7 530.5 984 521.3 984 512 984 511 984 510 984 509.5 984 509 983.65 447.7 969.7 392 967.95 385.15 966.05 378.4 964.52578125 373.114453125 962.85 367.85 Z"/>
</g>

<g id="Layer2_0_FILL">
<path fill="#000000" fill-opacity="0.2" stroke="none" d="
M 983.7 530.5
Q 983.733984375 529.4576171875 983.75 528.4
L 678.25 222.9 321.15 583.8 418.4 681.05 395 860.6 518.35 983.95
Q 530.357421875 983.8326171875 542.1 983.2 545.6 983 549.05 982.75 579.1 980.6 607.75 975.05 619.55 972.75 631.15 969.9 751.75 939.85 845.8 845.8 918.7 772.85 953.15 684 980.9 612.4 983.7 530.5 Z"/>
</g>

<g id="Layer1_0_FILL">
<path fill="#FFFFFF" stroke="none" d="
M 675.7 212.35
L 675.7 212.3
Q 672.593359375 204.147265625 665.3 199.15
L 665.3 199.15
Q 665.2013671875 199.0833984375 665.1 199 665.0384765625 198.9853515625 664.95 198.95 664.9439453125 198.9283203125 664.9 198.9 657.920703125 194.2453125 649.55 194.25
L 420.35 194.25
Q 410.7751953125 194.2771484375 403.2 200.2
L 403.4 200.05
Q 403.2978515625 200.122265625 403.2 200.2 403.148828125 200.2361328125 403.1 200.25 403.04921875 200.32421875 402.95 200.35 395.5203125 206.331640625 393.25 215.6 393.2013671875 215.88046875 393.15 216.15
L 309.85 553.1
Q 309.7810546875 553.3369140625 309.7 553.55 307.60078125 561.8154296875 310.5 569.85 310.515625 569.9111328125 310.5 569.95 310.5369140625 569.9876953125 310.55 570 310.60703125 570.201171875 310.65 570.35 310.6857421875 570.4130859375 310.7 570.45 313.7494140625 578.5 320.75 583.4
L 320.65 583.3
Q 320.7693359375 583.40859375 320.9 583.5
L 321.05 583.6
Q 321.0875 583.6255859375 321.1 583.65 321.165625 583.6716796875 321.2 583.7
L 321.2 583.7
Q 328.394921875 588.536328125 337 588.5
L 441.35 588 365.15 812.85 365.1 812.85
Q 362.208984375 821.53671875 365.05 830.25 365.1880859375 830.7146484375 365.35 831.15
L 365.35 831.15
Q 368.641796875 840.3146484375 376.85 845.45 376.998046875 845.5400390625 377.1 845.6 377.18046875 845.64375 377.25 845.7 385.496484375 850.6708984375 395.05 849.5
L 395.05 849.5
Q 395.4525390625 849.45859375 395.8 849.4 404.8654296875 848.0833984375 411.4 841.55 411.657421875 841.3431640625 411.85 841.1
L 734.6 518.15
Q 734.959375 517.9046875 735.25 517.6 735.301953125 517.5498046875 735.35 517.5 743.4755859375 509.2796875 743.45 497.8
L 743.45 497.75
Q 743.461328125 486.2494140625 735.3 478.05 735.1513671875 477.8759765625 734.95 477.7 726.8021484375 469.7734375 715.45 469.8
L 612.85 469.8 676.4 229.95
Q 676.484375 229.7306640625 676.55 229.45 678.802734375 221.090625 675.9 212.85 675.81796875 212.6287109375 675.7 212.35 Z"/>
</g>

<g id="Layer0_0_FILL">
<path fill="#FADC38" stroke="none" d="
M 336.85 560.5
L 480.45 559.85 391.7 821.7 715.45 497.8 576.5 497.8 649.5 222.25 420.45 222.25 336.85 560.5 Z"/>
</g>
</defs>

<g transform="matrix( 1, 0, 0, 1, 0,0) ">
<use xlink:href="#Layer4_0_FILL"/>
</g>

<g transform="matrix( 1, 0, 0, 1, 0,0) ">
<use xlink:href="#Layer3_0_FILL"/>
</g>

<g transform="matrix( 1, 0, 0, 1, 0,0) ">
<use xlink:href="#Layer2_0_FILL"/>
</g>

<g transform="matrix( 1, 0, 0, 1, 0,0) ">
<use xlink:href="#Layer1_0_FILL"/>
</g>

<g transform="matrix( 1, 0, 0, 1, 0,0) ">
<use xlink:href="#Layer0_0_FILL"/>
</g>
</svg>
