
<svg xmlns="http://www.w3.org/2000/svg" version="1.1" xmlns:xlink="http://www.w3.org/1999/xlink" preserveAspectRatio="none" x="0px" y="0px" width="1024px" height="1024px" viewBox="0 0 1024 1024">
<defs>
<g id="Layer4_0_FILL">
<path fill="#000000" fill-opacity="0.09803921568627451" stroke="none" d="
M 969.6 351.25
Q 961 330.4 950.2 310.4 944.1 299.05 937.3 288 907.95 240.45 865.75 198.2 727.5 59.95 531.95 59.95 336.45 59.95 198.2 198.2 59.95 336.45 59.95 531.95 59.95 727.5 198.2 865.75 336.45 1003.95 531.95 1003.95 727.5 1003.95 865.75 865.75 941.9 789.55 976.1 696 1003.95 619.75 1003.95 531.95 1003.95 464.6 987.55 404 985.7 397.15 983.65 390.4 977.5 370.45 969.6 351.25 Z"/>
</g>

<g id="Layer3_0_FILL">
<path fill="#58C8C9" stroke="none" d="
M 969.7 392
Q 967.95 385.15 966.05 378.4 964.52578125 373.114453125 962.85 367.85 960.3787109375 359.903125 957.6 352.05 947.85 324.5 934.45 298.4 928.65 287.05 922.15 276 891.5 224 845.8 178.25 736.8 69.25 592.15 46.2 567.65 42.3 542.1 40.85 527.2 40 512 40 497.9 40 484.1 40.75 306.55 49.95 178.25 178.25 40 316.5 40 512 40 707.55 178.25 845.8 263.0400390625 930.55703125 369.35 963.35 423.8880859375 980.1630859375 484.1 983.3 484.3 983.3 484.5 983.3 496.65 983.9 509 984 510.5 984 512 984 527.25 984 542.1 983.2 545.6 983 549.05 982.75 579.1 980.6 607.75 975.05 619.55 972.75 631.15 969.9 751.75 939.85 845.8 845.8 918.7 772.85 953.15 684 980.9 612.4 983.7 530.5 984 521.3 984 512 984 511 984 510 984 509.5 984 509 983.65 447.7 969.7 392 Z"/>
</g>

<g id="Layer2_0_FILL">
<path fill="#000000" fill-opacity="0.2" stroke="none" d="
M 982.55 551.55
L 814 383 400.35 371 210 751 437.7 978.7
Q 460.48046875 982.06953125 484.1 983.3 484.3 983.3 484.5 983.3 496.65 983.9 509 984 510.5 984 512 984 527.25 984 542.1 983.2 545.6 983 549.05 982.75 579.1 980.6 607.75 975.05 619.55 972.75 631.15 969.9 751.75 939.85 845.8 845.8 918.7 772.85 953.15 684 977.3037109375 621.67890625 982.55 551.55 Z"/>
</g>

<g id="Layer0_0_FILL">
<path fill="#164B4B" stroke="none" d="
M 439.25 433
L 584.7 433 512 215.35 439.25 433
M 387.15 588.85
L 333 525.9 333 751 387.15 588.85
M 510.95 212.2
L 510.75 211.65 210 383 333 525.9 333 433 510.95 212.2
M 691 751
L 691 525.95 636.8 588.9 691 751
M 691 433
L 691 525.95 814 383 513.2 211.65 513.05 212.2 691 433 Z"/>

<path fill="#0F716E" stroke="none" d="
M 333 751
L 333 525.9 210 383 210 751 333 751
M 636.8 588.9
L 584.7 433 439.25 433 387.15 588.85 512 733.95 636.8 588.9
M 691 525.95
L 691 751 814 751 814 383 691 525.95 Z"/>

<path fill="#072626" stroke="none" d="
M 333 525.9
L 387.15 588.85 439.25 433 333 433 333 525.9
M 691 525.95
L 691 433 584.7 433 636.8 588.9 691 525.95 Z"/>

<path fill="#0E1A17" stroke="none" d="
M 513.05 212.2
L 512 215.35 584.7 433 691 433 513.05 212.2
M 512 215.35
L 510.95 212.2 333 433 439.25 433 512 215.35 Z"/>
</g>

<path id="Layer0_0_1_STROKES" stroke="#164B4B" stroke-width="0.1" stroke-linejoin="round" stroke-linecap="round" fill="none" d="
M 814 751
L 691 751"/>
</defs>

<g transform="matrix( 1, 0, 0, 1, 0,0) ">
<use xlink:href="#Layer4_0_FILL"/>
</g>

<g transform="matrix( 1, 0, 0, 1, 0,0) ">
<use xlink:href="#Layer3_0_FILL"/>
</g>

<g transform="matrix( 1, 0, 0, 1, 0,0) ">
<use xlink:href="#Layer2_0_FILL"/>
</g>

<g transform="matrix( 1, 0, 0, 1, 0,0) ">
<use xlink:href="#Layer0_0_FILL"/>

<use xlink:href="#Layer0_0_1_STROKES"/>
</g>
</svg>
