<?xml version="1.0" encoding="utf-8"?>
<!-- Generator: Adobe Illustrator 16.0.0, SVG Export Plug-In . SVG Version: 6.00 Build 0)  -->
<!DOCTYPE svg PUBLIC "-//W3C//DTD SVG 1.1//EN" "http://www.w3.org/Graphics/SVG/1.1/DTD/svg11.dtd">
<svg version="1.1" id="Template" image-rendering="optimizeSpeed"
	 xmlns="http://www.w3.org/2000/svg" xmlns:xlink="http://www.w3.org/1999/xlink" x="0px" y="0px" width="1024px" height="1024px"
	 viewBox="0 0 1024 1024" enable-background="new 0 0 1024 1024" xml:space="preserve">
<g id="background-circle-shadow">
	<g id="shape">
		<path id="path" fill-opacity="0.098" d="M969.65,351.3c-5.733-13.899-12.2-27.517-19.4-40.85c-4.05-7.55-8.35-15.05-12.9-22.4
			c-19.55-31.7-43.399-61.65-71.55-89.8C773.65,106.1,662.35,60,532,60s-241.6,46.1-333.75,138.25S60,401.65,60,532
			s46.1,241.65,138.25,333.8C290.4,957.95,401.65,1004,532,1004s241.65-46.05,333.8-138.2C916.55,815,953.35,758.4,976.15,696.05
			C994.7,645.2,1004,590.55,1004,532c0-44.9-5.45-87.55-16.4-127.95c-1.25-4.55-2.55-9.1-3.899-13.6
			C979.6,377.15,974.9,364.1,969.65,351.3z"/>
	</g>
</g>
<g id="background-circle">
	<g id="shape2">
		<path id="path1" fill="#383838" d="M966.1,378.45c-1-3.4-2-6.851-3.149-10.5c-1.601-5.15-3.4-10.5-5.3-15.851
			c-6.45-18.25-14.15-36.05-23.15-53.649c-3.8-7.4-7.95-14.95-12.3-22.4c-20.3-34.5-45.8-67.2-76.351-97.75
			C773.25,105.7,688.7,61.65,592.2,46.25c-16.25-2.6-32.8-4.4-50.05-5.35c-9.7-0.55-19.851-0.85-30.101-0.85
			c-9.35,0-18.6,0.25-27.899,0.75C365.8,46.9,263.85,92.75,178.3,178.3C86.133,270.467,40.05,381.717,40.05,512.05
			c0,130.351,46.1,241.65,138.25,333.8C235,902.5,298.85,941.75,369.4,963.4c36.75,11.25,74.8,17.85,114.75,19.949
			c0.149,0,0.25,0,0.399,0c8.5,0.45,16.601,0.7,24.5,0.7c1.2,0,2.101,0,3,0c10.3,0,20.5-0.3,30.101-0.8
			c2.5-0.15,4.75-0.3,6.949-0.45c20.2-1.45,39.9-4.05,58.7-7.7c7.95-1.55,15.8-3.3,23.4-5.149
			C712,949.65,783.35,908.35,845.85,845.85c48.601-48.6,84.4-102.5,107.351-161.8c18.45-47.649,28.649-98.8,30.55-153.5
			c0.2-6.05,0.3-12.25,0.3-18.5c0-0.649,0-1.35,0-2c0-0.35,0-0.649,0-1c-0.2-40.649-4.95-79.5-14.3-117
			C968.65,387.7,967.4,383.05,966.1,378.45z"/>
	</g>
</g>
<g>
	<path fill="#28415B" d="M738.5,215c-10.201,0-18.5-8.299-18.5-18.5s8.299-18.5,18.5-18.5s18.5,8.299,18.5,18.5
		S748.701,215,738.5,215z"/>
	<path fill="#8BB1EA" d="M738.5,181.5c8.284,0,15,6.716,15,15s-6.716,15-15,15s-15-6.716-15-15S730.216,181.5,738.5,181.5
		 M738.5,174.5c-12.131,0-22,9.869-22,22s9.869,22,22,22s22-9.869,22-22S750.631,174.5,738.5,174.5L738.5,174.5z"/>
</g>
<path opacity="0.45" d="M953.15,684.305c18.45-47.649,28.649-98.8,30.55-153.5c0.2-6.05,0.3-12.25,0.3-18.5c0-0.649,0-1.35,0-2
	c0-0.35,0-0.649,0-1c-0.2-40.649-4.95-79.5-14.3-117c-1.1-4.35-2.35-9-3.65-13.6c-1-3.4-2-6.851-3.149-10.5
	c-1.601-5.15-3.4-10.5-5.3-15.851c-4.16-11.771-8.849-23.353-14.062-34.816L784,158l-135.5-6.5l-490,483l33.998,150.998
	l178.71,178.71c36.176,10.907,73.614,17.332,112.893,19.396c0.149,0,0.25,0,0.399,0c8.5,0.45,16.601,0.7,24.5,0.7c1.2,0,2.101,0,3,0
	c10.3,0,20.5-0.3,30.101-0.8c2.5-0.15,4.75-0.3,6.949-0.45c20.2-1.45,39.9-4.05,58.7-7.7c7.95-1.55,15.8-3.3,23.4-5.149
	c80.8-20.3,152.149-61.601,214.649-124.101C894.4,797.505,930.2,743.604,953.15,684.305z"/>
<path fill="#3E6CAF" d="M847.5,812.5c0,0-101.356,32.055-112,41c-75.4,63.37-253.481,101.452-357,55c-70.635-31.696-263-117-282-317
	s45-300,140-396c158.857-160.529,477.953-82.996,500-69s62,33,68,72s1,24,6,39s41,35,41,35s0,46-77,51s-158-36-237-14s-94,61-113,80
	s-24.595,66.977-16.918,89.274c5.542,16.097,24.049,23.669,29.918,53.226c14,70.5,58,118.5,58,118.5c-24,13-105-55-108-43
	s14,89,161,120s231-83,231-83l35,82c0,0-54,23-44,38s53-13,53-13L847.5,812.5z"/>
<path fill="#F24103" d="M780,512c0,75.948-61.552,137.5-137.5,137.5S505,587.948,505,512c0-75.95,61.552-137.5,137.5-137.5
	S780,436.05,780,512z"/>
</svg>
