<?xml version="1.0" encoding="utf-8"?>
<!-- Generator: flash2svg, http://dissentgraphics.com/tools/flash2svg -->
<svg xmlns:xlink="http://www.w3.org/1999/xlink" id="Apps-Jetbrains-PhpStorm" image-rendering="optimizeSpeed" baseProfile="basic" version="1.1" style="background-color:#ffffff" x="0px" y="0px" width="1024px" height="1024px" viewBox="0 0 1024 1024" enable-background="new 0 0 1024 1024" xmlns="http://www.w3.org/2000/svg">
  <defs transform="matrix(1 0 0 1 0 0) "/>
  <g id="shadow">
    <g id="shape">
      <path id="path" fill="#000000" fill-opacity="0.09803921568627451" d="M969.65,351.3 Q961.05,330.45 950.25,310.45 C946.2,302.9 941.9,295.4 937.35,288.05 917.8,256.35 893.95,226.4 865.8,198.25 773.65,106.1 662.35,60 532,60 401.65,60 290.4,106.1 198.25,198.25 106.1,290.4 60,401.65 60,532 60,662.35 106.1,773.65 198.25,865.8 290.4,957.95 401.65,1004 532,1004 662.35,1004 773.65,957.95 865.8,865.8 916.55,815 953.35,758.4 976.15,696.05 994.7,645.2 1004,590.55 1004,532 1004,487.1 998.55,444.45 987.6,404.05 986.35,399.5 985.05,394.95 983.7,390.45 979.6,377.15 974.9,364.1 969.65,351.3z"/>
    </g>
  </g>
  <g id="circle">
    <g id="shape2">
      <path id="path1" fill="#5058A6" fill-opacity="1" d="M966.1,378.45 C963.6,369.7 960.75,360.85 957.65,352.1 951.2,333.85 943.5,316.05 934.5,298.45 930.7,291.05 926.55,283.5 922.2,276.05 901.9,241.55 876.4,208.85 845.85,178.3 773.25,105.7 688.7,61.65 592.2,46.25 575.95,43.65 559.4,41.85 542.15,40.9 532.45,40.35 522.3,40.05 512.05,40.05 502.7,40.05 493.45,40.3 484.15,40.8 365.8,46.9 263.85,92.75 178.3,178.3 Q40.05,316.55 40.05,512.05 C40.05,642.4 86.15,753.7 178.3,845.85 256.8,924.3 349.1,969.4 455,981 464.75,982.1 474.4,982.85 484.15,983.35 484.3,983.35 484.4,983.35 484.55,983.35 493.05,983.8 501.15,984.05 509.05,984.05 510.25,984.05 511.15,984.05 512.05,984.05 522.35,984.05 532.55,983.75 542.15,983.25 544.65,983.1 546.9,982.95 549.1,982.8 569.3,981.35 589,978.75 607.8,975.1 615.75,973.55 623.6,971.8 631.2,969.95 712,949.65 783.35,908.35 845.85,845.85 894.45,797.25 930.25,743.35 953.2,684.05 971.65,636.4 981.85,585.25 983.75,530.55 983.95,524.5 984.05,518.3 984.05,512.05 984.05,511.4 984.05,510.7 984.05,510.05 984.05,509.7 984.05,509.4 984.05,509.05 983.95,492.2 983.1,475.7 981.45,459.35 979.15,436.45 975.25,414 969.75,392.05 968.65,387.7 967.4,383.05 966.1,378.45z"/>
    </g>
  </g>
  <g id="ico-shadow">
    <g id="shape4">
      <path id="path2" fill="#4F56A8" fill-opacity="1" d="M966.1,378.45 C963.6,369.7 960.75,360.85 957.65,352.1 951.2,333.85 943.5,316.05 934.5,298.45 930.7,291.05 926.55,283.5 922.2,276.05 901.9,241.55 876.4,208.85 845.85,178.3 773.25,105.7 688.7,61.65 592.2,46.25 575.95,43.65 559.4,41.85 542.15,40.9 532.45,40.35 522.3,40.05 512.05,40.05 502.7,40.05 493.45,40.3 484.15,40.8 365.8,46.9 263.85,92.75 178.3,178.3 93,263.6 47.15,365.3 40.85,483.15 L40.825,483.15 L756.25,483.15 756.25,756.25 106.875,756.25 L106.9,756.25 C126.55,788.1 150.3,817.85 178.3,845.85 256.8,924.3 349.1,969.4 455,981 464.75,982.1 474.4,982.85 484.15,983.35 484.3,983.35 484.4,983.35 484.55,983.35 493.05,983.8 501.15,984.05 509.05,984.05 510.25,984.05 511.15,984.05 512.05,984.05 522.35,984.05 532.55,983.75 542.15,983.25 544.65,983.1 546.9,982.95 549.1,982.8 569.3,981.35 589,978.75 607.8,975.1 615.75,973.55 623.6,971.8 631.2,969.95 712,949.65 783.35,908.35 845.85,845.85 894.45,797.25 930.25,743.35 953.2,684.05 971.65,636.4 981.85,585.25 983.75,530.55 983.95,524.5 984.05,518.3 984.05,512.05 984.05,511.4 984.05,510.7 984.05,510.05 984.05,509.7 984.05,509.4 984.05,509.05 983.95,492.2 983.1,475.7 981.45,459.35 979.15,436.45 975.25,414 969.75,392.05 968.65,387.7 967.4,383.05 966.1,378.45z"/>
      <path id="path3" fill="#FFFFFF" fill-opacity="1" d="M756.25,756.25 L756.25,483.15 40.825,483.15 Q40.05,497.439 40.05,512.05 C40.05,602.8 62.4,684.35 106.9,756.25 L106.875,756.25 L756.25,756.25z"/>
    </g>
  </g>
  <g id="ico">
    <g id="shape8">
      <path id="path4" fill="#000000" fill-opacity="0.2" d="M773.375,223.225 L654.05,387.05 646.825,483.15 756.25,483.15 756.25,756.25 106.875,756.25 L106.9,756.25 C126.55,788.1 150.3,817.85 178.3,845.85 256.8,924.3 349.1,969.4 455,981 464.75,982.1 474.4,982.85 484.15,983.35 484.3,983.35 484.4,983.35 484.55,983.35 493.05,983.8 501.15,984.05 509.05,984.05 510.25,984.05 511.15,984.05 512.05,984.05 522.35,984.05 532.55,983.75 542.15,983.25 544.65,983.1 546.9,982.95 549.1,982.8 569.3,981.35 589,978.75 607.8,975.1 615.75,973.55 623.6,971.8 631.2,969.95 712,949.65 783.35,908.35 845.85,845.85 894.45,797.25 930.25,743.35 953.2,684.05 971.65,636.4 981.85,585.25 983.75,530.55 983.95,524.5 984.05,518.3 984.05,512.05 984.05,511.4 984.05,510.7 984.05,510.05 984.05,509.7 984.05,509.4 984.05,509.05 983.95,492.2 983.1,475.7 981.45,459.35 980.35,448.5 978.9,437.75 977.05,426.9 L773.375,223.225z"/>
      <path id="path5" fill="#FFFFFF" fill-opacity="1" d="M756.25,756.25 L756.25,483.15 646.825,483.15 40.825,483.15 Q40.05,497.439 40.05,512.05 C40.05,602.8 62.4,684.35 106.9,756.25 L106.875,756.25 L756.25,756.25z"/>
    </g>
  </g>
  <g id="Calque.__201">
    <g id="shape12">
      <path id="path6" fill="#F9AA0C" fill-opacity="1" d="M781.55,234.8 C773.7,221.6 762.4,213.1 747.6,209.3 732.85,205.5 718.8,207.5 705.55,215.3 676.7,232.45 653.8,250.5 636.95,269.45 L637,269.45 C583.85,327.3 577.05,391.7 616.6,462.75 617.65,464.55 618.75,466.35 620,468.15 L730.7,622.3 C741.4,651.05 726.35,683.5 685.5,719.7 674,729.95 667.8,742.65 666.9,757.9 666,773.15 670.65,786.5 680.85,798 691,809.45 703.7,815.65 718.95,816.55 734.2,817.45 747.55,812.85 759.05,802.75 853.2,719.35 875.6,640.3 826.3,565.6 825.35,564.1 824.4,562.6 823.35,561.1 L712.25,406.35 C700.45,383.5 702.75,362.75 719.15,344 L719.2,343.95 C729.9,332.45 744.25,321.35 762.2,310.7 775.3,302.85 783.75,291.55 787.55,276.75 791.35,262 789.35,248 781.55,234.8z"/>
      <path id="path7" fill="#5058A6" fill-opacity="1" d="M304,534.75 C299.4,529.3 293.25,525.3 285.6,522.6 277.9,519.85 268.7,518.5 257.95,518.5 L172.4,518.5 172.4,710.5 223.25,710.5 223.25,645.7 265.5,645.7 274.95,645.2 C278.6,644.85 283.3,643.45 288.95,640.95 294.65,638.55 299.45,635.1 303.4,630.6 307.35,626.15 310.6,619.65 313.25,611.15 315.9,602.5 317.2,592.6 317.2,581.4 317.2,570.2 316,560.7 313.5,552.85 311,545 307.85,538.95 304,534.75z M266,582.15 C266,595.65 261.55,602.4 252.7,602.4 L223.25,602.4 223.25,561.8 252.7,561.8 C257.1,561.8 260.45,563.5 262.65,566.8 264.9,570.2 266,575.35 266,582.15z M633.45,534.75 C628.85,529.3 622.7,525.3 615.05,522.6 607.35,519.85 598.15,518.5 587.4,518.5 L501.85,518.5 501.85,710.5 552.65,710.5 552.65,645.7 594.95,645.7 604.4,645.2 C608.05,644.85 612.75,643.45 618.35,640.95 624.1,638.55 628.9,635.1 632.85,630.6 636.8,626.15 640.05,619.65 642.7,611.15 645.35,602.5 646.65,592.6 646.65,581.4 646.65,570.2 645.45,560.7 642.95,552.85 640.45,545 637.3,538.95 633.45,534.75z M592.1,566.8 C594.35,570.2 595.4,575.35 595.4,582.15 595.4,595.65 591,602.4 582.15,602.4 L552.65,602.4 552.65,561.8 582.15,561.8 C586.55,561.8 589.85,563.5 592.1,566.8z M386.1,518.5 L335.25,518.5 335.25,710.5 386.1,710.5 386.1,640.4 430.8,640.4 430.8,710.5 481.65,710.5 481.65,518.5 430.8,518.5 430.8,594.85 386.1,594.85 386.1,518.5z"/>
    </g>
  </g>
</svg>