<?xml version="1.0" encoding="utf-8"?>
<!-- Generator: flash2svg, http://dissentgraphics.com/tools/flash2svg -->
<svg xmlns:xlink="http://www.w3.org/1999/xlink" id="Unity" image-rendering="optimizeSpeed" baseProfile="basic" version="1.1" style="background-color:#ffffff" x="0px" y="0px" width="1024px" height="1024px" viewBox="0 0 1024 1024" enable-background="new 0 0 1024 1024" xmlns="http://www.w3.org/2000/svg">
  <defs transform="matrix(1 0 0 1 0 0) "/>
  <g id="shadow">
    <g id="shape">
      <path id="path" fill="#000000" fill-opacity="0.09803921568627451" d="M969.65,351.3 Q961.05,330.45 950.25,310.45 C946.2,302.9 941.9,295.4 937.35,288.05 917.8,256.35 893.95,226.4 865.8,198.25 773.65,106.1 662.35,60 532,60 401.65,60 290.4,106.1 198.25,198.25 106.1,290.4 60,401.65 60,532 60,662.35 106.1,773.65 198.25,865.8 290.4,957.95 401.65,1004 532,1004 662.35,1004 773.65,957.95 865.8,865.8 916.55,815 953.35,758.4 976.15,696.05 994.7,645.2 1004,590.55 1004,532 1004,487.1 998.55,444.45 987.6,404.05 986.35,399.5 985.05,394.95 983.7,390.45 979.6,377.15 974.9,364.1 969.65,351.3z"/>
    </g>
  </g>
  <g id="ico-shadow">
    <g id="shape2">
      <path id="path1" fill="#203239" fill-opacity="1" d="M727.2,91.75 C718.5,87.4 709.35,83.1 699.95,79.05 691.35,75.3 682.8,71.85 674.05,68.65 631.95,52.9 589.8,43.3 547.6,40 478.2,34.4 408.65,45.4 338.7,73 315.25,82.3 293.05,92.9 272.1,104.9 230.8,128.6 194.5,157.55 163.6,191.6 Q112,248.2 79.05,324.15 C58.8,370.8 46.2,417.6 41.2,463.8 40.75,468.25 40.35,472.4 40,476.55 36.3,522.15 39.8,567.3 50.25,612.55 55.95,637.1 63.5,661.3 73,685.4 100.7,755.35 140.25,813.8 191.55,860.5 223,889.15 258.75,913.35 298.85,933.3 299,933.35 299.1,933.4 299.2,933.45 302.3,935 305.3,936.45 307.85,937.6 312.75,939.95 317.1,941.95 321.45,943.85 322.55,944.3 323.35,944.7 324.2,945.05 333.65,949.15 343.1,952.9 352.1,956.25 354.45,957.1 356.6,957.9 358.7,958.65 377.75,965.35 396.9,970.8 415.6,974.95 423.5,976.65 431.4,978.2 439.1,979.5 440.05,979.7 441.05,979.8 441.8,979.95 453.45,981.8 465,983.2 476.55,984.15 546.35,989.6 615.75,978.6 685.4,951.1 709.75,941.5 732.7,930.45 754.2,917.95 789.3,897.6 820.65,873.45 848.3,845.45 852.45,841.25 856.5,836.95 860.55,832.55 868.95,823.3 877.05,813.6 884.8,803.45 904.85,777.3 922.35,748.35 937.4,716.75 940,711.25 942.55,705.65 945.05,699.9 945.3,699.3 945.6,698.65 945.85,698.05 946,697.75 946.1,697.45 946.25,697.15 949.05,690.55 951.7,683.9 954.35,677.15 966,646.5 974.5,615.5 979.7,584.1 980.4,579.7 981.1,574.95 981.8,570.2 982.7,562.85 983.55,555.35 984.15,547.6 984.25,546.15 984.4,544.45 984.55,542.65 985.85,523.35 985.85,503.95 984.65,484.25 984.2,477.85 983.65,471.35 982.95,464.65 982.75,462.8 982.5,460.8 982.25,458.8 980.25,442.4 977.3,425.95 973.3,409.1 967.85,385.95 960.45,362.35 951.1,338.7 923.55,268.95 884.1,210.65 832.5,163.6 813.75,146.5 793.15,130.8 770.95,116.65 757.1,107.75 742.65,99.55 727.2,91.75z"/>
    </g>
  </g>
  <g id="ico-shadow1">
    <g id="shape4">
      <path id="path2" fill="#000000" fill-opacity="0.2" d="M937.4,716.75 C940,711.25 942.55,705.65 945.05,699.9 945.3,699.3 945.6,698.65 945.85,698.05 946,697.75 946.1,697.45 946.25,697.15 949.05,690.55 951.7,683.9 954.35,677.15 966,646.5 974.5,615.5 979.7,584.1 980.4,579.7 981.1,574.95 981.8,570.2 982.7,562.85 983.55,555.35 984.15,547.6 984.25,546.15 984.4,544.45 984.55,542.65 985.85,523.35 985.85,503.95 984.65,484.25 Q984.318,479.24 983.875,474.225 L843.55,333.9 289.85,683.95 585.25,979.35 C618.95,973.6 652.15,964.25 685.4,951.1 709.75,941.5 732.7,930.45 754.2,917.95 789.3,897.6 820.65,873.45 848.3,845.45 852.45,841.25 856.5,836.95 860.55,832.55 868.95,823.3 877.05,813.6 884.8,803.45 904.85,777.3 922.35,748.35 937.4,716.75z"/>
    </g>
  </g>
  <g id="Calque.__202">
    <g id="shape6">
      <path id="path3" fill="#546A72" fill-opacity="1" d="M851.725,346.3 Q852.465,343.554 851.6,340.8 C851.05,338.95 850,337.45 848.55,336.2 847.1,334.95 845.4,334.15 843.55,333.9 L843.55,333.875 L562.45,291.175 L562.45,291.2 C561.1,290.95 559.8,291.05 558.45,291.4 L558.425,291.375 L516.85,302.175 471.025,292 L471.05,292 C469.8,291.75 468.55,291.7 467.35,291.9 L467.35,291.875 L190.6,333.925 L190.6,333.95 C188.75,334.2 187.05,335 185.6,336.25 184.15,337.5 183.1,339 182.55,340.85 182,342.7 181.95,344.5 182.45,346.35 L182.425,346.35 L261.775,646.15 L261.8,646.15 C262.15,647.6 262.85,648.9 263.8,650.05 264.75,651.2 265.9,652.05 267.25,652.7 L267.25,652.675 L281.525,659.275 284.925,677.125 L284.95,677.15 C285.2,678.55 285.8,679.85 286.65,681.1 287.5,682.25 288.55,683.2 289.85,683.95 L289.825,683.95 L512.125,809.45 L512.15,809.45 C513.7,810.3 515.3,810.75 517.05,810.75 518.8,810.75 520.45,810.3 522,809.45 L521.975,809.45 L745.475,683.25 L745.5,683.25 C746.85,682.5 747.95,681.45 748.8,680.2 749.65,678.95 750.2,677.55 750.45,676 L752.975,658.75 767.85,650.7 C769.05,650.05 770.1,649.15 770.95,648.1 771.8,647 772.45,645.8 772.8,644.45 L772.775,644.45 L851.725,346.3z"/>
    </g>
  </g>
  <g id="ico">
    <g id="shape8">
      <path id="path4" fill="#FFFFFF" fill-opacity="1" d="M743.8,652.35 L785.75,383.35 528.9,476.75 528.9,754.55 743.8,652.35z M505.25,754.55 L505.25,476.7 248.4,383.35 290.4,652.35 505.25,754.55z M272.9,365.85 L517.05,454.6 760.6,366.05 516.75,312.7 272.9,365.85z"/>
    </g>
  </g>
</svg>