<?xml version="1.0" encoding="utf-8"?>
<!-- Generator: flash2svg, http://dissentgraphics.com/tools/flash2svg -->
<svg xmlns:xlink="http://www.w3.org/1999/xlink" id="Apps-BootCampAssistant" image-rendering="optimizeSpeed" baseProfile="basic" version="1.1" style="background-color:#ffffff" x="0px" y="0px" width="1024px" height="1024px" viewBox="0 0 1024 1024" enable-background="new 0 0 1024 1024" xmlns="http://www.w3.org/2000/svg">
  <defs transform="matrix(1 0 0 1 0 0) "/>
  <g id="shadow">
    <g id="shape">
      <path id="path" fill="#000000" fill-opacity="0.09803921568627451" d="M965.65,347.3 Q957.05,326.45 946.25,306.45 C942.2,298.9 937.9,291.4 933.35,284.05 913.8,252.35 889.95,222.4 861.8,194.25 769.65,102.1 658.35,56 528,56 397.65,56 286.4,102.1 194.25,194.25 102.1,286.4 56,397.65 56,528 56,658.35 102.1,769.65 194.25,861.8 286.4,953.95 397.65,1000 528,1000 658.35,1000 769.65,953.95 861.8,861.8 912.55,811 949.35,754.4 972.15,692.05 990.7,641.2 1000,586.55 1000,528 1000,483.1 994.55,440.45 983.6,400.05 982.35,395.5 981.05,390.95 979.7,386.45 975.6,373.15 970.9,360.1 965.65,347.3z"/>
    </g>
  </g>
  <g id="LogoBg">
    <g id="shape2">
      <path id="path1" fill="#FFFFFF" fill-opacity="1" d="M847,178.05 C846.65,177.7 846.35,177.4 846,177.05 801.75,133 753.1,99.55 700.1,76.7 642.75,51.95 580.25,39.6 512.7,39.6 445,39.6 382.45,52 325.05,76.85 271.75,99.9 222.9,133.6 178.45,178.05 124.1,232.4 85.75,293.4 63.4,361.05 47.8,408.25 40,458.65 40,512.3 40,642.85 86.15,754.3 178.45,846.6 260.6,928.8 357.95,974.4 470.4,983.35 484.25,984.5 498.35,985.05 512.7,985.05 520.2,985.05 527.65,984.9 534.7,984.6 656,979.6 760,933.6 847,846.6 893.9,799.7 928.9,747.85 951.95,691.1 958.6,674.8 964.25,658.05 968.95,640.8 979.95,600.35 985.45,557.5 985.45,512.3 Q985.45,432.401 962.4,362.05 C940.8,296 903.65,235.9 851,182.1 849.8,180.85 848.4,179.45 847,178.05z M838.25,194.8 C888.25,246 923.65,303.15 944.4,365.8 944.45,366.05 944.55,366.35 944.65,366.65 959.6,412 967.1,460.5 967.1,512.05 967.1,555.45 961.8,596.7 951.25,635.75 946.7,652.25 941.25,668.35 934.85,684.15 912.65,738.8 879,788.65 833.85,833.85 750,917.65 649.8,961.9 533.25,966.65 526.25,966.95 519.2,967.1 512.05,967.1 498.25,967.1 484.7,966.55 471.35,965.45 363.1,956.85 269.45,913 190.35,833.85 101.5,745 57.05,637.75 57.05,512.05 57.05,460.15 64.65,411.4 79.9,365.55 101.35,300.95 138.2,242.45 190.35,190.35 233,147.65 279.95,115.2 331.05,93.1 386.5,69.05 446.8,57.05 512.05,57.05 574.55,57.05 632.5,68 685.2,89.75 688.4,91.05 691.15,92.25 693.9,93.45 744.55,115.5 791,147.6 833.3,189.8 833.45,189.95 833.65,190.15 833.85,190.35 835.4,191.9 836.9,193.45 838.25,194.8z"/>
      <path id="path2" fill="#E1E1E1" fill-opacity="1" d="M838.25,194.8 C836.9,193.45 835.4,191.9 833.85,190.35 833.65,190.15 833.45,189.95 833.3,189.8 791,147.6 744.55,115.5 693.9,93.45 691.15,92.25 688.4,91.05 685.2,89.75 632.5,68 574.55,57.05 512.05,57.05 446.8,57.05 386.5,69.05 331.05,93.1 279.95,115.2 233,147.65 190.35,190.35 138.2,242.45 101.35,300.95 79.9,365.55 64.65,411.4 57.05,460.15 57.05,512.05 57.05,637.75 101.5,745 190.35,833.85 269.45,913 363.1,956.85 471.35,965.45 484.7,966.55 498.25,967.1 512.05,967.1 519.2,967.1 526.25,966.95 533.25,966.65 649.8,961.9 750,917.65 833.85,833.85 879,788.65 912.65,738.8 934.85,684.15 941.25,668.35 946.7,652.25 951.25,635.75 961.8,596.7 967.1,555.45 967.1,512.05 967.1,460.5 959.6,412 944.65,366.65 944.55,366.35 944.45,366.05 944.4,365.8 923.65,303.15 888.25,246 838.25,194.8z"/>
    </g>
  </g>
  <g id="inner">
    <g id="shape7">
      <path id="path5" fill="#000000" fill-opacity="0.09803921568627451" d="M610.95,353.4 L497.875,472.225 859.425,833.775 L859.45,833.8 C899.45,791 930,744.2 951,693.45 L610.95,353.4z M446.1,484.05 L332.2,602.05 684.475,954.325 Q761.96,924.395 827.35,865.3 L446.1,484.05z"/>
    </g>
  </g>
  <g id="Calque.__205">
    <g id="shape11">
      <path id="path8" fill="#333333" fill-opacity="1" d="M775.7,518.2 L659.8,402.25 543.85,518.2 659.8,634.15 775.7,518.2z"/>
      <path id="path9" fill="#000000" fill-opacity="1" d="M628,370.45 L512.05,254.55 396.1,370.45 512.05,486.4 628,370.45z"/>
      <path id="path10" fill="#999999" fill-opacity="1" d="M480.25,518.2 L364.3,402.25 248.4,518.2 364.3,634.15 480.25,518.2z"/>
      <path id="path11" fill="#666666" fill-opacity="1" d="M512.05,781.85 L628,665.95 512.05,550 396.1,665.95 512.05,781.85z"/>
    </g>
  </g>
  <g id="bg">
    <g id="shape16">
      <path id="path12" fill="none" stroke="#FFFFFF" stroke-opacity="0.8" stroke-width="63.6" stroke-linecap="round" stroke-linejoin="round" d="M670.9,170.25 C726.35,187.3 776.25,217.95 820.5,262.15 Q878.75,320.45 905.55,391.7"/>
      <path id="path13" fill="none" stroke="#FFFFFF" stroke-opacity="0.8" stroke-width="63.6" stroke-linecap="round" stroke-linejoin="round" d="M413.7,913.5 C358.25,896.45 308.35,865.8 264.1,821.6 225.25,782.75 196.9,739.55 179.05,692.05"/>
    </g>
  </g>
</svg>