
<svg xmlns="http://www.w3.org/2000/svg" version="1.1" xmlns:xlink="http://www.w3.org/1999/xlink" preserveAspectRatio="none" x="0px" y="0px" width="1024px" height="1024px" viewBox="0 0 1024 1024">
<defs>
<g id="Layer3_0_FILL">
<path fill="#000000" fill-opacity="0.09803921568627451" stroke="none" d="
M 969.6 351.25
Q 961 330.4 950.2 310.4 944.1 299.05 937.3 288 907.95 240.45 865.75 198.2 727.5 59.95 531.95 59.95 336.45 59.95 198.2 198.2 59.95 336.45 59.95 531.95 59.95 727.5 198.2 865.75 336.45 1003.95 531.95 1003.95 727.5 1003.95 865.75 865.75 941.9 789.55 976.1 696 1003.95 619.75 1003.95 531.95 1003.95 464.6 987.55 404 985.7 397.15 983.65 390.4 977.5 370.45 969.6 351.25 Z"/>
</g>

<g id="Layer2_0_FILL">
<path fill="#FFFFFF" stroke="none" d="
M 969.7 392
Q 967.95 385.15 966.05 378.4 964.52578125 373.114453125 962.85 367.85 960.3787109375 359.903125 957.6 352.05 947.85 324.5 934.45 298.4 928.65 287.05 922.15 276 891.5 224 845.8 178.25 736.8 69.25 592.15 46.2 567.65 42.3 542.1 40.85 527.2 40 512 40 497.9 40 484.1 40.75 306.55 49.95 178.25 178.25 40 316.5 40 512 40 707.55 178.25 845.8 263.0400390625 930.55703125 369.35 963.35 423.8880859375 980.1630859375 484.1 983.3 484.3 983.3 484.5 983.3 496.65 983.9 509 984 510.5 984 512 984 527.25 984 542.1 983.2 545.6 983 549.05 982.75 579.1 980.6 607.75 975.05 619.55 972.75 631.15 969.9 751.75 939.85 845.8 845.8 918.7 772.85 953.15 684 980.9 612.4 983.7 530.5 984 521.3 984 512 984 511 984 510 984 509.5 984 509 983.65 447.7 969.7 392 Z"/>
</g>

<g id="Layer1_0_FILL">
<path fill="#000000" fill-opacity="0.09803921568627451" stroke="none" d="
M 771 256.4
L 725.35 323.25 225.55 427.25 289.3 491 295.1 736 542.3 983.2
Q 545.6931640625 982.9931640625 549.05 982.75 579.1 980.6 607.75 975.05 619.55 972.75 631.15 969.9 751.75 939.85 845.8 845.8 918.7 772.85 953.15 684 980.9 612.4 983.7 530.5 984 521.3 984 512 984 511 984 510 984 509.5 984 509 983.8798828125 487.9478515625 982.15 467.55
L 771 256.4 Z"/>
</g>

<g id="Layer0_0_FILL">
<path fill="#FBBC50" stroke="none" d="
M -352.55 704.35
Q -357.05 704.25 -360.7 704.15
L -369.5 703.9
Q -370.5 703.9 -371.25 703.85 -371.45 703.85 -371.7 703.85
L -372.1 703.8
Q -376.3 703.6 -377.4 703.45 -376.4 703.7 -375.3 703.85 -371.3 704.3 -352.55 704.35
M 684.95 410
Q 683.8 407.95 674.85 400.65 666.85 394.05 630.7 365.55
L 576.45 322.6
Q 557.65 307.5 538.75 294.05 535.9 292.6 532.65 292.6 529.45 292.6 526.55 294.05 508.5 306.9 488.95 322.6
L 434.6 365.55
Q 398.45 394.05 390.45 400.65 381.5 407.95 380.35 410 379.1 412.2 378.95 427.15 378.75 442.05 378.95 528.5
L 379.1 644.1 381.05 647.75
Q 382.85 651.45 386.4 653.2
L 389.95 655.1 676.2 655.1 679.3 653.2
Q 682.6 651.35 684.35 647.75
L 686.15 644.1 686.4 528.5
Q 686.65 442.05 686.45 427.15 686.3 412.2 684.95 410
M 528.2 350.95
Q 529 350.7 531.45 350.45 536.15 350.15 538.6 351.5 548.5 358.3 557 365.25
L 605.85 404.2
Q 626.6 420.75 633.15 426.35 639.7 431.95 640.65 434.05 641.75 436.25 641.95 444.05 642.1 451 642.1 486.3 642.1 524.55 641.5 568.95 641.15 593.2 640.85 598.3 640.55 603.2 639.3 604.9 637.4 607.25 635.15 608.65 633.4 609.65 618.5 609.9 604.6 610.15 535.05 610.35 497 610.4 465.3 610.3 435.8 610.2 434.45 610.05 431.55 609.55 429.2 607.85 427 606.15 425.65 603.5 424.65 601.55 424.35 588.55 424.05 576.35 423.65 519.6 423.25 461.6 423.4 449.95 423.5 437.5 424.5 434.9 425.55 432.4 427.8 430.15 430.15 427.75 437.9 421.55
L 481.75 386.65
Q 517.45 358.15 522.6 354.45 526.5 351.6 528.2 350.95 Z"/>

<path fill="#FDC85E" stroke="none" d="
M 202.4 441.15
Q 202.2623046875 441.4767578125 202.15 441.8
L 202.45 441.8
Q 202.8759765625 440.8310546875 203.5 439.95 202.5009765625 440.9142578125 202.4 441.15 Z"/>

<path fill="#F79029" stroke="none" d="
M 767.75 255.35
Q 764.9 254.9 755.85 254.75 750.3 254.65 742.45 254.65 734.6 254.65 728.95 254.75 716.25 254.95 714.65 255.7 711.5 257.15 710.8 261.4 710.2 265.55 710.2 284.8 710.2 304.05 709.6 307.55 709.2 309.75 708.35 309.9 707.7 310.05 706 308.9 704.85 308.1 567.95 200.1
L 545.25 182.2
Q 543.7 181 542.2 180.1 538.45 177.85 534.85 177.3 531.15 176.75 527.6 177.95 527.1 178.15 526.55 178.35 525.55 178.8 522.9 180.65 522.15 181.15 521.25 181.75 517.25 184.55 512.75 188.05
L 251.75 394.55
Q 240.3 403.65 232.55 410.2 224.6 416.85 224.2 417.75 223.7 418.65 223.5 419.55 223.2 420.6 223.2 421.7 223.2 422.2 223.3 422.75 223.65 425.4 225.55 427.25
L 227.9 430 227.95 430.05 257.6 430.25
Q 284 430.4 287.8 431.2 288.25 431.3 288.35 431.4 288.45 431.5 288.55 432.45 289 436.9 289.2 460.2 289.4 489.05 289.4 577.6 289.4 700.85 289.95 715.85 290.35 726.35 291.4 730.5 291.55 731.15 291.75 731.65 291.9 732.05 292.45 732.75 293.4 734.1 295.6 736.6 300.4 742.2 307.8 744.1
L 307.8 744.05
Q 309.75 744.65 534.45 744.45
L 758.7 744.45 762.65 742.5
Q 762.75 742.45 762.85 742.4 764.35 741.65 766.45 740 768.45 738.35 770.05 736.65 772.05 734.4 773.05 733.1 773.7 732.15 773.9 731.65 774.15 731.05 774.35 730.2 775.35 726 775.7 715.85 776.3 700.85 776.3 577.65 776.3 489 776.5 460.15 776.65 439.5 777 433.6 777.15 431.4 777.3 431.2 778.55 430.35 808.1 430.2
L 837.7 430 840.1 427.25
Q 841.75 425.6 842.2 423.4 842.25 423.05 842.3 422.75 842.55 421.15 842.2 419.65 841.95 418.65 841.45 417.7 825.4 403.05 808.1 389.95 800.95 384.3 795.45 379.75
L 785 371.45
Q 777.45 365.25 775.7 363.55 775.2 363.1 775.15 362.95 775 362.35 774.8 347.3 774.65 331.3 774.65 311.5 774.65 283.55 774.45 272.05 774.2 260.35 773.65 259.25 772.1 256 767.75 255.35
M 713.9 372.5
Q 725.8 382.05 728.7 384.8 729.95 386 730.95 388
L 732.85 391.5 732.4 688.95 730.1 692.8
Q 727.95 696.6 724 698.95
L 720.15 701.3 533.9 701.4
Q 347.5 701.6 345.5 700.85 342.35 699.85 339.65 697.8 336.95 695.65 335.2 692.8
L 333.05 688.95 332.5 391.5 334.5 388
Q 335.55 386 336.75 384.8 339.6 382.1 351.5 372.55 365.55 361.3 485.4 266.7 500.25 254.85 512.95 245.15 524.8 236.05 525.9 235.55 532.65 233.4 539.55 235.55 560.55 250.8 580.05 266.6 699.3 360.75 713.9 372.5 Z"/>

<path fill="#FBA834" stroke="none" d="
M 728.7 384.8
Q 725.8 382.05 713.9 372.5 699.3 360.75 580.05 266.6 560.55 250.8 539.55 235.55 532.65 233.4 525.9 235.55 524.8 236.05 512.95 245.15 500.25 254.85 485.4 266.7 365.55 361.3 351.5 372.55 339.6 382.1 336.75 384.8 335.55 386 334.5 388
L 332.5 391.5 333.05 688.95 335.2 692.8
Q 336.95 695.65 339.65 697.8 342.35 699.85 345.5 700.85 347.5 701.6 533.9 701.4
L 720.15 701.3 724 698.95
Q 727.95 696.6 730.1 692.8
L 732.4 688.95 732.85 391.5 730.95 388
Q 729.95 386 728.7 384.8
M 703.2 366
Q 713.7 374.4 721.05 380.6 728.5 387 729.2 388.15 730.35 390 730.6 395.85 730.85 401.45 731 429
L 731.3 467.15 689.1 467.15 688.55 555.8
Q 688.25 610.35 687.95 628.05 687.65 645.3 686.9 646.95 685.8 649.4 683.05 652.1 680.3 654.85 677.95 655.7
L 677.95 655.85
Q 675.5 656.7 532.45 656.7 441.2 656.7 416.3 656.55 388.4 656.35 386.9 655.55 384.6 654.5 381.95 651.7 379.35 648.9 378.45 646.55 377.6 644.45 377 555.8
L 376.45 467.2 334.3 467.2 334.45 429.05
Q 334.65 401.75 334.9 395.9 335.15 390.05 336.35 388.2 348.55 376.5 362.35 366.05 479.8 272.9 506.55 251.6 523.2 238.45 525.75 237.05 526.85 236.4 528.9 236.05 530.8 235.7 532.8 235.7 534.75 235.7 536.7 236.05 538.65 236.4 539.75 237.05 541.6 238.1 558.95 251.7 607 289.85 703.2 366 Z"/>

<path fill="#FBAE3B" stroke="none" d="
M 721.05 380.6
Q 713.7 374.4 703.2 366 607 289.85 558.95 251.7 541.6 238.1 539.75 237.05 538.65 236.4 536.7 236.05 534.75 235.7 532.8 235.7 530.8 235.7 528.9 236.05 526.85 236.4 525.75 237.05 523.2 238.45 506.55 251.6 479.8 272.9 362.35 366.05 348.55 376.5 336.35 388.2 335.15 390.05 334.9 395.9 334.65 401.75 334.45 429.05
L 334.3 467.2 376.45 467.2 377 555.8
Q 377.6 644.45 378.45 646.55 379.35 648.9 381.95 651.7 384.6 654.5 386.9 655.55 388.4 656.35 416.3 656.55 441.2 656.7 532.45 656.7 675.5 656.7 677.95 655.85
L 677.95 655.7
Q 680.3 654.85 683.05 652.1 685.8 649.4 686.9 646.95 687.65 645.3 687.95 628.05 688.25 610.35 688.55 555.8
L 689.1 467.15 731.3 467.15 731 429
Q 730.85 401.45 730.6 395.85 730.35 390 729.2 388.15 728.5 387 721.05 380.6
M 674.85 400.65
Q 683.8 407.95 684.95 410 686.3 412.2 686.45 427.15 686.65 442.05 686.4 528.5
L 686.15 644.1 684.35 647.75
Q 682.6 651.35 679.3 653.2
L 676.2 655.1 389.95 655.1 386.4 653.2
Q 382.85 651.45 381.05 647.75
L 379.1 644.1 378.95 528.5
Q 378.75 442.05 378.95 427.15 379.1 412.2 380.35 410 381.5 407.95 390.45 400.65 398.45 394.05 434.6 365.55
L 488.95 322.6
Q 508.5 306.9 526.55 294.05 529.45 292.6 532.65 292.6 535.9 292.6 538.75 294.05 557.65 307.5 576.45 322.6
L 630.7 365.55
Q 666.85 394.05 674.85 400.65 Z"/>

<path fill="#FDD16B" stroke="none" d="
M 531.45 350.45
Q 529 350.7 528.2 350.95 526.5 351.6 522.6 354.45 517.45 358.15 481.75 386.65
L 437.9 421.55
Q 430.15 427.75 427.8 430.15 425.55 432.4 424.5 434.9 423.5 437.5 423.4 449.95 423.25 461.6 423.65 519.6 424.05 576.35 424.35 588.55 424.65 601.55 425.65 603.5 427 606.15 429.2 607.85 431.55 609.55 434.45 610.05 435.8 610.2 465.3 610.3 497 610.4 535.05 610.35 604.6 610.15 618.5 609.9 633.4 609.65 635.15 608.65 637.4 607.25 639.3 604.9 640.55 603.2 640.85 598.3 641.15 593.2 641.5 568.95 642.1 524.55 642.1 486.3 642.1 451 641.95 444.05 641.75 436.25 640.65 434.05 639.7 431.95 633.15 426.35 626.6 420.75 605.85 404.2
L 557 365.25
Q 548.5 358.3 538.6 351.5 536.15 350.15 531.45 350.45
M 588.05 448.95
Q 594.2 454.15 595 455.7 596 457.8 596.3 465.8 596.55 474.4 596.55 507.35 596.55 547.55 595.9 554.5 595.45 559.15 594.35 561 593.7 562.05 591.35 563.45
L 591.35 563.4
Q 589.4 564.7 581.6 564.9 574.2 565.15 533.15 565.15 495.1 565.15 485.7 564.85 476.7 564.65 474.75 563.7 472.1 562.4 471.4 561.4 470.15 559.75 469.7 555.1 469 548.5 469 507.55 469 473.7 469.25 465.8 469.5 457.75 470.45 455.8 472 452.85 497.2 432.95 519.35 415.55 524.55 411.95 529.75 408.3 532.75 408.3 535.7 408.3 540.9 411.9 546.1 415.55 568.25 432.95 582.05 443.8 588.05 448.95 Z"/>

<path fill="#FDE485" stroke="none" d="
M 595 455.7
Q 594.2 454.15 588.05 448.95 582.05 443.8 568.25 432.95 546.1 415.55 540.9 411.9 535.7 408.3 532.75 408.3 529.75 408.3 524.55 411.95 519.35 415.55 497.2 432.95 472 452.85 470.45 455.8 469.5 457.75 469.25 465.8 469 473.7 469 507.55 469 548.5 469.7 555.1 470.15 559.75 471.4 561.4 472.1 562.4 474.75 563.7 476.7 564.65 485.7 564.85 495.1 565.15 533.15 565.15 574.2 565.15 581.6 564.9 589.4 564.7 591.35 563.4
L 591.35 563.45
Q 593.7 562.05 594.35 561 595.45 559.15 595.9 554.5 596.55 547.55 596.55 507.35 596.55 474.4 596.3 465.8 596 457.8 595 455.7 Z"/>
</g>
</defs>

<g transform="matrix( 1, 0, 0, 1, 0,0) ">
<use xlink:href="#Layer3_0_FILL"/>
</g>

<g transform="matrix( 1, 0, 0, 1, 0,0) ">
<use xlink:href="#Layer2_0_FILL"/>
</g>

<g transform="matrix( 1, 0, 0, 1, 0,0) ">
<use xlink:href="#Layer1_0_FILL"/>
</g>

<g transform="matrix( 1, 0, 0, 1, 0,0) ">
<use xlink:href="#Layer0_0_FILL"/>
</g>
</svg>
