<?xml version="1.0" encoding="utf-8"?>
<!-- Generator: flash2svg, http://dissentgraphics.com/tools/flash2svg -->
<svg id="Wirecast" image-rendering="optimizeSpeed" baseProfile="basic" version="1.1" style="background-color:#FFFFFF" x="0px" y="0px" width="1024px" height="1024px" viewBox="0 0 1024 1024" enable-background="new 0 0 1024 1024" xmlns="http://www.w3.org/2000/svg" xmlns:xlink="http://www.w3.org/1999/xlink">
  <defs transform="matrix(1 0 0 1 0 0) "/>
  <g id="shadow">
    <g id="shape">
      <path id="path" fill="#000000" fill-opacity="0.09803921568627451" d="M969.6,351.25 Q961,330.4 950.2,310.4 C946.15,302.85 941.85,295.35 937.3,288 917.75,256.3 893.9,226.35 865.75,198.2 773.6,106.05 662.3,59.95 531.95,59.95 401.6,59.95 290.35,106.05 198.2,198.2 106.05,290.35 59.95,401.6 59.95,531.95 59.95,662.3 106.05,773.6 198.2,865.75 290.35,957.9 401.6,1003.95 531.95,1003.95 662.3,1003.95 773.6,957.9 865.75,865.75 916.5,814.95 953.3,758.35 976.1,696 994.65,645.15 1003.95,590.5 1003.95,531.95 1003.95,487.05 998.5,444.4 987.55,404 986.3,399.45 985,394.9 983.65,390.4 979.55,377.1 974.85,364.05 969.6,351.25z"/>
    </g>
  </g>
  <g id="bg">
    <g id="shape2">
      <path id="path1" fill="#4B4C6F" fill-opacity="1" d="M969.7,392 C968.6,387.65 967.35,383 966.05,378.4 965.05,375 964.05,371.55 962.9,367.9 L962.875,367.875 L785,190 258,188 241,835 369.35,963.35 C406.1,974.6 444.15,981.2 484.1,983.3 484.25,983.3 484.35,983.3 484.5,983.3 493,983.75 501.1,984 509,984 510.2,984 511.1,984 512,984 522.3,984 532.5,983.7 542.1,983.2 544.6,983.05 546.85,982.9 549.05,982.75 569.25,981.3 588.95,978.7 607.75,975.05 615.7,973.5 623.55,971.75 631.15,969.9 711.95,949.6 783.3,908.3 845.8,845.8 894.4,797.2 930.2,743.3 953.15,684 971.6,636.35 981.8,585.2 983.7,530.5 983.9,524.45 984,518.25 984,512 984,511.35 984,510.65 984,510 984,509.65 984,509.35 984,509 983.8,468.35 979.05,429.5 969.7,392z"/>
      <path id="path2" fill="#5F5C8E" fill-opacity="1" d="M962.9,367.9 C961.3,362.75 959.5,357.4 957.6,352.05 951.15,333.8 943.45,316 934.45,298.4 930.65,291 926.5,283.45 922.15,276 901.85,241.5 876.35,208.8 845.8,178.25 773.2,105.65 688.65,61.6 592.15,46.2 575.9,43.6 559.35,41.8 542.1,40.85 532.4,40.3 522.25,40 512,40 502.65,40 493.4,40.25 484.1,40.75 365.75,46.85 263.8,92.7 178.25,178.25 Q40,316.5 40,512 C40,642.35 86.1,753.65 178.25,845.8 234.95,902.45 298.8,941.7 369.35,963.35 L241,835 258,188 785,190 962.875,367.875"/>
    </g>
  </g>
  <g id="Calque.__203">
    <g id="Symbole.__2020_1" overflow="visible">
      <g id="Calque.__220">
        <g id="Symbole.__2024_2" overflow="visible">
          <g id="Calque.__221">
            <g id="shape86">
              <path id="path80" fill="#28293C" fill-opacity="1" d="M774.621,178.281 C768.915,172.574 761.989,169.697 753.941,169.697 L678.879,169.697 678.879,845.303 753.941,845.303 C761.989,845.303 768.915,842.426 774.621,836.719 780.328,831.013 783.205,824.087 783.205,816.039 L783.205,198.961 Q783.205,186.865 774.621,178.281z M740.382,209.447 C746.869,209.447 750.137,212.715 750.137,219.202 L750.137,287.045 C750.137,293.532 746.869,296.8 740.382,296.8 L711.119,296.8 C704.632,296.8 701.364,293.532 701.364,287.045 L701.364,219.202 C701.364,212.715 704.632,209.447 711.119,209.447 L740.382,209.447z M740.382,336.452 C746.869,336.452 750.137,339.72 750.137,346.207 L750.137,414.051 C750.137,420.537 746.869,423.805 740.382,423.805 L711.119,423.805 C704.632,423.805 701.364,420.537 701.364,414.051 L701.364,346.207 C701.364,339.72 704.632,336.452 711.119,336.452 L740.382,336.452z M740.382,463.458 C746.869,463.458 750.137,466.726 750.137,473.212 L750.137,541.056 C750.137,547.543 746.869,550.811 740.382,550.811 L711.119,550.811 C704.632,550.811 701.364,547.543 701.364,541.056 L701.364,473.212 C701.364,466.726 704.632,463.458 711.119,463.458 L740.382,463.458z M740.382,590.463 C746.869,590.463 750.137,593.731 750.137,600.218 L750.137,668.061 C750.137,674.548 746.869,677.816 740.382,677.816 L711.119,677.816 C704.632,677.816 701.364,674.548 701.364,668.061 L701.364,600.218 C701.364,593.731 704.632,590.463 711.119,590.463 L740.382,590.463z M750.137,795.067 C750.137,801.554 746.869,804.821 740.382,804.821 L711.119,804.821 C704.632,804.821 701.364,801.554 701.364,795.067 L701.364,727.223 C701.364,720.736 704.632,717.469 711.119,717.469 L740.382,717.469 C746.869,717.469 750.137,720.736 750.137,727.223 L750.137,795.067z M243.579,178.281 C237.872,183.987 234.995,190.913 234.995,198.961 L234.995,816.039 C234.995,824.087 237.872,831.013 243.579,836.719 249.285,842.426 256.211,845.303 264.259,845.303 L339.321,845.303 339.321,169.697 264.259,169.697 C256.211,169.697 249.285,172.574 243.579,178.281z M305.521,204.277 C312.008,204.277 315.275,207.545 315.275,214.032 L315.275,281.875 C315.275,288.362 312.008,291.63 305.521,291.63 L276.257,291.63 C269.77,291.63 266.502,288.362 266.502,281.875 L266.502,214.032 C266.502,207.545 269.77,204.277 276.257,204.277 L305.521,204.277z M305.521,331.282 C312.008,331.282 315.275,334.55 315.275,341.037 L315.275,408.881 C315.275,415.367 312.008,418.635 305.521,418.635 L276.257,418.635 C269.77,418.635 266.502,415.367 266.502,408.881 L266.502,341.037 C266.502,334.55 269.77,331.282 276.257,331.282 L305.521,331.282z M305.521,458.288 C312.008,458.288 315.275,461.556 315.275,468.042 L315.275,535.886 C315.275,542.373 312.008,545.641 305.521,545.641 L276.257,545.641 C269.77,545.641 266.502,542.373 266.502,535.886 L266.502,468.042 C266.502,461.556 269.77,458.288 276.257,458.288 L305.521,458.288z M305.521,585.293 C312.008,585.293 315.275,588.561 315.275,595.048 L315.275,662.891 C315.275,669.378 312.008,672.646 305.521,672.646 L276.257,672.646 C269.77,672.646 266.502,669.378 266.502,662.891 L266.502,595.048 C266.502,588.561 269.77,585.293 276.257,585.293 L305.521,585.293z M305.521,712.299 C312.008,712.299 315.275,715.566 315.275,722.053 L315.275,789.897 C315.275,796.384 312.008,799.651 305.521,799.651 L276.257,799.651 C269.77,799.651 266.502,796.384 266.502,789.897 L266.502,722.053 C266.502,715.566 269.77,712.299 276.257,712.299 L305.521,712.299z"/>
              <path id="path81" fill="#101119" fill-opacity="1" d="M678.879,845.303 L678.879,169.697 339.321,169.697 339.321,845.303 678.879,845.303z"/>
            </g>
          </g>
        </g>
        <g id="Symbole.__2026_2" overflow="visible">
          <g id="Calque.__222">
            <g id="shape87">
              <path id="path82" fill="#CC6699" fill-opacity="1" d="M624.4,237.54 C618.693,231.834 611.768,228.956 603.72,228.956 L414.48,228.956 C406.432,228.956 399.507,231.834 393.8,237.54 Q385.216,246.124 385.216,258.22 L385.216,447.46 C385.216,449.216 385.362,450.923 385.606,452.338 L472.813,365.082 C476.471,361.424 480.129,360.254 483.445,361.424 485.494,362.156 487.25,363.326 489.005,365.082 L600.647,476.724 603.72,476.724 C611.768,476.724 618.693,473.846 624.4,468.14 630.106,462.434 632.984,455.508 632.984,447.46 L632.984,258.22 C632.984,250.173 630.106,243.247 624.4,237.54z M584.65,311.481 C591.819,318.65 595.429,327.332 595.429,337.525 595.429,347.719 591.819,356.401 584.65,363.57 577.48,370.74 568.798,374.349 558.605,374.349 548.411,374.349 539.73,370.74 532.56,363.57 525.39,356.401 521.781,347.719 521.781,337.525 521.781,327.332 525.39,318.65 532.56,311.481 539.73,304.311 548.411,300.702 558.605,300.702 568.798,300.702 577.48,304.311 584.65,311.481z M624.4,546.909 C618.693,541.202 611.768,538.325 603.72,538.325 L414.48,538.325 C406.432,538.325 399.507,541.202 393.8,546.909 393.215,547.494 392.678,548.128 392.142,548.762 387.508,554.078 385.216,560.37 385.216,567.589 L385.216,756.829 C385.216,764.876 388.094,771.802 393.8,777.508 399.507,783.215 406.432,786.092 414.48,786.092 L603.72,786.092 C611.768,786.092 618.693,783.215 624.4,777.508 630.106,771.802 632.984,764.876 632.984,756.829 L632.984,567.589 C632.984,559.541 630.106,552.615 624.4,546.909z"/>
              <path id="path83" fill="#DB80B0" fill-opacity="1" d="M584.65,311.481 C577.48,304.311 568.798,300.702 558.605,300.702 548.411,300.702 539.73,304.311 532.56,311.481 525.39,318.65 521.781,327.332 521.781,337.525 521.781,347.719 525.39,356.401 532.56,363.57 539.73,370.74 548.411,374.349 558.605,374.349 568.798,374.349 577.48,370.74 584.65,363.57 591.819,356.401 595.429,347.719 595.429,337.525 595.429,327.332 591.819,318.65 584.65,311.481z"/>
              <path id="path84" fill="#693D54" fill-opacity="1" d="M489.005,365.082 C487.25,363.326 485.494,362.156 483.445,361.424 L483.445,476.724 600.647,476.724 489.005,365.082z"/>
              <path id="path85" fill="#573246" fill-opacity="1" d="M483.445,361.424 C480.129,360.254 476.471,361.424 472.813,365.082 L385.606,452.338 C386.631,458.483 389.362,463.702 393.8,468.14 399.507,473.846 406.432,476.724 414.48,476.724 L483.445,476.724 483.445,361.424z"/>
            </g>
          </g>
        </g>
      </g>
    </g>
  </g>
  <g id="Calque.__204">
    <g id="shape6">
      <path id="path3" fill="#000000" fill-opacity="0.2" d="M810.25,498.55 C810.2,498.5 810.2,498.5 810.2,498.45 809.45,497.75 808.65,497 807.9,496.25 804.5,493 800.45,491.4 795.75,491.45 791.05,491.5 787.05,493.25 783.75,496.65 780.4,500.05 778.8,504.05 778.85,508.8 778.9,513.5 780.65,517.5 784.05,520.85 784.7,521.5 785.4,522.1 786,522.75 L786.05,522.85 C828.95,565.3 850.5,616.5 850.7,676.45 850.7,681.1 852.4,685.1 855.75,688.5 859.15,691.85 863.15,693.5 867.85,693.45 872.6,693.45 876.6,691.8 879.9,688.45 883.3,685.05 885,681 885,676.35 884.75,606.95 859.85,547.7 810.25,498.55z M757.25,549.75 C756.7,549.25 756.2,548.75 755.7,548.25 752.2,545 748.15,543.45 743.45,543.55 738.75,543.65 734.75,545.4 731.5,548.85 728.25,552.3 726.65,556.35 726.75,561.05 726.85,565.75 728.6,569.75 732.1,573.1 732.4,573.4 732.7,573.65 733,574 768.3,609.3 786.05,651.85 786.25,701.75 786.25,706.45 787.9,710.45 791.3,713.8 794.65,717.15 798.7,718.8 803.45,718.75 808.1,718.75 812.1,717.1 815.5,713.75 818.85,710.4 820.5,706.35 820.5,701.6 820.3,642.35 799.25,591.7 757.25,549.75z M708.25,598.8 C707.8,598.35 707.4,597.95 706.95,597.5 703.6,594.15 699.6,592.5 694.85,592.55 690.15,592.5 686.15,594.15 682.75,597.5 679.4,600.9 677.7,604.95 677.75,609.65 677.7,614.4 679.4,618.4 682.75,621.75 683.15,622.2 683.55,622.6 684,623.05 712.7,651.75 727.2,686.45 727.4,727.05 727.45,731.75 729.1,735.8 732.45,739.15 735.85,742.5 739.85,744.15 744.55,744.1 749.3,744.1 753.3,742.45 756.65,739.05 760,735.7 761.65,731.65 761.65,726.9 761.45,676.95 743.65,634.2 708.25,598.8z M699.85,746 C699.85,698.75 683.1,658.35 649.65,624.9 616.25,591.45 575.85,574.75 528.6,574.75 481.35,574.75 440.95,591.45 407.5,624.9 Q357.35,675.05 357.35,746 C357.35,793.25 374.1,833.65 407.5,867.05 440.95,900.5 481.35,917.25 528.6,917.25 575.85,917.25 616.25,900.5 649.65,867.05 683.1,833.65 699.85,793.25 699.85,746z"/>
    </g>
  </g>
  <g id="Calque.__205">
    <g id="Symbole.__2022_1" overflow="visible">
      <g id="Calque.__223">
        <g id="Symbole.__2028_2" overflow="visible">
          <g id="Calque.__224">
            <g id="shape88">
              <path id="path86" fill="#E4E4E4" fill-opacity="1" d="M630.155,603.446 C596.745,570.037 556.361,553.307 509.1,553.307 461.839,553.307 421.455,570.037 387.996,603.446 Q337.857,653.634 337.857,724.55 C337.857,771.811 354.587,812.195 387.996,845.605 421.455,879.063 461.839,895.793 509.1,895.793 556.361,895.793 596.745,879.063 630.155,845.605 663.613,812.195 680.343,771.811 680.343,724.55 680.343,677.289 663.613,636.905 630.155,603.446z M610.451,623.151 C638.495,651.146 652.493,684.946 652.493,724.55 652.493,764.154 638.495,797.954 610.451,825.901 582.504,853.945 548.704,867.943 509.1,867.943 469.496,867.943 435.696,853.945 407.652,825.901 379.705,797.954 365.707,764.154 365.707,724.55 365.707,684.946 379.705,651.146 407.652,623.151 435.696,595.155 469.496,581.157 509.1,581.157 548.704,581.157 582.504,595.155 610.451,623.151z"/>
              <path id="path87" fill="#282A3B" fill-opacity="1" d="M610.451,623.151 C582.504,595.155 548.704,581.157 509.1,581.157 469.496,581.157 435.696,595.155 407.652,623.151 379.705,651.146 365.707,684.946 365.707,724.55 365.707,764.154 379.705,797.954 407.652,825.901 435.696,853.945 469.496,867.943 509.1,867.943 548.704,867.943 582.504,853.945 610.451,825.901 638.495,797.954 652.493,764.154 652.493,724.55 652.493,684.946 638.495,651.146 610.451,623.151z"/>
            </g>
          </g>
        </g>
        <g id="Symbole.__2030_2" overflow="visible">
          <g id="Calque.__225">
            <g id="shape89">
              <path id="path88" fill="#7BC9CA" fill-opacity="1" d="M535.291,698.31 Q524.464,687.482 509.1,687.482 C498.858,687.482 490.127,691.092 482.86,698.31 475.642,705.577 472.032,714.308 472.032,724.55 472.032,734.792 475.642,743.523 482.86,750.741 490.127,758.008 498.858,761.618 509.1,761.618 519.342,761.618 528.073,758.008 535.291,750.741 542.558,743.523 546.168,734.792 546.168,724.55 546.168,714.308 542.558,705.577 535.291,698.31z M517.391,716.21 C519.684,718.502 520.854,721.282 520.854,724.55 520.854,727.671 519.781,730.354 517.635,732.598 517.587,732.695 517.489,732.793 517.391,732.841 515.099,735.134 512.368,736.304 509.1,736.304 505.832,736.304 503.052,735.134 500.76,732.841 498.467,730.549 497.346,727.818 497.346,724.55 497.346,721.282 498.467,718.502 500.76,716.21 500.857,716.161 500.955,716.063 501.004,715.966 503.296,713.869 505.979,712.796 509.1,712.796 512.368,712.796 515.099,713.917 517.391,716.21z"/>
              <path id="path89" fill="#FFFFFF" fill-opacity="1" d="M517.391,716.21 C515.099,713.917 512.368,712.796 509.1,712.796 505.979,712.796 503.296,713.869 501.004,715.966 500.955,716.063 500.857,716.161 500.76,716.21 498.467,718.502 497.346,721.282 497.346,724.55 497.346,727.818 498.467,730.549 500.76,732.841 503.052,735.134 505.832,736.304 509.1,736.304 512.368,736.304 515.099,735.134 517.391,732.841 517.489,732.793 517.587,732.695 517.635,732.598 519.781,730.354 520.854,727.671 520.854,724.55 520.854,721.282 519.684,718.502 517.391,716.21z"/>
            </g>
          </g>
        </g>
        <g id="Symbole.__2032_2" overflow="visible">
          <g id="Calque.__226">
            <g id="shape90">
              <path id="path90" fill="#434962" fill-opacity="1" d="M420.105,635.083 L437.322,652.299 C457.173,632.644 481.072,622.792 509.067,622.792 537.21,622.792 561.157,632.693 581.008,652.543 600.907,672.443 610.857,696.439 610.857,724.533 610.857,752.577 601.005,776.476 581.301,796.229 L598.517,813.495 C623.002,788.962 635.244,759.308 635.244,724.533 635.244,689.66 622.904,659.908 598.274,635.278 573.692,610.696 543.94,598.405 509.067,598.405 474.341,598.405 444.687,610.647 420.105,635.083z M449.028,664.005 L466.293,681.271 C478.438,669.126 493.167,663.03 510.384,663.03 527.601,663.03 542.331,669.126 554.475,681.271 566.717,693.513 572.814,708.242 572.814,725.459 572.814,742.676 566.717,757.357 554.573,769.501 L571.79,786.767 C588.714,769.843 597.201,749.407 597.201,725.459 597.201,701.463 588.714,680.978 571.741,664.005 554.817,647.081 534.381,638.643 510.384,638.643 486.388,638.643 465.952,647.081 449.028,664.005z"/>
            </g>
          </g>
        </g>
        <g id="Symbole.__2034_2" overflow="visible">
          <g id="Calque.__227">
            <g id="shape91">
              <path id="path91" fill="#E4E4E4" fill-opacity="1" d="M788.381,474.856 Q783.26,469.93 776.188,470.027 C771.506,470.076 767.506,471.832 764.19,475.246 760.873,478.612 759.264,482.66 759.313,487.391 759.361,492.073 761.117,496.072 764.531,499.438 765.165,500.072 765.848,500.706 766.482,501.34 L766.531,501.437 C809.403,543.87 830.96,595.082 831.155,655.024 831.155,659.706 832.863,663.706 836.228,667.071 839.593,670.436 843.593,672.095 848.324,672.046 853.055,672.046 857.054,670.388 860.371,667.022 863.736,663.657 865.443,659.609 865.443,654.927 865.199,585.522 840.325,526.263 790.723,477.148 790.674,477.1 790.674,477.1 790.674,477.051 789.893,476.319 789.113,475.588 788.381,474.856z M795.941,692.336 C799.307,688.97 800.965,684.922 800.965,680.191 800.77,620.932 779.7,570.305 737.706,528.36 737.17,527.824 736.682,527.336 736.145,526.848 732.682,523.58 728.634,522.02 723.903,522.117 719.221,522.215 715.222,523.971 711.954,527.433 708.686,530.896 707.125,534.945 707.223,539.627 707.32,544.358 709.076,548.357 712.539,551.674 712.88,551.966 713.173,552.259 713.466,552.6 748.778,587.863 766.531,630.442 766.726,680.337 766.726,685.02 768.384,689.019 771.75,692.384 775.115,695.75 779.163,697.408 783.894,697.359 788.576,697.359 792.576,695.701 795.941,692.336z M663.229,576.109 C659.864,579.474 658.157,583.523 658.206,588.254 658.157,592.985 659.864,596.984 663.229,600.349 663.62,600.788 664.01,601.179 664.449,601.618 693.176,630.345 707.662,665.023 707.857,705.651 707.906,710.333 709.564,714.381 712.929,717.746 716.295,721.063 720.294,722.721 725.025,722.673 729.756,722.673 733.755,721.014 737.121,717.649 740.437,714.284 742.096,710.235 742.096,705.504 741.901,655.512 724.098,612.787 688.689,577.377 688.25,576.938 687.86,576.548 687.421,576.109 684.056,572.744 680.056,571.085 675.325,571.134 670.594,571.085 666.595,572.744 663.229,576.109z"/>
            </g>
          </g>
        </g>
      </g>
    </g>
  </g>
</svg>