<?xml version="1.0" encoding="utf-8"?>
<!-- Generator: flash2svg, http://dissentgraphics.com/tools/flash2svg -->
<svg id="Apps-ScriptDebugger" image-rendering="optimizeSpeed" baseProfile="basic" version="1.1" style="background-color:#FFFFFF" x="0px" y="0px" width="1024px" height="1024px" viewBox="0 0 1024 1024" enable-background="new 0 0 1024 1024" xmlns="http://www.w3.org/2000/svg" xmlns:xlink="http://www.w3.org/1999/xlink">
  <defs transform="matrix(1 0 0 1 0 0) "/>
  <g id="background-circle-shadow">
    <g id="shape">
      <path id="path" fill="#000000" fill-opacity="0.09803921568627451" d="M969.6,351.25 Q961,330.4 950.2,310.4 C946.15,302.85 941.85,295.35 937.3,288 917.75,256.3 893.9,226.35 865.75,198.2 773.6,106.05 662.3,59.95 531.95,59.95 401.6,59.95 290.35,106.05 198.2,198.2 106.05,290.35 59.95,401.6 59.95,531.95 59.95,662.3 106.05,773.6 198.2,865.75 290.35,957.9 401.6,1003.95 531.95,1003.95 662.3,1003.95 773.6,957.9 865.75,865.75 916.5,814.95 953.3,758.35 976.1,696 994.65,645.15 1003.95,590.5 1003.95,531.95 1003.95,487.05 998.5,444.4 987.55,404 986.3,399.45 985,394.9 983.65,390.4 979.55,377.1 974.85,364.05 969.6,351.25z"/>
    </g>
  </g>
  <g id="background-circle">
    <g id="shape2">
      <path id="path1" fill="#CCCCCC" fill-opacity="1" d="M969.7,392 C968.6,387.65 967.35,383 966.05,378.4 965.05,375 964.05,371.55 962.9,367.9 961.3,362.75 959.5,357.4 957.6,352.05 951.15,333.8 943.45,316 934.45,298.4 930.65,291 926.5,283.45 922.15,276 901.85,241.5 876.35,208.8 845.8,178.25 773.2,105.65 688.65,61.6 592.15,46.2 575.9,43.6 559.35,41.8 542.1,40.85 532.4,40.3 522.25,40 512,40 502.65,40 493.4,40.25 484.1,40.75 365.75,46.85 263.8,92.7 178.25,178.25 Q40,316.5 40,512 C40,642.35 86.1,753.65 178.25,845.8 234.95,902.45 298.8,941.7 369.35,963.35 406.1,974.6 444.15,981.2 484.1,983.3 484.25,983.3 484.35,983.3 484.5,983.3 493,983.75 501.1,984 509,984 510.2,984 511.1,984 512,984 522.3,984 532.5,983.7 542.1,983.2 544.6,983.05 546.85,982.9 549.05,982.75 569.25,981.3 588.95,978.7 607.75,975.05 615.7,973.5 623.55,971.75 631.15,969.9 711.95,949.6 783.3,908.3 845.8,845.8 894.4,797.2 930.2,743.3 953.15,684 971.6,636.35 981.8,585.2 983.7,530.5 983.9,524.45 984,518.25 984,512 984,511.35 984,510.65 984,510 984,509.65 984,509.35 984,509 983.8,468.35 979.05,429.5 969.7,392z"/>
    </g>
  </g>
  <g id="object-shadow">
    <g id="shape4">
      <path id="path2" fill="#000000" fill-opacity="0.2" d="M984,509 C984,506.4 983.95,503.8 983.9,501.1 L617,134.2 332.225,638.95 373,836.1 520.825,983.925 Q531.567,983.767 542.1,983.2 C544.6,983.05 546.85,982.9 549.05,982.75 569.25,981.3 588.95,978.7 607.75,975.05 615.7,973.5 623.55,971.75 631.15,969.9 711.95,949.6 783.3,908.3 845.8,845.8 894.4,797.2 930.2,743.3 953.15,684 971.6,636.35 981.8,585.2 983.7,530.5 983.85,525.45 984,520.25 984,515 984,514.05 984,513.05 984,512 984,511.35 984,510.65 984,510 984,509.65 984,509.35 984,509z"/>
    </g>
  </g>
  <g id="Calque.__205">
    <g id="shape6">
      <path id="path3" fill="#000000" fill-opacity="1" d="M619.1,134.95 Q615.95,133.35 612.6,134.45 C610.4,135.15 608.75,136.55 607.7,138.7 L584.35,184.35 C583.3,186.45 583.1,188.6 583.85,190.8 584.55,193.05 585.95,194.7 588.1,195.75 590.15,196.8 592.3,197 594.5,196.3 596.75,195.55 598.4,194.15 599.45,192.1 L622.8,146.4 C623.85,144.3 624.05,142.15 623.35,139.9 622.6,137.7 621.15,136.05 619.1,134.95z M401.05,139.9 C400.05,142 399.95,144.15 400.75,146.4 L416.3,190.1 C417.05,192.25 418.5,193.85 420.65,194.85 422.8,195.85 424.95,195.95 427.15,195.2 429.35,194.45 430.95,193 431.95,190.85 432.95,188.7 433.05,186.55 432.25,184.35 L416.7,140.7 C415.95,138.45 414.5,136.85 412.4,135.85 410.25,134.85 408.05,134.75 405.9,135.5 403.65,136.3 402.05,137.75 401.05,139.9z"/>
    </g>
  </g>
  <g id="object">
    <g id="shape10">
      <path id="path6" fill="#000000" fill-opacity="1" d="M710.2,772.1 Q792.3,680.15 792.3,549.95 C792.3,463.2 764.95,389.1 710.2,327.75 655.45,266.45 589.4,235.8 512,235.8 434.55,235.8 368.45,266.45 313.7,327.75 259,389.1 231.65,463.2 231.65,549.95 231.65,636.75 259,710.8 313.7,772.1 368.45,833.45 434.55,864.15 512,864.15 589.4,864.15 655.45,833.45 710.2,772.1z"/>
    </g>
  </g>
  <g id="Calque.__206">
    <g id="shape12">
      <path id="path7" fill="#000000" fill-opacity="1" d="M700.45,317.95 C700.65,314.45 700.75,310.95 700.75,307.4 700.75,261.85 682.35,223 645.5,190.8 608.6,158.6 564.1,142.5 512,142.5 459.85,142.5 415.4,158.6 378.5,190.8 Q323.2,239.1 323.2,307.4 C323.2,311.05 323.3,314.7 323.6,317.95 L700.45,317.95z"/>
    </g>
  </g>
  <g id="Calque.__207">
    <g id="shape14">
      <path id="path8" fill="#FFFFFF" fill-opacity="1" d="M659.65,279.75 Q659.65,271.7 654,266.05 C650.15,262.2 645.55,260.3 640.2,260.3 634.85,260.3 630.25,262.2 626.5,266.05 622.7,269.8 620.8,274.4 620.8,279.75 620.8,285.1 622.7,289.7 626.5,293.45 630.25,297.25 634.85,299.15 640.2,299.15 645.55,299.15 650.15,297.25 654,293.45 657.75,289.7 659.65,285.1 659.65,279.75z"/>
    </g>
  </g>
  <g id="Calque.__208">
    <g id="shape16">
      <path id="path9" fill="#7F212A" fill-opacity="1" d="M811.45,485.4 Q811.05,489.9 810.5,494.4 C802.45,560.5 773.85,618.1 724.7,667.2 677.85,714.05 623.3,742.25 561.05,751.75 561.1,751.9 561.15,752.05 561.2,752.2 564.15,760.35 567.3,768.45 570.55,776.5 583,807.3 597.5,837.25 614,866.4 776.75,740.5 843.35,616.5 813.85,494.4 813.1,491.4 812.3,488.4 811.45,485.4z M299.2,667.2 C248.15,616.15 219.3,555.95 212.6,486.55 178.3,611.2 244.2,737.85 410.35,866.4 426.4,838.05 440.55,808.95 452.8,779.05 456.45,770 460,760.95 463.35,751.8 462.3,751.65 461.25,751.5 460.2,751.3 399.05,741.4 345.35,713.35 299.2,667.2z"/>
      <path id="path10" fill="#B0333F" fill-opacity="1" d="M810.5,494.4 Q811.05,489.9 811.45,485.4 C808.4,474.6 804.65,463.85 800.15,453.1 781.1,407.75 748.7,362.7 703,317.95 L533.05,332.05 C529.85,332.9 527,334.4 524.45,336.6 520.4,340.1 518.3,344.35 518.25,349.35 517.35,357.45 516.55,365.5 515.9,373.55 514.75,387.15 513.8,400.6 513.15,413.95 513.05,417 512.9,420 512.75,423.05 512.5,429.55 512.3,436.05 512.2,442.5 512.05,435.9 511.85,429.3 511.6,422.7 511.45,419.75 511.35,416.85 511.2,413.95 510.55,400.6 509.7,387.15 508.55,373.55 507.8,365.5 507,357.45 506.15,349.35 506.1,344.35 504,340.1 499.95,336.6 497.4,334.4 494.5,332.9 491.25,332.05 L321.35,317.95 C278.95,359.55 248,401.4 228.55,443.45 223.25,454.85 218.8,466.3 215.2,477.75 214.3,480.7 213.45,483.6 212.6,486.55 219.3,555.95 248.15,616.15 299.2,667.2 345.35,713.35 399.05,741.4 460.2,751.3 461.25,751.5 462.3,751.65 463.35,751.8 463.4,751.65 463.45,751.45 463.5,751.3 470.65,731.75 477,711.85 482.6,691.65 L482.6,691.55 C486.15,678.6 489.45,665.5 492.4,652.25 499.65,619.35 504.9,585.6 508.25,551 510.4,528.55 511.75,505.75 512.2,482.6 512.65,505.8 514,528.65 516.2,551.1 519.5,585.6 524.8,619.3 532.05,652.2 533.65,659.55 535.35,666.85 537.2,674.15 538.65,679.9 540.2,685.7 541.8,691.45 547.35,711.9 553.8,732 561.05,751.75 623.3,742.25 677.85,714.05 724.7,667.2 773.85,618.1 802.45,560.5 810.5,494.4z"/>
    </g>
  </g>
  <g id="Calque.__209">
    <g id="shape22">
      <path id="path13" fill="#000000" fill-opacity="0.2" d="M513.05,347.7 Q512.55,347.7 512,347.7 C511.75,347.7 511.55,347.7 511.35,347.7 510.45,347.65 509.55,347.7 508.6,347.75 L508.35,347.75 C464.2,348.55 426.35,364.7 394.85,396.2 362.5,428.55 346.35,467.6 346.35,513.35 346.35,559.1 362.5,598.1 394.85,630.45 419.95,655.55 449.1,670.95 482.3,676.6 485.65,677.15 489,677.6 492.45,677.95 L492.35,677.95 C498.7,678.7 505.25,679.05 512,679.05 518.85,679 525.6,678.6 532.25,677.9 L532.35,677.9 532.45,677.85 C535.3,677.5 538.1,677.1 540.95,676.65 L541.35,676.65 543.95,676.15 543.5,676.2 C562.8,672.65 580.75,665.85 597.3,655.7 608.55,648.85 619.15,640.4 629.1,630.45 661.45,598.1 677.65,559.1 677.7,513.35 677.65,467.6 661.45,428.55 629.1,396.2 612.05,379.15 593.2,366.65 572.5,358.7 571.95,358.45 571.4,358.25 570.9,358.05 L570.4,357.9 C553.45,351.55 535.3,348.15 516,347.75 515,347.7 514,347.65 513.05,347.7z M553.45,406.75 C567.8,412.3 580.85,421 592.6,432.75 614.85,455 626,481.9 626,513.35 626,544.8 614.85,571.65 592.6,593.95 585.6,600.9 578.15,606.8 570.3,611.65 L570.4,611.65 C559.15,618.5 546.95,623.1 533.9,625.45 533.15,625.5 532.4,625.65 531.65,625.85 529.95,626.1 528.25,626.35 526.5,626.55 526.4,626.55 526.3,626.55 526.25,626.55 521.6,627.1 516.85,627.35 512,627.35 507.15,627.3 502.45,627.05 497.9,626.55 L497.75,626.55 C495.5,626.35 493.3,626.05 491.1,625.7 L491.05,625.7 C468.45,621.7 448.55,611.1 431.4,593.95 409.1,571.65 397.95,544.8 398,513.35 397.95,481.9 409.1,455 431.4,432.75 453.05,411.1 479.1,399.95 509.55,399.4 L510.25,399.35 C510.6,399.35 511,399.35 511.35,399.35 511.55,399.35 511.75,399.35 512,399.35 512.35,399.35 512.7,399.35 513.05,399.35 513.45,399.35 513.85,399.35 514.25,399.35 L514.9,399.4 C528.3,399.65 540.85,401.95 552.6,406.4 L553.45,406.75z M553.15,472.1 C541.8,460.75 528.1,455.05 512,455.05 495.9,455.05 482.15,460.75 470.75,472.1 459.4,483.5 453.7,497.25 453.7,513.35 453.7,529.45 459.4,543.15 470.75,554.5 482.15,565.9 495.9,571.6 512,571.6 528.1,571.6 541.8,565.9 553.15,554.5 564.55,543.15 570.25,529.45 570.25,513.35 570.25,497.25 564.55,483.5 553.15,472.1z"/>
    </g>
  </g>
</svg>