
<svg xmlns="http://www.w3.org/2000/svg" version="1.1" xmlns:xlink="http://www.w3.org/1999/xlink" preserveAspectRatio="none" x="0px" y="0px" width="1024px" height="1024px" viewBox="0 0 1024 1024">
<defs>
<g id="Layer5_0_FILL">
<path fill="#000000" fill-opacity="0.09803921568627451" stroke="none" d="
M 969.6 351.25
Q 961 330.4 950.2 310.4 944.1 299.05 937.3 288 907.95 240.45 865.75 198.2 727.5 59.95 531.95 59.95 336.45 59.95 198.2 198.2 59.95 336.45 59.95 531.95 59.95 727.5 198.2 865.75 336.45 1003.95 531.95 1003.95 727.5 1003.95 865.75 865.75 941.9 789.55 976.1 696 1003.95 619.75 1003.95 531.95 1003.95 464.6 987.55 404 985.7 397.15 983.65 390.4 977.5 370.45 969.6 351.25 Z"/>
</g>

<g id="Layer4_0_FILL">
<path fill="#DD4130" stroke="none" d="
M 969.7 392
Q 967.95 385.15 966.05 378.4 964.52578125 373.114453125 962.85 367.85 960.3787109375 359.903125 957.6 352.05 947.85 324.5 934.45 298.4 928.65 287.05 922.15 276 891.5 224 845.8 178.25 736.8 69.25 592.15 46.2 567.65 42.3 542.1 40.85 527.2 40 512 40 497.9 40 484.1 40.75 306.55 49.95 178.25 178.25 40 316.5 40 512 40 707.55 178.25 845.8 263.0400390625 930.55703125 369.35 963.35 423.8880859375 980.1630859375 484.1 983.3 484.3 983.3 484.5 983.3 496.65 983.9 509 984 510.5 984 512 984 527.25 984 542.1 983.2 545.6 983 549.05 982.75 579.1 980.6 607.75 975.05 619.55 972.75 631.15 969.9 751.75 939.85 845.8 845.8 918.7 772.85 953.15 684 980.9 612.4 983.7 530.5 984 521.3 984 512 984 511 984 510 984 509.5 984 509 983.65 447.7 969.7 392 Z"/>
</g>

<g id="Layer3_0_FILL">
<path fill="#000000" fill-opacity="0.2" stroke="none" d="
M 953.15 684
Q 958.4908203125 670.219921875 962.9 656.05
L 634.3 327.45 312 446 68.55 346.1
Q 40 423.1515625 40 512 40 565.8705078125 50.5 615.4
L 408.6 973.5
Q 445.1794921875 981.272265625 484.1 983.3 484.3 983.3 484.5 983.3 496.65 983.9 509 984 510.5 984 512 984 527.25 984 542.1 983.2 545.6 983 549.05 982.75 579.1 980.6 607.75 975.05 619.55 972.75 631.15 969.9 751.75 939.85 845.8 845.8 918.7 772.85 953.15 684 Z"/>
</g>

<g id="Layer0_0_FILL">
<path fill="#FFFFFF" stroke="none" d="
M 40.05 487.05
Q 40 487.75 40 488.4
L 307.25 596.95
Q 318.55 601.55 329.85 596.95
L 615 481.15
Q 626.5 476.45 631.35 465 636.15 453.5 631.5 442.05 626.8 430.6 615.35 425.75 603.85 420.85 592.4 425.55
L 318.55 536.75 46.65 426.35
Q 44.65 437.4 43.25 448.75 42.85 451.6 42.55 454.5 40.8 470.55 40.05 487.05
M 631.5 325.15
Q 626.8 313.7 615.35 308.85 603.85 303.95 592.4 308.65
L 318.55 419.85 77.8 322.1
Q 77.75 322.15 77.75 322.2 75.55 327.2 73.5 332.2 71.3 337.55 69.3 342.9 68.2 345.7 67.15 348.6 61.8 363.2 57.55 378.25 57.5 378.45 57.45 378.6
L 307.25 480.05
Q 318.55 484.65 329.85 480.05
L 615 364.25
Q 626.5 359.55 631.35 348.1 636.15 336.6 631.5 325.15
M 45.25 542.45
Q 43.05 541.55 40.8 541 41.6 555.9 43.2 570.45 45.3 588.6 48.65 606.25 48.9 607.55 49.15 608.8
L 307.8 713.85
Q 319.1 718.45 330.4 713.85
L 615.55 598.05
Q 627.05 593.35 631.9 581.9 636.7 570.4 632.05 558.95 627.35 547.5 615.9 542.65 604.4 537.75 592.95 542.45
L 319.1 653.65 45.25 542.45 Z"/>
</g>
</defs>

<g transform="matrix( 1, 0, 0, 1, 0,0) ">
<use xlink:href="#Layer5_0_FILL"/>
</g>

<g transform="matrix( 1, 0, 0, 1, 0,0) ">
<use xlink:href="#Layer4_0_FILL"/>
</g>

<g transform="matrix( 1, 0, 0, 1, 0,0) ">
<use xlink:href="#Layer3_0_FILL"/>
</g>

<g transform="matrix( 1, 0, 0, 1, 0,0) ">
<use xlink:href="#Layer0_0_FILL"/>
</g>
</svg>
