
<svg xmlns="http://www.w3.org/2000/svg" version="1.1" xmlns:xlink="http://www.w3.org/1999/xlink" preserveAspectRatio="none" x="0px" y="0px" width="1024px" height="1024px" viewBox="0 0 1024 1024">
<defs>
<g id="Layer4_0_FILL">
<path fill="#000000" fill-opacity="0.09803921568627451" stroke="none" d="
M 969.6 351.25
Q 961 330.4 950.2 310.4 944.1 299.05 937.3 288 907.95 240.45 865.75 198.2 727.5 59.95 531.95 59.95 336.45 59.95 198.2 198.2 59.95 336.45 59.95 531.95 59.95 727.5 198.2 865.75 336.45 1003.95 531.95 1003.95 727.5 1003.95 865.75 865.75 941.9 789.55 976.1 696 1003.95 619.75 1003.95 531.95 1003.95 464.6 987.55 404 985.7 397.15 983.65 390.4 977.5 370.45 969.6 351.25 Z"/>
</g>

<g id="Layer3_0_FILL">
<path fill="#FFFFFF" stroke="none" d="
M 969.7 392
Q 967.95 385.15 966.05 378.4 964.52578125 373.114453125 962.85 367.85 960.3787109375 359.903125 957.6 352.05 947.85 324.5 934.45 298.4 928.65 287.05 922.15 276 891.5 224 845.8 178.25 736.8 69.25 592.15 46.2 567.65 42.3 542.1 40.85 527.2 40 512 40 497.9 40 484.1 40.75 306.55 49.95 178.25 178.25 40 316.5 40 512 40 707.55 178.25 845.8 263.0400390625 930.55703125 369.35 963.35 423.8880859375 980.1630859375 484.1 983.3 484.3 983.3 484.5 983.3 496.65 983.9 509 984 510.5 984 512 984 527.25 984 542.1 983.2 545.6 983 549.05 982.75 579.1 980.6 607.75 975.05 619.55 972.75 631.15 969.9 751.75 939.85 845.8 845.8 918.7 772.85 953.15 684 980.9 612.4 983.7 530.5 984 521.3 984 512 984 511 984 510 984 509.5 984 509 983.65 447.7 969.7 392 Z"/>
</g>

<g id="Layer2_0_FILL">
<path fill="#000000" fill-opacity="0.09803921568627451" stroke="none" d="
M 984 510
Q 984 509.5 984 509 983.6716796875 451.500390625 971.35 398.9
L 823 250.55 197 757.75 413.85 974.6
Q 447.955078125 981.4169921875 484.1 983.3 484.3 983.3 484.5 983.3 496.65 983.9 509 984 510.5 984 512 984 527.25 984 542.1 983.2 545.6 983 549.05 982.75 579.1 980.6 607.75 975.05 619.55 972.75 631.15 969.9 751.75 939.85 845.8 845.8 918.7 772.85 953.15 684 980.9 612.4 983.7 530.5 984 521.3 984 512 984 511 984 510 Z"/>
</g>

<g id="Layer1_0_FILL">
<path fill="#78B9E7" stroke="none" d="
M 834.35 276.9
Q 834.35 261.95 823.8 251.35 813.15 240.7 798.15 240.7
L 225.9 240.7
Q 210.95 240.7 200.35 251.35 189.7 261.95 189.7 276.9
L 189.7 735.95
Q 189.7 750.9 200.35 761.55 210.95 772.15 225.9 772.15
L 606.7 772.15 670.1 835.5
Q 672.9 838.3 676.85 838.3 680.85 838.3 683.7 835.5 686.5 832.65 686.5 828.7
L 686.5 772.15 798.15 772.15
Q 813.15 772.15 823.8 761.55 834.35 750.9 834.35 735.95
L 834.35 276.9 Z"/>
</g>

<g id="Layer0_0_FILL">
<path fill="#333333" stroke="none" d="
M 796.8 326.9
Q 751.3 281.25 686.75 281.25 622.25 281.25 576.65 326.9 551.2 352.25 540 383.5
L 540 378.25
Q 539.65 363.8 486.55 339 439.85 317.15 369.75 294.9 302 273.35 252.4 263.95 198.75 253.75 197.35 264.15 192.65 299.6 221.7 359.35 232.05 380.6 243.4 398.05 253.6 413.85 256.35 414.4
L 232.1 414.4
Q 235.2 428.55 241.1 442.05 247.55 456.8 254.6 468 263.35 482.05 274.25 492.75 298.35 516.55 329.95 531.5 340.25 536.4 349.85 539.6 356.95 541.95 358.45 542
L 322.25 542
Q 338.9 598.05 379.85 631.75 405.65 652.85 421.45 661.75 386.45 671.6 345.25 671.6 311.45 671.6 280.85 664.7 295 696.75 331.25 722.25 390.55 763.8 474.7 763.8 496.6 763.8 523.6 759.6 560.6 753.9 597.25 741.45 638.35 727.45 676.3 705.75 721.15 679.9 760.05 643.5 816.8 590.25 834.5 519.5 840.2 496.55 841.6 472.1 842 450.1 842.25 445.75
L 902.25 397.15 863.75 400.75 904 368.15 830.2 375.15
Q 818.75 348.7 796.8 326.9 Z"/>
</g>
</defs>

<g transform="matrix( 1, 0, 0, 1, 0,0) ">
<use xlink:href="#Layer4_0_FILL"/>
</g>

<g transform="matrix( 1, 0, 0, 1, 0,0) ">
<use xlink:href="#Layer3_0_FILL"/>
</g>

<g transform="matrix( 1, 0, 0, 1, 0,0) ">
<use xlink:href="#Layer2_0_FILL"/>
</g>

<g transform="matrix( 1, 0, 0, 1, 0,0) ">
<use xlink:href="#Layer1_0_FILL"/>
</g>

<g transform="matrix( 0.6588287353515625, 0, 0, 0.6588287353515625, 149.35,174.95) ">
<use xlink:href="#Layer0_0_FILL"/>
</g>
</svg>
