<?xml version="1.0" encoding="utf-8"?>
<!-- Generator: flash2svg, http://dissentgraphics.com/tools/flash2svg -->
<svg id="Apps-EpicGameLauncher" image-rendering="optimizeSpeed" baseProfile="basic" version="1.1" style="background-color:#FFFFFF" x="0px" y="0px" width="1024px" height="1024px" viewBox="0 0 1024 1024" enable-background="new 0 0 1024 1024" xmlns="http://www.w3.org/2000/svg" xmlns:xlink="http://www.w3.org/1999/xlink">
  <defs transform="matrix(1 0 0 1 0 0) "/>
  <g id="background-circle-shadow">
    <g id="shape">
      <path id="path" fill="#000000" fill-opacity="0.09803921568627451" d="M969.6,351.25 Q961,330.4 950.2,310.4 C946.15,302.85 941.85,295.35 937.3,288 917.75,256.3 893.9,226.35 865.75,198.2 773.6,106.05 662.3,59.95 531.95,59.95 401.6,59.95 290.35,106.05 198.2,198.2 106.05,290.35 59.95,401.6 59.95,531.95 59.95,662.3 106.05,773.6 198.2,865.75 290.35,957.9 401.6,1003.95 531.95,1003.95 662.3,1003.95 773.6,957.9 865.75,865.75 916.5,814.95 953.3,758.35 976.1,696 994.65,645.15 1003.95,590.5 1003.95,531.95 1003.95,487.05 998.5,444.4 987.55,404 986.3,399.45 985,394.9 983.65,390.4 979.55,377.1 974.85,364.05 969.6,351.25z"/>
    </g>
  </g>
  <g id="background-circle">
    <g id="shape2">
      <path id="path1" fill="#333333" fill-opacity="1" d="M969.7,392 C968.6,387.65 967.35,383 966.05,378.4 965.05,375 964.05,371.55 962.9,367.9 961.3,362.75 959.5,357.4 957.6,352.05 951.15,333.8 943.45,316 934.45,298.4 930.65,291 926.5,283.45 922.15,276 901.85,241.5 876.35,208.8 845.8,178.25 773.2,105.65 688.65,61.6 592.15,46.2 575.9,43.6 559.35,41.8 542.1,40.85 532.4,40.3 522.25,40 512,40 502.65,40 493.4,40.25 484.1,40.75 365.75,46.85 263.8,92.7 178.25,178.25 Q40,316.5 40,512 C40,632.85 79.65,737.35 158.5,824.95 165.1,832.3 171.55,839.1 178.25,845.8 234.95,902.45 298.8,941.7 369.35,963.35 406.1,974.6 444.15,981.2 484.1,983.3 484.25,983.3 484.35,983.3 484.5,983.3 493,983.75 501.1,984 509,984 510.2,984 511.1,984 512,984 522.3,984 532.5,983.7 542.1,983.2 544.6,983.05 546.85,982.9 549.05,982.75 569.25,981.3 588.95,978.7 607.75,975.05 615.7,973.5 623.55,971.75 631.15,969.9 711.95,949.6 783.3,908.3 845.8,845.8 852.65,838.95 859.25,832 865.55,824.95 904.25,781.9 933.45,734.95 953.15,684 971.6,636.35 981.8,585.2 983.7,530.5 983.9,524.45 984,518.25 984,512 984,511.35 984,510.65 984,510 984,509.65 984,509.35 984,509 983.8,468.35 979.05,429.5 969.7,392z"/>
    </g>
  </g>
  <g id="object-shadow">
    <g id="shape4">
      <path id="path2" fill="#000000" fill-opacity="0.2" d="M984,510 C984,509.65 984,509.35 984,509 983.95,497.45 983.5,486.05 982.7,474.7 L767.875,259.875 251.15,721.1 514.05,984 Q528.247,983.946 542.1,983.2 C544.6,983.05 546.85,982.9 549.05,982.75 569.25,981.3 588.95,978.7 607.75,975.05 615.7,973.5 623.55,971.75 631.15,969.9 711.95,949.6 783.3,908.3 845.8,845.8 852.65,838.95 859.25,832 865.55,824.95 904.25,781.9 933.45,734.95 953.15,684 971.6,636.35 981.8,585.2 983.7,530.5 983.9,524.45 984,518.25 984,512 984,511.35 984,510.65 984,510z"/>
    </g>
  </g>
  <g id="Calque.__201">
    <g id="shape6">
      <path id="path3" fill="#E49B30" fill-opacity="1" d="M754.6,240.25 C748.95,234.5 742.3,230.05 734.95,226.95 727.35,223.55 719.2,221.95 710.9,221.95 L313.05,221.95 C304.7,221.95 296.65,223.7 289,226.95 281.6,230.05 275.05,234.5 269.35,240.25 263.65,245.95 259.15,252.5 256.1,259.95 252.7,267.6 251.15,275.85 251.15,284.15 L251.15,721.1 512,822.85 772.8,721.1 772.8,284.15 C772.8,275.85 771.05,267.6 767.8,259.95 764.75,252.5 760.3,245.95 754.6,240.25z M673.55,262.05 L709,262.05 C746.85,262.05 746.85,298.85 746.85,298.85 L746.85,356 706.4,356 706.4,301.75 674.4,301.75 C674.15,301.75 673.65,301.75 673.25,301.9 L673.25,570.95 706.55,570.95 706.55,517.75 746.7,517.75 746.7,573.6 C746.7,610.35 709.75,610.6 709,610.6 L673.55,610.6 C632.45,610.6 632.6,573.4 632.6,573.4 L633.25,579.15 L632.6,573.4 L632.6,298.85 C632.6,262.05 673.55,262.05 673.55,262.05z M735.45,683.3 L735.45,692.05 C735.45,703.8 731.5,706.9 719.4,706.9 L679.85,706.9 C667.85,706.9 663.9,703.95 663.9,692.05 L663.9,690.3 677,687.55 677,695 722.3,695 722.3,680.65 682.35,680.65 C670.3,680.65 666.5,677.6 666.5,665.7 L666.5,658.75 C666.5,647 670.3,643.85 682.35,643.85 L718.7,643.85 C730.1,643.85 734.6,646.85 734.6,657.65 L734.6,659.05 721.45,662 721.45,654.8 679.5,654.8 679.5,668.45 719.4,668.45 C731.5,668.45 735.45,671.4 735.45,683.3z M533.3,298.85 L533.3,419.05 C533.3,455.9 496.2,456.05 495.6,456.05 L459.55,456.05 459.55,610.5 419.05,610.5 419.05,262.05 495.45,262.05 C533.15,262.05 533.3,298.85 533.3,298.85z"/>
      <path id="path4" fill="#FFFFFF" fill-opacity="1" d="M673.55,262.05 C673.55,262.05 632.6,262.05 632.6,298.85 L632.6,573.4 L633.25,579.15 L632.6,573.4 C632.6,573.4 632.45,610.6 673.55,610.6 L709,610.6 C709.75,610.6 746.7,610.35 746.7,573.6 L746.7,517.75 706.55,517.75 706.55,570.95 673.25,570.95 673.25,301.9 C673.65,301.75 674.15,301.75 674.4,301.75 L706.4,301.75 706.4,356 746.85,356 746.85,298.85 C746.85,298.85 746.85,262.05 709,262.05 L673.55,262.05z"/>
      <path id="path7" fill="#FFFFFF" fill-opacity="1" d="M735.45,683.3 C735.45,671.4 731.5,668.45 719.4,668.45 L679.5,668.45 679.5,654.8 721.45,654.8 721.45,662 734.6,659.05 734.6,657.65 C734.6,646.85 730.1,643.85 718.7,643.85 L682.35,643.85 C670.3,643.85 666.5,647 666.5,658.75 L666.5,665.7 C666.5,677.6 670.3,680.65 682.35,680.65 L722.3,680.65 722.3,695 677,695 677,687.55 663.9,690.3 663.9,692.05 C663.9,703.95 667.85,706.9 679.85,706.9 L719.4,706.9 C731.5,706.9 735.45,703.8 735.45,692.05 L735.45,683.3z"/>
      <path id="path10" fill="#FFFFFF" fill-opacity="1" d="M533.3,298.85 C533.3,298.85 533.15,262.05 495.45,262.05 L419.05,262.05 419.05,610.5 459.55,610.5 459.55,456.05 495.6,456.05 C496.2,456.05 533.3,455.9 533.3,419.05 L533.3,298.85z M492.7,301.6 L492.7,416.4 459.5,416.4 459.5,301.6 492.7,301.6z"/>
      <path id="path13" fill="#E49B30" fill-opacity="1" d="M492.7,301.6 L459.5,301.6 459.5,416.4 492.7,416.4 492.7,301.6z M604.3,262.05 L604.3,610.5 561.75,610.5 561.75,262.05 604.3,262.05z M304.35,644.1 L348.55,644.1 C360.2,644.1 364.45,647.1 364.45,658.4 L364.45,659.9 349.95,662.5 349.95,655.45 303.35,655.45 303.35,695.15 349.95,695.15 349.95,681.05 325.6,681.05 325.6,670.45 364.45,670.45 364.45,692.05 C364.45,703.8 360.55,706.9 348.55,706.9 L304.35,706.9 C292.3,706.9 288.45,703.95 288.45,692.05 L288.45,659.05 C288.45,647.2 292.3,644.1 304.35,644.1z M427.7,644.25 L464.4,707 447.65,707 440,693.25 399.4,693.25 391.95,707 377.1,707 413.35,644.25 427.7,644.25z"/>
      <path id="path16" fill="#FFFFFF" fill-opacity="1" d="M604.3,262.05 L561.75,262.05 561.75,610.5 604.3,610.5 604.3,262.05z"/>
      <path id="path19" fill="#FFFFFF" fill-opacity="1" d="M304.35,644.1 C292.3,644.1 288.45,647.2 288.45,659.05 L288.45,692.05 C288.45,703.95 292.3,706.9 304.35,706.9 L348.55,706.9 C360.55,706.9 364.45,703.8 364.45,692.05 L364.45,670.45 325.6,670.45 325.6,681.05 349.95,681.05 349.95,695.15 303.35,695.15 303.35,655.45 349.95,655.45 349.95,662.5 364.45,659.9 364.45,658.4 C364.45,647.1 360.2,644.1 348.55,644.1 L304.35,644.1z"/>
      <path id="path22" fill="#FFFFFF" fill-opacity="1" d="M427.7,644.25 L413.35,644.25 377.1,707 391.95,707 399.4,693.25 440,693.25 447.65,707 464.4,707 427.7,644.25z M420,656.35 L433.8,681.95 405.75,681.95 420,656.35z"/>
      <path id="path25" fill="#E49B30" fill-opacity="1" d="M420,656.35 L405.75,681.95 433.8,681.95 420,656.35z M479.55,644.25 L491.65,644.25 521.75,682.2 551.3,644.25 563.2,644.25 563.2,707 549.4,707 549.4,668.2 C549.4,667 549.55,664.8 549.9,661.5 548.55,664.3 547.3,666.55 546.25,668.05 L522.1,699.5 519.15,699.5 495.1,667.9 C493.6,665.95 492.2,663.95 491.25,661.5 491.5,664.1 491.65,666.05 491.65,668.2 L491.65,707 479.55,707 479.55,644.25z M597.05,668.7 L626.6,668.7 626.6,679.35 597.05,679.35 597.05,694.85 647.65,694.85 647.65,706.65 582.2,706.65 582.2,644 647.7,644 647.7,654.65 597.05,654.65 597.05,668.7z M512,787.45 L403.15,745 620.75,745 512,787.45z"/>
      <path id="path28" fill="#FFFFFF" fill-opacity="1" d="M479.55,644.25 L479.55,707 491.65,707 491.65,668.2 C491.65,666.05 491.5,664.1 491.25,661.5 492.2,663.95 493.6,665.95 495.1,667.9 L519.15,699.5 522.1,699.5 546.25,668.05 C547.3,666.55 548.55,664.3 549.9,661.5 549.55,664.8 549.4,667 549.4,668.2 L549.4,707 563.2,707 563.2,644.25 551.3,644.25 521.75,682.2 491.65,644.25 479.55,644.25z"/>
      <path id="path31" fill="#FFFFFF" fill-opacity="1" d="M597.05,668.7 L597.05,654.65 647.7,654.65 647.7,644 582.2,644 582.2,706.65 647.65,706.65 647.65,694.85 597.05,694.85 597.05,679.35 626.6,679.35 626.6,668.7 597.05,668.7z"/>
      <path id="path34" fill="#FFFFFF" fill-opacity="1" d="M512,787.45 L620.75,745 403.15,745 512,787.45z"/>
    </g>
    <g id="drawingObject">
      <path id="path37" fill="#FFFFFF" fill-opacity="1" d="M391.014,302.254 L391.014,261.377 317.781,261.377 C317.42,261.377 276.254,261.882 276.254,298.859 L276.254,573.373 C276.254,573.517 276.254,589.117 287.304,600.167 Q298.137,611.072 317.781,611.072 L317.781,611 391.158,611 391.158,570.051 318.07,570.051 318.07,456.88 372.886,456.88 372.886,415.28 318.07,415.28 318.07,302.254 391.014,302.254z"/>
    </g>
    <g id="drawingObject1">
      <path id="path38" fill="#FFFFFF" fill-opacity="1" d="M391.664,302.976 L391.664,260.799 317.781,260.799 Q314.965,260.799 311.065,261.377 303.337,262.532 296.837,265.493 C287.16,269.827 275.604,279.143 275.604,298.859 L275.604,573.373 C275.604,574.023 275.604,589.406 286.798,600.673 294.093,608.111 304.565,611.867 317.781,611.867 L391.664,611.867 391.664,569.617 318.576,569.617 318.576,457.747 373.392,457.747 373.392,414.919 318.576,414.919 318.576,302.976 391.664,302.976z M390.508,301.604 L318.72,301.604 317.565,301.748 317.565,416.003 372.453,416.003 372.453,456.374 317.42,456.374 317.42,570.917 390.508,570.917 390.508,610.567 317.926,610.567 C276.832,610.567 276.976,573.373 276.976,573.373 L277.626,579.151 L276.976,573.373 L276.976,298.859 C276.976,262.027 317.926,262.027 317.926,262.027 L390.508,262.027 390.508,301.604z"/>
    </g>
  </g>
</svg>