<?xml version="1.0" encoding="utf-8"?>
<!-- Generator: flash2svg, http://dissentgraphics.com/tools/flash2svg -->
<svg xmlns:xlink="http://www.w3.org/1999/xlink" id="Apps-Siri" image-rendering="optimizeSpeed" baseProfile="basic" version="1.1" style="background-color:#ffffff" x="0px" y="0px" width="1024px" height="1024px" viewBox="0 0 1024 1024" enable-background="new 0 0 1024 1024" xmlns="http://www.w3.org/2000/svg">
  <defs transform="matrix(1 0 0 1 0 0) "/>
  <g id="shadow">
    <g id="shape">
      <path id="path" fill="#000000" fill-opacity="0.09803921568627451" d="M969.65,351.3 Q961.05,330.45 950.25,310.45 C946.2,302.9 941.9,295.4 937.35,288.05 917.8,256.35 893.95,226.4 865.8,198.25 773.65,106.1 662.35,60 532,60 401.65,60 290.4,106.1 198.25,198.25 106.1,290.4 60,401.65 60,532 60,662.35 106.1,773.65 198.25,865.8 290.4,957.95 401.65,1004 532,1004 662.35,1004 773.65,957.95 865.8,865.8 916.55,815 953.35,758.4 976.15,696.05 994.7,645.2 1004,590.55 1004,532 1004,487.1 998.55,444.45 987.6,404.05 986.35,399.5 985.05,394.95 983.7,390.45 979.6,377.15 974.9,364.1 969.65,351.3z"/>
    </g>
  </g>
  <g id="criclebg">
    <g id="shape2">
      <path id="path1" fill="#4C285B" fill-opacity="1" d="M855.7,188.4 C852.7,185.25 849.3,181.75 845.85,178.3 773.4,105.85 689.1,61.85 593.05,46.4 592.75,46.35 592.45,46.3 592.2,46.25 575.95,43.65 559.4,41.85 542.15,40.9 532.45,40.35 522.3,40.05 512.05,40.05 502.7,40.05 493.45,40.3 484.15,40.8 365.8,46.9 263.85,92.75 178.3,178.3 121.8,234.8 82.65,298.45 60.85,369 Q40.05,436.2 40.05,512.05 C40.05,642.4 86.15,753.7 178.3,845.85 181.7,849.25 185.15,852.6 188.4,855.7 233.95,898.85 283.7,931 337.4,952.15 343.85,954.75 350,957 356.2,959.1 396.7,972.95 439.25,981 484.15,983.35 484.3,983.35 484.4,983.35 484.55,983.35 493.05,983.8 501.15,984.05 509.05,984.05 510.25,984.05 511.15,984.05 512.05,984.05 522.35,984.05 532.55,983.75 542.15,983.25 544.65,983.1 546.9,982.95 549.1,982.8 569.3,981.35 589,978.75 607.8,975.1 615.75,973.55 623.6,971.8 631.2,969.95 695.9,953.7 754.55,924 807.35,880.8 820.6,869.9 833.4,858.3 845.85,845.85 894.45,797.25 930.25,743.35 953.2,684.05 957.15,673.8 960.75,663.4 963.95,652.9 975.65,614.25 982.25,573.5 983.75,530.55 983.95,524.5 984.05,518.3 984.05,512.05 984.05,511.4 984.05,510.7 984.05,510.05 984.05,509.7 984.05,509.4 984.05,509.05 983.85,468.4 979.1,429.55 969.75,392.05 968.65,387.7 967.4,383.05 966.1,378.45 963.85,370.6 961.35,362.65 958.55,354.65 958.25,353.9 957.95,353 957.65,352.1 951.2,333.85 943.5,316.05 934.5,298.45 930.7,291.05 926.55,283.5 922.2,276.05 904.2,245.45 882.1,216.3 855.7,188.4z"/>
    </g>
  </g>
  <g id="criclebg1">
    <g id="shape4">
      <path id="path2" fill="#000000" fill-opacity="0.2" d="M953.2,684.05 C957.15,673.8 960.75,663.4 963.95,652.9 Q972.572,624.486 977.5,594.55 L846,463.05 293.05,653.55 613.45,973.95 C619.65,972.65 625.5,971.35 631.2,969.95 695.9,953.7 754.55,924 807.35,880.8 820.6,869.9 833.4,858.3 845.85,845.85 894.45,797.25 930.25,743.35 953.2,684.05z"/>
    </g>
  </g>
  <g id="Calque.__206">
    <g id="shape6">
      <path id="path3" fill="#A74254" fill-opacity="1" d="M846,463.05 L712,372.05 C619.75,319.2 552.45,316.5 510.05,363.85 467.6,316.5 400.3,319.2 308.05,372.05 L174.05,463.05 C248.8,504.8 324.5,514.1 401.05,491.05 424.7,479.7 448.4,478.05 472.05,486.05 488.9,492.7 501.6,491.75 510.05,483.2 518.5,491.75 531.15,492.7 548,486.05 571.65,478.05 595.35,479.7 619,491.05 695.55,514.1 771.25,504.8 846,463.05z"/>
      <path id="path4" fill="#FFFFFF" fill-opacity="1" d="M548,486.05 C531.15,492.7 518.5,491.75 510.05,483.2 501.6,491.75 488.9,492.7 472.05,486.05 448.4,478.05 424.7,479.7 401.05,491.05 439.05,493.5 475.4,501.9 510.05,516.15 544.7,501.9 581,493.5 619,491.05 595.35,479.7 571.65,478.05 548,486.05z"/>
      <path id="path5" fill="#BC4659" fill-opacity="1" d="M619,491.05 C581,493.5 544.7,501.9 510.05,516.15 475.4,501.9 439.05,493.5 401.05,491.05 324.5,514.1 248.8,504.8 174.05,463.05 206.75,622.1 318.75,709 510.05,723.85 701.3,709 813.3,622.1 846,463.05 771.25,504.8 695.55,514.1 619,491.05z"/>
    </g>
  </g>
  <g id="Calque.__207">
    <g id="shape11">
      <path id="path6" fill="#C54A60" fill-opacity="1" d="M810.7,550.95 Q828.8,515.5 838.8,472.65 C824.55,480.05 810.25,486.3 795.95,491.4 811.15,506.35 816.05,526.2 810.7,550.95z M784.95,495.1 C779.05,496.95 773.15,498.65 767.25,500.1 736.65,507.7 705.9,510.05 675,507.15 727.7,542.9 741.7,592.55 716.95,656.1 740.35,640.6 760.7,622.3 778,601.2 807.65,552.35 810,517 784.95,495.1z M702.2,665.3 C735.35,593.2 717.75,539.3 649.4,503.6 639.1,501.7 628.8,499.2 618.45,496.1 605.85,496.95 593.45,498.5 581.25,500.65 644.2,556.1 659.45,621.75 627.1,697.65 654.65,689.2 679.7,678.4 702.2,665.3z M223.4,491.15 C209.3,486.1 195.25,479.9 181.3,472.65 187.75,500.3 196.7,525.65 208.25,548.7 203.55,524.85 208.6,505.7 223.4,491.15z M255.9,500.85 C248.7,499.15 241.5,497.15 234.35,494.9 209.8,516.35 211.6,550.85 239.75,598.3 257.3,620.35 278.1,639.4 302.25,655.55 277.7,592.35 291.55,542.95 343.8,507.3 314.35,509.9 285.05,507.75 255.9,500.85z M568.75,503.1 C550.8,506.95 533.3,512.3 516.25,519.05 L516.25,718.35 C551.8,715.2 584.55,709.55 614.5,701.35 650.35,624.3 635.1,558.25 568.75,503.1z M401.65,496.1 C390.7,499.35 379.75,502 368.85,503.95 301.5,539.6 284.2,593.2 317,664.8 339.5,678 364.55,688.9 392.2,697.45 359.85,621.6 375.1,555.9 437.95,500.45 426,498.4 413.9,496.95 401.65,496.1z M506.25,718.55 L506.25,520 C488.1,512.65 469.55,506.95 450.5,502.9 384.2,558.05 369,624.1 404.85,701.15 435.65,709.7 469.45,715.5 506.25,718.55z"/>
      <path id="path7" fill="#B04756" fill-opacity="1" d="M752.35,405.5 C780.2,438.3 788.8,465.4 778.2,486.75 797.65,480.9 817.1,472.85 836.45,462.6 L752.35,405.5z M693.1,425.5 C701.6,452.3 696.25,476.25 677.05,497.35 705.9,499.9 734.65,497.75 763.3,490.8 784.35,465.25 766.3,427 709.05,376.15 680.7,359.95 654.8,348.55 631.3,342 664.65,372.45 685.25,400.25 693.1,425.5z M664.4,495.9 C685.05,476.4 691.45,453.95 683.55,428.5 674.85,401.4 650.6,371 610.85,337.35 588.65,333.65 568.95,334.9 551.7,341.1 603.1,384.65 616.55,430.05 592.05,477.3 601.6,478.8 611.2,481.85 620.8,486.4 635.35,490.75 649.9,493.95 664.4,495.9z M469.05,341.35 C451.9,335.05 432.3,333.65 410.25,337.2 370.5,370.85 346.25,401.25 337.6,428.4 329.65,453.8 336.05,476.25 356.7,495.75 370.85,493.8 385.05,490.65 399.3,486.4 409.2,481.65 419.1,478.55 429,477.1 404.65,430 418,384.75 469.05,341.35z M541.4,345.6 C531.75,350.55 522.95,357.25 515.05,365.8 L515.05,480.95 C522.3,486.55 532.65,486.7 546.2,481.4 546.25,481.35 546.35,481.35 546.4,481.35 558,477.4 569.6,475.7 581.2,476.2 605.9,430.9 592.65,387.35 541.4,345.6z M505.05,365.8 C497.3,357.45 488.7,350.8 479.25,345.9 428.4,387.55 415.25,430.95 439.9,476.15 451.15,475.8 462.4,477.5 473.65,481.35 473.7,481.35 473.8,481.35 473.9,481.4 487.4,486.75 497.8,486.6 505.05,480.95 L505.05,365.8z M270.85,403.35 L183.65,462.6 C204.15,473.45 224.7,481.8 245.35,487.75 234.2,465.35 242.7,437.2 270.85,403.35z M344.1,497.25 C324.85,476.2 319.5,452.25 328.05,425.4 335.85,400.05 356.5,372.15 390,341.65 366.15,348.2 339.8,359.7 311,376.15 256.25,426.5 239.2,464.95 259.85,491.5 287.8,497.95 315.9,499.85 344.1,497.25z"/>
    </g>
  </g>
  <g id="Calque.__208">
    <g id="shape42">
      <path id="path36" fill="#FFFFFF" fill-opacity="1" d="M341.85,371.5 Q334.05,379.3 334.05,390.3 C334.05,397.65 336.65,403.9 341.85,409.1 347.05,414.3 353.3,416.9 360.65,416.9 368,416.9 374.25,414.3 379.45,409.1 384.65,403.9 387.25,397.65 387.25,390.3 387.25,382.95 384.65,376.7 379.45,371.5 374.25,366.3 368,363.7 360.65,363.7 353.3,363.7 347.05,366.3 341.85,371.5z M303.65,419.55 C306.6,422.5 310.2,424 314.35,424 318.5,424 322.05,422.5 325,419.55 327.95,416.6 329.45,413.05 329.45,408.9 329.45,404.75 327.95,401.15 325,398.2 322.05,395.25 318.5,393.8 314.35,393.8 310.2,393.8 306.6,395.25 303.65,398.2 300.7,401.15 299.25,404.75 299.25,408.9 299.25,413.05 300.7,416.6 303.65,419.55z"/>
    </g>
  </g>
</svg>