<?xml version="1.0" encoding="utf-8"?>
<!-- Generator: flash2svg, http://dissentgraphics.com/tools/flash2svg -->
<svg xmlns:xlink="http://www.w3.org/1999/xlink" id="Apps-Pacifist" image-rendering="optimizeSpeed" baseProfile="basic" version="1.1" style="background-color:#ffffff" x="0px" y="0px" width="1024px" height="1024px" viewBox="0 0 1024 1024" enable-background="new 0 0 1024 1024" xmlns="http://www.w3.org/2000/svg">
  <defs transform="matrix(1 0 0 1 0 0) "/>
  <g id="background-circle-shadow">
    <g id="shape">
      <path id="path" fill="#000000" fill-opacity="0.09803921568627451" d="M969.65,351.3 Q961.05,330.45 950.25,310.45 C946.2,302.9 941.9,295.4 937.35,288.05 917.8,256.35 893.95,226.4 865.8,198.25 773.65,106.1 662.35,60 532,60 401.65,60 290.4,106.1 198.25,198.25 106.1,290.4 60,401.65 60,532 60,662.35 106.1,773.65 198.25,865.8 290.4,957.95 401.65,1004 532,1004 662.35,1004 773.65,957.95 865.8,865.8 916.55,815 953.35,758.4 976.15,696.05 994.7,645.2 1004,590.55 1004,532 1004,487.1 998.55,444.45 987.6,404.05 986.35,399.5 985.05,394.95 983.7,390.45 979.6,377.15 974.9,364.1 969.65,351.3z"/>
    </g>
  </g>
  <g id="background-circle">
    <g id="shape2">
      <path id="path1" fill="#F1F1F1" fill-opacity="1" d="M966.1,378.45 C965.1,375.05 964.1,371.6 962.95,367.95 961.35,362.8 959.55,357.45 957.65,352.1 951.2,333.85 943.5,316.05 934.5,298.45 930.7,291.05 926.55,283.5 922.2,276.05 901.9,241.55 876.4,208.85 845.85,178.3 773.25,105.7 688.7,61.65 592.2,46.25 575.95,43.65 559.4,41.85 542.15,40.9 532.45,40.35 522.3,40.05 512.05,40.05 502.7,40.05 493.45,40.3 484.15,40.8 365.8,46.9 263.85,92.75 178.3,178.3 Q40.05,316.55 40.05,512.05 C40.05,642.4 86.15,753.7 178.3,845.85 235,902.5 298.85,941.75 369.4,963.4 406.15,974.65 444.2,981.25 484.15,983.35 484.3,983.35 484.4,983.35 484.55,983.35 493.05,983.8 501.15,984.05 509.05,984.05 510.25,984.05 511.15,984.05 512.05,984.05 522.35,984.05 532.55,983.75 542.15,983.25 544.65,983.1 546.9,982.95 549.1,982.8 569.3,981.35 589,978.75 607.8,975.1 615.75,973.55 623.6,971.8 631.2,969.95 712,949.65 783.35,908.35 845.85,845.85 894.45,797.25 930.25,743.35 953.2,684.05 971.65,636.4 981.85,585.25 983.75,530.55 983.95,524.5 984.05,518.3 984.05,512.05 984.05,511.4 984.05,510.7 984.05,510.05 984.05,509.7 984.05,509.4 984.05,509.05 983.85,468.4 979.1,429.55 969.75,392.05 968.65,387.7 967.4,383.05 966.1,378.45z"/>
    </g>
  </g>
  <g id="background-circle1">
    <g id="shape4">
      <path id="path2" fill="#000000" fill-opacity="0.09803921568627451" d="M984.05,510.05 C984.05,509.7 984.05,509.4 984.05,509.05 984,495.4 983.4,481.95 982.3,468.5 L982.275,468.475 L858.85,345.05 165.95,368.05 261.175,463.275 191.45,544.15 286.75,639.45 269.55,713.95 539,983.4 Q540.582,983.334 542.15,983.25 C544.65,983.1 546.9,982.95 549.1,982.8 569.3,981.35 589,978.75 607.8,975.1 615.75,973.55 623.6,971.8 631.2,969.95 712,949.65 783.35,908.35 845.85,845.85 894.45,797.25 930.25,743.35 953.2,684.05 971.65,636.4 981.85,585.25 983.75,530.55 983.95,524.5 984.05,518.3 984.05,512.05 984.05,511.4 984.05,510.7 984.05,510.05z"/>
      <path id="path3" fill="#F1F1F1" fill-opacity="1" d="M163.05,365.15 L165.95,368.05 858.85,345.05 568.05,254.675 163.05,365.15z"/>
    </g>
  </g>
  <g id="Calque.__202">
    <g id="shape8">
      <path id="path4" fill="#F8BA82" fill-opacity="1" d="M860.55,349.9 C860.9,348.95 860.9,348.05 860.55,347.2 Q860.05,345.75 858.85,345.05 L619.6,199.85 C618.95,199.45 618.2,199.25 617.45,199.25 616.75,199.25 616,199.45 615.35,199.85 L513.25,260.95 C513.1,260.9 513,260.8 512.8,260.75 L406.05,215.75 C405.45,215.45 404.8,215.35 404.15,215.4 403.5,215.45 402.9,215.7 402.35,216 L164.8,361.15 C163.85,361.7 163.25,362.45 163,363.45 162.7,364.45 162.75,365.45 163.2,366.35 163.65,367.3 164.35,367.95 165.35,368.35 L270.35,412.6 343.6,372.15 343.6,372.1 461.65,299.15 461.65,299.2 511.5,269.1 513.35,268 546.65,288.65 546.7,288.7 749.3,411.1 858.8,352.05 C859.65,351.55 860.25,350.8 860.55,349.9z"/>
      <path id="path5" fill="#5D3108" fill-opacity="1" d="M343.6,372.1 L343.6,372.15 270.35,412.6 512.45,555.9 C512.5,555.85 512.5,555.85 512.55,555.8 L512.55,269.1 511.5,269.1 461.65,299.2 461.65,299.15 343.6,372.1z"/>
      <path id="path6" fill="#6A3915" fill-opacity="1" d="M513.35,268 L511.5,269.1 512.55,269.1 512.55,555.8 C512.75,555.55 513,555.4 513.25,555.25 L749.3,411.1 546.7,288.7 546.65,288.65 513.35,268z"/>
      <path id="path7" fill="#84471C" fill-opacity="1" d="M752.9,713.9 L752.9,592.25 592.1,690.45 C591.45,690.8 590.8,691.05 590.1,691.05 589.35,691.05 588.65,690.85 588,690.55 587.35,690.15 586.85,689.6 586.45,689 L513.65,563.85 513.4,564.05 513.1,564.55 513.1,860.35 752.9,713.9z"/>
      <path id="path8" fill="#5E3101" fill-opacity="1" d="M269.55,591.5 L269.55,713.95 511.2,861.5 513.1,860.35 513.1,564.55 435,687.3 C434.4,688.25 433.5,688.8 432.45,689.05 431.45,689.35 430.4,689.15 429.45,688.6 L269.55,591.5z"/>
      <path id="path9" fill="#3E6181" fill-opacity="1" d="M513.4,564.05 L513.65,563.85 513.6,563.75 513.4,564.05z"/>
    </g>
  </g>
  <g id="Calque.__203">
    <g id="shape17">
      <path id="path10" fill="#FFDA0B" fill-opacity="0.6980392156862745" d="M754.1,451.4 L754.1,329.75 514.3,469.05 514.3,561.5 C535.85,566.35 544.55,562.8 540.3,550.75 570.75,547.5 642,514.4 754.1,451.4z"/>
      <path id="path11" fill="#EABC02" fill-opacity="0.6980392156862745" d="M514.3,561.5 L514.3,469.05 270.75,329.7 270.75,452.15 C394.1,516.25 475.3,552.7 514.3,561.5z"/>
      <path id="path12" fill="#FFFF00" fill-opacity="0.6980392156862745" d="M512.4,182.15 L270.75,329.7 514.3,469.05 754.1,329.75 512.4,182.15z"/>
    </g>
  </g>
  <g id="Symbole.__201">
    <g id="shape22">
      <path id="path13" fill="#AF6F3C" fill-opacity="1" d="M831.55,542.85 Q831.95,541.25 831.1,539.8 L754.1,409.05 513.25,555.25 C513.2,555.25 513.2,555.25 513.2,555.3 L513.2,555.275 L513.2,564.375 513.6,563.75 513.65,563.85 586.45,689 C586.85,689.6 587.35,690.15 588,690.55 588.65,690.85 589.35,691.05 590.1,691.05 590.8,691.05 591.45,690.8 592.1,690.45 L829.75,545.3 C830.65,544.7 831.25,543.85 831.55,542.85z"/>
      <path id="path14" fill="#BE7943" fill-opacity="1" d="M190.15,538.45 C189.75,539.05 189.5,539.75 189.45,540.5 189.4,541.25 189.6,541.9 189.95,542.55 190.35,543.2 190.85,543.75 191.45,544.15 L429.45,688.6 C430.4,689.15 431.45,689.35 432.45,689.05 433.5,688.8 434.4,688.25 435,687.3 L513.2,564.375 513.2,555.275 L513.2,555.3 C512.95,555.4 512.75,555.55 512.55,555.8 512.5,555.85 512.5,555.85 512.45,555.9 L270.35,412.6 190.15,538.45z"/>
    </g>
  </g>
  <g id="Calque.__204">
    <g id="shape26">
      <path id="path15" fill="#414141" fill-opacity="1" d="M844.8,847.35 C845.35,846.8 845.85,846.3 846.4,845.8 860.05,832.3 872.9,817.9 884.9,802.8 L787.45,705.4 695.95,796.9 791.5,892.45 C810.45,878.7 828.2,863.65 844.8,847.35z"/>
    </g>
  </g>
  <g id="object-shadow">
    <g id="shape28">
      <path id="path16" fill="#333333" fill-opacity="1" d="M825.2,586.65 C825.2,438.05 704.7,317.55 556.1,317.55 Q552.138,317.55 548.2,317.65 L548.2,385.05 C550.9,384.95 553.5,384.9 556.1,384.9 667.35,384.9 757.85,475.35 757.85,586.65 757.85,697.9 667.35,788.4 556.1,788.4 553.5,788.4 550.9,788.35 548.2,788.25 L548.2,855.65 C550.9,855.7 553.5,855.75 556.1,855.75 704.7,855.75 825.2,735.25 825.2,586.65z"/>
      <path id="path17" fill="#FFFFFF" fill-opacity="0.14901960784313725" d="M757.85,586.65 C757.85,475.35 667.35,384.9 556.1,384.9 553.5,384.9 550.9,384.95 548.2,385.05 440.6,389.15 354.25,477.95 354.25,586.65 354.25,695.3 440.6,784.15 548.2,788.25 550.9,788.35 553.5,788.4 556.1,788.4 667.35,788.4 757.85,697.9 757.85,586.65z M667.45,481.6 C660.95,505.65 627.9,517.65 593.7,508.5 573.1,502.95 556.75,490.9 548.2,476.6 543,467.75 541,457.75 543.6,448.25 544.55,444.65 546.1,441.35 548.2,438.05 559.85,421.05 588.15,413.45 617.25,421.3 651.45,430.6 673.9,457.55 667.45,481.6z"/>
      <path id="path18" fill="#FFFFFF" fill-opacity="1" d="M667.45,481.6 C673.9,457.55 651.45,430.6 617.25,421.3 588.15,413.45 559.85,421.05 548.2,438.05 546.1,441.35 544.55,444.65 543.6,448.25 541,457.75 543,467.75 548.2,476.6 556.75,490.9 573.1,502.95 593.7,508.5 627.9,517.65 660.95,505.65 667.45,481.6z"/>
      <path id="path21" fill="#414141" fill-opacity="1" d="M548.2,385.05 L548.2,317.65 C403.4,321.65 287,440.6 287,586.65 287,732.65 403.3,851.5 548.2,855.65 L548.2,788.25 C440.6,784.15 354.25,695.3 354.25,586.65 354.25,477.95 440.6,389.15 548.2,385.05z"/>
    </g>
  </g>
</svg>