
<svg xmlns="http://www.w3.org/2000/svg" version="1.1" xmlns:xlink="http://www.w3.org/1999/xlink" preserveAspectRatio="none" x="0px" y="0px" width="1024px" height="1024px" viewBox="0 0 1024 1024">
<defs>
<g id="Layer6_0_FILL">
<path fill="#000000" fill-opacity="0.09803921568627451" stroke="none" d="
M 969.6 351.25
Q 961 330.4 950.2 310.4 944.1 299.05 937.3 288 907.95 240.45 865.75 198.2 727.5 59.95 531.95 59.95 336.45 59.95 198.2 198.2 59.95 336.45 59.95 531.95 59.95 727.5 198.2 865.75 336.45 1003.95 531.95 1003.95 727.5 1003.95 865.75 865.75 941.9 789.55 976.1 696 1003.95 619.75 1003.95 531.95 1003.95 464.6 987.55 404 985.7 397.15 983.65 390.4 977.5 370.45 969.6 351.25 Z"/>
</g>

<g id="Layer2_0_FILL">
<path fill="#5E85F8" stroke="none" d="
M 461.85 383.85
L 461.85 42.4
Q 298.45 58.05 178.25 178.25 40 316.5 40 512 40 707.55 178.25 845.8 200.25 867.75 223.7 886.25 228.25 879.5 233 872.95 314.95 760.1 278.75 638 268 609.8 268 578 268 496 339.45 438 392.5 394.95 461.85 383.85
M 962.9 367.9
Q 960.4 359.9 957.6 352.05 947.85 324.5 934.45 298.4 928.65 287.05 922.15 276 891.5 224 845.8 178.25 736.8 69.25 592.15 46.2 577.35 43.85 562.2 42.4
L 562.2 383.9
Q 620.9763671875 393.2720703125 668.05 425.65 676.494140625 431.4626953125 684.55 438 712.5986328125 460.7685546875 729.6 487.2
L 945.3 702.9
Q 949.4494140625 693.54453125 953.15 684 980.9 612.4 983.7 530.5 984 521.3 984 512 984 511 984 510 984 509.5 984 509 983.65 447.7 969.7 392 967.95 385.15 966.05 378.4 964.55 373.1 962.9 367.9 Z"/>

<path fill="#333333" stroke="none" d="
M 562.2 42.4
Q 552.25 41.45 542.1 40.85 527.2 40 512 40 497.9 40 484.1 40.75 472.9 41.35 461.85 42.4
L 461.85 383.85 461.85 493
Q 461.85 503 471.85 503
L 552.2 503
Q 562.2 503 562.2 493
L 562.2 383.9 562.2 42.4
M 442.25 648.45
Q 411.8 678.9 411.8 722 411.8 765.1 442.25 795.55 472.7 826 515.8 826 558.9 826 589.35 795.55 619.8 765.1 619.8 722 619.8 678.9 589.35 648.45 558.9 618 515.8 618 472.7 618 442.25 648.45 Z"/>

<path fill="#5173D6" stroke="none" d="
M 729.6 487.2
Q 756 528.190234375 756 578 756 609.8 745.25 638 709.05 760.1 791 872.95 795.75 879.5 800.4 886.3 823.8 867.8 845.8 845.8 910.8689453125 780.6865234375 945.3 702.9
L 729.6 487.2 Z"/>

<path fill="#8AA6F8" stroke="none" d="
M 684.55 438
Q 676.494140625 431.4626953125 668.05 425.65 620.9763671875 393.2720703125 562.2 383.9
L 562.2 493
Q 562.2 503 552.2 503
L 471.85 503
Q 461.85 503 461.85 493
L 461.85 383.85
Q 392.5 394.95 339.45 438 268 496 268 578 268 609.8 278.75 638 314.95 760.1 233 872.95 228.25 879.5 223.7 886.25 290.6 939.05 369.35 963.35 423.9 980.15 484.1 983.3 484.3 983.3 484.5 983.3 496.65 983.9 509 984 510.5 984 512 984 527.25 984 542.1 983.2 545.6 983 549.05 982.75 579.1 980.6 607.75 975.05 619.55 972.75 631.15 969.9 723.55 946.9 800.4 886.3 795.75 879.5 791 872.95 709.05 760.1 745.25 638 756 609.8 756 578 756 528.190234375 729.6 487.2 712.5986328125 460.7685546875 684.55 438
M 411.8 722
Q 411.8 678.9 442.25 648.45 472.7 618 515.8 618 558.9 618 589.35 648.45 619.8 678.9 619.8 722 619.8 765.1 589.35 795.55 558.9 826 515.8 826 472.7 826 442.25 795.55 411.8 765.1 411.8 722 Z"/>
</g>

<path id="Layer2_0_1_STROKES" stroke="#A8BCF8" stroke-width="37" stroke-linejoin="round" stroke-linecap="round" fill="none" d="
M 619.8 722
Q 619.8 765.1 589.35 795.55 558.9 826 515.8 826 472.7 826 442.25 795.55 411.8 765.1 411.8 722 411.8 678.9 442.25 648.45 472.7 618 515.8 618 558.9 618 589.35 648.45 619.8 678.9 619.8 722 Z"/>

<path id="Symbol_1_0_Layer0_0_1_STROKES" stroke="#FFFFFF" stroke-width="10" stroke-linejoin="round" stroke-linecap="round" fill="none" d="
M 0 916.85
L 0 0
M 62.85 916.85
L 62.85 0
M 41.9 916.85
L 41.9 0
M 20.95 916.85
L 20.95 0"/>
</defs>

<g transform="matrix( 1, 0, 0, 1, 0,0) ">
<use xlink:href="#Layer6_0_FILL"/>
</g>

<g transform="matrix( 1, 0, 0, 1, 0,0) ">
<use xlink:href="#Layer2_0_FILL"/>

<use xlink:href="#Layer2_0_1_STROKES"/>
</g>

<g transform="matrix( 1, 0, 0, 1, 480.6,54.35) ">
<g transform="matrix( 1, 0, 0, 1, 0,0) ">
<use xlink:href="#Symbol_1_0_Layer0_0_1_STROKES"/>
</g>
</g>
</svg>
