
<svg xmlns="http://www.w3.org/2000/svg" version="1.1" xmlns:xlink="http://www.w3.org/1999/xlink" preserveAspectRatio="none" x="0px" y="0px" width="1024px" height="1024px" viewBox="0 0 1024 1024">
<defs>
<g id="Layer4_0_FILL">
<path fill="#000000" fill-opacity="0.09803921568627451" stroke="none" d="
M 969.6 351.25
Q 961 330.4 950.2 310.4 944.1 299.05 937.3 288 907.95 240.45 865.75 198.2 727.5 59.95 531.95 59.95 336.45 59.95 198.2 198.2 59.95 336.45 59.95 531.95 59.95 727.5 198.2 865.75 336.45 1003.95 531.95 1003.95 727.5 1003.95 865.75 865.75 941.9 789.55 976.1 696 1003.95 619.75 1003.95 531.95 1003.95 464.6 987.55 404 985.7 397.15 983.65 390.4 977.5 370.45 969.6 351.25 Z"/>
</g>

<g id="Layer3_0_FILL">
<path fill="#137272" stroke="none" d="
M 969.7 392
Q 967.95 385.15 966.05 378.4 964.52578125 373.114453125 962.85 367.85 960.3787109375 359.903125 957.6 352.05 947.85 324.5 934.45 298.4 928.65 287.05 922.15 276 891.5 224 845.8 178.25 736.8 69.25 592.15 46.2 567.65 42.3 542.1 40.85 527.2 40 512 40 497.9 40 484.1 40.75 306.55 49.95 178.25 178.25 40 316.5 40 512 40 707.55 178.25 845.8 263.0400390625 930.55703125 369.35 963.35 423.8880859375 980.1630859375 484.1 983.3 484.3 983.3 484.5 983.3 496.65 983.9 509 984 510.5 984 512 984 527.25 984 542.1 983.2 545.6 983 549.05 982.75 579.1 980.6 607.75 975.05 619.55 972.75 631.15 969.9 751.75 939.85 845.8 845.8 918.7 772.85 953.15 684 980.9 612.4 983.7 530.5 984 521.3 984 512 984 511 984 510 984 509.5 984 509 983.65 447.7 969.7 392 Z"/>
</g>

<g id="Layer2_0_FILL">
<path fill="#000000" fill-opacity="0.2" stroke="none" d="
M 953.15 684
Q 961.9958984375 661.1759765625 968.3 637.3
L 838 507 245 384 395 534 329 766 545.95 982.95
Q 547.5115234375 982.8615234375 549.05 982.75 579.1 980.6 607.75 975.05 619.55 972.75 631.15 969.9 751.75 939.85 845.8 845.8 918.7 772.85 953.15 684 Z"/>
</g>

<g id="Layer0_0_MEMBER_0_FILL">
<path fill="#8BD9D8" stroke="none" d="
M 15.85 457.3
Q 15.15 456.85 14.4 457 13.6 457.15 13.1 457.8
L 0.4 476
Q -0.1 476.65 0.05 477.5 0.15 478.3 0.8 478.8
L 46.1 510.5
Q 46.8 510.9 47.35 510.85
L 77.55 510.85
Q 78.3 510.85 78.95 510.3
L 90.05 499.15
Q 90.65 498.6 90.65 497.75 90.65 496.9 90.05 496.35
L 78.95 485.25
Q 78.45 484.65 77.55 484.65
L 54.9 484.65 15.85 457.3 Z"/>
</g>

<g id="Layer0_0_MEMBER_1_FILL">
<path fill="#27E6E6" stroke="none" d="
M 47.4 484.65
Q 46.7 484.55 46.1 485
L 0.8 516.7
Q 0.15 517.15 0.05 517.95 -0.1 518.8 0.4 519.45
L 13.1 537.7
Q 13.6 538.35 14.4 538.5 15.15 538.65 15.85 538.2
L 54.9 510.85 77.55 510.85
Q 78.45 510.85 78.95 510.25 79.65 509.65 80.55 508.7
L 90.05 499.15
Q 90.65 498.6 90.65 497.75 90.65 496.9 90.05 496.35
L 80 486.25 80 486.3 78.95 485.2
Q 78.3 484.65 77.55 484.65
L 47.4 484.65 Z"/>
</g>
</defs>

<g transform="matrix( 1, 0, 0, 1, 0,0) ">
<use xlink:href="#Layer4_0_FILL"/>
</g>

<g transform="matrix( 1, 0, 0, 1, 0,0) ">
<use xlink:href="#Layer3_0_FILL"/>
</g>

<g transform="matrix( 1, 0, 0, 1, 0,0) ">
<use xlink:href="#Layer2_0_FILL"/>
</g>

<g transform="matrix( 6.5480804443359375, 0, 0, 6.5480804443359375, 244.35,-2749.2) ">
<use xlink:href="#Layer0_0_MEMBER_0_FILL"/>
</g>

<g transform="matrix( 6.5480804443359375, 0, 0, 6.5480804443359375, 244.35,-2749.2) ">
<use xlink:href="#Layer0_0_MEMBER_1_FILL"/>
</g>
</svg>
