
<svg xmlns="http://www.w3.org/2000/svg" version="1.1" xmlns:xlink="http://www.w3.org/1999/xlink" preserveAspectRatio="none" x="0px" y="0px" width="1024px" height="1024px" viewBox="0 0 1024 1024">
<defs>
<g id="Layer4_0_FILL">
<path fill="#000000" fill-opacity="0.09803921568627451" stroke="none" d="
M 969.6 351.25
Q 961 330.4 950.2 310.4 944.1 299.05 937.3 288 907.95 240.45 865.75 198.2 727.5 59.95 531.95 59.95 336.45 59.95 198.2 198.2 59.95 336.45 59.95 531.95 59.95 727.5 198.2 865.75 336.45 1003.95 531.95 1003.95 727.5 1003.95 865.75 865.75 941.9 789.55 976.1 696 1003.95 619.75 1003.95 531.95 1003.95 464.6 987.55 404 985.7 397.15 983.65 390.4 977.5 370.45 969.6 351.25 Z"/>
</g>

<g id="Layer3_0_FILL">
<path fill="#45909B" stroke="none" d="
M 841.2 539.7
Q 828.35 526.85 810.15 526.85 791.95 526.85 779.05 539.7 766.9 551.9 766.25 568.85
L 766.25 573.05 766.25 774.85
Q 766.15 785.25 758.75 792.65 751.25 800.15 740.6 800.15 729.95 800.15 722.45 792.65 715.15 785.35 714.95 775.1
L 714.95 669.7 714.95 664.85
Q 714.1 646.35 700.8 633.05 686.6 618.85 666.5 618.85 646.4 618.85 632.2 633.05 618.15 647.1 618 666.85
L 618 735.05
Q 618.05 735.9 618.05 736.75 618.05 737.6 618 738.5 617.45 748.1 610.45 755.1 602.85 762.7 592.1 762.7 581.35 762.7 573.75 755.1 566.55 747.9 566.2 737.85 566.15 737.6 566.15 737.3
L 566.1 511.95
Q 566.1 511.4 566.1 510.85 565.7 473.85 539.4 447.55 512.75 420.9 475.05 420.9 437.35 420.9 410.65 447.55 384.4 473.85 384 510.85
L 384 806.05
Q 383.75 816.6 376.25 824.1 368.5 831.85 357.5 831.85 346.5 831.85 338.75 824.1 331.2 816.55 331 806
L 331 378.95
Q 330.5 351.9 311.2 332.6 291.45 312.85 263.5 312.85 235.55 312.85 215.75 332.6 198.65 349.75 196.35 373.05
L 196.35 387.65 196.35 436.8
Q 196 451.1 185.8 461.3 175.25 471.85 160.35 471.85 145.45 471.85 134.9 461.3 125.6 452 124.5 439.35
L 124.5 241.3
Q 40 359.158203125 40 512 40 707.55 178.25 845.8 263.0400390625 930.55703125 369.35 963.35 423.8880859375 980.1630859375 484.1 983.3 484.3 983.3 484.5 983.3 496.65 983.9 509 984 510.5 984 512 984 527.25 984 542.1 983.2 545.6 983 549.05 982.75 579.1 980.6 607.75 975.05 619.55 972.75 631.15 969.9 751.75 939.85 845.8 845.8 879.3322265625 812.2447265625 904.7 775.3 901.24921875 775.85 897.55 775.85 879.1 775.85 866.05 762.8 853.45 750.2 853.05 732.5
L 853.05 560.85
Q 850.4 548.9 841.2 539.7 Z"/>

<path fill="#FFFFFF" stroke="none" d="
M 969.7 392
Q 967.95 385.15 966.05 378.4 964.52578125 373.114453125 962.85 367.85 960.3787109375 359.903125 957.6 352.05 947.85 324.5 934.45 298.4 928.65 287.05 922.15 276 891.5 224 845.8 178.25 736.8 69.25 592.15 46.2 567.65 42.3 542.1 40.85 527.2 40 512 40 497.9 40 484.1 40.75 306.55 49.95 178.25 178.25 148.0837890625 208.4162109375 124.5 241.3
L 124.5 439.35
Q 125.6 452 134.9 461.3 145.45 471.85 160.35 471.85 175.25 471.85 185.8 461.3 196 451.1 196.35 436.8
L 196.35 387.65
Q 196 384.05 196 380.35 196 376.65 196.35 373.05 198.65 349.75 215.75 332.6 235.55 312.85 263.5 312.85 291.45 312.85 311.2 332.6 330.5 351.9 331 378.95
L 331 806
Q 331.2 816.55 338.75 824.1 346.5 831.85 357.5 831.85 368.5 831.85 376.25 824.1 383.75 816.6 384 806.05
L 384 510.85
Q 384.4 473.85 410.65 447.55 437.35 420.9 475.05 420.9 512.75 420.9 539.4 447.55 565.7 473.85 566.1 510.85 566.1 511.4 566.1 511.95
L 566.15 737.3
Q 566.15 737.6 566.2 737.85 566.55 747.9 573.75 755.1 581.35 762.7 592.1 762.7 602.85 762.7 610.45 755.1 617.45 748.1 618 738.5
L 618 735.05 618 666.85
Q 618.15 647.1 632.2 633.05 646.4 618.85 666.5 618.85 686.6 618.85 700.8 633.05 714.1 646.35 714.95 664.85 715 666.1 715 667.35 715 668.55 714.95 669.7
L 714.95 775.1
Q 715.15 785.35 722.45 792.65 729.95 800.15 740.6 800.15 751.25 800.15 758.75 792.65 766.15 785.25 766.25 774.85
L 766.25 573.05
Q 766.2 571.95 766.2 570.8 766.2 569.8 766.25 568.85 766.9 551.9 779.05 539.7 791.95 526.85 810.15 526.85 828.35 526.85 841.2 539.7 850.4 548.9 853.05 560.85
L 853.05 732.5
Q 853.45 750.2 866.05 762.8 879.1 775.85 897.55 775.85 901.24921875 775.85 904.7 775.3 924.5193359375 746.5544921875 939.35 715.75 946.894921875 700.1326171875 953.15 684 980.9 612.4 983.7 530.5 984 521.3 984 512 984 511 984 510 984 509.5 984 509 983.65 447.7 969.7 392 Z"/>

<path fill="#72E79F" stroke="none" d="
M 766.2 570.8
Q 766.2 571.95 766.25 573.05
L 766.25 568.85
Q 766.2 569.8 766.2 570.8
M 618.05 736.75
Q 618.05 735.9 618 735.05
L 618 738.5
Q 618.05 737.6 618.05 736.75
M 196 380.35
Q 196 384.05 196.35 387.65
L 196.35 373.05
Q 196 376.65 196 380.35
M 715 667.35
Q 715 666.1 714.95 664.85
L 714.95 669.7
Q 715 668.55 715 667.35 Z"/>
</g>

<g id="Layer2_0_FILL">
<path fill="#000000" fill-opacity="0.2" stroke="none" d="
M 196.35 373.05
L 196.35 387.65 196.35 436.8
Q 196 451.1 185.8 461.3 175.25 471.85 160.35 471.85 146.9443359375 471.85 137.05 463.3
L 331 657.25 331 378.95
Q 330.5 351.9 311.2 332.6 291.45 312.85 263.5 312.85 235.55 312.85 215.75 332.6 198.65 349.75 196.35 373.05
M 841.2 539.7
Q 828.35 526.85 810.15 526.85 791.95 526.85 779.05 539.7 766.9 551.9 766.25 568.85
L 766.25 573.05 766.25 774.85
Q 766.15 785.25 758.75 792.65 751.25 800.15 740.6 800.15 729.95 800.15 722.45 792.65 715.15 785.35 714.95 775.1
L 714.95 669.7 714.95 664.85
Q 714.1 646.35 700.8 633.05 686.6 618.85 666.5 618.85 646.4 618.85 632.2 633.05 618.15 647.1 618 666.85
L 618 735.05
Q 618.05 735.9 618.05 736.75 618.05 737.6 618 738.5 617.45 748.1 610.45 755.1 602.85 762.7 592.1 762.7 581.35 762.7 573.75 755.1 566.55 747.9 566.2 737.85 566.15 737.6 566.15 737.3
L 566.1 511.95
Q 566.1 511.4 566.1 510.85 565.7 473.85 539.4 447.55 512.75 420.9 475.05 420.9 437.35 420.9 410.65 447.55 384.4 473.85 384 510.85
L 384 806.05
Q 383.75 816.6 376.25 824.1 368.5 831.85 357.5 831.85 346.8470703125 831.85 339.25 824.55
L 498.45 983.8
Q 503.71796875 983.9572265625 509 984 510.5 984 512 984 527.25 984 542.1 983.2 545.6 983 549.05 982.75 579.1 980.6 607.75 975.05 619.55 972.75 631.15 969.9 751.75 939.85 845.8 845.8 879.3322265625 812.2447265625 904.7 775.3 901.24921875 775.85 897.55 775.85 879.1 775.85 866.05 762.8 853.45 750.2 853.05 732.5
L 853.05 560.85
Q 850.4 548.9 841.2 539.7 Z"/>

<path fill="#FFFFFF" stroke="none" d="
M 962.85 367.85
Q 960.3787109375 359.903125 957.6 352.05 947.85 324.5 934.45 298.4 928.65 287.05 922.15 276 891.5 224 845.8 178.25 736.8 69.25 592.15 46.2 567.65 42.3 542.1 40.85 527.2 40 512 40 497.9 40 484.1 40.75 306.55 49.95 178.25 178.25 148.0837890625 208.4162109375 124.5 241.3
L 124.5 439.35
Q 125.4748046875 450.559765625 132.9 459.15 133.8412109375 460.2412109375 134.9 461.3 135.958203125 462.358203125 137.05 463.3 146.9443359375 471.85 160.35 471.85 175.25 471.85 185.8 461.3 196 451.1 196.35 436.8
L 196.35 387.65
Q 196 384.05 196 380.35 196 376.65 196.35 373.05 198.65 349.75 215.75 332.6 235.55 312.85 263.5 312.85 291.45 312.85 311.2 332.6 330.5 351.9 331 378.95
L 331 657.25 331 806
Q 331.2 816.55 338.75 824.1 338.875390625 824.225390625 339 824.35 339.125 824.4625 339.25 824.55 346.8470703125 831.85 357.5 831.85 368.5 831.85 376.25 824.1 383.75 816.6 384 806.05
L 384 510.85
Q 384.4 473.85 410.65 447.55 437.35 420.9 475.05 420.9 512.75 420.9 539.4 447.55 565.7 473.85 566.1 510.85 566.1 511.4 566.1 511.95
L 566.15 737.3
Q 566.15 737.6 566.2 737.85 566.55 747.9 573.75 755.1 581.35 762.7 592.1 762.7 602.85 762.7 610.45 755.1 617.45 748.1 618 738.5
L 618 735.05 618 666.85
Q 618.15 647.1 632.2 633.05 646.4 618.85 666.5 618.85 686.6 618.85 700.8 633.05 714.1 646.35 714.95 664.85 715 666.1 715 667.35 715 668.55 714.95 669.7
L 714.95 775.1
Q 715.15 785.35 722.45 792.65 729.95 800.15 740.6 800.15 751.25 800.15 758.75 792.65 766.15 785.25 766.25 774.85
L 766.25 573.05
Q 766.2 571.95 766.2 570.8 766.2 569.8 766.25 568.85 766.9 551.9 779.05 539.7 791.95 526.85 810.15 526.85 828.35 526.85 841.2 539.7 850.4 548.9 853.05 560.85
L 853.05 732.5
Q 853.45 750.2 866.05 762.8 879.1 775.85 897.55 775.85 901.24921875 775.85 904.7 775.3 924.5193359375 746.5544921875 939.35 715.75 946.894921875 700.1326171875 953.15 684 980.9 612.4 983.7 530.5 984 521.3 984 512 984 511 984 510 984 509.5 984 509 983.65 447.7 969.7 392 967.95 385.15 966.05 378.4 964.52578125 373.114453125 962.85 367.85 Z"/>

<path fill="#72E79F" stroke="none" d="
M 618 735.05
L 618 738.5
Q 618.05 737.6 618.05 736.75 618.05 735.9 618 735.05
M 196.35 387.65
L 196.35 373.05
Q 196 376.65 196 380.35 196 384.05 196.35 387.65
M 714.95 664.85
L 714.95 669.7
Q 715 668.55 715 667.35 715 666.1 714.95 664.85
M 766.25 573.05
L 766.25 568.85
Q 766.2 569.8 766.2 570.8 766.2 571.95 766.25 573.05 Z"/>
</g>
</defs>

<g transform="matrix( 1, 0, 0, 1, 0,0) ">
<use xlink:href="#Layer4_0_FILL"/>
</g>

<g transform="matrix( 1, 0, 0, 1, 0,0) ">
<use xlink:href="#Layer3_0_FILL"/>
</g>

<g transform="matrix( 1, 0, 0, 1, 0,0) ">
<use xlink:href="#Layer2_0_FILL"/>
</g>
</svg>
