<?xml version="1.0" encoding="utf-8"?>
<!-- Generator: flash2svg, http://dissentgraphics.com/tools/flash2svg -->
<svg xmlns:xlink="http://www.w3.org/1999/xlink" id="Xbmc" image-rendering="optimizeSpeed" baseProfile="basic" version="1.1" style="background-color:#ffffff" x="0px" y="0px" width="1024px" height="1024px" viewBox="0 0 1024 1024" enable-background="new 0 0 1024 1024" xmlns="http://www.w3.org/2000/svg">
  <defs transform="matrix(1 0 0 1 0 0) "/>
  <g id="shadow">
    <g id="shape">
      <path id="path" fill="#000000" fill-opacity="0.09803921568627451" d="M969.65,351.3 Q961.05,330.45 950.25,310.45 C946.2,302.9 941.9,295.4 937.35,288.05 917.8,256.35 893.95,226.4 865.8,198.25 773.65,106.1 662.35,60 532,60 401.65,60 290.4,106.1 198.25,198.25 106.1,290.4 60,401.65 60,532 60,662.35 106.1,773.65 198.25,865.8 290.4,957.95 401.65,1004 532,1004 662.35,1004 773.65,957.95 865.8,865.8 916.55,815 953.35,758.4 976.15,696.05 994.7,645.2 1004,590.55 1004,532 1004,487.1 998.55,444.45 987.6,404.05 986.35,399.5 985.05,394.95 983.7,390.45 979.6,377.15 974.9,364.1 969.65,351.3z"/>
    </g>
  </g>
  <g id="ico-shadow">
    <g id="shape2">
      <path id="path1" fill="#333333" fill-opacity="1" d="M727.2,91.75 C718.5,87.4 709.35,83.1 699.95,79.05 691.35,75.3 682.8,71.85 674.05,68.65 631.95,52.9 589.8,43.3 547.6,40 478.2,34.4 408.65,45.4 338.7,73 315.25,82.3 293.05,92.9 272.1,104.9 230.8,128.6 194.5,157.55 163.6,191.6 Q112,248.2 79.05,324.15 C58.8,370.8 46.2,417.6 41.2,463.8 40.75,468.25 40.35,472.4 40,476.55 36.3,522.15 39.8,567.3 50.25,612.55 55.95,637.1 63.5,661.3 73,685.4 100.7,755.35 140.25,813.8 191.55,860.5 223,889.15 258.75,913.35 298.85,933.3 299,933.35 299.1,933.4 299.2,933.45 302.3,935 305.3,936.45 307.85,937.6 312.75,939.95 317.1,941.95 321.45,943.85 322.55,944.3 323.35,944.7 324.2,945.05 333.65,949.15 343.1,952.9 352.1,956.25 354.45,957.1 356.6,957.9 358.7,958.65 377.75,965.35 396.9,970.8 415.6,974.95 423.5,976.65 431.4,978.2 439.1,979.5 440.05,979.7 441.05,979.8 441.8,979.95 453.45,981.8 465,983.2 476.55,984.15 546.35,989.6 615.75,978.6 685.4,951.1 709.75,941.5 732.7,930.45 754.2,917.95 789.3,897.6 820.65,873.45 848.3,845.45 852.45,841.25 856.5,836.95 860.55,832.55 868.95,823.3 877.05,813.6 884.8,803.45 904.85,777.3 922.35,748.35 937.4,716.75 940,711.25 942.55,705.65 945.05,699.9 945.3,699.3 945.6,698.65 945.85,698.05 946,697.75 946.1,697.45 946.25,697.15 949.05,690.55 951.7,683.9 954.35,677.15 966,646.5 974.5,615.5 979.7,584.1 980.4,579.7 981.1,574.95 981.8,570.2 982.7,562.85 983.55,555.35 984.15,547.6 984.25,546.15 984.4,544.45 984.55,542.65 985.85,523.35 985.85,503.95 984.65,484.25 984.2,477.85 983.65,471.35 982.95,464.65 982.75,462.8 982.5,460.8 982.25,458.8 980.25,442.4 977.3,425.95 973.3,409.1 967.85,385.95 960.45,362.35 951.1,338.7 923.55,268.95 884.1,210.65 832.5,163.6 813.75,146.5 793.15,130.8 770.95,116.65 757.1,107.75 742.65,99.55 727.2,91.75z"/>
    </g>
  </g>
  <g id="ico-shadow1">
    <g id="shape4">
      <path id="path2" fill="#333333" fill-opacity="1" d="M946.9,337 C943.45,328.25 939.9,319.75 935.95,311.35 917.3,270.4 894.25,233.85 866.8,201.65 859.1,192.7 851.15,184.05 842.65,175.55 L507.85,510.35 842.7,845.15 C849.15,838.65 855.5,831.9 861.7,824.85 865.9,820 870.1,815 874.35,809.75 875.5,808.3 876.75,806.75 877.95,805.15 888.15,792.15 897.7,778.4 906.8,763.7 919.35,743.4 930.75,721.55 940.9,698.2 970.7,629.4 984.05,560.25 980.85,490.5 979.65,465.15 976.2,439.5 970.5,413.8 967,397.7 962.6,381.7 957.15,365.25 954.1,356 950.7,346.55 946.9,337z M173.05,175.55 C170.6,178 168.35,180.35 166.1,182.7 145,204.9 126.55,228.8 110.25,254.85 96.95,276.25 85.15,298.65 74.85,322.45 44.95,391.5 31.6,460.8 34.85,530.1 36.8,572.6 45,614.95 59.25,657.45 59.3,657.6 59.35,657.7 59.4,657.8 60.45,661.05 61.6,664.25 62.55,666.85 64.35,671.95 66.05,676.45 67.75,680.85 68.25,682 68.5,682.8 68.85,683.65 72.65,693.25 76.65,702.55 80.7,711.35 81.75,713.6 82.65,715.65 83.65,717.7 92.35,735.85 102.05,753.25 112.35,769.45 116.7,776.2 121.2,782.9 125.75,789.3 126.3,790.05 126.95,790.9 127.3,791.5 134.25,801.05 141.4,810.2 148.95,819.05 156.75,828.2 164.85,836.95 173.05,845.2 L507.85,510.35 173.05,175.55z"/>
      <path id="path3" fill="#494949" fill-opacity="1" d="M842.65,175.55 C802.1,135 753.1,102.15 695.7,77.3 672.6,67.3 649.4,59.1 626.05,52.75 580.1,40.3 534,35.1 488.05,37.35 Q411.55,40.85 334.55,71.25 C287.25,89.95 245.25,114.15 209.05,143.25 205.6,146.1 202.35,148.75 199.15,151.45 189.95,159.25 181.1,167.4 173.05,175.55 L507.85,510.35 842.65,175.55z"/>
      <path id="path6" fill="#1B1B1B" fill-opacity="1" d="M527.65,983.35 C540.15,982.8 552.75,981.6 565.35,979.95 598.05,975.65 630.9,967.55 663.9,955.85 669.6,953.8 675.4,951.65 681.2,949.3 681.8,949.1 682.5,948.85 683.1,948.55 683.4,948.45 683.65,948.35 684,948.2 690.65,945.55 697.2,942.7 703.9,939.85 733.8,926.35 761.7,910.5 787.55,891.95 791.2,889.3 795.05,886.45 798.9,883.6 804.75,879 810.65,874.35 816.55,869.3 817.65,868.3 818.95,867.25 820.35,866.1 825.45,861.55 830.55,856.9 835.55,852.15 837.95,849.9 840.3,847.55 842.7,845.15 L507.85,510.35 173.05,845.2 C214.25,886.05 263.05,918.65 319.95,943.35 344,953.75 368,962.2 392.05,968.55 431.3,978.95 470.55,984.1 509.85,983.85 515.8,983.8 521.7,983.65 527.65,983.35z"/>
    </g>
  </g>
  <g id="Calque.__205">
    <g id="shape11">
      <path id="path7" fill="#000000" fill-opacity="0.2980392156862745" d="M720.05,532.05 Q720.05,454.15 665,399.1 C628.3,362.4 584,344.05 532.05,344.05 480.1,344.05 435.8,362.4 399.1,399.1 362.4,435.8 344.05,480.1 344.05,532.05 344.05,584 362.4,628.3 399.1,665 435.8,701.7 480.1,720.05 532.05,720.05 584,720.05 628.3,701.7 665,665 701.7,628.3 720.05,584 720.05,532.05z"/>
    </g>
  </g>
  <g id="ico">
    <g id="shape13">
      <path id="path8" fill="#1F1F1F" fill-opacity="1" d="M645,379.1 Q589.95,324.05 512.05,324.05 C460.1,324.05 415.8,342.4 379.1,379.1 342.4,415.8 324.05,460.1 324.05,512.05 324.05,564 342.4,608.3 379.1,645 415.8,681.7 460.1,700.05 512.05,700.05 564,700.05 608.3,681.7 645,645 681.7,608.3 700.05,564 700.05,512.05 700.05,460.1 681.7,415.8 645,379.1z"/>
    </g>
  </g>
  <g id="ico1">
    <g id="shape15">
      <path id="path9" fill="#000000" fill-opacity="0.2" d="M613.05,447.35 L505.825,478.525 434.6,461.05 495.25,521.7 477.15,578.85 393.05,560.85 531.375,699.175 Q596.906,693.094 645,645 C676.55,613.45 694.5,576.3 699,533.3 L698.975,533.275 L613.05,447.35z"/>
    </g>
  </g>
  <g id="Calque.__206">
    <g id="shape17">
      <path id="path10" fill="#33FF66" fill-opacity="1" d="M572.7,467.5 Q591.15,467.5 604.2,480.55 C605.7,482 607.05,483.55 608.3,485.15 610.95,488.6 614.45,490.55 618.8,491.1 623.1,491.65 626.95,490.55 630.4,487.9 633.85,485.25 635.85,481.75 636.4,477.45 636.9,473.1 635.85,469.25 633.2,465.8 631.15,463.2 628.95,460.7 626.5,458.25 611.65,443.4 593.7,435.95 572.7,436 551.7,435.95 533.75,443.4 518.9,458.25 516.45,460.7 514.15,463.3 512.1,465.95 510,463.3 507.7,460.7 505.25,458.25 490.4,443.4 472.45,435.95 451.45,436 449.75,435.95 448.05,436 446.4,436.1 442.05,436.4 438.45,438.2 435.6,441.45 432.7,444.7 431.4,448.5 431.7,452.85 431.95,457.15 433.75,460.75 437,463.65 440.25,466.55 444.05,467.85 448.4,467.6 449.35,467.55 450.4,467.5 451.45,467.5 463.75,467.5 474.25,471.85 482.95,480.55 491.65,489.25 496,499.75 496.05,512.05 496,524.35 491.65,534.85 482.95,543.55 474.25,552.25 463.75,556.6 451.45,556.65 439.15,556.6 428.65,552.25 419.95,543.55 418.45,542.05 417.1,540.5 415.9,538.95 413.2,535.5 409.7,533.55 405.4,533 401.05,532.45 397.2,533.55 393.8,536.2 390.35,538.85 388.35,542.35 387.8,546.7 387.25,551 388.35,554.85 391,558.3 393,560.9 395.2,563.4 397.65,565.85 412.5,580.7 430.45,588.15 451.45,588.15 472.45,588.15 490.4,580.7 505.25,565.85 507.7,563.4 510,560.8 512.1,558.15 514.15,560.8 516.45,563.4 518.9,565.85 533.75,580.7 551.7,588.15 572.7,588.15 574.4,588.15 576.1,588.1 577.75,588 582.1,587.7 585.7,585.9 588.55,582.65 591.45,579.4 592.75,575.6 592.5,571.25 592.2,566.9 590.4,563.3 587.15,560.45 583.9,557.55 580.1,556.25 575.75,556.5 574.8,556.55 573.75,556.6 572.7,556.65 560.4,556.6 549.9,552.25 541.2,543.55 532.5,534.85 528.15,524.35 528.15,512.05 528.15,499.75 532.5,489.25 541.2,480.55 549.9,471.85 560.4,467.5 572.7,467.5z"/>
    </g>
  </g>
  <g id="Calque.__207">
    <g id="Symbole.__2021_1" overflow="visible">
      <g id="Calque.__211">
        <g id="shape36">
          <path id="path26" fill="#000000" fill-opacity="0.09803921568627451" d="M550.622,135.94 C539.919,125.373 527.075,120.045 512.046,119.999 L511.954,119.999 C496.879,120.045 484.036,125.373 473.378,136.031 L424.145,185.264 C417.951,191.504 414.854,198.973 414.854,207.672 L414.854,207.718 C414.899,216.508 417.996,223.977 424.145,230.171 430.293,236.32 437.763,239.417 446.553,239.462 L446.644,239.462 C455.434,239.508 462.903,236.411 469.097,230.217 L512,187.314 554.903,230.217 C561.097,236.411 568.612,239.508 577.402,239.508 L577.538,239.508 C586.237,239.462 593.707,236.32 599.855,230.171 606.004,224.023 609.146,216.553 609.192,207.854 L609.192,207.581 C609.146,198.973 606.095,191.549 600.037,185.401 L599.992,185.31 550.622,135.94z M793.874,424.145 Q784.629,433.39 784.583,446.553 L784.583,446.644 C784.538,455.434 787.635,462.903 793.829,469.097 L836.732,512 793.829,554.903 C787.635,561.097 784.538,568.612 784.538,577.402 L784.538,577.538 C784.583,586.237 787.726,593.707 793.874,599.855 800.023,606.004 807.492,609.146 816.191,609.192 L816.465,609.192 C825.072,609.146 832.496,606.095 838.69,600.037 L838.781,599.992 888.106,550.622 C898.672,539.919 904.001,527.075 904.046,512.046 L904.046,511.954 C904.001,496.879 898.672,484.036 888.015,473.378 L838.781,424.145 C832.542,417.951 825.072,414.854 816.373,414.854 807.583,414.899 800.069,417.996 793.874,424.145z M207.854,414.854 L207.581,414.854 C198.973,414.899 191.549,417.951 185.401,424.008 L135.94,473.424 C125.373,484.127 120.045,496.97 119.999,512 L119.999,512.091 C120.045,527.166 125.373,540.01 136.031,550.667 L185.264,599.901 C191.504,606.095 198.973,609.192 207.672,609.192 L207.718,609.192 C216.508,609.146 223.977,606.049 230.171,599.901 236.32,593.752 239.417,586.283 239.462,577.493 L239.462,577.402 C239.508,568.612 236.411,561.142 230.217,554.948 L187.314,512.046 230.217,469.143 C236.411,462.949 239.508,455.434 239.508,446.644 L239.508,446.507 C239.462,437.808 236.32,430.339 230.171,424.19 224.023,418.042 216.553,414.899 207.854,414.854z M424.19,793.874 C418.042,800.023 414.899,807.492 414.854,816.191 L414.854,816.465 C414.899,825.072 417.951,832.496 424.008,838.69 L473.424,888.106 C484.127,898.672 496.97,904.001 512,904.046 L512.091,904.046 C527.166,904.001 540.01,898.672 550.667,888.015 L599.901,838.781 C606.095,832.542 609.192,825.072 609.192,816.373 609.146,807.583 606.049,800.069 599.901,793.874 593.752,787.726 586.283,784.629 577.538,784.583 L577.447,784.583 C577.402,784.583 577.356,784.583 577.311,784.583 568.612,784.538 561.142,787.635 554.948,793.829 L512.046,836.732 469.143,793.829 C462.949,787.635 455.434,784.538 446.644,784.538 L446.507,784.538 C437.808,784.583 430.339,787.726 424.19,793.874z"/>
        </g>
        <g id="Symbole.__2023_2" overflow="visible">
          <g id="Calque.__212">
            <g id="shape37">
              <path id="path27" fill="#999999" fill-opacity="1" d="M537.778,148.874 C530.628,141.815 522.065,138.262 512,138.217 501.935,138.262 493.372,141.815 486.267,148.92 L437.034,198.153 C434.392,200.795 433.071,203.983 433.071,207.672 433.071,211.452 434.392,214.64 437.034,217.282 439.675,219.924 442.864,221.244 446.644,221.244 450.378,221.29 453.566,219.969 456.208,217.328 L505.442,168.094 C507.263,166.272 509.45,165.361 512,165.361 514.596,165.407 516.782,166.318 518.558,168.094 L567.792,217.328 C570.434,219.969 573.622,221.29 577.402,221.29 581.136,221.244 584.325,219.924 586.966,217.282 589.608,214.64 590.929,211.452 590.974,207.718 590.929,203.983 589.608,200.795 587.012,198.108 L537.778,148.874z M802.801,446.644 C802.756,450.378 804.076,453.566 806.718,456.208 L855.952,505.442 C857.773,507.263 858.684,509.45 858.684,512 858.639,514.596 857.728,516.782 855.952,518.558 L806.718,567.792 C804.076,570.434 802.756,573.622 802.756,577.402 802.801,581.136 804.122,584.325 806.764,586.966 809.405,589.608 812.593,590.929 816.328,590.974 820.063,590.929 823.251,589.608 825.938,587.012 L875.171,537.778 C882.231,530.628 885.783,522.065 885.829,512 885.783,501.935 882.231,493.372 875.126,486.267 L825.892,437.034 C823.251,434.392 820.063,433.071 816.373,433.071 Q810.726,433.071 806.764,437.034 C804.122,439.675 802.801,442.864 802.801,446.644z M207.718,433.071 C203.983,433.117 200.795,434.438 198.108,437.034 L148.874,486.267 C141.815,493.418 138.262,501.98 138.217,512.046 138.262,522.111 141.815,530.673 148.92,537.778 L198.153,587.012 C200.795,589.653 203.983,590.974 207.672,590.974 211.452,590.974 214.64,589.653 217.282,587.012 219.924,584.37 221.244,581.182 221.244,577.402 221.29,573.667 219.969,570.479 217.328,567.837 L168.094,518.604 C166.272,516.782 165.361,514.596 165.361,512.046 165.407,509.45 166.318,507.263 168.094,505.487 L217.328,456.254 C219.969,453.612 221.29,450.424 221.29,446.644 221.244,442.909 219.924,439.721 217.282,437.079 214.64,434.438 211.452,433.117 207.718,433.071z M437.079,806.764 C434.438,809.405 433.117,812.593 433.071,816.328 433.117,820.063 434.438,823.251 437.034,825.938 L486.267,875.171 C493.418,882.231 501.98,885.783 512.046,885.829 522.111,885.783 530.673,882.231 537.778,875.126 L587.012,825.892 C589.653,823.251 590.974,820.063 590.974,816.373 590.974,812.593 589.653,809.405 587.012,806.764 584.37,804.122 581.182,802.801 577.402,802.801 573.667,802.756 570.479,804.076 567.837,806.718 L518.604,855.952 C516.782,857.773 514.596,858.684 512.046,858.684 509.45,858.639 507.263,857.728 505.487,855.952 L456.254,806.718 C453.612,804.076 450.424,802.756 446.644,802.756 442.909,802.801 439.721,804.122 437.079,806.764z"/>
            </g>
          </g>
        </g>
      </g>
    </g>
  </g>
</svg>