<?xml version="1.0" encoding="utf-8"?>
<!-- Generator: flash2svg, http://dissentgraphics.com/tools/flash2svg -->
<svg xmlns:xlink="http://www.w3.org/1999/xlink" id="Apps-Slipcover" image-rendering="optimizeSpeed" baseProfile="basic" version="1.1" style="background-color:#ffffff" x="0px" y="0px" width="1024px" height="1024px" viewBox="0 0 1024 1024" enable-background="new 0 0 1024 1024" xmlns="http://www.w3.org/2000/svg">
  <defs transform="matrix(1 0 0 1 0 0) "/>
  <g id="shadow">
    <g id="shape">
      <path id="path" fill="#000000" fill-opacity="0.09803921568627451" d="M965.65,347.3 Q957.05,326.45 946.25,306.45 C942.2,298.9 937.9,291.4 933.35,284.05 913.8,252.35 889.95,222.4 861.8,194.25 769.65,102.1 658.35,56 528,56 397.65,56 286.4,102.1 194.25,194.25 102.1,286.4 56,397.65 56,528 56,658.35 102.1,769.65 194.25,861.8 286.4,953.95 397.65,1000 528,1000 658.35,1000 769.65,953.95 861.8,861.8 912.55,811 949.35,754.4 972.15,692.05 990.7,641.2 1000,586.55 1000,528 1000,483.1 994.55,440.45 983.6,400.05 982.35,395.5 981.05,390.95 979.7,386.45 975.6,373.15 970.9,360.1 965.65,347.3z"/>
    </g>
  </g>
  <g id="LogoBg">
    <g id="shape2">
      <path id="path1" fill="#FFFFFF" fill-opacity="1" d="M847,178.05 C846.65,177.7 846.35,177.4 846,177.05 801.75,133 753.1,99.55 700.1,76.7 642.75,51.95 580.25,39.6 512.7,39.6 445,39.6 382.45,52 325.05,76.85 271.75,99.9 222.9,133.6 178.45,178.05 124.1,232.4 85.75,293.4 63.4,361.05 47.8,408.25 40,458.65 40,512.3 40,642.85 86.15,754.3 178.45,846.6 260.6,928.8 357.95,974.4 470.4,983.35 484.25,984.5 498.35,985.05 512.7,985.05 520.2,985.05 527.65,984.9 534.7,984.6 656,979.6 760,933.6 847,846.6 893.9,799.7 928.9,747.85 951.95,691.1 958.6,674.8 964.25,658.05 968.95,640.8 979.95,600.35 985.45,557.5 985.45,512.3 Q985.45,432.401 962.4,362.05 C940.8,296 903.65,235.9 851,182.1 849.8,180.85 848.4,179.45 847,178.05z"/>
      <path id="path2" fill="#CCCCCC" fill-opacity="1" d="M833.85,190.35 C833.65,190.15 833.45,189.95 833.3,189.8 791,147.6 744.55,115.5 693.9,93.45 691.15,92.25 688.4,91.05 685.2,89.75 632.5,68 574.55,57.05 512.05,57.05 446.8,57.05 386.5,69.05 331.05,93.1 L331.025,93.075 L432.05,367.45 C455.95,353.95 482.6,347.25 512.05,347.25 538.4,347.25 562.55,352.65 584.4,363.4 600.1,371.15 614.65,381.65 628.1,395 628.25,395.15 628.45,395.35 628.6,395.5 630.15,397.05 631.7,398.65 633,400.05 644.65,412.55 654,426 660.85,440 671.6,462.1 676.85,485.95 676.9,512.05 676.85,557.6 660.75,596.45 628.6,628.6 596.45,660.75 557.6,676.85 512.05,676.9 466.5,676.85 427.65,660.75 395.5,628.6 363.35,596.45 347.25,557.6 347.25,512.05 347.25,486.6 352.3,463.25 362.3,442.05 L362.275,442.05 L79.875,365.525 L79.9,365.55 C64.65,411.4 57.05,460.15 57.05,512.05 57.05,637.75 101.5,745 190.35,833.85 269.45,913 363.1,956.85 471.35,965.45 484.7,966.55 498.25,967.1 512.05,967.1 519.2,967.1 526.25,966.95 533.25,966.65 649.8,961.9 750,917.65 833.85,833.85 879,788.65 912.65,738.8 934.85,684.15 941.25,668.35 946.7,652.25 951.25,635.75 961.8,596.7 967.1,555.45 967.1,512.05 967.1,460.5 959.6,412 944.65,366.65 944.55,366.35 944.45,366.05 944.4,365.8 923.65,303.15 888.25,246 838.25,194.8 836.9,193.45 835.4,191.9 833.85,190.35z"/>
      <path id="path3" fill="#A5A4A4" fill-opacity="1" d="M676.9,512.05 C676.85,485.95 671.6,462.1 660.85,440 654,426 644.65,412.55 633,400.05 631.7,398.65 630.15,397.05 628.6,395.5 628.45,395.35 628.25,395.15 628.1,395 614.65,381.65 600.1,371.15 584.4,363.4 562.55,352.65 538.4,347.25 512.05,347.25 482.6,347.25 455.95,353.95 432.05,367.45 419.05,374.8 406.85,384.15 395.5,395.5 381.3,409.7 370.25,425.2 362.3,442.05 352.3,463.25 347.25,486.6 347.25,512.05 347.25,557.6 363.35,596.45 395.5,628.6 427.65,660.75 466.5,676.85 512.05,676.9 557.6,676.85 596.45,660.75 628.6,628.6 660.75,596.45 676.85,557.6 676.9,512.05z M410.1,410.1 C438.25,381.95 472.25,367.85 512.05,367.9 551.85,367.85 585.85,381.95 614,410.1 642.15,438.25 656.25,472.25 656.25,512.05 656.25,551.85 642.15,585.85 614,614 585.85,642.15 551.85,656.25 512.05,656.25 472.25,656.25 438.25,642.15 410.1,614 381.95,585.85 367.85,551.85 367.9,512.05 367.85,472.25 381.95,438.25 410.1,410.1z"/>
      <path id="path4" fill="#CCCCCC" fill-opacity="1" d="M410.1,410.1 C381.95,438.25 367.85,472.25 367.9,512.05 367.85,551.85 381.95,585.85 410.1,614 438.25,642.15 472.25,656.25 512.05,656.25 551.85,656.25 585.85,642.15 614,614 642.15,585.85 656.25,551.85 656.25,512.05 656.25,472.25 642.15,438.25 614,410.1 585.85,381.95 551.85,367.85 512.05,367.9 472.25,367.85 438.25,381.95 410.1,410.1z M576.7,576.7 C558.85,594.55 537.3,603.45 512.05,603.5 486.8,603.45 465.25,594.55 447.4,576.7 429.55,558.85 420.65,537.3 420.65,512.05 420.65,486.8 429.55,465.25 447.4,447.4 465.25,429.55 486.8,420.65 512.05,420.65 537.3,420.65 558.85,429.55 576.7,447.4 594.55,465.25 603.45,486.8 603.5,512.05 603.45,537.3 594.55,558.85 576.7,576.7z"/>
      <path id="path7" fill="#A5A4A4" fill-opacity="1" d="M576.7,576.7 C594.55,558.85 603.45,537.3 603.5,512.05 603.45,486.8 594.55,465.25 576.7,447.4 558.85,429.55 537.3,420.65 512.05,420.65 486.8,420.65 465.25,429.55 447.4,447.4 429.55,465.25 420.65,486.8 420.65,512.05 420.65,537.3 429.55,558.85 447.4,576.7 465.25,594.55 486.8,603.45 512.05,603.5 537.3,603.45 558.85,594.55 576.7,576.7z M562.1,462 C575.95,475.85 582.85,492.5 582.85,512.05 582.85,531.6 575.95,548.25 562.1,562.1 548.25,575.95 531.6,582.85 512.05,582.85 492.5,582.85 475.85,575.95 462,562.1 448.15,548.25 441.25,531.6 441.3,512.05 441.25,492.5 448.15,475.85 462,462 475.85,448.15 492.5,441.25 512.05,441.3 531.6,441.25 548.25,448.15 562.1,462z"/>
      <path id="path13" fill="#E4E4E4" fill-opacity="1" d="M395.5,395.5 C406.85,384.15 419.05,374.8 432.05,367.45 L331.025,93.075 L331.05,93.1 C279.95,115.2 233,147.65 190.35,190.35 138.2,242.45 101.35,300.95 79.9,365.55 L79.875,365.525 L362.275,442.05 L362.3,442.05 C370.25,425.2 381.3,409.7 395.5,395.5z"/>
    </g>
  </g>
  <g id="Calque.__202">
    <g id="shape17">
      <path id="path14" fill="#E4E4E4" fill-opacity="1" d="M646.25,512.05 C646.25,475 633.15,443.4 606.95,417.15 580.7,390.95 549.1,377.85 512.05,377.9 475,377.85 443.4,390.95 417.15,417.15 390.95,443.4 377.85,475 377.9,512.05 377.85,549.1 390.95,580.7 417.15,606.95 443.4,633.15 475,646.25 512.05,646.25 549.1,646.25 580.7,633.15 606.95,606.95 633.15,580.7 646.25,549.1 646.25,512.05z M583.75,583.75 C564,603.55 540.1,613.45 512.05,613.5 484,613.45 460.1,603.55 440.35,583.75 420.55,564 410.65,540.1 410.65,512.05 410.65,484 420.55,460.1 440.35,440.35 460.1,420.55 484,410.65 512.05,410.65 540.1,410.65 564,420.55 583.75,440.35 603.55,460.1 613.45,484 613.5,512.05 Q613.45,554.1 583.75,583.75z"/>
    </g>
  </g>
  <g id="Calque.__203">
    <g id="shape22">
      <path id="path18" fill="#CCCCCC" fill-opacity="1" d="M513,572.95 L487,572.95 487,597.35 513,597.35 513,572.95z M513,621.75 L487,621.75 487,646.15 513,646.15 513,621.75z M513,670.55 L487,670.55 487,694.95 513,694.95 513,670.55z M513,719.35 L487,719.35 487,743.75 513,743.75 513,719.35z M513,768.15 L487,768.15 487,792.55 513,792.55 513,768.15z M513,816.95 L487,816.95 487,841.35 513,841.35 513,816.95z M487,890.15 L513,890.15 513,865.75 487,865.75 487,890.15z M487,938.95 L513,938.95 513,914.55 487,914.55 487,938.95z M513,963.35 L487,963.35 487,984.225 L487,984.25 C491,984.4 495,984.55 499,984.65 503.35,984.75 507.7,984.8 512.05,984.8 512.4,984.8 512.7,984.8 513,984.8 L513,963.35z"/>
      <path id="path19" fill="#333333" fill-opacity="1" d="M541,572.95 L513,572.95 513,597.35 541,597.35 541,572.95z M541,621.75 L513,621.75 513,646.15 541,646.15 541,621.75z M541,670.55 L513,670.55 513,694.95 541,694.95 541,670.55z M541,719.35 L513,719.35 513,743.75 541,743.75 541,719.35z M541,768.15 L513,768.15 513,792.55 541,792.55 541,768.15z M541,841.35 L541,816.95 513,816.95 513,841.35 541,841.35z M513,865.75 L513,890.15 541,890.15 541,865.75 513,865.75z M541,938.95 L541,914.55 513,914.55 513,938.95 541,938.95z M513,963.35 L513,984.8 C518.35,984.8 523.7,984.7 529,984.55 530.75,984.45 532.4,984.4 534.05,984.35 536.45,984.25 538.85,984.15 541,984.05 L541,984.025 L541,963.35 513,963.35z M39.35,510.05 C39.35,510.7 39.35,511.4 39.35,512.05 39.35,538.55 41.25,564.3 45.05,589.05 60,687.1 104.25,772.8 177.8,846.35 253.25,921.8 341.45,966.4 442.4,980.15 442.75,980.2 443.15,980.3 443.6,980.35 452.35,981.5 461,982.4 469.75,983.1 473.9,983.45 478.05,983.7 482,983.95 483.45,984.05 484.75,984.15 486,984.2 486.35,984.2 486.65,984.2 487,984.25 L487,984.225 L487,963.35 487,938.95 487,914.55 487,890.15 487,865.75 487,841.35 487,816.95 487,792.55 487,768.15 487,743.75 487,719.35 487,694.95 487,670.55 487,646.15 487,621.75 487,597.35 487,572.95 487,548.55 487,530.1 484.95,528.05 426.5,528.05 426.5,469.575 L426.475,469.55 L426.5,469.575 L426.5,469.55 C296.35,473.4 167.15,486.9 39.35,510.05z M541,526.35 L541,528.05 597.45,528.05 597.45,469.9 541,526.35z"/>
      <path id="path20" fill="#666666" fill-opacity="1" d="M541,621.75 L541,597.35 513,597.35 513,621.75 541,621.75z M513,743.75 L513,768.15 541,768.15 541,743.75 513,743.75z M513,646.15 L513,670.55 541,670.55 541,646.15 513,646.15z M541,719.35 L541,694.95 513,694.95 513,719.35 541,719.35z M541,816.95 L541,792.55 513,792.55 513,816.95 541,816.95z M541,841.35 L513,841.35 513,865.75 541,865.75 541,841.35z M541,890.15 L513,890.15 513,914.55 541,914.55 541,890.15z M541,938.95 L513,938.95 513,963.35 541,963.35 541,938.95z M513,548.55 L513,572.95 541,572.95 541,548.55 513,548.55z M426.5,528.05 L484.95,528.05 426.5,469.575 426.5,528.05z"/>
      <path id="path21" fill="#FFFFFF" fill-opacity="1" d="M513,597.35 L487,597.35 487,621.75 513,621.75 513,597.35z M487,768.15 L513,768.15 513,743.75 487,743.75 487,768.15z M513,646.15 L487,646.15 487,670.55 513,670.55 513,646.15z M513,694.95 L487,694.95 487,719.35 513,719.35 513,694.95z M487,816.95 L513,816.95 513,792.55 487,792.55 487,816.95z M513,841.35 L487,841.35 487,865.75 513,865.75 513,841.35z M513,890.15 L487,890.15 487,914.55 513,914.55 513,890.15z M513,938.95 L487,938.95 487,963.35 513,963.35 513,938.95z M513,548.55 L487,548.55 487,572.95 513,572.95 513,548.55z"/>
      <path id="path86" fill="#000000" fill-opacity="1" d="M951.3,690.85 Q961.25,666.3 968.3,640.55 C972.8,623.95 976.4,606.95 979.15,589.1 981.45,574 983.05,558.4 984,542.15 984.5,532.45 984.8,522.3 984.8,512.05 984.8,511.4 984.8,510.7 984.8,510.05 854.55,487.65 725.55,474.25 597.45,469.9 L597.45,528.05 541,528.05 541,548.55 541,572.95 541,597.35 541,621.75 541,646.15 541,670.55 541,694.95 541,719.35 541,743.75 541,768.15 541,792.55 541,816.95 541,841.35 541,865.75 541,890.15 541,914.55 541,938.95 541,963.35 541,984.025 L541,984.05 C552.95,983.35 564.5,982.3 576,980.95 679.35,968.05 769.5,923.2 846.35,846.35 893.25,799.45 928.25,747.6 951.3,690.85z"/>
    </g>
  </g>
  <g id="Calque.__204">
    <g id="Symbole.__203_1" overflow="visible">
      <g id="Calque.__208">
        <g id="shape124">
          <path id="path113" fill="#8E8E8E" fill-opacity="1" d="M594.586,640.618 L594.561,640.618 C592.599,638.099 590.492,635.967 588.239,634.223 585.405,632.091 579.882,626.98 571.621,618.913 566.316,613.753 562.053,607.964 558.782,601.448 554.277,592.461 551.83,582.093 551.515,570.465 551.515,570.392 551.515,570.32 551.515,570.247 551.515,570.029 551.515,569.811 551.515,569.593 L551.515,548.3 474.507,548.3 474.507,569.593 C474.507,569.811 474.507,570.029 474.507,570.247 474.507,570.32 474.507,570.392 474.507,570.465 473.95,590.305 467.24,606.462 454.425,618.913 446.165,626.98 440.617,632.091 437.807,634.223 435.554,635.967 433.423,638.099 431.461,640.618 430.128,642.532 429.45,645.027 429.45,648.103 430.007,656.557 440.496,667.701 460.917,681.532 460.82,680.903 460.723,680.273 460.626,679.595 462.128,680.782 463.727,681.751 465.205,682.429 467.385,688.364 470.849,693.741 475.597,698.562 484.39,707.549 495.025,712.055 507.452,712.055 510.916,712.055 514.259,711.691 517.287,711.037 521.574,713.654 526.201,714.962 531.191,714.962 531.264,714.962 531.361,714.962 531.458,714.962 541.777,714.865 550.595,709.148 557.91,697.787 561.326,692.482 563.966,686.644 565.807,680.297 565.735,681 565.662,681.581 565.589,682.187 585.695,667.919 596.015,656.557 596.572,648.103 596.572,645.027 595.918,642.532 594.586,640.618z"/>
        </g>
      </g>
      <g id="Calque.__209">
        <g id="shape125">
          <path id="path114" fill="#000000" fill-opacity="0.2" d="M594.586,640.618 L594.561,640.618 C592.599,638.099 590.492,635.967 588.239,634.223 585.405,632.091 579.882,626.98 571.621,618.913 566.316,613.753 562.053,607.964 558.782,601.448 L526.807,569.472 499.7,683.204 531.458,714.962 C541.777,714.865 550.595,709.148 557.91,697.787 561.326,692.482 563.966,686.644 565.807,680.297 565.735,681 565.662,681.581 565.589,682.187 585.695,667.919 596.015,656.557 596.572,648.103 596.572,645.027 595.918,642.532 594.586,640.618z"/>
        </g>
      </g>
      <g id="Symbole.__207">
        <g id="shape126">
          <path id="path115" fill="#A9A9A9" fill-opacity="1" d="M521.091,627.755 C516.392,627.755 512.225,629.136 508.543,631.825 508.253,631.074 507.841,630.371 507.332,629.741 506.242,628.409 504.934,627.755 503.383,627.755 501.978,627.755 500.767,628.312 499.726,629.402 499.677,629.039 499.532,628.7 499.314,628.409 499.047,628.046 498.708,627.852 498.296,627.852 498.078,627.852 497.885,627.9 497.715,627.997 L497.788,627.755 C486.039,628.942 479.499,630.904 478.19,633.641 472.352,647.183 467.047,661.402 462.299,676.349 460.822,680.927 459.417,685.578 458.06,690.302 448.007,725.209 440.764,763.725 436.331,805.851 436.598,821.209 443.889,834.362 458.254,845.336 469.203,853.645 481.776,858.974 495.995,861.324 501.252,862.196 506.751,862.656 512.443,862.729 L512.516,862.729 C512.686,862.729 512.879,862.729 513.049,862.729 513.218,862.729 513.412,862.729 513.582,862.729 L513.654,862.729 C518.814,862.68 523.78,862.293 528.552,861.566 543.402,859.337 556.483,853.935 567.844,845.336 582.209,834.362 589.5,821.209 589.767,805.851 585.334,763.725 578.091,725.209 568.062,690.302 Q566.003,683.228 563.823,676.349 C559.075,661.402 553.77,647.183 547.932,633.641 546.405,630.904 539.865,629.112 528.31,628.239 L528.48,628.785 L528.48,628.797 C528.455,628.772 528.455,628.772 528.431,628.772 528.334,628.748 528.213,628.724 528.068,628.724 527.947,628.724 527.826,628.748 527.729,628.772 525.645,628.094 523.441,627.755 521.091,627.755z M528.552,629.063 C528.528,629.039 528.48,629.039 528.455,629.015 528.48,628.99 528.504,628.99 528.528,628.966 L528.552,629.051z M477.052,721.43 C477.052,719.419 477.754,717.723 479.184,716.294 480.613,714.865 482.309,714.162 484.319,714.162 L541.779,714.162 C543.789,714.162 545.485,714.865 546.914,716.294 548.343,717.723 549.046,719.419 549.046,721.43 549.046,723.44 548.343,725.136 546.914,726.565 545.485,727.994 543.789,728.697 541.779,728.697 L484.319,728.697 C482.309,728.697 480.613,727.994 479.184,726.565 477.754,725.136 477.052,723.44 477.052,721.43z M484.319,737.03 L541.779,737.03 C543.789,737.03 545.485,737.732 546.914,739.162 548.343,740.591 549.046,742.287 549.046,744.297 549.046,746.308 548.343,748.003 546.914,749.433 545.485,750.862 543.789,751.564 541.779,751.564 L484.319,751.564 C482.309,751.564 480.613,750.862 479.184,749.433 477.754,748.003 477.052,746.308 477.052,744.297 477.052,742.287 477.754,740.591 479.184,739.162 480.613,737.732 482.309,737.03 484.319,737.03z M535.383,777.654 C541.561,783.831 544.637,791.268 544.637,799.988 544.637,808.709 541.561,816.146 535.383,822.323 533.252,824.455 530.975,826.223 528.552,827.604 523.926,830.244 518.766,831.577 513.049,831.577 506.678,831.577 501.01,829.929 495.995,826.659 494.13,825.424 492.386,823.994 490.714,822.323 484.537,816.146 481.461,808.709 481.461,799.988 481.461,791.268 484.537,783.831 490.714,777.654 492.386,775.982 494.13,774.553 495.995,773.342 501.01,770.047 506.678,768.4 513.049,768.4 518.766,768.4 523.926,769.732 528.552,772.373 530.975,773.754 533.252,775.522 535.383,777.654z"/>
          <path id="path116" fill="#8E8E8E" fill-opacity="1" d="M477.052,721.43 C477.052,723.44 477.754,725.136 479.184,726.565 480.613,727.994 482.309,728.697 484.319,728.697 L541.779,728.697 C543.789,728.697 545.485,727.994 546.914,726.565 548.343,725.136 549.046,723.44 549.046,721.43 549.046,719.419 548.343,717.723 546.914,716.294 545.485,714.865 543.789,714.162 541.779,714.162 L484.319,714.162 C482.309,714.162 480.613,714.865 479.184,716.294 477.754,717.723 477.052,719.419 477.052,721.43z"/>
          <path id="path117" fill="#8E8E8E" fill-opacity="1" d="M484.319,737.03 C482.309,737.03 480.613,737.732 479.184,739.162 477.754,740.591 477.052,742.287 477.052,744.297 477.052,746.308 477.754,748.003 479.184,749.433 480.613,750.862 482.309,751.564 484.319,751.564 L541.779,751.564 C543.789,751.564 545.485,750.862 546.914,749.433 548.343,748.003 549.046,746.308 549.046,744.297 549.046,742.287 548.343,740.591 546.914,739.162 545.485,737.732 543.789,737.03 541.779,737.03 L484.319,737.03z"/>
        </g>
      </g>
      <g id="Symbole.__208">
        <g id="shape127">
          <path id="path118" fill="#000000" fill-opacity="0.09803921568627451" d="M521.091,627.755 C516.658,627.755 512.686,628.966 509.149,631.389 L509.137,631.389 L500.234,683.906 584.97,768.642 C580.731,740.882 575.063,714.72 568.062,690.302 Q566.003,683.228 563.823,676.349 C559.075,661.402 553.77,647.183 547.932,633.641 546.405,630.904 539.865,629.112 528.31,628.239 L528.48,628.785 L528.48,628.797 C528.455,628.772 528.455,628.772 528.431,628.772 528.334,628.748 528.213,628.724 528.068,628.724 527.947,628.724 527.826,628.748 527.729,628.772 525.645,628.094 523.441,627.755 521.091,627.755z M528.552,629.063 C528.528,629.039 528.48,629.039 528.455,629.015 528.48,628.99 528.504,628.99 528.528,628.966 L528.552,629.051z"/>
        </g>
      </g>
      <g id="Calque.__210">
        <g id="shape128">
          <path id="path119" fill="#CCCCCC" fill-opacity="1" d="M526.178,568.6 C524.749,567.171 523.053,566.468 521.043,566.468 L505.055,566.468 C503.044,566.468 501.349,567.171 499.919,568.6 Q497.788,570.732 497.788,573.735 L497.788,677.899 C497.788,679.909 498.49,681.605 499.919,683.034 501.349,684.464 503.044,685.166 505.055,685.166 L521.043,685.166 C523.053,685.166 524.749,684.464 526.178,683.034 527.608,681.605 528.31,679.909 528.31,677.899 L528.31,573.735 C528.31,571.725 527.608,570.029 526.178,568.6z"/>
        </g>
      </g>
    </g>
  </g>
</svg>