<?xml version="1.0" encoding="utf-8"?>
<!-- Generator: flash2svg, http://dissentgraphics.com/tools/flash2svg -->
<svg xmlns:xlink="http://www.w3.org/1999/xlink" id="Ableton-Live" image-rendering="optimizeSpeed" baseProfile="basic" version="1.1" style="background-color:#ffffff" x="0px" y="0px" width="1024px" height="1024px" viewBox="0 0 1024 1024" enable-background="new 0 0 1024 1024" xmlns="http://www.w3.org/2000/svg">
  <defs transform="matrix(1 0 0 1 0 0) "/>
  <g id="shadow">
    <g id="shape">
      <path id="path" fill="#000000" fill-opacity="0.09803921568627451" d="M969.65,351.3 Q961.05,330.45 950.25,310.45 C946.2,302.9 941.9,295.4 937.35,288.05 917.8,256.35 893.95,226.4 865.8,198.25 773.65,106.1 662.35,60 532,60 401.65,60 290.4,106.1 198.25,198.25 106.1,290.4 60,401.65 60,532 60,662.35 106.1,773.65 198.25,865.8 290.4,957.95 401.65,1004 532,1004 662.35,1004 773.65,957.95 865.8,865.8 916.55,815 953.35,758.4 976.15,696.05 994.7,645.2 1004,590.55 1004,532 1004,487.1 998.55,444.45 987.6,404.05 986.35,399.5 985.05,394.95 983.7,390.45 979.6,377.15 974.9,364.1 969.65,351.3z"/>
    </g>
  </g>
  <g id="criclebg">
    <g id="shape2">
      <path id="path1" fill="#F8CE4D" fill-opacity="1" d="M958.55,354.65 C958.25,353.9 957.95,353 957.65,352.1 951.2,333.85 943.5,316.05 934.5,298.45 930.7,291.05 926.55,283.5 922.2,276.05 901.9,241.55 876.4,208.85 845.85,178.3 773.4,105.85 689.1,61.85 593.05,46.4 592.75,46.35 592.45,46.3 592.2,46.25 575.95,43.65 559.4,41.85 542.15,40.9 532.45,40.35 522.3,40.05 512.05,40.05 502.7,40.05 493.45,40.3 484.15,40.8 365.8,46.9 263.85,92.75 178.3,178.3 121.8,234.8 82.65,298.45 60.85,369 Q40.05,436.2 40.05,512.05 C40.05,642.4 86.15,753.7 178.3,845.85 226.35,893.85 279.6,929.4 337.4,952.15 343.85,954.75 350,957 356.2,959.1 396.7,972.95 439.25,981 484.15,983.35 484.3,983.35 484.4,983.35 484.55,983.35 493.05,983.8 501.15,984.05 509.05,984.05 510.25,984.05 511.15,984.05 512.05,984.05 522.35,984.05 532.55,983.75 542.15,983.25 544.65,983.1 546.9,982.95 549.1,982.8 569.3,981.35 589,978.75 607.8,975.1 615.75,973.55 623.6,971.8 631.2,969.95 695.9,953.7 754.55,924 807.35,880.8 820.6,869.9 833.4,858.3 845.85,845.85 894.45,797.25 930.25,743.35 953.2,684.05 957.15,673.8 960.75,663.4 963.95,652.9 975.65,614.25 982.25,573.5 983.75,530.55 983.95,524.5 984.05,518.3 984.05,512.05 984.05,511.4 984.05,510.7 984.05,510.05 984.05,509.7 984.05,509.4 984.05,509.05 983.85,468.4 979.1,429.55 969.75,392.05 968.65,387.7 967.4,383.05 966.1,378.45 963.85,370.6 961.35,362.65 958.55,354.65z"/>
    </g>
  </g>
  <g id="criclebg1">
    <g id="shape4">
      <path id="path2" fill="#000000" fill-opacity="0.2" d="M953.2,684.05 C957.15,673.8 960.75,663.4 963.95,652.9 975.65,614.25 982.25,573.5 983.75,530.55 Q983.884,526.439 983.95,522.3 L816.7,355.05 545.05,395 493.175,349.775 433.275,399.525 375.05,341.3 320.9,395.35 269.05,343.5 221.35,608.05 591.3,978 C597.1,977.1 602.5,976.15 607.8,975.1 615.75,973.55 623.6,971.8 631.2,969.95 695.9,953.7 754.55,924 807.35,880.8 820.6,869.9 833.4,858.3 845.85,845.85 894.45,797.25 930.25,743.35 953.2,684.05z"/>
    </g>
  </g>
  <g id="V">
    <g id="shape6">
      <path id="path3" fill="#FFFFFF" fill-opacity="1" d="M805.5,343.85 Q795.7,334.05 781.9,334.05 L564,334.05 C554.75,334.05 546.95,337.3 540.4,343.85 533.85,350.35 530.6,358.2 530.6,367.45 530.6,376.65 533.85,384.5 540.4,391.05 546.95,397.6 554.75,400.85 564,400.85 L781.9,400.85 C791.1,400.85 798.95,397.6 805.5,391.05 812,384.5 815.25,376.65 815.25,367.45 815.25,358.2 812,350.35 805.5,343.85z M805.5,452.4 C798.95,445.85 791.1,442.55 781.9,442.55 L564,442.55 C554.75,442.55 546.95,445.85 540.4,452.4 533.85,458.9 530.6,466.75 530.6,475.95 530.6,485.2 533.85,493.05 540.4,499.6 546.95,506.1 554.75,509.35 564,509.35 L781.9,509.35 C791.1,509.35 798.95,506.1 805.5,499.6 812,493.05 815.25,485.2 815.25,475.95 815.25,466.75 812,458.9 805.5,452.4z M805.5,561.75 C798.95,555.2 791.1,551.95 781.9,551.95 L564,551.95 C554.75,551.95 546.95,555.2 540.4,561.75 533.85,568.25 530.6,576.1 530.6,585.35 530.6,594.55 533.85,602.4 540.4,608.95 546.95,615.45 554.75,618.7 564,618.7 L781.9,618.7 C791.1,618.7 798.95,615.45 805.5,608.95 812,602.4 815.25,594.55 815.25,585.35 815.25,576.1 812,568.25 805.5,561.75z M440.05,343.85 C433.5,350.35 430.25,358.2 430.25,367.45 L430.25,585.35 C430.25,586.85 430.35,588.4 430.55,589.9 431.45,597.2 434.65,603.5 440.05,608.95 446.6,615.45 454.45,618.7 463.65,618.7 472.9,618.7 480.7,615.45 487.3,608.95 493.8,602.4 497.05,594.55 497.05,585.35 L497.05,367.45 C497.05,358.2 493.8,350.35 487.3,343.85 480.7,337.3 472.9,334.05 463.65,334.05 454.45,334.05 446.6,337.3 440.05,343.85z M354.3,334.05 C345.05,334.05 337.2,337.3 330.7,343.85 324.15,350.35 320.9,358.2 320.9,367.45 L320.9,585.35 C320.9,586.85 321,588.4 321.2,589.9 322.1,597.2 325.3,603.5 330.7,608.95 337.2,615.45 345.05,618.7 354.3,618.7 363.5,618.7 371.35,615.45 377.9,608.95 383.3,603.5 386.45,597.2 387.4,589.9 387.6,588.4 387.7,586.85 387.7,585.35 L387.7,367.45 C387.7,358.2 384.45,350.35 377.9,343.85 371.35,337.3 363.5,334.05 354.3,334.05z M222.2,343.85 C215.65,350.35 212.4,358.2 212.4,367.45 L212.4,585.35 C212.4,594.55 215.65,602.4 222.2,608.95 228.7,615.45 236.55,618.7 245.75,618.7 255,618.7 262.85,615.45 269.4,608.95 274.8,603.5 277.95,597.2 278.85,589.9 279.1,588.4 279.15,586.85 279.15,585.35 L279.15,367.45 C279.15,358.2 275.9,350.35 269.4,343.85 262.85,337.3 255,334.05 245.75,334.05 236.55,334.05 228.7,337.3 222.2,343.85z M767.75,653.6 C750.35,653.6 741.65,661.5 741.65,677.4 L741.65,733.65 C741.65,737.8 742.3,741.3 743.75,744.35 745.05,747.3 746.7,749.55 748.65,751.15 750.6,752.7 752.95,753.95 755.65,754.95 758.3,755.8 760.5,756.35 762.2,756.5 L812.05,756.85 812.05,731.6 777.55,731.6 C775.35,731.6 773.4,731.3 771.8,730.7 769.85,730 768.85,727.85 768.85,724.3 L768.85,718.1 812.05,718.55 812.05,692.55 768.85,692.65 769.1,682.7 C769.2,681.7 769.85,680.85 771.05,680 772.3,679.1 774,678.65 776.2,678.65 L812.05,678.65 812.05,653.55 C798,653.25 778.85,653.6 767.75,653.6z M670.5,756.25 L703.35,756.25 734.1,653.6 705.5,653.6 687.1,722.9 670.1,653.6 641.45,653.6 670.5,756.25z M633.3,653.6 L606.1,653.6 606.1,756.25 633.3,756.25 633.3,653.6z M559.5,653.6 L532.3,653.6 532.3,734.4 C532.3,741.85 534.45,747.4 538.75,750.9 540.95,752.7 543.4,754.1 546.2,754.95 549,755.8 552.1,756.25 555.55,756.25 L597.15,756.25 597.15,731.9 568.15,731.9 C566,731.9 564.05,731.6 562.45,731 560.5,730.25 559.5,728.15 559.5,724.6 L559.5,653.6z"/>
    </g>
  </g>
</svg>