<?xml version="1.0" encoding="utf-8"?>
<!-- Generator: flash2svg, http://dissentgraphics.com/tools/flash2svg -->
<svg xmlns:xlink="http://www.w3.org/1999/xlink" id="Apps-SSHTunnel" image-rendering="optimizeSpeed" baseProfile="basic" version="1.1" style="background-color:#ffffff" x="0px" y="0px" width="1024px" height="1024px" viewBox="0 0 1024 1024" enable-background="new 0 0 1024 1024" xmlns="http://www.w3.org/2000/svg">
  <defs transform="matrix(1 0 0 1 0 0) "/>
  <g id="shadow">
    <g id="shape">
      <path id="path" fill="#000000" fill-opacity="0.09803921568627451" d="M965.65,347.3 Q957.05,326.45 946.25,306.45 C942.2,298.9 937.9,291.4 933.35,284.05 913.8,252.35 889.95,222.4 861.8,194.25 769.65,102.1 658.35,56 528,56 397.65,56 286.4,102.1 194.25,194.25 102.1,286.4 56,397.65 56,528 56,658.35 102.1,769.65 194.25,861.8 286.4,953.95 397.65,1000 528,1000 658.35,1000 769.65,953.95 861.8,861.8 912.55,811 949.35,754.4 972.15,692.05 990.7,641.2 1000,586.55 1000,528 1000,483.1 994.55,440.45 983.6,400.05 982.35,395.5 981.05,390.95 979.7,386.45 975.6,373.15 970.9,360.1 965.65,347.3z"/>
    </g>
  </g>
  <g id="circle">
    <g id="shape2">
      <path id="path1" fill="#FFFFFF" fill-opacity="1" d="M968.45,382.15 C967,376.95 965.45,371.75 963.7,366.15 950.7,324.75 931.35,285.35 905.7,248.1 889,223.85 869.35,200.4 847,178.05 754.7,85.75 643.25,39.6 512.7,39.6 382.15,39.6 270.75,85.75 178.45,178.05 156.15,200.35 136.55,223.75 119.8,248.1 94.25,285.05 74.9,324.45 61.75,366.15 60,371.55 58.45,376.85 57,382.15 51.45,402.35 47.25,423.05 44.45,444.2 41.5,466.4 40,489.05 40,512.3 40,542.1 42.4,570.85 47.15,598.2 50.1,615.5 53.95,632.05 58.65,648.2 59.45,650.95 60.3,653.7 61.05,656.25 73.95,697.6 92.55,736.25 116.85,772.25 134.55,798.45 155,823.15 178.45,846.6 260.6,928.8 357.95,974.4 470.4,983.35 484.25,984.5 498.35,985.05 512.7,985.05 643.25,985.05 754.7,938.9 847,846.6 870.55,823.05 891.1,798.25 908.65,772.25 926,746.4 940.45,719.35 951.95,691.1 956.55,679.75 960.65,668.2 964.45,656.25 965.2,653.7 966.05,650.95 966.85,648.2 971.55,632.05 975.35,615.5 978.35,598.2 983.05,570.85 985.45,542.1 985.45,512.3 Q985.45,477.335 981.025,444.2 L981.05,444.2 C978.25,423.2 974.05,402.45 968.45,382.15z"/>
    </g>
  </g>
  <g id="film">
    <g id="shape4">
      <path id="path2" fill="#F7DA64" fill-opacity="1" d="M901.55,374.05 C884.85,325.9 858.35,281.3 822.2,240.6 816.3,233.95 809.95,227.25 803.4,220.7 722.95,140.25 625.85,100.05 512.05,100.05 398.25,100.05 301.15,140.25 220.7,220.7 140.25,301.15 100.05,398.25 100.05,512.05 100.05,625.85 140.25,722.95 220.7,803.4 301.15,883.85 398.25,924.05 512.05,924.05 556.95,924.05 599.25,917.8 638.5,905.4 699.9,886.05 754.7,852.1 803.4,803.4 832.4,774.4 856.15,743.25 874.7,709.9 Q924.05,621.2 924.05,512.05 C924.05,500.15 923.6,488.4 922.75,476.75 921.75,464.45 920.3,452.3 918.35,440.3 914.65,417.55 909.1,395.6 901.55,374.05z"/>
    </g>
  </g>
  <g id="camera-shadow">
    <g id="shape6">
      <path id="path3" fill="#000000" fill-opacity="0.2" d="M778.25,342.05 L694.15,360.1 502.05,267.35 454.05,219.35 429.05,234.05 483.35,512 285.1,512.05 319.05,699.05 306.2,737.6 492.25,923.625 L492.25,923.65 C499,923.9 505.5,924.05 512.05,924.05 556.95,924.05 599.25,917.8 638.5,905.4 699.9,886.05 754.7,852.1 803.4,803.4 832.4,774.4 856.15,743.25 874.7,709.9 Q924.05,621.2 924.05,512.05 C924.05,503.8 923.85,495.6 923.45,487.25 L923.425,487.225 L778.25,342.05z"/>
    </g>
  </g>
  <g id="film1">
    <g id="shape8">
      <path id="path4" fill="#333333" fill-opacity="1" d="M699.45,342.45 C696,345.9 693.05,349.6 690.7,353.55 L460.4,244.45 C460.85,242.35 461.05,240.25 461.05,238.05 461.05,230.2 458.25,223.45 452.7,217.9 447.15,212.35 440.4,209.55 432.55,209.55 424.7,209.55 417.95,212.35 412.4,217.9 406.85,223.45 404.05,230.2 404.05,238.05 404.05,245.9 406.85,252.65 412.4,258.2 417.95,263.75 424.7,266.55 432.55,266.55 432.7,266.55 432.9,266.55 433.05,266.55 L478.45,511.5 344.95,511.5 C344.05,498.15 338.6,486.35 328.7,476.45 317.75,465.5 304.55,460.05 289.1,460.05 273.65,460.05 260.45,465.5 249.5,476.45 238.55,487.4 233.1,500.6 233.1,516.05 233.1,531.5 238.55,544.7 249.5,555.65 260.45,566.6 273.65,572.05 289.1,572.05 290,572.05 290.9,572.05 291.65,572 L312.5,686.95 C308.5,688.25 304.75,690.55 301.4,693.9 295.85,699.45 293.05,706.2 293.05,714.05 293.05,721.9 295.85,728.65 301.4,734.2 306.95,739.75 313.7,742.55 321.55,742.55 329.4,742.55 336.15,739.75 341.7,734.2 344.8,731.1 347,727.65 348.45,723.85 L472.6,747.95 Q472.05,751.9 472.05,756.05 C472.05,771.5 477.5,784.7 488.45,795.65 499.4,806.6 512.6,812.05 528.05,812.05 543.5,812.05 556.7,806.6 567.65,795.65 578.6,784.7 584.05,771.5 584.05,756.05 584.05,746.85 582.1,738.45 578,730.4 L746.75,632.55 C752.25,637.9 758.85,640.55 766.55,640.55 774.4,640.55 781.15,637.75 786.7,632.2 792.25,626.65 795.05,619.9 795.05,612.05 795.05,604.2 792.25,597.45 786.7,591.9 781.15,586.35 774.4,583.55 766.55,583.55 L748,437.4 C759.95,435.55 770,430.3 778.65,421.65 789.6,410.7 795.05,397.5 795.05,382.05 795.05,366.6 789.6,353.4 778.65,342.45 767.7,331.5 754.5,326.05 739.05,326.05 723.6,326.05 710.4,331.5 699.45,342.45z M683.05,382.05 C683.05,395.65 687.25,407.45 695.5,417.3 L630.7,487.6 C625.85,483.6 619.9,481.55 613.15,481.55 605.3,481.55 598.55,484.35 593,489.9 587.45,495.45 584.65,502.2 584.65,510.05 584.65,510.5 584.65,511 584.7,511.5 L487.75,511.5 442.1,265 C446.15,263.5 449.6,261.3 452.7,258.2 454.35,256.55 455.8,254.75 456.95,252.9 L686.7,361.7 C684.25,368 683.05,374.8 683.05,382.05z M746.4,591.9 C740.85,597.45 738.05,604.2 738.05,612.05 738.05,617 739.1,621.5 741.2,625.2 L573.1,722.65 C571.5,720.6 569.7,718.5 567.65,716.45 556.7,705.5 543.5,700.05 528.05,700.05 526.25,700.05 524.45,700.15 522.75,700.3 L489.45,520.65 586.6,520.65 C588.2,524.4 590.25,527.45 593,530.2 598.55,535.75 605.3,538.55 613.15,538.55 621,538.55 627.75,535.75 633.3,530.2 638.85,524.65 641.65,517.9 641.65,510.05 641.65,504.2 640.1,498.95 636.95,494.3 L701.85,423.95 C712.25,433.3 724.55,438 738.8,438.05 L757.5,584.95 C753.4,586.25 749.7,588.6 746.4,591.9z M300.75,570.95 C311.3,568.8 320.6,563.75 328.7,555.65 338.5,545.85 343.9,534.25 344.95,520.65 L480.15,520.65 513.75,701.8 C504.3,704.15 495.85,709.05 488.45,716.45 481.7,723.2 477,730.85 474.55,739 L350.05,714.85 C350.05,714.6 350.05,714.3 350.05,714.05 350.05,706.2 347.25,699.45 341.7,693.9 336.15,688.35 329.4,685.55 321.55,685.55 L300.75,570.95z"/>
    </g>
  </g>
</svg>