<?xml version="1.0" encoding="utf-8"?>
<!-- Generator: flash2svg, http://dissentgraphics.com/tools/flash2svg -->
<svg id="Github" image-rendering="optimizeSpeed" baseProfile="basic" version="1.1" style="background-color:#FFFFFF" x="0px" y="0px" width="1024px" height="1024px" viewBox="0 0 1024 1024" enable-background="new 0 0 1024 1024" xmlns="http://www.w3.org/2000/svg" xmlns:xlink="http://www.w3.org/1999/xlink">
  <defs transform="matrix(1 0 0 1 0 0) "/>
  <g id="shadow">
    <g id="shape">
      <path id="path" fill="#000000" fill-opacity="0.09803921568627451" d="M965.6,350.25 Q957,329.4 946.2,309.4 C942.15,301.85 937.85,294.35 933.3,287 913.75,255.3 889.9,225.35 861.75,197.2 769.6,105.05 658.3,58.95 527.95,58.95 397.6,58.95 286.35,105.05 194.2,197.2 102.05,289.35 55.95,400.6 55.95,530.95 55.95,661.3 102.05,772.6 194.2,864.75 286.35,956.9 397.6,1002.95 527.95,1002.95 658.3,1002.95 769.6,956.9 861.75,864.75 912.5,813.95 949.3,757.35 972.1,695 990.65,644.15 999.95,589.5 999.95,530.95 999.95,486.05 994.5,443.4 983.55,403 982.3,398.45 981,393.9 979.65,389.4 975.55,376.1 970.85,363.05 965.6,350.25z"/>
    </g>
  </g>
  <g id="brush">
    <g id="shape2">
      <path id="path1" fill="#616B6D" fill-opacity="1" d="M983,511.5 Q983,459.127 973.075,410.875 L973.1,410.9 C955.05,323.05 912.3,245.45 844.9,178.1 752.85,86.05 641.7,40 511.5,40 381.25,40 270.15,86.05 178.1,178.1 86.05,270.15 40,381.25 40,511.5 40,641.7 86.05,752.85 178.1,844.9 253.65,920.45 342,965 443.25,978.55 465.4,981.5 488.15,983 511.5,983 641.7,983 752.85,936.95 844.9,844.9 936.95,752.85 983,641.7 983,511.5z"/>
    </g>
  </g>
  <g id="ico-shadow">
    <g id="shape4">
      <path id="path2" fill="#000000" fill-opacity="0.2" d="M983,511.5 Q983,459.127 973.075,410.875 L762,199.8 191,726.3 443.25,978.55 C465.4,981.5 488.15,983 511.5,983 641.7,983 752.85,936.95 844.9,844.9 936.95,752.85 983,641.7 983,511.5z"/>
    </g>
  </g>
  <g id="ico">
    <g id="Symbole.__206_1" overflow="visible">
      <g id="Calque.__208">
        <g id="Symbole.__208_2" overflow="visible">
          <g id="Calque.__209">
            <g id="shape26">
              <path id="path23" fill="#313637" fill-opacity="1" d="M834.7,365.2 C834.1,364.45 833.45,363.75 832.65,363 823.8,354.15 810.9,347.65 793.9,343.45 789.75,342.45 785.65,341.5 781.55,340.5 786.5,312.7 786.75,280.6 782.35,244.3 Q779,216.5 765.75,203.2 C756.9,194.4 746.25,190 733.8,190 707.55,193.85 662.15,234.55 597.6,311.85 569.05,309.7 540.55,308.65 512,308.6 483.45,308.65 454.95,309.7 426.4,311.85 361.85,234.55 316.45,193.85 290.25,190 277.75,190 267.1,194.4 258.25,203.2 249.45,212.1 243.9,225.8 241.65,244.3 237.25,280.6 237.5,312.7 242.45,340.5 238.35,341.5 234.25,342.45 230.1,343.45 213.1,347.65 200.2,354.15 191.35,363 190.65,363.75 189.9,364.45 189.3,365.2 181.7,372.95 175,389.15 169.1,413.95 160.55,449.95 156.3,493.4 156.3,544.3 156.3,595.2 160.55,638.6 169.1,674.65 172.7,689.65 176.55,701.5 180.75,710.25 182.9,716.3 186.45,721.75 191.35,726.65 200.2,735.55 215.4,742.9 236.9,748.7 327.6,773.2 419.3,785.25 512,785.1 604.7,785.25 696.4,773.2 787.1,748.7 808.65,742.9 823.8,735.55 832.65,726.65 837.55,721.75 841.1,716.3 843.35,710.25 847.45,701.5 851.35,689.65 854.9,674.65 863.45,638.6 867.7,595.2 867.7,544.3 867.7,493.4 863.45,449.95 854.9,413.95 849.05,389.15 842.3,372.95 834.7,365.2z"/>
            </g>
          </g>
        </g>
        <g id="Symbole.__210_2" overflow="visible">
          <g id="Calque.__210">
            <g id="shape27">
              <path id="path24" fill="#FFC09C" fill-opacity="1" d="M772.563,492.288 C770.64,482.843 765.267,473.681 756.445,464.802 747.565,455.979 735.802,450.663 721.041,448.91 650.686,440.483 581.01,436.185 512.013,436.129 511.957,436.129 511.843,436.129 511.787,436.129 442.79,436.242 373.114,440.483 302.759,448.91 287.998,450.663 276.235,455.979 267.355,464.802 258.533,473.681 253.16,482.843 251.237,492.288 248.296,507.105 246.713,521.64 246.487,535.948 246.487,536.118 246.487,536.231 246.487,536.401 246.487,553.367 246.487,570.391 246.487,584.36 246.487,599.743 248.014,614.617 251.068,629.151 Q254.122,643.347 267.355,656.581 C276.235,665.46 287.998,670.719 302.759,672.473 372.944,680.786 442.62,684.971 511.787,685.028 511.843,685.028 511.957,685.028 512.013,685.028 581.18,684.971 650.856,680.786 721.041,672.473 735.802,670.719 747.565,665.46 756.445,656.581 765.267,647.758 770.696,638.596 772.732,629.151 775.786,614.617 777.313,599.743 777.313,584.36 777.313,570.391 777.313,553.367 777.313,536.401 777.313,536.231 777.313,536.118 777.313,535.948 777.087,521.64 775.504,507.105 772.563,492.288z"/>
            </g>
          </g>
        </g>
        <g id="Symbole.__212_2" overflow="visible">
          <g id="Calque.__211">
            <g id="shape28">
              <path id="path25" fill="#FFFFFF" fill-opacity="1" d="M693.8,508.8 C691.75,498.15 687.6,488.65 681.35,480.25 672.05,467.9 660.85,461.7 647.7,461.7 634.6,461.7 623.4,467.9 614.15,480.25 607.9,488.6 603.75,498.05 601.75,508.8 600.75,513.85 600.25,519.35 600.25,525.1 600.25,542.55 604.85,557.5 614.15,569.85 623.4,582.25 634.6,588.4 647.7,588.4 660.85,588.4 672.05,582.25 681.35,569.85 690.6,557.5 695.25,542.55 695.25,525.1 695.25,519.4 694.75,514 693.8,508.8z M669.75,508.8 C671.1,513.35 671.8,518.3 671.8,523.7 671.8,533.7 669.45,542.25 664.7,549.3 659.95,556.35 654.2,559.9 647.5,559.9 640.8,559.9 635.05,556.35 630.3,549.3 625.55,542.25 623.2,533.7 623.2,523.7 623.2,518.3 623.9,513.35 625.3,508.8 626.45,504.95 628.15,501.35 630.3,498.1 635.05,491.05 640.8,487.5 647.5,487.5 654.2,487.5 659.95,491.05 664.7,498.1 666.85,501.35 668.55,504.95 669.75,508.8z M421.55,508.8 C419.45,499.7 415.5,491.25 409.85,483.7 Q396,465.15 376.3,465.15 C363.15,465.15 351.95,471.3 342.65,483.7 337.05,491.2 333.15,499.65 330.95,508.8 329.5,515.15 328.75,521.6 328.75,528.45 328.75,545.9 333.4,560.85 342.65,573.25 351.95,585.6 363.15,591.8 376.3,591.8 389.4,591.8 400.6,585.6 409.85,573.25 419.15,560.85 423.75,545.9 423.75,528.45 423.75,521.65 423.05,515.2 421.55,508.8z M394,499.45 C395.95,502.3 397.5,505.45 398.65,508.8 400.3,513.7 401.15,519.15 401.15,525.1 401.15,535.05 398.75,543.6 394,550.65 389.25,557.7 383.55,561.25 376.85,561.25 370.1,561.25 364.4,557.7 359.65,550.65 354.9,543.6 352.5,535.05 352.5,525.1 352.5,519.15 353.35,513.7 355.05,508.8 356.2,505.45 357.7,502.3 359.65,499.45 364.4,492.4 370.1,488.85 376.85,488.85 383.55,488.85 389.25,492.4 394,499.45z"/>
              <path id="path26" fill="#B1603D" fill-opacity="1" d="M669.75,508.8 C668.55,504.95 666.85,501.35 664.7,498.1 659.95,491.05 654.2,487.5 647.5,487.5 640.8,487.5 635.05,491.05 630.3,498.1 628.15,501.35 626.45,504.95 625.3,508.8 623.9,513.35 623.2,518.3 623.2,523.7 623.2,533.7 625.55,542.25 630.3,549.3 635.05,556.35 640.8,559.9 647.5,559.9 654.2,559.9 659.95,556.35 664.7,549.3 669.45,542.25 671.8,533.7 671.8,523.7 671.8,518.3 671.1,513.35 669.75,508.8z"/>
              <path id="path27" fill="#B1603D" fill-opacity="1" d="M394,499.45 C389.25,492.4 383.55,488.85 376.85,488.85 370.1,488.85 364.4,492.4 359.65,499.45 357.7,502.3 356.2,505.45 355.05,508.8 353.35,513.7 352.5,519.15 352.5,525.1 352.5,535.05 354.9,543.6 359.65,550.65 364.4,557.7 370.1,561.25 376.85,561.25 383.55,561.25 389.25,557.7 394,550.65 398.75,543.6 401.15,535.05 401.15,525.1 401.15,519.15 400.3,513.7 398.65,508.8 397.5,505.45 395.95,502.3 394,499.45z M512,596.9 C515.35,596.9 518.25,595.7 520.6,593.35 523,590.95 524.2,588.1 524.2,584.75 524.2,581.4 523,578.5 520.6,576.15 518.25,573.75 515.35,572.55 512,572.55 508.65,572.55 505.75,573.75 503.4,576.15 501,578.5 499.8,581.4 499.8,584.75 499.8,588.1 501,590.95 503.4,593.35 505.75,595.7 508.65,596.9 512,596.9z"/>
              <path id="path28" fill="#B36038" fill-opacity="1" d="M590.35,648.7 C592.6,646.45 593.75,643.7 593.8,640.45 593.75,637.2 592.6,634.45 590.35,632.2 588.1,629.95 585.35,628.8 582.1,628.8 L441.9,628.8 C438.65,628.8 435.9,629.95 433.65,632.2 431.4,634.45 430.25,637.2 430.25,640.45 430.25,643.7 431.4,646.45 433.65,648.7 435.9,650.95 438.65,652.1 441.9,652.15 L582.1,652.15 C585.35,652.1 588.1,650.95 590.35,648.7z"/>
            </g>
          </g>
        </g>
      </g>
    </g>
  </g>
</svg>