<?xml version="1.0" encoding="utf-8"?>
<!-- Generator: flash2svg, http://dissentgraphics.com/tools/flash2svg -->
<svg xmlns:xlink="http://www.w3.org/1999/xlink" id="Apps-iGetter" image-rendering="optimizeSpeed" baseProfile="basic" version="1.1" style="background-color:#ffffff" x="0px" y="0px" width="1024px" height="1024px" viewBox="0 0 1024 1024" enable-background="new 0 0 1024 1024" xmlns="http://www.w3.org/2000/svg">
  <defs transform="matrix(1 0 0 1 0 0) "/>
  <g id="background-circle-shadow">
    <g id="shape">
      <path id="path" fill="#000000" fill-opacity="0.09803921568627451" d="M969.65,351.3 Q961.05,330.45 950.25,310.45 C946.2,302.9 941.9,295.4 937.35,288.05 917.8,256.35 893.95,226.4 865.8,198.25 773.65,106.1 662.35,60 532,60 401.65,60 290.4,106.1 198.25,198.25 106.1,290.4 60,401.65 60,532 60,662.35 106.1,773.65 198.25,865.8 290.4,957.95 401.65,1004 532,1004 662.35,1004 773.65,957.95 865.8,865.8 916.55,815 953.35,758.4 976.15,696.05 994.7,645.2 1004,590.55 1004,532 1004,487.1 998.55,444.45 987.6,404.05 986.35,399.5 985.05,394.95 983.7,390.45 979.6,377.15 974.9,364.1 969.65,351.3z"/>
    </g>
  </g>
  <g id="background-circle">
    <g id="shape2">
      <path id="path1" fill="#277F9F" fill-opacity="1" d="M966.1,378.45 C965.1,375.05 964.1,371.6 962.95,367.95 961.35,362.8 959.55,357.45 957.65,352.1 951.2,333.85 943.5,316.05 934.5,298.45 930.7,291.05 926.55,283.5 922.2,276.05 901.9,241.55 876.4,208.85 845.85,178.3 773.25,105.7 688.7,61.65 592.2,46.25 575.95,43.65 559.4,41.85 542.15,40.9 532.45,40.35 522.3,40.05 512.05,40.05 502.7,40.05 493.45,40.3 484.15,40.8 365.8,46.9 263.85,92.75 178.3,178.3 Q40.05,316.55 40.05,512.05 C40.05,642.4 86.15,753.7 178.3,845.85 235,902.5 298.85,941.75 369.4,963.4 406.15,974.65 444.2,981.25 484.15,983.35 484.3,983.35 484.4,983.35 484.55,983.35 493.05,983.8 501.15,984.05 509.05,984.05 510.25,984.05 511.15,984.05 512.05,984.05 522.35,984.05 532.55,983.75 542.15,983.25 544.65,983.1 546.9,982.95 549.1,982.8 569.3,981.35 589,978.75 607.8,975.1 615.75,973.55 623.6,971.8 631.2,969.95 712,949.65 783.35,908.35 845.85,845.85 894.45,797.25 930.25,743.35 953.2,684.05 971.65,636.4 981.85,585.25 983.75,530.55 983.95,524.5 984.05,518.3 984.05,512.05 984.05,511.4 984.05,510.7 984.05,510.05 984.05,509.7 984.05,509.4 984.05,509.05 983.85,468.4 979.1,429.55 969.75,392.05 968.65,387.7 967.4,383.05 966.1,378.45z"/>
    </g>
  </g>
  <g id="object-shadow">
    <g id="shape4">
      <path id="path2" fill="#000000" fill-opacity="0.2" d="M973.55,615.55 L843.05,485.05 468.05,465.95 185.05,697.05 470.45,982.45 C475.1,982.8 479.6,983.1 484.15,983.35 484.3,983.35 484.4,983.35 484.55,983.35 493.05,983.8 501.15,984.05 509.05,984.05 Q510.55,984.05 512.05,984.05 C522.35,984.05 532.55,983.75 542.15,983.25 544.65,983.1 546.9,982.95 549.1,982.8 569.3,981.35 589,978.75 607.8,975.1 615.75,973.55 623.6,971.8 631.2,969.95 712,949.65 783.35,908.35 845.85,845.85 894.45,797.25 930.25,743.35 953.2,684.05 961.75,662 968.5,639.2 973.55,615.55z"/>
    </g>
  </g>
  <g id="Calque.__201">
    <g id="shape6">
      <path id="path3" fill="#FFD57E" fill-opacity="1" d="M850.8,524.45 Q854.95,512.05 850.8,499.75 C848.05,491.5 843.15,484.9 836,479.9 L609.55,323.9 C601.4,318.2 592.4,316 582.65,317.25 572.9,318.4 564.7,322.7 558.15,330.1 551.6,337.55 548.3,346.2 548.3,356.05 L548.3,411.55 647.5,479.9 C654.65,484.9 659.55,491.5 662.3,499.75 665.05,507.95 665.05,516.2 662.3,524.45 659.55,532.7 654.6,539.3 647.4,544.25 L548.3,612.55 548.3,668.05 C548.3,677.95 551.6,686.6 558.15,694 564.7,701.35 572.9,705.65 582.65,706.9 592.4,708.05 601.4,705.85 609.55,700.25 L835.9,544.25 C843.1,539.3 848.05,532.7 850.8,524.45z"/>
      <path id="path4" fill="#FF9445" fill-opacity="1" d="M662.3,524.45 C665.05,516.2 665.05,507.95 662.3,499.75 659.55,491.5 654.65,484.9 647.5,479.9 L548.3,411.55 421.05,323.9 C412.9,318.2 403.9,316 394.15,317.25 384.4,318.4 376.2,322.7 369.65,330.1 363.1,337.55 359.8,346.2 359.8,356.05 L359.8,411.55 459,479.9 C466.15,484.9 471.05,491.5 473.8,499.75 476.55,507.95 476.55,516.2 473.8,524.45 471.05,532.7 466.1,539.3 458.9,544.25 L359.8,612.55 359.8,668.05 C359.8,677.95 363.1,686.6 369.65,694 376.2,701.35 384.4,705.65 394.15,706.9 403.9,708.05 412.9,705.85 421.05,700.25 L548.3,612.55 647.4,544.25 C654.6,539.3 659.55,532.7 662.3,524.45z"/>
      <path id="path5" fill="#9A2E22" fill-opacity="1" d="M232.55,323.9 C224.4,318.2 215.4,316 205.65,317.25 195.9,318.4 187.7,322.7 181.15,330.1 174.6,337.55 171.3,346.2 171.3,356.05 L171.3,668.05 C171.3,677.95 174.6,686.6 181.15,694 187.7,701.35 195.9,705.65 205.65,706.9 215.4,708.05 224.4,705.85 232.55,700.25 L359.8,612.55 458.9,544.25 C466.1,539.3 471.05,532.7 473.8,524.45 476.55,516.2 476.55,507.95 473.8,499.75 471.05,491.5 466.15,484.9 459,479.9 L359.8,411.55 232.55,323.9z"/>
    </g>
  </g>
</svg>