<?xml version="1.0" encoding="utf-8"?>
<!-- Generator: flash2svg, http://dissentgraphics.com/tools/flash2svg -->
<svg xmlns:xlink="http://www.w3.org/1999/xlink" id="System-Preferences" image-rendering="optimizeSpeed" baseProfile="basic" version="1.1" style="background-color:#ffffff" x="0px" y="0px" width="1024px" height="1024px" viewBox="0 0 1024 1024" enable-background="new 0 0 1024 1024" xmlns="http://www.w3.org/2000/svg">
  <defs transform="matrix(1 0 0 1 0 0) "/>
  <g id="shadow">
    <g id="shape">
      <path id="path" fill="#000000" fill-opacity="0.09803921568627451" d="M964.65,346.3 Q956.05,325.45 945.25,305.45 C941.2,297.9 936.9,290.4 932.35,283.05 912.8,251.35 888.95,221.4 860.8,193.25 768.65,101.1 657.35,55 527,55 396.65,55 285.4,101.1 193.25,193.25 101.1,285.4 55,396.65 55,527 55,657.35 101.1,768.65 193.25,860.8 285.4,952.95 396.65,999 527,999 657.35,999 768.65,952.95 860.8,860.8 911.55,810 948.35,753.4 971.15,691.05 989.7,640.2 999,585.55 999,527 999,482.1 993.55,439.45 982.6,399.05 981.35,394.5 980.05,389.95 978.7,385.45 974.6,372.15 969.9,359.1 964.65,346.3z"/>
    </g>
  </g>
  <g id="circle">
    <g id="shape2">
      <path id="path1" fill="#363F6A" fill-opacity="1" d="M969.75,392.05 C968.65,387.7 967.4,383.05 966.1,378.45 963.6,369.7 960.75,360.85 957.65,352.1 951.2,333.85 943.5,316.05 934.5,298.45 930.7,291.05 926.55,283.5 922.2,276.05 L922.175,276.05 Q891.574,224.04 845.85,178.3 C753.7,86.15 642.4,40.05 512.05,40.05 381.7,40.05 270.45,86.15 178.3,178.3 86.15,270.45 40.05,381.7 40.05,512.05 40.05,642.4 86.15,753.7 178.3,845.85 246.35,913.9 324.8,956.8 413.2,974.5 445.15,980.9 477.95,984.05 512.05,984.05 642.4,984.05 753.7,938 845.85,845.85 894.45,797.25 930.25,743.35 953.2,684.05 970.2,640.1 980.2,593.25 983.15,543.3 983.75,533.1 984.05,522.65 984.05,512.05 984.05,470.3 979.35,430.45 969.75,392.05z"/>
    </g>
  </g>
  <g id="circle1">
    <g id="shape4">
      <path id="path2" fill="#000000" fill-opacity="0.2" d="M983.15,543.3 C983.75,533.1 984.05,522.65 984.05,512.05 Q984.05,454.621 972.125,402.125 L764.05,194.05 222.05,756.05 445.875,979.875 L445.9,979.9 C467.8,982.7 489.65,984.05 512.05,984.05 642.4,984.05 753.7,938 845.85,845.85 894.45,797.25 930.25,743.35 953.2,684.05 970.2,640.1 980.2,593.25 983.15,543.3z"/>
    </g>
  </g>
  <g id="circle2">
    <g id="shape6">
      <path id="path3" fill="#CCCCCC" fill-opacity="1" d="M784.7,587.3 C757.45,560.05 724.6,546.45 686,546.45 668.6,546.45 652.2,549.25 637.05,554.8 L313.25,231.05 C304.8,222.55 294.55,218.4 282.6,218.35 Q264.6,218.4 251.9,231.1 L231.1,251.9 C222.6,260.4 218.4,270.6 218.4,282.55 218.45,294.5 222.6,304.75 231.05,313.25 L554.85,637 C554.75,637.3 554.75,637.65 554.6,637.95 L606.9,690.25 C611.95,695.3 618.1,697.85 625.3,697.85 632.3,697.85 638.25,695.5 643.25,690.7 L669.9,664.05 C674.9,659.25 680.85,656.9 687.85,656.9 695.05,656.9 701.2,659.45 706.25,664.5 L803.5,761.75 C806.9,756.75 809.8,751.55 812.4,746.15 821.15,727.9 825.55,707.85 825.55,686 825.55,647.4 811.95,614.55 784.7,587.3z M656.2,621.55 C656.2,628.75 653.65,634.9 648.6,639.95 L640,648.55 C634.95,653.6 628.8,656.15 621.6,656.15 614.5,656.2 608.3,653.65 603.2,648.55 L321.8,367.15 C316.75,362.1 314.25,355.95 314.2,348.8 314.25,341.6 316.8,335.45 321.85,330.4 L330.45,321.8 C335.5,316.75 341.65,314.2 348.8,314.2 355.95,314.15 362.15,316.7 367.2,321.75 L648.6,603.15 C653.7,608.25 656.2,614.4 656.2,621.55z M259.6,259.55 C266.3,252.85 274.5,249.45 284,249.45 293.5,249.45 301.6,252.85 308.35,259.6 315.05,266.3 318.45,274.4 318.45,283.9 318.45,293.4 315.05,301.6 308.35,308.3 301.65,315 293.45,318.4 283.95,318.4 274.45,318.4 266.35,315 259.65,308.3 252.9,301.55 249.5,293.45 249.5,283.95 249.5,274.45 252.9,266.25 259.6,259.55z"/>
      <path id="path4" fill="#999999" fill-opacity="1" d="M656.2,621.55 C656.2,614.4 653.7,608.25 648.6,603.15 L367.2,321.75 C362.15,316.7 355.95,314.15 348.8,314.2 341.65,314.2 335.5,316.75 330.45,321.8 L321.85,330.4 C316.8,335.45 314.25,341.6 314.2,348.8 314.25,355.95 316.75,362.1 321.8,367.15 L603.2,648.55 C608.3,653.65 614.5,656.2 621.6,656.15 628.8,656.15 634.95,653.6 640,648.55 L648.6,639.95 C653.65,634.9 656.2,628.75 656.2,621.55z M554.6,637.95 C549.2,652.85 546.5,668.85 546.5,685.95 546.5,724.55 560.15,757.45 587.4,784.7 614.65,811.95 647.45,825.5 686.05,825.5 698.95,825.5 711.25,824 722.9,820.9 L636.35,734.4 C631.3,729.35 628.75,723.2 628.75,716 628.75,708.8 631.3,702.65 636.35,697.6 L643.25,690.7 C638.25,695.5 632.3,697.85 625.3,697.85 618.1,697.85 611.95,695.3 606.9,690.25 L554.6,637.95z"/>
    </g>
  </g>
  <g id="ico-shadow">
    <g id="element4" transform="matrix(1 0 0 1 0 0) "/>
  </g>
</svg>