<?xml version="1.0" encoding="utf-8"?>
<!-- Generator: flash2svg, http://dissentgraphics.com/tools/flash2svg -->
<svg xmlns:xlink="http://www.w3.org/1999/xlink" id="Apps-CleanMyDrive" image-rendering="optimizeSpeed" baseProfile="basic" version="1.1" style="background-color:#ffffff" x="0px" y="0px" width="1024px" height="1024px" viewBox="0 0 1024 1024" enable-background="new 0 0 1024 1024" xmlns="http://www.w3.org/2000/svg">
  <defs transform="matrix(1 0 0 1 0 0) "/>
  <g id="shadow">
    <g id="shape">
      <path id="path" fill="#000000" fill-opacity="0.09803921568627451" d="M965.65,347.3 Q957.05,326.45 946.25,306.45 C942.2,298.9 937.9,291.4 933.35,284.05 913.8,252.35 889.95,222.4 861.8,194.25 769.65,102.1 658.35,56 528,56 397.65,56 286.4,102.1 194.25,194.25 102.1,286.4 56,397.65 56,528 56,658.35 102.1,769.65 194.25,861.8 286.4,953.95 397.65,1000 528,1000 658.35,1000 769.65,953.95 861.8,861.8 912.55,811 949.35,754.4 972.15,692.05 990.7,641.2 1000,586.55 1000,528 1000,483.1 994.55,440.45 983.6,400.05 982.35,395.5 981.05,390.95 979.7,386.45 975.6,373.15 970.9,360.1 965.65,347.3z"/>
    </g>
  </g>
  <g id="LogoBg">
    <g id="shape2">
      <path id="path1" fill="#B83169" fill-opacity="1" d="M847,178.05 C846.65,177.7 846.35,177.4 846,177.05 801.75,133 753.1,99.55 700.1,76.7 642.75,51.95 580.25,39.6 512.7,39.6 445,39.6 382.45,52 325.05,76.85 271.75,99.9 222.9,133.6 178.45,178.05 124.1,232.4 85.75,293.4 63.4,361.05 47.8,408.25 40,458.65 40,512.3 40,642.85 86.15,754.3 178.45,846.6 260.6,928.8 357.95,974.4 470.4,983.35 484.25,984.5 498.35,985.05 512.7,985.05 520.2,985.05 527.65,984.9 534.7,984.6 656,979.6 760,933.6 847,846.6 893.9,799.7 928.9,747.85 951.95,691.1 958.6,674.8 964.25,658.05 968.95,640.8 979.95,600.35 985.45,557.5 985.45,512.3 Q985.45,432.401 962.4,362.05 C940.8,296 903.65,235.9 851,182.1 849.8,180.85 848.4,179.45 847,178.05z M833.85,190.35 C835.4,191.9 836.9,193.45 838.25,194.8 888.25,246 923.65,303.15 944.4,365.8 944.45,366.05 944.55,366.35 944.65,366.65 959.6,412 967.1,460.5 967.1,512.05 967.1,555.45 961.8,596.7 951.25,635.75 946.7,652.25 941.25,668.35 934.85,684.15 912.65,738.8 879,788.65 833.85,833.85 750,917.65 649.8,961.9 533.25,966.65 526.25,966.95 519.2,967.1 512.05,967.1 498.25,967.1 484.7,966.55 471.35,965.45 363.1,956.85 269.45,913 190.35,833.85 101.5,745 57.05,637.75 57.05,512.05 57.05,460.15 64.65,411.4 79.9,365.55 101.35,300.95 138.2,242.45 190.35,190.35 233,147.65 279.95,115.2 331.05,93.1 386.5,69.05 446.8,57.05 512.05,57.05 574.55,57.05 632.5,68 685.2,89.75 688.4,91.05 691.15,92.25 693.9,93.45 744.55,115.5 791,147.6 833.3,189.8 833.45,189.95 833.65,190.15 833.85,190.35z"/>
      <path id="path2" fill="#ED4489" fill-opacity="1" d="M833.85,190.35 C833.65,190.15 833.45,189.95 833.3,189.8 791,147.6 744.55,115.5 693.9,93.45 691.15,92.25 688.4,91.05 685.2,89.75 632.5,68 574.55,57.05 512.05,57.05 446.8,57.05 386.5,69.05 331.05,93.1 279.95,115.2 233,147.65 190.35,190.35 138.2,242.45 101.35,300.95 79.9,365.55 64.65,411.4 57.05,460.15 57.05,512.05 57.05,637.75 101.5,745 190.35,833.85 269.45,913 363.1,956.85 471.35,965.45 484.7,966.55 498.25,967.1 512.05,967.1 519.2,967.1 526.25,966.95 533.25,966.65 649.8,961.9 750,917.65 833.85,833.85 879,788.65 912.65,738.8 934.85,684.15 941.25,668.35 946.7,652.25 951.25,635.75 961.8,596.7 967.1,555.45 967.1,512.05 967.1,460.5 959.6,412 944.65,366.65 944.55,366.35 944.45,366.05 944.4,365.8 923.65,303.15 888.25,246 838.25,194.8 836.9,193.45 835.4,191.9 833.85,190.35z M676.9,512.05 C676.85,557.6 660.75,596.45 628.6,628.6 596.45,660.75 557.6,676.85 512.05,676.9 466.5,676.85 427.65,660.75 395.5,628.6 363.35,596.45 347.25,557.6 347.25,512.05 347.25,486.6 352.3,463.25 362.3,442.05 370.25,425.2 381.3,409.7 395.5,395.5 406.85,384.15 419.05,374.8 432.05,367.45 455.95,353.95 482.6,347.25 512.05,347.25 538.4,347.25 562.55,352.65 584.4,363.4 600.1,371.15 614.65,381.65 628.1,395 628.25,395.15 628.45,395.35 628.6,395.5 630.15,397.05 631.7,398.65 633,400.05 644.65,412.55 654,426 660.85,440 671.6,462.1 676.85,485.95 676.9,512.05z"/>
      <path id="path5" fill="#A5A4A4" fill-opacity="1" d="M676.9,512.05 C676.85,485.95 671.6,462.1 660.85,440 654,426 644.65,412.55 633,400.05 631.7,398.65 630.15,397.05 628.6,395.5 628.45,395.35 628.25,395.15 628.1,395 614.65,381.65 600.1,371.15 584.4,363.4 562.55,352.65 538.4,347.25 512.05,347.25 482.6,347.25 455.95,353.95 432.05,367.45 419.05,374.8 406.85,384.15 395.5,395.5 381.3,409.7 370.25,425.2 362.3,442.05 352.3,463.25 347.25,486.6 347.25,512.05 347.25,557.6 363.35,596.45 395.5,628.6 427.65,660.75 466.5,676.85 512.05,676.9 557.6,676.85 596.45,660.75 628.6,628.6 660.75,596.45 676.85,557.6 676.9,512.05z M410.1,410.1 C438.25,381.95 472.25,367.85 512.05,367.9 551.85,367.85 585.85,381.95 614,410.1 642.15,438.25 656.25,472.25 656.25,512.05 656.25,551.85 642.15,585.85 614,614 585.85,642.15 551.85,656.25 512.05,656.25 472.25,656.25 438.25,642.15 410.1,614 381.95,585.85 367.85,551.85 367.9,512.05 367.85,472.25 381.95,438.25 410.1,410.1z"/>
      <path id="path8" fill="#CCCCCC" fill-opacity="1" d="M410.1,410.1 C381.95,438.25 367.85,472.25 367.9,512.05 367.85,551.85 381.95,585.85 410.1,614 438.25,642.15 472.25,656.25 512.05,656.25 551.85,656.25 585.85,642.15 614,614 642.15,585.85 656.25,551.85 656.25,512.05 656.25,472.25 642.15,438.25 614,410.1 585.85,381.95 551.85,367.85 512.05,367.9 472.25,367.85 438.25,381.95 410.1,410.1z M576.7,576.7 C558.85,594.55 537.3,603.45 512.05,603.5 486.8,603.45 465.25,594.55 447.4,576.7 429.55,558.85 420.65,537.3 420.65,512.05 420.65,486.8 429.55,465.25 447.4,447.4 465.25,429.55 486.8,420.65 512.05,420.65 537.3,420.65 558.85,429.55 576.7,447.4 594.55,465.25 603.45,486.8 603.5,512.05 603.45,537.3 594.55,558.85 576.7,576.7z"/>
      <path id="path11" fill="#A5A4A4" fill-opacity="1" d="M576.7,576.7 C594.55,558.85 603.45,537.3 603.5,512.05 603.45,486.8 594.55,465.25 576.7,447.4 558.85,429.55 537.3,420.65 512.05,420.65 486.8,420.65 465.25,429.55 447.4,447.4 429.55,465.25 420.65,486.8 420.65,512.05 420.65,537.3 429.55,558.85 447.4,576.7 465.25,594.55 486.8,603.45 512.05,603.5 537.3,603.45 558.85,594.55 576.7,576.7z M562.1,462 C575.95,475.85 582.85,492.5 582.85,512.05 582.85,531.6 575.95,548.25 562.1,562.1 548.25,575.95 531.6,582.85 512.05,582.85 492.5,582.85 475.85,575.95 462,562.1 448.15,548.25 441.25,531.6 441.3,512.05 441.25,492.5 448.15,475.85 462,462 475.85,448.15 492.5,441.25 512.05,441.3 531.6,441.25 548.25,448.15 562.1,462z"/>
    </g>
  </g>
  <g id="Calque.__201">
    <g id="shape19">
      <path id="path17" fill="#E4E4E4" fill-opacity="1" d="M646.25,512.05 C646.25,475 633.15,443.4 606.95,417.15 580.7,390.95 549.1,377.85 512.05,377.9 475,377.85 443.4,390.95 417.15,417.15 390.95,443.4 377.85,475 377.9,512.05 377.85,549.1 390.95,580.7 417.15,606.95 443.4,633.15 475,646.25 512.05,646.25 549.1,646.25 580.7,633.15 606.95,606.95 633.15,580.7 646.25,549.1 646.25,512.05z M583.75,583.75 C564,603.55 540.1,613.45 512.05,613.5 484,613.45 460.1,603.55 440.35,583.75 420.55,564 410.65,540.1 410.65,512.05 410.65,484 420.55,460.1 440.35,440.35 460.1,420.55 484,410.65 512.05,410.65 540.1,410.65 564,420.55 583.75,440.35 603.55,460.1 613.45,484 613.5,512.05 Q613.45,554.1 583.75,583.75z"/>
    </g>
  </g>
  <g id="inner">
    <g id="shape24">
      <path id="path21" fill="#B83169" fill-opacity="1" d="M669.2,563.4 Q676.9,539.3 676.9,512.05 C676.85,485.8 671.5,461.8 660.85,440 653.85,425.75 644.55,412.4 633,400.05 631.55,398.5 630.1,397 628.6,395.5 628.45,395.35 628.25,395.15 628.1,395 627.75,394.65 627.45,394.35 627.1,394 L612.5,408.6 C613,409.1 613.5,409.6 614,410.1 642.15,438.25 656.25,472.25 656.25,512.05 656.25,551.85 642.15,585.85 614,614 585.85,642.15 551.85,656.25 512.05,656.25 472.25,656.25 438.25,642.15 410.1,614 409.6,613.5 409.1,613 408.6,612.5 L394,627.1 C394.5,627.6 395,628.1 395.5,628.6 427.65,660.75 466.5,676.85 512.05,676.9 544.1,676.85 572.85,668.9 598.3,652.95 608.95,646.25 619.05,638.15 628.6,628.6 647.95,609.25 661.45,587.55 669.2,563.4z M576.7,447.4 C576.2,446.9 575.7,446.4 575.2,445.95 L560.6,460.55 C561.1,461 561.6,461.5 562.1,462 575.95,475.85 582.85,492.5 582.85,512.05 582.85,531.6 575.95,548.25 562.1,562.1 548.25,575.95 531.6,582.85 512.05,582.85 492.5,582.85 475.85,575.95 462,562.1 461.5,561.6 461,561.1 460.55,560.6 L445.95,575.2 C446.4,575.7 446.9,576.2 447.4,576.7 465.25,594.55 486.8,603.45 512.05,603.5 537.3,603.45 558.85,594.55 576.7,576.7 594.55,558.85 603.45,537.3 603.5,512.05 603.45,486.8 594.55,465.25 576.7,447.4z"/>
      <path id="path22" fill="#D23175" fill-opacity="1" d="M432.05,367.45 C419.05,374.8 406.85,384.15 395.5,395.5 392.4,398.6 389.45,401.75 386.65,405 376.6,416.55 368.5,428.9 362.3,442.05 352.25,463.3 347.25,486.6 347.25,512.05 347.25,556.9 362.85,595.25 394,627.1 L408.6,612.5 C381.45,584.65 367.85,551.15 367.9,512.05 367.85,472.25 381.95,438.25 410.1,410.1 438.25,381.95 472.25,367.85 512.05,367.9 551.15,367.85 584.65,381.45 612.5,408.6 L627.1,394 C613.95,381.15 599.75,370.95 584.4,363.4 562.55,352.65 538.4,347.25 512.05,347.25 482.6,347.25 455.9,354 432.05,367.45z M512.05,441.3 C530.9,441.25 547.05,447.7 560.6,460.55 L575.2,445.95 C557.65,429.1 536.6,420.65 512.05,420.65 486.8,420.65 465.25,429.55 447.4,447.4 429.55,465.25 420.65,486.8 420.65,512.05 420.65,536.6 429.1,557.65 445.95,575.2 L460.55,560.6 C447.7,547.05 441.25,530.9 441.3,512.05 441.25,492.5 448.15,475.85 462,462 475.85,448.15 492.5,441.25 512.05,441.3z"/>
      <path id="path23" fill="#833755" fill-opacity="1" d="M614,410.1 C613.5,409.6 613,409.1 612.5,408.6 584.65,381.45 551.15,367.85 512.05,367.9 472.25,367.85 438.25,381.95 410.1,410.1 381.95,438.25 367.85,472.25 367.9,512.05 367.85,551.15 381.45,584.65 408.6,612.5 409.1,613 409.6,613.5 410.1,614 438.25,642.15 472.25,656.25 512.05,656.25 551.85,656.25 585.85,642.15 614,614 642.15,585.85 656.25,551.85 656.25,512.05 656.25,472.25 642.15,438.25 614,410.1z M584.25,440.85 C584.1,440.7 583.9,440.5 583.75,440.35 578,434.6 571.95,429.7 565.5,425.6 549.75,415.65 531.95,410.65 512.05,410.65 484,410.65 460.1,420.55 440.35,440.35 420.55,460.1 410.65,484 410.65,512.05 410.65,531.95 415.65,549.75 425.6,565.5 429.7,571.95 434.6,578 440.35,583.75 440.5,583.9 440.7,584.1 440.85,584.25 460.5,603.7 484.25,613.45 512.05,613.5 540.1,613.45 564,603.55 583.75,583.75 603.55,564 613.45,540.1 613.5,512.05 613.45,484.25 603.7,460.5 584.25,440.85z"/>
      <path id="path24" fill="#F267A0" fill-opacity="1" d="M584.25,440.85 L607.45,417.65 C607.3,417.5 607.1,417.3 606.95,417.15 601.25,411.5 595.3,406.45 589.15,402 566.75,385.9 541.05,377.85 512.05,377.9 475,377.85 443.4,390.95 417.15,417.15 390.95,443.4 377.85,475 377.9,512.05 377.85,541.05 385.9,566.75 402,589.15 406.45,595.3 411.5,601.25 417.15,606.95 417.3,607.1 417.5,607.3 417.65,607.45 L440.85,584.25 C440.7,584.1 440.5,583.9 440.35,583.75 434.6,578 429.7,571.95 425.6,565.5 415.65,549.75 410.65,531.95 410.65,512.05 410.65,484 420.55,460.1 440.35,440.35 460.1,420.55 484,410.65 512.05,410.65 531.95,410.65 549.75,415.65 565.5,425.6 571.95,429.7 578,434.6 583.75,440.35 583.9,440.5 584.1,440.7 584.25,440.85z"/>
      <path id="path25" fill="#D42C75" fill-opacity="1" d="M607.45,417.65 L584.25,440.85 C603.7,460.5 613.45,484.25 613.5,512.05 613.45,540.1 603.55,564 583.75,583.75 564,603.55 540.1,613.45 512.05,613.5 484.25,613.45 460.5,603.7 440.85,584.25 L417.65,607.45 C443.8,633.3 475.25,646.25 512.05,646.25 549.1,646.25 580.7,633.15 606.95,606.95 633.15,580.7 646.25,549.1 646.25,512.05 646.25,475.25 633.3,443.8 607.45,417.65z M562.1,462 C575.95,475.85 582.85,492.5 582.85,512.05 582.85,531.6 575.95,548.25 562.1,562.1 548.25,575.95 531.6,582.85 512.05,582.85 492.5,582.85 475.85,575.95 462,562.1 461.5,561.6 461,561.1 460.55,560.6 447.7,547.05 441.25,530.9 441.3,512.05 441.25,492.5 448.15,475.85 462,462 475.85,448.15 492.5,441.25 512.05,441.3 530.9,441.25 547.05,447.7 560.6,460.55 561.1,461 561.6,461.5 562.1,462z"/>
    </g>
  </g>
  <g id="bg">
    <g id="shape42">
      <path id="path35" fill="#FFFFFF" fill-opacity="0.2" d="M766.2,252.825 L766.225,252.85 L766.25,252.85 C801.7,288.35 827.6,327.75 844,371.1 847.1,379.3 852.65,385.2 860.7,388.85 868.7,392.5 876.8,392.75 884.95,389.65 893.15,386.55 899.05,381 902.7,373 906.35,364.95 906.6,356.85 903.55,348.7 884.2,297.05 853.4,250.1 811.2,207.9 L811.175,207.85 L811.2,207.875 L811.2,207.85 C763.05,159.8 708.8,126.5 648.45,108.05 640.1,105.5 632.05,106.25 624.3,110.4 616.5,114.5 611.3,120.75 608.75,129.1 606.15,137.45 606.9,145.5 611.05,153.3 615.15,161.05 621.4,166.25 629.75,168.85 680.3,184.5 725.8,212.5 766.2,252.85 M160.35,631.3 C152.3,627.65 144.2,627.4 136.05,630.5 127.85,633.6 121.95,639.15 118.3,647.2 114.65,655.2 114.4,663.3 117.5,671.45 136.85,723.1 167.6,770.05 209.8,812.3 L209.8,812.275 L209.825,812.3 L209.85,812.3 C257.95,860.35 312.2,893.65 372.55,912.1 380.9,914.65 388.95,913.9 396.75,909.8 404.5,905.65 409.7,899.45 412.3,891.1 414.85,882.75 414.1,874.65 410,866.9 405.85,859.1 399.6,853.9 391.25,851.3 340.7,835.65 295.2,807.65 254.8,767.35 L254.775,767.3 L254.8,767.325 L254.8,767.3 C219.35,731.8 193.4,692.4 177.05,649.05 173.9,640.85 168.35,634.95 160.35,631.3z"/>
    </g>
  </g>
  <mask id="LogoBg1">
    <g id="g">
      <g id="shape48">
        <path id="path39" fill="#FFFFFF" fill-opacity="1" d="M847,178.05 C846.65,177.7 846.35,177.4 846,177.05 801.75,133 753.1,99.55 700.1,76.7 642.75,51.95 580.25,39.6 512.7,39.6 445,39.6 382.45,52 325.05,76.85 271.75,99.9 222.9,133.6 178.45,178.05 124.1,232.4 85.75,293.4 63.4,361.05 47.8,408.25 40,458.65 40,512.3 40,642.85 86.15,754.3 178.45,846.6 260.6,928.8 357.95,974.4 470.4,983.35 484.25,984.5 498.35,985.05 512.7,985.05 520.2,985.05 527.65,984.9 534.7,984.6 656,979.6 760,933.6 847,846.6 893.9,799.7 928.9,747.85 951.95,691.1 958.6,674.8 964.25,658.05 968.95,640.8 979.95,600.35 985.45,557.5 985.45,512.3 Q985.45,432.401 962.4,362.05 C940.8,296 903.65,235.9 851,182.1 849.8,180.85 848.4,179.45 847,178.05z M833.85,190.35 C835.4,191.9 836.9,193.45 838.25,194.8 888.25,246 923.65,303.15 944.4,365.8 944.45,366.05 944.55,366.35 944.65,366.65 959.6,412 967.1,460.5 967.1,512.05 967.1,555.45 961.8,596.7 951.25,635.75 946.7,652.25 941.25,668.35 934.85,684.15 912.65,738.8 879,788.65 833.85,833.85 750,917.65 649.8,961.9 533.25,966.65 526.25,966.95 519.2,967.1 512.05,967.1 498.25,967.1 484.7,966.55 471.35,965.45 363.1,956.85 269.45,913 190.35,833.85 101.5,745 57.05,637.75 57.05,512.05 57.05,460.15 64.65,411.4 79.9,365.55 101.35,300.95 138.2,242.45 190.35,190.35 233,147.65 279.95,115.2 331.05,93.1 386.5,69.05 446.8,57.05 512.05,57.05 574.55,57.05 632.5,68 685.2,89.75 688.4,91.05 691.15,92.25 693.9,93.45 744.55,115.5 791,147.6 833.3,189.8 833.45,189.95 833.65,190.15 833.85,190.35z"/>
        <path id="path40" fill="#FFFFFF" fill-opacity="1" d="M833.85,190.35 C833.65,190.15 833.45,189.95 833.3,189.8 791,147.6 744.55,115.5 693.9,93.45 691.15,92.25 688.4,91.05 685.2,89.75 632.5,68 574.55,57.05 512.05,57.05 446.8,57.05 386.5,69.05 331.05,93.1 279.95,115.2 233,147.65 190.35,190.35 138.2,242.45 101.35,300.95 79.9,365.55 64.65,411.4 57.05,460.15 57.05,512.05 57.05,637.75 101.5,745 190.35,833.85 269.45,913 363.1,956.85 471.35,965.45 484.7,966.55 498.25,967.1 512.05,967.1 519.2,967.1 526.25,966.95 533.25,966.65 649.8,961.9 750,917.65 833.85,833.85 879,788.65 912.65,738.8 934.85,684.15 941.25,668.35 946.7,652.25 951.25,635.75 961.8,596.7 967.1,555.45 967.1,512.05 967.1,460.5 959.6,412 944.65,366.65 944.55,366.35 944.45,366.05 944.4,365.8 923.65,303.15 888.25,246 838.25,194.8 836.9,193.45 835.4,191.9 833.85,190.35z M676.9,512.05 C676.85,557.6 660.75,596.45 628.6,628.6 596.45,660.75 557.6,676.85 512.05,676.9 466.5,676.85 427.65,660.75 395.5,628.6 363.35,596.45 347.25,557.6 347.25,512.05 347.25,486.6 352.3,463.25 362.3,442.05 370.25,425.2 381.3,409.7 395.5,395.5 406.85,384.15 419.05,374.8 432.05,367.45 455.95,353.95 482.6,347.25 512.05,347.25 538.4,347.25 562.55,352.65 584.4,363.4 600.1,371.15 614.65,381.65 628.1,395 628.25,395.15 628.45,395.35 628.6,395.5 630.15,397.05 631.7,398.65 633,400.05 644.65,412.55 654,426 660.85,440 671.6,462.1 676.85,485.95 676.9,512.05z"/>
        <path id="path43" fill="#FFFFFF" fill-opacity="1" d="M676.9,512.05 C676.85,485.95 671.6,462.1 660.85,440 654,426 644.65,412.55 633,400.05 631.7,398.65 630.15,397.05 628.6,395.5 628.45,395.35 628.25,395.15 628.1,395 614.65,381.65 600.1,371.15 584.4,363.4 562.55,352.65 538.4,347.25 512.05,347.25 482.6,347.25 455.95,353.95 432.05,367.45 419.05,374.8 406.85,384.15 395.5,395.5 381.3,409.7 370.25,425.2 362.3,442.05 352.3,463.25 347.25,486.6 347.25,512.05 347.25,557.6 363.35,596.45 395.5,628.6 427.65,660.75 466.5,676.85 512.05,676.9 557.6,676.85 596.45,660.75 628.6,628.6 660.75,596.45 676.85,557.6 676.9,512.05z M410.1,410.1 C438.25,381.95 472.25,367.85 512.05,367.9 551.85,367.85 585.85,381.95 614,410.1 642.15,438.25 656.25,472.25 656.25,512.05 656.25,551.85 642.15,585.85 614,614 585.85,642.15 551.85,656.25 512.05,656.25 472.25,656.25 438.25,642.15 410.1,614 381.95,585.85 367.85,551.85 367.9,512.05 367.85,472.25 381.95,438.25 410.1,410.1z"/>
        <path id="path46" fill="#FFFFFF" fill-opacity="1" d="M410.1,410.1 C381.95,438.25 367.85,472.25 367.9,512.05 367.85,551.85 381.95,585.85 410.1,614 438.25,642.15 472.25,656.25 512.05,656.25 551.85,656.25 585.85,642.15 614,614 642.15,585.85 656.25,551.85 656.25,512.05 656.25,472.25 642.15,438.25 614,410.1 585.85,381.95 551.85,367.85 512.05,367.9 472.25,367.85 438.25,381.95 410.1,410.1z M576.7,576.7 C558.85,594.55 537.3,603.45 512.05,603.5 486.8,603.45 465.25,594.55 447.4,576.7 429.55,558.85 420.65,537.3 420.65,512.05 420.65,486.8 429.55,465.25 447.4,447.4 465.25,429.55 486.8,420.65 512.05,420.65 537.3,420.65 558.85,429.55 576.7,447.4 594.55,465.25 603.45,486.8 603.5,512.05 603.45,537.3 594.55,558.85 576.7,576.7z"/>
        <path id="path49" fill="#FFFFFF" fill-opacity="1" d="M576.7,576.7 C594.55,558.85 603.45,537.3 603.5,512.05 603.45,486.8 594.55,465.25 576.7,447.4 558.85,429.55 537.3,420.65 512.05,420.65 486.8,420.65 465.25,429.55 447.4,447.4 429.55,465.25 420.65,486.8 420.65,512.05 420.65,537.3 429.55,558.85 447.4,576.7 465.25,594.55 486.8,603.45 512.05,603.5 537.3,603.45 558.85,594.55 576.7,576.7z M562.1,462 C575.95,475.85 582.85,492.5 582.85,512.05 582.85,531.6 575.95,548.25 562.1,562.1 548.25,575.95 531.6,582.85 512.05,582.85 492.5,582.85 475.85,575.95 462,562.1 448.15,548.25 441.25,531.6 441.3,512.05 441.25,492.5 448.15,475.85 462,462 475.85,448.15 492.5,441.25 512.05,441.3 531.6,441.25 548.25,448.15 562.1,462z"/>
      </g>
    </g>
  </mask>
  <g id="masked" mask="url(#LogoBg1)">
    <g id="Calque.__202">
      <g id="shape46">
        <path id="path38" fill="#FFFFFF" fill-opacity="0.14901960784313725" d="M576.45,148.65 Q303.2,242.4 16.45,157.2 L-95.55,654.25 C182.4,774.75 479.3,773.55 795.1,650.65 L576.45,148.65z"/>
      </g>
    </g>
  </g>
  <g id="object-shadow">
    <g id="shape65">
      <path id="path55" fill="#333333" fill-opacity="1" d="M789.1,644.65 C791.9,650.65 796.3,652.25 802.35,649.45 L815.05,643.55 580.35,139.5 567.65,145.4 C561.6,148.2 560.05,152.7 562.85,158.7 L789.1,644.65z"/>
      <path id="path56" fill="#666666" fill-opacity="1" d="M824.1,639.35 C830.15,636.5 831.75,632.05 828.95,626.05 L602.7,140.1 C599.9,134.1 595.45,132.45 589.4,135.3 L580.35,139.5 815.05,643.55 824.1,639.35z"/>
    </g>
  </g>
  <g id="object">
    <g id="shape69">
      <path id="path57" fill="#999999" fill-opacity="1" d="M662.05,291.55 C661.9,288.6 660.75,286.15 658.6,284.15 L375.25,27.45 C373,25.5 370.45,24.55 367.55,24.7 364.7,24.85 362.25,25.95 360.3,28.05 L659.25,299.25 Q659.3,299.25 659.3,299.2 C661.25,297 662.2,294.45 662.05,291.55z"/>
      <path id="path58" fill="#666666" fill-opacity="1" d="M651.95,302.7 C654.85,302.55 657.3,301.4 659.25,299.25 L360.3,28.05 C360.25,28.1 360.2,28.15 360.15,28.2 358.2,30.4 357.25,32.95 357.4,35.9 357.55,38.8 358.7,41.25 360.9,43.25 L644.25,299.95 C646.45,301.9 649,302.85 651.95,302.7z"/>
    </g>
  </g>
  <g id="Calque.__203">
    <g id="shape73">
      <path id="path59" fill="#333333" fill-opacity="1" d="M656.55,296.8 C657.9,295.5 658.55,293.9 658.55,292.05 Q658.55,289.25 656.55,287.25 C655.25,285.95 653.65,285.3 651.8,285.3 649.95,285.3 648.35,285.95 647,287.25 645.7,288.6 645.05,290.2 645.05,292.05 645.05,293.9 645.7,295.5 647,296.8 648.35,298.15 649.95,298.8 651.8,298.8 653.65,298.8 655.25,298.15 656.55,296.8z M373.3,40.55 C374.65,39.25 375.3,37.65 375.3,35.8 375.3,33.95 374.65,32.35 373.3,31 372,29.7 370.4,29.05 368.55,29.05 366.7,29.05 365.1,29.7 363.75,31 362.45,32.35 361.8,33.95 361.8,35.8 361.8,37.65 362.45,39.25 363.75,40.55 365.1,41.9 366.7,42.55 368.55,42.55 370.4,42.55 372,41.9 373.3,40.55z"/>
    </g>
  </g>
</svg>