<?xml version="1.0" encoding="utf-8"?>
<!-- Generator: flash2svg, http://dissentgraphics.com/tools/flash2svg -->
<svg xmlns:xlink="http://www.w3.org/1999/xlink" id="Subler" image-rendering="optimizeSpeed" baseProfile="basic" version="1.1" style="background-color:#ffffff" x="0px" y="0px" width="1024px" height="1024px" viewBox="0 0 1024 1024" enable-background="new 0 0 1024 1024" xmlns="http://www.w3.org/2000/svg">
  <defs transform="matrix(1 0 0 1 0 0) "/>
  <g id="shadow">
    <g id="shape">
      <path id="path" fill="#000000" fill-opacity="0.09803921568627451" d="M969.65,351.3 Q961.05,330.45 950.25,310.45 C946.2,302.9 941.9,295.4 937.35,288.05 917.8,256.35 893.95,226.4 865.8,198.25 773.65,106.1 662.35,60 532,60 401.65,60 290.4,106.1 198.25,198.25 106.1,290.4 60,401.65 60,532 60,662.35 106.1,773.65 198.25,865.8 290.4,957.95 401.65,1004 532,1004 662.35,1004 773.65,957.95 865.8,865.8 916.55,815 953.35,758.4 976.15,696.05 994.7,645.2 1004,590.55 1004,532 1004,487.1 998.55,444.45 987.6,404.05 986.35,399.5 985.05,394.95 983.7,390.45 979.6,377.15 974.9,364.1 969.65,351.3z"/>
    </g>
  </g>
  <g id="bg">
    <g id="shape2">
      <path id="path1" fill="#535C7C" fill-opacity="1" d="M966.1,378.45 C965.1,375.05 964.1,371.6 962.95,367.95 961.35,362.8 959.55,357.45 957.65,352.1 951.2,333.85 943.5,316.05 934.5,298.45 930.7,291.05 926.55,283.5 922.2,276.05 901.9,241.55 876.4,208.85 845.85,178.3 773.25,105.7 688.7,61.65 592.2,46.25 575.95,43.65 559.4,41.85 542.15,40.9 532.45,40.35 522.3,40.05 512.05,40.05 502.7,40.05 493.45,40.3 484.15,40.8 365.8,46.9 263.85,92.75 178.3,178.3 Q40.05,316.55 40.05,512.05 C40.05,642.4 86.15,753.7 178.3,845.85 235,902.5 298.85,941.75 369.4,963.4 406.15,974.65 444.2,981.25 484.15,983.35 484.3,983.35 484.4,983.35 484.55,983.35 493.05,983.8 501.15,984.05 509.05,984.05 510.25,984.05 511.15,984.05 512.05,984.05 522.35,984.05 532.55,983.75 542.15,983.25 544.65,983.1 546.9,982.95 549.1,982.8 569.3,981.35 589,978.75 607.8,975.1 615.75,973.55 623.6,971.8 631.2,969.95 712,949.65 783.35,908.35 845.85,845.85 894.45,797.25 930.25,743.35 953.2,684.05 971.65,636.4 981.85,585.25 983.75,530.55 983.95,524.5 984.05,518.3 984.05,512.05 984.05,511.4 984.05,510.7 984.05,510.05 984.05,509.7 984.05,509.4 984.05,509.05 983.85,468.4 979.1,429.55 969.75,392.05 968.65,387.7 967.4,383.05 966.1,378.45z"/>
    </g>
  </g>
  <g id="bg1">
    <g id="shape4">
      <path id="path2" fill="#000000" fill-opacity="0.2" d="M962.95,367.95 C962.75,367.3 962.55,366.65 962.35,366.05 L962.325,366.025 L774.35,178.05 253.65,198.275 243.95,837.05 370.7,963.8 C406.65,974.75 444.5,981.3 484.15,983.35 484.3,983.35 484.4,983.35 484.55,983.35 493.05,983.8 501.15,984.05 509.05,984.05 Q510.55,984.05 512.05,984.05 C522.35,984.05 532.55,983.75 542.15,983.25 544.65,983.1 546.9,982.95 549.1,982.8 569.3,981.35 589,978.75 607.8,975.1 615.75,973.55 623.6,971.8 631.2,969.95 712,949.65 783.35,908.35 845.85,845.85 894.45,797.25 930.25,743.35 953.2,684.05 971.65,636.4 981.85,585.25 983.75,530.55 983.95,524.5 984.05,518.3 984.05,512.05 984.05,511.4 984.05,510.7 984.05,510.05 984.05,509.7 984.05,509.4 984.05,509.05 983.85,468.4 979.1,429.55 969.75,392.05 968.65,387.7 967.4,383.05 966.1,378.45 965.1,375.05 964.1,371.6 962.95,367.95z"/>
    </g>
  </g>
  <g id="Calque.__203">
    <g id="shape6">
      <path id="path3" fill="#1A1C29" fill-opacity="1" d="M774.65,178.35 C768.95,172.6 762.05,169.75 754,169.75 L264.3,169.75 C256.25,169.75 249.35,172.6 243.65,178.35 237.9,184.05 235.05,190.95 235.05,199 L235.05,816.1 C235.05,824.15 237.9,831.05 243.65,836.75 249.35,842.5 256.25,845.35 264.3,845.35 L754,845.35 C762.05,845.35 768.95,842.5 774.65,836.75 780.4,831.05 783.25,824.15 783.25,816.1 L783.25,199 Q783.25,186.9 774.65,178.35z M315.35,214.1 L315.35,281.95 C315.35,288.4 312.05,291.7 305.55,291.7 L276.3,291.7 C269.8,291.7 266.55,288.4 266.55,281.95 L266.55,214.1 C266.55,207.6 269.8,204.35 276.3,204.35 L305.55,204.35 C312.05,204.35 315.35,207.6 315.35,214.1z M315.35,341.1 L315.35,408.95 C315.35,415.4 312.05,418.7 305.55,418.7 L276.3,418.7 C269.8,418.7 266.55,415.4 266.55,408.95 L266.55,341.1 C266.55,334.6 269.8,331.35 276.3,331.35 L305.55,331.35 C312.05,331.35 315.35,334.6 315.35,341.1z M276.3,458.35 L305.55,458.35 C312.05,458.35 315.35,461.6 315.35,468.1 L315.35,535.95 C315.35,542.4 312.05,545.7 305.55,545.7 L276.3,545.7 C269.8,545.7 266.55,542.4 266.55,535.95 L266.55,468.1 C266.55,461.6 269.8,458.35 276.3,458.35z M305.55,585.35 C312.05,585.35 315.35,588.6 315.35,595.1 L315.35,662.95 C315.35,669.45 312.05,672.7 305.55,672.7 L276.3,672.7 C269.8,672.7 266.55,669.45 266.55,662.95 L266.55,595.1 C266.55,588.6 269.8,585.35 276.3,585.35 L305.55,585.35z M315.35,722.1 L315.35,789.95 C315.35,796.45 312.05,799.7 305.55,799.7 L276.3,799.7 C269.8,799.7 266.55,796.45 266.55,789.95 L266.55,722.1 C266.55,715.6 269.8,712.35 276.3,712.35 L305.55,712.35 C312.05,712.35 315.35,715.6 315.35,722.1z M750.2,219.25 L750.2,287.1 C750.2,293.6 746.9,296.85 740.45,296.85 L711.15,296.85 C704.7,296.85 701.4,293.6 701.4,287.1 L701.4,219.25 C701.4,212.75 704.7,209.5 711.15,209.5 L740.45,209.5 C746.9,209.5 750.2,212.75 750.2,219.25z M711.15,336.5 L740.45,336.5 C746.9,336.5 750.2,339.75 750.2,346.25 L750.2,414.1 C750.2,420.6 746.9,423.85 740.45,423.85 L711.15,423.85 C704.7,423.85 701.4,420.6 701.4,414.1 L701.4,346.25 C701.4,339.75 704.7,336.5 711.15,336.5z M750.2,473.25 L750.2,541.1 C750.2,547.6 746.9,550.85 740.45,550.85 L711.15,550.85 C704.7,550.85 701.4,547.6 701.4,541.1 L701.4,473.25 C701.4,466.8 704.7,463.5 711.15,463.5 L740.45,463.5 C746.9,463.5 750.2,466.8 750.2,473.25z M740.45,590.5 C746.9,590.5 750.2,593.8 750.2,600.25 L750.2,668.1 C750.2,674.6 746.9,677.85 740.45,677.85 L711.15,677.85 C704.7,677.85 701.4,674.6 701.4,668.1 L701.4,600.25 C701.4,593.8 704.7,590.5 711.15,590.5 L740.45,590.5z M711.15,717.5 L740.45,717.5 C746.9,717.5 750.2,720.8 750.2,727.25 L750.2,795.1 C750.2,801.6 746.9,804.85 740.45,804.85 L711.15,804.85 C704.7,804.85 701.4,801.6 701.4,795.1 L701.4,727.25 C701.4,720.8 704.7,717.5 711.15,717.5z"/>
      <path id="path19" fill="#8392CC" fill-opacity="1" d="M633.05,573 C633.05,564.95 630.15,558 624.45,552.3 618.75,546.6 611.8,543.7 603.75,543.7 L414.55,543.7 C406.5,543.7 399.55,546.6 393.85,552.3 388.15,558 385.25,564.95 385.25,573 L385.25,762.2 C385.25,764 385.4,765.7 385.65,767.1 L472.85,679.85 C476.5,676.2 480.2,675 483.5,676.2 485.55,676.9 487.3,678.1 489.05,679.85 L600.7,791.5 603.75,791.5 C611.8,791.5 618.75,788.6 624.45,782.9 630.15,777.2 633.05,770.25 633.05,762.2 L633.05,573z M584.7,678.35 C577.55,685.5 568.85,689.1 558.65,689.1 548.45,689.1 539.8,685.5 532.6,678.35 525.45,671.15 521.85,662.5 521.85,652.3 521.85,642.1 525.45,633.4 532.6,626.25 539.8,619.05 548.45,615.45 558.65,615.45 568.85,615.45 577.55,619.05 584.7,626.25 591.85,633.4 595.5,642.1 595.5,652.3 595.5,662.5 591.85,671.15 584.7,678.35z M393.85,239.65 C388.15,245.35 385.25,252.3 385.25,260.35 L385.25,449.55 C385.25,451.35 385.4,453.05 385.65,454.45 L472.85,367.2 C476.5,363.55 480.2,362.35 483.5,363.55 485.55,364.25 487.3,365.45 489.05,367.2 L600.7,478.85 603.75,478.85 C611.8,478.85 618.75,475.95 624.45,470.25 630.15,464.55 633.05,457.6 633.05,449.55 L633.05,260.35 C633.05,252.3 630.15,245.35 624.45,239.65 618.75,233.95 611.8,231.05 603.75,231.05 L414.55,231.05 C406.5,231.05 399.55,233.95 393.85,239.65z M558.65,302.8 C568.85,302.8 577.55,306.4 584.7,313.6 591.85,320.75 595.5,329.45 595.5,339.65 595.5,349.85 591.85,358.5 584.7,365.7 577.55,372.85 568.85,376.45 558.65,376.45 548.45,376.45 539.8,372.85 532.6,365.7 525.45,358.5 521.85,349.85 521.85,339.65 521.85,329.45 525.45,320.75 532.6,313.6 539.8,306.4 548.45,302.8 558.65,302.8z"/>
      <path id="path20" fill="#CADFF8" fill-opacity="1" d="M584.7,678.35 C591.85,671.15 595.5,662.5 595.5,652.3 595.5,642.1 591.85,633.4 584.7,626.25 577.55,619.05 568.85,615.45 558.65,615.45 548.45,615.45 539.8,619.05 532.6,626.25 525.45,633.4 521.85,642.1 521.85,652.3 521.85,662.5 525.45,671.15 532.6,678.35 539.8,685.5 548.45,689.1 558.65,689.1 568.85,689.1 577.55,685.5 584.7,678.35z"/>
      <path id="path23" fill="#525A7E" fill-opacity="1" d="M483.5,676.2 C480.2,675 476.5,676.2 472.85,679.85 L385.65,767.1 C386.7,773.25 389.4,778.45 393.85,782.9 399.55,788.6 406.5,791.5 414.55,791.5 L483.5,791.5 483.5,676.2z M483.5,363.55 C480.2,362.35 476.5,363.55 472.85,367.2 L385.65,454.45 C386.7,460.6 389.4,465.8 393.85,470.25 399.55,475.95 406.5,478.85 414.55,478.85 L483.5,478.85 483.5,363.55z"/>
      <path id="path24" fill="#3A405A" fill-opacity="1" d="M483.5,676.2 L483.5,791.5 600.7,791.5 489.05,679.85 C487.3,678.1 485.55,676.9 483.5,676.2z M489.05,367.2 C487.3,365.45 485.55,364.25 483.5,363.55 L483.5,478.85 600.7,478.85 489.05,367.2z"/>
      <path id="path27" fill="#CADFF8" fill-opacity="1" d="M558.65,302.8 C548.45,302.8 539.8,306.4 532.6,313.6 525.45,320.75 521.85,329.45 521.85,339.65 521.85,349.85 525.45,358.5 532.6,365.7 539.8,372.85 548.45,376.45 558.65,376.45 568.85,376.45 577.55,372.85 584.7,365.7 591.85,358.5 595.5,349.85 595.5,339.65 595.5,329.45 591.85,320.75 584.7,313.6 577.55,306.4 568.85,302.8 558.65,302.8z"/>
    </g>
  </g>
  <g id="inner">
    <g id="shape55">
      <path id="path49" fill="none" stroke="#FFFFFF" stroke-opacity="1" stroke-width="33.25" stroke-linecap="round" stroke-linejoin="round" d="M418.05,824.8 L418.65,892.65 Q430.9,852.15 492.65,826.65 L494.65,892.65 C539.7,855.85 589.7,836.5 644.65,834.65"/>
    </g>
  </g>
  <g id="pen">
    <g id="shape57">
      <path id="path50" fill="#999999" fill-opacity="1" d="M763.6,321 L736.55,313.75 C717.2,308.6 706,311.8 702.9,323.4 L651.9,513.65 777.55,547.3 828.55,357.05 C831.65,345.45 823.5,337.05 804.2,331.9 L763.6,321z"/>
      <path id="path51" fill="#CCCCCC" fill-opacity="1" d="M777.55,547.3 L651.9,513.65 585.9,760 C582.8,771.6 590.9,780 610.25,785.15 L677.9,803.3 C697.2,808.45 708.45,805.25 711.55,793.65 L777.55,547.3z"/>
      <path id="path52" fill="#666666" fill-opacity="1" d="M610.25,785.15 C610.25,785.15 613,801.3 615.75,812.7 L658.85,824.25 C663.55,819.2 669.9,812.25 677.9,803.3 L610.25,785.15z"/>
      <path id="path53" fill="#FFFFFF" fill-opacity="1" d="M627.1,830.4 C629.2,831.45 631.4,832.25 633.75,832.9 Q645.5,836.05 649.5,833.15 C651.15,831.95 654.25,829.05 658.85,824.25 L615.75,812.7 C617.3,819.15 618.7,824.05 619.9,825.2 621.95,827.3 624.35,829.05 627.1,830.4z"/>
    </g>
  </g>
  <g id="Calque.__204">
    <g id="shape63">
      <path id="path54" fill="#000000" fill-opacity="0.2" d="M804.2,331.9 L763.6,321 627.1,830.4 C629.2,831.45 631.4,832.25 633.75,832.9 Q645.5,836.05 649.5,833.15 C651.15,831.95 654.25,829.05 658.85,824.25 663.55,819.2 669.9,812.25 677.9,803.3 697.2,808.45 708.45,805.25 711.55,793.65 L828.55,357.05 C831.65,345.45 823.5,337.05 804.2,331.9z"/>
    </g>
  </g>
</svg>