
<svg xmlns="http://www.w3.org/2000/svg" version="1.1" xmlns:xlink="http://www.w3.org/1999/xlink" preserveAspectRatio="none" x="0px" y="0px" width="1024px" height="1024px" viewBox="0 0 1024 1024">
<defs>
<g id="Layer9_0_FILL">
<path fill="#000000" fill-opacity="0.09803921568627451" stroke="none" d="
M 969.6 351.25
Q 961 330.4 950.2 310.4 944.1 299.05 937.3 288 907.95 240.45 865.75 198.2 727.5 59.95 531.95 59.95 336.45 59.95 198.2 198.2 59.95 336.45 59.95 531.95 59.95 727.5 198.2 865.75 336.45 1003.95 531.95 1003.95 727.5 1003.95 865.75 865.75 941.9 789.55 976.1 696 1003.95 619.75 1003.95 531.95 1003.95 464.6 987.55 404 985.7 397.15 983.65 390.4 977.5 370.45 969.6 351.25 Z"/>
</g>

<g id="Layer7_0_FILL">
<path fill="#000000" stroke="none" d="
M 712.75 139.5
Q 699.65 132.3 686.2 126.2 644.8 107.35 599.35 98.35 588.5 96.2 577.4 94.6 554.25 91.25 530.15 90.35 521.15 90 512 90 503.85 90 495.8 90.3 472 91.05 449.2 94.25 437.65 95.8 426.4 98 380.95 106.85 339.55 125.45 325.85 131.55 312.65 138.75 300.8 145.2 289.3 152.5 277.2 160.2 265.5 168.8 254.95 176.55 244.75 185.15 233.95 194.15 223.5 204 218.5 208.7 213.6 213.6 209.2 218 204.9 222.5 195 232.9 186 243.7 177.4 253.9 169.6 264.4 160.95 276.05 153.25 288.15 145.9 299.6 139.4 311.4 132.2 324.6 126 338.2 107.3 379.45 98.35 424.75 95.95 436.8 94.25 449.2 91.2 471.15 90.35 494.05 90 502.95 90 512 90 521.15 90.35 530.15 91.2 553.1 94.3 575.2 95.95 587.4 98.35 599.35 107.35 644.7 126.1 686 132.25 699.6 139.5 712.75 145.95 724.55 153.3 736 161 748.05 169.7 759.75 177.5 770.25 186.05 780.45 195.1 791.2 205 801.65 209.2 806.05 213.6 810.45 218.55 815.4 223.6 820.15 234 830 244.8 839 255.05 847.55 265.6 855.3 277.35 863.95 289.5 871.65 300.95 878.95 312.85 885.4 326 892.5 339.6 898.65 381.05 917.2 426.55 926.05 437.6 928.2 448.85 929.75 471.95 932.95 496.05 933.75 504 934 512 934 521.05 934 530 933.7 554.3 932.75 577.6 929.4 588.55 927.8 599.3 925.7 645.05 916.6 686.7 897.6 699.85 891.6 712.6 884.6 724.4 878.1 735.9 870.8 747.95 863.1 759.65 854.45 770.15 846.6 780.4 838.05 791.15 829 801.55 819.15 806.05 814.85 810.45 810.45 815.35 805.55 820.05 800.55 829.9 790.1 838.95 779.35 847.45 769.1 855.25 758.55 863.85 746.85 871.55 734.75 878.85 723.25 885.3 711.4 891.9 699.25 897.6 686.7 910.45 658.5 918.8 628.45 918.9 628.05 919 627.7 923.05 612.85 926 597.6 927.9 587.7 929.4 577.65 932.9 553.45 933.75 528.25 934 520.15 934 512 934 504 933.75 496.05 932.9 470.8 929.45 446.65 927.95 436.5 926.05 426.55 923.1 411.3 919.05 396.5 918.95 396.25 918.9 396 910.6 365.95 897.85 337.85 892.05 325.15 885.4 312.85 878.95 300.95 871.65 289.45 863.95 277.35 855.3 265.6 847.55 255.05 839 244.8 830 234 820.15 223.6 815.4 218.55 810.45 213.6 806.05 209.2 801.65 205 791.2 195.1 780.45 186.05 770.25 177.5 759.75 169.7 748.05 161 736 153.3 724.55 145.95 712.75 139.5
M 897.7 512
Q 897.7 671.75 784.7 784.7 671.75 897.7 512 897.7 352.25 897.7 239.25 784.7 126.3 671.75 126.3 512 126.3 352.25 239.25 239.25 352.25 126.3 512 126.3 671.75 126.3 784.7 239.25 897.7 352.25 897.7 512
M 784.7 784.7
Q 897.7 671.75 897.7 512 897.7 352.25 784.7 239.25 671.75 126.3 512 126.3 352.25 126.3 239.25 239.25 126.3 352.25 126.3 512 126.3 671.75 239.25 784.7 352.25 897.7 512 897.7 671.75 897.7 784.7 784.7
M 648.5 187.75
Q 648.75 187.85 649.05 188 672.35 197.85 694.15 211.35
L 706.1 223.3 708.6 220.85
Q 719.4 228.3 729.8 236.75
L 724.65 241.85 744.7 261.9 751.2 255.4
Q 755.65 259.6 760.05 264 760.45 264.4 760.8 264.75
L 768.65 272.85
Q 769.15 273.4 769.7 274
L 763.25 280.45 783.3 300.5 788.35 295.5
Q 796.7 305.95 804.15 316.8
L 801.85 319.05 812.7 329.9
Q 812.45 329.5 812.2 329.1 812.5 329.5 812.75 329.95 839.75 373.5 852.2 423.15 852.5 424.35 852.8 425.55 852.45 424.35 852.2 423.2
L 840.4 434.9 858.2 452.7
Q 861.4 472.85 862.35 493.95
L 860.5 492.1 840.5 512.1 860.55 532.15 862.35 530.45
Q 861.35 551.5 858.15 571.7
L 858.15 571.75 840.5 589.3 852.15 600.95
Q 849.5 611.55 846.15 621.95 846.05 622.3 845.95 622.65 834.4 658.1 815.1 690.25 813.8 692.4 812.5 694.55 808.45 701 804.1 707.4 802.25 710.1 800.3 712.75 794.55 720.8 788.25 728.65
L 783.3 723.7 763.25 743.75 769.65 750.15
Q 768.75 751.1 767.9 752
L 760.05 760.05
Q 759.15 760.95 758.25 761.85 756.1 763.95 753.95 766 752.55 767.35 751.1 768.7
L 744.7 762.3 724.65 782.35 729.7 787.4 711.2 801.4
Q 709.85 802.35 708.5 803.3
L 706.1 800.9 694.75 812.3
Q 695.725 811.7 696.7 811.1 695.6666015625 811.764453125 694.6 812.45 651.5 839.25 602.5 851.8
L 590.25 839.55 571.65 858.15
Q 566 859.05 560.25 859.8
L 532.35 862.25
Q 531.4 862.3 530.45 862.35
L 533.15 859.55 513.1 839.5 493 859.6 495.85 862.45
Q 474.85 861.6 454.85 858.55
L 435.8 839.5 423.2 852.2
Q 423.45 852.25 423.65 852.35 423.4 852.25 423.15 852.2 421.7 851.85 420.25 851.45
L 334.75 815.65 320 800.9 316.8 804.15
Q 305.9 796.7 295.5 788.35
L 301.45 782.35 281.4 762.3 274 769.7
Q 269.5 765.5 265.05 761.1 264.75 760.8 264.5 760.55 264.25 760.3 264 760.05 259.6 755.65 255.4 751.2
L 262.85 743.75 242.8 723.7 236.75 729.8
Q 236.5 729.5 236.3 729.25 228.1 719.1 220.85 708.6
L 224.25 705.15 208.45 689.35
Q 208.3 689.05 208.1 688.8 197.45 670.85 189.2 651.9 178.85 628.1 172.35 602.7
L 185.65 589.35 165.55 569.25 165.55 569.3
Q 165 565.8 164.55 562.3 163.5 554.45 162.8 546.5 162.75 546.2 162.75 545.9 162.7 545.55 162.7 545.25 162.65 544.45 162.55 543.6 162 536.45 161.7 529.25 161.65 528.75 161.65 528.25
L 165.55 532.15 185.65 512.05 165.6 492 161.65 496
Q 162.45 474.95 165.55 454.85
L 165.6 454.9 185.6 434.9 172.3 421.6
Q 172.5 420.9 172.65 420.2 184.3 375.3 208 335.4
L 224.3 319.1 220.75 315.55 236.2 294.95
Q 236.4 294.65 236.65 294.35
L 242.85 300.55 262.9 280.5 255.35 272.95
Q 255.6 272.65 255.9 272.4
L 263.25 264.8
Q 263.45 264.55 263.7 264.3 263.85 264.15 264 264 264.15 263.85 264.35 263.7 264.5 263.5 264.7 263.35 268.7 259.35 272.8 255.55 273.35 255 273.95 254.45
L 281.45 261.95 301.5 241.9 295.4 235.8
Q 299.85 232.25 304.4 228.85
L 316.1 220.4
Q 316.4 220.2 316.7 220
L 320.05 223.35 335.4 208.05
Q 335.1 208.2 334.85 208.35 335.1 208.15 335.4 208 335.75 207.8 336.15 207.6
L 347.35 201.25 421.85 172.2
Q 422.5 172.05 423.1 171.9
L 435.85 184.65 455 165.5
Q 475.05 162.45 496 161.65
L 493 164.6 513.05 184.65 533.05 164.65 530.1 161.7
Q 551.2 162.65 571.35 165.85
L 590.25 184.75 602.7 172.35
Q 603.25 172.5 603.8 172.65
L 647.9 187.5
Q 648.15 187.6 648.5 187.75
M 801.85 705.15
L 804.05 707.35
Q 808.35 701.1 812.3 694.75
L 801.85 705.15
M 397.25 800.95
L 377.2 821 397.2 841 417.25 820.95 397.25 800.95
M 474.45 800.85
L 454.35 820.95 474.45 841.05 494.55 820.95 474.45 800.85
M 551.65 800.95
L 531.65 820.95 551.7 841 571.7 821 551.65 800.95
M 628.9 800.9
L 608.8 821 628.85 841.05 648.95 820.95 628.9 800.9
M 608.85 743.75
L 628.9 763.8 648.95 743.75 628.9 723.7 608.85 743.75
M 590.3 762.3
L 570.2 782.4 590.25 802.45 610.35 782.35 590.3 762.3
M 570.2 705.1
L 590.3 725.2 610.35 705.15 590.25 685.05 570.2 705.1
M 531.55 743.75
L 551.65 763.85 571.75 743.75 551.65 723.65 531.55 743.75
M 513 762.3
L 493 782.3 513.1 802.4 533.1 782.4 513 762.3
M 493 705.2
L 513 725.2 533.1 705.1 513.1 685.1 493 705.2
M 551.7 646.5
L 531.65 666.55 551.65 686.55 571.7 666.5 551.7 646.5
M 513.05 607.85
L 493 627.9 513.1 648 533.15 627.95 513.05 607.85
M 628.85 646.45
L 608.8 666.5 628.9 686.6 648.95 666.55 628.85 646.45
M 590.3 607.9
L 570.25 627.95 590.25 647.95 610.3 627.9 590.3 607.9
M 454.45 743.75
L 474.45 763.75 494.45 743.75 474.45 723.75 454.45 743.75
M 435.9 762.3
L 415.8 782.4 435.8 802.4 455.9 782.3 435.9 762.3
M 415.8 705.1
L 435.9 725.2 455.9 705.2 435.8 685.1 415.8 705.1
M 377.15 743.75
L 397.25 763.85 417.35 743.75 397.25 723.65 377.15 743.75
M 358.6 762.3
L 338.55 782.35 358.65 802.45 378.7 782.4 358.6 762.3
M 338.55 705.15
L 358.6 725.2 378.7 705.1 358.65 685.05 338.55 705.15
M 377.2 666.5
L 397.25 686.55 417.25 666.55 397.2 646.5 377.2 666.5
M 358.6 607.9
L 338.6 627.9 358.65 647.95 378.65 627.95 358.6 607.9
M 454.35 666.55
L 474.45 686.65 494.55 666.55 474.45 646.45 454.35 666.55
M 435.85 607.85
L 415.75 627.95 435.8 648 455.9 627.9 435.85 607.85
M 474.45 569.25
L 454.4 589.3 474.45 609.35 494.5 589.3 474.45 569.25
M 415.8 550.7
L 435.85 570.75 455.9 550.7 435.85 530.65 415.8 550.7
M 454.4 512.1
L 474.45 532.15 494.5 512.1 474.45 492.05 454.4 512.1
M 397.25 569.25
L 377.15 589.35 397.2 609.4 417.3 589.3 397.25 569.25
M 338.55 550.75
L 358.6 570.8 378.7 550.7 358.65 530.65 338.55 550.75
M 377.2 512.1
L 397.25 532.15 417.3 512.1 397.25 492.05 377.2 512.1
M 338.6 473.5
L 358.65 493.55 378.7 473.5 358.65 453.45 338.6 473.5
M 338.55 396.25
L 358.65 416.35 378.7 396.3 358.6 376.2 338.55 396.25
M 397.25 414.85
L 377.2 434.9 397.25 454.95 417.3 434.9 397.25 414.85
M 415.8 473.5
L 435.85 493.55 455.9 473.5 435.85 453.45 415.8 473.5
M 415.8 396.3
L 435.85 416.35 455.9 396.3 435.85 376.25 415.8 396.3
M 474.45 414.85
L 454.4 434.9 474.45 454.95 494.5 434.9 474.45 414.85
M 628.9 569.3
L 608.85 589.35 628.85 609.35 648.9 589.3 628.9 569.3
M 570.2 550.7
L 590.3 570.8 610.35 550.75 590.25 530.65 570.2 550.7
M 608.8 512.1
L 628.9 532.2 648.95 512.15 628.85 492.05 608.8 512.1
M 551.65 569.25
L 531.6 589.3 551.7 609.4 571.75 589.35 551.65 569.25
M 493 550.7
L 513.05 570.75 533.1 550.7 513.05 530.65 493 550.7
M 531.6 512.1
L 551.65 532.15 571.7 512.1 551.65 492.05 531.6 512.1
M 493 473.5
L 513.05 493.55 533.1 473.5 513.05 453.45 493 473.5
M 493 396.3
L 513.05 416.35 533.1 396.3 513.05 376.25 493 396.3
M 551.65 414.85
L 531.6 434.9 551.65 454.95 571.7 434.9 551.65 414.85
M 590.25 453.45
L 570.2 473.5 590.25 493.55 610.3 473.5 590.25 453.45
M 570.2 396.3
L 590.25 416.35 610.35 396.25 590.3 376.2 570.2 396.3
M 628.9 414.8
L 608.8 434.9 628.85 454.95 648.95 434.85 628.9 414.8
M 299.95 743.75
L 320 763.8 340.05 743.75 320 723.7 299.95 743.75
M 261.35 705.15
L 281.4 725.2 301.45 705.15 281.4 685.1 261.35 705.15
M 222.75 666.55
L 242.8 686.6 262.85 666.55 242.8 646.5 222.75 666.55
M 224.25 627.95
L 204.2 607.9 184.15 627.95 204.2 648 224.25 627.95
M 299.95 666.55
L 320 686.6 340.1 666.5 320.05 646.45 299.95 666.55
M 281.45 607.85
L 261.35 627.95 281.4 648 301.5 627.9 281.45 607.85
M 320 569.3
L 300 589.3 320.05 609.35 340.05 589.35 320 569.3
M 261.4 550.7
L 281.45 570.75 301.45 550.75 281.4 530.7 261.4 550.7
M 299.95 512.15
L 320 532.2 340.1 512.1 320.05 492.05 299.95 512.15
M 242.85 569.25
L 222.75 589.35 242.8 609.4 262.9 589.3 242.85 569.25
M 204.2 570.8
L 224.3 550.7 204.2 530.6 184.1 550.7 204.2 570.8
M 222.75 512.05
L 242.85 532.15 262.85 512.15 242.75 492.05 222.75 512.05
M 224.2 473.5
L 204.15 453.45 184.15 473.45 204.2 493.5 224.2 473.5
M 242.8 414.8
L 222.7 434.9 242.75 454.95 262.85 434.85 242.8 414.8
M 204.15 416.35
L 224.25 396.25 204.25 376.25 184.15 396.35 204.15 416.35
M 261.3 473.5
L 281.4 493.6 301.5 473.5 281.4 453.4 261.3 473.5
M 261.35 396.25
L 281.4 416.3 301.45 396.25 281.4 376.2 261.35 396.25
M 320 414.8
L 299.95 434.85 320.05 454.95 340.1 434.9 320 414.8
M 299.95 357.65
L 320 377.7 340.05 357.65 320 337.6 299.95 357.65
M 281.45 299.05
L 261.4 319.1 281.4 339.1 301.45 319.05 281.45 299.05
M 222.8 357.7
L 242.8 377.7 262.85 357.65 242.85 337.65 222.8 357.7
M 320.05 260.45
L 300 280.5 320 300.5 340.05 280.45 320.05 260.45
M 608.85 357.65
L 628.9 377.7 648.95 357.65 628.9 337.6 608.85 357.65
M 590.3 299
L 570.25 319.05 590.3 339.1 610.35 319.05 590.3 299
M 531.6 357.7
L 551.65 377.75 571.75 357.65 551.7 337.6 531.6 357.7
M 493 319.1
L 513.05 339.15 533.15 319.05 513.1 299 493 319.1
M 551.7 260.4
L 531.65 280.45 551.7 300.5 571.75 280.45 551.7 260.4
M 513.05 221.75
L 493 241.8 513.1 261.9 533.15 241.85 513.05 221.75
M 531.6 203.2
L 551.7 223.3 571.7 203.3 551.6 183.2 531.6 203.2
M 628.85 260.45
L 608.85 280.45 628.9 300.5 648.9 280.5 628.85 260.45
M 590.25 221.85
L 570.25 241.85 590.3 261.9 610.3 241.9 590.25 221.85
M 608.8 203.3
L 628.85 223.35 648.95 203.25 628.9 183.2 608.8 203.3
M 454.4 357.7
L 474.45 377.75 494.5 357.7 474.45 337.65 454.4 357.7
M 435.8 299
L 415.75 319.05 435.85 339.15 455.9 319.1 435.8 299
M 377.15 357.65
L 397.25 377.75 417.3 357.7 397.2 337.6 377.15 357.65
M 338.55 319.05
L 358.6 339.1 378.65 319.05 358.6 299 338.55 319.05
M 397.2 260.4
L 377.15 280.45 397.2 300.5 417.25 280.45 397.2 260.4
M 358.65 221.85
L 338.6 241.9 358.6 261.9 378.65 241.85 358.65 221.85
M 377.2 203.3
L 397.2 223.3 417.3 203.2 397.3 183.2 377.2 203.3
M 474.45 260.35
L 454.35 280.45 474.45 300.55 494.55 280.45 474.45 260.35
M 435.85 221.75
L 415.75 241.85 435.8 261.9 455.9 241.8 435.85 221.75
M 454.4 203.2
L 474.45 223.25 494.5 203.2 474.45 183.15 454.4 203.2
M 842 627.9
L 821.95 607.85 801.85 627.95 821.9 648 842 627.9
M 744.7 725.2
L 764.75 705.15 744.7 685.1 724.65 705.15 744.7 725.2
M 706.1 763.8
L 726.15 743.75 706.1 723.7 686.05 743.75 706.1 763.8
M 687.55 782.35
L 667.5 762.3 647.45 782.35 667.5 802.4 687.55 782.35
M 667.5 725.2
L 687.55 705.15 667.5 685.1 647.45 705.15 667.5 725.2
M 726.15 666.55
L 706.1 646.5 686.05 666.55 706.1 686.6 726.15 666.55
M 687.55 627.95
L 667.45 607.85 647.4 627.9 667.5 648 687.55 627.95
M 803.35 666.55
L 783.3 646.5 763.25 666.55 783.3 686.6 803.35 666.55
M 764.75 627.95
L 744.7 607.9 724.65 627.95 744.7 648 764.75 627.95
M 803.4 589.3
L 783.35 569.25 763.25 589.35 783.3 609.4 803.4 589.3
M 744.7 570.8
L 764.8 550.7 744.7 530.6 724.6 550.7 744.7 570.8
M 783.35 532.15
L 803.4 512.1 783.3 492 763.25 512.05 783.35 532.15
M 726.15 589.35
L 706.05 569.25 686 589.3 706.1 609.4 726.15 589.35
M 667.45 570.75
L 687.5 550.7 667.5 530.7 647.45 550.75 667.45 570.75
M 706.05 532.15
L 726.15 512.05 706.15 492.05 686.05 512.15 706.05 532.15
M 687.6 473.5
L 667.5 453.4 647.4 473.5 667.5 493.6 687.6 473.5
M 667.5 416.3
L 687.55 396.25 667.5 376.2 647.45 396.25 667.5 416.3
M 726.2 434.9
L 706.1 414.8 686.05 434.85 706.15 454.95 726.2 434.9
M 764.75 473.45
L 744.75 453.45 724.7 473.5 744.7 493.5 764.75 473.45
M 744.75 416.35
L 764.75 396.35 744.65 376.25 724.65 396.25 744.75 416.35
M 803.3 434.9
L 783.3 414.9 763.3 434.9 783.3 454.9 803.3 434.9
M 821.95 570.75
L 842 550.7 821.95 530.65 801.9 550.7 821.95 570.75
M 841.95 473.55
L 821.85 453.45 801.85 473.45 821.95 493.55 841.95 473.55
M 821.85 416.35
L 841.95 396.25 821.95 376.25 801.85 396.35 821.85 416.35
M 783.3 377.8
L 803.4 357.7 783.3 337.6 763.2 357.7 783.3 377.8
M 764.75 319.05
L 744.7 299 724.6 319.1 744.65 339.15 764.75 319.05
M 706.1 377.7
L 726.1 357.7 706.05 337.65 686.05 357.65 706.1 377.7
M 687.5 319.1
L 667.45 299.05 647.45 319.05 667.5 339.1 687.5 319.1
M 726.15 280.45
L 706.1 260.4 686 280.5 706.05 300.55 726.15 280.45
M 687.55 241.85
L 667.5 221.8 647.4 241.9 667.45 261.95 687.55 241.85 Z"/>

<path fill="#007FC4" stroke="none" d="
M 694.6 812.45
Q 695.6666015625 811.764453125 696.7 811.1 695.725 811.7 694.75 812.3
L 694.6 812.45
M 423.15 852.2
Q 423.4 852.25 423.65 852.35 423.45 852.25 423.2 852.2
L 423.15 852.2
M 335.4 208
Q 335.1 208.15 334.85 208.35 335.1 208.2 335.4 208.05
L 335.4 208
M 804.05 707.35
L 804.1 707.4
Q 808.45 701 812.5 694.55
L 812.3 694.75
Q 808.35 701.1 804.05 707.35
M 852.2 423.2
Q 852.45 424.35 852.8 425.55 852.5 424.35 852.2 423.15
L 852.2 423.2
M 812.75 329.95
Q 812.5 329.5 812.2 329.1 812.45 329.5 812.7 329.9
L 812.75 329.95 Z"/>

<path fill="#333333" stroke="none" d="
M 649.05 188
Q 648.75 187.85 648.5 187.75 648.15 187.6 647.9 187.5
L 603.8 172.65
Q 603.25 172.5 602.7 172.35
L 590.25 184.75 571.35 165.85
Q 551.2 162.65 530.1 161.7
L 533.05 164.65 513.05 184.65 493 164.6 496 161.65
Q 475.05 162.45 455 165.5
L 435.85 184.65 423.1 171.9
Q 422.5 172.05 421.85 172.2
L 347.35 201.25 336.15 207.6
Q 335.75 207.8 335.4 208
L 335.4 208.05 320.05 223.35 316.7 220
Q 316.4 220.2 316.1 220.4
L 304.4 228.85
Q 299.85 232.25 295.4 235.8
L 301.5 241.9 281.45 261.95 273.95 254.45
Q 273.35 255 272.8 255.55 268.7 259.35 264.7 263.35 264.5 263.5 264.35 263.7 264.15 263.85 264 264 263.85 264.15 263.7 264.3 263.45 264.55 263.25 264.8
L 255.9 272.4
Q 255.6 272.65 255.35 272.95
L 262.9 280.5 242.85 300.55 236.65 294.35
Q 236.4 294.65 236.2 294.95
L 220.75 315.55 224.3 319.1 208 335.4
Q 184.3 375.3 172.65 420.2 172.5 420.9 172.3 421.6
L 185.6 434.9 165.6 454.9 165.55 454.85
Q 162.45 474.95 161.65 496
L 165.6 492 185.65 512.05 165.55 532.15 161.65 528.25
Q 161.65 528.75 161.7 529.25 162 536.45 162.55 543.6 162.65 544.45 162.7 545.25 162.7 545.55 162.75 545.9 162.75 546.2 162.8 546.5 163.5 554.45 164.55 562.3 165 565.8 165.55 569.3
L 165.55 569.25 185.65 589.35 172.35 602.7
Q 178.85 628.1 189.2 651.9 197.45 670.85 208.1 688.8 208.3 689.05 208.45 689.35
L 224.25 705.15 220.85 708.6
Q 228.1 719.1 236.3 729.25 236.5 729.5 236.75 729.8
L 242.8 723.7 262.85 743.75 255.4 751.2
Q 259.6 755.65 264 760.05 264.25 760.3 264.5 760.55 264.75 760.8 265.05 761.1 269.5 765.5 274 769.7
L 281.4 762.3 301.45 782.35 295.5 788.35
Q 305.9 796.7 316.8 804.15
L 320 800.9 334.75 815.65 420.25 851.45
Q 421.7 851.85 423.15 852.2
L 423.2 852.2 435.8 839.5 454.85 858.55
Q 474.85 861.6 495.85 862.45
L 493 859.6 513.1 839.5 533.15 859.55 530.45 862.35
Q 531.4 862.3 532.35 862.25
L 560.25 859.8
Q 566 859.05 571.65 858.15
L 590.25 839.55 602.5 851.8
Q 651.5 839.25 694.6 812.45
L 694.75 812.3 706.1 800.9 708.5 803.3
Q 709.85 802.35 711.2 801.4
L 729.7 787.4 724.65 782.35 744.7 762.3 751.1 768.7
Q 752.55 767.35 753.95 766 756.1 763.95 758.25 761.85 759.15 760.95 760.05 760.05
L 767.9 752
Q 768.75 751.1 769.65 750.15
L 763.25 743.75 783.3 723.7 788.25 728.65
Q 794.55 720.8 800.3 712.75 802.25 710.1 804.1 707.4
L 804.05 707.35 801.85 705.15 812.3 694.75 812.5 694.55
Q 813.8 692.4 815.1 690.25 834.4 658.1 845.95 622.65 846.05 622.3 846.15 621.95 849.5 611.55 852.15 600.95
L 840.5 589.3 858.15 571.75 858.15 571.7
Q 861.35 551.5 862.35 530.45
L 860.55 532.15 840.5 512.1 860.5 492.1 862.35 493.95
Q 861.4 472.85 858.2 452.7
L 840.4 434.9 852.2 423.2 852.2 423.15
Q 839.75 373.5 812.75 329.95
L 812.7 329.9 801.85 319.05 804.15 316.8
Q 796.7 305.95 788.35 295.5
L 783.3 300.5 763.25 280.45 769.7 274
Q 769.15 273.4 768.65 272.85
L 760.8 264.75
Q 760.45 264.4 760.05 264 755.65 259.6 751.2 255.4
L 744.7 261.9 724.65 241.85 729.8 236.75
Q 719.4 228.3 708.6 220.85
L 706.1 223.3 694.15 211.35
Q 672.35 197.85 649.05 188
M 667.5 221.8
L 687.55 241.85 667.45 261.95 647.4 241.9 667.5 221.8
M 706.1 260.4
L 726.15 280.45 706.05 300.55 686 280.5 706.1 260.4
M 667.45 299.05
L 687.5 319.1 667.5 339.1 647.45 319.05 667.45 299.05
M 726.1 357.7
L 706.1 377.7 686.05 357.65 706.05 337.65 726.1 357.7
M 744.7 299
L 764.75 319.05 744.65 339.15 724.6 319.1 744.7 299
M 803.4 357.7
L 783.3 377.8 763.2 357.7 783.3 337.6 803.4 357.7
M 841.95 396.25
L 821.85 416.35 801.85 396.35 821.95 376.25 841.95 396.25
M 821.85 453.45
L 841.95 473.55 821.95 493.55 801.85 473.45 821.85 453.45
M 842 550.7
L 821.95 570.75 801.9 550.7 821.95 530.65 842 550.7
M 783.3 414.9
L 803.3 434.9 783.3 454.9 763.3 434.9 783.3 414.9
M 764.75 396.35
L 744.75 416.35 724.65 396.25 744.65 376.25 764.75 396.35
M 744.75 453.45
L 764.75 473.45 744.7 493.5 724.7 473.5 744.75 453.45
M 706.1 414.8
L 726.2 434.9 706.15 454.95 686.05 434.85 706.1 414.8
M 687.55 396.25
L 667.5 416.3 647.45 396.25 667.5 376.2 687.55 396.25
M 667.5 453.4
L 687.6 473.5 667.5 493.6 647.4 473.5 667.5 453.4
M 726.15 512.05
L 706.05 532.15 686.05 512.15 706.15 492.05 726.15 512.05
M 687.5 550.7
L 667.45 570.75 647.45 550.75 667.5 530.7 687.5 550.7
M 706.05 569.25
L 726.15 589.35 706.1 609.4 686 589.3 706.05 569.25
M 803.4 512.1
L 783.35 532.15 763.25 512.05 783.3 492 803.4 512.1
M 764.8 550.7
L 744.7 570.8 724.6 550.7 744.7 530.6 764.8 550.7
M 783.35 569.25
L 803.4 589.3 783.3 609.4 763.25 589.35 783.35 569.25
M 744.7 607.9
L 764.75 627.95 744.7 648 724.65 627.95 744.7 607.9
M 783.3 646.5
L 803.35 666.55 783.3 686.6 763.25 666.55 783.3 646.5
M 667.45 607.85
L 687.55 627.95 667.5 648 647.4 627.9 667.45 607.85
M 706.1 646.5
L 726.15 666.55 706.1 686.6 686.05 666.55 706.1 646.5
M 687.55 705.15
L 667.5 725.2 647.45 705.15 667.5 685.1 687.55 705.15
M 667.5 762.3
L 687.55 782.35 667.5 802.4 647.45 782.35 667.5 762.3
M 726.15 743.75
L 706.1 763.8 686.05 743.75 706.1 723.7 726.15 743.75
M 764.75 705.15
L 744.7 725.2 724.65 705.15 744.7 685.1 764.75 705.15
M 821.95 607.85
L 842 627.9 821.9 648 801.85 627.95 821.95 607.85
M 474.45 223.25
L 454.4 203.2 474.45 183.15 494.5 203.2 474.45 223.25
M 415.75 241.85
L 435.85 221.75 455.9 241.8 435.8 261.9 415.75 241.85
M 454.35 280.45
L 474.45 260.35 494.55 280.45 474.45 300.55 454.35 280.45
M 397.2 223.3
L 377.2 203.3 397.3 183.2 417.3 203.2 397.2 223.3
M 338.6 241.9
L 358.65 221.85 378.65 241.85 358.6 261.9 338.6 241.9
M 377.15 280.45
L 397.2 260.4 417.25 280.45 397.2 300.5 377.15 280.45
M 358.6 339.1
L 338.55 319.05 358.6 299 378.65 319.05 358.6 339.1
M 397.25 377.75
L 377.15 357.65 397.2 337.6 417.3 357.7 397.25 377.75
M 415.75 319.05
L 435.8 299 455.9 319.1 435.85 339.15 415.75 319.05
M 474.45 377.75
L 454.4 357.7 474.45 337.65 494.5 357.7 474.45 377.75
M 628.85 223.35
L 608.8 203.3 628.9 183.2 648.95 203.25 628.85 223.35
M 570.25 241.85
L 590.25 221.85 610.3 241.9 590.3 261.9 570.25 241.85
M 608.85 280.45
L 628.85 260.45 648.9 280.5 628.9 300.5 608.85 280.45
M 551.7 223.3
L 531.6 203.2 551.6 183.2 571.7 203.3 551.7 223.3
M 493 241.8
L 513.05 221.75 533.15 241.85 513.1 261.9 493 241.8
M 531.65 280.45
L 551.7 260.4 571.75 280.45 551.7 300.5 531.65 280.45
M 513.05 339.15
L 493 319.1 513.1 299 533.15 319.05 513.05 339.15
M 551.65 377.75
L 531.6 357.7 551.7 337.6 571.75 357.65 551.65 377.75
M 570.25 319.05
L 590.3 299 610.35 319.05 590.3 339.1 570.25 319.05
M 628.9 377.7
L 608.85 357.65 628.9 337.6 648.95 357.65 628.9 377.7
M 300 280.5
L 320.05 260.45 340.05 280.45 320 300.5 300 280.5
M 242.8 377.7
L 222.8 357.7 242.85 337.65 262.85 357.65 242.8 377.7
M 261.4 319.1
L 281.45 299.05 301.45 319.05 281.4 339.1 261.4 319.1
M 320 377.7
L 299.95 357.65 320 337.6 340.05 357.65 320 377.7
M 299.95 434.85
L 320 414.8 340.1 434.9 320.05 454.95 299.95 434.85
M 281.4 416.3
L 261.35 396.25 281.4 376.2 301.45 396.25 281.4 416.3
M 281.4 493.6
L 261.3 473.5 281.4 453.4 301.5 473.5 281.4 493.6
M 224.25 396.25
L 204.15 416.35 184.15 396.35 204.25 376.25 224.25 396.25
M 222.7 434.9
L 242.8 414.8 262.85 434.85 242.75 454.95 222.7 434.9
M 204.15 453.45
L 224.2 473.5 204.2 493.5 184.15 473.45 204.15 453.45
M 242.85 532.15
L 222.75 512.05 242.75 492.05 262.85 512.15 242.85 532.15
M 224.3 550.7
L 204.2 570.8 184.1 550.7 204.2 530.6 224.3 550.7
M 222.75 589.35
L 242.85 569.25 262.9 589.3 242.8 609.4 222.75 589.35
M 320 532.2
L 299.95 512.15 320.05 492.05 340.1 512.1 320 532.2
M 281.45 570.75
L 261.4 550.7 281.4 530.7 301.45 550.75 281.45 570.75
M 300 589.3
L 320 569.3 340.05 589.35 320.05 609.35 300 589.3
M 261.35 627.95
L 281.45 607.85 301.5 627.9 281.4 648 261.35 627.95
M 320 686.6
L 299.95 666.55 320.05 646.45 340.1 666.5 320 686.6
M 204.2 607.9
L 224.25 627.95 204.2 648 184.15 627.95 204.2 607.9
M 242.8 686.6
L 222.75 666.55 242.8 646.5 262.85 666.55 242.8 686.6
M 281.4 725.2
L 261.35 705.15 281.4 685.1 301.45 705.15 281.4 725.2
M 320 763.8
L 299.95 743.75 320 723.7 340.05 743.75 320 763.8
M 608.8 434.9
L 628.9 414.8 648.95 434.85 628.85 454.95 608.8 434.9
M 590.25 416.35
L 570.2 396.3 590.3 376.2 610.35 396.25 590.25 416.35
M 570.2 473.5
L 590.25 453.45 610.3 473.5 590.25 493.55 570.2 473.5
M 531.6 434.9
L 551.65 414.85 571.7 434.9 551.65 454.95 531.6 434.9
M 513.05 416.35
L 493 396.3 513.05 376.25 533.1 396.3 513.05 416.35
M 513.05 493.55
L 493 473.5 513.05 453.45 533.1 473.5 513.05 493.55
M 551.65 532.15
L 531.6 512.1 551.65 492.05 571.7 512.1 551.65 532.15
M 513.05 570.75
L 493 550.7 513.05 530.65 533.1 550.7 513.05 570.75
M 531.6 589.3
L 551.65 569.25 571.75 589.35 551.7 609.4 531.6 589.3
M 628.9 532.2
L 608.8 512.1 628.85 492.05 648.95 512.15 628.9 532.2
M 590.3 570.8
L 570.2 550.7 590.25 530.65 610.35 550.75 590.3 570.8
M 608.85 589.35
L 628.9 569.3 648.9 589.3 628.85 609.35 608.85 589.35
M 454.4 434.9
L 474.45 414.85 494.5 434.9 474.45 454.95 454.4 434.9
M 435.85 416.35
L 415.8 396.3 435.85 376.25 455.9 396.3 435.85 416.35
M 435.85 493.55
L 415.8 473.5 435.85 453.45 455.9 473.5 435.85 493.55
M 377.2 434.9
L 397.25 414.85 417.3 434.9 397.25 454.95 377.2 434.9
M 358.65 416.35
L 338.55 396.25 358.6 376.2 378.7 396.3 358.65 416.35
M 358.65 493.55
L 338.6 473.5 358.65 453.45 378.7 473.5 358.65 493.55
M 397.25 532.15
L 377.2 512.1 397.25 492.05 417.3 512.1 397.25 532.15
M 358.6 570.8
L 338.55 550.75 358.65 530.65 378.7 550.7 358.6 570.8
M 377.15 589.35
L 397.25 569.25 417.3 589.3 397.2 609.4 377.15 589.35
M 474.45 532.15
L 454.4 512.1 474.45 492.05 494.5 512.1 474.45 532.15
M 435.85 570.75
L 415.8 550.7 435.85 530.65 455.9 550.7 435.85 570.75
M 454.4 589.3
L 474.45 569.25 494.5 589.3 474.45 609.35 454.4 589.3
M 415.75 627.95
L 435.85 607.85 455.9 627.9 435.8 648 415.75 627.95
M 474.45 686.65
L 454.35 666.55 474.45 646.45 494.55 666.55 474.45 686.65
M 338.6 627.9
L 358.6 607.9 378.65 627.95 358.65 647.95 338.6 627.9
M 397.25 686.55
L 377.2 666.5 397.2 646.5 417.25 666.55 397.25 686.55
M 358.6 725.2
L 338.55 705.15 358.65 685.05 378.7 705.1 358.6 725.2
M 338.55 782.35
L 358.6 762.3 378.7 782.4 358.65 802.45 338.55 782.35
M 397.25 763.85
L 377.15 743.75 397.25 723.65 417.35 743.75 397.25 763.85
M 435.9 725.2
L 415.8 705.1 435.8 685.1 455.9 705.2 435.9 725.2
M 415.8 782.4
L 435.9 762.3 455.9 782.3 435.8 802.4 415.8 782.4
M 474.45 763.75
L 454.45 743.75 474.45 723.75 494.45 743.75 474.45 763.75
M 570.25 627.95
L 590.3 607.9 610.3 627.9 590.25 647.95 570.25 627.95
M 608.8 666.5
L 628.85 646.45 648.95 666.55 628.9 686.6 608.8 666.5
M 493 627.9
L 513.05 607.85 533.15 627.95 513.1 648 493 627.9
M 531.65 666.55
L 551.7 646.5 571.7 666.5 551.65 686.55 531.65 666.55
M 513 725.2
L 493 705.2 513.1 685.1 533.1 705.1 513 725.2
M 493 782.3
L 513 762.3 533.1 782.4 513.1 802.4 493 782.3
M 551.65 763.85
L 531.55 743.75 551.65 723.65 571.75 743.75 551.65 763.85
M 590.3 725.2
L 570.2 705.1 590.25 685.05 610.35 705.15 590.3 725.2
M 570.2 782.4
L 590.3 762.3 610.35 782.35 590.25 802.45 570.2 782.4
M 628.9 763.8
L 608.85 743.75 628.9 723.7 648.95 743.75 628.9 763.8
M 608.8 821
L 628.9 800.9 648.95 820.95 628.85 841.05 608.8 821
M 531.65 820.95
L 551.65 800.95 571.7 821 551.7 841 531.65 820.95
M 454.35 820.95
L 474.45 800.85 494.55 820.95 474.45 841.05 454.35 820.95
M 377.2 821
L 397.25 800.95 417.25 820.95 397.2 841 377.2 821 Z"/>
</g>

<g id="Layer5_0_FILL">
<path fill="#000000" fill-opacity="0.2980392156862745" stroke="none" d="
M 702 532
Q 702 461.6 652.2 411.8 602.4 362 532 362 461.6 362 411.8 411.8 362 461.6 362 532 362 602.4 411.8 652.2 461.6 702 532 702 602.4 702 652.2 652.2 702 602.4 702 532 Z"/>
</g>

<g id="Layer4_0_FILL">
<path fill="#242424" stroke="none" d="
M 670.85 574.05
Q 682 545.35 682 512 682 441.6 632.2 391.8 582.4 342 512 342 441.6 342 391.8 391.8 342 441.6 342 512 342 582.4 391.8 632.2 441.6 682 512 682 538.95 682 562.85 674.7 601.45 662.95 632.2 632.2 658.4 606 670.85 574.05 Z"/>
</g>

<g id="Mask_3_MASK_0_FILL">
<path fill="#FFFFFF" stroke="none" d="
M 670.85 574.05
Q 682 545.35 682 512 682 441.6 632.2 391.8 582.4 342 512 342 441.6 342 391.8 391.8 342 441.6 342 512 342 582.4 391.8 632.2 441.6 682 512 682 538.95 682 562.85 674.7 601.45 662.95 632.2 632.2 658.4 606 670.85 574.05 Z"/>
</g>

<g id="Layer3_0_FILL">
<path fill="#EB4031" fill-opacity="0.4980392156862745" stroke="none" d="
M 336.6 511.6
L 407.4 511.6 407.4 432.1 336.6 432.1 336.6 511.6 Z"/>

<path fill="#FFF64B" stroke="none" d="
M 475.85 512.15
L 407.4 512.15 407.4 685.05 475.85 685.05 475.85 512.15 Z"/>

<path fill="#EB4031" stroke="none" d="
M 407.4 512.15
L 407.4 511.6 336.6 511.6 336.6 685.1 407.4 685.1 407.4 685.05 407.4 512.15 Z"/>

<path fill="#E8498A" stroke="none" d="
M 475.85 511.6
L 475.85 512.15 475.85 685.05 475.85 685.15 546.6 685.15 546.6 685.1 546.6 511.6 475.85 511.6 Z"/>

<path fill="#B7CC3F" fill-opacity="0.4980392156862745" stroke="none" d="
M 546.6 511.6
L 617.35 511.6 617.35 431.6 546.6 431.6 546.6 511.6 Z"/>

<path fill="#B7CC3F" stroke="none" d="
M 617.35 511.6
L 546.6 511.6 546.6 685.1 617.35 685.1 617.35 511.6 Z"/>

<path fill="#E8498A" fill-opacity="0.4980392156862745" stroke="none" d="
M 546.6 339.15
L 475.85 339.15 475.85 511.6 546.6 511.6 546.6 431.6 546.6 339.15 Z"/>

<path fill="#44C0EC" fill-opacity="0.4980392156862745" stroke="none" d="
M 688.2 511.6
L 688.2 337.6 617.45 337.6 617.45 511.6 688.2 511.6 Z"/>

<path fill="#44C0EC" stroke="none" d="
M 688.2 683.6
L 688.2 511.6 617.45 511.6 617.45 683.6 688.2 683.6 Z"/>
</g>

<g id="Layer1_0_FILL">
<path fill="#CCCCCC" stroke="none" d="
M 966.05 378.4
Q 962.2 365.05 957.6 352.05 947.85 324.5 934.45 298.4 928.65 287.05 922.15 276 891.5 224 845.8 178.25 736.8 69.25 592.15 46.2 567.65 42.3 542.1 40.85 527.2736328125 40.004296875 512.15 40 512.0751953125 40 512 40 497.9 40 484.1 40.75 306.55 49.95 178.25 178.25 40 316.5 40 512 40 512.074609375 40 512.15 40.0005859375 514.1541015625 40 516.15 41.4697265625 709.0197265625 178.25 845.8 306.55 974.05 484.1 983.3 484.3 983.3 484.5 983.3 496.65 983.9 509 984 510.5 984 512 984 512.075 984 512.15 984 513.1509765625 984 514.15 984 528.2978515625 983.9435546875 542.1 983.2 545.6 983 549.05 982.75 579.1 980.6 607.75 975.05 619.55 972.75 631.15 969.9 751.75 939.85 845.8 845.8 918.7 772.85 953.15 684 980.9 612.4 983.7 530.5 983.99765625 521.37421875 984 512.15 984 512.075 984 512 984 511 984 510 984 509.5 984 509 983.99765625 508.575390625 984 508.15 983.5533203125 447.3140625 969.7 392 967.95 385.15 966.05 378.4
M 686.2 126.2
Q 699.65 132.3 712.75 139.5 724.55 145.95 736 153.3 748.05 161 759.75 169.7 770.25 177.5 780.45 186.05 791.2 195.1 801.65 205 806.05 209.2 810.45 213.6 815.4 218.55 820.15 223.6 830 234 839 244.8 847.55 255.05 855.3 265.6 863.95 277.35 871.65 289.45 878.95 300.95 885.4 312.85 892.05 325.15 897.85 337.85 910.6 365.95 918.9 396 918.95 396.25 919.05 396.5 923.1 411.3 926.05 426.55 927.95 436.5 929.45 446.65 932.9 470.8 933.75 496.05 933.93984375 502.085546875 933.95 508.15 934 510.0734375 934 512 934 512.075 934 512.15 933.99765625 520.224609375 933.75 528.25 932.9 553.45 929.4 577.65 927.9 587.7 926 597.6 923.05 612.85 919 627.7 918.9 628.05 918.8 628.45 910.45 658.5 897.6 686.7 891.9 699.25 885.3 711.4 878.85 723.25 871.55 734.75 863.85 746.85 855.25 758.55 847.45 769.1 838.95 779.35 829.9 790.1 820.05 800.55 815.35 805.55 810.45 810.45 806.05 814.85 801.55 819.15 791.15 829 780.4 838.05 770.15 846.6 759.65 854.45 747.95 863.1 735.9 870.8 724.4 878.1 712.6 884.6 699.85 891.6 686.7 897.6 645.05 916.6 599.3 925.7 588.55 927.8 577.6 929.4 554.3 932.75 530 933.7 522.1138671875 933.9642578125 514.15 934 513.15078125 934 512.15 934 512.075 934 512 934 504 934 496.05 933.75 471.95 932.95 448.85 929.75 437.6 928.2 426.55 926.05 381.05 917.2 339.6 898.65 326 892.5 312.85 885.4 300.95 878.95 289.5 871.65 277.35 863.95 265.6 855.3 255.05 847.55 244.8 839 234 830 223.6 820.15 218.55 815.4 213.6 810.45 209.2 806.05 205 801.65 195.1 791.2 186.05 780.45 177.5 770.25 169.7 759.75 161 748.05 153.3 736 145.95 724.55 139.5 712.75 132.25 699.6 126.1 686 107.35 644.7 98.35 599.35 95.95 587.4 94.3 575.2 91.2 553.1 90.35 530.15 90.0794921875 523.194921875 90 516.15 90.0005859375 514.1537109375 90 512.15 90 512.075 90 512 90 502.95 90.35 494.05 91.2 471.15 94.25 449.2 95.95 436.8 98.35 424.75 107.3 379.45 126 338.2 132.2 324.6 139.4 311.4 145.9 299.6 153.25 288.15 160.95 276.05 169.6 264.4 177.4 253.9 186 243.7 195 232.9 204.9 222.5 209.2 218 213.6 213.6 218.5 208.7 223.5 204 233.95 194.15 244.75 185.15 254.95 176.55 265.5 168.8 277.2 160.2 289.3 152.5 300.8 145.2 312.65 138.75 325.85 131.55 339.55 125.45 380.95 106.85 426.4 98 437.65 95.8 449.2 94.25 472 91.05 495.8 90.3 503.85 90 512 90 512.075 90 512.15 90 521.223828125 90.0029296875 530.15 90.35 554.25 91.25 577.4 94.6 588.5 96.2 599.35 98.35 644.8 107.35 686.2 126.2 Z"/>
</g>

<path id="Layer7_0_1_STROKES" stroke="#333333" stroke-width="26.25" stroke-linejoin="round" stroke-linecap="round" fill="none" d="
M 784.7 784.7
Q 671.75 897.7 512 897.7 352.25 897.7 239.25 784.7 126.3 671.75 126.3 512 126.3 352.25 239.25 239.25 352.25 126.3 512 126.3 671.75 126.3 784.7 239.25 897.7 352.25 897.7 512 897.7 671.75 784.7 784.7 Z"/>
</defs>

<g transform="matrix( 1, 0, 0, 1, 0,0) ">
<use xlink:href="#Layer9_0_FILL"/>
</g>

<g transform="matrix( 1, 0, 0, 1, 0,0) ">
<use xlink:href="#Layer7_0_FILL"/>

<use xlink:href="#Layer7_0_1_STROKES"/>
</g>

<g transform="matrix( 1, 0, 0, 1, 0,0) ">
<use xlink:href="#Layer5_0_FILL"/>
</g>

<g transform="matrix( 1, 0, 0, 1, 0,0) ">
<use xlink:href="#Layer4_0_FILL"/>
</g>

<mask id="Mask_Mask_1">
<g transform="matrix( 1, 0, 0, 1, 0,0) ">
<use xlink:href="#Mask_3_MASK_0_FILL"/>
</g>
</mask>

<g mask="url(#Mask_Mask_1)">
<g transform="matrix( 1, 0, 0, 1, 0,0) ">
<use xlink:href="#Layer3_0_FILL"/>
</g>
</g>

<g transform="matrix( 1, 0, 0, 1, 0,0) ">
<use xlink:href="#Layer1_0_FILL"/>
</g>
</svg>
