<?xml version="1.0" encoding="utf-8"?>
<!-- Generator: flash2svg, http://dissentgraphics.com/tools/flash2svg -->
<svg xmlns:xlink="http://www.w3.org/1999/xlink" id="Apps-Videolan" image-rendering="optimizeSpeed" baseProfile="basic" version="1.1" style="background-color:#ffffff" x="0px" y="0px" width="1024px" height="1024px" viewBox="0 0 1024 1024" enable-background="new 0 0 1024 1024" xmlns="http://www.w3.org/2000/svg">
  <defs transform="matrix(1 0 0 1 0 0) "/>
  <g id="shadow">
    <g id="shape">
      <path id="path" fill="#000000" fill-opacity="0.09803921568627451" d="M969.65,351.3 Q961.05,330.45 950.25,310.45 C946.2,302.9 941.9,295.4 937.35,288.05 917.8,256.35 893.95,226.4 865.8,198.25 773.65,106.1 662.35,60 532,60 401.65,60 290.4,106.1 198.25,198.25 106.1,290.4 60,401.65 60,532 60,662.35 106.1,773.65 198.25,865.8 290.4,957.95 401.65,1004 532,1004 662.35,1004 773.65,957.95 865.8,865.8 916.55,815 953.35,758.4 976.15,696.05 994.7,645.2 1004,590.55 1004,532 1004,487.1 998.55,444.45 987.6,404.05 986.35,399.5 985.05,394.95 983.7,390.45 979.6,377.15 974.9,364.1 969.65,351.3z"/>
    </g>
  </g>
  <g id="circle">
    <g id="shape2">
      <path id="path1" fill="#666666" fill-opacity="1" d="M969.75,392.05 C968.65,387.7 967.4,383.05 966.1,378.45 963.6,369.7 960.75,360.85 957.65,352.1 951.2,333.85 943.5,316.05 934.5,298.45 930.7,291.05 926.55,283.5 922.2,276.05 901.9,241.55 876.4,208.85 845.85,178.3 773.25,105.7 688.7,61.65 592.2,46.25 575.95,43.65 559.4,41.85 542.15,40.9 532.45,40.35 522.3,40.05 512.05,40.05 502.7,40.05 493.45,40.3 484.15,40.8 365.8,46.9 263.85,92.75 178.3,178.3 Q40.05,316.55 40.05,512.05 C40.05,642.4 86.15,753.7 178.3,845.85 231.4,898.9 290.8,936.7 356.05,959.05 396.7,972.95 439.25,981 484.15,983.35 484.3,983.35 484.4,983.35 484.55,983.35 493.05,983.8 501.15,984.05 509.05,984.05 510.25,984.05 511.15,984.05 512.05,984.05 522.35,984.05 532.55,983.75 542.15,983.25 544.65,983.1 546.9,982.95 549.1,982.8 569.3,981.35 589,978.75 607.8,975.1 615.75,973.55 623.6,971.8 631.2,969.95 712,949.65 783.35,908.35 845.85,845.85 894.45,797.25 930.25,743.35 953.2,684.05 964.6,654.65 972.85,623.9 977.95,591.95 981.05,571.9 983,551.5 983.75,530.55 983.95,524.5 984.05,518.3 984.05,512.05 984.05,511.4 984.05,510.7 984.05,510.05 984.05,509.7 984.05,509.4 984.05,509.05 983.85,468.4 979.1,429.55 969.75,392.05z"/>
    </g>
  </g>
  <g id="ico-shadow">
    <g id="shape4">
      <path id="path2" fill="#000000" fill-opacity="0.2" d="M953.2,684.05 C964.6,654.65 972.85,623.9 977.95,591.95 L977.925,591.925 L572.05,186.05 230.05,833.05 356.025,959.025 L356.05,959.05 C396.7,972.95 439.25,981 484.15,983.35 484.3,983.35 484.4,983.35 484.55,983.35 493.05,983.8 501.15,984.05 509.05,984.05 Q510.544,984.05 512.05,984.05 C522.35,984.05 532.55,983.75 542.15,983.25 544.65,983.1 546.9,982.95 549.1,982.8 569.3,981.35 589,978.75 607.8,975.1 615.75,973.55 623.6,971.8 631.2,969.95 712,949.65 783.35,908.35 845.85,845.85 894.45,797.25 930.25,743.35 953.2,684.05z"/>
    </g>
  </g>
  <g id="ico">
    <g id="group">
      <g id="group1">
        <g id="drawingObject">
          <path id="path3" fill="#C57F00" fill-opacity="1" d="M747.35,563.85 Q739.85,529.5 707.8,529.5 L589.85,529.5 307.15,703.65 444.5,841 768.1,841 C789.5,841 800.3,830.15 800.3,808.8 L747.35,563.85z"/>
        </g>
        <g id="drawingObject1">
          <path id="path4" fill="#F9A000" fill-opacity="1" d="M316,529.55 L316,529.5 Q283.75,529.5 278.3,555.15 L223.6,808.8 C223.6,830.15 234.35,841 255.8,841 L444.5,841 307.15,703.65 589.85,529.55 316,529.55z"/>
        </g>
      </g>
    </g>
    <g id="group2">
      <g id="group3">
        <g id="drawingObject2">
          <path id="path5" fill="#F9A000" fill-opacity="1" d="M679.3,524.8 L656.6,451.55 C614.5,466.2 568.15,473.45 517.8,473.45 515.95,473.45 514.1,473.45 512,473.45 L512,473.425 L512,558.15 C573.9,558.1 629.65,547 679.3,524.8z M703,601.3 C702.65,601.35 702.5,601.55 702.15,601.65 647.05,631.4 583.65,646.25 512,646.3 L512,750.5 C571.3,750.5 621.9,743.85 663.85,730.5 705.85,717.15 726.85,701.05 726.85,682.15 726.85,679.65 726.6,677.3 725.85,675 L725.35,673.5 725.3,673.5 703,601.3z M550.6,177.95 L512,177.95 512,385.175 L512,385.2 C514.15,385.2 516.05,385.2 518,385.2 558.6,385.2 596.5,380.45 631.65,370.95 L631.6,370.85 579.35,202.55 Q578.85,198.3 576.8,194.2 C575.35,191.35 573.5,188.8 571.15,186.45 565.5,180.8 558.6,177.95 550.6,177.95z"/>
          <path id="path6" fill="#FDBD39" fill-opacity="1" d="M511.65,558.15 C511.75,558.15 511.85,558.15 512,558.15 L512,473.425 L512,473.45 C484.25,473.15 457.65,470.55 432.35,465.8 410,461.45 388.6,455.35 368.15,447.55 L368.1,447.55 344.15,524.8 344.15,524.85 C369.8,536.5 397.3,545 426.3,550.5 453.3,555.55 481.8,558.15 511.65,558.15z M298.3,674 C297.4,676.65 296.9,679.35 296.9,682.15 296.9,701.05 317.85,717.15 359.85,730.5 401.85,743.85 452.5,750.5 511.85,750.5 511.9,750.5 511.95,750.5 512,750.5 L512,646.3 C511.95,646.3 511.9,646.3 511.85,646.3 482,646.3 453.5,643.65 426.5,638.55 388.3,631.3 353,618.8 320.8,601.15 L298.4,673.65 C298.3,673.8 298.3,673.85 298.3,674z M473.15,177.95 C465.15,177.95 458.3,180.8 452.6,186.45 448.8,190.3 446.3,194.55 445,199.55 L393,367.8 393.1,367.8 C405.85,371.7 419,374.85 432.6,377.45 457.85,382.2 484.4,384.85 512,385.2 L512,385.175 L512,177.95 473.15,177.95z"/>
        </g>
        <g id="drawingObject3">
          <path id="path15" fill="none" stroke="#FFFFFF" stroke-opacity="1" stroke-width="1" stroke-linecap="round" stroke-linejoin="round" d="M512,702.2 L512,646.3"/>
          <path id="path16" fill="none" stroke="#FFFFFF" stroke-opacity="1" stroke-width="1" stroke-linecap="round" stroke-linejoin="round" d="M512,558.15 L512,473.425"/>
          <path id="path17" fill="none" stroke="#FFFFFF" stroke-opacity="1" stroke-width="1" stroke-linecap="round" stroke-linejoin="round" d="M512,356.1 L512,385.15"/>
          <path id="path18" fill="#E8E8E8" fill-opacity="1" d="M703,601.3 L702.85,601.3 679.15,524.8 C629.65,547 573.95,558.1 512,558.15 L512,646.3 C583.7,646.25 647.1,631.4 702.15,601.65 702.5,601.55 702.65,601.35 703,601.3z M518.1,385.2 C516.15,385.2 514.2,385.2 512,385.15 L512,473.425 L512,473.45 C514.05,473.45 515.95,473.45 517.85,473.45 568.15,473.45 614.6,466.2 656.65,451.55 L631.7,371 C596.05,380.45 558.2,385.2 518.1,385.2z"/>
          <path id="path19" fill="none" stroke="#FFFFFF" stroke-opacity="1" stroke-width="1" stroke-linecap="round" stroke-linejoin="round" d="M512,558.15 L512,646.3"/>
          <path id="path20" fill="#FFFFFF" fill-opacity="1" d="M393,367.7 L392.85,367.7 368.15,447.55 368.3,447.55 C388.65,455.35 410.1,461.45 432.5,465.8 457.8,470.55 484.4,473.15 512,473.45 L512,473.425 L512,385.15 C484.3,384.8 457.75,382.1 432.5,377.35 Q412.95,373.7 393,367.7z M512,558.15 C511.95,558.15 511.85,558.15 511.8,558.15 481.85,558.15 453.35,555.55 426.35,550.5 397.35,545 369.85,536.35 344.3,524.85 L344.3,524.8 320.65,601.15 C353,618.8 388.15,631.15 426.35,638.55 453.35,643.65 481.85,646.3 511.8,646.3 511.85,646.3 511.95,646.3 512,646.3 L512,558.15z"/>
          <path id="path21" fill="none" stroke="#FFFFFF" stroke-opacity="1" stroke-width="1" stroke-linecap="round" stroke-linejoin="round" d="M512,473.425 L512,385.15"/>
          <path id="path23" fill="none" stroke="#FFFFFF" stroke-opacity="1" stroke-width="1" stroke-linecap="round" stroke-linejoin="round" d="M512,385.15 L512,473.425"/>
          <path id="path26" fill="none" stroke="#FFFFFF" stroke-opacity="1" stroke-width="1" stroke-linecap="round" stroke-linejoin="round" d="M512,646.3 L512,558.15"/>
        </g>
      </g>
    </g>
  </g>
  <g id="Calque.__203">
    <g id="shape28">
      <path id="path28" fill="#C78000" fill-opacity="1" d="M548.25,192.45 Q533.45,188.05 512.55,188.05 C498.6,188.05 486.7,189.5 476.85,192.45 467,195.4 462.05,198.9 462.05,203.05 462.05,207.2 467,210.7 476.85,213.65 486.7,216.6 498.6,218.05 512.55,218.05 526.5,218.05 538.4,216.6 548.25,213.65 558.1,210.7 563.05,207.2 563.05,203.05 563.05,198.9 558.1,195.4 548.25,192.45z"/>
    </g>
  </g>
</svg>