<?xml version="1.0" encoding="utf-8"?>
<!-- Generator: flash2svg, http://dissentgraphics.com/tools/flash2svg -->
<svg xmlns:xlink="http://www.w3.org/1999/xlink" id="Apps-Bluetooth-File-Exchange" image-rendering="optimizeSpeed" baseProfile="basic" version="1.1" style="background-color:#ffffff" x="0px" y="0px" width="1024px" height="1024px" viewBox="0 0 1024 1024" enable-background="new 0 0 1024 1024" xmlns="http://www.w3.org/2000/svg">
  <defs transform="matrix(1 0 0 1 0 0) "/>
  <g id="background-circle-shadow">
    <g id="shape">
      <path id="path" fill="#000000" fill-opacity="0.09803921568627451" d="M969.65,351.3 Q961.05,330.45 950.25,310.45 C946.2,302.9 941.9,295.4 937.35,288.05 917.8,256.35 893.95,226.4 865.8,198.25 773.65,106.1 662.35,60 532,60 401.65,60 290.4,106.1 198.25,198.25 106.1,290.4 60,401.65 60,532 60,662.35 106.1,773.65 198.25,865.8 290.4,957.95 401.65,1004 532,1004 662.35,1004 773.65,957.95 865.8,865.8 916.55,815 953.35,758.4 976.15,696.05 994.7,645.2 1004,590.55 1004,532 1004,487.1 998.55,444.45 987.6,404.05 986.35,399.5 985.05,394.95 983.7,390.45 979.6,377.15 974.9,364.1 969.65,351.3z"/>
    </g>
  </g>
  <g id="background-circle">
    <g id="shape2">
      <path id="path1" fill="#3D527E" fill-opacity="1" d="M966.1,378.45 C965.1,375.05 964.1,371.6 962.95,367.95 961.35,362.8 959.55,357.45 957.65,352.1 951.2,333.85 943.5,316.05 934.5,298.45 930.7,291.05 926.55,283.5 922.2,276.05 901.9,241.55 876.4,208.85 845.85,178.3 773.25,105.7 688.7,61.65 592.2,46.25 575.95,43.65 559.4,41.85 542.15,40.9 532.45,40.35 522.3,40.05 512.05,40.05 502.7,40.05 493.45,40.3 484.15,40.8 365.8,46.9 263.85,92.75 178.3,178.3 Q40.05,316.55 40.05,512.05 C40.05,642.4 86.15,753.7 178.3,845.85 235,902.5 298.85,941.75 369.4,963.4 406.15,974.65 444.2,981.25 484.15,983.35 484.3,983.35 484.4,983.35 484.55,983.35 493.05,983.8 501.15,984.05 509.05,984.05 510.25,984.05 511.15,984.05 512.05,984.05 522.35,984.05 532.55,983.75 542.15,983.25 544.65,983.1 546.9,982.95 549.1,982.8 569.3,981.35 589,978.75 607.8,975.1 615.75,973.55 623.6,971.8 631.2,969.95 712,949.65 783.35,908.35 845.85,845.85 894.45,797.25 930.25,743.35 953.2,684.05 971.65,636.4 981.85,585.25 983.75,530.55 983.95,524.5 984.05,518.3 984.05,512.05 984.05,511.4 984.05,510.7 984.05,510.05 984.05,509.7 984.05,509.4 984.05,509.05 983.85,468.4 979.1,429.55 969.75,392.05 968.65,387.7 967.4,383.05 966.1,378.45z"/>
    </g>
  </g>
  <g id="background-circle1">
    <g id="shape4">
      <path id="path2" fill="#000000" fill-opacity="0.2" d="M953.2,684.05 C953.25,683.95 953.25,683.85 953.3,683.75 L645.85,376.3 517.525,295.825 520.925,464.875 355.05,639.85 182.5,779.05 365.675,962.225 L365.7,962.25 C367.1,962.7 368.25,963.05 369.4,963.4 406.15,974.65 444.2,981.25 484.15,983.35 484.3,983.35 484.4,983.35 484.55,983.35 493.05,983.8 501.15,984.05 509.05,984.05 Q510.55,984.05 512.05,984.05 C522.35,984.05 532.55,983.75 542.15,983.25 544.65,983.1 546.9,982.95 549.1,982.8 569.3,981.35 589,978.75 607.8,975.1 615.75,973.55 623.6,971.8 631.2,969.95 712,949.65 783.35,908.35 845.85,845.85 894.45,797.25 930.25,743.35 953.2,684.05z"/>
    </g>
  </g>
  <g id="Calque.__2012">
    <g id="shape6">
      <path id="path3" fill="#252C45" fill-opacity="1" d="M848.55,751.45 Q848.55,697.45 750,659.25 C684.3,633.8 605,621.05 512.05,621.05 419.1,621.05 339.8,633.8 274.1,659.25 208.4,684.7 175.55,715.45 175.55,751.45 175.55,787.45 208.4,818.2 274.1,843.65 339.8,869.1 419.1,881.85 512.05,881.85 605,881.85 684.3,869.1 750,843.65 815.7,818.2 848.55,787.45 848.55,751.45z"/>
    </g>
  </g>
  <g id="svg2">
    <g id="shape8">
      <path id="path4" fill="#FFFFFF" fill-opacity="1" d="M348.05,362 Q348.053,370.26 353.9,376.1 L486.175,508.35 355.025,639.825 L355.05,639.85 C351.15,643.75 349.2,648.45 349.25,653.95 349.25,659.4 351.2,664.1 355.1,668 359,671.9 363.7,673.85 369.2,673.85 374.7,673.8 379.4,671.85 383.3,668 L383.275,667.975 L496.1,554.875 496.1,743.15 C496.1,748.65 498.05,753.35 502,757.3 505.9,761.2 510.6,763.15 516.1,763.15 521.6,763.1 526.3,761.15 530.2,757.25 L530.175,757.25 L646.775,640.6 L646.8,640.6 C650.65,636.65 652.6,631.95 652.6,626.5 652.55,621 650.6,616.3 646.75,612.4 L646.75,612.375 L542.45,508.2 645.875,404.475 L645.9,404.5 C649.75,400.55 651.7,395.85 651.7,390.35 651.65,384.85 649.7,380.15 645.85,376.3 L645.85,376.275 L530.15,260.725 L530.15,260.75 C526.2,256.85 521.5,254.9 516.05,254.95 510.55,254.95 505.85,256.9 501.95,260.8 498.05,264.7 496.1,269.4 496.1,274.85 L496.1,461.9 382.1,347.9 C378.2,344 373.5,342.05 368,342.05 362.5,342.05 357.8,344 353.9,347.9 350,351.8 348.05,356.5 348.05,362z M603.55,390.45 L536,458.2 536,322.975 603.55,390.45z M536,694.95 L536,558.175 604.425,626.5 536,694.95z"/>
    </g>
  </g>
</svg>