<?xml version="1.0" encoding="utf-8"?>
<!-- Generator: flash2svg, http://dissentgraphics.com/tools/flash2svg -->
<svg xmlns:xlink="http://www.w3.org/1999/xlink" id="Apps-LiteIcon" image-rendering="optimizeSpeed" baseProfile="basic" version="1.1" style="background-color:#ffffff" x="0px" y="0px" width="1024px" height="1024px" viewBox="0 0 1024 1024" enable-background="new 0 0 1024 1024" xmlns="http://www.w3.org/2000/svg">
  <defs transform="matrix(1 0 0 1 0 0) "/>
  <g id="shadow">
    <g id="shape">
      <path id="path" fill="#000000" fill-opacity="0.09803921568627451" d="M969.65,351.3 Q961.05,330.45 950.25,310.45 C946.2,302.9 941.9,295.4 937.35,288.05 917.8,256.35 893.95,226.4 865.8,198.25 773.65,106.1 662.35,60 532,60 401.65,60 290.4,106.1 198.25,198.25 106.1,290.4 60,401.65 60,532 60,662.35 106.1,773.65 198.25,865.8 290.4,957.95 401.65,1004 532,1004 662.35,1004 773.65,957.95 865.8,865.8 916.55,815 953.35,758.4 976.15,696.05 994.7,645.2 1004,590.55 1004,532 1004,487.1 998.55,444.45 987.6,404.05 986.35,399.5 985.05,394.95 983.7,390.45 979.6,377.15 974.9,364.1 969.65,351.3z"/>
    </g>
  </g>
  <g id="circle">
    <g id="shape2">
      <path id="path1" fill="#CCCCCC" fill-opacity="1" d="M969.75,392.05 C968.65,387.7 967.4,383.05 966.1,378.45 963.85,370.6 961.35,362.65 958.55,354.65 958.25,353.9 957.95,353 957.65,352.1 951.2,333.85 943.5,316.05 934.5,298.45 930.7,291.05 926.55,283.5 922.2,276.05 901.9,241.55 876.4,208.85 845.85,178.3 773.25,105.7 688.7,61.65 592.2,46.25 575.95,43.65 559.4,41.85 542.15,40.9 532.45,40.35 522.3,40.05 512.05,40.05 502.7,40.05 493.45,40.3 484.15,40.8 365.8,46.9 263.85,92.75 178.3,178.3 Q40.05,316.55 40.05,512.05 C40.05,642.4 86.15,753.7 178.3,845.85 231.4,898.9 290.8,936.7 356.2,959.1 396.7,972.95 439.25,981 484.15,983.35 484.3,983.35 484.4,983.35 484.55,983.35 493.05,983.8 501.15,984.05 509.05,984.05 510.25,984.05 511.15,984.05 512.05,984.05 522.35,984.05 532.55,983.75 542.15,983.25 544.65,983.1 546.9,982.95 549.1,982.8 569.3,981.35 589,978.75 607.8,975.1 615.75,973.55 623.6,971.8 631.2,969.95 712,949.65 783.35,908.35 845.85,845.85 894.45,797.25 930.25,743.35 953.2,684.05 971.65,636.4 981.85,585.25 983.75,530.55 983.95,524.5 984.05,518.3 984.05,512.05 984.05,511.4 984.05,510.7 984.05,510.05 984.05,509.7 984.05,509.4 984.05,509.05 983.85,468.4 979.1,429.55 969.75,392.05z"/>
    </g>
  </g>
  <g id="circle1">
    <g id="shape4">
      <path id="path2" fill="#000000" fill-opacity="0.2" d="M969.75,392.05 C968.65,387.7 967.4,383.05 966.1,378.45 963.85,370.6 961.35,362.65 958.55,354.65 L846.05,242.15 169.15,772.05 356.2,959.1 C396.7,972.95 439.25,981 484.15,983.35 484.3,983.35 484.4,983.35 484.55,983.35 493.05,983.8 501.15,984.05 509.05,984.05 Q510.55,984.05 512.05,984.05 C522.35,984.05 532.55,983.75 542.15,983.25 544.65,983.1 546.9,982.95 549.1,982.8 569.3,981.35 589,978.75 607.8,975.1 615.75,973.55 623.6,971.8 631.2,969.95 712,949.65 783.35,908.35 845.85,845.85 894.45,797.25 930.25,743.35 953.2,684.05 971.65,636.4 981.85,585.25 983.75,530.55 983.95,524.5 984.05,518.3 984.05,512.05 984.05,511.4 984.05,510.7 984.05,510.05 984.05,509.7 984.05,509.4 984.05,509.05 983.85,468.4 979.1,429.55 969.75,392.05z"/>
    </g>
  </g>
  <g id="computer">
    <g id="Symbole.__2017_1" overflow="visible">
      <g id="Calque.__212">
        <g id="Symbole.__2019_2" overflow="visible">
          <g id="Calque.__213">
            <g id="shape39">
              <path id="path30" fill="#333333" fill-opacity="1" d="M604,766 C604,757.75 601.05,750.65 595.2,744.8 589.35,738.95 582.25,736 574,736 L460,736 C451.75,736 444.65,738.95 438.8,744.8 Q430,753.6 430,766 L413.8,812.2 620.2,812.2 604,766z"/>
              <path id="path31" fill="#666666" fill-opacity="1" d="M635.2,901.2 C641.05,895.35 644,888.25 644,880 L620.2,812.2 413.8,812.2 390,880 C390,888.25 392.95,895.35 398.8,901.2 404.65,907.05 411.75,910 420,910 L614,910 C622.25,910 629.35,907.05 635.2,901.2z"/>
            </g>
          </g>
        </g>
        <g id="Symbole.__2021_2" overflow="visible">
          <g id="Calque.__214">
            <g id="shape40">
              <path id="path32" fill="#4E4E4E" fill-opacity="1" d="M849.3,245.1 Q837.85,233.65 821.75,233.65 L410,233.65 427.9,251.55 821.75,251.55 C827.55,251.55 832.5,253.6 836.65,257.75 840.75,261.85 842.8,266.8 842.8,272.6 L842.8,666.45 860.7,684.35 860.7,272.6 C860.7,261.85 856.9,252.7 849.3,245.1z"/>
              <path id="path33" fill="#333333" fill-opacity="1" d="M842.8,272.6 C842.8,266.8 840.75,261.85 836.65,257.75 832.5,253.6 827.55,251.55 821.75,251.55 L427.9,251.55 842.8,666.45 842.8,272.6z"/>
              <path id="path34" fill="#666666" fill-opacity="1" d="M860.7,684.35 L842.8,666.45 842.8,751.4 C842.8,757.2 840.75,762.15 836.65,766.3 832.5,770.4 827.55,772.45 821.75,772.45 L202.25,772.45 C196.45,772.45 191.5,770.4 187.4,766.3 183.25,762.15 181.2,757.2 181.2,751.4 L181.2,272.6 C181.2,266.8 183.25,261.85 187.4,257.75 191.5,253.6 196.45,251.55 202.25,251.55 L427.9,251.55 410,233.65 202.25,233.65 C191.5,233.65 182.35,237.45 174.75,245.1 167.1,252.7 163.3,261.85 163.3,272.6 L163.3,751.4 C163.3,762.15 167.1,771.3 174.75,778.95 182.35,786.55 191.5,790.35 202.25,790.35 L821.75,790.35 C832.5,790.35 841.65,786.55 849.3,778.95 856.9,771.3 860.7,762.15 860.7,751.4 L860.7,684.35z"/>
              <path id="path35" fill="#000000" fill-opacity="1" d="M821.75,772.45 C827.55,772.45 832.5,770.4 836.65,766.3 840.75,762.15 842.8,757.2 842.8,751.4 L842.8,666.45 427.9,251.55 202.25,251.55 C196.45,251.55 191.5,253.6 187.4,257.75 183.25,261.85 181.2,266.8 181.2,272.6 L181.2,751.4 C181.2,757.2 183.25,762.15 187.4,766.3 191.5,770.4 196.45,772.45 202.25,772.45 L821.75,772.45z"/>
            </g>
          </g>
        </g>
        <g id="Symbole.__2023_2" overflow="visible">
          <g id="Calque.__215">
            <g id="shape41">
              <path id="path36" fill="#EEEEEE" fill-opacity="1" d="M794.75,302 Q794.75,292 784.75,292 L239.25,292 C232.6,292 229.25,295.35 229.25,302 L229.25,323 794.75,323 794.75,302z"/>
              <path id="path37" fill="#FFFFFF" fill-opacity="0.09803921568627451" d="M229.25,722 C229.25,728.65 232.6,732 239.25,732 L784.75,732 C791.4,732 794.75,728.65 794.75,722 L794.75,323 229.25,323 229.25,722z"/>
            </g>
          </g>
        </g>
        <g id="Symbole.__2025_2" overflow="visible">
          <g id="Calque.__216">
            <g id="shape42">
              <path id="path38" fill="#2E3640" fill-opacity="1" d="M248.45,297.95 Q244.65,297.95 241.95,300.65 C240.15,302.45 239.25,304.6 239.25,307.15 239.25,309.7 240.15,311.85 241.95,313.65 243.75,315.45 245.9,316.35 248.45,316.35 251,316.35 253.15,315.45 254.95,313.65 256.75,311.85 257.65,309.7 257.65,307.15 257.65,304.6 256.75,302.45 254.95,300.65 253.15,298.85 251,297.95 248.45,297.95z"/>
            </g>
          </g>
        </g>
        <g id="Symbole.__2027_2" overflow="visible">
          <g id="Calque.__217">
            <g id="shape43">
              <path id="path39" fill="#009999" fill-opacity="1" d="M507.75,268.8 C506.6,269.95 506,271.4 506,273.05 506,274.7 506.6,276.15 507.75,277.3 508.9,278.45 510.35,279.05 512,279.05 513.65,279.05 515.1,278.45 516.25,277.3 517.4,276.15 518,274.7 518,273.05 Q518,270.55 516.25,268.8 C515.1,267.65 513.65,267.05 512,267.05 510.35,267.05 508.9,267.65 507.75,268.8z"/>
            </g>
          </g>
        </g>
      </g>
    </g>
  </g>
  <mask id="circle2">
    <g id="g">
      <g id="shape14">
        <path id="path9" fill="#FFFFFF" fill-opacity="1" d="M784.9,291.55 L728.6,291.55 843.85,176.3 C771.6,104.85 687.75,61.5 592.2,46.25 575.95,43.65 559.4,41.85 542.15,40.9 532.45,40.35 522.3,40.05 512.05,40.05 502.7,40.05 493.45,40.3 484.15,40.8 365.8,46.9 263.85,92.75 178.3,178.3 Q40.05,316.55 40.05,512.05 C40.05,641.45 85.45,752.05 176.3,843.85 L288.6,731.55 784.9,731.55 C791.55,731.55 794.9,728.2 794.9,721.55 L794.9,301.55 C794.9,294.9 791.55,291.55 784.9,291.55z"/>
      </g>
    </g>
  </mask>
  <g id="masked" mask="url(#circle2)">
    <g id="glasses">
      <g id="shape6">
        <path id="path3" fill="#BF3A31" fill-opacity="1" d="M211.9,-41.8 L170.15,-0.05 1021.5,851.3 1063.25,809.55 211.9,-41.8z"/>
        <path id="path4" fill="#F0C330" fill-opacity="1" d="M128.45,41.65 L86.75,83.4 938.1,934.75 979.8,893 128.45,41.65z"/>
        <path id="path5" fill="#3081B7" fill-opacity="1" d="M45.35,124.75 L3.65,166.45 855,1017.8 896.7,976.1 45.35,124.75z"/>
        <path id="path6" fill="#30AD64" fill-opacity="1" d="M86.75,83.4 L45.35,124.75 896.7,976.1 938.1,934.75 86.75,83.4z"/>
        <path id="path7" fill="#E57E31" fill-opacity="1" d="M979.8,893 L1021.5,851.3 170.15,-0.05 128.45,41.65 979.8,893z"/>
        <path id="path8" fill="#8E48AB" fill-opacity="1" d="M813.3,1059.55 L855,1017.8 3.65,166.45 -38.05,208.2 813.3,1059.55z"/>
      </g>
    </g>
  </g>
</svg>