<?xml version="1.0" encoding="utf-8"?>
<!-- Generator: flash2svg, http://dissentgraphics.com/tools/flash2svg -->
<svg xmlns:xlink="http://www.w3.org/1999/xlink" id="Arduino" image-rendering="optimizeSpeed" baseProfile="basic" version="1.1" style="background-color:#ffffff" x="0px" y="0px" width="1024px" height="1024px" viewBox="0 0 1024 1024" enable-background="new 0 0 1024 1024" xmlns="http://www.w3.org/2000/svg">
  <defs transform="matrix(1 0 0 1 0 0) "/>
  <g id="shadow">
    <g id="shape">
      <path id="path" fill="#000000" fill-opacity="0.09803921568627451" d="M969.65,351.3 Q961.05,330.45 950.25,310.45 C946.2,302.9 941.9,295.4 937.35,288.05 917.8,256.35 893.95,226.4 865.8,198.25 773.65,106.1 662.35,60 532,60 401.65,60 290.4,106.1 198.25,198.25 106.1,290.4 60,401.65 60,532 60,662.35 106.1,773.65 198.25,865.8 290.4,957.95 401.65,1004 532,1004 662.35,1004 773.65,957.95 865.8,865.8 916.55,815 953.35,758.4 976.15,696.05 994.7,645.2 1004,590.55 1004,532 1004,487.1 998.55,444.45 987.6,404.05 986.35,399.5 985.05,394.95 983.7,390.45 979.6,377.15 974.9,364.1 969.65,351.3z"/>
    </g>
  </g>
  <g id="criclebg">
    <g id="shape2">
      <path id="path1" fill="#19979C" fill-opacity="1" d="M958.55,354.65 C958.25,353.9 957.95,353 957.65,352.1 951.2,333.85 943.5,316.05 934.5,298.45 930.7,291.05 926.55,283.5 922.2,276.05 901.9,241.55 876.4,208.85 845.85,178.3 773.4,105.85 689.1,61.85 593.05,46.4 592.75,46.35 592.45,46.3 592.2,46.25 575.95,43.65 559.4,41.85 542.15,40.9 532.45,40.35 522.3,40.05 512.05,40.05 502.7,40.05 493.45,40.3 484.15,40.8 365.8,46.9 263.85,92.75 178.3,178.3 121.8,234.8 82.65,298.45 60.85,369 Q40.05,436.2 40.05,512.05 C40.05,642.4 86.15,753.7 178.3,845.85 226.35,893.85 279.6,929.4 337.4,952.15 343.85,954.75 350,957 356.2,959.1 396.7,972.95 439.25,981 484.15,983.35 484.3,983.35 484.4,983.35 484.55,983.35 493.05,983.8 501.15,984.05 509.05,984.05 510.25,984.05 511.15,984.05 512.05,984.05 522.35,984.05 532.55,983.75 542.15,983.25 544.65,983.1 546.9,982.95 549.1,982.8 569.3,981.35 589,978.75 607.8,975.1 615.75,973.55 623.6,971.8 631.2,969.95 695.9,953.7 754.55,924 807.35,880.8 820.6,869.9 833.4,858.3 845.85,845.85 894.45,797.25 930.25,743.35 953.2,684.05 957.15,673.8 960.75,663.4 963.95,652.9 975.65,614.25 982.25,573.5 983.75,530.55 983.95,524.5 984.05,518.3 984.05,512.05 984.05,511.4 984.05,510.7 984.05,510.05 984.05,509.7 984.05,509.4 984.05,509.05 983.85,468.4 979.1,429.55 969.75,392.05 968.65,387.7 967.4,383.05 966.1,378.45 963.85,370.6 961.35,362.65 958.55,354.65z"/>
    </g>
  </g>
  <g id="criclebg1">
    <g id="shape4">
      <path id="path2" fill="#000000" fill-opacity="0.2" d="M820.25,392.05 L688.05,392.05 512.05,544.05 352.05,396.05 212.05,440.05 183.5,656.05 511.5,984.05 C511.7,984.05 511.9,984.05 512.05,984.05 Q527.3,984.05 542.15,983.25 C544.65,983.1 546.9,982.95 549.1,982.8 569.3,981.35 589,978.75 607.8,975.1 615.75,973.55 623.6,971.8 631.2,969.95 695.9,953.7 754.55,924 807.35,880.8 820.6,869.9 833.4,858.3 845.85,845.85 894.45,797.25 930.25,743.35 953.2,684.05 957.15,673.8 960.75,663.4 963.95,652.9 973.45,621.45 979.6,588.6 982.4,554.2 L820.25,392.05z"/>
    </g>
  </g>
  <g id="criclebg2">
    <g id="shape6">
      <path id="path3" fill="none" stroke="#FFFFFF" stroke-opacity="1" stroke-width="37.29" stroke-linecap="round" stroke-linejoin="round" d="M734.7,598.7 L734.7,552.7 L684.85,552.7 L734.7,552.7 L734.7,506.7 L734.7,552.7 776.85,552.7"/>
    </g>
  </g>
  <g id="Calque.__204">
    <g id="shape8">
      <path id="path4" fill="#FFFFFF" fill-opacity="1" d="M896.85,531.45 C896.9,525.45 896.65,519.55 896.05,513.95 892.4,471 874.8,434 843.45,402.65 807.85,367.05 764.9,349.3 714.65,349.25 666.4,349.3 624.85,365.55 590.2,398.35 589.55,398.95 588.85,399.65 588.2,400.2 L583.15,405.25 C583.2,405.35 583.2,405.35 583.1,405.3 L515.55,472.9 443.35,400.85 C408.4,367.15 366.45,350.35 317.45,350.35 267.2,350.35 224.2,368.1 188.6,403.7 157.45,434.85 140,471.6 136.05,513.95 135.55,519.65 135.35,525.6 135.3,531.55 135.3,531.9 135.25,532.15 135.3,532.55 135.25,582.85 153.1,625.85 188.65,661.4 224.25,696.95 267.15,714.75 317.5,714.75 363.1,714.7 402.65,700.15 436.2,670.9 439.65,667.9 443,664.7 446.3,661.4 449.65,658.05 452.8,654.7 455.85,651.2 L516.3,590.75 581.5,655.95 C582.9,657.4 584.35,658.8 585.8,660.3 L588.5,663 C590.1,664.5 591.65,665.95 593.2,667.4 627.3,698.2 667.8,713.7 714.6,713.7 764.95,713.65 807.9,695.9 843.5,660.35 879.05,624.75 896.9,581.8 896.9,531.45 L896.85,531.45z M814.1,531.45 L814.05,531.5 C814.05,558.95 804.3,582.3 784.9,601.75 765.45,621.15 742.1,630.9 714.65,630.9 687.2,630.85 663.85,621.15 644.4,601.75 643.9,601.25 643.45,600.75 642.95,600.25 L574.15,531.5 574.8,531.5 637.15,469.2 C639.3,466.5 641.8,463.75 644.4,461.2 663.8,441.75 687.2,432.1 714.65,432.05 742.1,432.05 765.45,441.75 784.9,461.2 800.05,476.35 809.35,493.95 812.6,513.9 813.65,519.65 814.05,525.45 814.1,531.45z M317.45,433.15 C344.9,433.1 368.3,442.8 387.75,462.25 389.05,463.55 390.3,464.9 391.6,466.3 L456.9,531.5 373,615.25 C356.5,626.5 338.1,631.95 317.5,631.9 290,631.95 266.65,622.25 247.2,602.8 227.8,583.4 218.1,560.05 218.15,532.55 L218.1,532.5 C218.1,532.1 218.15,531.85 218.05,531.5 218.2,525.5 218.7,519.6 219.65,513.95 223.1,494.3 232.3,477.1 247.15,462.25 266.6,442.8 290.05,433.15 317.45,433.15z"/>
    </g>
  </g>
</svg>