<?xml version="1.0" encoding="utf-8"?>
<!-- Generator: flash2svg, http://dissentgraphics.com/tools/flash2svg -->
<svg xmlns:xlink="http://www.w3.org/1999/xlink" id="Apps-Vox" image-rendering="optimizeSpeed" baseProfile="basic" version="1.1" style="background-color:#ffffff" x="0px" y="0px" width="1024px" height="1024px" viewBox="0 0 1024 1024" enable-background="new 0 0 1024 1024" xmlns="http://www.w3.org/2000/svg">
  <defs transform="matrix(1 0 0 1 0 0) "/>
  <g id="shadow">
    <g id="shape">
      <path id="path" fill="#000000" fill-opacity="0.09803921568627451" d="M969.65,351.3 Q961.05,330.45 950.25,310.45 C946.2,302.9 941.9,295.4 937.35,288.05 917.8,256.35 893.95,226.4 865.8,198.25 773.65,106.1 662.35,60 532,60 401.65,60 290.4,106.1 198.25,198.25 106.1,290.4 60,401.65 60,532 60,662.35 106.1,773.65 198.25,865.8 290.4,957.95 401.65,1004 532,1004 662.35,1004 773.65,957.95 865.8,865.8 916.55,815 953.35,758.4 976.15,696.05 994.7,645.2 1004,590.55 1004,532 1004,487.1 998.55,444.45 987.6,404.05 986.35,399.5 985.05,394.95 983.7,390.45 979.6,377.15 974.9,364.1 969.65,351.3z"/>
    </g>
  </g>
  <g id="circle">
    <g id="shape2">
      <path id="path1" fill="#000000" fill-opacity="1" d="M919.75,527.75 Q919.75,357.9 799.65,237.8 C719.6,157.75 623,117.75 509.75,117.75 396.5,117.75 299.85,157.75 219.8,237.8 139.75,317.85 99.75,414.5 99.75,527.75 99.75,641 139.75,737.6 219.8,817.65 299.85,897.7 396.5,937.75 509.75,937.75 623,937.75 719.6,897.7 799.65,817.65 879.7,737.6 919.75,641 919.75,527.75z"/>
      <path id="path2" fill="none" stroke="#CCCCCC" stroke-opacity="1" stroke-width="7.4" stroke-linecap="round" stroke-linejoin="round" d="M919.75,527.75 Q919.75,357.9 799.65,237.8 C719.6,157.75 623,117.75 509.75,117.75 396.5,117.75 299.85,157.75 219.8,237.8 139.75,317.85 99.75,414.5 99.75,527.75 99.75,641 139.75,737.6 219.8,817.65 299.85,897.7 396.5,937.75 509.75,937.75 623,937.75 719.6,897.7 799.65,817.65 879.7,737.6 919.75,641 919.75,527.75z"/>
    </g>
  </g>
  <g id="Calque.__204">
    <g id="shape4">
      <path id="path3" fill="#F0670B" fill-opacity="1" d="M834.8,392 Q834.9,392.25 835.05,392.5 C840.6,403.45 845.65,414.7 850.1,426.15 835.5,366.1 804.85,312.75 758.1,266 690.15,198.05 608.15,164.05 512.05,164.05 421.25,164.05 343,194.4 277.35,255.1 273.5,258.65 269.75,262.25 266,266 219.2,312.8 188.5,366.25 173.95,426.4 178.5,414.65 183.6,403.2 189.35,392 189.9,390.95 190.45,389.85 191,388.75 207.35,357.35 228.3,328 253.8,300.65 269.75,283.55 286.45,268.35 303.9,255.1 364.4,209.05 433.8,186 512.05,186 612.9,186 698.95,224.2 770.25,300.65 796.6,328.9 818.15,359.35 834.8,392z"/>
      <path id="path4" fill="#F69833" fill-opacity="1" d="M835.05,392.5 Q834.9,392.25 834.8,392 C818.15,359.35 796.6,328.9 770.25,300.65 698.95,224.2 612.9,186 512.05,186 433.8,186 364.4,209.05 303.9,255.1 286.45,268.35 269.75,283.55 253.8,300.65 228.3,328 207.35,357.35 191,388.75 190.45,389.85 189.9,390.95 189.35,392 183.6,403.2 178.5,414.65 173.95,426.4 167.35,453.6 164.05,482.15 164.05,512.05 164.05,525.65 164.75,538.95 166.1,552 166.7,550.95 167.3,549.85 167.9,548.75 185.45,517.35 207.85,488 235.2,460.65 311.65,384.2 403.95,346 512.05,346 620.15,346 712.4,384.2 788.85,460.65 812.5,484.3 832.55,509.5 848.9,536.25 852.05,541.4 855.1,546.65 858.05,552 859.4,538.95 860.05,525.65 860.05,512.05 860.05,482.05 856.75,453.4 850.1,426.15 845.65,414.7 840.6,403.45 835.05,392.5z"/>
      <path id="path5" fill="#FDBD39" fill-opacity="1" d="M857.05,560.5 C857.4,557.65 857.7,554.85 858.05,552 855.1,546.65 852.05,541.4 848.9,536.25 832.55,509.5 812.5,484.3 788.85,460.65 712.4,384.2 620.15,346 512.05,346 403.95,346 311.65,384.2 235.2,460.65 207.85,488 185.45,517.35 167.9,548.75 167.3,549.85 166.7,550.95 166.1,552 166.25,553.6 166.45,555.2 166.65,556.75 175.7,633.8 208.85,700.95 266,758.1 296.15,788.25 329.05,811.75 364.75,828.5 352.1,805.05 345.75,779 345.75,750.3 345.75,704.35 362,665.15 394.45,632.7 426.9,600.25 466.1,584 512.05,584 558,584 597.2,600.25 629.65,632.7 662.1,665.15 678.35,704.35 678.35,750.3 678.35,775.8 673.35,799.25 663.35,820.6 662.1,823.25 660.75,825.9 659.35,828.5 664.65,826 669.9,823.35 675.1,820.6 704.75,804.6 732.45,783.75 758.1,758.1 805.05,711.15 835.75,657.55 850.3,597.2 853.15,585.2 855.4,572.95 857.05,560.5z"/>
      <path id="path6" fill="#FCCF3A" fill-opacity="1" d="M394.45,632.7 C362,665.15 345.75,704.35 345.75,750.3 345.75,779 352.1,805.05 364.75,828.5 369.9,830.95 375.15,833.25 380.45,835.4 420.9,851.85 464.8,860.05 512.05,860.05 565.5,860.05 614.6,849.55 659.35,828.5 660.75,825.9 662.1,823.25 663.35,820.6 673.35,799.25 678.35,775.8 678.35,750.3 678.35,704.35 662.1,665.15 629.65,632.7 597.2,600.25 558,584 512.05,584 466.1,584 426.9,600.25 394.45,632.7z M470.65,743.2 C482.1,731.75 495.9,726.05 512.05,726.05 528.2,726.05 542,731.75 553.45,743.2 564.9,754.65 570.6,768.45 570.6,784.6 570.6,800.75 564.9,814.55 553.45,826 542,837.45 528.2,843.15 512.05,843.15 495.9,843.15 482.1,837.45 470.65,826 459.2,814.55 453.5,800.75 453.5,784.6 453.5,768.45 459.2,754.65 470.65,743.2z"/>
      <path id="path7" fill="#FDED8F" fill-opacity="1" d="M470.65,743.2 C459.2,754.65 453.5,768.45 453.5,784.6 453.5,800.75 459.2,814.55 470.65,826 482.1,837.45 495.9,843.15 512.05,843.15 528.2,843.15 542,837.45 553.45,826 564.9,814.55 570.6,800.75 570.6,784.6 570.6,768.45 564.9,754.65 553.45,743.2 542,731.75 528.2,726.05 512.05,726.05 495.9,726.05 482.1,731.75 470.65,743.2z"/>
    </g>
  </g>
  <g id="baf">
    <g id="shape13">
      <path id="path10" fill="#000000" fill-opacity="1" d="M712.8,139.55 C704.05,134.75 695.2,130.3 686.25,126.25 658.65,113.7 629.7,104.4 599.4,98.4 592.15,96.95 584.85,95.7 577.45,94.65 562,92.4 546.25,91 530.2,90.4 524.2,90.15 518.15,90.05 512.05,90.05 506.6,90.05 501.2,90.15 495.85,90.35 480,90.85 464.45,92.15 449.25,94.3 441.55,95.35 433.95,96.6 426.45,98.05 396.15,103.95 367.2,113.1 339.6,125.5 330.45,129.55 321.5,134 312.7,138.8 304.8,143.1 297,147.7 289.35,152.55 281.3,157.7 273.35,163.1 265.55,168.85 258.5,174 251.6,179.45 244.8,185.2 237.6,191.2 230.5,197.5 223.55,204.05 220.2,207.2 216.9,210.4 213.65,213.65 210.7,216.6 207.8,219.55 204.95,222.55 198.35,229.5 192.05,236.55 186.05,243.75 180.3,250.55 174.85,257.45 169.65,264.45 163.9,272.2 158.45,280.15 153.3,288.2 148.4,295.85 143.8,303.6 139.45,311.45 134.65,320.25 130.2,329.2 126.05,338.25 113.6,365.75 104.35,394.6 98.4,424.8 96.8,432.85 95.45,441 94.3,449.25 92.25,463.9 90.95,478.85 90.4,494.1 90.15,500.05 90.05,506 90.05,512.05 90.05,518.15 90.15,524.2 90.4,530.2 90.95,545.5 92.3,560.5 94.35,575.25 95.45,583.4 96.8,591.45 98.4,599.4 104.4,629.65 113.65,658.5 126.15,686.05 130.25,695.1 134.7,704.05 139.55,712.8 143.85,720.65 148.45,728.4 153.35,736.05 158.5,744.1 163.95,752 169.75,759.8 174.95,766.8 180.4,773.7 186.1,780.5 192.15,787.65 198.45,794.75 205.05,801.7 207.85,804.65 210.7,807.55 213.65,810.5 216.95,813.8 220.3,817.05 223.65,820.2 230.6,826.75 237.65,833.05 244.85,839.05 251.7,844.75 258.6,850.2 265.65,855.35 273.5,861.1 281.45,866.55 289.55,871.7 297.2,876.55 304.95,881.15 312.9,885.45 321.65,890.2 330.6,894.6 339.65,898.7 367.3,911.05 396.25,920.2 426.6,926.1 433.95,927.55 441.4,928.75 448.9,929.8 464.3,931.95 480.05,933.25 496.1,933.8 501.4,933.95 506.7,934.05 512.05,934.05 518.1,934.05 524.1,933.95 530.05,933.75 546.25,933.1 562.1,931.7 577.65,929.45 584.95,928.4 592.2,927.15 599.35,925.75 629.85,919.7 659,910.3 686.75,897.65 695.5,893.65 704.15,889.3 712.65,884.65 720.5,880.3 728.3,875.7 735.95,870.85 744,865.7 751.9,860.25 759.7,854.5 766.7,849.25 773.6,843.8 780.45,838.1 787.6,832.05 794.65,825.75 801.6,819.2 804.6,816.35 807.55,813.45 810.5,810.5 813.75,807.25 816.95,803.95 820.1,800.6 826.65,793.65 832.95,786.55 839,779.4 844.65,772.55 850.1,765.65 855.3,758.6 861.05,750.8 866.45,742.85 871.6,734.8 876.45,727.15 881.05,719.35 885.35,711.45 889.75,703.35 893.85,695.1 897.65,686.75 906.2,667.95 913.3,648.55 918.85,628.5 918.9,628.25 919,628 919.05,627.75 921.75,617.85 924.1,607.8 926.05,597.65 927.3,591.05 928.45,584.4 929.45,577.7 931.8,561.55 933.25,545.1 933.8,528.3 933.95,522.9 934.05,517.5 934.05,512.05 934.05,506.7 933.95,501.4 933.8,496.1 933.25,479.25 931.8,462.8 929.5,446.7 928.5,439.95 927.35,433.25 926.1,426.6 924.15,416.45 921.8,406.4 919.1,396.55 919.05,396.4 919,396.2 918.95,396.05 913.4,376 906.4,356.65 897.9,337.9 894.05,329.45 889.9,321.1 885.45,312.9 881.15,304.95 876.55,297.15 871.7,289.5 866.55,281.45 861.1,273.5 855.35,265.65 850.2,258.6 844.75,251.7 839.05,244.85 833.05,237.65 826.75,230.6 820.2,223.65 817.05,220.3 813.8,216.95 810.5,213.65 807.55,210.7 804.65,207.85 801.7,205.05 794.75,198.45 787.65,192.15 780.5,186.1 773.7,180.4 766.8,174.95 759.8,169.75 752,163.95 744.1,158.5 736.05,153.35 728.4,148.45 720.65,143.85 712.8,139.55z M784.75,784.75 C709.45,860.1 618.55,897.75 512.05,897.75 405.55,897.75 314.65,860.1 239.3,784.75 164,709.45 126.35,618.55 126.35,512.05 126.35,405.55 164,314.65 239.3,239.3 314.65,164 405.55,126.35 512.05,126.35 618.55,126.35 709.45,164 784.75,239.3 860.1,314.65 897.75,405.55 897.75,512.05 Q897.75,671.8 784.75,784.75z"/>
      <path id="path12" fill="none" stroke="#333333" stroke-opacity="1" stroke-width="26.25" stroke-linecap="round" stroke-linejoin="round" d="M784.75,784.75 Q897.75,671.8 897.75,512.05 C897.75,405.55 860.1,314.65 784.75,239.3 709.45,164 618.55,126.35 512.05,126.35 405.55,126.35 314.65,164 239.3,239.3 164,314.65 126.35,405.55 126.35,512.05 126.35,618.55 164,709.45 239.3,784.75 314.65,860.1 405.55,897.75 512.05,897.75 618.55,897.75 709.45,860.1 784.75,784.75z"/>
    </g>
  </g>
  <g id="ico">
    <g id="shape18">
      <path id="path16" fill="#000000" fill-opacity="1" d="M670.9,574.1 Q682.05,545.4 682.05,512.05 C682.05,468.05 667.45,430.1 638.15,398 L638.125,397.975 L397.975,638.125 L398,638.15 C430.1,667.45 468.05,682.05 512.05,682.05 530,682.05 546.95,679.6 562.9,674.75 588.65,666.9 611.75,652.75 632.25,632.25 649.7,614.8 662.6,595.4 670.9,574.1z"/>
      <path id="path17" fill="#151515" fill-opacity="1" d="M632.25,391.85 C627.55,387.15 622.7,382.8 617.55,378.6 587.6,354.3 552.35,342.05 512.05,342.05 465.1,342.05 425.05,358.65 391.85,391.85 358.65,425.05 342.05,465.1 342.05,512.05 342.05,552.4 354.3,587.65 378.6,617.55 382.85,622.8 387.2,627.6 391.85,632.25 393.9,634.3 396,636.3 398,638.15 L397.975,638.125 L638.125,397.975 L638.15,398 C636.3,396 634.3,393.9 632.25,391.85z"/>
    </g>
  </g>
  <g id="ico1">
    <g id="shape22">
      <path id="path18" fill="#333333" fill-opacity="1" d="M557.85,392.1 C543.9,386.8 528.55,384.05 512.05,384.05 476.7,384.05 446.55,396.55 421.55,421.55 415.7,427.4 410.5,433.55 406.15,439.85 399.4,454.55 396,470.65 396,488.1 396,520.15 407.35,547.5 430,570.15 430.7,570.85 431.4,571.55 432.1,572.2 454.35,593.5 481,604.15 512.05,604.15 544.1,604.15 571.45,592.8 594.1,570.15 616.75,547.5 628.1,520.15 628.1,488.1 628.1,470.65 624.75,454.55 618,439.9 613.6,433.55 608.4,427.4 602.55,421.55 589.2,408.2 574.4,398.45 557.85,392.1z"/>
      <path id="path19" fill="#242424" fill-opacity="1" d="M618,439.9 C624.75,454.55 628.1,470.65 628.1,488.1 628.1,520.15 616.75,547.5 594.1,570.15 571.45,592.8 544.1,604.15 512.05,604.15 481,604.15 454.35,593.5 432.1,572.2 431.4,571.55 430.7,570.85 430,570.15 407.35,547.5 396,520.15 396,488.1 396,470.65 399.4,454.55 406.15,439.85 391.35,460.95 384.05,485 384.05,512.05 384.05,526.4 386.1,539.9 390.15,552.2 396.3,571.05 406.7,587.7 421.55,602.55 446.55,627.55 476.7,640.05 512.05,640.05 525.55,640.05 538.35,638.2 550.35,634.55 569.75,628.65 587.1,618 602.55,602.55 615.7,589.4 625.4,574.8 631.65,558.75 Q640.05,537.15 640.05,512.05 C640.05,485 632.75,460.95 618,439.9z"/>
    </g>
  </g>
  <g id="Capa.__201">
    <g id="shape26">
      <path id="path20" fill="#666666" fill-opacity="1" d="M553.35,438.35 Q553.35,421.8 541.65,410.1 C533.9,402.35 524.5,398.45 513.45,398.45 502.4,398.45 493,402.35 485.2,410.1 477.45,417.9 473.55,427.3 473.55,438.35 473.55,449.4 477.45,458.8 485.2,466.55 493,474.35 502.4,478.25 513.45,478.25 524.5,478.25 533.9,474.35 541.65,466.55 549.45,458.8 553.35,449.4 553.35,438.35z M522.25,423.5 C519.65,426.1 516.5,427.4 512.85,427.4 509.2,427.4 506.05,426.1 503.45,423.5 500.85,420.9 499.55,417.75 499.55,414.1 499.55,410.45 500.85,407.3 503.45,404.7 506.05,402.1 509.2,400.8 512.85,400.8 516.5,400.8 519.65,402.1 522.25,404.7 524.85,407.3 526.15,410.45 526.15,414.1 526.15,417.75 524.85,420.9 522.25,423.5z"/>
      <path id="path21" fill="#FFFFFF" fill-opacity="1" d="M522.25,423.5 C524.85,420.9 526.15,417.75 526.15,414.1 526.15,410.45 524.85,407.3 522.25,404.7 519.65,402.1 516.5,400.8 512.85,400.8 509.2,400.8 506.05,402.1 503.45,404.7 500.85,407.3 499.55,410.45 499.55,414.1 499.55,417.75 500.85,420.9 503.45,423.5 506.05,426.1 509.2,427.4 512.85,427.4 516.5,427.4 519.65,426.1 522.25,423.5z"/>
    </g>
  </g>
  <g id="Calque.__205">
    <g id="shape31">
      <path id="path24" fill="#BCBCBC" fill-opacity="1" d="M847.1,179.55 C846.65,179.1 846.25,178.7 845.85,178.3 836.5,168.95 826.95,160.05 817.05,151.55 751.25,94.8 676.25,59.65 592.2,46.25 575.95,43.65 559.4,41.85 542.15,40.9 532.45,40.35 522.3,40.05 512.05,40.05 502.7,40.05 493.45,40.3 484.15,40.8 365.8,46.9 263.85,92.75 178.3,178.3 86.15,270.45 40.05,381.7 40.05,512.05 40.05,629.1 77.2,730.8 151.55,817.05 160,826.85 168.9,836.45 178.3,845.85 178.7,846.25 179.1,846.65 179.55,847.1 L179.525,847.075 L214.875,811.725 L214.9,811.75 C214.45,811.3 214.05,810.9 213.65,810.5 210.7,807.55 207.85,804.65 205.05,801.7 198.8,795.1 192.8,788.4 187.05,781.6 186.7,781.25 186.4,780.85 186.1,780.5 180.4,773.7 174.95,766.8 169.75,759.8 163.95,752 158.5,744.1 153.35,736.05 148.45,728.4 143.85,720.65 139.55,712.8 134.7,704.05 130.25,695.1 126.15,686.05 113.65,658.5 104.4,629.65 98.4,599.4 96.8,591.45 95.45,583.4 94.35,575.25 92.3,560.5 90.95,545.5 90.4,530.2 90.15,524.2 90.05,518.15 90.05,512.05 90.05,506 90.15,500.05 90.4,494.1 90.95,478.85 92.25,463.9 94.3,449.25 95.45,441 96.8,432.85 98.4,424.8 104.35,394.6 113.6,365.75 126.05,338.25 130.2,329.2 134.65,320.25 139.45,311.45 143.8,303.6 148.4,295.85 153.3,288.2 158.45,280.15 163.9,272.2 169.65,264.45 174.85,257.45 180.3,250.55 186.05,243.75 192.05,236.55 198.35,229.5 204.95,222.55 207.8,219.55 210.7,216.6 213.65,213.65 216.9,210.4 220.2,207.2 223.55,204.05 230.5,197.5 237.6,191.2 244.8,185.2 251.6,179.45 258.5,174 265.55,168.85 273.35,163.1 281.3,157.7 289.35,152.55 297,147.7 304.8,143.1 312.7,138.8 321.5,134 330.45,129.55 339.6,125.5 367.2,113.1 396.15,103.95 426.45,98.05 433.95,96.6 441.55,95.35 449.25,94.3 464.45,92.15 480,90.85 495.85,90.35 501.2,90.15 506.6,90.05 512.05,90.05 518.15,90.05 524.2,90.15 530.2,90.4 546.25,91 562,92.4 577.45,94.65 584.85,95.7 592.15,96.95 599.4,98.4 629.7,104.4 658.65,113.7 686.25,126.25 695.2,130.3 704.05,134.75 712.8,139.55 720.65,143.85 728.4,148.45 736.05,153.35 744.1,158.5 752,163.95 759.8,169.75 766.8,174.95 773.7,180.4 780.5,186.1 780.85,186.4 781.25,186.7 781.6,187.05 788.4,192.8 795.1,198.8 801.7,205.05 804.65,207.85 807.55,210.7 810.5,213.65 810.9,214.05 811.3,214.45 811.75,214.9 L811.725,214.875 L847.075,179.525"/>
      <path id="path28" fill="#999999" fill-opacity="1" d="M811.75,214.9 C814.6,217.8 817.45,220.7 820.2,223.65 826.75,230.6 833.05,237.65 839.05,244.85 844.75,251.7 850.2,258.6 855.35,265.65 861.1,273.5 866.55,281.45 871.7,289.5 876.55,297.15 881.15,304.95 885.45,312.9 889.9,321.1 894.05,329.45 897.9,337.9 906.4,356.65 913.4,376 918.95,396.05 Q919,396.3 919.1,396.55 C921.8,406.4 924.15,416.45 926.1,426.6 927.35,433.25 928.5,439.95 929.5,446.7 931.8,462.8 933.25,479.25 933.8,496.1 933.95,501.4 934.05,506.7 934.05,512.05 934.05,517.5 933.95,522.9 933.8,528.3 933.25,545.1 931.8,561.55 929.45,577.7 928.45,584.4 927.3,591.05 926.05,597.65 924.1,607.8 921.75,617.85 919.05,627.75 919,628 918.9,628.25 918.85,628.5 913.3,648.55 906.2,667.95 897.65,686.75 893.85,695.1 889.75,703.35 885.35,711.45 881.05,719.35 876.45,727.15 871.6,734.8 866.45,742.85 861.05,750.8 855.3,758.6 850.1,765.65 844.65,772.55 839,779.4 832.95,786.55 826.65,793.65 820.1,800.6 816.95,803.95 813.75,807.25 810.5,810.5 807.55,813.45 804.6,816.35 801.6,819.2 794.65,825.75 787.6,832.05 780.45,838.1 773.6,843.8 766.7,849.25 759.7,854.5 751.9,860.25 744,865.7 735.95,870.85 728.3,875.7 720.5,880.3 712.65,884.65 704.15,889.3 695.5,893.65 686.75,897.65 659,910.3 629.85,919.7 599.35,925.75 592.2,927.15 584.95,928.4 577.65,929.45 562.1,931.7 546.25,933.1 530.05,933.75 524.1,933.95 518.1,934.05 512.05,934.05 506.7,934.05 501.4,933.95 496.1,933.8 480.05,933.25 464.3,931.95 448.9,929.8 441.4,928.75 433.95,927.55 426.6,926.1 396.25,920.2 367.3,911.05 339.65,898.7 330.6,894.6 321.65,890.2 312.9,885.45 304.95,881.15 297.2,876.55 289.55,871.7 281.45,866.55 273.5,861.1 265.65,855.35 258.6,850.2 251.7,844.75 244.85,839.05 237.65,833.05 230.6,826.75 223.65,820.2 220.7,817.45 217.8,814.6 214.9,811.75 L214.875,811.725 L179.525,847.075 L179.55,847.1 C264.8,931.8 366.35,977.2 484.15,983.35 484.3,983.35 484.4,983.35 484.55,983.35 493.05,983.8 501.15,984.05 509.05,984.05 510.25,984.05 511.15,984.05 512.05,984.05 522.35,984.05 532.55,983.75 542.15,983.25 544.65,983.1 546.9,982.95 549.1,982.8 569.3,981.35 589,978.75 607.8,975.1 615.75,973.55 623.6,971.8 631.2,969.95 712,949.65 783.35,908.35 845.85,845.85 894.45,797.25 930.25,743.35 953.2,684.05 971.65,636.4 981.85,585.25 983.75,530.55 983.95,524.5 984.05,518.3 984.05,512.05 984.05,511.4 984.05,510.7 984.05,510.05 984.05,509.7 984.05,509.4 984.05,509.05 983.85,468.4 979.1,429.55 969.75,392.05 968.65,387.7 967.4,383.05 966.1,378.45 963.6,369.7 960.75,360.85 957.65,352.1 951.2,333.85 943.5,316.05 934.5,298.45 930.7,291.05 926.55,283.5 922.2,276.05 902.05,241.85 877,209.7 847.1,179.55 L847.075,179.525 L811.725,214.875"/>
    </g>
  </g>
</svg>