
<svg xmlns="http://www.w3.org/2000/svg" version="1.1" xmlns:xlink="http://www.w3.org/1999/xlink" preserveAspectRatio="none" x="0px" y="0px" width="1024px" height="1024px" viewBox="0 0 1024 1024">
<defs>
<g id="Layer6_0_FILL">
<path fill="#000000" fill-opacity="0.09803921568627451" stroke="none" d="
M 969.6 351.25
Q 961 330.4 950.2 310.4 944.1 299.05 937.3 288 907.95 240.45 865.75 198.2 727.5 59.95 531.95 59.95 336.45 59.95 198.2 198.2 59.95 336.45 59.95 531.95 59.95 727.5 198.2 865.75 336.45 1003.95 531.95 1003.95 727.5 1003.95 865.75 865.75 941.9 789.55 976.1 696 1003.95 619.75 1003.95 531.95 1003.95 464.6 987.55 404 985.7 397.15 983.65 390.4 977.5 370.45 969.6 351.25 Z"/>
</g>

<g id="Layer5_0_FILL">
<path fill="#64C0BF" stroke="none" d="
M 969.7 392
Q 967.95 385.15 966.05 378.4 964.52578125 373.114453125 962.85 367.85 960.3787109375 359.903125 957.6 352.05 947.85 324.5 934.45 298.4 928.65 287.05 922.15 276 891.5 224 845.8 178.25 736.8 69.25 592.15 46.2 567.65 42.3 542.1 40.85 527.2 40 512 40 497.9 40 484.1 40.75 306.55 49.95 178.25 178.25 40 316.5 40 512 40 707.55 178.25 845.8 263.0400390625 930.55703125 369.35 963.35 423.8880859375 980.1630859375 484.1 983.3 484.3 983.3 484.5 983.3 496.65 983.9 509 984 510.5 984 512 984 527.25 984 542.1 983.2 545.6 983 549.05 982.75 579.1 980.6 607.75 975.05 619.55 972.75 631.15 969.9 751.75 939.85 845.8 845.8 918.7 772.85 953.15 684 980.9 612.4 983.7 530.5 984 521.3 984 512 984 511 984 510 984 509.5 984 509 983.65 447.7 969.7 392 Z"/>
</g>

<g id="Layer4_0_FILL">
<path fill="#000000" fill-opacity="0.2" stroke="none" d="
M 953.15 684
Q 979.473046875 616.0818359375 983.35 538.9
L 744.1 299.65 289.2 735.35 537.3 983.45
Q 539.6990234375 983.329296875 542.1 983.2 545.6 983 549.05 982.75 579.1 980.6 607.75 975.05 619.55 972.75 631.15 969.9 751.75 939.85 845.8 845.8 918.7 772.85 953.15 684 Z"/>
</g>

<g id="Layer3_0_FILL">
<path fill="#64C0BF" stroke="none" d="
M 488.75 983
L 488.75 846.65 370.15 728.1
Q 376.9 780.9 373.85 827.15 373.65 828.9 373.55 830.8 372.35 845.85 366.9 861.8 362.85 875.5 357.3 886.4 349.491796875 901.7009765625 338.65 911.55 332.4080078125 917.2642578125 325.15 921.15 313.090234375 927.5943359375 298.25 929.05 298.1984375 931.41796875 298.15 933.75 317.978125 943.9818359375 338.65 952.1 351.95 957.3 365.65 961.65 423.95 980.2 488.75 983
M 481.3 315.5
Q 476.05 324.6 473 332.85 463.7 358.7 481 374.35 484.8 377.6 485.3 382.55 485.65 387.6 482.4 391.5 479.15 395.25 474.1 395.75 469.05 396.15 465.15 392.85 435.15 368 449.5 326.3 371.65 367.1 320.15 422.4 290.35 454.3 269.45 491.15 269.85 496.7 270.4 502.35 270.7 505.3 271 508.3 277.25 565.75 296 617.85 310.95 659.85 333.8 698.45 334.9 700.15 335.8 701.75 350.15 713.6 363.95 723.65 366.9 725.8 370 727.9 370.05 728 370.15 728.1 371.05 728.7 371.95 729.25 395.15 745.3 417.15 756.1 447.55 770.95 475.95 775.75 482.4 776.8 488.75 777.4
L 488.75 330.65
Q 484.9 323.15 481.3 315.5 Z"/>

<path fill="#333333" stroke="none" d="
M 473 332.85
Q 476.05 324.6 481.3 315.5 484.9 323.15 488.75 330.65
L 488.75 303.9
Q 489.25 303.15 489.85 302.35 489.55 303.5 489.55 304.8 489.45 317.4 489.95 329
L 489.95 262.9
Q 489.35 263.6 488.75 264.3
L 488.85 63.1
Q 319.75 -3.25 181.65 415.05 161.85 460.55 144.9 502.25 121.35 559.8 103.1 610 91.926171875 640.700390625 82.45 669.55 78.594921875 681.4291015625 75 693 78.5689453125 701.5982421875 82.5 710.05 93.85 734.45 108.25 757.6 137.2 804.05 178.55 845.4 230.2791015625 897.0931640625 290 929.45 294.2287109375 929.4376953125 298.25 929.05 313.090234375 927.5943359375 325.15 921.15 332.4080078125 917.2642578125 338.65 911.55 349.491796875 901.7009765625 357.3 886.4 362.85 875.5 366.9 861.8 370.95 847.75 373.55 830.8 373.65 828.9 373.85 827.15 376.9 780.9 370.15 728.1 370.05 728 370 727.9 366.9 725.8 363.95 723.65 350.15 713.6 335.8 701.75 334.9 700.15 333.8 698.45 310.95 659.85 296 617.85 277.25 565.75 271 508.3 270.7 505.3 270.4 502.35 269.85 496.7 269.45 491.15 290.35 454.3 320.15 422.4 371.65 367.1 449.5 326.3 435.15 368 465.15 392.85 469.05 396.15 474.1 395.75 479.15 395.25 482.4 391.5 485.65 387.6 485.3 382.55 484.8 377.6 481 374.35 463.7 358.7 473 332.85
M 241.1 537.9
Q 203.55 707 256.15 770.95 203.55 707 241.1 537.9 Z"/>

<path fill="#42807F" stroke="none" d="
M 709.95 510.75
Q 706.35 509.55 703 508.35 629.2 483.2 575.9 439.25 575.3 442.4 573.15 445 569.75 448.75 564.8 449.25 561.35 449.55 558.1 449.55 523.6 449.45 505.9 411.8 492.7 384.25 490.15 333.35 489.45 331.95 488.75 330.65
L 488.75 777.4
Q 489.65 777.4 490.45 777.5 489.55 777.5 488.75 777.6
L 488.75 777.4
Q 482.4 776.8 475.95 775.75 447.55 770.95 417.15 756.1 395.15 745.3 371.95 729.25 371.05 728.7 370.15 728.1
L 488.75 846.65 488.75 983
Q 500.25 983.5 512 983.5 520.7 983.5 529.25 983.25 560.1521484375 982.2302734375 589.65 977.7 590.28203125 956.16875 597.1 936 598.79765625 931.042578125 600.85 926.15 609.54140625 905.54609375 624.95 886.4 630.7 879.15 637.55 872.1 624.35 866.25 611.3 860.3 602.05 800.3 611.2 727.9 611.2 727.8 611.3 727.8 614.15 725.7 617 723.65 630.9 713.6 645.25 701.75 646.05 700.45 646.75 699.15 670.3 659.65 685.55 616.65 703.4 566.3 709.85 511.05 709.85 510.85 709.95 510.75
M 527.95 401.4
Q 538.75 424.55 559.75 425.05 538.75 405.45 521.45 382.55 524.2 393.15 527.95 401.4 Z"/>

<path fill="#282828" stroke="none" d="
M 934.05 567.1
Q 908.5236328125 535.721484375 872.1 506.2
L 743.3 209
Q 660.1 51.7 491.7 64.2 490.35 63.6 488.85 63.1
L 488.75 264.3
Q 489.35 263.6 489.95 262.9
L 489.95 329
Q 489.45 317.4 489.55 304.8 489.55 303.5 489.85 302.35 489.25 303.15 488.75 303.9
L 488.75 330.65
Q 489.45 331.95 490.15 333.35 492.7 384.25 505.9 411.8 523.6 449.45 558.1 449.55 561.35 449.55 564.8 449.25 569.75 448.75 573.15 445 575.3 442.4 575.9 439.25 629.2 483.2 703 508.35 706.35 509.55 709.95 510.75 709.85 510.85 709.85 511.05 703.4 566.3 685.55 616.65 670.3 659.65 646.75 699.15 646.05 700.45 645.25 701.75 630.9 713.6 617 723.65 614.15 725.7 611.3 727.8 611.2 727.8 611.2 727.9 602.05 800.3 611.3 860.3 624.35 866.25 637.55 872.1 630.7 879.15 624.95 886.4 609.54140625 905.54609375 600.85 926.15 598.79765625 931.042578125 597.1 936 590.28203125 956.16875 589.65 977.7 593.4060546875 977.134375 597.15 976.5 619.65 972.65 641.35 966.7 755.5 935.3 845.4 845.4 923.5 767.3 957.45 670.95 960.85 661.2 963.85 651.35 967.79609375 638.1244140625 970.95 624.6 967.644921875 617.66875 963.85 610.8 951.48046875 588.5296875 934.05 567.1
M 916.9 630.45
Q 930.3298828125 643.2197265625 941.45 656.75 930.3298828125 643.2197265625 916.9 630.45 866.884375 582.82421875 784.95 545.8 866.884375 582.82421875 916.9 630.45
M 559.75 425.05
Q 538.75 424.55 527.95 401.4 524.2 393.15 521.45 382.55 538.75 405.45 559.75 425.05
M 714.6 835.05
Q 810 791.6 827.5 734.05 810 791.6 714.6 835.05 Z"/>
</g>

<g id="Layer2_0_FILL">
<path fill="#AFD1BB" stroke="none" d="
M 488.7 777.35
L 488.7 777.55
Q 489.5 777.45 490.4 777.45 489.6 777.35 488.7 777.35 Z"/>

<path fill="#282828" stroke="none" d="
M 489.9 656.8
L 489.9 674.55
Q 492.45 675.9 497.2 674.65 504.65 672.85 512.1 675.2 517.45 676.3 522.6 676.8
L 489.9 677.6 489.9 708.4
Q 549.25 705.25 559.45 671.35
L 531.5 658.4
Q 503.05 647.3 489.9 656.8
M 592.2 506.8
Q 596 503.05 596 497.7 596 496.4 595.8 495.45 595.6 493.95 595 492.75 586.05 493.65 577.75 495.15 575.85 495.55 573.9 495.95 572 496.4 570.15 497 570.15 497.3 570.15 497.7 570.15 498.3 570.15 499 570.6 503.45 573.9 506.8 577.65 510.6 583 510.6 588.45 510.6 592.2 506.8 Z"/>

<path fill="#FFFFFF" stroke="none" d="
M 481.35 674.65
Q 474.05 672.85 466.5 675.2 460.65 676.5 454.65 676.9
L 489.9 677.6 522.6 676.8
Q 517.45 676.3 512.1 675.2 504.65 672.85 497.2 674.65 492.45 675.9 489.9 674.55 489.6 674.45 489.4 674.25 486.6 676 481.35 674.65
M 334.35 492.45
Q 335.05 493.55 335.75 494.75
L 358.35 518.9
Q 359.55 519.7 360.7 520.3
L 361.7 521
Q 362.2 521.3 362.9 521.6 395.1 539.2 444.3 513.15 441.95 511.5 439.35 509.8 439.15 509.7 439.05 509.6 436.5 508 433.9 506.55 430.05 504.55 425.9 502.65 420.35 500.3 414.1 498.6 411.15 497.6 408.25 496.9 408.25 497.2 408.25 497.5 408.25 498.2 408.25 498.9 407.75 503.25 404.5 506.55 400.85 510.2 395.6 510.2 390.25 510.2 386.55 506.55 382.9 502.85 382.9 497.5 382.9 496.3 383.1 495.35 383.2 493.95 383.8 492.75 382.8 492.65 381.7 492.55 380.55 492.45 379.35 492.35 374.4 491.85 369.15 491.65 367.55 491.55 366.05 491.55
L 362.8 491.45
Q 354.95 491.35 346.85 491.75
L 343.8 491.95
Q 339.2 491.95 334.35 492.45
M 599.55 492.35
Q 598.25 492.45 597.05 492.55 596.1 492.65 595 492.75 595.6 493.95 595.8 495.45 596 496.4 596 497.7 596 503.05 592.2 506.8 588.45 510.6 583 510.6 577.65 510.6 573.9 506.8 570.6 503.45 570.15 499 570.15 498.3 570.15 497.7 570.15 497.3 570.15 497 567.15 497.7 564.2 498.7 557.85 500.4 552.2 502.85 547.95 504.75 544 506.8 541.4 508.3 538.8 509.9 538.65 510 538.45 510.1 535.95 511.8 533.5 513.55 583.5 540 616.3 522.2 616.9 521.8 617.5 521.5
L 618.45 520.8
Q 619.65 520.2 620.85 519.4
L 643.8 494.75
Q 644.6 493.65 645.2 492.45 640.35 492.05 635.7 491.95
L 632.55 491.75
Q 624.4 491.35 616.4 491.45
L 613.1 491.55
Q 611.55 491.55 609.85 491.65 604.6 491.85 599.55 492.35 Z"/>

<path fill="#333333" stroke="none" d="
M 466.5 675.2
Q 474.05 672.85 481.35 674.65 486.6 676 489.4 674.25 489.6 674.45 489.9 674.55
L 489.9 656.8
Q 489.6 656.9 489.4 657.1 476 647.1 447.2 658.4
L 419.25 671.35
Q 429.45 705.35 489.4 708.4 489.7 708.4 489.9 708.4
L 489.9 677.6 454.65 676.9
Q 460.65 676.5 466.5 675.2
M 404.5 495.95
Q 402.6 495.45 400.75 495.05 392.6 493.55 383.8 492.75 383.2 493.95 383.1 495.35 382.9 496.3 382.9 497.5 382.9 502.85 386.55 506.55 390.25 510.2 395.6 510.2 400.85 510.2 404.5 506.55 407.75 503.25 408.25 498.9 408.25 498.2 408.25 497.5 408.25 497.2 408.25 496.9 406.4 496.3 404.5 495.95 Z"/>

<path fill="#000000" fill-opacity="0.2" stroke="none" d="
M 335.75 494.75
Q 335.05 493.55 334.35 492.45 339.2 491.95 343.8 491.95
L 346.85 491.75
Q 354.95 491.35 362.8 491.45
L 366.05 491.55
Q 367.55 491.55 369.15 491.65 374.4 491.85 379.35 492.35 380.55 492.45 381.7 492.55 382.8 492.65 383.8 492.75 392.6 493.55 400.75 495.05 395.7 490.2 389.25 486.5 387.05 485.25 384.6 484.15 357.35 471.45 310.3 480.1 319.7 514.65 362.9 521.6 362.2 521.3 361.7 521
L 360.7 520.3
Q 359.55 519.7 358.35 518.9
L 335.75 494.75
M 597.05 492.55
Q 598.25 492.45 599.55 492.35 604.6 491.85 609.85 491.65 611.55 491.55 613.1 491.55
L 616.4 491.45
Q 624.4 491.35 632.55 491.75
L 635.7 491.95
Q 640.35 492.05 645.2 492.45 644.6 493.65 643.8 494.75
L 620.85 519.4
Q 619.65 520.2 618.45 520.8
L 617.5 521.5
Q 616.9 521.8 616.3 522.2 660.15 515.05 669.7 479.9 621.95 471.15 594.2 484.05 591.7 485.15 589.45 486.4 583 490.2 577.75 495.15 586.05 493.65 595 492.75 596.1 492.65 597.05 492.55 Z"/>

<path fill="#000000" fill-opacity="0.2980392156862745" stroke="none" d="
M 338.65 435.8
Q 336.75 436.1 334.75 436.6 364.5 452.85 394.3 467.4
L 459.9 499.7 435.8 473.35
Q 388.55 451.95 338.65 435.8
M 644.3 436.6
Q 642.35 436.1 640.55 435.8 590.55 451.95 543.3 473.35
L 519.2 499.7 584.8 467.4
Q 614.6 452.85 644.3 436.6 Z"/>
</g>

<g id="Layer1_0_STROKES_1_FILL">
<path fill="#FFFFFF" stroke="none" d="
M 396.3 839
Q 400.65 839 403.7 835.9 406.8 832.85 406.8 828.5 406.8 824.15 403.7 821.05 400.65 818 396.3 818 391.95 818 388.85 821.05 385.8 824.15 385.8 828.5 385.8 832.85 388.85 835.9 391.95 839 396.3 839
M 381.4 812.75
Q 378.35 809.7 374 809.7 369.65 809.7 366.55 812.75 363.5 815.85 363.5 820.2 363.5 824.55 366.55 827.6 369.65 830.7 374 830.7 378.35 830.7 381.4 827.6 384.5 824.55 384.5 820.2 384.5 815.85 381.4 812.75
M 426.5 828
Q 423.45 824.95 419.1 824.95 414.75 824.95 411.65 828 408.6 831.1 408.6 835.45 408.6 839.8 411.65 842.85 414.75 845.95 419.1 845.95 423.45 845.95 426.5 842.85 429.6 839.8 429.6 835.45 429.6 831.1 426.5 828
M 473.3 836.9
Q 470.25 833.85 465.9 833.85 461.55 833.85 458.45 836.9 455.4 840 455.4 844.35 455.4 848.7 458.45 851.75 461.55 854.85 465.9 854.85 470.25 854.85 473.3 851.75 476.4 848.7 476.4 844.35 476.4 840 473.3 836.9
M 452.8 840.75
Q 452.8 836.4 449.7 833.3 446.65 830.25 442.3 830.25 437.95 830.25 434.85 833.3 431.8 836.4 431.8 840.75 431.8 845.1 434.85 848.15 437.95 851.25 442.3 851.25 446.65 851.25 449.7 848.15 452.8 845.1 452.8 840.75
M 521.1 838.25
Q 518.05 835.2 513.7 835.2 509.35 835.2 506.25 838.25 503.2 841.35 503.2 845.7 503.2 850.05 506.25 853.1 509.35 856.2 513.7 856.2 518.05 856.2 521.1 853.1 524.2 850.05 524.2 845.7 524.2 841.35 521.1 838.25
M 497.15 838.6
Q 494.1 835.55 489.75 835.55 485.4 835.55 482.3 838.6 479.25 841.7 479.25 846.05 479.25 850.4 482.3 853.45 485.4 856.55 489.75 856.55 494.1 856.55 497.15 853.45 500.25 850.4 500.25 846.05 500.25 841.7 497.15 838.6
M 545 835.8
Q 541.95 832.75 537.6 832.75 533.25 832.75 530.15 835.8 527.1 838.9 527.1 843.25 527.1 847.6 530.15 850.65 533.25 853.75 537.6 853.75 541.95 853.75 545 850.65 548.1 847.6 548.1 843.25 548.1 838.9 545 835.8
M 584.2 821.45
Q 579.85 821.45 576.75 824.5 573.7 827.6 573.7 831.95 573.7 836.3 576.75 839.35 579.85 842.45 584.2 842.45 588.55 842.45 591.6 839.35 594.7 836.3 594.7 831.95 594.7 827.6 591.6 824.5 588.55 821.45 584.2 821.45
M 571.7 838.6
Q 571.7 834.25 568.6 831.15 565.55 828.1 561.2 828.1 556.85 828.1 553.75 831.15 550.7 834.25 550.7 838.6 550.7 842.95 553.75 846 556.85 849.1 561.2 849.1 565.55 849.1 568.6 846 571.7 842.95 571.7 838.6
M 614.1 830.65
Q 617.2 827.6 617.2 823.25 617.2 818.9 614.1 815.8 611.05 812.75 606.7 812.75 602.35 812.75 599.25 815.8 596.2 818.9 596.2 823.25 596.2 827.6 599.25 830.65 602.35 833.75 606.7 833.75 611.05 833.75 614.1 830.65 Z"/>
</g>

<path id="Layer3_0_1_STROKES" stroke="#999999" stroke-opacity="0.2" stroke-width="16" stroke-linejoin="round" stroke-linecap="round" fill="none" d="
M 784.95 545.8
Q 866.884375 582.82421875 916.925 630.45 930.3298828125 643.2197265625 941.45 656.75
M 241.1 537.9
Q 203.55 707 256.15 770.95
M 714.6 835.05
Q 810 791.6 827.5 734.05"/>

<path id="Symbole_33_0_Layer0_0_1_STROKES" stroke="#000000" stroke-opacity="0.2" stroke-width="8" stroke-linejoin="round" stroke-linecap="round" fill="none" d="
M 5.5 2.35
L 0 0
M 19.15 2.35
L 24.6 0"/>
</defs>

<g transform="matrix( 1, 0, 0, 1, 0,0) ">
<use xlink:href="#Layer6_0_FILL"/>
</g>

<g transform="matrix( 1, 0, 0, 1, 0,0) ">
<use xlink:href="#Layer5_0_FILL"/>
</g>

<g transform="matrix( 1, 0, 0, 1, 0,0) ">
<use xlink:href="#Layer4_0_FILL"/>
</g>

<g transform="matrix( 1, 0, 0, 1, 0,0) ">
<use xlink:href="#Layer3_0_FILL"/>

<use xlink:href="#Layer3_0_1_STROKES"/>
</g>

<g transform="matrix( 1, 0, 0, 1, 0,0) ">
<use xlink:href="#Layer2_0_FILL"/>
</g>

<g transform="matrix( 1.98114013671875, 0, 0, 1.98114013671875, 465.1,613.6) ">
<g transform="matrix( 1, 0, 0, 1, 0,0) ">
<use xlink:href="#Symbole_33_0_Layer0_0_1_STROKES"/>
</g>
</g>

<g transform="matrix( 1, 0, 0, 1, 0,0) ">
<use xlink:href="#Layer1_0_STROKES_1_FILL"/>
</g>
</svg>
