
<svg xmlns="http://www.w3.org/2000/svg" version="1.1" xmlns:xlink="http://www.w3.org/1999/xlink" preserveAspectRatio="none" x="0px" y="0px" width="1024px" height="1024px" viewBox="0 0 1024 1024">
<defs>
<g id="Layer6_0_FILL">
<path fill="#000000" fill-opacity="0.09803921568627451" stroke="none" d="
M 817 189.95
L 817 155.1
Q 694.197265625 59.95 531.95 59.95 336.45 59.95 198.2 198.2 59.95 336.45 59.95 531.95 59.95 727.5 198.2 865.75 336.45 1003.95 531.95 1003.95 727.5 1003.95 865.75 865.75 941.9 789.55 976.1 696 1003.95 619.75 1003.95 531.95 1003.95 464.6 987.55 404 985.7 397.15 983.65 390.4 977.5 370.45 969.6 351.25 961 330.4 950.2 310.4 944.1 299.05 937.3 288 907.95 240.45 865.75 198.2 861.561328125 194.011328125 857.3 189.95
L 817 189.95 Z"/>
</g>

<g id="Layer5_0_FILL">
<path fill="#5C7303" stroke="none" d="
M 845.8 178.25
Q 831.69765625 164.14765625 817 151.45 718.0853515625 66.2677734375 592.15 46.2 567.65 42.3 542.1 40.85 527.2 40 512 40 497.9 40 484.1 40.75 316.00234375 49.46015625 192.05 164.9 185.08046875 171.41953125 178.25 178.25 176.901953125 179.598046875 175.55 180.95 40 318.40625 40 512 40 707.55 178.25 845.8 193.2865234375 860.8306640625 209 874.2
L 209 669.9
Q 209 611.9 250 570.9 256.15 564.75 262.7 559.55 299.7 529.9 349 529.9
L 675 529.9
Q 714.1 529.9 745.45 548.55 760.65 557.55 774 570.9 815 611.9 815 669.9
L 815 874.25
Q 830.740234375 860.859765625 845.8 845.8 918.7 772.85 953.15 684 980.9 612.4 983.7 530.5 984 521.3 984 512 984 511 984 510 984 509.5 984 509 983.65 447.7 969.7 392 967.95 385.15 966.05 378.4 964.52578125 373.114453125 962.85 367.85 960.3787109375 359.903125 957.6 352.05 947.85 324.5 934.45 298.4 928.65 287.05 922.15 276 895.385546875 230.5919921875 857.15 189.95 851.593359375 184.0498046875 845.8 178.25 Z"/>

<path fill="#87A803" stroke="none" d="
M 774 570.9
Q 760.65 557.55 745.45 548.55 714.1 529.9 675 529.9
L 349 529.9
Q 299.7 529.9 262.7 559.55 256.15 564.75 250 570.9 209 611.9 209 669.9
L 209 874.2
Q 281.8927734375 936.3724609375 369.35 963.35 423.8880859375 980.1630859375 484.1 983.3 484.3 983.3 484.5 983.3 496.65 983.9 509 984 510.5 984 512 984 527.25 984 542.1 983.2 545.6 983 549.05 982.75 579.1 980.6 607.75 975.05 619.55 972.75 631.15 969.9 732.4388671875 944.66171875 815 874.25
L 815 669.9
Q 815 611.9 774 570.9 Z"/>
</g>

<g id="Layer3_0_FILL">
<path fill="#C4F406" stroke="none" d="
M 752.45 610
Q 755.5701171875 606.964453125 758.45 603.6 794.9 561.541015625 794.9 471.3 794.9 373.85 712.25 304.9 629.55 236.05 512.65 236.05 512.15 236.05 511.65 236.05 511.25 236.05 510.65 236.05 393.8 236.05 311.15 304.9 228.4 373.85 228.4 471.3 228.4 568.7 270.9 610 273.301171875 612.3361328125 275.7 614.6 315.5193359375 652.6857421875 351.7 675.8 390.05 700.15 406.55 729.3 414.8 746 431.8 759.75 464.45 786.25 510.65 786.25 511.25 786.25 511.65 786.25 512.15 786.25 512.65 786.25 558.95 786.25 591.6 759.75 608.6 746 616.75 729.3 633.25 700.15 671.7 675.8 710.05 651.3 752.45 610 Z"/>
</g>

<g id="Layer2_0_FILL">
<path fill="#333333" stroke="none" d="
M 307.85 521.05
Q 307.85 545.55 321.15 562.7 334.4 580.1 353.3 580.1 372.15 580.1 385.45 562.7 398.8 545.55 398.8 521.05 398.8 496.55 385.45 479.3 372.15 462.05 353.3 462.05 334.4 462.05 321.15 479.3 307.85 496.55 307.85 521.05
M 703.2 479.3
Q 689.95 462.05 671.05 462.05 652.15 462.05 638.9 479.3 625.6 496.55 625.6 521.05 625.6 545.55 638.9 562.7 652.15 580.1 671.05 580.1 689.95 580.1 703.2 562.7 716.55 545.55 716.55 521.05 716.55 496.55 703.2 479.3 Z"/>
</g>

<g id="Layer0_0_FILL">
<path fill="#FFFFFF" stroke="none" d="
M 633.95 495.15
Q 631.15 497.95 631.15 501.95 631.15 505.95 633.95 508.7 636.75 511.5 640.75 511.5 644.75 511.5 647.55 508.7 650.3 505.95 650.3 501.95 650.3 497.95 647.55 495.15 644.75 492.35 640.75 492.35 636.75 492.35 633.95 495.15
M 314.7 498.95
Q 314.7 502.8 317.4 505.5 320.2 508.3 324.05 508.3 327.9 508.3 330.65 505.5 333.4 502.8 333.4 498.95 333.4 495.05 330.65 492.3 327.9 489.55 324.05 489.55 320.2 489.55 317.4 492.3 314.7 495.05 314.7 498.95 Z"/>
</g>

<path id="Layer4_0_1_STROKES" stroke="#87A803" stroke-width="68" stroke-linejoin="round" stroke-linecap="round" fill="none" d="
M 767 608
Q 831.7 643.7 865 699
M 257 608
Q 192.3 643.7 159 699"/>
</defs>

<g transform="matrix( 1, 0, 0, 1, 0,0) ">
<use xlink:href="#Layer6_0_FILL"/>
</g>

<g transform="matrix( 1, 0, 0, 1, 0,0) ">
<use xlink:href="#Layer5_0_FILL"/>
</g>

<g transform="matrix( 1, 0, 0, 1, 0,0) ">
<use xlink:href="#Layer4_0_1_STROKES"/>
</g>

<g transform="matrix( 1, 0, 0, 1, 0,0) ">
<use xlink:href="#Layer3_0_FILL"/>
</g>

<g transform="matrix( 1, 0, 0, 1, 0,0) ">
<use xlink:href="#Layer2_0_FILL"/>
</g>

<g transform="matrix( 1, 0, 0, 1, 0,0) ">
<use xlink:href="#Layer0_0_FILL"/>
</g>
</svg>
