
<svg xmlns="http://www.w3.org/2000/svg" version="1.1" xmlns:xlink="http://www.w3.org/1999/xlink" preserveAspectRatio="none" x="0px" y="0px" width="1024px" height="1024px" viewBox="0 0 1024 1024">
<defs>
<g id="Layer3_0_FILL">
<path fill="#000000" fill-opacity="0.09803921568627451" stroke="none" d="
M 969.6 351.25
Q 961 330.4 950.2 310.4 944.1 299.05 937.3 288 907.95 240.45 865.75 198.2 727.5 59.95 531.95 59.95 336.45 59.95 198.2 198.2 59.95 336.45 59.95 531.95 59.95 727.5 198.2 865.75 336.45 1003.95 531.95 1003.95 727.5 1003.95 865.75 865.75 941.9 789.55 976.1 696 1003.95 619.75 1003.95 531.95 1003.95 464.6 987.55 404 985.7 397.15 983.65 390.4 977.5 370.45 969.6 351.25 Z"/>
</g>

<g id="Layer2_0_FILL">
<path fill="#FFFFFF" stroke="none" d="
M 969.7 392
Q 967.95 385.15 966.05 378.4 964.52578125 373.114453125 962.85 367.85 960.3787109375 359.903125 957.6 352.05 947.85 324.5 934.45 298.4 928.65 287.05 922.15 276 891.5 224 845.8 178.25 736.8 69.25 592.15 46.2 567.65 42.3 542.1 40.85 527.2 40 512 40 497.9 40 484.1 40.75 306.55 49.95 178.25 178.25 40 316.5 40 512 40 707.55 178.25 845.8 263.0400390625 930.55703125 369.35 963.35 423.8880859375 980.1630859375 484.1 983.3 484.3 983.3 484.5 983.3 496.65 983.9 509 984 510.5 984 512 984 527.25 984 542.1 983.2 545.6 983 549.05 982.75 579.1 980.6 607.75 975.05 619.55 972.75 631.15 969.9 751.75 939.85 845.8 845.8 918.7 772.85 953.15 684 980.9 612.4 983.7 530.5 984 521.3 984 512 984 511 984 510 984 509.5 984 509 983.65 447.7 969.7 392 Z"/>
</g>

<g id="Layer1_0_FILL">
<path fill="#000000" fill-opacity="0.09803921568627451" stroke="none" d="
M 974.35 611.2
L 668 304.85 638 319.3 419.2 215 427.55 565.55 304.3 697.55 585.55 978.8
Q 596.75703125 977.1794921875 607.75 975.05 619.55 972.75 631.15 969.9 751.75 939.85 845.8 845.8 918.7 772.85 953.15 684 966.7708984375 648.85546875 974.35 611.2 Z"/>
</g>

<g id="Layer0_0_FILL">
<path fill="#8C67DF" stroke="none" d="
M 271.45 629.25
Q 271.45 665.9 297.35 691.8 323.3 717.75 359.95 717.75 396.6 717.75 422.5 691.8 438.25 676.1 444.45 656.45 446.5 652.85 446.95 648.4 447.15 646.2 447.35 644 448.3 637.95 448.45 631.55 450.7 604.95 452.2 579.1 454.15 544.95 454.85 512
L 414.8 512
Q 414.3 534.9 413.2 558.45 390.25 540.75 359.95 540.75 323.3 540.75 297.35 566.65 271.45 592.6 271.45 629.25 Z"/>

<path fill="#FD5E57" stroke="none" d="
M 394.9 159.35
Q 386.9 161.45 382.75 168.65 378.55 175.8 380.7 183.75 418.65 327.85 414.8 512
L 454.85 512
Q 456.4 436.15 451.05 366.9 472.15 385.7 494 401.3
L 494 350.95
Q 477.9 337.85 462.3 322.8
L 462.25 322.8
Q 453.4 314.25 444.7 305.1 440.3 270.75 434.05 238.2 463.3 263.35 494 282.55
L 494 234.4
Q 466.75 215.1 440.85 190.4 428.65 178.8 416.8 166.05 413.4 162.4 409.05 160.85 402.3 157.35 394.9 159.35 Z"/>

<path fill="#44ACF8" stroke="none" d="
M 708.1 512
L 667.95 512
Q 675.45 603.15 670.5 706.15 647.55 688.45 617.25 688.45 580.6 688.45 554.65 714.35 528.75 740.3 528.75 776.95 528.75 813.6 554.65 839.5 580.6 865.45 617.25 865.45 653.9 865.45 679.8 839.5 695.55 823.8 701.75 804.15 703.8 800.55 704.25 796.1 704.45 793.9 704.65 791.7 705.6 785.65 705.75 779.25 708 752.65 709.5 726.8 716.1 612.45 708.1 512 Z"/>

<path fill="#D55AB8" stroke="none" d="
M 671.6 308.55
Q 666.55 301.95 658.35 300.85 650.5 299.8 642.75 298.4
L 642.7 298.4
Q 564 284.1 494 234.4
L 494 282.55
Q 561.25 324.5 635.65 337.75
L 635.6 337.75
Q 637.7 338.1 639.85 338.5 651.15 383.05 658.55 431.45 570.8 413.45 494 350.95
L 494 401.3
Q 571.1 456.35 657.95 472.1
L 658 472.1
Q 661.05 472.65 664.15 473.15 666.35 492.3 667.95 512
L 708.1 512
Q 699.95 409.4 676.65 321.25 676.2 319.65 675.6 318.2 675 313 671.6 308.55 Z"/>
</g>
</defs>

<g transform="matrix( 1, 0, 0, 1, 0,0) ">
<use xlink:href="#Layer3_0_FILL"/>
</g>

<g transform="matrix( 1, 0, 0, 1, 0,0) ">
<use xlink:href="#Layer2_0_FILL"/>
</g>

<g transform="matrix( 1, 0, 0, 1, 0,0) ">
<use xlink:href="#Layer1_0_FILL"/>
</g>

<g transform="matrix( 1, 0, 0, 1, 0,0) ">
<use xlink:href="#Layer0_0_FILL"/>
</g>
</svg>
