<?xml version="1.0" encoding="utf-8"?>
<!-- Generator: flash2svg, http://dissentgraphics.com/tools/flash2svg -->
<svg id="Apps-Wireshark" image-rendering="optimizeSpeed" baseProfile="basic" version="1.1" style="background-color:#FFFFFF" x="0px" y="0px" width="1024px" height="1024px" viewBox="0 0 1024 1024" enable-background="new 0 0 1024 1024" xmlns="http://www.w3.org/2000/svg" xmlns:xlink="http://www.w3.org/1999/xlink">
  <defs transform="matrix(1 0 0 1 0 0) "/>
  <g id="shadow">
    <g id="shape">
      <path id="path" fill="#000000" fill-opacity="0.09803921568627451" d="M969.6,351.25 Q961,330.4 950.2,310.4 C946.15,302.85 941.85,295.35 937.3,288 917.75,256.3 893.9,226.35 865.75,198.2 773.6,106.05 662.3,59.95 531.95,59.95 401.6,59.95 290.35,106.05 198.2,198.2 106.05,290.35 59.95,401.6 59.95,531.95 59.95,662.3 106.05,773.6 198.2,865.75 290.35,957.9 401.6,1003.95 531.95,1003.95 662.3,1003.95 773.6,957.9 865.75,865.75 916.5,814.95 953.3,758.35 976.1,696 994.65,645.15 1003.95,590.5 1003.95,531.95 1003.95,487.05 998.5,444.4 987.55,404 986.3,399.45 985,394.9 983.65,390.4 979.55,377.1 974.85,364.05 969.6,351.25z"/>
    </g>
  </g>
  <g id="bg">
    <g id="shape2">
      <path id="path1" fill="#92C8E0" fill-opacity="1" d="M929.8,289.6 C927.45,285.25 924.85,280.6 922.15,276 901.85,241.5 876.35,208.8 845.8,178.25 773.2,105.65 688.65,61.6 592.15,46.2 575.9,43.6 559.35,41.8 542.1,40.85 532.4,40.3 522.25,40 512,40 502.65,40 493.4,40.25 484.1,40.75 365.75,46.85 263.8,92.7 178.25,178.25 157.75,198.75 139.5,220.2 123.55,242.65 108.2,264.2 95,286.65 83.95,309.85 66.3,346.75 53.95,385.85 47.05,426.65 66.75,431.7 88.4,434.2 112.35,434.2 148.55,434.2 179.45,428.55 205,417.2 229.25,406.45 242.05,393.6 243.3,378.65 244.55,393.6 257.3,406.45 281.55,417.2 307.15,428.55 338.05,434.2 374.25,434.2 410.45,434.2 441.35,428.55 466.9,417.2 491.1,406.5 503.85,393.75 505.2,378.65 506.65,393.85 519.4,406.55 543.45,417.2 569.05,428.55 599.95,434.2 636.15,434.2 672.35,434.2 703.25,428.55 728.8,417.2 753.05,406.45 765.85,393.6 767.1,378.65 768.35,393.6 781.1,406.45 805.35,417.2 830.95,428.55 861.85,434.2 898.05,434.2 908,434.2 917.55,433.75 926.3,432.95 944.7,431.2 961.3,427.8 976.3,422.8 974.5,412.6 972.25,402.25 969.7,392 968.6,387.65 967.35,383 966.05,378.4 965.05,375 964.05,371.55 962.9,367.9 961.3,362.75 959.5,357.4 957.6,352.05 952.55,337.8 946.75,323.8 940.15,309.9 938.3,306.1 936.4,302.25 934.45,298.4 933,295.55 931.5,292.7 929.8,289.6z"/>
      <path id="path2" fill="#5BA0D8" fill-opacity="1" d="M926.3,432.95 C917.55,433.75 908,434.2 898.05,434.2 861.85,434.2 830.95,428.55 805.35,417.2 781.1,406.45 768.35,393.6 767.1,378.65 765.85,393.6 753.05,406.45 728.8,417.2 703.25,428.55 672.35,434.2 636.15,434.2 599.95,434.2 569.05,428.55 543.45,417.2 519.4,406.55 506.65,393.85 505.2,378.65 503.85,393.75 491.1,406.5 466.9,417.2 441.35,428.55 410.45,434.2 374.25,434.2 338.05,434.2 307.15,428.55 281.55,417.2 257.3,406.45 244.55,393.6 243.3,378.65 242.05,393.6 229.25,406.45 205,417.2 179.45,428.55 148.55,434.2 112.35,434.2 88.4,434.2 66.75,431.7 47.05,426.65 43.7,446.05 41.6,465.55 40.65,485.45 L40.65,485.425 Q40,498.583 40,512 C40,517.15 40.1,522.25 40.2,527.2 40.5,537.1 41.05,546.85 41.8,556.1 66.2,565.4 94.45,570 127.05,570 163.25,570 194.15,564.35 219.7,553 243.95,542.25 256.75,529.4 258,514.45 259.25,529.4 272,542.25 296.25,553 321.85,564.35 352.75,570 388.95,570 425.15,570 456.05,564.35 481.6,553 505.8,542.3 518.55,529.55 519.9,514.45 521.35,529.65 534.1,542.35 558.15,553 583.75,564.35 614.65,570 650.85,570 687.05,570 717.95,564.35 743.5,553 767.75,542.25 780.55,529.4 781.8,514.45 783.05,529.4 795.8,542.25 820.05,553 845.65,564.35 876.55,570 912.75,570 922.7,570 932.25,569.55 941,568.75 955.75,567.35 969.4,564.9 981.75,561.45 982.65,551.4 983.35,541 983.7,530.5 983.9,524.45 984,518.25 984,512 984,511.35 984,510.65 984,510 984,509.65 984,509.35 984,509 983.9,485.25 982.25,462.1 978.95,439.3 978.2,433.85 977.3,428.4 976.3,422.8 961.3,427.8 944.7,431.2 926.3,432.95z"/>
      <path id="path3" fill="#416F9C" fill-opacity="1" d="M941,568.75 C932.25,569.55 922.7,570 912.75,570 876.55,570 845.65,564.35 820.05,553 795.8,542.25 783.05,529.4 781.8,514.45 780.55,529.4 767.75,542.25 743.5,553 717.95,564.35 687.05,570 650.85,570 614.65,570 583.75,564.35 558.15,553 534.1,542.35 521.35,529.65 519.9,514.45 518.55,529.55 505.8,542.3 481.6,553 456.05,564.35 425.15,570 388.95,570 352.75,570 321.85,564.35 296.25,553 272,542.25 259.25,529.4 258,514.45 256.75,529.4 243.95,542.25 219.7,553 194.15,564.35 163.25,570 127.05,570 94.45,570 66.2,565.4 41.8,556.1 42.8,567.6 44.1,578.55 45.75,589.3 51.85,628.75 62.65,666.2 78,701.3 79.35,704.4 80.75,707.45 81.95,710.1 105.15,759.65 137.1,804.65 178.25,845.8 234.95,902.45 298.8,941.7 369.35,963.35 406.1,974.6 444.15,981.2 484.1,983.3 484.25,983.3 484.35,983.3 484.5,983.3 493,983.75 501.1,984 509,984 510.2,984 511.1,984 512,984 522.3,984 532.5,983.7 542.1,983.2 544.6,983.05 546.85,982.9 549.05,982.75 569.25,981.3 588.95,978.7 607.75,975.05 615.7,973.5 623.55,971.75 631.15,969.9 711.95,949.6 783.3,908.3 845.8,845.8 883.8,807.8 914,766.55 936.3,722 942.55,709.65 948.15,696.95 953.15,684 957.4,673.05 961.2,661.9 964.65,650.4 970.75,629.7 975.5,608.25 978.75,586.1 979.6,580.4 980.35,574.65 981,568.75 981.25,566.35 981.5,563.95 981.75,561.45 969.4,564.9 955.75,567.35 941,568.75z"/>
    </g>
  </g>
  <mask id="bg1">
    <g id="g">
      <g id="shape9">
        <path id="path5" fill="#FFFFFF" fill-opacity="1" d="M929.8,289.6 C927.45,285.25 924.85,280.6 922.15,276 901.85,241.5 876.35,208.8 845.8,178.25 773.2,105.65 688.65,61.6 592.15,46.2 575.9,43.6 559.35,41.8 542.1,40.85 532.4,40.3 522.25,40 512,40 502.65,40 493.4,40.25 484.1,40.75 365.75,46.85 263.8,92.7 178.25,178.25 157.75,198.75 139.5,220.2 123.55,242.65 108.2,264.2 95,286.65 83.95,309.85 66.3,346.75 53.95,385.85 47.05,426.65 43.7,446.05 41.6,465.55 40.65,485.45 L40.65,485.425 Q40,498.583 40,512 C40,517.15 40.1,522.25 40.2,527.2 40.5,537.1 41.05,546.85 41.8,556.1 66.2,565.4 94.45,570 127.05,570 163.25,570 194.15,564.35 219.7,553 243.95,542.25 256.75,529.4 258,514.45 259.25,529.4 272,542.25 296.25,553 321.85,564.35 352.75,570 388.95,570 425.15,570 456.05,564.35 481.6,553 505.8,542.3 518.55,529.55 519.9,514.45 521.35,529.65 534.1,542.35 558.15,553 583.75,564.35 614.65,570 650.85,570 687.05,570 717.95,564.35 743.5,553 767.75,542.25 780.55,529.4 781.8,514.45 783.05,529.4 795.8,542.25 820.05,553 845.65,564.35 876.55,570 912.75,570 922.7,570 932.25,569.55 941,568.75 955.75,567.35 969.4,564.9 981.75,561.45 982.65,551.4 983.35,541 983.7,530.5 983.9,524.45 984,518.25 984,512 984,511.35 984,510.65 984,510 984,509.65 984,509.35 984,509 983.9,485.25 982.25,462.1 978.95,439.3 978.2,433.85 977.3,428.4 976.3,422.8 974.5,412.6 972.25,402.25 969.7,392 968.6,387.65 967.35,383 966.05,378.4 965.05,375 964.05,371.55 962.9,367.9 961.3,362.75 959.5,357.4 957.6,352.05 952.55,337.8 946.75,323.8 940.15,309.9 938.3,306.1 936.4,302.25 934.45,298.4 933,295.55 931.5,292.7 929.8,289.6z"/>
      </g>
    </g>
  </mask>
  <g id="masked" mask="url(#bg1)">
    <g id="Calque.__202">
      <g id="shape7">
        <path id="path4" fill="#25405A" fill-opacity="1" d="M652.4,246 C651.35,244.05 650,242.25 648.35,240.6 643.95,236.2 638.65,234 632.45,234 632.3,234 632.1,234 631.95,234 627.2,234.1 623.05,235.5 619.4,238.2 618.4,238.9 617.45,239.7 616.55,240.6 615.65,241.5 614.85,242.45 614.1,243.45 611.35,247.2 610.85,247.2 613.6,243.45 L353.05,503.95 C353.05,504 353.05,504 353,504 331.45,529.35 309.7,548.3 287.7,560.9 284,563 281.25,566.2 279.5,570.5 277.7,574.75 277.3,579.25 278.25,583.85 Q279.65,590.75 284.5,595.2 C287.7,598.15 291.4,599.6 295.5,599.6 L654.95,599.6 654.95,255.8 C654.85,252.2 654,248.95 652.4,246z"/>
      </g>
    </g>
  </g>
</svg>