<?xml version="1.0" encoding="utf-8"?>
<!-- Generator: flash2svg, http://dissentgraphics.com/tools/flash2svg -->
<svg xmlns:xlink="http://www.w3.org/1999/xlink" id="Intellij-PyCharm" image-rendering="optimizeSpeed" baseProfile="basic" version="1.1" style="background-color:#ffffff" x="0px" y="0px" width="1024px" height="1024px" viewBox="0 0 1024 1024" enable-background="new 0 0 1024 1024" xmlns="http://www.w3.org/2000/svg">
  <defs transform="matrix(1 0 0 1 0 0) "/>
  <g id="shadow">
    <g id="shape">
      <path id="path" fill="#000000" fill-opacity="0.09803921568627451" d="M969.65,351.3 Q961.05,330.45 950.25,310.45 C946.2,302.9 941.9,295.4 937.35,288.05 917.8,256.35 893.95,226.4 865.8,198.25 773.65,106.1 662.35,60 532,60 401.65,60 290.4,106.1 198.25,198.25 106.1,290.4 60,401.65 60,532 60,662.35 106.1,773.65 198.25,865.8 290.4,957.95 401.65,1004 532,1004 662.35,1004 773.65,957.95 865.8,865.8 916.55,815 953.35,758.4 976.15,696.05 994.7,645.2 1004,590.55 1004,532 1004,487.1 998.55,444.45 987.6,404.05 986.35,399.5 985.05,394.95 983.7,390.45 979.6,377.15 974.9,364.1 969.65,351.3z"/>
    </g>
  </g>
  <g id="circle">
    <g id="shape2">
      <path id="path1" fill="#333333" fill-opacity="1" d="M969.75,392.05 C968.65,387.7 967.4,383.05 966.1,378.45 963.6,369.7 960.75,360.85 957.65,352.1 951.2,333.85 943.5,316.05 934.5,298.45 930.7,291.05 926.55,283.5 922.2,276.05 901.9,241.55 876.4,208.85 845.85,178.3 773.25,105.7 688.7,61.65 592.2,46.25 575.95,43.65 559.4,41.85 542.15,40.9 532.45,40.35 522.3,40.05 512.05,40.05 502.7,40.05 493.45,40.3 484.15,40.8 365.8,46.9 263.85,92.75 178.3,178.3 Q40.05,316.55 40.05,512.05 C40.05,642.4 86.15,753.7 178.3,845.85 256.8,924.3 349.1,969.4 455,981 464.75,982.1 474.4,982.85 484.15,983.35 484.3,983.35 484.4,983.35 484.55,983.35 493.05,983.8 501.15,984.05 509.05,984.05 510.25,984.05 511.15,984.05 512.05,984.05 522.35,984.05 532.55,983.75 542.15,983.25 544.65,983.1 546.9,982.95 549.1,982.8 569.3,981.35 589,978.75 607.8,975.1 615.75,973.55 623.6,971.8 631.2,969.95 712,949.65 783.35,908.35 845.85,845.85 894.45,797.25 930.25,743.35 953.2,684.05 971.65,636.4 981.85,585.25 983.75,530.55 983.95,524.5 984.05,518.3 984.05,512.05 984.05,511.4 984.05,510.7 984.05,510.05 984.05,509.7 984.05,509.4 984.05,509.05 983.95,492.2 983.1,475.7 981.45,459.35 979.15,436.45 975.25,414 969.75,392.05z"/>
    </g>
  </g>
  <g id="ico-shadow">
    <g id="shape4">
      <path id="path2" fill="#000000" fill-opacity="0.2" d="M984.05,510.05 C984.05,509.7 984.05,509.4 984.05,509.05 983.95,496.1 983.45,483.35 982.45,470.4 L780.1,268.05 271.325,361.75 212.45,781.05 403.95,972.55 C420.85,976.3 437.75,979.1 455,981 464.75,982.1 474.4,982.85 484.15,983.35 484.3,983.35 484.4,983.35 484.55,983.35 493.05,983.8 501.15,984.05 509.05,984.05 Q510.55,984.05 512.05,984.05 C522.35,984.05 532.55,983.75 542.15,983.25 544.65,983.1 546.9,982.95 549.1,982.8 569.3,981.35 589,978.75 607.8,975.1 615.75,973.55 623.6,971.8 631.2,969.95 712,949.65 783.35,908.35 845.85,845.85 894.45,797.25 930.25,743.35 953.2,684.05 971.65,636.4 981.85,585.25 983.75,530.55 983.95,524.5 984.05,518.3 984.05,512.05 984.05,511.4 984.05,510.7 984.05,510.05z"/>
    </g>
  </g>
  <g id="Calque.__201">
    <g id="shape6">
      <path id="path3" fill="#D78100" fill-opacity="1" d="M575.95,280.15 C567.8,272 559.3,264.6 550.25,257.8 L514.55,414.15 623.6,523.2 C634.95,496.6 640.65,467.65 640.65,436.3 640.65,375.35 619.1,323.3 575.95,280.15z"/>
      <path id="path4" fill="#FF9900" fill-opacity="1" d="M550.25,257.8 C512.8,229.65 469.25,215.5 419.8,215.5 363.2,215.65 314.3,234.25 273.15,271.3 273,271.35 272.9,271.45 272.85,271.55 270.5,273.6 268.25,275.7 266.05,277.85 L266.05,277.8 C265.25,278.55 264.45,279.35 263.65,280.15 226.35,317.5 205.2,361.5 200.2,412.15 199.4,420.05 199,428.1 199,436.3 199,444.45 199.4,452.45 200.15,460.3 L200.15,744.35 C200.15,761.15 206.1,775.5 218.05,787.4 229.9,799.25 244.2,805.2 261,805.25 277.8,805.2 292.15,799.25 304.1,787.4 315.95,775.5 321.85,761.15 321.9,744.35 L321.9,634.85 C351.5,649.6 384.15,657.05 419.8,657.15 480.8,657.15 532.85,635.6 575.95,592.45 596.95,571.5 612.85,548.4 623.6,523.2 L514.55,414.15 550.25,257.8z M356.2,364.2 C374.05,348.1 395.25,340.1 419.8,340.2 446.35,340.2 469.05,349.6 487.8,368.35 500.85,381.4 509.35,396.4 513.25,412.85 513.55,414.15 513.85,415.45 514.05,416.45 515.3,423.2 515.9,429.65 515.9,436.3 515.9,462.85 506.55,485.55 487.8,504.3 469.05,523.05 446.35,532.4 419.8,532.4 396.15,532.55 375.65,525.2 358.25,510.25 356.1,508.35 353.95,506.35 351.9,504.3 L351.85,504.3 C333.1,485.55 323.7,462.85 323.7,436.3 323.7,409.75 333.1,387.1 351.85,368.35 L351.9,368.35 C353.25,367 354.6,365.75 356,364.5 Q356.05,364.4 356.15,364.3 L356.2,364.2z"/>
    </g>
  </g>
  <g id="Calque.__202">
    <g id="shape13">
      <path id="path8" fill="#61BA63" fill-opacity="1" d="M814.85,326.75 C806.8,273.65 734.5,226.05 688.55,222.4 674.65,221.25 656.9,221.1 643.6,221.85 563.45,226.15 494.8,250.25 438.05,307 382.25,362.75 353.9,430.6 352.95,510.45 L352.95,511.35 C353.05,561.8 364.05,607.5 385.75,648.15 L497.55,580.05 C488.05,559.6 483.2,537.05 483.2,512.5 483.2,468.25 498.85,430.45 530.2,399.15 561.5,367.8 592.5,354.7 623.15,359.85 653.8,364.95 693.9,365.2 743.45,360.55 767,358.3 784.8,355 796.8,350.65 L703.05,324.05 814.85,326.75z M739.55,289.8 C739.55,294.45 737.9,298.4 734.65,301.65 731.4,304.9 727.45,306.55 722.8,306.55 718.15,306.55 714.2,304.9 710.95,301.65 707.7,298.4 706.05,294.45 706.05,289.8 706.05,285.15 707.7,281.2 710.95,277.95 714.2,274.7 718.15,273.05 722.8,273.05 727.45,273.05 731.4,274.7 734.65,277.95 737.9,281.2 739.55,285.15 739.55,289.8z"/>
      <path id="path9" fill="#FFFFFF" fill-opacity="1" d="M739.55,289.8 C739.55,285.15 737.9,281.2 734.65,277.95 731.4,274.7 727.45,273.05 722.8,273.05 718.15,273.05 714.2,274.7 710.95,277.95 707.7,281.2 706.05,285.15 706.05,289.8 706.05,294.45 707.7,298.4 710.95,301.65 714.2,304.9 718.15,306.55 722.8,306.55 727.45,306.55 731.4,304.9 734.65,301.65 737.9,298.4 739.55,294.45 739.55,289.8z"/>
      <path id="path12" fill="#4F9950" fill-opacity="1" d="M801.85,681.7 Q779.8,666.05 753.3,670.55 C748.65,671 657.05,672.9 643.6,672.9 599.3,672.9 561.5,657.25 530.2,625.95 516.25,612 505.4,596.75 497.55,580.05 L385.75,648.15 C399.25,673.45 416.6,696.65 438.05,718.1 494.8,774.85 563.3,803.2 643.6,803.2 657.65,803.2 768.75,800.4 775.1,799 792.75,795.95 806.8,787.05 817.25,772.4 827.7,757.7 831.4,741.5 828.4,723.85 825.35,706.2 816.5,692.15 801.85,681.7z"/>
    </g>
  </g>
  <g id="Calque.__203">
    <g id="shape20">
      <path id="path13" fill="#FF9900" fill-opacity="1" d="M356,364.5 Q356.05,364.4 356.15,364.3 L356.2,364.2 C361.85,359.1 367.85,354.8 374.1,351.4 L374.1,219.95 C336.5,227.5 302.8,244.6 273.15,271.3 273,271.35 272.9,271.45 272.85,271.55 270.5,273.6 268.25,275.7 266.05,277.85 L266.05,277.8 C265.25,278.55 264.45,279.35 263.65,280.15 226.35,317.5 205.2,361.5 200.2,412.15 199.4,420.05 199,428.1 199,436.3 199,444.45 199.4,452.45 200.15,460.3 L200.15,744.35 C200.15,761.15 206.1,775.5 218.05,787.4 229.9,799.25 244.2,805.2 261,805.25 277.8,805.2 292.15,799.25 304.1,787.4 315.95,775.5 321.85,761.15 321.9,744.35 L321.9,634.85 C351.5,649.6 384.15,657.05 419.8,657.15 480.8,657.15 532.85,635.6 575.95,592.45 589.05,579.35 600.15,565.45 609.2,550.85 L506.8,550.85 506.8,477.9 C502.15,487.45 495.85,496.25 487.8,504.3 469.05,523.05 446.35,532.4 419.8,532.4 396.15,532.55 375.65,525.2 358.25,510.25 356.1,508.35 353.95,506.35 351.9,504.3 L351.85,504.3 C333.1,485.55 323.7,462.85 323.7,436.3 323.7,409.75 333.1,387.1 351.85,368.35 L351.9,368.35 C353.25,367 354.6,365.75 356,364.5z"/>
    </g>
  </g>
</svg>