<?xml version="1.0" encoding="utf-8"?>
<!-- Generator: flash2svg, http://dissentgraphics.com/tools/flash2svg -->
<svg xmlns:xlink="http://www.w3.org/1999/xlink" id="Apps-OpenBroadcasterSoftware" image-rendering="optimizeSpeed" baseProfile="basic" version="1.1" style="background-color:#ffffff" x="0px" y="0px" width="1024px" height="1024px" viewBox="0 0 1024 1024" enable-background="new 0 0 1024 1024" xmlns="http://www.w3.org/2000/svg">
  <defs transform="matrix(1 0 0 1 0 0) "/>
  <g id="shadow">
    <g id="shape">
      <path id="path" fill="#000000" fill-opacity="0.09803921568627451" d="M965.65,350.3 Q957.05,329.45 946.25,309.45 C942.2,301.9 937.9,294.4 933.35,287.05 913.8,255.35 889.95,225.4 861.8,197.25 769.65,105.1 658.35,59 528,59 397.65,59 286.4,105.1 194.25,197.25 102.1,289.4 56,400.65 56,531 56,661.35 102.1,772.65 194.25,864.8 286.4,956.95 397.65,1003 528,1003 658.35,1003 769.65,956.95 861.8,864.8 912.55,814 949.35,757.4 972.15,695.05 990.7,644.2 1000,589.55 1000,531 1000,486.1 994.55,443.45 983.6,403.05 982.35,398.5 981.05,393.95 979.7,389.45 975.6,376.15 970.9,363.1 965.65,350.3z"/>
    </g>
  </g>
  <g id="circle">
    <g id="shape2">
      <path id="path1" fill="#E5E5E5" fill-opacity="1" d="M969.75,392.05 C968.65,387.7 967.4,383.05 966.1,378.45 963.6,369.7 960.75,360.85 957.65,352.1 951.2,333.85 943.5,316.05 934.5,298.45 930.7,291.05 926.55,283.5 922.2,276.05 L922.175,276.05 Q891.574,224.04 845.85,178.3 C753.7,86.15 642.5,40.1 512.15,40.05 L512.15,512.2 514.15,512.2 514.15,984.05 C643.7,983.55 754.25,937.45 845.85,845.85 894.45,797.25 930.25,743.35 953.2,684.05 970.2,640.1 980.2,593.25 983.15,543.3 983.7,533.8 984.05,524.15 984.05,514.2 984.05,513.55 984.05,512.8 984.05,512.05 984.05,470.3 979.35,430.45 969.75,392.05z"/>
      <path id="path2" fill="#FFFFFF" fill-opacity="1" d="M512.15,40.05 C512.1,40.05 512.1,40.05 512.05,40.05 381.7,40.05 270.45,86.15 178.3,178.3 86.15,270.45 40.05,381.7 40.05,512.05 40.05,512.1 40.05,512.15 40.05,512.2 40.1,642.5 86.15,753.7 178.3,845.85 246.35,913.9 324.8,956.8 413.2,974.5 445.15,980.9 477.95,984.05 512.05,984.05 512.8,984.05 513.55,984.05 514.15,984.05 L514.15,512.2 512.15,512.2 512.15,40.05z"/>
    </g>
  </g>
  <g id="inner-circle">
    <g id="shape6">
      <path id="path3" fill="#333333" fill-opacity="1" d="M781.7,276.05 C776.55,270.25 771.05,264.45 765.35,258.75 695.4,188.8 611,153.85 512.05,153.85 413.1,153.85 328.7,188.8 258.75,258.75 188.8,328.7 153.85,413.1 153.85,512.05 153.85,611 188.8,695.4 258.75,765.35 328.7,835.3 413.1,870.25 512.05,870.25 551.1,870.25 587.85,864.8 622,854.05 675.35,837.2 723,807.7 765.35,765.35 790.55,740.15 811.2,713.05 827.35,684.05 Q870.25,606.944 870.25,512.05 C870.25,501.7 869.85,491.5 869.1,481.35 868.25,470.65 867,460.1 865.3,449.65 862.1,429.9 857.25,410.8 850.7,392.05 836.15,350.2 813.15,311.45 781.7,276.05z"/>
    </g>
  </g>
  <g id="ico-shadow">
    <g id="shape8">
      <path id="path4" fill="#000000" fill-opacity="0.2" d="M861.775,592.875 L754.05,485.15 645.125,418.775 464.05,237.7 386.05,308.05 372.45,462.3 507.125,596.975 489.05,678.5 403.05,723.05 306.15,700.6 474,868.45 C486.7,869.65 499.25,870.25 512.05,870.25 551.1,870.25 587.85,864.8 622,854.05 675.35,837.2 723,807.7 765.35,765.35 790.55,740.15 811.2,713.05 827.35,684.05 Q851.185,641.21 861.775,592.875z"/>
    </g>
  </g>
  <g id="Calque.__201">
    <g id="shape10">
      <path id="path5" fill="#FFFFFF" fill-opacity="1" d="M729.5,457.7 L729.5,457.65 C701.75,431.5 669.95,417.15 634.1,414.6 630.25,414.3 627.2,414.8 625.05,416.05 L625,416.05 C622.75,417.15 620.65,419.3 618.7,422.55 618.65,422.55 618.65,422.55 618.65,422.6 604.75,444.55 588.1,460.65 568.75,470.85 548.8,481.2 526.15,485.25 500.8,483.05 476.85,480.9 456.2,473.5 438.95,460.95 L438.95,461 C421.8,448.4 408.5,431.05 399,408.9 389.65,386.95 386.4,365.4 389.25,344.3 392.1,323.4 400.9,303.25 415.55,283.85 426.65,269.2 442.45,256.5 463,245.85 464.15,245.25 464.95,244.35 465.4,243.2 465.85,242 465.85,240.8 465.4,239.65 464.95,238.45 464.15,237.55 463.05,237 461.9,236.4 460.75,236.25 459.55,236.55 457.95,236.9 456.75,237.3 455.95,237.65 434.9,245.1 416.3,256.9 400.1,273 384.55,288.5 372.5,306.6 364.05,327.35 L364.05,327.4 C355.6,348.15 351.5,369.45 351.85,391.4 352.15,414.3 357.3,435.85 367.25,456 L367.3,456.05 C368.75,459 370.4,461.05 372.35,462.25 L372.45,462.3 C374.5,463.65 377.2,464.35 380.55,464.3 L380.6,464.3 C386.45,464.25 392.8,464.75 399.7,465.8 424.3,469.65 445.85,479.95 464.3,496.7 482.65,513.45 494.8,533.7 500.65,557.45 506.7,581.85 505.5,605.9 497.05,629.6 488.6,653.25 474.35,672.4 454.4,687.15 434,702.15 411.35,710.2 386.5,711.25 361.65,712.3 338.3,706.25 316.45,693 L316.4,693 C315.95,692.7 313.55,691.55 309.2,689.5 308.1,688.95 307,688.85 305.85,689.15 304.7,689.4 303.8,690.05 303.1,691 302.35,691.95 302,693 302.05,694.15 302.1,695.3 302.5,696.35 303.3,697.3 L306.15,700.6 C306.35,700.8 306.55,701 306.8,701.2 324,715 343.55,724.55 365.4,729.85 386.3,734.9 407.65,735.75 429.4,732.35 451.15,728.9 471.25,721.55 489.65,710.2 L489.6,710.25 C508.8,698.5 524.45,683.45 536.6,665.15 536.6,665.1 536.6,665.1 536.65,665.05 538.7,662 539.5,659.1 539.05,656.4 538.9,654.75 538.1,652.55 536.55,649.7 524.7,627.6 518.95,605.85 519.4,584.45 519.85,562.6 526.7,541.5 539.95,521.05 553.2,500.5 569.6,485.55 589.05,476.15 608.4,466.85 630.4,463.2 655.1,465.15 682.75,467.35 706.95,478.15 727.65,497.6 748.3,517 760.65,540.5 764.75,568.05 765.4,572.4 765.85,577.8 766.2,584.3 L766.2,584.35 C766.4,588.1 766.65,593.65 766.95,601.05 767,602.4 767.55,603.5 768.5,604.45 769.45,605.35 770.55,605.8 771.9,605.85 773.25,605.85 774.4,605.4 775.35,604.55 776.3,603.6 776.85,602.5 776.95,601.2 777.9,586.45 778.45,578.1 778.5,576.05 778.85,566.3 778.6,557.75 777.65,550.5 L777.7,550.5 C773.4,514.85 757.35,483.95 729.5,457.7z"/>
    </g>
  </g>
</svg>