<?xml version="1.0" encoding="utf-8"?>
<!-- Generator: flash2svg, http://dissentgraphics.com/tools/flash2svg -->
<svg xmlns:xlink="http://www.w3.org/1999/xlink" id="Apps-AppCleaner" image-rendering="optimizeSpeed" baseProfile="basic" version="1.1" style="background-color:#ffffff" x="0px" y="0px" width="1024px" height="1024px" viewBox="0 0 1024 1024" enable-background="new 0 0 1024 1024" xmlns="http://www.w3.org/2000/svg">
  <defs transform="matrix(1 0 0 1 0 0) "/>
  <g id="background-circle-shadow">
    <g id="shape">
      <path id="path" fill="#000000" fill-opacity="0.09803921568627451" d="M969.65,351.3 Q961.05,330.45 950.25,310.45 C946.2,302.9 941.9,295.4 937.35,288.05 917.8,256.35 893.95,226.4 865.8,198.25 773.65,106.1 662.35,60 532,60 401.65,60 290.4,106.1 198.25,198.25 106.1,290.4 60,401.65 60,532 60,662.35 106.1,773.65 198.25,865.8 290.4,957.95 401.65,1004 532,1004 662.35,1004 773.65,957.95 865.8,865.8 916.55,815 953.35,758.4 976.15,696.05 994.7,645.2 1004,590.55 1004,532 1004,487.1 998.55,444.45 987.6,404.05 986.35,399.5 985.05,394.95 983.7,390.45 979.6,377.15 974.9,364.1 969.65,351.3z"/>
    </g>
  </g>
  <g id="background-circle">
    <g id="shape2">
      <path id="path1" fill="#E2BB7B" fill-opacity="1" d="M966.1,378.45 C965.1,375.05 964.1,371.6 962.95,367.95 961.35,362.8 959.55,357.45 957.65,352.1 951.2,333.85 943.5,316.05 934.5,298.45 930.7,291.05 926.55,283.5 922.2,276.05 901.9,241.55 876.4,208.85 845.85,178.3 773.25,105.7 688.7,61.65 592.2,46.25 575.95,43.65 559.4,41.85 542.15,40.9 532.45,40.35 522.3,40.05 512.05,40.05 502.7,40.05 493.45,40.3 484.15,40.8 365.8,46.9 263.85,92.75 178.3,178.3 Q40.05,316.55 40.05,512.05 C40.05,642.4 86.15,753.7 178.3,845.85 235,902.5 298.85,941.75 369.4,963.4 406.15,974.65 444.2,981.25 484.15,983.35 484.3,983.35 484.4,983.35 484.55,983.35 493.05,983.8 501.15,984.05 509.05,984.05 510.25,984.05 511.15,984.05 512.05,984.05 522.35,984.05 532.55,983.75 542.15,983.25 544.65,983.1 546.9,982.95 549.1,982.8 569.3,981.35 589,978.75 607.8,975.1 615.75,973.55 623.6,971.8 631.2,969.95 712,949.65 783.35,908.35 845.85,845.85 894.45,797.25 930.25,743.35 953.2,684.05 971.65,636.4 981.85,585.25 983.75,530.55 983.95,524.5 984.05,518.3 984.05,512.05 984.05,511.4 984.05,510.7 984.05,510.05 984.05,509.7 984.05,509.4 984.05,509.05 983.85,468.4 979.1,429.55 969.75,392.05 968.65,387.7 967.4,383.05 966.1,378.45z"/>
    </g>
  </g>
  <g id="object-shadow">
    <g id="shape4">
      <path id="path2" fill="#000000" fill-opacity="0.2" d="M969.75,392.05 C968.65,387.7 967.4,383.05 966.1,378.45 965.1,375.05 964.1,371.6 962.95,367.95 961.35,362.8 959.55,357.45 957.65,352.1 955.1,344.85 952.35,337.65 949.25,330.25 L913.05,294.05 810.05,286.05 750.05,226.05 348.05,205.55 268.425,321.475 103.4,426.45 153.85,476.9 194.275,861.2 L194.3,861.2 C247.15,909.75 305.55,943.8 369.4,963.4 406.15,974.65 444.2,981.25 484.15,983.35 484.3,983.35 484.4,983.35 484.55,983.35 493.05,983.8 501.15,984.05 509.05,984.05 Q510.55,984.05 512.05,984.05 C522.35,984.05 532.55,983.75 542.15,983.25 544.65,983.1 546.9,982.95 549.1,982.8 569.3,981.35 589,978.75 607.8,975.1 615.75,973.55 623.6,971.8 631.2,969.95 712,949.65 783.35,908.35 845.85,845.85 894.45,797.25 930.25,743.35 953.2,684.05 971.65,636.4 981.85,585.25 983.75,530.55 983.95,524.5 984.05,518.3 984.05,512.05 984.05,511.4 984.05,510.7 984.05,510.05 984.05,509.7 984.05,509.4 984.05,509.05 983.85,468.4 979.1,429.55 969.75,392.05z"/>
    </g>
  </g>
  <mask id="background-circle1">
    <g id="g">
      <g id="shape10">
        <path id="path5" fill="#FFFFFF" fill-opacity="1" d="M966.1,378.45 C965.1,375.05 964.1,371.6 962.95,367.95 961.35,362.8 959.55,357.45 957.65,352.1 951.2,333.85 943.5,316.05 934.5,298.45 930.7,291.05 926.55,283.5 922.2,276.05 901.9,241.55 876.4,208.85 845.85,178.3 773.25,105.7 688.7,61.65 592.2,46.25 575.95,43.65 559.4,41.85 542.15,40.9 532.45,40.35 522.3,40.05 512.05,40.05 502.7,40.05 493.45,40.3 484.15,40.8 365.8,46.9 263.85,92.75 178.3,178.3 Q40.05,316.55 40.05,512.05 C40.05,642.4 86.15,753.7 178.3,845.85 235,902.5 298.85,941.75 369.4,963.4 406.15,974.65 444.2,981.25 484.15,983.35 484.3,983.35 484.4,983.35 484.55,983.35 493.05,983.8 501.15,984.05 509.05,984.05 510.25,984.05 511.15,984.05 512.05,984.05 522.35,984.05 532.55,983.75 542.15,983.25 544.65,983.1 546.9,982.95 549.1,982.8 569.3,981.35 589,978.75 607.8,975.1 615.75,973.55 623.6,971.8 631.2,969.95 712,949.65 783.35,908.35 845.85,845.85 894.45,797.25 930.25,743.35 953.2,684.05 971.65,636.4 981.85,585.25 983.75,530.55 983.95,524.5 984.05,518.3 984.05,512.05 984.05,511.4 984.05,510.7 984.05,510.05 984.05,509.7 984.05,509.4 984.05,509.05 983.85,468.4 979.1,429.55 969.75,392.05 968.65,387.7 967.4,383.05 966.1,378.45z"/>
      </g>
    </g>
  </mask>
  <g id="masked" mask="url(#background-circle1)">
    <g id="Light">
      <g id="shape6">
        <path id="path3" fill="#333333" fill-opacity="1" d="M153.75,309 L153.75,393.9 678.6,1003.8 845.55,1003.8 C853.1,1003.8 859.6,1000.65 865,994.4 870.35,988.15 873.05,980.6 873.05,971.85 L873.05,309 153.75,309z"/>
        <path id="path4" fill="#666666" fill-opacity="1" d="M161.85,994.4 C167.2,1000.65 173.7,1003.8 181.3,1003.8 L678.6,1003.8 153.75,393.9 153.75,971.85 C153.75,980.6 156.5,988.15 161.85,994.4z"/>
      </g>
    </g>
    <g id="Calque.__203">
      <g id="Symbole.__209_1" overflow="visible">
        <g id="Calque.__207">
          <g id="shape37">
            <path id="path26" fill="#000000" fill-opacity="0.2" d="M717.019,387.746 Q715.551,392.702 715.551,398.351 L715.551,909.933 C715.551,918.726 718.257,926.293 723.623,932.528 728.989,938.763 735.501,941.907 743.068,941.907 L755.955,941.907 C763.522,941.907 770.034,938.763 775.4,932.528 780.766,926.293 783.472,918.726 783.472,909.933 L783.472,398.351 C783.472,394.567 782.967,391.05 782.004,387.746 L717.019,387.746z M559.578,387.746 C558.615,391.05 558.11,394.567 558.11,398.351 L558.11,909.933 C558.11,918.726 560.816,926.293 566.182,932.528 571.548,938.763 578.06,941.907 585.627,941.907 L598.514,941.907 C606.081,941.907 612.593,938.763 617.959,932.528 623.325,926.293 626.031,918.726 626.031,909.933 L626.031,398.351 C626.031,394.567 625.526,391.05 624.563,387.746 L559.578,387.746z M402.137,387.746 C401.174,391.05 400.669,394.567 400.669,398.351 L400.669,909.933 C400.669,918.726 403.375,926.293 408.741,932.528 414.107,938.763 420.619,941.907 428.186,941.907 L441.073,941.907 C448.64,941.907 455.152,938.763 460.518,932.528 465.884,926.293 468.59,918.726 468.59,909.933 L468.59,398.351 C468.59,394.567 468.085,391.05 467.122,387.746 L402.137,387.746z M244.696,387.746 C243.733,391.05 243.228,394.567 243.228,398.351 L243.228,909.933 C243.228,918.726 245.934,926.293 251.3,932.528 256.666,938.763 263.178,941.907 270.745,941.907 L283.632,941.907 C291.199,941.907 297.711,938.763 303.077,932.528 308.443,926.293 311.149,918.726 311.149,909.933 L311.149,398.351 C311.149,394.567 310.644,391.05 309.681,387.746 L244.696,387.746z"/>
          </g>
        </g>
      </g>
    </g>
  </g>
  <g id="Ico">
    <g id="Symbole.__211_1" overflow="visible">
      <g id="Calque.__208">
        <g id="shape38">
          <path id="path27" fill="#000000" fill-opacity="0.2" d="M873.11,486.868 L873.11,426.378 153.779,426.378 153.779,486.868 873.11,486.868z"/>
        </g>
      </g>
    </g>
  </g>
  <g id="Symbole.__208">
    <g id="Symbole.__213_1" overflow="visible">
      <g id="Calque.__209">
        <g id="shape39">
          <path id="path28" fill="#333333" fill-opacity="1" d="M665.471,228.224 L665.471,142.556 361.091,142.602 361.091,228.224 665.471,228.224z"/>
          <path id="path29" fill="#666666" fill-opacity="1" d="M665.471,142.556 L665.471,228.224 665.471,286.926 361.091,286.926 361.091,228.224 361.091,142.602 361.091,142.556 270.149,228.224 270.149,286.926 130.869,286.926 C123.302,286.926 116.789,289.632 111.424,294.998 106.058,300.364 103.352,306.876 103.352,314.443 L103.352,426.39 923.348,426.39 923.348,314.443 C923.348,306.876 920.642,300.364 915.276,294.998 909.911,289.632 903.398,286.926 895.831,286.926 L756.551,286.926 756.551,228.224 665.471,142.556z"/>
        </g>
      </g>
    </g>
  </g>
  <g id="object">
    <g id="shape12">
      <path id="path6" fill="#FFFFFF" fill-opacity="1" d="M665.95,510.25 C663.6,507.9 660.9,506.75 657.75,506.75 654.7,506.75 652,507.9 649.65,510.25 L626,533.55 C613.15,521.4 598.4,512 581.7,505.2 565.05,498.5 547.95,495.2 530.35,495.2 497.05,495.2 514.15,541.5 530.35,541.5 554.5,541.5 575.65,549.75 593.6,566.3 L568.5,591.45 C566.2,593.6 565.05,596.3 565.05,599.5 565.05,602.65 566.2,605.4 568.5,607.7 570.85,609.95 573.55,611.05 576.6,611.05 L657.75,611.05 C660.9,611.05 663.6,609.95 665.95,607.7 668.25,605.4 669.35,602.65 669.35,599.5 L669.35,518.35 C669.35,515.15 668.25,512.45 665.95,510.25z M669.3,669.85 C669.3,636.55 622.95,653.65 622.95,669.85 622.95,694 614.7,715.15 598.15,733.1 L573.05,708 C570.9,705.7 568.15,704.55 565,704.55 561.85,704.55 559.1,705.7 556.75,708 554.55,710.35 553.45,713.05 553.45,716.1 L553.45,797.25 C553.45,800.4 554.55,803.1 556.75,805.45 559.1,807.75 561.85,808.85 565,808.85 L646.15,808.85 C649.35,808.85 652.05,807.75 654.2,805.45 Q657.7,801.95 657.7,797.25 C657.7,794.2 656.55,791.5 654.2,789.15 L630.95,765.5 C643.05,752.65 652.5,737.9 659.25,721.2 665.95,704.55 669.3,687.45 669.3,669.85z M370.7,515 L394,538.3 C381.65,551.2 372.2,565.85 365.65,582.35 358.95,598.85 355.65,615.9 355.65,633.55 355.65,666.6 401.95,650.5 401.95,634.35 401.95,622.6 404.1,611.3 408.4,600.45 412.9,589.5 419.05,579.8 426.95,571.25 L451.9,596.15 C454.05,598.3 456.75,599.4 459.95,599.4 463.1,599.4 465.8,598.3 468.05,596.15 470.4,593.8 471.55,591.1 471.55,587.9 L471.55,506.75 C471.55,503.6 470.4,500.85 468.05,498.65 465.8,496.35 463.1,495.2 459.95,495.2 L378.8,495.2 C375.65,495.2 372.95,496.35 370.7,498.65 368.4,500.85 367.2,503.6 367.2,506.75 367.2,509.9 368.4,512.65 370.7,515z M359.15,696.45 C356.85,698.65 355.7,701.4 355.7,704.55 L355.7,785.7 C355.7,788.85 356.85,791.55 359.15,793.8 361.35,796.1 364.05,797.25 367.25,797.25 370.4,797.25 373.1,796.1 375.45,793.8 L398.8,770.5 C411.7,782.85 426.35,792.3 442.85,798.8 459.35,805.5 476.4,808.85 494.05,808.85 527.1,808.85 511,762.5 494.85,762.5 483.05,762.5 471.8,760.4 460.95,756.1 450,751.6 440.3,745.45 431.75,737.55 L456.65,712.6 C458.8,710.45 459.9,707.7 459.9,704.55 459.9,701.4 458.8,698.65 456.65,696.45 454.3,694.1 451.55,692.95 448.4,692.95 L367.25,692.95 C364.05,692.95 361.35,694.1 359.15,696.45z"/>
    </g>
  </g>
</svg>