
<svg xmlns="http://www.w3.org/2000/svg" version="1.1" xmlns:xlink="http://www.w3.org/1999/xlink" preserveAspectRatio="none" x="0px" y="0px" width="1024px" height="1024px" viewBox="0 0 1024 1024">
<defs>
<g id="Layer4_0_FILL">
<path fill="#000000" fill-opacity="0.09803921568627451" stroke="none" d="
M 969.6 351.25
Q 961 330.4 950.2 310.4 944.1 299.05 937.3 288 907.95 240.45 865.75 198.2 727.5 59.95 531.95 59.95 336.45 59.95 198.2 198.2 59.95 336.45 59.95 531.95 59.95 727.5 198.2 865.75 336.45 1003.95 531.95 1003.95 727.5 1003.95 865.75 865.75 941.9 789.55 976.1 696 1003.95 619.75 1003.95 531.95 1003.95 464.6 987.55 404 985.7 397.15 983.65 390.4 977.5 370.45 969.6 351.25 Z"/>
</g>

<g id="Layer3_0_FILL">
<path fill="#0078D7" stroke="none" d="
M 969.7 392
Q 967.95 385.15 966.05 378.4 964.52578125 373.114453125 962.85 367.85 960.3787109375 359.903125 957.6 352.05 947.85 324.5 934.45 298.4 928.65 287.05 922.15 276 891.5 224 845.8 178.25 736.8 69.25 592.15 46.2 567.65 42.3 542.1 40.85 527.2 40 512 40 497.9 40 484.1 40.75 306.55 49.95 178.25 178.25 40 316.5 40 512 40 707.55 178.25 845.8 263.0400390625 930.55703125 369.35 963.35 423.8880859375 980.1630859375 484.1 983.3 484.3 983.3 484.5 983.3 496.65 983.9 509 984 510.5 984 512 984 527.25 984 542.1 983.2 545.6 983 549.05 982.75 579.1 980.6 607.75 975.05 619.55 972.75 631.15 969.9 751.75 939.85 845.8 845.8 918.7 772.85 953.15 684 980.9 612.4 983.7 530.5 984 521.3 984 512 984 511 984 510 984 509.5 984 509 983.65 447.7 969.7 392 Z"/>
</g>

<g id="Layer1_0_FILL">
<path fill="#000000" fill-opacity="0.2" stroke="none" d="
M 953.15 684
Q 979.5 616.05 983.35 538.85
L 726.5 282 416.05 274.85
Q 286.27734375 353.2115234375 216.85 477.55
L 290.85 551.55 352.65 747 584.6 978.95
Q 596.3 977.25 607.75 975.05 619.55 972.75 631.15 969.9 751.75 939.85 845.8 845.8 918.7 772.85 953.15 684 Z"/>
</g>

<g id="Layer0_0_FILL">
<path fill="#FFFFFF" stroke="none" d="
M 59.75 38.05
L 59.75 30.1
Q 59.75 25.4 58.45 20.8 57.15 16.3 54.7 12.65 52.3 9.05 48.6 6.1 44.8 3.25 40.35 1.7 38.15 0.95 35.55 0.45 33 0.05 30.65 0.05 26.45 0.05 22.7 0.95 19.1 1.9 15.75 3.75 12.65 5.45 9.85 8.15 7.1 10.8 5.2 13.9 3.2 17.2 1.95 20.8 0.65 24.55 0.2 28.55 2.4 25.1 5.45 22.1 8.4 19.3 12.3 16.9 16.15 14.65 20.15 13.5 24.3 12.3 28.4 12.3 32 12.3 34.35 13.15 36.85 14 38.4 15.7 40 17.45 40.65 20 41.35 22.4 41.35 26
L 18.6 26
Q 18.9 23.2 20 20.5 21.15 17.75 23.1 15.8 19.6 17.2 16.55 19.6 13.6 21.95 11.6 24.9 9.6 27.9 8.45 31.5 7.4 35.1 7.4 39 7.4 42.8 8.35 46 9.35 49.3 11.05 52.05 12.9 54.95 15.25 57.05 17.95 59.4 20.65 60.8 23.55 62.35 26.9 63.2 30.15 64 33.85 64 37 64 39.1 63.75 41.65 63.45 44.05 62.85 46.1 62.4 48.9 61.45 51.65 60.4 53.75 59.4
L 53.75 45.8 49.45 47.95
Q 47.35 48.95 45.25 49.6 42.9 50.35 40.8 50.75 38.4 51.15 36.05 51.15 34.35 51.15 32 50.8 29.55 50.35 28.05 49.75 26 49.05 24.45 48.05 22.75 46.95 21.55 45.55 20.35 44.1 19.55 42.25 18.85 40.25 18.85 38
L 59.75 38.05 Z"/>
</g>
</defs>

<g transform="matrix( 1, 0, 0, 1, 0,0) ">
<use xlink:href="#Layer4_0_FILL"/>
</g>

<g transform="matrix( 1, 0, 0, 1, 0,0) ">
<use xlink:href="#Layer3_0_FILL"/>
</g>

<g transform="matrix( 1, 0, 0, 1, 0,0) ">
<use xlink:href="#Layer1_0_FILL"/>
</g>

<g transform="matrix( 9.913925170898438, 0, 0, 9.913925170898438, 214.85,194.5) ">
<use xlink:href="#Layer0_0_FILL"/>
</g>
</svg>
