<?xml version="1.0" encoding="utf-8"?>
<!-- Generator: flash2svg, http://dissentgraphics.com/tools/flash2svg -->
<svg id="Apps-SeratoDJ" image-rendering="optimizeSpeed" baseProfile="basic" version="1.1" style="background-color:#FFFFFF" x="0px" y="0px" width="1024px" height="1024px" viewBox="0 0 1024 1024" enable-background="new 0 0 1024 1024" xmlns="http://www.w3.org/2000/svg" xmlns:xlink="http://www.w3.org/1999/xlink">
  <defs transform="matrix(1 0 0 1 0 0) "/>
  <g id="background-circle-shadow">
    <g id="shape">
      <path id="path" fill="#000000" fill-opacity="0.09803921568627451" d="M969.6,351.25 Q961,330.4 950.2,310.4 C946.15,302.85 941.85,295.35 937.3,288 917.75,256.3 893.9,226.35 865.75,198.2 773.6,106.05 662.3,59.95 531.95,59.95 401.6,59.95 290.35,106.05 198.2,198.2 106.05,290.35 59.95,401.6 59.95,531.95 59.95,662.3 106.05,773.6 198.2,865.75 290.35,957.9 401.6,1003.95 531.95,1003.95 662.3,1003.95 773.6,957.9 865.75,865.75 916.5,814.95 953.3,758.35 976.1,696 994.65,645.15 1003.95,590.5 1003.95,531.95 1003.95,487.05 998.5,444.4 987.55,404 986.3,399.45 985,394.9 983.65,390.4 979.55,377.1 974.85,364.05 969.6,351.25z"/>
    </g>
  </g>
  <g id="background-circle">
    <g id="shape2">
      <path id="path1" fill="#2F2F2E" fill-opacity="1" d="M966.05,378.4 C965.05,375 964.05,371.55 962.9,367.9 961.3,362.75 959.5,357.4 957.6,352.05 951.15,333.8 943.45,316 934.45,298.4 930.65,291 926.5,283.45 922.15,276 901.85,241.5 876.35,208.8 845.8,178.25 773.2,105.65 688.65,61.6 592.15,46.2 575.9,43.6 559.35,41.8 542.1,40.85 532.4,40.3 522.25,40 512,40 502.65,40 493.4,40.25 484.1,40.75 365.75,46.85 263.8,92.7 178.25,178.25 Q40,316.5 40,512 C40,642.35 86.1,753.65 178.25,845.8 234.95,902.45 298.8,941.7 369.35,963.35 406.1,974.6 444.15,981.2 484.1,983.3 484.25,983.3 484.35,983.3 484.5,983.3 493,983.75 501.1,984 509,984 510.2,984 511.1,984 512,984 522.3,984 532.5,983.7 542.1,983.2 544.6,983.05 546.85,982.9 549.05,982.75 569.25,981.3 588.95,978.7 607.75,975.05 615.7,973.5 623.55,971.75 631.15,969.9 711.95,949.6 783.3,908.3 845.8,845.8 894.4,797.2 930.2,743.3 953.15,684 971.6,636.35 981.8,585.2 983.7,530.5 983.9,524.45 984,518.25 984,512 984,511.35 984,510.65 984,510 984,509.65 984,509.35 984,509 983.8,468.35 979.05,429.5 969.7,392 968.6,387.65 967.35,383 966.05,378.4z"/>
    </g>
  </g>
  <g id="Calque.__201">
    <g id="shape4">
      <path id="path3" fill="none" stroke="#3A3B3A" stroke-opacity="1" stroke-width="13.25" stroke-linecap="round" stroke-linejoin="round" d="M951.6,518.6 C951.6,399.05 909.3,296.95 824.75,212.4 740.2,127.85 638.15,85.6 518.6,85.6 399.05,85.6 296.95,127.85 212.4,212.4 127.85,296.95 85.6,399.05 85.6,518.6 85.6,638.15 127.85,740.2 212.4,824.75 296.95,909.3 399.05,951.6 518.6,951.6 638.15,951.6 740.2,909.3 824.75,824.75 909.3,740.2 951.6,638.15 951.6,518.6z"/>
      <path id="path5" fill="none" stroke="#3A3B3A" stroke-opacity="1" stroke-width="13.25" stroke-linecap="round" stroke-linejoin="round" d="M922.25,518.6 Q922.25,351.4 804,233.15 C725.25,154.4 630.1,115 518.65,115 407.15,115 312,154.4 233.2,233.15 154.35,312 114.95,407.15 114.95,518.6 114.95,630.1 154.35,725.25 233.2,804 312,882.85 407.15,922.25 518.65,922.25 630.1,922.25 725.25,882.85 804,804 882.85,725.25 922.25,630.1 922.25,518.6z"/>
    </g>
  </g>
  <g id="Calque.__202">
    <g id="shape7">
      <path id="path7" fill="none" stroke="#3A3B3A" stroke-opacity="1" stroke-width="13.25" stroke-linecap="round" stroke-linejoin="round" d="M783.75,783.6 C856.95,710.4 893.55,622.05 893.55,518.6 893.55,415.1 856.95,326.75 783.75,253.5 710.55,180.35 622.2,143.8 518.75,143.8 415.25,143.8 326.9,180.35 253.65,253.5 180.5,326.75 143.9,415.1 143.9,518.6 143.9,622.05 180.5,710.4 253.65,783.6 326.9,856.8 415.25,893.4 518.75,893.4 622.2,893.4 710.55,856.8 783.75,783.6z"/>
      <path id="path9" fill="none" stroke="#3A3B3A" stroke-opacity="1" stroke-width="13.25" stroke-linecap="round" stroke-linejoin="round" d="M762.95,762.8 Q864.15,661.7 864.15,518.6 C864.15,423.15 830.4,341.75 762.95,274.3 695.55,206.85 614.15,173.15 518.75,173.15 423.3,173.15 341.9,206.85 274.45,274.3 207,341.75 173.25,423.15 173.25,518.6 173.25,614 207,695.4 274.45,762.8 341.9,830.25 423.3,864 518.75,864 614.15,864 695.55,830.25 762.95,762.8z"/>
    </g>
  </g>
  <g id="Calque.__203">
    <g id="element4" transform="matrix(1 0 0 1 0 0) "/>
  </g>
  <g id="Calque.__204">
    <g id="shape17">
      <path id="path22" fill="#FFFFFF" fill-opacity="1" d="M661.8,284.4 C661.8,276.35 658.95,269.45 653.25,263.75 647.5,258 640.6,255.15 632.55,255.15 624.5,255.15 617.6,258 611.9,263.75 606.15,269.45 603.3,276.35 603.3,284.4 L603.3,331.1 C603.35,331.75 603.35,332.35 603.35,333 603.35,333.65 603.35,334.3 603.3,334.95 602.85,343 599.75,349.9 593.95,355.65 587.7,361.9 580.15,365.05 571.3,365.05 562.45,365.05 554.85,361.9 548.6,355.65 544.25,351.3 541.3,346.05 539.8,340 L539.8,174.25 C539.8,166.2 536.95,159.3 531.25,153.6 525.5,147.85 518.6,145 510.55,145 502.5,145 495.6,147.85 489.9,153.6 484.15,159.3 481.3,166.2 481.3,174.25 L481.3,340.75 C480.15,347.2 477.15,352.85 472.3,357.7 465.95,364.05 458.35,367.2 449.4,367.2 440.45,367.2 432.85,364.05 426.5,357.7 422,353.2 419.1,348.05 417.8,342.25 L417.8,291.9 C417.8,283.85 414.95,276.95 409.25,271.25 403.5,265.5 396.6,262.65 388.55,262.65 380.5,262.65 373.6,265.5 367.9,271.25 362.15,276.95 359.3,283.85 359.3,291.9 L359.3,446.8 359.55,448.05 359.55,459.95 359.3,461.25 C358,467.15 355.1,472.35 350.55,476.9 344.2,483.25 336.6,486.4 327.65,486.4 318.7,486.4 311.1,483.25 304.75,476.9 300.25,472.4 297.35,467.25 296.05,461.45 L295.8,385.5 C295.8,377.45 292.95,370.55 287.25,364.85 281.5,359.1 274.6,356.25 266.55,356.25 258.5,356.25 251.6,359.1 245.9,364.85 240.15,370.55 237.3,377.45 237.3,385.5 L237.3,638.5 C237.3,646.55 240.15,653.45 245.9,659.2 251.6,664.9 258.5,667.75 266.55,667.75 274.6,667.75 281.5,664.9 287.25,659.2 292.95,653.45 295.8,646.55 295.8,638.5 L295.55,566.15 295.8,565.15 C297.35,559.4 300.25,554.35 304.5,550.1 310.85,543.75 318.45,540.6 327.4,540.6 336.35,540.6 343.95,543.75 350.3,550.1 354.85,554.65 357.75,559.85 359.05,565.8 L359.3,567.05 359.3,732.1 C359.3,740.15 362.15,747.05 367.9,752.8 373.6,758.5 380.5,761.35 388.55,761.35 396.6,761.35 403.5,758.5 409.25,752.8 414.95,747.05 417.8,740.15 417.8,732.1 L417.8,676 C419.25,669.8 422.25,664.45 426.75,659.95 433.1,653.6 440.7,650.45 449.65,650.45 458.6,650.45 466.2,653.6 472.55,659.95 477.1,664.5 480,669.7 481.3,675.65 481.4,676.05 481.5,676.45 481.55,676.9 L481.55,688.8 C481.5,689.25 481.4,689.65 481.3,690.1 L481.3,849.8 C481.3,857.85 484.15,864.75 489.9,870.5 495.6,876.2 502.5,879.05 510.55,879.05 518.6,879.05 525.5,876.2 531.25,870.5 536.95,864.75 539.8,857.85 539.8,849.8 539.95,796.1 540.05,742.45 540.1,688.85 540.05,688.8 540.05,688.75 540.05,688.7 L540.05,673.4 C540.05,673.35 540.05,673.25 540.1,673.2 541.4,667.65 544.2,662.7 548.55,658.35 554.8,652.1 562.4,649 571.25,649 580.1,649 587.65,652.1 593.9,658.35 599.95,664.4 603.1,671.7 603.3,680.25 L603.3,739.65 C603.3,747.7 606.15,754.6 611.9,760.35 617.6,766.05 624.5,768.9 632.55,768.9 640.6,768.9 647.5,766.05 653.25,760.35 658.95,754.6 661.8,747.7 661.8,739.65 L661.8,562.15 C663.45,557.6 666.05,553.6 669.55,550.1 675.9,543.75 683.5,540.6 692.45,540.6 701.4,540.6 709,543.75 715.35,550.1 719.9,554.65 722.8,559.85 724.1,565.8 L724.35,567.05 724.35,637.05 C724.35,645.1 727.2,652 732.95,657.75 738.65,663.45 745.55,666.3 753.6,666.3 761.65,666.3 768.55,663.45 774.3,657.75 780,652 782.85,645.1 782.85,637.05 L782.85,387 C782.85,378.95 780,372.05 774.3,366.35 768.55,360.6 761.65,357.75 753.6,357.75 745.55,357.75 738.65,360.6 732.95,366.35 Q724.35,374.9 724.35,387 L724.35,461.25 C723.05,467.15 720.15,472.35 715.6,476.9 709.25,483.25 701.65,486.4 692.7,486.4 683.75,486.4 676.15,483.25 669.8,476.9 665.95,473.05 663.3,468.8 661.8,464.05 L661.8,284.4z"/>
    </g>
  </g>
  <g id="object-shadow">
    <g id="shape19">
      <path id="path23" fill="#BC4E3F" fill-opacity="1" d="M538,491.45 L630.2,583.65 C644.05,562.65 651,538.75 651,512 Q651,457.35 612.35,418.7 C586.6,392.9 555.45,380 519,380 482.55,380 451.4,392.9 425.65,418.7 399.9,444.45 387,475.55 387,512 387,548.45 399.9,579.6 425.65,605.35 451.4,631.1 482.55,644 519,644 545.75,644 569.7,637.05 590.75,623.1 L501.05,533.4 538,491.45z"/>
      <path id="path24" fill="#A14536" fill-opacity="1" d="M630.2,583.65 L538,491.45 501.05,533.4 590.75,623.1 C598.3,618.15 605.5,612.2 612.35,605.35 619.2,598.5 625.15,591.25 630.2,583.65z"/>
    </g>
  </g>
  <g id="Calque.__205">
    <g id="shape23">
      <path id="path25" fill="#FFFFFF" fill-opacity="1" d="M845.85,485.25 Q834,485.25 825.65,493.6 C820.1,499.15 817.3,505.9 817.3,513.8 817.3,521.7 820.1,528.45 825.65,534 831.2,539.55 837.95,542.35 845.85,542.35 853.75,542.35 860.5,539.55 866.05,534 871.6,528.45 874.4,521.7 874.4,513.8 874.4,505.9 871.6,499.15 866.05,493.6 860.5,488.05 853.75,485.25 845.85,485.25z M193.6,493.6 C188.05,488.05 181.3,485.25 173.4,485.25 165.5,485.25 158.75,488.05 153.2,493.6 147.65,499.15 144.85,505.9 144.85,513.8 144.85,521.7 147.65,528.45 153.2,534 158.75,539.55 165.5,542.35 173.4,542.35 181.3,542.35 188.05,539.55 193.6,534 199.15,528.45 201.95,521.7 201.95,513.8 201.95,505.9 199.15,499.15 193.6,493.6z"/>
    </g>
  </g>
  <g id="object">
    <g id="shape27">
      <path id="path28" fill="#FFFFFF" fill-opacity="1" d="M519,485.25 C511.6,485.25 505.3,487.85 500.05,493.05 494.85,498.3 492.25,504.6 492.25,512 492.25,519.4 494.85,525.7 500.05,530.9 505.3,536.15 511.6,538.75 519,538.75 526.4,538.75 532.7,536.15 537.9,530.9 543.15,525.7 545.75,519.4 545.75,512 545.75,504.6 543.15,498.3 537.9,493.05 Q530.1,485.25 519,485.25z"/>
    </g>
  </g>
</svg>