<?xml version="1.0" encoding="utf-8"?>
<!-- Generator: flash2svg, http://dissentgraphics.com/tools/flash2svg -->
<svg id="Preview" image-rendering="optimizeSpeed" baseProfile="basic" version="1.1" style="background-color:#FFFFFF" x="0px" y="0px" width="1024px" height="1024px" viewBox="0 0 1024 1024" enable-background="new 0 0 1024 1024" xmlns="http://www.w3.org/2000/svg" xmlns:xlink="http://www.w3.org/1999/xlink">
  <defs transform="matrix(1 0 0 1 0 0) "/>
  <g id="shadow">
    <g id="shape">
      <path id="path" fill="#000000" fill-opacity="0.09803921568627451" d="M965.6,347.25 Q957,326.4 946.2,306.4 C942.15,298.85 937.85,291.35 933.3,284 913.75,252.3 889.9,222.35 861.75,194.2 769.6,102.05 658.3,55.95 527.95,55.95 397.6,55.95 286.35,102.05 194.2,194.2 102.05,286.35 55.95,397.6 55.95,527.95 55.95,658.3 102.05,769.6 194.2,861.75 286.35,953.9 397.6,999.95 527.95,999.95 658.3,999.95 769.6,953.9 861.75,861.75 912.5,810.95 949.3,754.35 972.1,692 990.65,641.15 999.95,586.5 999.95,527.95 999.95,483.05 994.5,440.4 983.55,400 982.3,395.45 981,390.9 979.65,386.4 975.55,373.1 970.85,360.05 965.6,347.25z"/>
    </g>
  </g>
  <g id="circle">
    <g id="shape2">
      <path id="path1" fill="#9D9670" fill-opacity="1" d="M799,138.25 Q738.3,91.5 666.2,66.6 591.7,40.85 512.05,40.85 C251.45,40.85 40.2,252.1 40.2,512.7 40.2,751.1 217.05,948.1 446.65,979.95 457.85,981.5 469.2,982.7 480.6,983.4 491,984.05 501.45,984.5 512.05,984.5 772.6,984.5 983.8,773.25 983.8,512.7 983.8,492.1 982.5,471.75 979.95,451.9 977,428.7 972.2,406.15 966.05,384.2 Q945.15,310.45 901.85,246.95 859.05,184.4 799,138.25z"/>
    </g>
  </g>
  <g id="BG">
    <g id="shape4">
      <path id="path2" fill="#000000" fill-opacity="0.2" d="M966.05,384.2 L775.55,193.7 233.15,736.1 480.6,983.4 C491,984.05 501.45,984.5 512.05,984.5 772.6,984.5 983.8,773.25 983.8,512.7 983.8,492.1 982.5,471.75 979.95,451.9 977,428.7 972.2,406.15 966.05,384.2z"/>
    </g>
  </g>
  <g id="ico">
    <g id="FlashAICB.__2FCalque.__201.__2F.__3CGroup.__3E_6_1" overflow="visible">
      <g id="Calque.__205">
        <g id="group10">
          <g id="drawingObject13">
            <path id="path28" fill="#1D1D1B" fill-opacity="0.3" d="M788.318,580.66 L788.318,214.092 298.15,214 298.15,580.568 788.318,580.66z"/>
          </g>
        </g>
      </g>
    </g>
    <g id="group">
      <g id="drawingObject">
        <path id="path3" fill="#5899A2" fill-opacity="1" d="M762.588,550.026 L762.68,204.101 293.138,204.009 293.046,550.026 762.588,550.026z"/>
      </g>
      <g id="group1">
        <g id="drawingObject1">
          <path id="path4" fill="#FFFFFF" fill-opacity="1" d="M772.981,560.419 L772.981,193.799 282.744,193.707 282.744,560.327 772.981,560.419z M752.286,539.725 L303.439,539.633 303.439,214.402 752.286,214.494 752.286,539.725z"/>
        </g>
      </g>
    </g>
    <g id="FlashAICB.__2FCalque.__201.__2F.__3CGroup.__3E_8_1" overflow="visible">
      <g id="Calque.__206">
        <g id="group11">
          <g id="drawingObject14">
            <path id="path29" fill="#1D1D1B" fill-opacity="0.3" d="M761.27,697.787 L723.013,333.15 216.2,386.397 254.549,751.034 761.27,697.787z"/>
          </g>
        </g>
      </g>
    </g>
    <g id="FlashAICB.__2FCalque.__201.__2F.__3CGroup.__3E_10_1" overflow="visible">
      <g id="Calque.__207">
        <g id="group12">
          <g id="drawingObject15">
            <path id="path30" fill="#1D1D1B" fill-opacity="0.3" d="M800.668,552.326 L678.816,389.55 380.117,420.91 325.95,543.314 339.929,676.202 428.306,784.535 713.854,754.463 800.668,552.326z"/>
          </g>
        </g>
      </g>
    </g>
    <g id="group2">
      <g id="drawingObject2">
        <path id="path8" fill="#467A81" fill-opacity="1" d="M206.311,380.604 L242.458,724.69 728.74,673.643 692.501,329.557 206.311,380.604z"/>
      </g>
      <g id="group3">
        <g id="drawingObject3">
          <path id="path9" fill="#FFFFFF" fill-opacity="1" d="M740.054,682.841 L701.791,318.152 194.906,371.407 233.169,736.095 740.054,682.841z M683.304,340.962 L717.335,664.353 251.656,713.285 217.625,389.894 683.304,340.962z"/>
        </g>
      </g>
    </g>
    <g id="group4">
      <g id="drawingObject4">
        <path id="path13" fill="#467A81" fill-opacity="1" d="M559.779,350.988 C556.1,350.988 552.237,351.08 548.374,351.264 400.199,357.61 345.932,467.891 340.23,480.399 Q334.619,492.724 332.596,546.255 330.848,591.783 332.228,641.819 L379.412,747.776 757.989,707.858 732.971,444.988 C725.061,430.64 675.854,350.988 559.779,350.988z"/>
      </g>
      <g id="group5">
        <g id="drawingObject5">
          <path id="path14" fill="#FFFFFF" fill-opacity="1" d="M559.779,335.444 Q553.984,335.444 547.73,335.72 C400.383,342.066 339.494,444.528 326.065,474.053 312.637,503.486 316.776,645.314 316.776,645.314 L369.754,764.424 774.913,721.655 748.148,440.573 C748.148,440.573 698.02,335.444 559.779,335.444z M559.779,366.532 C662.149,366.532 707.494,432.203 717.795,449.771 L741.065,694.062 388.978,731.129 347.68,638.324 C346.116,575.688 348.324,501.554 354.302,486.838 359.637,475.157 410.132,372.694 549.109,366.716 L559.779,366.532z"/>
        </g>
      </g>
    </g>
    <g id="FlashAICB.__2FCalque.__201.__2F.__3CPath.__3E_1_1" overflow="visible">
      <g id="Calque.__208">
        <g id="drawingObject16">
          <path id="path31" fill="#FFFFFF" fill-opacity="0.2" d="M788.439,587.47 C788.439,457.433 682.957,351.95 552.92,351.95 422.883,351.95 317.4,457.433 317.4,587.47 317.4,717.599 422.883,822.989 552.92,822.989 Q600.833,822.989 644.608,804.505 686.819,786.572 719.466,754.016 752.022,721.461 769.955,679.158 788.439,635.383 788.439,587.47z"/>
        </g>
      </g>
    </g>
    <g id="drawingObject6">
      <path id="path18" fill="#27302C" fill-opacity="1" d="M554.293,319.759 Q499.574,319.759 449.546,340.911 401.265,361.327 364.02,398.572 326.774,435.818 306.358,484.099 285.206,534.127 285.206,588.846 C285.206,737.459 405.679,857.932 554.293,857.932 702.907,857.932 823.38,737.459 823.38,588.846 823.38,440.232 702.907,319.759 554.293,319.759z M756.062,588.846 C756.062,700.122 665.569,790.615 554.293,790.615 443.017,790.615 352.432,700.122 352.432,588.846 352.432,477.569 443.017,387.077 554.293,387.077 665.569,387.077 756.062,477.569 756.062,588.846z"/>
    </g>
    <g id="drawingObject7">
      <path id="path22" fill="#FFFFFF" fill-opacity="1" d="M615.449,423.494 C581.238,414.298 548.223,426.345 541.786,450.44 535.256,474.442 557.788,501.48 591.906,510.676 Q617.564,517.574 639.176,509.665 660.787,501.848 665.661,483.823 C672.099,459.728 649.66,432.783 615.449,423.494z"/>
    </g>
    <g id="group6">
      <g id="drawingObject8">
        <path id="path23" fill="#27302C" fill-opacity="1" d="M789.721,894.663 C824.764,869.186 856.22,838.925 883.078,804.986 L785.674,707.582 694.157,799.099 789.721,894.663z"/>
      </g>
    </g>
  </g>
</svg>