
<svg xmlns="http://www.w3.org/2000/svg" version="1.1" xmlns:xlink="http://www.w3.org/1999/xlink" preserveAspectRatio="none" x="0px" y="0px" width="1024px" height="1024px" viewBox="0 0 1024 1024">
<defs>
<g id="Layer3_0_FILL">
<path fill="#000000" fill-opacity="0.09803921568627451" stroke="none" d="
M 969.6 351.25
Q 961 330.4 950.2 310.4 944.1 299.05 937.3 288 907.95 240.45 865.75 198.2 727.5 59.95 531.95 59.95 336.45 59.95 198.2 198.2 59.95 336.45 59.95 531.95 59.95 727.5 198.2 865.75 336.45 1003.95 531.95 1003.95 727.5 1003.95 865.75 865.75 941.9 789.55 976.1 696 1003.95 619.75 1003.95 531.95 1003.95 464.6 987.55 404 985.7 397.15 983.65 390.4 977.5 370.45 969.6 351.25 Z"/>
</g>

<g id="Layer2_0_FILL">
<path fill="#CBCBCB" stroke="none" d="
M 845.8 178.25
Q 844.787109375 177.237109375 843.75 176.2 735.455859375 69.0357421875 592.15 46.2 567.65 42.3 542.1 40.85 527.2 40 512 40 497.9 40 484.1 40.75 306.55 49.95 178.25 178.25 40 316.5 40 512 40 706.11484375 176.2 843.75 177.2353515625 844.7853515625 178.25 845.8 263.0400390625 930.55703125 369.35 963.35 423.8880859375 980.1630859375 484.1 983.3 484.3 983.3 484.5 983.3 496.65 983.9 509 984 510.5 984 512 984 527.25 984 542.1 983.2 545.6 983 549.05 982.75 579.1 980.6 607.75 975.05 619.55 972.75 631.15 969.9 751.75 939.85 845.8 845.8 918.7 772.85 953.15 684 980.9 612.4 983.7 530.5 984 521.3 984 512 984 511 984 510 984 509.5 984 509 983.65 447.7 969.7 392 967.95 385.15 966.05 378.4 964.52578125 373.114453125 962.85 367.85 960.3787109375 359.903125 957.6 352.05 947.85 324.5 934.45 298.4 928.65 287.05 922.15 276 891.5 224 845.8 178.25
M 764.55 255.45
Q 765.548046875 256.448046875 766.55 257.45 871.95 362.85 871.95 512 871.95 661.1 766.55 766.55 661.15 871.95 512 871.95 362.9 871.95 257.5 766.55 256.486328125 765.536328125 255.45 764.5 152.05 659.6666015625 152.05 512 152.05 362.85 257.5 257.45 362.9 152.05 512 152.05 659.7322265625 152.05 764.55 255.45 Z"/>

<path fill="#333333" stroke="none" d="
M 766.55 257.45
Q 765.548046875 256.448046875 764.55 255.45 659.7322265625 152.05 512 152.05 362.9 152.05 257.5 257.45 152.05 362.85 152.05 512 152.05 659.6666015625 255.45 764.5 256.486328125 765.536328125 257.5 766.55 362.9 871.95 512 871.95 661.15 871.95 766.55 766.55 871.95 661.1 871.95 512 871.95 362.85 766.55 257.45 Z"/>
</g>

<g id="Layer1_0_FILL">
<path fill="#000000" fill-opacity="0.09803921568627451" stroke="none" d="
M 871.95 512
Q 871.95 661.1 766.55 766.55 661.15 871.95 512 871.95 375.7064453125 871.95 275.9 783.85
L 474.75 982.7
Q 479.42265625 983.05625 484.1 983.3 484.3 983.3 484.5 983.3 496.65 983.9 509 984 510.5 984 512 984 527.25 984 542.1 983.2 545.6 983 549.05 982.75 579.1 980.6 607.75 975.05 619.55 972.75 631.15 969.9 751.75 939.85 845.8 845.8 918.7 772.85 953.15 684 980.9 612.4 983.7 530.5 984 521.3 984 512 984 511 984 510 984 509.5 984 509 983.9580078125 501.6443359375 983.7 494.35
L 829.3 339.95
Q 871.95 417.1244140625 871.95 512 Z"/>

<path fill="#333333" stroke="none" d="
M 766.55 257.45
Q 765.548046875 256.448046875 764.55 255.45 727.042578125 218.45 684.05 194.7 606.8685546875 152.05 512 152.05 362.9 152.05 257.5 257.45 152.05 362.85 152.05 512 152.05 648.211328125 240.05 748 247.4517578125 756.390625 255.45 764.5 256.486328125 765.536328125 257.5 766.55 260.2607421875 769.3107421875 263.05 772 269.4111328125 778.1255859375 275.9 783.85 375.7064453125 871.95 512 871.95 661.15 871.95 766.55 766.55 871.95 661.1 871.95 512 871.95 417.1244140625 829.3 339.95 804.9041015625 295.8041015625 766.55 257.45 Z"/>
</g>

<g id="Layer0_0_FILL">
<path fill="#2F81B7" stroke="none" d="
M 224.65 645.3
Q 247.504296875 694.104296875 288.7 735.3 364.3037109375 810.9037109375 465.5 824.7
L 478.9 732.35
Q 408.1783203125 722.3880859375 355.05 669.45
L 355.05 669.45
Q 325.8916015625 640.2869140625 309.8 605.65
L 224.65 645.3
M 196.2 512
Q 196.2 548.4203125 203.35 581.85
L 294.95 561.05
Q 289.99921875 537.648046875 290 512.15 290 485.2810546875 295.5 460.65
L 204.75 436
Q 196.2 472.230859375 196.2 512
M 355.05 354.45
L 355.05 354.45
Q 372.313671875 337.3189453125 391.4 324.7
L 340.4 246.15
Q 313.20546875 264.19453125 288.7 288.7 255.469140625 321.930859375 234.15 360.1
L 315.7 406.75
Q 330.9123046875 378.7642578125 355.05 354.45
M 519.8 196.25
Q 515.9138671875 196.2 512 196.2 475.065625 196.2 441.15 203.55
L 463.05 294.5
Q 486.8416015625 289.4 512.75 289.4 515.83359375 289.4 518.85 289.45
L 519.8 196.25
M 716.7 752.6
L 654.5 683.75
Q 624.119921875 709.436328125 588.35 722.15 553.1658203125 734.6978515625 512.75 734.7 509.7794921875 734.7001953125 506.8 734.6
L 505.1 827.7
Q 508.535546875 827.8 512 827.8 570.0392578125 827.8 620.55 809.6 672.6306640625 790.802734375 716.7 752.6
M 827.8 512
Q 827.8 486.4634765625 824.25 462.4
L 732.75 476.9
Q 735.30078125 494.018359375 735.3 512.15 735.296484375 579.550390625 700.45 632.45
L 781.15 678.45
Q 827.8 604.87890625 827.8 512
M 670.05 354.45
L 670.05 354.45
Q 689.68515625 374.1712890625 703.4 396.3
L 782.85 348.25
Q 763.3240234375 316.7240234375 735.3 288.7 662.232421875 215.632421875 565.25 200.25
L 551.15 292.4
Q 618.97421875 303.3828125 670.05 354.45 Z"/>

<path fill="#333333" stroke="none" d="
M 670.05 354.45
L 670.05 354.45
Q 618.97421875 303.3828125 551.15 292.4 535.4583984375 289.8689453125 518.85 289.45 515.83359375 289.4 512.75 289.4 486.8416015625 289.4 463.05 294.5 424.4453125 302.8630859375 391.4 324.7 372.313671875 337.3189453125 355.05 354.45
L 355.05 354.45
Q 330.9123046875 378.7642578125 315.7 406.75 301.917578125 432.191796875 295.5 460.65 290 485.2810546875 290 512.15 289.99921875 537.648046875 294.95 561.05 299.9240234375 584.4001953125 309.8 605.65 325.8916015625 640.2869140625 355.05 669.45
L 355.05 669.45
Q 408.1783203125 722.3880859375 478.9 732.35 492.538671875 734.30390625 506.8 734.6 509.7794921875 734.7001953125 512.75 734.7 553.1658203125 734.6978515625 588.35 722.15 624.119921875 709.436328125 654.5 683.75 655.225390625 683.171875 655.95 682.55 663.1349609375 676.3599609375 670 669.45
L 670.05 669.4
Q 687.6087890625 651.9169921875 700.45 632.45 735.296484375 579.550390625 735.3 512.15 735.30078125 494.018359375 732.75 476.9 730.1994140625 459.418359375 724.95 443 717.1427734375 418.4333984375 703.4 396.3 689.68515625 374.1712890625 670.05 354.45
M 662.25 362.25
L 662.25 362.2
Q 680.92421875 380.9583984375 693.95 402 707.03515625 423.044140625 714.45 446.4 719.444140625 462.01015625 721.9 478.65 724.2990234375 494.9087890625 724.3 512.15 724.3029296875 576.5271484375 690.85 626.95 678.75234375 645.2240234375 662.25 661.65
L 662.25 661.65
Q 655.679296875 668.2662109375 648.8 674.15 647.9693359375 674.8845703125 647.1 675.6 618.3591796875 699.794921875 584.55 711.8 551.1298828125 723.7017578125 512.75 723.7 509.8775390625 723.6998046875 507 723.6 493.44296875 723.3140625 480.45 721.45 413.2888671875 711.9544921875 362.8 661.65
L 362.85 661.65
Q 335.1193359375 633.9244140625 319.8 601 310.430078125 580.7943359375 305.7 558.6 301.0009765625 536.3736328125 301 512.15 301 486.79609375 306.15 463.55 312.209765625 436.4466796875 325.3 412.2 339.7603515625 385.4669921875 362.8 362.25
L 362.85 362.2
Q 379.244140625 345.938671875 397.4 333.95 428.8654296875 313.1599609375 465.6 305.25 488.19140625 300.4 512.75 300.4 515.7744140625 300.4001953125 518.75 300.45 534.5541015625 300.8634765625 549.45 303.3 613.7931640625 313.7845703125 662.25 362.25
M 518 377.35
Q 515.1384765625 377.2498046875 512.2 377.25 497.3271484375 377.25 483.6 380.05 459.653125 384.91875 439.2 398.3 427.3521484375 406.042578125 416.65 416.65
L 416.65 416.65
Q 401.21015625 432.21640625 391.8 450.25 383.6197265625 466 380 483.65 377.25 497.3525390625 377.25 512.2 377.2490234375 527.5705078125 380.2 541.7 383.2134765625 555.82265625 389.15 568.7 398.9390625 589.733984375 416.65 607.45
L 416.65 607.45
Q 448.772265625 639.4220703125 491.5 645.5 499.7806640625 646.699609375 508.45 646.9 510.3255859375 646.9501953125 512.2 646.95 536.6193359375 646.948046875 557.9 639.4 578.0216796875 632.2412109375 595.35 618.3 597.1236328125 616.9015625 598.85 615.4 603.23828125 611.64609375 607.4 607.45
L 607.45 607.4
Q 616.47890625 598.4162109375 623.45 588.55 646.9462890625 555.2572265625 646.95 512.2 646.9505859375 501.1833984375 645.4 490.8 643.853515625 480.2220703125 640.7 470.3 635.968359375 455.458203125 627.65 442.05 619.3642578125 428.6359375 607.45 416.65
L 607.45 416.65
Q 577.3986328125 386.60703125 537.8 379.45 528.1921875 377.7345703125 518 377.35
M 512.2 388.25
Q 515.0857421875 388.2501953125 517.9 388.35 527.286328125 388.751953125 536.1 390.35 572.220703125 397.0123046875 599.65 424.45
L 599.65 424.4
Q 610.60234375 435.42109375 618.25 447.75 625.8611328125 460.0669921875 630.2 473.7 633.0994140625 482.8146484375 634.5 492.5 635.9494140625 502.0748046875 635.95 512.2 635.9537109375 552.231640625 613.8 583.05 607.6244140625 591.72109375 599.65 599.65
L 599.65 599.65
Q 595.78359375 603.5513671875 591.75 607 589.87109375 608.633984375 587.95 610.15 572.2642578125 622.598046875 554.05 629.05 534.58046875 635.951953125 512.2 635.95 510.43203125 635.9498046875 508.65 635.9 500.6966796875 635.711328125 493.05 634.6 453.88671875 628.9943359375 424.4 599.65
L 424.45 599.65
Q 408.162890625 583.3677734375 399.2 564 393.734375 552.210546875 391 539.25 388.2509765625 526.2990234375 388.25 512.2 388.25 498.8759765625 390.7 486.55 393.9123046875 470.2630859375 401.4 455.7 410.0626953125 438.9150390625 424.4 424.45
L 424.45 424.4
Q 434.2833984375 414.661328125 445.2 407.5 464.0689453125 395.2103515625 486.15 390.75 498.6705078125 388.25 512.2 388.25 Z"/>

<path fill="#3B99D9" stroke="none" d="
M 416.65 607.45
L 416.65 607.45
Q 398.9390625 589.733984375 389.15 568.7
L 319.8 601
Q 335.1193359375 633.9244140625 362.85 661.65
L 362.8 661.65
Q 413.2888671875 711.9544921875 480.45 721.45
L 491.5 645.5
Q 448.772265625 639.4220703125 416.65 607.45
M 301 512.15
Q 301.0009765625 536.3736328125 305.7 558.6
L 380.2 541.7
Q 377.2490234375 527.5705078125 377.25 512.2 377.25 497.3525390625 380 483.65
L 306.15 463.55
Q 301 486.79609375 301 512.15
M 662.25 362.2
L 662.25 362.25
Q 613.7931640625 313.7845703125 549.45 303.3 534.5541015625 300.8634765625 518.75 300.45 515.7744140625 300.4001953125 512.75 300.4 488.19140625 300.4 465.6 305.25 428.8654296875 313.1599609375 397.4 333.95 379.244140625 345.938671875 362.85 362.2
L 362.8 362.25
Q 339.7603515625 385.4669921875 325.3 412.2
L 391.8 450.25
Q 401.21015625 432.21640625 416.65 416.65
L 416.65 416.65
Q 427.3521484375 406.042578125 439.2 398.3 459.653125 384.91875 483.6 380.05 497.3271484375 377.25 512.2 377.25 515.1384765625 377.2498046875 518 377.35 528.1921875 377.7345703125 537.8 379.45 577.3986328125 386.60703125 607.45 416.65
L 607.45 416.65
Q 619.3642578125 428.6359375 627.65 442.05
L 693.95 402
Q 680.92421875 380.9583984375 662.25 362.2
M 721.9 478.65
Q 719.444140625 462.01015625 714.45 446.4
L 640.7 470.3
Q 643.853515625 480.2220703125 645.4 490.8 646.9505859375 501.1833984375 646.95 512.2 646.9462890625 555.2572265625 623.45 588.55 616.47890625 598.4162109375 607.45 607.4
L 607.4 607.45
Q 603.23828125 611.64609375 598.85 615.4
L 648.8 674.15
Q 655.679296875 668.2662109375 662.25 661.65
L 662.25 661.65
Q 678.75234375 645.2240234375 690.85 626.95 724.3029296875 576.5271484375 724.3 512.15 724.2990234375 494.9087890625 721.9 478.65
M 512.2 646.95
Q 510.3255859375 646.9501953125 508.45 646.9
L 507 723.6
Q 509.8775390625 723.6998046875 512.75 723.7 551.1298828125 723.7017578125 584.55 711.8
L 557.9 639.4
Q 536.6193359375 646.948046875 512.2 646.95 Z"/>

<path fill="#6BACD9" stroke="none" d="
M 634.5 492.5
Q 633.0994140625 482.8146484375 630.2 473.7
L 566.7 494.25
Q 568.037890625 498.489453125 568.7 502.95 569.35 507.3822265625 569.35 512.05 569.35 533.805078125 555.25 549.65 553.9611328125 551.14296875 552.55 552.55 550.6107421875 554.4951171875 548.55 556.2 545.8646484375 558.515234375 543 560.4 537.3173828125 564.1298828125 531 566.3 522.153515625 569.35 512.05 569.35 510.974609375 569.35 509.9 569.3 506.1921875 569.1947265625 502.65 568.65 484.8603515625 565.9205078125 471.45 552.55 463.8392578125 544.9392578125 459.65 535.85 457.19609375 530.45234375 455.95 524.5 454.7 518.53359375 454.7 512.05 454.7 507.973828125 455.2 504.1
L 390.7 486.55
Q 388.25 498.8759765625 388.25 512.2 388.2509765625 526.2990234375 391 539.25 393.734375 552.210546875 399.2 564 408.162890625 583.3677734375 424.45 599.65
L 424.4 599.65
Q 453.88671875 628.9943359375 493.05 634.6 500.6966796875 635.711328125 508.65 635.9 510.43203125 635.9498046875 512.2 635.95 534.58046875 635.951953125 554.05 629.05 572.2642578125 622.598046875 587.95 610.15 589.87109375 608.633984375 591.75 607 595.78359375 603.5513671875 599.65 599.65
L 599.65 599.65
Q 607.6244140625 591.72109375 613.8 583.05 635.9537109375 552.231640625 635.95 512.2 635.9494140625 502.0748046875 634.5 492.5
M 517.9 388.35
Q 515.0857421875 388.2501953125 512.2 388.25 498.6705078125 388.25 486.15 390.75 464.0689453125 395.2103515625 445.2 407.5 434.2833984375 414.661328125 424.45 424.4
L 424.4 424.45
Q 410.0626953125 438.9150390625 401.4 455.7
L 459.35 488.85
Q 463.5505859375 479.396484375 471.45 471.45 476.18828125 466.73984375 481.45 463.35 490.766015625 457.3984375 501.75 455.55 506.724609375 454.7 512.05 454.7 514.7048828125 454.7 517.25 454.9 521.7888671875 455.2701171875 526 456.25 540.96484375 459.86484375 552.55 471.45 557.631640625 476.5466796875 561.15 482.25
L 618.25 447.75
Q 610.60234375 435.42109375 599.65 424.4
L 599.65 424.45
Q 572.220703125 397.0123046875 536.1 390.35 527.286328125 388.751953125 517.9 388.35 Z"/>

<path fill="#666666" stroke="none" d="
M 526 456.25
Q 521.7888671875 455.2701171875 517.25 454.9 514.7048828125 454.7 512.05 454.7 506.724609375 454.7 501.75 455.55 490.766015625 457.3984375 481.45 463.35 476.18828125 466.73984375 471.45 471.45 463.5505859375 479.396484375 459.35 488.85 456.2185546875 496.04921875 455.2 504.1 454.7 507.973828125 454.7 512.05 454.7 518.53359375 455.95 524.5 457.19609375 530.45234375 459.65 535.85 463.8392578125 544.9392578125 471.45 552.55 484.8603515625 565.9205078125 502.65 568.65 506.1921875 569.1947265625 509.9 569.3 510.974609375 569.35 512.05 569.35 522.153515625 569.35 531 566.3 537.3173828125 564.1298828125 543 560.4 545.8646484375 558.515234375 548.55 556.2 550.6107421875 554.4951171875 552.55 552.55 553.9611328125 551.14296875 555.25 549.65 569.35 533.805078125 569.35 512.05 569.35 507.3822265625 568.7 502.95 568.037890625 498.489453125 566.7 494.25 564.69765625 487.966796875 561.15 482.25 557.631640625 476.5466796875 552.55 471.45 540.96484375 459.86484375 526 456.25
M 512 469.75
Q 514.61484375 469.75 517.1 470 520.5318359375 470.401171875 523.7 471.3 533.8619140625 474.1119140625 541.85 482.1 545.6134765625 485.8634765625 548.2 490.1 550.824609375 494.2900390625 552.3 498.95 553.28828125 502.0521484375 553.75 505.35 554.25 508.5826171875 554.25 512 554.25 529.5 541.85 541.85 541.7853515625 541.91484375 541.7 541.95 540.280078125 543.4150390625 538.75 544.65 535.8470703125 547.13359375 532.65 548.95 529.3447265625 550.8583984375 525.75 552.05 519.33203125 554.25 512 554.25 511.0947265625 554.25 510.2 554.2 507.446484375 554.115625 504.8 553.7 491.8740234375 551.6240234375 482.1 541.85 476.465234375 536.215234375 473.4 529.5 471.5853515625 525.5171875 470.65 521.15 469.75 516.771875 469.75 512 469.75 510.020703125 469.9 508.1 470.417578125 501.923046875 472.55 496.4 475.6607421875 488.565234375 482.1 482.1 485.6818359375 478.5326171875 489.7 476 496.81796875 471.4859375 505.25 470.2 508.5435546875 469.75 512 469.75 Z"/>
</g>
</defs>

<g transform="matrix( 1, 0, 0, 1, 0,0) ">
<use xlink:href="#Layer3_0_FILL"/>
</g>

<g transform="matrix( 1, 0, 0, 1, 0,0) ">
<use xlink:href="#Layer2_0_FILL"/>
</g>

<g transform="matrix( 1, 0, 0, 1, 0,0) ">
<use xlink:href="#Layer1_0_FILL"/>
</g>

<g transform="matrix( 1, 0, 0, 1, 0,0) ">
<use xlink:href="#Layer0_0_FILL"/>
</g>
</svg>
