<?xml version="1.0" encoding="utf-8"?>
<!-- Generator: flash2svg, http://dissentgraphics.com/tools/flash2svg -->
<svg xmlns:xlink="http://www.w3.org/1999/xlink" id="Apps-Bioshock" image-rendering="optimizeSpeed" baseProfile="basic" version="1.1" style="background-color:#ffffff" x="0px" y="0px" width="1024px" height="1024px" viewBox="0 0 1024 1024" enable-background="new 0 0 1024 1024" xmlns="http://www.w3.org/2000/svg">
  <defs transform="matrix(1 0 0 1 0 0) "/>
  <g id="background-circle-shadow">
    <g id="shape">
      <path id="path" fill="#000000" fill-opacity="0.09803921568627451" d="M969.65,351.3 Q961.05,330.45 950.25,310.45 C946.2,302.9 941.9,295.4 937.35,288.05 917.8,256.35 893.95,226.4 865.8,198.25 773.65,106.1 662.35,60 532,60 401.65,60 290.4,106.1 198.25,198.25 106.1,290.4 60,401.65 60,532 60,662.35 106.1,773.65 198.25,865.8 290.4,957.95 401.65,1004 532,1004 662.35,1004 773.65,957.95 865.8,865.8 916.55,815 953.35,758.4 976.15,696.05 994.7,645.2 1004,590.55 1004,532 1004,487.1 998.55,444.45 987.6,404.05 986.35,399.5 985.05,394.95 983.7,390.45 979.6,377.15 974.9,364.1 969.65,351.3z"/>
    </g>
  </g>
  <g id="background-circle">
    <g id="shape2">
      <path id="path1" fill="#698769" fill-opacity="1" d="M845.85,178.3 C839.65,172.1 833.35,166.1 826.8,160.15 774.05,112.3 715.1,78.6 650,59.3 631.4,53.8 612.05,49.4 592.2,46.25 575.95,43.65 559.4,41.85 542.15,40.9 541.55,40.85 540.95,40.8 540.05,40.8 531.15,40.35 521.65,40.05 512.05,40.05 502.7,40.05 493.45,40.3 484.15,40.8 461.7,41.95 439.85,44.55 418.55,48.6 356.3,60.3 299.1,84.35 247.05,120.55 222.95,137.25 200.1,156.5 178.3,178.3 160.65,195.95 144.7,214.3 130.45,233.3 113.6,255.8 99.15,279.2 87.05,303.55 L87.05,303.525 Q40.05,398.06 40.05,512.05 C40.05,642.4 86.15,753.7 178.3,845.85 235,902.5 298.85,941.75 369.4,963.4 406.15,974.65 444.2,981.25 484.15,983.35 484.3,983.35 484.4,983.35 484.55,983.35 493.05,983.8 501.15,984.05 509.05,984.05 510.25,984.05 511.15,984.05 512.05,984.05 522.35,984.05 532.55,983.75 542.15,983.25 544.65,983.1 546.9,982.95 549.1,982.8 569.3,981.35 589,978.75 607.8,975.1 615.75,973.55 623.6,971.8 631.2,969.95 712,949.65 783.35,908.35 845.85,845.85 894.45,797.25 930.25,743.35 953.2,684.05 971.65,636.4 981.85,585.25 983.75,530.55 983.95,524.5 984.05,518.3 984.05,512.05 984.05,511.4 984.05,510.7 984.05,510.05 984.05,509.7 984.05,509.4 984.05,509.05 983.85,468.4 979.1,429.55 969.75,392.05 968.65,387.7 967.4,383.05 966.1,378.45 965.1,375.05 964.1,371.6 962.95,367.95 961.35,362.8 959.55,357.45 957.65,352.1 951.2,333.85 943.5,316.05 934.5,298.45 930.7,291.05 926.55,283.5 922.2,276.05 901.9,241.55 876.4,208.85 845.85,178.3z"/>
    </g>
  </g>
  <mask id="background-circle1">
    <g id="g">
      <g id="shape5">
        <path id="path2" fill="#FFFFFF" fill-opacity="1" d="M845.85,178.3 C839.65,172.1 833.35,166.1 826.8,160.15 774.05,112.3 715.1,78.6 650,59.3 631.4,53.8 612.05,49.4 592.2,46.25 575.95,43.65 559.4,41.85 542.15,40.9 541.55,40.85 540.95,40.8 540.05,40.8 531.15,40.35 521.65,40.05 512.05,40.05 502.7,40.05 493.45,40.3 484.15,40.8 461.7,41.95 439.85,44.55 418.55,48.6 356.3,60.3 299.1,84.35 247.05,120.55 222.95,137.25 200.1,156.5 178.3,178.3 160.65,195.95 144.7,214.3 130.45,233.3 113.6,255.8 99.15,279.2 87.05,303.55 L87.05,303.525 Q40.05,398.06 40.05,512.05 C40.05,642.4 86.15,753.7 178.3,845.85 235,902.5 298.85,941.75 369.4,963.4 406.15,974.65 444.2,981.25 484.15,983.35 484.3,983.35 484.4,983.35 484.55,983.35 493.05,983.8 501.15,984.05 509.05,984.05 510.25,984.05 511.15,984.05 512.05,984.05 522.35,984.05 532.55,983.75 542.15,983.25 544.65,983.1 546.9,982.95 549.1,982.8 569.3,981.35 589,978.75 607.8,975.1 615.75,973.55 623.6,971.8 631.2,969.95 712,949.65 783.35,908.35 845.85,845.85 894.45,797.25 930.25,743.35 953.2,684.05 971.65,636.4 981.85,585.25 983.75,530.55 983.95,524.5 984.05,518.3 984.05,512.05 984.05,511.4 984.05,510.7 984.05,510.05 984.05,509.7 984.05,509.4 984.05,509.05 983.85,468.4 979.1,429.55 969.75,392.05 968.65,387.7 967.4,383.05 966.1,378.45 965.1,375.05 964.1,371.6 962.95,367.95 961.35,362.8 959.55,357.45 957.65,352.1 951.2,333.85 943.5,316.05 934.5,298.45 930.7,291.05 926.55,283.5 922.2,276.05 901.9,241.55 876.4,208.85 845.85,178.3z"/>
      </g>
    </g>
  </mask>
  <g id="masked" mask="url(#background-circle1)">
    <g id="Symbole.__2015">
      <g id="shape4" transform="matrix(1 0 0 1 87 13)"/>
    </g>
  </g>
  <mask id="background-circle2">
    <g id="g1">
      <g id="shape7">
        <path id="path3" fill="#FFFFFF" fill-opacity="1" d="M969.75,392.05 C968.65,387.7 967.4,383.05 966.1,378.45 965.1,375.05 964.1,371.6 962.95,367.95 961.35,362.8 959.55,357.45 957.65,352.1 951.2,333.85 943.5,316.05 934.5,298.45 930.7,291.05 926.55,283.5 922.2,276.05 901.9,241.55 876.4,208.85 845.85,178.3 773.25,105.7 688.7,61.65 592.2,46.25 575.95,43.65 559.4,41.85 542.15,40.9 532.45,40.35 522.3,40.05 512.05,40.05 502.7,40.05 493.45,40.3 484.15,40.8 365.8,46.9 263.85,92.75 178.3,178.3 Q40.05,316.55 40.05,512.05 C40.05,642.4 86.15,753.7 178.3,845.85 235,902.5 298.85,941.75 369.4,963.4 406.15,974.65 444.2,981.25 484.15,983.35 484.3,983.35 484.4,983.35 484.55,983.35 493.05,983.8 501.15,984.05 509.05,984.05 510.25,984.05 511.15,984.05 512.05,984.05 522.35,984.05 532.55,983.75 542.15,983.25 544.65,983.1 546.9,982.95 549.1,982.8 569.3,981.35 589,978.75 607.8,975.1 615.75,973.55 623.6,971.8 631.2,969.95 712,949.65 783.35,908.35 845.85,845.85 894.45,797.25 930.25,743.35 953.2,684.05 971.65,636.4 981.85,585.25 983.75,530.55 983.95,524.5 984.05,518.3 984.05,512.05 984.05,511.4 984.05,510.7 984.05,510.05 984.05,509.7 984.05,509.4 984.05,509.05 983.85,468.4 979.1,429.55 969.75,392.05z"/>
      </g>
    </g>
  </mask>
  <g id="masked1" mask="url(#background-circle2)">
    <g id="Calque.__2017">
      <g id="Symbole.__2016_1" overflow="visible">
        <g id="Calque.__2032">
          <g id="Symbole.__2018_3" overflow="visible">
            <g id="Calque.__2033">
              <g id="shape123">
                <path id="path100" fill="#492B09" fill-opacity="1" d="M794.3,548.7 C786.25,538.85 782.85,527.6 784.1,515.05 785.35,502.45 790.9,492.1 800.7,484.05 810.55,475.95 821.75,472.55 834.35,473.8 937.75,480.25 1047.45,573.9 1163.4,754.75 1170.25,765.5 1172.35,777.05 1169.6,789.4 1166.85,801.75 1160.15,811.4 1149.45,818.25 1138.75,825.1 1127.2,827.2 1114.85,824.45 1102.5,821.7 1092.85,815.05 1085.95,804.4 991.2,656.55 904.3,576.9 825.3,565.35 812.75,564.05 802.4,558.5 794.3,548.7z M824.85,523.65 C826,525 827.45,525.8 829.2,526 918.7,535.35 1015.4,621.05 1119.25,783.05 1120.2,784.5 1121.55,785.45 1123.3,785.85 1125.05,786.2 1126.65,785.95 1128.15,785 1129.7,784.05 1130.65,782.7 1131,780.95 1131.35,779.2 1131.05,777.6 1130.1,776.1 1023.25,609.45 923.4,521.8 830.45,513.15 828.7,512.95 827.15,513.45 825.75,514.6 824.4,515.7 823.6,517.15 823.4,518.95 Q823.15,521.55 824.85,523.65z"/>
                <path id="path101" fill="#73470A" fill-opacity="1" d="M824.85,523.65 Q823.15,521.55 823.4,518.95 C823.6,517.15 824.4,515.7 825.75,514.6 827.15,513.45 828.7,512.95 830.45,513.15 923.4,521.8 1023.25,609.45 1130.1,776.1 1131.05,777.6 1131.35,779.2 1131,780.95 1130.65,782.7 1129.7,784.05 1128.15,785 1126.65,785.95 1125.05,786.2 1123.3,785.85 1121.55,785.45 1120.2,784.5 1119.25,783.05 1015.4,621.05 918.7,535.35 829.2,526 827.45,525.8 826,525 824.85,523.65z"/>
              </g>
            </g>
          </g>
          <g id="Symbole.__2018_4" overflow="visible">
            <g id="Calque.__2034">
              <g id="shape124">
                <path id="path102" fill="#492B09" fill-opacity="1" d="M229.9,548.7 C237.95,538.85 241.35,527.6 240.1,515.05 238.85,502.45 233.3,492.1 223.5,484.05 213.65,475.95 202.45,472.55 189.85,473.8 86.45,480.25 -23.25,573.9 -139.2,754.75 -146.05,765.5 -148.15,777.05 -145.4,789.4 -142.65,801.75 -135.95,811.4 -125.25,818.25 -114.55,825.1 -103,827.2 -90.65,824.45 -78.3,821.7 -68.65,815.05 -61.75,804.4 33,656.55 119.9,576.9 198.9,565.35 211.45,564.05 221.8,558.5 229.9,548.7z M199.35,523.65 C198.2,525 196.75,525.8 195,526 105.5,535.35 8.8,621.05 -95.05,783.05 -96,784.5 -97.35,785.45 -99.1,785.85 -100.85,786.2 -102.45,785.95 -103.95,785 -105.5,784.05 -106.45,782.7 -106.8,780.95 -107.15,779.2 -106.85,777.6 -105.9,776.1 0.95,609.45 100.8,521.8 193.75,513.15 195.5,512.95 197.05,513.45 198.45,514.6 199.8,515.7 200.6,517.15 200.8,518.95 Q201.05,521.55 199.35,523.65z"/>
                <path id="path103" fill="#73470A" fill-opacity="1" d="M199.35,523.65 Q201.05,521.55 200.8,518.95 C200.6,517.15 199.8,515.7 198.45,514.6 197.05,513.45 195.5,512.95 193.75,513.15 100.8,521.8 0.95,609.45 -105.9,776.1 -106.85,777.6 -107.15,779.2 -106.8,780.95 -106.45,782.7 -105.5,784.05 -103.95,785 -102.45,785.95 -100.85,786.2 -99.1,785.85 -97.35,785.45 -96,784.5 -95.05,783.05 8.8,621.05 105.5,535.35 195,526 196.75,525.8 198.2,525 199.35,523.65z"/>
              </g>
            </g>
          </g>
        </g>
      </g>
    </g>
  </g>
  <g id="Calque.__2018">
    <g id="shape9">
      <path id="path4" fill="#2B1906" fill-opacity="1" d="M513.15,444.55 C513.15,439 511.2,434.3 507.3,430.4 503.4,426.5 498.7,424.55 493.15,424.55 L474.15,424.55 C468.6,424.55 463.9,426.5 460,430.4 456.1,434.3 454.15,439 454.15,444.55 L454.15,547.55 C454.15,553.1 456.1,557.8 460,561.7 463.9,565.6 468.6,567.55 474.15,567.55 L493.15,567.55 C498.7,567.55 503.4,565.6 507.3,561.7 511.2,557.8 513.15,553.1 513.15,547.55 L513.15,444.55z M825.2,456 Q819.35,450.15 811.05,450.15 L792.05,450.15 C786.5,450.15 781.8,452.1 777.9,456 774,459.9 772.05,464.6 772.05,470.15 L772.05,573.15 C772.05,578.7 774,583.4 777.9,587.3 781.8,591.2 786.5,593.15 792.05,593.15 L811.05,593.15 C816.6,593.15 821.3,591.2 825.2,587.3 829.1,583.4 831.05,578.7 831.05,573.15 L831.05,470.15 C831.05,464.6 829.1,459.9 825.2,456z M252.75,470.15 C252.75,464.6 250.8,459.9 246.9,456 243,452.1 238.3,450.15 232.75,450.15 L213.75,450.15 C208.2,450.15 203.5,452.1 199.6,456 195.7,459.9 193.75,464.6 193.75,470.15 L193.75,573.15 C193.75,578.7 195.7,583.4 199.6,587.3 203.5,591.2 208.2,593.15 213.75,593.15 L232.75,593.15 C238.3,593.15 243,591.2 246.9,587.3 250.8,583.4 252.75,578.7 252.75,573.15 L252.75,470.15z"/>
    </g>
  </g>
  <mask id="background-circle3">
    <g id="g2">
      <g id="shape17">
        <path id="path10" fill="#FFFFFF" fill-opacity="1" d="M969.75,392.05 C968.65,387.7 967.4,383.05 966.1,378.45 965.1,375.05 964.1,371.6 962.95,367.95 961.35,362.8 959.55,357.45 957.65,352.1 951.2,333.85 943.5,316.05 934.5,298.45 930.7,291.05 926.55,283.5 922.2,276.05 901.9,241.55 876.4,208.85 845.85,178.3 773.25,105.7 688.7,61.65 592.2,46.25 575.95,43.65 559.4,41.85 542.15,40.9 532.45,40.35 522.3,40.05 512.05,40.05 502.7,40.05 493.45,40.3 484.15,40.8 365.8,46.9 263.85,92.75 178.3,178.3 Q40.05,316.55 40.05,512.05 C40.05,642.4 86.15,753.7 178.3,845.85 235,902.5 298.85,941.75 369.4,963.4 406.15,974.65 444.2,981.25 484.15,983.35 484.3,983.35 484.4,983.35 484.55,983.35 493.05,983.8 501.15,984.05 509.05,984.05 510.25,984.05 511.15,984.05 512.05,984.05 522.35,984.05 532.55,983.75 542.15,983.25 544.65,983.1 546.9,982.95 549.1,982.8 569.3,981.35 589,978.75 607.8,975.1 615.75,973.55 623.6,971.8 631.2,969.95 712,949.65 783.35,908.35 845.85,845.85 894.45,797.25 930.25,743.35 953.2,684.05 971.65,636.4 981.85,585.25 983.75,530.55 983.95,524.5 984.05,518.3 984.05,512.05 984.05,511.4 984.05,510.7 984.05,510.05 984.05,509.7 984.05,509.4 984.05,509.05 983.85,468.4 979.1,429.55 969.75,392.05z"/>
      </g>
    </g>
  </mask>
  <g id="masked2" mask="url(#background-circle3)">
    <g id="object">
      <g id="shape15">
        <path id="path9" fill="#472B10" fill-opacity="1" d="M800.5,512.05 C800.5,511.7 800.5,511.4 800.5,511.05 800.25,431.8 772.1,364.15 716,308.05 659.7,251.75 591.7,223.6 512.05,223.6 432.4,223.6 364.4,251.75 308.05,308.05 251.75,364.4 223.6,432.4 223.6,512.05 L223.6,921.05 256.05,966.65 603.05,1015.05 800.25,921.3 800.25,524.925 Q800.5,518.545 800.5,512.05z"/>
      </g>
    </g>
  </g>
  <mask id="object-shadow">
    <g id="g3">
      <g id="shape20">
        <path id="path11" fill="#FFFFFF" fill-opacity="1" d="M969.75,392.05 C968.65,387.7 967.4,383.05 966.1,378.45 965.1,375.05 964.1,371.6 962.95,367.95 961.35,362.8 959.55,357.45 957.65,352.1 951.2,333.85 943.5,316.05 934.5,298.45 930.7,291.05 926.55,283.5 922.2,276.05 901.9,241.55 876.4,208.85 845.85,178.3 773.25,105.7 688.7,61.65 592.2,46.25 575.95,43.65 559.4,41.85 542.15,40.9 532.45,40.35 522.3,40.05 512.05,40.05 502.7,40.05 493.45,40.3 484.15,40.8 365.8,46.9 263.85,92.75 178.3,178.3 Q40.05,316.55 40.05,512.05 C40.05,642.4 86.15,753.7 178.3,845.85 235,902.5 298.85,941.75 369.4,963.4 406.15,974.65 444.2,981.25 484.15,983.35 484.3,983.35 484.4,983.35 484.55,983.35 493.05,983.8 501.15,984.05 509.05,984.05 510.25,984.05 511.15,984.05 512.05,984.05 522.35,984.05 532.55,983.75 542.15,983.25 544.65,983.1 546.9,982.95 549.1,982.8 569.3,981.35 589,978.75 607.8,975.1 615.75,973.55 623.6,971.8 631.2,969.95 712,949.65 783.35,908.35 845.85,845.85 894.45,797.25 930.25,743.35 953.2,684.05 971.65,636.4 981.85,585.25 983.75,530.55 983.95,524.5 984.05,518.3 984.05,512.05 984.05,511.4 984.05,510.7 984.05,510.05 984.05,509.7 984.05,509.4 984.05,509.05 983.85,468.4 979.1,429.55 969.75,392.05z"/>
      </g>
    </g>
  </mask>
  <g id="masked3" mask="url(#object-shadow)">
    <g id="Calque.__2019">
      <g id="shape19" transform="matrix(1 0 0 1 511 205.05)"/>
    </g>
  </g>
  <g id="object-shadow1">
    <g id="shape22">
      <path id="path12" fill="#321D09" fill-opacity="1" d="M723.9,505.35 Q723.9,505.3 723.9,505.25 C724.45,461.8 702.85,424.85 659.15,394.4 618.55,365.9 569.55,351.65 512.1,351.7 454.6,351.65 405.55,365.9 365,394.4 L365.05,394.4 C321.3,424.85 299.75,461.8 300.3,505.25 300.25,505.3 300.25,505.3 300.3,505.35 299.75,548.8 321.3,585.75 365.05,616.2 L365,616.2 C405.55,644.7 454.6,658.95 512.1,658.95 569.55,658.95 618.55,644.7 659.15,616.2 702.85,585.75 724.45,548.8 723.9,505.35z M684.05,505.4 C683.4,535.75 667.55,561.8 636.4,583.5 602.05,607.25 560.6,619.1 512.1,619.1 463.55,619.1 422.15,607.25 387.8,583.5 356.65,561.8 340.75,535.75 340.15,505.4 340.15,505.35 340.15,505.3 340.15,505.25 340.75,474.85 356.65,448.8 387.8,427.1 422.15,403.35 463.55,391.5 512.1,391.55 560.6,391.5 602.05,403.35 636.4,427.1 667.55,448.8 683.4,474.85 684.05,505.25 684,505.3 684,505.35 684.05,505.4z"/>
    </g>
  </g>
  <g id="Calque.__2020">
    <g id="shape27">
      <path id="path16" fill="#D8BF49" fill-opacity="1" d="M335.125,495.3 Q335.774,543.36 384.925,577.6 L384.95,577.6 C420.1,601.9 462.45,614.05 512.1,614.1 561.7,614.05 604.1,601.9 639.25,577.6 672,554.75 688.6,527.35 689.05,495.3 688.6,463.25 672,435.85 639.25,413 604.1,388.7 561.7,376.55 512.1,376.55 462.45,376.55 420.1,388.7 384.95,413 352.15,435.85 335.55,463.25 335.15,495.3"/>
    </g>
  </g>
  <g id="Calque.__2021">
    <g id="shape29">
      <path id="path17" fill="#F3D753" fill-opacity="1" d="M622.7,438 Q622.45,437.85 622.2,437.7 C591.7,416.9 555,406.5 512.05,406.5 469.1,406.5 432.4,416.9 401.95,437.65 378.7,453.85 366.4,473.05 365.15,495.25 366.4,517.45 378.7,536.65 401.95,552.85 432.4,573.6 469.1,584 512.05,584.05 555,584 591.7,573.6 622.2,552.85 622.4,552.7 622.6,552.55 622.85,552.4 645.6,536.25 657.65,517.2 659,495.25 657.65,473.2 645.55,454.15 622.7,438z"/>
    </g>
  </g>
  <g id="Calque.__2022">
    <g id="shape31">
      <path id="path18" fill="#472B10" fill-opacity="1" d="M420.5,369.95 Q416.127,374.32 416.125,380.5 L416.125,608.8 L416.15,608.8 C416.15,612.95 417.6,616.45 420.5,619.35 423.4,622.25 426.9,623.7 431.05,623.75 435.2,623.7 438.7,622.25 441.6,619.35 444.5,616.45 445.95,612.95 446,608.8 L445.975,608.8 L445.975,380.5 L446,380.5 C445.95,376.35 444.5,372.85 441.6,369.95 438.7,367.05 435.2,365.6 431.05,365.6 426.9,365.6 423.4,367.05 420.5,369.95z M582.5,366.25 C579.6,369.15 578.15,372.65 578.15,376.8 L578.125,376.8 L578.125,614.05 L578.15,614.05 C578.15,618.2 579.6,621.7 582.5,624.6 585.4,627.5 588.9,628.95 593.05,629 597.2,628.95 600.7,627.5 603.6,624.6 606.5,621.7 607.95,618.2 608,614.05 L607.975,614.05 L607.975,376.8 L608,376.8 C607.95,372.65 606.5,369.15 603.6,366.25 600.7,363.35 597.2,361.9 593.05,361.9 588.9,361.9 585.4,363.35 582.5,366.25z"/>
    </g>
  </g>
  <g id="object-shadow2">
    <g id="shape35">
      <path id="path21" fill="#70471E" fill-opacity="1" d="M656.275,602.1 Q719.529,558.037 718.875,495.3 L718.9,495.3 C719.35,453.45 698.45,417.85 656.3,388.5 616.5,360.6 568.45,346.65 512.1,346.7 455.75,346.65 407.65,360.6 367.9,388.5 325.7,417.85 304.85,453.45 305.3,495.3 304.85,537.15 325.7,572.75 367.9,602.1 407.65,630 455.75,643.95 512.1,643.95 568.45,643.95 616.5,630 656.3,602.1 M335.15,495.3 C335.55,463.25 352.15,435.85 384.95,413 420.1,388.7 462.45,376.55 512.1,376.55 561.7,376.55 604.1,388.7 639.25,413 672,435.85 688.6,463.25 689.05,495.3 688.6,527.35 672,554.75 639.25,577.6 604.1,601.9 561.7,614.05 512.1,614.1 462.45,614.05 420.1,601.9 384.95,577.6 352.15,554.75 335.55,527.35 335.15,495.3z"/>
    </g>
  </g>
  <g id="Calque.__2023">
    <g id="shape40">
      <path id="path25" fill="#714719" fill-opacity="1" d="M277.3,577.5 C270.15,577.5 264,580 258.95,585.05 253.9,590.1 251.4,596.25 251.4,603.4 251.4,610.55 253.9,616.7 258.95,621.75 264,626.8 270.15,629.35 277.3,629.35 284.45,629.3 290.55,626.8 295.6,621.75 L295.65,621.7 C300.7,616.65 303.2,610.55 303.25,603.4 303.25,596.25 300.7,590.1 295.65,585.05 290.6,580 284.45,577.5 277.3,577.5z M277.3,589.85 C281.05,589.8 284.25,591.15 286.9,593.8 289.55,596.45 290.85,599.65 290.9,603.4 290.9,607.15 289.55,610.35 286.9,613 284.25,615.65 281.05,617 277.3,617 273.55,616.95 270.35,615.65 267.7,613 265.05,610.35 263.7,607.15 263.75,603.4 263.7,599.65 265,596.45 267.65,593.8 L267.7,593.75 C270.35,591.1 273.55,589.8 277.3,589.85z M349.65,649.2 C342.5,649.2 336.35,651.7 331.3,656.75 326.25,661.8 323.75,667.95 323.75,675.1 323.75,682.25 326.25,688.4 331.3,693.45 336.35,698.5 342.5,701.05 349.65,701.05 356.8,701 362.9,698.5 367.95,693.45 L368,693.4 C373.05,688.35 375.55,682.25 375.6,675.1 375.6,667.95 373.05,661.8 368,656.75 362.95,651.7 356.8,649.2 349.65,649.2z M359.25,665.5 C361.9,668.15 363.2,671.35 363.25,675.1 363.25,678.85 361.9,682.05 359.25,684.7 356.6,687.35 353.4,688.7 349.65,688.7 345.9,688.65 342.7,687.35 340.05,684.7 337.4,682.05 336.05,678.85 336.1,675.1 336.05,671.35 337.35,668.15 340,665.5 L340.05,665.45 C342.7,662.8 345.9,661.5 349.65,661.55 353.4,661.5 356.6,662.85 359.25,665.5z M444.2,732.45 C439.15,727.4 433,724.9 425.85,724.9 418.7,724.9 412.55,727.4 407.5,732.45 402.45,737.5 399.95,743.65 399.95,750.8 399.95,757.95 402.45,764.1 407.5,769.15 412.55,774.2 418.7,776.75 425.85,776.75 433,776.7 439.1,774.2 444.15,769.15 L444.2,769.1 C449.25,764.05 451.75,757.95 451.8,750.8 451.8,743.65 449.25,737.5 444.2,732.45z M435.45,741.2 C438.1,743.85 439.4,747.05 439.45,750.8 439.45,754.55 438.1,757.75 435.45,760.4 432.8,763.05 429.6,764.4 425.85,764.4 422.1,764.35 418.9,763.05 416.25,760.4 413.6,757.75 412.25,754.55 412.3,750.8 412.25,747.05 413.55,743.85 416.2,741.2 L416.25,741.15 C418.9,738.5 422.1,737.2 425.85,737.25 429.6,737.2 432.8,738.55 435.45,741.2z M765.15,585.05 C760.1,580 753.95,577.5 746.8,577.5 739.65,577.5 733.5,580 728.45,585.05 723.4,590.1 720.85,596.25 720.85,603.4 720.9,610.55 723.4,616.65 728.45,621.7 L728.5,621.75 C733.55,626.8 739.65,629.3 746.8,629.35 753.95,629.35 760.1,626.8 765.15,621.75 770.2,616.7 772.7,610.55 772.7,603.4 772.7,596.25 770.2,590.1 765.15,585.05z M756.4,593.75 L756.45,593.8 C759.1,596.45 760.4,599.65 760.35,603.4 760.4,607.15 759.05,610.35 756.4,613 753.75,615.65 750.55,616.95 746.8,617 743.05,617 739.85,615.65 737.2,613 734.55,610.35 733.2,607.15 733.2,603.4 733.25,599.65 734.55,596.45 737.2,593.8 739.85,591.15 743.05,589.8 746.8,589.85 750.55,589.8 753.75,591.1 756.4,593.75z M656.1,656.75 C651.05,661.8 648.5,667.95 648.5,675.1 648.55,682.25 651.05,688.35 656.1,693.4 L656.15,693.45 C661.2,698.5 667.3,701 674.45,701.05 681.6,701.05 687.75,698.5 692.8,693.45 697.85,688.4 700.35,682.25 700.35,675.1 700.35,667.95 697.85,661.8 692.8,656.75 687.75,651.7 681.6,649.2 674.45,649.2 667.3,649.2 661.15,651.7 656.1,656.75z M684.1,665.5 C686.75,668.15 688.05,671.35 688,675.1 688.05,678.85 686.7,682.05 684.05,684.7 681.4,687.35 678.2,688.65 674.45,688.7 670.7,688.7 667.5,687.35 664.85,684.7 662.2,682.05 660.85,678.85 660.85,675.1 660.9,671.35 662.2,668.15 664.85,665.5 667.5,662.85 670.7,661.5 674.45,661.55 678.2,661.5 681.4,662.8 684.05,665.45 L684.1,665.5z M598.25,724.9 C591.1,724.9 584.95,727.4 579.9,732.45 574.85,737.5 572.3,743.65 572.3,750.8 572.35,757.95 574.85,764.05 579.9,769.1 L579.95,769.15 C585,774.2 591.1,776.7 598.25,776.75 605.4,776.75 611.55,774.2 616.6,769.15 621.65,764.1 624.15,757.95 624.15,750.8 624.15,743.65 621.65,737.5 616.6,732.45 611.55,727.4 605.4,724.9 598.25,724.9z M607.9,741.2 C610.55,743.85 611.85,747.05 611.8,750.8 611.85,754.55 610.5,757.75 607.85,760.4 605.2,763.05 602,764.35 598.25,764.4 594.5,764.4 591.3,763.05 588.65,760.4 586,757.75 584.65,754.55 584.65,750.8 584.7,747.05 586,743.85 588.65,741.2 591.3,738.55 594.5,737.2 598.25,737.25 602,737.2 605.2,738.5 607.85,741.15 L607.9,741.2z M671.4,321.35 Q663.8,313.8 653.05,313.8 C645.9,313.8 639.75,316.3 634.7,321.35 629.65,326.4 627.15,332.55 627.15,339.7 627.15,346.85 629.65,353 634.7,358.05 639.75,363.1 645.9,365.65 653.05,365.65 660.2,365.6 666.3,363.1 671.35,358.05 L671.4,358 C676.45,352.95 678.95,346.85 679,339.7 679,332.55 676.45,326.4 671.4,321.35z M662.65,330.1 C665.3,332.75 666.6,335.95 666.65,339.7 666.65,343.45 665.3,346.65 662.65,349.3 660,351.95 656.8,353.3 653.05,353.3 649.3,353.25 646.1,351.95 643.45,349.3 640.8,346.65 639.45,343.45 639.5,339.7 639.45,335.95 640.75,332.75 643.4,330.1 L643.45,330.05 C646.1,327.4 649.3,326.1 653.05,326.15 656.8,326.1 660,327.45 662.65,330.1z M389.4,321.35 C384.35,316.3 378.2,313.8 371.05,313.8 363.9,313.8 357.75,316.3 352.7,321.35 347.65,326.4 345.15,332.55 345.15,339.7 345.15,346.85 347.65,353 352.7,358.05 357.75,363.1 363.9,365.65 371.05,365.65 378.2,365.6 384.3,363.1 389.35,358.05 L389.4,358 C394.45,352.95 396.95,346.85 397,339.7 397,332.55 394.45,326.4 389.4,321.35z M380.65,330.1 C383.3,332.75 384.6,335.95 384.65,339.7 384.65,343.45 383.3,346.65 380.65,349.3 378,351.95 374.8,353.3 371.05,353.3 367.3,353.25 364.1,351.95 361.45,349.3 358.8,346.65 357.45,343.45 357.5,339.7 357.45,335.95 358.75,332.75 361.4,330.1 L361.45,330.05 C364.1,327.4 367.3,326.1 371.05,326.15 374.8,326.1 378,327.45 380.65,330.1z"/>
      <path id="path26" fill="#2A1907" fill-opacity="1" d="M277.3,589.85 C273.55,589.8 270.35,591.1 267.7,593.75 L267.65,593.8 C265,596.45 263.7,599.65 263.75,603.4 263.7,607.15 265.05,610.35 267.7,613 270.35,615.65 273.55,616.95 277.3,617 281.05,617 284.25,615.65 286.9,613 289.55,610.35 290.9,607.15 290.9,603.4 290.85,599.65 289.55,596.45 286.9,593.8 284.25,591.15 281.05,589.8 277.3,589.85z"/>
      <path id="path31" fill="#2A1907" fill-opacity="1" d="M359.25,665.5 C356.6,662.85 353.4,661.5 349.65,661.55 345.9,661.5 342.7,662.8 340.05,665.45 L340,665.5 C337.35,668.15 336.05,671.35 336.1,675.1 336.05,678.85 337.4,682.05 340.05,684.7 342.7,687.35 345.9,688.65 349.65,688.7 353.4,688.7 356.6,687.35 359.25,684.7 361.9,682.05 363.25,678.85 363.25,675.1 363.2,671.35 361.9,668.15 359.25,665.5z"/>
      <path id="path36" fill="#2A1907" fill-opacity="1" d="M435.45,741.2 C432.8,738.55 429.6,737.2 425.85,737.25 422.1,737.2 418.9,738.5 416.25,741.15 L416.2,741.2 C413.55,743.85 412.25,747.05 412.3,750.8 412.25,754.55 413.6,757.75 416.25,760.4 418.9,763.05 422.1,764.35 425.85,764.4 429.6,764.4 432.8,763.05 435.45,760.4 438.1,757.75 439.45,754.55 439.45,750.8 439.4,747.05 438.1,743.85 435.45,741.2z"/>
      <path id="path41" fill="#2A1907" fill-opacity="1" d="M756.4,593.75 C753.75,591.1 750.55,589.8 746.8,589.85 743.05,589.8 739.85,591.15 737.2,593.8 734.55,596.45 733.25,599.65 733.2,603.4 733.2,607.15 734.55,610.35 737.2,613 739.85,615.65 743.05,617 746.8,617 750.55,616.95 753.75,615.65 756.4,613 759.05,610.35 760.4,607.15 760.35,603.4 760.4,599.65 759.1,596.45 756.45,593.8 L756.4,593.75z"/>
      <path id="path46" fill="#2A1907" fill-opacity="1" d="M684.1,665.5 L684.05,665.45 C681.4,662.8 678.2,661.5 674.45,661.55 670.7,661.5 667.5,662.85 664.85,665.5 662.2,668.15 660.9,671.35 660.85,675.1 660.85,678.85 662.2,682.05 664.85,684.7 667.5,687.35 670.7,688.7 674.45,688.7 678.2,688.65 681.4,687.35 684.05,684.7 686.7,682.05 688.05,678.85 688,675.1 688.05,671.35 686.75,668.15 684.1,665.5z"/>
      <path id="path51" fill="#2A1907" fill-opacity="1" d="M607.9,741.2 L607.85,741.15 C605.2,738.5 602,737.2 598.25,737.25 594.5,737.2 591.3,738.55 588.65,741.2 586,743.85 584.7,747.05 584.65,750.8 584.65,754.55 586,757.75 588.65,760.4 591.3,763.05 594.5,764.4 598.25,764.4 602,764.35 605.2,763.05 607.85,760.4 610.5,757.75 611.85,754.55 611.8,750.8 611.85,747.05 610.55,743.85 607.9,741.2z"/>
      <path id="path56" fill="#2A1907" fill-opacity="1" d="M662.65,330.1 C660,327.45 656.8,326.1 653.05,326.15 649.3,326.1 646.1,327.4 643.45,330.05 L643.4,330.1 C640.75,332.75 639.45,335.95 639.5,339.7 639.45,343.45 640.8,346.65 643.45,349.3 646.1,351.95 649.3,353.25 653.05,353.3 656.8,353.3 660,351.95 662.65,349.3 665.3,346.65 666.65,343.45 666.65,339.7 666.6,335.95 665.3,332.75 662.65,330.1z"/>
      <path id="path61" fill="#2A1907" fill-opacity="1" d="M380.65,330.1 C378,327.45 374.8,326.1 371.05,326.15 367.3,326.1 364.1,327.4 361.45,330.05 L361.4,330.1 C358.75,332.75 357.45,335.95 357.5,339.7 357.45,343.45 358.8,346.65 361.45,349.3 364.1,351.95 367.3,353.25 371.05,353.3 374.8,353.3 378,351.95 380.65,349.3 383.3,346.65 384.65,343.45 384.65,339.7 384.6,335.95 383.3,332.75 380.65,330.1z"/>
    </g>
  </g>
  <g id="Calque.__2024">
    <g id="shape80">
      <path id="path64" fill="#2B1906" fill-opacity="1" d="M572.05,191.3 C572.05,177.95 565.4,171.3 552.05,171.3 L472.05,171.3 C458.7,171.3 452.05,177.95 452.05,191.3 L452.05,258.3 Q452.05,278.3 472.05,278.3 L552.05,278.3 C565.4,278.3 572.05,271.65 572.05,258.3 L572.05,191.3z"/>
    </g>
  </g>
  <g id="Calque.__2025">
    <g id="shape82">
      <path id="path65" fill="#7D9D7E" fill-opacity="1" d="M553.2,231.2 Q553.2,216.7 542.95,206.45 C536.1,199.6 527.85,196.2 518.2,196.2 508.55,196.2 500.3,199.6 493.45,206.45 486.6,213.3 483.2,221.55 483.2,231.2 483.2,240.85 486.6,249.1 493.45,255.95 500.3,262.8 508.55,266.2 518.2,266.2 527.85,266.2 536.1,262.8 542.95,255.95 549.8,249.1 553.2,240.85 553.2,231.2z"/>
      <path id="path66" fill="none" stroke="#724713" stroke-opacity="1" stroke-width="12.35" stroke-linecap="round" stroke-linejoin="round" d="M553.2,231.2 Q553.2,216.7 542.95,206.45 C536.1,199.6 527.85,196.2 518.2,196.2 508.55,196.2 500.3,199.6 493.45,206.45 486.6,213.3 483.2,221.55 483.2,231.2 483.2,240.85 486.6,249.1 493.45,255.95 500.3,262.8 508.55,266.2 518.2,266.2 527.85,266.2 536.1,262.8 542.95,255.95 549.8,249.1 553.2,240.85 553.2,231.2z"/>
    </g>
  </g>
  <mask id="background-circle4">
    <g id="g4">
      <g id="shape93">
        <path id="path73" fill="#FFFFFF" fill-opacity="1" d="M969.75,392.05 C968.65,387.7 967.4,383.05 966.1,378.45 965.1,375.05 964.1,371.6 962.95,367.95 961.35,362.8 959.55,357.45 957.65,352.1 951.2,333.85 943.5,316.05 934.5,298.45 930.7,291.05 926.55,283.5 922.2,276.05 901.9,241.55 876.4,208.85 845.85,178.3 773.25,105.7 688.7,61.65 592.2,46.25 575.95,43.65 559.4,41.85 542.15,40.9 532.45,40.35 522.3,40.05 512.05,40.05 502.7,40.05 493.45,40.3 484.15,40.8 365.8,46.9 263.85,92.75 178.3,178.3 Q40.05,316.55 40.05,512.05 C40.05,642.4 86.15,753.7 178.3,845.85 235,902.5 298.85,941.75 369.4,963.4 406.15,974.65 444.2,981.25 484.15,983.35 484.3,983.35 484.4,983.35 484.55,983.35 493.05,983.8 501.15,984.05 509.05,984.05 510.25,984.05 511.15,984.05 512.05,984.05 522.35,984.05 532.55,983.75 542.15,983.25 544.65,983.1 546.9,982.95 549.1,982.8 569.3,981.35 589,978.75 607.8,975.1 615.75,973.55 623.6,971.8 631.2,969.95 712,949.65 783.35,908.35 845.85,845.85 894.45,797.25 930.25,743.35 953.2,684.05 971.65,636.4 981.85,585.25 983.75,530.55 983.95,524.5 984.05,518.3 984.05,512.05 984.05,511.4 984.05,510.7 984.05,510.05 984.05,509.7 984.05,509.4 984.05,509.05 983.85,468.4 979.1,429.55 969.75,392.05z"/>
      </g>
    </g>
  </mask>
  <g id="masked4" mask="url(#background-circle4)">
    <g id="Calque.__2026">
      <g id="shape84">
        <path id="path67" fill="#724713" fill-opacity="1" d="M812.3,623.1 L818.8,616.65 C820.55,614.85 821.45,612.7 821.45,610.15 821.45,607.6 820.55,605.45 818.8,603.7 817,601.9 814.85,601 812.3,601 809.75,601 807.6,601.9 805.85,603.7 L630.95,778.6 C622.2,787.25 613.8,797.4 605.85,809 577.8,849.85 562.4,898.4 559.65,954.55 L559.6,955.05 C559.3,961 559.15,967.1 559.15,973.25 559.15,979.6 559.3,985.9 559.6,992.05 L559.6,1130.25 C559.6,1132.8 560.5,1134.95 562.3,1136.75 564.05,1138.5 566.2,1139.4 568.75,1139.4 571.3,1139.4 573.45,1138.5 575.25,1136.75 577,1134.95 577.9,1132.8 577.9,1130.25 L577.9,991.95 C577.9,991.7 577.9,991.4 577.9,991.15 L577.9,955.5 C580.45,902.95 594.8,857.6 620.95,819.35 628.2,808.75 635.8,799.5 643.85,791.55 L643.9,791.55 812.3,623.1z M205.35,616.65 L211.8,623.1 380.25,791.55 380.3,791.55 C388.3,799.5 395.9,808.75 403.15,819.35 429.2,857.5 443.55,902.8 446.2,955.15 L446.2,991.15 C446.2,991.5 446.2,991.8 446.2,992.15 L446.2,1130.25 C446.2,1132.8 447.1,1134.95 448.9,1136.75 450.65,1138.5 452.8,1139.4 455.35,1139.4 457.9,1139.4 460.05,1138.5 461.85,1136.75 463.6,1134.95 464.5,1132.8 464.5,1130.25 L464.5,992.05 C464.8,985.9 464.95,979.6 464.95,973.25 464.95,967.1 464.8,961 464.5,955.05 L464.5,954.8 C461.75,898.55 446.35,849.95 418.25,809 410.3,797.4 401.95,787.25 393.2,778.6 L218.3,603.7 C216.5,601.9 214.35,601 211.8,601 209.25,601 207.1,601.9 205.35,603.7 203.55,605.45 202.65,607.6 202.65,610.15 202.65,612.7 203.55,614.85 205.35,616.65z"/>
        <path id="path68" fill="#482B0D" fill-opacity="1" d="M972.25,783.05 L812.3,623.1 643.9,791.55 643.85,791.55 C635.8,799.5 628.2,808.75 620.95,819.35 594.8,857.6 580.45,902.95 577.9,955.5 L577.9,991.15 C577.9,991.4 577.9,991.7 577.9,991.95 L577.9,1130.25 812.3,1130.25 812.3,911.625 972.25,783.05z M211.8,623.1 L52.35,782.55 211.8,916.75 211.8,1130.25 446.2,1130.25 446.2,992.15 C446.2,991.8 446.2,991.5 446.2,991.15 L446.2,955.15 C443.55,902.8 429.2,857.5 403.15,819.35 395.9,808.75 388.3,799.5 380.3,791.55 L380.25,791.55 211.8,623.1z"/>
      </g>
    </g>
  </g>
  <g id="Calque.__2027">
    <g id="shape95">
      <path id="path74" fill="#724713" fill-opacity="1" d="M726.25,751.5 C706.05,751.5 688.8,758.65 674.55,772.95 660.25,787.2 653.1,804.45 653.1,824.65 653.1,827.15 653.2,829.6 653.45,832 655,849.05 662,863.85 674.55,876.4 688.8,890.65 706.05,897.8 726.25,897.8 746.45,897.8 763.7,890.65 778,876.4 791.75,862.6 798.9,846.05 799.4,826.8 799.4,826.1 799.4,825.4 799.4,824.65 799.4,804.45 792.25,787.2 778,772.95 763.7,758.65 746.45,751.5 726.25,751.5z M726.25,769.8 C741.4,769.8 754.3,775.15 765.05,785.9 775.75,796.6 781.1,809.5 781.1,824.65 781.1,825.6 781.1,826.55 781.05,827.5 780.4,841.4 775.1,853.4 765.05,863.45 754.3,874.15 741.4,879.5 726.25,879.5 711.1,879.5 698.2,874.15 687.5,863.45 678.35,854.3 673.15,843.6 671.8,831.35 671.55,829.15 671.4,826.9 671.4,824.65 671.4,809.5 676.75,796.6 687.5,785.9 Q703.55,769.8 726.25,769.8z M297.55,751.5 C277.35,751.5 260.1,758.65 245.85,772.95 231.55,787.2 224.4,804.45 224.4,824.65 224.4,827.15 224.5,829.6 224.75,832 226.3,849.05 233.3,863.85 245.85,876.4 260.1,890.65 277.35,897.8 297.55,897.8 317.75,897.8 335,890.65 349.3,876.4 363.05,862.6 370.2,846.05 370.7,826.8 370.7,826.1 370.7,825.4 370.7,824.65 370.7,804.45 363.55,787.2 349.3,772.95 335,758.65 317.75,751.5 297.55,751.5z M297.55,769.8 C312.7,769.8 325.6,775.15 336.35,785.9 347.05,796.6 352.4,809.5 352.4,824.65 352.4,825.6 352.4,826.55 352.35,827.5 351.7,841.4 346.4,853.4 336.35,863.45 325.6,874.15 312.7,879.5 297.55,879.5 282.4,879.5 269.5,874.15 258.8,863.45 249.65,854.3 244.45,843.6 243.1,831.35 242.85,829.15 242.7,826.9 242.7,824.65 242.7,809.5 248.05,796.6 258.8,785.9 269.5,775.15 282.4,769.8 297.55,769.8z"/>
      <path id="path75" fill="#D9C03D" fill-opacity="1" d="M726.25,769.8 Q703.55,769.8 687.5,785.9 C676.75,796.6 671.4,809.5 671.4,824.65 671.4,826.9 671.55,829.15 671.8,831.35 673.15,843.6 678.35,854.3 687.5,863.45 698.2,874.15 711.1,879.5 726.25,879.5 741.4,879.5 754.3,874.15 765.05,863.45 775.1,853.4 780.4,841.4 781.05,827.5 781.1,826.55 781.1,825.6 781.1,824.65 781.1,809.5 775.75,796.6 765.05,785.9 754.3,775.15 741.4,769.8 726.25,769.8z M746.1,840.75 C739.85,847 732.35,850.15 723.5,850.15 714.65,850.15 707.1,847 700.85,840.75 694.6,834.5 691.5,827 691.5,818.15 691.5,809.3 694.6,801.75 700.85,795.5 707.1,789.25 714.65,786.15 723.5,786.15 732.35,786.15 739.85,789.25 746.1,795.5 752.35,801.75 755.5,809.3 755.5,818.15 755.5,827 752.35,834.5 746.1,840.75z"/>
      <path id="path78" fill="#F4D845" fill-opacity="1" d="M746.1,840.75 C752.35,834.5 755.5,827 755.5,818.15 755.5,809.3 752.35,801.75 746.1,795.5 739.85,789.25 732.35,786.15 723.5,786.15 714.65,786.15 707.1,789.25 700.85,795.5 694.6,801.75 691.5,809.3 691.5,818.15 691.5,827 694.6,834.5 700.85,840.75 707.1,847 714.65,850.15 723.5,850.15 732.35,850.15 739.85,847 746.1,840.75z"/>
      <path id="path81" fill="#321D06" fill-opacity="1" d="M799.7,834.15 C799.7,831.65 799.6,829.2 799.4,826.8 798.9,846.05 791.75,862.6 778,876.4 763.7,890.65 746.45,897.8 726.25,897.8 706.05,897.8 688.8,890.65 674.55,876.4 662,863.85 655,849.05 653.45,832 653.4,832.7 653.4,833.4 653.4,834.15 653.4,854.35 660.55,871.6 674.85,885.9 689.1,900.15 706.35,907.3 726.55,907.3 746.75,907.3 764,900.15 778.3,885.9 792.55,871.6 799.7,854.35 799.7,834.15z M371,834.15 C371,831.65 370.9,829.2 370.7,826.8 370.2,846.05 363.05,862.6 349.3,876.4 335,890.65 317.75,897.8 297.55,897.8 277.35,897.8 260.1,890.65 245.85,876.4 233.3,863.85 226.3,849.05 224.75,832 224.7,832.7 224.7,833.4 224.7,834.15 224.7,854.35 231.85,871.6 246.15,885.9 260.4,900.15 277.65,907.3 297.85,907.3 318.05,907.3 335.3,900.15 349.6,885.9 363.85,871.6 371,854.35 371,834.15z"/>
      <path id="path84" fill="#D9C03D" fill-opacity="1" d="M297.55,769.8 C282.4,769.8 269.5,775.15 258.8,785.9 248.05,796.6 242.7,809.5 242.7,824.65 242.7,826.9 242.85,829.15 243.1,831.35 244.45,843.6 249.65,854.3 258.8,863.45 269.5,874.15 282.4,879.5 297.55,879.5 312.7,879.5 325.6,874.15 336.35,863.45 346.4,853.4 351.7,841.4 352.35,827.5 352.4,826.55 352.4,825.6 352.4,824.65 352.4,809.5 347.05,796.6 336.35,785.9 325.6,775.15 312.7,769.8 297.55,769.8z M262.8,818.15 C262.8,809.3 265.9,801.75 272.15,795.5 278.4,789.25 285.95,786.15 294.8,786.15 303.65,786.15 311.15,789.25 317.4,795.5 323.65,801.75 326.8,809.3 326.8,818.15 326.8,827 323.65,834.5 317.4,840.75 311.15,847 303.65,850.15 294.8,850.15 285.95,850.15 278.4,847 272.15,840.75 265.9,834.5 262.8,827 262.8,818.15z"/>
      <path id="path87" fill="#F4D845" fill-opacity="1" d="M262.8,818.15 C262.8,827 265.9,834.5 272.15,840.75 278.4,847 285.95,850.15 294.8,850.15 303.65,850.15 311.15,847 317.4,840.75 323.65,834.5 326.8,827 326.8,818.15 326.8,809.3 323.65,801.75 317.4,795.5 311.15,789.25 303.65,786.15 294.8,786.15 285.95,786.15 278.4,789.25 272.15,795.5 265.9,801.75 262.8,809.3 262.8,818.15z"/>
    </g>
  </g>
</svg>