<?xml version="1.0" encoding="utf-8"?>
<!-- Generator: flash2svg, http://dissentgraphics.com/tools/flash2svg -->
<svg id="Apps-Photobulk" image-rendering="optimizeSpeed" baseProfile="basic" version="1.1" style="background-color:#FFFFFF" x="0px" y="0px" width="1024px" height="1024px" viewBox="0 0 1024 1024" enable-background="new 0 0 1024 1024" xmlns="http://www.w3.org/2000/svg" xmlns:xlink="http://www.w3.org/1999/xlink">
  <defs transform="matrix(1 0 0 1 0 0) "/>
  <g id="background-circle-shadow">
    <g id="shape">
      <path id="path" fill="#000000" fill-opacity="0.09803921568627451" d="M969.6,351.25 Q961,330.4 950.2,310.4 C946.15,302.85 941.85,295.35 937.3,288 917.75,256.3 893.9,226.35 865.75,198.2 773.6,106.05 662.3,59.95 531.95,59.95 401.6,59.95 290.35,106.05 198.2,198.2 106.05,290.35 59.95,401.6 59.95,531.95 59.95,662.3 106.05,773.6 198.2,865.75 290.35,957.9 401.6,1003.95 531.95,1003.95 662.3,1003.95 773.6,957.9 865.75,865.75 916.5,814.95 953.3,758.35 976.1,696 994.65,645.15 1003.95,590.5 1003.95,531.95 1003.95,487.05 998.5,444.4 987.55,404 986.3,399.45 985,394.9 983.65,390.4 979.55,377.1 974.85,364.05 969.6,351.25z"/>
    </g>
  </g>
  <g id="background-circle">
    <g id="shape2">
      <path id="path1" fill="#1F6A78" fill-opacity="1" d="M969.7,392 C968.6,387.65 967.35,383 966.05,378.4 965.05,375 964.05,371.55 962.9,367.9 961.3,362.75 959.5,357.4 957.6,352.05 951.15,333.8 943.45,316 934.45,298.4 930.65,291 926.5,283.45 922.15,276 901.85,241.5 876.35,208.8 845.8,178.25 773.2,105.65 688.65,61.6 592.15,46.2 575.9,43.6 559.35,41.8 542.1,40.85 532.4,40.3 522.25,40 512,40 502.65,40 493.4,40.25 484.1,40.75 365.75,46.85 263.8,92.7 178.25,178.25 Q40,316.5 40,512 C40,642.35 86.1,753.65 178.25,845.8 234.95,902.45 298.8,941.7 369.35,963.35 406.1,974.6 444.15,981.2 484.1,983.3 484.25,983.3 484.35,983.3 484.5,983.3 493,983.75 501.1,984 509,984 510.2,984 511.1,984 512,984 522.3,984 532.5,983.7 542.1,983.2 544.6,983.05 546.85,982.9 549.05,982.75 569.25,981.3 588.95,978.7 607.75,975.05 615.7,973.5 623.55,971.75 631.15,969.9 711.95,949.6 783.3,908.3 845.8,845.8 894.4,797.2 930.2,743.3 953.15,684 971.6,636.35 981.8,585.2 983.7,530.5 983.9,524.45 984,518.25 984,512 984,511.35 984,510.65 984,510 984,509.65 984,509.35 984,509 983.8,468.35 979.05,429.5 969.7,392z"/>
    </g>
  </g>
  <g id="object-shadow">
    <g id="shape4">
      <path id="path2" fill="#000000" fill-opacity="0.2" d="M953.15,684 C970.55,639 980.65,590.9 983.35,539.35 L983.325,539.325 L626,182 555,310.6 425.4,181 512,488.5 483.35,535.275 266,540 202,617 229,744.2 466.925,982.125 L466.95,982.15 C473.05,982.65 478.55,983 484.1,983.3 484.25,983.3 484.35,983.3 484.5,983.3 493,983.75 501.1,984 509,984 Q510.5,984 512,984 C522.3,984 532.5,983.7 542.1,983.2 544.6,983.05 546.85,982.9 549.05,982.75 569.25,981.3 588.95,978.7 607.75,975.05 615.7,973.5 623.55,971.75 631.15,969.9 711.95,949.6 783.3,908.3 845.8,845.8 894.4,797.2 930.2,743.3 953.15,684z"/>
    </g>
  </g>
  <g id="Calque.__202">
    <g id="shape6">
      <path id="path3" fill="#EDF0EF" fill-opacity="1" d="M602.55,173.8 C598,175.75 594.75,179.05 592.9,183.65 L475.5,474.85 C469.2,488.9 461.15,500.1 451.2,508.6 450.1,509.5 449,510.4 447.9,511.3 443.45,514.65 438.65,517.5 433.45,519.8 L472.7,578.3 500.575,563.975 479,542.4 553.875,494.05 626.3,197.1 C628.1,192.5 628.1,187.9 626.1,183.35 624.2,178.75 620.9,175.5 616.3,173.65 611.7,171.8 607.15,171.85 602.55,173.8z"/>
      <path id="path4" fill="#DACC20" fill-opacity="1" d="M258.6,523 C225.8,537 202.75,560.45 189.4,593.5 185.65,602.8 183,612.1 181.45,621.4 L181.4,621.45 C177.45,645.1 180.45,668.75 190.4,692.3 204.35,725.05 227.85,748.1 260.95,761.45 294,774.75 326.9,774.4 359.65,760.5 383.25,750.45 401.75,735.45 415.25,715.55 L415.3,715.6 C420.55,707.8 425.1,699.25 428.85,689.95 431.05,684.5 432.8,679.15 434.2,673.8 L472.7,578.3 433.45,519.8 C413.2,528.95 387.55,529.6 356.75,521.75 349.55,519.95 342.1,517.7 334.35,515 308.75,509.6 283.65,512.35 258.6,523z M222.8,606.95 Q237.2,571.2 272.7,556.1 C296.35,546.1 320.1,545.85 343.95,555.45 367.75,565.05 384.7,581.7 394.75,605.25 402.95,624.55 404.6,643.85 399.75,663.25 399.65,663.65 399.55,664.2 399.45,664.6 398.35,668.55 397.05,672.55 395.45,676.5 392.7,683.3 389.35,689.6 385.5,695.35 L385.5,695.3 C375.8,709.45 362.5,720.15 345.6,727.35 321.95,737.4 298.2,737.65 274.4,728.05 250.55,718.45 233.6,701.8 223.6,678.2 L223.55,678.2 C216.4,661.25 214.15,644.35 216.9,627.4 L216.95,627.45 C218.1,620.65 220.05,613.75 222.8,606.95z"/>
      <path id="path8" fill="#CECFCF" fill-opacity="1" d="M500.575,563.975 L534.9,546.3 C538.9,543.95 542.45,537.85 545.6,528 L553.875,494.05 479,542.4 500.575,563.975z"/>
    </g>
  </g>
  <g id="Calque.__203">
    <g id="shape14">
      <path id="path9" fill="#DACC20" fill-opacity="1" d="M685.55,515 C677.8,517.7 670.35,519.95 663.2,521.75 632.35,529.6 606.75,528.95 586.45,519.8 L547.25,578.3 585.7,673.8 C587.1,679.15 588.85,684.5 591.05,689.95 594.8,699.25 599.35,707.75 604.6,715.6 L604.65,715.55 C618.15,735.45 636.65,750.45 660.25,760.5 693,774.4 725.9,774.75 758.95,761.45 792.05,748.1 815.55,725.05 829.5,692.3 839.45,668.75 842.45,645.1 838.5,621.45 L838.45,621.4 C836.9,612.1 834.25,602.8 830.5,593.5 817.15,560.45 794.1,537 761.3,523 736.25,512.35 711.15,509.6 685.55,515z M747.2,556.1 Q782.7,571.2 797.1,606.95 C799.85,613.75 801.8,620.65 802.95,627.45 L803,627.35 C805.75,644.3 803.5,661.25 796.4,678.2 L796.35,678.2 C786.3,701.8 769.35,718.45 745.5,728.05 721.7,737.65 697.95,737.4 674.35,727.35 657.4,720.1 644.1,709.45 634.4,695.3 L634.4,695.35 C630.55,689.6 627.2,683.3 624.45,676.5 622.85,672.55 621.55,668.55 620.45,664.6 620.35,664.2 620.25,663.65 620.15,663.25 615.3,643.85 616.95,624.55 625.15,605.25 635.25,581.7 652.2,565.05 676,555.45 699.85,545.85 723.6,546.1 747.2,556.1z"/>
      <path id="path13" fill="#EDF0EF" fill-opacity="1" d="M393.8,183.35 C391.8,187.9 391.8,192.45 393.65,197.05 L474.3,528 C477.45,537.85 481,543.95 485,546.3 L547.25,578.3 586.45,519.8 C568.2,511.65 554.15,496.65 544.4,474.85 L427.05,183.6 C425.15,179.05 421.9,175.75 417.35,173.8 412.75,171.85 408.2,171.8 403.6,173.65 399,175.5 395.7,178.75 393.8,183.35z"/>
    </g>
  </g>
  <g id="object">
    <g id="shape21">
      <path id="path14" fill="#BABABA" fill-opacity="1" d="M535.5,512 Q535.5,502.25 528.6,495.35 C524.05,490.8 518.5,488.5 512,488.5 505.5,488.5 499.95,490.8 495.35,495.35 490.8,499.95 488.5,505.5 488.5,512 488.5,518.5 490.8,524.05 495.35,528.6 499.95,533.2 505.5,535.5 512,535.5 518.5,535.5 524.05,533.2 528.6,528.6 533.2,524.05 535.5,518.5 535.5,512z"/>
    </g>
  </g>
</svg>