<?xml version="1.0" encoding="utf-8"?>
<!-- Generator: flash2svg, http://dissentgraphics.com/tools/flash2svg -->
<svg xmlns:xlink="http://www.w3.org/1999/xlink" id="iWorks-Keynotes" image-rendering="optimizeSpeed" baseProfile="basic" version="1.1" style="background-color:#ffffff" x="0px" y="0px" width="1024px" height="1024px" viewBox="0 0 1024 1024" enable-background="new 0 0 1024 1024" xmlns="http://www.w3.org/2000/svg">
  <defs transform="matrix(1 0 0 1 0 0) "/>
  <g id="shadow">
    <g id="shape">
      <path id="path" fill="#000000" fill-opacity="0.09803921568627451" d="M969.65,351.3 Q961.05,330.45 950.25,310.45 C946.2,302.9 941.9,295.4 937.35,288.05 917.8,256.35 893.95,226.4 865.8,198.25 773.65,106.1 662.35,60 532,60 401.65,60 290.4,106.1 198.25,198.25 106.1,290.4 60,401.65 60,532 60,662.35 106.1,773.65 198.25,865.8 290.4,957.95 401.65,1004 532,1004 662.35,1004 773.65,957.95 865.8,865.8 916.55,815 953.35,758.4 976.15,696.05 994.7,645.2 1004,590.55 1004,532 1004,487.1 998.55,444.45 987.6,404.05 986.35,399.5 985.05,394.95 983.7,390.45 979.6,377.15 974.9,364.1 969.65,351.3z"/>
    </g>
  </g>
  <g id="bg">
    <g id="shape2">
      <path id="path1" fill="#FE9102" fill-opacity="1" d="M962.95,367.95 C961.35,362.8 959.55,357.45 957.65,352.1 951.2,333.85 943.5,316.05 934.5,298.45 930.7,291.05 926.55,283.5 922.2,276.05 901.9,241.55 876.4,208.85 845.85,178.3 773.25,105.7 688.7,61.65 592.2,46.25 575.95,43.65 559.4,41.85 542.15,40.9 532.45,40.35 522.3,40.05 512.05,40.05 502.7,40.05 493.45,40.3 484.15,40.8 372.05,46.6 274.6,88.05 192.05,165.05 187.35,169.4 182.8,173.8 178.3,178.3 Q40.05,316.55 40.05,512.05 C40.05,642.4 86.15,753.7 178.3,845.85 L178.275,845.825 L178.3,845.85 C235,902.5 298.85,941.75 369.4,963.4 406.15,974.65 444.2,981.25 484.15,983.35 484.3,983.35 484.4,983.35 484.55,983.35 493.05,983.8 501.15,984.05 509.05,984.05 510.25,984.05 511.15,984.05 512.05,984.05 522.35,984.05 532.55,983.75 542.15,983.25 544.65,983.1 546.9,982.95 549.1,982.8 569.3,981.35 589,978.75 607.8,975.1 615.75,973.55 623.6,971.8 631.2,969.95 643.05,967 654.7,963.55 666.2,959.7 732.7,937.1 792.5,899.2 845.85,845.85 877.3,814.4 903.45,780.7 924.1,744.8 935.4,725.2 945.1,704.95 953.2,684.05 962.45,660.2 969.6,635.45 974.75,609.8 979.8,584.3 982.8,557.85 983.75,530.55 983.95,524.5 984.05,518.3 984.05,512.05 984.05,511.4 984.05,510.7 984.05,510.05 984.05,509.7 984.05,509.4 984.05,509.05 983.85,468.4 979.1,429.55 969.75,392.05 968.65,387.7 967.4,383.05 966.1,378.45 965.1,375.05 964.1,371.6 962.95,367.95z"/>
    </g>
  </g>
  <g id="bg1">
    <g id="shape4">
      <path id="path2" fill="#000000" fill-opacity="0.2" d="M328.05,688.05 L260.625,766.525 477.025,982.925 L477.05,982.95 C479.65,983.1 481.9,983.25 484.15,983.35 484.3,983.35 484.4,983.35 484.55,983.35 493.05,983.8 501.15,984.05 509.05,984.05 Q510.55,984.05 512.05,984.05 C522.35,984.05 532.55,983.75 542.15,983.25 544.65,983.1 546.9,982.95 549.1,982.8 569.3,981.35 589,978.75 607.8,975.1 609.95,974.7 612.1,974.25 613.9,973.9 L613.875,973.875 L328.05,688.05z M924.1,744.8 C935.4,725.2 945.1,704.95 953.2,684.05 962.45,660.2 969.6,635.45 974.75,609.8 978.3,591.85 980.85,573.45 982.4,554.4 L742.85,314.85 346.05,674.05 639.725,967.725 L639.75,967.75 C648.85,965.25 657.55,962.6 666.2,959.7 732.7,937.1 792.5,899.2 845.85,845.85 877.3,814.4 903.45,780.7 924.1,744.8z"/>
    </g>
  </g>
  <g id="Calque.__205">
    <g id="Symbole.__2028_1" overflow="visible">
      <g id="Calque.__207">
        <g id="shape12">
          <path id="path8" fill="#FFFFFF" fill-opacity="1" d="M763.65,355 C770.7,347.95 770.35,340.5 762.55,332.7 L693.8,263.95 C686,256.15 678.55,255.8 671.5,262.85 L313.4,620.95 C306.35,628 306.7,635.45 314.5,643.25 L383.25,712 C391.05,719.8 398.5,720.15 405.55,713.1 L763.65,355z M295.3,671.05 C294.9,671.45 294.6,671.95 294.35,672.45 269.4,725.5 256.85,752.2 256.8,752.4 256.8,752.45 256.8,752.45 256.75,752.5 255.55,754.1 255.15,755.85 255.45,757.8 255.75,759.6 256.75,761.35 258.25,763.05 259.5,764.35 260.95,765.25 262.75,765.8 264.25,766.25 265.35,766.3 266,766.05 L353.8,732.25 Q354.7,731.85 355.4,731.15 C362.45,724.1 362.1,716.65 354.3,708.85 L317.6,672.15 C309.8,664.35 302.35,664 295.3,671.05z"/>
        </g>
      </g>
    </g>
  </g>
</svg>