<?xml version="1.0" encoding="utf-8"?>
<!-- Generator: flash2svg, http://dissentgraphics.com/tools/flash2svg -->
<svg id="Apps-GeekBench" image-rendering="optimizeSpeed" baseProfile="basic" version="1.1" style="background-color:#FFFFFF" x="0px" y="0px" width="1024px" height="1024px" viewBox="0 0 1024 1024" enable-background="new 0 0 1024 1024" xmlns="http://www.w3.org/2000/svg" xmlns:xlink="http://www.w3.org/1999/xlink">
  <defs transform="matrix(1 0 0 1 0 0) "/>
  <g id="shadow">
    <g id="shape">
      <path id="path" fill="#000000" fill-opacity="0.09803921568627451" d="M969.6,351.25 Q961,330.4 950.2,310.4 C946.15,302.85 941.85,295.35 937.3,288 917.75,256.3 893.9,226.35 865.75,198.2 773.6,106.05 662.3,59.95 531.95,59.95 401.6,59.95 290.35,106.05 198.2,198.2 106.05,290.35 59.95,401.6 59.95,531.95 59.95,662.3 106.05,773.6 198.2,865.75 290.35,957.9 401.6,1003.95 531.95,1003.95 662.3,1003.95 773.6,957.9 865.75,865.75 916.5,814.95 953.3,758.35 976.1,696 994.65,645.15 1003.95,590.5 1003.95,531.95 1003.95,487.05 998.5,444.4 987.55,404 986.3,399.45 985,394.9 983.65,390.4 979.55,377.1 974.85,364.05 969.6,351.25z"/>
    </g>
  </g>
  <g id="bg">
    <g id="shape2">
      <path id="path1" fill="#999999" fill-opacity="1" d="M929.8,289.6 C927.45,285.25 924.85,280.6 922.15,276 901.85,241.5 876.35,208.8 845.8,178.25 773.2,105.65 688.65,61.6 592.15,46.2 575.9,43.6 559.35,41.8 542.1,40.85 532.4,40.3 522.25,40 512,40 502.65,40 493.4,40.25 484.1,40.75 365.75,46.85 263.8,92.7 178.25,178.25 157.75,198.75 139.5,220.2 123.55,242.65 108.2,264.2 95,286.65 83.95,309.85 L83.925,309.825 Q40,401.823 40,512 C40,642.35 86.1,753.65 178.25,845.8 234.95,902.45 298.8,941.7 369.35,963.35 406.1,974.6 444.15,981.2 484.1,983.3 484.25,983.3 484.35,983.3 484.5,983.3 493,983.75 501.1,984 509,984 510.2,984 511.1,984 512,984 522.3,984 532.5,983.7 542.1,983.2 544.6,983.05 546.85,982.9 549.05,982.75 569.25,981.3 588.95,978.7 607.75,975.05 615.7,973.5 623.55,971.75 631.15,969.9 711.95,949.6 783.3,908.3 845.8,845.8 894.4,797.2 930.2,743.3 953.15,684 971.6,636.35 981.8,585.2 983.7,530.5 983.9,524.45 984,518.25 984,512 984,511.35 984,510.65 984,510 984,509.65 984,509.35 984,509 983.8,468.35 979.05,429.5 969.7,392 968.6,387.65 967.35,383 966.05,378.4 965.05,375 964.05,371.55 962.9,367.9 961.3,362.75 959.5,357.4 957.6,352.05 952.55,337.8 946.75,323.8 940.15,309.9 938.3,306.1 936.4,302.25 934.45,298.4 933,295.55 931.5,292.7 929.8,289.6z"/>
    </g>
  </g>
  <g id="bg1">
    <g id="shape4">
      <path id="path2" fill="#000000" fill-opacity="0.2" d="M962.9,367.9 C962.15,365.5 961.35,363.05 960.45,360.35 L810,209.9 346,502.8 170.725,557.825 164.15,744 206.35,786.2 210.65,811 362,961 C364.45,961.8 366.9,962.6 369.35,963.35 406.1,974.6 444.15,981.2 484.1,983.3 484.25,983.3 484.35,983.3 484.5,983.3 493,983.75 501.1,984 509,984 Q510.5,984 512,984 C522.3,984 532.5,983.7 542.1,983.2 544.6,983.05 546.85,982.9 549.05,982.75 569.25,981.3 588.95,978.7 607.75,975.05 615.7,973.5 623.55,971.75 631.15,969.9 711.95,949.6 783.3,908.3 845.8,845.8 894.4,797.2 930.2,743.3 953.15,684 971.6,636.35 981.8,585.2 983.7,530.5 983.9,524.45 984,518.25 984,512 984,511.35 984,510.65 984,510 984,509.65 984,509.35 984,509 983.8,468.35 979.05,429.5 969.7,392 968.6,387.65 967.35,383 966.05,378.4 965.05,375 964.05,371.55 962.9,367.9z"/>
    </g>
  </g>
  <g id="Calque.__202">
    <g id="shape6">
      <path id="path3" fill="#FFFFFF" fill-opacity="1" d="M817.85,228.65 Q817.85,206.15 795.35,206.15 L228.65,206.15 C213.65,206.15 206.15,213.65 206.15,228.65 L206.15,795.35 C206.15,810.35 213.65,817.85 228.65,817.85 L795.35,817.85 C810.35,817.85 817.85,810.35 817.85,795.35 L817.85,228.65z M788.85,788.85 L235.15,788.85 235.15,235.15 788.85,235.15 788.85,788.85z"/>
      <path id="path4" fill="#3B3E6B" fill-opacity="1" d="M788.85,788.85 L788.85,235.15 235.15,235.15 235.15,788.85 788.85,788.85z"/>
    </g>
  </g>
  <g id="Calque.__203">
    <g id="shape11">
      <path id="path7" fill="#86A8AC" fill-opacity="1" d="M762.95,324 L653.2,324 653.2,768 762.95,768 762.95,324z M501.55,324 L391.8,324 391.8,768 501.55,768 501.55,324z"/>
      <path id="path10" fill="#AED8A9" fill-opacity="1" d="M261.1,465 L261.1,768 370.85,768 370.85,465 261.1,465z M632.25,392 L522.5,392 522.5,768 632.25,768 632.25,392z"/>
    </g>
  </g>
  <g id="Calque.__204">
    <g id="shape18">
      <path id="path13" fill="#000000" fill-opacity="1" d="M902.95,546.9 C901.3,537.1 889.15,530.85 866.5,528.2 Q825.35,523.3 701.35,529.4 C668.45,531.05 638.95,532.95 612.9,535.1 586.25,537.25 570.1,539.15 564.55,540.75 564.5,540.75 564.45,540.75 564.4,540.8 554.15,542.8 546.9,545.45 542.65,548.8 537.15,552.8 533.9,558.85 532.95,567 519.65,585.95 505.7,585.95 491.05,567 490.1,558.85 486.85,552.8 481.35,548.8 477.1,545.45 469.85,542.8 459.6,540.8 459.55,540.75 459.5,540.75 459.45,540.75 453.9,539.15 437.75,537.25 411.1,535.1 385.05,532.95 355.55,531.05 322.65,529.4 240,525.35 184.95,524.95 157.5,528.2 134.85,530.85 122.7,537.1 121.05,546.9 117.1,555.55 122.55,565.7 137.3,577.45 130.9,627.1 133.25,671.5 144.3,710.75 144.3,710.8 144.35,710.9 144.4,711 144.45,711.25 144.55,711.55 144.7,711.8 L144.7,711.85 C158.25,745.35 180.4,764.2 211.25,768.4 266.6,776.4 320.4,779.4 372.7,777.4 399.2,776.4 425.3,774.1 451.05,770.5 L451.15,770.5 C451.35,770.45 451.6,770.4 451.85,770.35 L451.9,770.35 C469.85,766.25 480.15,756.95 482.8,742.5 488.25,720.85 491.65,695.75 493.1,667.15 493.2,665.45 493.3,663.75 493.35,662 505.8,619.7 518.25,619.7 530.7,662 530.75,663.85 530.8,665.5 530.9,667.15 532.35,695.75 535.75,720.85 541.2,742.5 543.85,756.95 554.15,766.25 572.1,770.35 L572.15,770.35 C572.4,770.4 572.65,770.45 572.85,770.5 L572.95,770.5 C598.7,774.1 624.8,776.4 651.3,777.4 703.6,779.4 757.4,776.4 812.75,768.4 843.6,764.2 865.75,745.35 879.3,711.85 L879.3,711.8 C879.45,711.55 879.55,711.25 879.6,711 879.65,710.9 879.7,710.8 879.7,710.75 890.75,671.5 893.1,627.1 886.7,577.45 901.45,565.7 906.9,555.55 902.95,546.9z M867.45,547.05 C869.5,545 871.95,544 874.85,544 877.75,544 880.25,545 882.3,547.05 884.35,549.1 885.35,551.6 885.35,554.5 885.35,557.4 884.35,559.85 882.3,561.9 880.25,563.95 877.75,565 874.85,565 871.95,565 869.5,563.95 867.45,561.9 865.4,559.85 864.35,557.4 864.35,554.5 864.35,551.6 865.4,549.1 867.45,547.05z M159.65,554.5 C159.65,557.4 158.6,559.85 156.55,561.9 154.5,563.95 152.05,565 149.15,565 146.25,565 143.75,563.95 141.7,561.9 139.65,559.85 138.65,557.4 138.65,554.5 138.65,551.6 139.65,549.1 141.7,547.05 143.75,545 146.25,544 149.15,544 152.05,544 154.5,545 156.55,547.05 158.6,549.1 159.65,551.6 159.65,554.5z"/>
      <path id="path14" fill="#FFFFFF" fill-opacity="0.2" d="M840.3,589 C839.5,578.55 835.1,573 827.15,572.45 780.9,572.1 731.55,573.5 678.95,576.6 L818.6,716.25 C825.6,710.65 830.55,702.65 833.25,692.35 L833.2,692.45 833.75,690.2 C833.8,690.1 833.8,690 833.85,689.9 840.8,658.7 842.95,625.05 840.3,589z M423.55,582.3 C423.4,582.25 423.3,582.25 423.2,582.25 369.95,577.7 319.55,574.7 272,573.35 L426.35,727.7 C427.45,727.5 428.4,727.4 429.35,727.3 437.7,726.15 442.5,721.5 443.7,713.35 445.95,697.2 447.45,681.8 448.2,667.15 449.3,644.45 448.5,623.65 445.85,604.7 445.55,602.65 445.25,600.6 444.95,598.6 442.4,589 435.25,583.55 423.6,582.3 L423.55,582.3z"/>
      <path id="path18" fill="#CCCCCC" fill-opacity="1" d="M867.45,547.05 C865.4,549.1 864.35,551.6 864.35,554.5 864.35,557.4 865.4,559.85 867.45,561.9 869.5,563.95 871.95,565 874.85,565 877.75,565 880.25,563.95 882.3,561.9 884.35,559.85 885.35,557.4 885.35,554.5 885.35,551.6 884.35,549.1 882.3,547.05 880.25,545 877.75,544 874.85,544 871.95,544 869.5,545 867.45,547.05z M196.85,572.45 C221.05,572.3 246.1,572.6 272,573.35 L426.35,727.7 C408.9,729.95 390.95,731.5 372.7,732.35 327.3,734.5 279.85,732.3 230.3,725.85 230.1,725.8 229.9,725.8 229.75,725.75 229.7,725.75 229.65,725.75 229.6,725.75 L228.5,725.6 228.6,725.6 C208.4,722.55 195.8,711.5 190.75,692.35 L190.8,692.45 190.25,690.2 C190.2,690.1 190.2,690 190.15,689.9 183.2,658.7 181.05,625.05 183.7,589 184.5,578.55 188.9,573 196.85,572.45z"/>
      <path id="path26" fill="#CCCCCC" fill-opacity="1" d="M159.65,554.5 C159.65,551.6 158.6,549.1 156.55,547.05 154.5,545 152.05,544 149.15,544 146.25,544 143.75,545 141.7,547.05 139.65,549.1 138.65,551.6 138.65,554.5 138.65,557.4 139.65,559.85 141.7,561.9 143.75,563.95 146.25,565 149.15,565 152.05,565 154.5,563.95 156.55,561.9 158.6,559.85 159.65,557.4 159.65,554.5z"/>
    </g>
  </g>
</svg>