<?xml version="1.0" encoding="utf-8"?>
<!-- Generator: flash2svg, http://dissentgraphics.com/tools/flash2svg -->
<svg xmlns:xlink="http://www.w3.org/1999/xlink" id="Apps-Awaken" image-rendering="optimizeSpeed" baseProfile="basic" version="1.1" style="background-color:#ffffff" x="0px" y="0px" width="1024px" height="1024px" viewBox="0 0 1024 1024" enable-background="new 0 0 1024 1024" xmlns="http://www.w3.org/2000/svg">
  <defs transform="matrix(1 0 0 1 0 0) "/>
  <g id="background-circle-shadow">
    <g id="shape">
      <path id="path" fill="#000000" fill-opacity="0.09803921568627451" d="M969.65,351.3 Q961.05,330.45 950.25,310.45 C946.2,302.9 941.9,295.4 937.35,288.05 917.8,256.35 893.95,226.4 865.8,198.25 773.65,106.1 662.35,60 532,60 401.65,60 290.4,106.1 198.25,198.25 106.1,290.4 60,401.65 60,532 60,662.35 106.1,773.65 198.25,865.8 290.4,957.95 401.65,1004 532,1004 662.35,1004 773.65,957.95 865.8,865.8 916.55,815 953.35,758.4 976.15,696.05 994.7,645.2 1004,590.55 1004,532 1004,487.1 998.55,444.45 987.6,404.05 986.35,399.5 985.05,394.95 983.7,390.45 979.6,377.15 974.9,364.1 969.65,351.3z"/>
    </g>
  </g>
  <g id="background-circle">
    <g id="shape2">
      <path id="path1" fill="#3D527E" fill-opacity="1" d="M969.75,392.05 C968.65,387.7 967.4,383.05 966.1,378.45 965.1,375.05 964.1,371.6 962.95,367.95 961.35,362.8 959.55,357.45 957.65,352.1 951.2,333.85 943.5,316.05 934.5,298.45 930.7,291.05 926.55,283.5 922.2,276.05 901.9,241.55 876.4,208.85 845.85,178.3 773.25,105.7 688.7,61.65 592.2,46.25 575.95,43.65 559.4,41.85 542.15,40.9 532.45,40.35 522.3,40.05 512.05,40.05 502.7,40.05 493.45,40.3 484.15,40.8 365.8,46.9 263.85,92.75 178.3,178.3 Q40.05,316.55 40.05,512.05 C40.05,642.4 86.15,753.7 178.3,845.85 235,902.5 298.85,941.75 369.4,963.4 406.15,974.65 444.2,981.25 484.15,983.35 484.3,983.35 484.4,983.35 484.55,983.35 493.05,983.8 501.15,984.05 509.05,984.05 510.25,984.05 511.15,984.05 512.05,984.05 522.35,984.05 532.55,983.75 542.15,983.25 544.65,983.1 546.9,982.95 549.1,982.8 569.3,981.35 589,978.75 607.8,975.1 615.75,973.55 623.6,971.8 631.2,969.95 712,949.65 783.35,908.35 845.85,845.85 894.45,797.25 930.25,743.35 953.2,684.05 971.65,636.4 981.85,585.25 983.75,530.55 983.95,524.5 984.05,518.3 984.05,512.05 984.05,511.4 984.05,510.7 984.05,510.05 984.05,509.7 984.05,509.4 984.05,509.05 983.85,468.4 979.1,429.55 969.75,392.05z"/>
    </g>
  </g>
  <g id="object-shadow">
    <g id="shape4">
      <path id="path2" fill="#000000" fill-opacity="0.2" d="M832.05,281.4 L648.65,288 591.7,231.05 528.025,249.05 509.825,286.575 412.175,296.175 372.1,256.1 132.05,451.85 176.05,495.85 160.575,827.275 L160.6,827.3 C166.5,833.8 172.3,839.85 178.3,845.85 235,902.5 298.85,941.75 369.4,963.4 406.15,974.65 444.2,981.25 484.15,983.35 484.3,983.35 484.4,983.35 484.55,983.35 493.05,983.8 501.15,984.05 509.05,984.05 Q510.55,984.05 512.05,984.05 C522.35,984.05 532.55,983.75 542.15,983.25 544.65,983.1 546.9,982.95 549.1,982.8 569.3,981.35 589,978.75 607.8,975.1 615.75,973.55 623.6,971.8 631.2,969.95 712,949.65 783.35,908.35 845.85,845.85 894.45,797.25 930.25,743.35 953.2,684.05 971.65,636.4 981.85,585.25 983.75,530.55 983.95,524.5 984.05,518.3 984.05,512.05 984.05,511.4 984.05,510.7 984.05,510.05 984.05,509.7 984.05,509.4 984.05,509.05 983.9,480.7 981.55,453.25 976.95,426.3 L832.05,281.4z"/>
    </g>
  </g>
  <g id="Calque.__208">
    <g id="shape6">
      <path id="path3" fill="#B0B0B0" fill-opacity="1" d="M503,191.6 Q494.9,188.8 487.15,192.5 C482.05,195 478.55,198.95 476.7,204.35 474.8,209.8 475.1,215.05 477.55,220.15 480.05,225.3 484,228.85 489.35,230.75 L519.75,241.3 537.65,247.55 565,257.1 C570.4,258.95 575.65,258.65 580.8,256.1 586,253.65 589.55,249.7 591.4,244.3 593.3,238.85 593,233.6 590.45,228.45 588,223.35 584.05,219.85 578.6,217.95 L503,191.6z"/>
      <path id="path4" fill="#CCCCCC" fill-opacity="1" d="M505.9,281.1 C505,283.55 505.15,285.95 506.3,288.3 507.45,290.7 509.25,292.35 511.75,293.2 514.2,294.05 516.6,293.9 518.95,292.75 521.3,291.6 522.95,289.8 523.8,287.35 L537.65,247.55 519.75,241.3 505.9,281.1z"/>
    </g>
  </g>
  <mask id="background-circle1">
    <g id="g">
      <g id="shape18">
        <path id="path9" fill="#FFFFFF" fill-opacity="1" d="M966.1,378.45 C965.1,375.05 964.1,371.6 962.95,367.95 961.35,362.8 959.55,357.45 957.65,352.1 951.2,333.85 943.5,316.05 934.5,298.45 930.7,291.05 926.55,283.5 922.2,276.05 901.9,241.55 876.4,208.85 845.85,178.3 773.25,105.7 688.7,61.65 592.2,46.25 575.95,43.65 559.4,41.85 542.15,40.9 532.45,40.35 522.3,40.05 512.05,40.05 502.7,40.05 493.45,40.3 484.15,40.8 365.8,46.9 263.85,92.75 178.3,178.3 Q40.05,316.55 40.05,512.05 C40.05,642.4 86.15,753.7 178.3,845.85 235,902.5 298.85,941.75 369.4,963.4 406.15,974.65 444.2,981.25 484.15,983.35 484.3,983.35 484.4,983.35 484.55,983.35 493.05,983.8 501.15,984.05 509.05,984.05 510.25,984.05 511.15,984.05 512.05,984.05 522.35,984.05 532.55,983.75 542.15,983.25 544.65,983.1 546.9,982.95 549.1,982.8 569.3,981.35 589,978.75 607.8,975.1 615.75,973.55 623.6,971.8 631.2,969.95 712,949.65 783.35,908.35 845.85,845.85 894.45,797.25 930.25,743.35 953.2,684.05 971.65,636.4 981.85,585.25 983.75,530.55 983.95,524.5 984.05,518.3 984.05,512.05 984.05,511.4 984.05,510.7 984.05,510.05 984.05,509.7 984.05,509.4 984.05,509.05 983.85,468.4 979.1,429.55 969.75,392.05 968.65,387.7 967.4,383.05 966.1,378.45z"/>
      </g>
    </g>
  </mask>
  <g id="masked" mask="url(#background-circle1)">
    <g id="object">
      <g id="shape10">
        <path id="path5" fill="#B0B0B0" fill-opacity="1" d="M779.15,391.1 Q775.555,387.662 771.925,384.325 L771.95,384.35 C699.15,317.45 612.5,284 512.05,284 405.3,284 314.2,321.75 238.7,397.2 163.25,472.7 125.5,563.8 125.5,670.55 125.5,771 158.95,857.65 225.85,930.45 228.05,932.85 230.3,935.25 232.6,937.65 L779.15,391.1z"/>
        <path id="path6" fill="#999999" fill-opacity="1" d="M898.6,670.55 C898.6,563.8 860.85,472.7 785.35,397.2 783.3,395.15 781.2,393.1 779.15,391.1 L232.6,937.65 C234.6,939.7 236.65,941.8 238.7,943.85 314.2,1019.35 405.3,1057.1 512.05,1057.1 618.8,1057.1 709.9,1019.35 785.35,943.85 860.85,868.4 898.6,777.3 898.6,670.55z"/>
      </g>
    </g>
    <g id="Calque.__209">
      <g id="shape14">
        <path id="path7" fill="#666666" fill-opacity="1" d="M745.7,426.95 Q745.35,426.6 745,426.25 C680.65,361.9 603,329.75 512.05,329.75 421.1,329.75 343.45,361.9 279.1,426.25 214.8,490.6 182.65,568.25 182.65,659.2 182.65,750.15 214.8,827.75 279.1,892.05 279.35,892.3 279.6,892.55 279.85,892.8 L745.7,426.95z"/>
        <path id="path8" fill="#CCCCCC" fill-opacity="1" d="M841.45,659.2 C841.45,568.55 809.55,491.15 745.7,426.95 L279.85,892.8 C281.2,894.15 282.55,895.45 283.9,896.75 347.25,958 423.3,988.6 512.05,988.6 603,988.6 680.65,956.4 745,892.05 809.3,827.75 841.45,750.15 841.45,659.2z"/>
      </g>
    </g>
  </g>
  <g id="Calque.__210">
    <g id="shape20">
      <path id="path10" fill="#70A1CB" fill-opacity="1" d="M737.95,433.3 Q737.5,432.85 737.1,432.45 L285.35,884.2 C285.6,884.45 285.9,884.75 286.15,885 301.4,900.25 317.45,913.65 334.25,925.2 386.15,960.8 445.4,978.6 512.05,978.6 600.25,978.6 675.55,947.4 737.95,885 800.3,822.65 831.45,747.35 831.45,659.2 831.45,592.55 813.65,533.3 778.05,481.4 766.55,464.6 753.2,448.55 737.95,433.3z"/>
      <path id="path11" fill="#7EB5E1" fill-opacity="1" d="M286.15,433.3 C223.8,495.7 192.65,571 192.65,659.2 192.65,747 223.55,822 285.35,884.2 L737.1,432.45 C674.85,370.65 599.85,339.75 512.05,339.75 423.85,339.75 348.55,370.95 286.15,433.3z"/>
    </g>
  </g>
  <g id="Symbole.__205">
    <g id="shape24">
      <path id="path12" fill="#B6D6F6" fill-opacity="1" d="M720,448.1 Q718.8,446.85 717,446.9 C715.8,446.85 714.8,447.25 714,448.1 L699.825,462.425 L699.85,462.45 C701.9,464.4 703.9,466.35 705.95,468.35 L720.05,454.1 C720.85,453.25 721.25,452.25 721.25,451.1 721.25,449.9 720.85,448.9 720,448.1z M783.6,543.15 C782.55,542.7 781.45,542.7 780.35,543.15 L763.5,550.15 C764.65,552.7 765.8,555.3 766.85,557.95 L783.6,551 C784.7,550.55 785.45,549.75 785.9,548.7 786.35,547.6 786.35,546.5 785.9,545.4 785.45,544.35 784.7,543.6 783.6,543.15z M767.55,762.25 C766.5,764.9 765.4,767.5 764.25,770.1 L764.25,770.075 L784.1,778.3 C785.15,778.75 786.25,778.75 787.3,778.3 788.4,777.85 789.15,777.1 789.6,776 790.05,774.95 790.05,773.85 789.6,772.75 789.15,771.65 788.4,770.9 787.35,770.45 L767.525,762.25z M395.05,383.9 C394.8,384.55 394.7,385.2 394.75,385.85 394.8,386.25 394.9,386.65 395.05,387.1 L405.425,412.125 L405.45,412.15 C407.2,411.35 409,410.6 410.75,409.85 411.6,409.5 412.4,409.15 413.25,408.8 L402.9,383.85 C402.75,383.5 402.55,383.15 402.3,382.85 401.85,382.3 401.3,381.85 400.55,381.6 399.45,381.15 398.35,381.15 397.3,381.6 396.25,382.05 395.5,382.8 395.05,383.9z M624.1,384.9 C623.05,384.45 621.95,384.45 620.9,384.9 619.8,385.35 619.05,386.15 618.6,387.2 L610.675,406.325 L610.7,406.35 C613.35,407.3 615.95,408.35 618.6,409.45 L618.6,409.425 L626.45,390.45 C626.9,389.4 626.9,388.3 626.45,387.2 626,386.15 625.2,385.35 624.1,384.9z M320.85,471.9 C321.7,471 322.6,470.1 323.45,469.25 323.95,468.75 324.45,468.25 324.95,467.8 L324.95,467.775 L304.3,447.35 C303.45,446.5 302.45,446.1 301.25,446.1 300.1,446.15 299.1,446.55 298.25,447.35 297.45,448.2 297.05,449.2 297.05,450.35 297.05,451.55 297.45,452.55 298.3,453.4 L318.95,473.85 C319.6,473.2 320.2,472.55 320.85,471.9z M235.8,541.55 C234.7,542 233.95,542.75 233.5,543.8 233.05,544.9 233.05,546 233.5,547.1 233.95,548.15 234.7,548.95 235.8,549.4 L262.475,560.425 L262.5,560.45 C263.55,557.8 264.6,555.15 265.75,552.6 L265.75,552.575 L239.05,541.55 C237.95,541.1 236.85,541.1 235.8,541.55z M238.05,775.95 C239.15,776.4 240.25,776.4 241.35,775.95 L264.475,766.35 L264.5,766.35 C263.4,763.75 262.35,761.15 261.3,758.5 L261.3,758.475 L238.1,768.1 C237,768.55 236.2,769.3 235.75,770.4 235.3,771.5 235.3,772.6 235.75,773.65 236.2,774.75 237,775.5 238.05,775.95z M619.8,912 C618.9,912.35 618,912.75 617.1,913.1 615.35,913.8 613.65,914.5 611.9,915.15 L611.9,915.125 L620.85,936.7 C621.3,937.75 622.1,938.55 623.15,939 624.25,939.45 625.35,939.45 626.4,939 627.45,938.55 628.2,937.8 628.65,936.7 629.15,935.55 629.15,934.45 628.7,933.4 L619.8,911.975z M402.925,908.65 L394.2,929.75 C393.75,930.8 393.75,931.9 394.2,933 394.65,934.1 395.45,934.85 396.5,935.3 397.6,935.75 398.7,935.75 399.75,935.3 400.85,934.85 401.6,934.05 402.05,933 L410.725,912.05 L410.75,912.05 C408.1,910.95 405.5,909.8 402.95,908.65z M323.45,852.65 C321.8,851 320.15,849.3 318.6,847.65 L318.575,847.65 L301,865.4 C300.2,866.2 299.8,867.2 299.8,868.4 299.8,869.55 300.2,870.55 301,871.4 301.85,872.2 302.85,872.6 304.05,872.6 305.25,872.6 306.25,872.2 307.05,871.4 L324.525,853.725 L324.55,853.75 C324.2,853.4 323.8,853 323.45,852.65z M704.8,854.7 C704.15,855.35 703.55,855.95 702.9,856.6 L702.875,856.575 L719.15,872.7 C720,873.55 721,873.95 722.2,874 723.35,873.95 724.35,873.55 725.2,872.7 726.05,871.85 726.45,870.85 726.4,869.7 726.4,868.5 726,867.5 725.15,866.65 L708.9,850.575 L708.9,850.6 C708.25,851.25 707.55,851.95 706.85,852.65 706.2,853.3 705.5,854 704.8,854.7z"/>
    </g>
  </g>
  <g id="Calque.__211">
    <g id="shape48" transform="matrix(1 0 0 1 216 368.1)"/>
  </g>
  <g id="Calque.__212">
    <g id="shape49">
      <path id="path35" fill="#CCCCCC" fill-opacity="1" d="M808.3,272.65 Q793.15,272.65 782.45,283.35 C775.3,290.5 771.75,299.1 771.75,309.2 771.75,319.3 775.3,327.9 782.45,335.05 789.6,342.2 798.2,345.75 808.3,345.75 818.4,345.75 827,342.2 834.15,335.05 841.3,327.9 844.85,319.3 844.85,309.2 844.85,299.1 841.3,290.5 834.15,283.35 827,276.2 818.4,272.65 808.3,272.65z M241.7,283.35 C234.55,276.2 225.95,272.65 215.85,272.65 205.75,272.65 197.15,276.2 190,283.35 182.85,290.5 179.3,299.1 179.3,309.2 179.3,319.3 182.85,327.9 190,335.05 197.15,342.2 205.75,345.75 215.85,345.75 225.95,345.75 234.55,342.2 241.7,335.05 248.85,327.9 252.4,319.3 252.4,309.2 252.4,299.1 248.85,290.5 241.7,283.35z"/>
    </g>
  </g>
  <g id="Calque.__213">
    <g id="shape53">
      <path id="path38" fill="#999999" fill-opacity="1" d="M648.625,284.05 Q649.246,286.475 650.2,288.9 C654.2,299.05 661.15,306.3 671.1,310.7 714.05,329.65 753.5,357.1 789.45,393.05 806.1,409.7 820.9,427.1 833.95,445.25 840.3,454.1 848.85,459.4 859.6,461.2 870.35,462.95 880.15,460.65 889.05,454.3 897.9,447.95 903.25,439.4 905.05,428.65 906.8,417.9 904.55,408.1 898.2,399.2 886.55,382.95 873.75,367.25 859.7,352.05 803.25,354.85 732.9,332.2 648.65,284.05 M373.35,258.7 C372.95,257.8 372.55,256.95 372.1,256.1 267.4,349.05 183.5,400.4 120.4,410.05 118.45,415.9 118.05,422.1 119.15,428.65 120.9,439.4 126.25,447.95 135.15,454.3 144,460.65 153.8,462.95 164.55,461.2 175.3,459.4 183.85,454.1 190.25,445.25 203.25,427.1 218.05,409.7 234.7,393.05 270.65,357.1 310.1,329.65 353.1,310.7 363,306.3 369.95,299.05 373.95,288.9 377.95,278.75 377.75,268.7 373.35,258.7z"/>
      <path id="path39" fill="#B0B0B0" fill-opacity="1" d="M672.6,237.7 C662.45,241.7 655.2,248.7 650.85,258.7 647.15,267.1 646.4,275.55 648.65,284.05 732.9,332.2 803.25,354.85 859.7,352.05 855.05,347 850.25,342.05 845.35,337.15 802.15,293.95 754.7,261 702.95,238.35 692.85,233.95 682.75,233.75 672.6,237.7z M372.1,256.1 C367.6,247.45 360.75,241.35 351.55,237.7 341.4,233.75 331.3,233.95 321.25,238.35 269.5,261 222,293.95 178.8,337.15 159.05,356.9 141.45,377.6 126,399.2 123.5,402.65 121.65,406.3 120.4,410.05 183.5,400.4 267.4,349.05 372.1,256.1z"/>
    </g>
  </g>
  <g id="Calque.__214">
    <g id="shape62">
      <path id="path44" fill="#FFFFFF" fill-opacity="1" d="M461.35,653.5 Q459.9,663.65 462.8,674.45 C466.6,688.6 474.85,699.35 487.5,706.65 500.15,714 513.55,715.75 527.7,711.95 541.85,708.2 552.6,699.95 559.9,687.25 567.25,674.6 569,661.2 565.15,647.05 564.4,644.1 563.4,641.35 562.25,638.75 L648.6,427.65 509,607.95 C506.15,608.25 503.2,608.8 500.25,609.55 495.6,610.8 491.25,612.55 487.3,614.8 L326.6,549.15 461.35,653.5z M524.25,643 C529.5,646.05 532.9,650.5 534.5,656.4 536.05,662.25 535.35,667.8 532.3,673.05 529.25,678.3 524.8,681.75 518.95,683.35 513.05,684.9 507.5,684.15 502.25,681.1 497,678.05 493.55,673.65 492,667.8 490.45,661.9 491.15,656.3 494.2,651.05 497.25,645.8 501.7,642.4 507.55,640.85 513.4,639.25 519,639.95 524.25,643z"/>
    </g>
  </g>
  <g id="Calque.__215">
    <g id="shape67" transform="matrix(1 0 0 1 512 660.35)"/>
  </g>
</svg>