<?xml version="1.0" encoding="utf-8"?>
<!-- Generator: flash2svg, http://dissentgraphics.com/tools/flash2svg -->
<svg xmlns:xlink="http://www.w3.org/1999/xlink" id="Google-Drive" image-rendering="optimizeSpeed" baseProfile="basic" version="1.1" style="background-color:#ffffff" x="0px" y="0px" width="1024px" height="1024px" viewBox="0 0 1024 1024" enable-background="new 0 0 1024 1024" xmlns="http://www.w3.org/2000/svg">
  <defs transform="matrix(1 0 0 1 0 0) "/>
  <g id="shadow">
    <g id="shape">
      <path id="path" fill="#000000" fill-opacity="0.09803921568627451" d="M969.65,351.3 Q961.05,330.45 950.25,310.45 C946.2,302.9 941.9,295.4 937.35,288.05 917.8,256.35 893.95,226.4 865.8,198.25 773.65,106.1 662.35,60 532,60 401.65,60 290.4,106.1 198.25,198.25 106.1,290.4 60,401.65 60,532 60,662.35 106.1,773.65 198.25,865.8 290.4,957.95 401.65,1004 532,1004 662.35,1004 773.65,957.95 865.8,865.8 916.55,815 953.35,758.4 976.15,696.05 994.7,645.2 1004,590.55 1004,532 1004,487.1 998.55,444.45 987.6,404.05 986.35,399.5 985.05,394.95 983.7,390.45 979.6,377.15 974.9,364.1 969.65,351.3z"/>
    </g>
  </g>
  <g id="circle">
    <g id="shape2">
      <path id="path1" fill="#FFFFFF" fill-opacity="1" d="M969.75,392.05 C968.65,387.7 967.4,383.05 966.1,378.45 963.6,369.7 960.75,360.85 957.65,352.1 951.2,333.85 943.5,316.05 934.5,298.45 930.7,291.05 926.55,283.5 922.2,276.05 901.9,241.55 876.4,208.85 845.85,178.3 773.25,105.7 688.7,61.65 592.2,46.25 575.95,43.65 559.4,41.85 542.15,40.9 532.45,40.35 522.3,40.05 512.05,40.05 502.7,40.05 493.45,40.3 484.15,40.8 365.8,46.9 263.85,92.75 178.3,178.3 Q40.05,316.55 40.05,512.05 C40.05,642.4 86.15,753.7 178.3,845.85 258.45,925.95 353.05,971.25 461.65,981.65 469.3,982.4 476.7,982.95 484.15,983.35 484.3,983.35 484.4,983.35 484.55,983.35 493.05,983.8 501.15,984.05 509.05,984.05 510.25,984.05 511.15,984.05 512.05,984.05 522.35,984.05 532.55,983.75 542.15,983.25 544.65,983.1 546.9,982.95 549.1,982.8 569.3,981.35 589,978.75 607.8,975.1 615.75,973.55 623.6,971.8 631.2,969.95 712,949.65 783.35,908.35 845.85,845.85 894.45,797.25 930.25,743.35 953.2,684.05 971.65,636.4 981.85,585.25 983.75,530.55 983.9,526.15 983.95,521.7 984.05,517.05 984.05,515.45 984.05,513.75 984.05,512.05 984.05,511.4 984.05,510.7 984.05,510.05 984.05,509.7 984.05,509.4 984.05,509.05 983.85,468.4 979.1,429.55 969.75,392.05z"/>
    </g>
  </g>
  <g id="circle1">
    <g id="shape4">
      <path id="path2" fill="#000000" fill-opacity="0.09803921568627451" d="M760.1,760.1 Q826.786,693.381 850.175,608.725 L582.55,341.1 496.2,403.05 446.925,353.775 384.45,658.65 582.15,856.35 C588.85,855.1 595.35,853.65 601.8,852 661,837 713.8,806.35 760.1,760.1z"/>
    </g>
  </g>
  <g id="inner-circle">
    <g id="shape6">
      <path id="path3" fill="#E85479" fill-opacity="1" d="M862.8,512.05 C862.8,513.75 862.8,515.45 862.8,517 L982.1,517 C982.1,515.35 982.1,513.7 982.1,512.05 982.1,381.7 936.05,270.45 843.9,178.3 752,86.45 641.05,40.35 511.1,40.1 L511.1,161.35 C511.45,161.35 511.75,161.35 512.05,161.35 608.9,161.35 691.6,195.6 760.1,264.05 828.55,332.5 862.8,415.2 862.8,512.05z"/>
      <path id="path7" fill="#55DA97" fill-opacity="1" d="M862.8,517 C862.7,521.1 862.65,525 862.45,528.85 Q856.8,663.35 760.1,760.1 C713.8,806.35 661,837 601.8,852 573.7,859.15 544.15,862.75 513.1,862.8 L513.1,984.05 C642.2,983.3 752.45,937.25 843.9,845.85 934.85,754.85 980.95,645.25 982.1,517 L862.8,517z"/>
      <path id="path8" fill="#00C0E6" fill-opacity="1" d="M511.1,40.1 C510.75,40.1 510.45,40.1 510.1,40.1 379.75,40.1 268.5,86.15 176.35,178.3 84.2,270.45 38.15,381.7 38.15,512.05 38.15,513.05 38.15,514.05 38.15,515.05 L161.35,515.05 C161.35,514.25 161.35,513.15 161.35,512.05 161.35,415.2 195.6,332.5 264.05,264.05 332.3,195.8 414.65,161.6 511.1,161.35 L511.1,40.1z"/>
      <path id="path9" fill="#EBC240" fill-opacity="1" d="M161.35,515.05 L38.15,515.05 C38.85,644.15 84.9,754.4 176.35,845.85 268.5,938 379.75,984.05 510.1,984.05 510.45,984.05 510.75,984.05 511.1,984.05 511.75,984.05 512.45,984.05 513.1,984.05 L513.1,862.8 C512.75,862.8 512.4,862.8 512.05,862.8 415.2,862.8 332.5,828.55 264.05,760.1 196.35,692.35 162.15,610.75 161.35,515.05z"/>
    </g>
  </g>
  <g id="Calque.__201">
    <g id="shape15">
      <path id="path10" fill="#95A5A5" fill-opacity="1" d="M701,543 L697.1,536.2 696.15,534.95 695.8,534.35 695.2,533 692.5,528.15 C692.45,528.1 692.4,528.05 692.3,527.85 L687.25,519.55 686.35,517.6 684.25,514.3 683.65,512.9 676.45,500.55 C671.6,492.05 665.35,481.2 657.75,468 647.1,449.55 640.85,438.7 639,435.55 L613.3,391.1 613.05,390.75 602.35,372.15 C599.25,366.7 595.7,360.5 591.65,353.65 L584.55,341.1 C577.05,341 567.4,341 555.55,341 539.75,341.05 530.1,341.05 526.6,341 495.45,341 472.1,341 456.55,341.05 L456.65,341.75 C457.3,342.55 457.95,343.6 458.7,344.85 459.15,345.6 459.75,346.65 460.55,348.15 477.45,377.3 497.35,411.85 520.4,451.8 L524.95,459.6 C525,459.75 525.05,459.85 525.2,460.1 L532.7,472.9 C533.4,474.2 534.05,475.4 534.75,476.55 L544.8,493.65 544.85,493.8 C545.3,494.8 545.8,495.7 546.25,496.55 L548.1,499.75 C549.55,502.3 554.25,510.35 562.1,523.9 567.75,533.75 572.4,541.85 575.95,548.2 L576.45,548.25 642.85,548.25 C642.9,548.25 642.95,548.25 643,548.25 L657.55,548.25 C658.2,548.25 658.95,548.25 659.65,548.25 L681.55,548.25 C684.4,548.25 687.1,548.25 689.65,548.25 694.9,548.25 699.4,548.15 703.35,548.05 L703.15,547.5 703.15,546.8 701.3,543.45 701,543z M666,562.65 C665.7,562.65 665.35,562.65 665.05,562.65 664.65,562.65 664.3,562.65 663.9,562.65 L649.35,562.6 C649.3,562.6 649.25,562.6 649.2,562.6 649.15,562.6 649.15,562.6 649.1,562.6 L568.45,562.6 567.95,562.55 C554,562.4 535.45,562.4 512.35,562.4 484.25,562.45 465.7,562.45 456.7,562.4 453.7,567.35 449.95,573.65 445.55,581.35 439.1,592.6 435.4,598.95 434.6,600.4 L398.55,662.8 C397.9,663.9 397,665.5 395.75,667.65 394.6,669.55 393.75,671.2 393.15,672.55 L393.1,673 C410.8,673.05 490.5,673.05 632.2,673.05 660.5,624 681.8,587.15 696,562.65 693.45,562.65 690.75,562.65 687.95,562.6 L666,562.65z M440.25,341.75 L439.75,341.8 437.9,344.75 437.75,344.95 435.05,349.75 434.9,350.2 432.2,354.75 432.1,355.25 424.3,368.4 424.2,368.9 419.25,377.1 418.6,378.5 417.4,380.25 413.5,387.15 C413.45,387.2 413.4,387.35 413.35,387.55 L413.35,388.4 412.3,389.35 411.6,390.25 410.7,392.15 403.35,404.55 402.75,405.8 402.65,406.3 398.5,413.05 398.35,413.2 397.65,414.45 397.55,414.6 C380.45,444.25 354.7,488.7 320.5,548 323,552.6 326.35,558.45 330.5,565.6 336.1,575.3 339.5,581.1 340.65,583.1 L376.7,645.55 C377.3,646.55 378.55,648.75 380.5,652.2 382.05,654.9 383.35,657.05 384.45,658.65 L384.75,658.2 C385.4,656.8 386.25,655.15 387.35,653.25 388.6,651.15 389.55,649.5 390.15,648.45 L426.25,586 C427.05,584.6 430.7,578.2 437.2,567 441.6,559.25 445.35,552.95 448.35,548.05 448.9,547.25 449.55,546.2 450.2,545 451,543.65 451.6,542.6 452,541.9 L473.95,503.8 474.05,503.55 504.05,451.8 C481,411.85 461.05,377.3 444.2,348.15 443.4,346.65 442.8,345.6 442.35,344.85 441.6,343.6 440.9,342.55 440.25,341.75z"/>
      <path id="path13" fill="#00AA5E" fill-opacity="1" d="M440.2,341.05 L439.9,341.1 439.85,341.45 440.25,341.4 440.2,341.05z"/>
      <path id="path14" fill="#009856" fill-opacity="1" d="M439.75,341.8 L440.25,341.75 440.25,341.4 439.85,341.45 439.75,341.8z M413.35,387.55 L412.3,389.35 413.35,388.4 413.35,387.55z"/>
      <path id="path19" fill="#175FDE" fill-opacity="1" d="M384.45,658.65 L384.75,658.65 384.75,658.2 384.45,658.65z"/>
    </g>
  </g>
</svg>