
<svg xmlns="http://www.w3.org/2000/svg" version="1.1" xmlns:xlink="http://www.w3.org/1999/xlink" preserveAspectRatio="none" x="0px" y="0px" width="1024px" height="1024px" viewBox="0 0 1024 1024">
<defs>
<g id="Layer6_0_FILL">
<path fill="#000000" fill-opacity="0.09803921568627451" stroke="none" d="
M 969.6 351.25
Q 961 330.4 950.2 310.4 944.1 299.05 937.3 288 907.95 240.45 865.75 198.2 727.5 59.95 531.95 59.95 336.45 59.95 198.2 198.2 59.95 336.45 59.95 531.95 59.95 727.5 198.2 865.75 336.45 1003.95 531.95 1003.95 727.5 1003.95 865.75 865.75 941.9 789.55 976.1 696 1003.95 619.75 1003.95 531.95 1003.95 464.6 987.55 404 985.7 397.15 983.65 390.4 977.5 370.45 969.6 351.25 Z"/>
</g>

<g id="Layer5_0_FILL">
<path fill="#59A9CC" stroke="none" d="
M 969.7 392
Q 967.95 385.15 966.05 378.4 964.52578125 373.114453125 962.85 367.85 960.3787109375 359.903125 957.6 352.05 947.85 324.5 934.45 298.4 928.65 287.05 922.15 276 891.5 224 845.8 178.25 736.8 69.25 592.15 46.2 567.65 42.3 542.1 40.85 527.2 40 512 40 497.9 40 484.1 40.75 306.55 49.95 178.25 178.25 40 316.5 40 512 40 707.55 178.25 845.8 263.0400390625 930.55703125 369.35 963.35 423.8880859375 980.1630859375 484.1 983.3 484.3 983.3 484.5 983.3 496.65 983.9 509 984 510.5 984 512 984 527.25 984 542.1 983.2 545.6 983 549.05 982.75 579.1 980.6 607.75 975.05 619.55 972.75 631.15 969.9 751.75 939.85 845.8 845.8 918.7 772.85 953.15 684 980.9 612.4 983.7 530.5 984 521.3 984 512 984 511 984 510 984 509.5 984 509 983.65 447.7 969.7 392 Z"/>
</g>

<g id="Layer4_0_FILL">
<path fill="#F1F1F1" stroke="none" d="
M 867.7 382.4
Q 865.4 380 862 380 858.75 380 856.4 382.4 854 384.75 854 388 854 391.4 856.4 393.7 858.8 396 862 396 865.3 396 867.7 393.7 870 391.4 870 388 870 384.7 867.7 382.4
M 759.7 342.4
Q 757.4 340 754 340 750.75 340 748.4 342.4 746 344.75 746 348 746 351.4 748.4 353.7 750.8 356 754 356 757.3 356 759.7 353.7 762 351.4 762 348 762 344.7 759.7 342.4
M 716.15 280.75
Q 717.8 282.4 720 282.4 722.4 282.4 723.95 280.75 725.5 279.3 725.5 276.9 725.5 274.65 723.95 273 722.25 271.4 720 271.4 717.9 271.4 716.15 273 714.5 274.65 714.5 276.9 714.5 279.25 716.15 280.75
M 483.7 411.9
Q 481.4 409.5 478 409.5 474.75 409.5 472.4 411.9 470 414.25 470 417.5 470 420.9 472.4 423.2 474.8 425.5 478 425.5 481.3 425.5 483.7 423.2 486 420.9 486 417.5 486 414.2 483.7 411.9
M 154.95 301.4
Q 154.95 304.8 157.35 307.1 159.75 309.4 162.95 309.4 166.25 309.4 168.65 307.1 170.95 304.8 170.95 301.4 170.95 298.1 168.65 295.8 166.35 293.4 162.95 293.4 159.7 293.4 157.35 295.8 154.95 298.15 154.95 301.4
M 669.85 130.15
Q 672.15 127.85 672.15 124.45 672.15 121.15 669.85 118.85 667.55 116.45 664.15 116.45 660.9 116.45 658.55 118.85 656.15 121.2 656.15 124.45 656.15 127.85 658.55 130.15 660.95 132.45 664.15 132.45 667.45 132.45 669.85 130.15
M 247.95 292.4
Q 247.95 287.4 244.45 283.9 240.8 280.4 235.95 280.4 231 280.4 227.5 283.9 224 287.35 224 292.4 224 297.4 227.5 300.85 230.85 304.35 235.95 304.35 240.95 304.35 244.45 300.85 247.95 297.35 247.95 292.4 Z"/>

<path fill="#FFFFFF" fill-opacity="0.4980392156862745" stroke="none" d="
M 782.5 207.5
Q 779.05 204 774 204 769 204 765.5 207.5 762 211 762 216 762 220.8 765.5 224.4 769.1 228 774 228 779 228 782.5 224.4 786 221 786 216 786 211 782.5 207.5
M 576.55 276.95
Q 582 271.65 582 263.9 582 256.15 576.55 250.85 571.25 245.4 563.5 245.4 555.85 245.4 550.45 250.85 545 256.25 545 263.9 545 271.6 550.45 276.95 555.85 282.4 563.5 282.4 571.25 282.4 576.55 276.95
M 186.5 464.95
Q 181.2 459.5 173.45 459.5 165.8 459.5 160.4 464.95 154.95 470.35 154.95 478 154.95 485.7 160.4 491.05 165.8 496.5 173.45 496.5 181.2 496.5 186.5 491.05 191.95 485.75 191.95 478 191.95 470.25 186.5 464.95
M 682.95 446.95
Q 677.5 452.35 677.5 460 677.5 467.7 682.95 473.05 688.35 478.5 696 478.5 703.75 478.5 709.05 473.05 714.5 467.75 714.5 460 714.5 452.25 709.05 446.95 703.75 441.5 696 441.5 688.35 441.5 682.95 446.95
M 133.7 366.4
Q 131.4 364 128 364 124.75 364 122.4 366.4 120 368.75 120 372 120 375.4 122.4 377.7 124.8 380 128 380 131.3 380 133.7 377.7 136 375.4 136 372 136 368.7 133.7 366.4
M 574 164
Q 577.3 164 579.7 161.7 582 159.4 582 156 582 152.7 579.7 150.4 577.4 148 574 148 570.75 148 568.4 150.4 566 152.75 566 156 566 159.4 568.4 161.7 570.8 164 574 164
M 399.8 121.55
Q 394.85 116.45 387.45 116.45 380.2 116.45 375.05 121.55 369.95 126.8 369.95 133.95 369.95 141.1 375.05 146.25 380.25 151.45 387.45 151.45 394.8 151.45 399.8 146.25 404.95 141.25 404.95 133.95 404.95 126.65 399.8 121.55 Z"/>
</g>

<g id="Layer3_0_FILL">
<path fill="#000000" fill-opacity="0.2" stroke="none" d="
M 448.65 192.65
Q 449.33359375 193.797265625 450 195 489.3 233 486 270
L 480 266
Q 483.9 277.95 480 286
L 475 280
Q 473.9 288.95 468 295
L 465 284
Q 461.45 290 455 295
L 450 312 454 327
Q 457.9 340.65 440 338 440.2 355.85 432 355 433.4 361.45 426 362 419.8 366 420 370 418.35 385.2 398 380
L 363 364
Q 357.05 367.55 355 374 369.1 378.6 373 396 387 439.35 416 466
L 415 471 425 477 426 487
Q 431.95 485.2 437 490
L 445 504 435 520 443.75 513 457 525 527 490
Q 539.5 483.5 547 474
L 552 459 543 456 619.15 363.15 448.65 192.65
M 677 356
L 679 362 621 429
Q 622.15 439.05 613 451 617.2 460.55 606 472 614.25 478.1 584 500
L 554.75 512 519 545 523 548
Q 541.25 593.3 569 631
L 574 649 581 651 597 681
Q 600.9 689.25 584 696
L 593 694
Q 605.55 722.5 624 749 658.05 777.45 701 799
L 729 809 748 808
Q 756.75 820.55 735 829 833.0908203125 850.7263671875 887 799.4 929.301171875 745.5087890625 953.15 684 960.536328125 664.9419921875 966.15 645.15
L 677 356
M 474 653
L 422 686
Q 391.75 719.35 346 745 440.55 759.05 577 803 573.65 791.5 582 781
L 541 727 531.6 736.45
Q 527.7 738.95 523 733
L 508 708 508 694
Q 483.05 678.45 474 653
M 369 542
L 370 537 364 539 361 536 353 580
Q 350.05 592.05 361 585
L 403 561 398 556
Q 390.1 562.7 386 559
L 369 542 Z"/>

<path fill="#333333" stroke="none" d="
M 679 362
L 677 356 625 356 619.15 363.15 543 456 552 459 547 474
Q 539.5 483.5 527 490
L 457 525 443.75 513 435 520 445 504 437 490
Q 431.95 485.2 426 487
L 425 477 415 471 416 466
Q 387 439.35 373 396 369.1 378.6 355 374 357.05 367.55 363 364
L 398 380
Q 418.35 385.2 420 370 419.8 366 426 362 433.4 361.45 432 355 440.2 355.85 440 338 457.9 340.65 454 327
L 450 312 455 295
Q 461.45 290 465 284
L 468 295
Q 473.9 288.95 475 280
L 480 286
Q 483.9 277.95 480 266
L 486 270
Q 489.3 233 450 195 449.33359375 193.797265625 448.65 192.65 439.822265625 177.831640625 428.05 172.05 414.0916015625 165.1876953125 396 171 383 157.5 364 164 335.6 161.6 323 184 302.25 187.75 294 220 280.6 245.4 287 283 289.95 303.25 286 308 289.05 310.95 296 309
L 291 314
Q 294.65 317.9 303 318 302.3 325.9 296 331
L 302 339 277 329
Q 266.9 324.8 260 352 219.15 382.25 198 420 177.85 462.85 170 508 159.55 565.3 176 637 182.7 674.6 173 694 191 699.8 210 693
L 196 702
Q 203.55 718.95 218 732 158.3736328125 737.4328125 109.1 759.9 137.766015625 805.316015625 178.25 845.8 263.0400390625 930.55703125 369.35 963.35 423.8880859375 980.1630859375 484.1 983.3 484.3 983.3 484.5 983.3 496.65 983.9 509 984 510.5 984 512 984 527.25 984 542.1 983.2 545.6 983 549.05 982.75 579.1 980.6 607.75 975.05 619.55 972.75 631.15 969.9 751.75 939.85 845.8 845.8 868.2330078125 823.3515625 887 799.4 833.0908203125 850.7263671875 735 829 756.75 820.55 748 808
L 729 809 701 799
Q 658.05 777.45 624 749 605.55 722.5 593 694
L 584 696
Q 600.9 689.25 597 681
L 581 651 574 649 569 631
Q 541.25 593.3 523 548
L 519 545 554.75 512 584 500
Q 614.25 478.1 606 472 617.2 460.55 613 451 622.15 439.05 621 429
L 679 362
M 370 537
L 369 542 386 559
Q 390.1 562.7 398 556
L 403 561 361 585
Q 350.05 592.05 353 580
L 361 536 364 539 370 537
M 422 686
L 474 653
Q 483.05 678.45 508 694
L 508 708 523 733
Q 527.7 738.95 531.6 736.45
L 541 727 582 781
Q 573.65 791.5 577 803 440.55 759.05 346 745 391.75 719.35 422 686 Z"/>
</g>
</defs>

<g transform="matrix( 1, 0, 0, 1, 0,0) ">
<use xlink:href="#Layer6_0_FILL"/>
</g>

<g transform="matrix( 1, 0, 0, 1, 0,0) ">
<use xlink:href="#Layer5_0_FILL"/>
</g>

<g transform="matrix( 1, 0, 0, 1, 0,0) ">
<use xlink:href="#Layer4_0_FILL"/>
</g>

<g transform="matrix( 1, 0, 0, 1, 0,0) ">
<use xlink:href="#Layer3_0_FILL"/>
</g>
</svg>
