
<svg xmlns="http://www.w3.org/2000/svg" version="1.1" xmlns:xlink="http://www.w3.org/1999/xlink" preserveAspectRatio="none" x="0px" y="0px" width="1024px" height="1024px" viewBox="0 0 1024 1024">
<defs>
<g id="Layer4_0_FILL">
<path fill="#000000" fill-opacity="0.09803921568627451" stroke="none" d="
M 969.6 351.25
Q 961 330.4 950.2 310.4 944.1 299.05 937.3 288 907.95 240.45 865.75 198.2 727.5 59.95 531.95 59.95 336.45 59.95 198.2 198.2 59.95 336.45 59.95 531.95 59.95 727.5 198.2 865.75 336.45 1003.95 531.95 1003.95 727.5 1003.95 865.75 865.75 941.9 789.55 976.1 696 1003.95 619.75 1003.95 531.95 1003.95 464.6 987.55 404 985.7 397.15 983.65 390.4 977.5 370.45 969.6 351.25 Z"/>
</g>

<g id="Layer3_0_FILL">
<path fill="#333333" stroke="none" d="
M 969.7 392
Q 967.95 385.15 966.05 378.4 964.52578125 373.114453125 962.85 367.85 960.3787109375 359.903125 957.6 352.05 947.85 324.5 934.45 298.4 928.65 287.05 922.15 276 891.5 224 845.8 178.25 736.8 69.25 592.15 46.2 567.65 42.3 542.1 40.85 527.2 40 512 40 497.9 40 484.1 40.75 306.55 49.95 178.25 178.25 40 316.5 40 512 40 707.55 178.25 845.8 263.0400390625 930.55703125 369.35 963.35 423.8880859375 980.1630859375 484.1 983.3 484.3 983.3 484.5 983.3 496.65 983.9 509 984 510.5 984 512 984 527.25 984 542.1 983.2 545.6 983 549.05 982.75 579.1 980.6 607.75 975.05 619.55 972.75 631.15 969.9 751.75 939.85 845.8 845.8 918.7 772.85 953.15 684 980.9 612.4 983.7 530.5 984 521.3 984 512 984 511 984 510 984 509.5 984 509 983.65 447.7 969.7 392 Z"/>
</g>

<g id="Layer2_0_FILL">
<path fill="#000000" fill-opacity="0.2" stroke="none" d="
M 980.3 574.5
L 751.8 346 318.05 728.2 570.6 980.75
Q 589.4603515625 978.59296875 607.75 975.05 619.55 972.75 631.15 969.9 751.75 939.85 845.8 845.8 918.7 772.85 953.15 684 973.3146484375 631.971484375 980.3 574.5 Z"/>
</g>

<g id="Layer0_0_FILL">
<path fill="#FF7043" stroke="none" d="
M 237.15 415
L 415.9 415 415.9 236.9
Q 355.35 257.7 306.5 306.6 258 355.05 237.15 415 Z"/>

<path fill="#AEABB0" stroke="none" d="
M 607.9 415
L 415.9 415 415.9 610 607.9 610 607.9 415 Z"/>

<path fill="#39AB8C" stroke="none" d="
M 415.9 610
L 415.9 787.1
Q 460.25 802.35 510.9 802.5
L 607.9 802.5 607.9 610 415.9 610 Z"/>

<path fill="#48E764" stroke="none" d="
M 237.5 610
Q 258.4 669.35 306.5 717.45 355.35 766.3 415.9 787.1
L 415.9 610 237.5 610 Z"/>

<path fill="#F5FA7A" stroke="none" d="
M 237.15 415
Q 221.4 460.25 221.4 512 221.4 564.35 237.5 610
L 415.9 610 415.9 415 237.15 415 Z"/>

<path fill="#E85A44" stroke="none" d="
M 607.9 236.9
Q 563.1 221.5 511.9 221.5 460.7 221.5 415.9 236.9
L 415.9 415 607.9 415 607.9 236.9 Z"/>

<path fill="#AB47BC" stroke="none" d="
M 786.65 415
Q 765.8 355.05 717.35 306.6 668.45 257.7 607.9 236.9
L 607.9 415 786.65 415 Z"/>

<path fill="#5C6BC0" stroke="none" d="
M 774.2 774.45
Q 801.3 747.35 802.35 709.5
L 802.35 610 607.9 610 607.9 802.5 711.9 802.5
Q 748.05 800.6 774.2 774.45
M 671 671.9
Q 684.9 658 704.6 658 724.3 658 738.2 671.9 752.1 685.8 752.1 705.5 752.1 725.2 738.2 739.1 724.3 753 704.6 753 684.9 753 671 739.1 657.1 725.2 657.1 705.5 657.1 685.8 671 671.9 Z"/>

<path fill="#7E57C2" stroke="none" d="
M 802.4 512
Q 802.4 460.25 786.65 415
L 607.9 415 607.9 610 802.35 610 802.4 512 Z"/>
</g>
</defs>

<g transform="matrix( 1, 0, 0, 1, 0,0) ">
<use xlink:href="#Layer4_0_FILL"/>
</g>

<g transform="matrix( 1, 0, 0, 1, 0,0) ">
<use xlink:href="#Layer3_0_FILL"/>
</g>

<g transform="matrix( 1, 0, 0, 1, 0,0) ">
<use xlink:href="#Layer2_0_FILL"/>
</g>

<g transform="matrix( 1, 0, 0, 1, 0,0) ">
<use xlink:href="#Layer0_0_FILL"/>
</g>
</svg>
