
<svg xmlns="http://www.w3.org/2000/svg" version="1.1" xmlns:xlink="http://www.w3.org/1999/xlink" preserveAspectRatio="none" x="0px" y="0px" width="1024px" height="1024px" viewBox="0 0 1024 1024">
<defs>
<g id="Layer5_0_FILL">
<path fill="#000000" fill-opacity="0.09803921568627451" stroke="none" d="
M 969.6 351.25
Q 961 330.4 950.2 310.4 944.1 299.05 937.3 288 907.95 240.45 865.75 198.2 727.5 59.95 531.95 59.95 336.45 59.95 198.2 198.2 59.95 336.45 59.95 531.95 59.95 727.5 198.2 865.75 336.45 1003.95 531.95 1003.95 727.5 1003.95 865.75 865.75 941.9 789.55 976.1 696 1003.95 619.75 1003.95 531.95 1003.95 464.6 987.55 404 985.7 397.15 983.65 390.4 977.5 370.45 969.6 351.25 Z"/>
</g>

<g id="Layer3_0_FILL">
<path fill="#CFB7B7" stroke="none" d="
M 510.15 542.9
L 246.45 686.1 492 839.7 510.15 542.9
M 511 529.25
L 510.15 542.9 511 542.45 511 529.25
M 511 316.7
L 511 40
Q 497.4 40.05 484.1 40.75 306.55 49.95 178.25 178.25 40 316.5 40 512 40 650.65 109.5 760.5
L 246.45 686.1 242.25 683.45 242.25 316.7 511 316.7 Z"/>

<path fill="#EDD1D1" stroke="none" d="
M 246.45 686.1
L 109.5 760.5
Q 138 805.55 178.25 845.8 263.05 930.55 369.35 963.35 423.9 980.15 484.1 983.3 484.3 983.3 484.5 983.3 496.65 983.9 509 984 510.5 984 512 984 527.25 984 542.1 983.2 545.6 983 549.05 982.75 579.1 980.6 607.75 975.05 619.55 972.75 631.15 969.9 751.75 939.85 845.8 845.8 886 805.55 914.55 760.5
L 512 541.9 511 542.45 510.15 542.9 492 839.7 246.45 686.1 Z"/>

<path fill="#A69393" stroke="none" d="
M 969.7 392
Q 967.95 385.15 966.05 378.4 964.55 373.1 962.9 367.9 960.4 359.9 957.6 352.05 947.85 324.5 934.45 298.4 928.65 287.05 922.15 276 891.5 224 845.8 178.25 736.8 69.25 592.15 46.2 567.65 42.3 542.1 40.85 527.2 40 512 40 511.5 40 511 40
L 511 316.7 242.25 316.7 242.25 683.45 246.45 686.1 510.15 542.9 511 529.25 511 542.45 512 541.9 914.55 760.5
Q 937.7 723.85 953.15 684 980.9 612.4 983.7 530.5 984 521.3 984 512 984 511 984 510 984 509.5 984 509 983.65 447.7 969.7 392 Z"/>
</g>

<g id="Layer0_0_FILL">
<path fill="#FB536A" stroke="none" d="
M 636.05 531.55
L 620 426.25 363.5 571.5 377.6 664.7
Q 378.35 668.85 379.1 672.9 379.45 674.75 379.85 676.7
L 636.05 531.55 Z"/>

<path fill="#FAEA08" stroke="none" d="
M 607.45 343.4
Q 606.15 335.9 604.55 328.65 603.9 325.15 602.95 321.8 602.9 321.65 602.85 321.45
L 347.5 466
Q 347.45 466.2 347.5 466.35 347.65 467.45 347.85 468.55 347.85 468.7 347.85 468.9
L 363.5 571.5 620 426.25 607.45 343.4 Z"/>

<path fill="#19CC59" stroke="none" d="
M 553 223.2
Q 551.75 221.75 550.5 220.35 523.65 190.65 485.25 169.8
L 234.15 316.7
Q 269.9 339.55 294.6 365.15 295.9 366.5 297.3 367.9 300.9 371.95 304.4 375.9
L 559.75 231.35
Q 557.65 228.7 555.4 226.1 554.25 224.6 553 223.2 Z"/>

<path fill="#A0EA48" stroke="none" d="
M 592.7 289.25
Q 584.2 267.6 572.05 248.6 566.4 239.85 559.95 231.65 559.8 231.45 559.75 231.35
L 304.4 375.9
Q 304.5 376 304.6 376.2 313 386 319.8 396.3 331.9 414.35 339.05 433.7 340.45 437.5 341.75 441.4 344 448.8 345.65 456.35 346.75 461.15 347.5 466
L 602.85 321.45
Q 602.65 320.5 602.4 319.55 600.95 313.7 599.2 308 597.55 302.7 595.8 297.6 594.3 293.35 592.7 289.25 Z"/>

<path fill="#C038CF" stroke="none" d="
M 673.85 623.9
Q 672.15 621.75 670.5 619.45 670.55 619.4 670.5 619.4 668.8 617.1 667.2 614.8 665.35 612.15 663.6 609.5 657.7 600.25 653 590.85 649.8 584.3 647.25 577.7 647.05 577.15 646.9 576.65 644.8 571.3 643.1 565.8 639 552.85 637.2 539.25
L 636.05 531.55 379.85 676.7
Q 383.55 694.2 389.15 710.35 391.25 716.35 393.7 722.3 396.35 728.75 399.3 735 403.5 743.75 408.3 751.95 408.65 752.55 409.1 753.25 411.1 756.75 413.35 760 414.4 761.7 415.5 763.4 415.55 763.45 415.55 763.5 417.4 766.35 419.45 769.05
L 613.95 659 673.85 623.9 Z"/>

<path fill="#4F34CA" stroke="none" d="
M 678.85 630
Q 676.2 627 673.85 623.9
L 613.95 659 419.45 769.05
Q 421.35 771.7 423.35 774.3 427.4 779.65 431.85 784.65 432.5 785.4 433.25 786.25 460.4 816.95 499.75 838.3
L 750.85 691.45
Q 713.8 667.75 688.7 641.15 687.55 640 686.45 638.8 682.45 634.45 678.85 630 Z"/>
</g>
</defs>

<g transform="matrix( 1, 0, 0, 1, 0,0) ">
<use xlink:href="#Layer5_0_FILL"/>
</g>

<g transform="matrix( 1, 0, 0, 1, 0,0) ">
<use xlink:href="#Layer3_0_FILL"/>
</g>

<g transform="matrix( 1, 0, 0, 1, 0,0) ">
<use xlink:href="#Layer0_0_FILL"/>
</g>
</svg>
