<?xml version="1.0" encoding="utf-8"?>
<!-- Generator: flash2svg, http://dissentgraphics.com/tools/flash2svg -->
<svg xmlns:xlink="http://www.w3.org/1999/xlink" id="Apps-GrowlHardwareGrowler" image-rendering="optimizeSpeed" baseProfile="basic" version="1.1" style="background-color:#ffffff" x="0px" y="0px" width="1024px" height="1024px" viewBox="0 0 1024 1024" enable-background="new 0 0 1024 1024" xmlns="http://www.w3.org/2000/svg">
  <defs transform="matrix(1 0 0 1 0 0) "/>
  <g id="shadow">
    <g id="shape">
      <path id="path" fill="#000000" fill-opacity="0.09803921568627451" d="M969.65,351.3 Q961.05,330.45 950.25,310.45 C946.2,302.9 941.9,295.4 937.35,288.05 917.8,256.35 893.95,226.4 865.8,198.25 773.65,106.1 662.35,60 532,60 401.65,60 290.4,106.1 198.25,198.25 106.1,290.4 60,401.65 60,532 60,662.35 106.1,773.65 198.25,865.8 290.4,957.95 401.65,1004 532,1004 662.35,1004 773.65,957.95 865.8,865.8 916.55,815 953.35,758.4 976.15,696.05 994.7,645.2 1004,590.55 1004,532 1004,487.1 998.55,444.45 987.6,404.05 986.35,399.5 985.05,394.95 983.7,390.45 979.6,377.15 974.9,364.1 969.65,351.3z"/>
    </g>
  </g>
  <g id="bg">
    <g id="shape2">
      <path id="path1" fill="#DFC066" fill-opacity="1" d="M929.85,289.65 C927.5,285.3 924.9,280.65 922.2,276.05 901.9,241.55 876.4,208.85 845.85,178.3 773.25,105.7 688.7,61.65 592.2,46.25 575.95,43.65 559.4,41.85 542.15,40.9 532.45,40.35 522.3,40.05 512.05,40.05 502.7,40.05 493.45,40.3 484.15,40.8 365.8,46.9 263.85,92.75 178.3,178.3 157.8,198.8 139.55,220.25 123.6,242.7 108.25,264.25 95.05,286.7 84,309.9 L83.975,309.875 Q40.05,401.873 40.05,512.05 C40.05,642.4 86.15,753.7 178.3,845.85 235,902.5 298.85,941.75 369.4,963.4 406.15,974.65 444.2,981.25 484.15,983.35 484.3,983.35 484.4,983.35 484.55,983.35 493.05,983.8 501.15,984.05 509.05,984.05 510.25,984.05 511.15,984.05 512.05,984.05 522.35,984.05 532.55,983.75 542.15,983.25 544.65,983.1 546.9,982.95 549.1,982.8 569.3,981.35 589,978.75 607.8,975.1 615.75,973.55 623.6,971.8 631.2,969.95 712,949.65 783.35,908.35 845.85,845.85 894.45,797.25 930.25,743.35 953.2,684.05 971.65,636.4 981.85,585.25 983.75,530.55 983.95,524.5 984.05,518.3 984.05,512.05 984.05,511.4 984.05,510.7 984.05,510.05 984.05,509.7 984.05,509.4 984.05,509.05 983.85,468.4 979.1,429.55 969.75,392.05 968.65,387.7 967.4,383.05 966.1,378.45 965.1,375.05 964.1,371.6 962.95,367.95 961.35,362.8 959.55,357.45 957.65,352.1 952.6,337.85 946.8,323.85 940.2,309.95 938.35,306.15 936.45,302.3 934.5,298.45 933.05,295.6 931.55,292.75 929.85,289.65z"/>
    </g>
  </g>
  <g id="bg1">
    <g id="shape4">
      <path id="path2" fill="#000000" fill-opacity="0.2" d="M979.45,581.65 L672.05,274.25 544.975,347.975 485.05,288.05 348.65,401.05 447.375,499.775 435.925,523.475 365.625,453.175 226.8,563.05 315.15,651.4 334.35,782.65 535.275,983.575 Q538.724,983.435 542.15,983.25 C544.65,983.1 546.9,982.95 549.1,982.8 569.3,981.35 589,978.75 607.8,975.1 615.75,973.55 623.6,971.8 631.2,969.95 712,949.65 783.35,908.35 845.85,845.85 894.45,797.25 930.25,743.35 953.2,684.05 965.8,651.55 974.55,617.45 979.45,581.65z"/>
    </g>
  </g>
  <g id="Calque.__209">
    <g id="shape6">
      <path id="path3" fill="#734D89" fill-opacity="1" d="M781.8,414.95 C781.95,411.7 782.05,408.4 782.05,405.05 782.05,401.7 781.95,398.35 781.8,395.05 L781.8,414.95z"/>
    </g>
  </g>
  <g id="Calque.__210">
    <g id="shape8">
      <path id="path4" fill="#333333" fill-opacity="1" d="M674.15,276.3 C672.1,274.25 670.05,272.35 667.9,270.55 651.85,257.1 633.05,250.35 611.4,250.35 586.9,250.35 566,259 548.7,276.3 537.85,287.15 530.4,299.35 526.35,312.9 524.85,317.95 523.8,323.15 523.25,328.45 522.9,331.95 522.7,335.45 522.7,339.05 522.7,363.55 531.35,384.45 548.7,401.75 557.4,410.45 567,417 577.6,421.35 581.95,423.15 586.45,424.55 591.25,425.65 597.6,427.05 604.35,427.75 611.4,427.75 617.75,427.75 623.8,427.15 629.65,426 631.1,425.7 632.6,425.4 634.05,425.05 637,424 639.95,423.1 642.95,422.25 644.6,421.6 646.2,420.95 647.8,420.25 657.35,415.9 666.15,409.75 674.15,401.75 680.1,395.8 685.05,389.35 689,382.5 696.4,369.55 700.1,355.1 700.1,339.05 700.1,335.2 699.9,331.5 699.45,327.85 698.9,322.95 698,318.2 696.65,313.65 692.6,299.75 685.1,287.3 674.15,276.3z M819.45,491.85 C818.9,486.95 818,482.2 816.65,477.65 812.6,463.75 805.1,451.3 794.15,440.3 792.1,438.25 790.05,436.35 787.9,434.55 771.85,421.1 753.05,414.35 731.4,414.35 706.9,414.35 686,423 668.7,440.3 657.85,451.15 650.4,463.35 646.35,476.9 644.85,481.95 643.8,487.15 643.25,492.45 642.9,495.95 642.7,499.45 642.7,503.05 642.7,527.55 651.35,548.45 668.7,565.75 677.4,574.45 687,581 697.6,585.35 701.95,587.15 706.45,588.55 711.25,589.65 717.6,591.05 724.35,591.75 731.4,591.75 737.75,591.75 743.8,591.15 749.65,590 751.1,589.7 752.6,589.4 754.05,589.05 757,588 759.95,587.1 762.95,586.25 764.6,585.6 766.2,584.95 767.8,584.25 777.35,579.9 786.15,573.75 794.15,565.75 800.1,559.8 805.05,553.35 809,546.5 816.4,533.55 820.1,519.1 820.1,503.05 820.1,499.2 819.9,495.5 819.45,491.85z M653.8,607.2 C651.9,606.55 650,605.95 648.1,605.4 647,605 646,604.55 644.95,604.1 638.8,601.3 633.15,597.35 628,592.2 624.15,588.35 620.95,584.2 618.45,579.8 615.1,574.05 613,567.8 611.9,560.65 609.7,535.85 599.6,514.45 581.6,496.45 562,476.85 538.3,467.05 510.55,467.05 482.8,467.05 459.1,476.85 439.45,496.45 421.1,514.85 411.3,536.8 410.2,562.05 408.3,573.55 403,583.65 394.25,592.35 388.65,597.95 382.5,602.2 375.65,605 372.65,605.75 369.75,606.7 366.9,607.75 353.25,612.75 340.8,620.8 329.65,631.95 309.4,652.2 299.25,676.65 299.25,705.25 299.25,733.9 309.4,758.3 329.65,778.55 349.9,798.8 374.3,808.9 402.95,808.9 428.25,808.9 450.3,801 469.05,785.2 471.55,783.05 473.9,780.9 476.25,778.55 476.3,778.5 476.35,778.45 476.45,778.4 486.35,770.65 497.95,766.75 511.1,766.75 524.35,766.75 535.95,770.7 545.95,778.55 548.35,780.95 550.75,783.15 553.05,785.1 572,801.05 594,808.9 619.25,808.9 647.9,808.9 672.3,798.8 692.55,778.55 712.8,758.3 722.9,733.9 722.9,705.25 722.9,676.65 712.8,652.2 692.55,631.95 681.95,621.35 670.2,613.5 657.3,608.45 Q655.55,607.8 653.8,607.2z M475.75,277.3 C458.45,260 437.55,251.35 413.05,251.35 391.4,251.35 372.6,258.1 356.55,271.55 354.4,273.35 352.35,275.25 350.3,277.3 339.35,288.3 331.85,300.75 327.8,314.65 326.45,319.2 325.55,323.95 325,328.85 324.55,332.5 324.35,336.2 324.35,340.05 324.35,356.1 328.05,370.55 335.45,383.5 339.4,390.35 344.35,396.8 350.3,402.75 358.3,410.75 367.1,416.9 376.65,421.25 378.25,421.95 379.85,422.6 381.5,423.25 384.5,424.1 387.45,425 390.4,426.05 391.85,426.4 393.35,426.7 394.8,427 400.65,428.15 406.7,428.75 413.05,428.75 420.1,428.75 426.85,428.05 433.2,426.65 438,425.55 442.5,424.15 446.85,422.35 457.45,418 467.05,411.45 475.75,402.75 493.1,385.45 501.75,364.55 501.75,340.05 501.75,336.45 501.55,332.95 501.2,329.45 500.65,324.15 499.6,318.95 498.1,313.9 494.05,300.35 486.6,288.15 475.75,277.3z M236.55,435.55 C234.4,437.35 232.35,439.25 230.3,441.3 219.35,452.3 211.85,464.75 207.8,478.65 206.45,483.2 205.55,487.95 205,492.85 204.55,496.5 204.35,500.2 204.35,504.05 204.35,520.1 208.05,534.55 215.45,547.5 219.4,554.35 224.35,560.8 230.3,566.75 238.3,574.75 247.1,580.9 256.65,585.25 258.25,585.95 259.85,586.6 261.5,587.25 264.5,588.1 267.45,589 270.4,590.05 271.85,590.4 273.35,590.7 274.8,591 280.65,592.15 286.7,592.75 293.05,592.75 300.1,592.75 306.85,592.05 313.2,590.65 318,589.55 322.5,588.15 326.85,586.35 337.45,582 347.05,575.45 355.75,566.75 373.1,549.45 381.75,528.55 381.75,504.05 381.75,500.45 381.55,496.95 381.2,493.45 380.65,488.15 379.6,482.95 378.1,477.9 374.05,464.35 366.6,452.15 355.75,441.3 338.45,424 317.55,415.35 293.05,415.35 271.4,415.35 252.6,422.1 236.55,435.55z"/>
    </g>
  </g>
</svg>