
<svg xmlns="http://www.w3.org/2000/svg" version="1.1" xmlns:xlink="http://www.w3.org/1999/xlink" preserveAspectRatio="none" x="0px" y="0px" width="1024px" height="1024px" viewBox="0 0 1024 1024">
<defs>
<g id="Layer4_0_FILL">
<path fill="#000000" fill-opacity="0.09803921568627451" stroke="none" d="
M 969.6 351.25
Q 961 330.4 950.2 310.4 944.1 299.05 937.3 288 907.95 240.45 865.75 198.2 727.5 59.95 531.95 59.95 336.45 59.95 198.2 198.2 59.95 336.45 59.95 531.95 59.95 727.5 198.2 865.75 336.45 1003.95 531.95 1003.95 727.5 1003.95 865.75 865.75 941.9 789.55 976.1 696 1003.95 619.75 1003.95 531.95 1003.95 464.6 987.55 404 985.7 397.15 983.65 390.4 977.5 370.45 969.6 351.25 Z"/>
</g>

<g id="Layer3_0_FILL">
<path fill="#6C5CE7" stroke="none" d="
M 969.7 392
Q 967.95 385.15 966.05 378.4 964.52578125 373.114453125 962.85 367.85 960.3787109375 359.903125 957.6 352.05 947.85 324.5 934.45 298.4 928.65 287.05 922.15 276 891.5 224 845.8 178.25 736.8 69.25 592.15 46.2 567.65 42.3 542.1 40.85 527.2 40 512 40 497.9 40 484.1 40.75 306.55 49.95 178.25 178.25 40 316.5 40 512 40 707.55 178.25 845.8 263.0400390625 930.55703125 369.35 963.35 423.8880859375 980.1630859375 484.1 983.3 484.3 983.3 484.5 983.3 496.65 983.9 509 984 510.5 984 512 984 527.25 984 542.1 983.2 545.6 983 549.05 982.75 579.1 980.6 607.75 975.05 619.55 972.75 631.15 969.9 751.75 939.85 845.8 845.8 918.7 772.85 953.15 684 980.9 612.4 983.7 530.5 984 521.3 984 512 984 511 984 510 984 509.5 984 509 983.65 447.7 969.7 392 Z"/>
</g>

<g id="Layer2_0_FILL">
<path fill="#000000" fill-opacity="0.2" stroke="none" d="
M 691 536.25
L 691 562.4 419 290.4 227.4 484 275.1 531.7 288.5 756 516.45 983.95
Q 529.43671875 983.8822265625 542.1 983.2 545.6 983 549.05 982.75 579.1 980.6 607.75 975.05 619.55 972.75 631.15 969.9 751.75 939.85 845.8 845.8 918.7 772.85 953.15 684 966.1396484375 650.4845703125 973.65 614.7
L 566 207.05 459.75 305 691 536.25 Z"/>
</g>

<g id="Layer0_0_FILL">
<path fill="#FFFFFF" stroke="none" d="
M 400.05 283.95
Q 387.2 283.95 378.15 293.05
L 229.15 442.05
Q 220.05 451.1 220.05 463.95 220.05 476.8 229.15 485.9 238.2 494.95 251.05 494.95 263.9 494.95 273 485.9
L 275 483.85 275 717
Q 275 768 326 768
L 404 768
Q 416.85 768 425.95 758.95 435 749.85 435 737 435 724.15 425.95 715.1 416.85 706 404 706
L 337 706 337 421.85 422 336.9
Q 431.05 327.8 431.05 314.95 431.05 302.1 422 293.05 412.9 283.95 400.05 283.95
M 462.9 206.15
Q 441.75 227.3 441.75 257.25 441.75 287.2 462.9 308.35 484.05 329.5 514 329.5 543.95 329.5 565.1 308.35 586.25 287.2 586.25 257.25 586.25 227.3 565.1 206.15 543.95 185 514 185 484.05 185 462.9 206.15
M 793.95 485.9
Q 803 476.8 803 463.95 803 451.1 793.95 442.05
L 644.95 293.05
Q 635.85 283.95 623 283.95 610.15 283.95 601.1 293.05 592 302.1 592 314.95 592 327.8 601.1 336.9
L 691 426.8 691 706 604.1 706
Q 603.85 706 603.55 706 575.3 706.5 560.35 693.6 546.8 677.95 546 647.15
L 546 431.95
Q 546 419.1 536.95 410.05 527.85 400.95 515 400.95 502.15 400.95 493.1 410.05 484 419.1 484 431.95
L 484 647.9
Q 484 648.2 484 648.7 485.5 708.55 516.5 737.45 546.05 769.05 604.65 768
L 702 768
Q 753 768 753 717
L 753 488.5
Q 761.15 494.95 772 494.95 784.85 494.95 793.95 485.9 Z"/>
</g>
</defs>

<g transform="matrix( 1, 0, 0, 1, 0,0) ">
<use xlink:href="#Layer4_0_FILL"/>
</g>

<g transform="matrix( 1, 0, 0, 1, 0,0) ">
<use xlink:href="#Layer3_0_FILL"/>
</g>

<g transform="matrix( 1, 0, 0, 1, 0,0) ">
<use xlink:href="#Layer2_0_FILL"/>
</g>

<g transform="matrix( 1, 0, 0, 1, 0,0) ">
<use xlink:href="#Layer0_0_FILL"/>
</g>
</svg>
