<?xml version="1.0" encoding="utf-8"?>
<!-- Generator: flash2svg, http://dissentgraphics.com/tools/flash2svg -->
<svg xmlns:xlink="http://www.w3.org/1999/xlink" id="Apps-Paw" image-rendering="optimizeSpeed" baseProfile="basic" version="1.1" style="background-color:#ffffff" x="0px" y="0px" width="1024px" height="1024px" viewBox="0 0 1024 1024" enable-background="new 0 0 1024 1024" xmlns="http://www.w3.org/2000/svg">
  <defs transform="matrix(1 0 0 1 0 0) "/>
  <g id="shadow">
    <g id="shape">
      <path id="path" fill="#000000" fill-opacity="0.09803921568627451" d="M969.65,351.3 Q961.05,330.45 950.25,310.45 C946.2,302.9 941.9,295.4 937.35,288.05 917.8,256.35 893.95,226.4 865.8,198.25 773.65,106.1 662.35,60 532,60 401.65,60 290.4,106.1 198.25,198.25 106.1,290.4 60,401.65 60,532 60,662.35 106.1,773.65 198.25,865.8 290.4,957.95 401.65,1004 532,1004 662.35,1004 773.65,957.95 865.8,865.8 916.55,815 953.35,758.4 976.15,696.05 994.7,645.2 1004,590.55 1004,532 1004,487.1 998.55,444.45 987.6,404.05 986.35,399.5 985.05,394.95 983.7,390.45 979.6,377.15 974.9,364.1 969.65,351.3z"/>
    </g>
  </g>
  <g id="circle">
    <g id="shape2">
      <path id="path1" fill="#FFFFFF" fill-opacity="1" d="M969.75,392.05 C968.65,387.7 967.4,383.05 966.1,378.45 963.6,369.7 960.75,360.85 957.65,352.1 951.2,333.85 943.5,316.05 934.5,298.45 930.7,291.05 926.55,283.5 922.2,276.05 901.9,241.55 876.4,208.85 845.85,178.3 773.25,105.7 688.7,61.65 592.2,46.25 575.95,43.65 559.4,41.85 542.15,40.9 532.45,40.35 522.3,40.05 512.05,40.05 502.7,40.05 493.45,40.3 484.15,40.8 365.8,46.9 263.85,92.75 178.3,178.3 Q40.05,316.55 40.05,512.05 C40.05,642.4 86.15,753.7 178.3,845.85 258.45,925.95 353.05,971.25 461.65,981.65 469.3,982.4 476.7,982.95 484.15,983.35 484.3,983.35 484.4,983.35 484.55,983.35 493.05,983.8 501.15,984.05 509.05,984.05 510.25,984.05 511.15,984.05 512.05,984.05 522.35,984.05 532.55,983.75 542.15,983.25 544.65,983.1 546.9,982.95 549.1,982.8 569.3,981.35 589,978.75 607.8,975.1 615.75,973.55 623.6,971.8 631.2,969.95 712,949.65 783.35,908.35 845.85,845.85 894.45,797.25 930.25,743.35 953.2,684.05 971.65,636.4 981.85,585.25 983.75,530.55 983.9,526.15 983.95,521.7 984.05,517.05 984.05,515.45 984.05,513.75 984.05,512.05 984.05,511.4 984.05,510.7 984.05,510.05 984.05,509.7 984.05,509.4 984.05,509.05 983.85,468.4 979.1,429.55 969.75,392.05z M772.25,772.25 C700.4,844.1 613.65,880.05 512.05,880.05 410.45,880.05 323.65,844.1 251.8,772.25 179.95,700.4 144.05,613.65 144.05,512.05 144.05,410.45 179.95,323.65 251.8,251.8 323.65,179.95 410.45,144.05 512.05,144.05 613.65,144.05 700.4,179.95 772.25,251.8 844.1,323.65 880.05,410.45 880.05,512.05 880.05,613.65 844.1,700.4 772.25,772.25z"/>
    </g>
  </g>
  <g id="Calque.__204">
    <g id="shape7">
      <path id="path5" fill="#0099CC" fill-opacity="1" d="M772.25,772.25 Q880.05,664.5 880.05,512.05 C880.05,410.45 844.1,323.65 772.25,251.8 700.4,179.95 613.65,144.05 512.05,144.05 410.45,144.05 323.65,179.95 251.8,251.8 179.95,323.65 144.05,410.45 144.05,512.05 144.05,613.65 179.95,700.4 251.8,772.25 323.65,844.1 410.45,880.05 512.05,880.05 613.65,880.05 700.4,844.1 772.25,772.25z"/>
    </g>
  </g>
  <g id="circle1">
    <g id="shape9">
      <path id="path6" fill="#000000" fill-opacity="0.2" d="M880.05,512.05 C880.05,509.3 880,506.6 880,503.75 L879.975,503.725 L625.05,248.8 547.8,371.05 490.05,313.3 378.3,407.05 455.05,483.8 449.4,507.05 394.4,452.05 294.275,552.925 351.6,610.25 364.2,718.05 525.975,879.825 L526,879.85 C621.75,876.6 703.75,840.75 772.25,772.25 Q880.05,664.5 880.05,512.05z"/>
    </g>
  </g>
  <g id="circle2">
    <g id="shape11">
      <path id="path7" fill="#FFFFFF" fill-opacity="1" d="M657.05,391.4 C663.1,380.8 666.15,368.95 666.15,355.75 666.15,352.6 666,349.6 665.6,346.6 665.15,342.55 664.45,338.65 663.35,334.95 660,323.55 653.85,313.35 644.85,304.3 643.2,302.6 641.5,301.05 639.75,299.6 637.45,297.65 635.05,295.85 632.3,294.05 L625.05,248.8 597.2,283.1 C596.15,283.05 594.8,283 593.4,283 573.3,283 556.15,290.1 542,304.3 533.1,313.2 527,323.2 523.65,334.3 522.45,338.45 521.55,342.75 521.1,347.05 520.85,349.95 520.65,352.8 520.65,355.75 520.65,375.85 527.75,393 542,407.2 549.1,414.35 557,419.7 565.7,423.25 569.25,424.75 572.95,425.9 576.9,426.8 582.1,427.95 587.65,428.5 593.4,428.5 598.6,428.5 603.6,428 608.4,427.1 609.55,426.85 610.8,426.6 612,426.3 614.4,425.45 616.85,424.7 619.3,424 620.65,423.45 621.95,422.95 623.25,422.35 631.1,418.8 638.3,413.75 644.85,407.2 649.75,402.3 653.8,397 657.05,391.4z M764.6,490.25 C764.6,487.1 764.4,484.1 764.05,481.1 763.6,477.05 762.85,473.15 761.75,469.45 758.9,459.55 753.85,450.55 746.5,442.2 L751.55,393.6 714.05,420.8 C707.4,418.7 699.85,417.55 691.85,417.55 671.75,417.55 654.6,424.6 640.4,438.8 631.5,447.7 625.4,457.7 622.05,468.85 620.85,472.95 620,477.25 619.55,481.6 619.25,484.45 619.1,487.3 619.1,490.25 619.1,510.35 626.2,527.5 640.4,541.7 647.55,548.85 655.4,554.2 664.1,557.75 667.7,559.25 671.35,560.4 675.3,561.3 680.5,562.45 686.05,563 691.85,563 697.05,563 702,562.55 706.8,561.6 708,561.35 709.2,561.1 710.4,560.8 712.85,559.95 715.25,559.2 717.7,558.5 719.05,558 720.35,557.45 721.7,556.85 729.5,553.3 736.75,548.25 743.3,541.7 748.15,536.8 752.25,531.55 755.45,525.9 761.55,515.3 764.6,503.45 764.6,490.25z M684.85,656.1 C684.85,632.65 676.55,612.6 659.95,596 651.25,587.3 641.65,580.85 631.05,576.7 Q629.6,576.2 628.2,575.7 C626.65,575.15 625.05,574.65 623.5,574.2 622.6,573.9 621.8,573.5 620.95,573.15 615.9,570.85 611.25,567.6 607,563.4 603.85,560.25 601.25,556.85 599.2,553.2 596.45,548.5 594.7,543.4 593.8,537.5 592,517.2 583.75,499.6 568.95,484.85 552.9,468.8 533.45,460.75 510.7,460.75 487.95,460.75 468.5,468.8 452.4,484.85 437.35,499.95 429.3,517.95 428.4,538.65 426.85,548.1 422.5,556.4 415.3,563.5 410.7,568.1 405.7,571.6 400.05,573.9 397.6,574.5 395.2,575.3 392.9,576.15 381.7,580.25 371.45,586.85 362.35,596 345.7,612.6 337.4,632.65 337.4,656.1 337.4,679.6 345.7,699.6 362.35,716.25 378.95,732.85 398.95,741.1 422.45,741.1 443.2,741.1 461.3,734.65 476.65,721.7 478.7,719.9 480.65,718.15 482.55,716.25 482.6,716.2 482.65,716.15 482.75,716.1 490.85,709.75 500.35,706.55 511.15,706.55 522,706.55 531.55,709.8 539.75,716.25 541.7,718.2 543.65,720 545.55,721.6 561.1,734.7 579.15,741.1 599.85,741.1 623.35,741.1 643.35,732.85 659.95,716.25 676.55,699.6 684.85,679.6 684.85,656.1z M430.75,283.85 C429.55,283.85 428.4,283.85 427.1,283.95 L398.55,248.8 391.15,295.4 C388.75,296.95 386.55,298.6 384.4,300.4 382.65,301.9 380.95,303.45 379.25,305.1 370.3,314.15 364.15,324.35 360.8,335.75 359.7,339.5 358.95,343.4 358.5,347.4 358.15,350.4 358,353.45 358,356.6 358,369.75 361,381.6 367.1,392.2 370.35,397.85 374.4,403.15 379.25,408 385.85,414.55 393.05,419.6 400.9,423.2 402.2,423.75 403.5,424.3 404.85,424.85 407.3,425.5 409.75,426.25 412.15,427.1 413.35,427.4 414.55,427.65 415.75,427.9 420.55,428.85 425.5,429.35 430.75,429.35 436.5,429.35 442.05,428.75 447.25,427.6 451.2,426.7 454.9,425.55 458.45,424.1 467.15,420.5 475,415.15 482.15,408 496.4,393.8 503.5,376.7 503.5,356.6 503.5,353.65 503.3,350.75 503.05,347.9 502.6,343.55 501.7,339.3 500.5,335.15 497.15,324.05 491.05,314 482.15,305.1 467.95,290.95 450.85,283.85 430.75,283.85z M260.1,481.9 C259.75,484.9 259.55,487.95 259.55,491.1 259.55,504.25 262.6,516.1 268.65,526.75 271.9,532.35 275.95,537.65 280.85,542.5 287.4,549.1 294.65,554.1 302.45,557.7 303.75,558.25 305.1,558.8 306.45,559.35 308.9,560.05 311.3,560.75 313.75,561.65 314.9,561.9 316.15,562.15 317.35,562.4 322.15,563.35 327.1,563.85 332.3,563.85 338.1,563.85 343.65,563.25 348.85,562.1 352.75,561.2 356.45,560.05 360.05,558.6 368.75,555.05 376.6,549.65 383.75,542.5 397.95,528.35 405.05,511.2 405.05,491.1 405.05,488.15 404.9,485.25 404.6,482.4 404.15,478.05 403.3,473.8 402.05,469.65 398.75,458.55 392.65,448.55 383.75,439.65 369.55,425.45 352.4,418.35 332.3,418.35 324.55,418.35 317.2,419.4 310.4,421.5 L271.85,393.6 277.1,443.7 C270.1,451.7 265.2,460.55 262.4,470.25 261.3,474 260.55,477.9 260.1,481.9z"/>
    </g>
  </g>
</svg>