<?xml version="1.0" encoding="utf-8"?>
<!-- Generator: flash2svg, http://dissentgraphics.com/tools/flash2svg -->
<svg xmlns:xlink="http://www.w3.org/1999/xlink" id="Launchpad" image-rendering="optimizeSpeed" baseProfile="basic" version="1.1" style="background-color:#ffffff" x="0px" y="0px" width="1024px" height="1024px" viewBox="0 0 1024 1024" enable-background="new 0 0 1024 1024" xmlns="http://www.w3.org/2000/svg">
  <defs transform="matrix(1 0 0 1 0 0) "/>
  <g id="shadow">
    <g id="shape">
      <path id="path" fill="#000000" fill-opacity="0.09803921568627451" d="M957.65,339.3 Q949.037,318.427 938.25,298.45 C934.2,290.9 929.9,283.4 925.35,276.05 905.8,244.35 881.95,214.4 853.8,186.25 761.65,94.1 650.35,48 520,48 389.65,48 278.4,94.1 186.25,186.25 94.1,278.4 48,389.65 48,520 48,650.35 94.1,761.65 186.25,853.8 278.4,945.95 389.65,992 520,992 650.35,992 761.65,945.95 853.8,853.8 904.55,803 941.35,746.4 964.15,684.05 982.7,633.2 992,578.55 992,520 992,475.1 986.55,432.45 975.6,392.05 974.35,387.5 973.05,382.95 971.7,378.45 967.6,365.15 962.9,352.1 957.65,339.3z"/>
    </g>
  </g>
  <g id="circle">
    <g id="shape2">
      <path id="path1" fill="#363F6A" fill-opacity="1" d="M969.75,392.05 C968.65,387.7 967.4,383.05 966.1,378.45 963.6,369.7 960.75,360.85 957.65,352.1 951.2,333.85 943.5,316.05 934.5,298.45 930.7,291.05 926.55,283.5 922.2,276.05 L922.175,276.05 Q891.574,224.04 845.85,178.3 C753.7,86.15 642.4,40.05 512.05,40.05 381.7,40.05 270.45,86.15 178.3,178.3 86.15,270.45 40.05,381.7 40.05,512.05 40.05,642.4 86.15,753.7 178.3,845.85 270.45,938 381.7,984.05 512.05,984.05 524.75,984.05 537.25,983.6 549.1,982.8 569.3,981.35 589,978.75 607.8,975.1 615.75,973.55 623.6,971.8 631.2,969.95 712,949.65 783.35,908.35 845.85,845.85 894.45,797.25 930.25,743.35 953.2,684.05 971.65,636.4 981.85,585.25 983.75,530.55 983.95,524.5 984.05,518.3 984.05,512.05 984.05,470.3 979.35,430.45 969.75,392.05z"/>
    </g>
  </g>
  <g id="Calque.__202">
    <g id="shape4">
      <path id="path2" fill="#7885B8" fill-opacity="1" d="M788.5,232.5 Q792.05,229 792.05,224.05 C792.05,220.75 790.85,217.9 788.5,215.55 786.15,213.2 783.35,212.05 780.05,212.05 776.75,212.05 773.9,213.2 771.55,215.55 769.2,217.9 768.05,220.75 768.05,224.05 768.05,227.35 769.2,230.15 771.55,232.5 773.9,234.85 776.75,236.05 780.05,236.05 783.35,236.05 786.15,234.85 788.5,232.5z M881.7,591.7 C883.25,590.15 884.05,588.25 884.05,586.05 884.05,583.85 883.25,581.95 881.7,580.4 880.15,578.85 878.25,578.05 876.05,578.05 873.85,578.05 871.95,578.85 870.4,580.4 868.85,581.95 868.05,583.85 868.05,586.05 868.05,588.25 868.85,590.15 870.4,591.7 871.95,593.25 873.85,594.05 876.05,594.05 878.25,594.05 880.15,593.25 881.7,591.7z M742.55,726.05 C737.45,726.05 733.1,727.85 729.45,731.45 725.85,735.1 724.05,739.45 724.05,744.55 724.05,749.65 725.85,754 729.45,757.6 733.1,761.25 737.45,763.05 742.55,763.05 747.65,763.05 752,761.25 755.6,757.6 759.25,754 761.05,749.65 761.05,744.55 761.05,739.45 759.25,735.1 755.6,731.45 752,727.85 747.65,726.05 742.55,726.05z M401.15,125.15 C397.75,128.6 396.05,132.7 396.05,137.55 396.05,142.4 397.75,146.5 401.15,149.9 404.6,153.35 408.7,155.05 413.55,155.05 418.4,155.05 422.5,153.35 425.9,149.9 429.35,146.5 431.05,142.4 431.05,137.55 431.05,132.7 429.35,128.6 425.9,125.15 422.5,121.75 418.4,120.05 413.55,120.05 408.7,120.05 404.6,121.75 401.15,125.15z M139,305.1 C128.95,315.15 123.9,327.3 123.9,341.55 123.9,355.8 128.95,367.95 139,378 149.05,388.05 161.2,393.1 175.45,393.1 189.7,393.1 201.85,388.05 211.9,378 221.95,367.95 227,355.8 227,341.55 227,327.3 221.95,315.15 211.9,305.1 201.85,295.05 189.7,290 175.45,290 161.2,290 149.05,295.05 139,305.1z"/>
      <path id="path3" fill="#F1F1F1" fill-opacity="1" d="M843.65,287.65 C842.6,288.7 842.05,290 842.05,291.55 842.05,293.05 842.6,294.35 843.65,295.4 844.75,296.5 846.05,297.05 847.55,297.05 849.1,297.05 850.4,296.5 851.45,295.4 852.5,294.35 853.05,293.05 853.05,291.55 853.05,290 852.5,288.7 851.45,287.65 850.4,286.6 849.1,286.05 847.55,286.05 846.05,286.05 844.75,286.6 843.65,287.65z M759.7,611.7 C761.25,610.15 762.05,608.25 762.05,606.05 762.05,603.85 761.25,601.95 759.7,600.4 758.15,598.85 756.25,598.05 754.05,598.05 751.85,598.05 749.95,598.85 748.4,600.4 746.85,601.95 746.05,603.85 746.05,606.05 746.05,608.25 746.85,610.15 748.4,611.7 749.95,613.25 751.85,614.05 754.05,614.05 756.25,614.05 758.15,613.25 759.7,611.7z M253.55,287.55 C251.2,289.9 250.05,292.7 250.05,296.05 250.05,299.35 251.2,302.15 253.55,304.5 255.9,306.85 258.7,308 262.05,308 265.35,308 268.15,306.85 270.5,304.5 272.85,302.15 274.05,299.35 274.05,296.05 274.05,292.7 272.85,289.9 270.5,287.55 268.15,285.2 265.35,284.05 262.05,284.05 258.7,284.05 255.9,285.2 253.55,287.55z"/>
    </g>
  </g>
  <g id="ico-shadow">
    <g id="shape19">
      <path id="path16" fill="#000000" fill-opacity="0.2" d="M953.2,684.05 C961.95,661.5 968.85,638.1 973.9,613.9 L973.875,613.9 L552.05,192.05 501.85,440.325 250.05,670.05 360.05,780.05 415.325,974.925 Q461.794,984.05 512.05,984.05 C524.75,984.05 537.25,983.6 549.1,982.8 569.3,981.35 589,978.75 607.8,975.1 615.75,973.55 623.6,971.8 631.2,969.95 712,949.65 783.35,908.35 845.85,845.85 894.45,797.25 930.25,743.35 953.2,684.05z"/>
    </g>
  </g>
  <mask id="circle1">
    <g id="g">
      <g id="shape21">
        <path id="path17" fill="#FFFFFF" fill-opacity="1" d="M969.75,392.05 C968.65,387.7 967.4,383.05 966.1,378.45 963.6,369.7 960.75,360.85 957.65,352.1 951.2,333.85 943.5,316.05 934.5,298.45 930.7,291.05 926.55,283.5 922.2,276.05 L922.175,276.05 Q891.574,224.04 845.85,178.3 C753.7,86.15 642.4,40.05 512.05,40.05 381.7,40.05 270.45,86.15 178.3,178.3 86.15,270.45 40.05,381.7 40.05,512.05 40.05,642.4 86.15,753.7 178.3,845.85 270.45,938 381.7,984.05 512.05,984.05 524.75,984.05 537.25,983.6 549.1,982.8 569.3,981.35 589,978.75 607.8,975.1 615.75,973.55 623.6,971.8 631.2,969.95 712,949.65 783.35,908.35 845.85,845.85 894.45,797.25 930.25,743.35 953.2,684.05 971.65,636.4 981.85,585.25 983.75,530.55 983.95,524.5 984.05,518.3 984.05,512.05 984.05,470.3 979.35,430.45 969.75,392.05z"/>
      </g>
    </g>
  </mask>
  <g id="masked" mask="url(#circle1)">
    <g id="ico">
      <g id="Symbole.__202_1" overflow="visible">
        <g id="Calque.__207">
          <g id="shape45">
            <path id="path34" fill="#90A2D8" fill-opacity="1" d="M433.547,719.803 Q359.655,719.802 359.442,793.906 L359.442,829.12 C353.078,827.352 346.361,826.433 339.29,826.432 331.441,826.432 324.087,827.564 317.157,829.756 315.531,825.23 312.844,821.129 309.132,817.417 302.45,810.734 294.354,807.376 284.878,807.376 275.403,807.375 267.307,810.734 260.625,817.416 257.231,820.81 254.685,824.558 253.059,828.659 250.089,828.164 246.942,827.916 243.76,827.916 228.628,827.916 215.724,833.255 205.011,843.967 194.334,854.715 188.995,867.619 188.995,882.751 188.995,897.883 194.333,910.788 205.01,921.465 215.723,932.178 228.627,937.517 243.759,937.517 255.426,937.517 265.821,934.335 274.872,927.971 278.266,935.113 283.003,941.76 289.049,947.806 302.943,961.7 319.701,968.63 339.288,968.63 346.5,968.63 353.324,967.676 359.759,965.837 362.728,1008.758 387.618,1030.184 433.544,1030.22 L596.212,1030.186 C645.285,1030.187 669.821,1005.651 669.822,956.578 L669.857,955.34 C679.827,959.937 690.752,962.235 702.702,962.235 724.481,962.235 743.078,954.528 758.457,939.149 769.17,928.436 776.17,916.133 779.423,902.344 783.595,903.759 788.12,904.466 792.929,904.466 804.454,904.466 814.248,900.4 822.344,892.304 830.511,884.208 834.577,874.415 834.577,862.889 834.577,851.363 830.512,841.57 822.345,833.473 814.249,825.377 804.455,821.311 792.93,821.311 781.545,821.311 771.752,825.306 763.691,833.296 762.029,831.351 760.297,829.478 758.458,827.639 743.079,812.259 724.482,804.552 702.704,804.552 690.754,804.552 679.829,806.849 669.859,811.446 L669.859,793.909 C670.072,744.554 645.324,719.805 596.18,719.805 L433.547,719.803z"/>
          </g>
        </g>
        <g id="Calque.__208">
          <g id="shape46">
            <path id="path35" fill="#D7DFFB" fill-opacity="1" d="M392.889,708.559 Q392.924,758.658 428.349,794.084 C435.88,801.614 443.941,807.978 452.532,813.105 L452.494,1042.453 C452.494,1050.726 455.393,1057.797 461.297,1063.63 467.166,1069.499 474.202,1072.434 482.475,1072.434 L546.962,1072.435 C555.235,1072.435 562.271,1069.5 568.14,1063.632 573.974,1057.798 576.943,1050.727 576.944,1042.454 L576.946,812.081 C584.866,807.131 592.361,801.121 599.397,794.085 623.014,770.469 634.823,741.973 634.823,708.597 634.824,675.152 623.015,646.655 599.398,623.038 575.782,599.421 547.286,587.612 513.84,587.611 480.465,587.611 451.968,599.419 428.351,623.036 404.734,646.653 392.925,675.149 392.889,708.559z"/>
          </g>
        </g>
        <g id="Calque.__209">
          <g id="shape47">
            <path id="path36" fill="#CCCCCC" fill-opacity="1" d="M544.532,182.252 C536.33,174.12 526.466,170.054 514.94,170.054 L514.938,352.981 C534.525,352.981 551.425,359.557 565.566,372.78 566.309,373.452 567.016,374.159 567.688,374.831 582.289,389.362 589.572,406.969 589.572,427.687 589.572,448.263 582.288,465.87 567.687,480.472 553.12,495.038 535.549,502.356 514.972,502.356 L514.971,639.25 771.577,639.253 C768.855,634.056 765.319,628.541 761.006,622.813 L684.322,546.127 C662.473,522.086 649.71,485.917 645.963,437.764 L645.929,356.765 C645.398,335.093 640.166,315.365 630.267,297.546 629.772,296.626 629.171,295.672 628.676,294.753 628.676,294.753 547.962,185.681 544.532,182.252z"/>
            <path id="path37" fill="#F1F1F1" fill-opacity="1" d="M514.834,170.019 C503.202,170.054 493.374,174.155 485.171,182.287 481.777,185.681 401.131,294.75 401.131,294.75 Q400.247,296.129 399.469,297.543 C389.57,315.362 384.337,335.09 383.842,356.798 L383.876,437.796 C380.128,485.95 367.294,522.118 345.374,546.159 L268.759,622.843 C264.41,628.535 260.874,634.05 258.293,639.248 L514.864,639.215 514.866,502.32 C494.219,502.25 476.612,494.966 462.081,480.435 461.409,479.763 460.738,479.092 460.031,478.314 446.843,464.136 440.232,447.272 440.232,427.685 440.233,406.967 447.516,389.361 462.082,374.794 476.613,360.264 494.22,352.981 514.868,352.981 L514.834,170.019z"/>
            <path id="path38" fill="#4B5277" fill-opacity="1" d="M514.938,352.981 L514.868,352.981 C494.22,352.981 476.613,360.264 462.082,374.794 447.516,389.361 440.233,406.967 440.232,427.685 440.232,447.272 446.843,464.136 460.031,478.314 460.738,479.092 461.409,479.763 462.081,480.435 476.612,494.966 494.219,502.25 514.866,502.32 L514.937,502.32 514.972,502.356 C535.549,502.356 553.12,495.038 567.687,480.472 582.288,465.87 589.572,448.263 589.572,427.687 589.572,406.969 582.289,389.362 567.688,374.831 567.016,374.159 566.309,373.452 565.566,372.78 551.425,359.557 534.525,352.981 514.938,352.981z"/>
            <path id="path39" fill="#999999" fill-opacity="1" d="M258.293,639.248 C253.025,649.394 250.621,658.799 250.975,667.638 L514.829,667.605 514.864,639.215 258.293,639.248z M514.971,639.25 L514.935,667.64 778.754,667.643 C779.072,658.769 776.668,649.365 771.577,639.253 L514.971,639.25z"/>
            <path id="path40" fill="#A4B7FC" fill-opacity="1" d="M-3.763,1122.335 C-13.132,1131.704 -17.835,1143.053 -17.835,1156.276 -17.835,1169.499 -13.133,1180.848 -3.764,1190.217 L150.382,1344.366 C159.751,1353.736 171.1,1358.438 184.323,1358.438 197.546,1358.438 208.895,1353.736 218.264,1344.367 227.633,1334.998 232.335,1323.649 232.335,1310.427 232.336,1297.204 227.634,1285.855 218.265,1276.486 L64.118,1122.336 C54.749,1112.967 43.401,1108.265 30.178,1108.265 16.955,1108.264 5.606,1112.966 -3.763,1122.335z M783.207,845.833 C785.858,843.181 787.202,839.928 787.202,836.181 787.202,832.433 785.858,829.18 783.207,826.529 780.555,823.877 777.303,822.533 773.555,822.533 769.807,822.533 766.555,823.877 763.903,826.528 761.251,829.18 759.908,832.433 759.908,836.18 759.908,839.928 761.251,843.181 763.903,845.832 766.554,848.484 769.807,849.827 773.555,849.828 777.302,849.828 780.555,848.484 783.207,845.833z M233.366,838.19 C236.371,841.195 240.013,842.715 244.255,842.715 248.568,842.715 252.175,841.231 255.145,838.19 258.15,835.185 259.635,831.579 259.635,827.336 259.635,823.023 258.15,819.417 255.145,816.411 252.14,813.406 248.533,811.921 244.22,811.921 239.978,811.921 236.371,813.406 233.366,816.411 230.361,819.416 228.876,823.023 228.841,827.301 228.876,831.578 230.361,835.185 233.366,838.19z"/>
            <path id="path41" fill="#666666" fill-opacity="1" d="M352.514,667.886 L352.479,667.886 320.27,718.903 C320.305,726.292 324.053,730.04 331.513,730.005 L414.597,730.006 352.514,667.886z"/>
            <path id="path42" fill="#494949" fill-opacity="1" d="M352.514,667.886 L414.597,730.006 698.25,730.044 C705.71,730.009 709.457,726.261 709.422,718.872 L677.214,667.925 514.864,667.923 352.514,667.886z"/>
          </g>
        </g>
        <g id="Calque.__210">
          <g id="shape48">
            <path id="path43" fill="none" stroke="#FFFFFF" stroke-opacity="0.4980392156862745" stroke-width="16" stroke-linecap="round" stroke-linejoin="miter" stroke-miterlimit="3" d="M491.851,458.763 C485.063,450.348 481.669,440.519 481.669,429.277 481.67,416.125 486.372,404.988 495.529,395.689 504.863,386.356 516.035,381.76 529.187,381.76 Q546.087,381.76 558.673,391.943"/>
          </g>
        </g>
      </g>
    </g>
  </g>
</svg>