<?xml version="1.0" encoding="utf-8"?>
<!-- Generator: flash2svg, http://dissentgraphics.com/tools/flash2svg -->
<svg xmlns:xlink="http://www.w3.org/1999/xlink" id="Apps-Parallels-Desktop" image-rendering="optimizeSpeed" baseProfile="basic" version="1.1" style="background-color:#ffffff" x="0px" y="0px" width="1024px" height="1024px" viewBox="0 0 1024 1024" enable-background="new 0 0 1024 1024" xmlns="http://www.w3.org/2000/svg">
  <defs transform="matrix(1 0 0 1 0 0) "/>
  <g id="shadow">
    <g id="shape">
      <path id="path" fill="#000000" fill-opacity="0.09803921568627451" d="M969.65,351.3 Q961.05,330.45 950.25,310.45 C946.2,302.9 941.9,295.4 937.35,288.05 917.8,256.35 893.95,226.4 865.8,198.25 773.65,106.1 662.35,60 532,60 401.65,60 290.4,106.1 198.25,198.25 106.1,290.4 60,401.65 60,532 60,662.35 106.1,773.65 198.25,865.8 290.4,957.95 401.65,1004 532,1004 662.35,1004 773.65,957.95 865.8,865.8 916.55,815 953.35,758.4 976.15,696.05 994.7,645.2 1004,590.55 1004,532 1004,487.1 998.55,444.45 987.6,404.05 986.35,399.5 985.05,394.95 983.7,390.45 979.6,377.15 974.9,364.1 969.65,351.3z"/>
    </g>
  </g>
  <g id="bg">
    <g id="shape2">
      <path id="path1" fill="#CD474F" fill-opacity="1" d="M929.85,289.65 C927.5,285.3 924.9,280.65 922.2,276.05 901.9,241.55 876.4,208.85 845.85,178.3 773.25,105.7 688.7,61.65 592.2,46.25 575.95,43.65 559.4,41.85 542.15,40.9 532.45,40.35 522.3,40.05 512.05,40.05 502.7,40.05 493.45,40.3 484.15,40.8 365.8,46.9 263.85,92.75 178.3,178.3 157.8,198.8 139.55,220.25 123.6,242.7 108.25,264.25 95.05,286.7 84,309.9 66.35,346.8 54,385.9 47.1,426.7 43.75,446.1 41.65,465.6 40.7,485.5 L40.7,485.475 Q40.05,498.633 40.05,512.05 C40.05,517.2 40.15,522.3 40.25,527.25 40.55,537.15 41.1,546.9 41.85,556.15 42.85,567.65 44.15,578.6 45.8,589.35 51.9,628.8 62.7,666.25 78.05,701.35 79.4,704.45 80.8,707.5 82,710.15 105.2,759.7 137.15,804.7 178.3,845.85 235,902.5 298.85,941.75 369.4,963.4 406.15,974.65 444.2,981.25 484.15,983.35 484.3,983.35 484.4,983.35 484.55,983.35 493.05,983.8 501.15,984.05 509.05,984.05 510.25,984.05 511.15,984.05 512.05,984.05 522.35,984.05 532.55,983.75 542.15,983.25 544.65,983.1 546.9,982.95 549.1,982.8 569.3,981.35 589,978.75 607.8,975.1 615.75,973.55 623.6,971.8 631.2,969.95 712,949.65 783.35,908.35 845.85,845.85 883.85,807.85 914.05,766.6 936.35,722.05 942.6,709.7 948.2,697 953.2,684.05 957.45,673.1 961.25,661.95 964.7,650.45 970.8,629.75 975.55,608.3 978.8,586.15 979.65,580.45 980.4,574.7 981.05,568.8 981.3,566.4 981.55,564 981.8,561.5 982.7,551.45 983.4,541.05 983.75,530.55 983.95,524.5 984.05,518.3 984.05,512.05 984.05,511.4 984.05,510.7 984.05,510.05 984.05,509.7 984.05,509.4 984.05,509.05 983.95,485.3 982.3,462.15 979,439.35 978.25,433.9 977.35,428.45 976.35,422.85 974.55,412.65 972.3,402.3 969.75,392.05 968.65,387.7 967.4,383.05 966.1,378.45 965.1,375.05 964.1,371.6 962.95,367.95 961.35,362.8 959.55,357.45 957.65,352.1 952.6,337.85 946.8,323.85 940.2,309.95 938.35,306.15 936.45,302.3 934.5,298.45 933.05,295.6 931.55,292.75 929.85,289.65z"/>
    </g>
  </g>
  <g id="Calque.__206">
    <g id="shape4">
      <path id="path2" fill="#FFFFFF" fill-opacity="0.09803921568627451" d="M783.1,288.1 Q783.1,281.55 778.4,276.95 C775.25,273.75 771.55,272.15 767.2,272.15 L469.7,272.15 783.1,585.55 783.1,288.1z"/>
    </g>
  </g>
  <g id="Calque.__207">
    <g id="shape6">
      <path id="path3" fill="#CCCCCC" fill-opacity="1" d="M427.35,746.25 L420.1,767 615.4,767 608.15,746.25 427.35,746.25z M771.05,274.8 C777.35,274.8 780.55,277.95 780.55,284.25 L780.55,583.6 842.9,646 842.9,256.45 C842.9,246.3 839.3,237.65 832.1,230.45 824.85,223.2 816.2,219.6 806.05,219.6 L416.5,219.6 471.75,274.8 771.05,274.8z M509,260.9 C507.9,259.85 507.3,258.45 507.3,256.85 507.3,255.35 507.9,253.95 509,252.85 510.05,251.75 511.45,251.2 513,251.2 514.55,251.2 515.95,251.75 517,252.85 518.1,253.95 518.7,255.35 518.7,256.85 518.7,258.45 518.1,259.85 517,260.9 515.95,261.95 514.55,262.55 513,262.55 511.45,262.55 510.05,261.95 509,260.9z"/>
      <path id="path4" fill="#FFFFFF" fill-opacity="1" d="M615.4,767 L420.1,767 397.55,831.1 C397.55,838.9 400.35,845.65 405.9,851.15 411.45,856.7 418.2,859.5 425.95,859.5 L609.5,859.5 C617.3,859.5 624.05,856.7 629.6,851.15 635.1,845.65 637.85,838.9 637.85,831.1 L615.4,767z M780.55,284.25 L780.55,583.6 780.55,681.65 C780.55,687.9 777.35,691.05 771.05,691.05 L254.95,691.05 C248.65,691.05 245.45,687.9 245.45,681.65 L245.45,284.25 C245.45,277.95 248.65,274.8 254.95,274.8 L471.75,274.8 771.05,274.8 C777.35,274.8 780.55,277.95 780.55,284.25z M780.55,681.65 C780.55,687.9 777.35,691.05 771.05,691.05 L254.95,691.05 C248.65,691.05 245.45,687.9 245.45,681.65 L245.45,284.25 C245.45,277.95 248.65,274.8 254.95,274.8 L471.75,274.8 416.5,219.6 219.95,219.6 C209.8,219.6 201.15,223.2 193.95,230.45 186.7,237.65 183.1,246.3 183.1,256.45 L183.1,709.45 C183.1,719.6 186.7,728.3 193.95,735.5 201.15,742.7 209.8,746.25 219.95,746.25 L427.35,746.25 608.15,746.25 806.05,746.25 C816.2,746.25 824.85,742.7 832.1,735.5 839.3,728.3 842.9,719.6 842.9,709.45 L842.9,646 780.55,583.6 780.55,681.65z"/>
    </g>
  </g>
  <g id="Calque.__208">
    <g id="shape20">
      <path id="path15" fill="#FFFFFF" fill-opacity="1" d="M453.2,365.7 C449.1,369.85 447.05,374.75 447.05,380.55 L447.05,582.25 C447.05,588.1 449.1,593 453.2,597.15 457.3,601.25 462.25,603.25 468.05,603.3 473.85,603.25 478.8,601.25 482.9,597.15 487,593 489.05,588.1 489.1,582.25 L489.1,380.55 C489.05,374.75 487,369.85 482.9,365.7 478.8,361.6 473.85,359.6 468.05,359.6 Q459.35,359.6 453.2,365.7z M543.1,365.7 C539,369.85 536.95,374.75 536.95,380.55 L536.95,582.25 C536.95,588.1 539,593 543.1,597.15 547.2,601.25 552.15,603.25 557.95,603.3 563.75,603.25 568.7,601.25 572.8,597.15 576.9,593 578.95,588.1 579,582.25 L579,380.55 C578.95,374.75 576.9,369.85 572.8,365.7 568.7,361.6 563.75,359.6 557.95,359.6 552.15,359.6 547.2,361.6 543.1,365.7z"/>
    </g>
  </g>
</svg>