<?xml version="1.0" encoding="utf-8"?>
<!-- Generator: flash2svg, http://dissentgraphics.com/tools/flash2svg -->
<svg xmlns:xlink="http://www.w3.org/1999/xlink" id="Adobe-Lightroom-app" image-rendering="optimizeSpeed" baseProfile="basic" version="1.1" style="background-color:#ffffff" x="0px" y="0px" width="1024px" height="1024px" viewBox="0 0 1024 1024" enable-background="new 0 0 1024 1024" xmlns="http://www.w3.org/2000/svg">
  <defs transform="matrix(1 0 0 1 0 0) "/>
  <g id="shadow">
    <g id="shape">
      <path id="path" fill="#000000" fill-opacity="0.09803921568627451" d="M965.65,347.3 Q957.05,326.45 946.25,306.45 C942.2,298.9 937.9,291.4 933.35,284.05 913.8,252.35 889.95,222.4 861.8,194.25 769.65,102.1 658.35,56 528,56 397.65,56 286.4,102.1 194.25,194.25 102.1,286.4 56,397.65 56,528 56,658.35 102.1,769.65 194.25,861.8 286.4,953.95 397.65,1000 528,1000 658.35,1000 769.65,953.95 861.8,861.8 912.55,811 949.35,754.4 972.15,692.05 990.7,641.2 1000,586.55 1000,528 1000,483.1 994.55,440.45 983.6,400.05 982.35,395.5 981.05,390.95 979.7,386.45 975.6,373.15 970.9,360.1 965.65,347.3z"/>
    </g>
  </g>
  <g id="BackgroundInner">
    <g id="shape2">
      <path id="path1" fill="#374558" fill-opacity="1" d="M951.95,691.1 C974.3,636.15 985.45,576.55 985.45,512.3 Q985.45,316.5 847,178.05 C754.7,85.75 643.25,39.6 512.7,39.6 382.15,39.6 270.75,85.75 178.45,178.05 86.15,270.35 40,381.75 40,512.3 40,642.85 86.15,754.3 178.45,846.6 260.6,928.8 357.95,974.4 470.4,983.35 484.25,984.5 498.35,985.05 512.7,985.05 643.25,985.05 754.7,938.9 847,846.6 893.9,799.7 928.9,747.85 951.95,691.1z"/>
    </g>
  </g>
  <g id="ico-shadow">
    <g id="shape4">
      <path id="path2" fill="#000000" fill-opacity="0.2" d="M762,520.05 L686.025,551.025 386.05,251.05 319.05,702.05 595.45,978.45 Q738.766,954.834 847,846.6 C890.25,803.35 923.35,755.9 946.3,704.35 L762,520.05z"/>
    </g>
  </g>
  <g id="ico">
    <g id="shape6">
      <path id="path3" fill="#FFFFFF" fill-opacity="1" d="M295.6,634.05 C295.6,664.9 303.85,687.9 320.3,703.1 336.8,718.55 361.4,726.25 394.15,726.25 L589.6,726.25 589.6,642.6 426.75,642.6 C415.35,642.6 406.5,641.35 400.15,638.8 391.1,635.2 386.55,625.15 386.55,608.7 L386.55,251.35 295.6,251.35 295.6,634.05z M681.6,546.45 L673,520.4 627,520.4 627,727.05 681.6,727.05 681.6,595.1 C687.8,586.25 695,580.15 703.25,576.85 711.35,573.7 721.6,572.1 734.05,572.1 L763.7,573.25 763.7,520.8 C759.55,519.15 751.85,518.3 740.7,518.3 730.7,518.3 720.8,520.65 711.05,525.35 701.15,530.05 691.35,537.1 681.6,546.45z"/>
    </g>
  </g>
</svg>