
<svg xmlns="http://www.w3.org/2000/svg" version="1.1" xmlns:xlink="http://www.w3.org/1999/xlink" preserveAspectRatio="none" x="0px" y="0px" width="1024px" height="1024px" viewBox="0 0 1024 1024">
<defs>
<g id="Layer4_0_FILL">
<path fill="#000000" fill-opacity="0.09803921568627451" stroke="none" d="
M 969.6 351.25
Q 961 330.4 950.2 310.4 944.1 299.05 937.3 288 907.95 240.45 865.75 198.2 727.5 59.95 531.95 59.95 336.45 59.95 198.2 198.2 59.95 336.45 59.95 531.95 59.95 727.5 198.2 865.75 336.45 1003.95 531.95 1003.95 727.5 1003.95 865.75 865.75 941.9 789.55 976.1 696 1003.95 619.75 1003.95 531.95 1003.95 464.6 987.55 404 985.7 397.15 983.65 390.4 977.5 370.45 969.6 351.25 Z"/>
</g>

<g id="Layer3_0_FILL">
<path fill="#663399" stroke="none" d="
M 509 984
Q 510.5 984 512 984 527.25 984 542.1 983.2 545.6 983 549.05 982.75 579.1 980.6 607.75 975.05 619.55 972.75 631.15 969.9 749.164453125 940.494140625 841.75 849.8
L 513 521.05 183.25 850.75
Q 266.1837890625 931.5267578125 369.35 963.35 423.8880859375 980.1630859375 484.1 983.3 484.3 983.3 484.5 983.3 496.65 983.9 509 984 Z"/>

<path fill="#D64541" stroke="none" d="
M 969.7 392
Q 967.95 385.15 966.05 378.4 964.52578125 373.114453125 962.85 367.85 960.3787109375 359.903125 957.6 352.05 947.85 324.5 934.45 298.4 928.65 287.05 922.15 276 893.18046875 226.8509765625 850.75 183.25
L 513 521.05 841.75 849.8
Q 843.7837890625 847.8162109375 845.8 845.8 918.7 772.85 953.15 684 980.9 612.4 983.7 530.5 984 521.3 984 512 984 511 984 510 984 509.5 984 509 983.65 447.7 969.7 392 Z"/>

<path fill="#38D4F7" stroke="none" d="
M 850.75 183.25
Q 848.30546875 180.758203125 845.8 178.25 736.8 69.25 592.15 46.2 567.65 42.3 542.1 40.85 527.2 40 512 40 497.9 40 484.1 40.75 306.55 49.95 178.25 178.25 40 316.5 40 512 40 707.55 178.25 845.8 180.757421875 848.3064453125 183.25 850.75
L 513 521.05 850.75 183.25 Z"/>
</g>

<g id="Layer2_0_FILL">
<path fill="#333333" stroke="none" d="
M 647.75 376.25
Q 591.5 320 512 320 432.45 320 376.25 376.25 320 432.45 320 512 320 591.5 376.25 647.75 432.45 704 512 704 591.5 704 647.75 647.75 704 591.5 704 512 704 432.45 647.75 376.25 Z"/>
</g>

<g id="Layer0_0_FILL">
<path fill="#CDCDCD" stroke="none" d="
M 775.65 281.55
Q 775.65 271.15234375 770.1 263
L 442.85 576.8
Q 443.79296875 577.79296875 444.75 578.75 472.55 606.55 511.9 606.5 551.25 606.55 579.05 578.75 588 569.85 594.05 559.75
L 769.2 301.55
Q 769.95 300.45 770.7 299.4 775.65 291.55 775.65 281.55 Z"/>

<path fill="#FFFFFF" stroke="none" d="
M 765.75 257.75
Q 755.85 247.85 741.9 247.8 730.75 247.85 722.2 254.1
L 466.4 427.9
Q 454.8 434.3 444.7 444.4 416.9 472.2 416.9 511.5 416.9 549.54609375 442.85 576.8
L 770.1 263
Q 768.24453125 260.24453125 765.75 257.75 Z"/>
</g>
</defs>

<g transform="matrix( 1, 0, 0, 1, 0,0) ">
<use xlink:href="#Layer4_0_FILL"/>
</g>

<g transform="matrix( 1, 0, 0, 1, 0,0) ">
<use xlink:href="#Layer3_0_FILL"/>
</g>

<g transform="matrix( 1, 0, 0, 1, 0,0) ">
<use xlink:href="#Layer2_0_FILL"/>
</g>

<g transform="matrix( 1, 0, 0, 1, 0,0) ">
<use xlink:href="#Layer0_0_FILL"/>
</g>
</svg>
