<?xml version="1.0" encoding="utf-8"?>
<!-- Generator: flash2svg, http://dissentgraphics.com/tools/flash2svg -->
<svg id="Apps-Charles" image-rendering="optimizeSpeed" baseProfile="basic" version="1.1" style="background-color:#FFFFFF" x="0px" y="0px" width="1024px" height="1024px" viewBox="0 0 1024 1024" enable-background="new 0 0 1024 1024" xmlns="http://www.w3.org/2000/svg" xmlns:xlink="http://www.w3.org/1999/xlink">
  <defs transform="matrix(1 0 0 1 0 0) "/>
  <g id="background-circle-shadow">
    <g id="shape">
      <path id="path" fill="#000000" fill-opacity="0.09803921568627451" d="M969.6,351.25 Q961,330.4 950.2,310.4 C946.15,302.85 941.85,295.35 937.3,288 917.75,256.3 893.9,226.35 865.75,198.2 773.6,106.05 662.3,59.95 531.95,59.95 401.6,59.95 290.35,106.05 198.2,198.2 106.05,290.35 59.95,401.6 59.95,531.95 59.95,662.3 106.05,773.6 198.2,865.75 290.35,957.9 401.6,1003.95 531.95,1003.95 662.3,1003.95 773.6,957.9 865.75,865.75 916.5,814.95 953.3,758.35 976.1,696 994.65,645.15 1003.95,590.5 1003.95,531.95 1003.95,487.05 998.5,444.4 987.55,404 986.3,399.45 985,394.9 983.65,390.4 979.55,377.1 974.85,364.05 969.6,351.25z"/>
    </g>
  </g>
  <g id="background-circle">
    <g id="shape2">
      <path id="path1" fill="#2390A7" fill-opacity="1" d="M966.05,378.4 C965.05,375 964.05,371.55 962.9,367.9 961.3,362.75 959.5,357.4 957.6,352.05 951.15,333.8 943.45,316 934.45,298.4 930.65,291 926.5,283.45 922.15,276 901.85,241.5 876.35,208.8 845.8,178.25 773.2,105.65 688.65,61.6 592.15,46.2 575.9,43.6 559.35,41.8 542.1,40.85 532.4,40.3 522.25,40 512,40 502.65,40 493.4,40.25 484.1,40.75 365.75,46.85 263.8,92.7 178.25,178.25 Q40,316.5 40,512 C40,642.35 86.1,753.65 178.25,845.8 234.95,902.45 298.8,941.7 369.35,963.35 406.1,974.6 444.15,981.2 484.1,983.3 484.25,983.3 484.35,983.3 484.5,983.3 493,983.75 501.1,984 509,984 510.2,984 511.1,984 512,984 522.3,984 532.5,983.7 542.1,983.2 544.6,983.05 546.85,982.9 549.05,982.75 569.25,981.3 588.95,978.7 607.75,975.05 615.7,973.5 623.55,971.75 631.15,969.9 711.95,949.6 783.3,908.3 845.8,845.8 894.4,797.2 930.2,743.3 953.15,684 971.6,636.35 981.8,585.2 983.7,530.5 983.9,524.45 984,518.25 984,512 984,511.35 984,510.65 984,510 984,509.65 984,509.35 984,509 983.8,468.35 979.05,429.5 969.7,392 968.6,387.65 967.35,383 966.05,378.4z"/>
    </g>
  </g>
  <g id="background-circle1">
    <g id="shape4">
      <path id="path2" fill="#000000" fill-opacity="0.2" d="M730,425.4 L711.45,406.85 195.5,862.3 C248,910.25 305.95,943.9 369.35,963.35 406.1,974.6 444.15,981.2 484.1,983.3 484.25,983.3 484.35,983.3 484.5,983.3 493,983.75 501.1,984 509,984 Q510.5,984 512,984 C522.3,984 532.5,983.7 542.1,983.2 544.6,983.05 546.85,982.9 549.05,982.75 569.25,981.3 588.95,978.7 607.75,975.05 615.7,973.5 623.55,971.75 631.15,969.9 711.95,949.6 783.3,908.3 845.8,845.8 894.4,797.2 930.2,743.3 953.15,684 971,637.85 981.15,588.4 983.5,535.7 L916.1,468.3 730,425.4z"/>
    </g>
  </g>
  <mask id="object">
    <g id="g">
      <g id="shape13">
        <path id="path8" fill="#FFFFFF" fill-opacity="1" d="M966.05,378.4 C965.05,375 964.05,371.55 962.9,367.9 961.3,362.75 959.5,357.4 957.6,352.05 951.15,333.8 943.45,316 934.45,298.4 930.65,291 926.5,283.45 922.15,276 901.85,241.5 876.35,208.8 845.8,178.25 773.2,105.65 688.65,61.6 592.15,46.2 575.9,43.6 559.35,41.8 542.1,40.85 532.4,40.3 522.25,40 512,40 502.65,40 493.4,40.25 484.1,40.75 365.75,46.85 263.8,92.7 178.25,178.25 Q40,316.5 40,512 C40,642.35 86.1,753.65 178.25,845.8 234.95,902.45 298.8,941.7 369.35,963.35 406.1,974.6 444.15,981.2 484.1,983.3 484.25,983.3 484.35,983.3 484.5,983.3 493,983.75 501.1,984 509,984 510.2,984 511.1,984 512,984 522.3,984 532.5,983.7 542.1,983.2 544.6,983.05 546.85,982.9 549.05,982.75 569.25,981.3 588.95,978.7 607.75,975.05 615.7,973.5 623.55,971.75 631.15,969.9 711.95,949.6 783.3,908.3 845.8,845.8 894.4,797.2 930.2,743.3 953.15,684 971.6,636.35 981.8,585.2 983.7,530.5 983.9,524.45 984,518.25 984,512 984,511.35 984,510.65 984,510 984,509.65 984,509.35 984,509 983.8,468.35 979.05,429.5 969.7,392 968.6,387.65 967.35,383 966.05,378.4z"/>
      </g>
    </g>
  </mask>
  <g id="masked" mask="url(#object)">
    <g id="object-shadow">
      <g id="shape6">
        <path id="path3" fill="#FFFFFF" fill-opacity="1" d="M702.3,395.7 C702.15,395.7 701.95,395.7 701.8,395.7 700,396.4 698.3,397.05 696.6,397.65 624.8,423.05 540.6,416.7 444.05,378.6 356,334 278.65,311.5 211.7,311.1 209.85,311.1 208,311.1 206.15,311.1 196.35,311.65 187.75,315.6 180.55,322.8 172.7,330.65 168.75,340.15 168.75,351.25 168.75,355.2 169.25,359 170.15,362.2 170.95,364.35 171.75,366.5 172.6,368.65 190.5,415.25 212.95,480.35 240,564 264.85,643.85 253.2,728.35 205.05,817.4 L141.25,934 508,1139.35 725.6,938.05 C726.3,938.55 727.05,939.05 727.85,939.5 733.8,942.95 740.05,943.75 746.7,942 753.3,940.25 758.35,936.4 761.8,930.5 L909.55,676.5 C909.6,676.35 909.7,676.2 909.8,676.05 929.25,642.55 941.4,618 946.35,602.35 946.35,602.3 946.35,602.2 946.4,602.15 946.45,601.95 946.55,601.75 946.6,601.6 L946.6,601.55 C946.6,601.5 946.6,601.5 946.65,601.45 946.8,600.9 946.95,600.4 947.1,599.85 950.2,589.5 952.1,578.7 952.85,567.4 L952.85,567.35 C953.05,564.15 953.15,560.9 953.15,557.55 953.15,518 939.15,484.2 911.2,456.25 883.25,428.3 849.45,414.3 809.85,414.3 770.3,414.3 736.5,428.3 708.55,456.25 701.65,463.15 695.6,470.4 690.4,478 L726.65,514.25 C730.95,506.05 736.65,498.45 743.7,491.4 L743.65,491.4 C761.95,473.15 784,464 809.85,464 835.7,464 857.8,473.15 876.05,491.4 894.3,509.65 903.45,531.7 903.45,557.55 903.45,559.8 903.4,562.05 903.25,564.2 902.8,571.4 901.6,578.3 899.75,584.9 L866.2,652.15 724.35,896.1 675.75,628 C673.55,615.8 671.85,603.95 670.55,592.2 668.25,570.8 667.65,550.55 668.75,531.35 671.25,486.5 683.25,448.1 704.7,416.4 705.45,415.3 706.2,414.2 707,413.05 Q709.15,409.9 711.45,406.85 C711.55,406.25 711.6,405.65 711.6,405 711.6,403.75 711.4,402.55 710.95,401.45 710.5,400.35 709.8,399.35 708.85,398.4 707.05,396.6 704.85,395.7 702.3,395.7z"/>
        <path id="path7" fill="#EBEBEB" fill-opacity="1" d="M720.1,585.1 C717.5,576.45 716.2,567.25 716.25,557.55 716.25,541.7 719.7,527.25 726.65,514.25 L690.4,478 C679.35,494.2 672.1,512 668.75,531.35 667.65,550.55 668.25,570.8 670.55,592.2 671.1,594.55 671.75,596.9 672.45,599.25 674.4,605.8 678.45,610.75 684.5,614 690.55,617.25 696.8,617.9 703.35,615.95 709.9,614 714.85,610 718.1,603.95 721.35,597.9 722.05,591.6 720.1,585.1z"/>
      </g>
    </g>
  </g>
  <mask id=".__E3.__83.__AC.__E3.__82.__A4.__E3.__83.__A4.__E3.__83.__BC.__201">
    <g id="g1">
      <g id="shape26">
        <path id="path18" fill="#FFFFFF" fill-opacity="1" d="M966.05,378.4 C965.05,375 964.05,371.55 962.9,367.9 961.3,362.75 959.5,357.4 957.6,352.05 951.15,333.8 943.45,316 934.45,298.4 930.65,291 926.5,283.45 922.15,276 901.85,241.5 876.35,208.8 845.8,178.25 773.2,105.65 688.65,61.6 592.15,46.2 575.9,43.6 559.35,41.8 542.1,40.85 532.4,40.3 522.25,40 512,40 502.65,40 493.4,40.25 484.1,40.75 365.75,46.85 263.8,92.7 178.25,178.25 Q40,316.5 40,512 C40,642.35 86.1,753.65 178.25,845.8 234.95,902.45 298.8,941.7 369.35,963.35 406.1,974.6 444.15,981.2 484.1,983.3 484.25,983.3 484.35,983.3 484.5,983.3 493,983.75 501.1,984 509,984 510.2,984 511.1,984 512,984 522.3,984 532.5,983.7 542.1,983.2 544.6,983.05 546.85,982.9 549.05,982.75 569.25,981.3 588.95,978.7 607.75,975.05 615.7,973.5 623.55,971.75 631.15,969.9 711.95,949.6 783.3,908.3 845.8,845.8 894.4,797.2 930.2,743.3 953.15,684 971.6,636.35 981.8,585.2 983.7,530.5 983.9,524.45 984,518.25 984,512 984,511.35 984,510.65 984,510 984,509.65 984,509.35 984,509 983.8,468.35 979.05,429.5 969.7,392 968.6,387.65 967.35,383 966.05,378.4z"/>
      </g>
    </g>
  </mask>
  <g id="masked1" mask="url(#.__E3.__83.__AC.__E3.__82.__A4.__E3.__83.__A4.__E3.__83.__BC.__201)">
    <g id="Calque.__204">
      <g id="group">
        <g id="group1">
          <g id="drawingObject">
            <path id="path9" fill="#79B15A" fill-opacity="1" d="M556.178,833.722 C556.178,829.089 559.944,825.357 564.577,825.357 569.176,825.357 572.909,829.089 572.909,833.722 L572.909,936.873 C604.27,906.178 677.459,875.516 706.188,875.516 713.954,875.516 615.402,992.431 572.909,980.8 L572.909,984.132 C572.909,988.765 569.176,992.498 564.577,992.498 559.944,992.498 556.178,988.765 556.178,984.132 L556.178,981.166 C556.045,981.2 555.911,981.2 555.778,981.233 L555.778,973.367 C550.712,972.601 544.646,970.001 537.581,965.535 529.449,960.369 520.483,953.071 510.685,943.639 502.719,935.94 495.687,928.308 489.521,920.742 483.789,913.71 481.556,910.21 482.822,910.21 486.988,910.21 492.554,911.21 499.52,913.243 506.352,915.243 513.584,917.943 521.25,921.309 529.215,924.842 536.614,928.641 543.413,932.774 548.079,935.573 552.178,938.339 555.778,941.139 L555.778,934.973 C555.911,935.073 556.045,935.207 556.178,935.34 L556.178,833.722z"/>
          </g>
        </g>
        <g id="group2">
          <g id="drawingObject1">
            <path id="path10" fill="#E85B70" fill-opacity="1" d="M505.871,803.585 C505.871,750.519 547.663,691.484 564.399,691.484 581.103,691.484 622.894,750.519 622.894,803.585 622.894,856.682 608.604,883.675 564.399,883.675 Q532.229,883.675 518.542,863.541 505.871,844.9 505.871,803.585z"/>
          </g>
        </g>
        <g id="group3">
          <g id="drawingObject2">
            <path id="path11" fill="#F3ACBA" fill-opacity="1" d="M474.178,816.827 C474.178,783.387 515.97,708.188 524.322,708.188 Q525.751,708.188 531.467,727.464 536.771,745.47 543.693,773.035 560.175,838.644 564.462,869.289 C570.687,827.434 602.157,708.188 606.159,708.188 614.511,708.188 656.302,783.387 656.302,816.827 656.302,850.267 608.604,883.675 564.399,883.675 520.162,883.675 474.178,850.267 474.178,816.827z"/>
          </g>
        </g>
      </g>
    </g>
    <g id="Mode.__20Isolation">
      <g id="shape18">
        <path id="path12" fill="#DCF0F1" fill-opacity="1" d="M475.6,602.4 C457.5,572.9 436.9,552.65 424.9,552.65 418.65,552.65 410.55,557.7 400.6,567.75 391.05,577.45 381.8,589.85 372.75,605 372.9,605.55 373.1,606.05 373.25,606.6 378.75,624.6 385.1,647.4 392.3,674.95 409.45,740.6 420.25,788.75 424.8,819.4 431.6,771.05 460.1,653.85 475.6,602.4z"/>
        <path id="path13" fill="#E85B70" fill-opacity="1" d="M438.7,840.3 C438,840.3 437.1,840.4 436.2,840.5 436.65,840.45 437.05,840.45 437.5,840.4 437.9,840.35 438.3,840.35 438.7,840.3z M411,840.25 C411.35,840.3 411.75,840.35 412.1,840.4 412.2,840.4 412.3,840.4 412.4,840.4 412.7,840.45 413,840.45 413.35,840.5 412.9,840.45 412.5,840.4 412.1,840.35 411.75,840.3 411.35,840.3 411,840.25z"/>
        <path id="path14" fill="#99CED5" fill-opacity="1" d="M362.25,577.7 C349.75,577.7 287.05,690.5 287.05,740.65 287.05,761.8 299.8,782.95 319.25,800.2 341.9,820.25 373.4,835.2 405.35,839.55 L405.325,839.55 L410.975,840.25 L411,840.25 C411.35,840.3 411.75,840.3 412.1,840.35 412.5,840.4 412.9,840.45 413.35,840.5 L413.35,840.475 L424.9,840.95 436.175,840.5 L436.2,840.5 C437.1,840.4 438,840.3 438.7,840.3 L438.675,840.275 L446.125,839.3 L446.15,839.3 C505.5,830.05 560.25,785.4 560.25,740.65 560.25,690.5 497.55,577.7 485.05,577.7 483.65,577.7 480.2,587.15 475.6,602.4 460.1,653.85 431.6,771.05 424.8,819.4 420.25,788.75 409.45,740.6 392.3,674.95 385.1,647.4 378.75,624.6 373.25,606.6 373.1,606.05 372.9,605.55 372.75,605 367.15,586.8 363.65,577.7 362.25,577.7z"/>
        <path id="path17" fill="#8DCC6A" fill-opacity="1" d="M547.55,880.5 C541.3,880.5 532.95,882 522.5,885.05 512.25,888.05 501.4,892.1 489.9,897.15 477.95,902.45 466.85,908.15 456.65,914.35 449.65,918.55 443.5,922.7 438.1,926.9 L438.1,917.65 C437.9,917.8 437.7,918 437.5,918.2 L437.5,840.4 C437.05,840.45 436.65,840.45 436.2,840.5 L436.175,840.5 L424.9,840.95 413.35,840.475 L413.35,840.5 C413,840.45 412.7,840.45 412.4,840.4 L412.4,920.5 C412.3,920.4 412.2,920.3 412.1,920.2 400.85,909.25 385.9,898.05 367.35,886.7 350.15,876.15 331.35,866.3 310.95,857.2 294.6,849.9 286.35,847.45 286.3,849.9 286.25,852.35 289.25,856.95 295.35,863.8 301.4,870.6 324.35,887.5 364.15,914.5 403.95,941.45 405.25,947.75 368.05,933.4 330.85,919 319.05,918.9 332.7,933.15 346.35,947.35 339.9,946.05 313.45,929.2 286.95,912.35 277.2,907.3 284.15,913.95 309.2,938 332,956.35 352.6,969.05 377.6,984.5 397.45,990.35 412.1,986.5 412.2,986.45 412.3,986.45 412.4,986.4 L412.4,991.4 C412.4,998.35 418,1003.95 424.9,1003.95 431.85,1003.95 437.5,998.35 437.5,991.4 L437.5,986.95 C437.7,987 437.9,987 438.1,987.05 L438.1,975.25 C445.7,974.1 454.8,970.2 465.4,963.5 477.6,955.75 491.05,944.8 505.75,930.65 517.7,919.1 528.25,907.65 537.5,896.3 546.1,885.75 549.45,880.5 547.55,880.5z"/>
      </g>
    </g>
  </g>
</svg>