<?xml version="1.0" encoding="utf-8"?>
<!-- Generator: flash2svg, http://dissentgraphics.com/tools/flash2svg -->
<svg xmlns:xlink="http://www.w3.org/1999/xlink" id="Trillian" image-rendering="optimizeSpeed" baseProfile="basic" version="1.1" style="background-color:#ffffff" x="0px" y="0px" width="1024px" height="1024px" viewBox="0 0 1024 1024" enable-background="new 0 0 1024 1024" xmlns="http://www.w3.org/2000/svg">
  <defs transform="matrix(1 0 0 1 0 0) "/>
  <g id="shadow">
    <g id="shape">
      <path id="path" fill="#000000" fill-opacity="0.09803921568627451" d="M969.65,351.3 Q961.05,330.45 950.25,310.45 C946.2,302.9 941.9,295.4 937.35,288.05 917.8,256.35 893.95,226.4 865.8,198.25 773.65,106.1 662.35,60 532,60 401.65,60 290.4,106.1 198.25,198.25 106.1,290.4 60,401.65 60,532 60,662.35 106.1,773.65 198.25,865.8 290.4,957.95 401.65,1004 532,1004 662.35,1004 773.65,957.95 865.8,865.8 916.55,815 953.35,758.4 976.15,696.05 994.7,645.2 1004,590.55 1004,532 1004,487.1 998.55,444.45 987.6,404.05 986.35,399.5 985.05,394.95 983.7,390.45 979.6,377.15 974.9,364.1 969.65,351.3z"/>
    </g>
  </g>
  <g id="criclebg">
    <g id="shape2">
      <path id="path1" fill="#4C7272" fill-opacity="1" d="M958.55,354.65 C958.25,353.9 957.95,353 957.65,352.1 951.2,333.85 943.5,316.05 934.5,298.45 930.7,291.05 926.55,283.5 922.2,276.05 901.9,241.55 876.4,208.85 845.85,178.3 773.4,105.85 689.1,61.85 593.05,46.4 592.75,46.35 592.45,46.3 592.2,46.25 575.95,43.65 559.4,41.85 542.15,40.9 532.45,40.35 522.3,40.05 512.05,40.05 502.7,40.05 493.45,40.3 484.15,40.8 365.8,46.9 263.85,92.75 178.3,178.3 121.8,234.8 82.65,298.45 60.85,369 Q40.05,436.2 40.05,512.05 C40.05,642.4 86.15,753.7 178.3,845.85 226.35,893.85 279.6,929.4 337.4,952.15 343.85,954.75 350,957 356.2,959.1 396.7,972.95 439.25,981 484.15,983.35 484.3,983.35 484.4,983.35 484.55,983.35 493.05,983.8 501.15,984.05 509.05,984.05 510.25,984.05 511.15,984.05 512.05,984.05 522.35,984.05 532.55,983.75 542.15,983.25 544.65,983.1 546.9,982.95 549.1,982.8 569.3,981.35 589,978.75 607.8,975.1 615.75,973.55 623.6,971.8 631.2,969.95 695.9,953.7 754.55,924 807.35,880.8 820.6,869.9 833.4,858.3 845.85,845.85 894.45,797.25 930.25,743.35 953.2,684.05 957.15,673.8 960.75,663.4 963.95,652.9 975.65,614.25 982.25,573.5 983.75,530.55 983.95,524.5 984.05,518.3 984.05,512.05 984.05,511.4 984.05,510.7 984.05,510.05 984.05,509.7 984.05,509.4 984.05,509.05 983.85,468.4 979.1,429.55 969.75,392.05 968.65,387.7 967.4,383.05 966.1,378.45 963.85,370.6 961.35,362.65 958.55,354.65z"/>
    </g>
  </g>
  <g id="criclebg1">
    <g id="shape4">
      <path id="path2" fill="#000000" fill-opacity="0.2" d="M953.2,684.05 C957.15,673.8 960.75,663.4 963.95,652.9 975.65,614.25 982.25,573.5 983.75,530.55 983.95,524.5 984.05,518.3 984.05,512.05 984.05,511.4 984.05,510.7 984.05,510.05 984.05,509.7 984.05,509.4 984.05,509.05 983.95,485.7 982.3,462.95 979.2,440.65 L979.175,440.625 L780.9,242.35 534.7,299.6 520.05,497.35 274.725,567.925 242.45,780.95 440.725,979.225 L440.75,979.25 C455.3,981.25 469.6,982.6 484.15,983.35 484.3,983.35 484.4,983.35 484.55,983.35 493.05,983.8 501.15,984.05 509.05,984.05 Q510.55,984.05 512.05,984.05 C522.35,984.05 532.55,983.75 542.15,983.25 544.65,983.1 546.9,982.95 549.1,982.8 569.3,981.35 589,978.75 607.8,975.1 615.75,973.55 623.6,971.8 631.2,969.95 695.9,953.7 754.55,924 807.35,880.8 820.6,869.9 833.4,858.3 845.85,845.85 894.45,797.25 930.25,743.35 953.2,684.05z"/>
    </g>
  </g>
  <g id="Calque.__204">
    <g id="shape6">
      <path id="path3" fill="#CCCCCC" fill-opacity="1" d="M230.55,767.95 C234.25,772.35 238.25,776.7 242.45,780.95 L300.95,722.4 C296.8,718.05 293,713.55 289.7,708.85 278.25,692.5 272.6,673.85 272.6,652.85 272.6,625.35 282.3,601.95 301.7,582.55 321.1,563.1 344.5,553.45 372,553.45 373.85,553.45 375.7,553.5 377.6,553.6 L469.85,553.5 469.85,470.6 367.9,470.7 C319.35,471.6 277.8,489.35 243.15,524 207.6,559.55 189.8,602.5 189.8,652.85 189.8,696.9 203.4,735.25 230.55,767.95z M722.4,301 C741.8,320.4 751.45,343.8 751.45,371.25 751.45,398.75 741.8,422.1 722.4,441.55 702.95,460.95 679.55,470.6 652.1,470.6 651.4,470.6 650.7,470.6 650,470.6 L553.65,470.6 636.45,553.4 645.9,553.4 C647.95,553.45 650,553.45 652.1,553.45 L655.9,553.45 C658.05,553.4 660.2,553.3 662.35,553.25 708.25,550.9 747.8,533.2 780.9,500.1 816.5,464.5 834.3,421.55 834.3,371.25 834.3,320.95 816.55,277.95 780.95,242.4 L722.4,301z"/>
      <path id="path7" fill="#94ACE7" fill-opacity="1" d="M292.5,651.9 C292.5,652.35 292.5,652.85 292.5,653.3 292.5,675.15 300.25,693.85 315.75,709.35 331.2,724.85 349.9,732.6 371.75,732.6 393.65,732.6 412.35,724.85 427.85,709.35 443.3,693.9 451.05,675.2 451,653.35 451.05,652.9 451.05,652.4 451.05,651.9 L292.5,651.9z M708.1,315 C692.65,299.55 673.95,291.8 652.05,291.8 630.2,291.75 611.5,299.5 596,315 580.55,330.45 572.8,349.15 572.8,371.05 L731.35,371.05 C731.35,349.2 723.6,330.5 708.1,315z"/>
      <path id="path8" fill="#73BB5B" fill-opacity="1" d="M315.75,597.25 C300.6,612.4 292.85,630.65 292.5,651.9 L451.05,651.9 C450.7,630.65 443,612.45 427.85,597.3 412.35,581.8 393.65,574.05 371.75,574.05 349.9,574.05 331.2,581.8 315.75,597.25z M652.1,450.3 C673.95,450.3 692.65,442.55 708.1,427.1 723.6,411.6 731.35,392.9 731.35,371.05 L572.8,371.05 C572.85,392.95 580.6,411.65 596.05,427.1 611.55,442.6 630.25,450.35 652.1,450.3z"/>
      <path id="path9" fill="#E1E1E1" fill-opacity="1" d="M780.95,242.4 L780.9,242.35 C776.65,238.1 772.35,234.1 768,230.55 735,202.8 696.4,189.05 652.1,189.05 601.75,189.05 558.8,206.85 523.25,242.4 489.15,276.5 471.3,317.4 469.95,365.1 469.95,366 469.95,366.95 469.85,367.85 L469.85,374.95 C469.95,375 469.95,375 469.85,375.05 L469.85,470.6 469.85,553.5 469.7,672.05 C466.05,691.65 456.85,708.55 442.3,723.1 422.85,742.55 399.5,752.2 372,752.2 344.55,752.2 321.15,742.55 301.75,723.1 L301.7,723.05 C301.45,722.8 301.25,722.6 300.95,722.4 L242.45,780.95 C242.7,781.2 242.9,781.4 243.15,781.65 278.7,817.25 321.7,835.05 372,835.05 422.3,835.05 465.25,817.25 500.85,781.65 533.1,749.4 550.75,711.1 553.75,666.75 554.05,662.15 554.2,657.55 554.2,652.85 554.2,648.1 554.05,643.5 553.75,638.95 L553.75,568.05 553.2,568.05 553.2,470.6 552.75,470.6 553.2,470.15 553.2,382 C552.9,378.55 552.7,374.9 552.7,371.25 552.7,343.75 562.4,320.35 581.8,300.95 601.2,281.55 624.6,271.85 652.1,271.85 673.5,271.85 692.5,277.75 708.95,289.55 713.7,292.9 718.15,296.7 722.4,300.95 L722.4,301 780.95,242.4z"/>
      <path id="path19" fill="#A4A4A4" fill-opacity="1" d="M553.65,470.6 L553.2,470.6 553.2,568.05 553.75,568.05 553.75,553.45 636.45,553.4 553.65,470.6z"/>
    </g>
  </g>
</svg>