<?xml version="1.0" encoding="utf-8"?>
<!-- Generator: flash2svg, http://dissentgraphics.com/tools/flash2svg -->
<svg xmlns:xlink="http://www.w3.org/1999/xlink" id="Heroes-Of-The-Storm" image-rendering="optimizeSpeed" baseProfile="basic" version="1.1" style="background-color:#ffffff" x="0px" y="0px" width="1024px" height="1024px" viewBox="0 0 1024 1024" enable-background="new 0 0 1024 1024" xmlns="http://www.w3.org/2000/svg">
  <defs transform="matrix(1 0 0 1 0 0) "/>
  <g id="shadow">
    <g id="shape">
      <path id="path" fill="#000000" fill-opacity="0.09803921568627451" d="M969.65,351.3 Q961.05,330.45 950.25,310.45 C946.2,302.9 941.9,295.4 937.35,288.05 917.8,256.35 893.95,226.4 865.8,198.25 773.65,106.1 662.35,60 532,60 401.65,60 290.4,106.1 198.25,198.25 106.1,290.4 60,401.65 60,532 60,662.35 106.1,773.65 198.25,865.8 290.4,957.95 401.65,1004 532,1004 662.35,1004 773.65,957.95 865.8,865.8 916.55,815 953.35,758.4 976.15,696.05 994.7,645.2 1004,590.55 1004,532 1004,487.1 998.55,444.45 987.6,404.05 986.35,399.5 985.05,394.95 983.7,390.45 979.6,377.15 974.9,364.1 969.65,351.3z"/>
    </g>
  </g>
  <g id="Calque.__203">
    <g id="shape2">
      <path id="path1" fill="#393766" fill-opacity="1" d="M832.55,163.6 C831.25,162.45 829.95,161.3 828.9,160.3 798.2,132.95 763.7,109.95 725.25,90.8 725.1,90.75 725,90.7 724.9,90.65 721.8,89.1 718.8,87.65 716.25,86.5 711.35,84.15 707,82.15 702.65,80.25 701.55,79.8 700.75,79.4 699.9,79.05 690.45,74.95 681,71.2 672,67.85 669.65,67 667.5,66.2 665.4,65.45 665.05,65.3 664.7,65.2 664.35,65.05 645.8,58.6 627.15,53.3 608.5,49.15 600.6,47.45 592.7,45.9 585,44.6 584.05,44.4 583.05,44.3 582.3,44.15 570.65,42.3 559.1,40.9 547.55,39.95 477.75,34.5 408.35,45.5 338.7,73 328.5,77 318.55,81.25 309.1,85.7 295.4,92.05 282.4,98.85 269.9,106.15 234.8,126.5 203.45,150.65 175.8,178.65 175.25,179.2 174.65,179.8 174.1,180.35 170.55,184.05 167,187.8 163.55,191.55 155.15,200.8 147.05,210.5 139.3,220.65 119.25,246.8 101.75,275.75 86.7,307.35 84.1,312.85 81.55,318.45 79.05,324.2 78.8,324.8 78.5,325.45 78.25,326.05 78.1,326.35 78,326.65 77.85,326.95 75.05,333.55 72.4,340.2 69.75,346.95 61.65,368.3 55.05,389.85 49.95,411.8 47.85,421.05 45.95,430.5 44.4,440 43.7,444.4 43,449.15 42.3,453.9 41.4,461.25 40.55,468.75 39.95,476.5 39.85,477.95 39.7,479.65 39.55,481.45 38.25,500.75 38.25,520.15 39.45,539.85 39.9,546.25 40.45,552.75 41.15,559.45 41.2,559.85 41.25,560.25 41.3,560.6 41.45,562.15 41.65,563.75 41.85,565.3 43.85,581.7 46.8,598.15 50.8,615 56.25,638.15 63.65,661.75 73,685.4 92.55,734.85 118.05,778.55 149.9,816.9 162.6,832.15 176.6,846.8 191.6,860.5 210.35,877.6 230.95,893.3 253.15,907.45 267,916.35 281.45,924.55 296.9,932.35 305.6,936.7 314.75,941 324.15,945.05 332.75,948.8 341.3,952.25 350.05,955.45 357.05,958.05 364.05,960.5 371.35,962.9 406.15,974.2 441.3,981.35 476.5,984.1 544.85,989.6 613.35,979 682.35,952.3 683.3,951.9 684.35,951.5 685.4,951.1 708.85,941.8 731.05,931.2 752,919.2 793.3,895.5 829.6,866.55 860.5,832.5 871.7,820.2 882.2,807.25 891.95,793.8 Q922.75,751.3 945.05,699.95 C961.25,662.6 972.6,625.1 978.9,588.4 980.6,578.75 981.9,569.5 982.9,560.3 983.35,555.85 983.75,551.7 984.1,547.55 987.75,502.5 984.35,457.35 973.95,412.05 973.9,411.9 973.9,411.7 973.85,411.55 968.15,387 960.6,362.8 951.1,338.7 923.4,268.75 883.85,210.3 832.55,163.6z"/>
    </g>
  </g>
  <g id="Calque.__204">
    <g id="shape4">
      <path id="path2" fill="#FFFFFF" fill-opacity="0.6" d="M858.5,712.05 L858.5,312.05 512.1,112.05 165.65,312.05 165.65,712.05 512.1,912.1 858.5,712.05z M845.75,512.05 C845.75,544.9 841.6,576 833.35,605.4 818.8,657.2 791.4,703.7 751.15,744.85 750.1,745.9 749.05,746.95 748,748 731.5,764.5 714.15,778.9 695.95,791.25 683.3,799.8 670.25,807.3 656.8,813.85 636.1,823.9 614.45,831.55 591.8,836.85 566.45,842.8 539.85,845.75 512.05,845.75 459.6,845.75 411.55,835.2 367.9,814.15 354,807.45 340.55,799.7 327.6,790.85 309.55,778.6 292.4,764.35 276.05,748 210.9,682.85 178.35,604.2 178.35,512.05 178.35,419.9 210.9,341.2 276.05,276.05 341.2,210.9 419.9,178.35 512.05,178.35 604.2,178.35 682.85,210.9 748,276.05 789.95,318 818.4,365.55 833.35,418.7 Q845.75,462.8 845.75,512.05z"/>
      <path id="path3" fill="#FFFFFF" fill-opacity="1" d="M845.75,512.05 Q845.75,462.8 833.35,418.7 C818.4,365.55 789.95,318 748,276.05 682.85,210.9 604.2,178.35 512.05,178.35 419.9,178.35 341.2,210.9 276.05,276.05 210.9,341.2 178.35,419.9 178.35,512.05 178.35,604.2 210.9,682.85 276.05,748 292.4,764.35 309.55,778.6 327.6,790.85 340.55,799.7 354,807.45 367.9,814.15 411.55,835.2 459.6,845.75 512.05,845.75 539.85,845.75 566.45,842.8 591.8,836.85 614.45,831.55 636.1,823.9 656.8,813.85 670.25,807.3 683.3,799.8 695.95,791.25 714.15,778.9 731.5,764.5 748,748 749.05,746.95 750.1,745.9 751.15,744.85 791.4,703.7 818.8,657.2 833.35,605.4 841.6,576 845.75,544.9 845.75,512.05z"/>
    </g>
  </g>
  <g id="Calque.__205">
    <g id="shape9">
      <path id="path6" fill="#80BCFA" fill-opacity="1" d="M672.15,365.9 C675,365.9 677.4,366.9 679.35,368.9 679.75,369.3 680.1,369.7 680.4,370.1 710.95,377.35 743.15,386.35 776.95,397.1 642.15,286.3 509.2,233.75 378.05,239.45 L337.9,397.1 C407.6,343.55 517.4,333.55 667.35,367.1 668.8,366.3 670.4,365.9 672.15,365.9z M396.95,263.25 C481.55,263.45 567,288.85 653.3,339.4 536.65,315.5 444.05,318.15 375.45,347.4 L396.95,263.25z M681.2,436.6 C680,436.15 678.85,435.6 677.8,434.9 706.15,538.95 651.3,674.3 513.15,841.05 666.4,757.55 764.85,653.9 808.6,530.15 L681.2,436.6z M779.55,538.75 C747.7,617.2 692.15,686.95 612.95,748 678.8,648.75 710.95,561.85 709.5,487.3 L779.55,538.75z M624.55,428.4 C624.55,424.6 625.25,421.1 626.7,417.85 625,417.35 623.1,416.75 621.2,416.25 621,416.45 620.8,416.65 620.6,416.85 617.6,419.85 614,421.35 609.75,421.35 605.5,421.35 601.9,419.85 598.9,416.85 596.8,414.75 595.45,412.4 594.8,409.75 575.7,405.6 555.85,402.7 535.4,401.1 522.4,400.05 509.15,399.5 495.8,399.5 487.25,399.5 478.75,399.75 470.35,400.15 427.8,402.3 387.5,409.8 349.35,422.8 350.3,424.5 350.75,426.4 350.75,428.5 350.75,431.8 349.55,434.65 347.2,437 344.85,439.35 342,440.55 338.65,440.55 338,440.55 337.4,440.5 336.75,440.4 Q340.4,456.4 345.25,471.9 C345.45,471.9 345.65,471.9 345.9,471.9 351.55,471.9 356.35,473.9 360.35,477.85 364.35,481.85 366.35,486.65 366.35,492.3 366.35,497.95 364.35,502.75 360.35,506.75 359.75,507.35 359.15,507.9 358.5,508.45 380.45,560.85 413,608.6 456.25,651.85 462.95,658.55 469.75,664.95 476.7,671.2 484.35,678.1 492.2,684.65 500.15,690.9 504.05,687.5 507.9,683.95 511.6,680.5 511.05,678.5 510.75,676.35 510.75,674.1 510.75,667.55 513.05,662 517.7,657.35 520.85,654.25 524.35,652.2 528.3,651.15 526.55,648.2 525.65,644.9 525.65,641.2 525.65,635.75 527.55,631.1 531.4,627.2 535.25,623.4 539.9,621.5 545.35,621.5 550.8,621.5 555.4,623.4 559.25,627.2 559.55,627.5 559.85,627.8 560.1,628.1 585.15,596.8 605.25,563.25 620.3,527.7 621.15,525.65 622.05,523.6 622.9,521.5 631.7,499.7 638.65,477.2 643.8,453.9 639.5,452.75 635.65,450.45 632.3,447.1 627.15,441.95 624.55,435.7 624.55,428.4z M608.85,445.2 C610.85,448.55 611.55,452.1 610.95,455.9 L611,455.9 C607.45,478.7 601.5,500.55 593.1,521.35 L593.05,521.45 C593,521.5 593,521.55 593,521.6 592.5,522.85 592,524.1 591.45,525.35 L591.4,525.4 591.4,525.45 C591.35,525.5 591.35,525.55 591.35,525.55 576.55,560.5 554.65,592.45 525.7,621.5 L525.65,621.5 C520.5,626.6 515.3,631.55 509.95,636.25 507.05,638.8 503.7,640.1 499.85,640.25 495.95,640.4 492.5,639.25 489.45,636.9 L489.4,636.85 C484.05,632.6 478.7,628.15 473.55,623.45 468.85,619.3 464.3,615 459.75,610.45 426.45,577.2 402.6,540.05 388.05,499.05 L387.95,498.8 C387.8,498.5 387.75,498.25 387.7,498.05 387.6,497.85 387.55,497.65 387.5,497.5 383.1,484.95 379.55,471.95 376.95,458.65 L376.95,458.6 C376.2,454.75 376.75,451.1 378.65,447.65 380.5,444.3 383.3,441.85 386.95,440.45 415.55,429.5 446.1,423.15 478.55,421.4 478.85,421.35 479.1,421.35 479.4,421.3 485.05,421.05 490.8,420.9 496.5,420.9 505.55,420.9 514.45,421.25 523.25,422 550.35,424.1 576.05,429.55 600.45,438.35 604.05,439.6 606.85,441.9 608.8,445.2 L608.85,445.2z M341.3,778.65 L490.25,713.2 C385.55,686.3 295.4,571 219.8,367.3 215.55,541.75 256.05,678.9 341.3,778.65z M348.45,749.2 C296.45,682.45 263.8,599.5 250.5,500.35 303.55,606.95 362.7,678.25 427.95,714.3 L348.45,749.2z"/>
      <path id="path7" fill="#0099FF" fill-opacity="1" d="M396.95,263.25 L375.45,347.4 C444.05,318.15 536.65,315.5 653.3,339.4 567,288.85 481.55,263.45 396.95,263.25z"/>
      <path id="path10" fill="#8ABEF6" fill-opacity="1" d="M679.35,368.9 C677.4,366.9 675,365.9 672.15,365.9 670.4,365.9 668.8,366.3 667.35,367.1 666.5,367.55 665.65,368.15 664.9,368.9 662.95,370.9 661.95,373.3 661.95,376.1 661.95,378.95 662.95,381.35 664.9,383.35 666.95,385.35 669.35,386.35 672.15,386.35 675,386.35 677.4,385.35 679.35,383.35 681.4,381.35 682.4,378.95 682.4,376.1 682.4,373.85 681.75,371.85 680.4,370.1 680.1,369.7 679.75,369.3 679.35,368.9z M679.6,392.65 C679.6,393.65 679.95,394.5 680.65,395.2 681.4,395.95 682.3,396.35 683.25,396.35 684.25,396.35 685.1,395.95 685.75,395.2 686.5,394.5 686.9,393.65 686.9,392.65 686.9,391.7 686.5,390.85 685.75,390.15 685.1,389.4 684.25,389.05 683.25,389.05 682.3,389.05 681.4,389.4 680.65,390.15 679.95,390.85 679.6,391.7 679.6,392.65z M724.25,419.65 C725.9,419.65 727.35,419.05 728.55,417.85 729.7,416.7 730.3,415.25 730.3,413.6 730.3,411.95 729.7,410.5 728.55,409.3 727.35,408.15 725.9,407.6 724.25,407.6 722.6,407.6 721.2,408.15 720,409.3 718.8,410.5 718.2,411.95 718.2,413.6 718.2,415.25 718.8,416.7 720,417.85 721.2,419.05 722.6,419.65 724.25,419.65z M703.75,420.75 C703.75,416.1 702.1,412.15 698.8,408.85 695.55,405.6 691.6,403.95 686.95,403.95 682.3,403.95 678.35,405.6 675.05,408.85 674.65,409.3 674.25,409.7 673.9,410.15 673.7,408.15 672.9,406.45 671.45,405.05 669.85,403.4 667.85,402.55 665.5,402.55 663.85,402.55 662.4,403 661.1,403.85 658,402.6 654.65,401.95 651.05,401.95 643.7,401.95 637.45,404.5 632.3,409.65 629.85,412.1 627.95,414.85 626.7,417.85 625.25,421.1 624.55,424.6 624.55,428.4 624.55,435.7 627.15,441.95 632.3,447.1 635.65,450.45 639.5,452.75 643.8,453.9 646.05,454.55 648.5,454.85 651.05,454.85 658.4,454.85 664.6,452.25 669.75,447.1 673.45,443.35 675.85,439.1 676.9,434.25 677.2,434.5 677.5,434.7 677.8,434.9 678.85,435.6 680,436.15 681.2,436.6 683,437.25 684.9,437.55 686.95,437.55 691.6,437.55 695.55,435.9 698.8,432.6 702.1,429.35 703.75,425.4 703.75,420.75z M620.6,395.15 C617.6,392.15 614,390.65 609.75,390.65 605.5,390.65 601.9,392.15 598.9,395.15 595.9,398.15 594.4,401.75 594.4,406 594.4,407.3 594.55,408.55 594.8,409.75 595.45,412.4 596.8,414.75 598.9,416.85 601.9,419.85 605.5,421.35 609.75,421.35 614,421.35 617.6,419.85 620.6,416.85 620.8,416.65 621,416.45 621.2,416.25 623.8,413.4 625.1,409.95 625.1,406 625.1,401.75 623.6,398.15 620.6,395.15z M299.95,412.1 C297.5,409.65 294.5,408.4 291.05,408.4 287.55,408.4 284.55,409.65 282.05,412.1 279.6,414.6 278.35,417.6 278.35,421.05 278.35,424.5 279.6,427.5 282.05,429.95 284.55,432.45 287.55,433.7 291.05,433.7 291.15,433.7 291.25,433.7 291.4,433.7 287,438.55 284.8,444.3 284.8,450.95 284.8,458.05 287.3,464.1 292.3,469.15 297.35,474.2 303.4,476.7 310.55,476.7 317.65,476.7 323.7,474.2 328.7,469.15 333.75,464.1 336.25,458.05 336.25,450.95 336.25,446.75 335.4,442.95 333.65,439.5 334.6,439.95 335.65,440.25 336.75,440.4 337.4,440.5 338,440.55 338.65,440.55 342,440.55 344.85,439.35 347.2,437 349.55,434.65 350.75,431.8 350.75,428.5 350.75,426.4 350.3,424.5 349.35,422.8 348.8,421.75 348.05,420.8 347.2,419.95 344.85,417.6 342,416.4 338.65,416.4 335.3,416.4 332.5,417.6 330.15,419.95 327.8,422.3 326.6,425.15 326.6,428.5 326.6,429.35 326.7,430.2 326.85,431.05 322.2,427.15 316.75,425.2 310.55,425.2 307.7,425.2 305,425.6 302.5,426.45 303.3,424.8 303.7,423 303.7,421.05 303.7,417.6 302.45,414.6 299.95,412.1z M331.45,477.85 C327.45,481.85 325.45,486.65 325.45,492.3 325.45,497.95 327.45,502.75 331.45,506.75 335.45,510.75 340.25,512.75 345.9,512.75 350.65,512.75 354.85,511.3 358.5,508.45 359.15,507.9 359.75,507.35 360.35,506.75 364.35,502.75 366.35,497.95 366.35,492.3 366.35,486.65 364.35,481.85 360.35,477.85 356.35,473.9 351.55,471.9 345.9,471.9 345.65,471.9 345.45,471.9 345.25,471.9 339.9,472.05 335.3,474.05 331.45,477.85z M574.35,637.05 C574.35,634.95 573.6,633.15 572.1,631.65 570.65,630.2 568.85,629.45 566.7,629.45 565.05,629.45 563.5,629.95 562.15,630.9 561.55,629.95 560.85,629 560.1,628.1 559.85,627.8 559.55,627.5 559.25,627.2 555.4,623.4 550.8,621.5 545.35,621.5 539.9,621.5 535.25,623.4 531.4,627.2 527.55,631.1 525.65,635.75 525.65,641.2 525.65,644.9 526.55,648.2 528.3,651.15 524.35,652.2 520.85,654.25 517.7,657.35 513.05,662 510.75,667.55 510.75,674.1 510.75,676.35 511.05,678.5 511.6,680.5 512.65,684.35 514.65,687.85 517.7,690.9 522.35,695.55 527.95,697.85 534.5,697.85 541.05,697.85 546.6,695.55 551.25,690.9 555.2,686.95 557.45,682.35 558.05,677.05 558.2,677.25 558.35,677.45 558.6,677.65 560.05,679.15 561.85,679.9 563.9,679.9 565.95,679.9 567.75,679.15 569.2,677.65 570.65,676.2 571.4,674.45 571.4,672.4 571.4,670.35 570.65,668.55 569.2,667.1 567.75,665.65 565.95,664.9 563.9,664.9 561.85,664.9 560.05,665.65 558.6,667.1 558.2,667.5 557.85,667.95 557.55,668.4 556.8,665.1 555.3,662.1 553.1,659.35 555.35,658.4 557.4,656.95 559.25,655.1 562.3,652.05 564.15,648.55 564.8,644.5 565.4,644.65 566.05,644.7 566.7,644.7 568.85,644.7 570.65,643.95 572.1,642.45 573.6,641 574.35,639.2 574.35,637.05z M715.2,439.15 C714.55,438.45 713.75,438.1 712.8,438.1 711.85,438.1 711.05,438.45 710.4,439.15 709.75,439.8 709.4,440.6 709.4,441.55 709.4,442.5 709.75,443.3 710.4,443.95 711.05,444.6 711.85,444.95 712.8,444.95 713.75,444.95 714.55,444.6 715.2,443.95 715.9,443.3 716.25,442.5 716.25,441.55 716.25,440.6 715.9,439.8 715.2,439.15z M671.65,465.75 C671.65,462.7 670.6,460.15 668.45,458 666.35,455.85 663.8,454.8 660.75,454.8 657.75,454.8 655.2,455.85 653.05,458 650.95,460.15 649.9,462.7 649.9,465.75 649.9,468.75 650.95,471.3 653.05,473.35 655.2,475.5 657.75,476.6 660.75,476.6 663.8,476.6 666.35,475.5 668.45,473.35 670.6,471.3 671.65,468.75 671.65,465.75z M660.35,490.4 C660.35,489.05 659.9,487.9 658.95,486.95 658,486 656.85,485.55 655.5,485.55 654.15,485.55 653.05,486 652.1,486.95 651.15,487.9 650.7,489.05 650.7,490.4 650.7,491.75 651.15,492.85 652.1,493.8 653.05,494.75 654.15,495.2 655.5,495.2 656.85,495.2 658,494.75 658.95,493.8 659.9,492.85 660.35,491.75 660.35,490.4z M638.95,376.6 C638.2,377.35 637.8,378.3 637.8,379.4 637.8,380.55 638.2,381.5 638.95,382.25 639.8,383.05 640.75,383.45 641.85,383.45 642.9,383.45 643.85,383.05 644.65,382.25 645.45,381.5 645.85,380.55 645.85,379.4 645.85,378.3 645.45,377.35 644.65,376.6 643.85,375.8 642.9,375.4 641.85,375.4 640.75,375.4 639.8,375.8 638.95,376.6z M296.2,339.35 C295.05,340.55 294.45,341.95 294.45,343.6 294.45,345.25 295.05,346.7 296.2,347.9 297.35,349.05 298.8,349.65 300.45,349.65 302.1,349.65 303.55,349.05 304.75,347.9 305.9,346.7 306.5,345.25 306.5,343.6 306.5,341.95 305.9,340.55 304.75,339.35 303.55,338.2 302.1,337.6 300.45,337.6 298.8,337.6 297.35,338.2 296.2,339.35z M274.3,388.2 C272.7,389.8 271.9,391.75 271.9,394 271.9,396.25 272.7,398.15 274.3,399.75 275.9,401.3 277.8,402.1 280.05,402.1 282.3,402.1 284.25,401.3 285.8,399.75 287.35,398.15 288.15,396.25 288.15,394 288.15,391.75 287.35,389.8 285.8,388.2 284.25,386.65 282.3,385.85 280.05,385.85 277.8,385.85 275.9,386.65 274.3,388.2z M275.75,364.75 C274.8,365.7 274.35,366.85 274.35,368.15 274.35,369.5 274.8,370.6 275.75,371.55 276.7,372.5 277.8,372.95 279.15,372.95 280.5,372.95 281.65,372.5 282.6,371.55 283.55,370.6 284,369.5 284,368.15 284,366.85 283.55,365.7 282.6,364.75 281.65,363.8 280.5,363.3 279.15,363.3 277.8,363.3 276.7,363.8 275.75,364.75z M299.45,382.8 C297.2,385.1 296.05,387.85 296.05,391.05 296.05,394.3 297.2,397.05 299.45,399.35 301.75,401.6 304.5,402.75 307.7,402.75 310.9,402.75 313.65,401.6 315.95,399.35 318.2,397.05 319.35,394.3 319.35,391.05 319.35,387.85 318.2,385.1 315.95,382.8 313.65,380.55 310.9,379.4 307.7,379.4 304.5,379.4 301.75,380.55 299.45,382.8z M315.25,374.5 C315.6,374.15 315.75,373.7 315.75,373.2 315.75,372.65 315.6,372.25 315.25,371.9 314.9,371.55 314.45,371.4 313.9,371.4 313.4,371.4 313,371.55 312.65,371.9 312.3,372.25 312.15,372.65 312.15,373.2 312.15,373.7 312.3,374.15 312.65,374.5 313,374.85 313.4,375 313.9,375 314.45,375 314.9,374.85 315.25,374.5z M311.2,414.9 C311.7,415.35 312.3,415.6 312.95,415.6 313.6,415.6 314.15,415.35 314.6,414.9 315.05,414.45 315.3,413.85 315.3,413.2 315.3,412.55 315.05,411.95 314.6,411.45 314.15,411 313.6,410.75 312.95,410.75 312.3,410.75 311.7,411 311.2,411.45 310.75,411.95 310.55,412.55 310.55,413.2 310.55,413.85 310.75,414.45 311.2,414.9z M275.5,443.75 C274.55,443.75 273.7,444.1 273,444.8 272.25,445.55 271.9,446.4 271.9,447.4 271.9,448.35 272.25,449.2 273,449.9 273.7,450.65 274.55,451 275.5,451 276.5,451 277.35,450.65 278.1,449.9 278.8,449.2 279.15,448.35 279.15,447.4 279.15,446.4 278.8,445.55 278.1,444.8 277.35,444.1 276.5,443.75 275.5,443.75z M318.55,492.85 C318.55,489.7 317.45,487.05 315.3,484.85 313.05,482.65 310.4,481.55 307.3,481.55 304.15,481.55 301.5,482.65 299.35,484.85 297.15,487.05 296.05,489.7 296.05,492.85 296.05,495.9 297.15,498.55 299.35,500.75 301.5,503 304.15,504.1 307.3,504.1 310.4,504.1 313.05,503 315.3,500.75 317.45,498.55 318.55,495.9 318.55,492.85z M319.35,513.7 C318.5,513.7 317.7,514 317.05,514.65 316.45,515.3 316.15,516.05 316.15,516.95 316.15,517.8 316.45,518.55 317.05,519.2 317.7,519.85 318.5,520.15 319.35,520.15 320.2,520.15 320.95,519.85 321.6,519.2 322.25,518.55 322.6,517.8 322.6,516.95 322.6,516.05 322.25,515.3 321.6,514.65 320.95,514 320.2,513.7 319.35,513.7z M341.05,402.75 C339.95,402.75 339,403.15 338.2,403.9 337.45,404.7 337.05,405.65 337.05,406.8 337.05,407.85 337.45,408.8 338.2,409.6 339,410.35 339.95,410.75 341.05,410.75 342.15,410.75 343.1,410.35 343.9,409.6 344.7,408.8 345.1,407.85 345.1,406.8 345.1,405.65 344.7,404.7 343.9,403.9 343.1,403.15 342.15,402.75 341.05,402.75z M594.55,657.45 C593.1,656 591.3,655.25 589.15,655.25 587.05,655.25 585.25,656 583.75,657.45 582.3,658.95 581.55,660.75 581.55,662.9 581.55,665 582.3,666.8 583.75,668.3 585.25,669.8 587.05,670.55 589.15,670.55 591.3,670.55 593.1,669.8 594.55,668.3 596.05,666.8 596.8,665 596.8,662.9 596.8,660.75 596.05,658.95 594.55,657.45z M552.55,708.4 C553.15,710.95 554.45,713.2 556.4,715.15 559.3,718.05 562.8,719.5 566.85,719.5 570.9,719.5 574.4,718.05 577.25,715.15 580.15,712.3 581.6,708.85 581.6,704.75 581.6,700.7 580.15,697.2 577.25,694.3 574.4,691.45 570.9,690 566.85,690 562.8,690 559.3,691.45 556.4,694.3 554.45,696.25 553.2,698.45 552.6,700.95 552.25,700.45 551.9,700 551.45,699.55 550.05,698.1 548.35,697.4 546.35,697.4 544.4,697.4 542.7,698.1 541.3,699.55 539.9,700.95 539.2,702.65 539.2,704.65 539.2,706.6 539.9,708.3 541.3,709.7 542.7,711.1 544.4,711.8 546.35,711.8 548.35,711.8 550.05,711.1 551.45,709.7 551.9,709.3 552.25,708.85 552.55,708.4z M531.7,727.6 C531.7,730.25 532.65,732.55 534.5,734.4 536.4,736.35 538.65,737.3 541.3,737.3 543.95,737.3 546.25,736.35 548.1,734.4 550,732.55 550.95,730.25 550.95,727.6 550.95,724.95 550,722.7 548.1,720.8 546.25,718.9 543.95,717.95 541.3,717.95 538.65,717.95 536.4,718.9 534.5,720.8 532.65,722.7 531.7,724.95 531.7,727.6z M561.15,737.95 C562.05,738.85 563.15,739.3 564.45,739.3 565.75,739.3 566.85,738.85 567.7,737.95 568.6,737.05 569.05,735.95 569.05,734.65 569.05,733.4 568.6,732.3 567.7,731.35 566.85,730.5 565.75,730.05 564.45,730.05 563.15,730.05 562.05,730.5 561.15,731.35 560.25,732.3 559.8,733.4 559.8,734.65 559.8,735.95 560.25,737.05 561.15,737.95z M516.3,710.9 C518.4,708.8 519.45,706.25 519.45,703.3 519.45,700.3 518.4,697.75 516.3,695.7 514.2,693.6 511.65,692.55 508.7,692.55 505.75,692.55 503.2,693.6 501.1,695.7 499,697.75 497.95,700.3 497.95,703.3 497.95,706.25 499,708.8 501.1,710.9 503.2,712.95 505.75,714 508.7,714 511.65,714 514.2,712.95 516.3,710.9z M524.1,725.3 C524.85,724.55 525.2,723.65 525.2,722.6 525.2,721.55 524.85,720.7 524.1,719.95 523.35,719.2 522.45,718.8 521.4,718.8 520.35,718.8 519.5,719.2 518.75,719.95 518,720.7 517.6,721.55 517.6,722.6 517.6,723.65 518,724.55 518.75,725.3 519.5,726.05 520.35,726.45 521.4,726.45 522.45,726.45 523.35,726.05 524.1,725.3z"/>
      <path id="path19" fill="#0099FF" fill-opacity="1" d="M779.55,538.75 L709.5,487.3 C710.95,561.85 678.8,648.75 612.95,748 692.15,686.95 747.7,617.2 779.55,538.75z"/>
      <path id="path28" fill="#0099FF" fill-opacity="1" d="M608.85,445.2 L608.8,445.2 C606.85,441.9 604.05,439.6 600.45,438.35 576.05,429.55 550.35,424.1 523.25,422 514.45,421.25 505.55,420.9 496.5,420.9 490.8,420.9 485.05,421.05 479.4,421.3 479.1,421.35 478.85,421.35 478.55,421.4 446.1,423.15 415.55,429.5 386.95,440.45 383.3,441.85 380.5,444.3 378.65,447.65 376.75,451.1 376.2,454.75 376.95,458.6 L376.95,458.65 C379.55,471.95 383.1,484.95 387.5,497.5 387.55,497.65 387.6,497.85 387.7,498.05 387.75,498.25 387.8,498.5 387.95,498.8 L388.05,499.05 C402.6,540.05 426.45,577.2 459.75,610.45 464.3,615 468.85,619.3 473.55,623.45 478.7,628.15 484.05,632.6 489.4,636.85 L489.45,636.9 C492.5,639.25 495.95,640.4 499.85,640.25 503.7,640.1 507.05,638.8 509.95,636.25 515.3,631.55 520.5,626.6 525.65,621.5 L525.7,621.5 C554.65,592.45 576.55,560.5 591.35,525.55 591.35,525.55 591.35,525.5 591.4,525.45 L591.4,525.4 591.45,525.35 C592,524.1 592.5,522.85 593,521.6 593,521.55 593,521.5 593.05,521.45 L593.1,521.35 C601.5,500.55 607.45,478.7 611,455.9 L610.95,455.9 C611.55,452.1 610.85,448.55 608.85,445.2z"/>
      <path id="path77" fill="#0099FF" fill-opacity="1" d="M348.45,749.2 L427.95,714.3 C362.7,678.25 303.55,606.95 250.5,500.35 263.8,599.5 296.45,682.45 348.45,749.2z"/>
    </g>
  </g>
</svg>