<?xml version="1.0" encoding="utf-8"?>
<!-- Generator: flash2svg, http://dissentgraphics.com/tools/flash2svg -->
<svg id="Apps-Flux" image-rendering="optimizeSpeed" baseProfile="basic" version="1.1" style="background-color:#FFFFFF" x="0px" y="0px" width="1024px" height="1024px" viewBox="0 0 1024 1024" enable-background="new 0 0 1024 1024" xmlns="http://www.w3.org/2000/svg" xmlns:xlink="http://www.w3.org/1999/xlink">
  <defs transform="matrix(1 0 0 1 0 0) "/>
  <g id="background-circle-shadow">
    <g id="shape">
      <path id="path" fill="#000000" fill-opacity="0.09803921568627451" d="M969.6,351.25 Q961,330.4 950.2,310.4 C946.15,302.85 941.85,295.35 937.3,288 917.75,256.3 893.9,226.35 865.75,198.2 773.6,106.05 662.3,59.95 531.95,59.95 401.6,59.95 290.35,106.05 198.2,198.2 106.05,290.35 59.95,401.6 59.95,531.95 59.95,662.3 106.05,773.6 198.2,865.75 290.35,957.9 401.6,1003.95 531.95,1003.95 662.3,1003.95 773.6,957.9 865.75,865.75 916.5,814.95 953.3,758.35 976.1,696 994.65,645.15 1003.95,590.5 1003.95,531.95 1003.95,487.05 998.5,444.4 987.55,404 986.3,399.45 985,394.9 983.65,390.4 979.55,377.1 974.85,364.05 969.6,351.25z"/>
    </g>
  </g>
  <g id="background-circle">
    <g id="shape2">
      <path id="path1" fill="#FECE7A" fill-opacity="1" d="M969.7,392 C968.6,387.65 967.35,383 966.05,378.4 965.05,375 964.05,371.55 962.9,367.9 961.3,362.75 959.5,357.4 957.6,352.05 951.15,333.8 943.45,316 934.45,298.4 930.65,291 926.5,283.45 922.15,276 901.85,241.5 876.35,208.8 845.8,178.25 773.2,105.65 688.65,61.6 592.15,46.2 575.9,43.6 559.35,41.8 542.1,40.85 532.4,40.3 522.25,40 512,40 502.65,40 493.4,40.25 484.1,40.75 365.75,46.85 263.8,92.7 178.25,178.25 Q40,316.5 40,512 C40,642.35 86.1,753.65 178.25,845.8 234.95,902.45 298.8,941.7 369.35,963.35 406.1,974.6 444.15,981.2 484.1,983.3 484.25,983.3 484.35,983.3 484.5,983.3 493,983.75 501.1,984 509,984 510.2,984 511.1,984 512,984 522.3,984 532.5,983.7 542.1,983.2 544.6,983.05 546.85,982.9 549.05,982.75 569.25,981.3 588.95,978.7 607.75,975.05 615.7,973.5 623.55,971.75 631.15,969.9 711.95,949.6 783.3,908.3 845.8,845.8 894.4,797.2 930.2,743.3 953.15,684 971.6,636.35 981.8,585.2 983.7,530.5 983.9,524.45 984,518.25 984,512 984,511.35 984,510.65 984,510 984,509.65 984,509.35 984,509 983.8,468.35 979.05,429.5 969.7,392z"/>
    </g>
  </g>
  <g id="Calque.__202">
    <g id="shape4">
      <path id="path2" fill="#343D69" fill-opacity="1" d="M962.9,367.9 C961.3,362.75 959.5,357.4 957.6,352.05 951.15,333.8 943.45,316 934.45,298.4 930.65,291 926.5,283.45 922.15,276 901.85,241.5 876.35,208.8 845.8,178.25 773.2,105.65 688.65,61.6 592.15,46.2 575.9,43.6 559.35,41.8 542.1,40.85 532.4,40.3 522.25,40 512,40 502.65,40 493.4,40.25 484.1,40.75 365.75,46.85 263.8,92.7 178.25,178.25 Q40,316.5 40,512 C40,523 40.35,533.85 40.95,544.2 290.8,235.15 563.45,331.35 858.9,832.3 900.9,787.25 932.3,737.85 953.15,684 971.6,636.35 981.8,585.2 983.7,530.5 983.9,524.45 984,518.25 984,512 984,511.35 984,510.65 984,510 984,509.65 984,509.35 984,509 983.8,468.35 979.05,429.5 969.7,392 968.6,387.65 967.35,383 966.05,378.4 965.05,375 964.05,371.55 962.9,367.9z"/>
    </g>
  </g>
  <g id="object-shadow">
    <g id="shape6">
      <path id="path3" fill="#717DAE" fill-opacity="1" d="M723.95,161.85 C714.05,161.85 705.65,165.3 698.65,172.25 691.75,179.3 688.25,187.7 688.25,197.55 L688.35,200.55 C682.95,203.05 678.6,206.9 675.3,212 672,217.05 670.35,222.7 670.35,228.8 670.35,237.45 673.4,244.8 679.5,250.95 685.65,257.05 693,260.1 701.6,260.1 L777.5,260.1 C784.95,260.1 791.25,257.45 796.5,252.2 801.7,247 804.3,240.7 804.3,233.3 804.3,227 802.35,221.4 798.45,216.55 794.55,211.7 789.6,208.6 783.6,207.2 785.55,204.3 786.5,201.05 786.5,197.55 786.5,192.65 784.75,188.45 781.25,184.95 777.75,181.4 773.5,179.65 768.6,179.65 764.15,179.65 760.25,181.1 757,184 754.3,177.4 749.95,172.05 743.95,167.95 737.95,163.85 731.3,161.85 723.95,161.85z M353.15,183.9 C343.4,183.9 334.65,186.65 326.7,192.2 318.8,197.8 313.05,205.1 309.45,214.05 305.15,210.1 300,208.15 294.15,208.15 287.65,208.15 282.05,210.55 277.4,215.35 272.8,220.15 270.45,225.85 270.45,232.5 270.45,237.3 271.75,241.7 274.3,245.65 266.4,247.55 259.85,251.8 254.7,258.4 249.55,265 246.95,272.6 246.95,281.2 246.95,291.3 250.4,299.85 257.25,306.95 264.2,314.1 272.5,317.7 282.35,317.7 L382.65,317.7 C394.05,317.7 403.75,313.55 411.9,305.25 419.95,296.85 423.95,286.85 423.95,275.05 423.95,266.75 421.8,259.05 417.45,252.2 413.05,245.25 407.3,240 400.2,236.6 L400.3,232.5 C400.3,219.1 395.7,207.65 386.55,198.05 377.3,188.6 366.2,183.9 353.15,183.9z M464.9,322.9 C461.1,324.6 458.1,327.25 455.8,330.85 453.5,334.4 452.3,338.3 452.3,342.6 452.3,348.55 454.45,353.7 458.7,358 463,362.25 468.15,364.4 474.15,364.4 L527.05,364.4 C532.25,364.4 536.65,362.55 540.3,358.85 543.95,355.25 545.75,350.85 545.75,345.7 545.75,341.3 544.4,337.4 541.7,334.05 538.95,330.65 535.5,328.5 531.3,327.5 532.65,325.5 533.35,323.25 533.35,320.8 533.35,317.35 532.1,314.4 529.7,311.95 Q526,308.3 520.85,308.3 C517.75,308.3 515.05,309.3 512.75,311.3 510.85,306.7 507.85,303 503.65,300.15 499.5,297.3 494.85,295.85 489.75,295.85 482.8,295.85 476.95,298.3 472.1,303.15 467.25,308.05 464.8,313.9 464.8,320.8 L464.9,322.9z"/>
    </g>
  </g>
  <g id="object">
    <g id="shape12">
      <path id="path8" fill="#FECE7A" fill-opacity="1" d="M715.3,506.3 Q755,466.65 755,410.5 C755,373.05 741.75,341.1 715.3,314.65 688.85,288.2 656.95,275 619.5,275 582.05,275 550.1,288.2 523.65,314.65 497.2,341.1 484,373.05 484,410.5 484,447.95 497.2,479.85 523.65,506.3 550.1,532.75 582.05,546 619.5,546 656.95,546 688.85,532.75 715.3,506.3z"/>
    </g>
  </g>
  <g id="Calque.__203">
    <g id="shape14">
      <path id="path9" fill="#8FA0D7" fill-opacity="1" d="M509,984 Q510.5,984 512,984 C522.3,984 532.5,983.7 542.1,983.2 544.6,983.05 546.85,982.9 549.05,982.75 569.25,981.3 588.95,978.7 607.75,975.05 615.7,973.5 623.55,971.75 631.15,969.9 711.95,949.6 783.3,908.3 845.8,845.8 850.25,841.35 854.6,836.85 858.9,832.3 563.45,331.35 290.8,235.15 40.95,544.2 48.1,661 93.9,761.45 178.25,845.8 234.95,902.45 298.8,941.7 369.35,963.35 406.1,974.6 444.15,981.2 484.1,983.3 484.25,983.3 484.35,983.3 484.5,983.3 493,983.75 501.1,984 509,984z"/>
    </g>
  </g>
</svg>