<?xml version="1.0" encoding="utf-8"?>
<!-- Generator: flash2svg, http://dissentgraphics.com/tools/flash2svg -->
<svg id="Eclipse" image-rendering="optimizeSpeed" baseProfile="basic" version="1.1" style="background-color:#FFFFFF" x="0px" y="0px" width="1024px" height="1024px" viewBox="0 0 1024 1024" enable-background="new 0 0 1024 1024" xmlns="http://www.w3.org/2000/svg" xmlns:xlink="http://www.w3.org/1999/xlink">
  <defs transform="matrix(1 0 0 1 0 0) "/>
  <g id="shadow">
    <g id="shape">
      <path id="path" fill="#000000" fill-opacity="0.09803921568627451" d="M969.6,351.25 Q961,330.4 950.2,310.4 C946.15,302.85 941.85,295.35 937.3,288 917.75,256.3 893.9,226.35 865.75,198.2 773.6,106.05 662.3,59.95 531.95,59.95 401.6,59.95 290.35,106.05 198.2,198.2 106.05,290.35 59.95,401.6 59.95,531.95 59.95,662.3 106.05,773.6 198.2,865.75 290.35,957.9 401.6,1003.95 531.95,1003.95 662.3,1003.95 773.6,957.9 865.75,865.75 916.5,814.95 953.3,758.35 976.1,696 994.65,645.15 1003.95,590.5 1003.95,531.95 1003.95,487.05 998.5,444.4 987.55,404 986.3,399.45 985,394.9 983.65,390.4 979.55,377.1 974.85,364.05 969.6,351.25z"/>
    </g>
  </g>
  <g id="circle">
    <g id="shape2">
      <path id="path1" fill="#F99500" fill-opacity="1" d="M958.5,354.6 C958.2,353.85 957.9,352.95 957.6,352.05 951.15,333.8 943.45,316 934.45,298.4 930.65,291 926.5,283.45 922.15,276 901.85,241.5 876.35,208.8 845.8,178.25 773.35,105.8 689.05,61.8 593,46.35 592.7,46.3 592.4,46.25 592.15,46.2 575.9,43.6 559.35,41.8 542.1,40.85 532.4,40.3 522.25,40 512,40 502.65,40 493.4,40.25 484.1,40.75 365.75,46.85 263.8,92.7 178.25,178.25 121.75,234.75 82.6,298.4 60.8,368.95 Q40,436.15 40,512 C40,642.35 86.1,753.65 178.25,845.8 206.65,874.2 236.9,898.25 268.05,917.35 271.4,919.35 274.3,921.1 277.2,922.8 296.95,934.35 316.85,944.05 337.35,952.1 343.8,954.7 349.95,956.95 356.15,959.05 372.35,964.6 388.9,969.2 405.15,972.8 431.1,978.4 457.2,981.9 484.1,983.3 484.25,983.3 484.35,983.3 484.5,983.3 493,983.75 501.1,984 509,984 510.2,984 511.1,984 512,984 522.3,984 532.5,983.7 542.1,983.2 544.6,983.05 546.85,982.9 549.05,982.75 569.25,981.3 588.95,978.7 607.75,975.05 615.7,973.5 623.55,971.75 631.15,969.9 648.5,965.55 665.45,960.2 681.95,953.95 694.35,949.2 706.5,943.9 718.4,938.1 731.2,931.8 743.75,924.9 756,917.4 759.05,915.5 762.05,913.6 765.05,911.65 779.7,902.15 793.7,891.9 807.3,880.75 820.55,869.85 833.35,858.25 845.8,845.8 857.65,833.95 868.75,821.75 879.1,809.3 911.1,770.55 935.8,728.8 953.15,684 957.1,673.75 960.7,663.35 963.9,652.85 966.1,645.55 968.15,638.15 970.05,630.55 977.9,598.7 982.5,565.3 983.7,530.5 983.9,524.45 984,518.25 984,512 984,511.35 984,510.65 984,510 984,509.65 984,509.35 984,509 983.8,468.35 979.05,429.5 969.7,392 968.6,387.65 967.35,383 966.05,378.4 963.8,370.55 961.3,362.6 958.5,354.6z"/>
    </g>
  </g>
  <mask id="circle1">
    <g id="g">
      <g id="shape4">
        <path id="path2" fill="#FFFFFF" fill-opacity="1" d="M958.5,354.6 C958.2,353.85 957.9,352.95 957.6,352.05 951.15,333.8 943.45,316 934.45,298.4 930.65,291 926.5,283.45 922.15,276 901.85,241.5 876.35,208.8 845.8,178.25 773.35,105.8 689.05,61.8 593,46.35 592.7,46.3 592.4,46.25 592.15,46.2 575.9,43.6 559.35,41.8 542.1,40.85 532.4,40.3 522.25,40 512,40 502.65,40 493.4,40.25 484.1,40.75 365.75,46.85 263.8,92.7 178.25,178.25 121.75,234.75 82.6,298.4 60.8,368.95 Q40,436.15 40,512 C40,642.35 86.1,753.65 178.25,845.8 206.65,874.2 236.9,898.25 268.05,917.35 271.4,919.35 274.3,921.1 277.2,922.8 296.95,934.35 316.85,944.05 337.35,952.1 343.8,954.7 349.95,956.95 356.15,959.05 372.35,964.6 388.9,969.2 405.15,972.8 431.1,978.4 457.2,981.9 484.1,983.3 484.25,983.3 484.35,983.3 484.5,983.3 493,983.75 501.1,984 509,984 510.2,984 511.1,984 512,984 522.3,984 532.5,983.7 542.1,983.2 544.6,983.05 546.85,982.9 549.05,982.75 569.25,981.3 588.95,978.7 607.75,975.05 615.7,973.5 623.55,971.75 631.15,969.9 648.5,965.55 665.45,960.2 681.95,953.95 694.35,949.2 706.5,943.9 718.4,938.1 731.2,931.8 743.75,924.9 756,917.4 759.05,915.5 762.05,913.6 765.05,911.65 779.7,902.15 793.7,891.9 807.3,880.75 820.55,869.85 833.35,858.25 845.8,845.8 857.65,833.95 868.75,821.75 879.1,809.3 911.1,770.55 935.8,728.8 953.15,684 957.1,673.75 960.7,663.35 963.9,652.85 966.1,645.55 968.15,638.15 970.05,630.55 977.9,598.7 982.5,565.3 983.7,530.5 983.9,524.45 984,518.25 984,512 984,511.35 984,510.65 984,510 984,509.65 984,509.35 984,509 983.8,468.35 979.05,429.5 969.7,392 968.6,387.65 967.35,383 966.05,378.4 963.8,370.55 961.3,362.6 958.5,354.6z"/>
      </g>
    </g>
  </mask>
  <g id="masked" mask="url(#circle1)">
    <g id="Calque.__202">
      <g id="Symbole.__2034_1" overflow="visible">
        <g id="Symbole.__2041">
          <g id="shape14">
            <path id="path6" fill="#2C2056" fill-opacity="1" d="M989.45,298.4 C985.65,291 981.5,283.45 977.15,276 956.85,241.5 931.35,208.8 900.8,178.25 828.35,105.8 744.05,61.8 648,46.35 647.7,46.3 647.4,46.25 647.15,46.2 630.9,43.6 614.35,41.8 597.1,40.85 587.4,40.3 577.25,40 567,40 557.65,40 548.4,40.25 539.1,40.75 420.75,46.85 318.8,92.7 233.25,178.25 176.75,234.75 137.6,298.4 115.8,368.95 Q95,436.15 95,512 C95,642.35 141.1,753.65 233.25,845.8 261.65,874.2 291.9,898.25 323.05,917.35 326.4,919.35 329.3,921.1 332.2,922.8 351.95,934.35 371.85,944.05 392.35,952.1 398.8,954.7 404.95,956.95 411.15,959.05 427.35,964.6 443.9,969.2 460.15,972.8 486.1,978.4 512.2,981.9 539.1,983.3 539.25,983.3 539.35,983.3 539.5,983.3 548,983.75 556.1,984 564,984 565.2,984 566.1,984 567,984 577.3,984 587.5,983.7 597.1,983.2 599.6,983.05 601.85,982.9 604.05,982.75 624.25,981.3 643.95,978.7 662.75,975.05 670.7,973.5 678.55,971.75 686.15,969.9 703.5,965.55 720.45,960.2 736.95,953.95 749.35,949.2 761.5,943.9 773.4,938.1 786.2,931.8 798.75,924.9 811,917.4 814.05,915.5 817.05,913.6 820.05,911.65 834.7,902.15 848.7,891.9 862.3,880.75 875.55,869.85 888.35,858.25 900.8,845.8 912.65,833.95 923.75,821.75 934.1,809.3 966.1,770.55 990.8,728.8 1008.15,684 1012.1,673.75 1015.7,663.35 1018.9,652.85 1021.1,645.55 1023.15,638.15 1025.05,630.55 1032.9,598.7 1037.5,565.3 1038.7,530.5 1038.9,524.45 1039,518.25 1039,512 1039,511.35 1039,510.65 1039,510 1039,509.65 1039,509.35 1039,509 1038.8,468.35 1034.05,429.5 1024.7,392 1023.6,387.65 1022.35,383 1021.05,378.4 1018.8,370.55 1016.3,362.6 1013.5,354.6 1013.2,353.85 1012.9,352.95 1012.6,352.05 1006.15,333.8 998.45,316 989.45,298.4z"/>
          </g>
        </g>
        <g id="Calque.__206">
          <g id="shape15">
            <path id="path7" fill="#423181" fill-opacity="1" d="M750.65,730.1 Q794.2,686.6 816.15,634.15 L260.95,634.15 C275.6,669.1 297.4,701.1 326.4,730.1 385,788.7 455.7,818 538.55,818 621.4,818 692.1,788.7 750.65,730.1z"/>
          </g>
        </g>
        <mask id="Symbole.__2038">
          <g id="g2">
            <g id="shape16">
              <path id="path8" fill="#FFFFFF" fill-opacity="1" d="M989.45,298.4 C985.65,291 981.5,283.45 977.15,276 956.85,241.5 931.35,208.8 900.8,178.25 828.35,105.8 744.05,61.8 648,46.35 647.7,46.3 647.4,46.25 647.15,46.2 630.9,43.6 614.35,41.8 597.1,40.85 587.4,40.3 577.25,40 567,40 557.65,40 548.4,40.25 539.1,40.75 420.75,46.85 318.8,92.7 233.25,178.25 176.75,234.75 137.6,298.4 115.8,368.95 Q95,436.15 95,512 C95,642.35 141.1,753.65 233.25,845.8 261.65,874.2 291.9,898.25 323.05,917.35 326.4,919.35 329.3,921.1 332.2,922.8 351.95,934.35 371.85,944.05 392.35,952.1 398.8,954.7 404.95,956.95 411.15,959.05 427.35,964.6 443.9,969.2 460.15,972.8 486.1,978.4 512.2,981.9 539.1,983.3 539.25,983.3 539.35,983.3 539.5,983.3 548,983.75 556.1,984 564,984 565.2,984 566.1,984 567,984 577.3,984 587.5,983.7 597.1,983.2 599.6,983.05 601.85,982.9 604.05,982.75 624.25,981.3 643.95,978.7 662.75,975.05 670.7,973.5 678.55,971.75 686.15,969.9 703.5,965.55 720.45,960.2 736.95,953.95 749.35,949.2 761.5,943.9 773.4,938.1 786.2,931.8 798.75,924.9 811,917.4 814.05,915.5 817.05,913.6 820.05,911.65 834.7,902.15 848.7,891.9 862.3,880.75 875.55,869.85 888.35,858.25 900.8,845.8 912.65,833.95 923.75,821.75 934.1,809.3 966.1,770.55 990.8,728.8 1008.15,684 1012.1,673.75 1015.7,663.35 1018.9,652.85 1021.1,645.55 1023.15,638.15 1025.05,630.55 1032.9,598.7 1037.5,565.3 1038.7,530.5 1038.9,524.45 1039,518.25 1039,512 1039,511.35 1039,510.65 1039,510 1039,509.65 1039,509.35 1039,509 1038.8,468.35 1034.05,429.5 1024.7,392 1023.6,387.65 1022.35,383 1021.05,378.4 1018.8,370.55 1016.3,362.6 1013.5,354.6 1013.2,353.85 1012.9,352.95 1012.6,352.05 1006.15,333.8 998.45,316 989.45,298.4z"/>
            </g>
          </g>
        </mask>
        <g id="masked2" mask="url(#Symbole.__2038)">
          <g id="Symbole.__2043">
            <g id="Symbole.__2039_2" overflow="visible">
              <g id="Calque.__207">
                <g id="shape17" transform="matrix(1 0 0 1 49.55 397.45)"/>
              </g>
            </g>
          </g>
        </g>
      </g>
    </g>
  </g>
</svg>