<?xml version="1.0" encoding="utf-8"?>
<!-- Generator: flash2svg, http://dissentgraphics.com/tools/flash2svg -->
<svg id="Apps-Wakfu" image-rendering="optimizeSpeed" baseProfile="basic" version="1.1" style="background-color:#FFFFFF" x="0px" y="0px" width="1024px" height="1024px" viewBox="0 0 1024 1024" enable-background="new 0 0 1024 1024" xmlns="http://www.w3.org/2000/svg" xmlns:xlink="http://www.w3.org/1999/xlink">
  <defs transform="matrix(1 0 0 1 0 0) "/>
  <g id="background-circle-shadow">
    <g id="shape">
      <path id="path" fill="#000000" fill-opacity="0.09803921568627451" d="M969.6,351.25 Q961,330.4 950.2,310.4 C946.15,302.85 941.85,295.35 937.3,288 917.75,256.3 893.9,226.35 865.75,198.2 773.6,106.05 662.3,59.95 531.95,59.95 401.6,59.95 290.35,106.05 198.2,198.2 106.05,290.35 59.95,401.6 59.95,531.95 59.95,662.3 106.05,773.6 198.2,865.75 290.35,957.9 401.6,1003.95 531.95,1003.95 662.3,1003.95 773.6,957.9 865.75,865.75 916.5,814.95 953.3,758.35 976.1,696 994.65,645.15 1003.95,590.5 1003.95,531.95 1003.95,487.05 998.5,444.4 987.55,404 986.3,399.45 985,394.9 983.65,390.4 979.55,377.1 974.85,364.05 969.6,351.25z"/>
    </g>
  </g>
  <g id="background-circle">
    <g id="shape2">
      <path id="path1" fill="#1C2D31" fill-opacity="1" d="M962.9,367.9 C961.3,362.75 959.5,357.4 957.6,352.05 951.15,333.8 943.45,316 934.45,298.4 930.65,291 926.5,283.45 922.15,276 901.85,241.5 876.35,208.8 845.8,178.25 773.2,105.65 688.65,61.6 592.15,46.2 575.9,43.6 559.35,41.8 542.1,40.85 532.4,40.3 522.25,40 512,40 502.65,40 493.4,40.25 484.1,40.75 365.75,46.85 263.8,92.7 178.25,178.25 Q40,316.5 40,512 C40,642.35 86.1,753.65 178.25,845.8 234.95,902.45 298.8,941.7 369.35,963.35 406.1,974.6 444.15,981.2 484.1,983.3 484.25,983.3 484.35,983.3 484.5,983.3 493,983.75 501.1,984 509,984 510.2,984 511.1,984 512,984 522.3,984 532.5,983.7 542.1,983.2 544.6,983.05 546.85,982.9 549.05,982.75 569.25,981.3 588.95,978.7 607.75,975.05 615.7,973.5 623.55,971.75 631.15,969.9 711.95,949.6 783.3,908.3 845.8,845.8 894.4,797.2 930.2,743.3 953.15,684 971.6,636.35 981.8,585.2 983.7,530.5 983.9,524.45 984,518.25 984,512 984,511.35 984,510.65 984,510 984,509.65 984,509.35 984,509 983.8,468.35 979.05,429.5 969.7,392 968.6,387.65 967.35,383 966.05,378.4 965.05,375 964.05,371.55 962.9,367.9z"/>
    </g>
  </g>
  <g id="object-shadow">
    <g id="shape4">
      <path id="path2" fill="#000000" fill-opacity="0.2" d="M966.05,378.4 C965.9,377.75 965.7,377.15 965.5,376.5 L847,258 193.55,669.3 221.6,697.35 208.1,727.55 462.25,981.7 C469.65,982.35 476.85,982.9 484.1,983.3 484.25,983.3 484.35,983.3 484.5,983.3 493,983.75 501.1,984 509,984 Q510.5,984 512,984 C522.3,984 532.5,983.7 542.1,983.2 544.6,983.05 546.85,982.9 549.05,982.75 569.25,981.3 588.95,978.7 607.75,975.05 615.7,973.5 623.55,971.75 631.15,969.9 711.95,949.6 783.3,908.3 845.8,845.8 894.4,797.2 930.2,743.3 953.15,684 971.6,636.35 981.8,585.2 983.7,530.5 983.9,524.45 984,518.25 984,512 984,511.35 984,510.65 984,510 984,509.65 984,509.35 984,509 983.8,468.35 979.05,429.5 969.7,392 968.6,387.65 967.35,383 966.05,378.4z"/>
    </g>
  </g>
  <g id="Calque.__207">
    <g id="Symbole.__208_1" overflow="visible">
      <g id="Calque.__222">
        <g id="Symbole.__218_3" overflow="visible">
          <g id="Calque.__223">
            <g id="shape50">
              <path id="path41" fill="#F7F68C" fill-opacity="1" d="M195.952,299.389 L198.385,295.181 C199.432,293.361 201.07,293.134 203.39,294.453 L214.945,301.141 C217.265,302.46 217.902,304.052 216.856,305.872 L209.008,319.452 202.207,331.212 C201.161,333.032 199.523,333.259 197.203,331.94 L185.647,325.252 C183.327,323.933 182.69,322.341 183.736,320.521 L195.952,299.389z M237.101,323.569 L246.518,332.986 C248.429,334.852 248.656,336.535 247.155,338.036 L234.826,350.365 226.41,358.782 C224.954,360.237 223.271,360.01 221.36,358.145 L211.943,348.682 C210.077,346.817 209.85,345.179 211.306,343.678 L220.564,334.419 232.051,322.932 C233.507,321.476 235.19,321.704 237.101,323.569z"/>
              <path id="path42" fill="#2F5F61" fill-opacity="1" d="M202.207,331.212 L209.008,319.452 L208.986,319.475 C212.625,324.57 216.447,329.529 220.541,334.442 L220.564,334.419 L211.306,343.678 C209.85,345.179 210.077,346.817 211.943,348.682 L221.36,358.145 C223.271,360.01 224.954,360.237 226.41,358.782 L234.826,350.365 C266.308,383.121 307.799,411.009 359.116,434.029 L304.205,507.502 219.859,424.93 C180.597,380.3 166.039,324.525 176.184,257.512 181.553,272.115 188.149,286.082 195.929,299.412 L195.952,299.389 L183.736,320.521 C182.69,322.341 183.327,323.933 185.647,325.252 L197.203,331.94 C199.523,333.259 201.161,333.032 202.207,331.212z"/>
              <path id="path43" fill="#569192" fill-opacity="1" d="M198.385,295.181 L195.952,299.389 L195.929,299.412 C188.149,286.082 181.553,272.115 176.184,257.512 257.346,250.096 319.9,253.099 363.847,266.565 399.014,284.672 424.4,304.325 440.05,325.662 L359.116,434.029 C307.799,411.009 266.308,383.121 234.826,350.365 L247.155,338.036 C248.656,336.535 248.429,334.852 246.518,332.986 L237.101,323.569 C235.19,321.704 233.507,321.476 232.051,322.932 L220.564,334.419 L220.541,334.442 C216.447,329.529 212.625,324.57 208.986,319.475 L209.008,319.452 L216.856,305.872 C217.902,304.052 217.265,302.46 214.945,301.141 L203.39,294.453 C201.07,293.134 199.432,293.361 198.385,295.181z"/>
              <path id="path44" fill="#77C7C8" fill-opacity="1" d="M349.062,259.332 C354.157,261.697 359.071,264.108 363.847,266.565 319.9,253.099 257.346,250.096 176.184,257.512 Q246.609,229.578 349.062,259.332z"/>
            </g>
          </g>
        </g>
        <g id="Symbole.__218_4" overflow="visible">
          <g id="Calque.__224">
            <g id="shape51">
              <path id="path45" fill="#F7F68C" fill-opacity="1" d="M828.098,299.389 L825.665,295.181 C824.618,293.361 822.98,293.134 820.66,294.453 L809.105,301.141 C806.785,302.46 806.148,304.052 807.194,305.872 L815.042,319.452 821.843,331.212 C822.889,333.032 824.527,333.259 826.847,331.94 L838.403,325.252 C840.723,323.933 841.36,322.341 840.314,320.521 L828.098,299.389z M786.949,323.569 L777.532,332.986 C775.621,334.852 775.394,336.535 776.895,338.036 L789.224,350.365 797.64,358.782 C799.096,360.237 800.779,360.01 802.69,358.145 L812.107,348.682 C813.973,346.817 814.2,345.179 812.744,343.678 L803.486,334.419 791.999,322.932 C790.543,321.476 788.86,321.704 786.949,323.569z"/>
              <path id="path46" fill="#2F5F61" fill-opacity="1" d="M821.843,331.212 L815.042,319.452 L815.064,319.475 C811.425,324.57 807.603,329.529 803.509,334.442 L803.486,334.419 L812.744,343.678 C814.2,345.179 813.973,346.817 812.107,348.682 L802.69,358.145 C800.779,360.01 799.096,360.237 797.64,358.782 L789.224,350.365 C757.742,383.121 716.251,411.009 664.934,434.029 L719.845,507.502 804.191,424.93 C843.453,380.3 858.011,324.525 847.866,257.512 842.497,272.115 835.901,286.082 828.121,299.412 L828.098,299.389 L840.314,320.521 C841.36,322.341 840.723,323.933 838.403,325.252 L826.847,331.94 C824.527,333.259 822.889,333.032 821.843,331.212z"/>
              <path id="path47" fill="#569192" fill-opacity="1" d="M825.665,295.181 L828.098,299.389 L828.121,299.412 C835.901,286.082 842.497,272.115 847.866,257.512 766.704,250.096 704.15,253.099 660.203,266.565 625.036,284.672 599.65,304.325 584,325.662 L664.934,434.029 C716.251,411.009 757.742,383.121 789.224,350.365 L776.895,338.036 C775.394,336.535 775.621,334.852 777.532,332.986 L786.949,323.569 C788.86,321.704 790.543,321.476 791.999,322.932 L803.486,334.419 L803.509,334.442 C807.603,329.529 811.425,324.57 815.064,319.475 L815.042,319.452 L807.194,305.872 C806.148,304.052 806.785,302.46 809.105,301.141 L820.66,294.453 C822.98,293.134 824.618,293.361 825.665,295.181z"/>
              <path id="path48" fill="#77C7C8" fill-opacity="1" d="M674.988,259.332 C669.893,261.697 664.979,264.108 660.203,266.565 704.15,253.099 766.704,250.096 847.866,257.512 Q777.441,229.578 674.988,259.332z"/>
            </g>
          </g>
        </g>
      </g>
    </g>
  </g>
  <g id="Calque.__208">
    <g id="Symbole.__210_1" overflow="visible">
      <g id="Calque.__225">
        <g id="shape52">
          <path id="path49" fill="#C08329" fill-opacity="1" d="M723.353,779.121 L764.024,641.001 C679.815,637.134 596.151,633.449 513.034,629.9 429.916,633.449 345.524,637.088 259.95,640.773 L302.714,779.121 C324.734,793.542 354.396,808.464 391.655,823.978 377.234,816.79 365.587,805.507 356.67,790.176 336.062,749.322 338.382,725.301 363.677,718.159 L513.034,687.632 662.391,718.159 C687.685,725.301 690.006,749.322 669.397,790.176 660.48,805.507 648.833,816.79 634.412,823.978 671.671,808.464 701.334,793.542 723.353,779.121z"/>
          <path id="path50" fill="#E9BC60" fill-opacity="1" d="M669.397,790.176 C690.006,749.322 687.685,725.301 662.391,718.159 L513.034,687.632 363.677,718.159 C338.382,725.301 336.062,749.322 356.67,790.176 365.587,805.507 377.234,816.79 391.655,823.978 395.204,825.752 398.934,827.253 402.801,828.527 429.233,839.218 465.947,847.316 513.034,852.821 560.12,847.316 596.834,839.218 623.266,828.527 627.133,827.253 630.863,825.752 634.412,823.978 648.833,816.79 660.48,805.507 669.397,790.176z M513.034,710.606 L533.551,709.697 Q537.828,709.469 541.24,712.017 C543.56,713.7 545.061,715.929 545.835,718.659 546.563,721.389 546.335,724.073 545.198,726.666 544.788,727.621 544.243,728.486 543.697,729.259 542.559,730.669 541.24,731.761 539.693,732.58 L518.766,743.499 C517.128,744.363 515.354,744.818 513.489,744.864 513.443,744.864 513.352,744.864 513.261,744.864 L513.034,744.864 C512.897,744.864 512.715,744.864 512.579,744.864 510.713,744.818 508.939,744.363 507.301,743.499 L486.374,732.58 C483.872,731.261 482.007,729.259 480.869,726.666 479.732,724.073 479.504,721.389 480.232,718.659 481.006,715.929 482.507,713.7 484.827,712.017 487.102,710.334 489.65,709.56 492.516,709.697 L513.034,710.606z"/>
          <path id="path51" fill="#C08329" fill-opacity="1" d="M513.034,710.606 L492.516,709.697 C489.65,709.56 487.102,710.334 484.827,712.017 482.507,713.7 481.006,715.929 480.232,718.659 479.504,721.389 479.732,724.073 480.869,726.666 482.007,729.259 483.872,731.261 486.374,732.58 L507.301,743.499 C508.939,744.363 510.713,744.818 512.579,744.864 512.715,744.864 512.897,744.864 513.034,744.864 L513.261,744.864 C513.352,744.864 513.443,744.864 513.489,744.864 515.354,744.818 517.128,744.363 518.766,743.499 L539.693,732.58 C541.24,731.761 542.559,730.669 543.697,729.259 544.243,728.486 544.788,727.621 545.198,726.666 546.335,724.073 546.563,721.389 545.835,718.659 545.061,715.929 543.56,713.7 541.24,712.017 Q537.828,709.469 533.551,709.697 L513.034,710.606z"/>
        </g>
      </g>
    </g>
  </g>
  <g id="Calque.__209">
    <g id="Symbole.__212_1" overflow="visible">
      <g id="Calque.__226">
        <g id="shape53">
          <path id="path52" fill="#C08328" fill-opacity="1" d="M679.363,736.955 C676.998,736.182 674.723,736.409 672.539,737.546 625.862,761.886 574.818,776.99 519.406,782.813 516.995,783.04 514.629,783.222 512.264,783.45 L512.264,783.495 C509.761,783.723 507.305,783.905 504.848,784.087 504.621,784.087 504.393,784.087 504.166,784.132 477.916,786.043 450.71,785.952 422.595,783.859 420.093,783.677 417.954,784.405 416.089,786.043 414.224,787.635 413.177,789.683 412.995,792.139 412.814,794.596 413.541,796.78 415.179,798.645 416.772,800.51 418.819,801.511 421.275,801.693 450.073,803.831 477.961,803.968 504.848,802.011 505.076,802.011 505.303,802.011 505.53,801.966 508.306,801.739 511.081,801.511 513.856,801.284 516.313,801.056 518.769,800.829 521.226,800.601 L521.271,800.601 C579.003,794.505 632.186,778.764 680.819,753.378 683.003,752.241 684.459,750.467 685.232,748.146 685.96,745.781 685.733,743.506 684.595,741.322 Q682.866,738.047 679.363,736.955z"/>
        </g>
      </g>
    </g>
  </g>
  <g id="Calque.__210">
    <g id="Symbole.__214_1" overflow="visible">
      <g id="Calque.__227">
        <g id="shape54">
          <path id="path53" fill="#FFFFFF" fill-opacity="1" d="M711.525,640.802 C714.71,629.884 710.843,624.424 699.924,624.424 L601.839,624.424 C603.795,625.562 605.615,627.018 607.343,628.746 612.666,634.069 615.305,640.529 615.305,648.036 615.305,655.542 612.666,661.957 607.343,667.28 602.021,672.603 595.561,675.287 588.054,675.287 580.547,675.287 574.133,672.603 568.81,667.28 563.487,661.957 560.803,655.542 560.803,648.036 560.803,640.529 563.487,634.069 568.81,628.746 570.948,626.608 573.268,624.879 575.771,623.651 565.944,620.148 555.344,605.681 552.523,615.326 546.017,623.924 543.561,644.851 545.244,678.107 544.016,688.435 548.884,693.575 559.802,693.575 L679.907,693.575 C690.825,693.575 697.877,688.116 701.016,677.198 L711.525,640.802z M471.544,615.326 C468.359,604.407 455.166,624.424 444.247,624.424 L324.143,624.424 Q307.765,624.424 312.542,640.802 L323.051,677.198 C326.19,688.116 333.242,693.575 344.16,693.575 L464.265,693.575 C475.183,693.575 480.051,688.435 478.823,678.107 480.506,644.851 478.049,623.924 471.544,615.326z"/>
        </g>
      </g>
    </g>
  </g>
  <g id="Calque.__211">
    <g id="Symbole.__216_1" overflow="visible">
      <g id="Calque.__228">
        <g id="shape55">
          <path id="path54" fill="#000000" fill-opacity="1" d="M606.882,628.761 C605.153,627.033 603.333,625.577 601.377,624.44 597.282,622.028 592.688,620.8 587.592,620.8 583.088,620.8 578.994,621.755 575.309,623.666 572.807,624.894 570.486,626.623 568.348,628.761 Q560.341,636.768 560.341,648.051 C560.341,655.557 563.025,661.972 568.348,667.295 573.671,672.618 580.086,675.302 587.592,675.302 595.099,675.302 601.559,672.618 606.882,667.295 612.204,661.972 614.843,655.557 614.843,648.051 614.843,640.544 612.204,634.084 606.882,628.761z M462.802,648.051 C462.802,640.544 460.118,634.084 454.795,628.761 449.472,623.439 443.057,620.8 435.551,620.8 428.044,620.8 421.584,623.439 416.261,628.761 410.939,634.084 408.3,640.544 408.3,648.051 408.3,655.557 410.939,661.972 416.261,667.295 421.584,672.618 428.044,675.302 435.551,675.302 443.057,675.302 449.472,672.618 454.795,667.295 460.118,661.972 462.802,655.557 462.802,648.051z"/>
        </g>
      </g>
    </g>
  </g>
  <g id="Calque.__212">
    <g id="shape6">
      <path id="path3" fill="#5F532F" fill-opacity="1" d="M731.95,666.35 L750.85,637.2 778.6,639 766.8,699.05 816.8,718.15 794.05,667.2 831.4,659.95 770.7,592.05 728.55,601.45 691.25,729.1 731.95,666.35z M246.3,648.4 L274.1,646.55 293,675.7 333.65,738.45 296.35,610.8 254.25,601.45 193.55,669.3 230.85,676.6 208.1,727.55 258.15,708.45 246.3,648.4z"/>
      <path id="path4" fill="#897942" fill-opacity="1" d="M750.85,637.2 L731.95,666.35 754.95,759.1 766.8,699.05 778.6,639 750.85,637.2z M728.55,601.45 L698.55,608.05 691.25,729.1 728.55,601.45z M274.1,646.55 L246.3,648.4 258.15,708.45 270,768.5 293,675.7 274.1,646.55z M333.65,738.45 L326.4,617.45 296.35,610.8 333.65,738.45z"/>
    </g>
  </g>
  <g id="Calque.__213">
    <g id="shape19">
      <path id="path13" fill="#77C7C8" fill-opacity="1" d="M773.15,365.25 C772.55,364.65 771.9,364.1 771.3,363.6 769.7,362.55 768.1,361.45 766.45,360.4 718.25,329 646.2,302.35 550.4,280.45 539.7,270.85 528.8,265.1 517.65,263.2 516.8,263.3 515.85,263.5 514.85,263.7 L514.85,263.75 C513.85,263.55 512.85,263.35 512,263.2 500.85,265.15 489.95,270.9 479.25,280.5 383.45,302.4 311.45,329.05 263.2,360.45 Q260.75,362.05 258.4,363.65 C257.75,364.15 257.1,364.7 256.5,365.3 253.15,368.7 250.9,372.5 249.85,376.8 L223.75,579.85 C237.25,506.55 255.7,444.95 279.1,395.15 330.45,339.5 409.05,307.1 514.85,297.95 L514.85,297.9 C620.6,307.05 699.2,339.45 750.6,395.1 773.95,444.95 792.4,506.5 805.9,579.8 L779.8,376.8 C778.75,372.45 776.5,368.65 773.15,365.25z"/>
      <path id="path14" fill="#569192" fill-opacity="1" d="M817.85,636.15 C823.35,634.55 827,630.65 828.85,624.4 831.6,600.95 823.95,586.15 805.9,579.8 792.4,506.5 773.95,444.95 750.6,395.1 699.2,339.45 620.6,307.05 514.85,297.9 L514.85,297.95 C409.05,307.1 330.45,339.5 279.1,395.15 255.7,444.95 237.25,506.55 223.75,579.85 205.7,586.2 198.05,601 200.85,624.45 202.65,630.7 206.3,634.6 211.8,636.2 215.5,637.25 222.1,638.25 231.75,639.1 325.6,647.75 420,651.9 514.85,651.45 L514.85,651.4 C609.65,651.85 704.05,647.7 797.9,639.05 807.55,638.2 814.2,637.2 817.85,636.15z"/>
    </g>
  </g>
</svg>