<?xml version="1.0" encoding="utf-8"?>
<!-- Generator: flash2svg, http://dissentgraphics.com/tools/flash2svg -->
<svg xmlns:xlink="http://www.w3.org/1999/xlink" id="Apps-League-Of-Legends" image-rendering="optimizeSpeed" baseProfile="basic" version="1.1" style="background-color:#ffffff" x="0px" y="0px" width="1024px" height="1024px" viewBox="0 0 1024 1024" enable-background="new 0 0 1024 1024" xmlns="http://www.w3.org/2000/svg">
  <defs transform="matrix(1 0 0 1 0 0) "/>
  <g id="shadow">
    <g id="shape">
      <path id="path" fill="#000000" fill-opacity="0.09803921568627451" d="M969.65,351.3 Q961.05,330.45 950.25,310.45 C946.2,302.9 941.9,295.4 937.35,288.05 917.8,256.35 893.95,226.4 865.8,198.25 773.65,106.1 662.35,60 532,60 401.65,60 290.4,106.1 198.25,198.25 106.1,290.4 60,401.65 60,532 60,662.35 106.1,773.65 198.25,865.8 290.4,957.95 401.65,1004 532,1004 662.35,1004 773.65,957.95 865.8,865.8 916.55,815 953.35,758.4 976.15,696.05 994.7,645.2 1004,590.55 1004,532 1004,487.1 998.55,444.45 987.6,404.05 986.35,399.5 985.05,394.95 983.7,390.45 979.6,377.15 974.9,364.1 969.65,351.3z"/>
    </g>
  </g>
  <g id="criclebg">
    <g id="shape2">
      <path id="path1" fill="#FFFFFF" fill-opacity="1" d="M855.7,188.4 C852.7,185.25 849.3,181.75 845.85,178.3 773.4,105.85 689.1,61.85 593.05,46.4 592.75,46.35 592.45,46.3 592.2,46.25 575.95,43.65 559.4,41.85 542.15,40.9 532.45,40.35 522.3,40.05 512.05,40.05 502.7,40.05 493.45,40.3 484.15,40.8 365.8,46.9 263.85,92.75 178.3,178.3 121.8,234.8 82.65,298.45 60.85,369 Q40.05,436.2 40.05,512.05 C40.05,642.4 86.15,753.7 178.3,845.85 181.7,849.25 185.15,852.6 188.4,855.7 233.95,898.85 283.7,931 337.4,952.15 343.85,954.75 350,957 356.2,959.1 396.7,972.95 439.25,981 484.15,983.35 484.3,983.35 484.4,983.35 484.55,983.35 493.05,983.8 501.15,984.05 509.05,984.05 510.25,984.05 511.15,984.05 512.05,984.05 522.35,984.05 532.55,983.75 542.15,983.25 544.65,983.1 546.9,982.95 549.1,982.8 569.3,981.35 589,978.75 607.8,975.1 615.75,973.55 623.6,971.8 631.2,969.95 695.9,953.7 754.55,924 807.35,880.8 820.6,869.9 833.4,858.3 845.85,845.85 894.45,797.25 930.25,743.35 953.2,684.05 957.15,673.8 960.75,663.4 963.95,652.9 975.65,614.25 982.25,573.5 983.75,530.55 983.95,524.5 984.05,518.3 984.05,512.05 984.05,511.4 984.05,510.7 984.05,510.05 984.05,509.7 984.05,509.4 984.05,509.05 983.85,468.4 979.1,429.55 969.75,392.05 968.65,387.7 967.4,383.05 966.1,378.45 963.85,370.6 961.35,362.65 958.55,354.65 958.25,353.9 957.95,353 957.65,352.1 951.2,333.85 943.5,316.05 934.5,298.45 930.7,291.05 926.55,283.5 922.2,276.05 904.2,245.45 882.1,216.3 855.7,188.4z"/>
    </g>
  </g>
  <g id="criclebg1">
    <g id="shape4">
      <path id="path2" fill="#F7E262" fill-opacity="1" d="M855.7,188.4 C852.7,185.25 849.3,181.75 845.85,178.3 773.4,105.85 689.1,61.85 593.05,46.4 592.75,46.35 592.45,46.3 592.2,46.25 575.95,43.65 559.4,41.85 542.15,40.9 532.45,40.35 522.3,40.05 512.05,40.05 502.7,40.05 493.45,40.3 484.15,40.8 365.8,46.9 263.85,92.75 178.3,178.3 121.8,234.8 82.65,298.45 60.85,369 Q40.05,436.2 40.05,512.05 C40.05,642.4 86.15,753.7 178.3,845.85 181.7,849.25 185.15,852.6 188.4,855.7 L224.325,819.775 L224.35,819.8 C221.15,816.8 217.65,813.4 214.15,809.9 131.9,727.65 90.8,628.4 90.8,512.1 90.8,395.75 131.9,296.45 214.15,214.2 296.4,131.95 395.7,90.85 512.05,90.85 628.4,90.85 727.65,131.95 809.9,214.2 813.35,217.65 816.75,221.15 819.75,224.35 L855.7,188.4z M819.75,224.35 L785.65,258.45 C852,329.4 885.1,413.9 885.1,512.1 885.1,615.1 848.65,703 775.8,775.8 703,848.65 615.1,885.1 512.05,885.1 413.85,885.1 329.35,852 258.45,785.7 L258.45,785.675 L224.325,819.775 L224.35,819.8 C304.85,895.55 400.65,933.3 512.05,933.3 628.4,933.3 727.65,892.15 809.9,809.9 892.15,727.65 933.3,628.4 933.3,512.1 933.3,400.65 895.55,304.8 819.75,224.35z"/>
      <path id="path3" fill="#F6BB2A" fill-opacity="1" d="M775.8,248.3 C779.2,251.7 782.55,255.15 785.65,258.45 L819.75,224.35 C816.75,221.15 813.35,217.65 809.9,214.2 727.65,131.95 628.4,90.85 512.05,90.85 395.7,90.85 296.4,131.95 214.15,214.2 131.9,296.45 90.8,395.75 90.8,512.1 90.8,628.4 131.9,727.65 214.15,809.9 217.65,813.4 221.15,816.8 224.35,819.8 L224.325,819.775 L258.45,785.675 L258.45,785.7 C255.1,782.55 251.65,779.2 248.25,775.8 175.4,703 139,615.1 139,512.1 139,409.05 175.4,321.15 248.25,248.3 321.1,175.45 409,139.05 512.05,139.05 615.1,139.05 703,175.45 775.8,248.3z M969.75,392.05 C968.65,387.7 967.4,383.05 966.1,378.45 963.85,370.6 961.35,362.65 958.55,354.65 958.25,353.9 957.95,353 957.65,352.1 951.2,333.85 943.5,316.05 934.5,298.45 930.7,291.05 926.55,283.5 922.2,276.05 904.2,245.45 882.1,216.3 855.7,188.4 L819.75,224.35 C895.55,304.8 933.3,400.65 933.3,512.1 933.3,628.4 892.15,727.65 809.9,809.9 727.65,892.15 628.4,933.3 512.05,933.3 400.65,933.3 304.85,895.55 224.35,819.8 L224.325,819.775 L188.4,855.7 C233.95,898.85 283.7,931 337.4,952.15 343.85,954.75 350,957 356.2,959.1 396.7,972.95 439.25,981 484.15,983.35 484.3,983.35 484.4,983.35 484.55,983.35 493.05,983.8 501.15,984.05 509.05,984.05 510.25,984.05 511.15,984.05 512.05,984.05 522.35,984.05 532.55,983.75 542.15,983.25 544.65,983.1 546.9,982.95 549.1,982.8 569.3,981.35 589,978.75 607.8,975.1 615.75,973.55 623.6,971.8 631.2,969.95 695.9,953.7 754.55,924 807.35,880.8 820.6,869.9 833.4,858.3 845.85,845.85 894.45,797.25 930.25,743.35 953.2,684.05 957.15,673.8 960.75,663.4 963.95,652.9 975.65,614.25 982.25,573.5 983.75,530.55 983.95,524.5 984.05,518.3 984.05,512.05 984.05,511.4 984.05,510.7 984.05,510.05 984.05,509.7 984.05,509.4 984.05,509.05 983.85,468.4 979.1,429.55 969.75,392.05z"/>
    </g>
    <g id="Symbole.__2033_1" overflow="visible">
      <g id="Calque.__202">
        <g id="shape40">
          <path id="path31" fill="#181F36" fill-opacity="1" d="M785.6,258.4 C782.5,255.1 779.15,251.65 775.75,248.25 702.95,175.4 615.05,139 512,139 408.95,139 321.05,175.4 248.2,248.25 175.35,321.1 138.95,409 138.95,512.05 138.95,615.05 175.35,702.95 248.2,775.75 251.6,779.15 255.05,782.5 258.4,785.65 329.3,851.95 413.8,885.05 512,885.05 615.05,885.05 702.95,848.6 775.75,775.75 Q885.05,666.55 885.05,512.05 C885.05,413.85 851.95,329.35 785.6,258.4z"/>
        </g>
      </g>
    </g>
  </g>
  <g id="criclebg2">
    <g id="shape15">
      <path id="path11" fill="#F7E262" fill-opacity="1" d="M855.7,188.4 C852.7,185.25 849.3,181.75 845.85,178.3 773.4,105.85 689.1,61.85 593.05,46.4 592.75,46.35 592.45,46.3 592.2,46.25 575.95,43.65 559.4,41.85 542.15,40.9 532.45,40.35 522.3,40.05 512.05,40.05 502.7,40.05 493.45,40.3 484.15,40.8 365.8,46.9 263.85,92.75 178.3,178.3 121.8,234.8 82.65,298.45 60.85,369 Q40.05,436.2 40.05,512.05 C40.05,642.4 86.15,753.7 178.3,845.85 181.7,849.25 185.15,852.6 188.4,855.7 L224.325,819.775 L224.35,819.8 C221.15,816.8 217.65,813.4 214.15,809.9 131.9,727.65 90.8,628.4 90.8,512.1 90.8,395.75 131.9,296.45 214.15,214.2 296.4,131.95 395.7,90.85 512.05,90.85 628.4,90.85 727.65,131.95 809.9,214.2 813.35,217.65 816.75,221.15 819.75,224.35 L855.7,188.4z M819.75,224.35 L785.65,258.45 C852,329.4 885.1,413.9 885.1,512.1 885.1,537.55 882.9,562.05 878.45,585.7 864.85,657.6 830.65,721 775.8,775.8 705.1,846.55 620.15,882.95 520.65,885.05 517.95,885.05 515,885.1 512.05,885.1 510.2,885.1 508.4,885.1 506.3,885.05 492.35,884.85 478.65,884 464.8,882.45 387.05,873.4 318.7,841.6 259.85,787 259.4,786.55 258.9,786.15 258.45,785.7 L258.425,785.7 224.325,819.775 L224.35,819.8 C304.85,895.55 400.65,933.3 512.05,933.3 628.4,933.3 727.65,892.15 809.9,809.9 892.15,727.65 933.3,628.4 933.3,512.1 933.3,400.65 895.55,304.8 819.75,224.35z"/>
      <path id="path12" fill="#F6BB2A" fill-opacity="1" d="M969.75,392.05 C968.65,387.7 967.4,383.05 966.1,378.45 963.85,370.6 961.35,362.65 958.55,354.65 958.25,353.9 957.95,353 957.65,352.1 951.2,333.85 943.5,316.05 934.5,298.45 930.7,291.05 926.55,283.5 922.2,276.05 904.2,245.45 882.1,216.3 855.7,188.4 L819.75,224.35 C895.55,304.8 933.3,400.65 933.3,512.1 933.3,628.4 892.15,727.65 809.9,809.9 727.65,892.15 628.4,933.3 512.05,933.3 400.65,933.3 304.85,895.55 224.35,819.8 L224.325,819.775 L188.4,855.7 C233.95,898.85 283.7,931 337.4,952.15 343.85,954.75 350,957 356.2,959.1 396.7,972.95 439.25,981 484.15,983.35 484.3,983.35 484.4,983.35 484.55,983.35 493.05,983.8 501.15,984.05 509.05,984.05 510.25,984.05 511.15,984.05 512.05,984.05 522.35,984.05 532.55,983.75 542.15,983.25 544.65,983.1 546.9,982.95 549.1,982.8 569.3,981.35 589,978.75 607.8,975.1 615.75,973.55 623.6,971.8 631.2,969.95 695.9,953.7 754.55,924 807.35,880.8 820.6,869.9 833.4,858.3 845.85,845.85 894.45,797.25 930.25,743.35 953.2,684.05 957.15,673.8 960.75,663.4 963.95,652.9 975.65,614.25 982.25,573.5 983.75,530.55 983.95,524.5 984.05,518.3 984.05,512.05 984.05,511.4 984.05,510.7 984.05,510.05 984.05,509.7 984.05,509.4 984.05,509.05 983.85,468.4 979.1,429.55 969.75,392.05z M775.8,248.3 C779.2,251.7 782.55,255.15 785.65,258.45 L819.75,224.35 C816.75,221.15 813.35,217.65 809.9,214.2 727.65,131.95 628.4,90.85 512.05,90.85 395.7,90.85 296.4,131.95 214.15,214.2 131.9,296.45 90.8,395.75 90.8,512.1 90.8,628.4 131.9,727.65 214.15,809.9 217.65,813.4 221.15,816.8 224.35,819.8 L224.325,819.775 L258.425,785.7 L258.45,785.7 C257.7,785 257,784.3 256.3,783.65 254.1,781.6 251.95,779.5 249.8,777.35 249.3,776.85 248.8,776.35 248.25,775.8 175.4,703 139,615.1 139,512.1 139,409.05 175.4,321.15 248.25,248.3 321.1,175.45 409,139.05 512.05,139.05 615.1,139.05 703,175.45 775.8,248.3z M785.65,258.45 C852,329.4 885.1,413.9 885.1,512.1 885.1,537.55 882.9,562.05 878.45,585.7 L878.425,585.675 L588.35,295.6 346.6,295.6 423.05,372.05 441.6,642.05 346.85,711.25 520.625,885.025 L520.65,885.05 C517.95,885.05 515,885.1 512.05,885.1 510.2,885.1 508.4,885.1 506.3,885.05 492.35,884.85 478.65,884 464.8,882.45 387.05,873.4 318.7,841.6 259.85,787 259.4,786.55 258.9,786.15 258.45,785.7 L258.425,785.7 L258.45,785.7 C257.7,785 257,784.3 256.3,783.65 254.1,781.6 251.95,779.5 249.8,777.35 249.3,776.85 248.8,776.35 248.25,775.8 175.4,703 139,615.1 139,512.1 139,409.05 175.4,321.15 248.25,248.3 321.1,175.45 409,139.05 512.05,139.05 615.1,139.05 703,175.45 775.8,248.3 779.2,251.7 782.55,255.15 785.65,258.45z"/>
      <path id="path20" fill="#000000" fill-opacity="0.2" d="M775.8,775.8 C830.65,721 864.85,657.6 878.45,585.7 L878.425,585.675 L588.35,295.6 346.6,295.6 423.05,372.05 441.6,642.05 346.85,711.25 520.625,885.025 L520.65,885.05 C620.15,882.95 705.1,846.55 775.8,775.8z"/>
    </g>
  </g>
  <g id="V">
    <g id="shape27">
      <path id="path21" fill="#F6BB2A" fill-opacity="1" d="M650.05,667.05 L691.25,711.25 691.25,546.9 650.05,667.05z M588.35,295.6 L583.65,295.6 467.05,333.05 467.05,667.05 512.05,621.2 512.05,351.9 588.35,295.6z"/>
      <path id="path22" fill="#F7E262" fill-opacity="1" d="M691.25,711.25 L650.05,667.05 467.05,667.05 346.85,711.25 463.05,711.25 467.05,711.25 691.25,711.25z M346.6,295.6 L467.05,333.05 583.65,295.6 346.6,295.6z"/>
      <path id="path23" fill="#F7E8A2" fill-opacity="1" d="M650.05,667.05 L691.25,546.9 634.55,623.6 512.05,623.6 512.05,621.2 467.05,667.05 650.05,667.05z M467.05,333.05 L346.6,295.6 423.05,352.05 423.05,655.05 346.85,711.25 467.05,667.05 467.05,333.05z"/>
    </g>
  </g>
</svg>