<?xml version="1.0" encoding="utf-8"?>
<!-- Generator: flash2svg, http://dissentgraphics.com/tools/flash2svg -->
<svg xmlns:xlink="http://www.w3.org/1999/xlink" id="Processing" image-rendering="optimizeSpeed" baseProfile="basic" version="1.1" style="background-color:#ffffff" x="0px" y="0px" width="1024px" height="1024px" viewBox="0 0 1024 1024" enable-background="new 0 0 1024 1024" xmlns="http://www.w3.org/2000/svg">
  <defs transform="matrix(1 0 0 1 0 0) "/>
  <g id="shadow">
    <g id="shape">
      <path id="path" fill="#000000" fill-opacity="0.09803921568627451" d="M969.65,351.3 Q961.05,330.45 950.25,310.45 C946.2,302.9 941.9,295.4 937.35,288.05 917.8,256.35 893.95,226.4 865.8,198.25 773.65,106.1 662.35,60 532,60 401.65,60 290.4,106.1 198.25,198.25 106.1,290.4 60,401.65 60,532 60,662.35 106.1,773.65 198.25,865.8 290.4,957.95 401.65,1004 532,1004 662.35,1004 773.65,957.95 865.8,865.8 916.55,815 953.35,758.4 976.15,696.05 994.7,645.2 1004,590.55 1004,532 1004,487.1 998.55,444.45 987.6,404.05 986.35,399.5 985.05,394.95 983.7,390.45 979.6,377.15 974.9,364.1 969.65,351.3z"/>
    </g>
  </g>
  <g id="bg">
    <g id="shape2">
      <path id="path1" fill="#08314F" fill-opacity="1" d="M969.75,392.05 C968.65,387.7 967.4,383.05 966.1,378.45 965.1,375.05 964.1,371.6 962.95,367.95 961.35,362.8 959.55,357.45 957.65,352.1 951.2,333.85 943.5,316.05 934.5,298.45 930.7,291.05 926.55,283.5 922.2,276.05 901.9,241.55 876.4,208.85 845.85,178.3 773.25,105.7 688.7,61.65 592.2,46.25 575.95,43.65 559.4,41.85 542.15,40.9 532.45,40.35 522.3,40.05 512.05,40.05 502.7,40.05 493.45,40.3 484.15,40.8 365.8,46.9 263.85,92.75 178.3,178.3 Q40.05,316.55 40.05,512.05 C40.05,642.4 86.15,753.7 178.3,845.85 235,902.5 298.85,941.75 369.4,963.4 406.15,974.65 444.2,981.25 484.15,983.35 484.3,983.35 484.4,983.35 484.55,983.35 493.05,983.8 501.15,984.05 509.05,984.05 510.25,984.05 511.15,984.05 512.05,984.05 522.35,984.05 532.55,983.75 542.15,983.25 544.65,983.1 546.9,982.95 549.1,982.8 569.3,981.35 589,978.75 607.8,975.1 615.75,973.55 623.6,971.8 631.2,969.95 712,949.65 783.35,908.35 845.85,845.85 894.45,797.25 930.25,743.35 953.2,684.05 971.65,636.4 981.85,585.25 983.75,530.55 983.95,524.5 984.05,518.3 984.05,512.05 984.05,511.4 984.05,510.7 984.05,510.05 984.05,509.7 984.05,509.4 984.05,509.05 983.85,468.4 979.1,429.55 969.75,392.05z"/>
    </g>
  </g>
  <mask id="bg1">
    <g id="g">
      <g id="shape12">
        <path id="path15" fill="#FFFFFF" fill-opacity="1" d="M969.75,392.05 C968.65,387.7 967.4,383.05 966.1,378.45 965.1,375.05 964.1,371.6 962.95,367.95 961.35,362.8 959.55,357.45 957.65,352.1 951.2,333.85 943.5,316.05 934.5,298.45 930.7,291.05 926.55,283.5 922.2,276.05 901.9,241.55 876.4,208.85 845.85,178.3 773.25,105.7 688.7,61.65 592.2,46.25 575.95,43.65 559.4,41.85 542.15,40.9 532.45,40.35 522.3,40.05 512.05,40.05 502.7,40.05 493.45,40.3 484.15,40.8 365.8,46.9 263.85,92.75 178.3,178.3 Q40.05,316.55 40.05,512.05 C40.05,642.4 86.15,753.7 178.3,845.85 235,902.5 298.85,941.75 369.4,963.4 406.15,974.65 444.2,981.25 484.15,983.35 484.3,983.35 484.4,983.35 484.55,983.35 493.05,983.8 501.15,984.05 509.05,984.05 510.25,984.05 511.15,984.05 512.05,984.05 522.35,984.05 532.55,983.75 542.15,983.25 544.65,983.1 546.9,982.95 549.1,982.8 569.3,981.35 589,978.75 607.8,975.1 615.75,973.55 623.6,971.8 631.2,969.95 712,949.65 783.35,908.35 845.85,845.85 894.45,797.25 930.25,743.35 953.2,684.05 971.65,636.4 981.85,585.25 983.75,530.55 983.95,524.5 984.05,518.3 984.05,512.05 984.05,511.4 984.05,510.7 984.05,510.05 984.05,509.7 984.05,509.4 984.05,509.05 983.85,468.4 979.1,429.55 969.75,392.05z"/>
      </g>
    </g>
  </mask>
  <g id="masked" mask="url(#bg1)">
    <g id="Calque.__201">
      <g id="shape4">
        <path id="path2" fill="none" stroke="#5988B2" stroke-opacity="1" stroke-width="9.65" stroke-linecap="round" stroke-linejoin="round" d="M1007.65,571.85 L777.85,461.85 264.85,587.025 195.85,603.85 L288.85,808.85 L195.85,603.85 L46.85,693.8 L195.85,603.85 L-35.15,268.85 L195.85,603.85 203.125,242.85 205.85,107.5 L162.85,94.85 L205.85,107.5 L207.85,8.85 L205.85,107.5 445.25,177.925 445.275,177.925 L442.85,175.85 L445.275,177.925 445.3,177.925 L525.85,-80.15 L445.3,177.925 650.85,122.8 L642.85,-3.15 L650.85,122.8 L758.85,93.85 L650.85,122.8 L923.85,205.85 L650.85,122.8 777.85,461.85"/>
        <path id="path4" fill="none" stroke="#5988B2" stroke-opacity="1" stroke-width="9.65" stroke-linecap="round" stroke-linejoin="round" d="M205.85,107.5 L203.125,242.85 445.25,177.925 205.85,107.5z"/>
        <path id="path6" fill="none" stroke="#5988B2" stroke-opacity="1" stroke-width="9.65" stroke-linecap="round" stroke-linejoin="round" d="M445.3,177.95 L445.25,177.925 203.125,242.85 195.85,603.85 264.85,587.025 584.85,297.1 445.3,177.95z"/>
        <path id="path8" fill="none" stroke="#5988B2" stroke-opacity="1" stroke-width="9.65" stroke-linecap="round" stroke-linejoin="round" d="M445.25,177.925 L445.3,177.95 445.275,177.925 445.25,177.925"/>
        <path id="path10" fill="none" stroke="#5988B2" stroke-opacity="1" stroke-width="9.65" stroke-linecap="round" stroke-linejoin="round" d="M445.3,177.95 L445.3,177.925 445.275,177.925 445.3,177.95"/>
        <path id="path12" fill="none" stroke="#5988B2" stroke-opacity="1" stroke-width="9.65" stroke-linecap="round" stroke-linejoin="round" d="M445.3,177.925 L445.3,177.95 584.85,297.1 777.85,461.85 650.85,122.8 445.3,177.925z"/>
        <path id="path14" fill="none" stroke="#5988B2" stroke-opacity="1" stroke-width="9.65" stroke-linecap="round" stroke-linejoin="round" d="M584.85,297.1 L264.85,587.025 777.85,461.85 584.85,297.1z"/>
      </g>
    </g>
  </g>
  <g id="Calque.__202">
    <g id="shape14">
      <path id="path16" fill="#5988B2" fill-opacity="1" d="M425.2,189.85 C430,194.65 435.8,197.05 442.55,197.05 449.3,197.05 455.1,194.65 459.85,189.85 464.65,185.1 467.05,179.3 467.05,172.55 467.05,165.8 464.65,160 459.85,155.2 455.1,150.45 449.3,148.05 442.55,148.05 435.8,148.05 430,150.45 425.2,155.2 420.45,160 418.05,165.8 418.05,172.55 418.05,179.3 420.45,185.1 425.2,189.85z M768.05,430.05 C761.3,430.05 755.5,432.45 750.7,437.2 745.95,442 743.55,447.8 743.55,454.55 743.55,461.3 745.95,467.1 750.7,471.85 755.5,476.65 761.3,479.05 768.05,479.05 774.8,479.05 780.6,476.65 785.35,471.85 790.15,467.1 792.55,461.3 792.55,454.55 792.55,447.8 790.15,442 785.35,437.2 780.6,432.45 774.8,430.05 768.05,430.05z M670.55,118 Q670.55,107.85 663.35,100.65 C658.6,95.9 652.8,93.5 646.05,93.5 639.3,93.5 633.5,95.9 628.7,100.65 623.95,105.45 621.55,111.25 621.55,118 621.55,124.75 623.95,130.55 628.7,135.3 633.5,140.1 639.3,142.5 646.05,142.5 652.8,142.5 658.6,140.1 663.35,135.3 668.15,130.55 670.55,124.75 670.55,118z M597.35,274.95 C592.6,270.2 586.8,267.8 580.05,267.8 573.3,267.8 567.5,270.2 562.7,274.95 557.95,279.75 555.55,285.55 555.55,292.3 555.55,299.05 557.95,304.85 562.7,309.6 567.5,314.4 573.3,316.8 580.05,316.8 586.8,316.8 592.6,314.4 597.35,309.6 602.15,304.85 604.55,299.05 604.55,292.3 604.55,285.55 602.15,279.75 597.35,274.95z M191.75,576.05 C185,576.05 179.2,578.45 174.4,583.2 169.65,588 167.25,593.8 167.25,600.55 167.25,607.3 169.65,613.1 174.4,617.85 179.2,622.65 185,625.05 191.75,625.05 198.5,625.05 204.3,622.65 209.05,617.85 213.85,613.1 216.25,607.3 216.25,600.55 216.25,593.8 213.85,588 209.05,583.2 204.3,578.45 198.5,576.05 191.75,576.05z M242.7,564.9 C237.95,569.7 235.55,575.5 235.55,582.25 235.55,589 237.95,594.8 242.7,599.55 247.5,604.35 253.3,606.75 260.05,606.75 266.8,606.75 272.6,604.35 277.35,599.55 282.15,594.8 284.55,589 284.55,582.25 284.55,575.5 282.15,569.7 277.35,564.9 272.6,560.15 266.8,557.75 260.05,557.75 253.3,557.75 247.5,560.15 242.7,564.9z M222.3,240.55 C222.3,233.8 219.9,228 215.1,223.2 210.35,218.45 204.55,216.05 197.8,216.05 191.05,216.05 185.25,218.45 180.45,223.2 175.7,228 173.3,233.8 173.3,240.55 173.3,247.3 175.7,253.1 180.45,257.85 185.25,262.65 191.05,265.05 197.8,265.05 204.55,265.05 210.35,262.65 215.1,257.85 219.9,253.1 222.3,247.3 222.3,240.55z M312.7,812.15 C312.7,805.4 310.3,799.6 305.5,794.8 300.75,790.05 294.95,787.65 288.2,787.65 281.45,787.65 275.65,790.05 270.85,794.8 266.1,799.6 263.7,805.4 263.7,812.15 263.7,818.9 266.1,824.7 270.85,829.45 275.65,834.25 281.45,836.65 288.2,836.65 294.95,836.65 300.75,834.25 305.5,829.45 310.3,824.7 312.7,818.9 312.7,812.15z"/>
    </g>
  </g>
  <g id="bg2">
    <g id="shape30">
      <path id="path31" fill="#000000" fill-opacity="0.2" d="M974.625,610.275 L666.375,302.025 407.05,320.3 321.15,765.05 539.475,983.375 Q540.82,983.322 542.15,983.25 C544.65,983.1 546.9,982.95 549.1,982.8 569.3,981.35 589,978.75 607.8,975.1 615.75,973.55 623.6,971.8 631.2,969.95 712,949.65 783.35,908.35 845.85,845.85 894.45,797.25 930.25,743.35 953.2,684.05 962.35,660.35 969.5,635.8 974.65,610.3"/>
    </g>
  </g>
  <g id="Calque.__203">
    <g id="shape32">
      <path id="path32" fill="#FFFFFF" fill-opacity="1" d="M693.2,349.45 Q683.45,318.45 668.2,301.9 C656.05,287.45 639.85,276.8 619.6,269.85 599.35,262.65 575.05,259.05 546.7,259.05 L321.15,259.05 321.15,765.05 455.2,765.05 455.2,594.2 566.6,594.2 591.6,592.9 C601.3,591.95 613.55,588.25 628.4,581.75 643.45,575.45 656.2,566.35 666.55,554.4 676.9,542.7 685.55,525.6 692.55,503.1 699.5,480.35 703,454.25 703,424.75 703,395.25 699.75,370.15 693.2,349.45z M559.2,386.25 C565.05,395.3 568,408.8 568,426.75 568,462.35 556.3,480.15 532.85,480.15 L455.2,480.15 455.2,373.1 532.85,373.1 C544.55,373.1 553.35,377.5 559.2,386.25z"/>
    </g>
  </g>
</svg>