<?xml version="1.0" encoding="utf-8"?>
<!-- Generator: flash2svg, http://dissentgraphics.com/tools/flash2svg -->
<svg xmlns:xlink="http://www.w3.org/1999/xlink" id="Apps-Visual-Studio-Community" image-rendering="optimizeSpeed" baseProfile="basic" version="1.1" style="background-color:#ffffff" x="0px" y="0px" width="1024px" height="1024px" viewBox="0 0 1024 1024" enable-background="new 0 0 1024 1024" xmlns="http://www.w3.org/2000/svg">
  <defs transform="matrix(1 0 0 1 0 0) "/>
  <g id="background-circle-shadow">
    <g id="shape">
      <path id="path" fill="#000000" fill-opacity="0.09803921568627451" d="M969.65,351.3 Q961.05,330.45 950.25,310.45 C946.2,302.9 941.9,295.4 937.35,288.05 917.8,256.35 893.95,226.4 865.8,198.25 773.65,106.1 662.35,60 532,60 401.65,60 290.4,106.1 198.25,198.25 106.1,290.4 60,401.65 60,532 60,662.35 106.1,773.65 198.25,865.8 290.4,957.95 401.65,1004 532,1004 662.35,1004 773.65,957.95 865.8,865.8 916.55,815 953.35,758.4 976.15,696.05 994.7,645.2 1004,590.55 1004,532 1004,487.1 998.55,444.45 987.6,404.05 986.35,399.5 985.05,394.95 983.7,390.45 979.6,377.15 974.9,364.1 969.65,351.3z"/>
    </g>
  </g>
  <g id="background-circle">
    <g id="shape2">
      <path id="path1" fill="#F7F7F7" fill-opacity="1" d="M966.1,378.45 C965.1,375.05 964.1,371.6 962.95,367.95 961.35,362.8 959.55,357.45 957.65,352.1 951.2,333.85 943.5,316.05 934.5,298.45 930.7,291.05 926.55,283.5 922.2,276.05 901.9,241.55 876.4,208.85 845.85,178.3 773.25,105.7 688.7,61.65 592.2,46.25 575.95,43.65 559.4,41.85 542.15,40.9 532.45,40.35 522.3,40.05 512.05,40.05 502.7,40.05 493.45,40.3 484.15,40.8 365.8,46.9 263.85,92.75 178.3,178.3 Q40.05,316.55 40.05,512.05 C40.05,642.4 86.15,753.7 178.3,845.85 235,902.5 298.85,941.75 369.4,963.4 406.15,974.65 444.2,981.25 484.15,983.35 484.3,983.35 484.4,983.35 484.55,983.35 493.05,983.8 501.15,984.05 509.05,984.05 510.25,984.05 511.15,984.05 512.05,984.05 522.35,984.05 532.55,983.75 542.15,983.25 544.65,983.1 546.9,982.95 549.1,982.8 569.3,981.35 589,978.75 607.8,975.1 615.75,973.55 623.6,971.8 631.2,969.95 712,949.65 783.35,908.35 845.85,845.85 894.45,797.25 930.25,743.35 953.2,684.05 971.65,636.4 981.85,585.25 983.75,530.55 983.95,524.5 984.05,518.3 984.05,512.05 984.05,511.4 984.05,510.7 984.05,510.05 984.05,509.7 984.05,509.4 984.05,509.05 983.85,468.4 979.1,429.55 969.75,392.05 968.65,387.7 967.4,383.05 966.1,378.45z"/>
    </g>
  </g>
  <g id="object-shadow">
    <g id="shape4">
      <path id="path2" fill="#000000" fill-opacity="0.09803921568627451" d="M984.05,510.05 C984.05,509.7 984.05,509.4 984.05,509.05 984,499.1 983.7,489.3 983.1,479.4 L983.075,479.375 L837.55,333.85 532.05,464.3 303.45,366.05 186.55,684.1 485.875,983.425 L485.9,983.45 C493.55,983.8 501.25,984 509.05,984.05 Q510.55,984.05 512.05,984.05 C522.35,984.05 532.55,983.75 542.15,983.25 544.65,983.1 546.9,982.95 549.1,982.8 569.3,981.35 589,978.75 607.8,975.1 615.75,973.55 623.6,971.8 631.2,969.95 712,949.65 783.35,908.35 845.85,845.85 894.45,797.25 930.25,743.35 953.2,684.05 971.65,636.4 981.85,585.25 983.75,530.55 983.95,524.5 984.05,518.3 984.05,512.05 984.05,511.4 984.05,510.7 984.05,510.05z"/>
    </g>
  </g>
  <g id="object">
    <g id="shape6">
      <path id="path4" fill="#33A4DE" fill-opacity="1" d="M342.525,756.1 L342.55,756.1 342.55,756.075 342.525,756.1"/>
      <path id="path6" fill="#923DA8" fill-opacity="1" d="M681.55,758.225 L681.55,554.1 630.45,510.5 510.25,613.05 681.55,758.225z M342.55,266.55 L342.55,265.05 186.575,336.95 342.55,470 390.05,510.5 510.25,407.975 342.55,266.55z"/>
      <path id="path7" fill="#632B71" fill-opacity="1" d="M681.55,466.925 L681.55,554.1 681.55,758.225 682.175,758.75 837.55,687.15 837.55,333.85 681.55,466.925z M186.575,336.95 L186.55,336.95 186.55,684.1 342.55,551.025 342.55,470 186.575,336.95z"/>
      <path id="path8" fill="#33A4DE" fill-opacity="1" d="M682.175,758.75 L681.55,758.225 681.55,759.05 682.175,758.75z M681.55,266.225 L682.475,265.45 682.95,265.05 681.55,265.05 681.55,266.225z"/>
      <path id="path9" fill="#743385" fill-opacity="1" d="M682.475,265.45 L681.55,266.225 510.25,407.975 390.05,510.5 342.55,551.025 186.55,684.1 342.525,756.1 342.55,756.075 510.25,613.05 630.45,510.5 681.55,466.925 837.55,333.85 682.475,265.45z"/>
      <path id="path14" fill="#33A4DE" fill-opacity="1" d="M186.55,336.95 L186.575,336.95 186.55,336.925 186.55,336.95"/>
    </g>
  </g>
</svg>