<?xml version="1.0" encoding="utf-8"?>
<!-- Generator: flash2svg, http://dissentgraphics.com/tools/flash2svg -->
<svg xmlns:xlink="http://www.w3.org/1999/xlink" id="Apps-AudioMidiSetup" image-rendering="optimizeSpeed" baseProfile="basic" version="1.1" style="background-color:#ffffff" x="0px" y="0px" width="1024px" height="1024px" viewBox="0 0 1024 1024" enable-background="new 0 0 1024 1024" xmlns="http://www.w3.org/2000/svg">
  <defs transform="matrix(1 0 0 1 0 0) "/>
  <g id="background-circle-shadow">
    <g id="shape">
      <path id="path" fill="#000000" fill-opacity="0.09803921568627451" d="M969.65,351.3 Q961.05,330.45 950.25,310.45 C946.2,302.9 941.9,295.4 937.35,288.05 917.8,256.35 893.95,226.4 865.8,198.25 773.65,106.1 662.35,60 532,60 401.65,60 290.4,106.1 198.25,198.25 106.1,290.4 60,401.65 60,532 60,662.35 106.1,773.65 198.25,865.8 290.4,957.95 401.65,1004 532,1004 662.35,1004 773.65,957.95 865.8,865.8 916.55,815 953.35,758.4 976.15,696.05 994.7,645.2 1004,590.55 1004,532 1004,487.1 998.55,444.45 987.6,404.05 986.35,399.5 985.05,394.95 983.7,390.45 979.6,377.15 974.9,364.1 969.65,351.3z"/>
    </g>
  </g>
  <g id="background-circle">
    <g id="shape2">
      <path id="path1" fill="#363F6A" fill-opacity="1" d="M966.1,378.45 C965.1,375.05 964.1,371.6 962.95,367.95 961.35,362.8 959.55,357.45 957.65,352.1 951.2,333.85 943.5,316.05 934.5,298.45 930.7,291.05 926.55,283.5 922.2,276.05 901.9,241.55 876.4,208.85 845.85,178.3 773.25,105.7 688.7,61.65 592.2,46.25 575.95,43.65 559.4,41.85 542.15,40.9 532.45,40.35 522.3,40.05 512.05,40.05 502.7,40.05 493.45,40.3 484.15,40.8 365.8,46.9 263.85,92.75 178.3,178.3 Q40.05,316.55 40.05,512.05 C40.05,642.4 86.15,753.7 178.3,845.85 235,902.5 298.85,941.75 369.4,963.4 406.15,974.65 444.2,981.25 484.15,983.35 484.3,983.35 484.4,983.35 484.55,983.35 493.05,983.8 501.15,984.05 509.05,984.05 510.25,984.05 511.15,984.05 512.05,984.05 522.35,984.05 532.55,983.75 542.15,983.25 544.65,983.1 546.9,982.95 549.1,982.8 569.3,981.35 589,978.75 607.8,975.1 615.75,973.55 623.6,971.8 631.2,969.95 712,949.65 783.35,908.35 845.85,845.85 894.45,797.25 930.25,743.35 953.2,684.05 971.65,636.4 981.85,585.25 983.75,530.55 983.95,524.5 984.05,518.3 984.05,512.05 984.05,511.4 984.05,510.7 984.05,510.05 984.05,509.7 984.05,509.4 984.05,509.05 983.85,468.4 979.1,429.55 969.75,392.05 968.65,387.7 967.4,383.05 966.1,378.45z"/>
    </g>
  </g>
  <g id="object-shadow">
    <g id="shape4">
      <path id="path2" fill="#000000" fill-opacity="0.2" d="M780.1,412.55 L742.475,406.225 632.8,296.55 545.375,346.525 931.075,732.225 L931.1,732.25 C939.5,716.55 946.85,700.5 953.2,684.05 Q967.484,647.194 975.15,607.6 L780.1,412.55z M485.5,442.55 L437.7,448.05 338.2,348.55 250.775,398.525 764.375,912.125 L764.4,912.15 C793.1,893.55 820.2,871.5 845.85,845.85 853.05,838.65 859.95,831.35 866.75,823.8 L866.725,823.775 L485.5,442.55z"/>
    </g>
  </g>
  <g id="Calque.__201">
    <g id="shape8">
      <path id="path5" fill="#171922" fill-opacity="1" d="M750.4,237.9 Q743.05,230.55 732.7,230.55 C725.8,230.55 719.9,233 715.05,237.9 710.15,242.75 707.7,248.65 707.7,255.55 L707.7,327.25 757.7,277.25 757.7,255.55 C757.7,248.65 755.25,242.75 750.4,237.9z M438.5,230.55 C431.6,230.55 425.7,233 420.85,237.9 415.95,242.75 413.5,248.65 413.5,255.55 L413.5,621.45 463.5,571.45 463.5,255.55 C463.5,248.65 461.05,242.75 456.2,237.9 451.3,233 445.4,230.55 438.5,230.55z M585.6,230.55 C578.7,230.55 572.8,233 567.95,237.9 563.05,242.75 560.6,248.65 560.6,255.55 L560.6,474.35 610.6,424.35 610.6,255.55 C610.6,248.65 608.15,242.75 603.3,237.9 598.4,233 592.5,230.55 585.6,230.55z M309.1,237.9 C304.2,233 298.3,230.55 291.4,230.55 284.5,230.55 278.6,233 273.75,237.9 268.85,242.75 266.4,248.65 266.4,255.55 L266.4,768.55 316.4,718.55 316.4,255.55 C316.4,248.65 313.95,242.75 309.1,237.9z"/>
      <path id="path6" fill="#000000" fill-opacity="1" d="M757.7,277.25 L707.7,327.25 707.7,768.55 C707.7,775.45 710.15,781.35 715.05,786.25 719.9,791.1 725.8,793.55 732.7,793.55 739.6,793.55 745.5,791.1 750.4,786.25 755.25,781.35 757.7,775.45 757.7,768.55 L757.7,277.25z M413.5,768.55 C413.5,775.45 415.95,781.35 420.85,786.25 425.7,791.1 431.6,793.55 438.5,793.55 445.4,793.55 451.3,791.1 456.2,786.25 461.05,781.35 463.5,775.45 463.5,768.55 L463.5,571.45 413.5,621.45 413.5,768.55z M610.6,424.35 L560.6,474.35 560.6,768.55 C560.6,775.45 563.05,781.35 567.95,786.25 572.8,791.1 578.7,793.55 585.6,793.55 592.5,793.55 598.4,791.1 603.3,786.25 608.15,781.35 610.6,775.45 610.6,768.55 L610.6,424.35z M266.4,768.55 C266.4,775.45 268.85,781.35 273.75,786.25 278.6,791.1 284.5,793.55 291.4,793.55 298.3,793.55 304.2,791.1 309.1,786.25 313.95,781.35 316.4,775.45 316.4,768.55 L316.4,718.55 266.4,768.55z"/>
    </g>
  </g>
  <g id="object">
    <g id="shape27">
      <path id="path19" fill="#7782BB" fill-opacity="1" d="M338.2,391.6 L338.2,348.55 C338.2,343.95 335.9,341.65 331.3,341.65 L307.65,341.65 250.8,398.5 331.3,398.5 C335.9,398.5 338.2,396.2 338.2,391.6z M478.6,435.65 L454.95,435.65 398.1,492.5 478.6,492.5 C483.2,492.5 485.5,490.2 485.5,485.6 L485.5,442.55 C485.5,437.95 483.2,435.65 478.6,435.65z M632.8,296.55 C632.8,291.95 630.5,289.65 625.9,289.65 L602.25,289.65 545.4,346.5 625.9,346.5 C630.5,346.5 632.8,344.2 632.8,339.6 L632.8,296.55z M780.1,412.55 Q780.1,405.65 773.2,405.65 L749.55,405.65 692.7,462.5 773.2,462.5 C777.8,462.5 780.1,460.2 780.1,455.6 L780.1,412.55z"/>
      <path id="path20" fill="#D7DFFB" fill-opacity="1" d="M243.85,348.55 L243.85,391.6 C243.85,396.2 246.15,398.5 250.8,398.5 L307.65,341.65 250.8,341.65 C246.15,341.65 243.85,343.95 243.85,348.55z M398.1,435.65 C393.45,435.65 391.15,437.95 391.15,442.55 L391.15,485.6 C391.15,490.2 393.45,492.5 398.1,492.5 L454.95,435.65 398.1,435.65z M545.4,289.65 C540.75,289.65 538.45,291.95 538.45,296.55 L538.45,339.6 C538.45,344.2 540.75,346.5 545.4,346.5 L602.25,289.65 545.4,289.65z M685.75,455.6 C685.75,460.2 688.05,462.5 692.7,462.5 L749.55,405.65 692.7,405.65 C688.05,405.65 685.75,407.95 685.75,412.55 L685.75,455.6z"/>
    </g>
  </g>
</svg>