
<svg xmlns="http://www.w3.org/2000/svg" version="1.1" xmlns:xlink="http://www.w3.org/1999/xlink" preserveAspectRatio="none" x="0px" y="0px" width="1024px" height="1024px" viewBox="0 0 1024 1024">
<defs>
<g id="Layer4_0_FILL">
<path fill="#000000" fill-opacity="0.09803921568627451" stroke="none" d="
M 969.6 351.25
Q 961 330.4 950.2 310.4 944.1 299.05 937.3 288 907.95 240.45 865.75 198.2 727.5 59.95 531.95 59.95 336.45 59.95 198.2 198.2 59.95 336.45 59.95 531.95 59.95 727.5 198.2 865.75 336.45 1003.95 531.95 1003.95 727.5 1003.95 865.75 865.75 941.9 789.55 976.1 696 1003.95 619.75 1003.95 531.95 1003.95 464.6 987.55 404 985.7 397.15 983.65 390.4 977.5 370.45 969.6 351.25 Z"/>
</g>

<g id="Layer3_0_FILL">
<path fill="#D9582A" stroke="none" d="
M 969.7 392
Q 967.95 385.15 966.05 378.4 964.52578125 373.114453125 962.85 367.85 960.3787109375 359.903125 957.6 352.05 947.85 324.5 934.45 298.4 928.65 287.05 922.15 276 891.5 224 845.8 178.25 736.8 69.25 592.15 46.2 567.65 42.3 542.1 40.85 527.2 40 512 40 497.9 40 484.1 40.75 306.55 49.95 178.25 178.25 40 316.5 40 512 40 707.55 178.25 845.8 263.0400390625 930.55703125 369.35 963.35 423.8880859375 980.1630859375 484.1 983.3 484.3 983.3 484.5 983.3 496.65 983.9 509 984 510.5 984 512 984 527.25 984 542.1 983.2 545.6 983 549.05 982.75 579.1 980.6 607.75 975.05 619.55 972.75 631.15 969.9 751.75 939.85 845.8 845.8 918.7 772.85 953.15 684 980.9 612.4 983.7 530.5 984 521.3 984 512 984 511 984 510 984 509.5 984 509 983.65 447.7 969.7 392 Z"/>
</g>

<g id="Layer2_0_FILL">
<path fill="#000000" fill-opacity="0.2" stroke="none" d="
M 984 510
Q 984 509.5 984 509 983.860546875 484.587890625 981.55 461.05
L 803.05 282.55 419 224 264 297 306.75 722 566 981.25
Q 587.2361328125 979.023828125 607.75 975.05 619.55 972.75 631.15 969.9 751.75 939.85 845.8 845.8 918.7 772.85 953.15 684 980.9 612.4 983.7 530.5 984 521.3 984 512 984 511 984 510 Z"/>
</g>

<g id="Layer0_0_FILL">
<path fill="#FFFFFF" stroke="none" d="
M 36.7 382.35
Q 28.25 384.3 22.15 390.5
L 3.35 409.5
Q 2.45 410.45 2.25 411.7 2 412.95 2.5 414.1
L 9.6 429.9 -0.05 456.35 34.75 589.05
Q 37.25 598.45 42.75 606.45 48.3 614.45 56.2 620.05
L 77.85 635.1
Q 103.8 652.9 125.2 666.8 129.4 670.15 134.75 670.15 140.1 670.15 144.3 666.8 182.8 641.6 213.25 619.95 221.15 614.35 226.65 606.35 232.15 598.35 234.65 588.95
L 269.55 456.2 259.8 429.7 266.6 414.5
Q 267.25 413.05 266.95 411.45 266.65 409.85 265.55 408.7
L 247.1 390.05
Q 241 383.9 232.65 381.95 224.2 380 216.05 382.85
L 210.9 384.65 182.75 354.15 134.95 353.9 86.55 354.25 58.4 385 53.35 383.25
Q 45.2 380.35 36.7 382.35 Z"/>
</g>

<g id="Layer0_1_FILL">
<path fill="#D9582A" stroke="none" d="
M 178.3 567.4
Q 177.75 566.2 176.45 565.8
L 160.8 557.85
Q 155.6 555.25 151.1 553.45
L 142.6 549.95
Q 140.25 548.85 137 547.9
L 133.6 547.9
Q 130.5 548.75 127.95 549.95
L 119.4 553.45
Q 114.1 555.7 109.8 557.9
L 94.1 566.1
Q 92.9 566.45 92.35 567.6 91.75 568.7 92.15 569.85 92.5 570.95 93.7 571.65
L 107.35 581.25
Q 112.05 584.55 115.7 587.9
L 131.2 601.45
Q 132.95 602.9 135.2 602.9 137.5 602.9 139.2 601.45
L 154.9 587.75
Q 158.45 584.6 163.25 581.1
L 176.9 571.35
Q 178 570.85 178.4 569.65 178.85 568.5 178.3 567.4 Z"/>
</g>

<g id="Layer0_2_FILL">
<path fill="#D9582A" stroke="none" d="
M 207.95 438.6
Q 208.05 439.3 206 440.1
L 167.95 454.5
Q 163.45 456.4 161.05 460.75 159.5 465.35 161.65 469.8
L 173.85 492.65
Q 174.85 494.7 174.35 496.85 173.8 499.05 171.95 500.35
L 140.65 521.5
Q 139.05 523.15 139.1 525.45 139.15 527.75 140.8 529.35
L 154.8 542
Q 158.95 545.5 163.7 547.85
L 181 556.1
Q 183.2 557 185.6 556.7 187.95 556.4 189.9 555
L 194.75 551
Q 200.45 546.35 203.05 539.4
L 204.05 536.6
Q 205.6 531.65 203.8 526.7
L 198.7 514.65
Q 197.85 512.4 198.3 510 198.75 507.65 200.3 505.8
L 231.3 472.75
Q 235.15 468.65 238.3 464.7 238.95 463.3 239.25 462.1
L 239.7 460.7
Q 239.7 457.65 239.35 455 237.3 449.95 234.3 445.5
L 225.4 432.45
Q 221.6 426.95 219.1 423.9
L 207.2 409
Q 205.85 407.15 203.7 404.9
L 203.45 404.9
Q 201.05 405.3 198.15 405.9
L 172.05 410.9
Q 168.2 411.1 164.3 409.8
L 149.95 405.15
Q 144.45 403.4 139.7 402.3 135.15 401.85 130.6 402.3 125.85 403.4 120.35 405.15
L 106 409.8
Q 102.2 411.2 98.25 410.95
L 72.1 405.95
Q 66.85 404.95 66.8 405
L 66.6 405
Q 64.8 406.8 63.05 409.1
L 51.2 424
Q 47.95 427.95 44.9 432.55
L 36 445.55
Q 33.7 449 31.85 452.55 30.65 456.6 30.65 460.8
L 31.05 462.2
Q 31.5 463.95 31.9 464.9 36.5 470.35 38.9 472.95
L 69.95 505.95
Q 71.55 507.8 71.95 510.15 72.35 512.5 71.5 514.8
L 66.45 526.85
Q 64.65 531.65 66.2 536.75
L 67.2 539.55
Q 69.75 546.45 75.45 551.1
L 80.35 555.1
Q 82.25 556.5 84.65 556.75 87 557.05 89.2 556.15
L 106.55 547.9
Q 111.2 545.55 115.4 542
L 129.3 529.5
Q 131 527.95 131.1 525.65 131.25 523.35 129.7 521.65
L 129.55 521.5 98.25 500.4
Q 96.4 499.1 95.9 496.9 95.35 494.75 96.35 492.7
L 108.5 469.9
Q 110.65 465.5 109.1 460.8 106.8 456.5 102.2 454.55
L 64.1 440.2
Q 62.05 439.4 62.15 438.65 62.25 437.9 64.45 437.8
L 86.8 435.6
Q 92.05 435.25 97.25 436.5
L 116.7 441.95
Q 118.85 442.6 120.05 444.5 121.25 446.4 120.85 448.6
L 113.2 490.35
Q 112.45 493.75 112.85 497.4 113.05 498.15 114.75 498.95 116.4 499.75 118.6 500.3
L 130.5 502.85
Q 135.7 503.85 140.9 502.85
L 151.55 500.45
Q 153.7 499.95 155.4 499.1 157.1 498.2 157.35 497.45 157.7 493.95 156.95 490.4
L 149.25 448.65
Q 148.9 446.45 150.1 444.55 151.25 442.65 153.4 442
L 172.9 436.55
Q 177.95 435.3 183.3 435.6
L 205.7 437.7
Q 207.9 437.9 207.95 438.6 Z"/>
</g>
</defs>

<g transform="matrix( 1, 0, 0, 1, 0,0) ">
<use xlink:href="#Layer4_0_FILL"/>
</g>

<g transform="matrix( 1, 0, 0, 1, 0,0) ">
<use xlink:href="#Layer3_0_FILL"/>
</g>

<g transform="matrix( 1, 0, 0, 1, 0,0) ">
<use xlink:href="#Layer2_0_FILL"/>
</g>

<g transform="matrix( 2.2254638671875, 0, 0, 2.2254638671875, 212.05,-627) ">
<use xlink:href="#Layer0_0_FILL"/>
</g>

<g transform="matrix( 2.2254638671875, 0, 0, 2.2254638671875, 212.05,-627) ">
<use xlink:href="#Layer0_1_FILL"/>
</g>

<g transform="matrix( 2.2254638671875, 0, 0, 2.2254638671875, 212.05,-627) ">
<use xlink:href="#Layer0_2_FILL"/>
</g>
</svg>
