
<svg xmlns="http://www.w3.org/2000/svg" version="1.1" xmlns:xlink="http://www.w3.org/1999/xlink" preserveAspectRatio="none" x="0px" y="0px" width="1024px" height="1024px" viewBox="0 0 1024 1024">
<defs>
<g id="Layer4_0_FILL">
<path fill="#000000" fill-opacity="0.09803921568627451" stroke="none" d="
M 969.6 351.25
Q 961 330.4 950.2 310.4 944.1 299.05 937.3 288 907.95 240.45 865.75 198.2 727.5 59.95 531.95 59.95 336.45 59.95 198.2 198.2 59.95 336.45 59.95 531.95 59.95 727.5 198.2 865.75 336.45 1003.95 531.95 1003.95 727.5 1003.95 865.75 865.75 941.9 789.55 976.1 696 1003.95 619.75 1003.95 531.95 1003.95 464.6 987.55 404 985.7 397.15 983.65 390.4 977.5 370.45 969.6 351.25 Z"/>
</g>

<g id="Layer3_0_FILL">
<path fill="#164869" stroke="none" d="
M 969.7 392
Q 967.95 385.15 966.05 378.4 964.52578125 373.114453125 962.85 367.85 960.3787109375 359.903125 957.6 352.05 947.85 324.5 934.45 298.4 928.65 287.05 922.15 276 891.5 224 845.8 178.25 736.8 69.25 592.15 46.2 567.65 42.3 542.1 40.85 527.2 40 512 40 497.9 40 484.1 40.75 306.55 49.95 178.25 178.25 40 316.5 40 512 40 707.55 178.25 845.8 263.0400390625 930.55703125 369.35 963.35 423.8880859375 980.1630859375 484.1 983.3 484.3 983.3 484.5 983.3 496.65 983.9 509 984 510.5 984 512 984 527.25 984 542.1 983.2 545.6 983 549.05 982.75 579.1 980.6 607.75 975.05 619.55 972.75 631.15 969.9 751.75 939.85 845.8 845.8 918.7 772.85 953.15 684 980.9 612.4 983.7 530.5 984 521.3 984 512 984 511 984 510 984 509.5 984 509 983.65 447.7 969.7 392 Z"/>
</g>

<g id="Layer2_0_FILL">
<path fill="#000000" fill-opacity="0.2" stroke="none" d="
M 984 510
Q 984 509.5 984 509 983.8376953125 480.5734375 980.75 453.35
L 682.05 154.65 580.1 392.75 342 154.65 457.25 869.15 569 980.9
Q 588.6984375 978.740625 607.75 975.05 619.55 972.75 631.15 969.9 751.75 939.85 845.8 845.8 918.7 772.85 953.15 684 980.9 612.4 983.7 530.5 984 521.3 984 512 984 511 984 510 Z"/>
</g>

<g id="Layer0_0_FILL">
<path fill="#3498DB" stroke="none" d="
M 566.8 869.15
L 512 814.4 457.25 869.15 566.8 869.15
M 819.3 555.4
L 682.05 154.65 594.05 340.3 430.05 340.3 342 154.65 204.7 555.4 513.4 727.4 819.3 555.4
M 376.5 558.85
L 335.65 523.55 473.55 595.25
Q 418.05 606.65 389.15 595.25 367.15 586.75 376.5 558.85
M 634.8 595.25
Q 605.85 606.65 550.35 595.25
L 688.3 523.55 647.45 558.85
Q 652.05 572.9 648.9 581.95 645.75 591 634.8 595.25 Z"/>

<path fill="#FFFFFF" stroke="none" d="
M 513.4 727.4
L 204.7 555.4 457.25 869.15 512 814.4 566.8 869.15 819.3 555.4 513.4 727.4
M 550.35 595.25
Q 605.85 606.65 634.8 595.25 645.75 591 648.9 581.95 652.05 572.9 647.45 558.85
L 688.3 523.55 550.35 595.25
M 335.65 523.55
L 376.5 558.85
Q 367.15 586.75 389.15 595.25 418.05 606.65 473.55 595.25
L 335.65 523.55 Z"/>
</g>
</defs>

<g transform="matrix( 1, 0, 0, 1, 0,0) ">
<use xlink:href="#Layer4_0_FILL"/>
</g>

<g transform="matrix( 1, 0, 0, 1, 0,0) ">
<use xlink:href="#Layer3_0_FILL"/>
</g>

<g transform="matrix( 1, 0, 0, 1, 0,0) ">
<use xlink:href="#Layer2_0_FILL"/>
</g>

<g transform="matrix( 1, 0, 0, 1, 0,0) ">
<use xlink:href="#Layer0_0_FILL"/>
</g>
</svg>
