<?xml version="1.0" encoding="utf-8"?>
<!-- Generator: flash2svg, http://dissentgraphics.com/tools/flash2svg -->
<svg xmlns:xlink="http://www.w3.org/1999/xlink" id="Apps-Wireshark" image-rendering="optimizeSpeed" baseProfile="basic" version="1.1" style="background-color:#ffffff" x="0px" y="0px" width="1024px" height="1024px" viewBox="0 0 1024 1024" enable-background="new 0 0 1024 1024" xmlns="http://www.w3.org/2000/svg">
  <defs transform="matrix(1 0 0 1 0 0) "/>
  <g id="shadow">
    <g id="shape">
      <path id="path" fill="#000000" fill-opacity="0.09803921568627451" d="M969.65,351.3 Q961.05,330.45 950.25,310.45 C946.2,302.9 941.9,295.4 937.35,288.05 917.8,256.35 893.95,226.4 865.8,198.25 773.65,106.1 662.35,60 532,60 401.65,60 290.4,106.1 198.25,198.25 106.1,290.4 60,401.65 60,532 60,662.35 106.1,773.65 198.25,865.8 290.4,957.95 401.65,1004 532,1004 662.35,1004 773.65,957.95 865.8,865.8 916.55,815 953.35,758.4 976.15,696.05 994.7,645.2 1004,590.55 1004,532 1004,487.1 998.55,444.45 987.6,404.05 986.35,399.5 985.05,394.95 983.7,390.45 979.6,377.15 974.9,364.1 969.65,351.3z"/>
    </g>
  </g>
  <g id="bg">
    <g id="shape2">
      <path id="path1" fill="#005468" fill-opacity="1" d="M778.85,705.25 C753.3,716.6 722.4,722.25 686.2,722.25 650,722.25 619.1,716.6 593.5,705.25 569.45,694.6 556.7,681.9 555.25,666.7 553.9,681.8 541.15,694.55 516.95,705.25 491.4,716.6 460.5,722.25 424.3,722.25 388.1,722.25 357.2,716.6 331.6,705.25 307.35,694.5 294.6,681.65 293.35,666.7 292.1,681.65 279.3,694.5 255.05,705.25 229.5,716.6 198.6,722.25 162.4,722.25 131.95,722.25 105.2,718.25 82,710.15 105.2,759.7 137.15,804.7 178.3,845.85 235,902.5 298.85,941.75 369.4,963.4 406.15,974.65 444.2,981.25 484.15,983.35 484.3,983.35 484.4,983.35 484.55,983.35 493.05,983.8 501.15,984.05 509.05,984.05 510.25,984.05 511.15,984.05 512.05,984.05 522.35,984.05 532.55,983.75 542.15,983.25 544.65,983.1 546.9,982.95 549.1,982.8 569.3,981.35 589,978.75 607.8,975.1 615.75,973.55 623.6,971.8 631.2,969.95 712,949.65 783.35,908.35 845.85,845.85 883.85,807.85 914.05,766.6 936.35,722.05 905.35,721 878.25,715.4 855.4,705.25 831.15,694.5 818.4,681.65 817.15,666.7 815.9,681.65 803.1,694.5 778.85,705.25z"/>
      <path id="path2" fill="#006375" fill-opacity="1" d="M941.05,568.8 C932.3,569.6 922.75,570.05 912.8,570.05 876.6,570.05 845.7,564.4 820.1,553.05 795.85,542.3 783.1,529.45 781.85,514.5 780.6,529.45 767.8,542.3 743.55,553.05 718,564.4 687.1,570.05 650.9,570.05 614.7,570.05 583.8,564.4 558.2,553.05 534.15,542.4 521.4,529.7 519.95,514.5 518.6,529.6 505.85,542.35 481.65,553.05 456.1,564.4 425.2,570.05 389,570.05 352.8,570.05 321.9,564.4 296.3,553.05 272.05,542.3 259.3,529.45 258.05,514.5 256.8,529.45 244,542.3 219.75,553.05 194.2,564.4 163.3,570.05 127.1,570.05 94.5,570.05 66.25,565.45 41.85,556.15 42.85,567.65 44.15,578.6 45.8,589.35 51.9,628.8 62.7,666.25 78.05,701.35 79.4,704.45 80.8,707.5 82,710.15 105.2,718.25 131.95,722.25 162.4,722.25 198.6,722.25 229.5,716.6 255.05,705.25 279.3,694.5 292.1,681.65 293.35,666.7 294.6,681.65 307.35,694.5 331.6,705.25 357.2,716.6 388.1,722.25 424.3,722.25 460.5,722.25 491.4,716.6 516.95,705.25 541.15,694.55 553.9,681.8 555.25,666.7 556.7,681.9 569.45,694.6 593.5,705.25 619.1,716.6 650,722.25 686.2,722.25 722.4,722.25 753.3,716.6 778.85,705.25 803.1,694.5 815.9,681.65 817.15,666.7 818.4,681.65 831.15,694.5 855.4,705.25 878.25,715.4 905.35,721 936.35,722.05 942.6,709.7 948.2,697 953.2,684.05 957.45,673.1 961.25,661.95 964.7,650.45 970.8,629.75 975.55,608.3 978.8,586.15 979.65,580.45 980.4,574.7 981.05,568.8 981.3,566.4 981.55,564 981.8,561.5 969.45,564.95 955.8,567.4 941.05,568.8z"/>
      <path id="path3" fill="#007386" fill-opacity="1" d="M878.35,485.1 C869.6,485.9 860.05,486.35 850.1,486.35 813.9,486.35 783,480.7 757.4,469.35 733.15,458.6 720.4,445.75 719.15,430.8 717.9,445.75 705.1,458.6 680.85,469.35 655.3,480.7 624.4,486.35 588.2,486.35 552,486.35 521.1,480.7 495.5,469.35 471.45,458.7 458.7,446 457.25,430.8 455.9,445.9 443.15,458.65 418.95,469.35 393.4,480.7 362.5,486.35 326.3,486.35 290.1,486.35 259.2,480.7 233.6,469.35 209.35,458.6 196.6,445.75 195.35,430.8 194.1,445.75 181.3,458.6 157.05,469.35 131.5,480.7 100.6,486.35 64.4,486.35 56.35,486.35 48.55,486.05 40.7,485.5 L40.7,485.475 Q40.05,498.633 40.05,512.05 C40.05,517.2 40.15,522.3 40.25,527.25 40.55,537.15 41.1,546.9 41.85,556.15 66.25,565.45 94.5,570.05 127.1,570.05 163.3,570.05 194.2,564.4 219.75,553.05 244,542.3 256.8,529.45 258.05,514.5 259.3,529.45 272.05,542.3 296.3,553.05 321.9,564.4 352.8,570.05 389,570.05 425.2,570.05 456.1,564.4 481.65,553.05 505.85,542.35 518.6,529.6 519.95,514.5 521.4,529.7 534.15,542.4 558.2,553.05 583.8,564.4 614.7,570.05 650.9,570.05 687.1,570.05 718,564.4 743.55,553.05 767.8,542.3 780.6,529.45 781.85,514.5 783.1,529.45 795.85,542.3 820.1,553.05 845.7,564.4 876.6,570.05 912.8,570.05 922.75,570.05 932.3,569.6 941.05,568.8 955.8,567.4 969.45,564.95 981.8,561.5 982.7,551.45 983.4,541.05 983.75,530.55 983.95,524.5 984.05,518.3 984.05,512.05 984.05,511.4 984.05,510.7 984.05,510.05 984.05,509.7 984.05,509.4 984.05,509.05 983.95,485.3 982.3,462.15 979,439.35 974.25,450.8 962.2,460.75 942.75,469.35 924.25,477.55 902.9,482.8 878.35,485.1z"/>
      <path id="path4" fill="#94B1C1" fill-opacity="1" d="M929.85,289.65 C927.5,285.3 924.9,280.65 922.2,276.05 901.9,241.55 876.4,208.85 845.85,178.3 773.25,105.7 688.7,61.65 592.2,46.25 575.95,43.65 559.4,41.85 542.15,40.9 532.45,40.35 522.3,40.05 512.05,40.05 502.7,40.05 493.45,40.3 484.15,40.8 365.8,46.9 263.85,92.75 178.3,178.3 157.8,198.8 139.55,220.25 123.6,242.7 108.25,264.25 95.05,286.7 84,309.9 66.35,346.8 54,385.9 47.1,426.7 66.8,431.75 88.45,434.25 112.4,434.25 148.6,434.25 179.5,428.6 205.05,417.25 229.3,406.5 242.1,393.65 243.35,378.7 244.6,393.65 257.35,406.5 281.6,417.25 307.2,428.6 338.1,434.25 374.3,434.25 410.5,434.25 441.4,428.6 466.95,417.25 491.15,406.55 503.9,393.8 505.25,378.7 506.7,393.9 519.45,406.6 543.5,417.25 569.1,428.6 600,434.25 636.2,434.25 672.4,434.25 703.3,428.6 728.85,417.25 753.1,406.5 765.9,393.65 767.15,378.7 768.4,393.65 781.15,406.5 805.4,417.25 831,428.6 861.9,434.25 898.1,434.25 908.05,434.25 917.6,433.8 926.35,433 944.75,431.25 961.35,427.85 976.35,422.85 974.55,412.65 972.3,402.3 969.75,392.05 968.65,387.7 967.4,383.05 966.1,378.45 965.1,375.05 964.1,371.6 962.95,367.95 961.35,362.8 959.55,357.45 957.65,352.1 952.6,337.85 946.8,323.85 940.2,309.95 938.35,306.15 936.45,302.3 934.5,298.45 933.05,295.6 931.55,292.75 929.85,289.65z"/>
      <path id="path5" fill="#0196A6" fill-opacity="1" d="M926.35,433 C917.6,433.8 908.05,434.25 898.1,434.25 861.9,434.25 831,428.6 805.4,417.25 781.15,406.5 768.4,393.65 767.15,378.7 765.9,393.65 753.1,406.5 728.85,417.25 703.3,428.6 672.4,434.25 636.2,434.25 600,434.25 569.1,428.6 543.5,417.25 519.45,406.6 506.7,393.9 505.25,378.7 503.9,393.8 491.15,406.55 466.95,417.25 441.4,428.6 410.5,434.25 374.3,434.25 338.1,434.25 307.2,428.6 281.6,417.25 257.35,406.5 244.6,393.65 243.35,378.7 242.1,393.65 229.3,406.5 205.05,417.25 179.5,428.6 148.6,434.25 112.4,434.25 88.45,434.25 66.8,431.75 47.1,426.7 43.75,446.1 41.65,465.6 40.7,485.5 48.55,486.05 56.35,486.35 64.4,486.35 100.6,486.35 131.5,480.7 157.05,469.35 181.3,458.6 194.1,445.75 195.35,430.8 196.6,445.75 209.35,458.6 233.6,469.35 259.2,480.7 290.1,486.35 326.3,486.35 362.5,486.35 393.4,480.7 418.95,469.35 443.15,458.65 455.9,445.9 457.25,430.8 458.7,446 471.45,458.7 495.5,469.35 521.1,480.7 552,486.35 588.2,486.35 624.4,486.35 655.3,480.7 680.85,469.35 705.1,458.6 717.9,445.75 719.15,430.8 720.4,445.75 733.15,458.6 757.4,469.35 783,480.7 813.9,486.35 850.1,486.35 860.05,486.35 869.6,485.9 878.35,485.1 902.9,482.8 924.25,477.55 942.75,469.35 962.2,460.75 974.25,450.8 979,439.35 978.25,433.9 977.35,428.45 976.35,422.85 961.35,427.85 944.75,431.25 926.35,433z"/>
    </g>
  </g>
  <mask id="bg1">
    <g id="g">
      <g id="shape11">
        <path id="path7" fill="#FFFFFF" fill-opacity="1" d="M929.85,289.65 C927.5,285.3 924.9,280.65 922.2,276.05 901.9,241.55 876.4,208.85 845.85,178.3 773.25,105.7 688.7,61.65 592.2,46.25 575.95,43.65 559.4,41.85 542.15,40.9 532.45,40.35 522.3,40.05 512.05,40.05 502.7,40.05 493.45,40.3 484.15,40.8 365.8,46.9 263.85,92.75 178.3,178.3 157.8,198.8 139.55,220.25 123.6,242.7 108.25,264.25 95.05,286.7 84,309.9 66.35,346.8 54,385.9 47.1,426.7 43.75,446.1 41.65,465.6 40.7,485.5 L40.7,485.475 Q40.05,498.633 40.05,512.05 C40.05,517.2 40.15,522.3 40.25,527.25 40.55,537.15 41.1,546.9 41.85,556.15 66.25,565.45 94.5,570.05 127.1,570.05 163.3,570.05 194.2,564.4 219.75,553.05 244,542.3 256.8,529.45 258.05,514.5 259.3,529.45 272.05,542.3 296.3,553.05 321.9,564.4 352.8,570.05 389,570.05 425.2,570.05 456.1,564.4 481.65,553.05 505.85,542.35 518.6,529.6 519.95,514.5 521.4,529.7 534.15,542.4 558.2,553.05 583.8,564.4 614.7,570.05 650.9,570.05 687.1,570.05 718,564.4 743.55,553.05 767.8,542.3 780.6,529.45 781.85,514.5 783.1,529.45 795.85,542.3 820.1,553.05 845.7,564.4 876.6,570.05 912.8,570.05 922.75,570.05 932.3,569.6 941.05,568.8 955.8,567.4 969.45,564.95 981.8,561.5 982.7,551.45 983.4,541.05 983.75,530.55 983.95,524.5 984.05,518.3 984.05,512.05 984.05,511.4 984.05,510.7 984.05,510.05 984.05,509.7 984.05,509.4 984.05,509.05 983.95,485.3 982.3,462.15 979,439.35 978.25,433.9 977.35,428.45 976.35,422.85 974.55,412.65 972.3,402.3 969.75,392.05 968.65,387.7 967.4,383.05 966.1,378.45 965.1,375.05 964.1,371.6 962.95,367.95 961.35,362.8 959.55,357.45 957.65,352.1 952.6,337.85 946.8,323.85 940.2,309.95 938.35,306.15 936.45,302.3 934.5,298.45 933.05,295.6 931.55,292.75 929.85,289.65z"/>
      </g>
    </g>
  </mask>
  <g id="masked" mask="url(#bg1)">
    <g id="Calque.__202">
      <g id="shape9">
        <path id="path6" fill="#073142" fill-opacity="1" d="M703.55,551.751 C681.8,524.501 664.25,495.101 650.9,463.451 629.85,413.601 619.35,358.251 619.35,297.451 619.35,297.001 619.35,296.501 619.35,296.051 617.7,255.001 618.65,212.701 622.2,169.051 622.1,167.701 622.15,166.201 622.3,164.551 622.45,162.751 622.8,160.801 623.25,158.701 623.7,156.351 623.15,154.801 621.55,154.001 614.55,150.451 587.6,161.401 540.7,186.851 483.05,218.101 426.4,297.651 370.65,425.401 331.5,492.401 291.55,537.601 250.75,560.951 247.05,563.051 244.3,566.251 242.55,570.551 240.75,574.801 240.35,579.301 241.3,583.901 Q242.7,590.801 247.55,595.251 C250.75,598.201 254.45,599.651 258.55,599.651 L749.975,599.651 L750,599.651 C733.9,586.251 718.3,570.201 703.55,551.751z"/>
      </g>
    </g>
  </g>
</svg>