<?xml version="1.0" encoding="utf-8"?>
<!-- Generator: flash2svg, http://dissentgraphics.com/tools/flash2svg -->
<svg xmlns:xlink="http://www.w3.org/1999/xlink" id="OmniPlan" image-rendering="optimizeSpeed" baseProfile="basic" version="1.1" style="background-color:#ffffff" x="0px" y="0px" width="1024px" height="1024px" viewBox="0 0 1024 1024" enable-background="new 0 0 1024 1024" xmlns="http://www.w3.org/2000/svg">
  <defs transform="matrix(1 0 0 1 0 0) "/>
  <g id="shadow">
    <g id="shape">
      <path id="path" fill="#000000" fill-opacity="0.09803921568627451" d="M969.65,351.3 Q961.05,330.45 950.25,310.45 C946.2,302.9 941.9,295.4 937.35,288.05 917.8,256.35 893.95,226.4 865.8,198.25 773.65,106.1 662.35,60 532,60 401.65,60 290.4,106.1 198.25,198.25 106.1,290.4 60,401.65 60,532 60,662.35 106.1,773.65 198.25,865.8 290.4,957.95 401.65,1004 532,1004 662.35,1004 773.65,957.95 865.8,865.8 916.55,815 953.35,758.4 976.15,696.05 994.7,645.2 1004,590.55 1004,532 1004,487.1 998.55,444.45 987.6,404.05 986.35,399.5 985.05,394.95 983.7,390.45 979.6,377.15 974.9,364.1 969.65,351.3z"/>
    </g>
  </g>
  <g id="bg">
    <g id="shape2">
      <path id="path1" fill="#333333" fill-opacity="1" d="M929.85,289.65 C927.5,285.3 924.9,280.65 922.2,276.05 901.9,241.55 876.4,208.85 845.85,178.3 773.25,105.7 688.7,61.65 592.2,46.25 575.95,43.65 559.4,41.85 542.15,40.9 532.45,40.35 522.3,40.05 512.05,40.05 502.7,40.05 493.45,40.3 484.15,40.8 365.8,46.9 263.85,92.75 178.3,178.3 157.8,198.8 139.55,220.25 123.6,242.7 108.25,264.25 95.05,286.7 84,309.9 L83.975,309.875 Q40.05,401.873 40.05,512.05 C40.05,642.4 86.15,753.7 178.3,845.85 235,902.5 298.85,941.75 369.4,963.4 384.6,968.05 400,971.9 415.3,974.95 437.9,979.35 460.7,982.1 484.15,983.35 484.3,983.35 484.4,983.35 484.55,983.35 493.05,983.8 501.15,984.05 509.05,984.05 510.25,984.05 511.15,984.05 512.05,984.05 522.35,984.05 532.55,983.75 542.15,983.25 544.65,983.1 546.9,982.95 549.1,982.8 569.3,981.35 589,978.75 607.8,975.1 615.75,973.55 623.6,971.8 631.2,969.95 712,949.65 783.35,908.35 845.85,845.85 894.45,797.25 930.25,743.35 953.2,684.05 971.65,636.4 981.85,585.25 983.75,530.55 983.95,524.5 984.05,518.3 984.05,512.05 984.05,511.4 984.05,510.7 984.05,510.05 984.05,509.7 984.05,509.4 984.05,509.05 983.9,475.4 980.6,443 974.1,411.15 972.8,405 971.35,398.5 969.75,392.05 968.65,387.7 967.4,383.05 966.1,378.45 965.1,375.05 964.1,371.6 962.95,367.95 961.35,362.8 959.55,357.45 957.65,352.1 952.6,337.85 946.8,323.85 940.2,309.95 938.35,306.15 936.45,302.3 934.5,298.45 933.05,295.6 931.55,292.75 929.85,289.65z"/>
    </g>
  </g>
  <g id="bg1">
    <g id="shape4">
      <path id="path2" fill="#000000" fill-opacity="0.2" d="M984.05,510.05 C984.05,509.7 984.05,509.4 984.05,509.05 983.9,475.4 980.6,443 974.1,411.15 L715.05,152.1 288.55,848.2 415.275,974.925 L415.3,974.95 C437.9,979.35 460.7,982.1 484.15,983.35 484.3,983.35 484.4,983.35 484.55,983.35 493.05,983.8 501.15,984.05 509.05,984.05 Q510.55,984.05 512.05,984.05 C522.35,984.05 532.55,983.75 542.15,983.25 544.65,983.1 546.9,982.95 549.1,982.8 569.3,981.35 589,978.75 607.8,975.1 615.75,973.55 623.6,971.8 631.2,969.95 712,949.65 783.35,908.35 845.85,845.85 894.45,797.25 930.25,743.35 953.2,684.05 971.65,636.4 981.85,585.25 983.75,530.55 983.95,524.5 984.05,518.3 984.05,512.05 984.05,511.4 984.05,510.7 984.05,510.05z"/>
    </g>
  </g>
  <g id="Calque.__206">
    <g id="shape6">
      <path id="path3" fill="#181818" fill-opacity="1" d="M718.8,154 Q705.8,146.55 691.4,150.45 L175.85,288.55 C166.3,291.1 159,296.7 154.05,305.35 149,314 147.8,323.1 150.4,332.65 L288.55,848.2 C291.1,857.8 296.7,865.1 305.3,870.15 313.95,875.1 323.1,876.25 332.65,873.7 L848.25,735.6 C857.8,733.05 865.1,727.45 870.1,718.8 875.05,710.15 876.3,701 873.75,691.4 L735.55,175.8 C733,166.25 727.4,159 718.8,154z"/>
    </g>
  </g>
  <g id="Calque.__207">
    <g id="shape8">
      <path id="path4" fill="#FDED72" fill-opacity="1" d="M764.05,290.05 Q764.05,277.65 755.25,268.85 C749.4,263 742.3,260.05 734.05,260.05 L290.05,260.05 C281.8,260.05 274.7,263 268.85,268.85 263,274.7 260.05,281.8 260.05,290.05 L260.05,734.05 C260.05,742.3 263,749.4 268.85,755.25 274.7,761.1 281.8,764.05 290.05,764.05 L734.05,764.05 C742.3,764.05 749.4,761.1 755.25,755.25 761.1,749.4 764.05,742.3 764.05,734.05 L764.05,290.05z"/>
    </g>
  </g>
  <g id="Calque.__208">
    <g id="Symbole.__2047_1" overflow="visible">
      <g id="Calque.__210">
        <g id="shape20">
          <path id="path14" fill="#242424" fill-opacity="1" d="M719.95,306.95 C715.8,302.8 710.75,300.7 704.9,300.7 L322.5,300.7 C316.65,300.7 311.6,302.8 307.45,306.95 303.3,311.1 301.2,316.15 301.2,322 L301.2,437 C301.2,442.85 303.3,447.9 307.45,452.05 311.6,456.2 316.65,458.3 322.5,458.3 328.35,458.3 333.4,456.2 337.55,452.05 L368.7,420.9 658.7,420.9 689.85,452.05 C694,456.2 699.05,458.3 704.9,458.3 710.75,458.3 715.8,456.2 719.95,452.05 724.1,447.9 726.2,442.85 726.2,437 L726.2,322 C726.2,316.15 724.1,311.1 719.95,306.95z M541.8,503 C541.8,497.15 539.7,492.1 535.55,487.95 531.4,483.8 526.35,481.7 520.5,481.7 L322.5,481.7 Q313.7,481.7 307.45,487.95 C303.3,492.1 301.2,497.15 301.2,503 301.2,508.85 303.3,513.9 307.45,518.05 311.6,522.2 316.65,524.3 322.5,524.3 L520.5,524.3 C526.35,524.3 531.4,522.2 535.55,518.05 539.7,513.9 541.8,508.85 541.8,503z M700,651 C705.85,651 710.9,648.9 715.05,644.75 719.2,640.6 721.3,635.55 721.3,629.7 721.3,623.85 719.2,618.8 715.05,614.65 710.9,610.5 705.85,608.4 700,608.4 L502,608.4 C496.15,608.4 491.1,610.5 486.95,614.65 482.8,618.8 480.7,623.85 480.7,629.7 480.7,635.55 482.8,640.6 486.95,644.75 491.1,648.9 496.15,651 502,651 L700,651z M534.05,555.9 C529.9,551.75 524.85,549.65 519,549.65 L321,549.65 C315.15,549.65 310.1,551.75 305.95,555.9 301.8,560.05 299.7,565.1 299.7,570.95 299.7,576.8 301.8,581.85 305.95,586 310.1,590.15 315.15,592.25 321,592.25 L519,592.25 C524.85,592.25 529.9,590.15 534.05,586 538.2,581.85 540.3,576.8 540.3,570.95 540.3,565.1 538.2,560.05 534.05,555.9z M533.3,709.1 L533.3,688.75 C533.3,682.9 531.2,677.85 527.05,673.7 522.9,669.55 517.85,667.45 512,667.45 506.15,667.45 501.1,669.55 496.95,673.7 492.8,677.85 490.7,682.9 490.7,688.75 L490.7,709.1 C490.7,714.95 492.8,720 496.95,724.15 501.1,728.3 506.15,730.4 512,730.4 517.85,730.4 522.9,728.3 527.05,724.15 531.2,720 533.3,714.95 533.3,709.1z"/>
        </g>
      </g>
    </g>
  </g>
</svg>