<?xml version="1.0" encoding="utf-8"?>
<!-- Generator: Adobe Illustrator 16.0.4, SVG Export Plug-In . SVG Version: 6.00 Build 0)  -->
<!DOCTYPE svg PUBLIC "-//W3C//DTD SVG 1.1//EN" "http://www.w3.org/Graphics/SVG/1.1/DTD/svg11.dtd">
<svg version="1.1" id="Google-Chrome" image-rendering="optimizeSpeed"
	 xmlns="http://www.w3.org/2000/svg" xmlns:xlink="http://www.w3.org/1999/xlink" x="0px" y="0px" width="1024px" height="1024px"
	 viewBox="0 0 1024 1024" enable-background="new 0 0 1024 1024" xml:space="preserve">
<path fill="none" d="z"/>
<g id="shadow">
	<g id="shape">
		<path id="path" fill-opacity="0.098" d="M969.6,351.25c-5.732-13.9-12.199-27.517-19.399-40.85c-4.05-7.55-8.351-15.05-12.9-22.4
			c-19.55-31.7-43.399-61.65-71.55-89.8C773.6,106.05,662.3,59.95,531.95,59.95c-130.351,0-241.6,46.1-333.75,138.25
			C106.05,290.35,59.95,401.6,59.95,531.95c0,130.35,46.1,241.649,138.25,333.8c92.15,92.15,203.399,138.2,333.75,138.2
			c130.35,0,241.649-46.05,333.8-138.2C916.5,814.95,953.3,758.35,976.1,696c18.551-50.85,27.851-105.5,27.851-164.05
			c0-44.9-5.45-87.55-16.4-127.95c-1.25-4.55-2.55-9.1-3.899-13.6C979.55,377.1,974.85,364.05,969.6,351.25z"/>
	</g>
</g>
<g id="circle">
	<g id="shape2">
		<path id="path1" fill="#E85479" d="M982.05,516.95c0-1.634,0-3.283,0-4.95c0-130.35-46.05-241.6-138.2-333.75
			C751.95,86.4,641,40.3,511.05,40.05V515h2v1.95H982.05z"/>
		<path id="path2" fill="#00C0E6" d="M511.05,40.05c-0.35,0-0.649,0-1,0c-130.35,0-241.6,46.05-333.75,138.2
			C84.15,270.4,38.1,381.65,38.1,512c0,1,0,2,0,3h472.95V40.05z"/>
		<path id="path3" fill="#EBC240" d="M513.05,516.95V515h-2H38.1c0.7,129.1,46.75,239.35,138.2,330.8
			C268.45,937.95,379.7,984,510.05,984c0.351,0,0.65,0,1,0c0.65,0,1.351,0,2,0V516.95z"/>
		<path id="path4" fill="#55DA97" d="M513.05,516.95V984c129.101-0.75,239.351-46.8,330.8-138.2
			c90.95-91,137.051-200.6,138.2-328.85H513.05z"/>
	</g>
</g>
<g id="inner-circle">
	<g id="shape8">
		<path id="path5" fill="#FFFFFF" d="M862.4,528.8c0.232-5.551,0.35-11.15,0.35-16.8c0-96.85-34.25-179.55-102.7-248
			c-68.5-68.45-151.2-102.7-248.05-102.7S332.45,195.55,264,264S161.3,415.15,161.3,512S195.55,691.55,264,760.05
			c68.45,68.45,151.15,102.7,248,102.7c31.4,0,61.3-3.6,89.75-10.8c59.2-15,112-45.65,158.3-91.9
			C824.45,695.6,858.6,618.6,862.4,528.8z"/>
	</g>
</g>
<path fill="none" d="z"/>
<g opacity="0.1">
	<path d="M760.025,760.025c51.239-51.279,83.306-110.512,96.195-177.805L659.5,385.5l-169-39l-118,117l16,193l198.744,198.744
		c4.866-1.008,9.696-2.107,14.48-3.318C660.926,836.926,713.725,806.275,760.025,760.025z"/>
</g>
<g>
	<path fill="#96A6A6" stroke="#96A6A6" stroke-width="29.0056" stroke-miterlimit="10" d="M687,526.019
		c0,48.325-14.348,86.852-43.037,115.535c-32.535,34.168-74.909,51.25-127.135,51.25c-49.95,0-92.401-17.334-127.373-51.964
		C354.471,606.208,337,563.251,337,512c0-51.248,17.471-94.18,52.455-128.837c34.972-34.646,77.423-51.967,127.373-51.967
		c24.831,0,48.504,4.831,71.064,14.509c22.555,9.676,40.621,22.562,54.128,38.665l-30.449,30.453
		c-22.89-27.384-54.454-41.082-94.743-41.082c-36.422,0-67.911,12.813-94.511,38.438c-26.577,25.62-39.872,58.905-39.872,99.821
		c0,40.946,13.295,74.197,39.872,99.822c26.6,25.625,58.089,38.418,94.511,38.418c38.669,0,70.92-12.854,96.69-38.668
		c16.751-16.753,26.41-40.107,29.017-70.096H516.828v-41.569h167.761C686.207,508.937,687,517.642,687,526.019z"/>
</g>
</svg>
