<?xml version="1.0" encoding="utf-8"?>
<!-- Generator: flash2svg, http://dissentgraphics.com/tools/flash2svg -->
<svg xmlns:xlink="http://www.w3.org/1999/xlink" id="Adobe-Photoshop-app" image-rendering="optimizeSpeed" baseProfile="basic" version="1.1" style="background-color:#ffffff" x="0px" y="0px" width="1024px" height="1024px" viewBox="0 0 1024 1024" enable-background="new 0 0 1024 1024" xmlns="http://www.w3.org/2000/svg">
  <defs transform="matrix(1 0 0 1 0 0) "/>
  <g id="shadow">
    <g id="shape">
      <path id="path" fill="#000000" fill-opacity="0.09803921568627451" d="M965.65,347.3 Q957.05,326.45 946.25,306.45 C942.2,298.9 937.9,291.4 933.35,284.05 913.8,252.35 889.95,222.4 861.8,194.25 769.65,102.1 658.35,56 528,56 397.65,56 286.4,102.1 194.25,194.25 102.1,286.4 56,397.65 56,528 56,658.35 102.1,769.65 194.25,861.8 286.4,953.95 397.65,1000 528,1000 658.35,1000 769.65,953.95 861.8,861.8 912.55,811 949.35,754.4 972.15,692.05 990.7,641.2 1000,586.55 1000,528 1000,483.1 994.55,440.45 983.6,400.05 982.35,395.5 981.05,390.95 979.7,386.45 975.6,373.15 970.9,360.1 965.65,347.3z"/>
    </g>
  </g>
  <g id="BackgroundInner">
    <g id="shape2">
      <path id="path1" fill="#333764" fill-opacity="1" d="M951.95,691.1 C958.6,674.8 964.25,658.05 968.95,640.8 979.95,600.35 985.45,557.5 985.45,512.3 Q985.45,316.5 847,178.05 C754.7,85.75 643.25,39.6 512.7,39.6 382.15,39.6 270.75,85.75 178.45,178.05 86.15,270.35 40,381.75 40,512.3 40,642.85 86.15,754.3 178.45,846.6 260.6,928.8 357.95,974.4 470.4,983.35 484.25,984.5 498.35,985.05 512.7,985.05 520.2,985.05 527.65,984.9 534.7,984.6 656,979.6 760,933.6 847,846.6 893.9,799.7 928.9,747.85 951.95,691.1z"/>
    </g>
  </g>
  <g id="LogoBg">
    <g id="shape4">
      <path id="path2" fill="#000000" fill-opacity="0.2" d="M769.7,451.4 L711.35,447 555.55,291.2 314.65,318.675 247.675,724.625 507.075,985.025 L507.1,985.05 C509.1,985.05 510.9,985.05 512.7,985.05 520.2,985.05 527.65,984.9 534.7,984.6 656,979.6 760,933.6 847,846.6 893.9,799.7 928.9,747.85 951.95,691.1 Q960.43,670.228 966.775,648.475 L769.7,451.4z"/>
    </g>
  </g>
  <g id="Ico">
    <g id="shape6">
      <path id="path3" fill="#FFFFFF" fill-opacity="1" d="M769.7,494.2 L769.7,451.4 C758.1,447.95 742.6,445.25 723.35,443.2 L679.15,440.2 659.6,440.2 C636.55,440.45 618.15,445.6 604.65,455.65 597.3,461.45 591.7,469.15 588.1,478.85 584.3,488.45 582.4,500.15 582.4,513.85 L582.4,538.35 C582.4,563.4 588.55,582.35 600.85,595 613.15,607.6 631.55,613.85 655.95,613.85 L699.7,613.85 C704.9,613.85 709.15,614.45 712.45,615.7 716.8,617.4 720.05,620.25 722.15,624.35 724.35,628.45 725.4,633.9 725.4,640.65 L725.4,655.9 C725.4,666.25 721.55,673.15 713.8,676.65 L702.95,679.65 665.9,680.4 C644.4,680.4 619.45,679 590.9,676.2 L590.9,719 C617.4,726.75 654.15,730.65 701.2,730.65 709.95,730.65 717.95,729.9 725.2,728.5 732.6,727.15 739.2,724.95 745.15,722.1 768.4,711.4 779.95,688.7 779.95,653.95 L779.95,634.95 C779.95,620.15 777.4,606.75 772.15,594.85 767.15,582.9 759.65,574 749.7,568.15 739.7,562.2 727.35,559.25 712.45,559.25 L667.4,559.25 C655.95,559.25 648.1,557.45 643.65,553.9 639.15,550.25 636.95,542.95 636.95,532.1 L636.95,517.95 C636.95,505.85 639.65,498.15 645.15,494.95 650.6,491.9 659.15,490.4 670.85,490.4 L699.15,490.4 C716.65,490.4 740.15,491.65 769.7,494.2z M555.55,291.2 C544.95,277.9 531.15,268.05 514.05,261.45 496.9,254.9 476.65,251.65 453.15,251.65 L248.4,251.65 248.4,726.75 339.4,726.75 339.4,538.45 392.65,545.75 466.15,551.45 C486.9,551.45 505.65,547.6 522.6,539.75 535.45,534.25 546.15,526.15 554.6,515.4 563.05,504.85 570.2,489.6 576.15,469.7 581.9,449.9 584.7,426.1 584.7,398.4 584.7,350.65 574.95,314.9 555.55,291.2z M481.1,348.9 C489.1,359.9 493.15,376.65 493.4,399.05 493.4,416.8 491.55,431.15 487.7,442.15 484.15,453.15 478.65,460.85 471.2,465.25 464.65,469.1 456.2,470.95 445.9,470.95 L339.4,470.95 339.4,332.15 445.9,332.15 Q469.3,332.15 481.1,348.9z"/>
    </g>
  </g>
</svg>