
<svg xmlns="http://www.w3.org/2000/svg" version="1.1" xmlns:xlink="http://www.w3.org/1999/xlink" preserveAspectRatio="none" x="0px" y="0px" width="1024px" height="1024px" viewBox="0 0 1024 1024">
<defs>
<g id="Layer6_0_FILL">
<path fill="#000000" fill-opacity="0.09803921568627451" stroke="none" d="
M 969.6 351.25
Q 961 330.4 950.2 310.4 944.1 299.05 937.3 288 907.95 240.45 865.75 198.2 727.5 59.95 531.95 59.95 340.1966796875 59.95 203.5 192.95 200.849609375 195.550390625 198.2 198.2 59.95 336.45 59.95 531.95 59.95 658.158203125 117.5 760.5 149.1767578125 816.7267578125 198.2 865.75 336.45 1003.95 531.95 1003.95 727.5 1003.95 865.75 865.75 941.9 789.55 976.1 696 1003.95 619.75 1003.95 531.95 1003.95 464.6 987.55 404 985.7 397.15 983.65 390.4 977.5 370.45 969.6 351.25 Z"/>
</g>

<g id="Layer5_0_FILL">
<path fill="#CCCCCC" stroke="none" d="
M 966.05 378.4
Q 964.52578125 373.114453125 962.85 367.85 960.3787109375 359.903125 957.6 352.05 947.85 324.5 934.45 298.4 928.65 287.05 922.15 276 891.5 224 845.8 178.25 736.8 69.25 592.15 46.2 567.65 42.3 542.1 40.85 527.2 40 512 40 497.9 40 484.1 40.75 306.55 49.95 178.25 178.25 170.978515625 185.521484375 164.1 192.95 40 326.7828125 40 512 40 650.65390625 109.5 760.5 138.0255859375 805.5755859375 178.25 845.8 263.0400390625 930.55703125 369.35 963.35 423.8880859375 980.1630859375 484.1 983.3 484.3 983.3 484.5 983.3 496.65 983.9 509 984 510.5 984 512 984 527.25 984 542.1 983.2 545.6 983 549.05 982.75 579.1 980.6 607.75 975.05 619.55 972.75 631.15 969.9 751.75 939.85 845.8 845.8 918.7 772.85 953.15 684 980.9 612.4 983.7 530.5 984 521.3 984 512 984 511 984 510 984 509.5 984 509 983.65 447.7 969.7 392 967.95 385.15 966.05 378.4 Z"/>
</g>

<g id="Layer4_0_FILL">
<path fill="#000000" fill-opacity="0.2" stroke="none" d="
M 763.4 318.95
L 763.4 759.6 391.65 759.6 391.65 783.25 342 784 537.3 983.45
Q 539.6990234375 983.329296875 542.1 983.2 545.6 983 549.05 982.75 579.1 980.6 607.75 975.05 619.55 972.75 631.15 969.9 751.75 939.85 845.8 845.8 918.7 772.85 953.15 684 979.473046875 616.0818359375 983.35 538.9
L 763.4 318.95 Z"/>
</g>

<g id="Symbol_2_0_Layer0_0_FILL">
<path fill="#000000" stroke="none" d="
M 143.15 27.1
Q 142.3 26.15 138.55 23.4
L 111.95 4.7
Q 107.1 1.2 103.7 0.4 100.25 -0.35 92.6 0.3
L 9.1 6.4
Q 4.4 6.85 2.05 9.8 0 12.35 0 16.6
L 0 107.9
Q 0 111 1.2 113.85 2.35 116.65 5 120.2
L 24.75 145.7
Q 27.1 148.7 29.8 149.7 32.3 150.65 37.05 150.4
L 133.95 144.5
Q 139.8 144.1 142.25 141.3 144.45 138.8 144.45 133.7
L 144.45 31.05
Q 144.45 28.6 143.15 27.1
M 122.75 22.2
Q 123.4 22.4 123.8 23.3 124.25 24.2 123.05 24.2
L 40.1 29.2
Q 32.9 29.75 31 29.45 28.25 29.05 24.95 26.35
L 13.55 17.3
Q 12.6 16.4 13.15 15.55 13.8 14.6 15.85 14.4
L 96.05 8.55
Q 100.5 8.15 104 9.5 106.25 10.3 108.95 12.35
L 122.75 22.2
M 129.85 34.1
Q 134.55 33.75 134.55 39.7
L 134.55 126.3
Q 134.55 129.7 133.6 131.3 132.25 133.45 128.65 133.6
L 37.55 138.9
Q 33.55 139.15 31.75 137.75 29.95 136.3 29.95 132.8
L 29.95 45.6
Q 29.95 42.7 30.95 41.4 32.05 39.95 34.65 39.7
L 129.85 34.1
M 102.6 58.2
L 102.6 98.55 72.75 52.95 51.05 54.45
Q 48.2 54.65 46.8 56.95 45.55 58.95 46.05 61.15
L 53.35 61.75 53.35 119.35 48.05 120.85
Q 46.65 121.25 46.1 123 45.55 124.55 46.05 125.55
L 66.25 124.35
Q 70.8 124.35 72.65 121.7
L 73.55 119.05 64.45 117.05 64.45 73.45 93.1 118.55
Q 96.05 122.2 97.35 123.1 99.2 124.4 102.5 124.4 106.7 124.4 112.8 121.2
L 112.8 56.85 117.2 55.95
Q 119.05 55.75 119.7 54 120.35 52.45 119.8 50.35
L 99.7 51.45
Q 97.45 51.65 96.05 53.3 94.55 55.05 95 57.35
L 102.6 58.2 Z"/>

<path fill="#FFFFFF" stroke="none" d="
M 134.55 39.7
Q 134.55 33.75 129.85 34.1
L 34.65 39.7
Q 32.05 39.95 30.95 41.4 29.95 42.7 29.95 45.6
L 29.95 132.8
Q 29.95 136.3 31.75 137.75 33.55 139.15 37.55 138.9
L 128.65 133.6
Q 132.25 133.45 133.6 131.3 134.55 129.7 134.55 126.3
L 134.55 39.7
M 102.6 98.55
L 102.6 58.2 95 57.35
Q 94.55 55.05 96.05 53.3 97.45 51.65 99.7 51.45
L 119.8 50.35
Q 120.35 52.45 119.7 54 119.05 55.75 117.2 55.95
L 112.8 56.85 112.8 121.2
Q 106.7 124.4 102.5 124.4 99.2 124.4 97.35 123.1 96.05 122.2 93.1 118.55
L 64.45 73.45 64.45 117.05 73.55 119.05 72.65 121.7
Q 70.8 124.35 66.25 124.35
L 46.05 125.55
Q 45.55 124.55 46.1 123 46.65 121.25 48.05 120.85
L 53.35 119.35 53.35 61.75 46.05 61.15
Q 45.55 58.95 46.8 56.95 48.2 54.65 51.05 54.45
L 72.75 52.95 102.6 98.55 Z"/>

<path fill="#666666" stroke="none" d="
M 123.8 23.3
Q 123.4 22.4 122.75 22.2
L 108.95 12.35
Q 106.25 10.3 104 9.5 100.5 8.15 96.05 8.55
L 15.85 14.4
Q 13.8 14.6 13.15 15.55 12.6 16.4 13.55 17.3
L 24.95 26.35
Q 28.25 29.05 31 29.45 32.9 29.75 40.1 29.2
L 123.05 24.2
Q 124.25 24.2 123.8 23.3 Z"/>
</g>
</defs>

<g transform="matrix( 1, 0, 0, 1, 0,0) ">
<use xlink:href="#Layer6_0_FILL"/>
</g>

<g transform="matrix( 1, 0, 0, 1, 0,0) ">
<use xlink:href="#Layer5_0_FILL"/>
</g>

<g transform="matrix( 1, 0, 0, 1, 0,0) ">
<use xlink:href="#Layer4_0_FILL"/>
</g>

<g transform="matrix( 3.7618408203125, 0, 0, 3.7618408203125, 240.5,229.2) ">
<g transform="matrix( 1, 0, 0, 1, 0,0) ">
<use xlink:href="#Symbol_2_0_Layer0_0_FILL"/>
</g>
</g>
</svg>
