<?xml version="1.0" encoding="utf-8"?>
<!-- Generator: flash2svg, http://dissentgraphics.com/tools/flash2svg -->
<svg xmlns:xlink="http://www.w3.org/1999/xlink" id="Activity-Monitor" image-rendering="optimizeSpeed" baseProfile="basic" version="1.1" style="background-color:#ffffff" x="0px" y="0px" width="1024px" height="1024px" viewBox="0 0 1024 1024" enable-background="new 0 0 1024 1024" xmlns="http://www.w3.org/2000/svg">
  <defs transform="matrix(1 0 0 1 0 0) "/>
  <g id="shadow">
    <g id="shape">
      <path id="path" fill="#000000" fill-opacity="0.09803921568627451" d="M969.65,351.3 Q961.05,330.45 950.25,310.45 C946.2,302.9 941.9,295.4 937.35,288.05 917.8,256.35 893.95,226.4 865.8,198.25 773.65,106.1 662.35,60 532,60 401.65,60 290.4,106.1 198.25,198.25 106.1,290.4 60,401.65 60,532 60,662.35 106.1,773.65 198.25,865.8 290.4,957.95 401.65,1004 532,1004 662.35,1004 773.65,957.95 865.8,865.8 916.55,815 953.35,758.4 976.15,696.05 994.7,645.2 1004,590.55 1004,532 1004,487.1 998.55,444.45 987.6,404.05 986.35,399.5 985.05,394.95 983.7,390.45 979.6,377.15 974.9,364.1 969.65,351.3z"/>
    </g>
  </g>
  <g id="criclebg">
    <g id="shape2">
      <path id="path1" fill="#374268" fill-opacity="1" d="M849.15,181.65 C848.05,180.5 846.95,179.4 845.85,178.3 811.5,143.95 774.55,116.05 734.95,94.55 728.25,90.9 721.5,87.45 714.3,84 679.25,67.25 641.8,55.15 602.4,48 599.3,47.45 596.2,46.9 593.05,46.4 592.75,46.35 592.45,46.3 592.2,46.25 588,45.6 583.8,45 579.45,44.4 575.4,43.9 571.25,43.4 567.05,42.95 563.45,42.55 559.85,42.2 556.05,41.9 551.6,41.5 546.9,41.15 542.15,40.9 541.7,40.85 541.3,40.85 540.85,40.85 531.35,40.3 521.75,40.05 512.05,40.05 502.7,40.05 493.45,40.3 484.15,40.8 482.45,40.9 480.75,41 479.05,41.1 475.4,41.3 471.75,41.55 468.05,41.9 461.95,42.4 455.85,43 449.8,43.75 448,43.95 446.25,44.15 444.6,44.4 401,50.15 359.9,61.6 321.3,78.75 317.45,80.45 313.6,82.2 309.75,84.05 262.25,106.7 218.5,138.1 178.3,178.3 177.75,178.85 177.25,179.35 176.75,179.85 176.1,180.5 175.5,181.1 174.9,181.75 134.45,222.9 103.15,267.8 80.9,316.5 73.05,333.65 66.4,351.1 60.85,369 Q40.05,436.2 40.05,512.05 C40.05,640.8 85,750.95 174.9,842.45 175.5,843.05 176.1,843.65 176.75,844.3 177.25,844.8 177.75,845.3 178.3,845.85 181.75,849.3 185.2,852.65 188.4,855.7 226.2,891.5 266.75,919.65 309.75,940.1 313.7,941.95 317.5,943.7 321.3,945.4 326.85,947.85 332.1,950.05 337.4,952.15 343.85,954.75 350,957 356.2,959.1 384.8,968.9 414.4,975.8 444.6,979.75 446.5,980 448.15,980.2 449.8,980.4 461.3,981.8 472.65,982.75 484.15,983.35 484.3,983.35 484.4,983.35 484.55,983.35 493.05,983.8 501.15,984.05 509.05,984.05 510.25,984.05 511.15,984.05 512.05,984.05 521.8,984.05 531.4,983.8 540.85,983.35 541.3,983.3 541.7,983.3 542.15,983.25 544.65,983.1 546.9,982.95 549.1,982.8 559.4,982.05 569.55,981.05 579.45,979.75 587.25,978.7 594.9,977.5 602.4,976.15 604.3,975.8 606.05,975.45 607.8,975.1 615.75,973.55 623.6,971.8 631.2,969.95 660.1,962.7 687.8,952.75 714.3,940.2 721.3,936.8 728.15,933.3 734.95,929.65 760.15,915.95 784.3,899.65 807.35,880.8 820.6,869.9 833.4,858.3 845.85,845.85 846.95,844.75 848.05,843.65 849.15,842.55 849.8,841.9 850.4,841.25 851.05,840.6 873.65,817.35 893.25,793.1 909.95,767.7 927.5,741.15 941.9,713.25 953.2,684.05 957.15,673.8 960.75,663.4 963.95,652.9 975.65,614.25 982.25,573.5 983.75,530.55 983.95,524.5 984.05,518.3 984.05,512.05 984.05,511.4 984.05,510.7 984.05,510.05 984.05,509.7 984.05,509.4 984.05,509.05 983.85,468.4 979.1,429.55 969.75,392.05 968.65,387.7 967.4,383.05 966.1,378.45 963.85,370.6 961.35,362.65 958.55,354.65 958.25,353.9 957.95,353 957.65,352.1 953.4,340.1 948.65,328.3 943.25,316.5 940.55,310.55 937.6,304.5 934.5,298.45 930.7,291.05 926.55,283.5 922.2,276.05 904.25,245.5 882.15,216.35 855.7,188.4 854.25,186.9 852.65,185.25 851.05,183.6 850.4,182.95 849.8,182.3 849.15,181.65z"/>
    </g>
  </g>
  <g id="svg2">
    <g id="shape4">
      <path id="path2" fill="#1F2435" fill-opacity="1" d="M758.8,755.2 Q854.65,659.35 854.65,523.75 C854.65,433.35 822.7,356.2 758.8,292.3 694.9,228.4 617.75,196.45 527.35,196.45 436.95,196.45 359.8,228.4 295.9,292.3 232,356.2 200.05,433.35 200.05,523.75 200.05,614.15 232,691.3 295.9,755.2 359.8,819.1 436.95,851.05 527.35,851.05 617.75,851.05 694.9,819.1 758.8,755.2z"/>
    </g>
  </g>
  <g id="Calque.__2011">
    <g id="shape6">
      <path id="path3" fill="none" stroke="#333333" stroke-opacity="1" stroke-width="0.1" stroke-linecap="round" stroke-linejoin="round" d="M511.05,112.25 L511.05,132.1"/>
      <path id="path4" fill="#262D44" fill-opacity="1" d="M892.05,512.1 C892.05,511.7 892.05,511.3 892.05,510.85 L771.05,510.85 C771.05,511.25 771.05,511.65 771.05,512.1 771.05,583.6 745.75,644.65 695.15,695.2 L695.125,695.2 L695.1,695.225 L695.1,695.25 C644.55,745.8 583.55,771.1 512.05,771.1 440.5,771.1 379.45,745.8 328.9,695.25 L328.875,695.225 L328.9,695.225 L328.9,695.25 C278.35,644.65 253.05,583.6 253.05,512.1 253.05,511.65 253.05,511.25 253.05,510.85 L132.05,510.85 C132.05,511.3 132.05,511.7 132.05,512.1 132.05,617 169.15,706.55 243.3,780.8 L243.3,780.775 L243.325,780.775 L243.35,780.8 C317.55,855 407.1,892.1 512.05,892.1 616.95,892.1 706.5,855 780.7,780.8 L780.7,780.775 L780.675,780.8 L780.7,780.8 C854.95,706.55 892.05,617 892.05,512.1z"/>
      <path id="path5" fill="#AA563E" fill-opacity="1" d="M780.675,243.375 Q779.699,242.399 778.725,241.425 L693.175,326.975 L693.2,327 C693.85,327.65 694.5,328.3 695.15,328.95 L695.125,328.925 L695.125,328.95 L695.15,328.95 C745.45,379.25 770.75,439.9 771.05,510.85 L892.05,510.85 C891.75,406.45 854.65,317.3 780.7,243.35 L780.675,243.35 L780.675,243.375z"/>
      <path id="path7" fill="none" stroke="#333333" stroke-opacity="1" stroke-width="0.1" stroke-linecap="round" stroke-linejoin="round" d="M511.05,326.1 L511.05,253.1"/>
      <path id="path11" fill="#857128" fill-opacity="1" d="M693.175,326.975 L778.725,241.425 L778.75,241.45 C704.95,168.55 616.05,132.1 512.05,132.1 511.7,132.1 511.4,132.1 511.05,132.1 L511.05,253.1 C511.4,253.1 511.7,253.1 512.05,253.1 582.6,253.1 643,277.75 693.2,327"/>
      <path id="path12" fill="none" stroke="#333333" stroke-opacity="1" stroke-width="0.1" stroke-linecap="round" stroke-linejoin="round" d="M511.05,132.1 L511.05,253.1"/>
      <path id="path13" fill="#749128" fill-opacity="1" d="M327.9,329.95 C328.25,329.6 328.55,329.3 328.9,328.95 L328.9,328.925 L328.875,328.95 L328.9,328.95 C379.25,278.6 439.95,253.35 511.05,253.1 L511.05,132.1 C406.55,132.35 317.3,169.4 243.35,243.35 L243.325,243.35 L243.3,243.375 L243.3,243.4 C242.95,243.7 242.65,244.05 242.35,244.4 L242.325,244.375 L327.9,329.95z"/>
      <path id="path14" fill="none" stroke="#333333" stroke-opacity="1" stroke-width="0.1" stroke-linecap="round" stroke-linejoin="round" d="M511.05,253.1 L511.05,132.1"/>
      <path id="path15" fill="#81B239" fill-opacity="1" d="M132.05,510.85 L253.05,510.85 C253.35,440.35 278.3,380.05 327.9,329.95 L242.325,244.375 L242.35,244.4 C169.1,318.1 132.35,406.9 132.05,510.85z"/>
    </g>
  </g>
  <g id="Calque.__2012">
    <g id="shape16">
      <path id="path16" fill="#999999" fill-opacity="1" d="M670.25,210.3 L667.85,216.2 519.15,710.1 586.25,699.25 670.25,210.3z"/>
      <path id="path17" fill="#CCCCCC" fill-opacity="1" d="M447.05,721.75 L519.15,710.1 667.85,216.2 447.05,721.75z"/>
    </g>
  </g>
  <g id="svg3">
    <g id="shape20">
      <path id="path18" fill="#E3E3E3" fill-opacity="1" d="M469.8,636.6 C458.7,641.25 448.55,648.2 439.35,657.4 426.35,670.4 417.85,685.25 413.9,702 412.15,709.35 411.3,717.05 411.3,725.1 411.3,737.7 413.45,749.45 417.7,760.3 431.3,767.7 446.4,771.4 463.05,771.4 489.55,771.4 512.15,762 530.9,743.25 543.85,730.35 552.3,715.6 556.35,699 558.15,691.5 559.05,683.65 559.05,675.4 559.05,663 557,651.45 552.9,640.75 550.75,639.6 548.6,638.5 546.4,637.5 534.45,632.05 521.35,629.35 507.15,629.35 Q507.1,629.35 507.05,629.35 C493.65,629.35 481.25,631.75 469.8,636.6z"/>
      <path id="path19" fill="#CCCCCC" fill-opacity="1" d="M463.05,771.4 C446.4,771.4 431.3,767.7 417.7,760.3 422.35,772.2 429.6,783.05 439.35,792.8 458.05,811.5 480.6,820.85 507.05,820.85 533.5,820.85 556.05,811.5 574.75,792.8 593.45,774.1 602.8,751.55 602.8,725.1 602.8,699.45 594,677.4 576.35,659 575.8,658.45 575.3,657.95 574.75,657.4 568,650.65 560.7,645.1 552.9,640.75 557,651.45 559.05,663 559.05,675.4 559.05,683.65 558.15,691.5 556.35,699 552.3,715.6 543.85,730.35 530.9,743.25 512.15,762 489.55,771.4 463.05,771.4z"/>
    </g>
  </g>
</svg>