<?xml version="1.0" encoding="utf-8"?>
<!-- Generator: flash2svg, http://dissentgraphics.com/tools/flash2svg -->
<svg xmlns:xlink="http://www.w3.org/1999/xlink" id="Apps-Cord" image-rendering="optimizeSpeed" baseProfile="basic" version="1.1" style="background-color:#ffffff" x="0px" y="0px" width="1024px" height="1024px" viewBox="0 0 1024 1024" enable-background="new 0 0 1024 1024" xmlns="http://www.w3.org/2000/svg">
  <defs transform="matrix(1 0 0 1 0 0) "/>
  <g id="shadow">
    <g id="shape">
      <path id="path" fill="#000000" fill-opacity="0.09803921568627451" d="M969.65,351.3 Q961.05,330.45 950.25,310.45 C946.2,302.9 941.9,295.4 937.35,288.05 917.8,256.35 893.95,226.4 865.8,198.25 773.65,106.1 662.35,60 532,60 401.65,60 290.4,106.1 198.25,198.25 106.1,290.4 60,401.65 60,532 60,662.35 106.1,773.65 198.25,865.8 290.4,957.95 401.65,1004 532,1004 662.35,1004 773.65,957.95 865.8,865.8 916.55,815 953.35,758.4 976.15,696.05 994.7,645.2 1004,590.55 1004,532 1004,487.1 998.55,444.45 987.6,404.05 986.35,399.5 985.05,394.95 983.7,390.45 979.6,377.15 974.9,364.1 969.65,351.3z"/>
    </g>
  </g>
  <g id="circle">
    <g id="shape2">
      <path id="path1" fill="#363F6A" fill-opacity="1" d="M958.55,354.65 C958.25,353.9 957.95,353 957.65,352.1 951.2,333.85 943.5,316.05 934.5,298.45 930.7,291.05 926.55,283.5 922.2,276.05 901.9,241.55 876.4,208.85 845.85,178.3 773.25,105.7 688.7,61.65 592.2,46.25 575.95,43.65 559.4,41.85 542.15,40.9 532.45,40.35 522.3,40.05 512.05,40.05 502.7,40.05 493.45,40.3 484.15,40.8 365.8,46.9 263.85,92.75 178.3,178.3 Q40.05,316.55 40.05,512.05 C40.05,642.4 86.15,753.7 178.3,845.85 231.4,898.9 290.8,936.7 356.2,959.1 396.7,972.95 439.25,981 484.15,983.35 484.3,983.35 484.4,983.35 484.55,983.35 493.05,983.8 501.15,984.05 509.05,984.05 510.25,984.05 511.15,984.05 512.05,984.05 522.35,984.05 532.55,983.75 542.15,983.25 544.65,983.1 546.9,982.95 549.1,982.8 569.3,981.35 589,978.75 607.8,975.1 615.75,973.55 623.6,971.8 631.2,969.95 712,949.65 783.35,908.35 845.85,845.85 894.45,797.25 930.25,743.35 953.2,684.05 971.65,636.4 981.85,585.25 983.75,530.55 983.95,524.5 984.05,518.3 984.05,512.05 984.05,511.4 984.05,510.7 984.05,510.05 984.05,509.7 984.05,509.4 984.05,509.05 983.85,468.4 979.1,429.55 969.75,392.05 968.65,387.7 967.4,383.05 966.1,378.45 963.85,370.6 961.35,362.65 958.55,354.65z"/>
    </g>
  </g>
  <mask id="circle1">
    <g id="g">
      <g id="shape4">
        <path id="path2" fill="#FFFFFF" fill-opacity="1" d="M958.55,354.65 C958.25,353.9 957.95,353 957.65,352.1 951.2,333.85 943.5,316.05 934.5,298.45 930.7,291.05 926.55,283.5 922.2,276.05 901.9,241.55 876.4,208.85 845.85,178.3 773.25,105.7 688.7,61.65 592.2,46.25 575.95,43.65 559.4,41.85 542.15,40.9 532.45,40.35 522.3,40.05 512.05,40.05 502.7,40.05 493.45,40.3 484.15,40.8 365.8,46.9 263.85,92.75 178.3,178.3 Q40.05,316.55 40.05,512.05 C40.05,642.4 86.15,753.7 178.3,845.85 231.4,898.9 290.8,936.7 356.2,959.1 396.7,972.95 439.25,981 484.15,983.35 484.3,983.35 484.4,983.35 484.55,983.35 493.05,983.8 501.15,984.05 509.05,984.05 510.25,984.05 511.15,984.05 512.05,984.05 522.35,984.05 532.55,983.75 542.15,983.25 544.65,983.1 546.9,982.95 549.1,982.8 569.3,981.35 589,978.75 607.8,975.1 615.75,973.55 623.6,971.8 631.2,969.95 712,949.65 783.35,908.35 845.85,845.85 894.45,797.25 930.25,743.35 953.2,684.05 971.65,636.4 981.85,585.25 983.75,530.55 983.95,524.5 984.05,518.3 984.05,512.05 984.05,511.4 984.05,510.7 984.05,510.05 984.05,509.7 984.05,509.4 984.05,509.05 983.85,468.4 979.1,429.55 969.75,392.05 968.65,387.7 967.4,383.05 966.1,378.45 963.85,370.6 961.35,362.65 958.55,354.65z"/>
      </g>
    </g>
  </mask>
  <g id="masked" mask="url(#circle1)">
    <g id="computer">
      <g id="Symbole.__2017_1" overflow="visible">
        <g id="Calque.__215">
          <g id="Symbole.__2019_2" overflow="visible">
            <g id="Calque.__216">
              <g id="shape52">
                <path id="path39" fill="#333333" fill-opacity="1" d="M674.317,953.96 C674.317,939.423 669.119,926.913 658.811,916.606 648.503,906.298 635.993,901.1 621.457,901.1 L420.59,901.1 C406.053,901.1 393.543,906.298 383.235,916.606 Q367.73,932.111 367.73,953.96 L339.185,1035.364 702.861,1035.364 674.317,953.96z"/>
                <path id="path40" fill="#666666" fill-opacity="1" d="M729.291,1192.181 C739.598,1181.874 744.796,1169.363 744.796,1154.827 L702.861,1035.364 339.185,1035.364 297.25,1154.827 C297.25,1169.363 302.448,1181.874 312.756,1192.181 323.063,1202.489 335.573,1207.687 350.11,1207.687 L691.937,1207.687 C706.473,1207.687 718.983,1202.489 729.291,1192.181z"/>
              </g>
            </g>
          </g>
          <g id="Symbole.__2021_2" overflow="visible">
            <g id="Calque.__217">
              <g id="shape53">
                <path id="path41" fill="#4E4E4E" fill-opacity="1" d="M1084.239,58.414 Q1095.076,69.25 1095.076,84.58 L1095.076,778.541 1126.615,810.08 1126.615,84.58 C1126.615,65.638 1119.92,49.516 1106.528,36.125 1093.049,22.646 1076.927,15.95 1057.986,15.95 L332.485,15.95 364.024,47.49 1057.986,47.49 C1068.205,47.49 1076.927,51.102 1084.239,58.414z"/>
                <path id="path42" fill="#333333" fill-opacity="1" d="M1095.076,84.58 Q1095.076,69.25 1084.239,58.414 C1076.927,51.102 1068.205,47.49 1057.986,47.49 L364.024,47.49 1095.076,778.541 1095.076,84.58z"/>
                <path id="path43" fill="#666666" fill-opacity="1" d="M1126.615,810.08 L1095.076,778.541 1095.076,928.222 C1095.076,938.442 1091.463,947.164 1084.239,954.476 1076.927,961.7 1068.205,965.312 1057.986,965.312 L-33.569,965.312 C-43.789,965.312 -52.511,961.7 -59.735,954.476 -67.047,947.164 -70.659,938.442 -70.659,928.222 L-70.659,84.58 C-70.659,74.36 -67.047,65.638 -59.735,58.414 -52.511,51.102 -43.789,47.49 -33.569,47.49 L364.024,47.49 332.485,15.95 -33.569,15.95 C-52.511,15.95 -68.633,22.646 -82.024,36.125 -95.503,49.516 -102.199,65.638 -102.199,84.58 L-102.199,928.222 C-102.199,947.164 -95.503,963.286 -82.024,976.765 -68.633,990.156 -52.511,996.852 -33.569,996.852 L1057.986,996.852 C1076.927,996.852 1093.049,990.156 1106.528,976.765 1119.92,963.286 1126.615,947.164 1126.615,928.222 L1126.615,810.08z"/>
                <path id="path44" fill="#000000" fill-opacity="1" d="M1057.986,965.312 C1068.205,965.312 1076.927,961.7 1084.239,954.476 1091.463,947.164 1095.076,938.442 1095.076,928.222 L1095.076,778.541 364.024,47.49 -33.569,47.49 C-43.789,47.49 -52.511,51.102 -59.735,58.414 -67.047,65.638 -70.659,74.36 -70.659,84.58 L-70.659,928.222 C-70.659,938.442 -67.047,947.164 -59.735,954.476 -52.511,961.7 -43.789,965.312 -33.569,965.312 L1057.986,965.312z"/>
              </g>
            </g>
          </g>
          <g id="Symbole.__2023_2" overflow="visible">
            <g id="Calque.__218">
              <g id="shape54">
                <path id="path45" fill="#EEEEEE" fill-opacity="1" d="M1010.407,136.37 Q1010.407,118.75 992.787,118.75 L31.62,118.75 C19.903,118.75 14,124.653 14,136.37 L14,173.372 1010.407,173.372 1010.407,136.37z"/>
              </g>
              <g id="shape55">
                <path id="path46" fill="#5793D3" fill-opacity="1" d="M14,1161.865 Q14,1186.636 31.62,1186.636 L992.787,1186.636 C1004.505,1186.636 1010.407,1178.338 1010.407,1161.865 L1010.407,173.491 14,173.491 14,1161.865z"/>
              </g>
            </g>
            <g id="Calque.__219">
              <g id="shape56">
                <path id="path47" fill="#FFFFFF" fill-opacity="0.09803921568627451" d="M1010.507,136.37 Q1010.507,118.75 992.887,118.75 L433.454,118.75 1010.507,695.803 1010.507,136.37z"/>
              </g>
            </g>
          </g>
          <g id="Symbole.__2025_2" overflow="visible">
            <g id="Calque.__220">
              <g id="shape57">
                <path id="path48" fill="#2E3640" fill-opacity="1" d="M47.81,129.25 Q41.115,129.25 36.357,134.007 C33.186,137.179 31.6,140.967 31.6,145.46 31.6,149.953 33.186,153.742 36.357,156.913 39.529,160.085 43.317,161.671 47.81,161.671 52.303,161.671 56.092,160.085 59.263,156.913 62.435,153.742 64.021,149.953 64.021,145.46 64.021,140.967 62.435,137.179 59.263,134.007 56.092,130.836 52.303,129.25 47.81,129.25z"/>
              </g>
            </g>
          </g>
          <g id="Symbole.__2027_2" overflow="visible">
            <g id="Calque.__221">
              <g id="shape58">
                <path id="path49" fill="#009999" fill-opacity="1" d="M504.733,77.883 C502.707,79.91 501.65,82.465 501.65,85.372 501.65,88.279 502.707,90.834 504.733,92.86 506.76,94.887 509.315,95.944 512.222,95.944 515.129,95.944 517.684,94.887 519.71,92.86 521.737,90.834 522.794,88.279 522.794,85.372 Q522.794,80.967 519.71,77.883 C517.684,75.857 515.129,74.8 512.222,74.8 509.315,74.8 506.76,75.857 504.733,77.883z"/>
              </g>
            </g>
          </g>
        </g>
      </g>
    </g>
  </g>
  <g id="Calque.__201">
    <g id="shape6">
      <path id="path3" fill="#333333" fill-opacity="1" d="M711.3,453.7 L659.8,402.25 543.85,518.2 595.3,569.65 711.3,453.7z M564.25,306.65 L512.05,254.55 396.1,370.45 448.3,422.6 564.25,306.65z M248.4,518.2 L300.55,570.35 416.5,454.4 364.3,402.25 248.4,518.2z M396.1,665.95 L447.55,717.4 563.5,601.45 512.05,550 396.1,665.95z"/>
      <path id="path4" fill="#000000" fill-opacity="1" d="M775.7,518.2 L711.3,453.7 595.3,569.65 659.8,634.15 775.7,518.2z M628,370.45 L564.25,306.65 448.3,422.6 512.05,486.4 628,370.45z M480.25,518.2 L416.5,454.4 300.55,570.35 364.3,634.15 480.25,518.2z M628,665.95 L563.5,601.45 447.55,717.4 512.05,781.85 628,665.95z"/>
    </g>
  </g>
</svg>