<?xml version="1.0" encoding="utf-8"?>
<!-- Generator: flash2svg, http://dissentgraphics.com/tools/flash2svg -->
<svg xmlns:xlink="http://www.w3.org/1999/xlink" id="Apps-Opera" image-rendering="optimizeSpeed" baseProfile="basic" version="1.1" style="background-color:#ffffff" x="0px" y="0px" width="1024px" height="1024px" viewBox="0 0 1024 1024" enable-background="new 0 0 1024 1024" xmlns="http://www.w3.org/2000/svg">
  <defs transform="matrix(1 0 0 1 0 0) "/>
  <g id="background-circle-shadow">
    <g id="shape">
      <path id="path" fill="#000000" fill-opacity="0.09803921568627451" d="M969.65,351.3 Q961.05,330.45 950.25,310.45 C946.2,302.9 941.9,295.4 937.35,288.05 917.8,256.35 893.95,226.4 865.8,198.25 773.65,106.1 662.35,60 532,60 401.65,60 290.4,106.1 198.25,198.25 106.1,290.4 60,401.65 60,532 60,662.35 106.1,773.65 198.25,865.8 290.4,957.95 401.65,1004 532,1004 662.35,1004 773.65,957.95 865.8,865.8 916.55,815 953.35,758.4 976.15,696.05 994.7,645.2 1004,590.55 1004,532 1004,487.1 998.55,444.45 987.6,404.05 986.35,399.5 985.05,394.95 983.7,390.45 979.6,377.15 974.9,364.1 969.65,351.3z"/>
    </g>
  </g>
  <g id="background-circle">
    <g id="shape2">
      <path id="path1" fill="#E5E5E5" fill-opacity="1" d="M966.1,378.45 C965.1,375.05 964.1,371.6 962.95,367.95 961.35,362.8 959.55,357.45 957.65,352.1 951.2,333.85 943.5,316.05 934.5,298.45 930.7,291.05 926.55,283.5 922.2,276.05 901.9,241.55 876.4,208.85 845.85,178.3 773.25,105.7 688.7,61.65 592.2,46.25 575.95,43.65 559.4,41.85 542.15,40.9 532.45,40.35 522.3,40.05 512.05,40.05 502.7,40.05 493.45,40.3 484.15,40.8 365.8,46.9 263.85,92.75 178.3,178.3 Q40.05,316.55 40.05,512.05 C40.05,642.4 86.15,753.7 178.3,845.85 235,902.5 298.85,941.75 369.4,963.4 406.15,974.65 444.2,981.25 484.15,983.35 484.3,983.35 484.4,983.35 484.55,983.35 493.05,983.8 501.15,984.05 509.05,984.05 510.25,984.05 511.15,984.05 512.05,984.05 522.35,984.05 532.55,983.75 542.15,983.25 544.65,983.1 546.9,982.95 549.1,982.8 569.3,981.35 589,978.75 607.8,975.1 615.75,973.55 623.6,971.8 631.2,969.95 712,949.65 783.35,908.35 845.85,845.85 894.45,797.25 930.25,743.35 953.2,684.05 971.65,636.4 981.85,585.25 983.75,530.55 983.95,524.5 984.05,518.3 984.05,512.05 984.05,511.4 984.05,510.7 984.05,510.05 984.05,509.7 984.05,509.4 984.05,509.05 983.85,468.4 979.1,429.55 969.75,392.05 968.65,387.7 967.4,383.05 966.1,378.45z"/>
    </g>
  </g>
  <g id="object-shadow">
    <g id="shape4">
      <path id="path2" fill="#000000" fill-opacity="0.09803921568627451" d="M980.125,576.375 L762.05,358.3 527.125,248.6 370.075,310.05 298.25,708.05 570.975,980.775 L571,980.8 C583.8,979.3 596,977.4 607.8,975.1 615.75,973.55 623.6,971.8 631.2,969.95 712,949.65 783.35,908.35 845.85,845.85 894.45,797.25 930.25,743.35 953.2,684.05 Q973.044,632.849 980.125,576.375z"/>
    </g>
  </g>
  <g id="object">
    <g id="shape6">
      <path id="path3" fill="#AF0F0F" fill-opacity="1" d="M755.15,352.95 C744.4,336.95 731.7,321.55 717.1,306.95 677.75,267.6 632.75,241.95 582.05,229.95 557.4,235.75 534.1,244.8 512.05,257.2 535.2,270.15 556.9,286.75 577.1,306.95 602.95,332.8 622.95,361.15 637,391.9 640.25,399.05 643.2,406.3 645.85,413.7 656.65,444.25 662.05,477 662.05,512.05 L802.05,512.05 C802.05,484.05 798.6,457.5 791.6,432.1 783.85,404.1 771.7,377.65 755.15,352.95z M222.05,512.05 C222.05,592.15 250.35,660.5 306.95,717.1 346.4,756.55 391.55,782.25 442.05,794.15 464.55,799.45 487.75,802.05 512.05,802.05 536.5,802.05 559.8,799.4 582.05,794.15 557.55,788.35 534.3,779.35 512.05,766.9 489.05,754.05 467.25,737.4 446.95,717.1 Q408.186,678.336 387.125,632.225 L387.15,632.25 C383.95,625.25 381.05,618.1 378.3,610.4 367.55,580.3 362.05,547.3 362.05,512.05 L222.05,512.05z"/>
      <path id="path4" fill="#FF1A2E" fill-opacity="1" d="M662.05,512.05 C662.05,512.3 662.05,512.6 662.05,512.85 662,540.65 658.5,567.05 651.6,592 638.7,638.65 613.85,680.35 577.1,717.1 556.9,737.3 535.2,753.9 512.05,766.9 534.3,779.35 557.55,788.35 582.05,794.15 632.75,782.15 677.75,756.45 717.1,717.1 773.75,660.5 802.05,592.15 802.05,512.05 L662.05,512.05z M512.05,257.2 C534.1,244.8 557.4,235.75 582.05,229.95 559.8,224.7 536.5,222.05 512.05,222.05 487.65,222.05 464.3,224.65 442.05,229.95 391.35,241.9 346.35,267.6 306.95,306.95 270.1,343.8 245.3,385.6 232.5,432.1 225.55,457.25 222.1,483.6 222.05,511.3 222.05,511.55 222.05,511.8 222.05,512.05 L362.05,512.05 C362.05,431.95 390.35,363.6 446.95,306.95 467.2,286.75 488.9,270.15 512.05,257.2z"/>
    </g>
  </g>
</svg>