
<svg xmlns="http://www.w3.org/2000/svg" version="1.1" xmlns:xlink="http://www.w3.org/1999/xlink" preserveAspectRatio="none" x="0px" y="0px" width="1024px" height="1024px" viewBox="0 0 1024 1024">
<defs>
<g id="Layer4_0_FILL">
<path fill="#000000" fill-opacity="0.09803921568627451" stroke="none" d="
M 969.6 351.25
Q 961 330.4 950.2 310.4 944.1 299.05 937.3 288 907.95 240.45 865.75 198.2 727.5 59.95 531.95 59.95 336.45 59.95 198.2 198.2 59.95 336.45 59.95 531.95 59.95 727.5 198.2 865.75 336.45 1003.95 531.95 1003.95 727.5 1003.95 865.75 865.75 941.9 789.55 976.1 696 1003.95 619.75 1003.95 531.95 1003.95 464.6 987.55 404 985.7 397.15 983.65 390.4 977.5 370.45 969.6 351.25 Z"/>
</g>

<g id="Layer3_0_FILL">
<path fill="#333333" stroke="none" d="
M 969.7 392
Q 967.95 385.15 966.05 378.4 964.52578125 373.114453125 962.85 367.85 960.3787109375 359.903125 957.6 352.05 947.85 324.5 934.45 298.4 928.65 287.05 922.15 276 891.5 224 845.8 178.25 736.8 69.25 592.15 46.2 567.65 42.3 542.1 40.85 527.2 40 512 40 497.9 40 484.1 40.75 306.55 49.95 178.25 178.25 40 316.5 40 512 40 707.55 178.25 845.8 263.0400390625 930.55703125 369.35 963.35 423.8880859375 980.1630859375 484.1 983.3 484.3 983.3 484.5 983.3 496.65 983.9 509 984 510.5 984 512 984 527.25 984 542.1 983.2 545.6 983 549.05 982.75 579.1 980.6 607.75 975.05 619.55 972.75 631.15 969.9 751.75 939.85 845.8 845.8 918.7 772.85 953.15 684 980.9 612.4 983.7 530.5 984 521.3 984 512 984 511 984 510 984 509.5 984 509 983.65 447.7 969.7 392 Z"/>
</g>

<g id="Layer2_0_FILL">
<path fill="#000000" fill-opacity="0.2" stroke="none" d="
M 861.7 556.95
L 856.6 565.85 846.95 558.45 750.2 461.7 691 448 620.4 491.45 572.7 443.75 554 542 485 487 454.1 525.75 394 465.65 336 449 259.7 492.9 224.2 457.4 143 462 137.85 509.8 185.2 557.15 173 572 124.9 564.5 543.5 983.1
Q 546.29921875 982.9494140625 549.05 982.75 579.1 980.6 607.75 975.05 619.55 972.75 631.15 969.9 751.75 939.85 845.8 845.8 918.7 772.85 953.15 684 979.1322265625 616.961328125 983.25 540.9
L 901.7 459.35 832 454 813.1 508.35 861.7 556.95 Z"/>
</g>

<g id="Layer0_0_FILL">
<path fill="#FFFFFF" stroke="none" d="
M 133.1 437.8
L 130.55 435.25
Q 124.8 428.85 114.25 422.45 93.1 409.65 69.1 409.65 55.3 409.65 42.85 413.5 29.85 417.5 20.45 425 10.85 432.7 5.45 443.55 0 454.45 0 465.95 0 477.45 5.45 488.35 10.85 499.2 20.45 506.9 27.85 512.45 38.05 516.85 47.3 520.8 61.4 524.85 84.7 531.5 92.75 539.55 97.25 544.05 97.25 550.45 97.25 558.4 88.6 564.5 79.55 570.9 66.55 570.9 56.75 570.9 46.05 566.75 42.6 565.4 33.25 560.65
L 30.7 558.1 2.55 578.6 9.3 585.15
Q 14.85 589.95 21.45 593.95 42.55 606.75 66.55 606.75 80.3 606.75 92.75 602.9 105.75 598.9 115.15 591.4 124.75 583.7 130.2 572.85 135.65 561.95 135.65 550.45 135.65 539.35 130.2 529 125.25 519.55 115.15 509.45
L 115.2 509.45
Q 107.8 503.9 97.6 499.55 88.25 495.55 74.2 491.55 50.95 484.9 42.9 476.8 38.4 472.35 38.4 465.95 38.4 457.95 47.05 451.85 56.1 445.45 69.1 445.45 78.85 445.45 89.6 449.6 92.1 450.6 102.4 455.7
L 104.95 458.25 133.1 437.8
M 960 412.2
Q 946.2 412.2 933.75 416.05 920.75 420.05 911.35 427.55 901.75 435.25 896.3 446.1 890.85 457 890.85 468.5 887.15 490.75 911.35 506.9 918.75 512.45 928.95 516.85 938.2 520.8 952.3 524.85 975.6 531.5 983.65 539.55 988.15 544.05 988.15 550.45 988.15 558.4 979.5 564.5 970.45 570.9 957.4 570.9 947.6 570.9 936.95 566.75 933.5 565.4 924.15 560.65
L 921.6 560.65 893.4 581.15 900.2 587.7
Q 905.7 592.5 912.3 596.5 933.4 609.3 957.4 609.3 971.2 609.3 983.65 605.45 996.65 601.5 1006.05 593.95 1015.65 586.25 1021.1 575.4 1026.55 564.5 1026.55 553 1026.55 541.45 1021.1 530.55 1015.65 519.7 1006.05 512 998.65 506.45 988.45 502.1 979.1 498.1 965.1 494.1 941.8 487.45 933.75 479.35 929.25 474.9 929.25 468.5 929.25 460.5 937.9 454.4 946.95 448 960 448 969.75 448 980.45 452.15 983.3 453.25 993.25 458.25
L 995.8 460.8 1024 440.35 1021.4 437.8
Q 1015.65 431.4 1005.1 425 984 412.2 960 412.2
M 555.5 419.85
L 555.5 524.85 435.2 412.2 435.2 601.65 471 601.65 471 496.65 591.35 609.3 591.35 419.85 555.5 419.85
M 315.8 417.35
Q 297.25 409.65 276.45 409.65 255.7 409.65 237.1 417.35 219.1 424.75 205.4 438.45 191.75 452.1 184.3 470.1 176.6 488.7 176.6 509.45 176.6 529.25 184.65 547.75 192.4 565.55 206.35 579.55 220.35 593.55 238.15 601.25 256.7 609.3 276.45 609.3 297.25 609.3 315.8 601.6 333.85 594.2 347.5 580.5 361.2 566.85 368.6 548.8 376.3 530.25 376.3 509.45 376.3 488.7 368.6 470.1 361.2 452.1 347.5 438.45 333.85 424.75 315.8 417.35
M 276.45 445.45
Q 303.35 445.45 321.9 464.05 340.45 482.6 340.45 509.45 340.45 536.35 321.9 554.9 303.35 573.45 276.45 573.45 249.55 573.45 231 554.9 212.45 536.35 212.45 509.45 212.45 482.6 231 464.05 249.55 445.45 276.45 445.45
M 841.85 470.1
Q 834.15 452.2 820.15 438.45 806.25 424.8 788.35 417.35 769.95 409.65 750.05 409.65 729.3 409.65 710.7 417.35 692.7 424.75 679 438.45 665.35 452.1 657.9 470.1 650.2 488.7 650.2 509.45 650.2 530.1 658.25 548.8 665.95 566.75 679.95 580.5 693.85 594.15 711.75 601.6 730.15 609.3 750.05 609.3 770.85 609.3 789.4 601.6 807.45 594.2 821.1 580.5 834.8 566.85 842.2 548.8 849.9 530.25 849.9 509.45 849.9 488.8 841.85 470.1
M 750.05 445.45
Q 776.95 445.45 795.5 464.05 814.05 482.6 814.05 509.45 814.05 535.9 794.55 554.9 785.55 563.65 774.1 568.5 762.4 573.45 750.05 573.45 723.15 573.45 704.6 554.9 686.05 536.35 686.05 509.45 686.05 482.6 704.6 464.05 723.15 445.45 750.05 445.45 Z"/>
</g>
</defs>

<g transform="matrix( 1, 0, 0, 1, 0,0) ">
<use xlink:href="#Layer4_0_FILL"/>
</g>

<g transform="matrix( 1, 0, 0, 1, 0,0) ">
<use xlink:href="#Layer3_0_FILL"/>
</g>

<g transform="matrix( 1, 0, 0, 1, 0,0) ">
<use xlink:href="#Layer2_0_FILL"/>
</g>

<g transform="matrix( 0.760528564453125, 0, 0, 0.760528564453125, 122.95,124.45) ">
<use xlink:href="#Layer0_0_FILL"/>
</g>
</svg>
