<?xml version="1.0" encoding="utf-8"?>
<!-- Generator: flash2svg, http://dissentgraphics.com/tools/flash2svg -->
<svg xmlns:xlink="http://www.w3.org/1999/xlink" id="Kaleidoscope" image-rendering="optimizeSpeed" baseProfile="basic" version="1.1" style="background-color:#ffffff" x="0px" y="0px" width="1024px" height="1024px" viewBox="0 0 1024 1024" enable-background="new 0 0 1024 1024" xmlns="http://www.w3.org/2000/svg">
  <defs transform="matrix(1 0 0 1 0 0) "/>
  <g id="shadow">
    <g id="shape">
      <path id="path" fill="#000000" fill-opacity="0.09803921568627451" d="M969.65,351.3 Q961.05,330.45 950.25,310.45 C946.2,302.9 941.9,295.4 937.35,288.05 917.8,256.35 893.95,226.4 865.8,198.25 773.65,106.1 662.35,60 532,60 401.65,60 290.4,106.1 198.25,198.25 106.1,290.4 60,401.65 60,532 60,662.35 106.1,773.65 198.25,865.8 290.4,957.95 401.65,1004 532,1004 662.35,1004 773.65,957.95 865.8,865.8 916.55,815 953.35,758.4 976.15,696.05 994.7,645.2 1004,590.55 1004,532 1004,487.1 998.55,444.45 987.6,404.05 986.35,399.5 985.05,394.95 983.7,390.45 979.6,377.15 974.9,364.1 969.65,351.3z"/>
    </g>
  </g>
  <g id="Calque.__203">
    <g id="shape2">
      <path id="path1" fill="#FFFFFF" fill-opacity="1" d="M674.05,68.65 C667.05,66.05 660.05,63.6 652.75,61.2 617.95,49.9 582.8,42.75 547.6,40 479.25,34.5 410.75,45.1 341.75,71.8 340.8,72.2 339.75,72.6 338.7,73 315.25,82.3 293.05,92.9 272.1,104.9 230.8,128.6 194.5,157.55 163.6,191.6 152.4,203.9 141.9,216.85 132.15,230.3 L132.125,230.3 Q101.326,272.805 79.05,324.15 C62.85,361.5 51.5,399 45.2,435.7 43.5,445.35 42.2,454.6 41.2,463.8 40.75,468.25 40.35,472.4 40,476.55 36.35,521.6 39.75,566.75 50.15,612.05 50.2,612.2 50.2,612.4 50.25,612.55 55.95,637.1 63.5,661.3 73,685.4 100.7,755.35 140.25,813.8 191.55,860.5 192.85,861.65 194.15,862.8 195.2,863.8 225.9,891.15 260.4,914.15 298.85,933.3 299,933.35 299.1,933.4 299.2,933.45 302.3,935 305.3,936.45 307.85,937.6 312.75,939.95 317.1,941.95 321.45,943.85 322.55,944.3 323.35,944.7 324.2,945.05 333.65,949.15 343.1,952.9 352.1,956.25 354.45,957.1 356.6,957.9 358.7,958.65 359.05,958.8 359.4,958.9 359.75,959.05 378.3,965.5 396.95,970.8 415.6,974.95 423.5,976.65 431.4,978.2 439.1,979.5 440.05,979.7 441.05,979.8 441.8,979.95 453.45,981.8 465,983.2 476.55,984.15 546.35,989.6 615.75,978.6 685.4,951.1 695.6,947.1 705.55,942.85 715,938.4 728.7,932.05 741.7,925.25 754.2,917.95 789.3,897.6 820.65,873.45 848.3,845.45 848.85,844.9 849.45,844.3 850,843.75 853.55,840.05 857.1,836.3 860.55,832.55 868.95,823.3 877.05,813.6 884.8,803.45 904.85,777.3 922.35,748.35 937.4,716.75 940,711.25 942.55,705.65 945.05,699.9 945.3,699.3 945.6,698.65 945.85,698.05 946,697.75 946.1,697.45 946.25,697.15 949.05,690.55 951.7,683.9 954.35,677.15 962.45,655.8 969.05,634.25 974.15,612.3 976.25,603.05 978.15,593.6 979.7,584.1 980.4,579.7 981.1,574.95 981.8,570.2 982.7,562.85 983.55,555.35 984.15,547.6 984.25,546.15 984.4,544.45 984.55,542.65 985.85,523.35 985.85,503.95 984.65,484.25 984.2,477.85 983.65,471.35 982.95,464.65 982.9,464.25 982.85,463.85 982.8,463.5 982.65,461.95 982.45,460.35 982.25,458.8 980.25,442.4 977.3,425.95 973.3,409.1 967.85,385.95 960.45,362.35 951.1,338.7 931.55,289.25 906.05,245.55 874.2,207.2 861.5,191.95 847.5,177.3 832.5,163.6 813.75,146.5 793.15,130.8 770.95,116.65 757.1,107.75 742.65,99.55 727.2,91.75 718.5,87.4 709.35,83.1 699.95,79.05 691.35,75.3 682.8,71.85 674.05,68.65z"/>
    </g>
  </g>
  <g id="Calque.__204">
    <g id="Symbole.__2034_1" overflow="visible">
      <g id="Calque.__217">
        <g id="shape21">
          <path id="path12" fill="#0066FF" fill-opacity="0.4980392156862745" d="M149.85,816.85 C161.45,816.7 172.95,816.3 184.05,815.55 261.35,810.3 332.3,790.7 397.15,756.75 403.35,753.5 409.45,750.15 415.5,746.7 447.3,728.4 477.55,706.6 506.35,681.25 516.15,672.55 525.8,663.5 535.25,654.05 588.45,600.85 628.65,542.2 655.75,478.3 656.85,475.75 657.9,473.2 658.95,470.55 674.35,432.55 685.2,392.6 691.55,350.8 695.9,321.75 698.1,291.75 698.1,260.9 698.1,190.75 686.75,125.3 664.3,65 645.75,58.55 627.1,53.25 608.45,49.1 600.55,47.4 592.65,45.85 584.95,44.55 584,44.35 583,44.25 582.25,44.1 570.6,42.25 559.05,40.85 547.5,39.9 477.7,34.45 408.3,45.45 338.65,72.95 328.45,76.95 318.5,81.2 309.05,85.65 295.35,92 282.35,98.8 269.85,106.1 234.75,126.45 203.4,150.6 175.75,178.6 175.2,179.15 174.6,179.75 174.05,180.3 170.5,184 166.95,187.75 163.5,191.5 155.1,200.75 147,210.45 139.25,220.6 119.2,246.75 101.7,275.7 86.65,307.3 84.05,312.8 81.5,318.4 79,324.15 78.75,324.75 78.45,325.4 78.2,326 78.05,326.3 77.95,326.6 77.8,326.9 75,333.5 72.35,340.15 69.7,346.9 61.6,368.25 55,389.8 49.9,411.75 47.8,421 45.9,430.45 44.35,439.95 43.65,444.35 42.95,449.1 42.25,453.85 41.35,461.2 40.5,468.7 39.9,476.45 39.8,477.9 39.65,479.6 39.5,481.4 38.2,500.7 38.2,520.1 39.4,539.8 39.85,546.2 40.4,552.7 41.1,559.4 41.15,559.8 41.2,560.2 41.25,560.55 41.4,562.1 41.6,563.7 41.8,565.25 43.8,581.65 46.75,598.1 50.75,614.95 Q59.05,650.1 72.95,685.35 C92.5,734.8 118,778.5 149.85,816.85z"/>
        </g>
      </g>
    </g>
  </g>
  <g id="Calque.__205">
    <g id="Symbole.__2036_1" overflow="visible">
      <g id="Calque.__218">
        <g id="shape22">
          <path id="path13" fill="#009966" fill-opacity="0.4980392156862745" d="M506.35,681.25 C518.2,690.5 529.8,698.9 541.5,706.7 629.3,765.05 728.35,794.5 838.85,795.5 841.05,795.5 842.95,795.5 844.85,795.5 860.75,795.5 876.4,794.9 891.9,793.75 Q922.7,751.25 945,699.9 C961.2,662.55 972.55,625.05 978.85,588.35 980.55,578.7 981.85,569.45 982.85,560.25 983.3,555.8 983.7,551.65 984.05,547.5 987.7,502.45 984.3,457.3 973.9,412 973.85,411.85 973.85,411.65 973.8,411.5 968.1,386.95 960.55,362.75 951.05,338.65 923.35,268.7 883.8,210.25 832.5,163.55 831.2,162.4 829.9,161.25 828.85,160.25 798.15,132.9 763.65,109.9 725.2,90.75 725.05,90.7 724.95,90.65 724.85,90.6 721.75,89.05 718.75,87.6 716.2,86.45 711.3,84.1 706.95,82.1 702.6,80.2 701.5,79.75 700.7,79.35 699.85,79 690.4,74.9 680.95,71.15 671.95,67.8 669.6,66.95 667.45,66.15 665.35,65.4 665,65.25 664.65,65.15 664.3,65 645.75,58.55 627.1,53.25 608.45,49.1 600.55,47.4 592.65,45.85 584.95,44.55 584,44.35 583,44.25 582.25,44.1 570.6,42.25 559.05,40.85 547.5,39.9 477.7,34.45 408.3,45.45 338.65,72.95 328.45,76.95 318.5,81.2 309.05,85.65 295.6,134 288.85,185.35 288.85,239.5 288.85,279.65 292.55,318.2 299.9,354.7 304.75,379.4 311.2,403 319.25,425.8 319.65,426.9 319.9,427.65 320.15,428.4 347,503.8 390.8,571.75 451.7,632.65 460.15,641.1 468.75,649.2 477.15,656.75 486.9,665.45 496.75,673.7 506.35,681.25z"/>
        </g>
      </g>
    </g>
  </g>
  <g id="Calque.__206">
    <g id="Symbole.__2038_1" overflow="visible">
      <g id="Calque.__219">
        <g id="shape23">
          <path id="path14" fill="#CC3366" fill-opacity="0.4980392156862745" d="M296.85,932.3 C305.55,936.65 314.7,940.95 324.1,945 332.7,948.75 341.25,952.2 350,955.4 357,958 364,960.45 371.3,962.85 406.1,974.15 441.25,981.3 476.45,984.05 544.8,989.55 613.3,978.95 682.3,952.25 683.25,951.85 684.3,951.45 685.35,951.05 708.8,941.75 731,931.15 751.95,919.15 793.25,895.45 829.55,866.5 860.45,832.45 871.65,820.15 882.15,807.2 891.9,793.75 Q922.7,751.25 945,699.9 C961.2,662.55 972.55,625.05 978.85,588.35 973.65,579.95 968.45,571.95 963,564.05 943.3,535.45 920.25,507.95 894.05,481.75 847.65,435.35 797.15,398.85 742.55,372.3 741.35,371.7 740.15,371.1 738.95,370.55 723.5,363.2 707.75,356.65 691.55,350.8 647,334.8 599.8,324.8 550.15,320.85 534,319.55 517.55,318.9 500.9,318.9 490.25,318.9 479.7,319.15 469.25,319.7 409.2,322.7 352.75,334.35 299.9,354.7 293.55,357.15 287.2,359.7 280.95,362.4 278.35,363.5 275.8,364.65 273.25,365.8 213.2,392.8 158.05,431.45 107.75,481.75 82.65,506.85 60.5,533.15 41.25,560.55 41.4,562.1 41.6,563.7 41.8,565.25 43.8,581.65 46.75,598.1 50.75,614.95 56.2,638.1 63.6,661.7 72.95,685.35 92.5,734.8 118,778.5 149.85,816.85 162.55,832.1 176.55,846.75 191.55,860.45 210.3,877.55 230.9,893.25 253.1,907.4 266.95,916.3 281.4,924.5 296.85,932.3z"/>
        </g>
      </g>
    </g>
  </g>
  <g id="Calque.__207">
    <g id="Symbole.__2040_1" overflow="visible">
      <g id="Calque.__220">
        <g id="shape24">
          <path id="path15" fill="#CCFF00" fill-opacity="0.4980392156862745" d="M271.5,621.35 C287,628.7 302.8,635.3 318.9,641.1 363.55,657.15 410.65,667.1 460.3,671.05 476.45,672.35 492.9,673 509.55,673 520.2,673 530.75,672.75 541.2,672.2 601.25,669.2 657.7,657.55 710.55,637.2 716.9,634.75 723.25,632.2 729.5,629.5 732.1,628.4 734.65,627.25 737.2,626.1 797.25,599.1 852.4,560.45 902.7,510.15 927.8,485.05 949.95,458.8 969.2,431.35 969.95,430.25 970.7,429.15 971.45,428.1 973,425.9 974.5,423.7 975.95,421.45 975.05,417.15 974.15,413.1 973.2,409 967.65,385.55 960.25,362.1 951,338.6 931.4,288.95 905.75,245.15 874.1,207.1 864.85,195.95 855.05,185.3 844.95,175.4 840.7,171.2 836.6,167.3 832.4,163.5 813.5,146.25 793,130.6 770.85,116.55 756.9,107.65 742.35,99.35 727.1,91.65 718.25,87.2 709.15,83 699.85,78.95 691.2,75.2 682.6,71.75 673.95,68.55 666.85,65.9 659.75,63.4 652.65,61.1 617.65,49.75 582.6,42.7 547.5,39.9 479.15,34.35 410.5,44.95 341.65,71.7 340.65,72.1 339.65,72.5 338.6,72.9 315.15,82.2 292.95,92.85 272,104.8 230.75,128.45 194.6,157.35 163.5,191.5 162,193.2 160.5,194.9 159.05,196.4 149.5,207.3 140.55,218.5 132.05,230.2 111.5,258.55 93.8,289.8 78.95,324.05 64.1,358.2 53.35,392.5 46.7,426.8 46.95,427.15 47.2,427.5 47.45,427.85 67.3,456.6 90.25,484 116.4,510.15 162.8,556.55 213.3,593.05 267.9,619.6 Q269.7,620.5 271.5,621.35z"/>
        </g>
      </g>
    </g>
  </g>
  <g id="Calque.__208">
    <g id="Symbole.__2042_1" overflow="visible">
      <g id="Calque.__221">
        <g id="shape25">
          <path id="path16" fill="#FF99CC" fill-opacity="0.4980392156862745" d="M439,979.4 C439.9,979.55 440.8,979.7 441.7,979.85 453.25,981.7 464.85,983.1 476.45,984.05 545.8,989.65 615.45,978.65 685.3,951 685.85,950.75 686.45,950.55 687,950.3 696.5,946.5 705.8,942.5 714.9,938.3 728.45,931.95 741.5,925.15 754.1,917.85 789.15,897.5 820.55,873.35 848.2,845.35 848.75,844.8 849.35,844.2 849.9,843.65 853.45,839.95 857,836.2 860.45,832.45 868.9,823.15 877,813.45 884.7,803.35 904.75,777.1 922.3,748.2 937.3,716.65 939.95,711.1 942.5,705.5 944.95,699.8 945.2,699.2 945.5,698.6 945.75,697.95 945.9,697.65 946,697.35 946.15,697.05 949,690.4 951.7,683.7 954.25,677.05 962.5,655.5 969.1,633.85 974.05,612.2 976.2,602.8 978.05,593.4 979.6,584 980.35,579.35 981.05,574.75 981.7,570.1 982.65,562.55 983.45,555.05 984.05,547.5 984.15,545.85 984.3,544.2 984.45,542.55 985.8,523.1 985.8,503.65 984.55,484.15 984.1,477.6 983.55,471.1 982.85,464.55 982.8,464.15 982.75,463.75 982.7,463.4 982.55,461.85 982.35,460.25 982.15,458.7 980.6,446.2 978.55,433.7 975.95,421.45 975.05,417.15 974.15,413.1 973.2,409 967.65,385.55 960.25,362.1 951,338.6 931.4,288.95 905.75,245.15 874.1,207.1 864.85,195.95 855.05,185.3 844.95,175.4 838.45,175.65 832.4,175.95 826.4,176.35 749.4,181.55 678.35,201.15 613.3,235.15 607.15,238.4 601,241.75 594.95,245.2 563.2,263.45 532.9,285.3 504.1,310.65 494.3,319.3 484.65,328.4 475.2,337.85 422,391.05 381.85,449.65 354.7,513.6 353.65,516.15 352.55,518.75 351.5,521.35 336.1,559.4 325.25,599.3 318.9,641.1 Q312.35,684.7 312.35,731 C312.35,800.95 323.6,866.25 346.15,926.9 350.1,937.5 354.35,947.95 359.25,958.8 359.4,958.85 359.5,958.9 359.65,958.95 378.2,965.4 396.85,970.7 415.5,974.85 423.3,976.6 431.15,978.1 439,979.4z"/>
        </g>
      </g>
    </g>
  </g>
  <g id="Calque.__209">
    <g id="Symbole.__2044_1" overflow="visible">
      <g id="Calque.__222">
        <g id="shape26">
          <path id="path17" fill="#0099CC" fill-opacity="0.4980392156862745" d="M191.45,860.4 C192.65,861.5 193.85,862.6 195.1,863.7 225.55,890.8 260.1,913.95 298.75,933.2 298.9,933.25 299,933.3 299.1,933.35 301.95,934.8 304.85,936.15 307.75,937.5 312.2,939.65 316.75,941.7 321.35,943.75 322.25,944.15 323.15,944.55 324.1,944.95 333.45,949 342.75,952.7 352,956.15 354.2,957 356.4,957.8 358.6,958.55 358.8,958.65 359,958.75 359.25,958.8 359.4,958.85 359.5,958.9 359.65,958.95 378.2,965.4 396.85,970.7 415.5,974.85 423.3,976.6 431.15,978.1 439,979.4 439.9,979.55 440.8,979.7 441.7,979.85 453.25,981.7 464.85,983.1 476.45,984.05 545.8,989.65 615.45,978.65 685.3,951 685.85,950.75 686.45,950.55 687,950.3 692.45,935.85 697.25,921.2 701.4,906.25 714.85,857.75 721.6,806.45 721.6,752.4 Q721.6,692.5 710.55,637.2 C705.7,612.85 699.25,589.15 691.2,566.1 690.95,565.25 690.65,564.35 690.3,563.5 663.6,488.35 619.75,420.25 558.75,359.25 550.4,350.9 541.95,342.9 533.3,335.15 523.75,326.6 514,318.45 504.1,310.65 492.6,301.65 480.9,293.15 468.95,285.2 381.7,227.05 282.55,197.45 171.6,196.4 169.6,196.4 167.6,196.4 165.6,196.4 163.3,196.4 161,196.4 159.05,196.4 149.5,207.3 140.55,218.5 132.05,230.2 111.5,258.55 93.8,289.8 78.95,324.05 64.1,358.2 53.35,392.5 46.7,426.8 46.15,429.8 45.6,432.7 45.1,435.6 43.45,444.95 42.15,454.35 41.1,463.7 40.65,467.95 40.25,472.2 39.9,476.45 36.25,521.5 39.65,566.65 50.05,611.95 50.1,612.1 50.1,612.3 50.15,612.45 55.7,636.7 63.3,660.95 72.9,685.3 100.55,755.15 140.05,813.55 191.45,860.4z"/>
        </g>
      </g>
    </g>
  </g>
  <g id="Calque.__210">
    <g id="shape4">
      <path id="path2" fill="#FFFFFF" fill-opacity="1" d="M691.3,568.15 Q690.9,566.85 690.4,565.55 C663.7,490.4 619.85,422.3 558.85,361.3 550.5,352.95 542.05,344.95 533.4,337.2 523.85,328.65 514.1,320.5 504.2,312.7 494.4,321.35 484.75,330.45 475.3,339.9 422.1,393.1 381.95,451.7 354.8,515.65 353.75,518.2 352.65,520.8 351.6,523.4 336.2,561.45 325.35,601.35 319,643.15 363.65,659.2 410.75,669.15 460.4,673.1 476.55,674.4 493,675.05 509.65,675.05 520.3,675.05 530.85,674.8 541.3,674.25 601.35,671.25 657.8,659.6 710.65,639.25 705.8,614.9 699.35,591.2 691.3,568.15z M540.35,426.95 C579.5,466.1 607.7,509.85 624.85,558.15 625.05,558.7 625.25,559.25 625.45,559.8 630.6,574.6 634.75,589.85 637.85,605.5 603.9,618.55 567.6,626 529.05,627.95 522.35,628.3 515.6,628.45 508.75,628.45 498.05,628.45 487.5,628.05 477.1,627.2 445.25,624.7 414.95,618.3 386.25,608 390.3,581.15 397.3,555.5 407.2,531.05 407.9,529.4 408.6,527.75 409.25,526.1 426.7,485 452.5,447.35 486.7,413.2 492.75,407.1 498.95,401.25 505.25,395.7 511.6,400.7 517.85,405.95 524,411.45 529.55,416.4 535,421.6 540.35,426.95z"/>
      <path id="path3" fill="#333333" fill-opacity="1" d="M540.35,426.95 C535,421.6 529.55,416.4 524,411.45 517.85,405.95 511.6,400.7 505.25,395.7 498.95,401.25 492.75,407.1 486.7,413.2 452.5,447.35 426.7,485 409.25,526.1 408.6,527.75 407.9,529.4 407.2,531.05 397.3,555.5 390.3,581.15 386.25,608 414.95,618.3 445.25,624.7 477.1,627.2 487.5,628.05 498.05,628.45 508.75,628.45 515.6,628.45 522.35,628.3 529.05,627.95 567.6,626 603.9,618.55 637.85,605.5 634.75,589.85 630.6,574.6 625.45,559.8 625.25,559.25 625.05,558.7 624.85,558.15 607.7,509.85 579.5,466.1 540.35,426.95z"/>
    </g>
  </g>
</svg>