<?xml version="1.0" encoding="utf-8"?>
<!-- Generator: flash2svg, http://dissentgraphics.com/tools/flash2svg -->
<svg xmlns:xlink="http://www.w3.org/1999/xlink" id="Apps-Hack-Store" image-rendering="optimizeSpeed" baseProfile="basic" version="1.1" style="background-color:#ffffff" x="0px" y="0px" width="1024px" height="1024px" viewBox="0 0 1024 1024" enable-background="new 0 0 1024 1024" xmlns="http://www.w3.org/2000/svg">
  <defs transform="matrix(1 0 0 1 0 0) "/>
  <g id="shadow">
    <g id="shape">
      <path id="path" fill="#000000" fill-opacity="0.09803921568627451" d="M964.65,346.3 Q956.05,325.45 945.25,305.45 C941.2,297.9 936.9,290.4 932.35,283.05 912.8,251.35 888.95,221.4 860.8,193.25 768.65,101.1 657.35,55 527,55 396.65,55 285.4,101.1 193.25,193.25 101.1,285.4 55,396.65 55,527 55,657.35 101.1,768.65 193.25,860.8 285.4,952.95 396.65,999 527,999 657.35,999 768.65,952.95 860.8,860.8 911.55,810 948.35,753.4 971.15,691.05 989.7,640.2 999,585.55 999,527 999,482.1 993.55,439.45 982.6,399.05 981.35,394.5 980.05,389.95 978.7,385.45 974.6,372.15 969.9,359.1 964.65,346.3z"/>
    </g>
  </g>
  <g id="circle">
    <g id="shape2">
      <path id="path1" fill="#0099CC" fill-opacity="1" d="M969.75,392.05 C968.65,387.7 967.4,383.05 966.1,378.45 963.6,369.7 960.75,360.85 957.65,352.1 951.2,333.85 943.5,316.05 934.5,298.45 930.7,291.05 926.55,283.5 922.2,276.05 L922.175,276.05 Q891.574,224.04 845.85,178.3 C753.7,86.15 642.4,40.05 512.05,40.05 381.7,40.05 270.45,86.15 178.3,178.3 86.15,270.45 40.05,381.7 40.05,512.05 40.05,642.4 86.15,753.7 178.3,845.85 246.35,913.9 324.8,956.8 413.2,974.5 445.15,980.9 477.95,984.05 512.05,984.05 642.4,984.05 753.7,938 845.85,845.85 894.45,797.25 930.25,743.35 953.2,684.05 970.2,640.1 980.2,593.25 983.15,543.3 983.75,533.1 984.05,522.65 984.05,512.05 984.05,470.3 979.35,430.45 969.75,392.05z"/>
    </g>
  </g>
  <g id="ico-shadow">
    <g id="shape4">
      <path id="path2" fill="#000000" fill-opacity="0.2" d="M983.15,543.3 C983.75,533.1 984.05,522.65 984.05,512.05 Q984.05,471.276 978.05,433 L755.775,210.725 699.075,528.375 396.05,225.35 328.95,816.1 496.675,983.825 L496.7,983.85 C501.95,984 507,984.05 512.05,984.05 642.4,984.05 753.7,938 845.85,845.85 894.45,797.25 930.25,743.35 953.2,684.05 970.2,640.1 980.2,593.25 983.15,543.3z"/>
    </g>
  </g>
  <g id="Symbole.__202">
    <g id="shape6">
      <path id="path3" fill="#CCCCCC" fill-opacity="1" d="M755.65,210.85 C755.75,203.45 752.05,199.7 744.7,199.65 L713.3,199.2 C705.9,199.15 702.2,202.8 702.1,210.2 L696,661.85 699.4,661.9 747.95,662.5 749.6,662.6 751.9,509.45 751.65,509.35 755.65,210.85z"/>
      <path id="path4" fill="#FFFFFF" fill-opacity="1" d="M752.1,668.95 C750.85,666.6 749.4,664.5 747.95,662.5 L699.4,661.9 C697.95,663.75 696.5,665.9 695.05,668.2 690.55,675.6 687.3,684 685.3,693.25 683.65,700.45 682.75,708.2 682.7,716.45 682.45,735.45 686.15,751.6 693.8,765.1 694.3,766 694.8,766.85 695.35,767.65 699.6,774.35 705,780.9 711.5,787.25 L755.2,829.15 C749.4,822.75 748.25,810.75 751.8,793 755.35,775.3 757.75,762.7 758.9,755.2 760.1,747.7 761.05,740.5 761.9,733.65 762.35,730.05 762.7,726.9 763,724.2 763.2,721.65 763.3,719.4 763.3,717.6 763.55,698.6 759.8,682.4 752.1,668.95z"/>
    </g>
  </g>
  <g id="Symbole.__203">
    <g id="shape10">
      <path id="path5" fill="#FFFFFF" fill-opacity="1" d="M762.65,445 L741.1,445 741.1,445.25 741.1,487.05 734.45,487.05 734.45,445.25 734.45,445 697,445 697,469.35 690.35,469.35 690.35,445 652.9,445 652.9,487.05 646.25,487.05 646.25,445 608.8,445 608.8,469.35 602.2,469.35 602.2,445 564.7,445 564.7,487.05 558.1,487.05 558.1,445 502.2,445 502.2,487.05 495.6,487.05 495.6,445 458.1,445 458.1,469.35 451.5,469.35 451.5,445 414.05,445 414.05,487.05 407.4,487.05 407.4,445 369.95,445 369.95,469.35 363.3,469.35 363.3,445 325.85,445 325.85,445.25 325.85,487.05 319.2,487.05 319.2,445.25 319.2,445 297.65,445 C290.35,445 286.6,448.75 286.6,456.05 L286.6,559.95 C286.6,567.3 290.35,571 297.65,571 L762.65,571 C769.95,571 773.7,567.3 773.7,559.95 L773.7,456.05 C773.7,448.75 769.95,445 762.65,445z"/>
      <path id="path6" fill="#CCCCCC" fill-opacity="1" d="M741.1,445.25 L734.45,445.25 734.45,487.05 741.1,487.05 741.1,445.25z M697,445 L690.35,445 690.35,469.35 697,469.35 697,445z M652.9,487.05 L652.9,445 646.25,445 646.25,487.05 652.9,487.05z M319.2,445.25 L319.2,487.05 325.85,487.05 325.85,445.25 319.2,445.25z M602.2,469.35 L608.8,469.35 608.8,445 602.2,445 602.2,469.35z M564.7,445 L558.1,445 558.1,487.05 564.7,487.05 564.7,445z M502.2,445 L495.6,445 495.6,487.05 502.2,487.05 502.2,445z M458.1,445 L451.5,445 451.5,469.35 458.1,469.35 458.1,445z M414.05,445 L407.4,445 407.4,487.05 414.05,487.05 414.05,445z M363.3,469.35 L369.95,469.35 369.95,445 363.3,445 363.3,469.35z"/>
    </g>
  </g>
  <g id="ico">
    <g id="shape32">
      <path id="path25" fill="#FFFFFF" fill-opacity="1" d="M391.5,221.95 C391.45,213.8 387.75,209.6 380.35,209.65 L266.55,210.6 C259.2,210.65 255.55,214.85 255.55,223.05 L256.05,267.7 302.2,267.3 348.2,266.85 391.95,266.55 391.5,221.95z M283.1,728.35 C276.5,728.4 270.95,730.75 266.35,735.35 264.25,737.55 262.7,739.9 261.55,742.3 261.65,742.5 261.8,742.7 261.85,742.75 262.75,744.15 263.85,745.25 265.25,746 L309.25,794.4 C314.85,792.25 321.35,791.25 328.4,791.25 335.65,791.15 342.25,792.15 348.15,794.25 L392.65,743.55 Q393.1,743 393.65,742.35 C394.35,741.4 394.9,740.2 395.3,738.8 394.3,737.35 393.1,735.85 391.65,734.35 386.95,729.75 381.4,727.55 374.85,727.6 368.25,727.65 362.6,730.05 358.05,734.6 355.8,736.9 354.2,739.35 353,742.05 352.75,742.85 352.45,743.65 352.25,744.5 L352.2,744.65 352.1,744.7 C352.15,744.55 352.15,744.55 352.2,744.55 352.1,744.3 351.95,744 351.9,743.75 350.65,740.5 348.8,737.65 346.2,735.15 341.5,730.55 335.95,728.3 329.35,728.35 322.75,728.4 317.2,730.75 312.55,735.45 310.4,737.6 308.75,740.1 307.5,742.8 307.05,743.85 306.7,745 306.4,746.35 306.4,746.5 306.4,746.6 306.5,746.75 L306.35,746.75 306.25,746.75 306.25,745.65 C306.1,745 305.85,744.35 305.6,743.8 304.5,740.5 302.55,737.6 299.9,735.1 295.2,730.65 289.65,728.3 283.1,728.35z"/>
      <path id="path26" fill="#515151" fill-opacity="1" d="M348.2,266.85 L348.35,289.2 392.1,288.9 391.95,266.55 348.2,266.85z"/>
      <path id="path27" fill="#666666" fill-opacity="1" d="M348.35,289.2 L348.2,266.85 302.2,267.3 302.4,289.6 348.35,289.2z"/>
      <path id="path28" fill="#BEBEBE" fill-opacity="1" d="M392.1,288.9 L348.35,289.2 352.25,744.5 C352.45,743.65 352.75,742.85 353,742.05 354.2,739.35 355.8,736.9 358.05,734.6 362.6,730.05 368.25,727.65 374.85,727.6 381.4,727.55 386.95,729.75 391.65,734.35 393.1,735.85 394.3,737.35 395.3,738.8 395.65,737.35 395.85,735.65 395.8,733.65 L392.1,288.9z"/>
      <path id="path29" fill="#717171" fill-opacity="1" d="M256.05,267.7 L256.2,289.95 302.4,289.6 302.2,267.3 256.05,267.7z"/>
      <path id="path30" fill="#EAEAEA" fill-opacity="1" d="M302.4,289.6 L256.2,289.95 259.9,734.75 C259.95,737.35 260.35,739.6 261.1,741.35 261.3,741.6 261.4,742 261.55,742.3 262.7,739.9 264.25,737.55 266.35,735.35 270.95,730.75 276.5,728.4 283.1,728.35 289.65,728.3 295.2,730.65 299.9,735.1 302.55,737.6 304.5,740.5 305.6,743.8 305.85,744.35 306.1,745 306.25,745.65 L302.4,289.6z"/>
      <path id="path33" fill="#CCCCCC" fill-opacity="1" d="M306.4,746.35 C306.7,745 307.05,743.85 307.5,742.8 308.75,740.1 310.4,737.6 312.55,735.45 317.2,730.75 322.75,728.4 329.35,728.35 335.95,728.3 341.5,730.55 346.2,735.15 348.8,737.65 350.65,740.5 351.9,743.75 351.95,744 352.1,744.3 352.2,744.55 352.15,744.55 352.15,744.55 352.1,744.7 L352.2,744.65 352.25,744.5 348.35,289.2 302.4,289.6 306.25,745.65 306.25,746.75 306.35,746.75 306.5,746.75 C306.4,746.6 306.4,746.5 306.4,746.35z"/>
      <path id="path34" fill="#919D9F" fill-opacity="1" d="M328.95,816.1 L348.15,794.25 C342.25,792.15 335.65,791.15 328.4,791.25 321.35,791.25 314.85,792.25 309.25,794.4 L328.95,816.1z"/>
    </g>
  </g>
</svg>