<?xml version="1.0" encoding="utf-8"?>
<!-- Generator: flash2svg, http://dissentgraphics.com/tools/flash2svg -->
<svg xmlns:xlink="http://www.w3.org/1999/xlink" id="Genymotion" image-rendering="optimizeSpeed" baseProfile="basic" version="1.1" style="background-color:#ffffff" x="0px" y="0px" width="1024px" height="1024px" viewBox="0 0 1024 1024" enable-background="new 0 0 1024 1024" xmlns="http://www.w3.org/2000/svg">
  <defs transform="matrix(1 0 0 1 0 0) "/>
  <g id="shadow">
    <g id="shape">
      <path id="path" fill="#000000" fill-opacity="0.09803921568627451" d="M969.65,351.3 Q961.05,330.45 950.25,310.45 C946.2,302.9 941.9,295.4 937.35,288.05 917.8,256.35 893.95,226.4 865.8,198.25 773.65,106.1 662.35,60 532,60 401.65,60 290.4,106.1 198.25,198.25 106.1,290.4 60,401.65 60,532 60,662.35 106.1,773.65 198.25,865.8 290.4,957.95 401.65,1004 532,1004 662.35,1004 773.65,957.95 865.8,865.8 916.55,815 953.35,758.4 976.15,696.05 994.7,645.2 1004,590.55 1004,532 1004,487.1 998.55,444.45 987.6,404.05 986.35,399.5 985.05,394.95 983.7,390.45 979.6,377.15 974.9,364.1 969.65,351.3z"/>
    </g>
  </g>
  <g id="bg">
    <g id="shape2">
      <path id="path1" fill="#DB5C93" fill-opacity="1" d="M929.85,289.65 C927.5,285.3 924.9,280.65 922.2,276.05 901.9,241.55 876.4,208.85 845.85,178.3 773.25,105.7 688.7,61.65 592.2,46.25 575.95,43.65 559.4,41.85 542.15,40.9 532.45,40.35 522.3,40.05 512.05,40.05 502.7,40.05 493.45,40.3 484.15,40.8 365.8,46.9 263.85,92.75 178.3,178.3 157.8,198.8 139.55,220.25 123.6,242.7 108.25,264.25 95.05,286.7 84,309.9 L83.975,309.875 Q40.05,401.873 40.05,512.05 C40.05,642.4 86.15,753.7 178.3,845.85 235,902.5 298.85,941.75 369.4,963.4 384.6,968.05 400,971.9 415.3,974.95 437.9,979.35 460.7,982.1 484.15,983.35 484.3,983.35 484.4,983.35 484.55,983.35 493.05,983.8 501.15,984.05 509.05,984.05 510.25,984.05 511.15,984.05 512.05,984.05 522.35,984.05 532.55,983.75 542.15,983.25 544.65,983.1 546.9,982.95 549.1,982.8 569.3,981.35 589,978.75 607.8,975.1 615.75,973.55 623.6,971.8 631.2,969.95 712,949.65 783.35,908.35 845.85,845.85 894.45,797.25 930.25,743.35 953.2,684.05 971.65,636.4 981.85,585.25 983.75,530.55 983.95,524.5 984.05,518.3 984.05,512.05 984.05,511.4 984.05,510.7 984.05,510.05 984.05,509.7 984.05,509.4 984.05,509.05 983.9,475.4 980.6,443 974.1,411.15 972.8,405 971.35,398.5 969.75,392.05 968.65,387.7 967.4,383.05 966.1,378.45 965.1,375.05 964.1,371.6 962.95,367.95 961.35,362.8 959.55,357.45 957.65,352.1 952.6,337.85 946.8,323.85 940.2,309.95 938.35,306.15 936.45,302.3 934.5,298.45 933.05,295.6 931.55,292.75 929.85,289.65z"/>
    </g>
  </g>
  <g id="bg1">
    <g id="shape4">
      <path id="path2" fill="#000000" fill-opacity="0.2" d="M980.275,575.275 L789.05,384.05 484.675,518.675 393.05,427.05 250.05,593.05 627.775,970.775 L627.8,970.8 C629.2,970.45 630.2,970.2 631.2,969.95 712,949.65 783.35,908.35 845.85,845.85 894.45,797.25 930.25,743.35 953.2,684.05 Q973.239,632.345 980.275,575.275z"/>
    </g>
  </g>
  <g id="bg2">
    <g id="shape6">
      <path id="path3" fill="#F565A2" fill-opacity="1" d="M683.5,690.5 Q748.6,690.5 794.6,644.45 C825.3,613.8 840.65,576.75 840.65,533.35 840.65,489.95 825.3,452.9 794.6,422.2 763.95,391.55 726.9,376.2 683.5,376.2 640.1,376.2 603.05,391.55 572.35,422.2 541.7,452.9 526.35,489.95 526.35,533.35 526.35,576.75 541.7,613.8 572.35,644.45 603.05,675.15 640.1,690.5 683.5,690.5z M344.6,446.1 C320.5,446.1 299.95,454.6 282.9,471.65 265.85,488.7 257.35,509.25 257.35,533.35 257.35,557.45 265.85,578 282.9,595.05 299.95,612.1 320.5,620.6 344.6,620.6 368.7,620.6 389.25,612.1 406.3,595.05 423.35,578 431.85,557.45 431.85,533.35 431.85,509.25 423.35,488.7 406.3,471.65 389.25,454.6 368.7,446.1 344.6,446.1z"/>
      <path id="path4" fill="none" stroke="#FFFFFF" stroke-opacity="1" stroke-width="42.6" stroke-linecap="round" stroke-linejoin="round" d="M683.5,690.5 Q748.6,690.5 794.6,644.45 C825.3,613.8 840.65,576.75 840.65,533.35 840.65,489.95 825.3,452.9 794.6,422.2 763.95,391.55 726.9,376.2 683.5,376.2 640.1,376.2 603.05,391.55 572.35,422.2 541.7,452.9 526.35,489.95 526.35,533.35 526.35,576.75 541.7,613.8 572.35,644.45 603.05,675.15 640.1,690.5 683.5,690.5z"/>
      <path id="path6" fill="none" stroke="#FFFFFF" stroke-opacity="1" stroke-width="42.6" stroke-linecap="round" stroke-linejoin="round" d="M344.6,446.1 C320.5,446.1 299.95,454.6 282.9,471.65 265.85,488.7 257.35,509.25 257.35,533.35 257.35,557.45 265.85,578 282.9,595.05 299.95,612.1 320.5,620.6 344.6,620.6 368.7,620.6 389.25,612.1 406.3,595.05 423.35,578 431.85,557.45 431.85,533.35 431.85,509.25 423.35,488.7 406.3,471.65 389.25,454.6 368.7,446.1 344.6,446.1z"/>
    </g>
  </g>
</svg>