<?xml version="1.0" encoding="utf-8"?>
<!-- Generator: flash2svg, http://dissentgraphics.com/tools/flash2svg -->
<svg xmlns:xlink="http://www.w3.org/1999/xlink" id="PopCornTime" image-rendering="optimizeSpeed" baseProfile="basic" version="1.1" style="background-color:#ffffff" x="0px" y="0px" width="1024px" height="1024px" viewBox="0 0 1024 1024" enable-background="new 0 0 1024 1024" xmlns="http://www.w3.org/2000/svg">
  <defs transform="matrix(1 0 0 1 0 0) "/>
  <g id="shadow">
    <g id="shape">
      <path id="path" fill="#000000" fill-opacity="0.09803921568627451" d="M957.65,339.3 Q949.037,318.427 938.25,298.45 C934.2,290.9 929.9,283.4 925.35,276.05 905.8,244.35 881.95,214.4 853.8,186.25 761.65,94.1 650.35,48 520,48 389.65,48 278.4,94.1 186.25,186.25 94.1,278.4 48,389.65 48,520 48,650.35 94.1,761.65 186.25,853.8 278.4,945.95 389.65,992 520,992 650.35,992 761.65,945.95 853.8,853.8 904.55,803 941.35,746.4 964.15,684.05 982.7,633.2 992,578.55 992,520 992,475.1 986.55,432.45 975.6,392.05 974.35,387.5 973.05,382.95 971.7,378.45 967.6,365.15 962.9,352.1 957.65,339.3z"/>
    </g>
  </g>
  <g id="circle">
    <g id="shape2">
      <path id="path1" fill="#363F6A" fill-opacity="1" d="M969.75,392.05 C968.65,387.7 967.4,383.05 966.1,378.45 963.6,369.7 960.75,360.85 957.65,352.1 951.2,333.85 943.5,316.05 934.5,298.45 930.7,291.05 926.55,283.5 922.2,276.05 L922.175,276.05 Q891.574,224.04 845.85,178.3 C753.7,86.15 642.4,40.05 512.05,40.05 381.7,40.05 270.45,86.15 178.3,178.3 86.15,270.45 40.05,381.7 40.05,512.05 40.05,642.4 86.15,753.7 178.3,845.85 270.45,938 381.7,984.05 512.05,984.05 524.75,984.05 537.25,983.6 549.1,982.8 569.3,981.35 589,978.75 607.8,975.1 615.75,973.55 623.6,971.8 631.2,969.95 712,949.65 783.35,908.35 845.85,845.85 894.45,797.25 930.25,743.35 953.2,684.05 971.65,636.4 981.85,585.25 983.75,530.55 983.95,524.5 984.05,518.3 984.05,512.05 984.05,470.3 979.35,430.45 969.75,392.05z"/>
    </g>
  </g>
  <g id="circle1">
    <g id="shape4">
      <path id="path2" fill="#000000" fill-opacity="0.2" d="M983.75,530.55 C983.95,524.5 984.05,518.3 984.05,512.05 Q984.05,477.438 979.725,444.625 L694.05,158.95 167.425,834.65 L167.45,834.65 C171.15,838.6 174.7,842.25 178.3,845.85 270.45,938 381.7,984.05 512.05,984.05 524.75,984.05 537.25,983.6 549.1,982.8 569.3,981.35 589,978.75 607.8,975.1 615.75,973.55 623.6,971.8 631.2,969.95 712,949.65 783.35,908.35 845.85,845.85 894.45,797.25 930.25,743.35 953.2,684.05 971.65,636.4 981.85,585.25 983.75,530.55z"/>
    </g>
  </g>
  <mask id="ico-shadow">
    <g id="g">
      <g id="shape9">
        <path id="path5" fill="#FFFFFF" fill-opacity="1" d="M969.75,392.05 C968.65,387.7 967.4,383.05 966.1,378.45 963.6,369.7 960.75,360.85 957.65,352.1 951.2,333.85 943.5,316.05 934.5,298.45 930.7,291.05 926.55,283.5 922.2,276.05 L922.175,276.05 Q891.574,224.04 845.85,178.3 C753.7,86.15 642.4,40.05 512.05,40.05 381.7,40.05 270.45,86.15 178.3,178.3 86.15,270.45 40.05,381.7 40.05,512.05 40.05,642.4 86.15,753.7 178.3,845.85 270.45,938 381.7,984.05 512.05,984.05 524.75,984.05 537.25,983.6 549.1,982.8 569.3,981.35 589,978.75 607.8,975.1 615.75,973.55 623.6,971.8 631.2,969.95 712,949.65 783.35,908.35 845.85,845.85 894.45,797.25 930.25,743.35 953.2,684.05 971.65,636.4 981.85,585.25 983.75,530.55 983.95,524.5 984.05,518.3 984.05,512.05 984.05,470.3 979.35,430.45 969.75,392.05z"/>
      </g>
    </g>
  </mask>
  <g id="masked" mask="url(#ico-shadow)">
    <g id="Calque.__203">
      <g id="shape6">
        <path id="path3" fill="#74312A" fill-opacity="1" d="M843.7,455.35 C836.95,449.6 828.8,448.45 819.25,452 809.7,455.55 801.55,462.7 794.8,473.45 789.2,482.35 785.9,491.55 785,501.1 784.8,503.05 784.65,505.1 784.65,507.1 L784.65,937.45 853.85,911.9 853.85,481.5 C853.85,479.5 853.75,477.55 853.55,475.7 852.6,466.9 849.3,460.15 843.7,455.35z"/>
        <path id="path4" fill="#666666" fill-opacity="1" d="M178.9,452.05 C173.3,456.8 170.05,463.5 169.1,472.3 169.25,474.3 169.4,476.3 169.4,478.3 L169.4,908.65 237.35,934.55 237.35,504.2 C237.35,502.2 237.5,500.2 237.7,498.4 236.7,488.85 233.45,479.6 227.85,470.65 221.1,459.85 212.95,452.6 203.35,448.95 193.8,445.35 185.65,446.35 178.9,452.05z"/>
      </g>
    </g>
  </g>
  <g id="Calque.__204">
    <g id="shape11">
      <path id="path6" fill="#F4C89A" fill-opacity="1" d="M754.6,381.1 Q772.4,346.05 772.4,304.2 C772.4,253.9 753.05,210.95 714.3,175.4 675.6,139.85 628.85,122.05 574.1,122.05 519.35,122.05 472.65,139.85 433.9,175.4 397.85,208.55 378.55,248.1 376.1,294.05 358,278.3 336.35,270.4 311.1,270.4 284.85,270.4 262.4,278.9 243.85,295.95 225.3,313 216.05,333.6 216.05,357.75 216.05,381.9 225.3,402.45 243.85,419.5 246.8,422.2 249.8,424.7 252.95,426.95 234.3,444.6 225,465.75 225,490.5 225,515.75 234.7,537.35 254.15,555.2 273.6,573.05 297.1,582 324.6,582 339.75,582 353.65,579.3 366.35,573.85 375.75,592.3 390.65,609 411,624.05 448.85,652.05 494.55,666.05 548.1,666.05 601.65,666.05 647.35,652.05 685.2,624.05 723.05,596.05 742,562.25 742,522.65 742,520.7 741.95,518.8 741.85,516.95 757.95,514.85 772,508.25 784.05,497.15 798.95,483.5 806.4,467 806.4,447.65 806.4,428.3 798.95,411.75 784.05,398.1 775.3,390.05 765.45,384.35 754.6,381.1z"/>
    </g>
  </g>
  <mask id="ico-shadow1">
    <g id="g1">
      <g id="shape13">
        <path id="path7" fill="#FFFFFF" fill-opacity="1" d="M969.75,392.05 C968.65,387.7 967.4,383.05 966.1,378.45 963.6,369.7 960.75,360.85 957.65,352.1 951.2,333.85 943.5,316.05 934.5,298.45 930.7,291.05 926.55,283.5 922.2,276.05 L922.175,276.05 Q891.574,224.04 845.85,178.3 C753.7,86.15 642.4,40.05 512.05,40.05 381.7,40.05 270.45,86.15 178.3,178.3 86.15,270.45 40.05,381.7 40.05,512.05 40.05,642.4 86.15,753.7 178.3,845.85 270.45,938 381.7,984.05 512.05,984.05 524.75,984.05 537.25,983.6 549.1,982.8 569.3,981.35 589,978.75 607.8,975.1 615.75,973.55 623.6,971.8 631.2,969.95 712,949.65 783.35,908.35 845.85,845.85 894.45,797.25 930.25,743.35 953.2,684.05 971.65,636.4 981.85,585.25 983.75,530.55 983.95,524.5 984.05,518.3 984.05,512.05 984.05,470.3 979.35,430.45 969.75,392.05z"/>
      </g>
    </g>
  </mask>
  <g id="masked1" mask="url(#ico-shadow1)">
    <g id="Calque.__205">
      <g id="Symbole.__204_1" overflow="visible">
        <g id="Calque.__211">
          <g id="shape49">
            <path id="path36" fill="#FFFFFF" fill-opacity="1" d="M732.05,558 C732.05,555.85 731.9,553.75 731.7,551.75 730.7,542.3 727.15,535.05 721.15,529.95 713.9,523.75 705.15,522.55 694.9,526.35 684.65,530.15 675.9,537.85 668.65,549.35 662.65,558.95 659.1,568.8 658.1,579 657.9,581.15 657.75,583.35 657.75,585.5 L657.75,1047.5 732.05,1020 732.05,558z M815.9,494.9 C809.9,504.45 806.35,514.3 805.35,524.55 805.15,526.65 805,528.85 805,531 L805,993 879.3,965.55 879.3,503.55 C879.3,501.4 879.15,499.3 878.95,497.3 877.95,487.85 874.4,480.6 868.4,475.45 861.15,469.3 852.4,468.05 842.15,471.85 831.9,475.65 823.15,483.35 815.9,494.9z M573.9,584.4 C566.65,578.2 557.9,577 547.65,580.8 537.4,584.6 528.65,592.3 521.4,603.8 516.35,611.85 513.05,620.1 511.55,628.5 512.25,632.5 512.6,636.3 512.6,640.1 L512.6,1101.2 584.8,1074.45 584.8,612.45 C584.8,610.3 584.65,608.2 584.45,606.25 583.45,596.75 579.9,589.5 573.9,584.4z M375.6,555.9 C369.6,561 366.05,568.2 365.05,577.65 364.85,579.6 364.7,581.75 364.7,583.9 L364.7,1045.9 439,1074.1 439,612.1 C439,609.95 438.85,607.8 438.65,605.65 437.65,595.4 434.1,585.5 428.1,575.9 420.85,564.3 412.1,556.5 401.85,552.6 391.6,548.7 382.85,549.8 375.6,555.9z M254.6,496.6 C244.35,492.7 235.6,493.8 228.35,499.9 222.35,505 218.8,512.2 217.8,521.65 217.6,523.6 217.45,525.75 217.45,527.9 L217.45,989.9 291.75,1018.1 291.75,556.1 C291.75,553.95 291.6,551.8 291.4,549.65 290.4,539.4 286.85,529.5 280.85,519.9 273.6,508.3 264.85,500.5 254.6,496.6z M510.5,1101.95 L511.4,1101.65 510.5,1101.3 510.5,1101.95z"/>
            <path id="path37" fill="#E64D45" fill-opacity="1" d="M731.7,551.75 C731.9,553.75 732.05,555.85 732.05,558 L732.05,1020 805,993 805,531 C805,528.85 805.15,526.65 805.35,524.55 804.3,515.05 800.8,507.8 794.8,502.7 787.55,496.5 778.8,495.3 768.5,499.1 758.25,502.9 749.5,510.6 742.25,522.1 736.25,531.7 732.75,541.55 731.7,551.75z M621.25,553.55 C611,557.35 602.25,565.05 595,576.6 589,586.15 585.5,596 584.45,606.25 584.65,608.2 584.8,610.3 584.8,612.45 L584.8,1074.45 657.75,1047.5 657.75,585.5 C657.75,583.35 657.9,581.15 658.1,579 657.05,569.55 653.55,562.3 647.55,557.15 640.3,551 631.55,549.8 621.25,553.55z M512.6,1102.1 L512.6,1101.2 512.6,640.1 C512.6,636.3 512.25,632.5 511.55,628.5 510.05,620.25 506.75,611.95 501.75,603.9 494.5,592.3 485.75,584.5 475.45,580.6 465.2,576.7 456.45,577.8 449.2,583.9 443.2,589 439.7,596.2 438.65,605.65 438.85,607.8 439,609.95 439,612.1 L439,1074.1 510.5,1101.3 511.4,1101.65 512.6,1102.1z M180.95,468.6 C170.7,464.7 161.95,465.8 154.7,471.9 148.7,477 145.2,484.2 144.15,493.65 144.35,495.8 144.5,497.95 144.5,500.1 L144.5,962.1 217.45,989.9 217.45,527.9 C217.45,525.75 217.6,523.6 217.8,521.65 216.75,511.4 213.25,501.5 207.25,491.9 200,480.3 191.25,472.5 180.95,468.6z M365.05,577.65 C364,567.4 360.5,557.5 354.5,547.9 347.25,536.3 338.5,528.5 328.2,524.6 317.95,520.7 309.2,521.8 301.95,527.9 295.95,533 292.45,540.2 291.4,549.65 291.6,551.8 291.75,553.95 291.75,556.1 L291.75,1018.1 364.7,1045.9 364.7,583.9 C364.7,581.75 364.85,579.6 365.05,577.65z"/>
          </g>
        </g>
        <g id="Calque.__212">
          <g id="shape50">
            <path id="path38" fill="#000000" fill-opacity="0.2980392156862745" d="M742.3,522.1 C736.3,531.7 732.8,541.55 731.75,551.75 730.75,542.3 727.2,535.05 721.2,529.95 713.95,523.75 705.2,522.55 694.95,526.35 684.7,530.15 675.95,537.85 668.7,549.35 662.7,558.95 659.15,568.8 658.15,579 657.1,569.55 653.6,562.3 647.6,557.15 640.35,551 631.6,549.8 621.3,553.55 611.05,557.35 602.3,565.05 595.05,576.6 589.05,586.15 585.55,596 584.5,606.25 583.5,596.75 579.95,589.5 573.95,584.4 566.7,578.2 557.95,577 547.7,580.8 537.45,584.6 528.7,592.3 521.45,603.8 518.3,608.8 515.85,613.85 514.15,618.85 L514.15,618.825 L514.15,1100.65 879.35,965.55 879.35,503.55 C879.35,501.4 879.2,499.3 879,497.3 878,487.85 874.45,480.6 868.45,475.45 861.2,469.3 852.45,468.05 842.2,471.85 Q826.8,477.55 815.95,494.9 C809.95,504.45 806.4,514.3 805.4,524.55 804.35,515.05 800.85,507.8 794.85,502.7 787.6,496.5 778.85,495.3 768.55,499.1 758.3,502.9 749.55,510.6 742.3,522.1z"/>
          </g>
        </g>
      </g>
    </g>
  </g>
  <g id="Calque.__206">
    <g id="shape15">
      <path id="path8" fill="#333333" fill-opacity="1" d="M354.775,386.15 Q354.05,390.2 354.05,394.55 C354.05,406.85 358.4,417.35 367.05,426 375.75,434.7 386.25,439.05 398.55,439.05 410.85,439.05 421.35,434.7 430,426 438.7,417.35 443.05,406.85 443.05,394.55 443.05,391.65 442.8,388.85 442.35,386.15 L442.325,386.15 L354.775,386.15z M466.2,386.15 C465.75,388.7 465.55,391.4 465.55,394.15 465.55,406.45 469.9,416.95 478.55,425.6 487.25,434.3 497.75,438.65 510.05,438.65 522.35,438.65 532.85,434.3 541.5,425.6 550.2,416.95 554.55,406.45 554.55,394.15 554.55,391.4 554.35,388.7 553.9,386.15 L466.2,386.15z"/>
    </g>
  </g>
  <g id="Calque.__207">
    <g id="shape19">
      <path id="path11" fill="#FFFFFF" fill-opacity="1" d="M396.025,386.15 L370.075,386.15 L370.1,386.15 C370.05,386.45 370.05,386.75 370.05,387.1 370.05,390.7 371.3,393.75 373.85,396.3 376.4,398.85 379.45,400.1 383.05,400.1 386.65,400.1 389.7,398.85 392.25,396.3 394.8,393.75 396.05,390.7 396.05,387.1 396.05,386.75 396.05,386.45 396.05,386.15 M483.1,386.15 C483.05,386.45 483.05,386.75 483.05,387.05 483.05,390.65 484.3,393.7 486.85,396.25 489.4,398.8 492.45,400.05 496.05,400.05 499.65,400.05 502.7,398.8 505.25,396.25 507.8,393.7 509.05,390.65 509.05,387.05 509.05,386.75 509.05,386.45 509.05,386.15 L509.025,386.15 L483.075,386.15z"/>
    </g>
  </g>
  <g id="Calque.__208">
    <g id="shape23">
      <path id="path14" fill="#984038" fill-opacity="1" d="M538.05,472.05 Q538.05,468 537.15,464.15 L368,464.15 C367.35,466.7 367.05,469.35 367.05,472.05 367.05,486.15 375.4,498.15 392.1,508.1 408.8,518.05 428.95,523.05 452.55,523.05 476.15,523.05 496.3,518.05 513,508.1 529.7,498.15 538.05,486.15 538.05,472.05z"/>
    </g>
  </g>
</svg>