
<svg xmlns="http://www.w3.org/2000/svg" version="1.1" xmlns:xlink="http://www.w3.org/1999/xlink" preserveAspectRatio="none" x="0px" y="0px" width="1024px" height="1024px" viewBox="0 0 1024 1024">
<defs>
<g id="Layer4_0_FILL">
<path fill="#000000" fill-opacity="0.09803921568627451" stroke="none" d="
M 969.6 351.25
Q 961 330.4 950.2 310.4 944.1 299.05 937.3 288 907.95 240.45 865.75 198.2 727.5 59.95 531.95 59.95 336.45 59.95 198.2 198.2 59.95 336.45 59.95 531.95 59.95 727.5 198.2 865.75 336.45 1003.95 531.95 1003.95 727.5 1003.95 865.75 865.75 941.9 789.55 976.1 696 1003.95 619.75 1003.95 531.95 1003.95 464.6 987.55 404 985.7 397.15 983.65 390.4 977.5 370.45 969.6 351.25 Z"/>
</g>

<g id="Layer3_0_FILL">
<path fill="#2F8BC1" stroke="none" d="
M 969.7 392
Q 967.95 385.15 966.05 378.4 964.52578125 373.114453125 962.85 367.85 960.3787109375 359.903125 957.6 352.05 947.85 324.5 934.45 298.4 928.65 287.05 922.15 276 891.5 224 845.8 178.25 736.8 69.25 592.15 46.2 567.65 42.3 542.1 40.85 527.2 40 512 40 497.9 40 484.1 40.75 306.55 49.95 178.25 178.25 40 316.5 40 512 40 707.55 178.25 845.8 263.0400390625 930.55703125 369.35 963.35 423.8880859375 980.1630859375 484.1 983.3 484.3 983.3 484.5 983.3 496.65 983.9 509 984 510.5 984 512 984 527.25 984 542.1 983.2 545.6 983 549.05 982.75 579.1 980.6 607.75 975.05 619.55 972.75 631.15 969.9 751.75 939.85 845.8 845.8 918.7 772.85 953.15 684 980.9 612.4 983.7 530.5 984 521.3 984 512 984 511 984 510 984 509.5 984 509 983.65 447.7 969.7 392 Z"/>
</g>

<g id="Layer2_0_FILL">
<path fill="#000000" fill-opacity="0.2" stroke="none" d="
M 874 464.55
L 767 529.35 413 489 210.9 587.3 600.05 976.45
Q 603.9234375 975.7912109375 607.75 975.05 619.55 972.75 631.15 969.9 751.75 939.85 845.8 845.8 918.7 772.85 953.15 684 973.886328125 630.4966796875 980.7 571.25
L 874 464.55 Z"/>
</g>

<g id="Layer0_0_FILL">
<path fill="#FFFFFF" stroke="none" d="
M 877.85 469.45
Q 876.55 460.2 863.9 468.2 860.9 470.6 857.15 473.15 836.45 486.55 808.2 487.9 787.9 488.95 762.75 473.25 753 467.2 739.9 457 739.85 456.95 716.35 438.25 685.8 413.85 665.35 403.4 635 387.95 605.95 389.4 584.4 390.4 566.2 398.15 539.6 409.45 511.95 436.9 484.25 409.3 457.75 398.1 439.6 390.4 417.9 389.4 388.85 387.95 358.5 403.4 338.05 413.85 307.5 438.25 299.5 444.6 283.95 457 270.85 467.2 261.15 473.25 235.95 488.95 215.65 487.9 187.2 486.5 166.7 473.15 163 470.6 160 468.2 147.45 460.25 146.15 469.45 145.45 474.5 148.05 483.6 166.5 540.5 201.4 577.65 250.95 630.4 326.7 634.2 390.2 637.45 441.35 611.75 485.25 589.8 511.95 551.5 538.65 589.7 582.5 611.65 633.7 637.3 697.15 634.2 772.9 630.4 822.45 577.65 857.35 540.55 875.8 483.6 878.6 474.85 877.85 469.45 Z"/>
</g>
</defs>

<g transform="matrix( 1, 0, 0, 1, 0,0) ">
<use xlink:href="#Layer4_0_FILL"/>
</g>

<g transform="matrix( 1, 0, 0, 1, 0,0) ">
<use xlink:href="#Layer3_0_FILL"/>
</g>

<g transform="matrix( 1, 0, 0, 1, 0,0) ">
<use xlink:href="#Layer2_0_FILL"/>
</g>

<g transform="matrix( 1, 0, 0, 1, 0,0) ">
<use xlink:href="#Layer0_0_FILL"/>
</g>
</svg>
