<?xml version="1.0" encoding="utf-8"?>
<!-- Generator: flash2svg, http://dissentgraphics.com/tools/flash2svg -->
<svg xmlns:xlink="http://www.w3.org/1999/xlink" id="Apps-Parcel-Delivery-Tracking" image-rendering="optimizeSpeed" baseProfile="basic" version="1.1" style="background-color:#ffffff" x="0px" y="0px" width="1024px" height="1024px" viewBox="0 0 1024 1024" enable-background="new 0 0 1024 1024" xmlns="http://www.w3.org/2000/svg">
  <defs transform="matrix(1 0 0 1 0 0) "/>
  <g id="background-circle-shadow">
    <g id="shape">
      <path id="path" fill="#000000" fill-opacity="0.09803921568627451" d="M969.65,351.3 Q961.05,330.45 950.25,310.45 C946.2,302.9 941.9,295.4 937.35,288.05 917.8,256.35 893.95,226.4 865.8,198.25 773.65,106.1 662.35,60 532,60 401.65,60 290.4,106.1 198.25,198.25 106.1,290.4 60,401.65 60,532 60,662.35 106.1,773.65 198.25,865.8 290.4,957.95 401.65,1004 532,1004 662.35,1004 773.65,957.95 865.8,865.8 916.55,815 953.35,758.4 976.15,696.05 994.7,645.2 1004,590.55 1004,532 1004,487.1 998.55,444.45 987.6,404.05 986.35,399.5 985.05,394.95 983.7,390.45 979.6,377.15 974.9,364.1 969.65,351.3z"/>
    </g>
  </g>
  <g id="background-circle">
    <g id="shape2">
      <path id="path1" fill="#FFEBD8" fill-opacity="1" d="M966.1,378.45 C965.1,375.05 964.1,371.6 962.95,367.95 961.35,362.8 959.55,357.45 957.65,352.1 951.2,333.85 943.5,316.05 934.5,298.45 930.7,291.05 926.55,283.5 922.2,276.05 901.9,241.55 876.4,208.85 845.85,178.3 773.25,105.7 688.7,61.65 592.2,46.25 575.95,43.65 559.4,41.85 542.15,40.9 532.45,40.35 522.3,40.05 512.05,40.05 502.7,40.05 493.45,40.3 484.15,40.8 365.8,46.9 263.85,92.75 178.3,178.3 Q40.05,316.55 40.05,512.05 C40.05,642.4 86.15,753.7 178.3,845.85 235,902.5 298.85,941.75 369.4,963.4 406.15,974.65 444.2,981.25 484.15,983.35 484.3,983.35 484.4,983.35 484.55,983.35 493.05,983.8 501.15,984.05 509.05,984.05 510.25,984.05 511.15,984.05 512.05,984.05 522.35,984.05 532.55,983.75 542.15,983.25 544.65,983.1 546.9,982.95 549.1,982.8 569.3,981.35 589,978.75 607.8,975.1 615.75,973.55 623.6,971.8 631.2,969.95 712,949.65 783.35,908.35 845.85,845.85 894.45,797.25 930.25,743.35 953.2,684.05 971.65,636.4 981.85,585.25 983.75,530.55 983.95,524.5 984.05,518.3 984.05,512.05 984.05,511.4 984.05,510.7 984.05,510.05 984.05,509.7 984.05,509.4 984.05,509.05 983.85,468.4 979.1,429.55 969.75,392.05 968.65,387.7 967.4,383.05 966.1,378.45z"/>
    </g>
  </g>
  <g id="object-shadow">
    <g id="shape4">
      <path id="path2" fill="#000000" fill-opacity="0.09803921568627451" d="M804.3,358.2 L766.15,327.5 269.525,334.075 368.05,432.6 220.275,380.225 226.9,682.7 528.025,983.825 Q535.133,983.628 542.15,983.25 C544.65,983.1 546.9,982.95 549.1,982.8 569.3,981.35 589,978.75 607.8,975.1 615.75,973.55 623.6,971.8 631.2,969.95 712,949.65 783.35,908.35 845.85,845.85 894.45,797.25 930.25,743.35 953.2,684.05 970.85,638.45 980.95,589.65 983.5,537.4 L983.475,537.375 L804.3,358.2z"/>
    </g>
  </g>
  <g id="object">
    <g id="shape6">
      <path id="path3" fill="#DE8654" fill-opacity="1" d="M766.15,334.15 C772,331.9 772,329.75 766.15,327.5 L523.2,235.45 C517.45,233.3 511.7,233.3 505.9,235.45 L262.95,327.5 C257.2,329.75 257.2,331.9 262.95,334.15 L505.9,426.2 C511.7,428.35 517.45,428.35 523.2,426.2 L766.15,334.15z M804.3,358.2 Q804.3,349.5 797.1,352.35 L535.45,454.8 C530.6,456.7 528.25,460.5 528.25,466.3 L528.25,668.525 576.575,649.75 L576.6,649.75 C581.9,647.7 587.15,647.8 592.4,650.15 597.65,652.45 601.3,656.25 603.35,661.6 605.4,666.9 605.3,672.15 603,677.4 600.65,682.65 596.85,686.3 591.55,688.35 L591.525,688.35 L528.25,712.925 528.25,783.75 C528.25,789.55 530.6,791.5 535.45,789.6 L797.1,687.15 C801.9,685.3 804.3,681.4 804.3,675.6 L804.3,358.2z M652.1,509.4 L652.1,438.7 781.95,390.7 781.95,461.4 652.1,509.4z M227,352.35 C222.2,350.45 219.8,352.4 219.8,358.2 L219.8,675.6 C219.8,681.4 222.2,685.3 227,687.15 L488.65,789.6 C493.4,791.5 495.85,789.55 495.85,783.75 L495.85,712.925 432.55,688.35 C427.2,686.25 423.4,682.6 421.1,677.35 418.8,672.1 418.7,666.8 420.8,661.5 422.85,656.2 426.55,652.4 431.8,650.1 437.05,647.8 442.3,647.7 447.55,649.75 L495.85,668.5 495.85,466.3 C495.85,460.5 493.4,456.7 488.65,454.8 L227,352.35z"/>
    </g>
  </g>
</svg>