<?xml version="1.0" encoding="utf-8"?>
<!-- Generator: flash2svg, http://dissentgraphics.com/tools/flash2svg -->
<svg xmlns:xlink="http://www.w3.org/1999/xlink" id="Apps-Photos" image-rendering="optimizeSpeed" baseProfile="basic" version="1.1" style="background-color:#ffffff" x="0px" y="0px" width="1024px" height="1024px" viewBox="0 0 1024 1024" enable-background="new 0 0 1024 1024" xmlns="http://www.w3.org/2000/svg">
  <defs transform="matrix(1 0 0 1 0 0) "/>
  <g id="shadow">
    <g id="shape">
      <path id="path" fill="#000000" fill-opacity="0.09803921568627451" d="M969.65,351.3 Q961.05,330.45 950.25,310.45 C946.2,302.9 941.9,295.4 937.35,288.05 917.8,256.35 893.95,226.4 865.8,198.25 773.65,106.1 662.35,60 532,60 401.65,60 290.4,106.1 198.25,198.25 106.1,290.4 60,401.65 60,532 60,662.35 106.1,773.65 198.25,865.8 290.4,957.95 401.65,1004 532,1004 662.35,1004 773.65,957.95 865.8,865.8 916.55,815 953.35,758.4 976.15,696.05 994.7,645.2 1004,590.55 1004,532 1004,487.1 998.55,444.45 987.6,404.05 986.35,399.5 985.05,394.95 983.7,390.45 979.6,377.15 974.9,364.1 969.65,351.3z"/>
    </g>
  </g>
  <g id="circle">
    <g id="shape2">
      <path id="path1" fill="#363F6A" fill-opacity="1" d="M966.1,378.45 C963.6,369.7 960.75,360.85 957.65,352.1 951.2,333.85 943.5,316.05 934.5,298.45 930.7,291.05 926.55,283.5 922.2,276.05 901.9,241.55 876.4,208.85 845.85,178.3 773.25,105.7 688.7,61.65 592.2,46.25 575.95,43.65 559.4,41.85 542.15,40.9 532.45,40.35 522.3,40.05 512.05,40.05 502.7,40.05 493.45,40.3 484.15,40.8 365.8,46.9 263.85,92.75 178.3,178.3 Q40.05,316.55 40.05,512.05 C40.05,586.35 55.05,654.45 84.85,716.05 L84.825,716.05 L939.3,716.05 C944.35,705.65 949,694.95 953.2,684.05 954.5,680.7 955.75,677.35 957,674 958.4,670.05 959.75,666.1 961.1,662.1 974.6,620.8 982.15,576.95 983.75,530.55 983.95,524.5 984.05,518.3 984.05,512.05 984.05,511.4 984.05,510.7 984.05,510.05 984.05,509.7 984.05,509.4 984.05,509.05 984.05,508.4 984.05,507.7 984.05,507.05 983.7,466.9 978.9,428.55 969.75,392.05 968.65,387.7 967.4,383.05 966.1,378.45z"/>
      <path id="path2" fill="#2B3254" fill-opacity="1" d="M509.05,984.05 C510.25,984.05 511.15,984.05 512.05,984.05 522.35,984.05 532.55,983.75 542.15,983.25 544.65,983.1 546.9,982.95 549.1,982.8 569.3,981.35 589,978.75 607.8,975.1 615.75,973.55 623.6,971.8 631.2,969.95 712,949.65 783.35,908.35 845.85,845.85 885.55,806.15 916.7,762.95 939.3,716.05 L84.825,716.05 L84.85,716.05 C107.6,763.1 138.7,806.25 178.3,845.85 253.55,921.05 341.45,965.55 441.6,979.3 455.8,981.3 469.85,982.6 484.15,983.35 484.3,983.35 484.4,983.35 484.55,983.35 493.05,983.8 501.15,984.05 509.05,984.05z"/>
    </g>
  </g>
  <g id="ico-shadow">
    <g id="shape6">
      <path id="path3" fill="#000000" fill-opacity="0.2" d="M953.2,684.05 C954.5,680.7 955.75,677.35 957,674 L956.975,673.975 L574.05,291.05 447.025,518.025 362.05,433.05 176.4,714.1 441.6,979.3 C455.8,981.3 469.85,982.6 484.15,983.35 484.3,983.35 484.4,983.35 484.55,983.35 493.05,983.8 501.15,984.05 509.05,984.05 Q510.544,984.05 512.05,984.05 C522.35,984.05 532.55,983.75 542.15,983.25 544.65,983.1 546.9,982.95 549.1,982.8 569.3,981.35 589,978.75 607.8,975.1 615.75,973.55 623.6,971.8 631.2,969.95 712,949.65 783.35,908.35 845.85,845.85 894.45,797.25 930.25,743.35 953.2,684.05z"/>
    </g>
  </g>
  <g id="ico">
    <g id="Symbole.__206_1" overflow="visible">
      <g id="Calque.__205">
        <g id="Symbole.__208_2" overflow="visible">
          <g id="Calque.__206">
            <g id="shape28">
              <path id="path25" fill="#FFFFFF" fill-opacity="1" d="M661.04,451.594 L678.673,436.927 580.617,287.344 C578.036,283.388 574.52,280.642 570.015,279.104 567.818,278.335 565.621,277.95 563.423,277.95 L563.423,454.56 612.973,411.657 661.04,451.594z M387.033,418.359 C385.22,415.558 382.748,413.635 379.617,412.591 378.079,412.042 376.541,411.767 375.003,411.767 L375.003,535.202 409.665,505.209 443.23,533.115 455.589,522.842 423.563,474.034 387.033,418.359z"/>
              <path id="path26" fill="#CCCCCC" fill-opacity="1" d="M563.423,277.95 C561.171,277.95 558.864,278.335 556.557,279.104 552.107,280.642 548.536,283.388 545.955,287.344 L447.624,437.311 463.829,451.429 513.764,411.657 563.149,454.78 563.423,454.56 563.423,277.95z M370.223,412.591 C367.092,413.635 364.62,415.558 362.807,418.359 L294.086,523.117 305.402,533.005 340.34,505.209 374.838,535.367 375.003,535.202 375.003,411.767 C373.409,411.767 371.816,412.042 370.223,412.591z"/>
              <path id="path27" fill="#90A2D8" fill-opacity="1" d="M178.232,699.837 C176.254,702.858 175.54,706.209 176.035,709.78 176.529,713.35 178.122,716.317 180.869,718.734 183.56,721.096 186.747,722.304 190.372,722.304 L375.003,722.304 375.003,535.202 374.838,535.367 340.34,505.209 305.402,533.005 294.086,523.117 178.232,699.837z M563.423,454.56 L563.149,454.78 513.764,411.657 463.829,451.429 447.624,437.311 423.563,474.034 455.589,522.842 563.423,687.257 563.423,454.56z"/>
              <path id="path28" fill="#D7DFFB" fill-opacity="1" d="M848.032,704.396 Q849.076,696.706 844.791,690.168 L678.673,436.927 661.04,451.594 612.973,411.657 563.423,454.56 563.423,687.257 455.589,522.842 443.23,533.115 409.665,505.209 375.003,535.202 375.003,722.304 560.072,722.304 C561.226,722.249 562.38,722.085 563.423,721.81 L563.423,722.304 827.487,722.304 C832.651,722.304 837.21,720.601 841.11,717.196 845.011,713.735 847.318,709.505 848.032,704.396z"/>
              <path id="path29" fill="#558F74" fill-opacity="1" d="M563.423,721.81 C562.38,722.085 561.226,722.249 560.072,722.304 L563.423,722.304 563.423,721.81z"/>
            </g>
          </g>
        </g>
      </g>
    </g>
  </g>
  <g id="Calque.__201">
    <g id="shape8">
      <path id="path4" fill="#717DAE" fill-opacity="1" d="M676.45,184.9 C670.45,180.8 663.8,178.8 656.45,178.8 646.55,178.8 638.15,182.25 631.15,189.2 624.25,196.25 620.75,204.65 620.75,214.5 L620.85,217.5 C615.45,220 611.1,223.85 607.8,228.95 604.5,234 602.85,239.65 602.85,245.75 602.85,254.4 605.9,261.75 612,267.9 618.15,274 625.5,277.05 634.1,277.05 L710,277.05 C717.45,277.05 723.75,274.4 729,269.15 734.2,263.95 736.8,257.65 736.8,250.25 736.8,243.95 734.85,238.35 730.95,233.5 727.05,228.65 722.1,225.55 716.1,224.15 718.05,221.25 719,218 719,214.5 719,209.6 717.25,205.4 713.75,201.9 710.25,198.35 706,196.6 701.1,196.6 696.65,196.6 692.75,198.05 689.5,200.95 686.8,194.35 682.45,189 676.45,184.9z M404.6,320.1 C399.75,325 397.3,330.85 397.3,337.75 L397.4,339.85 C393.6,341.55 390.6,344.2 388.3,347.8 386,351.35 384.8,355.25 384.8,359.55 384.8,365.5 386.95,370.65 391.2,374.95 395.5,379.2 400.65,381.35 406.65,381.35 L459.55,381.35 C464.75,381.35 469.15,379.5 472.8,375.8 476.45,372.2 478.25,367.8 478.25,362.65 478.25,358.25 476.9,354.35 474.2,351 471.45,347.6 468,345.45 463.8,344.45 465.15,342.45 465.85,340.2 465.85,337.75 465.85,334.3 464.6,331.35 462.2,328.9 Q458.5,325.25 453.35,325.25 C450.25,325.25 447.55,326.25 445.25,328.25 443.35,323.65 440.35,319.95 436.15,317.1 432,314.25 427.35,312.8 422.25,312.8 415.3,312.8 409.45,315.25 404.6,320.1z M356.45,292 C356.45,283.7 354.3,276 349.95,269.15 345.55,262.2 339.8,256.95 332.7,253.55 L332.8,249.45 C332.8,236.05 328.2,224.6 319.05,215 309.8,205.55 298.7,200.85 285.65,200.85 275.9,200.85 267.15,203.6 259.2,209.15 251.3,214.75 245.55,222.05 241.95,231 237.65,227.05 232.5,225.1 226.65,225.1 220.15,225.1 214.55,227.5 209.9,232.3 205.3,237.1 202.95,242.8 202.95,249.45 202.95,254.25 204.25,258.65 206.8,262.6 198.9,264.5 192.35,268.75 187.2,275.35 182.05,281.95 179.45,289.55 179.45,298.15 179.45,308.25 182.9,316.8 189.75,323.9 196.7,331.05 205,334.65 214.85,334.65 L315.15,334.65 C326.55,334.65 336.25,330.5 344.4,322.2 352.45,313.8 356.45,303.8 356.45,292z"/>
    </g>
  </g>
</svg>