
<svg xmlns="http://www.w3.org/2000/svg" version="1.1" xmlns:xlink="http://www.w3.org/1999/xlink" preserveAspectRatio="none" x="0px" y="0px" width="1024px" height="1024px" viewBox="0 0 1024 1024">
<defs>
<g id="Layer4_0_FILL">
<path fill="#000000" fill-opacity="0.09803921568627451" stroke="none" d="
M 969.6 351.25
Q 961 330.4 950.2 310.4 944.1 299.05 937.3 288 907.95 240.45 865.75 198.2 727.5 59.95 531.95 59.95 336.45 59.95 198.2 198.2 59.95 336.45 59.95 531.95 59.95 727.5 198.2 865.75 336.45 1003.95 531.95 1003.95 727.5 1003.95 865.75 865.75 941.9 789.55 976.1 696 1003.95 619.75 1003.95 531.95 1003.95 464.6 987.55 404 985.7 397.15 983.65 390.4 977.5 370.45 969.6 351.25 Z"/>
</g>

<g id="Layer3_0_FILL">
<path fill="#72E79F" stroke="none" d="
M 969.7 392
Q 967.95 385.15 966.05 378.4 964.52578125 373.114453125 962.85 367.85 960.3787109375 359.903125 957.6 352.05 947.85 324.5 934.45 298.4 928.65 287.05 922.15 276 891.5 224 845.8 178.25 736.8 69.25 592.15 46.2 567.65 42.3 542.1 40.85 527.2 40 512 40 497.9 40 484.1 40.75 306.55 49.95 178.25 178.25 40 316.5 40 512 40 707.55 178.25 845.8 263.0400390625 930.55703125 369.35 963.35 423.8880859375 980.1630859375 484.1 983.3 484.3 983.3 484.5 983.3 496.65 983.9 509 984 510.5 984 512 984 527.25 984 542.1 983.2 545.6 983 549.05 982.75 579.1 980.6 607.75 975.05 619.55 972.75 631.15 969.9 751.75 939.85 845.8 845.8 918.7 772.85 953.15 684 980.9 612.4 983.7 530.5 984 521.3 984 512 984 511 984 510 984 509.5 984 509 983.65 447.7 969.7 392 Z"/>
</g>

<g id="Layer2_0_FILL">
<path fill="#000000" fill-opacity="0.2" stroke="none" d="
M 953.15 684
Q 979.473046875 616.0818359375 983.35 538.9
L 744.1 299.65
Q 149.323828125 141.3416015625 289.2 735.35
L 537.3 983.45
Q 539.6990234375 983.329296875 542.1 983.2 545.6 983 549.05 982.75 579.1 980.6 607.75 975.05 619.55 972.75 631.15 969.9 751.75 939.85 845.8 845.8 918.7 772.85 953.15 684 Z"/>
</g>

<g id="Layer1_0_FILL">
<path fill="#FFFFFF" stroke="none" d="
M 20.55 9.95
Q 22.1 10.85 23.2 12.35
L 23.2 12.4
Q 23.45 12.8 23.9 12.85 24.4 12.95 24.75 12.7 25.1 12.45 25.2 12 25.25 11.55 25.05 11.2 23.6 9 21.3 7.8 18.9 6.6 16.3 6.8 12.7 7.05 10.1 9.65 7.55 12.25 7.35 15.85 7.1 20.05 9.95 23.05 12.8 26 16.95 26 21.35 26 24.2 22.7
L 24 23.85 24 24.9
Q 24 25.9 24.9 26.05 25.35 26.15 25.75 25.85 26.15 25.6 26.2 25.15
L 26.2 18.65 20.2 18.65
Q 19.65 18.65 19.35 19.05 19 19.45 19.1 19.95 19.25 20.85 20.25 20.85
L 21.95 20.85 22.95 20.7
Q 21.75 22.45 19.8 23.25 17.85 24.05 15.55 23.65 13.7 23.35 12.25 22.2 10.75 21 10.1 19.3 8.6 15.4 10.9 12.15 13.1 8.95 16.95 8.95 18.8 8.95 20.55 9.95 Z"/>
</g>
</defs>

<g transform="matrix( 1, 0, 0, 1, 0,0) ">
<use xlink:href="#Layer4_0_FILL"/>
</g>

<g transform="matrix( 1, 0, 0, 1, 0,0) ">
<use xlink:href="#Layer3_0_FILL"/>
</g>

<g transform="matrix( 1, 0, 0, 1, 0,0) ">
<use xlink:href="#Layer2_0_FILL"/>
</g>

<g transform="matrix( 32.658416748046875, 0, 0, 32.658416748046875, -38.6,-21.35) ">
<use xlink:href="#Layer1_0_FILL"/>
</g>
</svg>
