<?xml version="1.0" encoding="utf-8"?>
<!-- Generator: flash2svg, http://dissentgraphics.com/tools/flash2svg -->
<svg id="Apps-Flume" image-rendering="optimizeSpeed" baseProfile="basic" version="1.1" style="background-color:#FFFFFF" x="0px" y="0px" width="1024px" height="1024px" viewBox="0 0 1024 1024" enable-background="new 0 0 1024 1024" xmlns="http://www.w3.org/2000/svg" xmlns:xlink="http://www.w3.org/1999/xlink">
  <defs transform="matrix(1 0 0 1 0 0) "/>
  <g id="background-circle-shadow">
    <g id="shape">
      <path id="path" fill="#000000" fill-opacity="0.09803921568627451" d="M969.6,351.25 Q961,330.4 950.2,310.4 C946.15,302.85 941.85,295.35 937.3,288 917.75,256.3 893.9,226.35 865.75,198.2 773.6,106.05 662.3,59.95 531.95,59.95 401.6,59.95 290.35,106.05 198.2,198.2 106.05,290.35 59.95,401.6 59.95,531.95 59.95,662.3 106.05,773.6 198.2,865.75 290.35,957.9 401.6,1003.95 531.95,1003.95 662.3,1003.95 773.6,957.9 865.75,865.75 916.5,814.95 953.3,758.35 976.1,696 994.65,645.15 1003.95,590.5 1003.95,531.95 1003.95,487.05 998.5,444.4 987.55,404 986.3,399.45 985,394.9 983.65,390.4 979.55,377.1 974.85,364.05 969.6,351.25z"/>
    </g>
  </g>
  <g id="background-circle">
    <g id="shape2">
      <path id="path1" fill="#A73EBB" fill-opacity="1" d="M969.7,392 C968.6,387.65 967.35,383 966.05,378.4 965.05,375 964.05,371.55 962.9,367.9 961.3,362.75 959.5,357.4 957.6,352.05 951.15,333.8 943.45,316 934.45,298.4 930.65,291 926.5,283.45 922.15,276 901.85,241.5 876.35,208.8 845.8,178.25 773.2,105.65 688.65,61.6 592.15,46.2 575.9,43.6 559.35,41.8 542.1,40.85 532.2,40.3 522.2,40 512.1,40 L512.1,510.1 984,510.1 C984,510.05 984,510.05 984,510 984,509.65 984,509.35 984,509 983.8,468.35 979.05,429.5 969.7,392z"/>
      <path id="path2" fill="#E2296B" fill-opacity="1" d="M984,512 C984,511.35 984,510.75 984,510.1 L512.1,510.1 510.1,510.1 510.1,514.15 510.1,984 C510.75,984 511.35,984 512,984 522.3,984 532.5,983.7 542.1,983.2 544.6,983.05 546.85,982.9 549.05,982.75 569.25,981.3 588.95,978.7 607.75,975.05 615.7,973.5 623.55,971.75 631.15,969.9 711.95,949.6 783.3,908.3 845.8,845.8 894.4,797.2 930.2,743.3 953.15,684 971.6,636.35 981.8,585.2 983.7,530.5 983.9,524.45 984,518.25 984,512z"/>
      <path id="path3" fill="#5553C5" fill-opacity="1" d="M512.1,40 C512.05,40 512.05,40 512,40 502.65,40 493.4,40.25 484.1,40.75 365.75,46.85 263.8,92.7 178.25,178.25 Q40,316.5 40,512 C40,512.75 40,513.5 40,514.15 L510.1,514.15 510.1,510.1 512.1,510.1 512.1,40z"/>
      <path id="path4" fill="#EDAE56" fill-opacity="1" d="M510.1,514.15 L40,514.15 C40.5,643.65 86.65,754.2 178.25,845.8 234.95,902.45 298.8,941.7 369.35,963.35 406.1,974.6 444.15,981.2 484.1,983.3 484.25,983.3 484.35,983.3 484.5,983.3 493,983.75 501.1,984 509,984 509.35,984 509.75,984 510.1,984 L510.1,514.15z"/>
    </g>
  </g>
  <g id="object-shadow">
    <g id="shape8">
      <path id="path5" fill="#000000" fill-opacity="0.2" d="M953.15,684 C970.65,638.85 980.7,590.6 983.35,538.9 L744.1,299.65 C341.65,175.3 190,320.55 289.25,735.4 L289.225,735.375 L537.3,983.45 Q539.699,983.329 542.1,983.2 C544.6,983.05 546.85,982.9 549.05,982.75 569.25,981.3 588.95,978.7 607.75,975.05 615.7,973.5 623.55,971.75 631.15,969.9 711.95,949.6 783.3,908.3 845.8,845.8 894.4,797.2 930.2,743.3 953.15,684z"/>
    </g>
  </g>
  <g id="Calque.__201">
    <g id="drawingObject">
      <path id="path6" fill="#FFFFFF" fill-opacity="1" d="M779.623,513.136 C779.623,440.814 778.51,431.913 777.397,404.096 772.947,306.183 719.539,252.776 621.626,248.325 593.81,247.213 584.909,246.1 512.586,246.1 439.151,246.1 430.25,247.213 402.434,248.325 304.521,252.776 251.113,306.183 246.663,404.096 245.55,431.913 244.437,440.814 244.437,513.136 244.437,586.571 245.55,595.472 246.663,623.289 251.113,721.202 304.521,774.609 402.434,779.06 L621.626,779.06 C719.539,774.609 772.947,721.202 777.397,623.289 778.51,595.472 779.623,586.571 779.623,513.136z M729.553,622.176 C726.215,693.386 692.836,727.878 620.513,731.216 L404.659,731.216 C331.224,727.878 297.845,693.386 294.507,621.063 L294.507,406.322 C297.845,333.999 331.224,299.507 404.659,296.169 L620.513,296.169 C692.836,299.507 726.215,333.999 729.553,406.322 L729.553,622.176z M655.006,339.563 Q641.654,339.563 632.753,348.464 622.739,357.365 622.739,370.717 C622.739,388.519 637.203,402.984 655.006,402.984 672.808,402.984 686.16,388.519 686.16,370.717 686.16,352.915 672.808,339.563 655.006,339.563z M649.442,513.136 C649.442,437.476 588.247,376.28 512.586,376.28 435.813,376.28 374.618,437.476 374.618,513.136 374.618,589.909 435.813,651.105 512.586,651.105 588.247,651.105 649.442,589.909 649.442,513.136z M601.598,513.136 C601.598,563.206 561.543,602.148 512.586,602.148 462.517,602.148 423.574,563.206 423.574,513.136 423.574,464.18 462.517,424.124 512.586,424.124 561.543,424.124 601.598,464.18 601.598,513.136z"/>
    </g>
  </g>
</svg>