<?xml version="1.0" encoding="utf-8"?>
<!-- Generator: flash2svg, http://dissentgraphics.com/tools/flash2svg -->
<svg xmlns:xlink="http://www.w3.org/1999/xlink" id="Transmission" image-rendering="optimizeSpeed" baseProfile="basic" version="1.1" style="background-color:#ffffff" x="0px" y="0px" width="1024px" height="1024px" viewBox="0 0 1024 1024" enable-background="new 0 0 1024 1024" xmlns="http://www.w3.org/2000/svg">
  <defs transform="matrix(1 0 0 1 0 0) "/>
  <g id="shadow">
    <g id="shape">
      <path id="path" fill="#000000" fill-opacity="0.09803921568627451" d="M957.65,339.3 Q949.037,318.427 938.25,298.45 C934.2,290.9 929.9,283.4 925.35,276.05 905.8,244.35 881.95,214.4 853.8,186.25 761.65,94.1 650.35,48 520,48 389.65,48 278.4,94.1 186.25,186.25 122.55,249.95 80.8,322.8 61.2,404.65 52.4,441.4 48,479.8 48,520 48,650.35 94.1,761.65 186.25,853.8 278.4,945.95 389.65,992 520,992 650.35,992 761.65,945.95 853.8,853.8 904.55,803 941.35,746.4 964.15,684.05 982.7,633.2 992,578.55 992,520 992,479.85 987.6,441.45 978.85,404.65 977.85,400.6 976.75,396.3 975.6,392.05 974.35,387.5 973.05,382.95 971.7,378.45 967.6,365.15 962.9,352.1 957.65,339.3z"/>
    </g>
  </g>
  <g id="circle">
    <g id="shape2">
      <path id="path1" fill="#333333" fill-opacity="1" d="M969.75,392.05 C968.65,387.7 967.4,383.05 966.1,378.45 963.6,369.7 960.75,360.85 957.65,352.1 951.2,333.85 943.5,316.05 934.5,298.45 930.7,291.05 926.55,283.5 922.2,276.05 L922.175,276.05 Q891.574,224.04 845.85,178.3 C753.7,86.15 642.4,40.05 512.05,40.05 381.7,40.05 270.45,86.15 178.3,178.3 112.45,244.15 70.1,319.75 51.45,404.65 43.8,439.2 40.05,474.85 40.05,512.05 40.05,608.6 65.35,694.7 115.75,770.05 133.6,796.75 154.4,821.95 178.3,845.85 270.45,938 381.7,984.05 512.05,984.05 524.75,984.05 537.25,983.6 549.1,982.8 569.3,981.35 589,978.75 607.8,975.1 615.75,973.55 623.6,971.8 631.2,969.95 712,949.65 783.35,908.35 845.85,845.85 869.85,821.85 890.75,796.5 908.4,770.05 926.7,742.65 941.6,714.05 953.2,684.05 971.65,636.4 981.85,585.25 983.75,530.55 983.95,524.5 984.05,518.3 984.05,512.05 984.05,474.85 980.3,439.2 972.7,404.65 971.8,400.45 970.8,396.25 969.75,392.05z"/>
    </g>
  </g>
  <mask id="circle1">
    <g id="g">
      <g id="shape16">
        <path id="path12" fill="#FFFFFF" fill-opacity="1" d="M969.75,392.05 C968.65,387.7 967.4,383.05 966.1,378.45 963.6,369.7 960.75,360.85 957.65,352.1 951.2,333.85 943.5,316.05 934.5,298.45 930.7,291.05 926.55,283.5 922.2,276.05 L922.175,276.05 Q891.574,224.04 845.85,178.3 C753.7,86.15 642.4,40.05 512.05,40.05 381.7,40.05 270.45,86.15 178.3,178.3 112.45,244.15 70.1,319.75 51.45,404.65 43.8,439.2 40.05,474.85 40.05,512.05 40.05,608.6 65.35,694.7 115.75,770.05 133.6,796.75 154.4,821.95 178.3,845.85 270.45,938 381.7,984.05 512.05,984.05 524.75,984.05 537.25,983.6 549.1,982.8 569.3,981.35 589,978.75 607.8,975.1 615.75,973.55 623.6,971.8 631.2,969.95 712,949.65 783.35,908.35 845.85,845.85 869.85,821.85 890.75,796.5 908.4,770.05 926.7,742.65 941.6,714.05 953.2,684.05 971.65,636.4 981.85,585.25 983.75,530.55 983.95,524.5 984.05,518.3 984.05,512.05 984.05,474.85 980.3,439.2 972.7,404.65 971.8,400.45 970.8,396.25 969.75,392.05z"/>
      </g>
    </g>
  </mask>
  <g id="masked" mask="url(#circle1)">
    <g id="Livello.__201">
      <g id="shape4">
        <path id="path2" fill="#888888" fill-opacity="1" d="M248.7,676.4 L248.7,657.55 C248.7,631.85 235.9,619.05 210.2,619.05 L-63.45,619.05 Q-101.95,619.05 -101.95,657.55 L-101.95,824.95 236.35,824.95 180.65,769.25 275.3,676.4 248.7,676.4z M416,996.25 L411.75,992.25 272.55,861.1 -101.95,861.1 -101.95,1078.1 C-101.95,1103.7 -89.15,1116.55 -63.45,1116.55 L411.75,997.325 416,996.25z"/>
        <path id="path3" fill="#717171" fill-opacity="1" d="M275.3,676.4 L180.65,769.25 236.35,824.95 411.75,824.95 411.75,714.85 C411.75,689.25 398.95,676.4 373.3,676.4 L275.3,676.4z M411.75,992.25 L411.75,861.1 272.55,861.1 411.75,992.25z M406.5,1111.2 C410.05,1107.7 411.75,1103.45 411.75,1098.45 L411.75,1019.175 393.7,1116.55 C398.7,1116.55 403,1114.75 406.5,1111.2z"/>
        <path id="path4" fill="#333333" fill-opacity="1" d="M411.75,861.1 L411.75,824.95 236.35,824.95 272.55,861.1 411.75,861.1z"/>
        <path id="path5" fill="#545454" fill-opacity="1" d="M272.55,861.1 L236.35,824.95 -101.95,824.95 -101.95,861.1 272.55,861.1z"/>
      </g>
    </g>
  </g>
  <g id="Calque.__201">
    <g id="shape18">
      <path id="path13" fill="#545454" fill-opacity="1" d="M410.55,642.05 C424.7,627.95 304.05,507.25 289.9,521.4 L162.75,648.6 Q141.45,669.8 141.45,699.85 C141.45,719.95 148.6,737.05 162.7,751.25 L180.65,769.25 C194.85,783.45 212,790.55 232.05,790.45 252.05,790.55 269.2,783.45 283.35,769.25 L410.55,642.05z M234.25,651.4 C247.1,651.4 258.05,655.95 267.05,664.95 276.1,674 280.65,685 280.65,697.8 280.65,710.55 276.1,721.55 267.05,730.55 258.05,739.65 247.1,744.15 234.25,744.15 221.5,744.15 210.55,739.65 201.5,730.55 192.5,721.55 187.95,710.55 187.95,697.8 187.95,685 192.5,674 201.5,664.95 210.55,655.95 221.5,651.4 234.25,651.4z"/>
      <path id="path14" fill="#333333" fill-opacity="1" d="M234.25,651.4 C221.5,651.4 210.55,655.95 201.5,664.95 192.5,674 187.95,685 187.95,697.8 187.95,710.55 192.5,721.55 201.5,730.55 210.55,739.65 221.5,744.15 234.25,744.15 247.1,744.15 258.05,739.65 267.05,730.55 276.1,721.55 280.65,710.55 280.65,697.8 280.65,685 276.1,674 267.05,664.95 258.05,655.95 247.1,651.4 234.25,651.4z"/>
    </g>
  </g>
  <g id="Calque.__202">
    <g id="shape23">
      <path id="path17" fill="#CCCCCC" fill-opacity="1" d="M528.95,392.05 C521.45,384.45 512.35,380.7 501.8,380.7 Q485.9,380.65 474.5,391.9 L344.05,522.35 C336.6,529.9 332.85,538.95 332.85,549.55 332.8,560.1 336.55,569.2 344.05,576.75 351.6,584.3 360.65,588.05 371.25,588.1 381.8,588.1 390.95,584.35 398.5,576.9 L528.95,446.45 C536.4,438.85 540.2,429.75 540.25,419.2 540.25,408.65 536.5,399.55 528.95,392.05z"/>
    </g>
  </g>
  <g id="Calque.__203">
    <g id="shape25">
      <path id="path18" fill="#999999" fill-opacity="1" d="M242.85,267.25 C229.65,267.25 218.4,271.9 209.1,281.3 199.7,290.6 195.05,301.9 195.05,315.1 195.15,375.75 207.05,431.55 230.75,482.5 249.9,523.85 276.95,562 311.75,596.8 L311.75,596.75 C388.7,673.8 481.45,712.7 589.9,713.5 603.1,713.55 614.4,708.95 623.85,699.7 633.2,690.35 638,679.15 638.1,666 638.15,652.8 633.55,641.55 624.3,632.15 615,622.75 603.75,617.95 590.65,617.85 508.25,617.2 437.85,587.65 379.4,529.2 352.85,502.6 332.2,473.6 317.45,442.15 L317.5,442.2 C299.5,403.55 290.55,361.2 290.7,315.1 Q290.7,295.25 276.7,281.3 C267.35,271.9 256.05,267.25 242.85,267.25z"/>
    </g>
  </g>
  <g id="Calque.__204">
    <g id="shape27">
      <path id="path19" fill="#FFFFFF" fill-opacity="1" d="M698.2,113.95 Q696.6,112.75 695.05,111.7 C690.35,108.2 685.15,106.9 679.45,107.75 673.8,108.65 669.25,111.4 665.8,116.05 662.3,120.7 660.95,125.9 661.8,131.6 662.7,137.3 665.45,141.9 670.15,145.35 671.05,146 671.95,146.7 672.85,147.4 L672.9,147.5 C731.9,191.9 766.4,250.5 776.5,323.15 777.25,328.8 780,333.4 784.6,336.95 789.2,340.45 794.4,341.85 800.15,341 805.85,340.2 810.45,337.55 813.9,332.95 817.45,328.3 818.9,323.1 818.1,317.4 806.45,233.25 766.5,165.4 698.3,114 698.2,114 698.2,114 698.2,113.95z M710.6,378.25 C715.25,381.75 720.45,383.1 726.15,382.25 731.85,381.45 736.45,378.8 739.95,374.2 743.45,369.55 744.85,364.35 744.05,358.6 734.1,286.8 700.2,228.9 642.35,184.85 641.7,184.35 640.95,183.8 640.25,183.3 635.55,179.9 630.35,178.65 624.6,179.55 618.95,180.45 614.4,183.25 611,188 607.6,192.7 606.35,197.9 607.25,203.55 608.15,209.25 610.95,213.85 615.65,217.25 616.05,217.55 616.55,217.9 616.95,218.25 665.55,255.2 694.1,303.9 702.5,364.4 703.3,370.05 706,374.75 710.6,378.25z M658.85,422.65 C664.6,421.9 669.2,419.2 672.7,414.6 676.25,409.9 677.55,404.7 676.8,399.05 668.35,338.45 639.75,289.55 591,252.4 590.4,252 589.8,251.5 589.2,251 584.6,247.5 579.45,246.2 573.75,247 568,247.75 563.35,250.45 559.85,255 556.3,259.7 554.95,264.9 555.75,270.55 556.5,276.3 559.15,280.9 563.85,284.4 564.35,284.8 564.95,285.3 565.5,285.75 605.1,315.9 628.35,355.55 635.3,404.8 636.05,410.5 638.8,415.1 643.4,418.65 648,422.2 653.15,423.5 658.85,422.65z"/>
      <path id="path24" fill="#FF5A4F" fill-opacity="1" d="M573.8,349 C560.65,335.85 544.8,329.3 526.2,329.3 507.65,329.3 491.75,335.85 478.55,349 465.45,362.2 458.85,378 458.85,396.6 458.85,415.15 465.45,431.05 478.55,444.2 487.95,453.6 498.75,459.6 510.95,462.3 515.75,463.4 520.9,463.9 526.2,463.9 531.55,463.9 536.65,463.4 541.5,462.3 553.6,459.6 564.4,453.6 573.8,444.2 586.95,431.05 593.5,415.15 593.5,396.6 593.5,378 586.95,362.2 573.8,349z"/>
    </g>
  </g>
</svg>