<?xml version="1.0" encoding="utf-8"?>
<!-- Generator: flash2svg, http://dissentgraphics.com/tools/flash2svg -->
<svg xmlns:xlink="http://www.w3.org/1999/xlink" id="Apps-AmazonMusic" image-rendering="optimizeSpeed" baseProfile="basic" version="1.1" style="background-color:#ffffff" x="0px" y="0px" width="1024px" height="1024px" viewBox="0 0 1024 1024" enable-background="new 0 0 1024 1024" xmlns="http://www.w3.org/2000/svg">
  <defs transform="matrix(1 0 0 1 0 0) "/>
  <g id="shadow">
    <g id="shape">
      <path id="path" fill="#000000" fill-opacity="0.09803921568627451" d="M965.65,350.3 Q957.05,329.45 946.25,309.45 C942.2,301.9 937.9,294.4 933.35,287.05 913.8,255.35 889.95,225.4 861.8,197.25 769.65,105.1 658.35,59 528,59 397.65,59 286.4,105.1 194.25,197.25 102.1,289.4 56,400.65 56,531 56,661.35 102.1,772.65 194.25,864.8 286.4,956.95 397.65,1003 528,1003 658.35,1003 769.65,956.95 861.8,864.8 912.55,814 949.35,757.4 972.15,695.05 990.7,644.2 1000,589.55 1000,531 1000,486.1 994.55,443.45 983.6,403.05 982.35,398.5 981.05,393.95 979.7,389.45 975.6,376.15 970.9,363.1 965.65,350.3z"/>
    </g>
  </g>
  <g id="circle">
    <g id="shape2">
      <path id="path1" fill="#F0F0F0" fill-opacity="1" d="M969.75,392.05 C968.65,387.7 967.4,383.05 966.1,378.45 963.6,369.7 960.75,360.85 957.65,352.1 951.2,333.85 943.5,316.05 934.5,298.45 930.7,291.05 926.55,283.5 922.2,276.05 L922.175,276.05 Q891.574,224.04 845.85,178.3 C753.7,86.15 642.5,40.1 512.15,40.05 512.1,40.05 512.1,40.05 512.05,40.05 381.7,40.05 270.45,86.15 178.3,178.3 86.15,270.45 40.05,381.7 40.05,512.05 40.05,512.1 40.05,512.15 40.05,512.2 40.1,642.5 86.15,753.7 178.3,845.85 246.35,913.9 324.8,956.8 413.2,974.5 445.15,980.9 477.95,984.05 512.05,984.05 512.8,984.05 513.55,984.05 514.15,984.05 643.7,983.55 754.25,937.45 845.85,845.85 894.45,797.25 930.25,743.35 953.2,684.05 970.2,640.1 980.2,593.25 983.15,543.3 983.7,533.8 984.05,524.15 984.05,514.2 984.05,513.55 984.05,512.8 984.05,512.05 984.05,470.3 979.35,430.45 969.75,392.05z"/>
    </g>
  </g>
  <g id="inner-circle">
    <g id="shape4">
      <path id="path2" fill="#FC8000" fill-opacity="1" d="M799.3,260.65 Q790.95,251.25 781.9,242.2 C707.4,167.7 617.45,130.45 512.05,130.45 406.65,130.45 316.7,167.7 242.2,242.2 167.7,316.7 130.45,406.65 130.45,512.05 130.45,617.45 167.7,707.4 242.2,781.9 316.7,856.4 406.65,893.65 512.05,893.65 553.5,893.65 592.55,887.9 629.2,876.4 685.8,858.6 736.7,827.1 781.9,781.9 808.75,755.05 830.75,726.15 847.95,695.3 878.4,640.55 893.65,579.45 893.65,512.05 893.65,501 893.25,490.1 892.4,479.35 891.55,467.9 890.2,456.6 888.35,445.55 884.9,424.4 879.7,403.95 872.8,384.2 857.15,339.35 832.65,298.2 799.3,260.65z"/>
    </g>
  </g>
  <mask id="inner-circle1">
    <g id="g">
      <g id="shape24">
        <path id="path20" fill="#FFFFFF" fill-opacity="1" d="M799.3,260.65 Q790.95,251.25 781.9,242.2 C707.4,167.7 617.45,130.45 512.05,130.45 406.65,130.45 316.7,167.7 242.2,242.2 167.7,316.7 130.45,406.65 130.45,512.05 130.45,617.45 167.7,707.4 242.2,781.9 316.7,856.4 406.65,893.65 512.05,893.65 553.5,893.65 592.55,887.9 629.2,876.4 685.8,858.6 736.7,827.1 781.9,781.9 808.75,755.05 830.75,726.15 847.95,695.3 878.4,640.55 893.65,579.45 893.65,512.05 893.65,501 893.25,490.1 892.4,479.35 891.55,467.9 890.2,456.6 888.35,445.55 884.9,424.4 879.7,403.95 872.8,384.2 857.15,339.35 832.65,298.2 799.3,260.65z"/>
      </g>
    </g>
  </mask>
  <g id="masked" mask="url(#inner-circle1)">
    <g id="Calque.__201">
      <g id="shape6">
        <path id="path3" fill="#FCCF3A" fill-opacity="1" d="M402.55,727.05 L402.55,778.05 C402.55,784.7 405.9,788.05 412.55,788.05 L606.55,788.05 C613.2,788.05 616.55,784.7 616.55,778.05 L616.55,727.05 C616.55,720.4 613.2,717.05 606.55,717.05 L412.55,717.05 C405.9,717.05 402.55,720.4 402.55,727.05z M616.55,872.05 L616.55,821.05 C616.55,814.4 613.2,811.05 606.55,811.05 L412.55,811.05 C405.9,811.05 402.55,814.4 402.55,821.05 L402.55,872.05 C402.55,878.7 405.9,882.05 412.55,882.05 L606.55,882.05 C613.2,882.05 616.55,878.7 616.55,872.05z M855.05,684.05 L855.05,633.05 C855.05,626.4 851.7,623.05 845.05,623.05 L651.05,623.05 C644.4,623.05 641.05,626.4 641.05,633.05 L641.05,684.05 C641.05,690.7 644.4,694.05 651.05,694.05 L845.05,694.05 C851.7,694.05 855.05,690.7 855.05,684.05z M855.05,778.05 L855.05,727.05 C855.05,720.4 851.7,717.05 845.05,717.05 L651.05,717.05 C644.4,717.05 641.05,720.4 641.05,727.05 L641.05,778.05 C641.05,784.7 644.4,788.05 651.05,788.05 L845.05,788.05 C851.7,788.05 855.05,784.7 855.05,778.05z M641.05,821.05 L641.05,872.05 C641.05,878.7 644.4,882.05 651.05,882.05 L845.05,882.05 C851.7,882.05 855.05,878.7 855.05,872.05 L855.05,821.05 C855.05,814.4 851.7,811.05 845.05,811.05 L651.05,811.05 C644.4,811.05 641.05,814.4 641.05,821.05z M174.05,529.05 C167.4,529.05 164.05,532.4 164.05,539.05 L164.05,590.05 C164.05,596.7 167.4,600.05 174.05,600.05 L368.05,600.05 C374.7,600.05 378.05,596.7 378.05,590.05 L378.05,539.05 C378.05,532.4 374.7,529.05 368.05,529.05 L174.05,529.05z M174.05,623.05 C167.4,623.05 164.05,626.4 164.05,633.05 L164.05,684.05 C164.05,690.7 167.4,694.05 174.05,694.05 L368.05,694.05 C374.7,694.05 378.05,690.7 378.05,684.05 L378.05,633.05 C378.05,626.4 374.7,623.05 368.05,623.05 L174.05,623.05z M174.05,717.05 C167.4,717.05 164.05,720.4 164.05,727.05 L164.05,778.05 C164.05,784.7 167.4,788.05 174.05,788.05 L368.05,788.05 C374.7,788.05 378.05,784.7 378.05,778.05 L378.05,727.05 C378.05,720.4 374.7,717.05 368.05,717.05 L174.05,717.05z M378.05,821.05 C378.05,814.4 374.7,811.05 368.05,811.05 L174.05,811.05 C167.4,811.05 164.05,814.4 164.05,821.05 L164.05,872.05 C164.05,878.7 167.4,882.05 174.05,882.05 L368.05,882.05 C374.7,882.05 378.05,878.7 378.05,872.05 L378.05,821.05z"/>
      </g>
    </g>
  </g>
  <g id="ico-shadow">
    <g id="shape26">
      <path id="path21" fill="#000000" fill-opacity="0.2" d="M846.1,697.35 Q866.55,660.65 877.65,620.05 L612.75,355.15 462.9,367.6 409.85,410.4 451.15,451.7 423.35,604.75 502.85,684.3 363.8,660.5 588.4,885.05 C603.75,882.3 618.3,878.7 632.45,874.25 687.95,856.7 737.55,826 781.6,781.95 807.85,755.75 829.3,727.55 846.1,697.35z"/>
    </g>
  </g>
  <g id="Layer.__201">
    <g id="shape28">
      <path id="path22" fill="#FFFFFF" fill-opacity="1" d="M508.7,373 C519.15,373 531.05,376.85 537.2,386.2 544.45,396.65 543.45,411 543.45,423.05 L543.45,429.65 C514,433.05 475.35,435.15 447.85,447.35 415.95,461.05 393.6,489.05 393.6,530.3 393.6,583.1 426.9,609.5 469.75,609.5 505.8,609.5 525.6,600.95 553.45,572.6 562.8,586 565.7,592.4 582.6,606.45 Q585.65,608.05 588.85,607.9 592.25,607.55 594.65,605.3 L594.8,605.45 C604.95,596.45 623.3,580.35 633.8,571.65 637.8,568.25 637.15,562.8 633.95,558.15 624.6,545.25 614.8,534.95 614.8,511.1 L614.8,431.9 C614.8,398.25 617.05,367.5 592.4,344.5 572.95,325.65 540.55,319.05 515.8,319.05 467.5,319.05 413.55,337.1 402.1,397 401,403.25 405.65,406.65 409.85,407.6 L458.95,412.9 C463.6,412.6 467,408.1 467.8,403.6 472.15,383 489.4,373 508.7,373z M543.45,481.35 C543.45,501.15 543.8,517.7 533.95,535.25 525.75,549.6 513.05,558.45 498.7,558.45 479.25,558.45 467.8,543.5 467.8,521.6 467.8,478.3 506.6,470.4 543.45,470.4 L543.45,481.35z M657.6,648.95 C664.2,642.8 658.55,633.65 651.8,637.35 607.7,661 559.75,672.25 515.95,672.25 451.2,672.25 388.45,649.9 337.75,612.7 333.2,609.5 330,615.3 333.7,619.45 380.7,672.9 442.85,705.1 511.75,705.1 561,705.1 618.15,685.65 657.6,648.95z M667.6,675.35 C689.15,657.3 694.8,619.45 690.3,614.15 685.95,608.7 648.25,604 625.4,620.1 621.85,622.7 622.35,626.05 626.4,625.6 639.25,624.15 668.05,620.6 673.2,627.2 678.35,633.8 667.45,660.85 662.6,672.9 661.15,676.6 664.35,678.05 667.6,675.35z"/>
    </g>
  </g>
</svg>