<?xml version="1.0" encoding="utf-8"?>
<!-- Generator: flash2svg, http://dissentgraphics.com/tools/flash2svg -->
<svg xmlns:xlink="http://www.w3.org/1999/xlink" id="Mission-Control" image-rendering="optimizeSpeed" baseProfile="basic" version="1.1" style="background-color:#ffffff" x="0px" y="0px" width="1024px" height="1024px" viewBox="0 0 1024 1024" enable-background="new 0 0 1024 1024" xmlns="http://www.w3.org/2000/svg">
  <defs transform="matrix(1 0 0 1 0 0) "/>
  <g id="shadow">
    <g id="shape">
      <path id="path" fill="#000000" fill-opacity="0.09803921568627451" d="M969.65,351.3 Q961.05,330.45 950.25,310.45 C946.2,302.9 941.9,295.4 937.35,288.05 917.8,256.35 893.95,226.4 865.8,198.25 773.65,106.1 662.35,60 532,60 401.65,60 290.4,106.1 198.25,198.25 106.1,290.4 60,401.65 60,532 60,662.35 106.1,773.65 198.25,865.8 290.4,957.95 401.65,1004 532,1004 662.35,1004 773.65,957.95 865.8,865.8 916.55,815 953.35,758.4 976.15,696.05 994.7,645.2 1004,590.55 1004,532 1004,487.1 998.55,444.45 987.6,404.05 986.35,399.5 985.05,394.95 983.7,390.45 979.6,377.15 974.9,364.1 969.65,351.3z"/>
    </g>
  </g>
  <g id="bg">
    <g id="shape2">
      <path id="path1" fill="#363F6A" fill-opacity="1" d="M969.75,392.05 C968.65,387.7 967.4,383.05 966.1,378.45 965.1,375.05 964.1,371.6 962.95,367.95 961.35,362.8 959.55,357.45 957.65,352.1 951.2,333.85 943.5,316.05 934.5,298.45 930.7,291.05 926.55,283.5 922.2,276.05 901.9,241.55 876.4,208.85 845.85,178.3 773.25,105.7 688.7,61.65 592.2,46.25 575.95,43.65 559.4,41.85 542.15,40.9 532.45,40.35 522.3,40.05 512.05,40.05 502.7,40.05 493.45,40.3 484.15,40.8 365.8,46.9 263.85,92.75 178.3,178.3 Q40.05,316.55 40.05,512.05 C40.05,642.4 86.15,753.7 178.3,845.85 235,902.5 298.85,941.75 369.4,963.4 406.15,974.65 444.2,981.25 484.15,983.35 484.3,983.35 484.4,983.35 484.55,983.35 493.05,983.8 501.15,984.05 509.05,984.05 510.25,984.05 511.15,984.05 512.05,984.05 522.35,984.05 532.55,983.75 542.15,983.25 544.65,983.1 546.9,982.95 549.1,982.8 569.3,981.35 589,978.75 607.8,975.1 615.75,973.55 623.6,971.8 631.2,969.95 712,949.65 783.35,908.35 845.85,845.85 894.45,797.25 930.25,743.35 953.2,684.05 971.65,636.4 981.85,585.25 983.75,530.55 983.95,524.5 984.05,518.3 984.05,512.05 984.05,511.4 984.05,510.7 984.05,510.05 984.05,509.7 984.05,509.4 984.05,509.05 983.85,468.4 979.1,429.55 969.75,392.05z"/>
    </g>
  </g>
  <g id="bg1">
    <g id="shape4">
      <path id="path2" fill="#000000" fill-opacity="0.2" d="M984.05,510.05 C984.05,509.7 984.05,509.4 984.05,509.05 983.95,492.2 983.1,475.6 981.45,459.25 L981.425,459.225 L909.775,387.575 110.6,677.9 405.625,972.925 L405.65,972.95 C431.45,978.55 457.4,981.95 484.15,983.35 484.3,983.35 484.4,983.35 484.55,983.35 493.05,983.8 501.15,984.05 509.05,984.05 Q510.55,984.05 512.05,984.05 C522.35,984.05 532.55,983.75 542.15,983.25 544.65,983.1 546.9,982.95 549.1,982.8 569.3,981.35 589,978.75 607.8,975.1 615.75,973.55 623.6,971.8 631.2,969.95 712,949.65 783.35,908.35 845.85,845.85 894.45,797.25 930.25,743.35 953.2,684.05 971.65,636.4 981.85,585.25 983.75,530.55 983.95,524.5 984.05,518.3 984.05,512.05 984.05,511.4 984.05,510.7 984.05,510.05z"/>
    </g>
  </g>
  <g id="Calque.__203">
    <g id="shape6">
      <path id="path3" fill="#FFFFFF" fill-opacity="1" d="M489.8,386.45 C489.8,378.9 486.05,375.1 478.5,375.1 L121.9,375.1 C114.35,375.1 110.6,378.9 110.6,386.45 L110.6,414.8 451.2,414.8 489.8,414.8 489.8,386.45z M128.2,387.6 C130.05,385.75 132.35,384.85 134.95,384.85 137.6,384.85 139.85,385.75 141.7,387.6 143.6,389.5 144.5,391.7 144.5,394.4 144.5,397.05 143.6,399.25 141.7,401.15 139.85,403 137.6,403.95 134.95,403.95 132.35,403.95 130.05,403 128.2,401.15 126.3,399.25 125.4,397.05 125.4,394.4 125.4,391.7 126.3,389.5 128.2,387.6z M158.1,387.6 C160,385.75 162.2,384.85 164.85,384.85 167.55,384.85 169.75,385.75 171.65,387.6 173.5,389.5 174.4,391.7 174.4,394.4 174.4,397.05 173.5,399.25 171.65,401.15 169.75,403 167.55,403.95 164.85,403.95 162.2,403.95 160,403 158.1,401.15 156.25,399.25 155.3,397.05 155.3,394.4 155.3,391.7 156.25,389.5 158.1,387.6z M188,387.6 C189.85,385.75 192.15,384.85 194.75,384.85 197.4,384.85 199.65,385.75 201.5,387.6 Q204.3,390.4 204.3,394.4 C204.3,397.05 203.4,399.25 201.5,401.15 199.65,403 197.4,403.95 194.75,403.95 192.15,403.95 189.85,403 188,401.15 186.1,399.25 185.2,397.05 185.2,394.4 185.2,391.7 186.1,389.5 188,387.6z"/>
      <path id="path4" fill="#999999" fill-opacity="1" d="M128.2,387.6 C126.3,389.5 125.4,391.7 125.4,394.4 125.4,397.05 126.3,399.25 128.2,401.15 130.05,403 132.35,403.95 134.95,403.95 137.6,403.95 139.85,403 141.7,401.15 143.6,399.25 144.5,397.05 144.5,394.4 144.5,391.7 143.6,389.5 141.7,387.6 139.85,385.75 137.6,384.85 134.95,384.85 132.35,384.85 130.05,385.75 128.2,387.6z"/>
      <path id="path7" fill="#999999" fill-opacity="1" d="M158.1,387.6 C156.25,389.5 155.3,391.7 155.3,394.4 155.3,397.05 156.25,399.25 158.1,401.15 160,403 162.2,403.95 164.85,403.95 167.55,403.95 169.75,403 171.65,401.15 173.5,399.25 174.4,397.05 174.4,394.4 174.4,391.7 173.5,389.5 171.65,387.6 169.75,385.75 167.55,384.85 164.85,384.85 162.2,384.85 160,385.75 158.1,387.6z"/>
      <path id="path10" fill="#999999" fill-opacity="1" d="M188,387.6 C186.1,389.5 185.2,391.7 185.2,394.4 185.2,397.05 186.1,399.25 188,401.15 189.85,403 192.15,403.95 194.75,403.95 197.4,403.95 199.65,403 201.5,401.15 203.4,399.25 204.3,397.05 204.3,394.4 Q204.3,390.4 201.5,387.6 C199.65,385.75 197.4,384.85 194.75,384.85 192.15,384.85 189.85,385.75 188,387.6z"/>
      <path id="path13" fill="#D28199" fill-opacity="1" d="M110.6,677.9 C110.6,685.45 114.35,689.25 121.9,689.25 L451.2,689.25 451.2,414.8 110.6,414.8 110.6,677.9z"/>
      <path id="path14" fill="#EFF08A" fill-opacity="1" d="M451.2,689.25 L478.5,689.25 C486.05,689.25 489.8,685.45 489.8,677.9 L489.8,414.8 451.2,414.8 451.2,689.25z"/>
    </g>
  </g>
  <g id="Calque.__204">
    <g id="shape20">
      <path id="path15" fill="#FFFFFF" fill-opacity="1" d="M593.5,395.55 L593.5,363.05 C593.5,354.4 589.2,350.05 580.55,350.05 L171.65,350.05 C163,350.05 158.7,354.4 158.7,363.05 L158.7,395.55 593.5,395.55z M197.6,372.15 C197.6,375.2 196.55,377.75 194.4,379.9 192.25,382.05 189.7,383.1 186.65,383.1 183.65,383.1 181.05,382.05 178.9,379.9 176.75,377.75 175.7,375.2 175.7,372.15 175.7,369.1 176.75,366.55 178.9,364.4 181.05,362.25 183.65,361.2 186.65,361.2 189.7,361.2 192.25,362.25 194.4,364.4 196.55,366.55 197.6,369.1 197.6,372.15z M231.9,372.15 C231.9,375.2 230.85,377.75 228.7,379.9 226.55,382.05 224,383.1 220.95,383.1 217.9,383.1 215.35,382.05 213.2,379.9 211.05,377.75 210,375.2 210,372.15 210,369.1 211.05,366.55 213.2,364.4 215.35,362.25 217.9,361.2 220.95,361.2 224,361.2 226.55,362.25 228.7,364.4 230.85,366.55 231.9,369.1 231.9,372.15z M266.15,372.15 C266.15,375.2 265.1,377.75 262.95,379.9 260.8,382.05 258.25,383.1 255.2,383.1 252.2,383.1 249.6,382.05 247.45,379.9 245.3,377.75 244.25,375.2 244.25,372.15 244.25,369.1 245.3,366.55 247.45,364.4 249.6,362.25 252.2,361.2 255.2,361.2 258.25,361.2 260.8,362.25 262.95,364.4 Q266.15,367.6 266.15,372.15z"/>
      <path id="path16" fill="#999999" fill-opacity="1" d="M197.6,372.15 C197.6,369.1 196.55,366.55 194.4,364.4 192.25,362.25 189.7,361.2 186.65,361.2 183.65,361.2 181.05,362.25 178.9,364.4 176.75,366.55 175.7,369.1 175.7,372.15 175.7,375.2 176.75,377.75 178.9,379.9 181.05,382.05 183.65,383.1 186.65,383.1 189.7,383.1 192.25,382.05 194.4,379.9 196.55,377.75 197.6,375.2 197.6,372.15z"/>
      <path id="path19" fill="#999999" fill-opacity="1" d="M231.9,372.15 C231.9,369.1 230.85,366.55 228.7,364.4 226.55,362.25 224,361.2 220.95,361.2 217.9,361.2 215.35,362.25 213.2,364.4 211.05,366.55 210,369.1 210,372.15 210,375.2 211.05,377.75 213.2,379.9 215.35,382.05 217.9,383.1 220.95,383.1 224,383.1 226.55,382.05 228.7,379.9 230.85,377.75 231.9,375.2 231.9,372.15z"/>
      <path id="path22" fill="#999999" fill-opacity="1" d="M266.15,372.15 Q266.15,367.6 262.95,364.4 C260.8,362.25 258.25,361.2 255.2,361.2 252.2,361.2 249.6,362.25 247.45,364.4 245.3,366.55 244.25,369.1 244.25,372.15 244.25,375.2 245.3,377.75 247.45,379.9 249.6,382.05 252.2,383.1 255.2,383.1 258.25,383.1 260.8,382.05 262.95,379.9 265.1,377.75 266.15,375.2 266.15,372.15z"/>
      <path id="path25" fill="#FFA238" fill-opacity="1" d="M158.7,697.25 C158.7,705.9 163,710.25 171.65,710.25 L580.55,710.25 C589.2,710.25 593.5,705.9 593.5,697.25 L593.5,395.55 158.7,395.55 158.7,697.25z"/>
    </g>
  </g>
  <g id="Calque.__205">
    <g id="shape33">
      <path id="path26" fill="#FFFFFF" fill-opacity="1" d="M909.75,387.6 C909.75,380.05 906,376.25 898.45,376.25 L871.15,376.25 871.15,415.95 909.75,415.95 909.75,387.6z"/>
      <path id="path27" fill="#EFF08A" fill-opacity="1" d="M909.75,415.95 L871.15,415.95 871.15,690.4 898.45,690.4 C906,690.4 909.75,686.6 909.75,679.05 L909.75,415.95z"/>
      <path id="path28" fill="#D2D07F" fill-opacity="1" d="M871.15,690.4 L871.15,415.95 530.55,415.95 530.55,679.05 C530.55,686.6 534.3,690.4 541.85,690.4 L871.15,690.4z"/>
      <path id="path29" fill="#E7E7E7" fill-opacity="1" d="M871.15,415.95 L871.15,376.25 541.85,376.25 C534.3,376.25 530.55,380.05 530.55,387.6 L530.55,415.95 871.15,415.95z M554.9,386 C557.55,386 559.8,386.9 561.65,388.75 563.55,390.65 564.45,392.85 564.45,395.55 564.45,398.2 563.55,400.4 561.65,402.3 559.8,404.15 557.55,405.1 554.9,405.1 552.3,405.1 550,404.15 548.15,402.3 546.25,400.4 545.35,398.2 545.35,395.55 545.35,392.85 546.25,390.65 548.15,388.75 550,386.9 552.3,386 554.9,386z M591.6,388.75 C593.45,390.65 594.35,392.85 594.35,395.55 594.35,398.2 593.45,400.4 591.6,402.3 589.7,404.15 587.5,405.1 584.8,405.1 582.15,405.1 579.95,404.15 578.05,402.3 576.2,400.4 575.25,398.2 575.25,395.55 575.25,392.85 576.2,390.65 578.05,388.75 579.95,386.9 582.15,386 584.8,386 587.5,386 589.7,386.9 591.6,388.75z M624.25,395.55 C624.25,398.2 623.35,400.4 621.45,402.3 619.6,404.15 617.35,405.1 614.7,405.1 612.1,405.1 609.8,404.15 607.95,402.3 606.05,400.4 605.15,398.2 605.15,395.55 605.15,392.85 606.05,390.65 607.95,388.75 609.8,386.9 612.1,386 614.7,386 617.35,386 619.6,386.9 621.45,388.75 Q624.25,391.55 624.25,395.55z"/>
      <path id="path30" fill="#999999" fill-opacity="1" d="M554.9,386 C552.3,386 550,386.9 548.15,388.75 546.25,390.65 545.35,392.85 545.35,395.55 545.35,398.2 546.25,400.4 548.15,402.3 550,404.15 552.3,405.1 554.9,405.1 557.55,405.1 559.8,404.15 561.65,402.3 563.55,400.4 564.45,398.2 564.45,395.55 564.45,392.85 563.55,390.65 561.65,388.75 559.8,386.9 557.55,386 554.9,386z"/>
      <path id="path33" fill="#999999" fill-opacity="1" d="M591.6,388.75 C589.7,386.9 587.5,386 584.8,386 582.15,386 579.95,386.9 578.05,388.75 576.2,390.65 575.25,392.85 575.25,395.55 575.25,398.2 576.2,400.4 578.05,402.3 579.95,404.15 582.15,405.1 584.8,405.1 587.5,405.1 589.7,404.15 591.6,402.3 593.45,400.4 594.35,398.2 594.35,395.55 594.35,392.85 593.45,390.65 591.6,388.75z"/>
      <path id="path36" fill="#999999" fill-opacity="1" d="M624.25,395.55 Q624.25,391.55 621.45,388.75 C619.6,386.9 617.35,386 614.7,386 612.1,386 609.8,386.9 607.95,388.75 606.05,390.65 605.15,392.85 605.15,395.55 605.15,398.2 606.05,400.4 607.95,402.3 609.8,404.15 612.1,405.1 614.7,405.1 617.35,405.1 619.6,404.15 621.45,402.3 623.35,400.4 624.25,398.2 624.25,395.55z"/>
    </g>
  </g>
  <g id="Calque.__206">
    <g id="shape48">
      <path id="path39" fill="#FFFFFF" fill-opacity="1" d="M809.25,350.05 L809.25,395.55 853.5,395.55 853.5,363.05 C853.5,354.4 849.2,350.05 840.55,350.05 L809.25,350.05z"/>
      <path id="path40" fill="#E7E7E7" fill-opacity="1" d="M809.25,395.55 L809.25,350.05 431.65,350.05 C423,350.05 418.7,354.4 418.7,363.05 L418.7,395.55 809.25,395.55z M438.9,364.4 C441.05,362.25 443.65,361.2 446.65,361.2 449.7,361.2 452.25,362.25 454.4,364.4 456.55,366.55 457.6,369.1 457.6,372.15 457.6,375.2 456.55,377.75 454.4,379.9 452.25,382.05 449.7,383.1 446.65,383.1 443.65,383.1 441.05,382.05 438.9,379.9 436.75,377.75 435.7,375.2 435.7,372.15 435.7,369.1 436.75,366.55 438.9,364.4z M473.2,364.4 C475.35,362.25 477.9,361.2 480.95,361.2 484,361.2 486.55,362.25 488.7,364.4 490.85,366.55 491.9,369.1 491.9,372.15 491.9,375.2 490.85,377.75 488.7,379.9 486.55,382.05 484,383.1 480.95,383.1 477.9,383.1 475.35,382.05 473.2,379.9 471.05,377.75 470,375.2 470,372.15 470,369.1 471.05,366.55 473.2,364.4z M522.95,364.4 Q526.15,367.6 526.15,372.15 C526.15,375.2 525.1,377.75 522.95,379.9 520.8,382.05 518.25,383.1 515.2,383.1 512.2,383.1 509.6,382.05 507.45,379.9 505.3,377.75 504.25,375.2 504.25,372.15 504.25,369.1 505.3,366.55 507.45,364.4 509.6,362.25 512.2,361.2 515.2,361.2 518.25,361.2 520.8,362.25 522.95,364.4z"/>
      <path id="path41" fill="#999999" fill-opacity="1" d="M438.9,364.4 C436.75,366.55 435.7,369.1 435.7,372.15 435.7,375.2 436.75,377.75 438.9,379.9 441.05,382.05 443.65,383.1 446.65,383.1 449.7,383.1 452.25,382.05 454.4,379.9 456.55,377.75 457.6,375.2 457.6,372.15 457.6,369.1 456.55,366.55 454.4,364.4 452.25,362.25 449.7,361.2 446.65,361.2 443.65,361.2 441.05,362.25 438.9,364.4z"/>
      <path id="path44" fill="#999999" fill-opacity="1" d="M473.2,364.4 C471.05,366.55 470,369.1 470,372.15 470,375.2 471.05,377.75 473.2,379.9 475.35,382.05 477.9,383.1 480.95,383.1 484,383.1 486.55,382.05 488.7,379.9 490.85,377.75 491.9,375.2 491.9,372.15 491.9,369.1 490.85,366.55 488.7,364.4 486.55,362.25 484,361.2 480.95,361.2 477.9,361.2 475.35,362.25 473.2,364.4z"/>
      <path id="path47" fill="#999999" fill-opacity="1" d="M522.95,364.4 C520.8,362.25 518.25,361.2 515.2,361.2 512.2,361.2 509.6,362.25 507.45,364.4 505.3,366.55 504.25,369.1 504.25,372.15 504.25,375.2 505.3,377.75 507.45,379.9 509.6,382.05 512.2,383.1 515.2,383.1 518.25,383.1 520.8,382.05 522.95,379.9 525.1,377.75 526.15,375.2 526.15,372.15 Q526.15,367.6 522.95,364.4z"/>
      <path id="path50" fill="#4B9471" fill-opacity="1" d="M853.5,395.55 L809.25,395.55 809.25,710.25 840.55,710.25 C849.2,710.25 853.5,705.9 853.5,697.25 L853.5,395.55z"/>
      <path id="path51" fill="#397358" fill-opacity="1" d="M809.25,710.25 L809.25,395.55 418.7,395.55 418.7,697.25 C418.7,705.9 423,710.25 431.65,710.25 L809.25,710.25z"/>
    </g>
  </g>
  <g id="bg2">
    <g id="Symbole.__2025_1" overflow="visible">
      <g id="Calque.__208">
        <g id="shape76">
          <path id="path63" fill="#FFFFFF" fill-opacity="1" d="M780,306 C780,295.35 774.65,290 764,290 L260,290 C249.35,290 244,295.35 244,306 L244,346.1 780,346.1 780,306z M372.55,307.7 Q376.5,311.65 376.5,317.25 C376.5,321 375.2,324.15 372.55,326.8 369.9,329.45 366.75,330.75 363,330.75 359.25,330.75 356.1,329.45 353.45,326.8 350.8,324.15 349.5,321 349.5,317.25 349.5,313.5 350.8,310.35 353.45,307.7 356.1,305.05 359.25,303.75 363,303.75 366.75,303.75 369.9,305.05 372.55,307.7z M288.05,307.7 C290.7,310.35 292,313.5 292,317.25 292,321 290.7,324.15 288.05,326.8 285.4,329.45 282.25,330.75 278.5,330.75 274.75,330.75 271.6,329.45 268.95,326.8 266.3,324.15 265,321 265,317.25 265,313.5 266.3,310.35 268.95,307.7 271.6,305.05 274.75,303.75 278.5,303.75 282.25,303.75 285.4,305.05 288.05,307.7z M330.3,307.7 C332.95,310.35 334.25,313.5 334.25,317.25 334.25,321 332.95,324.15 330.3,326.8 327.65,329.45 324.5,330.75 320.75,330.75 317,330.75 313.85,329.45 311.2,326.8 308.55,324.15 307.25,321 307.25,317.25 307.25,313.5 308.55,310.35 311.2,307.7 313.85,305.05 317,303.75 320.75,303.75 324.5,303.75 327.65,305.05 330.3,307.7z"/>
          <path id="path64" fill="#999999" fill-opacity="1" d="M372.55,307.7 C369.9,305.05 366.75,303.75 363,303.75 359.25,303.75 356.1,305.05 353.45,307.7 350.8,310.35 349.5,313.5 349.5,317.25 349.5,321 350.8,324.15 353.45,326.8 356.1,329.45 359.25,330.75 363,330.75 366.75,330.75 369.9,329.45 372.55,326.8 375.2,324.15 376.5,321 376.5,317.25 Q376.5,311.65 372.55,307.7z"/>
          <path id="path65" fill="#999999" fill-opacity="1" d="M288.05,307.7 C285.4,305.05 282.25,303.75 278.5,303.75 274.75,303.75 271.6,305.05 268.95,307.7 266.3,310.35 265,313.5 265,317.25 265,321 266.3,324.15 268.95,326.8 271.6,329.45 274.75,330.75 278.5,330.75 282.25,330.75 285.4,329.45 288.05,326.8 290.7,324.15 292,321 292,317.25 292,313.5 290.7,310.35 288.05,307.7z"/>
          <path id="path66" fill="#999999" fill-opacity="1" d="M330.3,307.7 C327.65,305.05 324.5,303.75 320.75,303.75 317,303.75 313.85,305.05 311.2,307.7 308.55,310.35 307.25,313.5 307.25,317.25 307.25,321 308.55,324.15 311.2,326.8 313.85,329.45 317,330.75 320.75,330.75 324.5,330.75 327.65,329.45 330.3,326.8 332.95,324.15 334.25,321 334.25,317.25 334.25,313.5 332.95,310.35 330.3,307.7z"/>
          <path id="path67" fill="#97A8E9" fill-opacity="1" d="M764,734 C774.65,734 780,728.65 780,718 L780,346.1 244,346.1 244,718 C244,728.65 249.35,734 260,734 L764,734z"/>
        </g>
      </g>
    </g>
  </g>
</svg>