<?xml version="1.0" encoding="utf-8"?>
<!-- Generator: flash2svg, http://dissentgraphics.com/tools/flash2svg -->
<svg xmlns:xlink="http://www.w3.org/1999/xlink" id="Apps-Tower" image-rendering="optimizeSpeed" baseProfile="basic" version="1.1" style="background-color:#ffffff" x="0px" y="0px" width="1024px" height="1024px" viewBox="0 0 1024 1024" enable-background="new 0 0 1024 1024" xmlns="http://www.w3.org/2000/svg">
  <defs transform="matrix(1 0 0 1 0 0) "/>
  <g id="shadow">
    <g id="shape">
      <path id="path" fill="#000000" fill-opacity="0.09803921568627451" d="M969.65,351.3 Q961.05,330.45 950.25,310.45 C946.2,302.9 941.9,295.4 937.35,288.05 917.8,256.35 893.95,226.4 865.8,198.25 773.65,106.1 662.35,60 532,60 401.65,60 290.4,106.1 198.25,198.25 106.1,290.4 60,401.65 60,532 60,662.35 106.1,773.65 198.25,865.8 290.4,957.95 401.65,1004 532,1004 662.35,1004 773.65,957.95 865.8,865.8 916.55,815 953.35,758.4 976.15,696.05 994.7,645.2 1004,590.55 1004,532 1004,487.1 998.55,444.45 987.6,404.05 986.35,399.5 985.05,394.95 983.7,390.45 979.6,377.15 974.9,364.1 969.65,351.3z"/>
    </g>
  </g>
  <g id="bg">
    <g id="shape2">
      <path id="path1" fill="#768DDE" fill-opacity="1" d="M929.85,289.65 C927.5,285.3 924.9,280.65 922.2,276.05 901.9,241.55 876.4,208.85 845.85,178.3 773.25,105.7 688.7,61.65 592.2,46.25 575.95,43.65 559.4,41.85 542.15,40.9 532.45,40.35 522.3,40.05 512.05,40.05 502.7,40.05 493.45,40.3 484.15,40.8 365.8,46.9 263.85,92.75 178.3,178.3 157.8,198.8 139.55,220.25 123.6,242.7 108.25,264.25 95.05,286.7 84,309.9 L83.975,309.875 Q40.05,401.873 40.05,512.05 C40.05,642.4 86.15,753.7 178.3,845.85 235,902.5 298.85,941.75 369.4,963.4 406.15,974.65 444.2,981.25 484.15,983.35 484.3,983.35 484.4,983.35 484.55,983.35 493.05,983.8 501.15,984.05 509.05,984.05 510.25,984.05 511.15,984.05 512.05,984.05 522.35,984.05 532.55,983.75 542.15,983.25 544.65,983.1 546.9,982.95 549.1,982.8 569.3,981.35 589,978.75 607.8,975.1 615.75,973.55 623.6,971.8 631.2,969.95 712,949.65 783.35,908.35 845.85,845.85 894.45,797.25 930.25,743.35 953.2,684.05 971.65,636.4 981.85,585.25 983.75,530.55 983.95,524.5 984.05,518.3 984.05,512.05 984.05,511.4 984.05,510.7 984.05,510.05 984.05,509.7 984.05,509.4 984.05,509.05 983.85,468.4 979.1,429.55 969.75,392.05 968.65,387.7 967.4,383.05 966.1,378.45 965.1,375.05 964.1,371.6 962.95,367.95 961.35,362.8 959.55,357.45 957.65,352.1 952.6,337.85 946.8,323.85 940.2,309.95 938.35,306.15 936.45,302.3 934.5,298.45 933.05,295.6 931.55,292.75 929.85,289.65z"/>
    </g>
  </g>
  <g id="Calque.__204">
    <g id="shape4">
      <path id="path2" fill="#FFFFFF" fill-opacity="1" d="M256.55,490.35 C259.25,486.3 260.55,481.85 260.55,477 260.55,470.2 258.15,464.4 253.35,459.55 Q246.05,452.3 235.85,452.3 C229.65,452.3 224.3,454.25 219.8,458.25 216.05,449.15 210.05,441.75 201.8,436.1 193.5,430.45 184.3,427.65 174.2,427.65 160.5,427.65 148.85,432.45 139.25,442.1 129.65,451.75 124.85,463.4 124.85,477 L125,481.15 C117.5,484.6 111.5,489.85 107,496.9 102.4,503.95 100.1,511.7 100.1,520.2 100.1,532.05 104.35,542.25 112.75,550.75 121.25,559.15 131.45,563.4 143.3,563.4 L248.15,563.4 C258.4,563.4 267.15,559.75 274.4,552.45 281.6,545.3 285.15,536.55 285.15,526.35 285.15,517.65 282.45,509.95 277.1,503.25 271.7,496.55 264.85,492.25 256.55,490.35z M726.55,157.5 C717.7,157.5 710,160.35 703.55,166.05 698.2,153 689.6,142.4 677.7,134.25 665.85,126.2 652.65,122.2 638.15,122.2 618.55,122.2 601.85,129.05 588.05,142.85 574.3,156.75 567.4,173.45 567.4,192.95 L567.6,198.9 C556.9,203.85 548.3,211.4 541.8,221.5 535.2,231.55 531.95,242.7 531.95,254.85 531.95,271.9 538,286.5 550.05,298.7 562.25,310.75 576.85,316.8 593.85,316.8 L744.2,316.8 C758.9,316.8 771.45,311.6 781.85,301.15 792.15,290.85 797.3,278.35 797.3,263.7 797.3,251.25 793.45,240.2 785.7,230.55 777.95,220.95 768.15,214.8 756.3,212.05 760.1,206.25 762,199.85 762,192.95 762,183.2 758.55,174.85 751.65,167.95 744.7,160.95 736.3,157.5 726.55,157.5z"/>
    </g>
  </g>
  <g id="bg1">
    <g id="shape8">
      <path id="path5" fill="#000000" fill-opacity="0.2" d="M969.75,392.05 C969.05,389.2 968.25,386.2 967.4,383.05 L967.375,383.025 L846.4,262.05 339.175,952.85 L339.2,952.85 C349.35,956.85 359.3,960.3 369.4,963.4 406.15,974.65 444.2,981.25 484.15,983.35 484.3,983.35 484.4,983.35 484.55,983.35 493.05,983.8 501.15,984.05 509.05,984.05 Q510.55,984.05 512.05,984.05 C522.35,984.05 532.55,983.75 542.15,983.25 544.65,983.1 546.9,982.95 549.1,982.8 569.3,981.35 589,978.75 607.8,975.1 615.75,973.55 623.6,971.8 631.2,969.95 712,949.65 783.35,908.35 845.85,845.85 894.45,797.25 930.25,743.35 953.2,684.05 971.65,636.4 981.85,585.25 983.75,530.55 983.95,524.5 984.05,518.3 984.05,512.05 984.05,511.4 984.05,510.7 984.05,510.05 984.05,509.7 984.05,509.4 984.05,509.05 983.85,468.4 979.1,429.55 969.75,392.05z"/>
    </g>
  </g>
  <mask id="bg3">
    <g id="g">
      <g id="shape10">
        <path id="path6" fill="#FFFFFF" fill-opacity="1" d="M929.85,289.65 C927.5,285.3 924.9,280.65 922.2,276.05 901.9,241.55 876.4,208.85 845.85,178.3 773.25,105.7 688.7,61.65 592.2,46.25 575.95,43.65 559.4,41.85 542.15,40.9 532.45,40.35 522.3,40.05 512.05,40.05 502.7,40.05 493.45,40.3 484.15,40.8 365.8,46.9 263.85,92.75 178.3,178.3 157.8,198.8 139.55,220.25 123.6,242.7 108.25,264.25 95.05,286.7 84,309.9 L83.975,309.875 Q40.05,401.873 40.05,512.05 C40.05,642.4 86.15,753.7 178.3,845.85 235,902.5 298.85,941.75 369.4,963.4 406.15,974.65 444.2,981.25 484.15,983.35 484.3,983.35 484.4,983.35 484.55,983.35 493.05,983.8 501.15,984.05 509.05,984.05 510.25,984.05 511.15,984.05 512.05,984.05 522.35,984.05 532.55,983.75 542.15,983.25 544.65,983.1 546.9,982.95 549.1,982.8 569.3,981.35 589,978.75 607.8,975.1 615.75,973.55 623.6,971.8 631.2,969.95 712,949.65 783.35,908.35 845.85,845.85 894.45,797.25 930.25,743.35 953.2,684.05 971.65,636.4 981.85,585.25 983.75,530.55 983.95,524.5 984.05,518.3 984.05,512.05 984.05,511.4 984.05,510.7 984.05,510.05 984.05,509.7 984.05,509.4 984.05,509.05 983.85,468.4 979.1,429.55 969.75,392.05 968.65,387.7 967.4,383.05 966.1,378.45 965.1,375.05 964.1,371.6 962.95,367.95 961.35,362.8 959.55,357.45 957.65,352.1 952.6,337.85 946.8,323.85 940.2,309.95 938.35,306.15 936.45,302.3 934.5,298.45 933.05,295.6 931.55,292.75 929.85,289.65z"/>
      </g>
    </g>
  </mask>
  <g id="masked" mask="url(#bg3)">
    <g id="bg2">
      <g id="Symbole.__2035_1" overflow="visible">
        <g id="Calque.__208">
          <g id="shape121">
            <path id="path114" fill="#A5BFCA" fill-opacity="1" d="M820.3,315.6 C804.3,316.6 780,317.55 747.8,318.4 724.9,319 700.4,319.5 673.8,319.95 L644.6,527 772.65,544.8 820.3,315.6z M276.2,318.4 C244,317.55 219.7,316.6 203.7,315.6 L251.35,544.8 379.4,527 350.2,319.95 C323.6,319.5 299.1,319 276.2,318.4z"/>
            <path id="path115" fill="#90ABBC" fill-opacity="1" d="M654.85,320.2 C649.05,320.25 643.15,320.3 636.85,320.45 L614.85,525 409.15,525 387.15,320.45 C380.85,320.3 374.95,320.25 369.15,320.2 L402.95,559.45 621.05,559.45 654.85,320.2z"/>
            <path id="path116" fill="#AEAEAE" fill-opacity="1" d="M673.8,319.95 C667.7,320.05 661.5,320.15 654.85,320.2 L621.05,559.45 626.9,559.45 640.15,558.35 644.6,527 673.8,319.95z M369.15,320.2 C362.5,320.15 356.3,320.05 350.2,319.95 L379.4,527 383.85,558.35 397.1,559.45 402.95,559.45 369.15,320.2z"/>
            <path id="path117" fill="#B3CFDB" fill-opacity="1" d="M636.85,320.45 C598.95,320.85 557.2,321.05 512,321.05 466.8,321.05 425.05,320.85 387.15,320.45 L409.15,525 614.85,525 636.85,320.45z"/>
            <path id="path118" fill="#666666" fill-opacity="1" d="M636.25,580 L637.1,579.95 798.7,564.9 798.7,544.65 791.7,545.25 772.45,546.95 640.15,558.35 626.9,559.45 626.9,580.85 629.55,580.6 636.2,580 636.25,580z M251.55,546.95 L232.3,545.25 225.3,544.65 225.3,564.9 386.9,579.95 387.75,580 387.8,580 394.45,580.6 397.1,580.85 397.1,559.45 383.85,558.35 251.55,546.95z M666.85,781.15 L622.85,795.85 574.05,812.1 574.05,1005.95 702.45,963.15 702.45,769.3 666.85,781.15z M401.15,795.85 L357.15,781.15 321.55,769.3 321.55,963.15 449.95,1005.95 449.95,812.1 401.15,795.85z"/>
            <path id="path119" fill="#999999" fill-opacity="1" d="M626.9,580.85 L626.9,559.45 621.05,559.45 402.95,559.45 397.1,559.45 397.1,580.85 405.95,580.85 512,580.85 618.05,580.85 626.9,580.85z M574.05,812.1 L532.85,812.1 491.15,812.1 449.95,812.1 449.95,1005.95 574.05,1005.95 574.05,812.1z"/>
            <path id="path120" fill="#819AA9" fill-opacity="1" d="M644.6,527 L640.15,558.35 772.45,546.95 C772.4,546.25 772.5,545.55 772.65,544.8 L644.6,527z M251.35,544.8 C251.5,545.55 251.6,546.25 251.55,546.95 L383.85,558.35 379.4,527 251.35,544.8z"/>
            <path id="path121" fill="#511C00" fill-opacity="1" d="M357.15,781.15 L401.15,795.85 382.6,751.65 336.75,740.9 357.15,781.15z M271.35,687 L298.8,732 336.75,740.9 312.4,692.7 271.35,687z M261.15,591.45 L209.65,585.8 238.45,633 284.75,638.1 261.15,591.45z M284.75,638.1 L312.4,692.7 360.75,699.45 337.5,643.95 284.75,638.1z M622.85,795.85 L666.85,781.15 687.25,740.9 641.4,751.65 622.85,795.85z M814.35,585.8 L762.85,591.45 739.25,638.1 785.55,633 814.35,585.8z M725.2,732 L752.65,687 711.6,692.7 687.25,740.9 725.2,732z M711.6,692.7 L739.25,638.1 686.5,643.95 663.25,699.45 711.6,692.7z M387.95,605.3 L387.4,605.25 318.15,597.7 337.5,643.95 401.65,651 387.95,605.3z M420.55,714 L418.6,707.5 360.75,699.45 382.6,751.65 435.5,764 420.55,714z M636.6,605.25 L636.05,605.3 622.35,651 686.5,643.95 705.85,597.7 636.6,605.25z M605.4,707.5 L603.45,714 588.5,764 641.4,751.65 663.25,699.45 605.4,707.5z"/>
            <path id="path122" fill="#B49300" fill-opacity="1" d="M336.75,740.9 L298.8,732 321.55,769.3 357.15,781.15 336.75,740.9z M382.6,751.65 L360.75,699.45 312.4,692.7 336.75,740.9 382.6,751.65z M312.4,692.7 L284.75,638.1 238.45,633 271.35,687 312.4,692.7z M318.15,597.7 L261.15,591.45 284.75,638.1 337.5,643.95 318.15,597.7z M725.2,732 L687.25,740.9 666.85,781.15 702.45,769.3 725.2,732z M739.25,638.1 L711.6,692.7 752.65,687 785.55,633 739.25,638.1z M687.25,740.9 L711.6,692.7 663.25,699.45 641.4,751.65 687.25,740.9z M762.85,591.45 L705.85,597.7 686.5,643.95 739.25,638.1 762.85,591.45z M588.5,764 L574.05,812.1 622.85,795.85 641.4,751.65 588.5,764z M418.6,707.5 L401.65,651 337.5,643.95 360.75,699.45 418.6,707.5z M382.6,751.65 L401.15,795.85 449.95,812.1 435.5,764 382.6,751.65z M622.35,651 L605.4,707.5 663.25,699.45 686.5,643.95 622.35,651z"/>
            <path id="path123" fill="#CCCCCC" fill-opacity="1" d="M209.65,585.8 L261.15,591.45 318.15,597.7 387.4,605.25 387.95,605.3 392.8,592.2 396.85,581.4 397.1,580.85 394.45,580.6 387.8,580 387.75,580 386.9,579.95 225.3,564.9 209.65,585.8z M637.1,579.95 L636.25,580 636.2,580 629.55,580.6 626.9,580.85 627.15,581.4 631.2,592.2 636.05,605.3 636.6,605.25 705.85,597.7 762.85,591.45 814.35,585.8 798.7,564.9 637.1,579.95z"/>
            <path id="path124" fill="#FFFFFF" fill-opacity="1" d="M512,605.55 L519.85,605.55 522.1,605.5 563.85,605.45 636.05,605.3 631.2,592.2 627.15,581.4 626.9,580.85 618.05,580.85 512,580.85 405.95,580.85 397.1,580.85 396.85,581.4 392.8,592.2 387.95,605.3 460.15,605.45 501.9,605.5 504.15,605.55 512,605.55z"/>
            <path id="path125" fill="#F7CA2E" fill-opacity="1" d="M519.85,605.55 L522.1,605.55 522.1,605.5 519.85,605.55z M501.9,605.5 L501.9,605.55 504.15,605.55 501.9,605.5z"/>
            <path id="path126" fill="#5F2000" fill-opacity="1" d="M588.5,764 L540.1,764 532.85,812.1 574.05,812.1 588.5,764z M475.45,707.5 L466.95,651 401.65,651 418.6,707.5 475.45,707.5z M483.9,764 L435.5,764 449.95,812.1 491.15,812.1 483.9,764z M519.85,605.55 L512,605.55 504.15,605.55 501.9,605.55 501.9,605.5 460.15,605.45 466.95,651 557.05,651 563.85,605.45 522.1,605.5 522.1,605.55 519.85,605.55z M605.4,707.5 L622.35,651 557.05,651 548.55,707.5 605.4,707.5z M540.1,764 L548.55,707.5 475.45,707.5 483.9,764 540.1,764z"/>
            <path id="path127" fill="#F8CB01" fill-opacity="1" d="M532.85,812.1 L540.1,764 483.9,764 491.15,812.1 532.85,812.1z M460.15,605.45 L387.95,605.3 401.65,651 466.95,651 460.15,605.45z M418.6,707.5 L420.55,714 435.5,764 483.9,764 475.45,707.5 418.6,707.5z M636.05,605.3 L563.85,605.45 557.05,651 622.35,651 636.05,605.3z M603.45,714 L605.4,707.5 548.55,707.5 540.1,764 588.5,764 603.45,714z M548.55,707.5 L557.05,651 466.95,651 475.45,707.5 548.55,707.5z"/>
            <path id="path128" fill="#909090" fill-opacity="1" d="M772.65,544.8 C772.5,545.55 772.4,546.25 772.45,546.95 L791.7,545.25 839.15,316.85 C839.35,315.85 839.4,314.9 839.3,314 835.35,314.5 828.9,315.05 820.3,315.6 L772.65,544.8z M184.7,314 C184.6,314.9 184.65,315.85 184.85,316.85 L232.3,545.25 251.55,546.95 C251.6,546.25 251.5,545.55 251.35,544.8 L203.7,315.6 C195.1,315.05 188.65,314.5 184.7,314z"/>
          </g>
          <g id="Symbole.__2037_2" overflow="visible">
            <g id="Calque.__209">
              <g id="shape122">
                <path id="path129" fill="#999999" fill-opacity="1" d="M257,276.9 C205.45,275.35 179,273.45 177.7,271.3 L177.65,312.15 C177.65,312.8 179.85,313.4 184.7,314.1 188.65,314.6 195.1,315.15 203.7,315.7 216.65,316.5 234.45,317.25 257,317.95 244.65,304.9 244.65,291.25 257,276.9z M747.8,277.45 C699.95,278.75 644.8,279.55 582,279.95 594.45,291.65 594.45,305.35 582,321 601.35,320.9 619.5,320.75 636.85,320.55 643.15,320.4 649.05,320.35 654.85,320.3 661.5,320.25 667.7,320.15 673.8,320.05 700.4,319.6 724.9,319.1 747.8,318.5 780,317.65 804.3,316.7 820.3,315.7 828.9,315.15 835.35,314.6 839.3,314.1 844.15,313.4 846.35,312.8 846.35,312.15 L846.3,271.3 C844.85,273.7 812,275.75 747.8,277.45z"/>
                <path id="path130" fill="#AFAFAF" fill-opacity="1" d="M582,279.95 C559.85,280.05 536.4,280.1 512,280.1 419.8,280.1 341.3,279.2 276.2,277.45 269.5,277.25 263.15,277.05 257,276.9 244.65,291.25 244.65,304.9 257,317.95 263.05,318.15 269.45,318.35 276.2,318.5 299.1,319.1 323.6,319.6 350.2,320.05 356.3,320.15 362.5,320.25 369.15,320.3 374.95,320.35 380.85,320.4 387.15,320.55 425.05,320.95 466.8,321.15 512,321.15 536.5,321.15 560,321.1 582,321 594.45,305.35 594.45,291.65 582,279.95z"/>
                <path id="path131" fill="#363636" fill-opacity="1" d="M512,280.1 C536.4,280.1 559.85,280.05 582,279.95 644.8,279.55 699.95,278.75 747.8,277.45 812,275.75 844.85,273.7 846.3,271.3 846.35,271.25 846.35,271.15 846.35,271.1 Q846.35,267.35 747.8,264.7 C682.7,262.95 604.2,262.1 512,262.1 419.8,262.1 341.3,262.95 276.2,264.7 210.5,266.45 177.65,268.6 177.65,271.1 177.65,271.15 177.65,271.25 177.7,271.3 179,273.45 205.45,275.35 257,276.9 263.15,277.05 269.5,277.25 276.2,277.45 341.3,279.2 419.8,280.1 512,280.1z"/>
              </g>
            </g>
          </g>
        </g>
      </g>
    </g>
  </g>
</svg>