<?xml version="1.0" encoding="utf-8"?>
<!-- Generator: flash2svg, http://dissentgraphics.com/tools/flash2svg -->
<svg xmlns:xlink="http://www.w3.org/1999/xlink" id="Teamviewer" image-rendering="optimizeSpeed" baseProfile="basic" version="1.1" style="background-color:#ffffff" x="0px" y="0px" width="1024px" height="1024px" viewBox="0 0 1024 1024" enable-background="new 0 0 1024 1024" xmlns="http://www.w3.org/2000/svg">
  <defs transform="matrix(1 0 0 1 0 0) "/>
  <g id="shadow">
    <g id="shape">
      <path id="path" fill="#000000" fill-opacity="0.09803921568627451" d="M969.65,351.3 Q961.05,330.45 950.25,310.45 C946.2,302.9 941.9,295.4 937.35,288.05 917.8,256.35 893.95,226.4 865.8,198.25 773.65,106.1 662.35,60 532,60 401.65,60 290.4,106.1 198.25,198.25 106.1,290.4 60,401.65 60,532 60,662.35 106.1,773.65 198.25,865.8 290.4,957.95 401.65,1004 532,1004 662.35,1004 773.65,957.95 865.8,865.8 916.55,815 953.35,758.4 976.15,696.05 994.7,645.2 1004,590.55 1004,532 1004,487.1 998.55,444.45 987.6,404.05 986.35,399.5 985.05,394.95 983.7,390.45 979.6,377.15 974.9,364.1 969.65,351.3z"/>
    </g>
  </g>
  <g id="criclebg">
    <g id="shape2">
      <path id="path1" fill="#20B4F2" fill-opacity="1" d="M849.15,181.65 C848.05,180.5 846.95,179.4 845.85,178.3 811.5,143.95 774.55,116.05 734.95,94.55 728.25,90.9 721.5,87.45 714.3,84 679.25,67.25 641.8,55.15 602.4,48 599.3,47.45 596.2,46.9 593.05,46.4 592.75,46.35 592.45,46.3 592.2,46.25 588,45.6 583.8,45 579.45,44.4 575.4,43.9 571.25,43.4 567.05,42.95 563.45,42.55 559.85,42.2 556.05,41.9 551.6,41.5 546.9,41.15 542.15,40.9 541.7,40.85 541.3,40.85 540.85,40.85 531.35,40.3 521.75,40.05 512.05,40.05 502.7,40.05 493.45,40.3 484.15,40.8 482.45,40.9 480.75,41 479.05,41.1 475.4,41.3 471.75,41.55 468.05,41.9 461.95,42.4 455.85,43 449.8,43.75 448,43.95 446.25,44.15 444.6,44.4 401,50.15 359.9,61.6 321.3,78.75 317.45,80.45 313.6,82.2 309.75,84.05 262.25,106.7 218.5,138.1 178.3,178.3 177.75,178.85 177.25,179.35 176.75,179.85 176.1,180.5 175.5,181.1 174.9,181.75 134.45,222.9 103.15,267.8 80.9,316.5 73.05,333.65 66.4,351.1 60.85,369 Q40.05,436.2 40.05,512.05 C40.05,640.8 85,750.95 174.9,842.45 175.5,843.05 176.1,843.65 176.75,844.3 177.25,844.8 177.75,845.3 178.3,845.85 181.75,849.3 185.2,852.65 188.4,855.7 226.2,891.5 266.75,919.65 309.75,940.1 313.7,941.95 317.5,943.7 321.3,945.4 326.85,947.85 332.1,950.05 337.4,952.15 343.85,954.75 350,957 356.2,959.1 384.8,968.9 414.4,975.8 444.6,979.75 446.5,980 448.15,980.2 449.8,980.4 461.3,981.8 472.65,982.75 484.15,983.35 484.3,983.35 484.4,983.35 484.55,983.35 493.05,983.8 501.15,984.05 509.05,984.05 510.25,984.05 511.15,984.05 512.05,984.05 521.8,984.05 531.4,983.8 540.85,983.35 541.3,983.3 541.7,983.3 542.15,983.25 544.65,983.1 546.9,982.95 549.1,982.8 559.4,982.05 569.55,981.05 579.45,979.75 587.25,978.7 594.9,977.5 602.4,976.15 604.3,975.8 606.05,975.45 607.8,975.1 615.75,973.55 623.6,971.8 631.2,969.95 660.1,962.7 687.8,952.75 714.3,940.2 721.3,936.8 728.15,933.3 734.95,929.65 760.15,915.95 784.3,899.65 807.35,880.8 820.6,869.9 833.4,858.3 845.85,845.85 846.95,844.75 848.05,843.65 849.15,842.55 849.8,841.9 850.4,841.25 851.05,840.6 873.65,817.35 893.25,793.1 909.95,767.7 927.5,741.15 941.9,713.25 953.2,684.05 957.15,673.8 960.75,663.4 963.95,652.9 975.65,614.25 982.25,573.5 983.75,530.55 983.95,524.5 984.05,518.3 984.05,512.05 984.05,511.4 984.05,510.7 984.05,510.05 984.05,509.7 984.05,509.4 984.05,509.05 983.85,468.4 979.1,429.55 969.75,392.05 968.65,387.7 967.4,383.05 966.1,378.45 963.85,370.6 961.35,362.65 958.55,354.65 958.25,353.9 957.95,353 957.65,352.1 953.4,340.1 948.65,328.3 943.25,316.5 940.55,310.55 937.6,304.5 934.5,298.45 930.7,291.05 926.55,283.5 922.2,276.05 904.25,245.5 882.15,216.35 855.7,188.4 854.25,186.9 852.65,185.25 851.05,183.6 850.4,182.95 849.8,182.3 849.15,181.65z"/>
    </g>
  </g>
  <g id="Calque.__201">
    <g id="Symbole.__2037_1" overflow="visible">
      <g id="Calque.__206">
        <g id="shape21">
          <path id="path15" fill="#FFFFFF" fill-opacity="1" d="M777.85,246.1 Q737.75,206 691.55,180.5 C637.85,150.85 578,136 512,136 408.15,136 319.55,172.7 246.1,246.1 172.7,319.55 136,408.15 136,512 136,595.85 159.95,669.75 207.8,733.8 219.2,749.05 231.95,763.7 246.1,777.85 319.55,851.3 408.15,888 512,888 615.85,888 704.45,851.3 777.85,777.85 851.3,704.45 888,615.85 888,512 888,408.15 851.3,319.55 777.85,246.1z"/>
        </g>
      </g>
    </g>
  </g>
  <g id="Calque.__202">
    <g id="shape4">
      <path id="path2" fill="#000000" fill-opacity="0.2" d="M882.225,581.225 L793.05,492.05 531.6,472.6 418.05,359.05 317.025,474.425 369.2,712.2 543.875,886.875 Q679.219,876.626 777.9,777.9 C834.4,721.4 869.2,655.9 882.25,581.25"/>
    </g>
  </g>
  <g id="Calque.__203">
    <g id="Symbole.__2039_1" overflow="visible">
      <g id="Calque.__207">
        <g id="shape22">
          <path id="path16" fill="#1688B7" fill-opacity="1" d="M215.65,516.2 C215.65,517 215.7,517.8 215.75,518.55 L215.75,546.1 C215.65,547.15 215.6,548.2 215.6,549.25 215.6,550.4 215.65,551.5 215.75,552.45 215.8,553.05 215.9,553.65 216,554.25 216.9,560.1 219.55,565.05 223.9,569.1 L368.15,713.55 C373.7,719.25 380.45,722.1 388.45,722.1 396,722.1 402.6,719.25 408.3,713.55 L424.95,696.9 C430,692.15 432.75,686.25 433.25,679.25 433.3,678.5 433.3,677.75 433.3,677 433.3,676.2 433.25,675.4 433.2,674.45 L433.2,645.7 C433.25,645.05 433.3,644.1 433.3,643.1 433.15,650.85 430.4,657.25 424.95,662.4 L408.3,679.05 C402.6,684.75 396,687.6 388.45,687.6 380.45,687.6 373.7,684.75 368.15,679.05 L223.9,534.6 C218.7,529.8 215.95,523.65 215.65,516.2z M590.75,387.6 C590.75,387.85 590.75,388.05 590.75,388.25 L590.75,422.1 C590.9,429.8 593.65,436.2 599.1,441.35 L629.8,472.25 664.05,472.25 599.1,406.85 C593.65,401.7 590.9,395.3 590.75,387.6z M433.25,389.4 C433.3,388.8 433.3,388.2 433.3,387.6 433.15,395.15 430.4,401.65 424.95,407.05 L360,472.25 394.4,472.25 424.95,441.55 C430.1,436.45 432.85,430.35 433.25,423.3 433.3,422.7 433.3,422.1 433.3,421.5 433.3,420.9 433.3,420.3 433.25,419.7 L433.25,389.4z M808.4,551.25 C808.45,550.9 808.45,550.6 808.45,550.25 L808.45,515.625 L808.45,515.65 C808.25,523.2 805.5,529.7 800.15,535.05 L655.9,679.45 C650.05,684.9 643.3,687.6 635.6,687.6 628.2,687.6 621.6,684.9 615.75,679.45 L599.1,662.6 C593.7,657.2 590.9,650.75 590.75,643.25 L590.75,643.225 L590.75,678.05 C591,685.45 593.8,691.8 599.1,697.1 L615.75,713.95 C621.6,719.4 628.2,722.1 635.6,722.1 643.3,722.1 650.05,719.4 655.9,713.95 L800.15,569.55 C805.2,564.45 807.95,558.35 808.4,551.25z M629.675,591.75 L664.05,557.25 360,557.25 394.25,591.75 629.675,591.75z"/>
          <path id="path17" fill="#1688B7" fill-opacity="1" d="M433.3,386.25 C433.3,386.1 433.3,386 433.3,385.9 433.3,386.15 433.3,386.4 433.3,386.65 433.3,386.5 433.3,386.4 433.3,386.25"/>
          <path id="path18" fill="#20B4F2" fill-opacity="1" d="M655.9,350.45 C650.35,344.75 643.6,341.9 635.6,341.9 628.05,341.9 621.45,344.75 615.75,350.45 L599.1,367.1 C593.55,372.35 590.75,379 590.75,387 590.75,387.2 590.75,387.4 590.75,387.6 590.9,395.3 593.65,401.7 599.1,406.85 L664.05,472.25 629.8,472.25 394.4,472.25 360,472.25 424.95,407.05 C430.4,401.65 433.15,395.15 433.3,387.6 433.3,387.4 433.3,387.2 433.3,387 L433.3,386.625 L433.3,386.65 C433.3,386.4 433.3,386.15 433.3,385.9 433.05,378.55 430.25,372.2 424.95,366.9 L408.3,350.05 C402.45,344.6 395.85,341.9 388.45,341.9 380.75,341.9 374,344.6 368.15,350.05 L223.9,494.45 C218.35,500 215.6,506.8 215.6,514.75 215.6,514.95 215.6,515.15 215.6,515.35 L215.625,516.175 L215.65,516.2 C215.95,523.65 218.7,529.8 223.9,534.6 L368.15,679.05 C373.7,684.75 380.45,687.6 388.45,687.6 396,687.6 402.6,684.75 408.3,679.05 L424.95,662.4 C430.4,657.25 433.15,650.85 433.3,643.1 433.3,642.9 433.3,642.7 433.3,642.5 433.3,634.55 430.5,627.9 424.95,622.65 L394.25,591.75 360,557.25 664.05,557.25 629.675,591.75 599.1,622.45 C593.55,628 590.75,634.65 590.75,642.5 L590.75,643.225 L590.75,643.25 C590.9,650.75 593.7,657.2 599.1,662.6 L615.75,679.45 C621.6,684.9 628.2,687.6 635.6,687.6 643.3,687.6 650.05,684.9 655.9,679.45 L800.15,535.05 C805.5,529.7 808.25,523.2 808.45,515.65 L808.45,515.625 L808.45,515.25 C808.45,515.1 808.45,514.9 808.45,514.75 808.45,506.6 805.7,500 800.15,494.9 L655.9,350.45z"/>
        </g>
      </g>
    </g>
  </g>
</svg>