<?xml version="1.0" encoding="utf-8"?>
<!-- Generator: flash2svg, http://dissentgraphics.com/tools/flash2svg -->
<svg xmlns:xlink="http://www.w3.org/1999/xlink" id="PushBullet" image-rendering="optimizeSpeed" baseProfile="basic" version="1.1" style="background-color:#ffffff" x="0px" y="0px" width="1024px" height="1024px" viewBox="0 0 1024 1024" enable-background="new 0 0 1024 1024" xmlns="http://www.w3.org/2000/svg">
  <defs transform="matrix(1 0 0 1 0 0) "/>
  <g id="shadow">
    <g id="shape">
      <path id="path" fill="#000000" fill-opacity="0.09803921568627451" d="M965.65,347.3 Q957.05,326.45 946.25,306.45 C942.2,298.9 937.9,291.4 933.35,284.05 913.8,252.35 889.95,222.4 861.8,194.25 769.65,102.1 658.35,56 528,56 397.65,56 286.4,102.1 194.25,194.25 102.1,286.4 56,397.65 56,528 56,658.35 102.1,769.65 194.25,861.8 286.4,953.95 397.65,1000 528,1000 658.35,1000 769.65,953.95 861.8,861.8 912.55,811 949.35,754.4 972.15,692.05 990.7,641.2 1000,586.55 1000,528 1000,483.1 994.55,440.45 983.6,400.05 982.35,395.5 981.05,390.95 979.7,386.45 975.6,373.15 970.9,360.1 965.65,347.3z"/>
    </g>
  </g>
  <g id="BackgroundInner">
    <g id="shape2">
      <path id="path1" fill="#4D8938" fill-opacity="1" d="M985.45,512.05 C985.45,507.45 985.4,502.85 985.25,497.9 982.05,373.75 936,267.05 847,178.05 754.7,85.75 643.25,39.6 512.7,39.6 382.15,39.6 270.75,85.75 178.45,178.05 89.6,266.9 43.5,373.5 40.2,497.85 40.05,502.65 40,507.45 40,512.3 40,517.55 40.1,522.8 40.25,528.05 43.8,651.85 89.9,758.05 178.45,846.6 208.85,877 241.35,902.4 275.65,922.7 334.75,957.55 399.55,977.7 470.4,983.35 484.25,984.5 498.35,985.05 512.7,985.05 600.5,985.05 679.65,964.15 750.05,922.5 784.45,902.1 816.75,876.85 847,846.6 893.9,799.7 928.9,747.85 951.95,691.1 Q985.45,608.65 985.45,512.3 C985.45,512.2 985.45,512.1 985.45,512.05z"/>
    </g>
  </g>
  <g id="LogoBg">
    <g id="shape4">
      <path id="path2" fill="#000000" fill-opacity="0.2" d="M976.775,606.775 L786.05,416.05 410.05,400.05 372.05,362.05 232.05,673.55 542.725,984.225 L542.75,984.25 C618.85,979.9 687.85,959.3 750.05,922.5 784.45,902.1 816.75,876.85 847,846.6 893.9,799.7 928.9,747.85 951.95,691.1 Q968.4,650.612 976.775,606.775z"/>
    </g>
  </g>
  <g id="Calque.__202">
    <g id="shape6">
      <path id="path3" fill="#D4AB46" fill-opacity="1" d="M291.55,377.05 L286.05,377.05 C279.4,377.05 276.05,380.15 276.05,386.2 L276.05,651.9 Q276.05,661.05 286.05,661.05 L322.05,661.05 C328.7,661.05 332.05,658 332.05,651.9 L332.05,417.55 291.55,377.05z"/>
      <path id="path4" fill="#F5C32F" fill-opacity="1" d="M322.05,377.05 L291.55,377.05 332.05,417.55 332.05,386.2 C332.05,380.15 328.7,377.05 322.05,377.05z"/>
    </g>
  </g>
  <g id="BackgroundInner1">
    <g id="shape10">
      <path id="path5" fill="#FFDF62" fill-opacity="1" d="M663,367.05 L663,363.6 643,363.6 330.05,363.55 C323.4,363.55 320.05,366.9 320.05,373.55 L320.05,514.05 663,514.05 663,367.05z M242.05,363.55 C235.4,363.55 232.05,366.9 232.05,373.55 L232.05,514.05 288.05,514.05 288.05,373.55 C288.05,366.9 284.7,363.55 278.05,363.55 L242.05,363.55z"/>
      <path id="path6" fill="#E5E5E5" fill-opacity="1" d="M665,367.05 L663,367.05 663,514.05 819.15,514.05 C818.15,474.3 803.4,440.2 774.95,411.7 758.85,395.6 740.9,383.9 721,376.55 705.85,370.95 689.5,367.95 672.1,367.55 L665,367.55 665,367.05z"/>
      <path id="path7" fill="#CCCCCC" fill-opacity="1" d="M819.2,518.55 C819.2,517.1 819.2,515.65 819.15,514.05 L663,514.05 663,669.6 668.2,669.55 C709.9,669.55 745.5,654.85 774.95,625.3 804.45,595.85 819.2,560.25 819.2,518.55z"/>
      <path id="path8" fill="#F4C241" fill-opacity="1" d="M663,672.575 L663,669.6 663,514.05 320.05,514.05 320.05,663.55 Q320.05,673.55 330.05,673.55 L663,672.575z M288.05,514.05 L232.05,514.05 232.05,663.55 C232.05,670.2 235.4,673.55 242.05,673.55 L278.05,673.55 C284.7,673.55 288.05,670.2 288.05,663.55 L288.05,514.05z"/>
    </g>
  </g>
</svg>