
<svg xmlns="http://www.w3.org/2000/svg" version="1.1" xmlns:xlink="http://www.w3.org/1999/xlink" preserveAspectRatio="none" x="0px" y="0px" width="1024px" height="1024px" viewBox="0 0 1024 1024">
<defs>
<g id="Layer7_0_FILL">
<path fill="#000000" fill-opacity="0.09803921568627451" stroke="none" d="
M 969.6 351.25
Q 961 330.4 950.2 310.4 944.1 299.05 937.3 288 907.95 240.45 865.75 198.2 727.5 59.95 531.95 59.95 336.45 59.95 198.2 198.2 59.95 336.45 59.95 531.95 59.95 727.5 198.2 865.75 336.45 1003.95 531.95 1003.95 727.5 1003.95 865.75 865.75 941.9 789.55 976.1 696 1003.95 619.75 1003.95 531.95 1003.95 464.6 987.55 404 985.7 397.15 983.65 390.4 977.5 370.45 969.6 351.25 Z"/>
</g>

<g id="Layer6_0_FILL">
<path fill="#3C2202" stroke="none" d="
M 222.5 738
L 338.9 634.15 54.85 634.15
Q 85.358984375 752.908984375 178.25 845.8 263.0400390625 930.55703125 369.35 963.35 415.9015625 977.7009765625 466.55 982.1
L 222.5 738 Z"/>

<path fill="#291600" stroke="none" d="
M 953.15 684
Q 962.5798828125 659.6693359375 969.1 634.15
L 338.9 634.15 222.5 738 466.55 982.1
Q 475.2826171875 982.840625 484.1 983.3 484.3 983.3 484.5 983.3 496.65 983.9 509 984 510.5 984 512 984 527.25 984 542.1 983.2 545.6 983 549.05 982.75 579.1 980.6 607.75 975.05 619.55 972.75 631.15 969.9 751.75 939.85 845.8 845.8 918.7 772.85 953.15 684 Z"/>

<path fill="#333333" stroke="none" d="
M 969.7 392
Q 967.95 385.15 966.05 378.4 964.52578125 373.114453125 962.85 367.85 960.3787109375 359.903125 957.6 352.05 947.85 324.5 934.45 298.4 928.65 287.05 922.15 276 891.5 224 845.8 178.25 736.8 69.25 592.15 46.2 567.65 42.3 542.1 40.85 527.2 40 512 40 497.9 40 484.1 40.75 306.55 49.95 178.25 178.25 40 316.5 40 512 40 576.1587890625 54.85 634.15
L 338.9 634.15 969.1 634.15
Q 981.8515625 584.5693359375 983.7 530.5 984 521.3 984 512 984 511 984 510 984 509.5 984 509 983.65 447.7 969.7 392 Z"/>
</g>

<g id="Layer5_0_FILL">
<path fill="#FFFFFF" stroke="none" d="
M 754.1 206
Q 754.1 188 736.1 188
L 287.9 188
Q 269.9 188 269.9 206
L 269.9 478
Q 269.9 496 287.9 496
L 736.1 496
Q 754.1 496 754.1 478
L 754.1 206 Z"/>
</g>

<g id="Layer4_0_FILL">
<path fill="#999999" stroke="none" d="
M 831.5 473
Q 831.5 460.6 822.7 451.8 813.9 443 801.5 443
L 222.5 443
Q 210.1 443 201.3 451.8 192.5 460.6 192.5 473
L 192.5 708
Q 192.5 720.4 201.3 729.2 210.1 738 222.5 738
L 801.5 738
Q 813.9 738 822.7 729.2 831.5 720.4 831.5 708
L 831.5 473 Z"/>
</g>

<g id="Layer3_0_FILL">
<path fill="#333333" stroke="none" d="
M 731 690
Q 749 690 749 672
L 749 632 275 632 275 672
Q 275 690 293 690
L 731 690 Z"/>

<path fill="#999999" stroke="none" d="
M 749 562
Q 749 544 731 544
L 293 544
Q 275 544 275 562
L 275 632 749 632 749 562 Z"/>
</g>

<g id="Layer2_0_FILL">
<path fill="#992222" stroke="none" d="
M 702 572
Q 695.35 572 690.65 576.65 686 581.35 686 588 686 594.65 690.65 599.3 695.35 604 702 604 708.65 604 713.3 599.3 718 594.65 718 588 718 581.35 713.3 576.65 708.65 572 702 572 Z"/>

<path fill="#FFFFFF" stroke="none" d="
M 412.65 576.65
Q 408 581.35 408 588 408 594.65 412.65 599.3 417.35 604 424 604 430.65 604 435.3 599.3 440 594.65 440 588 440 581.35 435.3 576.65 430.65 572 424 572 417.35 572 412.65 576.65
M 360.65 576.65
Q 356 581.35 356 588 356 594.65 360.65 599.3 365.35 604 372 604 378.65 604 383.3 599.3 388 594.65 388 588 388 581.35 383.3 576.65 378.65 572 372 572 365.35 572 360.65 576.65
M 308.65 576.65
Q 304 581.35 304 588 304 594.65 308.65 599.3 313.35 604 320 604 326.65 604 331.3 599.3 336 594.65 336 588 336 581.35 331.3 576.65 326.65 572 320 572 313.35 572 308.65 576.65 Z"/>
</g>

<path id="Layer3_0_1_STROKES" stroke="#333333" stroke-width="1" stroke-linejoin="round" stroke-linecap="round" fill="none" d="
M 749 632
L 749 672
Q 749 690 731 690
L 293 690
Q 275 690 275 672
L 275 632 749 632 Z"/>

<path id="Layer1_0_1_STROKES" stroke="#333333" stroke-opacity="0.2" stroke-width="20" stroke-linejoin="round" stroke-linecap="round" fill="none" d="
M 202.2 592
L 282.2 592 282.2 562
Q 282.2 544 299.65 544
L 724.35 544
Q 741.8 544 741.8 562
L 741.8 592 821.8 592
M 741.8 592
L 741.8 632
M 282.2 632
L 282.2 592"/>

<path id="Layer0_0_1_STROKES" stroke="#333333" stroke-opacity="0.2" stroke-width="20" stroke-linejoin="round" stroke-linecap="round" fill="none" d="
M 323.2 229.05
L 426.85 229.05
M 323.2 315.45
L 479.55 315.45
M 323.2 358.65
L 599.55 358.65
M 323.2 272.25
L 686.9 272.25
M 323.2 401.85
L 705.05 401.85"/>
</defs>

<g transform="matrix( 1, 0, 0, 1, 0,0) ">
<use xlink:href="#Layer7_0_FILL"/>
</g>

<g transform="matrix( 1, 0, 0, 1, 0,0) ">
<use xlink:href="#Layer6_0_FILL"/>
</g>

<g transform="matrix( 1, 0, 0, 1, 0,0) ">
<use xlink:href="#Layer5_0_FILL"/>
</g>

<g transform="matrix( 1, 0, 0, 1, 0,0) ">
<use xlink:href="#Layer4_0_FILL"/>
</g>

<g transform="matrix( 1, 0, 0, 1, 0,0) ">
<use xlink:href="#Layer3_0_FILL"/>

<use xlink:href="#Layer3_0_1_STROKES"/>
</g>

<g transform="matrix( 1, 0, 0, 1, 0,0) ">
<use xlink:href="#Layer2_0_FILL"/>
</g>

<g transform="matrix( 1, 0, 0, 1, 0,0) ">
<use xlink:href="#Layer1_0_1_STROKES"/>
</g>

<g transform="matrix( 1, 0, 0, 1, 0,0) ">
<use xlink:href="#Layer0_0_1_STROKES"/>
</g>
</svg>
