<?xml version="1.0" encoding="utf-8"?>
<!-- Generator: flash2svg, http://dissentgraphics.com/tools/flash2svg -->
<svg xmlns:xlink="http://www.w3.org/1999/xlink" id="Calendar" image-rendering="optimizeSpeed" baseProfile="basic" version="1.1" style="background-color:#ffffff" x="0px" y="0px" width="1024px" height="1024px" viewBox="0 0 1024 1024" enable-background="new 0 0 1024 1024" xmlns="http://www.w3.org/2000/svg">
  <defs transform="matrix(1 0 0 1 0 0) "/>
  <g id="shadow">
    <g id="shape">
      <path id="path" fill="#000000" fill-opacity="0.09803921568627451" d="M969.65,351.3 Q961.05,330.45 950.25,310.45 C946.2,302.9 941.9,295.4 937.35,288.05 917.8,256.35 893.95,226.4 865.8,198.25 773.65,106.1 662.35,60 532,60 401.65,60 290.4,106.1 198.25,198.25 106.1,290.4 60,401.65 60,532 60,662.35 106.1,773.65 198.25,865.8 290.4,957.95 401.65,1004 532,1004 662.35,1004 773.65,957.95 865.8,865.8 916.55,815 953.35,758.4 976.15,696.05 994.7,645.2 1004,590.55 1004,532 1004,487.1 998.55,444.45 987.6,404.05 986.35,399.5 985.05,394.95 983.7,390.45 979.6,377.15 974.9,364.1 969.65,351.3z"/>
    </g>
  </g>
  <g id="inner-circle">
    <g id="Symbole.__205_1" overflow="visible">
      <g id="Calque.__202">
        <g id="shape19">
          <path id="path16" fill="#E35E5E" fill-opacity="1" d="M423.999,45.14 C396.047,50.708 367.764,59.088 339.371,70.17 295.54,87.316 256.176,109.093 221.057,135.777 159.088,182.75 111.178,244.829 77.602,321.628 70.049,338.719 63.544,355.865 58.141,373.011 L471.33,296.102 423.999,45.14z"/>
          <path id="path17" fill="#FF6666" fill-opacity="1" d="M781.476,120.561 C757.328,104.297 730.92,89.852 702.472,77.392 684.94,69.729 667.408,63.168 649.545,57.489 574.951,34.058 499.916,29.923 424.55,45.029 424.385,45.085 424.164,45.085 423.999,45.14 L471.33,296.102 471.771,296.019 886.669,218.779 L886.669,218.806 C857.724,180.986 822.495,148.017 781.476,120.561z"/>
          <path id="path18" fill="#FFFFFF" fill-opacity="1" d="M932.429,291.416 C929.617,285.958 926.805,280.555 923.607,274.986 918.701,266.165 913.518,257.564 907.95,248.909 901.334,238.709 894.387,228.785 886.669,218.806 L886.669,218.779 L471.771,296.019 600.201,978.86 600.201,978.915 C628.705,973.127 656.712,964.802 684.774,953.885 806.782,906.141 894.057,822.34 946.708,702.317 983.04,619.177 995.445,535.431 983.702,451.079 Q975.707,395.23 953.93,339.271 C948.031,324.164 941.581,309.609 934.469,295.385 933.807,294.117 933.145,292.849 932.429,291.416z"/>
          <path id="path19" fill="#E9E9E9" fill-opacity="1" d="M600.201,978.915 L600.201,978.86 471.771,296.019 471.33,296.102 58.141,373.011 C54.502,384.314 51.359,395.671 48.658,406.973 48.272,408.406 47.941,409.895 47.61,411.273 45.295,421.473 43.31,431.562 41.766,441.431 40.664,447.881 39.837,454.056 39.23,459.955 38.955,461.609 38.844,462.987 38.734,464.476 30.905,537.747 41.491,611.018 70.215,684.619 84.88,722.164 103.018,756.401 124.189,786.945 172.926,857.073 238.644,910.165 321.838,946.553 414.075,987.02 507.138,997.716 600.201,978.915z"/>
        </g>
      </g>
    </g>
  </g>
  <g id="txt">
    <g id="drawingObject">
      <path id="path1" fill="#333333" fill-opacity="1" d="M696.639,393.763 L727.28,340.353 721.63,311.307 496.257,355.146 501.907,384.191 695.814,346.473 C676.729,378.935 661.147,409.319 648.852,437.948 634.414,475.646 625.13,503.968 620.626,522.428 613.927,549.689 610.021,576.965 609.015,604.794 609.301,642.14 610.708,670.894 613.234,691.057 L647.121,684.466 C641.373,643.437 640.556,604.799 644.722,568.82 647.642,545.085 654.423,512.505 665.066,471.079 674.409,441.629 685.024,415.84 696.639,393.763z M457.783,457.25 C454.592,440.845 449.077,426.845 441.023,415.572 433.021,404.569 423.451,395.545 412.147,389.091 400.627,382.958 387.859,379.022 373.896,377.551 359.933,376.08 345.261,376.701 329.931,379.683 311.106,383.345 295.276,389.495 282.225,398.453 269.174,407.411 259.015,418.319 251.747,431.177 244.479,444.034 240.266,458.251 238.676,474.47 237.086,490.689 238.125,507.513 242.168,525.428 L273.634,519.307 C270.802,506.181 269.471,493.6 270.18,481.461 270.62,469.373 273.204,458.264 277.88,447.864 282.34,437.786 289.264,428.903 298.438,421.536 307.664,414.438 319.512,409.343 333.766,406.57 344.254,404.53 354.788,404.155 364.776,405.283 374.817,406.679 384.044,409.63 392.508,414.403 400.973,419.176 408.086,425.608 413.846,433.698 419.875,441.736 423.962,451.268 426.212,462.833 428.88,476.549 428.814,489.122 425.961,500.284 422.839,511.497 417.513,522.861 409.983,534.373 402.184,545.939 392.936,557.227 382.456,567.919 L319.676,632.604 C309.569,643.781 301.016,655.772 293.644,668.092 286.323,680.681 281.416,694.195 278.331,708.472 275.299,723.018 275.054,738.975 278.133,756.24 L508.885,711.355 503.235,682.309 308.521,720.184 C308.154,708.253 311.172,696.502 317.304,684.982 323.489,673.73 330.855,662.808 339.722,652.43 L422.484,568.506 C431.351,558.129 438.933,546.885 445.065,535.365 451.467,523.792 455.777,511.51 458.264,498.466 460.751,485.422 460.608,471.773 457.783,457.25z"/>
    </g>
  </g>
  <g id="circle">
    <g id="drawingObject1">
      <path id="path4" fill="#FFFFFF" fill-opacity="1" d="M548.662,114.584 L587.05,107.35 585.366,98.415 498.414,114.801 500.098,123.736 538.238,116.549 557.258,217.482 567.683,215.518 548.662,114.584z M488.301,151.146 L498.808,149.166 C496.972,143.516 494.268,138.714 490.711,134.843 487.155,130.973 483.061,127.889 478.446,125.675 473.815,123.378 468.911,121.903 463.667,121.349 458.324,120.728 453.137,120.935 447.925,121.917 439.238,123.554 432.005,126.545 426.046,130.837 423.116,133.017 420.496,135.481 418.171,138.147 415.831,140.73 413.884,143.581 412.216,146.551 408.912,152.657 406.839,159.387 405.982,166.659 405.125,173.931 405.406,181.332 406.84,188.943 408.259,196.472 410.706,203.55 414.167,210.094 417.612,216.555 421.961,221.904 427.246,226.305 429.911,228.63 432.747,230.494 435.867,232.048 438.987,233.602 442.308,234.861 445.831,235.825 452.959,237.737 460.784,237.89 469.471,236.253 473.773,235.442 479.46,233.343 486.433,229.887 491.339,226.821 495.426,223.052 498.597,218.514 501.768,213.975 504.122,208.734 505.508,202.904 506.961,196.976 507.379,190.558 506.845,183.633 L496.338,185.613 C496.761,190.588 496.476,195.439 495.451,200.002 494.359,204.663 492.662,208.838 490.374,212.61 487.905,216.331 484.816,219.483 481.105,222.067 477.327,224.749 472.865,226.532 467.818,227.483 464.095,228.185 460.641,228.493 457.44,228.326 454.171,228.256 451.088,227.809 448.176,226.902 445.346,225.978 442.651,224.859 440.141,223.361 437.647,221.946 435.354,220.237 433.279,218.315 429.112,214.388 425.648,209.644 422.985,204.149 420.321,198.654 418.387,192.935 417.265,186.979 416.126,180.939 415.831,174.827 416.327,168.822 416.824,162.817 418.339,157.22 420.791,152.046 422.009,149.418 423.522,146.991 425.314,144.683 427.138,142.54 429.225,140.433 431.525,138.543 433.907,136.638 436.616,135.1 439.635,133.845 442.556,132.524 445.886,131.554 449.608,130.852 453.58,130.104 457.494,129.966 461.353,130.438 465.227,130.993 468.864,132.107 472.346,133.764 475.828,135.421 478.923,137.75 481.615,140.67 484.307,143.589 486.596,147.099 488.301,151.146z M388.443,169.964 C384.998,163.503 380.617,157.989 375.318,153.505 370.033,149.103 363.861,145.897 356.799,143.887 349.687,142.057 341.862,141.904 333.258,143.526 324.653,145.147 317.421,148.138 311.462,152.43 308.532,154.61 305.912,157.075 303.587,159.74 301.247,162.323 299.3,165.174 297.632,168.144 294.328,174.25 292.255,180.98 291.398,188.252 290.541,195.524 290.822,202.925 292.256,210.536 293.675,218.065 296.122,225.143 299.583,231.687 303.028,238.148 307.377,243.497 312.661,247.898 315.327,250.223 318.163,252.088 321.282,253.641 324.402,255.195 327.724,256.454 331.247,257.418 338.375,259.33 346.2,259.483 354.804,257.862 363.408,256.24 370.641,253.25 376.584,248.874 382.46,244.597 387.043,239.364 390.347,233.259 393.667,227.236 395.771,220.671 396.628,213.399 397.469,206.044 397.173,198.561 395.754,191.032 394.32,183.421 391.888,176.426 388.443,169.964z M362.438,156.532 C364.865,158.045 367.157,159.754 369.331,161.743 373.498,165.67 376.946,170.332 379.594,175.744 382.242,181.156 384.192,186.957 385.33,192.997 386.452,198.953 386.732,204.983 386.251,211.071 385.771,217.158 384.271,222.838 381.819,228.012 379.285,233.202 375.751,237.637 371.069,241.432 366.372,245.144 360.432,247.72 353.151,249.092 349.511,249.778 346.057,250.086 342.855,249.919 339.504,249.865 336.421,249.418 333.592,248.495 330.762,247.571 328.066,246.452 325.557,244.954 323.063,243.539 320.77,241.83 318.694,239.908 314.445,235.997 311.063,231.237 308.4,225.742 305.737,220.247 303.803,214.529 302.68,208.572 301.542,202.532 301.247,196.42 301.743,190.415 302.239,184.41 303.672,178.829 306.206,173.639 307.424,171.011 308.937,168.584 310.73,166.276 312.554,164.133 314.641,162.026 316.941,160.136 319.24,158.247 321.949,156.708 325.051,155.438 327.972,154.117 331.301,153.147 334.941,152.461 342.222,151.089 348.692,151.326 354.418,153.074 357.248,153.997 359.959,155.2 362.438,156.532z"/>
    </g>
  </g>
</svg>