<?xml version="1.0" encoding="utf-8"?>
<!-- Generator: flash2svg, http://dissentgraphics.com/tools/flash2svg -->
<svg id="Apps-Folx" image-rendering="optimizeSpeed" baseProfile="basic" version="1.1" style="background-color:#FFFFFF" x="0px" y="0px" width="1024px" height="1024px" viewBox="0 0 1024 1024" enable-background="new 0 0 1024 1024" xmlns="http://www.w3.org/2000/svg" xmlns:xlink="http://www.w3.org/1999/xlink">
  <defs transform="matrix(1 0 0 1 0 0) "/>
  <g id="background-circle-shadow">
    <g id="shape">
      <path id="path" fill="#000000" fill-opacity="0.09803921568627451" d="M969.6,351.25 Q961,330.4 950.2,310.4 C946.15,302.85 941.85,295.35 937.3,288 917.75,256.3 893.9,226.35 865.75,198.2 773.6,106.05 662.3,59.95 531.95,59.95 401.6,59.95 290.35,106.05 198.2,198.2 106.05,290.35 59.95,401.6 59.95,531.95 59.95,662.3 106.05,773.6 198.2,865.75 290.35,957.9 401.6,1003.95 531.95,1003.95 662.3,1003.95 773.6,957.9 865.75,865.75 916.5,814.95 953.3,758.35 976.1,696 994.65,645.15 1003.95,590.5 1003.95,531.95 1003.95,487.05 998.5,444.4 987.55,404 986.3,399.45 985,394.9 983.65,390.4 979.55,377.1 974.85,364.05 969.6,351.25z"/>
    </g>
  </g>
  <g id="background-circle">
    <g id="shape2">
      <path id="path1" fill="#415282" fill-opacity="1" d="M969.7,392 C968.6,387.65 967.35,383 966.05,378.4 965.05,375 964.05,371.55 962.9,367.9 961.3,362.75 959.5,357.4 957.6,352.05 951.15,333.8 943.45,316 934.45,298.4 930.65,291 926.5,283.45 922.15,276 901.85,241.5 876.35,208.8 845.8,178.25 773.2,105.65 688.65,61.6 592.15,46.2 575.9,43.6 559.35,41.8 542.1,40.85 532.4,40.3 522.25,40 512,40 502.65,40 493.4,40.25 484.1,40.75 365.75,46.85 263.8,92.7 178.25,178.25 Q40,316.5 40,512 C40,642.35 86.1,753.65 178.25,845.8 234.95,902.45 298.8,941.7 369.35,963.35 406.1,974.6 444.15,981.2 484.1,983.3 484.25,983.3 484.35,983.3 484.5,983.3 493,983.75 501.1,984 509,984 510.2,984 511.1,984 512,984 522.3,984 532.5,983.7 542.1,983.2 544.6,983.05 546.85,982.9 549.05,982.75 569.25,981.3 588.95,978.7 607.75,975.05 615.7,973.5 623.55,971.75 631.15,969.9 711.95,949.6 783.3,908.3 845.8,845.8 894.4,797.2 930.2,743.3 953.15,684 971.6,636.35 981.8,585.2 983.7,530.5 983.9,524.45 984,518.25 984,512 984,511.35 984,510.65 984,510 984,509.65 984,509.35 984,509 983.8,468.35 979.05,429.5 969.7,392z"/>
    </g>
  </g>
  <g id="object">
    <g id="shape4">
      <path id="path2" fill="#FFFFFF" fill-opacity="1" d="M931.35,624.9 C931.35,621 930,617.65 927.2,614.85 924.4,612.05 921.05,610.7 917.15,610.7 913.2,610.7 909.85,612.05 907.1,614.85 904.3,617.65 902.95,621 902.95,624.9 902.95,628.8 904.3,632.15 907.1,634.95 909.85,637.75 913.2,639.1 917.15,639.1 921.05,639.1 924.4,637.75 927.2,634.95 930,632.15 931.35,628.8 931.35,624.9z M584,90.7 C582.25,88.9 580.1,88 577.6,88 575.15,88 573,88.9 571.25,90.7 569.45,92.45 568.6,94.55 568.6,97.05 568.6,99.5 569.45,101.65 571.25,103.4 573,105.15 575.15,106.05 577.6,106.05 580.1,106.05 582.25,105.15 584,103.4 Q586.6,100.75 586.6,97.05 C586.6,94.55 585.75,92.45 584,90.7z M423.4,116.55 C424.9,115.05 425.65,113.2 425.65,111.05 425.65,108.9 424.9,107.05 423.4,105.55 421.85,104 420.05,103.25 417.9,103.25 415.7,103.25 413.85,104 412.3,105.55 410.8,107.05 410.05,108.9 410.05,111.05 410.05,113.2 410.8,115.05 412.3,116.55 413.85,118.1 415.7,118.9 417.9,118.9 420.05,118.9 421.85,118.1 423.4,116.55z M228.7,334.4 C232.15,334.4 235.05,333.15 237.5,330.75 239.9,328.3 241.15,325.4 241.15,321.95 241.15,318.5 239.9,315.55 237.5,313.1 235.05,310.7 232.15,309.45 228.7,309.45 225.25,309.45 222.3,310.7 219.85,313.1 217.45,315.55 216.2,318.5 216.2,321.95 216.2,325.4 217.45,328.3 219.85,330.75 222.3,333.15 225.25,334.4 228.7,334.4z M266.05,485.9 C269.35,489.2 273.3,490.85 277.95,490.85 282.6,490.85 286.55,489.2 289.8,485.9 293.1,482.6 294.75,478.65 294.75,474 294.75,469.35 293.1,465.4 289.8,462.15 286.55,458.85 282.6,457.2 277.95,457.2 273.3,457.2 269.35,458.85 266.05,462.15 262.75,465.4 261.1,469.35 261.1,474 261.1,478.65 262.75,482.6 266.05,485.9z M318,532.45 C318,530.7 317.3,529.15 316.05,527.95 314.85,526.7 313.35,526.05 311.55,526.05 309.8,526.05 308.3,526.7 307.05,527.95 305.8,529.15 305.15,530.7 305.15,532.45 305.15,534.2 305.8,535.75 307.05,537 308.3,538.25 309.8,538.85 311.55,538.85 313.35,538.85 314.85,538.25 316.05,537 317.3,535.75 318,534.2 318,532.45z M269.15,582.9 C269.15,587.15 270.55,590.7 273.55,593.6 276.55,596.65 280.1,598.1 284.35,598.1 288.55,598.1 292.1,596.65 295.05,593.6 298.1,590.7 299.55,587.15 299.55,582.9 299.55,578.7 298.1,575.1 295.05,572.15 292.1,569.2 288.55,567.7 284.35,567.7 280.1,567.7 276.55,569.2 273.55,572.15 270.55,575.1 269.15,578.7 269.15,582.9z M395.65,707.75 C397.05,709.15 398.7,709.8 400.6,709.8 402.6,709.8 404.25,709.15 405.55,707.75 406.95,706.4 407.65,704.75 407.65,702.8 407.65,700.9 406.95,699.25 405.55,697.85 404.25,696.5 402.6,695.8 400.6,695.8 398.7,695.8 397.05,696.5 395.65,697.85 394.35,699.25 393.6,700.9 393.6,702.8 393.6,704.75 394.35,706.4 395.65,707.75z M387,213.2 C388.8,213.2 390.35,212.55 391.6,211.25 392.95,209.95 393.6,208.35 393.6,206.55 393.6,204.8 392.95,203.2 391.6,201.9 390.35,200.6 388.8,199.95 387,199.95 385.2,199.95 383.65,200.6 382.3,201.9 381,203.2 380.4,204.8 380.4,206.55 380.4,208.35 381,209.95 382.3,211.25 383.65,212.55 385.2,213.2 387,213.2z M353.15,345.15 C354.8,345.15 356.25,344.55 357.4,343.35 358.55,342.25 359.15,340.8 359.15,339.15 359.15,337.5 358.55,336.05 357.4,334.9 356.25,333.75 354.8,333.1 353.15,333.1 351.5,333.1 350.05,333.75 348.9,334.9 347.75,336.05 347.15,337.5 347.15,339.15 347.15,340.8 347.75,342.25 348.9,343.35 350.05,344.55 351.5,345.15 353.15,345.15z M808.8,614.75 C806.05,617.55 804.65,620.85 804.65,624.7 804.65,628.55 806.05,631.85 808.8,634.6 811.5,637.35 814.8,638.7 818.65,638.7 822.6,638.7 825.85,637.35 828.55,634.6 831.35,631.85 832.7,628.55 832.7,624.7 832.7,620.85 831.35,617.55 828.55,614.75 825.85,612 822.6,610.7 818.65,610.7 814.8,610.7 811.5,612 808.8,614.75z M902.95,424 C902.95,426.85 903.9,429.25 905.85,431.2 907.85,433.2 910.3,434.25 913.15,434.25 915.95,434.25 918.4,433.2 920.35,431.2 922.35,429.25 923.35,426.85 923.35,424 923.35,421.15 922.35,418.8 920.35,416.75 918.4,414.8 915.95,413.8 913.15,413.8 910.3,413.8 907.85,414.8 905.85,416.75 903.9,418.8 902.95,421.15 902.95,424z M789.9,339.85 C788.65,341.05 788.1,342.5 788.1,344.2 788.1,345.9 788.65,347.35 789.9,348.6 791.1,349.8 792.55,350.4 794.25,350.4 795.95,350.4 797.45,349.8 798.65,348.6 799.85,347.35 800.45,345.9 800.45,344.2 800.45,342.5 799.85,341.05 798.65,339.85 797.45,338.65 795.95,338 794.25,338 792.55,338 791.1,338.65 789.9,339.85z"/>
    </g>
  </g>
  <mask id="background-circle1">
    <g id="g">
      <g id="shape34">
        <path id="path29" fill="#FFFFFF" fill-opacity="1" d="M969.7,392 C968.6,387.65 967.35,383 966.05,378.4 965.05,375 964.05,371.55 962.9,367.9 961.3,362.75 959.5,357.4 957.6,352.05 951.15,333.8 943.45,316 934.45,298.4 930.65,291 926.5,283.45 922.15,276 901.85,241.5 876.35,208.8 845.8,178.25 773.2,105.65 688.65,61.6 592.15,46.2 575.9,43.6 559.35,41.8 542.1,40.85 532.4,40.3 522.25,40 512,40 502.65,40 493.4,40.25 484.1,40.75 365.75,46.85 263.8,92.7 178.25,178.25 Q40,316.5 40,512 C40,642.35 86.1,753.65 178.25,845.8 234.95,902.45 298.8,941.7 369.35,963.35 406.1,974.6 444.15,981.2 484.1,983.3 484.25,983.3 484.35,983.3 484.5,983.3 493,983.75 501.1,984 509,984 510.2,984 511.1,984 512,984 522.3,984 532.5,983.7 542.1,983.2 544.6,983.05 546.85,982.9 549.05,982.75 569.25,981.3 588.95,978.7 607.75,975.05 615.7,973.5 623.55,971.75 631.15,969.9 711.95,949.6 783.3,908.3 845.8,845.8 894.4,797.2 930.2,743.3 953.15,684 971.6,636.35 981.8,585.2 983.7,530.5 983.9,524.45 984,518.25 984,512 984,511.35 984,510.65 984,510 984,509.65 984,509.35 984,509 983.8,468.35 979.05,429.5 969.7,392z"/>
      </g>
    </g>
  </mask>
  <g id="masked" mask="url(#background-circle1)">
    <g id="Calque.__202">
      <g id="shape30">
        <path id="path27" fill="#F1D178" fill-opacity="1" d="M802.1,666.4 C782.6,666.4 764.6,669.9 747.8,677 745.25,664.55 739.05,653.2 729.2,643.3 715.65,629.7 699.35,623 680.4,623 663.15,623 648.2,628.55 635.65,639.6 625.25,614.25 608.55,593.65 585.4,577.8 562.35,562.15 536.7,554.35 508.5,554.35 470.4,554.35 437.95,567.7 411.1,594.5 399.8,605.9 390.9,618.3 384.4,631.55 381.5,626.05 377.8,620.4 373.45,614.95 358.35,596.3 339.3,584.35 316.3,579 323.65,567.75 327.35,555.3 327.35,541.85 327.35,522.9 320.65,506.7 307.25,493.25 Q286.9,472.95 258.45,472.95 C241.25,472.95 226.25,478.5 213.7,489.55 203.3,464.2 186.6,443.6 163.45,427.75 140.4,412.1 114.75,404.3 86.55,404.3 48.45,404.3 16,417.65 -10.85,444.45 -37.55,471.5 -51,503.95 -51,541.85 L-50.6,553.45 C-71.4,563.05 -88.1,577.75 -100.75,597.4 -113.6,616.9 -119.9,638.6 -119.9,662.2 -119.9,695.35 -108.15,723.75 -84.7,747.45 -61,770.9 -32.6,782.65 0.45,782.65 L292.75,782.65 C297.2,782.65 301.55,782.4 305.85,781.9 303.3,791.6 302.05,801.75 302.05,812.25 302.05,845.4 313.8,873.8 337.2,897.5 360.95,920.95 389.35,932.7 422.4,932.7 L595.9,932.7 C597.75,962.3 609.4,987.9 630.8,1009.55 654.55,1033 682.95,1044.75 716,1044.75 L1008.3,1044.75 C1036.85,1044.75 1061.25,1034.65 1081.5,1014.35 1101.5,994.3 1111.55,970 1111.55,941.5 1111.55,917.3 1104.05,895.85 1089,877.05 1073.9,858.4 1054.85,846.45 1031.8,841.1 1039.2,829.8 1042.9,817.4 1042.9,803.95 1042.9,785 1036.2,768.8 1022.8,755.35 1009.25,741.75 992.95,735.05 974,735.05 956.75,735.05 941.8,740.6 929.25,751.65 918.85,726.3 902.15,705.7 879,689.85 855.95,674.2 830.3,666.4 802.1,666.4z"/>
      </g>
    </g>
    <g id="Calque.__203">
      <g id="shape32">
        <path id="path28" fill="#DABC00" fill-opacity="1" d="M54.5,595.85 C36.15,608.45 22.8,624.95 14.45,645.2 4.4,636.3 -7.5,631.95 -21.3,631.95 Q-44,631.95 -60.3,648.1 C-70.95,658.9 -76.3,671.8 -76.3,686.95 -76.3,697.75 -73.4,707.65 -67.4,716.7 -85.9,720.9 -101.15,730.5 -113.15,745.4 -125.1,760.35 -131.1,777.5 -131.1,796.85 -131.1,819.55 -123.2,839.05 -107.15,855 -91,871.25 -71.5,879.35 -48.7,879.35 L169.9,879.35 C179.75,883.95 190.25,886.4 201.55,886.75 202.5,898.5 206.15,909.15 212.7,919 189,924.4 169.5,936.65 154.1,955.75 138.85,974.9 131.15,996.85 131.15,1021.65 131.15,1050.75 141.25,1075.7 161.8,1096.1 182.45,1116.9 207.4,1127.3 236.65,1127.3 L535.7,1127.3 C569.5,1127.3 598.6,1115.2 622.8,1091.25 646.8,1067 658.9,1037.9 658.9,1004.1 658.9,979.85 652.35,957.75 639.2,937.65 626.4,917.55 609.25,902.6 587.9,892.75 L588.3,880.9 C588.3,842.1 574.6,808.9 547.25,781.35 519.85,753.85 486.65,740.15 447.55,740.15 438.9,740.15 430.45,740.85 422.15,742.35 424.9,736.5 426.2,730.15 426.2,723.45 426.2,710.6 421.65,699.6 412.6,690.45 403.3,681.3 392.35,676.75 379.5,676.75 367.75,676.75 357.65,680.45 349.15,688 342.05,670.8 330.7,656.8 315.1,646.1 299.4,635.45 282,630.15 262.9,630.15 245.8,630.15 230.4,634.1 216.7,642.05 211.35,630.15 203.75,619.2 193.8,609.25 172.45,587.75 146.5,577.05 116,577.05 93.5,577.05 73,583.3 54.5,595.85z"/>
      </g>
    </g>
  </g>
  <mask id="background-circle2">
    <g id="g1">
      <g id="shape41">
        <path id="path34" fill="#FFFFFF" fill-opacity="1" d="M969.7,392 C968.6,387.65 967.35,383 966.05,378.4 965.05,375 964.05,371.55 962.9,367.9 961.3,362.75 959.5,357.4 957.6,352.05 951.15,333.8 943.45,316 934.45,298.4 930.65,291 926.5,283.45 922.15,276 901.85,241.5 876.35,208.8 845.8,178.25 773.2,105.65 688.65,61.6 592.15,46.2 575.9,43.6 559.35,41.8 542.1,40.85 532.4,40.3 522.25,40 512,40 502.65,40 493.4,40.25 484.1,40.75 365.75,46.85 263.8,92.7 178.25,178.25 Q40,316.5 40,512 C40,642.35 86.1,753.65 178.25,845.8 234.95,902.45 298.8,941.7 369.35,963.35 406.1,974.6 444.15,981.2 484.1,983.3 484.25,983.3 484.35,983.3 484.5,983.3 493,983.75 501.1,984 509,984 510.2,984 511.1,984 512,984 522.3,984 532.5,983.7 542.1,983.2 544.6,983.05 546.85,982.9 549.05,982.75 569.25,981.3 588.95,978.7 607.75,975.05 615.7,973.5 623.55,971.75 631.15,969.9 711.95,949.6 783.3,908.3 845.8,845.8 894.4,797.2 930.2,743.3 953.15,684 971.6,636.35 981.8,585.2 983.7,530.5 983.9,524.45 984,518.25 984,512 984,511.35 984,510.65 984,510 984,509.65 984,509.35 984,509 983.8,468.35 979.05,429.5 969.7,392z"/>
      </g>
    </g>
  </mask>
  <g id="masked1" mask="url(#background-circle2)">
    <g id="Calque.__204">
      <g id="shape36">
        <path id="path30" fill="#FDE7AA" fill-opacity="1" d="M179.1,693.85 C179.15,713.55 182.45,731.85 188.95,748.8 L0,937.75 86.25,1024 275.2,835.05 C292.2,841.6 310.5,844.85 330.1,844.85 371.85,844.9 407.45,830.15 436.9,800.65 466.4,771.2 481.15,735.6 481.1,693.85 481.15,652.2 466.4,616.6 436.95,587.15 407.5,557.7 371.85,542.9 330.1,542.85 288.45,542.9 252.85,557.65 223.35,587.1 193.9,616.6 179.15,652.2 179.1,693.85z M207.95,694.2 C208,659.95 220.1,630.75 244.3,606.55 268.5,582.35 297.7,570.25 331.95,570.2 366.25,570.25 395.5,582.4 419.7,606.6 443.9,630.8 456,660 455.95,694.2 455.95,728.45 443.85,757.7 419.65,781.9 395.45,806.1 366.25,818.2 332,818.25 L331.95,818.25 C315.8,818.2 300.8,815.55 286.85,810.3 L286.8,810.25 C281.85,808.3 276.8,807.9 271.6,808.95 L271.45,809 C266.25,810.1 261.75,812.55 258,816.3 L88.15,986.2 40.05,938.15 209.9,768.25 C213.65,764.5 216.1,760 217.2,754.75 L217.3,754.6 C218.35,749.4 217.9,744.35 216,739.45 L215.95,739.4 Q208,718.45 207.95,694.2z"/>
        <path id="path31" fill="#FFFFFF" fill-opacity="1" d="M207.95,694.2 Q208,718.45 215.95,739.4 L216,739.45 C217.9,744.35 218.35,749.4 217.3,754.6 L217.2,754.75 C216.1,760 213.65,764.5 209.9,768.25 L40.05,938.15 88.15,986.2 258,816.3 C261.75,812.55 266.25,810.1 271.45,809 L271.6,808.95 C276.8,807.9 281.85,808.3 286.8,810.25 L286.85,810.3 C300.8,815.55 315.8,818.2 331.95,818.25 L332,818.25 C366.25,818.2 395.45,806.1 419.65,781.9 443.85,757.7 455.95,728.45 455.95,694.2 456,660 443.9,630.8 419.7,606.6 395.5,582.4 366.25,570.25 331.95,570.2 297.7,570.25 268.5,582.35 244.3,606.55 220.1,630.75 208,659.95 207.95,694.2z"/>
      </g>
    </g>
  </g>
  <g id="Calque.__205">
    <g id="shape43">
      <path id="path35" fill="#B04C2B" fill-opacity="1" d="M248.9,461.85 Q247.95,461.8 247.05,461.8 C239.4,461.85 232.75,464.4 227.15,469.5 L157,539.7 C156,540.8 155.2,542 154.65,543.3 154.1,544.8 153.8,546.45 153.8,548.25 153.75,551.8 155.05,554.9 157.6,557.45 159.7,559.55 162.15,560.8 164.95,561.15 165.5,561.2 165.95,561.2 166.4,561.2 166.45,561.25 166.45,561.25 166.5,561.3 L166.75,561.25 166.8,561.25 C166.85,561.2 166.9,561.2 166.95,561.25 L167.3,561.25 C198.65,561.5 226.3,570.2 250.25,587.35 L347.15,490.4 254.35,462.7 C253.3,462.45 252.2,462.2 251.1,462.05 250.35,462 249.65,461.9 248.9,461.85z"/>
      <path id="path36" fill="#D55A30" fill-opacity="1" d="M562.2,776.95 C562.2,776.35 562.2,775.75 562.2,775.2 562.15,774.45 562.05,773.65 561.95,772.9 561.8,771.8 561.55,770.7 561.3,769.65 L533.6,676.85 436.7,773.8 C453.85,797.7 462.55,825.35 462.8,856.75 L462.8,857.1 C462.8,857.15 462.8,857.2 462.8,857.25 L462.8,857.55 C462.8,857.6 462.8,857.6 462.8,857.65 462.85,858.1 462.9,858.6 462.95,859.1 463.3,861.9 464.5,864.35 466.6,866.45 469.15,869 472.2,870.25 475.8,870.25 477.6,870.25 479.25,869.95 480.7,869.35 482.05,868.8 483.25,868 484.4,867.05 L554.55,796.85 C559.7,791.3 562.25,784.65 562.2,776.95z"/>
    </g>
  </g>
  <g id="Calque.__206">
    <g id="shape46">
      <path id="path37" fill="#999999" fill-opacity="1" d="M677.75,373.85 L664.3,360.45 588.25,436.5 601.7,449.9 677.75,373.85z"/>
      <path id="path38" fill="#CCCCCC" fill-opacity="1" d="M664.3,360.45 L650.15,346.3 565.35,431.1 592.95,458.65 601.7,449.9 588.25,436.5 664.3,360.45z"/>
    </g>
  </g>
  <g id="Calque.__207">
    <g id="shape50">
      <path id="path39" fill="#333333" fill-opacity="1" d="M703.75,569.45 C709.8,561.65 715.9,553.5 721.75,545.1 L479.15,302.5 C470.8,308.4 462.6,314.45 454.75,320.5 L579.25,445 703.75,569.45z M213.3,596.7 L320.45,703.85 427.6,811 Q437.3,804.1 446.4,797.65 L336.5,687.8 226.6,577.9 C222.05,584.25 217.65,590.45 213.3,596.7z"/>
      <path id="path40" fill="#D55A30" fill-opacity="1" d="M454.75,320.5 C364.4,390.5 294.4,482.45 226.6,577.9 L336.5,687.8 579.25,445 454.75,320.5z"/>
      <path id="path43" fill="#B04C2B" fill-opacity="1" d="M446.4,797.65 C541.75,729.8 633.7,659.85 703.75,569.45 L579.25,445 336.5,687.8 446.4,797.65z"/>
    </g>
  </g>
  <g id="object-shadow">
    <g id="shape57" transform="matrix(1 0 0 1 407 381.65)"/>
  </g>
  <g id="Calque.__208">
    <g id="shape58">
      <path id="path44" fill="#333333" fill-opacity="1" d="M664.8,321.35 C661.2,317.75 656.9,315.75 651.9,315.45 L622.2,345.15 C622.45,350.2 624.45,354.5 628.05,358.1 L633.5,363.55 C633.75,363.05 634.05,362.7 634.4,362.35 636.3,360.45 639.25,360.25 643.2,361.55 647.1,362.95 650.9,365.45 654.65,369.1 654.75,369.2 654.8,369.25 654.95,369.35 658.6,373.15 661.1,376.95 662.45,380.8 663.85,384.85 663.6,387.75 661.7,389.65 661.35,390 660.95,390.3 660.5,390.55 L665.95,396 C669.55,399.6 673.8,401.55 678.85,401.8 L708.55,372.1 C708.25,367.1 706.3,362.85 702.7,359.25 L664.8,321.35z M776.8,438.05 C776.8,432.55 774.9,427.8 770.95,423.9 L766.7,419.65 C762.8,415.75 758.05,413.8 752.55,413.8 751.75,413.8 751.05,413.85 750.35,413.9 L720.65,443.6 C720.55,444.3 720.5,445.05 720.5,445.85 720.5,451.35 722.5,456.05 726.4,459.95 L730.65,464.2 C734.6,468.1 739.25,470.1 744.75,470.1 750.3,470.1 755,468.15 758.95,464.25 L770.95,452.2 C774.85,448.3 776.8,443.55 776.8,438.05z M604.35,257.3 L600.1,253.05 C596.2,249.15 591.45,247.2 585.95,247.2 580.45,247.2 575.75,249.15 571.85,253.05 L559.85,265.1 C555.9,269 553.95,273.75 553.9,279.25 553.9,284.75 555.9,289.45 559.8,293.35 L564.05,297.6 C568,301.55 572.65,303.5 578.15,303.5 578.95,303.5 579.7,303.45 580.45,303.35 L610.15,273.65 C610.2,273 610.2,272.25 610.2,271.45 610.2,265.95 608.3,261.25 604.35,257.3z"/>
      <path id="path47" fill="#000000" fill-opacity="1" d="M678.85,401.8 L720.65,443.6 750.35,413.9 708.55,372.1 678.85,401.8z M580.45,303.35 L622.2,345.15 651.9,315.45 610.15,273.65 580.45,303.35z"/>
    </g>
  </g>
  <g id="Calque.__209">
    <g id="shape68">
      <path id="path52" fill="#D55A30" fill-opacity="1" d="M303.45,739.4 Q311.1,739.35 316.55,733.9 L433.95,616.55 C437.6,612.9 439.4,608.55 439.4,603.45 439.4,598.3 437.6,593.95 433.95,590.3 433.9,590.25 433.9,590.25 433.85,590.2 L290.25,733.8 C290.3,733.85 290.3,733.85 290.35,733.9 294,737.55 298.35,739.35 303.45,739.4z"/>
      <path id="path53" fill="#B04C2B" fill-opacity="1" d="M284.9,720.8 C284.85,725.85 286.65,730.2 290.25,733.8 L433.85,590.2 C430.2,586.65 425.9,584.85 420.85,584.85 415.75,584.85 411.4,586.65 407.75,590.3 L290.35,707.65 C286.7,711.3 284.9,715.65 284.9,720.8z"/>
    </g>
  </g>
  <g id="Calque.__210">
    <g id="shape72">
      <path id="path54" fill="#FFFFFF" fill-opacity="0.2" d="M791.95,232.1 Q737.3,177.45 660.05,177.4 C608.55,177.45 564.6,195.65 528.2,232.05 506.55,253.7 491.4,277.95 482.65,304.85 L719.15,541.4 C746.05,532.65 770.3,517.45 791.95,495.8 828.35,459.4 846.55,415.45 846.55,363.9 846.55,312.45 828.35,268.5 791.95,232.1z"/>
    </g>
  </g>
  <g id="Calque.__211">
    <g id="shape74">
      <path id="path55" fill="#FFFFFF" fill-opacity="1" d="M690.15,235.9 C695,233.45 698.15,229.6 699.75,224.5 Q702.2,216.75 698.55,209.6 C696.05,204.8 692.3,201.55 687.1,199.95 666.85,193.5 646.6,193.5 626.4,199.95 621.2,201.55 617.45,204.8 614.95,209.6 612.5,214.35 612.1,219.35 613.75,224.45 615.35,229.65 618.5,233.45 623.35,235.95 628.1,238.35 633.1,238.75 638.25,237.2 650.6,233.2 662.9,233.2 675.25,237.2 680.4,238.75 685.4,238.35 690.15,235.9z"/>
    </g>
  </g>
</svg>