<?xml version="1.0" encoding="utf-8"?>
<!-- Generator: flash2svg, http://dissentgraphics.com/tools/flash2svg -->
<svg id="Apps-Instabro" image-rendering="optimizeSpeed" baseProfile="basic" version="1.1" style="background-color:#FFFFFF" x="0px" y="0px" width="1024px" height="1024px" viewBox="0 0 1024 1024" enable-background="new 0 0 1024 1024" xmlns="http://www.w3.org/2000/svg" xmlns:xlink="http://www.w3.org/1999/xlink">
  <defs transform="matrix(1 0 0 1 0 0) "/>
  <g id="background-circle-shadow">
    <g id="shape">
      <path id="path" fill="#000000" fill-opacity="0.09803921568627451" d="M969.6,351.25 Q961,330.4 950.2,310.4 C946.15,302.85 941.85,295.35 937.3,288 917.75,256.3 893.9,226.35 865.75,198.2 773.6,106.05 662.3,59.95 531.95,59.95 401.6,59.95 290.35,106.05 198.2,198.2 106.05,290.35 59.95,401.6 59.95,531.95 59.95,662.3 106.05,773.6 198.2,865.75 290.35,957.9 401.6,1003.95 531.95,1003.95 662.3,1003.95 773.6,957.9 865.75,865.75 916.5,814.95 953.3,758.35 976.1,696 994.65,645.15 1003.95,590.5 1003.95,531.95 1003.95,487.05 998.5,444.4 987.55,404 986.3,399.45 985,394.9 983.65,390.4 979.55,377.1 974.85,364.05 969.6,351.25z"/>
    </g>
  </g>
  <g id="background-circle">
    <g id="shape2">
      <path id="path1" fill="#36B4C1" fill-opacity="1" d="M969.7,392 C968.6,387.65 967.35,383 966.05,378.4 965.05,375 964.05,371.55 962.9,367.9 961.3,362.75 959.5,357.4 957.6,352.05 951.15,333.8 943.45,316 934.45,298.4 930.65,291 926.5,283.45 922.15,276 901.85,241.5 876.35,208.8 845.8,178.25 773.2,105.65 688.65,61.6 592.15,46.2 575.9,43.6 559.35,41.8 542.1,40.85 532.4,40.3 522.25,40 512,40 502.65,40 493.4,40.25 484.1,40.75 365.75,46.85 263.8,92.7 178.25,178.25 Q40,316.5 40,512 C40,642.35 86.1,753.65 178.25,845.8 234.95,902.45 298.8,941.7 369.35,963.35 406.1,974.6 444.15,981.2 484.1,983.3 484.25,983.3 484.35,983.3 484.5,983.3 493,983.75 501.1,984 509,984 510.2,984 511.1,984 512,984 522.3,984 532.5,983.7 542.1,983.2 544.6,983.05 546.85,982.9 549.05,982.75 569.25,981.3 588.95,978.7 607.75,975.05 615.7,973.5 623.55,971.75 631.15,969.9 711.95,949.6 783.3,908.3 845.8,845.8 894.4,797.2 930.2,743.3 953.15,684 971.6,636.35 981.8,585.2 983.7,530.5 983.9,524.45 984,518.25 984,512 984,511.35 984,510.65 984,510 984,509.65 984,509.35 984,509 983.8,468.35 979.05,429.5 969.7,392z"/>
    </g>
  </g>
  <g id="object-shadow">
    <g id="shape4">
      <path id="path2" fill="#000000" fill-opacity="0.2" d="M953.15,684 Q972.713,633.523 979.875,577.925 L633,231.05 568.45,334 467,232.55 403.3,525 556,677.7 485.825,808.325 644,966.5 C719.7,945.05 786.7,904.9 845.8,845.8 894.4,797.2 930.2,743.3 953.15,684z"/>
    </g>
  </g>
  <g id="Calque.__201">
    <g id="shape6">
      <path id="path3" fill="#FFFFFF" fill-opacity="1" d="M803.35,526.65 Q803.35,510.1 791.65,498.4 C783.8,490.55 774.4,486.65 763.35,486.65 752.3,486.65 742.9,490.55 735.1,498.4 L512.05,721.45 289,498.4 C281.15,490.55 271.75,486.65 260.7,486.65 249.65,486.65 240.25,490.55 232.45,498.4 224.6,506.2 220.7,515.6 220.7,526.65 220.7,537.7 224.6,547.1 232.45,554.95 L482.45,804.95 C490.25,812.75 499.65,816.65 510.7,816.65 511.15,816.65 511.6,816.65 512.05,816.65 512.5,816.65 512.9,816.65 513.35,816.65 524.4,816.65 533.8,812.75 541.65,804.95 L791.65,554.95 C799.45,547.1 803.35,537.7 803.35,526.65z M469,247.35 C469,236.3 465.1,226.9 457.3,219.1 449.45,211.25 440.05,207.35 429,207.35 417.95,207.35 408.55,211.25 400.75,219.1 392.9,226.9 389,236.3 389,247.35 L389,494.35 C389,505.4 392.9,514.8 400.75,522.65 408.55,530.45 417.95,534.35 429,534.35 440.05,534.35 449.45,530.45 457.3,522.65 465.1,514.8 469,505.4 469,494.35 L469,247.35z M635,247.35 C635,236.3 631.1,226.9 623.3,219.1 615.45,211.25 606.05,207.35 595,207.35 583.95,207.35 574.55,211.25 566.75,219.1 558.9,226.9 555,236.3 555,247.35 L555,494.35 C555,505.4 558.9,514.8 566.75,522.65 574.55,530.45 583.95,534.35 595,534.35 606.05,534.35 615.45,530.45 623.3,522.65 631.1,514.8 635,505.4 635,494.35 L635,247.35z"/>
    </g>
  </g>
</svg>