<?xml version="1.0" encoding="utf-8"?>
<!-- Generator: flash2svg, http://dissentgraphics.com/tools/flash2svg -->
<svg xmlns:xlink="http://www.w3.org/1999/xlink" id="LastFm" image-rendering="optimizeSpeed" baseProfile="basic" version="1.1" style="background-color:#ffffff" x="0px" y="0px" width="1024px" height="1024px" viewBox="0 0 1024 1024" enable-background="new 0 0 1024 1024" xmlns="http://www.w3.org/2000/svg">
  <defs transform="matrix(1 0 0 1 0 0) "/>
  <g id="shadow">
    <g id="shape">
      <path id="path" fill="#000000" fill-opacity="0.09803921568627451" d="M969.65,351.3 Q961.05,330.45 950.25,310.45 C946.2,302.9 941.9,295.4 937.35,288.05 917.8,256.35 893.95,226.4 865.8,198.25 773.65,106.1 662.35,60 532,60 401.65,60 290.4,106.1 198.25,198.25 106.1,290.4 60,401.65 60,532 60,662.35 106.1,773.65 198.25,865.8 290.4,957.95 401.65,1004 532,1004 662.35,1004 773.65,957.95 865.8,865.8 916.55,815 953.35,758.4 976.15,696.05 994.7,645.2 1004,590.55 1004,532 1004,487.1 998.55,444.45 987.6,404.05 986.35,399.5 985.05,394.95 983.7,390.45 979.6,377.15 974.9,364.1 969.65,351.3z"/>
    </g>
  </g>
  <g id="bg">
    <g id="shape2">
      <path id="path1" fill="#C33429" fill-opacity="1" d="M969.75,394 C968.65,389.65 967.4,385 966.1,380.4 963.6,371.65 960.75,362.8 957.65,354.05 951.2,335.8 943.5,318 934.5,300.4 930.7,293 926.55,285.45 922.2,278 901.9,243.5 876.4,210.8 845.85,180.25 806.9,141.3 764.5,110.55 718.35,87.9 679.05,68.6 636.9,55.35 592.2,48.2 575.95,45.6 559.4,43.8 542.15,42.85 532.45,42.3 522.3,42 512.05,42 502.7,42 493.45,42.25 484.15,42.75 477.45,43.1 470.8,43.55 464.1,44.2 407.25,49.4 354.3,64 305.15,88.2 259.55,110.6 217.25,141.3 178.3,180.25 89.05,269.5 43,376.75 40.2,501.75 Q40.05,507.85 40.05,514 C40.05,644.35 86.15,755.65 178.3,847.8 263.55,933.05 365.15,978.85 483,985.2 483.35,985.25 483.75,985.25 484.15,985.3 484.3,985.3 484.4,985.3 484.55,985.3 493.05,985.75 501.15,986 509.05,986 510.25,986 511.15,986 512.05,986 522.35,986 532.55,985.7 542.15,985.2 544.65,985.05 546.9,984.9 549.1,984.75 569.3,983.3 589,980.7 607.8,977.05 615.75,975.5 623.6,973.75 631.2,971.9 712,951.6 783.35,910.3 845.85,847.8 851.95,841.7 857.85,835.55 863.35,829.5 903.2,785.65 933.1,737.9 953.2,686 962.3,662.55 969.35,638.25 974.5,612.95 979.7,587.15 982.8,560.3 983.75,532.5 983.95,526.45 984.05,520.25 984.05,514 984.05,513.35 984.05,512.65 984.05,512 984.05,511.65 984.05,511.35 984.05,511 984.05,507.9 984,504.8 983.95,501.65 983.1,464.45 978.4,428.65 969.75,394z"/>
    </g>
  </g>
  <g id="bg1">
    <g id="shape4">
      <path id="path2" fill="#000000" fill-opacity="0.2" d="M974.5,612.95 Q978.15,594.864 980.4,576.2 L748.05,343.85 640.05,370.05 630.15,491.4 546.8,408.05 376.05,369.35 262.15,456.05 262.9,640.05 601.15,978.3 C603.6,977.85 605.7,977.45 607.8,977.05 615.75,975.5 623.6,973.75 631.2,971.9 712,951.6 783.35,910.3 845.85,847.8 851.95,841.7 857.85,835.55 863.35,829.5 903.2,785.65 933.1,737.9 953.2,686 962.3,662.55 969.35,638.25 974.5,612.95z"/>
    </g>
  </g>
  <g id="svg2">
    <g id="shape6">
      <path id="path3" fill="#FFFFFF" fill-opacity="1" d="M714.45,327.85 L714.05,327.75 C708.5,326.45 697.65,325.5 681.5,324.9 L679.8,324.85 C648.05,325.55 622.65,337.5 603.7,360.7 L603.75,360.65 C586.3,381.9 579.1,404.65 582.15,428.95 L582.4,430.8 C587.95,464.3 601.45,489.15 622.85,505.35 L623,505.5 C635.75,516.15 655.9,525.05 683.45,532.15 701.7,537.5 716.05,543.75 726.6,550.8 737.75,558.6 743.8,568.35 744.85,580 745.45,597.4 739.35,610.95 726.55,620.65 L726.5,620.7 726.45,620.7 C715.15,629.3 702.25,633.65 687.7,633.7 658.85,630.75 635.25,610.2 616.8,572.15 610.05,557.7 603,540.95 595.65,521.9 595.6,521.8 595.6,521.7 595.55,521.6 586.65,497.85 579.6,479.2 574.35,465.55 L574.35,465.5 C554,412.05 528.75,375.15 498.65,354.7 L498.7,354.75 C473.65,336.1 439.3,326.15 395.65,324.9 L394,324.85 C341.45,325.8 297.45,346.75 262,387.8 261.95,387.8 261.95,387.8 261.95,387.85 230.15,424.45 214.1,465.05 213.85,509.6 L213.9,511.1 C215.6,558.65 230.8,600.25 259.45,635.9 294.65,679.7 340.9,700.8 398.15,699.2 453.45,698.85 495.1,681.65 523.15,647.65 529,640.7 531.6,632.75 530.95,623.8 530.25,614.85 526.45,607.4 519.6,601.5 512.7,595.6 504.75,593 495.8,593.7 486.85,594.35 479.4,598.15 473.45,605 456.1,623.9 430.85,633.45 397.7,633.7 L396.8,633.75 C361.15,635 332.35,622.05 310.5,594.85 290.95,570.55 280.6,542.2 279.35,509.85 280,480.95 290.7,454.6 311.45,430.75 L311.5,430.7 C333.95,404.7 361.7,391.25 394.85,390.35 L395.3,390.35 C422.75,391.4 444.5,397.3 460.65,408.05 L460.7,408.1 C481.05,423.6 498.55,450.5 513.15,488.85 L513.2,488.95 C518.4,502.5 525.45,521.15 534.3,544.85 L534.4,545.1 C542.4,565.95 550.1,584.25 557.55,600 L557.65,600.2 557.65,600.3 C589.3,665.95 631.9,698.9 685.4,699.2 L686.5,699.2 C716.4,699.25 742.95,690.45 766.15,672.8 L766.1,672.9 C796.2,650.1 810.95,618.45 810.3,577.9 L810.3,577.35 C809.5,544.8 794.05,518 764,497 L763.9,496.95 C748.75,486.15 727.75,476.85 701,469.05 L699.95,468.75 C683.7,464.6 671.6,459.7 663.7,454.15 L663.65,454.15 663.55,454.05 C655.25,446.5 649.8,435.6 647.25,421.35 647,414.6 649.4,408.25 654.4,402.2 L654.4,402.15 C660.7,394.4 669.15,390.5 679.75,390.35 689.9,390.75 696.8,391.25 700.45,391.85 703.55,392.6 706.3,394.1 708.75,396.35 715.4,402.5 723.25,405.45 732.25,405.1 741.25,404.75 748.85,401.3 755,394.65 761.15,388 764.1,380.2 763.75,371.2 763.4,362.2 759.95,354.6 753.4,348.45 742.05,337.9 729.1,331 714.45,327.85z"/>
    </g>
  </g>
</svg>