
<svg xmlns="http://www.w3.org/2000/svg" version="1.1" xmlns:xlink="http://www.w3.org/1999/xlink" preserveAspectRatio="none" x="0px" y="0px" width="1024px" height="1024px" viewBox="0 0 1024 1024">
<defs>
<g id="Layer4_0_FILL">
<path fill="#000000" fill-opacity="0.09803921568627451" stroke="none" d="
M 969.6 351.25
Q 961 330.4 950.2 310.4 944.1 299.05 937.3 288 907.95 240.45 865.75 198.2 727.5 59.95 531.95 59.95 336.45 59.95 198.2 198.2 59.95 336.45 59.95 531.95 59.95 727.5 198.2 865.75 336.45 1003.95 531.95 1003.95 727.5 1003.95 865.75 865.75 941.9 789.55 976.1 696 1003.95 619.75 1003.95 531.95 1003.95 464.6 987.55 404 985.7 397.15 983.65 390.4 977.5 370.45 969.6 351.25 Z"/>
</g>

<g id="Layer3_0_FILL">
<path fill="#8BC34A" stroke="none" d="
M 969.7 392
Q 967.95 385.15 966.05 378.4 964.52578125 373.114453125 962.85 367.85 960.3787109375 359.903125 957.6 352.05 947.85 324.5 934.45 298.4 928.65 287.05 922.15 276 891.5 224 845.8 178.25 736.8 69.25 592.15 46.2 567.65 42.3 542.1 40.85 527.2 40 512 40 497.9 40 484.1 40.75 306.55 49.95 178.25 178.25 40 316.5 40 512 40 707.55 178.25 845.8 263.0400390625 930.55703125 369.35 963.35 423.8880859375 980.1630859375 484.1 983.3 484.3 983.3 484.5 983.3 496.65 983.9 509 984 510.5 984 512 984 527.25 984 542.1 983.2 545.6 983 549.05 982.75 579.1 980.6 607.75 975.05 619.55 972.75 631.15 969.9 751.75 939.85 845.8 845.8 918.7 772.85 953.15 684 980.9 612.4 983.7 530.5 984 521.3 984 512 984 511 984 510 984 509.5 984 509 983.65 447.7 969.7 392 Z"/>
</g>

<g id="Layer2_0_FILL">
<path fill="#000000" fill-opacity="0.2" stroke="none" d="
M 800.95 496.45
L 715.85 441.85 635 361 320.5 518.25 269.45 665.05 583.5 979.1
Q 595.7494140625 977.3748046875 607.75 975.05 619.55 972.75 631.15 969.9 751.75 939.85 845.8 845.8 918.7 772.85 953.15 684 958.1533203125 671.090625 962.35 657.85
L 800.95 496.45
M 531 589
L 531 497 623 497 623 589 531 589
M 671 586
L 671 506 751 506 751 586 671 586 Z"/>
</g>

<g id="Layer0_0_FILL">
<path fill="#FFFFFF" stroke="none" d="
M 16.75 8.4
L 17.2 8.4
Q 16.7 5.8 14.3 4.05 11.9 2.3 8.65 2.3 5.05 2.3 2.55 4.45 0 6.55 0 9.55 0 12.85 2.95 15 3.2 15.15 3.2 15.5
L 3.2 15.65 2.75 17.35
Q 2.75 17.65 3.05 17.65
L 3.2 17.55 5.1 16.5
Q 5.35 16.35 5.55 16.35
L 5.8 16.4
Q 7.25 16.8 8.65 16.8
L 9.15 16.75
Q 8.85 15.95 8.85 15 8.85 12.25 11.15 10.35 13.5 8.4 16.75 8.4
M 11.55 8.4
Q 11.05 8.4 10.75 8.05 10.4 7.75 10.4 7.25 10.4 6.75 10.75 6.45 11.05 6.1 11.55 6.1 12.05 6.1 12.35 6.45 12.7 6.75 12.7 7.25 12.7 7.75 12.35 8.05 12.05 8.4 11.55 8.4
M 4.95 8.05
Q 4.6 7.75 4.6 7.25 4.6 6.75 4.95 6.45 5.25 6.1 5.75 6.1 6.25 6.1 6.55 6.45 6.9 6.75 6.9 7.25 6.9 7.75 6.55 8.05 6.25 8.4 5.75 8.4 5.25 8.4 4.95 8.05
M 21.3 19.95
Q 21.3 19.7 21.5 19.55 24 17.7 24 15 24 12.5 21.9 10.7 19.75 8.95 16.75 8.95 13.75 8.95 11.65 10.7 9.5 12.5 9.5 15 9.5 17.5 11.65 19.25 13.75 21 16.75 21 18 21 19.1 20.7
L 19.3 20.65 19.7 20.75 21.3 21.7 21.4 21.75
Q 21.65 21.75 21.65 21.5
L 21.65 21.3 21.3 20.1 21.3 19.95
M 19.15 14.05
Q 18.75 14.05 18.45 13.75 18.2 13.45 18.2 13.05 18.2 12.65 18.45 12.4 18.75 12.1 19.15 12.1 19.55 12.1 19.85 12.4 20.1 12.65 20.1 13.05 20.1 13.45 19.85 13.75 19.55 14.05 19.15 14.05
M 15 13.75
Q 14.75 14.05 14.35 14.05 13.95 14.05 13.65 13.75 13.35 13.45 13.35 13.05 13.35 12.65 13.65 12.4 13.95 12.1 14.35 12.1 14.75 12.1 15 12.4 15.3 12.7 15.3 13.05 15.3 13.45 15 13.75 Z"/>
</g>
</defs>

<g transform="matrix( 1, 0, 0, 1, 0,0) ">
<use xlink:href="#Layer4_0_FILL"/>
</g>

<g transform="matrix( 1, 0, 0, 1, 0,0) ">
<use xlink:href="#Layer3_0_FILL"/>
</g>

<g transform="matrix( 1, 0, 0, 1, 0,0) ">
<use xlink:href="#Layer2_0_FILL"/>
</g>

<g transform="matrix( 27.10308837890625, 0, 0, 27.10308837890625, 186.8,186.7) ">
<use xlink:href="#Layer0_0_FILL"/>
</g>
</svg>
