<?xml version="1.0" encoding="utf-8"?>
<!-- Generator: flash2svg, http://dissentgraphics.com/tools/flash2svg -->
<svg xmlns:xlink="http://www.w3.org/1999/xlink" id="Apps-BBedit" image-rendering="optimizeSpeed" baseProfile="basic" version="1.1" style="background-color:#ffffff" x="0px" y="0px" width="1024px" height="1024px" viewBox="0 0 1024 1024" enable-background="new 0 0 1024 1024" xmlns="http://www.w3.org/2000/svg">
  <defs transform="matrix(1 0 0 1 0 0) "/>
  <g id="shadow">
    <g id="shape">
      <path id="path" fill="#000000" fill-opacity="0.09803921568627451" d="M965.65,350.3 Q957.05,329.45 946.25,309.45 C942.2,301.9 937.9,294.4 933.35,287.05 913.8,255.35 889.95,225.4 861.8,197.25 769.65,105.1 658.35,59 528,59 397.65,59 286.4,105.1 194.25,197.25 102.1,289.4 56,400.65 56,531 56,661.35 102.1,772.65 194.25,864.8 286.4,956.95 397.65,1003 528,1003 658.35,1003 769.65,956.95 861.8,864.8 912.55,814 949.35,757.4 972.15,695.05 990.7,644.2 1000,589.55 1000,531 1000,486.1 994.55,443.45 983.6,403.05 982.35,398.5 981.05,393.95 979.7,389.45 975.6,376.15 970.9,363.1 965.65,350.3z"/>
    </g>
  </g>
  <g id="circle">
    <g id="shape2">
      <path id="path1" fill="#999ADA" fill-opacity="1" d="M969.75,392.05 C968.65,387.7 967.4,383.05 966.1,378.45 963.6,369.7 960.75,360.85 957.65,352.1 951.2,333.85 943.5,316.05 934.5,298.45 930.7,291.05 926.55,283.5 922.2,276.05 L922.175,276.05 Q891.574,224.04 845.85,178.3 C753.9,86.35 643,40.3 513.05,40.05 L513.05,512.2 513.05,513 514.15,513 984.05,513 C984.05,512.7 984.05,512.4 984.05,512.05 984.05,470.3 979.35,430.45 969.75,392.05z M40.05,512.05 C40.05,512.1 40.05,512.15 40.05,512.2 40.1,642.5 86.15,753.7 178.3,845.85 246.35,913.9 324.8,956.8 413.2,974.5 445.15,980.9 477.95,984.05 512.05,984.05 512.4,984.05 512.7,984.05 513,984.05 L513,512.2 513,512.05 512.15,512.05 40.05,512.05z"/>
      <path id="path2" fill="#494BC5" fill-opacity="1" d="M984.05,514.2 C984.05,513.8 984.05,513.4 984.05,513 L514.15,513 514.15,984.05 C643.7,983.55 754.25,937.45 845.85,845.85 894.45,797.25 930.25,743.35 953.2,684.05 970.2,640.1 980.2,593.25 983.15,543.3 983.7,533.8 984.05,524.15 984.05,514.2z M512.15,40.05 C512.1,40.05 512.1,40.05 512.05,40.05 381.7,40.05 270.45,86.15 178.3,178.3 86.15,270.45 40.05,381.7 40.05,512.05 L512.15,512.05 512.15,40.05z"/>
      <path id="path3" fill="#0B509D" fill-opacity="1" d="M513.05,40.05 C512.75,40.05 512.45,40.05 512.15,40.05 L512.15,512.05 513,512.05 513,512.2 513.05,512.2 513.05,40.05z"/>
      <path id="path8" fill="#1069CB" fill-opacity="1" d="M513.05,512.2 L513,512.2 513,984.05 C513.4,984.05 513.8,984.05 514.15,984.05 L514.15,513 513.05,513 513.05,512.2z"/>
    </g>
  </g>
  <g id="inner-circle">
    <g id="shape12">
      <path id="path9" fill="#494BC5" fill-opacity="1" d="M781.7,276.05 C776.55,270.25 771.05,264.45 765.35,258.75 695.65,189.05 611.55,154.1 513,153.85 L513,512.05 870.25,512.05 C870.25,501.7 869.85,491.5 869.1,481.35 868.25,470.65 867,460.1 865.3,449.65 862.1,429.9 857.25,410.8 850.7,392.05 836.15,350.2 813.15,311.45 781.7,276.05z M153.85,513.05 C154.1,611.55 189.05,695.65 258.75,765.35 328.7,835.3 413.1,870.25 512,870.25 L512,513.05 153.85,513.05z"/>
      <path id="path10" fill="#999ADA" fill-opacity="1" d="M765.35,765.35 C790.55,740.15 811.2,713.05 827.35,684.05 Q870.25,606.944 870.25,512.05 L513,512.05 513,153.85 C512.7,153.85 512.4,153.85 512.05,153.85 413.1,153.85 328.7,188.8 258.75,258.75 188.8,328.7 153.85,413.1 153.85,512.05 153.85,512.4 153.85,512.7 153.85,513.05 L512,513.05 512,870.25 512.05,870.25 C551.1,870.25 587.85,864.8 622,854.05 675.35,837.2 723,807.7 765.35,765.35z"/>
    </g>
  </g>
  <g id="ico-shadow">
    <g id="shape18">
      <path id="path13" fill="#000000" fill-opacity="0.2" d="M827.35,684.05 Q861.051,623.478 868.275,551.925 L654.4,338.05 423.2,352.05 344.9,740.45 472.8,868.35 C485.6,869.6 498.65,870.25 512,870.25 L512.05,870.25 C551.1,870.25 587.85,864.8 622,854.05 675.35,837.2 723,807.7 765.35,765.35 790.55,740.15 811.2,713.05 827.35,684.05z"/>
    </g>
  </g>
  <g id="ico">
    <g id="shape20">
      <path id="path14" fill="#FFFFFF" fill-opacity="1" d="M665.75,439.65 Q670.05,424.15 670.05,407.1 C670.05,369.35 659.3,339.3 637.8,316.95 626.95,306 613.25,297.65 596.6,292 579.95,286.45 560.25,283.65 537.5,283.65 L344.9,283.65 344.9,740.45 539.6,740.45 C587.8,740.45 623.15,729.3 645.7,706.95 668.05,684.8 679.2,650.35 679.2,603.7 679.2,586.45 675.95,570.5 669.4,555.85 656.45,525.75 635.2,508.25 605.75,503.4 616.1,501.95 625.25,498.4 633.2,492.7 641.1,487.25 647.8,479.6 653.3,469.85 658.75,460.35 662.9,450.3 665.75,439.65z M558.2,382.15 C565.7,388.8 569.45,399.55 569.45,414.4 569.45,429.25 566.1,440.5 559.45,448.2 552.75,455.75 543.2,459.55 530.75,459.55 L447.05,459.55 447.05,372.35 530.75,372.35 C541.6,372.35 550.75,375.6 558.2,382.15z M567.05,558.85 C573.6,569.2 576.85,582.5 576.85,598.8 576.85,616.45 573.4,629.75 566.45,638.65 559.5,647.4 549.05,651.75 535.05,651.75 L447.05,651.75 447.05,543.25 535.05,543.25 C549.65,543.25 560.3,548.45 567.05,558.85z"/>
    </g>
  </g>
</svg>