
<svg xmlns="http://www.w3.org/2000/svg" version="1.1" xmlns:xlink="http://www.w3.org/1999/xlink" preserveAspectRatio="none" x="0px" y="0px" width="1024px" height="1024px" viewBox="0 0 1024 1024">
<defs>
<g id="Layer7_0_FILL">
<path fill="#000000" fill-opacity="0.09803921568627451" stroke="none" d="
M 969.6 351.25
Q 961 330.4 950.2 310.4 944.1 299.05 937.3 288 907.95 240.45 865.75 198.2 727.5 59.95 531.95 59.95 336.45 59.95 198.2 198.2 59.95 336.45 59.95 531.95 59.95 727.5 198.2 865.75 336.45 1003.95 531.95 1003.95 727.5 1003.95 865.75 865.75 941.9 789.55 976.1 696 1003.95 619.75 1003.95 531.95 1003.95 464.6 987.55 404 985.7 397.15 983.65 390.4 977.5 370.45 969.6 351.25 Z"/>
</g>

<g id="Layer6_0_FILL">
<path fill="#72E79F" stroke="none" d="
M 969.7 392
Q 967.95 385.15 966.05 378.4 964.52578125 373.114453125 962.85 367.85 960.3787109375 359.903125 957.6 352.05 947.85 324.5 934.45 298.4 928.65 287.05 922.15 276 891.5 224 845.8 178.25 736.8 69.25 592.15 46.2 567.65 42.3 542.1 40.85 527.2 40 512 40 497.9 40 484.1 40.75 306.55 49.95 178.25 178.25 40 316.5 40 512 40 707.55 178.25 845.8 263.0400390625 930.55703125 369.35 963.35 423.8880859375 980.1630859375 484.1 983.3 484.3 983.3 484.5 983.3 496.65 983.9 509 984 510.5 984 512 984 527.25 984 542.1 983.2 545.6 983 549.05 982.75 579.1 980.6 607.75 975.05 619.55 972.75 631.15 969.9 751.75 939.85 845.8 845.8 918.7 772.85 953.15 684 980.9 612.4 983.7 530.5 984 521.3 984 512 984 511 984 510 984 509.5 984 509 983.65 447.7 969.7 392 Z"/>
</g>

<g id="Layer4_0_FILL">
<path fill="#74B9FF" stroke="none" d="
M 200.45 362
L 106.65 268.2
Q 40 376.3 40 512 40 707.55 178.25 845.8 263.05 930.55 369.35 963.35 423.9 980.15 484.1 983.3 484.3 983.3 484.5 983.3 496.65 983.9 509 984 510.5 984 512 984 527.25 984 542.1 983.2 545.6 983 549.05 982.75 566.219921875 981.521484375 582.9 979.15
L 300.4 696.65
Q 295.905078125 692.455078125 291.5 688.05 287.099609375 683.649609375 282.9 679.15 204.7212890625 595.3734375 200.45 481 200.2 474.35 200.2 467.6 200.2 460.85 200.45 454.2
L 200.45 362 Z"/>

<path fill="#588CC1" stroke="none" d="
M 922.15 276
Q 919.8 272.05 917.4 268.15
L 823.55 362 823.55 454.2
Q 823.8 460.85 823.8 467.6 823.8 474.35 823.55 481 819.05 601.5 732.5 688.05 642.2 778.35 515 779.4 514 779.4 513 779.4
L 511 779.4
Q 510 779.4 509 779.4 388.005078125 778.401171875 300.4 696.65
L 582.9 979.15
Q 595.4701171875 977.42890625 607.75 975.05 619.55 972.75 631.15 969.9 751.75 939.85 845.8 845.8 918.7 772.85 953.15 684 980.9 612.4 983.7 530.5 984 521.3 984 512 984 511 984 510 984 509.5 984 509 983.65 447.7 969.7 392 967.95 385.15 966.05 378.4 964.55 373.1 962.9 367.9 960.4 359.9 957.6 352.05 947.85 324.5 934.45 298.4 928.65 287.05 922.15 276 Z"/>

<path fill="#050505" stroke="none" d="
M 733 336.7
Q 723.05 334.4 713 332.4
L 713 486 713 616
Q 713 635.05 699.55 648.5 686.05 662 667 662
L 482 662 357 662
Q 337.95 662 324.45 648.5 311 635.05 311 616
L 311 332.4
Q 300.95 334.4 291 336.7 245.1 347.05 200.45 362
L 200.45 454.2 200.45 481
Q 204.7212890625 595.3734375 282.9 679.15 287.099609375 683.649609375 291.5 688.05 295.905078125 692.455078125 300.4 696.65 388.005078125 778.401171875 509 779.4 510 779.4 511 779.4
L 513 779.4
Q 514 779.4 515 779.4 642.2 778.35 732.5 688.05 819.05 601.5 823.55 481
L 823.55 454.2 823.55 362
Q 778.9 347.05 733 336.7 Z"/>

<path fill="#1E1E1E" stroke="none" d="
M 713 486
L 664.6 437.6 664.6 649.7 664.6 437.6 612.45 385.45 404 584 482 662 667 662
Q 686.05 662 699.55 648.5 713 635.05 713 616
L 713 486 Z"/>

<path fill="#72E79F" stroke="none" d="
M 823.8 467.6
Q 823.8 460.85 823.55 454.2
L 823.55 481
Q 823.8 474.35 823.8 467.6
M 200.45 481
L 200.45 454.2
Q 200.2 460.85 200.2 467.6 200.2 474.35 200.45 481 Z"/>

<path fill="#3A3A3A" stroke="none" d="
M 651 321.9
Q 682.3 326.1 713 332.4 723.05 334.4 733 336.7 778.9 347.05 823.55 362
L 917.4 268.15
Q 888.05 220.55 845.8 178.25 736.8 69.25 592.15 46.2 567.65 42.3 542.1 40.85 527.2 40 512 40 497.9 40 484.1 40.75 306.55 49.95 178.25 178.25 135.95 220.55 106.65 268.2
L 200.45 362
Q 245.1 347.05 291 336.7 300.95 334.4 311 332.4 341.7 326.1 373 321.9 439.7 312.85 509 312.95 510.5 312.95 512 312.95 513.5 312.95 515 312.95 584.3 312.85 651 321.9 Z"/>

<path fill="#282828" stroke="none" d="
M 713 332.4
Q 682.3 326.1 651 321.9 584.3 312.85 515 312.95 513.5 312.95 512 312.95 510.5 312.95 509 312.95 439.7 312.85 373 321.9 341.7 326.1 311 332.4
L 311 616
Q 311 635.05 324.45 648.5 337.95 662 357 662
L 482 662 404 584 612.45 385.45 664.6 437.6 664.6 334.25 664.6 437.6 713 486 713 332.4
M 359.45 334.25
L 359.45 649.7 359.45 334.25 Z"/>
</g>

<g id="Layer2_0_FILL">
<path fill="#050505" stroke="none" d="
M 606.75 388.25
Q 567.5 349 512 349 456.5 349 417.25 388.25 378 427.5 378 483 378 538.5 417.25 577.75 433.9 594.4 453.5 604 480.05 617 512 617 543.95 617 570.5 604 590.1 594.4 606.75 577.75 646 538.5 646 483 646 427.5 606.75 388.25
M 512 424
Q 537.7 424 555.85 442.15 574 460.3 574 486 574 511.7 555.85 529.85 537.7 548 512 548 486.3 548 468.15 529.85 450 511.7 450 486 450 460.3 468.15 442.15 486.3 424 512 424 Z"/>

<path fill="#EB4D4B" stroke="none" d="
M 494.3 468.3
Q 487 475.65 487 486 487 496.35 494.3 503.65 501.65 511 512 511 522.35 511 529.65 503.65 537 496.35 537 486 537 475.65 529.65 468.3 522.35 461 512 461 501.65 461 494.3 468.3 Z"/>
</g>

<g id="Layer1_0_FILL">
<path fill="#FFFFFF" stroke="none" d="
M 261.05 514.6
Q 247.85 518.15 243.95 541 240.05 563.85 247.75 592.6 255.45 621.3 270.3 639.15 285 657 298.2 653.5 311.4 649.95 315.35 627.1 319.2 604.25 311.5 575.55 303.8 546.8 289 528.9 274.2 511.05 261.05 514.6 Z"/>
</g>

<path id="Layer4_0_1_STROKES" stroke="#000000" stroke-opacity="0.2" stroke-width="19" stroke-linejoin="round" stroke-linecap="round" fill="none" d="
M 664.6 334.25
L 664.6 437.6 664.6 649.7
M 359.45 334.25
L 359.45 649.7"/>

<path id="Layer2_0_1_STROKES" stroke="#727272" stroke-width="27" stroke-linejoin="round" stroke-linecap="round" fill="none" d="
M 646 483
Q 646 538.5 606.75 577.75 590.1 594.4 570.5 604 543.95 617 512 617 480.05 617 453.5 604 433.9 594.4 417.25 577.75 378 538.5 378 483 378 427.5 417.25 388.25 456.5 349 512 349 567.5 349 606.75 388.25 646 427.5 646 483 Z"/>
</defs>

<g transform="matrix( 1, 0, 0, 1, 0,0) ">
<use xlink:href="#Layer7_0_FILL"/>
</g>

<g transform="matrix( 1, 0, 0, 1, 0,0) ">
<use xlink:href="#Layer6_0_FILL"/>
</g>

<g transform="matrix( 1, 0, 0, 1, 0,0) ">
<use xlink:href="#Layer4_0_FILL"/>

<use xlink:href="#Layer4_0_1_STROKES"/>
</g>

<g transform="matrix( 1, 0, 0, 1, 0,0) ">
<use xlink:href="#Layer2_0_FILL"/>

<use xlink:href="#Layer2_0_1_STROKES"/>
</g>

<g transform="matrix( 1, 0, 0, 1, 0,0) ">
<use xlink:href="#Layer1_0_FILL"/>
</g>
</svg>
