<?xml version="1.0" encoding="utf-8"?>
<!-- Generator: flash2svg, http://dissentgraphics.com/tools/flash2svg -->
<svg xmlns:xlink="http://www.w3.org/1999/xlink" id="Apps-Unified-Remote" image-rendering="optimizeSpeed" baseProfile="basic" version="1.1" style="background-color:#ffffff" x="0px" y="0px" width="1024px" height="1024px" viewBox="0 0 1024 1024" enable-background="new 0 0 1024 1024" xmlns="http://www.w3.org/2000/svg">
  <defs transform="matrix(1 0 0 1 0 0) "/>
  <g id="background-circle-shadow">
    <g id="shape">
      <path id="path" fill="#000000" fill-opacity="0.09803921568627451" d="M969.65,351.3 Q961.05,330.45 950.25,310.45 C946.2,302.9 941.9,295.4 937.35,288.05 917.8,256.35 893.95,226.4 865.8,198.25 773.65,106.1 662.35,60 532,60 401.65,60 290.4,106.1 198.25,198.25 106.1,290.4 60,401.65 60,532 60,662.35 106.1,773.65 198.25,865.8 290.4,957.95 401.65,1004 532,1004 662.35,1004 773.65,957.95 865.8,865.8 916.55,815 953.35,758.4 976.15,696.05 994.7,645.2 1004,590.55 1004,532 1004,487.1 998.55,444.45 987.6,404.05 986.35,399.5 985.05,394.95 983.7,390.45 979.6,377.15 974.9,364.1 969.65,351.3z"/>
    </g>
  </g>
  <g id="background-circle">
    <g id="shape2">
      <path id="path1" fill="#EEEEEE" fill-opacity="1" d="M966.1,378.45 C965.1,375.05 964.1,371.6 962.95,367.95 961.35,362.8 959.55,357.45 957.65,352.1 951.2,333.85 943.5,316.05 934.5,298.45 930.7,291.05 926.55,283.5 922.2,276.05 901.9,241.55 876.4,208.85 845.85,178.3 773.25,105.7 688.7,61.65 592.2,46.25 575.95,43.65 559.4,41.85 542.15,40.9 532.45,40.35 522.3,40.05 512.05,40.05 502.7,40.05 493.45,40.3 484.15,40.8 365.8,46.9 263.85,92.75 178.3,178.3 Q40.05,316.55 40.05,512.05 C40.05,642.4 86.15,753.7 178.3,845.85 235,902.5 298.85,941.75 369.4,963.4 406.15,974.65 444.2,981.25 484.15,983.35 484.3,983.35 484.4,983.35 484.55,983.35 493.05,983.8 501.15,984.05 509.05,984.05 510.25,984.05 511.15,984.05 512.05,984.05 522.35,984.05 532.55,983.75 542.15,983.25 544.65,983.1 546.9,982.95 549.1,982.8 569.3,981.35 589,978.75 607.8,975.1 615.75,973.55 623.6,971.8 631.2,969.95 712,949.65 783.35,908.35 845.85,845.85 894.45,797.25 930.25,743.35 953.2,684.05 971.65,636.4 981.85,585.25 983.75,530.55 983.95,524.5 984.05,518.3 984.05,512.05 984.05,511.4 984.05,510.7 984.05,510.05 984.05,509.7 984.05,509.4 984.05,509.05 983.85,468.4 979.1,429.55 969.75,392.05 968.65,387.7 967.4,383.05 966.1,378.45z"/>
    </g>
  </g>
  <g id="object-shadow">
    <g id="shape4">
      <path id="path2" fill="#000000" fill-opacity="0.09803921568627451" d="M953.2,684.05 C954.8,679.95 956.35,675.85 957.8,671.7 L957.775,671.675 L683.15,397.05 438.875,296.4 285.9,329.45 351.5,395.05 285.9,489.3 347.55,550.95 294.05,752.95 525,983.9 Q533.643,983.708 542.15,983.25 C544.65,983.1 546.9,982.95 549.1,982.8 569.3,981.35 589,978.75 607.8,975.1 615.75,973.55 623.6,971.8 631.2,969.95 712,949.65 783.35,908.35 845.85,845.85 894.45,797.25 930.25,743.35 953.2,684.05z M984.05,510.05 C984.05,509.7 984.05,509.4 984.05,509.05 984.05,504.4 983.95,499.8 983.8,494.95 L983.775,494.95 L752.9,264.05 778.1,399.25 976.9,598.05 C980.65,576.3 982.95,553.75 983.75,530.55 983.95,524.5 984.05,518.3 984.05,512.05 984.05,511.4 984.05,510.7 984.05,510.05z"/>
    </g>
  </g>
  <g id="Layer.__201">
    <g id="shape8">
      <path id="path5" fill="#449B45" fill-opacity="1" d="M778.1,320.25 C778.1,278.7 744.25,244.9 702.75,244.9 L623.7,244.9 C685.8,284.3 738.75,337.15 778.1,399.25 L778.1,320.25z M777.75,666.1 L777.75,661.15 C778.1,431.8 591.5,245.2 361.55,245.2 L352.6,245.2 C315.1,249.8 285.9,281.5 285.9,320.25 L285.9,329.45 C310.15,323.9 335.75,320.8 361.55,320.8 549.65,320.8 701.85,473.35 701.85,661.15 701.85,687 699.1,712.15 693.5,736.45 L702.45,736.45 C742.4,736.45 775.3,705.45 777.75,666.1z M285.9,407.85 L285.9,489.3 C308.95,479.15 334.75,473.35 361.55,473.35 465.45,473.35 549.65,557.55 549.65,661.5 549.65,688.2 544.15,713.7 534,736.8 L615.45,736.8 C622.5,712.8 626.2,687.55 626.2,661.5 626.55,515.45 507.85,396.75 361.55,396.75 335.1,396.75 309.9,400.8 285.9,407.85z"/>
      <path id="path10" fill="#1F4821" fill-opacity="1" d="M361.55,548.3 C298.85,548.3 248.15,599.1 248.15,661.75 248.15,724.4 298.85,775.15 361.55,775.15 424.2,775.15 475,724.4 475,661.75 Q475,638.7 466.05,617.6 457.45,597.25 441.75,581.55 426.05,565.85 405.65,557.2 384.6,548.3 361.55,548.3z"/>
    </g>
  </g>
</svg>