<?xml version="1.0" encoding="utf-8"?>
<!-- Generator: flash2svg, http://dissentgraphics.com/tools/flash2svg -->
<svg id="Spotify" image-rendering="optimizeSpeed" baseProfile="basic" version="1.1" style="background-color:#FFFFFF" x="0px" y="0px" width="1024px" height="1024px" viewBox="0 0 1024 1024" enable-background="new 0 0 1024 1024" xmlns="http://www.w3.org/2000/svg" xmlns:xlink="http://www.w3.org/1999/xlink">
  <defs transform="matrix(1 0 0 1 0 0) "/>
  <g id="shadow">
    <g id="shape">
      <path id="path" fill="#000000" fill-opacity="0.09803921568627451" d="M969.6,351.25 Q961,330.4 950.2,310.4 C946.15,302.85 941.85,295.35 937.3,288 917.75,256.3 893.9,226.35 865.75,198.2 773.6,106.05 662.3,59.95 531.95,59.95 401.6,59.95 290.35,106.05 198.2,198.2 106.05,290.35 59.95,401.6 59.95,531.95 59.95,662.3 106.05,773.6 198.2,865.75 290.35,957.9 401.6,1003.95 531.95,1003.95 662.3,1003.95 773.6,957.9 865.75,865.75 916.5,814.95 953.3,758.35 976.1,696 994.65,645.15 1003.95,590.5 1003.95,531.95 1003.95,487.05 998.5,444.4 987.55,404 986.3,399.45 985,394.9 983.65,390.4 979.55,377.1 974.85,364.05 969.6,351.25z"/>
    </g>
  </g>
  <g id="circle">
    <g id="shape2">
      <path id="path1" fill="#67B14B" fill-opacity="1" d="M969.7,392 C968.6,387.65 967.35,383 966.05,378.4 963.55,369.65 960.7,360.8 957.6,352.05 951.15,333.8 943.45,316 934.45,298.4 930.65,291 926.5,283.45 922.15,276 901.85,241.5 876.35,208.8 845.8,178.25 773.2,105.65 688.65,61.6 592.15,46.2 575.9,43.6 559.35,41.8 542.1,40.85 532.4,40.3 522.25,40 512,40 502.65,40 493.4,40.25 484.1,40.75 365.75,46.85 263.8,92.7 178.25,178.25 Q40,316.5 40,512 C40,642.35 86.1,753.65 178.25,845.8 263.8,931.3 365.75,977.15 484.1,983.3 484.25,983.3 484.35,983.3 484.5,983.3 493,983.75 501.1,984 509,984 510.2,984 511.1,984 512,984 522.3,984 532.5,983.7 542.1,983.2 544.6,983.05 546.85,982.9 549.05,982.75 569.25,981.3 588.95,978.7 607.75,975.05 615.7,973.5 623.55,971.75 631.15,969.9 711.95,949.6 783.3,908.3 845.8,845.8 894.4,797.2 930.2,743.3 953.15,684 971.6,636.35 981.8,585.2 983.7,530.5 983.9,524.45 984,518.25 984,512 984,511.35 984,510.65 984,510 984,509.65 984,509.35 984,509 983.8,468.35 979.05,429.5 969.7,392z"/>
    </g>
  </g>
  <g id="baf">
    <g id="shape4">
      <path id="path2" fill="#000000" fill-opacity="1" d="M712.75,139.5 C704,134.7 695.15,130.25 686.2,126.2 658.6,113.65 629.65,104.35 599.35,98.35 592.1,96.9 584.8,95.65 577.4,94.6 561.95,92.35 546.2,90.95 530.15,90.35 524.15,90.1 518.1,90 512,90 506.55,90 501.15,90.1 495.8,90.3 479.95,90.8 464.4,92.1 449.2,94.25 441.5,95.3 433.9,96.55 426.4,98 396.1,103.9 367.15,113.05 339.55,125.45 330.4,129.5 321.45,133.95 312.65,138.75 304.75,143.05 296.95,147.65 289.3,152.5 281.25,157.65 273.3,163.05 265.5,168.8 258.45,173.95 251.55,179.4 244.75,185.15 237.55,191.15 230.45,197.45 223.5,204 220.15,207.15 216.85,210.35 213.6,213.6 210.65,216.55 207.75,219.5 204.9,222.5 198.3,229.45 192,236.5 186,243.7 180.25,250.5 174.8,257.4 169.6,264.4 163.85,272.15 158.4,280.1 153.25,288.15 148.35,295.8 143.75,303.55 139.4,311.4 134.6,320.2 130.15,329.15 126,338.2 113.55,365.7 104.3,394.55 98.35,424.75 96.75,432.8 95.4,440.95 94.25,449.2 92.2,463.85 90.9,478.8 90.35,494.05 90.1,500 90,505.95 90,512 90,518.1 90.1,524.15 90.35,530.15 90.9,545.45 92.25,560.45 94.3,575.2 95.4,583.35 96.75,591.4 98.35,599.35 104.35,629.6 113.6,658.45 126.1,686 130.2,695.05 134.65,704 139.5,712.75 143.8,720.6 148.4,728.35 153.3,736 158.45,744.05 163.9,751.95 169.7,759.75 174.9,766.75 180.35,773.65 186.05,780.45 192.1,787.6 198.4,794.7 205,801.65 207.8,804.6 210.65,807.5 213.6,810.45 216.9,813.75 220.25,817 223.6,820.15 230.55,826.7 237.6,833 244.8,839 251.65,844.7 258.55,850.15 265.6,855.3 273.45,861.05 281.4,866.5 289.5,871.65 297.15,876.5 304.9,881.1 312.85,885.4 321.6,890.15 330.55,894.55 339.6,898.65 367.25,911 396.2,920.15 426.55,926.05 433.9,927.5 441.35,928.7 448.85,929.75 464.25,931.9 480,933.2 496.05,933.75 501.35,933.9 506.65,934 512,934 518.05,934 524.05,933.9 530,933.7 546.2,933.05 562.05,931.65 577.6,929.4 584.9,928.35 592.15,927.1 599.3,925.7 629.8,919.65 658.95,910.25 686.7,897.6 695.45,893.6 704.1,889.25 712.6,884.6 720.45,880.25 728.25,875.65 735.9,870.8 743.95,865.65 751.85,860.2 759.65,854.45 766.65,849.2 773.55,843.75 780.4,838.05 787.55,832 794.6,825.7 801.55,819.15 804.55,816.3 807.5,813.4 810.45,810.45 813.7,807.2 816.9,803.9 820.05,800.55 826.6,793.6 832.9,786.5 838.95,779.35 844.6,772.5 850.05,765.6 855.25,758.55 861,750.75 866.4,742.8 871.55,734.75 876.4,727.1 881,719.3 885.3,711.4 889.7,703.3 893.8,695.05 897.6,686.7 906.15,667.9 913.25,648.5 918.8,628.45 918.85,628.2 918.95,627.95 919,627.7 921.7,617.8 924.05,607.75 926,597.6 927.25,591 928.4,584.35 929.4,577.65 931.75,561.5 933.2,545.05 933.75,528.25 933.9,522.85 934,517.45 934,512 934,506.65 933.9,501.35 933.75,496.05 933.2,479.2 931.75,462.75 929.45,446.65 928.45,439.9 927.3,433.2 926.05,426.55 924.1,416.4 921.75,406.35 919.05,396.5 919,396.35 918.95,396.15 918.9,396 913.35,375.95 906.35,356.6 897.85,337.85 894,329.4 889.85,321.05 885.4,312.85 881.1,304.9 876.5,297.1 871.65,289.45 866.5,281.4 861.05,273.45 855.3,265.6 850.15,258.55 844.7,251.65 839,244.8 833,237.6 826.7,230.55 820.15,223.6 817,220.25 813.75,216.9 810.45,213.6 807.5,210.65 804.6,207.8 801.65,205 794.7,198.4 787.6,192.1 780.45,186.05 773.65,180.35 766.75,174.9 759.75,169.7 751.95,163.9 744.05,158.45 736,153.3 728.35,148.4 720.6,143.8 712.75,139.5z M784.7,784.7 Q897.7,671.75 897.7,512 C897.7,405.5 860.05,314.6 784.7,239.25 709.4,163.95 618.5,126.3 512,126.3 405.5,126.3 314.6,163.95 239.25,239.25 163.95,314.6 126.3,405.5 126.3,512 126.3,618.5 163.95,709.4 239.25,784.7 314.6,860.05 405.5,897.7 512,897.7 618.5,897.7 709.4,860.05 784.7,784.7z"/>
      <path id="path4" fill="none" stroke="#333333" stroke-opacity="1" stroke-width="26.25" stroke-linecap="round" stroke-linejoin="round" d="M784.7,784.7 Q897.7,671.75 897.7,512 C897.7,405.5 860.05,314.6 784.7,239.25 709.4,163.95 618.5,126.3 512,126.3 405.5,126.3 314.6,163.95 239.25,239.25 163.95,314.6 126.3,405.5 126.3,512 126.3,618.5 163.95,709.4 239.25,784.7 314.6,860.05 405.5,897.7 512,897.7 618.5,897.7 709.4,860.05 784.7,784.7z"/>
      <path id="path6" fill="#333333" fill-opacity="1" d="M649.05,188 C648.85,187.9 648.65,187.8 648.5,187.75 648.25,187.65 648.05,187.55 647.9,187.5 L603.8,172.65 C603.45,172.55 603.05,172.45 602.7,172.35 L590.25,184.75 571.35,165.85 C557.9,163.7 544.15,162.35 530.1,161.7 L533.05,164.65 513.05,184.65 493,164.6 496,161.65 C482.05,162.2 468.35,163.45 455,165.5 L435.85,184.65 423.1,171.9 C422.7,172 422.3,172.1 421.85,172.2 L347.35,201.25 336.15,207.6 C335.9,207.75 335.65,207.85 335.4,208 L335.4,208.05 320.05,223.35 316.7,220 C316.5,220.15 316.3,220.25 316.1,220.4 L304.4,228.85 C301.35,231.1 298.35,233.45 295.4,235.8 L301.5,241.9 281.45,261.95 273.95,254.45 C273.55,254.8 273.15,255.2 272.8,255.55 270.05,258.1 267.35,260.7 264.7,263.35 264.55,263.45 264.45,263.55 264.35,263.7 264.2,263.8 264.1,263.9 264,264 263.9,264.1 263.8,264.2 263.7,264.3 263.55,264.45 263.4,264.65 263.25,264.8 L255.9,272.4 C255.7,272.55 255.5,272.75 255.35,272.95 L262.9,280.5 242.85,300.55 236.65,294.35 C236.5,294.55 236.35,294.75 236.2,294.95 L220.75,315.55 224.3,319.1 208,335.4 C192.2,362 180.4,390.25 172.65,420.2 172.55,420.65 172.45,421.15 172.3,421.6 L185.6,434.9 165.6,454.9 165.55,454.85 C163.5,468.25 162.2,481.95 161.65,496 L165.6,492 185.65,512.05 165.55,532.15 161.65,528.25 C161.65,528.6 161.65,528.9 161.7,529.25 161.9,534.05 162.2,538.85 162.55,543.6 162.6,544.15 162.65,544.7 162.7,545.25 162.7,545.45 162.7,545.65 162.75,545.9 162.75,546.1 162.75,546.3 162.8,546.5 163.25,551.8 163.85,557.05 164.55,562.3 164.85,564.65 165.2,566.95 165.55,569.3 L165.55,569.25 185.65,589.35 172.35,602.7 C176.7,619.65 182.3,636.05 189.2,651.9 194.7,664.55 201,676.85 208.1,688.8 208.25,688.95 208.35,689.15 208.45,689.35 L224.25,705.15 220.85,708.6 C225.7,715.6 230.85,722.5 236.3,729.25 236.45,729.4 236.6,729.6 236.75,729.8 L242.8,723.7 262.85,743.75 255.4,751.2 C258.2,754.15 261.05,757.1 264,760.05 264.15,760.2 264.35,760.4 264.5,760.55 264.65,760.7 264.85,760.9 265.05,761.1 268,764.05 271,766.9 274,769.7 L281.4,762.3 301.45,782.35 295.5,788.35 C302.45,793.9 309.55,799.2 316.8,804.15 L320,800.9 334.75,815.65 420.25,851.45 C421.2,851.7 422.2,851.95 423.15,852.2 L423.2,852.2 435.8,839.5 454.85,858.55 C468.2,860.6 481.85,861.9 495.85,862.45 L493,859.6 513.1,839.5 533.15,859.55 530.45,862.35 C531.1,862.3 531.7,862.3 532.35,862.25 L560.25,859.8 C564.1,859.3 567.9,858.75 571.65,858.15 L590.25,839.55 602.5,851.8 C635.15,843.45 665.85,830.3 694.6,812.45 L694.75,812.3 706.1,800.9 708.5,803.3 C709.4,802.65 710.3,802.05 711.2,801.4 L729.7,787.4 724.65,782.35 744.7,762.3 751.1,768.7 C752.05,767.8 753,766.9 753.95,766 755.4,764.65 756.8,763.25 758.25,761.85 758.85,761.25 759.45,760.65 760.05,760.05 L767.9,752 C768.45,751.4 769.05,750.8 769.65,750.15 L763.25,743.75 783.3,723.7 788.25,728.65 C792.45,723.4 796.45,718.1 800.3,712.75 801.6,711 802.85,709.2 804.1,707.4 L804.05,707.35 801.85,705.15 812.3,694.75 812.5,694.55 C813.35,693.1 814.25,691.7 815.1,690.25 827.95,668.8 838.25,646.3 845.95,622.65 846,622.4 846.1,622.2 846.15,621.95 848.4,615 850.4,608 852.15,600.95 L840.5,589.3 858.15,571.75 858.15,571.7 C860.3,558.25 861.7,544.5 862.35,530.45 L860.55,532.15 840.5,512.1 860.5,492.1 862.35,493.95 C861.7,479.9 860.35,466.15 858.2,452.7 L840.4,434.9 852.2,423.2 852.2,423.15 C843.9,390.05 830.75,359 812.75,329.95 L812.7,329.9 801.85,319.05 804.15,316.8 C799.2,309.55 793.9,302.45 788.35,295.5 L783.3,300.5 763.25,280.45 769.7,274 C769.35,273.6 769,273.2 768.65,272.85 L760.8,264.75 C760.55,264.5 760.3,264.25 760.05,264 757.1,261.05 754.15,258.2 751.2,255.4 L744.7,261.9 724.65,241.85 729.8,236.75 C722.85,231.1 715.8,225.8 708.6,220.85 L706.1,223.3 694.15,211.35 C679.6,202.35 664.6,194.55 649.05,188z M687.55,241.85 L667.45,261.95 647.4,241.9 667.5,221.8 687.55,241.85z M726.15,280.45 L706.05,300.55 686,280.5 706.1,260.4 726.15,280.45z M667.5,339.1 L647.45,319.05 667.45,299.05 687.5,319.1 667.5,339.1z M706.1,377.7 L686.05,357.65 706.05,337.65 726.1,357.7 706.1,377.7z M744.65,339.15 L724.6,319.1 744.7,299 764.75,319.05 744.65,339.15z M783.3,377.8 L763.2,357.7 783.3,337.6 803.4,357.7 783.3,377.8z M821.85,416.35 L801.85,396.35 821.95,376.25 841.95,396.25 821.85,416.35z M821.95,493.55 L801.85,473.45 821.85,453.45 841.95,473.55 821.95,493.55z M821.95,570.75 L801.9,550.7 821.95,530.65 842,550.7 821.95,570.75z M803.3,434.9 L783.3,454.9 763.3,434.9 783.3,414.9 803.3,434.9z M744.75,416.35 L724.65,396.25 744.65,376.25 764.75,396.35 744.75,416.35z M744.7,493.5 L724.7,473.5 744.75,453.45 764.75,473.45 744.7,493.5z M726.2,434.9 L706.15,454.95 686.05,434.85 706.1,414.8 726.2,434.9z M667.5,416.3 L647.45,396.25 667.5,376.2 687.55,396.25 667.5,416.3z M667.5,493.6 L647.4,473.5 667.5,453.4 687.6,473.5 667.5,493.6z M706.05,532.15 L686.05,512.15 706.15,492.05 726.15,512.05 706.05,532.15z M667.45,570.75 L647.45,550.75 667.5,530.7 687.5,550.7 667.45,570.75z M726.15,589.35 L706.1,609.4 686,589.3 706.05,569.25 726.15,589.35z M783.35,532.15 L763.25,512.05 783.3,492 803.4,512.1 783.35,532.15z M744.7,570.8 L724.6,550.7 744.7,530.6 764.8,550.7 744.7,570.8z M803.4,589.3 L783.3,609.4 763.25,589.35 783.35,569.25 803.4,589.3z M764.75,627.95 L744.7,648 724.65,627.95 744.7,607.9 764.75,627.95z M783.3,686.6 L763.25,666.55 783.3,646.5 803.35,666.55 783.3,686.6z M687.55,627.95 L667.5,648 647.4,627.9 667.45,607.85 687.55,627.95z M706.1,686.6 L686.05,666.55 706.1,646.5 726.15,666.55 706.1,686.6z M667.5,725.2 L647.45,705.15 667.5,685.1 687.55,705.15 667.5,725.2z M687.55,782.35 L667.5,802.4 647.45,782.35 667.5,762.3 687.55,782.35z M706.1,763.8 L686.05,743.75 706.1,723.7 726.15,743.75 706.1,763.8z M744.7,725.2 L724.65,705.15 744.7,685.1 764.75,705.15 744.7,725.2z M842,627.9 L821.9,648 801.85,627.95 821.95,607.85 842,627.9z M454.4,203.2 L474.45,183.15 494.5,203.2 474.45,223.25 454.4,203.2z M435.85,221.75 L455.9,241.8 435.8,261.9 415.75,241.85 435.85,221.75z M474.45,260.35 L494.55,280.45 474.45,300.55 454.35,280.45 474.45,260.35z M377.2,203.3 L397.3,183.2 417.3,203.2 397.2,223.3 377.2,203.3z M358.65,221.85 L378.65,241.85 358.6,261.9 338.6,241.9 358.65,221.85z M397.2,260.4 L417.25,280.45 397.2,300.5 377.15,280.45 397.2,260.4z M338.55,319.05 L358.6,299 378.65,319.05 358.6,339.1 338.55,319.05z M377.15,357.65 L397.2,337.6 417.3,357.7 397.25,377.75 377.15,357.65z M415.75,319.05 L435.8,299 455.9,319.1 435.85,339.15 415.75,319.05z M454.4,357.7 L474.45,337.65 494.5,357.7 474.45,377.75 454.4,357.7z M608.8,203.3 L628.9,183.2 648.95,203.25 628.85,223.35 608.8,203.3z M590.25,221.85 L610.3,241.9 590.3,261.9 570.25,241.85 590.25,221.85z M628.85,260.45 L648.9,280.5 628.9,300.5 608.85,280.45 628.85,260.45z M531.6,203.2 L551.6,183.2 571.7,203.3 551.7,223.3 531.6,203.2z M513.05,221.75 L533.15,241.85 513.1,261.9 493,241.8 513.05,221.75z M551.7,260.4 L571.75,280.45 551.7,300.5 531.65,280.45 551.7,260.4z M493,319.1 L513.1,299 533.15,319.05 513.05,339.15 493,319.1z M531.6,357.7 L551.7,337.6 571.75,357.65 551.65,377.75 531.6,357.7z M570.25,319.05 L590.3,299 610.35,319.05 590.3,339.1 570.25,319.05z M608.85,357.65 L628.9,337.6 648.95,357.65 628.9,377.7 608.85,357.65z M320.05,260.45 L340.05,280.45 320,300.5 300,280.5 320.05,260.45z M222.8,357.7 L242.85,337.65 262.85,357.65 242.8,377.7 222.8,357.7z M261.4,319.1 L281.45,299.05 301.45,319.05 281.4,339.1 261.4,319.1z M299.95,357.65 L320,337.6 340.05,357.65 320,377.7 299.95,357.65z M320,414.8 L340.1,434.9 320.05,454.95 299.95,434.85 320,414.8z M261.35,396.25 L281.4,376.2 301.45,396.25 281.4,416.3 261.35,396.25z M261.3,473.5 L281.4,453.4 301.5,473.5 281.4,493.6 261.3,473.5z M204.15,416.35 L184.15,396.35 204.25,376.25 224.25,396.25 204.15,416.35z M242.8,414.8 L262.85,434.85 242.75,454.95 222.7,434.9 242.8,414.8z M204.2,493.5 L184.15,473.45 204.15,453.45 224.2,473.5 204.2,493.5z M222.75,512.05 L242.75,492.05 262.85,512.15 242.85,532.15 222.75,512.05z M242.85,569.25 L262.9,589.3 242.8,609.4 222.75,589.35 242.85,569.25z M204.2,570.8 L184.1,550.7 204.2,530.6 224.3,550.7 204.2,570.8z M299.95,512.15 L320.05,492.05 340.1,512.1 320,532.2 299.95,512.15z M261.4,550.7 L281.4,530.7 301.45,550.75 281.45,570.75 261.4,550.7z M320,569.3 L340.05,589.35 320.05,609.35 300,589.3 320,569.3z M281.45,607.85 L301.5,627.9 281.4,648 261.35,627.95 281.45,607.85z M299.95,666.55 L320.05,646.45 340.1,666.5 320,686.6 299.95,666.55z M224.25,627.95 L204.2,648 184.15,627.95 204.2,607.9 224.25,627.95z M222.75,666.55 L242.8,646.5 262.85,666.55 242.8,686.6 222.75,666.55z M261.35,705.15 L281.4,685.1 301.45,705.15 281.4,725.2 261.35,705.15z M299.95,743.75 L320,723.7 340.05,743.75 320,763.8 299.95,743.75z M628.9,414.8 L648.95,434.85 628.85,454.95 608.8,434.9 628.9,414.8z M570.2,396.3 L590.3,376.2 610.35,396.25 590.25,416.35 570.2,396.3z M570.2,473.5 L590.25,453.45 610.3,473.5 590.25,493.55 570.2,473.5z M551.65,414.85 L571.7,434.9 551.65,454.95 531.6,434.9 551.65,414.85z M493,396.3 L513.05,376.25 533.1,396.3 513.05,416.35 493,396.3z M493,473.5 L513.05,453.45 533.1,473.5 513.05,493.55 493,473.5z M531.6,512.1 L551.65,492.05 571.7,512.1 551.65,532.15 531.6,512.1z M493,550.7 L513.05,530.65 533.1,550.7 513.05,570.75 493,550.7z M551.65,569.25 L571.75,589.35 551.7,609.4 531.6,589.3 551.65,569.25z M608.8,512.1 L628.85,492.05 648.95,512.15 628.9,532.2 608.8,512.1z M570.2,550.7 L590.25,530.65 610.35,550.75 590.3,570.8 570.2,550.7z M628.9,569.3 L648.9,589.3 628.85,609.35 608.85,589.35 628.9,569.3z M474.45,414.85 L494.5,434.9 474.45,454.95 454.4,434.9 474.45,414.85z M415.8,396.3 L435.85,376.25 455.9,396.3 435.85,416.35 415.8,396.3z M415.8,473.5 L435.85,453.45 455.9,473.5 435.85,493.55 415.8,473.5z M397.25,414.85 L417.3,434.9 397.25,454.95 377.2,434.9 397.25,414.85z M338.55,396.25 L358.6,376.2 378.7,396.3 358.65,416.35 338.55,396.25z M338.6,473.5 L358.65,453.45 378.7,473.5 358.65,493.55 338.6,473.5z M377.2,512.1 L397.25,492.05 417.3,512.1 397.25,532.15 377.2,512.1z M338.55,550.75 L358.65,530.65 378.7,550.7 358.6,570.8 338.55,550.75z M397.25,569.25 L417.3,589.3 397.2,609.4 377.15,589.35 397.25,569.25z M454.4,512.1 L474.45,492.05 494.5,512.1 474.45,532.15 454.4,512.1z M415.8,550.7 L435.85,530.65 455.9,550.7 435.85,570.75 415.8,550.7z M474.45,569.25 L494.5,589.3 474.45,609.35 454.4,589.3 474.45,569.25z M435.85,607.85 L455.9,627.9 435.8,648 415.75,627.95 435.85,607.85z M454.35,666.55 L474.45,646.45 494.55,666.55 474.45,686.65 454.35,666.55z M358.6,607.9 L378.65,627.95 358.65,647.95 338.6,627.9 358.6,607.9z M377.2,666.5 L397.2,646.5 417.25,666.55 397.25,686.55 377.2,666.5z M338.55,705.15 L358.65,685.05 378.7,705.1 358.6,725.2 338.55,705.15z M358.6,762.3 L378.7,782.4 358.65,802.45 338.55,782.35 358.6,762.3z M377.15,743.75 L397.25,723.65 417.35,743.75 397.25,763.85 377.15,743.75z M415.8,705.1 L435.8,685.1 455.9,705.2 435.9,725.2 415.8,705.1z M435.9,762.3 L455.9,782.3 435.8,802.4 415.8,782.4 435.9,762.3z M454.45,743.75 L474.45,723.75 494.45,743.75 474.45,763.75 454.45,743.75z M590.3,607.9 L610.3,627.9 590.25,647.95 570.25,627.95 590.3,607.9z M608.8,666.5 L628.85,646.45 648.95,666.55 628.9,686.6 608.8,666.5z M513.05,607.85 L533.15,627.95 513.1,648 493,627.9 513.05,607.85z M531.65,666.55 L551.7,646.5 571.7,666.5 551.65,686.55 531.65,666.55z M493,705.2 L513.1,685.1 533.1,705.1 513,725.2 493,705.2z M513,762.3 L533.1,782.4 513.1,802.4 493,782.3 513,762.3z M531.55,743.75 L551.65,723.65 571.75,743.75 551.65,763.85 531.55,743.75z M570.2,705.1 L590.25,685.05 610.35,705.15 590.3,725.2 570.2,705.1z M590.3,762.3 L610.35,782.35 590.25,802.45 570.2,782.4 590.3,762.3z M608.85,743.75 L628.9,723.7 648.95,743.75 628.9,763.8 608.85,743.75z M628.9,800.9 L648.95,820.95 628.85,841.05 608.8,821 628.9,800.9z M551.65,800.95 L571.7,821 551.7,841 531.65,820.95 551.65,800.95z M474.45,800.85 L494.55,820.95 474.45,841.05 454.35,820.95 474.45,800.85z M377.2,821 L397.25,800.95 417.25,820.95 397.2,841 377.2,821z"/>
      <path id="path7" fill="#000000" fill-opacity="1" d="M687.55,241.85 L667.5,221.8 647.4,241.9 667.45,261.95 687.55,241.85z"/>
      <path id="path10" fill="#000000" fill-opacity="1" d="M726.15,280.45 L706.1,260.4 686,280.5 706.05,300.55 726.15,280.45z"/>
      <path id="path13" fill="#000000" fill-opacity="1" d="M667.5,339.1 L687.5,319.1 667.45,299.05 647.45,319.05 667.5,339.1z"/>
      <path id="path16" fill="#000000" fill-opacity="1" d="M706.1,377.7 L726.1,357.7 706.05,337.65 686.05,357.65 706.1,377.7z"/>
      <path id="path19" fill="#000000" fill-opacity="1" d="M744.65,339.15 L764.75,319.05 744.7,299 724.6,319.1 744.65,339.15z"/>
      <path id="path22" fill="#000000" fill-opacity="1" d="M783.3,377.8 L803.4,357.7 783.3,337.6 763.2,357.7 783.3,377.8z"/>
      <path id="path25" fill="#000000" fill-opacity="1" d="M821.85,416.35 L841.95,396.25 821.95,376.25 801.85,396.35 821.85,416.35z"/>
      <path id="path28" fill="#000000" fill-opacity="1" d="M821.95,493.55 L841.95,473.55 821.85,453.45 801.85,473.45 821.95,493.55z"/>
      <path id="path31" fill="#000000" fill-opacity="1" d="M821.95,570.75 L842,550.7 821.95,530.65 801.9,550.7 821.95,570.75z"/>
      <path id="path34" fill="#000000" fill-opacity="1" d="M803.3,434.9 L783.3,414.9 763.3,434.9 783.3,454.9 803.3,434.9z"/>
      <path id="path37" fill="#000000" fill-opacity="1" d="M744.75,416.35 L764.75,396.35 744.65,376.25 724.65,396.25 744.75,416.35z"/>
      <path id="path40" fill="#000000" fill-opacity="1" d="M744.7,493.5 L764.75,473.45 744.75,453.45 724.7,473.5 744.7,493.5z"/>
      <path id="path43" fill="#000000" fill-opacity="1" d="M726.2,434.9 L706.1,414.8 686.05,434.85 706.15,454.95 726.2,434.9z"/>
      <path id="path46" fill="#000000" fill-opacity="1" d="M667.5,416.3 L687.55,396.25 667.5,376.2 647.45,396.25 667.5,416.3z"/>
      <path id="path49" fill="#000000" fill-opacity="1" d="M667.5,493.6 L687.6,473.5 667.5,453.4 647.4,473.5 667.5,493.6z"/>
      <path id="path52" fill="#000000" fill-opacity="1" d="M706.05,532.15 L726.15,512.05 706.15,492.05 686.05,512.15 706.05,532.15z"/>
      <path id="path55" fill="#000000" fill-opacity="1" d="M667.45,570.75 L687.5,550.7 667.5,530.7 647.45,550.75 667.45,570.75z"/>
      <path id="path58" fill="#000000" fill-opacity="1" d="M726.15,589.35 L706.05,569.25 686,589.3 706.1,609.4 726.15,589.35z"/>
      <path id="path61" fill="#000000" fill-opacity="1" d="M783.35,532.15 L803.4,512.1 783.3,492 763.25,512.05 783.35,532.15z"/>
      <path id="path64" fill="#000000" fill-opacity="1" d="M744.7,570.8 L764.8,550.7 744.7,530.6 724.6,550.7 744.7,570.8z"/>
      <path id="path67" fill="#000000" fill-opacity="1" d="M803.4,589.3 L783.35,569.25 763.25,589.35 783.3,609.4 803.4,589.3z"/>
      <path id="path70" fill="#000000" fill-opacity="1" d="M764.75,627.95 L744.7,607.9 724.65,627.95 744.7,648 764.75,627.95z"/>
      <path id="path73" fill="#000000" fill-opacity="1" d="M783.3,686.6 L803.35,666.55 783.3,646.5 763.25,666.55 783.3,686.6z"/>
      <path id="path76" fill="#000000" fill-opacity="1" d="M687.55,627.95 L667.45,607.85 647.4,627.9 667.5,648 687.55,627.95z"/>
      <path id="path79" fill="#000000" fill-opacity="1" d="M706.1,686.6 L726.15,666.55 706.1,646.5 686.05,666.55 706.1,686.6z"/>
      <path id="path82" fill="#000000" fill-opacity="1" d="M667.5,725.2 L687.55,705.15 667.5,685.1 647.45,705.15 667.5,725.2z"/>
      <path id="path85" fill="#000000" fill-opacity="1" d="M687.55,782.35 L667.5,762.3 647.45,782.35 667.5,802.4 687.55,782.35z"/>
      <path id="path88" fill="#000000" fill-opacity="1" d="M706.1,763.8 L726.15,743.75 706.1,723.7 686.05,743.75 706.1,763.8z"/>
      <path id="path91" fill="#000000" fill-opacity="1" d="M744.7,725.2 L764.75,705.15 744.7,685.1 724.65,705.15 744.7,725.2z"/>
      <path id="path94" fill="#000000" fill-opacity="1" d="M842,627.9 L821.95,607.85 801.85,627.95 821.9,648 842,627.9z"/>
      <path id="path97" fill="#000000" fill-opacity="1" d="M454.4,203.2 L474.45,223.25 494.5,203.2 474.45,183.15 454.4,203.2z"/>
      <path id="path100" fill="#000000" fill-opacity="1" d="M435.85,221.75 L415.75,241.85 435.8,261.9 455.9,241.8 435.85,221.75z"/>
      <path id="path103" fill="#000000" fill-opacity="1" d="M474.45,260.35 L454.35,280.45 474.45,300.55 494.55,280.45 474.45,260.35z"/>
      <path id="path106" fill="#000000" fill-opacity="1" d="M377.2,203.3 L397.2,223.3 417.3,203.2 397.3,183.2 377.2,203.3z"/>
      <path id="path109" fill="#000000" fill-opacity="1" d="M358.65,221.85 L338.6,241.9 358.6,261.9 378.65,241.85 358.65,221.85z"/>
      <path id="path112" fill="#000000" fill-opacity="1" d="M397.2,260.4 L377.15,280.45 397.2,300.5 417.25,280.45 397.2,260.4z"/>
      <path id="path115" fill="#000000" fill-opacity="1" d="M338.55,319.05 L358.6,339.1 378.65,319.05 358.6,299 338.55,319.05z"/>
      <path id="path118" fill="#000000" fill-opacity="1" d="M377.15,357.65 L397.25,377.75 417.3,357.7 397.2,337.6 377.15,357.65z"/>
      <path id="path121" fill="#000000" fill-opacity="1" d="M415.75,319.05 L435.85,339.15 455.9,319.1 435.8,299 415.75,319.05z"/>
      <path id="path124" fill="#000000" fill-opacity="1" d="M454.4,357.7 L474.45,377.75 494.5,357.7 474.45,337.65 454.4,357.7z"/>
      <path id="path127" fill="#000000" fill-opacity="1" d="M608.8,203.3 L628.85,223.35 648.95,203.25 628.9,183.2 608.8,203.3z"/>
      <path id="path130" fill="#000000" fill-opacity="1" d="M590.25,221.85 L570.25,241.85 590.3,261.9 610.3,241.9 590.25,221.85z"/>
      <path id="path133" fill="#000000" fill-opacity="1" d="M628.85,260.45 L608.85,280.45 628.9,300.5 648.9,280.5 628.85,260.45z"/>
      <path id="path136" fill="#000000" fill-opacity="1" d="M531.6,203.2 L551.7,223.3 571.7,203.3 551.6,183.2 531.6,203.2z"/>
      <path id="path139" fill="#000000" fill-opacity="1" d="M513.05,221.75 L493,241.8 513.1,261.9 533.15,241.85 513.05,221.75z"/>
      <path id="path142" fill="#000000" fill-opacity="1" d="M551.7,260.4 L531.65,280.45 551.7,300.5 571.75,280.45 551.7,260.4z"/>
      <path id="path145" fill="#000000" fill-opacity="1" d="M493,319.1 L513.05,339.15 533.15,319.05 513.1,299 493,319.1z"/>
      <path id="path148" fill="#000000" fill-opacity="1" d="M531.6,357.7 L551.65,377.75 571.75,357.65 551.7,337.6 531.6,357.7z"/>
      <path id="path151" fill="#000000" fill-opacity="1" d="M570.25,319.05 L590.3,339.1 610.35,319.05 590.3,299 570.25,319.05z"/>
      <path id="path154" fill="#000000" fill-opacity="1" d="M608.85,357.65 L628.9,377.7 648.95,357.65 628.9,337.6 608.85,357.65z"/>
      <path id="path157" fill="#000000" fill-opacity="1" d="M320.05,260.45 L300,280.5 320,300.5 340.05,280.45 320.05,260.45z"/>
      <path id="path160" fill="#000000" fill-opacity="1" d="M222.8,357.7 L242.8,377.7 262.85,357.65 242.85,337.65 222.8,357.7z"/>
      <path id="path163" fill="#000000" fill-opacity="1" d="M261.4,319.1 L281.4,339.1 301.45,319.05 281.45,299.05 261.4,319.1z"/>
      <path id="path166" fill="#000000" fill-opacity="1" d="M299.95,357.65 L320,377.7 340.05,357.65 320,337.6 299.95,357.65z"/>
      <path id="path169" fill="#000000" fill-opacity="1" d="M320,414.8 L299.95,434.85 320.05,454.95 340.1,434.9 320,414.8z"/>
      <path id="path172" fill="#000000" fill-opacity="1" d="M261.35,396.25 L281.4,416.3 301.45,396.25 281.4,376.2 261.35,396.25z"/>
      <path id="path175" fill="#000000" fill-opacity="1" d="M261.3,473.5 L281.4,493.6 301.5,473.5 281.4,453.4 261.3,473.5z"/>
      <path id="path178" fill="#000000" fill-opacity="1" d="M204.15,416.35 L224.25,396.25 204.25,376.25 184.15,396.35 204.15,416.35z"/>
      <path id="path181" fill="#000000" fill-opacity="1" d="M242.8,414.8 L222.7,434.9 242.75,454.95 262.85,434.85 242.8,414.8z"/>
      <path id="path184" fill="#000000" fill-opacity="1" d="M204.2,493.5 L224.2,473.5 204.15,453.45 184.15,473.45 204.2,493.5z"/>
      <path id="path187" fill="#000000" fill-opacity="1" d="M222.75,512.05 L242.85,532.15 262.85,512.15 242.75,492.05 222.75,512.05z"/>
      <path id="path190" fill="#000000" fill-opacity="1" d="M242.85,569.25 L222.75,589.35 242.8,609.4 262.9,589.3 242.85,569.25z"/>
      <path id="path193" fill="#000000" fill-opacity="1" d="M204.2,570.8 L224.3,550.7 204.2,530.6 184.1,550.7 204.2,570.8z"/>
      <path id="path196" fill="#000000" fill-opacity="1" d="M299.95,512.15 L320,532.2 340.1,512.1 320.05,492.05 299.95,512.15z"/>
      <path id="path199" fill="#000000" fill-opacity="1" d="M261.4,550.7 L281.45,570.75 301.45,550.75 281.4,530.7 261.4,550.7z"/>
      <path id="path202" fill="#000000" fill-opacity="1" d="M320,569.3 L300,589.3 320.05,609.35 340.05,589.35 320,569.3z"/>
      <path id="path205" fill="#000000" fill-opacity="1" d="M281.45,607.85 L261.35,627.95 281.4,648 301.5,627.9 281.45,607.85z"/>
      <path id="path208" fill="#000000" fill-opacity="1" d="M299.95,666.55 L320,686.6 340.1,666.5 320.05,646.45 299.95,666.55z"/>
      <path id="path211" fill="#000000" fill-opacity="1" d="M224.25,627.95 L204.2,607.9 184.15,627.95 204.2,648 224.25,627.95z"/>
      <path id="path214" fill="#000000" fill-opacity="1" d="M222.75,666.55 L242.8,686.6 262.85,666.55 242.8,646.5 222.75,666.55z"/>
      <path id="path217" fill="#000000" fill-opacity="1" d="M261.35,705.15 L281.4,725.2 301.45,705.15 281.4,685.1 261.35,705.15z"/>
      <path id="path220" fill="#000000" fill-opacity="1" d="M299.95,743.75 L320,763.8 340.05,743.75 320,723.7 299.95,743.75z"/>
      <path id="path223" fill="#000000" fill-opacity="1" d="M628.9,414.8 L608.8,434.9 628.85,454.95 648.95,434.85 628.9,414.8z"/>
      <path id="path226" fill="#000000" fill-opacity="1" d="M570.2,396.3 L590.25,416.35 610.35,396.25 590.3,376.2 570.2,396.3z"/>
      <path id="path229" fill="#000000" fill-opacity="1" d="M570.2,473.5 L590.25,493.55 610.3,473.5 590.25,453.45 570.2,473.5z"/>
      <path id="path232" fill="#000000" fill-opacity="1" d="M551.65,414.85 L531.6,434.9 551.65,454.95 571.7,434.9 551.65,414.85z"/>
      <path id="path235" fill="#000000" fill-opacity="1" d="M493,396.3 L513.05,416.35 533.1,396.3 513.05,376.25 493,396.3z"/>
      <path id="path238" fill="#000000" fill-opacity="1" d="M493,473.5 L513.05,493.55 533.1,473.5 513.05,453.45 493,473.5z"/>
      <path id="path241" fill="#000000" fill-opacity="1" d="M531.6,512.1 L551.65,532.15 571.7,512.1 551.65,492.05 531.6,512.1z"/>
      <path id="path244" fill="#000000" fill-opacity="1" d="M493,550.7 L513.05,570.75 533.1,550.7 513.05,530.65 493,550.7z"/>
      <path id="path247" fill="#000000" fill-opacity="1" d="M551.65,569.25 L531.6,589.3 551.7,609.4 571.75,589.35 551.65,569.25z"/>
      <path id="path250" fill="#000000" fill-opacity="1" d="M608.8,512.1 L628.9,532.2 648.95,512.15 628.85,492.05 608.8,512.1z"/>
      <path id="path253" fill="#000000" fill-opacity="1" d="M570.2,550.7 L590.3,570.8 610.35,550.75 590.25,530.65 570.2,550.7z"/>
      <path id="path256" fill="#000000" fill-opacity="1" d="M628.9,569.3 L608.85,589.35 628.85,609.35 648.9,589.3 628.9,569.3z"/>
      <path id="path259" fill="#000000" fill-opacity="1" d="M474.45,414.85 L454.4,434.9 474.45,454.95 494.5,434.9 474.45,414.85z"/>
      <path id="path262" fill="#000000" fill-opacity="1" d="M415.8,396.3 L435.85,416.35 455.9,396.3 435.85,376.25 415.8,396.3z"/>
      <path id="path265" fill="#000000" fill-opacity="1" d="M415.8,473.5 L435.85,493.55 455.9,473.5 435.85,453.45 415.8,473.5z"/>
      <path id="path268" fill="#000000" fill-opacity="1" d="M397.25,414.85 L377.2,434.9 397.25,454.95 417.3,434.9 397.25,414.85z"/>
      <path id="path271" fill="#000000" fill-opacity="1" d="M338.55,396.25 L358.65,416.35 378.7,396.3 358.6,376.2 338.55,396.25z"/>
      <path id="path274" fill="#000000" fill-opacity="1" d="M338.6,473.5 L358.65,493.55 378.7,473.5 358.65,453.45 338.6,473.5z"/>
      <path id="path277" fill="#000000" fill-opacity="1" d="M377.2,512.1 L397.25,532.15 417.3,512.1 397.25,492.05 377.2,512.1z"/>
      <path id="path280" fill="#000000" fill-opacity="1" d="M338.55,550.75 L358.6,570.8 378.7,550.7 358.65,530.65 338.55,550.75z"/>
      <path id="path283" fill="#000000" fill-opacity="1" d="M397.25,569.25 L377.15,589.35 397.2,609.4 417.3,589.3 397.25,569.25z"/>
      <path id="path286" fill="#000000" fill-opacity="1" d="M454.4,512.1 L474.45,532.15 494.5,512.1 474.45,492.05 454.4,512.1z"/>
      <path id="path289" fill="#000000" fill-opacity="1" d="M415.8,550.7 L435.85,570.75 455.9,550.7 435.85,530.65 415.8,550.7z"/>
      <path id="path292" fill="#000000" fill-opacity="1" d="M474.45,569.25 L454.4,589.3 474.45,609.35 494.5,589.3 474.45,569.25z"/>
      <path id="path295" fill="#000000" fill-opacity="1" d="M435.85,607.85 L415.75,627.95 435.8,648 455.9,627.9 435.85,607.85z"/>
      <path id="path298" fill="#000000" fill-opacity="1" d="M454.35,666.55 L474.45,686.65 494.55,666.55 474.45,646.45 454.35,666.55z"/>
      <path id="path301" fill="#000000" fill-opacity="1" d="M358.6,607.9 L338.6,627.9 358.65,647.95 378.65,627.95 358.6,607.9z"/>
      <path id="path304" fill="#000000" fill-opacity="1" d="M377.2,666.5 L397.25,686.55 417.25,666.55 397.2,646.5 377.2,666.5z"/>
      <path id="path307" fill="#000000" fill-opacity="1" d="M338.55,705.15 L358.6,725.2 378.7,705.1 358.65,685.05 338.55,705.15z"/>
      <path id="path310" fill="#000000" fill-opacity="1" d="M358.6,762.3 L338.55,782.35 358.65,802.45 378.7,782.4 358.6,762.3z"/>
      <path id="path313" fill="#000000" fill-opacity="1" d="M377.15,743.75 L397.25,763.85 417.35,743.75 397.25,723.65 377.15,743.75z"/>
      <path id="path316" fill="#000000" fill-opacity="1" d="M415.8,705.1 L435.9,725.2 455.9,705.2 435.8,685.1 415.8,705.1z"/>
      <path id="path319" fill="#000000" fill-opacity="1" d="M435.9,762.3 L415.8,782.4 435.8,802.4 455.9,782.3 435.9,762.3z"/>
      <path id="path322" fill="#000000" fill-opacity="1" d="M454.45,743.75 L474.45,763.75 494.45,743.75 474.45,723.75 454.45,743.75z"/>
      <path id="path325" fill="#000000" fill-opacity="1" d="M590.3,607.9 L570.25,627.95 590.25,647.95 610.3,627.9 590.3,607.9z"/>
      <path id="path328" fill="#000000" fill-opacity="1" d="M608.8,666.5 L628.9,686.6 648.95,666.55 628.85,646.45 608.8,666.5z"/>
      <path id="path331" fill="#000000" fill-opacity="1" d="M513.05,607.85 L493,627.9 513.1,648 533.15,627.95 513.05,607.85z"/>
      <path id="path334" fill="#000000" fill-opacity="1" d="M531.65,666.55 L551.65,686.55 571.7,666.5 551.7,646.5 531.65,666.55z"/>
      <path id="path337" fill="#000000" fill-opacity="1" d="M493,705.2 L513,725.2 533.1,705.1 513.1,685.1 493,705.2z"/>
      <path id="path340" fill="#000000" fill-opacity="1" d="M513,762.3 L493,782.3 513.1,802.4 533.1,782.4 513,762.3z"/>
      <path id="path343" fill="#000000" fill-opacity="1" d="M531.55,743.75 L551.65,763.85 571.75,743.75 551.65,723.65 531.55,743.75z"/>
      <path id="path346" fill="#000000" fill-opacity="1" d="M570.2,705.1 L590.3,725.2 610.35,705.15 590.25,685.05 570.2,705.1z"/>
      <path id="path349" fill="#000000" fill-opacity="1" d="M590.3,762.3 L570.2,782.4 590.25,802.45 610.35,782.35 590.3,762.3z"/>
      <path id="path352" fill="#000000" fill-opacity="1" d="M608.85,743.75 L628.9,763.8 648.95,743.75 628.9,723.7 608.85,743.75z"/>
      <path id="path355" fill="#000000" fill-opacity="1" d="M628.9,800.9 L608.8,821 628.85,841.05 648.95,820.95 628.9,800.9z"/>
      <path id="path358" fill="#000000" fill-opacity="1" d="M551.65,800.95 L531.65,820.95 551.7,841 571.7,821 551.65,800.95z"/>
      <path id="path361" fill="#000000" fill-opacity="1" d="M474.45,800.85 L454.35,820.95 474.45,841.05 494.55,820.95 474.45,800.85z"/>
      <path id="path364" fill="#000000" fill-opacity="1" d="M377.2,821 L397.2,841 417.25,820.95 397.25,800.95 377.2,821z M812.75,329.95 L812.7,329.9 C812.55,329.65 812.35,329.35 812.2,329.1 812.4,329.35 812.6,329.65 812.75,329.95z M852.8,425.55 C852.55,424.75 852.35,423.95 852.2,423.2 L852.2,423.15 C852.4,423.95 852.6,424.75 852.8,425.55z M801.85,705.15 L804.05,707.35 C806.9,703.2 809.65,699 812.3,694.75 L801.85,705.15z M804.05,707.35 C806.9,703.2 809.65,699 812.3,694.75 L812.5,694.55 C809.8,698.85 807,703.15 804.1,707.4 L804.05,707.35z M335.4,208 L335.4,208.05 C335.2,208.15 335,208.25 334.85,208.35 335,208.2 335.2,208.1 335.4,208z M423.2,852.2 C423.5,852.25 423.8,852.35 424.15,852.45 423.8,852.35 423.5,852.25 423.15,852.2 L423.2,852.2z M694.75,812.3 C695.9,811.55 697.1,810.85 698.25,810.15 697,810.9 695.8,811.7 694.6,812.45 L694.75,812.3z"/>
    </g>
  </g>
  <g id="ico-shadow">
    <g id="shape390">
      <path id="path387" fill="#000000" fill-opacity="0.2980392156862745" d="M702,532 Q702,461.6 652.2,411.8 C619,378.6 578.95,362 532,362 485.05,362 445,378.6 411.8,411.8 378.6,445 362,485.05 362,532 362,578.95 378.6,619 411.8,652.2 445,685.4 485.05,702 532,702 578.95,702 619,685.4 652.2,652.2 685.4,619 702,578.95 702,532z"/>
    </g>
  </g>
  <g id="ico">
    <g id="shape392">
      <path id="path388" fill="#7B9E45" fill-opacity="1" d="M471.15,526.25 C502.05,544.1 524.25,567.15 538.25,592.8 539.2,594.55 539.7,596.3 539.7,598 539.7,599.05 539.5,600.2 539.1,601.45 539.95,599.65 540.3,598 540.2,596.45 540.1,594.85 539.45,592.95 538.25,590.8 523.4,564.2 501.1,542.3 471.65,525.3 454.4,515.35 436.55,507.95 417.75,502.15 415.3,501.3 413,501.3 410.95,501.95 409.05,502.6 407.45,503.85 406.05,505.7 Q407.95,503.7 410.4,502.85 413.8,501.75 417.55,503.1 C433,508.1 451.45,514.9 471.15,526.25z"/>
      <path id="path389" fill="#82A745" fill-opacity="1" d="M622.05,540.2 C624.5,534.7 623.65,530.15 621.2,525.9 601.1,490.5 564.2,458.35 524.65,435.55 501.35,422.1 478.35,412.3 455.95,406.95 452.75,406.1 449.75,406.3 446.95,407.4 443.95,408.5 441.45,410.55 439.6,413.55 443.45,408.4 449.45,406.4 455.2,407.8 477.65,413.35 499.85,422.5 524.2,436.55 564.7,459.9 600.5,491.85 620.3,526.25 623.35,531.3 623.55,535.55 622.05,540.2z"/>
      <path id="path390" fill="#83A645" fill-opacity="1" d="M576.55,561.65 C578.85,565.9 579.45,568.5 577.6,573.7 578.6,571.65 579.1,569.65 579.1,567.85 579.15,565.5 578.45,563.15 576.95,560.6 559.45,529.05 530.4,500.55 495.2,480.2 472.65,467.2 455.35,461.5 437.8,456.95 431.9,455.4 427.2,457.1 423.85,461.95 426.85,458.25 431.65,456.4 437.55,457.95 455.35,462.25 474.8,469.75 494.3,481 531.65,502.6 560.2,532.15 576.55,561.65z"/>
    </g>
    <g id="Symbole.__208_1" overflow="visible">
      <g id="Calque.__202">
        <g id="shape405">
          <path id="path398" fill="#67B14B" fill-opacity="1" d="M670.85,574.05 Q682,545.35 682,512 C682,465.05 665.4,425 632.2,391.8 599,358.6 558.95,342 512,342 465.05,342 425,358.6 391.8,391.8 358.6,425 342,465.05 342,512 342,558.95 358.6,599 391.8,632.2 425,665.4 465.05,682 512,682 529.95,682 546.9,679.55 562.85,674.7 L408.625,520.475 L408.65,520.5 C407.05,519.55 405.85,518.3 405,516.85 403.3,514.15 403.3,510.3 405.1,507.15 405.4,506.65 405.75,506.1 406.05,505.7 409.2,502.3 413.55,501.6 417.55,503.1 433,508.1 451.45,514.9 471.15,526.25 471.5,526.45 471.9,526.65 472.25,526.9 L474,527.15 427.85,481 429.175,480.875 L429.2,480.9 C428.55,480.65 427.9,480.35 427.35,480 421.55,476.65 419.6,469.2 422.95,463.35 423.25,462.85 423.55,462.45 423.85,461.95 426.85,458.25 431.65,456.4 437.55,457.95 452.2,461.5 468,467.25 483.9,475.35 L483.875,475.325 L486,475.1 446.375,435.475 L446.4,435.5 C445.6,435.15 444.9,434.85 444.35,434.5 437.15,430.35 434.9,421.55 439.05,414.35 439.25,414.05 439.4,413.8 439.6,413.55 443.45,408.4 449.45,406.4 455.2,407.8 477.65,413.35 499.85,422.5 524.2,436.55 562,458.35 595.7,487.65 616,519.2 L615.975,519.2 L616,519.2 670.85,574.05z"/>
          <path id="path399" fill="#4E8B37" fill-opacity="1" d="M595.3,541.4 C579.4,512.7 546.2,482.8 509.65,461.7 491.35,451.15 471.75,442.25 452.1,437.05 450.45,436.7 449.2,436.4 448.3,436.15 447.6,435.9 446.95,435.7 446.4,435.5 L446.375,435.475 L486,475.1 483.875,475.325 L483.9,475.35 C487.45,477.15 490.85,479 494.3,481 531.65,502.6 560.2,532.15 576.55,561.65 578.85,565.9 579.45,568.5 577.6,573.7 577.4,574.05 577.2,574.4 576.95,574.8 573.6,580.6 566.25,582.65 560.4,579.25 557.5,577.55 556.3,575.35 555,573 540.6,547.35 515.3,521.2 482.05,502 465,492.15 448.85,486.05 434.8,482.25 432.95,481.9 431.65,481.6 430.85,481.4 430.25,481.25 429.7,481.05 429.2,480.9 L429.175,480.875 L427.85,481 474,527.15 472.25,526.9 C486.9,535.5 499.85,545.4 511,556.6 521.95,567.6 531.05,579.65 538.25,592.8 539.2,594.55 539.7,596.3 539.7,598 539.7,599.05 539.5,600.2 539.1,601.45 538.9,601.9 538.65,602.35 538.35,602.85 535.55,607.7 529.55,609.05 525.15,606.5 523,605.25 521.9,603.55 520.6,601.15 507.85,578.05 487.15,557.85 461.35,542.95 446.95,534.6 431.4,528.1 416.15,523.05 413.65,522.25 410.4,521.5 408.75,520.55 408.7,520.5 408.7,520.5 408.65,520.5 L408.625,520.475 L562.85,674.7 C588.6,666.85 611.7,652.7 632.2,632.2 649.65,614.75 662.55,595.35 670.85,574.05 L616,519.2 L615.975,519.2 L616,519.2 C617.6,521.7 619,523.95 620.3,526.25 623.35,531.3 623.55,535.55 622.05,540.2 621.75,540.85 621.45,541.5 621.05,542.15 616.8,549.55 607.9,551.35 601.1,547.4 598.35,545.85 597.05,544.25 595.3,541.4z"/>
          <path id="path400" fill="#FFFFFF" fill-opacity="1" d="M509.65,461.7 C546.2,482.8 579.4,512.7 595.3,541.4 597.05,544.25 598.35,545.85 601.1,547.4 607.9,551.35 616.8,549.55 621.05,542.15 621.45,541.5 621.75,540.85 622.05,540.2 623.55,535.55 623.35,531.3 620.3,526.25 619,523.95 617.6,521.7 616,519.2 595.7,487.65 562,458.35 524.2,436.55 499.85,422.5 477.65,413.35 455.2,407.8 449.45,406.4 443.45,408.4 439.6,413.55 439.4,413.8 439.25,414.05 439.05,414.35 434.9,421.55 437.15,430.35 444.35,434.5 444.9,434.85 445.6,435.15 446.4,435.5 446.95,435.7 447.6,435.9 448.3,436.15 449.2,436.4 450.45,436.7 452.1,437.05 471.75,442.25 491.35,451.15 509.65,461.7z M422.95,463.35 C419.6,469.2 421.55,476.65 427.35,480 427.9,480.35 428.55,480.65 429.2,480.9 429.7,481.05 430.25,481.25 430.85,481.4 431.65,481.6 432.95,481.9 434.8,482.25 448.85,486.05 465,492.15 482.05,502 515.3,521.2 540.6,547.35 555,573 556.3,575.35 557.5,577.55 560.4,579.25 566.25,582.65 573.6,580.6 576.95,574.8 577.2,574.4 577.4,574.05 577.6,573.7 579.45,568.5 578.85,565.9 576.55,561.65 560.2,532.15 531.65,502.6 494.3,481 490.85,479 487.45,477.15 483.9,475.35 468,467.25 452.2,461.5 437.55,457.95 431.65,456.4 426.85,458.25 423.85,461.95 423.55,462.45 423.25,462.85 422.95,463.35z M417.55,503.1 C413.55,501.6 409.2,502.3 406.05,505.7 405.75,506.1 405.4,506.65 405.1,507.15 403.3,510.3 403.3,514.15 405,516.85 405.85,518.3 407.05,519.55 408.65,520.5 408.7,520.5 408.7,520.5 408.75,520.55 410.4,521.5 413.65,522.25 416.15,523.05 431.4,528.1 446.95,534.6 461.35,542.95 487.15,557.85 507.85,578.05 520.6,601.15 521.9,603.55 523,605.25 525.15,606.5 529.55,609.05 535.55,607.7 538.35,602.85 538.65,602.35 538.9,601.9 539.1,601.45 539.5,600.2 539.7,599.05 539.7,598 539.7,596.3 539.2,594.55 538.25,592.8 531.05,579.65 521.95,567.6 511,556.6 499.85,545.4 486.9,535.5 472.25,526.9 471.9,526.65 471.5,526.45 471.15,526.25 451.45,514.9 433,508.1 417.55,503.1z"/>
        </g>
      </g>
    </g>
  </g>
</svg>