<?xml version="1.0" encoding="utf-8"?>
<!-- Generator: flash2svg, http://dissentgraphics.com/tools/flash2svg -->
<svg id="Coda" image-rendering="optimizeSpeed" baseProfile="basic" version="1.1" style="background-color:#FFFFFF" x="0px" y="0px" width="1024px" height="1024px" viewBox="0 0 1024 1024" enable-background="new 0 0 1024 1024" xmlns="http://www.w3.org/2000/svg" xmlns:xlink="http://www.w3.org/1999/xlink">
  <defs transform="matrix(1 0 0 1 0 0) "/>
  <g id="shadow">
    <g id="shape">
      <path id="path" fill="#000000" fill-opacity="0.09803921568627451" d="M965.6,350.25 Q957,329.4 946.2,309.4 C942.15,301.85 937.85,294.35 933.3,287 913.75,255.3 889.9,225.35 861.75,197.2 769.6,105.05 658.3,58.95 527.95,58.95 397.6,58.95 286.35,105.05 194.2,197.2 102.05,289.35 55.95,400.6 55.95,530.95 55.95,661.3 102.05,772.6 194.2,864.75 286.35,956.9 397.6,1002.95 527.95,1002.95 658.3,1002.95 769.6,956.9 861.75,864.75 912.5,813.95 949.3,757.35 972.1,695 990.65,644.15 999.95,589.5 999.95,530.95 999.95,486.05 994.5,443.4 983.55,403 982.3,398.45 981,393.9 979.65,389.4 975.55,376.1 970.85,363.05 965.6,350.25z"/>
    </g>
  </g>
  <g id="circle">
    <g id="shape2">
      <path id="path1" fill="#4F5691" fill-opacity="1" d="M983,511.5 Q983,502.2 982.7,493 C978.45,370.7 932.55,265.75 844.9,178.1 752.85,86.05 641.7,40 511.5,40 381.25,40 270.15,86.05 178.1,178.1 86.05,270.15 40,381.25 40,511.5 40,641.7 86.05,752.85 178.1,844.9 262.1,928.9 362.05,974.6 477.9,982 488.9,982.65 500.1,983 511.5,983 641.7,983 752.85,936.95 844.9,844.9 936.95,752.85 983,641.7 983,511.5z"/>
    </g>
  </g>
  <g id="ico-shadow">
    <g id="shape4">
      <path id="path2" fill="#000000" fill-opacity="0.2" d="M983,511.5 Q983,502.2 982.7,493 L686.65,196.95 643.15,301.85 306.2,594 278.3,782.4 477.9,982 C488.9,982.65 500.1,983 511.5,983 641.7,983 752.85,936.95 844.9,844.9 936.95,752.85 983,641.7 983,511.5z"/>
    </g>
  </g>
  <g id="ico">
    <g id="Symbole.__201_1" overflow="visible">
      <g id="Calque.__202">
        <g id="drawingObject5">
          <path id="path8" fill="#659D65" fill-opacity="1" d="M673.329,691.17 C835.096,500.475 686.693,196.984 686.693,196.984 L707.477,247.362 L686.693,196.984 C499.041,403.688 349.425,345.515 260.14,528.636 Q204.327,643.252 245.019,732.167 265.458,776.784 296.975,798.186 C344.658,599.06 585.845,458.528 585.845,458.528 365.685,657.602 364.697,825.509 364.697,825.509 L390.153,831.249 L364.697,825.509 C364.697,825.509 511.629,881.612 673.329,691.17z"/>
        </g>
        <g id="drawingObject6">
          <path id="path9" fill="#568357" fill-opacity="1" d="M673.329,691.17 Q774.379,571.937 740.602,372.581 730.078,310.105 707.477,247.362 L686.693,196.984 C729.107,364.102 585.845,458.528 585.845,458.528 365.685,657.602 364.697,825.509 364.697,825.509 L390.153,831.249 L364.697,825.509 C364.697,825.509 511.629,881.612 673.329,691.17z"/>
        </g>
        <g id="drawingObject7">
          <path id="path10" fill="#659D65" fill-opacity="1" d="M478.946,737.616 C480.835,730.564 473.353,709.124 474.676,698.141 470.146,707.995 453.131,723.141 451.241,730.193 449.352,737.245 454.096,744.725 461.652,746.75 Q467.445,748.302 472.487,745.603 477.529,742.905 478.946,737.616z"/>
        </g>
        <g id="drawingObject8">
          <path id="path11" fill="#659D65" fill-opacity="1" d="M679.373,564.838 C683.489,549.475 667.135,502.713 670.002,478.916 659.899,500.504 623.043,533.28 618.927,548.643 614.743,564.258 625.037,580.243 641.66,584.697 Q654.253,588.071 665.227,582.373 676.269,576.424 679.373,564.838z"/>
        </g>
        <g id="drawingObject9">
          <path id="path12" fill="#82D282" fill-opacity="1" d="M384.179,528.127 C387.08,517.297 375.731,485.103 377.715,468.629 370.761,483.501 345.272,506.095 342.37,516.925 339.536,527.503 346.493,538.815 358.078,541.919 Q366.642,544.214 374.49,540.108 382.019,536.187 384.179,528.127z"/>
        </g>
      </g>
    </g>
  </g>
</svg>