<?xml version="1.0" encoding="utf-8"?>
<!-- Generator: flash2svg, http://dissentgraphics.com/tools/flash2svg -->
<svg xmlns:xlink="http://www.w3.org/1999/xlink" id="Apps-PlayOnMac" image-rendering="optimizeSpeed" baseProfile="basic" version="1.1" style="background-color:#ffffff" x="0px" y="0px" width="1024px" height="1024px" viewBox="0 0 1024 1024" enable-background="new 0 0 1024 1024" xmlns="http://www.w3.org/2000/svg">
  <defs transform="matrix(1 0 0 1 0 0) "/>
  <g id="background-circle-shadow">
    <g id="shape">
      <path id="path" fill="#000000" fill-opacity="0.09803921568627451" d="M969.65,351.3 Q961.05,330.45 950.25,310.45 C946.2,302.9 941.9,295.4 937.35,288.05 917.8,256.35 893.95,226.4 865.8,198.25 773.65,106.1 662.35,60 532,60 401.65,60 290.4,106.1 198.25,198.25 106.1,290.4 60,401.65 60,532 60,662.35 106.1,773.65 198.25,865.8 290.4,957.95 401.65,1004 532,1004 662.35,1004 773.65,957.95 865.8,865.8 916.55,815 953.35,758.4 976.15,696.05 994.7,645.2 1004,590.55 1004,532 1004,487.1 998.55,444.45 987.6,404.05 986.35,399.5 985.05,394.95 983.7,390.45 979.6,377.15 974.9,364.1 969.65,351.3z"/>
    </g>
  </g>
  <g id="background-circle">
    <g id="shape2">
      <path id="path1" fill="#F2F2F2" fill-opacity="1" d="M966.1,378.45 C965.1,375.05 964.1,371.6 962.95,367.95 961.35,362.8 959.55,357.45 957.65,352.1 951.2,333.85 943.5,316.05 934.5,298.45 930.7,291.05 926.55,283.5 922.2,276.05 901.9,241.55 876.4,208.85 845.85,178.3 773.25,105.7 688.7,61.65 592.2,46.25 575.95,43.65 559.4,41.85 542.15,40.9 532.45,40.35 522.3,40.05 512.05,40.05 502.7,40.05 493.45,40.3 484.15,40.8 365.8,46.9 263.85,92.75 178.3,178.3 Q40.05,316.55 40.05,512.05 C40.05,642.4 86.15,753.7 178.3,845.85 235,902.5 298.85,941.75 369.4,963.4 406.15,974.65 444.2,981.25 484.15,983.35 484.3,983.35 484.4,983.35 484.55,983.35 493.05,983.8 501.15,984.05 509.05,984.05 510.25,984.05 511.15,984.05 512.05,984.05 522.35,984.05 532.55,983.75 542.15,983.25 544.65,983.1 546.9,982.95 549.1,982.8 569.3,981.35 589,978.75 607.8,975.1 615.75,973.55 623.6,971.8 631.2,969.95 712,949.65 783.35,908.35 845.85,845.85 894.45,797.25 930.25,743.35 953.2,684.05 971.65,636.4 981.85,585.25 983.75,530.55 983.95,524.5 984.05,518.3 984.05,512.05 984.05,511.4 984.05,510.7 984.05,510.05 984.05,509.7 984.05,509.4 984.05,509.05 983.85,468.4 979.1,429.55 969.75,392.05 968.65,387.7 967.4,383.05 966.1,378.45z"/>
    </g>
  </g>
  <g id="object-shadow">
    <g id="shape4">
      <path id="path2" fill="#000000" fill-opacity="0.09803921568627451" d="M953.2,684.05 Q976.125,624.9 982.025,558.725 L642.05,218.75 516.5,496.55 855.7,835.75 C899.35,789.75 931.85,739.25 953.2,684.05z M496.55,507.65 L217.4,640.05 559.325,981.975 L559.35,982 C576.25,980.4 592.35,978.1 607.8,975.1 615.75,973.55 623.6,971.8 631.2,969.95 709.65,950.25 779.15,910.75 840.25,851.35 L496.55,507.65z"/>
    </g>
  </g>
  <g id="object">
    <g id="shape8">
      <path id="path5" fill="#E85479" fill-opacity="1" d="M681.7,294.05 C681.65,268.9 672.75,247.45 655,229.7 637.25,211.9 615.75,203 590.6,203 565.45,203 544,211.9 526.25,229.7 520.6,235.3 515.9,241.3 512.05,247.65 508.2,241.3 503.5,235.3 497.9,229.7 480.15,211.9 458.65,203 433.5,203 408.35,203 386.9,211.9 369.15,229.7 351.6,247.25 342.7,268.7 342.45,294.05 L342.45,294.85 C342.45,294.9 342.45,295 342.45,295.05 342.8,314.2 348.1,331.05 358.25,345.5 359.9,347.9 361.7,350.25 363.65,352.55 L364,352.85 C365.6,354.8 367.3,356.65 369.15,358.45 370.95,360.25 372.8,361.95 374.65,363.55 L507.65,496.55 C508.9,497.8 510.35,498.4 512.1,498.4 513.8,498.4 515.25,497.8 516.5,496.55 L649.5,363.6 C651.35,361.95 653.2,360.25 655,358.45 656.8,356.65 658.55,354.8 660.2,352.85 L660.45,352.55 C662.4,350.25 664.25,347.9 665.9,345.5 676.4,330.55 681.65,313.4 681.7,294.05z"/>
      <path id="path6" fill="#00C0E6" fill-opacity="1" d="M665.9,678.6 Q663.45,675 660.5,671.55 L660.15,671.25 C658.55,669.3 656.85,667.45 655,665.65 653.2,663.85 651.35,662.15 649.5,660.55 L516.5,527.55 C515.25,526.3 513.8,525.7 512.05,525.7 510.35,525.7 508.9,526.3 507.65,527.55 L374.65,660.5 C372.8,662.15 370.95,663.85 369.15,665.65 367.35,667.45 365.6,669.3 363.95,671.25 L363.7,671.55 C361.75,673.85 359.9,676.2 358.25,678.6 347.75,693.55 342.5,710.7 342.45,730.05 342.5,755.2 351.4,776.65 369.15,794.4 386.9,812.2 408.4,821.1 433.55,821.1 458.7,821.1 480.15,812.2 497.9,794.4 503.55,788.8 508.25,782.8 512.1,776.45 515.95,782.8 520.65,788.8 526.25,794.4 544,812.2 565.5,821.1 590.65,821.1 615.8,821.1 637.25,812.2 655,794.4 672.55,776.85 681.45,755.4 681.7,730.05 L681.7,729.25 C681.7,729.2 681.7,729.1 681.7,729.05 681.35,709.9 676.05,693.05 665.9,678.6z"/>
      <path id="path7" fill="#EBC240" fill-opacity="1" d="M665.65,369.15 C663.85,370.95 662.15,372.8 660.55,374.65 L527.55,507.65 C526.3,508.9 525.7,510.35 525.7,512.1 525.7,513.8 526.3,515.25 527.55,516.5 L660.5,649.5 C662.15,651.35 663.85,653.2 665.65,655 667.45,656.8 669.3,658.55 671.25,660.2 L671.55,660.45 C673.85,662.4 676.2,664.25 678.6,665.9 693.55,676.4 710.7,681.65 730.05,681.7 755.2,681.65 776.65,672.75 794.4,655 812.2,637.25 821.1,615.75 821.1,590.6 821.1,565.45 812.2,544 794.4,526.25 788.8,520.6 782.8,515.9 776.45,512.05 782.8,508.2 788.8,503.5 794.4,497.9 812.2,480.15 821.1,458.65 821.1,433.5 821.1,408.35 812.2,386.9 794.4,369.15 776.85,351.6 755.4,342.7 730.05,342.45 L729.25,342.45 C729.2,342.45 729.1,342.45 729.05,342.45 709.9,342.8 693.05,348.1 678.6,358.25 676.2,359.9 673.85,361.7 671.55,363.65 L671.25,364 C669.3,365.6 667.45,367.3 665.65,369.15z"/>
      <path id="path8" fill="#55DA97" fill-opacity="1" d="M363.6,374.65 C361.95,372.8 360.25,370.95 358.45,369.15 356.65,367.35 354.8,365.6 352.85,363.95 L352.55,363.7 C350.25,361.75 347.9,359.9 345.5,358.25 330.55,347.75 313.4,342.5 294.05,342.45 268.9,342.5 247.45,351.4 229.7,369.15 211.9,386.9 203,408.4 203,433.55 203,458.7 211.9,480.15 229.7,497.9 235.3,503.55 241.3,508.25 247.65,512.1 241.3,515.95 235.3,520.65 229.7,526.25 211.9,544 203,565.5 203,590.65 203,615.8 211.9,637.25 229.7,655 247.25,672.55 268.7,681.45 294.05,681.7 L294.85,681.7 C294.9,681.7 295,681.7 295.05,681.7 314.2,681.35 331.05,676.05 345.5,665.9 347.9,664.25 350.25,662.45 352.55,660.5 L352.85,660.15 C354.8,658.55 356.65,656.85 358.45,655 360.25,653.2 361.95,651.35 363.55,649.5 L496.55,516.5 C497.8,515.25 498.4,513.8 498.4,512.05 498.4,510.35 497.8,508.9 496.55,507.65 L363.6,374.65z"/>
    </g>
  </g>
</svg>