<?xml version="1.0" encoding="utf-8"?>
<!-- Generator: flash2svg, http://dissentgraphics.com/tools/flash2svg -->
<svg xmlns:xlink="http://www.w3.org/1999/xlink" id="Adium" image-rendering="optimizeSpeed" baseProfile="basic" version="1.1" style="background-color:#ffffff" x="0px" y="0px" width="1024px" height="1024px" viewBox="0 0 1024 1024" enable-background="new 0 0 1024 1024" xmlns="http://www.w3.org/2000/svg">
  <defs transform="matrix(1 0 0 1 0 0) "/>
  <g id="shadow">
    <g id="shape">
      <path id="path" fill="#000000" fill-opacity="0.09803921568627451" d="M969.65,351.3 Q961.05,330.45 950.25,310.45 C946.2,302.9 941.9,295.4 937.35,288.05 917.8,256.35 893.95,226.4 865.8,198.25 773.65,106.1 662.35,60 532,60 401.65,60 290.4,106.1 198.25,198.25 106.1,290.4 60,401.65 60,532 60,662.35 106.1,773.65 198.25,865.8 290.4,957.95 401.65,1004 532,1004 662.35,1004 773.65,957.95 865.8,865.8 916.55,815 953.35,758.4 976.15,696.05 994.7,645.2 1004,590.55 1004,532 1004,487.1 998.55,444.45 987.6,404.05 986.35,399.5 985.05,394.95 983.7,390.45 979.6,377.15 974.9,364.1 969.65,351.3z"/>
    </g>
  </g>
  <g id="circle">
    <g id="shape2">
      <path id="path1" fill="#95C88B" fill-opacity="1" d="M593.05,46.4 C592.75,46.35 592.45,46.3 592.2,46.25 575.95,43.65 559.4,41.85 542.15,40.9 532.45,40.35 522.3,40.05 512.05,40.05 502.7,40.05 493.45,40.3 484.15,40.8 365.8,46.9 263.85,92.75 178.3,178.3 121.8,234.8 82.65,298.45 60.85,369 64.75,369.05 68.65,369.05 72.55,369.05 216.3,369.05 338.95,337.25 440.6,273.7 541.15,210.85 592,135.05 593.05,46.4z"/>
      <path id="path2" fill="#7C9568" fill-opacity="1" d="M966.1,378.45 C963.85,370.6 961.35,362.65 958.55,354.65 958.25,353.9 957.95,353 957.65,352.1 951.2,333.85 943.5,316.05 934.5,298.45 930.7,291.05 926.55,283.5 922.2,276.05 901.9,241.55 876.4,208.85 845.85,178.3 773.4,105.85 689.1,61.85 593.05,46.4 592,135.05 541.15,210.85 440.6,273.7 338.95,337.25 216.3,369.05 72.55,369.05 68.65,369.05 64.75,369.05 60.85,369 Q40.05,436.2 40.05,512.05 C40.05,642.4 86.15,753.7 178.3,845.85 226.35,893.85 279.6,929.4 337.4,952.15 343.85,954.75 350,957 356.2,959.1 396.7,972.95 439.25,981 484.15,983.35 484.3,983.35 484.4,983.35 484.55,983.35 493.05,983.8 501.15,984.05 509.05,984.05 510.25,984.05 511.15,984.05 512.05,984.05 522.35,984.05 532.55,983.75 542.15,983.25 544.65,983.1 546.9,982.95 549.1,982.8 569.3,981.35 589,978.75 607.8,975.1 615.75,973.55 623.6,971.8 631.2,969.95 695.9,953.7 754.55,924 807.35,880.8 820.6,869.9 833.4,858.3 845.85,845.85 894.45,797.25 930.25,743.35 953.2,684.05 957.15,673.8 960.75,663.4 963.95,652.9 975.65,614.25 982.25,573.5 983.75,530.55 983.95,524.5 984.05,518.3 984.05,512.05 984.05,511.4 984.05,510.7 984.05,510.05 984.05,509.7 984.05,509.4 984.05,509.05 983.85,468.4 979.1,429.55 969.75,392.05 968.65,387.7 967.4,383.05 966.1,378.45z"/>
    </g>
  </g>
  <g id="circle1">
    <g id="shape6">
      <path id="path3" fill="#000000" fill-opacity="0.2" d="M963.95,652.9 Q965.348,648.294 966.65,643.65 L717.05,394.05 213.05,470.05 277.45,534.45 234.05,563.05 638.95,967.95 C700.7,951.25 756.7,922.25 807.35,880.8 820.6,869.9 833.4,858.3 845.85,845.85 894.45,797.25 930.25,743.35 953.2,684.05 957.15,673.8 960.75,663.4 963.95,652.9z"/>
    </g>
  </g>
  <g id="circle2">
    <g id="Symbole.__2026_1" overflow="visible">
      <g id="Calque.__213">
        <g id="shape37">
          <path id="path31" fill="#333333" fill-opacity="1" d="M953.15,684 C957.1,673.75 960.7,663.35 963.9,652.85 935.55,650.95 906.2,650 876,650 777,650 687.4,660.15 607,680.45 563.95,691.3 523.45,705.2 485.65,722.05 377.9,770.1 324,828.05 324,896 324,915.65 328.5,934.45 337.35,952.1 343.8,954.7 349.95,956.95 356.15,959.05 396.65,972.9 439.2,980.95 484.1,983.3 484.25,983.3 484.35,983.3 484.5,983.3 493,983.75 501.1,984 509,984 Q510.5,984 512,984 C522.3,984 532.5,983.7 542.1,983.2 544.6,983.05 546.85,982.9 549.05,982.75 569.25,981.3 588.95,978.7 607.75,975.05 615.7,973.5 623.55,971.75 631.15,969.9 695.85,953.65 754.5,923.95 807.3,880.75 820.55,869.85 833.35,858.25 845.8,845.8 894.4,797.2 930.2,743.3 953.15,684z"/>
        </g>
      </g>
    </g>
  </g>
  <g id="bubles">
    <g id="shape8">
      <path id="path4" fill="#95C88B" fill-opacity="1" d="M174.05,576.85 Q179.15,571.75 179.15,564.5 C179.15,559.65 177.45,555.55 174.05,552.15 170.65,548.75 166.55,547.05 161.7,547.05 156.85,547.05 152.75,548.75 149.35,552.15 145.95,555.55 144.25,559.65 144.25,564.5 144.25,569.35 145.95,573.45 149.35,576.85 152.75,580.25 156.85,581.95 161.7,581.95 166.55,581.95 170.65,580.25 174.05,576.85z M150.75,428.3 C139.25,416.8 125.35,411.05 109.05,411.05 92.75,411.05 78.85,416.8 67.3,428.3 55.8,439.85 50.05,453.75 50.05,470.05 50.05,486.35 55.8,500.25 67.3,511.75 78.85,523.3 92.75,529.05 109.05,529.05 125.35,529.05 139.25,523.3 150.75,511.75 162.3,500.25 168.05,486.35 168.05,470.05 168.05,453.75 162.3,439.85 150.75,428.3z"/>
    </g>
  </g>
  <g id="head">
    <g id="Symbole.__2028_1" overflow="visible">
      <g id="Calque.__214">
        <g id="Symbole.__2030_2" overflow="visible">
          <g id="Calque.__215">
            <g id="shape38">
              <path id="path32" fill="#333333" fill-opacity="1" d="M699.598,375.969 Q641.631,318.001 559.608,318.001 C504.913,318.001 458.236,337.31 419.578,375.969 380.919,414.628 361.61,461.305 361.61,516 361.61,570.695 380.919,617.331 419.578,655.99 458.236,694.649 504.913,713.999 559.608,713.999 614.304,713.999 660.94,694.649 699.598,655.99 738.257,617.331 757.607,570.695 757.607,516 757.607,461.305 738.257,414.628 699.598,375.969z"/>
            </g>
            <g id="Symbole.__2034_4" overflow="visible">
              <g id="Calque.__216">
                <g id="shape39">
                  <path id="path33" fill="#FFF77A" fill-opacity="1" d="M370.559,401.951 L370.681,401.787 C317.5,418.192 265.423,417.005 214.41,398.269 197.678,391.192 186.837,392.583 181.969,402.36 173.378,419.623 179.269,438.319 199.682,458.405 227.541,485.814 259.45,507.25 295.45,522.754 316.682,531.877 339.345,538.954 363.44,543.904 363.481,539.977 370.559,537.604 384.59,536.786 370.968,533.718 364.3,532.163 364.545,532.163 371.868,532.163 378.536,533.718 384.59,536.786 373.013,484.423 379.068,437.173 402.754,394.996 394.858,385.914 384.099,388.246 370.559,401.951z"/>
                  <path id="path34" fill="#D0CB39" fill-opacity="1" d="M384.59,536.786 C370.559,537.604 363.481,539.977 363.44,543.904 339.345,538.954 316.682,531.877 295.45,522.754 L255.318,522.754 C254.459,522.673 253.559,522.632 252.659,522.632 245.95,522.632 240.223,525.004 235.437,529.75 230.691,534.536 228.319,540.263 228.319,546.972 228.319,553.681 230.691,559.409 235.437,564.154 240.223,568.94 246.441,571.804 254.132,572.827 261.823,573.809 274.218,575.445 291.318,577.695 301.095,579.004 308.541,582.849 313.614,589.231 320.323,597.699 327.4,605.186 334.886,611.649 342.331,618.113 352.231,621.345 364.545,621.345 376.859,621.345 387.372,617.008 396.086,608.295 404.799,599.581 409.136,589.068 409.136,576.754 409.136,564.441 404.799,553.927 396.086,545.213 392.527,541.654 388.722,538.873 384.59,536.786z"/>
                </g>
              </g>
            </g>
          </g>
          <g id="Calque.__217">
            <g id="shape40">
              <path id="path35" fill="#333333" fill-opacity="1" d="M361.487,423.546 Q356.414,423.546 352.814,427.146 C350.401,429.56 349.214,432.423 349.214,435.819 349.214,439.214 350.401,442.078 352.814,444.491 355.228,446.905 358.092,448.091 361.487,448.091 364.883,448.091 367.746,446.905 370.16,444.491 372.573,442.078 373.76,439.214 373.76,435.819 373.76,432.423 372.573,429.56 370.16,427.146 367.746,424.732 364.883,423.546 361.487,423.546z"/>
            </g>
          </g>
        </g>
        <g id="Symbole.__2032_2" overflow="visible">
          <g id="Calque.__218">
            <g id="shape41">
              <path id="path36" fill="#FFFFFF" fill-opacity="1" d="M547.1,441.891 Q544.481,425.118 531.882,412.518 C521.286,401.923 508.523,396.646 493.55,396.646 478.577,396.646 465.814,401.923 455.218,412.518 448.428,419.309 443.805,427 441.432,435.427 440.041,440.377 439.346,445.45 439.346,450.85 439.346,465.823 444.623,478.586 455.218,489.182 465.814,499.777 478.577,505.054 493.55,505.054 508.523,505.054 521.286,499.777 531.882,489.182 542.477,478.586 547.754,465.823 547.754,450.85 547.754,447.823 547.55,444.877 547.1,441.891z M522.023,440.336 C523.659,444.632 524.477,449.173 524.477,454.082 524.477,464.514 520.795,473.432 513.391,480.836 505.986,488.241 497.068,491.922 486.636,491.922 476.205,491.922 467.287,488.241 459.882,480.836 452.478,473.432 448.796,464.514 448.796,454.082 448.796,447.577 450.228,441.646 453.214,436.123 454.85,433.096 457.1,430.109 459.882,427.327 467.287,419.923 476.205,416.241 486.636,416.241 497.068,416.241 505.986,419.923 513.391,427.327 517.318,431.255 520.223,435.632 522.023,440.336z"/>
              <path id="path37" fill="#333333" fill-opacity="1" d="M522.023,440.336 C520.223,435.632 517.318,431.255 513.391,427.327 505.986,419.923 497.068,416.241 486.636,416.241 476.205,416.241 467.287,419.923 459.882,427.327 457.1,430.109 454.85,433.096 453.214,436.123 450.228,441.646 448.796,447.577 448.796,454.082 448.796,464.514 452.478,473.432 459.882,480.836 467.287,488.241 476.205,491.922 486.636,491.922 497.068,491.922 505.986,488.241 513.391,480.836 520.795,473.432 524.477,464.514 524.477,454.082 524.477,449.173 523.659,444.632 522.023,440.336z M486.432,435.223 C489.009,437.8 490.318,440.95 490.318,444.591 490.318,448.232 489.009,451.341 486.432,453.918 483.855,456.495 480.746,457.804 477.105,457.804 473.464,457.804 470.314,456.495 467.737,453.918 465.159,451.341 463.891,448.232 463.891,444.591 463.891,440.95 465.159,437.8 467.737,435.223 470.314,432.646 473.464,431.377 477.105,431.377 480.746,431.377 483.855,432.646 486.432,435.223z"/>
              <path id="path38" fill="#FFFFFF" fill-opacity="1" d="M486.432,435.223 C483.855,432.646 480.746,431.377 477.105,431.377 473.464,431.377 470.314,432.646 467.737,435.223 465.159,437.8 463.891,440.95 463.891,444.591 463.891,448.232 465.159,451.341 467.737,453.918 470.314,456.495 473.464,457.804 477.105,457.804 480.746,457.804 483.855,456.495 486.432,453.918 489.009,451.341 490.318,448.232 490.318,444.591 490.318,440.95 489.009,437.8 486.432,435.223z"/>
            </g>
          </g>
        </g>
      </g>
    </g>
  </g>
</svg>