
<svg xmlns="http://www.w3.org/2000/svg" version="1.1" xmlns:xlink="http://www.w3.org/1999/xlink" preserveAspectRatio="none" x="0px" y="0px" width="1024px" height="1024px" viewBox="0 0 1024 1024">
<defs>
<g id="Layer5_0_FILL">
<path fill="#000000" fill-opacity="0.09803921568627451" stroke="none" d="
M 969.6 351.25
Q 961 330.4 950.2 310.4 944.1 299.05 937.3 288 907.95 240.45 865.75 198.2 727.5 59.95 531.95 59.95 336.45 59.95 198.2 198.2 59.95 336.45 59.95 531.95 59.95 727.5 198.2 865.75 336.45 1003.95 531.95 1003.95 727.5 1003.95 865.75 865.75 941.9 789.55 976.1 696 1003.95 619.75 1003.95 531.95 1003.95 464.6 987.55 404 985.7 397.15 983.65 390.4 977.5 370.45 969.6 351.25 Z"/>
</g>

<g id="Layer3_0_MEMBER_0_MEMBER_0_FILL">
<path fill="#A644B9" stroke="none" d="
M 969.7 392
L 962.9 367.9
Q 959.8 358.2 957.55 352.05 948.1 325.05 934.45 298.4 929.1 288 922.15 276 891.55 224.15 845.75 178.25 736.75 69.25 592.15 46.25 567.7 42.25 542.05 40.85 526.85 40 512.05 40
L 512.05 510.15 984 510.15 984 509
Q 983.65 448.15 969.7 392 Z"/>
</g>

<g id="Layer3_0_MEMBER_0_MEMBER_1_FILL">
<path fill="#E02E6C" stroke="none" d="
M 983.7 530.5
Q 984 521.5 984 512
L 984 510.15 510.1 510.15 510.1 984 512 984
Q 527.75 984 542.05 983.25
L 549 982.75
Q 579.85 980.55 607.75 975.05 617.8 973.1 631.15 969.95 752.05 939.5 845.75 845.8 918.7 773 953.15 684 980.8 612.45 983.7 530.5 Z"/>
</g>

<g id="Layer3_0_MEMBER_0_MEMBER_2_FILL">
<path fill="#5657C2" stroke="none" d="
M 512.05 40
L 512 40
Q 498 40 484.1 40.75 306.5 49.9 178.25 178.25 40 316.5 40 512
L 40 514.2 510.1 514.2 510.1 510.15 512.05 510.15 512.05 40 Z"/>
</g>

<g id="Layer3_0_MEMBER_0_MEMBER_3_FILL">
<path fill="#ECAD5D" stroke="none" d="
M 510.1 514.2
L 40 514.2
Q 40.75 708.35 178.25 845.8 263.25 930.9 369.35 963.35 424.55 980.25 484.1 983.3
L 484.5 983.3
Q 497.7 984 509 984
L 510.1 984 510.1 514.2 Z"/>
</g>

<g id="Layer2_0_FILL">
<path fill="#000000" fill-opacity="0.2" stroke="none" d="
M 953.15 684
Q 979.473046875 616.0818359375 983.35 538.9
L 744.1 299.65
Q 132.4453125 124.7279296875 289.2 735.35
L 537.3 983.45
Q 539.6990234375 983.329296875 542.1 983.2 545.6 983 549.05 982.75 579.1 980.6 607.75 975.05 619.55 972.75 631.15 969.9 751.75 939.85 845.8 845.8 918.7 772.85 953.15 684 Z"/>
</g>

<g id="Layer0_0_FILL">
<path fill="#FFFFFF" stroke="none" d="
M 684.6 339.4
Q 688.6330078125 343.4359375 692.45 347.55
L 746.15 300.05
Q 740.9107421875 294.3107421875 735.3 288.7 642.8 196.2 512 196.2 381.2 196.2 288.7 288.7 196.2 381.2 196.2 512 196.2 642.8 288.7 735.3 381.2 827.8 512 827.8 642.8 827.8 735.3 735.3 827.8 642.8 827.8 512 827.8 495.701953125 826.35 480
L 513 480 513 555.9 752.4 555.9
Q 739.983203125 629.078125 684.6 684.5 613.1 755.95 512.05 755.95 411 755.95 339.5 684.5 268.05 613 268.05 511.95 268.05 410.9 339.5 339.4 411 267.95 512.05 267.95 613.1 267.95 684.6 339.4 Z"/>
</g>
</defs>

<g transform="matrix( 1, 0, 0, 1, 0,0) ">
<use xlink:href="#Layer5_0_FILL"/>
</g>

<g transform="matrix( 1, 0, 0, 1, 0,-0.1) ">
<use xlink:href="#Layer3_0_MEMBER_0_MEMBER_0_FILL"/>
</g>

<g transform="matrix( 1, 0, 0, 1, 0,-0.1) ">
<use xlink:href="#Layer3_0_MEMBER_0_MEMBER_1_FILL"/>
</g>

<g transform="matrix( 1, 0, 0, 1, 0,-0.1) ">
<use xlink:href="#Layer3_0_MEMBER_0_MEMBER_2_FILL"/>
</g>

<g transform="matrix( 1, 0, 0, 1, 0,-0.1) ">
<use xlink:href="#Layer3_0_MEMBER_0_MEMBER_3_FILL"/>
</g>

<g transform="matrix( 1, 0, 0, 1, 0,0) ">
<use xlink:href="#Layer2_0_FILL"/>
</g>

<g transform="matrix( 1, 0, 0, 1, 0,0) ">
<use xlink:href="#Layer0_0_FILL"/>
</g>
</svg>
