<?xml version="1.0" encoding="utf-8"?>
<!-- Generator: flash2svg, http://dissentgraphics.com/tools/flash2svg -->
<svg id="Apps-BetterTouchTool" image-rendering="optimizeSpeed" baseProfile="basic" version="1.1" style="background-color:#FFFFFF" x="0px" y="0px" width="1024px" height="1024px" viewBox="0 0 1024 1024" enable-background="new 0 0 1024 1024" xmlns="http://www.w3.org/2000/svg" xmlns:xlink="http://www.w3.org/1999/xlink">
  <defs transform="matrix(1 0 0 1 0 0) "/>
  <g id="background-circle-shadow">
    <g id="shape">
      <path id="path" fill="#000000" fill-opacity="0.09803921568627451" d="M969.6,351.25 Q961,330.4 950.2,310.4 C946.15,302.85 941.85,295.35 937.3,288 917.75,256.3 893.9,226.35 865.75,198.2 773.6,106.05 662.3,59.95 531.95,59.95 401.6,59.95 290.35,106.05 198.2,198.2 106.05,290.35 59.95,401.6 59.95,531.95 59.95,662.3 106.05,773.6 198.2,865.75 290.35,957.9 401.6,1003.95 531.95,1003.95 662.3,1003.95 773.6,957.9 865.75,865.75 916.5,814.95 953.3,758.35 976.1,696 994.65,645.15 1003.95,590.5 1003.95,531.95 1003.95,487.05 998.5,444.4 987.55,404 986.3,399.45 985,394.9 983.65,390.4 979.55,377.1 974.85,364.05 969.6,351.25z"/>
    </g>
  </g>
  <g id="background-circle">
    <g id="shape2">
      <path id="path1" fill="#6835AB" fill-opacity="1" d="M969.7,392 C968.6,387.65 967.35,383 966.05,378.4 965.05,375 964.05,371.55 962.9,367.9 961.3,362.75 959.5,357.4 957.6,352.05 951.15,333.8 943.45,316 934.45,298.4 930.65,291 926.5,283.45 922.15,276 901.85,241.5 876.35,208.8 845.8,178.25 773.2,105.65 688.65,61.6 592.15,46.2 575.9,43.6 559.35,41.8 542.1,40.85 532.4,40.3 522.25,40 512,40 502.65,40 493.4,40.25 484.1,40.75 365.75,46.85 263.8,92.7 178.25,178.25 Q40,316.5 40,512 C40,642.35 86.1,753.65 178.25,845.8 234.95,902.45 298.8,941.7 369.35,963.35 406.1,974.6 444.15,981.2 484.1,983.3 484.25,983.3 484.35,983.3 484.5,983.3 493,983.75 501.1,984 509,984 510.2,984 511.1,984 512,984 522.3,984 532.5,983.7 542.1,983.2 544.6,983.05 546.85,982.9 549.05,982.75 569.25,981.3 588.95,978.7 607.75,975.05 615.7,973.5 623.55,971.75 631.15,969.9 711.95,949.6 783.3,908.3 845.8,845.8 894.4,797.2 930.2,743.3 953.15,684 971.6,636.35 981.8,585.2 983.7,530.5 983.9,524.45 984,518.25 984,512 984,511.35 984,510.65 984,510 984,509.65 984,509.35 984,509 983.8,468.35 979.05,429.5 969.7,392z"/>
    </g>
  </g>
  <g id="background-circle1">
    <g id="shape4">
      <path id="path2" fill="#000000" fill-opacity="0.2" d="M984,510 C984,509.65 984,509.35 984,509 983.95,499.3 983.65,489.7 983.05,480.1 L802.875,299.925 234,318 221.25,720.35 484.2,983.3 C484.3,983.3 484.4,983.3 484.5,983.3 493,983.75 501.1,984 509,984 Q510.5,984 512,984 C522.3,984 532.5,983.7 542.1,983.2 544.6,983.05 546.85,982.9 549.05,982.75 569.25,981.3 588.95,978.7 607.75,975.05 615.7,973.5 623.55,971.75 631.15,969.9 711.95,949.6 783.3,908.3 845.8,845.8 894.4,797.2 930.2,743.3 953.15,684 971.6,636.35 981.8,585.2 983.7,530.5 983.9,524.45 984,518.25 984,512 984,511.35 984,510.65 984,510z"/>
    </g>
  </g>
  <g id="object-shadow">
    <g id="shape6">
      <path id="path3" fill="#FFFFFF" fill-opacity="1" d="M802.85,299.9 L802.85,299.95 C790.75,287.85 776.1,281.75 758.95,281.75 L265.15,281.75 C248.1,281.75 233.45,287.8 221.25,299.9 L221.2,299.95 C209.1,312.05 203,326.7 203,343.8 L203,676.45 C203,693.6 209.1,708.2 221.2,720.3 L221.25,720.35 C233.4,732.45 248.05,738.55 265.15,738.55 L369.6,738.55 C375.5,738.55 380.55,736.45 384.7,732.25 388.9,728.1 391,723.05 391,717.15 L391,534.85 C391,522.4 395.4,511.75 404.2,502.95 412.95,494.15 423.6,489.75 436.1,489.75 L444.65,489.75 C457.15,489.75 467.75,494.15 476.55,502.95 485.35,511.75 489.75,522.4 489.75,534.85 L489.75,720.95 C489.75,726.85 491.85,731.9 496,736.05 500.2,740.25 505.25,742.35 511.1,742.35 517,742.35 522.05,740.25 526.2,736.05 530.4,731.9 532.5,726.85 532.5,720.95 L532.5,598.95 582.35,598.95 C594.85,598.95 605.5,603.35 614.25,612.15 623.05,620.9 627.45,631.55 627.45,644.05 L627.45,717.15 C627.45,723.05 629.55,728.1 633.75,732.25 637.9,736.45 642.95,738.55 648.85,738.55 L758.95,738.55 C776.05,738.55 790.7,732.5 802.8,720.4 802.85,720.35 802.85,720.35 802.9,720.3 815,708.2 821.05,693.6 821.05,676.45 L821.05,343.8 C821.05,326.7 815,312 802.85,299.9z M778.35,343.8 L778.35,676.45 C778.35,681.8 776.45,686.3 772.7,690.05 L772.6,690.15 C768.85,693.9 764.3,695.8 758.95,695.8 L670.2,695.8 670.2,644.05 C670.2,619.75 661.6,599.05 644.45,581.95 627.3,564.8 606.6,556.2 582.35,556.2 L532.5,556.2 532.5,534.85 C532.5,510.6 523.9,489.9 506.75,472.75 489.6,455.6 468.9,447 444.65,447 L436.1,447 C411.8,447 391.1,455.6 374,472.75 356.85,489.9 348.25,510.6 348.25,534.85 L348.25,695.8 265.15,695.8 C259.75,695.8 255.2,693.9 251.4,690.1 L251.4,690.05 C247.65,686.3 245.75,681.8 245.75,676.45 L245.75,343.8 C245.75,338.45 247.65,333.9 251.4,330.15 L251.35,330.25 C255.2,326.4 259.75,324.5 265.15,324.5 L758.95,324.5 C764.35,324.5 768.9,326.4 772.65,330.15 L772.7,330.2 C776.45,333.95 778.35,338.5 778.35,343.8z"/>
    </g>
  </g>
</svg>