<?xml version="1.0" encoding="utf-8"?>
<!-- Generator: flash2svg, http://dissentgraphics.com/tools/flash2svg -->
<svg id="Apps-Hitman" image-rendering="optimizeSpeed" baseProfile="basic" version="1.1" style="background-color:#FFFFFF" x="0px" y="0px" width="1024px" height="1024px" viewBox="0 0 1024 1024" enable-background="new 0 0 1024 1024" xmlns="http://www.w3.org/2000/svg" xmlns:xlink="http://www.w3.org/1999/xlink">
  <defs transform="matrix(1 0 0 1 0 0) "/>
  <g id="background-circle-shadow">
    <g id="shape">
      <path id="path" fill="#000000" fill-opacity="0.09803921568627451" d="M969.6,351.25 Q961,330.4 950.2,310.4 C946.15,302.85 941.85,295.35 937.3,288 917.75,256.3 893.9,226.35 865.75,198.2 773.6,106.05 662.3,59.95 531.95,59.95 401.6,59.95 290.35,106.05 198.2,198.2 106.05,290.35 59.95,401.6 59.95,531.95 59.95,662.3 106.05,773.6 198.2,865.75 290.35,957.9 401.6,1003.95 531.95,1003.95 662.3,1003.95 773.6,957.9 865.75,865.75 916.5,814.95 953.3,758.35 976.1,696 994.65,645.15 1003.95,590.5 1003.95,531.95 1003.95,487.05 998.5,444.4 987.55,404 986.3,399.45 985,394.9 983.65,390.4 979.55,377.1 974.85,364.05 969.6,351.25z"/>
    </g>
  </g>
  <g id="background-circle">
    <g id="shape2">
      <path id="path1" fill="#630100" fill-opacity="1" d="M969.7,392 C968.6,387.65 967.35,383 966.05,378.4 965.05,375 964.05,371.55 962.9,367.9 961.3,362.75 959.5,357.4 957.6,352.05 951.15,333.8 943.45,316 934.45,298.4 930.65,291 926.5,283.45 922.15,276 901.85,241.5 876.35,208.8 845.8,178.25 773.2,105.65 688.65,61.6 592.15,46.2 575.9,43.6 559.35,41.8 542.1,40.85 532.4,40.3 522.25,40 512,40 502.65,40 493.4,40.25 484.1,40.75 365.75,46.85 263.8,92.7 178.25,178.25 Q40,316.5 40,512 C40,642.35 86.1,753.65 178.25,845.8 234.95,902.45 298.8,941.7 369.35,963.35 406.1,974.6 444.15,981.2 484.1,983.3 484.25,983.3 484.35,983.3 484.5,983.3 493,983.75 501.1,984 509,984 510.2,984 511.1,984 512,984 522.3,984 532.5,983.7 542.1,983.2 544.6,983.05 546.85,982.9 549.05,982.75 569.25,981.3 588.95,978.7 607.75,975.05 615.7,973.5 623.55,971.75 631.15,969.9 711.95,949.6 783.3,908.3 845.8,845.8 894.4,797.2 930.2,743.3 953.15,684 971.6,636.35 981.8,585.2 983.7,530.5 983.9,524.45 984,518.25 984,512 984,511.35 984,510.65 984,510 984,509.65 984,509.35 984,509 983.8,468.35 979.05,429.5 969.7,392z"/>
    </g>
  </g>
  <g id="object-shadow">
    <g id="shape4">
      <path id="path2" fill="#000000" fill-opacity="0.2" d="M969.7,392 C968.6,387.65 967.35,383 966.05,378.4 965.05,375 964.05,371.55 962.9,367.9 961.3,362.75 959.5,357.4 957.6,352.05 956.25,348.2 954.85,344.35 953.25,340.25 L953.225,340.225 L825,212 617,539 256,178 252.075,246 423,707 327,731 318,759 366.675,872.525 322.825,946.05 L322.85,946.05 C338.25,952.85 353.65,958.55 369.35,963.35 406.1,974.6 444.15,981.2 484.1,983.3 484.25,983.3 484.35,983.3 484.5,983.3 493,983.75 501.1,984 509,984 Q510.5,984 512,984 C522.3,984 532.5,983.7 542.1,983.2 544.6,983.05 546.85,982.9 549.05,982.75 569.25,981.3 588.95,978.7 607.75,975.05 615.7,973.5 623.55,971.75 631.15,969.9 711.95,949.6 783.3,908.3 845.8,845.8 894.4,797.2 930.2,743.3 953.15,684 971.6,636.35 981.8,585.2 983.7,530.5 983.9,524.45 984,518.25 984,512 984,511.35 984,510.65 984,510 984,509.65 984,509.35 984,509 983.8,468.35 979.05,429.5 969.7,392z"/>
    </g>
  </g>
  <mask id="object">
    <g id="g">
      <g id="shape6">
        <path id="path3" fill="#FFFFFF" fill-opacity="1" d="M969.7,392 C968.6,387.65 967.35,383 966.05,378.4 965.05,375 964.05,371.55 962.9,367.9 961.3,362.75 959.5,357.4 957.6,352.05 951.15,333.8 943.45,316 934.45,298.4 930.65,291 926.5,283.45 922.15,276 901.85,241.5 876.35,208.8 845.8,178.25 773.2,105.65 688.65,61.6 592.15,46.2 575.9,43.6 559.35,41.8 542.1,40.85 532.4,40.3 522.25,40 512,40 502.65,40 493.4,40.25 484.1,40.75 365.75,46.85 263.8,92.7 178.25,178.25 Q40,316.5 40,512 C40,642.35 86.1,753.65 178.25,845.8 234.95,902.45 298.8,941.7 369.35,963.35 406.1,974.6 444.15,981.2 484.1,983.3 484.25,983.3 484.35,983.3 484.5,983.3 493,983.75 501.1,984 509,984 510.2,984 511.1,984 512,984 522.3,984 532.5,983.7 542.1,983.2 544.6,983.05 546.85,982.9 549.05,982.75 569.25,981.3 588.95,978.7 607.75,975.05 615.7,973.5 623.55,971.75 631.15,969.9 711.95,949.6 783.3,908.3 845.8,845.8 894.4,797.2 930.2,743.3 953.15,684 971.6,636.35 981.8,585.2 983.7,530.5 983.9,524.45 984,518.25 984,512 984,511.35 984,510.65 984,510 984,509.65 984,509.35 984,509 983.8,468.35 979.05,429.5 969.7,392z"/>
      </g>
    </g>
  </mask>
  <g id="masked" mask="url(#object)">
    <g id="Symbole.__203">
      <g id="Symbole.__204_1" overflow="visible">
        <g id="Calque.__202">
          <g id="shape30">
            <path id="path23" fill="#090909" fill-opacity="1" d="M825.5,201.8 L772.1,177.4 C763.85,173.65 757.95,175.9 754.2,184.05 L626.8,463.1 C623,471.35 625.2,477.3 633.45,481.05 L639.55,483.9 680.6,502.6 686.85,505.45 C695.1,509.25 701.05,507 704.85,498.75 L832.25,219.7 C836,211.55 833.75,205.6 825.5,201.8z"/>
            <path id="path24" fill="#000000" fill-opacity="1" d="M639.55,483.9 L635.9,491.9 676.95,510.6 680.6,502.6 639.55,483.9z"/>
            <path id="path25" fill="#A8A8A8" fill-opacity="1" d="M635.9,491.9 L616.85,483.15 499.6,739.9 540.75,758.7 C543.25,759.85 545,761.7 545.95,764.25 546.9,766.8 546.85,769.35 545.7,771.85 544.6,774.3 542.7,776.05 540.15,776.95 537.6,777.95 535.05,777.85 532.55,776.65 L491.4,757.85 485.2,771.4 526.35,790.2 C528.85,791.35 530.65,793.2 531.55,795.8 532.55,798.3 532.45,800.85 531.3,803.35 530.15,805.85 528.3,807.55 525.75,808.55 523.2,809.45 520.65,809.35 518.15,808.15 L477,789.35 475.15,793.5 470.85,802.9 512,821.7 C514.5,822.85 516.2,824.8 517.2,827.3 518.1,829.9 518.05,832.4 516.9,834.9 515.8,837.4 513.9,839.05 511.35,840.05 508.8,840.95 506.25,840.9 503.8,839.7 L462.65,820.9 456.45,834.45 497.6,853.25 Q501.35,854.95 502.8,858.85 C503.75,861.4 503.65,863.95 502.55,866.4 501.4,868.9 499.5,870.65 496.95,871.55 494.4,872.55 491.85,872.4 489.35,871.25 L448.2,852.45 440.35,869.7 426.85,899.2 503.7,934.3 693.7,518.25 676.95,510.6 635.9,491.9z"/>
            <path id="path26" fill="#868686" fill-opacity="1" d="M728.65,549 C732.4,540.85 730.15,534.9 721.95,531.15 L693.7,518.25 503.7,934.3 544.25,952.8 C561.95,922.6 581.6,916.85 603.3,935.85 L677.6,991.65 C704.3,1010.75 724.05,1007.55 737,982.05 L771.05,907.4 677.05,836.75 701.85,782.4 C709.95,766.9 711.6,753.2 706.65,741.3 702.7,729.4 692.5,719.5 675.9,711.55 675.8,711.55 675.75,711.5 675.65,711.45 L658.15,703.45 728.65,549z M648,725.65 L665.3,733.55 C674.85,738.2 680.9,743.6 683.7,749.85 685.55,756 684.35,763.05 680,771.25 679.85,771.4 679.75,771.65 679.7,771.85 L656.95,821.7 636.8,806.55 C634.45,804.65 632.5,802.45 631.05,799.8 637.9,799 644.1,796.5 649.95,792.3 657.8,786.7 663,779.45 665.65,770.65 657.4,776.4 647.65,777.4 636.25,773.6 633.95,772.8 631.65,771.9 629.3,770.7 630,767.45 630.95,764.05 632.1,760.4 L648,725.65z M744.25,913.55 L719.3,968.25 C710.85,981.4 698.8,982.35 683,971.15 L578.6,890.85 614,813.35 744.25,913.55z"/>
            <path id="path27" fill="#434343" fill-opacity="1" d="M631.05,799.8 C637.9,799 644.1,796.5 649.95,792.3 657.8,786.7 663,779.45 665.65,770.65 657.4,776.4 647.65,777.4 636.25,773.6 633.95,772.8 631.65,771.9 629.3,770.7 626.5,783.1 627.1,792.8 631.05,799.8z"/>
            <path id="path28" fill="#434343" fill-opacity="1" d="M744.25,913.55 L614,813.35 578.6,890.85 683,971.15 C698.8,982.35 710.85,981.4 719.3,968.25 L744.25,913.55z M499.6,739.9 L491.4,757.85 532.55,776.65 C535.05,777.85 537.6,777.95 540.15,776.95 542.7,776.05 544.6,774.3 545.7,771.85 546.85,769.35 546.9,766.8 545.95,764.25 545,761.7 543.25,759.85 540.75,758.7 L499.6,739.9z M531.55,795.8 C530.65,793.2 528.85,791.35 526.35,790.2 L485.2,771.4 477,789.35 518.15,808.15 C520.65,809.35 523.2,809.45 525.75,808.55 528.3,807.55 530.15,805.85 531.3,803.35 532.45,800.85 532.55,798.3 531.55,795.8z M517.2,827.3 C516.2,824.8 514.5,822.85 512,821.7 L470.85,802.9 462.65,820.9 503.8,839.7 C506.25,840.9 508.8,840.95 511.35,840.05 513.9,839.05 515.8,837.4 516.9,834.9 518.05,832.4 518.1,829.9 517.2,827.3z M456.45,834.45 L448.2,852.45 489.35,871.25 C491.85,872.4 494.4,872.55 496.95,871.55 499.5,870.65 501.4,868.9 502.55,866.4 503.65,863.95 503.75,861.4 502.8,858.85 Q501.35,854.95 497.6,853.25 L456.45,834.45z"/>
          </g>
        </g>
      </g>
      <g id="Symbole.__204_2" overflow="visible">
        <g id="Calque.__203">
          <g id="shape31">
            <path id="path29" fill="#0E0E0E" fill-opacity="1" d="M192.75,201.8 L246.15,177.4 C254.4,173.65 260.3,175.9 264.05,184.05 L391.45,463.1 C395.25,471.35 393.05,477.3 384.8,481.05 L378.7,483.9 337.65,502.6 331.4,505.45 C323.15,509.25 317.2,507 313.4,498.75 L186,219.7 C182.25,211.55 184.5,205.6 192.75,201.8z"/>
            <path id="path30" fill="#000000" fill-opacity="1" d="M378.7,483.9 L382.35,491.9 341.3,510.6 337.65,502.6 378.7,483.9z"/>
            <path id="path31" fill="#FFFFFF" fill-opacity="1" d="M382.35,491.9 L401.4,483.15 518.65,739.9 477.5,758.7 C475,759.85 473.25,761.7 472.3,764.25 471.35,766.8 471.4,769.35 472.55,771.85 473.65,774.3 475.55,776.05 478.1,776.95 480.65,777.95 483.2,777.85 485.7,776.65 L526.85,757.85 533.05,771.4 491.9,790.2 C489.4,791.35 487.6,793.2 486.7,795.8 485.7,798.3 485.8,800.85 486.95,803.35 488.1,805.85 489.95,807.55 492.5,808.55 495.05,809.45 497.6,809.35 500.1,808.15 L541.25,789.35 543.1,793.5 547.4,802.9 506.25,821.7 C503.75,822.85 502.05,824.8 501.05,827.3 500.15,829.9 500.2,832.4 501.35,834.9 502.45,837.4 504.35,839.05 506.9,840.05 509.45,840.95 512,840.9 514.45,839.7 L555.6,820.9 561.8,834.45 520.65,853.25 Q516.9,854.95 515.45,858.85 C514.5,861.4 514.6,863.95 515.7,866.4 516.85,868.9 518.75,870.65 521.3,871.55 523.85,872.55 526.4,872.4 528.9,871.25 L570.05,852.45 577.9,869.7 591.4,899.2 514.55,934.3 324.55,518.25 341.3,510.6 382.35,491.9z"/>
            <path id="path32" fill="#CCCCCC" fill-opacity="1" d="M289.6,549 C285.85,540.85 288.1,534.9 296.3,531.15 L324.55,518.25 514.55,934.3 474,952.8 C456.3,922.6 436.65,916.85 414.95,935.85 L340.65,991.65 C313.95,1010.75 294.2,1007.55 281.25,982.05 L247.2,907.4 341.2,836.75 316.4,782.4 C308.3,766.9 306.65,753.2 311.6,741.3 315.55,729.4 325.75,719.5 342.35,711.55 342.45,711.55 342.5,711.5 342.6,711.45 L360.1,703.45 289.6,549z M370.25,725.65 L352.95,733.55 C343.4,738.2 337.35,743.6 334.55,749.85 332.7,756 333.9,763.05 338.25,771.25 338.4,771.4 338.5,771.65 338.55,771.85 L361.3,821.7 381.45,806.55 C383.8,804.65 385.75,802.45 387.2,799.8 380.35,799 374.15,796.5 368.3,792.3 360.45,786.7 355.25,779.45 352.6,770.65 360.85,776.4 370.6,777.4 382,773.6 384.3,772.8 386.6,771.9 388.95,770.7 388.25,767.45 387.3,764.05 386.15,760.4 L370.25,725.65z M274,913.55 L298.95,968.25 C307.4,981.4 319.45,982.35 335.25,971.15 L439.65,890.85 404.25,813.35 274,913.55z"/>
            <path id="path33" fill="#666666" fill-opacity="1" d="M387.2,799.8 C380.35,799 374.15,796.5 368.3,792.3 360.45,786.7 355.25,779.45 352.6,770.65 360.85,776.4 370.6,777.4 382,773.6 384.3,772.8 386.6,771.9 388.95,770.7 391.75,783.1 391.15,792.8 387.2,799.8z"/>
            <path id="path34" fill="#666666" fill-opacity="1" d="M274,913.55 L404.25,813.35 439.65,890.85 335.25,971.15 C319.45,982.35 307.4,981.4 298.95,968.25 L274,913.55z M518.65,739.9 L526.85,757.85 485.7,776.65 C483.2,777.85 480.65,777.95 478.1,776.95 475.55,776.05 473.65,774.3 472.55,771.85 471.4,769.35 471.35,766.8 472.3,764.25 473.25,761.7 475,759.85 477.5,758.7 L518.65,739.9z M486.7,795.8 C487.6,793.2 489.4,791.35 491.9,790.2 L533.05,771.4 541.25,789.35 500.1,808.15 C497.6,809.35 495.05,809.45 492.5,808.55 489.95,807.55 488.1,805.85 486.95,803.35 485.8,800.85 485.7,798.3 486.7,795.8z M501.05,827.3 C502.05,824.8 503.75,822.85 506.25,821.7 L547.4,802.9 555.6,820.9 514.45,839.7 C512,840.9 509.45,840.95 506.9,840.05 504.35,839.05 502.45,837.4 501.35,834.9 500.2,832.4 500.15,829.9 501.05,827.3z M561.8,834.45 L570.05,852.45 528.9,871.25 C526.4,872.4 523.85,872.55 521.3,871.55 518.75,870.65 516.85,868.9 515.7,866.4 514.6,863.95 514.5,861.4 515.45,858.85 Q516.9,854.95 520.65,853.25 L561.8,834.45z"/>
          </g>
        </g>
      </g>
    </g>
  </g>
</svg>