
<svg xmlns="http://www.w3.org/2000/svg" version="1.1" xmlns:xlink="http://www.w3.org/1999/xlink" preserveAspectRatio="none" x="0px" y="0px" width="1024px" height="1024px" viewBox="0 0 1024 1024">
<defs>
<g id="Layer4_0_FILL">
<path fill="#000000" fill-opacity="0.09803921568627451" stroke="none" d="
M 969.6 351.25
Q 961 330.4 950.2 310.4 944.1 299.05 937.3 288 907.95 240.45 865.75 198.2 727.5 59.95 531.95 59.95 336.45 59.95 198.2 198.2 59.95 336.45 59.95 531.95 59.95 727.5 198.2 865.75 336.45 1003.95 531.95 1003.95 727.5 1003.95 865.75 865.75 941.9 789.55 976.1 696 1003.95 619.75 1003.95 531.95 1003.95 464.6 987.55 404 985.7 397.15 983.65 390.4 977.5 370.45 969.6 351.25 Z"/>
</g>

<g id="Layer3_0_FILL">
<path fill="#3498DB" stroke="none" d="
M 969.7 392
Q 967.95 385.15 966.05 378.4 964.52578125 373.114453125 962.85 367.85 960.3787109375 359.903125 957.6 352.05 947.85 324.5 934.45 298.4 928.65 287.05 922.15 276 891.5 224 845.8 178.25 736.8 69.25 592.15 46.2 567.65 42.3 542.1 40.85 527.2 40 512 40 497.9 40 484.1 40.75 306.55 49.95 178.25 178.25 40 316.5 40 512 40 707.55 178.25 845.8 263.0400390625 930.55703125 369.35 963.35 423.8880859375 980.1630859375 484.1 983.3 484.3 983.3 484.5 983.3 496.65 983.9 509 984 510.5 984 512 984 527.25 984 542.1 983.2 545.6 983 549.05 982.75 579.1 980.6 607.75 975.05 619.55 972.75 631.15 969.9 751.75 939.85 845.8 845.8 918.7 772.85 953.15 684 980.9 612.4 983.7 530.5 984 521.3 984 512 984 511 984 510 984 509.5 984 509 983.65 447.7 969.7 392 Z"/>
</g>

<g id="Layer2_0_FILL">
<path fill="#000000" fill-opacity="0.2" stroke="none" d="
M 953.15 684
Q 979.473046875 616.0818359375 983.35 538.9
L 744.1 299.65 289.2 735.35 537.3 983.45
Q 539.6990234375 983.329296875 542.1 983.2 545.6 983 549.05 982.75 579.1 980.6 607.75 975.05 619.55 972.75 631.15 969.9 751.75 939.85 845.8 845.8 918.7 772.85 953.15 684 Z"/>
</g>

<g id="Layer1_0_FILL">
<path fill="#83C3ED" stroke="none" d="
M 739.85 726.35
L 739.85 612.35 458 612.35
Q 438 612.35 438 632.35
L 438 706.35
Q 438 726.35 458 726.35
L 739.85 726.35
M 741.85 568.7
L 741.85 454.7 458 454.7
Q 438 454.7 438 474.7
L 438 548.7
Q 438 568.7 458 568.7
L 741.85 568.7
M 710.75 411.05
L 710.75 297.05 459.1 297.05
Q 439.1 297.05 439.1 317.05
L 439.1 391.05
Q 439.1 411.05 459.1 411.05
L 710.75 411.05
M 245 612.35
Q 225 612.35 225 632.35
L 225 706.35
Q 225 726.35 245 726.35
L 335 726.35
Q 355 726.35 355 706.35
L 355 632.35
Q 355 612.35 335 612.35
L 245 612.35
M 245 454.7
Q 225 454.7 225 474.7
L 225 548.7
Q 225 568.7 245 568.7
L 335 568.7
Q 355 568.7 355 548.7
L 355 474.7
Q 355 454.7 335 454.7
L 245 454.7
M 356.1 317.05
Q 356.1 297.05 336.1 297.05
L 246.1 297.05
Q 226.1 297.05 226.1 317.05
L 226.1 391.05
Q 226.1 411.05 246.1 411.05
L 336.1 411.05
Q 356.1 411.05 356.1 391.05
L 356.1 317.05 Z"/>
</g>

<g id="Layer0_0_FILL">
<path fill="#FFFFFF" stroke="none" d="
M 805.8 303.35
Q 764.75 242.5 664.3 251.25 653.95 252.15 646.4 259.2 638.75 266.2 636.95 276.35 635.1 286.55 640 295.8 706.75 423.25 715.85 594.1 682.55 574.5 639.65 574.25 630.35 574.25 621.5 575.25
L 621.6 575.25
Q 577.55 580 544.65 607.4 501.85 643 502.35 693.7 501.85 744.4 544.65 780.05
L 544.7 780.05
Q 568.9 800.15 599.3 808.1 618.25 813.05 639.65 813.1 695.25 812.8 734.65 780.05 777.45 744.4 776.9 693.7 776.9 692.05 776.85 690.45 777.6 687.35 777.75 683.95 783.95 471.85 716.55 314.75 741.8 321.05 756.4 339.05 782.5 378.9 771.35 463.95 769.7 476.45 777.45 486.5 785.15 496.5 797.6 498.15 810.05 499.8 820.1 492.1 830.1 484.35 831.8 471.9 846.9 356.6 805.8 303.35 Z"/>
</g>
</defs>

<g transform="matrix( 1, 0, 0, 1, 0,0) ">
<use xlink:href="#Layer4_0_FILL"/>
</g>

<g transform="matrix( 1, 0, 0, 1, 0,0) ">
<use xlink:href="#Layer3_0_FILL"/>
</g>

<g transform="matrix( 1, 0, 0, 1, 0,0) ">
<use xlink:href="#Layer2_0_FILL"/>
</g>

<g transform="matrix( 1, 0, 0, 1, 0,0) ">
<use xlink:href="#Layer1_0_FILL"/>
</g>

<g transform="matrix( 1, 0, 0, 1, 0,0) ">
<use xlink:href="#Layer0_0_FILL"/>
</g>
</svg>
