<?xml version="1.0" encoding="utf-8"?>
<!-- Generator: flash2svg, http://dissentgraphics.com/tools/flash2svg -->
<svg id="App-Store" image-rendering="optimizeSpeed" baseProfile="basic" version="1.1" style="background-color:#FFFFFF" x="0px" y="0px" width="1024px" height="1024px" viewBox="0 0 1024 1024" enable-background="new 0 0 1024 1024" xmlns="http://www.w3.org/2000/svg" xmlns:xlink="http://www.w3.org/1999/xlink">
  <defs transform="matrix(1 0 0 1 0 0) "/>
  <g id="shadow">
    <g id="shape">
      <path id="path" fill="#000000" fill-opacity="0.09803921568627451" d="M964.6,346.25 Q956,325.4 945.2,305.4 C941.15,297.85 936.85,290.35 932.3,283 912.75,251.3 888.9,221.35 860.75,193.2 768.6,101.05 657.3,54.95 526.95,54.95 396.6,54.95 285.35,101.05 193.2,193.2 101.05,285.35 54.95,396.6 54.95,526.95 54.95,657.3 101.05,768.6 193.2,860.75 285.35,952.9 396.6,998.95 526.95,998.95 657.3,998.95 768.6,952.9 860.75,860.75 911.5,809.95 948.3,753.35 971.1,691 989.65,640.15 998.95,585.5 998.95,526.95 998.95,482.05 993.5,439.4 982.55,399 981.3,394.45 980,389.9 978.65,385.4 974.55,372.1 969.85,359.05 964.6,346.25z"/>
    </g>
  </g>
  <g id="circle">
    <g id="shape2">
      <path id="path1" fill="#0099CC" fill-opacity="1" d="M969.7,392 C968.6,387.65 967.35,383 966.05,378.4 963.55,369.65 960.7,360.8 957.6,352.05 951.15,333.8 943.45,316 934.45,298.4 930.65,291 926.5,283.45 922.15,276 L922.125,276 Q891.524,223.99 845.8,178.25 C753.65,86.1 642.35,40 512,40 381.65,40 270.4,86.1 178.25,178.25 86.1,270.4 40,381.65 40,512 40,642.35 86.1,753.65 178.25,845.8 246.3,913.85 324.75,956.75 413.15,974.45 445.1,980.85 477.9,984 512,984 642.35,984 753.65,937.95 845.8,845.8 894.4,797.2 930.2,743.3 953.15,684 970.15,640.05 980.15,593.2 983.1,543.25 983.7,533.05 984,522.6 984,512 984,470.25 979.3,430.4 969.7,392z"/>
    </g>
  </g>
  <g id="ico-shadow">
    <g id="shape4">
      <path id="path2" fill="#000000" fill-opacity="0.2" d="M953.15,684 C970.15,640.05 980.15,593.2 983.1,543.25 L581.4,141.55 237.55,798.85 413.15,974.45 Q460.592,984 512,984 C642.35,984 753.65,937.95 845.8,845.8 894.4,797.2 930.2,743.3 953.15,684z"/>
    </g>
  </g>
  <g id="ico">
    <g id="shape6">
      <path id="path3" fill="#CCCCCC" fill-opacity="1" d="M753.75,459.55 L746.15,459.55 746.15,507.2 753.75,507.2 753.75,459.55z M765.55,622.4 L758.075,602.9 692.725,602.9 708.55,644.25 712.15,642.85 763.8,623.05 765.55,622.4z M602.95,487.05 L602.95,459.3 595.4,459.3 595.4,487.05 602.95,487.05z M502.45,486.35 L502.45,459.3 494.9,459.3 494.9,486.35 502.45,486.35z M552.7,459.3 L545.15,459.3 545.15,507.2 552.7,507.2 552.7,459.3z M251.15,459.3 L243.6,459.3 243.6,507.2 251.15,507.2 251.15,459.3z M301.4,459.3 L293.85,459.3 293.85,487.05 294,487.05 301.4,470.8 301.4,459.3z M703.45,459.3 L703.075,459.3 581.4,141.55 C578.4,133.7 572.95,131.25 565.1,134.3 L531.65,147.05 C523.8,150.1 521.4,155.55 524.4,163.4 L527.675,171.925 582.6,197 C590.25,200.5 592.1,206.6 588.2,215.1 L567.2,261.4 564.325,267.65 637.725,459.3 645.65,459.3 645.65,507.2 653.2,507.2 653.2,459.3 695.9,459.3 695.9,487.05 703.45,487.05 703.45,460.275 703.45,459.3z M511.25,263.75 L463.6,242.05 248,715.1 247.45,716.2 247.55,716.3 247.7,716.35 C247.75,716.15 247.75,716.05 247.8,715.9 248.8,714.65 249.7,713.65 250.7,712.75 253.25,710.55 256.15,708.8 259.45,707.6 266.5,704.95 273.4,705.2 280.2,708.35 287,711.45 291.7,716.45 294.3,723.45 295.8,727.3 296.35,731.2 296.05,735.1 296,735.4 296,735.75 296,736.05 295.95,736.1 295.95,736.1 295.85,736.2 L295.95,736.2 296.05,736 511.25,263.75z"/>
      <path id="path6" fill="#FFFFFF" fill-opacity="1" d="M805.75,682 C804.9,679.2 804.05,676.8 803.3,674.85 795.55,654.7 784.75,639.1 770.9,628.1 768.55,626.15 766.2,624.5 763.8,623.05 L712.15,642.85 C711.4,645.45 710.75,648.3 710.2,651.35 708.55,661.1 708.65,671.35 710.4,682 711.7,690.35 714.05,698.9 717.45,707.7 725.2,727.85 735.95,743.45 749.75,754.5 750.65,755.25 751.55,755.9 752.45,756.5 759.8,761.85 768.25,766.5 777.85,770.45 L841.75,796.4 C832.95,792.1 826.7,779.85 822.95,759.6 819.25,739.35 816.45,725 814.55,716.55 812.6,708.15 810.6,700.1 808.6,692.45 807.55,688.5 806.6,685 805.75,682z M294,487.05 L293.85,487.05 293.85,459.3 251.15,459.3 251.15,507.2 243.6,507.2 243.6,459.3 222.8,459.3 C214.45,459.3 210.2,463.55 210.2,471.9 L210.2,590.3 C210.2,598.7 214.45,602.9 222.8,602.9 L241.175,602.9 294,487.05z M301.4,470.8 L306.65,459.3 301.4,459.3 301.4,470.8z M753.75,459.3 L753.75,459.55 753.75,507.2 746.15,507.2 746.15,459.55 746.15,459.3 703.45,459.3 703.45,460.275 703.45,487.05 695.9,487.05 695.9,459.3 653.2,459.3 653.2,507.2 645.65,507.2 645.65,459.3 637.725,459.3 602.95,459.3 602.95,487.05 595.4,487.05 595.4,459.3 552.7,459.3 552.7,507.2 545.15,507.2 545.15,459.3 502.45,459.3 502.45,486.35 494.9,486.35 494.9,459.3 476.9,459.3 411.45,602.9 692.725,602.9 758.075,602.9 778.3,602.9 C786.65,602.9 790.9,598.7 790.9,590.3 L790.9,471.9 C790.9,463.55 786.65,459.3 778.3,459.3 L753.75,459.3z M203.4,690.15 C203.4,690.4 203.5,690.6 203.55,690.75 203.75,692.6 204.4,694.25 205.5,695.7 L227.6,766.9 C234.45,767.4 241.6,769.45 248.9,772.85 256.45,776.25 262.8,780.45 267.9,785.5 L338.25,754.5 C338.8,754.3 339.4,754 339.9,753.75 341.1,753.1 342.2,752.1 343.3,750.85 343,748.9 342.45,746.75 341.65,744.5 339,737.55 334.35,732.55 327.55,729.45 320.7,726.35 313.75,726.1 306.85,728.6 303.45,729.9 300.55,731.7 298.05,733.9 297.4,734.55 296.7,735.25 296.05,736 L295.95,736.2 295.85,736.2 C295.95,736.1 295.95,736.1 296,736.05 296,735.75 296,735.4 296.05,735.1 296.35,731.2 295.8,727.3 294.3,723.45 291.7,716.45 287,711.45 280.2,708.35 273.4,705.2 266.5,704.95 259.45,707.6 256.15,708.8 253.25,710.55 250.7,712.75 249.7,713.65 248.8,714.65 247.8,715.9 247.75,716.05 247.75,716.15 247.7,716.35 L247.55,716.3 247.45,716.2 248,715.1 C248.15,714.35 248.2,713.55 248.25,712.9 248.65,708.95 248.05,705.05 246.55,701.15 243.85,694.25 239.2,689.2 232.4,686.1 225.6,682.95 218.65,682.7 211.75,685.25 208.5,686.5 205.8,688.15 203.4,690.15z M582.6,197 L527.675,171.925 464.6,143.15 C456.95,139.7 451.2,142.3 447.25,150.8 L426.25,197.1 474.15,218.95 521.85,240.65 567.2,261.4 588.2,215.1 C592.1,206.6 590.25,200.5 582.6,197z"/>
      <path id="path15" fill="#919D9F" fill-opacity="1" d="M267.9,785.5 C262.8,780.45 256.45,776.25 248.9,772.85 241.6,769.45 234.45,767.4 227.6,766.9 L237.55,798.85 267.9,785.5z"/>
      <path id="path26" fill="#EAEAEA" fill-opacity="1" d="M463.6,242.05 L415.65,220.2 306.65,459.3 301.4,470.8 294,487.05 241.175,602.9 205.35,681.5 C204.15,684.2 203.5,686.7 203.4,688.9 203.5,689.25 203.4,689.75 203.4,690.15 205.8,688.15 208.5,686.5 211.75,685.25 218.65,682.7 225.6,682.95 232.4,686.1 239.2,689.2 243.85,694.25 246.55,701.15 248.05,705.05 248.65,708.95 248.25,712.9 248.2,713.55 248.15,714.35 248,715.1 L463.6,242.05z"/>
      <path id="path27" fill="#717171" fill-opacity="1" d="M463.6,242.05 L474.15,218.95 426.25,197.1 415.65,220.2 463.6,242.05z"/>
      <path id="path32" fill="#666666" fill-opacity="1" d="M474.15,218.95 L463.6,242.05 511.25,263.75 521.85,240.65 474.15,218.95z"/>
      <path id="path33" fill="#515151" fill-opacity="1" d="M556.6,284.5 L564.325,267.65 567.2,261.4 521.85,240.65 511.25,263.75 556.6,284.5z"/>
      <path id="path37" fill="#BEBEBE" fill-opacity="1" d="M556.6,284.5 L511.25,263.75 296.05,736 C296.7,735.25 297.4,734.55 298.05,733.9 300.55,731.7 303.45,729.9 306.85,728.6 313.75,726.1 320.7,726.35 327.55,729.45 334.35,732.55 339,737.55 341.65,744.5 342.45,746.75 343,748.9 343.3,750.85 344.35,749.55 345.35,747.9 346.3,745.8 L411.45,602.9 476.9,459.3 556.6,284.5z"/>
    </g>
  </g>
</svg>