<?xml version="1.0" encoding="utf-8"?>
<!-- Generator: flash2svg, http://dissentgraphics.com/tools/flash2svg -->
<svg xmlns:xlink="http://www.w3.org/1999/xlink" id="VMWare-Fusion-app" image-rendering="optimizeSpeed" baseProfile="basic" version="1.1" style="background-color:#ffffff" x="0px" y="0px" width="1024px" height="1024px" viewBox="0 0 1024 1024" enable-background="new 0 0 1024 1024" xmlns="http://www.w3.org/2000/svg">
  <defs transform="matrix(1 0 0 1 0 0) "/>
  <g id="shadow">
    <g id="shape">
      <path id="path" fill="#000000" fill-opacity="0.09803921568627451" d="M965.65,347.3 Q957.05,326.45 946.25,306.45 C942.2,298.9 937.9,291.4 933.35,284.05 913.8,252.35 889.95,222.4 861.8,194.25 769.65,102.1 658.35,56 528,56 397.65,56 286.4,102.1 194.25,194.25 102.1,286.4 56,397.65 56,528 56,658.35 102.1,769.65 194.25,861.8 286.4,953.95 397.65,1000 528,1000 658.35,1000 769.65,953.95 861.8,861.8 912.55,811 949.35,754.4 972.15,692.05 990.7,641.2 1000,586.55 1000,528 1000,483.1 994.55,440.45 983.6,400.05 982.35,395.5 981.05,390.95 979.7,386.45 975.6,373.15 970.9,360.1 965.65,347.3z"/>
    </g>
  </g>
  <g id="BackgroundInner">
    <g id="shape2">
      <path id="path1" fill="#264261" fill-opacity="1" d="M951.95,691.1 C974.3,636.15 985.45,576.55 985.45,512.3 Q985.45,316.5 847,178.05 C754.7,85.75 643.25,39.6 512.7,39.6 382.15,39.6 270.75,85.75 178.45,178.05 86.15,270.35 40,381.75 40,512.3 40,642.85 86.15,754.3 178.45,846.6 260.6,928.8 357.95,974.4 470.4,983.35 484.25,984.5 498.35,985.05 512.7,985.05 643.25,985.05 754.7,938.9 847,846.6 893.9,799.7 928.9,747.85 951.95,691.1z"/>
    </g>
  </g>
  <g id="LogoBg">
    <g id="shape4">
      <path id="path2" fill="#000000" fill-opacity="0.2" d="M951.95,691.1 Q963.481,662.72 971.05,632.7 L593.125,254.775 251.05,589.2 632.625,970.75 L632.65,970.75 C713.1,950.5 784.45,909.15 847,846.6 893.9,799.7 928.9,747.85 951.95,691.1z"/>
    </g>
  </g>
  <g id="Logo">
    <g id="shape6">
      <path id="path3" fill="#C42F41" fill-opacity="1" d="M770.9,432.55 Q760.75,422.4 746.45,422.4 L601.7,422.4 601.7,601.7 422.4,422.4 422.4,601.7 422.4,746.45 C422.4,755.95 425.8,764.15 432.55,770.9 439.3,777.65 447.45,781.05 457,781.05 L746.45,781.05 C755.95,781.05 764.15,777.65 770.9,770.9 777.65,764.15 781.05,755.95 781.05,746.45 L781.05,457 C781.05,447.45 777.65,439.3 770.9,432.55z"/>
      <path id="path4" fill="#6B9BD8" fill-opacity="1" d="M601.7,277.65 C601.7,268.15 598.3,259.95 591.55,253.2 584.8,246.45 576.65,243.05 567.1,243.05 L277.65,243.05 C268.15,243.05 259.95,246.45 253.2,253.2 246.45,259.95 243.05,268.15 243.05,277.65 L243.05,567.1 C243.05,576.65 246.45,584.8 253.2,591.55 259.95,598.3 268.15,601.7 277.65,601.7 L422.4,601.7 422.4,422.4 601.7,601.7 601.7,422.4 601.7,277.65z"/>
    </g>
  </g>
</svg>