<?xml version="1.0" encoding="utf-8"?>
<!-- Generator: flash2svg, http://dissentgraphics.com/tools/flash2svg -->
<svg id="Safari" image-rendering="optimizeSpeed" baseProfile="basic" version="1.1" style="background-color:#FFFFFF" x="0px" y="0px" width="1024px" height="1024px" viewBox="0 0 1024 1024" enable-background="new 0 0 1024 1024" xmlns="http://www.w3.org/2000/svg" xmlns:xlink="http://www.w3.org/1999/xlink">
  <defs transform="matrix(1 0 0 1 0 0) "/>
  <g id="shadow">
    <g id="shape">
      <path id="path" fill="#000000" fill-opacity="0.09803921568627451" d="M969.6,351.25 Q961,330.4 950.2,310.4 C946.15,302.85 941.85,295.35 937.3,288 917.75,256.3 893.9,226.35 865.75,198.2 773.6,106.05 662.3,59.95 531.95,59.95 401.6,59.95 290.35,106.05 198.2,198.2 106.05,290.35 59.95,401.6 59.95,531.95 59.95,662.3 106.05,773.6 198.2,865.75 290.35,957.9 401.6,1003.95 531.95,1003.95 662.3,1003.95 773.6,957.9 865.75,865.75 916.5,814.95 953.3,758.35 976.1,696 994.65,645.15 1003.95,590.5 1003.95,531.95 1003.95,487.05 998.5,444.4 987.55,404 986.3,399.45 985,394.9 983.65,390.4 979.55,377.1 974.85,364.05 969.6,351.25z"/>
    </g>
  </g>
  <g id="circle">
    <g id="shape2">
      <path id="path1" fill="#427A83" fill-opacity="1" d="M981.8,574.6 C984.7,552.75 986.15,530.15 986.15,506.95 986.15,375.95 939.8,264.15 847.2,171.4 754.6,78.8 642.65,32.45 511.65,32.45 380.65,32.45 268.7,78.8 176.1,171.4 83.5,264.05 37.1,375.95 37.1,506.95 37.1,638 83.5,749.9 176.1,842.5 268.7,935.15 380.65,981.5 511.65,981.5 534.45,981.5 556.7,980.1 578.4,977.3 Q732.6,957.1 847.2,842.5 C923.4,766.3 968.25,677 981.8,574.6z"/>
    </g>
  </g>
  <g id="ico-shadow">
    <g id="shape4">
      <path id="path2" fill="#000000" fill-opacity="0.2" d="M981.8,574.6 C984.7,552.75 986.15,530.15 986.15,506.95 986.15,499.4 986,491.9 985.7,484.2 L985.675,484.175 L762.5,261 256.5,767 469.35,979.85 C483.35,980.95 497.4,981.5 511.65,981.5 534.45,981.5 556.7,980.1 578.4,977.3 Q732.6,957.1 847.2,842.5 C923.4,766.3 968.25,677 981.8,574.6z"/>
      <path id="path3" fill="#427A83" fill-opacity="1" d="M985.7,484.2 C980.65,363.1 934.45,258.8 847.2,171.4 754.6,78.8 642.65,32.45 511.65,32.45 380.65,32.45 268.7,78.8 176.1,171.4 83.5,264.05 37.1,375.95 37.1,506.95 37.1,638 83.5,749.9 176.1,842.5 258.6,925.05 356.5,970.85 469.35,979.85 L256.5,767 762.5,261 985.675,484.175"/>
    </g>
  </g>
  <g id="ico">
    <g id="shape8">
      <path id="path4" fill="#BF3A31" fill-opacity="1" d="M534.1,457.05 L491.6,493.6 499.9,501.9 C500.4,501.2 500.85,500.65 501.45,500.05 504.55,497.05 508.2,495.6 512.45,495.6 521.1,495.6 527.95,502.45 527.95,511.05 527.95,515.3 526.5,518.85 523.5,521.85 522.95,522.5 522.35,523 521.7,523.45 L529.9,531.65 565.25,490.5 762.5,261 534.1,457.05z"/>
      <path id="path5" fill="#244547" fill-opacity="1" d="M491.6,493.6 L534.1,457.05 514.65,280.05 487.1,485.95 280.3,508.7 457.85,532.9 491.6,493.6z M529.9,531.65 L489.7,566.35 509.05,743.15 536.65,537.45 743.4,514.7 565.25,490.5 529.9,531.65z"/>
      <path id="path6" fill="#FFFFFF" fill-opacity="1" d="M521.7,523.45 C519,525.5 515.9,526.55 512.45,526.55 503.85,526.55 497,519.4 497,511.05 497,507.55 497.95,504.5 499.9,501.9 L491.6,493.6 457.85,532.9 256.5,767 489.7,566.35 529.9,531.65 521.7,523.45z"/>
      <path id="path7" fill="#396568" fill-opacity="1" d="M512.45,526.55 C515.9,526.55 519,525.5 521.7,523.45 522.35,523 522.95,522.5 523.5,521.85 526.5,518.85 527.95,515.3 527.95,511.05 527.95,502.45 521.1,495.6 512.45,495.6 508.2,495.6 504.55,497.05 501.45,500.05 500.85,500.65 500.4,501.2 499.9,501.9 497.95,504.5 497,507.55 497,511.05 497,519.4 503.85,526.55 512.45,526.55z"/>
    </g>
  </g>
</svg>