
<svg xmlns="http://www.w3.org/2000/svg" version="1.1" xmlns:xlink="http://www.w3.org/1999/xlink" preserveAspectRatio="none" x="0px" y="0px" width="1024px" height="1024px" viewBox="0 0 1024 1024">
<defs>
<g id="Layer5_0_FILL">
<path fill="#000000" fill-opacity="0.09803921568627451" stroke="none" d="
M 969.6 351.25
Q 961 330.4 950.2 310.4 944.1 299.05 937.3 288 907.95 240.45 865.75 198.2 727.5 59.95 531.95 59.95 336.45 59.95 198.2 198.2 59.95 336.45 59.95 531.95 59.95 727.5 198.2 865.75 336.45 1003.95 531.95 1003.95 727.5 1003.95 865.75 865.75 941.9 789.55 976.1 696 1003.95 619.75 1003.95 531.95 1003.95 464.6 987.55 404 985.7 397.15 983.65 390.4 977.5 370.45 969.6 351.25 Z"/>
</g>

<g id="Layer4_0_FILL">
<path fill="#333333" stroke="none" d="
M 969.7 392
Q 967.95 385.15 966.05 378.4 964.52578125 373.114453125 962.85 367.85 960.3787109375 359.903125 957.6 352.05 947.85 324.5 934.45 298.4 928.65 287.05 922.15 276 891.5 224 845.8 178.25 736.8 69.25 592.15 46.2 567.65 42.3 542.1 40.85 527.2 40 512 40 497.9 40 484.1 40.75 306.55 49.95 178.25 178.25 40 316.5 40 512 40 707.55 178.25 845.8 263.0400390625 930.55703125 369.35 963.35 423.8880859375 980.1630859375 484.1 983.3 484.3 983.3 484.5 983.3 496.65 983.9 509 984 510.5 984 512 984 527.25 984 542.1 983.2 545.6 983 549.05 982.75 579.1 980.6 607.75 975.05 619.55 972.75 631.15 969.9 751.75 939.85 845.8 845.8 918.7 772.85 953.15 684 980.9 612.4 983.7 530.5 984 521.3 984 512 984 511 984 510 984 509.5 984 509 983.65 447.7 969.7 392 Z"/>
</g>

<g id="Layer3_0_FILL">
<path fill="#000000" fill-opacity="0.2" stroke="none" d="
M 716.7 453.4
L 695 424.95 536.05 266 390 292.95 243 423 527 707 513.35 721.35 356.15 564.15 268.6 532.6 175 595 561.7 981.7
Q 585.155078125 979.426953125 607.75 975.05 619.55 972.75 631.15 969.9 751.75 939.85 845.8 845.8 918.7 772.85 953.15 684 973.5021484375 631.4875 980.4 573.4
L 744 337 612 305 711 404 757.15 445 716.7 453.4 Z"/>
</g>

<path id="Layer1_0_1_STROKES" stroke="#66FF00" stroke-width="63" stroke-linejoin="round" stroke-linecap="round" fill="none" d="
M 389.65 751.2
Q 361.4 734.8 336.65 710.1 263.35 636.8 263.35 533.15 263.35 529.35 263.5 525.5
M 325.95 576.05
L 264.05 514.1 202.05 576.05"/>

<path id="Layer1_0_2_STROKES" stroke="#29B6F6" stroke-width="63" stroke-linejoin="round" stroke-linecap="round" fill="none" d="
M 757.15 627.85
Q 740.75 656.1 716 680.85 642.75 754.15 539.05 754.15 535.3 754.15 531.45 754
M 581.95 691.55
L 520.05 753.45 581.95 815.45"/>

<path id="Layer1_0_3_STROKES" stroke="#EF5350" stroke-width="63" stroke-linejoin="round" stroke-linecap="round" fill="none" d="
M 267.6 401.05
Q 284 372.85 308.75 348.05 382 274.8 485.65 274.8 489.45 274.8 493.3 274.9"/>

<path id="Layer1_0_4_STROKES" stroke="#FFEE58" stroke-width="63" stroke-linejoin="round" stroke-linecap="round" fill="none" d="
M 636.45 281.65
Q 664.65 298.05 689.45 322.8 762.7 396.05 762.7 499.75 762.7 503.5 762.6 507.35
M 700.15 456.85
L 762.05 518.75 824 456.85"/>

<path id="Layer0_0_1_STROKES" stroke="#EF5350" stroke-width="63" stroke-linejoin="round" stroke-linecap="round" fill="none" d="
M 442.75 337.35
L 504.7 275.45 442.75 213.5"/>
</defs>

<g transform="matrix( 1, 0, 0, 1, 0,0) ">
<use xlink:href="#Layer5_0_FILL"/>
</g>

<g transform="matrix( 1, 0, 0, 1, 0,0) ">
<use xlink:href="#Layer4_0_FILL"/>
</g>

<g transform="matrix( 1, 0, 0, 1, 0,0) ">
<use xlink:href="#Layer3_0_FILL"/>
</g>

<g transform="matrix( 1, 0, 0, 1, 0,0) ">
<use xlink:href="#Layer1_0_1_STROKES"/>

<use xlink:href="#Layer1_0_2_STROKES"/>

<use xlink:href="#Layer1_0_3_STROKES"/>

<use xlink:href="#Layer1_0_4_STROKES"/>
</g>

<g transform="matrix( 1, 0, 0, 1, 0,0) ">
<use xlink:href="#Layer0_0_1_STROKES"/>
</g>
</svg>
