<?xml version="1.0" encoding="utf-8"?>
<!-- Generator: flash2svg, http://dissentgraphics.com/tools/flash2svg -->
<svg xmlns:xlink="http://www.w3.org/1999/xlink" id="Plex-Home-Theater" image-rendering="optimizeSpeed" baseProfile="basic" version="1.1" style="background-color:#ffffff" x="0px" y="0px" width="1024px" height="1024px" viewBox="0 0 1024 1024" enable-background="new 0 0 1024 1024" xmlns="http://www.w3.org/2000/svg">
  <defs transform="matrix(1 0 0 1 0 0) "/>
  <g id="shadow">
    <g id="shape">
      <path id="path" fill="#000000" fill-opacity="0.09803921568627451" d="M957.65,339.3 Q949.037,318.427 938.25,298.45 C934.2,290.9 929.9,283.4 925.35,276.05 905.8,244.35 881.95,214.4 853.8,186.25 761.65,94.1 650.35,48 520,48 389.65,48 278.4,94.1 186.25,186.25 94.1,278.4 48,389.65 48,520 48,650.35 94.1,761.65 186.25,853.8 278.4,945.95 389.65,992 520,992 650.35,992 761.65,945.95 853.8,853.8 904.55,803 941.35,746.4 964.15,684.05 982.7,633.2 992,578.55 992,520 992,475.1 986.55,432.45 975.6,392.05 974.35,387.5 973.05,382.95 971.7,378.45 967.6,365.15 962.9,352.1 957.65,339.3z"/>
    </g>
  </g>
  <g id="circle">
    <g id="shape2">
      <path id="path1" fill="#363F6A" fill-opacity="1" d="M969.75,392.05 C968.65,387.7 967.4,383.05 966.1,378.45 963.6,369.7 960.75,360.85 957.65,352.1 951.2,333.85 943.5,316.05 934.5,298.45 930.7,291.05 926.55,283.5 922.2,276.05 L922.175,276.05 Q891.574,224.04 845.85,178.3 C753.7,86.15 642.4,40.05 512.05,40.05 381.7,40.05 270.45,86.15 178.3,178.3 86.15,270.45 40.05,381.7 40.05,512.05 40.05,642.4 86.15,753.7 178.3,845.85 270.45,938 381.7,984.05 512.05,984.05 524.75,984.05 537.25,983.6 549.1,982.8 569.3,981.35 589,978.75 607.8,975.1 615.75,973.55 623.6,971.8 631.2,969.95 712,949.65 783.35,908.35 845.85,845.85 894.45,797.25 930.25,743.35 953.2,684.05 971.65,636.4 981.85,585.25 983.75,530.55 983.95,524.5 984.05,518.3 984.05,512.05 984.05,470.3 979.35,430.45 969.75,392.05z"/>
    </g>
  </g>
  <g id="Calque.__204">
    <g id="shape4">
      <path id="path3" fill="none" stroke="#73B4D1" stroke-opacity="1" stroke-width="35.5" stroke-linecap="round" stroke-linejoin="miter" stroke-miterlimit="3" d="M939.95,529.8 Q939.95,359.9 819.8,239.75 C739.75,159.7 643.05,119.65 529.8,119.65 416.55,119.65 319.85,159.7 239.75,239.75 159.7,319.85 119.65,416.55 119.65,529.8 119.65,643.05 159.7,739.75 239.75,819.8 319.85,899.9 416.55,939.95 529.8,939.95 643.05,939.95 739.75,899.9 819.8,819.8 899.9,739.75 939.95,643.05 939.95,529.8z"/>
    </g>
  </g>
  <g id="circle1">
    <g id="shape6">
      <path id="path4" fill="#000000" fill-opacity="0.2" d="M983.75,530.55 C983.95,524.5 984.05,518.3 984.05,512.05 Q984.05,501.437 983.65,491 L740.55,247.9 283.45,772.85 494.375,983.775 L494.4,983.8 C500.4,983.95 506.2,984.05 512.05,984.05 524.75,984.05 537.25,983.6 549.1,982.8 569.3,981.35 589,978.75 607.8,975.1 615.75,973.55 623.6,971.8 631.2,969.95 712,949.65 783.35,908.35 845.85,845.85 894.45,797.25 930.25,743.35 953.2,684.05 971.65,636.4 981.85,585.25 983.75,530.55z"/>
    </g>
  </g>
  <g id="Calque.__205">
    <g id="shape8">
      <path id="path5" fill="#BEBEBE" fill-opacity="1" d="M511.075,632.5 L582.4,772.85 737.05,772.85 580.45,512.5 511.075,632.5z"/>
      <path id="path6" fill="#CCCCCC" fill-opacity="1" d="M586.25,247.9 L511.05,393.3 580.45,512.5 740.55,247.9 586.25,247.9z"/>
      <path id="path7" fill="#F9B232" fill-opacity="1" d="M435.8,247.9 L356.05,247.9 511.65,512.5 359.05,772.85 437.75,772.85 511.05,632.45 511.075,632.5 580.45,512.5 511.05,393.3 435.8,247.9z"/>
      <path id="path8" fill="#FFCC00" fill-opacity="1" d="M359.05,772.85 L511.65,512.5 356.05,247.9 281.15,247.9 440.85,512.5 283.45,772.85 359.05,772.85z"/>
    </g>
  </g>
</svg>