<?xml version="1.0" encoding="utf-8"?>
<!-- Generator: flash2svg, http://dissentgraphics.com/tools/flash2svg -->
<svg id="apps-Traktor" image-rendering="optimizeSpeed" baseProfile="basic" version="1.1" style="background-color:#FFFFFF" x="0px" y="0px" width="1024px" height="1024px" viewBox="0 0 1024 1024" enable-background="new 0 0 1024 1024" xmlns="http://www.w3.org/2000/svg" xmlns:xlink="http://www.w3.org/1999/xlink">
  <defs transform="matrix(1 0 0 1 0 0) "/>
  <g id="background-circle-shadow">
    <g id="shape">
      <path id="path" fill="#000000" fill-opacity="0.09803921568627451" d="M969.6,351.25 Q961,330.4 950.2,310.4 C946.15,302.85 941.85,295.35 937.3,288 917.75,256.3 893.9,226.35 865.75,198.2 773.6,106.05 662.3,59.95 531.95,59.95 401.6,59.95 290.35,106.05 198.2,198.2 106.05,290.35 59.95,401.6 59.95,531.95 59.95,662.3 106.05,773.6 198.2,865.75 290.35,957.9 401.6,1003.95 531.95,1003.95 662.3,1003.95 773.6,957.9 865.75,865.75 916.5,814.95 953.3,758.35 976.1,696 994.65,645.15 1003.95,590.5 1003.95,531.95 1003.95,487.05 998.5,444.4 987.55,404 986.3,399.45 985,394.9 983.65,390.4 979.55,377.1 974.85,364.05 969.6,351.25z"/>
    </g>
  </g>
  <g id="background-circle">
    <g id="shape2">
      <path id="path1" fill="#2F2F2E" fill-opacity="1" d="M966.05,378.4 C965.05,375 964.05,371.55 962.9,367.9 961.3,362.75 959.5,357.4 957.6,352.05 951.15,333.8 943.45,316 934.45,298.4 930.65,291 926.5,283.45 922.15,276 901.85,241.5 876.35,208.8 845.8,178.25 773.2,105.65 688.65,61.6 592.15,46.2 575.9,43.6 559.35,41.8 542.1,40.85 532.4,40.3 522.25,40 512,40 502.65,40 493.4,40.25 484.1,40.75 365.75,46.85 263.8,92.7 178.25,178.25 Q40,316.5 40,512 C40,642.35 86.1,753.65 178.25,845.8 234.95,902.45 298.8,941.7 369.35,963.35 406.1,974.6 444.15,981.2 484.1,983.3 484.25,983.3 484.35,983.3 484.5,983.3 493,983.75 501.1,984 509,984 510.2,984 511.1,984 512,984 522.3,984 532.5,983.7 542.1,983.2 544.6,983.05 546.85,982.9 549.05,982.75 569.25,981.3 588.95,978.7 607.75,975.05 615.7,973.5 623.55,971.75 631.15,969.9 711.95,949.6 783.3,908.3 845.8,845.8 894.4,797.2 930.2,743.3 953.15,684 971.6,636.35 981.8,585.2 983.7,530.5 983.9,524.45 984,518.25 984,512 984,511.35 984,510.65 984,510 984,509.65 984,509.35 984,509 983.8,468.35 979.05,429.5 969.7,392 968.6,387.65 967.35,383 966.05,378.4z"/>
    </g>
  </g>
  <g id="Calque.__201">
    <g id="shape4">
      <path id="path3" fill="none" stroke="#3A3B3A" stroke-opacity="1" stroke-width="13.25" stroke-linecap="round" stroke-linejoin="round" d="M951.6,518.6 C951.6,399.05 909.3,296.95 824.75,212.4 740.2,127.85 638.15,85.6 518.6,85.6 399.05,85.6 296.95,127.85 212.4,212.4 127.85,296.95 85.6,399.05 85.6,518.6 85.6,638.15 127.85,740.2 212.4,824.75 296.95,909.3 399.05,951.6 518.6,951.6 638.15,951.6 740.2,909.3 824.75,824.75 909.3,740.2 951.6,638.15 951.6,518.6z"/>
      <path id="path5" fill="none" stroke="#3A3B3A" stroke-opacity="1" stroke-width="13.25" stroke-linecap="round" stroke-linejoin="round" d="M922.25,518.6 Q922.25,351.4 804,233.15 C725.25,154.4 630.1,115 518.65,115 407.15,115 312,154.4 233.2,233.15 154.35,312 114.95,407.15 114.95,518.6 114.95,630.1 154.35,725.25 233.2,804 312,882.85 407.15,922.25 518.65,922.25 630.1,922.25 725.25,882.85 804,804 882.85,725.25 922.25,630.1 922.25,518.6z"/>
    </g>
  </g>
  <g id="Calque.__202">
    <g id="shape7">
      <path id="path7" fill="none" stroke="#3A3B3A" stroke-opacity="1" stroke-width="13.25" stroke-linecap="round" stroke-linejoin="round" d="M783.75,783.6 C856.95,710.4 893.55,622.05 893.55,518.6 893.55,415.1 856.95,326.75 783.75,253.5 710.55,180.35 622.2,143.8 518.75,143.8 415.25,143.8 326.9,180.35 253.65,253.5 180.5,326.75 143.9,415.1 143.9,518.6 143.9,622.05 180.5,710.4 253.65,783.6 326.9,856.8 415.25,893.4 518.75,893.4 622.2,893.4 710.55,856.8 783.75,783.6z"/>
      <path id="path9" fill="none" stroke="#3A3B3A" stroke-opacity="1" stroke-width="13.25" stroke-linecap="round" stroke-linejoin="round" d="M762.95,762.8 Q864.15,661.7 864.15,518.6 C864.15,423.15 830.4,341.75 762.95,274.3 695.55,206.85 614.15,173.15 518.75,173.15 423.3,173.15 341.9,206.85 274.45,274.3 207,341.75 173.25,423.15 173.25,518.6 173.25,614 207,695.4 274.45,762.8 341.9,830.25 423.3,864 518.75,864 614.15,864 695.55,830.25 762.95,762.8z"/>
    </g>
  </g>
  <g id="Calque.__203">
    <g id="element4" transform="matrix(1 0 0 1 0 0) "/>
  </g>
  <g id="Symbole.__203">
    <g id="shape14">
      <path id="path16" fill="#FFFFFF" fill-opacity="1" d="M746.4,463.35 Q745.5,458.6 744.4,453.95 L700.6,453.95 C700.65,454.2 688.35,454.4 663.7,454.65 658.35,440.4 650.85,427 641.2,414.5 L543.05,512.65 640.65,610.15 C649.8,598.5 657.05,586 662.4,572.7 L743.75,572.7 C744.4,570.05 745.05,567.35 745.6,564.65 749.2,547.85 751,530.3 751,512 751,495.1 749.45,478.9 746.4,463.35z M611.5,384.4 C583.05,361.65 549.9,350.3 512,350.3 474.7,350.3 441.95,361.35 413.8,383.4 L474.3,443.9 C485.55,437.55 498.15,434.35 512,434.35 526.5,434.35 539.6,437.85 551.25,444.8 L611.5,384.4z M279.6,453.85 C279,456.3 278.45,458.75 277.95,461.25 274.65,477.45 273,494.35 273,512 273,530.3 274.8,547.9 278.35,564.75 278.9,567.1 279.5,569.45 280.05,571.8 L361.25,571.8 C366.8,585.95 374.55,599.15 384.4,611.5 L483.3,512.65 383.9,413.15 C373.9,425.8 366.1,439.4 360.55,453.85 L279.6,453.85z M550.4,579.7 C539,586.3 526.2,589.6 512,589.6 498.45,589.6 486.15,586.6 475.1,580.55 L414.5,641.2 C442.5,662.85 475,673.65 512,673.65 549.55,673.65 582.5,662.45 610.8,640.1 L550.4,579.7z"/>
      <path id="path17" fill="#BC4E3F" fill-opacity="1" d="M688.9,424.5 L735.2,424.5 C723.6,394.65 705.55,367.5 681,343 634.35,296.35 578,273 512,273 446,273 389.65,296.35 343,343 318.5,367.5 300.4,394.65 288.75,424.5 L335.1,424.5 C344.4,405.95 357,388.75 372.85,372.85 411.3,334.45 457.65,315.25 512,315.25 566.35,315.25 612.7,334.45 651.15,372.85 667,388.75 679.6,405.95 688.9,424.5z M733.15,604.65 C733.6,603.5 734.05,602.35 734.5,601.2 L688,601.2 C687.45,602.35 686.85,603.5 686.25,604.65 677.2,621.25 665.5,636.75 651.15,651.15 612.7,689.6 566.35,708.8 512,708.8 457.65,708.8 411.3,689.6 372.85,651.15 358.5,636.75 346.8,621.25 337.8,604.65 337.15,603.5 336.55,602.35 335.95,601.2 L289.45,601.2 C289.9,602.35 290.35,603.5 290.85,604.65 302.5,632.5 319.9,657.95 343,681 389.65,727.65 446,751 512,751 578,751 634.35,727.65 681,681 704.05,657.95 721.45,632.5 733.15,604.65z"/>
    </g>
  </g>
</svg>