<?xml version="1.0" encoding="utf-8"?>
<!-- Generator: flash2svg, http://dissentgraphics.com/tools/flash2svg -->
<svg xmlns:xlink="http://www.w3.org/1999/xlink" id="Apps-Youtube" image-rendering="optimizeSpeed" baseProfile="basic" version="1.1" style="background-color:#ffffff" x="0px" y="0px" width="1024px" height="1024px" viewBox="0 0 1024 1024" enable-background="new 0 0 1024 1024" xmlns="http://www.w3.org/2000/svg">
  <defs transform="matrix(1 0 0 1 0 0) "/>
  <g id="background-circle-shadow">
    <g id="shape">
      <path id="path" fill="#000000" fill-opacity="0.09803921568627451" d="M969.65,351.3 Q961.05,330.45 950.25,310.45 C946.2,302.9 941.9,295.4 937.35,288.05 917.8,256.35 893.95,226.4 865.8,198.25 773.65,106.1 662.35,60 532,60 401.65,60 290.4,106.1 198.25,198.25 106.1,290.4 60,401.65 60,532 60,662.35 106.1,773.65 198.25,865.8 290.4,957.95 401.65,1004 532,1004 662.35,1004 773.65,957.95 865.8,865.8 916.55,815 953.35,758.4 976.15,696.05 994.7,645.2 1004,590.55 1004,532 1004,487.1 998.55,444.45 987.6,404.05 986.35,399.5 985.05,394.95 983.7,390.45 979.6,377.15 974.9,364.1 969.65,351.3z"/>
    </g>
  </g>
  <g id="background-circle">
    <g id="shape2">
      <path id="path1" fill="#E12C26" fill-opacity="1" d="M966.1,378.45 C965.1,375.05 964.1,371.6 962.95,367.95 961.35,362.8 959.55,357.45 957.65,352.1 951.2,333.85 943.5,316.05 934.5,298.45 930.7,291.05 926.55,283.5 922.2,276.05 901.9,241.55 876.4,208.85 845.85,178.3 773.25,105.7 688.7,61.65 592.2,46.25 575.95,43.65 559.4,41.85 542.15,40.9 532.45,40.35 522.3,40.05 512.05,40.05 502.7,40.05 493.45,40.3 484.15,40.8 365.8,46.9 263.85,92.75 178.3,178.3 Q40.05,316.55 40.05,512.05 C40.05,642.4 86.15,753.7 178.3,845.85 235,902.5 298.85,941.75 369.4,963.4 406.15,974.65 444.2,981.25 484.15,983.35 484.3,983.35 484.4,983.35 484.55,983.35 493.05,983.8 501.15,984.05 509.05,984.05 510.25,984.05 511.15,984.05 512.05,984.05 522.35,984.05 532.55,983.75 542.15,983.25 544.65,983.1 546.9,982.95 549.1,982.8 569.3,981.35 589,978.75 607.8,975.1 615.75,973.55 623.6,971.8 631.2,969.95 712,949.65 783.35,908.35 845.85,845.85 894.45,797.25 930.25,743.35 953.2,684.05 971.65,636.4 981.85,585.25 983.75,530.55 983.95,524.5 984.05,518.3 984.05,512.05 984.05,511.4 984.05,510.7 984.05,510.05 984.05,509.7 984.05,509.4 984.05,509.05 983.85,468.4 979.1,429.55 969.75,392.05 968.65,387.7 967.4,383.05 966.1,378.45z"/>
    </g>
  </g>
  <g id="object-shadow">
    <g id="shape4">
      <path id="path2" fill="#000000" fill-opacity="0.2" d="M973.55,615.55 L651.05,293.05 633.05,328.05 599.05,294.05 573.05,337.05 536.05,300.05 534.95,300.95 477.05,243.05 443.05,281.05 405.05,243.05 420.9,367.975 411.05,445.05 438.05,472.05 307.05,523.05 312.05,758.05 537.475,983.475 Q539.821,983.375 542.15,983.25 C544.65,983.1 546.9,982.95 549.1,982.8 569.3,981.35 589,978.75 607.8,975.1 615.75,973.55 623.6,971.8 631.2,969.95 712,949.65 783.35,908.35 845.85,845.85 894.45,797.25 930.25,743.35 953.2,684.05 961.75,662 968.5,639.2 973.55,615.55z"/>
    </g>
  </g>
  <g id="Layer.__201">
    <g id="Symbole.__205_1" overflow="visible">
      <g id="Calque.__206">
        <g id="Symbole.__207_2" overflow="visible">
          <g id="Calque.__207">
            <g id="shape35">
              <path id="path30" fill="#FFFFFF" fill-opacity="1" d="M711.753,493.569 C694.876,476.048 675.938,475.919 667.306,474.888 641.476,473.02 607.786,471.796 566.431,471.023 L511.871,470.444 C511.871,470.444 418.79,470.444 356.694,474.888 348.062,475.919 329.124,476.048 312.247,493.569 298.913,507.032 294.661,537.436 294.661,537.436 L292.407,559.788 L294.661,537.436 C294.661,537.436 290.217,573.187 290.217,608.937 L290.217,642.434 C290.217,678.184 294.661,713.935 294.661,713.935 L295.563,718.831 L294.661,713.935 C294.661,713.935 298.913,744.339 312.247,757.738 329.124,775.323 351.283,774.808 361.138,776.612 396.631,780.026 512,781.056 512,781.056 L566.367,780.412 L512,781.056 C512,781.056 605.21,780.928 667.306,776.418 675.938,775.452 694.876,775.323 711.753,757.738 725.023,744.339 729.403,713.935 729.403,713.935 L728.501,718.831 L729.403,713.935 C729.403,713.935 733.783,678.184 733.783,642.434 L733.783,608.937 C733.783,573.187 729.403,537.436 729.403,537.436 L731.658,559.788 L729.403,537.436 C729.403,537.436 725.023,507.032 711.753,493.569z M544.208,522.427 L544.208,587.487 C552.84,576.73 562.115,571.319 572.035,571.319 582.728,571.319 589.943,577.052 593.55,588.131 595.29,594.122 596.256,603.913 596.256,617.956 L596.256,677.089 C596.256,690.81 595.29,700.73 593.55,707.043 589.943,718.058 582.728,723.662 572.035,723.662 562.438,723.662 553.162,718.38 544.208,707.3 L544.208,721.665 517.282,721.665 517.282,522.427 544.208,522.427z M557.606,595.603 Q550.778,595.603 544.208,602.109 L544.208,692.614 C548.717,697.058 553.162,699.184 557.606,699.184 565.401,699.184 569.33,692.614 569.33,679.215 L569.33,615.83 C569.33,602.432 565.401,595.603 557.606,595.603z M656.227,571.319 C669.69,571.319 680.383,576.472 687.919,586.585 693.588,594.122 696.293,605.717 696.293,621.563 L696.293,652.289 642.442,652.289 642.442,678.635 C642.442,692.356 646.951,699.184 656.227,699.184 662.862,699.184 666.662,695.641 668.208,688.427 668.466,687.009 668.788,681.019 668.788,670.261 L696.293,670.261 696.293,674.191 C696.293,682.822 695.907,688.813 695.714,691.454 694.812,697.445 692.686,702.791 689.401,707.622 681.929,718.38 670.914,723.662 656.871,723.662 642.764,723.662 632.135,718.637 624.341,708.524 618.608,701.052 615.645,689.328 615.645,673.546 L615.645,621.563 C615.645,605.717 618.286,594.122 624.019,586.585 631.749,576.472 642.442,571.319 656.227,571.319z M655.969,595.603 C646.951,595.603 642.442,602.432 642.442,616.216 L642.442,629.937 669.368,629.937 669.368,616.216 C669.368,602.432 664.859,595.603 655.969,595.603z M326.354,522.427 L420.143,522.427 420.143,550.448 387.935,550.448 387.935,721.665 358.046,721.665 358.046,550.448 326.354,550.448 326.354,522.427z M443.59,573.187 L443.59,682.5 C443.59,688.813 443.59,692.034 443.784,692.936 444.492,697.058 446.489,699.184 450.096,699.184 455.507,699.184 461.176,695.061 467.102,686.623 L467.102,573.187 494.028,573.187 494.028,721.665 467.102,721.665 467.102,705.432 C456.409,717.736 446.232,723.662 436.376,723.662 427.68,723.662 421.689,720.183 419.048,712.647 417.567,708.138 416.665,701.052 416.665,690.552 L416.665,573.187 443.59,573.187z"/>
            </g>
          </g>
        </g>
        <g id="Symbole.__209_2" overflow="visible">
          <g id="Calque.__208">
            <g id="shape36">
              <path id="path31" fill="#FFFFFF" fill-opacity="1" d="M551.873,343.368 C551.873,327.329 549.168,315.605 543.435,308.004 535.963,297.762 525.334,292.609 511.742,292.609 498.215,292.609 487.586,297.762 480.114,308.004 474.317,315.605 471.611,327.329 471.611,343.368 L471.611,395.932 C471.611,411.842 474.317,423.695 480.114,431.167 487.586,441.409 498.215,446.562 511.742,446.562 525.334,446.562 535.963,441.409 543.435,431.167 549.168,423.695 551.873,411.842 551.873,395.932 L551.873,343.368z M524.69,401.021 C524.69,414.934 520.503,421.827 511.742,421.827 502.982,421.827 498.73,414.934 498.73,401.021 L498.73,337.893 C498.73,324.044 502.982,317.087 511.742,317.087 520.503,317.087 524.69,324.044 524.69,337.893 L524.69,401.021z M599.863,294.412 L572.808,294.412 572.808,413.131 C572.808,423.695 573.71,430.845 575.192,435.419 577.897,443.02 583.952,446.562 592.713,446.562 602.633,446.562 612.939,440.507 623.761,428.14 L623.761,444.501 650.945,444.501 650.945,294.412 623.761,294.412 623.761,409.137 C617.771,417.64 612.038,421.827 606.627,421.827 602.955,421.827 600.829,419.701 600.25,415.514 599.863,414.612 599.863,411.263 599.863,404.885 L599.863,294.412z M404.877,243.138 L373.12,243.138 C379.497,261.818 386.067,280.563 392.444,299.244 402.107,327.329 408.162,348.522 410.867,362.951 L410.867,444.501 441.014,444.501 441.014,362.951 477.28,243.138 446.811,243.138 426.263,322.176 404.877,243.138z"/>
            </g>
          </g>
        </g>
      </g>
    </g>
  </g>
</svg>