<?xml version="1.0" encoding="utf-8"?>
<!-- Generator: flash2svg, http://dissentgraphics.com/tools/flash2svg -->
<svg id="Apps-Docker" image-rendering="optimizeSpeed" baseProfile="basic" version="1.1" style="background-color:#FFFFFF" x="0px" y="0px" width="1024px" height="1024px" viewBox="0 0 1024 1024" enable-background="new 0 0 1024 1024" xmlns="http://www.w3.org/2000/svg" xmlns:xlink="http://www.w3.org/1999/xlink">
  <defs transform="matrix(1 0 0 1 0 0) "/>
  <g id="background-circle-shadow">
    <g id="shape">
      <path id="path" fill="#000000" fill-opacity="0.09803921568627451" d="M969.6,351.25 Q961,330.4 950.2,310.4 C946.15,302.85 941.85,295.35 937.3,288 917.75,256.3 893.9,226.35 865.75,198.2 773.6,106.05 662.3,59.95 531.95,59.95 401.6,59.95 290.35,106.05 198.2,198.2 106.05,290.35 59.95,401.6 59.95,531.95 59.95,662.3 106.05,773.6 198.2,865.75 290.35,957.9 401.6,1003.95 531.95,1003.95 662.3,1003.95 773.6,957.9 865.75,865.75 916.5,814.95 953.3,758.35 976.1,696 994.65,645.15 1003.95,590.5 1003.95,531.95 1003.95,487.05 998.5,444.4 987.55,404 986.3,399.45 985,394.9 983.65,390.4 979.55,377.1 974.85,364.05 969.6,351.25z"/>
    </g>
  </g>
  <g id="background-circle">
    <g id="shape2">
      <path id="path1" fill="#254667" fill-opacity="1" d="M962.9,367.9 C961.3,362.75 959.5,357.4 957.6,352.05 951.15,333.8 943.45,316 934.45,298.4 930.65,291 926.5,283.45 922.15,276 901.85,241.5 876.35,208.8 845.8,178.25 773.2,105.65 688.65,61.6 592.15,46.2 575.9,43.6 559.35,41.8 542.1,40.85 532.4,40.3 522.25,40 512,40 502.65,40 493.4,40.25 484.1,40.75 365.75,46.85 263.8,92.7 178.25,178.25 Q40,316.5 40,512 C40,512.35 40,512.65 40,513 L984,513 C984,512.65 984,512.35 984,512 984,511.35 984,510.65 984,510 984,509.65 984,509.35 984,509 983.8,468.35 979.05,429.5 969.7,392 968.6,387.65 967.35,383 966.05,378.4 965.05,375 964.05,371.55 962.9,367.9z"/>
      <path id="path2" fill="#2E577F" fill-opacity="1" d="M983.7,530.5 C983.9,524.7 984,518.85 984,513 L40,513 C40.25,642.95 86.3,753.85 178.25,845.8 234.95,902.45 298.8,941.7 369.35,963.35 406.1,974.6 444.15,981.2 484.1,983.3 484.25,983.3 484.35,983.3 484.5,983.3 493,983.75 501.1,984 509,984 510.2,984 511.1,984 512,984 522.3,984 532.5,983.7 542.1,983.2 544.6,983.05 546.85,982.9 549.05,982.75 569.25,981.3 588.95,978.7 607.75,975.05 615.7,973.5 623.55,971.75 631.15,969.9 711.95,949.6 783.3,908.3 845.8,845.8 894.4,797.2 930.2,743.3 953.15,684 971.6,636.35 981.8,585.2 983.7,530.5z"/>
    </g>
  </g>
  <g id="background-circle1">
    <g id="shape6">
      <path id="path3" fill="#000000" fill-opacity="0.2" d="M962.9,367.9 C961.3,362.75 959.5,357.4 957.6,352.05 954.65,343.7 951.45,335.45 947.85,327 L903.4,282.55 757,303.4 621.875,293.825 702.875,374.825 234.45,723 495.175,983.725 L495.2,983.75 C500.05,983.9 504.55,984 509,984 Q510.5,984 512,984 C522.3,984 532.5,983.7 542.1,983.2 544.6,983.05 546.85,982.9 549.05,982.75 569.25,981.3 588.95,978.7 607.75,975.05 615.7,973.5 623.55,971.75 631.15,969.9 711.95,949.6 783.3,908.3 845.8,845.8 894.4,797.2 930.2,743.3 953.15,684 971.6,636.35 981.8,585.2 983.7,530.5 983.9,524.7 984,518.85 984,513 984,512.65 984,512.35 984,512 984,511.35 984,510.65 984,510 984,509.65 984,509.35 984,509 983.8,468.35 979.05,429.5 969.7,392 968.6,387.65 967.35,383 966.05,378.4 965.05,375 964.05,371.55 962.9,367.9z"/>
    </g>
  </g>
  <g id="Layer.__201">
    <g id="shape8">
      <path id="path4" fill="#5492CF" fill-opacity="1" d="M726.4,339.15 C726.35,337.95 726.3,337.6 726.25,338.1 726,342.15 725.2,346.05 723.85,349.75 721.15,357.25 716.25,364.05 709.2,370.1 698.15,379.5 684.85,384.35 669.35,384.65 L360.5,384.7 C325.1,385.5 294.75,398.5 269.5,423.75 244.25,449 231.25,479.45 230.5,514.7 L230.45,518.15 C230.45,519.4 230.45,520.7 230.5,521.6 230.45,521.6 230.45,606.8 230.5,662 L230.475,688 696.85,688 C705.85,681.65 714.3,674.7 722.25,667.1 757.55,633.3 778.65,593.95 785.7,548.9 L786.55,353.25 C786.55,348 786.55,344.05 786.55,341.45 786.55,333.1 783.65,326.05 777.75,320.15 771.85,314.25 764.8,311.3 756.45,311.3 748.1,311.3 741.1,313.95 735.3,319.2 733.3,321 731.65,323 730.4,325.05 727.8,329.2 726.5,333.85 726.4,339.15z"/>
      <path id="path5" fill="#FFFFFF" fill-opacity="1" d="M230.45,710.3 Q230.45,727.75 247.9,727.75 L589.25,728.65 C630.65,722.9 666.6,709.35 696.85,688 L230.475,688 230.45,710.3z"/>
    </g>
  </g>
  <g id="Calque.__202">
    <g id="shape12">
      <path id="path6" fill="#5492CF" fill-opacity="1" d="M750.7,287 C746.9,280.95 741.55,275.4 734.6,270.3 719.3,259.1 700.75,253.45 679.05,253.45 657.35,253.45 638.85,259.1 623.5,270.3 618.3,274.1 614,278.15 610.6,282.55 614.55,288.75 619.85,294.2 626.65,299.2 641.4,310 659.1,315.6 679.75,316 L834.25,316 C854.9,315.6 872.6,310 887.35,299.2 894.15,294.2 899.45,288.75 903.4,282.55 900,278.15 895.7,274.1 890.5,270.3 875.15,259.1 856.65,253.45 834.95,253.45 813.25,253.45 794.7,259.1 779.4,270.3 772.45,275.4 767.1,280.95 763.3,287 760.05,292.2 757.95,297.7 757,303.4 756.05,297.7 753.95,292.2 750.7,287z M416.85,681.45 L410.1,688.2 C410.1,688.25 410,688.3 410,688.3 L464.9,743.2 C479.8,757.55 496.3,766.1 514.35,768.85 Q527.1,770.8 537.45,768.45 C538.15,762.95 538,757.05 537,750.7 534.1,731.9 525,714.8 509.65,699.45 494.3,684.15 477.2,675 458.45,672.15 449.9,670.85 442.25,670.95 435.25,672.55 428.35,674.15 422.25,677.05 416.85,681.45z"/>
      <path id="path9" fill="#FFFFFF" fill-opacity="1" d="M370,672.15 C381.1,672.15 390.6,668.25 398.45,660.4 405.35,653.5 409.15,645.4 410,636.1 L330,636.1 C331.05,645.85 334.9,653.7 341.6,660.4 349.45,668.25 358.9,672.15 370,672.15z"/>
    </g>
  </g>
  <g id="object">
    <g id="shape17" transform="matrix(1 0 0 1 249 702.5)"/>
  </g>
  <g id="object-shadow">
    <g id="shape18">
      <path id="path10" fill="#000000" fill-opacity="1" d="M400.85,636.1 L370.4,636.1 C370.1,637.35 370,638.6 370,639.85 370,644.15 371.55,647.85 374.5,650.85 Q379.1,655.4 385.6,655.4 C389.9,655.4 393.65,653.9 396.6,650.85 398.25,649.3 399.4,647.6 400.25,645.4 L387.25,645.4 401.2,639.65 C401.2,638.4 401.1,637.25 400.85,636.1z"/>
    </g>
  </g>
  <g id="Calque.__203">
    <g id="shape20">
      <path id="path11" fill="#FFFFFF" fill-opacity="1" d="M882.45,445 Q881.1,467.45 855.4,483.55 C837.25,494.9 815.4,500.55 789.8,500.55 764.15,500.55 742.25,494.9 724.2,483.55 706.95,472.8 697.95,459.95 697.1,445 696.25,459.95 687.2,472.8 669.95,483.55 651.9,494.9 630,500.55 604.35,500.55 578.75,500.55 556.9,494.9 538.8,483.55 523.95,474.3 515.2,463.45 512.5,451.05 L512.5,446.7 C512.45,446.15 512.4,445.55 512.35,445 512.3,446.1 512.2,447.2 512.05,448.35 511.9,447.25 511.75,446.15 511.7,445 511.65,445.55 511.6,446.15 511.55,446.7 L511.55,451.05 C508.85,463.45 500.1,474.3 485.25,483.55 467.15,494.9 445.3,500.55 419.7,500.55 394.05,500.55 372.15,494.9 354.1,483.55 336.9,472.8 327.85,459.95 327,445 326.15,459.95 317.1,472.8 299.9,483.55 281.8,494.9 259.9,500.55 234.25,500.55 208.65,500.55 186.8,494.9 168.65,483.55 151.5,472.8 142.5,459.95 141.6,445 140.7,459.95 127.6,474.85 102.25,489.7 82.55,501.2 62.15,509.15 41.05,513.6 L983,513.6 C961.9,509.15 941.5,501.2 921.8,489.7 896.45,474.85 883.35,459.95 882.45,445z"/>
    </g>
  </g>
</svg>