
<svg xmlns="http://www.w3.org/2000/svg" version="1.1" xmlns:xlink="http://www.w3.org/1999/xlink" preserveAspectRatio="none" x="0px" y="0px" width="1024px" height="1024px" viewBox="0 0 1024 1024">
<defs>
<g id="Layer9_0_FILL">
<path fill="#000000" fill-opacity="0.09803921568627451" stroke="none" d="
M 969.6 351.25
Q 961 330.4 950.2 310.4 944.1 299.05 937.3 288 907.95 240.45 865.75 198.2 727.5 59.95 531.95 59.95 336.45 59.95 198.2 198.2 59.95 336.45 59.95 531.95 59.95 727.5 198.2 865.75 336.45 1003.95 531.95 1003.95 727.5 1003.95 865.75 865.75 941.9 789.55 976.1 696 1003.95 619.75 1003.95 531.95 1003.95 464.6 987.55 404 985.7 397.15 983.65 390.4 977.5 370.45 969.6 351.25 Z"/>
</g>

<g id="Layer8_0_FILL">
<path fill="#374268" stroke="none" d="
M 969.7 392
Q 967.95 385.15 966.05 378.4 964.52578125 373.114453125 962.85 367.85 960.3787109375 359.903125 957.6 352.05 947.85 324.5 934.45 298.4 928.65 287.05 922.15 276 891.5 224 845.8 178.25 736.8 69.25 592.15 46.2 567.65 42.3 542.1 40.85 527.2 40 512 40 497.9 40 484.1 40.75 306.55 49.95 178.25 178.25 40 316.5 40 512 40 707.55 178.25 845.8 263.0400390625 930.55703125 369.35 963.35 423.8880859375 980.1630859375 484.1 983.3 484.3 983.3 484.5 983.3 496.65 983.9 509 984 510.5 984 512 984 527.25 984 542.1 983.2 545.6 983 549.05 982.75 579.1 980.6 607.75 975.05 619.55 972.75 631.15 969.9 751.75 939.85 845.8 845.8 918.7 772.85 953.15 684 980.9 612.4 983.7 530.5 984 521.3 984 512 984 511 984 510 984 509.5 984 509 983.65 447.7 969.7 392 Z"/>
</g>

<g id="Layer7_0_FILL">
<path fill="#000000" fill-opacity="0.2" stroke="none" d="
M 984 510
Q 984 509.5 984 509 983.683984375 453.66015625 972.25 402.85
L 849.4 280 404 830.05 552.95 982.45
Q 580.964453125 980.2388671875 607.75 975.05 619.55 972.75 631.15 969.9 751.75 939.85 845.8 845.8 918.7 772.85 953.15 684 980.9 612.4 983.7 530.5 984 521.3 984 512 984 511 984 510 Z"/>
</g>

<g id="Layer6_0_FILL">
<path fill="#252B46" fill-opacity="0.9882352941176471" stroke="none" d="
M 863.5 738.65
Q 863.15 750.7 854.65 759.2 845.85 768 833.35 768
L 426.7 768
Q 414.2 768 405.4 759.2 396.9 750.7 396.55 738.65
L 396.55 810.2
Q 396.55 822.7 405.4 831.55 414.2 840.4 426.7 840.4
L 833.35 840.4
Q 845.85 840.4 854.65 831.55 863.5 822.75 863.5 810.2
L 863.5 738.65 Z"/>

<path fill="#707CB0" stroke="none" d="
M 854.65 281.05
Q 845.8 272.2 833.35 272.2
L 426.7 272.2
Q 414.25 272.2 405.4 281.05 396.9 289.6 396.55 301.65
L 396.55 738.65
Q 396.9 750.7 405.4 759.2 414.2 768 426.7 768
L 833.35 768
Q 845.85 768 854.65 759.2 863.15 750.7 863.5 738.65
L 863.5 301.65
Q 863.15 289.6 854.65 281.05 Z"/>
</g>

<g id="Layer6_1_FILL">
<path fill="#FFFFFF" stroke="none" d="
M 780 918.05
Q 780 908.75 773.45 902.2 766.85 895.6 757.55 895.6 748.25 895.6 741.7 902.2 735.15 908.7 735.15 918.05 735.15 927.4 741.7 933.95 748.25 940.5 757.55 940.5 766.85 940.5 773.45 933.95 780 927.35 780 918.05
M 844.9 902.2
Q 838.3 895.6 829 895.6 819.7 895.6 813.15 902.2 806.55 908.75 806.55 918.05 806.55 927.35 813.15 933.95 819.7 940.5 829 940.5 838.3 940.5 844.9 933.95 851.5 927.3 851.5 918.05 851.5 908.8 844.9 902.2 Z"/>
</g>

<g id="Layer6_2_FILL">
<path fill="#000000" fill-opacity="0.09803921568627451" stroke="none" d="
M 703.4 642
Q 782.65 562.75 782.65 450.65 782.65 338.55 703.4 259.3 624.1 180.1 512 180.1 399.85 180.1 320.7 259.3 241.4 338.6 241.4 450.65 241.4 562.75 320.7 642 399.85 721.25 512 721.25 624.1 721.25 703.4 642 Z"/>
</g>

<g id="Layer4_0_FILL">
<path fill="#242B46" stroke="none" d="
M 663.3 551.8
Q 677.55 537.55 677.55 517.4 677.55 497.15 663.3 482.9 649.25 468.85 629.5 468.65 629.2 468.65 628.9 468.65 608.75 468.65 594.4 482.9 580.2 497.15 580.2 517.4 580.2 537.55 594.4 551.8 608.75 566.05 628.9 566.05 649.1 566.05 663.3 551.8 Z"/>
</g>

<path id="Layer4_0_1_STROKES" stroke="#242B46" stroke-width="30" stroke-linejoin="round" stroke-linecap="round" fill="none" d="
M 629.5 468.65
L 629.5 432.6
Q 628.7 398.75 604.5 374.5 579.55 349.55 544.25 349.55 508.95 349.55 483.9 374.5 459.75 398.75 459 432.6
L 459 646.65
Q 458.75 681.5 434.05 706.15 409.1 731.2 373.75 731.2 338.45 731.2 313.5 706.15 289.25 681.95 288.5 648.1
L 288.5 482.55
M 347.15 251.1
L 382.95 251.1
M 195.6 251.1
L 231.4 251.1"/>

<path id="Layer3_0_1_STROKES" stroke="#CED5F2" stroke-width="30" stroke-linejoin="round" stroke-linecap="round" fill="none" d="
M 663.3 551.8
Q 649.1 566.05 628.9 566.05 608.75 566.05 594.4 551.8 580.2 537.55 580.2 517.4 580.2 497.15 594.4 482.9 608.75 468.65 628.9 468.65 629.2 468.65 629.5 468.65 649.25 468.85 663.3 482.9 677.55 497.15 677.55 517.4 677.55 537.55 663.3 551.8 Z"/>

<path id="Layer2_0_1_STROKES" stroke="#CED5F2" stroke-width="30" stroke-linejoin="round" stroke-linecap="round" fill="none" d="
M 382.95 251.1
L 382.95 387.8
Q 382.95 388.35 382.95 388.85 382.95 427.7 355.5 455.15 328.05 482.55 289.25 482.55 288.85 482.55 288.5 482.55 250.2 482.35 223.05 455.15 195.6 427.7 195.6 388.85 195.6 387.95 195.65 387.05
L 195.6 251.1"/>
</defs>

<g transform="matrix( 1, 0, 0, 1, 0,0) ">
<use xlink:href="#Layer9_0_FILL"/>
</g>

<g transform="matrix( 1, 0, 0, 1, 0,0) ">
<use xlink:href="#Layer8_0_FILL"/>
</g>

<g transform="matrix( 1, 0, 0, 1, 0,0) ">
<use xlink:href="#Layer7_0_FILL"/>
</g>

<g transform="matrix( 1, 0, 0, 1, 0,0) ">
<use xlink:href="#Layer6_0_FILL"/>
</g>

<g transform="matrix( 0.60308837890625, 0, 0, 0.60308837890625, 321.2,247.75) ">
<use xlink:href="#Layer6_1_FILL"/>
</g>

<g transform="matrix( 0.60308837890625, 0, 0, 0.60308837890625, 321.2,247.75) ">
<use xlink:href="#Layer6_2_FILL"/>
</g>

<g transform="matrix( 1, 0, 0, 1, 0,0) ">
<use xlink:href="#Layer4_0_FILL"/>

<use xlink:href="#Layer4_0_1_STROKES"/>
</g>

<g transform="matrix( 1, 0, 0, 1, 0,0) ">
<use xlink:href="#Layer3_0_1_STROKES"/>
</g>

<g transform="matrix( 1, 0, 0, 1, 0,0) ">
<use xlink:href="#Layer2_0_1_STROKES"/>
</g>
</svg>
