
<svg xmlns="http://www.w3.org/2000/svg" version="1.1" xmlns:xlink="http://www.w3.org/1999/xlink" preserveAspectRatio="none" x="0px" y="0px" width="1024px" height="1024px" viewBox="0 0 1024 1024">
<defs>
<g id="Layer4_0_FILL">
<path fill="#000000" fill-opacity="0.09803921568627451" stroke="none" d="
M 969.6 351.25
Q 961 330.4 950.2 310.4 944.1 299.05 937.3 288 907.95 240.45 865.75 198.2 727.5 59.95 531.95 59.95 336.45 59.95 198.2 198.2 59.95 336.45 59.95 531.95 59.95 727.5 198.2 865.75 336.45 1003.95 531.95 1003.95 727.5 1003.95 865.75 865.75 941.9 789.55 976.1 696 1003.95 619.75 1003.95 531.95 1003.95 464.6 987.55 404 985.7 397.15 983.65 390.4 977.5 370.45 969.6 351.25 Z"/>
</g>

<g id="Layer3_0_FILL">
<path fill="#1D1D1D" stroke="none" d="
M 969.7 392
Q 967.95 385.15 966.05 378.4 964.52578125 373.114453125 962.85 367.85 960.3787109375 359.903125 957.6 352.05 947.85 324.5 934.45 298.4 928.65 287.05 922.15 276 891.5 224 845.8 178.25 736.8 69.25 592.15 46.2 567.65 42.3 542.1 40.85 527.2 40 512 40 497.9 40 484.1 40.75 306.55 49.95 178.25 178.25 40 316.5 40 512 40 707.55 178.25 845.8 263.0400390625 930.55703125 369.35 963.35 423.8880859375 980.1630859375 484.1 983.3 484.3 983.3 484.5 983.3 496.65 983.9 509 984 510.5 984 512 984 527.25 984 542.1 983.2 545.6 983 549.05 982.75 579.1 980.6 607.75 975.05 619.55 972.75 631.15 969.9 751.75 939.85 845.8 845.8 918.7 772.85 953.15 684 980.9 612.4 983.7 530.5 984 521.3 984 512 984 511 984 510 984 509.5 984 509 983.65 447.7 969.7 392 Z"/>
</g>

<g id="Layer2_0_FILL">
<path fill="#000000" fill-opacity="0.2" stroke="none" d="
M 983.35 538.9
L 681 236.85
Q 504.8806640625 371.32109375 420.1 542.1
L 444.1 542.1 444.1 646.15 378 646.15
Q 355.6892578125 716.2646484375 347 791.8
L 537.3 983.45
Q 539.6990234375 983.329296875 542.1 983.2 545.6 983 549.05 982.75 579.1 980.6 607.75 975.05 619.55 972.75 631.15 969.9 751.75 939.85 845.8 845.8 918.7 772.85 953.15 684 979.473046875 616.0818359375 983.35 538.9 Z"/>
</g>

<g id="Layer0_0_FILL">
<path fill="#0ACF83" stroke="none" d="
M 800.7 2245.5
Q 833.45 2168.05 833.45 2083.35
L 833.45 1666.7 416.8 1666.7
Q 332.1 1666.7 254.65 1699.45 179.9 1731.1 122.25 1788.8 64.55 1846.45 32.9 1921.2 0.15 1998.65 0.15 2083.35 0.15 2168.05 32.9 2245.5 64.55 2320.25 122.25 2377.95 179.9 2435.6 254.65 2467.25 332.05 2500 416.8 2500 501.5 2500 578.95 2467.25 653.7 2435.6 711.4 2377.95 769.05 2320.25 800.7 2245.5 Z"/>
</g>

<g id="Layer0_1_FILL">
<path fill="#A259FF" stroke="none" d="
M 254.65 866.1
Q 179.9 897.75 122.25 955.45 64.55 1013.1 32.9 1087.85 0.15 1165.3 0.15 1250 0.15 1334.7 32.9 1412.15 64.55 1486.9 122.25 1544.6 179.9 1602.3 254.65 1633.95 332.1 1666.7 416.8 1666.7
L 833.45 1666.7 833.45 833.35 416.8 833.35
Q 332.1 833.35 254.65 866.1 Z"/>
</g>

<g id="Layer0_2_FILL">
<path fill="#F24E1E" stroke="none" d="
M 254.65 32.75
Q 179.9 64.4 122.25 122.1 64.55 179.8 32.9 254.55 0.15 332 0.15 416.7 0.15 501.4 32.9 578.85 64.55 653.6 122.25 711.3 179.9 768.95 254.65 800.6 332.05 833.35 416.8 833.35
L 833.45 833.35 833.45 0 416.8 0
Q 332.1 0 254.65 32.75 Z"/>
</g>

<g id="Layer0_3_FILL">
<path fill="#FF7262" stroke="none" d="
M 1544.75 122.1
Q 1487.05 64.4 1412.3 32.75 1334.85 0 1250.15 0
L 833.45 0 833.45 833.35 1250.15 833.35
Q 1334.85 833.35 1412.3 800.6 1487.05 768.95 1544.75 711.3 1602.4 653.6 1634.05 578.85 1666.8 501.4 1666.8 416.7 1666.8 331.95 1634.05 254.55 1602.4 179.8 1544.75 122.1 Z"/>
</g>

<g id="Layer0_4_FILL">
<path fill="#1ABCFE" stroke="none" d="
M 1544.75 955.45
Q 1487.05 897.75 1412.3 866.1 1334.85 833.35 1250.15 833.35 1165.45 833.35 1088 866.1 1013.25 897.75 955.55 955.45 897.85 1013.1 866.2 1087.85 833.45 1165.3 833.45 1250 833.45 1334.7 866.2 1412.15 897.85 1486.9 955.55 1544.6 1013.25 1602.3 1088 1633.95 1165.45 1666.7 1250.15 1666.7 1334.85 1666.7 1412.3 1633.95 1487.05 1602.3 1544.75 1544.6 1602.4 1486.9 1634.05 1412.15 1666.8 1334.7 1666.8 1250 1666.8 1165.25 1634.05 1087.85 1602.4 1013.1 1544.75 955.45 Z"/>
</g>
</defs>

<g transform="matrix( 1, 0, 0, 1, 0,0) ">
<use xlink:href="#Layer4_0_FILL"/>
</g>

<g transform="matrix( 1, 0, 0, 1, 0,0) ">
<use xlink:href="#Layer3_0_FILL"/>
</g>

<g transform="matrix( 1, 0, 0, 1, 0,0) ">
<use xlink:href="#Layer2_0_FILL"/>
</g>

<g transform="matrix( 0.241851806640625, 0, 0, 0.241851806640625, 311.45,211.15) ">
<use xlink:href="#Layer0_0_FILL"/>
</g>

<g transform="matrix( 0.241851806640625, 0, 0, 0.241851806640625, 311.45,211.15) ">
<use xlink:href="#Layer0_1_FILL"/>
</g>

<g transform="matrix( 0.241851806640625, 0, 0, 0.241851806640625, 311.45,211.15) ">
<use xlink:href="#Layer0_2_FILL"/>
</g>

<g transform="matrix( 0.241851806640625, 0, 0, 0.241851806640625, 311.45,211.15) ">
<use xlink:href="#Layer0_3_FILL"/>
</g>

<g transform="matrix( 0.241851806640625, 0, 0, 0.241851806640625, 311.45,211.15) ">
<use xlink:href="#Layer0_4_FILL"/>
</g>
</svg>
