<?xml version="1.0" encoding="utf-8"?>
<!-- Generator: flash2svg, http://dissentgraphics.com/tools/flash2svg -->
<svg xmlns:xlink="http://www.w3.org/1999/xlink" id="MySQLWorkbench" image-rendering="optimizeSpeed" baseProfile="basic" version="1.1" style="background-color:#ffffff" x="0px" y="0px" width="1024px" height="1024px" viewBox="0 0 1024 1024" enable-background="new 0 0 1024 1024" xmlns="http://www.w3.org/2000/svg">
  <defs transform="matrix(1 0 0 1 0 0) "/>
  <g id="shadow">
    <g id="shape">
      <path id="path" fill="#000000" fill-opacity="0.09803921568627451" d="M969.65,351.3 Q961.05,330.45 950.25,310.45 C946.2,302.9 941.9,295.4 937.35,288.05 917.8,256.35 893.95,226.4 865.8,198.25 773.65,106.1 662.35,60 532,60 401.65,60 290.4,106.1 198.25,198.25 106.1,290.4 60,401.65 60,532 60,662.35 106.1,773.65 198.25,865.8 290.4,957.95 401.65,1004 532,1004 662.35,1004 773.65,957.95 865.8,865.8 916.55,815 953.35,758.4 976.15,696.05 994.7,645.2 1004,590.55 1004,532 1004,487.1 998.55,444.45 987.6,404.05 986.35,399.5 985.05,394.95 983.7,390.45 979.6,377.15 974.9,364.1 969.65,351.3z"/>
    </g>
  </g>
  <g id="ico-shadow">
    <g id="shape2">
      <path id="path1" fill="#333333" fill-opacity="1" d="M727.2,91.75 C718.5,87.4 709.35,83.1 699.95,79.05 691.35,75.3 682.8,71.85 674.05,68.65 631.95,52.9 589.8,43.3 547.6,40 478.2,34.4 408.65,45.4 338.7,73 315.25,82.3 293.05,92.9 272.1,104.9 230.8,128.6 194.5,157.55 163.6,191.6 Q112,248.2 79.05,324.15 C58.8,370.8 46.2,417.6 41.2,463.8 40.75,468.25 40.35,472.4 40,476.55 36.3,522.15 39.8,567.3 50.25,612.55 55.95,637.1 63.5,661.3 73,685.4 100.7,755.35 140.25,813.8 191.55,860.5 223,889.15 258.75,913.35 298.85,933.3 299,933.35 299.1,933.4 299.2,933.45 302.3,935 305.3,936.45 307.85,937.6 312.75,939.95 317.1,941.95 321.45,943.85 322.55,944.3 323.35,944.7 324.2,945.05 333.65,949.15 343.1,952.9 352.1,956.25 354.45,957.1 356.6,957.9 358.7,958.65 377.75,965.35 396.9,970.8 415.6,974.95 423.5,976.65 431.4,978.2 439.1,979.5 440.05,979.7 441.05,979.8 441.8,979.95 453.45,981.8 465,983.2 476.55,984.15 546.35,989.6 615.75,978.6 685.4,951.1 709.75,941.5 732.7,930.45 754.2,917.95 789.3,897.6 820.65,873.45 848.3,845.45 852.45,841.25 856.5,836.95 860.55,832.55 868.95,823.3 877.05,813.6 884.8,803.45 904.85,777.3 922.35,748.35 937.4,716.75 940,711.25 942.55,705.65 945.05,699.9 945.3,699.3 945.6,698.65 945.85,698.05 946,697.75 946.1,697.45 946.25,697.15 949.05,690.55 951.7,683.9 954.35,677.15 966,646.5 974.5,615.5 979.7,584.1 980.4,579.7 981.1,574.95 981.8,570.2 982.7,562.85 983.55,555.35 984.15,547.6 984.25,546.15 984.4,544.45 984.55,542.65 985.85,523.35 985.85,503.95 984.65,484.25 984.2,477.85 983.65,471.35 982.95,464.65 982.75,462.8 982.5,460.8 982.25,458.8 980.25,442.4 977.3,425.95 973.3,409.1 967.85,385.95 960.45,362.35 951.1,338.7 923.55,268.95 884.1,210.65 832.5,163.6 813.75,146.5 793.15,130.8 770.95,116.65 757.1,107.75 742.65,99.55 727.2,91.75z"/>
    </g>
  </g>
  <g id="ico-shadow1">
    <g id="shape4">
      <path id="path2" fill="#000000" fill-opacity="0.2" d="M917.2,268.65 L846.6,198.05 106.05,584.7 506.9,985.55 C566.85,986 626,974.55 685.4,951.1 709.75,941.5 732.7,930.45 754.2,917.95 789.3,897.6 820.65,873.45 848.3,845.45 852.45,841.25 856.5,836.95 860.55,832.55 868.95,823.3 877.05,813.6 884.8,803.45 904.85,777.3 922.35,748.35 937.4,716.75 940,711.25 942.55,705.65 945.05,699.9 945.3,699.3 945.6,698.65 945.85,698.05 946,697.75 946.1,697.45 946.25,697.15 949.05,690.55 951.7,683.9 954.35,677.15 966,646.5 974.5,615.5 979.7,584.1 980.4,579.7 981.1,574.95 981.8,570.2 982.7,562.85 983.55,555.35 984.15,547.6 984.25,546.15 984.4,544.45 984.55,542.65 985.85,523.35 985.85,503.95 984.65,484.25 984.2,477.85 983.65,471.35 982.95,464.65 982.75,462.8 982.5,460.8 982.25,458.8 980.25,442.4 977.3,425.95 973.3,409.1 Q965,373.95 951.1,338.7 C941.35,314.05 930.1,290.8 917.2,268.65z"/>
    </g>
  </g>
  <g id="Calque.__208">
    <g id="shape6">
      <path id="path3" fill="#005D7D" fill-opacity="1" d="M278.45,475.25 C275.4,477.95 273.65,481.25 273.25,485.2 272.05,496.9 271.45,509.8 271.5,523.95 271.45,524.2 271.5,524.5 271.45,524.75 L271.5,526.8 C272.85,593.55 290.05,650.2 322.9,696.8 357.95,746.6 399.95,771.6 448.8,771.75 Q455.9,771.85 462.85,771.25 C466.85,770.95 470.15,769.3 472.95,766.45 475.65,763.55 477.05,760.1 477.2,756.15 L391.95,512.95 C391.95,510.2 391.25,507.45 389.75,504.85 388.3,502.3 386.3,500.2 383.8,498.65 381.2,497.15 378.45,496.4 375.55,496.35 L289.1,471.4 C285,471.3 281.45,472.6 278.45,475.25z"/>
    </g>
  </g>
  <g id="Calque.__209">
    <g id="shape8">
      <path id="path4" fill="#3B99C8" fill-opacity="1" d="M844.3,196.15 Q837.45,191.2 830,186.9 C779.05,156.75 720.35,157.55 653.95,189.4 591.8,219 539.9,269.25 498.35,340.2 L497.1,342.35 C496.95,342.65 496.75,342.95 496.6,343.25 488.05,358.45 480.95,372.7 475.2,386 473.25,390.5 473.05,395.15 474.6,399.9 476.15,404.65 479.05,408.25 483.35,410.7 L668.3,517.5 C671.35,519.25 674.7,520.15 678.3,520.1 681.85,520.05 685.2,519.05 688.25,517.2 691.35,515.35 693.7,512.85 695.35,509.8 L850.15,221.25 C852.4,216.95 853,212.4 851.9,207.6 850.75,202.8 848.25,199 844.3,196.15z"/>
      <path id="path5" fill="#007BA4" fill-opacity="1" d="M786.35,787.4 C790.3,784.55 792.8,780.75 793.95,775.95 795.05,771.15 794.45,766.6 792.2,762.3 L557.4,553.75 C555.75,550.7 553.4,548.2 550.3,546.35 547.25,544.5 543.9,543.5 540.35,543.45 536.75,543.4 533.4,544.3 530.35,546.05 L425.4,572.85 C421.1,575.3 418.2,578.9 416.65,583.65 415.1,588.4 415.3,593.05 417.25,597.55 423,610.85 430.1,625.1 438.65,640.3 438.8,640.6 439,640.9 439.15,641.2 L440.4,643.35 C481.95,714.3 533.85,764.55 596,794.15 662.4,826 721.1,826.8 772.05,796.65 777,793.8 781.8,790.7 786.35,787.4z"/>
    </g>
  </g>
  <mask id="ico-shadow2">
    <g id="g">
      <g id="shape15">
        <path id="path8" fill="#FFFFFF" fill-opacity="1" d="M727.2,91.75 C718.5,87.4 709.35,83.1 699.95,79.05 691.35,75.3 682.8,71.85 674.05,68.65 631.95,52.9 589.8,43.3 547.6,40 478.2,34.4 408.65,45.4 338.7,73 315.25,82.3 293.05,92.9 272.1,104.9 230.8,128.6 194.5,157.55 163.6,191.6 Q112,248.2 79.05,324.15 C58.8,370.8 46.2,417.6 41.2,463.8 40.75,468.25 40.35,472.4 40,476.55 36.3,522.15 39.8,567.3 50.25,612.55 55.95,637.1 63.5,661.3 73,685.4 100.7,755.35 140.25,813.8 191.55,860.5 223,889.15 258.75,913.35 298.85,933.3 299,933.35 299.1,933.4 299.2,933.45 302.3,935 305.3,936.45 307.85,937.6 312.75,939.95 317.1,941.95 321.45,943.85 322.55,944.3 323.35,944.7 324.2,945.05 333.65,949.15 343.1,952.9 352.1,956.25 354.45,957.1 356.6,957.9 358.7,958.65 377.75,965.35 396.9,970.8 415.6,974.95 423.5,976.65 431.4,978.2 439.1,979.5 440.05,979.7 441.05,979.8 441.8,979.95 453.45,981.8 465,983.2 476.55,984.15 546.35,989.6 615.75,978.6 685.4,951.1 709.75,941.5 732.7,930.45 754.2,917.95 789.3,897.6 820.65,873.45 848.3,845.45 852.45,841.25 856.5,836.95 860.55,832.55 868.95,823.3 877.05,813.6 884.8,803.45 904.85,777.3 922.35,748.35 937.4,716.75 940,711.25 942.55,705.65 945.05,699.9 945.3,699.3 945.6,698.65 945.85,698.05 946,697.75 946.1,697.45 946.25,697.15 949.05,690.55 951.7,683.9 954.35,677.15 966,646.5 974.5,615.5 979.7,584.1 980.4,579.7 981.1,574.95 981.8,570.2 982.7,562.85 983.55,555.35 984.15,547.6 984.25,546.15 984.4,544.45 984.55,542.65 985.85,523.35 985.85,503.95 984.65,484.25 984.2,477.85 983.65,471.35 982.95,464.65 982.75,462.8 982.5,460.8 982.25,458.8 980.25,442.4 977.3,425.95 973.3,409.1 967.85,385.95 960.45,362.35 951.1,338.7 923.55,268.95 884.1,210.65 832.5,163.6 813.75,146.5 793.15,130.8 770.95,116.65 757.1,107.75 742.65,99.55 727.2,91.75z"/>
      </g>
    </g>
  </mask>
  <g id="masked" mask="url(#ico-shadow2)">
    <g id="Calque.__210">
      <g id="shape11">
        <path id="path6" fill="#007BA4" fill-opacity="1" d="M780.25,334.45 C773.95,330.25 765.45,325.1 754.7,318.95 698.15,294.5 634.75,282.25 564.4,282.25 459.3,282.25 369.6,309.55 295.25,364.2 243.1,402.55 209.25,446.5 193.7,496.05 L180.05,496.05 C166.25,496.05 154.45,500.95 144.7,510.7 134.95,520.45 130.05,532.25 130.05,546.05 L130.05,568.05 C130.05,579.4 136.95,589.4 150.8,598.05 385.55,582.7 544.85,595.55 628.75,636.55 712.65,677.55 768.4,711.4 796.05,738.15 845.6,789.6 883.55,841.05 910,892.5 L1007.05,591.45 C992.6,557.1 967.05,516.2 930.5,468.85 893.95,421.45 861.35,388.25 832.7,369.25 804.05,350.2 786.55,338.6 780.25,334.45z"/>
        <path id="path7" fill="#3B99C8" fill-opacity="1" d="M180.05,496.05 L193.7,496.05 C209.25,446.5 243.1,402.55 295.25,364.2 369.6,309.55 459.3,282.25 564.4,282.25 634.75,282.25 698.15,294.5 754.7,318.95 688.6,281.15 611.85,262.25 524.4,262.25 419.3,262.25 329.6,289.55 255.25,344.2 203.1,382.55 169.25,426.5 153.7,476.05 L140.05,476.05 C126.25,476.05 114.45,480.95 104.7,490.7 94.95,500.45 90.05,512.25 90.05,526.05 L90.05,548.05 C90.05,561.85 94.95,573.65 104.7,583.4 114.45,593.15 129.8,598 150.8,598.05 L150.775,598.05 L150.8,598.05 C136.95,589.4 130.05,579.4 130.05,568.05 L130.05,546.05 C130.05,532.25 134.95,520.45 144.7,510.7 154.45,500.95 166.25,496.05 180.05,496.05z"/>
      </g>
    </g>
  </g>
  <g id="Calque.__211">
    <g id="shape17">
      <path id="path9" fill="#FFFFFF" fill-opacity="1" d="M300.05,472.55 Q300.05,482.7 307.2,489.85 C312,494.65 317.8,497.05 324.55,497.05 331.3,497.05 337.1,494.65 341.85,489.85 346.65,485.1 349.05,479.3 349.05,472.55 349.05,465.8 346.65,460 341.85,455.2 337.1,450.45 331.3,448.05 324.55,448.05 317.8,448.05 312,450.45 307.2,455.2 302.45,460 300.05,465.8 300.05,472.55z"/>
    </g>
  </g>
</svg>