<?xml version="1.0" encoding="utf-8"?>
<!-- Generator: flash2svg, http://dissentgraphics.com/tools/flash2svg -->
<svg xmlns:xlink="http://www.w3.org/1999/xlink" id="Apps-Soulseek" image-rendering="optimizeSpeed" baseProfile="basic" version="1.1" style="background-color:#ffffff" x="0px" y="0px" width="1024px" height="1024px" viewBox="0 0 1024 1024" enable-background="new 0 0 1024 1024" xmlns="http://www.w3.org/2000/svg">
  <defs transform="matrix(1 0 0 1 0 0) "/>
  <g id="background-circle-shadow">
    <g id="shape">
      <path id="path" fill="#000000" fill-opacity="0.09803921568627451" d="M969.65,351.3 Q961.05,330.45 950.25,310.45 C946.2,302.9 941.9,295.4 937.35,288.05 917.8,256.35 893.95,226.4 865.8,198.25 773.65,106.1 662.35,60 532,60 401.65,60 290.4,106.1 198.25,198.25 106.1,290.4 60,401.65 60,532 60,662.35 106.1,773.65 198.25,865.8 290.4,957.95 401.65,1004 532,1004 662.35,1004 773.65,957.95 865.8,865.8 916.55,815 953.35,758.4 976.15,696.05 994.7,645.2 1004,590.55 1004,532 1004,487.1 998.55,444.45 987.6,404.05 986.35,399.5 985.05,394.95 983.7,390.45 979.6,377.15 974.9,364.1 969.65,351.3z"/>
    </g>
  </g>
  <g id="background-circle">
    <g id="shape2">
      <path id="path1" fill="#72E79F" fill-opacity="1" d="M969.75,392.05 C968.65,387.7 967.4,383.05 966.1,378.45 965.1,375.05 964.1,371.6 962.95,367.95 961.35,362.8 959.55,357.45 957.65,352.1 951.2,333.85 943.5,316.05 934.5,298.45 930.7,291.05 926.55,283.5 922.2,276.05 901.9,241.55 876.4,208.85 845.85,178.3 773.25,105.7 688.7,61.65 592.2,46.25 575.95,43.65 559.4,41.85 542.15,40.9 532.45,40.35 522.3,40.05 512.05,40.05 502.7,40.05 493.45,40.3 484.15,40.8 365.8,46.9 263.85,92.75 178.3,178.3 Q40.05,316.55 40.05,512.05 C40.05,627.1 76,727.35 147.55,812.35 157.35,824 167.5,835.05 178.3,845.85 186.25,853.8 194.35,861.4 202.4,868.5 253.1,913.15 308.75,944.8 369.4,963.4 406.15,974.65 444.2,981.25 484.15,983.35 484.3,983.35 484.4,983.35 484.55,983.35 493.05,983.8 501.15,984.05 509.05,984.05 510.25,984.05 511.15,984.05 512.05,984.05 522.35,984.05 532.55,983.75 542.15,983.25 544.65,983.1 546.9,982.95 549.1,982.8 569.3,981.35 589,978.75 607.8,975.1 615.75,973.55 623.6,971.8 631.2,969.95 712,949.65 783.35,908.35 845.85,845.85 856.75,834.95 867.05,823.75 876.65,812.35 909.9,772.75 935.4,730.05 953.2,684.05 956.35,675.85 959.3,667.55 962,659.2 974.9,618.7 982.2,575.85 983.75,530.55 983.95,524.5 984.05,518.3 984.05,512.05 984.05,511.4 984.05,510.7 984.05,510.05 984.05,509.7 984.05,509.4 984.05,509.05 983.85,468.4 979.1,429.55 969.75,392.05z"/>
    </g>
  </g>
  <g id="background-circle1">
    <g id="shape4">
      <path id="path2" fill="#62BDFE" fill-opacity="1" d="M969.75,392.05 C968.65,387.7 967.4,383.05 966.1,378.45 965.1,375.05 964.1,371.6 962.95,367.95 961.35,362.8 959.55,357.45 957.65,352.1 951.2,333.85 943.5,316.05 934.5,298.45 930.7,291.05 926.55,283.5 922.2,276.05 901.9,241.55 876.4,208.85 845.85,178.3 773.25,105.7 688.7,61.65 592.2,46.25 575.95,43.65 559.4,41.85 542.15,40.9 532.45,40.35 522.3,40.05 512.05,40.05 502.7,40.05 493.45,40.3 484.15,40.8 365.8,46.9 263.85,92.75 178.3,178.3 Q40.05,316.55 40.05,512.05 C40.05,625.4 74.95,724.4 144.2,808.35 145.25,806.3 146.4,804.3 147.55,802.3 166.85,768.55 194.05,737.4 229.2,708.95 307.3,645.7 401.6,614.05 512.05,614.05 520.5,614.05 528.85,614.25 537.1,614.6 636.85,619.05 722.75,650.5 794.9,708.95 830.05,737.4 857.3,768.55 876.65,802.3 876.7,802.35 876.7,802.4 876.75,802.45 877.85,804.4 878.95,806.35 880,808.3 881.65,806.35 883.2,804.4 884.75,802.45 914.05,765.75 936.85,726.3 953.2,684.05 956.35,675.85 959.3,667.55 962,659.2 974.9,618.7 982.2,575.85 983.75,530.55 983.95,524.5 984.05,518.3 984.05,512.05 984.05,511.4 984.05,510.7 984.05,510.05 984.05,509.7 984.05,509.4 984.05,509.05 983.85,468.4 979.1,429.55 969.75,392.05z"/>
      <path id="path3" fill="#284255" fill-opacity="1" d="M537.1,614.6 C528.85,614.25 520.5,614.05 512.05,614.05 401.6,614.05 307.3,645.7 229.2,708.95 194.05,737.4 166.85,768.55 147.55,802.3 146.4,804.3 145.25,806.3 144.2,808.35 145.45,809.85 146.5,811.1 147.55,812.35 148.05,813 148.55,813.6 149.1,814.25 158.25,825 168,835.55 178.3,845.85 186.25,853.8 194.35,861.4 202.4,868.5 253.1,913.15 308.75,944.8 369.4,963.4 406.15,974.65 444.2,981.25 484.15,983.35 484.3,983.35 484.4,983.35 484.55,983.35 493.05,983.8 501.15,984.05 509.05,984.05 510.25,984.05 511.15,984.05 512.05,984.05 522.35,984.05 532.55,983.75 542.15,983.25 544.65,983.1 546.9,982.95 549.1,982.8 569.3,981.35 589,978.75 607.8,975.1 615.75,973.55 623.6,971.8 631.2,969.95 712,949.65 783.35,908.35 845.85,845.85 856.75,834.95 867.05,823.75 876.65,812.35 877.8,811 878.95,809.65 880,808.3 878.95,806.35 877.85,804.4 876.75,802.45 876.7,802.4 876.7,802.35 876.65,802.3 857.3,768.55 830.05,737.4 794.9,708.95 722.75,650.5 636.85,619.05 537.1,614.6z"/>
    </g>
  </g>
  <g id="Calque.__201">
    <g id="shape8">
      <path id="path4" fill="#FFFFFF" fill-opacity="1" d="M749.85,361.25 L749.85,377.05 Q749.95,373.1 749.95,369.15 C749.95,366.5 749.9,363.85 749.85,361.25z M280.05,383.9 L280.05,354.4 C279.75,359.3 279.65,364.2 279.65,369.15 279.65,374.1 279.75,379 280.05,383.9z"/>
      <path id="path7" fill="#3D6A8A" fill-opacity="1" d="M730.4,411.65 C730.3,407.5 730.05,403.35 729.7,399.3 725.45,347.45 704.35,302.55 666.5,264.65 623.8,222 572.3,200.65 512,200.65 451.65,200.65 400.1,222 357.45,264.65 321.3,300.8 300.5,343.3 295,392.15 294.95,392.3 294.9,392.45 294.9,392.6 294.45,396.75 294.1,400.95 293.85,405.2 293.8,405.3 293.75,405.4 293.75,405.5 L293.75,432.95 C294.05,437.55 294.45,442.1 295,446.65 295.05,446.85 295.05,447.05 295.05,447.2 L294.975,656.2 729.7,656.2 729.7,439.25 C730.05,435.1 730.3,430.9 730.4,426.65 L730.4,411.9 C730.4,411.85 730.4,411.75 730.4,411.65z"/>
      <path id="path8" fill="#467EA4" fill-opacity="1" d="M729.7,656.2 L294.975,656.2 294.9,828.05 367.1,755.85 439.3,828.05 512.3,755.05 585.35,828.05 657.5,755.85 729.7,828.05 729.7,656.2z"/>
    </g>
  </g>
  <g id="Calque.__202">
    <g id="shape15">
      <path id="path9" fill="#3D6A8A" fill-opacity="1" d="M657.25,653.9 L729.45,726.1 729.45,550.25 294.75,550.25 294.65,726.1 366.85,653.9 439.05,726.1 512.05,653.1 585.1,726.1 657.25,653.9z"/>
    </g>
  </g>
  <g id="Calque.__203">
    <g id="shape17">
      <path id="path10" fill="#294254" fill-opacity="1" d="M652.45,463.7 C652.45,461.9 652.4,460.2 652.2,458.5 L533.8,458.5 C533.7,460.2 533.65,461.9 533.65,463.7 533.65,480.15 539.45,494.15 551.05,505.75 562.65,517.35 576.6,523.1 593.05,523.1 609.5,523.1 623.5,517.35 635.1,505.75 646.65,494.15 652.45,480.15 652.45,463.7z M495,463.7 C495,461.9 494.95,460.2 494.8,458.5 L376.4,458.5 Q376.2,461.05 376.2,463.7 C376.2,480.15 382.05,494.15 393.65,505.75 405.25,517.35 419.2,523.1 435.6,523.1 452.05,523.1 466.05,517.35 477.65,505.75 489.25,494.15 495,480.15 495,463.7z"/>
    </g>
  </g>
  <g id="object">
    <g id="shape21">
      <path id="path13" fill="#FFFFFF" fill-opacity="1" d="M589.45,478.35 C587.7,478.85 585.7,479.15 583.7,479.15 578.3,479.15 573.65,477.25 569.8,473.4 566,469.6 564.1,465 564.1,459.55 564.1,458.8 564.15,458 564.2,457.25 L534.35,457.25 C535.45,471.45 541.15,483.7 551.45,494.05 563.05,505.65 577.05,511.45 593.5,511.45 609.95,511.45 623.9,505.65 635.5,494.05 645.85,483.7 651.65,471.45 652.75,457.25 L603.2,457.25 C603.25,458 603.3,458.8 603.3,459.55 603.3,461.55 603,463.55 602.5,465.3 L591.7,465.3 598.65,472.25 C598.3,472.65 597.95,473 597.55,473.4 595.2,475.75 592.45,477.45 589.45,478.35z M443.6,478.35 C440.5,477.45 437.8,475.75 435.45,473.4 431.65,469.6 429.75,465 429.75,459.55 429.75,458.8 429.8,458 429.85,457.25 L376.9,457.25 C378,471.45 383.7,483.7 394.05,494.05 405.65,505.65 419.65,511.45 436.1,511.45 452.5,511.45 466.45,505.65 478.05,494.05 488.45,483.7 494.2,471.45 495.3,457.25 L468.85,457.25 C468.9,458 468.95,458.8 468.95,459.55 468.95,461.55 468.65,463.55 468.15,465.3 L457.35,465.3 464.3,472.25 C463.95,472.65 463.6,473 463.2,473.4 459.4,477.25 454.75,479.15 449.35,479.15 447.3,479.15 445.35,478.85 443.6,478.35z"/>
      <path id="path14" fill="#000000" fill-opacity="1" d="M583.7,479.15 C585.7,479.15 587.7,478.85 589.45,478.35 592.45,477.45 595.2,475.75 597.55,473.4 597.95,473 598.3,472.65 598.65,472.25 L591.7,465.3 602.5,465.3 C603,463.55 603.3,461.55 603.3,459.55 603.3,458.8 603.25,458 603.2,457.25 L564.2,457.25 C564.15,458 564.1,458.8 564.1,459.55 564.1,465 566,469.6 569.8,473.4 573.65,477.25 578.3,479.15 583.7,479.15z M435.45,473.4 C437.8,475.75 440.5,477.45 443.6,478.35 445.35,478.85 447.3,479.15 449.35,479.15 454.75,479.15 459.4,477.25 463.2,473.4 463.6,473 463.95,472.65 464.3,472.25 L457.35,465.3 468.15,465.3 C468.65,463.55 468.95,461.55 468.95,459.55 468.95,458.8 468.9,458 468.85,457.25 L429.85,457.25 C429.8,458 429.75,458.8 429.75,459.55 429.75,465 431.65,469.6 435.45,473.4z"/>
    </g>
  </g>
  <g id="Calque.__204">
    <g id="shape30">
      <path id="path19" fill="#F8CE4D" fill-opacity="1" d="M514.4,510.65 L514.15,510.4 476.75,547.8 514.2,646.6 514.4,646.15 514.4,510.65z"/>
      <path id="path20" fill="#E2BB45" fill-opacity="1" d="M551.5,547.8 L514.4,510.65 514.4,646.15 551.5,547.8z"/>
    </g>
  </g>
  <g id="Calque.__205">
    <g id="shape34">
      <path id="path21" fill="#284255" fill-opacity="1" d="M529.95,543.45 Q529.95,541.45 528.5,540 C527.55,539.05 526.4,538.55 525.05,538.55 523.7,538.55 522.55,539.05 521.6,540 520.65,540.95 520.15,542.1 520.15,543.45 520.15,544.8 520.65,545.95 521.6,546.9 522.55,547.85 523.7,548.35 525.05,548.35 526.4,548.35 527.55,547.85 528.5,546.9 529.45,545.95 529.95,544.8 529.95,543.45z M509.5,543.45 C509.5,542.1 509,540.95 508.05,540 507.1,539.05 505.95,538.55 504.6,538.55 503.25,538.55 502.1,539.05 501.15,540 500.2,540.95 499.7,542.1 499.7,543.45 499.7,544.8 500.2,545.95 501.15,546.9 502.1,547.85 503.25,548.35 504.6,548.35 505.95,548.35 507.1,547.85 508.05,546.9 509,545.95 509.5,544.8 509.5,543.45z"/>
    </g>
  </g>
  <g id="Calque.__206">
    <g id="shape38">
      <path id="path24" fill="#FFFFFF" fill-opacity="1" d="M633.25,344.2 C633.25,341.9 632.8,339.75 632,337.75 L616.4,275.05 600.45,338.7 C599.85,340.4 599.55,342.25 599.55,344.2 599.55,348.85 601.2,352.8 604.5,356.1 607.75,359.4 611.75,361.05 616.4,361.05 621.05,361.05 625,359.4 628.3,356.1 Q633.25,351.2 633.25,344.2z"/>
    </g>
  </g>
</svg>