<?xml version="1.0" encoding="utf-8"?>
<!-- Generator: flash2svg, http://dissentgraphics.com/tools/flash2svg -->
<svg xmlns:xlink="http://www.w3.org/1999/xlink" id="Apps-Jetbrains-Clion" image-rendering="optimizeSpeed" baseProfile="basic" version="1.1" style="background-color:#ffffff" x="0px" y="0px" width="1024px" height="1024px" viewBox="0 0 1024 1024" enable-background="new 0 0 1024 1024" xmlns="http://www.w3.org/2000/svg">
  <defs transform="matrix(1 0 0 1 0 0) "/>
  <g id="shadow">
    <g id="shape">
      <path id="path" fill="#000000" fill-opacity="0.09803921568627451" d="M964.65,346.3 Q956.05,325.45 945.25,305.45 C941.2,297.9 936.9,290.4 932.35,283.05 912.8,251.35 888.95,221.4 860.8,193.25 768.65,101.1 657.35,55 527,55 396.65,55 285.4,101.1 193.25,193.25 101.1,285.4 55,396.65 55,527 55,657.35 101.1,768.65 193.25,860.8 285.4,952.95 396.65,999 527,999 657.35,999 768.65,952.95 860.8,860.8 911.55,810 948.35,753.4 971.15,691.05 989.7,640.2 999,585.55 999,527 999,482.1 993.55,439.45 982.6,399.05 981.35,394.5 980.05,389.95 978.7,385.45 974.6,372.15 969.9,359.1 964.65,346.3z"/>
    </g>
  </g>
  <g id="circle">
    <g id="shape2">
      <path id="path1" fill="#F46A39" fill-opacity="1" d="M966.1,378.45 C963.6,369.7 960.75,360.85 957.65,352.1 951.2,333.85 943.5,316.05 934.5,298.45 930.7,291.05 926.55,283.5 922.2,276.05 L922.175,276.05 Q891.574,224.04 845.85,178.3 C753.7,86.15 642.4,40.05 512.05,40.05 381.7,40.05 270.45,86.15 178.3,178.3 86.15,270.45 40.05,381.7 40.05,512.05 40.05,642.4 86.15,753.7 178.3,845.85 246.35,913.9 324.8,956.8 413.2,974.5 445.15,980.9 477.95,984.05 512.05,984.05 642.4,984.05 753.7,938 845.85,845.85 894.45,797.25 930.25,743.35 953.2,684.05 970.2,640.1 980.2,593.25 983.15,543.3 983.75,533.1 984.05,522.65 984.05,512.05 984.05,470.3 979.35,430.45 969.75,392.05 968.65,387.7 967.4,383.05 966.1,378.45z"/>
    </g>
  </g>
  <mask id="circle2">
    <g id="g">
      <g id="shape23">
        <path id="path15" fill="#FFFFFF" fill-opacity="1" d="M969.75,392.05 C968.65,387.7 967.4,383.05 966.1,378.45 963.6,369.7 960.75,360.85 957.65,352.1 951.2,333.85 943.5,316.05 934.5,298.45 930.7,291.05 926.55,283.5 922.2,276.05 L922.175,276.05 Q891.574,224.04 845.85,178.3 C753.7,86.15 642.4,40.05 512.05,40.05 381.7,40.05 270.45,86.15 178.3,178.3 86.15,270.45 40.05,381.7 40.05,512.05 40.05,642.4 86.15,753.7 178.3,845.85 246.35,913.9 324.8,956.8 413.2,974.5 445.15,980.9 477.95,984.05 512.05,984.05 642.4,984.05 753.7,938 845.85,845.85 894.45,797.25 930.25,743.35 953.2,684.05 970.2,640.1 980.2,593.25 983.15,543.3 983.75,533.1 984.05,522.65 984.05,512.05 984.05,470.3 979.35,430.45 969.75,392.05z"/>
      </g>
    </g>
  </mask>
  <g id="masked" mask="url(#circle2)">
    <g id="Calque.__204">
      <g id="shape4">
        <path id="path2" fill="#545F66" fill-opacity="1" d="M774.65,351.55 Q765.309,332.686 753.1,315.05 C743.35,301 732.3,287.5 719.85,274.65 663,215.9 593.75,186.55 512,186.55 431.65,186.55 363.1,215.9 306.25,274.65 283.4,298.3 265.1,323.9 251.45,351.55 214.6,428.4 182.9,482.65 156.35,514.3 139.5,540.5 131.05,570.2 131.05,603.4 131.05,649.55 147.35,688.9 179.95,721.55 202.95,744.6 229.3,759.5 259.05,766.3 290.9,864.2 339.95,942.1 406.1,1000.05 L993.05,1000.05 993.05,917.7 C974.85,836.95 882.35,787.75 715.6,770.15 719.7,770.4 723.85,770.55 728.05,770.55 774.2,770.55 813.55,754.25 846.15,721.6 878.75,688.95 895.05,649.55 895.05,603.4 895.05,570.25 886.6,540.55 869.75,514.3 843.2,482.65 811.5,428.4 774.65,351.55z M757.9,443.35 C757.9,461.15 748.8,476.35 730.65,488.95 728.6,490.4 726.45,491.75 724.25,493.05 724.3,493.05 724.3,493.05 724.35,493.1 732.95,496.75 740.8,502.1 747.95,509.25 762.55,523.8 769.85,541.4 769.85,562.05 769.85,568.4 769.15,574.5 767.75,580.25 767.7,580.55 767.6,580.85 767.5,581.2 765.05,603.55 752.8,622.85 730.75,639.2 705.45,657.95 674.9,667.35 639.15,667.35 603.4,667.35 572.85,657.95 547.6,639.2 528.7,625.2 516.85,609.05 512.05,590.75 512,590.6 512,590.4 511.95,590.2 511.9,590.3 511.9,590.4 511.9,590.45 507.1,608.75 495.25,624.9 476.35,638.9 451.1,657.65 420.55,667.05 384.8,667.05 349.05,667.05 318.5,657.65 293.2,638.9 271.15,622.55 258.9,603.25 256.45,580.9 256.35,580.55 256.25,580.25 256.2,579.95 254.8,574.2 254.1,568.1 254.1,561.75 254.1,541.1 261.4,523.5 276,508.95 283.15,501.8 291,496.45 299.6,492.8 299.65,492.75 299.65,492.75 299.7,492.75 297.5,491.45 295.35,490.1 293.3,488.65 275.15,476.05 266.05,460.85 266.05,443.05 266.05,425.25 275.15,410.05 293.3,397.45 311.45,384.85 333.4,378.55 359.1,378.55 384.8,378.55 406.75,384.85 424.9,397.45 443.05,410.05 452.15,425.25 452.15,443.05 452.15,452.25 449.7,460.75 444.85,468.6 466.15,467.25 488.5,466.55 511.85,466.55 535.4,466.75 557.8,467.55 579.1,468.9 574.25,461.05 571.8,452.55 571.8,443.35 571.8,425.55 580.9,410.35 599.05,397.75 617.2,385.15 639.15,378.85 664.85,378.85 690.55,378.85 712.5,385.15 730.65,397.75 748.8,410.35 757.9,425.55 757.9,443.35z"/>
        <path id="path6" fill="#394045" fill-opacity="1" d="M753.1,315.05 Q765.309,332.686 774.65,351.55 C811.5,428.4 843.2,482.65 869.75,514.3 886.6,540.55 895.05,570.25 895.05,603.4 895.05,649.55 878.75,688.95 846.15,721.6 813.55,754.25 774.2,770.55 728.05,770.55 723.85,770.55 719.7,770.4 715.6,770.15 882.35,787.75 974.85,836.95 993.05,917.7 L993.05,352.8 C935.7,328.9 855.7,316.3 753.1,315.05z"/>
      </g>
    </g>
    <g id="Calque.__205">
      <g id="shape11">
        <path id="path7" fill="#67747D" fill-opacity="1" d="M756.45,385.25 Q738.6,334.05 694.5,303.5 C661.9,280.9 628.05,273.35 593,280.85 587.15,282.1 581.6,283.75 576.25,285.7 549.5,295.5 529.05,314.25 514.9,341.95 513.9,343.9 512.95,345.85 512.1,347.8 511.2,345.85 510.25,343.9 509.25,341.95 495.1,314.25 474.65,295.5 447.9,285.7 442.55,283.75 437,282.15 431.15,280.9 396.1,273.35 362.25,280.9 329.65,303.5 300.25,323.85 279.6,351.1 267.7,385.25 266.45,388.9 265.25,392.7 264.15,396.55 253.1,436.05 256.1,472.4 273.1,505.6 274.55,508.4 276.05,511.1 277.6,513.75 294.55,542.15 319.05,559.8 351.15,566.7 386.25,574.2 420.1,566.65 452.7,544.05 460.25,538.8 467.25,533.1 473.7,527 490.5,510.85 503.4,498.65 512.4,490.4 520.95,498.65 533.65,510.85 550.45,527 556.9,533.1 563.9,538.8 571.45,544.05 604,566.65 637.85,574.2 672.95,566.65 705.05,559.8 729.6,542.15 746.55,513.75 748.1,511.1 749.6,508.4 751.05,505.6 768.05,472.4 771.05,436.05 760,396.55 758.9,392.7 757.7,388.9 756.45,385.25z"/>
      </g>
    </g>
    <g id="Calque.__206">
      <g id="shape13">
        <path id="path8" fill="#485258" fill-opacity="1" d="M626.15,551.7 Q578.9,522.85 512.05,522.85 C467.5,522.85 429.45,532.45 397.95,551.7 366.45,570.95 350.7,594.2 350.7,621.45 350.7,648.7 366.45,671.9 397.95,691.15 429.45,710.4 467.5,720.05 512.05,720.05 556.6,720.05 594.65,710.4 626.15,691.15 657.65,671.9 673.4,648.7 673.4,621.45 673.4,594.2 657.65,570.95 626.15,551.7z"/>
      </g>
    </g>
    <g id="circle1">
      <g id="shape15">
        <path id="path9" fill="#000000" fill-opacity="1" d="M757.9,443.35 Q757.9,416.65 730.65,397.75 C712.5,385.15 690.55,378.85 664.85,378.85 639.15,378.85 617.2,385.15 599.05,397.75 580.9,410.35 571.8,425.55 571.8,443.35 571.8,452.55 574.25,461.05 579.1,468.9 627.25,471.95 670.15,478.45 707.8,488.4 713.55,489.3 719.05,490.85 724.25,493.05 726.45,491.75 728.6,490.4 730.65,488.95 748.8,476.35 757.9,461.15 757.9,443.35z M293.3,488.65 C295.35,490.1 297.5,491.45 299.7,492.75 304.9,490.55 310.4,489 316.15,488.1 353.8,478.15 396.7,471.65 444.85,468.6 449.7,460.75 452.15,452.25 452.15,443.05 452.15,425.25 443.05,410.05 424.9,397.45 406.75,384.85 384.8,378.55 359.1,378.55 333.4,378.55 311.45,384.85 293.3,397.45 275.15,410.05 266.05,425.25 266.05,443.05 266.05,460.85 275.15,476.05 293.3,488.65z"/>
        <path id="path12" fill="#CCCCCC" fill-opacity="1" d="M724.35,493.1 C724.3,493.05 724.3,493.05 724.25,493.05 720.2,491.8 716,490.6 711.65,489.4 710.4,489.05 709.1,488.75 707.8,488.4 670.15,478.45 627.25,471.95 579.1,468.9 557.8,467.55 535.4,466.75 511.85,466.55 488.5,466.55 466.15,467.25 444.85,468.6 396.7,471.65 353.8,478.15 316.15,488.1 314.85,488.45 313.55,488.75 312.3,489.1 307.95,490.3 303.75,491.5 299.7,492.75 299.65,492.75 299.65,492.75 299.6,492.8 291,496.45 283.15,501.8 276,508.95 261.4,523.5 254.1,541.1 254.1,561.75 254.1,568.1 254.8,574.2 256.2,579.95 256.25,580.25 256.35,580.55 256.45,580.9 258.9,603.25 271.15,622.55 293.2,638.9 318.5,657.65 349.05,667.05 384.8,667.05 420.55,667.05 451.1,657.65 476.35,638.9 495.25,624.9 507.1,608.75 511.9,590.45 511.9,590.4 511.9,590.3 511.95,590.2 512,590.4 512,590.6 512.05,590.75 516.85,609.05 528.7,625.2 547.6,639.2 572.85,657.95 603.4,667.35 639.15,667.35 674.9,667.35 705.45,657.95 730.75,639.2 752.8,622.85 765.05,603.55 767.5,581.2 767.6,580.85 767.7,580.55 767.75,580.25 769.15,574.5 769.85,568.4 769.85,562.05 769.85,541.4 762.55,523.8 747.95,509.25 740.8,502.1 732.95,496.75 724.35,493.1z"/>
      </g>
    </g>
  </g>
  <g id="Calque.__207">
    <g id="shape25">
      <path id="path16" fill="#FF9999" fill-opacity="1" d="M556.85,491.1 Q553.8,488.05 549.4,488.05 L474.7,488.05 C471.8,488.05 469.35,489.05 467.35,491.05 465.3,493.1 464.25,495.6 464.25,498.5 464.25,501.35 465.3,503.85 467.35,505.9 L504.65,543.25 C506.7,545.3 509.2,546.35 512.05,546.35 514.95,546.35 517.4,545.3 519.45,543.25 L556.85,505.9 C558.9,503.85 559.9,501.35 559.9,498.5 559.9,495.65 558.9,493.15 556.85,491.1z"/>
    </g>
  </g>
  <g id="circle3">
    <g id="shape27">
      <path id="path17" fill="#FFFFFF" fill-opacity="1" d="M354.8,537.3 C356.75,536.55 358.2,535.2 359.1,533.25 359.95,531.3 360.05,529.3 359.3,527.35 358.55,525.35 357.2,523.9 355.25,523.05 353.3,522.15 351.3,522.1 349.35,522.85 245.1,540.1 157.1,573.1 85.35,621.85 166.4,574.1 256.25,545.9 354.8,537.3z M352.1,623.75 C351.25,622.15 349.9,621.05 348.1,620.5 346.35,620 344.6,620.2 343.05,621.05 255.3,648.05 183.4,686.7 127.35,737 191.5,686.45 265.6,651.7 349.4,632.85 351,631.95 352.1,630.65 352.6,628.9 Q353.4,626.15 352.1,623.75z M424,563.55 C423.25,561.55 421.9,560.1 419.95,559.25 418,558.35 416,558.3 414.05,559.05 309.8,576.3 221.8,609.3 150.05,658.05 231.1,610.3 320.95,582.1 419.5,573.5 421.45,572.75 422.9,571.4 423.8,569.45 424.65,567.5 424.75,565.5 424,563.55z M668.15,524.25 C666.2,525.1 664.85,526.55 664.1,528.55 663.35,530.5 663.45,532.5 664.3,534.45 665.2,536.4 666.65,537.75 668.6,538.5 767.15,547.1 857,575.3 938.05,623.05 866.3,574.3 778.3,541.3 674.05,524.05 672.1,523.3 670.1,523.35 668.15,524.25z M675.3,621.7 C673.5,622.25 672.15,623.35 671.3,624.95 670.4,626.55 670.25,628.3 670.8,630.1 671.3,631.85 672.4,633.15 674,634.05 757.8,652.9 831.9,687.65 896.05,738.2 840,687.9 768.1,649.25 680.35,622.25 678.8,621.4 677.05,621.2 675.3,621.7z M603.45,560.45 C601.5,561.3 600.15,562.75 599.4,564.75 598.65,566.7 598.75,568.7 599.6,570.65 600.5,572.6 601.95,573.95 603.9,574.7 702.45,583.3 792.3,611.5 873.35,659.25 801.6,610.5 713.6,577.5 609.35,560.25 607.4,559.5 605.4,559.55 603.45,560.45z"/>
    </g>
  </g>
  <g id="ico-shadow">
    <g id="shape39">
      <path id="path28" fill="#FFFFFF" fill-opacity="1" d="M354.7,394.5 C349.85,389.65 343.95,387.2 337.05,387.2 330.15,387.2 324.25,389.65 319.4,394.5 314.55,399.35 312.1,405.25 312.1,412.15 312.1,419.05 314.55,424.95 319.4,429.8 324.25,434.65 330.15,437.1 337.05,437.1 343.95,437.1 349.85,434.65 354.7,429.8 359.55,424.95 362,419.05 362,412.15 362,405.25 359.55,399.35 354.7,394.5z M296.9,421.9 C295,423.8 294.05,426.1 294.05,428.8 294.05,431.5 295,433.8 296.9,435.7 298.8,437.6 301.1,438.55 303.8,438.55 306.5,438.55 308.8,437.6 310.7,435.7 312.6,433.8 313.55,431.5 313.55,428.8 313.55,426.1 312.6,423.8 310.7,421.9 308.8,420 306.5,419.05 303.8,419.05 301.1,419.05 298.8,420 296.9,421.9z M656.75,431 Q664.05,423.7 664.05,413.35 C664.05,406.45 661.6,400.55 656.75,395.7 651.9,390.85 646,388.4 639.1,388.4 632.2,388.4 626.3,390.85 621.45,395.7 616.6,400.55 614.15,406.45 614.15,413.35 614.15,420.25 616.6,426.15 621.45,431 626.3,435.85 632.2,438.3 639.1,438.3 646,438.3 651.9,435.85 656.75,431z M612.75,436.9 C614.65,435 615.6,432.7 615.6,430 615.6,427.3 614.65,425 612.75,423.1 610.85,421.2 608.55,420.25 605.85,420.25 603.15,420.25 600.85,421.2 598.95,423.1 597.05,425 596.1,427.3 596.1,430 596.1,432.7 597.05,435 598.95,436.9 600.85,438.8 603.15,439.75 605.85,439.75 608.55,439.75 610.85,438.8 612.75,436.9z"/>
    </g>
  </g>
  <g id="ico">
    <g id="shape47">
      <path id="path35" fill="#B9B9B9" fill-opacity="1" d="M318.3,516.55 C320.05,516.55 321.5,515.95 322.7,514.7 323.95,513.5 324.55,512.05 324.55,510.3 324.55,508.55 323.95,507.1 322.7,505.85 321.5,504.65 320.05,504.05 318.3,504.05 316.55,504.05 315.1,504.65 313.85,505.85 312.65,507.1 312.05,508.55 312.05,510.3 312.05,512.05 312.65,513.5 313.85,514.7 315.1,515.95 316.55,516.55 318.3,516.55z M304.1,571.1 C305.75,569.5 306.55,567.55 306.55,565.3 306.55,563.05 305.75,561.1 304.1,559.45 302.5,557.85 300.55,557.05 298.3,557.05 296.05,557.05 294.1,557.85 292.45,559.45 290.85,561.1 290.05,563.05 290.05,565.3 290.05,567.55 290.85,569.5 292.45,571.1 294.1,572.75 296.05,573.55 298.3,573.55 300.55,573.55 302.5,572.75 304.1,571.1z M416.3,590.05 C414.55,590.05 413.1,590.65 411.85,591.85 410.65,593.1 410.05,594.55 410.05,596.3 410.05,598.05 410.65,599.5 411.85,600.7 413.1,601.95 414.55,602.55 416.3,602.55 418.05,602.55 419.5,601.95 420.7,600.7 421.95,599.5 422.55,598.05 422.55,596.3 422.55,594.55 421.95,593.1 420.7,591.85 419.5,590.65 418.05,590.05 416.3,590.05z M365.55,606.55 C367.2,604.9 368.05,602.9 368.05,600.55 368.05,598.2 367.2,596.2 365.55,594.55 363.9,592.9 361.9,592.05 359.55,592.05 357.2,592.05 355.2,592.9 353.55,594.55 351.9,596.2 351.05,598.2 351.05,600.55 351.05,602.9 351.9,604.9 353.55,606.55 355.2,608.2 357.2,609.05 359.55,609.05 361.9,609.05 363.9,608.2 365.55,606.55z M379.8,642.05 C378.5,642.05 377.4,642.5 376.45,643.45 375.5,644.4 375.05,645.5 375.05,646.8 375.05,648.1 375.5,649.2 376.45,650.15 377.4,651.1 378.5,651.55 379.8,651.55 381.1,651.55 382.2,651.1 383.15,650.15 384.1,649.2 384.55,648.1 384.55,646.8 384.55,645.5 384.1,644.4 383.15,643.45 382.2,642.5 381.1,642.05 379.8,642.05z M401.4,543.4 C403.15,541.65 404.05,539.55 404.05,537.05 404.05,534.55 403.15,532.4 401.4,530.65 399.65,528.9 397.55,528.05 395.05,528.05 392.55,528.05 390.4,528.9 388.65,530.65 386.9,532.4 386.05,534.55 386.05,537.05 386.05,539.55 386.9,541.65 388.65,543.4 390.4,545.15 392.55,546.05 395.05,546.05 397.55,546.05 399.65,545.15 401.4,543.4z M703.6,505.9 Q701.75,507.75 701.75,510.35 C701.75,512.1 702.35,513.55 703.6,514.75 704.8,516 706.25,516.6 708,516.6 709.75,516.6 711.2,516 712.45,514.75 713.65,513.55 714.25,512.1 714.25,510.35 714.25,508.6 713.65,507.15 712.45,505.9 711.2,504.7 709.75,504.1 708,504.1 706.25,504.1 704.8,504.7 703.6,505.9z M719.75,565.35 C719.75,567.6 720.55,569.55 722.2,571.15 723.8,572.8 725.75,573.6 728,573.6 730.25,573.6 732.2,572.8 733.85,571.15 735.45,569.55 736.25,567.6 736.25,565.35 736.25,563.1 735.45,561.15 733.85,559.5 732.2,557.9 730.25,557.1 728,557.1 725.75,557.1 723.8,557.9 722.2,559.5 720.55,561.15 719.75,563.1 719.75,565.35z M660.75,606.6 C662.4,608.25 664.4,609.1 666.75,609.1 669.1,609.1 671.1,608.25 672.75,606.6 674.4,604.95 675.25,602.95 675.25,600.6 675.25,598.25 674.4,596.25 672.75,594.6 671.1,592.95 669.1,592.1 666.75,592.1 664.4,592.1 662.4,592.95 660.75,594.6 659.1,596.25 658.25,598.25 658.25,600.6 658.25,602.95 659.1,604.95 660.75,606.6z M649.85,650.2 C650.8,649.25 651.25,648.15 651.25,646.85 651.25,645.55 650.8,644.45 649.85,643.5 648.9,642.55 647.8,642.1 646.5,642.1 645.2,642.1 644.1,642.55 643.15,643.5 642.2,644.45 641.75,645.55 641.75,646.85 641.75,648.15 642.2,649.25 643.15,650.2 644.1,651.15 645.2,651.6 646.5,651.6 647.8,651.6 648.9,651.15 649.85,650.2z M622.25,537.1 C622.25,539.6 623.15,541.7 624.9,543.45 626.65,545.2 628.75,546.1 631.25,546.1 633.75,546.1 635.9,545.2 637.65,543.45 639.4,541.7 640.25,539.6 640.25,537.1 640.25,534.6 639.4,532.45 637.65,530.7 635.9,528.95 633.75,528.1 631.25,528.1 628.75,528.1 626.65,528.95 624.9,530.7 623.15,532.45 622.25,534.6 622.25,537.1z M614.45,591.9 C613.2,590.7 611.75,590.1 610,590.1 608.25,590.1 606.8,590.7 605.6,591.9 604.35,593.15 603.75,594.6 603.75,596.35 603.75,598.1 604.35,599.55 605.6,600.75 606.8,602 608.25,602.6 610,602.6 611.75,602.6 613.2,602 614.45,600.75 615.65,599.55 616.25,598.1 616.25,596.35 616.25,594.6 615.65,593.15 614.45,591.9z"/>
    </g>
  </g>
</svg>