
<svg xmlns="http://www.w3.org/2000/svg" version="1.1" xmlns:xlink="http://www.w3.org/1999/xlink" preserveAspectRatio="none" x="0px" y="0px" width="1024px" height="1024px" viewBox="0 0 1024 1024">
<defs>
<g id="Layer4_0_FILL">
<path fill="#000000" fill-opacity="0.09803921568627451" stroke="none" d="
M 969.6 351.25
Q 961 330.4 950.2 310.4 944.1 299.05 937.3 288 907.95 240.45 865.75 198.2 727.5 59.95 531.95 59.95 336.45 59.95 198.2 198.2 59.95 336.45 59.95 531.95 59.95 727.5 198.2 865.75 336.45 1003.95 531.95 1003.95 727.5 1003.95 865.75 865.75 941.9 789.55 976.1 696 1003.95 619.75 1003.95 531.95 1003.95 464.6 987.55 404 985.7 397.15 983.65 390.4 977.5 370.45 969.6 351.25 Z"/>
</g>

<g id="Layer2_0_FILL">
<path fill="#3B6CCE" stroke="none" d="
M 394.2 484.4
L 403.85 470.95 363.05 431 394.2 484.4
M 899.15 783.4
Q 901 780.7 902.9 778 918.25 755.7 930.8 732.15 939.60234375 715.21875 947.05 697.65
L 668.05 418.65 895.25 788.65 895.3 788.8
Q 897.25 786.1 899.15 783.4
M 627.25 489.35
L 645.85 456 656.35 438.3 514.8 296.75 627.25 489.35 Z"/>

<path fill="#FFFFFF" stroke="none" d="
M 668.05 418.65
L 656.35 438.3 645.85 456 668.05 559.15 627.25 489.35 514.8 296.75 511.7 291.45 415.35 454.8 437.85 559.15 394.2 484.4 363.05 431 356.05 419 128.75 788.45
Q 85.45 728.95 62.45 659.05 59.6 650.4 57 641.65 88.3 755.85 178.25 845.8 263.05 930.55 369.35 963.35 423.9 980.15 484.1 983.3 484.3 983.3 484.5 983.3 496.65 983.9 509 984 510.5 984 512 984 527.25 984 542.1 983.2 545.6 983 549.05 982.75 579.1 980.6 607.75 975.05 619.55 972.75 631.15 969.9 751.75 939.85 845.8 845.8 873.25 818.35 895.25 788.65
L 668.05 418.65 Z"/>

<path fill="#4984FB" stroke="none" d="
M 948.15 325.4
Q 912.2 240.3 846.7 174.65 781.25 109.05 696.35 73.05 608.35 35.7 512.05 35.7 415.7 35.7 327.75 73.05 247.115234375 107.2212890625 184.05 168.05 180.674609375 171.3177734375 177.35 174.65 159.9080078125 192.10546875 144.55 210.95 102.30625 262.8154296875 75.9 325.2 38.75 413.35 38.75 509.85 38.75 554.3 46.8 597.05 49.2 610.65 52.45 624.05 54.55 632.9 57 641.65 59.6 650.4 62.45 659.05 85.45 728.95 128.75 788.45
L 356.05 419 363.05 431 403.85 470.95 394.2 484.4 437.85 559.15 415.35 454.8 511.7 291.45 514.8 296.75 656.35 438.3 668.05 418.65 947.05 697.65
Q 955.1125 678.719921875 961.6 659.05 964.2 651.2 966.6 643.3 968.85 635.4 970.8 627.4 973.7 615.75 975.95 603.95 985.3 558 985.3 510.2 985.3 413.55 948.15 325.4
M 645.85 456
L 627.25 489.35 668.05 559.15 645.85 456 Z"/>

<path fill="#72E79F" stroke="none" d="
M 953.15 684
Q 960.9 664.05 966.6 643.3 964.2 651.2 961.6 659.05 955.1125 678.719921875 947.05 697.65 939.60234375 715.21875 930.8 732.15 939.91171875 715.42734375 947.4 698 950.410546875 691.0625 953.15 684 Z"/>
</g>

<g id="Layer2_1_FILL">
<path fill="#2C3038" stroke="none" d="
M 1008.5 464.45
Q 1003.5 464.45 999.95 468.05 996.45 471.6 996.45 476.55 996.45 481.5 999.95 485.05 1003.5 488.6 1008.5 488.6 1013.55 488.6 1017.05 485.1 1020.55 481.6 1020.55 476.55 1020.55 471.6 1017.05 468.05 1013.5 464.45 1008.5 464.45
M 1001.55 469.55
Q 1004.4 466.65 1008.5 466.65 1012.55 466.65 1015.4 469.55 1018.3 472.45 1018.3 476.55 1018.3 480.65 1015.4 483.55 1012.5 486.45 1008.5 486.45 1004.4 486.45 1001.55 483.55 998.7 480.65 998.7 476.55 998.7 472.45 1001.55 469.55
M 1009.3 469.6
L 1003.85 469.6 1003.85 483.35 1006.7 483.35 1006.7 478.35 1008.85 478.35 1011.35 483.35 1014.4 483.35 1011.55 477.9
Q 1014.2 476.65 1014.2 473.9 1014.2 471.8 1012.8 470.65 1011.5 469.6 1009.3 469.6
M 1006.7 475.75
L 1006.7 472.3 1009.05 472.3
Q 1011.25 472.3 1011.25 474 1011.25 474.85 1010.55 475.35 1009.95 475.75 1009.05 475.75
L 1006.7 475.75 Z"/>
</g>
</defs>

<g transform="matrix( 1, 0, 0, 1, 0,0) ">
<use xlink:href="#Layer4_0_FILL"/>
</g>

<g transform="matrix( 1, 0, 0, 1, 0,0) ">
<use xlink:href="#Layer2_0_FILL"/>
</g>

<g transform="matrix( 1, 0, 0, 1, 0.05,-0.15) ">
<use xlink:href="#Layer2_1_FILL"/>
</g>
</svg>
