
<svg xmlns="http://www.w3.org/2000/svg" version="1.1" xmlns:xlink="http://www.w3.org/1999/xlink" preserveAspectRatio="none" x="0px" y="0px" width="1024px" height="1024px" viewBox="0 0 1024 1024">
<defs>
<g id="Layer4_0_FILL">
<path fill="#000000" fill-opacity="0.09803921568627451" stroke="none" d="
M 969.6 351.25
Q 961 330.4 950.2 310.4 944.1 299.05 937.3 288 907.95 240.45 865.75 198.2 727.5 59.95 531.95 59.95 336.45 59.95 198.2 198.2 59.95 336.45 59.95 531.95 59.95 727.5 198.2 865.75 336.45 1003.95 531.95 1003.95 727.5 1003.95 865.75 865.75 941.9 789.55 976.1 696 1003.95 619.75 1003.95 531.95 1003.95 464.6 987.55 404 985.7 397.15 983.65 390.4 977.5 370.45 969.6 351.25 Z"/>
</g>

<g id="Layer3_0_FILL">
<path fill="#FFFFFF" stroke="none" d="
M 969.7 392
Q 967.95 385.15 966.05 378.4 964.52578125 373.114453125 962.85 367.85 960.3787109375 359.903125 957.6 352.05 947.85 324.5 934.45 298.4 928.65 287.05 922.15 276 891.5 224 845.8 178.25 736.8 69.25 592.15 46.2 567.65 42.3 542.1 40.85 527.2 40 512 40 497.9 40 484.1 40.75 306.55 49.95 178.25 178.25 40 316.5 40 512 40 707.55 178.25 845.8 263.0400390625 930.55703125 369.35 963.35 423.8880859375 980.1630859375 484.1 983.3 484.3 983.3 484.5 983.3 496.65 983.9 509 984 510.5 984 512 984 527.25 984 542.1 983.2 545.6 983 549.05 982.75 579.1 980.6 607.75 975.05 619.55 972.75 631.15 969.9 751.75 939.85 845.8 845.8 918.7 772.85 953.15 684 980.9 612.4 983.7 530.5 984 521.3 984 512 984 511 984 510 984 509.5 984 509 983.65 447.7 969.7 392 Z"/>
</g>

<g id="Layer2_0_FILL">
<path fill="#000000" fill-opacity="0.09803921568627451" stroke="none" d="
M 953.15 684
Q 971.63359375 636.308984375 979.05 584.05
L 639 244 541.45 301.45 484 244 390 324 442 376 234 476 286 528 228 625 582.25 979.25
Q 595.1478515625 977.4912109375 607.75 975.05 619.55 972.75 631.15 969.9 751.75 939.85 845.8 845.8 918.7 772.85 953.15 684 Z"/>
</g>

<g id="Layer0_0_MEMBER_0_MEMBER_0_FILL">
<path fill="#DE245C" stroke="none" d="
M 293.45 538.9
Q 279.1 553.25 279.1 573.45 279.1 593.65 293.45 608.05 307.85 622.4 328.05 622.4 348.25 622.4 362.6 608.05 376.95 593.65 376.95 573.45
L 376.95 524.55 328.05 524.55
Q 307.85 524.55 293.45 538.9 Z"/>
</g>

<g id="Layer0_0_MEMBER_0_MEMBER_1_FILL">
<path fill="#DE245C" stroke="none" d="
M 485.1 538.9
Q 470.75 524.55 450.55 524.55 430.35 524.55 415.95 538.9 401.6 553.25 401.6 573.45
L 401.6 695.95
Q 401.6 716.15 415.95 730.55 430.35 744.9 450.55 744.9 470.75 744.9 485.1 730.55 499.45 716.15 499.45 695.95
L 499.45 573.45
Q 499.45 553.3 485.1 538.9 Z"/>
</g>

<g id="Layer0_0_MEMBER_1_MEMBER_0_FILL">
<path fill="#40C6EE" stroke="none" d="
M 485.1 293.5
Q 470.75 279.15 450.55 279.15 430.35 279.15 415.95 293.5 401.6 307.9 401.6 328.1 401.6 348.3 415.95 362.65 430.35 377 450.55 377
L 499.45 377 499.45 328.1
Q 499.45 307.9 485.1 293.5 Z"/>
</g>

<g id="Layer0_0_MEMBER_1_MEMBER_1_FILL">
<path fill="#40C6EE" stroke="none" d="
M 293.45 416
Q 279.1 430.4 279.1 450.6 279.1 470.8 293.45 485.15 307.85 499.5 328.05 499.5
L 450.55 499.5
Q 470.75 499.5 485.1 485.15 499.45 470.8 499.45 450.6 499.45 430.4 485.1 416 470.75 401.65 450.55 401.65
L 328.05 401.65
Q 307.85 401.65 293.45 416 Z"/>
</g>

<g id="Layer0_0_MEMBER_2_MEMBER_0_FILL">
<path fill="#37B57E" stroke="none" d="
M 730.5 485.15
Q 744.85 470.8 744.85 450.6 744.85 430.4 730.5 416 716.1 401.65 695.9 401.65 675.7 401.65 661.35 416 647 430.4 647 450.6
L 647 499.5 695.9 499.5
Q 716.1 499.5 730.5 485.15 Z"/>
</g>

<g id="Layer0_0_MEMBER_2_MEMBER_1_FILL">
<path fill="#37B57E" stroke="none" d="
M 608 293.5
Q 593.6 279.15 573.4 279.15 553.2 279.15 538.85 293.5 524.5 307.9 524.5 328.1
L 524.5 450.6
Q 524.5 470.8 538.85 485.15 553.25 499.5 573.4 499.5 593.6 499.5 608 485.15 622.35 470.8 622.35 450.6
L 622.35 328.1
Q 622.35 307.9 608 293.5 Z"/>
</g>

<g id="Layer0_0_MEMBER_3_MEMBER_0_FILL">
<path fill="#EBB13E" stroke="none" d="
M 608 661.4
Q 593.6 647.05 573.4 647.05
L 524.5 647.05 524.5 695.95
Q 524.5 716.15 538.85 730.55 553.2 744.9 573.4 744.9 593.6 744.9 608 730.55 622.35 716.15 622.35 695.95 622.35 675.75 608 661.4 Z"/>
</g>

<g id="Layer0_0_MEMBER_3_MEMBER_1_FILL">
<path fill="#EBB13E" stroke="none" d="
M 744.85 573.45
Q 744.85 553.25 730.5 538.9 716.1 524.55 695.9 524.55
L 573.4 524.55
Q 553.25 524.55 538.85 538.9 524.5 553.3 524.5 573.45 524.5 593.65 538.85 608.05 553.2 622.4 573.4 622.4
L 695.9 622.4
Q 716.1 622.4 730.5 608.05 744.85 593.65 744.85 573.45 Z"/>
</g>
</defs>

<g transform="matrix( 1, 0, 0, 1, 0,0) ">
<use xlink:href="#Layer4_0_FILL"/>
</g>

<g transform="matrix( 1, 0, 0, 1, 0,0) ">
<use xlink:href="#Layer3_0_FILL"/>
</g>

<g transform="matrix( 1, 0, 0, 1, 0,0) ">
<use xlink:href="#Layer2_0_FILL"/>
</g>

<g transform="matrix( 1.258056640625, 0, 0, 1.258056640625, -132,-132.15) ">
<use xlink:href="#Layer0_0_MEMBER_0_MEMBER_0_FILL"/>
</g>

<g transform="matrix( 1.258056640625, 0, 0, 1.258056640625, -132,-132.15) ">
<use xlink:href="#Layer0_0_MEMBER_0_MEMBER_1_FILL"/>
</g>

<g transform="matrix( 1.258056640625, 0, 0, 1.258056640625, -132,-132.15) ">
<use xlink:href="#Layer0_0_MEMBER_1_MEMBER_0_FILL"/>
</g>

<g transform="matrix( 1.258056640625, 0, 0, 1.258056640625, -132,-132.15) ">
<use xlink:href="#Layer0_0_MEMBER_1_MEMBER_1_FILL"/>
</g>

<g transform="matrix( 1.258056640625, 0, 0, 1.258056640625, -132,-132.15) ">
<use xlink:href="#Layer0_0_MEMBER_2_MEMBER_0_FILL"/>
</g>

<g transform="matrix( 1.258056640625, 0, 0, 1.258056640625, -132,-132.15) ">
<use xlink:href="#Layer0_0_MEMBER_2_MEMBER_1_FILL"/>
</g>

<g transform="matrix( 1.258056640625, 0, 0, 1.258056640625, -132,-132.15) ">
<use xlink:href="#Layer0_0_MEMBER_3_MEMBER_0_FILL"/>
</g>

<g transform="matrix( 1.258056640625, 0, 0, 1.258056640625, -132,-132.15) ">
<use xlink:href="#Layer0_0_MEMBER_3_MEMBER_1_FILL"/>
</g>
</svg>
