<?xml version="1.0" encoding="utf-8"?>
<!-- Generator: flash2svg, http://dissentgraphics.com/tools/flash2svg -->
<svg id="Sublime-Text" image-rendering="optimizeSpeed" baseProfile="basic" version="1.1" style="background-color:#FFFFFF" x="0px" y="0px" width="1024px" height="1024px" viewBox="0 0 1024 1024" enable-background="new 0 0 1024 1024" xmlns="http://www.w3.org/2000/svg" xmlns:xlink="http://www.w3.org/1999/xlink">
  <defs transform="matrix(1 0 0 1 0 0) "/>
  <g id="shadow">
    <g id="shape">
      <path id="path" fill="#000000" fill-opacity="0.09803921568627451" d="M969.6,351.25 Q961,330.4 950.2,310.4 C946.15,302.85 941.85,295.35 937.3,288 917.75,256.3 893.9,226.35 865.75,198.2 773.6,106.05 662.3,59.95 531.95,59.95 401.6,59.95 290.35,106.05 198.2,198.2 106.05,290.35 59.95,401.6 59.95,531.95 59.95,662.3 106.05,773.6 198.2,865.75 290.35,957.9 401.6,1003.95 531.95,1003.95 662.3,1003.95 773.6,957.9 865.75,865.75 916.5,814.95 953.3,758.35 976.1,696 994.65,645.15 1003.95,590.5 1003.95,531.95 1003.95,487.05 998.5,444.4 987.55,404 986.3,399.45 985,394.9 983.65,390.4 979.55,377.1 974.85,364.05 969.6,351.25z"/>
    </g>
  </g>
  <g id="circle">
    <g id="shape2">
      <path id="path1" fill="#CCCAC2" fill-opacity="1" d="M966.05,378.4 C963.55,369.65 960.7,360.8 957.6,352.05 951.15,333.8 943.45,316 934.45,298.4 930.65,291 926.5,283.45 922.15,276 901.85,241.5 876.35,208.8 845.8,178.25 773.2,105.65 688.65,61.6 592.15,46.2 575.9,43.6 559.35,41.8 542.1,40.85 532.4,40.3 522.25,40 512,40 502.65,40 493.4,40.25 484.1,40.75 365.75,46.85 263.8,92.7 178.25,178.25 86.1,270.4 40,381.65 40,512 40,642.35 86.1,753.65 178.25,845.8 263.8,931.3 365.75,977.15 484.1,983.3 484.25,983.3 484.35,983.3 484.5,983.3 487.9,983.5 491.25,983.65 494.1,983.7 499.45,983.9 504.25,984 509,984 510.2,984 511.1,984 512,984 522.3,984 532.5,983.7 542.1,983.2 544.6,983.05 546.85,982.9 549.05,982.75 569.25,981.3 588.95,978.7 607.75,975.05 615.7,973.5 623.55,971.75 631.15,969.9 632.1,969.65 633.05,969.4 633.8,969.25 713.65,948.6 784.05,907.55 845.8,845.8 894.4,797.2 930.2,743.3 953.15,684 959.8,666.85 965.4,649.2 969.95,631 977.9,599 982.5,565.5 983.7,530.5 983.9,524.45 984,518.25 984,512 984,511.35 984,510.65 984,510 984,509.65 984,509.35 984,509 983.95,501.8 983.75,494.7 983.45,487.4 981.95,454.65 977.4,422.85 969.7,392 968.6,387.65 967.35,383 966.05,378.4z M895.9,559.8 C886.15,646.15 849.25,721.35 785.3,785.3 721.95,848.65 647.55,885.45 562.15,895.6 561.55,895.65 560.95,895.75 560.35,895.8 544.75,897.6 528.55,898.5 512,898.5 405.25,898.5 314.15,860.75 238.7,785.3 163.25,709.85 125.5,618.75 125.5,512 125.5,405.25 163.25,314.15 238.7,238.7 314.15,163.25 405.25,125.5 512,125.5 618.75,125.5 709.85,163.25 785.3,238.7 860.75,314.15 898.5,405.25 898.5,512 898.5,527.45 897.7,542.55 896.15,557.2 896.1,557.75 896.05,558.35 896,558.9 895.95,559.15 895.95,559.45 895.9,559.8z"/>
      <path id="path2" fill="#EDECE3" fill-opacity="1" d="M895.9,559.8 C895.95,559.45 895.95,559.15 896,558.9 896.05,558.35 896.1,557.75 896.15,557.2 897.7,542.55 898.5,527.45 898.5,512 898.5,405.25 860.75,314.15 785.3,238.7 709.85,163.25 618.75,125.5 512,125.5 405.25,125.5 314.15,163.25 238.7,238.7 163.25,314.15 125.5,405.25 125.5,512 125.5,618.75 163.25,709.85 238.7,785.3 314.15,860.75 405.25,898.5 512,898.5 528.55,898.5 544.75,897.6 560.35,895.8 560.95,895.75 561.55,895.65 562.15,895.6 647.55,885.45 721.95,848.65 785.3,785.3 849.25,721.35 886.15,646.15 895.9,559.8z M862.6,526.5 C859.3,617.05 825.1,694.9 760,760 696.45,823.55 620.7,857.6 532.1,862.3 531.05,862.35 530.05,862.45 529.05,862.5 528.4,862.5 527.75,862.5 527.1,862.55 522.55,862.7 517.55,862.8 512.5,862.8 512.35,862.75 512.25,862.8 512,862.8 511.35,862.8 510.75,862.8 510.1,862.8 507.6,862.75 505.1,862.7 502.65,862.65 409.85,860.45 330.3,826.25 264,760 195.5,691.5 161.25,608.8 161.25,512 161.25,415.15 195.55,332.45 264,264 330.3,197.7 409.9,163.5 502.65,161.35 505.1,161.3 507.55,161.25 510.1,161.25 510.75,161.25 511.4,161.25 512.05,161.25 512.25,161.25 512.35,161.25 512.55,161.3 519.2,161.3 525.8,161.45 532.1,161.8 620.4,166.2 696.3,200.3 760,264 828.45,332.45 862.75,415.15 862.8,512.05 Q862.8,517.914 862.65,523.7 C862.65,524.3 862.65,524.9 862.6,525.5 862.6,525.6 862.6,525.7 862.6,525.75 862.55,525.8 862.55,525.9 862.6,526 862.6,526.15 862.6,526.35 862.6,526.5z"/>
      <path id="path5" fill="#32302F" fill-opacity="1" d="M862.6,526.5 C862.6,526.35 862.6,526.15 862.6,526 862.55,525.9 862.55,525.8 862.6,525.75 862.6,525.7 862.6,525.6 862.6,525.5 862.65,524.9 862.65,524.3 862.65,523.7 Q862.8,517.914 862.8,512.05 C862.75,415.15 828.45,332.45 760,264 696.3,200.3 620.4,166.2 532.1,161.8 525.8,161.45 519.2,161.3 512.55,161.3 512.35,161.25 512.25,161.25 512.05,161.25 511.4,161.25 510.75,161.25 510.1,161.25 507.55,161.25 505.1,161.3 502.65,161.35 409.9,163.5 330.3,197.7 264,264 195.55,332.45 161.25,415.15 161.25,512 161.25,608.8 195.5,691.5 264,760 330.3,826.25 409.85,860.45 502.65,862.65 505.1,862.7 507.6,862.75 510.1,862.8 510.75,862.8 511.35,862.8 512,862.8 512.25,862.8 512.35,862.75 512.5,862.8 517.55,862.8 522.55,862.7 527.1,862.55 527.75,862.5 528.4,862.5 529.05,862.5 530.05,862.45 531.05,862.35 532.1,862.3 620.7,857.6 696.45,823.55 760,760 825.1,694.9 859.3,617.05 862.6,526.5z"/>
    </g>
  </g>
  <g id="ico-shadow">
    <g id="shape10">
      <path id="path8" fill="#000000" fill-opacity="0.2" d="M760,760 C825.1,694.9 859.3,617.05 862.6,526.5 L862.575,526.475 L693.65,357.55 532.1,339.85 435.25,412.1 588.4,640.95 374.55,708 529.025,862.475 L529.05,862.5 C530.05,862.45 531.05,862.35 532.1,862.3 Q664.45,855.55 760,760z"/>
    </g>
  </g>
  <g id="ico">
    <g id="Symbole.__206_1" overflow="visible">
      <g id="Calque.__204">
        <g id="shape17">
          <path id="path12" fill="#FFCC33" fill-opacity="1" d="M668.35,331.55 C668,331 667.55,330.45 667.05,330.05 636.95,306.55 612.95,290 594.95,280.35 594.95,280.25 594.9,280.15 594.85,280.1 594.2,278.85 593.1,277.9 591.85,277.35 565.2,265.8 539.3,261.6 514,264.85 513.35,264.95 512.65,265.05 512,265.15 494.55,267.65 477.4,273.7 460.65,283.35 433.95,298.7 413.95,318.75 400.85,343.4 400.1,344.8 399.35,346.2 398.65,347.65 398.6,347.8 398.5,347.95 398.45,348.1 394.55,356.05 391.45,364.25 388.9,372.9 387.95,376.1 387.1,379.3 386.45,382.45 385.85,384.85 385.4,387.1 384.95,389.4 L384.95,389.45 C384.95,389.55 384.9,389.7 384.85,389.85 L384.85,389.9 384.8,389.95 C383.1,397.4 382.75,405.6 383.9,414.45 383.95,414.5 383.95,414.5 383.95,414.55 383.9,414.65 383.9,414.7 383.9,414.8 L383.9,414.9 C384.3,422.4 385.25,429.65 386.65,436.2 389.45,448.95 393.95,460.4 400.25,470.85 408.05,483.8 418.4,495.25 431.4,505.3 434.7,507.85 437.8,510.1 441.05,512.25 L489.45,551.3 C497.5,557.6 505,564.2 512,571.05 512.65,571.7 513.35,572.4 514,573.05 521.25,580.3 527.8,587.7 533.85,595.4 540.55,610.45 542.15,623.45 538.6,634.4 538.55,634.6 538.55,634.7 538.5,634.85 535.15,643.9 528.15,651.65 517.35,658.05 516.35,658.65 515.2,659.3 514,659.95 513.35,660.3 512.65,660.6 512,660.95 511.75,661.1 511.55,661.2 511.3,661.3 503.75,663.05 496.35,663.35 489.2,662.15 489.15,662.1 489.1,662.1 489.1,662.15 488.9,662.1 488.75,662.05 488.55,662.05 481.1,660.7 474.05,657.9 467.25,653.6 465.3,652.3 463.35,651 461.3,649.6 451.1,642.6 441.35,634.95 432.2,626.8 430.35,625.15 428.45,623.4 426.55,621.65 426.4,621.5 426.25,621.35 426.1,621.25 L410.85,609.65 C410.8,609.65 410.8,609.65 410.75,609.6 410.75,609.55 410.75,609.55 410.7,609.55 406.15,606.25 401.7,603.95 397.15,602.6 388.2,599.8 379.6,601.35 371.65,607.3 369.3,608.95 367.15,610.9 365.05,613.2 365,613.2 365,613.2 365,613.25 L364.9,613.35 C364.9,613.35 364.8,613.45 364.8,613.5 L344.5,637.05 C344.35,637.2 344.2,637.5 344,637.75 332.95,655.05 333.8,669.8 346.55,682.05 346.6,682.1 346.65,682.1 346.65,682.15 346.8,682.25 346.95,682.35 347.1,682.55 L359.5,692.65 C377.4,710.3 398,725.75 421.25,738.95 421.85,740.2 422.8,741.2 424,741.8 453.55,757.35 482.85,763.5 512,760.25 512.65,760.2 513.35,760.1 514,760 529.1,758.1 544.1,753.65 559.05,746.7 581.65,736.25 599.8,721.9 613.55,703.65 620.6,694.2 626.5,683.8 631.25,672.4 631.3,672.25 631.35,672.15 631.4,672 632.05,670.4 632.65,668.8 633.3,667.15 636.55,658.35 639.2,648.95 641.15,638.95 L641.2,638.9 641.15,638.85 C641.2,638.8 641.2,638.8 641.25,638.75 L641.25,638.7 641.35,638.1 C641.4,638 641.4,637.9 641.4,637.85 L641.4,637.8 C641.4,637.65 641.4,637.55 641.45,637.5 L641.45,637.45 642.9,614.4 C642.9,614.3 642.9,614.3 642.85,614.2 642.85,614 642.95,613.8 642.9,613.55 642.25,604.1 640.75,595.15 638.35,586.3 635.55,576.25 631.5,566.55 626.25,557.5 616.65,540.55 602.9,525.8 585.25,513.25 L537,473.2 C536.9,473.1 536.85,473.05 536.8,473.05 L536.75,473 C536.6,472.85 536.45,472.8 536.25,472.7 536.2,472.65 536.1,472.6 536.05,472.6 528.4,467.45 521.1,461.85 514,455.75 513.35,455.2 512.65,454.6 512,454 506,448.65 500.3,443 494.65,436.75 493.55,435.55 492.25,434.1 490.95,432.6 489.35,428.65 488.05,424.85 487.1,420.95 484.35,410.2 484.7,400.55 488.15,392.25 492.3,383.25 500.25,375.75 512,369.8 512.65,369.45 513.35,369.15 514,368.85 515.75,368 517.65,367.15 519.65,366.35 551.5,368.05 578.45,381.15 600.55,405.65 L600.6,405.7 C600.65,405.75 600.65,405.75 600.7,405.8 600.85,406 601,406.1 601.15,406.3 L615.45,418 C615.5,418.05 615.55,418.05 615.6,418.1 L615.65,418.15 C620.65,421.85 625.55,424.25 630,425.3 641.15,428 651.4,424.35 661.15,414.45 661.2,414.4 661.25,414.4 661.25,414.35 L661.35,414.25 C661.4,414.2 661.4,414.2 661.45,414.15 661.45,414.1 661.45,414.1 661.5,414.1 L683.1,390.55 C683.2,390.4 683.3,390.3 683.4,390.2 697.35,372.85 696.5,356.7 680.85,341.9 680.8,341.85 680.8,341.85 680.75,341.8 L680.7,341.75 C680.6,341.65 680.5,341.6 680.45,341.55 L668.35,331.55z"/>
        </g>
        <g id="Symbole.__208_2" overflow="visible">
          <g id="Calque.__205">
            <g id="shape18">
              <path id="path13" fill="#FFFFFF" fill-opacity="1" d="M403.534,240.339 L403.534,240.02 403.517,240.188 403.483,240.02 403.483,240.339 389.396,326.879 302.839,340.966 302.52,340.966 302.688,341 302.52,341.017 302.839,341.017 389.396,355.104 403.483,441.661 403.483,441.98 403.517,441.812 403.534,441.98 403.534,441.661 417.621,355.104 504.161,341.017 504.48,341.017 504.312,341 504.48,340.966 504.161,340.966 417.621,326.879 403.534,240.339z"/>
            </g>
          </g>
        </g>
      </g>
    </g>
  </g>
</svg>