
<svg xmlns="http://www.w3.org/2000/svg" version="1.1" xmlns:xlink="http://www.w3.org/1999/xlink" preserveAspectRatio="none" x="0px" y="0px" width="1024px" height="1024px" viewBox="0 0 1024 1024">
<defs>
<g id="Layer4_0_FILL">
<path fill="#000000" fill-opacity="0.09803921568627451" stroke="none" d="
M 965.6 347.25
Q 957 326.4 946.2 306.4 940.1 295.05 933.3 284 903.95 236.45 861.75 194.2 723.5 55.95 527.95 55.95 332.45 55.95 194.2 194.2 55.95 332.45 55.95 527.95 55.95 723.5 194.2 861.75 332.45 999.95 527.95 999.95 723.5 999.95 861.75 861.75 937.9 785.55 972.1 692 999.95 615.75 999.95 527.95 999.95 460.6 983.55 400 981.7 393.15 979.65 386.4 973.5 366.45 965.6 347.25 Z"/>
</g>

<g id="Layer3_0_FILL">
<path fill="#9E4F00" stroke="none" d="
M 951.9 691.05
Q 961.8728515625 666.5046875 968.85 640.7 985.4 579.916796875 985.4 512.25 985.4 316.45 846.95 178 708.5 39.55 512.65 39.55 316.85 39.55 178.4 178 39.95 316.45 39.95 512.25 39.95 708.1 178.4 846.55 301.65 969.85 470.35 983.3 491.15 985 512.65 985 523.74609375 985 534.65 984.55 716.3439453125 977.1560546875 846.95 846.55 917.3 776.2 951.9 691.05 Z"/>
</g>

<g id="Layer2_0_FILL">
<path fill="#000000" fill-opacity="0.2" stroke="none" d="
M 951.9 691.05
Q 961.8728515625 666.5046875 968.85 640.7 974.552734375 619.832421875 978.25 598.1
L 750.15 370 775.6 495.1 754 596 582 424 359.8 343.55 255.1 443.75 312 694 596.25 978.25
Q 739.041015625 954.458984375 846.95 846.55 917.3 776.2 951.9 691.05 Z"/>
</g>

<g id="Symbole_5_0_Layer0_0_FILL">
<path fill="#FFFFFF" stroke="none" d="
M 444.25 225.85
Q 444.25 210 432.85 198.6
L 329.25 94.95
Q 273.5 39.25 194.75 38.35 115.95 37.15 58.75 91.05
L 56.65 92.55 55.45 93.75 54.55 94.95
Q 53.05 96.45 52.75 97.05 -1.15 154.25 0.05 232.75 0.95 311.8 56.65 367.55
L 160.3 471.15
Q 171.65 482.55 187.55 482.55 203.4 482.55 214.5 471.15 225.9 459.8 225.9 443.9 225.9 428.35 214.5 416.95
L 110.85 313
Q 77 279.15 76.7 230.95 76.4 182.7 109.95 148.55 144.4 115 192.95 115.3 241.15 115.3 275 149.15
L 378.65 252.8
Q 390.05 264.2 405.9 264.2 421.5 264.2 432.85 252.8 444.25 241.45 444.25 225.85
M 436.15 0
Q 420 0 408.9 11.4 397.8 22.75 397.8 38.35 397.8 54.2 408.9 65.6
L 512.85 169.25
Q 546.7 203.1 547 251.3 547.3 299.55 513.75 333.7 479.6 367.25 431.65 366.95 383.45 366.95 349.3 332.8
L 245.65 228.85
Q 234.3 217.75 218.4 217.75 202.8 217.75 191.45 228.85 180.05 240.25 180.05 256.1 180.05 272 191.45 283.35
L 295.1 387
Q 350.8 442.7 429.55 443.6 508.35 444.8 565.25 390.9
L 567.65 389.1 569.75 387 571.25 384.9
Q 625.15 327.7 624.25 249.2 623.35 170.15 567.65 115
L 464 11.4
Q 452.05 0 436.15 0 Z"/>
</g>
</defs>

<g transform="matrix( 1, 0, 0, 1, 0,0) ">
<use xlink:href="#Layer4_0_FILL"/>
</g>

<g transform="matrix( 1, 0, 0, 1, 0,0) ">
<use xlink:href="#Layer3_0_FILL"/>
</g>

<g transform="matrix( 1, 0, 0, 1, 0,0) ">
<use xlink:href="#Layer2_0_FILL"/>
</g>

<g transform="matrix( 1, 0, 0, 1, 199.9,270.75) ">
<g transform="matrix( 1, 0, 0, 1, 0,0) ">
<use xlink:href="#Symbole_5_0_Layer0_0_FILL"/>
</g>
</g>
</svg>
