<?xml version="1.0" encoding="utf-8"?>
<!-- Generator: flash2svg, http://dissentgraphics.com/tools/flash2svg -->
<svg xmlns:xlink="http://www.w3.org/1999/xlink" id="Apps-NylasN1" image-rendering="optimizeSpeed" baseProfile="basic" version="1.1" style="background-color:#ffffff" x="0px" y="0px" width="1024px" height="1024px" viewBox="0 0 1024 1024" enable-background="new 0 0 1024 1024" xmlns="http://www.w3.org/2000/svg">
  <defs transform="matrix(1 0 0 1 0 0) "/>
  <g id="shadow">
    <g id="shape">
      <path id="path" fill="#000000" fill-opacity="0.09803921568627451" d="M965.65,350.3 Q957.05,329.45 946.25,309.45 C942.2,301.9 937.9,294.4 933.35,287.05 913.8,255.35 889.95,225.4 861.8,197.25 769.65,105.1 658.35,59 528,59 397.65,59 286.4,105.1 194.25,197.25 102.1,289.4 56,400.65 56,531 56,661.35 102.1,772.65 194.25,864.8 286.4,956.95 397.65,1003 528,1003 658.35,1003 769.65,956.95 861.8,864.8 912.55,814 949.35,757.4 972.15,695.05 990.7,644.2 1000,589.55 1000,531 1000,486.1 994.55,443.45 983.6,403.05 982.35,398.5 981.05,393.95 979.7,389.45 975.6,376.15 970.9,363.1 965.65,350.3z"/>
    </g>
  </g>
  <g id="circle">
    <g id="shape2">
      <path id="path1" fill="#FFFFFF" fill-opacity="1" d="M845.85,178.35 L845.8,178.3 C753.6,86.1 642.35,40.05 512.05,40.05 Q316.55,40.05 178.3,178.3 L178.2,178.4 C86.1,270.55 40.05,381.75 40.05,512.05 40,608.3 65.2,694.15 115.15,769.15 133.25,796.25 154.2,821.65 178.3,845.8 178.8,846.3 179.35,846.85 179.75,847.25 L513.4,513.6 512,512.2 845.85,178.35z"/>
      <path id="path2" fill="#F6F6F6" fill-opacity="1" d="M961.8,659.7 C964.35,651.75 966.75,643.5 968.95,635.15 979,596.4 984.05,555.25 984.05,512.05 984.05,381.75 938.05,270.5 845.85,178.35 L512,512.2 513.4,513.6 179.75,847.25 C271.75,938.5 382.5,984.1 512.05,984.05 580.8,984.05 644.2,971.3 702.4,945.55 745.5,926.55 785.65,900.45 823.05,867.25 830.2,860.9 837.25,854.35 844.3,847.3 844.75,846.85 845.3,846.3 845.8,845.8 875.35,816.25 900.15,784.75 920.55,750.8 922.85,746.95 925.25,742.75 927.6,738.6 932,730.65 936.25,722.35 940.25,714 948.55,696.55 955.7,678.5 961.8,659.7z"/>
    </g>
  </g>
  <g id="inner-circle">
    <g id="shape6">
      <path id="path3" fill="#6ACE8D" fill-opacity="1" d="M765.4,258.8 L765.35,258.75 C695.35,188.75 611,153.8 512.1,153.8 413.1,153.8 328.75,188.75 258.75,258.75 188.8,328.7 153.8,413.1 153.85,512 153.85,610.95 188.8,695.3 258.8,765.3 L258.85,765.35 765.4,258.8z"/>
      <path id="path4" fill="#27A6A8" fill-opacity="1" d="M869.6,535.8 C870.05,528.05 870.3,520.05 870.3,512.05 870.25,413.15 835.3,328.8 765.4,258.8 L258.85,765.35 C286.35,792.8 316.05,814.95 348,831.6 397.6,857.4 452.15,870.25 512.05,870.25 547.7,870.25 581.45,865.65 613.4,856.6 Q698.2,832.4 765.3,765.3 C772.65,757.95 779.6,750.5 786.25,742.8 793.2,734.6 799.8,726.25 805.95,717.65 817.65,701.45 827.75,684.5 836.35,666.65 855.65,626.75 866.8,583.1 869.6,535.8z"/>
    </g>
  </g>
  <g id="ico-shadow">
    <g id="shape10">
      <path id="path5" fill="#000000" fill-opacity="0.2" d="M869.6,535.8 C870.05,528.05 870.3,520.05 870.3,512.05 870.3,497.85 869.55,483.95 868.1,470.2 L725.75,327.85 543.175,383.275 492.05,332.15 298.35,387 355.05,443.7 298.35,544.4 355.05,601.1 298.35,695 471.575,868.225 L471.6,868.25 C485.05,869.6 498.4,870.25 512.05,870.25 547.7,870.25 581.45,865.65 613.4,856.6 Q698.2,832.4 765.3,765.3 C772.65,757.95 779.6,750.5 786.25,742.8 793.2,734.6 799.8,726.25 805.95,717.65 817.65,701.45 827.75,684.5 836.35,666.65 855.65,626.75 866.8,583.1 869.6,535.8z"/>
    </g>
  </g>
  <g id="ico">
    <g id="shape12">
      <path id="path6" fill="#FFFFFF" fill-opacity="1" d="M725.75,601.25 L725.75,483.85 534.05,426.05 534.05,543.45 725.75,601.25z M298.35,427 L298.35,544.4 494.05,603.45 494.05,486.05 298.35,427z"/>
      <path id="path7" fill="#F6F6F6" fill-opacity="1" d="M725.75,443.85 L725.75,327.85 534.05,270.05 534.05,386.05 725.75,443.85z M298.35,584.4 L298.35,695 494.05,754.05 494.05,643.45 298.35,584.4z M357.3,288.8 C354.1,288.15 350.65,287.8 347.05,287.8 337.5,287.8 328.95,290.2 321.35,294.95 318.15,296.95 315.15,299.35 312.3,302.2 304.35,310.15 299.7,319.45 298.35,329.9 L298.35,329.875 L298.35,387 494.05,446.05 494.05,330.05 357.3,288.8z M725.75,691.3 L725.75,641.25 534.05,583.45 534.05,694.05 668.25,734.525 L668.25,734.55 C671.25,735 674,735.2 676.85,735.2 690.4,735.2 702,730.4 711.6,720.8 719.95,712.45 724.65,702.65 725.75,691.3z"/>
    </g>
  </g>
</svg>