<?xml version="1.0" encoding="utf-8"?>
<!-- Generator: flash2svg, http://dissentgraphics.com/tools/flash2svg -->
<svg id="Apps-PhotoBulk" image-rendering="optimizeSpeed" baseProfile="basic" version="1.1" style="background-color:#FFFFFF" x="0px" y="0px" width="1024px" height="1024px" viewBox="0 0 1024 1024" enable-background="new 0 0 1024 1024" xmlns="http://www.w3.org/2000/svg" xmlns:xlink="http://www.w3.org/1999/xlink">
  <defs transform="matrix(1 0 0 1 0 0) "/>
  <g id="background-circle-shadow">
    <g id="shape">
      <path id="path" fill="#000000" fill-opacity="0.09803921568627451" d="M969.6,351.25 Q961,330.4 950.2,310.4 C946.15,302.85 941.85,295.35 937.3,288 917.75,256.3 893.9,226.35 865.75,198.2 773.6,106.05 662.3,59.95 531.95,59.95 401.6,59.95 290.35,106.05 198.2,198.2 106.05,290.35 59.95,401.6 59.95,531.95 59.95,662.3 106.05,773.6 198.2,865.75 290.35,957.9 401.6,1003.95 531.95,1003.95 662.3,1003.95 773.6,957.9 865.75,865.75 916.5,814.95 953.3,758.35 976.1,696 994.65,645.15 1003.95,590.5 1003.95,531.95 1003.95,487.05 998.5,444.4 987.55,404 986.3,399.45 985,394.9 983.65,390.4 979.55,377.1 974.85,364.05 969.6,351.25z"/>
    </g>
  </g>
  <g id="background-circle">
    <g id="shape2">
      <path id="path1" fill="#3A6A73" fill-opacity="1" d="M969.7,392 C968.6,387.65 967.35,383 966.05,378.4 965.05,375 964.05,371.55 962.9,367.9 961.3,362.75 959.5,357.4 957.6,352.05 951.15,333.8 943.45,316 934.45,298.4 930.65,291 926.5,283.45 922.15,276 901.85,241.5 876.35,208.8 845.8,178.25 773.2,105.65 688.65,61.6 592.15,46.2 575.9,43.6 559.35,41.8 542.1,40.85 532.4,40.3 522.25,40 512,40 502.65,40 493.4,40.25 484.1,40.75 365.75,46.85 263.8,92.7 178.25,178.25 Q40,316.5 40,512 C40,642.35 86.1,753.65 178.25,845.8 234.95,902.45 298.8,941.7 369.35,963.35 406.1,974.6 444.15,981.2 484.1,983.3 484.25,983.3 484.35,983.3 484.5,983.3 493,983.75 501.1,984 509,984 510.2,984 511.1,984 512,984 522.3,984 532.5,983.7 542.1,983.2 544.6,983.05 546.85,982.9 549.05,982.75 569.25,981.3 588.95,978.7 607.75,975.05 615.7,973.5 623.55,971.75 631.15,969.9 711.95,949.6 783.3,908.3 845.8,845.8 894.4,797.2 930.2,743.3 953.15,684 971.6,636.35 981.8,585.2 983.7,530.5 983.9,524.45 984,518.25 984,512 984,511.35 984,510.65 984,510 984,509.65 984,509.35 984,509 983.8,468.35 979.05,429.5 969.7,392z"/>
    </g>
  </g>
  <g id="object-shadow">
    <g id="shape4">
      <path id="path2" fill="#000000" fill-opacity="0.2" d="M969.7,392 C968.95,389.1 968.15,386.05 967.25,382.65 L967.225,382.625 L832.125,247.525 205.025,789.625 382.625,967.225 L382.65,967.25 C415.5,976.15 449.05,981.45 484.1,983.3 484.25,983.3 484.35,983.3 484.5,983.3 493,983.75 501.1,984 509,984 Q510.5,984 512,984 C522.3,984 532.5,983.7 542.1,983.2 544.6,983.05 546.85,982.9 549.05,982.75 569.25,981.3 588.95,978.7 607.75,975.05 615.7,973.5 623.55,971.75 631.15,969.9 711.95,949.6 783.3,908.3 845.8,845.8 894.4,797.2 930.2,743.3 953.15,684 971.6,636.35 981.8,585.2 983.7,530.5 983.9,524.45 984,518.25 984,512 984,511.35 984,510.65 984,510 984,509.65 984,509.35 984,509 983.8,468.35 979.05,429.5 969.7,392z"/>
    </g>
  </g>
  <g id="Calque.__201">
    <g id="shape6">
      <path id="path3" fill="#FFFFFF" fill-opacity="1" d="M828.275,238.225 Q824.434,234.378 819,234.375 L205,234.375 L205,234.4 C201.35,234.4 198.3,235.7 195.75,238.25 193.2,240.8 191.9,243.85 191.9,247.5 L191.875,247.5 L191.875,776.5 L191.9,776.5 C191.9,780.15 193.2,783.25 195.75,785.8 198.3,788.35 201.35,789.6 205,789.65 L205,789.625 L819,789.625 L819,789.65 C822.65,789.6 825.75,788.35 828.3,785.8 830.85,783.25 832.1,780.15 832.15,776.5 L832.125,776.5 L832.125,247.5 L832.15,247.5 C832.1,243.85 830.85,240.8 828.3,238.25 M805.875,763.375 L218.125,763.375 218.125,260.625 805.875,260.625 805.875,763.375z"/>
      <path id="path4" fill="#5E9FAB" fill-opacity="1" d="M805.875,763.375 L805.875,260.625 218.125,260.625 218.125,763.375 805.875,763.375z"/>
    </g>
  </g>
  <g id="object">
    <g id="shape11">
      <path id="path7" fill="#F9CF3E" fill-opacity="1" d="M191.875,500 L191.875,615 366.525,789.625 481.525,789.625 191.875,500z M832.15,524.05 L832.15,409.05 657.5,234.4 542.5,234.4 832.15,524.05z"/>
    </g>
  </g>
  <g id="Calque.__202">
    <g id="Symbole.__203_1" overflow="visible">
      <g id="Calque.__206">
        <g id="shape39">
          <path id="path29" fill="#213B40" fill-opacity="1" d="M474.305,548.594 L445.336,519.626 413.764,551.199 C406.929,549.327 399.687,548.432 392.119,548.432 392.038,548.432 391.875,548.432 391.793,548.432 L391.631,548.432 C368.643,548.554 349.032,556.773 332.717,573.089 316.32,589.485 308.102,609.259 308.102,632.45 308.102,655.642 316.321,675.497 332.718,691.893 349.115,708.289 368.889,716.508 392.08,716.508 392.12,716.467 392.12,716.467 392.161,716.508 415.352,716.507 435.126,708.289 451.522,691.892 459.944,683.388 466.21,674.03 470.279,663.777 L470.238,663.899 C474.144,654.216 476.137,643.76 476.137,632.449 L476.137,632.367 C476.137,624.637 475.201,617.354 473.37,610.397 L504.739,579.027 474.305,548.594z M392.119,597.907 C395.374,597.907 398.466,598.314 401.437,599.087 L401.559,599.127 C407.173,600.592 412.137,603.603 416.531,608.078 423.245,614.791 426.622,622.888 426.662,632.368 L426.662,632.449 C426.662,637.088 425.889,641.441 424.343,645.428 L424.303,645.469 C422.635,649.66 420.031,653.484 416.532,656.902 409.819,663.615 401.681,667.033 392.161,667.033 L392.079,667.033 C382.559,667.033 374.421,663.616 367.708,656.902 360.954,650.148 357.577,641.971 357.577,632.45 357.577,622.929 360.954,614.833 367.708,608.079 374.38,601.406 382.395,598.029 391.794,597.907 391.875,597.907 391.875,597.907 391.957,597.907 392.038,597.907 392.038,597.907 392.119,597.907z"/>
          <path id="path30" fill="#CCCCCC" fill-opacity="1" d="M660.933,422.831 C666.425,417.989 671.226,413.188 675.376,408.387 696.859,383.568 701.008,359.156 687.785,335.11 L523.739,499.16 C524.105,499.444 524.431,499.77 524.756,500.095 L524.797,500.136 C528.255,503.594 530.005,507.785 530.005,512.749 530.005,517.713 528.255,521.985 524.756,525.402 521.257,528.901 517.067,530.651 512.103,530.651 507.139,530.651 502.949,528.902 499.49,525.443 L499.449,525.403 C499.124,525.077 498.798,524.752 498.473,524.426 L498.493,524.406 L474.305,548.594 504.739,579.027 660.933,422.831z"/>
          <path id="path31" fill="#FFFFFF" fill-opacity="1" d="M687.785,335.11 Q684.327,328.641 678.915,322.01 C674.033,315.988 668.052,310.007 660.932,304.026 L445.336,519.626 474.305,548.594 498.493,524.406 L498.473,524.426 C495.625,521.171 494.201,517.225 494.201,512.749 494.201,507.785 495.95,503.595 499.449,500.096 502.989,496.637 507.18,494.888 512.143,494.888 516.619,494.888 520.484,496.312 523.739,499.16 L687.785,335.11z"/>
        </g>
      </g>
    </g>
    <g id="Symbole.__205_1" overflow="visible">
      <g id="Calque.__207">
        <g id="shape40">
          <path id="path32" fill="#213B40" fill-opacity="1" d="M549.7,548.991 L519.266,579.424 550.635,610.794 C548.804,617.751 547.868,625.034 547.868,632.764 L547.868,632.846 C547.868,639.193 548.519,645.296 549.74,651.154 550.757,655.671 552.059,660.065 553.768,664.296 L553.727,664.174 C557.795,674.427 564.061,683.785 572.483,692.289 584.445,704.251 598.237,711.859 613.657,715.073 619.598,716.294 625.579,716.904 631.844,716.904 631.885,716.864 631.885,716.864 631.926,716.904 655.117,716.905 674.891,708.686 691.287,692.29 707.684,675.893 715.903,656.038 715.903,632.847 715.903,609.656 707.685,589.882 691.288,573.485 674.973,557.17 655.363,548.951 632.375,548.829 L632.212,548.829 C632.131,548.829 631.968,548.829 631.887,548.829 624.319,548.829 617.077,549.724 610.241,551.595 L578.669,520.022 549.7,548.991z M607.474,608.475 C611.868,603.999 616.832,600.989 622.447,599.524 L622.569,599.483 C625.539,598.71 628.631,598.304 631.886,598.304 631.967,598.304 631.967,598.304 632.049,598.304 632.13,598.304 632.13,598.304 632.212,598.304 641.61,598.426 649.625,601.803 656.298,608.475 663.052,615.229 666.429,623.326 666.429,632.847 666.428,642.367 663.051,650.545 656.297,657.299 649.584,664.012 641.447,667.43 631.926,667.43 L631.845,667.43 C622.324,667.43 614.187,664.012 607.474,657.299 603.975,653.881 601.371,650.056 599.703,645.866 L599.662,645.825 C598.116,641.838 597.343,637.484 597.343,632.846 L597.343,632.765 C597.384,623.285 600.761,615.188 607.474,608.475z"/>
          <path id="path33" fill="#CCCCCC" fill-opacity="1" d="M363.074,304.423 Q352.414,313.374 345.09,322.406 C341.55,326.76 338.58,331.113 336.22,335.507 L499.982,499.272 C503.44,495.813 507.631,494.064 512.594,494.064 517.558,494.064 521.83,495.813 525.248,499.313 528.747,502.812 530.496,507.002 530.496,511.966 530.496,516.93 528.747,521.12 525.288,524.579 L549.7,548.991 578.669,520.022 363.074,304.423z"/>
          <path id="path34" fill="#FFFFFF" fill-opacity="1" d="M348.629,408.784 C352.779,413.585 357.58,418.386 363.073,423.227 L519.266,579.424 549.7,548.991 525.288,524.579 525.248,524.619 C521.83,528.118 517.558,529.868 512.594,529.868 507.63,529.868 503.44,528.118 499.941,524.619 496.482,521.079 494.733,516.889 494.733,511.925 494.733,506.961 496.483,502.771 499.941,499.312 L499.982,499.272 336.22,335.507 C322.997,359.553 327.147,383.965 348.629,408.784z"/>
        </g>
      </g>
    </g>
  </g>
  <g id="Calque.__203">
    <g id="shape15">
      <path id="path10" fill="#999999" fill-opacity="1" d="M534.45,511.85 Q534.45,502.55 527.9,496 C523.55,491.6 518.25,489.4 512,489.4 505.8,489.4 500.5,491.6 496.15,496 491.75,500.35 489.55,505.65 489.55,511.85 489.55,518.1 491.75,523.4 496.15,527.75 500.5,532.1 505.8,534.3 512,534.3 518.25,534.3 523.55,532.1 527.9,527.75 532.25,523.4 534.45,518.1 534.45,511.85z"/>
    </g>
  </g>
</svg>