<?xml version="1.0" encoding="utf-8"?>
<!-- Generator: flash2svg, http://dissentgraphics.com/tools/flash2svg -->
<svg id="Apps-Karabiner" image-rendering="optimizeSpeed" baseProfile="basic" version="1.1" style="background-color:#FFFFFF" x="0px" y="0px" width="1024px" height="1024px" viewBox="0 0 1024 1024" enable-background="new 0 0 1024 1024" xmlns="http://www.w3.org/2000/svg" xmlns:xlink="http://www.w3.org/1999/xlink">
  <defs transform="matrix(1 0 0 1 0 0) "/>
  <g id="background-circle-shadow">
    <g id="shape">
      <path id="path" fill="#000000" fill-opacity="0.09803921568627451" d="M969.6,351.25 Q961,330.4 950.2,310.4 C946.15,302.85 941.85,295.35 937.3,288 917.75,256.3 893.9,226.35 865.75,198.2 773.6,106.05 662.3,59.95 531.95,59.95 401.6,59.95 290.35,106.05 198.2,198.2 106.05,290.35 59.95,401.6 59.95,531.95 59.95,662.3 106.05,773.6 198.2,865.75 290.35,957.9 401.6,1003.95 531.95,1003.95 662.3,1003.95 773.6,957.9 865.75,865.75 916.5,814.95 953.3,758.35 976.1,696 994.65,645.15 1003.95,590.5 1003.95,531.95 1003.95,487.05 998.5,444.4 987.55,404 986.3,399.45 985,394.9 983.65,390.4 979.55,377.1 974.85,364.05 969.6,351.25z"/>
    </g>
  </g>
  <g id="background-circle">
    <g id="shape2">
      <path id="path1" fill="#585169" fill-opacity="1" d="M966.05,378.4 C965.05,375 964.05,371.55 962.9,367.9 961.3,362.75 959.5,357.4 957.6,352.05 951.15,333.8 943.45,316 934.45,298.4 930.65,291 926.5,283.45 922.15,276 901.85,241.5 876.35,208.8 845.8,178.25 773.2,105.65 688.65,61.6 592.15,46.2 575.9,43.6 559.35,41.8 542.1,40.85 532.4,40.3 522.25,40 512,40 502.65,40 493.4,40.25 484.1,40.75 365.75,46.85 263.8,92.7 178.25,178.25 Q40,316.5 40,512 C40,642.35 86.1,753.65 178.25,845.8 234.95,902.45 298.8,941.7 369.35,963.35 406.1,974.6 444.15,981.2 484.1,983.3 484.25,983.3 484.35,983.3 484.5,983.3 493,983.75 501.1,984 509,984 510.2,984 511.1,984 512,984 522.3,984 532.5,983.7 542.1,983.2 544.6,983.05 546.85,982.9 549.05,982.75 569.25,981.3 588.95,978.7 607.75,975.05 615.7,973.5 623.55,971.75 631.15,969.9 711.95,949.6 783.3,908.3 845.8,845.8 894.4,797.2 930.2,743.3 953.15,684 971.6,636.35 981.8,585.2 983.7,530.5 983.9,524.45 984,518.25 984,512 984,511.35 984,510.65 984,510 984,509.65 984,509.35 984,509 983.8,468.35 979.05,429.5 969.7,392 968.6,387.65 967.35,383 966.05,378.4z"/>
    </g>
  </g>
  <g id="object-shadow">
    <g id="shape4">
      <path id="path2" fill="#000000" fill-opacity="0.2" d="M984,510 C984,509.65 984,509.35 984,509 983.95,501.95 983.8,494.95 983.5,487.85 L983.475,487.825 L866,370.35 154.05,751 365.05,962 C366.75,962.55 368.05,962.95 369.35,963.35 406.1,974.6 444.15,981.2 484.1,983.3 484.25,983.3 484.35,983.3 484.5,983.3 493,983.75 501.1,984 509,984 Q510.5,984 512,984 C522.3,984 532.5,983.7 542.1,983.2 544.6,983.05 546.85,982.9 549.05,982.75 569.25,981.3 588.95,978.7 607.75,975.05 615.7,973.5 623.55,971.75 631.15,969.9 711.95,949.6 783.3,908.3 845.8,845.8 894.4,797.2 930.2,743.3 953.15,684 971.6,636.35 981.8,585.2 983.7,530.5 983.9,524.45 984,518.25 984,512 984,511.35 984,510.65 984,510z"/>
    </g>
  </g>
  <mask id="background-circle1">
    <g id="g">
      <g id="shape8">
        <path id="path4" fill="#FFFFFF" fill-opacity="1" d="M966.05,378.4 C965.05,375 964.05,371.55 962.9,367.9 961.3,362.75 959.5,357.4 957.6,352.05 951.15,333.8 943.45,316 934.45,298.4 930.65,291 926.5,283.45 922.15,276 901.85,241.5 876.35,208.8 845.8,178.25 773.2,105.65 688.65,61.6 592.15,46.2 575.9,43.6 559.35,41.8 542.1,40.85 532.4,40.3 522.25,40 512,40 502.65,40 493.4,40.25 484.1,40.75 365.75,46.85 263.8,92.7 178.25,178.25 Q40,316.5 40,512 C40,642.35 86.1,753.65 178.25,845.8 234.95,902.45 298.8,941.7 369.35,963.35 406.1,974.6 444.15,981.2 484.1,983.3 484.25,983.3 484.35,983.3 484.5,983.3 493,983.75 501.1,984 509,984 510.2,984 511.1,984 512,984 522.3,984 532.5,983.7 542.1,983.2 544.6,983.05 546.85,982.9 549.05,982.75 569.25,981.3 588.95,978.7 607.75,975.05 615.7,973.5 623.55,971.75 631.15,969.9 711.95,949.6 783.3,908.3 845.8,845.8 894.4,797.2 930.2,743.3 953.15,684 971.6,636.35 981.8,585.2 983.7,530.5 983.9,524.45 984,518.25 984,512 984,511.35 984,510.65 984,510 984,509.65 984,509.35 984,509 983.8,468.35 979.05,429.5 969.7,392 968.6,387.65 967.35,383 966.05,378.4z"/>
      </g>
    </g>
  </mask>
  <g id="masked" mask="url(#background-circle1)">
    <g id="object">
      <g id="shape6">
        <path id="path3" fill="#CCCCCC" fill-opacity="1" d="M660.575,-118 Q660.572,-123.434 656.725,-127.275 L656.75,-127.25 C654.2,-129.8 651.1,-131.1 647.45,-131.1 643.8,-131.1 640.75,-129.8 638.2,-127.25 635.65,-124.7 634.35,-121.65 634.35,-118 L634.325,-118 L634.325,143.3 L634.35,143.3 C634.35,143.9 634.35,144.5 634.35,145.05 L634.325,145.05 L634.325,145.5 L634.35,145.5 C634.35,145.95 634.35,146.4 634.35,146.85 634,161.55 628.55,174.15 618.1,184.6 L618.075,184.6 L618.05,184.625 L618.05,184.65 C607.7,195 595.35,200.4 580.95,200.9 580.9,200.85 580.85,200.85 580.8,200.9 580.2,200.85 579.6,200.85 578.95,200.85 578.3,200.85 577.6,200.85 576.95,200.9 576.85,200.85 576.75,200.85 576.65,200.9 L576.625,200.875 L576.175,200.9 L576.2,200.9 C554.85,201.5 536.55,209.45 521.25,224.7 L521.225,224.7 L521.2,224.725 L521.2,224.75 C506.05,239.95 498.1,258.1 497.4,279.25 497.4,279.3 497.4,279.4 497.4,279.45 497.35,279.5 497.35,279.55 497.4,279.6 L497.375,279.6 L497.375,279.775 L497.4,279.8 C497.35,280.65 497.3,281.55 497.35,282.45 497.3,283.55 497.35,284.65 497.4,285.75 L497.375,285.725 L497.375,425 L497.4,425 C497.4,428.65 498.7,431.75 501.25,434.3 503.8,436.85 506.85,438.1 510.5,438.15 514.15,438.1 517.25,436.85 519.8,434.3 522.35,431.75 523.6,428.65 523.65,425 L523.625,425 L523.625,285.825 L523.65,285.85 C523.65,285.5 523.65,285.15 523.65,284.8 L523.625,284.775 L523.625,280.55 L523.65,280.55 C523.65,280.5 523.65,280.45 523.65,280.4 523.65,280.25 523.65,280.15 523.65,280 524.2,265.8 529.55,253.55 539.8,243.3 L539.8,243.275 L539.775,243.3 L539.8,243.3 C550.25,232.85 562.75,227.5 577.3,227.15 577.85,227.15 578.4,227.15 578.95,227.15 579.45,227.15 579.95,227.15 580.45,227.15 L580.45,227.125 L581,227.125 L581,227.15 C581.1,227.15 581.2,227.15 581.3,227.15 602.8,226.6 621.25,218.6 636.65,203.2 L636.65,203.175 L636.625,203.2 L636.65,203.2 C652.15,187.75 660.15,169.15 660.6,147.45 660.6,147.35 660.6,147.25 660.6,147.15 660.6,146.6 660.6,146.05 660.6,145.5 L660.575,145.5 L660.575,145.05 L660.6,145.05 C660.6,144.5 660.6,143.9 660.6,143.3 L660.575,143.3 L660.575,-118z"/>
      </g>
    </g>
  </g>
  <g id="Calque.__201">
    <g id="shape10">
      <path id="path5" fill="#000000" fill-opacity="1" d="M873,387 Q873,367 853,367 L171,367 C157.65,367 151,373.65 151,387 L151,407.8 C151.25,394.9 157.9,388.45 171,388.45 L853,388.45 C866.05,388.45 872.75,394.9 873,407.8 L873,387z"/>
      <path id="path6" fill="#221F28" fill-opacity="1" d="M853,758.45 C866.35,758.45 873,751.8 873,738.45 L873,407.8 C872.75,394.9 866.05,388.45 853,388.45 L171,388.45 C157.9,388.45 151.25,394.9 151,407.8 L151,738.45 C151,751.8 157.65,758.45 171,758.45 L853,758.45z"/>
    </g>
  </g>
  <g id="Calque.__202">
    <g id="shape14">
      <path id="path7" fill="#CCCCCC" fill-opacity="1" d="M838.15,447.5 L838.15,415.9 789.3,415.9 789.3,447.5 838.15,447.5z M838.15,588.95 L838.15,540.15 789.3,540.15 789.3,588.95 838.15,588.95z M838.15,523.1 L838.15,474.3 789.3,474.3 789.3,523.1 838.15,523.1z M771.1,447.5 L771.1,415.9 722.25,415.9 722.25,447.5 771.1,447.5z M722.25,540.15 L722.25,588.95 771.1,588.95 771.1,540.15 722.25,540.15z M771.1,523.1 L771.1,474.3 722.25,474.3 722.25,523.1 771.1,523.1z M771.1,654.8 L771.1,606 722.25,606 722.25,654.8 771.1,654.8z M789.3,606 L789.3,654.8 838.15,654.8 838.15,606 789.3,606z M704.05,671.8 L655.2,671.8 655.2,720.6 704.05,720.6 704.05,671.8z M789.3,671.8 L789.3,720.6 838.15,720.6 838.15,671.8 789.3,671.8z M771.1,720.6 L771.1,671.8 722.25,671.8 722.25,720.6 771.1,720.6z M301.75,474.3 L252.9,474.3 252.9,523.1 301.75,523.1 301.75,474.3z M252.9,447.5 L301.75,447.5 301.75,415.9 252.9,415.9 252.9,447.5z M185.85,447.5 L234.7,447.5 234.7,415.9 185.85,415.9 185.85,447.5z M319.95,540.15 L319.95,588.95 368.8,588.95 368.8,540.15 319.95,540.15z M301.75,540.15 L252.9,540.15 252.9,588.95 301.75,588.95 301.75,540.15z M319.95,474.3 L319.95,523.1 368.8,523.1 368.8,474.3 319.95,474.3z M319.95,606 L319.95,654.8 368.8,654.8 368.8,606 319.95,606z M234.7,671.8 L185.85,671.8 185.85,720.6 234.7,720.6 234.7,671.8z M252.9,671.8 L252.9,720.6 569.95,720.6 569.95,671.8 252.9,671.8z M637,474.3 L588.15,474.3 588.15,523.1 637,523.1 637,474.3z M502.9,588.95 L502.9,540.15 454.05,540.15 454.05,588.95 502.9,588.95z M521.1,540.15 L521.1,588.95 569.95,588.95 569.95,540.15 521.1,540.15z M502.9,523.1 L502.9,474.3 454.05,474.3 454.05,523.1 502.9,523.1z M569.95,523.1 L569.95,474.3 521.1,474.3 521.1,523.1 569.95,523.1z M387,540.15 L387,588.95 435.85,588.95 435.85,540.15 387,540.15z M435.85,523.1 L435.85,474.3 387,474.3 387,523.1 435.85,523.1z M454.05,606 L454.05,654.8 502.9,654.8 502.9,606 454.05,606z M435.85,654.8 L435.85,606 387,606 387,654.8 435.85,654.8z M637,671.8 L588.15,671.8 588.15,720.6 637,720.6 637,671.8z M569.95,654.8 L569.95,606 521.1,606 521.1,654.8 569.95,654.8z"/>
      <path id="path14" fill="#528B4E" fill-opacity="1" d="M704.05,474.3 L655.2,474.3 655.2,537.65 C655.2,538.35 654.95,538.95 654.5,539.45 654,539.9 653.4,540.15 652.7,540.15 L588.15,540.15 588.15,588.95 704.05,588.95 704.05,474.3z"/>
      <path id="path15" fill="#E04B3E" fill-opacity="1" d="M655.2,447.5 L704.05,447.5 704.05,415.9 655.2,415.9 655.2,447.5z M704.05,654.8 L704.05,606 588.15,606 588.15,654.8 704.05,654.8z M319.95,415.9 L319.95,447.5 368.8,447.5 368.8,415.9 319.95,415.9z M569.95,447.5 L569.95,415.9 521.1,415.9 521.1,447.5 569.95,447.5z M588.15,447.5 L637,447.5 637,415.9 588.15,415.9 588.15,447.5z M502.9,447.5 L502.9,415.9 454.05,415.9 454.05,447.5 502.9,447.5z M435.85,447.5 L435.85,415.9 387,415.9 387,447.5 435.85,447.5z"/>
      <path id="path38" fill="#FCCF4F" fill-opacity="1" d="M234.7,474.3 L185.85,474.3 185.85,523.1 234.7,523.1 234.7,474.3z M234.7,588.95 L234.7,540.15 185.85,540.15 185.85,588.95 234.7,588.95z M301.75,654.8 L301.75,606 185.85,606 185.85,654.8 301.75,654.8z"/>
    </g>
  </g>
</svg>