<?xml version="1.0" encoding="utf-8"?>
<!-- Generator: flash2svg, http://dissentgraphics.com/tools/flash2svg -->
<svg id="Photos" image-rendering="optimizeSpeed" baseProfile="basic" version="1.1" style="background-color:#FFFFFF" x="0px" y="0px" width="1024px" height="1024px" viewBox="0 0 1024 1024" enable-background="new 0 0 1024 1024" xmlns="http://www.w3.org/2000/svg" xmlns:xlink="http://www.w3.org/1999/xlink">
  <defs transform="matrix(1 0 0 1 0 0) "/>
  <g id="shadow">
    <g id="shape">
      <path id="path" fill="#000000" fill-opacity="0.09803921568627451" d="M969.6,351.25 Q961,330.4 950.2,310.4 C946.15,302.85 941.85,295.35 937.3,288 917.75,256.3 893.9,226.35 865.75,198.2 773.6,106.05 662.3,59.95 531.95,59.95 401.6,59.95 290.35,106.05 198.2,198.2 106.05,290.35 59.95,401.6 59.95,531.95 59.95,662.3 106.05,773.6 198.2,865.75 290.35,957.9 401.6,1003.95 531.95,1003.95 662.3,1003.95 773.6,957.9 865.75,865.75 916.5,814.95 953.3,758.35 976.1,696 994.65,645.15 1003.95,590.5 1003.95,531.95 1003.95,487.05 998.5,444.4 987.55,404 986.3,399.45 985,394.9 983.65,390.4 979.55,377.1 974.85,364.05 969.6,351.25z"/>
    </g>
  </g>
  <g id="circle">
    <g id="shape2">
      <path id="path1" fill="#334469" fill-opacity="1" d="M966.05,378.4 C963.55,369.65 960.7,360.8 957.6,352.05 951.15,333.8 943.45,316 934.45,298.4 930.65,291 926.5,283.45 922.15,276 901.85,241.5 876.35,208.8 845.8,178.25 773.2,105.65 688.65,61.6 592.15,46.2 575.9,43.6 559.35,41.8 542.1,40.85 532.4,40.3 522.25,40 512,40 502.65,40 493.4,40.25 484.1,40.75 365.75,46.85 263.8,92.7 178.25,178.25 Q40,316.5 40,512 C40,642.35 86.1,753.65 178.25,845.8 253.5,921 341.4,965.5 441.55,979.25 455.75,981.25 469.8,982.55 484.1,983.3 484.25,983.3 484.35,983.3 484.5,983.3 493,983.75 501.1,984 509,984 510.2,984 511.1,984 512,984 522.3,984 532.5,983.7 542.1,983.2 544.6,983.05 546.85,982.9 549.05,982.75 569.25,981.3 588.95,978.7 607.75,975.05 615.7,973.5 623.55,971.75 631.15,969.9 711.95,949.6 783.3,908.3 845.8,845.8 894.4,797.2 930.2,743.3 953.15,684 954.45,680.65 955.7,677.3 956.95,673.95 958.35,670 959.7,666.05 961.05,662.05 974.55,620.75 982.1,576.9 983.7,530.5 983.9,524.45 984,518.25 984,512 984,511.35 984,510.65 984,510 984,509.65 984,509.35 984,509 984,508.35 984,507.65 984,507 983.65,466.85 978.85,428.5 969.7,392 968.6,387.65 967.35,383 966.05,378.4z"/>
    </g>
  </g>
  <g id="ico-shadow">
    <g id="shape4">
      <path id="path2" fill="#000000" fill-opacity="0.2" d="M740,263 L661,362 961.025,662.025 L961.05,662.05 C974.55,620.75 982.1,576.9 983.7,530.5 983.9,524.45 984,518.25 984,512 984,511.35 984,510.65 984,510 984,509.65 984,509.35 984,509 984,508.35 984,507.65 984,507 L983.975,506.975 L740,263z M953.15,684 C954.45,680.65 955.7,677.3 956.95,673.95 L956.925,673.925 L612,329 446.975,517.975 362,433 176.35,714.05 441.55,979.25 C455.75,981.25 469.8,982.55 484.1,983.3 484.25,983.3 484.35,983.3 484.5,983.3 493,983.75 501.1,984 509,984 Q510.494,984 512,984 C522.3,984 532.5,983.7 542.1,983.2 544.6,983.05 546.85,982.9 549.05,982.75 569.25,981.3 588.95,978.7 607.75,975.05 615.7,973.5 623.55,971.75 631.15,969.9 711.95,949.6 783.3,908.3 845.8,845.8 894.4,797.2 930.2,743.3 953.15,684z"/>
    </g>
  </g>
  <g id="ico">
    <g id="Symbole.__206_1" overflow="visible">
      <g id="Calque.__210">
        <g id="Symbole.__208_2" overflow="visible">
          <g id="Calque.__211">
            <g id="shape27">
              <path id="path31" fill="#77BD9C" fill-opacity="1" d="M848.15,697.75 Q849.1,690.75 845.2,684.8 L694,454.3 677.95,467.65 634.2,431.3 589.1,470.35 589.1,714.05 829.45,714.05 C834.15,714.05 838.3,712.5 841.85,709.4 845.4,706.25 847.5,702.4 848.15,697.75z"/>
              <path id="path32" fill="#FFFFFF" fill-opacity="1" d="M677.95,467.65 L694,454.3 604.75,318.15 C602.4,314.55 599.2,312.05 595.1,310.65 593.1,309.95 591.1,309.6 589.1,309.6 L589.1,470.35 634.2,431.3 677.95,467.65z"/>
              <path id="path33" fill="#CCCCCC" fill-opacity="1" d="M589.1,309.6 C587.05,309.6 584.95,309.95 582.85,310.65 578.8,312.05 575.55,314.55 573.2,318.15 L483.7,454.65 498.45,467.5 543.9,431.3 588.85,470.55 589.1,470.35 589.1,309.6z"/>
              <path id="path34" fill="#558F74" fill-opacity="1" d="M589.1,470.35 L588.85,470.55 543.9,431.3 498.45,467.5 483.7,454.65 444.9,513.9 583.5,714.05 589.1,714.05 589.1,470.35z"/>
            </g>
            <g id="Symbole.__212_4" overflow="visible">
              <g id="Calque.__212">
                <g id="shape28">
                  <path id="path35" fill="#558F74" fill-opacity="1" d="M283.963,532.769 L294.271,541.749 326.034,516.45 357.448,543.88 357.622,543.741 357.622,714.051 189.548,714.051 C186.264,714.051 183.364,712.968 180.883,710.801 178.402,708.6 176.934,705.909 176.48,702.66 176.026,699.41 176.724,696.37 178.507,693.609 L283.963,532.769z"/>
                  <path id="path36" fill="#CCCCCC" fill-opacity="1" d="M294.271,541.749 L283.963,532.769 346.511,437.375 C348.153,434.859 350.424,433.112 353.255,432.134 354.722,431.645 356.19,431.4 357.622,431.4 L357.622,543.741 357.448,543.88 326.034,516.45 294.271,541.749z"/>
                  <path id="path37" fill="#FFFFFF" fill-opacity="1" d="M361.816,432.134 C364.681,433.112 366.917,434.859 368.56,437.375 L430.932,532.524 419.716,541.854 389.141,516.45 357.622,543.741 357.622,431.4 C359.02,431.4 360.418,431.645 361.816,432.134z"/>
                  <path id="path38" fill="#77BD9C" fill-opacity="1" d="M389.141,516.45 L419.716,541.854 430.932,532.524 536.599,693.609 C538.416,696.37 539.114,699.41 538.66,702.66 538.206,705.909 536.738,708.6 534.257,710.801 531.777,712.968 528.876,714.051 525.592,714.051 L357.622,714.051 357.622,543.741 389.141,516.45z"/>
                </g>
              </g>
            </g>
          </g>
        </g>
        <g id="Symbole.__210_2" overflow="visible">
          <g id="Calque.__213">
            <g id="shape29">
              <path id="path39" fill="#FFF2C8" fill-opacity="1" d="M760,308.5 Q760,281.8 741.1,262.9 C728.5,250.3 713.3,244 695.5,244 677.7,244 662.5,250.3 649.9,262.9 637.3,275.5 631,290.7 631,308.5 631,326.3 637.3,341.5 649.9,354.1 662.5,366.7 677.7,373 695.5,373 713.3,373 728.5,366.7 741.1,354.1 753.7,341.5 760,326.3 760,308.5z"/>
            </g>
          </g>
        </g>
      </g>
    </g>
  </g>
</svg>