
<svg xmlns="http://www.w3.org/2000/svg" version="1.1" xmlns:xlink="http://www.w3.org/1999/xlink" preserveAspectRatio="none" x="0px" y="0px" width="1024px" height="1024px" viewBox="0 0 1024 1024">
<defs>
<g id="Layer3_0_FILL">
<path fill="#000000" fill-opacity="0.09803921568627451" stroke="none" d="
M 965.6 347.25
Q 957 326.4 946.2 306.4 940.1 295.05 933.3 284 903.95 236.45 861.75 194.2 723.5 55.95 527.95 55.95 332.45 55.95 194.2 194.2 55.95 332.45 55.95 527.95 55.95 723.5 194.2 861.75 332.45 999.95 527.95 999.95 723.5 999.95 861.75 861.75 937.9 785.55 972.1 692 999.95 615.75 999.95 527.95 999.95 460.6 983.55 400 981.7 393.15 979.65 386.4 973.5 366.45 965.6 347.25 Z"/>
</g>

<g id="Layer2_0_FILL">
<path fill="#C26EA8" stroke="none" d="
M 951.9 691.05
Q 985.4 608.6 985.4 512.25 985.4 316.45 846.95 178 708.5 39.55 512.65 39.55 316.85 39.55 178.4 178 39.95 316.45 39.95 512.25 39.95 708.1 178.4 846.55 301.65 969.85 470.35 983.3 491.15 985 512.65 985 708.5 985 846.95 846.55 917.3 776.2 951.9 691.05 Z"/>
</g>

<g id="Layer1_0_FILL">
<path fill="#000000" fill-opacity="0.2" stroke="none" d="
M 352.3 336
L 376.7 360.4 422 365.65 352.95 726.2 603.7 976.95
Q 741.8640625 951.6359375 846.95 846.55 897.7283203125 795.7716796875 929.85 737.25
L 443.9 251.3 429.05 328.75 352.3 336 Z"/>
</g>

<g id="Layer0_0_FILL">
<path fill="#FFFFFF" stroke="none" d="
M 443.9 354.05
L 352.95 354.05 352.95 726.2 443.9 726.2 443.9 354.05
M 443.9 336.05
L 443.9 251.3 352.95 251.3 352.95 336.05 443.9 336.05
M 652.3 572.25
L 669.55 527.1
Q 640.05 512.55 602.95 512.55 552.25 512.55 525.05 541.45 497.9 570.15 497.9 624.7 497.9 734.35 597.8 734.35 619.8 734.35 634.3 730.9 648.65 727.45 662.85 718.45
L 662.85 668.5
Q 648.5 678.1 634.15 682.65 619.8 687.05 602.95 687.05 557.4 687.05 557.4 624.3 557.4 559.65 602.95 559.65 614.8 559.65 626.65 563.3
L 652.3 572.25 Z"/>
</g>
</defs>

<g transform="matrix( 1, 0, 0, 1, 0,0) ">
<use xlink:href="#Layer3_0_FILL"/>
</g>

<g transform="matrix( 1, 0, 0, 1, 0,0) ">
<use xlink:href="#Layer2_0_FILL"/>
</g>

<g transform="matrix( 1, 0, 0, 1, 0,0) ">
<use xlink:href="#Layer1_0_FILL"/>
</g>

<g transform="matrix( 1, 0, 0, 1, 0,0) ">
<use xlink:href="#Layer0_0_FILL"/>
</g>
</svg>
