<?xml version="1.0" encoding="utf-8"?>
<!-- Generator: flash2svg, http://dissentgraphics.com/tools/flash2svg -->
<svg xmlns:xlink="http://www.w3.org/1999/xlink" id="Apps-Viscosity" image-rendering="optimizeSpeed" baseProfile="basic" version="1.1" style="background-color:#ffffff" x="0px" y="0px" width="1024px" height="1024px" viewBox="0 0 1024 1024" enable-background="new 0 0 1024 1024" xmlns="http://www.w3.org/2000/svg">
  <defs transform="matrix(1 0 0 1 0 0) "/>
  <g id="background-circle-shadow">
    <g id="shape">
      <path id="path" fill="#000000" fill-opacity="0.09803921568627451" d="M969.65,351.3 Q961.05,330.45 950.25,310.45 C946.2,302.9 941.9,295.4 937.35,288.05 917.8,256.35 893.95,226.4 865.8,198.25 773.65,106.1 662.35,60 532,60 401.65,60 290.4,106.1 198.25,198.25 106.1,290.4 60,401.65 60,532 60,662.35 106.1,773.65 198.25,865.8 290.4,957.95 401.65,1004 532,1004 662.35,1004 773.65,957.95 865.8,865.8 916.55,815 953.35,758.4 976.15,696.05 994.7,645.2 1004,590.55 1004,532 1004,487.1 998.55,444.45 987.6,404.05 986.35,399.5 985.05,394.95 983.7,390.45 979.6,377.15 974.9,364.1 969.65,351.3z"/>
    </g>
  </g>
  <g id="background-circle">
    <g id="shape2">
      <path id="path1" fill="#74ACCE" fill-opacity="1" d="M252.05,117.1 C226.3,134.5 201.7,154.9 178.3,178.3 118.9,237.7 78.65,305 57.6,380.15 L57.575,380.125 L112.05,400.05 C170.95,415.45 219.6,405.45 258.05,370.05 257.65,353.15 254.3,336.8 248.05,321.05 227.35,271.9 239.35,230.9 284.05,198.05 L252.05,117.1z M720.05,639.05 C705.7,637.8 692.4,633.8 680.05,627.05 636.1,602 593.8,574 553.05,543.05 546.4,538.55 539.4,536.05 532.05,535.5 476.1,531.55 433.8,556.4 405.05,610.05 392.25,633.65 375.9,654.3 356.05,672.05 320.05,704.95 280.7,732.95 238.05,756.05 233.8,773.5 237.15,790.15 248.05,806.05 268.1,836 294.75,858.7 328.05,874.05 L361.45,960.85 C364.3,961.8 366.85,962.6 369.4,963.4 406.15,974.65 444.2,981.25 484.15,983.35 484.3,983.35 484.4,983.35 484.55,983.35 493.05,983.8 501.15,984.05 509.05,984.05 510.25,984.05 511.15,984.05 512.05,984.05 522.35,984.05 532.55,983.75 542.15,983.25 544.65,983.1 546.9,982.95 549.1,982.8 569.3,981.35 589,978.75 607.8,975.1 615.75,973.55 623.6,971.8 631.2,969.95 690.3,955.1 744.35,929 793.4,891.8 765.3,844.05 764.2,800.8 790.05,762.05 806.7,737.45 812.7,707.45 808.05,672.05 783.75,652.2 754.4,641.2 720.05,639.05z M696.05,392.05 C727.05,390.3 754.7,379.65 779.05,360.05 808.8,335.7 841.8,327 878.05,334.05 907.2,339.9 934.55,348.4 960.2,359.45 959.4,357.1 958.55,354.6 957.65,352.1 951.2,333.85 943.5,316.05 934.5,298.45 930.7,291.05 926.55,283.5 922.2,276.05 901.9,241.55 876.4,208.85 845.85,178.3 814.8,147.25 781.55,121.4 745.9,100.65 L745.875,100.65 L620.05,152.05 620.05,270.05 582.05,380.05 C622.4,389.9 660.4,393.9 696.05,392.05z"/>
      <path id="path6" fill="#4B648F" fill-opacity="1" d="M779.05,360.05 C754.7,379.65 727.05,390.3 696.05,392.05 660.4,393.9 622.4,389.9 582.05,380.05 L620.05,270.05 620.05,152.05 745.875,100.65 L745.9,100.65 C698.75,73.25 647.4,55.05 592.2,46.25 575.95,43.65 559.4,41.85 542.15,40.9 532.45,40.35 522.3,40.05 512.05,40.05 502.7,40.05 493.45,40.3 484.15,40.8 398.15,45.25 320.8,70.65 252.05,117.1 L284.05,198.05 C239.35,230.9 227.35,271.9 248.05,321.05 254.3,336.8 257.65,353.15 258.05,370.05 219.6,405.45 170.95,415.45 112.05,400.05 L57.575,380.125 Q40.05,442.457 40.05,512.05 C40.05,642.4 86.15,753.7 178.3,845.85 232.95,900.45 294.25,938.9 361.45,960.85 L328.05,874.05 C294.75,858.7 268.1,836 248.05,806.05 237.15,790.15 233.8,773.5 238.05,756.05 280.7,732.95 320.05,704.95 356.05,672.05 375.9,654.3 392.25,633.65 405.05,610.05 433.8,556.4 476.1,531.55 532.05,535.5 539.4,536.05 546.4,538.55 553.05,543.05 593.8,574 636.1,602 680.05,627.05 692.4,633.8 705.7,637.8 720.05,639.05 754.4,641.2 783.75,652.2 808.05,672.05 812.7,707.45 806.7,737.45 790.05,762.05 764.2,800.8 765.3,844.05 793.4,891.8 811.65,877.9 829.05,862.65 845.85,845.85 894.45,797.25 930.25,743.35 953.2,684.05 971.65,636.4 981.85,585.25 983.75,530.55 983.95,524.5 984.05,518.3 984.05,512.05 984.05,511.4 984.05,510.7 984.05,510.05 984.05,509.7 984.05,509.4 984.05,509.05 983.85,468.4 979.1,429.55 969.75,392.05 968.65,387.7 967.4,383.05 966.1,378.45 965.1,375.05 964.1,371.6 962.95,367.95 962.1,365.2 961.2,362.4 960.2,359.45 934.55,348.4 907.2,339.9 878.05,334.05 841.8,327 808.8,335.7 779.05,360.05z"/>
    </g>
  </g>
  <g id="object-shadow">
    <g id="shape10">
      <path id="path7" fill="#FFFFFF" fill-opacity="1" d="M449.55,276.4 C437.7,268.35 424.5,264.35 410,264.35 390.4,264.35 373.7,271.2 359.9,285 346.15,298.9 339.25,315.6 339.25,335.1 L339.45,341.05 C328.75,346 320.15,353.55 313.65,363.65 307.05,373.7 303.8,384.85 303.8,397 303.8,414.05 309.85,428.65 321.9,440.85 334.1,452.9 348.7,458.95 365.7,458.95 L516.05,458.95 C530.75,458.95 543.3,453.75 553.7,443.3 564,433 569.15,420.5 569.15,405.85 569.15,393.4 565.3,382.35 557.55,372.7 549.8,363.1 540,356.95 528.15,354.2 531.95,348.4 533.85,342 533.85,335.1 533.85,325.35 530.4,317 523.5,310.1 516.55,303.1 508.15,299.65 498.4,299.65 489.55,299.65 481.85,302.5 475.4,308.2 470.05,295.15 461.45,284.55 449.55,276.4z M293.65,638.25 C285.35,632.6 276.15,629.8 266.05,629.8 252.35,629.8 240.7,634.6 231.1,644.25 221.5,653.9 216.7,665.55 216.7,679.15 L216.85,683.3 C209.35,686.75 203.35,692 198.85,699.05 194.25,706.1 191.95,713.85 191.95,722.35 191.95,734.2 196.2,744.4 204.6,752.9 213.1,761.3 223.3,765.55 235.15,765.55 L340,765.55 C350.25,765.55 359,761.9 366.25,754.6 373.45,747.45 377,738.7 377,728.5 377,719.8 374.3,712.1 368.95,705.4 363.55,698.7 356.7,694.4 348.4,692.5 351.1,688.45 352.4,684 352.4,679.15 352.4,672.35 350,666.55 345.2,661.7 Q337.9,654.45 327.7,654.45 C321.5,654.45 316.15,656.4 311.65,660.4 307.9,651.3 301.9,643.9 293.65,638.25z"/>
    </g>
  </g>
  <g id="background-circle1">
    <g id="shape14">
      <path id="path10" fill="#000000" fill-opacity="0.2980392156862745" d="M962.95,367.95 C962.1,365.2 961.2,362.4 960.2,359.45 959.4,357.1 958.55,354.6 957.65,352.1 951.2,333.85 943.5,316.05 934.5,298.45 930.7,291.05 926.55,283.5 922.2,276.05 901.9,241.55 876.4,208.85 845.85,178.3 814.8,147.25 781.55,121.4 745.9,100.65 698.75,73.25 647.4,55.05 592.2,46.25 575.95,43.65 559.4,41.85 542.15,40.9 532.45,40.35 522.3,40.05 512.05,40.05 502.7,40.05 493.45,40.3 484.15,40.8 398.15,45.25 320.8,70.65 252.05,117.1 226.3,134.5 201.7,154.9 178.3,178.3 118.9,237.7 78.65,305 57.6,380.15 L57.575,380.125 Q40.05,442.457 40.05,512.05 C40.05,642.4 86.15,753.7 178.3,845.85 232.95,900.45 294.25,938.9 361.45,960.85 364.3,961.8 366.85,962.6 369.4,963.4 406.15,974.65 444.2,981.25 484.15,983.35 484.3,983.35 484.4,983.35 484.55,983.35 493.05,983.8 501.15,984.05 509.05,984.05 510.25,984.05 511.15,984.05 512.05,984.05 522.35,984.05 532.55,983.75 542.15,983.25 544.65,983.1 546.9,982.95 549.1,982.8 569.3,981.35 589,978.75 607.8,975.1 615.75,973.55 623.6,971.8 631.2,969.95 690.3,955.1 744.35,929 793.4,891.8 811.65,877.9 829.05,862.65 845.85,845.85 894.45,797.25 930.25,743.35 953.2,684.05 971.65,636.4 981.85,585.25 983.75,530.55 983.95,524.5 984.05,518.3 984.05,512.05 984.05,511.4 984.05,510.7 984.05,510.05 984.05,509.7 984.05,509.4 984.05,509.05 983.85,468.4 979.1,429.55 969.75,392.05 968.65,387.7 967.4,383.05 966.1,378.45 965.1,375.05 964.1,371.6 962.95,367.95z"/>
    </g>
  </g>
  <g id="background-circle2">
    <g id="shape16">
      <path id="path11" fill="#000000" fill-opacity="0.2" d="M604.05,347.05 L521.875,329.575 419.625,373.05 352.05,709.05 616.35,973.35 C621.55,972.25 626.4,971.1 631.2,969.95 690.3,955.1 744.35,929 793.4,891.8 811.65,877.9 829.05,862.65 845.85,845.85 Q915.174,776.479 949.725,692.725 L604.05,347.05z"/>
    </g>
  </g>
  <g id="object">
    <g id="Symbole.__201_1" overflow="visible">
      <g id="Calque.__202">
        <g id="shape41">
          <path id="path32" fill="#4D748D" fill-opacity="1" d="M506.224,583.715 L451.736,583.715 509.371,641.35 563.858,641.35 506.224,583.715z M392.752,583.715 L376.253,583.715 352.875,583.715 343.659,583.715 343.659,591.762 352.875,600.979 376.253,624.356 393.247,641.35 450.387,641.35 392.752,583.715z M676.341,634.876 L661.01,619.546 647.613,606.149 625.18,583.715 564.353,583.715 621.988,641.35 647.613,641.35 661.01,641.35 676.341,641.35 676.341,634.876z"/>
          <path id="path33" fill="#1A2830" fill-opacity="1" d="M450.387,641.35 L509.371,641.35 451.736,583.715 392.752,583.715 450.387,641.35z M563.858,641.35 L621.988,641.35 564.353,583.715 506.224,583.715 563.858,641.35z M376.253,641.35 L393.247,641.35 376.253,624.356 352.875,600.979 343.659,591.762 343.659,641.35 352.875,641.35 376.253,641.35z M676.341,583.715 L661.01,583.715 647.613,583.715 625.18,583.715 647.613,606.149 661.01,619.546 676.341,634.876 676.341,583.715z"/>
          <path id="path34" fill="#FCFCFC" fill-opacity="1" d="M647.613,484.495 C647.613,473.076 641.904,467.367 630.485,467.367 L393.382,467.367 C381.963,467.367 376.253,473.076 376.253,484.495 L376.253,583.715 392.752,583.715 451.736,583.715 506.224,583.715 564.353,583.715 625.18,583.715 647.613,583.715 647.613,484.495z M393.247,641.35 L376.253,641.35 376.253,674.708 C376.253,686.172 381.963,691.837 393.382,691.837 L630.485,691.837 C641.904,691.837 647.613,686.172 647.613,674.708 L647.613,641.35 621.988,641.35 563.858,641.35 509.371,641.35 450.387,641.35 393.247,641.35z"/>
          <path id="path35" fill="#EBEBEB" fill-opacity="1" d="M630.485,467.367 C641.904,467.367 647.613,473.076 647.613,484.495 L647.613,583.715 661.01,583.715 676.341,583.715 676.341,468.58 C676.341,461.162 673.688,454.779 668.428,449.519 Q660.516,441.606 649.367,441.606 L370.633,441.606 C363.215,441.606 356.832,444.259 351.572,449.519 346.312,454.779 343.659,461.162 343.659,468.58 L343.659,583.715 352.875,583.715 376.253,583.715 376.253,484.495 C376.253,473.076 381.963,467.367 393.382,467.367 L630.485,467.367z M376.253,674.708 L376.253,641.35 352.875,641.35 343.659,641.35 343.659,691.567 C343.659,698.985 346.312,705.369 351.572,710.629 356.832,715.889 363.215,718.541 370.633,718.541 L649.367,718.541 C656.785,718.541 663.168,715.889 668.428,710.629 673.688,705.369 676.341,698.985 676.341,691.567 L676.341,641.35 661.01,641.35 647.613,641.35 647.613,674.708 C647.613,686.172 641.904,691.837 630.485,691.837 L393.382,691.837 C381.963,691.837 376.253,686.172 376.253,674.708z"/>
          <path id="path36" fill="#DCDCDC" fill-opacity="1" d="M640.555,441.471 C640.6,439.583 640.6,437.65 640.6,435.717 640.6,399.077 627.697,367.787 601.757,341.847 575.817,315.951 544.572,303.004 507.887,303.004 482.576,303.004 459.783,309.208 439.507,321.616 L473.697,355.806 L473.72,355.828 C484.105,351.333 495.524,349.085 507.887,349.085 531.804,349.085 552.215,357.537 569.163,374.44 586.112,391.389 594.564,411.8 594.564,435.717 594.564,437.65 594.519,439.583 594.384,441.471 L640.555,441.471z"/>
          <path id="path37" fill="#FFFFFF" fill-opacity="1" d="M446.566,374.44 L446.611,374.396 C454.793,366.213 463.829,360.009 473.72,355.828 L473.697,355.806 L439.507,321.616 C430.516,327.101 422.019,333.844 414.017,341.847 388.077,367.787 375.129,399.077 375.129,435.717 375.129,437.65 375.174,439.583 375.264,441.471 L421.39,441.471 C421.255,439.583 421.21,437.65 421.21,435.717 421.21,411.8 429.662,391.389 446.566,374.44z"/>
        </g>
      </g>
    </g>
  </g>
</svg>