<?xml version="1.0" encoding="utf-8"?>
<!-- Generator: flash2svg, http://dissentgraphics.com/tools/flash2svg -->
<svg xmlns:xlink="http://www.w3.org/1999/xlink" id="Apps-Discord" image-rendering="optimizeSpeed" baseProfile="basic" version="1.1" style="background-color:#ffffff" x="0px" y="0px" width="1024px" height="1024px" viewBox="0 0 1024 1024" enable-background="new 0 0 1024 1024" xmlns="http://www.w3.org/2000/svg">
  <defs transform="matrix(1 0 0 1 0 0) "/>
  <g id="background-circle-shadow">
    <g id="shape">
      <path id="path" fill="#000000" fill-opacity="0.09803921568627451" d="M969.65,351.3 Q961.05,330.45 950.25,310.45 C946.2,302.9 941.9,295.4 937.35,288.05 917.8,256.35 893.95,226.4 865.8,198.25 773.65,106.1 662.35,60 532,60 401.65,60 290.4,106.1 198.25,198.25 106.1,290.4 60,401.65 60,532 60,662.35 106.1,773.65 198.25,865.8 290.4,957.95 401.65,1004 532,1004 662.35,1004 773.65,957.95 865.8,865.8 916.55,815 953.35,758.4 976.15,696.05 994.7,645.2 1004,590.55 1004,532 1004,487.1 998.55,444.45 987.6,404.05 986.35,399.5 985.05,394.95 983.7,390.45 979.6,377.15 974.9,364.1 969.65,351.3z"/>
    </g>
  </g>
  <g id="background-circle">
    <g id="shape2">
      <path id="path1" fill="#7289DA" fill-opacity="1" d="M966.1,378.45 C965.1,375.05 964.1,371.6 962.95,367.95 961.35,362.8 959.55,357.45 957.65,352.1 951.2,333.85 943.5,316.05 934.5,298.45 930.7,291.05 926.55,283.5 922.2,276.05 901.9,241.55 876.4,208.85 845.85,178.3 773.25,105.7 688.7,61.65 592.2,46.25 575.95,43.65 559.4,41.85 542.15,40.9 532.45,40.35 522.3,40.05 512.05,40.05 502.7,40.05 493.45,40.3 484.15,40.8 365.8,46.9 263.85,92.75 178.3,178.3 Q40.05,316.55 40.05,512.05 C40.05,642.4 86.15,753.7 178.3,845.85 235,902.5 298.85,941.75 369.4,963.4 406.15,974.65 444.2,981.25 484.15,983.35 484.3,983.35 484.4,983.35 484.55,983.35 493.05,983.8 501.15,984.05 509.05,984.05 510.25,984.05 511.15,984.05 512.05,984.05 522.35,984.05 532.55,983.75 542.15,983.25 544.65,983.1 546.9,982.95 549.1,982.8 569.3,981.35 589,978.75 607.8,975.1 615.75,973.55 623.6,971.8 631.2,969.95 712,949.65 783.35,908.35 845.85,845.85 894.45,797.25 930.25,743.35 953.2,684.05 971.65,636.4 981.85,585.25 983.75,530.55 983.95,524.5 984.05,518.3 984.05,512.05 984.05,511.4 984.05,510.7 984.05,510.05 984.05,509.7 984.05,509.4 984.05,509.05 983.85,468.4 979.1,429.55 969.75,392.05 968.65,387.7 967.4,383.05 966.1,378.45z"/>
    </g>
  </g>
  <g id="object-shadow">
    <g id="shape4">
      <path id="path2" fill="#000000" fill-opacity="0.2" d="M984.05,509.05 C984.05,506.85 984.05,504.65 984,502.25 L983.975,502.225 L746.05,264.3 339.375,340.05 278.35,732.25 529.875,983.775 Q536.045,983.579 542.15,983.25 C544.65,983.1 546.9,982.95 549.1,982.8 569.3,981.35 589,978.75 607.8,975.1 615.75,973.55 623.6,971.8 631.2,969.95 712,949.65 783.35,908.35 845.85,845.85 894.45,797.25 930.25,743.35 953.2,684.05 971.65,636.4 981.85,585.25 983.75,530.55 983.95,524.5 984.05,518.3 984.05,512.05 984.05,511.4 984.05,510.7 984.05,510.05 984.05,509.7 984.05,509.4 984.05,509.05z"/>
    </g>
  </g>
  <g id="Layer.__201">
    <g id="shape6">
      <path id="path3" fill="#FFFFFF" fill-opacity="1" d="M763.75,305.9 C763.25,273.5 736.85,247.1 704.5,247.1 L319.9,247.1 C287.55,247.1 261.15,273.5 261.15,305.9 L261.15,690.45 C261.15,723.05 287.55,749.45 319.9,749.45 L645.5,749.45 630.1,696.9 701.75,762.55 763.75,816.25 763.75,305.9z M681.3,575.65 C681.3,575.4 657.2,616.75 593.85,618.8 L574.75,595.85 C612.4,585.3 626.65,561.9 626.65,561.9 L614.95,574.95 L626.65,561.9 C614.95,569.7 603.7,575.2 593.85,578.85 579.35,584.85 565.6,588.75 552.05,591.25 524.5,596.3 499.25,594.95 477.9,591.05 461.35,587.8 447.35,583.45 435.65,578.65 429,576.1 421.85,572.9 414.75,568.75 L410.85,566.95 402.8,561.9 414.3,574.75 L402.8,561.9 C402.8,561.9 416.6,584.6 453.1,595.65 444.6,606.4 433.8,619.05 433.8,619.05 370.45,617 346.3,575.65 346.3,575.65 L351.15,582.1 L346.3,575.65 C346.3,484.3 387.65,409.9 387.65,409.9 L367,458.55 L387.65,409.9 C429,379.1 468,380.05 468,380.05 L471,383.5 C419.35,398.2 395.7,420.7 395.7,420.7 L412.7,412.65 C443.45,399.35 467.8,395.9 477.9,394.75 479.5,394.25 480.85,394.05 482.7,394.05 500.15,391.75 519.9,391.3 540.55,393.6 567.9,396.55 597.25,404.6 627.1,420.7 627.1,420.7 604.4,399.35 555.5,384.65 L559.6,380.05 584.4,383.5 L559.6,380.05 C559.6,380.05 598.9,379.1 639.95,409.9 L660.65,458.55 L639.95,409.9 C639.95,409.9 681.3,484.3 681.3,575.65z M535.75,517.55 C535.75,535 549.05,549 565.15,549 581.45,549 594.3,535 594.3,517.55 594.3,499.9 581.2,485.9 565.15,485.9 548.6,485.9 535.75,499.9 535.75,517.55z M431.05,517.55 C431.05,535 444.15,549 460.2,549 476.75,549 489.6,535 489.6,517.55 489.8,499.9 476.75,485.9 460.2,485.9 Q448.05,485.9 439.55,495.05 431.05,504.25 431.05,517.55z"/>
    </g>
  </g>
</svg>