
<svg xmlns="http://www.w3.org/2000/svg" version="1.1" xmlns:xlink="http://www.w3.org/1999/xlink" preserveAspectRatio="none" x="0px" y="0px" width="1024px" height="1024px" viewBox="0 0 1024 1024">
<defs>
<g id="Layer3_0_FILL">
<path fill="#000000" fill-opacity="0.09803921568627451" stroke="none" d="
M 969.6 351.25
Q 961 330.4 950.2 310.4 944.1 299.05 937.3 288 907.95 240.45 865.75 198.2 727.5 59.95 531.95 59.95 336.45 59.95 198.2 198.2 59.95 336.45 59.95 531.95 59.95 727.5 198.2 865.75 336.45 1003.95 531.95 1003.95 727.5 1003.95 865.75 865.75 941.9 789.55 976.1 696 1003.95 619.75 1003.95 531.95 1003.95 464.6 987.55 404 985.7 397.15 983.65 390.4 977.5 370.45 969.6 351.25 Z"/>
</g>

<g id="Layer1_0_FILL">
<path fill="#CCCCCC" stroke="none" d="
M 542.1 40.85
Q 527.2 40 512 40 497.9 40 484.1 40.75 306.55 49.95 178.25 178.25 40 316.5 40 512 40 603.2052734375 70.05 681.9
L 681.9 70.05
Q 638.8986328125 53.6494140625 592.15 46.2 567.65 42.3 542.1 40.85
M 325.75 306.75
Q 336.8 311.95 343.65 322.85 350.5 333.7 350.5 346.55 350.5 364.9 337.8 377.95 325.35 390.85 307.45 390.85
L 203.4 390.85
Q 188.1 390.85 177.25 379.75 166.6 368.7 166.6 353 166.6 339.75 174.65 329.45 182.7 319 194.95 316.2 190.95 309.75 190.95 302.5 190.95 292.25 198.2 284.6 205.4 277.15 215.7 277.15 224.75 277.15 231.6 283.2 237.2 269.3 249.5 260.65 261.75 252 276.85 252 297.15 252 311.65 266.7 325.95 281.6 325.95 302.5
L 325.75 306.75
M 962.25 365.85
Q 960.040234375 358.8916015625 957.6 352.05 952.509375 337.6654296875 946.4 323.65
L 714.35 555.75 882.15 800.1 884.4 802.65
Q 928.574609375 747.382421875 953.15 684 980.9 612.4 983.7 530.5 984 521.3 984 512 984 511 984 510 984 509.5 984 509 983.65 447.7 969.7 392 967.95 385.15 966.05 378.4 964.55 373.1 962.9 367.9 962.57890625 366.872265625 962.25 365.85
M 558.3 349.35
Q 551.25 351.75 547.2 357.8
L 445 513.5 461.9 528.2 513.8 486.95 565.1 531.85 565.3 531.65 565.3 348.15
Q 561.7 348.15 558.3 349.35
M 285.65 602.65
L 297.3 612.9 333.75 584.15 369.55 615.55 369.75 615.35 369.75 487.15
Q 367.15 487.15 364.7 487.95 359.9 489.6 357.05 494
L 285.65 602.65 Z"/>

<path fill="#E1E1E1" stroke="none" d="
M 343.65 322.85
Q 336.8 311.95 325.75 306.75
L 325.95 302.5
Q 325.95 281.6 311.65 266.7 297.15 252 276.85 252 261.75 252 249.5 260.65 237.2 269.3 231.6 283.2 224.75 277.15 215.7 277.15 205.4 277.15 198.2 284.6 190.95 292.25 190.95 302.5 190.95 309.75 194.95 316.2 182.7 319 174.65 329.45 166.6 339.75 166.6 353 166.6 368.7 177.25 379.75 188.1 390.85 203.4 390.85
L 307.45 390.85
Q 325.35 390.85 337.8 377.95 350.5 364.9 350.5 346.55 350.5 333.7 343.65 322.85 Z"/>

<path fill="#E1D5FD" stroke="none" d="
M 722.15 87.8
Q 702.4732421875 77.92734375 681.9 70.05
L 70.05 681.9
Q 77.908203125 702.4802734375 87.8 722.15 111.8755859375 770.0912109375 148.05 812.95 162.7009765625 790.3984375 165.3 786.15
L 285.65 602.65 357.05 494
Q 359.9 489.6 364.7 487.95 367.15 487.15 369.75 487.15 372.15 487.15 374.4 487.95 379.4 489.6 382.2 494
L 420.05 551.75 445 513.5 547.2 357.8
Q 551.25 351.75 558.3 349.35 561.7 348.15 565.3 348.15 568.95 348.15 572.15 349.35 579.2 351.55 583.25 357.8
L 685.05 513.1 714.35 555.75 946.4 323.65
Q 940.853515625 310.8724609375 934.45 298.4 928.65 287.05 922.15 276 891.5 224 845.8 178.25 788.855078125 121.305078125 722.15 87.8
M 661.95 229.05
Q 673.45 229.05 682.9 235.3 691.95 241.75 696.35 252 701.4 247.6 708.45 247.6 716.1 247.6 721.5 253 726.95 258.45 726.95 266.1 726.95 271.5 723.95 276.15 733.4 278.35 739.45 285.8 745.45 293.45 745.45 303.3 745.45 315 737.4 322.85 729.15 331.1 717.7 331.1
L 638.8 331.1
Q 625.55 331.1 615.9 321.6 606.25 311.95 606.25 298.5 606.25 289.25 611.45 281.2 616.7 273.15 624.95 269.3
L 624.95 266.1
Q 624.95 251 635.8 239.95 646.65 229.05 661.95 229.05
M 392.95 394.05
Q 392.95 383.4 400.4 375.95 408.05 368.3 418.9 368.3 426.75 368.3 433.2 372.75 434.4310546875 373.564453125 435.5 374.45 440.368359375 378.455078125 442.65 384.2 446.25 381.2 451.1 381.2 456.35 381.2 460.35 385 464.15 388.8 464.15 394.05 464.15 397.9 461.95 401.1 468.6 402.7 472.85 407.95 477.05 413.35 477.05 420 477.05 428.05 471.2 433.7 465.6 439.55 457.55 439.55
L 402.6 439.55
Q 393.35 439.55 386.5 432.9 384.04140625 430.367578125 382.5 427.5 379.85 422.6302734375 379.85 416.8 379.85 410.35 383.5 404.5 387.3 398.9 392.95 396.25
L 392.95 394.05 Z"/>

<path fill="#FFFFFF" stroke="none" d="
M 400.4 375.95
Q 392.95 383.4 392.95 394.05
L 392.95 396.25
Q 387.3 398.9 383.5 404.5 379.85 410.35 379.85 416.8 379.85 422.6302734375 382.5 427.5 384.04140625 430.367578125 386.5 432.9 393.35 439.55 402.6 439.55
L 457.55 439.55
Q 465.6 439.55 471.2 433.7 477.05 428.05 477.05 420 477.05 413.35 472.85 407.95 468.6 402.7 461.95 401.1 464.15 397.9 464.15 394.05 464.15 388.8 460.35 385 456.35 381.2 451.1 381.2 446.25 381.2 442.65 384.2 440.368359375 378.455078125 435.5 374.45 434.4310546875 373.564453125 433.2 372.75 426.75 368.3 418.9 368.3 408.05 368.3 400.4 375.95
M 682.9 235.3
Q 673.45 229.05 661.95 229.05 646.65 229.05 635.8 239.95 624.95 251 624.95 266.1
L 624.95 269.3
Q 616.7 273.15 611.45 281.2 606.25 289.25 606.25 298.5 606.25 311.95 615.9 321.6 625.55 331.1 638.8 331.1
L 717.7 331.1
Q 729.15 331.1 737.4 322.85 745.45 315 745.45 303.3 745.45 293.45 739.45 285.8 733.4 278.35 723.95 276.15 726.95 271.5 726.95 266.1 726.95 258.45 721.5 253 716.1 247.6 708.45 247.6 701.4 247.6 696.35 252 691.95 241.75 682.9 235.3
M 666.75 528.4
L 685.05 513.1 583.25 357.8
Q 579.2 351.55 572.15 349.35 568.95 348.15 565.3 348.15
L 565.3 531.65 616.85 486.95 666.75 528.4
M 382.2 494
Q 379.4 489.6 374.4 487.95 372.15 487.15 369.75 487.15
L 369.75 615.35 405.75 584.15 440.55 613.1 453.25 602.45 452.25 600.85 420.05 551.75 382.2 494 Z"/>

<path fill="#5F4794" stroke="none" d="
M 457.1 813
L 369 813 148.05 813
Q 162.2373046875 829.7873046875 178.25 845.8 244.4166015625 911.9275390625 323.65 946.4
L 457.1 813 Z"/>

<path fill="#666666" stroke="none" d="
M 509 984
Q 510.5 984 512 984 527.25 984 542.1 983.2 545.6 983 549.05 982.75 579.1 980.6 607.75 975.05 619.55 972.75 631.15 969.9 751.75 939.85 845.8 845.8 861.805859375 829.7830078125 875.95 813
L 457.1 813 323.65 946.4
Q 344.31875 955.410546875 365.85 962.25 367.594921875 962.8083984375 369.35 963.35 423.9 980.15 484.1 983.3 484.3 983.3 484.5 983.3 496.65 983.9 509 984
M 565.3 704.8
L 538.15 731.9 565.3 773.3 565.3 704.8 Z"/>

<path fill="#999999" stroke="none" d="
M 565.3 704.8
L 565.3 773.3 538.15 731.9 457.1 813 875.95 813
Q 880.276171875 807.8734375 884.4 802.65
L 882.15 800.1 714.35 555.75 565.3 704.8 Z"/>

<path fill="#C6ADFD" stroke="none" d="
M 454.65 604.45
L 453.25 602.45 440.55 613.1 405.75 584.15 369.75 615.35 369 813 457.1 813 538.15 731.9 454.65 604.45
M 685.05 513.1
L 666.75 528.4 616.85 486.95 565.3 531.65 565.3 704.8 714.35 555.75 685.05 513.1 Z"/>

<path fill="#7558B6" stroke="none" d="
M 565.3 531.65
L 565.1 531.85 513.8 486.95 461.9 528.2 445 513.5 420.05 551.75 452.25 600.85 454.65 604.45 538.15 731.9 565.3 704.8 565.3 531.65
M 297.3 612.9
L 285.65 602.65 165.3 786.15
Q 162.7009765625 790.3984375 148.05 812.95
L 148.05 813 148.05 813 369 813 369.75 615.35 369.55 615.55 333.75 584.15 297.3 612.9 Z"/>

<path fill="#72E79F" stroke="none" d="
M 453.25 602.45
L 454.65 604.45 452.25 600.85 453.25 602.45 Z"/>
</g>
</defs>

<g transform="matrix( 1, 0, 0, 1, 0,0) ">
<use xlink:href="#Layer3_0_FILL"/>
</g>

<g transform="matrix( 1, 0, 0, 1, 0,0) ">
<use xlink:href="#Layer1_0_FILL"/>
</g>
</svg>
