<?xml version="1.0" encoding="utf-8"?>
<!-- Generator: flash2svg, http://dissentgraphics.com/tools/flash2svg -->
<svg xmlns:xlink="http://www.w3.org/1999/xlink" id="Apps-SSHShell" image-rendering="optimizeSpeed" baseProfile="basic" version="1.1" style="background-color:#ffffff" x="0px" y="0px" width="1024px" height="1024px" viewBox="0 0 1024 1024" enable-background="new 0 0 1024 1024" xmlns="http://www.w3.org/2000/svg">
  <defs transform="matrix(1 0 0 1 0 0) "/>
  <g id="shadow">
    <g id="shape">
      <path id="path" fill="#000000" fill-opacity="0.09803921568627451" d="M965.65,347.3 Q957.05,326.45 946.25,306.45 C942.2,298.9 937.9,291.4 933.35,284.05 913.8,252.35 889.95,222.4 861.8,194.25 769.65,102.1 658.35,56 528,56 397.65,56 286.4,102.1 194.25,194.25 102.1,286.4 56,397.65 56,528 56,658.35 102.1,769.65 194.25,861.8 286.4,953.95 397.65,1000 528,1000 658.35,1000 769.65,953.95 861.8,861.8 912.55,811 949.35,754.4 972.15,692.05 990.7,641.2 1000,586.55 1000,528 1000,483.1 994.55,440.45 983.6,400.05 982.35,395.5 981.05,390.95 979.7,386.45 975.6,373.15 970.9,360.1 965.65,347.3z"/>
    </g>
  </g>
  <g id="circle">
    <g id="shape2">
      <path id="path1" fill="#FFFFFF" fill-opacity="1" d="M968.45,382.15 C967,376.95 965.45,371.75 963.7,366.15 950.7,324.75 931.35,285.35 905.7,248.1 889,223.85 869.35,200.4 847,178.05 754.7,85.75 643.25,39.6 512.7,39.6 382.15,39.6 270.75,85.75 178.45,178.05 156.15,200.35 136.55,223.75 119.8,248.1 94.25,285.05 74.9,324.45 61.75,366.15 60,371.55 58.45,376.85 57,382.15 51.45,402.35 47.25,423.05 44.45,444.2 41.5,466.4 40,489.05 40,512.3 40,542.1 42.4,570.85 47.15,598.2 50.1,615.5 53.95,632.05 58.65,648.2 59.45,650.95 60.3,653.7 61.05,656.25 73.95,697.6 92.55,736.25 116.85,772.25 134.55,798.45 155,823.15 178.45,846.6 260.6,928.8 357.95,974.4 470.4,983.35 484.25,984.5 498.35,985.05 512.7,985.05 643.25,985.05 754.7,938.9 847,846.6 870.55,823.05 891.1,798.25 908.65,772.25 926,746.4 940.45,719.35 951.95,691.1 956.55,679.75 960.65,668.2 964.45,656.25 965.2,653.7 966.05,650.95 966.85,648.2 971.55,632.05 975.35,615.5 978.35,598.2 983.05,570.85 985.45,542.1 985.45,512.3 Q985.45,477.335 981.025,444.2 L981.05,444.2 C978.25,423.2 974.05,402.45 968.45,382.15z"/>
    </g>
  </g>
  <g id="film">
    <g id="shape4">
      <path id="path2" fill="#F7DA64" fill-opacity="1" d="M901.55,374.05 C884.85,325.9 858.35,281.3 822.2,240.6 816.3,233.95 809.95,227.25 803.4,220.7 722.95,140.25 625.85,100.05 512.05,100.05 398.25,100.05 301.15,140.25 220.7,220.7 140.25,301.15 100.05,398.25 100.05,512.05 100.05,625.85 140.25,722.95 220.7,803.4 301.15,883.85 398.25,924.05 512.05,924.05 556.95,924.05 599.25,917.8 638.5,905.4 699.9,886.05 754.7,852.1 803.4,803.4 832.4,774.4 856.15,743.25 874.7,709.9 Q924.05,621.2 924.05,512.05 C924.05,500.15 923.6,488.4 922.75,476.75 921.75,464.45 920.3,452.3 918.35,440.3 914.65,417.55 909.1,395.6 901.55,374.05z"/>
    </g>
  </g>
  <g id="film1">
    <g id="shape6">
      <path id="path3" fill="#000000" fill-opacity="0.2" d="M874.7,709.9 C875.05,709.25 875.4,708.65 875.75,708.05 L875.725,708.025 L750.05,582.35 554.05,568.4 436.75,451.1 286.05,626.05 579.1,919.1 C599.75,916 619.5,911.4 638.5,905.4 699.9,886.05 754.7,852.1 803.4,803.4 Q846.85,759.9 874.7,709.9z"/>
    </g>
  </g>
  <g id="camera-shadow">
    <g id="shape8">
      <path id="path4" fill="#333333" fill-opacity="1" d="M748.8,581.05 C742.6,574.9 735.1,571.8 726.35,571.8 L520,571.8 C511.25,571.8 503.8,574.9 497.6,581.05 491.45,587.25 488.35,594.65 488.35,603.4 488.35,612.15 491.45,619.7 497.6,625.85 503.8,632.05 511.25,635.15 520,635.15 L726.35,635.15 C735.1,635.15 742.6,632.05 748.8,625.85 755,619.7 758.1,612.15 758.1,603.4 758.1,594.65 755,587.25 748.8,581.05z M307.6,334.9 C298.9,334.9 291.5,338 285.3,344.2 279.2,350.3 276.1,357.7 276.1,366.35 276.1,375.05 279.2,382.45 285.3,388.55 L381.55,484.75 285.4,580.9 C279.2,587.1 276.1,594.5 276.05,603.15 276.1,611.8 279.2,619.25 285.3,625.35 291.5,631.45 298.9,634.5 307.5,634.6 316.25,634.6 323.65,631.5 329.85,625.35 L436.75,518.35 C459.2,496 459.2,473.55 436.75,451.1 L329.75,344.1 Q320.55,334.9 307.6,334.9z"/>
    </g>
  </g>
</svg>