<?xml version="1.0" encoding="utf-8"?>
<!-- Generator: flash2svg, http://dissentgraphics.com/tools/flash2svg -->
<svg id="Apps-Cinema4D" image-rendering="optimizeSpeed" baseProfile="basic" version="1.1" style="background-color:#FFFFFF" x="0px" y="0px" width="1024px" height="1024px" viewBox="0 0 1024 1024" enable-background="new 0 0 1024 1024" xmlns="http://www.w3.org/2000/svg" xmlns:xlink="http://www.w3.org/1999/xlink">
  <defs transform="matrix(1 0 0 1 0 0) "/>
  <g id="background-circle-shadow">
    <g id="shape">
      <path id="path" fill="#000000" fill-opacity="0.09803921568627451" d="M969.6,351.25 Q961,330.4 950.2,310.4 C946.15,302.85 941.85,295.35 937.3,288 917.75,256.3 893.9,226.35 865.75,198.2 773.6,106.05 662.3,59.95 531.95,59.95 401.6,59.95 290.35,106.05 198.2,198.2 106.05,290.35 59.95,401.6 59.95,531.95 59.95,662.3 106.05,773.6 198.2,865.75 290.35,957.9 401.6,1003.95 531.95,1003.95 662.3,1003.95 773.6,957.9 865.75,865.75 916.5,814.95 953.3,758.35 976.1,696 994.65,645.15 1003.95,590.5 1003.95,531.95 1003.95,487.05 998.5,444.4 987.55,404 986.3,399.45 985,394.9 983.65,390.4 979.55,377.1 974.85,364.05 969.6,351.25z"/>
    </g>
  </g>
  <g id="background-circle">
    <g id="shape2">
      <path id="path1" fill="#222345" fill-opacity="1" d="M969.7,392 C968.6,387.65 967.35,383 966.05,378.4 965.05,375 964.05,371.55 962.9,367.9 961.3,362.75 959.5,357.4 957.6,352.05 951.15,333.8 943.45,316 934.45,298.4 930.65,291 926.5,283.45 922.15,276 901.85,241.5 876.35,208.8 845.8,178.25 773.2,105.65 688.65,61.6 592.15,46.2 575.9,43.6 559.35,41.8 542.1,40.85 532.4,40.3 522.25,40 512,40 502.65,40 493.4,40.25 484.1,40.75 365.75,46.85 263.8,92.7 178.25,178.25 Q40,316.5 40,512 C40,642.35 86.1,753.65 178.25,845.8 234.95,902.45 298.8,941.7 369.35,963.35 406.1,974.6 444.15,981.2 484.1,983.3 484.25,983.3 484.35,983.3 484.5,983.3 493,983.75 501.1,984 509,984 510.2,984 511.1,984 512,984 522.3,984 532.5,983.7 542.1,983.2 544.6,983.05 546.85,982.9 549.05,982.75 569.25,981.3 588.95,978.7 607.75,975.05 615.7,973.5 623.55,971.75 631.15,969.9 711.95,949.6 783.3,908.3 845.8,845.8 894.4,797.2 930.2,743.3 953.15,684 971.6,636.35 981.8,585.2 983.7,530.5 983.9,524.45 984,518.25 984,512 984,511.35 984,510.65 984,510 984,509.65 984,509.35 984,509 983.8,468.35 979.05,429.5 969.7,392z"/>
    </g>
  </g>
  <g id="object-shadow">
    <g id="shape4">
      <path id="path2" fill="#000000" fill-opacity="0.2" d="M953.15,684 C970.65,638.85 980.7,590.6 983.35,538.9 L744.1,299.65 289.225,735.375 537.3,983.45 Q539.699,983.329 542.1,983.2 C544.6,983.05 546.85,982.9 549.05,982.75 569.25,981.3 588.95,978.7 607.75,975.05 615.7,973.5 623.55,971.75 631.15,969.9 711.95,949.6 783.3,908.3 845.8,845.8 894.4,797.2 930.2,743.3 953.15,684z"/>
    </g>
  </g>
  <g id="Calque.__201">
    <g id="shape6">
      <path id="path3" fill="#196CBF" fill-opacity="1" d="M677.9,636.1 C679.2,634.45 680.45,632.75 681.75,630.9 658.55,647.6 632.8,658.75 604.75,664.2 591.3,666.8 577.35,668.1 562.85,668.1 505.7,668.1 456.9,647.9 416.45,607.45 376.05,567.05 355.85,518.25 355.85,461.1 355.85,416.35 368.25,376.75 393,342.25 383.45,349.1 374.35,356.9 365.6,365.65 325.2,406.05 305,454.85 305,511.95 305,569.2 325.2,617.95 365.6,658.35 406,698.75 454.8,719 512,718.95 569.1,718.95 617.9,698.75 658.3,658.35 665.4,651.25 671.9,643.9 677.9,636.1z"/>
      <path id="path4" fill="#999999" fill-opacity="1" d="M724.5,278.3 C714.95,269.6 705.15,261.45 694.95,254.1 685.6,264.5 675.95,273.5 666.15,281.1 681.6,290.2 695.85,301.35 709.2,314.7 722.75,328.25 734,342.75 742.85,357.9 750.45,348 759.45,338.35 769.85,329 762.5,318.8 754.35,309 745.6,299.45 742.25,295.8 738.8,292.25 735.25,288.7 731.7,285.15 728.15,281.7 724.5,278.3z"/>
      <path id="path5" fill="#FFFFFF" fill-opacity="1" d="M666.15,281.1 C675.95,273.5 685.6,264.5 694.95,254.1 680.25,243.4 664.95,234.2 648.85,226.35 607.5,206.3 561.85,196.2 512,196.25 424.8,196.25 350.4,227.1 288.7,288.75 Q196.25,381.25 196.25,512.05 C196.25,599.25 227.05,673.65 288.65,735.3 350.3,796.9 424.75,827.75 511.95,827.75 599.1,827.75 673.55,796.9 735.2,735.25 796.65,673.8 827.5,599.65 827.7,512.8 827.7,512.5 827.7,512.2 827.7,511.95 827.75,443 808.45,381.95 769.85,329 759.45,338.35 750.45,348 742.85,357.9 717,391.6 707.55,428.2 714.6,467.85 714.95,469.4 715.2,470.95 715.5,472.45 717.8,485.15 718.95,498.3 719,511.95 718.95,556.85 706.5,596.6 681.75,630.9 680.45,632.75 679.2,634.45 677.9,636.1 671.9,643.9 665.4,651.25 658.3,658.35 617.9,698.75 569.1,718.95 512,718.95 454.8,719 406,698.75 365.6,658.35 325.2,617.95 305,569.2 305,511.95 305,454.85 325.2,406.05 365.6,365.65 374.35,356.9 383.45,349.1 393,342.25 416.35,325.45 442.05,314.3 470.05,308.9 483.6,306.25 497.55,304.95 512,304.95 524.05,305 535.7,305.9 547,307.7 548.5,307.95 550,308.2 551.5,308.45 553,308.75 554.55,309 556.1,309.35 567.8,311.45 579.25,312.1 590.2,311.35 617.1,309.4 642.3,299.35 666.15,281.1z"/>
      <path id="path6" fill="#1C87F2" fill-opacity="1" d="M709.2,314.7 C695.85,301.35 681.6,290.2 666.15,281.1 642.3,299.35 617.1,309.4 590.2,311.35 579.25,312.1 567.8,311.45 556.1,309.35 554.55,309 553,308.75 551.5,308.45 550,308.2 548.5,307.95 547,307.7 535.7,305.9 524.05,305 512,304.95 497.55,304.95 483.6,306.25 470.05,308.9 442.05,314.3 416.35,325.45 393,342.25 368.25,376.75 355.85,416.35 355.85,461.1 355.85,518.25 376.05,567.05 416.45,607.45 456.9,647.9 505.7,668.1 562.85,668.1 577.35,668.1 591.3,666.8 604.75,664.2 632.8,658.75 658.55,647.6 681.75,630.9 706.5,596.6 718.95,556.85 719,511.95 718.95,498.3 717.8,485.15 715.5,472.45 715.2,470.95 714.95,469.4 714.6,467.85 707.55,428.2 717,391.6 742.85,357.9 734,342.75 722.75,328.25 709.2,314.7z M508,330.2 C517.95,330.2 527.2,331.9 535.75,335.35 544.85,338.95 553.15,344.5 560.65,352 575.2,366.55 582.45,384.1 582.45,404.65 582.45,425.2 575.2,442.75 560.65,457.3 546.1,471.85 528.55,479.1 508,479.1 487.45,479.1 469.9,471.85 455.35,457.3 440.8,442.75 433.55,425.2 433.55,404.65 433.55,384.1 440.8,366.55 455.35,352 466.1,341.25 478.5,334.5 492.55,331.7 497.5,330.7 502.65,330.2 508,330.2z"/>
      <path id="path7" fill="#4F9FEF" fill-opacity="1" d="M508,330.2 C502.65,330.2 497.5,330.7 492.55,331.7 478.5,334.5 466.1,341.25 455.35,352 440.8,366.55 433.55,384.1 433.55,404.65 433.55,425.2 440.8,442.75 455.35,457.3 469.9,471.85 487.45,479.1 508,479.1 528.55,479.1 546.1,471.85 560.65,457.3 575.2,442.75 582.45,425.2 582.45,404.65 582.45,384.1 575.2,366.55 560.65,352 553.15,344.5 544.85,338.95 535.75,335.35 527.2,331.9 517.95,330.2 508,330.2z M458.75,366.65 C464.6,360.8 471.7,357.9 480,357.9 488.3,357.9 495.35,360.8 501.2,366.65 507.05,372.5 510,379.6 510,387.9 510,396.2 507.05,403.25 501.2,409.1 495.35,414.95 488.3,417.9 480,417.9 471.7,417.9 464.6,414.95 458.75,409.1 452.9,403.25 450,396.2 450,387.9 450,379.6 452.9,372.5 458.75,366.65z"/>
      <path id="path10" fill="#97C4F2" fill-opacity="1" d="M458.75,366.65 C452.9,372.5 450,379.6 450,387.9 450,396.2 452.9,403.25 458.75,409.1 464.6,414.95 471.7,417.9 480,417.9 488.3,417.9 495.35,414.95 501.2,409.1 507.05,403.25 510,396.2 510,387.9 510,379.6 507.05,372.5 501.2,366.65 495.35,360.8 488.3,357.9 480,357.9 471.7,357.9 464.6,360.8 458.75,366.65z"/>
    </g>
  </g>
</svg>