<?xml version="1.0" encoding="utf-8"?>
<!-- Generator: flash2svg, http://dissentgraphics.com/tools/flash2svg -->
<svg xmlns:xlink="http://www.w3.org/1999/xlink" id="Unison-app" image-rendering="optimizeSpeed" baseProfile="basic" version="1.1" style="background-color:#ffffff" x="0px" y="0px" width="1024px" height="1024px" viewBox="0 0 1024 1024" enable-background="new 0 0 1024 1024" xmlns="http://www.w3.org/2000/svg">
  <defs transform="matrix(1 0 0 1 0 0) "/>
  <g id="shadow">
    <g id="shape">
      <path id="path" fill="#000000" fill-opacity="0.09803921568627451" d="M966,348.1 C965.85,347.85 965.75,347.55 965.65,347.3 Q957.05,326.45 946.25,306.45 C942.2,298.9 937.9,291.4 933.35,284.05 913.8,252.35 889.95,222.4 861.8,194.25 769.65,102.1 658.35,56 528,56 397.65,56 286.4,102.1 194.25,194.25 102.1,286.4 56,397.65 56,528 56,619.6 78.75,701.75 124.05,774.2 L124.05,774.175 L124.05,348.1 965.975,348.1"/>
      <path id="path1" fill="#000000" fill-opacity="0.09803921568627451" d="M1000,528 C1000,483.1 994.55,440.45 983.6,400.05 982.35,395.5 981.05,390.95 979.7,386.45 975.7,373.4 971.15,360.65 966,348.1 L965.975,348.1 L124.05,348.1 124.05,774.175 L124.05,774.2 C143.5,805.3 166.85,834.4 194.25,861.8 229.05,896.6 266.55,924.8 306.45,946.25 L306.425,946.25 L749.625,946.25 L749.65,946.25 C789.8,924.55 827.15,896.45 861.8,861.8 912.55,811 949.35,754.4 972.15,692.05 990.7,641.2 1000,586.55 1000,528z"/>
      <path id="path3" fill="#000000" fill-opacity="0.09803921568627451" d="M306.45,946.25 C373.1,982.15 446.85,1000 528,1000 609.35,1000 683.25,982.05 749.65,946.25 L749.625,946.25 L306.425,946.25"/>
    </g>
  </g>
  <g id="BackgroundInner">
    <g id="shape7">
      <path id="path5" fill="#999999" fill-opacity="1" d="M957.55,348.1 C934.9,285.9 898,229.05 847,178.05 754.7,85.75 643.25,39.6 512.7,39.6 382.15,39.6 270.75,85.75 178.45,178.05 86.15,270.35 40,381.75 40,512.3 40,614.15 68.1,704.4 124.05,782.65 140.1,805.1 158.15,826.3 178.45,846.6 221.95,890.1 269.65,923.35 321.45,946.25 367.85,966.8 417.45,979.15 470.4,983.35 484.25,984.5 498.35,985.05 512.7,985.05 582,985.05 645.9,972.05 704,946.25 756.15,923.05 803.7,889.9 847,846.6 893.9,799.7 928.9,747.85 951.95,691.1 974.3,636.15 985.45,576.55 985.45,512.3 Q985.45,424.424 957.55,348.1z"/>
    </g>
  </g>
  <g id="LogoBg">
    <g id="shape9">
      <path id="path6" fill="#000000" fill-opacity="0.2" d="M985.45,512.3 Q985.45,494.021 984.25,476.25 L760.95,252.95 C752.8,288.2 693.3,348.05 582.4,432.4 L582.375,432.375 L436.05,286.05 348.05,760.05 569.95,981.95 C617.45,976.75 662.25,964.8 704,946.25 756.15,923.05 803.7,889.9 847,846.6 893.9,799.7 928.9,747.85 951.95,691.1 974.3,636.15 985.45,576.55 985.45,512.3z"/>
    </g>
  </g>
  <g id="Logo">
    <g id="Symbole.__2010_1" overflow="visible">
      <g id="Calque.__202">
        <g id="shape23">
          <path id="path17" fill="#CCCCCC" fill-opacity="1" d="M755.25,247 L735.25,227 735.25,348.05 755.25,368.05 755.25,247z M428.65,276.8 C425.3,273.45 421.85,270.4 418.05,267.45 431.3,284.65 438.1,304.35 438.65,326.6 L438.65,348.05 458.65,368.05 458.65,346.6 C458,319.45 448,296.15 428.65,276.8z"/>
          <path id="path18" fill="#FFFFFF" fill-opacity="1" d="M683.15,227 C656.35,227.75 633.35,237.75 614.15,256.95 594.8,276.3 584.8,299.6 584.2,326.75 L584.15,348.05 735.25,348.05 735.25,227 683.15,227z M418.05,267.45 C415.3,263.9 412.15,260.3 408.65,256.8 401.3,249.45 393.35,243.45 384.85,238.8 372.2,231.85 358.35,227.9 343.1,227 L288.8,227 288.8,348.05 438.65,348.05 438.65,326.6 C438.1,304.35 431.3,284.65 418.05,267.45z"/>
          <path id="path19" fill="#741A13" fill-opacity="1" d="M755.25,368.05 L735.25,348.05 735.25,545.8 C735.25,626.05 722.9,684.8 698.25,722.05 L674.1,753.45 C666.2,761.2 656.2,768.15 644.1,774.25 L613.2,787.55 578.85,793.85 531.25,797 443.25,795.25 C428.4,794.3 409.5,789.55 386.45,781 374.65,776.6 364.35,771.15 355.35,764.45 367.1,780.5 384.1,792.65 406.45,801 429.5,809.55 448.4,814.3 463.25,815.25 L551.25,817 598.85,813.85 633.2,807.55 664.1,794.25 C676.2,788.15 686.2,781.2 694.1,773.45 L718.25,742.05 C742.9,704.8 755.25,646.05 755.25,565.8 L755.25,368.05z M458.65,368.05 L438.65,348.05 438.65,545.8 C438.65,598.35 444.45,630.8 456.1,643.2 460.05,647.3 464.75,650.75 469.8,653.3 462.45,637.5 458.65,608.2 458.65,565.8 L458.65,368.05z"/>
          <path id="path20" fill="#990000" fill-opacity="1" d="M735.25,348.05 L584.15,348.05 584.15,545.8 C584.15,571.95 582.85,593.05 580.3,609.2 577.55,625.15 573.4,635.9 567.75,641.55 556,655.4 538,662.3 513.85,662.3 496.1,662.3 481.5,659.4 469.8,653.3 464.75,650.75 460.05,647.3 456.1,643.2 444.45,630.8 438.65,598.35 438.65,545.8 L438.65,348.05 288.8,348.05 288.8,545.8 C288.8,594.15 293.45,634.95 302.8,668.15 312,701.3 322.55,726.35 334.5,743.3 340.2,751.35 347.2,758.45 355.35,764.45 364.35,771.15 374.65,776.6 386.45,781 409.5,789.55 428.4,794.3 443.25,795.25 L531.25,797 578.85,793.85 613.2,787.55 644.1,774.25 C656.2,768.15 666.2,761.2 674.1,753.45 L698.25,722.05 C722.9,684.8 735.25,626.05 735.25,545.8 L735.25,348.05z"/>
        </g>
      </g>
    </g>
  </g>
</svg>