
<svg xmlns="http://www.w3.org/2000/svg" version="1.1" xmlns:xlink="http://www.w3.org/1999/xlink" preserveAspectRatio="none" x="0px" y="0px" width="1024px" height="1024px" viewBox="0 0 1024 1024">
<defs>
<g id="Layer6_0_FILL">
<path fill="#000000" fill-opacity="0.09803921568627451" stroke="none" d="
M 969.6 351.25
Q 961 330.4 950.2 310.4 944.1 299.05 937.3 288 907.95 240.45 865.75 198.2 727.5 59.95 531.95 59.95 336.45 59.95 198.2 198.2 59.95 336.45 59.95 531.95 59.95 727.5 198.2 865.75 336.45 1003.95 531.95 1003.95 727.5 1003.95 865.75 865.75 941.9 789.55 976.1 696 1003.95 619.75 1003.95 531.95 1003.95 464.6 987.55 404 985.7 397.15 983.65 390.4 977.5 370.45 969.6 351.25 Z"/>
</g>

<g id="Layer5_0_FILL">
<path fill="#426098" stroke="none" d="
M 969.7 392
Q 967.95 385.15 966.05 378.4 964.52578125 373.114453125 962.85 367.85 960.3787109375 359.903125 957.6 352.05 947.85 324.5 934.45 298.4 928.65 287.05 922.15 276 891.5 224 845.8 178.25 736.8 69.25 592.15 46.2 567.65 42.3 542.1 40.85 527.2 40 512 40 497.9 40 484.1 40.75 306.55 49.95 178.25 178.25 40 316.5 40 512 40 707.55 178.25 845.8 263.0400390625 930.55703125 369.35 963.35 423.8880859375 980.1630859375 484.1 983.3 484.3 983.3 484.5 983.3 496.65 983.9 509 984 510.5 984 512 984 527.25 984 542.1 983.2 545.6 983 549.05 982.75 579.1 980.6 607.75 975.05 619.55 972.75 631.15 969.9 751.75 939.85 845.8 845.8 918.7 772.85 953.15 684 980.9 612.4 983.7 530.5 984 521.3 984 512 984 511 984 510 984 509.5 984 509 983.65 447.7 969.7 392 Z"/>
</g>

<g id="Layer4_0_FILL">
<path fill="#000000" fill-opacity="0.2" stroke="none" d="
M 979.75 578.75
L 736.35 335.35 592 260.2 462 254 276.7 371 256.05 510 212.3 676.65 519.6 983.95
Q 530.9625 983.8 542.1 983.2 545.6 983 549.05 982.75 579.1 980.6 607.75 975.05 619.55 972.75 631.15 969.9 751.75 939.85 845.8 845.8 918.7 772.85 953.15 684 972.565625 633.904296875 979.75 578.75 Z"/>
</g>

<g id="Layer3_0_FILL">
<path fill="#999999" stroke="none" d="
M 225.55 529.05
Q 225.55 526.85 225.9 524.8 207.7 529.35 193.75 546.9 174.95 570.65 174.95 604.2 174.95 637.75 193.75 661.45 207.6 678.9 225.6 683.55 225.55 682.7 225.55 681.85
L 225.55 529.05
M 801 524.8
Q 801.35 526.85 801.35 529.05
L 801.35 681.85
Q 801.35 682.7 801.3 683.55 819.3 678.9 833.1 661.45 851.95 637.75 851.95 604.2 851.95 570.65 833.1 546.9 819.2 529.35 801 524.8
M 717.05 306.85
L 717.05 306.8
Q 641.3 231.15 534.25 231.15 534.15 231.15 492.05 231.15 385.15 231.2 309.55 306.8
L 309.5 306.85
Q 290.85 325.55 276.85 346.1 271.65 353.7 273.4 362.7 274.25 367.35 276.7 371 279 374.45 282.7 376.95 287.35 380.1 292.45 380.75 295.75 381.15 299.35 380.5 308.35 378.75 313.6 371.15 325.35 353.95 340.95 338.3 403.6 275.7 492.05 275.6 534.15 275.6 534.25 275.6 622.85 275.6 685.6 338.3
L 685.65 338.3
Q 701.2 353.95 713.05 371.2 718.25 378.75 727.25 380.5 730.85 381.15 734.2 380.75 739.3 380.1 743.95 376.95 747.6 374.45 749.95 371 752.35 367.35 753.25 362.7 754.95 353.7 749.75 346.05 735.7 325.5 717.05 306.85 Z"/>

<path fill="#FFFFFF" stroke="none" d="
M 232.95 511.25
Q 227.1 517.1 225.9 524.8 225.55 526.85 225.55 529.05
L 225.55 681.85
Q 225.55 682.7 225.6 683.55 226.15 692.85 232.95 699.65 240.3 707.05 250.75 707.05
L 270.05 707.05
Q 272.55 707.05 274.85 706.6
L 274.85 504.3
Q 272.55 503.9 270.05 503.9
L 265.65 503.9 250.75 503.9
Q 248.9 503.9 247.2 504.15 239 505.2 232.95 511.25
M 801 524.8
Q 799.8 517.1 793.95 511.25 787.75 505.05 779.4 504.1 777.8 503.9 776.15 503.9
L 760.95 503.9 756.85 503.9
Q 754.35 503.9 752.05 504.3
L 752.05 706.6
Q 754.35 707.05 756.85 707.05
L 776.15 707.05
Q 786.55 707.05 793.95 699.65 800.75 692.85 801.3 683.55 801.35 682.7 801.35 681.85
L 801.35 529.05
Q 801.35 526.85 801 524.8 Z"/>

<path fill="#333333" stroke="none" d="
M 280.75 477.85
Q 274.85 483.8 274.85 492.15
L 274.85 504.3 274.85 706.6 274.85 712.1
Q 274.85 720.45 280.75 726.3 286.65 732.2 295 732.2
L 315.15 732.2
Q 323.5 732.2 329.4 726.3 335.3 720.45 335.3 712.1
L 335.3 492.15
Q 335.3 483.8 329.4 477.85 323.5 472 315.15 472
L 295 472
Q 286.65 472 280.75 477.85
M 752.05 492.15
Q 752.05 483.8 746.15 477.85 740.25 472 731.9 472
L 711.75 472
Q 703.4 472 697.5 477.85 691.6 483.8 691.6 492.15
L 691.6 712.1
Q 691.6 720.45 697.5 726.3 703.4 732.2 711.75 732.2
L 731.9 732.2
Q 740.25 732.2 746.15 726.3 752.05 720.45 752.05 712.1
L 752.05 706.6 752.05 504.3 752.05 492.15 Z"/>

<path fill="#CCCCCC" stroke="none" d="
M 282.7 376.95
Q 279 374.45 276.7 371 246.8 424.15 246.8 489.65 246.8 496.95 247.2 504.15 248.9 503.9 250.75 503.9
L 265.65 503.9
Q 265.3 496.85 265.3 489.65 265.3 429.6 292.45 380.75 287.35 380.1 282.7 376.95
M 749.95 371
Q 747.6 374.45 743.95 376.95 739.3 380.1 734.2 380.75 761.3 429.6 761.3 489.65 761.3 496.85 760.95 503.9
L 776.15 503.9
Q 777.8 503.9 779.4 504.1 779.75 496.95 779.75 489.65 779.75 424.15 749.95 371 Z"/>
</g>

<g id="Layer1_0_FILL">
<path fill="#333333" stroke="none" d="
M 479.55 756.3
L 479.55 764.65
Q 479.55 776.15 487.65 784.25 495.75 792.35 507.25 792.35
L 560.95 792.35
Q 572.45 792.35 580.55 784.25 588.65 776.15 588.65 764.65
L 588.65 756.3
Q 588.65 744.75 580.55 736.65 572.45 728.55 560.95 728.55
L 507.25 728.55
Q 495.75 728.55 487.65 736.65 479.55 744.75 479.55 756.3 Z"/>
</g>

<g id="Layer0_0_FILL">
<path fill="#FFFFFF" stroke="none" d="
M 498.55 563.25
Q 499.5 559.2 497.55 555.45 472.1 508.6 437.7 498.15 403.05 486.4 359.8 511.8 356.9 513.55 355.5 516.55 354.05 519.6 354.55 522.9 364.45 587.15 401.3 597.5 435.7 609.85 494.15 569.65 497.6 567.25 498.55 563.25
M 662.25 511.05
Q 658.65 509.65 655.05 510.85
L 532.45 550.3
Q 528.4 551.55 526.3 555.3 524.2 559 525.15 563.1 526.1 567.2 529.6 569.65 588 609.85 622.45 597.5 659.25 587.15 669.15 522.9 669.7 519.1 667.8 515.75 665.8 512.4 662.25 511.05 Z"/>
</g>

<path id="Layer2_0_1_STROKES" stroke="#CCCCCC" stroke-width="26" stroke-linejoin="round" stroke-linecap="round" fill="none" d="
M 773.35 674.85
Q 710.65 766.15 566 757.95"/>
</defs>

<g transform="matrix( 1, 0, 0, 1, 0,0) ">
<use xlink:href="#Layer6_0_FILL"/>
</g>

<g transform="matrix( 1, 0, 0, 1, 0,0) ">
<use xlink:href="#Layer5_0_FILL"/>
</g>

<g transform="matrix( 1, 0, 0, 1, 0,0) ">
<use xlink:href="#Layer4_0_FILL"/>
</g>

<g transform="matrix( 1, 0, 0, 1, 0,0) ">
<use xlink:href="#Layer3_0_FILL"/>
</g>

<g transform="matrix( 1, 0, 0, 1, 0,0) ">
<use xlink:href="#Layer2_0_1_STROKES"/>
</g>

<g transform="matrix( 1, 0, 0, 1, 0,0) ">
<use xlink:href="#Layer1_0_FILL"/>
</g>

<g transform="matrix( 1, 0, 0, 1, 0,0) ">
<use xlink:href="#Layer0_0_FILL"/>
</g>
</svg>
