<?xml version="1.0" encoding="utf-8"?>
<!-- Generator: flash2svg, http://dissentgraphics.com/tools/flash2svg -->
<svg xmlns:xlink="http://www.w3.org/1999/xlink" id="Codekit" image-rendering="optimizeSpeed" baseProfile="basic" version="1.1" style="background-color:#ffffff" x="0px" y="0px" width="1024px" height="1024px" viewBox="0 0 1024 1024" enable-background="new 0 0 1024 1024" xmlns="http://www.w3.org/2000/svg">
  <defs transform="matrix(1 0 0 1 0 0) "/>
  <g id="shadow">
    <g id="shape">
      <path id="path" fill="#000000" fill-opacity="0.09803921568627451" d="M969.65,351.3 Q961.05,330.45 950.25,310.45 C946.2,302.9 941.9,295.4 937.35,288.05 917.8,256.35 893.95,226.4 865.8,198.25 773.65,106.1 662.35,60 532,60 401.65,60 290.4,106.1 198.25,198.25 106.1,290.4 60,401.65 60,532 60,662.35 106.1,773.65 198.25,865.8 290.4,957.95 401.65,1004 532,1004 662.35,1004 773.65,957.95 865.8,865.8 916.55,815 953.35,758.4 976.15,696.05 994.7,645.2 1004,590.55 1004,532 1004,487.1 998.55,444.45 987.6,404.05 986.35,399.5 985.05,394.95 983.7,390.45 979.6,377.15 974.9,364.1 969.65,351.3z"/>
    </g>
  </g>
  <g id="ico-shadow">
    <g id="shape2">
      <path id="path1" fill="#FFFFFF" fill-opacity="1" d="M727.2,91.75 C718.5,87.4 709.35,83.1 699.95,79.05 691.35,75.3 682.8,71.85 674.05,68.65 631.95,52.9 589.8,43.3 547.6,40 478.2,34.4 408.65,45.4 338.7,73 315.25,82.3 293.05,92.9 272.1,104.9 230.8,128.6 194.5,157.55 163.6,191.6 Q112,248.2 79.05,324.15 C58.8,370.8 46.2,417.6 41.2,463.8 43.7,589.25 89.65,696.7 179.05,786.05 271,878 382.05,924 512.1,924 642.15,924 753.2,878 845.15,786.05 934.3,696.9 980.25,589.75 982.95,464.65 982.75,462.8 982.5,460.8 982.25,458.8 980.25,442.4 977.3,425.95 973.3,409.1 967.85,385.95 960.45,362.35 951.1,338.7 923.55,268.95 884.1,210.65 832.5,163.6 813.75,146.5 793.15,130.8 770.95,116.65 757.1,107.75 742.65,99.55 727.2,91.75z"/>
      <path id="path2" fill="#999999" fill-opacity="1" d="M937.4,716.75 C940,711.25 942.55,705.65 945.05,699.9 945.3,699.3 945.6,698.65 945.85,698.05 946,697.75 946.1,697.45 946.25,697.15 949.05,690.55 951.7,683.9 954.35,677.15 966,646.5 974.5,615.5 979.7,584.1 980.4,579.7 981.1,574.95 981.8,570.2 982.7,562.85 983.55,555.35 984.15,547.6 984.25,546.15 984.4,544.45 984.55,542.65 985.85,523.35 985.85,503.95 984.65,484.25 984.2,477.85 983.65,471.35 982.95,464.65 980.25,589.75 934.3,696.9 845.15,786.05 753.2,878 642.15,924 512.1,924 382.05,924 271,878 179.05,786.05 89.65,696.7 43.7,589.25 41.2,463.8 40.75,468.25 40.35,472.4 40,476.55 36.3,522.15 39.8,567.3 50.25,612.55 55.95,637.1 63.5,661.3 73,685.4 100.7,755.35 140.25,813.8 191.55,860.5 223,889.15 258.75,913.35 298.85,933.3 299,933.35 299.1,933.4 299.2,933.45 302.3,935 305.3,936.45 307.85,937.6 312.75,939.95 317.1,941.95 321.45,943.85 322.55,944.3 323.35,944.7 324.2,945.05 333.65,949.15 343.1,952.9 352.1,956.25 354.45,957.1 356.6,957.9 358.7,958.65 377.75,965.35 396.9,970.8 415.6,974.95 423.5,976.65 431.4,978.2 439.1,979.5 440.05,979.7 441.05,979.8 441.8,979.95 453.45,981.8 465,983.2 476.55,984.15 546.35,989.6 615.75,978.6 685.4,951.1 709.75,941.5 732.7,930.45 754.2,917.95 789.3,897.6 820.65,873.45 848.3,845.45 852.45,841.25 856.5,836.95 860.55,832.55 868.95,823.3 877.05,813.6 884.8,803.45 904.85,777.3 922.35,748.35 937.4,716.75z"/>
    </g>
  </g>
  <g id="ico-shadow1">
    <g id="shape6">
      <path id="path3" fill="#999999" fill-opacity="1" d="M937.4,716.75 C940,711.25 942.55,705.65 945.05,699.9 945.3,699.3 945.6,698.65 945.85,698.05 946,697.75 946.1,697.45 946.25,697.15 949.05,690.55 951.7,683.9 954.35,677.15 966,646.5 974.5,615.5 979.7,584.1 980.4,579.7 981.1,574.95 981.8,570.2 982.7,562.85 983.55,555.35 984.15,547.6 984.25,546.15 984.4,544.45 984.55,542.65 985.55,527.7 985.8,512.65 985.3,497.3 985.1,493.05 984.9,488.65 984.65,484.25 984.2,477.85 983.65,471.35 982.95,464.65 982.75,474.4 982.25,484.05 981.55,493.55 972.8,606.35 927.35,703.85 845.15,786.05 762.1,869.1 663.45,914.65 548.75,922.75 537.05,923.55 524.65,924 512.1,924 382.05,924 271,878 179.05,786.05 89.65,696.7 43.7,589.25 41.2,463.8 40.75,468.25 40.35,472.4 40,476.55 36.3,522.15 39.8,567.3 50.25,612.55 55.95,637.1 63.5,661.3 73,685.4 100.7,755.35 140.25,813.8 191.55,860.5 223,889.15 258.75,913.35 298.85,933.3 299,933.35 299.1,933.4 299.2,933.45 302.3,935 305.3,936.45 307.85,937.6 312.75,939.95 317.1,941.95 321.45,943.85 Q322.8,944.45 324.2,945.05 C333.65,949.15 343.1,952.9 352.1,956.25 354.45,957.1 356.6,957.9 358.7,958.65 377.75,965.35 396.9,970.8 415.6,974.95 423.5,976.65 431.4,978.2 439.1,979.5 440.05,979.7 441.05,979.8 441.8,979.95 453.45,981.8 465,983.2 476.55,984.15 518.55,987.45 560.4,984.75 602.2,976.2 629.95,970.4 657.65,962.05 685.4,951.1 709.75,941.5 732.7,930.45 754.2,917.95 789.3,897.6 820.65,873.45 848.3,845.45 852.45,841.25 856.5,836.95 860.55,832.55 868.95,823.3 877.05,813.6 884.8,803.45 904.85,777.3 922.35,748.35 937.4,716.75z"/>
    </g>
  </g>
  <g id="ico">
    <g id="shape8">
      <path id="path4" fill="#999999" fill-opacity="1" d="M937.4,716.75 C940,711.25 942.55,705.65 945.05,699.9 945.3,699.3 945.6,698.65 945.85,698.05 946,697.75 946.1,697.45 946.25,697.15 949.05,690.55 951.7,683.9 954.35,677.15 966,646.5 974.5,615.5 979.7,584.1 980.4,579.7 981.1,574.95 981.8,570.2 982.7,562.85 983.55,555.35 984.15,547.6 984.25,546.15 984.4,544.45 984.55,542.65 985.15,533.7 985.5,524.7 985.6,515.6 985.6,505.25 985.3,494.8 984.65,484.25 984.2,477.85 983.65,471.35 982.95,464.65 982.6,480.1 981.6,495.3 980,510 968.2,615.95 923.3,707.9 845.15,786.05 759.65,871.55 657.65,917.3 539.35,923.35 530.3,923.75 521.25,924 512.1,924 382.05,924 271,878 179.05,786.05 89.65,696.7 43.7,589.25 41.2,463.8 40.75,468.25 40.35,472.4 40,476.55 36.3,522.15 39.8,567.3 50.25,612.55 55.95,637.1 63.5,661.3 73,685.4 100.7,755.35 140.25,813.8 191.55,860.5 223,889.15 258.75,913.35 298.85,933.3 299,933.35 299.1,933.4 299.2,933.45 302.3,935 305.3,936.45 307.85,937.6 312.75,939.95 317.1,941.95 321.45,943.85 Q322.8,944.45 324.2,945.05 C333.65,949.15 343.1,952.9 352.1,956.25 354.45,957.1 356.6,957.9 358.7,958.65 377.75,965.35 396.9,970.8 415.6,974.95 423.5,976.65 431.4,978.2 439.1,979.5 440.05,979.7 441.05,979.8 441.8,979.95 453.45,981.8 465,983.2 476.55,984.15 515.8,987.2 554.95,985.05 593.85,977.85 624.5,972 654.95,963.15 685.4,951.1 709.75,941.5 732.7,930.45 754.2,917.95 789.3,897.6 820.65,873.45 848.3,845.45 852.45,841.25 856.5,836.95 860.55,832.55 868.95,823.3 877.05,813.6 884.8,803.45 904.85,777.3 922.35,748.35 937.4,716.75z"/>
      <path id="path5" fill="#000000" fill-opacity="0.2" d="M980,510 L806.05,336.05 586.05,368.05 448.05,230.05 238.85,421.525 332.05,716.05 539.325,923.325 L539.35,923.35 C657.65,917.3 759.65,871.55 845.15,786.05 923.3,707.9 968.2,615.95 980,510z"/>
    </g>
  </g>
  <g id="circle">
    <g id="Symbole.__2013_1" overflow="visible">
      <g id="Calque.__205">
        <g id="Symbole.__2015_3" overflow="visible">
          <g id="Calque.__206">
            <g id="shape20">
              <path id="path14" fill="#FFCC00" fill-opacity="1" d="M648,198.05 C648.35,198.2 648.75,198.35 649.1,198.55 651.85,199.8 654.4,201.5 656.75,203.55 L857.75,383.25 C860.15,385.4 862.15,387.85 863.8,390.65 863.95,390.85 864.05,391.05 864.2,391.3 L869.4,400.55 C871.45,404.2 872.7,407.95 873.15,411.9 873.2,412 873.2,412.1 873.2,412.15 873.25,412.65 873.3,413.15 873.3,413.6 873.55,417.5 873.05,421.25 871.8,424.8 L871.8,424.75 868.95,432.9 C868.9,433.1 868.85,433.3 868.75,433.55 867.6,436.9 865.9,439.85 863.6,442.5 L705.15,622.6 C702.6,625.45 699.5,627.7 695.95,629.35 695.8,629.4 695.7,629.45 695.55,629.5 L686.85,633.2 687,633.15 C679.9,636.45 672.3,636.5 664.15,633.25 L655.6,629.8 C655.15,629.65 654.75,629.45 654.3,629.3 651.25,627.9 648.35,626.05 645.7,623.75 645.65,623.65 645.55,623.55 645.45,623.5 L623.8,603.85 C621.55,601.75 619.55,599.4 617.9,596.75 617.65,596.3 617.45,595.9 617.2,595.45 L612.6,587.45 612.55,587.4 C610.9,584.5 609.75,581.55 609.05,578.3 608.9,577.55 608.75,576.7 608.65,575.8 L608.65,575.55 C608.2,571.25 608.6,567.15 609.9,563.2 L612.85,554.25 C612.95,554 613.05,553.8 613.1,553.55 614.3,550.5 615.9,547.8 617.85,545.4 618.2,545 618.5,544.65 618.85,544.3 L692.375,460.95 732.95,414.95 587,284.55 C586.55,284.2 586.1,283.8 585.65,283.4 583.3,281.15 581.3,278.65 579.65,275.9 579.6,275.75 579.5,275.55 579.35,275.4 L574.6,266.75 C574.45,266.5 574.25,266.2 574.1,265.95 572.25,262.4 571.1,258.75 570.6,254.95 L570.6,254.725 L570.6,254.75 C570.6,254.6 570.6,254.5 570.55,254.45 570.2,250.65 570.55,247 571.5,243.55 571.6,243.1 571.7,242.7 571.85,242.3 L574.8,233.5 C574.9,233.3 575,233.1 575.05,232.9 576.25,229.7 577.85,226.9 579.9,224.5 580.2,224.15 580.5,223.8 580.85,223.5 L596.65,205.65 C596.85,205.35 597.05,205.1 597.3,204.85 599.65,202.15 602.45,200.05 605.65,198.5 605.85,198.4 606.05,198.3 606.2,198.25 L613.95,194.45 C617.85,192.5 622,191.55 626.45,191.55 630.45,191.5 634.4,192.3 638.3,193.95 L648,198.05z"/>
              <path id="path15" fill="#FF9900" fill-opacity="1" d="M585.65,283.4 C586.1,283.8 586.55,284.2 587,284.55 L732.95,414.95 692.375,460.95 589.95,369.4 C589.5,369.05 589.05,368.65 588.6,368.25 586.25,366 584.25,363.5 582.6,360.75 582.55,360.6 582.45,360.4 582.3,360.25 L577.55,351.6 C577.4,351.35 577.2,351.05 577.05,350.8 575.2,347.25 574.05,343.6 573.55,339.8 573.55,339.6 573.55,339.45 573.5,339.3 573.45,338.7 573.45,338.1 573.4,337.55 573.4,337.4 573.4,337.3 573.4,337.2 573.4,336.6 573.4,336 573.4,335.45 L570.6,254.95 C571.1,258.75 572.25,262.4 574.1,265.95 574.25,266.2 574.45,266.5 574.6,266.75 L579.35,275.4 C579.5,275.55 579.6,275.75 579.65,275.9 581.3,278.65 583.3,281.15 585.65,283.4z M871.8,424.8 C873.05,421.25 873.55,417.5 873.3,413.6 873.35,413.6 873.35,413.6 873.4,413.6 L876.3,498.55 876.25,498.45 C876.5,502.3 876,506.05 874.75,509.6 L871.9,517.75 C871.85,517.95 871.8,518.15 871.7,518.4 870.55,521.75 868.85,524.7 866.55,527.35 L708.1,707.45 C705.55,710.3 702.45,712.55 698.9,714.2 698.75,714.25 698.65,714.3 698.5,714.35 L689.8,718.05 689.95,718 C682.85,721.3 675.25,721.35 667.1,718.1 L658.55,714.65 C658.1,714.5 657.7,714.3 657.25,714.15 654.2,712.75 651.3,710.9 648.65,708.6 648.6,708.5 648.5,708.4 648.4,708.35 L626.75,688.7 C624.5,686.6 622.5,684.25 620.85,681.6 620.6,681.15 620.4,680.75 620.15,680.3 L615.55,672.3 615.5,672.25 C613.55,668.8 612.3,665.25 611.75,661.55 L608.65,587.55 C608.3,584.4 608.45,581.35 609.05,578.3 609.75,581.55 610.9,584.5 612.55,587.4 L612.6,587.45 617.2,595.45 C617.45,595.9 617.65,596.3 617.9,596.75 619.55,599.4 621.55,601.75 623.8,603.85 L645.45,623.5 C645.55,623.55 645.65,623.65 645.7,623.75 648.35,626.05 651.25,627.9 654.3,629.3 654.75,629.45 655.15,629.65 655.6,629.8 L664.15,633.25 C672.3,636.5 679.9,636.45 687,633.15 L686.85,633.2 695.55,629.5 C695.7,629.45 695.8,629.4 695.95,629.35 699.5,627.7 702.6,625.45 705.15,622.6 L863.6,442.5 C865.9,439.85 867.6,436.9 868.75,433.55 868.85,433.3 868.9,433.1 868.95,432.9 L871.8,424.75 871.8,424.8z"/>
            </g>
          </g>
        </g>
        <g id="Symbole.__2015_4" overflow="visible">
          <g id="Calque.__207">
            <g id="shape21">
              <path id="path16" fill="#FFCC00" fill-opacity="1" d="M376.15,198.05 C375.8,198.2 375.4,198.35 375.05,198.55 372.3,199.8 369.75,201.5 367.4,203.55 L166.4,383.25 C164,385.4 162,387.85 160.35,390.65 160.2,390.85 160.1,391.05 159.95,391.3 L154.75,400.55 C152.7,404.2 151.45,407.95 151,411.9 150.95,412 150.95,412.1 150.95,412.15 150.9,412.65 150.85,413.15 150.85,413.6 150.6,417.5 151.1,421.25 152.35,424.8 L152.35,424.75 155.2,432.9 C155.25,433.1 155.3,433.3 155.4,433.55 156.55,436.9 158.25,439.85 160.55,442.5 L319,622.6 C321.55,625.45 324.65,627.7 328.2,629.35 328.35,629.4 328.45,629.45 328.6,629.5 L337.3,633.2 337.15,633.15 C344.25,636.45 351.85,636.5 360,633.25 L368.55,629.8 C369,629.65 369.4,629.45 369.85,629.3 372.9,627.9 375.8,626.05 378.45,623.75 378.5,623.65 378.6,623.55 378.7,623.5 L400.35,603.85 C402.6,601.75 404.6,599.4 406.25,596.75 406.5,596.3 406.7,595.9 406.95,595.45 L411.55,587.45 411.6,587.4 C413.25,584.5 414.4,581.55 415.1,578.3 415.25,577.55 415.4,576.7 415.5,575.8 L415.5,575.55 C415.95,571.25 415.55,567.15 414.25,563.2 L411.3,554.25 C411.2,554 411.1,553.8 411.05,553.55 409.85,550.5 408.25,547.8 406.3,545.4 405.95,545 405.65,544.65 405.3,544.3 L331.775,460.95 291.2,414.95 437.15,284.55 C437.6,284.2 438.05,283.8 438.5,283.4 440.85,281.15 442.85,278.65 444.5,275.9 444.55,275.75 444.65,275.55 444.8,275.4 L449.55,266.75 C449.7,266.5 449.9,266.2 450.05,265.95 451.9,262.4 453.05,258.75 453.55,254.95 L453.55,254.725 L453.55,254.75 C453.55,254.6 453.55,254.5 453.6,254.45 453.95,250.65 453.6,247 452.65,243.55 452.55,243.1 452.45,242.7 452.3,242.3 L449.35,233.5 C449.25,233.3 449.15,233.1 449.1,232.9 447.9,229.7 446.3,226.9 444.25,224.5 443.95,224.15 443.65,223.8 443.3,223.5 L427.5,205.65 C427.3,205.35 427.1,205.1 426.85,204.85 424.5,202.15 421.7,200.05 418.5,198.5 418.3,198.4 418.1,198.3 417.95,198.25 L410.2,194.45 C406.3,192.5 402.15,191.55 397.7,191.55 393.7,191.5 389.75,192.3 385.85,193.95 L376.15,198.05z"/>
              <path id="path17" fill="#FF9900" fill-opacity="1" d="M438.5,283.4 C438.05,283.8 437.6,284.2 437.15,284.55 L291.2,414.95 331.775,460.95 434.2,369.4 C434.65,369.05 435.1,368.65 435.55,368.25 437.9,366 439.9,363.5 441.55,360.75 441.6,360.6 441.7,360.4 441.85,360.25 L446.6,351.6 C446.75,351.35 446.95,351.05 447.1,350.8 448.95,347.25 450.1,343.6 450.6,339.8 450.6,339.6 450.6,339.45 450.65,339.3 450.7,338.7 450.7,338.1 450.75,337.55 450.75,337.4 450.75,337.3 450.75,337.2 450.75,336.6 450.75,336 450.75,335.45 L453.55,254.95 C453.05,258.75 451.9,262.4 450.05,265.95 449.9,266.2 449.7,266.5 449.55,266.75 L444.8,275.4 C444.65,275.55 444.55,275.75 444.5,275.9 442.85,278.65 440.85,281.15 438.5,283.4z M152.35,424.8 C151.1,421.25 150.6,417.5 150.85,413.6 150.8,413.6 150.8,413.6 150.75,413.6 L147.85,498.55 147.9,498.45 C147.65,502.3 148.15,506.05 149.4,509.6 L152.25,517.75 C152.3,517.95 152.35,518.15 152.45,518.4 153.6,521.75 155.3,524.7 157.6,527.35 L316.05,707.45 C318.6,710.3 321.7,712.55 325.25,714.2 325.4,714.25 325.5,714.3 325.65,714.35 L334.35,718.05 334.2,718 C341.3,721.3 348.9,721.35 357.05,718.1 L365.6,714.65 C366.05,714.5 366.45,714.3 366.9,714.15 369.95,712.75 372.85,710.9 375.5,708.6 375.55,708.5 375.65,708.4 375.75,708.35 L397.4,688.7 C399.65,686.6 401.65,684.25 403.3,681.6 403.55,681.15 403.75,680.75 404,680.3 L408.6,672.3 408.65,672.25 C410.6,668.8 411.85,665.25 412.4,661.55 L415.5,587.55 C415.85,584.4 415.7,581.35 415.1,578.3 414.4,581.55 413.25,584.5 411.6,587.4 L411.55,587.45 406.95,595.45 C406.7,595.9 406.5,596.3 406.25,596.75 404.6,599.4 402.6,601.75 400.35,603.85 L378.7,623.5 C378.6,623.55 378.5,623.65 378.45,623.75 375.8,626.05 372.9,627.9 369.85,629.3 369.4,629.45 369,629.65 368.55,629.8 L360,633.25 C351.85,636.5 344.25,636.45 337.15,633.15 L337.3,633.2 328.6,629.5 C328.45,629.45 328.35,629.4 328.2,629.35 324.65,627.7 321.55,625.45 319,622.6 L160.55,442.5 C158.25,439.85 156.55,436.9 155.4,433.55 155.3,433.3 155.25,433.1 155.2,432.9 L152.35,424.75 152.35,424.8z"/>
            </g>
          </g>
        </g>
      </g>
    </g>
  </g>
</svg>