<?xml version="1.0" encoding="utf-8"?>
<!-- Generator: flash2svg, http://dissentgraphics.com/tools/flash2svg -->
<svg xmlns:xlink="http://www.w3.org/1999/xlink" id="Simple-Comic" image-rendering="optimizeSpeed" baseProfile="basic" version="1.1" style="background-color:#ffffff" x="0px" y="0px" width="1024px" height="1024px" viewBox="0 0 1024 1024" enable-background="new 0 0 1024 1024" xmlns="http://www.w3.org/2000/svg">
  <defs transform="matrix(1 0 0 1 0 0) "/>
  <g id="shadow">
    <g id="shape">
      <path id="path" fill="#000000" fill-opacity="0.09803921568627451" d="M969.65,351.3 Q961.05,330.45 950.25,310.45 C946.2,302.9 941.9,295.4 937.35,288.05 917.8,256.35 893.95,226.4 865.8,198.25 773.65,106.1 662.35,60 532,60 401.65,60 290.4,106.1 198.25,198.25 106.1,290.4 60,401.65 60,532 60,662.35 106.1,773.65 198.25,865.8 290.4,957.95 401.65,1004 532,1004 662.35,1004 773.65,957.95 865.8,865.8 916.55,815 953.35,758.4 976.15,696.05 994.7,645.2 1004,590.55 1004,532 1004,487.1 998.55,444.45 987.6,404.05 986.35,399.5 985.05,394.95 983.7,390.45 979.6,377.15 974.9,364.1 969.65,351.3z"/>
    </g>
  </g>
  <g id="circle">
    <g id="shape2">
      <path id="path1" fill="#436485" fill-opacity="1" d="M966.1,378.45 C963.6,369.7 960.75,360.85 957.65,352.1 951.2,333.85 943.5,316.05 934.5,298.45 930.7,291.05 926.55,283.5 922.2,276.05 901.9,241.55 876.4,208.85 845.85,178.3 773.25,105.7 688.7,61.65 592.2,46.25 575.95,43.65 559.4,41.85 542.15,40.9 532.45,40.35 522.3,40.05 512.05,40.05 502.7,40.05 493.45,40.3 484.15,40.8 365.8,46.9 263.85,92.75 178.3,178.3 Q40.05,316.55 40.05,512.05 C40.05,642.4 86.15,753.7 178.3,845.85 248.7,916.2 330.2,959.7 422.25,976.25 442.7,979.9 463.15,982.25 484.15,983.35 484.3,983.35 484.4,983.35 484.55,983.35 493.05,983.8 501.15,984.05 509.05,984.05 510.25,984.05 511.15,984.05 512.05,984.05 522.35,984.05 532.55,983.75 542.15,983.25 544.65,983.1 546.9,982.95 549.1,982.8 569.3,981.35 589,978.75 607.8,975.1 615.75,973.55 623.6,971.8 631.2,969.95 712,949.65 783.35,908.35 845.85,845.85 894.45,797.25 930.25,743.35 953.2,684.05 971.65,636.4 981.85,585.25 983.75,530.55 983.95,524.5 984.05,518.3 984.05,512.05 984.05,511.4 984.05,510.7 984.05,510.05 984.05,509.7 984.05,509.4 984.05,509.05 983.95,489.15 982.8,469.7 980.5,450.5 978.1,430.7 974.55,411.2 969.75,392.05 968.65,387.7 967.4,383.05 966.1,378.45z"/>
    </g>
  </g>
  <mask id="circle1">
    <g id="g">
      <g id="shape55">
        <path id="path42" fill="#FFFFFF" fill-opacity="1" d="M969.75,392.05 C968.65,387.7 967.4,383.05 966.1,378.45 963.6,369.7 960.75,360.85 957.65,352.1 951.2,333.85 943.5,316.05 934.5,298.45 930.7,291.05 926.55,283.5 922.2,276.05 901.9,241.55 876.4,208.85 845.85,178.3 773.25,105.7 688.7,61.65 592.2,46.25 575.95,43.65 559.4,41.85 542.15,40.9 532.45,40.35 522.3,40.05 512.05,40.05 502.7,40.05 493.45,40.3 484.15,40.8 365.8,46.9 263.85,92.75 178.3,178.3 Q40.05,316.55 40.05,512.05 C40.05,642.4 86.15,753.7 178.3,845.85 248.7,916.2 330.2,959.7 422.25,976.25 442.7,979.9 463.15,982.25 484.15,983.35 484.3,983.35 484.4,983.35 484.55,983.35 493.05,983.8 501.15,984.05 509.05,984.05 510.25,984.05 511.15,984.05 512.05,984.05 522.35,984.05 532.55,983.75 542.15,983.25 544.65,983.1 546.9,982.95 549.1,982.8 569.3,981.35 589,978.75 607.8,975.1 615.75,973.55 623.6,971.8 631.2,969.95 712,949.65 783.35,908.35 845.85,845.85 894.45,797.25 930.25,743.35 953.2,684.05 971.65,636.4 981.85,585.25 983.75,530.55 983.95,524.5 984.05,518.3 984.05,512.05 984.05,511.4 984.05,510.7 984.05,510.05 984.05,509.7 984.05,509.4 984.05,509.05 983.95,489.15 982.8,469.7 980.5,450.5 978.1,430.7 974.55,411.2 969.75,392.05z"/>
      </g>
    </g>
  </mask>
  <g id="masked" mask="url(#circle1)">
    <g id="Calque.__203">
      <g id="shape4">
        <path id="path2" fill="#666666" fill-opacity="1" d="M980.7,309.45 L980.65,40.15 487.5,40.05 C503,105.95 539.25,164.15 596.05,214.8 674.65,284.9 769.25,319.85 880.3,319.85 915.35,319.85 948.75,316.4 980.7,309.45z"/>
        <path id="path3" fill="#223040" fill-opacity="1" d="M980.65,741.25 L980.65,493.6 980.7,309.45 C948.75,316.4 915.35,319.85 880.3,319.85 769.25,319.85 674.65,284.9 596.05,214.8 539.25,164.15 503,105.95 487.5,40.05 L40.35,40.05 40.45,501.65 40.35,749.15 C184.3,707.4 345.85,686.35 525,686.4 692.2,686.4 844.15,704.6 980.65,741.25z"/>
      </g>
    </g>
    <g id="Calque.__204">
      <g id="shape8">
        <path id="path4" fill="#FFFFFF" fill-opacity="1" d="M929.3,440.4 C927.4,440.5 925.6,441.1 924.15,442.55 922.8,444 922,445.65 922,447.7 922.1,449.65 922.7,451.35 924.1,452.75 925.6,454.1 927.35,454.9 929.2,454.8 931.35,454.9 933,454.2 934.35,452.75 Q936.5,450.6 936.5,447.7 C936.5,445.65 935.8,443.9 934.35,442.55 933,441.2 931.35,440.4 929.3,440.4z M940.1,618.15 C942.05,618.05 943.6,617.25 945,616 946.25,614.7 946.95,613.05 946.95,611.2 947.05,609.4 946.35,607.65 945,606.4 943.6,605 942.05,604.4 940.2,604.4 938.3,604.4 936.65,605 935.3,606.45 934,607.75 933.35,609.4 933.35,611.25 933.35,613.15 933.95,614.7 935.3,616.05 936.65,617.45 938.3,618.05 940.1,618.15z M916.3,671.25 C914.5,669.45 912.4,668.7 910,668.6 907.65,668.6 905.4,669.55 903.75,671.25 901.95,672.95 901.2,675.1 901.2,677.6 901.1,680 901.95,682.05 903.75,683.85 905.5,685.5 907.55,686.35 910,686.35 912.35,686.4 914.5,685.55 916.3,683.75 918,682.05 918.75,680 918.75,677.5 918.95,675 918,672.9 916.3,671.25z M180.05,156.1 C178.85,154.9 177.4,154.3 175.75,154.3 174.05,154.3 172.65,154.95 171.45,156.1 170.25,157.35 169.75,158.65 169.75,160.3 169.75,162.1 170.25,163.35 171.45,164.65 172.65,165.75 174.05,166.35 175.75,166.45 177.45,166.45 178.85,165.75 179.95,164.65 181.25,163.35 181.85,162 181.85,160.35 181.85,158.55 181.25,157.2 180.05,156.1z M74.45,181.6 C72.75,181.6 71.4,182.15 70.2,183.35 69.05,184.6 68.45,186 68.4,187.6 68.4,189.35 69,190.7 70.2,191.9 71.4,193.1 72.75,193.7 74.45,193.7 76.1,193.7 77.45,193.1 78.65,191.9 79.95,190.7 80.45,189.35 80.45,187.6 80.45,185.9 79.85,184.55 78.65,183.4 77.55,182.15 76.1,181.7 74.45,181.6z M206.7,430.8 C206.7,429 206.1,427.45 204.8,426.2 203.5,425 202.05,424.4 200.15,424.4 198.45,424.4 197,425.05 195.7,426.2 194.45,427.45 193.85,429.1 193.75,430.8 193.85,432.45 194.5,434 195.7,435.2 196.9,436.55 198.45,437.25 200.25,437.25 201.95,437.25 203.5,436.65 204.8,435.2 206.1,434 206.7,432.5 206.7,430.8z M68.4,667.05 C68.4,668.85 69.05,670.3 70.35,671.6 71.65,672.9 73.2,673.5 74.9,673.5 76.7,673.55 78.25,672.9 79.45,671.7 80.65,670.3 81.25,668.85 81.25,667.05 81.25,665.25 80.65,663.8 79.35,662.5 78.25,661.3 76.7,660.7 74.9,660.65 73.2,660.65 71.55,661.25 70.25,662.5 69,663.8 68.4,665.35 68.4,667.05z"/>
        <path id="path5" fill="#66CCFF" fill-opacity="1" d="M833.7,570.65 C833.7,568.95 833.1,567.3 831.7,566.05 830.4,564.85 828.95,564.25 827.15,564.25 825.45,564.25 823.9,564.85 822.6,566.05 821.4,567.3 820.8,568.75 820.8,570.55 820.8,572.35 821.4,573.9 822.6,575.1 823.9,576.5 825.45,577.1 827.25,577.1 828.9,577.1 830.4,576.5 831.6,575.1 832.9,573.9 833.6,572.35 833.7,570.65z M859.3,618.15 C859.4,614.25 858.1,611.1 855.35,608.45 852.6,605.8 849.45,604.4 845.75,604.4 841.9,604.35 838.75,605.7 836,608.35 833.4,611.1 832.05,614.2 832.05,618.05 831.95,621.7 833.4,625 836,627.55 838.65,630.4 841.9,631.65 845.65,631.75 849.45,631.75 852.6,630.4 855.35,627.65 858,625.05 859.3,621.8 859.3,618.15z M137.6,109.2 C138.75,110.25 140.1,110.85 141.55,110.85 143.1,110.85 144.4,110.25 145.5,109.2 146.6,108.1 147.2,106.8 147.2,105.2 147.15,103.75 146.6,102.35 145.5,101.25 144.4,100.2 143.1,99.6 141.55,99.7 140,99.7 138.65,100.2 137.6,101.25 136.5,102.35 135.8,103.75 135.9,105.25 136,106.75 136.4,108 137.6,109.2z M100.6,140.65 C100.6,143.05 101.45,145.1 103.15,146.9 104.9,148.55 107.1,149.4 109.45,149.4 111.9,149.5 113.95,148.65 115.7,146.85 117.4,145.1 118.25,143.05 118.25,140.65 118.25,138.2 117.5,136.05 115.7,134.3 113.95,132.6 111.9,131.75 109.35,131.75 106.95,131.75 104.9,132.5 103.15,134.3 101.45,136.1 100.6,138.2 100.6,140.65z"/>
        <path id="path6" fill="#666666" fill-opacity="1" d="M941.4,531 C938.9,528.5 935.75,527.2 932.15,527.2 928.45,527.3 925.3,528.5 922.7,531.05 920.15,533.65 918.85,536.8 918.75,540.4 918.85,544.1 920.05,547.25 922.7,549.75 925.3,552.5 928.45,553.7 932.15,553.75 935.8,553.75 938.9,552.5 941.45,549.75 943.95,547.15 945.35,544.1 945.35,540.4 945.4,536.8 944.05,533.7 941.4,531z M104.3,83.75 C100.95,80.4 96.9,78.7 92.2,78.7 87.3,78.7 83.3,80.4 79.95,83.75 76.6,87.1 74.9,91.2 74.8,95.95 75,100.75 76.6,104.75 79.85,108.25 83.4,111.6 87.4,113.35 92.2,113.25 96.9,113.35 101.05,111.7 104.35,108.25 107.7,104.75 109.45,100.75 109.35,96 109.45,91.2 107.8,87.1 104.3,83.75z M102.65,559.85 C94.75,567.75 91,577.15 91,588.3 90.9,599.45 94.95,608.85 102.65,616.6 110.55,624.55 120.05,628.4 131.2,628.5 142.25,628.5 151.65,624.55 159.45,616.65 167.35,608.85 171.4,599.35 171.3,588.2 171.4,577.15 167.35,567.85 159.45,559.95 151.75,552.05 142.25,548.1 131.1,548.05 120.15,548.1 110.65,552.05 102.65,559.85z"/>
      </g>
    </g>
    <g id="Calque.__205">
      <g id="shape34">
        <path id="path29" fill="#C04C00" fill-opacity="1" d="M713.1,336.55 L713,319.85 C713.1,275.35 697.45,237.5 666,206.15 634.6,174.85 596.75,159.1 552.35,159.1 L449.45,159.1 C404.95,159.1 367.1,174.75 335.75,206.15 Q330.35,211.45 325.8,217 L555.55,371.35 530,271.75 661.7,361.65 658.45,294.15 713.1,336.55z"/>
        <path id="path30" fill="#E6B6AA" fill-opacity="1" d="M713.1,336.55 L658.45,294.15 661.7,361.65 530,271.75 555.55,371.35 325.8,217 C301.1,246.15 288.6,280.35 288.6,319.85 L288.8,696 C288.7,699.45 288.8,702.55 288.95,705.95 L712.85,705.85 C712.95,702.6 713.1,699.35 713.1,696 L713.1,336.55z"/>
      </g>
    </g>
    <g id="Calque.__206">
      <g id="shape38">
        <path id="path31" fill="#FFFFFF" fill-opacity="1" d="M664.85,438.7 C664.85,435.6 664.6,432.45 664.25,429.35 L530.4,429.35 C530,432.45 529.8,435.6 529.8,438.8 529.75,457.35 536.35,473.4 549.6,486.6 562.8,499.7 578.75,506.4 597.35,506.2 616,506.3 631.95,499.8 645.05,486.5 658.25,473.2 664.85,457.35 664.85,438.7z M488,438.85 C488,435.6 487.75,432.5 487.5,429.45 L353.65,429.35 C353.2,432.45 353.05,435.6 353.05,438.8 Q352.95,466.7 372.85,486.6 C385.95,499.8 401.95,506.3 420.5,506.3 439.15,506.3 455.1,499.7 468.2,486.5 481.4,473.3 488.1,457.45 488,438.85z"/>
        <path id="path34" fill="#AA8D83" fill-opacity="1" d="M512.15,634.9 C557,634.9 595.2,628.5 627,615.65 657.5,603.15 673.45,588.2 674.55,570.9 L349.85,570.9 C350.9,588.3 366.65,603.2 397.25,615.65 429.05,628.5 467.25,634.9 512.15,634.9z"/>
      </g>
    </g>
    <g id="Calque.__207">
      <g id="shape43">
        <path id="path35" fill="#FFFFFF" fill-opacity="0.2" d="M785.85,736.65 C861.85,660.7 899.9,569.05 899.9,461.55 Q899.85,300.3 785.95,186.25 C709.95,110.25 618.15,72.3 510.65,72.3 403.25,72.35 311.4,110.35 235.5,186.15 159.45,262.25 121.4,354.05 121.4,461.55 121.5,568.95 159.45,660.65 235.5,736.7 311.5,812.65 403.25,850.7 510.65,850.7 618.15,850.6 709.95,812.65 785.85,736.65z"/>
      </g>
    </g>
    <g id="Calque.__208">
      <g id="shape45">
        <path id="path36" fill="#773E21" fill-opacity="1" d="M513.95,1133.2 L514.6,1133.2 C514.65,1133.2 514.75,1133.2 514.8,1133.2 515.35,1133.2 515.85,1133.2 516.4,1133.2 L516.4,1133.175 L513.125,1133.175 L513.15,1133.2 C513.35,1133.2 513.55,1133.2 513.75,1133.2 513.8,1133.2 513.9,1133.2 513.95,1133.2z M511.4,757.05 C508.25,757.1 505.1,757.2 502.05,757.35 455.6,760.2 415.5,778.5 381.75,812.2 345.05,848.85 326.75,893.15 326.65,945.15 326.65,997.1 345.05,1041.35 381.75,1078 382.2,1078.55 382.6,1078.95 383.05,1079.4 416,1111.85 455.2,1129.65 499.75,1132.7 508.8,1132.7 518.35,1132.75 528.3,1132.8 574.05,1129.75 613.15,1112.05 646.3,1079.4 646.8,1079.05 647.2,1078.55 647.6,1078.05 684.4,1041.3 702.75,997 702.75,945.15 702.75,893.15 684.35,848.85 647.7,812.2 624.25,788.75 597.75,772.7 568.15,764.15 563.9,763 559.55,761.95 555.2,761.1 542.6,758.45 529,757.05 514.8,757.05 514.25,757.05 513.7,757.05 513.15,757.05 512.6,757.05 512,757.05 511.4,757.05z"/>
        <path id="path39" fill="#B55523" fill-opacity="1" d="M502.05,757.35 C505.1,757.2 508.25,757.1 511.4,757.05 512,757.05 512.6,757.05 513.15,757.05 513.7,757.05 514.25,757.05 514.8,757.05 529,757.05 542.6,758.45 555.2,761.1 559.55,761.95 563.9,763 568.15,764.15 597.75,772.7 624.25,788.75 647.7,812.2 684.35,848.85 702.75,893.15 702.75,945.15 702.75,997 684.4,1041.3 647.6,1078.05 647.2,1078.55 646.8,1079.05 646.3,1079.4 613.15,1112.05 574.05,1129.75 528.3,1132.8 525.95,1132.95 523.6,1133.05 521.25,1133.15 533.6,1133 539.9,1132.9 540.25,1132.85 543.75,1132.9 547.3,1132.95 550.9,1133 L550.875,1133 L549.425,1133.025 980.65,1133.3 980.65,741.25 C844.15,704.6 692.2,686.4 525,686.4 345.85,686.35 184.3,707.4 40.35,749.15 L40.35,1133.1 509.975,1133.15 L510,1133.15 C506.55,1133.1 503.1,1132.95 499.75,1132.7 455.2,1129.65 416,1111.85 383.05,1079.4 382.6,1078.95 382.2,1078.55 381.75,1078 345.05,1041.35 326.65,997.1 326.65,945.15 326.75,893.15 345.05,848.85 381.75,812.2 415.5,778.5 455.6,760.2 502.05,757.35z"/>
      </g>
    </g>
    <g id="Calque.__209">
      <g id="shape51">
        <path id="path40" fill="#FFFF66" fill-opacity="1" d="M527.05,790.8 L526.95,790.8 C523.85,789.05 520.3,788.65 516.7,789.55 513.15,790.45 510.4,792.25 508.4,795.05 508.3,795.15 508.3,795.25 508.25,795.25 L405.75,939.35 C403.4,942.45 402.55,945.85 402.95,949.65 403.4,953.45 404.95,956.65 407.9,959.1 410.7,961.5 413.9,962.8 417.65,962.7 L502.85,962.8 446.6,1062.65 C446.5,1062.8 446.35,1062.95 446.3,1063 444.45,1066.25 443.9,1069.8 444.65,1073.4 445.45,1076.9 447.2,1079.75 450,1081.85 450.1,1082.05 450.2,1082.15 450.4,1082.25 453.25,1084.45 456.5,1085.45 460.15,1085.15 460.3,1085.15 460.45,1085.15 460.7,1085.15 464.1,1084.75 467.15,1083.3 469.65,1080.85 469.75,1080.7 470,1080.5 470.15,1080.3 L633.3,917.05 C636.2,914.1 637.65,910.65 637.7,906.55 637.65,902.5 636.2,898.95 633.4,896.1 633.2,895.95 633,895.85 632.9,895.75 630.15,893.05 626.85,891.7 622.95,891.75 L505.6,891.7 534.05,809.35 Q534.1,809.1 534.25,808.8 C535.5,805.35 535.45,801.95 534.05,798.45 533.95,798.2 533.95,798.1 533.8,797.9 532.4,794.75 530.2,792.35 527.05,790.8z"/>
      </g>
    </g>
    <g id="Calque.__210">
      <g id="shape53">
        <path id="path41" fill="#FFFFFF" fill-opacity="0.8" d="M333.6,298.15 C357.75,274.1 374.1,249.05 382.35,223.2 390.75,197.4 388.6,178.3 376.2,165.85 363.75,153.45 344.55,151.45 318.7,159.6 292.8,167.85 267.8,184.1 243.6,208.45 Q207.35,244.6 194.95,283.4 C186.7,309.2 188.7,328.4 201.2,340.85 213.55,353.35 232.65,355.3 258.45,347 284.4,338.7 309.45,322.4 333.6,298.15z"/>
      </g>
    </g>
  </g>
</svg>