<?xml version="1.0" encoding="utf-8"?>
<!-- Generator: flash2svg, http://dissentgraphics.com/tools/flash2svg -->
<svg xmlns:xlink="http://www.w3.org/1999/xlink" id="Apps-CommanderOne" image-rendering="optimizeSpeed" baseProfile="basic" version="1.1" style="background-color:#ffffff" x="0px" y="0px" width="1024px" height="1024px" viewBox="0 0 1024 1024" enable-background="new 0 0 1024 1024" xmlns="http://www.w3.org/2000/svg">
  <defs transform="matrix(1 0 0 1 0 0) "/>
  <g id="background-circle-shadow">
    <g id="shape">
      <path id="path" fill="#000000" fill-opacity="0.09803921568627451" d="M969.65,351.3 Q961.05,330.45 950.25,310.45 C946.2,302.9 941.9,295.4 937.35,288.05 917.8,256.35 893.95,226.4 865.8,198.25 773.65,106.1 662.35,60 532,60 401.65,60 290.4,106.1 198.25,198.25 106.1,290.4 60,401.65 60,532 60,662.35 106.1,773.65 198.25,865.8 290.4,957.95 401.65,1004 532,1004 662.35,1004 773.65,957.95 865.8,865.8 916.55,815 953.35,758.4 976.15,696.05 994.7,645.2 1004,590.55 1004,532 1004,487.1 998.55,444.45 987.6,404.05 986.35,399.5 985.05,394.95 983.7,390.45 979.6,377.15 974.9,364.1 969.65,351.3z"/>
    </g>
  </g>
  <g id="background-circle">
    <g id="shape2">
      <path id="path1" fill="#293845" fill-opacity="1" d="M966.1,378.45 C965.1,375.05 964.1,371.6 962.95,367.95 961.35,362.8 959.55,357.45 957.65,352.1 951.2,333.85 943.5,316.05 934.5,298.45 930.7,291.05 926.55,283.5 922.2,276.05 901.9,241.55 876.4,208.85 845.85,178.3 773.25,105.7 688.7,61.65 592.2,46.25 575.95,43.65 559.4,41.85 542.15,40.9 532.45,40.35 522.3,40.05 512.05,40.05 502.7,40.05 493.45,40.3 484.15,40.8 365.8,46.9 263.85,92.75 178.3,178.3 Q40.05,316.55 40.05,512.05 C40.05,642.4 86.15,753.7 178.3,845.85 235,902.5 298.85,941.75 369.4,963.4 406.15,974.65 444.2,981.25 484.15,983.35 484.3,983.35 484.4,983.35 484.55,983.35 493.05,983.8 501.15,984.05 509.05,984.05 510.25,984.05 511.15,984.05 512.05,984.05 522.35,984.05 532.55,983.75 542.15,983.25 544.65,983.1 546.9,982.95 549.1,982.8 569.3,981.35 589,978.75 607.8,975.1 615.75,973.55 623.6,971.8 631.2,969.95 712,949.65 783.35,908.35 845.85,845.85 894.45,797.25 930.25,743.35 953.2,684.05 971.65,636.4 981.85,585.25 983.75,530.55 983.95,524.5 984.05,518.3 984.05,512.05 984.05,511.4 984.05,510.7 984.05,510.05 984.05,509.7 984.05,509.4 984.05,509.05 983.85,468.4 979.1,429.55 969.75,392.05 968.65,387.7 967.4,383.05 966.1,378.45z"/>
    </g>
  </g>
  <g id="object-shadow">
    <g id="shape4">
      <path id="path2" fill="#000000" fill-opacity="0.2" d="M969.75,392.05 C969.2,389.85 968.6,387.6 967.95,385.2 L864.05,281.3 262.575,913.925 L262.6,913.95 C296.45,935.5 332,951.9 369.4,963.4 406.15,974.65 444.2,981.25 484.15,983.35 484.3,983.35 484.4,983.35 484.55,983.35 493.05,983.8 501.15,984.05 509.05,984.05 Q510.55,984.05 512.05,984.05 C522.35,984.05 532.55,983.75 542.15,983.25 544.65,983.1 546.9,982.95 549.1,982.8 569.3,981.35 589,978.75 607.8,975.1 615.75,973.55 623.6,971.8 631.2,969.95 712,949.65 783.35,908.35 845.85,845.85 894.45,797.25 930.25,743.35 953.2,684.05 971.65,636.4 981.85,585.25 983.75,530.55 983.95,524.5 984.05,518.3 984.05,512.05 984.05,511.4 984.05,510.7 984.05,510.05 984.05,509.7 984.05,509.4 984.05,509.05 983.85,468.4 979.1,429.55 969.75,392.05z"/>
    </g>
  </g>
  <mask id="background-circle1">
    <g id="g">
      <g id="shape39">
        <path id="path33" fill="#FFFFFF" fill-opacity="1" d="M966.1,378.45 C965.1,375.05 964.1,371.6 962.95,367.95 961.35,362.8 959.55,357.45 957.65,352.1 951.2,333.85 943.5,316.05 934.5,298.45 930.7,291.05 926.55,283.5 922.2,276.05 901.9,241.55 876.4,208.85 845.85,178.3 773.25,105.7 688.7,61.65 592.2,46.25 575.95,43.65 559.4,41.85 542.15,40.9 532.45,40.35 522.3,40.05 512.05,40.05 502.7,40.05 493.45,40.3 484.15,40.8 365.8,46.9 263.85,92.75 178.3,178.3 Q40.05,316.55 40.05,512.05 C40.05,642.4 86.15,753.7 178.3,845.85 235,902.5 298.85,941.75 369.4,963.4 406.15,974.65 444.2,981.25 484.15,983.35 484.3,983.35 484.4,983.35 484.55,983.35 493.05,983.8 501.15,984.05 509.05,984.05 510.25,984.05 511.15,984.05 512.05,984.05 522.35,984.05 532.55,983.75 542.15,983.25 544.65,983.1 546.9,982.95 549.1,982.8 569.3,981.35 589,978.75 607.8,975.1 615.75,973.55 623.6,971.8 631.2,969.95 712,949.65 783.35,908.35 845.85,845.85 894.45,797.25 930.25,743.35 953.2,684.05 971.65,636.4 981.85,585.25 983.75,530.55 983.95,524.5 984.05,518.3 984.05,512.05 984.05,511.4 984.05,510.7 984.05,510.05 984.05,509.7 984.05,509.4 984.05,509.05 983.85,468.4 979.1,429.55 969.75,392.05 968.65,387.7 967.4,383.05 966.1,378.45z"/>
      </g>
    </g>
  </mask>
  <g id="masked" mask="url(#background-circle1)">
    <g id="object">
      <g id="shape6">
        <path id="path3" fill="#1E9FD1" fill-opacity="1" d="M514.15,354.2 L148.85,354.2 148.85,982.05 C148.85,1011.4 156.1,1026.2 170.5,1026.2 L514.15,1026.2 514.15,354.2z"/>
        <path id="path4" fill="#354C60" fill-opacity="1" d="M851.2,1026.2 C865.6,1026.2 872.85,1011.4 872.85,982.05 L872.85,354.2 514.15,354.2 514.15,1026.2 851.2,1026.2z"/>
        <path id="path5" fill="#FFFFFF" fill-opacity="1" d="M872.85,354.2 L872.85,300.05 Q872.85,278.45 851.2,278.45 L402.05,278.45 358.15,228.45 170.5,228.45 C156.1,228.45 148.85,235.7 148.85,250.05 L148.85,354.2 514.15,354.2 872.85,354.2z M328.5,278.35 C332.1,281.95 333.85,286.2 333.85,291.25 333.85,296.3 332.1,300.6 328.5,304.15 324.9,307.75 320.65,309.5 315.6,309.5 310.55,309.5 306.3,307.75 302.7,304.15 299.1,300.6 297.35,296.3 297.35,291.25 297.35,287.45 298.3,284.1 300.45,281.1 301,280.2 301.8,279.25 302.7,278.35 306.3,274.8 310.55,273 315.6,273 319.05,273 322.15,273.85 324.8,275.45 326.15,276.3 327.35,277.25 328.5,278.35z M245.65,278.35 C249.2,274.8 253.45,273 258.55,273 262,273 265.1,273.85 267.7,275.45 269.1,276.3 270.3,277.25 271.45,278.35 275,281.95 276.75,286.2 276.75,291.25 276.75,296.3 275,300.6 271.45,304.15 267.85,307.75 263.6,309.5 258.55,309.5 253.45,309.5 249.2,307.75 245.65,304.15 242.05,300.6 240.3,296.3 240.3,291.25 240.3,287.45 241.25,284.1 243.4,281.1 243.95,280.2 244.75,279.25 245.65,278.35z M201.45,273 C204.95,273 208.05,273.85 210.65,275.45 212.05,276.3 213.25,277.25 214.35,278.35 217.95,281.95 219.7,286.2 219.7,291.25 219.7,296.3 217.95,300.6 214.35,304.15 210.8,307.75 206.55,309.5 201.45,309.5 196.4,309.5 192.15,307.75 188.55,304.15 185,300.6 183.25,296.3 183.25,291.25 183.25,287.45 184.2,284.1 186.3,281.1 186.85,280.2 187.65,279.25 188.55,278.35 192.15,274.8 196.4,273 201.45,273z"/>
        <path id="path6" fill="#C6C6C6" fill-opacity="1" d="M328.5,278.35 C327.35,277.25 326.15,276.3 324.8,275.45 322.15,273.85 319.05,273 315.6,273 310.55,273 306.3,274.8 302.7,278.35 301.8,279.25 301,280.2 300.45,281.1 298.3,284.1 297.35,287.45 297.35,291.25 297.35,296.3 299.1,300.6 302.7,304.15 306.3,307.75 310.55,309.5 315.6,309.5 320.65,309.5 324.9,307.75 328.5,304.15 332.1,300.6 333.85,296.3 333.85,291.25 333.85,286.2 332.1,281.95 328.5,278.35z"/>
        <path id="path9" fill="#C6C6C6" fill-opacity="1" d="M245.65,278.35 C244.75,279.25 243.95,280.2 243.4,281.1 241.25,284.1 240.3,287.45 240.3,291.25 240.3,296.3 242.05,300.6 245.65,304.15 249.2,307.75 253.45,309.5 258.55,309.5 263.6,309.5 267.85,307.75 271.45,304.15 275,300.6 276.75,296.3 276.75,291.25 276.75,286.2 275,281.95 271.45,278.35 270.3,277.25 269.1,276.3 267.7,275.45 265.1,273.85 262,273 258.55,273 253.45,273 249.2,274.8 245.65,278.35z"/>
        <path id="path12" fill="#C6C6C6" fill-opacity="1" d="M201.45,273 C196.4,273 192.15,274.8 188.55,278.35 187.65,279.25 186.85,280.2 186.3,281.1 184.2,284.1 183.25,287.45 183.25,291.25 183.25,296.3 185,300.6 188.55,304.15 192.15,307.75 196.4,309.5 201.45,309.5 206.55,309.5 210.8,307.75 214.35,304.15 217.95,300.6 219.7,296.3 219.7,291.25 219.7,286.2 217.95,281.95 214.35,278.35 213.25,277.25 212.05,276.3 210.65,275.45 208.05,273.85 204.95,273 201.45,273z"/>
      </g>
    </g>
    <g id="Calque.__201">
      <g id="shape20">
        <path id="path15" fill="#52789A" fill-opacity="1" d="M783.05,431.05 C783.05,429.05 782.05,428.05 780.05,428.05 L567.05,428.05 Q564.05,428.05 564.05,431.05 L564.05,446.05 C564.05,448.05 565.05,449.05 567.05,449.05 L780.05,449.05 C782.05,449.05 783.05,448.05 783.05,446.05 L783.05,431.05z M713.05,521.4 C713.05,519.4 712.05,518.4 710.05,518.4 L567.05,518.4 C565.05,518.4 564.05,519.4 564.05,521.4 L564.05,536.4 C564.05,538.4 565.05,539.4 567.05,539.4 L710.05,539.4 C712.05,539.4 713.05,538.4 713.05,536.4 L713.05,521.4z M783.05,702.1 C783.05,700.1 782.05,699.1 780.05,699.1 L567.05,699.1 C565.05,699.1 564.05,700.1 564.05,702.1 L564.05,717.1 C564.05,719.1 565.05,720.1 567.05,720.1 L780.05,720.1 C782.05,720.1 783.05,719.1 783.05,717.1 L783.05,702.1z M823.05,611.75 C823.05,609.75 822.05,608.75 820.05,608.75 L567.05,608.75 C565.05,608.75 564.05,609.75 564.05,611.75 L564.05,626.75 C564.05,628.75 565.05,629.75 567.05,629.75 L820.05,629.75 C822.05,629.75 823.05,628.75 823.05,626.75 L823.05,611.75z M564.05,792.45 L564.05,807.45 C564.05,809.45 565.05,810.45 567.05,810.45 L720.05,810.45 C722.05,810.45 723.05,809.45 723.05,807.45 L723.05,792.45 C723.05,790.45 722.05,789.45 720.05,789.45 L567.05,789.45 C565.05,789.45 564.05,790.45 564.05,792.45z"/>
        <path id="path24" fill="#36D7FF" fill-opacity="1" d="M207.05,427.05 C205.05,427.05 204.05,428.05 204.05,430.05 L204.05,445.05 C204.05,447.05 205.05,448.05 207.05,448.05 L420.05,448.05 C422.05,448.05 423.05,447.05 423.05,445.05 L423.05,430.05 C423.05,428.05 422.05,427.05 420.05,427.05 L207.05,427.05z M207.05,517.4 C205.05,517.4 204.05,518.4 204.05,520.4 L204.05,535.4 C204.05,537.4 205.05,538.4 207.05,538.4 L350.05,538.4 C352.05,538.4 353.05,537.4 353.05,535.4 L353.05,520.4 C353.05,518.4 352.05,517.4 350.05,517.4 L207.05,517.4z M207.05,607.75 C205.05,607.75 204.05,608.75 204.05,610.75 L204.05,625.75 C204.05,627.75 205.05,628.75 207.05,628.75 L460.05,628.75 C462.05,628.75 463.05,627.75 463.05,625.75 L463.05,610.75 C463.05,608.75 462.05,607.75 460.05,607.75 L207.05,607.75z M207.05,698.1 C205.05,698.1 204.05,699.1 204.05,701.1 L204.05,716.1 C204.05,718.1 205.05,719.1 207.05,719.1 L420.05,719.1 C422.05,719.1 423.05,718.1 423.05,716.1 L423.05,701.1 C423.05,699.1 422.05,698.1 420.05,698.1 L207.05,698.1z M207.05,788.45 C205.05,788.45 204.05,789.45 204.05,791.45 L204.05,806.45 C204.05,808.45 205.05,809.45 207.05,809.45 L360.05,809.45 C362.05,809.45 363.05,808.45 363.05,806.45 L363.05,791.45 C363.05,789.45 362.05,788.45 360.05,788.45 L207.05,788.45z"/>
      </g>
    </g>
  </g>
</svg>