
<svg xmlns="http://www.w3.org/2000/svg" version="1.1" xmlns:xlink="http://www.w3.org/1999/xlink" preserveAspectRatio="none" x="0px" y="0px" width="1024px" height="1024px" viewBox="0 0 1024 1024">
<defs>
<g id="Layer3_0_FILL">
<path fill="#000000" fill-opacity="0.09803921568627451" stroke="none" d="
M 969.6 351.25
Q 961 330.4 950.2 310.4 944.1 299.05 937.3 288 907.95 240.45 865.75 198.2 727.5 59.95 531.95 59.95 336.45 59.95 198.2 198.2 59.95 336.45 59.95 531.95 59.95 727.5 198.2 865.75 336.45 1003.95 531.95 1003.95 727.5 1003.95 865.75 865.75 941.9 789.55 976.1 696 1003.95 619.75 1003.95 531.95 1003.95 464.6 987.55 404 985.7 397.15 983.65 390.4 977.5 370.45 969.6 351.25 Z"/>
</g>

<g id="Layer2_0_FILL">
<path fill="#922F2B" stroke="none" d="
M 969.7 392
Q 967.95 385.15 966.05 378.4 964.52578125 373.114453125 962.85 367.85 960.3787109375 359.903125 957.6 352.05 947.85 324.5 934.45 298.4 928.65 287.05 922.15 276 891.5 224 845.8 178.25 736.8 69.25 592.15 46.2 567.65 42.3 542.1 40.85 527.2 40 512 40 497.9 40 484.1 40.75 306.55 49.95 178.25 178.25 40 316.5 40 512 40 707.55 178.25 845.8 263.0400390625 930.55703125 369.35 963.35 423.8880859375 980.1630859375 484.1 983.3 484.3 983.3 484.5 983.3 496.65 983.9 509 984 510.5 984 512 984 527.25 984 542.1 983.2 545.6 983 549.05 982.75 579.1 980.6 607.75 975.05 619.55 972.75 631.15 969.9 751.75 939.85 845.8 845.8 918.7 772.85 953.15 684 980.9 612.4 983.7 530.5 984 521.3 984 512 984 511 984 510 984 509.5 984 509 983.65 447.7 969.7 392 Z"/>
</g>

<g id="Layer1_0_FILL">
<path fill="#000000" fill-opacity="0.2" stroke="none" d="
M 981.65 561.85
L 671 251.2 608 284 528 247 422 265 358 379 385 455 489.75 559.75 413 553 350 603 335.75 777.95 541.05 983.25
Q 541.5779296875 983.228125 542.1 983.2 545.6 983 549.05 982.75 579.1 980.6 607.75 975.05 619.55 972.75 631.15 969.9 751.75 939.85 845.8 845.8 918.7 772.85 953.15 684 975.5189453125 626.2837890625 981.65 561.85 Z"/>
</g>

<g id="Layer0_0_FILL">
<path fill="#E74C3C" stroke="none" d="
M 343.35 148.3
Q 340 137.5 339.85 135.8 339.3 131.1 341.1 116.05 331.6 116.55 325.5 117.6 317.3 119 310.25 122.1 299 114.15 291.1 111.45 285.95 109.7 270.25 107.15 247.8 103.2 223.05 110.4 197.15 117.95 182.85 134.1 175.15 142.1 171.2 152.35 168.55 159.15 165.9 172.6 164.95 179.6 167.5 191.9 170.2 204.8 174.35 210.5 180.65 219.25 185.5 223.65 189.55 227.25 199.75 233.95 212.05 241.05 226 247.4 232.6 250.4 253.2 259.05 264.25 263.7 285.35 272 302.95 279.9 314.05 290.4 320 295.7 324.2 302.2 328.45 308.8 330.5 316 332.55 323.15 332.9 331.2 333.25 339.25 331.7 343.85 326.1 360.25 318.15 369.05 311.05 376.95 297.8 383.05 279.6 391.4 265.9 392.6 260.2 393.1 252.2 392.7 242.15 392 236.05 391.6 231.45 391.35 224.05 388.65 213.7 384.9 205.75 378.3 194.45 368.85 188.2 360.65 180.05 349.9 178.5 339.05 176.25 322.95 176.35 317.1 176.5 304.4 182.6 297.85 188.3 291.7 196.7 288.1 205.3 284.35 214.7 284.15 236.55 283.65 251.4 300.8 257.25 307.55 255.8 317.6 254.55 326.4 249.15 332.1 250.15 326.85 248.15 322.9 246.65 319.95 243.2 317.3 241.2 315.75 236.55 315.05 231.2 314.2 226.35 315.4 212.8 318.7 212.35 335.1 212.15 340.95 219.9 347.2 227.55 353.4 234.25 353.2 246.5 352.9 254.8 343.8 262.3 335.55 264.65 322.35 266.3 313.15 263.55 303.15 260.25 291.3 252.05 284.95 242.55 277.65 229.45 274.5 219.15 272.05 204.5 271.85 189.4 273.2 175.85 282.75 161.85 292.65 157.35 306.1 153.7 316.95 152.65 324.9 151.75 331.35 152.25 339.7 152.9 351.4 154.7 359.25 156.45 366.85 159.6 372.2 158.95 374.7 159.5 384.2 160.1 393.65 161.2 398.7 187.25 397.95 209.95 401.95 224.05 404.4 226.95 404.8 236.85 406.15 247.3 406.1 274.9 406.75 299.95 398.15 327.45 388.7 343.85 370.45 357.65 355.05 359.65 326.1 361.4 300.8 354.2 281.4 350.7 272.05 344.4 264 337.95 255.75 327.85 248.05 324.5 245.5 318.15 242.05 312 238.7 305.6 235.85 301.7 234.1 285.55 227.95 268.65 221.55 265.45 220.3 242.55 209.95 239 208.2 223.9 200.8 213.9 193.4 208.45 189.4 203.9 183.3 197.85 175.15 197.5 167.8 196.9 154.05 199.65 146.6 202.95 137.65 212.9 131.25 234.9 117.05 260.55 120.45 286.35 123.9 302.8 143.5 304.65 145.75 308.1 149.4 311 152.65 312.5 155.55 316.4 163.4 315.25 179.35 314.55 189.25 313.6 195.6 313.05 199.05 312.2 203.75 320.45 202.3 325.1 200.15 329.55 198.15 332.7 194.6 337 189.65 338.5 187.45 340.8 184.1 343.05 178.8 348.65 165.85 343.35 148.3 Z"/>
</g>
</defs>

<g transform="matrix( 1, 0, 0, 1, 0,0) ">
<use xlink:href="#Layer3_0_FILL"/>
</g>

<g transform="matrix( 1, 0, 0, 1, 0,0) ">
<use xlink:href="#Layer2_0_FILL"/>
</g>

<g transform="matrix( 1, 0, 0, 1, 0,0) ">
<use xlink:href="#Layer1_0_FILL"/>
</g>

<g transform="matrix( 1.8635101318359375, 0, 0, 1.8635101318359375, 35.35,34.95) ">
<use xlink:href="#Layer0_0_FILL"/>
</g>
</svg>
