<?xml version="1.0" encoding="utf-8"?>
<!-- Generator: flash2svg, http://dissentgraphics.com/tools/flash2svg -->
<svg xmlns:xlink="http://www.w3.org/1999/xlink" id="Apps-Forklift" image-rendering="optimizeSpeed" baseProfile="basic" version="1.1" style="background-color:#ffffff" x="0px" y="0px" width="1024px" height="1024px" viewBox="0 0 1024 1024" enable-background="new 0 0 1024 1024" xmlns="http://www.w3.org/2000/svg">
  <defs transform="matrix(1 0 0 1 0 0) "/>
  <g id="shadow">
    <g id="shape">
      <path id="path" fill="#000000" fill-opacity="0.09803921568627451" d="M969.65,351.3 Q961.05,330.45 950.25,310.45 C946.2,302.9 941.9,295.4 937.35,288.05 917.8,256.35 893.95,226.4 865.8,198.25 773.65,106.1 662.35,60 532,60 401.65,60 290.4,106.1 198.25,198.25 106.1,290.4 60,401.65 60,532 60,662.35 106.1,773.65 198.25,865.8 290.4,957.95 401.65,1004 532,1004 662.35,1004 773.65,957.95 865.8,865.8 916.55,815 953.35,758.4 976.15,696.05 994.7,645.2 1004,590.55 1004,532 1004,487.1 998.55,444.45 987.6,404.05 986.35,399.5 985.05,394.95 983.7,390.45 979.6,377.15 974.9,364.1 969.65,351.3z"/>
    </g>
  </g>
  <g id="circle">
    <g id="shape2">
      <path id="path1" fill="#E6D744" fill-opacity="1" d="M966.1,378.45 C963.6,369.7 960.75,360.85 957.65,352.1 951.2,333.85 943.5,316.05 934.5,298.45 930.7,291.05 926.55,283.5 922.2,276.05 901.9,241.55 876.4,208.85 845.85,178.3 773.25,105.7 688.7,61.65 592.2,46.25 575.95,43.65 559.4,41.85 542.15,40.9 532.45,40.35 522.3,40.05 512.05,40.05 502.7,40.05 493.45,40.3 484.15,40.8 365.8,46.9 263.85,92.75 178.3,178.3 Q40.05,316.55 40.05,512.05 C40.05,635.25 81.25,741.45 163.3,830.25 L860.825,830.25 L860.85,830.25 C901.9,785.7 932.7,737.05 953.2,684.05 971.65,636.4 981.85,585.25 983.75,530.55 983.95,524.5 984.05,518.3 984.05,512.05 984.05,511.4 984.05,510.7 984.05,510.05 984.05,509.7 984.05,509.4 984.05,509.05 983.95,492.2 983.1,475.7 981.45,459.35 979.15,436.45 975.25,414 969.75,392.05 968.65,387.7 967.4,383.05 966.1,378.45z"/>
      <path id="path2" fill="#FFAB3E" fill-opacity="1" d="M509.05,984.05 C510.25,984.05 511.15,984.05 512.05,984.05 522.35,984.05 532.55,983.75 542.15,983.25 544.65,983.1 546.9,982.95 549.1,982.8 569.3,981.35 589,978.75 607.8,975.1 615.75,973.55 623.6,971.8 631.2,969.95 712,949.65 783.35,908.35 845.85,845.85 851,840.7 856.05,835.45 860.85,830.25 L860.825,830.25 L163.3,830.25 C168.35,835.7 173.25,840.8 178.3,845.85 256.8,924.3 349.1,969.4 455,981 464.75,982.1 474.4,982.85 484.15,983.35 484.3,983.35 484.4,983.35 484.55,983.35 493.05,983.8 501.15,984.05 509.05,984.05z"/>
    </g>
  </g>
  <g id="circle1">
    <g id="shape6">
      <path id="path3" fill="#000000" fill-opacity="0.2" d="M966.1,378.45 Q962.558,366.167 958.375,354.175 L826.35,222.15 733.2,237.375 640.375,405.15 147.25,521.2 167.85,541.8 158.05,565.05 573.475,980.475 L573.5,980.5 C585.15,979.05 596.65,977.25 607.8,975.1 615.75,973.55 623.6,971.8 631.2,969.95 712,949.65 783.35,908.35 845.85,845.85 894.45,797.25 930.25,743.35 953.2,684.05 971.65,636.4 981.85,585.25 983.75,530.55 983.95,524.5 984.05,518.3 984.05,512.05 984.05,511.4 984.05,510.7 984.05,510.05 984.05,509.7 984.05,509.4 984.05,509.05 983.95,492.2 983.1,475.7 981.45,459.35 979.15,436.45 975.25,414 969.75,392.05 968.65,387.7 967.4,383.05 966.1,378.45z"/>
    </g>
  </g>
  <g id="Calque.__206">
    <g id="shape8">
      <path id="path4" fill="#B9693B" fill-opacity="1" d="M589.45,386.45 L333.95,250.1 197.7,505.75 453.25,642 589.45,386.45z"/>
    </g>
  </g>
  <g id="Calque.__207">
    <g id="shape10">
      <path id="path5" fill="#A8562A" fill-opacity="1" d="M431.9,275.6 C428.85,274 425.7,273.7 422.45,274.7 L276,319.25 C272.6,320.25 270.2,322.2 268.6,325.3 266.95,328.3 266.6,331.45 267.7,334.75 268.65,338 270.65,340.5 273.7,342.05 276.7,343.7 279.8,344.05 283.1,343.05 L429.65,298.45 Q434.6,296.95 437.05,292.35 C438.7,289.4 438.95,286.25 437.85,283 436.9,279.6 434.95,277.2 431.9,275.6z M518.2,345.7 C521.5,344.65 524,342.75 525.6,339.7 527.25,336.65 527.55,333.45 526.55,330.2 525.55,326.9 523.5,324.45 520.55,322.85 517.5,321.2 514.4,320.95 511,321.9 L211.7,413.1 C208.4,414.1 206.05,416.05 204.4,419.1 202.8,422.15 202.45,425.25 203.5,428.6 204.5,431.9 206.45,434.3 209.55,435.9 212.45,437.55 215.6,437.75 218.9,436.8 L518.2,345.7z M606.6,370.85 C603.6,369.15 600.45,368.8 597.1,369.85 L179.8,496.75 C176.5,497.8 174.05,499.8 172.4,502.8 170.85,505.75 170.5,508.9 171.55,512.25 172.5,515.55 174.55,518.05 177.6,519.6 180.55,521.25 183.65,521.55 187.05,520.5 L604.4,393.55 C607.65,392.55 610.05,390.55 611.65,387.55 613.3,384.55 613.6,381.5 612.55,378.1 611.6,374.75 609.55,372.4 606.6,370.85z M255.05,570.5 C257.95,572 261.1,572.3 264.4,571.3 L569.1,478.4 C572.4,477.4 574.8,475.45 576.45,472.5 578,469.35 578.3,466.2 577.35,462.95 576.35,459.7 574.3,457.2 571.3,455.6 568.3,454 565.15,453.7 561.85,454.75 L257.1,547.65 C253.85,548.65 251.45,550.7 249.85,553.7 248.3,556.7 247.9,559.85 248.95,563.15 250,566.4 252,568.8 255.05,570.5z M527.3,561.5 C528.95,558.4 529.25,555.25 528.25,551.95 527.25,548.65 525.15,546.35 522.2,544.75 519.15,543.1 516.1,542.75 512.75,543.75 L353.7,592.25 C350.35,593.4 347.9,595.35 346.2,598.45 344.65,601.45 344.35,604.5 345.4,607.85 346.4,611.2 348.4,613.5 351.5,615.15 354.4,616.8 357.5,617.1 360.85,616.05 L519.95,567.45 C523.3,566.4 525.75,564.4 527.3,561.5z"/>
    </g>
  </g>
  <g id="Calque.__208">
    <g id="shape20">
      <path id="path14" fill="#D79763" fill-opacity="1" d="M640.35,370.9 L318.5,199.3 146.85,521.3 468.75,692.85 640.35,370.9z M589.45,386.45 L453.25,642 197.7,505.75 333.95,250.1 589.45,386.45z"/>
    </g>
  </g>
  <g id="ico">
    <g id="shape25">
      <path id="path18" fill="none" stroke="#666666" stroke-opacity="1" stroke-width="35.35" stroke-linecap="round" stroke-linejoin="round" d="M831.7,250 L749.45,250 493.05,733.3 192,573.6"/>
    </g>
  </g>
  <g id="ico-shadow">
    <g id="shape27">
      <path id="path19" fill="#666666" fill-opacity="1" d="M483.25,596 C450.65,596 422.85,607.55 399.8,630.6 376.75,653.65 365.2,681.45 365.2,714.05 Q365.2,762.9 399.8,797.5 C422.85,820.55 450.65,832.05 483.25,832.05 515.85,832.05 543.65,820.55 566.7,797.5 589.75,774.45 601.25,746.65 601.25,714.05 601.25,681.45 589.75,653.65 566.7,630.6 543.65,607.55 515.85,596 483.25,596z"/>
    </g>
  </g>
  <g id="Calque.__209">
    <g id="shape29">
      <path id="path20" fill="#999999" fill-opacity="1" d="M483.25,628 C459.55,628 439.3,636.45 422.45,653.25 405.65,670.1 397.2,690.35 397.2,714.05 Q397.2,749.65 422.45,774.9 C439.3,791.7 459.55,800.1 483.25,800.1 507,800.1 527.25,791.7 544.05,774.9 560.9,758.05 569.3,737.8 569.3,714.05 569.3,690.35 560.9,670.1 544.05,653.25 527.25,636.45 507,628 483.25,628z"/>
    </g>
  </g>
  <g id="Calque.__210">
    <g id="shape31">
      <path id="path21" fill="#666666" fill-opacity="1" d="M463.15,698.5 Q456.4,705.35 456.4,714.95 C456.4,721.35 458.65,726.8 463.15,731.3 467.7,735.85 473.2,738.15 479.6,738.15 486,738.15 491.45,735.85 496,731.3 500.55,726.8 502.8,721.35 502.8,714.95 502.8,708.55 500.55,703.05 496,698.5 491.45,693.95 486,691.7 479.6,691.7 473.2,691.7 467.7,693.95 463.15,698.5z"/>
    </g>
  </g>
</svg>