<?xml version="1.0" encoding="utf-8"?>
<!-- Generator: flash2svg, http://dissentgraphics.com/tools/flash2svg -->
<svg xmlns:xlink="http://www.w3.org/1999/xlink" id="Adobe-Flash-app" image-rendering="optimizeSpeed" baseProfile="basic" version="1.1" style="background-color:#ffffff" x="0px" y="0px" width="1024px" height="1024px" viewBox="0 0 1024 1024" enable-background="new 0 0 1024 1024" xmlns="http://www.w3.org/2000/svg">
  <defs transform="matrix(1 0 0 1 0 0) "/>
  <g id="shadow">
    <g id="shape">
      <path id="path" fill="#000000" fill-opacity="0.09803921568627451" d="M965.65,347.3 Q957.05,326.45 946.25,306.45 C942.2,298.9 937.9,291.4 933.35,284.05 913.8,252.35 889.95,222.4 861.8,194.25 769.65,102.1 658.35,56 528,56 397.65,56 286.4,102.1 194.25,194.25 102.1,286.4 56,397.65 56,528 56,658.35 102.1,769.65 194.25,861.8 286.4,953.95 397.65,1000 528,1000 658.35,1000 769.65,953.95 861.8,861.8 912.55,811 949.35,754.4 972.15,692.05 990.7,641.2 1000,586.55 1000,528 1000,483.1 994.55,440.45 983.6,400.05 982.35,395.5 981.05,390.95 979.7,386.45 975.6,373.15 970.9,360.1 965.65,347.3z"/>
    </g>
  </g>
  <g id="BackgroundInner">
    <g id="shape2">
      <path id="path1" fill="#9E4F00" fill-opacity="1" d="M951.95,691.1 C958.6,674.8 964.25,658.05 968.95,640.8 979.95,600.35 985.45,557.5 985.45,512.3 Q985.45,316.5 847,178.05 C754.7,85.75 643.25,39.6 512.7,39.6 382.15,39.6 270.75,85.75 178.45,178.05 86.15,270.35 40,381.75 40,512.3 40,642.85 86.15,754.3 178.45,846.6 260.6,928.8 357.95,974.4 470.4,983.35 484.25,984.5 498.35,985.05 512.7,985.05 520.2,985.05 527.65,984.9 534.7,984.6 656,979.6 760,933.6 847,846.6 893.9,799.7 928.9,747.85 951.95,691.1z"/>
    </g>
  </g>
  <g id="LogoBg">
    <g id="shape4">
      <path id="path2" fill="#000000" fill-opacity="0.2" d="M951.95,691.1 Q961.923,666.555 968.925,640.775 L596.65,268.5 347.15,339 278.15,728.05 534.7,984.6 C656,979.6 760,933.6 847,846.6 893.9,799.7 928.9,747.85 951.95,691.1z"/>
    </g>
  </g>
  <g id="Ico">
    <g id="shape6">
      <path id="path3" fill="#FFFFFF" fill-opacity="1" d="M701.3,674.6 C698.55,669.15 697.2,659.6 697.2,645.85 L697.2,422.9 642.55,422.9 642.55,654.45 C642.55,680.95 647.05,699.85 656.05,711.1 660.5,716.7 666.05,720.95 672.8,723.85 679.4,726.65 687.15,728.1 696,728.1 L741.05,728.1 741.05,694.6 715,686.4 C708.8,683.95 704.25,680.1 701.3,674.6z M370.8,252 L344.8,256.4 C322.9,262.6 306.4,273.6 295.35,289.4 284.6,305.25 279.25,326.1 279.25,351.85 L279.25,727.3 370.25,727.3 370.25,535.8 562.3,529.7 562.3,454.6 370.25,447.9 370.25,374.1 C370.25,363.75 371.5,355.5 374,349.35 377.8,341.5 387.75,337.6 403.8,337.6 L591.5,337.6 591.5,262.5 C563.8,258.4 521.75,255.65 465.3,254.25 L370.8,252z"/>
    </g>
  </g>
</svg>