<?xml version="1.0" encoding="utf-8"?>
<!-- Generator: flash2svg, http://dissentgraphics.com/tools/flash2svg -->
<svg xmlns:xlink="http://www.w3.org/1999/xlink" id="JDownloader" image-rendering="optimizeSpeed" baseProfile="basic" version="1.1" style="background-color:#ffffff" x="0px" y="0px" width="1024px" height="1024px" viewBox="0 0 1024 1024" enable-background="new 0 0 1024 1024" xmlns="http://www.w3.org/2000/svg">
  <defs transform="matrix(1 0 0 1 0 0) "/>
  <g id="shadow">
    <g id="shape">
      <path id="path" fill="#000000" fill-opacity="0.09803921568627451" d="M964.65,346.3 Q956.05,325.45 945.25,305.45 C941.2,297.9 936.9,290.4 932.35,283.05 912.8,251.35 888.95,221.4 860.8,193.25 768.65,101.1 657.35,55 527,55 396.65,55 285.4,101.1 193.25,193.25 101.1,285.4 55,396.65 55,527 55,657.35 101.1,768.65 193.25,860.8 285.4,952.95 396.65,999 527,999 657.35,999 768.65,952.95 860.8,860.8 911.55,810 948.35,753.4 971.15,691.05 989.7,640.2 999,585.55 999,527 999,482.1 993.55,439.45 982.6,399.05 981.35,394.5 980.05,389.95 978.7,385.45 974.6,372.15 969.9,359.1 964.65,346.3z"/>
    </g>
  </g>
  <g id="circle">
    <g id="shape2">
      <path id="path1" fill="#1E3840" fill-opacity="1" d="M742.1,98.5 C713.45,82.25 683.3,69.35 651.7,59.8 608.1,46.65 561.45,40.05 512.05,40.05 509.45,40.05 506.85,40.05 504,40.1 399.35,41.6 307.05,73.25 227.15,135.15 224.15,137.5 221.15,139.9 218.25,142.25 208.8,149.9 199.55,158 190.5,166.5 186.4,170.3 182.35,174.25 178.3,178.3 86.15,270.45 40.05,381.7 40.05,512.05 40.05,642.4 86.15,753.7 178.3,845.85 246.35,913.9 324.8,956.8 413.2,974.5 445.15,980.9 477.95,984.05 512.05,984.05 642.4,984.05 753.7,938 845.85,845.85 849.9,841.8 853.85,837.75 857.65,833.65 866.15,824.6 874.25,815.35 881.95,805.95 884.25,803 886.65,800 889,797 916.3,761.7 937.7,724.1 953.2,684.05 970.2,640.1 980.2,593.25 983.15,543.3 983.75,533.1 984.05,522.65 984.05,512.05 984.05,470.3 979.35,430.45 969.75,392.05 968.65,387.7 967.4,383.05 966.1,378.45 965.55,376.55 965,374.6 964.3,372.4 962.35,365.8 960.05,358.95 957.65,352.1 951.2,333.85 943.5,316.05 934.5,298.45 930.7,291.05 926.55,283.5 922.2,276.05 Q891.55,224.05 845.85,178.3 C813.65,146.1 779.1,119.5 742.1,98.5z"/>
    </g>
  </g>
  <mask id="circle2">
    <g id="g">
      <g id="shape20">
        <path id="path17" fill="#FFFFFF" fill-opacity="1" d="M742.1,98.5 C713.45,82.25 683.3,69.35 651.7,59.8 608.1,46.65 561.45,40.05 512.05,40.05 509.45,40.05 506.85,40.05 504,40.1 399.35,41.6 307.05,73.25 227.15,135.15 224.15,137.5 221.15,139.9 218.25,142.25 208.8,149.9 199.55,158 190.5,166.5 186.4,170.3 182.35,174.25 178.3,178.3 86.15,270.45 40.05,381.7 40.05,512.05 40.05,642.4 86.15,753.7 178.3,845.85 246.35,913.9 324.8,956.8 413.2,974.5 445.15,980.9 477.95,984.05 512.05,984.05 642.4,984.05 753.7,938 845.85,845.85 849.9,841.8 853.85,837.75 857.65,833.65 866.15,824.6 874.25,815.35 881.95,805.95 884.25,803 886.65,800 889,797 916.3,761.7 937.7,724.1 953.2,684.05 970.2,640.1 980.2,593.25 983.15,543.3 983.75,533.1 984.05,522.65 984.05,512.05 984.05,470.3 979.35,430.45 969.75,392.05 968.65,387.7 967.4,383.05 966.1,378.45 965.55,376.55 965,374.6 964.3,372.4 962.35,365.8 960.05,358.95 957.65,352.1 951.2,333.85 943.5,316.05 934.5,298.45 930.7,291.05 926.55,283.5 922.2,276.05 Q891.55,224.05 845.85,178.3 C813.65,146.1 779.1,119.5 742.1,98.5z"/>
      </g>
    </g>
  </mask>
  <g id="masked" mask="url(#circle2)">
    <g id="Calque.__207">
      <g id="shape4">
        <path id="path3" fill="none" stroke="#8AAE27" stroke-opacity="1" stroke-width="34" stroke-linecap="round" stroke-linejoin="round" d="M986.05,529.05 Q986.05,339.75 852.2,205.9 C762.95,116.65 655.25,72.05 529.05,72.05 402.85,72.05 295.15,116.65 205.9,205.9 116.65,295.15 72.05,402.85 72.05,529.05 72.05,655.25 116.65,762.95 205.9,852.2 295.15,941.45 402.85,986.05 529.05,986.05 655.25,986.05 762.95,941.45 852.2,852.2 941.45,762.95 986.05,655.25 986.05,529.05z"/>
      </g>
    </g>
    <g id="Calque.__208">
      <g id="shape6">
        <path id="path4" fill="none" stroke="#8AAE27" stroke-opacity="1" stroke-width="34" stroke-linecap="round" stroke-linejoin="round" d="M529.05,56.95 L529.05,57.7 C855.5,366.65 855.5,684.9 529.05,1012.45 L529.05,1012.95 L529.05,1061.2 L529.05,1012.95 C528.95,1012.85 528.85,1012.75 528.8,1012.7 L528.4,1013.1 C528.55,1012.95 528.65,1012.85 528.8,1012.7 201.85,684.95 201.8,366.5 528.65,57.35 L528.4,57.1 C528.45,57.15 528.55,57.25 528.65,57.35 528.8,57.2 528.9,57.1 529.05,56.95z"/>
        <path id="path6" fill="none" stroke="#8AAE27" stroke-opacity="1" stroke-width="34" stroke-linecap="round" stroke-linejoin="round" d="M528.65,57.325 Q528.852,57.516 529.05,57.7 L529.05,56.95 C528.9,57.1 528.8,57.2 528.65,57.35"/>
        <path id="path8" fill="none" stroke="#8AAE27" stroke-opacity="1" stroke-width="34" stroke-linecap="round" stroke-linejoin="round" d="M529.05,57.7 Q528.852,57.516 528.65,57.325 L528.65,57.35 C201.8,366.5 201.85,684.95 528.8,1012.7 528.9,1012.6 529,1012.5 529.05,1012.45 L529.05,57.7z"/>
        <path id="path10" fill="none" stroke="#8AAE27" stroke-opacity="1" stroke-width="34" stroke-linecap="round" stroke-linejoin="round" d="M529.05,1012.45 C529,1012.5 528.9,1012.6 528.8,1012.7 528.85,1012.75 528.95,1012.85 529.05,1012.95 L529.05,1012.45z"/>
        <path id="path12" fill="none" stroke="#8AAE27" stroke-opacity="1" stroke-width="34" stroke-linecap="round" stroke-linejoin="round" d="M529.05,57.7 L529.05,1012.45 C855.5,684.9 855.5,366.65 529.05,57.7"/>
      </g>
    </g>
    <g id="Calque.__209">
      <g id="shape12">
        <path id="path13" fill="#FFFFFF" fill-opacity="0.09803921568627451" d="M406.65,144.45 Q399.4,144.05 392.05,144.05 C346.45,144.05 305.3,154.8 268.4,176.4 265.05,178.35 261.75,180.4 258.55,182.55 248.35,189.15 238.55,196.65 229.05,205.05 224.9,208.75 220.75,212.65 216.7,216.7 168.3,265.1 144.05,323.6 144.05,392.05 144.05,397.1 144.2,402.1 144.45,406.65 147.75,469.1 171.85,522.55 216.7,567.4 265.1,615.85 323.6,640.05 392.05,640.05 460.55,640.05 519,615.85 567.4,567.4 571.45,563.35 575.35,559.2 579.05,555.05 587.45,545.55 594.95,535.75 601.6,525.6 603.75,522.3 605.8,519.05 607.75,515.75 629.25,479.1 640.05,437.8 640.05,392.05 640.05,323.6 615.85,265.1 567.4,216.7 522.5,171.8 468.9,147.7 406.65,144.45z"/>
      </g>
    </g>
    <g id="Calque.__210">
      <g id="shape14">
        <path id="path14" fill="#000000" fill-opacity="0.2" d="M964.3,372.4 C962.35,365.8 960.05,358.95 957.65,352.1 951.2,333.85 943.5,316.05 934.5,298.45 930.7,291.05 926.55,283.5 922.2,276.05 L922.175,276.05 Q891.574,224.04 845.85,178.3 C813.65,146.1 779.1,119.5 742.1,98.5 L742.075,98.475 L688.875,664.875 857.65,833.65 C866.15,824.6 874.25,815.35 881.95,805.95 884.25,803 886.65,800 889,797 916.3,761.7 937.7,724.1 953.2,684.05 970.2,640.1 980.2,593.25 983.15,543.3 983.75,533.1 984.05,522.65 984.05,512.05 984.05,470.3 979.35,430.45 969.75,392.05 968.65,387.7 967.4,383.05 966.1,378.45 965.55,376.55 965,374.6 964.3,372.4z"/>
      </g>
    </g>
    <g id="Calque.__211">
      <g id="shape16">
        <path id="path15" fill="#B99531" fill-opacity="1" d="M686.85,133.525 Q676.795,145.242 677.95,160.575 L677.95,160.6 C693,354.9 648.65,497.45 544.9,588.25 436.7,678.55 267.1,716.6 36.1,702.35 25.95,701.7 17,704.75 9.25,711.6 1.5,718.4 -2.65,726.9 -3.3,737.1 -3.95,747.3 -0.9,756.25 5.95,764 12.75,771.75 21.25,775.95 31.5,776.6 287.05,792.35 474.3,748.4 593.2,644.8 716.5,541.65 769.5,378.35 752.15,154.85 751.35,144.65 747.05,136.2 739.25,129.5 731.4,122.8 722.4,119.85 712.2,120.65 702,121.4 693.55,125.7 686.85,133.55"/>
      </g>
    </g>
    <g id="circle1">
      <g id="shape18">
        <path id="path16" fill="#EDCD43" fill-opacity="1" d="M715.05,-47.15 Q699.643,-47.148 688.75,-36.25 C681.5,-29 677.85,-20.2 677.85,-9.95 L677.85,550.225 576.05,448.4 C568.8,441.15 560,437.5 549.75,437.5 539.5,437.5 530.7,441.15 523.45,448.4 516.2,455.65 512.55,464.45 512.55,474.7 512.55,484.95 516.2,493.75 523.45,501 L688.75,666.35 C696,673.6 704.8,677.25 715.05,677.25 715.7,677.25 716.4,677.25 717.05,677.2 726.45,676.75 734.55,673.15 741.35,666.35 L906.7,501 C913.95,493.65 917.6,484.9 917.6,474.65 917.55,464.4 913.9,455.65 906.65,448.4 899.35,441.15 890.6,437.5 880.35,437.55 870.1,437.55 861.35,441.15 854.1,448.4 L752.25,550.25 752.25,-9.95 C752.25,-20.2 748.6,-29 741.35,-36.25 734.1,-43.5 725.3,-47.15 715.05,-47.15z"/>
      </g>
    </g>
  </g>
</svg>