<?xml version="1.0" encoding="utf-8"?>
<!-- Generator: flash2svg, http://dissentgraphics.com/tools/flash2svg -->
<svg xmlns:xlink="http://www.w3.org/1999/xlink" id="Apps-Synergy" image-rendering="optimizeSpeed" baseProfile="basic" version="1.1" style="background-color:#ffffff" x="0px" y="0px" width="1024px" height="1024px" viewBox="0 0 1024 1024" enable-background="new 0 0 1024 1024" xmlns="http://www.w3.org/2000/svg">
  <defs transform="matrix(1 0 0 1 0 0) "/>
  <g id="background-circle-shadow">
    <g id="shape">
      <path id="path" fill="#000000" fill-opacity="0.09803921568627451" d="M969.65,351.3 Q961.05,330.45 950.25,310.45 C946.2,302.9 941.9,295.4 937.35,288.05 917.8,256.35 893.95,226.4 865.8,198.25 773.65,106.1 662.35,60 532,60 401.65,60 290.4,106.1 198.25,198.25 106.1,290.4 60,401.65 60,532 60,662.35 106.1,773.65 198.25,865.8 290.4,957.95 401.65,1004 532,1004 662.35,1004 773.65,957.95 865.8,865.8 916.55,815 953.35,758.4 976.15,696.05 994.7,645.2 1004,590.55 1004,532 1004,487.1 998.55,444.45 987.6,404.05 986.35,399.5 985.05,394.95 983.7,390.45 979.6,377.15 974.9,364.1 969.65,351.3z"/>
    </g>
  </g>
  <g id="background-circle">
    <g id="shape2">
      <path id="path1" fill="#F7F6F2" fill-opacity="1" d="M966.1,378.45 C965.1,375.05 964.1,371.6 962.95,367.95 961.35,362.8 959.55,357.45 957.65,352.1 951.2,333.85 943.5,316.05 934.5,298.45 930.7,291.05 926.55,283.5 922.2,276.05 901.9,241.55 876.4,208.85 845.85,178.3 773.25,105.7 688.7,61.65 592.2,46.25 575.95,43.65 559.4,41.85 542.15,40.9 532.45,40.35 522.3,40.05 512.05,40.05 502.7,40.05 493.45,40.3 484.15,40.8 365.8,46.9 263.85,92.75 178.3,178.3 Q40.05,316.55 40.05,512.05 C40.05,642.4 86.15,753.7 178.3,845.85 235,902.5 298.85,941.75 369.4,963.4 406.15,974.65 444.2,981.25 484.15,983.35 484.3,983.35 484.4,983.35 484.55,983.35 493.05,983.8 501.15,984.05 509.05,984.05 510.25,984.05 511.15,984.05 512.05,984.05 522.35,984.05 532.55,983.75 542.15,983.25 544.65,983.1 546.9,982.95 549.1,982.8 569.3,981.35 589,978.75 607.8,975.1 615.75,973.55 623.6,971.8 631.2,969.95 712,949.65 783.35,908.35 845.85,845.85 894.45,797.25 930.25,743.35 953.2,684.05 971.65,636.4 981.85,585.25 983.75,530.55 983.95,524.5 984.05,518.3 984.05,512.05 984.05,511.4 984.05,510.7 984.05,510.05 984.05,509.7 984.05,509.4 984.05,509.05 983.85,468.4 979.1,429.55 969.75,392.05 968.65,387.7 967.4,383.05 966.1,378.45z"/>
    </g>
  </g>
  <g id="object-shadow">
    <g id="shape4">
      <path id="path2" fill="#000000" fill-opacity="0.09803921568627451" d="M983.75,530.55 C983.75,530.15 983.75,529.75 983.8,529.35 L781.5,327.05 560.05,291.25 287.3,370.05 279.1,737.3 525.7,983.9 Q533.979,983.69 542.15,983.25 C544.65,983.1 546.9,982.95 549.1,982.8 569.3,981.35 589,978.75 607.8,975.1 615.75,973.55 623.6,971.8 631.2,969.95 712,949.65 783.35,908.35 845.85,845.85 894.45,797.25 930.25,743.35 953.2,684.05 971.65,636.4 981.85,585.25 983.75,530.55z"/>
    </g>
  </g>
  <g id="object">
    <g id="shape6">
      <path id="path3" fill="#3EA7D2" fill-opacity="1" d="M838.05,512.05 C838.05,511.4 838.05,510.7 838.05,510.05 L718.05,510.05 718.05,511.05 C718.05,511.4 718.05,511.7 718.05,512.05 717.8,569.2 697.7,617.75 657.75,657.75 617.5,697.95 568.95,718.05 512.05,718.05 L512.05,838.05 C602.1,838.05 678.95,806.25 742.6,742.6 L742.575,742.575 Q838.046,647.105 838.05,512.05z"/>
      <path id="path4" fill="#299EC0" fill-opacity="1" d="M699.05,510.05 C699.05,510.4 699.05,510.7 699.05,511.05 699.05,511.4 699.05,511.7 699.05,512.05 699.05,563.7 680.8,607.75 644.25,644.25 607.75,680.8 563.7,699.05 512.05,699.05 L512.05,718.05 C568.95,718.05 617.5,697.95 657.75,657.75 697.7,617.75 717.8,569.2 718.05,512.05 718.05,511.7 718.05,511.4 718.05,511.05 L718.05,510.05 699.05,510.05z"/>
      <path id="path8" fill="#153A3B" fill-opacity="1" d="M699.05,510.05 L718.05,510.05 C717.6,454 697.5,406.15 657.75,366.4 617.5,326.15 568.95,306.05 512.05,306.05 L512.05,325.05 C563.7,325.05 607.75,343.3 644.25,379.8 680.3,415.85 698.6,459.3 699.05,510.05z"/>
      <path id="path9" fill="#417878" fill-opacity="1" d="M718.05,510.05 L838.05,510.05 C837.6,420.9 805.75,344.7 742.6,281.55 678.95,217.9 602.1,186.05 512.05,186.05 L512.05,306.05 C568.95,306.05 617.5,326.15 657.75,366.4 697.5,406.15 717.6,454 718.05,510.05z"/>
      <path id="path10" fill="#4F6F9C" fill-opacity="1" d="M512.05,325.05 L512.05,306.05 C455.15,306.05 406.6,326.15 366.4,366.4 326.65,406.15 306.5,454 306.05,510.05 L325.05,510.05 C325.5,459.3 343.75,415.85 379.8,379.8 416.35,343.3 460.4,325.05 512.05,325.05z"/>
      <path id="path11" fill="#76ADFF" fill-opacity="1" d="M512.05,306.05 L512.05,186.05 C422,186.05 345.2,217.9 281.55,281.55 218.35,344.7 186.5,420.9 186.05,510.05 L306.05,510.05 C306.5,454 326.65,406.15 366.4,366.4 406.6,326.15 455.15,306.05 512.05,306.05z"/>
      <path id="path12" fill="#A8D242" fill-opacity="1" d="M186.05,510.05 L186.05,512.05 C186.4,602.45 218.25,679.3 281.55,742.6 345.2,806.25 422,838.05 512.05,838.05 L512.05,718.05 C455.15,718.05 406.6,697.95 366.4,657.75 326.15,617.5 306.05,568.95 306.05,512.05 306.05,511.4 306.05,510.7 306.05,510.05 L186.05,510.05z"/>
      <path id="path13" fill="#87AD36" fill-opacity="1" d="M306.05,510.05 C306.05,510.7 306.05,511.4 306.05,512.05 306.05,568.95 326.15,617.5 366.4,657.75 406.6,697.95 455.15,718.05 512.05,718.05 L512.05,699.05 C460.4,699.05 416.35,680.8 379.8,644.25 343.3,607.75 325.05,563.7 325.05,512.05 325.05,511.7 325.05,511.4 325.05,511.05 325.05,510.7 325.05,510.4 325.05,510.05 L306.05,510.05z"/>
    </g>
  </g>
</svg>