<?xml version="1.0" encoding="utf-8"?>
<!-- Generator: flash2svg, http://dissentgraphics.com/tools/flash2svg -->
<svg xmlns:xlink="http://www.w3.org/1999/xlink" id="Apps-VMWare-Horizon-View" image-rendering="optimizeSpeed" baseProfile="basic" version="1.1" style="background-color:#ffffff" x="0px" y="0px" width="1024px" height="1024px" viewBox="0 0 1024 1024" enable-background="new 0 0 1024 1024" xmlns="http://www.w3.org/2000/svg">
  <defs transform="matrix(1 0 0 1 0 0) "/>
  <g id="shadow">
    <g id="shape">
      <path id="path" fill="#000000" fill-opacity="0.09803921568627451" d="M965.65,347.3 Q957.05,326.45 946.25,306.45 C942.2,298.9 937.9,291.4 933.35,284.05 913.8,252.35 889.95,222.4 861.8,194.25 769.65,102.1 658.35,56 528,56 397.65,56 286.4,102.1 194.25,194.25 102.1,286.4 56,397.65 56,528 56,658.35 102.1,769.65 194.25,861.8 286.4,953.95 397.65,1000 528,1000 658.35,1000 769.65,953.95 861.8,861.8 912.55,811 949.35,754.4 972.15,692.05 990.7,641.2 1000,586.55 1000,528 1000,483.1 994.55,440.45 983.6,400.05 982.35,395.5 981.05,390.95 979.7,386.45 975.6,373.15 970.9,360.1 965.65,347.3z"/>
    </g>
  </g>
  <g id="BackgroundInner">
    <g id="shape2">
      <path id="path1" fill="#264261" fill-opacity="1" d="M951.95,691.1 C974.3,636.15 985.45,576.55 985.45,512.3 Q985.45,316.5 847,178.05 C754.7,85.75 643.25,39.6 512.7,39.6 382.15,39.6 270.75,85.75 178.45,178.05 86.15,270.35 40,381.75 40,512.3 40,642.85 86.15,754.3 178.45,846.6 260.6,928.8 357.95,974.4 470.4,983.35 484.25,984.5 498.35,985.05 512.7,985.05 643.25,985.05 754.7,938.9 847,846.6 893.9,799.7 928.9,747.85 951.95,691.1z"/>
    </g>
  </g>
  <g id="LogoBg">
    <g id="shape4">
      <path id="path2" fill="#000000" fill-opacity="0.2" d="M766.175,514.275 L664.05,412.15 539.875,333.425 456.05,249.6 224.05,259.05 213.05,504.75 668.45,960.15 C688.95,953.15 708.8,944.7 728,934.75 770.8,912.55 810.4,883.2 847,846.6 893.9,799.7 928.9,747.85 951.95,691.1 Q956.591,679.678 960.6,668 L816.65,524.05 766.175,514.275z"/>
    </g>
  </g>
  <g id="Logo">
    <g id="shape6">
      <path id="path3" fill="#6799DC" fill-opacity="1" d="M692.775,517.425 Q692.827,514.737 692.825,512.05 L692.85,512.05 C692.8,462.1 675.15,419.5 639.9,384.25 604.6,348.95 562,331.3 512.05,331.3 497.8,331.3 484.1,332.75 471.05,335.7 L471.025,335.675 L505.3,369.95 C507.55,369.85 509.8,369.8 512.05,369.85 551.3,369.8 584.85,383.7 612.65,411.5 640.4,439.25 654.3,472.8 654.3,512.05 654.25,513.6 654.25,515.15 654.25,516.7 654.15,521.95 655.95,526.55 659.65,530.4 663.3,534.25 667.8,536.2 673.15,536.3 678.4,536.4 683,534.6 686.85,530.95 690.7,527.25 692.65,522.75 692.8,517.45"/>
      <path id="path4" fill="#557EB8" fill-opacity="1" d="M471.05,335.7 C467.9,336.35 464.85,337.15 461.8,338 456.7,339.45 452.85,342.5 450.25,347.15 447.6,351.8 447,356.65 448.45,361.75 449.9,366.85 452.95,370.7 457.6,373.35 462.25,375.95 467.1,376.55 472.25,375.1 482.75,372.15 493.75,370.4 505.3,369.95 L471.025,335.675"/>
      <path id="path5" fill="#599457" fill-opacity="1" d="M351.45,487.8 C346.15,487.6 341.55,489.3 337.65,492.9 333.7,496.5 331.65,500.95 331.4,506.3 331.35,507.45 331.35,508.95 331.3,510.9 331.3,511.7 331.3,512.5 331.3,513.3 L377.525,559.525 L377.55,559.55 C372.4,544.8 369.8,528.95 369.85,512.05 369.8,510.65 369.85,509.25 369.9,507.85 370.1,502.55 368.4,497.95 364.8,494.05 361.2,490.1 356.75,488.05 351.45,487.8z"/>
      <path id="path6" fill="#70B86C" fill-opacity="1" d="M377.525,559.525 L331.3,513.3 C331.85,562.95 349.5,605.15 384.25,639.9 419.5,675.15 462.1,692.8 512.05,692.85 530.1,692.8 547.15,690.5 563.3,685.9 568.4,684.45 572.25,681.35 574.85,676.7 577.4,672.05 578,667.15 576.55,662.1 575.1,656.95 572,653.1 567.35,650.55 562.7,647.95 557.8,647.4 552.7,648.85 539.9,652.5 526.35,654.3 512.05,654.3 472.8,654.3 439.25,640.4 411.5,612.65 395.65,596.8 384.35,579.1 377.55,559.55"/>
    </g>
  </g>
  <g id="Calque.__201">
    <g id="shape13">
      <path id="path7" fill="#6799DC" fill-opacity="1" d="M827.25,550.55 Q827.3,534.7 816,523.4 C808.45,515.85 799.4,512.1 788.75,512.1 L592.15,512.1 C581.6,512.05 572.55,515.85 565,523.4 557.45,530.95 553.65,540 553.7,550.55 L553.7,744.55 C553.7,755.2 557.45,764.25 565,771.8 572.55,779.35 581.6,783.1 592.15,783.05 L788.75,783.05 C799.4,783.05 808.45,779.3 816,771.8 823.5,764.25 827.25,755.2 827.25,744.55 L827.25,550.55z M789.6,565.8 L789.6,729.4 C789.25,739.75 784.05,745.05 773.9,745.4 L605.65,745.4 C598.4,745.2 593.6,742.45 591.35,737.15 590.3,734.75 589.8,731.85 589.8,728.4 L589.8,566.8 C589.8,563.35 590.3,560.45 591.35,558.05 593.7,552.55 598.75,549.8 606.55,549.8 L772.85,549.8 C783.7,549.8 789.25,555.15 789.6,565.8z"/>
      <path id="path11" fill="#70B86C" fill-opacity="1" d="M470.4,279.55 C470.45,269 466.7,259.95 459.15,252.4 451.6,244.85 442.55,241.1 431.95,241.1 L235.3,241.1 C224.75,241.05 215.7,244.85 208.15,252.4 200.6,259.95 196.8,269 196.85,279.55 L196.85,473.55 C196.85,484.2 200.6,493.25 208.15,500.8 215.7,508.35 224.75,512.1 235.3,512.05 L431.95,512.05 C442.55,512.05 451.6,508.3 459.15,500.8 466.65,493.25 470.4,484.2 470.4,473.55 L470.4,279.55z M432.75,294.75 L432.75,458.4 C432.4,468.75 427.2,474.05 417.05,474.4 L248.8,474.4 C241.55,474.2 236.75,471.45 234.5,466.15 233.45,463.75 232.95,460.85 232.95,457.4 L232.95,295.8 C232.95,292.35 233.45,289.45 234.5,287.05 236.85,281.55 241.95,278.8 249.7,278.8 L416.05,278.8 C426.85,278.8 432.4,284.1 432.75,294.75z"/>
    </g>
  </g>
</svg>