<?xml version="1.0" encoding="utf-8"?>
<!-- Generator: flash2svg, http://dissentgraphics.com/tools/flash2svg -->
<svg xmlns:xlink="http://www.w3.org/1999/xlink" id="Apps-TunnelBear" image-rendering="optimizeSpeed" baseProfile="basic" version="1.1" style="background-color:#ffffff" x="0px" y="0px" width="1024px" height="1024px" viewBox="0 0 1024 1024" enable-background="new 0 0 1024 1024" xmlns="http://www.w3.org/2000/svg">
  <defs transform="matrix(1 0 0 1 0 0) "/>
  <g id="background-circle-shadow">
    <g id="shape">
      <path id="path" fill="#000000" fill-opacity="0.09803921568627451" d="M969.65,351.3 Q961.05,330.45 950.25,310.45 C946.2,302.9 941.9,295.4 937.35,288.05 917.8,256.35 893.95,226.4 865.8,198.25 773.65,106.1 662.35,60 532,60 401.65,60 290.4,106.1 198.25,198.25 106.1,290.4 60,401.65 60,532 60,662.35 106.1,773.65 198.25,865.8 290.4,957.95 401.65,1004 532,1004 662.35,1004 773.65,957.95 865.8,865.8 916.55,815 953.35,758.4 976.15,696.05 994.7,645.2 1004,590.55 1004,532 1004,487.1 998.55,444.45 987.6,404.05 986.35,399.5 985.05,394.95 983.7,390.45 979.6,377.15 974.9,364.1 969.65,351.3z"/>
    </g>
  </g>
  <g id="background-circle">
    <g id="shape2">
      <path id="path1" fill="#EDAF2D" fill-opacity="1" d="M966.1,378.45 C965.1,375.05 964.1,371.6 962.95,367.95 961.35,362.8 959.55,357.45 957.65,352.1 951.2,333.85 943.5,316.05 934.5,298.45 930.7,291.05 926.55,283.5 922.2,276.05 901.9,241.55 876.4,208.85 845.85,178.3 773.25,105.7 688.7,61.65 592.2,46.25 575.95,43.65 559.4,41.85 542.15,40.9 532.45,40.35 522.3,40.05 512.05,40.05 502.7,40.05 493.45,40.3 484.15,40.8 365.8,46.9 263.85,92.75 178.3,178.3 Q40.05,316.55 40.05,512.05 C40.05,642.4 86.15,753.7 178.3,845.85 235,902.5 298.85,941.75 369.4,963.4 406.15,974.65 444.2,981.25 484.15,983.35 484.3,983.35 484.4,983.35 484.55,983.35 493.05,983.8 501.15,984.05 509.05,984.05 510.25,984.05 511.15,984.05 512.05,984.05 522.35,984.05 532.55,983.75 542.15,983.25 544.65,983.1 546.9,982.95 549.1,982.8 569.3,981.35 589,978.75 607.8,975.1 615.75,973.55 623.6,971.8 631.2,969.95 712,949.65 783.35,908.35 845.85,845.85 894.45,797.25 930.25,743.35 953.2,684.05 971.65,636.4 981.85,585.25 983.75,530.55 983.95,524.5 984.05,518.3 984.05,512.05 984.05,511.4 984.05,510.7 984.05,510.05 984.05,509.7 984.05,509.4 984.05,509.05 983.85,468.4 979.1,429.55 969.75,392.05 968.65,387.7 967.4,383.05 966.1,378.45z"/>
    </g>
  </g>
  <g id="object-shadow">
    <g id="shape4">
      <path id="path2" fill="#000000" fill-opacity="0.2" d="M962.95,367.95 C962.45,366.4 961.95,364.85 961.35,363 L810.05,211.7 278.35,747.8 514.6,984.05 Q528.54,983.983 542.15,983.25 C544.65,983.1 546.9,982.95 549.1,982.8 569.3,981.35 589,978.75 607.8,975.1 615.75,973.55 623.6,971.8 631.2,969.95 712,949.65 783.35,908.35 845.85,845.85 894.45,797.25 930.25,743.35 953.2,684.05 971.65,636.4 981.85,585.25 983.75,530.55 983.95,524.5 984.05,518.3 984.05,512.05 984.05,511.4 984.05,510.7 984.05,510.05 984.05,509.7 984.05,509.4 984.05,509.05 983.85,468.4 979.1,429.55 969.75,392.05 968.65,387.7 967.4,383.05 966.1,378.45 965.1,375.05 964.1,371.6 962.95,367.95z"/>
    </g>
  </g>
  <g id="Calque.__201">
    <g id="shape6">
      <path id="path3" fill="#3E290E" fill-opacity="1" d="M714.3,213.5 C693.85,228.8 679.95,250.2 672.55,277.75 665.2,305.2 666.55,330.7 676.6,354.2 687.45,379.85 704.6,395.7 728.15,401.7 751.6,408.35 774.45,403.25 796.7,386.4 817.15,371.05 831.05,349.65 838.4,322.15 L838.4,322.2 C845.75,294.65 844.45,269.15 834.45,245.7 L834.4,245.65 C823.55,220 806.3,204.15 782.7,198.15 759.35,191.5 736.55,196.65 714.3,213.5z M801.55,259.6 C808.3,275.95 809.05,293.75 803.9,312.95 798.8,332.1 789.25,347.1 775.2,357.9 L775.15,357.95 C762.85,367.2 750.25,370.3 737.4,367.2 724.75,363.45 715.45,354.5 709.5,340.35 702.75,323.95 701.9,306.15 707.05,286.95 L707.05,287 C712.2,267.75 721.8,252.75 735.85,241.95 748.15,232.65 760.7,229.55 773.45,232.65 786.15,236.4 795.5,245.35 801.55,259.5 Q801.55,259.55 801.55,259.6z"/>
      <path id="path4" fill="#744D1B" fill-opacity="1" d="M801.55,259.6 Q801.55,259.55 801.55,259.5 C795.5,245.35 786.15,236.4 773.45,232.65 760.7,229.55 748.15,232.65 735.85,241.95 721.8,252.75 712.2,267.75 707.05,287 L707.05,286.95 C701.9,306.15 702.75,323.95 709.5,340.35 715.45,354.5 724.75,363.45 737.4,367.2 750.25,370.3 762.85,367.2 775.15,357.95 L775.2,357.9 C789.25,347.1 798.8,332.1 803.9,312.95 809.05,293.75 808.3,275.95 801.55,259.6z"/>
    </g>
    <g id="Symbole.__202_1" overflow="visible">
      <g id="Calque.__206">
        <g id="shape31">
          <path id="path20" fill="#5F3F11" fill-opacity="1" d="M353.95,277.7 C346.55,250.15 332.65,228.75 312.2,213.45 289.95,196.6 267.15,191.45 243.8,198.1 220.2,204.1 202.95,219.95 192.1,245.6 L192.05,245.65 C182.05,269.1 180.75,294.6 188.1,322.15 L188.1,322.1 C195.45,349.6 209.35,371 229.8,386.35 252.05,403.2 274.9,408.3 298.35,401.65 321.9,395.65 339.05,379.8 349.9,354.15 359.95,330.65 361.3,305.15 353.95,277.7z M319.45,286.9 C324.6,306.1 323.75,323.9 317,340.3 311.05,354.45 301.75,363.4 289.1,367.15 276.25,370.25 263.65,367.15 251.35,357.9 L251.3,357.85 C237.25,347.05 227.7,332.05 222.6,312.9 217.45,293.7 218.2,275.9 224.95,259.55 224.95,259.5 224.95,259.5 224.95,259.45 231,245.3 240.35,236.35 253.05,232.6 265.8,229.5 278.35,232.6 290.65,241.9 304.7,252.7 314.3,267.7 319.45,286.95 L319.45,286.9z"/>
          <path id="path21" fill="#9C6825" fill-opacity="1" d="M319.45,286.9 L319.45,286.95 C314.3,267.7 304.7,252.7 290.65,241.9 278.35,232.6 265.8,229.5 253.05,232.6 240.35,236.35 231,245.3 224.95,259.45 224.95,259.5 224.95,259.5 224.95,259.55 218.2,275.9 217.45,293.7 222.6,312.9 227.7,332.05 237.25,347.05 251.3,357.85 L251.35,357.9 C263.65,367.15 276.25,370.25 289.1,367.15 301.75,363.4 311.05,354.45 317,340.3 323.75,323.9 324.6,306.1 319.45,286.9z"/>
        </g>
      </g>
    </g>
  </g>
  <g id="object">
    <g id="shape11">
      <path id="path7" fill="#3E290E" fill-opacity="1" d="M750,744.3 C815.7,680.15 848.55,602.75 848.55,512.05 848.55,421.35 815.7,343.9 750,279.75 689.05,220.3 616.4,188.4 532.05,184.05 525.5,183.7 518.85,183.55 512.15,183.55 L512.15,185.6 512.15,838.5 512.15,840.55 C518.85,840.55 525.5,840.4 532.05,840.05 616.4,835.7 689.05,803.8 750,744.3z"/>
      <path id="path8" fill="#5E3F16" fill-opacity="1" d="M512.15,185.6 L512.15,183.55 C512.1,183.55 512.1,183.55 512.05,183.55 419.1,183.55 339.8,215.6 274.1,279.75 208.4,343.9 175.55,421.35 175.55,512.05 175.55,602.75 208.4,680.15 274.1,744.3 339.8,808.45 419.1,840.55 512.05,840.55 512.1,840.55 512.1,840.55 512.15,840.55 L512.15,838.5 C436.7,830.7 370.4,799.25 314.1,744.3 248.4,680.15 215.55,602.75 215.55,512.05 215.55,421.35 248.4,343.9 314.1,279.75 Q398.234,197.641 512.15,185.6z"/>
      <path id="path9" fill="#493112" fill-opacity="1" d="M215.55,512.05 C215.55,602.75 248.4,680.15 314.1,744.3 370.4,799.25 436.7,830.7 512.15,838.5 L512.15,185.6 Q398.234,197.641 314.1,279.75 C248.4,343.9 215.55,421.35 215.55,512.05z"/>
    </g>
  </g>
  <g id="Calque.__202">
    <g id="shape16">
      <path id="path10" fill="#AF9780" fill-opacity="1" d="M603.95,416.3 Q601.726,413.596 599.45,411.05 L513.05,411.05 513.05,599.55 578.075,664.575 L578.1,664.6 C587.25,657.85 595.85,649.6 603.95,639.75 629.35,608.9 642.05,571.7 642.05,528.05 642.05,484.4 629.35,447.15 603.95,416.3z"/>
      <path id="path11" fill="#CFB094" fill-opacity="1" d="M424.6,411.05 C423.1,412.75 421.6,414.5 420.1,416.3 394.75,447.15 382.05,484.4 382.05,528.05 382.05,571.7 394.75,608.9 420.1,639.75 428,649.35 436.4,657.45 445.3,664.05 445.7,664.35 446.1,664.65 446.45,664.9 465.9,679 487.8,686.05 512.05,686.05 512.4,686.05 512.7,686.05 513.05,686.05 537.1,685.85 558.8,678.7 578.1,664.6 L578.075,664.575 L513.05,599.55 513.05,411.05 424.6,411.05z"/>
    </g>
  </g>
  <g id="Calque.__203">
    <g id="shape20">
      <path id="path12" fill="#000000" fill-opacity="1" d="M693.45,422.75 Q693.45,417.092 691.975,412.05 L621.125,412.05 L621.15,412.05 C620.15,415.4 619.65,419 619.65,422.75 619.65,432.95 623.25,441.65 630.45,448.85 637.65,456.05 646.35,459.65 656.55,459.65 666.75,459.65 675.45,456.05 682.65,448.85 689.85,441.65 693.45,432.95 693.45,422.75z M402.85,422.75 C402.85,419 402.35,415.4 401.4,412.05 L401.375,412.05 L330.525,412.05 L330.55,412.05 C329.55,415.4 329.05,419 329.05,422.75 329.05,432.95 332.65,441.65 339.85,448.85 347.05,456.05 355.75,459.65 365.95,459.65 376.15,459.65 384.85,456.05 392.05,448.85 399.25,441.65 402.85,432.95 402.85,422.75z"/>
    </g>
  </g>
  <g id="Calque.__204">
    <g id="shape24">
      <path id="path15" fill="#1B1205" fill-opacity="1" d="M514.6,480.3 L514.6,480.2 461.65,480.2 C447.75,480.2 440.8,487.15 440.8,501.05 L440.8,545.05 C440.8,552.6 442.85,558.1 446.95,561.55 448.2,563 449.65,564.25 451.4,565.3 L502.4,596.25 C505,597.8 507.7,598.7 510.5,598.85 514.45,599.3 518.15,598.5 521.7,596.35 L572.7,565.4 C574.45,564.35 575.9,563.1 577.15,561.65 581.25,558.2 583.3,552.7 583.3,545.15 L583.3,501.15 C583.3,487.25 576.35,480.3 562.45,480.3 L514.6,480.3z"/>
    </g>
  </g>
</svg>