
<svg xmlns="http://www.w3.org/2000/svg" version="1.1" xmlns:xlink="http://www.w3.org/1999/xlink" preserveAspectRatio="none" x="0px" y="0px" width="1024px" height="1024px" viewBox="0 0 1024 1024">
<defs>
<g id="Layer4_0_FILL">
<path fill="#000000" fill-opacity="0.09803921568627451" stroke="none" d="
M 969.6 351.25
Q 961 330.4 950.2 310.4 944.1 299.05 937.3 288 907.95 240.45 865.75 198.2 727.5 59.95 531.95 59.95 336.45 59.95 198.2 198.2 59.95 336.45 59.95 531.95 59.95 727.5 198.2 865.75 336.45 1003.95 531.95 1003.95 727.5 1003.95 865.75 865.75 941.9 789.55 976.1 696 1003.95 619.75 1003.95 531.95 1003.95 464.6 987.55 404 985.7 397.15 983.65 390.4 977.5 370.45 969.6 351.25 Z"/>
</g>

<g id="Layer3_0_FILL">
<path fill="#CBCCC2" stroke="none" d="
M 962.85 367.85
Q 960.3787109375 359.903125 957.6 352.05 947.85 324.5 934.45 298.4 928.65 287.05 922.15 276 891.5 224 845.8 178.25 736.8 69.25 592.15 46.2 567.65 42.3 542.1 40.85 527.2 40 512 40 497.9 40 484.1 40.75 306.55 49.95 178.25 178.25 40 316.5 40 512 40 707.55 178.25 845.8 263.0400390625 930.55703125 369.35 963.35 423.8880859375 980.1630859375 484.1 983.3 484.3 983.3 484.5 983.3 496.65 983.9 509 984 510.5 984 512 984 527.25 984 542.1 983.2 545.6 983 549.05 982.75 579.1 980.6 607.75 975.05 619.55 972.75 631.15 969.9 751.75 939.85 845.8 845.8 918.7 772.85 953.15 684 980.9 612.4 983.7 530.5 984 521.3 984 512 984 511 984 510 984 509.5 984 509 983.65 447.7 969.7 392 967.95 385.15 966.05 378.4 964.52578125 373.114453125 962.85 367.85 Z"/>
</g>

<g id="Layer2_0_FILL">
<path fill="#000000" fill-opacity="0.2" stroke="none" d="
M 715 275
L 676 282 641 247 512 157.05 408.55 258 448.9 510.25 308 749 542.2 983.2
Q 545.6466796875 982.9966796875 549.05 982.75 579.1 980.6 607.75 975.05 619.55 972.75 631.15 969.9 751.75 939.85 845.8 845.8 918.7 772.85 953.15 684 978.751953125 617.9423828125 983.1 543.1
L 715 275 Z"/>
</g>

<g id="Layer0_0_FILL">
<path fill="#4A4B48" stroke="none" d="
M 509.75 123.2
Q 499.620703125 123.2439453125 492.35 130.35
L 389.85 230.85
Q 385.662890625 234.9796875 383.7 240.55 381.7810546875 246.1130859375 382.55 251.9
L 393.25 334 379 334
Q 368.645703125 334.0013671875 361.3 341.3 354.0013671875 348.645703125 354 359 354.0013671875 369.354296875 361.3 376.65 368.645703125 383.9986328125 379 384
L 399.75 384 417.8 522.55
Q 418.2201171875 525.73984375 419.3 528.5
L 306.25 719.45
Q 301.0126953125 728.41875 303.6 738.4 306.1806640625 748.40078125 315.1 753.7 324.0140625 758.9853515625 334 756.4 344.002734375 753.814453125 349.3 744.9
L 569.45 373
Q 570.4392578125 371.6087890625 571.2 370.1
L 635.45 261.4
Q 639.903515625 253.881640625 638.7 245.3 637.5556640625 236.7748046875 631.3 230.7
L 527.2 130.2
Q 519.880078125 123.1623046875 509.75 123.2
M 443.7 334
L 433.75 257.8 509.95 183.05 582.35 252.95 534.45 334 443.7 334
M 450.2 384
L 504.85 384 460.05 459.65 450.2 384
M 537 241.45
Q 536.9986328125 231.095703125 529.65 223.75 522.354296875 216.4513671875 512 216.45 501.645703125 216.4513671875 494.3 223.75 487.0013671875 231.095703125 487 241.45
L 487 254.55
Q 487.0013671875 264.904296875 494.3 272.2 501.645703125 279.5486328125 512 279.55 522.354296875 279.5486328125 529.65 272.2 536.9986328125 264.904296875 537 254.55
L 537 241.45
M 722.15 282.3
Q 719.569140625 272.298828125 710.65 267 701.7357421875 261.7146484375 691.75 264.3 681.74765625 266.8841796875 676.4 275.75
L 390.25 759.25
Q 385.84765625 766.816796875 387 775.35 388.194140625 783.924609375 394.4 789.95
L 498.2 890.15
Q 499.089453125 891.005859375 500 891.75 506.648046875 897.37734375 515.6 897.45 525.9419921875 897.588671875 533.4 890.35
L 635.9 789.85
Q 640.06640625 785.7126953125 642 780.15 643.944921875 774.58359375 643.2 768.75
L 607.95 498.1
Q 607.5310546875 494.9705078125 606.45 492.15
L 719.45 301.2
Q 724.7365234375 292.2822265625 722.15 282.3
M 540.6 606.3
Q 540.5998046875 604.9615234375 540.45 603.65
L 565.7 561 592 762.85 540.6 813.25 540.6 606.3
M 443.35 767.75
L 490.6 687.95 490.6 813.3 443.35 767.75 Z"/>
</g>
</defs>

<g transform="matrix( 1, 0, 0, 1, 0,0) ">
<use xlink:href="#Layer4_0_FILL"/>
</g>

<g transform="matrix( 1, 0, 0, 1, 0,0) ">
<use xlink:href="#Layer3_0_FILL"/>
</g>

<g transform="matrix( 1, 0, 0, 1, 0,0) ">
<use xlink:href="#Layer2_0_FILL"/>
</g>

<g transform="matrix( 1, 0, 0, 1, 0,0) ">
<use xlink:href="#Layer0_0_FILL"/>
</g>
</svg>
