
<svg xmlns="http://www.w3.org/2000/svg" version="1.1" xmlns:xlink="http://www.w3.org/1999/xlink" preserveAspectRatio="none" x="0px" y="0px" width="1024px" height="1024px" viewBox="0 0 1024 1024">
<defs>
<g id="Layer4_0_FILL">
<path fill="#000000" fill-opacity="0.09803921568627451" stroke="none" d="
M 969.6 351.25
Q 961 330.4 950.2 310.4 944.1 299.05 937.3 288 907.95 240.45 865.75 198.2 727.5 59.95 531.95 59.95 336.45 59.95 198.2 198.2 59.95 336.45 59.95 531.95 59.95 727.5 198.2 865.75 336.45 1003.95 531.95 1003.95 727.5 1003.95 865.75 865.75 941.9 789.55 976.1 696 1003.95 619.75 1003.95 531.95 1003.95 464.6 987.55 404 985.7 397.15 983.65 390.4 977.5 370.45 969.6 351.25 Z"/>
</g>

<g id="Layer3_0_FILL">
<path fill="#BA68C8" stroke="none" d="
M 969.7 392
Q 967.95 385.15 966.05 378.4 964.52578125 373.114453125 962.85 367.85 960.3787109375 359.903125 957.6 352.05 947.85 324.5 934.45 298.4 928.65 287.05 922.15 276 891.5 224 845.8 178.25 736.8 69.25 592.15 46.2 567.65 42.3 542.1 40.85 527.2 40 512 40 497.9 40 484.1 40.75 306.55 49.95 178.25 178.25 40 316.5 40 512 40 707.55 178.25 845.8 263.0400390625 930.55703125 369.35 963.35 423.8880859375 980.1630859375 484.1 983.3 484.3 983.3 484.5 983.3 496.65 983.9 509 984 510.5 984 512 984 527.25 984 542.1 983.2 545.6 983 549.05 982.75 579.1 980.6 607.75 975.05 619.55 972.75 631.15 969.9 751.75 939.85 845.8 845.8 918.7 772.85 953.15 684 980.9 612.4 983.7 530.5 984 521.3 984 512 984 511 984 510 984 509.5 984 509 983.65 447.7 969.7 392 Z"/>
</g>

<g id="Layer2_0_FILL">
<path fill="#000000" fill-opacity="0.2" stroke="none" d="
M 983.2 541.3
L 735.3 293.4 606 225.75 415 222 253 367 236 527 316.75 701.35 593.05 977.65
Q 600.4494140625 976.4642578125 607.75 975.05 619.55 972.75 631.15 969.9 751.75 939.85 845.8 845.8 918.7 772.85 953.15 684 979.059375 617.14921875 983.2 541.3 Z"/>
</g>

<g id="Layer1_0_FILL">
<path fill="#FFFFFF" stroke="none" d="
M 172.8 175.85
Q 170.35 170.05 163.9 166.9 157.45 163.7 148.15 163.75 138.85 163.75 132.4 166.9 126 170.1 123.55 175.85 119.8 184.6 126.25 229.65 129.05 248.75 131.55 254.5 134.1 260.25 140.8 262.65
L 140.9 262.7
Q 146.45 264.65 151.95 263.7 157.5 262.75 161.6 259.1 164.65 256.4 166.25 250.8 167.95 245.05 170.1 229.65 176.55 184.6 172.8 175.85
M 164.15 147.4
Q 169.55 142.95 171.7 136.55 174 129.75 171.9 122.6 170.45 117.75 167 113.5 163.45 109.2 158.9 106.85 154.7 104.65 148.35 104.65 142 104.65 137.8 106.85 131.2 110.35 127.55 116.05 123.9 121.8 123.9 128.65 124 136.3 127.5 141.95 131.05 147.65 137.7 150.75
L 137.9 150.75
Q 144.75 153.95 152 152.85 158.8 151.85 164.15 147.4
M 242.25 89.55
Q 235.45 76.35 224 64.45 208.95 48.65 189.55 40.4 170.2 32.15 148.3 32.15 126.15 32.15 106.65 40.6 87.15 49.05 71.7 65.35 61 76.55 54.35 89.7 47.7 102.8 44.3 119.15 43.05 125.15 43.2 137.85 43.35 150.45 44.7 157.15 50.1 182.8 64.75 201.85 79.45 220.85 102.6 232.25
L 103.1 232.65
Q 113.05 237.45 114.3 237.45 115.1 237.45 115.25 236.25 115.4 235.1 115 231.65 114.4 226.15 113.35 224.2 112.25 222.3 109.1 220.95 105.4 219.4 98.8 215.05 84.25 205.7 73.7 190.75 63.2 175.85 58.9 158.65 57.2 151.6 57.2 137.8 57.2 124 58.9 116.95 65.35 91 84.8 72.05 104.25 53.1 129.8 47.85 137.25 46.35 148.6 46.35 159.95 46.35 167.3 47.85 192.55 53.1 211.7 71.3 230.75 89.45 237.6 114.75 239.75 122.7 239.95 136.75 240.15 150.8 238.2 158.55 235.1 170.95 228.65 182.35 222.15 193.75 213.1 202.75 207.85 208 200.45 213.3 193.05 218.6 188 220.7 184.85 222 183.75 223.95 182.65 225.85 182 231.4 181.6 234.9 181.75 236 181.9 237.15 182.7 237.15 184.95 237.15 195.6 231.4 206.2 225.65 211.9 221.35 227.85 209.3 238.4 192.1 248.95 174.85 252.4 155.15 253.45 148.85 253.45 136.9 253.4 124.85 252.3 119.35 249 102.7 242.25 89.55
M 174.9 86.95
Q 182.25 90.75 188.5 97 204.55 113.15 205.5 135.2 206.4 157.25 191.7 174.85
L 186.5 181 186.5 188.6
Q 186.5 191.65 186.7 193.95 186.85 196.15 187.1 196.15 188.45 196.15 194.3 190.95 200.15 185.75 203.3 181.75 209.65 173.75 213.4 165 217.1 156.2 218.5 145.75 222.1 119.85 206 97.15 189.9 74.4 163.8 68.6 156.25 66.9 144.85 67.3 133.45 67.75 127.3 69.9 109.3 76.3 96.85 89.4 84.4 102.55 79.7 120.15 77.9 126.65 77.9 137.15 77.85 147.55 79.6 154.15 82.45 164.95 88.85 175.15 95.2 185.4 103 191.6
L 103.4 191.7
Q 105.65 193.55 107.6 194.9 109.5 196.2 109.8 196.2 110.1 196.2 110.35 194 110.55 191.75 110.55 188.6
L 110.55 181 105.4 174.8
Q 90.7 157.2 91.65 135.1 92.6 113.05 108.7 97.05 115.25 90.55 122.9 86.75 130.5 82.95 140.1 81.35 146.4 80.3 149.3 80.3 152.2 80.35 158.2 81.45 167.5 83.15 174.9 86.95 Z"/>
</g>
</defs>

<g transform="matrix( 1, 0, 0, 1, 0,0) ">
<use xlink:href="#Layer4_0_FILL"/>
</g>

<g transform="matrix( 1, 0, 0, 1, 0,0) ">
<use xlink:href="#Layer3_0_FILL"/>
</g>

<g transform="matrix( 1, 0, 0, 1, 0,0) ">
<use xlink:href="#Layer2_0_FILL"/>
</g>

<g transform="matrix( 2.7860260009765625, 0, 0, 2.7860260009765625, 98.85,99.45) ">
<use xlink:href="#Layer1_0_FILL"/>
</g>
</svg>
