<?xml version="1.0" encoding="utf-8"?>
<!-- Generator: flash2svg, http://dissentgraphics.com/tools/flash2svg -->
<svg xmlns:xlink="http://www.w3.org/1999/xlink" id="Apps-GiphyCapture" image-rendering="optimizeSpeed" baseProfile="basic" version="1.1" style="background-color:#ffffff" x="0px" y="0px" width="1024px" height="1024px" viewBox="0 0 1024 1024" enable-background="new 0 0 1024 1024" xmlns="http://www.w3.org/2000/svg">
  <defs transform="matrix(1 0 0 1 0 0) "/>
  <g id="background-circle-shadow">
    <g id="shape">
      <path id="path" fill="#000000" fill-opacity="0.09803921568627451" d="M969.65,351.3 Q961.05,330.45 950.25,310.45 C946.2,302.9 941.9,295.4 937.35,288.05 917.8,256.35 893.95,226.4 865.8,198.25 773.65,106.1 662.35,60 532,60 401.65,60 290.4,106.1 198.25,198.25 106.1,290.4 60,401.65 60,532 60,662.35 106.1,773.65 198.25,865.8 290.4,957.95 401.65,1004 532,1004 662.35,1004 773.65,957.95 865.8,865.8 916.55,815 953.35,758.4 976.15,696.05 994.7,645.2 1004,590.55 1004,532 1004,487.1 998.55,444.45 987.6,404.05 986.35,399.5 985.05,394.95 983.7,390.45 979.6,377.15 974.9,364.1 969.65,351.3z"/>
    </g>
  </g>
  <g id="background-circle">
    <g id="shape2">
      <path id="path1" fill="#333333" fill-opacity="1" d="M966.1,378.45 C965.1,375.05 964.1,371.6 962.95,367.95 961.35,362.8 959.55,357.45 957.65,352.1 951.2,333.85 943.5,316.05 934.5,298.45 930.7,291.05 926.55,283.5 922.2,276.05 901.9,241.55 876.4,208.85 845.85,178.3 773.25,105.7 688.7,61.65 592.2,46.25 575.95,43.65 559.4,41.85 542.15,40.9 532.45,40.35 522.3,40.05 512.05,40.05 502.7,40.05 493.45,40.3 484.15,40.8 365.8,46.9 263.85,92.75 178.3,178.3 Q40.05,316.55 40.05,512.05 C40.05,642.4 86.15,753.7 178.3,845.85 235,902.5 298.85,941.75 369.4,963.4 406.15,974.65 444.2,981.25 484.15,983.35 484.3,983.35 484.4,983.35 484.55,983.35 493.05,983.8 501.15,984.05 509.05,984.05 510.25,984.05 511.15,984.05 512.05,984.05 522.35,984.05 532.55,983.75 542.15,983.25 544.65,983.1 546.9,982.95 549.1,982.8 569.3,981.35 589,978.75 607.8,975.1 615.75,973.55 623.6,971.8 631.2,969.95 712,949.65 783.35,908.35 845.85,845.85 894.45,797.25 930.25,743.35 953.2,684.05 971.65,636.4 981.85,585.25 983.75,530.55 983.95,524.5 984.05,518.3 984.05,512.05 984.05,511.4 984.05,510.7 984.05,510.05 984.05,509.7 984.05,509.4 984.05,509.05 983.85,468.4 979.1,429.55 969.75,392.05 968.65,387.7 967.4,383.05 966.1,378.45z"/>
    </g>
  </g>
  <g id="object-shadow">
    <g id="shape4">
      <path id="path2" fill="#000000" fill-opacity="0.2" d="M824.5,446.05 L658.075,320.725 317.05,300.05 292.725,357.925 226.45,407.05 216.8,728.05 471.275,982.525 L471.3,982.55 C475.75,982.9 479.95,983.15 484.15,983.35 484.3,983.35 484.4,983.35 484.55,983.35 493.05,983.8 501.15,984.05 509.05,984.05 Q510.55,984.05 512.05,984.05 C522.35,984.05 532.55,983.75 542.15,983.25 544.65,983.1 546.9,982.95 549.1,982.8 569.3,981.35 589,978.75 607.8,975.1 615.75,973.55 623.6,971.8 631.2,969.95 712,949.65 783.35,908.35 845.85,845.85 894.45,797.25 930.25,743.35 953.2,684.05 963.8,656.7 971.65,628.2 976.85,598.4 L824.5,446.05z"/>
    </g>
  </g>
  <g id="object">
    <g id="shape6">
      <path id="path3" fill="#9340FB" fill-opacity="1" d="M733.25,376.9 Q718.2,361.85 697.05,361.9 L251.05,361.9 C236.95,361.85 224.9,366.85 214.9,376.9 204.85,386.9 199.85,398.95 199.9,413.05 L199.9,690.05 C199.85,704.15 204.85,716.2 214.9,726.25 224.9,736.25 236.95,741.25 251.05,741.25 L697.05,741.25 C711.15,741.25 723.2,736.25 733.25,726.25 743.25,716.2 748.25,704.15 748.25,690.05 L748.25,413.05 C748.25,398.95 743.25,386.9 733.25,376.9z M705.9,413.05 L705.9,690.05 C705.85,692.5 705,694.55 703.3,696.3 701.55,698 699.5,698.85 697.05,698.9 L251.05,698.9 C248.6,698.85 246.55,698 244.85,696.3 243.1,694.55 242.25,692.5 242.25,690.05 L242.25,413.05 C242.25,410.6 243.1,408.55 244.85,406.85 246.55,405.1 248.6,404.25 251.05,404.25 L697.05,404.25 C699.5,404.25 701.55,405.1 703.3,406.85 705,408.55 705.85,410.6 705.9,413.05z"/>
    </g>
  </g>
  <g id="Calque.__201">
    <g id="shape11">
      <path id="path7" fill="#2AFD98" fill-opacity="1" d="M661.35,325.25 L661.35,394.85 C661.3,408.95 666.3,421 676.35,431.05 686.35,441.05 698.4,446.05 712.5,446.05 L783.05,446.05 824.5,446.05 661.35,282.9 661.35,325.25z"/>
      <path id="path11" fill="#00C6FE" fill-opacity="1" d="M661.35,325.25 L661.35,282.9 328.2,282.9 C314.1,282.85 302.05,287.85 292.05,297.9 282,307.9 277,319.95 277.05,334.05 L277.05,611.05 C277,625.15 282,637.2 292.05,647.25 302.05,657.25 314.1,662.25 328.2,662.25 L774.2,662.25 C788.3,662.25 800.35,657.25 810.4,647.25 820.4,637.2 825.4,625.15 825.4,611.05 L825.4,446.05 824.5,446.05 783.05,446.05 783.05,611.05 C783,613.5 782.15,615.55 780.45,617.3 778.7,619 776.65,619.85 774.2,619.9 L328.2,619.9 C325.75,619.85 323.7,619 322,617.3 320.25,615.55 319.4,613.5 319.4,611.05 L319.4,334.05 C319.4,331.6 320.25,329.55 322,327.85 323.7,326.1 325.75,325.25 328.2,325.25 L661.35,325.25z"/>
    </g>
  </g>
</svg>