<?xml version="1.0" encoding="utf-8"?>
<!-- Generator: flash2svg, http://dissentgraphics.com/tools/flash2svg -->
<svg xmlns:xlink="http://www.w3.org/1999/xlink" id="Steam" image-rendering="optimizeSpeed" baseProfile="basic" version="1.1" style="background-color:#ffffff" x="0px" y="0px" width="1024px" height="1024px" viewBox="0 0 1024 1024" enable-background="new 0 0 1024 1024" xmlns="http://www.w3.org/2000/svg">
  <defs transform="matrix(1 0 0 1 0 0) "/>
  <g id="shadow">
    <g id="shape">
      <path id="path" fill="#000000" fill-opacity="0.09803921568627451" d="M969.65,351.3 Q961.05,330.45 950.25,310.45 C946.2,302.9 941.9,295.4 937.35,288.05 917.8,256.35 893.95,226.4 865.8,198.25 773.65,106.1 662.35,60 532,60 401.65,60 290.4,106.1 198.25,198.25 106.1,290.4 60,401.65 60,532 60,662.35 106.1,773.65 198.25,865.8 290.4,957.95 401.65,1004 532,1004 662.35,1004 773.65,957.95 865.8,865.8 916.55,815 953.35,758.4 976.15,696.05 994.7,645.2 1004,590.55 1004,532 1004,487.1 998.55,444.45 987.6,404.05 986.35,399.5 985.05,394.95 983.7,390.45 979.6,377.15 974.9,364.1 969.65,351.3z"/>
    </g>
  </g>
  <g id="criclebg">
    <g id="shape2">
      <path id="path1" fill="#333333" fill-opacity="1" d="M849.15,181.65 C848.05,180.5 846.95,179.4 845.85,178.3 811.5,143.95 774.55,116.05 734.95,94.55 728.25,90.9 721.5,87.45 714.3,84 679.25,67.25 641.8,55.15 602.4,48 599.3,47.45 596.2,46.9 593.05,46.4 592.75,46.35 592.45,46.3 592.2,46.25 588,45.6 583.8,45 579.45,44.4 575.4,43.9 571.25,43.4 567.05,42.95 563.45,42.55 559.85,42.2 556.05,41.9 551.6,41.5 546.9,41.15 542.15,40.9 541.7,40.85 541.3,40.85 540.85,40.85 531.35,40.3 521.75,40.05 512.05,40.05 502.7,40.05 493.45,40.3 484.15,40.8 482.45,40.9 480.75,41 479.05,41.1 475.4,41.3 471.75,41.55 468.05,41.9 461.95,42.4 455.85,43 449.8,43.75 448,43.95 446.25,44.15 444.6,44.4 401,50.15 359.9,61.6 321.3,78.75 317.45,80.45 313.6,82.2 309.75,84.05 262.25,106.7 218.5,138.1 178.3,178.3 177.75,178.85 177.25,179.35 176.75,179.85 176.1,180.5 175.5,181.1 174.9,181.75 134.45,222.9 103.15,267.8 80.9,316.5 73.05,333.65 66.4,351.1 60.85,369 Q40.05,436.2 40.05,512.05 C40.05,640.8 85,750.95 174.9,842.45 175.5,843.05 176.1,843.65 176.75,844.3 177.25,844.8 177.75,845.3 178.3,845.85 181.75,849.3 185.2,852.65 188.4,855.7 226.2,891.5 266.75,919.65 309.75,940.1 313.7,941.95 317.5,943.7 321.3,945.4 326.85,947.85 332.1,950.05 337.4,952.15 343.85,954.75 350,957 356.2,959.1 384.8,968.9 414.4,975.8 444.6,979.75 446.5,980 448.15,980.2 449.8,980.4 461.3,981.8 472.65,982.75 484.15,983.35 484.3,983.35 484.4,983.35 484.55,983.35 493.05,983.8 501.15,984.05 509.05,984.05 510.25,984.05 511.15,984.05 512.05,984.05 521.8,984.05 531.4,983.8 540.85,983.35 541.3,983.3 541.7,983.3 542.15,983.25 544.65,983.1 546.9,982.95 549.1,982.8 559.4,982.05 569.55,981.05 579.45,979.75 587.25,978.7 594.9,977.5 602.4,976.15 604.3,975.8 606.05,975.45 607.8,975.1 615.75,973.55 623.6,971.8 631.2,969.95 660.1,962.7 687.8,952.75 714.3,940.2 721.3,936.8 728.15,933.3 734.95,929.65 760.15,915.95 784.3,899.65 807.35,880.8 820.6,869.9 833.4,858.3 845.85,845.85 846.95,844.75 848.05,843.65 849.15,842.55 849.8,841.9 850.4,841.25 851.05,840.6 873.65,817.35 893.25,793.1 909.95,767.7 927.5,741.15 941.9,713.25 953.2,684.05 957.15,673.8 960.75,663.4 963.95,652.9 975.65,614.25 982.25,573.5 983.75,530.55 983.95,524.5 984.05,518.3 984.05,512.05 984.05,511.4 984.05,510.7 984.05,510.05 984.05,509.7 984.05,509.4 984.05,509.05 983.85,468.4 979.1,429.55 969.75,392.05 968.65,387.7 967.4,383.05 966.1,378.45 963.85,370.6 961.35,362.65 958.55,354.65 958.25,353.9 957.95,353 957.65,352.1 953.4,340.1 948.65,328.3 943.25,316.5 940.55,310.55 937.6,304.5 934.5,298.45 930.7,291.05 926.55,283.5 922.2,276.05 904.25,245.5 882.15,216.35 855.7,188.4 854.25,186.9 852.65,185.25 851.05,183.6 850.4,182.95 849.8,182.3 849.15,181.65z"/>
    </g>
  </g>
  <g id="criclebg1">
    <g id="shape4">
      <path id="path2" fill="#000000" fill-opacity="0.2" d="M953.2,684.05 C957.15,673.8 960.75,663.4 963.95,652.9 975.65,614.25 982.25,573.5 983.75,530.55 Q983.99,523.176 984.05,515.75 L839.45,371.15 604.05,361.1 591.95,605.2 491.475,623.95 434.8,685.55 444.8,769.35 642.45,967 C667.45,960.05 691.3,951.1 714.3,940.2 721.3,936.8 728.15,933.3 734.95,929.65 760.15,915.95 784.3,899.65 807.35,880.8 820.6,869.9 833.4,858.3 845.85,845.85 846.95,844.75 848.05,843.65 849.15,842.55 849.8,841.9 850.4,841.25 851.05,840.6 873.65,817.35 893.25,793.1 909.95,767.7 927.5,741.15 941.9,713.25 953.2,684.05z"/>
    </g>
  </g>
  <g id="Calque.__202">
    <g id="shape6">
      <path id="path3" fill="#999999" fill-opacity="1" d="M795.9,294.1 C796.35,294.5 796.75,294.9 797.15,295.35 801.4,299.55 805.4,303.9 809.2,308.35 816.85,317.15 823.4,326.1 829.05,335.55 842.7,357.8 851.6,382.2 855.6,408.5 857.3,419.4 858.15,430.85 858.15,442.5 858.15,450.15 857.8,457.5 857.05,464.95 853.35,503.25 839.8,537.45 816.6,567.6 810.65,575.25 804.25,582.55 797.15,589.65 756.5,630.3 707.45,650.7 649.9,650.7 638.35,650.7 627.2,649.95 616.25,648.2 578.8,642.55 545.5,627.2 515.8,601.8 511.6,598.2 507.1,594.05 502.75,589.7 502.35,589.3 501.95,588.9 501.5,588.5 L477.7,612.25 C478.1,612.65 478.5,613.1 478.9,613.5 483.1,617.7 487.45,621.75 491.85,625.6 507.4,639.2 523.85,650.4 541.25,659.3 562.9,670.35 586.15,677.75 610.8,681.5 623.4,683.3 636.5,684.25 649.9,684.3 669.4,684.25 688.1,682.25 706,678.2 Q770.85,663.6 820.9,613.5 C868.2,566.3 891.75,509.2 891.75,442.5 891.75,439.45 891.7,436.35 891.6,433.35 889.75,376.4 870.3,326.95 833.05,284.45 829.2,280.05 825.15,275.75 820.9,271.5 820.5,271.1 820.1,270.65 819.7,270.25 L795.9,294.1z M683.8,236.9 C672.85,235.2 661.55,234.3 649.9,234.3 645.05,234.35 640.2,234.55 635.4,234.85 632.7,235.05 630.1,235.2 627.55,235.45 589.25,239.1 554.9,252.7 524.75,275.95 517.15,281.8 509.8,288.25 502.75,295.25 486,312 472.7,330.2 462.8,349.9 450.9,373.55 444.05,399.5 442.25,427.45 441.9,432.45 441.8,437.45 441.7,442.5 441.8,487.2 454.1,526.9 478.7,561.5 485.45,570.85 493.05,579.85 501.5,588.5 L530.8,559.2 C520.4,548.5 511.7,537.2 504.85,525.3 491,501.25 484.1,474.3 484.1,444.7 484,407.2 495,374.35 516.95,346.05 521.5,340.1 526.55,334.45 532.05,328.95 563.95,297 602.5,281 647.7,281 692.35,281 730.55,296.55 762.3,327.7 L795.9,294.1 C771.05,269.65 743.15,252.7 712.05,243.25 702.95,240.4 693.55,238.35 683.8,236.9z"/>
      <path id="path4" fill="#CCCCCC" fill-opacity="1" d="M797.15,295.35 C796.75,294.9 796.35,294.5 795.9,294.1 L762.3,327.7 C762.7,328.1 763.1,328.55 763.55,328.95 767.45,332.9 771.2,336.85 774.65,341.1 774.9,341.4 775.2,341.7 775.45,342.05 799.45,371.25 811.4,405.5 811.4,444.7 811.4,489.9 795.45,528.45 763.55,560.45 758,565.95 752.3,570.9 746.45,575.55 718.15,597.35 685.25,608.3 647.8,608.4 608.8,608.3 574.7,596.4 545.2,572.35 540.85,568.85 536.4,564.8 532.05,560.45 531.65,560.05 531.2,559.6 530.8,559.2 L501.5,588.5 C501.95,588.9 502.35,589.3 502.75,589.7 507.1,594.05 511.6,598.2 515.8,601.8 545.5,627.2 578.8,642.55 616.25,648.2 627.2,649.95 638.35,650.7 649.9,650.7 707.45,650.7 756.5,630.3 797.15,589.65 804.25,582.55 810.65,575.25 816.6,567.6 839.8,537.45 853.35,503.25 857.05,464.95 857.8,457.5 858.15,450.15 858.15,442.5 858.15,430.85 857.3,419.4 855.6,408.5 851.6,382.2 842.7,357.8 829.05,335.55 823.4,326.1 816.85,317.15 809.2,308.35 805.4,303.9 801.4,299.55 797.15,295.35z M649.9,234.3 C661.55,234.3 672.85,235.2 683.8,236.9 693.55,238.35 702.95,240.4 712.05,243.25 743.15,252.7 771.05,269.65 795.9,294.1 L819.7,270.25 C772.7,223.9 716.15,200.65 649.9,200.65 583.15,200.6 526.2,224.3 478.9,271.5 445.5,304.95 423.85,343.2 414.15,386.55 410.1,404.25 408.1,422.9 408.1,442.5 408.1,508.7 431.3,565.25 477.7,612.25 L501.5,588.5 C493.05,579.85 485.45,570.85 478.7,561.5 454.1,526.9 441.8,487.2 441.7,442.5 441.8,437.45 441.9,432.45 442.25,427.45 444.05,399.5 450.9,373.55 462.8,349.9 472.7,330.2 486,312 502.75,295.25 509.8,288.25 517.15,281.8 524.75,275.95 554.9,252.7 589.25,239.1 627.55,235.45 630.1,235.2 632.7,235.05 635.4,234.85 640.2,234.55 645.05,234.35 649.9,234.3z"/>
    </g>
  </g>
  <g id="Calque.__203">
    <g id="shape17">
      <path id="path13" fill="#CCCCCC" fill-opacity="1" d="M295.5,788.3 C293.45,786 291.3,783.3 289.25,780.55 277.35,764.25 271.35,745.45 271.35,724.05 271.4,697.35 280.85,674.55 299.8,655.6 318.65,636.65 341.55,627.15 368.25,627.15 393.3,627.2 414.7,635.35 432.4,651.4 434.2,652.95 435.6,654.3 436.9,655.6 437.25,655.95 437.65,656.35 438.05,656.75 L465.05,629.7 C464.75,629.35 464.3,628.9 463.9,628.5 462.6,627.2 461.3,625.9 459.5,624.3 Q421.6,589.3 369.3,589.4 C332.4,589.4 300.8,602.35 274.7,628.45 248.6,654.55 235.5,686.2 235.5,723.1 235.5,758.15 247.3,788.4 270.45,813.3 272.1,815.15 273.4,816.45 274.7,817.75 275.05,818.1 275.45,818.55 275.9,818.95 L300.9,793.85 C300.55,793.5 300.15,793.1 299.7,792.7 298.35,791.3 297.05,789.95 295.5,788.3z"/>
      <path id="path14" fill="#999999" fill-opacity="1" d="M465.05,629.7 L438.05,656.75 C456.2,675.45 465.3,697.9 465.2,724.05 465.2,745.45 459.35,764.15 447.35,780.5 L447.35,780.55 C444.25,784.75 440.75,788.75 436.9,792.7 417.95,811.65 395.2,821.1 368.35,821.1 L368.2,821.1 C342,821.1 319.55,812 300.9,793.85 L275.9,818.95 C280.2,823.15 284.65,827 289.2,830.5 312.25,848.1 339,856.9 369.3,856.85 399.6,856.85 426.3,848.1 449.3,830.5 454.35,826.75 459.2,822.4 463.9,817.7 490,791.6 503.1,760.05 503.1,723.1 503.05,686.65 490.35,655.5 465.05,629.7z"/>
    </g>
  </g>
  <mask id="criclebg2">
    <g id="g">
      <g id="shape26">
        <path id="path17" fill="#FFFFFF" fill-opacity="1" d="M849.15,181.65 C848.05,180.5 846.95,179.4 845.85,178.3 811.5,143.95 774.55,116.05 734.95,94.55 728.25,90.9 721.5,87.45 714.3,84 679.25,67.25 641.8,55.15 602.4,48 599.3,47.45 596.2,46.9 593.05,46.4 592.75,46.35 592.45,46.3 592.2,46.25 588,45.6 583.8,45 579.45,44.4 575.4,43.9 571.25,43.4 567.05,42.95 563.45,42.55 559.85,42.2 556.05,41.9 551.6,41.5 546.9,41.15 542.15,40.9 541.7,40.85 541.3,40.85 540.85,40.85 531.35,40.3 521.75,40.05 512.05,40.05 502.7,40.05 493.45,40.3 484.15,40.8 482.45,40.9 480.75,41 479.05,41.1 475.4,41.3 471.75,41.55 468.05,41.9 461.95,42.4 455.85,43 449.8,43.75 448,43.95 446.25,44.15 444.6,44.4 401,50.15 359.9,61.6 321.3,78.75 317.45,80.45 313.6,82.2 309.75,84.05 262.25,106.7 218.5,138.1 178.3,178.3 177.75,178.85 177.25,179.35 176.75,179.85 176.1,180.5 175.5,181.1 174.9,181.75 134.45,222.9 103.15,267.8 80.9,316.5 73.05,333.65 66.4,351.1 60.85,369 Q40.05,436.2 40.05,512.05 C40.05,640.8 85,750.95 174.9,842.45 175.5,843.05 176.1,843.65 176.75,844.3 177.25,844.8 177.75,845.3 178.3,845.85 181.75,849.3 185.2,852.65 188.4,855.7 226.2,891.5 266.75,919.65 309.75,940.1 313.7,941.95 317.5,943.7 321.3,945.4 326.85,947.85 332.1,950.05 337.4,952.15 343.85,954.75 350,957 356.2,959.1 384.8,968.9 414.4,975.8 444.6,979.75 446.5,980 448.15,980.2 449.8,980.4 461.3,981.8 472.65,982.75 484.15,983.35 484.3,983.35 484.4,983.35 484.55,983.35 493.05,983.8 501.15,984.05 509.05,984.05 510.25,984.05 511.15,984.05 512.05,984.05 521.8,984.05 531.4,983.8 540.85,983.35 541.3,983.3 541.7,983.3 542.15,983.25 544.65,983.1 546.9,982.95 549.1,982.8 559.4,982.05 569.55,981.05 579.45,979.75 587.25,978.7 594.9,977.5 602.4,976.15 604.3,975.8 606.05,975.45 607.8,975.1 615.75,973.55 623.6,971.8 631.2,969.95 660.1,962.7 687.8,952.75 714.3,940.2 721.3,936.8 728.15,933.3 734.95,929.65 760.15,915.95 784.3,899.65 807.35,880.8 820.6,869.9 833.4,858.3 845.85,845.85 846.95,844.75 848.05,843.65 849.15,842.55 849.8,841.9 850.4,841.25 851.05,840.6 873.65,817.35 893.25,793.1 909.95,767.7 927.5,741.15 941.9,713.25 953.2,684.05 957.15,673.8 960.75,663.4 963.95,652.9 975.65,614.25 982.25,573.5 983.75,530.55 983.95,524.5 984.05,518.3 984.05,512.05 984.05,511.4 984.05,510.7 984.05,510.05 984.05,509.7 984.05,509.4 984.05,509.05 983.85,468.4 979.1,429.55 969.75,392.05 968.65,387.7 967.4,383.05 966.1,378.45 963.85,370.6 961.35,362.65 958.55,354.65 958.25,353.9 957.95,353 957.65,352.1 953.4,340.1 948.65,328.3 943.25,316.5 940.55,310.55 937.6,304.5 934.5,298.45 930.7,291.05 926.55,283.5 922.2,276.05 904.25,245.5 882.15,216.35 855.7,188.4 854.25,186.9 852.65,185.25 851.05,183.6 850.4,182.95 849.8,182.3 849.15,181.65z"/>
      </g>
    </g>
  </mask>
  <g id="masked" mask="url(#criclebg2)">
    <g id="Calque.__204">
      <g id="shape22">
        <path id="path15" fill="#999999" fill-opacity="1" d="M350.087,763.562 L406.582,707.067 -451.455,-150.97 -479.014,-123.412 351.465,707.067 322.528,736.003 350.087,763.562z"/>
        <path id="path16" fill="#717171" fill-opacity="1" d="M322.528,736.003 L351.465,707.067 -479.014,-123.412 -507.95,-94.475 322.528,736.003z"/>
      </g>
    </g>
  </g>
  <g id="Calque.__205">
    <g id="shape28">
      <path id="path18" fill="#999999" fill-opacity="1" d="M627.6,463 L623.45,458.9 563.45,398.9 338.45,701.9 359.45,722.9 363.6,727.05 627.6,463z"/>
      <path id="path19" fill="#717171" fill-opacity="1" d="M363.6,727.05 L390.8,754.2 693.75,529.15 627.6,463 363.6,727.05z"/>
    </g>
  </g>
  <g id="Calque.__206">
    <g id="shape32">
      <path id="path20" fill="#CCCCCC" fill-opacity="1" d="M734.25,358.15 C723.15,347.05 711.1,338.6 697.9,332.65 682.6,325.7 665.85,322.25 647.8,322.25 619.4,322.25 594.6,330.65 573.25,347.5 569.1,350.65 565.1,354.25 561.25,358.15 537.3,382.05 525.35,410.8 525.35,444.7 525.35,445.75 525.45,446.7 525.45,447.65 526.1,480.2 538.05,507.95 561.25,531.15 585.15,555.05 613.95,567 647.7,567.05 681.55,567 710.35,555.05 734.3,531.15 Q740.1,525.3 745,519.1 C761.65,497.75 770.15,472.95 770.15,444.65 770.15,410.8 758.15,382.05 734.25,358.15z"/>
    </g>
  </g>
  <g id="Calque.__207">
    <g id="shape34">
      <path id="path21" fill="#CCCCCC" fill-opacity="1" d="M312.65,724.05 L312.65,724.2 C312.65,736.25 316.05,746.9 322.6,756.2 324.45,758.65 326.6,761.15 328.95,763.5 339.75,774.3 352.9,779.75 368.35,779.65 383.7,779.75 396.8,774.3 407.7,763.5 410.05,761.15 412.15,758.65 414,756.2 L413.95,756.2 C420.65,746.9 423.95,736.15 423.95,724.05 423.95,708.8 418.45,695.6 407.6,684.8 396.75,673.9 383.65,668.55 368.35,668.55 L368.25,668.55 C353,668.55 339.8,673.9 329,684.8 318.1,695.6 312.65,708.8 312.65,724.05z"/>
    </g>
  </g>
  <g id="Calque.__208">
    <g id="Symbole.__2040_1" overflow="visible">
      <g id="Calque.__210">
        <g id="shape38">
          <path id="path23" fill="#999999" fill-opacity="1" d="M684.314,405.636 Q668.124,389.445 645.25,389.445 C630.024,389.445 617.002,394.819 606.186,405.636 595.369,416.452 589.995,429.474 589.995,444.7 589.995,459.926 595.369,472.948 606.186,483.764 617.002,494.581 630.024,499.955 645.25,499.955 660.476,499.955 673.498,494.581 684.314,483.764 695.131,472.948 700.505,459.926 700.505,444.7 700.505,429.474 695.131,416.452 684.314,405.636z"/>
        </g>
      </g>
    </g>
    <g id="Symbole.__2040_2" overflow="visible">
      <g id="Calque.__211">
        <g id="shape39">
          <path id="path24" fill="#999999" fill-opacity="1" d="M382.855,712.095 Q377.196,706.435 369.2,706.435 C363.878,706.435 359.326,708.314 355.545,712.095 351.764,715.876 349.885,720.428 349.885,725.75 349.885,731.072 351.764,735.624 355.545,739.405 359.326,743.186 363.878,745.065 369.2,745.065 374.522,745.065 379.074,743.186 382.855,739.405 386.636,735.624 388.515,731.072 388.515,725.75 388.515,720.428 386.636,715.876 382.855,712.095z"/>
        </g>
      </g>
    </g>
  </g>
</svg>