<?xml version="1.0" encoding="utf-8"?>
<!-- Generator: flash2svg, http://dissentgraphics.com/tools/flash2svg -->
<svg xmlns:xlink="http://www.w3.org/1999/xlink" id="Apps-Google-Chrome" image-rendering="optimizeSpeed" baseProfile="basic" version="1.1" style="background-color:#ffffff" x="0px" y="0px" width="1024px" height="1024px" viewBox="0 0 1024 1024" enable-background="new 0 0 1024 1024" xmlns="http://www.w3.org/2000/svg">
  <defs transform="matrix(1 0 0 1 0 0) "/>
  <g id="shadow">
    <g id="shape">
      <path id="path" fill="#000000" fill-opacity="0.09803921568627451" d="M969.65,351.3 Q961.05,330.45 950.25,310.45 C946.2,302.9 941.9,295.4 937.35,288.05 917.8,256.35 893.95,226.4 865.8,198.25 773.65,106.1 662.35,60 532,60 401.65,60 290.4,106.1 198.25,198.25 106.1,290.4 60,401.65 60,532 60,662.35 106.1,773.65 198.25,865.8 290.4,957.95 401.65,1004 532,1004 662.35,1004 773.65,957.95 865.8,865.8 916.55,815 953.35,758.4 976.15,696.05 994.7,645.2 1004,590.55 1004,532 1004,487.1 998.55,444.45 987.6,404.05 986.35,399.5 985.05,394.95 983.7,390.45 979.6,377.15 974.9,364.1 969.65,351.3z"/>
    </g>
  </g>
  <g id="circle">
    <g id="shape2">
      <path id="path1" fill="#E85479" fill-opacity="1" d="M982.1,517 Q982.1,514.55 982.1,512.05 C982.1,381.7 936.05,270.45 843.9,178.3 752,86.45 641.05,40.35 511.1,40.1 L511.1,515.05 513.1,515.05 513.1,517 982.1,517z"/>
      <path id="path2" fill="#00C0E6" fill-opacity="1" d="M511.1,40.1 C510.75,40.1 510.45,40.1 510.1,40.1 379.75,40.1 268.5,86.15 176.35,178.3 84.2,270.45 38.15,381.7 38.15,512.05 38.15,513.05 38.15,514.05 38.15,515.05 L511.1,515.05 511.1,40.1z"/>
      <path id="path3" fill="#EBC240" fill-opacity="1" d="M513.1,517 L513.1,515.05 511.1,515.05 38.15,515.05 C38.85,644.15 84.9,754.4 176.35,845.85 268.5,938 379.75,984.05 510.1,984.05 510.45,984.05 510.75,984.05 511.1,984.05 511.75,984.05 512.45,984.05 513.1,984.05 L513.1,517z"/>
      <path id="path4" fill="#55DA97" fill-opacity="1" d="M513.1,517 L513.1,984.05 C642.2,983.3 752.45,937.25 843.9,845.85 934.85,754.85 980.95,645.25 982.1,517 L513.1,517z"/>
    </g>
  </g>
  <g id="inner-circle">
    <g id="shape8">
      <path id="path5" fill="#FFFFFF" fill-opacity="1" d="M862.45,528.85 Q862.8,520.524 862.8,512.05 C862.8,415.2 828.55,332.5 760.1,264.05 691.6,195.6 608.9,161.35 512.05,161.35 415.2,161.35 332.5,195.6 264.05,264.05 195.6,332.5 161.35,415.2 161.35,512.05 161.35,608.9 195.6,691.6 264.05,760.1 332.5,828.55 415.2,862.8 512.05,862.8 543.45,862.8 573.35,859.2 601.8,852 661,837 713.8,806.35 760.1,760.1 824.5,695.65 858.65,618.65 862.45,528.85z"/>
    </g>
  </g>
  <g id="inner-circle1">
    <g id="shape10">
      <path id="path6" fill="#000000" fill-opacity="0.09803921568627451" d="M760.1,760.1 Q847.226,672.932 860.45,555.125 L664.3,359 537.05,334.725 364.475,402.2 349.55,637.05 570.825,858.325 L570.85,858.35 C581.6,856.6 591.8,854.55 601.8,852 661,837 713.8,806.35 760.1,760.1z"/>
    </g>
  </g>
  <g id="svg2">
    <g id="shape12">
      <path id="path7" fill="#96A6A6" fill-opacity="1" d="M717.15,531.15 Q717.15,516.05 715.35,503.05 L713.65,493.1 520.65,493.1 520.65,550.4 657.5,550.4 C654.35,587.95 638.65,617.1 610.35,637.85 585.6,655.9 555.75,664.95 520.9,664.95 500.85,664.95 481.65,661.15 463.3,653.6 445.15,646.25 429.05,635.75 415.1,622.1 400.85,608.25 389.85,592.15 382.1,573.8 373.95,554.65 369.85,534.2 369.85,512.55 369.85,491.3 373.8,471.1 381.7,452 389.25,433.55 400,417.35 414,403.35 427.8,389.3 443.8,378.5 461.95,370.85 480.65,363.05 500.35,359.15 521.05,359.15 548.15,359.15 573.5,366.05 597.05,379.85 608.85,386.75 617.9,393.65 624.25,400.55 L664.3,359 C655.75,349.45 643.25,339.9 626.8,330.35 594.05,311.25 558.1,301.7 519,301.7 489.9,301.7 462.05,307.5 435.45,319.15 410.25,330.25 387.85,345.8 368.2,365.75 348.9,385.4 333.95,407.75 323.35,432.8 312.45,458.35 307,484.6 307,511.5 307,538.15 312.2,564.15 322.6,589.5 332.95,614.75 347.6,637.25 366.55,657 386.1,677.45 408.75,693.25 434.4,704.45 461.75,716.45 490.95,722.45 522.05,722.45 549.9,722.45 575.85,717.85 600,708.6 623.7,699.55 644.3,686.5 661.85,669.55 679.5,652.45 693.05,632.3 702.5,609.1 712.25,585.25 717.15,559.25 717.15,531.15z"/>
    </g>
  </g>
</svg>