<?xml version="1.0" encoding="utf-8"?>
<!-- Generator: flash2svg, http://dissentgraphics.com/tools/flash2svg -->
<svg xmlns:xlink="http://www.w3.org/1999/xlink" id="Cloudapp" image-rendering="optimizeSpeed" baseProfile="basic" version="1.1" style="background-color:#ffffff" x="0px" y="0px" width="1024px" height="1024px" viewBox="0 0 1024 1024" enable-background="new 0 0 1024 1024" xmlns="http://www.w3.org/2000/svg">
  <defs transform="matrix(1 0 0 1 0 0) "/>
  <g id="shadow">
    <g id="shape">
      <path id="path" fill="#000000" fill-opacity="0.09803921568627451" d="M969.65,351.3 Q961.05,330.45 950.25,310.45 C946.2,302.9 941.9,295.4 937.35,288.05 917.8,256.35 893.95,226.4 865.8,198.25 773.65,106.1 662.35,60 532,60 401.65,60 290.4,106.1 198.25,198.25 106.1,290.4 60,401.65 60,532 60,662.35 106.1,773.65 198.25,865.8 290.4,957.95 401.65,1004 532,1004 662.35,1004 773.65,957.95 865.8,865.8 916.55,815 953.35,758.4 976.15,696.05 994.7,645.2 1004,590.55 1004,532 1004,487.1 998.55,444.45 987.6,404.05 986.35,399.5 985.05,394.95 983.7,390.45 979.6,377.15 974.9,364.1 969.65,351.3z"/>
    </g>
  </g>
  <g id="bg">
    <g id="shape2">
      <path id="path1" fill="#3081B9" fill-opacity="1" d="M966.1,378.45 C963.6,369.7 960.75,360.85 957.65,352.1 951.2,333.85 943.5,316.05 934.5,298.45 930.7,291.05 926.55,283.5 922.2,276.05 901.9,241.55 876.4,208.85 845.85,178.3 806.9,139.35 764.5,108.6 718.35,85.95 679.05,66.65 636.9,53.4 592.2,46.25 575.95,43.65 559.4,41.85 542.15,40.9 532.45,40.35 522.3,40.05 512.05,40.05 502.7,40.05 493.45,40.3 484.15,40.8 477.45,41.15 470.8,41.6 464.1,42.25 407.25,47.45 354.3,62.05 305.15,86.25 259.55,108.65 217.25,139.35 178.3,178.3 89.05,267.55 43,374.8 40.2,499.8 46.05,608.7 91.95,702.45 177.95,781 270.2,865.3 381.6,907.45 512.05,907.45 581.6,907.45 645.7,895.5 704.4,871.55 755.8,850.55 803.05,820.35 846.15,781 932.2,702.4 978.1,608.65 983.95,499.7 983.1,462.5 978.4,426.7 969.75,392.05 968.65,387.7 967.4,383.05 966.1,378.45z"/>
      <path id="path2" fill="#296FA0" fill-opacity="1" d="M984.05,509.05 C984.05,505.95 984,502.85 983.95,499.7 978.1,608.65 932.2,702.4 846.15,781 803.05,820.35 755.8,850.55 704.4,871.55 645.7,895.5 581.6,907.45 512.05,907.45 381.6,907.45 270.2,865.3 177.95,781 91.95,702.45 46.05,608.7 40.2,499.8 L40.175,499.775 Q40.05,505.887 40.05,512.05 C40.05,642.4 86.15,753.7 178.3,845.85 263.55,931.1 365.15,976.9 483,983.25 483.35,983.3 483.75,983.3 484.15,983.35 484.3,983.35 484.4,983.35 484.55,983.35 493.05,983.8 501.15,984.05 509.05,984.05 510.25,984.05 511.15,984.05 512.05,984.05 522.35,984.05 532.55,983.75 542.15,983.25 544.65,983.1 546.9,982.95 549.1,982.8 569.3,981.35 589,978.75 607.8,975.1 615.75,973.55 623.6,971.8 631.2,969.95 712,949.65 783.35,908.35 845.85,845.85 851.95,839.75 857.85,833.6 863.35,827.55 903.2,783.7 933.1,735.95 953.2,684.05 962.3,660.6 969.35,636.3 974.5,611 979.7,585.2 982.8,558.35 983.75,530.55 983.95,524.5 984.05,518.3 984.05,512.05 984.05,511.4 984.05,510.7 984.05,510.05 984.05,509.7 984.05,509.4 984.05,509.05z"/>
    </g>
  </g>
  <g id="ico-shadow">
    <g id="shape6">
      <path id="path3" fill="#99FF00" fill-opacity="1" d="M702.35,748.35 Q689.35,761.4 689.35,779.85 C689.35,792.15 693.7,802.65 702.35,811.3 711.05,820 721.55,824.35 733.85,824.35 746.15,824.35 756.65,820 765.3,811.3 774,802.65 778.35,792.15 778.35,779.85 778.35,767.55 774,757.05 765.3,748.35 756.65,739.7 746.15,735.35 733.85,735.35 721.55,735.35 711.05,739.7 702.35,748.35z"/>
      <path id="path4" fill="none" stroke="#296FA0" stroke-opacity="1" stroke-width="32.6" stroke-linecap="round" stroke-linejoin="round" d="M702.35,748.35 Q689.35,761.4 689.35,779.85 C689.35,792.15 693.7,802.65 702.35,811.3 711.05,820 721.55,824.35 733.85,824.35 746.15,824.35 756.65,820 765.3,811.3 774,802.65 778.35,792.15 778.35,779.85 778.35,767.55 774,757.05 765.3,748.35 756.65,739.7 746.15,735.35 733.85,735.35 721.55,735.35 711.05,739.7 702.35,748.35z"/>
    </g>
  </g>
  <mask id="bg1">
    <g id="g">
      <g id="shape10">
        <path id="path6" fill="#FFFFFF" fill-opacity="1" d="M969.75,392.05 C968.65,387.7 967.4,383.05 966.1,378.45 963.6,369.7 960.75,360.85 957.65,352.1 951.2,333.85 943.5,316.05 934.5,298.45 930.7,291.05 926.55,283.5 922.2,276.05 901.9,241.55 876.4,208.85 845.85,178.3 806.9,139.35 764.5,108.6 718.35,85.95 679.05,66.65 636.9,53.4 592.2,46.25 575.95,43.65 559.4,41.85 542.15,40.9 532.45,40.35 522.3,40.05 512.05,40.05 502.7,40.05 493.45,40.3 484.15,40.8 477.45,41.15 470.8,41.6 464.1,42.25 407.25,47.45 354.3,62.05 305.15,86.25 259.55,108.65 217.25,139.35 178.3,178.3 89.05,267.55 43,374.8 40.2,499.8 46.05,608.7 91.95,702.45 177.95,781 270.2,865.3 381.6,907.45 512.05,907.45 581.6,907.45 645.7,895.5 704.4,871.55 755.8,850.55 803.05,820.35 846.15,781 932.2,702.4 978.1,608.65 983.95,499.7 983.1,462.5 978.4,426.7 969.75,392.05z"/>
        <path id="path7" fill="#FFFFFF" fill-opacity="1" d="M983.75,530.55 C983.95,524.5 984.05,518.3 984.05,512.05 984.05,511.4 984.05,510.7 984.05,510.05 984.05,509.7 984.05,509.4 984.05,509.05 984.05,505.95 984,502.85 983.95,499.7 978.1,608.65 932.2,702.4 846.15,781 803.05,820.35 755.8,850.55 704.4,871.55 645.7,895.5 581.6,907.45 512.05,907.45 381.6,907.45 270.2,865.3 177.95,781 91.95,702.45 46.05,608.7 40.2,499.8 L40.175,499.775 Q40.05,505.887 40.05,512.05 C40.05,642.4 86.15,753.7 178.3,845.85 263.55,931.1 365.15,976.9 483,983.25 483.35,983.3 483.75,983.3 484.15,983.35 484.3,983.35 484.4,983.35 484.55,983.35 493.05,983.8 501.15,984.05 509.05,984.05 510.25,984.05 511.15,984.05 512.05,984.05 522.35,984.05 532.55,983.75 542.15,983.25 544.65,983.1 546.9,982.95 549.1,982.8 569.3,981.35 589,978.75 607.8,975.1 615.75,973.55 623.6,971.8 631.2,969.95 712,949.65 783.35,908.35 845.85,845.85 851.95,839.75 857.85,833.6 863.35,827.55 903.2,783.7 933.1,735.95 953.2,684.05 962.3,660.6 969.35,636.3 974.5,611 979.7,585.2 982.8,558.35 983.75,530.55z"/>
      </g>
    </g>
  </mask>
  <g id="masked" mask="url(#bg1)">
    <g id="ico">
      <g id="shape8">
        <path id="path5" fill="#296FA0" fill-opacity="1" d="M984.05,509.05 C984.05,505.95 984,502.85 983.95,499.7 978.1,608.65 932.2,702.4 846.15,781 803.05,820.35 755.8,850.55 704.4,871.55 645.7,895.5 581.6,907.45 512.05,907.45 381.6,907.45 270.2,865.3 177.95,781 91.95,702.45 46.05,608.7 40.2,499.8 L40.175,499.775 Q40.05,505.887 40.05,512.05 C40.05,642.4 86.15,753.7 178.3,845.85 263.55,931.1 365.15,976.9 483,983.25 483.35,983.3 483.75,983.3 484.15,983.35 484.3,983.35 484.4,983.35 484.55,983.35 493.05,983.8 501.15,984.05 509.05,984.05 510.25,984.05 511.15,984.05 512.05,984.05 522.35,984.05 532.55,983.75 542.15,983.25 544.65,983.1 546.9,982.95 549.1,982.8 569.3,981.35 589,978.75 607.8,975.1 615.75,973.55 623.6,971.8 631.2,969.95 712,949.65 783.35,908.35 845.85,845.85 851.95,839.75 857.85,833.6 863.35,827.55 903.2,783.7 933.1,735.95 953.2,684.05 962.3,660.6 969.35,636.3 974.5,611 979.7,585.2 982.8,558.35 983.75,530.55 983.95,524.5 984.05,518.3 984.05,512.05 984.05,511.4 984.05,510.7 984.05,510.05 984.05,509.7 984.05,509.4 984.05,509.05z"/>
      </g>
      <g id="Symbole.__203_1" overflow="visible">
        <g id="Calque.__202">
          <g id="shape16">
            <path id="path9" fill="#EFEFEF" fill-opacity="1" d="M592.15,-53.75 C575.9,-56.35 559.35,-58.15 542.1,-59.1 532.4,-59.65 522.25,-59.95 512,-59.95 502.65,-59.95 493.4,-59.7 484.1,-59.2 477.4,-58.85 470.75,-58.4 464.05,-57.75 407.2,-52.55 354.25,-37.95 305.1,-13.75 261,7.9 220,37.35 182.2,74.45 180.85,75.7 179.55,77 178.25,78.3 Q105.65,150.9 71.2,239.3 C75.15,272.2 89.35,300.85 113.75,325.25 142.95,354.45 178.2,369.05 219.5,369.05 235.95,369.05 251.4,366.75 265.95,362.15 278.2,413.8 304.15,459.3 343.95,499.1 401.25,556.4 470.45,585.05 551.5,585.05 632.55,585.05 701.75,556.4 759.05,499.1 809.1,449.05 837.3,389.9 843.65,321.65 862.4,330.6 883.05,335.05 905.5,335.05 931.2,335.05 954.45,329.2 975.3,317.5 973.7,309.05 971.8,300.5 969.7,292.05 968.6,287.7 967.35,283.05 966.05,278.45 963.55,269.7 960.7,260.85 957.6,252.1 951.15,233.85 943.45,216.05 934.45,198.45 930.65,191.05 926.5,183.5 922.15,176.05 901.85,141.55 876.35,108.85 845.8,78.3 841.5,74 837.15,69.8 832.5,65.45 797.45,32.65 759.35,6.1 718.3,-14.05 679,-33.35 636.85,-46.6 592.15,-53.75z"/>
          </g>
        </g>
      </g>
    </g>
  </g>
</svg>