<?xml version="1.0" encoding="utf-8"?>
<!-- Generator: flash2svg, http://dissentgraphics.com/tools/flash2svg -->
<svg xmlns:xlink="http://www.w3.org/1999/xlink" id="Apps-Xampp" image-rendering="optimizeSpeed" baseProfile="basic" version="1.1" style="background-color:#ffffff" x="0px" y="0px" width="1024px" height="1024px" viewBox="0 0 1024 1024" enable-background="new 0 0 1024 1024" xmlns="http://www.w3.org/2000/svg">
  <defs transform="matrix(1 0 0 1 0 0) "/>
  <g id="background-circle-shadow">
    <g id="shape">
      <path id="path" fill="#000000" fill-opacity="0.09803921568627451" d="M969.65,351.3 Q961.05,330.45 950.25,310.45 C946.2,302.9 941.9,295.4 937.35,288.05 917.8,256.35 893.95,226.4 865.8,198.25 773.65,106.1 662.35,60 532,60 401.65,60 290.4,106.1 198.25,198.25 106.1,290.4 60,401.65 60,532 60,662.35 106.1,773.65 198.25,865.8 290.4,957.95 401.65,1004 532,1004 662.35,1004 773.65,957.95 865.8,865.8 916.55,815 953.35,758.4 976.15,696.05 994.7,645.2 1004,590.55 1004,532 1004,487.1 998.55,444.45 987.6,404.05 986.35,399.5 985.05,394.95 983.7,390.45 979.6,377.15 974.9,364.1 969.65,351.3z"/>
    </g>
  </g>
  <g id="background-circle">
    <g id="shape2">
      <path id="path1" fill="#FD7900" fill-opacity="1" d="M966.1,378.45 C965.1,375.05 964.1,371.6 962.95,367.95 961.35,362.8 959.55,357.45 957.65,352.1 951.2,333.85 943.5,316.05 934.5,298.45 930.7,291.05 926.55,283.5 922.2,276.05 901.9,241.55 876.4,208.85 845.85,178.3 773.25,105.7 688.7,61.65 592.2,46.25 575.95,43.65 559.4,41.85 542.15,40.9 532.45,40.35 522.3,40.05 512.05,40.05 502.7,40.05 493.45,40.3 484.15,40.8 365.8,46.9 263.85,92.75 178.3,178.3 Q40.05,316.55 40.05,512.05 C40.05,642.4 86.15,753.7 178.3,845.85 235,902.5 298.85,941.75 369.4,963.4 406.15,974.65 444.2,981.25 484.15,983.35 484.3,983.35 484.4,983.35 484.55,983.35 493.05,983.8 501.15,984.05 509.05,984.05 510.25,984.05 511.15,984.05 512.05,984.05 522.35,984.05 532.55,983.75 542.15,983.25 544.65,983.1 546.9,982.95 549.1,982.8 569.3,981.35 589,978.75 607.8,975.1 615.75,973.55 623.6,971.8 631.2,969.95 712,949.65 783.35,908.35 845.85,845.85 894.45,797.25 930.25,743.35 953.2,684.05 971.65,636.4 981.85,585.25 983.75,530.55 983.95,524.5 984.05,518.3 984.05,512.05 984.05,511.4 984.05,510.7 984.05,510.05 984.05,509.7 984.05,509.4 984.05,509.05 983.85,468.4 979.1,429.55 969.75,392.05 968.65,387.7 967.4,383.05 966.1,378.45z"/>
    </g>
  </g>
  <g id="object-shadow">
    <g id="shape4">
      <path id="path2" fill="#000000" fill-opacity="0.2" d="M984.05,510.05 C984.05,509.7 984.05,509.4 984.05,509.05 984,501.85 983.8,494.75 983.5,487.5 L782.05,286.05 250.05,734.05 499.9,983.9 C503.1,984 506.1,984.05 509.05,984.05 Q510.55,984.05 512.05,984.05 C522.35,984.05 532.55,983.75 542.15,983.25 544.65,983.1 546.9,982.95 549.1,982.8 569.3,981.35 589,978.75 607.8,975.1 615.75,973.55 623.6,971.8 631.2,969.95 712,949.65 783.35,908.35 845.85,845.85 894.45,797.25 930.25,743.35 953.2,684.05 971.65,636.4 981.85,585.25 983.75,530.55 983.95,524.5 984.05,518.3 984.05,512.05 984.05,511.4 984.05,510.7 984.05,510.05z"/>
    </g>
  </g>
  <g id="svg2">
    <g id="Symbole.__201_1" overflow="visible">
      <g id="Calque.__202">
        <g id="shape16">
          <path id="path11" fill="#FFFFFF" fill-opacity="1" d="M669.209,240.952 C597.471,240.952 536.038,286.928 513.446,349.55 491.648,290.495 430.215,246.501 358.08,246.501 Q290.306,246.501 242.349,291.684 194.391,337.263 194.391,401.074 C194.391,436.745 205.489,468.056 228.08,495.404 203.507,525.922 191.221,561.989 191.221,603.605 191.221,699.123 265.733,776.41 357.288,776.41 426.648,776.41 486.099,732.02 511.861,668.209 535.641,735.983 594.696,783.148 664.453,783.148 753.629,783.148 826.16,705.861 826.16,610.343 826.16,575.861 816.648,543.757 800.001,515.221 823.386,485.099 835.276,450.221 835.276,410.19 835.276,316.654 760.764,240.952 669.209,240.952z M369.178,347.172 C402.471,347.172 429.422,373.33 429.422,405.434 L429.422,462.904 369.178,463.3 C336.282,463.3 309.33,437.141 309.33,405.434 309.33,373.33 336.282,347.172 369.178,347.172z"/>
          <path id="path12" fill="#FB7922" fill-opacity="1" d="M612.135,453.788 C607.776,456.959 585.977,464.885 537.227,464.885 527.715,464.489 518.995,464.489 511.068,464.489 509.879,464.489 509.087,464.489 508.69,464.489 469.452,463.696 430.611,462.904 390.977,478.361 366.8,487.873 342.623,506.898 328.751,532.66 314.483,558.422 309.33,588.148 309.33,622.629 308.934,650.373 331.129,672.965 358.873,673.361 387.013,673.757 409.605,651.562 410.001,623.818 L410.001,622.629 C410.001,598.452 413.965,586.166 416.739,580.617 419.91,575.465 420.702,575.068 427.837,572.294 442.105,566.349 483.721,565.556 537.227,565.556 569.727,565.556 595.093,563.574 613.324,560.007 616.099,559.611 619.27,558.818 622.044,558.026 L622.044,615.495 C621.648,643.239 643.843,666.227 671.587,666.623 699.331,667.02 722.318,644.824 722.715,617.081 L722.715,556.44 C723.111,542.568 718.355,530.678 708.446,520.77 704.483,516.41 700.123,513.239 695.367,510.861 716.373,481.532 722.715,443.087 722.715,402.66 722.715,374.916 700.52,352.324 672.776,351.928 L671.19,351.928 C643.446,352.324 621.648,374.916 622.044,402.66 622.044,441.898 616.099,450.221 612.135,453.788z"/>
          <path id="path13" fill="#FB7922" fill-opacity="1" d="M369.178,347.172 C336.282,347.172 309.33,373.33 309.33,405.434 309.33,437.141 336.282,463.3 369.178,463.3 L429.422,462.904 429.422,405.434 C429.422,373.33 402.471,347.172 369.178,347.172z"/>
        </g>
      </g>
    </g>
  </g>
</svg>