<?xml version="1.0" encoding="utf-8"?>
<!-- Generator: flash2svg, http://dissentgraphics.com/tools/flash2svg -->
<svg xmlns:xlink="http://www.w3.org/1999/xlink" id="Apps-Smite" image-rendering="optimizeSpeed" baseProfile="basic" version="1.1" style="background-color:#ffffff" x="0px" y="0px" width="1024px" height="1024px" viewBox="0 0 1024 1024" enable-background="new 0 0 1024 1024" xmlns="http://www.w3.org/2000/svg">
  <defs transform="matrix(1 0 0 1 0 0) "/>
  <g id="background-circle-shadow">
    <g id="shape">
      <path id="path" fill="#000000" fill-opacity="0.09803921568627451" d="M969.65,351.3 Q961.05,330.45 950.25,310.45 C946.2,302.9 941.9,295.4 937.35,288.05 917.8,256.35 893.95,226.4 865.8,198.25 773.65,106.1 662.35,60 532,60 401.65,60 290.4,106.1 198.25,198.25 106.1,290.4 60,401.65 60,532 60,662.35 106.1,773.65 198.25,865.8 290.4,957.95 401.65,1004 532,1004 662.35,1004 773.65,957.95 865.8,865.8 916.55,815 953.35,758.4 976.15,696.05 994.7,645.2 1004,590.55 1004,532 1004,487.1 998.55,444.45 987.6,404.05 986.35,399.5 985.05,394.95 983.7,390.45 979.6,377.15 974.9,364.1 969.65,351.3z"/>
    </g>
  </g>
  <g id="background-circle">
    <g id="shape2">
      <path id="path1" fill="#2F2F2F" fill-opacity="1" d="M966.1,378.45 C965.1,375.05 964.1,371.6 962.95,367.95 961.35,362.8 959.55,357.45 957.65,352.1 951.2,333.85 943.5,316.05 934.5,298.45 930.7,291.05 926.55,283.5 922.2,276.05 901.9,241.55 876.4,208.85 845.85,178.3 773.25,105.7 688.7,61.65 592.2,46.25 575.95,43.65 559.4,41.85 542.15,40.9 532.45,40.35 522.3,40.05 512.05,40.05 502.7,40.05 493.45,40.3 484.15,40.8 365.8,46.9 263.85,92.75 178.3,178.3 Q40.05,316.55 40.05,512.05 C40.05,642.4 86.15,753.7 178.3,845.85 235,902.5 298.85,941.75 369.4,963.4 406.15,974.65 444.2,981.25 484.15,983.35 484.3,983.35 484.4,983.35 484.55,983.35 493.05,983.8 501.15,984.05 509.05,984.05 510.25,984.05 511.15,984.05 512.05,984.05 522.35,984.05 532.55,983.75 542.15,983.25 544.65,983.1 546.9,982.95 549.1,982.8 569.3,981.35 589,978.75 607.8,975.1 615.75,973.55 623.6,971.8 631.2,969.95 712,949.65 783.35,908.35 845.85,845.85 894.45,797.25 930.25,743.35 953.2,684.05 971.65,636.4 981.85,585.25 983.75,530.55 983.95,524.5 984.05,518.3 984.05,512.05 984.05,511.4 984.05,510.7 984.05,510.05 984.05,509.7 984.05,509.4 984.05,509.05 983.85,468.4 979.1,429.55 969.75,392.05 968.65,387.7 967.4,383.05 966.1,378.45z"/>
    </g>
  </g>
  <g id="object-shadow">
    <g id="shape4">
      <path id="path2" fill="#000000" fill-opacity="0.2" d="M980.375,574.4 L674.15,267.55 327.25,540.5 391.625,604.875 358.075,754.275 584.45,979.025 L584.45,979.05 C592.35,977.9 600.15,976.6 607.8,975.1 615.75,973.55 623.6,971.8 631.2,969.95 712,949.65 783.35,908.35 845.85,845.85 894.45,797.25 930.25,743.35 953.2,684.05 Q973.392,631.952 980.375,574.4z"/>
    </g>
  </g>
  <g id="criclebg">
    <g id="shape6">
      <path id="path3" fill="#E7B000" fill-opacity="1" d="M855.7,188.4 C852.7,185.25 849.3,181.75 845.85,178.3 773.4,105.85 689.1,61.85 593.05,46.4 592.75,46.35 592.45,46.3 592.2,46.25 575.95,43.65 559.4,41.85 542.15,40.9 532.45,40.35 522.3,40.05 512.05,40.05 502.7,40.05 493.45,40.3 484.15,40.8 365.8,46.9 263.85,92.75 178.3,178.3 121.8,234.8 82.65,298.45 60.85,369 Q40.05,436.2 40.05,512.05 C40.05,642.4 86.15,753.7 178.3,845.85 181.7,849.25 185.15,852.6 188.4,855.7 L224.325,819.775 L224.35,819.8 C221.15,816.8 217.65,813.4 214.15,809.9 131.9,727.65 90.8,628.4 90.8,512.1 90.8,395.75 131.9,296.45 214.15,214.2 296.4,131.95 395.7,90.85 512.05,90.85 628.4,90.85 727.65,131.95 809.9,214.2 813.35,217.65 816.75,221.15 819.75,224.35 L855.7,188.4z M819.75,224.35 L785.65,258.45 C852,329.4 885.1,413.9 885.1,512.1 885.1,615.1 848.65,703 775.8,775.8 703,848.65 615.1,885.1 512.05,885.1 413.85,885.1 329.35,852 258.45,785.7 L258.45,785.675 L224.325,819.775 L224.35,819.8 C304.85,895.55 400.65,933.3 512.05,933.3 628.4,933.3 727.65,892.15 809.9,809.9 892.15,727.65 933.3,628.4 933.3,512.1 933.3,400.65 895.55,304.8 819.75,224.35z"/>
      <path id="path4" fill="#A67E00" fill-opacity="1" d="M775.8,248.3 C779.2,251.7 782.55,255.15 785.65,258.45 L819.75,224.35 C816.75,221.15 813.35,217.65 809.9,214.2 727.65,131.95 628.4,90.85 512.05,90.85 395.7,90.85 296.4,131.95 214.15,214.2 131.9,296.45 90.8,395.75 90.8,512.1 90.8,628.4 131.9,727.65 214.15,809.9 217.65,813.4 221.15,816.8 224.35,819.8 L224.325,819.775 L258.45,785.675 L258.45,785.7 C255.1,782.55 251.65,779.2 248.25,775.8 175.4,703 139,615.1 139,512.1 139,409.05 175.4,321.15 248.25,248.3 321.1,175.45 409,139.05 512.05,139.05 615.1,139.05 703,175.45 775.8,248.3z M969.75,392.05 C968.65,387.7 967.4,383.05 966.1,378.45 963.85,370.6 961.35,362.65 958.55,354.65 958.25,353.9 957.95,353 957.65,352.1 951.2,333.85 943.5,316.05 934.5,298.45 930.7,291.05 926.55,283.5 922.2,276.05 904.2,245.45 882.1,216.3 855.7,188.4 L819.75,224.35 C895.55,304.8 933.3,400.65 933.3,512.1 933.3,628.4 892.15,727.65 809.9,809.9 727.65,892.15 628.4,933.3 512.05,933.3 400.65,933.3 304.85,895.55 224.35,819.8 L224.325,819.775 L188.4,855.7 C233.95,898.85 283.7,931 337.4,952.15 343.85,954.75 350,957 356.2,959.1 396.7,972.95 439.25,981 484.15,983.35 484.3,983.35 484.4,983.35 484.55,983.35 493.05,983.8 501.15,984.05 509.05,984.05 510.25,984.05 511.15,984.05 512.05,984.05 522.35,984.05 532.55,983.75 542.15,983.25 544.65,983.1 546.9,982.95 549.1,982.8 569.3,981.35 589,978.75 607.8,975.1 615.75,973.55 623.6,971.8 631.2,969.95 695.9,953.7 754.55,924 807.35,880.8 820.6,869.9 833.4,858.3 845.85,845.85 894.45,797.25 930.25,743.35 953.2,684.05 957.15,673.8 960.75,663.4 963.95,652.9 975.65,614.25 982.25,573.5 983.75,530.55 983.95,524.5 984.05,518.3 984.05,512.05 984.05,511.4 984.05,510.7 984.05,510.05 984.05,509.7 984.05,509.4 984.05,509.05 983.85,468.4 979.1,429.55 969.75,392.05z"/>
    </g>
  </g>
  <g id="Calque.__201">
    <g id="shape17">
      <path id="path12" fill="#A67E00" fill-opacity="1" d="M500.25,267.55 L373.55,267.55 327.25,540.5 406.7,540 357.6,751.3 536.8,489.9 459.85,489.9 500.25,267.55z"/>
      <path id="path13" fill="#E7B000" fill-opacity="1" d="M357.6,751.3 L356.35,756.6 696.9,460.5 597.1,460.6 674.15,267.55 500.25,267.55 459.85,489.9 536.8,489.9 357.6,751.3z"/>
    </g>
  </g>
</svg>