<?xml version="1.0" encoding="utf-8"?>
<!-- Generator: flash2svg, http://dissentgraphics.com/tools/flash2svg -->
<svg xmlns:xlink="http://www.w3.org/1999/xlink" id="Notes" image-rendering="optimizeSpeed" baseProfile="basic" version="1.1" style="background-color:#ffffff" x="0px" y="0px" width="1024px" height="1024px" viewBox="0 0 1024 1024" enable-background="new 0 0 1024 1024" xmlns="http://www.w3.org/2000/svg">
  <defs transform="matrix(1 0 0 1 0 0) "/>
  <g id="shadow">
    <g id="shape">
      <path id="path" fill="#000000" fill-opacity="0.09803921568627451" d="M969.65,351.3 Q961.05,330.45 950.25,310.45 C946.2,302.9 941.9,295.4 937.35,288.05 917.8,256.35 893.95,226.4 865.8,198.25 773.65,106.1 662.35,60 532,60 401.65,60 290.4,106.1 198.25,198.25 106.1,290.4 60,401.65 60,532 60,662.35 106.1,773.65 198.25,865.8 290.4,957.95 401.65,1004 532,1004 662.35,1004 773.65,957.95 865.8,865.8 916.55,815 953.35,758.4 976.15,696.05 994.7,645.2 1004,590.55 1004,532 1004,487.1 998.55,444.45 987.6,404.05 986.35,399.5 985.05,394.95 983.7,390.45 979.6,377.15 974.9,364.1 969.65,351.3z"/>
    </g>
  </g>
  <g id="bg">
    <g id="shape2">
      <path id="path1" fill="#884400" fill-opacity="1" d="M969.75,392.05 C968.65,387.7 967.4,383.05 966.1,378.45 965.1,375.05 964.1,371.6 962.95,367.95 961.35,362.8 959.55,357.45 957.65,352.1 951.2,333.85 943.5,316.05 934.5,298.45 930.7,291.05 926.55,283.5 922.2,276.05 901.9,241.55 876.4,208.85 845.85,178.3 773.25,105.7 688.7,61.65 592.2,46.25 575.95,43.65 559.4,41.85 542.15,40.9 532.45,40.35 522.3,40.05 512.05,40.05 502.7,40.05 493.45,40.3 484.15,40.8 365.8,46.9 263.85,92.75 178.3,178.3 Q40.05,316.55 40.05,512.05 C40.05,642.4 86.15,753.7 178.3,845.85 235,902.5 298.85,941.75 369.4,963.4 406.15,974.65 444.2,981.25 484.15,983.35 484.3,983.35 484.4,983.35 484.55,983.35 493.05,983.8 501.15,984.05 509.05,984.05 510.25,984.05 511.15,984.05 512.05,984.05 522.35,984.05 532.55,983.75 542.15,983.25 544.65,983.1 546.9,982.95 549.1,982.8 569.3,981.35 589,978.75 607.8,975.1 615.75,973.55 623.6,971.8 631.2,969.95 712,949.65 783.35,908.35 845.85,845.85 894.45,797.25 930.25,743.35 953.2,684.05 971.65,636.4 981.85,585.25 983.75,530.55 983.95,524.5 984.05,518.3 984.05,512.05 984.05,511.4 984.05,510.7 984.05,510.05 984.05,509.7 984.05,509.4 984.05,509.05 983.85,468.4 979.1,429.55 969.75,392.05z"/>
    </g>
  </g>
  <g id="bg1">
    <g id="shape4">
      <path id="path2" fill="#000000" fill-opacity="0.2" d="M984.05,510.05 C984.05,509.7 984.05,509.4 984.05,509.05 983.9,476.2 980.75,444.5 974.6,413.6 L769.05,208.05 245.3,861.85 334.425,950.975 L334.45,951 C346.3,955.8 357.75,959.85 369.4,963.4 406.15,974.65 444.2,981.25 484.15,983.35 484.3,983.35 484.4,983.35 484.55,983.35 493.05,983.8 501.15,984.05 509.05,984.05 Q510.55,984.05 512.05,984.05 C522.35,984.05 532.55,983.75 542.15,983.25 544.65,983.1 546.9,982.95 549.1,982.8 569.3,981.35 589,978.75 607.8,975.1 615.75,973.55 623.6,971.8 631.2,969.95 712,949.65 783.35,908.35 845.85,845.85 894.45,797.25 930.25,743.35 953.2,684.05 971.65,636.4 981.85,585.25 983.75,530.55 983.95,524.5 984.05,518.3 984.05,512.05 984.05,511.4 984.05,510.7 984.05,510.05z"/>
    </g>
  </g>
  <g id="bg2">
    <g id="shape6">
      <path id="path3" fill="#462300" fill-opacity="1" d="M789.05,244.05 Q789.05,204.05 749.05,204.05 L275.05,204.05 C261.8,204.05 251.85,207.45 245.3,214.3 238.45,220.85 235.05,230.8 235.05,244.05 L235.05,832.05 C235.05,845.3 238.45,855.25 245.3,861.85 251.85,868.65 261.8,872.05 275.05,872.05 L749.05,872.05 C762.3,872.05 772.25,868.65 778.85,861.85 785.65,855.25 789.05,845.3 789.05,832.05 L789.05,244.05z"/>
    </g>
  </g>
  <g id="Calque.__207">
    <g id="shape8">
      <path id="path4" fill="#B36114" fill-opacity="1" d="M769.05,266.1 L769.05,208.05 Q769.05,188.05 749.05,188.05 L275.05,188.05 C261.7,188.05 255.05,194.7 255.05,208.05 L255.05,266.1 769.05,266.1z"/>
      <path id="path5" fill="#F2F1DF" fill-opacity="1" d="M255.05,816.05 C255.05,829.4 261.7,836.05 275.05,836.05 L749.05,836.05 C762.4,836.05 769.05,829.4 769.05,816.05 L769.05,266.1 255.05,266.1 255.05,816.05z"/>
    </g>
  </g>
  <g id="Calque.__208">
    <g id="shape12">
      <path id="path6" fill="#000000" fill-opacity="0.2" d="M769.05,288.6 L769.05,264.6 255.05,264.6 255.05,288.6 769.05,288.6z M769.05,383.85 L769.05,359.85 255.05,359.85 255.05,383.85 769.05,383.85z M769.05,479.1 L769.05,455.1 255.05,455.1 255.05,479.1 769.05,479.1z M769.05,574.35 L769.05,550.35 255.05,550.35 255.05,574.35 769.05,574.35z M769.05,669.6 L769.05,645.6 255.05,645.6 255.05,669.6 769.05,669.6z M769.05,764.85 L769.05,740.85 255.05,740.85 255.05,764.85 769.05,764.85z"/>
    </g>
  </g>
  <g id="Calque.__209">
    <g id="shape24">
      <path id="path17" fill="#000000" fill-opacity="0.2" d="M749.05,836.05 Q769.05,836.05 769.05,816.05 L769.05,472.575 604.05,740.85 699.25,836.05 749.05,836.05z"/>
    </g>
  </g>
  <g id="pen">
    <g id="Symbole.__208_1" overflow="visible">
      <g id="Calque.__211">
        <g id="shape37">
          <path id="path27" fill="#C8DBFF" fill-opacity="1" d="M847,353.75 L862.3,320.05 C865.15,313.85 863.8,309.4 858.2,306.85 L772.3,267.65 C766.7,265.15 762.5,267 759.65,273.2 L744.35,306.95 779.25,322.85 813.95,338.65 847,353.75z"/>
          <path id="path28" fill="#717171" fill-opacity="1" d="M771.55,339.65 L779.25,322.85 744.35,306.95 736.65,323.75 771.55,339.65z"/>
          <path id="path29" fill="#666666" fill-opacity="1" d="M779.25,322.85 L771.55,339.65 806.25,355.45 813.95,338.65 779.25,322.85z"/>
          <path id="path30" fill="#515151" fill-opacity="1" d="M813.95,338.65 L806.25,355.45 839.3,370.6 847,353.75 813.95,338.65z"/>
          <path id="path31" fill="#CE6F18" fill-opacity="1" d="M806.25,355.45 L771.55,339.65 614.55,684.2 614.15,685 614.2,685.05 614.3,685.1 C614.35,684.95 614.35,684.9 614.4,684.75 615.1,683.85 615.75,683.15 616.5,682.45 618.35,680.85 620.45,679.6 622.85,678.7 628,676.8 633.05,677 638,679.25 642.95,681.55 646.35,685.15 648.25,690.25 649.35,693.05 649.75,695.9 649.55,698.75 649.5,698.95 649.5,699.25 649.5,699.45 649.45,699.5 649.45,699.5 649.4,699.55 L649.45,699.55 649.55,699.4 806.25,355.45z"/>
          <path id="path32" fill="#B36114" fill-opacity="1" d="M839.3,370.6 L806.25,355.45 649.55,699.4 C650,698.85 650.5,698.35 651,697.9 652.8,696.3 654.9,694.95 657.4,694 662.4,692.2 667.5,692.4 672.45,694.65 677.4,696.9 680.8,700.55 682.75,705.6 683.3,707.25 683.7,708.8 683.95,710.2 684.7,709.3 685.45,708.05 686.1,706.55 L839.3,370.6z"/>
          <path id="path33" fill="#EF811C" fill-opacity="1" d="M736.65,323.75 L583.45,659.7 C582.6,661.7 582.1,663.5 582.05,665.1 582.1,665.35 582.05,665.7 582.05,666 583.8,664.55 585.75,663.35 588.15,662.45 593.15,660.6 598.2,660.75 603.15,663.05 608.1,665.3 611.5,669 613.5,674.05 614.55,676.85 615,679.7 614.7,682.6 614.7,683.05 614.65,683.65 614.55,684.2 L771.55,339.65 736.65,323.75z"/>
          <path id="path34" fill="#F4D17F" fill-opacity="1" d="M683.95,710.2 C683.7,708.8 683.3,707.25 682.75,705.6 680.8,700.55 677.4,696.9 672.45,694.65 667.5,692.4 662.4,692.2 657.4,694 654.9,694.95 652.8,696.3 651,697.9 650.5,698.35 650,698.85 649.55,699.4 L649.45,699.55 649.4,699.55 C649.45,699.5 649.45,699.5 649.5,699.45 649.5,699.25 649.5,698.95 649.55,698.75 649.75,695.9 649.35,693.05 648.25,690.25 646.35,685.15 642.95,681.55 638,679.25 633.05,677 628,676.8 622.85,678.7 620.45,679.6 618.35,680.85 616.5,682.45 615.75,683.15 615.1,683.85 614.4,684.75 614.35,684.9 614.35,684.95 614.3,685.1 L614.2,685.05 614.15,685 614.55,684.2 C614.65,683.65 614.7,683.05 614.7,682.6 615,679.7 614.55,676.85 613.5,674.05 611.5,669 608.1,665.3 603.15,663.05 598.2,660.75 593.15,660.6 588.15,662.45 585.75,663.35 583.8,664.55 582.05,666 582.05,666.2 582.1,666.35 582.15,666.45 582.3,667.8 582.8,669 583.6,670.05 L599.65,721.9 C604.65,722.3 609.85,723.75 615.2,726.25 620.7,728.7 625.3,731.8 629,735.45 L680.25,712.9 Q680.85,712.65 681.45,712.35 C682.35,711.85 683.15,711.15 683.95,710.2z"/>
          <path id="path35" fill="#333333" fill-opacity="1" d="M615.2,726.25 C609.85,723.75 604.65,722.3 599.65,721.9 L606.9,745.2 629,735.45 C625.3,731.8 620.7,728.7 615.2,726.25z"/>
        </g>
      </g>
    </g>
  </g>
</svg>