
<svg xmlns="http://www.w3.org/2000/svg" version="1.1" xmlns:xlink="http://www.w3.org/1999/xlink" preserveAspectRatio="none" x="0px" y="0px" width="1024px" height="1024px" viewBox="0 0 1024 1024">
<defs>
<g id="Layer3_0_FILL">
<path fill="#000000" fill-opacity="0.09803921568627451" stroke="none" d="
M 969.6 351.25
Q 961 330.4 950.2 310.4 944.1 299.05 937.3 288 907.95 240.45 865.75 198.2 727.5 59.95 531.95 59.95 336.45 59.95 198.2 198.2 59.95 336.45 59.95 531.95 59.95 727.5 198.2 865.75 336.45 1003.95 531.95 1003.95 727.5 1003.95 865.75 865.75 941.9 789.55 976.1 696 1003.95 619.75 1003.95 531.95 1003.95 464.6 987.55 404 985.7 397.15 983.65 390.4 977.5 370.45 969.6 351.25 Z"/>
</g>

<g id="Layer2_0_FILL">
<path fill="#5187A3" stroke="none" d="
M 969.7 392
Q 967.95 385.15 966.05 378.4 964.52578125 373.114453125 962.85 367.85 960.3787109375 359.903125 957.6 352.05 947.85 324.5 934.45 298.4 928.65 287.05 922.15 276 891.5 224 845.8 178.25 736.8 69.25 592.15 46.2 567.65 42.3 542.1 40.85 527.2 40 512 40 497.9 40 484.1 40.75 306.55 49.95 178.25 178.25 40 316.5 40 512 40 707.55 178.25 845.8 263.0400390625 930.55703125 369.35 963.35 423.8880859375 980.1630859375 484.1 983.3 484.3 983.3 484.5 983.3 496.65 983.9 509 984 510.5 984 512 984 527.25 984 542.1 983.2 545.6 983 549.05 982.75 579.1 980.6 607.75 975.05 619.55 972.75 631.15 969.9 751.75 939.85 845.8 845.8 918.7 772.85 953.15 684 980.9 612.4 983.7 530.5 984 521.3 984 512 984 511 984 510 984 509.5 984 509 983.65 447.7 969.7 392 Z"/>
</g>

<g id="Layer0_0_FILL">
<path fill="#35596B" stroke="none" d="
M 535.25 827.05
Q 523.7923828125 827.8 512 827.8 446.4103515625 827.8 390.45 804.55
L 390.45 969.25
Q 390.5818359375 969.30859375 390.7 969.35
L 535.25 827.05
M 664.25 665.1
L 681.85 682.7 971.15 397.95 450.45 397.95
Q 425.6 397.95 408 415.5 390.45 433.1 390.45 457.95
L 390.45 690.15
Q 443.6923828125 727.55 512.45 727.55 601.25 727.55 664.25 665.1 Z"/>

<path fill="#999999" stroke="none" d="
M 734.9 735.75
L 681.85 682.7 535.25 827.05
Q 650.8494140625 819.48203125 734.9 735.75 Z"/>

<path fill="#CCCCCC" stroke="none" d="
M 681.85 682.7
L 734.9 735.75
Q 650.8494140625 819.48203125 535.25 827.05
L 390.7 969.35
Q 435.570703125 980.760546875 484.1 983.3 484.3 983.3 484.5 983.3 496.65 983.9 509 984 510.5 984 512 984 527.25 984 542.1 983.2 545.6 983 549.05 982.75 579.1 980.6 607.75 975.05 619.55 972.75 631.15 969.9 751.75 939.85 845.8 845.8 918.7 772.85 953.15 684 980.9 612.4 983.7 530.5 984 521.3 984 512 984 511 984 510 984 509.5 984 509 983.6685546875 450.9654296875 971.15 397.95
L 681.85 682.7 Z"/>

<path fill="#284351" stroke="none" d="
M 681.85 682.7
L 664.25 665.1
Q 601.25 727.55 512.45 727.55 443.6923828125 727.55 390.45 690.15
L 390.45 804.55
Q 446.4103515625 827.8 512 827.8 523.7923828125 827.8 535.25 827.05
L 681.85 682.7 Z"/>

<path fill="#FFFFFF" stroke="none" d="
M 740.35 293.85
Q 737.85 291.25 735.3 288.7 642.8 196.2 512 196.2 381.2 196.2 288.7 288.7 196.2 381.2 196.2 512 196.2 642.8 288.7 735.3 334.8158203125 781.4158203125 390.45 804.55
L 390.45 690.15
Q 374.5041015625 678.9541015625 359.95 664.4 296.8 601.25 296.8 511.95 296.8 422.6 359.95 359.45 423.1 296.3 512.45 296.3 601.75 296.3 664.9 359.45 667.35 361.9 669.75 364.45
L 740.35 293.85 Z"/>

<path fill="#5187A3" stroke="none" d="
M 735.3 288.7
Q 737.85 291.25 740.35 293.85
L 669.75 364.45
Q 667.35 361.9 664.9 359.45 601.75 296.3 512.45 296.3 423.1 296.3 359.95 359.45 296.8 422.6 296.8 511.95 296.8 601.25 359.95 664.4 374.5041015625 678.9541015625 390.45 690.15
L 390.45 457.95
Q 390.45 433.1 408 415.5 425.6 397.95 450.45 397.95
L 971.15 397.95
Q 970.4431640625 394.9669921875 969.7 392 967.95 385.15 966.05 378.4 964.55 373.1 962.9 367.9 960.4 359.9 957.6 352.05 947.85 324.5 934.45 298.4 928.65 287.05 922.15 276 891.5 224 845.8 178.25 736.8 69.25 592.15 46.2 567.65 42.3 542.1 40.85 527.2 40 512 40 497.9 40 484.1 40.75 306.55 49.95 178.25 178.25 40 316.5 40 512 40 707.55 178.25 845.8 263.05 930.55 369.35 963.35 379.7962890625 966.5671875 390.45 969.25
L 390.45 804.55
Q 334.8158203125 781.4158203125 288.7 735.3 196.2 642.8 196.2 512 196.2 381.2 288.7 288.7 381.2 196.2 512 196.2 642.8 196.2 735.3 288.7 Z"/>
</g>

<path id="Layer0_0_1_STROKES" stroke="#000000" stroke-opacity="0.2" stroke-width="1" stroke-linejoin="round" stroke-linecap="round" fill="none" d="
M 390.45 690.15
L 390.45 457.95
Q 390.45 433.1 408 415.5 425.6 397.95 450.45 397.95
L 971.15 397.95
M 390.45 969.275
L 390.45 804.55 390.45 690.15
M 681.875 682.725
L 971.15 397.95 1072.35 397.95
Q 1097.2 397.95 1114.75 415.5 1132.35 433.1 1132.35 457.95
L 1132.35 1079.85
Q 1132.35 1104.7 1114.75 1122.25 1097.2 1139.85 1072.35 1139.85
L 450.45 1139.85
Q 425.6 1139.85 408 1122.25 390.45 1104.7 390.45 1079.85
L 390.45 969.625 383.95 976
M 535.275 827.05
L 390.725 969.35
M 390.45 969.275
L 390.45 969.625 390.725 969.35
M 681.875 682.725
L 535.275 827.05"/>
</defs>

<g transform="matrix( 1, 0, 0, 1, 0,0) ">
<use xlink:href="#Layer3_0_FILL"/>
</g>

<g transform="matrix( 1, 0, 0, 1, 0,0) ">
<use xlink:href="#Layer2_0_FILL"/>
</g>

<g transform="matrix( 1, 0, 0, 1, 0,0) ">
<use xlink:href="#Layer0_0_FILL"/>

<use xlink:href="#Layer0_0_1_STROKES"/>
</g>
</svg>
