
<svg xmlns="http://www.w3.org/2000/svg" version="1.1" xmlns:xlink="http://www.w3.org/1999/xlink" preserveAspectRatio="none" x="0px" y="0px" width="1024px" height="1024px" viewBox="0 0 1024 1024">
<defs>
<g id="Layer5_0_FILL">
<path fill="#000000" fill-opacity="0.09803921568627451" stroke="none" d="
M 969.6 351.25
Q 961 330.4 950.2 310.4 944.1 299.05 937.3 288 907.95 240.45 865.75 198.2 727.5 59.95 531.95 59.95 336.45 59.95 198.2 198.2 59.95 336.45 59.95 531.95 59.95 727.5 198.2 865.75 336.45 1003.95 531.95 1003.95 727.5 1003.95 865.75 865.75 941.9 789.55 976.1 696 1003.95 619.75 1003.95 531.95 1003.95 464.6 987.55 404 985.7 397.15 983.65 390.4 977.5 370.45 969.6 351.25 Z"/>
</g>

<g id="Layer4_0_FILL">
<path fill="#9B59B6" stroke="none" d="
M 969.7 392
Q 967.95 385.15 966.05 378.4 964.52578125 373.114453125 962.85 367.85 960.3787109375 359.903125 957.6 352.05 947.85 324.5 934.45 298.4 928.65 287.05 922.15 276 891.5 224 845.8 178.25 736.8 69.25 592.15 46.2 567.65 42.3 542.1 40.85 527.2 40 512 40 497.9 40 484.1 40.75 306.55 49.95 178.25 178.25 40 316.5 40 512 40 707.55 178.25 845.8 263.0400390625 930.55703125 369.35 963.35 423.8880859375 980.1630859375 484.1 983.3 484.3 983.3 484.5 983.3 496.65 983.9 509 984 510.5 984 512 984 527.25 984 542.1 983.2 545.6 983 549.05 982.75 579.1 980.6 607.75 975.05 619.55 972.75 631.15 969.9 751.75 939.85 845.8 845.8 918.7 772.85 953.15 684 980.9 612.4 983.7 530.5 984 521.3 984 512 984 511 984 510 984 509.5 984 509 983.65 447.7 969.7 392 Z"/>
</g>

<g id="Layer3_0_FILL">
<path fill="#000000" fill-opacity="0.2" stroke="none" d="
M 983.7 530.5
Q 983.70625 530.3060546875 983.7 530.1
L 724.55 270.95
Q 565.712890625 698.46328125 195 691.1
L 487.3 983.4
Q 498.0884765625 983.91171875 509 984 510.5 984 512 984 527.25 984 542.1 983.2 545.6 983 549.05 982.75 579.1 980.6 607.75 975.05 619.55 972.75 631.15 969.9 751.75 939.85 845.8 845.8 918.7 772.85 953.15 684 980.9 612.4 983.7 530.5 Z"/>
</g>

<g id="Layer0_0_FILL">
<path fill="#FFFFFF" stroke="none" d="
M 721.6 266.45
Q 719.8 264.15 717 263.4
L 515.65 213.05
Q 513.55 212.55 511.5 213.05
L 310.15 263.4
Q 307.3 264.15 305.5 266.45 303.7 268.75 303.7 271.65
L 303.7 451.15
Q 250.8 468.9 252.7 519.6 145.4 538.15 169.7 642.6 206.6 778.35 511.4 774.45 512.45 774.45 513.55 774.45 514.65 774.45 515.7 774.45 820.5 778.35 857.4 642.6 881.7 538.15 774.4 519.6 776.3 468.9 723.4 451.15
L 723.4 271.65
Q 723.4 268.75 721.6 266.45
M 683.5 300.6
Q 685.9 303.7 685.9 307.6
L 685.9 499.75
Q 685.9 499.95 685.9 500.2 682.45 620.3 517.4 678.7 513.55 680.05 509.75 678.7 344.65 620.3 341.2 500.2 341.2 499.95 341.2 499.75
L 341.2 307.6
Q 341.2 303.7 343.6 300.6 346 297.5 349.75 296.5
L 510.6 253.55
Q 513.55 252.75 516.55 253.55
L 677.4 296.5
Q 681.1 297.5 683.5 300.6 Z"/>

<path fill="#9B59B6" stroke="none" d="
M 685.9 307.6
Q 685.9 303.7 683.5 300.6 681.1 297.5 677.4 296.5
L 516.55 253.55
Q 513.55 252.75 510.6 253.55
L 349.75 296.5
Q 346 297.5 343.6 300.6 341.2 303.7 341.2 307.6
L 341.2 499.75
Q 341.2 499.95 341.2 500.2 344.65 620.3 509.75 678.7 513.55 680.05 517.4 678.7 682.45 620.3 685.9 500.2 685.9 499.95 685.9 499.75
L 685.9 307.6
M 662.9 316.45
L 662.9 499.3
Q 657.65 603.35 513.55 655.65 369.45 603.35 364.2 499.3
L 364.2 316.45 513.55 276.55 662.9 316.45 Z"/>

<path fill="#F7F0DB" stroke="none" d="
M 662.9 499.3
L 662.9 316.45 513.55 276.55 364.2 316.45 364.2 499.3
Q 369.45 603.35 513.55 655.65 657.65 603.35 662.9 499.3
M 513.6 353.35
Q 542.2 353.35 562.35 373.5 582.55 393.7 582.55 422.25 582.55 450.8 562.4 470.95
L 562.35 471
Q 557 476.35 551.1 480.25
L 551.1 530.1
Q 551.1 545.6 540.15 556.55 540.1 556.6 540.05 556.65 529.1 567.6 513.6 567.6 498.05 567.6 487.05 556.6 476.1 545.65 476.1 530.1
L 476.1 480.25
Q 470.2 476.3 464.9 471
L 464.95 471
Q 444.7 450.85 444.7 422.25 444.7 393.7 464.9 373.5 485.05 353.35 513.6 353.35 Z"/>
</g>
</defs>

<g transform="matrix( 1, 0, 0, 1, 0,0) ">
<use xlink:href="#Layer5_0_FILL"/>
</g>

<g transform="matrix( 1, 0, 0, 1, 0,0) ">
<use xlink:href="#Layer4_0_FILL"/>
</g>

<g transform="matrix( 1, 0, 0, 1, 0,0) ">
<use xlink:href="#Layer3_0_FILL"/>
</g>

<g transform="matrix( 1, 0, 0, 1, 0,0) ">
<use xlink:href="#Layer0_0_FILL"/>
</g>
</svg>
