
<svg xmlns="http://www.w3.org/2000/svg" version="1.1" xmlns:xlink="http://www.w3.org/1999/xlink" preserveAspectRatio="none" x="0px" y="0px" width="1024px" height="1024px" viewBox="0 0 1024 1024">
<defs>
<g id="Layer4_0_FILL">
<path fill="#000000" fill-opacity="0.09803921568627451" stroke="none" d="
M 969.6 351.25
Q 961 330.4 950.2 310.4 944.1 299.05 937.3 288 907.95 240.45 865.75 198.2 727.5 59.95 531.95 59.95 336.45 59.95 198.2 198.2 59.95 336.45 59.95 531.95 59.95 727.5 198.2 865.75 336.45 1003.95 531.95 1003.95 727.5 1003.95 865.75 865.75 941.9 789.55 976.1 696 1003.95 619.75 1003.95 531.95 1003.95 464.6 987.55 404 985.7 397.15 983.65 390.4 977.5 370.45 969.6 351.25 Z"/>
</g>

<g id="Layer3_0_FILL">
<path fill="#BAAEA6" stroke="none" d="
M 969.7 392
Q 967.95 385.15 966.05 378.4 964.52578125 373.114453125 962.85 367.85 960.3787109375 359.903125 957.6 352.05 947.85 324.5 934.45 298.4 928.65 287.05 922.15 276 891.5 224 845.8 178.25 736.8 69.25 592.15 46.2 567.65 42.3 542.1 40.85 527.2 40 512 40 497.9 40 484.1 40.75 306.55 49.95 178.25 178.25 40 316.5 40 512 40 707.55 178.25 845.8 263.0400390625 930.55703125 369.35 963.35 423.8880859375 980.1630859375 484.1 983.3 484.3 983.3 484.5 983.3 496.65 983.9 509 984 510.5 984 512 984 527.25 984 542.1 983.2 545.6 983 549.05 982.75 579.1 980.6 607.75 975.05 619.55 972.75 631.15 969.9 751.75 939.85 845.8 845.8 918.7 772.85 953.15 684 980.9 612.4 983.7 530.5 984 521.3 984 512 984 511 984 510 984 509.5 984 509 983.65 447.7 969.7 392 Z"/>
</g>

<g id="Layer2_0_FILL">
<path fill="#000000" fill-opacity="0.09803921568627451" stroke="none" d="
M 974.3 611.7
L 822.2 459.6 194.3 522 278.65 606.35 272 669.35 315 712.35 267 749 501.9 983.9
Q 505.4421875 983.9712890625 509 984 510.5 984 512 984 527.25 984 542.1 983.2 545.6 983 549.05 982.75 579.1 980.6 607.75 975.05 619.55 972.75 631.15 969.9 751.75 939.85 845.8 845.8 918.7 772.85 953.15 684 966.687890625 649.0697265625 974.3 611.7 Z"/>
</g>

<g id="Layer0_0_FILL">
<path fill="#000000" stroke="none" d="
M 825.75 462.8
Q 824.019921875 461.097265625 822.2 459.65
L 559.55 196.95
Q 559.5505859375 196.949609375 559.5 196.9 558.8626953125 196.231640625 558.15 195.55
L 558.1 195.5
Q 539.0017578125 176.4431640625 512.05 176.45 485.081640625 176.437109375 465.9 195.55
L 465.85 195.55
Q 465.223046875 196.2294921875 464.55 196.9
L 201.95 459.55
Q 200.076171875 461.0650390625 198.35 462.8 198.1208984375 463.0216796875 197.9 463.25 195.852734375 465.284765625 194.15 467.55 194.0525390625 467.676953125 193.95 467.8 193.5509765625 468.33203125 193.15 468.8 185.0755859375 480.13828125 185 494.65 185.01015625 513.2060546875 198.1 526.25 198.15 526.3 198.15 526.3 211.3005859375 539.4146484375 229.75 539.4 229.85 539.4 229.95 539.4
L 311 539.4
Q 323.75 539.7 332.85 548.8 342.3 558.25 342.3 571.55 342.3 584.85 332.85 594.25 324.1109375 603.035546875 312 603.65 311.08515625 603.7 310.15 603.7 309.18515625 603.7 308.25 603.65
L 278.7 603.65
Q 266.1609375 603.9375 257.2 612.85 248 622.1 248 635.15 248 648.2 257.2 657.4 265.913671875 666.113671875 278 666.6
L 406.3 666.6
Q 419.6833984375 667.0333984375 429.2 676.55 439.2 686.55 439.2 700.7 439.2 714.85 429.2 724.8 420.3208984375 733.7236328125 408.1 734.65 406.623046875 734.8 405.1 734.8 402.9298828125 734.8 400.85 734.55 391.816796875 735.533203125 385.15 742.2 377.35 750 377.35 761.05 377.35 772.1 385.15 779.9 391.85 786.6 401 787.55
L 442.8 787.95
Q 443.6546875 787.9 444.5 787.9 445.3453125 787.9 446.15 787.95
L 442.8 787.95
Q 433.750390625 788.499609375 427.15 795.1 419.95 802.3 419.95 812.45 419.95 822.6 427.15 829.8 433.8119140625 836.4619140625 443 836.95
L 533.65 836.95
Q 537.7953125 836.8546875 540.75 833.9 543.8 830.85 543.8 826.55 543.8 824.0328125 542.75 821.95 540.84921875 819.98515625 539.2 817.9 529.05 805.0359375 529.05 787.95 529.05 767.65 543.4 753.3 555.9306640625 740.7693359375 573 739.15 575.476171875 738.95 578.05 738.95 580.730078125 738.95 583.3 739.2
L 664.75 739.2
Q 665.883984375 739.1802734375 667 739.1 680.8201171875 738.1251953125 690.85 728.05 702 716.95 702 701.2 702 685.45 690.85 674.3 681.2 664.65 668 663.4
L 631.3 663.4
Q 621.0109375 663.1609375 613.6 655.75 606 648.15 606 637.4 606 626.65 613.6 619 620.5294921875 612.115625 630 611.45 630.137890625 611.4580078125 630.25 611.45 631.128125 611.4 632 611.4 632.871875 611.4 633.7 611.45
L 774.4 611.45
Q 789.85 610.85 800.9 599.75 812.45 588.2 812.45 571.9 812.45 555.55 800.9 544 798.3013671875 541.4013671875 795.45 539.35 813.258203125 538.991015625 825.95 526.25 839.0373046875 513.2119140625 839.05 494.65 838.9748046875 480.26875 831 469 830.5830078125 468.38046875 830.05 467.7 828.2357421875 465.2423828125 825.95 463 825.8623046875 462.9125 825.75 462.8
M 802.4 489.15
Q 804.1259765625 491.562109375 804.05 494.65 804.0625 498.687890625 801.2 501.5 798.35390625 504.396484375 794.3 504.4 794.2 504.4 794.1 504.4
L 512 504.4 229.95 504.4
Q 229.85 504.4 229.75 504.4 225.7345703125 504.38515625 222.85 501.5
L 222.8 501.45
Q 219.98984375 498.658203125 220 494.65 219.93125 491.866015625 221.3 489.65 221.328515625 489.62578125 221.35 489.6 221.709765625 489.1259765625 222.1 488.6 222.3423828125 488.290625 222.65 488 222.8794921875 487.7794921875 223.1 487.55 223.390625 487.2423828125 223.7 487 224.8568359375 486.155859375 225.85 485.15
L 339.1 371.9 489.3 221.65
Q 489.54453125 221.4119140625 489.75 221.2 490.1875 220.7595703125 490.6 220.35
L 490.6 220.3
Q 499.5359375 211.462890625 512.05 211.45 524.5572265625 211.456640625 533.4 220.3 533.6888671875 220.5455078125 533.9 220.75 534.1205078125 220.9794921875 534.3 221.2 534.5552734375 221.4119140625 534.75 221.65
L 683.05 370 798.2 485.15
Q 799.144921875 486.053515625 800.15 486.85 800.715625 487.26171875 801.2 487.75 801.3765625 487.8884765625 801.45 488 801.757421875 488.290625 802 488.6 802.177734375 488.8533203125 802.35 489.05 802.3873046875 489.12578125 802.4 489.15 Z"/>

<path fill="#424242" stroke="none" d="
M 473 298
L 438 371.95 339.1 371.9 225.85 485.15
Q 224.8568359375 486.155859375 223.7 487 223.390625 487.2423828125 223.1 487.55 222.8794921875 487.7794921875 222.65 488 222.3423828125 488.290625 222.1 488.6 221.709765625 489.1259765625 221.35 489.6 221.328515625 489.62578125 221.3 489.65 219.93125 491.866015625 220 494.65 219.98984375 498.658203125 222.8 501.45
L 222.85 501.5
Q 225.7345703125 504.38515625 229.75 504.4 229.85 504.4 229.95 504.4
L 512 504.4 512 366.9 494 378 473 298 Z"/>

<path fill="#FFFFFF" stroke="none" d="
M 438 371.95
L 473 298 494 378 512 366.9 554 341 591 363 597 311 683.05 370 534.75 221.65
Q 534.5552734375 221.4119140625 534.3 221.2 534.1205078125 220.9794921875 533.9 220.75 533.6888671875 220.5455078125 533.4 220.3 524.5572265625 211.456640625 512.05 211.45 499.5359375 211.462890625 490.6 220.3
L 490.6 220.35
Q 490.1875 220.7595703125 489.75 221.2 489.54453125 221.4119140625 489.3 221.65
L 339.1 371.9 438 371.95 Z"/>

<path fill="#1A1A1A" stroke="none" d="
M 804.05 494.65
Q 804.1259765625 491.562109375 802.4 489.15 802.3873046875 489.12578125 802.35 489.05 802.177734375 488.8533203125 802 488.6 801.757421875 488.290625 801.45 488 801.3765625 487.8884765625 801.2 487.75 800.715625 487.26171875 800.15 486.85 799.144921875 486.053515625 798.2 485.15
L 683.05 370 597 311 591 363 554 341 512 366.9 512 504.4 794.1 504.4
Q 794.2 504.4 794.3 504.4 798.35390625 504.396484375 801.2 501.5 804.0625 498.687890625 804.05 494.65 Z"/>
</g>

<path id="Layer0_0_1_STROKES" stroke="#000000" stroke-width="28" stroke-linejoin="round" stroke-linecap="round" fill="none" d="
M 742 737
L 759 737"/>

<path id="Layer0_0_2_STROKES" stroke="#000000" stroke-width="50" stroke-linejoin="round" stroke-linecap="round" fill="none" d="
M 754 674
L 814 674
M 289.25 735.4
L 336 735.4"/>
</defs>

<g transform="matrix( 1, 0, 0, 1, 0,0) ">
<use xlink:href="#Layer4_0_FILL"/>
</g>

<g transform="matrix( 1, 0, 0, 1, 0,0) ">
<use xlink:href="#Layer3_0_FILL"/>
</g>

<g transform="matrix( 1, 0, 0, 1, 0,0) ">
<use xlink:href="#Layer2_0_FILL"/>
</g>

<g transform="matrix( 1, 0, 0, 1, 0,0) ">
<use xlink:href="#Layer0_0_FILL"/>

<use xlink:href="#Layer0_0_1_STROKES"/>

<use xlink:href="#Layer0_0_2_STROKES"/>
</g>
</svg>
