
<svg xmlns="http://www.w3.org/2000/svg" version="1.1" xmlns:xlink="http://www.w3.org/1999/xlink" preserveAspectRatio="none" x="0px" y="0px" width="1024px" height="1024px" viewBox="0 0 1024 1024">
<defs>
<g id="Layer8_0_FILL">
<path fill="#000000" fill-opacity="0.09803921568627451" stroke="none" d="
M 969.6 351.25
Q 961 330.4 950.2 310.4 944.1 299.05 937.3 288 907.95 240.45 865.75 198.2 727.5 59.95 531.95 59.95 336.45 59.95 198.2 198.2 59.95 336.45 59.95 531.95 59.95 727.5 198.2 865.75 336.45 1003.95 531.95 1003.95 727.5 1003.95 865.75 865.75 941.9 789.55 976.1 696 1003.95 619.75 1003.95 531.95 1003.95 464.6 987.55 404 985.7 397.15 983.65 390.4 977.5 370.45 969.6 351.25 Z"/>
</g>

<g id="Layer7_0_FILL">
<path fill="#666666" stroke="none" d="
M 969.7 392
Q 967.95 385.15 966.05 378.4 964.52578125 373.114453125 962.85 367.85 960.3787109375 359.903125 957.6 352.05 947.85 324.5 934.45 298.4 928.65 287.05 922.15 276 891.5 224 845.8 178.25 736.8 69.25 592.15 46.2 567.65 42.3 542.1 40.85 527.2 40 512 40 497.9 40 484.1 40.75 306.55 49.95 178.25 178.25 40 316.5 40 512 40 707.55 178.25 845.8 263.0400390625 930.55703125 369.35 963.35 423.8880859375 980.1630859375 484.1 983.3 484.3 983.3 484.5 983.3 496.65 983.9 509 984 510.5 984 512 984 527.25 984 542.1 983.2 545.6 983 549.05 982.75 579.1 980.6 607.75 975.05 619.55 972.75 631.15 969.9 751.75 939.85 845.8 845.8 918.7 772.85 953.15 684 980.9 612.4 983.7 530.5 984 521.3 984 512 984 511 984 510 984 509.5 984 509 983.65 447.7 969.7 392 Z"/>
</g>

<g id="Layer6_0_FILL">
<path fill="#000000" fill-opacity="0.2" stroke="none" d="
M 983.4 537.25
L 777 330.85 320 766.45 537 983.45
Q 539.5560546875 983.337109375 542.1 983.2 545.6 983 549.05 982.75 579.1 980.6 607.75 975.05 619.55 972.75 631.15 969.9 751.75 939.85 845.8 845.8 918.7 772.85 953.15 684 979.7490234375 615.36953125 983.4 537.25 Z"/>
</g>

<g id="Layer4_0_FILL">
<path fill="#D0503C" stroke="none" d="
M 514.6 513.35
L 468.2 782
Q 579.35 762.6 671.55 670.35
L 514.6 513.35 Z"/>

<path fill="#E86E6B" stroke="none" d="
M 467.6 782.1
Q 467.85 782.05 468.2 782
L 514.6 513.35 291.3 736.65
Q 356.45 801.3 467.6 782.1 Z"/>

<path fill="#9357B9" stroke="none" d="
M 290.8 736.15
Q 291.05 736.4 291.3 736.65
L 514.6 513.35 244.7 560
Q 225.7 671.1 290.8 736.15 Z"/>

<path fill="#7553FB" stroke="none" d="
M 244.85 559.4
Q 244.8 559.7 244.7 560
L 514.6 513.35 356.6 355.4
Q 264.15 447.9 244.85 559.4 Z"/>

<path fill="#6096DD" stroke="none" d="
M 561.2 243.5
Q 560.95 243.55 560.6 243.6 449.1 262.9 356.6 355.4
L 514.6 513.35 561.2 243.5 Z"/>

<path fill="#E19F00" stroke="none" d="
M 671.55 670.35
Q 763.8 578.1 783.25 466.9
L 514.6 513.35 671.55 670.35 Z"/>

<path fill="#E4C600" stroke="none" d="
M 783.25 466.9
Q 783.3 466.6 783.35 466.3 802.55 355.2 737.9 290.05
L 514.6 513.35 783.25 466.9 Z"/>

<path fill="#72E79F" stroke="none" d="
M 737.9 290.05
Q 737.65 289.8 737.4 289.55 672.3 224.5 561.2 243.5
L 514.6 513.35 737.9 290.05 Z"/>
</g>

<g id="Layer3_0_FILL">
<path fill="#CCCCCC" stroke="none" d="
M 588.6 440.05
Q 588.5 440 588.45 439.9 567.1 418.55 530.65 424.8 530.55 424.8 530.45 424.8 493.85 431.15 463.5 461.5 433.15 491.85 426.85 528.45 426.8 528.55 426.8 528.65 420.55 565.1 441.9 586.45 442 586.5 442.05 586.6 463.45 607.8 499.9 601.5 500 601.5 500.1 601.45 536.6 595.1 566.85 564.85 597.1 534.55 603.5 498.1 603.5 498 603.5 497.9 609.8 461.45 588.6 440.05 Z"/>
</g>

<path id="Layer2_0_1_STROKES" stroke="#999999" stroke-width="30" stroke-linejoin="round" stroke-linecap="round" fill="none" d="
M 773.525 507.7
Q 783.4095703125 535.3041015625 788.4 564.2 789.85 572.3 790.8 580.25 802.95 680.7 742.4 741.2
L 768 766.8
M 257.475 507.35
Q 248.593359375 533.1146484375 243.95 560 242.5 568.1 241.55 576.05 229.4 676.5 289.95 737 355.25 802.35 467 783.05 488.8009765625 779.2734375 509.875 772.7 596.7732421875 745.6267578125 671.3 671.1 671.549609375 670.850390625 671.8 670.6
L 671.55 670.35
M 773.525 507.7
Q 746.7857421875 595.41171875 671.8 670.6
L 742.4 741.2
Q 677.1 806.55 565.35 787.25 536.9955078125 782.3380859375 509.875 772.7
M 257.475 507.35
Q 252.2884765625 489.403515625 249.1 470.95 229.75 359.25 295.05 293.9 296.2671875 292.685546875 297.5 291.5"/>

<path id="Layer2_0_2_STROKES" stroke="#CCCCCC" stroke-width="30" stroke-linejoin="round" stroke-linecap="round" fill="none" d="
M 297.5 291.5
Q 318.966015625 270.8734375 345.35 259.1 398.7 235.2 472.15 247.9 491.1064453125 251.175390625 509.525 256.575 534.34765625 248.1669921875 560.2 243.7 633.65 231 687 254.9 714.9 267.35 737.3 289.7 802.6 355.05 783.25 466.75 779.6560546875 487.5505859375 773.525 507.7 745.155859375 428.505859375 676.5 359.85 599.5734375 282.9234375 509.525 256.575 428.7404296875 283.8744140625 358.75 352.75 357.3037109375 354.1962890625 355.85 355.65 285.528125 425.971875 257.475 507.35"/>

<path id="Symbole_4_0_Layer0_0_1_STROKES" stroke="#CCCCCC" stroke-width="30" stroke-linejoin="round" stroke-linecap="round" fill="none" d="
M 0 0
L 37.5 37.5"/>

<path id="Symbole_4_0_Layer0_0_2_STROKES" stroke="#999999" stroke-width="30" stroke-linejoin="round" stroke-linecap="round" fill="none" d="
M 37.5 37.5
L 259.35 259.35"/>
</defs>

<g transform="matrix( 1, 0, 0, 1, 0,0) ">
<use xlink:href="#Layer8_0_FILL"/>
</g>

<g transform="matrix( 1, 0, 0, 1, 0,0) ">
<use xlink:href="#Layer7_0_FILL"/>
</g>

<g transform="matrix( 1, 0, 0, 1, 0,0) ">
<use xlink:href="#Layer6_0_FILL"/>
</g>

<g transform="matrix( 1, 0, 0, 1, 0,0) ">
<use xlink:href="#Layer4_0_FILL"/>
</g>

<g transform="matrix( 1, 0, 0, 1, 0,0) ">
<use xlink:href="#Layer3_0_FILL"/>
</g>

<g transform="matrix( 1, 0, 0, 1, 0,0) ">
<use xlink:href="#Layer2_0_1_STROKES"/>

<use xlink:href="#Layer2_0_2_STROKES"/>
</g>

<g transform="matrix( 1, 0, 0, 1, 260,254) ">
<g transform="matrix( 1, 0, 0, 1, 0,0) ">
<use xlink:href="#Symbole_4_0_Layer0_0_1_STROKES"/>

<use xlink:href="#Symbole_4_0_Layer0_0_2_STROKES"/>
</g>
</g>
</svg>
