<?xml version="1.0" encoding="utf-8"?>
<!-- Generator: flash2svg, http://dissentgraphics.com/tools/flash2svg -->
<svg xmlns:xlink="http://www.w3.org/1999/xlink" id="Apps-Xamarin-Studio" image-rendering="optimizeSpeed" baseProfile="basic" version="1.1" style="background-color:#ffffff" x="0px" y="0px" width="1024px" height="1024px" viewBox="0 0 1024 1024" enable-background="new 0 0 1024 1024" xmlns="http://www.w3.org/2000/svg">
  <defs transform="matrix(1 0 0 1 0 0) "/>
  <g id="background-circle-shadow">
    <g id="shape">
      <path id="path" fill="#000000" fill-opacity="0.09803921568627451" d="M969.65,351.3 Q961.05,330.45 950.25,310.45 C946.2,302.9 941.9,295.4 937.35,288.05 917.8,256.35 893.95,226.4 865.8,198.25 773.65,106.1 662.35,60 532,60 401.65,60 290.4,106.1 198.25,198.25 106.1,290.4 60,401.65 60,532 60,662.35 106.1,773.65 198.25,865.8 290.4,957.95 401.65,1004 532,1004 662.35,1004 773.65,957.95 865.8,865.8 916.55,815 953.35,758.4 976.15,696.05 994.7,645.2 1004,590.55 1004,532 1004,487.1 998.55,444.45 987.6,404.05 986.35,399.5 985.05,394.95 983.7,390.45 979.6,377.15 974.9,364.1 969.65,351.3z"/>
    </g>
  </g>
  <g id="background-circle">
    <g id="shape2">
      <path id="path1" fill="#2879AE" fill-opacity="1" d="M966.1,378.45 C965.1,375.05 964.1,371.6 962.95,367.95 961.35,362.8 959.55,357.45 957.65,352.1 951.2,333.85 943.5,316.05 934.5,298.45 930.7,291.05 926.55,283.5 922.2,276.05 901.9,241.55 876.4,208.85 845.85,178.3 773.25,105.7 688.7,61.65 592.2,46.25 575.95,43.65 559.4,41.85 542.15,40.9 532.45,40.35 522.3,40.05 512.05,40.05 502.7,40.05 493.45,40.3 484.15,40.8 365.8,46.9 263.85,92.75 178.3,178.3 Q40.05,316.55 40.05,512.05 C40.05,642.4 86.15,753.7 178.3,845.85 235,902.5 298.85,941.75 369.4,963.4 406.15,974.65 444.2,981.25 484.15,983.35 484.3,983.35 484.4,983.35 484.55,983.35 493.05,983.8 501.15,984.05 509.05,984.05 510.25,984.05 511.15,984.05 512.05,984.05 522.35,984.05 532.55,983.75 542.15,983.25 544.65,983.1 546.9,982.95 549.1,982.8 569.3,981.35 589,978.75 607.8,975.1 615.75,973.55 623.6,971.8 631.2,969.95 712,949.65 783.35,908.35 845.85,845.85 894.45,797.25 930.25,743.35 953.2,684.05 971.65,636.4 981.85,585.25 983.75,530.55 983.95,524.5 984.05,518.3 984.05,512.05 984.05,511.4 984.05,510.7 984.05,510.05 984.05,509.7 984.05,509.4 984.05,509.05 983.85,468.4 979.1,429.55 969.75,392.05 968.65,387.7 967.4,383.05 966.1,378.45z"/>
    </g>
  </g>
  <g id="object-shadow">
    <g id="shape4">
      <path id="path2" fill="#000000" fill-opacity="0.2" d="M981.775,561.275 L672.05,251.55 356.05,773.95 563.65,981.55 C578.95,980 593.65,977.85 607.8,975.1 615.75,973.55 623.6,971.8 631.2,969.95 712,949.65 783.35,908.35 845.85,845.85 894.45,797.25 930.25,743.35 953.2,684.05 Q975.68,626.048 981.775,561.275z"/>
    </g>
  </g>
  <g id="Calque.__201">
    <g id="shape6">
      <path id="path3" fill="#3498DB" fill-opacity="1" d="M682.65,263.85 C674.25,249.65 658.15,240.3 641.8,240.05 L383.5,240.05 C367.15,240.3 351.05,249.65 342.65,263.85 L213.65,488.05 C205.45,502.45 205.45,520.95 213.65,535.35 L342.65,759.55 C351.05,773.75 367.15,783.1 383.5,783.1 L641.8,783.1 C658.15,783.1 674.25,773.75 682.65,759.55 L811.7,535.35 C819.85,520.95 819.85,502.45 811.7,488.05 L682.65,263.85z M385.9,371.25 L431.55,371.25 Q434.7,371.25 436.35,374.15 L511.8,508.7 512.55,510.85 513.25,508.7 588.7,374.15 C589.65,372.45 591.85,371.25 593.75,371.25 L638.2,371.25 C642.3,371.25 645.2,376.3 643.25,379.9 L569.75,511.6 643.25,643.5 C645.4,646.85 642.3,652.15 638.2,652.15 L593.75,652.15 C591.6,652.15 589.65,650.95 588.7,649 L513.25,514.45 512.55,512.3 C512.55,513 512.3,513.75 511.8,514.45 L436.35,649 C435.4,650.7 433.5,651.9 431.55,652.15 L387.1,652.15 C383.05,652.15 379.9,646.85 382.05,643.5 L455.6,511.6 382.05,379.9 C380.15,376.55 382.3,371.95 385.9,371.25z"/>
      <path id="path4" fill="#FFFFFF" fill-opacity="1" d="M385.9,371.25 C382.3,371.95 380.15,376.55 382.05,379.9 L455.6,511.6 382.05,643.5 C379.9,646.85 383.05,652.15 387.1,652.15 L431.55,652.15 C433.5,651.9 435.4,650.7 436.35,649 L511.8,514.45 C512.3,513.75 512.55,513 512.55,512.3 L513.25,514.45 588.7,649 C589.65,650.95 591.6,652.15 593.75,652.15 L638.2,652.15 C642.3,652.15 645.4,646.85 643.25,643.5 L569.75,511.6 643.25,379.9 C645.2,376.3 642.3,371.25 638.2,371.25 L593.75,371.25 C591.85,371.25 589.65,372.45 588.7,374.15 L513.25,508.7 512.55,510.85 511.8,508.7 436.35,374.15 Q434.7,371.25 431.55,371.25 L385.9,371.25z"/>
    </g>
  </g>
</svg>