
<svg xmlns="http://www.w3.org/2000/svg" version="1.1" xmlns:xlink="http://www.w3.org/1999/xlink" preserveAspectRatio="none" x="0px" y="0px" width="1024px" height="1024px" viewBox="0 0 1024 1024">
<defs>
<g id="Layer4_0_FILL">
<path fill="#000000" fill-opacity="0.09803921568627451" stroke="none" d="
M 969.6 351.25
Q 961 330.4 950.2 310.4 944.1 299.05 937.3 288 907.95 240.45 865.75 198.2 727.5 59.95 531.95 59.95 336.45 59.95 198.2 198.2 59.95 336.45 59.95 531.95 59.95 727.5 198.2 865.75 336.45 1003.95 531.95 1003.95 727.5 1003.95 865.75 865.75 941.9 789.55 976.1 696 1003.95 619.75 1003.95 531.95 1003.95 464.6 987.55 404 985.7 397.15 983.65 390.4 977.5 370.45 969.6 351.25 Z"/>
</g>

<g id="Layer3_0_FILL">
<path fill="#FFFFFF" stroke="none" d="
M 969.7 392
Q 967.95 385.15 966.05 378.4 964.52578125 373.114453125 962.85 367.85 960.3787109375 359.903125 957.6 352.05 947.85 324.5 934.45 298.4 928.65 287.05 922.15 276 891.5 224 845.8 178.25 736.8 69.25 592.15 46.2 567.65 42.3 542.1 40.85 527.2 40 512 40 497.9 40 484.1 40.75 306.55 49.95 178.25 178.25 40 316.5 40 512 40 707.55 178.25 845.8 263.0400390625 930.55703125 369.35 963.35 423.8880859375 980.1630859375 484.1 983.3 484.3 983.3 484.5 983.3 496.65 983.9 509 984 510.5 984 512 984 527.25 984 542.1 983.2 545.6 983 549.05 982.75 579.1 980.6 607.75 975.05 619.55 972.75 631.15 969.9 751.75 939.85 845.8 845.8 918.7 772.85 953.15 684 980.9 612.4 983.7 530.5 984 521.3 984 512 984 511 984 510 984 509.5 984 509 983.65 447.7 969.7 392 Z"/>
</g>

<g id="Layer2_0_FILL">
<path fill="#000000" fill-opacity="0.09803921568627451" stroke="none" d="
M 983.45 536.95
L 691.75 245.3 412 356 411 626 298.85 738.7 543.25 983.1
Q 546.1828125 982.9578125 549.05 982.75 579.1 980.6 607.75 975.05 619.55 972.75 631.15 969.9 751.75 939.85 845.8 845.8 918.7 772.85 953.15 684 979.7982421875 615.2427734375 983.45 536.95 Z"/>
</g>

<g id="Layer1_0_FILL">
<path fill="#7867F6" stroke="none" d="
M 269.25 685.35
Q 269.25 687.75 269.4 690.05 270.45 711.4 281.5 725.35 299.6 749.35 343.85 749.35 345.25 749.35 346.7 749.35 389.4 748.6 411.55 726.4 429.15 708.8 429.15 685.35
L 429.15 512 397.2 512 397.2 600.05
Q 397.2 617.15 388.1 624.6 376.4 633.65 343.85 633.65 333.6 633.65 324.7 634.75 301.6 637.5 287.35 647.5 269.25 660.85 269.25 685.35 Z"/>

<path fill="#4E9CEB" stroke="none" d="
M 695.7 462
L 663.75 462 663.75 547.3
Q 663.75 561.05 658.55 568 657.05 569.9 655.2 571.3 646.15 578.75 621.1 578.75 569.9 578.75 550.2 595.8 535.8 608.05 535.8 632.05 535.8 652.3 548.6 668.85 550.6 671.4 552.85 673.7 554.3 675.2 555.9 676.6 577.8 696.05 621.1 696.05 666.95 696.05 685.6 664.55 695.2 648.6 695.7 632.6
L 695.7 462 Z"/>

<path fill="#EE5B73" stroke="none" d="
M 685.6 239.15
L 675.45 238.1 411.55 293
Q 397.2 295.65 397.2 312.2
L 397.2 512 429.15 512 429.15 416.15
Q 429.15 407.1 430.75 403.35 432.35 399.6 437.7 398
L 647.2 352.7
Q 657.85 350.05 661.05 353.8 663.75 357 663.75 368.15
L 663.75 462 695.7 462 695.7 258.9
Q 695.7 243.45 685.6 239.15 Z"/>
</g>
</defs>

<g transform="matrix( 1, 0, 0, 1, 0,0) ">
<use xlink:href="#Layer4_0_FILL"/>
</g>

<g transform="matrix( 1, 0, 0, 1, 0,0) ">
<use xlink:href="#Layer3_0_FILL"/>
</g>

<g transform="matrix( 1, 0, 0, 1, 0,0) ">
<use xlink:href="#Layer2_0_FILL"/>
</g>

<g transform="matrix( 1, 0, 0, 1, 0,0) ">
<use xlink:href="#Layer1_0_FILL"/>
</g>
</svg>
