<?xml version="1.0" encoding="utf-8"?>
<!-- Generator: flash2svg, http://dissentgraphics.com/tools/flash2svg -->
<svg xmlns:xlink="http://www.w3.org/1999/xlink" id="Apps-LittleSnitch" image-rendering="optimizeSpeed" baseProfile="basic" version="1.1" style="background-color:#ffffff" x="0px" y="0px" width="1024px" height="1024px" viewBox="0 0 1024 1024" enable-background="new 0 0 1024 1024" xmlns="http://www.w3.org/2000/svg">
  <defs transform="matrix(1 0 0 1 0 0) "/>
  <g id="background-circle-shadow">
    <g id="shape">
      <path id="path" fill="#000000" fill-opacity="0.09803921568627451" d="M969.65,351.3 Q961.05,330.45 950.25,310.45 C946.2,302.9 941.9,295.4 937.35,288.05 917.8,256.35 893.95,226.4 865.8,198.25 773.65,106.1 662.35,60 532,60 401.65,60 290.4,106.1 198.25,198.25 106.1,290.4 60,401.65 60,532 60,662.35 106.1,773.65 198.25,865.8 290.4,957.95 401.65,1004 532,1004 662.35,1004 773.65,957.95 865.8,865.8 916.55,815 953.35,758.4 976.15,696.05 994.7,645.2 1004,590.55 1004,532 1004,487.1 998.55,444.45 987.6,404.05 986.35,399.5 985.05,394.95 983.7,390.45 979.6,377.15 974.9,364.1 969.65,351.3z"/>
    </g>
  </g>
  <g id="background-circle">
    <g id="shape2">
      <path id="path1" fill="#D6D6D6" fill-opacity="1" d="M969.75,392.05 C968.65,387.7 967.4,383.05 966.1,378.45 965.1,375.05 964.1,371.6 962.95,367.95 961.35,362.8 959.55,357.45 957.65,352.1 951.2,333.85 943.5,316.05 934.5,298.45 930.7,291.05 926.55,283.5 922.2,276.05 901.9,241.55 876.4,208.85 845.85,178.3 773.25,105.7 688.7,61.65 592.2,46.25 575.95,43.65 559.4,41.85 542.15,40.9 532.45,40.35 522.3,40.05 512.05,40.05 502.7,40.05 493.45,40.3 484.15,40.8 365.8,46.9 263.85,92.75 178.3,178.3 Q40.05,316.55 40.05,512.05 C40.05,642.4 86.15,753.7 178.3,845.85 235,902.5 298.85,941.75 369.4,963.4 406.15,974.65 444.2,981.25 484.15,983.35 484.3,983.35 484.4,983.35 484.55,983.35 493.05,983.8 501.15,984.05 509.05,984.05 510.25,984.05 511.15,984.05 512.05,984.05 522.35,984.05 532.55,983.75 542.15,983.25 544.65,983.1 546.9,982.95 549.1,982.8 569.3,981.35 589,978.75 607.8,975.1 615.75,973.55 623.6,971.8 631.2,969.95 712,949.65 783.35,908.35 845.85,845.85 894.45,797.25 930.25,743.35 953.2,684.05 971.65,636.4 981.85,585.25 983.75,530.55 983.95,524.5 984.05,518.3 984.05,512.05 984.05,511.4 984.05,510.7 984.05,510.05 984.05,509.7 984.05,509.4 984.05,509.05 983.85,468.4 979.1,429.55 969.75,392.05z"/>
    </g>
  </g>
  <g id="background-circle1">
    <g id="shape4">
      <path id="path2" fill="#000000" fill-opacity="0.09803921568627451" d="M984.05,512.05 C984.05,511.45 984.05,510.85 984.05,510.25 L768.05,294.25 268.625,741.275 511.4,984.05 C511.65,984.05 511.85,984.05 512.05,984.05 Q527.3,984.05 542.15,983.25 C544.65,983.1 546.9,982.95 549.1,982.8 569.3,981.35 589,978.75 607.8,975.1 615.75,973.55 623.6,971.8 631.2,969.95 712,949.65 783.35,908.35 845.85,845.85 894.45,797.25 930.25,743.35 953.2,684.05 971.65,636.4 981.85,585.25 983.75,530.55 983.95,524.5 984.05,518.3 984.05,512.05z"/>
    </g>
  </g>
  <g id="Calque.__201">
    <g id="shape6">
      <path id="path3" fill="#FFFFFF" fill-opacity="1" d="M819.65,380.85 Q819.25,379.85 818.8,378.85 C782.45,295.05 722.05,236.1 637.6,202 L514.85,513.1 819.65,380.85z M380.8,204.35 C380.15,204.65 379.45,204.95 378.8,205.25 294.25,241.9 235.05,303.05 201.15,388.6 L514.85,513.1 380.8,204.35z M514.85,513.1 L206.05,647.2 C242.9,730.85 303.95,789.5 389.2,823.15 390.3,823.6 391.4,824 392.5,824.45 L514.85,513.1z M823.15,634.85 L514.85,513.1 647.15,818 C730.85,781.15 789.5,720.1 823.15,634.85z"/>
      <path id="path4" fill="#F9A705" fill-opacity="1" d="M823.15,634.85 L823.15,634.8 C856.8,549.55 855.65,464.9 819.65,380.85 L514.85,513.1 823.15,634.85z M637.6,202 C636.7,201.65 635.8,201.25 634.85,200.9 549.6,167.25 464.95,168.4 380.8,204.35 L514.85,513.1 637.6,202z M201.15,388.6 C201.05,388.75 200.95,388.95 200.85,389.2 167,475.15 168.4,560.5 205.15,645.2 205.45,645.85 205.75,646.55 206.05,647.2 L514.85,513.1 201.15,388.6z M645.15,818.9 C645.8,818.6 646.5,818.3 647.15,818 L514.85,513.1 392.5,824.45 C477.3,857 561.5,855.15 645.15,818.9z"/>
    </g>
  </g>
  <g id="Calque.__202">
    <g id="shape22">
      <path id="path17" fill="#000000" fill-opacity="0.2" d="M823.15,634.85 L823.15,634.8 C843.2,584.05 850.9,533.55 846.25,483.25 L746.05,383.05 277.35,638.05 485.7,846.4 C539.1,851 592.25,841.85 645.15,818.9 645.8,818.6 646.5,818.3 647.15,818 730.85,781.15 789.5,720.1 823.15,634.85z"/>
    </g>
  </g>
  <g id="object-shadow">
    <g id="shape24">
      <path id="path18" fill="#E7E7E7" fill-opacity="1" d="M703.8,368.9 Q699.6,370.65 696.3,373.5 L513.9,510.9 514.425,512.1 761.4,406.05 C755.25,392.6 746.8,382.1 736.25,374.7 724.7,366.75 713.85,364.8 703.8,368.9z M289.95,649.4 C301.5,657.4 312.35,659.3 322.4,655.2 325.2,654.05 327.75,652.55 329.9,650.6 L513.225,512.6 265.25,619.05 C271.5,632.3 279.75,642.3 289.95,649.4z"/>
      <path id="path19" fill="#FFFFFF" fill-opacity="1" d="M763.05,409.9 C762.55,408.65 762,407.4 761.4,406.05 L514.425,512.1 513.9,510.9 512.7,511.8 280.5,542.15 C280.45,542.15 280.4,542.2 280.4,542.2 279.15,542.55 277.9,542.95 276.7,543.45 266.65,547.55 260.3,556.55 257.65,570.35 255.05,584.15 256.85,598.8 263.15,614.25 263.85,616 264.6,617.7 265.25,619.05 L513.225,512.6 513.55,512.35 745.7,481.9 C745.75,481.9 745.8,481.9 745.8,481.9 747.05,481.55 748.3,481.15 749.5,480.65 759.55,476.55 765.9,467.6 768.55,453.75 771.15,440 769.35,425.35 763.05,409.9z"/>
    </g>
  </g>
  <g id="Calque.__203">
    <g id="shape30">
      <path id="path22" fill="#E7E7E7" fill-opacity="1" d="M527.925,475.3 Q530.05,481.732 530.05,489.05 C530.05,500.9 525.85,511.05 517.45,519.45 509.05,527.85 498.9,532.05 487.05,532.05 483.45,532.05 480,531.65 476.75,530.9 478.55,534.25 480.9,537.35 483.8,540.25 491.6,548.05 501,551.95 512.05,551.95 523.1,551.95 532.5,548.05 540.25,540.25 548.05,532.5 551.95,523.1 551.95,512.05 551.95,501 548.05,491.6 540.25,483.8 536.5,480.05 532.4,477.25 527.95,475.3"/>
      <path id="path23" fill="#FFFFFF" fill-opacity="1" d="M530.05,489.05 Q530.05,481.732 527.925,475.3 L527.95,475.3 C523.1,473.2 517.8,472.15 512.05,472.15 501,472.15 491.6,476.05 483.8,483.8 476.05,491.6 472.15,501 472.15,512.05 472.15,519 473.7,525.25 476.75,530.9 480,531.65 483.45,532.05 487.05,532.05 498.9,532.05 509.05,527.85 517.45,519.45 525.85,511.05 530.05,500.9 530.05,489.05z"/>
    </g>
  </g>
</svg>