<?xml version="1.0" encoding="utf-8"?>
<!-- Generator: flash2svg, http://dissentgraphics.com/tools/flash2svg -->
<svg xmlns:xlink="http://www.w3.org/1999/xlink" id="Calendar-empty" image-rendering="optimizeSpeed" baseProfile="basic" version="1.1" style="background-color:#ffffff" x="0px" y="0px" width="1024px" height="1024px" viewBox="0 0 1024 1024" enable-background="new 0 0 1024 1024" xmlns="http://www.w3.org/2000/svg">
  <defs transform="matrix(1 0 0 1 0 0) "/>
  <g id="shadow">
    <g id="shape">
      <path id="path" fill="#000000" fill-opacity="0.09803921568627451" d="M969.65,351.3 Q961.05,330.45 950.25,310.45 C946.2,302.9 941.9,295.4 937.35,288.05 917.8,256.35 893.95,226.4 865.8,198.25 773.65,106.1 662.35,60 532,60 401.65,60 290.4,106.1 198.25,198.25 106.1,290.4 60,401.65 60,532 60,662.35 106.1,773.65 198.25,865.8 290.4,957.95 401.65,1004 532,1004 662.35,1004 773.65,957.95 865.8,865.8 916.55,815 953.35,758.4 976.15,696.05 994.7,645.2 1004,590.55 1004,532 1004,487.1 998.55,444.45 987.6,404.05 986.35,399.5 985.05,394.95 983.7,390.45 979.6,377.15 974.9,364.1 969.65,351.3z"/>
    </g>
  </g>
  <g id="inner-circle">
    <g id="Symbole.__205_1" overflow="visible">
      <g id="Calque.__202">
        <g id="shape8">
          <path id="path5" fill="#E35E5E" fill-opacity="1" d="M423.999,45.14 C396.047,50.708 367.764,59.088 339.371,70.17 295.54,87.316 256.176,109.093 221.057,135.777 159.088,182.75 111.178,244.829 77.602,321.628 70.049,338.719 63.544,355.865 58.141,373.011 L471.33,296.102 423.999,45.14z"/>
          <path id="path6" fill="#FF6666" fill-opacity="1" d="M781.476,120.561 C757.328,104.297 730.92,89.852 702.472,77.392 684.94,69.729 667.408,63.168 649.545,57.489 574.951,34.058 499.916,29.923 424.55,45.029 424.385,45.085 424.164,45.085 423.999,45.14 L471.33,296.102 471.771,296.019 886.669,218.779 L886.669,218.806 C857.724,180.986 822.495,148.017 781.476,120.561z"/>
          <path id="path7" fill="#FFFFFF" fill-opacity="1" d="M932.429,291.416 C929.617,285.958 926.805,280.555 923.607,274.986 918.701,266.165 913.518,257.564 907.95,248.909 901.334,238.709 894.387,228.785 886.669,218.806 L886.669,218.779 L471.771,296.019 600.201,978.86 600.201,978.915 C628.705,973.127 656.712,964.802 684.774,953.885 806.782,906.141 894.057,822.34 946.708,702.317 983.04,619.177 995.445,535.431 983.702,451.079 Q975.707,395.23 953.93,339.271 C948.031,324.164 941.581,309.609 934.469,295.385 933.807,294.117 933.145,292.849 932.429,291.416z"/>
          <path id="path8" fill="#E9E9E9" fill-opacity="1" d="M600.201,978.915 L600.201,978.86 471.771,296.019 471.33,296.102 58.141,373.011 C54.502,384.314 51.359,395.671 48.658,406.973 48.272,408.406 47.941,409.895 47.61,411.273 45.295,421.473 43.31,431.562 41.766,441.431 40.664,447.881 39.837,454.056 39.23,459.955 38.955,461.609 38.844,462.987 38.734,464.476 30.905,537.747 41.491,611.018 70.215,684.619 84.88,722.164 103.018,756.401 124.189,786.945 172.926,857.073 238.644,910.165 321.838,946.553 414.075,987.02 507.138,997.716 600.201,978.915z"/>
        </g>
      </g>
    </g>
  </g>
</svg>