<?xml version="1.0" encoding="utf-8"?>
<!-- Generator: flash2svg, http://dissentgraphics.com/tools/flash2svg -->
<svg xmlns:xlink="http://www.w3.org/1999/xlink" id="Bittorrent" image-rendering="optimizeSpeed" baseProfile="basic" version="1.1" style="background-color:#ffffff" x="0px" y="0px" width="1024px" height="1024px" viewBox="0 0 1024 1024" enable-background="new 0 0 1024 1024" xmlns="http://www.w3.org/2000/svg">
  <defs transform="matrix(1 0 0 1 0 0) "/>
  <g id="shadow">
    <g id="shape">
      <path id="path" fill="#000000" fill-opacity="0.09803921568627451" d="M969.65,351.3 Q961.05,330.45 950.25,310.45 C946.2,302.9 941.9,295.4 937.35,288.05 917.8,256.35 893.95,226.4 865.8,198.25 773.65,106.1 662.35,60 532,60 401.65,60 290.4,106.1 198.25,198.25 106.1,290.4 60,401.65 60,532 60,662.35 106.1,773.65 198.25,865.8 290.4,957.95 401.65,1004 532,1004 662.35,1004 773.65,957.95 865.8,865.8 916.55,815 953.35,758.4 976.15,696.05 994.7,645.2 1004,590.55 1004,532 1004,487.1 998.55,444.45 987.6,404.05 986.35,399.5 985.05,394.95 983.7,390.45 979.6,377.15 974.9,364.1 969.65,351.3z"/>
    </g>
  </g>
  <g id="criclebg">
    <g id="shape2">
      <path id="path1" fill="#7769AB" fill-opacity="1" d="M958.55,354.65 C958.25,353.9 957.95,353 957.65,352.1 951.2,333.85 943.5,316.05 934.5,298.45 930.7,291.05 926.55,283.5 922.2,276.05 901.9,241.55 876.4,208.85 845.85,178.3 773.4,105.85 689.1,61.85 593.05,46.4 592.75,46.35 592.45,46.3 592.2,46.25 575.95,43.65 559.4,41.85 542.15,40.9 532.45,40.35 522.3,40.05 512.05,40.05 502.7,40.05 493.45,40.3 484.15,40.8 365.8,46.9 263.85,92.75 178.3,178.3 121.8,234.8 82.65,298.45 60.85,369 Q40.05,436.2 40.05,512.05 C40.05,642.4 86.15,753.7 178.3,845.85 226.35,893.85 279.6,929.4 337.4,952.15 343.85,954.75 350,957 356.2,959.1 396.7,972.95 439.25,981 484.15,983.35 484.3,983.35 484.4,983.35 484.55,983.35 493.05,983.8 501.15,984.05 509.05,984.05 510.25,984.05 511.15,984.05 512.05,984.05 522.35,984.05 532.55,983.75 542.15,983.25 544.65,983.1 546.9,982.95 549.1,982.8 569.3,981.35 589,978.75 607.8,975.1 615.75,973.55 623.6,971.8 631.2,969.95 695.9,953.7 754.55,924 807.35,880.8 820.6,869.9 833.4,858.3 845.85,845.85 894.45,797.25 930.25,743.35 953.2,684.05 957.15,673.8 960.75,663.4 963.95,652.9 975.65,614.25 982.25,573.5 983.75,530.55 983.95,524.5 984.05,518.3 984.05,512.05 984.05,511.4 984.05,510.7 984.05,510.05 984.05,509.7 984.05,509.4 984.05,509.05 983.85,468.4 979.1,429.55 969.75,392.05 968.65,387.7 967.4,383.05 966.1,378.45 963.85,370.6 961.35,362.65 958.55,354.65z"/>
    </g>
  </g>
  <g id="criclebg1">
    <g id="shape4">
      <path id="path2" fill="#000000" fill-opacity="0.2" d="M953.2,684.05 C957.15,673.8 960.75,663.4 963.95,652.9 968,639.45 971.45,625.75 974.4,611.6 L974.375,611.575 L518.975,156.175 303.6,306.05 230.025,507.025 329.55,831.05 481.725,983.225 L481.75,983.25 C482.75,983.25 483.45,983.3 484.15,983.35 484.3,983.35 484.4,983.35 484.55,983.35 493.05,983.8 501.15,984.05 509.05,984.05 Q510.55,984.05 512.05,984.05 C522.35,984.05 532.55,983.75 542.15,983.25 544.65,983.1 546.9,982.95 549.1,982.8 569.3,981.35 589,978.75 607.8,975.1 615.75,973.55 623.6,971.8 631.2,969.95 695.9,953.7 754.55,924 807.35,880.8 820.6,869.9 833.4,858.3 845.85,845.85 894.45,797.25 930.25,743.35 953.2,684.05z"/>
    </g>
  </g>
  <mask id="Vshadow">
    <g id="g">
      <g id="shape10">
        <path id="path6" fill="#FFFFFF" fill-opacity="1" d="M958.55,354.65 C958.25,353.9 957.95,353 957.65,352.1 951.2,333.85 943.5,316.05 934.5,298.45 930.7,291.05 926.55,283.5 922.2,276.05 901.9,241.55 876.4,208.85 845.85,178.3 773.4,105.85 689.1,61.85 593.05,46.4 592.75,46.35 592.45,46.3 592.2,46.25 575.95,43.65 559.4,41.85 542.15,40.9 532.45,40.35 522.3,40.05 512.05,40.05 502.7,40.05 493.45,40.3 484.15,40.8 365.8,46.9 263.85,92.75 178.3,178.3 121.8,234.8 82.65,298.45 60.85,369 Q40.05,436.2 40.05,512.05 C40.05,642.4 86.15,753.7 178.3,845.85 226.35,893.85 279.6,929.4 337.4,952.15 343.85,954.75 350,957 356.2,959.1 396.7,972.95 439.25,981 484.15,983.35 484.3,983.35 484.4,983.35 484.55,983.35 493.05,983.8 501.15,984.05 509.05,984.05 510.25,984.05 511.15,984.05 512.05,984.05 522.35,984.05 532.55,983.75 542.15,983.25 544.65,983.1 546.9,982.95 549.1,982.8 569.3,981.35 589,978.75 607.8,975.1 615.75,973.55 623.6,971.8 631.2,969.95 695.9,953.7 754.55,924 807.35,880.8 820.6,869.9 833.4,858.3 845.85,845.85 894.45,797.25 930.25,743.35 953.2,684.05 957.15,673.8 960.75,663.4 963.95,652.9 975.65,614.25 982.25,573.5 983.75,530.55 983.95,524.5 984.05,518.3 984.05,512.05 984.05,511.4 984.05,510.7 984.05,510.05 984.05,509.7 984.05,509.4 984.05,509.05 983.85,468.4 979.1,429.55 969.75,392.05 968.65,387.7 967.4,383.05 966.1,378.45 963.85,370.6 961.35,362.65 958.55,354.65z"/>
      </g>
    </g>
  </mask>
  <g id="masked" mask="url(#Vshadow)">
    <g id="circle">
      <g id="shape6">
        <path id="path3" fill="#9E99C2" fill-opacity="1" d="M1088.25,663.25 Q1077.8,652.8 1063.05,652.8 L578.4,652.8 C544.45,652.5 515.45,640.35 491.45,616.3 467.1,592 454.95,562.6 454.95,528.2 454.95,493.85 467.1,464.5 491.45,440.15 515.8,415.8 545.15,403.65 579.5,403.65 582.2,403.65 584.95,403.75 587.65,403.9 597.4,404.35 605.95,401.35 613.3,394.8 620.65,388.2 624.55,380 625.15,370.25 625.65,360.45 622.6,351.9 616.05,344.6 609.45,337.25 601.3,333.3 591.5,332.75 587.5,332.5 583.55,332.4 579.5,332.4 525.45,332.4 479.3,351.5 441.05,389.75 402.8,428 383.7,474.15 383.7,528.2 383.7,582.3 402.8,628.45 441.05,666.7 478.95,704.55 524.7,723.7 578.15,724.05 L1063.05,724.05 C1072.9,724.05 1081.25,720.55 1088.25,713.6 1095.2,706.6 1098.7,698.25 1098.7,688.4 1098.7,678.55 1095.2,670.2 1088.25,663.25z"/>
        <path id="path4" fill="#C7C5DC" fill-opacity="1" d="M1044.65,762.35 C1037.65,755.4 1029.25,751.9 1019.45,751.9 L576.85,751.9 C575.55,751.9 574.25,751.95 573,752.1 513.9,750.6 463.3,728.75 421.1,686.6 378.5,643.95 356.65,591.95 355.55,530.55 355.55,530.35 355.55,530.1 355.55,529.95 L355.55,528.2 C356.05,465.8 377.95,413 421.1,369.8 456.25,334.65 497.3,313.65 544.2,306.75 553.85,305.3 561.65,300.65 567.55,292.8 573.5,284.9 575.7,276.1 574.35,266.45 572.9,256.7 568.3,248.95 560.4,243 552.5,237.1 543.7,234.85 534,236.25 471.75,245.1 417.35,272.85 370.75,319.45 L370.7,319.45 C313.1,377.1 284.3,446.65 284.3,528.2 284.3,609.75 313.1,679.3 370.75,736.95 428.1,794.3 497.25,823.1 578.25,823.4 579.8,823.4 581.35,823.35 582.9,823.15 L1019.45,823.15 C1029.25,823.15 1037.65,819.65 1044.65,812.75 1051.55,805.75 1055.05,797.35 1055.05,787.55 1055.05,777.7 1051.55,769.3 1044.65,762.35z"/>
        <path id="path5" fill="#FFFFFF" fill-opacity="1" d="M527,173.65 C524.75,164.1 519.4,156.75 511,151.6 502.6,146.4 493.65,144.95 484.15,147.25 415.5,163.45 354.6,198.05 301.4,251.05 224.5,327.6 186.05,420 186.05,528.2 186.05,636.45 224.5,728.8 301.4,805.35 377.9,881.5 470.2,919.75 578.3,920.05 580.6,920.05 582.85,919.85 585,919.45 L1092.45,919.45 C1102.3,919.45 1110.65,916 1117.65,909.05 1124.6,902.05 1128.05,893.7 1128.05,883.85 1128.05,874 1124.6,865.65 1117.65,858.7 1110.65,851.7 1102.3,848.2 1092.45,848.2 L568.8,848.2 C567.25,848.2 565.7,848.3 564.25,848.5 481.75,845.05 410.95,813.85 351.65,754.85 288.75,692.3 257.3,616.7 257.3,528.2 257.3,439.75 288.75,364.15 351.65,301.55 395.1,258.3 444.75,229.95 500.65,216.55 510.15,214.25 517.5,208.9 522.7,200.55 527.85,192.1 529.3,183.15 527,173.65z"/>
      </g>
    </g>
  </g>
</svg>