<?xml version="1.0" encoding="utf-8"?>
<!-- Generator: flash2svg, http://dissentgraphics.com/tools/flash2svg -->
<svg xmlns:xlink="http://www.w3.org/1999/xlink" id="Apps-Blender" image-rendering="optimizeSpeed" baseProfile="basic" version="1.1" style="background-color:#ffffff" x="0px" y="0px" width="1024px" height="1024px" viewBox="0 0 1024 1024" enable-background="new 0 0 1024 1024" xmlns="http://www.w3.org/2000/svg">
  <defs transform="matrix(1 0 0 1 0 0) "/>
  <g id="shadow">
    <g id="shape">
      <path id="path" fill="#000000" fill-opacity="0.09803921568627451" d="M969.65,351.3 Q961.05,330.45 950.25,310.45 C946.2,302.9 941.9,295.4 937.35,288.05 917.8,256.35 893.95,226.4 865.8,198.25 773.65,106.1 662.35,60 532,60 401.65,60 290.4,106.1 198.25,198.25 106.1,290.4 60,401.65 60,532 60,662.35 106.1,773.65 198.25,865.8 290.4,957.95 401.65,1004 532,1004 662.35,1004 773.65,957.95 865.8,865.8 916.55,815 953.35,758.4 976.15,696.05 994.7,645.2 1004,590.55 1004,532 1004,487.1 998.55,444.45 987.6,404.05 986.35,399.5 985.05,394.95 983.7,390.45 979.6,377.15 974.9,364.1 969.65,351.3z"/>
    </g>
  </g>
  <g id="LogoBg">
    <g id="shape2">
      <path id="path1" fill="#E88D45" fill-opacity="1" d="M929.85,289.65 C927.5,285.3 924.9,280.65 922.2,276.05 901.9,241.55 876.4,208.85 845.85,178.3 773.25,105.7 688.7,61.65 592.2,46.25 575.95,43.65 559.4,41.85 542.15,40.9 532.45,40.35 522.3,40.05 512.05,40.05 502.7,40.05 493.45,40.3 484.15,40.8 365.8,46.9 263.85,92.75 178.3,178.3 157.8,198.8 139.55,220.25 123.6,242.7 108.25,264.25 95.05,286.7 84,309.9 66.35,346.8 54,385.9 47.1,426.7 43.75,446.1 41.65,465.6 40.7,485.5 L40.7,485.475 Q40.05,498.633 40.05,512.05 C40.05,517.2 40.15,522.3 40.25,527.25 40.55,537.15 41.1,546.9 41.85,556.15 42.85,567.65 44.15,578.6 45.8,589.35 51.9,628.8 62.7,666.25 78.05,701.35 79.4,704.45 80.8,707.5 82,710.15 105.2,759.7 137.15,804.7 178.3,845.85 235,902.5 298.85,941.75 369.4,963.4 406.15,974.65 444.2,981.25 484.15,983.35 484.3,983.35 484.4,983.35 484.55,983.35 493.05,983.8 501.15,984.05 509.05,984.05 510.25,984.05 511.15,984.05 512.05,984.05 522.35,984.05 532.55,983.75 542.15,983.25 544.65,983.1 546.9,982.95 549.1,982.8 569.3,981.35 589,978.75 607.8,975.1 615.75,973.55 623.6,971.8 631.2,969.95 712,949.65 783.35,908.35 845.85,845.85 883.85,807.85 914.05,766.6 936.35,722.05 942.6,709.7 948.2,697 953.2,684.05 957.45,673.1 961.25,661.95 964.7,650.45 970.8,629.75 975.55,608.3 978.8,586.15 979.65,580.45 980.4,574.7 981.05,568.8 981.3,566.4 981.55,564 981.8,561.5 982.7,551.45 983.4,541.05 983.75,530.55 983.95,524.5 984.05,518.3 984.05,512.05 984.05,511.4 984.05,510.7 984.05,510.05 984.05,509.7 984.05,509.4 984.05,509.05 983.95,485.3 982.3,462.15 979,439.35 978.25,433.9 977.35,428.45 976.35,422.85 974.55,412.65 972.3,402.3 969.75,392.05 968.65,387.7 967.4,383.05 966.1,378.45 965.1,375.05 964.1,371.6 962.95,367.95 961.35,362.8 959.55,357.45 957.65,352.1 952.6,337.85 946.8,323.85 940.2,309.95 938.35,306.15 936.45,302.3 934.5,298.45 933.05,295.6 931.55,292.75 929.85,289.65z"/>
    </g>
  </g>
  <g id="LogoBg1">
    <g id="shape4">
      <path id="path2" fill="#000000" fill-opacity="0.2" d="M953.2,684.05 C957.45,673.1 961.25,661.95 964.7,650.45 970.8,629.75 975.55,608.3 978.8,586.15 L978.8,586.125 Q979.856,578.912 980.7,571.6 L735.1,326 457.1,234 507.1,284 273.1,318 335.1,380 143.1,536 585.925,978.825 L585.95,978.85 C593.55,977.7 600.75,976.45 607.8,975.1 615.75,973.55 623.6,971.8 631.2,969.95 712,949.65 783.35,908.35 845.85,845.85 883.85,807.85 914.05,766.6 936.35,722.05 942.6,709.7 948.2,697 953.2,684.05z"/>
    </g>
  </g>
  <g id="Calque.__201">
    <g id="shape6">
      <path id="path3" fill="#FFFFFF" fill-opacity="1" d="M671,282.2 Q667.95,279.1 663.7,277.2 L483.7,198.2 C477.85,195.65 472.05,195.55 466.2,197.85 460.3,200.15 456.1,204.2 453.55,210 451,215.8 450.9,221.65 453.2,227.5 455.5,233.35 459.55,237.55 465.3,240.1 L533.4,270 290.05,262.55 C281.8,262.3 274.6,265 268.55,270.7 262.45,276.4 259.25,283.4 259,291.7 258.75,299.95 261.45,307.15 267.15,313.25 272.85,319.3 279.85,322.5 288.2,322.8 L412.95,326.6 153.65,477.4 C144.2,482.9 138.1,490.9 135.3,501.45 132.5,511.95 133.85,521.95 139.35,531.4 144.85,540.85 152.85,547 163.35,549.8 173.85,552.6 183.85,551.25 193.4,545.8 L323.75,470.05 C322.35,480.95 321.65,492.15 321.65,503.6 321.65,571.05 345.5,628.65 393.2,676.35 440.9,724.05 498.5,747.9 565.95,747.9 633.4,747.9 691,724.05 738.7,676.35 786.4,628.65 810.25,571.05 810.25,503.6 810.25,436.15 786.4,378.55 738.7,330.85 718,310.15 695.45,293.95 671,282.2z M708.35,502.05 C708.35,540.8 694.65,573.9 667.3,601.3 639.9,628.65 606.8,642.35 568.05,642.35 529.3,642.35 496.2,628.65 468.85,601.3 441.45,573.9 427.75,540.8 427.75,502.05 427.75,463.3 441.45,430.2 468.85,402.85 496.2,375.45 529.3,361.75 568.05,361.75 606.8,361.75 639.9,375.45 667.3,402.85 694.65,430.2 708.35,463.3 708.35,502.05z"/>
      <path id="path4" fill="#CCCCCC" fill-opacity="1" d="M708.35,502.05 C708.35,463.3 694.65,430.2 667.3,402.85 639.9,375.45 606.8,361.75 568.05,361.75 529.3,361.75 496.2,375.45 468.85,402.85 441.45,430.2 427.75,463.3 427.75,502.05 427.75,540.8 441.45,573.9 468.85,601.3 496.2,628.65 529.3,642.35 568.05,642.35 606.8,642.35 639.9,628.65 667.3,601.3 694.65,573.9 708.35,540.8 708.35,502.05z M615.95,454.2 C629.15,467.4 635.75,483.35 635.75,502.05 635.75,520.75 629.15,536.7 615.95,549.95 602.7,563.15 586.75,569.75 568.05,569.75 549.35,569.75 533.4,563.15 520.2,549.95 506.95,536.7 500.35,520.75 500.35,502.05 500.35,483.35 506.95,467.4 520.2,454.2 533.4,440.95 549.35,434.35 568.05,434.35 586.75,434.35 602.7,440.95 615.95,454.2z"/>
      <path id="path7" fill="#11699C" fill-opacity="1" d="M615.95,454.2 C602.7,440.95 586.75,434.35 568.05,434.35 549.35,434.35 533.4,440.95 520.2,454.2 506.95,467.4 500.35,483.35 500.35,502.05 500.35,520.75 506.95,536.7 520.2,549.95 533.4,563.15 549.35,569.75 568.05,569.75 586.75,569.75 602.7,563.15 615.95,549.95 629.15,536.7 635.75,520.75 635.75,502.05 635.75,483.35 629.15,467.4 615.95,454.2z"/>
    </g>
  </g>
</svg>