<?xml version="1.0" encoding="utf-8"?>
<!-- Generator: flash2svg, http://dissentgraphics.com/tools/flash2svg -->
<svg xmlns:xlink="http://www.w3.org/1999/xlink" id="Apps-CleanMyMac" image-rendering="optimizeSpeed" baseProfile="basic" version="1.1" style="background-color:#ffffff" x="0px" y="0px" width="1024px" height="1024px" viewBox="0 0 1024 1024" enable-background="new 0 0 1024 1024" xmlns="http://www.w3.org/2000/svg">
  <defs transform="matrix(1 0 0 1 0 0) "/>
  <g id="background-circle-shadow">
    <g id="shape">
      <path id="path" fill="#000000" fill-opacity="0.09803921568627451" d="M969.65,351.3 Q961.05,330.45 950.25,310.45 C946.2,302.9 941.9,295.4 937.35,288.05 917.8,256.35 893.95,226.4 865.8,198.25 773.65,106.1 662.35,60 532,60 401.65,60 290.4,106.1 198.25,198.25 106.1,290.4 60,401.65 60,532 60,662.35 106.1,773.65 198.25,865.8 290.4,957.95 401.65,1004 532,1004 662.35,1004 773.65,957.95 865.8,865.8 916.55,815 953.35,758.4 976.15,696.05 994.7,645.2 1004,590.55 1004,532 1004,487.1 998.55,444.45 987.6,404.05 986.35,399.5 985.05,394.95 983.7,390.45 979.6,377.15 974.9,364.1 969.65,351.3z"/>
    </g>
  </g>
  <g id="background-circle">
    <g id="shape2">
      <path id="path1" fill="#E8E8E8" fill-opacity="1" d="M509.05,984.05 C510.25,984.05 511.15,984.05 512.05,984.05 522.35,984.05 532.55,983.75 542.15,983.25 544.65,983.1 546.9,982.95 549.1,982.8 569.3,981.35 589,978.75 607.8,975.1 615.75,973.55 623.6,971.8 631.2,969.95 701.25,952.35 764.15,919 820.15,869.95 822.8,867.6 825.35,865.3 827.9,863 L196.25,863 C198.95,865.45 201.65,867.9 204.05,869.95 209.95,875.1 215.9,880.05 221.55,884.6 267.5,921.15 316.55,947.2 369.4,963.4 406.15,974.65 444.2,981.25 484.15,983.35 484.3,983.35 484.4,983.35 484.55,983.35 493.05,983.8 501.15,984.05 509.05,984.05z"/>
      <path id="path2" fill="#333333" fill-opacity="1" d="M773.5,118.05 C763.15,111 752.35,104.3 741.35,98.05 695.4,72.1 645.65,54.8 592.2,46.25 575.95,43.65 559.4,41.85 542.15,40.9 532.45,40.35 522.3,40.05 512.05,40.05 502.7,40.05 493.45,40.3 484.15,40.8 410.75,44.6 343.7,63.65 282.85,98.05 271.95,104.2 261.25,110.85 250.7,118.05 L250.675,118.05 L773.475,118.05 M178.3,845.85 C184.35,851.9 190.45,857.75 196.25,863 L827.9,863 C834.05,857.35 840,851.7 845.85,845.85 861.6,830.1 876,813.75 889,797 L888.975,797 L309.1,797 135.15,797 C148.5,814.2 162.75,830.3 178.3,845.85z"/>
      <path id="path3" fill="#B83169" fill-opacity="1" d="M966.1,378.45 C965.1,375.05 964.1,371.6 962.95,367.95 961.35,362.8 959.55,357.45 957.65,352.1 951.2,333.85 943.5,316.05 934.5,298.45 930.7,291.05 926.55,283.5 922.2,276.05 911.25,257.4 898.75,239.3 884.6,221.55 L884.575,221.525 L309.1,797 888.975,797 L889,797 C916.3,761.7 937.7,724.1 953.2,684.05 971.65,636.4 981.85,585.25 983.75,530.55 983.95,524.5 984.05,518.3 984.05,512.05 984.05,511.4 984.05,510.7 984.05,510.05 984.05,509.7 984.05,509.4 984.05,509.05 983.85,468.4 979.1,429.55 969.75,392.05 968.65,387.7 967.4,383.05 966.1,378.45z"/>
      <path id="path4" fill="#ED4489" fill-opacity="1" d="M845.85,178.3 C823,155.45 798.95,135.4 773.5,118.05 L773.475,118.05 L250.675,118.05 L250.7,118.05 C225.45,135.2 201.3,155.3 178.3,178.3 Q40.05,316.55 40.05,512.05 C40.05,620.35 71.9,715.55 135.15,797 L309.1,797 884.575,221.525 L884.6,221.55 C872.9,206.85 859.9,192.35 845.85,178.3z"/>
    </g>
  </g>
  <mask id="background-circle1">
    <g id="g">
      <g id="shape12">
        <path id="path8" fill="#FFFFFF" fill-opacity="1" d="M773.5,118.05 C763.15,111 752.35,104.3 741.35,98.05 695.4,72.1 645.65,54.8 592.2,46.25 575.95,43.65 559.4,41.85 542.15,40.9 532.45,40.35 522.3,40.05 512.05,40.05 502.7,40.05 493.45,40.3 484.15,40.8 410.75,44.6 343.7,63.65 282.85,98.05 271.95,104.2 261.25,110.85 250.7,118.05 225.45,135.2 201.3,155.3 178.3,178.3 Q40.05,316.55 40.05,512.05 C40.05,620.35 71.9,715.55 135.15,797 148.5,814.2 162.75,830.3 178.3,845.85 184.35,851.9 190.45,857.75 196.25,863 198.95,865.45 201.65,867.9 204.05,869.95 209.95,875.1 215.9,880.05 221.55,884.6 267.5,921.15 316.55,947.2 369.4,963.4 406.15,974.65 444.2,981.25 484.15,983.35 484.3,983.35 484.4,983.35 484.55,983.35 493.05,983.8 501.15,984.05 509.05,984.05 510.25,984.05 511.15,984.05 512.05,984.05 522.35,984.05 532.55,983.75 542.15,983.25 544.65,983.1 546.9,982.95 549.1,982.8 569.3,981.35 589,978.75 607.8,975.1 615.75,973.55 623.6,971.8 631.2,969.95 701.25,952.35 764.15,919 820.15,869.95 822.8,867.6 825.35,865.3 827.9,863 834.05,857.35 840,851.7 845.85,845.85 861.6,830.1 876,813.75 889,797 916.3,761.7 937.7,724.1 953.2,684.05 971.65,636.4 981.85,585.25 983.75,530.55 983.95,524.5 984.05,518.3 984.05,512.05 984.05,511.4 984.05,510.7 984.05,510.05 984.05,509.7 984.05,509.4 984.05,509.05 983.85,468.4 979.1,429.55 969.75,392.05 968.65,387.7 967.4,383.05 966.1,378.45 965.1,375.05 964.1,371.6 962.95,367.95 961.35,362.8 959.55,357.45 957.65,352.1 951.2,333.85 943.5,316.05 934.5,298.45 930.7,291.05 926.55,283.5 922.2,276.05 911.25,257.4 898.75,239.3 884.6,221.55 872.9,206.85 859.9,192.35 845.85,178.3 823,155.45 798.95,135.4 773.5,118.05z"/>
      </g>
    </g>
  </mask>
  <g id="masked" mask="url(#background-circle1)">
    <g id="Calque.__202">
      <g id="shape10">
        <path id="path7" fill="#FFFFFF" fill-opacity="0.14901960784313725" d="M620.05,179.05 Q346.814,272.795 60.05,187.575 L-51.95,684.65 C226,805.15 522.9,803.95 838.7,681.05 L620.05,179.05z"/>
      </g>
    </g>
  </g>
  <g id="object-shadow">
    <g id="shape14">
      <path id="path9" fill="#333333" fill-opacity="1" d="M829.1,684.65 C831.9,690.65 836.3,692.25 842.35,689.45 L855.05,683.55 620.35,179.5 607.65,185.4 C601.6,188.2 600.05,192.7 602.85,198.7 L829.1,684.65z"/>
      <path id="path10" fill="#666666" fill-opacity="1" d="M864.1,679.35 C870.15,676.5 871.75,672.05 868.95,666.05 L642.7,180.1 C639.9,174.1 635.45,172.45 629.4,175.3 L620.35,179.5 855.05,683.55 864.1,679.35z"/>
    </g>
  </g>
  <g id="object">
    <g id="shape18">
      <path id="path11" fill="#999999" fill-opacity="1" d="M699.25,339.25 Q699.276,339.227 699.3,339.2 C701.25,337 702.2,334.45 702.05,331.55 701.9,328.6 700.75,326.15 698.6,324.15 L698.575,324.15 L415.225,67.45 L415.25,67.45 C413,65.5 410.45,64.55 407.55,64.7 404.7,64.85 402.25,65.95 400.3,68.05 L699.25,339.25z"/>
      <path id="path12" fill="#666666" fill-opacity="1" d="M691.95,342.7 C694.85,342.55 697.3,341.4 699.25,339.25 L400.3,68.05 C400.25,68.1 400.2,68.15 400.15,68.2 398.2,70.4 397.25,72.95 397.4,75.9 397.55,78.8 398.7,81.25 400.9,83.25 L400.875,83.25 L684.225,339.95 L684.25,339.95 C686.45,341.9 689,342.85 691.95,342.7z"/>
    </g>
  </g>
  <g id="Calque.__203">
    <g id="shape22">
      <path id="path13" fill="#333333" fill-opacity="1" d="M696.55,336.8 C697.9,335.5 698.55,333.9 698.55,332.05 Q698.55,329.25 696.55,327.25 C695.25,325.95 693.65,325.3 691.8,325.3 689.95,325.3 688.35,325.95 687,327.25 685.7,328.6 685.05,330.2 685.05,332.05 685.05,333.9 685.7,335.5 687,336.8 688.35,338.15 689.95,338.8 691.8,338.8 693.65,338.8 695.25,338.15 696.55,336.8z M413.3,80.55 C414.65,79.25 415.3,77.65 415.3,75.8 415.3,73.95 414.65,72.35 413.3,71 412,69.7 410.4,69.05 408.55,69.05 406.7,69.05 405.1,69.7 403.75,71 402.45,72.35 401.8,73.95 401.8,75.8 401.8,77.65 402.45,79.25 403.75,80.55 405.1,81.9 406.7,82.55 408.55,82.55 410.4,82.55 412,81.9 413.3,80.55z"/>
    </g>
  </g>
  <g id="Calque.__204">
    <g id="shape26">
      <path id="path16" fill="#333333" fill-opacity="1" d="M538.05,916.45 Q538.05,905.7 530.4,898.05 C525.35,893 519.2,890.45 512.05,890.45 504.9,890.45 498.75,893 493.65,898.05 488.6,903.15 486.05,909.3 486.05,916.45 486.05,923.6 488.6,929.75 493.65,934.8 498.75,939.9 504.9,942.45 512.05,942.45 519.2,942.45 525.35,939.9 530.4,934.8 535.5,929.75 538.05,923.6 538.05,916.45z"/>
    </g>
  </g>
</svg>