<?xml version="1.0" encoding="utf-8"?>
<!-- Generator: flash2svg, http://dissentgraphics.com/tools/flash2svg -->
<svg xmlns:xlink="http://www.w3.org/1999/xlink" id="Origin" image-rendering="optimizeSpeed" baseProfile="basic" version="1.1" style="background-color:#ffffff" x="0px" y="0px" width="1024px" height="1024px" viewBox="0 0 1024 1024" enable-background="new 0 0 1024 1024" xmlns="http://www.w3.org/2000/svg">
  <defs transform="matrix(1 0 0 1 0 0) "/>
  <g id="shadow">
    <g id="shape">
      <path id="path" fill="#000000" fill-opacity="0.09803921568627451" d="M969.65,351.3 Q961.05,330.45 950.25,310.45 C946.2,302.9 941.9,295.4 937.35,288.05 917.8,256.35 893.95,226.4 865.8,198.25 773.65,106.1 662.35,60 532,60 401.65,60 290.4,106.1 198.25,198.25 106.1,290.4 60,401.65 60,532 60,662.35 106.1,773.65 198.25,865.8 290.4,957.95 401.65,1004 532,1004 662.35,1004 773.65,957.95 865.8,865.8 916.55,815 953.35,758.4 976.15,696.05 994.7,645.2 1004,590.55 1004,532 1004,487.1 998.55,444.45 987.6,404.05 986.35,399.5 985.05,394.95 983.7,390.45 979.6,377.15 974.9,364.1 969.65,351.3z"/>
    </g>
  </g>
  <g id="bg">
    <g id="shape2">
      <path id="path1" fill="#333333" fill-opacity="1" d="M929.85,289.65 C927.5,285.3 924.9,280.65 922.2,276.05 901.9,241.55 876.4,208.85 845.85,178.3 773.25,105.7 688.7,61.65 592.2,46.25 575.95,43.65 559.4,41.85 542.15,40.9 532.45,40.35 522.3,40.05 512.05,40.05 502.7,40.05 493.45,40.3 484.15,40.8 365.8,46.9 263.85,92.75 178.3,178.3 157.8,198.8 139.55,220.25 123.6,242.7 108.25,264.25 95.05,286.7 84,309.9 L83.975,309.875 Q40.05,401.873 40.05,512.05 C40.05,642.4 86.15,753.7 178.3,845.85 235,902.5 298.85,941.75 369.4,963.4 406.15,974.65 444.2,981.25 484.15,983.35 484.3,983.35 484.4,983.35 484.55,983.35 493.05,983.8 501.15,984.05 509.05,984.05 510.25,984.05 511.15,984.05 512.05,984.05 522.35,984.05 532.55,983.75 542.15,983.25 544.65,983.1 546.9,982.95 549.1,982.8 569.3,981.35 589,978.75 607.8,975.1 615.75,973.55 623.6,971.8 631.2,969.95 712,949.65 783.35,908.35 845.85,845.85 894.45,797.25 930.25,743.35 953.2,684.05 971.65,636.4 981.85,585.25 983.75,530.55 983.95,524.5 984.05,518.3 984.05,512.05 984.05,511.4 984.05,510.7 984.05,510.05 984.05,509.7 984.05,509.4 984.05,509.05 983.85,468.4 979.1,429.55 969.75,392.05 968.65,387.7 967.4,383.05 966.1,378.45 965.1,375.05 964.1,371.6 962.95,367.95 961.35,362.8 959.55,357.45 957.65,352.1 952.6,337.85 946.8,323.85 940.2,309.95 938.35,306.15 936.45,302.3 934.5,298.45 933.05,295.6 931.55,292.75 929.85,289.65z"/>
    </g>
  </g>
  <g id="Calque.__2017">
    <g id="Symbole.__2034_1" overflow="visible">
      <g id="Calque.__2019">
        <g id="shape16">
          <path id="path11" fill="#FFB82C" fill-opacity="1" d="M533.3,133.5 C533.3,127.15 531.05,121.7 526.5,117.15 521.95,112.6 516.5,110.3 510.1,110.3 503.7,110.3 498.2,112.55 493.65,117.1 L315.4,290.85 C304.7,301.55 295.05,312.7 286.45,324.3 L285.7,325.05 C283.4,327.3 281.7,329.85 280.55,332.6 249.5,377.8 234,429.4 234,487.45 234,496.15 234.35,504.7 235.05,512.95 240.5,578.9 267.3,635.9 315.4,684 364.65,733.25 423.1,760.15 490.85,764.75 L490.85,815.7 490.85,840.15 C491,846.25 493.25,851.5 497.65,855.9 502.2,860.45 507.65,862.75 514.05,862.75 520.45,862.75 525.95,860.5 530.5,855.95 L708.55,684 C756.6,635.95 783.4,579.05 789,512.95 789.65,504.9 790,496.25 790,487.45 790,410.7 762.85,345.15 708.55,290.85 659.4,241.7 600.95,214.8 533.3,210.2 L533.3,133.5z"/>
          <path id="path12" fill="#FF6600" fill-opacity="1" d="M512,441.4 C538.8,441.4 561.65,450.85 580.6,469.8 593.35,482.55 601.8,497.05 605.85,512.95 607.95,505 609,496.45 609,487.45 609,460.65 599.55,437.8 580.6,418.85 561.65,399.9 538.8,390.45 512,390.45 485.2,390.45 462.35,399.9 443.4,418.85 424.45,437.8 415,460.65 415,487.45 415,496.5 416.1,505.1 418.15,512.95 422.2,497.05 430.65,482.55 443.4,469.8 462.35,450.85 485.2,441.4 512,441.4z M790,538.4 C790,529.8 789.65,521.35 789,512.95 783.4,579.05 756.6,635.95 708.55,684 L530.5,855.95 C525.95,860.5 520.45,862.75 514.05,862.75 507.65,862.75 502.2,860.45 497.65,855.9 493.25,851.5 491,846.25 490.85,840.15 L490.85,890.5 C490.85,896.85 493.1,902.3 497.65,906.85 502.2,911.4 507.65,913.7 514.05,913.7 520.45,913.7 525.95,911.45 530.5,906.9 L708.55,734.95 Q790,653.55 790,538.4z M235.05,512.95 C234.35,521.35 234,529.8 234,538.4 234,615.15 261.15,680.7 315.4,734.95 364.75,784.3 423.45,811.25 490.85,815.7 L490.85,764.75 C423.1,760.15 364.65,733.25 315.4,684 267.3,635.9 240.5,578.9 235.05,512.95z"/>
        </g>
      </g>
    </g>
  </g>
</svg>