<?xml version="1.0" encoding="utf-8"?>
<!-- Generator: flash2svg, http://dissentgraphics.com/tools/flash2svg -->
<svg xmlns:xlink="http://www.w3.org/1999/xlink" id="Reminders" image-rendering="optimizeSpeed" baseProfile="basic" version="1.1" style="background-color:#ffffff" x="0px" y="0px" width="1024px" height="1024px" viewBox="0 0 1024 1024" enable-background="new 0 0 1024 1024" xmlns="http://www.w3.org/2000/svg">
  <defs transform="matrix(1 0 0 1 0 0) "/>
  <g id="shadow">
    <g id="shape">
      <path id="path" fill="#000000" fill-opacity="0.09803921568627451" d="M969.65,351.3 Q961.05,330.45 950.25,310.45 C946.2,302.9 941.9,295.4 937.35,288.05 917.8,256.35 893.95,226.4 865.8,198.25 773.65,106.1 662.35,60 532,60 401.65,60 290.4,106.1 198.25,198.25 106.1,290.4 60,401.65 60,532 60,662.35 106.1,773.65 198.25,865.8 290.4,957.95 401.65,1004 532,1004 662.35,1004 773.65,957.95 865.8,865.8 916.55,815 953.35,758.4 976.15,696.05 994.7,645.2 1004,590.55 1004,532 1004,487.1 998.55,444.45 987.6,404.05 986.35,399.5 985.05,394.95 983.7,390.45 979.6,377.15 974.9,364.1 969.65,351.3z"/>
    </g>
  </g>
  <g id="bg">
    <g id="shape2">
      <path id="path1" fill="#E7E5E8" fill-opacity="1" d="M962.95,367.95 C961.35,362.8 959.55,357.45 957.65,352.1 951.2,333.85 943.5,316.05 934.5,298.45 930.7,291.05 926.55,283.5 922.2,276.05 901.9,241.55 876.4,208.85 845.85,178.3 773.25,105.7 688.7,61.65 592.2,46.25 575.95,43.65 559.4,41.85 542.15,40.9 532.45,40.35 522.3,40.05 512.05,40.05 502.7,40.05 493.45,40.3 484.15,40.8 365.8,46.9 263.85,92.75 178.3,178.3 Q40.05,316.55 40.05,512.05 C40.05,642.4 86.15,753.7 178.3,845.85 235,902.5 298.85,941.75 369.4,963.4 406.15,974.65 444.2,981.25 484.15,983.35 484.3,983.35 484.4,983.35 484.55,983.35 493.05,983.8 501.15,984.05 509.05,984.05 510.25,984.05 511.15,984.05 512.05,984.05 522.35,984.05 532.55,983.75 542.15,983.25 544.65,983.1 546.9,982.95 549.1,982.8 569.3,981.35 589,978.75 607.8,975.1 615.75,973.55 623.6,971.8 631.2,969.95 712,949.65 783.35,908.35 845.85,845.85 894.45,797.25 930.25,743.35 953.2,684.05 971.65,636.4 981.85,585.25 983.75,530.55 983.95,524.5 984.05,518.3 984.05,512.05 984.05,511.4 984.05,510.7 984.05,510.05 984.05,509.7 984.05,509.4 984.05,509.05 983.85,468.4 979.1,429.55 969.75,392.05 968.65,387.7 967.4,383.05 966.1,378.45 965.1,375.05 964.1,371.6 962.95,367.95z"/>
    </g>
  </g>
  <mask id="bg3">
    <g id="g">
      <g id="shape28">
        <path id="path20" fill="#FFFFFF" fill-opacity="1" d="M962.95,367.95 C961.35,362.8 959.55,357.45 957.65,352.1 951.2,333.85 943.5,316.05 934.5,298.45 930.7,291.05 926.55,283.5 922.2,276.05 901.9,241.55 876.4,208.85 845.85,178.3 773.25,105.7 688.7,61.65 592.2,46.25 575.95,43.65 559.4,41.85 542.15,40.9 532.45,40.35 522.3,40.05 512.05,40.05 502.7,40.05 493.45,40.3 484.15,40.8 365.8,46.9 263.85,92.75 178.3,178.3 Q40.05,316.55 40.05,512.05 C40.05,642.4 86.15,753.7 178.3,845.85 235,902.5 298.85,941.75 369.4,963.4 406.15,974.65 444.2,981.25 484.15,983.35 484.3,983.35 484.4,983.35 484.55,983.35 493.05,983.8 501.15,984.05 509.05,984.05 510.25,984.05 511.15,984.05 512.05,984.05 522.35,984.05 532.55,983.75 542.15,983.25 544.65,983.1 546.9,982.95 549.1,982.8 569.3,981.35 589,978.75 607.8,975.1 615.75,973.55 623.6,971.8 631.2,969.95 712,949.65 783.35,908.35 845.85,845.85 894.45,797.25 930.25,743.35 953.2,684.05 971.65,636.4 981.85,585.25 983.75,530.55 983.95,524.5 984.05,518.3 984.05,512.05 984.05,511.4 984.05,510.7 984.05,510.05 984.05,509.7 984.05,509.4 984.05,509.05 983.85,468.4 979.1,429.55 969.75,392.05 968.65,387.7 967.4,383.05 966.1,378.45 965.1,375.05 964.1,371.6 962.95,367.95z"/>
      </g>
    </g>
  </mask>
  <g id="masked" mask="url(#bg3)">
    <g id="bg1">
      <g id="shape4">
        <path id="path2" fill="#FFFFFF" fill-opacity="1" d="M1277.5,231.45 C1276.25,232.7 1275.6,234.25 1275.6,236 L1275.625,252.8 -95.25,252.8 -95.25,236 C-95.25,234.25 -95.9,232.7 -97.15,231.45 -98.4,230.2 -99.95,229.55 -101.7,229.55 -103.45,229.55 -105,230.2 -106.25,231.45 -107.5,232.7 -108.15,234.25 -108.15,236 L-108.15,259.25 C-108.15,261 -107.5,262.55 -106.25,263.8 -105,265.05 -103.45,265.7 -101.7,265.7 L1282.05,265.7 C1283.8,265.7 1285.35,265.05 1286.6,263.8 1287.85,262.55 1288.5,261 1288.5,259.25 L1288.5,236 C1288.5,234.25 1287.85,232.7 1286.6,231.45 1285.35,230.2 1283.8,229.55 1282.05,229.55 1280.3,229.55 1278.75,230.2 1277.5,231.45z M1282.05,405.85 C1280.3,405.85 1278.75,406.5 1277.5,407.75 1276.25,409 1275.6,410.55 1275.6,412.3 L1275.625,429.1 -95.25,429.1 -95.25,412.3 C-95.25,410.55 -95.9,409 -97.15,407.75 -98.4,406.5 -99.95,405.85 -101.7,405.85 -103.45,405.85 -105,406.5 -106.25,407.75 -107.5,409 -108.15,410.55 -108.15,412.3 L-108.15,435.55 C-108.15,437.3 -107.5,438.85 -106.25,440.1 -105,441.35 -103.45,442 -101.7,442 L1282.05,442 C1283.8,442 1285.35,441.35 1286.6,440.1 1287.85,438.85 1288.5,437.3 1288.5,435.55 L1288.5,412.3 C1288.5,410.55 1287.85,409 1286.6,407.75 1285.35,406.5 1283.8,405.85 1282.05,405.85z M1277.5,584.05 C1276.25,585.3 1275.6,586.85 1275.6,588.6 L1275.625,605.4 -95.25,605.4 -95.25,588.6 C-95.25,586.85 -95.9,585.3 -97.15,584.05 -98.4,582.8 -99.95,582.15 -101.7,582.15 -103.45,582.15 -105,582.8 -106.25,584.05 -107.5,585.3 -108.15,586.85 -108.15,588.6 L-108.15,611.85 C-108.15,613.6 -107.5,615.15 -106.25,616.4 -105,617.65 -103.45,618.3 -101.7,618.3 L1282.05,618.3 C1283.8,618.3 1285.35,617.65 1286.6,616.4 1287.85,615.15 1288.5,613.6 1288.5,611.85 L1288.5,588.6 C1288.5,586.85 1287.85,585.3 1286.6,584.05 1285.35,582.8 1283.8,582.15 1282.05,582.15 1280.3,582.15 1278.75,582.8 1277.5,584.05z M1288.5,764.9 C1288.5,763.15 1287.85,761.6 1286.6,760.35 1285.35,759.1 1283.8,758.45 1282.05,758.45 1280.3,758.45 1278.75,759.1 1277.5,760.35 1276.25,761.6 1275.6,763.15 1275.6,764.9 L1275.625,781.7 -95.25,781.7 -95.25,764.9 C-95.25,763.15 -95.9,761.6 -97.15,760.35 -98.4,759.1 -99.95,758.45 -101.7,758.45 -103.45,758.45 -105,759.1 -106.25,760.35 -107.5,761.6 -108.15,763.15 -108.15,764.9 L-108.15,788.15 C-108.15,789.9 -107.5,791.45 -106.25,792.7 -105,793.95 -103.45,794.6 -101.7,794.6 L1282.05,794.6 C1283.8,794.6 1285.35,793.95 1286.6,792.7 1287.85,791.45 1288.5,789.9 1288.5,788.15 L1288.5,764.9z"/>
        <path id="path3" fill="#BEB4B5" fill-opacity="1" d="M1275.625,252.8 L1275.6,236 -95.25,236 -95.25,252.8 1275.625,252.8z M1275.625,429.1 L1275.6,412.3 -95.25,412.3 -95.25,429.1 1275.625,429.1z M1275.625,605.4 L1275.6,588.6 -95.25,588.6 -95.25,605.4 1275.625,605.4z M1275.625,781.7 L1275.6,764.9 -95.25,764.9 -95.25,781.7 1275.625,781.7z"/>
      </g>
    </g>
    <g id="bg2">
      <g id="shape23">
        <path id="path16" fill="#EF3E30" fill-opacity="0.6" d="M393.7,-68.85 C393.7,-70.2 393.2,-71.4 392.25,-72.35 391.25,-73.35 390.05,-73.85 388.7,-73.85 L365.45,-73.85 C364.1,-73.85 362.9,-73.35 361.95,-72.35 360.95,-71.4 360.45,-70.2 360.45,-68.85 L360.45,1314.9 C360.45,1316.25 360.95,1317.45 361.95,1318.45 362.9,1319.4 364.1,1319.9 365.45,1319.9 L388.7,1319.9 C390.05,1319.9 391.25,1319.4 392.25,1318.45 393.2,1317.45 393.7,1316.25 393.7,1314.9 L393.7,-68.85z M383.7,-63.875 L383.7,1309.9 370.45,1309.925 370.45,-63.85 383.7,-63.875z"/>
      </g>
    </g>
    <g id="Calque.__207">
      <g id="Symbole.__2025_1" overflow="visible">
        <g id="Calque.__211">
          <g id="shape42">
            <path id="path31" fill="#B1B1B1" fill-opacity="1" d="M859,316 Q859,306 849,306 L451,306 C444.35,306 441,309.35 441,316 L441,363 C441,369.65 444.35,373 451,373 L849,373 C855.65,373 859,369.65 859,363 L859,316z M720,491.5 C720,484.85 716.65,481.5 710,481.5 L452,481.5 C445.35,481.5 442,484.85 442,491.5 L442,538.5 C442,545.15 445.35,548.5 452,548.5 L710,548.5 C716.65,548.5 720,545.15 720,538.5 L720,491.5z M798,667 C798,660.35 794.65,657 788,657 L450,657 C443.35,657 440,660.35 440,667 L440,714 C440,720.65 443.35,724 450,724 L788,724 C794.65,724 798,720.65 798,714 L798,667z"/>
          </g>
        </g>
      </g>
    </g>
    <g id="Calque.__208">
      <g id="Symbole.__2027_1" overflow="visible">
        <g id="Calque.__212">
          <g id="shape43">
            <path id="path32" fill="#4B8384" fill-opacity="1" d="M311,305.15 L287.8,281.95 Q285.9,280.05 284,281.95 L229.55,336.4 201.8,308.6 C200.55,307.35 199.25,307.35 198,308.6 L174.8,331.8 C173.55,333.05 173.55,334.35 174.8,335.6 L227.65,388.5 C228.8,389.6 229.9,389.75 231,388.9 L311.05,308.95 C312.3,307.7 312.25,306.4 311,305.15z M310.45,484.75 C311.7,483.5 311.65,482.2 310.4,480.95 L287.2,457.75 C285.95,456.5 284.65,456.5 283.4,457.75 L228.95,512.2 201.2,484.4 C199.95,483.15 198.65,483.15 197.4,484.4 L174.2,507.6 C172.95,508.85 172.95,510.15 174.2,511.4 L227.05,564.3 C228.2,565.4 229.3,565.55 230.4,564.7 L310.45,484.75z M203.45,660.2 L180.25,683.4 C179,684.65 179,685.95 180.25,687.2 L233.1,740.1 C234.25,741.2 235.35,741.35 236.45,740.5 L316.5,660.55 C317.75,659.3 317.7,658 316.45,656.75 L293.25,633.55 C292,632.3 290.7,632.3 289.45,633.55 L235,688 207.25,660.2 C206,658.95 204.7,658.95 203.45,660.2z"/>
          </g>
        </g>
      </g>
    </g>
  </g>
</svg>