<?xml version="1.0" encoding="utf-8"?>
<!-- Generator: flash2svg, http://dissentgraphics.com/tools/flash2svg -->
<svg id="Apps-GNS3" image-rendering="optimizeSpeed" baseProfile="basic" version="1.1" style="background-color:#FFFFFF" x="0px" y="0px" width="1024px" height="1024px" viewBox="0 0 1024 1024" enable-background="new 0 0 1024 1024" xmlns="http://www.w3.org/2000/svg" xmlns:xlink="http://www.w3.org/1999/xlink">
  <defs transform="matrix(1 0 0 1 0 0) "/>
  <g id="background-circle-shadow">
    <g id="shape">
      <path id="path" fill="#000000" fill-opacity="0.09803921568627451" d="M969.6,351.25 Q961,330.4 950.2,310.4 C946.15,302.85 941.85,295.35 937.3,288 917.75,256.3 893.9,226.35 865.75,198.2 773.6,106.05 662.3,59.95 531.95,59.95 401.6,59.95 290.35,106.05 198.2,198.2 106.05,290.35 59.95,401.6 59.95,531.95 59.95,662.3 106.05,773.6 198.2,865.75 290.35,957.9 401.6,1003.95 531.95,1003.95 662.3,1003.95 773.6,957.9 865.75,865.75 916.5,814.95 953.3,758.35 976.1,696 994.65,645.15 1003.95,590.5 1003.95,531.95 1003.95,487.05 998.5,444.4 987.55,404 986.3,399.45 985,394.9 983.65,390.4 979.55,377.1 974.85,364.05 969.6,351.25z"/>
    </g>
  </g>
  <g id="background-circle">
    <g id="shape2">
      <path id="path1" fill="#333333" fill-opacity="1" d="M845.8,178.25 C845.45,177.9 845.15,177.6 844.8,177.25 772.35,105.2 688.1,61.5 592.15,46.2 575.9,43.6 559.35,41.8 542.1,40.85 532.4,40.3 522.25,40 512,40 502.65,40 493.4,40.25 484.1,40.75 365.75,46.85 263.8,92.7 178.25,178.25 Q40,316.5 40,512 C40,641.9 85.75,752.85 177.25,844.8 177.6,845.15 177.9,845.45 178.25,845.8 234.95,902.45 298.8,941.7 369.35,963.35 406.1,974.6 444.15,981.2 484.1,983.3 484.25,983.3 484.35,983.3 484.5,983.3 493,983.75 501.1,984 509,984 510.2,984 511.1,984 512,984 522.3,984 532.5,983.7 542.1,983.2 544.6,983.05 546.85,982.9 549.05,982.75 569.25,981.3 588.95,978.7 607.75,975.05 615.7,973.5 623.55,971.75 631.15,969.9 711.95,949.6 783.3,908.3 845.8,845.8 894.4,797.2 930.2,743.3 953.15,684 971.6,636.35 981.8,585.2 983.7,530.5 983.9,524.45 984,518.25 984,512 984,511.35 984,510.65 984,510 984,509.65 984,509.35 984,509 983.8,468.35 979.05,429.5 969.7,392 968.6,387.65 967.35,383 966.05,378.4 965.05,375 964.05,371.55 962.9,367.9 961.3,362.75 959.5,357.4 957.6,352.05 951.15,333.8 943.45,316 934.45,298.4 930.65,291 926.5,283.45 922.15,276 901.85,241.5 876.35,208.8 845.8,178.25z"/>
    </g>
  </g>
  <g id="object-shadow">
    <g id="shape4">
      <path id="path2" fill="#000000" fill-opacity="0.2" d="M757.975,393.625 L737.15,372.8 335.4,540 268.325,472.925 161,452 97,515 101,593 132.775,652.175 462.3,981.7 C469.75,982.4 476.9,982.9 484.1,983.3 484.25,983.3 484.35,983.3 484.5,983.3 493,983.75 501.1,984 509,984 Q510.5,984 512,984 C522.3,984 532.5,983.7 542.1,983.2 544.6,983.05 546.85,982.9 549.05,982.75 569.25,981.3 588.95,978.7 607.75,975.05 615.7,973.5 623.55,971.75 631.15,969.9 711.95,949.6 783.3,908.3 845.8,845.8 894.4,797.2 930.2,743.3 953.15,684 971.6,636.35 981.8,585.2 983.7,530.5 983.9,524.45 984,518.25 984,512 984,511.35 984,510.65 984,510 984,509.65 984,509.35 984,509 983.8,468.35 979.05,429.5 969.7,392 968.6,387.65 967.35,383 966.05,378.4 965.05,375 964.05,371.55 962.9,367.9 961.3,362.75 959.5,357.4 957.6,352.05 955.45,345.9 953.15,339.8 950.65,333.7 L950.625,333.675 L839.55,222.6 763.25,367.95 778,382.7 757.975,393.625z"/>
    </g>
  </g>
  <g id="Layer.__201">
    <g id="shape6">
      <path id="path3" fill="#00A3CC" fill-opacity="1" d="M690.15,677.15 L690.15,648.45 C527.65,648.35 364.95,648.25 202.25,648.15 181.6,646.55 161.2,638.85 144.7,625.7 105,593.9 94.65,533.25 127.5,493.55 154.1,461.1 204.3,453.3 236.5,481 261.5,502.4 267.45,542.05 245,566.5 228.8,584.2 199.65,588.4 182.75,571.3 177.55,566 173.9,557.6 173.55,550.25 173.35,542.8 175.4,536.85 181.1,532.2 182.75,530.9 186.3,530.3 189.3,529.8 186.45,532.95 185.05,537.2 185.65,541.4 186.25,545.6 188.65,549.4 192.3,551.55 197.05,554.75 204.8,556.3 210.95,553.6 217.2,550.95 219.8,546.1 221.5,542.4 224.8,534.85 226.25,528.7 222.2,519.7 216.6,507.25 203.95,501.25 193,500.6 182,500.1 171.45,503.4 163.05,510.15 150,520.75 144.5,536.75 145.15,551.55 145.8,566.45 151.95,580.6 162.35,591.35 191.95,621.2 239.7,614.7 266,585.95 300.2,548.45 291.65,490.5 255.2,459.25 210.05,420.45 142,431.4 105.7,475.5 Q89.8,494.85 83.35,519.05 77.25,542.05 80.55,566.2 C84.9,597.55 101.2,627.5 127.15,648.15 144.05,661.6 163.35,670.45 185,674.6 190.45,675.7 195.95,676.45 201.45,676.85 L201.45,676.9 C377.25,677 536.65,677.1 690.15,677.15z"/>
    </g>
  </g>
  <mask id="background-circle1">
    <g id="g">
      <g id="shape25">
        <path id="path19" fill="#FFFFFF" fill-opacity="1" d="M845.8,178.25 C845.45,177.9 845.15,177.6 844.8,177.25 772.35,105.2 688.1,61.5 592.15,46.2 575.9,43.6 559.35,41.8 542.1,40.85 532.4,40.3 522.25,40 512,40 502.65,40 493.4,40.25 484.1,40.75 365.75,46.85 263.8,92.7 178.25,178.25 Q40,316.5 40,512 C40,641.9 85.75,752.85 177.25,844.8 177.6,845.15 177.9,845.45 178.25,845.8 234.95,902.45 298.8,941.7 369.35,963.35 406.1,974.6 444.15,981.2 484.1,983.3 484.25,983.3 484.35,983.3 484.5,983.3 493,983.75 501.1,984 509,984 510.2,984 511.1,984 512,984 522.3,984 532.5,983.7 542.1,983.2 544.6,983.05 546.85,982.9 549.05,982.75 569.25,981.3 588.95,978.7 607.75,975.05 615.7,973.5 623.55,971.75 631.15,969.9 711.95,949.6 783.3,908.3 845.8,845.8 894.4,797.2 930.2,743.3 953.15,684 971.6,636.35 981.8,585.2 983.7,530.5 983.9,524.45 984,518.25 984,512 984,511.35 984,510.65 984,510 984,509.65 984,509.35 984,509 983.8,468.35 979.05,429.5 969.7,392 968.6,387.65 967.35,383 966.05,378.4 965.05,375 964.05,371.55 962.9,367.9 961.3,362.75 959.5,357.4 957.6,352.05 951.15,333.8 943.45,316 934.45,298.4 930.65,291 926.5,283.45 922.15,276 901.85,241.5 876.35,208.8 845.8,178.25z"/>
      </g>
    </g>
  </mask>
  <g id="masked" mask="url(#background-circle1)">
    <g id="Calque.__201">
      <g id="shape8">
        <path id="path4" fill="#6E47B8" fill-opacity="1" d="M1077.3,391 L1023.9,287.2 C987.5,283.9 954.15,284.55 924,289.15 L924,695.9 1067.55,695.9 C1079.65,695.9 1085.7,689.85 1085.7,677.75 L1085.7,407.25 C1085.7,399.25 1083.05,393.9 1077.3,391z M866,304.2 C845.4,312.05 826.75,322.4 810,335.15 L810,335.125 L810,695.9 866,695.9 866,304.175z"/>
        <path id="path7" fill="#55388D" fill-opacity="1" d="M924,289.15 C903.15,292.35 883.85,297.35 866,304.2 L866,304.175 L866,695.9 924,695.9 924,289.15z M748.1,677.75 C748.1,689.85 754.15,695.9 766.25,695.9 L810,695.9 810,335.125 L810,335.15 C785.25,354 764.65,378 748.1,407.25 L748.1,677.75z"/>
        <path id="path10" fill="#6E46B8" fill-opacity="1" d="M737.15,372.8 Q737.15,354.65 719,354.65 L581.05,354.65 C416.85,358.9 328.85,457.5 317.2,650.45 L648.2,650.45 C651.7,650.45 654.75,651.75 657.25,654.25 659.75,656.75 661,659.7 661,663.2 661,666.7 659.75,669.75 657.25,672.25 654.75,674.75 651.7,675.95 648.2,675.95 L316.55,675.95 C316.4,675.95 316.25,675.95 316.15,675.95 316.15,678.55 316.1,680.85 316.05,683.2 316.05,695.3 322.1,701.35 334.2,701.35 L719,701.35 C731.15,701.35 737.15,695.3 737.15,683.2 L737.15,372.8z M586.7,574.45 C571.1,590.05 552.3,597.85 530.25,597.85 508.2,597.85 489.35,590.05 473.75,574.45 458.15,558.9 450.35,540.05 450.35,518 450.35,495.95 458.15,477.1 473.75,461.5 489.35,445.95 508.2,438.15 530.25,438.15 552.3,438.15 571.1,445.95 586.7,461.5 602.3,477.1 610.1,495.95 610.1,518 610.1,540.05 602.3,558.9 586.7,574.45z M831.75,220 C830.4,220 829.1,220.15 827.95,220.55 826.2,221.05 824.65,221.9 823.25,223.1 L763.25,367.95 C792.85,327.05 832.4,300.7 881.8,288.75 L839.55,222.6 C837.3,220.85 834.7,220 831.75,220z"/>
        <path id="path11" fill="#FFFFFF" fill-opacity="1" d="M586.7,574.45 C602.3,558.9 610.1,540.05 610.1,518 610.1,495.95 602.3,477.1 586.7,461.5 571.1,445.95 552.3,438.15 530.25,438.15 508.2,438.15 489.35,445.95 473.75,461.5 458.15,477.1 450.35,495.95 450.35,518 450.35,540.05 458.15,558.9 473.75,574.45 489.35,590.05 508.2,597.85 530.25,597.85 552.3,597.85 571.1,590.05 586.7,574.45z M506.65,453.4 C513.15,453.4 518.7,455.75 523.3,460.3 527.9,464.95 530.25,470.55 530.25,477 530.25,483.5 527.9,489.1 523.3,493.7 518.7,498.3 513.15,500.6 506.65,500.6 500.15,500.6 494.55,498.3 489.95,493.7 485.35,489.1 483.05,483.5 483.05,477 483.05,470.55 485.35,464.95 489.95,460.3 494.55,455.75 500.15,453.4 506.65,453.4z"/>
        <path id="path14" fill="#000000" fill-opacity="1" d="M506.65,453.4 C500.15,453.4 494.55,455.75 489.95,460.3 485.35,464.95 483.05,470.55 483.05,477 483.05,483.5 485.35,489.1 489.95,493.7 494.55,498.3 500.15,500.6 506.65,500.6 513.15,500.6 518.7,498.3 523.3,493.7 527.9,489.1 530.25,483.5 530.25,477 530.25,470.55 527.9,464.95 523.3,460.3 518.7,455.75 513.15,453.4 506.65,453.4z"/>
      </g>
    </g>
  </g>
</svg>