<?xml version="1.0" encoding="utf-8"?>
<!-- Generator: flash2svg, http://dissentgraphics.com/tools/flash2svg -->
<svg xmlns:xlink="http://www.w3.org/1999/xlink" id="Apps-Dashlane" image-rendering="optimizeSpeed" baseProfile="basic" version="1.1" style="background-color:#ffffff" x="0px" y="0px" width="1024px" height="1024px" viewBox="0 0 1024 1024" enable-background="new 0 0 1024 1024" xmlns="http://www.w3.org/2000/svg">
  <defs transform="matrix(1 0 0 1 0 0) "/>
  <g id="background-circle-shadow">
    <g id="shape">
      <path id="path" fill="#000000" fill-opacity="0.09803921568627451" d="M969.65,351.3 Q961.05,330.45 950.25,310.45 C946.2,302.9 941.9,295.4 937.35,288.05 917.8,256.35 893.95,226.4 865.8,198.25 773.65,106.1 662.35,60 532,60 401.65,60 290.4,106.1 198.25,198.25 106.1,290.4 60,401.65 60,532 60,662.35 106.1,773.65 198.25,865.8 290.4,957.95 401.65,1004 532,1004 662.35,1004 773.65,957.95 865.8,865.8 916.55,815 953.35,758.4 976.15,696.05 994.7,645.2 1004,590.55 1004,532 1004,487.1 998.55,444.45 987.6,404.05 986.35,399.5 985.05,394.95 983.7,390.45 979.6,377.15 974.9,364.1 969.65,351.3z"/>
    </g>
  </g>
  <g id="background-circle">
    <g id="shape2">
      <path id="path1" fill="#227289" fill-opacity="1" d="M969.75,392.05 C968.65,387.7 967.4,383.05 966.1,378.45 965.1,375.05 964.1,371.6 962.95,367.95 961.35,362.8 959.55,357.45 957.65,352.1 951.2,333.85 943.5,316.05 934.5,298.45 930.7,291.05 926.55,283.5 922.2,276.05 901.9,241.55 876.4,208.85 845.85,178.3 773.25,105.7 688.7,61.65 592.2,46.25 575.95,43.65 559.4,41.85 542.15,40.9 532.45,40.35 522.3,40.05 512.05,40.05 502.7,40.05 493.45,40.3 484.15,40.8 365.8,46.9 263.85,92.75 178.3,178.3 Q40.05,316.55 40.05,512.05 C40.05,642.4 86.15,753.7 178.3,845.85 235,902.5 298.85,941.75 369.4,963.4 406.15,974.65 444.2,981.25 484.15,983.35 484.3,983.35 484.4,983.35 484.55,983.35 493.05,983.8 501.15,984.05 509.05,984.05 510.25,984.05 511.15,984.05 512.05,984.05 522.35,984.05 532.55,983.75 542.15,983.25 544.65,983.1 546.9,982.95 549.1,982.8 569.3,981.35 589,978.75 607.8,975.1 615.75,973.55 623.6,971.8 631.2,969.95 712,949.65 783.35,908.35 845.85,845.85 894.45,797.25 930.25,743.35 953.2,684.05 971.65,636.4 981.85,585.25 983.75,530.55 983.95,524.5 984.05,518.3 984.05,512.05 984.05,511.4 984.05,510.7 984.05,510.05 984.05,509.7 984.05,509.4 984.05,509.05 983.85,468.4 979.1,429.55 969.75,392.05z"/>
    </g>
  </g>
  <g id="object-shadow">
    <g id="shape4">
      <path id="path2" fill="#000000" fill-opacity="0.2" d="M674.1,67.2 L682.05,122.05 642.55,266.05 424.075,47.575 Q357.302,59.364 298.225,89.75 L350.05,136.05 414.05,365.05 397.475,500.925 217.65,498.05 382.05,664.05 383.05,837.05 529.775,983.775 L529.8,983.8 C534.15,983.6 538.2,983.45 542.15,983.25 544.65,983.1 546.9,982.95 549.1,982.8 569.3,981.35 589,978.75 607.8,975.1 615.75,973.55 623.6,971.8 631.2,969.95 712,949.65 783.35,908.35 845.85,845.85 894.45,797.25 930.25,743.35 953.2,684.05 971.65,636.4 981.85,585.25 983.75,530.55 983.95,524.5 984.05,518.3 984.05,512.05 984.05,511.4 984.05,510.7 984.05,510.05 984.05,509.7 984.05,509.4 984.05,509.05 983.85,468.4 979.1,429.55 969.75,392.05 968.65,387.7 967.4,383.05 966.1,378.45 965.1,375.05 964.1,371.6 962.95,367.95 961.35,362.8 959.55,357.45 957.65,352.1 951.2,333.85 943.5,316.05 934.5,298.45 930.7,291.05 926.55,283.5 922.2,276.05 901.9,241.55 876.4,208.85 845.85,178.3 794.65,127.1 737.55,90.1 674.1,67.2z"/>
    </g>
  </g>
  <mask id="background-circle1">
    <g id="g">
      <g id="shape6">
        <path id="path3" fill="#FFFFFF" fill-opacity="1" d="M969.75,392.05 C968.65,387.7 967.4,383.05 966.1,378.45 965.1,375.05 964.1,371.6 962.95,367.95 961.35,362.8 959.55,357.45 957.65,352.1 951.2,333.85 943.5,316.05 934.5,298.45 930.7,291.05 926.55,283.5 922.2,276.05 901.9,241.55 876.4,208.85 845.85,178.3 773.25,105.7 688.7,61.65 592.2,46.25 575.95,43.65 559.4,41.85 542.15,40.9 532.45,40.35 522.3,40.05 512.05,40.05 502.7,40.05 493.45,40.3 484.15,40.8 365.8,46.9 263.85,92.75 178.3,178.3 Q40.05,316.55 40.05,512.05 C40.05,642.4 86.15,753.7 178.3,845.85 235,902.5 298.85,941.75 369.4,963.4 406.15,974.65 444.2,981.25 484.15,983.35 484.3,983.35 484.4,983.35 484.55,983.35 493.05,983.8 501.15,984.05 509.05,984.05 510.25,984.05 511.15,984.05 512.05,984.05 522.35,984.05 532.55,983.75 542.15,983.25 544.65,983.1 546.9,982.95 549.1,982.8 569.3,981.35 589,978.75 607.8,975.1 615.75,973.55 623.6,971.8 631.2,969.95 712,949.65 783.35,908.35 845.85,845.85 894.45,797.25 930.25,743.35 953.2,684.05 971.65,636.4 981.85,585.25 983.75,530.55 983.95,524.5 984.05,518.3 984.05,512.05 984.05,511.4 984.05,510.7 984.05,510.05 984.05,509.7 984.05,509.4 984.05,509.05 983.85,468.4 979.1,429.55 969.75,392.05z"/>
      </g>
    </g>
  </mask>
  <g id="masked" mask="url(#background-circle1)">
    <g id="Calque.__205">
      <g id="Symbole.__2012_1" overflow="visible">
        <g id="Calque.__207">
          <g id="shape56">
            <path id="path49" fill="#4F342B" fill-opacity="1" d="M696.538,-74.822 C691.024,-74.266 686.521,-71.838 683.031,-67.487 679.49,-63.188 678.023,-58.281 678.579,-52.767 690.366,60.546 675.038,162.729 632.597,253.784 L584.338,205.525 C580.392,201.579 575.637,199.606 570.073,199.606 564.508,199.606 559.753,201.579 555.858,205.525 551.912,209.42 549.939,214.175 549.939,219.739 549.939,225.304 551.912,230.059 555.858,234.005 L615.296,293.443 C601.891,333.861 599.615,373.672 608.366,412.877 624.503,420.262 639.274,429.519 653.034,440.699 657.232,444.139 661.229,447.629 664.618,450.867 638.768,399.168 636.796,346.255 658.649,292.077 689.658,232.639 709.386,168.648 717.935,100.003 L774.136,43.802 C778.031,39.856 780.004,35.101 780.004,29.536 780.004,23.972 778.031,19.217 774.136,15.322 770.191,11.376 765.436,9.403 759.871,9.403 754.307,9.403 749.552,11.376 745.656,15.322 L722.488,38.439 C723.348,7.531 722.033,-24.287 718.644,-56.915 718.087,-62.429 715.608,-66.931 711.309,-70.421 706.958,-73.963 702.051,-75.429 696.538,-74.822z M340.969,-67.487 C337.479,-71.838 332.976,-74.266 327.463,-74.822 321.949,-75.429 317.042,-73.963 312.691,-70.421 308.392,-66.931 305.913,-62.429 305.356,-56.915 301.967,-24.287 300.652,7.531 301.512,38.439 L278.344,15.322 C274.448,11.376 269.693,9.403 264.129,9.403 258.564,9.403 253.809,11.376 249.864,15.322 245.969,19.217 243.996,23.972 243.996,29.536 243.996,35.101 245.969,39.856 249.864,43.802 L306.065,100.003 C314.614,168.648 334.342,232.639 365.351,292.077 387.053,345.85 385.232,398.46 359.939,449.804 363.227,446.719 366.717,443.683 370.359,440.699 384.473,429.216 399.598,419.857 415.735,412.573 424.385,373.47 422.058,333.76 408.704,293.443 L468.142,234.005 C472.088,230.059 474.061,225.304 474.061,219.739 474.061,214.175 472.088,209.42 468.142,205.525 464.247,201.579 459.492,199.606 453.927,199.606 448.363,199.606 443.608,201.579 439.662,205.525 L391.403,253.784 C348.962,162.729 333.634,60.546 345.421,-52.767 345.977,-58.281 344.51,-63.188 340.969,-67.487z"/>
            <path id="path50" fill="#AF7E5F" fill-opacity="1" d="M653.034,440.699 C639.274,429.519 624.503,420.262 608.366,412.877 584.186,401.748 557.224,395.273 527.884,393.502 482.711,396.183 443.203,410.246 409.361,435.59 407.135,437.208 404.91,438.928 402.734,440.699 393.629,448.135 385.586,455.875 378.605,464.019 382.348,468.673 385.889,473.479 388.924,478.082 416.696,519.613 429.747,572.627 428.027,637.175 428.331,638.186 428.634,639.198 428.988,640.21 395.45,658.674 369.095,662.265 350.024,650.883 350.681,689.582 349.113,730.506 345.421,773.605 344.813,777.955 344.409,782.407 344.206,786.96 344.105,789.185 344.055,791.411 344.055,793.688 344.055,795.964 344.105,798.24 344.206,800.517 344.206,800.567 344.206,800.668 344.257,800.77 346.179,842.705 365.655,878.773 402.734,908.872 437.942,937.453 479.676,953.236 527.884,956.119 576.143,953.236 617.876,937.453 653.034,908.872 690.113,878.773 709.589,842.705 711.511,800.77 711.562,800.668 711.562,800.567 711.562,800.517 L711.562,786.96 C711.359,782.407 710.954,777.955 710.347,773.605 704.328,703.796 704.075,639.653 709.488,581.227 710.145,574.549 710.853,567.973 711.612,561.447 711.612,561.296 711.612,561.144 711.612,560.992 711.663,559.323 711.713,557.603 711.713,555.883 711.713,552.696 711.612,549.61 711.46,546.525 707.464,649.467 668.665,680.729 595.062,640.21 598.401,629.637 602.043,619.773 605.938,610.617 621.771,573.74 642.461,548.447 667.956,534.789 681.261,527.656 695.829,523.66 711.764,522.85 711.814,530.287 711.764,537.47 711.511,544.299 L716.747,543.135 723.196,541.719 C730.076,532.31 753.295,495.18 772.366,463.817 782.028,447.73 790.729,433.111 795.382,424.815 813.34,393.452 836.155,373.116 863.673,363.758 L770.747,384.093 C760.782,386.268 753.244,391.681 748.186,400.179 L748.135,400.23 694.919,489.337 Q683.596,468.808 664.618,450.841 L664.618,450.867 C661.229,447.629 657.232,444.139 653.034,440.699z M552.469,560.436 L552.469,683.865 C552.469,697.372 545.741,704.1 532.234,704.1 L493.789,704.1 C480.283,704.1 473.555,697.372 473.555,683.865 L473.555,560.436 C473.555,546.929 480.283,540.201 493.789,540.201 L532.234,540.201 C545.741,540.201 552.469,546.929 552.469,560.436z M512.809,833.499 L512.759,833.499 512.759,862.94 512.809,862.94 512.809,833.499z"/>
            <path id="path51" fill="#BFA080" fill-opacity="1" d="M552.469,560.436 C552.469,546.929 545.741,540.201 532.234,540.201 L493.789,540.201 C480.283,540.201 473.555,546.929 473.555,560.436 L473.555,683.865 C473.555,697.372 480.283,704.1 493.789,704.1 L532.234,704.1 C545.741,704.1 552.469,697.372 552.469,683.865 L552.469,560.436z M578.217,755.748 C578.217,765.258 574.828,773.403 568.1,780.13 567.645,780.586 567.139,781.092 566.633,781.547 L516.3,831.93 C515.339,832.892 514.175,833.448 512.809,833.499 L512.809,862.94 512.809,903.408 C535.573,903.155 556.212,899.463 574.727,892.33 584.641,888.435 593.949,883.579 602.599,877.761 627.943,860.663 640.64,840.024 640.64,815.844 640.64,798.341 633.963,782.66 620.608,768.85 618.23,766.371 615.6,763.994 612.818,761.616 609.681,758.986 606.292,756.456 602.599,753.978 593.747,748.008 584.237,743.102 574.069,739.206 576.851,744.164 578.217,749.678 578.217,755.748z M512.759,833.499 C512.708,833.499 512.607,833.499 512.506,833.499 511.039,833.499 509.774,832.993 508.712,831.93 L457.873,781.092 C457.519,780.738 457.215,780.434 456.912,780.13 456.558,779.827 456.254,779.473 455.9,779.119 455.748,778.967 455.647,778.815 455.496,778.663 449.729,772.239 446.845,764.601 446.845,755.748 446.795,749.728 448.161,744.316 450.842,739.409 440.927,743.253 431.619,748.11 422.969,753.927 419.276,756.406 415.887,758.935 412.75,761.565 409.968,763.943 407.338,766.321 404.96,768.799 391.605,782.609 384.928,798.291 384.928,815.794 384.928,839.974 397.625,860.613 422.969,877.711 432.631,884.236 443.102,889.548 454.383,893.595 471.936,899.918 491.412,903.155 512.759,903.358 L512.759,862.94 512.759,833.499z M275.915,400.23 L275.865,400.179 C270.806,391.681 263.269,386.268 253.304,384.093 L160.377,363.758 C187.896,373.116 210.71,393.452 228.668,424.815 233.322,433.162 242.023,447.831 251.735,463.817 270.857,495.281 294.025,532.31 300.854,541.719 L307.304,543.135 312.135,544.198 C311.831,548.346 311.68,552.089 311.68,555.883 311.68,557.603 311.73,559.323 311.781,560.992 311.781,561.144 311.781,561.296 311.781,561.447 312.54,567.973 313.248,574.549 313.905,581.227 319.318,639.653 319.065,703.796 313.046,773.605 312.438,777.955 312.034,782.407 311.831,786.96 L311.831,800.517 C311.831,800.567 311.831,800.668 311.882,800.77 313.804,842.705 333.28,878.773 370.359,908.872 409.361,940.589 456.406,956.473 511.444,956.574 L511.949,956.574 C517.362,956.574 522.674,956.422 527.884,956.119 479.676,953.236 437.942,937.453 402.734,908.872 365.655,878.773 346.179,842.705 344.257,800.77 344.206,800.668 344.206,800.567 344.206,800.517 344.105,798.24 344.055,795.964 344.055,793.688 344.055,791.411 344.105,789.185 344.206,786.96 344.409,782.407 344.813,777.955 345.421,773.605 349.113,730.506 350.681,689.582 350.024,650.883 324.174,635.505 311.629,592.811 312.287,522.85 328.221,523.66 342.79,527.656 356.094,534.789 381.589,548.447 402.279,573.74 418.113,610.617 421.654,618.863 424.942,627.715 428.027,637.175 429.747,572.627 416.696,519.613 388.924,478.082 385.889,473.479 382.348,468.673 378.605,464.019 385.586,455.875 393.629,448.135 402.734,440.699 404.91,438.928 407.135,437.208 409.361,435.59 443.203,410.246 482.711,396.183 527.884,393.502 522.674,393.148 517.362,392.996 511.949,392.996 L511.444,392.996 C476.286,393.047 444.417,399.572 415.735,412.573 399.598,419.857 384.473,429.216 370.359,440.699 366.717,443.683 363.227,446.719 359.939,449.804 346.837,461.996 336.416,475.097 328.828,488.806 L328.803,488.781 L275.915,400.23z"/>
            <path id="path52" fill="#502320" fill-opacity="1" d="M541.643,721.35 C538.558,721.501 535.674,722.058 532.943,722.918 519.031,725.093 505.677,725.194 492.879,723.171 489.894,722.108 486.707,721.501 483.419,721.35 L482.66,721.35 C482.205,721.299 481.75,721.248 481.294,721.299 480.839,721.248 480.384,721.299 479.929,721.35 L479.119,721.35 C470.52,721.805 463.134,725.144 456.912,731.366 454.433,733.844 452.41,736.525 450.842,739.409 448.161,744.316 446.795,749.728 446.845,755.748 446.845,764.601 449.729,772.239 455.496,778.663 455.647,778.815 455.748,778.967 455.9,779.119 456.254,779.473 456.558,779.827 456.912,780.13 457.215,780.434 457.519,780.738 457.873,781.092 L508.712,831.93 C509.774,832.993 511.039,833.499 512.506,833.499 512.607,833.499 512.708,833.499 512.759,833.499 L512.809,833.499 C514.175,833.448 515.339,832.892 516.3,831.93 L566.633,781.547 C567.139,781.092 567.645,780.586 568.1,780.13 574.828,773.403 578.217,765.258 578.217,755.748 578.217,749.678 576.851,744.164 574.069,739.206 572.501,736.424 570.528,733.794 568.1,731.366 561.372,724.638 553.228,721.248 543.717,721.299 543.161,721.248 542.604,721.299 541.997,721.35 541.947,721.299 541.947,721.299 541.947,721.35 L541.643,721.35z"/>
            <path id="path53" fill="#784837" fill-opacity="1" d="M612.818,761.616 C615.6,763.994 618.23,766.371 620.608,768.85 622.126,729.848 615.398,699.142 600.424,676.632 594.152,719.276 598.3,747.604 612.818,761.616z M404.96,768.799 C407.338,766.321 409.968,763.943 412.75,761.565 427.269,747.553 431.417,719.225 425.144,676.581 410.171,699.092 403.443,729.797 404.96,768.799z"/>
            <path id="path54" fill="#D3B18F" fill-opacity="1" d="M512.809,862.94 L512.759,862.94 512.759,903.358 C491.412,903.155 471.936,899.918 454.383,893.595 454.737,901.436 460.554,908.214 471.936,913.88 483.722,919.697 497.887,922.631 514.529,922.631 531.172,922.631 545.336,919.697 557.072,913.88 568.859,908.062 574.727,901.031 574.727,892.785 574.727,892.634 574.727,892.482 574.727,892.33 556.212,899.463 535.573,903.155 512.809,903.408 L512.809,862.94z"/>
            <path id="path55" fill="#9F3F5B" fill-opacity="1" d="M937.63,370.688 C942.335,362.796 942.638,357.384 938.642,354.349 936.922,350.099 931.661,348.885 922.91,350.808 L863.673,363.758 C836.155,373.116 813.34,393.452 795.382,424.815 790.729,433.111 782.028,447.73 772.366,463.817 L772.341,463.791 L799.581,471.303 769.229,478.385 809.698,520.878 774.238,514.251 C774.086,520.675 772.416,526.442 769.28,531.652 L837.369,516.78 C847.334,514.554 854.871,509.192 859.981,500.643 L937.63,370.688z M85.409,354.349 C81.412,357.384 81.716,362.796 86.421,370.688 L164.07,500.643 C169.179,509.192 176.716,514.554 186.682,516.78 L254.771,531.652 C251.634,526.442 249.965,520.675 249.813,514.251 L214.352,520.878 254.821,478.385 224.47,471.303 251.71,463.791 L251.735,463.817 C242.023,447.831 233.322,433.162 228.668,424.815 210.71,393.452 187.896,373.116 160.377,363.758 L101.141,350.808 C92.39,348.885 87.129,350.099 85.409,354.349z"/>
            <path id="path56" fill="#FFFFFF" fill-opacity="1" d="M772.366,463.817 C753.295,495.18 730.076,532.31 723.196,541.719 L716.747,543.135 L716.772,543.135 C720.616,545.867 724.815,547.739 729.368,548.75 L748.995,565.393 744.948,548.953 C751.98,547.587 758.202,544.248 763.564,538.886 765.84,536.61 767.712,534.232 769.28,531.652 772.416,526.442 774.086,520.675 774.238,514.251 L809.698,520.878 769.229,478.385 799.581,471.303 772.341,463.791"/>
            <path id="path57" fill="#8C3C3C" fill-opacity="1" d="M711.46,546.525 C711.46,545.766 711.46,545.058 711.511,544.299 711.764,537.47 711.814,530.287 711.764,522.85 695.829,523.66 681.261,527.656 667.956,534.789 670.385,536.458 672.712,538.431 674.937,540.657 684.498,550.268 689.304,561.852 689.304,575.409 689.304,588.966 684.498,600.55 674.937,610.111 665.326,619.722 653.742,624.528 640.185,624.528 626.881,624.528 615.448,619.874 605.938,610.617 602.043,619.773 598.401,629.637 595.062,640.21 668.665,680.729 707.464,649.467 711.46,546.525z M349.113,540.657 C339.553,550.268 334.747,561.852 334.747,575.409 334.747,588.966 339.553,600.55 349.113,610.111 358.725,619.722 370.309,624.528 383.866,624.528 397.17,624.528 408.602,619.874 418.113,610.617 421.654,618.863 424.942,627.715 428.027,637.175 428.331,638.186 428.634,639.198 428.988,640.21 395.45,658.674 369.095,662.265 350.024,650.883 324.174,635.505 311.629,592.811 312.287,522.85 328.221,523.66 342.79,527.656 356.094,534.789 353.666,536.458 351.339,538.431 349.113,540.657z"/>
            <path id="path58" fill="#000000" fill-opacity="1" d="M674.937,540.657 C672.712,538.431 670.385,536.458 667.956,534.789 642.461,548.447 621.771,573.74 605.938,610.617 615.448,619.874 626.881,624.528 640.185,624.528 653.742,624.528 665.326,619.722 674.937,610.111 684.498,600.55 689.304,588.966 689.304,575.409 689.304,561.852 684.498,550.268 674.937,540.657z M682.373,565.343 C682.373,569.086 681.058,572.273 678.428,574.903 675.797,577.534 672.61,578.849 668.867,578.849 665.124,578.849 661.937,577.534 659.306,574.903 656.676,572.273 655.361,569.086 655.361,565.343 655.361,561.599 656.676,558.412 659.306,555.782 661.937,553.151 665.124,551.836 668.867,551.836 672.61,551.836 675.797,553.151 678.428,555.782 681.058,558.412 682.373,561.599 682.373,565.343z M661.026,588.612 C659.66,588.612 658.446,588.106 657.485,587.145 656.524,586.184 656.018,584.97 656.018,583.604 656.018,582.238 656.524,581.024 657.485,580.063 658.446,579.102 659.66,578.596 661.026,578.596 662.392,578.596 663.606,579.102 664.567,580.063 665.528,581.024 666.034,582.238 666.034,583.604 666.034,584.97 665.528,586.184 664.567,587.145 663.606,588.106 662.392,588.612 661.026,588.612z M356.094,534.789 C353.666,536.458 351.339,538.431 349.113,540.657 339.553,550.268 334.747,561.852 334.747,575.409 334.747,588.966 339.553,600.55 349.113,610.111 358.725,619.722 370.309,624.528 383.866,624.528 397.17,624.528 408.602,619.874 418.113,610.617 402.279,573.74 381.589,548.447 356.094,534.789z M364.744,555.782 C367.375,558.412 368.69,561.599 368.69,565.343 368.69,569.086 367.375,572.273 364.744,574.903 362.114,577.534 358.927,578.849 355.184,578.849 351.44,578.849 348.253,577.534 345.623,574.903 342.992,572.273 341.677,569.086 341.677,565.343 341.677,561.599 342.992,558.412 345.623,555.782 348.253,553.151 351.44,551.836 355.184,551.836 358.927,551.836 362.114,553.151 364.744,555.782z M359.483,587.145 C358.522,586.184 358.016,584.97 358.016,583.604 358.016,582.238 358.522,581.024 359.483,580.063 360.445,579.102 361.659,578.596 363.024,578.596 364.39,578.596 365.604,579.102 366.565,580.063 367.527,581.024 368.032,582.238 368.032,583.604 368.032,584.97 367.527,586.184 366.565,587.145 365.604,588.106 364.39,588.612 363.024,588.612 361.659,588.612 360.445,588.106 359.483,587.145z"/>
            <path id="path59" fill="#FFFFFF" fill-opacity="1" d="M682.373,565.343 C682.373,561.599 681.058,558.412 678.428,555.782 675.797,553.151 672.61,551.836 668.867,551.836 665.124,551.836 661.937,553.151 659.306,555.782 656.676,558.412 655.361,561.599 655.361,565.343 655.361,569.086 656.676,572.273 659.306,574.903 661.937,577.534 665.124,578.849 668.867,578.849 672.61,578.849 675.797,577.534 678.428,574.903 681.058,572.273 682.373,569.086 682.373,565.343z"/>
            <path id="path60" fill="#FFFFFF" fill-opacity="1" d="M661.026,588.612 C662.392,588.612 663.606,588.106 664.567,587.145 665.528,586.184 666.034,584.97 666.034,583.604 666.034,582.238 665.528,581.024 664.567,580.063 663.606,579.102 662.392,578.596 661.026,578.596 659.66,578.596 658.446,579.102 657.485,580.063 656.524,581.024 656.018,582.238 656.018,583.604 656.018,584.97 656.524,586.184 657.485,587.145 658.446,588.106 659.66,588.612 661.026,588.612z"/>
            <path id="path61" fill="#FFFFFF" fill-opacity="1" d="M364.744,555.782 C362.114,553.151 358.927,551.836 355.184,551.836 351.44,551.836 348.253,553.151 345.623,555.782 342.992,558.412 341.677,561.599 341.677,565.343 341.677,569.086 342.992,572.273 345.623,574.903 348.253,577.534 351.44,578.849 355.184,578.849 358.927,578.849 362.114,577.534 364.744,574.903 367.375,572.273 368.69,569.086 368.69,565.343 368.69,561.599 367.375,558.412 364.744,555.782z"/>
            <path id="path62" fill="#FFFFFF" fill-opacity="1" d="M359.483,587.145 C360.445,588.106 361.659,588.612 363.024,588.612 364.39,588.612 365.604,588.106 366.565,587.145 367.527,586.184 368.032,584.97 368.032,583.604 368.032,582.238 367.527,581.024 366.565,580.063 365.604,579.102 364.39,578.596 363.024,578.596 361.659,578.596 360.445,579.102 359.483,580.063 358.522,581.024 358.016,582.238 358.016,583.604 358.016,584.97 358.522,586.184 359.483,587.145z M300.854,541.719 C294.025,532.31 270.857,495.281 251.735,463.817 L251.71,463.791 L224.47,471.303 254.821,478.385 214.352,520.878 249.813,514.251 C249.965,520.675 251.634,526.442 254.771,531.652 256.339,534.232 258.21,536.61 260.487,538.886 265.849,544.248 272.071,547.587 279.102,548.953 L275.055,565.393 294.683,548.75 C299.236,547.739 303.434,545.867 307.329,543.135 L307.304,543.135 L300.854,541.719z"/>
          </g>
        </g>
      </g>
    </g>
  </g>
</svg>