<?xml version="1.0" encoding="utf-8"?>
<!-- Generator: flash2svg, http://dissentgraphics.com/tools/flash2svg -->
<svg xmlns:xlink="http://www.w3.org/1999/xlink" id="Stickies" image-rendering="optimizeSpeed" baseProfile="basic" version="1.1" style="background-color:#ffffff" x="0px" y="0px" width="1024px" height="1024px" viewBox="0 0 1024 1024" enable-background="new 0 0 1024 1024" xmlns="http://www.w3.org/2000/svg">
  <defs transform="matrix(1 0 0 1 0 0) "/>
  <g id="shadow">
    <g id="shape">
      <path id="path" fill="#000000" fill-opacity="0.09803921568627451" d="M969.65,351.3 Q961.05,330.45 950.25,310.45 C946.2,302.9 941.9,295.4 937.35,288.05 917.8,256.35 893.95,226.4 865.8,198.25 773.65,106.1 662.35,60 532,60 401.65,60 290.4,106.1 198.25,198.25 106.1,290.4 60,401.65 60,532 60,662.35 106.1,773.65 198.25,865.8 290.4,957.95 401.65,1004 532,1004 662.35,1004 773.65,957.95 865.8,865.8 916.55,815 953.35,758.4 976.15,696.05 994.7,645.2 1004,590.55 1004,532 1004,487.1 998.55,444.45 987.6,404.05 986.35,399.5 985.05,394.95 983.7,390.45 979.6,377.15 974.9,364.1 969.65,351.3z"/>
    </g>
  </g>
  <g id="bg">
    <g id="shape2">
      <path id="path1" fill="#4C4C4C" fill-opacity="1" d="M929.85,289.65 C927.5,285.3 924.9,280.65 922.2,276.05 901.9,241.55 876.4,208.85 845.85,178.3 773.25,105.7 688.7,61.65 592.2,46.25 575.95,43.65 559.4,41.85 542.15,40.9 532.45,40.35 522.3,40.05 512.05,40.05 502.7,40.05 493.45,40.3 484.15,40.8 365.8,46.9 263.85,92.75 178.3,178.3 157.8,198.8 139.55,220.25 123.6,242.7 108.25,264.25 95.05,286.7 84,309.9 L83.975,309.875 Q40.05,401.873 40.05,512.05 C40.05,642.4 86.15,753.7 178.3,845.85 235,902.5 298.85,941.75 369.4,963.4 406.15,974.65 444.2,981.25 484.15,983.35 484.3,983.35 484.4,983.35 484.55,983.35 493.05,983.8 501.15,984.05 509.05,984.05 510.25,984.05 511.15,984.05 512.05,984.05 522.35,984.05 532.55,983.75 542.15,983.25 544.65,983.1 546.9,982.95 549.1,982.8 569.3,981.35 589,978.75 607.8,975.1 615.75,973.55 623.6,971.8 631.2,969.95 712,949.65 783.35,908.35 845.85,845.85 894.45,797.25 930.25,743.35 953.2,684.05 971.65,636.4 981.85,585.25 983.75,530.55 983.95,524.5 984.05,518.3 984.05,512.05 984.05,511.4 984.05,510.7 984.05,510.05 984.05,509.7 984.05,509.4 984.05,509.05 983.85,468.4 979.1,429.55 969.75,392.05 968.65,387.7 967.4,383.05 966.1,378.45 965.1,375.05 964.1,371.6 962.95,367.95 961.35,362.8 959.55,357.45 957.65,352.1 952.6,337.85 946.8,323.85 940.2,309.95 938.35,306.15 936.45,302.3 934.5,298.45 933.05,295.6 931.55,292.75 929.85,289.65z"/>
    </g>
  </g>
  <g id="bg.__20copy">
    <g id="shape4">
      <path id="path2" fill="#000000" fill-opacity="0.2" d="M962.95,367.95 C961.3,362.8 959.6,357.7 957.85,352.65 L896.2,291 794.05,320.3 657.9,184.15 223.35,523.95 348.85,649.45 309.45,900 374.35,964.9 C409.85,975.25 446.15,981.35 484.15,983.35 484.3,983.35 484.4,983.35 484.55,983.35 493.05,983.8 501.15,984.05 509.05,984.05 Q510.55,984.05 512.05,984.05 C522.35,984.05 532.55,983.75 542.15,983.25 544.65,983.1 546.9,982.95 549.1,982.8 569.3,981.35 589,978.75 607.8,975.1 615.75,973.55 623.6,971.8 631.2,969.95 712,949.65 783.35,908.35 845.85,845.85 894.45,797.25 930.25,743.35 953.2,684.05 971.65,636.4 981.85,585.25 983.75,530.55 983.95,524.5 984.05,518.3 984.05,512.05 984.05,511.4 984.05,510.7 984.05,510.05 984.05,509.7 984.05,509.4 984.05,509.05 983.85,468.4 979.1,429.55 969.75,392.05 968.65,387.7 967.4,383.05 966.1,378.45 965.1,375.05 964.1,371.6 962.95,367.95z"/>
    </g>
  </g>
  <g id="Calque.__203.__20copy">
    <g id="shape6">
      <path id="path3" fill="#F37052" fill-opacity="1" d="M671.75,484.05 L247,562.75 309.5,900.05 734.3,821.25 671.75,484.05z"/>
    </g>
  </g>
  <g id="Calque.__202">
    <g id="shape8">
      <path id="path4" fill="#FFFFFF" fill-opacity="0.4980392156862745" d="M318.3,560.8 C319.3,561.7 320.5,562.05 322.05,562.05 L464.05,562.05 475.05,551.05 464.05,540.05 475.05,529.05 464.05,518.05 473.25,508.85 Q472.05,508.05 470.05,508.05 L323.05,508.05 327.05,512.05 317.05,522.05 327.05,532.05 317.05,542.05 327.05,552.05 318.3,560.8z"/>
    </g>
  </g>
  <g id="Calque.__203.__20copy.__202">
    <g id="shape10">
      <path id="path5" fill="#AEBF93" fill-opacity="1" d="M655.35,527.1 L657.9,184.15 225.9,181 223.35,523.95 655.35,527.1z"/>
    </g>
  </g>
  <g id="Calque.__203">
    <g id="shape12">
      <path id="path6" fill="#E8C253" fill-opacity="1" d="M848.75,630.7 L896.2,291 468.35,231.25 420.9,570.95 848.75,630.7z"/>
    </g>
  </g>
  <g id="Calque.__204">
    <g id="shape14">
      <path id="path7" fill="#FFFFFF" fill-opacity="0.4980392156862745" d="M666.65,283.25 L677.85,291.85 670.3,301.7 C671.45,302.45 672.65,302.65 674.2,302.45 L815,283.95 824.45,271.6 812.1,262.1 821.6,249.8 809.25,240.3 817.15,230 Q815.9,229.35 813.9,229.65 L668.15,248.75 672.6,252.2 664,263.4 675.25,272.05 666.65,283.25z"/>
    </g>
  </g>
  <g id="Calque.__205">
    <g id="shape16">
      <path id="path8" fill="#FFFFFF" fill-opacity="0.4980392156862745" d="M488.05,164.05 L497.25,154.85 Q496.05,154.05 494.05,154.05 L347.05,154.05 351.05,158.05 341.05,168.05 351.05,178.05 341.05,188.05 351.05,198.05 342.3,206.8 C343.3,207.7 344.5,208.05 346.05,208.05 L488.05,208.05 499.05,197.05 488.05,186.05 499.05,175.05 488.05,164.05z"/>
    </g>
  </g>
</svg>