<?xml version="1.0" encoding="utf-8"?>
<!-- Generator: flash2svg, http://dissentgraphics.com/tools/flash2svg -->
<svg xmlns:xlink="http://www.w3.org/1999/xlink" id="Adobe-Bridge-app" image-rendering="optimizeSpeed" baseProfile="basic" version="1.1" style="background-color:#ffffff" x="0px" y="0px" width="1024px" height="1024px" viewBox="0 0 1024 1024" enable-background="new 0 0 1024 1024" xmlns="http://www.w3.org/2000/svg">
  <defs transform="matrix(1 0 0 1 0 0) "/>
  <g id="shadow">
    <g id="shape">
      <path id="path" fill="#000000" fill-opacity="0.09803921568627451" d="M967.65,349.3 Q959.05,328.45 948.25,308.45 C944.2,300.9 939.9,293.4 935.35,286.05 915.8,254.35 891.95,224.4 863.8,196.25 771.65,104.1 660.35,58 530,58 399.65,58 288.4,104.1 196.25,196.25 104.1,288.4 58,399.65 58,530 58,660.35 104.1,771.65 196.25,863.8 288.4,955.95 399.65,1002 530,1002 660.35,1002 771.65,955.95 863.8,863.8 914.55,813 951.35,756.4 974.15,694.05 992.7,643.2 1002,588.55 1002,530 1002,485.1 996.55,442.45 985.6,402.05 984.35,397.5 983.05,392.95 981.7,388.45 977.6,375.15 972.9,362.1 967.65,349.3z"/>
    </g>
  </g>
  <g id="circle">
    <g id="shape2">
      <path id="path1" fill="#A17C50" fill-opacity="1" d="M956.35,679.15 C975.5,627.65 985.1,572.1 985.1,512.6 Q985.1,316.85 846.65,178.45 C754.4,86.2 643,40.05 512.5,40.05 382,40.05 270.6,86.2 178.35,178.45 86.1,270.7 39.95,382.1 39.95,512.6 39.95,643.1 86.1,754.5 178.35,846.75 270.6,939.05 382,985.2 512.5,985.2 516.25,985.2 520,985.15 523.35,985.1 649.4,982.5 757.05,936.4 846.65,846.75 896.85,796.55 933.4,740.7 956.35,679.15z"/>
    </g>
  </g>
  <g id="Symbole.__204">
    <g id="shape4">
      <path id="path2" fill="#000000" fill-opacity="0.2" d="M564.9,287.7 L324.3,339.35 272.05,654.975 266.9,728.65 523.35,985.1 Q712.098,981.351 846.65,846.75 C896.85,796.55 933.4,740.7 956.35,679.15 L956.325,679.125 L564.9,287.7z"/>
    </g>
  </g>
  <g id="Logo">
    <g id="shape6">
      <path id="path3" fill="#FFFFFF" fill-opacity="1" d="M681.6,548.35 L673.05,522.25 626.9,522.25 626.9,729.45 681.6,729.45 681.6,597.15 C687.85,588.25 695.1,582.15 703.35,578.85 711.5,575.7 721.8,574.1 734.25,574.1 L763.95,575.25 763.95,522.65 C759.8,521 752.1,520.15 740.9,520.15 730.85,520.15 720.95,522.5 711.15,527.2 701.25,531.9 691.4,538.95 681.6,548.35z M597.3,379.85 C597.3,361 594.65,343.95 589.35,328.7 583.85,313.25 575.7,299.55 564.9,287.7 543.1,264.2 509.2,252.45 463.25,252.45 L266.9,252.45 266.9,728.65 464.85,728.65 C513.75,728.65 549.3,716.7 571.55,692.75 582.8,680.9 591.25,666.25 597,648.9 602.5,631.55 605.25,611.5 605.25,588.85 605.25,559.65 598.25,535.4 584.3,516.1 577.5,506.55 569.75,498.85 561.1,492.95 552.4,487.2 542.85,483.4 532.5,481.5 543.3,479.6 552.7,475.7 560.75,469.75 569,463.8 575.8,455.85 581.1,445.9 586.6,436.15 590.75,425.8 593.5,414.8 596.05,403.75 597.3,392.1 597.3,379.85z M457.5,333.15 C471.9,333.15 483.85,337.15 493.4,345.2 502.95,353.25 507.7,366.6 507.7,385.25 507.7,403.9 503.45,417.85 495,427.15 486.55,436.5 474.05,441.15 457.5,441.15 L358.1,441.15 358.1,333.15 457.5,333.15z M514.05,584.75 C514.05,606.15 509.7,622.15 501.05,632.7 492.15,643.3 478.9,648.6 461.35,648.6 L358.1,647.95 358.1,517.7 461.35,517.7 C479.1,517.7 492.35,524.05 501.05,536.75 509.7,549.25 514.05,565.25 514.05,584.75z"/>
    </g>
  </g>
</svg>