<?xml version="1.0" encoding="utf-8"?>
<!-- Generator: flash2svg, http://dissentgraphics.com/tools/flash2svg -->
<svg xmlns:xlink="http://www.w3.org/1999/xlink" id="DayOne" image-rendering="optimizeSpeed" baseProfile="basic" version="1.1" style="background-color:#ffffff" x="0px" y="0px" width="1024px" height="1024px" viewBox="0 0 1024 1024" enable-background="new 0 0 1024 1024" xmlns="http://www.w3.org/2000/svg">
  <defs transform="matrix(1 0 0 1 0 0) "/>
  <g id="shadow">
    <g id="shape">
      <path id="path" fill="#000000" fill-opacity="0.09803921568627451" d="M969.65,351.3 Q961.05,330.45 950.25,310.45 C946.2,302.9 941.9,295.4 937.35,288.05 917.8,256.35 893.95,226.4 865.8,198.25 773.65,106.1 662.35,60 532,60 401.65,60 290.4,106.1 198.25,198.25 106.1,290.4 60,401.65 60,532 60,662.35 106.1,773.65 198.25,865.8 290.4,957.95 401.65,1004 532,1004 662.35,1004 773.65,957.95 865.8,865.8 916.55,815 953.35,758.4 976.15,696.05 994.7,645.2 1004,590.55 1004,532 1004,487.1 998.55,444.45 987.6,404.05 986.35,399.5 985.05,394.95 983.7,390.45 979.6,377.15 974.9,364.1 969.65,351.3z"/>
    </g>
  </g>
  <g id="circle">
    <g id="shape2">
      <path id="path1" fill="#215261" fill-opacity="1" d="M969.75,392.05 C968.65,387.7 967.4,383.05 966.1,378.45 963.6,369.7 960.75,360.85 957.65,352.1 951.2,333.85 943.5,316.05 934.5,298.45 930.7,291.05 926.55,283.5 922.2,276.05 901.9,241.55 876.4,208.85 845.85,178.3 773.25,105.7 688.7,61.65 592.2,46.25 575.95,43.65 559.4,41.85 542.15,40.9 532.45,40.35 522.3,40.05 512.05,40.05 502.7,40.05 493.45,40.3 484.15,40.8 365.8,46.9 263.85,92.75 178.3,178.3 Q40.05,316.55 40.05,512.05 C40.05,642.4 86.15,753.7 178.3,845.85 248.7,916.2 330.2,959.7 422.25,976.25 442.7,979.9 463.15,982.25 484.15,983.35 484.3,983.35 484.4,983.35 484.55,983.35 493.05,983.8 501.15,984.05 509.05,984.05 510.25,984.05 511.15,984.05 512.05,984.05 522.35,984.05 532.55,983.75 542.15,983.25 544.65,983.1 546.9,982.95 549.1,982.8 569.3,981.35 589,978.75 607.8,975.1 615.75,973.55 623.6,971.8 631.2,969.95 712,949.65 783.35,908.35 845.85,845.85 894.45,797.25 930.25,743.35 953.2,684.05 971.65,636.4 981.85,585.25 983.75,530.55 983.95,524.5 984.05,518.3 984.05,512.05 984.05,511.4 984.05,510.7 984.05,510.05 984.05,509.7 984.05,509.4 984.05,509.05 983.95,489.15 982.8,469.7 980.5,450.5 978.1,430.7 974.55,411.2 969.75,392.05z"/>
    </g>
  </g>
  <mask id="ico-shadow">
    <g id="g">
      <g id="shape9">
        <path id="path5" fill="#FFFFFF" fill-opacity="1" d="M969.75,392.05 C968.65,387.7 967.4,383.05 966.1,378.45 963.6,369.7 960.75,360.85 957.65,352.1 951.2,333.85 943.5,316.05 934.5,298.45 930.7,291.05 926.55,283.5 922.2,276.05 901.9,241.55 876.4,208.85 845.85,178.3 773.25,105.7 688.7,61.65 592.2,46.25 575.95,43.65 559.4,41.85 542.15,40.9 532.45,40.35 522.3,40.05 512.05,40.05 502.7,40.05 493.45,40.3 484.15,40.8 365.8,46.9 263.85,92.75 178.3,178.3 Q40.05,316.55 40.05,512.05 C40.05,642.4 86.15,753.7 178.3,845.85 248.7,916.2 330.2,959.7 422.25,976.25 442.7,979.9 463.15,982.25 484.15,983.35 484.3,983.35 484.4,983.35 484.55,983.35 493.05,983.8 501.15,984.05 509.05,984.05 510.25,984.05 511.15,984.05 512.05,984.05 522.35,984.05 532.55,983.75 542.15,983.25 544.65,983.1 546.9,982.95 549.1,982.8 569.3,981.35 589,978.75 607.8,975.1 615.75,973.55 623.6,971.8 631.2,969.95 712,949.65 783.35,908.35 845.85,845.85 894.45,797.25 930.25,743.35 953.2,684.05 971.65,636.4 981.85,585.25 983.75,530.55 983.95,524.5 984.05,518.3 984.05,512.05 984.05,511.4 984.05,510.7 984.05,510.05 984.05,509.7 984.05,509.4 984.05,509.05 983.95,489.15 982.8,469.7 980.5,450.5 978.1,430.7 974.55,411.2 969.75,392.05z"/>
      </g>
    </g>
  </mask>
  <g id="masked" mask="url(#ico-shadow)">
    <g id="ico">
      <g id="shape4">
        <path id="path2" fill="#3AB8C6" fill-opacity="1" d="M427.05,599.6 L553.45,181.6 323.9,181.6 323.9,829 656.45,829 427.05,599.6z"/>
        <path id="path3" fill="#2C8F9A" fill-opacity="1" d="M818.4,219.85 C818.4,194.4 805.7,181.6 780.25,181.6 L553.45,181.6 427.05,599.6 656.45,829 784.2,829 784.2,829.05 785.5,829.05 C794.45,828.8 802.2,825.5 808.55,819.15 814.9,812.85 818.2,805.2 818.4,796.15 L818.4,219.85z"/>
        <path id="path4" fill="#333333" fill-opacity="1" d="M323.9,181.6 L241.7,181.6 C216.25,181.6 203.5,194.4 203.5,219.85 L203.5,877.85 C203.5,903.3 216.25,916.1 241.7,916.1 L780.25,916.1 C805.1,916.1 817.9,903.85 818.4,879.45 L746.2,879.45 746.2,879.2 264.6,879.2 C257.65,879.2 251.75,876.7 246.8,871.85 241.9,867 239.5,861.1 239.5,854.15 L239.5,854.05 C239.5,847.1 241.9,841.2 246.8,836.25 251.75,831.4 257.65,829 264.6,829 L323.9,829 323.9,181.6z"/>
      </g>
      <g id="Symbole.__203_1" overflow="visible">
        <g id="Calque.__204">
          <g id="shape28">
            <path id="path20" fill="#CCCCCC" fill-opacity="1" d="M246.75,836.2 C241.85,841.15 239.45,847.05 239.45,854 L239.45,854.1 C239.45,861.05 241.85,866.95 246.75,871.8 251.7,876.65 257.6,879.15 264.55,879.15 L784.15,879.15 784.15,828.95 264.55,828.95 Q254.15,828.95 246.75,836.2z"/>
          </g>
        </g>
      </g>
    </g>
  </g>
  <g id="Calque.__201">
    <g id="shape11">
      <path id="path6" fill="#FFFFFF" fill-opacity="1" d="M709.05,599.6 L709.05,181.3 427.05,181.3 427.05,599.6 568.05,518.6 709.05,599.6z"/>
    </g>
  </g>
  <g id="Calque.__202">
    <g id="shape13">
      <path id="path7" fill="#CCCCCC" fill-opacity="1" d="M518.6,367.2 L544.8,362.8 544.8,484.05 587.65,484.05 587.65,322.1 545.15,322.1 518.6,339.95 518.6,367.2z"/>
    </g>
    <g id="drawingObject">
      <path id="path8" fill="#CCCCCC" fill-opacity="1" d="M666.6,222 L646.2,222 631.2,252.1 626.7,222 607.1,222 619.3,271.45 616.3,290.05 634.35,290.05 637.3,271.45 666.6,222z M586.7,222 L565.4,222 533.3,290.05 553.35,290.05 558.6,278.15 576.1,278.15 578.05,290.05 596.55,290.05 586.7,222z M565.15,262.8 L572.8,244.6 574.9,262.8 565.15,262.8z M528.95,228.1 C525.75,224.05 520.9,222 514.45,222 L485.1,222 474.3,290.05 505.25,290.05 C509.4,290.05 512.85,289.65 515.6,288.8 518.4,288.05 520.95,286.55 523.3,284.35 524.55,283.25 525.65,281.9 526.6,280.35 527.55,278.75 528.4,276.95 529.15,274.9 530.65,270.8 531.8,266 532.6,260.45 533.4,254.9 533.8,250.25 533.8,246.55 533.8,238.35 532.2,232.2 528.95,228.1z M509.45,237.25 C511.4,237.25 512.9,237.6 513.85,238.35 515.25,239.6 515.95,242.7 515.95,247.65 515.95,249.4 515.6,252.25 514.85,256.2 L513.1,264.85 C512.45,267.25 511.75,269.15 511,270.55 510.25,272 509.35,273.05 508.25,273.75 507.15,274.45 505.9,274.8 504.45,274.8 L494.75,274.8 500.7,237.25 509.45,237.25z"/>
    </g>
  </g>
</svg>