<?xml version="1.0" encoding="utf-8"?>
<!-- Generator: flash2svg, http://dissentgraphics.com/tools/flash2svg -->
<svg xmlns:xlink="http://www.w3.org/1999/xlink" id="Apps-SplashtopStreamer" image-rendering="optimizeSpeed" baseProfile="basic" version="1.1" style="background-color:#ffffff" x="0px" y="0px" width="1024px" height="1024px" viewBox="0 0 1024 1024" enable-background="new 0 0 1024 1024" xmlns="http://www.w3.org/2000/svg">
  <defs transform="matrix(1 0 0 1 0 0) "/>
  <g id="background-circle-shadow">
    <g id="shape">
      <path id="path" fill="#000000" fill-opacity="0.09803921568627451" d="M969.65,351.3 Q961.05,330.45 950.25,310.45 C946.2,302.9 941.9,295.4 937.35,288.05 917.8,256.35 893.95,226.4 865.8,198.25 773.65,106.1 662.35,60 532,60 401.65,60 290.4,106.1 198.25,198.25 106.1,290.4 60,401.65 60,532 60,662.35 106.1,773.65 198.25,865.8 290.4,957.95 401.65,1004 532,1004 662.35,1004 773.65,957.95 865.8,865.8 916.55,815 953.35,758.4 976.15,696.05 994.7,645.2 1004,590.55 1004,532 1004,487.1 998.55,444.45 987.6,404.05 986.35,399.5 985.05,394.95 983.7,390.45 979.6,377.15 974.9,364.1 969.65,351.3z"/>
    </g>
  </g>
  <g id="background-circle">
    <g id="shape2">
      <path id="path1" fill="#9365B8" fill-opacity="1" d="M969.75,392.05 C968.65,387.7 967.4,383.05 966.1,378.45 965.1,375.05 964.1,371.6 962.95,367.95 961.35,362.8 959.55,357.45 957.65,352.1 951.2,333.85 943.5,316.05 934.5,298.45 930.7,291.05 926.55,283.5 922.2,276.05 901.9,241.55 876.4,208.85 845.85,178.3 773.25,105.7 688.7,61.65 592.2,46.25 575.95,43.65 559.4,41.85 542.15,40.9 532.45,40.35 522.3,40.05 512.05,40.05 502.7,40.05 493.45,40.3 484.15,40.8 365.8,46.9 263.85,92.75 178.3,178.3 Q40.05,316.55 40.05,512.05 C40.05,642.4 86.15,753.7 178.3,845.85 235,902.5 298.85,941.75 369.4,963.4 406.15,974.65 444.2,981.25 484.15,983.35 484.3,983.35 484.4,983.35 484.55,983.35 493.05,983.8 501.15,984.05 509.05,984.05 510.25,984.05 511.15,984.05 512.05,984.05 522.35,984.05 532.55,983.75 542.15,983.25 544.65,983.1 546.9,982.95 549.1,982.8 569.3,981.35 589,978.75 607.8,975.1 615.75,973.55 623.6,971.8 631.2,969.95 712,949.65 783.35,908.35 845.85,845.85 894.45,797.25 930.25,743.35 953.2,684.05 971.65,636.4 981.85,585.25 983.75,530.55 983.95,524.5 984.05,518.3 984.05,512.05 984.05,511.4 984.05,510.7 984.05,510.05 984.05,509.7 984.05,509.4 984.05,509.05 983.85,468.4 979.1,429.55 969.75,392.05z"/>
    </g>
  </g>
  <g id="object-shadow">
    <g id="shape4">
      <path id="path2" fill="#000000" fill-opacity="0.2" d="M805.35,336.05 L749.575,355.475 572.15,178.05 610.825,494.35 269.15,750.95 502.15,983.95 C504.6,984.05 506.85,984.05 509.05,984.05 Q510.55,984.05 512.05,984.05 C522.35,984.05 532.55,983.75 542.15,983.25 544.65,983.1 546.9,982.95 549.1,982.8 569.3,981.35 589,978.75 607.8,975.1 615.75,973.55 623.6,971.8 631.2,969.95 712,949.65 783.35,908.35 845.85,845.85 894.45,797.25 930.25,743.35 953.2,684.05 971.65,636.4 981.85,585.25 983.75,530.55 983.9,525.4 984.05,520.1 984.05,514.75 L805.35,336.05z"/>
    </g>
  </g>
  <g id="object">
    <g id="shape6">
      <path id="path3" fill="#FFFFFF" fill-opacity="1" d="M765.4,324.5 C754.8,327.4 746.7,333.65 741.1,343.2 737.9,348.7 736.15,354.4 735.75,360.3 L726.55,434.65 C726.3,435.85 724.9,444.7 725.15,445.6 725.4,446.65 725.95,447.35 726.9,447.85 727.8,448.35 728.7,448.55 729.75,448.3 730.7,448 739.65,440.75 740.45,440.1 L797.65,396.8 797.85,396.7 C802.95,393.4 807.1,388.85 810.4,383.2 815.95,373.65 817.35,363.55 814.45,352.85 Q810.15,336.85 795.8,328.55 C786.25,323 776.1,321.65 765.4,324.5z"/>
    </g>
  </g>
  <g id="Calque.__201">
    <g id="shape8">
      <path id="path4" fill="#FFFFFF" fill-opacity="1" d="M782.85,582.65 C756.1,563.95 718.55,522.15 670.25,457.3 621.95,392.4 594.3,309.45 587.3,208.5 586.75,206.35 586.1,204.2 585.35,202.05 581.2,190.05 574.25,179.2 564.55,169.5 547.6,152.55 527.1,144.05 503.05,144.05 479,144.05 458.5,152.55 441.5,169.5 424.55,186.5 416.05,207 416.05,231.05 416.05,238.15 416.8,244.95 418.2,251.05 421.8,266.9 429.55,280.6 441.5,292.55 L444.05,295 C446.3,297.15 448.65,299.1 451.05,300.95 L574.3,405.25 C574.9,405.7 575.5,406.2 576.05,406.75 L578.3,408.85 C586.8,417.35 591.05,427.6 591.05,439.6 591.05,446.9 589.45,453.55 586.3,459.6 584.3,463.45 581.6,467.05 578.3,470.35 572.4,476.25 565.65,480.1 558.05,481.9 554.7,482.7 551.2,483.1 547.55,483.1 545.05,483.1 542.6,482.9 540.25,482.55 L384.05,488.15 378.05,488.05 C335.5,488.05 299.2,503.1 269.15,533.15 239.1,563.2 224.05,599.5 224.05,642.05 224.05,649.05 224.45,655.85 225.2,662.05 229.4,696.35 244.05,725.85 269.15,750.95 299.2,779.7 335.5,794.05 378.05,794.05 420.6,794.05 456.9,779 486.95,748.95 505.5,731.7 518.35,711.45 525.45,688.15 572,557.5 653.55,556.7 770.05,685.85 Q781.85,695.05 797.55,695.05 C810.1,695.05 820.85,690.6 829.7,681.7 833.45,677.95 836.4,673.9 838.6,669.55 841.6,663.45 843.05,656.8 843.05,649.55 843.05,637 838.6,626.25 829.7,617.35 825.25,612.9 809.6,601.3 782.85,582.65z"/>
    </g>
  </g>
</svg>