<?xml version="1.0" encoding="utf-8"?>
<!-- Generator: flash2svg, http://dissentgraphics.com/tools/flash2svg -->
<svg id="Apps-Postman" image-rendering="optimizeSpeed" baseProfile="basic" version="1.1" style="background-color:#FFFFFF" x="0px" y="0px" width="1024px" height="1024px" viewBox="0 0 1024 1024" enable-background="new 0 0 1024 1024" xmlns="http://www.w3.org/2000/svg" xmlns:xlink="http://www.w3.org/1999/xlink">
  <defs transform="matrix(1 0 0 1 0 0) "/>
  <g id="background-circle-shadow">
    <g id="shape">
      <path id="path" fill="#000000" fill-opacity="0.09803921568627451" d="M969.6,351.25 Q961,330.4 950.2,310.4 C946.15,302.85 941.85,295.35 937.3,288 917.75,256.3 893.9,226.35 865.75,198.2 773.6,106.05 662.3,59.95 531.95,59.95 401.6,59.95 290.35,106.05 198.2,198.2 106.05,290.35 59.95,401.6 59.95,531.95 59.95,662.3 106.05,773.6 198.2,865.75 290.35,957.9 401.6,1003.95 531.95,1003.95 662.3,1003.95 773.6,957.9 865.75,865.75 916.5,814.95 953.3,758.35 976.1,696 994.65,645.15 1003.95,590.5 1003.95,531.95 1003.95,487.05 998.5,444.4 987.55,404 986.3,399.45 985,394.9 983.65,390.4 979.55,377.1 974.85,364.05 969.6,351.25z"/>
    </g>
  </g>
  <g id="background-circle">
    <g id="shape2">
      <path id="path1" fill="#D96024" fill-opacity="1" d="M966.05,378.4 C965.05,375 964.05,371.55 962.9,367.9 961.3,362.75 959.5,357.4 957.6,352.05 951.15,333.8 943.45,316 934.45,298.4 930.65,291 926.5,283.45 922.15,276 901.85,241.5 876.35,208.8 845.8,178.25 773.2,105.65 688.65,61.6 592.15,46.2 575.9,43.6 559.35,41.8 542.1,40.85 532.4,40.3 522.25,40 512,40 502.65,40 493.4,40.25 484.1,40.75 365.75,46.85 263.8,92.7 178.25,178.25 Q40,316.5 40,512 C40,642.35 86.1,753.65 178.25,845.8 234.95,902.45 298.8,941.7 369.35,963.35 406.1,974.6 444.15,981.2 484.1,983.3 484.25,983.3 484.35,983.3 484.5,983.3 493,983.75 501.1,984 509,984 510.2,984 511.1,984 512,984 522.3,984 532.5,983.7 542.1,983.2 544.6,983.05 546.85,982.9 549.05,982.75 569.25,981.3 588.95,978.7 607.75,975.05 615.7,973.5 623.55,971.75 631.15,969.9 711.95,949.6 783.3,908.3 845.8,845.8 894.4,797.2 930.2,743.3 953.15,684 971.6,636.35 981.8,585.2 983.7,530.5 983.9,524.45 984,518.25 984,512 984,511.35 984,510.65 984,510 984,509.65 984,509.35 984,509 983.8,468.35 979.05,429.5 969.7,392 968.6,387.65 967.35,383 966.05,378.4z"/>
    </g>
  </g>
  <g id="Calque.__203">
    <g id="shape4">
      <path id="path2" fill="#FFFFFF" fill-opacity="0.2980392156862745" d="M770.25,588.55 C761.95,582.9 752.75,580.1 742.65,580.1 728.95,580.1 717.3,584.9 707.7,594.55 698.1,604.2 693.3,615.85 693.3,629.45 L693.45,633.6 C685.95,637.05 679.95,642.3 675.45,649.35 670.85,656.4 668.55,664.15 668.55,672.65 668.55,684.5 672.8,694.7 681.2,703.2 689.7,711.6 699.9,715.85 711.75,715.85 L816.6,715.85 C826.85,715.85 835.6,712.2 842.85,704.9 850.05,697.75 853.6,689 853.6,678.8 853.6,670.1 850.9,662.4 845.55,655.7 840.15,649 833.3,644.7 825,642.8 827.7,638.75 829,634.3 829,629.45 829,622.65 826.6,616.85 821.8,612 Q814.5,604.75 804.3,604.75 C798.1,604.75 792.75,606.7 788.25,610.7 784.5,601.6 778.5,594.2 770.25,588.55z M522.9,152.2 C515.45,144.85 506.65,141.2 496.3,141.2 486.9,141.2 478.75,144.15 471.9,150.25 466.2,136.4 457.1,125.15 444.55,116.55 431.95,108 417.95,103.75 402.6,103.75 381.8,103.75 364.1,111.05 349.5,125.7 334.95,140.35 327.65,158.05 327.65,178.7 L327.85,185 C316.45,190.25 307.35,198.25 300.5,208.95 293.55,219.65 290.05,231.45 290.05,244.35 290.05,262.35 296.5,277.85 309.25,290.8 322.15,303.55 337.65,310 355.65,310 L515,310 C530.55,310 543.85,304.45 554.85,293.35 565.8,282.5 571.2,269.2 571.2,253.7 571.2,240.5 567.1,228.8 559,218.6 550.75,208.4 540.35,201.9 527.75,199 531.85,192.85 533.85,186.1 533.85,178.7 533.85,168.4 530.2,159.55 522.9,152.2z M290.2,434.55 C290.2,429.65 288.45,425.45 285,421.95 281.45,418.4 277.25,416.7 272.3,416.7 267.85,416.7 263.95,418.1 260.7,421 258,414.4 253.65,409.05 247.7,404.95 241.7,400.85 235.05,398.85 227.75,398.85 217.8,398.85 209.4,402.3 202.45,409.3 195.5,416.3 192.05,424.7 192.05,434.55 L192.15,437.55 C186.7,440.05 182.35,443.85 179.1,448.95 175.8,454.05 174.1,459.65 174.1,465.8 174.1,474.35 177.2,481.75 183.25,487.9 189.4,494 196.8,497.05 205.35,497.05 L281.2,497.05 C288.65,497.05 294.95,494.4 300.2,489.15 305.4,483.95 308,477.65 308,470.25 308,463.95 306.05,458.4 302.15,453.55 298.25,448.7 293.3,445.6 287.3,444.2 289.25,441.3 290.2,438.05 290.2,434.55z"/>
    </g>
  </g>
  <g id="background-circle1">
    <g id="shape10">
      <path id="path7" fill="#000000" fill-opacity="0.2" d="M983.7,530.5 C983.75,528.65 983.8,526.8 983.85,524.85 L769,310 C588.95,480.4 365.05,623.75 97.3,740 118.55,777.85 145.5,813.05 178.25,845.8 234.95,902.45 298.8,941.7 369.35,963.35 406.1,974.6 444.15,981.2 484.1,983.3 484.25,983.3 484.35,983.3 484.5,983.3 493,983.75 501.1,984 509,984 Q510.5,984 512,984 C522.3,984 532.5,983.7 542.1,983.2 544.6,983.05 546.85,982.9 549.05,982.75 569.25,981.3 588.95,978.7 607.75,975.05 615.7,973.5 623.55,971.75 631.15,969.9 711.95,949.6 783.3,908.3 845.8,845.8 894.4,797.2 930.2,743.3 953.15,684 971.6,636.35 981.8,585.2 983.7,530.5z"/>
    </g>
  </g>
  <mask id="object">
    <g id="g">
      <g id="shape12">
        <path id="path8" fill="#FFFFFF" fill-opacity="1" d="M966.05,378.4 C965.05,375 964.05,371.55 962.9,367.9 961.3,362.75 959.5,357.4 957.6,352.05 951.15,333.8 943.45,316 934.45,298.4 930.65,291 926.5,283.45 922.15,276 901.85,241.5 876.35,208.8 845.8,178.25 773.2,105.65 688.65,61.6 592.15,46.2 575.9,43.6 559.35,41.8 542.1,40.85 532.4,40.3 522.25,40 512,40 502.65,40 493.4,40.25 484.1,40.75 365.75,46.85 263.8,92.7 178.25,178.25 Q40,316.5 40,512 C40,642.35 86.1,753.65 178.25,845.8 234.95,902.45 298.8,941.7 369.35,963.35 406.1,974.6 444.15,981.2 484.1,983.3 484.25,983.3 484.35,983.3 484.5,983.3 493,983.75 501.1,984 509,984 510.2,984 511.1,984 512,984 522.3,984 532.5,983.7 542.1,983.2 544.6,983.05 546.85,982.9 549.05,982.75 569.25,981.3 588.95,978.7 607.75,975.05 615.7,973.5 623.55,971.75 631.15,969.9 711.95,949.6 783.3,908.3 845.8,845.8 894.4,797.2 930.2,743.3 953.15,684 971.6,636.35 981.8,585.2 983.7,530.5 983.9,524.45 984,518.25 984,512 984,511.35 984,510.65 984,510 984,509.65 984,509.35 984,509 983.8,468.35 979.05,429.5 969.7,392 968.6,387.65 967.35,383 966.05,378.4z"/>
      </g>
    </g>
  </mask>
  <g id="masked" mask="url(#object)">
    <g id="object-shadow">
      <g id="Symbole.__204_1" overflow="visible">
        <g id="Calque.__207">
          <g id="shape30">
            <path id="path21" fill="#989898" fill-opacity="1" d="M609.075,691.263 C611.939,688.399 614.697,685.5 617.313,682.53 644.041,652.054 657.405,616.063 657.404,574.556 657.404,565.293 656.732,556.348 655.353,547.403 L360.178,842.585 408.685,891.092 600.095,699.678 C603.136,696.991 606.141,694.198 609.075,691.263z"/>
            <path id="path22" fill="#333333" fill-opacity="1" d="M609.073,457.92 C608.825,457.673 608.613,457.461 608.366,457.213 L291.588,773.997 360.178,842.585 655.353,547.403 Q647.504,496.351 609.073,457.92z"/>
            <path id="path23" fill="#E39518" fill-opacity="1" d="M375.73,457.923 C374.704,458.948 373.644,460.009 372.654,461.069 L175.658,658.07 289.467,771.876 291.588,773.997 608.366,457.213 C576.263,425.465 537.62,409.591 492.401,409.556 448.525,409.592 410.872,424.547 379.336,454.458 379.159,454.564 379.018,454.705 378.841,454.882 377.78,455.872 376.755,456.897 375.73,457.923z"/>
            <path id="path24" fill="#CCCCCC" fill-opacity="1" d="M291.588,773.997 L223,842.587 360.178,842.585 291.588,773.997z"/>
            <path id="path25" fill="#CCCA27" fill-opacity="1" d="M175.658,658.07 L175.623,658.034 97.135,736.523 289.467,771.876 175.658,658.07z"/>
            <path id="path26" fill="#666666" fill-opacity="1" d="M223,842.587 L198.959,866.628 316.056,983.723 408.685,891.092 360.178,842.585 223,842.587z"/>
          </g>
        </g>
      </g>
    </g>
  </g>
  <g id="Calque.__204">
    <g id="Symbole.__206_1" overflow="visible">
      <g id="Calque.__208">
        <g id="shape31">
          <path id="path27" fill="#333333" fill-opacity="1" d="M769.1,308.35 C768.85,308.1 768.6,307.85 768.35,307.6 L701.45,374.55 C703.1,375.5 704.7,376.75 706.15,378.2 710.65,382.7 712.9,388.15 712.9,394.5 712.9,400.85 710.65,406.3 706.15,410.75 705.15,411.75 704.1,412.65 703.05,413.4 L762.5,472.85 C764.75,470.9 767,468.9 769.15,466.75 791,444.85 801.95,418.45 801.95,387.55 801.9,356.6 790.95,330.2 769.1,308.35z M769.35,341.95 Q773.7,343.4 775.85,347.5 C782,359.6 785.05,372.95 785.1,387.55 785.05,398.2 783.4,408.2 780.15,417.5 779.1,420.35 777.2,422.5 774.45,423.85 771.65,425.2 768.8,425.35 765.9,424.3 763,423.25 760.9,421.35 759.55,418.6 758.2,415.8 758,412.95 759.05,410.05 761.5,403.05 762.75,395.55 762.75,387.55 762.75,376.6 760.45,366.65 755.9,357.6 754.5,354.85 754.3,352 755.25,349.1 756.2,346.15 758.1,344 760.85,342.6 763.6,341.2 766.4,341 769.35,341.95z"/>
          <path id="path28" fill="#FFFFFF" fill-opacity="1" d="M769.35,341.95 C766.4,341 763.6,341.2 760.85,342.6 758.1,344 756.2,346.15 755.25,349.1 754.3,352 754.5,354.85 755.9,357.6 760.45,366.65 762.75,376.6 762.75,387.55 762.75,395.55 761.5,403.05 759.05,410.05 758,412.95 758.2,415.8 759.55,418.6 760.9,421.35 763,423.25 765.9,424.3 768.8,425.35 771.65,425.2 774.45,423.85 777.2,422.5 779.1,420.35 780.15,417.5 783.4,408.2 785.05,398.2 785.1,387.55 785.05,372.95 782,359.6 775.85,347.5 Q773.7,343.4 769.35,341.95z"/>
          <path id="path29" fill="#989898" fill-opacity="1" d="M577.9,387.55 C577.95,418.45 588.9,444.85 610.75,466.75 632.6,488.6 659,499.55 689.9,499.55 717.75,499.55 741.95,490.65 762.5,472.85 L703.05,413.4 C699.25,416.15 694.85,417.5 689.9,417.5 683.55,417.5 678.1,415.25 673.6,410.75 669.15,406.3 666.9,400.85 666.9,394.5 666.9,388.15 669.15,382.7 673.6,378.2 678.1,373.75 683.55,371.5 689.9,371.5 694.15,371.5 698,372.5 701.45,374.55 L768.35,307.6 C746.65,286.2 720.5,275.5 689.95,275.55 659,275.5 632.6,286.45 610.75,308.35 588.85,330.2 577.9,356.6 577.9,387.55z"/>
          <path id="path30" fill="#CCCCCC" fill-opacity="1" d="M706.15,378.2 C704.7,376.75 703.1,375.5 701.45,374.55 698,372.5 694.15,371.5 689.9,371.5 683.55,371.5 678.1,373.75 673.6,378.2 669.15,382.7 666.9,388.15 666.9,394.5 666.9,400.85 669.15,406.3 673.6,410.75 678.1,415.25 683.55,417.5 689.9,417.5 694.85,417.5 699.25,416.15 703.05,413.4 704.1,412.65 705.15,411.75 706.15,410.75 710.65,406.3 712.9,400.85 712.9,394.5 712.9,388.15 710.65,382.7 706.15,378.2z"/>
        </g>
      </g>
    </g>
  </g>
</svg>