<?xml version="1.0" encoding="utf-8"?>
<!-- Generator: flash2svg, http://dissentgraphics.com/tools/flash2svg -->
<svg xmlns:xlink="http://www.w3.org/1999/xlink" id="Logic-Pro-X" image-rendering="optimizeSpeed" baseProfile="basic" version="1.1" style="background-color:#ffffff" x="0px" y="0px" width="1024px" height="1024px" viewBox="0 0 1024 1024" enable-background="new 0 0 1024 1024" xmlns="http://www.w3.org/2000/svg">
  <defs transform="matrix(1 0 0 1 0 0) "/>
  <g id="shadow">
    <g id="shape">
      <path id="path" fill="#000000" fill-opacity="0.09803921568627451" d="M969.65,351.3 Q961.05,330.45 950.25,310.45 C946.2,302.9 941.9,295.4 937.35,288.05 917.8,256.35 893.95,226.4 865.8,198.25 773.65,106.1 662.35,60 532,60 401.65,60 290.4,106.1 198.25,198.25 106.1,290.4 60,401.65 60,532 60,662.35 106.1,773.65 198.25,865.8 290.4,957.95 401.65,1004 532,1004 662.35,1004 773.65,957.95 865.8,865.8 916.55,815 953.35,758.4 976.15,696.05 994.7,645.2 1004,590.55 1004,532 1004,487.1 998.55,444.45 987.6,404.05 986.35,399.5 985.05,394.95 983.7,390.45 979.6,377.15 974.9,364.1 969.65,351.3z"/>
    </g>
  </g>
  <g id="Symbole.__202">
    <g id="shape2">
      <path id="path1" fill="#C6CCDB" fill-opacity="1" d="M845.85,178.3 C834.95,167.4 823.75,157.15 812.05,147.3 791.95,130.4 770.7,115.3 748.5,102.2 730.35,91.5 711.6,82.15 692.05,74.15 660.5,61.15 627.15,51.85 592.2,46.25 585.6,45.2 578.9,44.25 572.05,43.5 566,42.75 559.85,42.2 553.65,41.7 550.45,41.45 547.25,41.2 544.05,41 543.4,40.95 542.8,40.95 542.15,40.9 532.45,40.35 522.3,40.05 512.05,40.05 502.7,40.05 493.45,40.3 484.15,40.8 481.8,40.9 479.45,41.05 476.85,41.2 474.7,41.35 472.55,41.5 470.45,41.7 464.3,42.2 458.15,42.8 452.05,43.5 409.9,48.3 369.9,58.55 332.05,74.15 312.7,82.05 293.9,91.45 275.65,102.2 253.6,115.2 232.4,130.25 212.05,147.35 200.9,156.7 189.95,166.7 179.3,177.3 L230.8,228.8 C308.55,151.55 402.3,112.9 512.05,112.9 622.3,112.9 716.35,151.85 794.3,229.8 872.25,307.75 911.2,401.8 911.2,512.05 911.2,621.8 872.55,715.55 795.3,793.3 L846.85,844.85 C854.2,837.45 861.3,829.9 868.1,822.2 893.65,793.35 914.95,762.8 932.05,730.4 936.95,721.25 941.5,711.8 945.7,702.2 948.35,696.3 950.85,690.2 953.2,684.05 965.7,651.75 974.4,617.85 979.4,582.2 981.65,565.45 983.15,548.2 983.75,530.55 983.95,524.5 984.05,518.3 984.05,512.05 984.05,511.4 984.05,510.7 984.05,510.05 984.05,509.7 984.05,509.4 984.05,509.05 983.95,493.25 983.2,477.7 981.75,462.2 979.45,438.4 975.45,414.95 969.75,392.05 968.65,387.7 967.4,383.05 966.1,378.45 963.6,369.7 960.75,360.85 957.65,352.1 956.5,348.9 955.35,345.7 954,342.2 948.45,327.6 941.9,312.95 934.5,298.45 933.75,297 933,295.55 932.05,293.75 929.1,288.15 925.7,282.05 922.2,276.05 911.4,257.65 899.1,239.75 885.1,222.2 873.25,207.3 860.1,192.55 845.85,178.3z"/>
      <path id="path5" fill="#8F949F" fill-opacity="1" d="M179.3,177.3 C178.95,177.65 178.65,177.95 178.3,178.3 176.6,180 174.9,181.75 173.35,183.35 160.95,196.05 149.6,208.95 139.05,222.2 120.85,245.05 105.15,268.95 92.05,293.8 83.7,309.6 76.35,325.85 70.1,342.2 55.55,380.35 46.35,420.25 42.4,462.2 Q40.05,486.65 40.05,512.05 C40.05,536.2 41.65,559.75 44.75,582.2 50.6,624.85 61.85,664.75 78.45,702.2 82.7,711.95 87.2,721.2 92.05,730.35 109.3,762.95 130.75,793.65 156.05,822.2 163.35,830.45 170.65,838.2 178.3,845.85 189.35,856.9 200.7,867.3 212.05,876.85 244.35,903.85 278.4,925.65 314.2,942.2 320.1,944.95 326.05,947.55 332.05,950 370.05,965.6 410,975.8 452.05,980.65 458.2,981.35 464.3,981.95 470.45,982.45 472.65,982.6 474.75,982.75 476.85,982.9 479.45,983.1 481.8,983.25 484.15,983.35 484.3,983.35 484.4,983.35 484.55,983.35 493.05,983.8 501.15,984.05 509.05,984.05 510.25,984.05 511.15,984.05 512.05,984.05 522.35,984.05 532.55,983.75 542.15,983.25 542.8,983.2 543.4,983.15 544.05,983.15 545.75,983 547.45,982.9 549.1,982.8 550.75,982.7 552.4,982.55 553.65,982.45 560.05,981.95 566.35,981.3 572.05,980.65 584.7,979.15 596.4,977.3 607.8,975.1 615.75,973.55 623.6,971.8 631.2,969.95 652.1,964.7 672.4,958.05 692.05,950.05 698.2,947.5 704.3,944.85 709.95,942.2 746.35,925.25 780.3,903.45 812.05,876.9 821.85,868.65 831.4,860 840.85,850.85 842.45,849.25 844.15,847.55 845.85,845.85 846.2,845.5 846.5,845.2 846.85,844.85 L795.3,793.3 C794.95,793.65 794.65,793.95 794.3,794.3 792.65,795.95 790.95,797.6 789.25,799.25 712.3,873.9 619.9,911.2 512.05,911.2 401.8,911.2 307.75,872.25 229.8,794.3 151.85,716.35 112.9,622.3 112.9,512.05 112.9,404.2 150.2,311.8 224.85,234.85 226.5,233.15 228.15,231.45 229.8,229.8 230.15,229.45 230.45,229.15 230.8,228.8 L179.3,177.3z"/>
    </g>
    <g id="Symbole.__205_1" overflow="visible">
      <g id="Calque.__205">
        <g id="shape61">
          <path id="path46" fill="#292A2D" fill-opacity="1" d="M794.25,229.75 C716.3,151.8 622.25,112.85 512,112.85 402.25,112.85 308.5,151.5 230.75,228.75 230.4,229.1 230.1,229.4 229.75,229.75 228.1,231.4 226.45,233.1 224.8,234.8 150.15,311.75 112.85,404.15 112.85,512 112.85,622.25 151.8,716.3 229.75,794.25 307.7,872.2 401.75,911.15 512,911.15 619.85,911.15 712.25,873.85 789.2,799.2 790.9,797.55 792.6,795.9 794.25,794.25 794.6,793.9 794.9,793.6 795.25,793.25 872.5,715.5 911.15,621.75 911.15,512 Q911.15,346.65 794.25,229.75z"/>
        </g>
      </g>
    </g>
  </g>
  <g id="Symbole.__203">
    <g id="shape9">
      <path id="path6" fill="#C6CCDB" fill-opacity="1" d="M845.85,178.3 C834.95,167.4 823.75,157.15 812.05,147.3 791.95,130.4 770.7,115.3 748.5,102.2 730.35,91.5 711.6,82.15 692.05,74.15 660.5,61.15 627.15,51.85 592.2,46.25 585.6,45.2 578.9,44.25 572.05,43.5 566,42.75 559.85,42.2 553.65,41.7 550.45,41.45 547.25,41.2 544.05,41 543.4,40.95 542.8,40.95 542.15,40.9 532.45,40.35 522.3,40.05 512.05,40.05 502.7,40.05 493.45,40.3 484.15,40.8 481.8,40.9 479.45,41.05 476.85,41.2 474.7,41.35 472.55,41.5 470.45,41.7 464.3,42.2 458.15,42.8 452.05,43.5 409.9,48.3 369.9,58.55 332.05,74.15 312.7,82.05 293.9,91.45 275.65,102.2 253.6,115.2 232.4,130.25 212.05,147.35 200.9,156.7 189.95,166.7 179.3,177.3 L230.8,228.8 C308.55,151.55 402.3,112.9 512.05,112.9 622.3,112.9 716.35,151.85 794.3,229.8 859.85,295.35 897.8,372.3 908.2,460.35 910.2,477.35 911.2,494.5 911.2,512.05 911.2,621.8 872.55,715.55 795.3,793.3 L846.85,844.85 C854.2,837.45 861.3,829.9 868.1,822.2 893.65,793.35 914.95,762.8 932.05,730.4 936.95,721.25 941.5,711.8 945.7,702.2 948.35,696.3 950.85,690.2 953.2,684.05 965.7,651.75 974.4,617.85 979.4,582.2 981.65,565.45 983.15,548.2 983.75,530.55 983.95,524.5 984.05,518.3 984.05,512.05 984.05,511.4 984.05,510.7 984.05,510.05 984.05,509.7 984.05,509.4 984.05,509.05 983.95,493.25 983.2,477.7 981.75,462.2 979.45,438.4 975.45,414.95 969.75,392.05 968.65,387.7 967.4,383.05 966.1,378.45 963.6,369.7 960.75,360.85 957.65,352.1 956.5,348.9 955.35,345.7 954,342.2 948.45,327.6 941.9,312.95 934.5,298.45 933.75,297 933,295.55 932.05,293.75 929.1,288.15 925.7,282.05 922.2,276.05 911.4,257.65 899.1,239.75 885.1,222.2 873.25,207.3 860.1,192.55 845.85,178.3z"/>
      <path id="path7" fill="#8F949F" fill-opacity="1" d="M179.3,177.3 C178.95,177.65 178.65,177.95 178.3,178.3 176.6,180 174.9,181.75 173.35,183.35 160.95,196.05 149.6,208.95 139.05,222.2 120.85,245.05 105.15,268.95 92.05,293.8 83.7,309.6 76.35,325.85 70.1,342.2 55.55,380.35 46.35,420.25 42.4,462.2 Q40.05,486.65 40.05,512.05 C40.05,536.2 41.65,559.75 44.75,582.2 50.6,624.85 61.85,664.75 78.45,702.2 82.7,711.95 87.2,721.2 92.05,730.35 109.3,762.95 130.75,793.65 156.05,822.2 163.35,830.45 170.65,838.2 178.3,845.85 189.35,856.9 200.7,867.3 212.05,876.85 244.35,903.85 278.4,925.65 314.2,942.2 320.1,944.95 326.05,947.55 332.05,950 370.05,965.6 410,975.8 452.05,980.65 458.2,981.35 464.3,981.95 470.45,982.45 472.65,982.6 474.75,982.75 476.85,982.9 479.45,983.1 481.8,983.25 484.15,983.35 484.3,983.35 484.4,983.35 484.55,983.35 493.05,983.8 501.15,984.05 509.05,984.05 510.25,984.05 511.15,984.05 512.05,984.05 522.35,984.05 532.55,983.75 542.15,983.25 542.8,983.2 543.4,983.15 544.05,983.15 545.75,983 547.45,982.9 549.1,982.8 550.75,982.7 552.4,982.55 553.65,982.45 560.05,981.95 566.35,981.3 572.05,980.65 584.7,979.15 596.4,977.3 607.8,975.1 615.75,973.55 623.6,971.8 631.2,969.95 652.1,964.7 672.4,958.05 692.05,950.05 698.2,947.5 704.3,944.85 709.95,942.2 746.35,925.25 780.3,903.45 812.05,876.9 821.85,868.65 831.4,860 840.85,850.85 842.45,849.25 844.15,847.55 845.85,845.85 846.2,845.5 846.5,845.2 846.85,844.85 L795.3,793.3 C794.95,793.65 794.65,793.95 794.3,794.3 792.65,795.95 790.95,797.6 789.25,799.25 712.3,873.9 619.9,911.2 512.05,911.2 503.55,911.2 495.15,910.95 486.5,910.5 387.4,904.95 301.75,866.25 229.8,794.3 151.85,716.35 112.9,622.3 112.9,512.05 112.9,404.2 150.2,311.8 224.85,234.85 226.5,233.15 228.15,231.45 229.8,229.8 230.15,229.45 230.45,229.15 230.8,228.8 L179.3,177.3z"/>
      <path id="path8" fill="#000000" fill-opacity="0.2" d="M911.2,512.05 C911.2,494.5 910.2,477.35 908.2,460.35 L698.05,250.2 C497.15,299.55 370.1,417.5 316.85,604.05 L451.9,739.1 420.05,844.05 486.475,910.475 L486.5,910.5 C495.15,910.95 503.55,911.2 512.05,911.2 619.9,911.2 712.3,873.9 789.25,799.25 790.95,797.6 792.65,795.95 794.3,794.3 794.65,793.95 794.95,793.65 795.3,793.3 872.55,715.55 911.2,621.8 911.2,512.05z"/>
    </g>
  </g>
  <g id="inner">
    <g id="shape17">
      <path id="path12" fill="#8E94A0" fill-opacity="1" d="M757.6,343.9 C754.05,333.85 749.8,324.05 744.85,314.35 742.75,310.25 740.45,306.1 738.05,302 726.9,283 712.85,264.95 696,248.15 656,208.15 609.4,183.85 556.2,175.35 547.25,173.95 538.15,172.95 528.65,172.4 523.3,172.1 517.7,171.95 512.05,171.95 506.9,171.95 501.8,172.1 496.7,172.35 Q398.85,177.45 328.15,248.15 C298.3,278 277.25,311.45 264.95,348.5 259.55,364.75 255.85,381.75 253.8,399.4 252.55,410.05 251.95,420.9 251.95,432.05 251.95,503.9 277.35,565.2 328.15,616 375.3,663.1 431.45,688.35 496.7,691.75 496.75,691.75 496.8,691.75 496.9,691.75 501.6,692 506.05,692.15 510.4,692.15 511.05,692.15 511.55,692.15 512.05,692.15 517.75,692.15 523.35,692 528.65,691.7 530,691.6 531.25,691.55 532.45,691.45 543.6,690.65 554.45,689.25 564.8,687.2 569.2,686.35 573.5,685.4 577.7,684.4 622.25,673.2 661.55,650.45 696,616 722.75,589.2 742.5,559.5 755.15,526.85 756.5,523.4 757.75,519.95 758.9,516.5 764.45,500.05 768.25,482.9 770.3,465.05 771.15,457.6 771.75,450 772,442.25 772.1,438.9 772.15,435.5 772.15,432.05 772.15,431.7 772.15,431.3 772.15,430.95 772.15,430.75 772.15,430.6 772.15,430.4 772.05,408 769.4,386.6 764.25,365.9 763.65,363.55 762.95,360.95 762.25,358.45 760.9,353.6 759.3,348.75 757.6,343.9z M668.7,275.4 C668.35,275.05 667.95,274.65 667.6,274.3 645.1,252.1 620.2,235.7 592.95,225.05 568.1,215.4 541.3,210.55 512.45,210.55 512.35,210.55 512.2,210.55 512.05,210.55 450.9,210.55 398.65,232.15 355.4,275.4 L355.4,275.45 C352.45,278.4 349.55,281.4 346.8,284.45 325.85,307.5 310.8,333 301.55,360.95 296.95,374.8 293.8,389.2 292.05,404.25 291,413.3 290.5,422.55 290.5,432.05 290.5,432.2 290.5,432.35 290.5,432.45 290.5,438.65 290.7,444.8 291.2,450.8 294.05,489.2 306.05,523.9 327.25,554.9 335.3,566.7 344.7,577.95 355.4,588.7 398.5,631.8 450.5,653.4 511.35,653.55 511.6,653.55 511.85,653.55 512.05,653.55 553.15,653.6 590.15,643.9 623.1,624.4 635.9,616.85 648.1,607.8 659.7,597.3 662.7,594.55 665.7,591.65 668.7,588.7 679.45,577.95 688.85,566.7 696.95,554.9 707.8,538.95 716.3,522 722.35,504.05 727.05,490 730.3,475.4 732.05,460.2 733.1,451.05 733.65,441.65 733.65,432.05 733.65,431.8 733.65,431.6 733.65,431.35 733.55,402.35 728.6,375.35 718.75,350.35 707.95,322.95 691.25,298 668.7,275.45 L668.7,275.4z M697.2,432.7 C697.15,432.25 697.15,431.8 697.15,431.35 696.95,407.1 692.75,384.55 684.55,363.6 675.6,340.75 661.7,319.9 642.95,301.15 642.6,300.8 642.2,300.45 641.85,300.05 623.05,281.55 602.25,267.9 579.45,259.05 558.8,251.05 536.45,247 512.45,246.95 512.35,246.95 512.2,246.95 512.05,246.95 460.95,246.95 417.3,265 381.15,301.15 L381.15,301.2 C378.2,304.15 375.35,307.2 372.65,310.25 355.8,329.15 343.65,349.95 336.1,372.7 332.25,384.25 329.65,396.3 328.2,408.85 327.35,416.4 326.9,424.1 326.9,432.05 326.9,432.2 326.9,432.35 326.9,432.45 326.95,437.6 327.15,442.7 327.55,447.65 L327.55,447.7 C329.95,479.85 339.95,508.8 357.6,534.65 L357.6,534.7 C364.35,544.55 372.2,553.95 381.15,562.95 417.15,598.9 460.55,617 511.35,617.15 511.6,617.15 511.8,617.15 512.05,617.15 546.35,617.2 577.3,609.05 604.85,592.8 615,586.8 624.65,579.7 633.9,571.5 636.95,568.8 640,565.95 642.95,562.95 651.9,553.95 659.8,544.55 666.55,534.65 675.55,521.4 682.6,507.3 687.65,492.25 691.55,480.55 694.25,468.3 695.8,455.55 696.65,448.3 697.1,440.9 697.2,433.35 L697.2,432.7z M663.05,432.05 C663.05,431.8 663.05,431.6 663.05,431.35 663,411.45 659.55,392.95 652.75,375.85 645.4,357.35 634.1,340.5 618.85,325.25 618.5,324.9 618.1,324.5 617.75,324.15 602.4,309.1 585.5,298 566.9,290.8 550.05,284.35 531.95,281.05 512.45,281.05 512.35,281.05 512.2,281.05 512.05,281.05 470.35,281.05 434.75,295.75 405.25,325.25 402.3,328.25 399.45,331.3 396.75,334.4 385.05,347.95 376.25,362.65 370.3,378.55 369.65,380.25 369.05,382 368.5,383.75 365.35,393.1 363.25,402.9 362.1,413.15 361.4,419.3 361.05,425.6 361.05,432.05 361.05,432.2 361.05,432.35 361.05,432.45 361.05,442.75 362,452.7 363.85,462.3 369.35,491.25 383.15,516.75 405.25,538.85 434.55,568.15 469.95,582.9 511.35,583.05 511.6,583.05 511.8,583.05 512.05,583.05 549.55,583.05 582.1,571.15 609.7,547.35 612.85,544.65 615.85,541.8 618.85,538.85 625.55,532.1 631.5,525.1 636.7,517.8 L636.65,517.8 C644.75,506.4 651,494.2 655.35,481.25 657.4,475.1 659.05,468.8 660.3,462.3 661,458.65 661.55,455 662,451.25 662.7,445 663.05,438.6 663.05,432.05z M472.55,392.25 C472.6,392.2 472.7,392.15 472.75,392.1 483.6,381.4 496.7,376.05 512.05,376.05 527.55,376.05 540.75,381.5 551.65,392.4 559.15,399.85 564.05,408.4 566.4,418.05 567.5,422.5 568.05,427.15 568.05,432.05 568.05,434.5 567.9,436.9 567.65,439.25 567.2,443.2 566.35,446.95 565.1,450.6 562.45,458.25 558.1,465.2 551.95,471.4 551.8,471.55 551.7,471.65 551.55,471.75 541.05,482.25 528.4,487.7 513.65,488.05 L512.15,488.05 C512.1,488.05 512.1,488.05 512.05,488.05 L511,488.05 C505.65,488 500.6,487.25 495.75,485.85 487.05,483.25 479.25,478.55 472.4,471.65 465.55,464.8 460.85,457.05 458.35,448.4 456.85,443.25 456.05,437.8 456.05,432.05 456.05,429.7 456.2,427.4 456.45,425.15 456.7,422.7 457.15,420.3 457.7,418 458,416.8 458.35,415.6 458.75,414.4 461.35,406.25 465.9,398.95 472.4,392.4 472.45,392.35 472.5,392.3 472.55,392.25z"/>
      <path id="path13" fill="#C5CBDC" fill-opacity="1" d="M667.6,274.3 C667.95,274.65 668.35,275.05 668.7,275.4 L668.7,275.45 C691.25,298 707.95,322.95 718.75,350.35 728.6,375.35 733.55,402.35 733.65,431.35 733.65,431.6 733.65,431.8 733.65,432.05 733.65,441.65 733.1,451.05 732.05,460.2 730.3,475.4 727.05,490 722.35,504.05 716.3,522 707.8,538.95 696.95,554.9 688.85,566.7 679.45,577.95 668.7,588.7 L680.4,600.4 C691.85,588.9 701.9,576.85 710.6,564.2 722.35,547 731.45,528.75 738,509.4 743.05,494.35 746.55,478.6 748.45,462.25 749.6,452.4 750.15,442.35 750.15,432.05 750.15,431.8 750.15,431.6 750.15,431.35 750.1,400.25 744.8,371.3 734.25,344.4 722.65,314.95 704.7,288.05 680.35,263.75 680,263.35 679.65,263 679.25,262.65 655.1,238.75 628.4,221.1 599.05,209.65 572.35,199.3 543.45,194.05 512.45,194 512.35,194 512.2,194 512.05,194 446.35,194 390.2,217.25 343.75,263.75 L355.4,275.4 C398.65,232.15 450.9,210.55 512.05,210.55 512.2,210.55 512.35,210.55 512.45,210.55 541.3,210.55 568.1,215.4 592.95,225.05 620.2,235.7 645.1,252.1 667.6,274.3z M654.65,289.5 C654.3,289.15 653.9,288.75 653.55,288.4 633.05,268.2 610.4,253.25 585.6,243.65 563,234.9 538.65,230.45 512.45,230.4 512.35,230.4 512.2,230.4 512.05,230.4 456.4,230.4 408.85,250.1 369.5,289.5 L381.15,301.15 C417.3,265 460.95,246.95 512.05,246.95 512.2,246.95 512.35,246.95 512.45,246.95 536.45,247 558.8,251.05 579.45,259.05 602.25,267.9 623.05,281.55 641.85,300.05 642.2,300.45 642.6,300.8 642.95,301.15 661.7,319.9 675.6,340.75 684.55,363.6 692.75,384.55 696.95,407.1 697.15,431.35 697.15,431.8 697.15,432.25 697.2,432.7 L697.2,433.35 C697.1,440.9 696.65,448.3 695.8,455.55 694.25,468.3 691.55,480.55 687.65,492.25 682.6,507.3 675.55,521.4 666.55,534.65 659.8,544.55 651.9,553.95 642.95,562.95 L654.65,574.65 C664.35,564.9 672.9,554.7 680.2,543.95 690.15,529.4 697.85,513.95 703.4,497.6 707.7,484.85 710.65,471.5 712.25,457.65 713.2,449.3 713.7,440.8 713.7,432.05 713.7,431.85 713.7,431.6 713.7,431.35 713.65,405 709.15,380.5 700.15,357.55 690.4,332.8 675.2,310.05 654.65,289.5z M663.05,431.35 C663.05,431.6 663.05,431.8 663.05,432.05 663.05,438.6 662.7,445 662,451.25 661.55,455 661,458.65 660.3,462.3 659.05,468.8 657.4,475.1 655.35,481.25 651,494.2 644.75,506.4 636.65,517.8 L636.7,517.8 C631.5,525.1 625.55,532.1 618.85,538.85 L630.55,550.55 C637.9,543.15 644.45,535.45 650.15,527.4 L650.15,527.35 C659.15,514.6 666.1,501.05 671,486.6 673.3,479.75 675.15,472.65 676.55,465.4 677.3,461.45 677.95,457.4 678.4,453.35 679.2,446.4 679.6,439.3 679.6,432.05 679.6,431.85 679.6,431.6 679.6,431.35 679.5,409.4 675.75,388.95 668.2,369.9 660.1,349.4 647.55,330.55 630.55,313.55 630.15,313.2 629.8,312.85 629.4,312.45 612.4,295.75 593.6,283.4 572.95,275.4 554.3,268.2 534.1,264.55 512.45,264.5 512.35,264.5 512.2,264.5 512.05,264.5 465.8,264.5 426.3,280.85 393.55,313.55 L405.25,325.25 C434.75,295.75 470.35,281.05 512.05,281.05 512.2,281.05 512.35,281.05 512.45,281.05 531.95,281.05 550.05,284.35 566.9,290.8 585.5,298 602.4,309.1 617.75,324.15 618.1,324.5 618.5,324.9 618.85,325.25 634.1,340.5 645.4,357.35 652.75,375.85 659.55,392.95 663,411.45 663.05,431.35z"/>
      <path id="path27" fill="#8F949F" fill-opacity="1" d="M475.25,395.2 C475.2,395.25 475.15,395.3 475.15,395.3 469.2,401.35 465,408.15 462.55,415.7 462.2,416.75 461.85,417.85 461.6,418.95 461.05,421.1 460.65,423.35 460.4,425.65 460.15,427.7 460.05,429.85 460.05,432.05 460.05,437.4 460.75,442.5 462.2,447.25 464.5,455.3 468.85,462.45 475.25,468.85 481.6,475.2 488.8,479.6 496.9,482 501.35,483.3 506.05,484 511.05,484.05 L512.05,484.05 C512.1,484.05 512.1,484.05 512.15,484.05 L513.6,484.05 C527.3,483.7 539.05,478.65 548.85,468.85 548.85,468.8 548.9,468.7 549,468.7 549.05,468.65 549.05,468.6 549.1,468.6 554.8,462.85 558.85,456.4 561.3,449.3 562.45,445.95 563.25,442.4 563.7,438.75 563.95,436.6 564.05,434.35 564.05,432.05 564.05,427.5 563.55,423.15 562.55,419 560.3,410.1 555.75,402.15 548.85,395.25 538.7,385.15 526.45,380.05 512.05,380.05 497.75,380.05 485.55,385.05 475.45,395.05 475.4,395.1 475.3,395.15 475.25,395.2z M530.35,434.55 C530.2,435.9 529.9,437.2 529.45,438.45 528.55,440.9 527.1,443.1 525.1,445.1 523.4,446.8 521.55,448.15 519.45,449.05 517.5,449.9 515.4,450.35 513.1,450.5 L512.15,450.5 C512.1,450.5 512.1,450.5 512.05,450.5 L511.35,450.5 C506.55,450.35 502.45,448.55 499,445.1 495.4,441.5 493.6,437.15 493.6,432.05 493.6,431.3 493.65,430.6 493.75,429.9 493.85,428.75 494.05,427.6 494.4,426.55 494.6,425.9 494.85,425.25 495.1,424.65 495.95,422.6 497.25,420.75 499,419 502.6,415.4 506.95,413.6 512.05,413.6 517.15,413.6 521.5,415.4 525.1,419 528.7,422.6 530.5,426.95 530.5,432.05 530.5,432.9 530.45,433.7 530.35,434.55z"/>
      <path id="path31" fill="#5E6068" fill-opacity="1" d="M393.55,313.55 C390.6,316.55 387.75,319.6 385.05,322.7 371.65,338 361.55,354.7 354.8,372.8 354.1,374.65 353.45,376.5 352.85,378.4 349.4,388.85 347,399.7 345.7,411.05 344.9,417.9 344.5,424.9 344.5,432.05 344.5,432.2 344.5,432.35 344.5,432.45 344.55,443.85 345.6,454.85 347.6,465.4 353.7,497.6 369,526 393.55,550.55 426.1,583.05 465.4,599.45 511.35,599.6 511.6,599.6 511.85,599.6 512.05,599.6 554.1,599.6 590.6,586.1 621.45,559.05 624.5,556.35 627.55,553.5 630.55,550.55 L618.85,538.85 C615.85,541.8 612.85,544.65 609.7,547.35 582.1,571.15 549.55,583.05 512.05,583.05 511.8,583.05 511.6,583.05 511.35,583.05 469.95,582.9 434.55,568.15 405.25,538.85 383.15,516.75 369.35,491.25 363.85,462.3 362,452.7 361.05,442.75 361.05,432.45 361.05,432.35 361.05,432.2 361.05,432.05 361.05,425.6 361.4,419.3 362.1,413.15 363.25,402.9 365.35,393.1 368.5,383.75 369.05,382 369.65,380.25 370.3,378.55 376.25,362.65 385.05,347.95 396.75,334.4 399.45,331.3 402.3,328.25 405.25,325.25 L393.55,313.55z"/>
      <path id="path32" fill="#5E6069" fill-opacity="1" d="M372.65,310.25 C375.35,307.2 378.2,304.15 381.15,301.2 L381.15,301.15 369.5,289.5 C366.5,292.45 363.65,295.45 360.9,298.55 342.25,319.35 328.75,342.3 320.45,367.4 316.25,379.95 313.4,393.1 311.85,406.75 310.9,415 310.4,423.4 310.4,432.05 310.4,432.2 310.4,432.35 310.4,432.45 310.4,438.05 310.65,443.55 311.05,448.95 313.7,484.05 324.65,515.75 344,544 L343.95,543.95 C351.2,554.7 359.75,564.95 369.5,574.65 408.7,613.85 456,633.5 511.35,633.7 511.6,633.7 511.85,633.7 512.05,633.7 549.45,633.65 583.2,624.8 613.25,607.05 624.55,600.35 635.3,592.45 645.6,583.25 648.65,580.5 651.7,577.6 654.65,574.65 L642.95,562.95 C640,565.95 636.95,568.8 633.9,571.5 624.65,579.7 615,586.8 604.85,592.8 577.3,609.05 546.35,617.2 512.05,617.15 511.8,617.15 511.6,617.15 511.35,617.15 460.55,617 417.15,598.9 381.15,562.95 372.2,553.95 364.35,544.55 357.6,534.7 L357.6,534.65 C339.95,508.8 329.95,479.85 327.55,447.7 L327.55,447.65 C327.15,442.7 326.95,437.6 326.9,432.45 326.9,432.35 326.9,432.2 326.9,432.05 326.9,424.1 327.35,416.4 328.2,408.85 329.65,396.3 332.25,384.25 336.1,372.7 343.65,349.95 355.8,329.15 372.65,310.25z M671.4,609 C674.4,606.25 677.4,603.35 680.4,600.4 L668.7,588.7 C665.7,591.65 662.7,594.55 659.7,597.3 648.1,607.8 635.9,616.85 623.1,624.4 590.15,643.9 553.15,653.6 512.05,653.55 511.85,653.55 511.6,653.55 511.35,653.55 450.5,653.4 398.5,631.8 355.4,588.7 344.7,577.95 335.3,566.7 327.25,554.9 306.05,523.9 294.05,489.2 291.2,450.8 290.7,444.8 290.5,438.65 290.5,432.45 290.5,432.35 290.5,432.2 290.5,432.05 290.5,422.55 291,413.3 292.05,404.25 293.8,389.2 296.95,374.8 301.55,360.95 310.8,333 325.85,307.5 346.8,284.45 349.55,281.4 352.45,278.4 355.4,275.45 L355.4,275.4 343.75,263.75 C340.75,266.7 337.9,269.7 335.1,272.75 312.35,297.7 295.9,325.3 285.85,355.65 280.9,370.5 277.5,386 275.65,402.15 274.5,411.9 273.95,421.85 273.95,432.1 L273.95,432.45 C274,439.1 274.25,445.65 274.7,452.05 277.8,493.45 290.8,530.85 313.6,564.2 L313.55,564.2 C322.2,576.85 332.25,588.9 343.75,600.4 390.05,646.7 445.9,669.95 511.35,670.1 511.6,670.1 511.8,670.1 512.05,670.1 556.2,670.1 596.05,659.6 631.5,638.65 645.45,630.45 658.75,620.55 671.4,609z"/>
    </g>
  </g>
  <g id="Symbole.__204">
    <g id="shape44">
      <path id="path35" fill="#8E94A0" fill-opacity="1" d="M420.05,732.05 Q410.05,732.05 410.05,742.05 L410.05,834.05 C410.05,840.7 413.4,844.05 420.05,844.05 L600.05,844.05 488.05,732.05 420.05,732.05z"/>
      <path id="path36" fill="#C6CCDB" fill-opacity="1" d="M614.05,742.05 C614.05,735.4 610.7,732.05 604.05,732.05 L488.05,732.05 600.05,844.05 604.05,844.05 C610.7,844.05 614.05,840.7 614.05,834.05 L614.05,742.05z"/>
    </g>
  </g>
  <g id="Calque.__203">
    <g id="shape48">
      <path id="path37" fill="#5E6068" fill-opacity="1" d="M527.05,819.75 L527.05,818.75 C527.05,816 526.05,813.6 524.1,811.65 522.15,809.7 519.8,808.75 517.05,808.75 L439.05,808.75 C436.3,808.75 433.9,809.7 431.95,811.65 430,813.6 429.05,816 429.05,818.75 L429.05,819.75 C429.05,822.5 430,824.85 431.95,826.8 433.9,828.75 436.3,829.75 439.05,829.75 L517.05,829.75 C519.8,829.75 522.15,828.75 524.1,826.8 526.05,824.85 527.05,822.5 527.05,819.75z M431.95,781.3 C430,783.25 429.05,785.65 429.05,788.4 L429.05,789.4 C429.05,792.15 430,794.5 431.95,796.45 433.9,798.4 436.3,799.4 439.05,799.4 L537.05,799.4 C539.8,799.4 542.15,798.4 544.1,796.45 545.45,795.1 546.35,793.6 546.8,791.8 L546.775,791.775 L533.4,778.4 439.05,778.4 C436.3,778.4 433.9,779.35 431.95,781.3z M429.05,759.05 C429.05,761.8 430,764.15 431.95,766.1 433.9,768.05 436.3,769.05 439.05,769.05 L524.05,769.05 503.05,748.05 439.05,748.05 C436.3,748.05 433.9,749 431.95,750.95 430,752.9 429.05,755.3 429.05,758.05 L429.05,759.05z"/>
      <path id="path40" fill="#8F949F" fill-opacity="1" d="M533.4,778.4 L546.775,791.775 L546.8,791.8 C546.95,791.1 547.05,790.25 547.05,789.4 L547.05,788.4 C547.05,785.65 546.05,783.25 544.1,781.3 542.15,779.35 539.8,778.4 537.05,778.4 L533.4,778.4z M503.05,748.05 L524.05,769.05 557.05,769.05 C559.8,769.05 562.15,768.05 564.1,766.1 566.05,764.15 567.05,761.8 567.05,759.05 L567.05,758.05 C567.05,755.3 566.05,752.9 564.1,750.95 562.15,749 559.8,748.05 557.05,748.05 L503.05,748.05z"/>
    </g>
  </g>
</svg>