<?xml version="1.0" encoding="utf-8"?>
<!-- Generator: flash2svg, http://dissentgraphics.com/tools/flash2svg -->
<svg id="Intellij-Idea" image-rendering="optimizeSpeed" baseProfile="basic" version="1.1" style="background-color:#FFFFFF" x="0px" y="0px" width="1024px" height="1024px" viewBox="0 0 1024 1024" enable-background="new 0 0 1024 1024" xmlns="http://www.w3.org/2000/svg" xmlns:xlink="http://www.w3.org/1999/xlink">
  <defs transform="matrix(1 0 0 1 0 0) "/>
  <g id="shadow">
    <g id="shape">
      <path id="path" fill="#000000" fill-opacity="0.09803921568627451" d="M969.6,351.25 Q961,330.4 950.2,310.4 C946.15,302.85 941.85,295.35 937.3,288 917.75,256.3 893.9,226.35 865.75,198.2 773.6,106.05 662.3,59.95 531.95,59.95 401.6,59.95 290.35,106.05 198.2,198.2 106.05,290.35 59.95,401.6 59.95,531.95 59.95,662.3 106.05,773.6 198.2,865.75 290.35,957.9 401.6,1003.95 531.95,1003.95 662.3,1003.95 773.6,957.9 865.75,865.75 916.5,814.95 953.3,758.35 976.1,696 994.65,645.15 1003.95,590.5 1003.95,531.95 1003.95,487.05 998.5,444.4 987.55,404 986.3,399.45 985,394.9 983.65,390.4 979.55,377.1 974.85,364.05 969.6,351.25z"/>
    </g>
  </g>
  <g id="circle">
    <g id="shape2">
      <path id="path1" fill="#2F4D63" fill-opacity="1" d="M966.05,378.4 C963.55,369.65 960.7,360.8 957.6,352.05 951.15,333.8 943.45,316 934.45,298.4 930.65,291 926.5,283.45 922.15,276 901.85,241.5 876.35,208.8 845.8,178.25 773.2,105.65 688.65,61.6 592.15,46.2 575.9,43.6 559.35,41.8 542.1,40.85 532.4,40.3 522.25,40 512,40 502.65,40 493.4,40.25 484.1,40.75 365.75,46.85 263.8,92.7 178.25,178.25 Q40,316.5 40,512 C40,642.35 86.1,753.65 178.25,845.8 256.75,924.25 349.05,969.35 454.95,980.95 464.7,982.05 474.35,982.8 484.1,983.3 484.25,983.3 484.35,983.3 484.5,983.3 493,983.75 501.1,984 509,984 510.2,984 511.1,984 512,984 522.3,984 532.5,983.7 542.1,983.2 544.6,983.05 546.85,982.9 549.05,982.75 569.25,981.3 588.95,978.7 607.75,975.05 615.7,973.5 623.55,971.75 631.15,969.9 711.95,949.6 783.3,908.3 845.8,845.8 894.4,797.2 930.2,743.3 953.15,684 971.6,636.35 981.8,585.2 983.7,530.5 983.9,524.45 984,518.25 984,512 984,511.35 984,510.65 984,510 984,509.65 984,509.35 984,509 983.9,492.15 983.05,475.65 981.4,459.3 979.1,436.4 975.2,413.95 969.7,392 968.6,387.65 967.35,383 966.05,378.4z"/>
    </g>
  </g>
  <g id="ico-shadow">
    <g id="shape4">
      <path id="path2" fill="#000000" fill-opacity="0.2" d="M753.1,231 L688.225,349.425 568.45,229.65 247,317 475.4,545.4 471.825,565.825 358,452 245,547 390.325,692.325 247,773 454.95,980.95 C464.7,982.05 474.35,982.8 484.1,983.3 484.25,983.3 484.35,983.3 484.5,983.3 493,983.75 501.1,984 509,984 Q510.5,984 512,984 C522.3,984 532.5,983.7 542.1,983.2 544.6,983.05 546.85,982.9 549.05,982.75 569.25,981.3 588.95,978.7 607.75,975.05 615.7,973.5 623.55,971.75 631.15,969.9 711.95,949.6 783.3,908.3 845.8,845.8 894.4,797.2 930.2,743.3 953.15,684 971.6,636.35 981.8,585.2 983.7,530.5 983.9,524.45 984,518.25 984,512 984,511.35 984,510.65 984,510 984,509.65 984,509.35 984,509 983.9,492.15 983.05,475.65 981.4,459.3 L753.1,231z"/>
    </g>
  </g>
  <g id="ico">
    <g id="Symbole.__2013_1" overflow="visible">
      <g id="Calque.__204">
        <g id="shape18">
          <path id="path11" fill="#93B6CA" fill-opacity="1" d="M712,216.7 C694.45,216.7 679.5,222.9 667.15,235.3 654.75,247.65 648.55,262.6 648.55,280.15 L648.55,457.25 775.5,584.2 775.5,280.15 Q775.45,253.85 756.9,235.3 C744.5,222.9 729.55,216.7 712,216.7z M572.9,235.15 C560.5,222.75 545.55,216.55 528,216.55 L407.85,216.55 591.5,400.2 591.5,280 C591.45,262.45 585.25,247.5 572.9,235.15z"/>
          <path id="path12" fill="#7BA0B5" fill-opacity="1" d="M756.9,783.4 C769.25,771 775.45,756.05 775.5,738.5 L775.5,584.2 648.55,457.25 648.55,738.5 C648.55,756.05 654.75,771 667.15,783.4 679.5,795.75 694.45,801.95 712,802 729.55,801.95 744.5,795.75 756.9,783.4z M591.5,494.25 L591.5,400.2 407.85,216.55 298.05,216.55 C280.5,216.55 265.55,222.75 253.2,235.15 240.8,247.5 234.6,262.45 234.6,280 234.6,297.55 240.8,312.5 253.2,324.9 265.55,337.25 280.5,343.45 298.05,343.5 L464.55,343.5 464.55,496.1 C464.5,497.25 464.55,498.45 464.65,499.75 468.45,565.8 457.75,613.95 432.6,644.3 404.95,668.45 362.55,677.25 305.35,670.65 288,668.65 272.5,673.1 258.75,684 245,694.9 237.1,709.05 235.05,726.4 233,743.75 237.45,759.3 248.35,773.05 259.25,786.8 273.4,794.7 290.8,796.75 397.2,809 474.85,787.65 523.8,732.6 575,684.05 597.55,604.6 591.5,494.25z"/>
        </g>
        <g id="Symbole.__2015_2" overflow="visible">
          <g id="Calque.__205">
            <g id="shape19">
              <path id="path13" fill="#F49835" fill-opacity="1" d="M363.15,455.8 C348.6,441.25 331.05,434 310.5,434 289.95,434 272.35,441.25 257.8,455.8 Q236,477.65 236,508.5 C236,529.05 243.25,546.6 257.8,561.15 272.35,575.7 289.95,583 310.5,583 331.05,583 348.6,575.7 363.15,561.15 377.7,546.6 385,529.05 385,508.5 385,487.95 377.7,470.35 363.15,455.8z"/>
            </g>
          </g>
        </g>
      </g>
    </g>
  </g>
</svg>