<?xml version="1.0" encoding="utf-8"?>
<!-- Generator: flash2svg, http://dissentgraphics.com/tools/flash2svg -->
<svg xmlns:xlink="http://www.w3.org/1999/xlink" id="ImageOptim" image-rendering="optimizeSpeed" baseProfile="basic" version="1.1" style="background-color:#ffffff" x="0px" y="0px" width="1024px" height="1024px" viewBox="0 0 1024 1024" enable-background="new 0 0 1024 1024" xmlns="http://www.w3.org/2000/svg">
  <defs transform="matrix(1 0 0 1 0 0) ">
    <filter id="filter2" filterUnits="objectBoundingBox" width="120%" height="120%" x="-10%" y="-10%">
      <feColorMatrix id="feColorMatrix2" type="matrix" in="SourceGraphic" values="1 0 0 0 0 0 1 0 0 0 0 0 1 0 0 0 0 0 0.3 0" result="colorEffect_percent"/>
    </filter>
  </defs>
  <g id="shadow">
    <g id="shape">
      <path id="path" fill="#000000" fill-opacity="0.09803921568627451" d="M969.65,351.3 Q961.05,330.45 950.25,310.45 C946.2,302.9 941.9,295.4 937.35,288.05 917.8,256.35 893.95,226.4 865.8,198.25 773.65,106.1 662.35,60 532,60 401.65,60 290.4,106.1 198.25,198.25 106.1,290.4 60,401.65 60,532 60,662.35 106.1,773.65 198.25,865.8 290.4,957.95 401.65,1004 532,1004 662.35,1004 773.65,957.95 865.8,865.8 916.55,815 953.35,758.4 976.15,696.05 994.7,645.2 1004,590.55 1004,532 1004,487.1 998.55,444.45 987.6,404.05 986.35,399.5 985.05,394.95 983.7,390.45 979.6,377.15 974.9,364.1 969.65,351.3z"/>
    </g>
  </g>
  <g id="Calque.__203">
    <g id="shape2">
      <path id="path1" fill="#465D96" fill-opacity="1" d="M674.05,68.65 C667.05,66.05 660.05,63.6 652.75,61.2 617.95,49.9 582.8,42.75 547.6,40 479.25,34.5 410.75,45.1 341.75,71.8 340.8,72.2 339.75,72.6 338.7,73 315.25,82.3 293.05,92.9 272.1,104.9 230.8,128.6 194.5,157.55 163.6,191.6 152.4,203.9 141.9,216.85 132.15,230.3 L132.125,230.3 Q101.326,272.805 79.05,324.15 C62.85,361.5 51.5,399 45.2,435.7 43.5,445.35 42.2,454.6 41.2,463.8 40.75,468.25 40.35,472.4 40,476.55 38,500.95 38.1,525.4 40.25,549.6 42.1,570.55 45.4,591.3 50.15,612.05 50.2,612.2 50.2,612.4 50.25,612.55 55.95,637.1 63.5,661.3 73,685.4 100.7,755.35 140.25,813.8 191.55,860.5 192.85,861.65 194.15,862.8 195.2,863.8 225.9,891.15 260.4,914.15 298.85,933.3 299,933.35 299.1,933.4 299.2,933.45 302.3,935 305.3,936.45 307.85,937.6 312.75,939.95 317.1,941.95 321.45,943.85 322.55,944.3 323.35,944.7 324.2,945.05 333.65,949.15 343.1,952.9 352.1,956.25 354.45,957.1 356.6,957.9 358.7,958.65 359.05,958.8 359.4,958.9 359.75,959.05 378.3,965.5 396.95,970.8 415.6,974.95 423.5,976.65 431.4,978.2 439.1,979.5 440.05,979.7 441.05,979.8 441.8,979.95 453.45,981.8 465,983.2 476.55,984.15 546.35,989.6 615.75,978.6 685.4,951.1 695.6,947.1 705.55,942.85 715,938.4 728.7,932.05 741.7,925.25 754.2,917.95 789.3,897.6 820.65,873.45 848.3,845.45 848.85,844.9 849.45,844.3 850,843.75 853.55,840.05 857.1,836.3 860.55,832.55 868.95,823.3 877.05,813.6 884.8,803.45 904.85,777.3 922.35,748.35 937.4,716.75 940,711.25 942.55,705.65 945.05,699.9 945.3,699.3 945.6,698.65 945.85,698.05 946,697.75 946.1,697.45 946.25,697.15 949.05,690.55 951.7,683.9 954.35,677.15 962.45,655.8 969.05,634.25 974.15,612.3 976.25,603.05 978.15,593.6 979.7,584.1 980.4,579.7 981.1,574.95 981.8,570.2 982.7,562.85 983.55,555.35 984.15,547.6 984.15,547.45 984.15,547.35 984.2,547.25 984.25,545.7 984.4,544.2 984.55,542.65 985.85,523.35 985.85,503.95 984.65,484.25 984.2,477.85 983.65,471.35 982.95,464.65 982.9,464.25 982.85,463.85 982.8,463.5 982.65,461.95 982.45,460.35 982.25,458.8 980.25,442.4 977.3,425.95 973.3,409.1 967.85,385.95 960.45,362.35 951.1,338.7 931.55,289.25 906.05,245.55 874.2,207.2 861.5,191.95 847.5,177.3 832.5,163.6 813.75,146.5 793.15,130.8 770.95,116.65 757.1,107.75 742.65,99.55 727.2,91.75 718.5,87.4 709.35,83.1 699.95,79.05 691.35,75.3 682.8,71.85 674.05,68.65z"/>
    </g>
  </g>
  <g id="Calque.__204">
    <g id="shape4">
      <path id="path2" fill="#000000" fill-opacity="0.2" d="M951.1,338.7 C940.5,311.85 928.1,286.7 913.75,262.8 L913.725,262.8 L191.6,860.55 C192.8,861.65 194,862.75 195.2,863.8 225.9,891.15 260.4,914.15 298.85,933.3 299,933.35 299.1,933.4 299.2,933.45 302.3,935 305.3,936.45 307.85,937.6 312.75,939.95 317.1,941.95 321.45,943.85 Q322.8,944.45 324.2,945.05 C333.65,949.15 343.1,952.9 352.1,956.25 354.45,957.1 356.6,957.9 358.7,958.65 359.05,958.8 359.4,958.9 359.75,959.05 378.3,965.5 396.95,970.8 415.6,974.95 423.5,976.65 431.4,978.2 439.1,979.5 440.05,979.7 441.05,979.8 441.8,979.95 453.45,981.8 465,983.2 476.55,984.15 546.35,989.6 615.75,978.6 685.4,951.1 695.6,947.1 705.55,942.85 715,938.4 728.7,932.05 741.7,925.25 754.2,917.95 789.3,897.6 820.65,873.45 848.3,845.45 848.85,844.9 849.45,844.3 850,843.75 853.55,840.05 857.1,836.3 860.55,832.55 868.95,823.3 877.05,813.6 884.8,803.45 904.85,777.3 922.35,748.35 937.4,716.75 940,711.25 942.55,705.65 945.05,699.9 945.3,699.3 945.6,698.65 945.85,698.05 946,697.75 946.1,697.45 946.25,697.15 949.05,690.55 951.7,683.9 954.35,677.15 962.45,655.8 969.05,634.25 974.15,612.3 976.25,603.05 978.15,593.6 979.7,584.1 980.4,579.7 981.1,574.95 981.8,570.2 982.7,562.85 983.55,555.35 984.15,547.6 984.15,547.45 984.15,547.35 984.2,547.25 984.25,545.7 984.4,544.2 984.55,542.65 985.85,523.35 985.85,503.95 984.65,484.25 984.2,477.85 983.65,471.35 982.95,464.65 982.9,464.25 982.85,463.85 982.8,463.5 982.65,461.95 982.45,460.35 982.25,458.8 980.25,442.4 977.3,425.95 973.3,409.1 967.85,385.95 960.45,362.35 951.1,338.7z"/>
    </g>
  </g>
  <mask id="Calque.__205">
    <g id="g">
      <g id="shape18">
        <path id="path14" fill="#FFFFFF" fill-opacity="1" d="M674.05,68.65 C667.05,66.05 660.05,63.6 652.75,61.2 617.95,49.9 582.8,42.75 547.6,40 479.25,34.5 410.75,45.1 341.75,71.8 340.8,72.2 339.75,72.6 338.7,73 315.25,82.3 293.05,92.9 272.1,104.9 230.8,128.6 194.5,157.55 163.6,191.6 152.4,203.9 141.9,216.85 132.15,230.3 L132.125,230.3 Q101.326,272.805 79.05,324.15 C62.85,361.5 51.5,399 45.2,435.7 43.5,445.35 42.2,454.6 41.2,463.8 40.75,468.25 40.35,472.4 40,476.55 38,500.95 38.1,525.4 40.25,549.6 42.1,570.55 45.4,591.3 50.15,612.05 50.2,612.2 50.2,612.4 50.25,612.55 55.95,637.1 63.5,661.3 73,685.4 100.7,755.35 140.25,813.8 191.55,860.5 192.85,861.65 194.15,862.8 195.2,863.8 225.9,891.15 260.4,914.15 298.85,933.3 299,933.35 299.1,933.4 299.2,933.45 302.3,935 305.3,936.45 307.85,937.6 312.75,939.95 317.1,941.95 321.45,943.85 322.55,944.3 323.35,944.7 324.2,945.05 333.65,949.15 343.1,952.9 352.1,956.25 354.45,957.1 356.6,957.9 358.7,958.65 359.05,958.8 359.4,958.9 359.75,959.05 378.3,965.5 396.95,970.8 415.6,974.95 423.5,976.65 431.4,978.2 439.1,979.5 440.05,979.7 441.05,979.8 441.8,979.95 453.45,981.8 465,983.2 476.55,984.15 546.35,989.6 615.75,978.6 685.4,951.1 695.6,947.1 705.55,942.85 715,938.4 728.7,932.05 741.7,925.25 754.2,917.95 789.3,897.6 820.65,873.45 848.3,845.45 848.85,844.9 849.45,844.3 850,843.75 853.55,840.05 857.1,836.3 860.55,832.55 868.95,823.3 877.05,813.6 884.8,803.45 904.85,777.3 922.35,748.35 937.4,716.75 940,711.25 942.55,705.65 945.05,699.9 945.3,699.3 945.6,698.65 945.85,698.05 946,697.75 946.1,697.45 946.25,697.15 949.05,690.55 951.7,683.9 954.35,677.15 962.45,655.8 969.05,634.25 974.15,612.3 976.25,603.05 978.15,593.6 979.7,584.1 980.4,579.7 981.1,574.95 981.8,570.2 982.7,562.85 983.55,555.35 984.15,547.6 984.15,547.45 984.15,547.35 984.2,547.25 984.25,545.7 984.4,544.2 984.55,542.65 985.85,523.35 985.85,503.95 984.65,484.25 984.2,477.85 983.65,471.35 982.95,464.65 982.9,464.25 982.85,463.85 982.8,463.5 982.65,461.95 982.45,460.35 982.25,458.8 980.25,442.4 977.3,425.95 973.3,409.1 967.85,385.95 960.45,362.35 951.1,338.7 931.55,289.25 906.05,245.55 874.2,207.2 861.5,191.95 847.5,177.3 832.5,163.6 813.75,146.5 793.15,130.8 770.95,116.65 757.1,107.75 742.65,99.55 727.2,91.75 718.5,87.4 709.35,83.1 699.95,79.05 691.35,75.3 682.8,71.85 674.05,68.65z"/>
      </g>
    </g>
  </mask>
  <g id="masked" mask="url(#Calque.__205)">
    <g id="Symbole.__2040">
      <g id="FlashAICB.__2FCalque.__201.__2F.__26.__23060Group.__26.__23062_6_1" transform="matrix(2.7441253662109375 0 0 2.7441253662109375 242.05 153.25)" overflow="visible" filter="url(#filter2)"/>
      <g id="group">
        <g id="drawingObject">
          <path id="path3" fill="#FFCC00" fill-opacity="1" d="M934.65,654.1 L934.75,138.2 234.45,138.05 234.35,654.1 934.65,654.1z"/>
        </g>
        <g id="group1">
          <g id="drawingObject1">
            <path id="path4" fill="#FFFFFF" fill-opacity="1" d="M950.329,669.87 L950.329,123.072 219.162,122.935 219.162,669.732 950.329,669.87z M919.463,639.004 L250.027,638.867 250.027,153.8 919.463,153.937 919.463,639.004z"/>
          </g>
        </g>
      </g>
      <g id="group2">
        <g id="drawingObject2">
          <path id="path8" fill="#FF9900" fill-opacity="1" d="M104.95,401.45 L158.9,914.65 884.15,838.5 830.1,325.3 104.95,401.45z"/>
        </g>
        <g id="group3">
          <g id="drawingObject3">
            <path id="path9" fill="#FFFFFF" fill-opacity="1" d="M901.218,852.456 L844.152,308.539 88.155,387.966 145.222,931.883 901.218,852.456z M816.579,342.559 L867.335,824.882 172.795,897.862 122.039,415.539 816.579,342.559z"/>
          </g>
        </g>
      </g>
    </g>
    <g id="Symbole.__2041">
      <g id="shape16">
        <path id="path13" fill="#000000" fill-opacity="0.2" d="M881.9,669.625 L950.2,669.65 950.2,430.2 764.05,244.05 566.05,428.05 384.05,246.05 264.05,398.05 418.825,552.825 264.05,784.05 386.35,906.35 901.05,852.25 881.9,669.625z"/>
      </g>
    </g>
  </g>
  <g id="Calque.__206">
    <g id="Symbole.__2042_1" overflow="visible">
      <g id="Calque.__211">
        <g id="shape38">
          <path id="path26" fill="#999999" fill-opacity="1" d="M709.216,709.432 C709.251,709.397 709.287,709.361 709.322,709.326 717.136,701.513 721.025,692.108 720.989,681.042 Q721.025,664.461 709.323,652.758 L382.646,326.074 C374.833,318.261 365.428,314.372 354.327,314.372 343.296,314.372 333.892,318.26 326.078,326.074 326.043,326.109 326.007,326.145 325.972,326.18 L709.216,709.432z"/>
          <path id="path27" fill="#666666" fill-opacity="1" d="M681.003,721.028 C692.033,721.028 701.438,717.14 709.216,709.432 L325.972,326.18 C318.264,333.958 314.375,343.362 314.34,354.358 314.375,365.424 318.264,374.828 326.077,382.642 L652.754,709.326 C660.567,717.139 669.972,721.028 681.003,721.028z"/>
        </g>
      </g>
    </g>
    <g id="Symbole.__2044_1" overflow="visible">
      <g id="Calque.__212">
        <g id="shape39">
          <path id="path28" fill="#334570" fill-opacity="1" d="M386.599,251.101 C383.149,247.651 379.599,244.551 375.949,241.801 388.449,258.301 394.649,277.301 394.649,298.85 Q394.649,338.55 366.599,366.599 C347.9,385.299 325.3,394.649 298.85,394.649 277.351,394.649 258.401,388.449 241.801,375.949 244.551,379.599 247.651,383.149 251.101,386.599 269.801,405.299 292.4,414.649 318.85,414.649 345.3,414.649 367.899,405.299 386.599,386.599 405.299,367.899 414.649,345.3 414.649,318.85 414.649,292.4 405.299,269.801 386.599,251.101z"/>
          <path id="path29" fill="#425999" fill-opacity="1" d="M375.949,241.801 C359.499,229.301 340.5,223.051 318.85,223.051 292.4,223.051 269.801,232.401 251.101,251.101 232.401,269.801 223.051,292.4 223.051,318.85 223.051,340.5 229.301,359.499 241.801,375.949 258.401,388.449 277.351,394.649 298.85,394.649 325.3,394.649 347.9,385.299 366.599,366.599 Q394.649,338.55 394.649,298.85 C394.649,277.301 388.449,258.301 375.949,241.801z"/>
        </g>
      </g>
    </g>
    <g id="Symbole.__2044_2" overflow="visible">
      <g id="Calque.__213">
        <g id="shape40">
          <path id="path30" fill="#334570" fill-opacity="1" d="M772.899,637.401 C769.449,633.951 765.899,630.851 762.249,628.101 774.749,644.601 780.949,663.601 780.949,685.15 Q780.949,724.85 752.899,752.899 C734.2,771.599 711.6,780.949 685.15,780.949 663.651,780.949 644.701,774.749 628.101,762.249 630.851,765.899 633.951,769.449 637.401,772.899 656.101,791.599 678.7,800.949 705.15,800.949 731.6,800.949 754.199,791.599 772.899,772.899 791.599,754.199 800.949,731.6 800.949,705.15 800.949,678.7 791.599,656.101 772.899,637.401z"/>
          <path id="path31" fill="#425999" fill-opacity="1" d="M762.249,628.101 C745.799,615.601 726.8,609.351 705.15,609.351 678.7,609.351 656.101,618.701 637.401,637.401 618.701,656.101 609.351,678.7 609.351,705.15 609.351,726.8 615.601,745.799 628.101,762.249 644.701,774.749 663.651,780.949 685.15,780.949 711.6,780.949 734.2,771.599 752.899,752.899 Q780.949,724.85 780.949,685.15 C780.949,663.601 774.749,644.601 762.249,628.101z"/>
        </g>
      </g>
    </g>
    <g id="Symbole.__2042_2" overflow="visible">
      <g id="Calque.__214">
        <g id="shape41">
          <path id="path32" fill="#999999" fill-opacity="1" d="M698.028,326.184 C697.993,326.149 697.957,326.113 697.922,326.078 690.109,318.265 680.704,314.376 669.638,314.411 Q653.057,314.376 641.355,326.078 L314.678,652.755 C306.865,660.568 302.976,669.972 302.976,681.074 302.976,692.104 306.865,701.509 314.678,709.322 314.713,709.357 314.749,709.393 314.784,709.428 L698.028,326.184z"/>
          <path id="path33" fill="#666666" fill-opacity="1" d="M709.624,354.397 C709.624,343.366 705.735,333.962 698.028,326.184 L314.784,709.428 C322.562,717.135 331.966,721.024 342.962,721.06 354.028,721.024 363.432,717.135 371.245,709.322 L697.922,382.645 C705.735,374.832 709.624,365.428 709.624,354.397z"/>
        </g>
      </g>
    </g>
    <g id="Symbole.__2044_3" overflow="visible">
      <g id="Calque.__215">
        <g id="shape42">
          <path id="path34" fill="#334570" fill-opacity="1" d="M772.898,251.102 C769.448,247.652 765.898,244.552 762.248,241.802 774.748,258.302 780.948,277.301 780.948,298.851 Q780.948,338.549 752.899,366.599 C734.199,385.298 711.6,394.648 685.151,394.648 663.651,394.648 644.702,388.448 628.102,375.948 630.852,379.598 633.952,383.148 637.402,386.598 656.101,405.297 678.701,414.647 705.15,414.647 731.599,414.647 754.199,405.297 772.898,386.598 791.597,367.899 800.947,345.299 800.947,318.85 800.947,292.401 791.597,269.801 772.898,251.102z"/>
          <path id="path35" fill="#425999" fill-opacity="1" d="M762.248,241.802 C745.799,229.303 726.799,223.053 705.15,223.053 678.701,223.053 656.101,232.403 637.402,251.102 618.703,269.801 609.353,292.401 609.353,318.85 609.353,340.499 615.603,359.499 628.102,375.948 644.702,388.448 663.651,394.648 685.151,394.648 711.6,394.648 734.199,385.298 752.899,366.599 Q780.948,338.549 780.948,298.851 C780.948,277.301 774.748,258.302 762.248,241.802z"/>
        </g>
      </g>
    </g>
    <g id="Symbole.__2044_4" overflow="visible">
      <g id="Calque.__216">
        <g id="shape43">
          <path id="path36" fill="#334570" fill-opacity="1" d="M386.598,637.402 C383.148,633.952 379.598,630.852 375.948,628.102 388.448,644.602 394.648,663.601 394.648,685.151 Q394.648,724.849 366.599,752.899 C347.899,771.598 325.3,780.948 298.851,780.948 277.351,780.948 258.402,774.748 241.802,762.248 244.552,765.898 247.652,769.448 251.102,772.898 269.801,791.597 292.401,800.947 318.85,800.947 345.299,800.947 367.899,791.597 386.598,772.898 405.297,754.199 414.647,731.599 414.647,705.15 414.647,678.701 405.297,656.101 386.598,637.402z"/>
          <path id="path37" fill="#425999" fill-opacity="1" d="M375.948,628.102 C359.499,615.603 340.499,609.353 318.85,609.353 292.401,609.353 269.801,618.703 251.102,637.402 232.403,656.101 223.053,678.701 223.053,705.15 223.053,726.799 229.303,745.799 241.802,762.248 258.402,774.748 277.351,780.948 298.851,780.948 325.3,780.948 347.899,771.598 366.599,752.899 Q394.648,724.849 394.648,685.151 C394.648,663.601 388.448,644.602 375.948,628.102z"/>
        </g>
      </g>
    </g>
  </g>
  <g id="Calque.__207">
    <g id="shape20">
      <path id="path15" fill="#515151" fill-opacity="1" d="M617.45,526.7 C617.45,522.3 617.2,518 616.75,513.7 614.1,538.2 603.7,559.5 585.6,577.55 564.4,598.8 538.8,609.4 508.75,609.4 478.7,609.4 453.1,598.8 431.85,577.55 413.8,559.5 403.4,538.2 400.75,513.7 400.25,518.2 400.05,522.4 400.05,526.7 400.05,556.75 410.65,582.35 431.85,603.55 453.1,624.8 478.7,635.4 508.75,635.4 538.8,635.4 564.4,624.8 585.6,603.55 Q617.45,571.75 617.45,526.7z"/>
      <path id="path16" fill="#999999" fill-opacity="1" d="M616.75,513.7 C617.2,509.45 617.45,505.15 617.45,500.7 617.45,470.65 606.85,445.05 585.6,423.8 564.4,402.6 538.8,392 508.75,392 478.7,392 453.1,402.6 431.85,423.8 410.65,445.05 400.05,470.65 400.05,500.7 400.05,505.15 400.3,509.45 400.75,513.7 403.4,538.2 413.8,559.5 431.85,577.55 453.1,598.8 478.7,609.4 508.75,609.4 538.8,609.4 564.4,598.8 585.6,577.55 603.7,559.5 614.1,538.2 616.75,513.7z"/>
    </g>
  </g>
  <g id="Calque.__208">
    <g id="shape24">
      <path id="path17" fill="#7094E5" fill-opacity="1" d="M258.1,266.8 C251.35,273.55 248,281.65 248,291.15 248,300.65 251.35,308.75 258.1,315.5 264.85,322.25 272.95,325.6 282.45,325.6 291.95,325.6 300.05,322.25 306.8,315.5 313.55,308.75 316.9,300.65 316.9,291.15 316.9,281.65 313.55,273.55 306.8,266.8 300.05,260.05 291.95,256.7 282.45,256.7 272.95,256.7 264.85,260.05 258.1,266.8z"/>
      <path id="path18" fill="#5E7ECE" fill-opacity="1" d="M700.95,291.15 Q700.95,276.9 690.85,266.8 C684.1,260.05 676,256.7 666.5,256.7 657,256.7 648.9,260.05 642.15,266.8 635.4,273.55 632.05,281.65 632.05,291.15 632.05,300.65 635.4,308.75 642.15,315.5 648.9,322.25 657,325.6 666.5,325.6 676,325.6 684.1,322.25 690.85,315.5 697.6,308.75 700.95,300.65 700.95,291.15z M261.15,653.7 C254.4,660.45 251.05,668.55 251.05,678.05 251.05,687.55 254.4,695.65 261.15,702.4 267.9,709.15 276,712.5 285.5,712.5 295,712.5 303.1,709.15 309.85,702.4 316.6,695.65 319.95,687.55 319.95,678.05 319.95,668.55 316.6,660.45 309.85,653.7 303.1,646.95 295,643.6 285.5,643.6 276,643.6 267.9,646.95 261.15,653.7z"/>
      <path id="path21" fill="#516DB2" fill-opacity="1" d="M704,678.05 C704,668.55 700.65,660.45 693.9,653.7 687.15,646.95 679.05,643.6 669.55,643.6 660.05,643.6 651.95,646.95 645.2,653.7 638.45,660.45 635.1,668.55 635.1,678.05 635.1,687.55 638.45,695.65 645.2,702.4 651.95,709.15 660.05,712.5 669.55,712.5 679.05,712.5 687.15,709.15 693.9,702.4 700.65,695.65 704,687.55 704,678.05z"/>
    </g>
  </g>
</svg>