<?xml version="1.0" encoding="utf-8"?>
<!-- Generator: flash2svg, http://dissentgraphics.com/tools/flash2svg -->
<svg xmlns:xlink="http://www.w3.org/1999/xlink" id="Apps-UTorrent" image-rendering="optimizeSpeed" baseProfile="basic" version="1.1" style="background-color:#ffffff" x="0px" y="0px" width="1024px" height="1024px" viewBox="0 0 1024 1024" enable-background="new 0 0 1024 1024" xmlns="http://www.w3.org/2000/svg">
  <defs transform="matrix(1 0 0 1 0 0) "/>
  <g id="shadow">
    <g id="shape">
      <path id="path" fill="#000000" fill-opacity="0.09803921568627451" d="M969.65,351.3 Q961.05,330.45 950.25,310.45 C946.2,302.9 941.9,295.4 937.35,288.05 917.8,256.35 893.95,226.4 865.8,198.25 773.65,106.1 662.35,60 532,60 401.65,60 290.4,106.1 198.25,198.25 106.1,290.4 60,401.65 60,532 60,662.35 106.1,773.65 198.25,865.8 290.4,957.95 401.65,1004 532,1004 662.35,1004 773.65,957.95 865.8,865.8 916.55,815 953.35,758.4 976.15,696.05 994.7,645.2 1004,590.55 1004,532 1004,487.1 998.55,444.45 987.6,404.05 986.35,399.5 985.05,394.95 983.7,390.45 979.6,377.15 974.9,364.1 969.65,351.3z"/>
    </g>
  </g>
  <g id="bg">
    <g id="shape2">
      <path id="path1" fill="#60CA60" fill-opacity="1" d="M929.85,289.65 C927.5,285.3 924.9,280.65 922.2,276.05 901.9,241.55 876.4,208.85 845.85,178.3 773.25,105.7 688.7,61.65 592.2,46.25 575.95,43.65 559.4,41.85 542.15,40.9 532.45,40.35 522.3,40.05 512.05,40.05 502.7,40.05 493.45,40.3 484.15,40.8 365.8,46.9 263.85,92.75 178.3,178.3 157.8,198.8 139.55,220.25 123.6,242.7 108.25,264.25 95.05,286.7 84,309.9 66.35,346.8 54,385.9 47.1,426.7 43.75,446.1 41.65,465.6 40.7,485.5 L40.7,485.475 Q40.05,498.633 40.05,512.05 C40.05,517.2 40.15,522.3 40.25,527.25 40.55,537.15 41.1,546.9 41.85,556.15 42.85,567.65 44.15,578.6 45.8,589.35 51.9,628.8 62.7,666.25 78.05,701.35 79.4,704.45 80.8,707.5 82,710.15 105.2,759.7 137.15,804.7 178.3,845.85 235,902.5 298.85,941.75 369.4,963.4 406.15,974.65 444.2,981.25 484.15,983.35 484.3,983.35 484.4,983.35 484.55,983.35 493.05,983.8 501.15,984.05 509.05,984.05 510.25,984.05 511.15,984.05 512.05,984.05 522.35,984.05 532.55,983.75 542.15,983.25 544.65,983.1 546.9,982.95 549.1,982.8 569.3,981.35 589,978.75 607.8,975.1 615.75,973.55 623.6,971.8 631.2,969.95 712,949.65 783.35,908.35 845.85,845.85 883.85,807.85 914.05,766.6 936.35,722.05 942.6,709.7 948.2,697 953.2,684.05 957.45,673.1 961.25,661.95 964.7,650.45 970.8,629.75 975.55,608.3 978.8,586.15 979.65,580.45 980.4,574.7 981.05,568.8 981.3,566.4 981.55,564 981.8,561.5 982.7,551.45 983.4,541.05 983.75,530.55 983.95,524.5 984.05,518.3 984.05,512.05 984.05,511.4 984.05,510.7 984.05,510.05 984.05,509.7 984.05,509.4 984.05,509.05 983.95,485.3 982.3,462.15 979,439.35 978.25,433.9 977.35,428.45 976.35,422.85 974.55,412.65 972.3,402.3 969.75,392.05 968.65,387.7 967.4,383.05 966.1,378.45 965.1,375.05 964.1,371.6 962.95,367.95 961.35,362.8 959.55,357.45 957.65,352.1 952.6,337.85 946.8,323.85 940.2,309.95 938.35,306.15 936.45,302.3 934.5,298.45 933.05,295.6 931.55,292.75 929.85,289.65z"/>
    </g>
  </g>
  <g id="bg1">
    <g id="shape4">
      <path id="path2" fill="#000000" fill-opacity="0.2" d="M953.2,684.05 C957.45,673.1 961.25,661.95 964.7,650.45 970.8,629.75 975.55,608.3 978.8,586.15 979.65,580.45 980.4,574.7 981.05,568.8 981.3,566.4 981.55,564 981.8,561.5 982.3,555.95 982.75,550.3 983.1,544.55 L983.075,544.525 L710.6,272.05 590.65,447.15 415.05,271.55 297,750.05 530.7,983.75 Q536.453,983.557 542.15,983.25 C544.65,983.1 546.9,982.95 549.1,982.8 569.3,981.35 589,978.75 607.8,975.1 615.75,973.55 623.6,971.8 631.2,969.95 712,949.65 783.35,908.35 845.85,845.85 883.85,807.85 914.05,766.6 936.35,722.05 942.6,709.7 948.2,697 953.2,684.05z"/>
    </g>
  </g>
  <g id="svg2">
    <g id="shape6">
      <path id="path3" fill="#FFFFFF" fill-opacity="1" d="M715.85,285.55 Q715.85,277.65 712.3,273.65 C709.05,270 702.9,267.6 693.9,266.45 683.95,265.15 670.1,264.5 652.25,264.5 634.4,264.5 620.55,265.15 610.65,266.45 601.65,267.6 595.5,270 592.2,273.65 589.85,276.25 588.65,280.2 588.65,285.55 L588.65,497.95 C578.45,513.4 563.9,525.95 545.05,535.65 526.45,545.25 507.9,549.95 489.4,549.7 469.45,549.5 453.45,543.45 441.45,531.5 427.85,517.95 421.05,498.2 421.05,472.25 L421.05,285.55 C421.05,280.2 419.85,276.25 417.5,273.65 414.2,270 408.05,267.6 399.05,266.45 389.15,265.15 375.3,264.5 357.45,264.5 339.6,264.5 325.7,265.15 315.8,266.45 306.8,267.6 300.65,270 297.35,273.65 295,276.25 293.8,280.2 293.8,285.55 L293.8,738.55 C293.8,743.85 295,747.8 297.35,750.45 300.65,754.1 306.8,756.5 315.8,757.7 325.7,759 339.6,759.65 357.45,759.65 375.3,759.65 389.15,759 399.05,757.7 408.05,756.5 414.2,754.1 417.5,750.45 419.85,747.8 421.05,743.85 421.05,738.55 L421.05,682 C421.05,667.3 420.5,655.4 419.35,646.35 417.8,633.4 414.8,621.95 410.35,612 441.7,631.45 477.55,636.05 517.85,625.8 534.5,621.6 550.55,615.1 566,606.25 580.25,598.1 592.35,588.95 602.35,578.85 615.7,607 641.35,624.5 679.3,631.35 695.4,634.25 712.75,634.95 731.35,633.5 748.6,632.15 765.55,629.05 782.15,624.2 787.85,622.55 791.8,619.05 794,613.8 795.55,610.15 796.35,605.05 796.35,598.5 L796.35,564.65 C796.35,557.2 794.5,552.35 790.75,550.2 787.3,548.15 781.95,548.25 774.7,550.45 767.2,552.75 759.4,553.65 751.3,553.2 743.65,552.85 736,551.25 728.4,548.45 722.5,546.3 718.65,541.4 716.9,533.85 716.2,530.7 715.85,525.45 715.85,518.1 L715.85,285.55z"/>
    </g>
  </g>
</svg>