<?xml version="1.0" encoding="utf-8"?>
<!-- Generator: flash2svg, http://dissentgraphics.com/tools/flash2svg -->
<svg xmlns:xlink="http://www.w3.org/1999/xlink" id="RescueTime" image-rendering="optimizeSpeed" baseProfile="basic" version="1.1" style="background-color:#ffffff" x="0px" y="0px" width="1024px" height="1024px" viewBox="0 0 1024 1024" enable-background="new 0 0 1024 1024" xmlns="http://www.w3.org/2000/svg">
  <defs transform="matrix(1 0 0 1 0 0) "/>
  <g id="shadow">
    <g id="shape">
      <path id="path" fill="#000000" fill-opacity="0.09803921568627451" d="M965.65,347.3 Q957.05,326.45 946.25,306.45 C942.2,298.9 937.9,291.4 933.35,284.05 913.8,252.35 889.95,222.4 861.8,194.25 769.65,102.1 658.35,56 528,56 397.65,56 286.4,102.1 194.25,194.25 102.1,286.4 56,397.65 56,528 56,658.35 102.1,769.65 194.25,861.8 286.4,953.95 397.65,1000 528,1000 658.35,1000 769.65,953.95 861.8,861.8 912.55,811 949.35,754.4 972.15,692.05 990.7,641.2 1000,586.55 1000,528 1000,483.1 994.55,440.45 983.6,400.05 982.35,395.5 981.05,390.95 979.7,386.45 975.6,373.15 970.9,360.1 965.65,347.3z"/>
    </g>
  </g>
  <g id="BackgroundInner">
    <g id="shape2">
      <path id="path1" fill="#B64646" fill-opacity="1" d="M985.45,512.05 C985.45,507.45 985.4,502.85 985.25,497.9 982.05,373.75 936,267.05 847,178.05 754.7,85.75 643.25,39.6 512.7,39.6 382.15,39.6 270.75,85.75 178.45,178.05 89.6,266.9 43.5,373.5 40.2,497.85 40.05,502.65 40,507.45 40,512.3 40,517.55 40.1,522.8 40.25,528.05 43.8,651.85 89.9,758.05 178.45,846.6 208.85,877 241.35,902.4 275.65,922.7 334.75,957.55 399.55,977.7 470.4,983.35 484.25,984.5 498.35,985.05 512.7,985.05 600.5,985.05 679.65,964.15 750.05,922.5 784.45,902.1 816.75,876.85 847,846.6 893.9,799.7 928.9,747.85 951.95,691.1 Q985.45,608.65 985.45,512.3 C985.45,512.2 985.45,512.1 985.45,512.05z"/>
    </g>
  </g>
  <g id="BackgroundInner1">
    <g id="shape4">
      <path id="path2" fill="#000000" fill-opacity="0.2" d="M951.95,691.1 Q967.795,652.103 976.15,610 L621.275,255.125 285.5,602 649.625,966.125 L649.65,966.15 C685.05,955.75 718.45,941.2 750.05,922.5 784.45,902.1 816.75,876.85 847,846.6 893.9,799.7 928.9,747.85 951.95,691.1z"/>
    </g>
  </g>
  <g id="LogoBg">
    <g id="shape6">
      <path id="path3" fill="#FFFFFF" fill-opacity="1" d="M413.05,252.05 Q403.05,252.05 403.05,262.05 L403.05,715.05 C403.05,721.7 406.4,725.05 413.05,725.05 L613,725.05 C619.65,725.05 623,721.7 623,715.05 L623,262.05 C623,255.4 619.65,252.05 613,252.05 L413.05,252.05z"/>
    </g>
  </g>
  <g id="Template">
    <g id="shape8">
      <path id="path4" fill="#FFFFFF" fill-opacity="1" d="M748.5,392.05 Q748.5,382.05 738.5,382.05 L285.5,382.05 C278.85,382.05 275.5,385.4 275.5,392.05 L275.5,592 C275.5,598.65 278.85,602 285.5,602 L738.5,602 C745.15,602 748.5,598.65 748.5,592 L748.5,392.05z"/>
    </g>
  </g>
  <g id="Calque.__201">
    <g id="shape10">
      <path id="path5" fill="#923736" fill-opacity="1" d="M672.5,511.85 L671.35,511.75 568.5,499.45 C569.5,503.35 570,507.45 570,511.75 570,511.8 570,511.85 570,511.9 570,516.4 569.45,520.65 568.45,524.65 L672.5,511.85z M512.4,297.05 L512.2,298.7 493.35,456.25 C499.1,453.8 505.4,452.55 512.15,452.55 L512.2,452.55 C519.35,452.55 526,453.95 532,456.7 L512.4,297.05z M512.15,463.55 C505.4,463.55 499.1,464.8 493.35,467.25 487.75,469.55 482.6,473.1 477.95,477.75 471.4,484.3 467.1,491.8 465.1,500.25 464.25,503.95 463.8,507.85 463.8,511.9 463.8,518.3 464.9,524.2 467.05,529.7 469.4,535.7 473.05,541.2 477.95,546.1 487.4,555.55 498.8,560.25 512.15,560.25 525.5,560.25 536.9,555.55 546.35,546.1 552.65,539.8 556.8,532.7 558.95,524.65 559.95,520.65 560.5,516.4 560.5,511.9 560.5,511.85 560.5,511.8 560.5,511.75 560.5,507.45 560,503.35 559,499.45 557,491.65 553.05,484.7 547.15,478.55 546.85,478.25 546.6,478 546.35,477.75 542.95,474.3 539.25,471.5 535.3,469.3 534.2,468.75 533.15,468.2 532,467.7 526,464.95 519.35,463.55 512.2,463.55 L512.15,463.55z"/>
    </g>
  </g>
</svg>