
<svg xmlns="http://www.w3.org/2000/svg" version="1.1" xmlns:xlink="http://www.w3.org/1999/xlink" preserveAspectRatio="none" x="0px" y="0px" width="1024px" height="1024px" viewBox="0 0 1024 1024">
<defs>
<g id="Layer6_0_FILL">
<path fill="#000000" fill-opacity="0.09803921568627451" stroke="none" d="
M 965.6 350.25
Q 957 329.4 946.2 309.4 940.1 298.05 933.3 287 903.95 239.45 861.75 197.2 723.5 58.95 527.95 58.95 332.45 58.95 194.2 197.2 55.95 335.45 55.95 530.95 55.95 726.5 194.2 864.75 332.45 1002.95 527.95 1002.95 723.5 1002.95 861.75 864.75 937.9 788.55 972.1 695 999.95 618.75 999.95 530.95 999.95 463.6 983.55 403 981.7 396.15 979.65 389.4 973.5 369.45 965.6 350.25 Z"/>
</g>

<g id="Layer5_0_FILL">
<path fill="#333333" stroke="none" d="
M 966.05 378.4
Q 962.2 365.05 957.6 352.05 947.85 324.5 934.45 298.4 928.65 287.05 922.15 276 891.5 224 845.8 178.25 707.6 40.05 512.1 40 512.05 40 512 40 316.5 40 178.25 178.25 40 316.5 40 512 40 512.05 40 512.15 40.05 707.6 178.25 845.8 191.054296875 858.598046875 204.35 870.2 296.8623046875 951.017578125 413.15 974.45 460.6 984 512 984 513.05 984 514.1 984 708.3 983.25 845.8 845.8 890.97421875 800.5947265625 921.35 749.25 940.0478515625 717.7919921875 953.15 684 978.7 618 983.1 543.25 983.95 528.85 984 514.15 984 513.1 984 512 984 457.4720703125 973.25 407.35 971.61328125 399.6326171875 969.7 392 967.95 385.15 966.05 378.4 Z"/>
</g>

<g id="Layer0_0_FILL">
<path fill="#FC4926" stroke="none" d="
M 298.95 579.65
L 294.95 579.65
Q 225.9 577.35 175.55 624.7 168.6 631.2 162.6 638.15 124.9 681.4 122.85 740.75 122.8 740.95 122.8 741.15
L 122.8 746.5
Q 122.3 767.3 126.15 786.45 148.85 817.7 177.6 846.4 211.65 880.45 249.15 906.1 275.45 924.1 303.5 938.05 320.3 940.45 338 940.65 378.35 941.4 413.25 934.2 436.5 929.4 457.35 921.05 501.25 903.45 534.15 869.95 603.55 799.2 603.55 678.4 601.25 560.95 517.85 478.25 434.75 395.5 317.3 393.2 239.25 388.5 166.15 416.15 150.25 422.3 135.15 429.75 82.15 455.75 39.75 497.9 39.45 498.15 39.25 498.4 39.05 505.15 39.05 511.95 39.05 525.6 39.75 539.1 40.25 549.45 41.25 559.7 44 590.1 50.35 619 53.7 612.2 57.4 605.6 86.15 554.15 135.7 518.55 137.75 517.05 139.85 515.6 211.9 465.9 299.65 467.25 386.35 464.85 450.75 523.25 515.15 582 520.5 668.75 520.5 837.55 363.65 862.9 353.5 864.6 343.6 864.9 300.25 866.3 260.95 841.55 204.85 806.9 207.55 741.8 207.85 735.15 209.1 728.85 213.7 706.4 230.9 689.45 253.25 668.05 284.3 668.05
L 289.3 668.05
Q 273.95 684.8 275.25 707.4 276.25 730.1 292.95 745.5 302.95 754.8 316.3 758.2 329.3 761.5 342.65 758.2 373.35 752.15 393.4 727.8 413.05 703.45 412.4 672.1 408.05 629.35 374.7 602.35 341.3 575.35 298.95 579.65
M 984.95 511.95
Q 984.95 316.05 846.45 177.55 707.9 39 512 39 316.1 39 177.6 177.55 172 183.1 166.7 188.8 132.1 225.45 106.85 265.95 102.45 273.05 98.3 280.25 96.1 284.15 94 288.05 88.3 298.4 83.25 309 76.1 323.9 70.15 339.25 64.35 354.05 59.7 369.3 58.2 374.15 56.85 379.05 102.45 347.6 154.2 328.1 163.1 324.8 172.15 321.8 243.9 298.1 319.6 299.1 496.15 299.1 605.9 409.2 712.35 515.6 712 678.4 716.65 775.85 668.95 861.25 646.65 901.4 615.9 933.2 610.65 938.55 605.2 943.75 581.85 965.75 554.05 983.25 575.5 981.55 596.2 978.1 598.25 977.75 600.35 977.4 608.15 976 615.9 974.35 654.65 966.1 690.7 951.5 699.75 947.75 708.7 943.7 732.95 932.55 755.95 918.4 803.9 888.9 846.45 846.4 855.9 836.95 864.7 827.2 876.3 814.4 886.8 801.15 984.95 676.9 984.95 511.95 Z"/>
</g>
</defs>

<g transform="matrix( 1, 0, 0, 1, 0,0) ">
<use xlink:href="#Layer6_0_FILL"/>
</g>

<g transform="matrix( 1, 0, 0, 1, 0,0) ">
<use xlink:href="#Layer5_0_FILL"/>
</g>

<g transform="matrix( 1, 0, 0, 1, 0,0) ">
<use xlink:href="#Layer0_0_FILL"/>
</g>
</svg>
