
<svg xmlns="http://www.w3.org/2000/svg" version="1.1" xmlns:xlink="http://www.w3.org/1999/xlink" preserveAspectRatio="none" x="0px" y="0px" width="1024px" height="1024px" viewBox="0 0 1024 1024">
<defs>
<g id="Layer9_0_FILL">
<path fill="#000000" fill-opacity="0.09803921568627451" stroke="none" d="
M 969.6 351.25
Q 961 330.4 950.2 310.4 944.1 299.05 937.3 288 907.95 240.45 865.75 198.2 727.5 59.95 531.95 59.95 336.45 59.95 198.2 198.2 59.95 336.45 59.95 531.95 59.95 727.5 198.2 865.75 336.45 1003.95 531.95 1003.95 727.5 1003.95 865.75 865.75 941.9 789.55 976.1 696 1003.95 619.75 1003.95 531.95 1003.95 464.6 987.55 404 985.7 397.15 983.65 390.4 977.5 370.45 969.6 351.25 Z"/>
</g>

<g id="Layer8_0_FILL">
<path fill="#225B50" stroke="none" d="
M 969.7 392
Q 967.95 385.15 966.05 378.4 964.52578125 373.114453125 962.85 367.85 960.3787109375 359.903125 957.6 352.05 947.85 324.5 934.45 298.4 928.65 287.05 922.15 276 891.5 224 845.8 178.25 736.8 69.25 592.15 46.2 567.65 42.3 542.1 40.85 527.2 40 512 40 497.9 40 484.1 40.75 306.55 49.95 178.25 178.25 40 316.5 40 512 40 707.55 178.25 845.8 263.0400390625 930.55703125 369.35 963.35 423.8880859375 980.1630859375 484.1 983.3 484.3 983.3 484.5 983.3 496.65 983.9 509 984 510.5 984 512 984 527.25 984 542.1 983.2 545.6 983 549.05 982.75 579.1 980.6 607.75 975.05 619.55 972.75 631.15 969.9 751.75 939.85 845.8 845.8 918.7 772.85 953.15 684 980.9 612.4 983.7 530.5 984 521.3 984 512 984 511 984 510 984 509.5 984 509 983.65 447.7 969.7 392 Z"/>
</g>

<g id="Layer7_0_FILL">
<path fill="#000000" fill-opacity="0.2" stroke="none" d="
M 984 510
Q 984 509.5 984 509 983.7513671875 465.4578125 976.65 424.75
L 802.25 250.35 174.85 619 320.85 765 326 839.15 469.15 982.3
Q 476.5826171875 982.9083984375 484.1 983.3 484.3 983.3 484.5 983.3 496.65 983.9 509 984 510.5 984 512 984 527.25 984 542.1 983.2 545.6 983 549.05 982.75 579.1 980.6 607.75 975.05 619.55 972.75 631.15 969.9 751.75 939.85 845.8 845.8 918.7 772.85 953.15 684 980.9 612.4 983.7 530.5 984 521.3 984 512 984 511 984 510 Z"/>
</g>

<g id="Layer5_0_FILL">
<path fill="#FFFFFF" stroke="none" d="
M 799.25 245.95
Q 779.35 226.05 751.2 226.05
L 276.25 226.05
Q 248.05 226.05 228.1 245.95 208.2 265.9 208.2 294.05
L 208.2 408.55
Q 208.2 436.75 228.1 456.6 248.05 476.55 276.25 476.55
L 751.2 476.55
Q 779.35 476.55 799.25 456.6 819.2 436.75 819.2 408.55
L 819.2 294.05
Q 819.2 265.9 799.25 245.95 Z"/>
</g>

<g id="Layer4_0_FILL">
<path fill="#333333" stroke="none" d="
M 270.55 315.6
L 263.8 315.6 263.8 627.35 270.55 627.35
Q 298.75 627.35 318.65 607.4 338.6 587.5 338.6 559.35
L 338.6 383.6
Q 338.6 355.45 318.65 335.5 298.75 315.6 270.55 315.6
M 161.2 335.5
Q 141.35 355.45 141.35 383.6
L 141.35 559.35
Q 141.35 587.5 161.2 607.4 168.8 615 177.6 619.7
L 177.6 323.25
Q 168.8 327.9 161.2 335.5
M 862.85 337.55
Q 855.25 329.95 846.45 325.25
L 846.45 621.7
Q 855.25 617.05 862.85 609.45 882.75 589.5 882.75 561.3
L 882.75 385.6
Q 882.75 357.45 862.85 337.55
M 704.3 337.55
Q 684.35 357.45 684.35 385.6
L 684.35 561.3
Q 684.35 589.5 704.3 609.45 724.2 629.35 752.35 629.35
L 760.25 629.35 760.25 317.6 752.35 317.6
Q 724.2 317.6 704.3 337.55 Z"/>

<path fill="#1D1D1D" stroke="none" d="
M 209.35 315.6
Q 200.45 315.6 192.4 317.6
L 192.4 625.35
Q 200.45 627.35 209.35 627.35
L 263.8 627.35 263.8 315.6 209.35 315.6
M 831.65 319.55
Q 823.65 317.6 814.75 317.6
L 760.25 317.6 760.25 629.35 814.75 629.35
Q 823.65 629.35 831.65 627.35
L 831.65 319.55 Z"/>

<path fill="#FFFFFF" stroke="none" d="
M 192.4 317.6
Q 188.3 318.55 184.45 320.05 183.25 320.55 182.15 321.05 179.8 322.05 177.6 323.25
L 177.6 619.7
Q 179.8 620.9 182.15 621.9 183.25 622.4 184.45 622.85 188.3 624.4 192.4 625.35
L 192.4 317.6
M 846.45 325.25
Q 844.25 324.05 841.95 323 840.8 322.5 839.6 322.05 835.75 320.55 831.65 319.55
L 831.65 627.35
Q 835.75 626.4 839.6 624.85 840.8 624.4 841.95 623.9 844.25 622.85 846.45 621.7
L 846.45 325.25 Z"/>
</g>

<g id="Layer3_0_FILL">
<path fill="#51D5BC" stroke="none" d="
M 785.95 683.75
Q 798.8 671.05 798.8 652.95
L 798.8 553.85 564.3 553.85 564.3 423.4 470.2 423.4 470.2 553.85 228.45 553.85 228.45 652.95
Q 228.45 671.1 241.25 683.75 254.2 696.55 272.05 696.55
L 319.3 696.55 319.3 818.55
Q 319.3 833.1 329.65 843.3 339.9 853.65 354.4 853.65 368.75 853.65 379.05 843.3
L 470.2 752.25 525.85 696.55 564.3 696.55 755.25 696.55
Q 773.25 696.55 785.95 683.75
M 798.8 292.3
Q 798.8 274.45 785.95 261.55 773.2 248.75 755.25 248.75
L 272.05 248.75
Q 254.15 248.75 241.25 261.55 228.45 274.4 228.45 292.3
L 228.45 401.85 798.8 401.85 798.8 292.3 Z"/>

<path fill="#FFFFFF" stroke="none" d="
M 798.8 553.85
L 798.8 401.85 228.45 401.85 228.45 553.85 470.2 553.85 470.2 423.4 564.3 423.4 564.3 553.85 798.8 553.85 Z"/>
</g>

<g id="Layer2_0_FILL">
<path fill="#333333" stroke="none" d="
M 440.4 476.85
Q 440.4 461.15 429.15 450 418.1 438.9 402.4 438.9 386.7 438.9 375.5 450 364.45 461.15 364.45 476.85 364.45 492.55 375.5 503.65 386.7 514.85 402.4 514.85 418.1 514.85 429.15 503.65 440.4 492.55 440.4 476.85
M 660.15 476.85
Q 660.15 461.15 648.95 450 637.85 438.9 622.15 438.9 606.45 438.9 595.25 450 584.2 461.15 584.2 476.85 584.2 492.55 595.25 503.65 606.45 514.85 622.15 514.85 637.85 514.85 648.95 503.65 660.15 492.55 660.15 476.85 Z"/>
</g>

<g id="Layer1_0_FILL">
<path fill="#FFFFFF" stroke="none" d="
M 382.65 451.85
Q 378.25 456.25 378.25 462.4 378.25 468.6 382.65 472.95 387 477.3 393.15 477.3 399.35 477.3 403.7 472.95 408.1 468.6 408.1 462.4 408.1 456.25 403.7 451.85 399.35 447.5 393.15 447.5 387 447.5 382.65 451.85
M 599.9 454.75
Q 595.6 459.1 595.6 465.3 595.6 471.45 599.9 475.8 604.25 480.15 610.45 480.15 616.6 480.15 620.95 475.8 625.3 471.45 625.3 465.3 625.3 459.1 620.95 454.75 616.6 450.45 610.45 450.45 604.25 450.45 599.9 454.75 Z"/>
</g>

<g id="Layer0_0_FILL">
<path fill="#333333" stroke="none" d="
M 810.6 389.95
Q 801.95 381.3 789.8 381.3
L 234.8 381.3
Q 222.6 381.3 214 389.95 205.4 398.5 205.4 410.75
L 205.4 543.05
Q 205.65 554.75 214 563.15 222.65 571.75 234.8 571.75
L 444.85 571.75
Q 456.95 571.75 465.6 563.15 473.8 554.9 474.05 543.05
L 474.05 461.85
Q 474.05 450.6 481.2 443.45 488.85 435.9 499.55 435.9
L 524.35 435.9
Q 535.1 435.9 542.7 443.45 550.3 451.2 550.3 461.85
L 550.3 543.05
Q 550.6 554.75 558.95 563.15 567.7 571.75 579.7 571.75
L 789.8 571.75
Q 801.9 571.75 810.6 563.15 819 554.75 819.2 543.05
L 819.2 410.75
Q 819.2 398.6 810.6 389.95
M 772.05 419.4
Q 777.25 419.4 777.25 424.55
L 777.25 436.85 777.25 530.15
Q 777.25 535.35 772.05 535.35
L 600.75 535.35
Q 595.6 535.35 595.6 530.15
L 595.6 436.85 595.6 424.55
Q 595.6 419.4 600.75 419.4
L 772.05 419.4
M 248.65 424.55
Q 248.65 419.4 253.85 419.4
L 425.15 419.4
Q 430.35 419.4 430.35 424.55
L 430.35 436.85 430.35 530.15
Q 430.35 535.35 425.15 535.35
L 253.85 535.35
Q 248.65 535.35 248.65 530.15
L 248.65 436.85 248.65 424.55 Z"/>

<path fill="#000000" fill-opacity="0.2" stroke="none" d="
M 253.85 419.4
Q 248.65 419.4 248.65 424.55
L 248.65 436.85 430.35 436.85 430.35 424.55
Q 430.35 419.4 425.15 419.4
L 253.85 419.4
M 777.25 424.55
Q 777.25 419.4 772.05 419.4
L 600.75 419.4
Q 595.6 419.4 595.6 424.55
L 595.6 436.85 777.25 436.85 777.25 424.55 Z"/>
</g>
</defs>

<g transform="matrix( 1, 0, 0, 1, 0,0) ">
<use xlink:href="#Layer9_0_FILL"/>
</g>

<g transform="matrix( 1, 0, 0, 1, 0,0) ">
<use xlink:href="#Layer8_0_FILL"/>
</g>

<g transform="matrix( 1, 0, 0, 1, 0,0) ">
<use xlink:href="#Layer7_0_FILL"/>
</g>

<g transform="matrix( 1, 0, 0, 1, 0,0) ">
<use xlink:href="#Layer5_0_FILL"/>
</g>

<g transform="matrix( 1, 0, 0, 1, 0,0) ">
<use xlink:href="#Layer4_0_FILL"/>
</g>

<g transform="matrix( 1, 0, 0, 1, 0,0) ">
<use xlink:href="#Layer3_0_FILL"/>
</g>

<g transform="matrix( 1, 0, 0, 1, 0,0) ">
<use xlink:href="#Layer2_0_FILL"/>
</g>

<g transform="matrix( 1, 0, 0, 1, 0,0) ">
<use xlink:href="#Layer1_0_FILL"/>
</g>

<g transform="matrix( 1, 0, 0, 1, 0,0) ">
<use xlink:href="#Layer0_0_FILL"/>
</g>
</svg>
