<?xml version="1.0" encoding="utf-8"?>
<!-- Generator: flash2svg, http://dissentgraphics.com/tools/flash2svg -->
<svg xmlns:xlink="http://www.w3.org/1999/xlink" id="Instacast" image-rendering="optimizeSpeed" baseProfile="basic" version="1.1" style="background-color:#ffffff" x="0px" y="0px" width="1024px" height="1024px" viewBox="0 0 1024 1024" enable-background="new 0 0 1024 1024" xmlns="http://www.w3.org/2000/svg">
  <defs transform="matrix(1 0 0 1 0 0) "/>
  <g id="shadow">
    <g id="shape">
      <path id="path" fill="#000000" fill-opacity="0.09803921568627451" d="M969.65,351.3 Q961.05,330.45 950.25,310.45 C946.2,302.9 941.9,295.4 937.35,288.05 917.8,256.35 893.95,226.4 865.8,198.25 773.65,106.1 662.35,60 532,60 401.65,60 290.4,106.1 198.25,198.25 106.1,290.4 60,401.65 60,532 60,662.35 106.1,773.65 198.25,865.8 255.7,923.25 320.6,962.8 392.55,984.3 L671.5,984.3 C743.9,962.5 808.55,923.05 865.8,865.8 916.55,815 953.35,758.4 976.15,696.05 994.7,645.2 1004,590.55 1004,532 1004,487.1 998.55,444.45 987.6,404.05 986.35,399.5 985.05,394.95 983.7,390.45 979.6,377.15 974.9,364.1 969.65,351.3z"/>
      <path id="path1" fill="#000000" fill-opacity="0.09803921568627451" d="M392.55,984.3 C436.55,997.45 482.9,1004 532,1004 581.35,1004 628,997.4 671.5,984.3 L392.55,984.3z"/>
    </g>
  </g>
  <g id="criclebg">
    <g id="shape5">
      <path id="path3" fill="#FF6B3F" fill-opacity="1" d="M855.7,188.4 C852.7,185.25 849.3,181.75 845.85,178.3 773.4,105.85 689.1,61.85 593.05,46.4 592.75,46.35 592.45,46.3 592.2,46.25 575.95,43.65 559.4,41.85 542.15,40.9 532.45,40.35 522.3,40.05 512.05,40.05 502.7,40.05 493.45,40.3 484.15,40.8 365.8,46.9 263.85,92.75 178.3,178.3 121.8,234.8 82.65,298.45 60.85,369 Q40.05,436.2 40.05,512.05 C40.05,642.4 86.15,753.7 178.3,845.85 181.7,849.25 185.15,852.6 188.4,855.7 233.95,898.85 283.7,931 337.4,952.15 343.85,954.75 350,957 356.2,959.1 396.7,972.95 439.25,981 484.15,983.35 484.3,983.35 484.4,983.35 484.55,983.35 493.05,983.8 501.15,984.05 509.05,984.05 510.25,984.05 511.15,984.05 512.05,984.05 522.35,984.05 532.55,983.75 542.15,983.25 544.65,983.1 546.9,982.95 549.1,982.8 569.3,981.35 589,978.75 607.8,975.1 615.75,973.55 623.6,971.8 631.2,969.95 695.9,953.7 754.55,924 807.35,880.8 820.6,869.9 833.4,858.3 845.85,845.85 894.45,797.25 930.25,743.35 953.2,684.05 957.15,673.8 960.75,663.4 963.95,652.9 975.65,614.25 982.25,573.5 983.75,530.55 983.95,524.5 984.05,518.3 984.05,512.05 984.05,511.4 984.05,510.7 984.05,510.05 984.05,509.7 984.05,509.4 984.05,509.05 983.85,468.4 979.1,429.55 969.75,392.05 968.65,387.7 967.4,383.05 966.1,378.45 963.85,370.6 961.35,362.65 958.55,354.65 958.25,353.9 957.95,353 957.65,352.1 951.2,333.85 943.5,316.05 934.5,298.45 930.7,291.05 926.55,283.5 922.2,276.05 904.2,245.45 882.1,216.3 855.7,188.4z"/>
    </g>
  </g>
  <g id="criclebg1">
    <g id="shape7">
      <path id="path4" fill="#000000" fill-opacity="0.2" d="M761.2,284.9 C755.05,277.65 748.5,270.6 741.65,263.75 678.35,200.45 601.9,168.8 512.35,168.8 422.8,168.8 346.35,200.45 283,263.75 219.7,327.1 188.05,403.55 188.05,493.1 188.05,582.65 219.7,659.1 283,722.4 288.05,727.45 293.2,732.3 298.2,736.75 L298.175,736.75 L296.05,786.35 429.225,919.525 421.675,976.15 L421.7,976.15 C442.25,979.85 462.95,982.25 484.15,983.35 484.3,983.35 484.4,983.35 484.55,983.35 493.05,983.8 501.15,984.05 509.05,984.05 Q510.55,984.05 512.05,984.05 C522.35,984.05 532.55,983.75 542.15,983.25 544.65,983.1 546.9,982.95 549.1,982.8 569.3,981.35 589,978.75 607.8,975.1 615.75,973.55 623.6,971.8 631.2,969.95 695.9,953.7 754.55,924 807.35,880.8 820.6,869.9 833.4,858.3 845.85,845.85 894.45,797.25 930.25,743.35 953.2,684.05 957.15,673.8 960.75,663.4 963.95,652.9 975.65,614.25 982.25,573.5 983.75,530.55 983.95,524.5 984.05,518.3 984.05,512.05 984.05,511.4 984.05,510.7 984.05,510.05 984.05,509.7 984.05,509.4 984.05,509.05 984.05,505 984,500.95 983.85,496.7 L771.325,284.175 761.175,284.875"/>
    </g>
  </g>
  <mask id="criclebg2">
    <g id="g">
      <g id="shape31">
        <path id="path23" fill="#FFFFFF" fill-opacity="1" d="M855.7,188.4 C852.7,185.25 849.3,181.75 845.85,178.3 773.4,105.85 689.1,61.85 593.05,46.4 592.75,46.35 592.45,46.3 592.2,46.25 575.95,43.65 559.4,41.85 542.15,40.9 532.45,40.35 522.3,40.05 512.05,40.05 502.7,40.05 493.45,40.3 484.15,40.8 365.8,46.9 263.85,92.75 178.3,178.3 121.8,234.8 82.65,298.45 60.85,369 Q40.05,436.2 40.05,512.05 C40.05,642.4 86.15,753.7 178.3,845.85 181.7,849.25 185.15,852.6 188.4,855.7 233.95,898.85 283.7,931 337.4,952.15 343.85,954.75 350,957 356.2,959.1 396.7,972.95 439.25,981 484.15,983.35 484.3,983.35 484.4,983.35 484.55,983.35 493.05,983.8 501.15,984.05 509.05,984.05 510.25,984.05 511.15,984.05 512.05,984.05 522.35,984.05 532.55,983.75 542.15,983.25 544.65,983.1 546.9,982.95 549.1,982.8 569.3,981.35 589,978.75 607.8,975.1 615.75,973.55 623.6,971.8 631.2,969.95 695.9,953.7 754.55,924 807.35,880.8 820.6,869.9 833.4,858.3 845.85,845.85 894.45,797.25 930.25,743.35 953.2,684.05 957.15,673.8 960.75,663.4 963.95,652.9 975.65,614.25 982.25,573.5 983.75,530.55 983.95,524.5 984.05,518.3 984.05,512.05 984.05,511.4 984.05,510.7 984.05,510.05 984.05,509.7 984.05,509.4 984.05,509.05 983.85,468.4 979.1,429.55 969.75,392.05 968.65,387.7 967.4,383.05 966.1,378.45 963.85,370.6 961.35,362.65 958.55,354.65 958.25,353.9 957.95,353 957.65,352.1 951.2,333.85 943.5,316.05 934.5,298.45 930.7,291.05 926.55,283.5 922.2,276.05 904.2,245.45 882.1,216.3 855.7,188.4z"/>
      </g>
    </g>
  </mask>
  <g id="masked" mask="url(#criclebg2)">
    <g id="Calque.__204">
      <g id="shape9">
        <path id="path5" fill="#999999" fill-opacity="1" d="M453.05,768.55 L452.825,768.325 444.925,818.225 453.025,810.125 479.475,836.575 485.7,801.2 473.825,789.325 490.75,772.425 502.45,705.95 468.125,671.625 462.45,707.55 488.25,733.35 453.05,768.55z M463.3,915.85 L466,913.15 474.875,862.725 430.95,906.625 423.2,955.55 C424.05,955 424.8,954.35 425.55,953.6 L442.5,936.65 458.975,953.125 465.2,917.75 463.3,915.85z"/>
        <path id="path8" fill="#FFFFFF" fill-opacity="1" d="M529.85,733.35 L554.35,708.825 549.675,671.85 513.05,708.5 513.05,758.15 546.25,791.35 513.05,824.55 513.05,870.15 562.65,919.75 514.925,967.475 513.05,965.6 513.05,1011 514.95,1009.1 634.65,1128.8 C637.5,1131.65 641,1133.1 645.05,1133.15 649.1,1133.1 652.6,1131.65 655.45,1128.8 658.3,1125.95 659.75,1122.45 659.8,1118.4 659.75,1114.35 658.3,1110.85 655.45,1108 L535.75,988.3 583.475,940.575 583.7,940.8 577.675,893.175 531.85,847.35 567.05,812.15 567.475,812.575 561.45,764.95 529.85,733.35z"/>
        <path id="path9" fill="#CCCCCC" fill-opacity="1" d="M513.05,708.5 L509.025,712.525 502.45,705.95 490.75,772.425 509.05,754.15 513.05,758.15 513.05,708.5z M513.05,824.55 L511.05,826.55 485.7,801.2 479.475,836.575 490.25,847.35 474.875,862.725 466,913.15 511.05,868.15 513.05,870.15 513.05,824.55z M513.05,870.15 L562.65,919.75 514.925,967.475 513.05,965.6 465.2,917.75 463.3,915.85 466,913.15 511.05,868.15 513.05,870.15z M465.2,917.75 L458.975,953.125 494.15,988.3 408.65,1073.75 C405.8,1076.6 404.35,1080.1 404.35,1084.15 404.35,1088.2 405.8,1091.7 408.65,1094.55 411.5,1097.4 415,1098.85 419.05,1098.9 423.1,1098.85 426.6,1097.4 429.45,1094.55 L513.05,1011 513.05,965.6 465.2,917.75z"/>
      </g>
    </g>
    <g id="Calque.__205">
      <g id="shape26">
        <path id="path20" fill="#CCCCCC" fill-opacity="1" d="M511.55,606.95 L509.95,617.4 580.075,990.3 610.05,990.3 544.1,639.5 511.55,606.95z"/>
        <path id="path21" fill="#999999" fill-opacity="1" d="M499.5,520.725 Q495.399,524.137 494.425,529.325 L484.85,580.25 511.55,606.95 544.1,639.5 523.4,529.4 523.375,529.325 L523.4,529.35 C522.75,525.9 521.05,523 518.3,520.75 515.55,518.45 512.45,517.3 508.9,517.35 505.35,517.3 502.25,518.45 499.5,520.75"/>
        <path id="path22" fill="#FFFFFF" fill-opacity="1" d="M509.95,617.4 L511.55,606.95 484.85,580.25 407.75,990.3 437.725,990.3 508.9,611.775 509.95,617.4z"/>
      </g>
    </g>
  </g>
  <g id="Calque.__206">
    <g id="shape33">
      <path id="path24" fill="#FFFFFF" fill-opacity="1" d="M669.225,566.175 Q677.78,540.918 677.825,512.1 L677.85,512.1 C677.8,466.35 661.65,427.25 629.3,394.85 596.95,362.5 557.85,346.35 512.1,346.35 510.55,346.3 509,346.35 507.5,346.4 506.95,346.4 506.45,346.4 506,346.45 L505.025,346.5 L505.05,346.5 C505.15,346.5 505.25,346.5 505.4,346.5 503.75,346.5 502.1,346.55 500.45,346.7 500,346.75 499.5,346.75 499.05,346.8 458.85,349.65 424.1,365.65 394.85,394.85 L394.85,394.875 L394.85,394.9 C369.9,419.85 354.65,448.75 349,481.6 L348.975,481.6 L348.975,481.5 L349,481.5 C347.25,491.35 346.35,501.55 346.35,512.1 346.35,524.2 347.5,535.85 349.8,547 L349.775,546.925 L349.775,546.975 L349.8,546.95 C356,578 371,605.45 394.85,629.3 L394.925,629.375 L394.95,629.4 C398.7,633.1 402.5,636.6 406.45,639.95 L406.425,639.925 L406.55,640.05 C410.8,643.6 415.2,646.9 419.65,649.95 419.7,650 419.8,650.05 419.85,650.1 420.35,650.45 420.85,650.8 421.4,651.15 426.05,654.1 431,654.95 436.3,653.75 441.6,652.55 445.7,649.65 448.65,645.05 451.6,640.45 452.45,635.5 451.25,630.2 450.05,624.9 447.15,620.8 442.6,617.85 442.45,617.8 442.35,617.7 442.25,617.65 L442.075,617.525 L442.1,617.55 C438.6,615.15 435.2,612.55 431.85,609.75 L431.975,609.875 L432,609.9 C428.85,607.25 425.8,604.4 422.75,601.4 422.7,601.35 422.7,601.35 422.7,601.35 404.65,583.3 393.25,562.55 388.45,539.1 L388.425,539.025 L388.425,539.075 L388.45,539.05 C386.65,530.45 385.75,521.45 385.8,512.1 385.75,503.95 386.45,496.05 387.85,488.5 L387.825,488.5 L387.825,488.4 L387.85,488.4 C392.25,463.55 403.9,441.65 422.75,422.75 L422.75,422.725 L422.75,422.75 C444.95,400.55 471.3,388.35 501.85,386.15 502.3,386.1 502.75,386.1 503.2,386.1 504.5,385.95 505.85,385.9 507.2,385.9 507.55,385.85 507.9,385.85 508.25,385.85 508.3,385.85 508.4,385.85 508.5,385.85 509.65,385.8 510.85,385.8 512.1,385.8 547,385.75 576.75,398.1 601.4,422.75 626.05,447.4 638.4,477.2 638.4,512.1 638.4,526.85 636.25,540.65 631.9,553.55 625.85,571.2 615.65,587.15 601.4,601.4 598.45,604.35 595.4,607.15 592.35,609.8 592.3,609.85 592.25,609.9 592.2,609.95 585.25,615.7 578,620.6 570.4,624.65 565.55,627.2 562.35,631.1 560.8,636.3 559.2,641.5 559.7,646.5 562.3,651.3 564.85,656.1 568.7,659.3 573.9,660.9 579.1,662.5 584.1,662.05 588.95,659.5 598.95,654.15 608.5,647.7 617.6,640.1 L617.575,640.1 L617.725,639.975 L617.75,640 C621.65,636.65 625.5,633.05 629.3,629.3 648.1,610.5 661.4,589.45 669.25,566.2 M765.025,514.025 L765.025,512.1 L765.05,512.1 C764.4,441.6 739.7,381.95 690.9,333.1 641.55,283.7 581.95,259 512,259.05 442.15,259.05 382.55,283.75 333.1,333.1 L333.075,333.1 L333.025,333.125 L333.05,333.15 C295.1,371.15 271.8,415.15 263.1,465.15 L263.075,465.075 L263.075,465.125 L263.1,465.1 C260.4,480.2 259.05,495.85 259.05,512.1 259.05,525.2 259.9,537.95 261.65,550.3 L261.625,550.275 L261.6,550.175 L261.6,550.2 C262.3,555.35 263.15,560.4 264.2,565.4 273.75,612.8 296.7,654.65 333.05,691 336.7,694.65 340.4,698.15 344.15,701.5 L344.125,701.475 L344.15,701.5 C361.35,716.95 379.7,729.55 399.25,739.35 399.5,739.4 399.7,739.5 399.95,739.65 L399.75,739.575 L399.75,739.6 C404.55,742.15 409.55,742.7 414.8,741.15 420,739.6 423.9,736.45 426.5,731.7 429.1,726.9 429.65,721.9 428.1,716.7 426.55,711.45 423.4,707.55 418.65,704.95 418.1,704.6 417.5,704.35 416.95,704.1 L416.95,704.075 L416.525,703.875 L416.55,703.9 C400.2,695.65 384.85,685.05 370.5,672.15 L370.475,672.125 L370.45,672.1 C367.2,669.2 364.05,666.2 360.95,663.1 330.35,632.55 311,597.35 302.85,557.55 L302.825,557.525 L302.825,557.5 L302.85,557.5 C302,553.35 301.25,549.2 300.7,544.95 L300.7,544.925 L300.675,544.825 L300.7,544.85 C299.2,534.25 298.45,523.35 298.5,512.1 298.45,498.25 299.6,484.9 301.95,472.05 L301.925,472.025 L301.925,471.975 L301.95,472 C309.4,430 329.05,393 360.95,361 L360.975,360.975 L361,361 C402.75,319.3 453.05,298.45 512,298.5 571,298.45 621.35,319.3 663,361 704.75,402.75 725.6,453.1 725.6,512.1 725.6,571.1 704.75,621.45 663.05,663.1 L663.025,663.1 L663,663.1 C659.85,666.2 656.7,669.2 653.55,672.1 L653.525,672.1 L653.55,672.075 L653.55,672.1 C635.4,688.45 615.7,701.05 594.45,709.95 589.45,712.05 585.9,715.6 583.85,720.65 581.75,725.7 581.75,730.7 583.85,735.75 585.95,740.75 589.5,744.3 594.55,746.4 599.6,748.45 604.65,748.45 609.7,746.35 634.95,735.8 658.4,720.85 679.95,701.45 L679.95,701.425 L679.975,701.4 L680,701.4 C683.65,698.05 687.3,694.6 690.9,691 739.05,642.95 763.75,584.2 765.05,514.85 765.05,514.55 765.05,514.3 765.05,514.05z M719.725,738.6 L719.675,738.65 L719.7,738.65 C689.2,766.9 655.65,787.8 619.05,801.3 613.95,803.15 610.25,806.6 608,811.55 605.7,816.5 605.5,821.5 607.35,826.6 609.2,831.7 612.65,835.4 617.6,837.7 622.55,840 627.55,840.2 632.65,838.35 674.1,823.15 712.05,799.55 746.5,767.6 746.5,767.55 746.5,767.55 746.55,767.55 750.15,764.2 753.7,760.8 757.2,757.25 757.25,757.2 757.25,757.2 757.3,757.2 824.95,689.55 858.75,607.9 858.75,512.15 858.7,416.4 824.85,334.65 757.2,266.9 689.55,199.15 607.85,165.3 512,165.35 416.3,165.3 334.55,199.15 266.75,266.9 L266.725,266.925 L266.75,266.95 C199.15,334.7 165.35,416.4 165.4,512.15 165.4,530.15 166.6,547.65 169,564.6 169.05,565 169.1,565.4 169.2,565.85 170.05,572.45 171.2,579 172.55,585.45 177.95,612 186.4,637.3 197.9,661.35 L197.925,661.375 L197.95,661.4 C214.5,695.95 237.45,727.9 266.75,757.25 270.3,760.8 273.9,764.25 277.55,767.6 277.55,767.65 277.55,767.65 277.6,767.65 283.65,773.3 289.8,778.65 296.15,783.75 L296.075,783.675 L296.125,783.725 L296.1,783.7 C321.1,803.95 347.8,820.15 376.2,832.2 376.25,832.2 376.35,832.2 376.4,832.25 377.05,832.55 377.75,832.85 378.45,833.1 383.6,834.95 388.6,834.75 393.55,832.4 398.5,830.05 401.9,826.35 403.75,821.3 405.6,816.15 405.35,811.15 403.05,806.2 400.75,801.25 397.05,797.9 391.95,796.05 391.9,796 391.85,796 391.8,795.95 366.65,785.3 343.05,771 320.95,753.05 L320.875,752.975 L320.925,753.025 L320.9,753 C315.25,748.45 309.75,743.7 304.4,738.7 L304.375,738.7 L304.325,738.65 L304.35,738.65 C301.05,735.6 297.8,732.5 294.65,729.35 268.6,703.35 248.25,675 233.5,644.35 L233.475,644.325 L233.5,644.35 C223.35,623.15 215.95,600.85 211.2,577.45 L211.175,577.425 L211.15,577.275 L211.15,577.3 C209.95,571.6 208.95,565.85 208.2,560.05 L208.2,560.025 L208.225,560.15 L208.25,560.15 C208.15,559.4 208.05,558.7 207.9,558.05 206.05,544.6 205,530 204.85,514.35 L204.85,513.375 L204.85,513.4 C205.05,427.5 235,354.65 294.65,294.8 L294.675,294.775 L294.7,294.8 C354.75,234.8 427.2,204.8 512,204.8 596.9,204.8 669.35,234.8 729.3,294.8 789.3,354.85 819.3,427.3 819.3,512.15 819.25,597 789.25,669.4 729.3,729.35 L729.225,729.425 L729.25,729.45 C726.1,732.6 722.95,735.65 719.75,738.6z M518.8,448.3 C516.45,445.95 514.05,443.9 511.5,442.05 500,442.1 489.5,444.65 480.05,449.6 479.6,449.85 479.1,450.1 478.65,450.35 472.9,453.5 467.55,457.55 462.55,462.55 453.8,471.3 447.85,481.25 444.7,492.3 442.95,498.55 442.05,505.1 442.05,512.05 442.05,518.5 442.8,524.65 444.35,530.5 454.35,538.85 466.1,543.05 479.55,543.05 494.9,543.05 507.95,537.65 518.8,526.8 529.65,515.95 535.05,502.9 535.05,487.55 535.05,472.2 529.65,459.15 518.8,448.3z"/>
      <path id="path29" fill="#CCCCCC" fill-opacity="1" d="M528.15,443.8 C527.7,443.7 527.3,443.6 526.9,443.5 522.15,442.55 517.2,442.05 512.05,442.05 511.85,442.05 511.65,442.05 511.5,442.05 514.05,443.9 516.45,445.95 518.8,448.3 529.65,459.15 535.05,472.2 535.05,487.55 535.05,502.9 529.65,515.95 518.8,526.8 507.95,537.65 494.9,543.05 479.55,543.05 466.1,543.05 454.35,538.85 444.35,530.5 446.1,537.35 448.95,543.7 452.85,549.65 453.1,550.1 453.4,550.5 453.7,550.95 456.25,554.65 459.2,558.2 462.55,561.55 466,565 469.65,568.05 473.5,570.65 477.75,573.5 482.2,575.8 486.9,577.6 489.35,578.55 491.9,579.35 494.45,580 496.15,580.4 497.9,580.75 499.7,581.05 499.95,581.1 500.2,581.15 500.45,581.2 504.2,581.75 508.05,582.05 512.05,582.05 514.15,582.05 516.2,581.95 518.25,581.8 518.8,581.75 519.3,581.75 519.8,581.7 521.1,581.55 522.4,581.35 523.65,581.2 526.45,580.75 529.2,580.15 531.9,579.4 538.55,577.45 544.8,574.55 550.65,570.65 553.3,568.85 555.85,566.85 558.35,564.6 558.65,564.3 558.95,564 559.3,563.7 560.05,563 560.8,562.3 561.55,561.55 575.2,547.9 582.05,531.4 582.05,512.05 582.05,503.05 580.55,494.65 577.6,486.9 574.2,477.95 568.85,469.85 561.55,462.55 551.85,452.85 540.7,446.6 528.15,443.8z"/>
    </g>
  </g>
</svg>