<?xml version="1.0" encoding="utf-8"?>
<!-- Generator: flash2svg, http://dissentgraphics.com/tools/flash2svg -->
<svg id="Apps-Stockfish" image-rendering="optimizeSpeed" baseProfile="basic" version="1.1" style="background-color:#FFFFFF" x="0px" y="0px" width="1024px" height="1024px" viewBox="0 0 1024 1024" enable-background="new 0 0 1024 1024" xmlns="http://www.w3.org/2000/svg" xmlns:xlink="http://www.w3.org/1999/xlink">
  <defs transform="matrix(1 0 0 1 0 0) "/>
  <g id="background-circle-shadow">
    <g id="shape">
      <path id="path" fill="#000000" fill-opacity="0.09803921568627451" d="M969.6,351.25 Q961,330.4 950.2,310.4 C946.15,302.85 941.85,295.35 937.3,288 917.75,256.3 893.9,226.35 865.75,198.2 773.6,106.05 662.3,59.95 531.95,59.95 401.6,59.95 290.35,106.05 198.2,198.2 106.05,290.35 59.95,401.6 59.95,531.95 59.95,662.3 106.05,773.6 198.2,865.75 290.35,957.9 401.6,1003.95 531.95,1003.95 662.3,1003.95 773.6,957.9 865.75,865.75 916.5,814.95 953.3,758.35 976.1,696 994.65,645.15 1003.95,590.5 1003.95,531.95 1003.95,487.05 998.5,444.4 987.55,404 986.3,399.45 985,394.9 983.65,390.4 979.55,377.1 974.85,364.05 969.6,351.25z"/>
    </g>
  </g>
  <g id="background-circle">
    <g id="shape2">
      <path id="path1" fill="#505A44" fill-opacity="1" d="M969.7,392 C968.6,387.65 967.35,383 966.05,378.4 965.05,375 964.05,371.55 962.9,367.9 961.3,362.75 959.5,357.4 957.6,352.05 951.15,333.8 943.45,316 934.45,298.4 930.65,291 926.5,283.45 922.15,276 901.85,241.5 876.35,208.8 845.8,178.25 773.2,105.65 688.65,61.6 592.15,46.2 575.9,43.6 559.35,41.8 542.1,40.85 532.2,40.3 522.2,40 512.15,40 L512.15,512.1 984,512.1 C984,512.05 984,512.05 984,512 984,511.35 984,510.65 984,510 984,509.65 984,509.35 984,509 983.8,468.35 979.05,429.5 969.7,392z M510.15,512.1 L40,512.1 C40.05,642.45 86.1,753.65 178.25,845.8 234.95,902.45 298.8,941.7 369.35,963.35 406.1,974.6 444.15,981.2 484.1,983.3 484.25,983.3 484.35,983.3 484.5,983.3 493,983.75 501.1,984 509,984 509.4,984 509.8,984 510.15,984 L510.15,512.1z"/>
      <path id="path2" fill="#3C4333" fill-opacity="1" d="M983.7,530.5 C983.9,524.4 984,518.25 984,512.1 L512.15,512.1 512.15,40 C512.1,40 512.05,40 512,40 502.65,40 493.4,40.25 484.1,40.75 365.75,46.85 263.8,92.7 178.25,178.25 Q40,316.5 40,512 C40,512.05 40,512.05 40,512.1 L510.15,512.1 510.15,984 C510.8,984 511.4,984 512,984 512.05,984 512.1,984 512.15,984 522.25,984 532.25,983.75 542.1,983.2 544.6,983.05 546.85,982.9 549.05,982.75 569.25,981.3 588.95,978.7 607.75,975.05 615.7,973.5 623.55,971.75 631.15,969.9 711.95,949.6 783.3,908.3 845.8,845.8 894.4,797.2 930.2,743.3 953.15,684 971.6,636.35 981.8,585.2 983.7,530.5z"/>
    </g>
  </g>
  <g id="object-shadow">
    <g id="shape8">
      <path id="path5" fill="#000000" fill-opacity="0.2" d="M697.2,359 L651.2,313 188.05,583.95 583.25,979.15 C591.7,977.95 599.8,976.6 607.75,975.05 615.7,973.5 623.55,971.75 631.15,969.9 711.95,949.6 783.3,908.3 845.8,845.8 894.4,797.2 930.2,743.3 953.15,684 971.6,636.35 981.8,585.2 983.7,530.5 983.9,524.4 984,518.25 984,512.1 984,512.05 984,512.05 984,512 984,511.35 984,510.65 984,510 984,509.65 984,509.35 984,509 Q983.972,504.085 983.85,499.2 L903,418.35 815.65,442.95 733.7,361 697.2,359z"/>
    </g>
  </g>
  <g id="Symbole.__203">
    <g id="shape10">
      <path id="path6" fill="#C3BFAE" fill-opacity="1" d="M755.15,579.15 C752.6,581.45 750,583.75 747.35,586 745.4,587.65 743.45,589.25 741.5,590.8 732.85,597.75 723.4,604.45 713.25,611 692.35,624.4 670.1,635.75 646.4,645.1 L702,663 C717.7,666.15 727.9,663.95 732.65,656.4 L768.95,598.4 C771.8,592.8 770.65,583.2 765.4,569.2 763.3,571.4 761.1,573.6 758.8,575.75 757.6,576.9 756.4,578 755.15,579.15z M651.4,707.4 C659.05,704.4 659.7,698.4 653.4,689.4 L624.4,653 C620.85,654.1 617.05,655.3 613.25,656.45 571.5,668.9 525.95,675.5 476.45,676.25 L518.4,706.4 C539.75,722.75 584.05,723.1 651.4,707.4z M903.2,512.1 C903.2,512.05 903.2,512.05 903.2,512 L803.75,512 C803.75,512.05 803.75,512.1 803.8,512.15 801.15,518.65 797.65,525.7 793.65,532.5 788.95,540.5 783.5,548.3 777.2,556 781.55,551.6 785.85,551.6 790.2,556 L853.2,619 C885.75,653.1 902.45,617.5 903.2,512.2 L902.5,512.15 903.2,512.1z"/>
      <path id="path9" fill="#959286" fill-opacity="1" d="M653.2,331 C659.5,322 658.85,316 651.2,313 583.85,297.3 539.55,297.65 518.2,314 L470.9,348 C479.65,348.1 488.05,348.3 496.2,348.7 538.2,350.7 577.15,357.05 613.25,367.85 616.2,368.75 619.15,369.65 621.75,370.5 L653.2,331z M733.7,361 C728.95,353.45 718.75,351.25 703.05,354.4 L637,375.7 C664.15,385.55 689.55,398.1 713.25,413.3 723.4,419.85 732.85,426.55 741.5,433.5 743.45,435.05 745.4,436.65 747.35,438.3 Q751.35,441.7 755.15,445.15 C756.4,446.3 757.6,447.4 758.8,448.55 760.7,450.35 762.55,452.2 764.15,453.85 771.3,437 773.25,425.4 770,419 L733.7,361z M790.2,468.3 C785.85,472.7 781.55,472.7 777.2,468.3 783.5,476 788.95,483.8 793.65,491.8 797.5,498.4 800.9,505.15 803.75,512 L903.2,512 C902.45,406.75 885.75,371.2 853.2,405.3 L790.2,468.3z"/>
    </g>
  </g>
  <g id="object">
    <g id="shape22">
      <path id="path16" fill="#C3BFAE" fill-opacity="1" d="M755.15,445.15 Q751.35,441.7 747.35,438.3 C745.4,436.65 743.45,435.05 741.5,433.5 732.85,426.55 723.4,419.85 713.25,413.3 689.55,398.1 664.15,385.55 637,375.7 631.95,373.85 626.9,372.15 621.75,370.5 619.15,369.65 616.2,368.75 613.25,367.85 577.15,357.05 538.2,350.7 496.2,348.7 488.05,348.3 479.65,348.1 470.9,348 469.8,348 468.5,348 467.2,348 457.45,348 447.85,348.2 438.2,348.7 411.75,349.95 386.3,352.95 361.95,357.8 342.8,361.6 324.35,366.5 306.65,372.45 275.95,382.8 247.45,396.4 221.1,413.3 194.05,430.65 172.35,449.45 156.1,469.65 153.25,473.2 150.55,476.75 148.05,480.35 143.6,488.15 141.4,496.85 141.4,506.5 141.4,508.35 141.5,510.2 141.7,512 L141.675,512 L141.7,512 803.75,512 C800.9,505.15 797.5,498.4 793.65,491.8 788.95,483.8 783.5,476 777.2,468.3 773.3,463.5 769,458.7 764.15,453.85 762.55,452.2 760.7,450.35 758.8,448.55 757.6,447.4 756.4,446.3 755.15,445.15z"/>
      <path id="path17" fill="#959286" fill-opacity="1" d="M793.65,532.5 C797.65,525.7 801.15,518.65 803.8,512.15 803.75,512.1 803.75,512.05 803.75,512 L141.7,512 C141.7,512.05 141.7,512.1 141.7,512.15 141.5,513.85 141.4,515.8 141.4,517.8 141.4,527.45 143.6,536.15 148.05,543.95 150.55,547.55 153.25,551.1 156.1,554.65 172.35,574.85 194.05,593.65 221.1,611 289.05,654.55 371.1,676.3 467.2,676.3 470.35,676.3 473.5,676.3 476.45,676.25 525.95,675.5 571.5,668.9 613.25,656.45 617.05,655.3 620.85,654.1 624.4,653 631.9,650.55 639.25,647.9 646.4,645.1 670.1,635.75 692.35,624.4 713.25,611 723.4,604.45 732.85,597.75 741.5,590.8 743.45,589.25 745.4,587.65 747.35,586 750,583.75 752.6,581.45 755.15,579.15 756.4,578 757.6,576.9 758.8,575.75 761.1,573.6 763.3,571.4 765.4,569.2 769.65,564.8 773.6,560.4 777.2,556 783.5,548.3 788.95,540.5 793.65,532.5z"/>
    </g>
  </g>
  <g id="Calque.__201">
    <g id="shape26">
      <path id="path18" fill="#636158" fill-opacity="1" d="M288.375,487.625 Q277.226,476.473 261.5,476.475 L261.5,476.5 C251,476.45 242.05,480.2 234.65,487.65 227.2,495.05 223.45,504 223.5,514.5 223.45,525 227.2,533.95 234.65,541.4 242.05,548.85 251,552.55 261.5,552.55 272,552.55 280.95,548.85 288.4,541.4 295.85,533.95 299.55,525 299.55,514.5 299.55,504 295.85,495.05 288.4,487.65 M282.5,514.5 C282.45,520.25 280.4,525.2 276.35,529.35 272.2,533.4 267.25,535.45 261.5,535.5 255.75,535.45 250.8,533.4 246.7,529.35 242.6,525.2 240.55,520.25 240.55,514.5 240.55,508.75 242.6,503.8 246.7,499.7 250.8,495.6 255.75,493.55 261.5,493.55 267.25,493.55 272.2,495.6 276.35,499.7 280.4,503.8 282.45,508.75 282.5,514.5z"/>
      <path id="path19" fill="#FFFFFF" fill-opacity="1" d="M282.5,514.5 C282.45,508.75 280.4,503.8 276.35,499.7 272.2,495.6 267.25,493.55 261.5,493.55 255.75,493.55 250.8,495.6 246.7,499.7 242.6,503.8 240.55,508.75 240.55,514.5 240.55,520.25 242.6,525.2 246.7,529.35 250.8,533.4 255.75,535.45 261.5,535.5 267.25,535.45 272.2,533.4 276.35,529.35 280.4,525.2 282.45,520.25 282.5,514.5z"/>
    </g>
  </g>
  <g id="Calque.__202">
    <g id="shape31">
      <path id="path22" fill="#AFAB9C" fill-opacity="1" d="M392,420.4 C386.3,414.7 379.4,411.85 371.35,411.85 368.25,411.85 365.35,412.25 362.6,413.1 366.95,414.45 370.9,416.9 374.4,420.4 380.1,426.1 382.95,433 382.95,441.05 382.95,449.1 380.1,456 374.4,461.7 370.9,465.2 366.95,467.6 362.6,468.95 365.35,469.8 368.25,470.25 371.35,470.25 379.4,470.25 386.3,467.4 392,461.7 397.75,456 400.6,449.1 400.6,441.05 400.6,433 397.75,426.1 392,420.4z M518.4,420.4 C512.7,414.7 505.8,411.85 497.75,411.85 494.65,411.85 491.75,412.25 489,413.1 493.35,414.45 497.3,416.9 500.8,420.4 506.5,426.1 509.35,433 509.35,441.05 509.35,449.1 506.5,456 500.8,461.7 497.3,465.2 493.35,467.6 489,468.95 491.75,469.8 494.65,470.25 497.75,470.25 505.8,470.25 512.7,467.4 518.4,461.7 524.15,456 527,449.1 527,441.05 527,433 524.15,426.1 518.4,420.4z M644.8,420.4 C639.1,414.7 632.2,411.85 624.15,411.85 621.05,411.85 618.15,412.25 615.4,413.1 619.75,414.45 623.7,416.9 627.2,420.4 632.9,426.1 635.75,433 635.75,441.05 635.75,449.1 632.9,456 627.2,461.7 623.7,465.2 619.75,467.6 615.4,468.95 618.15,469.8 621.05,470.25 624.15,470.25 632.2,470.25 639.1,467.4 644.8,461.7 650.55,456 653.4,449.1 653.4,441.05 653.4,433 650.55,426.1 644.8,420.4z M434.55,447.35 C431.45,447.35 428.55,447.75 425.8,448.6 430.15,449.95 434.1,452.4 437.6,455.9 443.3,461.6 446.15,468.5 446.15,476.55 446.15,484.6 443.3,491.5 437.6,497.2 434.1,500.7 430.15,503.1 425.8,504.45 428.55,505.3 431.45,505.75 434.55,505.75 442.6,505.75 449.5,502.9 455.2,497.2 460.95,491.5 463.8,484.6 463.8,476.55 463.8,468.5 460.95,461.6 455.2,455.9 449.5,450.2 442.6,447.35 434.55,447.35z M590.2,476.55 C590.2,468.5 587.35,461.6 581.6,455.9 575.9,450.2 569,447.35 560.95,447.35 557.85,447.35 554.95,447.75 552.2,448.6 556.55,449.95 560.5,452.4 564,455.9 569.7,461.6 572.55,468.5 572.55,476.55 572.55,484.6 569.7,491.5 564,497.2 560.5,500.7 556.55,503.1 552.2,504.45 554.95,505.3 557.85,505.75 560.95,505.75 569,505.75 575.9,502.9 581.6,497.2 587.35,491.5 590.2,484.6 590.2,476.55z M687.35,447.35 Q682.7,447.35 678.6,448.6 C682.95,449.95 686.9,452.4 690.4,455.9 696.1,461.6 698.95,468.5 698.95,476.55 698.95,484.6 696.1,491.5 690.4,497.2 686.9,500.7 682.95,503.1 678.6,504.45 681.35,505.3 684.25,505.75 687.35,505.75 695.4,505.75 702.3,502.9 708,497.2 713.75,491.5 716.6,484.6 716.6,476.55 716.6,468.5 713.75,461.6 708,455.9 702.3,450.2 695.4,447.35 687.35,447.35z M644.8,491.35 C639.1,485.65 632.2,482.8 624.15,482.8 621.05,482.8 618.15,483.2 615.4,484.05 619.75,485.4 623.7,487.85 627.2,491.35 632.9,497.05 635.75,503.95 635.75,512 L653.4,512 C653.4,503.95 650.55,497.05 644.8,491.35z M518.4,491.35 C512.7,485.65 505.8,482.8 497.75,482.8 494.65,482.8 491.75,483.2 489,484.05 493.35,485.4 497.3,487.85 500.8,491.35 506.5,497.05 509.35,503.95 509.35,512 L527,512 C527,503.95 524.15,497.05 518.4,491.35z M392,491.35 C386.3,485.65 379.4,482.8 371.35,482.8 368.25,482.8 365.35,483.2 362.6,484.05 366.95,485.4 370.9,487.85 374.4,491.35 380.1,497.05 382.95,503.95 382.95,512 L400.6,512 C400.6,503.95 397.75,497.05 392,491.35z"/>
      <path id="path33" fill="#636158" fill-opacity="1" d="M392,562.3 C386.3,556.55 379.4,553.7 371.35,553.7 368.25,553.7 365.35,554.15 362.6,555 366.95,556.35 370.9,558.8 374.4,562.3 380.1,568 382.95,574.9 382.95,582.95 382.95,591 380.1,597.9 374.4,603.6 370.9,607.1 366.95,609.5 362.6,610.85 365.35,611.7 368.25,612.15 371.35,612.15 379.4,612.15 386.3,609.3 392,603.6 397.75,597.9 400.6,591 400.6,582.95 400.6,574.9 397.75,568 392,562.3z M518.4,562.3 C512.7,556.55 505.8,553.7 497.75,553.7 494.65,553.7 491.75,554.15 489,555 493.35,556.35 497.3,558.8 500.8,562.3 506.5,568 509.35,574.9 509.35,582.95 509.35,591 506.5,597.9 500.8,603.6 497.3,607.1 493.35,609.5 489,610.85 491.75,611.7 494.65,612.15 497.75,612.15 505.8,612.15 512.7,609.3 518.4,603.6 524.15,597.9 527,591 527,582.95 527,574.9 524.15,568 518.4,562.3z M644.8,562.3 C639.1,556.55 632.2,553.7 624.15,553.7 621.05,553.7 618.15,554.15 615.4,555 619.75,556.35 623.7,558.8 627.2,562.3 632.9,568 635.75,574.9 635.75,582.95 635.75,591 632.9,597.9 627.2,603.6 623.7,607.1 619.75,609.5 615.4,610.85 618.15,611.7 621.05,612.15 624.15,612.15 632.2,612.15 639.1,609.3 644.8,603.6 650.55,597.9 653.4,591 653.4,582.95 653.4,574.9 650.55,568 644.8,562.3z M434.55,518.25 C431.45,518.25 428.55,518.7 425.8,519.55 430.15,520.9 434.1,523.35 437.6,526.85 443.3,532.55 446.15,539.45 446.15,547.5 446.15,555.55 443.3,562.45 437.6,568.15 434.1,571.65 430.15,574.05 425.8,575.4 428.55,576.25 431.45,576.7 434.55,576.7 442.6,576.7 449.5,573.85 455.2,568.15 460.95,562.45 463.8,555.55 463.8,547.5 463.8,539.45 460.95,532.55 455.2,526.85 449.5,521.1 442.6,518.25 434.55,518.25z M560.95,518.25 C557.85,518.25 554.95,518.7 552.2,519.55 556.55,520.9 560.5,523.35 564,526.85 569.7,532.55 572.55,539.45 572.55,547.5 572.55,555.55 569.7,562.45 564,568.15 560.5,571.65 556.55,574.05 552.2,575.4 554.95,576.25 557.85,576.7 560.95,576.7 569,576.7 575.9,573.85 581.6,568.15 587.35,562.45 590.2,555.55 590.2,547.5 590.2,539.45 587.35,532.55 581.6,526.85 575.9,521.1 569,518.25 560.95,518.25z M687.35,518.25 C684.25,518.25 681.35,518.7 678.6,519.55 682.95,520.9 686.9,523.35 690.4,526.85 696.1,532.55 698.95,539.45 698.95,547.5 698.95,555.55 696.1,562.45 690.4,568.15 686.9,571.65 682.95,574.05 678.6,575.4 681.35,576.25 684.25,576.7 687.35,576.7 695.4,576.7 702.3,573.85 708,568.15 713.75,562.45 716.6,555.55 716.6,547.5 716.6,539.45 713.75,532.55 708,526.85 702.3,521.1 695.4,518.25 687.35,518.25z M635.75,512 C635.75,520.05 632.9,526.95 627.2,532.65 623.7,536.15 619.75,538.55 615.4,539.9 618.15,540.75 621.05,541.2 624.15,541.2 632.2,541.2 639.1,538.35 644.8,532.65 650.55,526.95 653.4,520.05 653.4,512 L635.75,512z M509.35,512 C509.35,520.05 506.5,526.95 500.8,532.65 497.3,536.15 493.35,538.55 489,539.9 491.75,540.75 494.65,541.2 497.75,541.2 505.8,541.2 512.7,538.35 518.4,532.65 524.15,526.95 527,520.05 527,512 L509.35,512z M400.6,512 L382.95,512 C382.95,520.05 380.1,526.95 374.4,532.65 370.9,536.15 366.95,538.55 362.6,539.9 365.35,540.75 368.25,541.2 371.35,541.2 379.4,541.2 386.3,538.35 392,532.65 397.75,526.95 400.6,520.05 400.6,512z"/>
    </g>
  </g>
</svg>