<?xml version="1.0" encoding="utf-8"?>
<!-- Generator: flash2svg, http://dissentgraphics.com/tools/flash2svg -->
<svg xmlns:xlink="http://www.w3.org/1999/xlink" id="Apps-Whatsapp-Desktop" image-rendering="optimizeSpeed" baseProfile="basic" version="1.1" style="background-color:#ffffff" x="0px" y="0px" width="1024px" height="1024px" viewBox="0 0 1024 1024" enable-background="new 0 0 1024 1024" xmlns="http://www.w3.org/2000/svg">
  <defs transform="matrix(1 0 0 1 0 0) "/>
  <g id="background-circle-shadow">
    <g id="shape">
      <path id="path" fill="#000000" fill-opacity="0.09803921568627451" d="M969.65,351.3 Q961.05,330.45 950.25,310.45 C946.2,302.9 941.9,295.4 937.35,288.05 917.8,256.35 893.95,226.4 865.8,198.25 773.65,106.1 662.35,60 532,60 401.65,60 290.4,106.1 198.25,198.25 106.1,290.4 60,401.65 60,532 60,662.35 106.1,773.65 198.25,865.8 290.4,957.95 401.65,1004 532,1004 662.35,1004 773.65,957.95 865.8,865.8 916.55,815 953.35,758.4 976.15,696.05 994.7,645.2 1004,590.55 1004,532 1004,487.1 998.55,444.45 987.6,404.05 986.35,399.5 985.05,394.95 983.7,390.45 979.6,377.15 974.9,364.1 969.65,351.3z"/>
    </g>
  </g>
  <g id="background-circle">
    <g id="shape2">
      <path id="path1" fill="#2DB53F" fill-opacity="1" d="M966.1,378.45 C965.1,375.05 964.1,371.6 962.95,367.95 961.35,362.8 959.55,357.45 957.65,352.1 951.2,333.85 943.5,316.05 934.5,298.45 930.7,291.05 926.55,283.5 922.2,276.05 901.9,241.55 876.4,208.85 845.85,178.3 773.25,105.7 688.7,61.65 592.2,46.25 575.95,43.65 559.4,41.85 542.15,40.9 532.45,40.35 522.3,40.05 512.05,40.05 502.7,40.05 493.45,40.3 484.15,40.8 365.8,46.9 263.85,92.75 178.3,178.3 Q40.05,316.55 40.05,512.05 C40.05,642.4 86.15,753.7 178.3,845.85 235,902.5 298.85,941.75 369.4,963.4 406.15,974.65 444.2,981.25 484.15,983.35 484.3,983.35 484.4,983.35 484.55,983.35 493.05,983.8 501.15,984.05 509.05,984.05 510.25,984.05 511.15,984.05 512.05,984.05 522.35,984.05 532.55,983.75 542.15,983.25 544.65,983.1 546.9,982.95 549.1,982.8 569.3,981.35 589,978.75 607.8,975.1 615.75,973.55 623.6,971.8 631.2,969.95 712,949.65 783.35,908.35 845.85,845.85 894.45,797.25 930.25,743.35 953.2,684.05 971.65,636.4 981.85,585.25 983.75,530.55 983.95,524.5 984.05,518.3 984.05,512.05 984.05,511.4 984.05,510.7 984.05,510.05 984.05,509.7 984.05,509.4 984.05,509.05 983.85,468.4 979.1,429.55 969.75,392.05 968.65,387.7 967.4,383.05 966.1,378.45z"/>
    </g>
  </g>
  <g id="object-shadow">
    <g id="shape4">
      <path id="path2" fill="#000000" fill-opacity="0.2" d="M983.25,541.5 L753.8,312.05 206.1,821.45 336.425,951.775 L336.45,951.8 C347.45,956.15 358.35,960 369.4,963.4 406.15,974.65 444.2,981.25 484.15,983.35 484.3,983.35 484.4,983.35 484.55,983.35 493.05,983.8 501.15,984.05 509.05,984.05 Q510.55,984.05 512.05,984.05 C522.35,984.05 532.55,983.75 542.15,983.25 544.65,983.1 546.9,982.95 549.1,982.8 569.3,981.35 589,978.75 607.8,975.1 615.75,973.55 623.6,971.8 631.2,969.95 712,949.65 783.35,908.35 845.85,845.85 894.45,797.25 930.25,743.35 953.2,684.05 970.4,639.65 980.4,592.25 983.25,541.5z"/>
    </g>
  </g>
  <g id="Calque.__201">
    <g id="shape6">
      <path id="path3" fill="#65D36D" fill-opacity="1" d="M730.7,712 Q818.55,624.2 818.55,499.95 C818.55,417.1 789.3,346.45 730.7,287.85 672.15,229.3 601.5,200.05 518.65,200.05 435.8,200.05 365.15,229.3 306.55,287.85 248,346.45 218.75,417.1 218.75,499.95 218.75,557.25 232.75,608.8 260.8,654.5 L206.1,821.45 391.25,772.5 C429.95,790.75 472.45,799.85 518.65,799.85 601.5,799.85 672.15,770.6 730.7,712z"/>
    </g>
  </g>
  <g id="Calque.__202">
    <g id="shape8">
      <path id="path4" fill="#FFFFFF" fill-opacity="1" d="M678.6,609.1 C684.05,601.95 682.55,591.65 675.3,586.3 L613.55,540.7 C606.3,535.35 595.15,536.15 588.85,542.5 588.85,542.5 586.15,545.4 563.6,566.7 554.15,575.6 543.2,577.2 530.7,571.5 526.85,569.75 523.05,567.35 519.25,564.35 L491.7,537.9 C490.6,536.4 489.55,535.05 488.5,533.9 L452.5,494.3 C449.6,490.4 447.3,486.55 445.7,482.65 440.4,470 442.3,459.1 451.5,449.95 473.45,427.95 476.4,425.45 476.4,425.45 482.95,419.2 484.05,408.1 478.95,400.75 L435.2,337.7 C430.05,330.25 419.8,328.45 412.45,333.65 Q397.7,344.1 382.9,359.45 353.35,390.25 353.35,415.15 C353.35,445.35 357.05,470.3 397.8,520.15 420.15,548.35 423.6,551.05 430.9,558.65 509.25,640.8 555.5,664.6 595.35,665.85 635.25,666.95 678.6,609.1 678.6,609.1z"/>
    </g>
  </g>
</svg>