<?xml version="1.0" encoding="utf-8"?>
<!-- Generator: flash2svg, http://dissentgraphics.com/tools/flash2svg -->
<svg id="Apps-Visual-Studio-Code" image-rendering="optimizeSpeed" baseProfile="basic" version="1.1" style="background-color:#FFFFFF" x="0px" y="0px" width="1024px" height="1024px" viewBox="0 0 1024 1024" enable-background="new 0 0 1024 1024" xmlns="http://www.w3.org/2000/svg" xmlns:xlink="http://www.w3.org/1999/xlink">
  <defs transform="matrix(1 0 0 1 0 0) "/>
  <g id="background-circle-shadow">
    <g id="shape">
      <path id="path" fill="#000000" fill-opacity="0.09803921568627451" d="M969.6,351.25 Q961,330.4 950.2,310.4 C946.15,302.85 941.85,295.35 937.3,288 917.75,256.3 893.9,226.35 865.75,198.2 773.6,106.05 662.3,59.95 531.95,59.95 401.6,59.95 290.35,106.05 198.2,198.2 106.05,290.35 59.95,401.6 59.95,531.95 59.95,662.3 106.05,773.6 198.2,865.75 290.35,957.9 401.6,1003.95 531.95,1003.95 662.3,1003.95 773.6,957.9 865.75,865.75 916.5,814.95 953.3,758.35 976.1,696 994.65,645.15 1003.95,590.5 1003.95,531.95 1003.95,487.05 998.5,444.4 987.55,404 986.3,399.45 985,394.9 983.65,390.4 979.55,377.1 974.85,364.05 969.6,351.25z"/>
    </g>
  </g>
  <g id="background-circle">
    <g id="shape2">
      <path id="path1" fill="#363437" fill-opacity="1" d="M966.05,378.4 C965.05,375 964.05,371.55 962.9,367.9 961.3,362.75 959.5,357.4 957.6,352.05 951.15,333.8 943.45,316 934.45,298.4 930.65,291 926.5,283.45 922.15,276 901.85,241.5 876.35,208.8 845.8,178.25 773.2,105.65 688.65,61.6 592.15,46.2 575.9,43.6 559.35,41.8 542.1,40.85 532.4,40.3 522.25,40 512,40 502.65,40 493.4,40.25 484.1,40.75 365.75,46.85 263.8,92.7 178.25,178.25 Q40,316.5 40,512 C40,642.35 86.1,753.65 178.25,845.8 234.95,902.45 298.8,941.7 369.35,963.35 406.1,974.6 444.15,981.2 484.1,983.3 484.25,983.3 484.35,983.3 484.5,983.3 493,983.75 501.1,984 509,984 510.2,984 511.1,984 512,984 522.3,984 532.5,983.7 542.1,983.2 544.6,983.05 546.85,982.9 549.05,982.75 569.25,981.3 588.95,978.7 607.75,975.05 615.7,973.5 623.55,971.75 631.15,969.9 711.95,949.6 783.3,908.3 845.8,845.8 894.4,797.2 930.2,743.3 953.15,684 971.6,636.35 981.8,585.2 983.7,530.5 983.9,524.45 984,518.25 984,512 984,511.35 984,510.65 984,510 984,509.65 984,509.35 984,509 983.8,468.35 979.05,429.5 969.7,392 968.6,387.65 967.35,383 966.05,378.4z"/>
    </g>
  </g>
  <g id="object-shadow">
    <g id="shape4">
      <path id="path2" fill="#000000" fill-opacity="0.09803921568627451" d="M984,510 C984,509.65 984,509.35 984,509 983.95,499.05 983.65,489.25 983.05,479.35 L983.025,479.325 L837.5,333.8 532,464.25 303.4,366 186.5,684.05 485.825,983.375 L485.85,983.4 C493.5,983.75 501.2,983.95 509,984 Q510.5,984 512,984 C522.3,984 532.5,983.7 542.1,983.2 544.6,983.05 546.85,982.9 549.05,982.75 569.25,981.3 588.95,978.7 607.75,975.05 615.7,973.5 623.55,971.75 631.15,969.9 711.95,949.6 783.3,908.3 845.8,845.8 894.4,797.2 930.2,743.3 953.15,684 971.6,636.35 981.8,585.2 983.7,530.5 983.9,524.45 984,518.25 984,512 984,511.35 984,510.65 984,510z"/>
    </g>
  </g>
  <g id="object">
    <g id="shape6">
      <path id="path3" fill="#33A4DE" fill-opacity="1" d="M682.425,265.4 L682.9,265 681.5,265 681.5,266.175 682.425,265.4z M681.5,759 L682.125,758.7 681.5,758.175 681.5,759z"/>
      <path id="path4" fill="#743385" fill-opacity="1" d="M682.425,265.4 L681.5,266.175 510.2,407.925 390,510.45 342.5,550.975 186.5,684.05 342.475,756.05 342.5,756.025 510.2,613 630.4,510.45 681.5,466.875 837.5,333.8 682.425,265.4z"/>
      <path id="path8" fill="#632B71" fill-opacity="1" d="M681.5,466.875 L681.5,554.05 681.5,758.175 682.125,758.7 837.5,687.1 837.5,333.8 681.5,466.875z M186.525,336.9 L186.5,336.9 186.5,684.05 342.5,550.975 342.5,469.95 186.525,336.9z"/>
      <path id="path11" fill="#923DA8" fill-opacity="1" d="M681.5,758.175 L681.5,554.05 630.4,510.45 510.2,613 681.5,758.175z M342.5,266.5 L342.5,265 186.525,336.9 342.5,469.95 390,510.45 510.2,407.925 342.5,266.5z M342.5,550.975 L342.5,469.95 390,510.45 342.5,550.975z"/>
      <path id="path14" fill="#33A4DE" fill-opacity="1" d="M186.5,336.875 L186.5,336.9 186.525,336.9 186.5,336.875"/>
      <path id="path20" fill="#33A4DE" fill-opacity="1" d="M342.475,756.05 L342.5,756.05 342.5,756.025 342.475,756.05"/>
    </g>
  </g>
</svg>