<?xml version="1.0" encoding="utf-8"?>
<!-- Generator: flash2svg, http://dissentgraphics.com/tools/flash2svg -->
<svg xmlns:xlink="http://www.w3.org/1999/xlink" id="Apps-Soundcloud" image-rendering="optimizeSpeed" baseProfile="basic" version="1.1" style="background-color:#ffffff" x="0px" y="0px" width="1024px" height="1024px" viewBox="0 0 1024 1024" enable-background="new 0 0 1024 1024" xmlns="http://www.w3.org/2000/svg">
  <defs transform="matrix(1 0 0 1 0 0) "/>
  <g id="shadow">
    <g id="shape">
      <path id="path" fill="#000000" fill-opacity="0.09803921568627451" d="M969.65,351.3 Q961.05,330.45 950.25,310.45 C946.2,302.9 941.9,295.4 937.35,288.05 917.8,256.35 893.95,226.4 865.8,198.25 773.65,106.1 662.35,60 532,60 401.65,60 290.4,106.1 198.25,198.25 106.1,290.4 60,401.65 60,532 60,662.35 106.1,773.65 198.25,865.8 290.4,957.95 401.65,1004 532,1004 662.35,1004 773.65,957.95 865.8,865.8 916.55,815 953.35,758.4 976.15,696.05 994.7,645.2 1004,590.55 1004,532 1004,487.1 998.55,444.45 987.6,404.05 986.35,399.5 985.05,394.95 983.7,390.45 979.6,377.15 974.9,364.1 969.65,351.3z"/>
    </g>
  </g>
  <g id="LogoBg">
    <g id="shape2">
      <path id="path1" fill="#E88D45" fill-opacity="1" d="M929.85,289.65 C927.5,285.3 924.9,280.65 922.2,276.05 901.9,241.55 876.4,208.85 845.85,178.3 773.25,105.7 688.7,61.65 592.2,46.25 575.95,43.65 559.4,41.85 542.15,40.9 532.45,40.35 522.3,40.05 512.05,40.05 502.7,40.05 493.45,40.3 484.15,40.8 365.8,46.9 263.85,92.75 178.3,178.3 157.8,198.8 139.55,220.25 123.6,242.7 108.25,264.25 95.05,286.7 84,309.9 66.35,346.8 54,385.9 47.1,426.7 43.75,446.1 41.65,465.6 40.7,485.5 L40.7,485.475 Q40.05,498.633 40.05,512.05 C40.05,517.2 40.15,522.3 40.25,527.25 40.55,537.15 41.1,546.9 41.85,556.15 42.85,567.65 44.15,578.6 45.8,589.35 51.9,628.8 62.7,666.25 78.05,701.35 79.4,704.45 80.8,707.5 82,710.15 105.2,759.7 137.15,804.7 178.3,845.85 235,902.5 298.85,941.75 369.4,963.4 406.15,974.65 444.2,981.25 484.15,983.35 484.3,983.35 484.4,983.35 484.55,983.35 493.05,983.8 501.15,984.05 509.05,984.05 510.25,984.05 511.15,984.05 512.05,984.05 522.35,984.05 532.55,983.75 542.15,983.25 544.65,983.1 546.9,982.95 549.1,982.8 569.3,981.35 589,978.75 607.8,975.1 615.75,973.55 623.6,971.8 631.2,969.95 712,949.65 783.35,908.35 845.85,845.85 883.85,807.85 914.05,766.6 936.35,722.05 942.6,709.7 948.2,697 953.2,684.05 957.45,673.1 961.25,661.95 964.7,650.45 970.8,629.75 975.55,608.3 978.8,586.15 979.65,580.45 980.4,574.7 981.05,568.8 981.3,566.4 981.55,564 981.8,561.5 982.7,551.45 983.4,541.05 983.75,530.55 983.95,524.5 984.05,518.3 984.05,512.05 984.05,511.4 984.05,510.7 984.05,510.05 984.05,509.7 984.05,509.4 984.05,509.05 983.95,485.3 982.3,462.15 979,439.35 978.25,433.9 977.35,428.45 976.35,422.85 974.55,412.65 972.3,402.3 969.75,392.05 968.65,387.7 967.4,383.05 966.1,378.45 965.1,375.05 964.1,371.6 962.95,367.95 961.35,362.8 959.55,357.45 957.65,352.1 952.6,337.85 946.8,323.85 940.2,309.95 938.35,306.15 936.45,302.3 934.5,298.45 933.05,295.6 931.55,292.75 929.85,289.65z"/>
    </g>
  </g>
  <g id="LogoBg1">
    <g id="shape4">
      <path id="path2" fill="#000000" fill-opacity="0.2" d="M953.2,684.05 C957.45,673.1 961.25,661.95 964.7,650.45 970.75,629.95 975.4,608.85 978.65,587.2 L752.05,360.6 533.3,478.05 381.3,326.05 340.75,487.65 286.05,432.95 246.375,562.325 207.05,523 166.05,661.75 487.8,983.5 C495.35,983.9 502.25,984.05 509.05,984.05 Q510.55,984.05 512.05,984.05 C522.35,984.05 532.55,983.75 542.15,983.25 544.65,983.1 546.9,982.95 549.1,982.8 569.3,981.35 589,978.75 607.8,975.1 615.75,973.55 623.6,971.8 631.2,969.95 712,949.65 783.35,908.35 845.85,845.85 883.85,807.85 914.05,766.6 936.35,722.05 942.6,709.7 948.2,697 953.2,684.05z"/>
    </g>
  </g>
  <g id="Calque.__207">
    <g id="shape6">
      <path id="path3" fill="#FFFFFF" fill-opacity="1" d="M758.2,366.45 Q715.95,324.25 656.25,324.25 C616.45,324.25 582.5,338.3 554.35,366.45 526.8,394 512.75,427.05 512.15,465.7 L512.15,466.75 C512.1,467.3 512.1,467.85 512.1,468.4 512.1,469.45 512.1,470.5 512.15,471.55 L512.15,647.9 C512.15,653.2 514,657.7 517.75,661.4 521.45,665.15 525.95,667 531.25,667 L781.8,667 C783.15,667.05 784.45,667.1 785.75,667.1 811.3,667.1 833.05,658.1 851.05,640.05 851.05,640 851.05,640 851.1,640 869.1,622 878.1,600.25 878.1,574.7 878.1,549.2 869.1,527.45 851.05,509.4 836.4,494.75 819.3,486.1 799.75,483.35 800.2,478.45 800.4,473.45 800.4,468.4 800.4,428.6 786.35,394.6 758.2,366.45z M389.7,346.05 C389.7,338.3 386.95,331.7 381.5,326.25 376.05,320.8 369.45,318.05 361.7,318.05 353.95,318.05 347.35,320.8 341.9,326.25 336.45,331.7 333.7,338.3 333.7,346.05 L333.7,638.05 C333.7,645.8 336.45,652.4 341.9,657.85 347.35,663.3 353.95,666.05 361.7,666.05 369.45,666.05 376.05,663.3 381.5,657.85 386.95,652.4 389.7,645.8 389.7,638.05 L389.7,346.05z M271.4,428.9 C263.65,428.9 257.05,431.65 251.6,437.1 246.15,442.55 243.4,449.15 243.4,456.9 L243.4,638.05 C243.4,645.8 246.15,652.4 251.6,657.85 257.05,663.3 263.65,666.05 271.4,666.05 279.15,666.05 285.75,663.3 291.2,657.85 296.65,652.4 299.4,645.8 299.4,638.05 L299.4,456.9 C299.4,449.15 296.65,442.55 291.2,437.1 285.75,431.65 279.15,428.9 271.4,428.9z M200.9,517.3 C195.45,511.85 188.85,509.1 181.1,509.1 173.35,509.1 166.75,511.85 161.3,517.3 155.85,522.75 153.1,529.35 153.1,537.1 L153.1,638.05 C153.1,645.8 155.85,652.4 161.3,657.85 166.75,663.3 173.35,666.05 181.1,666.05 188.85,666.05 195.45,663.3 200.9,657.85 206.35,652.4 209.1,645.8 209.1,638.05 L209.1,537.1 C209.1,529.35 206.35,522.75 200.9,517.3z M432.2,446.1 C426.75,451.55 424,458.15 424,465.9 L424,638.05 C424,645.8 426.75,652.4 432.2,657.85 437.65,663.3 444.25,666.05 452,666.05 459.75,666.05 466.35,663.3 471.8,657.85 477.25,652.4 480,645.8 480,638.05 L480,465.9 C480,458.15 477.25,451.55 471.8,446.1 466.35,440.65 459.75,437.9 452,437.9 444.25,437.9 437.65,440.65 432.2,446.1z"/>
    </g>
  </g>
</svg>