<?xml version="1.0" encoding="utf-8"?>
<!-- Generator: flash2svg, http://dissentgraphics.com/tools/flash2svg -->
<svg xmlns:xlink="http://www.w3.org/1999/xlink" id="Zeplin" image-rendering="optimizeSpeed" baseProfile="basic" version="1.1" style="background-color:#ffffff" x="0px" y="0px" width="1024px" height="1024px" viewBox="0 0 1024 1024" enable-background="new 0 0 1024 1024" xmlns="http://www.w3.org/2000/svg">
  <defs transform="matrix(1 0 0 1 0 0) "/>
  <g id="background-circle-shadow">
    <g id="shape">
      <path id="path" fill="#000000" fill-opacity="0.09803921568627451" d="M983.7,390.45 C982.6,386.9 981.45,383.4 980.25,379.75 977.05,370.25 973.5,360.7 969.65,351.3 Q961.05,330.45 950.25,310.45 C946.2,302.9 941.9,295.4 937.35,288.05 917.8,256.35 893.95,226.4 865.8,198.25 773.65,106.1 662.35,60 532,60 401.65,60 290.4,106.1 198.25,198.25 110.25,286.25 64.3,391.6 60.3,514.15 60.1,520.25 60,526.1 60,532 60,662.35 106.1,773.65 198.25,865.8 290.4,957.95 401.65,1004 532,1004 662.35,1004 773.65,957.95 865.8,865.8 916.55,815 953.35,758.4 976.15,696.05 994.7,645.2 1004,590.55 1004,532 1004,487.1 998.55,444.45 987.6,404.05 986.35,399.5 985.05,394.95 983.7,390.45z"/>
    </g>
  </g>
  <g id="background-circle">
    <g id="shape2">
      <path id="path1" fill="#E5E5E5" fill-opacity="1" d="M966.1,378.45 C965.1,375.05 964.1,371.6 962.95,367.95 961.35,362.8 959.55,357.45 957.65,352.1 951.2,333.85 943.5,316.05 934.5,298.45 930.7,291.05 926.55,283.5 922.2,276.05 901.9,241.55 876.4,208.85 845.85,178.3 773.25,105.7 688.7,61.65 592.2,46.25 575.95,43.65 559.4,41.85 542.15,40.9 532.45,40.35 522.3,40.05 512.05,40.05 502.7,40.05 493.45,40.3 484.15,40.8 365.8,46.9 263.85,92.75 178.3,178.3 Q40.05,316.55 40.05,512.05 C40.05,512.8 40.05,513.55 40.05,514.15 40.55,643.7 86.7,754.25 178.3,845.85 235,902.5 298.85,941.75 369.4,963.4 406.15,974.65 444.2,981.25 484.15,983.35 484.3,983.35 484.4,983.35 484.55,983.35 493.05,983.8 501.15,984.05 509.05,984.05 510.25,984.05 511.15,984.05 512.05,984.05 522.35,984.05 532.55,983.75 542.15,983.25 544.65,983.1 546.9,982.95 549.1,982.8 569.3,981.35 589,978.75 607.8,975.1 615.75,973.55 623.6,971.8 631.2,969.95 712,949.65 783.35,908.35 845.85,845.85 894.45,797.25 930.25,743.35 953.2,684.05 971.65,636.4 981.85,585.25 983.75,530.55 983.95,524.5 984.05,518.3 984.05,512.05 984.05,511.4 984.05,510.7 984.05,510.05 984.05,509.7 984.05,509.4 984.05,509.05 983.95,488.55 982.7,468.5 980.25,448.75 977.9,429.55 974.4,410.65 969.75,392.05 968.65,387.7 967.4,383.05 966.1,378.45z"/>
    </g>
  </g>
  <mask id="background-circle1">
    <g id="g">
      <g id="shape10">
        <path id="path7" fill="#FFFFFF" fill-opacity="1" d="M966.1,378.45 C965.1,375.05 964.1,371.6 962.95,367.95 961.35,362.8 959.55,357.45 957.65,352.1 951.2,333.85 943.5,316.05 934.5,298.45 930.7,291.05 926.55,283.5 922.2,276.05 901.9,241.55 876.4,208.85 845.85,178.3 773.25,105.7 688.7,61.65 592.2,46.25 575.95,43.65 559.4,41.85 542.15,40.9 532.45,40.35 522.3,40.05 512.05,40.05 502.7,40.05 493.45,40.3 484.15,40.8 365.8,46.9 263.85,92.75 178.3,178.3 Q40.05,316.55 40.05,512.05 C40.05,512.8 40.05,513.55 40.05,514.15 40.55,643.7 86.7,754.25 178.3,845.85 235,902.5 298.85,941.75 369.4,963.4 406.15,974.65 444.2,981.25 484.15,983.35 484.3,983.35 484.4,983.35 484.55,983.35 493.05,983.8 501.15,984.05 509.05,984.05 510.25,984.05 511.15,984.05 512.05,984.05 522.35,984.05 532.55,983.75 542.15,983.25 544.65,983.1 546.9,982.95 549.1,982.8 569.3,981.35 589,978.75 607.8,975.1 615.75,973.55 623.6,971.8 631.2,969.95 712,949.65 783.35,908.35 845.85,845.85 894.45,797.25 930.25,743.35 953.2,684.05 971.65,636.4 981.85,585.25 983.75,530.55 983.95,524.5 984.05,518.3 984.05,512.05 984.05,511.4 984.05,510.7 984.05,510.05 984.05,509.7 984.05,509.4 984.05,509.05 983.95,488.55 982.7,468.5 980.25,448.75 977.9,429.55 974.4,410.65 969.75,392.05 968.65,387.7 967.4,383.05 966.1,378.45z"/>
      </g>
    </g>
  </mask>
  <g id="masked" mask="url(#background-circle1)">
    <g id="object-shadow">
      <g id="shape4">
        <path id="path2" fill="#FFFFFF" fill-opacity="1" d="M381.9,136.75 C370.05,128.7 356.85,124.7 342.35,124.7 322.75,124.7 306.05,131.55 292.25,145.35 278.5,159.25 271.6,175.95 271.6,195.45 L271.8,201.4 C261.1,206.35 252.5,213.9 246,224 239.4,234.05 236.15,245.2 236.15,257.35 236.15,274.4 242.2,289 254.25,301.2 266.45,313.25 281.05,319.3 298.05,319.3 L448.4,319.3 C463.1,319.3 475.65,314.1 486.05,303.65 496.35,293.35 501.5,280.85 501.5,266.2 501.5,253.75 497.65,242.7 489.9,233.05 482.15,223.45 472.35,217.3 460.5,214.55 464.3,208.75 466.2,202.35 466.2,195.45 466.2,185.7 462.75,177.35 455.85,170.45 Q445.4,160 430.75,160 C421.9,160 414.2,162.85 407.75,168.55 402.4,155.5 393.8,144.9 381.9,136.75z M799.3,754.65 C792.25,737.45 780.95,723.5 765.25,712.75 749.65,702.15 732.25,696.9 713.15,696.9 687.35,696.9 665.35,705.9 647.2,724.1 629.1,742.4 620,764.4 620,790.05 L620.25,797.9 C606.15,804.4 594.85,814.35 586.25,827.65 577.6,840.9 573.3,855.6 573.3,871.6 573.3,894.05 581.25,913.3 597.15,929.35 613.2,945.2 632.45,953.2 654.85,953.2 L852.85,953.2 C872.2,953.2 888.75,946.35 902.45,932.55 916,919 922.8,902.55 922.8,883.25 922.8,866.85 917.7,852.3 907.5,839.6 897.3,826.95 884.4,818.85 868.8,815.2 873.8,807.6 876.3,799.15 876.3,790.05 876.3,777.2 871.75,766.25 862.65,757.15 853.5,747.9 842.45,743.4 829.6,743.4 817.95,743.4 807.8,747.15 799.3,754.65z M794.65,268.05 C780.95,268.05 769.3,272.85 759.7,282.5 750.1,292.15 745.3,303.8 745.3,317.4 L745.45,321.55 C737.95,325 731.95,330.25 727.45,337.3 722.85,344.35 720.55,352.1 720.55,360.6 720.55,372.45 724.8,382.65 733.2,391.15 741.7,399.55 751.9,403.8 763.75,403.8 L868.6,403.8 C878.85,403.8 887.6,400.15 894.85,392.85 902.05,385.7 905.6,376.95 905.6,366.75 905.6,358.05 902.9,350.35 897.55,343.65 892.15,336.95 885.3,332.65 877,330.75 879.7,326.7 881,322.25 881,317.4 881,310.6 878.6,304.8 873.8,299.95 868.9,295.1 863.1,292.7 856.3,292.7 850.1,292.7 844.75,294.65 840.25,298.65 836.5,289.55 830.5,282.15 822.25,276.5 813.95,270.85 804.75,268.05 794.65,268.05z"/>
      </g>
    </g>
  </g>
  <g id="Calque.__202">
    <g id="shape12">
      <path id="path8" fill="#F69833" fill-opacity="1" d="M188.4,575.35 L171.85,495.25 62.2,517.95 133.85,587.9 134.4,586.5 188.4,575.35z"/>
      <path id="path9" fill="#FDBD39" fill-opacity="1" d="M134.4,586.5 L133.85,587.9 95.85,680.5 205.5,657.8 188.4,575.35 134.4,586.5z"/>
    </g>
  </g>
  <g id="object">
    <g id="shape16">
      <path id="path10" fill="#FECF33" fill-opacity="1" d="M859.4,414 Q863.2,422.15 865.65,430.95 C850.7,369.65 805.15,323.9 728.9,293.65 650.15,262.5 561.75,257.05 463.7,277.35 365.6,297.65 286.55,337.75 226.6,397.6 168.65,455.6 145,515.7 155.6,577.85 154.75,571.85 154.45,565.85 154.7,559.85 156.1,518.65 182.75,477.5 234.65,436.35 296.8,387.15 376.9,352.4 475,332.1 573.05,311.8 660.4,311.9 736.95,332.4 800.9,349.55 841.7,376.75 859.4,414z"/>
      <path id="path11" fill="#FDBD39" fill-opacity="1" d="M865.65,430.95 Q863.2,422.15 859.4,414 C841.7,376.75 800.9,349.55 736.95,332.4 660.4,311.9 573.05,311.8 475,332.1 376.9,352.4 296.8,387.15 234.65,436.35 182.75,477.5 156.1,518.65 154.7,559.85 154.45,565.85 154.75,571.85 155.6,577.85 L156.7,583.9 C156.75,584 156.75,584.1 156.75,584.2 L157.25,586.25 867.5,439.25 867.1,437.2 C867.1,437.1 867.1,437 867.05,436.95 L865.65,430.95z"/>
      <path id="path12" fill="#F69833" fill-opacity="1" d="M868.25,443.15 L867.5,439.25 157.25,586.25 158.15,590.1 C170.5,636.25 213.45,669.2 286.9,688.85 363.45,709.4 450.8,709.55 548.9,689.25 646.95,668.95 727.05,634.15 789.2,584.9 848.85,537.7 875.2,490.45 868.25,443.15z"/>
      <path id="path13" fill="#F0670B" fill-opacity="1" d="M870.75,468.8 C870.55,460.3 869.7,451.75 868.25,443.15 875.2,490.45 848.85,537.7 789.2,584.9 727.05,634.15 646.95,668.95 548.9,689.25 450.8,709.55 363.45,709.4 286.9,688.85 213.45,669.2 170.5,636.25 158.15,590.1 160.2,598.6 162.8,606.8 166.05,614.65 186.2,663.9 229.15,701.55 294.9,727.6 373.7,758.85 462.15,764.3 560.25,744 658.3,723.7 737.3,683.6 797.2,623.65 847.25,573.65 871.8,522.05 870.75,468.8z"/>
    </g>
  </g>
  <mask id="object1">
    <g id="g1">
      <g id="shape33">
        <path id="path24" fill="#FFFFFF" fill-opacity="1" d="M1007.752,327.932 C983.91,212.724 922.827,122.837 824.493,58.225 726.218,-6.349 619.471,-26.74 504.263,-2.898 389.054,20.944 299.168,82.027 234.545,180.312 169.981,278.636 149.591,385.383 173.433,500.592 197.275,615.8 258.358,705.686 356.633,770.26 454.967,834.873 561.714,855.264 676.922,831.422 792.131,807.58 882.017,746.497 946.581,648.173 1011.204,549.887 1031.594,443.141 1007.752,327.932z M943.756,340.921 C943.767,340.969 943.787,341.067 943.807,341.165 L944.945,347.159 C946.415,355.739 947.266,364.294 947.45,372.834 948.501,426.025 923.948,477.621 873.899,527.651 819.203,582.371 748.58,620.575 662.03,642.265 663.151,639.787 663.83,637.144 664.056,634.289 664.44,628.746 663.044,623.725 659.866,619.226 L659.861,619.201 L531.465,437.45 L531.47,437.475 C531.499,437.367 531.527,437.259 531.566,437.2 L531.542,437.205 L531.613,436.935 C532.062,435.157 532.542,433.526 533.08,431.933 535.089,425.85 534.677,419.91 531.815,414.222 530.861,412.326 529.752,410.667 528.487,409.244 529.638,406.912 530.406,404.455 530.781,401.825 L530.776,401.8 L540.656,326.179 L540.661,326.204 C541.304,321.169 540.499,316.536 538.136,312.276 539.332,310.65 540.35,308.908 541.17,306.951 L541.141,306.932 L542.067,304.621 C543.14,302.408 544.037,300.078 544.784,297.523 547.967,290.942 550.382,284.11 552.032,277.029 552.222,276.224 552.374,275.478 552.467,274.692 553.157,269.393 554.015,264.16 555.078,258.936 555.975,256.606 557.167,254.471 558.595,252.49 559.664,250.992 560.526,249.486 561.271,247.903 561.792,246.722 562.255,245.503 562.777,244.323 L562.747,244.304 L562.815,244.137 L562.844,244.156 C563.808,241.659 564.713,239.123 565.579,236.646 L565.554,236.651 L565.656,236.4 L565.685,236.42 C566.011,235.28 566.347,234.189 566.693,233.148 567.173,231.517 567.495,229.867 567.67,228.248 567.735,227.571 567.789,226.845 567.853,226.168 567.851,225.913 567.898,225.648 567.917,225.491 567.986,224.098 568.045,222.656 568.055,221.224 572.136,218.491 575.072,214.666 576.814,209.761 L576.789,209.767 L581.023,197.657 L581.048,197.652 C583.106,191.559 582.742,185.609 579.978,179.901 579.083,178.044 578.023,176.374 576.807,174.94 660.44,162.841 736.713,170.442 805.615,197.694 881.872,227.917 927.442,273.682 942.373,334.977 L943.756,340.921z M497.064,195.349 L498.953,204.481 L498.978,204.475 C500.226,210.753 503.593,215.673 508.97,219.206 510.448,220.177 511.993,220.98 513.595,221.568 511.555,223.062 508.971,225.129 505.879,227.709 509.074,227.354 512.038,226.383 514.822,224.786 L514.793,224.766 L510.951,230.999 C511.74,230.121 512.469,229.204 513.198,228.288 513.789,227.195 514.311,226.015 514.822,224.786 515.321,224.479 515.77,224.181 516.268,223.874 516.404,223.795 516.531,223.666 516.668,223.587 517.117,223.29 517.517,223.003 517.819,222.736 518.88,222.925 519.979,223.055 521.155,223.067 520.654,224.345 520.202,225.613 519.71,226.94 519.672,226.999 519.682,227.048 519.643,227.107 519.604,227.166 519.565,227.225 519.526,227.284 515.797,232.703 512.846,238.675 510.673,245.2 510.356,246.134 510.088,247.057 509.917,247.961 508.548,254.422 507.444,260.931 506.557,267.497 505.993,269.707 505.262,271.85 504.433,274.013 L504.428,273.988 L494.544,273.353 C493.98,268.16 493.436,263.064 492.951,258.007 492.845,256.753 492.689,255.509 492.436,254.285 491.89,250.415 491.375,246.692 490.88,243.067 L490.875,243.043 L494.123,241.094 490.533,240.28 L490.558,240.275 C489.938,235.552 489.467,231.054 489.026,226.703 488.943,226.057 488.909,225.4 488.827,224.753 488.006,216.345 487.494,208.69 487.291,201.788 487.232,200.269 487.036,198.828 486.752,197.458 L486.747,197.433 Q492.67,196.33 497.064,195.349z M413.392,566.25 L419.589,627.899 418.506,628.837 C418.474,628.435 418.442,628.034 418.4,627.583 L411.307,567.524 413.392,566.25z M413.115,645.22 L413.646,645.569 C413.43,645.512 413.214,645.455 412.998,645.397 413.037,645.338 413.076,645.279 413.115,645.22z M536.328,524.853 L535.381,523.977 C535.4,523.82 535.428,523.712 535.457,523.604 L535.432,523.609 L536.328,524.853z M449.586,548.574 C449.586,547.093 449.596,545.661 449.606,544.23 L450.011,543.967 L450.016,543.992 C449.927,558.613 450.24,573.202 451.043,587.69 451.014,587.798 451.034,587.896 451.055,587.994 451.031,591.828 450.213,595.521 448.55,599.082 447.012,602.259 445.602,605.563 444.282,609.053 444.415,608.464 444.5,607.885 444.633,607.296 447.33,586.773 448.985,567.386 449.589,549.084 449.597,548.878 449.567,548.731 449.586,548.574z M568.215,617.871 L566.647,618.068 L566.652,618.092 C566.549,617.348 566.359,616.672 566.168,615.997 L566.163,615.972 L568.215,617.871z"/>
      </g>
    </g>
  </mask>
  <g id="masked1" mask="url(#object1)">
    <g id="Calque.__203">
      <g id="shape22">
        <path id="path14" fill="#F26700" fill-opacity="1" d="M649.567,200.174 C640.118,119.975 620.308,78.53 590.196,75.877 560.468,70.643 530.567,105.526 500.59,180.507 496.819,189.916 493.168,199.658 489.685,209.723 482.445,201.877 475.227,194.385 468.079,187.235 L468.03,187.245 C410.756,130.321 369.466,110.17 344.258,126.773 317.672,141.16 315.938,187.063 339.096,264.425 358.283,328.517 389.838,399.086 433.704,476.094 425.172,553.785 423.525,623.056 428.756,683.857 L428.766,683.906 C429.386,691.59 430.191,699.184 431.075,706.66 440.485,786.918 460.295,828.364 490.407,831.016 508.206,834.124 526.144,822.855 544.163,797.17 555.935,780.284 567.898,756.67 580.051,726.328 L580.002,726.338 C583.667,717.155 587.272,707.678 590.717,697.927 597.749,705.509 604.77,712.788 611.779,719.762 621.187,729.201 630.166,737.555 638.737,744.921 L638.688,744.931 C682.202,782.492 714.513,794.289 735.562,780.283 762.148,765.896 763.832,720.003 740.664,642.592 734.175,620.856 726.258,598.394 716.975,575.245 698.936,530.268 675.524,482.522 646.789,431.997 656.488,343.904 657.394,266.617 649.567,200.174z M632.675,202.189 C640.421,268.24 639.384,345.146 629.615,432.896 629.382,434.731 629.736,436.445 630.679,438.037 659.65,488.717 683.18,536.541 701.229,581.567 710.353,604.188 718.059,626.131 724.409,647.437 744.287,713.887 745.09,753.292 726.874,765.69 710.955,773.886 685.296,762.653 649.81,732.06 641.535,724.888 632.861,716.778 623.789,707.728 L623.74,707.738 C613.78,697.852 603.894,687.337 593.985,676.214 593.905,676.078 593.787,676 593.718,675.912 579.432,659.926 565.235,642.644 551.05,624.186 522.66,587.171 494.334,545.038 466.033,497.844 460.945,489.297 455.976,480.829 451.184,472.477 452.294,462.546 453.521,452.437 454.924,442.19 458.097,418.046 461.707,394.782 465.716,372.457 475.179,319.49 486.98,271.656 501.119,228.955 L501.177,228.739 C501.206,228.631 501.234,228.523 501.273,228.463 506.03,213.948 511.076,200.088 516.391,186.785 L516.342,186.795 C542.085,122.443 565.93,91.111 587.965,92.729 609.654,96.87 624.547,133.307 632.665,202.14 L632.675,202.189z M355.391,259.521 C335.522,193.12 334.73,153.764 352.994,141.355 372.577,131.125 406.899,150.419 456.069,199.269 465.2,208.357 474.345,218.004 483.493,228.16 469.762,270.369 458.269,317.475 449.006,369.43 444.95,392.021 441.341,415.54 438.072,439.959 437.716,442.433 437.419,444.945 437.063,447.418 399.789,379.564 372.581,316.929 355.401,259.57 L355.391,259.521z M451.489,506.521 C480.128,554.36 508.821,597.03 537.567,634.533 550.932,651.987 564.318,668.313 577.726,683.511 573.436,696.091 568.919,708.31 564.251,720.05 552.716,748.936 541.373,771.35 530.193,787.399 L530.242,787.389 C517.148,806.029 504.597,814.958 492.638,814.165 L492.589,814.175 C470.949,810.024 456.046,773.537 447.918,704.655 447.065,697.326 446.349,689.918 445.671,682.45 441.087,628.714 441.948,568.235 448.217,501.071 449.259,502.898 450.35,504.714 451.5,506.57 L451.489,506.521z"/>
      </g>
    </g>
  </g>
</svg>