
<svg xmlns="http://www.w3.org/2000/svg" version="1.1" xmlns:xlink="http://www.w3.org/1999/xlink" preserveAspectRatio="none" x="0px" y="0px" width="1024px" height="1024px" viewBox="0 0 1024 1024">
<defs>
<g id="Layer6_0_FILL">
<path fill="#000000" fill-opacity="0.09803921568627451" stroke="none" d="
M 969.6 351.25
Q 961 330.4 950.2 310.4 944.1 299.05 937.3 288 907.95 240.45 865.75 198.2 727.5 59.95 531.95 59.95 336.45 59.95 198.2 198.2 59.95 336.45 59.95 531.95 59.95 727.5 198.2 865.75 336.45 1003.95 531.95 1003.95 727.5 1003.95 865.75 865.75 941.9 789.55 976.1 696 1003.95 619.75 1003.95 531.95 1003.95 464.6 987.55 404 985.7 397.15 983.65 390.4 977.5 370.45 969.6 351.25 Z"/>
</g>

<g id="Layer5_0_FILL">
<path fill="#C64040" stroke="none" d="
M 969.7 392
Q 967.95 385.15 966.05 378.4 964.52578125 373.114453125 962.85 367.85 960.3787109375 359.903125 957.6 352.05 947.85 324.5 934.45 298.4 928.65 287.05 922.15 276 891.5 224 845.8 178.25 736.8 69.25 592.15 46.2 567.65 42.3 542.1 40.85 527.2 40 512 40 497.9 40 484.1 40.75 306.55 49.95 178.25 178.25 40 316.5 40 512 40 707.55 178.25 845.8 263.0400390625 930.55703125 369.35 963.35 423.8880859375 980.1630859375 484.1 983.3 484.3 983.3 484.5 983.3 496.65 983.9 509 984 510.5 984 512 984 527.25 984 542.1 983.2 545.6 983 549.05 982.75 579.1 980.6 607.75 975.05 619.55 972.75 631.15 969.9 751.75 939.85 845.8 845.8 918.7 772.85 953.15 684 980.9 612.4 983.7 530.5 984 521.3 984 512 984 511 984 510 984 509.5 984 509 983.65 447.7 969.7 392 Z"/>
</g>

<g id="Layer4_0_FILL">
<path fill="#000000" fill-opacity="0.2" stroke="none" d="
M 984 510
Q 984 509.5 984 509 983.9349609375 497.6025390625 983.4 486.4
L 838.15 341.15 287 733.6 536.85 983.45
Q 539.4845703125 983.3408203125 542.1 983.2 545.6 983 549.05 982.75 579.1 980.6 607.75 975.05 619.55 972.75 631.15 969.9 751.75 939.85 845.8 845.8 918.7 772.85 953.15 684 980.9 612.4 983.7 530.5 984 521.3 984 512 984 511 984 510 Z"/>
</g>

<g id="Layer2_0_FILL">
<path fill="#FFFFFF" stroke="none" d="
M 787.75 315.75
Q 774.6318359375 315.75 763.5 320.5 750.6775390625 304.0775390625 735.3 288.7 642.8 196.2 512 196.2 381.2 196.2 288.7 288.7 272.290625 305.109375 258.8 322.7 244.984375 314.5 227.75 314.5 202.25 314.5 184.25 332.5 166.25 350.5 166.25 376 166.25 401.5 184.25 419.5 193.7568359375 429.0068359375 205.35 433.5 196.2 470.8501953125 196.2 512 196.2 642.8 288.7 735.3 376.598046875 823.198046875 499.05 827.55 501.753125 828.9521484375 505 828.95 505.5 828.95 506 828.95 510.099609375 828.950390625 514.15 828.9
L 809 829.05
Q 813.812890625 829.0546875 817.45 825.9 821.1361328125 822.7365234375 821.85 817.95 822.57578125 813.2169921875 820 809.1 817.417578125 805.0380859375 812.8 803.6 732.819140625 779.0671875 727.25 753.25
L 727.25 753.1
Q 727.2173828125 752.8384765625 727.15 752.55 727.18046875 752.488671875 727.15 752.4 727.2400390625 745.380078125 733.1 737.75 733.4609375 737.3033203125 733.75 736.8 734.537890625 736.062109375 735.3 735.3 827.8 642.8 827.8 512 827.8 469.465234375 818 430.95 825.075390625 426.924609375 831.25 420.75 849.25 402.75 849.25 377.25 849.25 351.75 831.25 333.75 813.25 315.75 787.75 315.75 Z"/>
</g>

<g id="Layer1_0_FILL">
<path fill="#000000" stroke="none" d="
M 464.1 442.65
Q 466.794921875 432.5818359375 468.05 423
L 352.65 423
Q 346.244140625 454.2048828125 354.1 480.55 363.05 510.85 385.7 516.95 408.3 523 431.25 501.2 454.2 479.45 464.1 442.65
M 670.75 481.9
Q 678.775390625 454.986328125 671.9 423
L 556.6 423
Q 557.86484375 433.22109375 560.75 444 570.65 480.8 593.6 502.55 616.55 524.35 639.15 518.3 661.8 512.2 670.75 481.9 Z"/>

<path fill="#CCCCCC" stroke="none" d="
M 464.9 375.55
Q 455.95 345.25 433.35 339.2 410.7 333.1 387.75 354.9 364.8 376.6 354.95 413.4 353.6435546875 418.2560546875 352.65 423
L 468.05 423
Q 471.4740234375 397.56015625 464.9 375.55
M 671.9 423
Q 671.0208984375 418.9166015625 669.9 414.75 660.05 377.95 637.1 356.25 614.15 334.45 591.5 340.55 568.9 346.6 559.95 376.9 553.55078125 398.3248046875 556.6 423
L 671.9 423 Z"/>
</g>
</defs>

<g transform="matrix( 1, 0, 0, 1, 0,0) ">
<use xlink:href="#Layer6_0_FILL"/>
</g>

<g transform="matrix( 1, 0, 0, 1, 0,0) ">
<use xlink:href="#Layer5_0_FILL"/>
</g>

<g transform="matrix( 1, 0, 0, 1, 0,0) ">
<use xlink:href="#Layer4_0_FILL"/>
</g>

<g transform="matrix( 1, 0, 0, 1, 0,0) ">
<use xlink:href="#Layer2_0_FILL"/>
</g>

<g transform="matrix( 1, 0, 0, 1, 0,0) ">
<use xlink:href="#Layer1_0_FILL"/>
</g>
</svg>
