<?xml version="1.0" encoding="utf-8"?>
<!-- Generator: flash2svg, http://dissentgraphics.com/tools/flash2svg -->
<svg xmlns:xlink="http://www.w3.org/1999/xlink" id="3hub" image-rendering="optimizeSpeed" baseProfile="basic" version="1.1" style="background-color:#ffffff" x="0px" y="0px" width="1024px" height="1024px" viewBox="0 0 1024 1024" enable-background="new 0 0 1024 1024" xmlns="http://www.w3.org/2000/svg">
  <defs transform="matrix(1 0 0 1 0 0) "/>
  <g id="shadow">
    <g id="shape">
      <path id="path" fill="#000000" fill-opacity="0.09803921568627451" d="M969.65,351.3 Q961.05,330.45 950.25,310.45 C946.2,302.9 941.9,295.4 937.35,288.05 917.8,256.35 893.95,226.4 865.8,198.25 773.65,106.1 662.35,60 532,60 401.65,60 290.4,106.1 198.25,198.25 106.1,290.4 60,401.65 60,532 60,662.35 106.1,773.65 198.25,865.8 290.4,957.95 401.65,1004 532,1004 662.35,1004 773.65,957.95 865.8,865.8 916.55,815 953.35,758.4 976.15,696.05 994.7,645.2 1004,590.55 1004,532 1004,487.1 998.55,444.45 987.6,404.05 986.35,399.5 985.05,394.95 983.7,390.45 979.6,377.15 974.9,364.1 969.65,351.3z"/>
    </g>
  </g>
  <g id="Calque.__203">
    <g id="shape2">
      <path id="path1" fill="#F6BD3C" fill-opacity="1" d="M674.05,68.65 C667.05,66.05 660.05,63.6 652.75,61.2 617.95,49.9 582.8,42.75 547.6,40 479.25,34.5 410.75,45.1 341.75,71.8 340.8,72.2 339.75,72.6 338.7,73 315.25,82.3 293.05,92.9 272.1,104.9 230.8,128.6 194.5,157.55 163.6,191.6 152.4,203.9 141.9,216.85 132.15,230.3 L132.125,230.3 Q101.326,272.805 79.05,324.15 C62.85,361.5 51.5,399 45.2,435.7 43.5,445.35 42.2,454.6 41.2,463.8 40.75,468.25 40.35,472.4 40,476.55 38,500.95 38.1,525.4 40.25,549.6 42.1,570.55 45.4,591.3 50.15,612.05 50.2,612.2 50.2,612.4 50.25,612.55 55.95,637.1 63.5,661.3 73,685.4 100.7,755.35 140.25,813.8 191.55,860.5 192.85,861.65 194.15,862.8 195.2,863.8 225.9,891.15 260.4,914.15 298.85,933.3 299,933.35 299.1,933.4 299.2,933.45 302.3,935 305.3,936.45 307.85,937.6 312.75,939.95 317.1,941.95 321.45,943.85 322.55,944.3 323.35,944.7 324.2,945.05 333.65,949.15 343.1,952.9 352.1,956.25 354.45,957.1 356.6,957.9 358.7,958.65 359.05,958.8 359.4,958.9 359.75,959.05 378.3,965.5 396.95,970.8 415.6,974.95 423.5,976.65 431.4,978.2 439.1,979.5 440.05,979.7 441.05,979.8 441.8,979.95 453.45,981.8 465,983.2 476.55,984.15 546.35,989.6 615.75,978.6 685.4,951.1 695.6,947.1 705.55,942.85 715,938.4 728.7,932.05 741.7,925.25 754.2,917.95 789.3,897.6 820.65,873.45 848.3,845.45 848.85,844.9 849.45,844.3 850,843.75 853.55,840.05 857.1,836.3 860.55,832.55 868.95,823.3 877.05,813.6 884.8,803.45 904.85,777.3 922.35,748.35 937.4,716.75 940,711.25 942.55,705.65 945.05,699.9 945.3,699.3 945.6,698.65 945.85,698.05 946,697.75 946.1,697.45 946.25,697.15 949.05,690.55 951.7,683.9 954.35,677.15 962.45,655.8 969.05,634.25 974.15,612.3 976.25,603.05 978.15,593.6 979.7,584.1 980.4,579.7 981.1,574.95 981.8,570.2 982.7,562.85 983.55,555.35 984.15,547.6 984.15,547.45 984.15,547.35 984.2,547.25 984.25,545.7 984.4,544.2 984.55,542.65 985.85,523.35 985.85,503.95 984.65,484.25 984.2,477.85 983.65,471.35 982.95,464.65 982.9,464.25 982.85,463.85 982.8,463.5 982.65,461.95 982.45,460.35 982.25,458.8 980.25,442.4 977.3,425.95 973.3,409.1 967.85,385.95 960.45,362.35 951.1,338.7 931.55,289.25 906.05,245.55 874.2,207.2 861.5,191.95 847.5,177.3 832.5,163.6 813.75,146.5 793.15,130.8 770.95,116.65 757.1,107.75 742.65,99.55 727.2,91.75 718.5,87.4 709.35,83.1 699.95,79.05 691.35,75.3 682.8,71.85 674.05,68.65z"/>
    </g>
  </g>
  <g id="Calque.__204">
    <g id="shape4">
      <path id="path2" fill="#000000" fill-opacity="0.2" d="M937.4,716.75 C940,711.25 942.55,705.65 945.05,699.9 945.3,699.3 945.6,698.65 945.85,698.05 946,697.75 946.1,697.45 946.25,697.15 949.05,690.55 951.7,683.9 954.35,677.15 962.45,655.8 969.05,634.25 974.15,612.3 976.25,603.05 978.15,593.6 979.7,584.1 980.4,579.7 981.1,574.95 981.8,570.2 982.7,562.85 983.55,555.35 984.15,547.6 984.15,547.45 984.15,547.35 984.2,547.25 984.25,545.7 984.4,544.2 984.55,542.65 985.85,523.35 985.85,503.95 984.65,484.25 Q984,474.45 982.95,464.65 C982.9,464.25 982.85,463.85 982.8,463.5 982.65,461.95 982.45,460.35 982.25,458.8 982.2,458.6 982.2,458.4 982.2,458.2 L982.175,458.175 L830.05,306.05 544.05,308.05 592.05,356.05 524.975,352.975 480.05,308.05 350.05,280.05 206.05,308.05 233.125,335.125 178.05,490.05 360.05,672.05 352.05,744.05 587.05,979.05 C620.1,973.25 652.7,964 685.4,951.1 695.6,947.1 705.55,942.85 715,938.4 728.7,932.05 741.7,925.25 754.2,917.95 789.3,897.6 820.65,873.45 848.3,845.45 848.85,844.9 849.45,844.3 850,843.75 853.55,840.05 857.1,836.3 860.55,832.55 868.95,823.3 877.05,813.6 884.8,803.45 904.85,777.3 922.35,748.35 937.4,716.75z"/>
    </g>
  </g>
  <g id="Calque.__205">
    <g id="Symbole.__2037_1" overflow="visible">
      <g id="Calque.__211">
        <g id="Symbole.__2039_4" overflow="visible">
          <g id="Calque.__212">
            <g id="shape15">
              <path id="path11" fill="#FFFFFF" fill-opacity="1" d="M354.271,372.971 C351.604,373.947 350.302,375.935 350.302,378.935 L350.302,543.492 C350.302,546.492 351.604,547.504 354.271,546.528 L498.746,493.424 C501.381,492.447 502.714,490.423 502.714,487.423 L502.714,322.902 Q502.714,318.384 498.746,319.866 L354.271,372.971z M183.954,319.866 C181.319,318.89 179.986,319.902 179.986,322.902 L179.986,487.423 C179.986,490.423 181.319,492.447 183.954,493.424 L328.429,546.528 C331.064,547.504 332.398,546.492 332.398,543.492 L332.398,378.935 C332.398,375.935 331.064,373.947 328.429,372.971 L183.954,319.866z M481.667,310.43 C484.873,309.274 484.873,308.153 481.667,306.996 L347.509,259.278 C344.334,258.157 341.16,258.157 337.953,259.278 L203.795,306.996 C200.62,308.153 200.62,309.274 203.795,310.43 L337.953,358.149 C341.16,359.27 344.334,359.27 347.509,358.149 L481.667,310.43z"/>
            </g>
          </g>
        </g>
        <g id="Symbole.__2039_5" overflow="visible">
          <g id="Calque.__213">
            <g id="shape16">
              <path id="path12" fill="#FFFFFF" fill-opacity="1" d="M695.671,372.621 C693.004,373.597 691.702,375.585 691.702,378.585 L691.702,543.142 C691.702,546.142 693.004,547.154 695.671,546.178 L840.146,493.074 C842.781,492.097 844.114,490.073 844.114,487.073 L844.114,322.552 Q844.114,318.034 840.146,319.516 L695.671,372.621z M525.354,319.516 C522.719,318.54 521.386,319.552 521.386,322.552 L521.386,487.073 C521.386,490.073 522.719,492.097 525.354,493.074 L669.829,546.178 C672.464,547.154 673.798,546.142 673.798,543.142 L673.798,378.585 C673.798,375.585 672.464,373.597 669.829,372.621 L525.354,319.516z M823.067,310.08 C826.273,308.924 826.273,307.803 823.067,306.646 L688.909,258.928 C685.734,257.807 682.56,257.807 679.353,258.928 L545.195,306.646 C542.02,307.803 542.02,308.924 545.195,310.08 L679.353,357.799 C682.56,358.92 685.734,358.92 688.909,357.799 L823.067,310.08z"/>
            </g>
          </g>
        </g>
        <g id="Symbole.__2039_6" overflow="visible">
          <g id="Calque.__214">
            <g id="shape17">
              <path id="path13" fill="#FFFFFF" fill-opacity="1" d="M525.471,624.121 C522.804,625.097 521.502,627.085 521.502,630.085 L521.502,794.642 C521.502,797.642 522.804,798.654 525.471,797.678 L669.946,744.574 C672.581,743.597 673.914,741.573 673.914,738.573 L673.914,574.052 Q673.914,569.534 669.946,571.016 L525.471,624.121z M355.154,571.016 C352.519,570.04 351.186,571.052 351.186,574.052 L351.186,738.573 C351.186,741.573 352.519,743.597 355.154,744.574 L499.629,797.678 C502.264,798.654 503.598,797.642 503.598,794.642 L503.598,630.085 C503.598,627.085 502.264,625.097 499.629,624.121 L355.154,571.016z M652.867,561.58 C656.073,560.424 656.073,559.303 652.867,558.146 L518.709,510.428 C515.534,509.307 512.36,509.307 509.153,510.428 L374.995,558.146 C371.82,559.303 371.82,560.424 374.995,561.58 L509.153,609.299 C512.36,610.42 515.534,610.42 518.709,609.299 L652.867,561.58z"/>
            </g>
          </g>
        </g>
      </g>
    </g>
  </g>
</svg>