<?xml version="1.0" encoding="utf-8"?>
<!-- Generator: flash2svg, http://dissentgraphics.com/tools/flash2svg -->
<svg xmlns:xlink="http://www.w3.org/1999/xlink" id="Minecraft" image-rendering="optimizeSpeed" baseProfile="basic" version="1.1" style="background-color:#ffffff" x="0px" y="0px" width="1024px" height="1024px" viewBox="0 0 1024 1024" enable-background="new 0 0 1024 1024" xmlns="http://www.w3.org/2000/svg">
  <defs transform="matrix(1 0 0 1 0 0) "/>
  <g id="shadow">
    <g id="shape">
      <path id="path" fill="#000000" fill-opacity="0.09803921568627451" d="M969.65,351.3 Q961.05,330.45 950.25,310.45 C946.2,302.9 941.9,295.4 937.35,288.05 917.8,256.35 893.95,226.4 865.8,198.25 773.65,106.1 662.35,60 532,60 401.65,60 290.4,106.1 198.25,198.25 106.1,290.4 60,401.65 60,532 60,662.35 106.1,773.65 198.25,865.8 290.4,957.95 401.65,1004 532,1004 662.35,1004 773.65,957.95 865.8,865.8 916.55,815 953.35,758.4 976.15,696.05 994.7,645.2 1004,590.55 1004,532 1004,487.1 998.55,444.45 987.6,404.05 986.35,399.5 985.05,394.95 983.7,390.45 979.6,377.15 974.9,364.1 969.65,351.3z"/>
    </g>
  </g>
  <g id="Symbole.__202">
    <g id="shape2">
      <path id="path1" fill="#65A137" fill-opacity="1" d="M932.05,342.2 L812.05,342.2 812.05,462.2 932.05,462.2 932.05,342.2z"/>
      <path id="path2" fill="#3F2B1F" fill-opacity="1" d="M812.05,342.2 L692.05,342.2 692.05,462.2 812.05,462.2 812.05,342.2z M452.05,342.2 L332.05,342.2 332.05,462.2 452.05,462.2 452.05,342.2z"/>
      <path id="path3" fill="#453321" fill-opacity="1" d="M812.05,582.2 L812.05,462.2 692.05,462.2 692.05,582.2 812.05,582.2z"/>
      <path id="path4" fill="#60452E" fill-opacity="1" d="M812.05,462.2 L812.05,582.2 932.05,582.2 932.05,462.2 812.05,462.2z"/>
      <path id="path5" fill="#2F1F13" fill-opacity="1" d="M932.05,582.2 L812.05,582.2 812.05,702.2 932.05,702.2 932.05,582.2z"/>
      <path id="path6" fill="#90633E" fill-opacity="1" d="M692.05,582.2 L692.05,462.2 572.05,462.2 572.05,582.2 692.05,582.2z"/>
      <path id="path7" fill="#523723" fill-opacity="1" d="M812.05,582.2 L692.05,582.2 692.05,702.2 812.05,702.2 812.05,582.2z"/>
      <path id="path8" fill="#614128" fill-opacity="1" d="M692.05,702.2 L692.05,582.2 572.05,582.2 572.05,702.2 692.05,702.2z"/>
      <path id="path9" fill="#A2643D" fill-opacity="1" d="M812.05,702.2 L692.05,702.2 692.05,822.2 812.05,822.2 812.05,702.2z"/>
      <path id="path10" fill="#5E9730" fill-opacity="1" d="M692.05,462.2 L692.05,342.2 572.05,342.2 572.05,462.2 692.05,462.2z"/>
      <path id="path11" fill="#704527" fill-opacity="1" d="M692.05,942.2 L692.05,822.2 572.05,822.2 572.05,942.2 692.05,942.2z"/>
      <path id="path12" fill="#51321D" fill-opacity="1" d="M692.05,822.2 L692.05,702.2 572.05,702.2 572.05,822.2 692.05,822.2z"/>
      <path id="path15" fill="#72AD3E" fill-opacity="1" d="M332.05,342.2 L452.05,342.2 452.05,222.2 332.05,222.2 332.05,342.2z"/>
      <path id="path16" fill="#6EAB3D" fill-opacity="1" d="M332.05,342.2 L332.05,222.2 212.05,222.2 212.05,342.2 332.05,342.2z"/>
      <path id="path17" fill="#453123" fill-opacity="1" d="M452.05,222.2 L452.05,342.2 572.05,342.2 572.05,222.2 452.05,222.2z"/>
      <path id="path18" fill="#432D1F" fill-opacity="1" d="M572.05,342.2 L452.05,342.2 452.05,462.2 572.05,462.2 572.05,342.2z"/>
      <path id="path19" fill="#67A539" fill-opacity="1" d="M212.05,462.2 L212.05,582.2 332.05,582.2 332.05,462.2 212.05,462.2z"/>
      <path id="path20" fill="#74482D" fill-opacity="1" d="M212.05,582.2 L212.05,702.2 332.05,702.2 332.05,582.2 212.05,582.2z"/>
      <path id="path21" fill="#6A4B2E" fill-opacity="1" d="M572.05,582.2 L572.05,462.2 452.05,462.2 452.05,582.2 572.05,582.2z"/>
      <path id="path22" fill="#64472E" fill-opacity="1" d="M332.05,462.2 L332.05,582.2 452.05,582.2 452.05,462.2 332.05,462.2z"/>
      <path id="path23" fill="#38281A" fill-opacity="1" d="M452.05,582.2 L332.05,582.2 332.05,702.2 452.05,702.2 452.05,582.2z"/>
      <path id="path24" fill="#A8713D" fill-opacity="1" d="M452.05,702.2 L332.05,702.2 332.05,822.2 452.05,822.2 452.05,702.2z"/>
      <path id="path25" fill="#3F2F1D" fill-opacity="1" d="M572.05,582.2 L452.05,582.2 452.05,702.2 572.05,702.2 572.05,582.2z"/>
      <path id="path26" fill="#AC7043" fill-opacity="1" d="M572.05,702.2 L452.05,702.2 452.05,822.2 572.05,822.2 572.05,702.2z"/>
      <path id="path27" fill="#4F3420" fill-opacity="1" d="M332.05,702.2 L212.05,702.2 212.05,822.2 332.05,822.2 332.05,702.2z"/>
      <path id="path28" fill="#69A83B" fill-opacity="1" d="M332.05,462.2 L332.05,342.2 212.05,342.2 212.05,462.2 332.05,462.2z"/>
      <path id="path29" fill="#4A2E18" fill-opacity="1" d="M572.05,942.2 L572.05,822.2 452.05,822.2 452.05,942.2 572.05,942.2z"/>
      <path id="path30" fill="#472B1B" fill-opacity="1" d="M332.05,822.2 L332.05,942.2 452.05,942.2 452.05,822.2 332.05,822.2z"/>
      <path id="path31" fill="#86C14D" fill-opacity="1" d="M692.05,222.2 L692.05,342.2 812.05,342.2 812.05,222.2 692.05,222.2z"/>
      <path id="path32" fill="#79BA45" fill-opacity="1" d="M692.05,342.2 L692.05,222.2 572.05,222.2 572.05,342.2 692.05,342.2z"/>
      <path id="path33" fill="#77B53C" fill-opacity="1" d="M692.05,222.2 L692.05,102.2 572.05,102.2 572.05,222.2 692.05,222.2z"/>
      <path id="path34" fill="#8DC34F" fill-opacity="1" d="M452.05,102.2 L332.05,102.2 332.05,222.2 452.05,222.2 452.05,102.2z"/>
      <path id="path35" fill="#79B742" fill-opacity="1" d="M572.05,102.2 L452.05,102.2 452.05,222.2 572.05,222.2 572.05,102.2z"/>
      <path id="path36" fill="#AFCE69" fill-opacity="1" d="M845.85,178.3 C834.95,167.4 823.75,157.15 812.05,147.3 L812.05,222.2 885.1,222.2 C873.25,207.3 860.1,192.55 845.85,178.3z"/>
      <path id="path37" fill="#6E993D" fill-opacity="1" d="M692.05,74.15 L692.05,102.2 748.5,102.2 C730.35,91.5 711.6,82.15 692.05,74.15z"/>
      <path id="path38" fill="#85B34C" fill-opacity="1" d="M692.05,102.2 L692.05,74.15 C660.5,61.15 627.15,51.85 592.2,46.25 585.6,45.2 578.9,44.25 572.05,43.5 L572.05,102.2 692.05,102.2z"/>
      <path id="path39" fill="#B2D470" fill-opacity="1" d="M748.5,102.2 L692.05,102.2 692.05,222.2 812.05,222.2 812.05,147.3 C791.95,130.4 770.7,115.3 748.5,102.2z"/>
      <path id="path40" fill="#65A138" fill-opacity="1" d="M932.05,293.75 C929.1,288.15 925.7,282.05 922.2,276.05 911.4,257.65 899.1,239.75 885.1,222.2 L812.05,222.2 812.05,342.2 932.05,342.2 932.05,293.75z"/>
      <path id="path41" fill="#98BF5D" fill-opacity="1" d="M932.05,342.2 L954,342.2 C948.45,327.6 941.9,312.95 934.5,298.45 933.75,297 933,295.55 932.05,293.75 L932.05,342.2z"/>
      <path id="path42" fill="#3C2B21" fill-opacity="1" d="M954,342.2 L932.05,342.2 932.05,462.2 981.75,462.2 C979.45,438.4 975.45,414.95 969.75,392.05 968.65,387.7 967.4,383.05 966.1,378.45 963.6,369.7 960.75,360.85 957.65,352.1 956.5,348.9 955.35,345.7 954,342.2z"/>
      <path id="path43" fill="#4D4D4D" fill-opacity="1" d="M932.05,462.2 L932.05,582.2 979.4,582.2 C981.65,565.45 983.15,548.2 983.75,530.55 983.95,524.5 984.05,518.3 984.05,512.05 984.05,511.4 984.05,510.7 984.05,510.05 984.05,509.7 984.05,509.4 984.05,509.05 983.95,493.25 983.2,477.7 981.75,462.2 L932.05,462.2z"/>
      <path id="path44" fill="#666666" fill-opacity="1" d="M945.7,702.2 L932.05,702.2 932.05,730.4 C936.95,721.25 941.5,711.8 945.7,702.2z M709.95,942.2 L692.05,942.2 692.05,950.05 C698.2,947.5 704.3,944.85 709.95,942.2z M332.05,950 L332.05,942.2 314.2,942.2 C320.1,944.95 326.05,947.55 332.05,950z"/>
      <path id="path45" fill="#433323" fill-opacity="1" d="M932.05,702.2 L945.7,702.2 C948.35,696.3 950.85,690.2 953.2,684.05 965.7,651.75 974.4,617.85 979.4,582.2 L932.05,582.2 932.05,702.2z"/>
      <path id="path46" fill="#9A5F3A" fill-opacity="1" d="M932.05,730.4 L932.05,702.2 812.05,702.2 812.05,822.2 868.1,822.2 C893.65,793.35 914.95,762.8 932.05,730.4z"/>
      <path id="path47" fill="#683E24" fill-opacity="1" d="M812.05,876.9 C823.65,867.1 834.9,856.8 845.85,845.85 853.65,838.05 861.1,830.15 868.1,822.2 L812.05,822.2 812.05,876.9z"/>
      <path id="path48" fill="#2B1D12" fill-opacity="1" d="M812.05,876.9 L812.05,822.2 692.05,822.2 692.05,942.2 709.95,942.2 C746.35,925.25 780.3,903.45 812.05,876.9z"/>
      <path id="path51" fill="#764726" fill-opacity="1" d="M692.05,950.05 L692.05,942.2 572.05,942.2 572.05,980.65 C584.7,979.15 596.4,977.3 607.8,975.1 615.75,973.55 623.6,971.8 631.2,969.95 652.1,964.7 672.4,958.05 692.05,950.05z"/>
      <path id="path52" fill="#96BC56" fill-opacity="1" d="M553.65,41.7 C550.45,41.45 547.25,41.2 544.05,41 543.4,40.95 542.8,40.95 542.15,40.9 532.45,40.35 522.3,40.05 512.05,40.05 502.7,40.05 493.45,40.3 484.15,40.8 481.8,40.9 479.45,41.05 476.85,41.2 474.7,41.35 472.55,41.5 470.45,41.7 464.3,42.2 458.15,42.8 452.05,43.5 L452.05,102.2 572.05,102.2 572.05,43.5 C566,42.75 559.85,42.2 553.65,41.7z"/>
      <path id="path53" fill="#B7CE76" fill-opacity="1" d="M452.05,43.5 C409.9,48.3 369.9,58.55 332.05,74.15 L332.05,102.2 452.05,102.2 452.05,43.5z"/>
      <path id="path54" fill="#B4C96F" fill-opacity="1" d="M332.05,102.2 L332.05,74.15 C312.7,82.05 293.9,91.45 275.65,102.2 L332.05,102.2z"/>
      <path id="path55" fill="#79B646" fill-opacity="1" d="M332.05,222.2 L332.05,102.2 275.65,102.2 C253.6,115.2 232.4,130.25 212.05,147.35 L212.05,222.2 332.05,222.2z"/>
      <path id="path56" fill="#8EBD51" fill-opacity="1" d="M212.05,147.35 C200.55,157 189.3,167.3 178.3,178.3 164.1,192.5 151.05,207.1 139.05,222.2 L212.05,222.2 212.05,147.35z"/>
      <path id="path57" fill="#639F36" fill-opacity="1" d="M139.05,222.2 C120.85,245.05 105.15,268.95 92.05,293.8 L92.05,342.2 212.05,342.2 212.05,222.2 139.05,222.2z"/>
      <path id="path58" fill="#69A53C" fill-opacity="1" d="M92.05,342.2 L92.05,293.8 C83.7,309.6 76.35,325.85 70.1,342.2 L92.05,342.2z"/>
      <path id="path59" fill="#7DA745" fill-opacity="1" d="M92.05,342.2 L70.1,342.2 C55.55,380.35 46.35,420.25 42.4,462.2 L92.05,462.2 92.05,342.2z"/>
      <path id="path60" fill="#62A039" fill-opacity="1" d="M212.05,342.2 L92.05,342.2 92.05,462.2 212.05,462.2 212.05,342.2z"/>
      <path id="path61" fill="#3F2F23" fill-opacity="1" d="M212.05,582.2 L212.05,462.2 92.05,462.2 42.4,462.2 Q40.05,486.65 40.05,512.05 C40.05,536.2 41.65,559.75 44.75,582.2 L92.05,582.2 212.05,582.2z"/>
      <path id="path62" fill="#72452C" fill-opacity="1" d="M92.05,582.2 L44.75,582.2 C50.6,624.85 61.85,664.75 78.45,702.2 L92.05,702.2 92.05,582.2z"/>
      <path id="path63" fill="#514E4B" fill-opacity="1" d="M92.05,702.2 L92.05,730.35 C109.3,762.95 130.75,793.65 156.05,822.2 L212.05,822.2 212.05,702.2 92.05,702.2z"/>
      <path id="path64" fill="#4B301C" fill-opacity="1" d="M92.05,730.35 L92.05,702.2 78.45,702.2 C82.7,711.95 87.2,721.2 92.05,730.35z"/>
      <path id="path65" fill="#48311E" fill-opacity="1" d="M212.05,582.2 L92.05,582.2 92.05,702.2 212.05,702.2 212.05,582.2z"/>
      <path id="path66" fill="#2C1D0F" fill-opacity="1" d="M509.05,984.05 C510.25,984.05 511.15,984.05 512.05,984.05 522.35,984.05 532.55,983.75 542.15,983.25 542.8,983.2 543.4,983.15 544.05,983.15 545.75,983 547.45,982.9 549.1,982.8 550.75,982.7 552.4,982.55 553.65,982.45 560.05,981.95 566.35,981.3 572.05,980.65 L572.05,942.2 452.05,942.2 452.05,980.65 C458.2,981.35 464.3,981.95 470.45,982.45 472.65,982.6 474.75,982.75 476.85,982.9 479.45,983.1 481.8,983.25 484.15,983.35 484.3,983.35 484.4,983.35 484.55,983.35 493.05,983.8 501.15,984.05 509.05,984.05z"/>
      <path id="path67" fill="#4E2E1B" fill-opacity="1" d="M332.05,942.2 L332.05,950 C370.05,965.6 410,975.8 452.05,980.65 L452.05,942.2 332.05,942.2z"/>
      <path id="path70" fill="#5E3921" fill-opacity="1" d="M332.05,942.2 L332.05,822.2 212.05,822.2 212.05,876.85 C244.35,903.85 278.4,925.65 314.2,942.2 L332.05,942.2z"/>
      <path id="path71" fill="#5D3A24" fill-opacity="1" d="M178.3,845.85 C189.35,856.9 200.7,867.3 212.05,876.85 L212.05,822.2 156.05,822.2 C163.35,830.45 170.65,838.2 178.3,845.85z"/>
    </g>
  </g>
</svg>