
<svg xmlns="http://www.w3.org/2000/svg" version="1.1" xmlns:xlink="http://www.w3.org/1999/xlink" preserveAspectRatio="none" x="0px" y="0px" width="1024px" height="1024px" viewBox="0 0 1024 1024">
<defs>
<g id="Layer4_0_FILL">
<path fill="#000000" fill-opacity="0.09803921568627451" stroke="none" d="
M 969.6 351.25
Q 961 330.4 950.2 310.4 944.1 299.05 937.3 288 907.95 240.45 865.75 198.2 727.5 59.95 531.95 59.95 336.45 59.95 198.2 198.2 59.95 336.45 59.95 531.95 59.95 727.5 198.2 865.75 336.45 1003.95 531.95 1003.95 727.5 1003.95 865.75 865.75 941.9 789.55 976.1 696 1003.95 619.75 1003.95 531.95 1003.95 464.6 987.55 404 985.7 397.15 983.65 390.4 977.5 370.45 969.6 351.25 Z"/>
</g>

<g id="Layer3_0_FILL">
<path fill="#FFFFFF" stroke="none" d="
M 962.85 367.85
Q 960.3787109375 359.903125 957.6 352.05 947.85 324.5 934.45 298.4 928.65 287.05 922.15 276 891.5 224 845.8 178.25 736.8 69.25 592.15 46.2 567.65 42.3 542.1 40.85 527.2 40 512 40 497.9 40 484.1 40.75 306.55 49.95 178.25 178.25 40 316.5 40 512 40 707.55 178.25 845.8 263.0400390625 930.55703125 369.35 963.35 423.8880859375 980.1630859375 484.1 983.3 484.3 983.3 484.5 983.3 496.65 983.9 509 984 510.5 984 512 984 527.25 984 542.1 983.2 545.6 983 549.05 982.75 579.1 980.6 607.75 975.05 619.55 972.75 631.15 969.9 751.75 939.85 845.8 845.8 918.7 772.85 953.15 684 980.9 612.4 983.7 530.5 984 521.3 984 512 984 511 984 510 984 509.5 984 509 983.65 447.7 969.7 392 967.95 385.15 966.05 378.4 964.52578125 373.114453125 962.85 367.85 Z"/>
</g>

<g id="Layer2_0_FILL">
<path fill="#000000" fill-opacity="0.09803921568627451" stroke="none" d="
M 982.8 547.95
L 737.55 302.7 504.6 376.95 537.45 409.8 377.4 509.55 407.75 539.9 236.1 629.9 585.05 978.85
Q 596.521484375 977.2251953125 607.75 975.05 619.55 972.75 631.15 969.9 751.75 939.85 845.8 845.8 918.7 772.85 953.15 684 977.9216796875 620.084765625 982.8 547.95 Z"/>
</g>

<g id="Layer0_0_FILL">
<path fill="#2E87FB" stroke="none" d="
M 594.4 412.05
Q 590.2 410.25 585.6 410.25
L 324.2 410.25
Q 324.25 434.25 333.5 456.15 342.45 477.3 358.8 493.6 375.1 509.95 396.25 518.9 418.15 528.15 442.1 528.2
L 490.3 528.2 490.3 574.8
Q 490.3 598.8 499.6 620.7 508.55 641.85 524.9 658.15 541.2 674.45 562.4 683.4 584.25 692.65 608.25 692.65
L 608.25 432.95
Q 608.25 428.35 606.45 424.1 604.75 420.05 601.6 416.9 598.5 413.75 594.4 412.05
M 194.8 540.4
Q 194.8 564.4 204.1 586.35 213.05 607.5 229.4 623.85 245.7 640.2 266.9 649.15 288.8 658.4 312.8 658.4
L 361.1 658.4 361.1 704.9
Q 361.1 728.85 370.35 750.75 379.3 771.9 395.6 788.2 411.9 804.5 433.05 813.5 454.9 822.75 478.85 822.8
L 478.85 563.1
Q 478.85 558.5 477.05 554.3 475.35 550.2 472.2 547.05 469.1 543.9 465 542.2 460.8 540.4 456.2 540.4
L 194.8 540.4
M 735.8 293.9
Q 734.1 289.8 730.95 286.65 727.8 283.55 723.75 281.8 719.55 280.05 714.9 280.05
L 453.55 280.05
Q 453.55 304.05 462.8 325.95 471.75 347.15 488.1 363.45 504.45 379.8 525.6 388.75 547.5 398 571.55 398
L 619.7 398 619.7 444.5
Q 619.7 468.5 628.95 490.4 637.95 511.55 654.25 527.85 670.55 544.2 691.7 553.15 713.6 562.4 737.6 562.45
L 737.6 302.7
Q 737.6 298.1 735.8 293.9 Z"/>
</g>
</defs>

<g transform="matrix( 1, 0, 0, 1, 0,0) ">
<use xlink:href="#Layer4_0_FILL"/>
</g>

<g transform="matrix( 1, 0, 0, 1, 0,0) ">
<use xlink:href="#Layer3_0_FILL"/>
</g>

<g transform="matrix( 1, 0, 0, 1, 0,0) ">
<use xlink:href="#Layer2_0_FILL"/>
</g>

<g transform="matrix( 1, 0, 0, 1, 0,0) ">
<use xlink:href="#Layer0_0_FILL"/>
</g>
</svg>
