
<svg xmlns="http://www.w3.org/2000/svg" version="1.1" xmlns:xlink="http://www.w3.org/1999/xlink" preserveAspectRatio="none" x="0px" y="0px" width="1024px" height="1024px" viewBox="0 0 1024 1024">
<defs>
<linearGradient id="Gradient_1" gradientUnits="userSpaceOnUse" x1="79.2375" y1="97.65" x2="75.96249999999999" y2="-74.35" spreadMethod="pad">
<stop  offset="0%" stop-color="#1D99F3"/>

<stop  offset="100%" stop-color="#2972A7"/>
</linearGradient>

<linearGradient id="Gradient_2" gradientUnits="userSpaceOnUse" x1="-76.78750000000001" y1="87.78750000000001" x2="-73.5125" y2="-100.9875" spreadMethod="pad">
<stop  offset="0%" stop-color="#9559B6"/>

<stop  offset="100%" stop-color="#8E44AD"/>
</linearGradient>

<g id="Layer4_0_FILL">
<path fill="#DBE0E3" stroke="none" d="
M 962.85 367.85
Q 960.3787109375 359.903125 957.6 352.05 947.85 324.5 934.45 298.4 928.65 287.05 922.15 276 891.5 224 845.8 178.25 736.8 69.25 592.15 46.2 567.65 42.3 542.1 40.85 527.2 40 512 40 497.9 40 484.1 40.75 306.55 49.95 178.25 178.25 148.0837890625 208.4162109375 124.5 241.3 40 359.158203125 40 512 40 707.55 178.25 845.8 263.0400390625 930.55703125 369.35 963.35 423.8880859375 980.1630859375 484.1 983.3 484.3 983.3 484.5 983.3 496.65 983.9 509 984 510.5 984 512 984 527.25 984 542.1 983.2 545.6 983 549.05 982.75 579.1 980.6 607.75 975.05 619.55 972.75 631.15 969.9 751.75 939.85 845.8 845.8 879.3322265625 812.2447265625 904.7 775.3 924.5193359375 746.5544921875 939.35 715.75 946.894921875 700.1326171875 953.15 684 980.9 612.4 983.7 530.5 984 521.3 984 512 984 511 984 510 984 509.5 984 509 983.65 447.7 969.7 392 967.95 385.15 966.05 378.4 964.52578125 373.114453125 962.85 367.85
M 766.2 570.8
Q 766.2 569.8 766.25 568.85
L 766.25 573.05
Q 766.2 571.95 766.2 570.8
M 715 667.35
Q 715 668.55 714.95 669.7
L 714.95 664.85
Q 715 666.1 715 667.35
M 196 380.35
Q 196 376.65 196.35 373.05
L 196.35 387.65
Q 196 384.05 196 380.35
M 618 738.5
L 618 735.05
Q 618.05 735.9 618.05 736.75 618.05 737.6 618 738.5 Z"/>

<path fill="#72E79F" stroke="none" d="
M 618 735.05
L 618 738.5
Q 618.05 737.6 618.05 736.75 618.05 735.9 618 735.05
M 196.35 373.05
Q 196 376.65 196 380.35 196 384.05 196.35 387.65
L 196.35 373.05
M 714.95 669.7
Q 715 668.55 715 667.35 715 666.1 714.95 664.85
L 714.95 669.7
M 766.25 568.85
Q 766.2 569.8 766.2 570.8 766.2 571.95 766.25 573.05
L 766.25 568.85 Z"/>
</g>

<g id="Layer2_0_FILL">
<path fill="#000000" fill-opacity="0.047058823529411764" stroke="none" d="
M 953.15 684
Q 960.35 665.5 965.85 646.3
L 831.55 512 644.4 434.35 512.05 302 195.25 513.2 647.55 965.5
Q 758.2 933.4 845.8 845.8 879.35 812.25 904.75 775.35 924.5 746.55 939.4 715.75 946.9 700.15 953.15 684
M 766.25 573.05
Q 766.2 571.95 766.2 570.8 766.2 569.8 766.25 568.85
L 766.25 573.05
M 714.95 664.85
Q 715 666.1 715 667.35 715 668.55 714.95 669.7
L 714.95 664.85
M 618 735.05
Q 618.05 735.9 618.05 736.75 618.05 737.6 618 738.5
L 618 735.05 Z"/>

<path fill="#72E79F" stroke="none" d="
M 618.05 736.75
Q 618.05 735.9 618 735.05
L 618 738.5
Q 618.05 737.6 618.05 736.75
M 715 667.35
Q 715 666.1 714.95 664.85
L 714.95 669.7
Q 715 668.55 715 667.35
M 766.2 570.8
Q 766.2 571.95 766.25 573.05
L 766.25 568.85
Q 766.2 569.8 766.2 570.8
M 196 380.35
Q 196 384.05 196.35 387.65
L 196.35 373.05
Q 196 376.65 196 380.35 Z"/>
</g>

<g id="Symbol_1_0_Layer0_0_FILL">
<path fill="url(#Gradient_1)" stroke="none" d="
M 37.05 -76.65
L 27.9 -33 81.2 0 12.7 42.65 1 101 152.25 0 37.05 -76.65 Z"/>

<path fill="url(#Gradient_2)" stroke="none" d="
M 0.5 -101
L 0 -101 -152.25 0 -35.55 78.15 -26.9 34 -81.2 0 -11.15 -43.65 0.5 -101 Z"/>
</g>
</defs>

<g transform="matrix( 1, 0, 0, 1, 0,0) ">
<use xlink:href="#Layer4_0_FILL"/>
</g>

<g transform="matrix( 1, 0, 0, 1, 0,0) ">
<use xlink:href="#Layer2_0_FILL"/>
</g>

<g transform="matrix( 2.0990142822265625, 0, 0, 2.0990142822265625, 512,512) ">
<g transform="matrix( 1, 0, 0, 1, 0,0) ">
<use xlink:href="#Symbol_1_0_Layer0_0_FILL"/>
</g>
</g>
</svg>
