<?xml version="1.0" encoding="utf-8"?>
<!-- Generator: flash2svg, http://dissentgraphics.com/tools/flash2svg -->
<svg xmlns:xlink="http://www.w3.org/1999/xlink" id="iWorks-Numbers" image-rendering="optimizeSpeed" baseProfile="basic" version="1.1" style="background-color:#ffffff" x="0px" y="0px" width="1024px" height="1024px" viewBox="0 0 1024 1024" enable-background="new 0 0 1024 1024" xmlns="http://www.w3.org/2000/svg">
  <defs transform="matrix(1 0 0 1 0 0) "/>
  <g id="shadow">
    <g id="shape">
      <path id="path" fill="#000000" fill-opacity="0.09803921568627451" d="M969.65,351.3 Q961.05,330.45 950.25,310.45 C946.2,302.9 941.9,295.4 937.35,288.05 917.8,256.35 893.95,226.4 865.8,198.25 773.65,106.1 662.35,60 532,60 401.65,60 290.4,106.1 198.25,198.25 106.1,290.4 60,401.65 60,532 60,662.35 106.1,773.65 198.25,865.8 290.4,957.95 401.65,1004 532,1004 662.35,1004 773.65,957.95 865.8,865.8 916.55,815 953.35,758.4 976.15,696.05 994.7,645.2 1004,590.55 1004,532 1004,487.1 998.55,444.45 987.6,404.05 986.35,399.5 985.05,394.95 983.7,390.45 979.6,377.15 974.9,364.1 969.65,351.3z"/>
    </g>
  </g>
  <g id="bg">
    <g id="shape2">
      <path id="path1" fill="#91EC2E" fill-opacity="1" d="M962.95,367.95 C961.35,362.8 959.55,357.45 957.65,352.1 951.2,333.85 943.5,316.05 934.5,298.45 930.7,291.05 926.55,283.5 922.2,276.05 901.9,241.55 876.4,208.85 845.85,178.3 773.25,105.7 688.7,61.65 592.2,46.25 575.95,43.65 559.4,41.85 542.15,40.9 532.45,40.35 522.3,40.05 512.05,40.05 502.7,40.05 493.45,40.3 484.15,40.8 372.05,46.6 274.6,88.05 192.05,165.05 187.35,169.4 182.8,173.8 178.3,178.3 Q40.05,316.55 40.05,512.05 C40.05,642.4 86.15,753.7 178.3,845.85 L178.275,845.825 L178.3,845.85 C235,902.5 298.85,941.75 369.4,963.4 406.15,974.65 444.2,981.25 484.15,983.35 484.3,983.35 484.4,983.35 484.55,983.35 493.05,983.8 501.15,984.05 509.05,984.05 510.25,984.05 511.15,984.05 512.05,984.05 522.35,984.05 532.55,983.75 542.15,983.25 544.65,983.1 546.9,982.95 549.1,982.8 569.3,981.35 589,978.75 607.8,975.1 615.75,973.55 623.6,971.8 631.2,969.95 643.05,967 654.7,963.55 666.2,959.7 732.7,937.1 792.5,899.2 845.85,845.85 877.3,814.4 903.45,780.7 924.1,744.8 935.4,725.2 945.1,704.95 953.2,684.05 962.45,660.2 969.6,635.45 974.75,609.8 979.8,584.3 982.8,557.85 983.75,530.55 983.95,524.5 984.05,518.3 984.05,512.05 984.05,511.4 984.05,510.7 984.05,510.05 984.05,509.7 984.05,509.4 984.05,509.05 983.85,468.4 979.1,429.55 969.75,392.05 968.65,387.7 967.4,383.05 966.1,378.45 965.1,375.05 964.1,371.6 962.95,367.95z"/>
    </g>
  </g>
  <g id="bg1">
    <g id="shape4">
      <path id="path2" fill="#000000" fill-opacity="0.2" d="M748.05,292.05 L656.05,296.05 574.05,214.05 444.05,454.05 402.05,412.05 273.55,812.05 440.7,979.2 C455.2,981.25 469.55,982.6 484.15,983.35 484.3,983.35 484.4,983.35 484.55,983.35 493.05,983.8 501.15,984.05 509.05,984.05 Q510.55,984.05 512.05,984.05 C522.35,984.05 532.55,983.75 542.15,983.25 544.65,983.1 546.9,982.95 549.1,982.8 569.3,981.35 589,978.75 607.8,975.1 615.75,973.55 623.6,971.8 631.2,969.95 643.05,967 654.7,963.55 666.2,959.7 732.7,937.1 792.5,899.2 845.85,845.85 877.3,814.4 903.45,780.7 924.1,744.8 935.4,725.2 945.1,704.95 953.2,684.05 962.45,660.2 969.6,635.45 974.75,609.8 979.8,584.3 982.8,557.85 983.75,530.55 983.8,529.7 983.8,528.85 983.85,527.85 L983.825,527.825 L748.05,292.05z"/>
    </g>
  </g>
  <g id="Calque.__204">
    <g id="Symbole.__2027_1" overflow="visible">
      <g id="Calque.__206">
        <g id="shape12">
          <path id="path8" fill="#FFFFFF" fill-opacity="1" d="M750.496,299.45 Q750.496,289.45 742.286,289.45 L625.706,289.45 C620.247,289.45 617.496,292.8 617.496,299.45 L617.496,799.45 C617.496,806.1 620.247,809.45 625.706,809.45 L742.286,809.45 C747.746,809.45 750.496,806.1 750.496,799.45 L750.496,299.45z M578.5,222 C578.5,215.35 575.749,212 570.29,212 L453.71,212 C448.251,212 445.5,215.35 445.5,222 L445.5,802 C445.5,808.65 448.251,812 453.71,812 L570.29,812 C575.749,812 578.5,808.65 578.5,802 L578.5,222z M281.714,412 C276.254,412 273.504,415.35 273.504,422 L273.504,802 C273.504,808.65 276.254,812 281.714,812 L398.294,812 C403.753,812 406.504,808.65 406.504,802 L406.504,422 C406.504,415.35 403.753,412 398.294,412 L281.714,412z"/>
        </g>
      </g>
    </g>
  </g>
</svg>