
<svg xmlns="http://www.w3.org/2000/svg" version="1.1" xmlns:xlink="http://www.w3.org/1999/xlink" preserveAspectRatio="none" x="0px" y="0px" width="1024px" height="1024px" viewBox="0 0 1024 1024">
<defs>
<g id="Layer4_0_FILL">
<path fill="#000000" fill-opacity="0.09803921568627451" stroke="none" d="
M 969.6 351.25
Q 961 330.4 950.2 310.4 944.1 299.05 937.3 288 907.95 240.45 865.75 198.2 727.5 59.95 531.95 59.95 336.45 59.95 198.2 198.2 59.95 336.45 59.95 531.95 59.95 727.5 198.2 865.75 336.45 1003.95 531.95 1003.95 727.5 1003.95 865.75 865.75 941.9 789.55 976.1 696 1003.95 619.75 1003.95 531.95 1003.95 464.6 987.55 404 985.7 397.15 983.65 390.4 977.5 370.45 969.6 351.25 Z"/>
</g>

<g id="Layer3_0_FILL">
<path fill="#EBEDED" stroke="none" d="
M 969.7 392
Q 967.95 385.15 966.05 378.4 964.52578125 373.114453125 962.85 367.85 960.3787109375 359.903125 957.6 352.05 947.85 324.5 934.45 298.4 928.65 287.05 922.15 276 891.5 224 845.8 178.25 736.8 69.25 592.15 46.2 567.65 42.3 542.1 40.85 527.2 40 512 40 497.9 40 484.1 40.75 306.55 49.95 178.25 178.25 40 316.5 40 512 40 707.55 178.25 845.8 263.0400390625 930.55703125 369.35 963.35 423.8880859375 980.1630859375 484.1 983.3 484.3 983.3 484.5 983.3 496.65 983.9 509 984 510.5 984 512 984 527.25 984 542.1 983.2 545.6 983 549.05 982.75 579.1 980.6 607.75 975.05 619.55 972.75 631.15 969.9 751.75 939.85 845.8 845.8 918.7 772.85 953.15 684 980.9 612.4 983.7 530.5 984 521.3 984 512 984 511 984 510 984 509.5 984 509 983.65 447.7 969.7 392 Z"/>
</g>

<g id="Layer2_0_FILL">
<path fill="#333333" fill-opacity="0.2" stroke="none" d="
M 953.15 684
Q 969.479296875 641.8677734375 977.15 596.15
L 646 265 588 333 527 272 438 293 398 409 330 426 369.35 465.35 329 718 241 758 464.95 981.95
Q 474.4484375 982.797265625 484.1 983.3 484.3 983.3 484.5 983.3 496.65 983.9 509 984 510.5 984 512 984 527.25 984 542.1 983.2 545.6 983 549.05 982.75 579.1 980.6 607.75 975.05 619.55 972.75 631.15 969.9 751.75 939.85 845.8 845.8 918.7 772.85 953.15 684 Z"/>
</g>

<g id="Layer0_0_MEMBER_0_FILL">
<path fill="#E37031" stroke="none" d="
M 57.85 34.3
Q 55.4 36.6 53.8 39.95 52.15 43.4 51.25 47.95
L 49.85 54.95 42.8 54.95
Q 42.3 54.95 41.9 55.25 41.55 55.55 41.2 56.05 40.9 56.5 40.65 57.2
L 40.25 58.45 40 60.85
Q 40 61.9 40.3 62.25 40.65 62.6 41.2 62.6
L 48.35 62.6 39.2 108.25
Q 38.5 111.6 37.7 113.9 36.85 116.3 35.7 117.8 34.55 119.25 32.8 120.05 31.2 120.75 28.75 120.75
L 27.25 120.7 24.7 120.25
Q 24.4 120.25 24.05 120.6 23.8 120.9 23.55 121.5
L 22.6 125.8 22.7 126.7 23.05 127.3
Q 23.35 127.6 25.05 128.05 26.5 128.4 29.15 128.4 33 128.4 36.05 127.35 39.15 126.2 41.45 124 43.75 121.85 45.45 118.3 47.05 114.85 48 110.15
L 57.55 62.6 68.8 62.6
Q 69.25 62.6 69.6 62.3 70 62.05 70.3 61.6 70.65 61.05 70.85 60.55
L 71.3 59.35 71.55 58
Q 71.65 57.55 71.65 56.75 71.65 55.75 71.3 55.35 70.9 54.95 70.35 54.95
L 59.1 54.95 60.05 49.9
Q 60.65 46.85 61.5 44.4 62.35 42.1 63.6 40.5 64.8 39 66.5 38.25 68.1 37.55 70.6 37.55 72 37.55 72.95 37.75 74.25 38.05 74.8 38.25
L 76.15 38.7
Q 76.8 38.95 77.15 38.95 77.4 38.95 77.75 38.6 78 38.3 78.25 37.7
L 78.65 36.5 79.1 33.5
Q 79.1 33 78.95 32.45 78.75 31.95 78.45 31.65 77.95 31.25 77.25 31 76.3 30.6 75.2 30.4
L 72.75 30
Q 71.85 29.9 70.15 29.9 66.45 29.9 63.3 30.95 60.2 32.1 57.85 34.3 Z"/>
</g>

<g id="Layer0_1_MEMBER_0_FILL">
<path fill="#6A899E" stroke="none" d="
M 102.15 32.05
L 102.1 31.3
Q 101.95 30.9 101.45 30.7 101 30.5 100.15 30.4
L 97.95 30.25 95.65 30.4
Q 94.7 30.45 94.1 30.7 93.5 30.95 93.3 31.3 93.1 31.55 92.9 32.05
L 78.05 106.65
Q 77.8 107.5 78.65 107.95 79.4 108.4 81.75 108.4 83.9 108.4 85.1 108 86.15 107.65 86.3 106.65
L 87.3 101.75
Q 90.15 105.4 93.65 107.2 97.3 109.1 102.25 109.1 107.1 109.1 111 107.3 114.85 105.5 117.85 102.5 120.9 99.45 122.9 95.6 124.95 91.9 126.35 87.65 127.7 83.5 128.3 79.5 128.95 75.6 128.95 72.1 128.95 70.6 128.7 68.45 128.5 66.5 127.95 64.45 127.3 62.25 126.35 60.55 125.35 58.7 123.65 57.15 122 55.7 119.55 54.8 117.15 53.9 113.8 53.9 110.75 53.9 107.6 55.05 104.3 56.35 101.95 58 99.45 59.65 97.4 61.85 95.45 64 94.6 65.9
L 97 57.5
Q 97.5 55.6 97.65 54.5
L 102.15 32.05
M 119 69.4
Q 119.3 71.35 119.3 72.85 119.3 75.35 118.8 78.85 118.4 81.75 117.4 85.2 116.6 88.1 115.1 91.2 113.7 94.15 111.8 96.3 109.95 98.5 107.55 99.9 105.25 101.25 102.3 101.25 98.6 101.25 95.5 99.4 92.45 97.5 89.85 93.7
L 91.7 84.45
Q 92.7 79.5 94.75 75.45 96.95 71.2 99.5 68.3 102.2 65.3 105.3 63.55 108.5 61.8 111.45 61.8 114 61.8 115.55 62.95 117.05 64 117.9 65.8 118.7 67.4 119 69.4 Z"/>
</g>
</defs>

<g transform="matrix( 1, 0, 0, 1, 0,0) ">
<use xlink:href="#Layer4_0_FILL"/>
</g>

<g transform="matrix( 1, 0, 0, 1, 0,0) ">
<use xlink:href="#Layer3_0_FILL"/>
</g>

<g transform="matrix( 1, 0, 0, 1, 0,0) ">
<use xlink:href="#Layer2_0_FILL"/>
</g>

<g transform="matrix( 5.1260223388671875, 0, 0, 5.1260223388671875, 123.35,106.75) ">
<use xlink:href="#Layer0_0_MEMBER_0_FILL"/>
</g>

<g transform="matrix( 5.1260223388671875, 0, 0, 5.1260223388671875, 123.35,106.75) ">
<use xlink:href="#Layer0_1_MEMBER_0_FILL"/>
</g>
</svg>
