<?xml version="1.0" encoding="utf-8"?>
<!-- Generator: flash2svg, http://dissentgraphics.com/tools/flash2svg -->
<svg id="Apps-Ableton-Live" image-rendering="optimizeSpeed" baseProfile="basic" version="1.1" style="background-color:#FFFFFF" x="0px" y="0px" width="1024px" height="1024px" viewBox="0 0 1024 1024" enable-background="new 0 0 1024 1024" xmlns="http://www.w3.org/2000/svg" xmlns:xlink="http://www.w3.org/1999/xlink">
  <defs transform="matrix(1 0 0 1 0 0) "/>
  <g id="shadow">
    <g id="shape">
      <path id="path" fill="#000000" fill-opacity="0.09803921568627451" d="M969.6,351.25 Q961,330.4 950.2,310.4 C946.15,302.85 941.85,295.35 937.3,288 917.75,256.3 893.9,226.35 865.75,198.2 773.6,106.05 662.3,59.95 531.95,59.95 401.6,59.95 290.35,106.05 198.2,198.2 106.05,290.35 59.95,401.6 59.95,531.95 59.95,662.3 106.05,773.6 198.2,865.75 290.35,957.9 401.6,1003.95 531.95,1003.95 662.3,1003.95 773.6,957.9 865.75,865.75 916.5,814.95 953.3,758.35 976.1,696 994.65,645.15 1003.95,590.5 1003.95,531.95 1003.95,487.05 998.5,444.4 987.55,404 986.3,399.45 985,394.9 983.65,390.4 979.55,377.1 974.85,364.05 969.6,351.25z"/>
    </g>
  </g>
  <g id="criclebg">
    <g id="shape2">
      <path id="path1" fill="#F8CE4D" fill-opacity="1" d="M958.5,354.6 C958.2,353.85 957.9,352.95 957.6,352.05 951.15,333.8 943.45,316 934.45,298.4 930.65,291 926.5,283.45 922.15,276 901.85,241.5 876.35,208.8 845.8,178.25 773.35,105.8 689.05,61.8 593,46.35 592.7,46.3 592.4,46.25 592.15,46.2 575.9,43.6 559.35,41.8 542.1,40.85 532.4,40.3 522.25,40 512,40 502.65,40 493.4,40.25 484.1,40.75 365.75,46.85 263.8,92.7 178.25,178.25 121.75,234.75 82.6,298.4 60.8,368.95 Q40,436.15 40,512 C40,642.35 86.1,753.65 178.25,845.8 226.3,893.8 279.55,929.35 337.35,952.1 343.8,954.7 349.95,956.95 356.15,959.05 396.65,972.9 439.2,980.95 484.1,983.3 484.25,983.3 484.35,983.3 484.5,983.3 493,983.75 501.1,984 509,984 510.2,984 511.1,984 512,984 522.3,984 532.5,983.7 542.1,983.2 544.6,983.05 546.85,982.9 549.05,982.75 569.25,981.3 588.95,978.7 607.75,975.05 615.7,973.5 623.55,971.75 631.15,969.9 695.85,953.65 754.5,923.95 807.3,880.75 820.55,869.85 833.35,858.25 845.8,845.8 894.4,797.2 930.2,743.3 953.15,684 957.1,673.75 960.7,663.35 963.9,652.85 975.6,614.2 982.2,573.45 983.7,530.5 983.9,524.45 984,518.25 984,512 984,511.35 984,510.65 984,510 984,509.65 984,509.35 984,509 983.8,468.35 979.05,429.5 969.7,392 968.6,387.65 967.35,383 966.05,378.4 963.8,370.55 961.3,362.6 958.5,354.6z"/>
    </g>
  </g>
  <g id="criclebg1">
    <g id="shape4">
      <path id="path2" fill="#000000" fill-opacity="0.2" d="M953.15,684 C957.1,673.75 960.7,663.35 963.9,652.85 975.6,614.2 982.2,573.45 983.7,530.5 983.9,524.45 984,518.25 984,512 984,511.35 984,510.65 984,510 984,509.65 984,509.35 984,509 Q983.933,497.229 983.375,485.675 L824,326.3 555.3,370 592.9,407.6 578.4,409.4 506.125,337.125 454.2,372.95 419.275,338.025 365.075,371.675 328.25,334.85 276.7,371.65 238.05,333 195.05,632 546,982.95 C547.3,982.85 548.2,982.8 549.05,982.75 569.25,981.3 588.95,978.7 607.75,975.05 615.7,973.5 623.55,971.75 631.15,969.9 695.85,953.65 754.5,923.95 807.3,880.75 820.55,869.85 833.35,858.25 845.8,845.8 894.4,797.2 930.2,743.3 953.15,684z"/>
    </g>
  </g>
  <g id="V">
    <g id="shape6">
      <path id="path3" fill="#FFFFFF" fill-opacity="1" d="M827.7,369.15 C833.2,363.7 835.95,357.05 835.95,349.3 835.95,341.55 833.2,334.95 827.7,329.5 822.25,324 815.65,321.25 807.9,321.25 L574.25,321.25 C566.5,321.25 559.9,324 554.4,329.5 548.95,334.95 546.2,341.55 546.2,349.3 546.2,357.05 548.95,363.7 554.4,369.15 558.95,373.7 564.3,376.35 570.45,377.1 571.7,377.25 573,377.35 574.25,377.35 L807.9,377.35 C815.65,377.35 822.25,374.6 827.7,369.15z M835.95,437.45 C835.95,429.7 833.2,423.1 827.7,417.65 822.25,412.15 815.65,409.4 807.9,409.4 L574.25,409.4 C573,409.4 571.7,409.5 570.45,409.65 564.3,410.4 558.95,413.1 554.4,417.65 548.95,423.1 546.2,429.7 546.2,437.45 546.2,445.2 548.95,451.8 554.4,457.3 558.95,461.85 564.3,464.5 570.45,465.3 571.7,465.45 573,465.55 574.25,465.55 L807.9,465.55 C815.65,465.55 822.25,462.8 827.7,457.3 833.2,451.8 835.95,445.2 835.95,437.45z M835.95,525.65 C835.95,517.9 833.2,511.3 827.7,505.8 822.25,500.35 815.65,497.6 807.9,497.6 L574.25,497.6 C573,497.6 571.7,497.7 570.45,497.85 564.3,498.6 558.95,501.25 554.4,505.8 548.95,511.3 546.2,517.9 546.2,525.65 546.2,533.4 548.95,540 554.4,545.55 559.9,551 566.5,553.75 574.25,553.75 L807.9,553.75 C815.65,553.75 822.25,551 827.7,545.55 833.2,540 835.95,533.4 835.95,525.65z M781.5,665.15 C769.7,664.85 753.6,665.15 744.3,665.15 729.65,665.15 722.35,671.8 722.35,685.2 L722.35,732.45 C722.35,735.95 722.9,738.9 724.1,741.45 725.2,743.95 726.6,745.85 728.2,747.2 729.85,748.5 731.85,749.55 734.1,750.35 736.35,751.1 738.2,751.55 739.6,751.65 L781.5,751.95 781.5,730.75 752.5,730.75 C750.65,730.75 749.05,730.5 747.7,730 746.05,729.4 745.2,727.6 745.2,724.6 L745.2,719.4 781.5,719.75 781.5,697.9 745.2,698 745.4,689.65 C745.5,688.8 746.05,688.1 747.05,687.35 748.1,686.6 749.55,686.25 751.4,686.25 L781.5,686.25 781.5,665.15z M716,665.15 L691.95,665.15 676.5,723.45 662.2,665.15 638.1,665.15 662.55,751.45 690.15,751.45 716,665.15z M835.9,613.85 C835.9,606.1 833.2,599.5 827.7,594 Q819.5,585.75 807.85,585.75 L574.2,585.75 C572.9,585.75 571.65,585.85 570.4,586 564.3,586.8 558.95,589.45 554.35,594 548.9,599.5 546.2,606.1 546.2,613.85 546.2,621.6 548.9,628.2 554.35,633.75 559.9,639.2 566.5,641.9 574.2,641.9 L807.85,641.9 C815.6,641.9 822.2,639.2 827.7,633.75 833.2,628.2 835.9,621.6 835.9,613.85z M392.7,322.25 C385,322.25 378.4,325 372.85,330.5 367.35,335.95 364.65,342.55 364.65,350.35 L364.65,613.4 C364.65,614.7 364.7,615.95 364.9,617.2 365.7,623.3 368.35,628.65 372.85,633.2 378.4,638.7 385,641.4 392.7,641.4 400.45,641.4 407.1,638.7 412.6,633.2 418.05,627.7 420.8,621.1 420.8,613.4 L420.8,350.35 C420.8,342.55 418.05,335.95 412.6,330.5 407.1,325 400.45,322.25 392.7,322.25z M332.6,350.35 C332.6,342.55 329.85,335.95 324.35,330.5 318.85,325 312.25,322.25 304.55,322.25 296.8,322.25 290.2,325 284.7,330.5 279.2,335.95 276.45,342.55 276.45,350.35 L276.45,613.4 C276.45,614.7 276.55,615.95 276.7,617.2 277.45,623.3 280.1,628.65 284.7,633.2 290.2,638.7 296.8,641.4 304.55,641.4 312.25,641.4 318.85,638.7 324.35,633.2 328.9,628.65 331.55,623.3 332.35,617.2 332.5,615.95 332.6,614.7 332.6,613.4 L332.6,350.35z M480.9,322.25 C473.15,322.25 466.55,325 461.05,330.5 455.55,335.95 452.8,342.55 452.8,350.35 L452.8,613.4 C452.8,614.7 452.9,615.95 453.05,617.2 453.85,623.3 456.5,628.65 461.05,633.2 466.55,638.7 473.15,641.4 480.9,641.4 488.65,641.4 495.3,638.7 500.8,633.2 506.25,627.7 509,621.1 509,613.4 L509,350.35 C509,342.55 506.25,335.95 500.8,330.5 495.3,325 488.65,322.25 480.9,322.25z M236.2,330.5 C230.7,325 224.1,322.25 216.35,322.25 208.6,322.25 202,325 196.55,330.5 191.05,335.95 188.3,342.55 188.3,350.35 L188.3,613.4 C188.3,621.1 191.05,627.7 196.55,633.2 202,638.7 208.6,641.4 216.35,641.4 224.1,641.4 230.7,638.7 236.2,633.2 240.75,628.65 243.4,623.3 244.15,617.2 244.35,615.95 244.4,614.7 244.4,613.4 L244.4,350.35 C244.4,342.55 241.7,335.95 236.2,330.5z M631.25,665.15 L608.4,665.15 608.4,751.45 631.25,751.45 631.25,665.15z M558.05,750.35 C560.4,751.1 563,751.45 565.9,751.45 L600.85,751.45 600.85,731 576.5,731 C574.7,731 573.05,730.75 571.7,730.25 570.05,729.6 569.2,727.85 569.2,724.85 L569.2,665.15 546.35,665.15 546.35,733.1 C546.35,739.35 548.15,744 551.75,746.95 553.6,748.5 555.7,749.65 558.05,750.35z"/>
    </g>
  </g>
</svg>