<?xml version="1.0" encoding="utf-8"?>
<!-- Generator: flash2svg, http://dissentgraphics.com/tools/flash2svg -->
<svg xmlns:xlink="http://www.w3.org/1999/xlink" id="Hearthstone" image-rendering="optimizeSpeed" baseProfile="basic" version="1.1" style="background-color:#ffffff" x="0px" y="0px" width="1024px" height="1024px" viewBox="0 0 1024 1024" enable-background="new 0 0 1024 1024" xmlns="http://www.w3.org/2000/svg">
  <defs transform="matrix(1 0 0 1 0 0) "/>
  <g id="shadow">
    <g id="shape">
      <path id="path" fill="#000000" fill-opacity="0.09803921568627451" d="M969.65,351.3 Q961.05,330.45 950.25,310.45 C946.2,302.9 941.9,295.4 937.35,288.05 917.8,256.35 893.95,226.4 865.8,198.25 773.65,106.1 662.35,60 532,60 401.65,60 290.4,106.1 198.25,198.25 106.1,290.4 60,401.65 60,532 60,662.35 106.1,773.65 198.25,865.8 290.4,957.95 401.65,1004 532,1004 662.35,1004 773.65,957.95 865.8,865.8 916.55,815 953.35,758.4 976.15,696.05 994.7,645.2 1004,590.55 1004,532 1004,487.1 998.55,444.45 987.6,404.05 986.35,399.5 985.05,394.95 983.7,390.45 979.6,377.15 974.9,364.1 969.65,351.3z"/>
    </g>
  </g>
  <g id="criclebg">
    <g id="shape2">
      <path id="path1" fill="#68471F" fill-opacity="1" d="M849.15,181.65 C848.05,180.5 846.95,179.4 845.85,178.3 811.5,143.95 774.55,116.05 734.95,94.55 728.25,90.9 721.5,87.45 714.3,84 679.25,67.25 641.8,55.15 602.4,48 599.3,47.45 596.2,46.9 593.05,46.4 592.75,46.35 592.45,46.3 592.2,46.25 588,45.6 583.8,45 579.45,44.4 575.4,43.9 571.25,43.4 567.05,42.95 563.45,42.55 559.85,42.2 556.05,41.9 551.6,41.5 546.9,41.15 542.15,40.9 541.7,40.85 541.3,40.85 540.85,40.85 531.35,40.3 521.75,40.05 512.05,40.05 502.7,40.05 493.45,40.3 484.15,40.8 482.45,40.9 480.75,41 479.05,41.1 475.4,41.3 471.75,41.55 468.05,41.9 461.95,42.4 455.85,43 449.8,43.75 448,43.95 446.25,44.15 444.6,44.4 401,50.15 359.9,61.6 321.3,78.75 317.45,80.45 313.6,82.2 309.75,84.05 262.25,106.7 218.5,138.1 178.3,178.3 177.75,178.85 177.25,179.35 176.75,179.85 176.1,180.5 175.5,181.1 174.9,181.75 134.45,222.9 103.15,267.8 80.9,316.5 73.05,333.65 66.4,351.1 60.85,369 Q40.05,436.2 40.05,512.05 C40.05,637.6 82.8,745.45 168,835.25 170.45,837.85 172.65,840.15 174.9,842.45 175.5,843.05 176.1,843.65 176.75,844.3 177.25,844.8 177.75,845.3 178.3,845.85 218.7,886.2 262.75,917.75 309.75,940.1 313.7,941.95 317.5,943.7 321.3,945.4 326.85,947.85 332.1,950.05 337.4,952.15 343.85,954.75 350,957 356.2,959.1 384.8,968.9 414.4,975.8 444.6,979.75 446.5,980 448.15,980.2 449.8,980.4 461.3,981.8 472.65,982.75 484.15,983.35 484.3,983.35 484.4,983.35 484.55,983.35 493.05,983.8 501.15,984.05 509.05,984.05 510.25,984.05 511.15,984.05 512.05,984.05 521.8,984.05 531.4,983.8 540.85,983.35 541.3,983.3 541.7,983.3 542.15,983.25 544.65,983.1 546.9,982.95 549.1,982.8 559.4,982.05 569.55,981.05 579.45,979.75 587.25,978.7 594.9,977.5 602.4,976.15 604.3,975.8 606.05,975.45 607.8,975.1 615.75,973.55 623.6,971.8 631.2,969.95 660.1,962.7 687.8,952.75 714.3,940.2 721.3,936.8 728.15,933.3 734.95,929.65 760.15,915.95 784.3,899.65 807.35,880.8 820.6,869.9 833.4,858.3 845.85,845.85 846.95,844.75 848.05,843.65 849.15,842.55 849.8,841.9 850.4,841.25 851.05,840.6 852.75,838.85 854.45,837.05 856.15,835.25 876.6,813.65 894.5,791.15 909.95,767.7 927.5,741.15 941.9,713.25 953.2,684.05 957.15,673.8 960.75,663.4 963.95,652.9 975.65,614.25 982.25,573.5 983.75,530.55 983.95,524.5 984.05,518.3 984.05,512.05 984.05,511.4 984.05,510.7 984.05,510.05 984.05,509.7 984.05,509.4 984.05,509.05 983.85,468.4 979.1,429.55 969.75,392.05 968.65,387.7 967.4,383.05 966.1,378.45 963.85,370.6 961.35,362.65 958.55,354.65 958.25,353.9 957.95,353 957.65,352.1 953.4,340.1 948.65,328.3 943.25,316.5 940.55,310.55 937.6,304.5 934.5,298.45 930.7,291.05 926.55,283.5 922.2,276.05 903.15,243.65 879.5,212.85 851.05,183.6 850.4,182.95 849.8,182.3 849.15,181.65z"/>
    </g>
  </g>
  <g id="criclebg1">
    <g id="shape4">
      <path id="path2" fill="#000000" fill-opacity="0.2" d="M785.05,245.3 L692.925,276.125 513.5,96.7 382.85,348.325 100.1,514.05 273.5,687.45 241.2,778.75 441.825,979.375 L441.85,979.4 C442.9,979.55 443.75,979.65 444.6,979.75 446.5,980 448.15,980.2 449.8,980.4 461.3,981.8 472.65,982.75 484.15,983.35 484.3,983.35 484.4,983.35 484.55,983.35 493.05,983.8 501.15,984.05 509.05,984.05 Q510.55,984.05 512.05,984.05 C521.8,984.05 531.4,983.8 540.85,983.35 541.3,983.3 541.7,983.3 542.15,983.25 544.65,983.1 546.9,982.95 549.1,982.8 559.4,982.05 569.55,981.05 579.45,979.75 587.25,978.7 594.9,977.5 602.4,976.15 604.3,975.8 606.05,975.45 607.8,975.1 615.75,973.55 623.6,971.8 631.2,969.95 660.1,962.7 687.8,952.75 714.3,940.2 721.3,936.8 728.15,933.3 734.95,929.65 760.15,915.95 784.3,899.65 807.35,880.8 820.6,869.9 833.4,858.3 845.85,845.85 846.95,844.75 848.05,843.65 849.15,842.55 849.8,841.9 850.4,841.25 851.05,840.6 852.75,838.85 854.45,837.05 856.15,835.25 876.6,813.65 894.5,791.15 909.95,767.7 927.5,741.15 941.9,713.25 953.2,684.05 957.15,673.8 960.75,663.4 963.95,652.9 975.65,614.25 982.25,573.5 983.75,530.55 983.95,524.5 984.05,518.3 984.05,512.05 984.05,511.4 984.05,510.7 984.05,510.05 984.05,509.7 984.05,509.4 984.05,509.05 983.95,485.25 982.25,462.05 979,439.25 L978.975,439.225 L785.05,245.3z"/>
    </g>
  </g>
  <g id="Calque.__201">
    <g id="shape6">
      <path id="path3" fill="#E2BD7C" fill-opacity="1" d="M101.3,510.15 L98.3,512.05 98.55,512.2 360.5,512.2 360.65,512.05 258.85,410.25 101.3,510.15z M513.65,96.95 L513.5,96.7 511.6,99.7 411.7,257.25 513.5,359.05 513.65,358.9 513.65,96.95z"/>
      <path id="path4" fill="#BEA371" fill-opacity="1" d="M98.55,512.2 L104.8,516.15 258.85,613.85 360.5,512.2 98.55,512.2z M517.6,103.2 L513.65,96.95 513.65,358.9 615.3,257.25 517.6,103.2z"/>
      <path id="path5" fill="#917643" fill-opacity="1" d="M929.25,512.05 L926.25,510.15 768.7,410.25 666.9,512.05 667.05,512.2 929,512.2 929.25,512.05z M513.65,665.45 L513.5,665.3 411.7,767.1 511.6,924.65 513.5,927.65 513.65,927.4 513.65,665.45z"/>
      <path id="path6" fill="#644725" fill-opacity="1" d="M922.75,516.15 L929,512.2 667.05,512.2 768.7,613.85 922.75,516.15z M615.3,767.1 L513.65,665.45 513.65,927.4 517.6,921.15 615.3,767.1z"/>
    </g>
  </g>
  <g id="Calque.__202">
    <g id="shape23">
      <path id="path15" fill="#C2A46C" fill-opacity="1" d="M785.05,245.3 L782.35,245.85 641.55,277.4 641.55,388.8 641.7,388.8 785,245.5 785.05,245.3z M384.25,380.8 L384.25,380.65 240.95,237.35 240.75,237.3 241.3,240 272.85,380.8 384.25,380.8z"/>
      <path id="path16" fill="#8E7548" fill-opacity="1" d="M783.7,251.1 L785,245.5 641.7,388.8 752.95,388.8 783.7,251.1z M239.4,783.85 L239.35,784.05 242.05,783.5 382.85,751.95 382.85,640.55 382.7,640.55 239.4,783.85z M779.3,782.95 L779.5,783 778.95,780.3 747.4,639.5 636,639.5 636,639.65 779.3,782.95z"/>
      <path id="path17" fill="#C6A566" fill-opacity="1" d="M240.7,778.25 L239.4,783.85 382.7,640.55 271.45,640.55 240.7,778.25z"/>
      <path id="path20" fill="#644725" fill-opacity="1" d="M773.7,781.65 L779.3,782.95 636,639.65 636,750.9 773.7,781.65z"/>
      <path id="path25" fill="#E2BD7C" fill-opacity="1" d="M384.25,380.65 L384.25,269.4 246.55,238.65 240.95,237.35 384.25,380.65z"/>
    </g>
  </g>
  <g id="Calque.__203">
    <g id="shape39">
      <path id="path26" fill="#D9BB87" fill-opacity="1" d="M686,337.85 L712.85,311 C660.8,258.95 598.55,231.3 526.2,228.15 521.55,227.95 516.8,227.85 512,227.85 507.25,227.85 502.55,227.95 497.9,228.15 425.55,231.3 363.3,258.95 311.25,311 255.8,366.45 228.05,433.45 228,511.9 228,590.3 255.75,657.2 311.2,712.65 L338.1,685.75 C290.05,637.7 266.05,579.75 266.05,511.8 266.05,443.85 290.05,385.9 338.1,337.85 386.15,289.8 444.1,265.8 512.05,265.8 580,265.8 637.95,289.8 686,337.85z"/>
      <path id="path27" fill="#BEA371" fill-opacity="1" d="M712.85,311 L686,337.85 C734.05,385.9 758.05,443.85 758.05,511.8 758.05,579.75 734.05,637.7 686,685.75 637.95,733.8 580,757.8 512.05,757.8 444.1,757.8 386.15,733.8 338.1,685.75 L311.2,712.65 C363.3,764.75 425.55,792.4 497.9,795.55 502.55,795.75 507.3,795.85 512.05,795.9 516.8,795.85 521.55,795.75 526.2,795.55 598.55,792.4 660.8,764.75 712.9,712.65 768.35,657.2 796.05,590.25 796.05,511.85 796.05,433.4 768.3,366.45 712.85,311z"/>
      <path id="path28" fill="#432F18" fill-opacity="1" d="M686,685.75 C734.05,637.7 758.05,579.75 758.05,511.8 758.05,443.85 734.05,385.9 686,337.85 L338.1,685.75 C386.15,733.8 444.1,757.8 512.05,757.8 580,757.8 637.95,733.8 686,685.75z"/>
      <path id="path29" fill="#50381D" fill-opacity="1" d="M512.05,265.8 C444.1,265.8 386.15,289.8 338.1,337.85 290.05,385.9 266.05,443.85 266.05,511.8 266.05,579.75 290.05,637.7 338.1,685.75 L686,337.85 C637.95,289.8 580,265.8 512.05,265.8z"/>
    </g>
  </g>
  <g id="Calque.__204">
    <g id="Symbole.__2036_1" overflow="visible">
      <g id="Calque.__208">
        <g id="shape85">
          <path id="path67" fill="#9FE6FF" fill-opacity="1" d="M452.299,360.506 L452.325,360.506 C429.602,368.376 409.745,380.832 392.832,397.901 375.79,415.1 363.751,434.852 356.663,457.107 L356.65,457.094 L356.663,457.107 C349.105,480.873 348.037,504.925 353.483,529.186 L353.483,529.16 L353.509,529.16 C358.07,549.773 365.418,567.18 375.503,581.382 L375.49,581.395 L375.516,581.447 L375.529,581.46 C385.588,595.845 397.81,606.763 412.142,614.216 L412.09,614.19 L412.129,614.203 L412.116,614.19 C425.562,621.33 440.025,625.057 455.426,625.343 L455.413,625.357 L455.439,625.357 L455.452,625.37 C469.784,625.682 483.648,622.972 497.016,617.317 L497.003,617.304 L497.042,617.291 C510.436,611.558 521.85,603.532 531.258,593.135 541.551,581.799 548.456,569.004 551.974,554.75 L551.961,554.737 L551.974,554.698 C555.831,539.427 555.388,523.661 550.645,507.349 L550.632,507.362 L550.632,507.335 L550.645,507.349 C546.215,491.505 537.381,475.791 524.17,460.286 518.854,454.084 512.104,450.67 503.948,450.071 495.765,449.446 488.599,451.765 482.423,457.055 476.221,462.371 472.807,469.068 472.208,477.224 471.583,485.407 473.902,492.573 479.166,498.723 486.306,507.062 491.179,515.427 493.811,523.844 L493.798,523.857 L493.798,523.883 L493.811,523.896 C495.479,529.629 495.713,535.179 494.514,540.548 494.488,540.574 494.488,540.574 494.488,540.574 493.316,545.29 490.996,549.538 487.557,553.238 L487.544,553.251 L487.492,553.304 L487.505,553.29 C483.726,557.382 479.192,560.561 473.902,562.828 473.876,562.802 473.876,562.802 473.85,562.828 468.325,565.173 462.566,566.294 456.651,566.164 L456.638,566.177 L456.612,566.177 L456.625,566.19 C450.631,566.085 445.002,564.626 439.791,561.864 L439.765,561.864 L439.725,561.851 L439.739,561.864 C433.641,558.528 428.377,553.733 424.025,547.505 L424.012,547.492 L424.038,547.544 L424.051,547.531 C418.266,538.984 413.992,528.561 411.256,516.287 L411.23,516.287 L411.23,516.261 C408.129,502.371 408.728,488.638 413.054,475.035 L413.067,475.048 L413.08,475.061 C417.302,461.719 424.572,449.915 434.839,439.595 445.341,429.041 457.615,421.302 471.713,416.429 L471.687,416.429 L471.661,416.429 C486.54,411.295 501.863,409.888 517.681,412.259 517.681,412.259 517.681,412.259 517.733,412.259 528.261,413.875 538.45,417.237 548.196,422.344 L548.144,422.318 L548.183,422.331 L548.17,422.318 C557.89,427.4 566.698,433.914 574.568,441.836 574.594,441.862 574.594,441.862 574.62,441.888 582.542,449.862 589.056,458.775 594.164,468.625 L594.151,468.638 L594.177,468.69 L594.19,468.703 C599.376,478.684 602.842,489.133 604.561,500.026 L604.548,500.039 L604.561,500.052 L604.587,500.052 C608.21,524.261 603.232,547.584 589.656,570.02 L589.63,570.02 L589.643,570.007 L589.656,570.02 C572.066,598.294 543.453,622.581 503.817,642.881 496.547,646.608 491.674,652.367 489.172,660.132 486.671,667.898 487.27,675.429 490.996,682.699 494.671,689.97 500.43,694.843 508.195,697.344 515.961,699.846 523.492,699.247 530.789,695.546 581.812,669.435 618.321,637.774 640.314,600.614 661.526,565.486 669.109,528.925 663.064,490.931 L663.038,490.931 L663.051,490.944 L663.064,490.931 C660.38,473.706 654.933,457.211 646.725,441.393 646.699,441.367 646.699,441.367 646.699,441.367 638.803,426.175 628.77,412.442 616.575,400.142 L616.536,400.103 L616.549,400.116 C604.327,387.842 590.672,377.783 575.636,369.888 L575.61,369.888 L575.571,369.874 L575.584,369.888 C559.87,361.679 543.531,356.285 526.541,353.731 L526.515,353.731 L526.45,353.718 L526.463,353.705 C501.003,349.926 476.299,352.22 452.325,360.506"/>
        </g>
      </g>
      <mask id="Calque.__207">
        <g id="g1">
          <g id="shape86">
            <path id="path68" fill="#FFFFFF" fill-opacity="1" d="M452.299,360.506 L452.325,360.506 C429.602,368.376 409.745,380.832 392.832,397.901 375.79,415.1 363.751,434.852 356.663,457.107 L356.65,457.094 L356.663,457.107 C349.105,480.873 348.037,504.925 353.483,529.186 L353.483,529.16 L353.509,529.16 C358.07,549.773 365.418,567.18 375.503,581.382 L375.49,581.395 L375.516,581.447 L375.529,581.46 C385.588,595.845 397.81,606.763 412.142,614.216 L412.09,614.19 L412.129,614.203 L412.116,614.19 C425.562,621.33 440.025,625.057 455.426,625.343 L455.413,625.357 L455.439,625.357 L455.452,625.37 C469.784,625.682 483.648,622.972 497.016,617.317 L497.003,617.304 L497.042,617.291 C510.436,611.558 521.85,603.532 531.258,593.135 541.551,581.799 548.456,569.004 551.974,554.75 L551.961,554.737 L551.974,554.698 C555.831,539.427 555.388,523.661 550.645,507.349 L550.632,507.362 L550.632,507.335 L550.645,507.349 C546.215,491.505 537.381,475.791 524.17,460.286 518.854,454.084 512.104,450.67 503.948,450.071 495.765,449.446 488.599,451.765 482.423,457.055 476.221,462.371 472.807,469.068 472.208,477.224 471.583,485.407 473.902,492.573 479.166,498.723 486.306,507.062 491.179,515.427 493.811,523.844 L493.798,523.857 L493.798,523.883 L493.811,523.896 C495.479,529.629 495.713,535.179 494.514,540.548 494.488,540.574 494.488,540.574 494.488,540.574 493.316,545.29 490.996,549.538 487.557,553.238 L487.544,553.251 L487.492,553.304 L487.505,553.29 C483.726,557.382 479.192,560.561 473.902,562.828 473.876,562.802 473.876,562.802 473.85,562.828 468.325,565.173 462.566,566.294 456.651,566.164 L456.638,566.177 L456.612,566.177 L456.625,566.19 C450.631,566.085 445.002,564.626 439.791,561.864 L439.765,561.864 L439.725,561.851 L439.739,561.864 C433.641,558.528 428.377,553.733 424.025,547.505 L424.012,547.492 L424.038,547.544 L424.051,547.531 C418.266,538.984 413.992,528.561 411.256,516.287 L411.23,516.287 L411.23,516.261 C408.129,502.371 408.728,488.638 413.054,475.035 L413.067,475.048 L413.08,475.061 C417.302,461.719 424.572,449.915 434.839,439.595 445.341,429.041 457.615,421.302 471.713,416.429 L471.687,416.429 L471.661,416.429 C486.54,411.295 501.863,409.888 517.681,412.259 517.681,412.259 517.681,412.259 517.733,412.259 528.261,413.875 538.45,417.237 548.196,422.344 L548.144,422.318 L548.183,422.331 L548.17,422.318 C557.89,427.4 566.698,433.914 574.568,441.836 574.594,441.862 574.594,441.862 574.62,441.888 582.542,449.862 589.056,458.775 594.164,468.625 L594.151,468.638 L594.177,468.69 L594.19,468.703 C599.376,478.684 602.842,489.133 604.561,500.026 L604.548,500.039 L604.561,500.052 L604.587,500.052 C608.21,524.261 603.232,547.584 589.656,570.02 L589.63,570.02 L589.643,570.007 L589.656,570.02 C572.066,598.294 543.453,622.581 503.817,642.881 496.547,646.608 491.674,652.367 489.172,660.132 486.671,667.898 487.27,675.429 490.996,682.699 494.671,689.97 500.43,694.843 508.195,697.344 515.961,699.846 523.492,699.247 530.789,695.546 581.812,669.435 618.321,637.774 640.314,600.614 661.526,565.486 669.109,528.925 663.064,490.931 L663.038,490.931 L663.051,490.944 L663.064,490.931 C660.38,473.706 654.933,457.211 646.725,441.393 646.699,441.367 646.699,441.367 646.699,441.367 638.803,426.175 628.77,412.442 616.575,400.142 L616.536,400.103 L616.549,400.116 C604.327,387.842 590.672,377.783 575.636,369.888 L575.61,369.888 L575.571,369.874 L575.584,369.888 C559.87,361.679 543.531,356.285 526.541,353.731 L526.515,353.731 L526.45,353.718 L526.463,353.705 C501.003,349.926 476.299,352.22 452.325,360.506"/>
          </g>
        </g>
      </mask>
      <g id="masked1" mask="url(#Calque.__207)">
        <g id="Calque.__210">
          <g id="shape87">
            <path id="path69" fill="#FFFFFF" fill-opacity="1" d="M399.06,511.44 C396.298,511.44 393.901,512.43 391.946,514.384 389.992,516.339 389.002,518.736 388.976,521.525 389.002,524.313 389.992,526.71 391.946,528.665 393.901,530.619 396.298,531.609 399.06,531.609 401.875,531.609 404.272,530.619 406.227,528.665 408.181,526.71 409.171,524.313 409.145,521.525 409.171,518.736 408.181,516.339 406.227,514.384 404.272,512.43 401.875,511.44 399.06,511.44z M420.272,467.556 C414.592,467.556 409.719,469.563 405.679,473.602 401.64,477.641 399.634,482.514 399.634,488.195 399.634,493.876 401.64,498.749 405.679,502.788 409.719,506.827 414.592,508.834 420.272,508.834 425.953,508.834 430.826,506.827 434.865,502.788 438.905,498.749 440.911,493.876 440.911,488.195 440.911,482.514 438.905,477.641 434.865,473.602 430.826,469.563 425.953,467.556 420.272,467.556z M455.061,546.489 C450.814,550.737 448.677,555.844 448.677,561.838 448.677,567.831 450.814,572.939 455.061,577.187 459.309,581.434 464.39,583.545 470.384,583.545 476.377,583.545 481.511,581.434 485.759,577.187 490.006,572.939 492.091,567.831 492.091,561.838 492.091,555.844 490.006,550.737 485.759,546.489 481.511,542.241 476.377,540.131 470.384,540.131 464.39,540.131 459.309,542.241 455.061,546.489z M495.635,562.828 C495.661,565.252 496.521,567.31 498.215,569.004 499.909,570.698 501.967,571.558 504.365,571.558 506.814,571.558 508.873,570.698 510.567,569.004 512.261,567.31 513.121,565.252 513.094,562.828 513.121,560.405 512.261,558.346 510.567,556.652 508.873,554.958 506.814,554.098 504.365,554.098 501.967,554.098 499.909,554.958 498.215,556.652 496.521,558.346 495.661,560.405 495.635,562.828z M524.482,572.287 C526.723,572.287 528.678,571.48 530.267,569.89 531.857,568.3 532.639,566.372 532.639,564.131 532.639,561.89 531.857,559.962 530.267,558.372 528.678,556.782 526.723,555.975 524.482,555.975 522.241,555.975 520.339,556.782 518.749,558.372 517.16,559.962 516.326,561.89 516.326,564.131 516.326,566.372 517.16,568.3 518.749,569.89 520.339,571.48 522.241,572.287 524.482,572.287z M427.882,565.851 C427.882,563.975 427.204,562.359 425.875,561.03 424.546,559.701 422.93,559.023 421.054,559.023 419.178,559.023 417.562,559.701 416.233,561.03 414.904,562.359 414.227,563.975 414.227,565.851 414.227,567.727 414.904,569.343 416.233,570.672 417.562,572.001 419.178,572.678 421.054,572.678 422.93,572.678 424.546,572.001 425.875,570.672 427.204,569.343 427.882,567.727 427.882,565.851z M398.774,548.522 C398.018,547.766 397.132,547.401 396.038,547.401 394.943,547.401 394.057,547.766 393.301,548.522 392.546,549.277 392.181,550.163 392.181,551.258 392.181,552.352 392.546,553.238 393.301,553.994 394.057,554.75 394.943,555.115 396.038,555.115 397.132,555.115 398.018,554.75 398.774,553.994 399.53,553.238 399.894,552.352 399.894,551.258 399.894,550.163 399.53,549.277 398.774,548.522z M557.864,401.679 C555.284,404.259 553.981,407.386 553.955,411.061 553.981,414.735 555.284,417.862 557.864,420.442 560.444,423.022 563.571,424.325 567.219,424.325 570.919,424.325 574.046,423.022 576.626,420.442 579.206,417.862 580.509,414.735 580.483,411.061 580.509,407.386 579.206,404.259 576.626,401.679 574.046,399.1 570.919,397.797 567.219,397.797 563.571,397.797 560.444,399.1 557.864,401.679z M609.461,456.924 C609.487,451.739 607.662,447.309 603.988,443.634 600.314,439.96 595.884,438.136 590.672,438.136 585.512,438.136 581.082,439.96 577.408,443.634 573.734,447.309 571.91,451.739 571.883,456.924 571.91,462.11 573.734,466.54 577.408,470.215 581.082,473.889 585.512,475.713 590.672,475.713 595.884,475.713 600.314,473.889 603.988,470.215 607.662,466.54 609.487,462.11 609.461,456.924z M619.858,500.052 C619.884,498.306 619.259,496.795 618.034,495.57 616.809,494.345 615.298,493.72 613.526,493.72 611.806,493.72 610.294,494.345 609.07,495.57 607.845,496.795 607.219,498.306 607.193,500.052 607.219,501.798 607.845,503.309 609.07,504.534 610.294,505.759 611.806,506.384 613.526,506.384 615.298,506.384 616.809,505.759 618.034,504.534 619.259,503.309 619.884,501.798 619.858,500.052z M493.576,456.534 C487.661,462.449 484.69,469.589 484.69,477.98 484.69,480.273 484.925,482.488 485.368,484.599 481.511,485.694 478.045,487.752 474.996,490.801 470.254,495.544 467.856,501.277 467.856,508 467.856,514.723 470.254,520.456 474.996,525.199 479.739,529.942 485.446,532.313 492.169,532.313 496.599,532.313 500.638,531.297 504.208,529.238 503.401,531.349 502.984,533.59 502.984,535.987 502.984,541.199 504.834,545.655 508.534,549.356 512.235,553.056 516.691,554.906 521.902,554.906 527.114,554.906 531.57,553.056 535.271,549.356 538.971,545.655 540.821,541.199 540.821,535.987 540.821,530.776 538.971,526.319 535.271,522.619 531.57,518.919 527.114,517.069 521.902,517.069 519.088,517.069 516.508,517.616 514.137,518.684 515.674,515.531 516.482,512.065 516.508,508.287 524.248,507.948 530.893,505.003 536.469,499.427 542.385,493.511 545.355,486.371 545.355,477.98 545.355,469.589 542.385,462.449 536.469,456.534 530.554,450.618 523.414,447.647 515.023,447.647 506.632,447.647 499.492,450.618 493.576,456.534z M536.548,512.169 C536.548,513.941 537.173,515.453 538.424,516.704 539.675,517.955 541.186,518.58 542.958,518.58 544.73,518.58 546.241,517.955 547.492,516.704 548.743,515.453 549.369,513.941 549.369,512.169 549.369,510.397 548.743,508.886 547.492,507.635 546.241,506.384 544.73,505.759 542.958,505.759 541.186,505.759 539.675,506.384 538.424,507.635 537.173,508.886 536.548,510.397 536.548,512.169z M481.146,584.092 C481.146,585.708 481.746,587.089 482.892,588.236 484.039,589.382 485.394,589.955 487.009,589.955 488.625,589.955 490.032,589.382 491.179,588.236 492.325,587.089 492.873,585.708 492.873,584.092 492.873,582.477 492.325,581.095 491.179,579.949 490.032,578.802 488.625,578.229 487.009,578.229 485.394,578.229 484.039,578.802 482.892,579.949 481.746,581.095 481.146,582.477 481.146,584.092z M469.576,599.206 C469.602,598.399 469.315,597.695 468.742,597.122 468.169,596.548 467.465,596.262 466.631,596.262 465.85,596.262 465.146,596.548 464.573,597.122 463.999,597.695 463.713,598.399 463.687,599.206 463.713,600.014 463.999,600.718 464.573,601.291 465.146,601.864 465.85,602.151 466.631,602.151 467.465,602.151 468.169,601.864 468.742,601.291 469.315,600.718 469.602,600.014 469.576,599.206z M628.119,470.944 C628.119,468.078 627.128,465.628 625.122,463.622 623.115,461.615 620.64,460.599 617.773,460.599 614.907,460.599 612.483,461.615 610.477,463.622 608.47,465.628 607.428,468.078 607.428,470.944 607.428,473.811 608.47,476.26 610.477,478.267 612.483,480.273 614.907,481.29 617.773,481.29 620.64,481.29 623.115,480.273 625.122,478.267 627.128,476.26 628.119,473.811 628.119,470.944z M508.56,398.917 Q503.14,398.917 499.309,402.748 C496.756,405.302 495.479,408.403 495.453,412.025 495.479,415.647 496.756,418.748 499.309,421.302 501.863,423.856 504.964,425.133 508.56,425.133 512.208,425.133 515.309,423.856 517.863,421.302 520.417,418.748 521.694,415.647 521.668,412.025 521.694,408.403 520.417,405.302 517.863,402.748 515.309,400.194 512.208,398.917 508.56,398.917z M525.681,398.37 C524.274,398.37 523.101,398.865 522.111,399.855 521.121,400.846 520.599,402.044 520.599,403.451 520.599,404.859 521.121,406.057 522.111,407.048 523.101,408.038 524.274,408.533 525.681,408.533 527.088,408.533 528.313,408.038 529.303,407.048 530.293,406.057 530.762,404.859 530.762,403.451 530.762,402.044 530.293,400.846 529.303,399.855 528.313,398.865 527.088,398.37 525.681,398.37z M543.062,400.637 C543.062,399.126 542.567,397.849 541.499,396.78 540.43,395.712 539.127,395.191 537.616,395.191 536.105,395.191 534.854,395.712 533.785,396.78 532.717,397.849 532.17,399.126 532.17,400.637 532.17,402.149 532.717,403.425 533.785,404.494 534.854,405.562 536.105,406.083 537.616,406.083 539.127,406.083 540.43,405.562 541.499,404.494 542.567,403.425 543.062,402.149 543.062,400.637z"/>
          </g>
        </g>
      </g>
    </g>
  </g>
</svg>