
<svg xmlns="http://www.w3.org/2000/svg" version="1.1" xmlns:xlink="http://www.w3.org/1999/xlink" preserveAspectRatio="none" x="0px" y="0px" width="1024px" height="1024px" viewBox="0 0 1024 1024">
<defs>
<g id="Layer4_0_FILL">
<path fill="#000000" fill-opacity="0.09803921568627451" stroke="none" d="
M 965.6 347.25
Q 957 326.4 946.2 306.4 940.1 295.05 933.3 284 903.95 236.45 861.75 194.2 723.5 55.95 527.95 55.95 332.45 55.95 194.2 194.2 55.95 332.45 55.95 527.95 55.95 723.5 194.2 861.75 332.45 999.95 527.95 999.95 723.5 999.95 861.75 861.75 937.9 785.55 972.1 692 999.95 615.75 999.95 527.95 999.95 460.6 983.55 400 981.7 393.15 979.65 386.4 973.5 366.45 965.6 347.25 Z"/>
</g>

<g id="Layer3_0_FILL">
<path fill="#613FA0" stroke="none" d="
M 978.75 595.25
Q 985.4 555.125 985.4 512.25 985.4 316.45 846.95 178 708.5 39.55 512.65 39.55 316.85 39.55 178.4 178 39.95 316.45 39.95 512.25 39.95 554.999609375 46.55 595 70.1705078125 738.3205078125 178.4 846.55 276.5921875 944.78203125 403.6 973.3 436.051953125 980.5654296875 470.35 983.3 491.15 985 512.65 985 568.9103515625 985 620.4 973.55 748.271484375 945.228515625 846.95 846.55 917.3 776.2 951.9 691.05 970.4927734375 645.2896484375 978.75 595.25 Z"/>
</g>

<g id="Layer2_0_FILL">
<path fill="#000000" fill-opacity="0.2" stroke="none" d="
M 985.4 512.25
Q 985.4 507.64609375 985.3 503.05
L 746.65 264.4 328 294 274.65 696.3 561.15 982.8
Q 591.53203125 979.9828125 620.4 973.55 748.271484375 945.228515625 846.95 846.55 917.3 776.2 951.9 691.05 970.4927734375 645.2896484375 978.75 595.25 985.4 555.125 985.4 512.25 Z"/>
</g>

<g id="Layer1_0_FILL">
<path fill="#FFFFFF" stroke="none" d="
M 746.65 566.7
L 746.65 264.4 307.6 264.4 274.65 349.75 274.65 696.3 392.9 696.3 392.9 758 458.7 758 521.45 696.3 617.05 696.3 746.65 566.7
M 702.45 308.65
L 702.45 545.15 628.4 618.15 510.15 618.15 448.4 680.9 448.4 618.15 348.65 618.15 348.65 308.65 702.45 308.65
M 510.15 394
L 466.9 394 466.9 522.55 510.15 522.55 510.15 394
M 628.4 394
L 584.2 394 584.2 522.55 628.4 522.55 628.4 394 Z"/>
</g>
</defs>

<g transform="matrix( 1, 0, 0, 1, 0,0) ">
<use xlink:href="#Layer4_0_FILL"/>
</g>

<g transform="matrix( 1, 0, 0, 1, 0,0) ">
<use xlink:href="#Layer3_0_FILL"/>
</g>

<g transform="matrix( 1, 0, 0, 1, 0,0) ">
<use xlink:href="#Layer2_0_FILL"/>
</g>

<g transform="matrix( 1, 0, 0, 1, 0,0) ">
<use xlink:href="#Layer1_0_FILL"/>
</g>
</svg>
