
<svg xmlns="http://www.w3.org/2000/svg" version="1.1" xmlns:xlink="http://www.w3.org/1999/xlink" preserveAspectRatio="none" x="0px" y="0px" width="1024px" height="1024px" viewBox="0 0 1024 1024">
<defs>
<g id="Layer4_0_FILL">
<path fill="#000000" fill-opacity="0.09803921568627451" stroke="none" d="
M 969.6 351.25
Q 961 330.4 950.2 310.4 944.1 299.05 937.3 288 907.95 240.45 865.75 198.2 727.5 59.95 531.95 59.95 436.434375 59.95 354.55 92.95 268.905078125 127.494921875 198.2 198.2 143.090625 253.309375 109.95 317.5 59.95 414.3802734375 59.95 531.95 59.95 649.5498046875 109.95 746.4 137.2083984375 799.24296875 179.3 845.9 188.4185546875 855.9685546875 198.2 865.75 336.45 1003.95 531.95 1003.95 727.5 1003.95 865.75 865.75 941.9 789.55 976.1 696 1003.95 619.75 1003.95 531.95 1003.95 464.6 987.55 404 985.7 397.15 983.65 390.4 977.5 370.45 969.6 351.25 Z"/>
</g>

<g id="Layer3_0_FILL">
<path fill="#F1F1F1" stroke="none" d="
M 969.7 392
Q 967.95 385.15 966.05 378.4 964.52578125 373.114453125 962.85 367.85 960.3787109375 359.903125 957.6 352.05 947.85 324.5 934.45 298.4 928.65 287.05 922.15 276 891.5 224 845.8 178.25 736.8 69.25 592.15 46.2 567.65 42.3 542.1 40.85 527.2 40 512 40 497.9 40 484.1 40.75 379.4734375 46.1712890625 291.95 92.95 230.9455078125 125.5544921875 178.25 178.25 138.33984375 218.16015625 109.95 262.85 40 372.937109375 40 512 40 651.0984375 109.95 761.2 138.33984375 805.88984375 178.25 845.8 178.300390625 845.850390625 178.35 845.9 263.1033203125 930.5765625 369.35 963.35 423.8880859375 980.1630859375 484.1 983.3 484.3 983.3 484.5 983.3 496.65 983.9 509 984 510.5 984 512 984 527.25 984 542.1 983.2 545.6 983 549.05 982.75 579.1 980.6 607.75 975.05 619.55 972.75 631.15 969.9 751.75 939.85 845.8 845.8 918.7 772.85 953.15 684 980.9 612.4 983.7 530.5 984 521.3 984 512 984 511 984 510 984 509.5 984 509 983.65 447.7 969.7 392 Z"/>
</g>

<g id="Layer2_0_FILL">
<path fill="#000000" fill-opacity="0.09803921568627451" stroke="none" d="
M 953.15 684
Q 979.473046875 616.0818359375 983.35 538.9
L 744.1 299.65
Q 575.671484375 223.457421875 459.9 203.3
L 459.9 237.95 371.95 237.95 371.95 267.95 319.95 267.95 319.95 287.95 297.95 287.95 297.95 315.95 273.95 315.95 273.95 339.95 252.95 339.95 252.95 380.95 228.95 380.95 228.95 445.95 209.25 445.95
Q 223.4296875 563.16875 289.2 735.35
L 537.3 983.45
Q 539.6990234375 983.329296875 542.1 983.2 545.6 983 549.05 982.75 579.1 980.6 607.75 975.05 619.55 972.75 631.15 969.9 751.75 939.85 845.8 845.8 918.7 772.85 953.15 684 Z"/>
</g>

<g id="Layer1_0_FILL">
<path fill="#3CADDE" stroke="none" d="
M 512.7 432.55
Q 512.8 432.55 512.9 432.55
L 512.9 397
Q 512.45078125 397 512 397 511.9498046875 397 511.9 397 464.314453125 397.0353515625 430.65 430.65 397 464.35 397 512 397 528.266796875 400.9 542.9 406.2779296875 562.8861328125 418.95 579.8 424.17734375 586.82734375 430.65 593.3 464.314453125 626.964453125 511.9 627 511.9498046875 627 512 627 512.45078125 627 512.9 627
L 512.9 591
Q 511.3400390625 591.25 509.7 591.25 500.75 591.25 494.55 585.05 488.15 578.85 488.15 569.9 488.15 561 494.55 554.8 500.75 548.35 509.7 548.35 511.3400390625 548.35 512.9 548.55
L 512.9 539.2 498.3 539.2
Q 495.3 539.2 493.1 536.95 490.85 534.95 490.85 531.75
L 490.85 528.75
Q 490.85 516.1 499.55 507.45 503.540234375 503.459765625 512.9 497.85
L 512.9 464.65
Q 511.5658203125 464.55 510.2 464.55 501.75 464.55 495.8 468.5 491.1 471.75 484.65 479.9 482.9 482.4 479.7 482.65 476.7 483.15 474.25 481.15
L 460.85 471
Q 458.6 469.25 458.1 466.25 457.65 463.3 459.35 460.8 469.3 446.7 481.45 440 494.55 432.55 512.7 432.55 Z"/>

<path fill="#333333" stroke="none" d="
M 524.6 468.75
Q 519.0884765625 465.294921875 512.9 464.65
L 512.9 497.85
Q 514.5650390625 496.849609375 516.4 495.8 524.6 491.3 527.55 488.6 531.5 484.6 531.5 479.9 531.5 473.45 524.6 468.75
M 512.9 397
L 512.9 432.55
Q 533.3294921875 432.61640625 549.6 446.2 567 460.55 567 480.15 567 501 547.65 513.65 537.95 519.35 534.25 521.8 528.3 525.8 528.3 530
L 528.3 531.75
Q 528.3 534.95 526.05 536.95 523.85 539.2 520.85 539.2
L 512.9 539.2 512.9 548.55
Q 519.6158203125 549.5658203125 524.85 554.8 531.05 561 531.05 569.9 531.05 578.85 524.85 585.05 519.6158203125 590.08125 512.9 591
L 512.9 627
Q 559.968359375 626.68125 593.3 593.3 627 559.65 627 512 627 464.35 593.3 430.65 559.968359375 397.318359375 512.9 397 Z"/>
</g>

<path id="Layer1_0_1_STROKES" stroke="#333333" stroke-width="42" stroke-linejoin="round" stroke-linecap="round" fill="none" d="
M 511.9 218.15
Q 512.17109375 218.15 512.4 218.15 512.7 218.15 513 218.15 634.45 218.35 720.15 304.15 806.3 390.25 806.3 512 806.3 633.8 720.15 719.75 634.45 805.65 513 805.9 512.7 805.9 512.4 805.9 512.17109375 805.9 511.9 805.9
M 511.9 321.4
Q 512.25 321.4 512.5 321.4 512.719140625 321.4 512.9 321.4
L 512.95 321.4
Q 591.55 321.55 647.2 377.15 703.05 433 703.05 511.95 703.05 590.9 647.2 646.7 591.55 702.4 512.95 702.55 512.75 702.55 512.5 702.55 512.25 702.55 511.9 702.55"/>

<path id="Layer1_0_2_STROKES" stroke="#FD5457" stroke-width="42" stroke-linejoin="round" stroke-linecap="round" fill="none" d="
M 511.9 805.9
L 511.85 805.9
Q 390.45 805.65 304.55 719.75 218.55 633.8 218.55 512 218.55 390.25 304.55 304.15 390.45 218.35 511.85 218.15
L 511.9 218.15"/>

<path id="Layer1_0_3_STROKES" stroke="#23B9B1" stroke-width="42" stroke-linejoin="round" stroke-linecap="round" fill="none" d="
M 511.9 702.55
Q 434.152734375 702.3521484375 378.85 647.9 378.2537109375 647.3037109375 377.65 646.7 365.4681640625 634.4962890625 355.95 621.175 353.379296875 617.58046875 351 613.9 350.4716796875 613.07734375 349.95 612.25 321.95 567.9267578125 321.95 511.95 321.95 450.2666015625 355.95 402.675 365.4681640625 389.3646484375 377.65 377.15 433.3 321.6 511.9 321.4"/>
</defs>

<g transform="matrix( 1, 0, 0, 1, 0,0) ">
<use xlink:href="#Layer4_0_FILL"/>
</g>

<g transform="matrix( 1, 0, 0, 1, 0,0) ">
<use xlink:href="#Layer3_0_FILL"/>
</g>

<g transform="matrix( 1, 0, 0, 1, 0,0) ">
<use xlink:href="#Layer2_0_FILL"/>
</g>

<g transform="matrix( 1, 0, 0, 1, 0,0) ">
<use xlink:href="#Layer1_0_FILL"/>

<use xlink:href="#Layer1_0_1_STROKES"/>

<use xlink:href="#Layer1_0_2_STROKES"/>

<use xlink:href="#Layer1_0_3_STROKES"/>
</g>
</svg>
