<?xml version="1.0" encoding="utf-8"?>
<!-- Generator: flash2svg, http://dissentgraphics.com/tools/flash2svg -->
<svg xmlns:xlink="http://www.w3.org/1999/xlink" id="Apps-Amadeus" image-rendering="optimizeSpeed" baseProfile="basic" version="1.1" style="background-color:#ffffff" x="0px" y="0px" width="1024px" height="1024px" viewBox="0 0 1024 1024" enable-background="new 0 0 1024 1024" xmlns="http://www.w3.org/2000/svg">
  <defs transform="matrix(1 0 0 1 0 0) "/>
  <g id="background-circle-shadow">
    <g id="shape">
      <path id="path" fill="#000000" fill-opacity="0.09803921568627451" d="M969.65,351.3 Q961.05,330.45 950.25,310.45 C946.2,302.9 941.9,295.4 937.35,288.05 917.8,256.35 893.95,226.4 865.8,198.25 773.65,106.1 662.35,60 532,60 401.65,60 290.4,106.1 198.25,198.25 106.1,290.4 60,401.65 60,532 60,662.35 106.1,773.65 198.25,865.8 290.4,957.95 401.65,1004 532,1004 662.35,1004 773.65,957.95 865.8,865.8 916.55,815 953.35,758.4 976.15,696.05 994.7,645.2 1004,590.55 1004,532 1004,487.1 998.55,444.45 987.6,404.05 986.35,399.5 985.05,394.95 983.7,390.45 979.6,377.15 974.9,364.1 969.65,351.3z"/>
    </g>
  </g>
  <g id="background-circle">
    <g id="shape2">
      <path id="path1" fill="#E24C3F" fill-opacity="1" d="M966.1,378.45 C965.1,375.05 964.1,371.6 962.95,367.95 961.35,362.8 959.55,357.45 957.65,352.1 951.2,333.85 943.5,316.05 934.5,298.45 930.7,291.05 926.55,283.5 922.2,276.05 901.9,241.55 876.4,208.85 845.85,178.3 773.25,105.7 688.7,61.65 592.2,46.25 575.95,43.65 559.4,41.85 542.15,40.9 532.45,40.35 522.3,40.05 512.05,40.05 502.7,40.05 493.45,40.3 484.15,40.8 365.8,46.9 263.85,92.75 178.3,178.3 Q40.05,316.55 40.05,512.05 C40.05,642.4 86.15,753.7 178.3,845.85 235,902.5 298.85,941.75 369.4,963.4 406.15,974.65 444.2,981.25 484.15,983.35 484.3,983.35 484.4,983.35 484.55,983.35 493.05,983.8 501.15,984.05 509.05,984.05 510.25,984.05 511.15,984.05 512.05,984.05 522.35,984.05 532.55,983.75 542.15,983.25 544.65,983.1 546.9,982.95 549.1,982.8 569.3,981.35 589,978.75 607.8,975.1 615.75,973.55 623.6,971.8 631.2,969.95 712,949.65 783.35,908.35 845.85,845.85 894.45,797.25 930.25,743.35 953.2,684.05 971.65,636.4 981.85,585.25 983.75,530.55 983.95,524.5 984.05,518.3 984.05,512.05 984.05,511.4 984.05,510.7 984.05,510.05 984.05,509.7 984.05,509.4 984.05,509.05 983.85,468.4 979.1,429.55 969.75,392.05 968.65,387.7 967.4,383.05 966.1,378.45z"/>
    </g>
  </g>
  <g id="object-shadow">
    <g id="shape4">
      <path id="path2" fill="#000000" fill-opacity="0.2" d="M980.125,576.375 L671.3,267.55 368.475,573.05 296.05,573.05 301.3,668 380.375,806.675 476.05,902.35 487.6,983.5 C495.2,983.9 502.2,984.05 509.05,984.05 Q510.55,984.05 512.05,984.05 C522.35,984.05 532.55,983.75 542.15,983.25 544.65,983.1 546.9,982.95 549.1,982.8 569.3,981.35 589,978.75 607.8,975.1 615.75,973.55 623.6,971.8 631.2,969.95 712,949.65 783.35,908.35 845.85,845.85 894.45,797.25 930.25,743.35 953.2,684.05 966.4,650 975.35,614.15 980.15,576.4"/>
    </g>
  </g>
  <g id="Calque.__204">
    <g id="shape6">
      <path id="path3" fill="#241226" fill-opacity="1" d="M741.2,577.05 Q741.15,571.2 737.05,567.1 C734.3,564.35 731,563 727.1,563 L298.1,563 C294.2,563 290.9,564.35 288.15,567.1 285.4,569.85 284.05,573.15 284.05,577.05 284.05,580.95 285.4,584.25 288.15,587 290.9,589.75 294.2,591.1 298.1,591.15 L727.1,591.15 C731,591.1 734.3,589.75 737.05,587 739.8,584.25 741.15,580.95 741.2,577.05z"/>
    </g>
  </g>
  <mask id="background-circle1">
    <g id="g">
      <g id="shape12">
        <path id="path6" fill="#FFFFFF" fill-opacity="1" d="M966.1,378.45 C965.1,375.05 964.1,371.6 962.95,367.95 961.35,362.8 959.55,357.45 957.65,352.1 951.2,333.85 943.5,316.05 934.5,298.45 930.7,291.05 926.55,283.5 922.2,276.05 901.9,241.55 876.4,208.85 845.85,178.3 773.25,105.7 688.7,61.65 592.2,46.25 575.95,43.65 559.4,41.85 542.15,40.9 532.45,40.35 522.3,40.05 512.05,40.05 502.7,40.05 493.45,40.3 484.15,40.8 365.8,46.9 263.85,92.75 178.3,178.3 Q40.05,316.55 40.05,512.05 C40.05,642.4 86.15,753.7 178.3,845.85 235,902.5 298.85,941.75 369.4,963.4 406.15,974.65 444.2,981.25 484.15,983.35 484.3,983.35 484.4,983.35 484.55,983.35 493.05,983.8 501.15,984.05 509.05,984.05 510.25,984.05 511.15,984.05 512.05,984.05 522.35,984.05 532.55,983.75 542.15,983.25 544.65,983.1 546.9,982.95 549.1,982.8 569.3,981.35 589,978.75 607.8,975.1 615.75,973.55 623.6,971.8 631.2,969.95 712,949.65 783.35,908.35 845.85,845.85 894.45,797.25 930.25,743.35 953.2,684.05 971.65,636.4 981.85,585.25 983.75,530.55 983.95,524.5 984.05,518.3 984.05,512.05 984.05,511.4 984.05,510.7 984.05,510.05 984.05,509.7 984.05,509.4 984.05,509.05 983.85,468.4 979.1,429.55 969.75,392.05 968.65,387.7 967.4,383.05 966.1,378.45z"/>
      </g>
    </g>
  </mask>
  <g id="masked" mask="url(#background-circle1)">
    <g id="object">
      <g id="shape8">
        <path id="path4" fill="#000000" fill-opacity="1" d="M477.05,707.05 L477.05,774.35 547.05,844.35 547.05,707.05 477.05,707.05z"/>
        <path id="path5" fill="#491712" fill-opacity="1" d="M547.05,1033.05 L547.05,844.35 477.05,774.35 477.05,1033.05 547.05,1033.05z"/>
      </g>
    </g>
  </g>
  <g id="Calque.__205">
    <g id="shape14">
      <path id="path7" fill="#64211B" fill-opacity="1" d="M674.55,617.45 L674.55,501.8 398.5,501.8 349.55,501.8 349.55,612.7 C349.55,613.05 349.55,613.4 349.55,613.75 L349.6,618 C350.55,661.05 366.4,697.95 397.15,728.65 428.9,760.4 467.2,776.25 512.05,776.25 520.45,776.25 528.6,775.7 536.5,774.6 571.05,769.75 601.2,754.45 626.95,728.65 657.8,697.8 673.7,660.75 674.55,617.45z"/>
      <path id="path8" fill="#FFCB5B" fill-opacity="1" d="M398.5,451.25 L349.55,451.25 349.55,501.8 398.5,501.8 398.5,451.25z"/>
      <path id="path9" fill="#EDAF2D" fill-opacity="1" d="M674.55,501.8 L674.55,451.25 398.5,451.25 398.5,501.8 674.55,501.8z"/>
      <path id="path10" fill="#999999" fill-opacity="1" d="M674.55,285.2 C674.35,279.15 673.3,273.35 671.3,267.55 L589.65,267.55 C583,267.55 579.65,270.9 579.65,277.55 L579.65,292.55 C579.65,299.2 583,302.55 589.65,302.55 L674.55,302.55 674.55,285.2z M674.55,362.55 L674.55,327.55 589.65,327.55 C583,327.55 579.65,330.9 579.65,337.55 L579.65,352.55 C579.65,359.2 583,362.55 589.65,362.55 L674.55,362.55z M674.55,422.55 L674.55,387.55 589.65,387.55 C583,387.55 579.65,390.9 579.65,397.55 L579.65,412.55 C579.65,419.2 583,422.55 589.65,422.55 L674.55,422.55z M444.45,277.55 C444.45,270.9 441.1,267.55 434.45,267.55 L352.85,267.55 C352.7,268.05 352.5,268.55 352.35,269.05 350.5,274.9 349.55,281 349.55,287.3 349.55,287.85 349.55,288.35 349.6,288.9 L349.6,302.55 434.45,302.55 C441.1,302.55 444.45,299.2 444.45,292.55 L444.45,277.55z M349.575,327.55 L349.575,362.55 434.45,362.55 C441.1,362.55 444.45,359.2 444.45,352.55 L444.45,337.55 C444.45,330.9 441.1,327.55 434.45,327.55 L349.575,327.55z M434.45,387.55 L349.575,387.55 349.55,422.55 434.45,422.55 C441.1,422.55 444.45,419.2 444.45,412.55 L444.45,397.55 C444.45,390.9 441.1,387.55 434.45,387.55z"/>
      <path id="path19" fill="#CCCCCC" fill-opacity="1" d="M674.55,327.55 L674.55,302.55 589.65,302.55 C583,302.55 579.65,299.2 579.65,292.55 L579.65,277.55 C579.65,270.9 583,267.55 589.65,267.55 L671.3,267.55 C665.25,250 650.45,234.3 626.95,220.75 601.2,205.8 571.05,196.9 536.5,194.1 528.6,193.45 520.45,193.15 512.05,193.15 467.2,193.15 428.9,202.35 397.15,220.75 373.8,234.3 359,249.9 352.85,267.55 L434.45,267.55 C441.1,267.55 444.45,270.9 444.45,277.55 L444.45,292.55 C444.45,299.2 441.1,302.55 434.45,302.55 L349.6,302.55 349.575,327.55 434.45,327.55 C441.1,327.55 444.45,330.9 444.45,337.55 L444.45,352.55 C444.45,359.2 441.1,362.55 434.45,362.55 L349.575,362.55 349.575,387.55 434.45,387.55 C441.1,387.55 444.45,390.9 444.45,397.55 L444.45,412.55 C444.45,419.2 441.1,422.55 434.45,422.55 L349.55,422.55 349.55,451.25 398.5,451.25 674.55,451.25 674.55,422.55 589.65,422.55 C583,422.55 579.65,419.2 579.65,412.55 L579.65,397.55 C579.65,390.9 583,387.55 589.65,387.55 L674.55,387.55 674.55,362.55 589.65,362.55 C583,362.55 579.65,359.2 579.65,352.55 L579.65,337.55 C579.65,330.9 583,327.55 589.65,327.55 L674.55,327.55z"/>
    </g>
  </g>
  <g id="Calque.__206">
    <g id="shape31">
      <path id="path22" fill="#7C271E" fill-opacity="1" d="M403.1,540.45 Q397.565,540.445 393.65,544.35 C391.05,546.95 389.75,550.1 389.75,553.8 L389.75,611.775 L389.75,611.8 C389.7,613.05 389.7,614.35 389.7,615.65 389.7,616.65 389.7,617.65 389.75,618.7 L389.75,618.675 L389.75,618.875 L389.75,618.9 C389.75,618.95 389.75,618.95 389.75,619 390.5,650.85 402.25,678.1 424.95,700.8 443.2,719.05 464.4,730.2 488.55,734.3 492.2,734.95 495.5,734.2 498.5,732.05 501.5,729.9 503.3,727 503.95,723.4 504.6,719.75 503.85,716.45 501.7,713.45 499.55,710.45 496.65,708.65 493.05,708 474.4,704.75 458,696.05 443.85,681.9 426.4,664.45 417.25,643.5 416.45,619.15 L416.45,618.55 C416.45,618.45 416.45,618.35 416.45,618.25 416.45,618.2 416.45,618.15 416.45,618.1 L416.45,612.525 L416.45,612.55 C416.45,612.4 416.45,612.3 416.45,612.15 L416.45,553.8 C416.45,550.1 415.15,546.95 412.55,544.35 409.95,541.75 406.8,540.45 403.1,540.45z"/>
    </g>
  </g>
  <g id="Calque.__207">
    <g id="shape33">
      <path id="path23" fill="#7C271E" fill-opacity="1" d="M728.5,539.775 Q722.671,539.776 718.55,543.9 C715.8,546.65 714.45,549.95 714.45,553.85 L714.425,553.85 L714.425,612.35 L714.45,612.35 C714.4,612.55 714.4,612.75 714.45,612.95 L714.425,612.925 L714.425,622.275 L714.45,622.3 C714.4,622.35 714.4,622.45 714.45,622.55 713.3,676.35 693.55,722.45 655.2,760.8 615.65,800.35 567.95,820.1 512.05,820.1 456.15,820.1 408.45,800.35 368.9,760.8 330.55,722.45 310.85,676.4 309.7,622.65 309.7,622.5 309.7,622.4 309.7,622.3 309.65,622.2 309.65,622.1 309.7,622 L309.675,621.975 L309.675,612.925 L309.7,612.95 C309.7,612.85 309.7,612.75 309.7,612.65 L309.675,612.65 L309.675,553.85 L309.7,553.85 C309.65,549.95 308.3,546.65 305.55,543.9 302.8,541.15 299.5,539.8 295.6,539.8 291.7,539.8 288.4,541.15 285.65,543.9 282.9,546.65 281.55,549.95 281.55,553.85 L281.525,553.85 L281.525,612.375 L281.55,612.4 C281.5,612.45 281.5,612.55 281.55,612.65 281.5,614.3 281.45,616 281.5,617.65 281.45,619.3 281.5,620.9 281.55,622.5 281.5,622.6 281.5,622.7 281.55,622.85 281.55,622.95 281.55,623.05 281.55,623.15 L281.525,623.125 L281.525,623.175 L281.55,623.2 C282.8,684.5 305.3,737 349,780.7 394,825.7 448.35,848.2 512.05,848.25 575.75,848.2 630.1,825.7 675.1,780.7 718.8,737 741.3,684.5 742.6,623.2 L742.575,623.175 L742.575,622.825 L742.6,622.85 C742.6,622.75 742.6,622.65 742.6,622.55 742.65,620.9 742.65,619.3 742.65,617.65 742.65,615.9 742.65,614.15 742.6,612.4 L742.575,612.375 L742.575,553.85 L742.6,553.85 C742.55,549.95 741.2,546.65 738.45,543.9 735.7,541.15 732.4,539.8 728.5,539.8"/>
    </g>
  </g>
</svg>