<?xml version="1.0" encoding="utf-8"?>
<!-- Generator: flash2svg, http://dissentgraphics.com/tools/flash2svg -->
<svg xmlns:xlink="http://www.w3.org/1999/xlink" id="Apps-Google-Photos" image-rendering="optimizeSpeed" baseProfile="basic" version="1.1" style="background-color:#ffffff" x="0px" y="0px" width="1024px" height="1024px" viewBox="0 0 1024 1024" enable-background="new 0 0 1024 1024" xmlns="http://www.w3.org/2000/svg">
  <defs transform="matrix(1 0 0 1 0 0) "/>
  <g id="shadow">
    <g id="shape">
      <path id="path" fill="#000000" fill-opacity="0.09803921568627451" d="M969.65,351.3 Q961.05,330.45 950.25,310.45 C946.2,302.9 941.9,295.4 937.35,288.05 917.8,256.35 893.95,226.4 865.8,198.25 773.65,106.1 662.35,60 532,60 401.65,60 290.4,106.1 198.25,198.25 106.1,290.4 60,401.65 60,532 60,662.35 106.1,773.65 198.25,865.8 290.4,957.95 401.65,1004 532,1004 662.35,1004 773.65,957.95 865.8,865.8 916.55,815 953.35,758.4 976.15,696.05 994.7,645.2 1004,590.55 1004,532 1004,487.1 998.55,444.45 987.6,404.05 986.35,399.5 985.05,394.95 983.7,390.45 979.6,377.15 974.9,364.1 969.65,351.3z"/>
    </g>
  </g>
  <g id="circle">
    <g id="shape2">
      <path id="path1" fill="#E85479" fill-opacity="1" d="M982.1,517 Q982.1,514.55 982.1,512.05 C982.1,381.7 936.05,270.45 843.9,178.3 752,86.45 641.05,40.35 511.1,40.1 L511.1,515.05 513.1,515.05 513.1,517 982.1,517z"/>
      <path id="path2" fill="#00C0E6" fill-opacity="1" d="M511.1,40.1 C510.75,40.1 510.45,40.1 510.1,40.1 379.75,40.1 268.5,86.15 176.35,178.3 84.2,270.45 38.15,381.7 38.15,512.05 38.15,513.05 38.15,514.05 38.15,515.05 L511.1,515.05 511.1,40.1z"/>
      <path id="path3" fill="#EBC240" fill-opacity="1" d="M513.1,517 L513.1,515.05 511.1,515.05 38.15,515.05 C38.85,644.15 84.9,754.4 176.35,845.85 268.5,938 379.75,984.05 510.1,984.05 510.45,984.05 510.75,984.05 511.1,984.05 511.75,984.05 512.45,984.05 513.1,984.05 L513.1,517z"/>
      <path id="path4" fill="#55DA97" fill-opacity="1" d="M513.1,517 L513.1,984.05 C642.2,983.3 752.45,937.25 843.9,845.85 934.85,754.85 980.95,645.25 982.1,517 L513.1,517z"/>
    </g>
  </g>
  <g id="inner-circle">
    <g id="shape8">
      <path id="path5" fill="#FFFFFF" fill-opacity="1" d="M862.45,528.85 Q862.8,520.524 862.8,512.05 C862.8,415.2 828.55,332.5 760.1,264.05 691.6,195.6 608.9,161.35 512.05,161.35 415.2,161.35 332.5,195.6 264.05,264.05 195.6,332.5 161.35,415.2 161.35,512.05 161.35,608.9 195.6,691.6 264.05,760.1 332.5,828.55 415.2,862.8 512.05,862.8 543.45,862.8 573.35,859.2 601.8,852 661,837 713.8,806.35 760.1,760.1 824.5,695.65 858.65,618.65 862.45,528.85z"/>
    </g>
  </g>
  <g id="ico-shadow">
    <g id="shape10">
      <path id="path6" fill="#000000" fill-opacity="0.09803921568627451" d="M760.1,760.1 Q827.497,692.67 850.675,606.925 L544.8,301.05 507.825,442.525 280.95,512.85 419.1,651 494.05,744.75 601.4,852.1 C601.55,852.05 601.65,852.05 601.8,852 661,837 713.8,806.35 760.1,760.1z"/>
    </g>
  </g>
  <g id="Calque.__202">
    <g id="shape12">
      <path id="path7" fill="#95A6A6" fill-opacity="1" d="M746.9,517.55 Q744.25,514.9 740.5,514.9 L621.95,514.9 C625.95,514 627.95,511.1 627.95,506.2 L627.95,409.3 C627.95,407.4 627.65,405.8 627.05,404.5 626.6,403.45 625.5,401.85 623.75,399.7 L532.25,285.4 C530.9,283.65 529.85,282.4 529.05,281.6 527.3,279.85 525.15,278.95 522.7,278.95 L522.1,278.95 C519.6,278.95 517.45,279.85 515.7,281.6 513.95,283.35 513.05,285.5 513.05,288 L513.05,466.5 C512.8,496.4 527.75,512.55 557.85,515 529.4,516.2 514.55,532.4 513.3,563.65 L513.3,620.8 C513.3,626.85 516.3,629.85 522.3,629.85 L619.2,629.85 C621.1,629.85 622.7,629.55 624,628.95 625.05,628.45 626.65,627.35 628.8,625.6 L743.15,534.15 C744.85,532.8 746.1,531.7 746.9,530.9 748.65,529.15 749.55,527 749.55,524.55 L749.55,523.95 C749.55,521.45 748.65,519.3 746.9,517.55z M283.2,496 C281.45,497.35 280.2,498.45 279.4,499.2 277.65,500.95 276.8,503.1 276.8,505.6 L276.8,506.2 C276.8,508.65 277.65,510.8 279.4,512.55 281.15,514.3 283.3,515.2 285.8,515.2 L404.4,515.2 C400.35,516.1 398.35,519 398.35,523.95 L398.35,620.8 C398.35,622.7 398.65,624.3 399.25,625.6 399.7,626.65 400.8,628.3 402.55,630.45 L494.05,744.75 C495.4,746.5 496.5,747.75 497.25,748.5 499,750.25 501.15,751.15 503.65,751.15 L504.25,751.15 C506.7,751.15 508.85,750.25 510.6,748.5 512.35,746.75 513.25,744.6 513.25,742.15 L513.25,563.65 C513.5,533.7 498.55,517.55 468.45,515.15 496.95,513.95 511.8,497.75 513,466.5 L513,409.3 C513,403.3 510,400.3 504,400.3 L407.15,400.3 C405.2,400.3 403.6,400.6 402.3,401.2 401.25,401.65 399.65,402.75 397.5,404.5 L283.2,496z"/>
    </g>
  </g>
</svg>