<?xml version="1.0" encoding="utf-8"?>
<!-- Generator: flash2svg, http://dissentgraphics.com/tools/flash2svg -->
<svg id="Ms-Excel" image-rendering="optimizeSpeed" baseProfile="basic" version="1.1" style="background-color:#FFFFFF" x="0px" y="0px" width="1024px" height="1024px" viewBox="0 0 1024 1024" enable-background="new 0 0 1024 1024" xmlns="http://www.w3.org/2000/svg" xmlns:xlink="http://www.w3.org/1999/xlink">
  <defs transform="matrix(1 0 0 1 0 0) "/>
  <g id="shadow">
    <g id="shape">
      <path id="path" fill="#000000" fill-opacity="0.09803921568627451" d="M969.6,351.25 Q961,330.4 950.2,310.4 C946.15,302.85 941.85,295.35 937.3,288 917.75,256.3 893.9,226.35 865.75,198.2 773.6,106.05 662.3,59.95 531.95,59.95 401.6,59.95 290.35,106.05 198.2,198.2 106.05,290.35 59.95,401.6 59.95,531.95 59.95,662.3 106.05,773.6 198.2,865.75 290.35,957.9 401.6,1003.95 531.95,1003.95 662.3,1003.95 773.6,957.9 865.75,865.75 916.5,814.95 953.3,758.35 976.1,696 994.65,645.15 1003.95,590.5 1003.95,531.95 1003.95,487.05 998.5,444.4 987.55,404 986.3,399.45 985,394.9 983.65,390.4 979.55,377.1 974.85,364.05 969.6,351.25z"/>
    </g>
  </g>
  <g id="circle">
    <g id="shape2">
      <path id="path1" fill="#3B5C2D" fill-opacity="1" d="M969.7,392 C968.6,387.65 967.35,383 966.05,378.4 963.55,369.65 960.7,360.8 957.6,352.05 951.15,333.8 943.45,316 934.45,298.4 930.65,291 926.5,283.45 922.15,276 901.85,241.5 876.35,208.8 845.8,178.25 773.2,105.65 688.65,61.6 592.15,46.2 575.9,43.6 559.35,41.8 542.1,40.85 532.4,40.3 522.25,40 512,40 502.65,40 493.4,40.25 484.1,40.75 365.75,46.85 263.8,92.7 178.25,178.25 Q40,316.5 40,512 C40,642.35 86.1,753.65 178.25,845.8 263.8,931.3 365.75,977.15 484.1,983.3 484.25,983.3 484.35,983.3 484.5,983.3 487.9,983.5 491.25,983.65 494.1,983.7 499.45,983.9 504.25,984 509,984 510.2,984 511.1,984 512,984 522.3,984 532.5,983.7 542.1,983.2 544.6,983.05 546.85,982.9 549.05,982.75 569.25,981.3 588.95,978.7 607.75,975.05 615.7,973.5 623.55,971.75 631.15,969.9 632.1,969.65 633.05,969.4 633.8,969.25 713.65,948.6 784.05,907.55 845.8,845.8 894.4,797.2 930.2,743.3 953.15,684 959.8,666.85 965.4,649.2 969.95,631 977.9,599 982.5,565.5 983.7,530.5 983.9,524.45 984,518.25 984,512 984,511.35 984,510.65 984,510 984,509.65 984,509.35 984,509 983.95,501.8 983.75,494.7 983.45,487.4 981.95,454.65 977.4,422.85 969.7,392z"/>
    </g>
  </g>
  <g id="ico-shadow">
    <g id="shape4">
      <path id="path2" fill="#000000" fill-opacity="0.2" d="M953.15,684 C959.8,666.85 965.4,649.2 969.95,631 L969.925,630.975 Q975.879,607.066 979.325,582.125 L672.2,275 414.95,407.1 379.425,723.475 626.875,970.925 L626.9,970.95 C628.3,970.6 629.75,970.25 631.15,969.9 632.1,969.65 633.05,969.4 633.8,969.25 713.65,948.6 784.05,907.55 845.8,845.8 894.4,797.2 930.2,743.3 953.15,684z"/>
    </g>
  </g>
  <g id="ico">
    <g id="shape6">
      <path id="path3" fill="#FFFFFF" fill-opacity="0.9882352941176471" d="M675.75,749.05 L675.75,633.55 510.85,633.55 C500.5,633.55 491.85,632.2 484.5,629.2 477.95,626.8 473.9,621 472.1,611.5 471.9,610.55 471.75,609.55 471.6,608.15 L471.6,747.175 508.55,747.35 C576.85,746 632.6,746.6 675.75,749.05z M675.75,391.55 L675.75,276.1 C598.25,276.75 530.1,277.1 471.15,277.1 L471.15,410.05 C472.5,405.75 475.8,401.7 481.15,397.9 486.5,393.6 494.2,391.55 504.55,391.55 L675.75,391.55z"/>
      <path id="path6" fill="#588B44" fill-opacity="0.9882352941176471" d="M471.15,277.1 C469.65,277.1 467.9,277.1 466.15,277.1 443.5,277.1 424.1,280.05 407.7,286.05 380.85,295.8 362.9,313.8 353.95,339.8 349.3,353.2 347,368.5 347,385.9 L347,642.9 C347,661.6 350,677.95 356.35,691.65 362.35,705.3 370,715.65 379.05,722.65 388.05,729.7 398.4,735.35 410.75,739.7 423.1,744.05 433.1,746.35 440.8,747.05 L471.6,747.175 471.6,608.15 C471.35,605.9 471.15,603 471.15,599.85 L471.15,571.8 643.7,574.05 643.7,458.05 471.15,455.65 471.15,410.05 471.15,277.1z"/>
    </g>
  </g>
</svg>