
<svg xmlns="http://www.w3.org/2000/svg" version="1.1" xmlns:xlink="http://www.w3.org/1999/xlink" preserveAspectRatio="none" x="0px" y="0px" width="1024px" height="1024px" viewBox="0 0 1024 1024">
<defs>
<g id="Layer6_0_FILL">
<path fill="#000000" fill-opacity="0.09803921568627451" stroke="none" d="
M 969.6 351.25
Q 961 330.4 950.2 310.4 944.1 299.05 937.3 288 907.95 240.45 865.75 198.2 727.5 59.95 531.95 59.95 336.45 59.95 198.2 198.2 59.95 336.45 59.95 531.95 59.95 727.5 198.2 865.75 336.45 1003.95 531.95 1003.95 727.5 1003.95 865.75 865.75 941.9 789.55 976.1 696 1003.95 619.75 1003.95 531.95 1003.95 464.6 987.55 404 985.7 397.15 983.65 390.4 977.5 370.45 969.6 351.25 Z"/>
</g>

<g id="Layer5_0_FILL">
<path fill="#5C7303" stroke="none" d="
M 969.7 392
Q 967.95 385.15 966.05 378.4 964.52578125 373.114453125 962.85 367.85 960.3787109375 359.903125 957.6 352.05 947.85 324.5 934.45 298.4 928.65 287.05 922.15 276 891.5 224 845.8 178.25 736.8 69.25 592.15 46.2 567.65 42.3 542.1 40.85 527.2 40 512 40 497.9 40 484.1 40.75 306.55 49.95 178.25 178.25 40 316.5 40 512 40 707.55 178.25 845.8 263.0400390625 930.55703125 369.35 963.35 423.8880859375 980.1630859375 484.1 983.3 484.3 983.3 484.5 983.3 496.65 983.9 509 984 510.5 984 512 984 527.25 984 542.1 983.2 545.6 983 549.05 982.75 579.1 980.6 607.75 975.05 619.55 972.75 631.15 969.9 751.75 939.85 845.8 845.8 918.7 772.85 953.15 684 980.9 612.4 983.7 530.5 984 521.3 984 512 984 511 984 510 984 509.5 984 509 983.65 447.7 969.7 392 Z"/>
</g>

<g id="Layer4_0_FILL">
<path fill="#000000" fill-opacity="0.2" stroke="none" d="
M 969.7 392
Q 967.95 385.15 966.05 378.4 964.52578125 373.114453125 962.85 367.85 960.3787109375 359.903125 957.6 352.05 947.85 324.5 934.45 298.4 932.315234375 294.2224609375 930.05 290.05
L 858 218 659 419 395.9 381.1 360.5 345.7 304 432 330 458 321.5 466.5 293 438 66 475 217.35 626 104.45 732.55 313.95 942.05
Q 340.8859375 954.5697265625 369.35 963.35 423.8880859375 980.1630859375 484.1 983.3 484.3 983.3 484.5 983.3 496.65 983.9 509 984 510.5 984 512 984 527.25 984 542.1 983.2 545.6 983 549.05 982.75 579.1 980.6 607.75 975.05 619.55 972.75 631.15 969.9 751.75 939.85 845.8 845.8 918.7 772.85 953.15 684 980.9 612.4 983.7 530.5 984 521.3 984 512 984 511 984 510 984 509.5 984 509 983.65 447.7 969.7 392 Z"/>
</g>

<g id="Layer3_0_FILL">
<path fill="#C4F406" stroke="none" d="
M 709.9 515.2
Q 709.9 447 652.05 398.75 594.15 350.55 512.35 350.55 512 350.55 511.65 350.55 511.35 350.55 510.95 350.55 429.15 350.55 371.3 398.75 313.4 447 313.4 515.2 313.4 583.4 343.15 612.3 372.85 641.2 399.7 658.35 426.55 675.4 438.1 695.8 443.85 707.5 455.75 717.1 478.6 735.65 510.95 735.65 511.35 735.65 511.65 735.65 512 735.65 512.35 735.65 544.75 735.65 567.6 717.1 579.5 707.5 585.2 695.8 596.75 675.4 623.65 658.35 650.5 641.2 680.2 612.3 709.9 583.4 709.9 515.2 Z"/>
</g>

<g id="Layer2_0_FILL">
<path fill="#333333" stroke="none" d="
M 400.8 508.75
Q 387.6 508.75 378.3 520.8 369 532.9 369 550.05 369 567.2 378.3 579.2 387.6 591.35 400.8 591.35 414 591.35 423.3 579.2 432.65 567.2 432.65 550.05 432.65 532.9 423.3 520.8 414 508.75 400.8 508.75
M 645.7 520.8
Q 636.45 508.75 623.2 508.75 610 508.75 600.7 520.8 591.4 532.9 591.4 550.05 591.4 567.2 600.7 579.2 610 591.35 623.2 591.35 636.45 591.35 645.7 579.2 655.05 567.2 655.05 550.05 655.05 532.9 645.7 520.8 Z"/>
</g>

<g id="Symbol_2_0_Layer0_0_FILL">
<path fill="#FFFF00" stroke="none" d="
M 72 125.3
Q 77.2 125.3 80.85 128.95 84.5 132.6 84.5 137.8
L 84.5 416.2 144 369.6 135.85 327.8 99 357.8 133.3 314.8 126.35 279.2 90 308.8 123.85 266.35 116.6 229.1 99 243.45 115.4 222.9 72 0 28.6 222.9 45 243.45 27.4 229.1 20.15 266.35 54 308.8 17.65 279.2 10.7 314.8 45 357.8 8.15 327.8 0 369.6 59.5 416.2 59.5 137.8
Q 59.5 132.6 63.15 128.95 66.8 125.3 72 125.3 Z"/>

<path fill="#8BAD04" stroke="none" d="
M 80.85 128.95
Q 77.2 125.3 72 125.3 66.8 125.3 63.15 128.95 59.5 132.6 59.5 137.8
L 59.5 416.2 59.5 425.65
Q 59.5 430.85 63.15 434.5 66.8 438.15 72 438.15 77.2 438.15 80.85 434.5 84.5 430.85 84.5 425.65
L 84.5 416.2 84.5 137.8
Q 84.5 132.6 80.85 128.95 Z"/>
</g>

<g id="Layer0_0_FILL">
<path fill="#FFFFFF" stroke="none" d="
M 602 543.35
Q 604.8 543.35 606.75 541.4 608.7 539.45 608.7 536.65 608.7 533.85 606.75 531.9 604.8 529.95 602 529.95 599.2 529.95 597.25 531.9 595.3 533.85 595.3 536.65 595.3 539.45 597.25 541.4 599.2 543.35 602 543.35
M 384.95 539.15
Q 386.9 537.25 386.9 534.55 386.9 531.85 384.95 529.9 383.05 528 380.35 528 377.65 528 375.7 529.9 373.8 531.85 373.8 534.55 373.8 537.25 375.7 539.15 377.65 541.1 380.35 541.1 383.05 541.1 384.95 539.15 Z"/>
</g>
</defs>

<g transform="matrix( 1, 0, 0, 1, 0,0) ">
<use xlink:href="#Layer6_0_FILL"/>
</g>

<g transform="matrix( 1, 0, 0, 1, 0,0) ">
<use xlink:href="#Layer5_0_FILL"/>
</g>

<g transform="matrix( 1, 0, 0, 1, 0,0) ">
<use xlink:href="#Layer4_0_FILL"/>
</g>

<g transform="matrix( 1, 0, 0, 1, 0,0) ">
<use xlink:href="#Layer3_0_FILL"/>
</g>

<g transform="matrix( 1, 0, 0, 1, 0,0) ">
<use xlink:href="#Layer2_0_FILL"/>
</g>

<g transform="matrix( -0.257781982421875, 0.7070159912109375, -0.5450897216796875, -0.3343658447265625, 936,680.3) ">
<g transform="matrix( 1, 0, 0, 1, 0,0) ">
<use xlink:href="#Symbol_2_0_Layer0_0_FILL"/>
</g>
</g>

<g transform="matrix( 0.04925537109375, 0.7794647216796875, -0.6009521484375, 0.06390380859375, 950.85,415.75) ">
<g transform="matrix( 1, 0, 0, 1, 0,0) ">
<use xlink:href="#Symbol_2_0_Layer0_0_FILL"/>
</g>
</g>

<g transform="matrix( 0.3701019287109375, 0.6173553466796875, -0.4759674072265625, 0.48004150390625, 838,167.45) ">
<g transform="matrix( 1, 0, 0, 1, 0,0) ">
<use xlink:href="#Symbol_2_0_Layer0_0_FILL"/>
</g>
</g>

<g transform="matrix( 0.257781982421875, 0.7070159912109375, 0.5450897216796875, -0.3343658447265625, 85.75,680.3) ">
<g transform="matrix( 1, 0, 0, 1, 0,0) ">
<use xlink:href="#Symbol_2_0_Layer0_0_FILL"/>
</g>
</g>

<g transform="matrix( -0.04925537109375, 0.779449462890625, 0.6009368896484375, 0.06390380859375, 70.95,415.75) ">
<g transform="matrix( 1, 0, 0, 1, 0,0) ">
<use xlink:href="#Symbol_2_0_Layer0_0_FILL"/>
</g>
</g>

<g transform="matrix( -0.3701019287109375, 0.6173553466796875, 0.4759674072265625, 0.48004150390625, 183.75,167.45) ">
<g transform="matrix( 1, 0, 0, 1, 0,0) ">
<use xlink:href="#Symbol_2_0_Layer0_0_FILL"/>
</g>
</g>

<g transform="matrix( 1, 0, 0, 1, 0,0) ">
<use xlink:href="#Layer0_0_FILL"/>
</g>
</svg>
