<?xml version="1.0" encoding="utf-8"?>
<!-- Generator: flash2svg, http://dissentgraphics.com/tools/flash2svg -->
<svg xmlns:xlink="http://www.w3.org/1999/xlink" id="Intellij-AppCode" image-rendering="optimizeSpeed" baseProfile="basic" version="1.1" style="background-color:#ffffff" x="0px" y="0px" width="1024px" height="1024px" viewBox="0 0 1024 1024" enable-background="new 0 0 1024 1024" xmlns="http://www.w3.org/2000/svg">
  <defs transform="matrix(1 0 0 1 0 0) "/>
  <g id="shadow">
    <g id="shape">
      <path id="path" fill="#000000" fill-opacity="0.09803921568627451" d="M969.65,351.3 Q961.05,330.45 950.25,310.45 C946.2,302.9 941.9,295.4 937.35,288.05 917.8,256.35 893.95,226.4 865.8,198.25 773.65,106.1 662.35,60 532,60 401.65,60 290.4,106.1 198.25,198.25 106.1,290.4 60,401.65 60,532 60,662.35 106.1,773.65 198.25,865.8 290.4,957.95 401.65,1004 532,1004 662.35,1004 773.65,957.95 865.8,865.8 916.55,815 953.35,758.4 976.15,696.05 994.7,645.2 1004,590.55 1004,532 1004,487.1 998.55,444.45 987.6,404.05 986.35,399.5 985.05,394.95 983.7,390.45 979.6,377.15 974.9,364.1 969.65,351.3z"/>
    </g>
  </g>
  <g id="circle">
    <g id="shape2">
      <path id="path1" fill="#43452C" fill-opacity="1" d="M969.75,392.05 C968.65,387.7 967.4,383.05 966.1,378.45 963.6,369.7 960.75,360.85 957.65,352.1 951.2,333.85 943.5,316.05 934.5,298.45 930.7,291.05 926.55,283.5 922.2,276.05 901.9,241.55 876.4,208.85 845.85,178.3 773.25,105.7 688.7,61.65 592.2,46.25 575.95,43.65 559.4,41.85 542.15,40.9 532.45,40.35 522.3,40.05 512.05,40.05 502.7,40.05 493.45,40.3 484.15,40.8 365.8,46.9 263.85,92.75 178.3,178.3 Q40.05,316.55 40.05,512.05 C40.05,642.4 86.15,753.7 178.3,845.85 256.8,924.3 349.1,969.4 455,981 464.75,982.1 474.4,982.85 484.15,983.35 484.3,983.35 484.4,983.35 484.55,983.35 493.05,983.8 501.15,984.05 509.05,984.05 510.25,984.05 511.15,984.05 512.05,984.05 522.35,984.05 532.55,983.75 542.15,983.25 544.65,983.1 546.9,982.95 549.1,982.8 569.3,981.35 589,978.75 607.8,975.1 615.75,973.55 623.6,971.8 631.2,969.95 712,949.65 783.35,908.35 845.85,845.85 894.45,797.25 930.25,743.35 953.2,684.05 971.65,636.4 981.85,585.25 983.75,530.55 983.95,524.5 984.05,518.3 984.05,512.05 984.05,511.4 984.05,510.7 984.05,510.05 984.05,509.7 984.05,509.4 984.05,509.05 983.95,492.2 983.1,475.7 981.45,459.35 979.15,436.45 975.25,414 969.75,392.05z"/>
    </g>
  </g>
  <g id="circle1">
    <g id="shape4">
      <path id="path2" fill="#000000" fill-opacity="0.2" d="M984.05,510.05 C984.05,509.7 984.05,509.4 984.05,509.05 984,501.6 983.8,494.25 983.5,486.75 L983.475,486.725 L780.375,283.625 525.375,266.675 481.05,222.35 226.7,397.9 231.85,724.3 491.2,983.65 C497.55,983.9 503.35,984.05 509.05,984.05 Q510.55,984.05 512.05,984.05 C522.35,984.05 532.55,983.75 542.15,983.25 544.65,983.1 546.9,982.95 549.1,982.8 569.3,981.35 589,978.75 607.8,975.1 615.75,973.55 623.6,971.8 631.2,969.95 712,949.65 783.35,908.35 845.85,845.85 894.45,797.25 930.25,743.35 953.2,684.05 971.65,636.4 981.85,585.25 983.75,530.55 983.95,524.5 984.05,518.3 984.05,512.05 984.05,511.4 984.05,510.7 984.05,510.05z"/>
    </g>
  </g>
  <g id="ico">
    <g id="shape6">
      <path id="path3" fill="#CFA500" fill-opacity="1" d="M794.9,296.9 C777.1,279.1 758.2,263.95 737.75,251.25 691.9,222.65 639.65,208.15 581.5,207.9 580.65,207.9 579.85,207.9 579.05,207.95 563.9,208.4 550.85,214.05 539.9,225 537.1,227.75 534.65,230.65 532.6,233.7 556.75,221 582.95,214.6 611.1,214.6 660.45,214.6 703.85,234.2 741.35,273.4 749.65,282.05 757.6,291.65 765.35,302.2 807.95,360.65 829.25,431.2 829.25,513.85 829.25,596.5 807.95,667 765.35,725.4 736.3,765.25 703.15,791.5 665.85,804.2 713.95,790.5 756.95,764.65 794.9,726.7 Q883.9,637.7 883.9,511.8 C883.9,427.85 854.25,356.25 794.9,296.9z"/>
      <path id="path4" fill="#FFCC00" fill-opacity="1" d="M765.35,302.2 C757.6,291.65 749.65,282.05 741.35,273.4 703.85,234.2 660.45,214.6 611.1,214.6 582.95,214.6 556.75,221 532.6,233.7 525.95,243.3 522.65,254.2 522.6,266.5 L522.6,757.6 526.95,779.9 C529.35,785.9 532.85,791.5 537.25,796.35 538.2,797.45 539,798.25 539.8,799.05 541.6,800.85 543.45,802.5 545.15,803.85 555.15,811.8 566.45,815.8 579.05,816.2 579.95,816.25 580.6,816.25 581.25,816.25 584.4,816.2 587.5,816 590.45,815.6 603.65,815.2 616.55,814.05 629.05,812.15 641.7,810.25 653.95,807.6 665.85,804.2 703.15,791.5 736.3,765.25 765.35,725.4 807.95,667 829.25,596.5 829.25,513.85 829.25,431.2 807.95,360.65 765.35,302.2z M468.6,478.45 C457,466.85 443,461.05 426.55,461.05 410.1,461.05 396.1,466.85 384.45,478.45 372.85,490.1 367.05,504.1 367.05,520.55 367.05,537 372.85,551 384.45,562.6 384.6,562.75 384.75,562.9 384.9,563.05 386.25,564.4 387.65,565.65 389.1,566.85 L483.75,652.15 483.75,503.6 C481.05,494.25 476,485.85 468.6,478.45z"/>
      <path id="path5" fill="#CCCCCC" fill-opacity="1" d="M484.05,225.15 C472.5,213.7 458.7,208.05 442.65,208.15 359.4,208.5 288.25,238.15 229.25,297.15 169.9,356.5 140.25,428.1 140.25,512.05 140.25,596 169.9,667.6 229.25,726.95 288.25,785.95 359.4,815.65 442.65,816 458.7,816.05 472.5,810.4 484.05,799 490.1,793.05 494.6,786.45 497.55,779 498.45,776.8 499.15,774.5 499.8,771.95 500.85,767.55 501.45,762.75 501.5,757.7 501.55,741.55 495.9,727.75 484.55,716.25 473.15,704.7 459.35,698.85 443.15,698.75 441.95,698.75 440.8,698.75 439.35,698.7 435.05,698.6 430.45,698.35 425.7,697.95 382.2,694.15 344.25,676.15 312.15,644.05 275.7,607.6 257.45,563.6 257.5,512.05 257.45,460.5 275.7,416.5 312.15,380.05 341.1,351.1 374.8,333.65 413.2,327.75 422.35,326.3 431.8,325.55 441.45,325.45 442,325.4 442.6,325.4 443.15,325.4 459.35,325.25 473.15,319.45 484.55,307.9 495.9,296.35 501.55,282.55 501.5,266.4 501.45,262.65 501.15,259.05 500.45,255.2 498.85,246.4 495.05,238.15 489,230.6 487.7,228.95 485.95,227 484.05,225.15z"/>
    </g>
  </g>
  <g id="Calque.__204">
    <g id="shape13">
      <path id="path8" fill="#CFA500" fill-opacity="1" d="M657.25,567.3 C658.7,566.1 660.1,564.85 661.45,563.5 661.6,563.35 661.75,563.2 661.9,563.05 673.5,551.45 679.3,537.45 679.3,521 679.3,504.55 673.5,490.55 661.9,478.9 650.25,467.3 636.25,461.5 619.8,461.5 Q595.15,461.5 577.75,478.9 C570.35,486.3 565.3,494.7 562.6,504.05 L562.6,652.6 657.25,567.3z"/>
    </g>
  </g>
  <g id="Calque.__205">
    <g id="shape15">
      <path id="path9" fill="#CCCCCC" fill-opacity="1" d="M648.45,552.55 C648.55,552.45 648.65,552.35 648.75,552.25 656.95,544.05 661.05,534.15 661.05,522.55 661.05,510.9 656.95,501.05 648.75,492.8 640.55,484.6 630.65,480.5 619,480.5 Q601.6,480.5 589.3,492.8 C584.1,498 580.5,503.95 578.6,510.55 L578.6,615.5 645.5,555.25 C646.5,554.4 647.5,553.5 648.45,552.55z"/>
    </g>
  </g>
</svg>