<?xml version="1.0" encoding="utf-8"?>
<!-- Generator: flash2svg, http://dissentgraphics.com/tools/flash2svg -->
<svg xmlns:xlink="http://www.w3.org/1999/xlink" id="Transmit" image-rendering="optimizeSpeed" baseProfile="basic" version="1.1" style="background-color:#ffffff" x="0px" y="0px" width="1024px" height="1024px" viewBox="0 0 1024 1024" enable-background="new 0 0 1024 1024" xmlns="http://www.w3.org/2000/svg">
  <defs transform="matrix(1 0 0 1 0 0) "/>
  <g id="shadow">
    <g id="shape">
      <path id="path" fill="#000000" fill-opacity="0.09803921568627451" d="M969.65,351.3 Q961.05,330.45 950.25,310.45 C946.2,302.9 941.9,295.4 937.35,288.05 917.8,256.35 893.95,226.4 865.8,198.25 773.65,106.1 662.35,60 532,60 401.65,60 290.4,106.1 198.25,198.25 106.1,290.4 60,401.65 60,532 60,662.35 106.1,773.65 198.25,865.8 290.4,957.95 401.65,1004 532,1004 662.35,1004 773.65,957.95 865.8,865.8 916.55,815 953.35,758.4 976.15,696.05 994.7,645.2 1004,590.55 1004,532 1004,487.1 998.55,444.45 987.6,404.05 986.35,399.5 985.05,394.95 983.7,390.45 979.6,377.15 974.9,364.1 969.65,351.3z"/>
    </g>
  </g>
  <g id="criclebg">
    <g id="shape2">
      <path id="path1" fill="#545E70" fill-opacity="1" d="M849.15,181.65 C848.05,180.5 846.95,179.4 845.85,178.3 811.5,143.95 774.55,116.05 734.95,94.55 728.25,90.9 721.5,87.45 714.3,84 679.25,67.25 641.8,55.15 602.4,48 599.3,47.45 596.2,46.9 593.05,46.4 592.75,46.35 592.45,46.3 592.2,46.25 588,45.6 583.8,45 579.45,44.4 575.4,43.9 571.25,43.4 567.05,42.95 563.45,42.55 559.85,42.2 556.05,41.9 551.6,41.5 546.9,41.15 542.15,40.9 541.7,40.85 541.3,40.85 540.85,40.85 531.35,40.3 521.75,40.05 512.05,40.05 502.7,40.05 493.45,40.3 484.15,40.8 482.45,40.9 480.75,41 479.05,41.1 475.4,41.3 471.75,41.55 468.05,41.9 461.95,42.4 455.85,43 449.8,43.75 448,43.95 446.25,44.15 444.6,44.4 401,50.15 359.9,61.6 321.3,78.75 317.45,80.45 313.6,82.2 309.75,84.05 262.25,106.7 218.5,138.1 178.3,178.3 177.75,178.85 177.25,179.35 176.75,179.85 176.1,180.5 175.5,181.1 174.9,181.75 134.45,222.9 103.15,267.8 80.9,316.5 73.05,333.65 66.4,351.1 60.85,369 Q40.05,436.2 40.05,512.05 C40.05,637.6 82.8,745.45 168,835.25 L167.975,835.25 L856.15,835.25 C876.6,813.65 894.5,791.15 909.95,767.7 927.5,741.15 941.9,713.25 953.2,684.05 957.15,673.8 960.75,663.4 963.95,652.9 975.65,614.25 982.25,573.5 983.75,530.55 983.95,524.5 984.05,518.3 984.05,512.05 984.05,511.4 984.05,510.7 984.05,510.05 984.05,509.7 984.05,509.4 984.05,509.05 983.85,468.4 979.1,429.55 969.75,392.05 968.65,387.7 967.4,383.05 966.1,378.45 963.85,370.6 961.35,362.65 958.55,354.65 958.25,353.9 957.95,353 957.65,352.1 953.4,340.1 948.65,328.3 943.25,316.5 940.55,310.55 937.6,304.5 934.5,298.45 930.7,291.05 926.55,283.5 922.2,276.05 903.15,243.65 879.5,212.85 851.05,183.6 850.4,182.95 849.8,182.3 849.15,181.65z"/>
      <path id="path2" fill="#333333" fill-opacity="1" d="M509.05,984.05 C510.25,984.05 511.15,984.05 512.05,984.05 521.8,984.05 531.4,983.8 540.85,983.35 541.3,983.3 541.7,983.3 542.15,983.25 544.65,983.1 546.9,982.95 549.1,982.8 559.4,982.05 569.55,981.05 579.45,979.75 587.25,978.7 594.9,977.5 602.4,976.15 604.3,975.8 606.05,975.45 607.8,975.1 615.75,973.55 623.6,971.8 631.2,969.95 660.1,962.7 687.8,952.75 714.3,940.2 721.3,936.8 728.15,933.3 734.95,929.65 760.15,915.95 784.3,899.65 807.35,880.8 820.6,869.9 833.4,858.3 845.85,845.85 846.95,844.75 848.05,843.65 849.15,842.55 849.8,841.9 850.4,841.25 851.05,840.6 852.75,838.85 854.45,837.05 856.15,835.25 L167.975,835.25 L168,835.25 C170.45,837.85 172.65,840.15 174.9,842.45 175.5,843.05 176.1,843.65 176.75,844.3 177.25,844.8 177.75,845.3 178.3,845.85 218.7,886.2 262.75,917.75 309.75,940.1 313.7,941.95 317.5,943.7 321.3,945.4 326.85,947.85 332.1,950.05 337.4,952.15 343.85,954.75 350,957 356.2,959.1 384.8,968.9 414.4,975.8 444.6,979.75 446.5,980 448.15,980.2 449.8,980.4 461.3,981.8 472.65,982.75 484.15,983.35 484.3,983.35 484.4,983.35 484.55,983.35 493.05,983.8 501.15,984.05 509.05,984.05z"/>
    </g>
  </g>
  <g id="criclebg1">
    <g id="shape6">
      <path id="path3" fill="#000000" fill-opacity="0.2" d="M969.75,392.05 Q969.44,390.836 969.125,389.625 L831.05,251.55 194.05,688.6 340.7,835.25 856.15,835.25 C876.6,813.65 894.5,791.15 909.95,767.7 927.5,741.15 941.9,713.25 953.2,684.05 957.15,673.8 960.75,663.4 963.95,652.9 975.65,614.25 982.25,573.5 983.75,530.55 983.95,524.5 984.05,518.3 984.05,512.05 984.05,511.4 984.05,510.7 984.05,510.05 984.05,509.7 984.05,509.4 984.05,509.05 983.85,468.4 979.1,429.55 969.75,392.05z"/>
    </g>
  </g>
  <g id="Calque.__205">
    <g id="shape8">
      <path id="path4" fill="#AAB9E1" fill-opacity="1" d="M323.15,686.05 L318.55,686.05 C306.55,686.05 300.55,692.05 300.55,704.05 L300.55,773.05 C300.55,785.05 306.55,791.05 318.55,791.05 L323.15,791.05 C311.6,790.8 305.8,784.8 305.8,773.05 L305.8,704.05 C305.8,692.3 311.6,686.3 323.15,686.05z"/>
      <path id="path5" fill="#675532" fill-opacity="1" d="M698.35,791.05 Q715.7,790.7 715.7,773.05 L715.7,704.05 C715.7,692.3 709.9,686.3 698.35,686.05 L325.8,686.05 C314.25,686.3 308.45,692.3 308.45,704.05 L308.45,773.05 C308.45,784.8 314.25,790.8 325.8,791.05 L698.35,791.05z"/>
    </g>
  </g>
  <g id="Calque.__206">
    <g id="shape11">
      <path id="path6" fill="#000000" fill-opacity="1" d="M788.25,715.75 Q788.25,697.75 770.25,697.75 L665.15,697.75 C653.15,697.75 647.15,703.75 647.15,715.75 L647.15,820.85 C647.15,832.85 653.15,838.85 665.15,838.85 L770.25,838.85 C782.25,838.85 788.25,832.85 788.25,820.85 L788.25,715.75z M250.05,697.75 C238.05,697.75 232.05,703.75 232.05,715.75 L232.05,820.85 C232.05,832.85 238.05,838.85 250.05,838.85 L355.15,838.85 C367.15,838.85 373.15,832.85 373.15,820.85 L373.15,715.75 C373.15,703.75 367.15,697.75 355.15,697.75 L250.05,697.75z"/>
    </g>
  </g>
  <g id="Calque.__207">
    <g id="shape15">
      <path id="path9" fill="#E8E8E8" fill-opacity="1" d="M834.65,292.45 L834.65,264.05 C834.65,252.05 828.65,246.05 816.65,246.05 L207.5,246.05 C195.5,246.05 189.5,252.05 189.5,264.05 L189.5,292.45 834.65,292.45z"/>
      <path id="path10" fill="#7C81AF" fill-opacity="1" d="M816.65,693.05 C828.65,693.05 834.65,687.05 834.65,675.05 L834.65,292.45 189.5,292.45 189.5,675.05 C189.5,687.05 195.5,693.05 207.5,693.05 L816.65,693.05z"/>
    </g>
  </g>
  <g id="Calque.__208">
    <g id="shape19">
      <path id="path11" fill="#000000" fill-opacity="0.2" d="M816.65,693.05 Q834.65,693.05 834.65,675.05 L834.65,419.25 758.05,342.65 297.025,693.05 816.65,693.05z"/>
    </g>
  </g>
  <g id="criclebg2">
    <g id="shape21">
      <path id="path12" fill="#E3B554" fill-opacity="1" d="M763.55,739.05 L763.55,725.1 578.9,725.1 C589.65,725.7 595.05,731.7 595.05,743.05 L595.05,757.05 745.55,757.05 Q763.55,757.05 763.55,739.05z M260.55,725.1 L260.55,739.05 C260.55,751.05 266.55,757.05 278.55,757.05 L429.05,757.05 429.05,743.05 C429.05,731.7 434.45,725.7 445.2,725.1 L260.55,725.1z"/>
      <path id="path15" fill="#F0D77E" fill-opacity="1" d="M763.55,548.85 L679.25,548.85 260.55,548.85 260.55,725.1 445.2,725.1 C445.8,725.05 446.4,725.05 447.05,725.05 L577.05,725.05 C577.7,725.05 578.3,725.05 578.9,725.1 L763.55,725.1 763.55,548.85z M423.05,645.55 C423.05,633.55 429.05,627.55 441.05,627.55 L583.05,627.55 C595.05,627.55 601.05,633.55 601.05,645.55 L601.05,687.05 C601.05,699.05 595.05,705.05 583.05,705.05 L441.05,705.05 C429.05,705.05 423.05,699.05 423.05,687.05 L423.05,645.55z M763.55,402.65 L763.55,368.6 260.55,368.6 260.55,402.65 533.05,402.65 763.55,402.65z"/>
      <path id="path16" fill="#DDB460" fill-opacity="1" d="M423.05,645.55 L423.05,687.05 C423.05,699.05 429.05,705.05 441.05,705.05 L583.05,705.05 C595.05,705.05 601.05,699.05 601.05,687.05 L601.05,645.55 C601.05,633.55 595.05,627.55 583.05,627.55 L441.05,627.55 C429.05,627.55 423.05,633.55 423.05,645.55z"/>
      <path id="path19" fill="#E7E5FF" fill-opacity="1" d="M679.25,548.85 L763.55,548.85 763.55,402.65 533.05,402.65 679.25,548.85z"/>
      <path id="path20" fill="#BCC9F0" fill-opacity="1" d="M260.55,402.65 L260.55,548.85 679.25,548.85 533.05,402.65 260.55,402.65z"/>
      <path id="path21" fill="#FFEDAD" fill-opacity="1" d="M763.55,368.6 L763.55,357.05 C763.55,345.05 757.55,339.05 745.55,339.05 L278.55,339.05 C266.55,339.05 260.55,345.05 260.55,357.05 L260.55,368.6 763.55,368.6z"/>
    </g>
  </g>
  <g id="Calque.__209">
    <g id="shape35">
      <path id="path24" fill="#FDEBB2" fill-opacity="1" d="M724.55,340.95 Q724.55,322.95 706.55,322.95 L659.55,322.95 C647.55,322.95 641.55,328.95 641.55,340.95 L641.55,349.5 C641.55,361.5 647.55,367.5 659.55,367.5 L706.55,367.5 C718.55,367.5 724.55,361.5 724.55,349.5 L724.55,340.95z M381.05,340.95 C381.05,328.95 375.05,322.95 363.05,322.95 L316.05,322.95 C304.05,322.95 298.05,328.95 298.05,340.95 L298.05,349.5 C298.05,361.5 304.05,367.5 316.05,367.5 L363.05,367.5 C375.05,367.5 381.05,361.5 381.05,349.5 L381.05,340.95z"/>
    </g>
  </g>
  <g id="Calque.__210">
    <g id="shape39">
      <path id="path27" fill="#69562E" fill-opacity="1" d="M434.9,651.05 C434.9,654.1 436,656.75 438.2,658.95 440.35,661.1 443,662.2 446.05,662.2 L578.05,662.2 C581.1,662.2 583.75,661.1 585.95,658.95 588.1,656.75 589.2,654.1 589.2,651.05 589.2,648 588.1,645.35 585.95,643.2 583.75,641 581.1,639.9 578.05,639.9 L446.05,639.9 C443,639.9 440.35,641 438.2,643.2 436,645.35 434.9,648 434.9,651.05z M438.2,674.2 Q434.9,677.45 434.9,682.05 C434.9,685.1 436,687.75 438.2,689.95 440.35,692.1 443,693.2 446.05,693.2 L578.05,693.2 C581.1,693.2 583.75,692.1 585.95,689.95 588.1,687.75 589.2,685.1 589.2,682.05 589.2,679 588.1,676.35 585.95,674.2 583.75,672 581.1,670.9 578.05,670.9 L446.05,670.9 C443,670.9 440.35,672 438.2,674.2z"/>
    </g>
  </g>
  <g id="criclebg3">
    <g id="shape43">
      <path id="path30" fill="#000000" fill-opacity="0.2" d="M763.55,421.7 L763.55,402.65 260.55,402.65 260.55,421.7 763.55,421.7z"/>
    </g>
  </g>
  <g id="Calque.__211">
    <g id="shape45">
      <path id="path31" fill="#474C63" fill-opacity="1" d="M687.5,506.65 Q684.2,503.35 679.6,503.35 L594.2,503.35 C594.15,503.35 594.1,503.35 594.05,503.35 594,503.35 593.95,503.35 593.9,503.35 L554.2,503.35 C551.15,503.35 548.5,504.45 546.35,506.65 544.15,508.8 543.05,511.45 543.05,514.5 543.05,517.55 544.15,520.2 546.35,522.4 548.5,524.55 551.15,525.65 554.2,525.65 L567.3,525.65 547.2,545.75 C546.25,546.7 545.5,547.7 544.95,548.85 L575.65,548.85 598.85,525.65 679.6,525.65 C682.65,525.65 685.3,524.55 687.5,522.4 689.65,520.2 690.75,517.55 690.75,514.5 690.75,511.45 689.65,508.8 687.5,506.65z M315.65,503.35 C312.6,503.35 309.95,504.45 307.8,506.65 305.6,508.8 304.5,511.45 304.5,514.5 304.5,517.55 305.6,520.2 307.8,522.4 309.95,524.55 312.6,525.65 315.65,525.65 L328.75,525.65 308.65,545.75 C307.7,546.7 306.95,547.7 306.4,548.85 L337.1,548.85 360.3,525.65 441.05,525.65 C444.1,525.65 446.75,524.55 448.95,522.4 451.1,520.2 452.2,517.55 452.2,514.5 452.2,511.45 451.1,508.8 448.95,506.65 446.75,504.45 444.1,503.35 441.05,503.35 L355.65,503.35 C355.6,503.35 355.55,503.35 355.5,503.35 355.45,503.35 355.4,503.35 355.35,503.35 L315.65,503.35z"/>
    </g>
  </g>
  <g id="Calque.__212">
    <g id="shape49">
      <path id="path34" fill="#CA0202" fill-opacity="1" d="M724.55,686.05 L703.55,686.05 703.55,734.05 724.55,734.05 C729.5,734.05 733.75,732.3 737.25,728.75 740.8,725.25 742.55,721 742.55,716.05 L742.55,704.05 C742.55,699.1 740.8,694.85 737.25,691.3 733.75,687.8 729.5,686.05 724.55,686.05z M320.55,686.05 L300.55,686.05 C295.6,686.05 291.35,687.8 287.8,691.3 284.3,694.85 282.55,699.1 282.55,704.05 L282.55,716.05 C282.55,721 284.3,725.25 287.8,728.75 291.35,732.3 295.6,734.05 300.55,734.05 L320.55,734.05 320.55,686.05z"/>
      <path id="path35" fill="#E7E7FE" fill-opacity="1" d="M703.55,734.05 L703.55,686.05 646.05,686.05 C641.1,686.05 636.85,687.8 633.3,691.3 629.8,694.85 628.05,699.1 628.05,704.05 L628.05,716.05 C628.05,721 629.8,725.25 633.3,728.75 636.85,732.3 641.1,734.05 646.05,734.05 L703.55,734.05z M320.55,686.05 L320.55,734.05 379.05,734.05 C384,734.05 388.25,732.3 391.75,728.75 395.3,725.25 397.05,721 397.05,716.05 L397.05,704.05 C397.05,699.1 395.3,694.85 391.75,691.3 388.25,687.8 384,686.05 379.05,686.05 L320.55,686.05z"/>
    </g>
  </g>
  <g id="Calque.__213">
    <g id="shape58">
      <path id="path40" fill="#FFFFFF" fill-opacity="1" d="M690.1,720.1 C692.9,717.35 694.3,714 694.3,710.05 694.3,706.1 692.9,702.75 690.1,699.95 687.35,697.2 684,695.8 680.05,695.8 676.1,695.8 672.75,697.2 669.95,699.95 668.65,701.25 667.65,702.7 667.05,704.1 Q666.002,701.852 664.1,699.95 C661.35,697.2 658,695.8 654.05,695.8 650.1,695.8 646.75,697.2 643.95,699.95 641.2,702.75 639.8,706.1 639.8,710.05 639.8,714 641.2,717.35 643.95,720.1 646.75,722.9 650.1,724.3 654.05,724.3 658,724.3 661.35,722.9 664.1,720.1 665.35,718.9 666.3,717.6 667.05,716 667.8,717.6 668.75,718.9 669.95,720.1 672.75,722.9 676.1,724.3 680.05,724.3 684,724.3 687.35,722.9 690.1,720.1z M381.1,720.1 C383.9,717.35 385.3,714 385.3,710.05 385.3,706.1 383.9,702.75 381.1,699.95 378.35,697.2 375,695.8 371.05,695.8 367.1,695.8 363.75,697.2 360.95,699.95 359.65,701.25 358.65,702.7 358.05,704.1 357.4,702.7 356.4,701.25 355.1,699.95 352.35,697.2 349,695.8 345.05,695.8 341.1,695.8 337.75,697.2 334.95,699.95 332.2,702.75 330.8,706.1 330.8,710.05 330.8,714 332.2,717.35 334.95,720.1 337.75,722.9 341.1,724.3 345.05,724.3 349,724.3 352.35,722.9 355.1,720.1 356.35,718.9 357.3,717.6 358.05,716 358.8,717.6 359.75,718.9 360.95,720.1 363.75,722.9 367.1,724.3 371.05,724.3 375,724.3 378.35,722.9 381.1,720.1z"/>
    </g>
  </g>
</svg>