
<svg xmlns="http://www.w3.org/2000/svg" version="1.1" xmlns:xlink="http://www.w3.org/1999/xlink" preserveAspectRatio="none" x="0px" y="0px" width="1024px" height="1024px" viewBox="0 0 1024 1024">
<defs>
<radialGradient id="Gradient_1" gradientUnits="userSpaceOnUse" cx="0" cy="0" r="410.0375" fx="0" fy="0" gradientTransform="matrix( 1, 0, 0, 1, 719.6,344.6) " spreadMethod="pad">
<stop  offset="0%" stop-color="#FFFFFF" stop-opacity="0.09803921568627451"/>

<stop  offset="100%" stop-color="#FFFFFF" stop-opacity="0"/>
</radialGradient>

<g id="Layer5_0_FILL">
<path fill="#000000" fill-opacity="0.09803921568627451" stroke="none" d="
M 969.6 351.25
Q 961 330.4 950.2 310.4 944.1 299.05 937.3 288 907.95 240.45 865.75 198.2 727.5 59.95 531.95 59.95 336.45 59.95 198.2 198.2 59.95 336.45 59.95 531.95 59.95 727.5 198.2 865.75 336.45 1003.95 531.95 1003.95 727.5 1003.95 865.75 865.75 941.9 789.55 976.1 696 1003.95 619.75 1003.95 531.95 1003.95 464.6 987.55 404 985.7 397.15 983.65 390.4 977.5 370.45 969.6 351.25 Z"/>
</g>

<g id="Layer4_0_FILL">
<path fill="#2B9F65" stroke="none" d="
M 513.05 516.95
L 513.05 984
Q 706.7 982.9 843.85 845.8 980.3 709.3 982.05 516.95
L 513.05 516.95 Z"/>

<path fill="#EEB631" stroke="none" d="
M 513.05 516.95
L 513.05 515 511.05 515 38.1 515
Q 39.15 708.65 176.3 845.8 314.55 984 510.05 984 510.55 984 511.05 984 512.05 984 513.05 984
L 513.05 516.95 Z"/>

<path fill="#3872D1" stroke="none" d="
M 511.05 40.05
Q 510.55 40.05 510.05 40.05 314.55 40.05 176.3 178.25 38.1 316.5 38.1 512 38.1 513.5 38.1 515
L 511.05 515 511.05 40.05 Z"/>

<path fill="#D13E36" stroke="none" d="
M 982.05 516.95
Q 982.05 514.5 982.05 512 982.05 316.5 843.85 178.25 706 40.45 511.05 40.05
L 511.05 515 513.05 515 513.05 516.95 982.05 516.95 Z"/>
</g>

<g id="Layer3_0_FILL">
<path fill="#FFFFFF" stroke="none" d="
M 862.4 528.8
Q 862.75 520.473828125 862.75 512 862.75 366.7 760.05 264 657.3 161.3 512 161.3 366.7 161.3 264 264 161.3 366.7 161.3 512 161.3 657.3 264 760.05 366.7 862.75 512 862.75 559.1134765625 862.75 601.75 851.95 690.6166015625 829.449609375 760.05 760.05 856.760546875 663.2923828125 862.4 528.8 Z"/>
</g>

<g id="Layer2_0_FILL">
<path fill="#000000" fill-opacity="0.09803921568627451" stroke="none" d="
M 760.05 760.05
Q 844.9248046875 675.133984375 859.65 561.15
L 666.9 368.4 629 391.7 465.1 387.15 393 398.3 393 601 348.5 669
Q 327.889453125 831.1205078125 541.15 861.65 572.51875 859.3544921875 601.75 851.95 690.6166015625 829.449609375 760.05 760.05 Z"/>
</g>

<g id="Layer1_0_FILL">
<path fill="#4285F4" stroke="none" d="
M 871.75 335.05
L 872.35 335.65 871.75 334.8 871.75 335.05 Z"/>

<path fill="url(#Gradient_1)" stroke="none" d="
M 878.4 341.6
L 871.75 334.8 872.35 335.65 878.4 341.6 Z"/>
</g>

<g id="Layer0_0_FILL">
<path fill="#3872D1" stroke="none" d="
M 733.85 784
L 733.85 577.75 592.2 435.2
Q 585.75 432.1 580.4 426.6 568.2 414.9 568.2 397.55
L 568.2 394.7
Q 568.2 394.25 568.2 393.75
L 568.2 270.15 334 270.15
Q 316.65 270.15 304.95 282.3 293.15 294.1 292.7 310.95
L 292.7 786.1
Q 386.45 862.75 512 862.75 512.55 862.75 513.05 862.75 559.6 862.65 601.75 851.95 674.25 833.6 733.85 784
M 402.95 654.9
L 402.95 627.2 623.5 627.2 623.5 654.9 402.95 654.9
M 402.95 765.65
L 402.95 737.95 568.2 737.95 568.2 765.65 402.95 765.65
M 402.95 710.25
L 402.95 682.65 623.5 682.65 623.5 710.25 402.95 710.25
M 623.5 571.35
L 623.5 599.5 402.95 599.5 402.95 571.35 623.5 571.35 Z"/>

<path fill="#FFFFFF" stroke="none" d="
M 623.5 599.5
L 623.5 571.35 402.95 571.35 402.95 599.5 623.5 599.5
M 402.95 682.65
L 402.95 710.25 623.5 710.25 623.5 682.65 402.95 682.65
M 402.95 737.95
L 402.95 765.65 568.2 765.65 568.2 737.95 402.95 737.95
M 402.95 627.2
L 402.95 654.9 623.5 654.9 623.5 627.2 402.95 627.2 Z"/>

<path fill="#29559C" stroke="none" d="
M 733.85 577.75
L 733.85 438.85 609.5 438.85
Q 602.45 438.85 596.4 436.85 594.25 436.15 592.2 435.2
L 733.85 577.75 Z"/>

<path fill="#A1C2FA" stroke="none" d="
M 733.85 438.85
L 733.85 435.55 568.2 269.4 568.2 270.15 568.2 393.75
Q 568.2 394.25 568.2 394.7
L 568.2 397.55
Q 568.2 414.9 580.4 426.6 585.75 432.1 592.2 435.2 594.25 436.15 596.4 436.85 602.45 438.85 609.5 438.85
L 733.85 438.85
M 582.75 425.6
Q 582.1 425.05 581.5 424.55
L 580.9 423.85
Q 581.8 424.7 582.75 425.6 Z"/>
</g>
</defs>

<g transform="matrix( 1, 0, 0, 1, 0,0) ">
<use xlink:href="#Layer5_0_FILL"/>
</g>

<g transform="matrix( 1, 0, 0, 1, 0,0) ">
<use xlink:href="#Layer4_0_FILL"/>
</g>

<g transform="matrix( 1, 0, 0, 1, 0,0) ">
<use xlink:href="#Layer3_0_FILL"/>
</g>

<g transform="matrix( 1, 0, 0, 1, 0,0) ">
<use xlink:href="#Layer2_0_FILL"/>
</g>

<g transform="matrix( 1, 0, 0, 1, 0,0) ">
<use xlink:href="#Layer1_0_FILL"/>
</g>

<g transform="matrix( 1, 0, 0, 1, 0,0) ">
<use xlink:href="#Layer0_0_FILL"/>
</g>
</svg>
