<?xml version="1.0" encoding="utf-8"?>
<!-- Generator: flash2svg, http://dissentgraphics.com/tools/flash2svg -->
<svg xmlns:xlink="http://www.w3.org/1999/xlink" id="Apps-Hyperterm" image-rendering="optimizeSpeed" baseProfile="basic" version="1.1" style="background-color:#ffffff" x="0px" y="0px" width="1024px" height="1024px" viewBox="0 0 1024 1024" enable-background="new 0 0 1024 1024" xmlns="http://www.w3.org/2000/svg">
  <defs transform="matrix(1 0 0 1 0 0) "/>
  <g id="shadow">
    <g id="shape">
      <path id="path" fill="#000000" fill-opacity="0.09803921568627451" d="M969.65,351.3 Q961.05,330.45 950.25,310.45 C946.2,302.9 941.9,295.4 937.35,288.05 917.8,256.35 893.95,226.4 865.8,198.25 773.65,106.1 662.35,60 532,60 401.65,60 290.4,106.1 198.25,198.25 106.1,290.4 60,401.65 60,532 60,662.35 106.1,773.65 198.25,865.8 290.4,957.95 401.65,1004 532,1004 662.35,1004 773.65,957.95 865.8,865.8 916.55,815 953.35,758.4 976.15,696.05 994.7,645.2 1004,590.55 1004,532 1004,487.1 998.55,444.45 987.6,404.05 986.35,399.5 985.05,394.95 983.7,390.45 979.6,377.15 974.9,364.1 969.65,351.3z"/>
    </g>
  </g>
  <g id="criclebg">
    <g id="shape2">
      <path id="path1" fill="#FFFFFF" fill-opacity="1" d="M855.7,188.4 C852.7,185.25 849.3,181.75 845.85,178.3 773.4,105.85 689.1,61.85 593.05,46.4 592.75,46.35 592.45,46.3 592.2,46.25 575.95,43.65 559.4,41.85 542.15,40.9 532.45,40.35 522.3,40.05 512.05,40.05 502.7,40.05 493.45,40.3 484.15,40.8 365.8,46.9 263.85,92.75 178.3,178.3 121.8,234.8 82.65,298.45 60.85,369 Q40.05,436.2 40.05,512.05 C40.05,642.4 86.15,753.7 178.3,845.85 181.7,849.25 185.15,852.6 188.4,855.7 233.95,898.85 283.7,931 337.4,952.15 343.85,954.75 350,957 356.2,959.1 396.7,972.95 439.25,981 484.15,983.35 484.3,983.35 484.4,983.35 484.55,983.35 493.05,983.8 501.15,984.05 509.05,984.05 510.25,984.05 511.15,984.05 512.05,984.05 522.35,984.05 532.55,983.75 542.15,983.25 544.65,983.1 546.9,982.95 549.1,982.8 569.3,981.35 589,978.75 607.8,975.1 615.75,973.55 623.6,971.8 631.2,969.95 695.9,953.7 754.55,924 807.35,880.8 820.6,869.9 833.4,858.3 845.85,845.85 894.45,797.25 930.25,743.35 953.2,684.05 957.15,673.8 960.75,663.4 963.95,652.9 975.65,614.25 982.25,573.5 983.75,530.55 983.95,524.5 984.05,518.3 984.05,512.05 984.05,511.4 984.05,510.7 984.05,510.05 984.05,509.7 984.05,509.4 984.05,509.05 983.85,468.4 979.1,429.55 969.75,392.05 968.65,387.7 967.4,383.05 966.1,378.45 963.85,370.6 961.35,362.65 958.55,354.65 958.25,353.9 957.95,353 957.65,352.1 951.2,333.85 943.5,316.05 934.5,298.45 930.7,291.05 926.55,283.5 922.2,276.05 904.2,245.45 882.1,216.3 855.7,188.4z"/>
    </g>
  </g>
  <g id="criclebg1">
    <g id="shape4">
      <path id="path2" fill="#E1B157" fill-opacity="1" d="M855.7,188.4 C852.7,185.25 849.3,181.75 845.85,178.3 773.4,105.85 689.1,61.85 593.05,46.4 592.75,46.35 592.45,46.3 592.2,46.25 575.95,43.65 559.4,41.85 542.15,40.9 532.45,40.35 522.3,40.05 512.05,40.05 502.7,40.05 493.45,40.3 484.15,40.8 365.8,46.9 263.85,92.75 178.3,178.3 121.8,234.8 82.65,298.45 60.85,369 Q40.05,436.2 40.05,512.05 C40.05,642.4 86.15,753.7 178.3,845.85 181.7,849.25 185.15,852.6 188.4,855.7 L258.45,785.675 L258.45,785.7 C255.1,782.55 251.65,779.2 248.25,775.8 175.4,703 139,615.1 139,512.1 139,409.05 175.4,321.15 248.25,248.3 321.1,175.45 409,139.05 512.05,139.05 615.1,139.05 703,175.45 775.8,248.3 779.2,251.7 782.55,255.15 785.65,258.45 L855.7,188.4z"/>
      <path id="path6" fill="#C75B9E" fill-opacity="1" d="M958.55,354.65 C958.25,353.9 957.95,353 957.65,352.1 951.2,333.85 943.5,316.05 934.5,298.45 930.7,291.05 926.55,283.5 922.2,276.05 904.2,245.45 882.1,216.3 855.7,188.4 L785.65,258.45 C852,329.4 885.1,413.9 885.1,512.1 885.1,615.1 848.65,703 775.8,775.8 703,848.65 615.1,885.1 512.05,885.1 413.85,885.1 329.35,852 258.45,785.7 L258.45,785.675 L188.4,855.7 C233.95,898.85 283.7,931 337.4,952.15 343.85,954.75 350,957 356.2,959.1 396.7,972.95 439.25,981 484.15,983.35 484.3,983.35 484.4,983.35 484.55,983.35 493.05,983.8 501.15,984.05 509.05,984.05 510.25,984.05 511.15,984.05 512.05,984.05 522.35,984.05 532.55,983.75 542.15,983.25 544.65,983.1 546.9,982.95 549.1,982.8 569.3,981.35 589,978.75 607.8,975.1 615.75,973.55 623.6,971.8 631.2,969.95 695.9,953.7 754.55,924 807.35,880.8 820.6,869.9 833.4,858.3 845.85,845.85 894.45,797.25 930.25,743.35 953.2,684.05 957.15,673.8 960.75,663.4 963.95,652.9 975.65,614.25 982.25,573.5 983.75,530.55 983.95,524.5 984.05,518.3 984.05,512.05 984.05,511.4 984.05,510.7 984.05,510.05 984.05,509.7 984.05,509.4 984.05,509.05 983.85,468.4 979.1,429.55 969.75,392.05 968.65,387.7 967.4,383.05 966.1,378.45 963.85,370.6 961.35,362.65 958.55,354.65z"/>
    </g>
  </g>
  <g id="Symbole.__2033">
    <g id="shape11">
      <path id="path7" fill="#333333" fill-opacity="1" d="M785.675,258.475 L785.65,258.45 C782.55,255.15 779.2,251.7 775.8,248.3 703,175.45 615.1,139.05 512.05,139.05 409,139.05 321.1,175.45 248.25,248.3 175.4,321.15 139,409.05 139,512.1 139,615.1 175.4,703 248.25,775.8 251.65,779.2 255.1,782.55 258.45,785.7 L785.675,258.475z"/>
      <path id="path8" fill="#000000" fill-opacity="1" d="M775.8,775.8 Q885.1,666.6 885.1,512.1 C885.1,413.8 851.95,329.25 785.7,258.5 L785.675,258.475 L258.45,785.7 C329.35,852 413.85,885.1 512.05,885.1 615.1,885.1 703,848.65 775.8,775.8z"/>
    </g>
  </g>
  <g id="Calque.__202">
    <g id="Symbole.__2034_1" overflow="visible">
      <g id="Calque.__204">
        <g id="shape17">
          <path id="path10" fill="#FFFFFF" fill-opacity="1" d="M331.147,296.123 C329.581,296.158 328.121,296.408 326.732,296.87 L318.506,303.956 314.198,307.766 268.691,347.327 C257.118,357.19 257.118,367.338 268.691,377.807 L305.581,414.733 288.382,485.735 C288.24,486.625 288.204,487.373 288.204,488.156 288.204,492.144 289.628,495.563 292.442,498.376 292.655,498.589 292.833,498.803 293.047,498.981 293.795,499.657 294.578,500.227 295.255,500.619 297.533,501.972 299.955,502.613 302.661,502.613 302.732,502.613 302.839,502.613 302.946,502.613 304.513,502.577 305.973,502.328 307.361,501.865 L315.551,494.744 319.895,490.969 365.402,451.409 C376.975,441.545 376.975,431.397 365.402,420.928 L328.512,384.003 345.711,313.001 C345.818,312.111 345.889,311.363 345.889,310.579 345.889,306.556 344.465,303.173 341.652,300.36 341.438,300.146 341.224,299.933 341.011,299.755 340.299,299.078 339.515,298.508 338.839,298.117 336.524,296.764 334.138,296.123 331.432,296.123 331.325,296.123 331.219,296.123 331.147,296.123z"/>
        </g>
      </g>
    </g>
  </g>
</svg>