<?xml version="1.0" encoding="utf-8"?>
<!-- Generator: flash2svg, http://dissentgraphics.com/tools/flash2svg -->
<svg xmlns:xlink="http://www.w3.org/1999/xlink" id="Apps-Thunar-File-Manager" image-rendering="optimizeSpeed" baseProfile="basic" version="1.1" style="background-color:#ffffff" x="0px" y="0px" width="1024px" height="1024px" viewBox="0 0 1024 1024" enable-background="new 0 0 1024 1024" xmlns="http://www.w3.org/2000/svg">
  <defs transform="matrix(1 0 0 1 0 0) "/>
  <g id="background-circle-shadow">
    <g id="shape">
      <path id="path" fill="#000000" fill-opacity="0.09803921568627451" d="M969.65,351.3 Q961.05,330.45 950.25,310.45 C946.2,302.9 941.9,295.4 937.35,288.05 917.8,256.35 893.95,226.4 865.8,198.25 773.65,106.1 662.35,60 532,60 401.65,60 290.4,106.1 198.25,198.25 106.1,290.4 60,401.65 60,532 60,662.35 106.1,773.65 198.25,865.8 290.4,957.95 401.65,1004 532,1004 662.35,1004 773.65,957.95 865.8,865.8 916.55,815 953.35,758.4 976.15,696.05 994.7,645.2 1004,590.55 1004,532 1004,487.1 998.55,444.45 987.6,404.05 986.35,399.5 985.05,394.95 983.7,390.45 979.6,377.15 974.9,364.1 969.65,351.3z"/>
    </g>
  </g>
  <g id="background-circle">
    <g id="shape2">
      <path id="path1" fill="#5C292B" fill-opacity="1" d="M966.1,378.45 C965.1,375.05 964.1,371.6 962.95,367.95 961.35,362.8 959.55,357.45 957.65,352.1 951.2,333.85 943.5,316.05 934.5,298.45 930.7,291.05 926.55,283.5 922.2,276.05 901.9,241.55 876.4,208.85 845.85,178.3 773.25,105.7 688.7,61.65 592.2,46.25 575.95,43.65 559.4,41.85 542.15,40.9 532.45,40.35 522.3,40.05 512.05,40.05 502.7,40.05 493.45,40.3 484.15,40.8 365.8,46.9 263.85,92.75 178.3,178.3 Q40.05,316.55 40.05,512.05 C40.05,642.4 86.15,753.7 178.3,845.85 235,902.5 298.85,941.75 369.4,963.4 406.15,974.65 444.2,981.25 484.15,983.35 484.3,983.35 484.4,983.35 484.55,983.35 493.05,983.8 501.15,984.05 509.05,984.05 510.25,984.05 511.15,984.05 512.05,984.05 522.35,984.05 532.55,983.75 542.15,983.25 544.65,983.1 546.9,982.95 549.1,982.8 569.3,981.35 589,978.75 607.8,975.1 615.75,973.55 623.6,971.8 631.2,969.95 712,949.65 783.35,908.35 845.85,845.85 894.45,797.25 930.25,743.35 953.2,684.05 971.65,636.4 981.85,585.25 983.75,530.55 983.95,524.5 984.05,518.3 984.05,512.05 984.05,511.4 984.05,510.7 984.05,510.05 984.05,509.7 984.05,509.4 984.05,509.05 983.85,468.4 979.1,429.55 969.75,392.05 968.65,387.7 967.4,383.05 966.1,378.45z"/>
    </g>
  </g>
  <g id="background-circle1">
    <g id="shape4">
      <path id="path2" fill="#000000" fill-opacity="0.2" d="M983.75,530.55 C983.8,529.7 983.8,528.85 983.85,527.8 L983.825,527.775 L767.65,311.6 339.95,598.1 454.775,712.925 266.05,796.05 450.475,980.475 L450.5,980.5 C462,981.8 473,982.75 484.15,983.35 484.3,983.35 484.4,983.35 484.55,983.35 493.05,983.8 501.15,984.05 509.05,984.05 Q510.55,984.05 512.05,984.05 C522.35,984.05 532.55,983.75 542.15,983.25 544.65,983.1 546.9,982.95 549.1,982.8 569.3,981.35 589,978.75 607.8,975.1 615.75,973.55 623.6,971.8 631.2,969.95 712,949.65 783.35,908.35 845.85,845.85 894.45,797.25 930.25,743.35 953.2,684.05 971.65,636.4 981.85,585.25 983.75,530.55z"/>
    </g>
  </g>
  <mask id="object-shadow">
    <g id="g">
      <g id="shape19">
        <path id="path14" fill="#FFFFFF" fill-opacity="1" d="M966.1,378.45 C965.1,375.05 964.1,371.6 962.95,367.95 961.35,362.8 959.55,357.45 957.65,352.1 951.2,333.85 943.5,316.05 934.5,298.45 930.7,291.05 926.55,283.5 922.2,276.05 901.9,241.55 876.4,208.85 845.85,178.3 773.25,105.7 688.7,61.65 592.2,46.25 575.95,43.65 559.4,41.85 542.15,40.9 532.45,40.35 522.3,40.05 512.05,40.05 502.7,40.05 493.45,40.3 484.15,40.8 365.8,46.9 263.85,92.75 178.3,178.3 Q40.05,316.55 40.05,512.05 C40.05,642.4 86.15,753.7 178.3,845.85 235,902.5 298.85,941.75 369.4,963.4 406.15,974.65 444.2,981.25 484.15,983.35 484.3,983.35 484.4,983.35 484.55,983.35 493.05,983.8 501.15,984.05 509.05,984.05 510.25,984.05 511.15,984.05 512.05,984.05 522.35,984.05 532.55,983.75 542.15,983.25 544.65,983.1 546.9,982.95 549.1,982.8 569.3,981.35 589,978.75 607.8,975.1 615.75,973.55 623.6,971.8 631.2,969.95 712,949.65 783.35,908.35 845.85,845.85 894.45,797.25 930.25,743.35 953.2,684.05 971.65,636.4 981.85,585.25 983.75,530.55 983.95,524.5 984.05,518.3 984.05,512.05 984.05,511.4 984.05,510.7 984.05,510.05 984.05,509.7 984.05,509.4 984.05,509.05 983.85,468.4 979.1,429.55 969.75,392.05 968.65,387.7 967.4,383.05 966.1,378.45z"/>
      </g>
    </g>
  </mask>
  <g id="masked" mask="url(#object-shadow)">
    <g id="Calque.__201">
      <g id="shape6">
        <path id="path3" fill="#A03A31" fill-opacity="1" d="M266.05,711.05 L308.55,753.55 266.05,796.05 459.05,796.05 459.05,711.05 266.05,711.05z M566.05,825.05 L547.05,825.05 459.05,913.05 566.05,913.05 566.05,825.05z"/>
        <path id="path4" fill="#A68252" fill-opacity="1" d="M459.05,599.1 L459.05,711.05 459.05,796.05 459.05,813.1 566.05,706.1 459.05,599.1z M547.05,825.05 L566.05,825.05 566.05,806.05 547.05,825.05z M566.05,944.3 L566.05,913.05 459.05,913.05 459.05,944.3 566.05,944.3z"/>
        <path id="path5" fill="#8C6D43" fill-opacity="1" d="M459.05,599.1 L566.05,706.1 566.05,569.05 459.05,569.05 459.05,599.1z"/>
        <path id="path10" fill="#BB463E" fill-opacity="1" d="M547.05,825.05 L566.05,806.05 566.05,706.1 459.05,813.1 459.05,913.05 547.05,825.05z"/>
        <path id="path13" fill="#999999" fill-opacity="1" d="M576.55,944.3 L566.05,944.3 459.05,944.3 447.55,944.3 447.55,1062.05 576.55,1062.05 576.55,944.3z"/>
      </g>
    </g>
  </g>
  <g id="object">
    <g id="shape21">
      <path id="path15" fill="#666666" fill-opacity="1" d="M767.65,311.6 L684.15,228.1 684.15,598.1 767.65,514.6 767.65,311.6z M634.05,518.05 L645.05,598.1 673.05,598.1 634.05,518.05z"/>
      <path id="path16" fill="#999999" fill-opacity="1" d="M673.05,598.1 L684.15,598.1 684.15,228.1 542.95,228.1 339.95,431.1 339.95,598.1 645.05,598.1 634.05,518.05 673.05,598.1z"/>
      <path id="path17" fill="#C0C0C0" fill-opacity="1" d="M385.05,228.1 L403.15,257.05 406.05,228.1 385.05,228.1z M339.95,431.1 L339.95,228.1 256.45,311.6 256.45,514.6 339.95,431.1z"/>
      <path id="path18" fill="#ABABAB" fill-opacity="1" d="M403.15,257.05 L385.05,228.1 339.95,228.1 339.95,431.1 542.95,228.1 406.05,228.1 403.15,257.05z M339.95,598.1 L339.95,431.1 256.45,514.6 339.95,598.1z"/>
    </g>
  </g>
</svg>