
<svg xmlns="http://www.w3.org/2000/svg" version="1.1" xmlns:xlink="http://www.w3.org/1999/xlink" preserveAspectRatio="none" x="0px" y="0px" width="1024px" height="1024px" viewBox="0 0 1024 1024">
<defs>
<g id="Layer6_0_FILL">
<path fill="#000000" fill-opacity="0.09803921568627451" stroke="none" d="
M 969.6 351.25
Q 961 330.4 950.2 310.4 944.1 299.05 937.3 288 907.95 240.45 865.75 198.2 727.5 59.95 531.95 59.95 336.45 59.95 198.2 198.2 59.95 336.45 59.95 531.95 59.95 727.5 198.2 865.75 336.45 1003.95 531.95 1003.95 727.5 1003.95 865.75 865.75 941.9 789.55 976.1 696 1003.95 619.75 1003.95 531.95 1003.95 464.6 987.55 404 985.7 397.15 983.65 390.4 977.5 370.45 969.6 351.25 Z"/>
</g>

<g id="Layer5_0_FILL">
<path fill="#FFEE58" stroke="none" d="
M 969.7 392
Q 967.95 385.15 966.05 378.4 964.52578125 373.114453125 962.85 367.85 960.3787109375 359.903125 957.6 352.05 947.85 324.5 934.45 298.4 928.65 287.05 922.15 276 891.5 224 845.8 178.25 736.8 69.25 592.15 46.2 567.65 42.3 542.1 40.85 527.2 40 512 40 497.9 40 484.1 40.75 306.55 49.95 178.25 178.25 40 316.5 40 512 40 707.55 178.25 845.8 263.0400390625 930.55703125 369.35 963.35 423.8880859375 980.1630859375 484.1 983.3 484.3 983.3 484.5 983.3 496.65 983.9 509 984 510.5 984 512 984 527.25 984 542.1 983.2 545.6 983 549.05 982.75 579.1 980.6 607.75 975.05 619.55 972.75 631.15 969.9 751.75 939.85 845.8 845.8 918.7 772.85 953.15 684 980.9 612.4 983.7 530.5 984 521.3 984 512 984 511 984 510 984 509.5 984 509 983.65 447.7 969.7 392 Z"/>
</g>

<g id="Layer4_0_FILL">
<path fill="#000000" fill-opacity="0.2" stroke="none" d="
M 953.15 684
Q 979.473046875 616.0818359375 983.35 538.9
L 744.1 299.65 289.2 735.35 537.3 983.45
Q 539.6990234375 983.329296875 542.1 983.2 545.6 983 549.05 982.75 579.1 980.6 607.75 975.05 619.55 972.75 631.15 969.9 751.75 939.85 845.8 845.8 918.7 772.85 953.15 684 Z"/>
</g>

<g id="Layer3_0_FILL">
<path fill="#B8E2D1" stroke="none" d="
M 738.5 785.8
L 738.5 744.25 738.5 744.2 356.95 744.2 307.8 744.2
Q 299.2 744.2 293.05 750.25 286.95 756.3 286.95 765
L 286.95 765.05
Q 286.95 773.75 293.05 779.7 299.25 785.8 307.8 785.8
L 706.95 785.8 738.5 785.8 Z"/>

<path fill="#121715" stroke="none" d="
M 706.95 786
L 706.95 785.8 307.8 785.8
Q 299.25 785.8 293.05 779.7 286.95 773.75 286.95 765.05
L 286.95 765
Q 286.95 756.3 293.05 750.25 299.2 744.2 307.8 744.2
L 356.95 744.2 356.95 207.5 288.8 207.5
Q 257.1 207.5 257.1 239.15
L 257.1 784.75
Q 257.1 816.35 288.8 816.35
L 735.2 816.35
Q 766.25 816.35 766.9 786
L 706.95 786 Z"/>

<path fill="#76363D" stroke="none" d="
M 766.9 239.15
Q 766.9 207.5 735.2 207.5
L 356.95 207.5 356.95 744.2 738.5 744.2 738.5 744.25 739.6 744.25
Q 750.8 743.95 758.7 736.05 766.6 728.15 766.9 717
L 766.9 239.15 Z"/>
</g>

<g id="Layer1_0_FILL">
<path fill="#FFEE58" stroke="none" d="
M 557.55 592.2
Q 556 592.2 554.85 593.35 553.7 594.45 553.7 596.05
L 553.7 639.75 546.45 639.75 546.45 611.05
Q 546.45 609.45 545.3 608.35 544.2 607.2 542.55 607.2 541 607.2 539.85 608.35 538.7 609.45 538.7 611.05
L 538.7 639.75 531.45 639.75 531.45 626.05
Q 531.45 624.45 530.3 623.35 529.2 622.2 527.6 622.2 526 622.2 524.85 623.35 523.7 624.45 523.7 626.05
L 523.7 639.75 517.05 639.75 517.05 635.65
Q 517.05 634.05 515.95 632.95 514.8 631.75 513.2 631.75 511.55 631.75 510.45 632.95 509.35 634.05 509.35 635.65
L 509.35 639.8
Q 508.2 640 507.3 640.85 506.15 642 506.15 643.6 506.15 645.2 507.3 646.35
L 554.85 693.95
Q 556 695.05 557.6 695.05 559.2 695.05 560.35 693.95
L 607.9 646.35
Q 609.05 645.2 609.05 643.6 609.05 642.05 607.9 640.85 606.9 639.85 605.5 639.75
L 605.5 635.65
Q 605.5 634.05 604.4 632.95 603.3 631.75 601.65 631.75 600.05 631.75 598.95 632.95 597.8 634.05 597.8 635.65
L 597.8 639.75 591.45 639.75 591.45 626
Q 591.45 624.4 590.3 623.3 589.15 622.15 587.55 622.15 585.95 622.15 584.85 623.3 583.7 624.4 583.7 626
L 583.7 639.75 576.45 639.75 576.45 611.05
Q 576.45 609.4 575.3 608.3 574.15 607.15 572.55 607.15 570.95 607.15 569.85 608.3 568.7 609.4 568.7 611.05
L 568.7 639.75 561.45 639.75 561.45 596.05
Q 561.45 594.45 560.3 593.35 559.2 592.2 557.55 592.2
M 396.9 316.05
Q 399.855859375 319.001953125 404 319
L 544 319
Q 548.144140625 319.001953125 551.05 316.05 554.001953125 313.144140625 554 309 554.001953125 304.855859375 551.05 301.9 548.144140625 298.998046875 544 299
L 404 299
Q 399.855859375 298.998046875 396.9 301.9 393.998046875 304.855859375 394 309 393.998046875 313.144140625 396.9 316.05
M 708.05 267.9
Q 705.144140625 264.998046875 701 265
L 404 265
Q 399.855859375 264.998046875 396.9 267.9 393.998046875 270.855859375 394 275 393.998046875 279.144140625 396.9 282.05 399.855859375 285.001953125 404 285
L 701 285
Q 705.144140625 285.001953125 708.05 282.05 711.001953125 279.144140625 711 275 711.001953125 270.855859375 708.05 267.9 Z"/>
</g>
</defs>

<g transform="matrix( 1, 0, 0, 1, 0,0) ">
<use xlink:href="#Layer6_0_FILL"/>
</g>

<g transform="matrix( 1, 0, 0, 1, 0,0) ">
<use xlink:href="#Layer5_0_FILL"/>
</g>

<g transform="matrix( 1, 0, 0, 1, 0,0) ">
<use xlink:href="#Layer4_0_FILL"/>
</g>

<g transform="matrix( 1, 0, 0, 1, 0,0) ">
<use xlink:href="#Layer3_0_FILL"/>
</g>

<g transform="matrix( 1, 0, 0, 1, 0,0) ">
<use xlink:href="#Layer1_0_FILL"/>
</g>
</svg>
