<?xml version="1.0" encoding="utf-8"?>
<!-- Generator: flash2svg, http://dissentgraphics.com/tools/flash2svg -->
<svg id="Things" image-rendering="optimizeSpeed" baseProfile="basic" version="1.1" style="background-color:#FFFFFF" x="0px" y="0px" width="1024px" height="1024px" viewBox="0 0 1024 1024" enable-background="new 0 0 1024 1024" xmlns="http://www.w3.org/2000/svg" xmlns:xlink="http://www.w3.org/1999/xlink">
  <defs transform="matrix(1 0 0 1 0 0) "/>
  <g id="shadow">
    <g id="shape">
      <path id="path" fill="#000000" fill-opacity="0.09803921568627451" d="M965.6,350.25 Q957,329.4 946.2,309.4 C942.15,301.85 937.85,294.35 933.3,287 913.75,255.3 889.9,225.35 861.75,197.2 769.6,105.05 658.3,58.95 527.95,58.95 397.6,58.95 286.35,105.05 194.2,197.2 102.05,289.35 55.95,400.6 55.95,530.95 55.95,661.3 102.05,772.6 194.2,864.75 286.35,956.9 397.6,1002.95 527.95,1002.95 658.3,1002.95 769.6,956.9 861.75,864.75 912.5,813.95 949.3,757.35 972.1,695 990.65,644.15 999.95,589.5 999.95,530.95 999.95,486.05 994.5,443.4 983.55,403 982.3,398.45 981,393.9 979.65,389.4 975.55,376.1 970.85,363.05 965.6,350.25z"/>
    </g>
  </g>
  <g id="circle">
    <g id="shape2">
      <path id="path1" fill="#0B509D" fill-opacity="1" d="M969.7,392 C968.6,387.65 967.35,383 966.05,378.4 963.55,369.65 960.7,360.8 957.6,352.05 951.15,333.8 943.45,316 934.45,298.4 930.65,291 926.5,283.45 922.15,276 L922.125,276 Q891.524,223.99 845.8,178.25 C753.65,86.1 642.45,40.05 512.1,40 L512.1,512.15 514.1,512.15 514.1,984 C643.65,983.5 754.2,937.4 845.8,845.8 894.4,797.2 930.2,743.3 953.15,684 970.15,640.05 980.15,593.2 983.1,543.25 983.65,533.75 984,524.1 984,514.15 984,513.5 984,512.75 984,512 984,470.25 979.3,430.4 969.7,392z"/>
      <path id="path2" fill="#1069CB" fill-opacity="1" d="M512.1,40 C512.05,40 512.05,40 512,40 381.65,40 270.4,86.1 178.25,178.25 86.1,270.4 40,381.65 40,512 40,512.05 40,512.1 40,512.15 40.05,642.45 86.1,753.65 178.25,845.8 246.3,913.85 324.75,956.75 413.15,974.45 445.1,980.85 477.9,984 512,984 512.75,984 513.5,984 514.1,984 L514.1,512.15 512.1,512.15 512.1,40z"/>
    </g>
  </g>
  <g id="inner-circle">
    <g id="shape6">
      <path id="path3" fill="#FFFFFF" fill-opacity="1" d="M781.65,276 C776.5,270.2 771,264.4 765.3,258.7 695.35,188.75 610.95,153.8 512,153.8 413.05,153.8 328.65,188.75 258.7,258.7 188.75,328.65 153.8,413.05 153.8,512 153.8,610.95 188.75,695.35 258.7,765.3 328.65,835.25 413.05,870.2 512,870.2 551.05,870.2 587.8,864.75 621.95,854 675.3,837.15 722.95,807.65 765.3,765.3 790.5,740.1 811.15,713 827.3,684 Q870.2,606.894 870.2,512 C870.2,501.65 869.8,491.45 869.05,481.3 868.2,470.6 866.95,460.05 865.25,449.6 862.05,429.85 857.2,410.75 850.65,392 836.1,350.15 813.1,311.4 781.65,276z"/>
    </g>
  </g>
  <g id="ico-shadow">
    <g id="shape8">
      <path id="path4" fill="#000000" fill-opacity="0.2" d="M870.2,512 C870.2,501.65 869.8,491.45 869.05,481.3 L765.25,377.5 416.95,649 621.95,854 C675.3,837.15 722.95,807.65 765.3,765.3 790.5,740.1 811.15,713 827.3,684 Q870.2,606.894 870.2,512z"/>
    </g>
  </g>
  <g id="ico">
    <g id="shape10">
      <path id="path5" fill="#333333" fill-opacity="1" d="M679,291.25 Q671.9,284.2 664.85,291.25 L462.4,493.7 359.2,390.45 C354.45,385.7 349.75,385.7 345,390.45 L258.75,476.7 C254.05,481.4 254.05,486.1 258.8,490.85 L455.35,687.4 C459.5,691.55 463.65,692.1 467.75,688.95 L469.5,687.45 765.3,391.65 C770,386.95 770,382.25 765.25,377.5 L679,291.25z"/>
    </g>
  </g>
</svg>