<?xml version="1.0" encoding="utf-8"?>
<!-- Generator: flash2svg, http://dissentgraphics.com/tools/flash2svg -->
<svg xmlns:xlink="http://www.w3.org/1999/xlink" id="Scrivener" image-rendering="optimizeSpeed" baseProfile="basic" version="1.1" style="background-color:#ffffff" x="0px" y="0px" width="1024px" height="1024px" viewBox="0 0 1024 1024" enable-background="new 0 0 1024 1024" xmlns="http://www.w3.org/2000/svg">
  <defs transform="matrix(1 0 0 1 0 0) "/>
  <g id="shadow">
    <g id="shape">
      <path id="path" fill="#000000" fill-opacity="0.09803921568627451" d="M964.65,346.3 Q956.05,325.45 945.25,305.45 C941.2,297.9 936.9,290.4 932.35,283.05 912.8,251.35 888.95,221.4 860.8,193.25 768.65,101.1 657.35,55 527,55 396.65,55 285.4,101.1 193.25,193.25 101.1,285.4 55,396.65 55,527 55,657.35 101.1,768.65 193.25,860.8 285.4,952.95 396.65,999 527,999 657.35,999 768.65,952.95 860.8,860.8 911.55,810 948.35,753.4 971.15,691.05 989.7,640.2 999,585.55 999,527 999,482.1 993.55,439.45 982.6,399.05 981.35,394.5 980.05,389.95 978.7,385.45 974.6,372.15 969.9,359.1 964.65,346.3z"/>
    </g>
  </g>
  <g id="circle">
    <g id="shape2">
      <path id="path1" fill="#CCCCCC" fill-opacity="1" d="M966.1,378.45 C965.55,376.55 965,374.6 964.3,372.4 962.35,365.8 960.05,358.95 957.65,352.1 951.2,333.85 943.5,316.05 934.5,298.45 930.7,291.05 926.55,283.5 922.2,276.05 L922.175,276.05 Q891.574,224.04 845.85,178.3 C788.6,121.05 723.95,81.6 651.7,59.8 608.1,46.65 561.45,40.05 512.05,40.05 509.45,40.05 506.85,40.05 504,40.1 473.55,41.3 445.2,47.85 418.95,59.6 393.4,71.05 369.85,87.5 348.4,108.95 302.35,155.05 279.3,210.7 279.3,275.85 279.3,341 302.35,396.65 348.4,442.7 393.8,488.1 448.45,511.15 512.05,511.85 L518.35,511.85 C582.25,512.65 636.85,535.65 682.15,580.95 728.25,627.05 751.3,682.7 751.3,747.85 751.3,782.7 744.7,814.8 731.55,844.2 720.1,869.75 703.6,893.25 682.15,914.7 636.1,960.8 580.45,983.85 515.3,983.85 514.3,983.85 513.3,983.85 512.05,983.85 L512.05,984.05 C642.4,984.05 753.7,938 845.85,845.85 894.45,797.25 930.25,743.35 953.2,684.05 970.2,640.1 980.2,593.25 983.15,543.3 983.75,533.1 984.05,522.65 984.05,512.05 984.05,470.3 979.35,430.45 969.75,392.05 968.65,387.7 967.4,383.05 966.1,378.45z"/>
      <path id="path2" fill="#333333" fill-opacity="1" d="M751.3,747.85 C751.3,682.7 728.25,627.05 682.15,580.95 636.85,535.65 582.25,512.65 518.35,511.85 L512.05,511.85 C448.45,511.15 393.8,488.1 348.4,442.7 302.35,396.65 279.3,341 279.3,275.85 279.3,210.7 302.35,155.05 348.4,108.95 369.85,87.5 393.4,71.05 418.95,59.6 445.2,47.85 473.55,41.3 504,40.1 377.25,41.9 268.6,88 178.3,178.3 86.15,270.45 40.05,381.7 40.05,512.05 40.05,642.4 86.15,753.7 178.3,845.85 246.35,913.9 324.8,956.8 413.2,974.5 445.15,980.9 477.95,984.05 512.05,984.05 L512.05,983.85 C513.3,983.85 514.3,983.85 515.3,983.85 580.45,983.85 636.1,960.8 682.15,914.7 703.6,893.25 720.1,869.75 731.55,844.2 744.7,814.8 751.3,782.7 751.3,747.85z"/>
    </g>
  </g>
  <g id="circle1">
    <g id="Symbole.__207_1" overflow="visible">
      <g id="Calque.__204">
        <g id="shape14">
          <path id="path8" fill="#333333" fill-opacity="1" d="M585.6,186.15 Q561.35,186.15 544.2,203.25 C532.8,214.7 527.1,228.5 527.1,244.65 527.1,260.8 532.8,274.6 544.2,286 552.35,294.15 561.7,299.4 572.25,301.75 L552.85,327.95 580.6,349.1 632.15,280.4 632.75,279.4 C635.55,275.7 637.85,271.8 639.6,267.7 L641.4,264.55 642.05,260.55 C643.1,256.8 643.75,252.95 644,248.95 L644,248.65 C644.05,247.35 644.1,246 644.1,244.65 644.1,228.5 638.4,214.7 626.95,203.25 615.55,191.85 601.75,186.15 585.6,186.15z"/>
        </g>
        <g id="shape15">
          <path id="path9" fill="#333333" fill-opacity="1" d="M401.7,203.25 Q384.6,220.4 384.6,244.65 C384.6,260.8 390.3,274.6 401.7,286 409.85,294.15 419.2,299.4 429.75,301.75 L410.35,327.95 438.1,349.1 489.65,280.4 490.25,279.4 C493.05,275.7 495.35,271.8 497.1,267.7 L498.9,264.55 499.55,260.55 C500.6,256.8 501.25,252.95 501.5,248.95 L501.5,248.65 C501.55,247.35 501.6,246 501.6,244.65 501.6,228.5 495.9,214.7 484.45,203.25 473.05,191.85 459.25,186.15 443.1,186.15 426.95,186.15 413.15,191.85 401.7,203.25z"/>
        </g>
      </g>
    </g>
    <g id="Symbole.__209_1" overflow="visible">
      <g id="Calque.__205">
        <g id="shape16">
          <path id="path10" fill="#CCCCCC" fill-opacity="1" d="M537.6,706.2 C534.8,709.9 532.5,713.8 530.75,717.9 L528.95,721.05 528.3,725.05 C527.25,728.8 526.6,732.65 526.35,736.65 L526.35,736.95 C526.3,738.25 526.25,739.6 526.25,740.95 526.25,757.1 531.95,770.9 543.4,782.35 554.8,793.75 568.6,799.45 584.75,799.45 600.9,799.45 614.7,793.75 626.15,782.35 637.55,770.9 643.25,757.1 643.25,740.95 643.25,724.8 637.55,711 626.15,699.6 618,691.45 608.65,686.2 598.1,683.85 L617.5,657.65 589.75,636.5 538.2,705.2 537.6,706.2z M395.7,705.2 L395.1,706.2 C392.3,709.9 390,713.8 388.25,717.9 L386.45,721.05 385.8,725.05 C384.75,728.8 384.1,732.65 383.85,736.65 L383.85,736.95 C383.8,738.25 383.75,739.6 383.75,740.95 383.75,757.1 389.45,770.9 400.9,782.35 412.3,793.75 426.1,799.45 442.25,799.45 458.4,799.45 472.2,793.75 483.65,782.35 495.05,770.9 500.75,757.1 500.75,740.95 500.75,724.8 495.05,711 483.65,699.6 475.5,691.45 466.15,686.2 455.6,683.85 L475,657.65 447.25,636.5 395.7,705.2z"/>
        </g>
      </g>
    </g>
  </g>
</svg>