<?xml version="1.0" encoding="utf-8"?>
<!-- Generator: flash2svg, http://dissentgraphics.com/tools/flash2svg -->
<svg xmlns:xlink="http://www.w3.org/1999/xlink" id="Apps-Readkit" image-rendering="optimizeSpeed" baseProfile="basic" version="1.1" style="background-color:#ffffff" x="0px" y="0px" width="1024px" height="1024px" viewBox="0 0 1024 1024" enable-background="new 0 0 1024 1024" xmlns="http://www.w3.org/2000/svg">
  <defs transform="matrix(1 0 0 1 0 0) "/>
  <g id="shadow">
    <g id="shape">
      <path id="path" fill="#000000" fill-opacity="0.09803921568627451" d="M969.65,351.3 Q961.05,330.45 950.25,310.45 C946.2,302.9 941.9,295.4 937.35,288.05 917.8,256.35 893.95,226.4 865.8,198.25 773.65,106.1 662.35,60 532,60 401.65,60 290.4,106.1 198.25,198.25 106.1,290.4 60,401.65 60,532 60,662.35 106.1,773.65 198.25,865.8 290.4,957.95 401.65,1004 532,1004 662.35,1004 773.65,957.95 865.8,865.8 916.55,815 953.35,758.4 976.15,696.05 994.7,645.2 1004,590.55 1004,532 1004,487.1 998.55,444.45 987.6,404.05 986.35,399.5 985.05,394.95 983.7,390.45 979.6,377.15 974.9,364.1 969.65,351.3z"/>
    </g>
  </g>
  <g id="bg">
    <g id="shape2">
      <path id="path1" fill="#2BA8EE" fill-opacity="1" d="M929.85,289.65 C927.5,285.3 924.9,280.65 922.2,276.05 901.9,241.55 876.4,208.85 845.85,178.3 773.25,105.7 688.7,61.65 592.2,46.25 575.95,43.65 559.4,41.85 542.15,40.9 532.45,40.35 522.3,40.05 512.05,40.05 502.7,40.05 493.45,40.3 484.15,40.8 365.8,46.9 263.85,92.75 178.3,178.3 157.8,198.8 139.55,220.25 123.6,242.7 108.25,264.25 95.05,286.7 84,309.9 L83.975,309.875 Q40.05,401.873 40.05,512.05 C40.05,642.4 86.15,753.7 178.3,845.85 235,902.5 298.85,941.75 369.4,963.4 406.15,974.65 444.2,981.25 484.15,983.35 484.3,983.35 484.4,983.35 484.55,983.35 493.05,983.8 501.15,984.05 509.05,984.05 510.25,984.05 511.15,984.05 512.05,984.05 522.35,984.05 532.55,983.75 542.15,983.25 544.65,983.1 546.9,982.95 549.1,982.8 569.3,981.35 589,978.75 607.8,975.1 615.75,973.55 623.6,971.8 631.2,969.95 712,949.65 783.35,908.35 845.85,845.85 894.45,797.25 930.25,743.35 953.2,684.05 971.65,636.4 981.85,585.25 983.75,530.55 983.95,524.5 984.05,518.3 984.05,512.05 984.05,511.4 984.05,510.7 984.05,510.05 984.05,509.7 984.05,509.4 984.05,509.05 983.85,468.4 979.1,429.55 969.75,392.05 968.65,387.7 967.4,383.05 966.1,378.45 965.1,375.05 964.1,371.6 962.95,367.95 961.35,362.8 959.55,357.45 957.65,352.1 952.6,337.85 946.8,323.85 940.2,309.95 938.35,306.15 936.45,302.3 934.5,298.45 933.05,295.6 931.55,292.75 929.85,289.65z"/>
    </g>
  </g>
  <mask id="bg1">
    <g id="g">
      <g id="shape15">
        <path id="path10" fill="#FFFFFF" fill-opacity="1" d="M929.85,289.65 C927.5,285.3 924.9,280.65 922.2,276.05 901.9,241.55 876.4,208.85 845.85,178.3 773.25,105.7 688.7,61.65 592.2,46.25 575.95,43.65 559.4,41.85 542.15,40.9 532.45,40.35 522.3,40.05 512.05,40.05 502.7,40.05 493.45,40.3 484.15,40.8 365.8,46.9 263.85,92.75 178.3,178.3 157.8,198.8 139.55,220.25 123.6,242.7 108.25,264.25 95.05,286.7 84,309.9 L83.975,309.875 Q40.05,401.873 40.05,512.05 C40.05,642.4 86.15,753.7 178.3,845.85 235,902.5 298.85,941.75 369.4,963.4 406.15,974.65 444.2,981.25 484.15,983.35 484.3,983.35 484.4,983.35 484.55,983.35 493.05,983.8 501.15,984.05 509.05,984.05 510.25,984.05 511.15,984.05 512.05,984.05 522.35,984.05 532.55,983.75 542.15,983.25 544.65,983.1 546.9,982.95 549.1,982.8 569.3,981.35 589,978.75 607.8,975.1 615.75,973.55 623.6,971.8 631.2,969.95 712,949.65 783.35,908.35 845.85,845.85 894.45,797.25 930.25,743.35 953.2,684.05 971.65,636.4 981.85,585.25 983.75,530.55 983.95,524.5 984.05,518.3 984.05,512.05 984.05,511.4 984.05,510.7 984.05,510.05 984.05,509.7 984.05,509.4 984.05,509.05 983.85,468.4 979.1,429.55 969.75,392.05 968.65,387.7 967.4,383.05 966.1,378.45 965.1,375.05 964.1,371.6 962.95,367.95 961.35,362.8 959.55,357.45 957.65,352.1 952.6,337.85 946.8,323.85 940.2,309.95 938.35,306.15 936.45,302.3 934.5,298.45 933.05,295.6 931.55,292.75 929.85,289.65z"/>
      </g>
    </g>
  </mask>
  <g id="masked" mask="url(#bg1)">
    <g id="Calque.__205">
      <g id="shape4">
        <path id="path2" fill="#FFFFFF" fill-opacity="1" d="M548.55,293.25 C547.6,293.05 546.55,292.8 545.45,292.5 544.7,292.3 544,292.1 543.3,291.9 542.75,291.75 542.25,291.55 541.75,291.4 542,291.45 542.2,291.55 542.45,291.6 531.7,288 523.4,281.2 517.65,271.2 L461.75,174.35 111.05,376.85 C100.05,383.15 92.95,392.45 89.65,404.7 Q84.75,422.95 94.2,439.4 L480.85,1109.2 C487.2,1120.15 496.5,1127.25 508.7,1130.55 518.1,1133.05 527.15,1132.75 535.85,1129.6 538.4,1128.6 540.95,1127.45 543.5,1125.95 L988.05,869.35 C999,863.05 1006.1,853.75 1009.4,841.5 1012.65,829.3 1011.15,817.7 1004.8,806.75 L737.6,343.9 548.55,293.25z"/>
      </g>
    </g>
    <g id="Calque.__206">
      <g id="shape6">
        <path id="path3" fill="#FFFFFF" fill-opacity="0.8980392156862745" d="M678.65,232.95 L783.25,204.95 594.5,95.9 622.55,200.55 C625.5,211.45 631.5,220.05 640.65,226.4 640.7,226.4 640.7,226.4 640.75,226.45 L640.8,226.5 640.85,226.5 C640.9,226.5 640.9,226.5 640.95,226.55 641.1,226.6 641.2,226.7 641.35,226.8 642.15,227.35 643.05,227.85 643.9,228.4 644.8,228.9 645.8,229.4 646.7,229.85 656.8,234.85 667.4,235.95 678.65,232.95z"/>
        <path id="path4" fill="#A8CCEB" fill-opacity="1" d="M783.25,204.95 L678.65,232.95 C667.4,235.95 656.8,234.85 646.7,229.85 L816.1,327.7 816.15,327.7 783.25,204.95z"/>
        <path id="path5" fill="#BADFFF" fill-opacity="1" d="M594.5,95.9 L593.6,92.55 202.35,197.35 C190.15,200.65 180.85,207.75 174.55,218.7 168.25,229.65 166.7,241.25 170,253.5 L370.1,1000.5 C373.4,1012.7 380.55,1022 391.45,1028.3 399.9,1033.15 408.7,1035.2 417.9,1034.45 420.65,1034.2 423.45,1033.65 426.25,1032.85 L922.05,900.05 C934.3,896.75 943.6,889.65 949.85,878.7 956.25,867.75 957.75,856.15 954.45,843.95 L816.1,327.7 646.7,229.85 C645.8,229.4 644.8,228.9 643.9,228.4 643.05,227.85 642.15,227.35 641.35,226.8 641.65,226.95 641.9,227.2 642.15,227.35 641.7,227.05 641.25,226.75 640.8,226.5 640.75,226.45 640.7,226.45 640.65,226.4 631.5,220.05 625.5,211.45 622.55,200.55 L594.5,95.9z"/>
      </g>
    </g>
  </g>
  <g id="Calque.__207">
    <g id="shape17">
      <path id="path11" fill="#333333" fill-opacity="1" d="M135.85,660.5 C139.4,667.6 144.9,672.45 152.35,675 159.85,677.55 167.15,677.05 174.25,673.5 181.35,669.95 186.2,664.45 188.75,657 194.2,640.95 200.65,626.7 208.1,614.15 L208.1,586.2 157.425,586.2 L157.45,586.2 C148.6,601.75 140.9,619.25 134.35,638.6 131.8,646.1 132.3,653.4 135.85,660.5z M864.425,582.2 L818.2,582.2 818.2,617.85 C824.75,629.5 830.5,642.55 835.4,657 837.95,664.45 842.8,669.95 849.9,673.5 857,677.05 864.3,677.55 871.8,675 879.25,672.45 884.75,667.6 888.3,660.5 891.85,653.4 892.35,646.1 889.8,638.6 882.7,617.55 874.25,598.75 864.45,582.2z"/>
      <path id="path12" fill="#666666" fill-opacity="1" d="M878.95,392.65 Q869.2,385.9 857.5,388.05 L512.075,451.45 166.65,388.05 C158.85,386.6 151.7,388.15 145.2,392.65 138.65,397.15 134.7,403.3 133.25,411.1 131.8,418.85 133.35,426 137.85,432.55 142.4,439.05 148.55,443.05 156.3,444.5 L353.125,480.6 282.35,493.6 C282.15,493.65 281.95,493.65 281.7,493.7 227.9,504.15 186.5,534.95 157.45,586.2 L157.425,586.2 L208.1,586.2 208.1,614.15 C228.7,579.6 257.15,558.15 293.4,549.9 L512.1,509.775 730.75,549.9 C768.3,558.45 797.45,581.1 818.2,617.85 L818.2,582.2 864.425,582.2 L864.45,582.2 C835.5,533.35 794.85,503.85 742.45,493.7 742.2,493.65 742,493.65 741.8,493.6 L671.025,480.625 867.85,444.5 C875.6,443.05 881.75,439.05 886.3,432.55 890.8,426 892.35,418.85 890.9,411.1 889.45,403.3 885.5,397.15 878.95,392.65z"/>
    </g>
  </g>
  <g id="Calque.__208">
    <g id="shape23">
      <path id="path15" fill="#000000" fill-opacity="1" d="M866.55,388.25 Q825.4,383.35 701.4,389.45 C668.5,391.1 639,393 612.95,395.15 586.3,397.3 570.15,399.2 564.6,400.8 564.55,400.8 564.5,400.8 564.45,400.85 554.2,402.85 546.95,405.5 542.7,408.85 537.2,412.85 533.95,418.9 533,427.05 519.7,446 505.75,446 491.1,427.05 490.15,418.9 486.9,412.85 481.4,408.85 477.15,405.5 469.9,402.85 459.65,400.85 459.6,400.8 459.55,400.8 459.5,400.8 453.95,399.2 437.8,397.3 411.15,395.15 385.1,393 355.6,391.1 322.7,389.45 240.05,385.4 185,385 157.55,388.25 134.9,390.9 122.75,397.15 121.1,406.95 117.15,415.6 122.6,425.75 137.35,437.5 130.95,487.15 133.3,531.55 144.35,570.8 144.35,570.85 144.4,570.95 144.45,571.05 144.5,571.3 144.6,571.6 144.75,571.85 L144.75,571.9 C158.3,605.4 180.45,624.25 211.3,628.45 266.65,636.45 320.45,639.45 372.75,637.45 399.25,636.45 425.35,634.15 451.1,630.55 L451.2,630.55 C451.4,630.5 451.65,630.45 451.9,630.4 L451.95,630.4 C469.9,626.3 480.2,617 482.85,602.55 488.3,580.9 491.7,555.8 493.15,527.2 493.25,525.5 493.35,523.8 493.4,522.05 505.85,479.75 518.3,479.75 530.75,522.05 530.8,523.9 530.85,525.55 530.95,527.2 532.4,555.8 535.8,580.9 541.25,602.55 543.9,617 554.2,626.3 572.15,630.4 L572.2,630.4 C572.45,630.45 572.7,630.5 572.9,630.55 L573,630.55 C598.75,634.15 624.85,636.45 651.35,637.45 703.65,639.45 757.45,636.45 812.8,628.45 843.65,624.25 865.8,605.4 879.35,571.9 L879.35,571.85 C879.5,571.6 879.6,571.3 879.65,571.05 879.7,570.95 879.75,570.85 879.75,570.8 890.8,531.55 893.15,487.15 886.75,437.5 901.5,425.75 906.95,415.6 903,406.95 901.35,397.15 889.2,390.9 866.55,388.25z M867.5,407.1 C869.55,405.05 872,404.05 874.9,404.05 877.8,404.05 880.3,405.05 882.35,407.1 884.4,409.15 885.4,411.65 885.4,414.55 885.4,417.45 884.4,419.9 882.35,421.95 880.3,424 877.8,425.05 874.9,425.05 872,425.05 869.55,424 867.5,421.95 865.45,419.9 864.4,417.45 864.4,414.55 864.4,411.65 865.45,409.15 867.5,407.1z M159.7,414.55 C159.7,417.45 158.65,419.9 156.6,421.95 154.55,424 152.1,425.05 149.2,425.05 146.3,425.05 143.8,424 141.75,421.95 139.7,419.9 138.7,417.45 138.7,414.55 138.7,411.65 139.7,409.15 141.75,407.1 143.8,405.05 146.3,404.05 149.2,404.05 152.1,404.05 154.55,405.05 156.6,407.1 158.65,409.15 159.7,411.65 159.7,414.55z"/>
      <path id="path16" fill="#CCCCCC" fill-opacity="1" d="M867.5,407.1 C865.45,409.15 864.4,411.65 864.4,414.55 864.4,417.45 865.45,419.9 867.5,421.95 869.55,424 872,425.05 874.9,425.05 877.8,425.05 880.3,424 882.35,421.95 884.4,419.9 885.4,417.45 885.4,414.55 885.4,411.65 884.4,409.15 882.35,407.1 880.3,405.05 877.8,404.05 874.9,404.05 872,404.05 869.55,405.05 867.5,407.1z"/>
      <path id="path19" fill="#CCCCCC" fill-opacity="1" d="M159.7,414.55 C159.7,411.65 158.65,409.15 156.6,407.1 154.55,405.05 152.1,404.05 149.2,404.05 146.3,404.05 143.8,405.05 141.75,407.1 139.7,409.15 138.7,411.65 138.7,414.55 138.7,417.45 139.7,419.9 141.75,421.95 143.8,424 146.3,425.05 149.2,425.05 152.1,425.05 154.55,424 156.6,421.95 158.65,419.9 159.7,417.45 159.7,414.55z M196.9,432.5 C221.1,432.35 246.15,432.65 272.05,433.4 L272.05,433.375 L426.4,587.75 C408.95,590 391,591.55 372.75,592.4 327.35,594.55 279.9,592.35 230.35,585.9 230.15,585.85 229.95,585.85 229.8,585.8 229.75,585.8 229.7,585.8 229.65,585.8 L228.55,585.65 228.65,585.65 C208.45,582.6 195.85,571.55 190.8,552.4 L190.85,552.5 190.3,550.25 C190.25,550.15 190.25,550.05 190.2,549.95 183.25,518.75 181.1,485.1 183.75,449.05 184.55,438.6 188.95,433.05 196.9,432.5z"/>
      <path id="path25" fill="#FFFFFF" fill-opacity="0.2" d="M423.6,442.35 C423.45,442.3 423.35,442.3 423.25,442.3 370,437.75 319.6,434.75 272.05,433.4 L272.05,433.375 L426.4,587.75 C427.5,587.55 428.45,587.45 429.4,587.35 437.75,586.2 442.55,581.55 443.75,573.4 446,557.25 447.5,541.85 448.25,527.2 449.35,504.5 448.55,483.7 445.9,464.75 445.6,462.7 445.3,460.65 445,458.65 442.45,449.05 435.3,443.6 423.65,442.35 L423.6,442.35z M840.35,449.05 C839.55,438.6 835.15,433.05 827.2,432.5 780.95,432.15 731.6,433.55 679,436.65 L678.975,436.625 L818.625,576.275 L818.65,576.3 C825.65,570.7 830.6,562.7 833.3,552.4 L833.25,552.5 833.8,550.25 C833.85,550.15 833.85,550.05 833.9,549.95 840.85,518.75 843,485.1 840.35,449.05z M795.55,585.65 L794.45,585.8 C794.4,585.8 794.35,585.8 794.3,585.8 794.15,585.85 793.95,585.85 793.75,585.9 744.2,592.35 696.75,594.55 651.35,592.4 632.1,591.5 613.25,589.8 594.7,587.35 586.35,586.2 581.55,581.55 580.35,573.4 578.1,557.25 576.6,541.85 575.85,527.2 574.75,504.5 575.55,483.7 578.2,464.75 578.5,462.7 578.8,460.65 579.1,458.65 581.65,449.05 588.8,443.6 600.45,442.35 L600.5,442.35 C600.65,442.3 600.75,442.3 600.85,442.3 627.7,440 653.8,438.1 679,436.65 L678.975,436.625 L818.625,576.275 L818.65,576.3 C812.45,581.15 804.75,584.25 795.45,585.65 L795.55,585.65z"/>
    </g>
  </g>
</svg>