
<svg xmlns="http://www.w3.org/2000/svg" version="1.1" xmlns:xlink="http://www.w3.org/1999/xlink" preserveAspectRatio="none" x="0px" y="0px" width="1024px" height="1024px" viewBox="0 0 1024 1024">
<defs>
<g id="Layer7_0_FILL">
<path fill="#000000" fill-opacity="0.09803921568627451" stroke="none" d="
M 965.6 347.25
Q 957 326.4 946.2 306.4 940.1 295.05 933.3 284 903.95 236.45 861.75 194.2 723.5 55.95 527.95 55.95 332.45 55.95 194.2 194.2 55.95 332.45 55.95 527.95 55.95 723.5 194.2 861.75 332.45 999.95 527.95 999.95 723.5 999.95 861.75 861.75 937.9 785.55 972.1 692 999.95 615.75 999.95 527.95 999.95 460.6 983.55 400 981.7 393.15 979.65 386.4 973.5 366.45 965.6 347.25 Z"/>
</g>

<g id="Layer6_0_FILL">
<path fill="#CCCCCC" stroke="none" d="
M 951.9 691.05
Q 961.8728515625 666.5046875 968.85 640.7 985.4 579.916796875 985.4 512.25 985.4 316.45 846.95 178 708.5 39.55 512.65 39.55 316.85 39.55 178.4 178 39.95 316.45 39.95 512.25 39.95 708.1 178.4 846.55 301.65 969.85 470.35 983.3 491.15 985 512.65 985 523.74609375 985 534.65 984.55 716.3439453125 977.1560546875 846.95 846.55 917.3 776.2 951.9 691.05 Z"/>
</g>

<g id="Layer4_0_FILL">
<path fill="#1C1C1C" stroke="none" d="
M 921.5 678.7
Q 930.8 655.85 937.35 631.8 942.7771484375 611.81796875 946.3 591.05
L 667 311.75 316.65 673 590.1 946.45
Q 723.12109375 924.22890625 823.65 823.7 889.25 758.1 921.5 678.7 Z"/>

<path fill="#282828" stroke="none" d="
M 946.3 591.05
Q 952.75 552.8625 952.75 512 952.75 329.5 823.65 200.4 694.6 71.3 512 71.3 329.45 71.3 200.35 200.4 71.3 329.5 71.3 512 71.3 694.6 200.35 823.7 315.3 938.65 472.55 951.2 491.95 952.75 512 952.75 522.35 952.75 532.5 952.35 562.0265625 951.147265625 590.1 946.45
L 316.65 673 667 311.75 946.3 591.05 Z"/>
</g>

<g id="Layer3_0_FILL">
<path fill="#666666" stroke="none" d="
M 690.9 690.9
Q 765 616.8 765 512 765 407.2 690.9 333.1 661.3927734375 303.5927734375 627 285.8 575.0677734375 259 512 259 420.041015625 259 351.7 316.05 342.179296875 324.020703125 333.1 333.1 259 407.2 259 512 259 616.8 333.1 690.9 407.2 765 512 765 616.8 765 690.9 690.9
M 512 324.15
Q 589.8 324.15 644.85 379.2 699.85 434.2 699.85 512 699.85 589.8 644.85 644.85 589.8 699.85 512 699.85 434.2 699.85 379.2 644.85 324.15 589.8 324.15 512 324.15 434.2 379.2 379.2 434.2 324.15 512 324.15 Z"/>

<path fill="#000000" stroke="none" d="
M 644.85 379.2
Q 589.8 324.15 512 324.15 434.2 324.15 379.2 379.2 324.15 434.2 324.15 512 324.15 589.8 379.2 644.85 434.2 699.85 512 699.85 589.8 699.85 644.85 644.85 699.85 589.8 699.85 512 699.85 434.2 644.85 379.2 Z"/>
</g>

<g id="Layer2_0_FILL">
<path fill="#333333" stroke="none" d="
M 779.5 779.5
Q 890.324609375 668.7275390625 890.3 512 890.325390625 355.324609375 779.5 244.5 668.7267578125 133.7259765625 512 133.7 355.2736328125 133.7267578125 244.45 244.5 133.6767578125 355.3236328125 133.65 512 133.6759765625 668.7267578125 244.45 779.5 355.2728515625 890.3236328125 512 890.3 668.7275390625 890.324609375 779.5 779.5
M 869.65 512
Q 869.675390625 660.172265625 764.9 764.9 660.172265625 869.675390625 512 869.65 363.8271484375 869.6763671875 259.05 764.9 154.3240234375 660.1732421875 154.3 512 154.323046875 363.8763671875 259.05 259.1 363.8263671875 154.373046875 512 154.35 660.1732421875 154.3740234375 764.9 259.1 869.674609375 363.875390625 869.65 512
M 742.75 742.75
Q 838.323828125 647.176953125 838.3 512 838.323828125 376.823046875 742.75 281.25 647.176953125 185.676171875 512 185.65 376.823046875 185.676171875 281.25 281.25 185.676171875 376.823046875 185.65 512 185.676171875 647.176953125 281.25 742.75 376.823046875 838.323828125 512 838.3 647.176953125 838.323828125 742.75 742.75
M 817.65 512
Q 817.676171875 638.623046875 728.15 728.15 638.623046875 817.676171875 512 817.65 385.376953125 817.676171875 295.85 728.15 206.323828125 638.623046875 206.3 512 206.323828125 385.376953125 295.85 295.85 385.376953125 206.323828125 512 206.3 638.623046875 206.323828125 728.15 295.85 817.676171875 385.376953125 817.65 512 Z"/>
</g>

<g id="Layer1_0_FILL">
<path fill="#0099FF" stroke="none" d="
M 471.55 364.15
Q 461.6822265625 358.9046875 451 362.2 418.45703125 372.1498046875 392.55 398.05 369.3341796875 421.26796875 358.95 449.75 355.09921875 460.2484375 359.8 470.4 364.5421875 480.5568359375 375 484.4 385.4513671875 488.2921875 395.6 483.55 405.7654296875 478.8607421875 409.65 468.4 416.265625 450.7322265625 430.75 436.25 446.84296875 420.15 466.95 413.8 477.6060546875 410.475390625 482.85 400.55 488.08828125 390.6744140625 484.75 380 481.4685546875 369.3861328125 471.55 364.15 Z"/>

<path fill="#FF6699" stroke="none" d="
M 662.35 576.75
Q 666.20078125 566.3013671875 661.45 556.15 656.7578125 545.9931640625 646.3 542.1 635.8486328125 538.2578125 625.7 542.95 615.534375 547.6892578125 611.65 558.1 605.034375 575.8177734375 590.55 590.3 574.45703125 606.3998046875 554.3 612.75 543.6939453125 616.074609375 538.45 625.95 533.21171875 635.8755859375 536.5 646.5 539.831640625 657.163671875 549.7 662.4 559.6177734375 667.6451171875 570.25 664.35 602.84296875 654.4 628.75 628.5 651.9658203125 605.28203125 662.35 576.75 Z"/>
</g>

<g id="Layer0_0_FILL">
<path fill="#FFFFFF" stroke="none" d="
M 481.25 415.25
Q 468 402 449.25 402 430.5 402 417.25 415.25 404 428.5 404 447.25 404 466 417.25 479.25 430.5 492.5 449.25 492.5 468 492.5 481.25 479.25 494.5 466 494.5 447.25 494.5 428.5 481.25 415.25 Z"/>
</g>
</defs>

<g transform="matrix( 1, 0, 0, 1, 0,0) ">
<use xlink:href="#Layer7_0_FILL"/>
</g>

<g transform="matrix( 1, 0, 0, 1, 0,0) ">
<use xlink:href="#Layer6_0_FILL"/>
</g>

<g transform="matrix( 1, 0, 0, 1, 0,0) ">
<use xlink:href="#Layer4_0_FILL"/>
</g>

<g transform="matrix( 1, 0, 0, 1, 0,0) ">
<use xlink:href="#Layer3_0_FILL"/>
</g>

<g transform="matrix( 1, 0, 0, 1, 0,0) ">
<use xlink:href="#Layer2_0_FILL"/>
</g>

<g transform="matrix( 1, 0, 0, 1, 0,0) ">
<use xlink:href="#Layer1_0_FILL"/>
</g>

<g transform="matrix( 1, 0, 0, 1, 0,0) ">
<use xlink:href="#Layer0_0_FILL"/>
</g>
</svg>
