<?xml version="1.0" encoding="utf-8"?>
<!-- Generator: flash2svg, http://dissentgraphics.com/tools/flash2svg -->
<svg xmlns:xlink="http://www.w3.org/1999/xlink" id="1Password" image-rendering="optimizeSpeed" baseProfile="basic" version="1.1" style="background-color:#ffffff" x="0px" y="0px" width="1024px" height="1024px" viewBox="0 0 1024 1024" enable-background="new 0 0 1024 1024" xmlns="http://www.w3.org/2000/svg">
  <defs transform="matrix(1 0 0 1 0 0) "/>
  <g id="shadow">
    <g id="shape">
      <path id="path" fill="#000000" fill-opacity="0.09803921568627451" d="M969.65,351.3 Q961.05,330.45 950.25,310.45 C946.2,302.9 941.9,295.4 937.35,288.05 917.8,256.35 893.95,226.4 865.8,198.25 773.65,106.1 662.35,60 532,60 401.65,60 290.4,106.1 198.25,198.25 106.1,290.4 60,401.65 60,532 60,662.35 106.1,773.65 198.25,865.8 290.4,957.95 401.65,1004 532,1004 662.35,1004 773.65,957.95 865.8,865.8 916.55,815 953.35,758.4 976.15,696.05 994.7,645.2 1004,590.55 1004,532 1004,487.1 998.55,444.45 987.6,404.05 986.35,399.5 985.05,394.95 983.7,390.45 979.6,377.15 974.9,364.1 969.65,351.3z"/>
    </g>
  </g>
  <g id="criclebg">
    <g id="shape2">
      <path id="path1" fill="#FFFFFF" fill-opacity="1" d="M855.7,188.4 C852.7,185.25 849.3,181.75 845.85,178.3 773.4,105.85 689.1,61.85 593.05,46.4 592.75,46.35 592.45,46.3 592.2,46.25 575.95,43.65 559.4,41.85 542.15,40.9 532.45,40.35 522.3,40.05 512.05,40.05 502.7,40.05 493.45,40.3 484.15,40.8 365.8,46.9 263.85,92.75 178.3,178.3 121.8,234.8 82.65,298.45 60.85,369 Q40.05,436.2 40.05,512.05 C40.05,642.4 86.15,753.7 178.3,845.85 181.7,849.25 185.15,852.6 188.4,855.7 233.95,898.85 283.7,931 337.4,952.15 343.85,954.75 350,957 356.2,959.1 396.7,972.95 439.25,981 484.15,983.35 484.3,983.35 484.4,983.35 484.55,983.35 493.05,983.8 501.15,984.05 509.05,984.05 510.25,984.05 511.15,984.05 512.05,984.05 522.35,984.05 532.55,983.75 542.15,983.25 544.65,983.1 546.9,982.95 549.1,982.8 569.3,981.35 589,978.75 607.8,975.1 615.75,973.55 623.6,971.8 631.2,969.95 695.9,953.7 754.55,924 807.35,880.8 820.6,869.9 833.4,858.3 845.85,845.85 894.45,797.25 930.25,743.35 953.2,684.05 957.15,673.8 960.75,663.4 963.95,652.9 975.65,614.25 982.25,573.5 983.75,530.55 983.95,524.5 984.05,518.3 984.05,512.05 984.05,511.4 984.05,510.7 984.05,510.05 984.05,509.7 984.05,509.4 984.05,509.05 983.85,468.4 979.1,429.55 969.75,392.05 968.65,387.7 967.4,383.05 966.1,378.45 963.85,370.6 961.35,362.65 958.55,354.65 958.25,353.9 957.95,353 957.65,352.1 951.2,333.85 943.5,316.05 934.5,298.45 930.7,291.05 926.55,283.5 922.2,276.05 904.2,245.45 882.1,216.3 855.7,188.4z"/>
    </g>
  </g>
  <g id="criclebg1">
    <g id="shape4">
      <path id="path2" fill="#FFFDFB" fill-opacity="1" d="M855.7,188.4 C852.7,185.25 849.3,181.75 845.85,178.3 773.4,105.85 689.1,61.85 593.05,46.4 592.75,46.35 592.45,46.3 592.2,46.25 575.95,43.65 559.4,41.85 542.15,40.9 532.45,40.35 522.3,40.05 512.05,40.05 502.7,40.05 493.45,40.3 484.15,40.8 365.8,46.9 263.85,92.75 178.3,178.3 121.8,234.8 82.65,298.45 60.85,369 Q40.05,436.2 40.05,512.05 C40.05,642.4 86.15,753.7 178.3,845.85 181.7,849.25 185.15,852.6 188.4,855.7 L224.325,819.775 L224.35,819.8 C221.15,816.8 217.65,813.4 214.15,809.9 131.9,727.65 90.8,628.4 90.8,512.1 90.8,395.75 131.9,296.45 214.15,214.2 296.4,131.95 395.7,90.85 512.05,90.85 628.4,90.85 727.65,131.95 809.9,214.2 813.35,217.65 816.75,221.15 819.75,224.35 L855.7,188.4z"/>
      <path id="path3" fill="#DFD5C9" fill-opacity="1" d="M966.1,378.45 C963.85,370.6 961.35,362.65 958.55,354.65 958.25,353.9 957.95,353 957.65,352.1 951.2,333.85 943.5,316.05 934.5,298.45 930.7,291.05 926.55,283.5 922.2,276.05 904.2,245.45 882.1,216.3 855.7,188.4 L819.75,224.35 C895.55,304.8 933.3,400.65 933.3,512.1 933.3,628.4 892.15,727.65 809.9,809.9 727.65,892.15 628.4,933.3 512.05,933.3 400.65,933.3 304.85,895.55 224.35,819.8 L224.325,819.775 L188.4,855.7 C233.95,898.85 283.7,931 337.4,952.15 343.85,954.75 350,957 356.2,959.1 396.7,972.95 439.25,981 484.15,983.35 484.3,983.35 484.4,983.35 484.55,983.35 493.05,983.8 501.15,984.05 509.05,984.05 510.25,984.05 511.15,984.05 512.05,984.05 522.35,984.05 532.55,983.75 542.15,983.25 544.65,983.1 546.9,982.95 549.1,982.8 569.3,981.35 589,978.75 607.8,975.1 615.75,973.55 623.6,971.8 631.2,969.95 695.9,953.7 754.55,924 807.35,880.8 820.6,869.9 833.4,858.3 845.85,845.85 894.45,797.25 930.25,743.35 953.2,684.05 957.15,673.8 960.75,663.4 963.95,652.9 975.65,614.25 982.25,573.5 983.75,530.55 983.95,524.5 984.05,518.3 984.05,512.05 984.05,511.4 984.05,510.7 984.05,510.05 984.05,509.7 984.05,509.4 984.05,509.05 983.85,468.4 979.1,429.55 969.75,392.05 968.65,387.7 967.4,383.05 966.1,378.45z M775.8,248.3 C779.2,251.7 782.55,255.15 785.65,258.45 L819.75,224.35 C816.75,221.15 813.35,217.65 809.9,214.2 727.65,131.95 628.4,90.85 512.05,90.85 395.7,90.85 296.4,131.95 214.15,214.2 131.9,296.45 90.8,395.75 90.8,512.1 90.8,628.4 131.9,727.65 214.15,809.9 217.65,813.4 221.15,816.8 224.35,819.8 L224.325,819.775 L258.45,785.675 L258.45,785.7 C255.1,782.55 251.65,779.2 248.25,775.8 175.4,703 139,615.1 139,512.1 139,409.05 175.4,321.15 248.25,248.3 321.1,175.45 409,139.05 512.05,139.05 615.1,139.05 703,175.45 775.8,248.3z M785.65,258.45 C852,329.4 885.1,413.9 885.1,512.1 885.1,615.1 848.65,703 775.8,775.8 703,848.65 615.1,885.1 512.05,885.1 413.85,885.1 329.35,852 258.45,785.7 255.1,782.55 251.65,779.2 248.25,775.8 175.4,703 139,615.1 139,512.1 139,409.05 175.4,321.15 248.25,248.3 321.1,175.45 409,139.05 512.05,139.05 615.1,139.05 703,175.45 775.8,248.3 779.2,251.7 782.55,255.15 785.65,258.45z"/>
      <path id="path9" fill="#DED5CA" fill-opacity="1" d="M707.6,336.55 C704.6,333.25 701.25,329.75 697.8,326.3 646.5,275.05 584.6,249.4 512.05,249.4 439.5,249.4 377.6,275.05 326.3,326.3 275,377.6 249.35,439.55 249.35,512.1 249.35,584.6 275,646.5 326.3,697.8 329.75,701.25 333.25,704.6 336.55,707.6 385.95,752.45 444.4,774.75 512.05,774.75 584.6,774.75 646.5,749.1 697.8,697.8 749.1,646.5 774.75,584.6 774.75,512.1 774.75,444.45 752.45,385.95 707.6,336.55z M631.65,392.45 C634.9,395.7 638,399.05 640.95,402.45 641.05,402.6 641.15,402.7 641.3,402.85 L641.275,402.825 L641.3,402.85 C667.95,434 681.15,470.25 681.15,512.05 681.15,558.75 664.65,598.6 631.65,631.65 598.6,664.65 558.75,681.15 512.05,681.15 470.35,681.15 434.15,668 402.85,641.3 L402.825,641.275 L402.85,641.3 C399.65,638.55 396,635.2 392.45,631.65 359.45,598.6 342.95,558.75 342.95,512.05 342.95,465.35 359.45,425.5 392.45,392.45 425.5,359.45 465.35,342.95 512.05,342.95 558.75,342.95 598.6,359.45 631.65,392.45z"/>
      <path id="path10" fill="#FFFDFB" fill-opacity="1" d="M631.65,392.45 C598.6,359.45 558.75,342.95 512.05,342.95 465.35,342.95 425.5,359.45 392.45,392.45 359.45,425.5 342.95,465.35 342.95,512.05 342.95,558.75 359.45,598.6 392.45,631.65 396,635.2 399.65,638.55 402.85,641.3 L402.825,641.275 L402.85,641.3 C434.15,668 470.35,681.15 512.05,681.15 558.75,681.15 598.6,664.65 631.65,631.65 664.65,598.6 681.15,558.75 681.15,512.05 681.15,470.25 667.95,434 641.3,402.85 L641.275,402.825 L641.3,402.85 C641.15,402.7 641.05,402.6 640.95,402.45 638,399.05 634.9,395.7 631.65,392.45z M819.75,224.35 L785.65,258.45 C852,329.4 885.1,413.9 885.1,512.1 885.1,615.1 848.65,703 775.8,775.8 703,848.65 615.1,885.1 512.05,885.1 413.85,885.1 329.35,852 258.45,785.7 L258.45,785.675 L224.325,819.775 L224.35,819.8 C304.85,895.55 400.65,933.3 512.05,933.3 628.4,933.3 727.65,892.15 809.9,809.9 892.15,727.65 933.3,628.4 933.3,512.1 933.3,400.65 895.55,304.8 819.75,224.35z"/>
    </g>
    <g id="Symbole.__2033_1" overflow="visible">
      <g id="Calque.__202">
        <g id="shape26">
          <path id="path20" fill="#53C4EF" fill-opacity="1" d="M785.6,258.4 C782.5,255.1 779.15,251.65 775.75,248.25 702.95,175.4 615.05,139 512,139 408.95,139 321.05,175.4 248.2,248.25 175.35,321.1 138.95,409 138.95,512.05 138.95,615.05 175.35,702.95 248.2,775.75 251.6,779.15 255.05,782.5 258.4,785.65 329.3,851.95 413.8,885.05 512,885.05 615.05,885.05 702.95,848.6 775.75,775.75 Q885.05,666.55 885.05,512.05 C885.05,413.85 851.95,329.35 785.6,258.4z M707.55,336.5 C752.4,385.9 774.7,444.4 774.7,512.05 774.7,584.55 749.05,646.45 697.75,697.75 646.45,749.05 584.55,774.7 512,774.7 444.35,774.7 385.9,752.4 336.5,707.55 333.2,704.55 329.7,701.2 326.25,697.75 274.95,646.45 249.3,584.55 249.3,512.05 249.3,439.5 274.95,377.55 326.25,326.25 377.55,275 439.45,249.35 512,249.35 584.55,249.35 646.45,275 697.75,326.25 701.2,329.7 704.55,333.2 707.55,336.5z"/>
        </g>
      </g>
    </g>
  </g>
  <g id="V">
    <g id="shape19">
      <path id="path15" fill="#333333" fill-opacity="1" d="M441.15,310.5 Q433.15,310.5 433.15,318.5 L433.15,405.05 490.05,447.05 433.15,496.05 433.15,705.6 C433.15,710.95 435.8,713.6 441.15,713.6 L582.95,713.6 C588.3,713.6 590.95,710.95 590.95,705.6 L590.95,662.075 534.2,613.2 590.95,571.3 590.95,318.5 C590.95,313.15 588.3,310.5 582.95,310.5 L441.15,310.5z"/>
    </g>
  </g>
</svg>