
<svg xmlns="http://www.w3.org/2000/svg" version="1.1" xmlns:xlink="http://www.w3.org/1999/xlink" preserveAspectRatio="none" x="0px" y="0px" width="1024px" height="1024px" viewBox="0 0 1024 1024">
<defs>
<g id="Layer5_0_FILL">
<path fill="#000000" fill-opacity="0.09803921568627451" stroke="none" d="
M 969.6 351.25
Q 961 330.4 950.2 310.4 944.1 299.05 937.3 288 907.95 240.45 865.75 198.2 727.5 59.95 531.95 59.95 336.45 59.95 198.2 198.2 59.95 336.45 59.95 531.95 59.95 727.5 198.2 865.75 336.45 1003.95 531.95 1003.95 727.5 1003.95 865.75 865.75 941.9 789.55 976.1 696 1003.95 619.75 1003.95 531.95 1003.95 464.6 987.55 404 985.7 397.15 983.65 390.4 977.5 370.45 969.6 351.25 Z"/>
</g>

<g id="Layer4_0_FILL">
<path fill="#CCCCCC" stroke="none" d="
M 962.85 367.85
Q 960.3787109375 359.903125 957.6 352.05 947.85 324.5 934.45 298.4 928.65 287.05 922.15 276 891.5 224 845.8 178.25 736.8 69.25 592.15 46.2 567.65 42.3 542.1 40.85 527.2 40 512 40 497.9 40 484.1 40.75 306.55 49.95 178.25 178.25 40 316.5 40 512 40 707.55 178.25 845.8 263.0400390625 930.55703125 369.35 963.35 423.8880859375 980.1630859375 484.1 983.3 484.3 983.3 484.5 983.3 496.65 983.9 509 984 510.5 984 512 984 527.25 984 542.1 983.2 545.6 983 549.05 982.75 579.1 980.6 607.75 975.05 619.55 972.75 631.15 969.9 751.75 939.85 845.8 845.8 918.7 772.85 953.15 684 980.9 612.4 983.7 530.5 984 521.3 984 512 984 511 984 510 984 509.5 984 509 983.65 447.7 969.7 392 967.95 385.15 966.05 378.4 964.52578125 373.114453125 962.85 367.85 Z"/>
</g>

<g id="Layer3_0_FILL">
<path fill="#000000" fill-opacity="0.09803921568627451" stroke="none" d="
M 969.7 392
Q 969.6484375 391.7982421875 969.6 391.6
L 794 216 226 704 341 819 293 841 429.45 977.45
Q 456.161328125 981.84453125 484.1 983.3 484.3 983.3 484.5 983.3 496.65 983.9 509 984 510.5 984 512 984 527.25 984 542.1 983.2 545.6 983 549.05 982.75 579.1 980.6 607.75 975.05 619.55 972.75 631.15 969.9 751.75 939.85 845.8 845.8 918.7 772.85 953.15 684 980.9 612.4 983.7 530.5 984 521.3 984 512 984 511 984 510 984 509.5 984 509 983.65 447.7 969.7 392 Z"/>
</g>

<g id="Layer2_0_FILL">
<path fill="#FFFFFF" stroke="none" d="
M 709 566
Q 709 553.6 700.2 544.8 691.4 536 679 536
L 343 536
Q 330.6 536 321.8 544.8 313 553.6 313 566
L 313 704
Q 313 716.4 321.8 725.2 330.6 734 343 734
L 679 734
Q 691.4 734 700.2 725.2 709 716.4 709 704
L 709 566 Z"/>
</g>

<g id="Layer0_0_FILL">
<path fill="#FFFFFF" stroke="none" d="
M 759.85 541
Q 759.7 541 759.5 541
L 266.5 541
Q 266.3 541 266.1 541 253.95 541.15 245.3 549.8 236.5 558.6 236.5 571
L 236.5 670
Q 236.5 682.4 245.3 691.2 254.1 700 266.5 700
L 759.5 700
Q 771.9 700 780.7 691.2 789.5 682.4 789.5 670
L 789.5 571
Q 789.5 558.6 780.7 549.8 772.05 541.15 759.85 541
M 716 621
L 722 621 716 621
M 303 621
L 647 621 303 621
M 780.7 390.8
Q 772.05 382.15 759.85 382
L 266.1 382
Q 253.95 382.15 245.3 390.8 236.5 399.6 236.5 412
L 236.5 511
Q 236.5 523.4 245.3 532.2 253.95 540.85 266.1 541 266.3 541 266.5 541
L 759.5 541
Q 759.7 541 759.85 541 772 540.9 780.7 532.2 789.5 523.4 789.5 511
L 789.5 412
Q 789.5 399.6 780.7 390.8
M 716 462
L 722 462 716 462
M 303 462
L 647 462 303 462
M 789.5 253
Q 789.5 240.6 780.7 231.8 771.9 223 759.5 223
L 266.5 223
Q 254.1 223 245.3 231.8 236.5 240.6 236.5 253
L 236.5 352
Q 236.5 364.4 245.3 373.2 253.95 381.85 266.1 382
L 759.85 382
Q 772.05 381.85 780.7 373.2 789.5 364.4 789.5 352
L 789.5 253
M 716 303
L 722 303 716 303
M 303 303
L 647 303 303 303 Z"/>
</g>

<path id="Layer2_0_1_STROKES" stroke="#333333" stroke-width="40" stroke-linejoin="round" stroke-linecap="round" fill="none" d="
M 343 536
L 679 536
Q 691.4 536 700.2 544.8 709 553.6 709 566
L 709 704
Q 709 716.4 700.2 725.2 691.4 734 679 734
L 343 734
Q 330.6 734 321.8 725.2 313 716.4 313 704
L 313 566
Q 313 553.6 321.8 544.8 330.6 536 343 536 Z
M 312 831.9
L 712 831.9
M 513 743.9
L 513 823.9"/>

<path id="Layer0_0_1_STROKES" stroke="#333333" stroke-width="40" stroke-linejoin="round" stroke-linecap="round" fill="none" d="
M 266.5 223
L 759.5 223
Q 771.9 223 780.7 231.8 789.5 240.6 789.5 253
L 789.5 352
Q 789.5 364.4 780.7 373.2 772.05 381.85 759.85 382 772.05 382.15 780.7 390.8 789.5 399.6 789.5 412
L 789.5 511
Q 789.5 523.4 780.7 532.2 772 540.9 759.85 541 772.05 541.15 780.7 549.8 789.5 558.6 789.5 571
L 789.5 670
Q 789.5 682.4 780.7 691.2 771.9 700 759.5 700
L 266.5 700
Q 254.1 700 245.3 691.2 236.5 682.4 236.5 670
L 236.5 571
Q 236.5 558.6 245.3 549.8 253.95 541.15 266.1 541 253.95 540.85 245.3 532.2 236.5 523.4 236.5 511
L 236.5 412
Q 236.5 399.6 245.3 390.8 253.95 382.15 266.1 382 253.95 381.85 245.3 373.2 236.5 364.4 236.5 352
L 236.5 253
Q 236.5 240.6 245.3 231.8 254.1 223 266.5 223 Z
M 716 303
L 722 303
M 716 462
L 722 462
M 759.85 541
Q 759.7 541 759.5 541
L 266.5 541
Q 266.3 541 266.1 541
M 716 621
L 722 621
M 303 303
L 647 303
M 303 621
L 647 621
M 303 462
L 647 462
M 266.1 382
L 759.85 382"/>
</defs>

<g transform="matrix( 1, 0, 0, 1, 0,0) ">
<use xlink:href="#Layer5_0_FILL"/>
</g>

<g transform="matrix( 1, 0, 0, 1, 0,0) ">
<use xlink:href="#Layer4_0_FILL"/>
</g>

<g transform="matrix( 1, 0, 0, 1, 0,0) ">
<use xlink:href="#Layer3_0_FILL"/>
</g>

<g transform="matrix( 1, 0, 0, 1, 0,0) ">
<use xlink:href="#Layer2_0_FILL"/>

<use xlink:href="#Layer2_0_1_STROKES"/>
</g>

<g transform="matrix( 1, 0, 0, 1, 0,0) ">
<use xlink:href="#Layer0_0_FILL"/>

<use xlink:href="#Layer0_0_1_STROKES"/>
</g>
</svg>
