<?xml version="1.0" encoding="utf-8"?>
<!-- Generator: flash2svg, http://dissentgraphics.com/tools/flash2svg -->
<svg xmlns:xlink="http://www.w3.org/1999/xlink" id="Warcraft-3-Reign-Of-Chaos" image-rendering="optimizeSpeed" baseProfile="basic" version="1.1" style="background-color:#ffffff" x="0px" y="0px" width="1024px" height="1024px" viewBox="0 0 1024 1024" enable-background="new 0 0 1024 1024" xmlns="http://www.w3.org/2000/svg">
  <defs transform="matrix(1 0 0 1 0 0) "/>
  <g id="shadow">
    <g id="shape">
      <path id="path" fill="#000000" fill-opacity="0.09803921568627451" d="M969.65,351.3 Q961.05,330.45 950.25,310.45 C946.2,302.9 941.9,295.4 937.35,288.05 917.8,256.35 893.95,226.4 865.8,198.25 773.65,106.1 662.35,60 532,60 401.65,60 290.4,106.1 198.25,198.25 106.1,290.4 60,401.65 60,532 60,662.35 106.1,773.65 198.25,865.8 290.4,957.95 401.65,1004 532,1004 662.35,1004 773.65,957.95 865.8,865.8 916.55,815 953.35,758.4 976.15,696.05 994.7,645.2 1004,590.55 1004,532 1004,487.1 998.55,444.45 987.6,404.05 986.35,399.5 985.05,394.95 983.7,390.45 979.6,377.15 974.9,364.1 969.65,351.3z"/>
    </g>
  </g>
  <g id="criclebg">
    <g id="shape2">
      <path id="path1" fill="#E4A769" fill-opacity="1" d="M820.5,223.65 C817.25,220.2 813.95,216.8 810.6,213.45 728.15,131 628.65,89.8 512.05,89.8 395.45,89.8 295.9,131 213.45,213.45 131,295.9 89.8,395.45 89.8,512.05 89.8,628.65 131,728.15 213.45,810.6 216.8,813.95 220.2,817.25 223.65,820.5 L223.625,820.475 L820.475,223.625 M943.25,316.5 C940.55,310.55 937.6,304.5 934.5,298.45 930.7,291.05 926.55,283.5 922.2,276.05 904.25,245.5 882.15,216.35 855.7,188.4 L820.475,223.625 L820.5,223.65 C896.35,304.1 934.3,400.2 934.3,512.05 934.3,628.65 893.05,728.15 810.6,810.6 728.15,893.05 628.65,934.3 512.05,934.3 400.2,934.3 304.1,896.35 223.65,820.5 L223.625,820.475 L188.4,855.7 C226.2,891.5 266.75,919.65 309.75,940.1 313.7,941.95 317.5,943.7 321.3,945.4 326.85,947.85 332.1,950.05 337.4,952.15 343.85,954.75 350,957 356.2,959.1 384.8,968.9 414.4,975.8 444.6,979.75 446.5,980 448.15,980.2 449.8,980.4 461.3,981.8 472.65,982.75 484.15,983.35 484.3,983.35 484.4,983.35 484.55,983.35 493.05,983.8 501.15,984.05 509.05,984.05 510.25,984.05 511.15,984.05 512.05,984.05 521.8,984.05 531.4,983.8 540.85,983.35 541.3,983.3 541.7,983.3 542.15,983.25 544.65,983.1 546.9,982.95 549.1,982.8 559.4,982.05 569.55,981.05 579.45,979.75 587.25,978.7 594.9,977.5 602.4,976.15 604.3,975.8 606.05,975.45 607.8,975.1 615.75,973.55 623.6,971.8 631.2,969.95 660.1,962.7 687.8,952.75 714.3,940.2 721.3,936.8 728.15,933.3 734.95,929.65 760.15,915.95 784.3,899.65 807.35,880.8 820.6,869.9 833.4,858.3 845.85,845.85 846.95,844.75 848.05,843.65 849.15,842.55 849.8,841.9 850.4,841.25 851.05,840.6 873.65,817.35 893.25,793.1 909.95,767.7 927.5,741.15 941.9,713.25 953.2,684.05 957.15,673.8 960.75,663.4 963.95,652.9 975.65,614.25 982.25,573.5 983.75,530.55 983.95,524.5 984.05,518.3 984.05,512.05 984.05,511.4 984.05,510.7 984.05,510.05 984.05,509.7 984.05,509.4 984.05,509.05 983.85,468.4 979.1,429.55 969.75,392.05 968.65,387.7 967.4,383.05 966.1,378.45 963.85,370.6 961.35,362.65 958.55,354.65 958.25,353.9 957.95,353 957.65,352.1 953.4,340.1 948.65,328.3 943.25,316.5z"/>
      <path id="path2" fill="#FDF08B" fill-opacity="1" d="M934.3,512.05 C934.3,400.2 896.35,304.1 820.5,223.65 L820.475,223.625 L223.625,820.475 L223.65,820.5 C304.1,896.35 400.2,934.3 512.05,934.3 628.65,934.3 728.15,893.05 810.6,810.6 893.05,728.15 934.3,628.65 934.3,512.05z M849.15,181.65 C848.05,180.5 846.95,179.4 845.85,178.3 811.5,143.95 774.55,116.05 734.95,94.55 728.25,90.9 721.5,87.45 714.3,84 679.25,67.25 641.8,55.15 602.4,48 599.3,47.45 596.2,46.9 593.05,46.4 592.75,46.35 592.45,46.3 592.2,46.25 588,45.6 583.8,45 579.45,44.4 575.4,43.9 571.25,43.4 567.05,42.95 563.45,42.55 559.85,42.2 556.05,41.9 551.6,41.5 546.9,41.15 542.15,40.9 541.7,40.85 541.3,40.85 540.85,40.85 531.35,40.3 521.75,40.05 512.05,40.05 502.7,40.05 493.45,40.3 484.15,40.8 482.45,40.9 480.75,41 479.05,41.1 475.4,41.3 471.75,41.55 468.05,41.9 461.95,42.4 455.85,43 449.8,43.75 448,43.95 446.25,44.15 444.6,44.4 401,50.15 359.9,61.6 321.3,78.75 317.45,80.45 313.6,82.2 309.75,84.05 262.25,106.7 218.5,138.1 178.3,178.3 177.75,178.85 177.25,179.35 176.75,179.85 176.1,180.5 175.5,181.1 174.9,181.75 134.45,222.9 103.15,267.8 80.9,316.5 73.05,333.65 66.4,351.1 60.85,369 Q40.05,436.2 40.05,512.05 C40.05,640.8 85,750.95 174.9,842.45 175.5,843.05 176.1,843.65 176.75,844.3 177.25,844.8 177.75,845.3 178.3,845.85 181.75,849.3 185.2,852.65 188.4,855.7 L223.625,820.475 L223.65,820.5 C220.2,817.25 216.8,813.95 213.45,810.6 131,728.15 89.8,628.65 89.8,512.05 89.8,395.45 131,295.9 213.45,213.45 295.9,131 395.45,89.8 512.05,89.8 628.65,89.8 728.15,131 810.6,213.45 813.95,216.8 817.25,220.2 820.5,223.65 L820.475,223.625 L855.7,188.4 C854.25,186.9 852.65,185.25 851.05,183.6 850.4,182.95 849.8,182.3 849.15,181.65z"/>
    </g>
  </g>
  <g id="Calque.__201">
    <g id="Symbole.__2037_1" overflow="visible">
      <g id="Calque.__205">
        <g id="shape36">
          <path id="path29" fill="#414504" fill-opacity="1" d="M777.85,246.1 Q737.75,206 691.55,180.5 C637.85,150.85 578,136 512,136 408.15,136 319.55,172.7 246.1,246.1 172.7,319.55 136,408.15 136,512 136,595.85 159.95,669.75 207.8,733.8 219.2,749.05 231.95,763.7 246.1,777.85 319.55,851.3 408.15,888 512,888 615.85,888 704.45,851.3 777.85,777.85 851.3,704.45 888,615.85 888,512 888,408.15 851.3,319.55 777.85,246.1z"/>
        </g>
      </g>
    </g>
  </g>
  <g id="Calque.__202">
    <g id="shape10">
      <path id="path7" fill="#000000" fill-opacity="0.2" d="M888.05,512.05 Q888.05,472.438 880.925,435.775 L733.1,287.95 619.05,396.65 512.05,289.65 484.05,384.05 388.05,288.05 381.05,731.9 536.5,887.35 C629.85,882 710.35,845.5 777.9,777.9 851.35,704.5 888.05,615.9 888.05,512.05z"/>
    </g>
  </g>
  <g id="Calque.__203">
    <g id="shape12">
      <path id="path8" fill="#FFFFFF" fill-opacity="1" d="M677.3,321.8 L678.3,321.2 733.1,288.7 635.55,288.7 677.3,321.8z M346,321.8 L346.25,321.6 388.55,288.7 291,288.7 346,321.8z M418.45,703.55 L418.4,704.05 418.5,703.75 418.45,703.55z"/>
      <path id="path9" fill="#FDF08B" fill-opacity="1" d="M678.3,321.2 L677.3,321.8 635.55,288.7 588.3,555.55 598.1,702 512.3,381.8 511.05,386.1 511.05,532.65 512.05,528.25 559.2,736.15 598.25,704.1 598.5,703.9 598.6,703.8 678.3,321.2z M346.25,321.6 L346,321.8 291,288.7 382.5,736.15 418.5,704.1 418.55,704.05 418.5,703.75 418.4,704.05 418.45,703.55 346.25,321.6z M511.05,386.1 L511.05,291.45 436.05,555.05 418.45,703.55 418.5,703.75 511.05,386.1z"/>
      <path id="path10" fill="#E4A769" fill-opacity="1" d="M733.1,288.7 L678.3,321.2 598.6,703.8 598.5,703.9 641.6,736.15 733.1,288.7z M388.55,288.7 L346.25,321.6 418.45,703.55 436.05,555.05 388.55,288.7z M512.05,287.95 L511.05,291.45 511.05,386.1 512.3,381.8 598.1,702 588.3,555.55 512.05,287.95z M418.5,703.75 L418.55,704.05 418.5,704.1 464.9,736.15 511.05,532.65 511.05,386.1 418.5,703.75z"/>
      <path id="path25" fill="#B97D3E" fill-opacity="1" d="M464.9,736.15 L418.5,704.1 382.5,736.15 464.9,736.15z M598.5,703.9 L598.25,704.1 559.2,736.15 641.6,736.15 598.5,703.9z"/>
    </g>
  </g>
</svg>