<?xml version="1.0" encoding="utf-8"?>
<!-- Generator: flash2svg, http://dissentgraphics.com/tools/flash2svg -->
<svg id="Apps-Spark" image-rendering="optimizeSpeed" baseProfile="basic" version="1.1" style="background-color:#FFFFFF" x="0px" y="0px" width="1024px" height="1024px" viewBox="0 0 1024 1024" enable-background="new 0 0 1024 1024" xmlns="http://www.w3.org/2000/svg" xmlns:xlink="http://www.w3.org/1999/xlink">
  <defs transform="matrix(1 0 0 1 0 0) "/>
  <g id="background-circle-shadow">
    <g id="shape">
      <path id="path" fill="#000000" fill-opacity="0.09803921568627451" d="M969.6,351.25 Q961,330.4 950.2,310.4 C946.15,302.85 941.85,295.35 937.3,288 917.75,256.3 893.9,226.35 865.75,198.2 773.6,106.05 662.3,59.95 531.95,59.95 401.6,59.95 290.35,106.05 198.2,198.2 106.05,290.35 59.95,401.6 59.95,531.95 59.95,662.3 106.05,773.6 198.2,865.75 290.35,957.9 401.6,1003.95 531.95,1003.95 662.3,1003.95 773.6,957.9 865.75,865.75 916.5,814.95 953.3,758.35 976.1,696 994.65,645.15 1003.95,590.5 1003.95,531.95 1003.95,487.05 998.5,444.4 987.55,404 986.3,399.45 985,394.9 983.65,390.4 979.55,377.1 974.85,364.05 969.6,351.25z"/>
    </g>
  </g>
  <g id="background-circle">
    <g id="shape2">
      <path id="path1" fill="#4B69D7" fill-opacity="1" d="M966.05,378.4 C965.05,375 964.05,371.55 962.9,367.9 961.3,362.75 959.5,357.4 957.6,352.05 951.15,333.8 943.45,316 934.45,298.4 930.65,291 926.5,283.45 922.15,276 901.85,241.5 876.35,208.8 845.8,178.25 773.2,105.65 688.65,61.6 592.15,46.2 575.9,43.6 559.35,41.8 542.1,40.85 532.4,40.3 522.25,40 512,40 502.65,40 493.4,40.25 484.1,40.75 365.75,46.85 263.8,92.7 178.25,178.25 Q40,316.5 40,512 C40,642.35 86.1,753.65 178.25,845.8 234.95,902.45 298.8,941.7 369.35,963.35 406.1,974.6 444.15,981.2 484.1,983.3 484.25,983.3 484.35,983.3 484.5,983.3 493,983.75 501.1,984 509,984 510.2,984 511.1,984 512,984 522.3,984 532.5,983.7 542.1,983.2 544.6,983.05 546.85,982.9 549.05,982.75 569.25,981.3 588.95,978.7 607.75,975.05 615.7,973.5 623.55,971.75 631.15,969.9 711.95,949.6 783.3,908.3 845.8,845.8 894.4,797.2 930.2,743.3 953.15,684 971.6,636.35 981.8,585.2 983.7,530.5 983.9,524.45 984,518.25 984,512 984,511.35 984,510.65 984,510 984,509.65 984,509.35 984,509 983.8,468.35 979.05,429.5 969.7,392 968.6,387.65 967.35,383 966.05,378.4z"/>
    </g>
  </g>
  <g id="object-shadow">
    <g id="shape4">
      <path id="path2" fill="#000000" fill-opacity="0.2" d="M953.15,684 C962.9,658.85 970.35,632.75 975.5,605.7 L975.475,605.675 L516.5,146.7 229.85,777.95 429.325,977.425 L429.35,977.45 C447.35,980.35 465.55,982.3 484.1,983.3 484.25,983.3 484.35,983.3 484.5,983.3 493,983.75 501.1,984 509,984 Q510.5,984 512,984 C522.3,984 532.5,983.7 542.1,983.2 544.6,983.05 546.85,982.9 549.05,982.75 569.25,981.3 588.95,978.7 607.75,975.05 615.7,973.5 623.55,971.75 631.15,969.9 711.95,949.6 783.3,908.3 845.8,845.8 894.4,797.2 930.2,743.3 953.15,684z"/>
    </g>
  </g>
  <g id="Calque.__201">
    <g id="shape6">
      <path id="path3" fill="#FFFFFF" fill-opacity="1" d="M791.85,778.5 C792.3,778.6 792.7,778.65 793.15,778.65 L793.2,778.65 C793.35,778.65 793.45,778.65 793.55,778.65 794.05,778.6 794.5,778.55 794.95,778.4 794.95,778.35 794.95,778.35 795,778.35 795.05,778.3 795.15,778.3 795.2,778.25 795.65,778 796.1,777.7 796.5,777.3 797.4,776.4 797.85,775.3 797.85,774.05 L515.2,142.85 C515,142.6 514.75,142.3 514.5,142.05 513.85,141.4 513.1,140.95 512.25,140.8 512.15,140.8 512.05,140.8 512,140.8 L567.2,632 791.65,778.45 C791.7,778.45 791.8,778.45 791.85,778.5z M510.9,140.7 C510.75,140.7 510.6,140.7 510.45,140.75 L455.2,632 511.2,749.75 511.2,140.7 511.15,140.7 C511.1,140.7 511,140.7 510.9,140.7z"/>
      <path id="path4" fill="#E4E6EB" fill-opacity="1" d="M511.95,140.8 C511.8,140.75 511.65,140.75 511.55,140.75 511.45,140.7 511.35,140.7 511.2,140.7 L511.2,749.75 567.2,632 512,140.8 511.95,140.8z M510.4,140.75 C509.7,140.9 509.05,141.15 508.5,141.55 508.3,141.7 508.1,141.85 507.9,142.05 507.65,142.3 507.4,142.6 507.2,142.95 L225,773.1 C224.95,773.4 224.9,773.7 224.9,774 224.9,774.15 224.9,774.3 224.95,774.45 225,775.55 225.45,776.5 226.25,777.3 226.7,777.75 227.2,778.1 227.75,778.35 L227.8,778.4 C227.95,778.45 228.05,778.45 228.2,778.5 228.65,778.6 229.05,778.65 229.5,778.65 L229.55,778.65 C229.7,778.65 229.8,778.65 229.9,778.65 230.15,778.65 230.35,778.65 230.6,778.6 L455.2,632 510.45,140.75 510.4,140.75z"/>
    </g>
  </g>
</svg>