<?xml version="1.0" encoding="utf-8"?>
<!-- Generator: flash2svg, http://dissentgraphics.com/tools/flash2svg -->
<svg xmlns:xlink="http://www.w3.org/1999/xlink" id="Apps-Safari" image-rendering="optimizeSpeed" baseProfile="basic" version="1.1" style="background-color:#ffffff" x="0px" y="0px" width="1024px" height="1024px" viewBox="0 0 1024 1024" enable-background="new 0 0 1024 1024" xmlns="http://www.w3.org/2000/svg">
  <defs transform="matrix(1 0 0 1 0 0) "/>
  <g id="shadow">
    <g id="shape">
      <path id="path" fill="#000000" fill-opacity="0.09803921568627451" d="M969.65,351.3 Q961.05,330.45 950.25,310.45 C946.2,302.9 941.9,295.4 937.35,288.05 917.8,256.35 893.95,226.4 865.8,198.25 773.65,106.1 662.35,60 532,60 401.65,60 290.4,106.1 198.25,198.25 106.1,290.4 60,401.65 60,532 60,662.35 106.1,773.65 198.25,865.8 290.4,957.95 401.65,1004 532,1004 662.35,1004 773.65,957.95 865.8,865.8 916.55,815 953.35,758.4 976.15,696.05 994.7,645.2 1004,590.55 1004,532 1004,487.1 998.55,444.45 987.6,404.05 986.35,399.5 985.05,394.95 983.7,390.45 979.6,377.15 974.9,364.1 969.65,351.3z"/>
    </g>
  </g>
  <g id="circle">
    <g id="shape2">
      <path id="path1" fill="#49C7EF" fill-opacity="1" d="M981.85,574.65 C984.75,552.8 986.2,530.2 986.2,507 986.2,376 939.85,264.2 847.25,171.45 754.65,78.85 642.7,32.5 511.7,32.5 380.7,32.5 268.75,78.85 176.15,171.45 83.55,264.1 37.15,376 37.15,507 37.15,638.05 83.55,749.95 176.15,842.55 268.75,935.2 380.7,981.55 511.7,981.55 534.5,981.55 556.75,980.15 578.45,977.35 Q732.65,957.15 847.25,842.55 C923.45,766.35 968.3,677.05 981.85,574.65z"/>
    </g>
  </g>
  <g id="ico-shadow">
    <g id="shape4">
      <path id="path2" fill="#F3F3F3" fill-opacity="1" d="M701.6,322.45 C697.9,318.75 694.15,315.15 690,311.4 645.85,271.6 594.1,249.3 534.45,244.8 L534.425,244.775 L512.35,172.05 489.8,244.75 C430.25,249.1 377.9,271.65 333.1,312.35 L333.075,312.325 L288.7,288.6 312.175,333.225 L312.2,333.25 C271.65,377.9 249.2,430.05 244.8,489.55 L244.775,489.525 L171.05,511.9 244.8,534.775 L244.8,534.8 C249.35,594.2 271.7,646 311.6,690.15 315.25,694.25 318.8,697.95 322.45,701.6 325.8,704.95 329.2,708.2 332.5,711.2 377.2,751.9 429.15,774.6 488.4,779.25 L488.4,779.225 L511.75,856.2 535.625,779.225 L535.65,779.25 C594.5,774.55 645.9,752.35 690.25,712.45 L736.4,737.1 712,690.75 Q772.288,624.203 779.25,535.55 L855.2,512.5 779.275,488.95 L779.3,488.95 C774.8,429.85 752.35,377.95 711.7,333 708.6,329.65 705.15,326 701.6,322.45z M672.7,672.7 C628.35,717.05 574.8,739.25 512.05,739.25 449.3,739.25 395.7,717.05 351.35,672.7 307,628.35 284.85,574.8 284.85,512.05 284.85,449.3 307,395.75 351.35,351.4 L351.4,351.35 C395.75,307 449.3,284.85 512.05,284.85 574.8,284.85 628.35,307 672.7,351.35 717.05,395.7 739.25,449.3 739.25,512.05 739.25,574.8 717.05,628.35 672.7,672.7z"/>
    </g>
  </g>
  <g id="circle1">
    <g id="shape9">
      <path id="path6" fill="#000000" fill-opacity="0.09803921568627451" d="M981.85,574.65 C982.65,568.5 983.35,562.3 983.95,555.95 L726.05,298.05 494.05,478.15 292.05,732.05 540.775,980.775 L540.8,980.8 C553.6,980.1 566.1,978.95 578.45,977.35 Q732.65,957.15 847.25,842.55 C923.45,766.35 968.3,677.05 981.85,574.65z"/>
    </g>
  </g>
  <g id="ico">
    <g id="Symbole.__204_1" overflow="visible">
      <g id="Calque.__204">
        <g id="shape22">
          <path id="path15" fill="#A02E27" fill-opacity="1" d="M523.63,503.747 C526.246,506.434 527.519,509.616 527.519,513.293 527.519,516.757 526.352,519.763 524.09,522.238 524.019,522.308 523.948,522.379 523.842,522.485 523.771,522.556 523.701,522.626 523.665,522.662 523.17,523.228 522.675,523.652 522.11,524.005 L546.858,548.824 730.843,296.529 523.63,503.747z"/>
          <path id="path16" fill="#E8E8E8" fill-opacity="1" d="M522.11,524.005 C521.933,524.111 521.792,524.253 521.615,524.359 519.423,525.915 516.877,526.692 514.084,526.728 511.963,526.728 509.983,526.233 508.251,525.42 506.942,524.748 505.74,523.829 504.644,522.733 L292.234,735.148 546.858,548.824 522.11,524.005z"/>
          <path id="path17" fill="#BF3A31" fill-opacity="1" d="M523.63,503.747 L730.843,296.529 474.804,476.913 503.23,505.338 C503.619,504.737 504.008,504.277 504.538,503.747 507.26,501.166 510.372,499.893 514.084,499.929 517.831,499.929 521.013,501.201 523.63,503.747z"/>
          <path id="path18" fill="#F6F6F6" fill-opacity="1" d="M504.644,522.733 C504.609,522.697 504.609,522.697 504.574,522.662 501.993,520.081 500.685,516.935 500.684,513.258 500.684,510.217 501.533,507.601 503.23,505.338 L474.804,476.913 292.234,735.148 504.644,522.733z"/>
        </g>
      </g>
    </g>
  </g>
  <g id="Calque.__202">
    <g id="shape11">
      <path id="path7" fill="#FFFFFF" fill-opacity="1" d="M535.45,512.05 Q535.45,502.35 528.6,495.5 C524.05,490.95 518.5,488.65 512.05,488.65 505.6,488.65 500.05,490.95 495.5,495.5 490.95,500.05 488.65,505.6 488.65,512.05 488.65,518.5 490.95,524.05 495.5,528.6 500.05,533.15 505.6,535.45 512.05,535.45 518.5,535.45 524.05,533.15 528.6,528.6 533.15,524.05 535.45,518.5 535.45,512.05z"/>
    </g>
  </g>
</svg>