<?xml version="1.0" encoding="utf-8"?>
<!-- Generator: flash2svg, http://dissentgraphics.com/tools/flash2svg -->
<svg xmlns:xlink="http://www.w3.org/1999/xlink" id="Apps-MampPro" image-rendering="optimizeSpeed" baseProfile="basic" version="1.1" style="background-color:#ffffff" x="0px" y="0px" width="1024px" height="1024px" viewBox="0 0 1024 1024" enable-background="new 0 0 1024 1024" xmlns="http://www.w3.org/2000/svg">
  <defs transform="matrix(1 0 0 1 0 0) "/>
  <g id="shadow">
    <g id="shape">
      <path id="path" fill="#000000" fill-opacity="0.09803921568627451" d="M969.65,351.3 Q961.05,330.45 950.25,310.45 C946.2,302.9 941.9,295.4 937.35,288.05 917.8,256.35 893.95,226.4 865.8,198.25 773.65,106.1 662.35,60 532,60 401.65,60 290.4,106.1 198.25,198.25 106.1,290.4 60,401.65 60,532 60,662.35 106.1,773.65 198.25,865.8 290.4,957.95 401.65,1004 532,1004 662.35,1004 773.65,957.95 865.8,865.8 916.55,815 953.35,758.4 976.15,696.05 994.7,645.2 1004,590.55 1004,532 1004,487.1 998.55,444.45 987.6,404.05 986.35,399.5 985.05,394.95 983.7,390.45 979.6,377.15 974.9,364.1 969.65,351.3z"/>
    </g>
  </g>
  <g id="Calque.__203">
    <g id="shape2">
      <path id="path1" fill="#177BB1" fill-opacity="1" d="M674.05,68.65 C667.05,66.05 660.05,63.6 652.75,61.2 617.95,49.9 582.8,42.75 547.6,40 479.25,34.5 410.75,45.1 341.75,71.8 340.8,72.2 339.75,72.6 338.7,73 315.25,82.3 293.05,92.9 272.1,104.9 230.8,128.6 194.5,157.55 163.6,191.6 152.4,203.9 141.9,216.85 132.15,230.3 L132.125,230.3 Q101.326,272.805 79.05,324.15 C62.85,361.5 51.5,399 45.2,435.7 43.5,445.35 42.2,454.6 41.2,463.8 40.75,468.25 40.35,472.4 40,476.55 38,500.95 38.1,525.4 40.25,549.6 42.1,570.55 45.4,591.3 50.15,612.05 50.2,612.2 50.2,612.4 50.25,612.55 55.95,637.1 63.5,661.3 73,685.4 100.7,755.35 140.25,813.8 191.55,860.5 192.85,861.65 194.15,862.8 195.2,863.8 225.9,891.15 260.4,914.15 298.85,933.3 299,933.35 299.1,933.4 299.2,933.45 302.3,935 305.3,936.45 307.85,937.6 312.75,939.95 317.1,941.95 321.45,943.85 322.55,944.3 323.35,944.7 324.2,945.05 333.65,949.15 343.1,952.9 352.1,956.25 354.45,957.1 356.6,957.9 358.7,958.65 359.05,958.8 359.4,958.9 359.75,959.05 378.3,965.5 396.95,970.8 415.6,974.95 423.5,976.65 431.4,978.2 439.1,979.5 440.05,979.7 441.05,979.8 441.8,979.95 453.45,981.8 465,983.2 476.55,984.15 546.35,989.6 615.75,978.6 685.4,951.1 695.6,947.1 705.55,942.85 715,938.4 728.7,932.05 741.7,925.25 754.2,917.95 789.3,897.6 820.65,873.45 848.3,845.45 848.85,844.9 849.45,844.3 850,843.75 853.55,840.05 857.1,836.3 860.55,832.55 868.95,823.3 877.05,813.6 884.8,803.45 904.85,777.3 922.35,748.35 937.4,716.75 940,711.25 942.55,705.65 945.05,699.9 945.3,699.3 945.6,698.65 945.85,698.05 946,697.75 946.1,697.45 946.25,697.15 949.05,690.55 951.7,683.9 954.35,677.15 962.45,655.8 969.05,634.25 974.15,612.3 976.25,603.05 978.15,593.6 979.7,584.1 980.4,579.7 981.1,574.95 981.8,570.2 982.7,562.85 983.55,555.35 984.15,547.6 984.15,547.45 984.15,547.35 984.2,547.25 984.25,545.7 984.4,544.2 984.55,542.65 985.85,523.35 985.85,503.95 984.65,484.25 984.2,477.85 983.65,471.35 982.95,464.65 982.9,464.25 982.85,463.85 982.8,463.5 982.65,461.95 982.45,460.35 982.25,458.8 980.25,442.4 977.3,425.95 973.3,409.1 967.85,385.95 960.45,362.35 951.1,338.7 931.55,289.25 906.05,245.55 874.2,207.2 861.5,191.95 847.5,177.3 832.5,163.6 813.75,146.5 793.15,130.8 770.95,116.65 757.1,107.75 742.65,99.55 727.2,91.75 718.5,87.4 709.35,83.1 699.95,79.05 691.35,75.3 682.8,71.85 674.05,68.65z"/>
    </g>
  </g>
  <g id="Calque.__204">
    <g id="shape4">
      <path id="path2" fill="#000000" fill-opacity="0.2" d="M937.4,716.75 C940,711.25 942.55,705.65 945.05,699.9 945.3,699.3 945.6,698.65 945.85,698.05 946,697.75 946.1,697.45 946.25,697.15 949.05,690.55 951.7,683.9 954.35,677.15 962.45,655.8 969.05,634.25 974.15,612.3 976.25,603.05 978.15,593.6 979.7,584.1 980.4,579.7 981.1,574.95 981.8,570.2 982.7,562.85 983.55,555.35 984.15,547.6 984.15,547.45 984.15,547.35 984.2,547.25 984.25,545.7 984.4,544.2 984.55,542.65 985.85,523.35 985.85,503.95 984.65,484.25 984.2,477.85 983.65,471.35 982.95,464.65 982.9,464.25 982.85,463.85 982.8,463.5 982.65,461.95 982.45,460.35 982.25,458.8 981.95,456.5 981.65,454.2 981.3,451.7 L821.2,291.6 175.9,799.05 320.1,943.25 C320.55,943.45 321,943.65 321.45,943.85 Q322.8,944.45 324.2,945.05 C333.65,949.15 343.1,952.9 352.1,956.25 354.45,957.1 356.6,957.9 358.7,958.65 359.05,958.8 359.4,958.9 359.75,959.05 378.3,965.5 396.95,970.8 415.6,974.95 423.5,976.65 431.4,978.2 439.1,979.5 440.05,979.7 441.05,979.8 441.8,979.95 453.45,981.8 465,983.2 476.55,984.15 546.35,989.6 615.75,978.6 685.4,951.1 695.6,947.1 705.55,942.85 715,938.4 728.7,932.05 741.7,925.25 754.2,917.95 789.3,897.6 820.65,873.45 848.3,845.45 848.85,844.9 849.45,844.3 850,843.75 853.55,840.05 857.1,836.3 860.55,832.55 868.95,823.3 877.05,813.6 884.8,803.45 904.85,777.3 922.35,748.35 937.4,716.75z"/>
    </g>
  </g>
  <g id="Calque.__205">
    <g id="shape6">
      <path id="path3" fill="#545454" fill-opacity="1" d="M811.95,705.85 L811.95,664.85 C811.95,640.6 803.4,619.9 786.25,602.75 769.1,585.6 748.4,577.05 724.15,577.05 L283.7,577.05 C259.45,577.05 238.75,585.6 221.6,602.75 204.45,619.9 195.9,640.6 195.9,664.85 L195.9,705.85 C195.9,730.1 204.45,750.8 221.6,767.9 238.75,785.05 259.45,793.65 283.7,793.65 L724.15,793.65 C748.4,793.65 769.1,785.05 786.25,767.9 803.4,750.8 811.95,730.1 811.95,705.85z"/>
    </g>
  </g>
  <g id="Calque.__206">
    <g id="shape8">
      <path id="path4" fill="#545454" fill-opacity="1" d="M650.85,260 Q651.85,261.1 652.75,262.2 C683,297.05 698.1,338.25 698.1,385.6 L698.1,470.55 C698.6,471.2 699.2,471.8 699.7,472.5 705.25,479.4 710.05,486.6 714.05,494.1 716.15,497.9 718,501.75 719.65,505.65 723.35,514.3 726.1,523.3 727.95,532.75 728.7,534.9 729.4,537.2 730.15,539.4 734.15,551.4 738.3,563.3 742.8,574.95 764.4,631.95 791.5,685.4 824,735.2 836.85,720.4 846,697.55 851.45,666.6 853.85,653.05 855.35,623.65 856,578.45 856.55,542.95 854.9,503.5 851,460.15 L650.85,260z"/>
      <path id="path5" fill="#666666" fill-opacity="1" d="M762.55,260 L650.85,260 851,460.15 C843.1,371.3 827.9,291.85 819.7,283.65 803.9,267.85 784.85,260 762.55,260z"/>
    </g>
  </g>
  <mask id="Calque.__208">
    <g id="g">
      <g id="shape21">
        <path id="path13" fill="#FFFFFF" fill-opacity="1" d="M674.05,68.65 C667.05,66.05 660.05,63.6 652.75,61.2 617.95,49.9 582.8,42.75 547.6,40 479.25,34.5 410.75,45.1 341.75,71.8 340.8,72.2 339.75,72.6 338.7,73 315.25,82.3 293.05,92.9 272.1,104.9 230.8,128.6 194.5,157.55 163.6,191.6 152.4,203.9 141.9,216.85 132.15,230.3 L132.125,230.3 Q101.326,272.805 79.05,324.15 C62.85,361.5 51.5,399 45.2,435.7 43.5,445.35 42.2,454.6 41.2,463.8 40.75,468.25 40.35,472.4 40,476.55 38,500.95 38.1,525.4 40.25,549.6 42.1,570.55 45.4,591.3 50.15,612.05 50.2,612.2 50.2,612.4 50.25,612.55 55.95,637.1 63.5,661.3 73,685.4 100.7,755.35 140.25,813.8 191.55,860.5 192.85,861.65 194.15,862.8 195.2,863.8 225.9,891.15 260.4,914.15 298.85,933.3 299,933.35 299.1,933.4 299.2,933.45 302.3,935 305.3,936.45 307.85,937.6 312.75,939.95 317.1,941.95 321.45,943.85 322.55,944.3 323.35,944.7 324.2,945.05 333.65,949.15 343.1,952.9 352.1,956.25 354.45,957.1 356.6,957.9 358.7,958.65 359.05,958.8 359.4,958.9 359.75,959.05 378.3,965.5 396.95,970.8 415.6,974.95 423.5,976.65 431.4,978.2 439.1,979.5 440.05,979.7 441.05,979.8 441.8,979.95 453.45,981.8 465,983.2 476.55,984.15 546.35,989.6 615.75,978.6 685.4,951.1 695.6,947.1 705.55,942.85 715,938.4 728.7,932.05 741.7,925.25 754.2,917.95 789.3,897.6 820.65,873.45 848.3,845.45 848.85,844.9 849.45,844.3 850,843.75 853.55,840.05 857.1,836.3 860.55,832.55 868.95,823.3 877.05,813.6 884.8,803.45 904.85,777.3 922.35,748.35 937.4,716.75 940,711.25 942.55,705.65 945.05,699.9 945.3,699.3 945.6,698.65 945.85,698.05 946,697.75 946.1,697.45 946.25,697.15 949.05,690.55 951.7,683.9 954.35,677.15 962.45,655.8 969.05,634.25 974.15,612.3 976.25,603.05 978.15,593.6 979.7,584.1 980.4,579.7 981.1,574.95 981.8,570.2 982.7,562.85 983.55,555.35 984.15,547.6 984.15,547.45 984.15,547.35 984.2,547.25 984.25,545.7 984.4,544.2 984.55,542.65 985.85,523.35 985.85,503.95 984.65,484.25 984.2,477.85 983.65,471.35 982.95,464.65 982.9,464.25 982.85,463.85 982.8,463.5 982.65,461.95 982.45,460.35 982.25,458.8 980.25,442.4 977.3,425.95 973.3,409.1 967.85,385.95 960.45,362.35 951.1,338.7 931.55,289.25 906.05,245.55 874.2,207.2 861.5,191.95 847.5,177.3 832.5,163.6 813.75,146.5 793.15,130.8 770.95,116.65 757.1,107.75 742.65,99.55 727.2,91.75 718.5,87.4 709.35,83.1 699.95,79.05 691.35,75.3 682.8,71.85 674.05,68.65z"/>
      </g>
    </g>
  </mask>
  <g id="masked" mask="url(#Calque.__208)">
    <g id="Calque.__207">
      <g id="shape12">
        <path id="path6" fill="#838383" fill-opacity="1" d="M698.1,385.6 C698.1,337.2 682.35,295.35 650.85,260 Q646.8,255.5 642.45,251.1 C622,230.7 599.3,215.9 574.25,206.75 549.15,215.9 526.4,230.7 505.95,251.15 503.05,254.1 500.2,257.05 497.55,260.05 466,295.4 450.25,337.25 450.25,385.65 L450.25,470.55 C407.75,567.85 399.85,798.7 426.7,987.45 L509.5,1001.35 509.6,1001.35 509.6,1001.3 630.3,981 C625.3,958.55 631.55,827.5 649,763.5 652.8,749.55 657.15,734.65 662,718.65 674.4,678.1 682,652.25 684.85,641.15 693.85,605.7 708.95,571.75 730.15,539.4 729.4,537.2 728.7,534.9 727.95,532.75 725.1,523.75 722.3,514.75 719.65,505.65 714.7,493.95 708.05,482.9 699.7,472.5 699.2,471.8 698.6,471.2 698.1,470.55 L698.1,385.6z"/>
        <path id="path7" fill="#FFFFFF" fill-opacity="1" d="M742.8,574.95 C738.3,563.3 734.15,551.4 730.15,539.4 708.95,571.75 693.85,605.7 684.85,641.15 691.8,653.55 695.45,660 695.8,660.6 719.65,701.15 746,735.2 774.75,762.7 775.7,763.6 776.65,764.55 777.65,765.45 788.8,775.75 800.2,785.15 811.95,793.65 812.75,794.75 813.65,795.85 814.7,796.9 L814.75,796.95 C819,801.25 824.15,803.45 830.15,803.45 836.2,803.45 841.35,801.25 845.6,796.95 849.9,792.65 852.05,787.4 852.05,781.25 852.05,778.6 851.6,776.15 850.85,773.9 848.3,770.45 845.75,766.95 843.3,763.5 836.6,754.15 830.2,744.8 824,735.2 815.15,721.7 806.75,707.95 798.75,693.9 777.2,656.15 758.55,616.5 742.8,574.95z M289.05,539.45 C285.05,551.45 280.9,563.3 276.45,575 254.75,632 227.7,685.45 195.2,735.25 188.95,744.8 182.55,754.2 175.9,763.5 173.45,767 170.9,770.45 168.35,773.95 167.6,776.2 167.15,778.65 167.15,781.3 167.15,787.45 169.3,792.65 173.55,796.95 177.8,801.3 183,803.5 189,803.5 195,803.5 200.2,801.3 204.4,796.95 204.45,796.95 204.45,796.95 204.5,796.95 205.5,795.85 206.45,794.8 207.2,793.65 220.05,784.45 232.45,774.15 244.45,762.75 266.15,741.95 286.4,717.5 305.35,689.4 311.5,680.2 317.55,670.6 323.35,660.65 323.7,660.05 327.35,653.6 334.35,641.2 327.8,615.4 318.05,590.5 305.1,566.4 300.2,557.3 294.85,548.3 289.05,539.45z"/>
        <path id="path8" fill="#999999" fill-opacity="1" d="M509.6,195.4 L509.55,195.4 509.55,195.45 C509.05,195.45 508.45,195.45 507.95,195.5 456.85,196.3 413.15,214.8 376.75,251.15 373.8,254.1 371.05,257.05 368.3,260.05 367.65,260.8 367.05,261.5 366.45,262.25 336.2,297.1 321.1,338.3 321.1,385.65 L321.1,470.55 C320.55,471.25 320,471.85 319.45,472.55 313.95,479.45 309.2,486.65 305.1,494.15 303.05,497.9 301.15,501.8 299.55,505.7 296.9,514.8 294.1,523.8 291.25,532.75 290.55,534.95 289.8,537.25 289.05,539.45 294.85,548.3 300.2,557.3 305.1,566.4 318.05,590.5 327.8,615.4 334.35,641.2 336.6,649.85 341.65,667.4 349.65,693.9 351.95,701.45 354.45,709.7 357.15,718.7 362.05,734.7 366.4,749.6 370.15,763.5 370.4,764.2 370.55,764.85 370.7,765.5 387.7,828.45 393.75,958.85 388.9,981.05 L426.7,987.45 C399.85,798.7 407.75,567.85 450.25,470.55 L450.25,385.65 C450.25,337.25 466,295.4 497.55,260.05 500.2,257.05 503.05,254.1 505.95,251.15 526.4,230.7 549.15,215.9 574.25,206.75 554.2,199.35 532.7,195.6 509.6,195.4z"/>
        <path id="path9" fill="#666666" fill-opacity="1" d="M366.45,262.25 C367.05,261.5 367.65,260.8 368.3,260.05 L256.65,260.05 C234.3,260.05 215.3,267.9 199.5,283.65 195.4,287.75 190.4,305.85 184.45,337.95 178.25,371.35 173.15,408.7 169.15,449.9 164.6,497.35 162.6,540.2 163.15,578.5 163.8,623.7 165.55,654.25 168.35,670.1 173.4,698.75 182.35,720.45 195.2,735.25 227.7,685.45 254.75,632 276.45,575 280.9,563.3 285.05,551.45 289.05,539.45 289.8,537.25 290.55,534.95 291.25,532.75 293.1,523.35 295.85,514.35 299.55,505.7 301.15,501.8 303.05,497.9 305.1,494.15 309.2,486.65 313.95,479.45 319.45,472.55 320,471.85 320.55,471.25 321.1,470.55 L321.1,385.65 C321.1,338.3 336.2,297.1 366.45,262.25z"/>
      </g>
    </g>
  </g>
  <g id="Calque.__209">
    <g id="shape23">
      <path id="path14" fill="#666666" fill-opacity="1" d="M520.4,583.5 Q542.5,583.5 561.55,590.3 C584.9,596.45 592.85,595.35 585.4,587 566.4,565.7 543.45,555.05 516.5,555.05 489.6,555.05 466.65,565.7 447.6,587 434.95,601.15 428.65,608.85 428.75,610 429.3,619.35 433.2,620.7 440.5,613.95 462.55,593.65 489.2,583.5 520.4,583.5z M569.3,526.25 C596.75,533.45 606.1,532.15 597.35,522.35 575,497.3 548,484.75 516.35,484.75 484.7,484.75 457.7,497.3 435.35,522.35 420.4,539 413.05,548 413.2,549.35 413.85,560.35 418.45,561.9 427.05,554 453,530.15 484.3,518.25 520.95,518.25 538.25,518.25 554.35,520.9 569.3,526.25z M458,657.35 C446.55,670.1 440.9,677 441.05,678.05 441.55,686.45 445.05,687.65 451.65,681.6 471.55,663.3 495.55,654.2 523.65,654.2 536.9,654.2 549.25,656.2 560.7,660.3 581.75,665.85 588.95,664.85 582.25,657.35 565.1,638.1 544.4,628.5 520.15,628.5 495.85,628.5 475.15,638.1 458,657.35z M467.4,706.9 C457.7,717.75 452.9,723.65 452.95,724.55 453.4,731.7 456.35,732.75 461.95,727.55 478.85,712 499.3,704.2 523.25,704.2 534.55,704.2 545.05,705.95 554.8,709.45 572.7,714.15 578.8,713.3 573.05,706.9 558.5,690.55 540.9,682.4 520.25,682.4 499.6,682.4 482,690.55 467.4,706.9z M470.65,762.7 C461.55,772.8 457.1,778.3 457.2,779.1 457.6,785.8 460.4,786.75 465.6,781.95 481.35,767.45 500.4,760.2 522.65,760.2 533.15,760.2 542.95,761.8 552.05,765.05 568.7,769.45 574.4,768.65 569.05,762.7 555.5,747.5 539.1,739.85 519.85,739.85 500.65,739.85 484.25,747.5 470.65,762.7z M547.3,804 C561.5,807.7 566.35,807.05 561.8,802 550.25,789.05 536.3,782.55 519.95,782.55 503.6,782.55 489.65,789.05 478.1,802 470.4,810.6 466.6,815.25 466.65,815.95 467,821.65 469.35,822.45 473.8,818.35 487.15,806 503.35,799.85 522.3,799.85 531.3,799.85 539.6,801.2 547.3,804z"/>
    </g>
  </g>
  <g id="Calque.__210">
    <g id="shape35">
      <path id="path25" fill="#000000" fill-opacity="0.2" d="M682.3,375.25 C677.05,365.1 670.65,360.05 663.2,360.05 655.75,360.05 649.35,365.1 644.1,375.25 638.85,385.4 636.2,397.7 636.2,412.05 636.2,412.1 636.2,412.1 636.2,412.15 636.2,426.5 638.85,438.7 644.1,448.8 649.35,458.95 655.75,464.05 663.2,464.05 670.65,464.05 677.05,458.95 682.3,448.8 687.55,438.7 690.2,426.5 690.2,412.15 690.2,412.1 690.2,412.1 690.2,412.05 690.2,397.7 687.55,385.4 682.3,375.25z M364.1,360.05 C356.65,360.05 350.25,365.1 345,375.25 339.75,385.4 337.1,397.7 337.1,412.05 337.1,412.1 337.1,412.1 337.1,412.15 337.1,426.5 339.75,438.7 345,448.8 350.25,458.95 356.65,464.05 364.1,464.05 371.55,464.05 377.95,458.95 383.2,448.8 388.45,438.7 391.1,426.5 391.1,412.15 391.1,412.1 391.1,412.1 391.1,412.05 391.1,397.7 388.45,385.4 383.2,375.25 377.95,365.1 371.55,360.05 364.1,360.05z"/>
      <path id="path26" fill="#686868" fill-opacity="1" d="M673.45,381.8 C670.4,375.95 666.95,372.65 663.2,372 Q657.55,373 653,381.8 C648.65,390.25 646.4,400.4 646.2,412.15 646.2,412.45 646.2,412.75 646.2,413.05 L680.2,413.05 C680.2,412.75 680.2,412.45 680.2,412.15 680,400.4 677.75,390.25 673.45,381.8z"/>
      <path id="path27" fill="#333333" fill-opacity="1" d="M680.2,414 C680.2,413.65 680.2,413.35 680.2,413.05 L646.2,413.05 C646.2,413.35 646.2,413.65 646.2,414 646.2,426.55 648.45,437.3 653,446.15 656.05,452.05 659.45,455.35 663.2,456 666.95,455.35 670.4,452.05 673.45,446.15 677.95,437.3 680.2,426.55 680.2,414z M381.1,414 C381.1,413.65 381.1,413.35 381.1,413.05 L347.1,413.05 C347.1,413.35 347.1,413.65 347.1,414 347.1,426.55 349.35,437.3 353.9,446.15 356.95,452.05 360.35,455.35 364.1,456 367.85,455.35 371.3,452.05 374.35,446.15 378.85,437.3 381.1,426.55 381.1,414z"/>
      <path id="path30" fill="#7A7A7A" fill-opacity="1" d="M364.1,372 C360.35,372.65 356.95,375.95 353.9,381.8 349.55,390.25 347.3,400.4 347.1,412.15 347.1,412.45 347.1,412.75 347.1,413.05 L381.1,413.05 C381.1,412.75 381.1,412.45 381.1,412.15 380.9,400.4 378.65,390.25 374.35,381.8 371.3,375.95 367.85,372.65 364.1,372z"/>
    </g>
  </g>
</svg>