<?xml version="1.0" encoding="utf-8"?>
<!-- Generator: flash2svg, http://dissentgraphics.com/tools/flash2svg -->
<svg id="ThunderBird" image-rendering="optimizeSpeed" baseProfile="basic" version="1.1" style="background-color:#FFFFFF" x="0px" y="0px" width="1024px" height="1024px" viewBox="0 0 1024 1024" enable-background="new 0 0 1024 1024" xmlns="http://www.w3.org/2000/svg" xmlns:xlink="http://www.w3.org/1999/xlink">
  <defs transform="matrix(1 0 0 1 0 0) "/>
  <g id="shadow">
    <g id="shape">
      <path id="path" fill="#000000" fill-opacity="0.09803921568627451" d="M969.6,351.25 Q961,330.4 950.2,310.4 C946.15,302.85 941.85,295.35 937.3,288 917.75,256.3 893.9,226.35 865.75,198.2 773.6,106.05 662.3,59.95 531.95,59.95 401.6,59.95 290.35,106.05 198.2,198.2 106.05,290.35 59.95,401.6 59.95,531.95 59.95,662.3 106.05,773.6 198.2,865.75 290.35,957.9 401.6,1003.95 531.95,1003.95 662.3,1003.95 773.6,957.9 865.75,865.75 916.5,814.95 953.3,758.35 976.1,696 994.65,645.15 1003.95,590.5 1003.95,531.95 1003.95,487.05 998.5,444.4 987.55,404 986.3,399.45 985,394.9 983.65,390.4 979.55,377.1 974.85,364.05 969.6,351.25z"/>
    </g>
  </g>
  <g id="circle">
    <g id="shape2">
      <path id="path1" fill="#1B335B" fill-opacity="1" d="M958.5,354.6 C958.2,353.85 957.9,352.95 957.6,352.05 951.15,333.8 943.45,316 934.45,298.4 930.65,291 926.5,283.45 922.15,276 901.85,241.5 876.35,208.8 845.8,178.25 773.35,105.8 689.05,61.8 593,46.35 592.7,46.3 592.4,46.25 592.15,46.2 575.9,43.6 559.35,41.8 542.1,40.85 532.4,40.3 522.25,40 512,40 502.65,40 493.4,40.25 484.1,40.75 365.75,46.85 263.8,92.7 178.25,178.25 121.75,234.75 82.6,298.4 60.8,368.95 Q40,436.15 40,512 C40,642.35 86.1,753.65 178.25,845.8 206.65,874.2 236.9,898.25 268.05,917.35 271.4,919.35 274.3,921.1 277.2,922.8 296.95,934.35 316.85,944.05 337.35,952.1 343.8,954.7 349.95,956.95 356.15,959.05 372.35,964.6 388.9,969.2 405.15,972.8 431.1,978.4 457.2,981.9 484.1,983.3 484.25,983.3 484.35,983.3 484.5,983.3 493,983.75 501.1,984 509,984 510.2,984 511.1,984 512,984 522.3,984 532.5,983.7 542.1,983.2 544.6,983.05 546.85,982.9 549.05,982.75 569.25,981.3 588.95,978.7 607.75,975.05 615.7,973.5 623.55,971.75 631.15,969.9 648.5,965.55 665.45,960.2 681.95,953.95 694.35,949.2 706.5,943.9 718.4,938.1 731.2,931.8 743.75,924.9 756,917.4 759.05,915.5 762.05,913.6 765.05,911.65 779.7,902.15 793.7,891.9 807.3,880.75 820.55,869.85 833.35,858.25 845.8,845.8 857.65,833.95 868.75,821.75 879.1,809.3 911.1,770.55 935.8,728.8 953.15,684 957.1,673.75 960.7,663.35 963.9,652.85 966.1,645.55 968.15,638.15 970.05,630.55 977.9,598.7 982.5,565.3 983.7,530.5 983.9,524.45 984,518.25 984,512 984,511.35 984,510.65 984,510 984,509.65 984,509.35 984,509 983.8,468.35 979.05,429.5 969.7,392 968.6,387.65 967.35,383 966.05,378.4 963.8,370.55 961.3,362.6 958.5,354.6z"/>
    </g>
  </g>
  <g id="circle1">
    <g id="shape4">
      <path id="path2" fill="#000000" fill-opacity="0.2" d="M953.15,684 C957.1,673.75 960.7,663.35 963.9,652.85 966.1,645.55 968.15,638.15 970.05,630.55 977.9,598.7 982.5,565.3 983.7,530.5 983.85,525.45 984,520.25 984,515 L794,325 183.125,850.625 L183.15,850.65 C210.35,877.1 238.8,899.4 268.05,917.35 271.4,919.35 274.3,921.1 277.2,922.8 296.95,934.35 316.85,944.05 337.35,952.1 343.8,954.7 349.95,956.95 356.15,959.05 372.35,964.6 388.9,969.2 405.15,972.8 431.1,978.4 457.2,981.9 484.1,983.3 484.25,983.3 484.35,983.3 484.5,983.3 493,983.75 501.1,984 509,984 Q510.5,984 512,984 C522.3,984 532.5,983.7 542.1,983.2 544.6,983.05 546.85,982.9 549.05,982.75 569.25,981.3 588.95,978.7 607.75,975.05 615.7,973.5 623.55,971.75 631.15,969.9 648.5,965.55 665.45,960.2 681.95,953.95 694.35,949.2 706.5,943.9 718.4,938.1 731.2,931.8 743.75,924.9 756,917.4 759.05,915.5 762.05,913.6 765.05,911.65 779.7,902.15 793.7,891.9 807.3,880.75 820.55,869.85 833.35,858.25 845.8,845.8 857.65,833.95 868.75,821.75 879.1,809.3 911.1,770.55 935.8,728.8 953.15,684z"/>
    </g>
  </g>
  <mask id="circle2">
    <g id="g">
      <g id="shape42">
        <path id="path26" fill="#FFFFFF" fill-opacity="1" d="M958.5,354.6 C958.2,353.85 957.9,352.95 957.6,352.05 951.15,333.8 943.45,316 934.45,298.4 930.65,291 926.5,283.45 922.15,276 901.85,241.5 876.35,208.8 845.8,178.25 773.35,105.8 689.05,61.8 593,46.35 592.7,46.3 592.4,46.25 592.15,46.2 575.9,43.6 559.35,41.8 542.1,40.85 532.4,40.3 522.25,40 512,40 502.65,40 493.4,40.25 484.1,40.75 365.75,46.85 263.8,92.7 178.25,178.25 121.75,234.75 82.6,298.4 60.8,368.95 Q40,436.15 40,512 C40,642.35 86.1,753.65 178.25,845.8 206.65,874.2 236.9,898.25 268.05,917.35 271.4,919.35 274.3,921.1 277.2,922.8 296.95,934.35 316.85,944.05 337.35,952.1 343.8,954.7 349.95,956.95 356.15,959.05 372.35,964.6 388.9,969.2 405.15,972.8 431.1,978.4 457.2,981.9 484.1,983.3 484.25,983.3 484.35,983.3 484.5,983.3 493,983.75 501.1,984 509,984 510.2,984 511.1,984 512,984 522.3,984 532.5,983.7 542.1,983.2 544.6,983.05 546.85,982.9 549.05,982.75 569.25,981.3 588.95,978.7 607.75,975.05 615.7,973.5 623.55,971.75 631.15,969.9 648.5,965.55 665.45,960.2 681.95,953.95 694.35,949.2 706.5,943.9 718.4,938.1 731.2,931.8 743.75,924.9 756,917.4 759.05,915.5 762.05,913.6 765.05,911.65 779.7,902.15 793.7,891.9 807.3,880.75 820.55,869.85 833.35,858.25 845.8,845.8 857.65,833.95 868.75,821.75 879.1,809.3 911.1,770.55 935.8,728.8 953.15,684 957.1,673.75 960.7,663.35 963.9,652.85 966.1,645.55 968.15,638.15 970.05,630.55 977.9,598.7 982.5,565.3 983.7,530.5 983.9,524.45 984,518.25 984,512 984,511.35 984,510.65 984,510 984,509.65 984,509.35 984,509 983.8,468.35 979.05,429.5 969.7,392 968.6,387.65 967.35,383 966.05,378.4 963.8,370.55 961.3,362.6 958.5,354.6z"/>
      </g>
    </g>
  </mask>
  <g id="masked" mask="url(#circle2)">
    <g id="Calque.__209">
      <g id="shape6">
        <path id="path3" fill="#4573A4" fill-opacity="1" d="M1018.35,755.7 C899.8,727.8 832.25,643.8 815.8,503.7 Q1043.4,564.75 1018.35,755.7"/>
        <path id="path4" fill="#4573A4" fill-opacity="1" d="M3.2,755.7 C154.95,715 222.45,631 205.75,503.7 87.2,531.6 19.65,615.6 3.2,755.7"/>
      </g>
    </g>
    <g id="Calque.__210">
      <g id="shape9">
        <path id="path5" fill="#306093" fill-opacity="1" d="M869,772 L869,524 C869,441.15 839.7,370.45 781.1,311.85 735.45,266.2 682.4,238.35 622,228.3 561.6,238.35 508.55,266.2 462.85,311.85 404.3,370.45 375,441.15 375,524 L375,772 C375,854.85 404.3,925.55 462.85,984.1 508.55,1029.8 561.6,1057.7 622,1067.75 682.4,1057.7 735.45,1029.8 781.1,984.1 839.7,925.55 869,854.85 869,772z"/>
        <path id="path6" fill="#4573A4" fill-opacity="1" d="M622,228.3 C604.95,225.45 587.25,224 569,224 L455,224 C372.15,224 301.45,253.3 242.85,311.85 184.3,370.45 155,441.15 155,524 L155,772 C155,854.85 184.3,925.55 242.85,984.1 301.45,1042.7 372.15,1072 455,1072 L569,1072 C587.25,1072 604.95,1070.6 622,1067.75 561.6,1057.7 508.55,1029.8 462.85,984.1 404.3,925.55 375,854.85 375,772 L375,524 C375,441.15 404.3,370.45 462.85,311.85 508.55,266.2 561.6,238.35 622,228.3z"/>
      </g>
    </g>
    <g id="Calque.__211">
      <g id="shape13">
        <path id="path7" fill="#FFFFFF" fill-opacity="1" d="M723.05,449.35 Q693.7,420 652.15,420 C624.45,420 600.8,429.8 581.25,449.35 561.7,468.9 551.9,492.55 551.9,520.25 551.9,547.95 561.7,571.6 581.25,591.15 600.8,610.7 624.45,620.5 652.15,620.5 679.85,620.5 703.5,610.7 723.05,591.15 742.6,571.6 752.4,547.95 752.4,520.25 752.4,492.55 742.6,468.9 723.05,449.35z M271.65,520.25 C271.65,547.95 281.45,571.6 301,591.15 320.55,610.7 344.2,620.5 371.9,620.5 399.6,620.5 423.25,610.7 442.8,591.15 462.35,571.6 472.15,547.95 472.15,520.25 472.15,492.55 462.35,468.9 442.8,449.35 423.25,429.8 399.6,420 371.9,420 344.2,420 320.55,429.8 301,449.35 281.45,468.9 271.65,492.55 271.65,520.25z"/>
      </g>
    </g>
    <g id="Calque.__212">
      <g id="shape17">
        <path id="path10" fill="#0099CC" fill-opacity="1" d="M660.4,564.4 Q678,546.85 678,522 C678,505.45 672.15,491.3 660.4,479.55 648.7,467.85 634.55,462 618,462 601.45,462 587.3,467.85 575.55,479.55 563.85,491.3 558,505.45 558,522 558,538.55 563.85,552.7 575.55,564.4 587.3,576.15 601.45,582 618,582 634.55,582 648.7,576.15 660.4,564.4z M448.4,479.55 C436.7,467.85 422.55,462 406,462 389.45,462 375.3,467.85 363.55,479.55 351.85,491.3 346,505.45 346,522 346,538.55 351.85,552.7 363.55,564.4 375.3,576.15 389.45,582 406,582 422.55,582 436.7,576.15 448.4,564.4 460.15,552.7 466,538.55 466,522 466,505.45 460.15,491.3 448.4,479.55z"/>
        <path id="path11" fill="#FFFFFF" fill-opacity="1" d="M604.35,472.95 C599.05,472.95 594.5,474.85 590.75,478.6 587,482.35 585.1,486.9 585.1,492.2 585.1,493.1 585.15,493.95 585.25,494.8 585.8,499 587.6,502.65 590.75,505.8 594.5,509.55 599.05,511.45 604.35,511.45 609.65,511.45 614.2,509.55 617.95,505.8 621.7,502.05 623.6,497.5 623.6,492.2 623.6,487.6 622.2,483.6 619.35,480.15 618.9,479.6 618.45,479.1 617.95,478.6 614.2,474.85 609.65,472.95 604.35,472.95z"/>
        <path id="path12" fill="#000000" fill-opacity="1" d="M619.35,480.15 C622.2,483.6 623.6,487.6 623.6,492.2 623.6,497.5 621.7,502.05 617.95,505.8 614.2,509.55 609.65,511.45 604.35,511.45 599.05,511.45 594.5,509.55 590.75,505.8 587.6,502.65 585.8,499 585.25,494.8 578.4,502.65 575,511.85 575,522.5 575,534.2 579.15,544.2 587.4,552.45 595.7,560.75 605.7,564.9 617.4,564.9 629.1,564.9 639.1,560.75 647.35,552.45 655.65,544.2 659.8,534.2 659.8,522.5 659.8,510.8 655.65,500.8 647.35,492.5 639.55,484.7 630.2,480.6 619.35,480.15z"/>
      </g>
    </g>
    <g id="Calque.__213">
      <g id="shape24">
        <path id="path15" fill="#000000" fill-opacity="1" d="M435.35,492.5 Q422.95,480.1 405.4,480.1 C393.7,480.1 383.7,484.25 375.4,492.5 367.15,500.8 363,510.8 363,522.5 363,534.2 367.15,544.2 375.4,552.45 383.7,560.75 393.7,564.9 405.4,564.9 417.1,564.9 427.1,560.75 435.35,552.45 443.65,544.2 447.8,534.2 447.8,522.5 447.8,510.8 443.65,500.8 435.35,492.5z"/>
      </g>
    </g>
    <g id="Calque.__214">
      <g id="shape26">
        <path id="path16" fill="#FFFFFF" fill-opacity="1" d="M411.6,492.2 Q411.6,484.25 405.95,478.6 C402.2,474.85 397.65,472.95 392.35,472.95 387.05,472.95 382.5,474.85 378.75,478.6 375,482.35 373.1,486.9 373.1,492.2 373.1,497.5 375,502.05 378.75,505.8 382.5,509.55 387.05,511.45 392.35,511.45 397.65,511.45 402.2,509.55 405.95,505.8 409.7,502.05 411.6,497.5 411.6,492.2z"/>
      </g>
    </g>
    <g id="Calque.__215">
      <g id="shape28">
        <path id="path17" fill="#4573A4" fill-opacity="1" d="M506.55,216.6 Q445.65,191.35 466.5,113.4 C505.25,142.3 518.6,176.65 506.55,216.6"/>
        <path id="path18" fill="#4573A4" fill-opacity="1" d="M517,216.6 C513.6,191.15 527.15,174.25 557.5,166.2 554.2,194.2 540.7,211 517,216.6"/>
      </g>
    </g>
    <g id="Calque.__216">
      <g id="shape31">
        <path id="path19" fill="#E4AC00" fill-opacity="1" d="M453.8,621 Q454.1,632.8 462.55,641.2 L490.8,669.5 C496.65,675.35 503.75,678.25 512,678.3 520.3,678.25 527.35,675.35 533.2,669.5 L561.5,641.2 C567.35,635.35 570.25,628.3 570.3,620 L512,650 453.8,621z"/>
      </g>
    </g>
    <g id="Calque.__217">
      <g id="shape33">
        <path id="path20" fill="#CCCC99" fill-opacity="1" d="M707.95,642.3 Q706.912,641.012 705.7,639.8 C699.85,633.95 692.75,631 684.5,631 L339.5,631 C331.25,631 324.15,633.95 318.3,639.8 317.85,640.25 317.45,640.7 317,641.15 L426.975,751.125 513.05,837.2 600,750.25 707.95,642.3z"/>
        <path id="path21" fill="#A5A56E" fill-opacity="1" d="M714.5,661 C714.5,653.85 712.3,647.65 707.95,642.3 L600,750.25 714.3,864.55 C714.45,863.4 714.5,862.2 714.5,861 L714.5,661z M317,641.15 C312,646.75 309.5,653.35 309.5,661 L309.5,861 C309.5,863.4 309.75,865.7 310.25,867.9 L310.225,867.875 L426.975,751.125 317,641.15z"/>
        <path id="path24" fill="#C0C085" fill-opacity="1" d="M310.25,867.9 C311.45,873.25 314.15,878.05 318.3,882.2 324.15,888.05 331.25,891 339.5,891 L684.5,891 C692.75,891 699.85,888.05 705.7,882.2 710.7,877.2 713.55,871.3 714.3,864.55 L600,750.25 513.05,837.2 426.975,751.125 310.225,867.875"/>
      </g>
      <g id="element12" transform="matrix(1 0 0 1 0 0) "/>
    </g>
    <g id="Calque.__218">
      <g id="shape40">
        <path id="path25" fill="#FFCC00" fill-opacity="1" d="M512.05,561.75 C503.7,561.75 496.65,564.65 490.8,570.5 L462.5,598.8 Q453.75,607.55 453.75,620.05 C453.75,620.4 453.75,620.7 453.8,621 L512,650 570.3,620 C570.3,611.7 567.35,604.65 561.5,598.8 L533.25,570.5 C527.4,564.65 520.3,561.75 512.05,561.75z"/>
      </g>
    </g>
  </g>
</svg>