
<svg xmlns="http://www.w3.org/2000/svg" version="1.1" xmlns:xlink="http://www.w3.org/1999/xlink" preserveAspectRatio="none" x="0px" y="0px" width="1024px" height="1024px" viewBox="0 0 1024 1024">
<defs>
<g id="Layer6_0_FILL">
<path fill="#000000" fill-opacity="0.09803921568627451" stroke="none" d="
M 969.6 351.25
Q 961 330.4 950.2 310.4 944.1 299.05 937.3 288 907.95 240.45 865.75 198.2 727.5 59.95 531.95 59.95 336.45 59.95 198.2 198.2 59.95 336.45 59.95 531.95 59.95 727.5 198.2 865.75 336.45 1003.95 531.95 1003.95 727.5 1003.95 865.75 865.75 941.9 789.55 976.1 696 1003.95 619.75 1003.95 531.95 1003.95 464.6 987.55 404 985.7 397.15 983.65 390.4 977.5 370.45 969.6 351.25 Z"/>
</g>

<g id="Layer5_0_FILL">
<path fill="#666666" stroke="none" d="
M 969.7 392
Q 967.95 385.15 966.05 378.4 964.52578125 373.114453125 962.85 367.85 960.3787109375 359.903125 957.6 352.05 947.85 324.5 934.45 298.4 928.65 287.05 922.15 276 891.5 224 845.8 178.25 736.8 69.25 592.15 46.2 567.65 42.3 542.1 40.85 527.2 40 512 40 497.9 40 484.1 40.75 306.55 49.95 178.25 178.25 40 316.5 40 512 40 707.55 178.25 845.8 263.0400390625 930.55703125 369.35 963.35 423.8880859375 980.1630859375 484.1 983.3 484.3 983.3 484.5 983.3 496.65 983.9 509 984 510.5 984 512 984 527.25 984 542.1 983.2 545.6 983 549.05 982.75 579.1 980.6 607.75 975.05 619.55 972.75 631.15 969.9 751.75 939.85 845.8 845.8 918.7 772.85 953.15 684 980.9 612.4 983.7 530.5 984 521.3 984 512 984 511 984 510 984 509.5 984 509 983.65 447.7 969.7 392 Z"/>
</g>

<g id="Layer4_0_FILL">
<path fill="#666666" stroke="none" d="
M 492 430.1
L 461.35 410.05 180 510.2 492 430.1
M 174.95 512.1
L 180 510.2 174.5 511.65 174.95 512.1 Z"/>

<path fill="#000000" fill-opacity="0.2" stroke="none" d="
M 697.85 168.3
L 675 197 387.85 197 326 217.85 458.15 350 450.8 356 493.45 398.65 461.35 410.05 492 430.1 180 510.2 174.95 512.1 238 575.15 237.85 897
Q 298.8703125 941.609375 369.35 963.35 423.8880859375 980.1630859375 484.1 983.3 484.3 983.3 484.5 983.3 496.65 983.9 509 984 510.5 984 512 984 527.25 984 542.1 983.2 545.6 983 549.05 982.75 579.1 980.6 607.75 975.05 619.55 972.75 631.15 969.9 751.75 939.85 845.8 845.8 918.7 772.85 953.15 684 980.9 612.4 983.7 530.5 984 521.3 984 512 984 511 984 510 984 509.5 984 509 983.83046875 479.3021484375 980.45 450.9
L 697.85 168.3 Z"/>
</g>

<g id="Layer3_0_FILL">
<path fill="#CBDFF7" stroke="none" d="
M 561.45 958.4
Q 546.1 958.4 535.35 969.15 529.7 974.85 527.05 981.8 526.65 982.8 526.3 983.85 527.15 983.8 528.05 983.8 561.7 982.8 593.7 977.55 593.8 977.55 593.85 977.55 593.3 976.5 592.7 975.55 590.5 972.2 587.5 969.15 576.75 958.4 561.45 958.4
M 598.3 682.55
Q 598.3 667.35 587.5 656.55 576.75 645.7 561.45 645.7 546.15 645.7 535.35 656.55 524.6 667.3 524.6 682.55 524.6 697.65 535.35 708.65 546.2 719.4 561.45 719.4 576.7 719.4 587.5 708.65 598.3 697.6 598.3 682.55 Z"/>

<path fill="#EC9405" stroke="none" d="
M 512 984
Q 519.15 984 526.3 983.85 526.65 982.8 527.05 981.8 529.7 974.85 535.35 969.15 546.1 958.4 561.45 958.4 576.75 958.4 587.5 969.15 590.5 972.2 592.7 975.55 593.3 976.5 593.85 977.55 615.2 974 635.8 968.65
L 635.8 915.9
Q 635.8 903.75 627.25 895.2 618.7 886.65 606.55 886.65
L 417.3 886.65
Q 405.15 886.65 396.65 895.2 388.05 903.75 388.05 915.9
L 388.05 968.65
Q 388.55 968.75 389.05 968.9 447.4 984 512 984 Z"/>

<path fill="#1A1C29" stroke="none" d="
M 786.05 541.9
Q 786.05 529.9 777.45 521.3 768.9 512.65 756.8 512.65
L 267.05 512.65
Q 255.05 512.65 246.4 521.3 237.85 529.8 237.85 541.9
L 237.85 896.8
Q 238.35 897.15 238.85 897.5 262.25 914.55 287.05 928.25
L 308.3 928.25
Q 318.15 928.25 318.15 938
L 318.15 943.9
Q 318.65 944.1 319.15 944.35 352.45 959.3 388.05 968.65
L 388.05 915.9
Q 388.05 903.75 396.65 895.2 405.15 886.65 417.3 886.65
L 606.55 886.65
Q 618.7 886.65 627.25 895.2 635.8 903.75 635.8 915.9
L 635.8 968.65
Q 636.3 968.55 636.8 968.4 671.6 959.2 704.2 944.65
L 704.2 943.15
Q 704.2 942.65 704.25 942.15 704.7 933.4 713.95 933.4
L 727.35 933.4
Q 757.7 917.6 786.05 896.85
L 786.05 541.9
M 704.2 562.15
Q 704.2 552.4 713.95 552.4
L 743.25 552.4
Q 753 552.4 753 562.15
L 753 630.05
Q 753 639.8 743.25 639.8
L 713.95 639.8
Q 704.2 639.8 704.2 630.05
L 704.2 562.15
M 743.25 679.4
Q 753 679.4 753 689.15
L 753 757.05
Q 753 766.8 743.25 766.8
L 713.95 766.8
Q 704.2 766.8 704.2 757.05
L 704.2 689.15
Q 704.2 679.4 713.95 679.4
L 743.25 679.4
M 269.3 557.05
Q 269.3 547.3 279.05 547.3
L 308.3 547.3
Q 318.15 547.3 318.15 557.05
L 318.15 624.9
Q 318.15 634.65 308.3 634.65
L 279.05 634.65
Q 269.3 634.65 269.3 624.9
L 269.3 557.05
M 269.3 684.05
Q 269.3 674.3 279.05 674.3
L 308.3 674.3
Q 318.15 674.3 318.15 684.05
L 318.15 751.9
Q 318.15 761.65 308.3 761.65
L 279.05 761.65
Q 269.3 761.65 269.3 751.9
L 269.3 684.05
M 606.55 574
Q 618.7 574 627.25 582.55 635.8 591.2 635.8 603.3
L 635.8 792.45
Q 635.8 804.6 627.25 813.15 618.7 821.8 606.55 821.8
L 603.5 821.8 486.3 821.8 417.3 821.8
Q 405.15 821.8 396.65 813.15 390.05 806.6 388.4 797.4 388.05 795.35 388.05 792.45
L 388.05 603.3
Q 388.05 591.15 396.65 582.55 405.15 574 417.3 574
L 606.55 574
M 308.3 801.3
Q 318.15 801.3 318.15 811.05
L 318.15 878.9
Q 318.15 888.65 308.3 888.65
L 279.05 888.65
Q 269.3 888.65 269.3 878.9
L 269.3 811.05
Q 269.3 801.3 279.05 801.3
L 308.3 801.3
M 743.25 806.4
Q 753 806.4 753 816.15
L 753 884
Q 753 893.75 743.25 893.75
L 713.95 893.75
Q 704.2 893.75 704.2 884
L 704.2 816.15
Q 704.2 806.4 713.95 806.4
L 743.25 806.4 Z"/>

<path fill="#F84520" stroke="none" d="
M 486.3 706.45
Q 481.1 704.65 475.65 710.15
L 388.4 797.4
Q 390.05 806.6 396.65 813.15 405.15 821.8 417.3 821.8
L 486.3 821.8 486.3 706.45 Z"/>

<path fill="#E92C1E" stroke="none" d="
M 491.8 710.15
Q 489.05 707.4 486.3 706.45
L 486.3 821.8 603.5 821.8 491.8 710.15 Z"/>

<path fill="#F79400" stroke="none" d="
M 627.25 582.55
Q 618.7 574 606.55 574
L 417.3 574
Q 405.15 574 396.65 582.55 388.05 591.15 388.05 603.3
L 388.05 792.45
Q 388.05 795.35 388.4 797.4
L 475.65 710.15
Q 481.1 704.65 486.3 706.45 489.05 707.4 491.8 710.15
L 603.5 821.8 606.55 821.8
Q 618.7 821.8 627.25 813.15 635.8 804.6 635.8 792.45
L 635.8 603.3
Q 635.8 591.2 627.25 582.55
M 587.5 656.55
Q 598.3 667.35 598.3 682.55 598.3 697.6 587.5 708.65 576.7 719.4 561.45 719.4 546.2 719.4 535.35 708.65 524.6 697.65 524.6 682.55 524.6 667.3 535.35 656.55 546.15 645.7 561.45 645.7 576.75 645.7 587.5 656.55 Z"/>
</g>

<g id="Layer2_0_FILL">
<path fill="#CCCCCC" stroke="none" d="
M 879.5 428.65
Q 879.5 416.25 870.7 407.45 861.9 398.65 849.5 398.65
L 174.5 398.65
Q 162.1 398.65 153.3 407.45 144.5 416.25 144.5 428.65
L 144.5 481.65
Q 144.5 494.05 153.3 502.85 162.1 511.65 174.5 511.65
L 849.5 511.65
Q 861.9 511.65 870.7 502.85 879.5 494.05 879.5 481.65
L 879.5 428.65 Z"/>
</g>

<g id="Layer1_0_FILL">
<path fill="#CCCCCC" stroke="none" d="
M 459.2 387.75
Q 454.6654296875 389.3158203125 451.8 393.25 448.9962890625 397.183984375 449 402
L 449 457.35
Q 449.0033203125 463.5599609375 453.4 467.95 457.7900390625 472.3466796875 464 472.35 470.2099609375 472.3466796875 474.6 467.95 478.9966796875 463.5599609375 479 457.35
L 479 412.8 562 398.65 545 457.35
Q 545.0033203125 463.5599609375 549.4 467.95 553.7900390625 472.3466796875 560 472.35 566.2099609375 472.3466796875 570.6 467.95 574.9966796875 463.5599609375 575 457.35
L 575 369.75
Q 575.0046875 364.8646484375 572.1 360.9 569.187109375 356.935546875 564.55 355.45 559.91953125 353.9572265625 555.2 355.5
L 459.2 387.75
M 459.2 334.6
Q 453.3435546875 336.6296875 450.55 342.2 447.80703125 347.77734375 449.8 353.65 451.7849609375 359.5095703125 457.35 362.25 462.92421875 365.0482421875 468.75 363.05
L 564.75 330.8
Q 570.6564453125 328.8201171875 573.4 323.25 576.1931640625 317.6724609375 574.2 311.8 572.2150390625 305.9404296875 566.65 303.15 561.0755859375 300.4017578125 555.2 302.35
L 459.2 334.6
M 459.2 281.45
Q 453.3435546875 283.4796875 450.55 289.05 447.80703125 294.62734375 449.8 300.5 451.7849609375 306.3595703125 457.35 309.1 462.92421875 311.8982421875 468.75 309.9
L 564.75 277.65
Q 570.6564453125 275.6701171875 573.4 270.1 576.1931640625 264.5224609375 574.2 258.65 572.2150390625 252.7904296875 566.65 250 561.0755859375 247.2517578125 555.2 249.2
L 459.2 281.45
M 459.45 256.85
Q 464.08046875 258.3427734375 468.75 256.75
L 564.75 224.5
Q 569.3345703125 222.983984375 572.15 219.05 575.0037109375 215.1158203125 575 210.3
L 575 194.95 449 194.95 449 242.55
Q 448.9953125 247.4353515625 451.9 251.4 454.812890625 255.364453125 459.45 256.85
M 575 178.7
Q 574.9966796875 172.4900390625 570.6 168.1 566.2099609375 163.7033203125 560 163.7
L 464 163.7
Q 457.7900390625 163.7033203125 453.4 168.1 449.0033203125 172.4900390625 449 178.7
L 449 194.95 575 194.95 575 178.7 Z"/>
</g>

<g id="Layer0_0_FILL">
<path fill="#CCCCCC" stroke="none" d="
M 352.05 157
Q 337.15 157 326.6 167.55 316.05 178.1 316.05 193 316.05 207.9 326.6 218.45 337.15 229 352.05 229 366.95 229 377.5 218.45 388.05 207.9 388.05 193 388.05 178.1 377.5 167.55 366.95 157 352.05 157
M 708 193
Q 708 178.1 697.45 167.55 686.9 157 672 157 657.1 157 646.55 167.55 636 178.1 636 193 636 207.9 646.55 218.45 657.1 229 672 229 686.9 229 697.45 218.45 708 207.9 708 193 Z"/>
</g>

<path id="Layer1_0_1_STROKES" stroke="#CCCCCC" stroke-width="30" stroke-linejoin="round" stroke-linecap="round" fill="none" d="
M 449 194.95
L 575 194.95 658 194.95
M 366 194.95
L 449 194.95"/>
</defs>

<g transform="matrix( 1, 0, 0, 1, 0,0) ">
<use xlink:href="#Layer6_0_FILL"/>
</g>

<g transform="matrix( 1, 0, 0, 1, 0,0) ">
<use xlink:href="#Layer5_0_FILL"/>
</g>

<g transform="matrix( 1, 0, 0, 1, 0,0) ">
<use xlink:href="#Layer4_0_FILL"/>
</g>

<g transform="matrix( 1, 0, 0, 1, 0,0) ">
<use xlink:href="#Layer3_0_FILL"/>
</g>

<g transform="matrix( 1, 0, 0, 1, 0,0) ">
<use xlink:href="#Layer2_0_FILL"/>
</g>

<g transform="matrix( 1, 0, 0, 1, 0,0) ">
<use xlink:href="#Layer1_0_FILL"/>

<use xlink:href="#Layer1_0_1_STROKES"/>
</g>

<g transform="matrix( 1, 0, 0, 1, 0,0) ">
<use xlink:href="#Layer0_0_FILL"/>
</g>
</svg>
