<?xml version="1.0" encoding="utf-8"?>
<!-- Generator: flash2svg, http://dissentgraphics.com/tools/flash2svg -->
<svg xmlns:xlink="http://www.w3.org/1999/xlink" id="Apps-Gitter" image-rendering="optimizeSpeed" baseProfile="basic" version="1.1" style="background-color:#ffffff" x="0px" y="0px" width="1024px" height="1024px" viewBox="0 0 1024 1024" enable-background="new 0 0 1024 1024" xmlns="http://www.w3.org/2000/svg">
  <defs transform="matrix(1 0 0 1 0 0) "/>
  <g id="background-circle-shadow">
    <g id="shape">
      <path id="path" fill="#000000" fill-opacity="0.09803921568627451" d="M969.65,351.3 Q961.05,330.45 950.25,310.45 C946.2,302.9 941.9,295.4 937.35,288.05 917.8,256.35 893.95,226.4 865.8,198.25 773.65,106.1 662.35,60 532,60 401.65,60 290.4,106.1 198.25,198.25 106.1,290.4 60,401.65 60,532 60,662.35 106.1,773.65 198.25,865.8 290.4,957.95 401.65,1004 532,1004 662.35,1004 773.65,957.95 865.8,865.8 916.55,815 953.35,758.4 976.15,696.05 994.7,645.2 1004,590.55 1004,532 1004,487.1 998.55,444.45 987.6,404.05 986.35,399.5 985.05,394.95 983.7,390.45 979.6,377.15 974.9,364.1 969.65,351.3z"/>
    </g>
  </g>
  <g id="background-circle">
    <g id="shape2">
      <path id="path1" fill="#F3015D" fill-opacity="1" d="M966.1,378.45 C965.1,375.05 964.1,371.6 962.95,367.95 961.35,362.8 959.55,357.45 957.65,352.1 951.2,333.85 943.5,316.05 934.5,298.45 930.7,291.05 926.55,283.5 922.2,276.05 901.9,241.55 876.4,208.85 845.85,178.3 773.25,105.7 688.7,61.65 592.2,46.25 575.95,43.65 559.4,41.85 542.15,40.9 532.45,40.35 522.3,40.05 512.05,40.05 502.7,40.05 493.45,40.3 484.15,40.8 365.8,46.9 263.85,92.75 178.3,178.3 Q40.05,316.55 40.05,512.05 C40.05,642.4 86.15,753.7 178.3,845.85 235,902.5 298.85,941.75 369.4,963.4 406.15,974.65 444.2,981.25 484.15,983.35 484.3,983.35 484.4,983.35 484.55,983.35 493.05,983.8 501.15,984.05 509.05,984.05 510.25,984.05 511.15,984.05 512.05,984.05 522.35,984.05 532.55,983.75 542.15,983.25 544.65,983.1 546.9,982.95 549.1,982.8 569.3,981.35 589,978.75 607.8,975.1 615.75,973.55 623.6,971.8 631.2,969.95 712,949.65 783.35,908.35 845.85,845.85 894.45,797.25 930.25,743.35 953.2,684.05 971.65,636.4 981.85,585.25 983.75,530.55 983.95,524.5 984.05,518.3 984.05,512.05 984.05,511.4 984.05,510.7 984.05,510.05 984.05,509.7 984.05,509.4 984.05,509.05 983.85,468.4 979.1,429.55 969.75,392.05 968.65,387.7 967.4,383.05 966.1,378.45z"/>
    </g>
  </g>
  <g id="object-shadow">
    <g id="shape4">
      <path id="path2" fill="#000000" fill-opacity="0.2" d="M715.7,340.05 L659.725,400.325 592.05,332.65 546.1,375 348.05,176.95 307.9,582.05 419.825,693.975 429.65,788.05 615.2,973.6 C620.65,972.45 626,971.2 631.2,969.95 712,949.65 783.35,908.35 845.85,845.85 894.45,797.25 930.25,743.35 953.2,684.05 Q968.713,644.024 976.425,600.775 L715.7,340.05z"/>
    </g>
  </g>
  <g id="object">
    <g id="shape6">
      <path id="path3" fill="#FFFFFF" fill-opacity="1" d="M712.575,336.475 Q703.224,327.125 690,327.125 L690,327.15 C681.2,327.1 673.7,330.25 667.45,336.5 661.2,342.75 658.05,350.25 658.1,359.05 L658.075,359.05 L658.075,560.05 L658.1,560.05 C658.05,568.85 661.2,576.4 667.45,582.65 673.7,588.9 681.2,592 690,592 698.8,592 706.35,588.9 712.6,582.65 718.85,576.4 721.95,568.85 721.95,560.05 L721.925,560.05 L721.925,359.05 L721.95,359.05 C721.95,350.25 718.85,342.75 712.6,336.5 M353.65,181.5 C347.4,175.25 339.85,172.1 331.05,172.15 322.25,172.1 314.75,175.25 308.5,181.5 302.25,187.75 299.1,195.25 299.15,204.05 L299.125,204.05 L299.125,560.05 L299.15,560.05 C299.1,568.85 302.25,576.4 308.5,582.65 314.75,588.9 322.25,592 331.05,592 339.85,592 347.4,588.9 353.65,582.65 359.9,576.4 363,568.85 363,560.05 L362.975,560.05 L362.975,204.05 L363,204.05 C363,195.25 359.9,187.75 353.65,181.5z M473.3,333.5 C467.05,327.25 459.5,324.1 450.7,324.15 441.9,324.1 434.4,327.25 428.15,333.5 421.9,339.75 418.75,347.25 418.8,356.05 L418.775,356.05 L418.775,764.05 L418.8,764.05 C418.75,772.85 421.9,780.4 428.15,786.65 434.4,792.9 441.9,796 450.7,796 459.5,796 467.05,792.9 473.3,786.65 479.55,780.4 482.65,772.85 482.65,764.05 L482.625,764.05 L482.625,356.05 L482.65,356.05 C482.65,347.25 479.55,339.75 473.3,333.5z M547.8,333.5 C541.55,339.75 538.4,347.25 538.45,356.05 L538.425,356.05 L538.425,764.05 L538.45,764.05 C538.4,772.85 541.55,780.4 547.8,786.65 554.05,792.9 561.55,796 570.35,796 579.15,796 586.7,792.9 592.95,786.65 599.2,780.4 602.3,772.85 602.3,764.05 L602.275,764.05 L602.275,356.05 L602.3,356.05 C602.3,347.25 599.2,339.75 592.95,333.5 586.7,327.25 579.15,324.1 570.35,324.15 561.55,324.1 554.05,327.25 547.8,333.5z"/>
    </g>
  </g>
</svg>