
<svg xmlns="http://www.w3.org/2000/svg" version="1.1" xmlns:xlink="http://www.w3.org/1999/xlink" preserveAspectRatio="none" x="0px" y="0px" width="1024px" height="1024px" viewBox="0 0 1024 1024">
<defs>
<g id="Layer3_0_FILL">
<path fill="#000000" fill-opacity="0.09803921568627451" stroke="none" d="
M 969.6 351.25
Q 961 330.4 950.2 310.4 944.1 299.05 937.3 288 907.95 240.45 865.75 198.2 727.5 59.95 531.95 59.95 336.45 59.95 198.2 198.2 59.95 336.45 59.95 531.95 59.95 727.5 198.2 865.75 336.45 1003.95 531.95 1003.95 727.5 1003.95 865.75 865.75 941.9 789.55 976.1 696 1003.95 619.75 1003.95 531.95 1003.95 464.6 987.55 404 985.7 397.15 983.65 390.4 977.5 370.45 969.6 351.25 Z"/>
</g>

<g id="Layer2_0_FILL">
<path fill="#F2F2F2" stroke="none" d="
M 969.7 392
Q 967.95 385.15 966.05 378.4 964.52578125 373.114453125 962.85 367.85 960.3787109375 359.903125 957.6 352.05 947.85 324.5 934.45 298.4 928.65 287.05 922.15 276 891.5 224 845.8 178.25 736.8 69.25 592.15 46.2 567.65 42.3 542.1 40.85 527.2 40 512 40 497.9 40 484.1 40.75 306.55 49.95 178.25 178.25 40 316.5 40 512 40 707.55 178.25 845.8 263.0400390625 930.55703125 369.35 963.35 423.8880859375 980.1630859375 484.1 983.3 484.3 983.3 484.5 983.3 496.65 983.9 509 984 510.5 984 512 984 527.25 984 542.1 983.2 545.6 983 549.05 982.75 579.1 980.6 607.75 975.05 619.55 972.75 631.15 969.9 751.75 939.85 845.8 845.8 918.7 772.85 953.15 684 980.9 612.4 983.7 530.5 984 521.3 984 512 984 511 984 510 984 509.5 984 509 983.65 447.7 969.7 392 Z"/>
</g>

<g id="Layer1_0_FILL">
<path fill="#000000" fill-opacity="0.09803921568627451" stroke="none" d="
M 695.7 349.95
L 689.4 355.7 515.6 181.9 455.55 298.95 491.6 335 491.6 401 456.8 366.2 286 494.05 512 720.05 471 830.95 613.85 973.8
Q 622.563671875 972.0095703125 631.15 969.9 751.75 939.85 845.8 845.8 918.7 772.85 953.15 684 964.170703125 655.5646484375 971.25 625.5
L 695.7 349.95 Z"/>
</g>

<g id="Layer0_0_FILL">
<path fill="#8C68E0" stroke="none" d="
M 361.85 512
Q 346.5609375 520.8080078125 332.5 531.55 328 536.05 332.5 540.55
L 368.5 576.55
Q 373 581.1 377.5 578.1 412.05 552.55 454.05 543.55 458.55 539.05 458.55 537.55
L 458.55 512 361.85 512
M 512 512
L 491.6 512 491.6 722.15
Q 463.05 732.65 451.05 762.65 443.55 788.2 455.55 810.7 467.55 834.7 491.6 842.2 501.8 846.025 512 846.05
L 512 512
M 457.05 603.6
Q 457.05 597.6 449.55 600.6 439.05 603.6 418.05 615.6
L 416.55 617.1
Q 409.05 621.6 416.55 624.6
L 446.55 656.1 451.05 657.6
Q 458.55 657.6 458.55 650.1
L 458.55 605.1 457.05 603.6 Z"/>

<path fill="#FD5E57" stroke="none" d="
M 458.55 483.55
Q 455.55 477.5 451.05 479.05 402.1419921875 488.831640625 361.85 512
L 458.55 512 458.55 483.55
M 512 181.55
Q 508.619921875 181.8701171875 506.6 184.9
L 448.05 291.45
Q 448.05 297.45 455.55 297.45
L 491.6 297.45 491.6 512 512 512 512 181.55
M 458.55 364.95
Q 457.05 360.45 451.05 360.45 337 376.95 249.95 447.5
L 248.45 449
Q 245.45 453.5 248.45 456.5
L 286 494.05
Q 289 497.05 293.5 494.05 365.5 438.5 452.55 425 458.55 422 458.55 417.5
L 458.55 364.95 Z"/>

<path fill="#44ACF9" stroke="none" d="
M 532.1 512
L 512 512 512 846.05
Q 525.8 846.1 539.6 839.2 563.6 828.7 571.1 803.2 580.1 779.2 568.1 755.15 557.6 731.15 532.1 722.15
L 532.1 650.1
Q 532.1 632.1 545.6 618.6
L 650.7 512 592.7 512 532.1 573.55 532.1 512 Z"/>

<path fill="#D55AB8" stroke="none" d="
M 515.6 181.9
Q 513.6400390625 181.4099609375 512 181.55
L 512 512 532.1 512 532.1 297.45 568.1 297.45 571.1 295.95
Q 577.1 292.95 574.1 288.45
L 515.6 181.9
M 701.7 355.95
Q 701.7 349.95 695.7 349.95
L 602.65 349.95
Q 596.65 349.95 596.65 355.95
L 596.65 449
Q 596.65 455 602.65 455
L 629.65 455 629.65 465.5
Q 629.65 474.5 623.65 480.55
L 592.7 512 650.7 512 652.15 510.55
Q 670.15 489.55 670.15 465.5
L 670.15 455 695.7 455
Q 701.7 455 701.7 449
L 701.7 355.95 Z"/>
</g>
</defs>

<g transform="matrix( 1, 0, 0, 1, 0,0) ">
<use xlink:href="#Layer3_0_FILL"/>
</g>

<g transform="matrix( 1, 0, 0, 1, 0,0) ">
<use xlink:href="#Layer2_0_FILL"/>
</g>

<g transform="matrix( 1, 0, 0, 1, 0,0) ">
<use xlink:href="#Layer1_0_FILL"/>
</g>

<g transform="matrix( 1, 0, 0, 1, 0,0) ">
<use xlink:href="#Layer0_0_FILL"/>
</g>
</svg>
