<?xml version="1.0" encoding="utf-8"?>
<!-- Generator: flash2svg, http://dissentgraphics.com/tools/flash2svg -->
<svg xmlns:xlink="http://www.w3.org/1999/xlink" id="Apps-Brackets" image-rendering="optimizeSpeed" baseProfile="basic" version="1.1" style="background-color:#ffffff" x="0px" y="0px" width="1024px" height="1024px" viewBox="0 0 1024 1024" enable-background="new 0 0 1024 1024" xmlns="http://www.w3.org/2000/svg">
  <defs transform="matrix(1 0 0 1 0 0) "/>
  <g id="shadow">
    <g id="shape">
      <path id="path" fill="#000000" fill-opacity="0.09803921568627451" d="M965.65,347.3 Q957.05,326.45 946.25,306.45 C942.2,298.9 937.9,291.4 933.35,284.05 913.8,252.35 889.95,222.4 861.8,194.25 769.65,102.1 658.35,56 528,56 397.65,56 286.4,102.1 194.25,194.25 102.1,286.4 56,397.65 56,528 56,658.35 102.1,769.65 194.25,861.8 286.4,953.95 397.65,1000 528,1000 658.35,1000 769.65,953.95 861.8,861.8 912.55,811 949.35,754.4 972.15,692.05 990.7,641.2 1000,586.55 1000,528 1000,483.1 994.55,440.45 983.6,400.05 982.35,395.5 981.05,390.95 979.7,386.45 975.6,373.15 970.9,360.1 965.65,347.3z"/>
    </g>
  </g>
  <g id="circle">
    <g id="shape2">
      <path id="path1" fill="#5897C7" fill-opacity="1" d="M968.45,382.15 C967,376.95 965.45,371.75 963.7,366.15 950.7,324.75 931.35,285.35 905.7,248.1 889,223.85 869.35,200.4 847,178.05 754.7,85.75 643.25,39.6 512.7,39.6 382.15,39.6 270.75,85.75 178.45,178.05 156.15,200.35 136.55,223.75 119.8,248.1 94.25,285.05 74.9,324.45 61.75,366.15 60,371.55 58.45,376.85 57,382.15 51.45,402.35 47.25,423.05 44.45,444.2 41.5,466.4 40,489.05 40,512.3 40,542.1 42.4,570.85 47.15,598.2 50.1,615.5 53.95,632.05 58.65,648.2 59.45,650.95 60.3,653.7 61.05,656.25 73.95,697.6 92.55,736.25 116.85,772.25 134.55,798.45 155,823.15 178.45,846.6 260.6,928.8 357.95,974.4 470.4,983.35 484.25,984.5 498.35,985.05 512.7,985.05 643.25,985.05 754.7,938.9 847,846.6 870.55,823.05 891.1,798.25 908.65,772.25 926,746.4 940.45,719.35 951.95,691.1 956.55,679.75 960.65,668.2 964.45,656.25 965.2,653.7 966.05,650.95 966.85,648.2 971.55,632.05 975.35,615.5 978.35,598.2 983.05,570.85 985.45,542.1 985.45,512.3 Q985.45,477.335 981.025,444.2 L981.05,444.2 C978.25,423.2 974.05,402.45 968.45,382.15z"/>
    </g>
  </g>
  <g id="film">
    <g id="shape4">
      <path id="path2" fill="#FFFFFF" fill-opacity="1" d="M802.6,257.7 Q794.15,248.25 785,239.05 C709.65,163.7 618.65,126.05 512.05,126.05 405.4,126.05 314.4,163.7 239.05,239.05 163.7,314.4 126.05,405.4 126.05,512.05 126.05,618.65 163.7,709.65 239.05,785 314.4,860.35 405.4,898.05 512.05,898.05 553.95,898.05 593.45,892.2 630.5,880.55 687.75,862.6 739.25,830.75 785,785 812.15,757.85 834.4,728.65 851.8,697.4 882.65,642 898.05,580.2 898.05,512.05 898.05,500.8 897.65,489.8 896.8,478.95 895.9,467.35 894.55,455.95 892.7,444.8 889.15,423.4 883.9,402.7 876.95,382.75 861.1,337.4 836.35,295.7 802.6,257.7z"/>
    </g>
  </g>
  <g id="film1">
    <g id="shape6">
      <path id="path3" fill="#000000" fill-opacity="0.14901960784313725" d="M892.7,444.8 Q892.092,441.119 891.425,437.475 L737.05,285.15 566.9,376.1 463.05,272.25 345.675,355.05 289.05,742.4 438.225,891.575 L438.25,891.6 C461.95,895.9 486.55,898.05 512.05,898.05 553.95,898.05 593.45,892.2 630.5,880.55 687.75,862.6 739.25,830.75 785,785 812.15,757.85 834.4,728.65 851.8,697.4 882.65,642 898.05,580.2 898.05,512.05 898.05,500.8 897.65,489.8 896.8,478.95 895.9,467.35 894.55,455.95 892.7,444.8z"/>
    </g>
  </g>
  <g id="Calque.__202">
    <g id="shape8">
      <path id="path4" fill="#666666" fill-opacity="1" d="M739.45,284.7 Q723.1,268.35 700,268.4 L559.9,268.4 559.9,379.85 644.3,379.85 644.3,644.3 559.9,644.3 559.9,755.75 700,755.75 C715.4,755.75 728.55,750.3 739.45,739.45 750.3,728.55 755.75,715.4 755.75,700 L755.75,324.1 C755.75,308.75 750.3,295.6 739.45,284.7z M464.25,268.4 L324.1,268.4 C308.75,268.35 295.6,273.8 284.7,284.7 273.8,295.6 268.35,308.75 268.4,324.1 L268.4,700 C268.35,715.4 273.8,728.55 284.7,739.45 295.6,750.3 308.75,755.75 324.1,755.75 L464.25,755.75 464.25,644.3 379.85,644.3 379.85,379.85 464.25,379.85 464.25,268.4z"/>
    </g>
  </g>
</svg>