<?xml version="1.0" encoding="utf-8"?>
<!-- Generator: flash2svg, http://dissentgraphics.com/tools/flash2svg -->
<svg xmlns:xlink="http://www.w3.org/1999/xlink" id="OpenEmu" image-rendering="optimizeSpeed" baseProfile="basic" version="1.1" style="background-color:#ffffff" x="0px" y="0px" width="1024px" height="1024px" viewBox="0 0 1024 1024" enable-background="new 0 0 1024 1024" xmlns="http://www.w3.org/2000/svg">
  <defs transform="matrix(1 0 0 1 0 0) "/>
  <g id="shadow">
    <g id="shape">
      <path id="path" fill="#000000" fill-opacity="0.09803921568627451" d="M969.65,351.3 Q961.05,330.45 950.25,310.45 C946.2,302.9 941.9,295.4 937.35,288.05 917.8,256.35 893.95,226.4 865.8,198.25 773.65,106.1 662.35,60 532,60 401.65,60 290.4,106.1 198.25,198.25 106.1,290.4 60,401.65 60,532 60,662.35 106.1,773.65 198.25,865.8 290.4,957.95 401.65,1004 532,1004 662.35,1004 773.65,957.95 865.8,865.8 916.55,815 953.35,758.4 976.15,696.05 994.7,645.2 1004,590.55 1004,532 1004,487.1 998.55,444.45 987.6,404.05 986.35,399.5 985.05,394.95 983.7,390.45 979.6,377.15 974.9,364.1 969.65,351.3z"/>
    </g>
  </g>
  <g id="bg">
    <g id="shape2">
      <path id="path1" fill="#314A58" fill-opacity="1" d="M929.85,289.65 C927.5,285.3 924.9,280.65 922.2,276.05 901.9,241.55 876.4,208.85 845.85,178.3 773.25,105.7 688.7,61.65 592.2,46.25 575.95,43.65 559.4,41.85 542.15,40.9 532.45,40.35 522.3,40.05 512.05,40.05 502.7,40.05 493.45,40.3 484.15,40.8 365.8,46.9 263.85,92.75 178.3,178.3 157.8,198.8 139.55,220.25 123.6,242.7 108.25,264.25 95.05,286.7 84,309.9 106.85,297 130.25,285.25 154.1,274.7 263.35,226.25 382.7,202.05 512.05,202.05 669.7,202.05 812.4,238 940.2,309.95 938.35,306.15 936.45,302.3 934.5,298.45 933.05,295.6 931.55,292.75 929.85,289.65z"/>
      <path id="path2" fill="#273B46" fill-opacity="1" d="M962.95,367.95 C961.35,362.8 959.55,357.45 957.65,352.1 952.6,337.85 946.8,323.85 940.2,309.95 812.4,238 669.7,202.05 512.05,202.05 382.7,202.05 263.35,226.25 154.1,274.7 130.25,285.25 106.85,297 84,309.9 L83.975,309.875 Q40.05,401.873 40.05,512.05 C40.05,642.4 86.15,753.7 178.3,845.85 235,902.5 298.85,941.75 369.4,963.4 406.15,974.65 444.2,981.25 484.15,983.35 484.3,983.35 484.4,983.35 484.55,983.35 493.05,983.8 501.15,984.05 509.05,984.05 510.25,984.05 511.15,984.05 512.05,984.05 522.35,984.05 532.55,983.75 542.15,983.25 544.65,983.1 546.9,982.95 549.1,982.8 569.3,981.35 589,978.75 607.8,975.1 615.75,973.55 623.6,971.8 631.2,969.95 712,949.65 783.35,908.35 845.85,845.85 894.45,797.25 930.25,743.35 953.2,684.05 971.65,636.4 981.85,585.25 983.75,530.55 983.95,524.5 984.05,518.3 984.05,512.05 984.05,511.4 984.05,510.7 984.05,510.05 984.05,509.7 984.05,509.4 984.05,509.05 983.85,468.4 979.1,429.55 969.75,392.05 968.65,387.7 967.4,383.05 966.1,378.45 965.1,375.05 964.1,371.6 962.95,367.95z"/>
    </g>
  </g>
  <g id="bg1">
    <g id="shape6">
      <path id="path3" fill="#000000" fill-opacity="0.2" d="M984.05,510.05 C984.05,509.7 984.05,509.4 984.05,509.05 984,501.5 983.8,494 983.45,486.45 L804.05,307.05 198.95,832.05 304.4,937.5 C325.65,948.05 347.2,956.6 369.4,963.4 406.15,974.65 444.2,981.25 484.15,983.35 484.3,983.35 484.4,983.35 484.55,983.35 493.05,983.8 501.15,984.05 509.05,984.05 Q510.55,984.05 512.05,984.05 C522.35,984.05 532.55,983.75 542.15,983.25 544.65,983.1 546.9,982.95 549.1,982.8 569.3,981.35 589,978.75 607.8,975.1 615.75,973.55 623.6,971.8 631.2,969.95 712,949.65 783.35,908.35 845.85,845.85 894.45,797.25 930.25,743.35 953.2,684.05 971.65,636.4 981.85,585.25 983.75,530.55 983.95,524.5 984.05,518.3 984.05,512.05 984.05,511.4 984.05,510.7 984.05,510.05z"/>
    </g>
  </g>
  <g id="Calque.__203">
    <g id="shape8">
      <path id="path4" fill="#05121A" fill-opacity="1" d="M780.6,333.2 Q780.5,332.7 780.5,332.25 C780.5,331.6 780.15,331.2 779.45,331.2 L244.65,331.2 C243.95,331.2 243.6,331.6 243.6,332.25 243.6,332.55 243.6,332.85 243.6,333.2 L231.7,671.8 C231.75,672.4 232.1,672.65 232.75,672.65 L349.05,672.65 349.05,672.7 381.1,672.7 381.1,672.65 486.75,672.65 496.8,672.65 499.65,672.65 526.85,672.65 529.75,672.65 536.8,672.65 648.35,672.65 648.35,672.7 680.4,672.7 680.4,672.65 691.1,672.65 791.35,672.65 C792,672.65 792.35,672.4 792.4,671.8 L780.6,333.2z"/>
    </g>
  </g>
  <mask id="Calque.__206">
    <g id="g">
      <g id="shape12">
        <path id="path5" fill="#FFFFFF" fill-opacity="1" d="M780.6,333.2 Q780.5,332.7 780.5,332.25 C780.5,331.6 780.15,331.2 779.45,331.2 L244.65,331.2 C243.95,331.2 243.6,331.6 243.6,332.25 243.6,332.55 243.6,332.85 243.6,333.2 L231.7,671.8 C231.75,672.4 232.1,672.65 232.75,672.65 L349.05,672.65 349.05,672.7 381.1,672.7 381.1,672.65 486.75,672.65 496.8,672.65 499.65,672.65 526.85,672.65 529.75,672.65 536.8,672.65 648.35,672.65 648.35,672.7 680.4,672.7 680.4,672.65 691.1,672.65 791.35,672.65 C792,672.65 792.35,672.4 792.4,671.8 L780.6,333.2z"/>
      </g>
    </g>
  </mask>
  <g id="masked" mask="url(#Calque.__206)">
    <g id="Calque.__204">
      <g id="shape10" transform="matrix(1 0 0 1 205.35 381)"/>
    </g>
    <g id="Calque.__205">
      <g id="shape11" transform="matrix(1 0 0 1 281.8 212.7)"/>
    </g>
  </g>
  <g id="bg2">
    <g id="shape14">
      <path id="path6" fill="#E74C3C" fill-opacity="1" d="M691.1,299.05 L659.05,299.05 536.8,299.05 526.85,299.05 496.8,299.05 486.75,299.05 244.65,299.05 C222.5,299.05 211.45,310.15 211.45,332.25 L191.65,681.55 C192.3,702.35 203.35,712.75 224.8,712.75 L381.05,712.75 799.3,712.75 C820.75,712.75 831.8,702.35 832.5,681.55 L812.65,332.25 Q812.65,299.05 779.45,299.05 L691.1,299.05z M780.6,333.2 L792.4,671.8 C792.35,672.4 792,672.65 791.35,672.65 L691.1,672.65 680.4,672.65 680.4,672.7 648.35,672.7 648.35,672.65 536.8,672.65 529.75,672.65 526.85,672.65 499.65,672.65 496.8,672.65 486.75,672.65 381.1,672.65 381.1,672.7 349.05,672.7 349.05,672.65 232.75,672.65 C232.1,672.65 231.75,672.4 231.7,671.8 L243.6,333.2 C243.6,332.85 243.6,332.55 243.6,332.25 243.6,331.6 243.95,331.2 244.65,331.2 L779.45,331.2 C780.15,331.2 780.5,331.6 780.5,332.25 780.5,332.55 780.5,332.85 780.6,333.2z"/>
      <path id="path10" fill="#8E261C" fill-opacity="1" d="M832.5,681.55 C831.8,702.35 820.75,712.75 799.3,712.75 L381.05,712.75 509.65,841.35 799.3,841.35 C821.4,841.35 832.5,830.25 832.5,808.15 L832.5,681.55z"/>
      <path id="path11" fill="#A52F23" fill-opacity="1" d="M224.8,712.75 C203.35,712.75 192.3,702.35 191.65,681.55 L191.6,808.15 C191.6,830.25 202.7,841.35 224.8,841.35 L509.65,841.35 381.05,712.75 224.8,712.75z"/>
    </g>
  </g>
  <g id="Calque.__207">
    <g id="shape22">
      <path id="path12" fill="#000000" fill-opacity="0.2980392156862745" d="M270.6,624.05 L319.2,672.65 349.05,672.65 349.05,672.7 381.1,672.7 381.1,672.65 475.25,672.65 407.85,605.25 270.6,624.05z"/>
    </g>
  </g>
  <g id="Calque.__208">
    <g id="shape24">
      <path id="path13" fill="#386893" fill-opacity="1" d="M264.2,574.05 Q264.05,575.605 264.05,577.2 C264.05,578.25 264.1,579.35 264.2,580.4 L264.2,601.2 C264.1,602.25 264.05,603.35 264.05,604.4 264.05,605.45 264.1,606.55 264.2,607.6 265.3,619.05 272.25,628.9 285.1,637.2 299.15,646.25 316.1,650.8 335.95,650.8 340.2,650.8 344.3,650.6 348.3,650.2 362.95,648.65 375.75,644.35 386.8,637.2 400.55,628.35 407.55,617.7 407.85,605.25 L407.85,605.225 L407.85,576.35 C407.85,576.25 407.85,576.15 407.85,576.05 407.4,563.75 400.4,553.2 386.8,544.4 372.75,535.35 355.8,530.8 335.95,530.8 316.1,530.8 299.15,535.35 285.1,544.4 272.25,552.7 265.25,562.6 264.2,574.05z"/>
    </g>
  </g>
  <g id="Calque.__209">
    <g id="shape26">
      <path id="path14" fill="#3979AC" fill-opacity="1" d="M285.5,544.7 Q264.45,558.3 264.45,577.5 C264.45,590.3 271.45,601.25 285.5,610.3 299.55,619.35 316.5,623.9 336.35,623.9 356.2,623.9 373.15,619.35 387.2,610.3 401.25,601.25 408.25,590.3 408.25,577.5 408.25,564.7 401.25,553.75 387.2,544.7 373.15,535.65 356.2,531.1 336.35,531.1 316.5,531.1 299.55,535.65 285.5,544.7z"/>
    </g>
  </g>
  <g id="Calque.__210">
    <g id="shape28">
      <path id="path15" fill="#52B0FE" fill-opacity="1" d="M293.35,553.65 Q280,562.25 279.15,573.85 C279.7,581.6 284.45,588.3 293.35,594.05 305.15,601.5 319.4,605.25 336.05,605.25 352.7,605.25 366.95,601.5 378.75,594.05 387.65,588.3 392.4,581.6 392.95,573.85 392.4,566.1 387.65,559.4 378.75,553.65 366.95,546.2 352.7,542.45 336.05,542.45 319.4,542.45 305.15,546.2 293.35,553.65z"/>
    </g>
  </g>
  <g id="Calque.__211">
    <g id="shape30">
      <path id="path16" fill="#05121A" fill-opacity="1" d="M583.6,559.1 Q611.6,534.65 611.6,500.1 C611.6,477.05 602.25,457.35 583.6,441 564.95,424.75 542.45,416.6 516.1,416.6 489.75,416.6 467.2,424.75 448.55,441 429.9,457.35 420.6,477.05 420.6,500.1 420.6,523.15 429.9,542.8 448.55,559.1 467.2,575.45 489.75,583.6 516.1,583.6 542.45,583.6 564.95,575.45 583.6,559.1z"/>
      <path id="path17" fill="none" stroke="#14405D" stroke-opacity="1" stroke-width="8.1" stroke-linecap="round" stroke-linejoin="round" d="M583.6,559.1 Q611.6,534.65 611.6,500.1 C611.6,477.05 602.25,457.35 583.6,441 564.95,424.75 542.45,416.6 516.1,416.6 489.75,416.6 467.2,424.75 448.55,441 429.9,457.35 420.6,477.05 420.6,500.1 420.6,523.15 429.9,542.8 448.55,559.1 467.2,575.45 489.75,583.6 516.1,583.6 542.45,583.6 564.95,575.45 583.6,559.1z"/>
    </g>
  </g>
  <g id="Calque.__212">
    <g id="shape32">
      <path id="path18" fill="#000000" fill-opacity="0.2980392156862745" d="M653.3,672.7 L680.4,672.7 680.4,672.65 691.1,672.65 731,672.65 541.55,483.2 492.75,463.425 487.15,506.55 653.3,672.7z"/>
    </g>
  </g>
  <g id="Calque.__213">
    <g id="shape34">
      <path id="path19" fill="#9E9E9E" fill-opacity="1" d="M512.05,175 Q497.7,175 487.55,185.15 C480.8,191.9 477.4,200.1 477.4,209.65 L477.4,338.2 546.7,407.5 546.7,209.65 C546.7,200.1 543.3,191.9 536.55,185.15 529.8,178.4 521.6,175 512.05,175z"/>
      <path id="path20" fill="#CCCCCC" fill-opacity="1" d="M546.7,481.65 L546.7,407.5 477.4,338.2 477.4,481.65 C477.4,491.2 480.8,499.4 487.55,506.15 494.3,512.9 502.5,516.3 512.05,516.3 521.6,516.3 529.8,512.9 536.55,506.15 543.3,499.4 546.7,491.2 546.7,481.65z"/>
    </g>
  </g>
  <g id="bg3">
    <g id="shape38">
      <path id="path21" fill="#9B3B2E" fill-opacity="1" d="M589.9,94.7 C567.35,78.35 541.4,70.15 512.05,70.15 474.9,70.15 443.15,83.3 416.85,109.6 390.55,135.9 377.4,167.65 377.4,204.8 377.4,229.85 383.4,252.45 395.35,272.6 401.1,282.3 408.3,291.45 416.85,300 443.15,326.3 474.9,339.45 512.05,339.45 549.2,339.45 580.95,326.3 607.25,300 L607.225,300 L607.25,299.975 L607.25,300 C633.55,273.7 646.7,241.95 646.7,204.8 646.7,167.65 633.55,135.9 607.25,109.6 601.7,104.05 595.9,99.05 589.9,94.7z"/>
      <path id="path22" fill="#B94D3D" fill-opacity="1" d="M595.575,121.225 Q592.661,118.311 589.65,115.65 C586.9,157.5 570.35,193.6 539.95,223.95 506.6,257.35 466.3,274.05 419.05,274.05 418.1,274.05 417.1,274.05 416.1,274.05 419.75,279 423.9,283.75 428.5,288.35 451.55,311.4 479.4,322.95 512.05,322.95 544.7,322.95 572.55,311.4 595.6,288.35 618.65,265.3 630.2,237.45 630.2,204.8 630.2,172.15 618.65,144.3 595.6,121.25"/>
      <path id="path23" fill="#DA5B4A" fill-opacity="1" d="M589.65,115.65 C567.8,96.3 541.9,86.65 512.05,86.65 479.45,86.65 451.6,98.2 428.5,121.25 L428.5,121.225 L428.475,121.25 L428.5,121.25 C405.45,144.35 393.9,172.2 393.9,204.8 393.9,230.95 401.3,254 416.1,274.05 417.1,274.05 418.1,274.05 419.05,274.05 466.3,274.05 506.6,257.35 539.95,223.95 570.35,193.6 586.9,157.5 589.65,115.65z"/>
    </g>
  </g>
  <g id="Calque.__214">
    <g id="shape43">
      <path id="path24" fill="#FFA896" fill-opacity="1" d="M477.65,129.6 Q469.25,121.2 457.3,121.2 C449.35,121.2 442.55,124 436.9,129.6 431.3,135.25 428.5,142.05 428.5,150 428.5,157.95 431.3,164.75 436.9,170.35 442.55,176 449.35,178.8 457.3,178.8 465.25,178.8 472.05,176 477.65,170.35 483.3,164.75 486.1,157.95 486.1,150 486.1,142.05 483.3,135.25 477.65,129.6z"/>
    </g>
  </g>
</svg>