
<svg xmlns="http://www.w3.org/2000/svg" version="1.1" xmlns:xlink="http://www.w3.org/1999/xlink" preserveAspectRatio="none" x="0px" y="0px" width="1024px" height="1024px" viewBox="0 0 1024 1024">
<defs>
<g id="Layer4_0_FILL">
<path fill="#000000" fill-opacity="0.09803921568627451" stroke="none" d="
M 969.6 351.25
Q 961 330.4 950.2 310.4 944.1 299.05 937.3 288 907.95 240.45 865.75 198.2 727.5 59.95 531.95 59.95 336.45 59.95 198.2 198.2 59.95 336.45 59.95 531.95 59.95 727.5 198.2 865.75 336.45 1003.95 531.95 1003.95 727.5 1003.95 865.75 865.75 941.9 789.55 976.1 696 1003.95 619.75 1003.95 531.95 1003.95 464.6 987.55 404 985.7 397.15 983.65 390.4 977.5 370.45 969.6 351.25 Z"/>
</g>

<g id="Layer3_0_FILL">
<path fill="#E1E3E2" stroke="none" d="
M 969.7 392
Q 967.95 385.15 966.05 378.4 964.52578125 373.114453125 962.85 367.85 960.3787109375 359.903125 957.6 352.05 947.85 324.5 934.45 298.4 928.65 287.05 922.15 276 891.5 224 845.8 178.25 736.8 69.25 592.15 46.2 567.65 42.3 542.1 40.85 527.2 40 512 40 497.9 40 484.1 40.75 306.55 49.95 178.25 178.25 40 316.5 40 512 40 707.55 178.25 845.8 263.0400390625 930.55703125 369.35 963.35 423.8880859375 980.1630859375 484.1 983.3 484.3 983.3 484.5 983.3 496.65 983.9 509 984 510.5 984 512 984 527.25 984 542.1 983.2 545.6 983 549.05 982.75 579.1 980.6 607.75 975.05 619.55 972.75 631.15 969.9 751.75 939.85 845.8 845.8 918.7 772.85 953.15 684 980.9 612.4 983.7 530.5 984 521.3 984 512 984 511 984 510 984 509.5 984 509 983.65 447.7 969.7 392 Z"/>
</g>

<g id="Layer2_0_FILL">
<path fill="#000000" fill-opacity="0.09803921568627451" stroke="none" d="
M 744.1 299.65
L 681 285 601 320 575 433.4 422 280.4 353 279 289.3 352 311 424 427 443 432 581 347 584 289 629 289.25 735.35 289.2 735.35 537.3 983.45
Q 539.6990234375 983.329296875 542.1 983.2 545.6 983 549.05 982.75 579.1 980.6 607.75 975.05 619.55 972.75 631.15 969.9 751.75 939.85 845.8 845.8 918.7 772.85 953.15 684 979.473046875 616.0818359375 983.35 538.9
L 744.1 299.65 Z"/>
</g>

<g id="Layer1_0_FILL">
<path fill="#666666" stroke="none" d="
M 734.7 289.6
Q 705.1 260 663.55 260 621.65 260 592.4 289.6 562.8 319.2 562.8 360.75
L 562.8 411.15 462 411.15 462 360.75
Q 462 319.2 432.4 289.6 402.8 260 361.25 260 319.7 260 290.1 289.6 260.5 319.2 260.5 360.75 260.5 402.65 290.1 431.9 319.7 461.5 361.25 461.5
L 411.65 461.5 411.65 562.3 361.25 562.3
Q 319.7 562.3 290.1 591.9 260.5 621.5 260.5 663.05 260.5 704.6 290.1 734.2 319.7 763.8 361.25 763.8 402.8 763.8 432.4 734.2 462 704.6 462 663.05
L 462 612.65 562.8 612.65 562.8 662.75 562.45 663.05
Q 562.45 704.6 592.05 734.2 621.65 763.8 663.25 763.8 705.1 763.8 734.4 734.2 764 704.6 764 663.05 764 621.5 734.7 591.9 705.1 562.6 663.55 562.3
L 613.15 562.3 613.15 461.5 663.55 461.5
Q 705.1 461.5 734.7 431.9 764.3 402.65 764.3 360.75 764.3 319.2 734.7 289.6
M 663.55 310.4
Q 684.3 310.4 699.1 325.2 713.9 340 713.9 360.75 713.9 381.85 699.1 396.35 684.3 411.15 663.55 411.15
L 613.15 411.15 613.15 360.75
Q 613.15 340 627.95 325.2 642.45 310.4 663.55 310.4
M 663.25 612.65
Q 684.3 612.65 698.8 627.45 713.6 641.95 713.6 663.05 713.6 683.8 699.1 698.6 684.3 713.4 663.55 713.4 642.45 713.4 627.95 698.6 613.15 683.8 613.15 663.05
L 613.15 612.65 663.25 612.65
M 325.7 325.2
Q 340.5 310.4 361.25 310.4 382.35 310.4 396.85 325.2 411.65 340 411.65 360.75
L 411.65 411.15 361.25 411.15
Q 340.5 411.15 325.7 396.35 310.9 381.85 310.9 360.75 310.9 340 325.7 325.2
M 562.8 461.5
L 562.8 562.3 462 562.3 462 461.5 562.8 461.5
M 411.65 612.65
L 411.65 663.05
Q 411.65 683.8 396.85 698.6 382.35 713.4 361.25 713.4 340.5 713.4 325.7 698.6 310.9 683.8 310.9 663.05 310.9 641.95 325.7 627.45 340.5 612.65 361.25 612.65
L 411.65 612.65 Z"/>
</g>

<g id="Layer0_0_FILL">
<path fill="#000000" stroke="none" d="
M 815.3 604.95
L 765.3 581.2 578.25 979.8
Q 593.175 977.8734375 607.75 975.05 619.55 972.75 631.15 969.9 634.587890625 969.043359375 638 968.1 639.301953125 967.781640625 640.6 967.4 641.8662109375 967.080078125 643.1 966.7
L 815.3 604.95 Z"/>

<path fill="#333333" stroke="none" d="
M 765.3 581.2
L 718.75 559.05 516.5 983.95
Q 529.45703125 983.8810546875 542.1 983.2 545.6 983 549.05 982.75 563.8126953125 981.69375 578.25 979.8
L 765.3 581.2 Z"/>

<path fill="#FFFFFF" stroke="none" d="
M 829 445.55
L 810.2 436.6
Q 799 431.3 787.3 435.45 775.55 439.65 770.25 450.85
L 718.75 559.05 765.3 581.2 829 445.55 Z"/>

<path fill="#E1E3E2" stroke="none" d="
M 867.95 473.85
Q 863.75 462.1 852.55 456.75
L 829 445.55 765.3 581.2 815.3 604.95 866.8 496.75
Q 872.1 485.55 867.95 473.85 Z"/>
</g>
</defs>

<g transform="matrix( 1, 0, 0, 1, 0,0) ">
<use xlink:href="#Layer4_0_FILL"/>
</g>

<g transform="matrix( 1, 0, 0, 1, 0,0) ">
<use xlink:href="#Layer3_0_FILL"/>
</g>

<g transform="matrix( 1, 0, 0, 1, 0,0) ">
<use xlink:href="#Layer2_0_FILL"/>
</g>

<g transform="matrix( 1, 0, 0, 1, 0,0) ">
<use xlink:href="#Layer1_0_FILL"/>
</g>

<g transform="matrix( 1, 0, 0, 1, 0,0) ">
<use xlink:href="#Layer0_0_FILL"/>
</g>
</svg>
