<?xml version="1.0" encoding="utf-8"?>
<!-- Generator: flash2svg, http://dissentgraphics.com/tools/flash2svg -->
<svg xmlns:xlink="http://www.w3.org/1999/xlink" id="Apps-Game-Center" image-rendering="optimizeSpeed" baseProfile="basic" version="1.1" style="background-color:#ffffff" x="0px" y="0px" width="1024px" height="1024px" viewBox="0 0 1024 1024" enable-background="new 0 0 1024 1024" xmlns="http://www.w3.org/2000/svg">
  <defs transform="matrix(1 0 0 1 0 0) "/>
  <g id="background-circle-shadow">
    <g id="shape">
      <path id="path" fill="#000000" fill-opacity="0.09803921568627451" d="M969.65,351.3 Q961.05,330.45 950.25,310.45 C946.2,302.9 941.9,295.4 937.35,288.05 917.8,256.35 893.95,226.4 865.8,198.25 773.65,106.1 662.35,60 532,60 401.65,60 290.4,106.1 198.25,198.25 106.1,290.4 60,401.65 60,532 60,662.35 106.1,773.65 198.25,865.8 290.4,957.95 401.65,1004 532,1004 662.35,1004 773.65,957.95 865.8,865.8 916.55,815 953.35,758.4 976.15,696.05 994.7,645.2 1004,590.55 1004,532 1004,487.1 998.55,444.45 987.6,404.05 986.35,399.5 985.05,394.95 983.7,390.45 979.6,377.15 974.9,364.1 969.65,351.3z"/>
    </g>
  </g>
  <g id="background-circle">
    <g id="shape2">
      <path id="path1" fill="#85B957" fill-opacity="1" d="M969.75,392.05 C968.65,387.7 967.4,383.05 966.1,378.45 965.1,375.05 964.1,371.6 962.95,367.95 961.35,362.8 959.55,357.45 957.65,352.1 951.2,333.85 943.5,316.05 934.5,298.45 930.7,291.05 926.55,283.5 922.2,276.05 901.9,241.55 876.4,208.85 845.85,178.3 773.25,105.7 688.7,61.65 592.2,46.25 575.95,43.65 559.4,41.85 542.15,40.9 532.9,40.35 523.6,40.1 514.15,40.05 513.5,40.05 512.8,40.05 512.15,40.05 L512.15,514.2 512.2,514.2 984.05,514.2 C984.05,513.85 984.05,513.5 984.05,513.15 984.05,512.8 984.05,512.4 984.05,512.05 984.05,511.4 984.05,510.7 984.05,510.05 984.05,509.7 984.05,509.4 984.05,509.05 983.85,468.4 979.1,429.55 969.75,392.05z"/>
      <path id="path2" fill="#DCC402" fill-opacity="1" d="M983.75,530.55 C983.95,525.2 984.05,519.75 984.05,514.2 L512.2,514.2 512.2,984.05 C522.3,984.05 532.3,983.8 542.15,983.25 544.65,983.1 546.9,982.95 549.1,982.8 569.3,981.35 589,978.75 607.8,975.1 615.75,973.55 623.6,971.8 631.2,969.95 712,949.65 783.35,908.35 845.85,845.85 894.45,797.25 930.25,743.35 953.2,684.05 971.65,636.4 981.85,585.25 983.75,530.55z"/>
      <path id="path3" fill="#E25050" fill-opacity="1" d="M512.15,40.05 C512.1,40.05 512.1,40.05 512.05,40.05 502.7,40.05 493.45,40.3 484.15,40.8 365.8,46.9 263.85,92.75 178.3,178.3 Q40.05,316.55 40.05,512.05 C40.05,512.8 40.05,513.55 40.05,514.2 L512.15,514.2 512.15,40.05z"/>
      <path id="path4" fill="#0198CF" fill-opacity="1" d="M512.2,514.2 L512.15,514.2 40.05,514.2 C40.55,643.7 86.7,754.25 178.3,845.85 235,902.5 298.85,941.75 369.4,963.4 406.15,974.65 444.2,981.25 484.15,983.35 484.3,983.35 484.4,983.35 484.55,983.35 493.05,983.8 501.15,984.05 509.05,984.05 510.25,984.05 511.15,984.05 512.05,984.05 512.1,984.05 512.15,984.05 512.2,984.05 L512.2,514.2z"/>
    </g>
  </g>
  <g id="object-shadow">
    <g id="shape8">
      <path id="path5" fill="#000000" fill-opacity="0.2" d="M441.25,694.9 L397.9,742.05 626.85,971 C628.35,970.65 629.8,970.3 631.2,969.95 712,949.65 783.35,908.35 845.85,845.85 Q907.699,783.959 941.875,710.625 L637.45,406.2 317.05,570.7 441.25,694.9z"/>
    </g>
  </g>
  <g id="svg1">
    <g id="shape10">
      <path id="path6" fill="#FFFFFF" fill-opacity="1" d="M694.7,673.75 Q697.55,648.05 697.55,619.25 C697.55,529.6 677.6,458.55 637.65,406.1 604.2,360.95 569.15,338.35 532.5,338.35 529.25,338.35 525.7,338.75 521.8,339.6 517.55,326.2 514.3,317.05 512.1,312.1 507.35,302.75 498.1,294.2 484.35,286.35 478.05,286.35 468.45,296.65 455.55,317.2 L451.5,314.65 C429.45,301.6 408.4,295.05 388.35,295.05 L381.7,295.55 C383.9,312.5 385,324.4 385,331.2 L384.5,348.25 C379.75,365.9 367.45,394.85 347.6,435.1 320.4,490.8 305.3,528.25 302.25,547.45 305.65,554.6 308.55,559.85 310.9,563.25 318.7,574.95 332.05,583.25 350.9,588.2 L364.15,591.5 C369.9,591.5 374.9,588.7 379.15,583.1 379.15,596.65 384.65,603.45 395.7,603.45 400.15,603.45 403.35,601.65 405.4,598.1 413.55,585.9 420.85,574.55 427.3,564 441.4,541.95 463.05,525.05 492.25,513.3 491.55,519.25 490.25,525.2 488.4,531.15 484.85,541.85 475,557.65 458.9,578.5 454.95,582.75 451.8,586.65 449.45,590.2 428.9,616.35 418.2,644.2 417.35,673.75 L694.7,673.75z M721.9,732.05 L721.9,704.05 C721.9,697.4 718.55,694.05 711.9,694.05 L397.9,694.05 C391.25,694.05 387.9,697.4 387.9,704.05 L387.9,732.05 C387.9,738.7 391.25,742.05 397.9,742.05 L711.9,742.05 C718.55,742.05 721.9,738.7 721.9,732.05z"/>
    </g>
  </g>
</svg>