
<svg xmlns="http://www.w3.org/2000/svg" version="1.1" xmlns:xlink="http://www.w3.org/1999/xlink" preserveAspectRatio="none" x="0px" y="0px" width="1024px" height="1024px" viewBox="0 0 1024 1024">
<defs>
<g id="Layer4_0_FILL">
<path fill="#000000" fill-opacity="0.09803921568627451" stroke="none" d="
M 969.6 351.25
Q 961 330.4 950.2 310.4 944.1 299.05 937.3 288 907.95 240.45 865.75 198.2 727.5 59.95 531.95 59.95 336.45 59.95 198.2 198.2 59.95 336.45 59.95 531.95 59.95 727.5 198.2 865.75 336.45 1003.95 531.95 1003.95 727.5 1003.95 865.75 865.75 941.9 789.55 976.1 696 1003.95 619.75 1003.95 531.95 1003.95 464.6 987.55 404 985.7 397.15 983.65 390.4 977.5 370.45 969.6 351.25 Z"/>
</g>

<g id="Layer3_0_FILL">
<path fill="#1661A0" stroke="none" d="
M 969.7 392
Q 967.95 385.15 966.05 378.4 964.52578125 373.114453125 962.85 367.85 960.3787109375 359.903125 957.6 352.05 947.85 324.5 934.45 298.4 928.65 287.05 922.15 276 891.5 224 845.8 178.25 736.8 69.25 592.15 46.2 567.65 42.3 542.1 40.85 527.2 40 512 40 497.9 40 484.1 40.75 306.55 49.95 178.25 178.25 40 316.5 40 512 40 707.55 178.25 845.8 263.0400390625 930.55703125 369.35 963.35 423.8880859375 980.1630859375 484.1 983.3 484.3 983.3 484.5 983.3 496.65 983.9 509 984 510.5 984 512 984 527.25 984 542.1 983.2 545.6 983 549.05 982.75 579.1 980.6 607.75 975.05 619.55 972.75 631.15 969.9 751.75 939.85 845.8 845.8 918.7 772.85 953.15 684 980.9 612.4 983.7 530.5 984 521.3 984 512 984 511 984 510 984 509.5 984 509 983.65 447.7 969.7 392 Z"/>
</g>

<g id="Layer2_0_FILL">
<path fill="#000000" fill-opacity="0.2" stroke="none" d="
M 983.7 530.5
Q 983.8205078125 526.804296875 983.9 523.1
L 681.25 220.45 369 818 534.55 983.55
Q 538.3396484375 983.4025390625 542.1 983.2 545.6 983 549.05 982.75 579.1 980.6 607.75 975.05 619.55 972.75 631.15 969.9 751.75 939.85 845.8 845.8 918.7 772.85 953.15 684 980.9 612.4 983.7 530.5 Z"/>
</g>

<g id="Layer0_0_FILL">
<path fill="#FCC83E" stroke="none" d="
M 677.85 204.95
Q 672.8 200.7 665.6 200.7 663.65 200.7 661.85 201.05
L 426 201 352.25 475.45
Q 352.9 480.15 357.15 483.7 361.4 487.25 367.2 487.85
L 393.4 481.85 356.85 612.35
Q 356.85 612.45 356.85 612.55 357.1 618.15 361.95 622.2 367 626.45 374.2 626.45 377.3 626.45 380 625.7
L 401.55 617.75 351.2 800.2
Q 351.45 805.8 356.25 809.85 361.35 814.1 368.5 814.1 373.45 814.1 377.4 812.1 377.95 811.8 378.5 811.5
L 628.4 576.65 628.75 576.1
Q 630.3 573.9 630.75 571.4 631 570.4 631 568.95 631 566.2 629.9 563.85 628.65 561 625.9 558.7 620.8 554.45 613.65 554.45 611.55 554.45 609.9 554.8
L 577 555.75 649.5 424.85
Q 649.5 424.6 649.55 424.4 649.8 423.2 649.8 421.95 649.8 419.2 648.7 416.85 647.45 414 644.7 411.7 639.85 407.65 633.15 407.45
L 600.3 414.5 682.7 217.65
Q 682.95 216.45 682.95 215.2 682.95 212.45 681.85 210.1 680.6 207.25 677.85 204.95 Z"/>
</g>
</defs>

<g transform="matrix( 1, 0, 0, 1, 0,0) ">
<use xlink:href="#Layer4_0_FILL"/>
</g>

<g transform="matrix( 1, 0, 0, 1, 0,0) ">
<use xlink:href="#Layer3_0_FILL"/>
</g>

<g transform="matrix( 1, 0, 0, 1, 0,0) ">
<use xlink:href="#Layer2_0_FILL"/>
</g>

<g transform="matrix( 1, 0, 0, 1, 0,0) ">
<use xlink:href="#Layer0_0_FILL"/>
</g>
</svg>
