<?xml version="1.0" encoding="utf-8"?>
<!-- Generator: flash2svg, http://dissentgraphics.com/tools/flash2svg -->
<svg xmlns:xlink="http://www.w3.org/1999/xlink" id="AppZapper" image-rendering="optimizeSpeed" baseProfile="basic" version="1.1" style="background-color:#ffffff" x="0px" y="0px" width="1024px" height="1024px" viewBox="0 0 1024 1024" enable-background="new 0 0 1024 1024" xmlns="http://www.w3.org/2000/svg">
  <defs transform="matrix(1 0 0 1 0 0) "/>
  <g id="shadow">
    <g id="shape">
      <path id="path" fill="#000000" fill-opacity="0.09803921568627451" d="M965.65,350.3 Q957.05,329.45 946.25,309.45 C942.2,301.9 937.9,294.4 933.35,287.05 913.8,255.35 889.95,225.4 861.8,197.25 769.65,105.1 658.35,59 528,59 397.65,59 286.4,105.1 194.25,197.25 102.1,289.4 56,400.65 56,531 56,661.35 102.1,772.65 194.25,864.8 286.4,956.95 397.65,1003 528,1003 658.35,1003 769.65,956.95 861.8,864.8 912.55,814 949.35,757.4 972.15,695.05 990.7,644.2 1000,589.55 1000,531 1000,486.1 994.55,443.45 983.6,403.05 982.35,398.5 981.05,393.95 979.7,389.45 975.6,376.15 970.9,363.1 965.65,350.3z"/>
    </g>
  </g>
  <g id="circle">
    <g id="shape2">
      <path id="path1" fill="#8C3D37" fill-opacity="1" d="M966.1,378.45 C963.6,369.7 960.75,360.85 957.65,352.1 951.2,333.85 943.5,316.05 934.5,298.45 930.7,291.05 926.55,283.5 922.2,276.05 L922.175,276.05 Q891.574,224.04 845.85,178.3 C753.7,86.15 642.5,40.1 512.15,40.05 512.1,40.05 512.1,40.05 512.05,40.05 381.7,40.05 270.45,86.15 178.3,178.3 86.15,270.45 40.05,381.7 40.05,512.05 40.05,512.1 40.05,512.15 40.05,512.2 40.1,642.5 86.15,753.7 178.3,845.85 246.35,913.9 324.8,956.8 413.2,974.5 445.15,980.9 477.95,984.05 512.05,984.05 512.8,984.05 513.55,984.05 514.15,984.05 643.7,983.55 754.25,937.45 845.85,845.85 894.45,797.25 930.25,743.35 953.2,684.05 970.2,640.1 980.2,593.25 983.15,543.3 983.7,533.8 984.05,524.15 984.05,514.2 984.05,513.55 984.05,512.8 984.05,512.05 984.05,470.3 979.35,430.45 969.75,392.05 968.65,387.7 967.4,383.05 966.1,378.45z"/>
    </g>
  </g>
  <g id="ico">
    <g id="shape4">
      <path id="path2" fill="#000000" fill-opacity="0.2" d="M982.25,556.25 C982.3,555.6 982.35,555 982.4,554.4 L982.375,554.375 L676.05,248.05 104.05,614.05 321.2,831.2 316.05,894.05 391.6,969.6 C398.95,971.45 406.05,973.05 413.2,974.5 Q460.642,984.05 512.05,984.05 C512.8,984.05 513.55,984.05 514.15,984.05 569.25,983.85 620.95,975.4 668.8,958.8 734.35,936.1 793.25,898.45 845.85,845.85 894.45,797.25 930.25,743.35 953.2,684.05 968.7,643.9 978.4,601.35 982.25,556.25z"/>
    </g>
  </g>
  <g id="inner-circle">
    <g id="Symbole.__207_1" overflow="visible">
      <g id="Calque.__208">
        <g id="Symbole.__213_2" overflow="visible">
          <g id="Calque.__209">
            <g id="shape23">
              <path id="path14" fill="#FF9900" fill-opacity="1" d="M488.16,578.365 C485.827,573.172 485.662,567.877 487.691,562.536 489.751,557.113 493.39,553.263 498.608,550.985 L559.75,523.507 C560.979,522.955 562.202,522.54 563.475,522.236 563.623,520.626 563.845,518.58 564.147,516.565 L564.172,516.621 Q564.988,510.818 566.481,505.18 C567.829,500.414 570.605,496.884 574.79,494.399 579.057,491.945 583.517,491.417 588.29,492.628 593.032,493.92 596.642,496.727 599.096,500.993 601.55,505.259 602.104,509.776 600.812,514.518 600.224,516.795 599.687,519.184 599.337,521.69 598.231,529.235 598.445,537.327 599.897,545.936 601.57,556.527 604.778,565.756 609.572,573.736 612.144,577.815 612.864,582.257 611.734,587.06 610.579,591.807 607.903,595.56 603.743,598.101 599.608,600.698 595.086,601.388 590.338,600.233 585.535,599.102 581.838,596.401 579.322,592.297 574.441,584.423 570.613,575.606 567.749,565.35 L515.596,588.788 C510.403,591.121 505.108,591.286 499.711,589.282 494.344,587.197 490.494,583.558 488.16,578.365z"/>
            </g>
          </g>
        </g>
        <g id="Symbole.__215_2" overflow="visible">
          <g id="Calque.__210">
            <g id="shape24">
              <path id="path15" fill="#F49C35" fill-opacity="1" d="M95.956,555.006 Q94.783,544.929 101.059,536.941 C105.221,531.715 110.69,528.653 117.462,527.891 L141.27,531.286 C148.042,530.525 156.992,608.384 150.219,609.145 L127.829,617.865 C121.057,618.627 115.015,616.98 109.764,612.762 104.488,608.489 101.476,603.131 100.714,596.359 L95.956,555.006z"/>
            </g>
          </g>
        </g>
        <g id="Symbole.__217_2" overflow="visible">
          <g id="base4">
            <g id="shape25">
              <path id="path16" fill="#5FC21F" fill-opacity="1" d="M135.009,510.202 C132.028,492.817 132.398,484.529 147.307,477.829 L654.595,249.852 C669.504,243.152 680.268,247.241 686.968,262.149 L739.715,379.521 741.17,382.76 C747.87,397.668 743.781,408.432 728.873,415.132 L515.851,510.865 532.997,606.517 Q536.204,619.774 533.981,626.478 531.421,634.072 520.7,638.89 L490.715,652.365 518.111,794.418 C524.811,809.327 520.722,820.091 505.813,826.791 L344.999,899.062 C330.091,905.762 319.327,901.673 312.627,886.764 L269.597,694.689 C262.062,674.786 228.315,657.938 181.933,674.353 167.024,681.053 156.26,676.964 149.56,662.055 L147.944,645.465 135.009,510.202z"/>
            </g>
          </g>
          <g id="base5">
            <g id="shape26">
              <path id="path17" fill="#000000" fill-opacity="0.2" d="M269.597,694.689 C262.062,674.786 228.315,657.938 181.933,674.353 167.024,681.053 156.26,676.964 149.56,662.055 L147.944,645.465 739.715,379.521 741.17,382.76 C747.87,397.668 743.781,408.432 728.873,415.132 L515.851,510.865 532.997,606.517 Q536.204,619.774 533.981,626.478 531.421,634.072 520.7,638.89 L490.715,652.365 518.111,794.418 C524.811,809.327 520.722,820.091 505.813,826.791 L344.999,899.062 C330.091,905.762 319.327,901.673 312.627,886.764 L269.597,694.689z"/>
            </g>
          </g>
          <g id="crosse2">
            <g id="shape27">
              <path id="path18" fill="#000000" fill-opacity="0.2" d="M399.536,587.88 C408.582,583.815 415.174,586.088 419.393,594.729 L457.894,784.343 C457.944,784.455 457.994,784.566 457.989,784.703 459.507,791.068 459.85,796.014 459.025,799.405 L459.05,799.461 C457.782,802.313 455.026,804.693 450.838,806.575 L373.949,841.129 C364.903,845.194 358.255,842.947 354.062,834.361 L315.535,644.692 315.555,644.884 C314.288,637.735 314.012,632.49 314.775,629.261 Q316.561,625.17 322.647,622.435 L399.536,587.88z"/>
            </g>
          </g>
        </g>
      </g>
    </g>
  </g>
  <g id="Calque.__201">
    <g id="Symbole.__209_1" overflow="visible">
      <g id="Calque.__211">
        <g id="shape28">
          <path id="path19" fill="#33CCFF" fill-opacity="1" d="M742.274,148.404 C751.584,145.91 760.419,147.077 768.78,151.904 Q781.302,159.135 785.082,173.121 C787.565,182.45 786.398,191.285 781.57,199.646 778.698,204.621 775.036,208.56 770.566,211.453 L770.414,211.542 720.477,249.321 C719.748,249.884 711.93,256.216 711.065,256.448 710.2,256.68 709.385,256.562 708.609,256.114 707.834,255.667 707.306,255.009 707.074,254.143 706.842,253.278 708.114,245.614 708.295,244.558 L716.344,179.64 C716.692,174.494 718.253,169.519 721.038,164.695 725.866,156.334 732.934,150.906 742.274,148.404z"/>
        </g>
      </g>
    </g>
    <g id="Symbole.__209_2" overflow="visible">
      <g id="Calque.__212">
        <g id="shape29">
          <path id="path20" fill="#33CCFF" fill-opacity="1" d="M908.66,356.474 C914.179,366.033 915.507,376.152 912.645,386.832 Q908.359,402.828 894.007,411.155 C884.424,416.667 874.304,417.995 863.624,415.133 857.269,413.43 851.826,410.547 847.302,406.46 L847.158,406.318 790.563,362.276 C789.725,361.636 780.403,354.865 779.89,353.977 779.377,353.088 779.265,352.152 779.531,351.161 779.796,350.171 780.368,349.391 781.256,348.878 782.145,348.365 791,347.501 792.222,347.388 L866.42,337.048 C872.216,335.908 878.183,336.16 884.344,337.811 895.024,340.673 903.124,346.884 908.66,356.474z"/>
        </g>
      </g>
    </g>
    <g id="Symbole.__209_3" overflow="visible">
      <g id="Calque.__213">
        <g id="shape30">
          <path id="path21" fill="#33CCFF" fill-opacity="1" d="M839.572,249.78 C845.439,251.352 849.894,254.773 852.937,260.044 Q857.493,267.937 855.148,276.762 C853.564,282.636 850.143,287.091 844.873,290.134 841.737,291.944 838.497,292.94 835.145,293.111 L835.034,293.111 795.87,297.995 C795.295,298.073 789.032,299.065 788.487,298.919 787.942,298.773 787.534,298.452 787.252,297.963 786.969,297.474 786.888,296.949 787.035,296.403 787.181,295.858 790.291,292.076 790.722,291.556 L815.574,258.658 C817.386,255.959 819.806,253.735 822.846,251.98 828.116,248.937 833.685,248.202 839.572,249.78z"/>
        </g>
      </g>
    </g>
  </g>
</svg>