<?xml version="1.0" encoding="utf-8"?>
<!-- Generator: flash2svg, http://dissentgraphics.com/tools/flash2svg -->
<svg id="Apps-SnippetsLab" image-rendering="optimizeSpeed" baseProfile="basic" version="1.1" style="background-color:#FFFFFF" x="0px" y="0px" width="1024px" height="1024px" viewBox="0 0 1024 1024" enable-background="new 0 0 1024 1024" xmlns="http://www.w3.org/2000/svg" xmlns:xlink="http://www.w3.org/1999/xlink">
  <defs transform="matrix(1 0 0 1 0 0) "/>
  <g id="background-circle-shadow">
    <g id="shape">
      <path id="path" fill="#000000" fill-opacity="0.09803921568627451" d="M969.6,351.25 Q961,330.4 950.2,310.4 C946.15,302.85 941.85,295.35 937.3,288 917.75,256.3 893.9,226.35 865.75,198.2 773.6,106.05 662.3,59.95 531.95,59.95 401.6,59.95 290.35,106.05 198.2,198.2 106.05,290.35 59.95,401.6 59.95,531.95 59.95,662.3 106.05,773.6 198.2,865.75 290.35,957.9 401.6,1003.95 531.95,1003.95 662.3,1003.95 773.6,957.9 865.75,865.75 916.5,814.95 953.3,758.35 976.1,696 994.65,645.15 1003.95,590.5 1003.95,531.95 1003.95,487.05 998.5,444.4 987.55,404 986.3,399.45 985,394.9 983.65,390.4 979.55,377.1 974.85,364.05 969.6,351.25z"/>
    </g>
  </g>
  <g id="background-circle">
    <g id="shape2">
      <path id="path1" fill="#323843" fill-opacity="1" d="M966.05,378.4 C965.05,375 964.05,371.55 962.9,367.9 961.3,362.75 959.5,357.4 957.6,352.05 951.15,333.8 943.45,316 934.45,298.4 930.65,291 926.5,283.45 922.15,276 901.85,241.5 876.35,208.8 845.8,178.25 773.2,105.65 688.65,61.6 592.15,46.2 575.9,43.6 559.35,41.8 542.1,40.85 532.4,40.3 522.25,40 512,40 502.65,40 493.4,40.25 484.1,40.75 365.75,46.85 263.8,92.7 178.25,178.25 Q40,316.5 40,512 C40,642.35 86.1,753.65 178.25,845.8 234.95,902.45 298.8,941.7 369.35,963.35 406.1,974.6 444.15,981.2 484.1,983.3 484.25,983.3 484.35,983.3 484.5,983.3 493,983.75 501.1,984 509,984 510.2,984 511.1,984 512,984 522.3,984 532.5,983.7 542.1,983.2 544.6,983.05 546.85,982.9 549.05,982.75 569.25,981.3 588.95,978.7 607.75,975.05 615.7,973.5 623.55,971.75 631.15,969.9 711.95,949.6 783.3,908.3 845.8,845.8 894.4,797.2 930.2,743.3 953.15,684 971.6,636.35 981.8,585.2 983.7,530.5 983.9,524.45 984,518.25 984,512 984,511.35 984,510.65 984,510 984,509.65 984,509.35 984,509 983.8,468.35 979.05,429.5 969.7,392 968.6,387.65 967.35,383 966.05,378.4z"/>
    </g>
  </g>
  <g id="background-circle1">
    <g id="shape4">
      <path id="path2" fill="#000000" fill-opacity="0.2" d="M983.7,530.5 C983.75,529.45 983.8,528.4 983.8,527.2 L745,288.4 307.55,271.95 286.65,374 347.475,434.825 376.6,482 235.6,612 274,734.95 522.95,983.9 Q532.605,983.712 542.1,983.2 C544.6,983.05 546.85,982.9 549.05,982.75 569.25,981.3 588.95,978.7 607.75,975.05 615.7,973.5 623.55,971.75 631.15,969.9 711.95,949.6 783.3,908.3 845.8,845.8 894.4,797.2 930.2,743.3 953.15,684 971.6,636.35 981.8,585.2 983.7,530.5z"/>
    </g>
  </g>
  <g id="object-shadow">
    <g id="shape6">
      <path id="path3" fill="#3BD3B3" fill-opacity="1" d="M477.2,193.3 C471,187.1 463.5,184 454.75,184 446,184 438.5,187.1 432.3,193.3 426.1,199.5 423,207 423,215.75 423,224.5 426.1,232 432.3,238.2 438.5,244.4 446,247.5 454.75,247.5 463.5,247.5 471,244.4 477.2,238.2 483.4,232 486.5,224.5 486.5,215.75 486.5,207 483.4,199.5 477.2,193.3z M538.6,231.6 C536.2,234 535,236.9 535,240.25 535,243.6 536.2,246.5 538.6,248.9 541,251.3 543.9,252.5 547.25,252.5 550.6,252.5 553.5,251.3 555.9,248.9 558.3,246.5 559.5,243.6 559.5,240.25 559.5,236.9 558.3,234 555.9,231.6 553.5,229.2 550.6,228 547.25,228 543.9,228 541,229.2 538.6,231.6z M749.85,688.8 L749.9,688.75 C758.3,676.9 762.45,663.35 762.4,648 762.45,630.75 757.15,615.7 746.55,602.85 L652.1,508.35 C648.95,505.2 647.4,501.4 647.4,497 L647.4,451 C647.4,450.5 647.4,450 647.45,449.5 647.4,449.1 647.4,448.7 647.4,448.25 627.05,445.85 606.95,445.45 587,447 566.7,449.05 548.35,454.7 532,464 520.15,470.35 507.35,476.65 493.65,483 474.15,492.55 453.95,500.9 433,508 415.85,513.45 397.85,515.75 379,515 374.6,514.85 370.4,514.5 366.35,513.95 L366.325,513.925 L277.45,602.85 C266.85,615.7 261.55,630.75 261.6,648 261.55,663.35 265.7,676.9 274.1,688.75 L274.15,688.8 C276.6,692.3 279.45,695.65 282.65,698.85 296.3,712.5 312.65,719.5 331.7,719.95 L692.35,719.95 C711.4,719.5 727.7,712.5 741.35,698.85 744.55,695.65 747.4,692.3 749.85,688.8z M484.2,435.4 C477.9,429.1 470.3,425.95 461.35,425.95 452.4,425.95 444.8,429.1 438.45,435.4 432.15,441.75 429,449.35 429,458.3 429,467.25 432.15,474.85 438.45,481.15 444.8,487.5 452.4,490.65 461.35,490.65 470.3,490.65 477.9,487.5 484.2,481.15 490.55,474.85 493.7,467.25 493.7,458.3 493.7,449.35 490.55,441.75 484.2,435.4z M554.55,377.5 C549,371.95 542.3,369.2 534.45,369.2 526.6,369.2 519.85,371.95 514.3,377.5 508.75,383.05 506,389.8 506,397.65 506,405.5 508.75,412.2 514.3,417.75 519.85,423.3 526.6,426.1 534.45,426.1 542.3,426.1 549,423.3 554.55,417.75 560.1,412.2 562.9,405.5 562.9,397.65 562.9,389.8 560.1,383.05 554.55,377.5z"/>
      <path id="path6" fill="#FFFFFF" fill-opacity="1" d="M679.5,382.05 L716.45,382.05 C733.8,382.05 742.5,373.35 742.5,356 L742.5,298 C742.5,280.65 733.8,271.95 716.45,271.95 L307.55,271.95 C290.2,271.95 281.5,280.65 281.5,298 L281.5,356 C281.5,373.35 290.2,382.05 307.55,382.05 L344.5,382.05 344.5,448 C344.5,448.5 344.5,449 344.55,449.5 344.5,450 344.5,450.5 344.5,451 L344.5,490.35 266.65,568.3 C264.35,570.2 262.1,572.25 259.95,574.4 257.7,576.65 255.55,579 253.55,581.4 253.5,581.5 253.4,581.6 253.35,581.7 253.15,581.9 252.95,582.1 252.8,582.35 237.3,601 229.55,622.9 229.5,648 229.55,670.25 235.7,689.95 247.85,707.2 247.85,707.25 247.85,707.25 247.9,707.3 251.35,712.25 255.4,717 259.95,721.55 279.65,741.25 303.3,751.4 330.95,752.05 331.1,752.05 331.2,752.05 331.3,752.05 L692.7,752.05 C692.8,752.05 692.95,752.05 693.1,752.05 720.7,751.4 744.35,741.25 764.05,721.55 768.6,717 772.65,712.25 776.1,707.3 776.1,707.25 776.1,707.25 776.15,707.2 788.3,689.95 794.45,670.25 794.5,648 794.45,622.75 786.65,600.8 771,582.05 770.95,582 770.9,581.95 770.9,581.9 770.8,581.85 770.75,581.75 770.7,581.7 770.6,581.6 770.5,581.5 770.45,581.4 770.3,581.25 770.2,581.15 770.05,581 768.2,578.75 766.2,576.55 764.05,574.4 761.9,572.25 759.7,570.2 757.45,568.3 L679.5,490.35 679.5,451 C679.5,450.5 679.5,450 679.45,449.5 679.5,449 679.5,448.5 679.5,448 L679.5,382.05z M652.1,354.65 C648.95,357.8 647.4,361.55 647.4,366 L647.4,448 C647.4,448.1 647.4,448.2 647.4,448.25 627.05,445.85 606.95,445.45 587,447 566.7,449.05 548.35,454.7 532,464 520.15,470.35 507.35,476.65 493.65,483 474.15,492.55 453.95,500.9 433,508 415.85,513.45 397.85,515.75 379,515 374.6,514.85 370.4,514.5 366.35,513.95 L366.325,513.925 L371.9,508.35 C375.05,505.2 376.6,501.4 376.6,497 L376.6,451 C376.6,450.5 376.6,450 376.55,449.5 376.6,449 376.6,448.5 376.6,448 L376.6,366 C376.6,361.55 375.05,357.8 371.9,354.65 368.75,351.5 365,349.95 360.55,349.95 L313.6,349.95 313.6,304.05 710.4,304.05 710.4,349.95 663.45,349.95 Q656.8,349.95 652.1,354.65z"/>
    </g>
  </g>
</svg>