<?xml version="1.0" encoding="utf-8"?>
<!-- Generator: flash2svg, http://dissentgraphics.com/tools/flash2svg -->
<svg xmlns:xlink="http://www.w3.org/1999/xlink" id="Anki" image-rendering="optimizeSpeed" baseProfile="basic" version="1.1" style="background-color:#ffffff" x="0px" y="0px" width="1024px" height="1024px" viewBox="0 0 1024 1024" enable-background="new 0 0 1024 1024" xmlns="http://www.w3.org/2000/svg">
  <defs transform="matrix(1 0 0 1 0 0) "/>
  <g id="shadow">
    <g id="shape">
      <path id="path" fill="#000000" fill-opacity="0.09803921568627451" d="M969.65,351.3 Q961.05,330.45 950.25,310.45 C946.2,302.9 941.9,295.4 937.35,288.05 917.8,256.35 893.95,226.4 865.8,198.25 773.65,106.1 662.35,60 532,60 401.65,60 290.4,106.1 198.25,198.25 106.1,290.4 60,401.65 60,532 60,662.35 106.1,773.65 198.25,865.8 290.4,957.95 401.65,1004 532,1004 662.35,1004 773.65,957.95 865.8,865.8 916.55,815 953.35,758.4 976.15,696.05 994.7,645.2 1004,590.55 1004,532 1004,487.1 998.55,444.45 987.6,404.05 986.35,399.5 985.05,394.95 983.7,390.45 979.6,377.15 974.9,364.1 969.65,351.3z"/>
    </g>
  </g>
  <g id="bg">
    <g id="shape2">
      <path id="path1" fill="#4098E7" fill-opacity="1" d="M966.1,378.45 C965.1,375.05 964.1,371.6 962.95,367.95 961.35,362.8 959.55,357.45 957.65,352.1 951.2,333.85 943.5,316.05 934.5,298.45 930.7,291.05 926.55,283.5 922.2,276.05 901.9,241.55 876.4,208.85 845.85,178.3 773.25,105.7 688.7,61.65 592.2,46.25 575.95,43.65 559.4,41.85 542.15,40.9 532.45,40.35 522.3,40.05 512.05,40.05 502.7,40.05 493.45,40.3 484.15,40.8 365.8,46.9 263.85,92.75 178.3,178.3 Q40.05,316.55 40.05,512.05 C40.05,642.4 86.15,753.7 178.3,845.85 235,902.5 298.85,941.75 369.4,963.4 406.15,974.65 444.2,981.25 484.15,983.35 484.3,983.35 484.4,983.35 484.55,983.35 493.05,983.8 501.15,984.05 509.05,984.05 510.25,984.05 511.15,984.05 512.05,984.05 522.35,984.05 532.55,983.75 542.15,983.25 544.65,983.1 546.9,982.95 549.1,982.8 569.3,981.35 589,978.75 607.8,975.1 615.75,973.55 623.6,971.8 631.2,969.95 712,949.65 783.35,908.35 845.85,845.85 894.45,797.25 930.25,743.35 953.2,684.05 971.65,636.4 981.85,585.25 983.75,530.55 983.95,524.5 984.05,518.3 984.05,512.05 984.05,511.4 984.05,510.7 984.05,510.05 984.05,509.7 984.05,509.4 984.05,509.05 983.85,468.4 979.1,429.55 969.75,392.05 968.65,387.7 967.4,383.05 966.1,378.45z"/>
    </g>
  </g>
  <g id="Calque.__208">
    <g id="shape4">
      <path id="path2" fill="#CCCCCC" fill-opacity="1" d="M706.55,194.55 C705.7,196.05 704.95,197.1 704.55,197.85 704.2,198.25 703.95,198.55 703.9,198.85 703.65,199.2 703.45,199.65 703.4,199.95 703.05,200.3 702.75,200.8 702.3,201.55 702,202.25 701.75,202.75 701.5,203.15 698.3,209.3 695.35,216.25 692.55,224.05 690.45,229.8 688.1,237 685.55,245.75 685.45,246 685.35,246.35 685.35,246.75 685.15,247.35 684.85,248.05 684.65,248.95 684.2,250.5 684.05,251.25 684.05,251.3 683.8,251.65 683.65,252.05 683.55,252.65 683.5,252.95 683.4,253.45 683.3,254.05 683,254.5 682.9,255 683,255.4 682.6,255.85 682.45,256.5 682.5,257.3 682.25,257.4 682.15,257.6 682.15,257.9 682.15,258.05 682.15,258.3 682.15,258.55 682,258.7 681.95,258.95 681.85,259.35 681.75,259.6 681.75,259.85 681.7,260.25 681.45,260.65 681.35,261 681.35,261.35 L681.1,262.15 C681.05,262.7 680.95,263.05 680.95,263.25 680.75,263.45 680.6,263.6 680.4,263.75 679.95,263.7 679.65,263.7 679.3,263.75 679,263.7 678.7,263.55 678.5,263.45 678.15,263.45 677.9,263.45 677.75,263.4 677.5,263.4 677.35,263.4 677.1,263.45 676.85,263.45 676.6,263.45 676.45,263.4 676.2,263.4 675.95,263.45 675.8,263.55 675.4,263.1 674.95,263.05 674.75,263.2 674,263.1 673.25,263.1 672.5,263.2 672,262.8 671.45,262.7 670.7,262.95 670.05,262.9 669.55,262.8 669.25,262.7 668.65,262.65 668.1,262.65 667.65,262.7 665.55,262.45 662.75,262.3 659.3,262.2 654.9,262.05 652.1,262 650.85,261.9 647.75,261.8 645.5,261.7 644.1,261.7 641.55,261.7 639.25,261.8 637.3,262.05 632.45,262.05 628.2,262.3 624.4,262.9 619.1,263.25 614.75,264.05 611.25,265.1 608.7,265.5 606.75,266.1 605.35,267 604.4,267.2 603.6,267.5 602.85,267.85 602.05,268.3 601.3,268.75 600.75,269.35 600.1,269.6 599.45,270.1 598.75,270.75 598.55,271 598.05,271.55 597.15,272.55 595.35,274.9 595,278.3 596.15,282.45 L596.35,282.55 C596.4,283.1 596.65,283.85 597.05,284.65 L598.05,286.7 598.3,286.8 C598.55,287.35 598.85,288 599.35,288.75 599.6,289.2 600,289.75 600.6,290.65 600.65,290.75 600.9,290.9 601.15,291.3 601.3,291.7 601.55,291.9 601.8,291.9 602.05,292.45 602.5,293 603.15,293.75 603.95,294.65 604.4,295.2 604.7,295.5 605.1,295.8 605.9,296.8 607.2,298.35 608.3,299.6 609.2,300.4 610.1,300.8 610.85,301.7 611.7,302.6 612.8,303.6 613.2,304 614.15,304.8 615.75,306.15 624.85,314.1 635,321.7 646.1,328.85 647.2,329.9 648.45,330.6 649.75,331.1 650.15,331.6 650.8,332.1 651.8,332.5 651.95,332.75 652.2,332.9 652.6,333.1 652.7,333.15 652.9,333.3 653.5,333.6 653.65,333.8 653.85,333.9 653.9,334 654.1,334.15 654.25,334.25 654.45,334.15 654.6,334.4 654.65,334.55 654.9,334.65 655.05,334.7 655.3,334.9 655.55,334.95 655.65,335.15 655.7,335.3 655.95,335.35 656.05,335.35 656.3,335.45 656.65,335.55 656.7,335.7 656.8,335.85 657,336 657.2,336.1 657.45,336.2 657.7,336.3 L658.25,336.5 C658.5,336.75 658.55,336.9 658.55,337 658.7,337.2 658.55,337.35 658.5,337.55 658.35,337.7 658.2,337.75 658.1,338 658,338.25 658,338.4 658,338.65 657.75,338.9 657.7,339.15 657.75,339.45 657.5,339.55 657.35,339.6 657.3,339.9 657.2,340.1 657.2,340.3 657.3,340.55 657,340.8 656.85,341 656.85,341.35 656.7,341.45 656.5,341.65 656.45,341.95 656.35,342.15 656.35,342.4 656.45,342.65 656.05,342.75 655.9,343.15 655.8,343.8 655.55,344.05 655.4,344.4 655.3,344.8 655.15,345.2 655.05,345.55 655.05,345.85 654.4,346.6 653.9,347.75 653.65,349.2 653.25,349.7 652.9,350.45 652.6,351.4 652.2,352.65 651.85,353.4 651.7,353.75 647.95,363.65 644.7,373.4 642.1,382.8 642.05,383.35 641.6,384.85 641.05,387.05 640.55,388.8 640.3,390.25 640.25,391.4 L640,391.4 C639.75,392.95 639.4,395.35 638.85,398.35 638.4,401.1 638.35,403.35 638.4,405.35 638.25,406.75 638.25,408.2 638.4,409.65 638.35,410 638.35,410.5 638.5,411.05 638.7,411.8 638.75,412.3 638.75,412.6 638.75,412.7 638.85,413.05 638.9,413.75 639,414.25 639.15,414.6 639.4,414.85 639.5,415.75 639.75,416.65 640.3,417.65 640.65,418.2 641.2,418.95 642.05,420 643,421.25 644.35,422.05 646.05,422.55 647.45,423 649.1,423.2 650.8,423.1 651.3,423.1 652.05,423 653,422.85 654,422.7 654.75,422.6 655.25,422.6 L655.3,422.35 C657.1,422.3 658.4,421.9 659.3,421.3 659.55,421.3 659.75,421.3 659.95,421.25 660.05,421.15 660.3,421.05 660.6,420.95 664.05,419.75 667.65,418.1 671.45,416.15 671.5,416.05 671.85,415.9 672.6,415.6 673.05,415.3 673.4,415.1 673.55,414.85 674.45,414.4 675.45,413.95 676.6,413.25 677.85,412.55 678.85,411.95 679.4,411.55 682.8,409.5 686.55,407.15 690.45,404.45 693.3,402.45 696.8,399.9 701,396.8 701.25,396.65 702.95,395.45 706.1,393.05 708.15,391.5 709.8,390.15 710.95,389 712.15,388.45 713.15,387.65 713.95,386.55 714.85,386.15 715.45,385.75 715.75,385.2 716,385.1 716.35,384.85 716.65,384.6 717.1,384.2 717.3,383.95 717.4,383.85 717.65,383.8 717.8,383.7 718.05,383.45 718.15,383.35 718.2,383.15 718.45,382.8 718.95,382.8 719.45,382.5 719.85,381.75 720.2,381.6 720.4,381.5 720.5,381.45 720.75,381.3 720.85,381.15 720.9,380.95 721.25,380.75 721.55,380.75 722,380.85 722.05,381.1 722.15,381.3 722.3,381.5 722.55,381.75 722.75,381.75 722.95,381.65 723.05,382 723.3,382.25 723.55,382.3 723.95,383.05 724.5,383.45 725.15,383.55 725.25,383.8 725.45,384.05 725.65,384.2 725.85,384.45 726,384.6 726.25,384.7 726.35,384.95 726.55,385.1 726.85,385.25 727,385.35 727.2,385.5 727.65,385.75 727.8,386.1 728.05,386.4 728.45,386.75 728.6,386.8 728.95,387.05 729.5,387.4 729.7,387.75 730,388.05 730.45,388.4 730.65,388.55 731,388.8 731.5,389.2 731.75,389.3 732.05,389.6 732.55,390.1 732.95,390.5 733.35,390.85 733.8,390.9 733.85,391.15 734.05,391.35 734.25,391.5 743.35,398.95 752.05,405.35 760.5,410.75 L767.05,414.85 C769.6,416.3 771.8,417.45 773.85,418.3 L773.9,418.5 C776.8,419.85 779.5,420.9 781.85,421.75 782.35,421.95 783,422.1 783.85,422.1 L783.9,422.3 C784.4,422.35 785.25,422.55 786.3,422.8 787.2,422.95 788,423 788.7,422.95 L788.7,423.2 C792,423.3 794.9,422.55 797.1,421.05 798.1,420.15 798.9,419.2 799.65,417.95 800.35,416.7 800.8,415.5 800.95,414.2 801.7,412.15 802,410.35 801.75,408.85 801.85,406.95 801.85,404.25 801.75,400.6 L801.5,400.5 C801.6,399.35 801.45,397.95 801.2,396.3 800.8,393.6 800.55,392.3 800.55,392.2 799.55,386.55 798.15,380.5 796.3,374.05 794.9,369.15 793.1,363.2 790.75,356.25 790.45,355.7 790,354.4 789.4,352.5 788.85,350.95 788.35,349.8 787.95,348.9 787.75,348.25 787.5,347.45 787.1,346.35 786.65,345.1 786.3,344.3 786.2,343.9 L785.95,343.8 C785.9,343.25 785.8,342.9 785.7,342.65 785.55,342.15 785.4,341.85 785.15,341.65 785.05,341.3 785.05,341 785.05,340.85 784.95,340.55 784.8,340.35 784.65,340.3 784.6,339.95 784.6,339.75 784.5,339.55 784.4,339.25 784.3,339.05 784.1,338.95 784.1,338.65 784,338.35 783.75,338.05 783.75,337.85 783.75,337.55 783.65,337.35 783.6,337 783.5,336.85 783.25,336.75 783.35,336.5 783.2,336.2 782.9,335.95 783,335.8 782.9,335.65 782.85,335.35 782.75,335.15 782.6,334.95 782.45,334.9 L782.7,333.8 783.25,333.8 783.25,333.65 C783.6,333.65 783.85,333.6 784.1,333.3 784.4,333.1 784.6,333 784.65,333 784.9,332.9 785.05,332.75 785.15,332.5 785.4,332.5 785.7,332.45 785.95,332.25 786.2,332.1 786.35,331.95 786.45,331.7 786.65,331.6 786.85,331.55 787.2,331.35 787.5,331.25 787.75,331.1 787.85,330.95 788.1,330.9 788.35,330.7 788.75,330.45 789.15,330.3 789.4,330.15 789.5,329.9 790.3,329.65 791.05,329.2 791.6,328.5 792.2,328.35 792.75,328 793.5,327.6 793.6,327.5 794.05,327.1 795.15,326.35 L795.55,326.2 C801.35,322.5 806.35,319.15 810.55,316.2 815.8,312.45 820.5,308.75 824.8,305.15 825.25,304.75 826.1,304.1 827.15,303.25 828.05,302.55 828.8,301.8 829.3,301.05 829.7,301 830.05,300.7 830.45,300.3 831.05,299.65 831.4,299.3 831.5,299.25 833.4,297.4 834.7,296 835.45,295.2 836.9,293.65 838.05,292.2 838.95,290.9 839.55,290.5 840.1,289.75 840.65,288.85 840.95,288.35 841.35,287.65 841.9,286.55 842.35,285.95 842.7,285.3 843.05,284.65 843.5,283.9 843.7,283.2 843.8,282.55 L844.05,282.45 C844.55,280.75 844.7,279.1 844.6,277.45 844.55,275.65 844.05,274.1 843.15,272.7 842.5,271.95 841.9,271.3 841.5,270.8 840.8,270.15 840.1,269.7 839.45,269.35 838.55,268.45 837.25,267.7 835.5,267.15 834.15,266.5 833.25,266.1 832.95,266 832,265.6 831.1,265.45 830.3,265.3 829.95,265.1 829.55,264.95 829.05,264.75 828.5,264.7 828,264.6 827.65,264.5 825.75,264.05 824.3,263.7 823.4,263.55 821.7,263.1 820.2,262.95 818.95,262.95 817.6,262.55 815.85,262.3 813.65,262.05 811.25,261.9 809.5,261.7 808.35,261.55 807.1,261.5 805.3,261.35 803.05,261.25 800.65,261.15 798.9,261.05 797.85,261 791.7,261 787.1,261 784.1,261 778.65,261 774.1,261.05 770.3,261.35 769.9,261.25 769.5,261.35 768.9,261.4 768.35,261.5 767.95,261.55 767.6,261.65 767.3,261.55 766.85,261.5 766.4,261.5 765.8,261.55 765.5,261.55 765.25,261.55 765,261.5 764.75,261.5 764.5,261.55 764.25,261.65 764,261.7 763.85,261.9 L761.95,261.9 C761.8,261.8 761.55,261.7 761.3,261.8 761,261.9 760.7,261.9 760.65,261.9 760.35,261.8 760.05,261.7 760,261.7 759.65,261.8 759.5,261.9 759.5,262.15 759.15,262.05 758.85,262.05 758.45,262.15 L757.6,262.15 756.9,261.65 C756.95,261.35 756.95,261.05 756.95,260.9 756.95,260.65 756.9,260.5 756.65,260.4 L756.65,259.65 C756.65,259.35 756.55,258.95 756.3,258.45 756.25,258.05 756.25,257.8 756.15,257.6 756.15,257.3 756.05,257.05 755.9,256.95 755.9,256.4 755.8,255.85 755.55,255.4 755.55,255.2 755.55,255 755.5,254.75 755.4,254.45 755.35,254.2 755.25,254.1 755.15,253.65 755.15,253.3 755.15,253.2 755.05,252.8 754.9,252.55 754.75,252.4 754.75,251.3 754.6,250.5 754.2,249.75 753.85,247.8 753.45,246.25 752.95,245.1 750.8,236.1 747.7,226.25 743.7,215.55 742.15,211.65 741.05,209.05 740.4,207.55 739.1,204.65 737.8,202.1 736.5,199.95 736.5,199.65 736.4,199.3 736.15,199 735.9,198.55 735.65,198.35 735.6,198.15 734.7,196.7 734.05,195.6 733.55,194.9 732.7,193.65 731.9,192.6 731.15,191.85 L731.1,191.35 C730.8,191.2 730.25,190.55 729.2,189.45 728.45,188.65 727.7,188.1 727.05,187.85 726.5,187.1 725.6,186.45 724.45,185.95 723.8,185.7 722.75,185.35 721.35,185 720,184.8 718.65,185 717.15,185.35 715.95,185.8 714.7,186.45 713.45,187.35 L713.4,187.6 C713,187.7 712.5,188 712,188.5 711.35,189.15 710.95,189.55 710.85,189.65 710.5,189.8 710.2,190.15 709.85,190.55 709.55,191.05 709.3,191.35 709.05,191.6 708.3,192.35 707.5,193.35 706.55,194.55z M656.55,516.4 C655.45,516.25 654.5,516.05 653.9,515.9 650.3,515 647.5,514.35 645.8,514.05 642.5,513.25 639.7,512.95 637.35,512.95 634.7,512.15 631.45,511.7 627.25,511.25 622.7,510.9 619.3,510.6 617.1,510.3 614.75,510.15 611.35,509.85 607.1,509.7 602.45,509.5 599.15,509.35 597.15,509.2 585.45,509.2 576.7,509.2 570.95,509.2 560.65,509.2 551.95,509.35 544.75,509.85 544,509.7 543.2,509.85 542.1,510 541,510.15 540.25,510.3 539.6,510.45 539,510.3 538.2,510.15 537.3,510.15 536.2,510.3 535.55,510.3 535.1,510.3 534.65,510.15 534.15,510.15 533.7,510.3 533.2,510.45 532.75,510.6 532.45,510.9 L528.85,510.9 C528.55,510.75 528.1,510.6 527.6,510.75 527,510.9 526.5,510.9 526.35,510.9 525.75,510.75 525.25,510.6 525.1,510.6 524.5,510.75 524.2,510.9 524.2,511.4 523.55,511.25 522.95,511.25 522.15,511.4 L520.6,511.4 519.2,510.45 C519.35,509.85 519.35,509.35 519.35,509.05 519.35,508.6 519.2,508.25 518.75,508.1 L518.75,506.7 C518.75,506.1 518.55,505.3 518.1,504.4 517.95,503.6 517.95,503.15 517.8,502.8 517.8,502.2 517.65,501.75 517.3,501.55 517.3,500.5 517.15,499.4 516.7,498.6 516.7,498.15 516.7,497.85 516.55,497.35 516.4,496.75 516.25,496.25 516.1,496.1 515.9,495.2 515.9,494.55 515.9,494.4 515.75,493.6 515.45,493.15 515.15,492.85 515.15,490.8 514.85,489.25 514.05,487.85 513.45,484.1 512.65,481.15 511.7,478.95 507.65,461.8 501.75,443.1 494.1,422.7 491.15,415.35 489.1,410.35 487.85,407.55 485.35,401.95 482.85,397.1 480.4,393.05 480.4,392.45 480.2,391.8 479.75,391.2 479.3,390.4 478.8,389.95 478.65,389.65 476.95,386.85 475.7,384.8 474.75,383.4 473.2,381.05 471.65,379.05 470.25,377.65 L470.1,376.7 Q469.45,376.25 466.5,373.1 C465.1,371.55 463.7,370.45 462.45,370 461.35,368.6 459.65,367.35 457.45,366.4 456.2,365.95 454.2,365.3 451.55,364.55 449.05,364.25 446.4,364.55 443.6,365.3 441.25,366.1 438.9,367.35 436.55,369.05 L436.4,369.55 C435.65,369.7 434.7,370.3 433.75,371.25 432.5,372.5 431.75,373.25 431.6,373.45 430.95,373.75 430.35,374.35 429.7,375.15 429.1,376.1 428.6,376.7 428.15,377.15 426.75,378.55 425.2,380.45 423.45,382.8 421.75,385.6 420.35,387.6 419.6,389 418.95,389.8 418.5,390.4 418.35,390.9 417.85,391.65 417.55,392.45 417.4,393.05 416.75,393.7 416.15,394.65 415.35,396.05 414.75,397.45 414.3,398.35 413.8,399.15 407.75,410.85 402.1,424.1 396.8,438.9 392.75,449.8 388.25,463.55 383.4,480.2 383.25,480.7 383.1,481.3 383.1,482.1 382.65,483.2 382.15,484.6 381.7,486.3 380.9,489.25 380.6,490.65 380.6,490.8 380.15,491.45 379.8,492.2 379.65,493.3 379.5,493.95 379.35,494.85 379.2,495.95 378.6,496.9 378.4,497.85 378.6,498.6 377.8,499.4 377.5,500.65 377.65,502.2 377.15,502.35 377,502.8 377,503.3 377,503.6 377,504.05 377,504.55 376.7,504.85 376.55,505.3 376.4,506.1 376.25,506.55 376.25,507.05 376.1,507.8 375.6,508.6 375.45,509.2 375.45,509.85 L375,511.4 C374.85,512.5 374.7,513.1 374.7,513.55 374.35,513.9 374.05,514.2 373.6,514.5 372.8,514.35 372.2,514.35 371.55,514.5 370.95,514.35 370.45,514.05 370,513.9 369.4,513.9 368.9,513.9 368.6,513.75 368.15,513.75 367.8,513.75 367.35,513.9 366.9,513.9 366.4,513.9 366.1,513.75 365.65,513.75 365.15,513.9 364.85,514.05 364.1,513.25 363.3,513.1 362.85,513.4 361.45,513.25 360,513.25 358.6,513.4 357.7,512.65 356.6,512.5 355.2,512.95 353.95,512.8 353,512.65 352.4,512.5 351.3,512.35 350.2,512.35 349.4,512.5 345.35,512 340.05,511.7 333.5,511.55 325.1,511.25 319.8,511.1 317.45,510.9 311.55,510.75 307.2,510.6 304.55,510.6 299.7,510.6 295.35,510.75 291.6,511.25 282.4,511.25 274.3,511.7 267.1,512.8 257,513.55 248.7,515 242,517 237.2,517.8 233.45,518.9 230.8,520.6 229.05,521.05 227.5,521.55 226.1,522.3 224.55,523.1 223.15,524 222.05,525.1 220.8,525.6 219.55,526.5 218.3,527.75 217.85,528.25 216.9,529.3 215.2,531.2 211.75,535.7 211.15,542.1 213.35,550.05 L213.65,550.2 C213.8,551.3 214.25,552.7 215.05,554.25 L216.9,558.15 217.4,558.3 C217.85,559.4 218.45,560.65 219.4,562.05 219.9,562.85 220.65,563.95 221.75,565.65 221.9,565.8 222.35,566.1 222.85,566.9 223.15,567.65 223.6,568 224.1,568 224.55,569.05 225.35,570.15 226.6,571.55 228.15,573.3 229.05,574.35 229.55,574.85 230.3,575.45 231.9,577.35 234.35,580.3 236.4,582.65 238.1,584.2 239.85,584.95 241.25,586.7 242.95,588.4 244.95,590.3 245.75,591.05 247.6,592.6 250.6,595.1 267.9,610.25 287.2,624.75 308.4,638.3 310.45,640.3 312.8,641.7 315.3,642.65 316.05,643.6 317.3,644.55 319.2,645.3 319.5,645.75 319.95,646.1 320.75,646.4 320.9,646.55 321.35,646.85 322.45,647.35 322.75,647.8 323.1,647.95 323.25,648.1 323.55,648.4 323.85,648.6 324.3,648.4 324.5,648.9 324.65,649.2 325.1,649.35 325.4,649.5 325.9,649.85 326.35,650 326.5,650.3 326.65,650.6 327.15,650.75 327.3,650.75 327.75,650.9 328.4,651.05 328.55,651.4 328.7,651.7 329.15,652 329.45,652.15 329.95,652.3 330.4,652.5 L331.5,652.95 C331.95,653.4 332.1,653.7 332.1,653.9 332.3,654.2 332.1,654.5 331.95,654.95 331.65,655.15 331.35,655.3 331.2,655.75 331.05,656.2 331.05,656.55 331.05,657 330.55,657.45 330.4,657.95 330.55,658.55 330.1,658.7 329.8,658.85 329.65,659.35 329.45,659.8 329.45,660.1 329.65,660.6 329.15,661.05 328.85,661.5 328.85,662.15 328.55,662.3 328.2,662.75 328.05,663.25 327.9,663.7 327.9,664.15 328.05,664.65 327.3,664.8 327,665.55 326.8,666.8 326.35,667.3 326.05,667.9 325.9,668.7 325.55,669.45 325.4,670.1 325.4,670.7 324.15,672.1 323.25,674.3 322.75,677.1 322,678.05 321.35,679.45 320.75,681.3 319.95,683.65 319.35,685.05 319,685.7 311.85,704.55 305.75,723.1 300.8,741.05 300.65,742.1 299.85,744.9 298.75,749.15 297.8,752.4 297.35,755.2 297.2,757.4 L296.75,757.4 C296.25,760.35 295.65,764.9 294.55,770.65 293.75,775.8 293.6,780.15 293.75,783.9 293.45,786.55 293.45,789.35 293.75,792.15 293.6,792.8 293.6,793.7 293.95,794.8 294.25,796.2 294.4,797.15 294.4,797.75 294.4,797.95 294.55,798.55 294.7,799.95 294.85,800.9 295.15,801.5 295.65,802 295.8,803.7 296.25,805.4 297.35,807.3 298,808.35 299.05,809.8 300.65,811.8 302.5,814.15 305,815.7 308.25,816.65 310.9,817.55 314.05,817.9 317.3,817.75 318.25,817.75 319.65,817.55 321.5,817.25 323.4,816.95 324.8,816.8 325.75,816.8 L325.9,816.3 C329.3,816.15 331.8,815.4 333.5,814.3 334,814.3 334.3,814.3 334.75,814.15 334.95,814 335.4,813.85 336,813.65 342.55,811.35 349.4,808.2 356.6,804.5 356.75,804.3 357.35,804 358.8,803.4 359.7,802.9 360.35,802.45 360.65,802 362.35,801.2 364.25,800.25 366.4,799 368.75,797.6 370.65,796.5 371.7,795.75 378.25,791.85 385.3,787.35 392.75,782.2 398.2,778.45 404.9,773.6 412.85,767.7 413.35,767.35 416.6,765.05 422.55,760.5 426.45,757.55 429.55,755.05 431.75,752.85 434.1,751.8 435.95,750.2 437.5,748.2 439.2,747.4 440.3,746.65 440.95,745.55 441.4,745.4 442.05,744.9 442.65,744.45 443.45,743.7 443.9,743.2 444.05,743.05 444.5,742.9 444.85,742.75 445.3,742.25 445.45,742.1 445.6,741.65 446.1,741.05 447,741.05 447.95,740.4 448.75,739 449.35,738.7 449.8,738.55 450,738.4 450.45,738.2 450.6,737.9 450.75,737.45 451.4,737.15 452,737.15 452.8,737.3 452.95,737.75 453.1,738.2 453.4,738.55 453.85,739 454.2,739 454.65,738.85 454.8,739.45 455.3,739.95 455.75,740.1 456.5,741.5 457.6,742.25 458.85,742.45 459,742.9 459.35,743.35 459.8,743.7 460.1,744.15 460.4,744.45 460.9,744.6 461.05,745.1 461.5,745.4 462,745.7 462.3,745.85 462.75,746.15 463.55,746.65 463.85,747.25 464.3,747.9 465.1,748.5 465.4,748.65 466.05,749.15 467.1,749.75 467.45,750.4 468.05,751 468.85,751.65 469.3,751.95 469.95,752.4 470.85,753.2 471.35,753.35 471.95,753.95 472.9,754.9 473.65,755.7 474.45,756.3 475.25,756.45 475.4,756.95 475.7,757.25 476.15,757.55 493.45,771.75 510,783.9 526.05,794.2 L538.5,802 C543.35,804.8 547.55,806.95 551.45,808.55 L551.6,809 C557.1,811.5 562.2,813.5 566.75,815.1 567.7,815.55 568.9,815.85 570.5,815.85 L570.65,816.15 C571.55,816.3 573.15,816.65 575.15,817.1 576.9,817.4 578.45,817.55 579.7,817.4 L579.7,817.9 C586.05,818.05 591.55,816.65 595.75,813.85 597.6,812.1 599.15,810.25 600.55,807.9 601.95,805.55 602.75,803.25 603.05,800.75 604.45,796.85 605.1,793.4 604.6,790.6 604.8,787 604.8,781.85 604.6,774.85 L604.15,774.7 C604.3,772.5 604,769.85 603.55,766.75 602.75,761.6 602.3,759.1 602.3,758.95 600.4,748.2 597.75,736.65 594.2,724.35 591.55,715 588.1,703.75 583.6,690.5 583.1,689.4 582.2,686.95 581.1,683.35 580,680.4 579.05,678.2 578.3,676.5 577.95,675.25 577.5,673.7 576.7,671.65 575.8,669.3 575.15,667.75 575,667 L574.55,666.8 C574.4,665.75 574.2,665.1 574.05,664.65 573.75,663.7 573.45,663.1 573,662.75 572.8,662 572.8,661.5 572.8,661.2 572.65,660.6 572.35,660.25 572.05,660.1 571.9,659.5 571.9,659.05 571.75,658.7 571.55,658.1 571.4,657.8 570.95,657.6 570.95,657 570.8,656.4 570.35,655.9 570.35,655.45 570.35,654.95 570.15,654.5 570,653.9 569.85,653.55 569.4,653.4 569.55,652.95 569.25,652.3 568.75,651.85 568.9,651.55 568.75,651.25 568.6,650.75 568.45,650.3 568.15,650 567.85,649.85 L568.3,647.8 569.4,647.8 569.4,647.5 C570,647.5 570.5,647.35 570.95,646.85 571.55,646.4 571.9,646.25 572.05,646.25 572.5,646.1 572.8,645.75 573,645.3 573.45,645.3 574.05,645.15 574.55,644.85 575,644.55 575.3,644.2 575.45,643.75 575.8,643.6 576.25,643.45 576.9,643.1 577.5,642.95 577.95,642.65 578.1,642.35 578.6,642.2 579.05,641.9 579.85,641.4 580.6,641.1 581.1,640.8 581.25,640.3 582.8,639.85 584.2,639.05 585.3,637.65 586.4,637.35 587.5,636.75 588.9,635.95 589.05,635.8 589.95,635 592,633.6 L592.8,633.3 C603.85,626.3 613.35,619.9 621.3,614.3 631.3,607.1 640.3,600.1 648.45,593.25 649.35,592.45 650.95,591.2 652.95,589.65 654.65,588.25 656.05,586.85 657,585.45 657.8,585.3 658.4,584.8 659.2,584.05 660.3,582.8 661.05,582.15 661.2,582 664.8,578.45 667.3,575.8 668.7,574.35 671.5,571.4 673.7,568.6 675.4,566.1 676.5,565.35 677.6,563.95 678.65,562.2 679.15,561.3 679.9,559.9 681,557.85 681.8,556.75 682.55,555.5 683.2,554.25 684,552.85 684.45,551.45 684.6,550.2 L685.05,550.05 C686,546.8 686.3,543.65 686.15,540.55 686,537.1 685.05,534.15 683.35,531.5 682.1,530.1 681,528.85 680.25,527.9 678.85,526.65 677.6,525.75 676.35,525.1 674.6,523.4 672.15,522 668.85,520.9 666.2,519.65 664.5,518.9 664,518.7 662.15,517.95 660.45,517.65 658.9,517.45 658.25,517 657.45,516.7 656.55,516.4z"/>
    </g>
  </g>
  <mask id="Calque.__210">
    <g id="g">
      <g id="shape12">
        <path id="path8" fill="#FFFFFF" fill-opacity="1" d="M706.55,194.55 C705.7,196.05 704.95,197.1 704.55,197.85 704.2,198.25 703.95,198.55 703.9,198.85 703.65,199.2 703.45,199.65 703.4,199.95 703.05,200.3 702.75,200.8 702.3,201.55 702,202.25 701.75,202.75 701.5,203.15 698.3,209.3 695.35,216.25 692.55,224.05 690.45,229.8 688.1,237 685.55,245.75 685.45,246 685.35,246.35 685.35,246.75 685.15,247.35 684.85,248.05 684.65,248.95 684.2,250.5 684.05,251.25 684.05,251.3 683.8,251.65 683.65,252.05 683.55,252.65 683.5,252.95 683.4,253.45 683.3,254.05 683,254.5 682.9,255 683,255.4 682.6,255.85 682.45,256.5 682.5,257.3 682.25,257.4 682.15,257.6 682.15,257.9 682.15,258.05 682.15,258.3 682.15,258.55 682,258.7 681.95,258.95 681.85,259.35 681.75,259.6 681.75,259.85 681.7,260.25 681.45,260.65 681.35,261 681.35,261.35 L681.1,262.15 C681.05,262.7 680.95,263.05 680.95,263.25 680.75,263.45 680.6,263.6 680.4,263.75 679.95,263.7 679.65,263.7 679.3,263.75 679,263.7 678.7,263.55 678.5,263.45 678.15,263.45 677.9,263.45 677.75,263.4 677.5,263.4 677.35,263.4 677.1,263.45 676.85,263.45 676.6,263.45 676.45,263.4 676.2,263.4 675.95,263.45 675.8,263.55 675.4,263.1 674.95,263.05 674.75,263.2 674,263.1 673.25,263.1 672.5,263.2 672,262.8 671.45,262.7 670.7,262.95 670.05,262.9 669.55,262.8 669.25,262.7 668.65,262.65 668.1,262.65 667.65,262.7 665.55,262.45 662.75,262.3 659.3,262.2 654.9,262.05 652.1,262 650.85,261.9 647.75,261.8 645.5,261.7 644.1,261.7 641.55,261.7 639.25,261.8 637.3,262.05 632.45,262.05 628.2,262.3 624.4,262.9 619.1,263.25 614.75,264.05 611.25,265.1 608.7,265.5 606.75,266.1 605.35,267 604.4,267.2 603.6,267.5 602.85,267.85 602.05,268.3 601.3,268.75 600.75,269.35 600.1,269.6 599.45,270.1 598.75,270.75 598.55,271 598.05,271.55 597.15,272.55 595.35,274.9 595,278.3 596.15,282.45 L596.35,282.55 C596.4,283.1 596.65,283.85 597.05,284.65 L598.05,286.7 598.3,286.8 C598.55,287.35 598.85,288 599.35,288.75 599.6,289.2 600,289.75 600.6,290.65 600.65,290.75 600.9,290.9 601.15,291.3 601.3,291.7 601.55,291.9 601.8,291.9 602.05,292.45 602.5,293 603.15,293.75 603.95,294.65 604.4,295.2 604.7,295.5 605.1,295.8 605.9,296.8 607.2,298.35 608.3,299.6 609.2,300.4 610.1,300.8 610.85,301.7 611.7,302.6 612.8,303.6 613.2,304 614.15,304.8 615.75,306.15 624.85,314.1 635,321.7 646.1,328.85 647.2,329.9 648.45,330.6 649.75,331.1 650.15,331.6 650.8,332.1 651.8,332.5 651.95,332.75 652.2,332.9 652.6,333.1 652.7,333.15 652.9,333.3 653.5,333.6 653.65,333.8 653.85,333.9 653.9,334 654.1,334.15 654.25,334.25 654.45,334.15 654.6,334.4 654.65,334.55 654.9,334.65 655.05,334.7 655.3,334.9 655.55,334.95 655.65,335.15 655.7,335.3 655.95,335.35 656.05,335.35 656.3,335.45 656.65,335.55 656.7,335.7 656.8,335.85 657,336 657.2,336.1 657.45,336.2 657.7,336.3 L658.25,336.5 C658.5,336.75 658.55,336.9 658.55,337 658.7,337.2 658.55,337.35 658.5,337.55 658.35,337.7 658.2,337.75 658.1,338 658,338.25 658,338.4 658,338.65 657.75,338.9 657.7,339.15 657.75,339.45 657.5,339.55 657.35,339.6 657.3,339.9 657.2,340.1 657.2,340.3 657.3,340.55 657,340.8 656.85,341 656.85,341.35 656.7,341.45 656.5,341.65 656.45,341.95 656.35,342.15 656.35,342.4 656.45,342.65 656.05,342.75 655.9,343.15 655.8,343.8 655.55,344.05 655.4,344.4 655.3,344.8 655.15,345.2 655.05,345.55 655.05,345.85 654.4,346.6 653.9,347.75 653.65,349.2 653.25,349.7 652.9,350.45 652.6,351.4 652.2,352.65 651.85,353.4 651.7,353.75 647.95,363.65 644.7,373.4 642.1,382.8 642.05,383.35 641.6,384.85 641.05,387.05 640.55,388.8 640.3,390.25 640.25,391.4 L640,391.4 C639.75,392.95 639.4,395.35 638.85,398.35 638.4,401.1 638.35,403.35 638.4,405.35 638.25,406.75 638.25,408.2 638.4,409.65 638.35,410 638.35,410.5 638.5,411.05 638.7,411.8 638.75,412.3 638.75,412.6 638.75,412.7 638.85,413.05 638.9,413.75 639,414.25 639.15,414.6 639.4,414.85 639.5,415.75 639.75,416.65 640.3,417.65 640.65,418.2 641.2,418.95 642.05,420 643,421.25 644.35,422.05 646.05,422.55 647.45,423 649.1,423.2 650.8,423.1 651.3,423.1 652.05,423 653,422.85 654,422.7 654.75,422.6 655.25,422.6 L655.3,422.35 C657.1,422.3 658.4,421.9 659.3,421.3 659.55,421.3 659.75,421.3 659.95,421.25 660.05,421.15 660.3,421.05 660.6,420.95 664.05,419.75 667.65,418.1 671.45,416.15 671.5,416.05 671.85,415.9 672.6,415.6 673.05,415.3 673.4,415.1 673.55,414.85 674.45,414.4 675.45,413.95 676.6,413.25 677.85,412.55 678.85,411.95 679.4,411.55 682.8,409.5 686.55,407.15 690.45,404.45 693.3,402.45 696.8,399.9 701,396.8 701.25,396.65 702.95,395.45 706.1,393.05 708.15,391.5 709.8,390.15 710.95,389 712.15,388.45 713.15,387.65 713.95,386.55 714.85,386.15 715.45,385.75 715.75,385.2 716,385.1 716.35,384.85 716.65,384.6 717.1,384.2 717.3,383.95 717.4,383.85 717.65,383.8 717.8,383.7 718.05,383.45 718.15,383.35 718.2,383.15 718.45,382.8 718.95,382.8 719.45,382.5 719.85,381.75 720.2,381.6 720.4,381.5 720.5,381.45 720.75,381.3 720.85,381.15 720.9,380.95 721.25,380.75 721.55,380.75 722,380.85 722.05,381.1 722.15,381.3 722.3,381.5 722.55,381.75 722.75,381.75 722.95,381.65 723.05,382 723.3,382.25 723.55,382.3 723.95,383.05 724.5,383.45 725.15,383.55 725.25,383.8 725.45,384.05 725.65,384.2 725.85,384.45 726,384.6 726.25,384.7 726.35,384.95 726.55,385.1 726.85,385.25 727,385.35 727.2,385.5 727.65,385.75 727.8,386.1 728.05,386.4 728.45,386.75 728.6,386.8 728.95,387.05 729.5,387.4 729.7,387.75 730,388.05 730.45,388.4 730.65,388.55 731,388.8 731.5,389.2 731.75,389.3 732.05,389.6 732.55,390.1 732.95,390.5 733.35,390.85 733.8,390.9 733.85,391.15 734.05,391.35 734.25,391.5 743.35,398.95 752.05,405.35 760.5,410.75 L767.05,414.85 C769.6,416.3 771.8,417.45 773.85,418.3 L773.9,418.5 C776.8,419.85 779.5,420.9 781.85,421.75 782.35,421.95 783,422.1 783.85,422.1 L783.9,422.3 C784.4,422.35 785.25,422.55 786.3,422.8 787.2,422.95 788,423 788.7,422.95 L788.7,423.2 C792,423.3 794.9,422.55 797.1,421.05 798.1,420.15 798.9,419.2 799.65,417.95 800.35,416.7 800.8,415.5 800.95,414.2 801.7,412.15 802,410.35 801.75,408.85 801.85,406.95 801.85,404.25 801.75,400.6 L801.5,400.5 C801.6,399.35 801.45,397.95 801.2,396.3 800.8,393.6 800.55,392.3 800.55,392.2 799.55,386.55 798.15,380.5 796.3,374.05 794.9,369.15 793.1,363.2 790.75,356.25 790.45,355.7 790,354.4 789.4,352.5 788.85,350.95 788.35,349.8 787.95,348.9 787.75,348.25 787.5,347.45 787.1,346.35 786.65,345.1 786.3,344.3 786.2,343.9 L785.95,343.8 C785.9,343.25 785.8,342.9 785.7,342.65 785.55,342.15 785.4,341.85 785.15,341.65 785.05,341.3 785.05,341 785.05,340.85 784.95,340.55 784.8,340.35 784.65,340.3 784.6,339.95 784.6,339.75 784.5,339.55 784.4,339.25 784.3,339.05 784.1,338.95 784.1,338.65 784,338.35 783.75,338.05 783.75,337.85 783.75,337.55 783.65,337.35 783.6,337 783.5,336.85 783.25,336.75 783.35,336.5 783.2,336.2 782.9,335.95 783,335.8 782.9,335.65 782.85,335.35 782.75,335.15 782.6,334.95 782.45,334.9 L782.7,333.8 783.25,333.8 783.25,333.65 C783.6,333.65 783.85,333.6 784.1,333.3 784.4,333.1 784.6,333 784.65,333 784.9,332.9 785.05,332.75 785.15,332.5 785.4,332.5 785.7,332.45 785.95,332.25 786.2,332.1 786.35,331.95 786.45,331.7 786.65,331.6 786.85,331.55 787.2,331.35 787.5,331.25 787.75,331.1 787.85,330.95 788.1,330.9 788.35,330.7 788.75,330.45 789.15,330.3 789.4,330.15 789.5,329.9 790.3,329.65 791.05,329.2 791.6,328.5 792.2,328.35 792.75,328 793.5,327.6 793.6,327.5 794.05,327.1 795.15,326.35 L795.55,326.2 C801.35,322.5 806.35,319.15 810.55,316.2 815.8,312.45 820.5,308.75 824.8,305.15 825.25,304.75 826.1,304.1 827.15,303.25 828.05,302.55 828.8,301.8 829.3,301.05 829.7,301 830.05,300.7 830.45,300.3 831.05,299.65 831.4,299.3 831.5,299.25 833.4,297.4 834.7,296 835.45,295.2 836.9,293.65 838.05,292.2 838.95,290.9 839.55,290.5 840.1,289.75 840.65,288.85 840.95,288.35 841.35,287.65 841.9,286.55 842.35,285.95 842.7,285.3 843.05,284.65 843.5,283.9 843.7,283.2 843.8,282.55 L844.05,282.45 C844.55,280.75 844.7,279.1 844.6,277.45 844.55,275.65 844.05,274.1 843.15,272.7 842.5,271.95 841.9,271.3 841.5,270.8 840.8,270.15 840.1,269.7 839.45,269.35 838.55,268.45 837.25,267.7 835.5,267.15 834.15,266.5 833.25,266.1 832.95,266 832,265.6 831.1,265.45 830.3,265.3 829.95,265.1 829.55,264.95 829.05,264.75 828.5,264.7 828,264.6 827.65,264.5 825.75,264.05 824.3,263.7 823.4,263.55 821.7,263.1 820.2,262.95 818.95,262.95 817.6,262.55 815.85,262.3 813.65,262.05 811.25,261.9 809.5,261.7 808.35,261.55 807.1,261.5 805.3,261.35 803.05,261.25 800.65,261.15 798.9,261.05 797.85,261 791.7,261 787.1,261 784.1,261 778.65,261 774.1,261.05 770.3,261.35 769.9,261.25 769.5,261.35 768.9,261.4 768.35,261.5 767.95,261.55 767.6,261.65 767.3,261.55 766.85,261.5 766.4,261.5 765.8,261.55 765.5,261.55 765.25,261.55 765,261.5 764.75,261.5 764.5,261.55 764.25,261.65 764,261.7 763.85,261.9 L761.95,261.9 C761.8,261.8 761.55,261.7 761.3,261.8 761,261.9 760.7,261.9 760.65,261.9 760.35,261.8 760.05,261.7 760,261.7 759.65,261.8 759.5,261.9 759.5,262.15 759.15,262.05 758.85,262.05 758.45,262.15 L757.6,262.15 756.9,261.65 C756.95,261.35 756.95,261.05 756.95,260.9 756.95,260.65 756.9,260.5 756.65,260.4 L756.65,259.65 C756.65,259.35 756.55,258.95 756.3,258.45 756.25,258.05 756.25,257.8 756.15,257.6 756.15,257.3 756.05,257.05 755.9,256.95 755.9,256.4 755.8,255.85 755.55,255.4 755.55,255.2 755.55,255 755.5,254.75 755.4,254.45 755.35,254.2 755.25,254.1 755.15,253.65 755.15,253.3 755.15,253.2 755.05,252.8 754.9,252.55 754.75,252.4 754.75,251.3 754.6,250.5 754.2,249.75 753.85,247.8 753.45,246.25 752.95,245.1 750.8,236.1 747.7,226.25 743.7,215.55 742.15,211.65 741.05,209.05 740.4,207.55 739.1,204.65 737.8,202.1 736.5,199.95 736.5,199.65 736.4,199.3 736.15,199 735.9,198.55 735.65,198.35 735.6,198.15 734.7,196.7 734.05,195.6 733.55,194.9 732.7,193.65 731.9,192.6 731.15,191.85 L731.1,191.35 C730.8,191.2 730.25,190.55 729.2,189.45 728.45,188.65 727.7,188.1 727.05,187.85 726.5,187.1 725.6,186.45 724.45,185.95 723.8,185.7 722.75,185.35 721.35,185 720,184.8 718.65,185 717.15,185.35 715.95,185.8 714.7,186.45 713.45,187.35 L713.4,187.6 C713,187.7 712.5,188 712,188.5 711.35,189.15 710.95,189.55 710.85,189.65 710.5,189.8 710.2,190.15 709.85,190.55 709.55,191.05 709.3,191.35 709.05,191.6 708.3,192.35 707.5,193.35 706.55,194.55z M656.55,516.4 C655.45,516.25 654.5,516.05 653.9,515.9 650.3,515 647.5,514.35 645.8,514.05 642.5,513.25 639.7,512.95 637.35,512.95 634.7,512.15 631.45,511.7 627.25,511.25 622.7,510.9 619.3,510.6 617.1,510.3 614.75,510.15 611.35,509.85 607.1,509.7 602.45,509.5 599.15,509.35 597.15,509.2 585.45,509.2 576.7,509.2 570.95,509.2 560.65,509.2 551.95,509.35 544.75,509.85 544,509.7 543.2,509.85 542.1,510 541,510.15 540.25,510.3 539.6,510.45 539,510.3 538.2,510.15 537.3,510.15 536.2,510.3 535.55,510.3 535.1,510.3 534.65,510.15 534.15,510.15 533.7,510.3 533.2,510.45 532.75,510.6 532.45,510.9 L528.85,510.9 C528.55,510.75 528.1,510.6 527.6,510.75 527,510.9 526.5,510.9 526.35,510.9 525.75,510.75 525.25,510.6 525.1,510.6 524.5,510.75 524.2,510.9 524.2,511.4 523.55,511.25 522.95,511.25 522.15,511.4 L520.6,511.4 519.2,510.45 C519.35,509.85 519.35,509.35 519.35,509.05 519.35,508.6 519.2,508.25 518.75,508.1 L518.75,506.7 C518.75,506.1 518.55,505.3 518.1,504.4 517.95,503.6 517.95,503.15 517.8,502.8 517.8,502.2 517.65,501.75 517.3,501.55 517.3,500.5 517.15,499.4 516.7,498.6 516.7,498.15 516.7,497.85 516.55,497.35 516.4,496.75 516.25,496.25 516.1,496.1 515.9,495.2 515.9,494.55 515.9,494.4 515.75,493.6 515.45,493.15 515.15,492.85 515.15,490.8 514.85,489.25 514.05,487.85 513.45,484.1 512.65,481.15 511.7,478.95 507.65,461.8 501.75,443.1 494.1,422.7 491.15,415.35 489.1,410.35 487.85,407.55 485.35,401.95 482.85,397.1 480.4,393.05 480.4,392.45 480.2,391.8 479.75,391.2 479.3,390.4 478.8,389.95 478.65,389.65 476.95,386.85 475.7,384.8 474.75,383.4 473.2,381.05 471.65,379.05 470.25,377.65 L470.1,376.7 Q469.45,376.25 466.5,373.1 C465.1,371.55 463.7,370.45 462.45,370 461.35,368.6 459.65,367.35 457.45,366.4 456.2,365.95 454.2,365.3 451.55,364.55 449.05,364.25 446.4,364.55 443.6,365.3 441.25,366.1 438.9,367.35 436.55,369.05 L436.4,369.55 C435.65,369.7 434.7,370.3 433.75,371.25 432.5,372.5 431.75,373.25 431.6,373.45 430.95,373.75 430.35,374.35 429.7,375.15 429.1,376.1 428.6,376.7 428.15,377.15 426.75,378.55 425.2,380.45 423.45,382.8 421.75,385.6 420.35,387.6 419.6,389 418.95,389.8 418.5,390.4 418.35,390.9 417.85,391.65 417.55,392.45 417.4,393.05 416.75,393.7 416.15,394.65 415.35,396.05 414.75,397.45 414.3,398.35 413.8,399.15 407.75,410.85 402.1,424.1 396.8,438.9 392.75,449.8 388.25,463.55 383.4,480.2 383.25,480.7 383.1,481.3 383.1,482.1 382.65,483.2 382.15,484.6 381.7,486.3 380.9,489.25 380.6,490.65 380.6,490.8 380.15,491.45 379.8,492.2 379.65,493.3 379.5,493.95 379.35,494.85 379.2,495.95 378.6,496.9 378.4,497.85 378.6,498.6 377.8,499.4 377.5,500.65 377.65,502.2 377.15,502.35 377,502.8 377,503.3 377,503.6 377,504.05 377,504.55 376.7,504.85 376.55,505.3 376.4,506.1 376.25,506.55 376.25,507.05 376.1,507.8 375.6,508.6 375.45,509.2 375.45,509.85 L375,511.4 C374.85,512.5 374.7,513.1 374.7,513.55 374.35,513.9 374.05,514.2 373.6,514.5 372.8,514.35 372.2,514.35 371.55,514.5 370.95,514.35 370.45,514.05 370,513.9 369.4,513.9 368.9,513.9 368.6,513.75 368.15,513.75 367.8,513.75 367.35,513.9 366.9,513.9 366.4,513.9 366.1,513.75 365.65,513.75 365.15,513.9 364.85,514.05 364.1,513.25 363.3,513.1 362.85,513.4 361.45,513.25 360,513.25 358.6,513.4 357.7,512.65 356.6,512.5 355.2,512.95 353.95,512.8 353,512.65 352.4,512.5 351.3,512.35 350.2,512.35 349.4,512.5 345.35,512 340.05,511.7 333.5,511.55 325.1,511.25 319.8,511.1 317.45,510.9 311.55,510.75 307.2,510.6 304.55,510.6 299.7,510.6 295.35,510.75 291.6,511.25 282.4,511.25 274.3,511.7 267.1,512.8 257,513.55 248.7,515 242,517 237.2,517.8 233.45,518.9 230.8,520.6 229.05,521.05 227.5,521.55 226.1,522.3 224.55,523.1 223.15,524 222.05,525.1 220.8,525.6 219.55,526.5 218.3,527.75 217.85,528.25 216.9,529.3 215.2,531.2 211.75,535.7 211.15,542.1 213.35,550.05 L213.65,550.2 C213.8,551.3 214.25,552.7 215.05,554.25 L216.9,558.15 217.4,558.3 C217.85,559.4 218.45,560.65 219.4,562.05 219.9,562.85 220.65,563.95 221.75,565.65 221.9,565.8 222.35,566.1 222.85,566.9 223.15,567.65 223.6,568 224.1,568 224.55,569.05 225.35,570.15 226.6,571.55 228.15,573.3 229.05,574.35 229.55,574.85 230.3,575.45 231.9,577.35 234.35,580.3 236.4,582.65 238.1,584.2 239.85,584.95 241.25,586.7 242.95,588.4 244.95,590.3 245.75,591.05 247.6,592.6 250.6,595.1 267.9,610.25 287.2,624.75 308.4,638.3 310.45,640.3 312.8,641.7 315.3,642.65 316.05,643.6 317.3,644.55 319.2,645.3 319.5,645.75 319.95,646.1 320.75,646.4 320.9,646.55 321.35,646.85 322.45,647.35 322.75,647.8 323.1,647.95 323.25,648.1 323.55,648.4 323.85,648.6 324.3,648.4 324.5,648.9 324.65,649.2 325.1,649.35 325.4,649.5 325.9,649.85 326.35,650 326.5,650.3 326.65,650.6 327.15,650.75 327.3,650.75 327.75,650.9 328.4,651.05 328.55,651.4 328.7,651.7 329.15,652 329.45,652.15 329.95,652.3 330.4,652.5 L331.5,652.95 C331.95,653.4 332.1,653.7 332.1,653.9 332.3,654.2 332.1,654.5 331.95,654.95 331.65,655.15 331.35,655.3 331.2,655.75 331.05,656.2 331.05,656.55 331.05,657 330.55,657.45 330.4,657.95 330.55,658.55 330.1,658.7 329.8,658.85 329.65,659.35 329.45,659.8 329.45,660.1 329.65,660.6 329.15,661.05 328.85,661.5 328.85,662.15 328.55,662.3 328.2,662.75 328.05,663.25 327.9,663.7 327.9,664.15 328.05,664.65 327.3,664.8 327,665.55 326.8,666.8 326.35,667.3 326.05,667.9 325.9,668.7 325.55,669.45 325.4,670.1 325.4,670.7 324.15,672.1 323.25,674.3 322.75,677.1 322,678.05 321.35,679.45 320.75,681.3 319.95,683.65 319.35,685.05 319,685.7 311.85,704.55 305.75,723.1 300.8,741.05 300.65,742.1 299.85,744.9 298.75,749.15 297.8,752.4 297.35,755.2 297.2,757.4 L296.75,757.4 C296.25,760.35 295.65,764.9 294.55,770.65 293.75,775.8 293.6,780.15 293.75,783.9 293.45,786.55 293.45,789.35 293.75,792.15 293.6,792.8 293.6,793.7 293.95,794.8 294.25,796.2 294.4,797.15 294.4,797.75 294.4,797.95 294.55,798.55 294.7,799.95 294.85,800.9 295.15,801.5 295.65,802 295.8,803.7 296.25,805.4 297.35,807.3 298,808.35 299.05,809.8 300.65,811.8 302.5,814.15 305,815.7 308.25,816.65 310.9,817.55 314.05,817.9 317.3,817.75 318.25,817.75 319.65,817.55 321.5,817.25 323.4,816.95 324.8,816.8 325.75,816.8 L325.9,816.3 C329.3,816.15 331.8,815.4 333.5,814.3 334,814.3 334.3,814.3 334.75,814.15 334.95,814 335.4,813.85 336,813.65 342.55,811.35 349.4,808.2 356.6,804.5 356.75,804.3 357.35,804 358.8,803.4 359.7,802.9 360.35,802.45 360.65,802 362.35,801.2 364.25,800.25 366.4,799 368.75,797.6 370.65,796.5 371.7,795.75 378.25,791.85 385.3,787.35 392.75,782.2 398.2,778.45 404.9,773.6 412.85,767.7 413.35,767.35 416.6,765.05 422.55,760.5 426.45,757.55 429.55,755.05 431.75,752.85 434.1,751.8 435.95,750.2 437.5,748.2 439.2,747.4 440.3,746.65 440.95,745.55 441.4,745.4 442.05,744.9 442.65,744.45 443.45,743.7 443.9,743.2 444.05,743.05 444.5,742.9 444.85,742.75 445.3,742.25 445.45,742.1 445.6,741.65 446.1,741.05 447,741.05 447.95,740.4 448.75,739 449.35,738.7 449.8,738.55 450,738.4 450.45,738.2 450.6,737.9 450.75,737.45 451.4,737.15 452,737.15 452.8,737.3 452.95,737.75 453.1,738.2 453.4,738.55 453.85,739 454.2,739 454.65,738.85 454.8,739.45 455.3,739.95 455.75,740.1 456.5,741.5 457.6,742.25 458.85,742.45 459,742.9 459.35,743.35 459.8,743.7 460.1,744.15 460.4,744.45 460.9,744.6 461.05,745.1 461.5,745.4 462,745.7 462.3,745.85 462.75,746.15 463.55,746.65 463.85,747.25 464.3,747.9 465.1,748.5 465.4,748.65 466.05,749.15 467.1,749.75 467.45,750.4 468.05,751 468.85,751.65 469.3,751.95 469.95,752.4 470.85,753.2 471.35,753.35 471.95,753.95 472.9,754.9 473.65,755.7 474.45,756.3 475.25,756.45 475.4,756.95 475.7,757.25 476.15,757.55 493.45,771.75 510,783.9 526.05,794.2 L538.5,802 C543.35,804.8 547.55,806.95 551.45,808.55 L551.6,809 C557.1,811.5 562.2,813.5 566.75,815.1 567.7,815.55 568.9,815.85 570.5,815.85 L570.65,816.15 C571.55,816.3 573.15,816.65 575.15,817.1 576.9,817.4 578.45,817.55 579.7,817.4 L579.7,817.9 C586.05,818.05 591.55,816.65 595.75,813.85 597.6,812.1 599.15,810.25 600.55,807.9 601.95,805.55 602.75,803.25 603.05,800.75 604.45,796.85 605.1,793.4 604.6,790.6 604.8,787 604.8,781.85 604.6,774.85 L604.15,774.7 C604.3,772.5 604,769.85 603.55,766.75 602.75,761.6 602.3,759.1 602.3,758.95 600.4,748.2 597.75,736.65 594.2,724.35 591.55,715 588.1,703.75 583.6,690.5 583.1,689.4 582.2,686.95 581.1,683.35 580,680.4 579.05,678.2 578.3,676.5 577.95,675.25 577.5,673.7 576.7,671.65 575.8,669.3 575.15,667.75 575,667 L574.55,666.8 C574.4,665.75 574.2,665.1 574.05,664.65 573.75,663.7 573.45,663.1 573,662.75 572.8,662 572.8,661.5 572.8,661.2 572.65,660.6 572.35,660.25 572.05,660.1 571.9,659.5 571.9,659.05 571.75,658.7 571.55,658.1 571.4,657.8 570.95,657.6 570.95,657 570.8,656.4 570.35,655.9 570.35,655.45 570.35,654.95 570.15,654.5 570,653.9 569.85,653.55 569.4,653.4 569.55,652.95 569.25,652.3 568.75,651.85 568.9,651.55 568.75,651.25 568.6,650.75 568.45,650.3 568.15,650 567.85,649.85 L568.3,647.8 569.4,647.8 569.4,647.5 C570,647.5 570.5,647.35 570.95,646.85 571.55,646.4 571.9,646.25 572.05,646.25 572.5,646.1 572.8,645.75 573,645.3 573.45,645.3 574.05,645.15 574.55,644.85 575,644.55 575.3,644.2 575.45,643.75 575.8,643.6 576.25,643.45 576.9,643.1 577.5,642.95 577.95,642.65 578.1,642.35 578.6,642.2 579.05,641.9 579.85,641.4 580.6,641.1 581.1,640.8 581.25,640.3 582.8,639.85 584.2,639.05 585.3,637.65 586.4,637.35 587.5,636.75 588.9,635.95 589.05,635.8 589.95,635 592,633.6 L592.8,633.3 C603.85,626.3 613.35,619.9 621.3,614.3 631.3,607.1 640.3,600.1 648.45,593.25 649.35,592.45 650.95,591.2 652.95,589.65 654.65,588.25 656.05,586.85 657,585.45 657.8,585.3 658.4,584.8 659.2,584.05 660.3,582.8 661.05,582.15 661.2,582 664.8,578.45 667.3,575.8 668.7,574.35 671.5,571.4 673.7,568.6 675.4,566.1 676.5,565.35 677.6,563.95 678.65,562.2 679.15,561.3 679.9,559.9 681,557.85 681.8,556.75 682.55,555.5 683.2,554.25 684,552.85 684.45,551.45 684.6,550.2 L685.05,550.05 C686,546.8 686.3,543.65 686.15,540.55 686,537.1 685.05,534.15 683.35,531.5 682.1,530.1 681,528.85 680.25,527.9 678.85,526.65 677.6,525.75 676.35,525.1 674.6,523.4 672.15,522 668.85,520.9 666.2,519.65 664.5,518.9 664,518.7 662.15,517.95 660.45,517.65 658.9,517.45 658.25,517 657.45,516.7 656.55,516.4z"/>
      </g>
    </g>
  </mask>
  <g id="masked" mask="url(#Calque.__210)">
    <g id="Calque.__209">
      <g id="shape8">
        <path id="path5" fill="#FFFFFF" fill-opacity="1" d="M756.5,219.95 C756.5,219.65 756.4,219.3 756.15,219 755.9,218.55 755.65,218.35 755.6,218.15 754.7,216.7 754.05,215.6 753.55,214.9 752.7,213.65 751.9,212.6 751.15,211.85 L751.1,211.35 C750.8,211.2 750.25,210.55 749.2,209.45 748.45,208.65 747.7,208.1 747.05,207.85 746.5,207.1 745.6,206.45 744.45,205.95 743.8,205.7 742.75,205.35 741.35,205 740,204.8 738.65,205 737.15,205.35 735.95,205.8 734.7,206.45 733.45,207.35 L733.4,207.6 C733,207.7 732.5,208 732,208.5 731.35,209.15 730.95,209.55 730.85,209.65 730.5,209.8 730.2,210.15 729.85,210.55 729.55,211.05 729.3,211.35 729.05,211.6 728.3,212.35 727.5,213.35 726.55,214.55 725.7,216.05 724.95,217.1 724.55,217.85 724.2,218.25 723.95,218.55 723.9,218.85 723.65,219.2 723.45,219.65 723.4,219.95 723.05,220.3 722.75,220.8 722.3,221.55 722,222.25 721.75,222.75 721.5,223.15 718.3,229.3 715.35,236.25 712.55,244.05 710.45,249.8 708.1,257 705.55,265.75 705.45,266 705.35,266.35 705.35,266.75 705.15,267.35 704.85,268.05 704.65,268.95 704.2,270.5 704.05,271.25 704.05,271.3 703.8,271.65 703.65,272.05 703.55,272.65 703.5,272.95 703.4,273.45 703.3,274.05 703,274.5 702.9,275 703,275.4 702.6,275.85 702.45,276.5 702.5,277.3 702.25,277.4 702.15,277.6 702.15,277.9 702.15,278.05 702.15,278.3 702.15,278.55 702,278.7 701.95,278.95 701.85,279.35 701.75,279.6 701.75,279.85 701.7,280.25 701.45,280.65 701.35,281 701.35,281.35 L701.1,282.15 C701.05,282.7 700.95,283.05 700.95,283.25 700.75,283.45 700.6,283.6 700.4,283.75 699.95,283.7 699.65,283.7 699.3,283.75 699,283.7 698.7,283.55 698.5,283.45 698.15,283.45 697.9,283.45 697.75,283.4 697.5,283.4 697.35,283.4 697.1,283.45 696.85,283.45 696.6,283.45 696.45,283.4 696.2,283.4 695.95,283.45 695.8,283.55 695.4,283.1 694.95,283.05 694.75,283.2 694,283.1 693.25,283.1 692.5,283.2 692,282.8 691.45,282.7 690.7,282.95 690.05,282.9 689.55,282.8 689.25,282.7 688.65,282.65 688.1,282.65 687.65,282.7 685.55,282.45 682.75,282.3 679.3,282.2 674.9,282.05 672.1,282 670.85,281.9 667.75,281.8 665.5,281.7 664.1,281.7 661.55,281.7 659.25,281.8 657.3,282.05 652.45,282.05 648.2,282.3 644.4,282.9 639.1,283.25 634.75,284.05 631.25,285.1 628.7,285.5 626.75,286.1 625.35,287 624.4,287.2 623.6,287.5 622.85,287.85 622.05,288.3 621.3,288.75 620.75,289.35 620.1,289.6 619.45,290.1 618.75,290.75 618.55,291 618.05,291.55 617.15,292.55 615.35,294.9 615,298.3 616.15,302.45 L616.35,302.55 C616.4,303.1 616.65,303.85 617.05,304.65 L618.05,306.7 618.3,306.8 C618.55,307.35 618.85,308 619.35,308.75 619.6,309.2 620,309.75 620.6,310.65 620.65,310.75 620.9,310.9 621.15,311.3 621.3,311.7 621.55,311.9 621.8,311.9 622.05,312.45 622.5,313 623.15,313.75 623.95,314.65 624.4,315.2 624.7,315.5 625.1,315.8 625.9,316.8 627.2,318.35 628.3,319.6 629.2,320.4 630.1,320.8 630.85,321.7 631.7,322.6 632.8,323.6 633.2,324 634.15,324.8 635.75,326.15 644.85,334.1 655,341.7 666.1,348.85 667.2,349.9 668.45,350.6 669.75,351.1 670.15,351.6 670.8,352.1 671.8,352.5 671.95,352.75 672.2,352.9 672.6,353.1 672.7,353.15 672.9,353.3 673.5,353.6 673.65,353.8 673.85,353.9 673.9,354 674.1,354.15 674.25,354.25 674.45,354.15 674.6,354.4 674.65,354.55 674.9,354.65 675.05,354.7 675.3,354.9 675.55,354.95 675.65,355.15 675.7,355.3 675.95,355.35 676.05,355.35 676.3,355.45 676.65,355.55 676.7,355.7 676.8,355.85 677,356 677.2,356.1 677.45,356.2 677.7,356.3 L678.25,356.5 C678.5,356.75 678.55,356.9 678.55,357 678.7,357.2 678.55,357.35 678.5,357.55 678.35,357.7 678.2,357.75 678.1,358 678,358.25 678,358.4 678,358.65 677.75,358.9 677.7,359.15 677.75,359.45 677.5,359.55 677.35,359.6 677.3,359.9 677.2,360.1 677.2,360.3 677.3,360.55 677,360.8 676.85,361 676.85,361.35 676.7,361.45 676.5,361.65 676.45,361.95 676.35,362.15 676.35,362.4 676.45,362.65 676.05,362.75 675.9,363.15 675.8,363.8 675.55,364.05 675.4,364.4 675.3,364.8 675.15,365.2 675.05,365.55 675.05,365.85 674.4,366.6 673.9,367.75 673.65,369.2 673.25,369.7 672.9,370.45 672.6,371.4 672.2,372.65 671.85,373.4 671.7,373.75 667.95,383.65 664.7,393.4 662.1,402.8 662.05,403.35 661.6,404.85 661.05,407.05 660.55,408.8 660.3,410.25 660.25,411.4 L660,411.4 C659.75,412.95 659.4,415.35 658.85,418.35 658.4,421.1 658.35,423.35 658.4,425.35 658.25,426.75 658.25,428.2 658.4,429.65 658.35,430 658.35,430.5 658.5,431.05 658.7,431.8 658.75,432.3 658.75,432.6 658.75,432.7 658.85,433.05 658.9,433.75 659,434.25 659.15,434.6 659.4,434.85 659.5,435.75 659.75,436.65 660.3,437.65 660.65,438.2 661.2,438.95 662.05,440 663,441.25 664.35,442.05 666.05,442.55 667.45,443 669.1,443.2 670.8,443.1 671.3,443.1 672.05,443 673,442.85 674,442.7 674.75,442.6 675.25,442.6 L675.3,442.35 C677.1,442.3 678.4,441.9 679.3,441.3 679.55,441.3 679.75,441.3 679.95,441.25 680.05,441.15 680.3,441.05 680.6,440.95 684.05,439.75 687.65,438.1 691.45,436.15 691.5,436.05 691.85,435.9 692.6,435.6 693.05,435.3 693.4,435.1 693.55,434.85 694.45,434.4 695.45,433.95 696.6,433.25 697.85,432.55 698.85,431.95 699.4,431.55 702.8,429.5 706.55,427.15 710.45,424.45 713.3,422.45 716.8,419.9 721,416.8 721.25,416.65 722.95,415.45 726.1,413.05 728.15,411.5 729.8,410.15 730.95,409 732.15,408.45 733.15,407.65 733.95,406.55 734.85,406.15 735.45,405.75 735.75,405.2 736,405.1 736.35,404.85 736.65,404.6 737.1,404.2 737.3,403.95 737.4,403.85 737.65,403.8 737.8,403.7 738.05,403.45 738.15,403.35 738.2,403.15 738.45,402.8 738.95,402.8 739.45,402.5 739.85,401.75 740.2,401.6 740.4,401.5 740.5,401.45 740.75,401.3 740.85,401.15 740.9,400.95 741.25,400.75 741.55,400.75 742,400.85 742.05,401.1 742.15,401.3 742.3,401.5 742.55,401.75 742.75,401.75 742.95,401.65 743.05,402 743.3,402.25 743.55,402.3 743.95,403.05 744.5,403.45 745.15,403.55 745.25,403.8 745.45,404.05 745.65,404.2 745.85,404.45 746,404.6 746.25,404.7 746.35,404.95 746.55,405.1 746.85,405.25 747,405.35 747.2,405.5 747.65,405.75 747.8,406.1 748.05,406.4 748.45,406.75 748.6,406.8 748.95,407.05 749.5,407.4 749.7,407.75 750,408.05 750.45,408.4 750.65,408.55 751,408.8 751.5,409.2 751.75,409.3 752.05,409.6 752.55,410.1 752.95,410.5 753.35,410.85 753.8,410.9 753.85,411.15 754.05,411.35 754.25,411.5 763.35,418.95 772.05,425.35 780.5,430.75 L787.05,434.85 C789.6,436.3 791.8,437.45 793.85,438.3 L793.9,438.5 C796.8,439.85 799.5,440.9 801.85,441.75 802.35,441.95 803,442.1 803.85,442.1 L803.9,442.3 C804.4,442.35 805.25,442.55 806.3,442.8 807.2,442.95 808,443 808.7,442.95 L808.7,443.2 C812,443.3 814.9,442.55 817.1,441.05 818.1,440.15 818.9,439.2 819.65,437.95 820.35,436.7 820.8,435.5 820.95,434.2 821.7,432.15 822,430.35 821.75,428.85 821.85,426.95 821.85,424.25 821.75,420.6 L821.5,420.5 C821.6,419.35 821.45,417.95 821.2,416.3 820.8,413.6 820.55,412.3 820.55,412.2 819.55,406.55 818.15,400.5 816.3,394.05 814.9,389.15 813.1,383.2 810.75,376.25 810.45,375.7 810,374.4 809.4,372.5 808.85,370.95 808.35,369.8 807.95,368.9 807.75,368.25 807.5,367.45 807.1,366.35 806.65,365.1 806.3,364.3 806.2,363.9 L805.95,363.8 C805.9,363.25 805.8,362.9 805.7,362.65 805.55,362.15 805.4,361.85 805.15,361.65 805.05,361.3 805.05,361 805.05,360.85 804.95,360.55 804.8,360.35 804.65,360.3 804.6,359.95 804.6,359.75 804.5,359.55 804.4,359.25 804.3,359.05 804.1,358.95 804.1,358.65 804,358.35 803.75,358.05 803.75,357.85 803.75,357.55 803.65,357.35 803.6,357 803.5,356.85 803.25,356.75 803.35,356.5 803.2,356.2 802.9,355.95 803,355.8 802.9,355.65 802.85,355.35 802.75,355.15 802.6,354.95 802.45,354.9 L802.7,353.8 803.25,353.8 803.25,353.65 C803.6,353.65 803.85,353.6 804.1,353.3 804.4,353.1 804.6,353 804.65,353 804.9,352.9 805.05,352.75 805.15,352.5 805.4,352.5 805.7,352.45 805.95,352.25 806.2,352.1 806.35,351.95 806.45,351.7 806.65,351.6 806.85,351.55 807.2,351.35 807.5,351.25 807.75,351.1 807.85,350.95 808.1,350.9 808.35,350.7 808.75,350.45 809.15,350.3 809.4,350.15 809.5,349.9 810.3,349.65 811.05,349.2 811.6,348.5 812.2,348.35 812.75,348 813.5,347.6 813.6,347.5 814.05,347.1 815.15,346.35 L815.55,346.2 C821.35,342.5 826.35,339.15 830.55,336.2 835.8,332.45 840.5,328.75 844.8,325.15 845.25,324.75 846.1,324.1 847.15,323.25 848.05,322.55 848.8,321.8 849.3,321.05 849.7,321 850.05,320.7 850.45,320.3 851.05,319.65 851.4,319.3 851.5,319.25 853.4,317.4 854.7,316 855.45,315.2 856.9,313.65 858.05,312.2 858.95,310.9 859.55,310.5 860.1,309.75 860.65,308.85 860.95,308.35 861.35,307.65 861.9,306.55 862.35,305.95 862.7,305.3 863.05,304.65 863.5,303.9 863.7,303.2 863.8,302.55 L864.05,302.45 C864.55,300.75 864.7,299.1 864.6,297.45 864.55,295.65 864.05,294.1 863.15,292.7 862.5,291.95 861.9,291.3 861.5,290.8 860.8,290.15 860.1,289.7 859.45,289.35 858.55,288.45 857.25,287.7 855.5,287.15 854.15,286.5 853.25,286.1 852.95,286 852,285.6 851.1,285.45 850.3,285.3 849.95,285.1 849.55,284.95 849.05,284.75 848.5,284.7 848,284.6 847.65,284.5 845.75,284.05 844.3,283.7 843.4,283.55 841.7,283.1 840.2,282.95 838.95,282.95 837.6,282.55 835.85,282.3 833.65,282.05 831.25,281.9 829.5,281.7 828.35,281.55 827.1,281.5 825.3,281.35 823.05,281.25 820.65,281.15 818.9,281.05 817.85,281 811.7,281 807.1,281 804.1,281 798.65,281 794.1,281.05 790.3,281.35 789.9,281.25 789.5,281.35 788.9,281.4 788.35,281.5 787.95,281.55 787.6,281.65 787.3,281.55 786.85,281.5 786.4,281.5 785.8,281.55 785.5,281.55 785.25,281.55 785,281.5 784.75,281.5 784.5,281.55 784.25,281.65 784,281.7 783.85,281.9 L781.95,281.9 C781.8,281.8 781.55,281.7 781.3,281.8 781,281.9 780.7,281.9 780.65,281.9 780.35,281.8 780.05,281.7 780,281.7 779.65,281.8 779.5,281.9 779.5,282.15 779.15,282.05 778.85,282.05 778.45,282.15 L777.6,282.15 776.9,281.65 C776.95,281.35 776.95,281.05 776.95,280.9 776.95,280.65 776.9,280.5 776.65,280.4 L776.65,279.65 C776.65,279.35 776.55,278.95 776.3,278.45 776.25,278.05 776.25,277.8 776.15,277.6 776.15,277.3 776.05,277.05 775.9,276.95 775.9,276.4 775.8,275.85 775.55,275.4 775.55,275.2 775.55,275 775.5,274.75 775.4,274.45 775.35,274.2 775.25,274.1 775.15,273.65 775.15,273.3 775.15,273.2 775.05,272.8 774.9,272.55 774.75,272.4 774.75,271.3 774.6,270.5 774.2,269.75 773.85,267.8 773.45,266.25 772.95,265.1 770.8,256.1 767.7,246.25 763.7,235.55 762.15,231.65 761.05,229.05 760.4,227.55 759.1,224.65 757.8,222.1 756.5,219.95z M673.9,535.9 C670.3,535 667.5,534.35 665.8,534.05 662.5,533.25 659.7,532.95 657.35,532.95 654.7,532.15 651.45,531.7 647.25,531.25 642.7,530.9 639.3,530.6 637.1,530.3 634.75,530.15 631.35,529.85 627.1,529.7 622.45,529.5 619.15,529.35 617.15,529.2 605.45,529.2 596.7,529.2 590.95,529.2 580.65,529.2 571.95,529.35 564.75,529.85 564,529.7 563.2,529.85 562.1,530 561,530.15 560.25,530.3 559.6,530.45 559,530.3 558.2,530.15 557.3,530.15 556.2,530.3 555.55,530.3 555.1,530.3 554.65,530.15 554.15,530.15 553.7,530.3 553.2,530.45 552.75,530.6 552.45,530.9 L548.85,530.9 C548.55,530.75 548.1,530.6 547.6,530.75 547,530.9 546.5,530.9 546.35,530.9 545.75,530.75 545.25,530.6 545.1,530.6 544.5,530.75 544.2,530.9 544.2,531.4 543.55,531.25 542.95,531.25 542.15,531.4 L540.6,531.4 539.2,530.45 C539.35,529.85 539.35,529.35 539.35,529.05 539.35,528.6 539.2,528.25 538.75,528.1 L538.75,526.7 C538.75,526.1 538.55,525.3 538.1,524.4 537.95,523.6 537.95,523.15 537.8,522.8 537.8,522.2 537.65,521.75 537.3,521.55 537.3,520.5 537.15,519.4 536.7,518.6 536.7,518.15 536.7,517.85 536.55,517.35 536.4,516.75 536.25,516.25 536.1,516.1 535.9,515.2 535.9,514.55 535.9,514.4 535.75,513.6 535.45,513.15 535.15,512.85 535.15,510.8 534.85,509.25 534.05,507.85 533.45,504.1 532.65,501.15 531.7,498.95 527.65,481.8 521.75,463.1 514.1,442.7 511.15,435.35 509.1,430.35 507.85,427.55 505.35,421.95 502.85,417.1 500.4,413.05 500.4,412.45 500.2,411.8 499.75,411.2 499.3,410.4 498.8,409.95 498.65,409.65 496.95,406.85 495.7,404.8 494.75,403.4 493.2,401.05 491.65,399.05 490.25,397.65 L490.1,396.7 Q489.45,396.25 486.5,393.1 C485.1,391.55 483.7,390.45 482.45,390 481.35,388.6 479.65,387.35 477.45,386.4 476.2,385.95 474.2,385.3 471.55,384.55 469.05,384.25 466.4,384.55 463.6,385.3 461.25,386.1 458.9,387.35 456.55,389.05 L456.4,389.55 C455.65,389.7 454.7,390.3 453.75,391.25 452.5,392.5 451.75,393.25 451.6,393.45 450.95,393.75 450.35,394.35 449.7,395.15 449.1,396.1 448.6,396.7 448.15,397.15 446.75,398.55 445.2,400.45 443.45,402.8 441.75,405.6 440.35,407.6 439.6,409 438.95,409.8 438.5,410.4 438.35,410.9 437.85,411.65 437.55,412.45 437.4,413.05 436.75,413.7 436.15,414.65 435.35,416.05 434.75,417.45 434.3,418.35 433.8,419.15 427.75,430.85 422.1,444.1 416.8,458.9 412.75,469.8 408.25,483.55 403.4,500.2 403.25,500.7 403.1,501.3 403.1,502.1 402.65,503.2 402.15,504.6 401.7,506.3 400.9,509.25 400.6,510.65 400.6,510.8 400.15,511.45 399.8,512.2 399.65,513.3 399.5,513.95 399.35,514.85 399.2,515.95 398.6,516.9 398.4,517.85 398.6,518.6 397.8,519.4 397.5,520.65 397.65,522.2 397.15,522.35 397,522.8 397,523.3 397,523.6 397,524.05 397,524.55 396.7,524.85 396.55,525.3 396.4,526.1 396.25,526.55 396.25,527.05 396.1,527.8 395.6,528.6 395.45,529.2 395.45,529.85 L395,531.4 C394.85,532.5 394.7,533.1 394.7,533.55 394.35,533.9 394.05,534.2 393.6,534.5 392.8,534.35 392.2,534.35 391.55,534.5 390.95,534.35 390.45,534.05 390,533.9 389.4,533.9 388.9,533.9 388.6,533.75 388.15,533.75 387.8,533.75 387.35,533.9 386.9,533.9 386.4,533.9 386.1,533.75 385.65,533.75 385.15,533.9 384.85,534.05 384.1,533.25 383.3,533.1 382.85,533.4 381.45,533.25 380,533.25 378.6,533.4 377.7,532.65 376.6,532.5 375.2,532.95 373.95,532.8 373,532.65 372.4,532.5 371.3,532.35 370.2,532.35 369.4,532.5 365.35,532 360.05,531.7 353.5,531.55 345.1,531.25 339.8,531.1 337.45,530.9 331.55,530.75 327.2,530.6 324.55,530.6 319.7,530.6 315.35,530.75 311.6,531.25 302.4,531.25 294.3,531.7 287.1,532.8 277,533.55 268.7,535 262,537 257.2,537.8 253.45,538.9 250.8,540.6 249.05,541.05 247.5,541.55 246.1,542.3 244.55,543.1 243.15,544 242.05,545.1 240.8,545.6 239.55,546.5 238.3,547.75 237.85,548.25 236.9,549.3 235.2,551.2 231.75,555.7 231.15,562.1 233.35,570.05 L233.65,570.2 C233.8,571.3 234.25,572.7 235.05,574.25 L236.9,578.15 237.4,578.3 C237.85,579.4 238.45,580.65 239.4,582.05 239.9,582.85 240.65,583.95 241.75,585.65 241.9,585.8 242.35,586.1 242.85,586.9 243.15,587.65 243.6,588 244.1,588 244.55,589.05 245.35,590.15 246.6,591.55 248.15,593.3 249.05,594.35 249.55,594.85 250.3,595.45 251.9,597.35 254.35,600.3 256.4,602.65 258.1,604.2 259.85,604.95 261.25,606.7 262.95,608.4 264.95,610.3 265.75,611.05 267.6,612.6 270.6,615.1 287.9,630.25 307.2,644.75 328.4,658.3 330.45,660.3 332.8,661.7 335.3,662.65 336.05,663.6 337.3,664.55 339.2,665.3 339.5,665.75 339.95,666.1 340.75,666.4 340.9,666.55 341.35,666.85 342.45,667.35 342.75,667.8 343.1,667.95 343.25,668.1 343.55,668.4 343.85,668.6 344.3,668.4 344.5,668.9 344.65,669.2 345.1,669.35 345.4,669.5 345.9,669.85 346.35,670 346.5,670.3 346.65,670.6 347.15,670.75 347.3,670.75 347.75,670.9 348.4,671.05 348.55,671.4 348.7,671.7 349.15,672 349.45,672.15 349.95,672.3 350.4,672.5 L351.5,672.95 C351.95,673.4 352.1,673.7 352.1,673.9 352.3,674.2 352.1,674.5 351.95,674.95 351.65,675.15 351.35,675.3 351.2,675.75 351.05,676.2 351.05,676.55 351.05,677 350.55,677.45 350.4,677.95 350.55,678.55 350.1,678.7 349.8,678.85 349.65,679.35 349.45,679.8 349.45,680.1 349.65,680.6 349.15,681.05 348.85,681.5 348.85,682.15 348.55,682.3 348.2,682.75 348.05,683.25 347.9,683.7 347.9,684.15 348.05,684.65 347.3,684.8 347,685.55 346.8,686.8 346.35,687.3 346.05,687.9 345.9,688.7 345.55,689.45 345.4,690.1 345.4,690.7 344.15,692.1 343.25,694.3 342.75,697.1 342,698.05 341.35,699.45 340.75,701.3 339.95,703.65 339.35,705.05 339,705.7 331.85,724.55 325.75,743.1 320.8,761.05 320.65,762.1 319.85,764.9 318.75,769.15 317.8,772.4 317.35,775.2 317.2,777.4 L316.75,777.4 C316.25,780.35 315.65,784.9 314.55,790.65 313.75,795.8 313.6,800.15 313.75,803.9 313.45,806.55 313.45,809.35 313.75,812.15 313.6,812.8 313.6,813.7 313.95,814.8 314.25,816.2 314.4,817.15 314.4,817.75 314.4,817.95 314.55,818.55 314.7,819.95 314.85,820.9 315.15,821.5 315.65,822 315.8,823.7 316.25,825.4 317.35,827.3 318,828.35 319.05,829.8 320.65,831.8 322.5,834.15 325,835.7 328.25,836.65 330.9,837.55 334.05,837.9 337.3,837.75 338.25,837.75 339.65,837.55 341.5,837.25 343.4,836.95 344.8,836.8 345.75,836.8 L345.9,836.3 C349.3,836.15 351.8,835.4 353.5,834.3 354,834.3 354.3,834.3 354.75,834.15 354.95,834 355.4,833.85 356,833.65 362.55,831.35 369.4,828.2 376.6,824.5 376.75,824.3 377.35,824 378.8,823.4 379.7,822.9 380.35,822.45 380.65,822 382.35,821.2 384.25,820.25 386.4,819 388.75,817.6 390.65,816.5 391.7,815.75 398.25,811.85 405.3,807.35 412.75,802.2 418.2,798.45 424.9,793.6 432.85,787.7 433.35,787.35 436.6,785.05 442.55,780.5 446.45,777.55 449.55,775.05 451.75,772.85 454.1,771.8 455.95,770.2 457.5,768.2 459.2,767.4 460.3,766.65 460.95,765.55 461.4,765.4 462.05,764.9 462.65,764.45 463.45,763.7 463.9,763.2 464.05,763.05 464.5,762.9 464.85,762.75 465.3,762.25 465.45,762.1 465.6,761.65 466.1,761.05 467,761.05 467.95,760.4 468.75,759 469.35,758.7 469.8,758.55 470,758.4 470.45,758.2 470.6,757.9 470.75,757.45 471.4,757.15 472,757.15 472.8,757.3 472.95,757.75 473.1,758.2 473.4,758.55 473.85,759 474.2,759 474.65,758.85 474.8,759.45 475.3,759.95 475.75,760.1 476.5,761.5 477.6,762.25 478.85,762.45 479,762.9 479.35,763.35 479.8,763.7 480.1,764.15 480.4,764.45 480.9,764.6 481.05,765.1 481.5,765.4 482,765.7 482.3,765.85 482.75,766.15 483.55,766.65 483.85,767.25 484.3,767.9 485.1,768.5 485.4,768.65 486.05,769.15 487.1,769.75 487.45,770.4 488.05,771 488.85,771.65 489.3,771.95 489.95,772.4 490.85,773.2 491.35,773.35 491.95,773.95 492.9,774.9 493.65,775.7 494.45,776.3 495.25,776.45 495.4,776.95 495.7,777.25 496.15,777.55 513.45,791.75 530,803.9 546.05,814.2 L558.5,822 C563.35,824.8 567.55,826.95 571.45,828.55 L571.6,829 C577.1,831.5 582.2,833.5 586.75,835.1 587.7,835.55 588.9,835.85 590.5,835.85 L590.65,836.15 C591.55,836.3 593.15,836.65 595.15,837.1 596.9,837.4 598.45,837.55 599.7,837.4 L599.7,837.9 C606.05,838.05 611.55,836.65 615.75,833.85 617.6,832.1 619.15,830.25 620.55,827.9 621.95,825.55 622.75,823.25 623.05,820.75 624.45,816.85 625.1,813.4 624.6,810.6 624.8,807 624.8,801.85 624.6,794.85 L624.15,794.7 C624.3,792.5 624,789.85 623.55,786.75 622.75,781.6 622.3,779.1 622.3,778.95 620.4,768.2 617.75,756.65 614.2,744.35 611.55,735 608.1,723.75 603.6,710.5 603.1,709.4 602.2,706.95 601.1,703.35 600,700.4 599.05,698.2 598.3,696.5 597.95,695.25 597.5,693.7 596.7,691.65 595.8,689.3 595.15,687.75 595,687 L594.55,686.8 C594.4,685.75 594.2,685.1 594.05,684.65 593.75,683.7 593.45,683.1 593,682.75 592.8,682 592.8,681.5 592.8,681.2 592.65,680.6 592.35,680.25 592.05,680.1 591.9,679.5 591.9,679.05 591.75,678.7 591.55,678.1 591.4,677.8 590.95,677.6 590.95,677 590.8,676.4 590.35,675.9 590.35,675.45 590.35,674.95 590.15,674.5 590,673.9 589.85,673.55 589.4,673.4 589.55,672.95 589.25,672.3 588.75,671.85 588.9,671.55 588.75,671.25 588.6,670.75 588.45,670.3 588.15,670 587.85,669.85 L588.3,667.8 589.4,667.8 589.4,667.5 C590,667.5 590.5,667.35 590.95,666.85 591.55,666.4 591.9,666.25 592.05,666.25 592.5,666.1 592.8,665.75 593,665.3 593.45,665.3 594.05,665.15 594.55,664.85 595,664.55 595.3,664.2 595.45,663.75 595.8,663.6 596.25,663.45 596.9,663.1 597.5,662.95 597.95,662.65 598.1,662.35 598.6,662.2 599.05,661.9 599.85,661.4 600.6,661.1 601.1,660.8 601.25,660.3 602.8,659.85 604.2,659.05 605.3,657.65 606.4,657.35 607.5,656.75 608.9,655.95 609.05,655.8 609.95,655 612,653.6 L612.8,653.3 C623.85,646.3 633.35,639.9 641.3,634.3 651.3,627.1 660.3,620.1 668.45,613.25 669.35,612.45 670.95,611.2 672.95,609.65 674.65,608.25 676.05,606.85 677,605.45 677.8,605.3 678.4,604.8 679.2,604.05 680.3,602.8 681.05,602.15 681.2,602 684.8,598.45 687.3,595.8 688.7,594.35 691.5,591.4 693.7,588.6 695.4,586.1 696.5,585.35 697.6,583.95 698.65,582.2 699.15,581.3 699.9,579.9 701,577.85 701.8,576.75 702.55,575.5 703.2,574.25 704,572.85 704.45,571.45 704.6,570.2 L705.05,570.05 C706,566.8 706.3,563.65 706.15,560.55 706,557.1 705.05,554.15 703.35,551.5 702.1,550.1 701,548.85 700.25,547.9 698.85,546.65 697.6,545.75 696.35,545.1 694.6,543.4 692.15,542 688.85,540.9 686.2,539.65 684.5,538.9 684,538.7 682.15,537.95 680.45,537.65 678.9,537.45 678.25,537 677.45,536.7 676.55,536.4 675.45,536.25 674.5,536.05 673.9,535.9z"/>
      </g>
    </g>
  </g>
</svg>