<?xml version="1.0" encoding="utf-8"?>
<!-- Generator: flash2svg, http://dissentgraphics.com/tools/flash2svg -->
<svg xmlns:xlink="http://www.w3.org/1999/xlink" id="Adobe-Fireworks" image-rendering="optimizeSpeed" baseProfile="basic" version="1.1" style="background-color:#ffffff" x="0px" y="0px" width="1024px" height="1024px" viewBox="0 0 1024 1024" enable-background="new 0 0 1024 1024" xmlns="http://www.w3.org/2000/svg">
  <defs transform="matrix(1 0 0 1 0 0) "/>
  <g id="shadow">
    <g id="shape">
      <path id="path" fill="#000000" fill-opacity="0.09803921568627451" d="M965.65,347.3 Q957.05,326.45 946.25,306.45 C942.2,298.9 937.9,291.4 933.35,284.05 913.8,252.35 889.95,222.4 861.8,194.25 769.65,102.1 658.35,56 528,56 397.65,56 286.4,102.1 194.25,194.25 102.1,286.4 56,397.65 56,528 56,658.35 102.1,769.65 194.25,861.8 286.4,953.95 397.65,1000 528,1000 658.35,1000 769.65,953.95 861.8,861.8 912.55,811 949.35,754.4 972.15,692.05 990.7,641.2 1000,586.55 1000,528 1000,483.1 994.55,440.45 983.6,400.05 982.35,395.5 981.05,390.95 979.7,386.45 975.6,373.15 970.9,360.1 965.65,347.3z"/>
    </g>
  </g>
  <g id="BackgroundInner">
    <g id="shape2">
      <path id="path1" fill="#FFCC00" fill-opacity="1" d="M951.95,691.1 C958.6,674.8 964.25,658.05 968.95,640.8 979.95,600.35 985.45,557.5 985.45,512.3 Q985.45,316.5 847,178.05 C754.7,85.75 643.25,39.6 512.7,39.6 382.15,39.6 270.75,85.75 178.45,178.05 86.15,270.35 40,381.75 40,512.3 40,642.85 86.15,754.3 178.45,846.6 260.6,928.8 357.95,974.4 470.4,983.35 484.25,984.5 498.35,985.05 512.7,985.05 520.2,985.05 527.65,984.9 534.7,984.6 656,979.6 760,933.6 847,846.6 893.9,799.7 928.9,747.85 951.95,691.1z"/>
    </g>
  </g>
  <g id="LogoBg">
    <g id="shape4">
      <path id="path2" fill="#000000" fill-opacity="0.2" d="M951.95,691.1 Q957.421,677.635 962,663.8 L814.25,516.05 772.4,513.3 521.6,262.5 275.325,330.05 212.7,726.6 469.375,983.275 L469.4,983.3 C469.75,983.3 470.05,983.3 470.4,983.35 484.25,984.5 498.35,985.05 512.7,985.05 520.2,985.05 527.65,984.9 534.7,984.6 656,979.6 760,933.6 847,846.6 893.9,799.7 928.9,747.85 951.95,691.1z"/>
    </g>
  </g>
  <g id="Ico">
    <g id="shape6">
      <path id="path3" fill="#FFFFFF" fill-opacity="1" d="M680.95,569.9 L695.25,513.05 640.7,513.05 603.45,659.55 562.05,513.05 503.5,513.05 569.9,725.1 632.1,725.1 655.3,648.35 686.65,725.1 747.6,725.1 814.75,513.05 756.2,513.05 715.15,659.55 680.95,569.9z M521.6,337.6 L521.6,262.5 C493.9,258.4 451.85,255.65 395.4,254.25 L300.9,252 274.9,256.4 C253,262.6 236.5,273.6 225.45,289.4 214.7,305.25 209.35,326.1 209.35,351.85 L209.35,727.3 300.35,727.3 300.35,535.8 492.4,529.7 492.4,454.6 300.35,447.9 300.35,374.1 C300.35,363.75 301.6,355.5 304.1,349.35 307.9,341.5 317.85,337.6 333.9,337.6 L521.6,337.6z"/>
    </g>
  </g>
</svg>