<?xml version="1.0" encoding="utf-8"?>
<!-- Generator: flash2svg, http://dissentgraphics.com/tools/flash2svg -->
<svg xmlns:xlink="http://www.w3.org/1999/xlink" id="VirtualBox" image-rendering="optimizeSpeed" baseProfile="basic" version="1.1" style="background-color:#ffffff" x="0px" y="0px" width="1024px" height="1024px" viewBox="0 0 1024 1024" enable-background="new 0 0 1024 1024" xmlns="http://www.w3.org/2000/svg">
  <defs transform="matrix(1 0 0 1 0 0) "/>
  <g id="shadow">
    <g id="shape">
      <path id="path" fill="#000000" fill-opacity="0.09803921568627451" d="M969.65,351.3 Q961.05,330.45 950.25,310.45 C946.2,302.9 941.9,295.4 937.35,288.05 917.8,256.35 893.95,226.4 865.8,198.25 773.65,106.1 662.35,60 532,60 401.65,60 290.4,106.1 198.25,198.25 106.1,290.4 60,401.65 60,532 60,662.35 106.1,773.65 198.25,865.8 290.4,957.95 401.65,1004 532,1004 662.35,1004 773.65,957.95 865.8,865.8 916.55,815 953.35,758.4 976.15,696.05 994.7,645.2 1004,590.55 1004,532 1004,487.1 998.55,444.45 987.6,404.05 986.35,399.5 985.05,394.95 983.7,390.45 979.6,377.15 974.9,364.1 969.65,351.3z"/>
    </g>
  </g>
  <g id="ico-shadow">
    <g id="shape2">
      <path id="path1" fill="#458CA9" fill-opacity="1" d="M727.2,91.75 C718.5,87.4 709.35,83.1 699.95,79.05 691.35,75.3 682.8,71.85 674.05,68.65 631.95,52.9 589.8,43.3 547.6,40 478.2,34.4 408.65,45.4 338.7,73 315.25,82.3 293.05,92.9 272.1,104.9 230.8,128.6 194.5,157.55 163.6,191.6 Q112,248.2 79.05,324.15 C58.8,370.8 46.2,417.6 41.2,463.8 40.75,468.25 40.35,472.4 40,476.55 36.3,522.15 39.8,567.3 50.25,612.55 55.95,637.1 63.5,661.3 73,685.4 100.7,755.35 140.25,813.8 191.55,860.5 223,889.15 258.75,913.35 298.85,933.3 299,933.35 299.1,933.4 299.2,933.45 302.3,935 305.3,936.45 307.85,937.6 312.75,939.95 317.1,941.95 321.45,943.85 322.55,944.3 323.35,944.7 324.2,945.05 333.65,949.15 343.1,952.9 352.1,956.25 354.45,957.1 356.6,957.9 358.7,958.65 377.75,965.35 396.9,970.8 415.6,974.95 423.5,976.65 431.4,978.2 439.1,979.5 440.05,979.7 441.05,979.8 441.8,979.95 453.45,981.8 465,983.2 476.55,984.15 546.35,989.6 615.75,978.6 685.4,951.1 709.75,941.5 732.7,930.45 754.2,917.95 789.3,897.6 820.65,873.45 848.3,845.45 852.45,841.25 856.5,836.95 860.55,832.55 868.95,823.3 877.05,813.6 884.8,803.45 904.85,777.3 922.35,748.35 937.4,716.75 940,711.25 942.55,705.65 945.05,699.9 945.3,699.3 945.6,698.65 945.85,698.05 946,697.75 946.1,697.45 946.25,697.15 949.05,690.55 951.7,683.9 954.35,677.15 966,646.5 974.5,615.5 979.7,584.1 980.4,579.7 981.1,574.95 981.8,570.2 982.7,562.85 983.55,555.35 984.15,547.6 984.25,546.15 984.4,544.45 984.55,542.65 985.85,523.35 985.85,503.95 984.65,484.25 984.2,477.85 983.65,471.35 982.95,464.65 982.75,462.8 982.5,460.8 982.25,458.8 980.25,442.4 977.3,425.95 973.3,409.1 967.85,385.95 960.45,362.35 951.1,338.7 923.55,268.95 884.1,210.65 832.5,163.6 813.75,146.5 793.15,130.8 770.95,116.65 757.1,107.75 742.65,99.55 727.2,91.75z"/>
    </g>
  </g>
  <g id="ico-shadow1">
    <g id="shape4">
      <path id="path2" fill="none" stroke="#FFFFFF" stroke-opacity="1" stroke-width="55.75" stroke-linecap="round" stroke-linejoin="round" d="M926.4,541.1 Q926.4,559.8 924.9,577.9 C917,669.8 879.55,749.2 812.4,816.35 736.4,892.35 644.65,930.35 537.15,930.35 429.65,930.35 337.9,892.35 261.9,816.35 194.85,749.3 157.35,670 149.45,577.9 148.4,566.2 147.9,553.75 147.9,541.1 147.9,433.6 185.9,341.85 261.9,265.85 337.9,189.85 429.65,151.85 537.15,151.85 644.65,151.85 736.4,189.85 812.4,265.85 888.4,341.85 926.4,433.6 926.4,541.1z"/>
      <path id="path3" fill="#64A6C9" fill-opacity="1" d="M924.9,577.9 Q926.4,559.8 926.4,541.1 C926.4,433.6 888.4,341.85 812.4,265.85 736.4,189.85 644.65,151.85 537.15,151.85 429.65,151.85 337.9,189.85 261.9,265.85 185.9,341.85 147.9,433.6 147.9,541.1 147.9,553.75 148.4,566.2 149.45,577.9 L294.9,577.9 358.9,794.9 465.9,288.9 553.9,670.3 627.9,288.9 714.9,577.9 924.9,577.9z"/>
      <path id="path4" fill="none" stroke="#FFFFFF" stroke-opacity="1" stroke-width="55.75" stroke-linecap="round" stroke-linejoin="round" d="M924.9,577.9 Q926.4,559.8 926.4,541.1 C926.4,433.6 888.4,341.85 812.4,265.85 736.4,189.85 644.65,151.85 537.15,151.85 429.65,151.85 337.9,189.85 261.9,265.85 185.9,341.85 147.9,433.6 147.9,541.1 147.9,553.75 148.4,566.2 149.45,577.9 L294.9,577.9 358.9,794.9 465.9,288.9 553.9,670.3 627.9,288.9 714.9,577.9 924.9,577.9z"/>
      <path id="path5" fill="#38758D" fill-opacity="1" d="M924.9,577.9 L714.9,577.9 627.9,288.9 553.9,670.3 465.9,288.9 358.9,794.9 294.9,577.9 149.45,577.9 C157.35,670 194.85,749.3 261.9,816.35 337.9,892.35 429.65,930.35 537.15,930.35 644.65,930.35 736.4,892.35 812.4,816.35 879.55,749.2 917,669.8 924.9,577.9z"/>
      <path id="path6" fill="none" stroke="#FFFFFF" stroke-opacity="1" stroke-width="55.75" stroke-linecap="round" stroke-linejoin="round" d="M924.9,577.9 L714.9,577.9 627.9,288.9 553.9,670.3 465.9,288.9 358.9,794.9 294.9,577.9 149.45,577.9 C157.35,670 194.85,749.3 261.9,816.35 337.9,892.35 429.65,930.35 537.15,930.35 644.65,930.35 736.4,892.35 812.4,816.35 879.55,749.2 917,669.8 924.9,577.9z"/>
    </g>
  </g>
</svg>