
<svg xmlns="http://www.w3.org/2000/svg" version="1.1" xmlns:xlink="http://www.w3.org/1999/xlink" preserveAspectRatio="none" x="0px" y="0px" width="1024px" height="1024px" viewBox="0 0 1024 1024">
<defs>
<g id="Layer4_0_FILL">
<path fill="#000000" fill-opacity="0.09803921568627451" stroke="none" d="
M 969.6 351.25
Q 961 330.4 950.2 310.4 944.1 299.05 937.3 288 907.95 240.45 865.75 198.2 727.5 59.95 531.95 59.95 336.45 59.95 198.2 198.2 59.95 336.45 59.95 531.95 59.95 727.5 198.2 865.75 336.45 1003.95 531.95 1003.95 727.5 1003.95 865.75 865.75 941.9 789.55 976.1 696 1003.95 619.75 1003.95 531.95 1003.95 464.6 987.55 404 985.7 397.15 983.65 390.4 977.5 370.45 969.6 351.25 Z"/>
</g>

<g id="Layer3_0_FILL">
<path fill="#CFCFCF" stroke="none" d="
M 969.7 392
Q 967.95 385.15 966.05 378.4 964.52578125 373.114453125 962.85 367.85 960.3787109375 359.903125 957.6 352.05 947.85 324.5 934.45 298.4 928.65 287.05 922.15 276 891.5 224 845.8 178.25 736.8 69.25 592.15 46.2 567.65 42.3 542.1 40.85 527.2 40 512 40 497.9 40 484.1 40.75 306.55 49.95 178.25 178.25 40 316.5 40 512 40 707.55 178.25 845.8 263.0400390625 930.55703125 369.35 963.35 423.8880859375 980.1630859375 484.1 983.3 484.3 983.3 484.5 983.3 496.65 983.9 509 984 510.5 984 512 984 527.25 984 542.1 983.2 545.6 983 549.05 982.75 579.1 980.6 607.75 975.05 619.55 972.75 631.15 969.9 751.75 939.85 845.8 845.8 918.7 772.85 953.15 684 980.9 612.4 983.7 530.5 984 521.3 984 512 984 511 984 510 984 509.5 984 509 983.65 447.7 969.7 392 Z"/>
</g>

<g id="Layer2_0_FILL">
<path fill="#000000" fill-opacity="0.2" stroke="none" d="
M 983.05 544.05
L 776.95 337.95 292 307.95 258 451 368.8 561.8 322 770 535.5 983.5
Q 538.8171875 983.376953125 542.1 983.2 545.6 983 549.05 982.75 579.1 980.6 607.75 975.05 619.55 972.75 631.15 969.9 751.75 939.85 845.8 845.8 918.7 772.85 953.15 684 978.590625 618.35859375 983.05 544.05 Z"/>
</g>

<g id="Layer0_0_FILL">
<path fill="#333333" stroke="none" d="
M 806.75 446.2
L 806.75 444.95
Q 806.7625 362.974609375 748.75 304.95 692.569140625 248.7818359375 613.7 247 613.1765625 246.99453125 612.8 247
L 349 246.95
Q 347.1724609375 246.9017578125 345.4 246.9 343.5369140625 246.9015625 341.65 246.95 341.2966796875 246.955078125 340.9 246.95 340.683203125 246.9828125 340.45 247
L 338.65 247.05
Q 293.270703125 249.291015625 260.5 282.05 225.343359375 317.21875 225.35 366.95 225.352734375 416.740625 260.5 451.9
L 260.45 451.85
Q 289.4486328125 480.89453125 328.55 485.9 330.6716796875 486.2802734375 332.85 486.4 339.0564453125 487.0443359375 345.4 487.05 351.236328125 487.0439453125 356.95 486.5
L 597.8 486.5
Q 614.58203125 486.5060546875 626.45 474.65 638.3060546875 462.78203125 638.3 446 638.3060546875 429.21796875 626.45 417.35 614.58203125 405.4939453125 597.8 405.5
L 356.6 405.5
Q 355.4189453125 405.4626953125 354.2 405.5
L 338.45 405.5
Q 326.68359375 403.5333984375 317.8 394.65
L 317.8 394.6
Q 306.347265625 383.159375 306.35 366.95 306.356640625 350.78125 317.8 339.35 328.423046875 328.71484375 343.1 327.95
L 611.85 328
Q 658.331640625 329.1189453125 691.45 362.25 725.7375 396.525390625 725.75 444.95
L 725.75 446
Q 725.3798828125 493.7291015625 691.45 527.65
L 691.45 527.65
Q 658.2552734375 560.82109375 611.85 561.95
L 345.35 561.95
Q 328.56796875 561.9439453125 316.7 573.8 304.8439453125 585.66796875 304.85 602.45
L 304.85 736.6
Q 304.8439453125 753.38203125 316.7 765.25 328.56796875 777.1060546875 345.35 777.1 362.13203125 777.1060546875 374 765.25 385.8560546875 753.38203125 385.85 736.6
L 385.85 642.95 612.8 642.95
Q 613.18828125 642.95546875 613.75 642.95 692.4447265625 641.17890625 748.7 584.95
L 748.75 584.95
Q 806.3400390625 527.3505859375 806.75 446.2 Z"/>
</g>
</defs>

<g transform="matrix( 1, 0, 0, 1, 0,0) ">
<use xlink:href="#Layer4_0_FILL"/>
</g>

<g transform="matrix( 1, 0, 0, 1, 0,0) ">
<use xlink:href="#Layer3_0_FILL"/>
</g>

<g transform="matrix( 1, 0, 0, 1, 0,0) ">
<use xlink:href="#Layer2_0_FILL"/>
</g>

<g transform="matrix( 1, 0, 0, 1, 0,0) ">
<use xlink:href="#Layer0_0_FILL"/>
</g>
</svg>
