
<svg xmlns="http://www.w3.org/2000/svg" version="1.1" xmlns:xlink="http://www.w3.org/1999/xlink" preserveAspectRatio="none" x="0px" y="0px" width="1024px" height="1024px" viewBox="0 0 1024 1024">
<defs>
<g id="Layer4_0_FILL">
<path fill="#000000" fill-opacity="0.09803921568627451" stroke="none" d="
M 969.6 351.25
Q 961 330.4 950.2 310.4 944.1 299.05 937.3 288 907.95 240.45 865.75 198.2 727.5 59.95 531.95 59.95 336.45 59.95 198.2 198.2 59.95 336.45 59.95 531.95 59.95 727.5 198.2 865.75 336.45 1003.95 531.95 1003.95 727.5 1003.95 865.75 865.75 941.9 789.55 976.1 696 1003.95 619.75 1003.95 531.95 1003.95 464.6 987.55 404 985.7 397.15 983.65 390.4 977.5 370.45 969.6 351.25 Z"/>
</g>

<g id="Layer3_0_FILL">
<path fill="#CB4525" stroke="none" d="
M 727.9 90.75
Q 696.2 74.25 662.3 63.15 627.9 51.9 592.15 46.2 556.05 40.65 519.6 40.1 479.85 39.5 440.55 44.95 403.65 50.1 368 61.25 332.75 72.2 300.05 88.95 266.8 105.8 236.85 127.95 205.75 150.95 178.35 178.35 152.95 203.65 131.35 232.2 110.6 259.75 94.1 290.1 75.2 324.95 62.9 362.7 52.25 395.4 46.65 429.3 40.9 464.45 40.05 499.9 39.2 535.9 43.35 571.8 47.3 606.25 56.35 639.75 66.75 678.2 83.8 713.95 101.15 750.15 124.45 782.65 145.2 811.5 169.75 837.2 196.8 865.45 227.65 889.45 258.35 913.2 292.7 931.5 323.4 947.8 356.2 959.05 390.1 970.7 425.35 976.75 460.75 982.95 496.75 983.95 534.15 984.95 571.45 980.75 609.5 976.3 646.15 965.95 683.25 955.35 717.95 938.5 752.9 921.35 784.5 898.45 813.95 877.05 840 851.7 867.85 824.65 891.35 793.85 915.35 762.5 933.5 727.5 951.15 693.4 962.65 656.85 974.4 619.55 979.55 580.75 984.8 541.2 984 501.4 983.25 464.1 977.1 427.45 972.95 402.6 966.05 378.4 955.2 340.45 937.7 305.05 920.25 269.75 897.05 237.95 873.7 206.05 845.85 178.2 819.2 151.6 789.1 129.15 760.05 107.5 727.9 90.75 Z"/>
</g>

<g id="Layer2_0_FILL">
<path fill="#000000" fill-opacity="0.2" stroke="none" d="
M 537 563.15
L 335.75 782 537.25 983.5
Q 554.3640625 982.673828125 571.45 980.75 609.5 976.3 646.15 965.95 683.25 955.35 717.95 938.5 752.9 921.35 784.5 898.45 809.8072265625 880.0603515625 832.6 858.75
L 537 563.15
M 933.5 727.5
Q 951.15 693.4 962.65 656.85 974.4 619.55 979.55 580.75 982.3728515625 559.484375 983.45 538.15
L 692.75 247.45 533.9 404.3 626.6 598.8 859.5 831.7
Q 876.320703125 813.5478515625 891.35 793.85 915.35 762.5 933.5 727.5 Z"/>
</g>

<g id="Layer1_0_FILL">
<path fill="#FFFFFF" stroke="none" d="
M 544.65 331.15
Q 544.65 318.15 535.5 309 526.15 299.65 513.15 299.65 500.25 299.65 491 308.9
L 384 415.9
Q 350.3 449.55 384 483.1
L 490.9 590.1
Q 500.3 599.35 513.25 599.35 526.25 599.2 535.5 590.1 544.6 580.95 544.75 567.95 544.6 554.9 535.4 545.7
L 439.25 449.5 535.5 353.3
Q 544.65 344.15 544.65 331.15
M 268.35 455.35
Q 259.2 464.5 259.2 477.5 259.2 490.5 268.35 499.65
L 364.6 595.85 268.45 692.05
Q 259.25 701.25 259.1 714.3 259.25 727.3 268.35 736.45 277.6 745.55 290.6 745.7 303.55 745.7 312.95 736.45
L 419.85 629.45
Q 453.55 595.9 419.85 562.25
L 312.85 455.25
Q 303.6 446 290.7 446 277.7 446 268.35 455.35 Z"/>
</g>
</defs>

<g transform="matrix( 1, 0, 0, 1, 0,0) ">
<use xlink:href="#Layer4_0_FILL"/>
</g>

<g transform="matrix( 1, 0, 0, 1, 0,0) ">
<use xlink:href="#Layer3_0_FILL"/>
</g>

<g transform="matrix( 1, 0, 0, 1, 0,0) ">
<use xlink:href="#Layer2_0_FILL"/>
</g>

<g transform="matrix( 1.2870025634765625, 0, 0, 1.2870025634765625, -5.2,-160.65) ">
<use xlink:href="#Layer1_0_FILL"/>
</g>
</svg>
