
<svg xmlns="http://www.w3.org/2000/svg" version="1.1" xmlns:xlink="http://www.w3.org/1999/xlink" preserveAspectRatio="none" x="0px" y="0px" width="1024px" height="1024px" viewBox="0 0 1024 1024">
<defs>
<g id="Layer4_0_FILL">
<path fill="#000000" fill-opacity="0.09803921568627451" stroke="none" d="
M 969.6 351.25
Q 961 330.4 950.2 310.4 944.1 299.05 937.3 288 907.95 240.45 865.75 198.2 727.5 59.95 531.95 59.95 336.45 59.95 198.2 198.2 59.95 336.45 59.95 531.95 59.95 727.5 198.2 865.75 336.45 1003.95 531.95 1003.95 727.5 1003.95 865.75 865.75 941.9 789.55 976.1 696 1003.95 619.75 1003.95 531.95 1003.95 464.6 987.55 404 985.7 397.15 983.65 390.4 977.5 370.45 969.6 351.25 Z"/>
</g>

<g id="Layer3_0_FILL">
<path fill="#333333" stroke="none" d="
M 969.7 392
Q 967.95 385.15 966.05 378.4 964.52578125 373.114453125 962.85 367.85 960.3787109375 359.903125 957.6 352.05 947.85 324.5 934.45 298.4 928.65 287.05 922.15 276 891.5 224 845.8 178.25 736.8 69.25 592.15 46.2 567.65 42.3 542.1 40.85 527.2 40 512 40 497.9 40 484.1 40.75 306.55 49.95 178.25 178.25 40 316.5 40 512 40 707.55 178.25 845.8 263.0400390625 930.55703125 369.35 963.35 423.8880859375 980.1630859375 484.1 983.3 484.3 983.3 484.5 983.3 496.65 983.9 509 984 510.5 984 512 984 527.25 984 542.1 983.2 545.6 983 549.05 982.75 579.1 980.6 607.75 975.05 619.55 972.75 631.15 969.9 751.75 939.85 845.8 845.8 918.7 772.85 953.15 684 980.9 612.4 983.7 530.5 984 521.3 984 512 984 511 984 510 984 509.5 984 509 983.65 447.7 969.7 392 Z"/>
</g>

<g id="Layer2_0_FILL">
<path fill="#000000" fill-opacity="0.2" stroke="none" d="
M 953.15 684
Q 975.844140625 625.4447265625 981.85 560
L 511.35 89.5
Q 442.7119140625 408.6490234375 287.6 637
L 102.1 639.25 348.95 886.1 342.35 954.05
Q 355.681640625 959.1337890625 369.35 963.35 423.8880859375 980.1630859375 484.1 983.3 484.3 983.3 484.5 983.3 496.65 983.9 509 984 510.5 984 512 984 527.25 984 542.1 983.2 545.6 983 549.05 982.75 579.1 980.6 607.75 975.05 619.55 972.75 631.15 969.9 751.75 939.85 845.8 845.8 918.7 772.85 953.15 684 Z"/>
</g>

<g id="Layer0_0_FILL">
<path fill="#FFFFFF" stroke="none" d="
M 512.1 673.6
Q 530.85 672.1 547.85 669.55
L 530.6 641.7 511.85 673.2 493.65 641.7 476.4 669.55
Q 493.4 672.1 512.1 673.6
M 586 661.8
L 570 636.8 547.85 669.55
Q 568.25 666.45 586 661.8
M 586 661.8
Q 601.8 657.65 615.55 652.3
L 603.25 636.8 586 661.8
M 438.25 661.8
Q 456 666.45 476.4 669.55
L 454.25 636.8 438.25 661.8
M 408.7 652.3
Q 422.45 657.65 438.25 661.8
L 421 636.8 408.7 652.3
M 435.75 575.25
L 456.7 547.4
Q 426.1 546.95 396.35 544.9
L 435.75 575.25
M 332.35 551.7
L 343 539.75
Q 329.15 538.05 313.9 535.7
L 332.35 551.7
M 372.95 567.85
L 396.35 544.9
Q 370.2 543.05 343 539.75
L 372.95 567.85
M 567.55 547.4
L 588.5 575.25 627.9 544.9
Q 598.15 546.95 567.55 547.4
M 491.15 581.4
L 512.1 547.1 533.1 581.4 567.55 547.4
Q 541.35 547.8 514.55 546.95 513.35 546.9 512.15 546.9 512.05 546.9 512 546.9 510.85 546.9 509.7 546.95 482.9 547.8 456.7 547.4
L 491.15 581.4
M 651.3 567.85
L 679.6 539.95
Q 654.05 543.05 627.9 544.9
L 651.3 567.85
M 679.6 539.95
L 691.9 551.7 710.35 535.7
Q 695.1 538.05 679.6 539.95 Z"/>

<path fill="#8F2537" stroke="none" d="
M 438.25 661.8
L 454.25 636.8 476.4 669.55 493.65 641.7 511.85 673.2 530.6 641.7 547.85 669.55 570 636.8 586 661.8 603.25 636.8 615.55 652.3
Q 637.85 643.6 654.9 631.75 617.4 597.45 515.8 599.85 514.35 599.85 508.45 599.8 508.3 599.8 508.2 599.8
L 507.3 599.85
Q 507.0375 599.80625 506.75 599.8
L 506.6 599.8
Q 506.5 599.8 506.4 599.8 506.3 599.8 506.25 599.8
L 505 599.8
Q 406.2 598.05 369.35 631.75 386.4 643.6 408.7 652.3
L 421 636.8 438.25 661.8 Z"/>

<path fill="#C0392B" stroke="none" d="
M 102.1 639.25
Q 170.65 730.05 283.1 737.75 300.4 846.1 333.4 950.5 351.05 957.7 369.35 963.35 372.35 964.25 375.35 965.15 337.3 829.6 328.35 690.15 312.65 679.4 298 666.5 252.25 626.45 230.3 577.7 151.65 596.35 102.1 639.25
M 726.25 666.5
Q 711.6 679.4 695.9 690.15 687 829.55 648.95 965.1 670.35 958.8 690.95 950.45 723.85 846.05 741.15 737.75 853.6 730.05 922.15 639.25 872.6 596.35 793.95 577.7 772 626.45 726.25 666.5
M 810.7 504.95
Q 811.9 492.6 811.9 479.8 811.9 370.4 723.75 293.05 649.85 228.2 550.3 217.75 531.05 215.7 510.85 215.7 491.95 215.7 473.95 217.5 372.8 227.4 298 293.05 209.85 370.4 209.85 479.8 209.85 493.3 211.2 506.3 247.2 483.95 313.9 535.7 329.15 538.05 343 539.75 370.2 543.05 396.35 544.9 426.1 546.95 456.7 547.4 482.9 547.8 509.7 546.95 510.85 546.9 512 546.9 512.05 546.9 512.15 546.9 513.35 546.9 514.55 546.95 541.35 547.8 567.55 547.4 598.15 546.95 627.9 544.9 654.05 543.05 679.6 539.95 695.1 538.05 710.35 535.7 774.9 485.6 810.7 504.95
M 769.45 399.15
L 791.65 476.75 769.45 399.15
M 741.15 389.3
L 763.3 457.05 741.15 389.3
M 254.8 399.15
L 232.6 476.75 254.8 399.15
M 536.15 491.5
Q 539.85 487.8 545.1 487.8 550.3 487.8 554 491.5 557.7 495.2 557.7 500.45 557.7 505.65 554 509.35 550.3 513.05 545.1 513.05 539.85 513.05 536.15 509.35 532.45 505.65 532.45 500.45 532.45 495.2 536.15 491.5
M 491.8 500.45
Q 491.8 505.65 488.1 509.35 484.4 513.05 479.15 513.05 473.95 513.05 470.25 509.35 466.55 505.65 466.55 500.45 466.55 495.2 470.25 491.5 473.95 487.8 479.15 487.8 484.4 487.8 488.1 491.5 491.8 495.2 491.8 500.45
M 327.4 433.6
L 441.9 479.2
Q 338.15 513.5 327.4 433.6
M 283.1 389.3
L 260.95 457.05 283.1 389.3
M 582.35 479.2
L 696.85 433.6
Q 686.1 513.5 582.35 479.2 Z"/>

<path fill="#E94534" stroke="none" d="
M 510.85 215.7
Q 531.05 215.7 550.3 217.75
L 512.1 85.15 473.95 217.5
Q 491.95 215.7 510.85 215.7 Z"/>

<path fill="#666666" stroke="none" d="
M 695.9 690.15
L 696.4 688.05
Q 616.8 743.9 510.85 743.9 412.897265625 743.9 337.5 696.15
L 611 974.4
Q 621.15 972.35 631.15 969.9 640.1 967.65 648.95 965.1 687 829.55 695.9 690.15 Z"/>

<path fill="#333333" stroke="none" d="
M 691.9 551.7
L 679.6 539.95 651.3 567.85 627.9 544.9 588.5 575.25 567.55 547.4 533.1 581.4 512.1 547.1 491.15 581.4 456.7 547.4 435.75 575.25 396.35 544.9 372.95 567.85 343 539.75 332.35 551.7 313.9 535.7
Q 319.75 597.25 369.35 631.75 406.2 598.05 505 599.8
L 506.25 599.8
Q 506.3 599.8 506.4 599.8 506.5 599.8 506.6 599.8
L 506.75 599.8
Q 507.0375 599.80625 507.3 599.85
L 508.2 599.8
Q 508.3 599.8 508.45 599.8 514.35 599.85 515.8 599.85 617.4 597.45 654.9 631.75 704.5 597.25 710.35 535.7
L 691.9 551.7
M 696.85 433.6
L 582.35 479.2
Q 686.1 513.5 696.85 433.6
M 441.9 479.2
L 327.4 433.6
Q 338.15 513.5 441.9 479.2
M 488.1 509.35
Q 491.8 505.65 491.8 500.45 491.8 495.2 488.1 491.5 484.4 487.8 479.15 487.8 473.95 487.8 470.25 491.5 466.55 495.2 466.55 500.45 466.55 505.65 470.25 509.35 473.95 513.05 479.15 513.05 484.4 513.05 488.1 509.35
M 545.1 487.8
Q 539.85 487.8 536.15 491.5 532.45 495.2 532.45 500.45 532.45 505.65 536.15 509.35 539.85 513.05 545.1 513.05 550.3 513.05 554 509.35 557.7 505.65 557.7 500.45 557.7 495.2 554 491.5 550.3 487.8 545.1 487.8 Z"/>

<path fill="#CCCCCC" stroke="none" d="
M 813.05 506.3
Q 811.9 505.6 810.7 504.95 774.9 485.6 710.35 535.7 704.5 597.25 654.9 631.75 637.85 643.6 615.55 652.3 601.8 657.65 586 661.8 568.25 666.45 547.85 669.55 530.85 672.1 512.1 673.6 493.4 672.1 476.4 669.55 456 666.45 438.25 661.8 422.45 657.65 408.7 652.3 386.4 643.6 369.35 631.75 319.75 597.25 313.9 535.7 247.2 483.95 211.2 506.3 215.05 544 230.3 577.7 252.25 626.45 298 666.5 312.65 679.4 328.35 690.15 337.3 829.6 375.35 965.15 427.2 980.3 484.1 983.3 484.3 983.3 484.5 983.3 496.65 983.9 509 984 510.5 984 512 984 527.25 984 542.1 983.2 545.6 983 549.05 982.75 579.1 980.6 607.75 975.05 609.4 974.75 611 974.4
L 337.5 696.15
Q 412.897265625 743.9 510.85 743.9 616.8 743.9 696.4 688.05
L 695.9 690.15
Q 711.6 679.4 726.25 666.5 772 626.45 793.95 577.7 809.2 544 813.05 506.3 Z"/>
</g>

<path id="Layer0_0_1_STROKES" stroke="#000000" stroke-opacity="0.2" stroke-width="14" stroke-linejoin="round" stroke-linecap="round" fill="none" d="
M 769.45 399.15
L 791.65 476.75
M 741.15 389.3
L 763.3 457.05
M 254.8 399.15
L 232.6 476.75
M 283.1 389.3
L 260.95 457.05"/>
</defs>

<g transform="matrix( 1, 0, 0, 1, 0,0) ">
<use xlink:href="#Layer4_0_FILL"/>
</g>

<g transform="matrix( 1, 0, 0, 1, 0,0) ">
<use xlink:href="#Layer3_0_FILL"/>
</g>

<g transform="matrix( 1, 0, 0, 1, 0,0) ">
<use xlink:href="#Layer2_0_FILL"/>
</g>

<g transform="matrix( 1, 0, 0, 1, 0,0) ">
<use xlink:href="#Layer0_0_FILL"/>

<use xlink:href="#Layer0_0_1_STROKES"/>
</g>
</svg>
