<?xml version="1.0" encoding="utf-8"?>
<!-- Generator: flash2svg, http://dissentgraphics.com/tools/flash2svg -->
<svg xmlns:xlink="http://www.w3.org/1999/xlink" id="Apps-Adobe-Muse" image-rendering="optimizeSpeed" baseProfile="basic" version="1.1" style="background-color:#ffffff" x="0px" y="0px" width="1024px" height="1024px" viewBox="0 0 1024 1024" enable-background="new 0 0 1024 1024" xmlns="http://www.w3.org/2000/svg">
  <defs transform="matrix(1 0 0 1 0 0) "/>
  <g id="shadow">
    <g id="shape">
      <path id="path" fill="#000000" fill-opacity="0.09803921568627451" d="M965.65,347.3 Q957.05,326.45 946.25,306.45 C942.2,298.9 937.9,291.4 933.35,284.05 913.8,252.35 889.95,222.4 861.8,194.25 769.65,102.1 658.35,56 528,56 397.65,56 286.4,102.1 194.25,194.25 102.1,286.4 56,397.65 56,528 56,658.35 102.1,769.65 194.25,861.8 286.4,953.95 397.65,1000 528,1000 658.35,1000 769.65,953.95 861.8,861.8 912.55,811 949.35,754.4 972.15,692.05 990.7,641.2 1000,586.55 1000,528 1000,483.1 994.55,440.45 983.6,400.05 982.35,395.5 981.05,390.95 979.7,386.45 975.6,373.15 970.9,360.1 965.65,347.3z"/>
    </g>
  </g>
  <g id="BackgroundInner">
    <g id="shape2">
      <path id="path1" fill="#B0C365" fill-opacity="1" d="M985.45,512.3 Q985.45,316.5 847,178.05 C754.7,85.75 643.25,39.6 512.7,39.6 382.15,39.6 270.75,85.75 178.45,178.05 86.15,270.35 40,381.75 40,512.3 40,642.85 86.15,754.3 178.45,846.6 260.6,928.8 357.95,974.4 470.4,983.35 484.25,984.5 498.35,985.05 512.7,985.05 643.25,985.05 754.7,938.9 847,846.6 893.9,799.7 928.9,747.85 951.95,691.1 974.3,636.15 985.45,576.55 985.45,512.3z"/>
    </g>
  </g>
  <g id="LogoBg">
    <g id="shape4">
      <path id="path2" fill="#000000" fill-opacity="0.2" d="M951.95,691.1 Q966.895,654.319 975.175,614.775 L613.45,253.05 463.325,385.675 330.7,253.05 253.55,382.05 163.25,726.65 411.65,975.05 C430.9,979 450.4,981.75 470.4,983.35 484.25,984.5 498.35,985.05 512.7,985.05 643.25,985.05 754.7,938.9 847,846.6 893.9,799.7 928.9,747.85 951.95,691.1z"/>
    </g>
  </g>
  <g id="Calque.__202">
    <g id="shape6">
      <path id="path3" fill="#FFFFFF" fill-opacity="1" d="M613.45,253.05 L488,253.05 409.65,576.55 330.7,253.05 204.65,253.05 163.25,726.65 252.65,726.65 280.45,410.4 360.05,726.65 460.85,726.65 537.3,410.4 568.25,726.65 657.65,726.65 613.45,253.05z"/>
    </g>
  </g>
  <g id="Calque.__203">
    <g id="shape8">
      <path id="path4" fill="#FFFFFF" fill-opacity="1" d="M865.25,521.05 L810.45,521.05 810.45,670.6 794.75,681.1 C785.25,686.1 773.75,688.6 760.1,688.6 752.45,688.6 746.7,686.3 742.8,681.7 738.95,676.95 737.05,670 737.05,660.8 L737.05,521.05 682.1,521.05 682.1,659.45 C682.1,684 687.3,702.4 697.6,714.6 707.95,726.8 723.4,732.85 744,732.85 753.7,732.85 762.65,731.55 770.8,729 L781.55,724.4 790.75,719.45 810.45,707.35 821.05,729.4 865.25,729.4 865.25,521.05z"/>
    </g>
  </g>
</svg>