<?xml version="1.0" encoding="utf-8"?>
<!-- Generator: flash2svg, http://dissentgraphics.com/tools/flash2svg -->
<svg xmlns:xlink="http://www.w3.org/1999/xlink" id="Apps-Ms-Outlook" image-rendering="optimizeSpeed" baseProfile="basic" version="1.1" style="background-color:#ffffff" x="0px" y="0px" width="1024px" height="1024px" viewBox="0 0 1024 1024" enable-background="new 0 0 1024 1024" xmlns="http://www.w3.org/2000/svg">
  <defs transform="matrix(1 0 0 1 0 0) "/>
  <g id="shadow">
    <g id="shape">
      <path id="path" fill="#000000" fill-opacity="0.09803921568627451" d="M969.65,351.3 Q961.05,330.45 950.25,310.45 C946.2,302.9 941.9,295.4 937.35,288.05 917.8,256.35 893.95,226.4 865.8,198.25 773.65,106.1 662.35,60 532,60 401.65,60 290.4,106.1 198.25,198.25 106.1,290.4 60,401.65 60,532 60,662.35 106.1,773.65 198.25,865.8 290.4,957.95 401.65,1004 532,1004 662.35,1004 773.65,957.95 865.8,865.8 916.55,815 953.35,758.4 976.15,696.05 994.7,645.2 1004,590.55 1004,532 1004,487.1 998.55,444.45 987.6,404.05 986.35,399.5 985.05,394.95 983.7,390.45 979.6,377.15 974.9,364.1 969.65,351.3z"/>
    </g>
  </g>
  <g id="circle">
    <g id="shape2">
      <path id="path1" fill="#006EC3" fill-opacity="1" d="M969.75,392.05 C968.65,387.7 967.4,383.05 966.1,378.45 963.6,369.7 960.75,360.85 957.65,352.1 951.2,333.85 943.5,316.05 934.5,298.45 930.7,291.05 926.55,283.5 922.2,276.05 901.9,241.55 876.4,208.85 845.85,178.3 773.25,105.7 688.7,61.65 592.2,46.25 575.95,43.65 559.4,41.85 542.15,40.9 532.45,40.35 522.3,40.05 512.05,40.05 502.7,40.05 493.45,40.3 484.15,40.8 365.8,46.9 263.85,92.75 178.3,178.3 Q40.05,316.55 40.05,512.05 C40.05,642.4 86.15,753.7 178.3,845.85 263.85,931.35 365.8,977.2 484.15,983.35 484.3,983.35 484.4,983.35 484.55,983.35 487.95,983.55 491.3,983.7 494.15,983.75 499.5,983.95 504.3,984.05 509.05,984.05 510.25,984.05 511.15,984.05 512.05,984.05 522.35,984.05 532.55,983.75 542.15,983.25 544.65,983.1 546.9,982.95 549.1,982.8 569.3,981.35 589,978.75 607.8,975.1 615.75,973.55 623.6,971.8 631.2,969.95 632.15,969.7 633.1,969.45 633.85,969.3 713.7,948.65 784.1,907.6 845.85,845.85 894.45,797.25 930.25,743.35 953.2,684.05 959.85,666.9 965.45,649.25 970,631.05 977.95,599.05 982.55,565.55 983.75,530.55 983.95,524.5 984.05,518.3 984.05,512.05 984.05,511.4 984.05,510.7 984.05,510.05 984.05,509.7 984.05,509.4 984.05,509.05 984,501.85 983.8,494.75 983.5,487.45 982,454.7 977.45,422.9 969.75,392.05z"/>
    </g>
  </g>
  <g id="ico-shadow">
    <g id="shape4">
      <path id="path2" fill="#000000" fill-opacity="0.2" d="M970,631.05 C970.05,630.75 970.1,630.5 970.2,630.25 L970.175,630.225 L660.05,320.1 400.775,386 372.85,713.05 630.025,970.225 L630.05,970.25 C630.4,970.15 630.8,970.05 631.2,969.95 632.15,969.7 633.1,969.45 633.85,969.3 713.7,948.65 784.1,907.6 845.85,845.85 894.45,797.25 930.25,743.35 953.2,684.05 Q963.215,658.211 969.975,631.025"/>
    </g>
  </g>
  <g id="Calque.__201">
    <g id="shape6">
      <path id="path3" fill="#42ACFF" fill-opacity="1" d="M687.95,369.05 Q679.2,343.95 665.1,326 C655.65,313.85 645.9,304.45 635.85,297.8 625.6,290.85 613.35,285.45 599.2,281.5 L558.05,274 498.7,272.05 C472.35,272.05 448.1,275.2 425.9,281.5 411.7,285.45 399.55,290.85 389.5,297.8 379.45,304.45 369.65,313.85 360,326 350.4,337.95 342.7,352.4 336.85,369.35 331.15,386.3 326.4,406.9 322.65,431.15 321.1,441.8 319.85,453.3 318.95,465.7 359.2,435.35 407.75,411.8 464.65,394.95 465.7,394.05 466.8,393.25 467.95,392.55 477.15,386.7 490.65,383.8 508.5,383.8 526.25,383.8 539.4,385.25 547.95,388.2 556.6,391.3 563.6,397.9 569.05,407.95 574.25,418 577.7,430.95 579.35,446.8 L582.2,529.05 C582.2,548.55 580.95,565.2 578.4,579 576.15,592.8 572.6,603.8 567.8,611.95 564.75,617.35 560.6,621.85 555.35,625.4 554.8,625.75 554.3,626.1 553.75,626.45 613.25,609.2 663.8,584.6 705.35,552.65 705.5,550.75 705.6,548.85 705.7,546.95 706.45,532.5 706.8,516.8 706.8,499.9 706.8,474.8 705.25,451.35 702.1,429.6 698.95,407.85 694.2,387.65 687.95,369.05z"/>
      <path id="path4" fill="#FFFFFF" fill-opacity="1" d="M672,686 C682.25,669.25 690.6,646.45 697.05,617.6 701.05,599.95 703.8,578.3 705.35,552.65 663.8,584.6 613.25,609.2 553.75,626.45 551.5,627.85 549.05,629.1 546.4,630.15 536.8,634.3 524.7,636.35 510.05,636.35 480.95,636.35 462.3,628.65 454.15,613.2 446,597.75 441.9,567.5 441.9,522.5 441.9,477.5 444,446 448.25,428.05 451.7,412.3 457.15,401.25 464.65,394.95 407.75,411.8 359.2,435.35 318.95,465.7 318.8,467.45 318.7,469.25 318.6,471.05 317.75,485.2 317.3,500.45 317.3,516.8 317.3,549.9 319.3,579.4 323.35,605.35 327.5,631.1 333.85,652.4 342.45,669.3 351,686.25 360.4,700.1 370.65,710.8 380.9,721.65 394.2,729.7 410.55,734.9 426.85,740.35 442.35,743.95 457,745.6 L515,748.1 C538.65,748.1 559.4,746.65 577.2,743.75 594.95,740.8 612.65,734.5 630.2,724.9 647.75,715.5 661.7,702.55 672,686z"/>
    </g>
  </g>
</svg>