<?xml version="1.0" encoding="utf-8"?>
<!-- Generator: flash2svg, http://dissentgraphics.com/tools/flash2svg -->
<svg xmlns:xlink="http://www.w3.org/1999/xlink" id="Apps-SSHProxy" image-rendering="optimizeSpeed" baseProfile="basic" version="1.1" style="background-color:#ffffff" x="0px" y="0px" width="1024px" height="1024px" viewBox="0 0 1024 1024" enable-background="new 0 0 1024 1024" xmlns="http://www.w3.org/2000/svg">
  <defs transform="matrix(1 0 0 1 0 0) "/>
  <g id="shadow">
    <g id="shape">
      <path id="path" fill="#000000" fill-opacity="0.09803921568627451" d="M965.65,347.3 Q957.05,326.45 946.25,306.45 C942.2,298.9 937.9,291.4 933.35,284.05 913.8,252.35 889.95,222.4 861.8,194.25 769.65,102.1 658.35,56 528,56 397.65,56 286.4,102.1 194.25,194.25 102.1,286.4 56,397.65 56,528 56,658.35 102.1,769.65 194.25,861.8 286.4,953.95 397.65,1000 528,1000 658.35,1000 769.65,953.95 861.8,861.8 912.55,811 949.35,754.4 972.15,692.05 990.7,641.2 1000,586.55 1000,528 1000,483.1 994.55,440.45 983.6,400.05 982.35,395.5 981.05,390.95 979.7,386.45 975.6,373.15 970.9,360.1 965.65,347.3z"/>
    </g>
  </g>
  <g id="circle">
    <g id="shape2">
      <path id="path1" fill="#FFFFFF" fill-opacity="1" d="M968.45,382.15 C967,376.95 965.45,371.75 963.7,366.15 950.7,324.75 931.35,285.35 905.7,248.1 889,223.85 869.35,200.4 847,178.05 754.7,85.75 643.25,39.6 512.7,39.6 382.15,39.6 270.75,85.75 178.45,178.05 156.15,200.35 136.55,223.75 119.8,248.1 94.25,285.05 74.9,324.45 61.75,366.15 60,371.55 58.45,376.85 57,382.15 51.45,402.35 47.25,423.05 44.45,444.2 41.5,466.4 40,489.05 40,512.3 40,542.1 42.4,570.85 47.15,598.2 50.1,615.5 53.95,632.05 58.65,648.2 59.45,650.95 60.3,653.7 61.05,656.25 73.95,697.6 92.55,736.25 116.85,772.25 134.55,798.45 155,823.15 178.45,846.6 260.6,928.8 357.95,974.4 470.4,983.35 484.25,984.5 498.35,985.05 512.7,985.05 643.25,985.05 754.7,938.9 847,846.6 870.55,823.05 891.1,798.25 908.65,772.25 926,746.4 940.45,719.35 951.95,691.1 956.55,679.75 960.65,668.2 964.45,656.25 965.2,653.7 966.05,650.95 966.85,648.2 971.55,632.05 975.35,615.5 978.35,598.2 983.05,570.85 985.45,542.1 985.45,512.3 Q985.45,477.335 981.025,444.2 L981.05,444.2 C978.25,423.2 974.05,402.45 968.45,382.15z"/>
    </g>
  </g>
  <g id="film">
    <g id="shape4">
      <path id="path2" fill="#F7DA64" fill-opacity="1" d="M901.55,374.05 C884.85,325.9 858.35,281.3 822.2,240.6 816.3,233.95 809.95,227.25 803.4,220.7 722.95,140.25 625.85,100.05 512.05,100.05 398.25,100.05 301.15,140.25 220.7,220.7 140.25,301.15 100.05,398.25 100.05,512.05 100.05,625.85 140.25,722.95 220.7,803.4 301.15,883.85 398.25,924.05 512.05,924.05 556.95,924.05 599.25,917.8 638.5,905.4 699.9,886.05 754.7,852.1 803.4,803.4 832.4,774.4 856.15,743.25 874.7,709.9 Q924.05,621.2 924.05,512.05 C924.05,500.15 923.6,488.4 922.75,476.75 921.75,464.45 920.3,452.3 918.35,440.3 914.65,417.55 909.1,395.6 901.55,374.05z"/>
    </g>
  </g>
  <g id="film1">
    <g id="shape6">
      <path id="path3" fill="#000000" fill-opacity="0.2" d="M874.7,709.9 Q880.977,698.618 886.45,687 L666.85,467.4 634.3,452.2 425.175,243.075 269,407.7 726.325,865.025 L726.35,865.05 C753.6,848.1 779.25,827.55 803.4,803.4 832.4,774.4 856.15,743.25 874.7,709.9z"/>
    </g>
  </g>
  <g id="camera-shadow">
    <g id="shape8">
      <path id="path4" fill="#333333" fill-opacity="1" d="M420.45,277.9 C426.55,271.8 429.65,264.4 429.65,255.7 429.65,247.05 426.55,239.65 420.45,233.55 414.25,227.35 406.85,224.25 398.15,224.25 Q385.2,224.25 376,233.45 L269,340.45 C246.55,362.9 246.55,385.35 269,407.7 L375.9,514.7 C382.1,520.85 389.5,523.95 398.25,523.95 406.85,523.85 414.25,520.8 420.45,514.7 426.55,508.6 429.65,501.15 429.7,492.5 429.65,483.85 426.55,476.45 420.35,470.25 L354.5,404.4 502.05,404.4 C510.8,404.4 518.25,401.3 524.45,395.1 530.6,388.95 533.7,381.4 533.7,372.65 533.7,363.9 530.6,356.5 524.45,350.3 518.25,344.15 510.8,341.05 502.05,341.05 L357.25,341.05 420.45,277.9z M754.55,622.35 C777,600 777,577.55 754.55,555.1 L647.55,448.1 C641.45,442 634.05,438.9 625.4,438.9 616.7,438.9 609.3,442 603.1,448.2 597,454.3 593.9,461.7 593.9,470.35 593.9,479.05 597,486.45 603.1,492.55 L666.3,555.7 521.5,555.7 C512.75,555.7 505.3,558.8 499.1,564.95 492.95,571.15 489.85,578.55 489.85,587.3 489.85,596.05 492.95,603.6 499.1,609.75 505.3,615.95 512.75,619.05 521.5,619.05 L669.05,619.05 603.2,684.9 C597,691.1 593.9,698.5 593.85,707.15 593.9,715.8 597,723.25 603.1,729.35 609.3,735.45 616.7,738.5 625.3,738.6 634.05,738.6 641.45,735.5 647.65,729.35 L754.55,622.35z"/>
    </g>
  </g>
</svg>