<?xml version="1.0" encoding="utf-8"?>
<!-- Generator: flash2svg, http://dissentgraphics.com/tools/flash2svg -->
<svg xmlns:xlink="http://www.w3.org/1999/xlink" id="Redirection" image-rendering="optimizeSpeed" baseProfile="basic" version="1.1" style="background-color:#ffffff" x="0px" y="0px" width="1024px" height="1024px" viewBox="0 0 1024 1024" enable-background="new 0 0 1024 1024" xmlns="http://www.w3.org/2000/svg">
  <defs transform="matrix(1 0 0 1 0 0) "/>
  <g id="shadow">
    <g id="shape">
      <path id="path" fill="#000000" fill-opacity="0.09803921568627451" d="M969.65,351.3 Q961.05,330.45 950.25,310.45 C946.2,302.9 941.9,295.4 937.35,288.05 917.8,256.35 893.95,226.4 865.8,198.25 773.65,106.1 662.35,60 532,60 401.65,60 290.4,106.1 198.25,198.25 106.1,290.4 60,401.65 60,532 60,662.35 106.1,773.65 198.25,865.8 290.4,957.95 401.65,1004 532,1004 662.35,1004 773.65,957.95 865.8,865.8 916.55,815 953.35,758.4 976.15,696.05 994.7,645.2 1004,590.55 1004,532 1004,487.1 998.55,444.45 987.6,404.05 986.35,399.5 985.05,394.95 983.7,390.45 979.6,377.15 974.9,364.1 969.65,351.3z"/>
    </g>
  </g>
  <g id="Calque.__203">
    <g id="shape2">
      <path id="path1" fill="#C83937" fill-opacity="1" d="M832.55,163.6 C831.25,162.45 829.95,161.3 828.9,160.3 798.2,132.95 763.7,109.95 725.25,90.8 725.1,90.75 725,90.7 724.9,90.65 721.8,89.1 718.8,87.65 716.25,86.5 711.35,84.15 707,82.15 702.65,80.25 701.55,79.8 700.75,79.4 699.9,79.05 690.45,74.95 681,71.2 672,67.85 669.65,67 667.5,66.2 665.4,65.45 665.05,65.3 664.7,65.2 664.35,65.05 645.8,58.6 627.15,53.3 608.5,49.15 600.6,47.45 592.7,45.9 585,44.6 584.05,44.4 583.05,44.3 582.3,44.15 570.65,42.3 559.1,40.9 547.55,39.95 477.75,34.5 408.35,45.5 338.7,73 328.5,77 318.55,81.25 309.1,85.7 295.4,92.05 282.4,98.85 269.9,106.15 234.8,126.5 203.45,150.65 175.8,178.65 175.25,179.2 174.65,179.8 174.1,180.35 170.55,184.05 167,187.8 163.55,191.55 155.15,200.8 147.05,210.5 139.3,220.65 119.25,246.8 101.75,275.75 86.7,307.35 84.1,312.85 81.55,318.45 79.05,324.2 78.8,324.8 78.5,325.45 78.25,326.05 78.1,326.35 78,326.65 77.85,326.95 75.05,333.55 72.4,340.2 69.75,346.95 61.65,368.3 55.05,389.85 49.95,411.8 47.85,421.05 45.95,430.5 44.4,440 43.7,444.4 43,449.15 42.3,453.9 41.4,461.25 40.55,468.75 39.95,476.5 39.85,477.95 39.7,479.65 39.55,481.45 38.25,500.75 38.25,520.15 39.45,539.85 39.9,546.25 40.45,552.75 41.15,559.45 41.2,559.85 41.25,560.25 41.3,560.6 41.45,562.15 41.65,563.75 41.85,565.3 43.85,581.7 46.8,598.15 50.8,615 56.25,638.15 63.65,661.75 73,685.4 92.55,734.85 118.05,778.55 149.9,816.9 162.6,832.15 176.6,846.8 191.6,860.5 210.35,877.6 230.95,893.3 253.15,907.45 267,916.35 281.45,924.55 296.9,932.35 305.6,936.7 314.75,941 324.15,945.05 332.75,948.8 341.3,952.25 350.05,955.45 357.05,958.05 364.05,960.5 371.35,962.9 406.15,974.2 441.3,981.35 476.5,984.1 544.85,989.6 613.35,979 682.35,952.3 683.3,951.9 684.35,951.5 685.4,951.1 708.85,941.8 731.05,931.2 752,919.2 793.3,895.5 829.6,866.55 860.5,832.5 871.7,820.2 882.2,807.25 891.95,793.8 Q922.75,751.3 945.05,699.95 C961.25,662.6 972.6,625.1 978.9,588.4 980.6,578.75 981.9,569.5 982.9,560.3 983.35,555.85 983.75,551.7 984.1,547.55 987.75,502.5 984.35,457.35 973.95,412.05 973.9,411.9 973.9,411.7 973.85,411.55 968.15,387 960.6,362.8 951.1,338.7 923.4,268.75 883.85,210.3 832.55,163.6z"/>
    </g>
  </g>
  <g id="Calque.__204">
    <g id="shape4">
      <path id="path2" fill="#000000" fill-opacity="0.2" d="M748.1,748.1 Q845.9,650.35 845.9,512.05 C845.9,419.85 813.3,341.15 748.1,275.95 682.95,210.8 604.25,178.2 512.05,178.2 419.85,178.2 341.15,210.8 275.95,275.95 210.8,341.15 178.2,419.85 178.2,512.05 178.2,604.25 210.8,682.95 275.95,748.1 341.15,813.3 419.85,845.9 512.05,845.9 604.25,845.9 682.95,813.3 748.1,748.1z"/>
    </g>
  </g>
  <g id="Calque.__205">
    <g id="shape6">
      <path id="path3" fill="#C83937" fill-opacity="1" d="M676,447.05 Q676,425.95 661.1,411.05 C651.15,401.1 639.1,396.1 625.05,396.1 611,396.1 599,401.1 589.05,411.05 579.1,421 574.1,433 574.1,447.05 L574.1,577.05 C574.1,591.1 579.1,603.15 589.05,613.1 599,623.05 611,628 625.05,628 639.1,628 651.15,623.05 661.1,613.1 671.05,603.15 676,591.1 676,577.05 L676,447.05z M450,447.05 C450,433 445.05,421 435.1,411.05 425.15,401.1 413.1,396.1 399.05,396.1 385,396.1 373,401.1 363.05,411.05 353.1,421 348.1,433 348.1,447.05 L348.1,577.05 C348.1,591.1 353.1,603.15 363.05,613.1 373,623.05 385,628 399.05,628 413.1,628 425.15,623.05 435.1,613.1 445.05,603.15 450,591.1 450,577.05 L450,447.05z"/>
    </g>
  </g>
</svg>