<?xml version="1.0" encoding="utf-8"?>
<!-- Generator: flash2svg, http://dissentgraphics.com/tools/flash2svg -->
<svg xmlns:xlink="http://www.w3.org/1999/xlink" id="Batman" image-rendering="optimizeSpeed" baseProfile="basic" version="1.1" style="background-color:#ffffff" x="0px" y="0px" width="1024px" height="1024px" viewBox="0 0 1024 1024" enable-background="new 0 0 1024 1024" xmlns="http://www.w3.org/2000/svg">
  <defs transform="matrix(1 0 0 1 0 0) "/>
  <g id="shadow">
    <g id="shape">
      <path id="path" fill="#000000" fill-opacity="0.09803921568627451" d="M969.65,351.3 Q961.05,330.45 950.25,310.45 C946.2,302.9 941.9,295.4 937.35,288.05 917.8,256.35 893.95,226.4 865.8,198.25 773.65,106.1 662.35,60 532,60 401.65,60 290.4,106.1 198.25,198.25 106.1,290.4 60,401.65 60,532 60,662.35 106.1,773.65 198.25,865.8 290.4,957.95 401.65,1004 532,1004 662.35,1004 773.65,957.95 865.8,865.8 916.55,815 953.35,758.4 976.15,696.05 994.7,645.2 1004,590.55 1004,532 1004,487.1 998.55,444.45 987.6,404.05 986.35,399.5 985.05,394.95 983.7,390.45 979.6,377.15 974.9,364.1 969.65,351.3z"/>
    </g>
  </g>
  <g id="bg">
    <g id="shape2">
      <path id="path1" fill="#547587" fill-opacity="1" d="M962.95,367.95 C961.35,362.8 959.55,357.45 957.65,352.1 951.2,333.85 943.5,316.05 934.5,298.45 930.7,291.05 926.55,283.5 922.2,276.05 901.9,241.55 876.4,208.85 845.85,178.3 773.25,105.7 688.7,61.65 592.2,46.25 575.95,43.65 559.4,41.85 542.15,40.9 532.45,40.35 522.3,40.05 512.05,40.05 502.7,40.05 493.45,40.3 484.15,40.8 365.8,46.9 263.85,92.75 178.3,178.3 Q40.05,316.55 40.05,512.05 C40.05,642.4 86.15,753.7 178.3,845.85 235,902.5 298.85,941.75 369.4,963.4 406.15,974.65 444.2,981.25 484.15,983.35 484.3,983.35 484.4,983.35 484.55,983.35 493.05,983.8 501.15,984.05 509.05,984.05 510.25,984.05 511.15,984.05 512.05,984.05 522.35,984.05 532.55,983.75 542.15,983.25 544.65,983.1 546.9,982.95 549.1,982.8 569.3,981.35 589,978.75 607.8,975.1 615.75,973.55 623.6,971.8 631.2,969.95 712,949.65 783.35,908.35 845.85,845.85 894.45,797.25 930.25,743.35 953.2,684.05 971.65,636.4 981.85,585.25 983.75,530.55 983.95,524.5 984.05,518.3 984.05,512.05 984.05,511.4 984.05,510.7 984.05,510.05 984.05,509.7 984.05,509.4 984.05,509.05 983.85,468.4 979.1,429.55 969.75,392.05 968.65,387.7 967.4,383.05 966.1,378.45 965.1,375.05 964.1,371.6 962.95,367.95z"/>
    </g>
  </g>
  <g id="bg1">
    <g id="shape4">
      <path id="path2" fill="#494949" fill-opacity="1" d="M122.55,658.975 Q122.751,659.513 122.95,660.05 L127.575,660.05 L127.6,660.05 C125.6,660 123.9,659.65 122.55,659 M392.55,433.05 L369.65,433.05 C363,433.05 359.65,436.4 359.65,443.05 360.55,474.65 360.8,505.3 360.35,535.05 L382.55,535.55 C389.2,535.55 392.55,532.2 392.55,525.55 L392.55,433.05z"/>
    </g>
  </g>
  <mask id="bg2">
    <g id="g">
      <g id="shape10">
        <path id="path6" fill="#FFFFFF" fill-opacity="1" d="M962.95,367.95 C961.35,362.8 959.55,357.45 957.65,352.1 951.2,333.85 943.5,316.05 934.5,298.45 930.7,291.05 926.55,283.5 922.2,276.05 901.9,241.55 876.4,208.85 845.85,178.3 773.25,105.7 688.7,61.65 592.2,46.25 575.95,43.65 559.4,41.85 542.15,40.9 532.45,40.35 522.3,40.05 512.05,40.05 502.7,40.05 493.45,40.3 484.15,40.8 365.8,46.9 263.85,92.75 178.3,178.3 Q40.05,316.55 40.05,512.05 C40.05,642.4 86.15,753.7 178.3,845.85 235,902.5 298.85,941.75 369.4,963.4 406.15,974.65 444.2,981.25 484.15,983.35 484.3,983.35 484.4,983.35 484.55,983.35 493.05,983.8 501.15,984.05 509.05,984.05 510.25,984.05 511.15,984.05 512.05,984.05 522.35,984.05 532.55,983.75 542.15,983.25 544.65,983.1 546.9,982.95 549.1,982.8 569.3,981.35 589,978.75 607.8,975.1 615.75,973.55 623.6,971.8 631.2,969.95 712,949.65 783.35,908.35 845.85,845.85 894.45,797.25 930.25,743.35 953.2,684.05 971.65,636.4 981.85,585.25 983.75,530.55 983.95,524.5 984.05,518.3 984.05,512.05 984.05,511.4 984.05,510.7 984.05,510.05 984.05,509.7 984.05,509.4 984.05,509.05 983.85,468.4 979.1,429.55 969.75,392.05 968.65,387.7 967.4,383.05 966.1,378.45 965.1,375.05 964.1,371.6 962.95,367.95z"/>
      </g>
    </g>
  </mask>
  <g id="masked" mask="url(#bg2)">
    <g id="Calque.__204">
      <g id="shape8">
        <path id="path5" fill="#000000" fill-opacity="0.2980392156862745" d="M978.05,804.05 C985.15,797.75 984.05,504.05 984.05,504.05 L625.35,132.05 590.15,323.4 398.8,132.05 360.45,811.25 978.05,804.05z"/>
      </g>
    </g>
    <g id="Symbole.__2031">
      <g id="Symbole.__2032_1" overflow="visible">
        <g id="Calque.__222">
          <g id="Symbole.__2034_2" overflow="visible">
            <g id="Calque.__223">
              <g id="shape35">
                <path id="path25" fill="#333333" fill-opacity="1" d="M512.5,281.1 C512.35,281.1 512.2,281.1 512.05,281.1 511.9,281.1 511.7,281.1 511.55,281.1 486,281.4 462.75,287.15 441.75,298.35 L398.75,132.1 363.35,397.1 C361.7,403.75 360.5,410.1 359.85,416.1 359.25,421.2 359,426.05 359.15,430.65 359.3,437.5 359.55,444.1 359.85,450.15 360,453.45 360.15,456.35 360.3,459.2 L360.3,547.1 C360.15,547.15 360,547.15 359.85,547.2 231.15,575.35 74.65,598.45 10.35,616.45 162.45,614.4 369.65,646.6 512,713.05 641.25,644.8 848.45,612.6 1013.7,616.45 949.35,598.4 792.7,575.3 663.75,547.1 L663.75,459.2 Q665.3,447.95 665.3,436.1 C665.3,422.45 663.75,409.45 660.7,397.1 L625.3,132.1 582.3,298.35 C561.3,287.15 538.05,281.4 512.5,281.1z"/>
                <path id="path26" fill="#666666" fill-opacity="1" d="M1013.7,616.45 C848.45,612.6 641.25,644.8 512,713.05 369.65,646.6 162.45,614.4 10.35,616.45 L10.35,984.1 1013.7,984.1 1013.7,616.45z"/>
              </g>
            </g>
          </g>
          <g id="Symbole.__2036_2" overflow="visible">
            <g id="Calque.__224">
              <g id="shape36">
                <path id="path27" fill="#666666" fill-opacity="1" d="M619.3,463.7 L512.9,505.25 406.45,463.7 406.45,605.85 473,672.3 552.75,672.3 619.3,605.85 619.3,463.7z"/>
              </g>
            </g>
          </g>
          <g id="Symbole.__2038_2" overflow="visible">
            <g id="Calque.__225">
              <g id="Symbole.__2042_4" overflow="visible">
                <g id="Calque.__226">
                  <g id="shape37">
                    <path id="path28" fill="#F2DD69" fill-opacity="1" d="M650.6,748.3 C612.35,733.45 566.15,726 512.05,726 457.9,726 411.7,733.45 373.45,748.3 Q316.05,770.6 316.05,802.15 C316.05,823.2 335.2,841.2 373.45,856.05 411.7,870.9 457.9,878.35 512.05,878.35 566.15,878.35 612.35,870.9 650.6,856.05 688.85,841.2 708,823.2 708,802.15 708,781.1 688.85,763.15 650.6,748.3z"/>
                  </g>
                </g>
              </g>
              <g id="Symbole.__2044_4" overflow="visible">
                <g id="Calque.__227">
                  <g id="shape38">
                    <path id="path29" fill="#333333" fill-opacity="1" d="M551.65,770.6 C534.45,772.1 528.25,750.9 528.25,750.9 L533.55,761.3 L528.25,750.9 Q524.8,754.75 519.5,757.1 515.65,758.95 514,758.95 C513.1,758.95 505.05,756.9 499.75,750.9 L494.45,761.3 L499.75,750.9 C499.75,750.9 493.55,772.1 476.55,770.6 459.4,769.15 441.1,752.35 441.1,752.35 L452.45,760.95 L441.1,752.35 L426.3,763.85 L441.1,752.35 C441.1,752.35 412.05,767.15 409.35,800.4 407.7,820.5 420.65,828.55 420.65,828.55 420.65,828.55 433.1,817.2 442.95,818.1 452.65,818.85 463.95,835.5 463.95,835.5 L470.15,833.65 L463.95,835.5 C463.95,835.5 474.2,831.65 483.5,832.55 493,833.3 514,855.55 514,855.55 514,855.55 535,833.3 544.5,832.55 554,831.65 564.25,835.5 564.25,835.5 564.25,835.5 575.4,818.85 585.25,818.1 595.1,817.2 607.35,828.55 607.35,828.55 607.35,828.55 620.5,820.5 618.85,800.4 616.1,767.15 587.1,752.35 587.1,752.35 L601.9,763.85 L587.1,752.35 L575.75,760.95 L587.1,752.35 C587.1,752.35 568.65,769.15 551.65,770.6z"/>
                  </g>
                </g>
              </g>
            </g>
          </g>
          <g id="Symbole.__2040_2" overflow="visible">
            <g id="Calque.__228">
              <g id="shape39">
                <path id="path30" fill="#FF6600" fill-opacity="1" d="M597.85,432.15 L561,442 547.25,457.05 584.1,447.15 597.85,432.15z M462.35,442 L425.5,432.15 439.25,447.15 476.1,457.05 462.35,442z"/>
              </g>
            </g>
          </g>
        </g>
      </g>
    </g>
  </g>
</svg>