
<svg xmlns="http://www.w3.org/2000/svg" version="1.1" xmlns:xlink="http://www.w3.org/1999/xlink" preserveAspectRatio="none" x="0px" y="0px" width="1024px" height="1024px" viewBox="0 0 1024 1024">
<defs>
<g id="Layer3_0_FILL">
<path fill="#000000" fill-opacity="0.09803921568627451" stroke="none" d="
M 969.6 351.25
Q 961 330.4 950.2 310.4 944.1 299.05 937.3 288 907.95 240.45 865.75 198.2 727.5 59.95 531.95 59.95 336.45 59.95 198.2 198.2 59.95 336.45 59.95 531.95 59.95 727.5 198.2 865.75 336.45 1003.95 531.95 1003.95 727.5 1003.95 865.75 865.75 941.9 789.55 976.1 696 1003.95 619.75 1003.95 531.95 1003.95 464.6 987.55 404 985.7 397.15 983.65 390.4 977.5 370.45 969.6 351.25 Z"/>
</g>

<g id="Layer2_0_FILL">
<path fill="#72E79F" stroke="none" d="
M 969.7 392
Q 967.95 385.15 966.05 378.4 964.52578125 373.114453125 962.85 367.85 960.3787109375 359.903125 957.6 352.05 947.85 324.5 934.45 298.4 928.65 287.05 922.15 276 891.5 224 845.8 178.25 736.8 69.25 592.15 46.2 567.65 42.3 542.1 40.85 527.2 40 512 40 497.9 40 484.1 40.75 306.55 49.95 178.25 178.25 40 316.5 40 512 40 707.55 178.25 845.8 263.0400390625 930.55703125 369.35 963.35 423.8880859375 980.1630859375 484.1 983.3 484.3 983.3 484.5 983.3 496.65 983.9 509 984 510.5 984 512 984 527.25 984 542.1 983.2 545.6 983 549.05 982.75 579.1 980.6 607.75 975.05 619.55 972.75 631.15 969.9 751.75 939.85 845.8 845.8 918.7 772.85 953.15 684 980.9 612.4 983.7 530.5 984 521.3 984 512 984 511 984 510 984 509.5 984 509 983.65 447.7 969.7 392 Z"/>
</g>

<g id="Layer1_0_FILL">
<path fill="#000000" fill-opacity="0.2" stroke="none" d="
M 983.7 530.5
Q 983.788671875 527.7798828125 983.85 525.05
L 739 280.2 535 488.9 312 456.05 220 471.55 696.5 948.05
Q 778.0552734375 913.5447265625 845.8 845.8 918.7 772.85 953.15 684 980.9 612.4 983.7 530.5 Z"/>
</g>

<g id="Layer0_0_FILL">
<path fill="#FFFFFF" stroke="none" d="
M 676.55 391.9
Q 702.3 399.8 726.05 384 749.8 370.15 755.7 342.45 765.6 306.8 739.9 281.1 720.1 261.3 692.4 261.3 664.7 261.3 644.9 281.1 617.2 308.8 627.1 346.4
L 553.9 417.6
Q 526.2 403.75 494.5 409.7 462.85 415.65 441.1 437.4
L 433.15 447.3 334.25 411.7
Q 330.25 391.9 316.4 378.05 296.65 358.25 268.95 358.25 241.2 358.25 221.45 378.05 201.65 399.8 201.65 425.55 201.65 453.25 221.45 473.05 241.2 492.8 266.95 492.8 292.65 492.8 314.45 477
L 411.4 510.65
Q 411.4 554.15 441.1 579.9 470.75 609.55 510.35 609.55
L 545.95 708.5
Q 526.2 730.3 528.15 758 530.15 785.7 551.9 803.5 573.65 823.3 599.4 821.3 627.1 821.3 646.9 799.55 664.7 779.75 662.7 752.05 662.7 726.3 642.95 706.55 629.1 692.7 609.3 688.75
L 573.65 589.8 583.55 581.85
Q 633.05 532.4 603.35 467.1
L 676.55 391.9 Z"/>
</g>
</defs>

<g transform="matrix( 1, 0, 0, 1, 0,0) ">
<use xlink:href="#Layer3_0_FILL"/>
</g>

<g transform="matrix( 1, 0, 0, 1, 0,0) ">
<use xlink:href="#Layer2_0_FILL"/>
</g>

<g transform="matrix( 1, 0, 0, 1, 0,0) ">
<use xlink:href="#Layer1_0_FILL"/>
</g>

<g transform="matrix( 1, 0, 0, 1, 0,0) ">
<use xlink:href="#Layer0_0_FILL"/>
</g>
</svg>
