<?xml version="1.0" encoding="utf-8"?>
<!-- Generator: flash2svg, http://dissentgraphics.com/tools/flash2svg -->
<svg xmlns:xlink="http://www.w3.org/1999/xlink" id="Apps-CCleaner" image-rendering="optimizeSpeed" baseProfile="basic" version="1.1" style="background-color:#ffffff" x="0px" y="0px" width="1024px" height="1024px" viewBox="0 0 1024 1024" enable-background="new 0 0 1024 1024" xmlns="http://www.w3.org/2000/svg">
  <defs transform="matrix(1 0 0 1 0 0) "/>
  <g id="background-circle-shadow">
    <g id="shape">
      <path id="path" fill="#000000" fill-opacity="0.09803921568627451" d="M969.65,351.3 Q961.05,330.45 950.25,310.45 C946.2,302.9 941.9,295.4 937.35,288.05 917.8,256.35 893.95,226.4 865.8,198.25 773.65,106.1 662.35,60 532,60 401.65,60 290.4,106.1 198.25,198.25 106.1,290.4 60,401.65 60,532 60,662.35 106.1,773.65 198.25,865.8 290.4,957.95 401.65,1004 532,1004 662.35,1004 773.65,957.95 865.8,865.8 916.55,815 953.35,758.4 976.15,696.05 994.7,645.2 1004,590.55 1004,532 1004,487.1 998.55,444.45 987.6,404.05 986.35,399.5 985.05,394.95 983.7,390.45 979.6,377.15 974.9,364.1 969.65,351.3z"/>
    </g>
  </g>
  <g id="background-circle">
    <g id="shape2">
      <path id="path1" fill="#9A2E22" fill-opacity="1" d="M966.1,378.45 C965.1,375.05 964.1,371.6 962.95,367.95 961.35,362.8 959.55,357.45 957.65,352.1 951.2,333.85 943.5,316.05 934.5,298.45 930.7,291.05 926.55,283.5 922.2,276.05 901.9,241.55 876.4,208.85 845.85,178.3 773.25,105.7 688.7,61.65 592.2,46.25 575.95,43.65 559.4,41.85 542.15,40.9 532.45,40.35 522.3,40.05 512.05,40.05 502.7,40.05 493.45,40.3 484.15,40.8 365.8,46.9 263.85,92.75 178.3,178.3 Q40.05,316.55 40.05,512.05 C40.05,642.4 86.15,753.7 178.3,845.85 235,902.5 298.85,941.75 369.4,963.4 406.15,974.65 444.2,981.25 484.15,983.35 484.3,983.35 484.4,983.35 484.55,983.35 493.05,983.8 501.15,984.05 509.05,984.05 510.25,984.05 511.15,984.05 512.05,984.05 522.35,984.05 532.55,983.75 542.15,983.25 544.65,983.1 546.9,982.95 549.1,982.8 569.3,981.35 589,978.75 607.8,975.1 615.75,973.55 623.6,971.8 631.2,969.95 712,949.65 783.35,908.35 845.85,845.85 894.45,797.25 930.25,743.35 953.2,684.05 971.65,636.4 981.85,585.25 983.75,530.55 983.95,524.5 984.05,518.3 984.05,512.05 984.05,511.4 984.05,510.7 984.05,510.05 984.05,509.7 984.05,509.4 984.05,509.05 983.85,468.4 979.1,429.55 969.75,392.05 968.65,387.7 967.4,383.05 966.1,378.45z"/>
    </g>
  </g>
  <g id="object-shadow">
    <g id="shape4">
      <path id="path2" fill="#000000" fill-opacity="0.2" d="M966.1,378.45 C965.1,375.05 964.1,371.6 962.95,367.95 961.35,362.8 959.55,357.45 957.65,352.1 951.2,333.85 943.5,316.05 934.5,298.45 930.7,291.05 926.55,283.5 922.2,276.05 901.9,241.55 876.4,208.85 845.85,178.3 803.3,135.75 756.65,103 705.6,79.95 L705.575,79.95 L635.2,252.05 534.05,228.05 275.775,370.05 249.05,656.4 152.8,742.2 375.975,965.375 L376,965.4 C410.85,975.45 446.65,981.4 484.15,983.35 484.3,983.35 484.4,983.35 484.55,983.35 493.05,983.8 501.15,984.05 509.05,984.05 Q510.55,984.05 512.05,984.05 C522.35,984.05 532.55,983.75 542.15,983.25 544.65,983.1 546.9,982.95 549.1,982.8 569.3,981.35 589,978.75 607.8,975.1 615.75,973.55 623.6,971.8 631.2,969.95 712,949.65 783.35,908.35 845.85,845.85 894.45,797.25 930.25,743.35 953.2,684.05 971.65,636.4 981.85,585.25 983.75,530.55 983.95,524.5 984.05,518.3 984.05,512.05 984.05,511.4 984.05,510.7 984.05,510.05 984.05,509.7 984.05,509.4 984.05,509.05 983.85,468.4 979.1,429.55 969.75,392.05 968.65,387.7 967.4,383.05 966.1,378.45z"/>
    </g>
  </g>
  <g id="object">
    <g id="shape6">
      <path id="path3" fill="#D33329" fill-opacity="1" d="M755.65,272.65 Q755.665,270.621 754.25,269.15 C753.9,268.8 753.55,268.45 753.2,268.1 L753.175,268.075 L753.25,268.125 L753.25,268.15 C686.65,202.25 606.4,169.3 512.5,169.3 417.85,169.3 337.1,202.75 270.25,269.6 203.4,336.45 169.95,417.2 169.95,511.85 L169.925,511.85 L169.925,511.875 L169.95,511.9 C169.95,606.35 203.3,686.95 269.95,753.75 270,753.85 270.1,753.95 270.25,754.05 337.1,820.95 417.85,854.4 512.5,854.45 606.7,854.45 687.15,821.25 753.9,754.9 L753.875,754.9 L753.875,754.875 754.35,754.4 C755.3,753.45 755.8,752.25 755.85,750.9 755.8,749.5 755.3,748.3 754.35,747.35 L664.8,657.775 L664.8,657.8 C663.85,656.8 662.65,656.3 661.3,656.3 659.9,656.3 658.7,656.8 657.75,657.75 617.6,697.75 569.2,717.75 512.5,717.8 455.6,717.8 407.05,697.7 366.9,657.45 366.75,657.35 366.65,657.25 366.55,657.15 326.55,617 306.55,568.6 306.6,511.85 306.55,454.95 326.65,406.4 366.85,366.2 407.05,326 455.6,305.9 512.5,305.95 569.1,305.9 617.45,325.85 657.6,365.7 658.55,366.65 659.75,367.15 661.1,367.15 662.45,367.15 663.65,366.65 664.65,365.7 L664.625,365.675 L754.175,276.125 L754.2,276.15 C755.15,275.2 755.6,274 755.65,272.65z"/>
    </g>
  </g>
  <mask id="background-circle1">
    <g id="g">
      <g id="shape19">
        <path id="path13" fill="#FFFFFF" fill-opacity="1" d="M966.1,378.45 C965.1,375.05 964.1,371.6 962.95,367.95 961.35,362.8 959.55,357.45 957.65,352.1 951.2,333.85 943.5,316.05 934.5,298.45 930.7,291.05 926.55,283.5 922.2,276.05 901.9,241.55 876.4,208.85 845.85,178.3 773.25,105.7 688.7,61.65 592.2,46.25 575.95,43.65 559.4,41.85 542.15,40.9 532.45,40.35 522.3,40.05 512.05,40.05 502.7,40.05 493.45,40.3 484.15,40.8 365.8,46.9 263.85,92.75 178.3,178.3 Q40.05,316.55 40.05,512.05 C40.05,642.4 86.15,753.7 178.3,845.85 235,902.5 298.85,941.75 369.4,963.4 406.15,974.65 444.2,981.25 484.15,983.35 484.3,983.35 484.4,983.35 484.55,983.35 493.05,983.8 501.15,984.05 509.05,984.05 510.25,984.05 511.15,984.05 512.05,984.05 522.35,984.05 532.55,983.75 542.15,983.25 544.65,983.1 546.9,982.95 549.1,982.8 569.3,981.35 589,978.75 607.8,975.1 615.75,973.55 623.6,971.8 631.2,969.95 712,949.65 783.35,908.35 845.85,845.85 894.45,797.25 930.25,743.35 953.2,684.05 971.65,636.4 981.85,585.25 983.75,530.55 983.95,524.5 984.05,518.3 984.05,512.05 984.05,511.4 984.05,510.7 984.05,510.05 984.05,509.7 984.05,509.4 984.05,509.05 983.85,468.4 979.1,429.55 969.75,392.05 968.65,387.7 967.4,383.05 966.1,378.45z"/>
      </g>
    </g>
  </mask>
  <g id="masked" mask="url(#background-circle1)">
    <g id="Calque.__201">
      <g id="shape8">
        <path id="path4" fill="#00528C" fill-opacity="1" d="M957.25,-415.95 L942.05,-422.85 426.3,711.4 638.15,807.75 641.4,800.55 C645.2,792.2 645.5,783.75 642.3,775.1 639.05,766.5 633.25,760.3 624.85,756.5 L458.5,680.85 957.25,-415.95z"/>
        <path id="path5" fill="#3887C0" fill-opacity="1" d="M942.05,-422.85 L926.65,-429.9 427.9,666.9 261.5,591.25 C253.15,587.45 244.7,587.2 236.1,590.4 227.5,593.65 221.25,599.4 217.45,607.75 L214.2,614.95 426.3,711.4 942.05,-422.85z"/>
        <path id="path6" fill="#00518E" fill-opacity="1" d="M214.2,614.95 L204.7,635.8 219.25,642.4 416.8,732.25 426.3,711.4 214.2,614.95z"/>
        <path id="path7" fill="#E4E4E4" fill-opacity="1" d="M226.85,775.9 L235.4,744.95 217.75,771.75 226.85,775.9z M582.6,937.65 L614.1,821.95 416.8,732.25 367.8,840 441.6,873.55 486.05,806.05 464.45,883.95 582.6,937.65z"/>
        <path id="path8" fill="#F9F9F9" fill-opacity="1" d="M235.4,744.95 L226.85,775.9 367.8,840 416.8,732.25 219.25,642.4 152.8,742.2 217.75,771.75 235.4,744.95z"/>
        <path id="path9" fill="#003863" fill-opacity="1" d="M426.3,711.4 L416.8,732.25 614.1,821.95 628.65,828.6 638.15,807.75 426.3,711.4z"/>
        <path id="path12" fill="#B5B5B5" fill-opacity="1" d="M441.6,873.55 L464.45,883.95 486.05,806.05 441.6,873.55z"/>
      </g>
    </g>
  </g>
</svg>