
<svg xmlns="http://www.w3.org/2000/svg" version="1.1" xmlns:xlink="http://www.w3.org/1999/xlink" preserveAspectRatio="none" x="0px" y="0px" width="1024px" height="1024px" viewBox="0 0 1024 1024">
<defs>
<g id="Layer6_0_FILL">
<path fill="#000000" fill-opacity="0.09803921568627451" stroke="none" d="
M 965.6 350.25
Q 957 329.4 946.2 309.4 940.1 298.05 933.3 287 903.95 239.45 861.75 197.2 723.5 58.95 527.95 58.95 332.45 58.95 194.2 197.2 55.95 335.45 55.95 530.95 55.95 726.5 194.2 864.75 332.45 1002.95 527.95 1002.95 723.5 1002.95 861.75 864.75 937.9 788.55 972.1 695 999.95 618.75 999.95 530.95 999.95 463.6 983.55 403 981.7 396.15 979.65 389.4 973.5 369.45 965.6 350.25 Z"/>
</g>

<g id="Layer5_0_FILL">
<path fill="#0074D0" stroke="none" d="
M 966.05 378.4
Q 962.2 365.05 957.6 352.05 947.85 324.5 934.45 298.4 928.65 287.05 922.15 276 891.5 224 845.8 178.25 707.6 40.05 512.1 40 512.05 40 512 40 316.5 40 178.25 178.25 40 316.5 40 512 40 512.05 40 512.15 40.05 707.6 178.25 845.8 191.054296875 858.598046875 204.35 870.2 296.8623046875 951.017578125 413.15 974.45 460.6 984 512 984 513.05 984 514.1 984 708.3 983.25 845.8 845.8 890.97421875 800.5947265625 921.35 749.25 940.0478515625 717.7919921875 953.15 684 978.7 618 983.1 543.25 983.95 528.85 984 514.15 984 513.1 984 512 984 457.4720703125 973.25 407.35 971.61328125 399.6326171875 969.7 392 967.95 385.15 966.05 378.4 Z"/>
</g>

<g id="Layer4_0_FILL">
<path fill="#000000" fill-opacity="0.2" stroke="none" d="
M 953.15 684
Q 961.694921875 661.9267578125 967.85 638.85
L 590 261 510 356.8 454 290 392 262 347 274 369 342 414 387 365 408 304 469 290 571 357 744 591 978
Q 736.359765625 955.200390625 845.8 845.8 890.97421875 800.5947265625 921.35 749.25 940.0478515625 717.7919921875 953.15 684 Z"/>
</g>

<path id="Symbole_2_0_Layer0_0_1_STROKES" stroke="#FFFFFF" stroke-width="13.5" stroke-linejoin="round" stroke-linecap="round" fill="none" d="
M 294.95 8
Q 235.4 46.95 221.85 100.5 216.25 122.45 218.35 146.75 218.6 149.45 218.95 152.25 221.85 150.8 224.7 149.55 318.65 106.1 393.9 154.2 471.5 221.7 440.55 346.35 402.85 474.85 314.75 511.75 279.55 523.2 248.35 512.35 237.1 508.3 224.7 509.15 212.25 508.3 201.1 512.35 169.9 523.2 134.65 511.75 46.55 474.85 8.85 346.35 -22.15 221.7 55.55 154.2 116.05 115.4 168.45 132.4
M 58.1 6.6
Q 153.2 -25.8 221.85 100.5 67.3 107.1 58.1 6.6 Z
M 296.3 172.65
Q 420.65 183.1 403.05 318.95"/>
</defs>

<g transform="matrix( 1, 0, 0, 1, 0,0) ">
<use xlink:href="#Layer6_0_FILL"/>
</g>

<g transform="matrix( 1, 0, 0, 1, 0,0) ">
<use xlink:href="#Layer5_0_FILL"/>
</g>

<g transform="matrix( 1, 0, 0, 1, 0,0) ">
<use xlink:href="#Layer4_0_FILL"/>
</g>

<g transform="matrix( 1, 0, 0, 1, 290.4,262.4) ">
<g transform="matrix( 1, 0, 0, 1, 0,0) ">
<use xlink:href="#Symbole_2_0_Layer0_0_1_STROKES"/>
</g>
</g>
</svg>
