<?xml version="1.0" encoding="utf-8"?>
<!-- Generator: flash2svg, http://dissentgraphics.com/tools/flash2svg -->
<svg id="Apps-Icompta" image-rendering="optimizeSpeed" baseProfile="basic" version="1.1" style="background-color:#FFFFFF" x="0px" y="0px" width="1024px" height="1024px" viewBox="0 0 1024 1024" enable-background="new 0 0 1024 1024" xmlns="http://www.w3.org/2000/svg" xmlns:xlink="http://www.w3.org/1999/xlink">
  <defs transform="matrix(1 0 0 1 0 0) "/>
  <g id="background-circle-shadow">
    <g id="shape">
      <path id="path" fill="#000000" fill-opacity="0.09803921568627451" d="M969.6,351.25 Q961,330.4 950.2,310.4 C946.15,302.85 941.85,295.35 937.3,288 917.75,256.3 893.9,226.35 865.75,198.2 773.6,106.05 662.3,59.95 531.95,59.95 401.6,59.95 290.35,106.05 198.2,198.2 106.05,290.35 59.95,401.6 59.95,531.95 59.95,662.3 106.05,773.6 198.2,865.75 290.35,957.9 401.6,1003.95 531.95,1003.95 662.3,1003.95 773.6,957.9 865.75,865.75 916.5,814.95 953.3,758.35 976.1,696 994.65,645.15 1003.95,590.5 1003.95,531.95 1003.95,487.05 998.5,444.4 987.55,404 986.3,399.45 985,394.9 983.65,390.4 979.55,377.1 974.85,364.05 969.6,351.25z"/>
    </g>
  </g>
  <g id="background-circle">
    <g id="shape2">
      <path id="path1" fill="#5287DA" fill-opacity="1" d="M966.05,378.4 C965.05,375 964.05,371.55 962.9,367.9 961.3,362.75 959.5,357.4 957.6,352.05 951.15,333.8 943.45,316 934.45,298.4 930.65,291 926.5,283.45 922.15,276 901.85,241.5 876.35,208.8 845.8,178.25 773.2,105.65 688.65,61.6 592.15,46.2 575.9,43.6 559.35,41.8 542.1,40.85 532.4,40.3 522.25,40 512,40 502.65,40 493.4,40.25 484.1,40.75 365.75,46.85 263.8,92.7 178.25,178.25 Q40,316.5 40,512 C40,642.35 86.1,753.65 178.25,845.8 234.95,902.45 298.8,941.7 369.35,963.35 406.1,974.6 444.15,981.2 484.1,983.3 484.25,983.3 484.35,983.3 484.5,983.3 493,983.75 501.1,984 509,984 510.2,984 511.1,984 512,984 522.3,984 532.5,983.7 542.1,983.2 544.6,983.05 546.85,982.9 549.05,982.75 569.25,981.3 588.95,978.7 607.75,975.05 615.7,973.5 623.55,971.75 631.15,969.9 711.95,949.6 783.3,908.3 845.8,845.8 894.4,797.2 930.2,743.3 953.15,684 971.6,636.35 981.8,585.2 983.7,530.5 983.9,524.45 984,518.25 984,512 984,511.35 984,510.65 984,510 984,509.65 984,509.35 984,509 983.8,468.35 979.05,429.5 969.7,392 968.6,387.65 967.35,383 966.05,378.4z"/>
    </g>
  </g>
  <g id="object">
    <g id="shape4">
      <path id="path2" fill="#000000" fill-opacity="0.2" d="M978.675,586.675 L738,346 517.375,222.5 293,362 371.6,440.6 371.6,555.475 295,577 341,623 232.6,647.6 280,695 173.125,719.125 431.825,977.825 L431.85,977.85 C449.15,980.55 466.45,982.35 484.1,983.3 484.25,983.3 484.35,983.3 484.5,983.3 493,983.75 501.1,984 509,984 Q510.5,984 512,984 C522.3,984 532.5,983.7 542.1,983.2 544.6,983.05 546.85,982.9 549.05,982.75 569.25,981.3 588.95,978.7 607.75,975.05 615.7,973.5 623.55,971.75 631.15,969.9 711.95,949.6 783.3,908.3 845.8,845.8 894.4,797.2 930.2,743.3 953.15,684 965.1,653.1 973.6,620.75 978.7,586.7"/>
    </g>
  </g>
  <g id="object-shadow">
    <g id="Symbole.__205_1" overflow="visible">
      <g id="Calque.__202">
        <g id="shape24">
          <path id="path20" fill="#FFFFFF" fill-opacity="1" d="M729.445,362.829 C732.621,360.434 734.793,357.314 735.852,353.526 736.91,349.681 736.743,345.949 735.35,342.216 733.902,338.483 731.506,335.586 728.108,333.525 L521.416,204.83 C518.519,202.991 515.399,202.1 512,202.1 508.602,202.1 505.482,202.991 502.585,204.83 L295.893,333.525 C292.495,335.586 290.099,338.483 288.706,342.216 287.258,345.949 287.091,349.681 288.149,353.526 289.208,357.314 291.38,360.434 294.556,362.829 297.732,365.225 301.353,366.451 305.309,366.451 L363.806,366.451 363.806,549.187 310.88,549.187 C305.921,549.187 301.743,550.914 298.289,554.423 294.779,557.878 293.052,562.056 293.052,567.014 293.052,571.973 294.779,576.151 298.289,579.661 301.743,583.115 305.921,584.842 310.88,584.842 L713.121,584.842 C718.08,584.842 722.258,583.115 725.768,579.661 729.222,576.151 730.949,571.973 730.949,567.014 730.949,562.056 729.222,557.878 725.768,554.423 722.258,550.914 718.08,549.187 713.121,549.187 L660.195,549.187 660.195,366.451 718.692,366.451 Q724.654,366.451 729.445,362.829z M624.539,366.451 L624.539,549.187 573.284,549.187 573.284,366.451 624.539,366.451z M537.628,549.187 L486.373,549.187 486.373,366.451 537.628,366.451 537.628,549.187z M512,240.931 L656.351,330.795 367.65,330.795 512,240.931z M450.717,366.451 L450.717,549.187 399.462,549.187 399.462,366.451 450.717,366.451z M799.475,635.54 C799.475,630.582 797.748,626.404 794.294,622.949 790.784,619.44 786.606,617.712 781.647,617.712 L242.354,617.712 C237.395,617.712 233.217,619.44 229.763,622.949 226.253,626.404 224.526,630.582 224.526,635.54 224.526,640.499 226.253,644.677 229.763,648.187 233.217,651.641 237.395,653.368 242.354,653.368 L781.647,653.368 C786.606,653.368 790.784,651.641 794.294,648.187 797.748,644.677 799.475,640.499 799.475,635.54z M173.828,686.238 C168.87,686.238 164.691,687.965 161.237,691.475 157.727,694.929 156,699.108 156,704.066 156,709.025 157.727,713.203 161.237,716.713 164.691,720.167 168.87,721.894 173.828,721.894 L850.173,721.894 C855.131,721.894 859.31,720.167 862.82,716.713 866.274,713.203 868.001,709.025 868.001,704.066 868.001,699.108 866.274,694.929 862.82,691.475 859.31,687.965 855.131,686.238 850.173,686.238 L173.828,686.238z"/>
        </g>
      </g>
    </g>
  </g>
</svg>