<?xml version="1.0" encoding="utf-8"?>
<!-- Generator: flash2svg, http://dissentgraphics.com/tools/flash2svg -->
<svg id="Ms-Powerpoint" image-rendering="optimizeSpeed" baseProfile="basic" version="1.1" style="background-color:#FFFFFF" x="0px" y="0px" width="1024px" height="1024px" viewBox="0 0 1024 1024" enable-background="new 0 0 1024 1024" xmlns="http://www.w3.org/2000/svg" xmlns:xlink="http://www.w3.org/1999/xlink">
  <defs transform="matrix(1 0 0 1 0 0) "/>
  <g id="shadow">
    <g id="shape">
      <path id="path" fill="#000000" fill-opacity="0.09803921568627451" d="M969.6,351.25 Q961,330.4 950.2,310.4 C946.15,302.85 941.85,295.35 937.3,288 917.75,256.3 893.9,226.35 865.75,198.2 773.6,106.05 662.3,59.95 531.95,59.95 401.6,59.95 290.35,106.05 198.2,198.2 106.05,290.35 59.95,401.6 59.95,531.95 59.95,662.3 106.05,773.6 198.2,865.75 290.35,957.9 401.6,1003.95 531.95,1003.95 662.3,1003.95 773.6,957.9 865.75,865.75 916.5,814.95 953.3,758.35 976.1,696 994.65,645.15 1003.95,590.5 1003.95,531.95 1003.95,487.05 998.5,444.4 987.55,404 986.3,399.45 985,394.9 983.65,390.4 979.55,377.1 974.85,364.05 969.6,351.25z"/>
    </g>
  </g>
  <g id="circle">
    <g id="shape2">
      <path id="path1" fill="#AE7013" fill-opacity="1" d="M966.05,378.4 C963.55,369.65 960.7,360.8 957.6,352.05 951.15,333.8 943.45,316 934.45,298.4 930.65,291 926.5,283.45 922.15,276 901.85,241.5 876.35,208.8 845.8,178.25 773.2,105.65 688.65,61.6 592.15,46.2 575.9,43.6 559.35,41.8 542.1,40.85 532.4,40.3 522.25,40 512,40 502.65,40 493.4,40.25 484.1,40.75 365.75,46.85 263.8,92.7 178.25,178.25 Q40,316.5 40,512 C40,642.35 86.1,753.65 178.25,845.8 263.8,931.3 365.75,977.15 484.1,983.3 484.25,983.3 484.35,983.3 484.5,983.3 487.9,983.5 491.25,983.65 494.1,983.7 499.45,983.9 504.25,984 509,984 510.2,984 511.1,984 512,984 522.3,984 532.5,983.7 542.1,983.2 544.6,983.05 546.85,982.9 549.05,982.75 569.25,981.3 588.95,978.7 607.75,975.05 615.7,973.5 623.55,971.75 631.15,969.9 632.1,969.65 633.05,969.4 633.8,969.25 713.65,948.6 784.05,907.55 845.8,845.8 894.4,797.2 930.2,743.3 953.15,684 959.8,666.85 965.4,649.2 969.95,631 977.9,599 982.5,565.5 983.7,530.5 983.9,524.45 984,518.25 984,512 984,511.35 984,510.65 984,510 984,509.65 984,509.35 984,509 983.95,501.8 983.75,494.7 983.45,487.4 981.95,454.65 977.4,422.85 969.7,392 968.6,387.65 967.35,383 966.05,378.4z"/>
    </g>
  </g>
  <g id="ico-shadow">
    <g id="shape4">
      <path id="path2" fill="#AE7013" fill-opacity="1" d="M966.05,378.4 C963.55,369.65 960.7,360.8 957.6,352.05 951.15,333.8 943.45,316 934.45,298.4 930.65,291 926.5,283.45 922.15,276 901.85,241.5 876.35,208.8 845.8,178.25 773.2,105.65 688.65,61.6 592.15,46.2 575.9,43.6 559.35,41.8 542.1,40.85 532.4,40.3 522.25,40 512,40 502.65,40 493.4,40.25 484.1,40.75 365.75,46.85 263.8,92.7 178.25,178.25 Q40,316.5 40,512 C40,642.35 86.1,753.65 178.25,845.8 263.8,931.3 365.75,977.15 484.1,983.3 484.25,983.3 484.35,983.3 484.5,983.3 487.9,983.5 491.25,983.65 494.1,983.7 499.45,983.9 504.25,984 509,984 510.2,984 511.1,984 512,984 522.3,984 532.5,983.7 542.1,983.2 544.6,983.05 546.85,982.9 549.05,982.75 556.25,982.25 563.35,981.6 569.9,980.85 L569.875,980.825 L337.45,748.4 431.35,369.875 657.45,317.9 970.05,630.5 C977.95,598.55 982.5,565.25 983.7,530.5 983.9,524.45 984,518.25 984,512 984,511.35 984,510.65 984,510 984,509.65 984,509.35 984,509 983.95,501.8 983.75,494.7 983.45,487.4 981.95,454.65 977.4,422.85 969.7,392 968.6,387.65 967.35,383 966.05,378.4z"/>
      <path id="path3" fill="#000000" fill-opacity="0.2" d="M969.95,631 C970,630.85 970,630.65 970.05,630.5 L657.45,317.9 431.35,369.875 337.45,748.4 569.875,980.825 L569.9,980.85 C583.15,979.35 595.65,977.4 607.75,975.05 615.7,973.5 623.55,971.75 631.15,969.9 632.1,969.65 633.05,969.4 633.8,969.25 713.65,948.6 784.05,907.55 845.8,845.8 894.4,797.2 930.2,743.3 953.15,684 959.8,666.85 965.4,649.2 969.95,631z"/>
    </g>
  </g>
  <g id="ico">
    <g id="shape8">
      <path id="path5" fill="#000000" fill-opacity="0.2" d="M460.5,384.1 L460,384.5 460,483.35 531.85,483.35 C553.55,483.35 564.6,466.95 564.6,433.9 564.6,417.2 561.9,404.5 556.25,396.15 550.9,388.1 542.85,384.1 531.85,384.1 L460.5,384.1z"/>
      <path id="path6" fill="#E29B32" fill-opacity="1" d="M681.7,364.85 C681.45,364.05 681.15,363.05 680.85,362.05 674.5,343 666.8,328.35 657.45,317.95 646.45,304.6 631.4,294.6 612.35,288.25 609.05,287.05 605.65,286 601.8,284.95 598.25,283.95 594.25,283 590,282.2 576.85,279.55 561.7,278.2 544.9,278.2 L460,278.2 460,384.1 460.5,384.1 531.85,384.1 C542.85,384.1 550.9,388.1 556.25,396.15 561.9,404.5 564.6,417.2 564.6,433.9 564.6,466.95 553.55,483.35 531.85,483.35 L460,483.35 459,588.2 586.3,587.9 C595.3,586.9 607,583.55 620.7,577.55 634.4,571.85 646.1,563.15 655.8,552.15 665.45,541.1 673.8,525.4 680.15,504.7 686.5,483.65 689.85,459.3 689.85,431.9 689.85,405.95 687.15,383.6 681.7,364.85z"/>
      <path id="path7" fill="#FFFFFF" fill-opacity="1" d="M460,278.2 L454.15,278.2 335.4,396.95 335.4,747.55 460,747.55 459,588.2 460,483.35 460,384.5 460,384.1 460,278.2z"/>
    </g>
  </g>
</svg>