<?xml version="1.0" encoding="utf-8"?>
<!-- Generator: flash2svg, http://dissentgraphics.com/tools/flash2svg -->
<svg id="Calculator" image-rendering="optimizeSpeed" baseProfile="basic" version="1.1" style="background-color:#FFFFFF" x="0px" y="0px" width="1024px" height="1024px" viewBox="0 0 1024 1024" enable-background="new 0 0 1024 1024" xmlns="http://www.w3.org/2000/svg" xmlns:xlink="http://www.w3.org/1999/xlink">
  <defs transform="matrix(1 0 0 1 0 0) "/>
  <g id="shadow">
    <g id="shape">
      <path id="path" fill="#000000" fill-opacity="0.09803921568627451" d="M969.6,351.25 Q961,330.4 950.2,310.4 C946.15,302.85 941.85,295.35 937.3,288 917.75,256.3 893.9,226.35 865.75,198.2 773.6,106.05 662.3,59.95 531.95,59.95 401.6,59.95 290.35,106.05 198.2,198.2 106.05,290.35 59.95,401.6 59.95,531.95 59.95,662.3 106.05,773.6 198.2,865.75 290.35,957.9 401.6,1003.95 531.95,1003.95 662.3,1003.95 773.6,957.9 865.75,865.75 916.5,814.95 953.3,758.35 976.1,696 994.65,645.15 1003.95,590.5 1003.95,531.95 1003.95,487.05 998.5,444.4 987.55,404 986.3,399.45 985,394.9 983.65,390.4 979.55,377.1 974.85,364.05 969.6,351.25z"/>
    </g>
  </g>
  <g id="circle">
    <g id="shape2">
      <path id="path1" fill="#CB5E31" fill-opacity="1" d="M983.25,511.35 C983.25,503.4 983.05,495.5 982.75,487.8 Q974.75,307.65 845.2,177.95 C753.15,85.95 642,39.9 511.8,39.9 381.65,39.9 270.45,85.95 178.45,177.95 86.4,269.95 40.35,381.15 40.35,511.35 40.35,641.5 86.4,752.7 178.45,844.7 264.6,931 367.8,976.85 487.6,982.3 495.6,982.6 503.6,982.8 511.8,982.8 642,982.8 753.15,936.7 845.2,844.7 937.2,752.7 983.25,641.5 983.25,511.35z"/>
    </g>
  </g>
  <g id="inner-shadow">
    <g id="shape4">
      <path id="path2" fill="#000000" fill-opacity="0.2" d="M861.8,511.35 C861.8,608 827.6,690.5 759.3,758.8 691,827.1 608.45,861.3 511.8,861.3 417.7,861.3 336.95,828.9 269.75,764.15 L269.65,764.35 487.6,982.3 C495.6,982.6 503.6,982.8 511.8,982.8 642,982.8 753.15,936.7 845.2,844.7 937.2,752.7 983.25,641.5 983.25,511.35 983.25,503.4 983.05,495.5 982.75,487.8 L770.35,275.4 C831.25,341.45 861.8,420.1 861.8,511.35z"/>
    </g>
  </g>
  <g id="inner-circle">
    <g id="Symbole.__205_1" overflow="visible">
      <g id="Calque.__203">
        <g id="drawingObject4">
          <path id="path15" fill="#A84929" fill-opacity="1" d="M161.83,511.332 L511.81,511.332 511.81,161.352 Q366.817,161.352 264.323,263.845 C196.027,332.141 161.83,414.67 161.83,511.332z"/>
        </g>
        <g id="drawingObject5">
          <path id="path16" fill="#893B24" fill-opacity="1" d="M161.83,511.332 Q161.83,656.325 264.323,758.818 C332.619,827.115 415.148,861.312 511.81,861.312 L511.81,511.332 161.83,511.332z"/>
        </g>
        <g id="drawingObject6">
          <path id="path17" fill="#CB5E31" fill-opacity="1" d="M759.296,263.845 C691,195.549 608.472,161.352 511.81,161.352 L511.81,511.332 861.79,511.332 Q861.79,366.339 759.296,263.845z"/>
        </g>
        <g id="drawingObject7">
          <path id="path18" fill="#97A6A6" fill-opacity="1" d="M511.81,861.312 C608.472,861.312 691,827.115 759.296,758.818 827.592,690.522 861.79,607.994 861.79,511.332 L511.81,511.332 511.81,861.312z"/>
        </g>
      </g>
    </g>
  </g>
  <g id="signs">
    <g id="Symbole.__207_1" overflow="visible">
      <g id="Calque.__204">
        <g id="shape19">
          <path id="path19" fill="#596061" fill-opacity="1" d="M714.05,595.75 C715.25,594.5 715.85,593.05 715.85,591.35 715.85,589.65 715.25,588.2 714.05,587 Q712.2,585.15 709.65,585.15 L599.55,585.15 C597.85,585.15 596.4,585.75 595.2,587 593.95,588.2 593.35,589.65 593.35,591.35 593.35,593.05 593.95,594.5 595.2,595.75 596.4,596.95 597.85,597.55 599.55,597.55 L709.65,597.55 C711.35,597.55 712.8,596.95 714.05,595.75z M714.05,674.8 C715.25,673.55 715.85,672.1 715.85,670.4 715.85,668.7 715.25,667.25 714.05,666.05 712.8,664.8 711.35,664.2 709.65,664.2 L599.55,664.2 C597.85,664.2 596.4,664.8 595.2,666.05 593.95,667.25 593.35,668.7 593.35,670.4 593.35,672.1 593.95,673.55 595.2,674.8 596.4,676 597.85,676.6 599.55,676.6 L709.65,676.6 C711.35,676.6 712.8,676 714.05,674.8z"/>
          <path id="path20" fill="#FFFFFF" fill-opacity="1" d="M412.15,367.25 C413.85,367.25 415.3,366.65 416.55,365.45 417.75,364.2 418.35,362.75 418.35,361.05 418.35,359.35 417.75,357.9 416.55,356.7 415.3,355.45 413.85,354.85 412.15,354.85 L363.3,354.85 363.3,306 C363.3,304.3 362.7,302.85 361.5,301.65 360.25,300.4 358.8,299.8 357.1,299.8 355.4,299.8 353.95,300.4 352.75,301.65 351.5,302.85 350.9,304.3 350.9,306 L350.9,354.85 302.05,354.85 C300.35,354.85 298.9,355.45 297.7,356.7 296.45,357.9 295.85,359.35 295.85,361.05 295.85,362.75 296.45,364.2 297.7,365.45 298.9,366.65 300.35,367.25 302.05,367.25 L350.9,367.25 350.9,416.1 C350.9,417.8 351.5,419.25 352.75,420.5 353.95,421.7 355.4,422.3 357.1,422.3 358.8,422.3 360.25,421.7 361.5,420.5 362.7,419.25 363.3,417.8 363.3,416.1 L363.3,367.25 412.15,367.25z M400.45,595.45 C401.65,594.2 402.25,592.75 402.25,591.05 402.25,589.35 401.65,587.9 400.45,586.7 399.2,585.45 397.75,584.85 396.05,584.85 394.35,584.85 392.9,585.45 391.7,586.7 L357.1,621.2 322.55,586.65 C321.3,585.45 319.85,584.85 318.15,584.85 316.45,584.85 315,585.45 313.8,586.7 312.55,587.9 311.95,589.35 311.95,591.05 311.95,592.75 312.55,594.2 313.8,595.45 L348.35,629.95 313.8,664.45 C312.55,665.65 311.95,667.1 311.95,668.8 311.95,670.5 312.55,671.95 313.8,673.2 315,674.4 316.45,675 318.15,675 319.85,675 321.3,674.4 322.55,673.2 L357.1,638.7 391.7,673.2 C392.9,674.4 394.35,675 396.05,675 397.75,675 399.2,674.4 400.45,673.2 401.65,671.95 402.25,670.5 402.25,668.8 402.25,667.1 401.65,665.65 400.45,664.4 L365.9,629.95 400.45,595.45z M714.05,362.45 C715.25,361.2 715.85,359.75 715.85,358.05 715.85,356.35 715.25,354.9 714.05,353.7 712.8,352.45 711.35,351.85 709.65,351.85 L599.55,351.85 C597.85,351.85 596.4,352.45 595.2,353.7 593.95,354.9 593.35,356.35 593.35,358.05 593.35,359.75 593.95,361.2 595.2,362.45 596.4,363.65 597.85,364.25 599.55,364.25 L709.65,364.25 C711.35,364.25 712.8,363.65 714.05,362.45z"/>
        </g>
      </g>
    </g>
  </g>
</svg>