
<svg xmlns="http://www.w3.org/2000/svg" version="1.1" xmlns:xlink="http://www.w3.org/1999/xlink" preserveAspectRatio="none" x="0px" y="0px" width="1024px" height="1024px" viewBox="0 0 1024 1024">
<defs>
<g id="Layer4_0_FILL">
<path fill="#000000" fill-opacity="0.09803921568627451" stroke="none" d="
M 969.6 351.25
Q 961 330.4 950.2 310.4 944.1 299.05 937.3 288 907.95 240.45 865.75 198.2 727.5 59.95 531.95 59.95 336.45 59.95 198.2 198.2 59.95 336.45 59.95 531.95 59.95 727.5 198.2 865.75 336.45 1003.95 531.95 1003.95 727.5 1003.95 865.75 865.75 941.9 789.55 976.1 696 1003.95 619.75 1003.95 531.95 1003.95 464.6 987.55 404 985.7 397.15 983.65 390.4 977.5 370.45 969.6 351.25 Z"/>
</g>

<g id="Layer3_0_FILL">
<path fill="#EF5350" stroke="none" d="
M 969.7 392
Q 967.95 385.15 966.05 378.4 964.52578125 373.114453125 962.85 367.85 960.3787109375 359.903125 957.6 352.05 947.85 324.5 934.45 298.4 928.65 287.05 922.15 276 891.5 224 845.8 178.25 736.8 69.25 592.15 46.2 567.65 42.3 542.1 40.85 527.2 40 512 40 497.9 40 484.1 40.75 306.55 49.95 178.25 178.25 40 316.5 40 512 40 707.55 178.25 845.8 263.0400390625 930.55703125 369.35 963.35 423.8880859375 980.1630859375 484.1 983.3 484.3 983.3 484.5 983.3 496.65 983.9 509 984 510.5 984 512 984 527.25 984 542.1 983.2 545.6 983 549.05 982.75 579.1 980.6 607.75 975.05 619.55 972.75 631.15 969.9 751.75 939.85 845.8 845.8 918.7 772.85 953.15 684 980.9 612.4 983.7 530.5 984 521.3 984 512 984 511 984 510 984 509.5 984 509 983.65 447.7 969.7 392 Z"/>
</g>

<g id="Layer2_0_FILL">
<path fill="#000000" fill-opacity="0.2" stroke="none" d="
M 980.15 575.85
L 742.3 338 573 258 446 258 287 337 241 550 294.85 754.15 524.55 983.85
Q 533.4 983.66875 542.1 983.2 545.6 983 549.05 982.75 579.1 980.6 607.75 975.05 619.55 972.75 631.15 969.9 751.75 939.85 845.8 845.8 918.7 772.85 953.15 684 973.080078125 632.5767578125 980.15 575.85 Z"/>
</g>

<g id="Layer0_0_FILL">
<path fill="#FFFFFF" stroke="none" d="
M 861.45 163
Q 844.95 147.55 820.4 129.15 791.75 108.3 777.45 97.8 759.9 84.9 735.95 72.5 721.2 64.95 691.85 51.75 657.6 36.7 640.6 28.9 611.3 15.4 590.55 3.4 586.2 0.95 580.55 0.85 566.5 0.45 552.55 5.05 540.05 9.15 527.05 17.5 524.5 19.1 522.3 21.8 518.35 26.65 523.6 29.7
L 534.35 35.9 534.3 36.85
Q 527.6 37.5 526.4 37.55 456.95 42.05 422.25 44.7 363 49.35 293 60.6 219.7 72.35 165.95 125.8 139.3 152.3 117.2 185.55 97.1 215.85 79.95 252.95 17.85 387.4 11.1 549.6 8.85 604.8 14.55 655.85 20.7 710.7 34.05 756.15 52.5 818.75 83.6 864.15 132.95 936.25 219.4 978.2 261.75 998.75 309.5 1010.5 353.95 1021.45 404.05 1025 455.35 1028.6 508.85 1023.4 575.55 1016.95 637.9 998.15 707.8 977 766.15 944.45 828.05 909.95 877.95 861.95 941.7 800.8 974.3 725.2 1010.95 640.25 1015.85 541.2 1019.85 461.8 999.15 388 962.65 257.65 861.45 163
M 651.45 154.85
Q 666.15 162.4 682.25 157.65 686.9 156.3 694.55 153.5 703.5 150.25 706.75 149.2 708.5 148.65 710.25 148.65 712.3 148.6 713.6 149.25 721.25 153.1 736.6 160.75 749.75 167.4 759.2 172.95 783.35 187.2 785.6 188.6 800.45 197.8 810.6 206.05 900.7 279.35 929.65 396.55 944.1 455.1 940.5 517.95 933.6 639.05 870.6 745.7 821.25 829.15 747.9 882.25 684.9 927.8 606.65 943.7 577.45 949.65 547 952.55 516.95 955.4 482.9 955.6 352.85 953.9 251.85 906.75 219.65 891.65 194.9 873.35 167.3 852.95 147.4 827.4 132.95 808.8 121.6 785.3 111.85 765.15 103.5 739.35 88.45 693.05 82.1 635.95 75.8 578.5 79.3 521.2 83.3 456.35 96.2 400.1 110.4 338.4 135.9 284.4 161.7 229.9 198 192.5 231.25 158.35 278 140.2 348.5 112.7 410.7 102.6 434.45 98.75 453.85 97.2 476.9 95.35 497.25 96.45 534.05 98.4 566.25 113.25 606.25 131.65 651.45 154.85 Z"/>
</g>

<g id="Layer0_1_FILL">
<path fill="#FFFFFF" stroke="none" d="
M 768.9 576.8
Q 764.8 573.65 758.6 576.15 756.55 577 754.3 579.45 753.3 580.5 750.7 583.95 749.45 585.55 747.25 589.4 745.15 593.1 743.75 594.85 722.25 621.65 694.95 641.85 656.8 670.15 611.45 684.55 568.7 698.1 518.95 699.45 472.6 700.7 425.85 689.7 383.55 679.7 350 663.8 312.35 645.95 283.15 619.55 268.45 606.25 258.8 591.95 248.15 576.2 243.1 558.55 241.8 553.75 239 548.4 236.8 544.3 233.95 542.75 231.2 541.25 227.3 541.95 216.8 543.85 216.85 552.15 217 563.85 217.4 570.8 218.05 581.1 219.55 589.3 228.85 639.6 269.05 679.9 291.7 702.55 320.9 719.55 347.45 735 380.45 746.35 440.9 767.15 512.9 768.8
L 535.8 767.15
Q 549.55 766.15 558.65 765.2 618.9 758.75 667.7 733.35 724.25 703.95 751.5 654.35 770.05 620.65 772.45 586.75 772.95 579.95 768.9 576.8 Z"/>
</g>

<g id="Layer0_2_FILL">
<path fill="#FFFFFF" stroke="none" d="
M 680.85 379.8
Q 670.8 377.4 660.1 379.85 651.3 381.9 640.7 387.6 630.05 393.35 626.7 404.95 618.25 433.95 635.1 458.7 642.15 469.05 652.65 472.8 663 476.5 675.4 473.3 692.85 468.8 704.15 453.75 715.4 438.75 715.75 419.65 715.35 415.1 715.1 412.8 714.65 408.75 713.4 406.55 701.2 384.55 680.85 379.8 Z"/>
</g>

<g id="Layer0_3_FILL">
<path fill="#FFFFFF" stroke="none" d="
M 362.95 384.3
Q 351.1 373.4 334.9 372.5 318.35 371.6 307.5 378.7 296.55 385.85 292.05 400.6 291 404.1 290.15 409.15 289.7 411.95 288.9 416.95 289.15 419.45 289.5 423.6 289.8 427 290.25 429.2 294.2 448.3 308.6 458.35 322.95 468.35 344.4 467.05 367.35 465.65 376.1 443.65 381.55 430.05 378.1 412.2 374.9 395.2 362.95 384.3 Z"/>
</g>
</defs>

<g transform="matrix( 1, 0, 0, 1, 0,0) ">
<use xlink:href="#Layer4_0_FILL"/>
</g>

<g transform="matrix( 1, 0, 0, 1, 0,0) ">
<use xlink:href="#Layer3_0_FILL"/>
</g>

<g transform="matrix( 1, 0, 0, 1, 0,0) ">
<use xlink:href="#Layer2_0_FILL"/>
</g>

<g transform="matrix( 0.582550048828125, 0, 0, 0.582550048828125, 212.9,213.65) ">
<use xlink:href="#Layer0_0_FILL"/>
</g>

<g transform="matrix( 0.582550048828125, 0, 0, 0.582550048828125, 212.9,213.65) ">
<use xlink:href="#Layer0_1_FILL"/>
</g>

<g transform="matrix( 0.582550048828125, 0, 0, 0.582550048828125, 212.9,213.65) ">
<use xlink:href="#Layer0_2_FILL"/>
</g>

<g transform="matrix( 0.582550048828125, 0, 0, 0.582550048828125, 212.9,213.65) ">
<use xlink:href="#Layer0_3_FILL"/>
</g>
</svg>
