
<svg xmlns="http://www.w3.org/2000/svg" version="1.1" xmlns:xlink="http://www.w3.org/1999/xlink" preserveAspectRatio="none" x="0px" y="0px" width="1024px" height="1024px" viewBox="0 0 1024 1024">
<defs>
<g id="Layer6_0_FILL">
<path fill="#000000" fill-opacity="0.09803921568627451" stroke="none" d="
M 965.6 350.25
Q 957 329.4 946.2 309.4 940.1 298.05 933.3 287 903.95 239.45 861.75 197.2 723.5 58.95 527.95 58.95 332.45 58.95 194.2 197.2 55.95 335.45 55.95 530.95 55.95 726.5 194.2 864.75 332.45 1002.95 527.95 1002.95 723.5 1002.95 861.75 864.75 937.9 788.55 972.1 695 999.95 618.75 999.95 530.95 999.95 463.6 983.55 403 981.7 396.15 979.65 389.4 973.5 369.45 965.6 350.25 Z"/>
</g>

<g id="Layer5_0_FILL">
<path fill="#333333" stroke="none" d="
M 770.05 204.15
Q 770.1716796875 204.22109375 770.3 204.3 785.3318359375 213.512109375 793.55 227.65
L 973.25 407.35
Q 971.61328125 399.6326171875 969.7 392 967.95 385.15 966.05 378.4 962.2 365.05 957.6 352.05 947.85 324.5 934.45 298.4 928.65 287.05 922.15 276 891.5 224 845.8 178.25 707.6 40.05 512.1 40 512.05 40 512 40 316.5 40 178.25 178.25 40 316.5 40 512 40 512.05 40 512.15 40.05 707.6 178.25 845.8 191.054296875 858.598046875 204.35 870.2
L 95.5 415.55
Q 88.9 388 103.8 363.85 118.6 339.6 146.15 333
L 718.5 196
Q 745.9041015625 189.4349609375 770.05 204.15 Z"/>

<path fill="#1E1E1E" stroke="none" d="
M 793.55 227.65
Q 798.5580078125 236.248046875 801.05 246.65
L 921.35 749.25
Q 940.0478515625 717.7919921875 953.15 684 978.7 618 983.1 543.25 983.95 528.85 984 514.15 984 513.1 984 512 984 457.4720703125 973.25 407.35
L 793.55 227.65 Z"/>

<path fill="#AB62F4" stroke="none" d="
M 801.05 246.65
Q 798.5580078125 236.248046875 793.55 227.65 785.3318359375 213.512109375 770.3 204.3 770.1716796875 204.22109375 770.05 204.15 745.9041015625 189.4349609375 718.5 196
L 146.15 333
Q 118.6 339.6 103.8 363.85 88.9 388 95.5 415.55
L 204.35 870.2
Q 296.8623046875 951.017578125 413.15 974.45 460.6 984 512 984 513.05 984 514.1 984 708.3 983.25 845.8 845.8 890.97421875 800.5947265625 921.35 749.25
L 801.05 246.65 Z"/>
</g>

<g id="Layer1_0_FILL">
<path fill="#1E1E1E" stroke="none" d="
M 686.1 368.3
Q 690.9 360.5 683.1 355.7
L 587.95 297.35
Q 580.2 292.6 575.4 300.35
L 438.45 523.55 324.7 453.7
Q 316.85 448.9 312.05 456.7
L 253.7 551.75
Q 248.9 559.6 256.75 564.35
L 473.4 697.3
Q 480.3 701.6 484.8 696
L 486 694.35 686.1 368.3 Z"/>
</g>
</defs>

<g transform="matrix( 1, 0, 0, 1, 0,0) ">
<use xlink:href="#Layer6_0_FILL"/>
</g>

<g transform="matrix( 1, 0, 0, 1, 0,0) ">
<use xlink:href="#Layer5_0_FILL"/>
</g>

<g transform="matrix( 1, 0, 0, 1, 0,0) ">
<use xlink:href="#Layer1_0_FILL"/>
</g>
</svg>
