<?xml version="1.0" encoding="utf-8"?>
<!-- Generator: flash2svg, http://dissentgraphics.com/tools/flash2svg -->
<svg id="Apps-CSGO" image-rendering="optimizeSpeed" baseProfile="basic" version="1.1" style="background-color:#FFFFFF" x="0px" y="0px" width="1024px" height="1024px" viewBox="0 0 1024 1024" enable-background="new 0 0 1024 1024" xmlns="http://www.w3.org/2000/svg" xmlns:xlink="http://www.w3.org/1999/xlink">
  <defs transform="matrix(1 0 0 1 0 0) "/>
  <g id="background-circle-shadow">
    <g id="shape">
      <path id="path" fill="#000000" fill-opacity="0.09803921568627451" d="M969.6,351.25 Q961,330.4 950.2,310.4 C946.15,302.85 941.85,295.35 937.3,288 917.75,256.3 893.9,226.35 865.75,198.2 773.6,106.05 662.3,59.95 531.95,59.95 401.6,59.95 290.35,106.05 198.2,198.2 106.05,290.35 59.95,401.6 59.95,531.95 59.95,662.3 106.05,773.6 198.2,865.75 290.35,957.9 401.6,1003.95 531.95,1003.95 662.3,1003.95 773.6,957.9 865.75,865.75 916.5,814.95 953.3,758.35 976.1,696 994.65,645.15 1003.95,590.5 1003.95,531.95 1003.95,487.05 998.5,444.4 987.55,404 986.3,399.45 985,394.9 983.65,390.4 979.55,377.1 974.85,364.05 969.6,351.25z"/>
    </g>
  </g>
  <g id="background-circle">
    <g id="shape2">
      <path id="path1" fill="#FEAC2E" fill-opacity="1" d="M969.7,392 C968.6,387.65 967.35,383 966.05,378.4 965.05,375 964.05,371.55 962.9,367.9 961.3,362.75 959.5,357.4 957.6,352.05 951.15,333.8 943.45,316 934.45,298.4 930.65,291 926.5,283.45 922.15,276 901.85,241.5 876.35,208.8 845.8,178.25 773.2,105.65 688.65,61.6 592.15,46.2 575.9,43.6 559.35,41.8 542.1,40.85 532.4,40.3 522.25,40 512,40 502.65,40 493.4,40.25 484.1,40.75 365.75,46.85 263.8,92.7 178.25,178.25 Q40,316.5 40,512 C40,598.75 60.45,677.05 100.95,746.4 L100.925,746.375 L325,701.35 536,699.075 676.525,306.325 975.525,605.325 L975.55,605.35 C980.05,581.2 982.8,556.25 983.7,530.5 983.9,524.45 984,518.25 984,512 984,511.35 984,510.65 984,510 984,509.65 984,509.35 984,509 983.8,468.35 979.05,429.5 969.7,392z"/>
      <path id="path2" fill="#EEAB2F" fill-opacity="1" d="M922.85,746.8 C934.65,726.6 944.75,705.65 953.15,684 962.9,658.8 970.35,632.55 975.55,605.35 L975.525,605.325 L676.525,306.325 536,699.075 701,697.3 922.85,746.8z"/>
      <path id="path3" fill="#212121" fill-opacity="1" d="M922.85,746.8 L701,697.3 536,699.075 325,701.35 600.125,976.475 L600.15,976.5 C602.9,975.95 605.35,975.5 607.75,975.05 615.7,973.5 623.55,971.75 631.15,969.9 711.95,949.6 783.3,908.3 845.8,845.8 876.65,814.95 902.35,781.95 922.85,746.8z"/>
      <path id="path4" fill="#333333" fill-opacity="1" d="M325,701.35 L100.925,746.375 L100.95,746.4 C121.8,782 147.45,815 178.25,845.8 234.95,902.45 298.8,941.7 369.35,963.35 406.1,974.6 444.15,981.2 484.1,983.3 484.25,983.3 484.35,983.3 484.5,983.3 493,983.75 501.1,984 509,984 510.2,984 511.1,984 512,984 522.3,984 532.5,983.7 542.1,983.2 544.6,983.05 546.85,982.9 549.05,982.75 566.65,981.5 583.85,979.35 600.15,976.5 L600.125,976.475 L325,701.35z"/>
    </g>
  </g>
  <g id="background-circle1">
    <g id="shape8">
      <path id="path5" fill="#000000" fill-opacity="0.2" d="M922.85,746.8 C934.65,726.6 944.75,705.65 953.15,684 Q967.835,646.109 975.525,605.325 L676.525,306.325 536,699.075 701,697.3 922.85,746.8z"/>
    </g>
  </g>
  <g id="Calque.__201">
    <g id="shape10">
      <path id="path6" fill="#FFFFFF" fill-opacity="1" d="M708.75,381.6 C706.15,370.05 702.75,358.85 698.45,347.9 688.6,322.8 674.25,299.65 655.45,278.5 615.8,234 567.9,211.7 511.8,211.7 Q427.65,211.7 368.15,278.5 C349.4,299.6 335.05,322.75 325.2,347.9 320.95,358.75 317.5,369.95 314.9,381.6 310.9,399.05 308.85,417.4 308.7,436.6 L304,436.6 C297.35,436.6 294,440.35 294,447.85 L294,536.55 C294,544 297.35,547.75 304,547.75 L307.85,547.75 325,701.35 433.35,747.2 C485,765 536.65,765 588.25,747.2 L701,697.3 715,547.75 717,547.75 C723.65,547.75 728,544 728,536.55 L728,463.55 728,447.85 C728,440.35 723.65,436.6 717,436.6 L714.95,436.6 C714.75,417.5 712.7,399.3 708.75,381.6z M635.5,470.3 C635.5,481.8 630.55,491.55 620.7,499.65 610.85,507.8 598.95,511.85 585,511.85 571.05,511.85 559.15,507.8 549.3,499.65 539.45,491.55 534.5,481.8 534.5,470.3 534.5,468.1 534.7,465.95 535.1,463.55 536.6,455.15 541.35,447.45 549.3,440.9 559.15,432.8 571.05,428.75 585,428.75 598.95,428.75 610.85,432.8 620.7,440.9 628.65,447.45 633.4,455 634.9,463.55 635.3,465.85 635.5,468.05 635.5,470.3z M490,470.3 C490,481.8 485.05,491.55 475.2,499.65 465.35,507.8 453.45,511.85 439.5,511.85 425.55,511.85 413.65,507.8 403.8,499.65 393.95,491.55 389,481.8 389,470.3 389,468.1 389.2,465.95 389.6,463.55 391.1,455.15 395.85,447.45 403.8,440.9 413.65,432.8 425.55,428.75 439.5,428.75 453.45,428.75 465.35,432.8 475.2,440.9 483.15,447.45 487.9,455 489.4,463.55 489.8,465.85 490,468.05 490,470.3z M435.1,625.25 C435.1,613.7 442.7,603.95 457.8,595.8 472.9,587.75 491.15,583.7 512.5,583.7 533.9,583.7 552.15,587.75 567.25,595.8 582.35,603.95 589.95,613.7 589.95,625.25 589.95,636.75 582.35,646.5 567.25,654.6 552.15,662.75 533.9,666.75 512.5,666.75 491.15,666.75 472.9,662.75 457.8,654.6 442.7,646.5 435.1,636.75 435.1,625.25z"/>
      <path id="path7" fill="#000000" fill-opacity="1" d="M635.5,470.3 C635.5,468.05 635.3,465.85 634.9,463.55 633.4,455 628.65,447.45 620.7,440.9 610.85,432.8 598.95,428.75 585,428.75 571.05,428.75 559.15,432.8 549.3,440.9 541.35,447.45 536.6,455.15 535.1,463.55 534.7,465.95 534.5,468.1 534.5,470.3 534.5,481.8 539.45,491.55 549.3,499.65 559.15,507.8 571.05,511.85 585,511.85 598.95,511.85 610.85,507.8 620.7,499.65 630.55,491.55 635.5,481.8 635.5,470.3z"/>
      <path id="path10" fill="#000000" fill-opacity="1" d="M490,470.3 C490,468.05 489.8,465.85 489.4,463.55 487.9,455 483.15,447.45 475.2,440.9 465.35,432.8 453.45,428.75 439.5,428.75 425.55,428.75 413.65,432.8 403.8,440.9 395.85,447.45 391.1,455.15 389.6,463.55 389.2,465.95 389,468.1 389,470.3 389,481.8 393.95,491.55 403.8,499.65 413.65,507.8 425.55,511.85 439.5,511.85 453.45,511.85 465.35,507.8 475.2,499.65 485.05,491.55 490,481.8 490,470.3z"/>
      <path id="path13" fill="#000000" fill-opacity="1" d="M435.1,625.25 C435.1,636.75 442.7,646.5 457.8,654.6 472.9,662.75 491.15,666.75 512.5,666.75 533.9,666.75 552.15,662.75 567.25,654.6 582.35,646.5 589.95,636.75 589.95,625.25 589.95,613.7 582.35,603.95 567.25,595.8 552.15,587.75 533.9,583.7 512.5,583.7 491.15,583.7 472.9,587.75 457.8,595.8 442.7,603.95 435.1,613.7 435.1,625.25z"/>
    </g>
  </g>
</svg>