<?xml version="1.0" encoding="utf-8"?>
<!-- Generator: flash2svg, http://dissentgraphics.com/tools/flash2svg -->
<svg xmlns:xlink="http://www.w3.org/1999/xlink" id="Apps-Pixelmator" image-rendering="optimizeSpeed" baseProfile="basic" version="1.1" style="background-color:#ffffff" x="0px" y="0px" width="1024px" height="1024px" viewBox="0 0 1024 1024" enable-background="new 0 0 1024 1024" xmlns="http://www.w3.org/2000/svg">
  <defs transform="matrix(1 0 0 1 0 0) "/>
  <g id="shadow">
    <g id="shape">
      <path id="path" fill="#000000" fill-opacity="0.09803921568627451" d="M969.65,351.3 Q961.05,330.45 950.25,310.45 C946.2,302.9 941.9,295.4 937.35,288.05 917.8,256.35 893.95,226.4 865.8,198.25 773.65,106.1 662.35,60 532,60 401.65,60 290.4,106.1 198.25,198.25 106.1,290.4 60,401.65 60,532 60,662.35 106.1,773.65 198.25,865.8 290.4,957.95 401.65,1004 532,1004 662.35,1004 773.65,957.95 865.8,865.8 916.55,815 953.35,758.4 976.15,696.05 994.7,645.2 1004,590.55 1004,532 1004,487.1 998.55,444.45 987.6,404.05 986.35,399.5 985.05,394.95 983.7,390.45 979.6,377.15 974.9,364.1 969.65,351.3z"/>
    </g>
  </g>
  <g id="bg">
    <g id="shape2">
      <path id="path1" fill="#F3CA30" fill-opacity="1" d="M929.85,289.65 C927.5,285.3 924.9,280.65 922.2,276.05 901.9,241.55 876.4,208.85 845.85,178.3 773.25,105.7 688.7,61.65 592.2,46.25 575.95,43.65 559.4,41.85 542.15,40.9 532.45,40.35 522.3,40.05 512.05,40.05 502.7,40.05 493.45,40.3 484.15,40.8 365.8,46.9 263.85,92.75 178.3,178.3 157.8,198.8 139.55,220.25 123.6,242.7 108.25,264.25 95.05,286.7 84,309.9 L83.975,309.875 Q40.05,401.873 40.05,512.05 C40.05,642.4 86.15,753.7 178.3,845.85 235,902.5 298.85,941.75 369.4,963.4 406.15,974.65 444.2,981.25 484.15,983.35 484.3,983.35 484.4,983.35 484.55,983.35 493.05,983.8 501.15,984.05 509.05,984.05 510.25,984.05 511.15,984.05 512.05,984.05 522.35,984.05 532.55,983.75 542.15,983.25 544.65,983.1 546.9,982.95 549.1,982.8 569.3,981.35 589,978.75 607.8,975.1 615.75,973.55 623.6,971.8 631.2,969.95 712,949.65 783.35,908.35 845.85,845.85 894.45,797.25 930.25,743.35 953.2,684.05 971.65,636.4 981.85,585.25 983.75,530.55 983.95,524.5 984.05,518.3 984.05,512.05 984.05,511.4 984.05,510.7 984.05,510.05 984.05,509.7 984.05,509.4 984.05,509.05 983.85,468.4 979.1,429.55 969.75,392.05 968.65,387.7 967.4,383.05 966.1,378.45 965.1,375.05 964.1,371.6 962.95,367.95 961.35,362.8 959.55,357.45 957.65,352.1 952.6,337.85 946.8,323.85 940.2,309.95 938.35,306.15 936.45,302.3 934.5,298.45 933.05,295.6 931.55,292.75 929.85,289.65z"/>
    </g>
  </g>
  <g id="bg1">
    <g id="shape4">
      <path id="path2" fill="#000000" fill-opacity="0.2" d="M962.95,367.95 C962.2,365.6 961.45,363.25 960.55,360.55 L792.05,192.05 222.05,820.05 363.55,961.55 C365.75,962.3 367.55,962.85 369.4,963.4 406.15,974.65 444.2,981.25 484.15,983.35 484.3,983.35 484.4,983.35 484.55,983.35 493.05,983.8 501.15,984.05 509.05,984.05 Q510.55,984.05 512.05,984.05 C522.35,984.05 532.55,983.75 542.15,983.25 544.65,983.1 546.9,982.95 549.1,982.8 569.3,981.35 589,978.75 607.8,975.1 615.75,973.55 623.6,971.8 631.2,969.95 712,949.65 783.35,908.35 845.85,845.85 894.45,797.25 930.25,743.35 953.2,684.05 971.65,636.4 981.85,585.25 983.75,530.55 983.95,524.5 984.05,518.3 984.05,512.05 984.05,511.4 984.05,510.7 984.05,510.05 984.05,509.7 984.05,509.4 984.05,509.05 983.85,468.4 979.1,429.55 969.75,392.05 968.65,387.7 967.4,383.05 966.1,378.45 965.1,375.05 964.1,371.6 962.95,367.95z"/>
    </g>
  </g>
  <g id="Calque.__201">
    <g id="Symbole.__2041_1" overflow="visible">
      <g id="bg5">
        <g id="shape33">
          <path id="path22" fill="#FFFFFF" fill-opacity="1" d="M807.546,214.249 C804.496,194.382 793.037,185.974 773.121,189.031 L167.22,282.053 C147.353,285.104 138.944,296.562 141.995,316.429 L216.503,801.743 C219.561,821.66 231.02,830.068 250.887,827.018 L856.787,733.996 C876.704,730.938 885.113,719.48 882.055,699.563 L807.546,214.249z"/>
          <path id="path23" fill="#F0AD28" fill-opacity="1" d="M492.728,382.471 Q527.52,377.129 555.91,397.962 C574.837,411.851 586.084,430.409 589.642,453.588 590.371,458.332 590.73,462.981 590.729,467.585 590.716,482.661 586.713,496.782 578.76,509.891 L806.739,474.89 769.211,230.454 183.425,320.388 220.953,564.824 448.882,529.831 C437.363,519.712 429.308,507.442 424.773,493.064 423.391,488.672 422.339,484.129 421.611,479.385 418.052,456.207 423.214,435.129 437.103,416.203 450.991,397.276 469.55,386.029 492.728,382.471z"/>
          <path id="path24" fill="#F4E746" fill-opacity="1" d="M555.91,397.962 Q527.52,377.129 492.728,382.471 C469.55,386.029 450.991,397.276 437.103,416.203 423.214,435.129 418.052,456.207 421.611,479.385 422.339,484.129 423.391,488.672 424.773,493.064 429.308,507.442 437.363,519.712 448.882,529.831 L578.76,509.891 C586.713,496.782 590.716,482.661 590.729,467.585 590.73,462.981 590.371,458.332 589.642,453.588 586.084,430.409 574.837,411.851 555.91,397.962z"/>
          <path id="path25" fill="#DD5E22" fill-opacity="1" d="M220.953,564.824 L254.846,785.587 840.632,695.654 806.739,474.89 578.76,509.891 448.882,529.831 220.953,564.824z"/>
        </g>
      </g>
      <g id="bg6">
        <g id="shape34">
          <path id="path26" fill="#FFFFFF" fill-opacity="1" d="M634.013,317.883 C629.787,314.738 625.115,313.634 620.025,314.416 615.379,315.129 611.554,317.234 608.657,320.764 604.785,314.327 599.438,309.483 592.551,306.139 585.679,302.894 578.441,301.881 570.88,303.042 560.6,304.62 552.399,309.521 546.299,317.894 540.199,326.266 537.934,335.568 539.505,345.798 L540.081,348.896 C534.842,352.331 530.952,356.975 528.353,362.787 525.706,368.606 524.921,374.696 525.9,381.071 527.273,390.016 531.604,397.141 538.917,402.595 546.255,407.892 554.409,409.929 563.305,408.563 L642.082,396.469 C649.791,395.285 655.939,391.508 660.541,385.237 665.093,378.974 666.81,372.033 665.634,364.373 664.632,357.849 661.718,352.378 656.884,347.91 652.058,343.491 646.425,341.068 639.978,340.591 641.492,337.273 641.964,333.76 641.41,330.153 640.621,325.013 638.175,320.937 634.013,317.883z M322.698,479.597 L323.13,481.757 C319.45,484.143 316.761,487.389 314.958,491.459 313.098,495.488 312.542,499.772 313.225,504.22 314.173,510.398 317.216,515.394 322.305,519.216 327.428,522.931 333.107,524.336 339.334,523.38 L394.241,514.95 C399.628,514.123 403.928,511.49 407.149,507.101 410.329,502.768 411.501,497.883 410.682,492.546 409.984,487.999 407.928,484.167 404.572,481.09 401.217,478.014 397.26,476.294 392.759,475.974 393.866,473.629 394.201,471.2 393.814,468.679 393.268,465.121 391.513,462.254 388.605,460.121 Q384.216,456.899 378.878,457.719 C375.617,458.22 373.008,459.682 370.955,462.122 368.25,457.681 364.487,454.263 359.732,451.957 354.928,449.66 349.914,448.963 344.577,449.782 337.411,450.882 331.711,454.287 327.452,460.151 323.185,465.966 321.605,472.481 322.698,479.597z"/>
        </g>
      </g>
      <mask id="bg4">
        <g id="g1">
          <g id="shape35">
            <path id="path27" fill="#FFFFFF" fill-opacity="1" d="M769.211,230.454 L183.425,320.388 254.846,785.587 840.632,695.654 769.211,230.454z"/>
          </g>
        </g>
      </mask>
      <g id="masked1" mask="url(#bg4)">
        <g id="Calque.__206">
          <g id="shape36">
            <path id="path28" fill="#4F392A" fill-opacity="1" d="M246.271,416.717 Q231.309,414.815 219.447,417.952 C219.934,428.702 222.022,440.32 225.602,452.771 225.648,453.067 225.743,453.356 225.83,453.596 231.043,450.317 237.403,449.239 244.994,450.249 238.516,453.52 233.276,458.27 229.332,464.541 236.218,484.022 245.982,502.15 258.631,518.975 265.097,510.344 276.023,505.733 291.412,505.141 280.922,509.635 273.491,518.566 269.161,531.877 272.095,535.17 275.12,538.398 278.244,541.612 278.301,541.653 278.407,541.688 278.464,541.729 304.066,567.796 330.2,582.501 356.881,585.942 357.284,585.93 357.702,586.018 358.071,586.113 357.915,586.086 357.767,586.109 357.619,586.132 330.898,587.705 303.508,577.999 275.407,557.071 275.35,557.029 275.293,556.987 275.243,556.995 261.621,561.514 249.664,568.308 239.37,577.375 L245.563,590.031 233.054,583.352 C230.78,585.674 228.628,588.129 226.54,590.676 220.992,597.699 216.675,604.837 213.582,612.039 218.594,617.34 224.759,621.908 232.034,625.799 245.424,632.95 259.899,636.292 275.557,635.81 276.289,628.717 274.463,621.763 270.029,614.957 277.884,620.985 281.866,627.81 282.073,635.417 286.855,634.935 291.683,634.093 296.572,632.988 291.362,639.909 287.269,647.518 284.309,655.915 282.456,661.308 281.272,666.448 280.849,671.268 284.357,672.702 288.424,673.494 292.944,673.609 303.778,673.666 314.598,669.678 325.355,661.652 306.732,721.572 304.235,770.872 317.82,809.609 319.632,815.149 322.607,819.042 326.712,821.397 330.908,823.686 335.116,823.748 339.294,821.64 343.443,819.334 346.344,815.499 348.083,810.022 349.773,804.552 349.679,799.002 347.868,793.463 338.037,759.41 342.833,714.867 362.34,659.718 364.536,675.012 369.01,687.679 375.648,697.637 378.27,701.535 380.911,704.569 383.579,706.79 385.576,703.65 387.36,699.785 388.874,695.151 391.599,686.538 392.928,677.077 392.814,666.775 396.822,675.417 401.628,683.987 407.217,692.386 408.201,693.854 409.136,695.329 410.127,696.846 413.023,689.674 419.274,682.289 428.799,674.807 422.835,685.385 418.985,695.891 417.241,706.276 426.106,717.561 435.534,726.585 445.427,733.362 454.441,733.091 461.053,727.068 465.166,715.308 465.331,724.944 462.823,733.322 457.594,740.448 459.072,741.182 460.585,741.81 462.098,742.437 469.555,745.542 476.473,747.11 482.81,747.2 483.607,738.882 483.405,729.656 482.195,719.472 480.421,704.619 476.67,690.07 470.9,675.881 464.12,670.599 458.449,668.586 453.879,669.793 L466.573,665.821 C463.059,658.419 459.051,651.092 454.507,643.898 432.535,640.493 412.816,631.987 395.357,618.429 388.014,612.778 381.721,606.713 376.428,600.241 375.424,598.979 374.421,597.716 373.46,596.397 376.861,599.77 380.642,602.983 384.713,606.102 402.123,619.667 421.834,628.124 443.764,631.586 451.902,632.866 460.288,633.45 469.012,633.274 467.513,615.597 462.683,597.318 454.474,578.445 468.845,595.613 476.785,613.718 478.356,632.851 493.726,631.807 507.963,628.66 521.068,623.41 522.71,613.345 520.547,599.917 514.539,583.185 521.581,589.844 526.53,601.983 529.501,619.688 540.181,614.456 550.067,607.678 559.124,599.458 567.825,591.546 574.829,583.136 580.131,574.178 574.116,565.641 566.482,557.759 557.171,550.487 541.167,538.173 523.325,530.037 503.646,526.077 L505.174,540.31 496.952,524.98 C487.936,523.582 478.505,523.108 468.701,523.5 463.668,523.666 458.722,524.071 453.92,524.758 L463.168,542.156 C458.046,533.837 450.597,528.809 440.82,527.072 418.667,532.042 399.311,542.045 382.66,557.146 381.82,557.933 380.93,558.727 380.097,559.563 379.357,556.389 378.552,553.123 377.641,549.823 372.256,531.225 364.366,513.77 354.02,497.451 346.627,493.78 339.971,493.588 334.017,496.981 337.945,491.926 343.192,489.856 349.665,490.835 342.442,480.36 334.135,470.405 324.737,460.922 319.333,455.378 313.857,450.35 308.365,445.882 297.273,445.46 289.414,451.27 284.844,463.354 287.627,452.809 292.221,444.516 298.735,438.508 281.48,426.285 263.973,419.007 246.271,416.717z"/>
          </g>
        </g>
      </g>
    </g>
  </g>
  <g id="Calque.__202">
    <g id="shape6">
      <path id="path3" fill="#FFFFFF" fill-opacity="0.4980392156862745" d="M598.8,192.65 Q596.6,191.2 593,191.2 L327,191.2 334.25,198.45 316.15,216.55 334.25,234.65 316.15,252.75 334.25,270.85 318.4,286.65 C320.2,288.3 322.4,288.9 325.2,288.9 L582.15,288.9 602.05,269 582.15,249.1 602.05,229.2 582.15,209.3 598.8,192.65z"/>
    </g>
  </g>
  <g id="Calque.__203">
    <g id="Symbsssole.__208_1" overflow="visible">
      <g id="Calque.__207">
        <g id="shape37">
          <path id="path29" fill="#CCCCCC" fill-opacity="1" d="M860.172,431.828 L879.302,389.692 C882.866,381.94 881.178,376.376 874.176,373.188 L766.773,324.175 C759.772,321.05 754.52,323.363 750.957,331.115 L731.827,373.313 775.463,393.193 818.849,412.948 860.172,431.828z"/>
          <path id="path30" fill="#717171" fill-opacity="1" d="M765.836,414.198 L775.463,393.193 731.827,373.313 722.2,394.318 765.836,414.198z"/>
          <path id="path31" fill="#666666" fill-opacity="1" d="M775.463,393.193 L765.836,414.198 809.222,433.953 818.849,412.948 775.463,393.193z"/>
          <path id="path32" fill="#515151" fill-opacity="1" d="M818.849,412.948 L809.222,433.953 850.545,452.896 860.172,431.828 818.849,412.948z"/>
          <path id="path33" fill="#3CA8B1" fill-opacity="1" d="M809.222,433.953 L765.836,414.198 569.535,844.996 569.035,845.997 569.098,846.059 569.223,846.122 C569.285,845.934 569.285,845.872 569.348,845.684 570.223,844.559 571.036,843.683 571.974,842.808 574.287,840.808 576.912,839.245 579.913,838.12 586.352,835.744 592.666,835.994 598.855,838.807 605.045,841.683 609.296,846.184 611.671,852.561 613.047,856.062 613.547,859.625 613.297,863.188 613.234,863.439 613.234,863.814 613.234,864.064 613.172,864.126 613.172,864.126 613.109,864.189 L613.172,864.189 613.297,864.001 809.222,433.953z"/>
          <path id="path34" fill="#2B8994" fill-opacity="1" d="M850.545,452.896 L809.222,433.953 613.297,864.001 C613.859,863.314 614.484,862.688 615.11,862.126 617.36,860.125 619.986,858.437 623.112,857.249 629.363,854.999 635.74,855.249 641.929,858.062 648.118,860.875 652.369,865.439 654.807,871.753 655.495,873.816 655.995,875.754 656.308,877.505 657.245,876.379 658.183,874.816 658.996,872.941 L850.545,452.896z"/>
          <path id="path35" fill="#64BAC2" fill-opacity="1" d="M765.836,414.198 L722.2,394.318 530.65,814.363 C529.588,816.864 528.963,819.115 528.9,821.115 528.963,821.428 528.9,821.865 528.9,822.24 531.088,820.428 533.526,818.927 536.527,817.802 542.779,815.489 549.093,815.676 555.282,818.552 561.471,821.365 565.722,825.991 568.223,832.306 569.535,835.806 570.098,839.37 569.723,842.996 569.723,843.558 569.66,844.309 569.535,844.996 L765.836,414.198z"/>
          <path id="path36" fill="#F4D17F" fill-opacity="1" d="M654.807,871.753 C652.369,865.439 648.118,860.875 641.929,858.062 635.74,855.249 629.363,854.999 623.112,857.249 619.986,858.437 617.36,860.125 615.11,862.126 614.484,862.688 613.859,863.314 613.297,864.001 L613.172,864.189 613.109,864.189 C613.172,864.126 613.172,864.126 613.234,864.064 613.234,863.814 613.234,863.439 613.297,863.188 613.547,859.625 613.047,856.062 611.671,852.561 609.296,846.184 605.045,841.683 598.855,838.807 592.666,835.994 586.352,835.744 579.913,838.12 576.912,839.245 574.287,840.808 571.974,842.808 571.036,843.683 570.223,844.559 569.348,845.684 569.285,845.872 569.285,845.934 569.223,846.122 L569.098,846.059 569.035,845.997 569.535,844.996 C569.66,844.309 569.723,843.558 569.723,842.996 570.098,839.37 569.535,835.806 568.223,832.306 565.722,825.991 561.471,821.365 555.282,818.552 549.093,815.676 542.779,815.489 536.527,817.802 533.526,818.927 531.088,820.428 528.9,822.24 528.9,822.491 528.963,822.678 529.025,822.803 529.213,824.491 529.838,825.991 530.838,827.304 L550.906,892.133 C557.157,892.634 563.659,894.447 570.348,897.572 577.225,900.636 582.976,904.512 587.603,909.075 L651.681,880.881 Q652.432,880.568 653.182,880.193 C654.307,879.568 655.307,878.692 656.308,877.505 655.995,875.754 655.495,873.816 654.807,871.753z"/>
          <path id="path37" fill="#333333" fill-opacity="1" d="M550.906,892.133 L559.97,921.266 587.603,909.075 C582.976,904.512 577.225,900.636 570.348,897.572 563.659,894.447 557.157,892.634 550.906,892.133z"/>
        </g>
      </g>
    </g>
  </g>
</svg>