<?xml version="1.0" encoding="utf-8"?>
<!-- Generator: flash2svg, http://dissentgraphics.com/tools/flash2svg -->
<svg xmlns:xlink="http://www.w3.org/1999/xlink" id="Garage-Band" image-rendering="optimizeSpeed" baseProfile="basic" version="1.1" style="background-color:#ffffff" x="0px" y="0px" width="1024px" height="1024px" viewBox="0 0 1024 1024" enable-background="new 0 0 1024 1024" xmlns="http://www.w3.org/2000/svg">
  <defs transform="matrix(1 0 0 1 0 0) "/>
  <g id="shadow">
    <g id="shape">
      <path id="path" fill="#000000" fill-opacity="0.09803921568627451" d="M969.65,351.3 Q961.05,330.45 950.25,310.45 C946.2,302.9 941.9,295.4 937.35,288.05 917.8,256.35 893.95,226.4 865.8,198.25 773.65,106.1 662.35,60 532,60 401.65,60 290.4,106.1 198.25,198.25 106.1,290.4 60,401.65 60,532 60,662.35 106.1,773.65 198.25,865.8 290.4,957.95 401.65,1004 532,1004 662.35,1004 773.65,957.95 865.8,865.8 916.55,815 953.35,758.4 976.15,696.05 994.7,645.2 1004,590.55 1004,532 1004,487.1 998.55,444.45 987.6,404.05 986.35,399.5 985.05,394.95 983.7,390.45 979.6,377.15 974.9,364.1 969.65,351.3z"/>
    </g>
  </g>
  <g id="bg">
    <g id="shape2">
      <path id="path1" fill="#533D26" fill-opacity="1" d="M929.85,289.65 C927.5,285.3 924.9,280.65 922.2,276.05 901.9,241.55 876.4,208.85 845.85,178.3 773.25,105.7 688.7,61.65 592.2,46.25 575.95,43.65 559.4,41.85 542.15,40.9 532.45,40.35 522.3,40.05 512.05,40.05 502.7,40.05 493.45,40.3 484.15,40.8 365.8,46.9 263.85,92.75 178.3,178.3 157.8,198.8 139.55,220.25 123.6,242.7 108.25,264.25 95.05,286.7 84,309.9 L83.975,309.875 Q40.05,401.873 40.05,512.05 C40.05,642.4 86.15,753.7 178.3,845.85 235,902.5 298.85,941.75 369.4,963.4 406.15,974.65 444.2,981.25 484.15,983.35 484.3,983.35 484.4,983.35 484.55,983.35 493.05,983.8 501.15,984.05 509.05,984.05 510.25,984.05 511.15,984.05 512.05,984.05 522.35,984.05 532.55,983.75 542.15,983.25 544.65,983.1 546.9,982.95 549.1,982.8 569.3,981.35 589,978.75 607.8,975.1 615.75,973.55 623.6,971.8 631.2,969.95 712,949.65 783.35,908.35 845.85,845.85 894.45,797.25 930.25,743.35 953.2,684.05 971.65,636.4 981.85,585.25 983.75,530.55 983.95,524.5 984.05,518.3 984.05,512.05 984.05,511.4 984.05,510.7 984.05,510.05 984.05,509.7 984.05,509.4 984.05,509.05 983.85,468.4 979.1,429.55 969.75,392.05 968.65,387.7 967.4,383.05 966.1,378.45 965.1,375.05 964.1,371.6 962.95,367.95 961.35,362.8 959.55,357.45 957.65,352.1 952.6,337.85 946.8,323.85 940.2,309.95 938.35,306.15 936.45,302.3 934.5,298.45 933.05,295.6 931.55,292.75 929.85,289.65z"/>
    </g>
  </g>
  <g id="bg1">
    <g id="shape4">
      <path id="path2" fill="#000000" fill-opacity="0.2" d="M983.55,535.65 L657.95,210.05 388.225,381.225 328.05,321.05 281.05,373.05 364.05,456.05 283.05,491.05 369.05,577.05 285.05,609.05 375.9,699.9 573.35,980.475 L573.35,980.5 C585.15,979.05 596.65,977.25 607.8,975.1 615.75,973.55 623.6,971.8 631.2,969.95 712,949.65 783.35,908.35 845.85,845.85 894.45,797.25 930.25,743.35 953.2,684.05 Q980.084,614.684 983.55,535.65z"/>
    </g>
  </g>
  <g id="Calque.__201">
    <g id="shape6">
      <path id="path3" fill="#7F5A33" fill-opacity="1" d="M656.6,741.55 Q662.15,736.55 662.15,726.05 L662.15,278.05 C662.15,264.7 655.5,258.05 642.15,258.05 L382.15,258.05 C368.8,258.05 362.15,264.7 362.15,278.05 L362.15,726.05 C362.15,733.05 364,738.2 367.7,741.55 369.8,743.45 372.5,744.75 375.85,745.45 382.2,749 388.1,753.5 393.65,759.05 403.45,768.85 410.1,779.95 413.65,792.35 414.85,796.5 415.7,800.75 416.15,805.2 L416.15,822.25 608.15,822.25 608.15,805.2 C610.1,787.5 617.6,772.1 630.65,759.05 636.2,753.5 642.15,749 648.5,745.45 651.8,744.75 654.5,743.45 656.6,741.55z"/>
    </g>
  </g>
  <mask id="bg2">
    <g id="g">
      <g id="shape20">
        <path id="path13" fill="#FFFFFF" fill-opacity="1" d="M929.85,289.65 C927.5,285.3 924.9,280.65 922.2,276.05 901.9,241.55 876.4,208.85 845.85,178.3 773.25,105.7 688.7,61.65 592.2,46.25 575.95,43.65 559.4,41.85 542.15,40.9 532.45,40.35 522.3,40.05 512.05,40.05 502.7,40.05 493.45,40.3 484.15,40.8 365.8,46.9 263.85,92.75 178.3,178.3 157.8,198.8 139.55,220.25 123.6,242.7 108.25,264.25 95.05,286.7 84,309.9 L83.975,309.875 Q40.05,401.873 40.05,512.05 C40.05,642.4 86.15,753.7 178.3,845.85 235,902.5 298.85,941.75 369.4,963.4 406.15,974.65 444.2,981.25 484.15,983.35 484.3,983.35 484.4,983.35 484.55,983.35 493.05,983.8 501.15,984.05 509.05,984.05 510.25,984.05 511.15,984.05 512.05,984.05 522.35,984.05 532.55,983.75 542.15,983.25 544.65,983.1 546.9,982.95 549.1,982.8 569.3,981.35 589,978.75 607.8,975.1 615.75,973.55 623.6,971.8 631.2,969.95 712,949.65 783.35,908.35 845.85,845.85 894.45,797.25 930.25,743.35 953.2,684.05 971.65,636.4 981.85,585.25 983.75,530.55 983.95,524.5 984.05,518.3 984.05,512.05 984.05,511.4 984.05,510.7 984.05,510.05 984.05,509.7 984.05,509.4 984.05,509.05 983.85,468.4 979.1,429.55 969.75,392.05 968.65,387.7 967.4,383.05 966.1,378.45 965.1,375.05 964.1,371.6 962.95,367.95 961.35,362.8 959.55,357.45 957.65,352.1 952.6,337.85 946.8,323.85 940.2,309.95 938.35,306.15 936.45,302.3 934.5,298.45 933.05,295.6 931.55,292.75 929.85,289.65z"/>
      </g>
    </g>
  </mask>
  <g id="masked" mask="url(#bg2)">
    <g id="Calque.__202">
      <g id="shape8">
        <path id="path4" fill="#C5915B" fill-opacity="1" d="M656.5,687.55 Q662.05,682.573 662.05,672.05 L662.05,224.05 C662.05,210.7 655.4,204.05 642.05,204.05 L382.05,204.05 C368.7,204.05 362.05,210.7 362.05,224.05 L362.05,672.05 C362.05,679.05 363.9,684.2 367.6,687.55 369.7,689.45 372.4,690.75 375.75,691.45 382.1,695 388,699.5 393.55,705.05 403.35,714.85 410,725.95 413.55,738.35 414.75,742.5 415.6,746.75 416.05,751.2 L416.05,751.175 L416.05,768.25 608.05,768.25 608.05,751.175 L608.05,751.2 C610,733.5 617.5,718.1 630.55,705.05 636.1,699.5 642.05,695 648.4,691.45 651.7,690.75 654.4,689.45 656.5,687.55z M608.05,974.2 L608.05,808.25 416.05,808.25 416.05,974.2 C416.05,987.55 422.7,994.2 436.05,994.2 L588.05,994.2 C601.4,994.2 608.05,987.55 608.05,974.2z"/>
      </g>
    </g>
    <g id="Calque.__203">
      <g id="shape12">
        <path id="path7" fill="#FFFFFF" fill-opacity="1" d="M551.075,801.725 Q548.148,804.656 548.15,808.8 L548.15,1046.6 C548.15,1049.35 549.15,1051.75 551.1,1053.7 553.05,1055.65 555.4,1056.6 558.15,1056.6 560.9,1056.6 563.3,1055.65 565.25,1053.7 567.2,1051.75 568.15,1049.35 568.15,1046.6 L568.15,808.8 C568.15,806.05 567.2,803.7 565.25,801.75 563.3,799.8 560.9,798.8 558.15,798.8 555.4,798.8 553.05,799.8 551.1,801.75 M503.05,801.75 C501.1,803.7 500.1,806.05 500.1,808.8 L500.1,1046.6 C500.1,1049.35 501.1,1051.75 503.05,1053.7 505,1055.65 507.35,1056.6 510.1,1056.6 512.85,1056.6 515.25,1055.65 517.2,1053.7 519.15,1051.75 520.1,1049.35 520.1,1046.6 L520.1,808.8 C520.1,806.05 519.15,803.7 517.2,801.75 515.25,799.8 512.85,798.8 510.1,798.8 507.35,798.8 505,799.8 503.05,801.75z M455,801.75 C453.05,803.7 452.05,806.05 452.05,808.8 L452.05,1046.6 C452.05,1049.35 453.05,1051.75 455,1053.7 456.95,1055.65 459.3,1056.6 462.05,1056.6 464.8,1056.6 467.2,1055.65 469.15,1053.7 471.1,1051.75 472.05,1049.35 472.05,1046.6 L472.05,808.8 C472.05,806.05 471.1,803.7 469.15,801.75 467.2,799.8 464.8,798.8 462.05,798.8 459.3,798.8 456.95,799.8 455,801.75z"/>
      </g>
    </g>
    <g id="Calque.__204">
      <g id="shape18">
        <path id="path12" fill="#FFFF99" fill-opacity="1" d="M608.05,768.25 L416.05,768.25 416.05,808.25 608.05,808.25 608.05,768.25z"/>
      </g>
    </g>
  </g>
  <g id="Calque.__205">
    <g id="Symbole.__2045_1" overflow="visible">
      <g id="Calque.__226">
        <g id="Symbole.__2047_3" overflow="visible">
          <g id="Calque.__227">
            <g id="Symbole.__2050_16" overflow="visible">
              <g id="Calque.__228">
                <g id="shape44">
                  <path id="path64" fill="#292A3F" fill-opacity="1" d="M395.4,449.8 L395.4,456.3 413.8,456.3 C414.8,454.45 416.1,452.7 417.7,451.1 421.9,446.9 426.95,444.8 432.9,444.8 438.85,444.8 443.9,446.9 448.1,451.1 452.3,455.3 454.4,460.35 454.4,466.3 454.4,472.25 452.3,477.3 448.1,481.5 443.9,485.7 438.85,487.8 432.9,487.8 426.95,487.8 421.9,485.7 417.7,481.5 416.1,479.9 414.8,478.15 413.8,476.3 L395.4,476.3 395.4,482.8 C395.4,496.15 402.05,502.8 415.4,502.8 L448.4,502.8 C461.75,502.8 468.4,496.15 468.4,482.8 L468.4,449.8 C468.4,436.45 461.75,429.8 448.4,429.8 L415.4,429.8 C402.05,429.8 395.4,436.45 395.4,449.8z"/>
                  <path id="path65" fill="#FFFF99" fill-opacity="1" d="M448.1,451.1 C443.9,446.9 438.85,444.8 432.9,444.8 426.95,444.8 421.9,446.9 417.7,451.1 416.1,452.7 414.8,454.45 413.8,456.3 412.2,459.3 411.4,462.65 411.4,466.3 411.4,469.95 412.2,473.3 413.8,476.3 414.8,478.15 416.1,479.9 417.7,481.5 421.9,485.7 426.95,487.8 432.9,487.8 438.85,487.8 443.9,485.7 448.1,481.5 452.3,477.3 454.4,472.25 454.4,466.3 454.4,460.35 452.3,455.3 448.1,451.1z M342.05,456.3 C340.45,450.8 337.5,445.9 333.15,441.55 326.3,434.7 318.05,431.3 308.4,431.3 298.75,431.3 290.5,434.7 283.65,441.55 276.8,448.4 273.4,456.65 273.4,466.3 273.4,475.95 276.8,484.2 283.65,491.05 290.5,497.9 298.75,501.3 308.4,501.3 318.05,501.3 326.3,497.9 333.15,491.05 337.5,486.7 340.45,481.8 342.05,476.3 342.95,473.15 343.4,469.85 343.4,466.3 343.4,462.75 342.95,459.45 342.05,456.3z"/>
                  <path id="path66" fill="#FFFFFF" fill-opacity="1" d="M413.8,456.3 L395.4,456.3 342.05,456.3 C342.95,459.45 343.4,462.75 343.4,466.3 343.4,469.85 342.95,473.15 342.05,476.3 L395.4,476.3 413.8,476.3 C412.2,473.3 411.4,469.95 411.4,466.3 411.4,462.65 412.2,459.3 413.8,456.3z"/>
                </g>
              </g>
            </g>
            <g id="Symbole.__2050_17" overflow="visible">
              <g id="Calque.__229">
                <g id="shape45">
                  <path id="path67" fill="#292A3F" fill-opacity="1" d="M395.4,565.1 L395.4,571.6 413.8,571.6 C414.8,569.75 416.1,568 417.7,566.4 421.9,562.2 426.95,560.1 432.9,560.1 438.85,560.1 443.9,562.2 448.1,566.4 452.3,570.6 454.4,575.65 454.4,581.6 454.4,587.55 452.3,592.6 448.1,596.8 443.9,601 438.85,603.1 432.9,603.1 426.95,603.1 421.9,601 417.7,596.8 416.1,595.2 414.8,593.45 413.8,591.6 L395.4,591.6 395.4,598.1 C395.4,611.45 402.05,618.1 415.4,618.1 L448.4,618.1 C461.75,618.1 468.4,611.45 468.4,598.1 L468.4,565.1 C468.4,551.75 461.75,545.1 448.4,545.1 L415.4,545.1 C402.05,545.1 395.4,551.75 395.4,565.1z"/>
                  <path id="path68" fill="#FFFF99" fill-opacity="1" d="M448.1,566.4 C443.9,562.2 438.85,560.1 432.9,560.1 426.95,560.1 421.9,562.2 417.7,566.4 416.1,568 414.8,569.75 413.8,571.6 412.2,574.6 411.4,577.95 411.4,581.6 411.4,585.25 412.2,588.6 413.8,591.6 414.8,593.45 416.1,595.2 417.7,596.8 421.9,601 426.95,603.1 432.9,603.1 438.85,603.1 443.9,601 448.1,596.8 452.3,592.6 454.4,587.55 454.4,581.6 454.4,575.65 452.3,570.6 448.1,566.4z M342.05,571.6 C340.45,566.1 337.5,561.2 333.15,556.85 326.3,550 318.05,546.6 308.4,546.6 298.75,546.6 290.5,550 283.65,556.85 276.8,563.7 273.4,571.95 273.4,581.6 273.4,591.25 276.8,599.5 283.65,606.35 290.5,613.2 298.75,616.6 308.4,616.6 318.05,616.6 326.3,613.2 333.15,606.35 337.5,602 340.45,597.1 342.05,591.6 342.95,588.45 343.4,585.15 343.4,581.6 343.4,578.05 342.95,574.75 342.05,571.6z"/>
                  <path id="path69" fill="#FFFFFF" fill-opacity="1" d="M413.8,571.6 L395.4,571.6 342.05,571.6 C342.95,574.75 343.4,578.05 343.4,581.6 343.4,585.15 342.95,588.45 342.05,591.6 L395.4,591.6 413.8,591.6 C412.2,588.6 411.4,585.25 411.4,581.6 411.4,577.95 412.2,574.6 413.8,571.6z"/>
                </g>
              </g>
            </g>
            <g id="Symbole.__2050_18" overflow="visible">
              <g id="Calque.__230">
                <g id="shape46">
                  <path id="path70" fill="#292A3F" fill-opacity="1" d="M395.4,334.6 L395.4,341.1 413.8,341.1 C414.8,339.25 416.1,337.5 417.7,335.9 421.9,331.7 426.95,329.6 432.9,329.6 438.85,329.6 443.9,331.7 448.1,335.9 452.3,340.1 454.4,345.15 454.4,351.1 454.4,357.05 452.3,362.1 448.1,366.3 443.9,370.5 438.85,372.6 432.9,372.6 426.95,372.6 421.9,370.5 417.7,366.3 416.1,364.7 414.8,362.95 413.8,361.1 L395.4,361.1 395.4,367.6 C395.4,380.95 402.05,387.6 415.4,387.6 L448.4,387.6 C461.75,387.6 468.4,380.95 468.4,367.6 L468.4,334.6 C468.4,321.25 461.75,314.6 448.4,314.6 L415.4,314.6 C402.05,314.6 395.4,321.25 395.4,334.6z"/>
                  <path id="path71" fill="#FFFF99" fill-opacity="1" d="M448.1,335.9 C443.9,331.7 438.85,329.6 432.9,329.6 426.95,329.6 421.9,331.7 417.7,335.9 416.1,337.5 414.8,339.25 413.8,341.1 412.2,344.1 411.4,347.45 411.4,351.1 411.4,354.75 412.2,358.1 413.8,361.1 414.8,362.95 416.1,364.7 417.7,366.3 421.9,370.5 426.95,372.6 432.9,372.6 438.85,372.6 443.9,370.5 448.1,366.3 452.3,362.1 454.4,357.05 454.4,351.1 454.4,345.15 452.3,340.1 448.1,335.9z M342.05,341.1 C340.45,335.6 337.5,330.7 333.15,326.35 326.3,319.5 318.05,316.1 308.4,316.1 298.75,316.1 290.5,319.5 283.65,326.35 276.8,333.2 273.4,341.45 273.4,351.1 273.4,360.75 276.8,369 283.65,375.85 290.5,382.7 298.75,386.1 308.4,386.1 318.05,386.1 326.3,382.7 333.15,375.85 337.5,371.5 340.45,366.6 342.05,361.1 342.95,357.95 343.4,354.65 343.4,351.1 343.4,347.55 342.95,344.25 342.05,341.1z"/>
                  <path id="path72" fill="#FFFFFF" fill-opacity="1" d="M413.8,341.1 L395.4,341.1 342.05,341.1 C342.95,344.25 343.4,347.55 343.4,351.1 343.4,354.65 342.95,357.95 342.05,361.1 L395.4,361.1 413.8,361.1 C412.2,358.1 411.4,354.75 411.4,351.1 411.4,347.45 412.2,344.1 413.8,341.1z"/>
                </g>
              </g>
            </g>
          </g>
        </g>
        <g id="Symbole.__2047_4" overflow="visible">
          <g id="Calque.__231">
            <g id="Symbole.__2050_19" overflow="visible">
              <g id="Calque.__232">
                <g id="shape47">
                  <path id="path73" fill="#292A3F" fill-opacity="1" d="M628.7,482.8 L628.7,476.3 610.3,476.3 C609.3,478.15 608,479.9 606.4,481.5 602.2,485.7 597.15,487.8 591.2,487.8 585.25,487.8 580.2,485.7 576,481.5 571.8,477.3 569.7,472.25 569.7,466.3 569.7,460.35 571.8,455.3 576,451.1 580.2,446.9 585.25,444.8 591.2,444.8 597.15,444.8 602.2,446.9 606.4,451.1 608,452.7 609.3,454.45 610.3,456.3 L628.7,456.3 628.7,449.8 C628.7,436.45 622.05,429.8 608.7,429.8 L575.7,429.8 C562.35,429.8 555.7,436.45 555.7,449.8 L555.7,482.8 C555.7,496.15 562.35,502.8 575.7,502.8 L608.7,502.8 C622.05,502.8 628.7,496.15 628.7,482.8z"/>
                  <path id="path74" fill="#FFFF99" fill-opacity="1" d="M576,481.5 C580.2,485.7 585.25,487.8 591.2,487.8 597.15,487.8 602.2,485.7 606.4,481.5 608,479.9 609.3,478.15 610.3,476.3 611.9,473.3 612.7,469.95 612.7,466.3 612.7,462.65 611.9,459.3 610.3,456.3 609.3,454.45 608,452.7 606.4,451.1 602.2,446.9 597.15,444.8 591.2,444.8 585.25,444.8 580.2,446.9 576,451.1 571.8,455.3 569.7,460.35 569.7,466.3 569.7,472.25 571.8,477.3 576,481.5z M682.05,476.3 C683.65,481.8 686.6,486.7 690.95,491.05 697.8,497.9 706.05,501.3 715.7,501.3 725.35,501.3 733.6,497.9 740.45,491.05 747.3,484.2 750.7,475.95 750.7,466.3 750.7,456.65 747.3,448.4 740.45,441.55 733.6,434.7 725.35,431.3 715.7,431.3 706.05,431.3 697.8,434.7 690.95,441.55 686.6,445.9 683.65,450.8 682.05,456.3 681.15,459.45 680.7,462.75 680.7,466.3 680.7,469.85 681.15,473.15 682.05,476.3z"/>
                  <path id="path75" fill="#FFFFFF" fill-opacity="1" d="M610.3,476.3 L628.7,476.3 682.05,476.3 C681.15,473.15 680.7,469.85 680.7,466.3 680.7,462.75 681.15,459.45 682.05,456.3 L628.7,456.3 610.3,456.3 C611.9,459.3 612.7,462.65 612.7,466.3 612.7,469.95 611.9,473.3 610.3,476.3z"/>
                </g>
              </g>
            </g>
            <g id="Symbole.__2050_20" overflow="visible">
              <g id="Calque.__233">
                <g id="shape48">
                  <path id="path76" fill="#292A3F" fill-opacity="1" d="M628.7,367.5 L628.7,361 610.3,361 C609.3,362.85 608,364.6 606.4,366.2 602.2,370.4 597.15,372.5 591.2,372.5 585.25,372.5 580.2,370.4 576,366.2 571.8,362 569.7,356.95 569.7,351 569.7,345.05 571.8,340 576,335.8 580.2,331.6 585.25,329.5 591.2,329.5 597.15,329.5 602.2,331.6 606.4,335.8 608,337.4 609.3,339.15 610.3,341 L628.7,341 628.7,334.5 C628.7,321.15 622.05,314.5 608.7,314.5 L575.7,314.5 C562.35,314.5 555.7,321.15 555.7,334.5 L555.7,367.5 C555.7,380.85 562.35,387.5 575.7,387.5 L608.7,387.5 C622.05,387.5 628.7,380.85 628.7,367.5z"/>
                  <path id="path77" fill="#FFFF99" fill-opacity="1" d="M576,366.2 C580.2,370.4 585.25,372.5 591.2,372.5 597.15,372.5 602.2,370.4 606.4,366.2 608,364.6 609.3,362.85 610.3,361 611.9,358 612.7,354.65 612.7,351 612.7,347.35 611.9,344 610.3,341 609.3,339.15 608,337.4 606.4,335.8 602.2,331.6 597.15,329.5 591.2,329.5 585.25,329.5 580.2,331.6 576,335.8 571.8,340 569.7,345.05 569.7,351 569.7,356.95 571.8,362 576,366.2z M682.05,361 C683.65,366.5 686.6,371.4 690.95,375.75 697.8,382.6 706.05,386 715.7,386 725.35,386 733.6,382.6 740.45,375.75 747.3,368.9 750.7,360.65 750.7,351 750.7,341.35 747.3,333.1 740.45,326.25 733.6,319.4 725.35,316 715.7,316 706.05,316 697.8,319.4 690.95,326.25 686.6,330.6 683.65,335.5 682.05,341 681.15,344.15 680.7,347.45 680.7,351 680.7,354.55 681.15,357.85 682.05,361z"/>
                  <path id="path78" fill="#FFFFFF" fill-opacity="1" d="M610.3,361 L628.7,361 682.05,361 C681.15,357.85 680.7,354.55 680.7,351 680.7,347.45 681.15,344.15 682.05,341 L628.7,341 610.3,341 C611.9,344 612.7,347.35 612.7,351 612.7,354.65 611.9,358 610.3,361z"/>
                </g>
              </g>
            </g>
            <g id="Symbole.__2050_21" overflow="visible">
              <g id="Calque.__234">
                <g id="shape49">
                  <path id="path79" fill="#292A3F" fill-opacity="1" d="M628.7,598 L628.7,591.5 610.3,591.5 C609.3,593.35 608,595.1 606.4,596.7 602.2,600.9 597.15,603 591.2,603 585.25,603 580.2,600.9 576,596.7 571.8,592.5 569.7,587.45 569.7,581.5 569.7,575.55 571.8,570.5 576,566.3 580.2,562.1 585.25,560 591.2,560 597.15,560 602.2,562.1 606.4,566.3 608,567.9 609.3,569.65 610.3,571.5 L628.7,571.5 628.7,565 C628.7,551.65 622.05,545 608.7,545 L575.7,545 C562.35,545 555.7,551.65 555.7,565 L555.7,598 C555.7,611.35 562.35,618 575.7,618 L608.7,618 C622.05,618 628.7,611.35 628.7,598z"/>
                  <path id="path80" fill="#FFFF99" fill-opacity="1" d="M576,596.7 C580.2,600.9 585.25,603 591.2,603 597.15,603 602.2,600.9 606.4,596.7 608,595.1 609.3,593.35 610.3,591.5 611.9,588.5 612.7,585.15 612.7,581.5 612.7,577.85 611.9,574.5 610.3,571.5 609.3,569.65 608,567.9 606.4,566.3 602.2,562.1 597.15,560 591.2,560 585.25,560 580.2,562.1 576,566.3 571.8,570.5 569.7,575.55 569.7,581.5 569.7,587.45 571.8,592.5 576,596.7z M682.05,591.5 C683.65,597 686.6,601.9 690.95,606.25 697.8,613.1 706.05,616.5 715.7,616.5 725.35,616.5 733.6,613.1 740.45,606.25 747.3,599.4 750.7,591.15 750.7,581.5 750.7,571.85 747.3,563.6 740.45,556.75 733.6,549.9 725.35,546.5 715.7,546.5 706.05,546.5 697.8,549.9 690.95,556.75 686.6,561.1 683.65,566 682.05,571.5 681.15,574.65 680.7,577.95 680.7,581.5 680.7,585.05 681.15,588.35 682.05,591.5z"/>
                  <path id="path81" fill="#FFFFFF" fill-opacity="1" d="M610.3,591.5 L628.7,591.5 682.05,591.5 C681.15,588.35 680.7,585.05 680.7,581.5 680.7,577.95 681.15,574.65 682.05,571.5 L628.7,571.5 610.3,571.5 C611.9,574.5 612.7,577.85 612.7,581.5 612.7,585.15 611.9,588.5 610.3,591.5z"/>
                </g>
              </g>
            </g>
          </g>
        </g>
      </g>
    </g>
  </g>
</svg>