<?xml version="1.0" encoding="utf-8"?>
<!-- Generator: flash2svg, http://dissentgraphics.com/tools/flash2svg -->
<svg xmlns:xlink="http://www.w3.org/1999/xlink" id="Filezilla" image-rendering="optimizeSpeed" baseProfile="basic" version="1.1" style="background-color:#ffffff" x="0px" y="0px" width="1024px" height="1024px" viewBox="0 0 1024 1024" enable-background="new 0 0 1024 1024" xmlns="http://www.w3.org/2000/svg">
  <defs transform="matrix(1 0 0 1 0 0) "/>
  <g id="shadow">
    <g id="shape">
      <path id="path" fill="#000000" fill-opacity="0.09803921568627451" d="M969.65,351.3 Q961.05,330.45 950.25,310.45 C946.2,302.9 941.9,295.4 937.35,288.05 917.8,256.35 893.95,226.4 865.8,198.25 773.65,106.1 662.35,60 532,60 401.65,60 290.4,106.1 198.25,198.25 106.1,290.4 60,401.65 60,532 60,662.35 106.1,773.65 198.25,865.8 290.4,957.95 401.65,1004 532,1004 662.35,1004 773.65,957.95 865.8,865.8 916.55,815 953.35,758.4 976.15,696.05 994.7,645.2 1004,590.55 1004,532 1004,487.1 998.55,444.45 987.6,404.05 986.35,399.5 985.05,394.95 983.7,390.45 979.6,377.15 974.9,364.1 969.65,351.3z"/>
    </g>
  </g>
  <g id="ico-shadow">
    <g id="shape2">
      <path id="path1" fill="#333333" fill-opacity="1" d="M727.2,91.75 C718.5,87.4 709.35,83.1 699.95,79.05 691.35,75.3 682.8,71.85 674.05,68.65 631.95,52.9 589.8,43.3 547.6,40 478.2,34.4 408.65,45.4 338.7,73 315.25,82.3 293.05,92.9 272.1,104.9 230.8,128.6 194.5,157.55 163.6,191.6 Q112,248.2 79.05,324.15 C58.8,370.8 46.2,417.6 41.2,463.8 40.75,468.25 40.35,472.4 40,476.55 36.3,522.15 39.8,567.3 50.25,612.55 55.95,637.1 63.5,661.3 73,685.4 100.7,755.35 140.25,813.8 191.55,860.5 223,889.15 258.75,913.35 298.85,933.3 299,933.35 299.1,933.4 299.2,933.45 302.3,935 305.3,936.45 307.85,937.6 312.75,939.95 317.1,941.95 321.45,943.85 322.55,944.3 323.35,944.7 324.2,945.05 333.65,949.15 343.1,952.9 352.1,956.25 354.45,957.1 356.6,957.9 358.7,958.65 377.75,965.35 396.9,970.8 415.6,974.95 423.5,976.65 431.4,978.2 439.1,979.5 440.05,979.7 441.05,979.8 441.8,979.95 453.45,981.8 465,983.2 476.55,984.15 546.35,989.6 615.75,978.6 685.4,951.1 709.75,941.5 732.7,930.45 754.2,917.95 789.3,897.6 820.65,873.45 848.3,845.45 852.45,841.25 856.5,836.95 860.55,832.55 868.95,823.3 877.05,813.6 884.8,803.45 904.85,777.3 922.35,748.35 937.4,716.75 940,711.25 942.55,705.65 945.05,699.9 945.3,699.3 945.6,698.65 945.85,698.05 946,697.75 946.1,697.45 946.25,697.15 949.05,690.55 951.7,683.9 954.35,677.15 966,646.5 974.5,615.5 979.7,584.1 980.4,579.7 981.1,574.95 981.8,570.2 982.7,562.85 983.55,555.35 984.15,547.6 984.25,546.15 984.4,544.45 984.55,542.65 985.85,523.35 985.85,503.95 984.65,484.25 984.2,477.85 983.65,471.35 982.95,464.65 982.75,462.8 982.5,460.8 982.25,458.8 980.25,442.4 977.3,425.95 973.3,409.1 967.85,385.95 960.45,362.35 951.1,338.7 923.55,268.95 884.1,210.65 832.5,163.6 813.75,146.5 793.15,130.8 770.95,116.65 757.1,107.75 742.65,99.55 727.2,91.75z"/>
    </g>
  </g>
  <g id="ico-shadow1">
    <g id="shape4">
      <path id="path2" fill="none" stroke="#33FF66" stroke-opacity="1" stroke-width="0.1" stroke-linecap="round" stroke-linejoin="round" d="M500.6,1056.05 L420.575,976.025"/>
      <path id="path3" fill="#000000" fill-opacity="0.2" d="M937.4,716.75 C940,711.25 942.55,705.65 945.05,699.9 945.3,699.3 945.6,698.65 945.85,698.05 946,697.75 946.1,697.45 946.25,697.15 949.05,690.55 951.7,683.9 954.35,677.15 966,646.5 974.5,615.5 979.7,584.1 980.4,579.7 981.1,574.95 981.8,570.2 982.7,562.85 983.55,555.35 984.15,547.6 984.25,546.15 984.4,544.45 984.55,542.65 Q985.582,527.602 985.575,512.525 L221.6,777.05 420.575,976.025 L420.6,976.05 C427.1,977.35 433.15,978.5 439.1,979.5 440.05,979.7 441.05,979.8 441.8,979.95 453.45,981.8 465,983.2 476.55,984.15 546.35,989.6 615.75,978.6 685.4,951.1 709.75,941.5 732.7,930.45 754.2,917.95 789.3,897.6 820.65,873.45 848.3,845.45 852.45,841.25 856.5,836.95 860.55,832.55 868.95,823.3 877.05,813.6 884.8,803.45 904.85,777.3 922.35,748.35 937.4,716.75z"/>
    </g>
  </g>
  <g id="Calque.__208">
    <g id="shape7">
      <path id="path4" fill="#000000" fill-opacity="1" d="M671.05,687.1 Q721.6,645.75 714.7,587.25 C710.1,548.25 687.7,514.95 647.5,487.35 607.25,459.8 561.05,446.05 508.8,446.05 456.55,446.05 413.55,459.8 379.9,487.35 351.5,510.6 336.7,537.9 335.5,569.2 L409.05,569.2 330,734.05 C428.05,730.3 498.75,728.45 542.15,728.45 594.4,728.45 637.35,714.65 671.05,687.1z"/>
    </g>
  </g>
  <mask id="ico-shadow2">
    <g id="g">
      <g id="shape42">
        <path id="path36" fill="#FFFFFF" fill-opacity="1" d="M727.2,91.75 C718.5,87.4 709.35,83.1 699.95,79.05 691.35,75.3 682.8,71.85 674.05,68.65 631.95,52.9 589.8,43.3 547.6,40 478.2,34.4 408.65,45.4 338.7,73 315.25,82.3 293.05,92.9 272.1,104.9 230.8,128.6 194.5,157.55 163.6,191.6 Q112,248.2 79.05,324.15 C58.8,370.8 46.2,417.6 41.2,463.8 40.75,468.25 40.35,472.4 40,476.55 36.3,522.15 39.8,567.3 50.25,612.55 55.95,637.1 63.5,661.3 73,685.4 100.7,755.35 140.25,813.8 191.55,860.5 223,889.15 258.75,913.35 298.85,933.3 299,933.35 299.1,933.4 299.2,933.45 302.3,935 305.3,936.45 307.85,937.6 312.75,939.95 317.1,941.95 321.45,943.85 322.55,944.3 323.35,944.7 324.2,945.05 333.65,949.15 343.1,952.9 352.1,956.25 354.45,957.1 356.6,957.9 358.7,958.65 377.75,965.35 396.9,970.8 415.6,974.95 423.5,976.65 431.4,978.2 439.1,979.5 440.05,979.7 441.05,979.8 441.8,979.95 453.45,981.8 465,983.2 476.55,984.15 546.35,989.6 615.75,978.6 685.4,951.1 709.75,941.5 732.7,930.45 754.2,917.95 789.3,897.6 820.65,873.45 848.3,845.45 852.45,841.25 856.5,836.95 860.55,832.55 868.95,823.3 877.05,813.6 884.8,803.45 904.85,777.3 922.35,748.35 937.4,716.75 940,711.25 942.55,705.65 945.05,699.9 945.3,699.3 945.6,698.65 945.85,698.05 946,697.75 946.1,697.45 946.25,697.15 949.05,690.55 951.7,683.9 954.35,677.15 966,646.5 974.5,615.5 979.7,584.1 980.4,579.7 981.1,574.95 981.8,570.2 982.7,562.85 983.55,555.35 984.15,547.6 984.25,546.15 984.4,544.45 984.55,542.65 985.85,523.35 985.85,503.95 984.65,484.25 984.2,477.85 983.65,471.35 982.95,464.65 982.75,462.8 982.5,460.8 982.25,458.8 980.25,442.4 977.3,425.95 973.3,409.1 967.85,385.95 960.45,362.35 951.1,338.7 923.55,268.95 884.1,210.65 832.5,163.6 813.75,146.5 793.15,130.8 770.95,116.65 757.1,107.75 742.65,99.55 727.2,91.75z"/>
      </g>
    </g>
  </mask>
  <g id="masked" mask="url(#ico-shadow2)">
    <g id="Calque.__209">
      <g id="shape9">
        <path id="path5" fill="#F2663A" fill-opacity="1" d="M777.1,409.9 L783.8,434.8 C768.3,412.9 753.3,408.65 738.95,422 732.75,458.9 716.6,490.2 690.55,515.65 643.1,541.2 590.25,536 532.15,500.15 520.6,516.5 508.9,531.45 497.2,544.8 489,557.2 480.6,568.5 472.05,578.75 473.1,580.1 474,581.4 474.75,582.8 477.25,587.3 478.2,591.4 477.55,595.25 477,599.05 475.1,601.35 471.75,602.25 468.45,603.15 464.8,602.3 460.6,599.8 459.1,598.85 457.7,597.75 456.2,596.4 451,601.75 445.65,606.85 440.25,611.55 443.35,618.2 445,624 445.3,629.4 445.75,636.2 443.9,640.15 439.8,641.25 435.7,642.35 430.6,640.25 424.3,635 422.1,633.15 420,631.1 417.85,628.6 411.8,632.55 405.85,636.05 399.75,639.1 401.35,644 402.15,648.45 402.35,652.7 402.8,661.3 400.3,666.35 394.95,667.8 389.6,669.25 382.95,666.6 374.9,660.05 372,657.6 369.2,654.9 366.35,651.7 359.95,653.3 353.35,654.5 346.5,655.25 347.2,663.85 345,668.85 340,670.2 334.9,671.55 328.5,668.8 320.7,662 319,660.6 317.35,659 315.5,657.1 307.8,657.7 300,658.8 292.2,660.1 291.55,664.1 289.45,666.65 286.2,667.5 282.75,668.45 278.6,667.35 273.55,664.1 265.05,666.25 256.65,668.9 248.35,671.95 247.75,673.15 246.75,673.95 245.45,674.3 244.5,674.55 243.55,674.55 242.3,674.3 230.2,679.15 218.3,685.05 206.75,692 L251.35,811.1 C256.2,823.9 264.8,833.3 277.25,838.9 289.75,844.6 302.4,845 315.3,840.2 L509.15,783.6 535,776.1 684.05,732.6 701.35,727.5 C806.8,694.1 847.55,629.35 823.6,533.35 L777.75,410.55 C777.5,410.3 777.35,410.1 777.1,409.9z"/>
        <path id="path6" fill="#FFFFFF" fill-opacity="1" d="M310.15,637.55 C307.1,637.4 304.1,637.3 300.85,637.15 305.2,644.85 310.1,651.5 315.5,657.1 317.35,659 319,660.6 320.7,662 328.5,668.8 334.9,671.55 340,670.2 345,668.85 347.2,663.85 346.5,655.25 346.5,655.2 346.5,655.15 346.5,655.1 346.1,649.8 344.65,644.1 342.2,637.75 331.75,638.75 321,638.7 310.15,637.55z M253,640.65 C257.75,649.3 263.4,656.15 269.85,661.45 271.25,662.5 272.55,663.5 273.55,664.1 265.05,666.25 256.65,668.9 248.35,671.95 249.45,670 249.65,666.8 249,662.4 248.1,656.45 245.8,649.75 241.95,642.15 245.65,641.4 249.2,640.75 252.8,640.25 252.85,640.4 252.9,640.55 253,640.65z M252.8,640.25 C252.85,640.4 252.9,640.55 253,640.65 257.75,649.3 263.4,656.15 269.85,661.45 271.25,662.5 272.55,663.5 273.55,664.1 278.6,667.35 282.75,668.45 286.2,667.5 289.45,666.65 291.55,664.1 292.2,660.1 292.45,658.65 292.5,657.15 292.45,655.4 292.25,649.85 290.65,643.9 287.5,637.15 275.95,637.4 264.25,638.45 252.8,640.25z M248.35,671.95 C249.45,670 249.65,666.8 249,662.4 248.1,656.45 245.8,649.75 241.95,642.15 233.55,643.9 225.25,646.05 216.95,648.65 221.35,656.2 226.1,662.3 231.25,667.2 235.75,671.4 239.5,673.75 242.3,674.3 243.55,674.55 244.5,674.55 245.45,674.3 246.75,673.95 247.75,673.15 248.35,671.95z M468.3,574.8 C462.55,580.05 456.85,585.05 451.15,589.7 452.5,592.25 454.2,594.45 456.2,596.4 457.7,597.75 459.1,598.85 460.6,599.8 464.8,602.3 468.45,603.15 471.75,602.25 475.1,601.35 477,599.05 477.55,595.25 478.2,591.4 477.25,587.3 474.75,582.8 474,581.4 473.1,580.1 472.05,578.75 470.9,577.35 469.7,576 468.3,574.8z M468.3,574.8 C477.95,565.75 487.55,555.85 497.2,544.8 489,557.2 480.6,568.5 472.05,578.75 470.9,577.35 469.7,576 468.3,574.8z M434.85,601.85 C426.5,607.7 418.05,612.8 409.6,617.2 412.25,621.75 415,625.45 417.85,628.6 420,631.1 422.1,633.15 424.3,635 430.6,640.25 435.7,642.35 439.8,641.25 443.9,640.15 445.75,636.2 445.3,629.4 445,624 443.35,618.2 440.25,611.55 439.5,610.05 438.6,608.25 437.55,606.45 436.8,604.95 435.9,603.45 434.85,601.85z M434.85,601.85 C440.25,598.05 445.7,594 451.15,589.7 452.5,592.25 454.2,594.45 456.2,596.4 451,601.75 445.65,606.85 440.25,611.55 439.5,610.05 438.6,608.25 437.55,606.45 436.8,604.95 435.9,603.45 434.85,601.85z M417.85,628.6 C411.8,632.55 405.85,636.05 399.75,639.1 398.25,634.6 396.2,629.8 393.5,624.8 398.9,622.55 404.25,619.95 409.6,617.2 412.25,621.75 415,625.45 417.85,628.6z M399.75,639.1 C398.25,634.6 396.2,629.8 393.5,624.8 380.85,630.05 368.1,633.85 355.2,636 358.85,642.2 362.5,647.4 366.35,651.7 369.2,654.9 372,657.6 374.9,660.05 382.95,666.6 389.6,669.25 394.95,667.8 400.3,666.35 402.8,661.3 402.35,652.7 402.15,648.45 401.35,644 399.75,639.1z"/>
        <path id="path35" fill="#B25638" fill-opacity="1" d="M715.75,234.9 C715.45,234.7 715.2,234.55 714.95,234.4 703,227.55 690.35,225.85 677,229.4 L634,246 200.3,413.05 C187,416.6 176.85,424.4 169.95,436.4 163.05,448.3 161.4,461 164.95,474.3 L184.1,661.65 C194.85,656.45 205.85,652.1 216.95,648.65 225.25,646.05 233.55,643.9 241.95,642.15 245.65,641.4 249.2,640.75 252.8,640.25 264.25,638.45 275.95,637.4 287.5,637.15 292.1,637.1 296.6,637.1 300.85,637.15 304.1,637.3 307.1,637.4 310.15,637.55 321,638.7 331.75,638.75 342.2,637.75 346.7,637.3 350.95,636.75 355.2,636 368.1,633.85 380.85,630.05 393.5,624.8 398.9,622.55 404.25,619.95 409.6,617.2 418.05,612.8 426.5,607.7 434.85,601.85 440.25,598.05 445.7,594 451.15,589.7 456.85,585.05 462.55,580.05 468.3,574.8 477.95,565.75 487.55,555.85 497.2,544.8 508.9,531.45 520.6,516.5 532.15,500.15 590.25,536 643.1,541.2 690.55,515.65 716.6,490.2 732.75,458.9 738.95,422 753.3,408.65 768.3,412.9 783.8,434.8 L777.1,409.9 C777.35,410.1 777.5,410.3 777.75,410.55 L823.6,533.35 C847.55,629.35 806.8,694.1 701.35,727.5 L684.05,732.6 535,776.1 509.15,783.6 644.1,977.6 1000.3,793.25 1036,436.9 717.7,236.15 C717.15,235.75 716.6,235.4 716.1,235.15 715.95,235.05 715.85,235 715.75,234.9z"/>
      </g>
    </g>
  </g>
  <g id="Calque.__210">
    <g id="shape44">
      <path id="path37" fill="#000000" fill-opacity="0.2" d="M556.95,342.45 C558.55,349 561.65,354.4 566.4,359.15 573.2,366 581.5,369.45 591.15,369.45 600.75,369.45 609.05,366 615.9,359.15 Q626.15,348.95 626.15,334.4 C626.15,328.65 624.95,323.45 622.45,318.45 L556.95,342.45z"/>
    </g>
  </g>
  <g id="circle">
    <g id="shape46">
      <path id="path38" fill="#FFFFFF" fill-opacity="1" d="M552.25,331.25 C553.8,337.75 556.9,343.2 561.7,347.95 568.5,354.8 576.8,358.2 586.45,358.25 596.1,358.2 604.35,354.75 611.15,348 Q621.4,337.7 621.45,323.25 C621.4,317.5 620.25,312.2 617.75,307.3 L552.25,331.25z"/>
    </g>
  </g>
  <g id="Calque.__211">
    <g id="shape48">
      <path id="path39" fill="#000000" fill-opacity="0.4" d="M219.55,451.05 Q212.7,451.05 207.85,458.2 C204.65,463 203.05,468.8 203.05,475.55 203.05,482.3 204.65,488.1 207.85,492.85 211.1,497.65 215,500.05 219.55,500.05 224.1,500.05 228,497.65 231.2,492.85 234.45,488.1 236.05,482.3 236.05,475.55 236.05,468.8 234.45,463 231.2,458.2 228,453.45 224.1,451.05 219.55,451.05z"/>
    </g>
  </g>
</svg>