<?xml version="1.0" encoding="utf-8"?>
<!-- Generator: flash2svg, http://dissentgraphics.com/tools/flash2svg -->
<svg xmlns:xlink="http://www.w3.org/1999/xlink" id="Macvim" image-rendering="optimizeSpeed" baseProfile="basic" version="1.1" style="background-color:#ffffff" x="0px" y="0px" width="1024px" height="1024px" viewBox="0 0 1024 1024" enable-background="new 0 0 1024 1024" xmlns="http://www.w3.org/2000/svg">
  <defs transform="matrix(1 0 0 1 0 0) "/>
  <g id="shadow">
    <g id="shape">
      <path id="path" fill="#000000" fill-opacity="0.09803921568627451" d="M969.65,351.3 Q961.05,330.45 950.25,310.45 C946.2,302.9 941.9,295.4 937.35,288.05 917.8,256.35 893.95,226.4 865.8,198.25 773.65,106.1 662.35,60 532,60 401.65,60 290.4,106.1 198.25,198.25 106.1,290.4 60,401.65 60,532 60,662.35 106.1,773.65 198.25,865.8 290.4,957.95 401.65,1004 532,1004 662.35,1004 773.65,957.95 865.8,865.8 916.55,815 953.35,758.4 976.15,696.05 994.7,645.2 1004,590.55 1004,532 1004,487.1 998.55,444.45 987.6,404.05 986.35,399.5 985.05,394.95 983.7,390.45 979.6,377.15 974.9,364.1 969.65,351.3z"/>
    </g>
  </g>
  <g id="criclebg">
    <g id="shape2">
      <path id="path1" fill="#E6E6E6" fill-opacity="1" d="M958.55,354.65 C958.25,353.9 957.95,353 957.65,352.1 951.2,333.85 943.5,316.05 934.5,298.45 930.7,291.05 926.55,283.5 922.2,276.05 901.9,241.55 876.4,208.85 845.85,178.3 773.4,105.85 689.1,61.85 593.05,46.4 592.75,46.35 592.45,46.3 592.2,46.25 575.95,43.65 559.4,41.85 542.15,40.9 532.45,40.35 522.3,40.05 512.05,40.05 502.7,40.05 493.45,40.3 484.15,40.8 365.8,46.9 263.85,92.75 178.3,178.3 121.8,234.8 82.65,298.45 60.85,369 Q40.05,436.2 40.05,512.05 C40.05,642.4 86.15,753.7 178.3,845.85 226.35,893.85 279.6,929.4 337.4,952.15 343.85,954.75 350,957 356.2,959.1 396.7,972.95 439.25,981 484.15,983.35 484.3,983.35 484.4,983.35 484.55,983.35 493.05,983.8 501.15,984.05 509.05,984.05 510.25,984.05 511.15,984.05 512.05,984.05 522.35,984.05 532.55,983.75 542.15,983.25 544.65,983.1 546.9,982.95 549.1,982.8 569.3,981.35 589,978.75 607.8,975.1 615.75,973.55 623.6,971.8 631.2,969.95 695.9,953.7 754.55,924 807.35,880.8 820.6,869.9 833.4,858.3 845.85,845.85 894.45,797.25 930.25,743.35 953.2,684.05 957.15,673.8 960.75,663.4 963.95,652.9 975.65,614.25 982.25,573.5 983.75,530.55 983.95,524.5 984.05,518.3 984.05,512.05 984.05,511.4 984.05,510.7 984.05,510.05 984.05,509.7 984.05,509.4 984.05,509.05 983.85,468.4 979.1,429.55 969.75,392.05 968.65,387.7 967.4,383.05 966.1,378.45 963.85,370.6 961.35,362.65 958.55,354.65z"/>
    </g>
  </g>
  <g id="circle">
    <g id="shape4">
      <path id="path2" fill="#669900" fill-opacity="1" d="M791.8,791.8 Q907.7,675.95 907.7,512.05 C907.7,402.8 869.05,309.5 791.8,232.25 714.55,155 621.3,116.4 512.05,116.4 402.8,116.4 309.5,155 232.25,232.25 155,309.5 116.4,402.8 116.4,512.05 116.4,621.3 155,714.55 232.25,791.8 309.5,869.05 402.8,907.7 512.05,907.7 621.3,907.7 714.55,869.05 791.8,791.8z"/>
    </g>
  </g>
  <g id="Vshadow">
    <g id="shape6">
      <path id="path3" fill="#000000" fill-opacity="0.2" d="M907.7,512.05 C907.7,477.05 903.75,443.7 895.75,411.65 L895.725,411.625 L754.05,269.95 571.5,417.65 423.8,269.95 425.65,800.1 532.775,907.225 L532.8,907.25 C633.35,902.55 719.55,864.05 791.8,791.8 Q907.7,675.95 907.7,512.05z"/>
    </g>
  </g>
  <g id="V">
    <g id="shape8">
      <path id="path4" fill="#FFFFFF" fill-opacity="1" d="M661.6,325.1 L754.05,269.95 606.45,269.95 661.6,325.1z M363.25,330.55 L423.8,269.95 275.65,269.95 363.25,330.55z"/>
      <path id="path5" fill="#C4C4C4" fill-opacity="1" d="M754.05,269.95 L661.6,325.1 543.75,748.8 595.05,800.1 754.05,269.95z M423.8,269.95 L363.25,330.55 479.9,745.85 510.35,715.4 511.55,716.6 511.55,627.35 511.4,627.95 423.8,269.95z"/>
      <path id="path10" fill="#A4A4A4" fill-opacity="1" d="M511.55,716.6 L510.35,715.4 479.9,745.85 425.65,800.1 595.05,800.1 543.75,748.8 511.55,716.6z"/>
      <path id="path11" fill="#E6E6E6" fill-opacity="1" d="M511.55,716.6 L543.75,748.8 661.6,325.1 606.45,269.95 511.55,627.35 511.55,716.6z M363.25,330.55 L275.65,269.95 425.65,800.1 479.9,745.85 363.25,330.55z"/>
    </g>
  </g>
</svg>