
<svg xmlns="http://www.w3.org/2000/svg" version="1.1" xmlns:xlink="http://www.w3.org/1999/xlink" preserveAspectRatio="none" x="0px" y="0px" width="1024px" height="1024px" viewBox="0 0 1024 1024">
<defs>
<g id="Layer4_0_FILL">
<path fill="#000000" fill-opacity="0.09803921568627451" stroke="none" d="
M 969.6 351.25
Q 961 330.4 950.2 310.4 944.1 299.05 937.3 288 907.95 240.45 865.75 198.2 727.5 59.95 531.95 59.95 336.45 59.95 198.2 198.2 59.95 336.45 59.95 531.95 59.95 727.5 198.2 865.75 336.45 1003.95 531.95 1003.95 727.5 1003.95 865.75 865.75 941.9 789.55 976.1 696 1003.95 619.75 1003.95 531.95 1003.95 464.6 987.55 404 985.7 397.15 983.65 390.4 977.5 370.45 969.6 351.25 Z"/>
</g>

<g id="Layer3_0_FILL">
<path fill="#666666" stroke="none" d="
M 969.7 392
Q 967.95 385.15 966.05 378.4 964.52578125 373.114453125 962.85 367.85 960.3787109375 359.903125 957.6 352.05 947.85 324.5 934.45 298.4 928.65 287.05 922.15 276 891.5 224 845.8 178.25 736.8 69.25 592.15 46.2 567.65 42.3 542.1 40.85 527.2 40 512 40 497.9 40 484.1 40.75 306.55 49.95 178.25 178.25 40 316.5 40 512 40 707.55 178.25 845.8 263.0400390625 930.55703125 369.35 963.35 423.8880859375 980.1630859375 484.1 983.3 484.3 983.3 484.5 983.3 496.65 983.9 509 984 510.5 984 512 984 527.25 984 542.1 983.2 545.6 983 549.05 982.75 579.1 980.6 607.75 975.05 619.55 972.75 631.15 969.9 751.75 939.85 845.8 845.8 918.7 772.85 953.15 684 980.9 612.4 983.7 530.5 984 521.3 984 512 984 511 984 510 984 509.5 984 509 983.65 447.7 969.7 392 Z"/>
</g>

<g id="Layer2_0_FILL">
<path fill="#000000" fill-opacity="0.2" stroke="none" d="
M 953.15 684
Q 979.473046875 616.0818359375 983.35 538.9
L 744.1 299.65 289.2 735.35 537.3 983.45
Q 539.6990234375 983.329296875 542.1 983.2 545.6 983 549.05 982.75 579.1 980.6 607.75 975.05 619.55 972.75 631.15 969.9 751.75 939.85 845.8 845.8 918.7 772.85 953.15 684 Z"/>
</g>

<g id="Layer1_0_FILL">
<path fill="#9AB9F7" stroke="none" d="
M 512 512
L 512 196.2
Q 381.2 196.2 288.7 288.7 196.2 381.2 196.2 512
L 512 512 Z"/>

<path fill="#FFFFFF" stroke="none" d="
M 196.2 512
Q 196.2 642.8 288.7 735.3 381.2 827.8 512 827.8
L 512 512 196.2 512 Z"/>

<path fill="#7A92C3" stroke="none" d="
M 827.8 512
Q 827.8 381.2 735.3 288.7 642.8 196.2 512 196.2
L 512 512 827.8 512 Z"/>

<path fill="#D2D2D2" stroke="none" d="
M 735.3 735.3
Q 827.8 642.8 827.8 512
L 512 512 512 827.8
Q 642.8 827.8 735.3 735.3 Z"/>
</g>

<g id="Layer0_0_FILL">
<path fill="#333333" stroke="none" d="
M 362.1 510.9
Q 361 518.62265625 361 527 361 558.5 376.95 580.75 392.9 603 415.5 603 438.1 603 454.05 580.75 470 558.5 470 527 470 518.62265625 468.85 510.9
L 362.1 510.9
M 662.2 527
Q 662.2 518.62265625 661.05 510.9
L 554.3 510.9
Q 553.2 518.62265625 553.2 527 553.2 558.5 569.15 580.75 585.1 603 607.7 603 630.3 603 646.25 580.75 662.2 558.5 662.2 527 Z"/>
</g>

<path id="Layer1_0_1_STROKES" stroke="#BEA541" stroke-width="1" stroke-linejoin="round" stroke-linecap="round" fill="none" d="
M 827.8 512
L 848.9 512
M 175.95 512
L 196.2 512"/>

<path id="Layer0_0_1_STROKES" stroke="#333333" stroke-width="45" stroke-linejoin="round" stroke-linecap="round" fill="none" d="
M 363.5 640
Q 512 713.7220703125 660.5 640"/>
</defs>

<g transform="matrix( 1, 0, 0, 1, 0,0) ">
<use xlink:href="#Layer4_0_FILL"/>
</g>

<g transform="matrix( 1, 0, 0, 1, 0,0) ">
<use xlink:href="#Layer3_0_FILL"/>
</g>

<g transform="matrix( 1, 0, 0, 1, 0,0) ">
<use xlink:href="#Layer2_0_FILL"/>
</g>

<g transform="matrix( 1, 0, 0, 1, 0,0) ">
<use xlink:href="#Layer1_0_FILL"/>

<use xlink:href="#Layer1_0_1_STROKES"/>
</g>

<g transform="matrix( 1, 0, 0, 1, 0,0) ">
<use xlink:href="#Layer0_0_FILL"/>

<use xlink:href="#Layer0_0_1_STROKES"/>
</g>
</svg>
