<?xml version="1.0" encoding="utf-8"?>
<!-- Generator: flash2svg, http://dissentgraphics.com/tools/flash2svg -->
<svg xmlns:xlink="http://www.w3.org/1999/xlink" id="Handbrake" image-rendering="optimizeSpeed" baseProfile="basic" version="1.1" style="background-color:#ffffff" x="0px" y="0px" width="1024px" height="1024px" viewBox="0 0 1024 1024" enable-background="new 0 0 1024 1024" xmlns="http://www.w3.org/2000/svg">
  <defs transform="matrix(1 0 0 1 0 0) "/>
  <g id="shadow">
    <g id="shape">
      <path id="path" fill="#000000" fill-opacity="0.09803921568627451" d="M969.65,351.3 Q961.05,330.45 950.25,310.45 C946.2,302.9 941.9,295.4 937.35,288.05 917.8,256.35 893.95,226.4 865.8,198.25 773.65,106.1 662.35,60 532,60 401.65,60 290.4,106.1 198.25,198.25 106.1,290.4 60,401.65 60,532 60,662.35 106.1,773.65 198.25,865.8 290.4,957.95 401.65,1004 532,1004 662.35,1004 773.65,957.95 865.8,865.8 916.55,815 953.35,758.4 976.15,696.05 994.7,645.2 1004,590.55 1004,532 1004,487.1 998.55,444.45 987.6,404.05 986.35,399.5 985.05,394.95 983.7,390.45 979.6,377.15 974.9,364.1 969.65,351.3z"/>
    </g>
  </g>
  <g id="criclebg">
    <g id="shape2">
      <path id="path1" fill="#BD992A" fill-opacity="1" d="M845.8,178.3 C839.2,171.65 832.5,165.3 825.55,159.05 824.25,157.95 823,156.8 821.7,155.7 819,153.2 816.25,150.85 813.4,148.45 808.7,144.45 803.95,140.6 799.15,136.85 797.75,135.75 796.35,134.65 795.05,133.65 760.1,106.9 723,85.9 683.55,70.75 679.65,69.25 675.65,67.75 671.65,66.35 622.05,48.75 568.9,40 512.05,40.05 511.25,40.05 510.55,40.05 509.85,40.05 508.95,40.05 508.1,40 507.2,40.1 449.5,40.6 395.65,50.2 345.45,68.85 327.75,75.45 310.75,83.1 294.15,91.85 Q231.95,124.65 178.3,178.3 C89.55,267.05 43.5,373.55 40.25,497.3 40.15,500.85 40.05,504.05 40.05,507.25 40,508.1 40.05,508.95 40.05,509.9 40.05,510.6 40.05,511.3 40.05,512.05 40.05,569.15 48.9,622.6 66.35,671.65 67.85,675.75 69.25,679.65 70.75,683.55 72.95,689.25 75.1,694.5 77.4,699.75 80.1,706.15 82.85,712.05 85.75,717.95 99.05,745.1 115.1,770.9 133.65,795.05 134.85,796.6 135.85,797.85 136.85,799.15 144,808.3 151.4,816.95 159.05,825.55 159.15,825.65 159.25,825.75 159.35,825.85 165.05,832.15 170.6,838.05 176.15,843.65 177,844.5 177.65,845.15 178.3,845.8 178.45,845.95 178.65,846.15 178.8,846.3 185.5,853 192.3,859.4 199.15,865.65 199.5,865.9 199.8,866.2 200.15,866.5 202.05,868.15 203.75,869.6 205.4,871.1 213.2,877.85 221.1,884.3 229,890.4 235.25,895.15 241.5,899.7 247.8,904.05 249.35,905.15 250.85,906.15 252.35,907.15 259.05,911.65 265.85,916 272.55,920.05 298.1,935.35 324.7,947.9 352.35,957.8 359.7,960.35 367,962.7 374.4,964.95 401.85,973.05 430.5,978.6 460.15,981.6 477.2,983.25 494.45,984.1 512.05,984.05 513.6,984.1 515.2,984.05 516.7,984.1 517.65,984.1 518.55,984.05 519.45,984.05 521.9,984 524.35,983.95 526.85,983.9 556.55,983.05 585.1,979.8 612.65,974.15 643.8,967.8 673.75,958.2 702.4,945.55 712.4,941.1 722.3,936.3 732,931.15 767.6,912.1 801.05,887.95 832.55,858.6 836.9,854.5 841.4,850.2 845.8,845.8 846.3,845.35 846.75,844.85 847.25,844.35 847.5,844.15 847.7,843.9 847.95,843.65 876.55,814.75 900.65,783.95 920.55,750.8 922.85,746.95 925.25,742.75 927.6,738.6 931.55,731.45 935.4,724.1 939.05,716.45 939.4,715.7 939.85,714.8 940.25,714 945.7,702.5 950.7,690.8 955.25,678.65 957.6,672.4 959.75,666.1 961.8,659.7 964.35,651.75 966.75,643.5 968.95,635.15 978.4,598.8 983.45,560.25 984,519.5 984,518.6 984.05,517.65 984.05,516.75 984.1,515.15 984.1,513.6 984.05,512.05 984.1,463.45 977.7,417.6 964.9,374.4 962.7,367.1 960.4,359.9 957.75,352.35 944.8,315.7 926.9,280.7 904.1,247.75 902.3,245.2 900.45,242.65 898.6,240 898.4,239.8 898.25,239.55 898.1,239.3 895.6,235.9 893,232.5 890.4,229 887.9,225.8 885.3,222.5 882.65,219.2 880.4,216.4 878.1,213.6 875.6,210.7 872.75,207.25 869.7,203.65 866.45,200.15 866.2,199.8 865.9,199.5 865.6,199.2 859.45,192.25 853,185.5 846.3,178.8 846.15,178.65 845.95,178.45 845.8,178.3z"/>
    </g>
  </g>
  <mask id="criclebg1">
    <g id="g">
      <g id="shape10">
        <path id="path6" fill="#FFFFFF" fill-opacity="1" d="M846.3,178.8 C846.15,178.65 845.95,178.45 845.8,178.3 839.2,171.65 832.5,165.3 825.55,159.05 824.25,157.95 823,156.8 821.7,155.7 819,153.2 816.25,150.85 813.4,148.45 808.7,144.45 803.95,140.6 799.15,136.85 797.75,135.75 796.35,134.65 795.05,133.65 760.1,106.9 723,85.9 683.55,70.75 679.65,69.25 675.65,67.75 671.65,66.35 622.05,48.75 568.9,40 512.05,40.05 511.25,40.05 510.55,40.05 509.85,40.05 508.95,40.05 508.1,40 507.2,40.1 449.5,40.6 395.65,50.2 345.45,68.85 327.75,75.45 310.75,83.1 294.15,91.85 Q231.95,124.65 178.3,178.3 C89.55,267.05 43.5,373.55 40.25,497.3 40.15,500.85 40.05,504.05 40.05,507.25 40,508.1 40.05,508.95 40.05,509.9 40.05,510.6 40.05,511.3 40.05,512.05 40.05,569.15 48.9,622.6 66.35,671.65 67.85,675.75 69.25,679.65 70.75,683.55 72.95,689.25 75.1,694.5 77.4,699.75 80.1,706.15 82.85,712.05 85.75,717.95 99.05,745.1 115.1,770.9 133.65,795.05 134.85,796.6 135.85,797.85 136.85,799.15 144,808.3 151.4,816.95 159.05,825.55 159.15,825.65 159.25,825.75 159.35,825.85 165.05,832.15 170.6,838.05 176.15,843.65 177,844.5 177.65,845.15 178.3,845.8 178.45,845.95 178.65,846.15 178.8,846.3 185.5,853 192.3,859.4 199.15,865.65 199.5,865.9 199.8,866.2 200.15,866.5 202.05,868.15 203.75,869.6 205.4,871.1 213.2,877.85 221.1,884.3 229,890.4 235.25,895.15 241.5,899.7 247.8,904.05 249.35,905.15 250.85,906.15 252.35,907.15 259.05,911.65 265.85,916 272.55,920.05 298.1,935.35 324.7,947.9 352.35,957.8 359.7,960.35 367,962.7 374.4,964.95 401.85,973.05 430.5,978.6 460.15,981.6 477.2,983.25 494.45,984.1 512.05,984.05 513.6,984.1 515.2,984.05 516.7,984.1 517.65,984.1 518.55,984.05 519.45,984.05 521.9,984 524.35,983.95 526.85,983.9 556.55,983.05 585.1,979.8 612.65,974.15 643.8,967.8 673.75,958.2 702.4,945.55 712.4,941.1 722.3,936.3 732,931.15 767.6,912.1 801.05,887.95 832.55,858.6 836.9,854.5 841.4,850.2 845.8,845.8 846.3,845.35 846.75,844.85 847.25,844.35 847.5,844.15 847.7,843.9 847.95,843.65 876.55,814.75 900.65,783.95 920.55,750.8 922.85,746.95 925.25,742.75 927.6,738.6 931.55,731.45 935.4,724.1 939.05,716.45 939.4,715.7 939.85,714.8 940.25,714 945.7,702.5 950.7,690.8 955.25,678.65 957.6,672.4 959.75,666.1 961.8,659.7 964.35,651.75 966.75,643.5 968.95,635.15 978.4,598.8 983.45,560.25 984,519.5 984,518.6 984.05,517.65 984.05,516.75 984.1,515.15 984.1,513.6 984.05,512.05 984.1,463.45 977.7,417.6 964.9,374.4 962.7,367.1 960.4,359.9 957.75,352.35 944.8,315.7 926.9,280.7 904.1,247.75 902.3,245.2 900.45,242.65 898.6,240 898.4,239.8 898.25,239.55 898.1,239.3 895.6,235.9 893,232.5 890.4,229 887.9,225.8 885.3,222.5 882.65,219.2 880.4,216.4 878.1,213.6 875.6,210.7 872.75,207.25 869.7,203.65 866.45,200.15 866.2,199.8 865.9,199.5 865.6,199.2 859.45,192.25 853,185.5 846.3,178.8z"/>
      </g>
    </g>
  </mask>
  <g id="masked" mask="url(#criclebg1)">
    <g id="Calque.__202">
      <g id="shape4">
        <path id="path2" fill="#FFFFFF" fill-opacity="0.6" d="M883.7,576.8 C883.7,499.15 854.4,431.7 795.8,374.5 L228.35,374.45 C169.7,431.7 140.4,499.15 140.4,576.8 140.4,663.2 176.7,736.95 249.25,798.05 303.2,843.5 365.5,872.05 436.05,883.7 467,953.05 467,1017.15 436.05,1076.05 L588.05,1076.05 C547.45,1017 547.45,952.85 588.05,883.7 658.6,872.05 720.9,843.5 774.85,798.05 847.4,736.95 883.7,663.2 883.7,576.8z"/>
        <path id="path3" fill="#FF9900" fill-opacity="1" d="M817.05,584.05 Q817.05,572.2 815.95,560.75 C797.2,570.75 781.2,572.75 703.05,529.05 656.4,503.1 640.6,509.8 554,543.15 477.75,572.75 436.65,587.8 399.05,569.05 351.5,545.3 293.8,582.7 240.05,580.05 228.4,579.7 217.45,577.55 207.3,573.7 207.15,577.15 207.05,580.6 207.05,584.05 207.05,634.4 222.05,679.5 252.1,719.4 291.55,726.3 402.95,702.7 505.05,686.4 668.05,659.9 732.3,714.1 760.1,734.1 798.05,690.65 817.05,640.65 817.05,584.05z"/>
        <path id="path4" fill="#C55136" fill-opacity="1" d="M554,543.15 C640.6,509.8 656.4,503.1 703.05,529.05 781.2,572.75 797.2,570.75 815.95,560.75 810.6,505.5 785.95,457 742.05,415.25 L282.05,415.25 C234.7,460.25 209.8,513.05 207.3,573.7 217.45,577.55 228.4,579.7 240.05,580.05 293.8,582.7 351.5,545.3 399.05,569.05 436.65,587.8 477.75,572.75 554,543.15z"/>
        <path id="path5" fill="#FFCC00" fill-opacity="1" d="M760.1,734.1 C732.3,714.1 668.05,659.9 505.05,686.4 402.95,702.7 291.55,726.3 252.1,719.4 264.35,735.7 279.1,751.1 296.35,765.65 355.9,815.8 427.8,840.85 512.05,840.85 596.3,840.85 668.2,815.8 727.75,765.65 739.75,755.55 750.55,745.05 760.1,734.1z"/>
      </g>
    </g>
  </g>
  <g id="Calque.__203">
    <g id="shape12">
      <path id="path7" fill="#FFCC33" fill-opacity="1" d="M362.55,317.85 Q355.3,307.85 343,305.9 C334.75,304.6 327.3,306.4 320.65,311.25 L313,316.85 288.75,334.5 281.05,340.1 C274.35,344.95 270.35,351.5 269.1,359.7 267.85,367.9 269.6,375.35 274.45,382 L283.9,394.95 C288.75,401.65 295.3,405.65 303.45,406.95 311.65,408.2 319.1,406.4 325.8,401.55 L333.5,395.95 357.7,378.3 365.4,372.7 C372.05,367.85 376.05,361.3 377.35,353.15 378.65,344.95 376.85,337.5 372,330.8 L362.55,317.85z"/>
      <path id="path8" fill="#003366" fill-opacity="1" d="M357.7,378.3 L333.5,395.95 347.6,415.3 384.65,415.3 357.7,378.3z M288.75,334.5 L313,316.85 297.6,295.7 C294.65,299.65 291.05,303.15 286.75,306.3 282.45,309.45 278,311.8 273.35,313.35 L288.75,334.5z"/>
      <path id="path9" fill="#FF6666" fill-opacity="1" d="M297.6,295.7 C302.15,289.55 305.05,282.45 306.3,274.3 308.4,260.95 305.45,248.8 297.5,237.85 289.55,226.9 278.85,220.4 265.5,218.3 252.15,216.2 240,219.15 229.05,227.1 218.1,235.05 211.6,245.75 209.45,259.1 207.35,272.45 210.3,284.55 218.25,295.5 226.2,306.45 236.9,312.95 250.25,315.1 258.4,316.35 266.1,315.8 273.35,313.35 278,311.8 282.45,309.45 286.75,306.3 291.05,303.15 294.65,299.65 297.6,295.7z"/>
    </g>
  </g>
  <g id="Calque.__204">
    <g id="Symbole.__2038_1" overflow="visible">
      <g id="Calque.__207">
        <g id="shape35">
          <path id="path25" fill="#339900" fill-opacity="1" d="M756.65,170.75 L756.7,170.6 513.3,245.8 592.7,267.05 756.65,170.75z M756.6,171.05 L756.65,170.75 657.85,284.55 707.125,297.725 707.325,297.775 721.6,301.6 756.6,171.05z M779.55,317.15 L845.7,334.85 756.6,171.05 779.55,317.15z"/>
          <path id="path26" fill="#2A8000" fill-opacity="1" d="M592.7,267.05 L657.85,284.55 756.65,170.75 592.7,267.05z M756.7,170.6 L756.65,170.75 756.6,171.05 845.7,334.85 929.95,357.45 756.7,170.6z M721.6,301.6 L736.1,305.5 779.55,317.15 756.6,171.05 721.6,301.6z"/>
          <path id="path27" fill="#AF5700" fill-opacity="1" d="M736.1,305.5 L721.6,301.6 707.325,297.775 731.65,322.1 736.1,305.5z"/>
          <path id="path28" fill="#CC6600" fill-opacity="1" d="M707.325,297.775 L707.125,297.725 675.65,415.2 706.7,415.2 731.65,322.1 707.325,297.775z"/>
        </g>
      </g>
    </g>
  </g>
  <g id="Calque.__205">
    <g id="shape19">
      <path id="path12" fill="#FFFFFF" fill-opacity="1" d="M288.8,484.3 Q281.3,453.8 260.5,448.25 C246.65,444.55 232.5,450.25 217.95,465.3 203.45,480.45 192.85,500.55 186.15,525.65 179.4,550.7 178.55,573.4 183.55,593.7 188.6,614.1 198,626.15 211.85,629.85 225.7,633.55 239.9,627.85 254.4,612.7 268.95,597.6 279.55,577.5 286.3,552.45 293,527.35 293.85,504.65 288.8,484.3z"/>
    </g>
  </g>
</svg>