<?xml version="1.0" encoding="utf-8"?>
<!-- Generator: flash2svg, http://dissentgraphics.com/tools/flash2svg -->
<svg xmlns:xlink="http://www.w3.org/1999/xlink" id="Sequel-Pro" image-rendering="optimizeSpeed" baseProfile="basic" version="1.1" style="background-color:#ffffff" x="0px" y="0px" width="1024px" height="1024px" viewBox="0 0 1024 1024" enable-background="new 0 0 1024 1024" xmlns="http://www.w3.org/2000/svg">
  <defs transform="matrix(1 0 0 1 0 0) "/>
  <g id="shadow">
    <g id="shape">
      <path id="path" fill="#000000" fill-opacity="0.09803921568627451" d="M969.65,351.3 Q961.05,330.45 950.25,310.45 C946.2,302.9 941.9,295.4 937.35,288.05 917.8,256.35 893.95,226.4 865.8,198.25 773.65,106.1 662.35,60 532,60 401.65,60 290.4,106.1 198.25,198.25 106.1,290.4 60,401.65 60,532 60,662.35 106.1,773.65 198.25,865.8 290.4,957.95 401.65,1004 532,1004 662.35,1004 773.65,957.95 865.8,865.8 916.55,815 953.35,758.4 976.15,696.05 994.7,645.2 1004,590.55 1004,532 1004,487.1 998.55,444.45 987.6,404.05 986.35,399.5 985.05,394.95 983.7,390.45 979.6,377.15 974.9,364.1 969.65,351.3z"/>
    </g>
  </g>
  <g id="ico">
    <g id="shape2">
      <path id="path1" fill="#333333" fill-opacity="1" d="M727.2,91.75 C718.5,87.4 709.35,83.1 699.95,79.05 691.35,75.3 682.8,71.85 674.05,68.65 631.95,52.9 589.8,43.3 547.6,40 478.2,34.4 408.65,45.4 338.7,73 315.25,82.3 293.05,92.9 272.1,104.9 230.8,128.6 194.5,157.55 163.6,191.6 129.1,229.55 100.95,273.65 79.05,324.15 58.8,370.8 46.2,417.6 41.2,463.8 40.75,468.25 40.35,472.4 40,476.55 36.3,522.15 39.8,567.3 50.25,612.55 55.95,637.1 63.5,661.3 73,685.4 100.7,755.35 140.25,813.8 191.55,860.5 223,889.15 258.75,913.35 298.85,933.3 299,933.35 299.1,933.4 299.2,933.45 302.3,935 305.3,936.45 307.85,937.6 312.75,939.95 317.1,941.95 321.45,943.85 Q322.8,944.45 324.2,945.05 C333.65,949.15 343.1,952.9 352.1,956.25 354.45,957.1 356.6,957.9 358.7,958.65 377.75,965.35 396.9,970.8 415.6,974.95 423.5,976.65 431.4,978.2 439.1,979.5 440.05,979.7 441.05,979.8 441.8,979.95 453.45,981.8 465,983.2 476.55,984.15 515.8,987.2 554.95,985.05 593.85,977.85 624.5,972 654.95,963.15 685.4,951.1 709.75,941.5 732.7,930.45 754.2,917.95 789.3,897.6 820.65,873.45 848.3,845.45 852.45,841.25 856.5,836.95 860.55,832.55 868.95,823.3 877.05,813.6 884.8,803.45 904.85,777.3 922.35,748.35 937.4,716.75 940,711.25 942.55,705.65 945.05,699.9 945.3,699.3 945.6,698.65 945.85,698.05 946,697.75 946.1,697.45 946.25,697.15 949.05,690.55 951.7,683.9 954.35,677.15 966,646.5 974.5,615.5 979.7,584.1 980.4,579.7 981.1,574.95 981.8,570.2 982.7,562.85 983.55,555.35 984.15,547.6 984.25,546.15 984.4,544.45 984.55,542.65 985.15,533.7 985.5,524.7 985.6,515.6 985.6,505.25 985.3,494.8 984.65,484.25 984.2,477.85 983.65,471.35 982.95,464.65 982.75,462.8 982.5,460.8 982.25,458.8 980.25,442.4 977.3,425.95 973.3,409.1 967.85,385.95 960.45,362.35 951.1,338.7 923.55,268.95 884.1,210.65 832.5,163.6 813.75,146.5 793.15,130.8 770.95,116.65 757.1,107.75 742.65,99.55 727.2,91.75z"/>
    </g>
  </g>
  <g id="ico-shadow">
    <g id="shape4">
      <path id="path2" fill="#000000" fill-opacity="0.2" d="M937.4,716.75 C940,711.25 942.55,705.65 945.05,699.9 945.3,699.3 945.6,698.65 945.85,698.05 946,697.75 946.1,697.45 946.25,697.15 949.05,690.55 951.7,683.9 954.35,677.15 966,646.5 974.5,615.5 979.7,584.1 980.4,579.7 981.1,574.95 981.8,570.2 982.7,562.85 983.55,555.35 984.15,547.6 984.25,546.15 984.4,544.45 984.55,542.65 985.15,533.7 985.5,524.7 985.6,515.6 Q985.611,512.058 985.575,508.525 L811.825,334.775 222.675,659.575 547.2,984.1 C563.1,982.75 578.5,980.7 593.85,977.85 624.5,972 654.95,963.15 685.4,951.1 709.75,941.5 732.7,930.45 754.2,917.95 789.3,897.6 820.65,873.45 848.3,845.45 852.45,841.25 856.5,836.95 860.55,832.55 868.95,823.3 877.05,813.6 884.8,803.45 904.85,777.3 922.35,748.35 937.4,716.75z"/>
    </g>
  </g>
  <g id="Symbole.__2017">
    <g id="shape6">
      <path id="path3" fill="#E4AE33" fill-opacity="1" d="M796.1,319.05 C796.05,319 796.05,319 796,319 L796,318.95 C793.75,317.3 791.35,315.85 788.9,314.5 L788.85,314.5 C785.9,312.9 782.85,311.55 779.6,310.4 777.35,309.45 774.85,308.7 772.2,308.25 L328.95,189.5 C311.5,184.8 294.95,186.95 279.3,195.9 279.15,196 279.05,196.1 278.95,196.15 278.75,196.2 278.6,196.3 278.45,196.4 263.25,205.5 253.35,218.6 248.75,235.75 L248.75,235.65 C248.6,236.1 248.5,236.6 248.4,237.15 L167.05,540.9 C166.95,541.15 166.85,541.45 166.75,541.8 165.7,545.7 165.3,549.65 165.6,553.65 L167.05,573.2 C167.05,573.25 167.05,573.35 167.05,573.45 L167.05,573.6 C167.35,577.5 168.3,581.3 169.95,585 170.05,585.25 170.15,585.5 170.3,585.75 170.6,586.45 170.95,587.15 171.3,587.9 171.4,588.15 171.5,588.4 171.65,588.65 171.7,588.7 171.7,588.8 171.75,588.85 L172.55,590.35 C173,591.2 173.5,592.05 174.05,592.9 174.05,592.95 174.05,592.95 174.1,593 L174.15,593 174.3,593.3 C174.4,593.45 174.5,593.6 174.65,593.8 174.7,593.85 174.7,593.9 174.75,593.95 L174.75,594 174.9,594.15 C174.95,594.2 174.95,594.2 174.95,594.25 176.25,596.3 177.65,598.3 179.1,600.15 L209.95,646.85 C210.6,647.9 211.3,648.9 211.95,649.9 L211.9,649.75 C212.55,650.7 213.25,651.7 214.1,652.75 222.75,663.95 234.25,671.45 248.5,675.25 248.75,675.3 249,675.4 249.25,675.45 L280.55,683.85 C294.9,686.2 294.9,738.25 280.55,840.05 280.55,849.3 283.8,857.2 290.35,863.75 296.9,870.3 304.8,873.55 314.05,873.55 323.3,873.55 331.2,870.3 337.75,863.75 344.3,857.2 347.55,849.3 347.55,840.05 334.8,744.6 334.8,698.5 347.55,701.8 L436.55,725.65 C446.85,726.1 446.85,760.25 436.55,828.05 436.55,837.3 439.8,845.2 446.35,851.75 452.9,858.3 460.8,861.55 470.05,861.55 479.3,861.55 487.2,858.3 493.75,851.75 500.3,845.2 503.55,837.3 503.55,828.05 490.7,766.7 490.7,738.55 503.55,743.6 L694,794.6 C711,799.2 727.2,797.25 742.55,788.7 742.6,788.65 742.6,788.65 742.65,788.65 743,788.45 743.35,788.25 743.7,788.1 L743.75,788.1 C759.4,779.05 769.6,765.8 774.25,748.35 L774.25,748.5 C774.35,747.95 774.45,747.45 774.6,747 L855.85,443.6 C856,443.15 856.15,442.65 856.25,442.15 L856.2,442.25 C860.6,425.75 858.9,410 851.15,395.05 851.15,394.95 851.1,394.85 851.05,394.8 850.9,394.6 850.8,394.4 850.65,394.2 L850.6,394.1 850.55,394.05 850.6,394.05 850.55,394 C850.5,393.95 850.45,393.85 850.4,393.8 850.4,393.75 850.4,393.7 850.4,393.65 850.15,393.25 849.95,392.85 849.7,392.45 849.6,392.25 849.5,392.05 849.35,391.9 847.7,389.15 845.95,386.6 844.1,384.25 L815.65,341.8 815.6,341.75 C815.55,341.65 815.55,341.55 815.5,341.5 L815.45,341.4 C815.35,341.25 815.25,341.15 815.2,341 814.35,339.25 813.3,337.6 812.15,336 812.1,335.95 812.05,335.9 812.05,335.85 811.95,335.7 811.85,335.6 811.7,335.45 L808.15,330.6 C808.1,330.5 808,330.4 807.95,330.35 807.9,330.3 807.9,330.25 807.85,330.2 807.5,329.75 807.15,329.3 806.8,328.85 806.7,328.8 806.6,328.7 806.55,328.6 806.5,328.5 806.4,328.45 806.35,328.4 806.25,328.25 806.2,328.15 806.15,328.1 805.9,327.85 805.7,327.65 805.55,327.45 L805.55,327.4 C805.3,327.15 805.1,326.95 804.95,326.7 804.9,326.65 804.85,326.65 804.8,326.6 804.15,325.9 803.45,325.25 802.7,324.6 802.65,324.55 802.65,324.55 802.6,324.5 802.45,324.4 802.35,324.3 802.3,324.2 802.2,324.15 802.1,324.05 802.05,324 L798.5,320.95 C798.45,320.9 798.45,320.9 798.4,320.85 L798.4,320.8 C798.35,320.8 798.35,320.8 798.35,320.75 798.25,320.7 798.15,320.7 798.1,320.65 798.05,320.6 798.05,320.55 798,320.5 797.85,320.35 797.7,320.25 797.6,320.2 797.3,319.95 797,319.75 796.75,319.55 Q796.6,319.45 796.5,319.35 C796.45,319.3 796.45,319.3 796.4,319.25 796.35,319.2 796.35,319.2 796.3,319.15 796.25,319.15 796.25,319.15 796.2,319.15 796.15,319.1 796.1,319.1 796.1,319.05z"/>
    </g>
  </g>
  <g id="circle">
    <g id="Symbole.__2018_1" overflow="visible">
      <g id="Calque.__205">
        <g id="shape17">
          <path id="path10" fill="#E7CC5F" fill-opacity="1" d="M784.964,359.692 C784.787,359.293 784.61,358.939 784.388,358.584 787.843,365.361 788.552,372.449 786.559,379.846 L704.569,685.967 C702.399,693.984 697.748,700.052 690.528,704.172 683.308,708.38 675.733,709.399 667.716,707.228 L222.111,587.854 C216.22,586.303 211.392,583.336 207.582,579.039 L239.563,627.453 C240.095,628.295 240.626,629.137 241.202,629.934 241.246,630.022 241.335,630.111 241.424,630.2 245.454,635.604 250.814,639.191 257.547,641.008 L703.152,760.382 C711.169,762.552 718.744,761.533 725.964,757.325 733.184,753.206 737.835,747.138 740.005,739.12 L821.995,432.999 C824.032,425.425 823.279,418.249 819.691,411.384 819.47,410.985 819.204,410.542 818.983,410.143 817.964,408.372 816.812,406.777 815.572,405.315 L784.964,359.692z"/>
          <path id="path11" fill="#FDFBB0" fill-opacity="1" d="M779.649,351.608 Q779.271,351.193 778.874,350.788 L775.352,347.732 C774.289,346.979 773.182,346.27 772.03,345.65 769.993,344.543 767.778,343.701 765.43,343.037 765.386,342.992 765.342,342.992 765.297,342.992 L597.066,297.923 L597.066,297.945 C559.15,372.537 473.307,398.45 339.536,375.638 294.179,367.886 260.072,381.175 237.171,415.459 L237.149,415.459 L200.85,551.001 202.311,570.8 C202.533,571.288 202.754,571.775 203.02,572.262 L202.998,572.24 L203.817,573.768 C203.862,573.812 203.862,573.901 203.906,573.945 203.95,573.99 203.95,573.99 203.995,574.034 203.995,574.078 203.995,574.122 204.039,574.167 205.102,575.983 206.298,577.577 207.582,579.039 211.392,583.336 216.22,586.303 222.111,587.854 L667.716,707.228 C675.733,709.399 683.308,708.38 690.528,704.172 697.748,700.052 702.399,693.984 704.569,685.967 L786.559,379.846 C788.552,372.449 787.843,365.361 784.388,358.584 784.123,358.053 783.857,357.521 783.547,356.99 783.503,356.945 783.503,356.901 783.503,356.857 L783.48,356.857 L779.649,351.608z"/>
          <path id="path12" fill="#F8BB36" fill-opacity="1" d="M319.692,223.618 C311.675,221.448 304.056,222.467 296.836,226.586 289.661,230.794 285.01,236.862 282.839,244.88 L237.149,415.459 L237.171,415.459 C260.072,381.175 294.179,367.886 339.536,375.638 473.307,398.45 559.15,372.537 597.066,297.945 L597.066,297.923 L319.692,223.618z"/>
        </g>
      </g>
    </g>
  </g>
  <g id="Calque.__203">
    <g id="shape8">
      <path id="path4" fill="#FFFFFF" fill-opacity="1" d="M329,271.85 Q338.65,262.2 338.65,248.55 C338.65,239.45 335.45,231.7 329,225.25 322.55,218.8 314.8,215.6 305.7,215.6 296.6,215.6 288.85,218.8 282.4,225.25 275.95,231.7 272.75,239.45 272.75,248.55 272.75,257.65 275.95,265.4 282.4,271.85 288.85,278.3 296.6,281.5 305.7,281.5 314.8,281.5 322.55,278.3 329,271.85z M270.55,290.05 C267.1,290.05 264.15,291.25 261.7,293.7 259.25,296.15 258.05,299.1 258.05,302.55 258.05,306 259.25,308.95 261.7,311.4 264.15,313.85 267.1,315.05 270.55,315.05 274,315.05 276.95,313.85 279.4,311.4 281.85,308.95 283.05,306 283.05,302.55 283.05,299.1 281.85,296.15 279.4,293.7 276.95,291.25 274,290.05 270.55,290.05z"/>
    </g>
  </g>
</svg>