<?xml version="1.0" encoding="utf-8"?>
<!-- Generator: flash2svg, http://dissentgraphics.com/tools/flash2svg -->
<svg xmlns:xlink="http://www.w3.org/1999/xlink" id="Ms-OneNote" image-rendering="optimizeSpeed" baseProfile="basic" version="1.1" style="background-color:#ffffff" x="0px" y="0px" width="1024px" height="1024px" viewBox="0 0 1024 1024" enable-background="new 0 0 1024 1024" xmlns="http://www.w3.org/2000/svg">
  <defs transform="matrix(1 0 0 1 0 0) "/>
  <g id="shadow">
    <g id="shape">
      <path id="path" fill="#000000" fill-opacity="0.09803921568627451" d="M969.65,351.3 Q961.05,330.45 950.25,310.45 C946.2,302.9 941.9,295.4 937.35,288.05 917.8,256.35 893.95,226.4 865.8,198.25 773.65,106.1 662.35,60 532,60 401.65,60 290.4,106.1 198.25,198.25 106.1,290.4 60,401.65 60,532 60,662.35 106.1,773.65 198.25,865.8 290.4,957.95 401.65,1004 532,1004 662.35,1004 773.65,957.95 865.8,865.8 916.55,815 953.35,758.4 976.15,696.05 994.7,645.2 1004,590.55 1004,532 1004,487.1 998.55,444.45 987.6,404.05 986.35,399.5 985.05,394.95 983.7,390.45 979.6,377.15 974.9,364.1 969.65,351.3z"/>
    </g>
  </g>
  <g id="circle">
    <g id="shape2">
      <path id="path1" fill="#8A3D85" fill-opacity="1" d="M966.1,378.45 C963.6,369.7 960.75,360.85 957.65,352.1 951.2,333.85 943.5,316.05 934.5,298.45 930.7,291.05 926.55,283.5 922.2,276.05 901.9,241.55 876.4,208.85 845.85,178.3 773.25,105.7 688.7,61.65 592.2,46.25 575.95,43.65 559.4,41.85 542.15,40.9 532.45,40.35 522.3,40.05 512.05,40.05 502.7,40.05 493.45,40.3 484.15,40.8 365.8,46.9 263.85,92.75 178.3,178.3 Q40.05,316.55 40.05,512.05 C40.05,642.4 86.15,753.7 178.3,845.85 263.85,931.35 365.8,977.2 484.15,983.35 484.3,983.35 484.4,983.35 484.55,983.35 487.95,983.55 491.3,983.7 494.15,983.75 499.5,983.95 504.3,984.05 509.05,984.05 510.25,984.05 511.15,984.05 512.05,984.05 522.35,984.05 532.55,983.75 542.15,983.25 544.65,983.1 546.9,982.95 549.1,982.8 569.3,981.35 589,978.75 607.8,975.1 615.75,973.55 623.6,971.8 631.2,969.95 632.15,969.7 633.1,969.45 633.85,969.3 713.7,948.65 784.1,907.6 845.85,845.85 894.45,797.25 930.25,743.35 953.2,684.05 959.85,666.9 965.45,649.25 970,631.05 977.95,599.05 982.55,565.55 983.75,530.55 983.95,524.5 984.05,518.3 984.05,512.05 984.05,511.4 984.05,510.7 984.05,510.05 984.05,509.7 984.05,509.4 984.05,509.05 984,501.85 983.8,494.75 983.5,487.45 982,454.7 977.45,422.9 969.75,392.05 968.65,387.7 967.4,383.05 966.1,378.45z"/>
    </g>
  </g>
  <g id="ico-shadow">
    <g id="shape4">
      <path id="path2" fill="#000000" fill-opacity="0.2" d="M953.2,684.05 C959.85,666.9 965.45,649.25 970,631.05 L969.975,631.025 Q978.581,596.463 981.925,559.725 L702.8,280.6 612.15,440.05 446.15,274.05 323.25,757.15 548.925,982.825 L548.95,982.85 C549,982.8 549.05,982.8 549.1,982.8 569.3,981.35 589,978.75 607.8,975.1 615.75,973.55 623.6,971.8 631.2,969.95 632.15,969.7 633.1,969.45 633.85,969.3 713.7,948.65 784.1,907.6 845.85,845.85 894.45,797.25 930.25,743.35 953.2,684.05z"/>
    </g>
  </g>
  <g id="Calque.__201">
    <g id="shape6">
      <path id="path3" fill="#D056C8" fill-opacity="1" d="M443.25,514.1 L443.55,514.625 443.55,276.4 317.4,276.4 317.4,748.55 443.25,748.55 443.25,514.1z M703.5,748.55 L703.5,276.4 578.75,276.4 578.75,517.3 578.75,748.55 703.5,748.55z"/>
      <path id="path6" fill="#FFFFFF" fill-opacity="1" d="M444.3,276.4 L443.55,276.4 443.55,514.625 578.75,748.55 578.75,517.3 444.3,276.4z"/>
    </g>
  </g>
</svg>