
<svg xmlns="http://www.w3.org/2000/svg" version="1.1" xmlns:xlink="http://www.w3.org/1999/xlink" preserveAspectRatio="none" x="0px" y="0px" width="1024px" height="1024px" viewBox="0 0 1024 1024">
<defs>
<g id="Layer4_0_FILL">
<path fill="#000000" fill-opacity="0.09803921568627451" stroke="none" d="
M 969.6 351.25
Q 961 330.4 950.2 310.4 944.1 299.05 937.3 288 907.95 240.45 865.75 198.2 727.5 59.95 531.95 59.95 336.45 59.95 198.2 198.2 59.95 336.45 59.95 531.95 59.95 727.5 198.2 865.75 336.45 1003.95 531.95 1003.95 727.5 1003.95 865.75 865.75 941.9 789.55 976.1 696 1003.95 619.75 1003.95 531.95 1003.95 464.6 987.55 404 985.7 397.15 983.65 390.4 977.5 370.45 969.6 351.25 Z"/>
</g>

<g id="Layer3_0_FILL">
<path fill="#EC407A" stroke="none" d="
M 969.7 392
Q 967.95 385.15 966.05 378.4 964.52578125 373.114453125 962.85 367.85 960.3787109375 359.903125 957.6 352.05 947.85 324.5 934.45 298.4 928.65 287.05 922.15 276 891.5 224 845.8 178.25 736.8 69.25 592.15 46.2 567.65 42.3 542.1 40.85 527.2 40 512 40 497.9 40 484.1 40.75 306.55 49.95 178.25 178.25 40 316.5 40 512 40 707.55 178.25 845.8 263.0400390625 930.55703125 369.35 963.35 423.8880859375 980.1630859375 484.1 983.3 484.3 983.3 484.5 983.3 496.65 983.9 509 984 510.5 984 512 984 527.25 984 542.1 983.2 545.6 983 549.05 982.75 579.1 980.6 607.75 975.05 619.55 972.75 631.15 969.9 751.75 939.85 845.8 845.8 918.7 772.85 953.15 684 980.9 612.4 983.7 530.5 984 521.3 984 512 984 511 984 510 984 509.5 984 509 983.65 447.7 969.7 392 Z"/>
</g>

<g id="Layer2_0_FILL">
<path fill="#000000" fill-opacity="0.2" stroke="none" d="
M 979.8 578.45
L 754.4 353.05 596 353.5 564.95 322.45 412.35 368.3 370.75 326.7 184 399.3 241.6 456.9 224 685.25 522.65 983.9
Q 532.4599609375 983.7193359375 542.1 983.2 545.6 983 549.05 982.75 579.1 980.6 607.75 975.05 619.55 972.75 631.15 969.9 751.75 939.85 845.8 845.8 918.7 772.85 953.15 684 972.6197265625 633.764453125 979.8 578.45 Z"/>
</g>

<g id="Layer0_0_FILL">
<path fill="#FFFFFF" stroke="none" d="
M 748.35 378.85
Q 729.3 371.15 707.35 371.15 668.65 371.15 628.8 402.15 592.4 430.5 570.3 471.65
L 590.55 379.15 433.25 379.15 411.15 460.6 484.9 460.6 439.6 642.05
Q 416.95 692.35 374.75 711.7 360.55 718.2 345.95 720.25 335.4 721.75 330.45 720.65 319.2 718.1 314.35 713.25 308.35 707.2 308.35 695 308.95 673.75 314.8 652.9
L 383.6 379.2 208.85 379.2 186.75 460.6 259.4 460.6 212.5 652.25
Q 207.2 675.05 206.95 698.6 206.95 740.65 229.5 764.1 253.35 788.9 298.95 788.9 336.9 788.9 369.15 767.3 399.8 746.75 423.15 708.35
L 404.7 782.55 507.9 782.55 566.75 546.45
Q 589.1 455.6 653.2 455.6 678.8 455.6 693.55 470.55 708.4 485.55 708.4 511.7 708.6 528.35 703.65 544.8
L 673.3 653.35
Q 666.85 675.85 666.9 699.35 666.9 739.65 690 763.25 714.75 788.55 760.75 788.55 802.9 788.55 832.85 760.6 864.75 730.8 882.15 669.75
L 841.7 654.15
Q 827.9 692.4 813.55 708.3 802.6 720.4 790.2 720.4 779.75 720.4 774.4 713.5 769 706.55 769 692.8 769.6 677.95 773.6 664.15
L 803.05 558.4
Q 813 525.7 813.15 491.55 813.15 434.5 782 401.7 767.7 386.7 748.35 378.85 Z"/>
</g>
</defs>

<g transform="matrix( 1, 0, 0, 1, 0,0) ">
<use xlink:href="#Layer4_0_FILL"/>
</g>

<g transform="matrix( 1, 0, 0, 1, 0,0) ">
<use xlink:href="#Layer3_0_FILL"/>
</g>

<g transform="matrix( 1, 0, 0, 1, 0,0) ">
<use xlink:href="#Layer2_0_FILL"/>
</g>

<g transform="matrix( 0.9433441162109375, 0, 0, 0.9433441162109375, 7.85,-35.2) ">
<use xlink:href="#Layer0_0_FILL"/>
</g>
</svg>
