<?xml version="1.0" encoding="utf-8"?>
<!-- Generator: flash2svg, http://dissentgraphics.com/tools/flash2svg -->
<svg xmlns:xlink="http://www.w3.org/1999/xlink" id="Apps-Dictionnary" image-rendering="optimizeSpeed" baseProfile="basic" version="1.1" style="background-color:#ffffff" x="0px" y="0px" width="1024px" height="1024px" viewBox="0 0 1024 1024" enable-background="new 0 0 1024 1024" xmlns="http://www.w3.org/2000/svg">
  <defs transform="matrix(1 0 0 1 0 0) "/>
  <g id="shadow">
    <g id="shape">
      <path id="path" fill="#000000" fill-opacity="0.09803921568627451" d="M969.65,351.3 Q961.05,330.45 950.25,310.45 C946.2,302.9 941.9,295.4 937.35,288.05 917.8,256.35 893.95,226.4 865.8,198.25 773.65,106.1 662.35,60 532,60 401.65,60 290.4,106.1 198.25,198.25 106.1,290.4 60,401.65 60,532 60,662.35 106.1,773.65 198.25,865.8 290.4,957.95 401.65,1004 532,1004 662.35,1004 773.65,957.95 865.8,865.8 916.55,815 953.35,758.4 976.15,696.05 994.7,645.2 1004,590.55 1004,532 1004,487.1 998.55,444.45 987.6,404.05 986.35,399.5 985.05,394.95 983.7,390.45 979.6,377.15 974.9,364.1 969.65,351.3z"/>
    </g>
  </g>
  <g id="circle">
    <g id="shape2">
      <path id="path1" fill="#421F1E" fill-opacity="1" d="M982.95,511.4 Q982.95,471.533 977.2,434.05 C962.25,336.55 918.1,251.15 844.8,177.85 752.7,85.75 641.55,39.7 511.3,39.7 381.05,39.7 269.85,85.75 177.75,177.85 85.65,269.95 39.6,381.15 39.6,511.4 39.6,641.65 85.65,752.8 177.75,844.9 251.1,918.25 336.6,962.4 434.25,977.35 459.15,981.15 484.85,983.05 511.3,983.05 641.55,983.05 752.7,937 844.8,844.9 936.9,752.8 982.95,641.65 982.95,511.4z"/>
    </g>
  </g>
  <g id="book-shadow">
    <g id="shape4">
      <path id="path2" fill="#000000" fill-opacity="0.2" d="M982.95,511.4 Q982.95,471.533 977.2,434.05 L755.2,212.05 256.95,800.05 434.25,977.35 C459.15,981.15 484.85,983.05 511.3,983.05 641.55,983.05 752.7,937 844.8,844.9 936.9,752.8 982.95,641.65 982.95,511.4z"/>
    </g>
  </g>
  <g id="book">
    <g id="shape6">
      <path id="path3" fill="#A04C49" fill-opacity="1" d="M761.25,233.7 Q761.25,202.05 729.6,202.05 L351.3,202.05 351.3,738.7 732.9,738.7 732.9,738.8 733.95,738.8 C741.4,738.6 747.8,735.85 753.05,730.6 758.3,725.35 761.05,718.95 761.25,711.5 L761.25,233.7z"/>
      <path id="path4" fill="#853E3C" fill-opacity="1" d="M701.35,780.55 L701.35,780.35 302.15,780.35 C296.4,780.35 291.5,778.3 287.4,774.2 283.35,770.2 281.35,765.35 281.35,759.6 L281.35,759.5 C281.35,753.75 283.35,748.85 287.4,744.75 291.5,740.7 296.4,738.7 302.15,738.7 L351.3,738.7 351.3,202.05 283.15,202.05 C262.05,202.05 251.5,212.6 251.5,233.7 L251.5,779.25 C251.5,800.35 262.05,810.9 283.15,810.9 L729.6,810.9 C750.25,810.9 760.8,800.8 761.25,780.55 L701.35,780.55z"/>
      <path id="path5" fill="#CCCCCC" fill-opacity="1" d="M732.9,738.8 L732.9,738.7 351.3,738.7 302.15,738.7 C296.4,738.7 291.5,740.7 287.4,744.75 283.35,748.85 281.35,753.75 281.35,759.5 L281.35,759.6 C281.35,765.35 283.35,770.2 287.4,774.2 291.5,778.3 296.4,780.35 302.15,780.35 L701.35,780.35 732.9,780.35 732.9,738.8z"/>
    </g>
  </g>
  <g id="book1">
    <g id="shape11">
      <path id="path6" fill="#000000" fill-opacity="0.2" d="M761.25,528.05 L671.05,437.85 576.9,457.7 500.4,381.2 403,556.85 584.85,738.7 732.9,738.7 732.9,738.8 733.95,738.8 C741.4,738.6 747.8,735.85 753.05,730.6 Q760.95,722.7 761.25,711.5 L761.25,528.05z"/>
    </g>
  </g>
  <g id="T">
    <g id="shape13">
      <path id="path7" fill="#FFFFFF" fill-opacity="1" d="M669.25,436.3 C665.25,433.15 660.45,430.9 654.8,429.4 649.1,427.85 642.6,427.05 635.25,427.05 611,427.05 591.5,429.9 576.9,435.7 L576.9,456.3 627.05,453.65 C635.25,453.65 640.75,454.65 643.45,456.7 646.15,458.7 647.45,462.9 647.45,469.25 L647.45,477.45 C645.4,477.6 642.35,477.7 638.2,477.7 L609.85,477.55 C597.2,477.5 587.85,480.7 581.7,487.3 578.65,490.55 576.4,494.3 574.9,498.5 573.35,502.7 572.6,507.4 572.6,512.45 L572.6,524.5 C572.6,533.45 575.8,541.25 582.2,548.05 585.4,551.5 589.3,554.1 593.9,555.8 598.45,557.45 603.65,558.25 609.6,558.25 615.15,558.25 621,557.2 627.05,555 633.2,552.7 637.95,550.4 641.35,548.05 L647.45,542.9 654.5,556.85 681.1,556.85 681.1,468.05 C681.1,453.05 677.15,442.5 669.25,436.3z M618.5,531.45 C614.45,531.45 611.45,530.65 609.4,529.1 607.25,527.65 606.25,524.45 606.25,519.7 L606.25,513.4 C606.25,505.45 609.65,501.1 616.5,500.5 L647.45,498.05 647.45,521.35 643.2,523.95 631.75,528.85 C626.9,530.6 622.5,531.45 618.5,531.45z M500.4,381.2 L462.2,381.2 403,556.85 438.95,556.85 451.65,517.95 509.3,517.95 521.7,556.85 557.55,556.85 500.4,381.2z M481.65,425.4 L501.3,488.2 460.55,488.2 481.65,425.4z"/>
    </g>
  </g>
</svg>