
<svg xmlns="http://www.w3.org/2000/svg" version="1.1" xmlns:xlink="http://www.w3.org/1999/xlink" preserveAspectRatio="none" x="0px" y="0px" width="1024px" height="1024px" viewBox="0 0 1024 1024">
<defs>
<g id="Layer4_0_FILL">
<path fill="#000000" fill-opacity="0.09803921568627451" stroke="none" d="
M 969.6 351.25
Q 961 330.4 950.2 310.4 944.1 299.05 937.3 288 907.95 240.45 865.75 198.2 727.5 59.95 531.95 59.95 336.45 59.95 198.2 198.2 59.95 336.45 59.95 531.95 59.95 727.5 198.2 865.75 336.45 1003.95 531.95 1003.95 727.5 1003.95 865.75 865.75 941.9 789.55 976.1 696 1003.95 619.75 1003.95 531.95 1003.95 464.6 987.55 404 985.7 397.15 983.65 390.4 977.5 370.45 969.6 351.25 Z"/>
</g>

<g id="Layer3_0_FILL">
<path fill="#333333" stroke="none" d="
M 969.7 392
Q 967.95 385.15 966.05 378.4 964.52578125 373.114453125 962.85 367.85 960.3787109375 359.903125 957.6 352.05 947.85 324.5 934.45 298.4 928.65 287.05 922.15 276 891.5 224 845.8 178.25 736.8 69.25 592.15 46.2 567.65 42.3 542.1 40.85 527.2 40 512 40 497.9 40 484.1 40.75 306.55 49.95 178.25 178.25 40 316.5 40 512 40 707.55 178.25 845.8 263.0400390625 930.55703125 369.35 963.35 423.8880859375 980.1630859375 484.1 983.3 484.3 983.3 484.5 983.3 496.65 983.9 509 984 510.5 984 512 984 527.25 984 542.1 983.2 545.6 983 549.05 982.75 579.1 980.6 607.75 975.05 619.55 972.75 631.15 969.9 751.75 939.85 845.8 845.8 918.7 772.85 953.15 684 980.9 612.4 983.7 530.5 984 521.3 984 512 984 511 984 510 984 509.5 984 509 983.65 447.7 969.7 392 Z"/>
</g>

<g id="Layer2_0_FILL">
<path fill="#000000" fill-opacity="0.2" stroke="none" d="
M 762.15 527.4
L 681.15 446.4 626.8 446.4 558.8 378.4 501.25 465.05 479.35 465.9 373.8 360.35 313.7 429.25 327.9 443.45 257 656.5 580.05 979.55
Q 594.071484375 977.6998046875 607.75 975.05 619.55 972.75 631.15 969.9 751.75 939.85 845.8 845.8 918.7 772.85 953.15 684 971.154296875 637.545703125 978.65 586.75
L 838.35 446.45 762.15 527.4 Z"/>
</g>

<g id="Layer0_0_FILL">
<path fill="#FFFFFF" stroke="none" d="
M 306.25 444.3
Q 305.75 444.15 294.25 439.8 276.8 433.25 264.1 433.25 250.75 433.25 238.1 439.05 225.05 445.1 214.95 456.35 192 482 192 524.1 192 546.15 199.4 570.9 206.4 594.25 218.35 614.8 230.25 635.25 243.75 647.3 258.1 660 270.75 660 276 660 293.05 653.9 310.1 647.8 320.35 647.8 329.7 647.8 345.5 653.7 361.25 659.6 369.9 659.6 393.75 659.6 417.4 619.9 424.75 607.45 431.25 592.55
L 436.25 580.15
Q 426.15 576.25 416.1 566.65 395.9 547.5 395.9 519.15 395.9 494.05 412.1 475.7 420.2 466.55 428.3 462.4 424.15 454.9 414.75 447.45 395.95 432.45 369.6 432.45 355.6 432.45 337.55 439.4 328.95 442.9 325.4 444.2 319.45 446.35 316.2 446.35 312.4 446.35 306.25 444.3
M 558.8 378.4
L 505.2 378.4 505.2 446.4 477.6 446.4 477.6 487.65 505.2 487.65 505.2 608
Q 505.2 632.35 519.05 645.8 533.25 659.6 559.6 659.6 576.8 659.6 592.4 654.8 608.3 649.9 618.8 645.25
L 608 602.85
Q 601.1 605.65 596.4 607.15 585.9 610.45 578.8 610.45 569.5 610.45 564.4 605.65 558.8 600.45 558.8 590
L 558.8 487.65 602.8 487.65 602.8 446.4 558.8 446.4 558.8 378.4
M 357.65 363.65
Q 339.05 370.25 326.75 386.45 315.8 400.85 313.65 416.5 312.6 424.3 313.7 429.25
L 317.75 429.5
Q 322.85 429.5 328.2 428.15 345.3 423.95 358.35 408.25 370.55 393.55 373.4 375.5 374.3 369.85 374.15 364.55
L 373.8 360.35
Q 366.95 360.4 357.65 363.65
M 703.15 656
L 761.15 656 838.35 446.45 787.95 446.45 734.35 612.45 681.15 446.4 625.95 446.4 703.15 656 Z"/>
</g>
</defs>

<g transform="matrix( 1, 0, 0, 1, 0,0) ">
<use xlink:href="#Layer4_0_FILL"/>
</g>

<g transform="matrix( 1, 0, 0, 1, 0,0) ">
<use xlink:href="#Layer3_0_FILL"/>
</g>

<g transform="matrix( 1, 0, 0, 1, 0,0) ">
<use xlink:href="#Layer2_0_FILL"/>
</g>

<g transform="matrix( 1, 0, 0, 1, 0,0) ">
<use xlink:href="#Layer0_0_FILL"/>
</g>
</svg>
