<?xml version="1.0" encoding="utf-8"?>
<!-- Generator: flash2svg, http://dissentgraphics.com/tools/flash2svg -->
<svg xmlns:xlink="http://www.w3.org/1999/xlink" id="Maps" image-rendering="optimizeSpeed" baseProfile="basic" version="1.1" style="background-color:#ffffff" x="0px" y="0px" width="1024px" height="1024px" viewBox="0 0 1024 1024" enable-background="new 0 0 1024 1024" xmlns="http://www.w3.org/2000/svg">
  <defs transform="matrix(1 0 0 1 0 0) "/>
  <g id="bgshadow">
    <g id="shape">
      <path id="path" fill="#000000" fill-opacity="0.09803921568627451" d="M969.65,351.3 Q961.05,330.45 950.25,310.45 C946.2,302.9 941.9,295.4 937.35,288.05 917.8,256.35 893.95,226.4 865.8,198.25 773.65,106.1 662.35,60 532,60 401.65,60 290.4,106.1 198.25,198.25 106.1,290.4 60,401.65 60,532 60,662.35 106.1,773.65 198.25,865.8 290.4,957.95 401.65,1004 532,1004 662.35,1004 773.65,957.95 865.8,865.8 916.55,815 953.35,758.4 976.15,696.05 994.7,645.2 1004,590.55 1004,532 1004,487.1 998.55,444.45 987.6,404.05 986.35,399.5 985.05,394.95 983.7,390.45 979.6,377.15 974.9,364.1 969.65,351.3z"/>
    </g>
  </g>
  <g id="bgcircle">
    <g id="shape2">
      <path id="path1" fill="#E4DDCA" fill-opacity="1" d="M653,60.25 C651.9,59.9 650.45,59.45 649,59.05 L649,59.025 L649,292.45 92.75,292.45 Q40.05,391.336 40.05,512.05 C40.05,642.4 86.15,753.7 178.3,845.85 263.85,931.35 365.8,977.2 484.15,983.35 484.3,983.35 484.4,983.35 484.55,983.35 493.05,983.8 501.15,984.05 509.05,984.05 510.25,984.05 511.15,984.05 512.05,984.05 513.95,984.05 515.85,984.05 517.5,984.05 526.05,983.95 534.3,983.65 542.15,983.25 544.65,983.1 546.9,982.95 549.1,982.8 569.3,981.35 589,978.75 607.8,975.1 615.75,973.55 623.6,971.8 631.2,969.95 712,949.65 783.35,908.35 845.85,845.85 894.45,797.25 930.25,743.35 953.2,684.05 969.8,641.15 979.75,595.4 982.95,546.6 983.3,541.4 983.55,536 983.75,530.55 983.95,524.5 984.05,518.3 984.05,512.05 984.05,511.4 984.05,510.7 984.05,510.05 984.05,509.7 984.05,509.4 984.05,509.05 983.85,468.4 979.1,429.55 969.75,392.05 968.65,387.7 967.4,383.05 966.1,378.45 963.6,369.7 960.75,360.85 957.65,352.1 951.2,333.85 943.5,316.05 934.5,298.45 932.1,293.8 929.6,289.15 927.05,284.45 L927.025,284.45 L653,284.45 653,60.225"/>
      <path id="path2" fill="#FAC3CE" fill-opacity="1" d="M927.05,284.45 C925.45,281.65 923.85,278.85 922.2,276.05 901.9,241.55 876.4,208.85 845.85,178.3 789.05,121.5 724.95,82.2 653,60.25 L653,60.225 L653,284.45 927.025,284.45"/>
      <path id="path3" fill="#75C63B" fill-opacity="1" d="M649,292.45 L649,59.025 L649,59.05 C630.7,53.65 611.7,49.35 592.2,46.25 575.95,43.65 559.4,41.85 542.15,40.9 532.45,40.35 522.3,40.05 512.05,40.05 502.7,40.05 493.45,40.3 484.15,40.8 365.8,46.9 263.85,92.75 178.3,178.3 143,213.6 114.5,251.65 92.75,292.45 L649,292.45z"/>
    </g>
  </g>
  <mask id="bubble">
    <g id="g">
      <g id="shape57">
        <path id="path45" fill="#FFFFFF" fill-opacity="1" d="M966.1,378.45 C963.6,369.7 960.75,360.85 957.65,352.1 951.2,333.85 943.5,316.05 934.5,298.45 930.7,291.05 926.55,283.5 922.2,276.05 901.9,241.55 876.4,208.85 845.85,178.3 773.25,105.7 688.7,61.65 592.2,46.25 575.95,43.65 559.4,41.85 542.15,40.9 532.45,40.35 522.3,40.05 512.05,40.05 502.7,40.05 493.45,40.3 484.15,40.8 365.8,46.9 263.85,92.75 178.3,178.3 Q40.05,316.55 40.05,512.05 C40.05,642.4 86.15,753.7 178.3,845.85 263.85,931.35 365.8,977.2 484.15,983.35 484.3,983.35 484.4,983.35 484.55,983.35 493.05,983.8 501.15,984.05 509.05,984.05 510.25,984.05 511.15,984.05 512.05,984.05 513.95,984.05 515.85,984.05 517.5,984.05 526.05,983.95 534.3,983.65 542.15,983.25 544.65,983.1 546.9,982.95 549.1,982.8 569.3,981.35 589,978.75 607.8,975.1 615.75,973.55 623.6,971.8 631.2,969.95 712,949.65 783.35,908.35 845.85,845.85 894.45,797.25 930.25,743.35 953.2,684.05 969.8,641.15 979.75,595.4 982.95,546.6 983.3,541.4 983.55,536 983.75,530.55 983.95,524.5 984.05,518.3 984.05,512.05 984.05,511.4 984.05,510.7 984.05,510.05 984.05,509.7 984.05,509.4 984.05,509.05 983.85,468.4 979.1,429.55 969.75,392.05 968.65,387.7 967.4,383.05 966.1,378.45z"/>
      </g>
    </g>
  </mask>
  <g id="masked" mask="url(#bubble)">
    <g id="Calque.__204">
      <g id="shape7">
        <path id="path4" fill="#E0C233" fill-opacity="1" d="M1045.425,718.375 L1045.425,718.4 L1045.45,718.4 C788.25,825.05 597.7,821.65 473.85,708.3 303.2,538.95 126.3,461.5 -56.75,476.05 -57.05,476.05 -57.35,476.05 -57.65,476.1 L-57.675,476.075 L-57.7,476.075 L-57.7,476.1 C-81.1,477.7 -100.55,487.35 -116,505.1 -131.55,522.85 -138.5,543.45 -136.85,566.85 -135.3,590.2 -125.65,609.65 -107.9,625.15 -90.25,640.55 -69.85,647.5 -46.7,646.05 L-46.725,646.05 L-47.025,646.05 -47,646.05 C-46.9,646.05 -46.8,646.05 -46.7,646.05 -46.65,646.05 -46.55,646.05 -46.5,646.05 -46.45,646 -46.4,646 -46.35,646.05 90.8,639.4 224.25,700.5 354.05,829.35 L354.05,829.325 L354.1,829.375 L354.1,829.4 C354.15,829.45 354.2,829.45 354.25,829.5 354.35,829.6 354.45,829.7 354.55,829.8 517.9,1001.7 769.95,1017 1110.7,875.7 1110.75,875.65 1110.8,875.65 1110.9,875.65 1111.15,875.5 1111.35,875.4 1111.6,875.3 1132.85,866.15 1147.9,850.95 1156.75,829.6 1165.75,807.9 1165.7,786.2 1156.65,764.45 1147.6,742.7 1132.25,727.35 1110.6,718.4 L1110.6,718.375 L1110.575,718.375 Q1078.063,704.859 1045.425,718.375z"/>
      </g>
    </g>
    <g id="Calque.__205">
      <g id="shape11">
        <path id="path6" fill="none" stroke="#FCDA3A" stroke-opacity="1" stroke-width="130.3" stroke-linecap="round" stroke-linejoin="round" d="M1143.2,862.2 C844.25,986.15 622.95,976.85 479.35,834.2 Q253.7,610.1 13.2,626.2"/>
      </g>
    </g>
    <g id="shadow">
      <g id="shape13">
        <path id="path7" fill="#D1C9B9" fill-opacity="1" d="M1059.65,236 C1059.65,232.15 1058.3,228.85 1055.55,226.1 1052.8,223.35 1049.45,221.95 1045.6,221.95 L723.15,221.95 723.15,12.05 C723.15,8.2 721.8,4.9 719.05,2.15 716.3,-0.6 712.95,-2 709.1,-2 705.25,-2 701.95,-0.6 699.2,2.15 696.45,4.9 695.05,8.2 695.05,12.05 L695.05,236 C695.05,239.85 696.45,243.2 699.2,245.95 701.95,248.7 705.25,250.05 709.1,250.05 L1045.6,250.05 C1049.45,250.05 1052.8,248.7 1055.55,245.95 1058.3,243.2 1059.65,239.85 1059.65,236z M1059.65,376.05 C1059.65,372.2 1058.3,368.9 1055.55,366.15 1052.8,363.4 1049.45,362 1045.6,362 L709.1,362 C705.25,362 701.95,363.4 699.2,366.15 696.45,368.9 695.05,372.2 695.05,376.05 L695.05,553 C695.05,556.85 696.45,560.2 699.2,562.95 701.95,565.7 705.25,567.05 709.1,567.05 L1045.6,567.05 C1049.45,567.05 1052.8,565.7 1055.55,562.95 1058.3,560.2 1059.65,556.85 1059.65,553 1059.65,549.15 1058.3,545.85 1055.55,543.1 1052.8,540.35 1049.45,538.95 1045.6,538.95 L723.15,538.95 723.15,390.1 1045.6,390.1 C1049.45,390.1 1052.8,388.75 1055.55,386 1058.3,383.25 1059.65,379.9 1059.65,376.05z M709.1,679 C705.25,679 701.95,680.4 699.2,683.15 696.45,685.9 695.05,689.2 695.05,693.05 L695.05,1037.05 C695.05,1040.9 696.45,1044.25 699.2,1047 701.95,1049.75 705.25,1051.1 709.1,1051.1 712.95,1051.1 716.3,1049.75 719.05,1047 721.8,1044.25 723.15,1040.9 723.15,1037.05 L723.15,707.1 1045.6,707.1 C1049.45,707.1 1052.8,705.75 1055.55,703 1058.3,700.25 1059.65,696.9 1059.65,693.05 1059.65,689.2 1058.3,685.9 1055.55,683.15 1052.8,680.4 1049.45,679 1045.6,679 L709.1,679z M583.1,12.05 C583.1,8.2 581.75,4.9 579,2.15 576.25,-0.6 572.9,-2 569.05,-2 565.2,-2 561.9,-0.6 559.15,2.15 556.4,4.9 555,8.2 555,12.05 L555,221.95 2.2,221.95 C-1.65,221.95 -4.95,223.35 -7.7,226.1 -10.45,228.85 -11.85,232.15 -11.85,236 -11.85,239.85 -10.45,243.2 -7.7,245.95 -4.95,248.7 -1.65,250.05 2.2,250.05 L569.05,250.05 C572.9,250.05 576.25,248.7 579,245.95 581.75,243.2 583.1,239.85 583.1,236 L583.1,12.05z M579,366.15 C576.25,363.4 572.9,362 569.05,362 L2.2,362 C-1.65,362 -4.95,363.4 -7.7,366.15 -10.45,368.9 -11.85,372.2 -11.85,376.05 -11.85,379.9 -10.45,383.25 -7.7,386 -4.95,388.75 -1.65,390.1 2.2,390.1 L555,390.1 555,1037.05 C555,1040.9 556.4,1044.25 559.15,1047 561.9,1049.75 565.2,1051.1 569.05,1051.1 572.9,1051.1 576.25,1049.75 579,1047 581.75,1044.25 583.1,1040.9 583.1,1037.05 L583.1,376.05 C583.1,372.2 581.75,368.9 579,366.15z"/>
        <path id="path10" fill="#FFFFFF" fill-opacity="1" d="M1045.6,362 L1045.6,250.05 709.1,250.05 C705.25,250.05 701.95,248.7 699.2,245.95 696.45,243.2 695.05,239.85 695.05,236 L695.05,12.05 583.1,12.05 583.1,236 C583.1,239.85 581.75,243.2 579,245.95 576.25,248.7 572.9,250.05 569.05,250.05 L2.2,250.05 2.2,362 569.05,362 C572.9,362 576.25,363.4 579,366.15 581.75,368.9 583.1,372.2 583.1,376.05 L583.1,1037.05 695.05,1037.05 695.05,693.05 C695.05,689.2 696.45,685.9 699.2,683.15 701.95,680.4 705.25,679 709.1,679 L1045.6,679 1045.6,567.05 709.1,567.05 C705.25,567.05 701.95,565.7 699.2,562.95 696.45,560.2 695.05,556.85 695.05,553 L695.05,376.05 C695.05,372.2 696.45,368.9 699.2,366.15 701.95,363.4 705.25,362 709.1,362 L1045.6,362z"/>
      </g>
    </g>
    <g id="Calque.__206">
      <g id="shape25">
        <path id="path17" fill="#52A2F5" fill-opacity="1" d="M673.6,306.45 Q673.597,292.141 663.475,282.025 L663.5,282.05 C656.75,275.3 648.6,271.9 639.05,271.9 L16.2,271.9 C6.65,271.9 -1.45,275.3 -8.2,282.05 -14.95,288.8 -18.35,296.9 -18.35,306.45 -18.35,316 -14.95,324.15 -8.2,330.9 -1.45,337.65 6.65,341 16.2,341 L604.5,341 604.5,675.05 C604.5,684.6 607.9,692.75 614.65,699.5 621.4,706.25 629.5,709.6 639.05,709.6 648.6,709.6 656.75,706.25 663.5,699.5 670.25,692.75 673.6,684.6 673.6,675.05 L673.6,306.45z"/>
      </g>
    </g>
    <g id="Calque.__207">
      <g id="shape27">
        <path id="path18" fill="#52A2F5" fill-opacity="1" d="M731.1,701.05 Q731.1,662.1 703.55,634.55 C685.2,616.2 663,607 637.05,607 611.1,607 588.9,616.2 570.55,634.55 552.2,652.9 543,675.1 543,701.05 543,727 552.2,749.2 570.55,767.55 588.9,785.9 611.1,795.1 637.05,795.1 663,795.1 685.2,785.9 703.55,767.55 721.9,749.2 731.1,727 731.1,701.05z"/>
      </g>
    </g>
    <g id="Calque.__208">
      <g id="shape29">
        <path id="path19" fill="#FFFFFF" fill-opacity="1" d="M698.25,715.45 C698.2,711.6 696.85,708.3 694.15,705.6 L648.5,659.9 C645.75,657.15 642.5,655.8 638.65,655.8 634.8,655.75 631.5,657.1 628.75,659.85 L583.1,705.5 C580.35,708.25 579,711.55 579,715.4 578.95,719.25 580.3,722.5 583.05,725.25 585.8,728 589.1,729.35 592.95,729.4 L684.25,729.45 C688.1,729.4 691.4,728.05 694.15,725.35 Q698.2,721.25 698.25,715.45z"/>
      </g>
    </g>
    <g id="mouth">
      <g id="shape31">
        <path id="path20" fill="#FFFFFF" fill-opacity="1" d="M310.6,452.95 Q307.199,452.087 303.8,452.95 C247.2,467.15 190.6,463.1 133.95,440.85 L133.925,440.85 L133.725,440.775 L133.75,440.8 C133.7,440.75 133.7,440.75 133.7,440.75 133.25,440.55 132.8,440.35 132.35,440.2 128.75,438.8 125.2,438.9 121.65,440.5 118.1,442.05 115.65,444.65 114.3,448.25 113.2,451 113,453.8 113.7,456.55 L95.15,547.55 C95.1,547.9 95.05,548.3 95,548.65 80.75,654.1 149.85,735.3 302.3,792.3 305.55,793.55 308.85,793.55 312.1,792.3 464.5,735.3 533.6,654.1 519.4,548.65 519.35,548.3 519.25,547.9 519.2,547.55 L500.625,456.675 L500.65,456.7 C501.4,453.9 501.2,451.1 500.1,448.25 498.7,444.65 496.25,442.05 492.7,440.5 489.15,438.9 485.6,438.8 482.05,440.2 481.6,440.35 481.15,440.55 480.7,440.75 480.6,440.8 480.5,440.8 480.45,440.85 L480.425,440.85 L480.175,440.95 L480.2,440.95 C423.65,463.1 367.1,467.1 310.6,452.95z M139.05,472.5 C195.1,491.55 251.15,494.35 307.2,480.9 363.25,494.35 419.3,491.55 475.35,472.5 L475.35,472.475 L487.35,531.375 127,531.375 139.025,472.475z M122.1,559.325 L492.25,559.325 L492.25,559.35 C498.1,646.5 436.4,714.8 307.2,764.25 178,714.8 116.3,646.5 122.1,559.35z"/>
        <path id="path21" fill="#FF633E" fill-opacity="1" d="M139.025,472.475 L127,531.375 487.35,531.375 475.35,472.475 L475.35,472.5 C419.3,491.55 363.25,494.35 307.2,480.9 251.15,494.35 195.1,491.55 139.05,472.5"/>
        <path id="path24" fill="#52A2F5" fill-opacity="1" d="M122.1,559.35 C116.3,646.5 178,714.8 307.2,764.25 436.4,714.8 498.1,646.5 492.25,559.35 L492.25,559.325 L122.1,559.325 M239.85,579.1 C248.05,579.1 254.25,581.5 258.45,586.25 262.6,590.95 264.7,597.3 264.7,605.3 264.7,612.45 261.65,619.6 255.55,626.85 L248.4,634.7 241.8,641.05 264.7,641.05 264.7,660 207.55,660 207.55,641.7 C214,637.45 221.6,631.3 230.35,623.15 234.75,619.1 238.05,615.6 240.25,612.75 242.45,609.9 243.55,607.6 243.55,605.95 243.55,602.6 242.65,600.45 240.9,599.55 239.15,598.65 235.9,598.2 231.1,598.2 L206.7,598.2 206.7,582.4 C216.65,580.2 227.7,579.1 239.85,579.1z M310.7,579.7 C317.35,579.7 322.35,581.15 325.6,584.1 328.9,587.05 330.55,591.9 330.55,598.65 L330.55,603.4 C330.55,606.95 329.55,610.15 327.55,612.9 326.25,614.7 324.5,615.75 322.35,616.1 327.8,617.1 330.55,622.25 330.55,631.55 L330.55,639.85 C330.55,648.4 328.5,654 324.45,656.65 322.4,657.9 320.35,658.8 318.2,659.3 316.1,659.75 313.55,660 310.6,660 L293.65,660 C289.6,660 286.2,659.55 283.35,658.6 280.5,657.75 278.3,656.4 276.7,654.55 274.75,652.3 273.55,650.2 273.2,648.25 272.65,645.5 272.35,642.9 272.35,640.45 L272.35,634.7 C272.35,631.6 273,628.8 274.25,626.3 274.9,625.05 275.7,624.1 276.75,623.4 277.8,622.65 279,622.15 280.4,621.95 276.2,619.7 273.7,616.7 272.85,612.9 272.5,611.15 272.35,608.75 272.35,605.6 L272.35,598.55 C272.35,586 279.45,579.7 293.65,579.7 L310.7,579.7z"/>
        <path id="path27" fill="#FFFFFF" fill-opacity="1" d="M239.85,579.1 C227.7,579.1 216.65,580.2 206.7,582.4 L206.7,598.2 231.1,598.2 C235.9,598.2 239.15,598.65 240.9,599.55 242.65,600.45 243.55,602.6 243.55,605.95 243.55,607.6 242.45,609.9 240.25,612.75 238.05,615.6 234.75,619.1 230.35,623.15 221.6,631.3 214,637.45 207.55,641.7 L207.55,660 264.7,660 264.7,641.05 241.8,641.05 248.4,634.7 255.55,626.85 C261.65,619.6 264.7,612.45 264.7,605.3 264.7,597.3 262.6,590.95 258.45,586.25 254.25,581.5 248.05,579.1 239.85,579.1z"/>
        <path id="path30" fill="#FFFFFF" fill-opacity="1" d="M310.7,579.7 L293.65,579.7 C279.45,579.7 272.35,586 272.35,598.55 L272.35,605.6 C272.35,608.75 272.5,611.15 272.85,612.9 273.7,616.7 276.2,619.7 280.4,621.95 279,622.15 277.8,622.65 276.75,623.4 275.7,624.1 274.9,625.05 274.25,626.3 273,628.8 272.35,631.6 272.35,634.7 L272.35,640.45 C272.35,642.9 272.65,645.5 273.2,648.25 273.55,650.2 274.75,652.3 276.7,654.55 278.3,656.4 280.5,657.75 283.35,658.6 286.2,659.55 289.6,660 293.65,660 L310.6,660 C313.55,660 316.1,659.75 318.2,659.3 320.35,658.8 322.4,657.9 324.45,656.65 328.5,654 330.55,648.4 330.55,639.85 L330.55,631.55 C330.55,622.25 327.8,617.1 322.35,616.1 324.5,615.75 326.25,614.7 327.55,612.9 329.55,610.15 330.55,606.95 330.55,603.4 L330.55,598.65 C330.55,591.9 328.9,587.05 325.6,584.1 322.35,581.15 317.35,579.7 310.7,579.7z M304.25,610.95 L298.6,610.95 C296.65,610.95 295.3,610.65 294.55,610.1 293.8,609.55 293.45,608.2 293.45,606.15 L293.45,602.9 C293.45,600.55 293.85,599.1 294.65,598.45 295.4,597.8 296.7,597.5 298.6,597.5 L304.25,597.5 306.25,597.7 C308.3,598.05 309.35,599.75 309.35,602.9 L309.35,606.15 C309.35,608 309.05,609.25 308.5,609.9 307.95,610.6 306.5,610.95 304.25,610.95z M293.45,632.75 C293.45,631 293.8,629.7 294.45,628.85 295.1,628.05 296.5,627.65 298.6,627.65 L304.45,627.65 C306.4,627.65 307.75,628.05 308.4,628.9 309.05,629.8 309.35,631.1 309.35,632.75 L309.35,637.1 C309.35,638.95 309.05,640.25 308.45,641 307.85,641.75 306.45,642.1 304.25,642.1 L298.6,642.1 C296.7,642.1 295.4,641.75 294.65,641.05 293.85,640.3 293.45,639 293.45,637.1 L293.45,632.75z"/>
        <path id="path33" fill="#52A2F5" fill-opacity="1" d="M304.25,610.95 C306.5,610.95 307.95,610.6 308.5,609.9 309.05,609.25 309.35,608 309.35,606.15 L309.35,602.9 C309.35,599.75 308.3,598.05 306.25,597.7 L304.25,597.5 298.6,597.5 C296.7,597.5 295.4,597.8 294.65,598.45 293.85,599.1 293.45,600.55 293.45,602.9 L293.45,606.15 C293.45,608.2 293.8,609.55 294.55,610.1 295.3,610.65 296.65,610.95 298.6,610.95 L304.25,610.95z"/>
        <path id="path36" fill="#52A2F5" fill-opacity="1" d="M293.45,632.75 L293.45,637.1 C293.45,639 293.85,640.3 294.65,641.05 295.4,641.75 296.7,642.1 298.6,642.1 L304.25,642.1 C306.45,642.1 307.85,641.75 308.45,641 309.05,640.25 309.35,638.95 309.35,637.1 L309.35,632.75 C309.35,631.1 309.05,629.8 308.4,628.9 307.75,628.05 306.4,627.65 304.45,627.65 L298.6,627.65 C296.5,627.65 295.1,628.05 294.45,628.85 293.8,629.7 293.45,631 293.45,632.75z M344.7,585.85 C346.5,584 348.7,582.55 351.35,581.6 354,580.65 357,580.2 360.4,580.2 L378.25,580.2 C391.7,580.2 398.45,587.2 398.45,601.15 L398.45,639.1 C398.45,645.65 396.7,650.75 393.15,654.45 389.6,658.15 384.6,660 378.15,660 L360.3,660 C356.8,660 353.75,659.55 351.15,658.6 348.5,657.75 346.3,656.4 344.55,654.55 342.8,652.7 341.45,650.5 340.6,647.95 339.7,645.4 339.25,642.45 339.25,639.1 L339.25,602.25 C339.25,598.7 339.7,595.55 340.6,592.8 341.5,590.1 342.85,587.8 344.7,585.85z"/>
        <path id="path39" fill="#FFFFFF" fill-opacity="1" d="M344.7,585.85 C342.85,587.8 341.5,590.1 340.6,592.8 339.7,595.55 339.25,598.7 339.25,602.25 L339.25,639.1 C339.25,642.45 339.7,645.4 340.6,647.95 341.45,650.5 342.8,652.7 344.55,654.55 346.3,656.4 348.5,657.75 351.15,658.6 353.75,659.55 356.8,660 360.3,660 L378.15,660 C384.6,660 389.6,658.15 393.15,654.45 396.7,650.75 398.45,645.65 398.45,639.1 L398.45,601.15 C398.45,587.2 391.7,580.2 378.25,580.2 L360.4,580.2 C357,580.2 354,580.65 351.35,581.6 348.7,582.55 346.5,584 344.7,585.85z M371.2,641.05 L363.85,640.8 C363.1,640.55 362.3,639.95 361.55,639 360.8,637.95 360.4,636.5 360.4,634.6 L360.4,605.5 C360.4,603.4 360.85,601.8 361.75,600.75 362.65,599.7 364,599.15 365.85,599.15 L372.05,599.15 C373.8,599.15 375.1,599.7 376,600.75 376.85,601.8 377.3,603.4 377.3,605.5 L377.3,634.7 C377.3,637.4 376.8,639.15 375.8,639.9 374.85,640.65 373.3,641.05 371.2,641.05z"/>
        <path id="path42" fill="#52A2F5" fill-opacity="1" d="M371.2,641.05 C373.3,641.05 374.85,640.65 375.8,639.9 376.8,639.15 377.3,637.4 377.3,634.7 L377.3,605.5 C377.3,603.4 376.85,601.8 376,600.75 375.1,599.7 373.8,599.15 372.05,599.15 L365.85,599.15 C364,599.15 362.65,599.7 361.75,600.75 360.85,601.8 360.4,603.4 360.4,605.5 L360.4,634.6 C360.4,636.5 360.8,637.95 361.55,639 362.3,639.95 363.1,640.55 363.85,640.8 L371.2,641.05z"/>
      </g>
    </g>
  </g>
</svg>