<?xml version="1.0" encoding="utf-8"?>
<!-- Generator: flash2svg, http://dissentgraphics.com/tools/flash2svg -->
<svg id="Contacts" image-rendering="optimizeSpeed" baseProfile="basic" version="1.1" style="background-color:#FFFFFF" x="0px" y="0px" width="1024px" height="1024px" viewBox="0 0 1024 1024" enable-background="new 0 0 1024 1024" xmlns="http://www.w3.org/2000/svg" xmlns:xlink="http://www.w3.org/1999/xlink">
  <defs transform="matrix(1 0 0 1 0 0) "/>
  <g id="shadow">
    <g id="shape">
      <path id="path" fill="#000000" fill-opacity="0.09803921568627451" d="M969.6,351.25 Q961,330.4 950.2,310.4 C946.15,302.85 941.85,295.35 937.3,288 917.75,256.3 893.9,226.35 865.75,198.2 773.6,106.05 662.3,59.95 531.95,59.95 401.6,59.95 290.35,106.05 198.2,198.2 106.05,290.35 59.95,401.6 59.95,531.95 59.95,662.3 106.05,773.6 198.2,865.75 290.35,957.9 401.6,1003.95 531.95,1003.95 662.3,1003.95 773.6,957.9 865.75,865.75 916.5,814.95 953.3,758.35 976.1,696 994.65,645.15 1003.95,590.5 1003.95,531.95 1003.95,487.05 998.5,444.4 987.55,404 986.3,399.45 985,394.9 983.65,390.4 979.55,377.1 974.85,364.05 969.6,351.25z"/>
    </g>
  </g>
  <g id="circle">
    <g id="shape2">
      <path id="path1" fill="#B79B5C" fill-opacity="1" d="M969.7,392 C968.6,387.65 967.35,383 966.05,378.4 963.55,369.65 960.7,360.8 957.6,352.05 951.15,333.8 943.45,316 934.45,298.4 930.65,291 926.5,283.45 922.15,276 901.85,241.5 876.35,208.8 845.8,178.25 773.2,105.65 688.65,61.6 592.15,46.2 575.9,43.6 559.35,41.8 542.1,40.85 532.4,40.3 522.25,40 512,40 502.65,40 493.4,40.25 484.1,40.75 365.75,46.85 263.8,92.7 178.25,178.25 Q40,316.5 40,512 C40,642.35 86.1,753.65 178.25,845.8 248.65,916.15 330.15,959.65 422.2,976.2 L422.175,976.175 L258,812 756,226 980.425,450.425 L980.45,450.45 C978.05,430.65 974.5,411.15 969.7,392z"/>
      <path id="path2" fill="#927C49" fill-opacity="1" d="M983.7,530.5 C983.9,524.45 984,518.25 984,512 984,511.35 984,510.65 984,510 984,509.65 984,509.35 984,509 983.9,489.1 982.75,469.65 980.45,450.45 L980.425,450.425 L756,226 258,812 422.175,976.175 L422.2,976.2 C442.65,979.85 463.1,982.2 484.1,983.3 484.25,983.3 484.35,983.3 484.5,983.3 493,983.75 501.1,984 509,984 510.2,984 511.1,984 512,984 522.3,984 532.5,983.7 542.1,983.2 544.6,983.05 546.85,982.9 549.05,982.75 569.25,981.3 588.95,978.7 607.75,975.05 615.7,973.5 623.55,971.75 631.15,969.9 711.95,949.6 783.3,908.3 845.8,845.8 894.4,797.2 930.2,743.3 953.15,684 971.6,636.35 981.8,585.2 983.7,530.5z"/>
    </g>
  </g>
  <g id="ico-shadow">
    <g id="shape6">
      <path id="path3" fill="#000000" fill-opacity="0.2" d="M983.7,530.5 C983.9,524.45 984,518.25 984,512 984,511.35 984,510.65 984,510 984,509.65 984,509.35 984,509 983.9,489.1 982.75,469.65 980.45,450.45 L980.425,450.425 L756,226 258,812 422.175,976.175 L422.2,976.2 C442.65,979.85 463.1,982.2 484.1,983.3 484.25,983.3 484.35,983.3 484.5,983.3 493,983.75 501.1,984 509,984 Q510.494,984 512,984 C522.3,984 532.5,983.7 542.1,983.2 544.6,983.05 546.85,982.9 549.05,982.75 569.25,981.3 588.95,978.7 607.75,975.05 615.7,973.5 623.55,971.75 631.15,969.9 711.95,949.6 783.3,908.3 845.8,845.8 894.4,797.2 930.2,743.3 953.15,684 971.6,636.35 981.8,585.2 983.7,530.5z"/>
    </g>
  </g>
  <g id="ico">
    <g id="group">
      <g id="drawingObject">
        <path id="path4" fill="#F8E4C4" fill-opacity="1" d="M761.8,354.35 L754.25,354.35 C747.2,354.35 741.5,360.05 741.5,367.1 L741.5,457 C741.5,464.05 747.2,469.75 754.25,469.75 L761.8,469.75 Q767.1,469.75 770.8,466 774.55,462.3 774.55,457 L774.55,367.1 C774.55,360.05 768.85,354.35 761.8,354.35z"/>
      </g>
      <g id="drawingObject1">
        <path id="path5" fill="#F8E4C4" fill-opacity="1" d="M774.55,245.2 C774.55,238.2 768.85,232.45 761.8,232.45 L754.25,232.45 C747.2,232.45 741.5,238.2 741.5,245.2 L741.5,335.15 C741.5,342.15 747.2,347.9 754.25,347.9 L761.8,347.9 Q767.1,347.9 770.8,344.15 774.55,340.4 774.55,335.15 L774.55,245.2z"/>
      </g>
      <g id="drawingObject2">
        <path id="path6" fill="#F8E4C4" fill-opacity="1" d="M763.75,476.2 L756.2,476.2 C749.15,476.2 743.45,481.9 743.45,488.95 L743.45,578.85 C743.45,585.9 749.15,591.6 756.2,591.6 L763.75,591.6 Q769.05,591.6 772.8,587.85 776.55,584.15 776.55,578.85 L776.55,488.95 C776.55,481.9 770.8,476.2 763.75,476.2z"/>
      </g>
      <g id="drawingObject3">
        <path id="path7" fill="#F8E4C4" fill-opacity="1" d="M763.75,598.05 L756.2,598.05 C749.15,598.05 743.45,603.75 743.45,610.8 L743.45,700.7 C743.45,707.75 749.15,713.45 756.2,713.45 L763.75,713.45 Q769.05,713.45 772.8,709.7 776.55,706 776.55,700.7 L776.55,610.8 C776.55,603.75 770.8,598.05 763.75,598.05z"/>
      </g>
    </g>
    <g id="group1">
      <g id="group2">
        <g id="drawingObject4">
          <path id="path8" fill="#766242" fill-opacity="1" d="M759.2,239.25 C759.2,218.15 748.7,207.55 727.6,207.55 L349.25,207.55 349.25,768.25 699.35,768.25 699.35,759.55 726.45,759.55 726.45,758.5 721.6,758.5 721.6,744.3 731.95,744.3 C739.35,744.1 745.8,741.35 751.05,736.1 756.3,730.85 759.05,724.5 759.2,717 L759.2,239.25z"/>
        </g>
        <g id="drawingObject5">
          <path id="path9" fill="#604F37" fill-opacity="1" d="M699.35,768.25 L699.35,759.55 726.45,759.55 726.45,758.5 721.6,758.5 721.6,744.3 731.95,744.3 C739.35,744.1 745.8,741.35 751.05,736.1 756.3,730.85 759.05,724.5 759.2,717 L759.2,510.75 634.3,386.25 530.7,373.35 465.7,419.5 444.55,530.85 468.55,596.65 660.2,768.25 699.35,768.25z"/>
        </g>
        <g id="drawingObject6">
          <path id="path10" fill="#3A3020" fill-opacity="1" d="M699.35,786.05 L699.35,768.25 349.25,768.25 349.25,207.55 281.1,207.55 C260,207.55 249.45,218.15 249.45,239.25 L249.45,784.75 C249.45,805.85 260,816.45 281.1,816.45 L727.6,816.45 C748.2,816.45 758.8,806.3 759.2,786.05 L699.35,786.05z"/>
        </g>
      </g>
    </g>
    <g id="group3">
      <g id="group4">
        <g id="drawingObject7">
          <path id="path11" fill="#F8E4C4" fill-opacity="1" d="M730.85,785.85 L730.85,744.25 300.1,744.25 C294.35,744.25 289.45,746.25 285.35,750.25 281.3,754.35 279.3,759.25 279.3,765 L279.3,765.1 C279.3,770.85 281.3,775.75 285.35,779.75 289.45,783.8 294.35,785.85 300.1,785.85 L730.85,785.85z"/>
        </g>
      </g>
    </g>
    <g id="drawingObject8">
      <path id="path12" fill="#D7BA85" fill-opacity="1" d="M670.15,469.25 C670.15,438.75 659.4,411.1 639.9,391.45 620.15,371.5 592.05,360.55 560.75,360.55 521.9,360.55 486.8,375.75 461.9,403.3 438.15,429.55 425.1,464.95 425.1,502.95 425.1,537.15 436.8,566.65 458.9,588.25 479.7,608.6 508.05,619.8 538.75,619.8 564.9,619.8 585.25,615.25 604.8,604.9 L609.6,602.4 599.5,575.25 593.2,578.75 C579.85,586.25 561.9,590.4 542.65,590.4 518.15,590.4 497.1,582.15 481.85,566.6 466.05,550.5 457.7,527.75 457.7,500.85 457.7,468 468,439.8 487.55,419.2 505.85,399.9 530.85,389.25 557.9,389.25 607.05,389.25 637.55,420.75 637.55,471.4 637.55,509.7 619.15,530.1 605.85,530.1 L605.65,530.1 C603.1,530.05 602.05,529.1 601.35,528.25 599.8,526.3 596.6,519.4 600.9,497.7 L613.85,428.75 609.45,426.75 C598.4,421.65 583.65,418.75 568.9,418.75 543.95,418.75 520.85,428.5 503.9,446.2 487.85,462.95 478.65,485.85 478.65,509 478.65,542.4 501.05,559.9 523.15,559.9 542.2,559.9 557.65,552.55 570.1,537.6 571.9,543.5 574.75,547.6 577.4,550.35 583.25,556.5 591.55,559.9 600.85,559.9 635.3,559.9 670.15,528.75 670.15,469.25z M568.85,485.2 C565.3,505.15 548.3,528.35 531.65,528.35 516.7,528.35 514.45,515.3 514.45,507.55 514.45,476.3 537.45,449.9 564.65,449.9 Q569.9,449.9 575.2,450.85 L568.85,485.2z"/>
    </g>
  </g>
</svg>