
<svg xmlns="http://www.w3.org/2000/svg" version="1.1" xmlns:xlink="http://www.w3.org/1999/xlink" preserveAspectRatio="none" x="0px" y="0px" width="1024px" height="1024px" viewBox="0 0 1024 1024">
<defs>
<g id="Layer4_0_FILL">
<path fill="#000000" fill-opacity="0.09803921568627451" stroke="none" d="
M 969.6 351.25
Q 961 330.4 950.2 310.4 944.1 299.05 937.3 288 907.95 240.45 865.75 198.2 727.5 59.95 531.95 59.95 336.45 59.95 198.2 198.2 59.95 336.45 59.95 531.95 59.95 727.5 198.2 865.75 336.45 1003.95 531.95 1003.95 727.5 1003.95 865.75 865.75 941.9 789.55 976.1 696 1003.95 619.75 1003.95 531.95 1003.95 464.6 987.55 404 985.7 397.15 983.65 390.4 977.5 370.45 969.6 351.25 Z"/>
</g>

<g id="Layer3_0_FILL">
<path fill="#333333" stroke="none" d="
M 969.7 392
Q 967.95 385.15 966.05 378.4 964.52578125 373.114453125 962.85 367.85 960.3787109375 359.903125 957.6 352.05 947.85 324.5 934.45 298.4 928.65 287.05 922.15 276 891.5 224 845.8 178.25 736.8 69.25 592.15 46.2 567.65 42.3 542.1 40.85 527.2 40 512 40 497.9 40 484.1 40.75 306.55 49.95 178.25 178.25 40 316.5 40 512 40 707.55 178.25 845.8 263.0400390625 930.55703125 369.35 963.35 423.8880859375 980.1630859375 484.1 983.3 484.3 983.3 484.5 983.3 496.65 983.9 509 984 510.5 984 512 984 527.25 984 542.1 983.2 545.6 983 549.05 982.75 579.1 980.6 607.75 975.05 619.55 972.75 631.15 969.9 751.75 939.85 845.8 845.8 918.7 772.85 953.15 684 980.9 612.4 983.7 530.5 984 521.3 984 512 984 511 984 510 984 509.5 984 509 983.65 447.7 969.7 392 Z"/>
</g>

<g id="Layer2_0_FILL">
<path fill="#000000" fill-opacity="0.2" stroke="none" d="
M 980.3 574.5
L 751.8 346 318.05 728.2 570.6 980.75
Q 589.4603515625 978.59296875 607.75 975.05 619.55 972.75 631.15 969.9 751.75 939.85 845.8 845.8 918.7 772.85 953.15 684 973.3146484375 631.971484375 980.3 574.5 Z"/>
</g>

<g id="Layer0_0_FILL">
<path fill="#21C6FC" stroke="none" d="
M 416 609
L 416 787.1
Q 460.8123046875 802.5 512 802.5 563.1931640625 802.5 608 787.1
L 608 609 416 609 Z"/>

<path fill="#1DA9FB" stroke="none" d="
M 237.2 609
Q 258.0826171875 668.9326171875 306.55 717.4 355.4548828125 766.3048828125 416 787.1
L 416 609 237.2 609
M 416 609
L 608 609 608 414 416 414 416 609 Z"/>

<path fill="#1782FB" stroke="none" d="
M 221.5 414
L 221.5 512
Q 221.5 563.7662109375 237.2 609
L 416 609 416 414 221.5 414
M 608 236.9
Q 563.625390625 221.654296875 512.95 221.5
L 416 221.5 416 414 608 414 608 236.9 Z"/>

<path fill="#1465F8" stroke="none" d="
M 312 221.5
Q 275.8431640625 223.4068359375 249.7 249.55 222.6 276.65 221.5 314.5
L 221.5 414 416 414 416 221.5 312 221.5
M 366.8 318.5
Q 366.8 338.2 352.9 352.1 339 366 319.3 366 299.6 366 285.7 352.1 271.8 338.2 271.8 318.5 271.8 298.8 285.7 284.9 299.6 271 319.3 271 339 271 352.9 284.9 366.8 298.8 366.8 318.5 Z"/>

<path fill="#1AA7F9" stroke="none" d="
M 786.4 414
Q 765.4958984375 354.6458984375 717.4 306.55 668.5369140625 257.6869140625 608 236.9
L 608 414 786.4 414 Z"/>

<path fill="#23D2FC" stroke="none" d="
M 717.4 717.4
Q 765.8958984375 668.9326171875 786.75 609
L 608 609 608 787.1
Q 668.527734375 766.301171875 717.4 717.4 Z"/>

<path fill="#21C4FB" stroke="none" d="
M 802.5 512
Q 802.5 459.6681640625 786.4 414
L 608 414 608 609 786.75 609
Q 802.5 563.7662109375 802.5 512 Z"/>
</g>
</defs>

<g transform="matrix( 1, 0, 0, 1, 0,0) ">
<use xlink:href="#Layer4_0_FILL"/>
</g>

<g transform="matrix( 1, 0, 0, 1, 0,0) ">
<use xlink:href="#Layer3_0_FILL"/>
</g>

<g transform="matrix( 1, 0, 0, 1, 0,0) ">
<use xlink:href="#Layer2_0_FILL"/>
</g>

<g transform="matrix( 1, 0, 0, 1, 0,0) ">
<use xlink:href="#Layer0_0_FILL"/>
</g>
</svg>
