<?xml version="1.0" encoding="utf-8"?>
<!-- Generator: flash2svg, http://dissentgraphics.com/tools/flash2svg -->
<svg xmlns:xlink="http://www.w3.org/1999/xlink" id="Airport-Utility" image-rendering="optimizeSpeed" baseProfile="basic" version="1.1" style="background-color:#ffffff" x="0px" y="0px" width="1024px" height="1024px" viewBox="0 0 1024 1024" enable-background="new 0 0 1024 1024" xmlns="http://www.w3.org/2000/svg">
  <defs transform="matrix(1 0 0 1 0 0) "/>
  <g id="shadow">
    <g id="shape">
      <path id="path" fill="#000000" fill-opacity="0.09803921568627451" d="M969.65,351.3 Q961.05,330.45 950.25,310.45 C946.2,302.9 941.9,295.4 937.35,288.05 917.8,256.35 893.95,226.4 865.8,198.25 773.65,106.1 662.35,60 532,60 401.65,60 290.4,106.1 198.25,198.25 106.1,290.4 60,401.65 60,532 60,662.35 106.1,773.65 198.25,865.8 290.4,957.95 401.65,1004 532,1004 662.35,1004 773.65,957.95 865.8,865.8 916.55,815 953.35,758.4 976.15,696.05 994.7,645.2 1004,590.55 1004,532 1004,487.1 998.55,444.45 987.6,404.05 986.35,399.5 985.05,394.95 983.7,390.45 979.6,377.15 974.9,364.1 969.65,351.3z"/>
    </g>
  </g>
  <g id="bg">
    <g id="shape2">
      <path id="path1" fill="#374268" fill-opacity="1" d="M929.85,289.65 C927.5,285.3 924.9,280.65 922.2,276.05 901.9,241.55 876.4,208.85 845.85,178.3 773.25,105.7 688.7,61.65 592.2,46.25 575.95,43.65 559.4,41.85 542.15,40.9 532.45,40.35 522.3,40.05 512.05,40.05 502.7,40.05 493.45,40.3 484.15,40.8 365.8,46.9 263.85,92.75 178.3,178.3 157.8,198.8 139.55,220.25 123.6,242.7 108.25,264.25 95.05,286.7 84,309.9 L83.975,309.875 Q40.05,401.873 40.05,512.05 C40.05,642.4 86.15,753.7 178.3,845.85 235,902.5 298.85,941.75 369.4,963.4 406.15,974.65 444.2,981.25 484.15,983.35 484.3,983.35 484.4,983.35 484.55,983.35 493.05,983.8 501.15,984.05 509.05,984.05 510.25,984.05 511.15,984.05 512.05,984.05 522.35,984.05 532.55,983.75 542.15,983.25 544.65,983.1 546.9,982.95 549.1,982.8 569.3,981.35 589,978.75 607.8,975.1 615.75,973.55 623.6,971.8 631.2,969.95 712,949.65 783.35,908.35 845.85,845.85 894.45,797.25 930.25,743.35 953.2,684.05 971.65,636.4 981.85,585.25 983.75,530.55 983.95,524.5 984.05,518.3 984.05,512.05 984.05,511.4 984.05,510.7 984.05,510.05 984.05,509.7 984.05,509.4 984.05,509.05 983.85,468.4 979.1,429.55 969.75,392.05 968.65,387.7 967.4,383.05 966.1,378.45 965.1,375.05 964.1,371.6 962.95,367.95 961.35,362.8 959.55,357.45 957.65,352.1 952.6,337.85 946.8,323.85 940.2,309.95 938.35,306.15 936.45,302.3 934.5,298.45 933.05,295.6 931.55,292.75 929.85,289.65z"/>
    </g>
  </g>
  <g id="bg.__20copy">
    <g id="shape4">
      <path id="path2" fill="#000000" fill-opacity="0.2" d="M979.25,583.1 L801.2,405.05 512.05,288.05 333.225,357.55 194,483.5 669.175,958.675 L669.2,958.7 C734.65,935.9 793.35,898.35 845.85,845.85 894.45,797.25 930.25,743.35 953.2,684.05 Q971.862,635.899 979.25,583.1z"/>
    </g>
  </g>
  <g id="Calque.__203">
    <g id="shape6">
      <path id="path3" fill="#90A2D8" fill-opacity="1" d="M783.45,386.25 C783.25,386.05 783.05,385.85 782.85,385.6 708,311.1 617.75,273.85 512.05,273.85 L512.05,321.85 C604.5,321.8 683.5,354.35 748.95,419.5 L749,419.6 C749.15,419.75 749.35,419.95 749.55,420.15 767.45,438 782.95,456.9 796,476.85 799.6,482.35 804.65,485.8 811.1,487.2 817.55,488.55 823.55,487.45 829.1,483.8 834.65,480.15 838.15,475.1 839.5,468.65 840.85,462.2 839.75,456.2 836.15,450.6 821.35,428 803.8,406.55 783.45,386.25z M677.55,490.95 C677.55,491 677.55,491 677.6,491 677.75,491.15 677.95,491.35 678.1,491.5 695.8,509.25 710.1,528.35 721,548.85 724.15,554.65 728.85,558.55 735.15,560.55 741.4,562.45 747.5,561.85 753.4,558.8 759.25,555.65 763.2,550.95 765.15,544.65 767.05,538.35 766.45,532.25 763.4,526.4 750.35,501.75 733.2,478.85 712,457.6 711.75,457.4 711.55,457.2 711.4,457.05 L711.4,457 C656.35,402.3 589.9,374.95 512.1,374.95 L512.05,374.95 512.05,422.9 512.1,422.9 C576.7,422.85 631.85,445.55 677.55,490.95z M650.15,638.2 C655.8,641.6 661.85,642.45 668.25,640.8 674.65,639.15 679.55,635.45 682.9,629.75 686.25,624.05 687.15,618 685.55,611.65 677.8,581.45 662.2,554.55 638.65,531 638.4,530.8 638.2,530.6 638.05,530.45 L638,530.4 C603.15,495.85 561.15,478.6 512.05,478.6 L512.05,526.6 C548,526.55 578.7,539.15 604.25,564.5 L604.15,564.35 C604.3,564.5 604.5,564.7 604.75,564.9 621.9,582.05 633.3,601.6 639.05,623.6 640.7,629.95 644.4,634.85 650.15,638.2z M564,605.7 C563.85,605.5 563.6,605.25 563.4,605.05 549.2,591.1 532.05,584.2 512.05,584.2 L512.05,731.15 Q542.5,731.15 564,709.65 C578.35,695.3 585.55,678 585.55,657.65 585.55,637.35 578.35,620 564,605.7z"/>
      <path id="path4" fill="#D7DFFB" fill-opacity="1" d="M512.05,321.85 L512.05,273.85 C406,273.85 315.55,311.3 240.65,386.25 240.4,386.45 240.2,386.65 240,386.85 L239.95,386.95 C219.9,407.05 202.6,428.25 187.95,450.6 184.35,456.2 183.25,462.2 184.6,468.65 185.95,475.1 189.45,480.15 195,483.8 200.55,487.45 206.55,488.55 213,487.2 219.45,485.8 224.5,482.35 228.1,476.85 241,457.2 256.3,438.5 273.95,420.75 L273.9,420.75 C274.1,420.55 274.3,420.35 274.55,420.15 340.1,354.55 419.3,321.8 512.05,321.85z M312,457.6 C311.8,457.8 311.6,458 311.35,458.25 L311.3,458.3 C290.4,479.3 273.55,502 260.7,526.4 257.65,532.25 257.05,538.35 259,544.65 260.95,550.95 264.9,555.65 270.75,558.8 276.6,561.85 282.7,562.45 288.95,560.5 295.25,558.55 299.95,554.65 303.1,548.8 313.85,528.5 327.95,509.6 345.3,492.1 L345.25,492.1 C345.45,491.9 345.65,491.7 345.9,491.5 L345.9,491.55 C391.8,445.75 447.2,422.85 512.05,422.9 L512.05,374.95 C433.9,374.95 367.25,402.5 312,457.6z M512.05,526.6 L512.05,478.6 C462.6,478.55 420.4,496.05 385.4,531 385.2,531.25 385,531.45 384.8,531.65 L384.65,531.75 C361.55,555.15 346.2,581.75 338.65,611.55 337,617.95 337.85,624 341.2,629.7 344.55,635.35 349.45,639.05 355.9,640.7 362.25,642.35 368.3,641.5 374.05,638.15 379.75,634.8 383.45,629.9 385.1,623.5 390.75,601.85 401.95,582.5 418.8,565.5 L418.7,565.55 C418.9,565.35 419.1,565.15 419.3,564.9 L419.3,565 C444.95,539.4 475.85,526.6 512.05,526.6z M460.1,605.7 C459.9,605.9 459.65,606.15 459.45,606.3 445.5,620.5 438.55,637.65 438.55,657.65 438.55,678 445.75,695.3 460.1,709.65 474.4,723.95 491.7,731.15 512.05,731.15 L512.05,584.2 C491.7,584.2 474.4,591.35 460.1,605.7z"/>
    </g>
  </g>
</svg>