
<svg xmlns="http://www.w3.org/2000/svg" version="1.1" xmlns:xlink="http://www.w3.org/1999/xlink" preserveAspectRatio="none" x="0px" y="0px" width="1024px" height="1024px" viewBox="0 0 1024 1024">
<defs>
<g id="Layer6_0_FILL">
<path fill="#000000" fill-opacity="0.09803921568627451" stroke="none" d="
M 965.6 347.25
Q 957 326.4 946.2 306.4 940.1 295.05 933.3 284 903.95 236.45 861.75 194.2 723.5 55.95 527.95 55.95 332.45 55.95 194.2 194.2 55.95 332.45 55.95 527.95 55.95 723.5 194.2 861.75 332.45 999.95 527.95 999.95 723.5 999.95 861.75 861.75 937.9 785.55 972.1 692 999.95 615.75 999.95 527.95 999.95 460.6 983.55 400 981.7 393.15 979.65 386.4 973.5 366.45 965.6 347.25 Z"/>
</g>

<g id="Layer5_0_FILL">
<path fill="#FFFFFF" stroke="none" d="
M 846.95 178
Q 846.449609375 177.499609375 845.95 177 779.5625 110.95390625 700 76.65 614.0236328125 39.55 512.65 39.55 411.1109375 39.55 325 76.75 245.051953125 111.348046875 178.4 178 96.8501953125 259.5498046875 63.3 361 39.95 431.780078125 39.95 512.25 39.95 708.1 178.4 846.55 301.65 969.85 470.35 983.3 491.15 985 512.65 985 523.75 985 534.65 984.55 716.35 977.15 846.95 846.55 917.3 776.2 951.9 691.05 961.85 666.5 968.9 640.75 985.4 579.9 985.4 512.25 985.4 432.3505859375 962.35 362 929.7189453125 262.4509765625 850.9 182 848.9548828125 180.0048828125 846.95 178
M 833.8 190.3
Q 836.0185546875 192.5177734375 838.2 194.75 912.926953125 271.239453125 944.3 365.7 944.467578125 366.1541015625 944.6 366.55 967.05 434.62734375 967.05 512 967.05 577.1 951.2 635.7 944.4 660.45 934.8 684.1 901.5 766.05 833.8 833.8 708.05 959.5 533.2 966.6 522.7 967.05 512 967.05 491.35 967.05 471.3 965.4 308.95 952.5 190.3 833.8 57 700.5 57 512 57 433.998046875 79.8 365.45 112.1599609375 268.3814453125 190.3 190.3 254.27578125 126.300390625 330.95 93 414.028125 57 512 57 605.344140625 57 685.15 89.7 689.5208984375 91.48671875 693.85 93.35 769.7791015625 126.4734375 833.2 189.7 833.5123046875 190.0123046875 833.8 190.3 Z"/>

<path fill="#E1E1E1" stroke="none" d="
M 838.2 194.75
Q 836.0185546875 192.5177734375 833.8 190.3 833.5123046875 190.0123046875 833.2 189.7 769.7791015625 126.4734375 693.85 93.35 689.5208984375 91.48671875 685.15 89.7 605.344140625 57 512 57 414.028125 57 330.95 93 254.27578125 126.300390625 190.3 190.3 112.1599609375 268.3814453125 79.8 365.45 57 433.998046875 57 512 57 700.5 190.3 833.8 308.95 952.5 471.3 965.4 491.35 967.05 512 967.05 522.7 967.05 533.2 966.6 708.05 959.5 833.8 833.8 901.5 766.05 934.8 684.1 944.4 660.45 951.2 635.7 967.05 577.1 967.05 512 967.05 434.62734375 944.6 366.55 944.467578125 366.1541015625 944.3 365.7 912.926953125 271.239453125 838.2 194.75
M 660.75 439.9
Q 676.82109375 472.630078125 676.85 512 676.8 580.3 628.55 628.55 580.3 676.8 512 676.85 443.7 676.8 395.45 628.55 347.2 580.3 347.2 512 347.2 473.8740234375 362.2 442 374.1337890625 416.7662109375 395.45 395.45 412.477734375 378.422265625 432 367.4 467.803515625 347.2 512 347.2 551.52890625 347.2 584.35 363.35 607.916796875 374.972265625 628 394.9 628.287109375 395.187109375 628.55 395.45 630.8029296875 397.7029296875 632.95 400 650.2865234375 418.537109375 660.75 439.9 Z"/>

<path fill="#A5A4A4" stroke="none" d="
M 676.85 512
Q 676.82109375 472.630078125 660.75 439.9 650.2865234375 418.537109375 632.95 400 630.8029296875 397.7029296875 628.55 395.45 628.287109375 395.187109375 628 394.9 607.916796875 374.972265625 584.35 363.35 551.52890625 347.2 512 347.2 467.803515625 347.2 432 367.4 412.477734375 378.422265625 395.45 395.45 374.1337890625 416.7662109375 362.2 442 347.2 473.8740234375 347.2 512 347.2 580.3 395.45 628.55 443.7 676.8 512 676.85 580.3 676.8 628.55 628.55 676.8 580.3 676.85 512
M 367.85 512
Q 367.8 452.3 410.05 410.05 452.3 367.8 512 367.85 571.7 367.8 613.95 410.05 656.2 452.3 656.2 512 656.2 571.7 613.95 613.95 571.7 656.2 512 656.2 452.3 656.2 410.05 613.95 367.8 571.7 367.85 512
M 576.65 576.65
Q 603.4 549.9 603.45 512 603.4 474.1 576.65 447.35 549.9 420.6 512 420.6 474.1 420.6 447.35 447.35 420.6 474.1 420.6 512 420.6 549.9 447.35 576.65 474.1 603.4 512 603.45 549.9 603.4 576.65 576.65
M 512 441.25
Q 541.3 441.2 562.05 461.95 582.8 482.7 582.8 512 582.8 541.3 562.05 562.05 541.3 582.8 512 582.8 482.7 582.8 461.95 562.05 441.2 541.3 441.25 512 441.2 482.7 461.95 461.95 482.7 441.2 512 441.25 Z"/>

<path fill="#CCCCCC" stroke="none" d="
M 410.05 410.05
Q 367.8 452.3 367.85 512 367.8 571.7 410.05 613.95 452.3 656.2 512 656.2 571.7 656.2 613.95 613.95 656.2 571.7 656.2 512 656.2 452.3 613.95 410.05 571.7 367.8 512 367.85 452.3 367.8 410.05 410.05
M 603.45 512
Q 603.4 549.9 576.65 576.65 549.9 603.4 512 603.45 474.1 603.4 447.35 576.65 420.6 549.9 420.6 512 420.6 474.1 447.35 447.35 474.1 420.6 512 420.6 549.9 420.6 576.65 447.35 603.4 474.1 603.45 512 Z"/>
</g>

<g id="Layer3_0_FILL">
<path fill="#E4E4E4" stroke="none" d="
M 646.2 512
Q 646.2 456.45 606.9 417.1 567.55 377.8 512 377.85 456.45 377.8 417.1 417.1 377.8 456.45 377.85 512 377.8 567.55 417.1 606.9 456.45 646.2 512 646.2 567.55 646.2 606.9 606.9 646.2 567.55 646.2 512
M 613.45 512
Q 613.4 554.05 583.7 583.7 554.05 613.4 512 613.45 469.95 613.4 440.3 583.7 410.6 554.05 410.6 512 410.6 469.95 440.3 440.3 469.95 410.6 512 410.6 554.05 410.6 583.7 440.3 613.4 469.95 613.45 512 Z"/>
</g>

<g id="Layer2_0_FILL">
<path fill="#CCCCCC" stroke="none" d="
M 613.95 410.05
Q 613.2 409.3 612.45 408.55 570.65 367.8 512 367.85 452.3 367.8 410.05 410.05 367.8 452.3 367.85 512 367.8 570.65 408.55 612.45 409.3 613.2 410.05 613.95 452.3 656.2 512 656.2 571.7 656.2 613.95 613.95 656.2 571.7 656.2 512 656.2 452.3 613.95 410.05
M 589.1 401.95
Q 598.35 408.6 606.9 417.1 607.15 417.35 607.4 417.6 646.2 456.8 646.2 512 646.2 567.55 606.9 606.9 567.55 646.2 512 646.2 456.8 646.2 417.6 607.4 417.35 607.15 417.1 606.9 408.6 598.35 401.95 589.1 377.8 555.5 377.85 512 377.8 456.45 417.1 417.1 456.45 377.8 512 377.85 555.5 377.8 589.1 401.95
M 584.2 440.8
Q 583.95 440.55 583.7 440.3 575.1 431.7 565.45 425.55 541.85 410.6 512 410.6 469.95 410.6 440.3 440.3 410.6 469.95 410.6 512 410.6 541.85 425.55 565.45 431.7 575.1 440.3 583.7 440.55 583.95 440.8 584.2 470.3 613.4 512 613.45 554.05 613.4 583.7 583.7 613.4 554.05 613.45 512 613.4 470.3 584.2 440.8
M 575.15 445.9
Q 575.9 446.6 576.65 447.35 603.4 474.1 603.45 512 603.4 549.9 576.65 576.65 549.9 603.4 512 603.45 474.1 603.4 447.35 576.65 446.6 575.9 445.9 575.15 420.6 548.85 420.6 512 420.6 474.1 447.35 447.35 474.1 420.6 512 420.6 548.85 420.6 575.15 445.9 Z"/>

<path fill="#A5A4A4" stroke="none" d="
M 512 441.25
Q 540.25 441.2 560.55 460.5
L 575.15 445.9
Q 548.85 420.6 512 420.6 474.1 420.6 447.35 447.35 420.6 474.1 420.6 512 420.6 548.85 445.9 575.15
L 460.5 560.55
Q 441.2 540.25 441.25 512 441.2 482.7 461.95 461.95 482.7 441.2 512 441.25
M 432 367.4
Q 412.5 378.4 395.45 395.45 390.8 400.1 386.6 404.95 371.55 422.25 362.25 442 347.2 473.85 347.2 512 347.2 579.25 393.95 627.05
L 408.55 612.45
Q 367.8 570.65 367.85 512 367.8 452.3 410.05 410.05 452.3 367.8 512 367.85 570.65 367.8 612.45 408.55
L 627.05 393.95
Q 607.35 374.7 584.35 363.35 551.55 347.2 512 347.2 467.8 347.2 432 367.4 Z"/>

<path fill="#8C8C8C" stroke="none" d="
M 576.65 447.35
Q 575.9 446.6 575.15 445.9
L 560.55 460.5
Q 561.3 461.2 562.05 461.95 582.8 482.7 582.8 512 582.8 541.3 562.05 562.05 541.3 582.8 512 582.8 482.7 582.8 461.95 562.05 461.2 561.3 460.5 560.55
L 445.9 575.15
Q 446.6 575.9 447.35 576.65 474.1 603.4 512 603.45 549.9 603.4 576.65 576.65 603.4 549.9 603.45 512 603.4 474.1 576.65 447.35
M 669.15 563.35
Q 676.85 539.25 676.85 512 676.8 472.65 660.8 439.95 650.3 418.55 632.95 400 630.8 397.7 628.55 395.45 628.3 395.2 628.05 394.95 627.55 394.45 627.05 393.95
L 612.45 408.55
Q 613.2 409.3 613.95 410.05 656.2 452.3 656.2 512 656.2 571.7 613.95 613.95 571.7 656.2 512 656.2 452.3 656.2 410.05 613.95 409.3 613.2 408.55 612.45
L 393.95 627.05
Q 394.7 627.8 395.45 628.55 443.7 676.8 512 676.85 560.1 676.8 598.25 652.9 614.25 642.85 628.55 628.55 657.55 599.55 669.15 563.35 Z"/>

<path fill="#E4E4E4" stroke="none" d="
M 607.4 417.6
L 584.2 440.8
Q 613.4 470.3 613.45 512 613.4 554.05 583.7 583.7 554.05 613.4 512 613.45 470.3 613.4 440.8 584.2
L 417.6 607.4
Q 456.8 646.2 512 646.2 567.55 646.2 606.9 606.9 646.2 567.55 646.2 512 646.2 456.8 607.4 417.6 Z"/>

<path fill="#FFFFFF" stroke="none" d="
M 584.2 440.8
L 607.4 417.6
Q 607.15 417.35 606.9 417.1 598.35 408.6 589.1 401.95 555.5 377.8 512 377.85 456.45 377.8 417.1 417.1 377.8 456.45 377.85 512 377.8 555.5 401.95 589.1 408.6 598.35 417.1 606.9 417.35 607.15 417.6 607.4
L 440.8 584.2
Q 440.55 583.95 440.3 583.7 431.7 575.1 425.55 565.45 410.6 541.85 410.6 512 410.6 469.95 440.3 440.3 469.95 410.6 512 410.6 541.85 410.6 565.45 425.55 575.1 431.7 583.7 440.3 583.95 440.55 584.2 440.8 Z"/>
</g>

<path id="Layer0_0_1_STROKES" stroke="#FFFFFF" stroke-opacity="0.8" stroke-width="63.6" stroke-linejoin="round" stroke-linecap="round" fill="none" d="
M 639.05 138.4
Q 722.25 164 788.65 230.3 846.9 288.6 873.7 359.85
M 381.85 881.65
Q 298.65 856.05 232.25 789.75 174 731.45 147.2 660.2"/>
</defs>

<g transform="matrix( 1, 0, 0, 1, 0,0) ">
<use xlink:href="#Layer6_0_FILL"/>
</g>

<g transform="matrix( 1, 0, 0, 1, 0,0) ">
<use xlink:href="#Layer5_0_FILL"/>
</g>

<g transform="matrix( 1, 0, 0, 1, 0,0) ">
<use xlink:href="#Layer3_0_FILL"/>
</g>

<g transform="matrix( 1, 0, 0, 1, 0,0) ">
<use xlink:href="#Layer2_0_FILL"/>
</g>

<g transform="matrix( 1, 0, 0, 1, 0,0) ">
<use xlink:href="#Layer0_0_1_STROKES"/>
</g>
</svg>
