<?xml version="1.0" encoding="utf-8"?>
<!-- Generator: flash2svg, http://dissentgraphics.com/tools/flash2svg -->
<svg xmlns:xlink="http://www.w3.org/1999/xlink" id="Drive-Server" image-rendering="optimizeSpeed" baseProfile="basic" version="1.1" style="background-color:#ffffff" x="0px" y="0px" width="1024px" height="1024px" viewBox="0 0 1024 1024" enable-background="new 0 0 1024 1024" xmlns="http://www.w3.org/2000/svg">
  <defs transform="matrix(1 0 0 1 0 0) "/>
  <g id="Calque.__202">
    <g id="shape">
      <path id="path" fill="#000000" fill-opacity="0.09803921568627451" d="M919.15,109.8 Q918.7,89.9 904.5,75.7 C894.75,65.95 882.95,61.05 869.15,61.05 L194.95,61.05 C181.15,61.05 169.35,65.95 159.6,75.7 150.15,85.15 145.25,96.55 144.95,109.8 L144.95,953.05 C144.95,966.85 149.85,978.65 159.6,988.4 169.35,998.15 181.15,1003.05 194.95,1003.05 L869.15,1003.05 C882.95,1003.05 894.75,998.15 904.5,988.4 914.25,978.65 919.15,966.85 919.15,953.05 L919.15,109.8z"/>
    </g>
  </g>
  <g id="Calque.__203">
    <g id="shape2">
      <path id="path1" fill="#CE6554" fill-opacity="1" d="M884.5,55.7 Q869.85,41.05 849.15,41.05 L174.95,41.05 C161.15,41.05 149.35,45.95 139.6,55.7 130.15,65.15 125.25,76.55 124.95,89.8 L124.95,89.775 L124.95,814.35 C125.25,827.6 130.15,838.95 139.6,848.4 149.35,858.15 161.15,863.05 174.95,863.05 L849.15,863.05 C862.95,863.05 874.75,858.15 884.5,848.4 893.95,838.95 898.85,827.6 899.15,814.35 L899.15,89.775 L899.15,89.8 C898.85,76.55 893.95,65.15 884.5,55.7z"/>
      <path id="path2" fill="#86837C" fill-opacity="0.9882352941176471" d="M139.6,848.4 C130.15,838.95 125.25,827.6 124.95,814.35 L124.95,933.05 C124.95,946.85 129.85,958.65 139.6,968.4 149.35,978.15 161.15,983.05 174.95,983.05 L849.15,983.05 C862.95,983.05 874.75,978.15 884.5,968.4 894.25,958.65 899.15,946.85 899.15,933.05 L899.15,814.35 C898.85,827.6 893.95,838.95 884.5,848.4 874.75,858.15 862.95,863.05 849.15,863.05 L174.95,863.05 C161.15,863.05 149.35,858.15 139.6,848.4z"/>
    </g>
  </g>
  <g id="Calque.__204">
    <g id="Symbole.__2026_1" overflow="visible">
      <g id="Calque.__208">
        <g id="shape17">
          <path id="path11" fill="#3B3A36" fill-opacity="1" d="M518,918 Q518,909.7 512.15,903.85 C508.25,899.95 503.55,898 498,898 L196,898 C190.45,898 185.75,899.95 181.85,903.85 177.95,907.75 176,912.45 176,918 L176,926.2 C176,931.75 177.95,936.45 181.85,940.35 185.75,944.25 190.45,946.2 196,946.2 L498,946.2 C503.55,946.2 508.25,944.25 512.15,940.35 516.05,936.45 518,931.75 518,926.2 L518,918z"/>
        </g>
      </g>
    </g>
  </g>
  <g id="Calque.__205">
    <g id="shape6">
      <path id="path3" fill="#000000" fill-opacity="0.2" d="M849.65,912.15 Q843.1,905.6 833.8,905.6 C827.6,905.6 822.3,907.8 817.9,912.15 813.55,916.55 811.35,921.85 811.35,928.05 811.35,934.25 813.55,939.55 817.9,943.9 822.3,948.3 827.6,950.5 833.8,950.5 840,950.5 845.3,948.3 849.65,943.9 854.05,939.55 856.25,934.25 856.25,928.05 856.25,921.85 854.05,916.55 849.65,912.15z M784.8,928.05 C784.8,921.85 782.6,916.55 778.2,912.15 773.85,907.8 768.55,905.6 762.35,905.6 756.15,905.6 750.85,907.8 746.45,912.15 742.1,916.55 739.9,921.85 739.9,928.05 739.9,934.25 742.1,939.55 746.45,943.9 750.85,948.3 756.15,950.5 762.35,950.5 768.55,950.5 773.85,948.3 778.2,943.9 782.6,939.55 784.8,934.25 784.8,928.05z"/>
    </g>
  </g>
  <g id="Calque.__206">
    <g id="shape10">
      <path id="path6" fill="#FDF9EA" fill-opacity="0.09803921568627451" d="M703.4,642 Q782.65,562.75 782.65,450.65 C782.65,375.9 756.25,312.15 703.4,259.3 650.55,206.45 586.8,180.05 512.05,180.05 437.3,180.05 373.55,206.45 320.7,259.3 267.85,312.15 241.45,375.9 241.45,450.65 241.45,525.4 267.85,589.15 320.7,642 373.55,694.85 437.3,721.25 512.05,721.25 586.8,721.25 650.55,694.85 703.4,642z"/>
      <path id="path7" fill="#CCCC00" fill-opacity="1" d="M829.05,940.5 C835.25,940.5 840.55,938.3 844.9,933.9 849.3,929.55 851.5,924.25 851.5,918.05 851.5,911.85 849.3,906.55 844.9,902.15 840.55,897.8 835.25,895.6 829.05,895.6 822.85,895.6 817.55,897.8 813.15,902.15 808.8,906.55 806.6,911.85 806.6,918.05 806.6,924.25 808.8,929.55 813.15,933.9 817.55,938.3 822.85,940.5 829.05,940.5z M780.05,918.05 C780.05,911.85 777.85,906.55 773.45,902.15 769.1,897.8 763.8,895.6 757.6,895.6 751.4,895.6 746.1,897.8 741.7,902.15 737.35,906.55 735.15,911.85 735.15,918.05 735.15,924.25 737.35,929.55 741.7,933.9 746.1,938.3 751.4,940.5 757.6,940.5 763.8,940.5 769.1,938.3 773.45,933.9 777.85,929.55 780.05,924.25 780.05,918.05z"/>
    </g>
  </g>
</svg>