<?xml version="1.0" encoding="utf-8"?>
<!-- Generator: flash2svg, http://dissentgraphics.com/tools/flash2svg -->
<svg xmlns:xlink="http://www.w3.org/1999/xlink" id="Devices-volumes-Drive-SSD" image-rendering="optimizeSpeed" baseProfile="basic" version="1.1" style="background-color:#ffffff" x="0px" y="0px" width="1024px" height="1024px" viewBox="0 0 1024 1024" enable-background="new 0 0 1024 1024" xmlns="http://www.w3.org/2000/svg">
  <defs transform="matrix(1 0 0 1 0 0) "/>
  <g id="Calque.__202">
    <g id="shape">
      <path id="path" fill="#000000" fill-opacity="0.09803921568627451" d="M919.15,109.8 Q918.7,89.9 904.5,75.7 C894.75,65.95 882.95,61.05 869.15,61.05 L194.95,61.05 C181.15,61.05 169.35,65.95 159.6,75.7 150.15,85.15 145.25,96.55 144.95,109.8 L144.95,953.05 C144.95,966.85 149.85,978.65 159.6,988.4 169.35,998.15 181.15,1003.05 194.95,1003.05 L869.15,1003.05 C882.95,1003.05 894.75,998.15 904.5,988.4 914.25,978.65 919.15,966.85 919.15,953.05 L919.15,109.8z"/>
    </g>
  </g>
  <g id="Calque.__203">
    <g id="shape2">
      <path id="path1" fill="#374268" fill-opacity="1" d="M884.5,55.7 Q869.85,41.05 849.15,41.05 L174.95,41.05 C161.15,41.05 149.35,45.95 139.6,55.7 130.15,65.15 125.25,76.55 124.95,89.8 L124.95,89.775 L124.95,814.35 C125.25,827.6 130.15,838.95 139.6,848.4 149.35,858.15 161.15,863.05 174.95,863.05 L849.15,863.05 C862.95,863.05 874.75,858.15 884.5,848.4 893.95,838.95 898.85,827.6 899.15,814.35 L899.15,89.775 L899.15,89.8 C898.85,76.55 893.95,65.15 884.5,55.7z"/>
      <path id="path2" fill="#86837C" fill-opacity="0.9882352941176471" d="M139.6,848.4 C130.15,838.95 125.25,827.6 124.95,814.35 L124.95,933.05 C124.95,946.85 129.85,958.65 139.6,968.4 149.35,978.15 161.15,983.05 174.95,983.05 L849.15,983.05 C862.95,983.05 874.75,978.15 884.5,968.4 894.25,958.65 899.15,946.85 899.15,933.05 L899.15,814.35 C898.85,827.6 893.95,838.95 884.5,848.4 874.75,858.15 862.95,863.05 849.15,863.05 L174.95,863.05 C161.15,863.05 149.35,858.15 139.6,848.4z"/>
    </g>
  </g>
  <g id="Calque.__204">
    <g id="Symbole.__2026_1" overflow="visible">
      <g id="Calque.__209">
        <g id="shape26">
          <path id="path19" fill="#3B3A36" fill-opacity="1" d="M518,918 Q518,909.7 512.15,903.85 C508.25,899.95 503.55,898 498,898 L196,898 C190.45,898 185.75,899.95 181.85,903.85 177.95,907.75 176,912.45 176,918 L176,926.2 C176,931.75 177.95,936.45 181.85,940.35 185.75,944.25 190.45,946.2 196,946.2 L498,946.2 C503.55,946.2 508.25,944.25 512.15,940.35 516.05,936.45 518,931.75 518,926.2 L518,918z"/>
        </g>
      </g>
    </g>
  </g>
  <g id="Calque.__205">
    <g id="shape6">
      <path id="path3" fill="#000000" fill-opacity="0.2" d="M849.65,912.15 Q843.1,905.6 833.8,905.6 C827.6,905.6 822.3,907.8 817.9,912.15 813.55,916.55 811.35,921.85 811.35,928.05 811.35,934.25 813.55,939.55 817.9,943.9 822.3,948.3 827.6,950.5 833.8,950.5 840,950.5 845.3,948.3 849.65,943.9 854.05,939.55 856.25,934.25 856.25,928.05 856.25,921.85 854.05,916.55 849.65,912.15z M784.8,928.05 C784.8,921.85 782.6,916.55 778.2,912.15 773.85,907.8 768.55,905.6 762.35,905.6 756.15,905.6 750.85,907.8 746.45,912.15 742.1,916.55 739.9,921.85 739.9,928.05 739.9,934.25 742.1,939.55 746.45,943.9 750.85,948.3 756.15,950.5 762.35,950.5 768.55,950.5 773.85,948.3 778.2,943.9 782.6,939.55 784.8,934.25 784.8,928.05z"/>
    </g>
  </g>
  <g id="Calque.__206">
    <g id="shape10">
      <path id="path6" fill="#CCCC00" fill-opacity="1" d="M829.05,940.5 C835.25,940.5 840.55,938.3 844.9,933.9 849.3,929.55 851.5,924.25 851.5,918.05 851.5,911.85 849.3,906.55 844.9,902.15 840.55,897.8 835.25,895.6 829.05,895.6 822.85,895.6 817.55,897.8 813.15,902.15 808.8,906.55 806.6,911.85 806.6,918.05 806.6,924.25 808.8,929.55 813.15,933.9 817.55,938.3 822.85,940.5 829.05,940.5z M780.05,918.05 C780.05,911.85 777.85,906.55 773.45,902.15 769.1,897.8 763.8,895.6 757.6,895.6 751.4,895.6 746.1,897.8 741.7,902.15 737.35,906.55 735.15,911.85 735.15,918.05 735.15,924.25 737.35,929.55 741.7,933.9 746.1,938.3 751.4,940.5 757.6,940.5 763.8,940.5 769.1,938.3 773.45,933.9 777.85,929.55 780.05,924.25 780.05,918.05z"/>
      <path id="path9" fill="#FFFFFF" fill-opacity="0.09803921568627451" d="M703.4,642 Q782.65,562.75 782.65,450.65 C782.65,375.9 756.25,312.15 703.4,259.3 650.55,206.45 586.8,180.05 512.05,180.05 437.3,180.05 373.55,206.45 320.7,259.3 267.85,312.15 241.45,375.9 241.45,450.65 241.45,525.4 267.85,589.15 320.7,642 373.55,694.85 437.3,721.25 512.05,721.25 586.8,721.25 650.55,694.85 703.4,642z"/>
    </g>
  </g>
  <g id="Calque.__207">
    <g id="shape15">
      <path id="path10" fill="#364169" fill-opacity="1" d="M668,393.3 C664.45,389.1 659.8,385.7 654.05,383.05 651.2,381.75 648.1,380.75 644.7,380.1 L633.95,379.15 571.8,379.15 571.8,519.3 633.95,519.3 C666.1,519.3 682.2,496.1 682.2,449.8 682.2,433.45 680.3,419.8 676.5,408.95 674.3,402.75 671.45,397.5 668,393.3z M649.7,468.8 C648.9,473.8 647.75,478.05 646.2,481.6 644.7,485.1 642.7,487.7 640.15,489.45 637.65,491.2 634.6,492.05 631.05,492.05 L603.1,492.05 603.1,406.35 631.05,406.35 C635.55,406.35 639.15,407.35 641.85,409.35 644.5,411.4 646.7,415.7 648.35,422.25 650,433.1 650.8,442.85 650.8,451.5 650.8,458 650.4,463.75 649.7,468.8z M388.75,377.85 L380.7,378 C355.4,378.55 342.8,390.85 342.8,414.95 L342.8,426.85 343.7,438.5 C344.25,441.45 345.7,445.3 348.1,450.2 350.15,454.15 353.85,457.7 359.2,460.85 361.7,462.4 364.65,463.55 368.1,464.3 371.55,465.1 375.4,465.5 379.7,465.5 L399.4,465.5 C403.8,465.5 406.8,466.4 408.5,468.15 410.1,469.95 410.9,472.75 410.9,476.55 L410.9,482.15 C410.9,486.1 409.65,488.8 407.1,490.2 404.5,491.6 401,492.25 396.4,492.25 372.95,491.85 356.5,491.15 347.15,490.2 L347.15,514.7 C355.2,517.25 362.8,518.95 370.05,519.65 377.3,520.4 388.4,520.8 403.45,520.8 412,520.8 419.35,519.3 425.35,516.4 436.65,510.65 442.35,498.8 442.35,480.75 L442.35,472.75 C442.35,465.75 441.3,459.6 439.15,454.2 437,448.9 433.75,444.45 429.5,440.75 426.9,438.5 423.75,436.85 420.15,435.8 416.55,434.7 412.45,434.1 407.85,434.1 L387.55,434.1 C382.3,434.1 378.6,433.1 376.3,431 374.9,429.7 374.2,426.95 374.2,422.65 L374.2,417.85 C374.2,412.85 375.35,409.7 377.65,408.4 379.95,407.15 384,406.55 389.7,406.55 L403.9,406.55 C413.1,406.55 424.15,407.15 437.2,408.4 L437.2,383.95 C425.05,379.85 408.9,377.85 388.75,377.85z M502.3,377.85 L494.25,378 C493.95,378 493.7,378 493.4,378.05 468.65,378.8 456.3,391.1 456.3,414.95 L456.3,426.85 457.25,438.5 C457.8,441.45 459.25,445.3 461.65,450.2 463.7,454.15 467.4,457.7 472.75,460.85 475.25,462.4 478.2,463.55 481.65,464.3 485.05,465.1 488.9,465.5 493.25,465.5 L512.95,465.5 C517.3,465.5 520.3,466.4 522,468.15 523.65,469.95 524.45,472.75 524.45,476.55 L524.45,482.15 C524.45,486.1 523.15,488.8 520.6,490.2 518.05,491.6 514.5,492.25 509.95,492.25 486.45,491.85 470.05,491.15 460.7,490.2 L460.7,514.7 C468.7,517.25 476.35,518.95 483.6,519.65 490.85,520.4 501.95,520.8 516.95,520.8 525.55,520.8 532.85,519.3 538.85,516.4 550.2,510.65 555.85,498.8 555.85,480.75 L555.85,472.75 C555.85,465.75 554.8,459.6 552.7,454.2 550.5,448.9 547.3,444.45 543.05,440.75 540.4,438.5 537.3,436.85 533.7,435.8 530.1,434.7 526,434.1 521.35,434.1 L501.1,434.1 C495.85,434.1 492.1,433.1 489.85,431 488.4,429.7 487.7,426.95 487.7,422.65 L487.7,417.85 C487.7,412.85 488.85,409.7 491.15,408.4 493.5,407.15 497.5,406.55 503.2,406.55 L517.45,406.55 C520.75,406.55 524.35,406.65 528.15,406.8 534.9,407.1 542.4,407.6 550.75,408.4 L550.75,383.95 C538.55,379.85 522.45,377.85 502.3,377.85z"/>
    </g>
  </g>
</svg>