<?xml version="1.0" encoding="utf-8"?>
<!-- Generator: flash2svg, http://dissentgraphics.com/tools/flash2svg -->
<svg id="Floppy" image-rendering="optimizeSpeed" baseProfile="basic" version="1.1" style="background-color:#FFFFFF" x="0px" y="0px" width="1024px" height="1024px" viewBox="0 0 1024 1024" enable-background="new 0 0 1024 1024" xmlns="http://www.w3.org/2000/svg" xmlns:xlink="http://www.w3.org/1999/xlink">
  <defs transform="matrix(1 0 0 1 0 0) "/>
  <g id="Calque.__203">
    <g id="shape">
      <path id="path" fill="#000000" fill-opacity="0.09803921568627451" d="M947.9,208.4 L796.3,56.85 150.85,56.85 C143.2,56.85 136.6,59.55 131.15,64.95 125.7,70.4 123,77 123,84.7 L123,974.2 C123,981.9 125.7,988.45 131.15,993.85 136.6,999.3 143.2,1002.05 150.85,1002.05 L920,1002.05 C927.7,1002.05 934.25,999.3 939.7,993.85 945.15,988.45 947.9,981.9 947.9,974.2 L947.9,208.4z"/>
    </g>
  </g>
  <g id="Calque.__204">
    <g id="shape2">
      <path id="path1" fill="#333333" fill-opacity="1" d="M924.9,145.4 L813.35,33.85 758.25,33.85 758.25,302.55 C757.9,313 752.35,318.2 741.55,318.2 L368.1,318.2 203.4,318.2 C192.6,318.2 187.05,313 186.7,302.55 L186.7,33.85 127.9,33.85 C120.2,33.85 113.6,36.55 108.15,42 102.75,47.45 100.05,54.05 100.05,61.7 L100.05,951.25 C100.05,952.3 100.1,953.3 100.2,954.25 100.85,960.65 103.5,966.2 108.15,970.9 113.6,976.35 120.2,979.1 127.9,979.1 L182.55,979.1 182.55,942.25 182.55,545.6 C182.55,534.45 188.1,528.85 199.25,528.85 L825.65,528.85 C836.8,528.85 842.4,534.45 842.4,545.6 L842.4,942.25 842.4,979.1 897.05,979.1 C904.75,979.1 911.3,976.35 916.7,970.9 921.45,966.2 924.1,960.65 924.75,954.25 924.85,953.3 924.9,952.3 924.9,951.25 L924.9,145.4z"/>
      <path id="path2" fill="#CCCCCC" fill-opacity="1" d="M741.55,318.2 C752.35,318.2 757.9,313 758.25,302.55 L758.25,33.85 368.1,33.85 368.1,318.2 741.55,318.2z"/>
      <path id="path3" fill="#DBF2F7" fill-opacity="1" d="M842.4,545.6 C842.4,534.45 836.8,528.85 825.65,528.85 L199.25,528.85 C188.1,528.85 182.55,534.45 182.55,545.6 L182.55,942.25 842.4,942.25 842.4,545.6z"/>
      <path id="path4" fill="#666666" fill-opacity="1" d="M368.1,318.2 L368.1,33.85 186.7,33.85 186.7,302.55 C187.05,313 192.6,318.2 203.4,318.2 L368.1,318.2z"/>
      <path id="path5" fill="#A8BABE" fill-opacity="1" d="M182.55,942.25 L182.55,979.1 842.4,979.1 842.4,942.25 182.55,942.25z"/>
    </g>
  </g>
  <g id="Calque.__205">
    <g id="shape9" transform="matrix(1 0 0 1 238.05 606.15)"/>
  </g>
  <g id="Calque.__206">
    <g id="shape10">
      <path id="path6" fill="#666666" fill-opacity="1" d="M693.95,110.85 Q693.95,94.15 677.25,94.15 L639.35,94.15 C628.2,94.15 622.6,99.7 622.6,110.85 L622.6,246.85 C622.6,258 628.2,263.6 639.35,263.6 L677.25,263.6 C688.4,263.6 693.95,258 693.95,246.85 L693.95,110.85z"/>
    </g>
  </g>
  <g id="Calque.__207">
    <g id="shape12">
      <path id="path7" fill="#FFFFFF" fill-opacity="1" d="M162,186.05 L162,104.05 C162,97.4 158.65,94.05 152,94.05 L133,94.05 C126.35,94.05 123,97.4 123,104.05 L123,186.05 C123,192.7 126.35,196.05 133,196.05 L152,196.05 C158.65,196.05 162,192.7 162,186.05z"/>
      <path id="path8" fill="#F9D346" fill-opacity="1" d="M142.9,904.2 C136.3,904.2 130.65,906.55 126,911.2 121.35,915.85 119,921.5 119,928.1 119,934.7 121.35,940.35 126,945 130.65,949.65 136.3,952 142.9,952 149.5,952 155.15,949.65 159.8,945 164.45,940.35 166.8,934.7 166.8,928.1 166.8,921.5 164.45,915.85 159.8,911.2 155.15,906.55 149.5,904.2 142.9,904.2z M867.4,911.2 C862.75,915.85 860.4,921.5 860.4,928.1 860.4,934.7 862.75,940.35 867.4,945 872.05,949.65 877.7,952 884.3,952 890.9,952 896.55,949.65 901.2,945 905.85,940.35 908.2,934.7 908.2,928.1 908.2,921.5 905.85,915.85 901.2,911.2 896.55,906.55 890.9,904.2 884.3,904.2 877.7,904.2 872.05,906.55 867.4,911.2z"/>
    </g>
  </g>
</svg>