<?xml version="1.0" encoding="utf-8"?>
<!-- Generator: flash2svg, http://dissentgraphics.com/tools/flash2svg -->
<svg xmlns:xlink="http://www.w3.org/1999/xlink" id="Card-SD" image-rendering="optimizeSpeed" baseProfile="basic" version="1.1" style="background-color:#ffffff" x="0px" y="0px" width="1024px" height="1024px" viewBox="0 0 1024 1024" enable-background="new 0 0 1024 1024" xmlns="http://www.w3.org/2000/svg">
  <defs transform="matrix(1 0 0 1 0 0) "/>
  <g id="Calque.__203">
    <g id="shape">
      <path id="path" fill="#000000" fill-opacity="0.09803921568627451" d="M888.5,208.45 L736.9,56.9 211.45,56.9 C203.8,56.9 197.2,59.6 191.75,65 186.3,70.45 183.6,77 183.6,84.75 L183.6,974.25 C183.6,982 186.3,988.55 191.75,993.9 197.2,999.35 203.8,1002.1 211.45,1002.1 L860.6,1002.1 C868.3,1002.1 874.85,999.35 880.3,993.9 885.75,988.5 888.5,981.95 888.5,974.25 L888.5,208.45z"/>
    </g>
  </g>
  <g id="Calque.__204">
    <g id="shape2">
      <path id="path1" fill="#333335" fill-opacity="1" d="M752.95,33.9 L697.85,33.9 307.7,33.9 246.3,33.9 187.5,33.9 C179.75,33.9 173.2,36.6 167.75,42.05 162.35,47.5 159.65,54.1 159.65,61.75 L159.65,951.3 C159.65,952.35 159.7,953.35 159.8,954.3 160.45,960.7 163.1,966.25 167.75,970.95 173.2,976.4 179.8,979.15 187.5,979.15 L836.65,979.15 C844.35,979.15 850.9,976.4 856.3,970.95 861.05,966.25 863.7,960.7 864.35,954.3 864.45,953.35 864.5,952.35 864.5,951.3 L864.5,145.45 752.95,33.9z"/>
    </g>
  </g>
  <g id="Calque.__205">
    <g id="Symbole.__201_1" overflow="visible">
      <g id="Calque.__208">
        <g id="shape18">
          <path id="path13" fill="#F9D345" fill-opacity="1" d="M721.9,170.15 C710.75,170.15 705.15,175.7 705.15,186.85 L705.15,302.85 C705.15,314 710.75,319.6 721.9,319.6 L759.8,319.6 C770.95,319.6 776.5,314 776.5,302.85 L776.5,186.85 Q776.5,170.15 759.8,170.15 L721.9,170.15z M493.1,110.15 C481.95,110.15 476.35,115.7 476.35,126.85 L476.35,302.85 C476.35,314 481.95,319.6 493.1,319.6 L531,319.6 C542.15,319.6 547.7,314 547.7,302.85 L547.7,126.85 C547.7,115.7 542.15,110.15 531,110.15 L493.1,110.15z M662.1,126.85 C662.1,115.7 656.55,110.15 645.4,110.15 L607.5,110.15 C596.35,110.15 590.75,115.7 590.75,126.85 L590.75,302.85 C590.75,314 596.35,319.6 607.5,319.6 L645.4,319.6 C656.55,319.6 662.1,314 662.1,302.85 L662.1,126.85z M433.3,302.85 L433.3,126.85 C433.3,115.7 427.75,110.15 416.6,110.15 L378.7,110.15 C367.55,110.15 361.95,115.7 361.95,126.85 L361.95,302.85 C361.95,314 367.55,319.6 378.7,319.6 L416.6,319.6 C427.75,319.6 433.3,314 433.3,302.85z M264.3,110.15 C253.15,110.15 247.55,115.7 247.55,126.85 L247.55,302.85 C247.55,314 253.15,319.6 264.3,319.6 L302.2,319.6 C313.35,319.6 318.9,314 318.9,302.85 L318.9,126.85 C318.9,115.7 313.35,110.15 302.2,110.15 L264.3,110.15z"/>
        </g>
      </g>
    </g>
  </g>
  <g id="Calque.__206">
    <g id="shape4">
      <path id="path2" fill="#DA5B4A" fill-opacity="1" d="M782.2,580.15 L782.05,384.15 240.3,384.15 Q240.1,385.8 240.1,388.15 L240.1,580.15 782.2,580.15z"/>
      <path id="path3" fill="#FDFAE9" fill-opacity="1" d="M251.8,894.5 C259.65,902.35 269.05,906.25 280.1,906.25 L742.2,906.25 C753.25,906.25 762.65,902.35 770.45,894.5 778.3,886.7 782.2,877.3 782.2,866.25 L782.2,580.15 240.1,580.15 240.1,866.25 C240.1,877.3 244,886.7 251.8,894.5z"/>
    </g>
  </g>
</svg>