<?xml version="1.0" encoding="utf-8"?>
<!-- Generator: flash2svg, http://dissentgraphics.com/tools/flash2svg -->
<svg xmlns:xlink="http://www.w3.org/1999/xlink" id="Wirecast" image-rendering="optimizeSpeed" baseProfile="basic" version="1.1" style="background-color:#ffffff" x="0px" y="0px" width="1024px" height="1024px" viewBox="0 0 1024 1024" enable-background="new 0 0 1024 1024" xmlns="http://www.w3.org/2000/svg">
  <defs transform="matrix(1 0 0 1 0 0) "/>
  <g id="Shadow">
    <g id="shape">
      <path id="path" fill="#000000" fill-opacity="0.09803921568627451" d="M688.05,63.85 L688.05,60.05 246.05,60.05 C232.25,60.05 220.45,64.95 210.7,74.7 200.95,84.45 196.05,96.25 196.05,110.05 L196.05,954.05 C196.05,967.85 200.95,979.65 210.7,989.4 218.2,996.9 226.9,1001.55 236.85,1003.3 239.8,1003.8 242.9,1004.05 246.05,1004.05 L806.25,1004.05 C820.05,1004.05 831.85,999.15 841.6,989.4 851.35,979.65 856.25,967.85 856.25,954.05 L856.25,232.05 688.05,63.85z"/>
    </g>
  </g>
  <g id="background">
    <g id="shape2">
      <path id="path1" fill="#5F5C8E" fill-opacity="1" d="M668.05,43.85 L668.05,40.05 226.05,40.05 C212.25,40.05 200.45,44.95 190.7,54.7 180.95,64.45 176.05,76.25 176.05,90.05 L176.05,934.05 C176.05,947.85 180.95,959.65 190.7,969.4 198.2,976.9 206.9,981.55 216.85,983.3 219.8,983.8 222.9,984.05 226.05,984.05 L786.25,984.05 C800.05,984.05 811.85,979.15 821.6,969.4 831.35,959.65 836.25,947.85 836.25,934.05 L836.25,212.05 668.05,43.85z M679.8,194.3 C680.05,194.55 680.25,194.8 680.5,195.05 680.75,195.3 680.95,195.6 681.2,195.85 680.7,195.3 680.25,194.8 679.8,194.3z"/>
    </g>
  </g>
  <g id="corner-sadow">
    <g id="shape7">
      <path id="path5" fill="#000000" fill-opacity="0.2" d="M718.05,212.05 Q699.111,212.05 685.225,199.775 L836.25,350.8 836.25,212.05 718.05,212.05z"/>
    </g>
  </g>
  <g id="corner">
    <g id="shape9">
      <path id="path6" fill="#FFFFFF" fill-opacity="0.8980392156862745" d="M680.5,195.05 Q681.549,196.249 682.7,197.4 C683.55,198.25 684.4,199.05 685.25,199.8 694.5,207.95 705.4,212.05 718.05,212.05 L836.25,212.05 668.05,43.85 668.05,162.05 C668.05,174.75 672.2,185.75 680.5,195.05z"/>
    </g>
  </g>
  <g id="Content">
    <g id="shape11">
      <path id="path7" fill="#000000" fill-opacity="0.2" d="M656.8,502.25 C658.85,504.3 661.35,505.35 664.25,505.3 667.15,505.3 669.6,504.3 671.65,502.2 673.7,500.15 674.75,497.65 674.75,494.8 674.6,452.1 659.3,415.65 628.8,385.45 628.8,385.4 628.8,385.4 628.8,385.35 628.3,384.9 627.8,384.45 627.35,384 625.25,382 622.8,381 619.85,381.05 617,381.1 614.55,382.15 612.5,384.25 610.45,386.35 609.45,388.8 609.5,391.75 609.5,394.6 610.6,397.05 612.7,399.15 613.1,399.55 613.5,399.9 613.9,400.3 L613.95,400.35 C640.3,426.45 653.55,457.95 653.7,494.85 653.7,497.7 654.75,500.2 656.8,502.25z M587.7,413.1 C584.85,413.15 582.35,414.25 580.35,416.35 578.35,418.5 577.4,421 577.45,423.85 577.5,426.75 578.6,429.25 580.7,431.25 580.95,431.45 581.1,431.65 581.3,431.85 603,453.55 613.95,479.7 614.05,510.4 614.05,513.3 615.05,515.75 617.15,517.8 619.2,519.9 621.7,520.9 624.6,520.9 627.5,520.9 629.95,519.85 632,517.8 634.1,515.7 635.1,513.25 635.1,510.3 635,473.85 622.05,442.75 596.2,416.95 595.85,416.6 595.55,416.3 595.25,416 593.1,414 590.6,413.05 587.7,413.1z M550.4,446.3 C548.3,448.35 547.25,450.85 547.3,453.75 547.25,456.7 548.3,459.15 550.4,461.2 550.65,461.5 550.85,461.7 551.15,462 568.8,479.65 577.7,501 577.85,526 577.85,528.85 578.9,531.35 580.95,533.4 583.05,535.45 585.5,536.5 588.4,536.45 591.3,536.45 593.75,535.45 595.85,533.35 597.9,531.3 598.9,528.8 598.9,525.9 598.8,495.15 587.85,468.85 566.05,447.1 565.8,446.8 565.55,446.55 565.25,446.3 563.2,444.25 560.75,443.2 557.85,443.25 554.9,443.2 552.45,444.25 550.4,446.3z M560.9,537.6 C560.9,508.55 550.6,483.7 530,463.15 509.45,442.6 484.65,432.3 455.55,432.3 426.5,432.3 401.65,442.6 381.05,463.15 Q350.25,494 350.25,537.6 C350.25,566.7 360.5,591.55 381.05,612.1 401.65,632.65 426.5,642.95 455.55,642.95 484.65,642.95 509.45,632.65 530,612.1 550.6,591.55 560.9,566.7 560.9,537.6z M543.75,537.6 C543.75,562 535.15,582.75 517.9,599.95 500.7,617.2 479.9,625.8 455.55,625.8 431.2,625.8 410.4,617.2 393.15,599.95 375.95,582.75 367.35,562 367.35,537.6 367.35,513.25 375.95,492.45 393.15,475.25 410.4,458.05 431.2,449.4 455.55,449.4 479.9,449.4 500.7,458.05 517.9,475.25 535.15,492.45 543.75,513.25 543.75,537.6z M509.75,538.2 C509.75,523.45 504.55,510.85 494.1,500.4 483.7,490 471.15,484.8 456.35,484.8 441.6,484.8 429.05,490 418.65,500.4 L429.25,511 C436.7,503.55 445.8,499.8 456.35,499.8 466.95,499.8 476,503.55 483.5,511 491,518.55 494.75,527.6 494.75,538.2 494.75,548.8 491,557.8 483.55,565.3 L494.15,575.9 C504.55,565.5 509.75,552.9 509.75,538.2z M500,581.7 L510.6,592.35 C525.65,577.25 533.15,559 533.15,537.6 533.15,516.15 525.6,497.85 510.45,482.7 495.3,467.6 477,460.05 455.55,460.05 434.2,460.05 415.95,467.55 400.85,482.6 L411.45,493.2 C423.65,481.1 438.35,475.05 455.55,475.05 472.85,475.05 487.6,481.15 499.8,493.35 512.05,505.6 518.15,520.35 518.15,537.6 518.15,554.85 512.1,569.55 500,581.7z M478.35,537.6 C478.35,531.3 476.15,525.95 471.65,521.5 467.25,517.05 461.85,514.8 455.55,514.8 449.25,514.8 443.9,517.05 439.4,521.5 435,525.95 432.75,531.3 432.75,537.6 432.75,543.9 435,549.3 439.4,553.75 443.9,558.2 449.25,560.4 455.55,560.4 461.85,560.4 467.25,558.2 471.65,553.75 476.15,549.3 478.35,543.9 478.35,537.6z M448.35,537.6 C448.35,535.6 449,533.9 450.45,532.5 450.5,532.45 450.55,532.4 450.6,532.35 452,531.05 453.65,530.4 455.55,530.4 457.55,530.4 459.25,531.1 460.65,532.5 462.05,533.9 462.8,535.6 462.8,537.6 462.8,539.55 462.15,541.2 460.8,542.55 460.8,542.65 460.7,542.7 460.65,542.7 459.25,544.15 457.55,544.85 455.55,544.85 453.55,544.85 451.85,544.15 450.45,542.7 449,541.3 448.35,539.65 448.35,537.6z"/>
    </g>
  </g>
</svg>