<?xml version="1.0" encoding="utf-8"?>
<!-- Generator: flash2svg, http://dissentgraphics.com/tools/flash2svg -->
<svg xmlns:xlink="http://www.w3.org/1999/xlink" id="Byword" image-rendering="optimizeSpeed" baseProfile="basic" version="1.1" style="background-color:#ffffff" x="0px" y="0px" width="1024px" height="1024px" viewBox="0 0 1024 1024" enable-background="new 0 0 1024 1024" xmlns="http://www.w3.org/2000/svg">
  <defs transform="matrix(1 0 0 1 0 0) "/>
  <g id="Shadow">
    <g id="shape">
      <path id="path" fill="#000000" fill-opacity="0.09803921568627451" d="M688.05,63.85 L688.05,60.05 246.05,60.05 C232.25,60.05 220.45,64.95 210.7,74.7 200.95,84.45 196.05,96.25 196.05,110.05 L196.05,954.05 C196.05,967.85 200.95,979.65 210.7,989.4 218.2,996.9 226.9,1001.55 236.85,1003.3 239.8,1003.8 242.9,1004.05 246.05,1004.05 L806.25,1004.05 C820.05,1004.05 831.85,999.15 841.6,989.4 851.35,979.65 856.25,967.85 856.25,954.05 L856.25,232.05 688.05,63.85z"/>
    </g>
  </g>
  <g id="background">
    <g id="shape2">
      <path id="path1" fill="#999999" fill-opacity="1" d="M668.05,43.85 L668.05,40.05 226.05,40.05 C212.25,40.05 200.45,44.95 190.7,54.7 180.95,64.45 176.05,76.25 176.05,90.05 L176.05,934.05 C176.05,947.85 180.95,959.65 190.7,969.4 198.2,976.9 206.9,981.55 216.85,983.3 219.8,983.8 222.9,984.05 226.05,984.05 L786.25,984.05 C800.05,984.05 811.85,979.15 821.6,969.4 831.35,959.65 836.25,947.85 836.25,934.05 L836.25,212.05 668.05,43.85z M679.8,194.3 C680.05,194.55 680.25,194.8 680.5,195.05 680.75,195.3 680.95,195.6 681.2,195.85 680.7,195.3 680.25,194.8 679.8,194.3z"/>
    </g>
  </g>
  <g id="corner-sadow">
    <g id="shape7">
      <path id="path5" fill="#000000" fill-opacity="0.2" d="M718.05,212.05 Q699.111,212.05 685.225,199.775 L836.25,350.8 836.25,212.05 718.05,212.05z"/>
    </g>
  </g>
  <g id="corner">
    <g id="shape9">
      <path id="path6" fill="#FFFFFF" fill-opacity="0.8980392156862745" d="M680.5,195.05 Q681.549,196.249 682.7,197.4 C683.55,198.25 684.4,199.05 685.25,199.8 694.5,207.95 705.4,212.05 718.05,212.05 L836.25,212.05 668.05,43.85 668.05,162.05 C668.05,174.75 672.2,185.75 680.5,195.05z"/>
    </g>
  </g>
  <g id="Calque.__201">
    <g id="shape11">
      <path id="path7" fill="#000000" fill-opacity="0.2" d="M508.1,591.8 C512.35,588.1 515.65,583.55 518.2,578.05 Q522.5,568.7 522.05,559.15 L455.6,528.5 C450.5,532.4 446.55,537.45 443.65,543.7 441.1,549.3 439.8,554.95 439.75,560.6 439.75,560.65 439.75,560.75 439.8,560.8 439.75,560.95 439.8,561.15 439.8,561.35 L440.1,630.3 C439.85,630.4 439.6,630.45 439.3,630.55 436.15,631.75 433.9,633.85 432.5,636.9 431.1,639.95 430.95,643.05 432.1,646.2 433.3,649.4 435.4,651.65 438.45,653.05 441.5,654.45 444.6,654.6 447.75,653.4 450.95,652.25 453.2,650.15 454.6,647.1 456,644.05 456.15,640.95 455,637.75 454.8,637.3 454.65,636.9 454.4,636.45 L506.55,593.1 C507.1,592.65 507.6,592.2 508.1,591.8z M485.2,581.85 C486.9,586.5 486.75,591.05 484.65,595.55 482.6,600.05 479.25,603.15 474.6,604.85 469.95,606.55 465.4,606.4 460.9,604.35 456.4,602.25 453.35,598.9 451.6,594.25 449.9,589.65 450.05,585.1 452.15,580.6 454.2,576.1 457.55,573 462.2,571.25 466.85,569.55 471.4,569.75 475.9,571.85 480.4,573.9 483.5,577.25 485.2,581.85z M540.2,363.55 C537.2,362.2 535,363 533.65,366 L495.15,449.5 492.05,448.05 C489.1,446.65 486.9,447.45 485.5,450.45 L457.15,512.1 C455.75,515.05 456.55,517.25 459.55,518.65 L534.05,553 C537.05,554.35 539.25,553.55 540.6,550.55 L569,488.95 C570.4,485.95 569.55,483.75 566.6,482.4 L563.5,481 602,397.5 C603.35,394.5 602.55,392.3 599.55,390.95 L540.2,363.55z"/>
    </g>
  </g>
</svg>