<?xml version="1.0" encoding="utf-8"?>
<!-- Generator: flash2svg, http://dissentgraphics.com/tools/flash2svg -->
<svg xmlns:xlink="http://www.w3.org/1999/xlink" id="Sublime-Text" image-rendering="optimizeSpeed" baseProfile="basic" version="1.1" style="background-color:#ffffff" x="0px" y="0px" width="1024px" height="1024px" viewBox="0 0 1024 1024" enable-background="new 0 0 1024 1024" xmlns="http://www.w3.org/2000/svg">
  <defs transform="matrix(1 0 0 1 0 0) "/>
  <g id="Shadow">
    <g id="shape">
      <path id="path" fill="#000000" fill-opacity="0.09803921568627451" d="M688.05,63.85 L688.05,60.05 246.05,60.05 C232.25,60.05 220.45,64.95 210.7,74.7 200.95,84.45 196.05,96.25 196.05,110.05 L196.05,954.05 C196.05,967.85 200.95,979.65 210.7,989.4 218.2,996.9 226.9,1001.55 236.85,1003.3 239.8,1003.8 242.9,1004.05 246.05,1004.05 L806.25,1004.05 C820.05,1004.05 831.85,999.15 841.6,989.4 851.35,979.65 856.25,967.85 856.25,954.05 L856.25,232.05 688.05,63.85z"/>
    </g>
  </g>
  <g id="background">
    <g id="shape2">
      <path id="path1" fill="#CCCAC2" fill-opacity="1" d="M668.05,43.85 L668.05,40.05 226.05,40.05 C212.25,40.05 200.45,44.95 190.7,54.7 180.95,64.45 176.05,76.25 176.05,90.05 L176.05,934.05 C176.05,947.85 180.95,959.65 190.7,969.4 198.2,976.9 206.9,981.55 216.85,983.3 219.8,983.8 222.9,984.05 226.05,984.05 L786.25,984.05 C800.05,984.05 811.85,979.15 821.6,969.4 831.35,959.65 836.25,947.85 836.25,934.05 L836.25,212.05 668.05,43.85z M679.8,194.3 C680.05,194.55 680.25,194.8 680.5,195.05 680.75,195.3 680.95,195.6 681.2,195.85 680.7,195.3 680.25,194.8 679.8,194.3z"/>
    </g>
  </g>
  <g id="corner-sadow">
    <g id="shape7">
      <path id="path5" fill="#000000" fill-opacity="0.2" d="M718.05,212.05 Q699.111,212.05 685.225,199.775 L836.25,350.8 836.25,212.05 718.05,212.05z"/>
    </g>
  </g>
  <g id="corner">
    <g id="shape9">
      <path id="path6" fill="#FFFFFF" fill-opacity="0.8980392156862745" d="M680.5,195.05 Q681.549,196.249 682.7,197.4 C683.55,198.25 684.4,199.05 685.25,199.8 694.5,207.95 705.4,212.05 718.05,212.05 L836.25,212.05 668.05,43.85 668.05,162.05 C668.05,174.75 672.2,185.75 680.5,195.05z"/>
    </g>
  </g>
  <g id="Content">
    <g id="shape11">
      <path id="path7" fill="#000000" fill-opacity="0.2" d="M512.1,381.6 C511.75,381.65 511.35,381.7 511.05,381.75 501.85,383.05 492.8,386.25 484,391.35 469.95,399.4 459.4,409.95 452.5,422.95 452.1,423.7 451.7,424.45 451.35,425.2 451.3,425.25 451.25,425.35 451.25,425.45 449.2,429.6 447.55,433.95 446.2,438.5 445.7,440.2 445.25,441.85 444.9,443.5 444.6,444.8 444.35,445.95 444.1,447.2 444.1,447.25 444.1,447.35 444.05,447.4 L444.05,447.45 C443.15,451.4 442.95,455.7 443.55,460.35 443.6,460.4 443.6,460.4 443.6,460.45 443.55,460.5 443.55,460.5 443.55,460.55 L443.55,460.6 C443.8,464.55 444.3,468.4 445,471.85 446.5,478.55 448.85,484.55 452.2,490.1 456.3,496.9 461.75,502.95 468.6,508.2 470.3,509.55 471.95,510.75 473.65,511.9 L499.15,532.45 C503.4,535.75 507.35,539.25 511.05,542.85 511.35,543.2 511.75,543.55 512.1,543.9 515.9,547.7 519.35,551.6 522.55,555.65 526.05,563.6 526.9,570.45 525.05,576.2 525,576.3 525,576.35 525,576.45 523.2,581.2 519.55,585.3 513.85,588.65 513.3,589 512.7,589.3 512.1,589.65 511.75,589.85 511.35,590 511.05,590.2 510.9,590.25 510.8,590.3 510.65,590.35 506.7,591.3 502.8,591.45 499,590.8 L498.95,590.8 C498.85,590.8 498.8,590.75 498.7,590.75 494.75,590.05 491.05,588.6 487.45,586.3 486.45,585.65 485.4,584.95 484.35,584.2 478.95,580.55 473.8,576.5 469,572.2 468.05,571.35 467.05,570.4 466.05,569.5 465.95,569.4 465.85,569.35 465.8,569.3 L457.75,563.15 457.7,563.15 457.7,563.1 C455.3,561.4 452.95,560.15 450.55,559.45 445.85,558 441.3,558.8 437.1,561.95 435.9,562.8 434.75,563.85 433.65,565.05 L433.6,565.05 433.55,565.1 C433.55,565.1 433.5,565.15 433.5,565.2 L422.8,577.6 C422.75,577.7 422.65,577.85 422.55,577.95 416.75,587.1 417.2,594.85 423.9,601.3 423.9,601.35 423.95,601.35 423.95,601.35 424.05,601.4 424.1,601.45 424.2,601.55 L430.7,606.9 C440.15,616.2 451,624.3 463.25,631.25 463.55,631.95 464.05,632.45 464.7,632.75 480.25,640.95 495.7,644.2 511.05,642.5 511.35,642.45 511.75,642.4 512.1,642.35 520.05,641.35 527.95,639 535.8,635.35 547.7,629.85 557.25,622.3 564.5,612.7 568.2,607.7 571.35,602.2 573.85,596.2 573.85,596.15 573.9,596.1 573.9,596 574.25,595.15 574.55,594.3 574.9,593.45 576.6,588.8 578,583.85 579.05,578.6 L579.05,578.55 C579.05,578.5 579.05,578.5 579.1,578.5 L579.1,578.45 579.15,578.15 C579.2,578.1 579.2,578.05 579.2,578 579.2,577.9 579.2,577.85 579.2,577.85 L579.2,577.8 579.95,565.65 C579.95,565.6 579.95,565.6 579.95,565.55 579.95,565.45 580,565.35 579.95,565.25 579.65,560.25 578.85,555.55 577.55,550.9 576.1,545.6 573.95,540.45 571.2,535.7 566.15,526.8 558.9,519 549.6,512.4 L524.2,491.3 C524.15,491.25 524.1,491.25 524.1,491.25 L524.05,491.2 C524,491.15 523.9,491.1 523.8,491.05 523.8,491 523.7,491 523.7,491 519.65,488.3 515.8,485.35 512.1,482.1 511.75,481.85 511.35,481.5 511.05,481.2 507.85,478.4 504.85,475.4 501.9,472.1 501.3,471.5 500.65,470.7 499.95,469.95 499.1,467.85 498.4,465.85 497.9,463.8 496.45,458.15 496.65,453.05 498.45,448.7 500.65,443.95 504.85,440 511.05,436.85 511.35,436.65 511.75,436.5 512.1,436.35 513,435.9 514,435.45 515.05,435.05 531.85,435.95 546.05,442.85 557.65,455.75 L557.7,455.75 C557.7,455.8 557.7,455.8 557.75,455.8 557.8,455.9 557.9,456 558,456.1 L565.5,462.25 C565.55,462.25 565.55,462.25 565.6,462.3 568.25,464.25 570.85,465.55 573.2,466.1 579.05,467.5 584.45,465.6 589.6,460.35 L601.15,447.8 C601.2,447.7 601.25,447.65 601.3,447.6 608.65,438.45 608.2,429.95 599.95,422.15 L599.9,422.1 C599.8,422.05 599.75,422 599.75,422 L593.35,416.7 C593.2,416.4 592.95,416.15 592.7,415.9 576.85,403.55 564.2,394.85 554.7,389.75 554.7,389.7 554.7,389.65 554.65,389.6 554.3,388.95 553.75,388.45 553.1,388.15 539.05,382.1 525.4,379.9 512.1,381.6z"/>
    </g>
  </g>
</svg>