<?xml version="1.0" encoding="utf-8"?>
<!-- Generator: flash2svg, http://dissentgraphics.com/tools/flash2svg -->
<svg xmlns:xlink="http://www.w3.org/1999/xlink" id="Ableton-Live" image-rendering="optimizeSpeed" baseProfile="basic" version="1.1" style="background-color:#ffffff" x="0px" y="0px" width="1024px" height="1024px" viewBox="0 0 1024 1024" enable-background="new 0 0 1024 1024" xmlns="http://www.w3.org/2000/svg">
  <defs transform="matrix(1 0 0 1 0 0) "/>
  <g id="Shadow">
    <g id="shape">
      <path id="path" fill="#000000" fill-opacity="0.09803921568627451" d="M688.05,63.85 L688.05,60.05 246.05,60.05 C232.25,60.05 220.45,64.95 210.7,74.7 200.95,84.45 196.05,96.25 196.05,110.05 L196.05,954.05 C196.05,967.85 200.95,979.65 210.7,989.4 218.2,996.9 226.9,1001.55 236.85,1003.3 239.8,1003.8 242.9,1004.05 246.05,1004.05 L806.25,1004.05 C820.05,1004.05 831.85,999.15 841.6,989.4 851.35,979.65 856.25,967.85 856.25,954.05 L856.25,232.05 688.05,63.85z"/>
    </g>
  </g>
  <g id="background">
    <g id="shape2">
      <path id="path1" fill="#F8CE4D" fill-opacity="1" d="M668.05,43.85 L668.05,40.05 226.05,40.05 C212.25,40.05 200.45,44.95 190.7,54.7 180.95,64.45 176.05,76.25 176.05,90.05 L176.05,934.05 C176.05,947.85 180.95,959.65 190.7,969.4 198.2,976.9 206.9,981.55 216.85,983.3 219.8,983.8 222.9,984.05 226.05,984.05 L786.25,984.05 C800.05,984.05 811.85,979.15 821.6,969.4 831.35,959.65 836.25,947.85 836.25,934.05 L836.25,212.05 668.05,43.85z M679.8,194.3 C680.05,194.55 680.25,194.8 680.5,195.05 680.75,195.3 680.95,195.6 681.2,195.85 680.7,195.3 680.25,194.8 679.8,194.3z"/>
    </g>
  </g>
  <g id="corner-sadow">
    <g id="shape7">
      <path id="path5" fill="#000000" fill-opacity="0.2" d="M718.05,212.05 Q699.111,212.05 685.225,199.775 L836.25,350.8 836.25,212.05 718.05,212.05z"/>
    </g>
  </g>
  <g id="corner">
    <g id="shape9">
      <path id="path6" fill="#FFFFFF" fill-opacity="0.8980392156862745" d="M680.5,195.05 Q681.549,196.249 682.7,197.4 C683.55,198.25 684.4,199.05 685.25,199.8 694.5,207.95 705.4,212.05 718.05,212.05 L836.25,212.05 668.05,43.85 668.05,162.05 C668.05,174.75 672.2,185.75 680.5,195.05z"/>
    </g>
  </g>
  <g id="Content">
    <g id="shape11">
      <path id="path7" fill="#000000" fill-opacity="0.2" d="M636.75,444.7 C639.6,441.8 641.05,438.35 641.05,434.3 641.05,430.2 639.6,426.75 636.75,423.85 Q632.4,419.55 626.3,419.55 L530.2,419.55 C526.1,419.55 522.65,421 519.8,423.85 516.9,426.75 515.45,430.2 515.45,434.3 515.45,438.35 516.9,441.8 519.8,444.7 522.65,447.6 526.1,449 530.2,449 L626.3,449 C630.4,449 633.85,447.6 636.75,444.7z M636.75,492.6 C639.6,489.7 641.05,486.25 641.05,482.15 641.05,478.1 639.6,474.65 636.75,471.75 633.85,468.85 630.4,467.4 626.3,467.4 L530.2,467.4 C526.1,467.4 522.65,468.85 519.8,471.75 516.9,474.65 515.45,478.1 515.45,482.15 515.45,486.25 516.9,489.7 519.8,492.6 522.65,495.45 526.1,496.9 530.2,496.9 L626.3,496.9 C630.4,496.9 633.85,495.45 636.75,492.6z M500.65,434.3 C500.65,430.2 499.2,426.75 496.35,423.85 493.45,421 490,419.55 485.9,419.55 481.85,419.55 478.4,421 475.5,423.85 472.6,426.75 471.2,430.2 471.2,434.3 L471.2,530.4 C471.2,531.05 471.25,531.75 471.3,532.4 471.7,535.65 473.15,538.4 475.5,540.8 478.4,543.7 481.85,545.1 485.9,545.1 490,545.1 493.45,543.7 496.35,540.8 499.2,537.95 500.65,534.45 500.65,530.4 L500.65,434.3z M515.45,530.4 C515.45,534.45 516.9,537.95 519.8,540.8 522.65,543.7 526.1,545.1 530.2,545.1 L626.3,545.1 C630.4,545.1 633.85,543.7 636.75,540.8 639.6,537.95 641.05,534.45 641.05,530.4 641.05,526.35 639.6,522.85 636.75,520 633.85,517.1 630.4,515.7 626.3,515.7 L530.2,515.7 C526.1,515.7 522.65,517.1 519.8,520 516.9,522.85 515.45,526.35 515.45,530.4z M528.2,591.85 L528.2,560.5 516.2,560.5 516.2,596.15 C516.2,599.45 517.15,601.9 519.05,603.45 520,604.25 521.1,604.85 522.35,605.25 523.6,605.6 524.95,605.8 526.45,605.8 L544.8,605.8 544.8,595.05 532,595.05 C531.1,595.05 530.2,594.95 529.5,594.65 528.65,594.35 528.2,593.4 528.2,591.85z M560.75,560.5 L548.75,560.5 548.75,605.8 560.75,605.8 560.75,560.5z M605.25,560.5 L592.6,560.5 584.5,591.1 577,560.5 564.35,560.5 577.2,605.8 591.65,605.8 605.25,560.5z M639.6,560.5 C633.45,560.35 625,560.5 620.1,560.5 612.4,560.5 608.55,564 608.55,571 L608.55,595.85 C608.55,597.65 608.85,599.2 609.5,600.55 610.05,601.85 610.8,602.85 611.65,603.55 612.5,604.25 613.55,604.8 614.75,605.25 615.9,605.6 616.9,605.85 617.65,605.9 L639.6,606.05 639.6,594.95 624.4,594.95 C623.45,594.95 622.55,594.8 621.85,594.55 621,594.25 620.55,593.3 620.55,591.7 L620.55,589 639.6,589.15 639.6,577.7 620.55,577.75 620.7,573.35 C620.7,572.9 621,572.55 621.55,572.15 622.1,571.75 622.85,571.55 623.8,571.55 L639.6,571.55 639.6,560.5z M452.4,434.3 C452.4,430.2 451,426.75 448.1,423.85 445.2,421 441.75,419.55 437.7,419.55 433.6,419.55 430.15,421 427.25,423.85 424.4,426.75 422.95,430.2 422.95,434.3 L422.95,530.4 C422.95,531.05 423,531.75 423.1,532.4 423.5,535.65 424.9,538.4 427.25,540.8 430.15,543.7 433.6,545.1 437.7,545.1 441.75,545.1 445.2,543.7 448.1,540.8 450.5,538.4 451.85,535.65 452.3,532.4 452.35,531.75 452.4,531.05 452.4,530.4 L452.4,434.3z M389.8,419.55 C385.75,419.55 382.25,421 379.4,423.85 376.5,426.75 375.1,430.2 375.1,434.3 L375.1,530.4 C375.1,534.45 376.5,537.95 379.4,540.8 382.25,543.7 385.75,545.1 389.8,545.1 393.85,545.1 397.35,543.7 400.25,540.8 402.6,538.4 404,535.65 404.4,532.4 404.5,531.75 404.55,531.05 404.55,530.4 L404.55,434.3 C404.55,430.2 403.1,426.75 400.25,423.85 397.35,421 393.85,419.55 389.8,419.55z"/>
    </g>
  </g>
</svg>