<?xml version="1.0" encoding="utf-8"?>
<!-- Generator: flash2svg, http://dissentgraphics.com/tools/flash2svg -->
<svg xmlns:xlink="http://www.w3.org/1999/xlink" id="Archive-Utility" image-rendering="optimizeSpeed" baseProfile="basic" version="1.1" style="background-color:#ffffff" x="0px" y="0px" width="1024px" height="1024px" viewBox="0 0 1024 1024" enable-background="new 0 0 1024 1024" xmlns="http://www.w3.org/2000/svg">
  <defs transform="matrix(1 0 0 1 0 0) "/>
  <g id="Shadow">
    <g id="shape">
      <path id="path" fill="#000000" fill-opacity="0.09803921568627451" d="M688.05,63.85 L688.05,60.05 246.05,60.05 C232.25,60.05 220.45,64.95 210.7,74.7 200.95,84.45 196.05,96.25 196.05,110.05 L196.05,954.05 C196.05,967.85 200.95,979.65 210.7,989.4 218.2,996.9 226.9,1001.55 236.85,1003.3 239.8,1003.8 242.9,1004.05 246.05,1004.05 L806.25,1004.05 C820.05,1004.05 831.85,999.15 841.6,989.4 851.35,979.65 856.25,967.85 856.25,954.05 L856.25,232.05 688.05,63.85z"/>
    </g>
  </g>
  <g id="background">
    <g id="shape2">
      <path id="path1" fill="#666666" fill-opacity="1" d="M668.05,43.85 L668.05,40.05 226.05,40.05 C212.25,40.05 200.45,44.95 190.7,54.7 180.95,64.45 176.05,76.25 176.05,90.05 L176.05,934.05 C176.05,947.85 180.95,959.65 190.7,969.4 198.2,976.9 206.9,981.55 216.85,983.3 219.8,983.8 222.9,984.05 226.05,984.05 L786.25,984.05 C800.05,984.05 811.85,979.15 821.6,969.4 831.35,959.65 836.25,947.85 836.25,934.05 L836.25,212.05 668.05,43.85z M679.8,194.3 C680.05,194.55 680.25,194.8 680.5,195.05 680.75,195.3 680.95,195.6 681.2,195.85 680.7,195.3 680.25,194.8 679.8,194.3z"/>
    </g>
  </g>
  <g id="corner-sadow">
    <g id="shape7">
      <path id="path5" fill="#000000" fill-opacity="0.2" d="M718.05,212.05 Q699.111,212.05 685.225,199.775 L836.25,350.8 836.25,212.05 718.05,212.05z"/>
    </g>
  </g>
  <g id="corner">
    <g id="shape9">
      <path id="path6" fill="#FFFFFF" fill-opacity="0.8980392156862745" d="M680.5,195.05 Q681.549,196.249 682.7,197.4 C683.55,198.25 684.4,199.05 685.25,199.8 694.5,207.95 705.4,212.05 718.05,212.05 L836.25,212.05 668.05,43.85 668.05,162.05 C668.05,174.75 672.2,185.75 680.5,195.05z"/>
    </g>
  </g>
  <g id="Content">
    <g id="shape11">
      <path id="path7" fill="#000000" fill-opacity="0.2" d="M498.25,391.1 C500.6,390 503.2,389.45 506,389.45 L519.7,389.45 C522,389.45 524.15,389.8 526.15,390.55 528.6,391.45 530.9,392.9 532.9,394.95 536.55,398.6 538.35,402.95 538.35,408.1 L538.35,432.6 C541.5,432.9 544.45,434.5 547.1,437.3 549.7,440.15 551.5,442.3 552.4,443.75 553.35,445.2 555.05,448.75 557.6,454.3 560.15,459.9 563.55,469.35 567.85,482.75 578.4,477.15 583.95,470.75 584.4,463.5 Q584.4,459.55 582.7,457.1 C581,454.95 579.2,453.1 577.3,451.6 574.85,449.8 570.15,445.4 563.05,438.5 552.05,427.85 546.3,414 545.85,397 545.85,396.95 545.85,396.9 545.85,396.85 545.85,396.65 545.85,396.45 545.85,396.25 L545.85,378.05 479.9,378.05 479.9,396.25 C479.9,396.45 479.9,396.65 479.9,396.85 479.9,396.9 479.9,396.95 479.9,397 479.4,414 473.65,427.85 462.7,438.5 455.65,445.4 450.9,449.8 448.45,451.6 446.55,453.1 444.7,454.95 443.05,457.1 441.9,458.75 441.3,460.85 441.3,463.5 441.8,470.75 447.3,477.15 457.9,482.7 461.8,470.1 465.1,460.6 467.8,454.35 470.55,448.05 473.05,443.45 475.35,440.5 477.7,437.55 479.6,435.65 481.1,434.8 482.6,433.95 484.7,433.25 487.35,432.6 L487.35,408.1 C487.35,402.95 489.15,398.6 492.8,394.95 494.5,393.25 496.3,392 498.25,391.1z M506,401.9 C504.3,401.9 502.85,402.5 501.6,403.7 500.4,404.95 499.8,406.4 499.8,408.1 L499.8,489 C499.8,490.75 500.4,492.2 501.6,493.4 502.85,494.65 504.3,495.25 506,495.25 L519.7,495.25 C521.4,495.25 522.9,494.65 524.1,493.4 525.3,492.2 525.9,490.75 525.9,489 L525.9,408.1 C525.9,406.4 525.3,404.95 524.1,403.7 522.9,402.5 521.4,401.9 519.7,401.9 L506,401.9z M487.35,489 L487.35,447.3 C485.6,447.5 484.15,448.75 483,451.1 478,462.7 473.45,474.9 469.4,487.7 468.15,491.6 466.95,495.6 465.75,499.65 457.15,529.55 450.95,562.5 447.15,598.6 447.4,611.75 453.65,623 465.95,632.4 475.3,639.5 486.1,644.05 498.25,646.1 502.75,646.85 507.45,647.2 512.35,647.3 L512.4,647.3 C512.55,647.3 512.7,647.3 512.85,647.3 513,647.3 513.15,647.3 513.3,647.3 L513.35,647.3 C517.8,647.25 522.05,646.9 526.15,646.3 538.85,644.4 550.05,639.75 559.8,632.4 572.1,623 578.3,611.75 578.55,598.6 574.75,562.5 568.55,529.55 559.95,499.65 558.8,495.6 557.6,491.6 556.35,487.7 552.25,474.9 547.7,462.7 542.75,451.1 541.4,448.75 539.95,447.5 538.35,447.3 L538.35,489 C538.35,494.15 536.55,498.55 532.9,502.2 530.9,504.2 528.6,505.7 526.15,506.6 524.15,507.35 522,507.7 519.7,507.7 L506,507.7 C503.2,507.7 500.6,507.15 498.25,506.05 496.3,505.15 494.5,503.85 492.8,502.2 489.15,498.55 487.35,494.15 487.35,489z M512.85,566.5 C517.75,566.5 522.15,567.65 526.15,569.9 528.2,571.1 530.15,572.6 532,574.45 537.25,579.7 539.9,586.1 539.9,593.55 539.9,601.05 537.25,607.4 532,612.7 530.15,614.5 528.2,616 526.15,617.2 522.15,619.45 517.75,620.6 512.85,620.6 507.4,620.6 502.55,619.2 498.25,616.4 496.65,615.35 495.15,614.1 493.75,612.7 488.45,607.4 485.8,601.05 485.8,593.55 485.8,586.1 488.45,579.7 493.75,574.45 495.15,573 496.65,571.8 498.25,570.75 502.55,567.9 507.4,566.5 512.85,566.5z"/>
    </g>
  </g>
</svg>