<?xml version="1.0" encoding="utf-8"?>
<!-- Generator: flash2svg, http://dissentgraphics.com/tools/flash2svg -->
<svg xmlns:xlink="http://www.w3.org/1999/xlink" id="Sparrow" image-rendering="optimizeSpeed" baseProfile="basic" version="1.1" style="background-color:#ffffff" x="0px" y="0px" width="1024px" height="1024px" viewBox="0 0 1024 1024" enable-background="new 0 0 1024 1024" xmlns="http://www.w3.org/2000/svg">
  <defs transform="matrix(1 0 0 1 0 0) "/>
  <g id="Shadow">
    <g id="shape">
      <path id="path" fill="#000000" fill-opacity="0.09803921568627451" d="M688.05,63.85 L688.05,60.05 246.05,60.05 C232.25,60.05 220.45,64.95 210.7,74.7 200.95,84.45 196.05,96.25 196.05,110.05 L196.05,954.05 C196.05,967.85 200.95,979.65 210.7,989.4 218.2,996.9 226.9,1001.55 236.85,1003.3 239.8,1003.8 242.9,1004.05 246.05,1004.05 L806.25,1004.05 C820.05,1004.05 831.85,999.15 841.6,989.4 851.35,979.65 856.25,967.85 856.25,954.05 L856.25,232.05 688.05,63.85z"/>
    </g>
  </g>
  <g id="background">
    <g id="shape2">
      <path id="path1" fill="#576091" fill-opacity="1" d="M668.05,43.85 L668.05,40.05 226.05,40.05 C212.25,40.05 200.45,44.95 190.7,54.7 180.95,64.45 176.05,76.25 176.05,90.05 L176.05,934.05 C176.05,947.85 180.95,959.65 190.7,969.4 198.2,976.9 206.9,981.55 216.85,983.3 219.8,983.8 222.9,984.05 226.05,984.05 L786.25,984.05 C800.05,984.05 811.85,979.15 821.6,969.4 831.35,959.65 836.25,947.85 836.25,934.05 L836.25,212.05 668.05,43.85z M679.8,194.3 C680.05,194.55 680.25,194.8 680.5,195.05 680.75,195.3 680.95,195.6 681.2,195.85 680.7,195.3 680.25,194.8 679.8,194.3z"/>
    </g>
  </g>
  <g id="corner-sadow">
    <g id="shape7">
      <path id="path5" fill="#000000" fill-opacity="0.2" d="M718.05,212.05 Q699.111,212.05 685.225,199.775 L836.25,350.8 836.25,212.05 718.05,212.05z"/>
    </g>
  </g>
  <g id="corner">
    <g id="shape9">
      <path id="path6" fill="#FFFFFF" fill-opacity="0.8980392156862745" d="M680.5,195.05 Q681.549,196.249 682.7,197.4 C683.55,198.25 684.4,199.05 685.25,199.8 694.5,207.95 705.4,212.05 718.05,212.05 L836.25,212.05 668.05,43.85 668.05,162.05 C668.05,174.75 672.2,185.75 680.5,195.05z"/>
    </g>
  </g>
  <g id="Content">
    <g id="shape11">
      <path id="path7" fill="#000000" fill-opacity="0.2" d="M512.5,378.05 C508.6,378.25 505.2,379.75 502.4,382.6 501.05,383.95 500,385.45 499.25,387.05 499,387.5 498.8,388 498.65,388.5 L404.1,624.4 404.05,624.45 C404.05,624.5 404,624.6 404,624.7 403.3,626.45 402.95,628.35 402.95,630.4 402.95,633.4 403.7,636.1 405.2,638.5 405.8,639.5 406.6,640.45 407.5,641.4 410.25,644.15 413.5,645.65 417.25,645.9 417.65,645.95 418.1,645.95 418.5,645.95 418.9,645.95 419.3,645.95 419.7,645.9 L605.35,645.9 C605.7,645.9 606.1,645.95 606.55,645.95 606.95,645.95 607.35,645.9 607.75,645.9 611.5,645.6 614.75,644.1 617.5,641.35 618.45,640.45 619.2,639.5 619.85,638.5 621.35,636.1 622.05,633.4 622.05,630.4 622.05,628.3 621.75,626.4 621.05,624.65 621,624.6 620.95,624.5 620.95,624.45 620.95,624.4 620.9,624.4 620.9,624.35 L526.4,388.5 Q526.1,387.75 525.8,387.05 C525.05,385.4 524,383.95 522.6,382.55 519.8,379.75 516.45,378.25 512.5,378.05z"/>
    </g>
  </g>
</svg>