<?xml version="1.0" encoding="utf-8"?>
<!-- Generator: flash2svg, http://dissentgraphics.com/tools/flash2svg -->
<svg xmlns:xlink="http://www.w3.org/1999/xlink" id="Sequel-Pro" image-rendering="optimizeSpeed" baseProfile="basic" version="1.1" style="background-color:#ffffff" x="0px" y="0px" width="1024px" height="1024px" viewBox="0 0 1024 1024" enable-background="new 0 0 1024 1024" xmlns="http://www.w3.org/2000/svg">
  <defs transform="matrix(1 0 0 1 0 0) "/>
  <g id="Shadow">
    <g id="shape">
      <path id="path" fill="#000000" fill-opacity="0.09803921568627451" d="M688.05,63.85 L688.05,60.05 246.05,60.05 C232.25,60.05 220.45,64.95 210.7,74.7 200.95,84.45 196.05,96.25 196.05,110.05 L196.05,954.05 C196.05,967.85 200.95,979.65 210.7,989.4 218.2,996.9 226.9,1001.55 236.85,1003.3 239.8,1003.8 242.9,1004.05 246.05,1004.05 L806.25,1004.05 C820.05,1004.05 831.85,999.15 841.6,989.4 851.35,979.65 856.25,967.85 856.25,954.05 L856.25,232.05 688.05,63.85z"/>
    </g>
  </g>
  <g id="background">
    <g id="shape2">
      <path id="path1" fill="#E4AE33" fill-opacity="1" d="M668.05,43.85 L668.05,40.05 226.05,40.05 C212.25,40.05 200.45,44.95 190.7,54.7 180.95,64.45 176.05,76.25 176.05,90.05 L176.05,934.05 C176.05,947.85 180.95,959.65 190.7,969.4 198.2,976.9 206.9,981.55 216.85,983.3 219.8,983.8 222.9,984.05 226.05,984.05 L786.25,984.05 C800.05,984.05 811.85,979.15 821.6,969.4 831.35,959.65 836.25,947.85 836.25,934.05 L836.25,212.05 668.05,43.85z M679.8,194.3 C680.05,194.55 680.25,194.8 680.5,195.05 680.75,195.3 680.95,195.6 681.2,195.85 680.7,195.3 680.25,194.8 679.8,194.3z"/>
    </g>
  </g>
  <g id="corner-sadow">
    <g id="shape7">
      <path id="path5" fill="#000000" fill-opacity="0.2" d="M718.05,212.05 Q699.111,212.05 685.225,199.775 L836.25,350.8 836.25,212.05 718.05,212.05z"/>
    </g>
  </g>
  <g id="corner">
    <g id="shape9">
      <path id="path6" fill="#FFFFFF" fill-opacity="0.8980392156862745" d="M680.5,195.05 Q681.549,196.249 682.7,197.4 C683.55,198.25 684.4,199.05 685.25,199.8 694.5,207.95 705.4,212.05 718.05,212.05 L836.25,212.05 668.05,43.85 668.05,162.05 C668.05,174.75 672.2,185.75 680.5,195.05z"/>
    </g>
  </g>
  <g id="Content">
    <g id="shape11">
      <path id="path7" fill="#000000" fill-opacity="0.2" d="M657.1,454.1 Q657,453.95 656.95,453.85 L656.9,453.8 656.9,453.75 C656.85,453.7 656.85,453.7 656.85,453.65 L656.85,453.6 C656.75,453.45 656.65,453.25 656.55,453.1 656.5,453 656.45,452.9 656.4,452.85 655.7,451.7 654.95,450.6 654.15,449.6 L641.95,431.4 C641.9,431.35 641.9,431.35 641.9,431.3 L641.85,431.25 C641.8,431.2 641.8,431.15 641.75,431.1 641.4,430.35 640.95,429.6 640.45,428.95 640.4,428.9 640.4,428.9 640.4,428.85 640.35,428.8 640.3,428.75 640.25,428.7 L638.75,426.65 C638.7,426.6 638.7,426.55 638.65,426.5 L638.6,426.45 C638.45,426.3 638.3,426.1 638.15,425.9 638.1,425.85 638.1,425.8 638.05,425.75 L638,425.7 C637.95,425.65 637.9,425.6 637.9,425.55 637.8,425.45 637.7,425.35 637.65,425.3 L637.65,425.25 C637.55,425.15 637.45,425.05 637.4,424.95 637.35,424.95 637.35,424.95 637.3,424.9 637.05,424.6 636.75,424.3 636.4,424.05 L636.4,424 C636.35,423.95 636.3,423.95 636.25,423.9 636.2,423.85 636.2,423.85 636.15,423.8 L634.6,422.5 634.6,422.45 C634.55,422.45 634.55,422.45 634.55,422.4 634.5,422.4 634.5,422.4 634.45,422.35 L634.4,422.3 C634.35,422.25 634.3,422.2 634.25,422.2 634.1,422.1 634,422 633.85,421.9 633.8,421.85 633.8,421.85 633.75,421.8 L633.7,421.75 633.65,421.75 633.55,421.65 C632.6,420.95 631.55,420.3 630.5,419.75 629.25,419.05 627.9,418.45 626.55,418 625.6,417.55 624.5,417.25 623.35,417.05 L433.7,366.25 C426.25,364.25 419.15,365.15 412.5,369 412.45,369.05 412.4,369.05 412.35,369.1 412.25,369.15 412.15,369.15 412.1,369.2 405.6,373.1 401.35,378.7 399.4,386.05 L399.4,386 C399.35,386.2 399.3,386.4 399.25,386.65 L364.45,516.6 C364.4,516.75 364.35,516.85 364.3,517 363.85,518.65 363.7,520.35 363.85,522.05 L364.45,530.45 364.45,530.6 C364.6,532.25 365,533.9 365.7,535.45 365.75,535.6 365.8,535.7 365.85,535.8 366,536.1 366.1,536.4 366.25,536.7 366.3,536.8 366.35,536.9 366.4,537.05 L366.45,537.1 366.8,537.75 C367,538.1 367.2,538.5 367.45,538.85 L367.45,538.9 367.5,538.9 367.55,539.05 C367.6,539.1 367.65,539.15 367.7,539.25 367.75,539.25 367.75,539.25 367.75,539.3 L367.75,539.35 367.8,539.4 C367.85,539.4 367.85,539.4 367.85,539.45 368.4,540.3 368.95,541.15 369.6,541.95 L382.8,561.95 C383.1,562.4 383.4,562.8 383.65,563.25 L383.65,563.2 C383.9,563.6 384.25,564 384.6,564.45 388.3,569.25 393.2,572.45 399.3,574.1 399.4,574.15 399.5,574.15 399.6,574.15 L413,577.75 C419.15,578.75 419.15,601.05 413,644.6 413,648.55 414.4,651.95 417.2,654.75 420,657.55 423.4,658.95 427.35,658.95 431.3,658.95 434.7,657.55 437.5,654.75 440.3,651.95 441.7,648.55 441.7,644.6 436.25,603.75 436.25,584.05 441.7,585.45 L479.75,595.65 C484.15,595.85 484.15,610.45 479.75,639.45 479.75,643.4 481.15,646.8 483.95,649.6 486.75,652.4 490.15,653.8 494.1,653.8 498.05,653.8 501.45,652.4 504.25,649.6 507.05,646.8 508.45,643.4 508.45,639.45 502.9,613.2 502.9,601.2 508.45,603.35 L589.9,625.15 C597.15,627.1 604.1,626.3 610.7,622.65 610.7,622.6 610.7,622.6 610.75,622.6 610.9,622.55 611.05,622.45 611.2,622.35 617.9,618.5 622.25,612.8 624.25,605.35 L624.25,605.45 C624.3,605.2 624.35,605 624.4,604.8 L659.15,475 C659.2,474.8 659.3,474.6 659.35,474.35 L659.3,474.4 C661.2,467.35 660.5,460.6 657.15,454.2 657.15,454.15 657.15,454.15 657.1,454.1z"/>
    </g>
  </g>
</svg>