<?xml version="1.0" encoding="utf-8"?>
<!-- Generator: flash2svg, http://dissentgraphics.com/tools/flash2svg -->
<svg xmlns:xlink="http://www.w3.org/1999/xlink" id="Ms-Powerpoint" image-rendering="optimizeSpeed" baseProfile="basic" version="1.1" style="background-color:#ffffff" x="0px" y="0px" width="1024px" height="1024px" viewBox="0 0 1024 1024" enable-background="new 0 0 1024 1024" xmlns="http://www.w3.org/2000/svg">
  <defs transform="matrix(1 0 0 1 0 0) "/>
  <g id="Shadow">
    <g id="shape">
      <path id="path" fill="#000000" fill-opacity="0.09803921568627451" d="M688.05,63.85 L688.05,60.05 246.05,60.05 C232.25,60.05 220.45,64.95 210.7,74.7 200.95,84.45 196.05,96.25 196.05,110.05 L196.05,954.05 C196.05,967.85 200.95,979.65 210.7,989.4 218.2,996.9 226.9,1001.55 236.85,1003.3 239.8,1003.8 242.9,1004.05 246.05,1004.05 L806.25,1004.05 C820.05,1004.05 831.85,999.15 841.6,989.4 851.35,979.65 856.25,967.85 856.25,954.05 L856.25,232.05 688.05,63.85z"/>
    </g>
  </g>
  <g id="background">
    <g id="shape2">
      <path id="path1" fill="#AE7013" fill-opacity="1" d="M668.05,43.85 L668.05,40.05 226.05,40.05 C212.25,40.05 200.45,44.95 190.7,54.7 180.95,64.45 176.05,76.25 176.05,90.05 L176.05,934.05 C176.05,947.85 180.95,959.65 190.7,969.4 198.2,976.9 206.9,981.55 216.85,983.3 219.8,983.8 222.9,984.05 226.05,984.05 L786.25,984.05 C800.05,984.05 811.85,979.15 821.6,969.4 831.35,959.65 836.25,947.85 836.25,934.05 L836.25,212.05 668.05,43.85z M680.5,195.05 C680.75,195.3 680.95,195.6 681.2,195.85 680.7,195.3 680.25,194.8 679.8,194.3 680.05,194.55 680.25,194.8 680.5,195.05z"/>
    </g>
  </g>
  <g id="corner-sadow">
    <g id="shape7">
      <path id="path5" fill="#000000" fill-opacity="0.2" d="M718.05,212.05 Q699.111,212.05 685.225,199.775 L836.25,350.8 836.25,212.05 718.05,212.05z"/>
    </g>
  </g>
  <g id="corner">
    <g id="shape9">
      <path id="path6" fill="#FFFFFF" fill-opacity="0.8980392156862745" d="M680.5,195.05 Q681.549,196.249 682.7,197.4 C683.55,198.25 684.4,199.05 685.25,199.8 694.5,207.95 705.4,212.05 718.05,212.05 L836.25,212.05 668.05,43.85 668.05,162.05 C668.05,174.75 672.2,185.75 680.5,195.05z"/>
    </g>
  </g>
  <g id="Calque.__201">
    <g id="shape11">
      <path id="path7" fill="#000000" fill-opacity="0.2" d="M483.15,383.05 L479.9,383.05 413.6,449.35 413.6,645 483.15,645 482.6,556.05 483.15,497.55 483.15,383.05z M565.7,385.3 C558.35,383.85 549.9,383.05 540.55,383.05 L493.15,383.05 493.15,442.15 533.25,442.15 C539.4,442.15 543.9,444.4 546.85,448.9 550,453.55 551.55,460.65 551.55,469.95 551.55,488.4 545.35,497.55 533.25,497.55 L493.15,497.55 492.6,556.05 563.65,555.9 C568.65,555.35 575.2,553.5 582.85,550.15 590.5,546.95 597,542.1 602.45,535.95 607.8,529.8 612.45,521.05 616,509.45 619.55,497.75 621.45,484.15 621.45,468.85 621.45,454.35 619.9,441.9 616.9,431.45 616.75,431 616.55,430.45 616.4,429.85 612.85,419.25 608.55,411.05 603.35,405.25 597.2,397.8 588.8,392.25 578.2,388.7 576.35,388 574.45,387.45 572.3,386.85 570.15,386.25 567.95,385.75 565.7,385.3z"/>
    </g>
  </g>
</svg>