<?xml version="1.0" encoding="utf-8"?>
<!-- Generator: flash2svg, http://dissentgraphics.com/tools/flash2svg -->
<svg xmlns:xlink="http://www.w3.org/1999/xlink" id="Mail" image-rendering="optimizeSpeed" baseProfile="basic" version="1.1" style="background-color:#ffffff" x="0px" y="0px" width="1024px" height="1024px" viewBox="0 0 1024 1024" enable-background="new 0 0 1024 1024" xmlns="http://www.w3.org/2000/svg">
  <defs transform="matrix(1 0 0 1 0 0) "/>
  <g id="Shadow">
    <g id="shape">
      <path id="path" fill="#000000" fill-opacity="0.09803921568627451" d="M688.05,63.85 L688.05,60.05 246.05,60.05 C232.25,60.05 220.45,64.95 210.7,74.7 200.95,84.45 196.05,96.25 196.05,110.05 L196.05,954.05 C196.05,967.85 200.95,979.65 210.7,989.4 218.2,996.9 226.9,1001.55 236.85,1003.3 239.8,1003.8 242.9,1004.05 246.05,1004.05 L806.25,1004.05 C820.05,1004.05 831.85,999.15 841.6,989.4 851.35,979.65 856.25,967.85 856.25,954.05 L856.25,232.05 688.05,63.85z"/>
    </g>
  </g>
  <g id="background">
    <g id="shape2">
      <path id="path1" fill="#4B648F" fill-opacity="1" d="M668.05,43.85 L668.05,40.05 226.05,40.05 C212.25,40.05 200.45,44.95 190.7,54.7 180.95,64.45 176.05,76.25 176.05,90.05 L176.05,934.05 C176.05,947.85 180.95,959.65 190.7,969.4 198.2,976.9 206.9,981.55 216.85,983.3 219.8,983.8 222.9,984.05 226.05,984.05 L786.25,984.05 C800.05,984.05 811.85,979.15 821.6,969.4 831.35,959.65 836.25,947.85 836.25,934.05 L836.25,212.05 668.05,43.85z M680.5,195.05 C680.75,195.3 680.95,195.6 681.2,195.85 680.7,195.3 680.25,194.8 679.8,194.3 680.05,194.55 680.25,194.8 680.5,195.05z"/>
    </g>
  </g>
  <g id="corner-sadow">
    <g id="shape7">
      <path id="path5" fill="#000000" fill-opacity="0.2" d="M718.05,212.05 Q699.111,212.05 685.225,199.775 L836.25,350.8 836.25,212.05 718.05,212.05z"/>
    </g>
  </g>
  <g id="corner">
    <g id="shape9">
      <path id="path6" fill="#FFFFFF" fill-opacity="0.8980392156862745" d="M680.5,195.05 Q681.549,196.249 682.7,197.4 C683.55,198.25 684.4,199.05 685.25,199.8 694.5,207.95 705.4,212.05 718.05,212.05 L836.25,212.05 668.05,43.85 668.05,162.05 C668.05,174.75 672.2,185.75 680.5,195.05z"/>
    </g>
  </g>
  <g id="Calque.__201">
    <g id="shape11">
      <path id="path7" fill="#000000" fill-opacity="0.2" d="M418.35,381.05 C412.45,381.05 409.5,384 409.5,389.9 L409.5,471.9 386.6,471.9 Q386.6,472.1 386.6,472.3 L386.6,634.15 C386.6,637 387.3,639.15 388.6,640.5 390.15,642.2 392.4,643 395.45,643 L629.55,643 C631.95,643 633.9,642.5 635.35,641.5 637.4,640.1 638.4,637.65 638.4,634.15 L638.4,472.3 C638.4,472.15 638.4,472.05 638.4,471.9 L615.55,471.9 615.55,389.9 C615.55,384 612.6,381.05 606.7,381.05 L418.35,381.05z M481.55,395.6 L481.55,402.65 422.3,402.65 422.3,395.6 481.55,395.6z M603.65,471.2 L422.3,471.2 422.3,464.1 603.65,464.1 603.65,471.2z M603.65,485.55 L422.3,485.55 422.3,478.5 603.65,478.5 603.65,485.55z M502.8,456.8 L422.3,456.8 422.3,449.75 502.8,449.75 502.8,456.8z M533,543.05 L490.65,543.05 480.2,535.95 543.525,535.95 533,543.05z M554.325,528.65 L469.475,528.65 459.1,521.6 564.75,521.6 554.325,528.65z M575.575,514.3 L448.375,514.3 437.925,507.2 586.075,507.2 575.575,514.3z M596.825,499.95 L427.275,499.95 422.3,496.575 422.3,492.85 603.65,492.85 603.65,495.35 596.825,499.95z M460.35,417 L422.3,417 422.3,409.95 460.35,409.95 460.35,417z"/>
    </g>
  </g>
</svg>