<?xml version="1.0" encoding="utf-8"?>
<!-- Generator: flash2svg, http://dissentgraphics.com/tools/flash2svg -->
<svg xmlns:xlink="http://www.w3.org/1999/xlink" id="Google-chrome" image-rendering="optimizeSpeed" baseProfile="basic" version="1.1" style="background-color:#ffffff" x="0px" y="0px" width="1024px" height="1024px" viewBox="0 0 1024 1024" enable-background="new 0 0 1024 1024" xmlns="http://www.w3.org/2000/svg">
  <defs transform="matrix(1 0 0 1 0 0) "/>
  <g id="Shadow">
    <g id="shape">
      <path id="path" fill="#000000" fill-opacity="0.09803921568627451" d="M688.05,63.85 L688.05,60.05 246.05,60.05 C232.25,60.05 220.45,64.95 210.7,74.7 200.95,84.45 196.05,96.25 196.05,110.05 L196.05,954.05 C196.05,967.85 200.95,979.65 210.7,989.4 218.2,996.9 226.9,1001.55 236.85,1003.3 239.8,1003.8 242.9,1004.05 246.05,1004.05 L806.25,1004.05 C820.05,1004.05 831.85,999.15 841.6,989.4 851.35,979.65 856.25,967.85 856.25,954.05 L856.25,232.05 688.05,63.85z"/>
    </g>
  </g>
  <g id="background">
    <g id="shape2">
      <path id="path1" fill="#96A6A6" fill-opacity="1" d="M668.05,43.85 L668.05,40.05 226.05,40.05 C212.25,40.05 200.45,44.95 190.7,54.7 180.95,64.45 176.05,76.25 176.05,90.05 L176.05,934.05 C176.05,947.85 180.95,959.65 190.7,969.4 198.2,976.9 206.9,981.55 216.85,983.3 219.8,983.8 222.9,984.05 226.05,984.05 L786.25,984.05 C800.05,984.05 811.85,979.15 821.6,969.4 831.35,959.65 836.25,947.85 836.25,934.05 L836.25,212.05 668.05,43.85z M680.5,195.05 C680.75,195.3 680.95,195.6 681.2,195.85 680.7,195.3 680.25,194.8 679.8,194.3 680.05,194.55 680.25,194.8 680.5,195.05z"/>
    </g>
  </g>
  <g id="corner-sadow">
    <g id="shape7">
      <path id="path5" fill="#000000" fill-opacity="0.2" d="M718.05,212.05 Q699.111,212.05 685.225,199.775 L836.25,350.8 836.25,212.05 718.05,212.05z"/>
    </g>
  </g>
  <g id="corner">
    <g id="shape9">
      <path id="path6" fill="#FFFFFF" fill-opacity="0.8980392156862745" d="M680.5,195.05 Q681.549,196.249 682.7,197.4 C683.55,198.25 684.4,199.05 685.25,199.8 694.5,207.95 705.4,212.05 718.05,212.05 L836.25,212.05 668.05,43.85 668.05,162.05 C668.05,174.75 672.2,185.75 680.5,195.05z"/>
    </g>
  </g>
  <g id="Content">
    <g id="shape11">
      <path id="path7" fill="#000000" fill-opacity="0.2" d="M529.7,384.05 C518.2,384.05 507.05,385.65 496.15,388.9 485.35,392.2 476,397.2 468.2,404 461.7,409.55 456.65,416.25 452.95,424.15 449.3,432.05 447.45,440.25 447.45,448.65 447.45,463.85 452.65,476.35 463.05,486.2 473.5,496.1 486.25,501.05 501.45,501.05 L511.9,500.45 C509.75,505.05 508.7,509.45 508.7,513.55 508.7,517.75 509.5,521.5 511.15,524.85 L518.4,536.2 C490.4,537.95 469.65,543.05 456.2,551.5 448.65,556.25 442.6,562.2 438.05,569.25 433.45,576.3 431.15,583.95 431.15,592.3 431.15,599.65 433,606.4 436.7,612.5 442.6,622.25 451.45,629.3 463.2,633.65 474.95,637.85 487.6,639.95 501.15,639.95 517.6,639.95 532.85,637 547.05,631.2 554.15,628.25 560.4,624.4 565.75,619.75 571.15,615.2 575.65,609.75 579.25,603.45 584.25,595.15 586.8,586.25 586.8,576.95 586.8,568.95 585.15,561.65 581.95,555 578.6,548.45 574.6,543.15 569.95,539.1 L556.1,527.8 544.2,517.3 C540.9,513.7 539.25,510.1 539.25,506.4 539.25,502.9 540.5,499.55 543.05,496.3 L552.15,486.9 562.8,476.8 C566.4,473.2 569.45,468.45 571.95,462.55 574.5,456.6 575.75,449.95 575.75,442.6 575.75,433.35 573.8,425.15 569.95,417.95 566,410.8 560.2,404 552.6,397.5 L572.8,397.5 593.9,384.05 529.7,384.05z M544.35,438.7 C546.05,445.5 546.95,451.95 546.95,457.95 546.95,468.55 544.2,476.7 538.85,482.45 536.25,485.25 532.85,487.45 528.75,489.2 524.65,490.9 520.65,491.75 516.8,491.75 511.5,491.75 506.55,490.4 501.95,487.7 497.4,485.05 493.5,481.55 490.4,477.3 487.3,473.1 484.7,468.4 482.45,463.2 480.2,457.9 478.6,452.6 477.6,447.3 L476.1,432.25 C476.1,421.95 478.45,413.75 483.15,407.75 Q487.15,402.65 493.35,399.65 C497.45,397.6 501.7,396.55 506,396.55 512.65,396.55 518.65,398.65 524.05,402.9 529.55,407.1 533.85,412.4 537,418.75 540.2,425.25 542.7,431.85 544.35,438.7z M505.85,546.65 L521.9,545.6 529.45,545.85 C530.85,546.85 532.75,548.2 535.05,549.9 L547.05,558.9 553,564.15 557.55,569.55 561.75,576 563.9,582.45 564.95,590 C564.95,596.4 563.6,601.95 560.8,606.7 557.95,611.55 554.15,615.3 549.5,618 544.8,620.7 539.75,622.65 534.3,623.9 528.8,625.25 523.1,625.95 517.2,625.95 L501.55,624.75 C496.35,623.85 491.2,622.3 486.1,620.15 481.05,618.1 476.6,615.55 472.75,612.5 468.9,609.5 465.75,605.65 463.35,600.9 460.95,596.15 459.7,590.9 459.7,585.15 459.7,579.1 461.1,573.75 463.85,569 466.65,564.25 470.2,560.4 474.5,557.55 478.7,554.7 483.65,552.3 489.3,550.45 L505.85,546.65z"/>
    </g>
  </g>
</svg>