<?xml version="1.0" encoding="utf-8"?>
<!-- Generator: flash2svg, http://dissentgraphics.com/tools/flash2svg -->
<svg xmlns:xlink="http://www.w3.org/1999/xlink" id="Adium" image-rendering="optimizeSpeed" baseProfile="basic" version="1.1" style="background-color:#ffffff" x="0px" y="0px" width="1024px" height="1024px" viewBox="0 0 1024 1024" enable-background="new 0 0 1024 1024" xmlns="http://www.w3.org/2000/svg">
  <defs transform="matrix(1 0 0 1 0 0) "/>
  <g id="Shadow">
    <g id="shape">
      <path id="path" fill="#000000" fill-opacity="0.09803921568627451" d="M688.05,63.85 L688.05,60.05 246.05,60.05 C232.25,60.05 220.45,64.95 210.7,74.7 200.95,84.45 196.05,96.25 196.05,110.05 L196.05,954.05 C196.05,967.85 200.95,979.65 210.7,989.4 218.2,996.9 226.9,1001.55 236.85,1003.3 239.8,1003.8 242.9,1004.05 246.05,1004.05 L806.25,1004.05 C820.05,1004.05 831.85,999.15 841.6,989.4 851.35,979.65 856.25,967.85 856.25,954.05 L856.25,232.05 688.05,63.85z"/>
    </g>
  </g>
  <g id="background">
    <g id="shape2">
      <path id="path1" fill="#7C9568" fill-opacity="1" d="M668.05,43.85 L668.05,40.05 226.05,40.05 C212.25,40.05 200.45,44.95 190.7,54.7 180.95,64.45 176.05,76.25 176.05,90.05 L176.05,934.05 C176.05,947.85 180.95,959.65 190.7,969.4 198.2,976.9 206.9,981.55 216.85,983.3 219.8,983.8 222.9,984.05 226.05,984.05 L786.25,984.05 C800.05,984.05 811.85,979.15 821.6,969.4 831.35,959.65 836.25,947.85 836.25,934.05 L836.25,212.05 668.05,43.85z M679.8,194.3 C680.05,194.55 680.25,194.8 680.5,195.05 680.75,195.3 680.95,195.6 681.2,195.85 680.7,195.3 680.25,194.8 679.8,194.3z"/>
    </g>
  </g>
  <g id="corner-sadow">
    <g id="shape7">
      <path id="path5" fill="#000000" fill-opacity="0.2" d="M718.05,212.05 Q699.111,212.05 685.225,199.775 L836.25,350.8 836.25,212.05 718.05,212.05z"/>
    </g>
  </g>
  <g id="corner">
    <g id="shape9">
      <path id="path6" fill="#FFFFFF" fill-opacity="0.8980392156862745" d="M680.5,195.05 Q681.549,196.249 682.7,197.4 C683.55,198.25 684.4,199.05 685.25,199.8 694.5,207.95 705.4,212.05 718.05,212.05 L836.25,212.05 668.05,43.85 668.05,162.05 C668.05,174.75 672.2,185.75 680.5,195.05z"/>
    </g>
  </g>
  <g id="Calque.__201">
    <g id="shape11">
      <path id="path7" fill="#000000" fill-opacity="0.2" d="M559.1,402.1 C530.9,402.1 506.85,412.05 486.9,432 483.75,435.15 480.85,438.4 478.2,441.75 474.1,437.05 468.55,438.25 461.6,445.35 L461.65,445.25 C434.25,453.7 407.35,453.1 381.05,443.45 372.45,439.8 366.85,440.5 364.35,445.55 359.9,454.45 362.95,464.1 373.45,474.45 387.85,488.6 404.3,499.65 422.85,507.65 L402.15,507.65 C401.7,507.6 401.25,507.6 400.8,507.6 397.35,507.6 394.4,508.8 391.9,511.25 389.45,513.7 388.25,516.65 388.25,520.15 388.25,523.6 389.45,526.55 391.9,529 394.4,531.45 397.6,532.95 401.55,533.45 405.5,533.95 411.9,534.8 420.75,535.95 425.75,536.65 429.6,538.65 432.25,541.9 435.7,546.3 439.35,550.15 443.2,553.5 447.05,556.8 452.15,558.5 458.5,558.5 462.9,558.5 466.85,557.4 470.4,555.25 474.85,562.85 480.35,569.85 486.9,576.4 506.85,596.35 530.9,606.3 559.1,606.3 587.3,606.3 611.35,596.35 631.3,576.4 651.25,556.45 661.2,532.4 661.2,504.2 661.2,476 651.25,451.9 631.3,432 Q601.4,402.1 559.1,402.1z M505.3,450.8 C510.75,445.3 517.35,442.6 525.05,442.6 532.75,442.6 539.35,445.3 544.8,450.8 549.15,455.15 551.8,460.2 552.65,465.95 552.9,467.45 553,469 553,470.55 553,478.25 550.3,484.85 544.8,490.3 539.35,495.8 532.75,498.5 525.05,498.5 517.35,498.5 510.75,495.8 505.3,490.3 499.8,484.85 497.1,478.25 497.1,470.55 497.1,467.75 497.45,465.15 498.15,462.6 499.4,458.25 501.8,454.3 505.3,450.8z M521.5,452.7 C516.1,452.7 511.5,454.6 507.7,458.4 506.25,459.85 505.1,461.4 504.25,462.95 502.7,465.8 501.95,468.85 501.95,472.2 501.95,477.6 503.85,482.2 507.7,486 511.5,489.85 516.1,491.75 521.5,491.75 526.85,491.75 531.45,489.85 535.3,486 539.1,482.2 541,477.6 541,472.2 541,469.7 540.55,467.35 539.75,465.15 538.8,462.7 537.3,460.45 535.3,458.4 531.45,454.6 526.85,452.7 521.5,452.7z M523.4,467.3 C523.4,469.2 522.7,470.8 521.4,472.15 520.05,473.45 518.45,474.15 516.55,474.15 514.7,474.15 513.05,473.45 511.75,472.15 510.4,470.8 509.75,469.2 509.75,467.3 509.75,465.45 510.4,463.8 511.75,462.5 513.05,461.15 514.7,460.5 516.55,460.5 518.45,460.5 520.05,461.15 521.4,462.5 522.7,463.8 523.4,465.45 523.4,467.3z"/>
    </g>
  </g>
</svg>