<?xml version="1.0" encoding="utf-8"?>
<!-- Generator: flash2svg, http://dissentgraphics.com/tools/flash2svg -->
<svg xmlns:xlink="http://www.w3.org/1999/xlink" id="Videolan" image-rendering="optimizeSpeed" baseProfile="basic" version="1.1" style="background-color:#ffffff" x="0px" y="0px" width="1024px" height="1024px" viewBox="0 0 1024 1024" enable-background="new 0 0 1024 1024" xmlns="http://www.w3.org/2000/svg">
  <defs transform="matrix(1 0 0 1 0 0) "/>
  <g id="Shadow">
    <g id="shape">
      <path id="path" fill="#000000" fill-opacity="0.09803921568627451" d="M688.05,63.85 L688.05,60.05 246.05,60.05 C232.25,60.05 220.45,64.95 210.7,74.7 200.95,84.45 196.05,96.25 196.05,110.05 L196.05,954.05 C196.05,967.85 200.95,979.65 210.7,989.4 218.2,996.9 226.9,1001.55 236.85,1003.3 239.8,1003.8 242.9,1004.05 246.05,1004.05 L806.25,1004.05 C820.05,1004.05 831.85,999.15 841.6,989.4 851.35,979.65 856.25,967.85 856.25,954.05 L856.25,232.05 688.05,63.85z"/>
    </g>
  </g>
  <g id="background">
    <g id="shape2">
      <path id="path1" fill="#F9A000" fill-opacity="1" d="M668.05,43.85 L668.05,40.05 226.05,40.05 C212.25,40.05 200.45,44.95 190.7,54.7 180.95,64.45 176.05,76.25 176.05,90.05 L176.05,934.05 C176.05,947.85 180.95,959.65 190.7,969.4 198.2,976.9 206.9,981.55 216.85,983.3 219.8,983.8 222.9,984.05 226.05,984.05 L786.25,984.05 C800.05,984.05 811.85,979.15 821.6,969.4 831.35,959.65 836.25,947.85 836.25,934.05 L836.25,212.05 668.05,43.85z M679.8,194.3 C680.05,194.55 680.25,194.8 680.5,195.05 680.75,195.3 680.95,195.6 681.2,195.85 680.7,195.3 680.25,194.8 679.8,194.3z"/>
    </g>
  </g>
  <g id="corner-sadow">
    <g id="shape7">
      <path id="path5" fill="#000000" fill-opacity="0.2" d="M718.05,212.05 Q699.111,212.05 685.225,199.775 L836.25,350.8 836.25,212.05 718.05,212.05z"/>
    </g>
  </g>
  <g id="corner">
    <g id="shape9">
      <path id="path6" fill="#FFFFFF" fill-opacity="0.8980392156862745" d="M680.5,195.05 Q681.549,196.249 682.7,197.4 C683.55,198.25 684.4,199.05 685.25,199.8 694.5,207.95 705.4,212.05 718.05,212.05 L836.25,212.05 668.05,43.85 668.05,162.05 C668.05,174.75 672.2,185.75 680.5,195.05z"/>
    </g>
  </g>
  <g id="Content">
    <g id="shape11">
      <path id="path7" fill="#000000" fill-opacity="0.2" d="M490.4,387.25 C488.95,388.7 488,390.25 487.55,392.15 L468.15,454.85 468.05,454.85 458.85,484.65 458.9,484.65 C466.5,487.65 474.5,489.9 482.85,491.5 483.1,491.55 483.35,491.6 483.6,491.65 483.35,491.6 483.05,491.55 482.8,491.5 474.45,489.9 466.5,487.65 458.85,484.65 L458.8,484.65 449.85,513.5 449.85,513.55 449.95,513.6 441.1,542 441.15,542.05 432.8,569.1 C432.75,569.2 432.75,569.2 432.75,569.25 432.45,570.2 432.25,571.25 432.25,572.3 432.25,579.35 440.1,585.35 455.75,590.35 471.45,595.35 490.35,597.75 512.5,597.75 534.65,597.75 553.6,595.35 569.2,590.35 584.9,585.35 592.7,579.35 592.7,572.3 592.7,571.35 592.65,570.5 592.4,569.6 L592.25,569.05 592.2,569.05 583.85,542.15 583.8,542.15 574.9,513.55 C574.95,513.5 574.95,513.5 575,513.5 L557.2,456.15 C556.55,456.3 555.9,456.5 555.25,456.65 555.9,456.5 556.55,456.25 557.2,456.1 L557.15,456.1 537.7,393.2 C537.55,392.15 537.2,391.1 536.75,390.1 536.2,389.05 535.45,388.1 534.6,387.25 532.5,385.15 529.95,384.05 526.95,384.05 L498.1,384.05 C495.05,384.05 492.5,385.15 490.4,387.25z M583.1,512.85 L592.45,542.95 592.5,542.95 601.8,573.1 601.85,573.1 602.1,573.75 C602.35,574.75 602.45,575.7 602.45,576.8 602.45,584.7 593.7,591.4 576.1,597 558.55,602.6 537.35,605.35 512.5,605.35 487.65,605.35 466.45,602.6 448.85,597 431.25,591.4 422.5,584.7 422.5,576.8 422.5,575.6 422.7,574.45 423.1,573.35 423.1,573.3 423.1,573.3 423.15,573.15 L432.5,542.9 432.45,542.85 441.75,512.85 430.5,512.85 C421.6,512.85 416.25,516.4 414.75,523.55 L391.8,629.75 C391.8,638.7 396.35,643.2 405.35,643.2 L619.7,643.2 C628.7,643.2 633.25,638.7 633.25,629.75 L611.05,527.25 Q607.95,512.85 594.5,512.85 L583.1,512.85z"/>
    </g>
  </g>
</svg>