<?xml version="1.0" encoding="utf-8"?>
<!-- Generator: flash2svg, http://dissentgraphics.com/tools/flash2svg -->
<svg xmlns:xlink="http://www.w3.org/1999/xlink" id="Calendar" image-rendering="optimizeSpeed" baseProfile="basic" version="1.1" style="background-color:#ffffff" x="0px" y="0px" width="1024px" height="1024px" viewBox="0 0 1024 1024" enable-background="new 0 0 1024 1024" xmlns="http://www.w3.org/2000/svg">
  <defs transform="matrix(1 0 0 1 0 0) "/>
  <g id="Shadow">
    <g id="shape">
      <path id="path" fill="#000000" fill-opacity="0.09803921568627451" d="M688.05,63.85 L688.05,60.05 246.05,60.05 C232.25,60.05 220.45,64.95 210.7,74.7 200.95,84.45 196.05,96.25 196.05,110.05 L196.05,954.05 C196.05,967.85 200.95,979.65 210.7,989.4 218.2,996.9 226.9,1001.55 236.85,1003.3 239.8,1003.8 242.9,1004.05 246.05,1004.05 L806.25,1004.05 C820.05,1004.05 831.85,999.15 841.6,989.4 851.35,979.65 856.25,967.85 856.25,954.05 L856.25,232.05 688.05,63.85z"/>
    </g>
  </g>
  <g id="background">
    <g id="shape2">
      <path id="path1" fill="#FF6666" fill-opacity="1" d="M668.05,43.85 L668.05,40.05 226.05,40.05 C212.25,40.05 200.45,44.95 190.7,54.7 180.95,64.45 176.05,76.25 176.05,90.05 L176.05,934.05 C176.05,947.85 180.95,959.65 190.7,969.4 198.2,976.9 206.9,981.55 216.85,983.3 219.8,983.8 222.9,984.05 226.05,984.05 L786.25,984.05 C800.05,984.05 811.85,979.15 821.6,969.4 831.35,959.65 836.25,947.85 836.25,934.05 L836.25,212.05 668.05,43.85z M679.8,194.3 C680.05,194.55 680.25,194.8 680.5,195.05 680.75,195.3 680.95,195.6 681.2,195.85 680.7,195.3 680.25,194.8 679.8,194.3z"/>
    </g>
  </g>
  <g id="corner-sadow">
    <g id="shape7">
      <path id="path5" fill="#000000" fill-opacity="0.2" d="M718.05,212.05 Q699.111,212.05 685.225,199.775 L836.25,350.8 836.25,212.05 718.05,212.05z"/>
    </g>
  </g>
  <g id="corner">
    <g id="shape9">
      <path id="path6" fill="#FFFFFF" fill-opacity="0.8980392156862745" d="M680.5,195.05 Q681.549,196.249 682.7,197.4 C683.55,198.25 684.4,199.05 685.25,199.8 694.5,207.95 705.4,212.05 718.05,212.05 L836.25,212.05 668.05,43.85 668.05,162.05 C668.05,174.75 672.2,185.75 680.5,195.05z"/>
    </g>
  </g>
  <g id="Calque.__201">
    <g id="shape11">
      <path id="path7" fill="#000000" fill-opacity="0.2" d="M488.7,539.6 C491.35,534.6 493.25,529.3 494.35,523.7 495.45,518.15 495.4,512.25 494.15,505.95 492.8,498.9 490.4,492.9 487,488.05 483.55,483.25 479.4,479.5 474.5,476.75 469.55,474.1 464.1,472.4 458.05,471.75 452,471.05 445.7,471.35 439.15,472.6 431,474.2 424.15,476.9 418.55,480.75 412.9,484.6 408.55,489.25 405.45,494.7 402.4,500.25 400.55,506.5 399.85,513.4 399.2,520.35 399.7,527.65 401.4,535.3 L414.95,532.7 C413.7,527.15 413.2,521.7 413.4,516.45 413.65,511.25 414.7,506.4 416.65,501.95 418.65,497.55 421.65,493.75 425.6,490.6 429.5,487.55 434.55,485.4 440.7,484.2 445.35,483.3 449.8,483.1 454.15,483.65 458.5,484.25 462.45,485.55 466,487.55 469.65,489.6 472.7,492.35 475.25,495.9 477.85,499.35 479.6,503.5 480.55,508.4 481.7,514.35 481.7,519.7 480.45,524.55 479.2,529.3 476.9,534.2 473.6,539.2 470.25,544.15 466.3,548.9 461.75,553.55 L434.7,581.45 C430.35,586.3 426.65,591.35 423.6,596.7 420.45,602.1 418.2,607.9 416.9,614.15 415.6,620.35 415.6,627.2 416.9,634.65 L516.1,615.35 513.65,602.85 429.9,619.15 C429.75,614 431.05,608.95 433.7,603.95 436.35,599.1 439.55,594.45 443.3,590 L455.5,577.4 466.6,566.95 478.9,553.85 C482.75,549.35 486.05,544.6 488.7,539.6z M596.9,478.7 L610.1,455.75 607.65,443.25 510.75,462.05 513.2,474.55 596.5,458.35 C588.4,472.3 581.7,485.4 576.35,497.75 570.15,514 566.1,526.05 564.2,534 561.35,545.75 559.65,557.6 559.2,569.45 559.3,585.6 559.9,597.95 561,606.6 L575.6,603.8 C573.15,586.1 572.8,569.5 574.55,554 575.8,543.75 578.75,529.75 583.35,512 587.4,499.35 591.9,488.25 596.9,478.7z M425.25,381.6 Q423.15,385.55 422.6,390.2 C422.2,393.35 422.3,396.55 422.95,399.8 423.55,403.05 424.6,406.1 426.1,408.9 427.6,411.7 429.5,414.05 431.75,415.95 432.9,416.9 434.1,417.7 435.45,418.4 436.8,419.05 438.2,419.6 439.75,420 442.8,420.85 446.2,420.9 449.9,420.2 453.65,419.5 456.75,418.2 459.25,416.35 461.75,414.5 463.75,412.25 465.2,409.65 466.65,407.05 467.5,404.2 467.85,401.05 468.2,397.9 468.1,394.7 467.5,391.45 466.85,388.2 465.8,385.15 464.35,382.35 462.9,379.6 461,377.25 458.7,375.3 456.4,373.35 453.75,372 450.75,371.2 447.7,370.35 444.35,370.3 440.6,371 436.9,371.7 433.8,373 431.25,374.85 430,375.8 428.85,376.85 427.85,378 426.85,379.1 426,380.3 425.25,381.6z M441.35,374.85 C444.5,374.3 447.25,374.35 449.7,375.1 450.95,375.5 452.1,376 453.15,376.65 454.2,377.2 455.2,377.95 456.1,378.8 457.9,380.5 459.4,382.5 460.55,384.85 461.7,387.2 462.5,389.65 463,392.25 463.45,394.8 463.6,397.4 463.4,400.05 463.2,402.7 462.55,405.1 461.5,407.3 460.45,409.55 458.9,411.5 456.9,413.15 454.85,414.75 452.3,415.85 449.15,416.4 447.6,416.7 446.1,416.85 444.75,416.8 443.3,416.75 442,416.55 440.8,416.2 439.55,415.75 438.35,415.25 437.3,414.65 436.25,414.05 435.25,413.3 434.35,412.45 432.55,410.8 431.05,408.75 429.9,406.4 428.75,404.05 427.9,401.55 427.45,399 426.95,396.4 426.8,393.8 427.05,391.2 427.25,388.6 427.9,386.2 428.95,383.95 429.5,382.8 430.15,381.75 430.9,380.8 431.7,379.85 432.6,378.95 433.6,378.15 434.6,377.35 435.75,376.7 437.05,376.15 438.35,375.6 439.8,375.15 441.35,374.85z M480.55,365.55 C479.3,366.5 478.15,367.55 477.15,368.7 476.15,369.8 475.3,371 474.6,372.3 473.15,374.95 472.25,377.8 471.9,380.9 471.5,384.05 471.6,387.25 472.25,390.5 472.85,393.75 473.9,396.8 475.4,399.6 476.9,402.4 478.8,404.75 481.1,406.65 482.2,407.6 483.4,408.4 484.75,409.1 486.1,409.75 487.5,410.3 489.05,410.7 492.1,411.55 495.5,411.6 499.25,410.9 501.1,410.55 503.5,409.65 506.55,408.15 508.65,406.85 510.4,405.2 511.75,403.25 513.1,401.3 514.1,399.05 514.75,396.55 515.4,394 515.55,391.2 515.3,388.25 L510.8,389.1 C510.95,391.25 510.8,393.3 510.35,395.3 509.95,397.25 509.25,399.1 508.2,400.75 507.15,402.3 505.85,403.65 504.25,404.8 502.6,405.95 500.7,406.7 498.5,407.1 496.9,407.4 495.4,407.55 494.05,407.5 492.65,407.45 491.35,407.25 490.1,406.9 488.85,406.45 487.7,405.95 486.65,405.35 485.55,404.75 484.55,404 483.65,403.15 481.9,401.5 480.4,399.45 479.2,397.1 478.05,394.75 477.2,392.25 476.75,389.7 476.25,387.1 476.1,384.5 476.35,381.9 476.6,379.3 477.2,376.9 478.25,374.65 478.8,373.5 479.5,372.45 480.25,371.5 481,370.55 481.9,369.65 482.9,368.85 483.95,368.05 485.1,367.4 486.35,366.85 487.65,366.3 489.1,365.85 490.7,365.55 492.4,365.25 494.1,365.2 495.75,365.35 497.4,365.6 498.95,366.05 500.5,366.8 501.95,367.5 503.25,368.5 504.4,369.75 505.6,371 506.6,372.5 507.35,374.25 L511.85,373.4 C511.05,371 509.9,368.95 508.35,367.25 506.8,365.6 505.05,364.3 503.1,363.35 501.1,362.3 498.95,361.7 496.7,361.5 494.45,361.25 492.2,361.3 489.95,361.7 486.2,362.4 483.1,363.7 480.55,365.55z M511.7,358.65 L512.4,362.5 528.8,359.4 537,402.8 541.5,401.95 533.3,358.55 549.8,355.45 549.1,351.6 511.7,358.65z"/>
    </g>
  </g>
</svg>