<?xml version="1.0" encoding="utf-8"?>
<!-- Generator: flash2svg, http://dissentgraphics.com/tools/flash2svg -->
<svg xmlns:xlink="http://www.w3.org/1999/xlink" id="Unison" image-rendering="optimizeSpeed" baseProfile="basic" version="1.1" style="background-color:#ffffff" x="0px" y="0px" width="1024px" height="1024px" viewBox="0 0 1024 1024" enable-background="new 0 0 1024 1024" xmlns="http://www.w3.org/2000/svg">
  <defs transform="matrix(1 0 0 1 0 0) "/>
  <g id="Shadow">
    <g id="shape">
      <path id="path" fill="#000000" fill-opacity="0.09803921568627451" d="M688.05,63.85 L688.05,60.05 246.05,60.05 C232.25,60.05 220.45,64.95 210.7,74.7 200.95,84.45 196.05,96.25 196.05,110.05 L196.05,954.05 C196.05,967.85 200.95,979.65 210.7,989.4 218.2,996.9 226.9,1001.55 236.85,1003.3 239.8,1003.8 242.9,1004.05 246.05,1004.05 L806.25,1004.05 C820.05,1004.05 831.85,999.15 841.6,989.4 851.35,979.65 856.25,967.85 856.25,954.05 L856.25,232.05 688.05,63.85z"/>
    </g>
  </g>
  <g id="background">
    <g id="shape2">
      <path id="path1" fill="#8F2118" fill-opacity="1" d="M668.05,43.85 L668.05,40.05 226.05,40.05 C212.25,40.05 200.45,44.95 190.7,54.7 180.95,64.45 176.05,76.25 176.05,90.05 L176.05,934.05 C176.05,947.85 180.95,959.65 190.7,969.4 198.2,976.9 206.9,981.55 216.85,983.3 219.8,983.8 222.9,984.05 226.05,984.05 L786.25,984.05 C800.05,984.05 811.85,979.15 821.6,969.4 831.35,959.65 836.25,947.85 836.25,934.05 L836.25,212.05 668.05,43.85z M679.8,194.3 C680.05,194.55 680.25,194.8 680.5,195.05 680.75,195.3 680.95,195.6 681.2,195.85 680.7,195.3 680.25,194.8 679.8,194.3z"/>
    </g>
  </g>
  <g id="corner-sadow">
    <g id="shape7">
      <path id="path5" fill="#000000" fill-opacity="0.2" d="M718.05,212.05 Q699.111,212.05 685.225,199.775 L836.25,350.8 836.25,212.05 718.05,212.05z"/>
    </g>
  </g>
  <g id="corner">
    <g id="shape9">
      <path id="path6" fill="#FFFFFF" fill-opacity="0.8980392156862745" d="M680.5,195.05 Q681.549,196.249 682.7,197.4 C683.55,198.25 684.4,199.05 685.25,199.8 694.5,207.95 705.4,212.05 718.05,212.05 L836.25,212.05 668.05,43.85 668.05,162.05 C668.05,174.75 672.2,185.75 680.5,195.05z"/>
    </g>
  </g>
  <g id="Content">
    <g id="shape11">
      <path id="path7" fill="#000000" fill-opacity="0.2" d="M435.3,383.05 L410.6,383.05 410.6,527.85 C410.6,549.8 412.75,568.35 417,583.4 421.15,598.5 425.95,609.85 431.4,617.55 433.95,621.2 437.15,624.45 440.85,627.15 444.95,630.2 449.6,632.7 454.95,634.7 465.45,638.55 474.05,640.7 480.75,641.15 L520.75,641.95 542.35,640.5 557.95,637.65 572,631.6 C577.5,628.85 582.05,625.7 585.65,622.15 L596.6,607.9 C607.8,591 613.4,564.3 613.4,527.85 L613.4,383.05 589.75,383.05 C577.55,383.4 567.1,387.95 558.4,396.65 549.6,405.45 545.05,416.05 544.8,428.35 L544.75,527.85 C544.75,539.75 544.2,549.3 543,556.65 541.75,563.9 539.9,568.8 537.3,571.35 532,577.65 523.8,580.75 512.85,580.75 504.8,580.75 498.15,579.45 492.85,576.7 490.55,575.5 488.4,573.95 486.6,572.1 481.3,566.45 478.7,551.7 478.7,527.85 L478.7,428.3 C478.45,418.2 475.35,409.25 469.35,401.4 468.1,399.8 466.65,398.2 465.05,396.6 461.7,393.25 458.1,390.5 454.25,388.4 448.5,385.25 442.2,383.45 435.3,383.05z"/>
    </g>
  </g>
</svg>