<?xml version="1.0" encoding="utf-8"?>
<!-- Generator: flash2svg, http://dissentgraphics.com/tools/flash2svg -->
<svg xmlns:xlink="http://www.w3.org/1999/xlink" id="App-Store" image-rendering="optimizeSpeed" baseProfile="basic" version="1.1" style="background-color:#ffffff" x="0px" y="0px" width="1024px" height="1024px" viewBox="0 0 1024 1024" enable-background="new 0 0 1024 1024" xmlns="http://www.w3.org/2000/svg">
  <defs transform="matrix(1 0 0 1 0 0) "/>
  <g id="Shadow">
    <g id="shape">
      <path id="path" fill="#000000" fill-opacity="0.09803921568627451" d="M688.05,63.85 L688.05,60.05 246.05,60.05 C232.25,60.05 220.45,64.95 210.7,74.7 200.95,84.45 196.05,96.25 196.05,110.05 L196.05,954.05 C196.05,967.85 200.95,979.65 210.7,989.4 218.2,996.9 226.9,1001.55 236.85,1003.3 239.8,1003.8 242.9,1004.05 246.05,1004.05 L806.25,1004.05 C820.05,1004.05 831.85,999.15 841.6,989.4 851.35,979.65 856.25,967.85 856.25,954.05 L856.25,232.05 688.05,63.85z"/>
    </g>
  </g>
  <g id="background">
    <g id="shape2">
      <path id="path1" fill="#3B99CB" fill-opacity="1" d="M668.05,43.85 L668.05,40.05 226.05,40.05 C212.25,40.05 200.45,44.95 190.7,54.7 180.95,64.45 176.05,76.25 176.05,90.05 L176.05,934.05 C176.05,947.85 180.95,959.65 190.7,969.4 198.2,976.9 206.9,981.55 216.85,983.3 219.8,983.8 222.9,984.05 226.05,984.05 L786.25,984.05 C800.05,984.05 811.85,979.15 821.6,969.4 831.35,959.65 836.25,947.85 836.25,934.05 L836.25,212.05 668.05,43.85z M679.8,194.3 C680.05,194.55 680.25,194.8 680.5,195.05 680.75,195.3 680.95,195.6 681.2,195.85 680.7,195.3 680.25,194.8 679.8,194.3z"/>
    </g>
  </g>
  <g id="corner-sadow">
    <g id="shape7">
      <path id="path5" fill="#000000" fill-opacity="0.2" d="M718.05,212.05 Q699.111,212.05 685.225,199.775 L836.25,350.8 836.25,212.05 718.05,212.05z"/>
    </g>
  </g>
  <g id="corner">
    <g id="shape9">
      <path id="path6" fill="#FFFFFF" fill-opacity="0.8980392156862745" d="M680.5,195.05 Q681.549,196.249 682.7,197.4 C683.55,198.25 684.4,199.05 685.25,199.8 694.5,207.95 705.4,212.05 718.05,212.05 L836.25,212.05 668.05,43.85 668.05,162.05 C668.05,174.75 672.2,185.75 680.5,195.05z"/>
    </g>
  </g>
  <g id="Calque.__201">
    <g id="shape11">
      <path id="path7" fill="#000000" fill-opacity="0.2" d="M540.35,422.55 L532.05,440.75 555.1,501 577.75,501 537.95,397.05 C536.9,394.3 535.05,393.5 532.3,394.55 L520.7,398.95 C518,400 517.15,401.9 518.2,404.6 L519.35,407.6 538.35,416.3 C541,417.5 541.65,419.6 540.35,422.55z M532.65,426.05 C534,423.15 533.35,421 530.65,419.85 L489.75,401.15 C487.1,399.95 485.15,400.85 483.8,403.8 L399.9,587.8 C399.5,588.75 399.25,589.55 399.25,590.35 399.25,590.5 399.25,590.65 399.25,590.8 399.25,590.85 399.25,590.95 399.25,590.95 399.35,591.65 399.55,592.2 399.9,592.7 L411.05,628.45 445.95,613.1 C446.15,613.05 446.35,612.95 446.55,612.85 446.95,612.6 447.3,612.25 447.7,611.85 448.1,611.4 448.4,610.8 448.75,610.1 L532.65,426.05z M599.2,562.9 L576.55,562.9 582,577.25 583.25,576.75 C583,577.6 582.8,578.65 582.6,579.7 582,583.05 582.05,586.65 582.7,590.35 583.1,593.25 583.95,596.2 585.15,599.25 587.8,606.2 591.5,611.65 596.3,615.45 596.6,615.75 596.95,615.9 597.25,616.15 599.8,618 602.75,619.65 606.05,621 L628.2,630 C625.15,628.5 622.95,624.25 621.7,617.2 620.4,610.2 619.45,605.25 618.75,602.3 618.1,599.4 617.4,596.6 616.75,593.95 616.35,592.55 616,591.35 615.75,590.35 615.45,589.4 615.15,588.5 614.85,587.85 612.15,580.85 608.45,575.45 603.65,571.65 602.8,570.95 602,570.4 601.2,569.85 L601.8,569.65 599.2,562.9z M611.2,552.6 L611.2,511.55 C611.2,508.7 609.7,507.25 606.75,507.25 L502.35,507.25 479.65,556.95 606.75,556.95 C609.7,556.95 611.2,555.55 611.2,552.6z M400.35,507.25 C397.4,507.25 395.95,508.7 395.95,511.55 L395.95,552.6 C395.95,555.55 397.4,556.95 400.35,556.95 L406.7,556.95 429.4,507.25 410.1,507.25 400.35,507.25z"/>
    </g>
  </g>
</svg>