<?xml version="1.0" encoding="utf-8"?>
<!-- Generator: flash2svg, http://dissentgraphics.com/tools/flash2svg -->
<svg xmlns:xlink="http://www.w3.org/1999/xlink" id="Contacts" image-rendering="optimizeSpeed" baseProfile="basic" version="1.1" style="background-color:#ffffff" x="0px" y="0px" width="1024px" height="1024px" viewBox="0 0 1024 1024" enable-background="new 0 0 1024 1024" xmlns="http://www.w3.org/2000/svg">
  <defs transform="matrix(1 0 0 1 0 0) "/>
  <g id="Shadow">
    <g id="shape">
      <path id="path" fill="#000000" fill-opacity="0.09803921568627451" d="M688.05,63.85 L688.05,60.05 246.05,60.05 C232.25,60.05 220.45,64.95 210.7,74.7 200.95,84.45 196.05,96.25 196.05,110.05 L196.05,954.05 C196.05,967.85 200.95,979.65 210.7,989.4 218.2,996.9 226.9,1001.55 236.85,1003.3 239.8,1003.8 242.9,1004.05 246.05,1004.05 L806.25,1004.05 C820.05,1004.05 831.85,999.15 841.6,989.4 851.35,979.65 856.25,967.85 856.25,954.05 L856.25,232.05 688.05,63.85z"/>
    </g>
  </g>
  <g id="background">
    <g id="shape2">
      <path id="path1" fill="#B79B5C" fill-opacity="1" d="M668.05,43.85 L668.05,40.05 226.05,40.05 C212.25,40.05 200.45,44.95 190.7,54.7 180.95,64.45 176.05,76.25 176.05,90.05 L176.05,934.05 C176.05,947.85 180.95,959.65 190.7,969.4 198.2,976.9 206.9,981.55 216.85,983.3 219.8,983.8 222.9,984.05 226.05,984.05 L786.25,984.05 C800.05,984.05 811.85,979.15 821.6,969.4 831.35,959.65 836.25,947.85 836.25,934.05 L836.25,212.05 668.05,43.85z M680.5,195.05 C680.75,195.3 680.95,195.6 681.2,195.85 680.7,195.3 680.25,194.8 679.8,194.3 680.05,194.55 680.25,194.8 680.5,195.05z"/>
    </g>
  </g>
  <g id="corner-sadow">
    <g id="shape7">
      <path id="path5" fill="#000000" fill-opacity="0.2" d="M718.05,212.05 Q699.111,212.05 685.225,199.775 L836.25,350.8 836.25,212.05 718.05,212.05z"/>
    </g>
  </g>
  <g id="corner">
    <g id="shape9">
      <path id="path6" fill="#FFFFFF" fill-opacity="0.8980392156862745" d="M680.5,195.05 Q681.549,196.249 682.7,197.4 C683.55,198.25 684.4,199.05 685.25,199.8 694.5,207.95 705.4,212.05 718.05,212.05 L836.25,212.05 668.05,43.85 668.05,162.05 C668.05,174.75 672.2,185.75 680.5,195.05z"/>
    </g>
  </g>
  <g id="Content">
    <g id="shape11">
      <path id="path7" fill="#000000" fill-opacity="0.2" d="M604.8,413.3 C585.05,393.35 556.95,382.4 525.65,382.4 486.8,382.4 451.7,397.6 426.8,425.15 403.05,451.4 390,486.8 390,524.8 390,559 401.7,588.5 423.8,610.1 444.6,630.45 472.95,641.65 503.65,641.65 529.8,641.65 550.15,637.1 569.7,626.75 L574.5,624.25 564.4,597.1 558.1,600.6 C544.75,608.1 526.8,612.25 507.55,612.25 483.05,612.25 462,604 446.75,588.45 430.95,572.35 422.6,549.6 422.6,522.7 422.6,489.85 432.9,461.65 452.45,441.05 470.75,421.75 495.75,411.1 522.8,411.1 571.95,411.1 602.45,442.6 602.45,493.25 602.45,531.55 584.05,551.95 570.75,551.95 L570.55,551.95 C568,551.9 566.95,550.95 566.25,550.1 564.7,548.15 561.5,541.25 565.8,519.55 L578.75,450.6 574.35,448.6 C563.3,443.5 548.55,440.6 533.8,440.6 508.85,440.6 485.75,450.35 468.8,468.05 452.75,484.8 443.55,507.7 443.55,530.85 443.55,564.25 465.95,581.75 488.05,581.75 507.1,581.75 522.55,574.4 535,559.45 536.8,565.35 539.65,569.45 542.3,572.2 548.15,578.35 556.45,581.75 565.75,581.75 600.2,581.75 635.05,550.6 635.05,491.1 635.05,460.6 624.3,432.95 604.8,413.3z M540.1,472.7 L533.75,507.05 C530.2,527 513.2,550.2 496.55,550.2 481.6,550.2 479.35,537.15 479.35,529.4 479.35,498.15 502.35,471.75 529.55,471.75 Q534.8,471.75 540.1,472.7z"/>
    </g>
  </g>
</svg>