<?xml version="1.0" encoding="utf-8"?>
<!-- Generator: flash2svg, http://dissentgraphics.com/tools/flash2svg -->
<svg xmlns:xlink="http://www.w3.org/1999/xlink" id="Adobe-Photoshop" image-rendering="optimizeSpeed" baseProfile="basic" version="1.1" style="background-color:#ffffff" x="0px" y="0px" width="1024px" height="1024px" viewBox="0 0 1024 1024" enable-background="new 0 0 1024 1024" xmlns="http://www.w3.org/2000/svg">
  <defs transform="matrix(1 0 0 1 0 0) "/>
  <g id="Shadow">
    <g id="shape">
      <path id="path" fill="#000000" fill-opacity="0.09803921568627451" d="M688.05,63.85 L688.05,60.05 246.05,60.05 C232.25,60.05 220.45,64.95 210.7,74.7 200.95,84.45 196.05,96.25 196.05,110.05 L196.05,954.05 C196.05,967.85 200.95,979.65 210.7,989.4 218.2,996.9 226.9,1001.55 236.85,1003.3 239.8,1003.8 242.9,1004.05 246.05,1004.05 L806.25,1004.05 C820.05,1004.05 831.85,999.15 841.6,989.4 851.35,979.65 856.25,967.85 856.25,954.05 L856.25,232.05 688.05,63.85z"/>
    </g>
  </g>
  <g id="background">
    <g id="shape2">
      <path id="path1" fill="#333764" fill-opacity="1" d="M668.05,43.85 L668.05,40.05 226.05,40.05 C212.25,40.05 200.45,44.95 190.7,54.7 180.95,64.45 176.05,76.25 176.05,90.05 L176.05,934.05 C176.05,947.85 180.95,959.65 190.7,969.4 198.2,976.9 206.9,981.55 216.85,983.3 219.8,983.8 222.9,984.05 226.05,984.05 L786.25,984.05 C800.05,984.05 811.85,979.15 821.6,969.4 831.35,959.65 836.25,947.85 836.25,934.05 L836.25,212.05 668.05,43.85z M680.5,195.05 C680.75,195.3 680.95,195.6 681.2,195.85 680.7,195.3 680.25,194.8 679.8,194.3 680.05,194.55 680.25,194.8 680.5,195.05z"/>
    </g>
  </g>
  <g id="corner-sadow">
    <g id="shape7">
      <path id="path5" fill="#000000" fill-opacity="0.2" d="M718.05,212.05 Q699.111,212.05 685.225,199.775 L836.25,350.8 836.25,212.05 718.05,212.05z"/>
    </g>
  </g>
  <g id="corner">
    <g id="shape9">
      <path id="path6" fill="#FFFFFF" fill-opacity="0.8980392156862745" d="M680.5,195.05 Q681.549,196.249 682.7,197.4 C683.55,198.25 684.4,199.05 685.25,199.8 694.5,207.95 705.4,212.05 718.05,212.05 L836.25,212.05 668.05,43.85 668.05,162.05 C668.05,174.75 672.2,185.75 680.5,195.05z"/>
    </g>
  </g>
  <g id="Content">
    <g id="shape11">
      <path id="path7" fill="#000000" fill-opacity="0.2" d="M658.1,592.7 C658.1,584.55 656.65,577.2 653.8,570.65 651.05,564.1 646.9,559.2 641.45,555.95 635.95,552.7 629.15,551.1 621,551.1 L596.2,551.1 C589.95,551.1 585.6,550.1 583.15,548.15 580.7,546.15 579.5,542.1 579.5,536.15 L579.5,528.4 C579.5,521.75 580.95,517.5 584,515.75 587,514.05 591.7,513.25 598.1,513.25 L613.65,513.25 C623.3,513.25 636.2,513.95 652.45,515.35 L652.45,491.8 C646.05,489.9 637.55,488.45 626.95,487.3 L602.7,485.65 591.95,485.65 C579.25,485.8 569.15,488.6 561.75,494.15 557.7,497.35 554.6,501.55 552.65,506.9 550.55,512.15 549.5,518.6 549.5,526.15 L549.5,539.6 C549.5,553.35 552.9,563.8 559.65,570.75 566.4,577.65 576.5,581.1 589.95,581.1 L613.95,581.1 C616.85,581.1 619.15,581.4 621,582.1 623.35,583.05 625.15,584.6 626.3,586.85 627.5,589.1 628.1,592.1 628.1,595.8 L628.1,604.2 C628.1,609.9 626,613.7 621.7,615.6 L615.75,617.25 595.4,617.65 C583.6,617.65 569.85,616.9 554.2,615.35 L554.2,638.9 C568.75,643.15 588.95,645.3 614.8,645.3 619.6,645.3 624,644.85 628,644.1 632.05,643.35 635.7,642.15 638.95,640.6 651.75,634.7 658.1,622.25 658.1,603.15 L658.1,592.7z M478.45,382.05 L365.95,382.05 365.95,643.15 415.95,643.15 415.95,539.65 445.2,543.65 485.6,546.8 C497,546.8 507.3,544.7 516.65,540.35 523.7,537.35 529.6,532.9 534.25,527 538.85,521.2 542.8,512.8 546.05,501.85 549.25,491 550.75,477.9 550.75,462.7 550.75,436.45 545.4,416.8 534.75,403.75 528.9,396.45 521.35,391.05 511.95,387.4 502.5,383.8 491.4,382.05 478.45,382.05z M497.45,486.7 C495.5,492.75 492.5,497 488.4,499.4 484.8,501.55 480.15,502.55 474.5,502.55 L415.95,502.55 415.95,426.25 474.5,426.25 C483.1,426.25 489.5,429.3 493.85,435.45 498.25,441.5 500.45,450.75 500.6,463.05 500.6,472.8 499.55,480.7 497.45,486.7z"/>
    </g>
  </g>
</svg>