<?xml version="1.0" encoding="utf-8"?>
<!-- Generator: flash2svg, http://dissentgraphics.com/tools/flash2svg -->
<svg xmlns:xlink="http://www.w3.org/1999/xlink" id="Adobe-Indesign" image-rendering="optimizeSpeed" baseProfile="basic" version="1.1" style="background-color:#ffffff" x="0px" y="0px" width="1024px" height="1024px" viewBox="0 0 1024 1024" enable-background="new 0 0 1024 1024" xmlns="http://www.w3.org/2000/svg">
  <defs transform="matrix(1 0 0 1 0 0) "/>
  <g id="Shadow">
    <g id="shape">
      <path id="path" fill="#000000" fill-opacity="0.09803921568627451" d="M688.05,63.85 L688.05,60.05 246.05,60.05 C232.25,60.05 220.45,64.95 210.7,74.7 200.95,84.45 196.05,96.25 196.05,110.05 L196.05,954.05 C196.05,967.85 200.95,979.65 210.7,989.4 218.2,996.9 226.9,1001.55 236.85,1003.3 239.8,1003.8 242.9,1004.05 246.05,1004.05 L806.25,1004.05 C820.05,1004.05 831.85,999.15 841.6,989.4 851.35,979.65 856.25,967.85 856.25,954.05 L856.25,232.05 688.05,63.85z"/>
    </g>
  </g>
  <g id="background">
    <g id="shape2">
      <path id="path1" fill="#5F213B" fill-opacity="1" d="M668.05,43.85 L668.05,40.05 226.05,40.05 C212.25,40.05 200.45,44.95 190.7,54.7 180.95,64.45 176.05,76.25 176.05,90.05 L176.05,934.05 C176.05,947.85 180.95,959.65 190.7,969.4 198.2,976.9 206.9,981.55 216.85,983.3 219.8,983.8 222.9,984.05 226.05,984.05 L786.25,984.05 C800.05,984.05 811.85,979.15 821.6,969.4 831.35,959.65 836.25,947.85 836.25,934.05 L836.25,212.05 668.05,43.85z M680.5,195.05 C680.75,195.3 680.95,195.6 681.2,195.85 680.7,195.3 680.25,194.8 679.8,194.3 680.05,194.55 680.25,194.8 680.5,195.05z"/>
    </g>
  </g>
  <g id="corner-sadow">
    <g id="shape7">
      <path id="path5" fill="#000000" fill-opacity="0.2" d="M718.05,212.05 Q699.111,212.05 685.225,199.775 L836.25,350.8 836.25,212.05 718.05,212.05z"/>
    </g>
  </g>
  <g id="corner">
    <g id="shape9">
      <path id="path6" fill="#FFFFFF" fill-opacity="0.8980392156862745" d="M680.5,195.05 Q681.549,196.249 682.7,197.4 C683.55,198.25 684.4,199.05 685.25,199.8 694.5,207.95 705.4,212.05 718.05,212.05 L836.25,212.05 668.05,43.85 668.05,162.05 C668.05,174.75 672.2,185.75 680.5,195.05z"/>
    </g>
  </g>
  <g id="Content">
    <g id="shape11">
      <path id="path7" fill="#000000" fill-opacity="0.2" d="M473.95,381.55 L423.45,381.55 423.45,428.65 473.95,428.65 473.95,381.55z M602.05,476.05 L571.75,476.05 571.75,536.85 C566.65,534.55 560.9,532.7 554.45,531.4 547.95,529.95 542.1,529.25 536.9,529.25 524.9,529.25 516,532.7 510.1,539.6 507.35,542.85 504.9,548 502.8,555 500.6,562.05 499.55,574.25 499.55,591.55 499.55,600.2 500.2,607.95 501.65,614.7 503.1,621.5 505.3,627.4 508.15,632.35 511.05,637.25 514.9,640.95 519.7,643.45 524.45,645.9 530.2,647.15 536.9,647.15 543.25,647.15 549.6,645.85 555.9,643.2 562.25,640.7 567.55,637.65 571.75,634.15 L576.9,645.85 602.05,645.85 602.05,476.05z M531.6,565.8 C532.8,560.65 534.45,557.25 536.45,555.55 538.5,553.85 541.35,553 544.9,553 555.3,553 564.2,554.45 571.75,557.35 L571.75,614.25 C568.1,616.6 564,618.35 559.5,619.45 555.1,620.65 550.2,621.25 544.9,621.25 539.7,621.25 535.9,618.75 533.4,613.75 532.2,611.25 531.3,608.05 530.65,604 L529.85,590 C529.85,579.05 530.4,571 531.6,565.8z M473.95,438.65 L423.45,438.65 423.45,645.4 473.95,645.4 473.95,438.65z"/>
    </g>
  </g>
</svg>