<?xml version="1.0" encoding="utf-8"?>
<!-- Generator: flash2svg, http://dissentgraphics.com/tools/flash2svg -->
<svg xmlns:xlink="http://www.w3.org/1999/xlink" id="Disk-Image" image-rendering="optimizeSpeed" baseProfile="basic" version="1.1" style="background-color:#ffffff" x="0px" y="0px" width="1024px" height="1024px" viewBox="0 0 1024 1024" enable-background="new 0 0 1024 1024" xmlns="http://www.w3.org/2000/svg">
  <defs transform="matrix(1 0 0 1 0 0) "/>
  <g id="Shadow">
    <g id="shape">
      <path id="path" fill="#000000" fill-opacity="0.09803921568627451" d="M688.05,63.85 L688.05,60.05 246.05,60.05 C232.25,60.05 220.45,64.95 210.7,74.7 200.95,84.45 196.05,96.25 196.05,110.05 L196.05,954.05 C196.05,967.85 200.95,979.65 210.7,989.4 218.2,996.9 226.9,1001.55 236.85,1003.3 239.8,1003.8 242.9,1004.05 246.05,1004.05 L806.25,1004.05 C820.05,1004.05 831.85,999.15 841.6,989.4 851.35,979.65 856.25,967.85 856.25,954.05 L856.25,232.05 688.05,63.85z"/>
    </g>
  </g>
  <g id="background">
    <g id="shape2">
      <path id="path1" fill="#E2E8E7" fill-opacity="1" d="M668.05,43.85 L668.05,40.05 226.05,40.05 C212.25,40.05 200.45,44.95 190.7,54.7 180.95,64.45 176.05,76.25 176.05,90.05 L176.05,934.05 C176.05,947.85 180.95,959.65 190.7,969.4 198.2,976.9 206.9,981.55 216.85,983.3 219.8,983.8 222.9,984.05 226.05,984.05 L786.25,984.05 C800.05,984.05 811.85,979.15 821.6,969.4 831.35,959.65 836.25,947.85 836.25,934.05 L836.25,212.05 668.05,43.85z M679.8,194.3 C680.05,194.55 680.25,194.8 680.5,195.05 680.75,195.3 680.95,195.6 681.2,195.85 680.7,195.3 680.25,194.8 679.8,194.3z"/>
    </g>
  </g>
  <g id="corner-sadow">
    <g id="shape7">
      <path id="path5" fill="#000000" fill-opacity="0.2" d="M718.05,212.05 Q699.111,212.05 685.225,199.775 L836.25,350.8 836.25,212.05 718.05,212.05z"/>
    </g>
  </g>
  <g id="corner">
    <g id="shape9">
      <path id="path6" fill="#FFFFFF" fill-opacity="0.8980392156862745" d="M680.5,195.05 Q681.549,196.249 682.7,197.4 C683.55,198.25 684.4,199.05 685.25,199.8 694.5,207.95 705.4,212.05 718.05,212.05 L836.25,212.05 668.05,43.85 668.05,162.05 C668.05,174.75 672.2,185.75 680.5,195.05z"/>
    </g>
  </g>
  <g id="Calque.__202">
    <g id="shape11">
      <path id="path7" fill="#000000" fill-opacity="0.2" d="M415,415 C388.2,441.8 374.8,474.15 374.8,512.05 374.8,549.95 388.2,582.3 415,609.1 441.8,635.9 474.15,649.3 512.05,649.3 549.95,649.3 582.3,635.9 609.1,609.1 635.9,582.3 649.3,549.95 649.3,512.05 649.3,474.15 635.9,441.8 609.1,415 582.3,388.2 549.95,374.8 512.05,374.8 474.15,374.8 441.8,388.2 415,415z M542.25,481.8 C550.6,490.15 554.8,500.25 554.8,512.05 554.8,523.85 550.6,533.9 542.25,542.25 533.9,550.6 523.85,554.8 512.05,554.8 500.25,554.8 490.15,550.6 481.8,542.25 473.45,533.9 469.3,523.85 469.3,512.05 469.3,500.25 473.45,490.15 481.8,481.8 490.15,473.45 500.25,469.3 512.05,469.3 Q529.75,469.3 542.25,481.8z M505.3,518.75 C507.15,520.6 509.4,521.55 512.05,521.55 514.7,521.55 516.9,520.6 518.75,518.75 520.6,516.9 521.55,514.7 521.55,512.05 521.55,509.4 520.6,507.15 518.75,505.3 516.9,503.45 514.7,502.55 512.05,502.55 509.4,502.55 507.15,503.45 505.3,505.3 503.45,507.15 502.55,509.4 502.55,512.05 502.55,514.7 503.45,516.9 505.3,518.75z"/>
    </g>
  </g>
</svg>