<?xml version="1.0" encoding="utf-8"?>
<!-- Generator: flash2svg, http://dissentgraphics.com/tools/flash2svg -->
<svg xmlns:xlink="http://www.w3.org/1999/xlink" id="Adobe-Premiere" image-rendering="optimizeSpeed" baseProfile="basic" version="1.1" style="background-color:#ffffff" x="0px" y="0px" width="1024px" height="1024px" viewBox="0 0 1024 1024" enable-background="new 0 0 1024 1024" xmlns="http://www.w3.org/2000/svg">
  <defs transform="matrix(1 0 0 1 0 0) "/>
  <g id="Shadow">
    <g id="shape">
      <path id="path" fill="#000000" fill-opacity="0.09803921568627451" d="M688.05,63.85 L688.05,60.05 246.05,60.05 C232.25,60.05 220.45,64.95 210.7,74.7 200.95,84.45 196.05,96.25 196.05,110.05 L196.05,954.05 C196.05,967.85 200.95,979.65 210.7,989.4 218.2,996.9 226.9,1001.55 236.85,1003.3 239.8,1003.8 242.9,1004.05 246.05,1004.05 L806.25,1004.05 C820.05,1004.05 831.85,999.15 841.6,989.4 851.35,979.65 856.25,967.85 856.25,954.05 L856.25,232.05 688.05,63.85z"/>
    </g>
  </g>
  <g id="background">
    <g id="shape2">
      <path id="path1" fill="#554265" fill-opacity="1" d="M668.05,43.85 L668.05,40.05 226.05,40.05 C212.25,40.05 200.45,44.95 190.7,54.7 180.95,64.45 176.05,76.25 176.05,90.05 L176.05,934.05 C176.05,947.85 180.95,959.65 190.7,969.4 198.2,976.9 206.9,981.55 216.85,983.3 219.8,983.8 222.9,984.05 226.05,984.05 L786.25,984.05 C800.05,984.05 811.85,979.15 821.6,969.4 831.35,959.65 836.25,947.85 836.25,934.05 L836.25,212.05 668.05,43.85z M680.5,195.05 C680.75,195.3 680.95,195.6 681.2,195.85 680.7,195.3 680.25,194.8 679.8,194.3 680.05,194.55 680.25,194.8 680.5,195.05z"/>
    </g>
  </g>
  <g id="corner-sadow">
    <g id="shape7">
      <path id="path5" fill="#000000" fill-opacity="0.2" d="M718.05,212.05 Q699.111,212.05 685.225,199.775 L836.25,350.8 836.25,212.05 718.05,212.05z"/>
    </g>
  </g>
  <g id="corner">
    <g id="shape9">
      <path id="path6" fill="#FFFFFF" fill-opacity="0.8980392156862745" d="M680.5,195.05 Q681.549,196.249 682.7,197.4 C683.55,198.25 684.4,199.05 685.25,199.8 694.5,207.95 705.4,212.05 718.05,212.05 L836.25,212.05 668.05,43.85 668.05,162.05 C668.05,174.75 672.2,185.75 680.5,195.05z"/>
    </g>
  </g>
  <g id="Content">
    <g id="shape11">
      <path id="path7" fill="#000000" fill-opacity="0.2" d="M633.55,529.95 C628,529.95 622.5,531.25 617,533.85 611.5,536.45 606.05,540.4 600.6,545.6 L595.8,531.1 570.2,531.1 570.2,646.3 600.6,646.3 600.6,572.75 C604.05,567.8 608.1,564.4 612.7,562.6 617.2,560.85 622.9,559.95 629.85,559.95 L646.4,560.55 646.4,531.35 C644.05,530.4 639.8,529.95 633.55,529.95z M523.75,386.6 C514.2,382.9 502.9,381.05 489.85,381.05 L375.75,381.05 375.75,645.85 426.4,645.85 426.4,540.95 456.05,545 497.05,548.2 C508.6,548.2 519.1,546.05 528.5,541.7 535.75,538.6 541.65,534.05 546.35,528.1 551.1,522.2 555.05,513.7 558.4,502.6 561.55,491.6 563.15,478.3 563.15,462.85 563.15,436.3 557.7,416.4 546.9,403.15 541,395.8 533.3,390.2 523.75,386.6z M509.05,487.3 C507.1,493.4 504,497.65 499.9,500.15 496.25,502.3 491.55,503.35 485.8,503.35 L426.4,503.35 426.4,425.95 485.8,425.95 C494.5,425.95 501.05,429.05 505.35,435.3 509.85,441.45 512.15,450.8 512.25,463.25 512.25,473.15 511.2,481.1 509.05,487.3z"/>
    </g>
  </g>
</svg>