<?xml version="1.0" encoding="utf-8"?>
<!-- Generator: flash2svg, http://dissentgraphics.com/tools/flash2svg -->
<svg xmlns:xlink="http://www.w3.org/1999/xlink" id="App-Adobe-Indesign-folder" image-rendering="optimizeSpeed" baseProfile="basic" version="1.1" style="background-color:#ffffff" x="0px" y="0px" width="1024px" height="1024px" viewBox="0 0 1024 1024" enable-background="new 0 0 1024 1024" xmlns="http://www.w3.org/2000/svg">
  <defs transform="matrix(1 0 0 1 0 0) "/>
  <g id="folder-shadow">
    <g id="shape">
      <path id="path" fill="#000000" fill-opacity="0.09803921568627451" d="M782.05,94.45 L782.05,96.4 290.2,96.4 290.2,94.45 191.05,189.8 191.05,262.3 63.15,262.3 63.15,945 C63.15,957.55 73.5,967.85 86,967.85 L982.45,967.85 C994.95,967.85 1005.3,957.55 1005.3,945 L1005.3,262.3 881.35,262.3 881.35,189.8 782.05,94.45z M782.05,262.3 L290.2,262.3 290.2,189.8 782.05,189.8 782.05,262.3z"/>
    </g>
  </g>
  <g id="folder">
    <g id="shape5">
      <path id="path4" fill="#5F213B" fill-opacity="1" d="M758.5,73.05 L758.5,75 266.65,75 266.65,73.05 167.5,168.4 167.5,240.9 39.6,240.9 39.6,923.6 C39.6,936.15 49.95,946.45 62.45,946.45 L958.9,946.45 C971.4,946.45 981.75,936.15 981.75,923.6 L981.75,240.9 857.8,240.9 857.8,168.4 758.5,73.05z M758.5,240.9 L266.65,240.9 266.65,168.4 758.5,168.4 758.5,240.9z"/>
    </g>
  </g>
  <g id="folder-dark">
    <g id="shape10">
      <path id="path8" fill="#000000" fill-opacity="0.2" d="M758.5,168.4 L758.5,75 266.65,75 266.65,168.4 758.5,168.4z M39.6,923.6 C39.6,936.15 49.95,946.45 62.45,946.45 L958.9,946.45 C971.4,946.45 981.75,936.15 981.75,923.6 L981.75,301.85 39.6,301.85 39.6,923.6z"/>
    </g>
  </g>
  <g id="ico-shadow">
    <g id="shape14">
      <path id="path11" fill="#000000" fill-opacity="0.2" d="M618.85,558.1 L592.825,572.675 469.7,449.55 411.575,505.475 446.7,540.6 409.15,758.05 597.575,946.45 958.9,946.45 Q968.25,946.45 975,939.7 981.75,932.95 981.75,923.6 L981.75,921 618.85,558.1z"/>
    </g>
  </g>
  <g id="Ico">
    <g id="shape16">
      <path id="path12" fill="#FFFFFF" fill-opacity="1" d="M618.85,558.1 L583.25,558.1 583.25,629.55 C577.3,626.85 570.5,624.7 562.9,623.1 555.3,621.45 548.45,620.65 542.3,620.65 528.2,620.65 517.75,624.7 510.8,632.75 507.55,636.6 504.7,642.65 502.2,650.9 499.65,659.2 498.4,673.5 498.4,693.85 498.4,704 499.2,713.05 500.85,721 502.6,729 505.15,735.95 508.55,741.7 511.95,747.5 516.45,751.85 522.1,754.75 527.7,757.7 534.45,759.1 542.3,759.1 549.75,759.1 557.2,757.6 564.65,754.5 572.1,751.55 578.3,748 583.25,743.85 L589.3,757.6 618.85,757.6 618.85,558.1z M536.1,663.55 C537.5,657.5 539.4,653.5 541.8,651.5 544.2,649.5 547.5,648.55 551.7,648.55 563.9,648.55 574.4,650.25 583.25,653.65 L583.25,720.5 C578.95,723.25 574.15,725.25 568.85,726.6 563.65,728 557.95,728.7 551.7,728.7 545.6,728.7 541.1,725.75 538.2,719.9 536.8,717 535.75,713.2 535,708.45 L534,692 C534,679.15 534.7,669.65 536.1,663.55z M468.35,447.1 L409,447.1 409,502.4 468.35,502.4 468.35,447.1z M468.35,514.15 L409,514.15 409,757.1 468.35,757.1 468.35,514.15z"/>
    </g>
  </g>
</svg>