<?xml version="1.0" encoding="utf-8"?>
<!-- Generator: flash2svg, http://dissentgraphics.com/tools/flash2svg -->
<svg id="User-Pictures-folder" image-rendering="optimizeSpeed" baseProfile="basic" version="1.1" style="background-color:#FFFFFF" x="0px" y="0px" width="1024px" height="1024px" viewBox="0 0 1024 1024" enable-background="new 0 0 1024 1024" xmlns="http://www.w3.org/2000/svg" xmlns:xlink="http://www.w3.org/1999/xlink">
  <defs transform="matrix(1 0 0 1 0 0) "/>
  <g id="folder-shadow">
    <g id="shape">
      <path id="path" fill="#000000" fill-opacity="0.09803921568627451" d="M782,94.4 L782,96.35 290.15,96.35 290.15,94.4 191,189.75 191,262.25 63.1,262.25 63.1,944.95 C63.1,957.5 73.45,967.8 85.95,967.8 L982.4,967.8 C994.9,967.8 1005.25,957.5 1005.25,944.95 L1005.25,262.25 881.3,262.25 881.3,189.75 782,94.4z M782,262.25 L290.15,262.25 290.15,189.75 782,189.75 782,262.25z"/>
    </g>
  </g>
  <g id="folder">
    <g id="shape5">
      <path id="path4" fill="#334469" fill-opacity="1" d="M758.45,73 L758.45,74.95 266.6,74.95 266.6,73 167.45,168.35 167.45,240.85 39.55,240.85 39.55,923.55 C39.55,936.1 49.9,946.4 62.4,946.4 L958.85,946.4 C971.35,946.4 981.7,936.1 981.7,923.55 L981.7,240.85 857.75,240.85 857.75,168.35 758.45,73z M758.45,240.85 L266.6,240.85 266.6,168.35 758.45,168.35 758.45,240.85z"/>
    </g>
  </g>
  <g id="folder-dark">
    <g id="shape10">
      <path id="path8" fill="#000000" fill-opacity="0.2" d="M758.45,168.35 L758.45,74.95 266.6,74.95 266.6,168.35 758.45,168.35z M39.55,923.55 C39.55,936.1 49.9,946.4 62.4,946.4 L958.85,946.4 C971.35,946.4 981.7,936.1 981.7,923.55 L981.7,301.8 39.55,301.8 39.55,923.55z"/>
    </g>
  </g>
  <g id="ico-shadow">
    <g id="shape14">
      <path id="path11" fill="#000000" fill-opacity="0.2" d="M981.7,776.2 L666.5,461 606.575,521.925 981.7,897.05 981.7,776.2z M573.75,495.2 L467.7,625.05 417,574.35 290.95,755 482.35,946.4 958.85,946.4 Q968.2,946.4 974.95,939.65 981.7,932.9 981.7,923.55 L981.7,903.15 573.75,495.2z"/>
    </g>
  </g>
  <g id="Ico">
    <g id="shape18">
      <path id="path14" fill="#FFFFFF" fill-opacity="1" d="M676.75,488.8 C676.75,477 672.55,466.9 664.2,458.55 655.85,450.2 645.75,446 633.95,446 622.15,446 612.05,450.2 603.7,458.55 595.35,466.9 591.15,477 591.15,488.8 591.15,500.6 595.35,510.7 603.7,519.05 612.05,527.4 622.15,531.6 633.95,531.6 645.75,531.6 655.85,527.4 664.2,519.05 672.55,510.7 676.75,500.6 676.75,488.8z M731.1,754.85 C733.45,752.75 734.85,750.2 735.25,747.15 Q735.9,742.5 733.3,738.55 L573.75,495.2 C572.2,492.85 570.05,491.2 567.35,490.25 566,489.8 564.7,489.55 563.35,489.55 562,489.55 560.6,489.8 559.2,490.25 556.5,491.2 554.35,492.85 552.8,495.2 L467.65,625.1 559.65,757.95 722.85,757.95 C725.95,757.95 728.7,756.9 731.1,754.85z M289.5,750.4 C289.8,752.55 290.8,754.35 292.45,755.8 294.1,757.25 296,757.95 298.2,757.95 L521.2,757.95 C523.35,757.95 525.3,757.25 526.95,755.8 528.6,754.35 529.55,752.55 529.85,750.4 530.15,748.25 529.7,746.25 528.5,744.4 L417,574.35 C415.9,572.7 414.4,571.55 412.5,570.9 411.6,570.55 410.65,570.4 409.7,570.4 408.75,570.4 407.8,570.55 406.8,570.9 404.95,571.55 403.45,572.7 402.35,574.35 L290.85,744.4 C289.7,746.25 289.2,748.25 289.5,750.4z"/>
    </g>
  </g>
</svg>