<?xml version="1.0" encoding="utf-8"?>
<!-- Generator: flash2svg, http://dissentgraphics.com/tools/flash2svg -->
<svg xmlns:xlink="http://www.w3.org/1999/xlink" id="Adobe-Photoshop-folder" image-rendering="optimizeSpeed" baseProfile="basic" version="1.1" style="background-color:#ffffff" x="0px" y="0px" width="1024px" height="1024px" viewBox="0 0 1024 1024" enable-background="new 0 0 1024 1024" xmlns="http://www.w3.org/2000/svg">
  <defs transform="matrix(1 0 0 1 0 0) "/>
  <g id="folder-shadow">
    <g id="shape">
      <path id="path" fill="#000000" fill-opacity="0.09803921568627451" d="M782.05,94.45 L782.05,96.4 290.2,96.4 290.2,94.45 191.05,189.8 191.05,262.3 63.15,262.3 63.15,945 C63.15,957.55 73.5,967.85 86,967.85 L982.45,967.85 C994.95,967.85 1005.3,957.55 1005.3,945 L1005.3,262.3 881.35,262.3 881.35,189.8 782.05,94.45z M782.05,262.3 L290.2,262.3 290.2,189.8 782.05,189.8 782.05,262.3z"/>
    </g>
  </g>
  <g id="folder">
    <g id="shape5">
      <path id="path4" fill="#333764" fill-opacity="1" d="M758.5,73.05 L758.5,75 266.65,75 266.65,73.05 167.5,168.4 167.5,240.9 39.6,240.9 39.6,923.6 C39.6,936.15 49.95,946.45 62.45,946.45 L958.9,946.45 C971.4,946.45 981.75,936.15 981.75,923.6 L981.75,240.9 857.8,240.9 857.8,168.4 758.5,73.05z M758.5,240.9 L266.65,240.9 266.65,168.4 758.5,168.4 758.5,240.9z"/>
    </g>
  </g>
  <g id="folder-dark">
    <g id="shape10">
      <path id="path8" fill="#000000" fill-opacity="0.2" d="M758.5,168.4 L758.5,75 266.65,75 266.65,168.4 758.5,168.4z M39.6,923.6 C39.6,936.15 49.95,946.45 62.45,946.45 L958.9,946.45 C971.4,946.45 981.75,936.15 981.75,923.6 L981.75,301.85 39.6,301.85 39.6,923.6z"/>
    </g>
  </g>
  <g id="ico-shadow">
    <g id="shape14">
      <path id="path11" fill="#000000" fill-opacity="0.2" d="M647.025,582.025 L528.05,463.05 368.5,484.15 336.35,754.275 528.55,946.45 958.9,946.45 Q968.25,946.45 975,939.7 981.75,932.95 981.75,923.6 L981.75,881.65 676.85,576.75 647.025,582.025z"/>
    </g>
  </g>
  <g id="Ico">
    <g id="shape16">
      <path id="path12" fill="#FFFFFF" fill-opacity="1" d="M678.45,669.9 C675.2,662.15 670.35,656.35 663.9,652.55 657.4,648.7 649.35,646.8 639.7,646.8 L610.45,646.8 C603,646.8 597.9,645.6 595,643.3 592.1,640.95 590.65,636.2 590.65,629.15 L590.65,619.95 C590.65,612.1 592.45,607.1 596,605.05 599.55,603.05 605.1,602.05 612.7,602.05 L631.05,602.05 C642.4,602.05 657.7,602.9 676.85,604.55 L676.85,576.75 C669.35,574.5 659.25,572.75 646.75,571.45 L618.05,569.5 605.4,569.5 C590.4,569.65 578.45,573 569.7,579.5 564.95,583.3 561.3,588.3 558.95,594.55 556.5,600.8 555.25,608.4 555.25,617.3 L555.25,633.2 C555.25,649.45 559.25,661.75 567.25,670 575.2,678.15 587.15,682.25 603,682.25 L631.4,682.25 C634.8,682.25 637.55,682.6 639.7,683.45 642.5,684.55 644.65,686.4 646,689.05 647.4,691.7 648.1,695.25 648.1,699.65 L648.1,709.55 C648.1,716.25 645.6,720.75 640.55,723 L633.55,724.95 609.45,725.45 C595.5,725.45 579.3,724.55 560.8,722.7 L560.8,750.5 C578,755.55 601.85,758.05 632.4,758.05 638.05,758.05 643.25,757.55 647.95,756.65 652.8,755.8 657.05,754.35 660.95,752.5 676,745.55 683.5,730.8 683.5,708.25 L683.5,695.95 C683.5,686.3 681.85,677.6 678.45,669.9z M537.8,472.75 C530.95,464.1 522,457.7 510.9,453.4 499.75,449.15 486.6,447.05 471.35,447.05 L338.4,447.05 338.4,755.55 397.5,755.55 397.5,633.25 432.05,638 479.8,641.7 C493.25,641.7 505.4,639.2 516.45,634.1 524.75,630.55 531.7,625.3 537.2,618.3 542.7,611.45 547.35,601.55 551.2,588.65 554.95,575.8 556.75,560.3 556.75,542.35 556.75,511.35 550.4,488.1 537.8,472.75z M497.45,542.75 C497.45,554.3 496.25,563.6 493.75,570.75 491.45,577.9 487.9,582.9 483.05,585.75 478.8,588.25 473.3,589.45 466.65,589.45 L397.5,589.45 397.5,499.3 466.65,499.3 Q481.8,499.3 489.5,510.2 C494.7,517.35 497.3,528.2 497.45,542.75z"/>
    </g>
  </g>
</svg>