<?xml version="1.0" encoding="utf-8"?>
<!-- Generator: flash2svg, http://dissentgraphics.com/tools/flash2svg -->
<svg id="App-Adobe-Creative-Cloud-folder" image-rendering="optimizeSpeed" baseProfile="basic" version="1.1" style="background-color:#FFFFFF" x="0px" y="0px" width="1024px" height="1024px" viewBox="0 0 1024 1024" enable-background="new 0 0 1024 1024" xmlns="http://www.w3.org/2000/svg" xmlns:xlink="http://www.w3.org/1999/xlink">
  <defs transform="matrix(1 0 0 1 0 0) "/>
  <g id="folder-shadow">
    <g id="shape">
      <path id="path" fill="#000000" fill-opacity="0.09803921568627451" d="M782,94.4 L782,96.35 290.15,96.35 290.15,94.4 191,189.75 191,262.25 63.1,262.25 63.1,944.95 C63.1,957.5 73.45,967.8 85.95,967.8 L982.4,967.8 C994.9,967.8 1005.25,957.5 1005.25,944.95 L1005.25,262.25 881.3,262.25 881.3,189.75 782,94.4z M782,262.25 L290.15,262.25 290.15,189.75 782,189.75 782,262.25z"/>
    </g>
  </g>
  <g id="folder">
    <g id="shape5">
      <path id="path4" fill="#672B2B" fill-opacity="1" d="M758.45,73 L758.45,74.95 266.6,74.95 266.6,73 167.45,168.35 167.45,240.85 39.55,240.85 39.55,923.55 C39.55,936.1 49.9,946.4 62.4,946.4 L958.85,946.4 C971.35,946.4 981.7,936.1 981.7,923.55 L981.7,240.85 857.75,240.85 857.75,168.35 758.45,73z M758.45,240.85 L266.6,240.85 266.6,168.35 758.45,168.35 758.45,240.85z"/>
    </g>
  </g>
  <g id="folder-dark">
    <g id="shape10">
      <path id="path8" fill="#000000" fill-opacity="0.2" d="M39.55,923.55 C39.55,936.1 49.9,946.4 62.4,946.4 L958.85,946.4 C971.35,946.4 981.7,936.1 981.7,923.55 L981.7,301.8 39.55,301.8 39.55,923.55z M758.45,168.35 L758.45,74.95 266.6,74.95 266.6,168.35 758.45,168.35z"/>
    </g>
  </g>
  <g id="ico-shadow">
    <g id="shape14">
      <path id="path11" fill="#000000" fill-opacity="0.2" d="M397.3,523.825 L373.1,738.85 580.65,946.4 958.85,946.4 Q968.2,946.4 974.95,939.65 981.7,932.9 981.7,923.55 L981.7,902.95 542.7,463.95 397.3,523.825z"/>
    </g>
  </g>
  <g id="Calque.__201">
    <g id="shape16">
      <path id="path12" fill="#FFFFFF" fill-opacity="1" d="M693.2,658.8 L693.2,628.8 C676.9,622.45 658.55,619.3 638.1,619.3 L625.25,619.3 C610.65,619.3 599.3,624.7 591.25,635.5 583.1,646.3 579.05,664.6 579.05,690.45 579.05,738.1 594.45,761.9 625.25,761.9 L651.6,762.15 C671.1,762.15 685.55,758.7 695,751.85 L695,721.85 690.35,722.4 C680.5,723.4 668.7,723.9 654.95,723.9 L641.95,723.4 C639.55,723.05 637.3,721.8 635.15,719.65 632.9,717.45 631.55,714.2 631.05,709.9 L630.25,690.7 631.15,671.3 C631.75,666.65 633.25,663.3 635.65,661.25 638,659.1 640.2,657.9 642.35,657.65 L661.4,657.25 C672.05,657.25 682.65,657.75 693.2,658.8z M542.7,463.95 C524.2,457.05 508.55,452.6 495.7,450.6 482.85,448.45 462.05,447.35 433.3,447.35 394,447.35 366.65,460.1 351.25,485.65 335.85,511 328.15,549.75 328.15,601.9 328.15,654.05 336.25,692.8 352.45,718.2 360.6,730.75 371.4,740.3 384.9,746.75 398.25,753.25 414.4,756.65 433.3,756.9 L463.1,756.9 C476.35,756.9 489.65,756.1 503,754.45 516.25,752.8 529.45,749.25 542.7,743.7 L542.7,681.1 531.15,682.35 C511.55,683.95 487.35,684.75 458.6,684.75 437.85,684.75 424.35,679.6 418.1,669.35 411.9,659.1 408.8,636.8 408.8,602.5 408.8,557.25 414.6,531.15 426.2,524.1 431.2,521.15 444.85,519.65 467.15,519.65 481.85,519.65 507.05,522 542.7,526.75 L542.7,463.95z"/>
    </g>
  </g>
</svg>