<?xml version="1.0" encoding="utf-8"?>
<!-- Generator: flash2svg, http://dissentgraphics.com/tools/flash2svg -->
<svg xmlns:xlink="http://www.w3.org/1999/xlink" id="Folders-App-ParallelsDesktop-Win-folder" image-rendering="optimizeSpeed" baseProfile="basic" version="1.1" style="background-color:#ffffff" x="0px" y="0px" width="1024px" height="1024px" viewBox="0 0 1024 1024" enable-background="new 0 0 1024 1024" xmlns="http://www.w3.org/2000/svg">
  <defs transform="matrix(1 0 0 1 0 0) "/>
  <g id="folder-shadow">
    <g id="shape">
      <path id="path" fill="#000000" fill-opacity="0.09803921568627451" d="M782.05,94.45 L782.05,96.4 290.2,96.4 290.2,94.45 191.05,189.8 191.05,262.3 63.15,262.3 63.15,945 C63.15,957.55 73.5,967.85 86,967.85 L982.45,967.85 C994.95,967.85 1005.3,957.55 1005.3,945 L1005.3,262.3 881.35,262.3 881.35,189.8 782.05,94.45z M782.05,262.3 L290.2,262.3 290.2,189.8 782.05,189.8 782.05,262.3z"/>
    </g>
  </g>
  <g id="folder">
    <g id="shape5">
      <path id="path4" fill="#CD474F" fill-opacity="1" d="M758.5,73.05 L758.5,75 266.65,75 266.65,73.05 167.5,168.4 167.5,240.9 39.6,240.9 39.6,923.6 C39.6,936.15 49.95,946.45 62.45,946.45 L958.9,946.45 C971.4,946.45 981.75,936.15 981.75,923.6 L981.75,240.9 857.8,240.9 857.8,168.4 758.5,73.05z M758.5,240.9 L266.65,240.9 266.65,168.4 758.5,168.4 758.5,240.9z"/>
    </g>
  </g>
  <g id="folder-dark">
    <g id="shape10">
      <path id="path8" fill="#000000" fill-opacity="0.2" d="M758.5,168.4 L758.5,75 266.65,75 266.65,168.4 758.5,168.4z M39.6,923.6 C39.6,936.15 49.95,946.45 62.45,946.45 L958.9,946.45 C971.4,946.45 981.75,936.15 981.75,923.6 L981.75,301.85 39.6,301.85 39.6,923.6z"/>
    </g>
  </g>
  <g id="folder-dark1">
    <g id="shape14">
      <path id="path11" fill="#000000" fill-opacity="0.2" d="M758.5,168.4 L758.5,75 266.65,75 266.65,168.4 758.5,168.4z M981.75,762.95 L674.85,456.05 371.25,461.05 370.425,702.325 614.55,946.45 958.9,946.45 C971.4,946.45 981.75,936.15 981.75,923.6 L981.75,762.95z"/>
    </g>
  </g>
  <g id="Ico">
    <g id="shape18">
      <path id="path14" fill="#FFFFFF" fill-opacity="1" d="M668.9,450.85 C665.35,447.35 661.15,445.6 656.2,445.6 L370.45,445.6 C365.5,445.6 361.3,447.35 357.8,450.85 354.25,454.4 352.5,458.6 352.5,463.55 L352.5,684.4 C352.5,689.35 354.25,693.55 357.8,697.1 361.3,700.6 365.5,702.3 370.45,702.3 L471.55,702.3 468.05,712.45 457.05,743.7 C457.05,747.5 458.4,750.8 461.1,753.45 463.8,756.15 467.1,757.55 470.9,757.55 L560.35,757.55 C564.15,757.55 567.45,756.15 570.15,753.45 572.85,750.8 574.2,747.5 574.2,743.7 L563.25,712.45 559.7,702.3 656.2,702.3 C661.15,702.3 665.35,700.6 668.9,697.1 672.4,693.55 674.15,689.35 674.15,684.4 L674.15,463.55 C674.15,458.6 672.4,454.4 668.9,450.85z M643.75,477.1 L643.75,670.85 C643.75,673.9 642.2,675.4 639.1,675.4 L387.5,675.4 C384.45,675.4 382.9,673.9 382.9,670.85 L382.9,477.1 C382.9,474.05 384.45,472.5 387.5,472.5 L639.1,472.5 C642.2,472.5 643.75,474.05 643.75,477.1z M516.1,463.75 C516.1,464.5 515.8,465.2 515.25,465.7 514.75,466.25 514.05,466.5 513.3,466.5 512.55,466.5 511.9,466.25 511.35,465.7 510.85,465.2 510.55,464.5 510.55,463.75 510.55,463 510.85,462.35 511.35,461.8 511.9,461.25 512.55,461 513.3,461 514.05,461 514.75,461.25 515.25,461.8 515.8,462.35 516.1,463 516.1,463.75z"/>
    </g>
  </g>
  <g id="ico-shadow">
    <g id="shape26">
      <path id="path21" fill="#FFFFFF" fill-opacity="1" d="M509.5,567.9 L525.5,513.4 471,513.4 455,567.9 509.5,567.9z M534.75,513.4 L518.75,567.9 573.25,567.9 589.25,513.4 534.75,513.4z M571.15,576.8 L516.65,576.8 500.65,631.3 555.15,631.3 571.15,576.8z M452.9,576.8 L436.9,631.3 491.4,631.3 507.4,576.8 452.9,576.8z"/>
    </g>
  </g>
</svg>