
<svg xmlns="http://www.w3.org/2000/svg" version="1.1" xmlns:xlink="http://www.w3.org/1999/xlink" preserveAspectRatio="none" x="0px" y="0px" width="1024px" height="1024px" viewBox="0 0 1024 1024">
<defs>
<g id="Layer4_0_FILL">
<path fill="#000000" fill-opacity="0.09803921568627451" stroke="none" d="
M 782 94.4
L 782 96.35 290.15 96.35 290.15 94.4 191 189.75 191 262.25 63.1 262.25 63.1 944.95
Q 63.1 954.3 69.85 961.05 76.6 967.8 85.95 967.8
L 982.4 967.8
Q 991.75 967.8 998.5 961.05 1005.25 954.3 1005.25 944.95
L 1005.25 262.25 881.3 262.25 881.3 189.75 782 94.4
M 782 189.75
L 782 262.25 290.15 262.25 290.15 189.75 782 189.75 Z"/>
</g>

<g id="Layer3_0_FILL">
<path fill="#EC5D75" stroke="none" d="
M 758.45 73
L 758.45 74.95 266.6 74.95 266.6 73 167.45 168.35 167.45 240.85 39.55 240.85 39.55 923.55
Q 39.55 932.9 46.3 939.65 53.05 946.4 62.4 946.4
L 958.85 946.4
Q 968.2 946.4 974.95 939.65 981.7 932.9 981.7 923.55
L 981.7 240.85 857.75 240.85 857.75 168.35 758.45 73
M 758.45 168.35
L 758.45 240.85 266.6 240.85 266.6 168.35 758.45 168.35 Z"/>
</g>

<g id="Layer2_0_FILL">
<path fill="#000000" fill-opacity="0.2" stroke="none" d="
M 46.3 939.65
Q 53.05 946.4 62.4 946.4
L 958.85 946.4
Q 968.2 946.4 974.95 939.65 981.7 932.9 981.7 923.55
L 981.7 301.8 39.55 301.8 39.55 923.55
Q 39.55 932.9 46.3 939.65
M 758.45 168.35
L 758.45 74.95 266.6 74.95 266.6 168.35 758.45 168.35 Z"/>
</g>

<g id="Layer1_0_FILL">
<path fill="#000000" fill-opacity="0.2" stroke="none" d="
M 481.2 703
L 421.65 750.55 617.5 946.4 958.85 946.4
Q 968.2 946.4 974.95 939.65 981.7 932.9 981.7 923.55
L 981.7 810.55 629.25 455.25 459.65 490.5 481.2 703 Z"/>
</g>

<g id="Layer0_0_FILL">
<path fill="#FFFFFF" stroke="none" d="
M 629.25 455.25
L 623.4 454.65 471.2 486.25
Q 462.9 487.8 462.9 497.35
L 462.9 663.4
Q 462.9 673.3 457.65 677.6 450.9 682.8 432.15 682.8 426.2 682.8 421.05 683.4 407.7 685 399.55 690.75 389.1 698.45 389.1 712.6 389.1 714 389.15 715.3 389.8 727.6 396.15 735.65 406.6 749.5 432.15 749.5 432.95 749.5 433.75 749.5 458.4 749.1 471.2 736.3 481.35 726.1 481.35 712.6
L 481.35 557.35
Q 481.35 552.1 482.25 549.95 483.15 547.75 486.25 546.9
L 607.1 520.75
Q 613.25 519.2 615.1 521.35 616.65 523.2 616.65 529.65
L 616.65 633
Q 616.65 640.9 613.65 644.9 612.8 646.05 611.7 646.85 606.5 651.1 592.05 651.1 562.5 651.1 551.15 660.95 542.85 668 542.85 681.85 542.85 693.55 550.2 703.05 551.4 704.55 552.7 705.9 553.55 706.75 554.45 707.55 567.1 718.8 592.05 718.8 618.45 718.8 629.25 700.65 634.75 691.45 635.05 682.2
L 635.05 466.65
Q 635.05 457.7 629.25 455.25 Z"/>
</g>
</defs>

<g transform="matrix( 1, 0, 0, 1, 0,0) ">
<use xlink:href="#Layer4_0_FILL"/>
</g>

<g transform="matrix( 1, 0, 0, 1, 0,0) ">
<use xlink:href="#Layer3_0_FILL"/>
</g>

<g transform="matrix( 1, 0, 0, 1, 0,0) ">
<use xlink:href="#Layer2_0_FILL"/>
</g>

<g transform="matrix( 1, 0, 0, 1, 0,0) ">
<use xlink:href="#Layer1_0_FILL"/>
</g>

<g transform="matrix( 1, 0, 0, 1, 0,0) ">
<use xlink:href="#Layer0_0_FILL"/>
</g>
</svg>
