<?xml version="1.0" encoding="utf-8"?>
<!-- Generator: flash2svg, http://dissentgraphics.com/tools/flash2svg -->
<svg xmlns:xlink="http://www.w3.org/1999/xlink" id="App-Adobe-Fireworks-folder" image-rendering="optimizeSpeed" baseProfile="basic" version="1.1" style="background-color:#ffffff" x="0px" y="0px" width="1024px" height="1024px" viewBox="0 0 1024 1024" enable-background="new 0 0 1024 1024" xmlns="http://www.w3.org/2000/svg">
  <defs transform="matrix(1 0 0 1 0 0) "/>
  <g id="folder-shadow">
    <g id="shape">
      <path id="path" fill="#000000" fill-opacity="0.09803921568627451" d="M782.05,94.45 L782.05,96.4 290.2,96.4 290.2,94.45 191.05,189.8 191.05,262.3 63.15,262.3 63.15,945 C63.15,957.55 73.5,967.85 86,967.85 L982.45,967.85 C994.95,967.85 1005.3,957.55 1005.3,945 L1005.3,262.3 881.35,262.3 881.35,189.8 782.05,94.45z M782.05,262.3 L290.2,262.3 290.2,189.8 782.05,189.8 782.05,262.3z"/>
    </g>
  </g>
  <g id="folder">
    <g id="shape5">
      <path id="path4" fill="#FFCC00" fill-opacity="1" d="M758.5,73.05 L758.5,75 266.65,75 266.65,73.05 167.5,168.4 167.5,240.9 39.6,240.9 39.6,923.6 C39.6,936.15 49.95,946.45 62.45,946.45 L958.9,946.45 C971.4,946.45 981.75,936.15 981.75,923.6 L981.75,240.9 857.8,240.9 857.8,168.4 758.5,73.05z M758.5,240.9 L266.65,240.9 266.65,168.4 758.5,168.4 758.5,240.9z"/>
    </g>
  </g>
  <g id="folder-dark">
    <g id="shape10">
      <path id="path8" fill="#000000" fill-opacity="0.2" d="M758.5,168.4 L758.5,75 266.65,75 266.65,168.4 758.5,168.4z M39.6,923.6 C39.6,936.15 49.95,946.45 62.45,946.45 L958.9,946.45 C971.4,946.45 981.75,936.15 981.75,923.6 L981.75,301.85 39.6,301.85 39.6,923.6z"/>
    </g>
  </g>
  <g id="ico-shadow">
    <g id="shape14">
      <path id="path11" fill="#000000" fill-opacity="0.2" d="M758.5,168.4 L758.5,75 266.65,75 266.65,168.4 758.5,168.4z M710.7,616.8 L683,616.85 521.7,455.55 353.75,489.875 319.375,757.325 508.5,946.45 958.9,946.45 Q968.25,946.45 975,939.7 981.75,932.95 981.75,923.6 L981.75,887.85 710.7,616.8z"/>
    </g>
  </g>
  <g id="Calque.__201">
    <g id="shape18">
      <path id="path14" fill="#FFFFFF" fill-opacity="1" d="M710.7,616.8 L672.6,616.8 645.9,712.05 623.7,653.8 633,616.8 597.5,616.8 573.3,712.05 546.4,616.8 508.3,616.8 551.5,754.7 591.9,754.7 607,704.8 627.4,754.7 667,754.7 710.7,616.8z M317.05,512 L317.05,756.1 376.2,756.1 376.2,631.6 501.1,627.65 501.1,578.8 376.2,574.45 376.2,526.45 C376.2,519.75 377,514.35 378.65,510.35 381.1,505.25 387.6,502.75 398.05,502.75 L520.05,502.75 520.05,453.9 C502.05,451.25 474.7,449.45 438,448.55 L376.55,447.05 359.65,449.95 C345.4,453.95 334.7,461.1 327.5,471.4 320.5,481.7 317.05,495.25 317.05,512z"/>
    </g>
  </g>
</svg>