<?xml version="1.0" encoding="utf-8"?>
<!-- Generator: flash2svg, http://dissentgraphics.com/tools/flash2svg -->
<svg id="User-Utilities" image-rendering="optimizeSpeed" baseProfile="basic" version="1.1" style="background-color:#FFFFFF" x="0px" y="0px" width="1024px" height="1024px" viewBox="0 0 1024 1024" enable-background="new 0 0 1024 1024" xmlns="http://www.w3.org/2000/svg" xmlns:xlink="http://www.w3.org/1999/xlink">
  <defs transform="matrix(1 0 0 1 0 0) "/>
  <g id="folder-shadow">
    <g id="shape">
      <path id="path" fill="#000000" fill-opacity="0.09803921568627451" d="M782,94.4 L782,96.35 290.15,96.35 290.15,94.4 191,189.75 191,262.25 63.1,262.25 63.1,944.95 C63.1,957.5 73.45,967.8 85.95,967.8 L982.4,967.8 C994.9,967.8 1005.25,957.5 1005.25,944.95 L1005.25,262.25 881.3,262.25 881.3,189.75 782,94.4z M782,262.25 L290.15,262.25 290.15,189.75 782,189.75 782,262.25z"/>
    </g>
  </g>
  <g id="folder">
    <g id="shape5">
      <path id="path4" fill="#435D6F" fill-opacity="1" d="M758.45,73 L758.45,74.95 266.6,74.95 266.6,73 167.45,168.35 167.45,240.85 39.55,240.85 39.55,923.55 C39.55,936.1 49.9,946.4 62.4,946.4 L958.85,946.4 C971.35,946.4 981.7,936.1 981.7,923.55 L981.7,240.85 857.75,240.85 857.75,168.35 758.45,73z M758.45,240.85 L266.6,240.85 266.6,168.35 758.45,168.35 758.45,240.85z"/>
    </g>
  </g>
  <g id="folder-dark">
    <g id="shape10">
      <path id="path8" fill="#000000" fill-opacity="0.2" d="M758.45,168.35 L758.45,74.95 266.6,74.95 266.6,168.35 758.45,168.35z M39.55,923.55 C39.55,936.1 49.9,946.4 62.4,946.4 L958.85,946.4 C971.35,946.4 981.7,936.1 981.7,923.55 L981.7,301.8 39.55,301.8 39.55,923.55z"/>
    </g>
  </g>
  <g id="ico-shadow">
    <g id="shape14">
      <path id="path11" fill="#000000" fill-opacity="0.2" d="M645.55,464 L387.45,725.15 608.7,946.4 958.85,946.4 Q968.2,946.4 974.95,939.65 981.7,932.9 981.7,923.55 L981.7,800.15 645.55,464z"/>
    </g>
  </g>
  <g id="Ico">
    <g id="shape16">
      <path id="path12" fill="#FFFFFF" fill-opacity="1" d="M656.1,477.95 C654.75,475.6 653.2,473.25 651.45,470.9 650.95,470.25 650.4,469.55 649.85,468.9 648.25,466.9 646.5,464.95 644.55,463 642,460.45 639.4,458.15 636.65,456.1 635.95,455.6 635.3,455.1 634.65,454.6 633.1,453.5 631.5,452.55 629.95,451.6 629.85,451.55 629.75,451.45 629.6,451.45 624.05,448.25 618.2,446.1 612.15,444.95 610.6,444.7 609.1,444.5 607.65,444.35 607.45,444.3 607.35,444.35 607.15,444.3 598.55,443.6 591.35,445.7 585.8,450.55 585.3,450.9 584.85,451.35 584.35,451.9 583.8,452.4 583.35,452.85 582.95,453.35 L549.8,486.45 547,489.25 C547.25,489.45 547.45,489.65 547.7,489.9 550.65,492.85 552.1,496.45 552.1,500.65 552.1,504.85 550.65,508.4 547.7,511.35 544.75,514.3 541.15,515.75 536.95,515.75 532.75,515.75 529.25,514.25 526.3,511.3 526.05,511.05 525.85,510.85 525.6,510.55 L514.6,521.55 540.775,547.775 416.95,671.3 Q413.8,671.2 408.4,674.45 403.95,677.1 401.25,679.8 L381.85,709.35 C378.45,712.75 378.45,716.15 381.85,719.55 L387.45,725.15 C390.85,728.55 394.25,728.55 397.65,725.15 L427.25,705.8 C430.05,703 435.75,694.95 435.75,690.2 L559.575,566.625 585.75,592.85 596.75,581.9 C596.5,581.65 596.3,581.45 596.05,581.2 593.1,578.25 591.65,574.7 591.65,570.5 591.6,566.3 593.1,562.75 596.05,559.8 599,556.85 602.6,555.35 606.8,555.4 610.95,555.4 614.5,556.9 617.45,559.85 617.7,560.05 617.9,560.3 618.15,560.55 L656.65,522.15 C661.6,516.6 663.8,509.45 663.25,500.85 663.2,500.75 663.25,500.55 663.2,500.4 663.05,498.8 662.85,497.15 662.55,495.45 661.4,489.5 659.35,483.75 656.3,478.25 656.2,478.2 656.15,478.05 656.1,477.95z M675.5,729.85 C679.65,721.2 681.7,711.75 681.7,701.45 681.7,683.25 675.3,667.75 662.45,654.9 649.6,642.05 634.1,635.65 615.9,635.65 607.7,635.65 599.95,637 592.8,639.65 L549.65,596.5 510.95,635.2 554.1,678.35 C554,678.45 554,678.65 553.9,678.75 551.35,685.8 550.1,693.35 550.1,701.45 550.1,719.65 556.5,735.15 569.35,748 582.2,760.85 597.7,767.25 615.9,767.25 622,767.25 627.8,766.55 633.25,765.1 L592.45,724.3 C590.05,721.9 588.85,719 588.85,715.6 588.9,712.25 590.05,709.3 592.45,706.9 L608.25,691.1 C610.6,688.85 613.45,687.7 616.75,687.7 620.15,687.7 623.05,688.9 625.45,691.3 L671.3,737.15 C672.9,734.85 674.3,732.35 675.5,729.85z M420.1,466.95 C416.1,462.95 411.3,460.95 405.65,460.9 400,460.95 395.15,462.9 391.15,466.9 L381.35,476.7 C377.35,480.7 375.4,485.55 375.35,491.2 375.4,496.85 377.4,501.65 381.4,505.65 L472.1,596.35 510.85,557.7 420.1,466.95z M422.5,491.85 C422.55,496.3 420.95,500.2 417.8,503.35 414.65,506.5 410.75,508.1 406.3,508.05 401.85,508.1 397.95,506.5 394.8,503.35 391.65,500.2 390.05,496.3 390.05,491.8 390.05,487.4 391.65,483.5 394.8,480.35 397.95,477.2 401.85,475.6 406.25,475.6 410.75,475.6 414.65,477.2 417.8,480.35 420.95,483.5 422.55,487.4 422.5,491.85z"/>
    </g>
  </g>
</svg>