<?xml version="1.0" encoding="utf-8"?>
<!-- Generator: flash2svg, http://dissentgraphics.com/tools/flash2svg -->
<svg xmlns:xlink="http://www.w3.org/1999/xlink" id="Adobe-After-Bridge-folder" image-rendering="optimizeSpeed" baseProfile="basic" version="1.1" style="background-color:#ffffff" x="0px" y="0px" width="1024px" height="1024px" viewBox="0 0 1024 1024" enable-background="new 0 0 1024 1024" xmlns="http://www.w3.org/2000/svg">
  <defs transform="matrix(1 0 0 1 0 0) "/>
  <g id="folder-shadow">
    <g id="shape">
      <path id="path" fill="#000000" fill-opacity="0.09803921568627451" d="M782.05,94.45 L782.05,96.4 290.2,96.4 290.2,94.45 191.05,189.8 191.05,262.3 63.15,262.3 63.15,945 C63.15,957.55 73.5,967.85 86,967.85 L982.45,967.85 C994.95,967.85 1005.3,957.55 1005.3,945 L1005.3,262.3 881.35,262.3 881.35,189.8 782.05,94.45z M782.05,262.3 L290.2,262.3 290.2,189.8 782.05,189.8 782.05,262.3z"/>
    </g>
  </g>
  <g id="folder">
    <g id="shape5">
      <path id="path4" fill="#A17C50" fill-opacity="1" d="M758.5,73.05 L758.5,75 266.65,75 266.65,73.05 167.5,168.4 167.5,240.9 39.6,240.9 39.6,923.6 C39.6,936.15 49.95,946.45 62.45,946.45 L958.9,946.45 C971.4,946.45 981.75,936.15 981.75,923.6 L981.75,240.9 857.8,240.9 857.8,168.4 758.5,73.05z M758.5,240.9 L266.65,240.9 266.65,168.4 758.5,168.4 758.5,240.9z"/>
    </g>
  </g>
  <g id="folder-dark">
    <g id="shape10">
      <path id="path8" fill="#000000" fill-opacity="0.2" d="M758.5,168.4 L758.5,75 266.65,75 266.65,168.4 758.5,168.4z M39.6,923.6 C39.6,936.15 49.95,946.45 62.45,946.45 L958.9,946.45 C971.4,946.45 981.75,936.15 981.75,923.6 L981.75,301.85 39.6,301.85 39.6,923.6z"/>
    </g>
  </g>
  <g id="ico-shadow">
    <g id="shape14">
      <path id="path11" fill="#000000" fill-opacity="0.2" d="M546.75,468.75 L396.625,487.375 351.3,757.2 540.575,946.45 958.9,946.45 Q968.25,946.45 975,939.7 981.75,932.95 981.75,923.6 L981.75,903.75 546.75,468.75z"/>
    </g>
  </g>
  <g id="Ico">
    <g id="shape16">
      <path id="path12" fill="#FFFFFF" fill-opacity="1" d="M677,622.55 C674.3,621.45 669.25,620.9 661.95,620.9 655.35,620.9 648.9,622.45 642.45,625.5 636,628.6 629.55,633.2 623.1,639.35 L617.55,622.3 587.3,622.3 587.3,757.9 623.1,757.9 623.1,671.3 C627.2,665.45 631.95,661.5 637.35,659.3 642.7,657.25 649.45,656.2 657.6,656.2 L677,656.95 677,622.55z M544.05,587.9 C549.45,584 553.9,578.8 557.35,572.3 560.95,565.95 563.65,559.15 565.45,551.95 567.15,544.7 567.95,537.1 567.95,529.1 567.95,516.75 566.2,505.6 562.75,495.6 559.15,485.5 553.8,476.5 546.75,468.75 532.45,453.4 510.3,445.7 480.2,445.7 L351.7,445.7 351.7,757.35 481.25,757.35 C513.25,757.35 536.55,749.55 551.1,733.85 558.45,726.1 564,716.5 567.75,705.15 571.35,693.8 573.15,680.7 573.15,665.85 573.15,646.75 568.55,630.9 559.45,618.25 555,612 549.9,606.95 544.25,603.1 538.55,599.35 532.3,596.85 525.55,595.6 532.6,594.35 538.75,591.8 544.05,587.9z M509.3,532.6 C509.3,544.8 506.5,553.95 501,560.05 495.45,566.15 487.3,569.2 476.45,569.2 L411.4,569.2 411.4,498.5 476.45,498.5 C485.85,498.5 493.7,501.15 499.95,506.4 506.2,511.65 509.3,520.4 509.3,532.6z M478.95,619.3 C490.6,619.3 499.25,623.45 504.95,631.75 510.6,639.95 513.45,650.4 513.45,663.2 513.45,677.2 510.6,687.65 504.95,694.55 499.15,701.5 490.45,704.95 478.95,704.95 L411.4,704.55 411.4,619.3 478.95,619.3z"/>
    </g>
  </g>
</svg>