<?xml version="1.0" encoding="utf-8"?>
<!-- Generator: flash2svg, http://dissentgraphics.com/tools/flash2svg -->
<svg id="User-Developer" image-rendering="optimizeSpeed" baseProfile="basic" version="1.1" style="background-color:#FFFFFF" x="0px" y="0px" width="1024px" height="1024px" viewBox="0 0 1024 1024" enable-background="new 0 0 1024 1024" xmlns="http://www.w3.org/2000/svg" xmlns:xlink="http://www.w3.org/1999/xlink">
  <defs transform="matrix(1 0 0 1 0 0) "/>
  <g id="folder-shadow">
    <g id="shape">
      <path id="path" fill="#000000" fill-opacity="0.09803921568627451" d="M782,94.4 L782,96.35 290.15,96.35 290.15,94.4 191,189.75 191,262.25 63.1,262.25 63.1,944.95 C63.1,957.5 73.45,967.8 85.95,967.8 L982.4,967.8 C994.9,967.8 1005.25,957.5 1005.25,944.95 L1005.25,262.25 881.3,262.25 881.3,189.75 782,94.4z M782,262.25 L290.15,262.25 290.15,189.75 782,189.75 782,262.25z"/>
    </g>
  </g>
  <g id="folder">
    <g id="shape5">
      <path id="path4" fill="#E8BB00" fill-opacity="1" d="M758.45,73 L758.45,74.95 266.6,74.95 266.6,73 167.45,168.35 167.45,240.85 39.55,240.85 39.55,923.55 C39.55,936.1 49.9,946.4 62.4,946.4 L958.85,946.4 C971.35,946.4 981.7,936.1 981.7,923.55 L981.7,240.85 857.75,240.85 857.75,168.35 758.45,73z M758.45,240.85 L266.6,240.85 266.6,168.35 758.45,168.35 758.45,240.85z"/>
    </g>
  </g>
  <g id="folder-dark">
    <g id="shape10">
      <path id="path8" fill="#000000" fill-opacity="0.2" d="M758.45,168.35 L758.45,74.95 266.6,74.95 266.6,168.35 758.45,168.35z M39.55,923.55 C39.55,936.1 49.9,946.4 62.4,946.4 L958.85,946.4 C971.35,946.4 981.7,936.1 981.7,923.55 L981.7,301.8 39.55,301.8 39.55,923.55z"/>
    </g>
  </g>
  <g id="folder-dark1">
    <g id="shape14">
      <path id="path11" fill="#000000" fill-opacity="0.2" d="M981.7,769.65 L683,470.95 599.1,525.5 524.725,451.125 495.75,466 357.925,752.975 551.35,946.4 958.85,946.4 Q968.2,946.4 974.95,939.65 981.7,932.9 981.7,923.55 L981.7,769.65z"/>
    </g>
  </g>
  <g id="ico-shadow">
    <g id="shape16">
      <path id="path12" fill="#FFFFFF" fill-opacity="1" d="M668.9,459.05 C667,457.95 664.95,456.85 662.85,455.9 659.95,454.6 657.2,453.45 654.35,452.65 653.6,452.45 652.95,452.25 652.25,452.05 650.7,451.6 649.1,451.35 647.55,451 647.5,450.95 647.4,450.95 647.3,451 641.85,450.05 636.45,450.05 631.2,450.9 629.85,451.15 628.55,451.45 627.35,451.8 627.2,451.8 627.1,451.9 626.95,451.9 619.8,453.9 614.55,457.75 611.5,463.3 611.2,463.75 611,464.25 610.75,464.85 610.45,465.4 610.2,465.9 610.05,466.45 L593.1,503.15 591.65,506.25 C591.9,506.35 592.15,506.45 592.4,506.6 595.7,508.05 597.9,510.6 599.15,514 600.4,517.4 600.35,520.65 598.8,523.95 597.3,527.2 594.8,529.45 591.4,530.7 588,531.95 584.7,531.8 581.45,530.3 581.15,530.15 580.95,530.05 580.65,529.9 L575.05,542.05 604.1,555.5 540.65,692.5 C536.85,693.8 531.95,700.9 530.5,704.1 L523.6,733.8 C521.8,737.55 522.85,740.3 526.65,742.05 L532.8,744.9 C536.6,746.65 539.35,745.65 541.05,741.9 L559.3,717.4 C560.7,714.25 562.95,706.05 561.55,702.2 L624.95,565.2 653.95,578.6 659.55,566.45 C659.3,566.35 659.1,566.2 658.8,566.05 655.55,564.6 653.3,562.1 652.05,558.7 650.75,555.35 650.9,552.05 652.4,548.75 653.95,545.5 656.4,543.2 659.8,542 663.15,540.75 666.5,540.9 669.8,542.4 670.05,542.5 670.25,542.65 670.55,542.75 L690.3,500.15 C692.65,494.2 692.3,487.75 689.25,480.95 689.2,480.85 689.2,480.7 689.1,480.6 688.45,479.35 687.8,478.05 687.05,476.75 684.4,472.3 680.95,468.25 676.9,464.75 676.75,464.7 676.7,464.6 676.65,464.55 674.85,463.05 672.9,461.6 670.75,460.25 670.15,459.85 669.5,459.45 668.9,459.05z M517.5,489.05 C519.25,485.2 518.4,482.4 514.9,480.85 L461.1,456.3 C457.65,454.7 455.05,455.9 453.25,459.75 L342.95,701.7 C342.45,702.9 342.15,704 342.1,705.05 342.15,705.2 342.1,705.45 342.1,705.6 342.1,705.7 342.15,705.8 342.15,705.85 342.25,706.75 342.5,707.45 343,708.15 L357.65,755.15 403.5,734.95 C403.75,734.85 404.05,734.75 404.3,734.6 404.85,734.3 405.3,733.85 405.85,733.3 406.35,732.7 406.75,731.9 407.2,731 L517.5,489.05z M500,464.75 L525,476.2 C528.5,477.75 529.35,480.55 527.6,484.4 L516.7,508.35 547.05,587.55 576.8,587.55 524.5,450.9 C523.1,447.3 520.65,446.2 517.05,447.6 L501.8,453.4 C498.25,454.8 497.1,457.3 498.5,460.85 L500,464.75z M477.65,595.75 L447.8,661.15 545.85,661.15 576.15,595.75 477.65,595.75z M343.55,595.75 C339.7,595.75 337.75,597.65 337.75,601.45 L337.75,655.4 C337.75,659.25 339.7,661.15 343.55,661.15 L351.9,661.15 381.75,595.75 356.4,595.75 343.55,595.75z M632.95,596.75 L619.5,596.75 589.25,662.15 632.95,662.15 C636.8,662.15 638.75,660.25 638.75,656.4 L638.75,602.45 C638.75,598.65 636.8,596.75 632.95,596.75z M582.2,673.95 L589.4,692.8 591.05,692.15 C590.7,693.3 590.45,694.65 590.2,696.05 589.4,700.45 589.45,705.15 590.3,710 590.85,713.85 591.95,717.7 593.5,721.7 597,730.9 601.9,738.05 608.2,743.05 608.6,743.4 609.05,743.65 609.45,743.95 612.8,746.4 616.65,748.55 621,750.35 L650.1,762.15 C646.15,760.2 643.25,754.6 641.55,745.35 639.85,736.15 638.6,729.6 637.7,725.75 636.85,721.9 635.9,718.25 635.05,714.75 634.55,712.95 634.1,711.35 633.75,710 633.35,708.75 632.95,707.6 632.6,706.75 629.05,697.55 624.15,690.45 617.85,685.45 616.75,684.5 615.7,683.8 614.6,683.1 L615.4,682.8 612,673.95 582.2,673.95z"/>
    </g>
  </g>
</svg>