<?xml version="1.0" encoding="utf-8"?>
<!-- Generator: flash2svg, http://dissentgraphics.com/tools/flash2svg -->
<svg xmlns:xlink="http://www.w3.org/1999/xlink" id="Adobe-Premiere-folder" image-rendering="optimizeSpeed" baseProfile="basic" version="1.1" style="background-color:#ffffff" x="0px" y="0px" width="1024px" height="1024px" viewBox="0 0 1024 1024" enable-background="new 0 0 1024 1024" xmlns="http://www.w3.org/2000/svg">
  <defs transform="matrix(1 0 0 1 0 0) "/>
  <g id="folder-shadow">
    <g id="shape">
      <path id="path" fill="#000000" fill-opacity="0.09803921568627451" d="M782.05,94.45 L782.05,96.4 290.2,96.4 290.2,94.45 191.05,189.8 191.05,262.3 63.15,262.3 63.15,945 C63.15,957.55 73.5,967.85 86,967.85 L982.45,967.85 C994.95,967.85 1005.3,957.55 1005.3,945 L1005.3,262.3 881.35,262.3 881.35,189.8 782.05,94.45z M782.05,262.3 L290.2,262.3 290.2,189.8 782.05,189.8 782.05,262.3z"/>
    </g>
  </g>
  <g id="folder">
    <g id="shape5">
      <path id="path4" fill="#554265" fill-opacity="1" d="M758.5,73.05 L758.5,75 266.65,75 266.65,73.05 167.5,168.4 167.5,240.9 39.6,240.9 39.6,923.6 C39.6,936.15 49.95,946.45 62.45,946.45 L958.9,946.45 C971.4,946.45 981.75,936.15 981.75,923.6 L981.75,240.9 857.8,240.9 857.8,168.4 758.5,73.05z M758.5,240.9 L266.65,240.9 266.65,168.4 758.5,168.4 758.5,240.9z"/>
    </g>
  </g>
  <g id="folder-dark">
    <g id="shape10">
      <path id="path8" fill="#000000" fill-opacity="0.2" d="M758.5,168.4 L758.5,75 266.65,75 266.65,168.4 758.5,168.4z M39.6,923.6 C39.6,936.15 49.95,946.45 62.45,946.45 L958.9,946.45 C971.4,946.45 981.75,936.15 981.75,923.6 L981.75,301.85 39.6,301.85 39.6,923.6z"/>
    </g>
  </g>
  <g id="ico-shadow">
    <g id="shape14">
      <path id="path11" fill="#000000" fill-opacity="0.2" d="M553.6,472.85 L389.25,489.775 353.275,756.225 543.5,946.45 958.9,946.45 Q968.25,946.45 975,939.7 981.75,932.95 981.75,923.6 L981.75,901 553.6,472.85z"/>
    </g>
  </g>
  <g id="Ico">
    <g id="shape16">
      <path id="path12" fill="#FFFFFF" fill-opacity="1" d="M670,622.8 C667.3,621.7 662.3,621.15 655,621.15 648.5,621.15 642.05,622.7 635.65,625.75 629.2,628.8 622.8,633.4 616.45,639.5 L610.85,622.5 580.85,622.5 580.85,757.3 616.45,757.3 616.45,671.25 C620.45,665.45 625.2,661.5 630.6,659.35 635.85,657.3 642.55,656.25 650.65,656.25 L670,657 670,622.8z M526.5,453.45 C515.35,449.15 502.15,447 486.85,447 L353.35,447 353.35,756.8 412.65,756.8 412.65,634.05 447.35,638.8 495.3,642.55 C508.8,642.55 521.1,640 532.1,634.9 540.55,631.3 547.45,626 552.95,619 558.5,612.1 563.15,602.15 567.05,589.2 570.75,576.3 572.6,560.75 572.6,542.7 572.6,511.6 566.25,488.3 553.6,472.85 546.7,464.2 537.7,457.7 526.5,453.45z M513.1,543.15 C513.1,554.7 511.85,564.05 509.35,571.25 507.05,578.4 503.45,583.4 498.6,586.3 494.35,588.8 488.85,590.05 482.1,590.05 L412.65,590.05 412.65,499.5 482.1,499.5 C492.3,499.5 499.95,503.15 505,510.45 510.25,517.65 512.95,528.55 513.1,543.15z"/>
    </g>
  </g>
</svg>