<?xml version="1.0" encoding="utf-8"?>
<!-- Generator: flash2svg, http://dissentgraphics.com/tools/flash2svg -->
<svg xmlns:xlink="http://www.w3.org/1999/xlink" id="User-Smart" image-rendering="optimizeSpeed" baseProfile="basic" version="1.1" style="background-color:#ffffff" x="0px" y="0px" width="1024px" height="1024px" viewBox="0 0 1024 1024" enable-background="new 0 0 1024 1024" xmlns="http://www.w3.org/2000/svg">
  <defs transform="matrix(1 0 0 1 0 0) "/>
  <g id="folder-shadow">
    <g id="shape">
      <path id="path" fill="#000000" fill-opacity="0.09803921568627451" d="M782.05,94.45 L782.05,96.4 290.2,96.4 290.2,94.45 191.05,189.8 191.05,262.3 63.15,262.3 63.15,945 C63.15,957.55 73.5,967.85 86,967.85 L982.45,967.85 C994.95,967.85 1005.3,957.55 1005.3,945 L1005.3,262.3 881.35,262.3 881.35,189.8 782.05,94.45z M782.05,262.3 L290.2,262.3 290.2,189.8 782.05,189.8 782.05,262.3z"/>
    </g>
  </g>
  <g id="folder">
    <g id="shape5">
      <path id="path4" fill="#9E51BC" fill-opacity="1" d="M758.5,73.05 L758.5,75 266.65,75 266.65,73.05 167.5,168.4 167.5,240.9 39.6,240.9 39.6,923.6 C39.6,936.15 49.95,946.45 62.45,946.45 L958.9,946.45 C971.4,946.45 981.75,936.15 981.75,923.6 L981.75,240.9 857.8,240.9 857.8,168.4 758.5,73.05z M758.5,240.9 L266.65,240.9 266.65,168.4 758.5,168.4 758.5,240.9z"/>
    </g>
  </g>
  <g id="folder-dark">
    <g id="shape10">
      <path id="path8" fill="#000000" fill-opacity="0.2" d="M758.5,168.4 L758.5,75 266.65,75 266.65,168.4 758.5,168.4z M39.6,923.6 C39.6,936.15 49.95,946.45 62.45,946.45 L958.9,946.45 C971.4,946.45 981.75,936.15 981.75,923.6 L981.75,301.85 39.6,301.85 39.6,923.6z"/>
    </g>
  </g>
  <g id="ico-shadow">
    <g id="shape14">
      <path id="path11" fill="#000000" fill-opacity="0.2" d="M623.05,493.05 L453.525,536.05 400.05,710.35 636.15,946.45 958.9,946.45 C971.4,946.45 981.75,936.15 981.75,923.6 L981.75,851.75 623.05,493.05z"/>
    </g>
  </g>
  <g id="Ico">
    <g id="shape16">
      <path id="path12" fill="#FFFFFF" fill-opacity="1" d="M666.6,575.3 L662.25,572.75 625.05,567.05 616.7,547.15 638.05,519.2 639.65,514.6 638.3,510.1 C633.45,503.2 622.25,491.7 604.8,475.6 L599.7,473.55 C597.65,473.55 596.05,474.1 594.85,475.25 L566.05,497.1 547.7,489.45 542,452.15 539.7,447.9 534.7,446.1 489.55,446.1 C485.65,446.1 483.2,448 482.25,451.8 L476.4,489.45 457.85,497.35 429.8,475.6 424.45,473.55 C421.45,473.55 415.05,478.4 405.25,488.1 L385.3,509.95 383.4,514.6 385.45,519.45 407.2,547.5 399.15,566.2 361.4,571.9 357.5,574.6 355.95,579.2 355.95,624.4 357.5,629.1 361.75,631.65 398.95,637.15 C400.9,643.8 403.65,650.5 407.3,657.3 L386.05,685.25 384.35,689.85 385.8,694.45 C391.15,701.8 402.4,713.2 419.45,728.6 420.9,730.15 422.6,730.9 424.45,730.9 L429.55,729.2 458.2,707.2 476.55,714.85 482.25,752.25 C482.4,754.05 483.2,755.55 484.55,756.75 L489.55,758.35 534.7,758.35 C538.65,758.35 541.1,756.45 542,752.65 L547.95,714.85 566.4,707.1 594.45,729.2 599.7,730.9 C602.6,730.9 609,726.1 618.9,716.55 L639.05,694.45 640.75,689.85 638.8,684.85 616.95,656.7 624.95,638.25 662.5,632.5 666.6,629.85 668.2,625.25 668.2,580.05 666.6,575.3z M548.9,565.5 C559.05,575.55 564.1,587.8 564.1,602.3 564.1,616.6 559.05,628.8 548.9,638.95 538.7,649.15 526.45,654.25 512.1,654.25 497.75,654.25 485.5,649.15 475.3,638.95 465.1,628.8 460,616.6 460,602.3 460,587.8 465.1,575.55 475.3,565.5 485.5,555.25 497.75,550.15 512.1,550.15 526.45,550.15 538.7,555.25 548.9,565.5z"/>
    </g>
  </g>
</svg>