<?xml version="1.0" encoding="utf-8"?>
<!-- Generator: flash2svg, http://dissentgraphics.com/tools/flash2svg -->
<svg id="User-User" image-rendering="optimizeSpeed" baseProfile="basic" version="1.1" style="background-color:#FFFFFF" x="0px" y="0px" width="1024px" height="1024px" viewBox="0 0 1024 1024" enable-background="new 0 0 1024 1024" xmlns="http://www.w3.org/2000/svg" xmlns:xlink="http://www.w3.org/1999/xlink">
  <defs transform="matrix(1 0 0 1 0 0) "/>
  <g id="folder-shadow">
    <g id="shape">
      <path id="path" fill="#000000" fill-opacity="0.09803921568627451" d="M782,94.4 L782,96.35 290.15,96.35 290.15,94.4 191,189.75 191,262.25 63.1,262.25 63.1,944.95 C63.1,957.5 73.45,967.8 85.95,967.8 L982.4,967.8 C994.9,967.8 1005.25,957.5 1005.25,944.95 L1005.25,262.25 881.3,262.25 881.3,189.75 782,94.4z M782,262.25 L290.15,262.25 290.15,189.75 782,189.75 782,262.25z"/>
    </g>
  </g>
  <g id="folder">
    <g id="shape5">
      <path id="path4" fill="#996666" fill-opacity="1" d="M758.45,73 L758.45,74.95 266.6,74.95 266.6,73 167.45,168.35 167.45,240.85 39.55,240.85 39.55,923.55 C39.55,936.1 49.9,946.4 62.4,946.4 L958.85,946.4 C971.35,946.4 981.7,936.1 981.7,923.55 L981.7,240.85 857.75,240.85 857.75,168.35 758.45,73z M758.45,240.85 L266.6,240.85 266.6,168.35 758.45,168.35 758.45,240.85z"/>
    </g>
  </g>
  <g id="folder-dark">
    <g id="shape10">
      <path id="path8" fill="#000000" fill-opacity="0.2" d="M758.45,168.35 L758.45,74.95 266.6,74.95 266.6,168.35 758.45,168.35z M39.55,923.55 C39.55,936.1 49.9,946.4 62.4,946.4 L958.85,946.4 C971.35,946.4 981.7,936.1 981.7,923.55 L981.7,301.8 39.55,301.8 39.55,923.55z"/>
    </g>
  </g>
  <g id="folder-dark1">
    <g id="shape14">
      <path id="path11" fill="#000000" fill-opacity="0.2" d="M566,468.4 C545.35,590.8 476.95,686.95 360.85,756.9 L550.35,946.4 958.85,946.4 Q968.2,946.4 974.95,939.65 981.7,932.9 981.7,923.55 L981.7,884.1 566,468.4z"/>
    </g>
  </g>
  <g id="Mode.__20Isolation">
    <g id="shape16">
      <path id="path12" fill="#FFFFFF" fill-opacity="1" d="M666.15,756 C666.15,713.85 669.55,690.6 625.55,680.5 622.7,679.85 619.85,679.2 616.75,678.45 576.4,669.1 541.8,659.05 560.35,624 Q582.05,583.05 587.4,548.6 592.15,517.15 583,493.8 574.55,472.15 555.4,460.35 537.05,449.05 512.55,449.05 C447.45,449.05 404.1,512.4 464.7,624 483.6,658.7 448.95,669 409.3,678.25 406.2,678.95 402.85,679.7 399.5,680.5 355.5,690.6 358.9,713.85 358.9,756 L666.15,756z"/>
    </g>
  </g>
</svg>