<?xml version="1.0" encoding="utf-8"?>
<!-- Generator: flash2svg, http://dissentgraphics.com/tools/flash2svg -->
<svg xmlns:xlink="http://www.w3.org/1999/xlink" id="User-Movies" image-rendering="optimizeSpeed" baseProfile="basic" version="1.1" style="background-color:#ffffff" x="0px" y="0px" width="1024px" height="1024px" viewBox="0 0 1024 1024" enable-background="new 0 0 1024 1024" xmlns="http://www.w3.org/2000/svg">
  <defs transform="matrix(1 0 0 1 0 0) "/>
  <g id="folder-shadow">
    <g id="shape">
      <path id="path" fill="#000000" fill-opacity="0.09803921568627451" d="M782.05,94.45 L782.05,96.4 290.2,96.4 290.2,94.45 191.05,189.8 191.05,262.3 63.15,262.3 63.15,945 C63.15,957.55 73.5,967.85 86,967.85 L982.45,967.85 C994.95,967.85 1005.3,957.55 1005.3,945 L1005.3,262.3 881.35,262.3 881.35,189.8 782.05,94.45z M782.05,262.3 L290.2,262.3 290.2,189.8 782.05,189.8 782.05,262.3z"/>
    </g>
  </g>
  <g id="folder">
    <g id="shape5">
      <path id="path4" fill="#EFA235" fill-opacity="1" d="M758.5,73.05 L758.5,75 266.65,75 266.65,73.05 167.5,168.4 167.5,240.9 39.6,240.9 39.6,923.6 C39.6,936.15 49.95,946.45 62.45,946.45 L958.9,946.45 C971.4,946.45 981.75,936.15 981.75,923.6 L981.75,240.9 857.8,240.9 857.8,168.4 758.5,73.05z M758.5,240.9 L266.65,240.9 266.65,168.4 758.5,168.4 758.5,240.9z"/>
    </g>
  </g>
  <g id="folder-dark">
    <g id="shape10">
      <path id="path8" fill="#000000" fill-opacity="0.2" d="M758.5,168.4 L758.5,75 266.65,75 266.65,168.4 758.5,168.4z M39.6,923.6 C39.6,936.15 49.95,946.45 62.45,946.45 L958.9,946.45 C971.4,946.45 981.75,936.15 981.75,923.6 L981.75,301.85 39.6,301.85 39.6,923.6z"/>
    </g>
  </g>
  <g id="ico-shadow">
    <g id="shape14">
      <path id="path11" fill="#000000" fill-opacity="0.2" d="M634.7,452.55 L395.05,459.05 392.2,759.1 579.55,946.45 958.9,946.45 Q968.25,946.45 975,939.7 981.75,932.95 981.75,923.6 L981.75,797.6 634.7,452.55z"/>
    </g>
  </g>
  <g id="Ico">
    <g id="shape16">
      <path id="path12" fill="#FFFFFF" fill-opacity="1" d="M635.1,450.95 C632.45,448.3 629.25,446.95 625.5,446.95 L398.6,446.95 C394.85,446.95 391.7,448.3 389.05,450.95 386.4,453.6 385.05,456.75 385.05,460.5 L385.05,746.45 C385.05,750.2 386.4,753.4 389.05,756.05 391.7,758.7 394.85,760 398.6,760 L625.5,760 C629.25,760 632.45,758.7 635.1,756.05 637.75,753.4 639.05,750.2 639.05,746.45 L639.05,460.5 C639.05,456.75 637.75,453.6 635.1,450.95z M605.65,465.4 L619.25,465.4 C622.25,465.4 623.75,466.9 623.75,469.9 L623.75,501.35 C623.75,504.35 622.25,505.85 619.25,505.85 L605.65,505.85 C602.65,505.85 601.15,504.35 601.15,501.35 L601.15,469.9 Q601.15,465.4 605.65,465.4z M565.5,478.4 C568.15,481.05 569.45,484.25 569.45,488 L569.45,575.65 C569.45,579.4 568.15,582.6 565.5,585.25 562.85,587.9 559.65,589.2 555.9,589.2 L468.2,589.2 C464.45,589.2 461.3,587.9 458.65,585.25 456.55,583.15 455.3,580.7 454.85,577.9 454.7,577.15 454.65,576.4 454.65,575.65 L454.65,488 C454.65,484.25 456,481.05 458.65,478.4 461.3,475.75 464.45,474.4 468.2,474.4 L555.9,474.4 C559.65,474.4 562.85,475.75 565.5,478.4z M623.75,528.75 L623.75,560.2 C623.75,563.2 622.25,564.7 619.25,564.7 L605.65,564.7 C602.65,564.7 601.15,563.2 601.15,560.2 L601.15,528.75 C601.15,525.75 602.65,524.25 605.65,524.25 L619.25,524.25 C622.25,524.25 623.75,525.75 623.75,528.75z M605.65,583.05 L619.25,583.05 C622.25,583.05 623.75,584.55 623.75,587.6 L623.75,619.05 C623.75,622.05 622.25,623.55 619.25,623.55 L605.65,623.55 C602.65,623.55 601.15,622.05 601.15,619.05 L601.15,587.6 C601.15,584.55 602.65,583.05 605.65,583.05z M422.25,467.5 L422.25,498.95 C422.25,501.95 420.75,503.45 417.75,503.45 L404.2,503.45 C401.15,503.45 399.65,501.95 399.65,498.95 L399.65,467.5 C399.65,464.5 401.15,463 404.2,463 L417.75,463 C420.75,463 422.25,464.5 422.25,467.5z M404.2,521.85 L417.75,521.85 C420.75,521.85 422.25,523.35 422.25,526.35 L422.25,557.8 C422.25,560.8 420.75,562.3 417.75,562.3 L404.2,562.3 C401.15,562.3 399.65,560.8 399.65,557.8 L399.65,526.35 C399.65,523.35 401.15,521.85 404.2,521.85z M404.2,580.7 L417.75,580.7 C420.75,580.7 422.25,582.2 422.25,585.2 L422.25,616.65 C422.25,619.65 420.75,621.15 417.75,621.15 L404.2,621.15 C401.15,621.15 399.65,619.65 399.65,616.65 L399.65,585.2 C399.65,582.2 401.15,580.7 404.2,580.7z M458.65,621.75 C461.3,619.1 464.45,617.75 468.2,617.75 L555.9,617.75 C559.65,617.75 562.85,619.1 565.5,621.75 568.15,624.4 569.45,627.55 569.45,631.3 L569.45,719 C569.45,722.75 568.15,725.95 565.5,728.6 562.85,731.25 559.65,732.55 555.9,732.55 L468.2,732.55 C464.45,732.55 461.3,731.25 458.65,728.6 456,725.95 454.65,722.75 454.65,719 L454.65,631.3 C454.65,627.95 455.7,625.05 457.85,622.6 458.1,622.3 458.4,622 458.65,621.75z M417.75,680 L404.2,680 C401.15,680 399.65,678.5 399.65,675.5 L399.65,644.05 C399.65,641.05 401.15,639.55 404.2,639.55 L417.75,639.55 C420.75,639.55 422.25,641.05 422.25,644.05 L422.25,675.5 C422.25,678.5 420.75,680 417.75,680z M404.2,698.4 L417.75,698.4 C420.75,698.4 422.25,699.9 422.25,702.9 L422.25,734.35 C422.25,737.35 420.75,738.85 417.75,738.85 L404.2,738.85 C401.15,738.85 399.65,737.35 399.65,734.35 L399.65,702.9 C399.65,699.9 401.15,698.4 404.2,698.4z M601.15,677.9 L601.15,646.45 C601.15,643.4 602.65,641.9 605.65,641.9 L619.25,641.9 C622.25,641.9 623.75,643.4 623.75,646.45 L623.75,677.9 C623.75,680.9 622.25,682.4 619.25,682.4 L605.65,682.4 C602.65,682.4 601.15,680.9 601.15,677.9z M623.75,705.3 L623.75,736.75 C623.75,739.75 622.25,741.25 619.25,741.25 L605.65,741.25 C602.65,741.25 601.15,739.75 601.15,736.75 L601.15,705.3 C601.15,702.25 602.65,700.75 605.65,700.75 L619.25,700.75 C622.25,700.75 623.75,702.25 623.75,705.3z"/>
    </g>
  </g>
</svg>