<?xml version="1.0" encoding="utf-8"?>
<!-- Generator: flash2svg, http://dissentgraphics.com/tools/flash2svg -->
<svg id="User-Group" image-rendering="optimizeSpeed" baseProfile="basic" version="1.1" style="background-color:#FFFFFF" x="0px" y="0px" width="1024px" height="1024px" viewBox="0 0 1024 1024" enable-background="new 0 0 1024 1024" xmlns="http://www.w3.org/2000/svg" xmlns:xlink="http://www.w3.org/1999/xlink">
  <defs transform="matrix(1 0 0 1 0 0) "/>
  <g id="folder-shadow">
    <g id="shape">
      <path id="path" fill="#000000" fill-opacity="0.09803921568627451" d="M782,94.4 L782,96.35 290.15,96.35 290.15,94.4 191,189.75 191,262.25 63.1,262.25 63.1,944.95 C63.1,957.5 73.45,967.8 85.95,967.8 L982.4,967.8 C994.9,967.8 1005.25,957.5 1005.25,944.95 L1005.25,262.25 881.3,262.25 881.3,189.75 782,94.4z M782,262.25 L290.15,262.25 290.15,189.75 782,189.75 782,262.25z"/>
    </g>
  </g>
  <g id="folder">
    <g id="shape5">
      <path id="path4" fill="#994781" fill-opacity="1" d="M758.45,73 L758.45,74.95 266.6,74.95 266.6,73 167.45,168.35 167.45,240.85 39.55,240.85 39.55,923.55 C39.55,936.1 49.9,946.4 62.4,946.4 L958.85,946.4 C971.35,946.4 981.7,936.1 981.7,923.55 L981.7,240.85 857.75,240.85 857.75,168.35 758.45,73z M758.45,240.85 L266.6,240.85 266.6,168.35 758.45,168.35 758.45,240.85z"/>
    </g>
  </g>
  <g id="folder-dark">
    <g id="shape10">
      <path id="path8" fill="#000000" fill-opacity="0.2" d="M758.45,168.35 L758.45,74.95 266.6,74.95 266.6,168.35 758.45,168.35z M39.55,923.55 C39.55,936.1 49.9,946.4 62.4,946.4 L958.85,946.4 C971.35,946.4 981.7,936.1 981.7,923.55 L981.7,301.8 39.55,301.8 39.55,923.55z"/>
    </g>
  </g>
  <g id="folder-dark1">
    <g id="shape14">
      <path id="path11" fill="#000000" fill-opacity="0.2" d="M634.85,538.05 L570.125,473.325 445.925,579.325 412.675,546.075 372.575,665.175 259.85,746 460.25,946.4 958.85,946.4 Q968.2,946.4 974.95,939.65 981.7,932.9 981.7,923.55 L981.7,830.1 707.6,556 634.85,538.05z"/>
    </g>
  </g>
  <g id="Mode.__20Isolation">
    <g id="shape16">
      <path id="path12" fill="#FFFFFF" fill-opacity="1" d="M684,532.4 L684.025,532.425 L684.05,532.45 C675.9,527.5 666.45,525.05 655.6,525.05 644.65,525.05 635,527.6 626.75,532.7 626.6,532.8 626.5,532.9 626.35,532.95 618.5,538.05 612.8,545.15 609.25,554.25 609.2,554.3 609.2,554.4 609.15,554.5 605.1,565.35 604.2,578 606.5,592.45 606.55,592.65 606.55,592.85 606.55,593.05 609.4,609.8 616.15,628.05 626.8,647.7 626.85,647.85 626.95,647.95 627,648.1 631.75,656.9 633.4,664.8 631.85,671.75 653.4,677.5 666.65,687.85 671.7,702.7 674.1,708.85 675.55,717.05 676,727.4 676.05,729.25 676.1,735.5 676.15,746.1 L766.2,746.1 C766.15,739.55 766.15,735.6 766.1,734.35 765.85,728.6 765.15,724 763.9,720.55 760.75,713.85 753.45,709.2 742.1,706.55 730.3,703.85 721.95,701.8 717.05,700.35 716.9,700.3 716.8,700.3 716.7,700.25 707.2,697.45 699.85,694.45 694.7,691.2 694.65,691.15 694.55,691.1 694.5,691.05 677.7,681 674.3,666.6 684.3,647.75 684.35,647.6 684.45,647.5 684.55,647.4 695.1,627.2 701.75,608.65 704.45,591.75 706.65,577.2 705.7,564.6 701.65,553.85 L701.625,553.825 L701.65,553.85 C698.05,544.6 692.15,537.45 684,532.4z M666.15,756 C666.15,713.85 669.55,690.6 625.55,680.5 622.7,679.85 619.85,679.2 616.75,678.45 576.4,669.1 541.8,659.05 560.35,624 Q582.05,583.05 587.4,548.6 592.15,517.15 583,493.8 574.55,472.15 555.4,460.35 537.05,449.05 512.55,449.05 C447.45,449.05 404.1,512.4 464.7,624 483.6,658.7 448.95,669 409.3,678.25 406.2,678.95 402.85,679.7 399.5,680.5 355.5,690.6 358.9,713.85 358.9,756 L666.15,756z M321.4,592.35 C321.45,592.55 321.45,592.75 321.45,592.95 324.3,609.7 331.05,627.95 341.7,647.6 341.75,647.75 341.85,647.85 341.9,648 351.95,666.75 348.4,681.15 331.2,691.25 L331.2,691.225 L331.275,691.2 L331.3,691.2 C326.05,694.45 318.65,697.45 309.05,700.25 304.4,701.6 296,703.7 283.95,706.45 272.6,709.1 265.35,713.75 262.2,720.45 262.15,720.45 262.15,720.45 262.15,720.5 262.15,720.55 262.15,720.6 262.1,720.65 260.9,724.05 260.2,728.6 259.95,734.3 259.9,735.6 259.9,739.5 259.85,746 L348.9,746 C348.95,735.45 349,729.25 349.05,727.4 349.5,717.05 350.95,708.85 353.35,702.7 358.5,687.55 372.15,677.15 394.35,671.5 392.85,664.5 394.45,656.55 399.2,647.65 399.25,647.5 399.35,647.4 399.45,647.25 410.05,627.1 416.7,608.55 419.35,591.6 421.55,577.1 420.6,564.5 416.55,553.75 L416.525,553.725 L416.55,553.75 C412.95,544.5 407.05,537.35 398.9,532.3 L398.925,532.325 L398.95,532.35 C390.8,527.4 381.35,524.95 370.5,524.95 359.55,524.95 349.9,527.5 341.65,532.6 341.5,532.7 341.4,532.8 341.25,532.85 333.4,537.95 327.7,545.05 324.15,554.15 324.1,554.2 324.1,554.3 324.05,554.4 320,565.25 319.1,577.9 321.4,592.35z"/>
    </g>
  </g>
</svg>