<?xml version="1.0" encoding="utf-8"?>
<!-- Generator: flash2svg, http://dissentgraphics.com/tools/flash2svg -->
<svg id="Folders-Ableton-Live" image-rendering="optimizeSpeed" baseProfile="basic" version="1.1" style="background-color:#FFFFFF" x="0px" y="0px" width="1024px" height="1024px" viewBox="0 0 1024 1024" enable-background="new 0 0 1024 1024" xmlns="http://www.w3.org/2000/svg" xmlns:xlink="http://www.w3.org/1999/xlink">
  <defs transform="matrix(1 0 0 1 0 0) "/>
  <g id="folder-shadow">
    <g id="shape">
      <path id="path" fill="#000000" fill-opacity="0.09803921568627451" d="M782,94.4 L782,96.35 290.15,96.35 290.15,94.4 191,189.75 191,262.25 63.1,262.25 63.1,944.95 C63.1,957.5 73.45,967.8 85.95,967.8 L982.4,967.8 C994.9,967.8 1005.25,957.5 1005.25,944.95 L1005.25,262.25 881.3,262.25 881.3,189.75 782,94.4z M782,262.25 L290.15,262.25 290.15,189.75 782,189.75 782,262.25z"/>
    </g>
  </g>
  <g id="folder">
    <g id="shape5">
      <path id="path4" fill="#F8CE4D" fill-opacity="1" d="M758.45,73 L758.45,74.95 266.6,74.95 266.6,73 167.45,168.35 167.45,240.85 39.55,240.85 39.55,923.55 C39.55,936.1 49.9,946.4 62.4,946.4 L958.85,946.4 C971.35,946.4 981.7,936.1 981.7,923.55 L981.7,240.85 857.75,240.85 857.75,168.35 758.45,73z M758.45,240.85 L266.6,240.85 266.6,168.35 758.45,168.35 758.45,240.85z"/>
    </g>
  </g>
  <g id="folder-dark">
    <g id="shape10">
      <path id="path8" fill="#000000" fill-opacity="0.2" d="M758.45,168.35 L758.45,74.95 266.6,74.95 266.6,168.35 758.45,168.35z M39.55,923.55 C39.55,936.1 49.9,946.4 62.4,946.4 L958.85,946.4 C971.35,946.4 981.7,936.1 981.7,923.55 L981.7,301.8 39.55,301.8 39.55,923.55z"/>
    </g>
  </g>
  <g id="ico-shadow">
    <g id="shape14">
      <path id="path11" fill="#000000" fill-opacity="0.2" d="M981.7,713.25 L733.2,464.75 543.3,486 576.225,518.925 563.675,517.525 511.15,465 474.725,487.175 447,459.45 416.15,488.25 392.325,464.425 356.075,487.775 327,458.7 301,663.75 583.65,946.4 958.85,946.4 Q968.2,946.4 974.95,939.65 981.7,932.9 981.7,923.55 L981.7,713.25z"/>
    </g>
  </g>
  <g id="Ico">
    <g id="shape16">
      <path id="path12" fill="#FFFFFF" fill-opacity="1" d="M728.15,459.45 C724.5,455.75 720.05,453.9 714.8,453.9 L556.95,453.9 C551.7,453.9 547.25,455.75 543.55,459.45 539.85,463.15 538,467.6 538,472.85 538,478.05 539.85,482.55 543.55,486.25 546.6,489.3 550.2,491.1 554.4,491.6 555.2,491.7 556.1,491.8 556.95,491.8 L714.8,491.8 C720.05,491.8 724.5,489.9 728.15,486.25 731.9,482.55 733.75,478.05 733.75,472.85 733.75,467.6 731.9,463.15 728.15,459.45z M728.15,519 C724.5,515.3 720.05,513.45 714.8,513.45 L556.95,513.45 C556.1,513.45 555.2,513.5 554.4,513.6 550.2,514.1 546.6,515.95 543.55,519 539.85,522.7 538,527.15 538,532.4 538,537.6 539.85,542.05 543.55,545.8 546.6,548.85 550.2,550.65 554.4,551.2 555.2,551.3 556.1,551.35 556.95,551.35 L714.8,551.35 C720.05,551.35 724.5,549.5 728.15,545.8 731.9,542.05 733.75,537.6 733.75,532.4 733.75,527.15 731.9,522.7 728.15,519z M728.15,578.55 C724.5,574.85 720.05,573 714.8,573 L556.95,573 C556.1,573 555.2,573.1 554.4,573.2 550.2,573.7 546.6,575.5 543.55,578.55 539.85,582.25 538,586.75 538,591.95 538,597.2 539.85,601.65 543.55,605.4 547.25,609.1 551.7,610.95 556.95,610.95 L714.8,610.95 C720.05,610.95 724.5,609.1 728.15,605.4 731.9,601.65 733.75,597.2 733.75,591.95 733.75,586.75 731.9,582.25 728.15,578.55z M728.15,638.15 Q722.65,632.55 714.75,632.55 L556.9,632.55 C556.05,632.55 555.2,632.65 554.35,632.75 550.2,633.25 546.6,635.05 543.5,638.15 539.8,641.85 538,646.3 538,651.55 538,656.8 539.8,661.25 543.5,665 547.25,668.65 551.7,670.5 556.9,670.5 L714.75,670.5 C720,670.5 724.45,668.65 728.15,665 731.9,661.25 733.7,656.8 733.7,651.55 733.7,646.3 731.9,641.85 728.15,638.15z M696.95,686.2 C689,686 678.1,686.2 671.8,686.2 661.95,686.2 657,690.7 657,699.75 L657,731.65 C657,734.05 657.35,736.05 658.2,737.75 658.9,739.45 659.85,740.7 660.95,741.65 662.05,742.5 663.4,743.2 664.95,743.75 666.45,744.25 667.7,744.55 668.65,744.65 L696.95,744.85 696.95,730.5 677.35,730.5 C676.1,730.5 675.05,730.35 674.1,730 673,729.6 672.45,728.4 672.45,726.35 L672.45,722.85 696.95,723.1 696.95,708.35 672.45,708.4 672.55,702.75 C672.65,702.2 673,701.7 673.7,701.2 674.4,700.7 675.35,700.45 676.6,700.45 L696.95,700.45 696.95,686.2z M315.15,454.55 C309.9,454.55 305.45,456.4 301.8,460.15 298.05,463.8 296.2,468.25 296.2,473.55 L296.2,651.25 C296.2,656.45 298.05,660.9 301.8,664.6 305.45,668.35 309.9,670.15 315.15,670.15 320.4,670.15 324.85,668.35 328.55,664.6 331.65,661.55 333.45,657.95 333.95,653.8 334.05,652.95 334.1,652.1 334.1,651.25 L334.1,473.55 C334.1,468.25 332.3,463.8 328.55,460.15 324.85,456.4 320.4,454.55 315.15,454.55z M507.3,460.15 C503.6,456.4 499.1,454.55 493.9,454.55 488.65,454.55 484.2,456.4 480.45,460.15 476.75,463.8 474.9,468.25 474.9,473.55 L474.9,651.25 C474.9,652.1 474.95,652.95 475.05,653.8 475.6,657.95 477.4,661.55 480.45,664.6 484.2,668.35 488.65,670.15 493.9,670.15 499.1,670.15 503.6,668.35 507.3,664.6 511,660.9 512.85,656.45 512.85,651.25 L512.85,473.55 C512.85,468.25 511,463.8 507.3,460.15z M420.9,460.15 C417.15,463.8 415.35,468.25 415.35,473.55 L415.35,651.25 C415.35,652.1 415.4,652.95 415.5,653.8 416.05,657.95 417.85,661.55 420.9,664.6 424.65,668.35 429.1,670.15 434.3,670.15 439.55,670.15 444,668.35 447.75,664.6 451.4,660.9 453.3,656.45 453.3,651.25 L453.3,473.55 C453.3,468.25 451.4,463.8 447.75,460.15 444,456.4 439.55,454.55 434.3,454.55 429.1,454.55 424.65,456.4 420.9,460.15z M361.35,460.15 C357.6,463.8 355.75,468.25 355.75,473.55 L355.75,651.25 C355.75,652.1 355.85,652.95 355.95,653.8 356.45,657.95 358.25,661.55 361.35,664.6 365.05,668.35 369.5,670.15 374.75,670.15 379.95,670.15 384.4,668.35 388.1,664.6 391.2,661.55 393,657.95 393.5,653.8 393.65,652.95 393.7,652.1 393.7,651.25 L393.7,473.55 C393.7,468.25 391.85,463.8 388.1,460.15 384.4,456.4 379.95,454.55 374.75,454.55 369.5,454.55 365.05,456.4 361.35,460.15z M595.45,686.2 L580,686.2 580,744.5 595.45,744.5 595.45,686.2z M616.35,686.2 L600.1,686.2 616.6,744.5 635.25,744.5 652.7,686.2 636.45,686.2 626,725.6 616.35,686.2z M553.55,686.2 L538.1,686.2 538.1,732.1 C538.1,736.35 539.3,739.45 541.75,741.45 543,742.5 544.4,743.3 546,743.75 547.6,744.25 549.35,744.5 551.3,744.5 L574.9,744.5 574.9,730.7 558.45,730.7 C557.25,730.7 556.15,730.5 555.2,730.2 554.1,729.75 553.55,728.55 553.55,726.55 L553.55,686.2z"/>
    </g>
  </g>
</svg>