
<svg xmlns="http://www.w3.org/2000/svg" version="1.1" xmlns:xlink="http://www.w3.org/1999/xlink" preserveAspectRatio="none" x="0px" y="0px" width="1024px" height="1024px" viewBox="0 0 1024 1024">
<defs>
<g id="Layer4_0_FILL">
<path fill="#000000" fill-opacity="0.09803921568627451" stroke="none" d="
M 783.15 93.15
L 783.15 95.15 291.35 95.15 291.35 93.15 192.2 188.55 192.2 261 64.3 261 64.3 943.7
Q 64.3 953.1 71.05 959.85 77.75 966.55 87.15 966.55
L 983.6 966.55
Q 993 966.55 999.7 959.85 1006.4 953.1 1006.4 943.7
L 1006.4 261 882.45 261 882.45 188.55 783.15 93.15
M 783.15 188.55
L 783.15 261 291.35 261 291.35 188.55 783.15 188.55 Z"/>
</g>

<g id="Layer3_0_FILL">
<path fill="#F7CE0E" stroke="none" d="
M 759.65 71.8
L 759.65 73.7 267.75 73.7 267.75 71.8 168.65 167.1 168.65 239.6 40.7 239.6 40.7 922.3
Q 40.7 931.75 47.45 938.5 54.2 945.2 63.6 945.2
L 960.05 945.2
Q 969.45 945.2 976.15 938.5 982.9 931.75 982.9 922.3
L 982.9 239.6 858.9 239.6 858.9 167.1 759.65 71.8
M 759.65 167.1
L 759.65 239.6 267.75 239.6 267.75 167.1 759.65 167.1 Z"/>
</g>

<g id="Layer2_0_FILL">
<path fill="#000000" fill-opacity="0.2" stroke="none" d="
M 40.7 922.2
Q 40.7 931.65 47.45 938.4 54.2 945.1 63.6 945.1
L 960.05 945.1
Q 969.45 945.1 976.15 938.4 982.9 931.65 982.9 922.2
L 982.9 300.5 40.7 300.5 40.7 922.2
M 759.65 167
L 759.65 73.6 267.75 73.6 267.75 167 759.65 167 Z"/>
</g>

<g id="Layer1_0_FILL">
<path fill="#000000" fill-opacity="0.2" stroke="none" d="
M 976.15 938.4
Q 982.9 931.65 982.9 922.2
L 982.9 800.25 671.9 489.25 375.1 686.1 634.1 945.1 960.05 945.1
Q 969.45 945.1 976.15 938.4
M 759.65 167
L 759.65 73.6 267.75 73.6 267.75 167 759.65 167 Z"/>
</g>

<g id="Layer0_0_FILL">
<path fill="#FFFFFF" stroke="none" d="
M 472.2 448.5
Q 344.7 475.9 330.85 578.35 326.75 619.1 342.3 653.3 372.6 716.55 492.15 707.65 506.85 733.35 471.6 776.3 459.6 790.1 477.05 786.3 522 777.9 575.5 708.25 725.85 666.75 678.8 507.7 642.5 414.45 472.2 448.5 Z"/>
</g>
</defs>

<g transform="matrix( 1, 0, 0, 1, 0,0) ">
<use xlink:href="#Layer4_0_FILL"/>
</g>

<g transform="matrix( 1, 0, 0, 1, 0,0) ">
<use xlink:href="#Layer3_0_FILL"/>
</g>

<g transform="matrix( 1, 0, 0, 1, 0,0) ">
<use xlink:href="#Layer2_0_FILL"/>
</g>

<g transform="matrix( 1, 0, 0, 1, 0,0) ">
<use xlink:href="#Layer1_0_FILL"/>
</g>

<g transform="matrix( 1, 0, 0, 1, 0,0) ">
<use xlink:href="#Layer0_0_FILL"/>
</g>
</svg>
