
<svg xmlns="http://www.w3.org/2000/svg" version="1.1" xmlns:xlink="http://www.w3.org/1999/xlink" preserveAspectRatio="none" x="0px" y="0px" width="1024px" height="1024px" viewBox="0 0 1024 1024">
<defs>
<g id="Layer5_0_FILL">
<path fill="#000000" fill-opacity="0.09803921568627451" stroke="none" d="
M 783.15 93.15
L 783.15 95.15 291.35 95.15 291.35 93.15 192.2 188.55 192.2 261 64.3 261 64.3 943.7
Q 64.3 953.1 71.05 959.85 77.75 966.55 87.15 966.55
L 983.6 966.55
Q 993 966.55 999.7 959.85 1006.4 953.1 1006.4 943.7
L 1006.4 261 882.45 261 882.45 188.55 783.15 93.15
M 783.15 188.55
L 783.15 261 291.35 261 291.35 188.55 783.15 188.55 Z"/>
</g>

<g id="Layer4_0_FILL">
<path fill="#343764" stroke="none" d="
M 759.65 71.8
L 759.65 73.7 267.75 73.7 267.75 71.8 168.65 167.1 168.65 239.6 40.7 239.6 40.7 922.3
Q 40.7 931.75 47.45 938.5 54.2 945.2 63.6 945.2
L 960.05 945.2
Q 969.45 945.2 976.15 938.5 982.9 931.75 982.9 922.3
L 982.9 239.6 858.9 239.6 858.9 167.1 759.65 71.8
M 759.65 167.1
L 759.65 239.6 267.75 239.6 267.75 167.1 759.65 167.1 Z"/>
</g>

<g id="Layer3_0_FILL">
<path fill="#000000" fill-opacity="0.2" stroke="none" d="
M 40.7 922.2
Q 40.7 931.65 47.45 938.4 54.2 945.1 63.6 945.1
L 960.05 945.1
Q 969.45 945.1 976.15 938.4 982.9 931.65 982.9 922.2
L 982.9 300.5 40.7 300.5 40.7 922.2
M 759.65 167
L 759.65 73.6 267.75 73.6 267.75 167 759.65 167 Z"/>
</g>

<g id="Layer2_0_FILL">
<path fill="#000000" fill-opacity="0.2" stroke="none" d="
M 982.9 742.05
L 727 486.15 534.05 508.15 512.05 486.15 315.95 520.7 466.5 671.25 291 706.5 529.6 945.1 960.05 945.1
Q 969.45 945.1 976.15 938.4 982.9 931.65 982.9 922.2
L 982.9 742.05
M 759.65 167
L 759.65 73.6 267.75 73.6 267.75 167 759.65 167 Z"/>
</g>

<g id="Layer1_0_FILL">
<path fill="#FFFFFF" stroke="none" d="
M 354.75 671.25
L 340.5 657 291 706.5 470.2 706.8
Q 472.85 706.8 475.3 706.5 477.7 706.2 480 705.6 489.5 703.15 496.95 695.7 508 684.65 508 669 508 658.95 503.45 650.75
L 399 529.55 323.5 529.55 445.6 671.25 354.75 671.25
M 515.45 529.55
Q 503.9 564.4 502.25 592.6 498.5 657.3 546.85 687.1 573.45 703.45 601.8 707.4 647.5 713.65 697.85 687.5 566.65 686 570.95 592.6 572.25 565.05 585.3 529.55
L 515.45 529.55
M 322.25 496.35
Q 313.7 504.9 315.95 520.7
L 449 520.7 463.25 534.95 512.05 486.15 346.05 486.15
Q 332.15 486.45 322.25 496.35
M 659.85 520.7
L 676.15 537 727 486.15 550.7 486.15 516.1 520.7 659.85 520.7 Z"/>
</g>
</defs>

<g transform="matrix( 1, 0, 0, 1, 0,0) ">
<use xlink:href="#Layer5_0_FILL"/>
</g>

<g transform="matrix( 1, 0, 0, 1, 0,0) ">
<use xlink:href="#Layer4_0_FILL"/>
</g>

<g transform="matrix( 1, 0, 0, 1, 0,0) ">
<use xlink:href="#Layer3_0_FILL"/>
</g>

<g transform="matrix( 1, 0, 0, 1, 0,0) ">
<use xlink:href="#Layer2_0_FILL"/>
</g>

<g transform="matrix( 1, 0, 0, 1, 0,0) ">
<use xlink:href="#Layer1_0_FILL"/>
</g>
</svg>
