<?xml version="1.0" encoding="utf-8"?>
<!-- Generator: flash2svg, http://dissentgraphics.com/tools/flash2svg -->
<svg xmlns:xlink="http://www.w3.org/1999/xlink" id="User-Music" image-rendering="optimizeSpeed" baseProfile="basic" version="1.1" style="background-color:#ffffff" x="0px" y="0px" width="1024px" height="1024px" viewBox="0 0 1024 1024" enable-background="new 0 0 1024 1024" xmlns="http://www.w3.org/2000/svg">
  <defs transform="matrix(1 0 0 1 0 0) "/>
  <g id="folder-shadow">
    <g id="shape">
      <path id="path" fill="#000000" fill-opacity="0.09803921568627451" d="M782.05,94.45 L782.05,96.4 290.2,96.4 290.2,94.45 191.05,189.8 191.05,262.3 63.15,262.3 63.15,945 C63.15,957.55 73.5,967.85 86,967.85 L982.45,967.85 C994.95,967.85 1005.3,957.55 1005.3,945 L1005.3,262.3 881.35,262.3 881.35,189.8 782.05,94.45z M782.05,262.3 L290.2,262.3 290.2,189.8 782.05,189.8 782.05,262.3z"/>
    </g>
  </g>
  <g id="folder">
    <g id="shape5">
      <path id="path4" fill="#7689B2" fill-opacity="1" d="M758.5,73.05 L758.5,75 266.65,75 266.65,73.05 167.5,168.4 167.5,240.9 39.6,240.9 39.6,923.6 C39.6,936.15 49.95,946.45 62.45,946.45 L958.9,946.45 C971.4,946.45 981.75,936.15 981.75,923.6 L981.75,240.9 857.8,240.9 857.8,168.4 758.5,73.05z M758.5,240.9 L266.65,240.9 266.65,168.4 758.5,168.4 758.5,240.9z"/>
    </g>
  </g>
  <g id="folder-dark">
    <g id="shape10">
      <path id="path8" fill="#000000" fill-opacity="0.2" d="M758.5,168.4 L758.5,75 266.65,75 266.65,168.4 758.5,168.4z M39.6,923.6 C39.6,936.15 49.95,946.45 62.45,946.45 L958.9,946.45 C971.4,946.45 981.75,936.15 981.75,923.6 L981.75,301.85 39.6,301.85 39.6,923.6z"/>
    </g>
  </g>
  <g id="ico-shadow">
    <g id="shape14">
      <path id="path11" fill="#000000" fill-opacity="0.2" d="M481.275,703.05 L421.7,750.6 617.55,946.45 958.9,946.45 Q968.25,946.45 975,939.7 981.75,932.95 981.75,923.6 L981.75,810.6 617.4,446.25 442.1,522.05 481.275,703.05z"/>
    </g>
  </g>
  <g id="Ico">
    <g id="shape16">
      <path id="path12" fill="#FFFFFF" fill-opacity="1" d="M445.5,681.35 C424.3,681.35 407.05,698.55 407.05,719.85 407.05,741.1 424.3,758.35 445.5,758.35 Q461.45,758.35 472.75,747.05 484.05,735.8 484.05,719.85 C484.05,698.55 466.8,681.35 445.5,681.35z M596.5,692.35 C596.5,671.05 579.25,653.85 558.05,653.85 536.75,653.85 519.5,671.05 519.5,692.35 519.5,713.6 536.75,730.85 558.05,730.85 579.25,730.85 596.5,713.6 596.5,692.35z M465.35,537.5 L577.85,508.85 596.5,663 617.05,445.75 439.5,509.5 476.2,685.5 465.35,537.5z"/>
    </g>
  </g>
</svg>