<?xml version="1.0" encoding="utf-8"?>
<!-- Generator: flash2svg, http://dissentgraphics.com/tools/flash2svg -->
<svg xmlns:xlink="http://www.w3.org/1999/xlink" id="App-Google-Drive-folder" image-rendering="optimizeSpeed" baseProfile="basic" version="1.1" style="background-color:#ffffff" x="0px" y="0px" width="1024px" height="1024px" viewBox="0 0 1024 1024" enable-background="new 0 0 1024 1024" xmlns="http://www.w3.org/2000/svg">
  <defs transform="matrix(1 0 0 1 0 0) "/>
  <g id="folder-shadow">
    <g id="shape">
      <path id="path" fill="#000000" fill-opacity="0.09803921568627451" d="M782.05,94.45 L782.05,96.4 290.2,96.4 290.2,94.45 191.05,189.8 191.05,262.3 63.15,262.3 63.15,945 C63.15,957.55 73.5,967.85 86,967.85 L982.45,967.85 C994.95,967.85 1005.3,957.55 1005.3,945 L1005.3,262.3 881.35,262.3 881.35,189.8 782.05,94.45z M782.05,262.3 L290.2,262.3 290.2,189.8 782.05,189.8 782.05,262.3z"/>
    </g>
  </g>
  <g id="folder">
    <g id="shape5">
      <path id="path4" fill="#95A5A5" fill-opacity="1" d="M758.5,73.05 L758.5,75 266.65,75 266.65,73.05 167.5,168.4 167.5,240.9 39.6,240.9 39.6,923.6 C39.6,936.15 49.95,946.45 62.45,946.45 L958.9,946.45 C971.4,946.45 981.75,936.15 981.75,923.6 L981.75,240.9 857.8,240.9 857.8,168.4 758.5,73.05z M758.5,240.9 L266.65,240.9 266.65,168.4 758.5,168.4 758.5,240.9z"/>
    </g>
  </g>
  <g id="folder-dark">
    <g id="shape10">
      <path id="path8" fill="#000000" fill-opacity="0.2" d="M758.5,168.4 L758.5,75 266.65,75 266.65,168.4 758.5,168.4z M39.6,923.6 C39.6,936.15 49.95,946.45 62.45,946.45 L958.9,946.45 C971.4,946.45 981.75,936.15 981.75,923.6 L981.75,301.85 39.6,301.85 39.6,923.6z"/>
    </g>
  </g>
  <g id="ico-shadow">
    <g id="shape14">
      <path id="path11" fill="#000000" fill-opacity="0.2" d="M758.5,168.4 L758.5,75 266.65,75 266.65,168.4 758.5,168.4z M576.85,450.65 L486.85,493.75 444.825,451.725 388.15,740.05 594.55,946.45 958.9,946.45 Q968.25,946.45 975,939.7 981.75,932.95 981.75,923.6 L981.75,849.65 576.85,450.65z"/>
    </g>
  </g>
  <g id="Ico">
    <g id="shape18">
      <path id="path14" fill="#FFFFFF" fill-opacity="1" d="M670.5,613.85 L669.65,612.05 667.7,609 667.15,607.7 660.5,596.3 C656.05,588.5 650.3,578.45 643.25,566.3 633.45,549.25 627.7,539.25 625.95,536.35 L602.25,495.35 602,495 592.15,477.85 C589.3,472.8 586,467.1 582.3,460.75 L575.75,449.2 C568.8,449.1 559.9,449.1 548.95,449.1 534.4,449.15 525.5,449.15 522.25,449.1 493.5,449.1 471.95,449.1 457.6,449.15 L457.7,449.8 C458.3,450.55 458.9,451.5 459.6,452.65 460,453.35 460.55,454.3 461.3,455.7 476.9,482.6 495.25,514.45 516.55,551.35 L520.75,558.55 C520.8,558.65 520.8,558.75 520.95,559 L527.9,570.8 C528.55,572 529.15,573.1 529.8,574.15 L539.05,589.95 539.1,590.1 C539.5,591 539.95,591.85 540.4,592.65 L542.1,595.6 C543.45,597.95 547.75,605.35 555,617.85 560.2,626.95 564.5,634.45 567.8,640.3 L568.25,640.35 629.5,640.35 C629.55,640.35 629.6,640.35 629.65,640.35 L643.1,640.35 C643.7,640.35 644.4,640.35 645,640.35 L665.25,640.35 C667.85,640.35 670.35,640.35 672.7,640.35 677.55,640.35 681.7,640.25 685.35,640.15 L685.15,639.65 685.15,639 679.6,629.2 678.7,628.05 675.35,621.8 C675.3,621.75 675.25,621.7 675.15,621.5 L670.5,613.85z M678.55,653.6 C676.2,653.6 673.7,653.6 671.15,653.55 L650.9,653.6 C650.6,653.6 650.3,653.6 650,653.6 649.65,653.6 649.3,653.6 648.95,653.6 L635.5,653.55 C635.45,653.55 635.45,653.55 635.4,653.55 635.35,653.55 635.35,653.55 635.3,653.55 L560.4,653.55 C547.55,653.4 530.4,653.4 509.1,653.4 483.2,653.45 466.05,653.45 457.75,653.4 455,657.95 451.55,663.75 447.45,670.85 441.5,681.25 438.1,687.1 437.35,688.45 L404.1,746.05 C403.5,747.05 402.65,748.5 401.5,750.5 400.45,752.25 399.65,753.8 399.1,755.05 L399.05,755.45 C415.4,755.5 488.95,755.5 619.7,755.5 645.8,710.25 665.45,676.25 678.55,653.6z M442.25,449.2 L442.2,449.5 442.1,449.85 440.4,452.55 440.25,452.75 437.8,457.15 437.65,457.6 435.15,461.8 435.05,462.25 427.85,474.4 427.75,474.85 423.2,482.4 422.6,483.7 421.5,485.3 417.9,491.7 C417.85,491.75 417.8,491.85 417.75,492.05 L416.8,493.7 416.15,494.55 415.3,496.3 408.55,507.75 408,508.9 407.9,509.35 404.05,515.6 403.9,515.7 403.25,516.85 403.2,517 C387.4,544.35 363.65,585.4 332.1,640.1 334.4,644.35 337.5,649.75 341.3,656.35 346.5,665.3 349.6,670.65 350.7,672.5 L383.95,730.1 C384.5,731.05 385.65,733.05 387.45,736.25 388.9,738.75 390.1,740.7 391.1,742.2 L391.35,742.2 391.35,741.8 C391.95,740.5 392.75,738.95 393.75,737.2 394.9,735.3 395.8,733.75 396.35,732.8 L429.65,675.15 C430.4,673.85 433.75,667.95 439.75,657.65 443.8,650.5 447.3,644.65 450.05,640.15 450.55,639.4 451.15,638.45 451.75,637.35 452.5,636.1 453.05,635.1 453.4,634.45 L501.45,551.35 C480.2,514.45 461.75,482.6 446.2,455.7 445.5,454.3 444.95,453.35 444.5,452.65 443.8,451.5 443.2,450.55 442.6,449.8 L442.6,449.45 442.55,449.15 442.25,449.2z"/>
    </g>
  </g>
</svg>