<?xml version="1.0" encoding="utf-8"?>
<!-- Generator: flash2svg, http://dissentgraphics.com/tools/flash2svg -->
<svg id="User-Library" image-rendering="optimizeSpeed" baseProfile="basic" version="1.1" style="background-color:#FFFFFF" x="0px" y="0px" width="1024px" height="1024px" viewBox="0 0 1024 1024" enable-background="new 0 0 1024 1024" xmlns="http://www.w3.org/2000/svg" xmlns:xlink="http://www.w3.org/1999/xlink">
  <defs transform="matrix(1 0 0 1 0 0) "/>
  <g id="folder-shadow">
    <g id="shape">
      <path id="path" fill="#000000" fill-opacity="0.09803921568627451" d="M782,94.4 L782,96.35 290.15,96.35 290.15,94.4 191,189.75 191,262.25 63.1,262.25 63.1,944.95 C63.1,957.5 73.45,967.8 85.95,967.8 L982.4,967.8 C994.9,967.8 1005.25,957.5 1005.25,944.95 L1005.25,262.25 881.3,262.25 881.3,189.75 782,94.4z M782,262.25 L290.15,262.25 290.15,189.75 782,189.75 782,262.25z"/>
    </g>
  </g>
  <g id="folder">
    <g id="shape5">
      <path id="path4" fill="#404026" fill-opacity="1" d="M758.45,73 L758.45,74.95 266.6,74.95 266.6,73 167.45,168.35 167.45,240.85 39.55,240.85 39.55,923.55 C39.55,936.1 49.9,946.4 62.4,946.4 L958.85,946.4 C971.35,946.4 981.7,936.1 981.7,923.55 L981.7,240.85 857.75,240.85 857.75,168.35 758.45,73z M758.45,240.85 L266.6,240.85 266.6,168.35 758.45,168.35 758.45,240.85z"/>
    </g>
  </g>
  <g id="folder-dark">
    <g id="shape10">
      <path id="path8" fill="#000000" fill-opacity="0.2" d="M39.55,923.55 C39.55,936.1 49.9,946.4 62.4,946.4 L958.85,946.4 C971.35,946.4 981.7,936.1 981.7,923.55 L981.7,301.8 39.55,301.8 39.55,923.55z M758.45,168.35 L758.45,74.95 266.6,74.95 266.6,168.35 758.45,168.35z"/>
    </g>
  </g>
  <g id="folder-dark1">
    <g id="shape14">
      <path id="path11" fill="#000000" fill-opacity="0.2" d="M385.775,715.575 L394.85,724.65 350.6,759.65 537.35,946.4 958.85,946.4 Q968.2,946.4 974.95,939.65 981.7,932.9 981.7,923.55 L981.7,851.9 673.55,543.75 347,553.55 394.375,598.275 385.775,715.575z"/>
    </g>
  </g>
  <g id="Mode.__20Isolation">
    <g id="shape16">
      <path id="path12" fill="#FEFEFE" fill-opacity="1" d="M673.55,554.35 C679.25,550.8 679.25,547.3 673.55,543.75 L520.55,448.7 C514.85,445.15 509.15,445.15 503.5,448.7 L350.45,543.75 C344.8,547.3 344.8,550.8 350.45,554.35 L673.55,554.35z M680.45,732 C680.45,727 677.55,724.5 671.75,724.5 L352.25,724.5 C346.5,724.5 343.6,727 343.6,732 L343.6,750.65 C343.6,755.65 346.5,758.15 352.25,758.15 L671.75,758.15 C677.55,758.15 680.45,755.65 680.45,750.65 L680.45,732z M499.25,563.95 C494.25,563.95 491.75,566.45 491.75,571.4 L491.75,708.1 C491.75,713.05 494.25,715.55 499.25,715.55 L523.15,715.55 C528.15,715.55 530.65,713.05 530.65,708.1 L530.65,571.4 C530.65,566.45 528.15,563.95 523.15,563.95 L499.25,563.95z M555.95,563.95 C551,563.95 548.5,566.45 548.5,571.4 L548.5,708.1 C548.5,713.05 551,715.55 555.95,715.55 L579.9,715.55 C584.85,715.55 587.35,713.05 587.35,708.1 L587.35,571.4 C587.35,566.45 584.85,563.95 579.9,563.95 L555.95,563.95z M636.6,563.95 L612.7,563.95 C607.7,563.95 605.2,566.45 605.2,571.4 L605.2,708.1 C605.2,713.05 607.7,715.55 612.7,715.55 L636.6,715.55 C641.6,715.55 644.1,713.05 644.1,708.1 L644.1,571.4 Q644.1,563.95 636.6,563.95z M385.8,563.95 C380.8,563.95 378.3,566.45 378.3,571.4 L378.3,708.1 C378.3,713.05 380.8,715.55 385.8,715.55 L409.7,715.55 C414.7,715.55 417.2,713.05 417.2,708.1 L417.2,571.4 C417.2,566.45 414.7,563.95 409.7,563.95 L385.8,563.95z M442.5,563.95 C437.55,563.95 435.05,566.45 435.05,571.4 L435.05,708.1 C435.05,713.05 437.55,715.55 442.5,715.55 L466.45,715.55 C471.4,715.55 473.9,713.05 473.9,708.1 L473.9,571.4 C473.9,566.45 471.4,563.95 466.45,563.95 L442.5,563.95z"/>
    </g>
  </g>
</svg>