<?xml version="1.0" encoding="utf-8"?>
<!-- Generator: flash2svg, http://dissentgraphics.com/tools/flash2svg -->
<svg xmlns:xlink="http://www.w3.org/1999/xlink" id="Adobe-After-Effect-folder" image-rendering="optimizeSpeed" baseProfile="basic" version="1.1" style="background-color:#ffffff" x="0px" y="0px" width="1024px" height="1024px" viewBox="0 0 1024 1024" enable-background="new 0 0 1024 1024" xmlns="http://www.w3.org/2000/svg">
  <defs transform="matrix(1 0 0 1 0 0) "/>
  <g id="folder-shadow">
    <g id="shape">
      <path id="path" fill="#000000" fill-opacity="0.09803921568627451" d="M782.05,94.45 L782.05,96.4 290.2,96.4 290.2,94.45 191.05,189.8 191.05,262.3 63.15,262.3 63.15,945 C63.15,957.55 73.5,967.85 86,967.85 L982.45,967.85 C994.95,967.85 1005.3,957.55 1005.3,945 L1005.3,262.3 881.35,262.3 881.35,189.8 782.05,94.45z M782.05,262.3 L290.2,262.3 290.2,189.8 782.05,189.8 782.05,262.3z"/>
    </g>
  </g>
  <g id="folder">
    <g id="shape5">
      <path id="path4" fill="#6C5D87" fill-opacity="1" d="M758.5,73.05 L758.5,75 266.65,75 266.65,73.05 167.5,168.4 167.5,240.9 39.6,240.9 39.6,923.6 C39.6,936.15 49.95,946.45 62.45,946.45 L958.9,946.45 C971.4,946.45 981.75,936.15 981.75,923.6 L981.75,240.9 857.8,240.9 857.8,168.4 758.5,73.05z M758.5,240.9 L266.65,240.9 266.65,168.4 758.5,168.4 758.5,240.9z"/>
    </g>
  </g>
  <g id="folder-dark">
    <g id="shape10">
      <path id="path8" fill="#000000" fill-opacity="0.2" d="M758.5,168.4 L758.5,75 266.65,75 266.65,168.4 758.5,168.4z M39.6,923.6 C39.6,936.15 49.95,946.45 62.45,946.45 L958.9,946.45 C971.4,946.45 981.75,936.15 981.75,923.6 L981.75,301.85 39.6,301.85 39.6,923.6z"/>
    </g>
  </g>
  <g id="ico-shadow">
    <g id="shape14">
      <path id="path11" fill="#000000" fill-opacity="0.2" d="M696.225,631.175 L667.9,624.8 489.15,446.05 317.925,757.825 506.55,946.45 958.9,946.45 C971.4,946.45 981.75,936.15 981.75,923.6 L981.75,916.7 696.225,631.175z"/>
    </g>
  </g>
  <g id="Ico">
    <g id="shape16">
      <path id="path12" fill="#FFFFFF" fill-opacity="1" d="M704.8,640.6 C703.4,637.2 701.45,634.25 698.95,631.8 L691,625.95 C688.3,624.55 684.75,623.5 680.45,622.75 L667.65,621.1 649.9,620.75 C642.2,620.75 635.45,621.25 629.55,622.35 622.55,623.5 616.7,625.6 611.9,628.7 607.15,631.75 603.5,635.75 600.85,640.7 598.3,645.7 596.35,652.35 595,660.7 593.75,669.15 593.15,679.3 593.15,691.15 593.15,702.9 593.9,713.05 595.5,721.7 597.15,730.25 599.6,737.1 602.85,742.3 606.05,747.6 610.6,751.6 616.4,754.25 622.15,756.8 629.25,758.05 637.6,758.05 L667.9,757.6 683.8,756.35 C691.5,755.65 699.15,753.9 706.8,751 L706.8,726.8 C694.6,728.7 681.9,729.65 668.65,729.65 L644.3,729 C641.45,728.6 638.6,727.55 635.85,725.9 633.1,724.35 631.25,721.75 630.3,718.2 629.3,714.65 628.8,709.9 628.8,703.9 L671.75,703.9 C688.3,703.9 699.4,699.05 705,689.4 707.9,684.35 709.4,676.85 709.4,666.95 Q709.4,652.05 704.8,640.6z M662.55,678.2 L628.8,678.2 628.8,672 629.75,660.95 C630.45,657.1 632,654.15 634.5,652.15 636.9,650.25 639.45,649.1 642.1,648.7 L656.45,647.95 C663.45,647.95 668.05,649.2 670.3,651.65 672.6,654.15 673.75,659.6 673.75,668.05 673.75,674.85 670,678.2 662.55,678.2z M380.45,756.3 L402.75,687.55 504.6,687.55 526.55,756.3 589.9,756.3 488.85,446.05 421.4,446.05 316.9,756.3 380.45,756.3z M455.8,524.05 L490.55,635 418.55,635 455.8,524.05z"/>
    </g>
  </g>
</svg>