<?xml version="1.0" encoding="utf-8"?>
<!-- Generator: flash2svg, http://dissentgraphics.com/tools/flash2svg -->
<svg xmlns:xlink="http://www.w3.org/1999/xlink" id="Adobe-Dreamweaver-folder" image-rendering="optimizeSpeed" baseProfile="basic" version="1.1" style="background-color:#ffffff" x="0px" y="0px" width="1024px" height="1024px" viewBox="0 0 1024 1024" enable-background="new 0 0 1024 1024" xmlns="http://www.w3.org/2000/svg">
  <defs transform="matrix(1 0 0 1 0 0) "/>
  <g id="folder-shadow">
    <g id="shape">
      <path id="path" fill="#000000" fill-opacity="0.09803921568627451" d="M782.05,94.45 L782.05,96.4 290.2,96.4 290.2,94.45 191.05,189.8 191.05,262.3 63.15,262.3 63.15,945 C63.15,957.55 73.5,967.85 86,967.85 L982.45,967.85 C994.95,967.85 1005.3,957.55 1005.3,945 L1005.3,262.3 881.35,262.3 881.35,189.8 782.05,94.45z M782.05,262.3 L290.2,262.3 290.2,189.8 782.05,189.8 782.05,262.3z"/>
    </g>
  </g>
  <g id="folder">
    <g id="shape5">
      <path id="path4" fill="#45664D" fill-opacity="1" d="M758.5,73.05 L758.5,75 266.65,75 266.65,73.05 167.5,168.4 167.5,240.9 39.6,240.9 39.6,923.6 C39.6,936.15 49.95,946.45 62.45,946.45 L958.9,946.45 C971.4,946.45 981.75,936.15 981.75,923.6 L981.75,240.9 857.8,240.9 857.8,168.4 758.5,73.05z M758.5,240.9 L266.65,240.9 266.65,168.4 758.5,168.4 758.5,240.9z"/>
    </g>
  </g>
  <g id="folder-dark">
    <g id="shape10">
      <path id="path8" fill="#000000" fill-opacity="0.2" d="M758.5,168.4 L758.5,75 266.65,75 266.65,168.4 758.5,168.4z M39.6,923.6 C39.6,936.15 49.95,946.45 62.45,946.45 L958.9,946.45 C971.4,946.45 981.75,936.15 981.75,923.6 L981.75,301.85 39.6,301.85 39.6,923.6z"/>
    </g>
  </g>
  <g id="ico-shadow">
    <g id="shape14">
      <path id="path11" fill="#000000" fill-opacity="0.2" d="M666,630.35 L649.45,635 490.05,475.6 323.9,475.6 294.275,764.225 476.5,946.45 958.9,946.45 Q968.25,946.45 975,939.7 981.75,932.95 981.75,923.6 L981.75,867.65 744.45,630.35 699.2,663.55 666,630.35z"/>
    </g>
  </g>
  <g id="Ico">
    <g id="shape16">
      <path id="path12" fill="#FFFFFF" fill-opacity="1" d="M653.65,659.85 L663,623.35 627.15,623.35 602.7,717.4 575.55,623.35 537.1,623.35 580.7,759.45 621.55,759.45 636.8,710.25 657.35,759.45 697.4,759.45 741.45,623.35 703,623.35 676.1,717.4 653.65,659.85z M287.6,446.05 L287.6,758.9 420.5,758.9 C432.9,758.9 444.25,757.2 454.5,753.85 464.85,750.55 474.2,745.55 482.45,738.9 497.95,726.3 509.5,708.85 517.3,686.25 525.1,663.75 529.05,636.25 529.05,603.85 529.05,498.65 492.9,446.05 420.5,446.05 L287.6,446.05z M444.55,507.3 C452.7,513.4 458.85,524.4 463.1,540.45 467.1,556.45 469.1,577.4 469.1,603.45 Q469.1,654.3 455.8,680 C446.9,697 433.55,705.45 415.7,705.45 L347.5,705.45 347.5,499.1 415.7,499.1 C427.4,499.1 437,501.8 444.55,507.3z"/>
    </g>
  </g>
</svg>