<?xml version="1.0" encoding="utf-8"?>
<!-- Generator: flash2svg, http://dissentgraphics.com/tools/flash2svg -->
<svg xmlns:xlink="http://www.w3.org/1999/xlink" id="Folders-App-ParallelsDesktop-Linux-folder" image-rendering="optimizeSpeed" baseProfile="basic" version="1.1" style="background-color:#ffffff" x="0px" y="0px" width="1024px" height="1024px" viewBox="0 0 1024 1024" enable-background="new 0 0 1024 1024" xmlns="http://www.w3.org/2000/svg">
  <defs transform="matrix(1 0 0 1 0 0) "/>
  <g id="folder-shadow">
    <g id="shape">
      <path id="path" fill="#000000" fill-opacity="0.09803921568627451" d="M782.05,94.45 L782.05,96.4 290.2,96.4 290.2,94.45 191.05,189.8 191.05,262.3 63.15,262.3 63.15,945 C63.15,957.55 73.5,967.85 86,967.85 L982.45,967.85 C994.95,967.85 1005.3,957.55 1005.3,945 L1005.3,262.3 881.35,262.3 881.35,189.8 782.05,94.45z M782.05,262.3 L290.2,262.3 290.2,189.8 782.05,189.8 782.05,262.3z"/>
    </g>
  </g>
  <g id="folder">
    <g id="shape5">
      <path id="path4" fill="#CD474F" fill-opacity="1" d="M758.5,73.05 L758.5,75 266.65,75 266.65,73.05 167.5,168.4 167.5,240.9 39.6,240.9 39.6,923.6 C39.6,936.15 49.95,946.45 62.45,946.45 L958.9,946.45 C971.4,946.45 981.75,936.15 981.75,923.6 L981.75,240.9 857.8,240.9 857.8,168.4 758.5,73.05z M758.5,240.9 L266.65,240.9 266.65,168.4 758.5,168.4 758.5,240.9z"/>
    </g>
  </g>
  <g id="folder-dark">
    <g id="shape10">
      <path id="path8" fill="#000000" fill-opacity="0.2" d="M758.5,168.4 L758.5,75 266.65,75 266.65,168.4 758.5,168.4z M39.6,923.6 C39.6,936.15 49.95,946.45 62.45,946.45 L958.9,946.45 C971.4,946.45 981.75,936.15 981.75,923.6 L981.75,301.85 39.6,301.85 39.6,923.6z"/>
    </g>
  </g>
  <g id="folder-dark1">
    <g id="shape14">
      <path id="path11" fill="#000000" fill-opacity="0.2" d="M758.5,168.4 L758.5,75 266.65,75 266.65,168.4 758.5,168.4z M981.75,762.95 L674.85,456.05 371.25,461.05 370.425,702.325 614.55,946.45 958.9,946.45 C971.4,946.45 981.75,936.15 981.75,923.6 L981.75,762.95z"/>
    </g>
  </g>
  <g id="Ico">
    <g id="shape18">
      <path id="path14" fill="#FFFFFF" fill-opacity="1" d="M668.9,450.85 C665.35,447.35 661.15,445.6 656.2,445.6 L370.45,445.6 C365.5,445.6 361.3,447.35 357.8,450.85 354.25,454.4 352.5,458.6 352.5,463.55 L352.5,684.4 C352.5,689.35 354.25,693.55 357.8,697.1 361.3,700.6 365.5,702.3 370.45,702.3 L471.55,702.3 468.05,712.45 457.05,743.7 C457.05,747.5 458.4,750.8 461.1,753.45 463.8,756.15 467.1,757.55 470.9,757.55 L560.35,757.55 C564.15,757.55 567.45,756.15 570.15,753.45 572.85,750.8 574.2,747.5 574.2,743.7 L563.25,712.45 559.7,702.3 656.2,702.3 C661.15,702.3 665.35,700.6 668.9,697.1 672.4,693.55 674.15,689.35 674.15,684.4 L674.15,463.55 C674.15,458.6 672.4,454.4 668.9,450.85z M643.75,477.1 L643.75,670.85 C643.75,673.9 642.2,675.4 639.1,675.4 L387.5,675.4 C384.45,675.4 382.9,673.9 382.9,670.85 L382.9,477.1 C382.9,474.05 384.45,472.5 387.5,472.5 L639.1,472.5 C642.2,472.5 643.75,474.05 643.75,477.1z M516.1,463.75 C516.1,464.5 515.8,465.2 515.25,465.7 514.75,466.25 514.05,466.5 513.3,466.5 512.55,466.5 511.9,466.25 511.35,465.7 510.85,465.2 510.55,464.5 510.55,463.75 510.55,463 510.85,462.35 511.35,461.8 511.9,461.25 512.55,461 513.3,461 514.05,461 514.75,461.25 515.25,461.8 515.8,462.35 516.1,463 516.1,463.75z"/>
    </g>
  </g>
  <g id="ico-shadow">
    <g id="shape26">
      <path id="path21" fill="#FFFFFF" fill-opacity="1" d="M504.05,583.75 C504.05,580.7 502.95,578.1 500.8,575.95 498.65,573.8 496.1,572.75 493.05,572.75 490,572.75 487.4,573.8 485.25,575.95 483.1,578.1 482.05,580.7 482.05,583.75 482.05,586.8 483.1,589.35 485.25,591.5 487.4,593.65 490,594.75 493.05,594.75 496.1,594.75 498.65,593.65 500.8,591.5 502.95,589.35 504.05,586.8 504.05,583.75z M511.9,571.2 C511.95,571.65 512,572.05 512.05,572.5 512.1,572.05 512.15,571.65 512.2,571.2 513.15,564.6 515.7,558.8 519.8,553.75 525.1,547.25 531.5,544 539.05,544 546.55,544 552.95,547.25 558.3,553.75 563.6,560.25 566.25,568.1 566.25,577.25 566.25,586.45 563.6,594.3 558.3,600.75 556.9,602.45 555.45,603.95 553.9,605.2 553.35,605.65 552.85,606.05 552.3,606.4 564.5,606.75 575.4,617 585,637.25 592.7,652.1 609,654.4 633.85,644.05 624.3,624.7 607.9,609.05 584.65,597.1 584.75,592.35 584.85,587.4 585,582.7 585.05,581.85 585.05,580.8 585.05,579.75 585.05,578.9 585.05,578.1 585,577.25 584.45,558 577.3,541.5 563.55,527.75 549.3,513.5 532.1,506.35 512.05,506.25 492,506.35 474.8,513.5 460.55,527.75 446.8,541.5 439.65,558 439.1,577.25 439.05,578.1 439.05,578.9 439.05,579.75 Q439.05,581.2 439.1,582.7 C439.25,587.4 439.35,592.35 439.45,597.1 416.2,609.05 399.8,624.7 390.25,644.05 415.1,654.4 431.4,652.1 439.1,637.25 448.7,617 459.6,606.75 471.8,606.4 471.25,606.05 470.75,605.65 470.2,605.2 468.65,603.95 467.2,602.45 465.8,600.75 460.5,594.3 457.85,586.45 457.85,577.25 457.85,568.1 460.5,560.25 465.8,553.75 471.15,547.25 477.55,544 485.05,544 492.6,544 499,547.25 504.3,553.75 508.4,558.8 510.95,564.6 511.9,571.2z M523.3,575.95 C521.15,578.1 520.05,580.7 520.05,583.75 520.05,586.8 521.15,589.35 523.3,591.5 525.45,593.65 528,594.75 531.05,594.75 534.1,594.75 536.7,593.65 538.85,591.5 541,589.35 542.05,586.8 542.05,583.75 542.05,580.7 541,578.1 538.85,575.95 536.7,573.8 534.1,572.75 531.05,572.75 528,572.75 525.45,573.8 523.3,575.95z M484.35,612.1 C484.4,612.35 484.5,612.55 484.55,612.8 486.85,619.95 491.45,626.35 498.3,632 502.5,635.5 507.1,638.25 512.05,640.3 517,638.25 521.6,635.5 525.8,632 532.65,626.35 537.25,619.95 539.55,612.8 539.6,612.55 539.7,612.35 539.75,612.1 540.45,609.75 540.95,607.05 541.2,604.25 L512.05,598.35 482.9,604.25 C483.15,607.05 483.65,609.75 484.35,612.1z"/>
    </g>
  </g>
</svg>