<?xml version="1.0" encoding="utf-8"?>
<!-- Generator: flash2svg, http://dissentgraphics.com/tools/flash2svg -->
<svg id="Owncloud-folder" image-rendering="optimizeSpeed" baseProfile="basic" version="1.1" style="background-color:#FFFFFF" x="0px" y="0px" width="1024px" height="1024px" viewBox="0 0 1024 1024" enable-background="new 0 0 1024 1024" xmlns="http://www.w3.org/2000/svg" xmlns:xlink="http://www.w3.org/1999/xlink">
  <defs transform="matrix(1 0 0 1 0 0) "/>
  <g id="folder-shadow">
    <g id="shape">
      <path id="path" fill="#000000" fill-opacity="0.09803921568627451" d="M782,94.4 L782,96.35 290.15,96.35 290.15,94.4 191,189.75 191,262.25 63.1,262.25 63.1,944.95 C63.1,957.5 73.45,967.8 85.95,967.8 L982.4,967.8 C994.9,967.8 1005.25,957.5 1005.25,944.95 L1005.25,262.25 881.3,262.25 881.3,189.75 782,94.4z M782,262.25 L290.15,262.25 290.15,189.75 782,189.75 782,262.25z"/>
    </g>
  </g>
  <g id="folder">
    <g id="shape5">
      <path id="path4" fill="#5B8CC4" fill-opacity="1" d="M758.45,73 L758.45,74.95 266.6,74.95 266.6,73 167.45,168.35 167.45,240.85 39.55,240.85 39.55,923.55 C39.55,936.1 49.9,946.4 62.4,946.4 L958.85,946.4 C971.35,946.4 981.7,936.1 981.7,923.55 L981.7,240.85 857.75,240.85 857.75,168.35 758.45,73z M758.45,240.85 L266.6,240.85 266.6,168.35 758.45,168.35 758.45,240.85z"/>
    </g>
  </g>
  <g id="folder-dark">
    <g id="shape10">
      <path id="path8" fill="#000000" fill-opacity="0.2" d="M758.45,168.35 L758.45,74.95 266.6,74.95 266.6,168.35 758.45,168.35z M39.55,923.55 C39.55,936.1 49.9,946.4 62.4,946.4 L958.85,946.4 C971.35,946.4 981.7,936.1 981.7,923.55 L981.7,301.8 39.55,301.8 39.55,923.55z"/>
    </g>
  </g>
  <g id="ico-shadow">
    <g id="shape14">
      <path id="path11" fill="#000000" fill-opacity="0.2" d="M974.95,939.65 Q981.7,932.9 981.7,923.55 L981.7,851.9 653.8,524 341.15,738.8 548.75,946.4 958.85,946.4 Q968.2,946.4 974.95,939.65z"/>
    </g>
  </g>
  <g id="Ico">
    <g id="shape16">
      <path id="path12" fill="#FFFFFF" fill-opacity="1" d="M658.25,591.15 C664.35,581.9 667.4,571.75 667.4,560.7 667.4,545.2 661.9,531.9 650.85,520.85 Q634.2,504.2 610.9,504.2 C596.75,504.2 584.55,508.8 574.25,517.9 565.7,497.1 552,480.2 533.1,467.2 514.15,454.4 493.15,448 470.1,448 438.8,448 412.25,458.95 390.3,480.9 368.35,503.05 357.35,529.6 357.35,560.7 L357.7,570.2 C340.6,578.1 326.9,590.1 316.55,606.2 306.1,622.2 300.9,639.95 300.9,659.35 300.9,686.5 310.5,709.7 329.75,729.15 349.15,748.35 372.4,758 399.55,758 L639,758 C662.4,758 682.4,749.7 698.95,733.1 715.4,716.65 723.6,696.75 723.6,673.4 723.6,653.6 717.4,636 705.1,620.6 692.8,605.35 677.15,595.5 658.25,591.15z"/>
    </g>
  </g>
</svg>