<?xml version="1.0" encoding="utf-8"?>
<!-- Generator: flash2svg, http://dissentgraphics.com/tools/flash2svg -->
<svg xmlns:xlink="http://www.w3.org/1999/xlink" id="User-Downloads" image-rendering="optimizeSpeed" baseProfile="basic" version="1.1" style="background-color:#ffffff" x="0px" y="0px" width="1024px" height="1024px" viewBox="0 0 1024 1024" enable-background="new 0 0 1024 1024" xmlns="http://www.w3.org/2000/svg">
  <defs transform="matrix(1 0 0 1 0 0) "/>
  <g id="folder-shadow">
    <g id="shape">
      <path id="path" fill="#000000" fill-opacity="0.09803921568627451" d="M782.05,94.45 L782.05,96.4 290.2,96.4 290.2,94.45 191.05,189.8 191.05,262.3 63.15,262.3 63.15,945 C63.15,957.55 73.5,967.85 86,967.85 L982.45,967.85 C994.95,967.85 1005.3,957.55 1005.3,945 L1005.3,262.3 881.35,262.3 881.35,189.8 782.05,94.45z M782.05,262.3 L290.2,262.3 290.2,189.8 782.05,189.8 782.05,262.3z"/>
    </g>
  </g>
  <g id="folder">
    <g id="shape5">
      <path id="path4" fill="#66B66A" fill-opacity="1" d="M758.5,73.05 L758.5,75 266.65,75 266.65,73.05 167.5,168.4 167.5,240.9 39.6,240.9 39.6,923.6 C39.6,936.15 49.95,946.45 62.45,946.45 L958.9,946.45 C971.4,946.45 981.75,936.15 981.75,923.6 L981.75,240.9 857.8,240.9 857.8,168.4 758.5,73.05z M758.5,240.9 L266.65,240.9 266.65,168.4 758.5,168.4 758.5,240.9z"/>
    </g>
  </g>
  <g id="folder-dark">
    <g id="shape10">
      <path id="path8" fill="#000000" fill-opacity="0.2" d="M758.5,168.4 L758.5,75 266.65,75 266.65,168.4 758.5,168.4z M39.6,923.6 C39.6,936.15 49.95,946.45 62.45,946.45 L958.9,946.45 C971.4,946.45 981.75,936.15 981.75,923.6 L981.75,301.85 39.6,301.85 39.6,923.6z"/>
    </g>
  </g>
  <g id="ico-shadow">
    <g id="shape14">
      <path id="path11" fill="#000000" fill-opacity="0.2" d="M471.05,601.25 L581.05,715.05 350.375,756.325 540.5,946.45 958.9,946.45 Q968.25,946.45 975,939.7 981.75,932.95 981.75,923.6 L981.75,885.65 542.15,446.05 471.05,601.25z"/>
    </g>
  </g>
  <g id="Ico">
    <g id="shape16">
      <path id="path12" fill="#FFFFFF" fill-opacity="1" d="M676.65,660.1 C672.9,656.35 668.3,654.4 662.8,654.4 L363.2,654.4 C357.75,654.4 353.1,656.35 349.35,660.1 345.55,663.9 343.6,668.5 343.6,674 L343.6,739.05 C343.6,744.5 345.55,749.1 349.35,752.9 353.1,756.65 357.75,758.6 363.2,758.6 L662.8,758.6 C668.3,758.6 672.9,756.65 676.65,752.9 680.45,749.1 682.4,744.5 682.4,739.05 L682.4,674 Q682.4,665.85 676.65,660.1z M652.5,728.7 C649.9,731.25 646.75,732.6 643.25,732.6 639.7,732.6 636.65,731.25 634.1,728.7 631.55,726.15 630.2,723.1 630.2,719.55 630.2,716.05 631.55,712.9 634.1,710.35 636.65,707.8 639.7,706.45 643.25,706.45 646.75,706.45 649.9,707.8 652.5,710.35 655.05,712.9 656.25,716.05 656.25,719.55 656.25,723.1 655.05,726.15 652.5,728.7z M542.3,449.3 C540.1,447.1 537.35,446.05 534.35,446.05 L489.35,446.05 C486.3,446.05 483.55,447.1 481.35,449.3 479.15,451.5 478,454.25 478,457.3 L478,536.1 433,536.1 C428.1,536.1 424.6,538.4 422.5,542.95 420.6,547.65 421.45,551.75 425,555.2 L503.85,634.05 C506.05,636.25 508.65,637.4 511.85,637.4 515,637.4 517.6,636.25 519.75,634.05 L598.5,555.2 C602.25,551.75 603.05,547.65 600.95,542.95 598.95,538.4 595.6,536.1 590.65,536.1 L545.6,536.1 545.6,457.3 C545.6,454.25 544.5,451.5 542.3,449.3z"/>
    </g>
  </g>
</svg>