
<svg xmlns="http://www.w3.org/2000/svg" version="1.1" xmlns:xlink="http://www.w3.org/1999/xlink" preserveAspectRatio="none" x="0px" y="0px" width="1024px" height="1024px" viewBox="0 0 1024 1024">
<defs>
<g id="Layer5_0_FILL">
<path fill="#000000" fill-opacity="0.09803921568627451" stroke="none" d="
M 969.6 351.25
Q 961 330.4 950.2 310.4 944.1 299.05 937.3 288 907.95 240.45 865.75 198.2 727.5 59.95 531.95 59.95 336.45 59.95 198.2 198.2 59.95 336.45 59.95 531.95 59.95 727.5 198.2 865.75 336.45 1003.95 531.95 1003.95 727.5 1003.95 865.75 865.75 941.9 789.55 976.1 696 1003.95 619.75 1003.95 531.95 1003.95 464.6 987.55 404 985.7 397.15 983.65 390.4 977.5 370.45 969.6 351.25 Z"/>
</g>

<g id="Layer4_0_FILL">
<path fill="#343764" stroke="none" d="
M 966.05 378.4
Q 964.52578125 373.114453125 962.85 367.85 960.3787109375 359.903125 957.6 352.05 947.85 324.5 934.45 298.4 928.65 287.05 922.15 276 891.5 224 845.8 178.25 736.8 69.25 592.15 46.2 567.65 42.3 542.1 40.85 527.2 40 512 40 497.9 40 484.1 40.75 306.55 49.95 178.25 178.25 40 316.5 40 512 40 707.55 178.25 845.8 263.0400390625 930.55703125 369.35 963.35 423.8880859375 980.1630859375 484.1 983.3 484.3 983.3 484.5 983.3 496.65 983.9 509 984 510.5 984 512 984 527.25 984 542.1 983.2 545.6 983 549.05 982.75 579.1 980.6 607.75 975.05 619.55 972.75 631.15 969.9 751.75 939.85 845.8 845.8 918.7 772.85 953.15 684 980.9 612.4 983.7 530.5 984 521.3 984 512 984 511 984 510 984 509.5 984 509 983.65 447.7 969.7 392 967.95 385.15 966.05 378.4 Z"/>
</g>

<g id="Layer3_0_FILL">
<path fill="#FFFFFF" stroke="none" d="
M 318 759.65
Q 318 766.45 322.75 771.2 327.55 776 334.4 776 341.2 776 345.95 771.2 350.75 766.45 350.75 759.65 350.75 752.8 345.95 748 341.2 743.25 334.4 743.25 327.55 743.25 322.75 748 318 752.8 318 759.65
M 747.5 831
Q 747.5 821.7 740.85 815.1 734.3 808.55 725 808.55 715.7 808.55 709.1 815.1 702.55 821.7 702.55 831 702.55 840.35 709.1 846.9 715.7 853.5 725 853.5 734.3 853.5 740.85 846.9 747.5 840.35 747.5 831
M 179.55 538.75
Q 176.55 535.75 172.3 535.75 168.1 535.75 165.05 538.75 162.05 541.8 162.05 546 162.05 550.25 165.05 553.3 168.1 556.3 172.3 556.3 176.55 556.3 179.55 553.3 182.6 550.25 182.6 546 182.6 541.8 179.55 538.75
M 189.05 459.05
Q 177.85 459.05 169.95 466.95 162.05 474.85 162.05 486 162.05 497.2 169.95 505.1 177.85 513 189.05 513 200.2 513 208.1 505.1 216 497.2 216 486 216 474.85 208.1 466.95 200.2 459.05 189.05 459.05
M 435.95 242.55
Q 430 242.55 425.75 246.8 421.5 251.05 421.5 257 421.5 263 425.75 267.2 430 271.45 435.95 271.45 441.95 271.45 446.15 267.2 450.4 263 450.4 257 450.4 251.05 446.15 246.8 441.95 242.55 435.95 242.55
M 856.8 332
Q 856.8 327.6 853.65 324.45 850.6 321.4 846.2 321.4 841.85 321.4 838.7 324.45 835.65 327.6 835.65 332 835.65 336.35 838.7 339.45 841.85 342.6 846.2 342.6 850.6 342.6 853.65 339.45 856.8 336.35 856.8 332
M 400.1 125.8
Q 396.45 129.45 396.45 134.65 396.45 139.85 400.1 143.55 403.75 147.2 408.95 147.2 414.15 147.2 417.8 143.55 421.5 139.85 421.5 134.65 421.5 129.45 417.8 125.8 414.15 122.15 408.95 122.15 403.75 122.15 400.1 125.8
M 826 414.95
Q 822.05 414.95 819.2 417.8 816.4 420.6 816.4 424.6 816.4 428.55 819.2 431.4 822.05 434.2 826 434.2 830 434.2 832.85 431.4 835.65 428.55 835.65 424.6 835.65 420.6 832.85 417.8 830 414.95 826 414.95 Z"/>

<path fill="#999999" stroke="none" d="
M 628.05 776
Q 610.2 776 597.6 788.6 585 801.2 585 819.05 585 836.9 597.6 849.45 610.2 862.05 628.05 862.05 645.9 862.05 658.5 849.45 671.05 836.9 671.05 819.05 671.05 801.2 658.5 788.6 645.9 776 628.05 776
M 884.35 337.9
Q 877.45 337.9 872.6 342.7 867.75 347.6 867.75 354.45 867.75 361.35 872.6 366.15 877.45 371.05 884.35 371.05 891.2 371.05 896 366.15 900.9 361.35 900.9 354.45 900.9 347.6 896 342.7 891.2 337.9 884.35 337.9 Z"/>
</g>

<g id="Layer2_0_FILL">
<path fill="#000000" fill-opacity="0.2" stroke="none" d="
M 984 509
Q 983.985546875 506.4689453125 983.95 503.95
L 836 356 564.9 407 516.85 358.95 229.75 407 443 620.25 193 681 495.75 983.75
Q 502.3443359375 983.94609375 509 984 510.5 984 512 984 527.25 984 542.1 983.2 545.6 983 549.05 982.75 579.1 980.6 607.75 975.05 619.55 972.75 631.15 969.9 751.75 939.85 845.8 845.8 918.7 772.85 953.15 684 980.9 612.4 983.7 530.5 984 521.3 984 512 984 511 984 510 984 509.5 984 509 Z"/>
</g>

<g id="Layer0_0_FILL">
<path fill="#A7DAEF" stroke="none" d="
M 442.15 650.15
L 471.7 679.7
Q 485.736328125 676.097265625 496.7 665.1 513.05 648.8 513.05 625.7 513.05 610.8482421875 506.3 598.8
L 352.25 420 318 449 454 604
Q 473.1203125 637.258984375 442.15 650.15
M 605.85 513
Q 607.7419921875 472.3876953125 627 420
L 562 444
Q 549.2314453125 481.201171875 547.7 513 545.02421875 568.1220703125 576.05 607 585.8779296875 619.276171875 599 629.9 608.1990234375 637.3572265625 619 644 693.2994140625 677.1279296875 793 653 599.475390625 650.746484375 605.85 513
M 519 356
L 447 387 447 428 519 356
M 761 397
L 761 431 836 356 761 397 Z"/>

<path fill="#FFFFFF" stroke="none" d="
M 266 608
L 261 653 434 653
Q 438.454296875 651.73828125 442.15 650.15
L 421 629 287 629 266 608
M 240.95 420
L 318 449 352.25 420 240.95 420
M 524 420
L 562 444 627 420 524 420
M 426 378
L 447 387 519 356 274.15 356
Q 253.678125 356.4703125 239.05 371.05 226.42578125 383.716015625 229.75 407 240.4 380.9 267 378
L 426 378
M 736 381
L 761 397 836 356 576 356 585 381 736 381 Z"/>

<path fill="#5897B4" stroke="none" d="
M 318 449
L 240.95 420 421 629 442.15 650.15
Q 473.1203125 637.258984375 454 604
L 318 449
M 261 653
L 266 608 193 681 261 653
M 562 444
L 524 420
Q 506.97109375 471.394921875 504.55 513 499.0044921875 608.44765625 570.35 652.35 609.5580078125 676.51640625 651.35 682.25
L 599 629.9
Q 585.8779296875 619.276171875 576.05 607 545.02421875 568.1220703125 547.7 513 549.2314453125 481.201171875 562 444
M 585 381
L 576 356 525 407 585 381 Z"/>

<path fill="#7BA1B1" stroke="none" d="
M 261 653
L 193 681 457.3 681.45
Q 461.13046875 681.45 464.75 681 468.3248046875 680.562109375 471.7 679.7
L 442.15 650.15
Q 438.454296875 651.73828125 434 653
L 261 653
M 651.35 682.25
Q 718.798828125 691.54609375 793 653 693.2994140625 677.1279296875 619 644 608.1990234375 637.3572265625 599 629.9
L 651.35 682.25
M 447 387
L 426 378 267 378
Q 240.4 380.9 229.75 407
L 426 407 447 428 447 387
M 737 407
L 761 431 761 397 736 381 585 381 525 407 737 407 Z"/>
</g>
</defs>

<g transform="matrix( 1, 0, 0, 1, 0,0) ">
<use xlink:href="#Layer5_0_FILL"/>
</g>

<g transform="matrix( 1, 0, 0, 1, 0,0) ">
<use xlink:href="#Layer4_0_FILL"/>
</g>

<g transform="matrix( 1, 0, 0, 1, 0,0) ">
<use xlink:href="#Layer3_0_FILL"/>
</g>

<g transform="matrix( 1, 0, 0, 1, 0,0) ">
<use xlink:href="#Layer2_0_FILL"/>
</g>

<g transform="matrix( 1, 0, 0, 1, 0,0) ">
<use xlink:href="#Layer0_0_FILL"/>
</g>
</svg>
