<?xml version="1.0" encoding="utf-8"?>
<!-- Generator: flash2svg, http://dissentgraphics.com/tools/flash2svg -->
<svg xmlns:xlink="http://www.w3.org/1999/xlink" id="Diablo-2" image-rendering="optimizeSpeed" baseProfile="basic" version="1.1" style="background-color:#ffffff" x="0px" y="0px" width="1024px" height="1024px" viewBox="0 0 1024 1024" enable-background="new 0 0 1024 1024" xmlns="http://www.w3.org/2000/svg">
  <defs transform="matrix(1 0 0 1 0 0) "/>
  <g id="shadow">
    <g id="shape">
      <path id="path" fill="#000000" fill-opacity="0.09803921568627451" d="M965.65,347.3 Q957.05,326.45 946.25,306.45 C942.2,298.9 937.9,291.4 933.35,284.05 913.8,252.35 889.95,222.4 861.8,194.25 769.65,102.1 658.35,56 528,56 397.65,56 286.4,102.1 194.25,194.25 102.1,286.4 56,397.65 56,528 56,658.35 102.1,769.65 194.25,861.8 286.4,953.95 397.65,1000 528,1000 658.35,1000 769.65,953.95 861.8,861.8 912.55,811 949.35,754.4 972.15,692.05 990.7,641.2 1000,586.55 1000,528 1000,483.1 994.55,440.45 983.6,400.05 982.35,395.5 981.05,390.95 979.7,386.45 975.6,373.15 970.9,360.1 965.65,347.3z"/>
    </g>
  </g>
  <g id="BackgroundInner">
    <g id="shape2">
      <path id="path1" fill="#402725" fill-opacity="1" d="M985.45,512.05 C985.45,507.45 985.4,502.85 985.25,497.9 831.7,524.7 753.3,578 750.05,657.85 L750.05,922.5 C784.45,902.1 816.75,876.85 847,846.6 893.9,799.7 928.9,747.85 951.95,691.1 Q985.45,608.65 985.45,512.3 C985.45,512.2 985.45,512.1 985.45,512.05z M40.2,497.85 C40.05,502.65 40,507.45 40,512.3 40,517.55 40.1,522.8 40.25,528.05 43.8,651.85 89.9,758.05 178.45,846.6 208.85,877 241.35,902.4 275.65,922.7 L275.65,922.675 L275.65,657.85 C272.4,578 193.95,524.65 40.2,497.85z"/>
      <path id="path2" fill="#572F2D" fill-opacity="1" d="M750.05,657.85 C753.3,578 831.7,524.7 985.25,497.9 982.05,373.75 936,267.05 847,178.05 754.7,85.75 643.25,39.6 512.7,39.6 382.15,39.6 270.75,85.75 178.45,178.05 89.6,266.9 43.5,373.5 40.2,497.85 193.95,524.65 272.4,578 275.65,657.85 L275.65,922.675 L275.65,922.7 C334.75,957.55 399.55,977.7 470.4,983.35 484.25,984.5 498.35,985.05 512.7,985.05 600.5,985.05 679.65,964.15 750.05,922.5 L750.05,657.85z"/>
    </g>
  </g>
  <g id="LogoBg">
    <g id="shape8">
      <path id="path5" fill="#432B29" fill-opacity="1" d="M423.1,612.25 C451.8,625.2 472.75,656.85 485.9,707.15 L485.9,573.15 423.1,612.25z M538.25,707.15 C551.4,656.85 572.35,625.2 601.05,612.25 L538.25,573.15 538.25,707.15z"/>
    </g>
  </g>
  <g id="LogoBg1">
    <g id="shape12">
      <path id="path8" fill="#B14143" fill-opacity="1" d="M435.175,611.825 Q462.665,628.776 479.9,670.05 L479.9,583.975 435.175,611.825z M544.25,670.05 C555.75,642.55 570.65,623.15 589,611.85 L588.975,611.825 L544.25,583.975 544.25,670.05z"/>
    </g>
  </g>
  <g id="LogoBg2">
    <g id="shape16">
      <path id="path11" fill="#462A28" fill-opacity="1" d="M217.25,383.85 C242.8,441.3 325.3,484.05 464.85,512.15 Q424.85,379.95 217.25,383.85"/>
      <path id="path12" fill="#B14143" fill-opacity="1" d="M231.4,392.3 C349,392.8 422.4,429 451.7,500.75 334.55,475.5 261.1,439.4 231.4,392.3"/>
      <path id="path13" fill="#462A28" fill-opacity="1" d="M559.25,512.15 C698.8,484.05 781.3,441.3 806.85,383.85 668.45,381.25 585.9,423.95 559.25,512.15"/>
      <path id="path14" fill="#B14143" fill-opacity="1" d="M792.7,392.3 C675.1,392.8 601.7,429 572.4,500.75 689.55,475.5 763,439.4 792.7,392.3"/>
    </g>
  </g>
  <g id="BackgroundInner1">
    <g id="shape21">
      <path id="path15" fill="#000000" fill-opacity="0.2" d="M951.95,691.1 Q973.797,637.329 981.4,577.65 L585.15,181.4 590.2,333.05 438.55,181.4 438.55,848.45 571.85,981.75 C636.75,974.25 696,954.5 750.05,922.5 784.45,902.1 816.75,876.85 847,846.6 893.9,799.7 928.9,747.85 951.95,691.1z"/>
    </g>
  </g>
  <g id="APP-Alt">
    <g id="shape23">
      <path id="path16" fill="#FF9900" fill-opacity="1" d="M468.4,514.9 L438.55,181.4 408.65,514.9 438.55,848.45 468.4,514.9z M615.05,514.9 L585.15,181.4 555.25,514.9 585.15,848.45 615.05,514.9z"/>
    </g>
  </g>
  <g id="APP-Alt1">
    <g id="shape27">
      <path id="path19" fill="#FFCC00" fill-opacity="1" d="M585.15,233.45 L559.95,514.9 585.15,796.35 610.4,514.9 585.15,233.45z M438.55,233.45 L413.3,514.9 438.55,796.35 463.75,514.9 438.55,233.45z"/>
    </g>
  </g>
</svg>