<?xml version="1.0" encoding="utf-8"?>
<!-- Generator: flash2svg, http://dissentgraphics.com/tools/flash2svg -->
<svg xmlns:xlink="http://www.w3.org/1999/xlink" id="Battle-Net-Launcher" image-rendering="optimizeSpeed" baseProfile="basic" version="1.1" style="background-color:#ffffff" x="0px" y="0px" width="1024px" height="1024px" viewBox="0 0 1024 1024" enable-background="new 0 0 1024 1024" xmlns="http://www.w3.org/2000/svg">
  <defs transform="matrix(1 0 0 1 0 0) "/>
  <g id="shadow">
    <g id="shape">
      <path id="path" fill="#000000" fill-opacity="0.09803921568627451" d="M969.65,351.3 Q961.05,330.45 950.25,310.45 C946.2,302.9 941.9,295.4 937.35,288.05 917.8,256.35 893.95,226.4 865.8,198.25 773.65,106.1 662.35,60 532,60 401.65,60 290.4,106.1 198.25,198.25 106.1,290.4 60,401.65 60,532 60,662.35 106.1,773.65 198.25,865.8 290.4,957.95 401.65,1004 532,1004 662.35,1004 773.65,957.95 865.8,865.8 916.55,815 953.35,758.4 976.15,696.05 994.7,645.2 1004,590.55 1004,532 1004,487.1 998.55,444.45 987.6,404.05 986.35,399.5 985.05,394.95 983.7,390.45 979.6,377.15 974.9,364.1 969.65,351.3z"/>
    </g>
  </g>
  <g id="Calque.__203">
    <g id="shape2">
      <path id="path1" fill="#457FBA" fill-opacity="1" d="M832.55,163.6 C831.25,162.45 829.95,161.3 828.9,160.3 798.2,132.95 763.7,109.95 725.25,90.8 725.1,90.75 725,90.7 724.9,90.65 721.8,89.1 718.8,87.65 716.25,86.5 711.35,84.15 707,82.15 702.65,80.25 701.55,79.8 700.75,79.4 699.9,79.05 690.45,74.95 681,71.2 672,67.85 669.65,67 667.5,66.2 665.4,65.45 665.05,65.3 664.7,65.2 664.35,65.05 645.8,58.6 627.15,53.3 608.5,49.15 600.6,47.45 592.7,45.9 585,44.6 584.05,44.4 583.05,44.3 582.3,44.15 570.65,42.3 559.1,40.9 547.55,39.95 477.75,34.5 408.35,45.5 338.7,73 328.5,77 318.55,81.25 309.1,85.7 295.4,92.05 282.4,98.85 269.9,106.15 234.8,126.5 203.45,150.65 175.8,178.65 175.25,179.2 174.65,179.8 174.1,180.35 170.55,184.05 167,187.8 163.55,191.55 155.15,200.8 147.05,210.5 139.3,220.65 119.25,246.8 101.75,275.75 86.7,307.35 84.1,312.85 81.55,318.45 79.05,324.2 78.8,324.8 78.5,325.45 78.25,326.05 78.1,326.35 78,326.65 77.85,326.95 75.05,333.55 72.4,340.2 69.75,346.95 61.65,368.3 55.05,389.85 49.95,411.8 47.85,421.05 45.95,430.5 44.4,440 43.7,444.4 43,449.15 42.3,453.9 41.4,461.25 40.55,468.75 39.95,476.5 39.85,477.95 39.7,479.65 39.55,481.45 38.25,500.75 38.25,520.15 39.45,539.85 39.9,546.25 40.45,552.75 41.15,559.45 41.2,559.85 41.25,560.25 41.3,560.6 41.45,562.15 41.65,563.75 41.85,565.3 43.85,581.7 46.8,598.15 50.8,615 56.25,638.15 63.65,661.75 73,685.4 92.55,734.85 118.05,778.55 149.9,816.9 162.6,832.15 176.6,846.8 191.6,860.5 210.35,877.6 230.95,893.3 253.15,907.45 267,916.35 281.45,924.55 296.9,932.35 305.6,936.7 314.75,941 324.15,945.05 332.75,948.8 341.3,952.25 350.05,955.45 357.05,958.05 364.05,960.5 371.35,962.9 406.15,974.2 441.3,981.35 476.5,984.1 544.85,989.6 613.35,979 682.35,952.3 683.3,951.9 684.35,951.5 685.4,951.1 708.85,941.8 731.05,931.2 752,919.2 793.3,895.5 829.6,866.55 860.5,832.5 871.7,820.2 882.2,807.25 891.95,793.8 Q922.75,751.3 945.05,699.95 C961.25,662.6 972.6,625.1 978.9,588.4 980.6,578.75 981.9,569.5 982.9,560.3 983.35,555.85 983.75,551.7 984.1,547.55 987.75,502.5 984.35,457.35 973.95,412.05 973.9,411.9 973.9,411.7 973.85,411.55 968.15,387 960.6,362.8 951.1,338.7 923.4,268.75 883.85,210.3 832.55,163.6z"/>
    </g>
  </g>
  <g id="Calque.__204">
    <g id="shape4">
      <path id="path2" fill="#609CDE" fill-opacity="1" d="M776.45,364.65 L753.25,349.75 C796.3,249.3 815.65,197.45 811.2,194.15 L733.4,343.1 C705.85,332.1 684.3,324.95 668.85,321.6 L610.95,313.3 607.6,305.05 576.2,255.4 C551.95,214.55 529.3,188.1 508.3,175.95 495.05,167.1 479.1,164.35 460.35,167.65 441.6,170.95 426.7,179.8 415.65,194.15 403.5,210.7 396.9,239.95 395.8,281.9 L377.6,263.7 C358.85,248.25 341.15,250.4 324.6,270.25 312.45,284.6 305.85,302.85 304.75,324.9 303.65,333.75 303.65,347 304.75,364.65 254,366.85 208.25,384.5 167.4,417.55 230.25,394.4 276.6,383.4 306.4,384.5 L314.7,444.05 C320.2,470.55 328.45,493.2 339.5,511.95 L309.75,564.9 C289.85,604.6 278.25,638.25 275,665.85 272.75,700.1 286,722.15 314.7,732.05 L331.25,733.7 C359.95,734.85 391.4,727.1 425.55,710.55 L417.35,737.05 C417.35,761.3 427.8,773.45 448.75,773.45 462,774.55 476.9,772.35 493.45,766.8 L538.15,746.95 630.8,857.85 558,733.7 C583.35,714.95 602.65,698.4 615.9,684.05 L649,637.75 660.6,637.75 C719.05,637.75 753.85,636.65 764.9,634.4 788.05,631.1 811.2,623.4 834.35,611.25 852,600.2 859.2,583.65 855.9,561.55 853.65,546.1 842.65,527.35 822.8,505.3 L773.15,467.25 C786.4,468.35 797.4,467.25 806.25,463.95 826.1,456.2 832.75,441.85 826.15,420.9 L819.5,407.65 C813.95,397.7 799.6,383.4 776.45,364.65z M754.95,455.65 L705.3,434.1 735.05,387.8 C756.05,399.95 768.75,412.05 773.15,424.2 777.55,434.15 777.55,441.85 773.15,447.4 769.85,450.7 766,452.9 761.55,454.05 L754.95,455.65z M751.6,593.05 C736.15,600.75 716.85,605.7 693.7,607.9 L663.95,609.6 C688.2,564.35 702,525.15 705.3,492.1 L728.45,510.3 C746.1,525.75 758.25,540.65 764.9,555 773.7,571.5 769.25,584.2 751.6,593.05z M685.45,412.65 C665.6,389.45 646.8,373.45 629.15,364.65 652.35,390 666.7,408.2 672.15,419.25 643.5,410.4 599.35,399.95 539.8,387.8 L460.35,371.25 460.35,401.05 581.2,432.5 C624.15,447.95 660.55,464.5 690.35,482.15 670.5,542.85 652.35,585.9 635.8,611.25 613.75,643.25 581.75,673 539.8,700.55 L521.6,662.5 C534.85,655.9 555.25,647.65 582.85,637.75 L524.85,642.65 C554.65,621.7 604.3,568.75 673.85,483.8 L644.1,468.9 C597.75,516.35 563.5,549.45 541.45,568.2 527.1,580.35 500.6,599.1 461.95,624.45 432.2,591.4 411.25,566 399.05,548.35 380.3,519.65 365.45,487.1 354.45,450.7 L342.8,386.15 392.5,389.45 C388.05,406 384.2,430.8 380.85,463.95 386.4,435.25 394.65,414.85 405.7,402.7 414.55,449.05 435,518.05 466.95,609.6 L493.45,591.4 457.05,447.4 C453.7,434.15 451.5,414.85 450.4,389.45 L448.75,354.65 471.9,346.45 C503.95,335.4 537.05,331.55 571.2,334.8 584.45,335.9 605.45,339.8 634.1,346.45 671.6,355.25 698.1,365.15 713.55,376.2 L685.45,412.65z M392.5,310.05 L395.8,364.65 342.8,362.95 C341.7,351.95 341.7,341.45 342.8,331.5 347.25,309.45 358.3,298.4 375.95,298.4 382.55,298.4 388.05,302.3 392.5,310.05z M470.25,250.4 C482.4,235 498.95,233.9 519.95,247.15 540.9,260.4 557.95,281.9 571.2,311.65 544.75,310.6 516.6,315.55 486.8,326.6 L448.75,341.45 C448.75,300.6 455.9,270.25 470.25,250.4z M332.9,609.6 L359.35,541.7 C394.7,600.2 418.95,632.2 432.2,637.75 403.5,651 381.45,657.05 366,655.95 352.75,655.95 343.4,651.5 337.85,642.65 331.25,633.85 329.6,622.85 332.9,609.6z M448.75,718.85 C444.3,708.9 447.1,698.95 457.05,689 L491.8,664.2 519.95,713.85 C501.2,721.55 487.4,725.95 478.55,727.05 463.1,729.3 453.2,726.55 448.75,718.85z"/>
    </g>
  </g>
  <g id="Calque.__205">
    <g id="shape27">
      <path id="path24" fill="#000000" fill-opacity="0.2" d="M674.5,368.8 L650.9,388.05 631.65,368.8 540.55,387.65 521.05,368.15 470.275,386.85 457.05,450.25 375.6,368.8 323.35,425.25 281.15,383.05 201.025,383.95 193.1,500.8 221.6,529.3 193.1,654.9 523.55,985.35 C576.6,983.85 629.3,972.8 682.35,952.3 683.3,951.9 684.35,951.5 685.4,951.1 708.85,941.8 731.05,931.2 752,919.2 793.3,895.5 829.6,866.55 860.5,832.5 871.7,820.2 882.2,807.25 891.95,793.8 Q922.75,751.3 945.05,699.95 C961.25,662.6 972.6,625.1 978.9,588.4 980.6,578.75 981.9,569.5 982.9,560.3 983.35,555.85 983.75,551.7 984.1,547.55 984.65,540.85 985.05,534.15 985.25,527.35 L829.6,371.7 772.725,384.875 740.35,434.65 674.5,368.8z"/>
    </g>
  </g>
  <g id="Calque.__206">
    <g id="shape29">
      <path id="path25" fill="#FFFFFF" fill-opacity="1" d="M685.65,473.95 C682.6,473.95 680.1,473.6 678.25,472.9 675.75,471.9 674.5,469.1 674.5,464.55 L674.5,368.8 644.95,368.8 644.95,474.1 C644.95,483.65 647.6,490.45 652.85,494.5 655.4,496.65 658.45,498.2 661.9,499.2 665.25,500.25 669.1,500.8 673.45,500.8 L727.45,500.8 727.45,473.95 685.65,473.95z M375.6,368.8 L341.35,368.8 298.15,500.8 329.25,500.8 337.9,474.3 377.85,474.3 386.5,500.8 417.3,500.8 375.6,368.8z M345.15,448.65 L358.85,406.65 371.25,448.65 345.15,448.65z M423.8,368.8 L423.8,395.65 458.35,395.65 458.35,500.8 487.95,500.8 487.95,395.65 523.55,395.65 523.55,368.8 423.8,368.8z M531.85,395.65 L566.4,395.65 566.4,500.8 596,500.8 596,395.65 631.65,395.65 631.65,368.8 531.85,368.8 531.85,395.65z M277.75,378.35 C274.6,375.2 270.65,372.8 265.8,371.15 261.05,369.6 255.4,368.8 248.8,368.8 L193.1,368.8 193.1,500.8 249.4,500.8 C263.3,500.8 273.5,497.6 280,491.15 286.55,484.75 289.8,474.8 289.8,461.25 289.8,456.25 288.85,451.65 286.95,447.45 283.2,438.75 277.1,433.7 268.55,432.3 271.5,431.85 274.1,430.85 276.45,429.2 278.75,427.65 280.7,425.45 282.25,422.65 283.8,419.8 285,416.9 285.85,413.9 286.65,410.9 287.05,407.75 287.05,404.4 287.05,393.5 283.95,384.8 277.75,378.35z M246.85,394.45 C250,394.45 252.6,395.4 254.75,397.25 256.95,399.15 258.05,402.25 258.05,406.55 258.05,410.8 257.05,414.1 255.1,416.35 253.15,418.5 250.4,419.6 246.85,419.6 L222.6,419.6 222.6,394.45 246.85,394.45z M257.2,471.4 C255.15,473.9 252.1,475.15 248.05,475.15 L222.6,475.15 222.6,443.75 248.05,443.75 C252.3,443.75 255.4,445.25 257.35,448.3 259.25,451.3 260.2,455.15 260.2,459.85 260.2,465 259.2,468.85 257.2,471.4z M223.05,522.9 L193.1,522.9 193.1,654.9 222.9,654.9 222.9,578.8 268.85,654.9 298.45,654.9 298.45,522.9 268.85,522.9 268.85,600.2 223.05,522.9z M314.5,627.45 C314.5,632.4 315.3,636.7 316.85,640.35 318.4,644.05 320.35,646.85 322.6,648.7 324.75,650.65 327.45,652.15 330.65,653.3 L338.65,655.2 351.6,655.3 C369.1,654.8 386.5,653.8 403.75,652.35 L403.75,627.85 355.3,627.85 C352.15,627.85 349.7,627.5 347.85,626.8 345.35,625.8 344.1,623 344.1,618.45 L344.1,603.5 395.3,601.9 395.3,577.3 344.1,575.5 344.1,560.55 C344.1,557.7 344.45,555.4 345.2,553.7 346.25,551.5 349.05,550.4 353.5,550.4 L403.75,550.4 403.75,525.8 C393.3,524.3 373.85,523.35 345.4,522.9 339.05,522.9 333.6,523.85 329.05,525.8 319.35,530.05 314.5,538.7 314.5,551.75 L314.5,627.45z M512.2,549.75 L512.2,522.9 412.4,522.9 412.4,549.75 447,549.75 447,654.9 476.6,654.9 476.6,549.75 512.2,549.75z M771.25,368.8 Q761.75,368.8 754.9,371.7 C745.2,375.95 740.35,384.6 740.35,397.65 L740.35,473.35 C740.35,478.3 741.15,482.6 742.7,486.25 744.25,489.95 746.2,492.75 748.45,494.6 750.6,496.55 753.3,498.05 756.5,499.2 L764.5,501.1 775.55,501.25 803.05,473.75 781.15,473.75 C778,473.75 775.55,473.4 773.7,472.7 771.2,471.7 769.95,468.9 769.95,464.35 L769.95,449.4 821.15,447.8 821.15,423.2 769.95,421.4 769.95,406.45 C769.95,403.6 770.3,401.3 771.05,399.6 772.1,397.4 774.9,396.3 779.35,396.3 L829.6,396.3 829.6,371.7 C819.15,370.2 799.7,369.25 771.25,368.8z"/>
      <path id="path51" fill="#FFCC00" fill-opacity="1" d="M829.6,500.75 L829.6,473.75 803.05,473.75 803.05,501.475 L803.05,501.5 C813.45,501.45 823.45,501.25 829.6,500.75z"/>
    </g>
  </g>
</svg>