
<svg xmlns="http://www.w3.org/2000/svg" version="1.1" xmlns:xlink="http://www.w3.org/1999/xlink" preserveAspectRatio="none" x="0px" y="0px" width="1024px" height="1024px" viewBox="0 0 1024 1024">
<defs>
<g id="Layer5_0_FILL">
<path fill="#000000" fill-opacity="0.09803921568627451" stroke="none" d="
M 969.6 351.25
Q 961 330.4 950.2 310.4 944.1 299.05 937.3 288 907.95 240.45 865.75 198.2 727.5 59.95 531.95 59.95 336.45 59.95 198.2 198.2 59.95 336.45 59.95 531.95 59.95 727.5 198.2 865.75 336.45 1003.95 531.95 1003.95 727.5 1003.95 865.75 865.75 941.9 789.55 976.1 696 1003.95 619.75 1003.95 531.95 1003.95 464.6 987.55 404 985.7 397.15 983.65 390.4 977.5 370.45 969.6 351.25 Z"/>
</g>

<g id="Layer4_0_FILL">
<path fill="#333333" stroke="none" d="
M 969.7 392
Q 967.95 385.15 966.05 378.4 964.52578125 373.114453125 962.85 367.85 960.3787109375 359.903125 957.6 352.05 947.85 324.5 934.45 298.4 928.65 287.05 922.15 276 891.5 224 845.8 178.25 736.8 69.25 592.15 46.2 567.65 42.3 542.1 40.85 527.2 40 512 40 497.9 40 484.1 40.75 306.55 49.95 178.25 178.25 40 316.5 40 512 40 707.55 178.25 845.8 263.0400390625 930.55703125 369.35 963.35 423.8880859375 980.1630859375 484.1 983.3 484.3 983.3 484.5 983.3 496.65 983.9 509 984 510.5 984 512 984 527.25 984 542.1 983.2 545.6 983 549.05 982.75 579.1 980.6 607.75 975.05 619.55 972.75 631.15 969.9 751.75 939.85 845.8 845.8 918.7 772.85 953.15 684 980.9 612.4 983.7 530.5 984 521.3 984 512 984 511 984 510 984 509.5 984 509 983.65 447.7 969.7 392 Z"/>
</g>

<g id="Layer3_0_FILL">
<path fill="#000000" fill-opacity="0.2" stroke="none" d="
M 983 545.25
L 724.8 287.05 434.85 340.5 356.55 740.05 594 977.5
Q 600.9166015625 976.373828125 607.75 975.05 619.55 972.75 631.15 969.9 751.75 939.85 845.8 845.8 918.7 772.85 953.15 684 978.388671875 618.8798828125 983 545.25 Z"/>
</g>

<g id="Layer2_0_FILL">
<path fill="#FFFFFF" stroke="none" d="
M 652.7 393.25
L 724.8 287.05
Q 684.25 257.15 642.05 242 599.4 226.4 540.8 226.4 476.05 226.4 427.65 250.2 379.3 273.15 347.35 313.3 315.35 353.9 299.4 409.2 283.8 464.15 283.8 528.5
L 283.8 530.1
Q 283.8 607.2 302.25 656.35 321.1 705.55 351.85 736.3 381.75 766.6 421.5 783 461.7 799.4 520.7 799.4 566.2 799.4 606.35 785.45 646.55 771.55 676.45 745.7 705.95 719.9 723.2 683.4 740.4 646.55 740.4 599.8
L 740.4 597.75
Q 740.4 556.75 725.65 524 710.5 491.2 685.5 469.45 660.45 447.75 627.7 436.25 594.5 424.8 558 424.8 517 424.8 489.15 438.3 461.3 451.85 439.15 468.65 445.3 417.4 469.9 385.45 494.5 353.45 543.25 353.45 576.05 353.45 601.85 364.55 627.3 375.2 652.7 393.25
M 591.3 610.75
Q 591.0822265625 609.2107421875 591.2 607.6
L 591.2 608.8
Q 591.2 609.7908203125 591.3 610.75 Z"/>
</g>

<g id="Layer0_0_FILL">
<path fill="#333333" stroke="none" d="
M 523.45 509
Q 523.4 500.85 515.3 500.9
L 471.45 501.25
Q 463.4 501.25 463.45 509.4
L 464.8 693.7
Q 464.85 697.55 466.75 699.3 468.3 700.65 472.95 701.8
L 479.4 703.95 475.95 709.5
Q 475 712.7 476.5 715.65 478.1 718.65 481.3 719.65
L 494.5 723.7
Q 497.65 724.7 500.65 723.15 503.6 721.65 504.65 718.4
L 504.85 712.35 516.25 716.15
Q 516.6310546875 716.275 517 716.4 518.9806640625 717.0455078125 520.95 717.7 529.1 717.65 529 709.55 529.9 698.15 535.75 691.3 538.25 688.4 541.3 686.95 544.2 685.45 546.9 685.65
L 610.95 698.25
Q 619 698.2 618.95 690.05
L 618.55 631.65
Q 618.5 623.5 610.35 623.6
L 563.65 612.9 563.55 602
Q 563.5 598.1 561.55 596.35 559.8 594.75 555.4 593.95
L 547.6 592.05 547.5 577.9
Q 552.7 578.65 557.2 578 559.65 577.7 561.1 575.7 562.6 573.75 562.3 571.4 561.9 569 560 567.45 558.05 566 555.65 566.35 551.1 566.95 545.9 565.55 541.7 564.5 538.5 562.5 537.55 561.95 536.5 561.05 534.6 559.55 532.15 559.8 529.7 560.05 528.2 562 526.7 563.9 526.9 566.3 527.2 568.75 529.1 570.25 530.5 571.45 532.25 572.5 532.85 572.9 533.85 573.45 533.75 574.05 533.75 574.7
L 533.85 588.75 524.05 586.4 523.45 509 Z"/>
</g>
</defs>

<g transform="matrix( 1, 0, 0, 1, 0,0) ">
<use xlink:href="#Layer5_0_FILL"/>
</g>

<g transform="matrix( 1, 0, 0, 1, 0,0) ">
<use xlink:href="#Layer4_0_FILL"/>
</g>

<g transform="matrix( 1, 0, 0, 1, 0,0) ">
<use xlink:href="#Layer3_0_FILL"/>
</g>

<g transform="matrix( 1, 0, 0, 1, 0,0) ">
<use xlink:href="#Layer2_0_FILL"/>
</g>

<g transform="matrix( 1, 0, 0, 1, 0,0) ">
<use xlink:href="#Layer0_0_FILL"/>
</g>
</svg>
