
<svg xmlns="http://www.w3.org/2000/svg" version="1.1" xmlns:xlink="http://www.w3.org/1999/xlink" preserveAspectRatio="none" x="0px" y="0px" width="1024px" height="1024px" viewBox="0 0 1024 1024">
<defs>
<g id="Layer6_0_FILL">
<path fill="#000000" fill-opacity="0.09803921568627451" stroke="none" d="
M 969.6 351.25
Q 961 330.4 950.2 310.4 944.1 299.05 937.3 288 907.95 240.45 865.75 198.2 727.5 59.95 531.95 59.95 336.45 59.95 198.2 198.2 59.95 336.45 59.95 531.95 59.95 727.5 198.2 865.75 336.45 1003.95 531.95 1003.95 727.5 1003.95 865.75 865.75 941.9 789.55 976.1 696 1003.95 619.75 1003.95 531.95 1003.95 464.6 987.55 404 985.7 397.15 983.65 390.4 977.5 370.45 969.6 351.25 Z"/>
</g>

<g id="Layer5_0_FILL">
<path fill="#4771A6" stroke="none" d="
M 969.7 392
Q 967.95 385.15 966.05 378.4 964.52578125 373.114453125 962.85 367.85 960.3787109375 359.903125 957.6 352.05 947.85 324.5 934.45 298.4 928.65 287.05 922.15 276 891.5 224 845.8 178.25 736.8 69.25 592.15 46.2 567.65 42.3 542.1 40.85 527.2 40 512 40 497.9 40 484.1 40.75 306.55 49.95 178.25 178.25 40 316.5 40 512 40 707.55 178.25 845.8 263.0400390625 930.55703125 369.35 963.35 423.8880859375 980.1630859375 484.1 983.3 484.3 983.3 484.5 983.3 496.65 983.9 509 984 510.5 984 512 984 527.25 984 542.1 983.2 545.6 983 549.05 982.75 579.1 980.6 607.75 975.05 619.55 972.75 631.15 969.9 751.75 939.85 845.8 845.8 918.7 772.85 953.15 684 980.9 612.4 983.7 530.5 984 521.3 984 512 984 511 984 510 984 509.5 984 509 983.65 447.7 969.7 392 Z"/>
</g>

<g id="Layer4_0_FILL">
<path fill="#000000" fill-opacity="0.2" stroke="none" d="
M 983.5 535.85
L 659 211.35 403.7 712.8 174.8 688.45 303 816.65 243.8 817.2 397.65 971.05
Q 439.3140625 980.966796875 484.1 983.3 484.3 983.3 484.5 983.3 496.65 983.9 509 984 510.5 984 512 984 527.25 984 542.1 983.2 545.6 983 549.05 982.75 579.1 980.6 607.75 975.05 619.55 972.75 631.15 969.9 751.75 939.85 845.8 845.8 918.7 772.85 953.15 684 979.993359375 614.7390625 983.5 535.85 Z"/>
</g>

<g id="Layer0_0_FILL">
<path fill="#FECCB4" stroke="none" d="
M 335.8 522.85
Q 331.55 521 327.65 519 330.4 559.35 303.6 564.25 305.25 616.2 361.85 646.8 422.65 606.85 423.15 473.8 362.55 458.9 334.25 394.05 334.3 456.6 378.7 504.45 349.75 503.2 326.6 484.5 325.2 506.65 335.8 522.85
M 346.5 538.15
Q 373.7 541.8 392.5 522.85 373.7 541.8 346.5 538.15 Z"/>

<path fill="#5A8FD2" stroke="none" d="
M 228.45 679.7
Q 209.05 694.5 174.8 688.45 248.75 779.55 357.25 752.8 323.6 800.9 243.8 817.2 387.65 917.7 519.75 781.95 566.6 789.25 585.7 752.2 567.35 749.3 547.35 743.6
L 576.5 731.35
Q 545.05 723.7 541.2 688.45 655.5 708.05 605.6 532.05 632.15 538.65 643.95 530.5 594.5 530.2 571.9 467.25 613.35 699.1 478.35 700.7 532.65 675.45 524.35 613.3 412.65 784.35 303.6 663.9 337.55 662.8 361.85 646.8 305.25 616.2 303.6 564.25 330.4 559.35 327.65 519 313.15 511.55 302.1 501.4 238.05 612.75 282.1 716 247.85 700.7 228.45 679.7 Z"/>

<path fill="#FFFFFF" stroke="none" d="
M 740.45 335.65
Q 735.7 322.4 731.35 308.1 713.7 264.4 677.7 228.4 607.25 157.95 507.5 157.95 407.75 157.95 337.25 228.4 294.3 271.3 277.6 325.15 270.9 346.3 268.4 369.15 266.8 383.55 266.8 398.65 266.8 424.1 271.4 447.7 279.45 480.35 302.1 501.4 313.15 511.55 327.65 519 331.55 521 335.8 522.85 325.2 506.65 326.6 484.5 349.75 503.2 378.7 504.45 334.3 456.6 334.25 394.05 362.55 458.9 423.15 473.8 422.65 606.85 361.85 646.8 337.55 662.8 303.6 663.9 412.65 784.35 524.35 613.3 532.65 675.45 478.35 700.7 613.35 699.1 571.9 467.25 594.5 530.2 643.95 530.5 632.15 538.65 605.6 532.05 655.5 708.05 541.2 688.45 545.05 723.7 576.5 731.35
L 547.35 743.6
Q 567.35 749.3 585.7 752.2 762.25 780.05 786.55 548.9 851.25 567.7 889.25 490.65 792.5 481.2 740.45 335.65
M 385.85 378.95
Q 452.6 338.25 438.1 250.55 469.4 333.8 547.65 335.55 480.8 376.25 495.25 463.95 464.05 380.7 385.85 378.95 Z"/>

<path fill="#2C4C6B" stroke="none" d="
M 547.65 335.55
L 466.65 357.25 495.25 463.95
Q 480.8 376.25 547.65 335.55 Z"/>

<path fill="#3A658F" stroke="none" d="
M 438.1 250.55
L 466.65 357.25 547.65 335.55
Q 469.4 333.8 438.1 250.55 Z"/>

<path fill="#497FB3" stroke="none" d="
M 385.85 378.95
L 466.65 357.25 438.1 250.55
Q 452.6 338.25 385.85 378.95 Z"/>

<path fill="#3A658E" stroke="none" d="
M 466.65 357.25
L 385.85 378.95
Q 464.05 380.7 495.25 463.95
L 466.65 357.25 Z"/>

<path fill="#6DADFF" stroke="none" d="
M 271.4 447.7
Q 266.8 424.1 266.8 398.65 266.8 383.55 268.4 369.15 238.8 477.15 151.8 498.3 188.35 537.65 233.05 522.85 175.7 622.5 228.45 679.7 247.85 700.7 282.1 716 238.05 612.75 302.1 501.4 279.45 480.35 271.4 447.7 Z"/>
</g>

<path id="Layer0_0_1_STROKES" stroke="#333333" stroke-width="8" stroke-linejoin="round" stroke-linecap="round" fill="none" d="
M 346.5 538.15
Q 373.7 541.8 392.5 522.85"/>
</defs>

<g transform="matrix( 1, 0, 0, 1, 0,0) ">
<use xlink:href="#Layer6_0_FILL"/>
</g>

<g transform="matrix( 1, 0, 0, 1, 0,0) ">
<use xlink:href="#Layer5_0_FILL"/>
</g>

<g transform="matrix( 1, 0, 0, 1, 0,0) ">
<use xlink:href="#Layer4_0_FILL"/>
</g>

<g transform="matrix( 1, 0, 0, 1, 0,0) ">
<use xlink:href="#Layer0_0_FILL"/>

<use xlink:href="#Layer0_0_1_STROKES"/>
</g>
</svg>
