
<svg xmlns="http://www.w3.org/2000/svg" version="1.1" xmlns:xlink="http://www.w3.org/1999/xlink" preserveAspectRatio="none" x="0px" y="0px" width="1024px" height="1024px" viewBox="0 0 1024 1024">
<defs>
<g id="Layer10_0_FILL">
<path fill="#000000" fill-opacity="0.09803921568627451" stroke="none" d="
M 969.6 351.25
Q 961 330.4 950.2 310.4 944.1 299.05 937.3 288 907.95 240.45 865.75 198.2 727.5 59.95 531.95 59.95 336.45 59.95 198.2 198.2 59.95 336.45 59.95 531.95 59.95 727.5 198.2 865.75 336.45 1003.95 531.95 1003.95 727.5 1003.95 865.75 865.75 941.9 789.55 976.1 696 1003.95 619.75 1003.95 531.95 1003.95 464.6 987.55 404 985.7 397.15 983.65 390.4 977.5 370.45 969.6 351.25 Z"/>
</g>

<g id="Layer9_0_FILL">
<path fill="#3D95D3" stroke="none" d="
M 969.7 392
Q 967.95 385.15 966.05 378.4 964.52578125 373.114453125 962.85 367.85 960.3787109375 359.903125 957.6 352.05 947.85 324.5 934.45 298.4 928.65 287.05 922.15 276 891.5 224 845.8 178.25 736.8 69.25 592.15 46.2 567.65 42.3 542.1 40.85 527.2 40 512 40 497.9 40 484.1 40.75 306.55 49.95 178.25 178.25 40 316.5 40 512 40 707.55 178.25 845.8 263.0400390625 930.55703125 369.35 963.35 423.8880859375 980.1630859375 484.1 983.3 484.3 983.3 484.5 983.3 496.65 983.9 509 984 510.5 984 512 984 527.25 984 542.1 983.2 545.6 983 549.05 982.75 579.1 980.6 607.75 975.05 619.55 972.75 631.15 969.9 751.75 939.85 845.8 845.8 918.7 772.85 953.15 684 980.9 612.4 983.7 530.5 984 521.3 984 512 984 511 984 510 984 509.5 984 509 983.65 447.7 969.7 392 Z"/>
</g>

<g id="Layer8_0_FILL">
<path fill="#000000" fill-opacity="0.2" stroke="none" d="
M 953.15 685.6
Q 979.45 617.7 983.35 540.5
L 618 195.75
Q 563.85 544.75 289.25 737
L 537.3 985.05
Q 539.7 984.95 542.1 984.8 545.6 984.6 549.05 984.35 579.1 982.2 607.75 976.65 619.55 974.35 631.15 971.5 751.75 941.45 845.8 847.4 918.7 774.45 953.15 685.6 Z"/>
</g>

<g id="Layer7_0_FILL">
<path fill="#6F3C39" stroke="none" d="
M 808 509.2
Q 808 499.2 798 499.2
L 797.2 499.2 749.8 499.2 749 499.2
Q 739 499.2 739 509.2
L 739 729.2
Q 739 739.2 749 739.2
L 798 739.2
Q 808 739.2 808 729.2
L 808 509.2 Z"/>

<path fill="#666666" stroke="none" d="
M 756.65 479.2
Q 750 479.2 749.8 488.6
L 749.8 499.2 797.2 499.2 797.2 488.6
Q 797 479.2 790.3 479.2
L 756.65 479.2 Z"/>

<path fill="#333333" stroke="none" d="
M 756.65 359.2
Q 749.8 359.2 749.8 369.2
L 749.8 488.6
Q 750 479.2 756.65 479.2
L 790.3 479.2
Q 797 479.2 797.2 488.6
L 797.2 369.2
Q 797.2 359.2 790.3 359.2
L 787.9 359.2 787.9 356.8 759.15 356.8 759.15 359.2 756.65 359.2 Z"/>

<path fill="#2A2A2A" stroke="none" d="
M 763.25 167.2
Q 759.15 167.3 759.15 177.2
L 759.15 356.8 787.9 356.8 787.9 177.2
Q 787.9 167.2 783.7 167.2
L 763.25 167.2 Z"/>
</g>

<g id="Layer6_0_FILL">
<path fill="#333333" stroke="none" d="
M 527.15 829.9
L 496.85 829.9 473.6 984.75
Q 476.65 984.95 479.7 985.15 495.65 986.1 512 986.1 516.35 986.1 520.65 986.05 532.6 985.85 544.3 985.15 547.35 984.95 550.4 984.75
L 527.15 829.9
M 463.95 746.9
L 485.85 764.8 496.85 829.9 527.15 829.9 538.15 764.8 560.05 746.9 548.35 714.9 512 764.9 512.05 764.8 512 764.8 475.65 714.9 463.95 746.9 Z"/>

<path fill="#CCCCCC" stroke="none" d="
M 512 764.8
L 490.2 675.05 475.65 714.9 512 764.8
M 512.05 764.8
L 512 764.9 548.35 714.9 533.8 675.05 512.05 764.8
M 250.85 647.65
L 176.85 684.75 154.55 822.05
Q 157.35 825.25 160.2 828.4 169.25 838.4 178.95 848.1 187.15 856.3 195.55 864 207.4 874.9 219.65 884.8
L 250.85 647.65
M 847.15 684.75
L 773.15 647.65 804.35 884.8
Q 820.7 871.5 836.35 856.55 840.65 852.4 844.95 848.1 854.7 838.35 863.8 828.35 866.65 825.2 869.45 822
L 847.15 684.75 Z"/>

<path fill="#FFFFFF" stroke="none" d="
M 646.8 615.2
Q 646.95 614.8 647.1 614.4 646.7 614.35 646.4 614.35
L 625.9 572.3
Q 589.85 631.65 533.8 675.05
L 548.35 714.9 560.05 746.9 567.8 768.05
Q 617.7 693.7 646.8 615.2
M 446.45 753.2
Q 451.2 760.65 456.2 768.05
L 463.95 746.9 475.65 714.9 490.2 675.05
Q 432.15 630.1 395.55 568.05
L 376.85 614.2
Q 403.1 685.4 446.45 753.2
M 376.85 614.2
Q 370.85 614.5 364.85 615.1
L 250.85 647.65 219.65 884.8
Q 222.1 886.75 224.55 888.7 242.9 903.2 262.15 915.5 357 976.25 473.6 984.75
L 496.85 829.9 485.85 764.8 463.95 746.9 456.2 768.05
Q 451.2 760.65 446.45 753.2 403.1 685.4 376.85 614.2
M 148.7 698.9
Q 145.3 701.05 141.95 703.25 134.15 703.75 126.75 704.65 114 706.15 102.4 708.8 92.55 711 83.55 714.05 92.1 732.3 102.4 749.9 105.7 755.55 109.2 761.15 129 792.8 154.55 822.05
L 176.85 684.75 161.35 690.9
Q 155.05 694.8 148.7 698.9
M 854.2 687.55
L 847.15 684.75 869.45 822
Q 884.75 804.45 898.05 786.05 909.25 770.45 919 754.35 921.85 749.55 924.6 744.7 931.4 732.75 937.4 720.5
L 898.65 705.2
Q 891.6 704.2 884.3 703.65 883.9 703.6 883.5 703.6 881.25 703.4 878.95 703.25 866.5 695 854.2 687.55
M 773.15 647.65
L 660.95 615.6
Q 654 614.85 647.1 614.4 646.95 614.8 646.8 615.2 617.7 693.7 567.8 768.05
L 560.05 746.9 538.15 764.8 527.15 829.9 550.4 984.75
Q 567.85 983.5 584.8 981.05 704.1 963.85 799.45 888.7 801.9 886.75 804.35 884.8
L 773.15 647.65 Z"/>

<path fill="#F2C2A9" stroke="none" d="
M 615.4 485.6
L 510.45 486.6 405.4 485.6 395.55 568.05
Q 432.15 630.1 490.2 675.05
L 512 764.8 512.05 764.8 533.8 675.05
Q 589.85 631.65 625.9 572.3
L 615.4 485.6 Z"/>
</g>

<g id="Layer3_0_FILL">
<path fill="#333333" stroke="none" d="
M 657.05 331.9
Q 657.25 320.45 656.65 309.2 656.15 299.75 655.05 291 644.75 211.95 584.95 186.85 579.1 184.2 572.7 182.4 549.25 175.25 519.3 175.2
L 512.95 175.2 512.95 175.15 512.45 175.15 505.2 175.15
Q 476.5 175.2 453.75 181.8 447.5 183.5 441.55 186 379.85 210.55 369.45 290.95 368.4 299.7 367.85 309.15 367.25 320.4 367.45 331.8 367.55 334.6 367.6 337.4 367.8 343.3 368.2 349.45 369 362.7 370.8 376.95 370.85 377.4 370.9 377.8 371 378.6 371.15 379.45 371.25 381.65 371.55 383.8
L 372.45 389.85 382.1 457.65 382.1 457.7 387.55 521.15
Q 390.55 547.05 402.9 562.1
L 470.65 625.1
Q 485 639.55 499.35 638.75
L 511.35 638.75 511.35 638.8 525.2 638.8
Q 539.5 639.65 553.85 625.15
L 621.6 562.15
Q 633.95 547.1 636.95 521.2
L 642.4 457.75 642.4 457.7 652.1 389.85 652.95 383.9 652.95 383.8
Q 653.25 381.65 653.35 379.5 653.5 378.65 653.6 377.8 653.65 377.4 653.7 377.05 655.55 362.7 656.35 349.45 656.75 343.3 656.9 337.4 656.95 334.65 657.05 331.9
M 620.65 400.9
L 613.15 417.8
Q 591.05 446.3 548.1 427.85
L 548.05 427.75
Q 547.75 427.55 547.3 427.3 542.75 423.55 541.7 422.35 541.05 421.45 540.65 421.05 540.55 420.9 540.45 420.85 540.45 420.8 540.35 420.7 540.25 420.6 540.15 420.55 540.05 420.45 539.8 420.25 539.75 420.2 539.65 420.15 539.85 420.1 540.05 420 542.75 418.95 545.45 417.95 546.65 417.3 547.85 416.65 549.3 416 550.8 415.5 555.5 413.9 560.15 412.3 561.35 412 562.45 411.65 564.2 411.1 565.6 410.75 565.65 410.75 565.75 410.7 566.05 410.65 566.4 410.5 567.8 410.15 569 409.85 574 408.45 576.95 407.7 577.6 407.45 578.2 407.35 579.6 406.9 580.35 406.75 580.85 406.6 581.05 406.55 582.2 406.2 583.4 405.95 586.5 405.15 589.7 404.5
L 620.65 400.9
M 474.85 415.5
Q 476.35 416 477.75 416.65 479 417.3 480.15 417.95 483.1 419 485.9 420.15 485.75 420.4 485.45 420.55 485.3 420.6 485.25 420.7 485.2 420.8 485.2 420.85 485 420.9 484.95 421.05 484.55 421.45 483.8 422.35 482.85 423.55 478.2 427.3 477.9 427.55 477.55 427.75
L 477.5 427.85
Q 434.55 446.3 412.4 417.8
L 404.85 400.9 435.9 404.5
Q 438.7 405.1 441.45 405.7 443.05 406.05 444.5 406.55 444.65 406.6 445.1 406.75 447.3 407.35 456.4 409.8 458 410.2 459.95 410.75 461.45 411.1 463.15 411.65 463.85 411.85 464.65 412.15 469.8 413.7 474.85 415.5 Z"/>
</g>

<g id="Layer0_0_FILL">
<path fill="#7C7C7C" stroke="none" d="
M 674.8 341.85
L 674.8 319
Q 674.8 318.45 674.8 317.85 674.8 250.4 627.15 202.7 579.45 155.05 512 155.05 444.55 155.05 396.85 202.7 349.2 250.4 349.2 317.85 349.2 318.4255859375 349.2 319
L 349.2 341.85 674.8 341.85
M 652.9 320.25
L 652.9 337.05 652.9 320.25
Q 653.1 310.5 644.5 311.25
L 379.6 311.25
Q 371 310.5 371.2 320.25
L 371.2 337.05 371.2 320.25
Q 371 310.5 379.6 311.25
L 644.5 311.25
Q 653.1 310.5 652.9 320.25
M 438 232
L 434 243 438 232
M 663 539.3
L 663 475.5 361 475.5 361 539.3
Q 428.8240234375 595.2900390625 511.9 593.15 511.9998046875 593.1775390625 512.1 593.15 595.1818359375 595.282421875 663 539.3
M 568.75 535.25
L 586 545 568.75 535.25
M 617.3 498
L 612.8 506 617.3 498 Z"/>

<path fill="#999999" stroke="none" d="
M 686 341.85
L 674.8 341.85 349.2 341.85 338 341.85 338 461.65
Q 337.75 475.9 347 475.5
L 361 475.5 663 475.5 677 475.5
Q 686.25 475.9 686 461.65
L 686 341.85
M 651.55 395.3
L 651.55 426.3
Q 651.55 441.65 641.55 441.65
L 382.45 441.65
Q 372.45 441.65 372.45 426.3
L 372.45 395.3
Q 372.45 379.9 382.45 379.9
L 641.55 379.9
Q 651.55 379.9 651.55 395.3
M 655.3 363
L 664 376.4 655.3 363 Z"/>

<path fill="#333333" stroke="none" d="
M 651.55 426.3
L 651.55 395.3
Q 651.55 379.9 641.55 379.9
L 382.45 379.9
Q 372.45 379.9 372.45 395.3
L 372.45 426.3
Q 372.45 441.65 382.45 441.65
L 641.55 441.65
Q 651.55 441.65 651.55 426.3 Z"/>
</g>

<path id="Layer7_0_1_STROKES" stroke="#333333" stroke-width="8" stroke-linejoin="round" stroke-linecap="round" fill="none" d="
M 741 167.2
L 763.25 167.2 783.7 167.2"/>

<path id="Layer7_0_2_STROKES" stroke="#333333" stroke-width="16" stroke-linejoin="round" stroke-linecap="round" fill="none" d="
M 773.2 138.6
L 773.2 163.6"/>

<path id="Layer6_0_1_STROKES" stroke="#0000FF" stroke-width="0.1" stroke-linejoin="round" stroke-linecap="round" fill="none" d="
M 1044.6 874.6
Q 1044.95 874.4 1045.35 874.2"/>

<path id="Layer6_0_2_STROKES" stroke="#000000" stroke-opacity="0.2" stroke-width="8" stroke-linejoin="round" stroke-linecap="round" fill="none" d="
M 560.05 746.9
L 567.8 768.05
Q 617.7 693.7 646.8 615.2 646.95 614.8 647.1 614.4
M 463.95 746.9
L 456.2 768.05
Q 451.2 760.65 446.45 753.2 403.1 685.4 376.85 614.2
M 496.85 829.9
L 527.15 829.9"/>

<path id="Layer2_0_1_STROKES" stroke="#000000" stroke-opacity="0.2" stroke-width="8" stroke-linejoin="round" stroke-linecap="round" fill="none" d="
M 499.4 490.95
Q 513.95 495.45 526.7 490.95
M 452.15 535.25
Q 511.45 524.8 568.75 535.25"/>

<path id="Layer0_0_1_STROKES" stroke="#000000" stroke-opacity="0.2" stroke-width="8" stroke-linejoin="round" stroke-linecap="round" fill="none" d="
M 371.2 337.05
L 371.2 320.25
Q 371 310.5 379.6 311.25
L 644.5 311.25
Q 653.1 310.5 652.9 320.25
L 652.9 337.05
M 655.3 363
L 664 376.4
M 438 232
L 434 243
M 617.3 498
L 612.8 506
M 568.75 535.25
L 586 545"/>
</defs>

<g transform="matrix( 1, 0, 0, 1, 0,0) ">
<use xlink:href="#Layer10_0_FILL"/>
</g>

<g transform="matrix( 1, 0, 0, 1, 0,0) ">
<use xlink:href="#Layer9_0_FILL"/>
</g>

<g transform="matrix( 1, 0, 0, 1, 0,0) ">
<use xlink:href="#Layer8_0_FILL"/>
</g>

<g transform="matrix( 1, 0, 0, 1, 0,0) ">
<use xlink:href="#Layer7_0_FILL"/>

<use xlink:href="#Layer7_0_1_STROKES"/>

<use xlink:href="#Layer7_0_2_STROKES"/>
</g>

<g transform="matrix( 1, 0, 0, 1, 0,0) ">
<use xlink:href="#Layer6_0_FILL"/>

<use xlink:href="#Layer6_0_1_STROKES"/>

<use xlink:href="#Layer6_0_2_STROKES"/>
</g>

<g transform="matrix( 1, 0, 0, 1, 0,0) ">
<use xlink:href="#Layer3_0_FILL"/>
</g>

<g transform="matrix( 1, 0, 0, 1, 0,0) ">
<use xlink:href="#Layer2_0_1_STROKES"/>
</g>

<g transform="matrix( 1, 0, 0, 1, 0,0) ">
<use xlink:href="#Layer0_0_FILL"/>

<use xlink:href="#Layer0_0_1_STROKES"/>
</g>
</svg>
