<?xml version="1.0" encoding="utf-8"?>
<!-- Generator: flash2svg, http://dissentgraphics.com/tools/flash2svg -->
<svg xmlns:xlink="http://www.w3.org/1999/xlink" id="RuneScape" image-rendering="optimizeSpeed" baseProfile="basic" version="1.1" style="background-color:#ffffff" x="0px" y="0px" width="1024px" height="1024px" viewBox="0 0 1024 1024" enable-background="new 0 0 1024 1024" xmlns="http://www.w3.org/2000/svg">
  <defs transform="matrix(1 0 0 1 0 0) ">
    <linearGradient gradientUnits="userSpaceOnUse" color-interpolation="sRGB" x1="2349.502" y1="1778.714" x2="2349.502" y2="-595.027" id="linearGradient9">
      <stop stop-color="#FFFFFF" stop-opacity="1" offset="0"/>
      <stop stop-color="#FFE800" stop-opacity="1" offset="0.20784"/>
      <stop stop-color="#FF0000" stop-opacity="1" offset="0.54902"/>
      <stop stop-color="#000000" stop-opacity="1" offset="1"/>
    </linearGradient>
    <linearGradient gradientUnits="userSpaceOnUse" color-interpolation="sRGB" x1="2185.307" y1="1778.714" x2="2185.307" y2="-595.027" id="linearGradient10">
      <stop stop-color="#FFFFFF" stop-opacity="1" offset="0"/>
      <stop stop-color="#FFE800" stop-opacity="1" offset="0.20784"/>
      <stop stop-color="#FF0000" stop-opacity="1" offset="0.54902"/>
      <stop stop-color="#000000" stop-opacity="1" offset="1"/>
    </linearGradient>
    <linearGradient gradientUnits="userSpaceOnUse" color-interpolation="sRGB" x1="1784.192" y1="1839.651" x2="1784.192" y2="-924.313" id="linearGradient11">
      <stop stop-color="#FFFFFF" stop-opacity="1" offset="0"/>
      <stop stop-color="#FFE800" stop-opacity="1" offset="0.24706"/>
      <stop stop-color="#FF0000" stop-opacity="1" offset="0.52941"/>
      <stop stop-color="#000000" stop-opacity="1" offset="1"/>
    </linearGradient>
    <radialGradient gradientUnits="userSpaceOnUse" color-interpolation="sRGB" r="1339.073" cx="583.001" cy="3814.6" fx="583.001" fy="3814.6" gradientTransform="matrix(1 0 0 -1 0 5005.45)" id="radialGradient39">
      <stop stop-color="#FFFFFF" stop-opacity="1" offset="0"/>
      <stop stop-color="#FFE800" stop-opacity="1" offset="0.20784"/>
      <stop stop-color="#FF0000" stop-opacity="1" offset="0.54902"/>
      <stop stop-color="#000000" stop-opacity="1" offset="1"/>
    </radialGradient>
    <radialGradient gradientUnits="userSpaceOnUse" color-interpolation="sRGB" r="859.835" cx="844.701" cy="3323.1" fx="844.701" fy="3323.1" gradientTransform="matrix(1 0 0 -1 0 4350.15)" id="radialGradient40">
      <stop stop-color="#FFFFFF" stop-opacity="1" offset="0"/>
      <stop stop-color="#FFE800" stop-opacity="1" offset="0.20784"/>
      <stop stop-color="#FF0000" stop-opacity="1" offset="0.54902"/>
      <stop stop-color="#000000" stop-opacity="1" offset="1"/>
    </radialGradient>
    <radialGradient gradientUnits="userSpaceOnUse" color-interpolation="sRGB" r="1773.429" cx="-29.948" cy="4508.926" fx="-29.948" fy="4508.926" gradientTransform="matrix(1 0 0 -1 0 5931.25)" id="radialGradient41">
      <stop stop-color="#FFFFFF" stop-opacity="1" offset="0"/>
      <stop stop-color="#FFE800" stop-opacity="1" offset="0.20784"/>
      <stop stop-color="#FF0000" stop-opacity="1" offset="0.54902"/>
      <stop stop-color="#000000" stop-opacity="1" offset="1"/>
    </radialGradient>
    <radialGradient gradientUnits="userSpaceOnUse" color-interpolation="sRGB" r="1339.073" cx="551.201" cy="3874.65" fx="551.201" fy="3874.65" gradientTransform="matrix(1 0 0 -1 0 5085.55)" id="radialGradient42">
      <stop stop-color="#FFFFFF" stop-opacity="1" offset="0"/>
      <stop stop-color="#FFE800" stop-opacity="1" offset="0.20784"/>
      <stop stop-color="#FF0000" stop-opacity="1" offset="0.54902"/>
      <stop stop-color="#000000" stop-opacity="1" offset="1"/>
    </radialGradient>
    <radialGradient gradientUnits="userSpaceOnUse" color-interpolation="sRGB" r="1339.073" cx="583.751" cy="4193.55" fx="583.751" fy="4193.55" gradientTransform="matrix(1 0 0 -1 0 5510.75)" id="radialGradient43">
      <stop stop-color="#FFFFFF" stop-opacity="1" offset="0"/>
      <stop stop-color="#FFE800" stop-opacity="1" offset="0.23529"/>
      <stop stop-color="#FF0000" stop-opacity="1" offset="0.63922"/>
      <stop stop-color="#000000" stop-opacity="1" offset="1"/>
    </radialGradient>
    <radialGradient gradientUnits="userSpaceOnUse" color-interpolation="sRGB" r="1339.073" cx="1117.201" cy="4762.65" fx="1117.201" fy="4762.65" gradientTransform="matrix(1 0 0 -1 0 6269.55)" id="radialGradient44">
      <stop stop-color="#FFFFFF" stop-opacity="1" offset="0"/>
      <stop stop-color="#FFE800" stop-opacity="1" offset="0.23529"/>
      <stop stop-color="#FF0000" stop-opacity="1" offset="0.63922"/>
      <stop stop-color="#000000" stop-opacity="1" offset="1"/>
    </radialGradient>
    <radialGradient gradientUnits="userSpaceOnUse" color-interpolation="sRGB" r="1182.7" cx="647.251" cy="5174.85" fx="647.251" fy="5174.85" gradientTransform="matrix(1 0 0 -1 0 6819.15)" id="radialGradient45">
      <stop stop-color="#FFFFFF" stop-opacity="1" offset="0"/>
      <stop stop-color="#FFFDE0" stop-opacity="1" offset="0.10588"/>
      <stop stop-color="#FFF359" stop-opacity="1" offset="0.55294"/>
      <stop stop-color="#FFEB00" stop-opacity="1" offset="0.85882"/>
      <stop stop-color="#FFE800" stop-opacity="1" offset="1"/>
    </radialGradient>
    <radialGradient gradientUnits="userSpaceOnUse" color-interpolation="sRGB" r="1182.7" cx="1187.501" cy="5086.35" fx="1187.501" fy="5086.35" gradientTransform="matrix(1 0 0 -1 0 6701.15)" id="radialGradient46">
      <stop stop-color="#FFFFFF" stop-opacity="1" offset="0"/>
      <stop stop-color="#FFFDE0" stop-opacity="1" offset="0.10588"/>
      <stop stop-color="#FFF359" stop-opacity="1" offset="0.55294"/>
      <stop stop-color="#FFEB00" stop-opacity="1" offset="0.85882"/>
      <stop stop-color="#FFE800" stop-opacity="1" offset="1"/>
    </radialGradient>
    <radialGradient gradientUnits="userSpaceOnUse" color-interpolation="sRGB" r="1182.7" cx="1270.651" cy="5094.25" fx="1270.651" fy="5094.25" gradientTransform="matrix(1 0 0 -1 0 6711.65)" id="radialGradient47">
      <stop stop-color="#FFFFFF" stop-opacity="1" offset="0"/>
      <stop stop-color="#FFFDE0" stop-opacity="1" offset="0.10588"/>
      <stop stop-color="#FFF359" stop-opacity="1" offset="0.55294"/>
      <stop stop-color="#FFEB00" stop-opacity="1" offset="0.85882"/>
      <stop stop-color="#FFE800" stop-opacity="1" offset="1"/>
    </radialGradient>
    <radialGradient gradientUnits="userSpaceOnUse" color-interpolation="sRGB" r="753.277" cx="933.951" cy="3041.1" fx="933.951" fy="3041.1" gradientTransform="matrix(1 0 0 -1 0 3974.15)" id="radialGradient48">
      <stop stop-color="#FFFFFF" stop-opacity="1" offset="0"/>
      <stop stop-color="#FFE800" stop-opacity="1" offset="0.23529"/>
      <stop stop-color="#FF0000" stop-opacity="1" offset="0.63922"/>
      <stop stop-color="#000000" stop-opacity="1" offset="1"/>
    </radialGradient>
    <radialGradient gradientUnits="userSpaceOnUse" color-interpolation="sRGB" r="753.277" cx="443.101" cy="3379.2" fx="443.101" fy="3379.2" gradientTransform="matrix(1 0 0 -1 0 4424.95)" id="radialGradient49">
      <stop stop-color="#FFFFFF" stop-opacity="1" offset="0"/>
      <stop stop-color="#FFE800" stop-opacity="1" offset="0.23529"/>
      <stop stop-color="#FF0000" stop-opacity="1" offset="0.63922"/>
      <stop stop-color="#000000" stop-opacity="1" offset="1"/>
    </radialGradient>
    <radialGradient gradientUnits="userSpaceOnUse" color-interpolation="sRGB" r="753.277" cx="969.951" cy="2671.95" fx="969.951" fy="2671.95" gradientTransform="matrix(1 0 0 -1 0 3481.95)" id="radialGradient50">
      <stop stop-color="#FFFFFF" stop-opacity="1" offset="0"/>
      <stop stop-color="#FFE800" stop-opacity="1" offset="0.23529"/>
      <stop stop-color="#FF0000" stop-opacity="1" offset="0.63922"/>
      <stop stop-color="#000000" stop-opacity="1" offset="1"/>
    </radialGradient>
    <radialGradient gradientUnits="userSpaceOnUse" color-interpolation="sRGB" r="753.277" cx="1179.101" cy="3331.2" fx="1179.101" fy="3331.2" gradientTransform="matrix(1 0 0 -1 0 4360.95)" id="radialGradient51">
      <stop stop-color="#FFFFFF" stop-opacity="1" offset="0"/>
      <stop stop-color="#FFE800" stop-opacity="1" offset="0.23529"/>
      <stop stop-color="#FF0000" stop-opacity="1" offset="0.63922"/>
      <stop stop-color="#000000" stop-opacity="1" offset="1"/>
    </radialGradient>
    <radialGradient gradientUnits="userSpaceOnUse" color-interpolation="sRGB" r="988.672" cx="1133.701" cy="3433.5" fx="1133.701" fy="3433.5" gradientTransform="matrix(1 0 0 -1 0 4497.35)" id="radialGradient52">
      <stop stop-color="#FFFFFF" stop-opacity="1" offset="0"/>
      <stop stop-color="#FFE800" stop-opacity="1" offset="0.23529"/>
      <stop stop-color="#FF0000" stop-opacity="1" offset="0.63922"/>
      <stop stop-color="#000000" stop-opacity="1" offset="1"/>
    </radialGradient>
    <radialGradient gradientUnits="userSpaceOnUse" color-interpolation="sRGB" r="1339.073" cx="988.251" cy="3602.95" fx="988.251" fy="3602.95" gradientTransform="matrix(1 0 0 -1 0 4723.25)" id="radialGradient53">
      <stop stop-color="#FFFFFF" stop-opacity="1" offset="0"/>
      <stop stop-color="#FFE800" stop-opacity="1" offset="0.23529"/>
      <stop stop-color="#FF0000" stop-opacity="1" offset="0.59608"/>
      <stop stop-color="#000000" stop-opacity="1" offset="1"/>
    </radialGradient>
    <radialGradient gradientUnits="userSpaceOnUse" color-interpolation="sRGB" r="836.925" cx="1281.501" cy="3014.7" fx="1281.501" fy="3014.7" gradientTransform="matrix(1 0 0 -1 0 3938.95)" id="radialGradient54">
      <stop stop-color="#FFFFFF" stop-opacity="1" offset="0"/>
      <stop stop-color="#FFE800" stop-opacity="1" offset="0.23529"/>
      <stop stop-color="#FF0000" stop-opacity="1" offset="0.59608"/>
      <stop stop-color="#000000" stop-opacity="1" offset="1"/>
    </radialGradient>
    <radialGradient gradientUnits="userSpaceOnUse" color-interpolation="sRGB" r="836.925" cx="554.301" cy="2871.75" fx="554.301" fy="2871.75" gradientTransform="matrix(1 0 0 -1 0 3748.35)" id="radialGradient55">
      <stop stop-color="#FFFFFF" stop-opacity="1" offset="0"/>
      <stop stop-color="#FFE800" stop-opacity="1" offset="0.23529"/>
      <stop stop-color="#FF0000" stop-opacity="1" offset="0.59608"/>
      <stop stop-color="#000000" stop-opacity="1" offset="1"/>
    </radialGradient>
    <radialGradient gradientUnits="userSpaceOnUse" color-interpolation="sRGB" r="1004.267" cx="987.336" cy="3417.682" fx="987.336" fy="3417.682" gradientTransform="matrix(1 0 0 -1 0 4476.25)" id="radialGradient56">
      <stop stop-color="#FFFFFF" stop-opacity="1" offset="0"/>
      <stop stop-color="#FFE800" stop-opacity="1" offset="0.23529"/>
      <stop stop-color="#FF0000" stop-opacity="1" offset="0.61961"/>
      <stop stop-color="#000000" stop-opacity="1" offset="1"/>
    </radialGradient>
    <radialGradient gradientUnits="userSpaceOnUse" color-interpolation="sRGB" r="920.585" cx="607.001" cy="3855.85" fx="607.001" fy="3855.85" gradientTransform="matrix(1 0 0 -1 0 5060.45)" id="radialGradient57">
      <stop stop-color="#FFFFFF" stop-opacity="1" offset="0"/>
      <stop stop-color="#FFE800" stop-opacity="1" offset="0.23529"/>
      <stop stop-color="#FF0000" stop-opacity="1" offset="0.63922"/>
      <stop stop-color="#000000" stop-opacity="1" offset="1"/>
    </radialGradient>
    <radialGradient gradientUnits="userSpaceOnUse" color-interpolation="sRGB" r="2146.482" cx="-2020.248" cy="-878.148" fx="-2020.248" fy="-878.148" gradientTransform="matrix(-1 0 0 1 -2705.399 0.25)" id="radialGradient58">
      <stop stop-color="#FFFFFF" stop-opacity="1" offset="0"/>
      <stop stop-color="#FFE800" stop-opacity="1" offset="0.23529"/>
      <stop stop-color="#FF0000" stop-opacity="1" offset="0.7098"/>
      <stop stop-color="#000000" stop-opacity="1" offset="1"/>
    </radialGradient>
    <radialGradient gradientUnits="userSpaceOnUse" color-interpolation="sRGB" r="920.585" cx="1145.201" cy="3940.95" fx="1145.201" fy="3940.95" gradientTransform="matrix(1 0 0 -1 0 5173.95)" id="radialGradient59">
      <stop stop-color="#FFFFFF" stop-opacity="1" offset="0"/>
      <stop stop-color="#FFE800" stop-opacity="1" offset="0.23529"/>
      <stop stop-color="#FF0000" stop-opacity="1" offset="0.63922"/>
      <stop stop-color="#000000" stop-opacity="1" offset="1"/>
    </radialGradient>
    <radialGradient gradientUnits="userSpaceOnUse" color-interpolation="sRGB" r="920.585" cx="845.601" cy="4046.8" fx="845.601" fy="4046.8" gradientTransform="matrix(1 0 0 -1 0 5315.05)" id="radialGradient60">
      <stop stop-color="#FFFFFF" stop-opacity="1" offset="0"/>
      <stop stop-color="#FFE800" stop-opacity="1" offset="0.23529"/>
      <stop stop-color="#FF0000" stop-opacity="1" offset="0.63922"/>
      <stop stop-color="#000000" stop-opacity="1" offset="1"/>
    </radialGradient>
    <radialGradient gradientUnits="userSpaceOnUse" color-interpolation="sRGB" r="920.585" cx="483.551" cy="3860.8" fx="483.551" fy="3860.8" gradientTransform="matrix(1 0 0 -1 0 5067.05)" id="radialGradient61">
      <stop stop-color="#FFFFFF" stop-opacity="1" offset="0"/>
      <stop stop-color="#FFE800" stop-opacity="1" offset="0.23529"/>
      <stop stop-color="#FF0000" stop-opacity="1" offset="0.63922"/>
      <stop stop-color="#000000" stop-opacity="1" offset="1"/>
    </radialGradient>
    <radialGradient gradientUnits="userSpaceOnUse" color-interpolation="sRGB" r="920.585" cx="1379.551" cy="4088.85" fx="1379.551" fy="4088.85" gradientTransform="matrix(1 0 0 -1 0 5371.15)" id="radialGradient62">
      <stop stop-color="#FFFFFF" stop-opacity="1" offset="0"/>
      <stop stop-color="#FFE800" stop-opacity="1" offset="0.23529"/>
      <stop stop-color="#FF0000" stop-opacity="1" offset="0.63922"/>
      <stop stop-color="#000000" stop-opacity="1" offset="1"/>
    </radialGradient>
    <radialGradient gradientUnits="userSpaceOnUse" color-interpolation="sRGB" r="920.585" cx="391.601" cy="4118.85" fx="391.601" fy="4118.85" gradientTransform="matrix(1 0 0 -1 0 5411.15)" id="radialGradient63">
      <stop stop-color="#FFFFFF" stop-opacity="1" offset="0"/>
      <stop stop-color="#FFE800" stop-opacity="1" offset="0.23529"/>
      <stop stop-color="#FF0000" stop-opacity="1" offset="0.63922"/>
      <stop stop-color="#000000" stop-opacity="1" offset="1"/>
    </radialGradient>
    <radialGradient gradientUnits="userSpaceOnUse" color-interpolation="sRGB" r="920.585" cx="347.601" cy="4004.85" fx="347.601" fy="4004.85" gradientTransform="matrix(1 0 0 -1 0 5259.15)" id="radialGradient64">
      <stop stop-color="#FFFFFF" stop-opacity="1" offset="0"/>
      <stop stop-color="#FFE800" stop-opacity="1" offset="0.23529"/>
      <stop stop-color="#FF0000" stop-opacity="1" offset="0.63922"/>
      <stop stop-color="#000000" stop-opacity="1" offset="1"/>
    </radialGradient>
    <radialGradient gradientUnits="userSpaceOnUse" color-interpolation="sRGB" r="1726.131" cx="-238.649" cy="-687.559" fx="-238.649" fy="-687.559" gradientTransform="matrix(-1 -0.017 -0.017 1 -338.349 -2.799)" id="radialGradient65">
      <stop stop-color="#FFFFFF" stop-opacity="1" offset="0"/>
      <stop stop-color="#FFE800" stop-opacity="1" offset="0.23529"/>
      <stop stop-color="#FF0000" stop-opacity="1" offset="0.63922"/>
      <stop stop-color="#000000" stop-opacity="1" offset="1"/>
    </radialGradient>
    <radialGradient gradientUnits="userSpaceOnUse" color-interpolation="sRGB" r="920.585" cx="931.201" cy="4006.95" fx="931.201" fy="4006.95" gradientTransform="matrix(1 0 0 -1 0 5261.95)" id="radialGradient66">
      <stop stop-color="#FFFFFF" stop-opacity="1" offset="0"/>
      <stop stop-color="#FFE800" stop-opacity="1" offset="0.23529"/>
      <stop stop-color="#FF0000" stop-opacity="1" offset="0.63922"/>
      <stop stop-color="#000000" stop-opacity="1" offset="1"/>
    </radialGradient>
    <radialGradient gradientUnits="userSpaceOnUse" color-interpolation="sRGB" r="920.585" cx="457.201" cy="3754.95" fx="457.201" fy="3754.95" gradientTransform="matrix(1 0 0 -1 0 4925.95)" id="radialGradient67">
      <stop stop-color="#FFFFFF" stop-opacity="1" offset="0"/>
      <stop stop-color="#FFE800" stop-opacity="1" offset="0.23529"/>
      <stop stop-color="#FF0000" stop-opacity="1" offset="0.63922"/>
      <stop stop-color="#000000" stop-opacity="1" offset="1"/>
    </radialGradient>
    <radialGradient gradientUnits="userSpaceOnUse" color-interpolation="sRGB" r="2071.333" cx="1711.001" cy="5896.1" fx="1711.001" fy="5896.1" gradientTransform="matrix(1 0 0 -1 0 7780.75)" id="radialGradient68">
      <stop stop-color="#FFFFFF" stop-opacity="1" offset="0"/>
      <stop stop-color="#FFE800" stop-opacity="1" offset="0.23529"/>
      <stop stop-color="#FF0000" stop-opacity="1" offset="0.63922"/>
      <stop stop-color="#000000" stop-opacity="1" offset="1"/>
    </radialGradient>
    <radialGradient gradientUnits="userSpaceOnUse" color-interpolation="sRGB" r="2416.538" cx="1589.701" cy="6384.75" fx="1589.701" fy="6384.75" gradientTransform="matrix(1 0 0 -1 0 8432.25)" id="radialGradient69">
      <stop stop-color="#FFFFFF" stop-opacity="1" offset="0"/>
      <stop stop-color="#FFE800" stop-opacity="1" offset="0.23529"/>
      <stop stop-color="#FF0000" stop-opacity="1" offset="0.63922"/>
      <stop stop-color="#000000" stop-opacity="1" offset="1"/>
    </radialGradient>
    <radialGradient gradientUnits="userSpaceOnUse" color-interpolation="sRGB" r="1339.073" cx="551.201" cy="3874.65" fx="551.201" fy="3874.65" gradientTransform="matrix(1 0 0 -1 0 5085.55)" id="radialGradient70">
      <stop stop-color="#FFFFFF" stop-opacity="1" offset="0"/>
      <stop stop-color="#FFE800" stop-opacity="1" offset="0.28627"/>
      <stop stop-color="#FF0000" stop-opacity="1" offset="0.6"/>
      <stop stop-color="#000000" stop-opacity="1" offset="1"/>
    </radialGradient>
    <radialGradient gradientUnits="userSpaceOnUse" color-interpolation="sRGB" r="1339.073" cx="551.201" cy="3874.65" fx="551.201" fy="3874.65" gradientTransform="matrix(1 0 0 -1 0 5085.55)" id="radialGradient71">
      <stop stop-color="#FFFFFF" stop-opacity="1" offset="0"/>
      <stop stop-color="#FFE800" stop-opacity="1" offset="0.20784"/>
      <stop stop-color="#FF0000" stop-opacity="1" offset="0.54902"/>
      <stop stop-color="#000000" stop-opacity="1" offset="1"/>
    </radialGradient>
    <radialGradient gradientUnits="userSpaceOnUse" color-interpolation="sRGB" r="1549.973" cx="1126.868" cy="5711.08" fx="1126.868" fy="5711.08" gradientTransform="matrix(1 0 0 -1 0 7534.05)" id="radialGradient72">
      <stop stop-color="#FFFFFF" stop-opacity="1" offset="0"/>
      <stop stop-color="#FFFDD7" stop-opacity="1" offset="0.11373"/>
      <stop stop-color="#FFF784" stop-opacity="1" offset="0.36078"/>
      <stop stop-color="#FFF134" stop-opacity="1" offset="0.58431"/>
      <stop stop-color="#FFEC00" stop-opacity="1" offset="0.76863"/>
      <stop stop-color="#FFE900" stop-opacity="1" offset="0.91373"/>
      <stop stop-color="#FFE800" stop-opacity="1" offset="1"/>
    </radialGradient>
    <radialGradient gradientUnits="userSpaceOnUse" color-interpolation="sRGB" r="999.001" cx="1307.551" cy="4869.25" fx="1307.551" fy="4869.25" gradientTransform="matrix(1 0 0 -1 0 6411.65)" id="radialGradient73">
      <stop stop-color="#FFFFFF" stop-opacity="1" offset="0"/>
      <stop stop-color="#FFFFFA" stop-opacity="1" offset="0.11765"/>
      <stop stop-color="#FFFEED" stop-opacity="1" offset="0.23922"/>
      <stop stop-color="#FFFDD6" stop-opacity="1" offset="0.36863"/>
      <stop stop-color="#FFFAB6" stop-opacity="1" offset="0.49804"/>
      <stop stop-color="#FFF78B" stop-opacity="1" offset="0.63137"/>
      <stop stop-color="#FFF351" stop-opacity="1" offset="0.76863"/>
      <stop stop-color="#FFED00" stop-opacity="1" offset="0.90196"/>
      <stop stop-color="#FFE800" stop-opacity="1" offset="1"/>
    </radialGradient>
    <radialGradient gradientUnits="userSpaceOnUse" color-interpolation="sRGB" r="999.001" cx="1367.901" cy="4679.05" fx="1367.901" fy="4679.05" gradientTransform="matrix(1 0 0 -1 0 6158.05)" id="radialGradient74">
      <stop stop-color="#FFFFFF" stop-opacity="1" offset="0"/>
      <stop stop-color="#FFFFFA" stop-opacity="1" offset="0.11765"/>
      <stop stop-color="#FFFEED" stop-opacity="1" offset="0.23922"/>
      <stop stop-color="#FFFDD6" stop-opacity="1" offset="0.36863"/>
      <stop stop-color="#FFFAB6" stop-opacity="1" offset="0.49804"/>
      <stop stop-color="#FFF78B" stop-opacity="1" offset="0.63137"/>
      <stop stop-color="#FFF351" stop-opacity="1" offset="0.76863"/>
      <stop stop-color="#FFED00" stop-opacity="1" offset="0.90196"/>
      <stop stop-color="#FFE800" stop-opacity="1" offset="1"/>
    </radialGradient>
    <radialGradient gradientUnits="userSpaceOnUse" color-interpolation="sRGB" r="999.001" cx="806.951" cy="4679.05" fx="806.951" fy="4679.05" gradientTransform="matrix(1 0 0 -1 0 6158.05)" id="radialGradient75">
      <stop stop-color="#FFFFFF" stop-opacity="1" offset="0"/>
      <stop stop-color="#FFFFFA" stop-opacity="1" offset="0.11765"/>
      <stop stop-color="#FFFEED" stop-opacity="1" offset="0.23922"/>
      <stop stop-color="#FFFDD6" stop-opacity="1" offset="0.36863"/>
      <stop stop-color="#FFFAB6" stop-opacity="1" offset="0.49804"/>
      <stop stop-color="#FFF78B" stop-opacity="1" offset="0.63137"/>
      <stop stop-color="#FFF351" stop-opacity="1" offset="0.76863"/>
      <stop stop-color="#FFED00" stop-opacity="1" offset="0.90196"/>
      <stop stop-color="#FFE800" stop-opacity="1" offset="1"/>
    </radialGradient>
    <radialGradient gradientUnits="userSpaceOnUse" color-interpolation="sRGB" r="874.11" cx="332.801" cy="4476" fx="332.801" fy="4476" gradientTransform="matrix(1 0 0 -1 0 5887.35)" id="radialGradient76">
      <stop stop-color="#FFFFFF" stop-opacity="1" offset="0"/>
      <stop stop-color="#FFFFFA" stop-opacity="1" offset="0.11765"/>
      <stop stop-color="#FFFEED" stop-opacity="1" offset="0.23922"/>
      <stop stop-color="#FFFDD6" stop-opacity="1" offset="0.36863"/>
      <stop stop-color="#FFFAB6" stop-opacity="1" offset="0.49804"/>
      <stop stop-color="#FFF78B" stop-opacity="1" offset="0.63137"/>
      <stop stop-color="#FFF351" stop-opacity="1" offset="0.76863"/>
      <stop stop-color="#FFED00" stop-opacity="1" offset="0.90196"/>
      <stop stop-color="#FFE800" stop-opacity="1" offset="1"/>
    </radialGradient>
    <radialGradient gradientUnits="userSpaceOnUse" color-interpolation="sRGB" r="1182.7" cx="1029.401" cy="5407.05" fx="1029.401" fy="5407.05" gradientTransform="matrix(1 0 0 -1 0 7128.75)" id="radialGradient77">
      <stop stop-color="#FFFFFF" stop-opacity="1" offset="0"/>
      <stop stop-color="#FFFFFB" stop-opacity="1" offset="0.13725"/>
      <stop stop-color="#FFFEEF" stop-opacity="1" offset="0.26667"/>
      <stop stop-color="#FFFDDC" stop-opacity="1" offset="0.38824"/>
      <stop stop-color="#FFFBC0" stop-opacity="1" offset="0.5098"/>
      <stop stop-color="#FFF89A" stop-opacity="1" offset="0.62745"/>
      <stop stop-color="#FFF56B" stop-opacity="1" offset="0.7451"/>
      <stop stop-color="#FFF021" stop-opacity="1" offset="0.85882"/>
      <stop stop-color="#FFEA00" stop-opacity="1" offset="0.97255"/>
      <stop stop-color="#FFE800" stop-opacity="1" offset="1"/>
    </radialGradient>
  </defs>
  <g id="shadow">
    <g id="shape">
      <path id="path" fill="#000000" fill-opacity="0.09803921568627451" d="M969.65,351.3 Q961.05,330.45 950.25,310.45 C946.2,302.9 941.9,295.4 937.35,288.05 917.8,256.35 893.95,226.4 865.8,198.25 773.65,106.1 662.35,60 532,60 401.65,60 290.4,106.1 198.25,198.25 106.1,290.4 60,401.65 60,532 60,662.35 106.1,773.65 198.25,865.8 290.4,957.95 401.65,1004 532,1004 662.35,1004 773.65,957.95 865.8,865.8 916.55,815 953.35,758.4 976.15,696.05 994.7,645.2 1004,590.55 1004,532 1004,487.1 998.55,444.45 987.6,404.05 986.35,399.5 985.05,394.95 983.7,390.45 979.6,377.15 974.9,364.1 969.65,351.3z"/>
    </g>
  </g>
  <g id="bg">
    <g id="shape2">
      <path id="path1" fill="#172025" fill-opacity="1" d="M969.75,394 C968.65,389.65 967.4,385 966.1,380.4 963.6,371.65 960.75,362.8 957.65,354.05 951.2,335.8 943.5,318 934.5,300.4 930.7,293 926.55,285.45 922.2,278 901.9,243.5 876.4,210.8 845.85,180.25 806.9,141.3 764.5,110.55 718.35,87.9 679.05,68.6 636.9,55.35 592.2,48.2 575.95,45.6 559.4,43.8 542.15,42.85 532.45,42.3 522.3,42 512.05,42 502.7,42 493.45,42.25 484.15,42.75 477.45,43.1 470.8,43.55 464.1,44.2 407.25,49.4 354.3,64 305.15,88.2 259.55,110.6 217.25,141.3 178.3,180.25 89.05,269.5 43,376.75 40.2,501.75 Q40.05,507.85 40.05,514 C40.05,644.35 86.15,755.65 178.3,847.8 263.55,933.05 365.15,978.85 483,985.2 483.35,985.25 483.75,985.25 484.15,985.3 484.3,985.3 484.4,985.3 484.55,985.3 493.05,985.75 501.15,986 509.05,986 510.25,986 511.15,986 512.05,986 522.35,986 532.55,985.7 542.15,985.2 544.65,985.05 546.9,984.9 549.1,984.75 569.3,983.3 589,980.7 607.8,977.05 615.75,975.5 623.6,973.75 631.2,971.9 712,951.6 783.35,910.3 845.85,847.8 851.95,841.7 857.85,835.55 863.35,829.5 903.2,785.65 933.1,737.9 953.2,686 962.3,662.55 969.35,638.25 974.5,612.95 979.7,587.15 982.8,560.3 983.75,532.5 983.95,526.45 984.05,520.25 984.05,514 984.05,513.35 984.05,512.65 984.05,512 984.05,511.65 984.05,511.35 984.05,511 984.05,507.9 984,504.8 983.95,501.65 983.1,464.45 978.4,428.65 969.75,394z"/>
    </g>
  </g>
  <mask id="back">
    <g id="g">
      <g id="shape43">
        <path id="path41" fill="#FFFFFF" fill-opacity="1" d="M969.75,394 C968.65,389.65 967.4,385 966.1,380.4 963.6,371.65 960.75,362.8 957.65,354.05 951.2,335.8 943.5,318 934.5,300.4 930.7,293 926.55,285.45 922.2,278 901.9,243.5 876.4,210.8 845.85,180.25 806.9,141.3 764.5,110.55 718.35,87.9 679.05,68.6 636.9,55.35 592.2,48.2 575.95,45.6 559.4,43.8 542.15,42.85 532.45,42.3 522.3,42 512.05,42 502.7,42 493.45,42.25 484.15,42.75 477.45,43.1 470.8,43.55 464.1,44.2 407.25,49.4 354.3,64 305.15,88.2 259.55,110.6 217.25,141.3 178.3,180.25 89.05,269.5 43,376.75 40.2,501.75 Q40.05,507.85 40.05,514 C40.05,644.35 86.15,755.65 178.3,847.8 263.55,933.05 365.15,978.85 483,985.2 483.35,985.25 483.75,985.25 484.15,985.3 484.3,985.3 484.4,985.3 484.55,985.3 493.05,985.75 501.15,986 509.05,986 510.25,986 511.15,986 512.05,986 522.35,986 532.55,985.7 542.15,985.2 544.65,985.05 546.9,984.9 549.1,984.75 569.3,983.3 589,980.7 607.8,977.05 615.75,975.5 623.6,973.75 631.2,971.9 712,951.6 783.35,910.3 845.85,847.8 851.95,841.7 857.85,835.55 863.35,829.5 903.2,785.65 933.1,737.9 953.2,686 962.3,662.55 969.35,638.25 974.5,612.95 979.7,587.15 982.8,560.3 983.75,532.5 983.95,526.45 984.05,520.25 984.05,514 984.05,513.35 984.05,512.65 984.05,512 984.05,511.65 984.05,511.35 984.05,511 984.05,507.9 984,504.8 983.95,501.65 983.1,464.45 978.4,428.65 969.75,394z"/>
      </g>
    </g>
  </mask>
  <g id="masked" mask="url(#back)">
    <g id=".__3CClip.__20Group.__3E">
      <g id="FlashAICB.__2Fflammes.__2F.__3CClip.__20Group.__3E_1" overflow="visible">
        <mask id="Calque.__209">
          <g id="g2">
            <g id="drawingObject50">
              <path id="path103" fill="#FFFFFF" fill-opacity="1" d="M2396.223,1367.203 L2396.223,-973.699 55.212,-973.699 55.212,1367.203 2396.223,1367.203z"/>
            </g>
          </g>
        </mask>
        <g id="masked2" mask="url(#Calque.__209)">
          <g id="Calque.__211">
            <g id="group12">
              <g id="drawingObject51">
                <path id="path104" fill="#9D241B" fill-opacity="1" d="M433.725,91.944 L453.234,67.234 C453.234,67.234 317.65,209.645 424.838,368.747 532.134,527.849 449.115,574.236 419.311,574.236 389.615,574.236 334.991,570.009 355.692,429.007 376.501,287.896 293.481,253.973 293.481,253.973 L306.162,261.451 L293.481,253.973 L298.467,266.22 L293.481,253.973 C293.481,253.973 329.464,321.71 287.195,424.78 Q255.115,503.247 272.456,575.537 290.122,649.452 352.223,683.483 L366.204,691.178 L352.223,683.483 C352.223,683.483 430.799,737.782 538.529,686.518 641.924,637.205 622.523,521.455 622.523,521.455 L623.932,540.313 L622.523,521.455 C602.148,613.686 540.371,621.056 566.708,547.249 649.727,332.765 503.522,211.488 503.522,211.488 L509.591,217.123 L503.522,211.488 C517.395,250.288 552.835,399.202 483.689,303.069 414.542,206.936 453.234,67.234 453.234,67.234 L448.248,90.535"/>
              </g>
              <g id="drawingObject52">
                <path id="path105" fill="#9D241B" fill-opacity="1" d="M2003.286,205.418 L2009.139,177.781 C2009.139,177.781 1848.736,346.204 1975.541,534.352 2102.346,722.5 2004.153,777.34 1969.038,777.34 1933.815,777.34 1869.22,772.355 1893.822,605.558 1918.316,438.652 1820.124,398.552 1820.124,398.552 L1835.08,407.439 L1820.124,398.552 L1825.976,412.966 L1820.124,398.552 C1820.124,398.552 1862.717,478.753 1812.862,600.681 Q1774.821,693.454 1795.305,778.858 1805.276,820.584 1828.794,852.881 1853.18,886.479 1889.704,906.529 L1906.178,915.633 L1889.704,906.529 C1889.704,906.529 1982.477,970.799 2110.041,910.106 2232.293,851.906 2209.209,714.913 2209.209,714.913 L2210.943,737.24 L2209.209,714.913 C2185.257,823.944 2112.208,832.614 2143.205,745.368 2241.397,491.867 2068.531,348.48 2068.531,348.48 L2075.793,355.091 L2068.531,348.48 C2084.897,394.217 2126.84,570.334 2045.121,456.644 1963.294,342.953 2009.139,177.781 2009.139,177.781"/>
              </g>
              <g id="drawingObject53">
                <path id="path106" fill="#C13024" fill-opacity="1" d="M1017.352,-19.037 L1011.5,-46.674 C1011.5,-46.674 1057.345,118.606 975.518,232.297 893.799,345.987 935.742,169.87 952.107,124.025 952.107,124.025 779.241,267.52 877.434,521.021 908.43,608.267 835.382,599.597 811.43,490.458 L809.696,512.784 L811.43,490.458 C811.43,490.458 788.345,627.451 910.598,685.759 1038.161,746.452 1130.935,682.183 1130.935,682.183 Q1167.459,662.132 1191.844,628.534 1215.363,596.237 1225.334,554.511 1245.818,469.107 1207.885,376.225 C1157.921,254.406 1200.515,174.205 1200.515,174.205 L1194.662,188.619 L1200.515,174.205 C1200.515,174.205 1102.322,214.306 1126.816,381.211 1151.418,548.008 1086.824,552.885 1051.6,552.885 1016.485,552.885 918.293,498.153 1045.098,310.005 1171.902,121.857 1011.5,-46.674 1011.5,-46.674 L1018.111,-39.087"/>
              </g>
              <g id="group13">
                <g id="drawingObject54">
                  <path id="path107" fill="#C13024" fill-opacity="1" d="M1371.372,-437.984 C1371.372,-437.984 1459.051,-121.514 1302.442,96.33 1145.724,314.065 1226.142,-23.322 1257.573,-111.11 1257.573,-111.11 926.471,163.634 1114.402,649.285 1174.012,816.407 1033.984,799.717 988.031,590.76 L987.814,592.06 C969.173,519.229 937.851,463.955 892.548,441.52 L895.583,446.614 L892.548,441.52 C892.548,441.52 967.981,548.166 888.213,819.659 811.263,1081.288 668.31,953.725 740.925,663.591 813.431,373.349 571.635,217.282 571.635,217.282 L581.931,224.543 L571.635,217.282 C650.752,344.845 663.975,415.184 523.297,755.931 494.468,825.619 479.295,888.805 473.117,945.38 470.516,937.901 467.915,930.423 464.88,923.053 398.335,760.05 455.018,652.862 455.018,652.862 L447.214,672.153 L455.018,652.862 L449.49,655.571 L455.018,652.862 C455.018,652.862 324.095,706.51 356.825,929.556 389.556,1152.711 303.286,1159.322 256.357,1159.322 209.428,1159.322 78.397,1086.057 247.687,834.398 416.868,582.956 202.926,357.634 202.926,357.634 L211.813,367.822 L202.926,357.634 L210.729,394.483 L202.926,357.634 C202.926,357.634 264.052,578.513 154.805,730.57 45.774,882.627 101.699,647.117 123.591,585.883 L113.946,594.77 L123.591,585.883 C123.591,585.883 -107.042,777.607 23.99,1116.62 65.391,1233.346 -32.042,1221.64 -64.123,1075.761 L-66.399,1105.565 L-64.123,1075.761 C-64.123,1075.761 -94.795,1259.032 68.209,1336.849 126.626,1364.702 179.624,1372.722 223.951,1371.53 L2266.266,1371.53 C2310.594,1372.722 2363.483,1364.702 2421.9,1336.957 2585.121,1259.14 2554.341,1076.303 2554.341,1076.303 L2556.617,1106.107 L2554.341,1076.303 Q2543.178,1127.241 2521.177,1160.514 2502.102,1189.56 2482.702,1194.979 2463.843,1200.29 2457.991,1180.348 2451.596,1158.346 2466.228,1117.162 C2597.259,778.691 2366.518,587.292 2366.518,587.292 L2376.164,596.179 L2366.518,587.292 C2388.411,648.418 2444.443,883.494 2335.305,731.762 2226.057,580.03 2287.184,359.477 2287.184,359.477 L2279.38,396.326 L2287.184,359.477 C2287.184,359.477 2073.241,584.365 2242.531,835.482 2411.713,1086.599 2280.681,1159.647 2233.752,1159.647 2186.824,1159.647 2100.553,1153.144 2133.284,930.423 2166.123,707.81 2035.092,654.271 2035.092,654.271 L2040.619,656.98 L2035.092,654.271 L2038.126,660.773 L2035.092,654.271 C2035.092,654.271 2053.841,690.036 2057.093,751.487 2054.708,810.338 2033.574,911.131 1944.811,1052.676 1799.907,1283.634 1696.837,1122.148 1845.318,862.469 1993.69,602.79 1803.158,387.113 1803.158,387.113 L1811.07,396.868 L1803.158,387.113 C1827.327,470.566 1835.239,529.633 1793.404,620.998 1796.655,540.905 1781.591,455.501 1747.342,372.049 1651.751,138.598 1733.253,-14.977 1733.253,-14.977 L1721.981,12.66 L1733.253,-14.977 C1733.253,-14.977 1545.213,61.756 1592.25,381.369 1639.287,700.982 1515.517,710.411 1448.105,710.411 1380.801,710.411 1192.761,605.391 1435.641,245.136 1678.413,-115.228 1371.372,-437.984 1371.372,-437.984z"/>
                </g>
              </g>
              <g id="group14">
                <g id="drawingObject55">
                  <path id="path108" fill="#EF5331" fill-opacity="1" d="M474.093,681.907 C521.346,758.099 529.258,800.15 445.155,1003.796 428.031,1045.414 418.927,1083.131 415.242,1116.945 413.725,1112.502 412.099,1108.058 410.257,1103.615 370.59,1006.289 404.404,942.237 404.404,942.237 L399.744,953.725 L404.404,942.237 L392.482,949.281 L404.404,942.237 C404.404,942.237 326.154,974.317 345.771,1107.516 365.279,1240.824 313.798,1244.834 285.728,1244.834 257.658,1244.834 179.407,1201.048 280.526,1050.725 381.644,900.402 253.756,765.794 253.756,765.794 L272.181,789.204 L253.756,765.794 L258.416,787.795 L253.756,765.794 C253.756,765.794 290.28,897.801 225.035,988.623 159.899,1079.446 193.28,938.768 206.394,902.136 L200.65,907.446 L206.394,902.136 C206.394,902.136 68.534,1016.694 146.785,1219.364 171.604,1289.053 113.295,1282.008 94.22,1194.871 L92.92,1212.753 L94.22,1194.871 C94.22,1194.871 75.796,1304.335 173.338,1350.938 208.236,1367.412 239.883,1372.289 266.328,1371.53 L1486.688,1371.53 C1513.133,1372.289 1544.78,1367.412 1579.678,1350.938 1677.112,1304.443 1658.796,1195.196 1658.796,1195.196 L1660.096,1212.97 L1658.796,1195.196 Q1652.076,1225.651 1638.962,1245.484 1627.582,1262.825 1615.986,1266.076 1604.714,1269.328 1601.246,1257.406 1597.344,1244.184 1606.123,1219.581 C1684.374,1017.344 1546.622,903.003 1546.622,903.003 L1552.367,908.314 L1546.622,903.003 C1559.628,939.527 1593.118,1079.988 1527.873,989.382 1462.628,898.668 1499.152,766.877 1499.152,766.877 L1494.492,788.879 L1499.152,766.877 L1480.727,790.179 L1499.152,766.877 C1499.152,766.877 1371.372,901.269 1472.49,1051.267 1573.501,1201.373 1495.25,1245.051 1467.288,1245.051 1439.218,1245.051 1387.629,1241.149 1407.246,1108.058 1426.754,974.967 1348.504,942.995 1348.504,942.995 L1360.425,950.04 L1348.504,942.995 L1354.356,958.277 L1348.504,942.995 C1348.504,942.995 1359.775,964.454 1361.618,1001.087 1360.209,1036.31 1347.637,1096.57 1294.53,1181.106 1207.935,1319.074 1146.483,1222.616 1235.138,1067.416 1323.793,912.324 1209.994,783.351 1209.994,783.351 L1226.359,805.894 L1209.994,783.351 C1224.408,833.314 1229.069,868.646 1204.141,923.162 1206.092,875.366 1196.988,824.319 1176.613,774.356 1119.496,634.87 1168.159,543.181 1168.159,543.181 L1161.439,559.655 L1168.159,543.181 L1151.035,553.369 L1168.159,543.181 C1168.159,543.181 1055.877,589.026 1083.948,779.991 1112.018,970.957 1038.103,976.593 997.785,976.593 957.576,976.593 845.186,913.841 990.307,698.598 1135.428,483.247 951.941,290.438 951.941,290.438 L959.527,299.109 L951.941,290.438 L958.66,321.977 L951.941,290.438 C951.941,290.438 1004.397,479.562 910.756,609.618 817.116,739.782 865.237,538.195 883.878,485.739 L875.641,493.326 L883.878,485.739 C883.878,485.739 686.084,649.827 798.474,940.069 834.023,1039.887 750.354,1029.916 722.933,905.171 L722.825,905.929 C711.662,862.36 692.912,829.304 665.926,815.974 L672.212,828.437 L665.926,815.974 C665.926,815.974 710.903,879.701 663.216,1041.838 617.263,1198.122 531.859,1122.039 575.211,948.631 618.563,775.223 474.093,681.907 474.093,681.907z"/>
                </g>
              </g>
              <g id="group15">
                <g id="drawingObject56">
                  <path id="path109" fill="#9D241B" fill-opacity="1" d="M1634.194,471.433 C1634.194,471.433 1481.378,632.053 1602.221,811.313 1722.957,990.574 1629.425,1042.705 1595.935,1042.705 1562.446,1042.705 1500.886,1038.045 1524.296,879.051 1547.598,720.057 1454.174,681.907 1454.174,681.907 L1468.372,690.361 L1454.174,681.907 L1459.81,695.672 L1454.174,681.907 C1454.174,681.907 1494.708,758.315 1447.129,874.391 1430.114,915.9 1422.527,958.385 1424.153,998.269 1403.452,952.858 1407.354,923.487 1419.384,881.869 L1405.728,900.619 L1419.384,881.869 C1419.384,881.869 1324.552,989.165 1398.358,1118.354 1472.274,1247.543 1421.01,1327.853 1348.937,1212.97 1304.718,1142.631 1294.205,1092.451 1293.013,1063.189 1294.639,1032.626 1303.959,1014.851 1303.959,1014.851 L1299.082,1027.532 L1303.959,1014.851 L1293.988,1020.704 L1303.959,1014.851 C1303.959,1014.851 1238.823,1041.404 1255.08,1152.169 1271.445,1263.042 1228.527,1266.293 1205.117,1266.293 1181.815,1266.293 1116.678,1229.877 1200.781,1104.915 1284.993,980.061 1178.564,868.213 1178.564,868.213 L1193.845,887.613 L1178.564,868.213 L1182.465,886.529 L1178.564,868.213 C1178.564,868.213 1208.91,977.894 1154.612,1053.326 1100.313,1128.867 1128.167,1011.925 1139.113,981.47 L1122.206,999.028 L1139.113,981.47 C1139.113,981.47 1024.339,1076.736 1089.475,1245.051 Q1096.737,1265.534 1093.593,1276.481 1090.667,1286.452 1081.238,1283.851 1071.592,1281.033 1062.163,1266.618 1051.217,1250.036 1045.689,1224.783 L1044.606,1239.632 L1045.689,1224.783 C1045.689,1224.783 1030.408,1315.714 1111.585,1354.406 1140.63,1368.062 1166.967,1372.18 1188.968,1371.53 L2204.923,1371.53 C2227.033,1372.18 2253.369,1368.17 2282.415,1354.406 2363.592,1315.606 2348.31,1224.567 2348.31,1224.567 L2349.394,1239.415 L2348.31,1224.567 C2332.378,1297.073 2283.824,1302.817 2304.525,1244.834 2369.661,1076.194 2254.887,980.82 2254.887,980.82 L2271.794,998.377 L2254.887,980.82 C2265.725,1011.275 2293.578,1128.434 2239.28,1052.784 2184.981,977.135 2215.436,867.237 2215.436,867.237 L2211.535,885.554 L2215.436,867.237 C2215.436,867.237 2109.007,979.303 2193.218,1104.482 2277.321,1229.552 2212.185,1266.076 2188.775,1266.076 2165.473,1266.076 2122.554,1262.825 2138.92,1151.735 2155.177,1040.862 2089.932,1014.093 2089.932,1014.093 L2099.903,1020.053 L2089.932,1014.093 L2093.834,1023.738 L2089.932,1014.093 C2089.932,1014.093 2118.219,1067.416 2085.055,1148.484 L2081.045,1159.647 C2077.902,1131.468 2070.424,1100.038 2056.009,1065.356 1986.104,895.85 1992.607,860.843 2031.949,797.441 2031.949,797.441 1911.647,875.041 1947.846,1019.403 1983.828,1163.765 1912.839,1227.276 1874.472,1097.112 1834.805,962.07 1872.305,908.964 1872.305,908.964 L1867.102,919.368 L1872.305,908.964 C1849.762,920.127 1834.263,947.656 1824.943,983.854 L1824.834,983.204 C1801.966,1087.141 1732.386,1095.486 1761.974,1012.358 1855.506,770.779 1690.768,634.112 1690.768,634.112 L1697.704,640.506 L1690.768,634.112 C1706.375,677.789 1746.367,845.561 1668.442,737.181 1590.516,628.91 1634.194,471.433 1634.194,471.433z"/>
                </g>
              </g>
              <g id="group16">
                <path id="path110" fill="#EF5331" fill-opacity="1" d="M130.842,-1068.213 L142.439,-1073.958 C142.439,-1073.958 66.681,-1046.646 79.47,-951.488 79.47,-951.488 67.982,-961.351 52.808,-958.966 L63.971,-949.104 L52.808,-958.966 C52.808,-958.966 128.349,-906.944 87.707,-792.928 Q105.048,-804.308 120.438,-826.417 151.109,-870.528 141.03,-924.068 C125.206,-1008.713 164.006,-1011.856 164.006,-1011.856 L158.154,-1010.013 L164.006,-1011.856 C164.006,-1011.856 135.719,-1021.393 124.448,-988.771 124.448,-988.771 120.112,-1041.227 142.439,-1073.958 M-97.407,-995.057 C9.89,-1174.101 -125.802,-1334.395 -125.802,-1334.395 L-120.166,-1327.134 L-125.802,-1334.395 L-120.817,-1308.167 L-125.802,-1334.395 C-125.802,-1334.395 -87.002,-1177.244 -156.257,-1068.972 -225.403,-960.809 -189.855,-1128.364 -176.091,-1172.042 L-182.268,-1165.756 L-176.091,-1172.042 C-176.091,-1172.042 -322.404,-1035.483 -239.276,-794.228 -212.94,-711.101 -274.825,-719.446 -295.092,-823.274 L-296.501,-802.032 L-295.092,-823.274 C-295.092,-823.274 -314.6,-692.893 -211.097,-637.402 -103.259,-579.636 -24.683,-640.871 -24.683,-640.871 59.42,-692.568 82.613,-816.013 40.345,-931.98 -1.815,-1047.946 34.167,-1124.246 34.167,-1124.246 L29.181,-1110.482 L34.167,-1124.246 L21.486,-1115.792 L34.167,-1124.246 C34.167,-1124.246 -48.961,-1086.096 -28.152,-927.319 -7.343,-768.542 -62.075,-763.774 -91.879,-763.774 -121.575,-763.774 -204.703,-816.013 -97.407,-995.057z"/>
              </g>
              <g id="group17">
                <path id="path111" fill="#F38B34" fill-opacity="1" d="M287.569,-1209.965 L290.712,-1217.01 C225.251,-1170.732 225.251,-1126.079 245.193,-1075.791 265.135,-1025.502 229.261,-972.071 229.261,-972.071 320.192,-1035.04 324.96,-1083.703 296.24,-1129.981 Q278.249,-1158.918 282.692,-1190.891 284.101,-1200.861 287.569,-1209.965z M-398.802,-1154.366 L-394.575,-1161.628 C-466.648,-1111.773 -470.441,-1073.298 -447.681,-1036.666 -424.922,-999.925 -443.238,-967.736 -443.238,-967.736 -391.432,-1004.368 -391.432,-1039.809 -407.256,-1079.584 -422.971,-1119.36 -394.575,-1161.628 -394.575,-1161.628z M-249.454,-1351.185 L-254.873,-1362.998 C-254.873,-1362.998 -215.748,-1293.852 -260.726,-1226.873 -305.378,-1160.219 -289.446,-1096.491 -222.359,-1033.739 -222.359,-1033.739 -243.71,-1113.507 -201.659,-1157.726 -159.607,-1201.837 -152.237,-1238.036 -161.775,-1273.151 L-166.869,-1247.898 L-161.775,-1273.151 C-161.775,-1273.151 -169.253,-1216.685 -180.416,-1240.637 -191.579,-1264.589 -167.085,-1310.325 -254.873,-1362.998z"/>
                <path id="path112" fill="#E88F48" fill-opacity="1" d="M4.914,-1316.72 L-13.511,-1340.13 L-8.85,-1318.02 L-13.511,-1340.13 C-13.511,-1340.13 23.122,-1207.906 -42.34,-1116.867 -107.801,-1025.936 -74.204,-1166.83 -61.09,-1203.571 L-66.834,-1198.26 L-61.09,-1203.571 C-61.09,-1203.571 -199.491,-1088.688 -120.915,-885.8 -96.096,-815.895 -154.513,-822.94 -173.696,-910.186 L-173.805,-909.644 C-181.608,-940.207 -194.722,-963.184 -213.689,-972.613 L-209.245,-963.834 L-213.689,-972.613 C-213.689,-972.613 -182.15,-928.069 -215.531,-814.595 -247.612,-705.239 -307.329,-758.562 -277.091,-879.84 -246.745,-1001.117 -347.755,-1066.362 -347.755,-1066.362 L-332.473,-1054.223 L-347.755,-1066.362 C-314.699,-1013.039 -309.172,-983.668 -368.022,-841.256 -380.052,-812.102 -386.338,-785.657 -388.939,-762.03 -390.023,-765.173 -391.107,-768.316 -392.408,-771.351 -420.261,-839.414 -396.526,-884.283 -396.526,-884.283 L-399.777,-876.155 L-396.526,-884.283 L-404.871,-879.298 L-396.526,-884.283 C-396.526,-884.283 -451.258,-861.848 -437.602,-768.642 -423.838,-675.326 -459.928,-672.617 -479.545,-672.617 -499.162,-672.617 -553.894,-703.288 -483.122,-808.417 -412.458,-913.546 -501.872,-1007.728 -501.872,-1007.728 L-488.974,-991.363 L-501.872,-1007.728 L-498.62,-992.338 L-501.872,-1007.728 C-501.872,-1007.728 -476.294,-915.388 -521.922,-851.769 -567.441,-788.258 -544.14,-886.667 -535.036,-912.245 L-549.234,-897.506 L-535.036,-912.245 C-535.036,-912.245 -631.386,-832.152 -576.545,-690.499 -559.313,-641.728 -599.956,-646.606 -613.395,-707.515 L-614.37,-695.051 L-613.395,-707.515 C-613.395,-707.515 -626.292,-630.999 -558.121,-598.485 -533.735,-586.78 -511.626,-583.42 -493.093,-583.962 L360.401,-583.962 C378.934,-583.42 401.043,-586.78 425.429,-598.376 493.708,-630.89 480.811,-707.298 480.811,-707.298 L481.787,-694.835 L480.811,-707.298 C467.48,-646.497 426.729,-641.62 444.07,-690.283 498.802,-831.719 402.344,-911.703 402.344,-911.703 L416.542,-896.964 L402.344,-911.703 C411.448,-886.126 434.858,-787.933 389.23,-851.336 343.71,-914.738 369.18,-1006.861 369.18,-1006.861 L365.928,-991.471 L369.18,-1006.861 L356.282,-990.496 L369.18,-1006.861 C369.18,-1006.861 279.766,-912.895 350.538,-807.984 421.202,-703.072 366.47,-672.508 346.853,-672.508 327.236,-672.508 291.146,-675.218 304.91,-768.316 318.566,-861.307 263.834,-883.741 263.834,-883.741 L272.179,-878.756 L263.834,-883.741 L267.953,-873.012 L263.834,-883.741 C263.834,-883.741 271.637,-868.785 273.046,-843.099 271.963,-818.496 263.184,-776.337 226.118,-717.161 165.533,-620.703 122.506,-688.115 184.5,-796.712 246.493,-905.2 166.942,-995.373 166.942,-995.373 L178.431,-979.549 L166.942,-995.373 C177.022,-960.474 180.273,-935.764 162.824,-897.614 164.233,-931.103 157.838,-966.76 143.532,-1001.659 103.648,-1099.201 137.68,-1163.362 137.68,-1163.362 L133.019,-1151.765 L137.68,-1163.362 L125.758,-1156.209 L137.68,-1163.362 C137.68,-1163.362 59.104,-1131.281 78.721,-997.757 98.446,-864.124 46.64,-860.223 18.57,-860.223 -9.609,-860.223 -88.185,-904.117 13.259,-1054.657 114.811,-1205.305 -13.511,-1340.13 -13.511,-1340.13"/>
              </g>
              <g id="group18">
                <g id="drawingObject57">
                  <path id="path113" fill="url(#linearGradient9)" fill-opacity="1" d="M2374.105,779.341 C2374.105,779.341 2319.156,799.283 2328.477,868.321 2328.477,868.321 2320.131,861.06 2309.077,862.794 L2317.205,869.947 L2309.077,862.794 C2309.077,862.794 2363.917,900.619 2334.438,983.313 L2342.133,977.243 Q2351.236,969.115 2358.173,959.035 2380.391,927.063 2373.129,888.155 C2361.641,826.703 2389.82,824.427 2389.82,824.427 2389.82,824.427 2369.336,817.491 2361.099,841.226 2361.099,841.226 2357.956,803.185 2374.105,779.341z"/>
                </g>
                <g id="drawingObject58">
                  <path id="path114" fill="url(#linearGradient10)" fill-opacity="1" d="M2183.139,609.51 L2179.562,590.435 C2179.562,590.435 2207.633,704.451 2157.453,783.026 2107.164,861.493 2132.959,739.891 2143.038,708.244 2143.038,708.244 2036.934,807.303 2097.193,982.446 2116.268,1042.705 2071.399,1036.636 2056.659,961.311 L2055.576,976.701 L2056.659,961.311 C2056.659,961.311 2042.462,1055.927 2117.569,1096.136 2195.928,1138.079 2252.827,1093.752 2252.827,1093.752 Q2298.022,1065.898 2310.919,1005.53 2323.491,946.572 2300.081,882.411 C2269.409,798.308 2295.529,742.925 2295.529,742.925 L2291.953,752.896 L2295.529,742.925 C2295.529,742.925 2235.27,770.562 2250.335,885.879 2265.399,1001.087 2225.732,1004.447 2204.165,1004.447 2182.597,1004.447 2122.229,966.622 2200.155,836.674 2277.972,706.726 2179.562,590.435 2179.562,590.435 L2193.76,610.593"/>
                </g>
              </g>
              <g id="group19">
                <g id="drawingObject59">
                  <path id="path115" fill="#E88F48" fill-opacity="1" d="M1298.974,862.577 C1236.439,775.656 1271.445,649.285 1271.445,649.285 L1267.002,670.419 L1271.445,649.285 L1253.779,671.72 L1271.445,649.285 C1271.445,649.285 1148.867,778.149 1245.759,921.969 1342.759,1065.79 1267.652,1107.733 1240.774,1107.733 1213.895,1107.733 1164.474,1103.94 1183.224,976.376 1201.974,848.813 1126.975,818.141 1126.975,818.141 L1138.354,824.969 L1126.975,818.141 L1131.418,829.196 L1126.975,818.141 C1126.975,818.141 1159.489,879.484 1121.339,972.583 1107.683,1005.964 1101.614,1040.104 1102.914,1071.968 1086.224,1035.552 1089.475,1012.033 1099.013,978.652 L1088.066,993.717 L1099.013,978.652 C1099.013,978.652 1023.038,1064.706 1082.214,1168.426 1141.498,1272.146 1100.421,1336.632 1042.546,1244.4 1007.106,1187.826 998.653,1147.617 997.677,1124.098 998.978,1099.604 1006.456,1085.298 1006.456,1085.298 L1002.554,1095.486 L1006.456,1085.298 L998.544,1090.067 L1006.456,1085.298 C1006.456,1085.298 954.217,1106.649 967.222,1195.629 980.336,1284.501 945.871,1287.102 927.122,1287.102 908.372,1287.102 856.133,1257.948 923.653,1157.696 991.283,1057.445 905.771,967.597 905.771,967.597 L918.126,983.204 L905.771,967.597 L908.914,982.337 L905.771,967.597 C905.771,967.597 930.265,1055.71 886.587,1116.295 843.019,1176.771 865.453,1083.022 874.124,1058.528 L860.576,1072.618 L874.124,1058.528 C874.124,1058.528 782.001,1134.936 834.348,1270.086 Q840.201,1286.56 837.708,1295.339 835.324,1303.359 827.845,1301.191 820.042,1299.024 812.455,1287.427 803.677,1274.096 799.233,1253.829 L798.366,1265.751 L799.233,1253.829 C799.233,1253.829 786.878,1326.769 852.014,1357.874 875.316,1368.821 896.45,1372.072 914.224,1371.53 L1729.568,1371.53 C1747.234,1372.072 1768.368,1368.821 1791.67,1357.766 1856.806,1326.769 1844.559,1253.613 1844.559,1253.613 L1845.426,1265.534 L1844.559,1253.613 C1831.771,1311.813 1792.862,1316.473 1809.444,1269.87 1861.683,1134.503 1769.56,1057.986 1769.56,1057.986 L1783.108,1072.076 L1769.56,1057.986 C1778.339,1082.48 1800.665,1176.446 1757.097,1115.753 1713.528,1055.06 1737.913,966.839 1737.913,966.839 L1734.77,981.578 L1737.913,966.839 L1725.666,982.446 L1737.913,966.839 C1737.913,966.839 1652.51,1056.794 1720.031,1157.263 1787.551,1257.623 1735.312,1286.885 1716.562,1286.885 1697.813,1286.885 1663.456,1284.284 1676.462,1195.196 1689.576,1106.216 1637.228,1084.756 1637.228,1084.756 L1645.248,1089.525 L1637.228,1084.756 L1640.371,1092.451 L1637.228,1084.756 C1637.228,1084.756 1659.88,1127.567 1633.327,1192.595 L1630.075,1201.482 C1627.582,1178.939 1621.513,1153.686 1610.025,1125.941 1553.884,989.815 1559.086,961.745 1590.733,910.806 L1576.102,922.403 L1590.733,910.806 C1590.733,910.806 1494.166,973.125 1523.104,1088.983 1552.15,1204.842 1495.033,1255.78 1464.362,1151.302 1432.498,1042.922 1462.628,1000.328 1462.628,1000.328 L1458.401,1008.674 L1462.628,1000.328 C1444.528,1009.324 1432.065,1031.325 1424.586,1060.479 L1424.478,1059.937 C1406.162,1143.39 1350.238,1150.001 1374.081,1083.347 1449.08,889.455 1316.857,779.775 1316.857,779.775 L1322.384,784.869 L1316.857,779.775 C1329.429,814.781 1361.509,949.498 1298.974,862.577z"/>
                </g>
              </g>
              <g id="group20">
                <g id="drawingObject60">
                  <path id="path116" fill="url(#linearGradient11)" fill-opacity="1" d="M1793.512,732.413 L1791.345,706.293 C1791.345,706.293 1811.72,863.661 1744.416,962.937 1677.112,1062.213 1720.573,901.702 1735.746,860.41 1735.746,860.41 1637.878,947.33 1640.588,1123.882 1639.938,1133.094 1640.263,1142.848 1641.997,1152.927 1643.623,1175.254 1646.874,1198.881 1652.076,1223.7 1662.589,1279.515 1643.081,1291.871 1626.173,1263.258 1625.74,1254.046 1626.282,1242.775 1628.016,1228.902 1637.12,1156.721 1600.704,1139.488 1600.704,1139.488 L1606.231,1143.282 L1600.704,1139.488 L1603.522,1147.725 L1600.704,1139.488 C1600.704,1139.488 1606.015,1151.085 1606.882,1170.919 1606.231,1189.993 1600.379,1222.616 1575.668,1268.461 1535.459,1343.243 1506.847,1290.895 1548.031,1206.901 1589.216,1122.798 1536.326,1052.893 1536.326,1052.893 L1543.913,1065.14 L1536.326,1052.893 C1543.046,1079.988 1545.213,1099.171 1533.617,1128.65 1534.592,1102.747 1530.365,1075.111 1520.828,1048.016 1494.275,972.475 1516.926,922.836 1516.926,922.836 L1513.783,931.724 L1516.926,922.836 L1509.015,928.364 L1516.926,922.836 C1516.926,922.836 1464.687,947.656 1477.801,1051.159 1490.807,1154.553 1456.45,1157.588 1437.7,1157.588 1419.059,1157.588 1366.82,1123.665 1434.232,1006.939 1501.645,890.322 1416.35,785.844 1416.35,785.844 L1428.596,803.943 L1416.35,785.844 L1419.493,802.968 L1416.35,785.844 C1416.35,785.844 1440.735,888.263 1397.275,958.819 1353.706,1029.266 1376.14,920.127 1384.811,891.731 L1371.263,908.097 L1384.811,891.731 C1384.811,891.731 1292.796,980.603 1345.035,1137.863 1361.618,1191.944 1322.709,1186.525 1309.92,1118.896 L1309.92,1119.33 C1304.718,1095.703 1296.048,1077.82 1283.475,1070.559 L1286.402,1077.387 L1283.475,1070.559 C1283.475,1070.559 1304.393,1105.132 1282.175,1193.028 1260.824,1277.673 1221.157,1236.38 1241.316,1142.523 1261.474,1048.557 1194.279,997.944 1194.279,997.944 L1204.466,1007.373 L1194.279,997.944 C1216.28,1039.237 1219.965,1061.997 1180.84,1172.328 1172.819,1194.979 1168.701,1215.354 1166.967,1233.671 L1164.691,1226.409 C1146.158,1173.736 1161.873,1139.055 1161.873,1139.055 L1159.705,1145.341 L1161.873,1139.055 L1156.346,1142.848 L1161.873,1139.055 C1161.873,1139.055 1125.566,1156.396 1134.67,1228.577 1143.773,1300.866 1119.821,1302.926 1106.707,1302.926 1093.702,1302.926 1057.286,1279.19 1104.323,1197.797 1151.252,1116.403 1091.859,1043.464 1091.859,1043.464 L1100.421,1056.144 L1091.859,1043.464 L1094.027,1055.385 L1091.859,1043.464 C1091.859,1043.464 1108.875,1114.994 1078.529,1164.199 1048.182,1213.404 1063.789,1137.104 1069.858,1117.27 L1060.429,1128.65 L1069.858,1117.27 C1069.858,1117.27 1005.806,1179.372 1042.113,1289.161 1053.71,1326.878 1026.615,1323.193 1017.727,1275.939 L1017.077,1285.585 L1017.727,1275.939 C1017.727,1275.939 1009.165,1335.223 1054.468,1360.475 1070.725,1369.363 1085.465,1371.964 1097.712,1371.53 L1601.788,1371.53 1601.788,1371.097 1878.374,1371.097 1878.374,1371.53 2461.134,1371.53 C2474.898,1372.072 2491.372,1369.037 2509.471,1359.066 2560.193,1330.888 2550.656,1264.559 2550.656,1264.559 L2551.306,1275.397 L2550.656,1264.559 C2540.685,1317.34 2510.447,1321.567 2523.344,1279.299 2563.987,1156.612 2492.347,1087.141 2492.347,1087.141 L2502.86,1099.93 L2492.347,1087.141 C2499.067,1109.359 2516.516,1194.545 2482.593,1139.597 2448.67,1084.54 2467.637,1004.555 2467.637,1004.555 L2465.252,1017.886 L2467.637,1004.555 C2467.637,1004.555 2401.2,1086.057 2453.764,1177.205 2506.328,1268.244 2465.686,1294.797 2451.055,1294.797 2436.532,1294.797 2409.653,1292.413 2419.841,1211.669 2430.029,1130.818 2389.386,1111.418 2389.386,1111.418 L2395.564,1115.753 L2389.386,1111.418 L2391.771,1118.354 L2389.386,1111.418 C2389.386,1111.418 2406.944,1150.218 2386.352,1209.285 2385.376,1211.886 2384.618,1214.596 2383.751,1217.305 2381.8,1196.821 2377.139,1173.953 2368.144,1148.701 2324.467,1025.364 2328.585,999.895 2353.187,953.725 2353.187,953.725 2277.972,1010.191 2300.515,1115.32 2323.058,1220.34 2278.73,1266.51 2254.778,1171.786 2229.959,1073.485 2253.478,1034.902 2253.478,1034.902 L2250.226,1042.488 L2253.478,1034.902 C2239.388,1043.03 2229.634,1062.972 2223.781,1089.417 L2223.781,1088.983 C2209.475,1164.524 2166.015,1170.593 2184.548,1110.117 2242.856,934.216 2140.004,834.832 2140.004,834.832 L2155.177,853.148 L2140.004,834.832 C2149.758,866.587 2174.794,988.732 2126.131,909.831 2077.468,831.038 2104.672,716.372 2104.672,716.372 L2101.204,735.556 L2104.672,716.372 C2104.672,716.372 2009.297,833.314 2084.73,963.804 2160.162,1094.185 2101.745,1132.227 2080.828,1132.227 2059.911,1132.227 2021.436,1128.867 2036.067,1013.117 2050.698,897.367 1992.282,869.622 1992.282,869.622 L2001.169,875.799 L1992.282,869.622 L1995.75,879.593 L1992.282,869.622 C1992.282,869.622 2017.534,925.112 1987.838,1009.649 1977.217,1039.995 1972.556,1070.884 1973.532,1099.821 1960.526,1066.765 1963.019,1045.414 1970.497,1015.176 1970.497,1015.176 1911.322,1093.318 1957.491,1187.284 2003.553,1281.358 1971.581,1339.883 1926.495,1256.214 1919.45,1243.1 1913.814,1230.961 1909.262,1219.798 1911.213,1186.309 1908.395,1150.76 1900.375,1115.32 1873.714,997.944 1910.346,926.738 1910.346,926.738 L1905.036,939.744 L1910.346,926.738 C1910.346,926.738 1857.457,947.981 1844.451,1050.4 1834.372,1022.655 1820.174,1005.205 1820.174,1005.205 L1828.519,1017.452 L1820.174,1005.205 L1822.558,1018.536 L1820.174,1005.205 C1820.174,1005.205 1839.14,1085.082 1805.217,1140.03 1771.294,1194.979 1788.744,1109.792 1795.463,1087.683 L1785.926,1099.063 L1795.463,1087.683 C1795.463,1087.683 1731.302,1149.784 1759.047,1260.441 1731.627,1240.824 1701.498,1176.988 1788.418,1040.754 1893.764,875.799 1791.345,706.293 1791.345,706.293 L1805.651,735.339 M1834.047,1177.53 C1836.864,1172.544 1839.357,1167.667 1841.525,1162.79 1838.382,1224.675 1824.184,1250.795 1808.36,1261.199 Q1804.676,1228.36 1834.047,1177.53z"/>
                </g>
              </g>
              <g id="group21">
                <path id="path117" fill="#F5DF41" fill-opacity="1" d="M253.973,-1094.357 C208.345,-1168.272 233.923,-1275.676 233.923,-1275.676 L230.671,-1257.685 L233.923,-1275.676 L221.025,-1256.602 L233.923,-1275.676 C233.923,-1275.676 144.509,-1166.104 215.173,-1043.96 285.837,-921.707 231.105,-886.05 211.488,-886.05 191.98,-886.05 155.889,-889.301 169.545,-997.681 183.309,-1106.062 128.577,-1132.181 128.577,-1132.181 L136.922,-1126.437 L128.577,-1132.181 L131.829,-1122.752 L128.577,-1132.181 C128.577,-1132.181 152.312,-1080.05 124.459,-1000.824 114.488,-972.537 110.044,-943.6 111.02,-916.396 98.881,-947.393 101.157,-967.443 108.202,-995.731 L100.182,-982.942 L108.202,-995.731 C108.202,-995.731 52.711,-922.574 95.955,-834.461 139.198,-746.348 109.177,-691.616 67.017,-769.975 60.406,-782.222 55.095,-793.602 50.869,-804.006 52.603,-835.436 50.002,-868.709 42.415,-901.982 17.488,-1011.879 51.844,-1078.533 51.844,-1078.533 L46.859,-1066.394 L51.844,-1078.533 L43.932,-1073.981 L51.844,-1078.533 C51.844,-1078.533 2.314,-1058.699 -9.933,-962.783 -19.362,-988.794 -32.692,-1005.051 -32.692,-1005.051 L-24.889,-993.671 L-32.692,-1005.051 L-30.416,-992.588 L-32.692,-1005.051 C-32.692,-1005.051 -14.918,-930.269 -46.673,-878.788 -78.429,-827.308 -62.063,-907.076 -55.777,-927.776 L-64.773,-917.047 L-55.777,-927.776 C-55.777,-927.776 -115.82,-869.576 -89.917,-765.965 -115.603,-784.389 -143.782,-844.107 -62.389,-971.779 36.237,-1126.329 -59.679,-1285.106 -59.679,-1285.106 L-46.24,-1257.902 L-59.679,-1285.106 L-57.62,-1260.612 L-59.679,-1285.106 C-59.679,-1285.106 -40.496,-1137.709 -103.573,-1044.718 -166.65,-951.62 -126.008,-1102.052 -111.702,-1140.743 L-126.008,-1125.462 L-111.702,-1140.743 C-111.702,-1140.743 -203.5,-1059.241 -200.898,-893.962 -201.44,-885.291 -201.115,-876.187 -199.598,-866.65 -197.972,-845.733 -195.046,-823.731 -190.06,-800.321 -180.306,-748.082 -198.622,-736.485 -214.338,-763.364 -214.771,-771.926 -214.229,-782.547 -212.603,-795.553 -204.15,-863.073 -238.181,-879.33 -238.181,-879.33 L-232.979,-875.754 L-238.181,-879.33 L-235.58,-871.527 L-238.181,-879.33 C-238.181,-879.33 -233.304,-868.492 -232.437,-849.851 -233.087,-831.968 -238.615,-801.405 -261.7,-758.487 -299.416,-688.473 -326.186,-737.352 -287.602,-816.145 -248.911,-894.937 -298.549,-960.399 -298.549,-960.399 L-291.396,-948.91 L-298.549,-960.399 C-292.263,-935.038 -290.204,-917.047 -301.042,-889.41 -300.175,-913.687 -304.185,-939.59 -313.072,-964.951 -337.891,-1035.723 -316.757,-1082.218 -316.757,-1082.218 L-319.683,-1073.873 L-316.757,-1082.218 L-324.235,-1077.124 L-316.757,-1082.218 C-316.757,-1082.218 -365.636,-1059.025 -353.389,-962.024 -341.142,-865.133 -373.331,-862.315 -390.889,-862.315 -408.446,-862.315 -457.326,-894.178 -394.14,-1003.426 -330.955,-1112.673 -410.831,-1210.54 -410.831,-1210.54 L-399.342,-1193.524 L-410.831,-1210.54 L-407.904,-1194.5 L-410.831,-1210.54 C-410.831,-1210.54 -388.071,-1114.624 -428.822,-1048.512 -469.573,-982.508 -448.655,-1084.819 -440.527,-1111.372 L-453.207,-1096.091 L-440.527,-1111.372 C-440.527,-1111.372 -526.581,-1028.136 -477.701,-880.848 -462.203,-830.126 -498.619,-835.22 -510.649,-898.514 L-510.649,-898.188 C-515.526,-920.298 -523.654,-936.989 -535.468,-943.817 L-532.758,-937.53 L-535.468,-943.817 C-535.468,-943.817 -515.851,-911.519 -536.552,-829.15 -556.602,-749.816 -593.776,-788.508 -574.918,-876.512 -556.06,-964.517 -618.921,-1011.879 -618.921,-1011.879 L-609.383,-1003.1 L-618.921,-1011.879 C-598.328,-973.188 -594.969,-951.837 -631.493,-848.442 -638.971,-827.308 -642.981,-808.233 -644.607,-791.001 -645.257,-793.277 -645.907,-795.553 -646.774,-797.828 -664.007,-847.25 -649.267,-879.764 -649.267,-879.764 L-651.326,-873.911 L-649.267,-879.764 L-654.469,-876.187 L-649.267,-879.764 C-649.267,-879.764 -683.407,-863.507 -674.845,-795.769 -666.283,-728.14 -688.717,-726.189 -700.964,-726.189 -713.211,-726.189 -747.134,-748.407 -703.24,-824.707 -659.238,-901.006 -714.945,-969.286 -714.945,-969.286 L-706.925,-957.472 L-714.945,-969.286 L-712.886,-958.123 L-714.945,-969.286 C-714.945,-969.286 -699.013,-902.307 -727.409,-856.137 -755.696,-810.075 -741.173,-881.498 -735.538,-900.031 L-744.316,-889.301 L-735.538,-900.031 C-735.538,-900.031 -795.472,-841.939 -761.332,-739.086 -750.602,-703.755 -775.963,-707.223 -784.309,-751.442 L-784.851,-742.446 L-784.309,-751.442 C-784.309,-751.442 -792.329,-695.951 -749.844,-672.324 -734.671,-663.979 -720.906,-661.486 -709.418,-661.92 L-237.206,-661.92 -237.206,-662.245 21.931,-662.245 21.931,-661.92 567.842,-661.92 C580.739,-661.486 596.129,-664.196 613.145,-673.516 660.615,-699.961 651.728,-762.063 651.728,-762.063 L652.378,-751.984 L651.728,-762.063 C642.407,-712.642 614.012,-708.632 626.042,-748.299 664.192,-863.29 596.996,-928.318 596.996,-928.318 L606.859,-916.396 L596.996,-928.318 C603.391,-907.509 619.648,-827.633 587.892,-879.222 556.137,-930.811 573.911,-1005.702 573.911,-1005.702 L571.635,-993.238 L573.911,-1005.702 L564.916,-992.479 L573.911,-1005.702 C573.911,-1005.702 511.701,-929.294 560.906,-843.998 610.218,-758.595 572.069,-733.776 558.413,-733.776 544.757,-733.776 519.613,-736.052 529.15,-811.701 538.688,-887.35 500.538,-905.558 500.538,-905.558 L506.39,-901.548 L500.538,-905.558 L502.814,-899.056 L500.538,-905.558 C500.538,-905.558 517.12,-869.251 497.72,-813.977 L495.336,-806.391 C493.493,-825.574 489.049,-847.033 480.704,-870.66 439.737,-986.193 443.638,-1010.037 466.615,-1053.389 L455.994,-1043.526 L466.615,-1053.389 C466.615,-1053.389 396.276,-1000.391 417.41,-901.982 438.436,-803.464 396.926,-760.221 374.492,-848.984 351.298,-941.107 373.191,-977.306 373.191,-977.306 L370.156,-970.261 L373.191,-977.306 C360.077,-969.611 350.973,-950.97 345.554,-926.151 L345.446,-926.584 C332.115,-855.812 291.364,-850.068 308.705,-906.751 363.329,-1071.597 266.979,-1164.695 266.979,-1164.695 L281.176,-1147.571 L266.979,-1164.695 C276.191,-1134.999 299.493,-1020.55 253.973,-1094.357z M-19.687,-843.673 C-16.977,-848.225 -14.701,-852.886 -12.642,-857.438 -15.568,-799.454 -28.899,-775.069 -43.639,-765.206 Q-47.324,-795.769 -19.687,-843.673z"/>
              </g>
              <g id="group22">
                <path id="path118" fill="#FFFFFF" fill-opacity="1" d="M-217.032,-1131.605 L-226.895,-1142.226 L-224.402,-1132.147 L-226.895,-1142.226 C-226.895,-1142.226 -207.387,-1082.184 -242.177,-1040.999 -276.967,-999.706 -259.192,-1063.651 -252.148,-1080.233 L-262.986,-1070.695 L-252.148,-1080.233 C-252.148,-1080.233 -325.738,-1028.21 -284.011,-936.087 -270.789,-904.44 -301.786,-907.583 -312.082,-947.25 L-312.082,-947.034 C-316.2,-960.798 -323.137,-971.311 -333.216,-975.538 L-330.832,-971.527 L-333.216,-975.538 C-333.216,-975.538 -316.525,-955.27 -334.191,-903.898 -335.817,-899.238 -337.551,-895.228 -339.177,-892.085 -345.788,-912.569 -361.937,-923.949 -361.937,-923.949 L-355.651,-918.313 L-361.937,-923.949 C-357.927,-914.303 -347.522,-876.912 -367.789,-900.972 -368.873,-902.273 -369.848,-903.681 -371.366,-905.849 -371.366,-913.219 -370.065,-922.756 -366.922,-933.486 -350.774,-988.435 -404.53,-1018.023 -404.53,-1018.023 L-396.402,-1012.495 L-404.53,-1018.023 C-386.972,-993.854 -384.046,-980.523 -415.26,-915.928 -416.235,-913.869 -417.102,-911.918 -417.861,-910.076 -418.619,-910.618 -419.27,-911.051 -419.92,-911.485 L-423.605,-913.327 -422.196,-910.293 C-421.437,-908.342 -420.787,-906.283 -420.354,-904.115 -423.605,-895.445 -425.447,-887.424 -426.423,-880.055 L-428.265,-884.281 C-443.005,-915.17 -430.433,-935.437 -430.433,-935.437 L-432.167,-931.752 L-430.433,-935.437 -434.876,-933.161 C-438.345,-931.102 -441.379,-928.392 -444.089,-925.141 -445.173,-923.732 -446.148,-922.323 -447.015,-920.914 -461.321,-954.837 -457.636,-965.458 -445.281,-982.474 L-452.109,-977.922 C-457.42,-973.803 -462.08,-969.251 -466.09,-964.266 -466.415,-963.941 -466.632,-963.507 -466.957,-963.074 -467.065,-963.399 -467.282,-963.832 -467.391,-964.158 -470.317,-971.094 -474.435,-977.705 -479.637,-984.1 L-486.465,-991.469 L-484.731,-984.425 L-486.465,-991.469 C-486.465,-991.469 -472.81,-949.526 -497.087,-920.697 -503.589,-913.111 -507.383,-910.618 -510.309,-911.593 -510.851,-915.603 -511.068,-919.288 -511.068,-923.19 -510.092,-931.102 -507.708,-939.447 -504.023,-948.226 L-505.974,-946.492 C-511.068,-944.107 -515.186,-939.772 -518.438,-933.594 -524.507,-925.791 -530.685,-915.061 -533.502,-901.731 -536.32,-898.696 -539.138,-896.854 -541.848,-896.095 -545.207,-895.336 -547.483,-896.42 -548.459,-899.455 -549.651,-902.814 -548.892,-907.583 -546.291,-913.869 -511.284,-990.927 -572.844,-1034.605 -572.844,-1034.605 L-563.74,-1026.585 L-572.844,-1034.605 C-567.1,-1020.624 -552.144,-967.084 -581.298,-1001.657 -610.344,-1036.23 -594.087,-1086.41 -594.087,-1086.41 L-596.146,-1078.065 L-594.087,-1086.41 L-602.324,-1077.523 L-594.087,-1086.41 C-594.087,-1086.41 -651.203,-1035.255 -606.009,-978.03 -560.814,-920.914 -595.821,-904.223 -608.393,-904.223 -620.857,-904.223 -643.942,-905.741 -635.163,-956.463 -626.384,-1007.185 -661.391,-1019.323 -661.391,-1019.323 L-656.08,-1016.614 L-661.391,-1019.323 L-659.332,-1014.88 L-661.391,-1019.323 C-661.391,-1019.323 -646.218,-994.938 -663.992,-957.872 -670.387,-944.649 -673.204,-931.102 -672.554,-918.421 -680.357,-932.836 -678.84,-942.265 -674.397,-955.487 L-679.49,-949.526 L-674.397,-955.487 C-674.397,-955.487 -709.837,-921.239 -682.2,-880.055 -654.563,-838.87 -673.746,-813.184 -700.733,-849.925 -717.207,-872.36 -721.217,-888.292 -721.65,-897.721 -721,-907.366 -717.532,-913.111 -717.532,-913.111 L-719.374,-908.992 L-717.532,-913.111 L-721.217,-911.268 L-717.532,-913.111 C-717.532,-913.111 -741.917,-904.657 -735.848,-869.217 -734.656,-862.389 -734.331,-856.861 -734.548,-852.418 -745.819,-838.328 -758.933,-844.398 -751.888,-871.818 -748.42,-883.956 -746.253,-895.553 -745.169,-906.499 -743.977,-911.485 -743.76,-916.254 -744.193,-920.806 -742.351,-1007.293 -807.921,-1049.886 -807.921,-1049.886 L-797.733,-1041.866 L-807.921,-1049.886 C-797.733,-1029.728 -768.687,-950.935 -813.773,-999.706 -858.86,-1048.369 -845.204,-1125.427 -845.204,-1125.427 L-846.613,-1112.638 L-845.204,-1125.427 L-854.849,-1111.229 L-845.204,-1125.427 C-845.204,-1125.427 -913.7,-1042.408 -843.253,-961.556 -785.053,-894.686 -805.211,-863.472 -823.528,-853.827 -804.995,-908.017 -847.913,-938.472 -847.913,-938.472 L-841.519,-932.836 L-847.913,-938.472 C-843.361,-927.634 -831.765,-885.907 -854.416,-912.894 -877.176,-939.772 -864.495,-978.897 -864.495,-978.897 L-866.121,-972.394 L-864.495,-978.897 L-870.131,-972.936 L-864.495,-978.897 C-864.495,-978.897 -874.033,-970.335 -880.752,-956.788 -889.423,-1006.968 -924.863,-1017.372 -924.863,-1017.372 L-919.227,-1014.988 L-924.863,-1017.372 L-921.287,-1010.978 L-924.863,-1017.372 C-924.863,-1017.372 -900.369,-982.474 -918.143,-924.924 -923.562,-907.583 -925.405,-890.134 -924.213,-873.66 -927.247,-868.241 -931.041,-862.28 -935.701,-855.886 -965.831,-814.918 -987.29,-843.531 -956.402,-889.592 -925.513,-935.762 -965.18,-974.02 -965.18,-974.02 L-959.436,-967.301 L-965.18,-974.02 C-960.195,-959.281 -958.461,-948.768 -967.24,-932.511 -966.481,-946.708 -969.732,-961.882 -976.777,-976.73 -996.719,-1018.131 -979.703,-1045.443 -979.703,-1045.443 L-982.088,-1040.566 L-979.703,-1045.443 L-985.664,-1042.408 L-979.703,-1045.443 C-979.703,-1045.443 -1018.829,-1031.787 -1009.074,-975.104 -999.32,-918.313 -1025.006,-916.687 -1039.096,-916.687 -1053.077,-916.687 -1092.202,-935.328 -1041.697,-999.273 -991.083,-1063.217 -1055.028,-1120.55 -1055.028,-1120.55 L-1045.815,-1110.579 L-1055.028,-1120.55 L-1052.643,-1111.121 L-1055.028,-1120.55 C-1055.028,-1120.55 -1036.82,-1064.301 -1069.334,-1025.718 -1101.956,-987.026 -1085.266,-1046.96 -1078.763,-1062.458 L-1088.951,-1053.463 L-1078.763,-1062.458 C-1078.763,-1062.458 -1147.584,-1013.687 -1108.459,-927.525 -1096.104,-897.829 -1125.258,-900.755 -1134.795,-937.821 L-1134.795,-937.604 C-1138.697,-950.61 -1145.2,-960.364 -1154.629,-964.374 L-1152.461,-960.689 L-1154.629,-964.374 C-1154.629,-964.374 -1138.914,-945.408 -1155.604,-897.287 -1171.536,-850.792 -1201.341,-873.443 -1186.168,-924.924 -1171.103,-976.513 -1221.391,-1004.15 -1221.391,-1004.15 L-1213.804,-999.056 L-1221.391,-1004.15 C-1204.917,-981.498 -1202.208,-969.035 -1231.47,-908.559 -1237.431,-896.203 -1240.683,-884.932 -1241.983,-874.961 L-1243.609,-878.862 C-1257.482,-907.8 -1245.668,-926.875 -1245.668,-926.875 L-1247.294,-923.407 L-1245.668,-926.875 L-1249.787,-924.816 L-1245.668,-926.875 C-1245.668,-926.875 -1272.98,-917.337 -1266.152,-877.67 -1259.324,-838.112 -1277.207,-836.919 -1286.961,-836.919 -1296.715,-836.919 -1323.919,-849.925 -1288.695,-894.578 -1253.688,-939.23 -1298.016,-979.222 -1298.016,-979.222 L-1291.621,-972.286 L-1298.016,-979.222 L-1296.39,-972.72 L-1298.016,-979.222 C-1298.016,-979.222 -1285.335,-940.097 -1308.095,-913.111 -1330.747,-886.124 -1319.042,-927.85 -1314.598,-938.797 L-1321.643,-932.511 L-1314.598,-938.797 C-1314.598,-938.797 -1362.502,-904.657 -1335.299,-844.506 -1326.628,-823.805 -1347.004,-825.865 -1353.615,-851.767 L-1354.048,-846.457 L-1353.615,-851.767 C-1353.615,-851.767 -1360.009,-819.253 -1326.086,-805.489 -1313.948,-800.612 -1302.893,-799.095 -1293.681,-799.311 L-903.512,-799.311 -903.512,-799.528 -718.182,-799.528 -718.182,-799.311 -485.761,-799.311 L-485.707,-799.311 C-484.406,-799.311 -483.106,-799.311 -481.805,-799.311 L-380.686,-799.311 C-379.928,-799.311 -379.277,-799.311 -378.627,-799.311 L-65.084,-799.311 -65.084,-799.637 132.602,-799.637 132.602,-799.311 250.465,-799.311 L250.519,-799.311 C251.82,-799.311 253.121,-799.311 254.421,-799.311 L492.966,-799.311 C494.266,-799.203 495.567,-799.203 496.976,-799.311 L496.922,-799.311 L1167.524,-799.311 C1175.761,-799.203 1185.623,-800.504 1196.461,-804.839 1226.808,-817.086 1221.063,-846.24 1221.063,-846.24 L1221.497,-841.471 L1221.063,-846.24 C1215.211,-823.047 1197.003,-821.204 1204.698,-839.737 1229.084,-893.494 1186.165,-923.949 1186.165,-923.949 L1192.451,-918.313 L1186.165,-923.949 C1190.284,-914.303 1200.688,-876.912 1180.421,-900.972 1160.045,-925.141 1171.425,-960.148 1171.425,-960.148 L1170.016,-954.295 L1171.425,-960.148 C1171.425,-960.148 1131.65,-924.382 1163.08,-884.498 1194.619,-844.614 1170.233,-832.909 1161.454,-832.909 1152.784,-832.909 1136.744,-833.993 1142.813,-869.433 1148.882,-904.765 1124.497,-913.327 1124.497,-913.327 L1128.182,-911.485 L1124.497,-913.327 L1126.014,-910.293 L1124.497,-913.327 C1124.497,-913.327 1135.118,-896.312 1122.654,-870.409 L1121.137,-866.941 C1120.053,-875.936 1117.235,-885.907 1111.816,-896.962 1085.697,-951.044 1088.081,-962.207 1102.821,-982.474 1102.821,-982.474 1057.843,-957.655 1071.391,-911.593 1084.83,-865.532 1058.277,-845.373 1043.97,-886.883 1029.122,-929.909 1043.103,-946.925 1043.103,-946.925 L1041.152,-943.565 L1043.103,-946.925 C1034.758,-943.349 1028.905,-934.57 1025.437,-922.973 L1025.437,-923.19 C1016.875,-890.026 990.756,-887.316 1001.919,-913.869 1036.817,-990.927 975.257,-1034.605 975.257,-1034.605 L984.361,-1026.585 L975.257,-1034.605 C981.11,-1020.624 996.066,-967.084 966.912,-1001.657 937.758,-1036.23 954.123,-1086.41 954.123,-1086.41 L952.064,-1078.065 L954.123,-1086.41 C954.123,-1086.41 897.007,-1035.255 942.093,-978.03 987.288,-920.914 952.281,-904.223 939.817,-904.223 927.245,-904.223 904.268,-905.741 913.047,-956.463 921.718,-1007.185 886.819,-1019.323 886.819,-1019.323 L892.13,-1016.614 L886.819,-1019.323 L888.878,-1014.88 L886.819,-1019.323 C886.819,-1019.323 901.884,-994.938 884.11,-957.872 877.824,-944.649 875.006,-931.102 875.548,-918.421 867.744,-932.836 869.262,-942.265 873.814,-955.487 873.814,-955.487 838.373,-921.239 865.902,-880.055 893.539,-838.87 874.355,-813.184 847.369,-849.925 830.895,-872.36 826.993,-888.292 826.56,-897.721 827.102,-907.366 830.57,-913.111 830.57,-913.111 L828.727,-908.992 L830.57,-913.111 C830.57,-913.111 806.293,-904.657 812.362,-869.217 813.554,-862.389 813.879,-856.861 813.554,-852.418 802.283,-838.328 789.169,-844.398 796.213,-871.818 799.79,-883.956 801.849,-895.553 803.041,-906.499 804.125,-911.485 804.342,-916.254 803.908,-920.806 805.751,-1007.293 740.181,-1049.886 740.181,-1049.886 L750.369,-1041.866 L740.181,-1049.886 C750.369,-1029.728 779.523,-950.935 734.437,-999.706 689.351,-1048.369 703.006,-1125.427 703.006,-1125.427 L701.598,-1112.638 L703.006,-1125.427 C703.006,-1125.427 634.402,-1042.408 704.957,-961.556 763.157,-894.686 742.999,-863.472 724.682,-853.827 743.215,-908.017 700.189,-938.472 700.189,-938.472 L706.583,-932.836 L700.189,-938.472 C704.741,-927.634 716.446,-885.907 693.686,-912.894 670.926,-939.772 683.715,-978.897 683.715,-978.897 L682.089,-972.394 L683.715,-978.897 L678.079,-972.936 L683.715,-978.897 C683.715,-978.897 674.177,-970.335 667.458,-956.788 658.679,-1006.968 623.239,-1017.372 623.239,-1017.372 L628.874,-1014.988 L623.239,-1017.372 L626.815,-1010.978 L623.239,-1017.372 C623.239,-1017.372 647.841,-982.474 629.958,-924.924 624.648,-907.583 622.697,-890.134 623.997,-873.66 620.963,-868.241 617.169,-862.28 612.401,-855.886 582.271,-814.918 560.812,-843.531 591.7,-889.592 622.588,-935.762 582.921,-974.02 582.921,-974.02 L588.665,-967.301 L582.921,-974.02 C588.015,-959.281 589.641,-948.768 580.97,-932.511 581.621,-946.708 578.478,-961.882 571.325,-976.73 551.491,-1018.131 568.398,-1045.443 568.398,-1045.443 L566.014,-1040.566 L568.398,-1045.443 L562.437,-1042.408 L568.398,-1045.443 C568.398,-1045.443 529.273,-1031.787 539.136,-975.104 543.363,-950.393 541.412,-933.594 533.066,-924.599 531.116,-922.54 528.623,-920.806 525.697,-919.505 523.854,-921.889 521.795,-924.165 519.627,-926.441 L512.908,-932.402 C515.075,-927.2 516.701,-922.214 517.893,-917.337 515.184,-916.904 512.257,-916.687 509.114,-916.687 506.08,-916.687 502.937,-917.337 499.794,-918.638 495.567,-927.308 493.508,-937.496 493.833,-949.093 493.941,-954.403 494.591,-959.606 495.675,-964.808 L497.193,-971.094 491.123,-964.483 C487.222,-959.714 484.079,-954.729 481.586,-949.526 482.778,-963.182 491.123,-979.764 506.513,-999.273 557.018,-1063.217 493.074,-1120.55 493.074,-1120.55 L502.286,-1110.579 L493.074,-1120.55 L495.459,-1111.121 L493.074,-1120.55 C493.074,-1120.55 511.39,-1064.301 478.768,-1025.718 446.146,-987.026 462.944,-1046.96 469.447,-1062.458 L459.26,-1053.463 L469.447,-1062.458 C469.447,-1062.458 400.518,-1013.687 439.643,-927.525 442.569,-920.48 443.436,-915.17 442.135,-911.376 440.943,-908.017 438.559,-906.716 434.766,-907.583 433.465,-907.908 432.165,-908.45 430.864,-909.209 419.267,-933.811 413.09,-951.694 412.331,-962.749 411.681,-972.611 415.582,-983.341 423.928,-994.829 L416.666,-989.952 C410.922,-985.617 405.937,-980.74 401.71,-975.429 398.783,-971.744 396.291,-967.951 394.231,-964.049 393.906,-964.158 393.69,-964.266 393.473,-964.374 L393.961,-963.562 L394.015,-963.507 C386.97,-949.743 385.669,-935.003 390.33,-919.18 392.172,-912.785 393.473,-906.825 394.015,-901.297 393.473,-899.997 393.039,-898.696 392.606,-897.287 388.812,-886.232 384.261,-878.754 378.95,-874.744 376.891,-873.227 374.94,-872.36 373.097,-872.034 368.437,-875.936 364.427,-882.873 361.067,-892.735 359.875,-896.203 358.791,-899.563 357.924,-902.923 358.249,-909.751 359.658,-917.012 361.934,-924.924 376.999,-976.513 326.711,-1004.15 326.711,-1004.15 L334.297,-999.056 L326.711,-1004.15 C343.184,-981.498 345.894,-969.035 316.631,-908.559 315.981,-907.15 315.331,-905.849 314.789,-904.44 314.355,-904.982 314.03,-905.524 313.813,-906.283 312.621,-909.859 313.38,-914.953 316.198,-921.673 353.481,-1003.933 287.802,-1050.428 287.802,-1050.428 L297.448,-1041.866 L287.802,-1050.428 C293.98,-1035.58 309.912,-978.464 278.807,-1015.313 247.702,-1052.271 265.151,-1105.81 265.151,-1105.81 L262.875,-1096.815 L265.151,-1105.81 L256.372,-1096.273 L265.151,-1105.81 C265.151,-1105.81 204.241,-1051.187 252.362,-990.169 273.171,-963.832 280.432,-943.023 274.255,-927.742 273.713,-926.55 273.171,-925.466 272.629,-924.382 273.821,-933.92 272.195,-943.674 267.86,-953.645 265.042,-960.148 261.249,-966.325 256.372,-972.286 L249.978,-979.222 L251.603,-972.72 L249.978,-979.222 C249.978,-979.222 262.766,-940.097 240.007,-913.111 239.79,-912.785 239.573,-912.569 239.356,-912.352 234.262,-913.544 230.361,-915.603 227.434,-918.53 228.518,-924.924 230.577,-931.752 233.504,-938.797 L226.459,-932.511 C224.833,-930.885 223.424,-929.259 222.015,-927.525 218.547,-936.737 218.331,-949.851 221.257,-966.975 230.577,-1021.166 193.295,-1034.171 193.295,-1034.171 L198.93,-1031.245 L193.295,-1034.171 L195.571,-1029.511 L193.295,-1034.171 C193.295,-1034.171 209.443,-1008.16 190.477,-968.601 183.757,-954.512 180.723,-939.989 181.373,-926.441 173.028,-941.94 174.653,-951.911 179.422,-966.108 L174.003,-959.714 L179.422,-966.108 C179.422,-966.108 141.597,-929.476 171.077,-885.474 200.556,-841.471 180.072,-814.16 151.352,-853.285 133.686,-877.237 129.459,-894.361 129.025,-904.332 129.676,-914.736 133.361,-920.806 133.361,-920.806 L131.41,-916.47 L133.361,-920.806 L129.35,-918.746 L133.361,-920.806 C133.361,-920.806 107.349,-911.702 113.852,-873.985 115.153,-866.724 115.478,-860.763 115.153,-855.994 103.122,-841.038 89.141,-847.432 96.62,-876.695 100.413,-889.7 102.689,-902.056 103.881,-913.761 105.073,-919.071 105.29,-924.165 104.857,-928.934 106.916,-1021.274 36.902,-1066.902 36.902,-1066.902 L47.849,-1058.34 L36.902,-1066.902 C47.74,-1045.226 78.845,-961.231 30.616,-1013.145 -17.505,-1065.168 -2.873,-1147.537 -2.873,-1147.537 L-4.391,-1133.881 L-2.873,-1147.537 L-13.169,-1132.364 L-2.873,-1147.537 C-2.873,-1147.537 -76.03,-1058.773 -0.814,-972.503 61.288,-901.189 39.828,-867.808 20.212,-857.512 40.045,-915.387 -5.8,-947.901 -5.8,-947.901 L1.028,-941.94 L-5.8,-947.901 C-1.031,-936.304 11.433,-891.76 -12.844,-920.48 -37.013,-949.31 -23.466,-991.036 -23.466,-991.036 L-25.2,-984.1 L-23.466,-991.036 L-29.426,-984.641 L-23.466,-991.036 C-23.466,-991.036 -33.653,-981.932 -40.806,-967.409 -50.127,-1020.949 -87.952,-1032.112 -87.952,-1032.112 L-81.882,-1029.511 L-87.952,-1032.112 L-84.158,-1025.284 L-87.952,-1032.112 C-87.952,-1032.112 -61.724,-994.829 -80.799,-933.486 -86.543,-914.845 -88.602,-896.312 -87.193,-878.754 -90.444,-872.902 -94.455,-866.507 -99.548,-859.679 -131.737,-815.894 -154.605,-846.565 -121.658,-895.77 -88.71,-944.974 -130.979,-985.834 -130.979,-985.834 L-124.909,-978.681 L-130.979,-985.834 C-125.668,-970.01 -123.826,-958.847 -133.146,-941.506 -132.388,-956.679 -135.747,-972.828 -143.334,-988.652 -164.576,-1032.979 -146.477,-1062.025 -146.477,-1062.025 L-148.97,-1056.823 L-146.477,-1062.025 L-152.871,-1058.773 L-146.477,-1062.025 C-146.477,-1062.025 -188.312,-1047.502 -177.799,-986.917 -167.394,-926.333 -194.923,-924.599 -209.879,-924.599 -224.836,-924.599 -266.562,-944.432 -212.589,-1012.712 -158.724,-1080.991 -226.895,-1142.226 -226.895,-1142.226 M-33.437,-900.864 C-17.505,-880.705 -13.603,-866.615 -15.12,-857.078 -26.392,-862.497 -36.471,-876.153 -38.747,-908.559 -37.23,-905.957 -35.496,-903.465 -33.437,-900.864z M-873.816,-894.469 C-858.86,-875.503 -855.175,-862.389 -856.584,-853.393 -867.096,-858.595 -876.634,-871.384 -878.801,-901.622 Q-876.309,-897.612 -873.816,-894.469z M674.394,-894.469 C689.351,-875.503 693.035,-862.389 691.518,-853.393 681.005,-858.595 671.468,-871.384 669.409,-901.622 670.818,-899.238 672.443,-896.854 674.394,-894.469z M-474.76,-903.356 C-473.135,-895.661 -472.701,-888.725 -473.351,-882.439 -474.11,-874.744 -476.386,-869.433 -480.071,-866.399 -483.648,-863.364 -487.658,-863.472 -491.993,-866.724 -492.751,-867.266 -493.51,-868.024 -494.269,-868.783 -492.426,-876.912 -487.116,-887.641 -476.494,-901.08 -475.953,-901.839 -475.302,-902.598 -474.76,-903.356z"/>
              </g>
            </g>
          </g>
        </g>
      </g>
    </g>
    <g id="Calque.__202">
      <g id="group">
        <g id="drawingObject">
          <path id="path2" fill="url(#radialGradient39)" fill-opacity="1" d="M845.851,485.151 C845.851,485.151 841.401,484.451 840.301,489.101 840.301,489.101 838.651,482.101 841.401,477.201 841.401,477.201 830.451,482.501 834.151,495.101 834.151,495.101 832.251,494.001 829.951,494.651 L831.851,495.751 L829.951,494.651 C829.951,494.651 842.451,500.051 838.451,516.301 L839.901,514.951 Q841.601,513.151 842.751,511.101 846.601,504.501 844.051,497.451 C840.051,486.351 845.851,485.151 845.851,485.151z"/>
        </g>
        <g id="drawingObject1">
          <path id="path3" fill="url(#radialGradient40)" fill-opacity="1" d="M1010.551,568.801 C1010.551,568.801 1003.501,572.201 1005.901,580.301 1005.901,580.301 1004.651,579.601 1003.201,580.001 L1004.401,580.701 L1003.201,580.001 C1003.201,580.001 1011.201,583.501 1008.651,593.901 L1011.451,590.551 Q1013.901,586.351 1012.251,581.801 C1009.701,574.701 1013.401,573.901 1013.401,573.901 L1011.851,575.201 L1013.401,573.901 C1013.401,573.901 1010.551,573.451 1009.851,576.451 1009.851,576.451 1008.801,571.951 1010.551,568.801z"/>
        </g>
        <g id="drawingObject2">
          <path id="path4" fill="url(#radialGradient41)" fill-opacity="1" d="M297.101,500.201 C297.101,500.201 313.601,507.401 308.301,528.901 Q311.501,526.401 314.051,522.001 319.101,513.251 315.751,503.951 C310.451,489.251 318.151,487.601 318.151,487.601 L317.051,488.101 L318.151,487.601 C318.151,487.601 312.251,486.701 310.801,492.851 310.801,492.851 308.601,483.601 312.251,477.101 L310.051,478.451 L312.251,477.101 C312.251,477.101 297.701,484.151 302.651,500.801 302.651,500.801 300.101,499.351 297.101,500.201z"/>
        </g>
        <g id="drawingObject3">
          <path id="path5" fill="url(#radialGradient42)" fill-opacity="1" d="M342.651,370.951 L340.001,368.751 C340.001,368.751 345.801,371.251 343.951,378.801 Q345.051,377.951 345.951,376.401 347.701,373.351 346.551,370.101 C344.651,364.951 347.351,364.351 347.351,364.351 L346.251,365.301 L347.351,364.351 C347.351,364.351 345.301,364.051 344.801,366.201 344.801,366.201 344.001,362.951 345.301,360.701 L342.951,362.651 L345.301,360.701 C345.301,360.701 340.201,363.151 341.951,368.951 341.951,368.951 341.051,368.451 340.001,368.751"/>
        </g>
        <g id="drawingObject4">
          <path id="path6" fill="url(#radialGradient43)" fill-opacity="1" d="M101.651,387.301 C95.851,391.451 95.851,395.451 97.601,399.951 99.401,404.401 96.201,409.201 96.201,409.201 104.301,403.551 104.751,399.201 102.151,395.101 Q100.551,392.501 100.951,389.651 L101.651,387.301z"/>
        </g>
        <g id="drawingObject5">
          <path id="path7" fill="url(#radialGradient44)" fill-opacity="1" d="M635.201,577.001 C629.351,581.151 629.351,585.151 631.101,589.601 632.901,594.101 629.701,598.901 629.701,598.901 637.801,593.251 638.251,588.901 635.701,584.801 Q634.101,582.201 634.501,579.351 L635.201,577.001z"/>
        </g>
        <g id="drawingObject6">
          <path id="path8" fill="url(#radialGradient45)" fill-opacity="1" d="M221.551,823.051 C216.401,826.701 216.401,830.201 217.951,834.151 219.501,838.151 216.701,842.351 216.701,842.351 223.851,837.401 224.251,833.551 222.001,829.901 Q220.551,827.601 220.901,825.101 L221.551,823.051z"/>
        </g>
        <g id="drawingObject7">
          <path id="path9" fill="url(#radialGradient46)" fill-opacity="1" d="M761.801,793.501 C756.601,797.151 756.601,800.701 758.201,804.651 759.751,808.601 756.951,812.851 756.951,812.851 764.101,807.851 764.501,804.001 762.201,800.351 Q760.801,798.051 761.151,795.551 L761.801,793.501z"/>
        </g>
        <g id="drawingObject8">
          <path id="path10" fill="url(#radialGradient47)" fill-opacity="1" d="M844.951,796.151 C839.751,799.801 839.751,803.351 841.351,807.301 842.901,811.301 840.101,815.501 840.101,815.501 847.251,810.501 847.651,806.701 845.351,803.051 Q843.951,800.751 844.301,798.251 L844.951,796.151z"/>
        </g>
        <g id="drawingObject9">
          <path id="path11" fill="url(#radialGradient48)" fill-opacity="1" d="M662.751,409.951 C659.451,412.251 659.451,414.501 660.451,417.051 661.451,419.551 659.651,422.251 659.651,422.251 664.251,419.101 664.501,416.651 663.051,414.301 Q662.151,412.851 662.351,411.251 L662.751,409.951z"/>
        </g>
        <g id="drawingObject10">
          <path id="path12" fill="url(#radialGradient49)" fill-opacity="1" d="M171.901,522.701 C168.601,525.051 168.601,527.301 169.601,529.801 170.601,532.351 168.801,535.001 168.801,535.001 173.351,531.851 173.601,529.401 172.151,527.101 Q171.301,525.651 171.501,524.001 L171.901,522.701z"/>
        </g>
        <g id="drawingObject11">
          <path id="path13" fill="url(#radialGradient50)" fill-opacity="1" d="M698.751,286.951 C695.451,289.251 695.451,291.501 696.501,294.051 697.501,296.551 695.701,299.251 695.701,299.251 700.251,296.051 700.501,293.651 699.051,291.301 Q698.151,289.851 698.351,288.251 L698.751,286.951z"/>
        </g>
        <g id="drawingObject12">
          <path id="path14" fill="url(#radialGradient51)" fill-opacity="1" d="M907.901,506.701 C904.601,509.051 904.601,511.301 905.601,513.801 906.601,516.351 904.801,519.001 904.801,519.001 909.351,515.851 909.601,513.401 908.151,511.101 Q907.301,509.651 907.501,508.001 L907.901,506.701z"/>
        </g>
        <g id="drawingObject13">
          <path id="path15" fill="url(#radialGradient52)" fill-opacity="1" d="M777.801,377.351 C773.501,380.401 773.501,383.351 774.801,386.651 776.101,389.951 773.751,393.501 773.751,393.501 779.751,389.351 780.051,386.151 778.151,383.101 Q777.001,381.201 777.301,379.101 L777.801,377.351z"/>
        </g>
        <g id="drawingObject14">
          <path id="path16" fill="url(#radialGradient53)" fill-opacity="1" d="M506.251,190.451 C500.401,194.601 500.401,198.601 502.151,203.101 503.951,207.551 500.751,212.351 500.751,212.351 508.851,206.701 509.301,202.351 506.751,198.251 Q505.151,195.651 505.551,192.801 L506.251,190.451z"/>
        </g>
        <g id="drawingObject15">
          <path id="path17" fill="url(#radialGradient54)" fill-opacity="1" d="M980.151,343.101 C976.501,345.651 976.501,348.151 977.651,350.951 978.751,353.751 976.751,356.751 976.751,356.751 981.801,353.251 982.101,350.501 980.501,347.951 Q979.501,346.351 979.751,344.551 L980.151,343.101z"/>
        </g>
        <g id="drawingObject16">
          <path id="path18" fill="url(#radialGradient55)" fill-opacity="1" d="M253.001,295.401 C249.351,298.001 249.351,300.501 250.451,303.301 251.551,306.101 249.551,309.101 249.551,309.101 254.651,305.551 254.901,302.851 253.301,300.251 Q252.301,298.651 252.551,296.851 L253.001,295.401z"/>
        </g>
        <g id="drawingObject17">
          <path id="path19" fill="url(#radialGradient56)" fill-opacity="1" d="M625.801,361.201 C621.401,364.301 621.401,367.301 622.751,370.651 624.051,374.051 621.651,377.601 621.651,377.601 627.751,373.401 628.101,370.151 626.151,367.051 Q624.951,365.101 625.251,362.951 L625.801,361.201z"/>
        </g>
        <g id="drawingObject18">
          <path id="path20" fill="url(#radialGradient57)" fill-opacity="1" d="M275.601,565.451 C271.601,568.251 271.601,571.001 272.851,574.101 274.051,577.201 271.851,580.451 271.851,580.451 277.451,576.601 277.751,573.601 275.951,570.751 Q274.851,568.951 275.101,567.051 L275.601,565.451z"/>
        </g>
        <g id="drawingObject19">
          <path id="path21" fill="url(#radialGradient58)" fill-opacity="1" d="M87.151,612.151 C96.501,605.501 96.501,599.101 93.651,591.901 90.801,584.701 95.951,577.051 95.951,577.051 L93.751,581.801 L95.951,577.051 C82.951,586.101 82.251,593.051 86.351,599.701 Q88.901,603.851 88.301,608.401 88.001,610.701 87.151,612.151z"/>
        </g>
        <g id="drawingObject20">
          <path id="path22" fill="url(#radialGradient59)" fill-opacity="1" d="M813.851,593.751 C809.801,596.601 809.801,599.351 811.051,602.401 812.251,605.501 810.051,608.801 810.051,608.801 815.651,604.901 815.951,601.901 814.151,599.101 Q813.051,597.301 813.351,595.351 L813.851,593.751z"/>
        </g>
        <g id="drawingObject21">
          <path id="path23" fill="url(#radialGradient60)" fill-opacity="1" d="M514.151,629.101 C510.151,631.901 510.151,634.651 511.401,637.751 512.601,640.851 510.401,644.101 510.401,644.101 516.001,640.251 516.251,637.251 514.501,634.401 Q513.401,632.651 513.651,630.701 L514.151,629.101z"/>
        </g>
        <g id="drawingObject22">
          <path id="path24" fill="url(#radialGradient61)" fill-opacity="1" d="M152.151,567.101 C148.151,569.901 148.151,572.651 149.401,575.751 150.601,578.851 148.401,582.101 148.401,582.101 154.001,578.251 154.251,575.251 152.501,572.401 Q151.401,570.651 151.651,568.701 L152.151,567.101z"/>
        </g>
        <g id="drawingObject23">
          <path id="path25" fill="url(#radialGradient62)" fill-opacity="1" d="M1048.151,643.101 C1044.151,645.901 1044.151,648.651 1045.401,651.751 1046.601,654.851 1044.401,658.101 1044.401,658.101 1050.001,654.251 1050.251,651.251 1048.501,648.401 Q1047.401,646.651 1047.651,644.701 L1048.151,643.101z"/>
        </g>
        <g id="drawingObject24">
          <path id="path26" fill="url(#radialGradient63)" fill-opacity="1" d="M60.151,653.101 C56.151,655.901 56.151,658.651 57.401,661.751 58.601,664.851 56.401,668.101 56.401,668.101 62.001,664.251 62.251,661.251 60.501,658.401 Q59.401,656.651 59.651,654.701 L60.151,653.101z"/>
        </g>
        <g id="drawingObject25">
          <path id="path27" fill="url(#radialGradient64)" fill-opacity="1" d="M16.151,615.101 C12.151,617.901 12.151,620.651 13.401,623.751 14.601,626.851 12.401,630.101 12.401,630.101 18.001,626.251 18.251,623.251 16.501,620.401 Q15.401,618.651 15.651,616.701 L16.151,615.101z"/>
        </g>
        <g id="drawingObject26">
          <path id="path28" fill="url(#radialGradient65)" fill-opacity="1" d="M512.401,522.651 C520.001,517.451 520.101,512.301 517.901,506.501 515.701,500.651 519.901,494.601 519.901,494.601 L518.101,498.351 L519.901,494.601 C509.351,501.651 508.701,507.251 511.901,512.651 Q513.901,516.001 513.351,519.651 513.101,521.501 512.401,522.651z"/>
        </g>
        <g id="drawingObject27">
          <path id="path29" fill="url(#radialGradient66)" fill-opacity="1" d="M599.851,615.751 C595.801,618.601 595.801,621.351 597.051,624.401 598.251,627.501 596.051,630.801 596.051,630.801 601.651,626.901 601.951,623.901 600.151,621.101 Q599.051,619.301 599.351,617.351 L599.851,615.751z"/>
        </g>
        <g id="drawingObject28">
          <path id="path30" fill="url(#radialGradient67)" fill-opacity="1" d="M125.851,531.751 C121.801,534.601 121.801,537.351 123.051,540.401 124.251,543.501 122.051,546.801 122.051,546.801 127.651,542.901 127.951,539.901 126.151,537.101 Q125.051,535.301 125.351,533.351 L125.851,531.751z"/>
        </g>
        <g id="drawingObject29">
          <path id="path31" fill="url(#radialGradient68)" fill-opacity="1" d="M965.351,446.351 C956.351,452.751 956.351,458.901 959.101,465.851 961.851,472.801 956.901,480.201 956.901,480.201 969.451,471.451 970.101,464.751 966.151,458.351 Q963.651,454.351 964.251,449.951 L965.351,446.351z"/>
        </g>
        <g id="drawingObject30">
          <path id="path32" fill="url(#radialGradient69)" fill-opacity="1" d="M718.551,373.751 L719.851,369.501 C709.301,377.001 709.301,384.201 712.501,392.301 715.701,400.401 709.951,409.001 709.951,409.001 724.601,398.851 725.351,391.001 720.751,383.551 Q717.851,378.901 718.551,373.751z"/>
        </g>
        <g id="drawingObject31">
          <path id="path33" fill="url(#radialGradient70)" fill-opacity="1" d="M14.101,528.751 C5.601,534.751 5.601,540.551 8.151,547.101 10.751,553.601 6.101,560.551 6.101,560.551 17.901,552.351 18.551,546.051 14.801,540.051 Q12.451,536.251 13.051,532.151 L14.101,528.751z"/>
        </g>
        <g id="drawingObject32">
          <path id="path34" fill="url(#radialGradient71)" fill-opacity="1" d="M865.101,366.701 C859.801,370.451 859.801,374.101 861.401,378.151 863.001,382.251 860.101,386.601 860.101,386.601 867.501,381.451 867.901,377.501 865.551,373.751 Q864.101,371.401 864.451,368.801 L865.101,366.701z"/>
        </g>
        <g id="drawingObject33">
          <path id="path35" fill="url(#radialGradient72)" fill-opacity="1" d="M568.951,746.751 C562.151,751.501 562.151,756.151 564.251,761.351 566.301,766.551 562.601,772.051 562.601,772.051 572.001,765.551 572.501,760.501 569.501,755.701 Q567.651,752.751 568.101,749.451 L568.951,746.751z"/>
        </g>
        <g id="drawingObject34">
          <path id="path36" fill="url(#radialGradient73)" fill-opacity="1" d="M947.901,848.751 C943.551,851.801 943.551,854.801 944.901,858.151 946.201,861.501 943.801,865.051 943.801,865.051 949.901,860.851 950.201,857.601 948.301,854.501 Q947.101,852.601 947.351,850.501 L947.901,848.751z"/>
        </g>
        <g id="drawingObject35">
          <path id="path37" fill="url(#radialGradient74)" fill-opacity="1" d="M1008.301,785.351 C1003.951,788.451 1003.951,791.401 1005.251,794.751 1006.601,798.101 1004.201,801.701 1004.201,801.701 1010.251,797.501 1010.601,794.251 1008.651,791.151 Q1007.451,789.201 1007.751,787.101 L1008.301,785.351z"/>
        </g>
        <g id="drawingObject36">
          <path id="path38" fill="url(#radialGradient75)" fill-opacity="1" d="M447.351,785.351 C442.951,788.451 442.951,791.401 444.301,794.751 445.651,798.101 443.251,801.701 443.251,801.701 449.301,797.501 449.601,794.251 447.701,791.151 Q446.501,789.201 446.801,787.101 L447.351,785.351z"/>
        </g>
        <g id="drawingObject37">
          <path id="path39" fill="url(#radialGradient76)" fill-opacity="1" d="M18.201,804.351 C14.351,807.051 14.351,809.701 15.551,812.601 16.701,815.551 14.601,818.651 14.601,818.651 19.901,815.001 20.201,812.151 18.501,809.451 Q17.451,807.751 17.751,805.901 L18.201,804.351z"/>
        </g>
        <g id="drawingObject38">
          <path id="path40" fill="url(#radialGradient77)" fill-opacity="1" d="M603.701,900.451 C598.501,904.101 598.501,907.601 600.101,911.551 601.651,915.551 598.851,919.751 598.851,919.751 606.001,914.801 606.401,910.951 604.101,907.301 Q602.701,905.001 603.051,902.501 L603.701,900.451z"/>
        </g>
      </g>
    </g>
  </g>
  <g id="bg1">
    <g id="shape45">
      <path id="path42" fill="#000000" fill-opacity="0.2" d="M974.5,612.95 Q981.414,578.69 983.325,542.375 L577.475,136.525 481.125,362.2 376.05,375.95 455.975,455.875 472.05,889.2 566.1,983.25 C580.3,981.75 594.3,979.65 607.8,977.05 615.75,975.5 623.6,973.75 631.2,971.9 712,951.6 783.35,910.3 845.85,847.8 851.95,841.7 857.85,835.55 863.35,829.5 903.2,785.65 933.1,737.9 953.2,686 962.3,662.55 969.35,638.25 974.5,612.95z"/>
    </g>
  </g>
  <g id="Calque.__203">
    <g id="shape47">
      <path id="path43" fill="#FFFFFF" fill-opacity="1" d="M466,389.8 C463.8,389.8 461.75,390.35 459.9,391.5 458.1,392.6 456.7,393.95 455.75,395.75 L455.5,396.15 C454.45,398.1 454.05,400.2 454.15,402.4 454.6,411.25 455.2,429.25 455.8,456.15 L522.45,522.75 522.45,389.8 466,389.8z"/>
      <path id="path44" fill="#999999" fill-opacity="1" d="M588.15,394.85 C587.2,393.5 586,392.4 584.55,391.5 582.65,390.35 580.6,389.8 578.4,389.8 L522.45,389.8 522.45,522.75 585.75,586.1 586.05,568.25 C586.35,556.05 586.95,541.15 587.8,494.95 588.75,445.8 589.6,414.95 590.3,402.4 Q590.5,399.05 588.95,396.15 L588.15,394.85z M522.05,923.55 L522.45,923.55 522.45,855.75 454.15,855.75 C454.2,857.05 454.4,858.35 454.9,859.55 465,886.95 485.85,907.95 517.35,922.5 518.9,923.15 520.45,923.5 522.05,923.55z"/>
      <path id="path45" fill="#CCCCCC" fill-opacity="1" d="M522.45,550.3 L522.45,522.75 455.8,456.15 C456.05,467.55 456.35,480.45 456.6,494.95 457.5,541.15 458.05,556.05 458.4,568.25 L425.65,600.95 C424.9,601.45 424.25,602 423.55,602.7 421.25,605 420.1,607.8 420.1,611.1 420.1,611.2 420.1,611.3 420.1,611.45 420.1,614.75 421.25,617.5 423.55,619.85 424.2,620.5 424.9,621.05 425.55,621.45 L459.75,655.65 C459.8,678 459.8,668.6 459.65,691 L459.35,731.8 C458.2,772.85 456.45,813.8 454.15,854.7 454.1,855.05 454.1,855.4 454.15,855.75 L522.45,855.75 522.45,550.3z"/>
      <path id="path46" fill="#3A3A3A" fill-opacity="1" d="M522.45,522.75 L522.45,550.3 522.45,855.75 590.3,855.75 590.3,854.7 C588,813.8 586.25,772.85 585.1,731.8 L584.75,691 C584.65,668.6 584.6,678 584.7,655.65 L585.75,586.1 522.45,522.75z"/>
      <path id="path47" fill="#2E2E2E" fill-opacity="1" d="M589.55,859.55 C590,858.35 590.3,857.05 590.3,855.75 L522.45,855.75 522.45,923.55 C524,923.5 525.55,923.15 527.05,922.5 558.6,907.95 579.4,886.95 589.55,859.55z"/>
    </g>
  </g>
  <g id="Calque.__204">
    <g id="shape56">
      <path id="path50" fill="#663300" fill-opacity="1" d="M477.95,314.05 L477.95,369.65 C477.95,381.9 482.3,392.4 490.95,401.05 499.6,409.7 510.05,414 522.3,414 534.55,414 545.05,409.7 553.7,401.05 555.6,399.1 557.3,397.1 558.85,394.95 L522.3,358.45 477.95,314.05z M522.3,161 Q503.9,161 490.95,174 C489.3,175.65 487.8,177.35 486.45,179.15 L522.3,214.95 522.3,161z"/>
      <path id="path53" fill="#4F2700" fill-opacity="1" d="M553.7,174 C545.05,165.35 534.55,161 522.3,161 L522.3,214.95 566.7,259.35 566.7,205.4 C566.7,193.15 562.35,182.65 553.7,174z"/>
      <path id="path54" fill="#7F4513" fill-opacity="1" d="M477.95,205.4 L477.95,243.5 522.3,287.85 522.3,214.95 486.45,179.15 C480.8,186.7 477.95,195.45 477.95,205.4z"/>
      <path id="path55" fill="#733900" fill-opacity="1" d="M477.95,243.5 L477.95,314.05 522.3,358.45 522.3,287.85 477.95,243.5z"/>
      <path id="path56" fill="#6F3B0F" fill-opacity="1" d="M522.3,214.95 L522.3,287.85 566.7,332.25 566.7,259.35 522.3,214.95z"/>
      <path id="path57" fill="#5F2F00" fill-opacity="1" d="M558.85,394.95 C564.1,387.6 566.7,379.2 566.7,369.65 L566.7,332.25 522.3,287.85 522.3,358.45 558.85,394.95z"/>
    </g>
  </g>
  <g id="Calque.__205">
    <g id="shape66">
      <path id="path58" fill="#CCCCCC" fill-opacity="1" d="M664.45,367.2 C662,361.95 658.25,357.75 653.35,354.65 Q645.95,349.9 637.3,349.9 L522.45,349.9 522.45,417.55 C553.65,417.45 602.45,403.8 668.9,376.7 L664.45,367.2z"/>
      <path id="path59" fill="#D9D9D9" fill-opacity="1" d="M380.15,367.2 L376.05,375.95 C440.8,403.8 489.6,417.7 522.45,417.55 L522.45,349.9 407.3,349.9 C401.55,349.9 396.2,351.5 391.3,354.65 386.4,357.75 382.65,361.95 380.15,367.2z"/>
    </g>
  </g>
  <g id="Calque.__206">
    <g id="shape70">
      <path id="path60" fill="#CCCCCC" fill-opacity="1" d="M522.3,103.9 Q519.5,103.9 516.75,104.15 C501.6,105.3 488.5,111.4 477.4,122.45 465.05,134.85 458.85,149.8 458.85,167.35 458.85,184.9 465.05,199.85 477.4,212.2 488.5,223.25 501.6,229.4 516.75,230.6 518.6,230.75 520.45,230.8 522.3,230.8 L522.3,103.9z"/>
      <path id="path61" fill="#999999" fill-opacity="1" d="M585.75,167.35 C585.75,149.8 579.55,134.85 567.15,122.45 554.8,110.1 539.85,103.9 522.3,103.9 L522.3,230.8 C539.85,230.8 554.8,224.6 567.15,212.2 579.55,199.85 585.75,184.9 585.75,167.35z"/>
    </g>
  </g>
  <g id="Calque.__207">
    <g id="shape74">
      <path id="path62" fill="#FFFFFF" fill-opacity="1" d="M508.25,127.45 Q502.9,122.15 495.35,122.15 C490.3,122.15 485.95,123.9 482.4,127.45 478.85,131 477.1,135.35 477.1,140.4 477.1,145.45 478.85,149.7 482.4,153.25 485.95,156.8 490.3,158.6 495.35,158.6 500.4,158.6 504.7,156.8 508.25,153.25 511.8,149.7 513.6,145.45 513.6,140.4 513.6,135.35 511.8,131 508.25,127.45z"/>
    </g>
  </g>
</svg>