<?xml version="1.0" encoding="utf-8"?>
<!-- Generator: flash2svg, http://dissentgraphics.com/tools/flash2svg -->
<svg xmlns:xlink="http://www.w3.org/1999/xlink" id="Apps-Robokill" image-rendering="optimizeSpeed" baseProfile="basic" version="1.1" style="background-color:#ffffff" x="0px" y="0px" width="1024px" height="1024px" viewBox="0 0 1024 1024" enable-background="new 0 0 1024 1024" xmlns="http://www.w3.org/2000/svg">
  <defs transform="matrix(1 0 0 1 0 0) "/>
  <g id="background-circle-shadow">
    <g id="shape">
      <path id="path" fill="#000000" fill-opacity="0.09803921568627451" d="M969.65,351.3 Q961.05,330.45 950.25,310.45 C946.2,302.9 941.9,295.4 937.35,288.05 917.8,256.35 893.95,226.4 865.8,198.25 773.65,106.1 662.35,60 532,60 401.65,60 290.4,106.1 198.25,198.25 121.25,275.25 76.4,365.6 63.8,468.85 61.25,489.7 60,510.6 60,532 60,553.75 61.3,575 63.8,595.25 76.7,699 121.5,789.05 198.25,865.8 290.4,957.95 401.65,1004 532,1004 662.35,1004 773.65,957.95 865.8,865.8 916.55,815 953.35,758.4 976.15,696.05 987.85,664 995.85,630.5 1000.2,595.25 1002.7,574.8 1004,553.65 1004,532 1004,510.5 1002.75,489.55 1000.25,468.85 997.5,446.8 993.3,425.1 987.6,404.05 986.35,399.5 985.05,394.95 983.7,390.45 979.6,377.15 974.9,364.1 969.65,351.3z"/>
    </g>
  </g>
  <g id="background-circle">
    <g id="shape2">
      <path id="path1" fill="#3B4574" fill-opacity="1" d="M969.75,392.05 C968.65,387.7 967.4,383.05 966.1,378.45 965.1,375.05 964.1,371.6 962.95,367.95 961.35,362.8 959.55,357.45 957.65,352.1 951.2,333.85 943.5,316.05 934.5,298.45 930.7,291.05 926.55,283.5 922.2,276.05 901.9,241.55 876.4,208.85 845.85,178.3 773.25,105.7 688.7,61.65 592.2,46.25 575.95,43.65 559.4,41.85 542.15,40.9 532.45,40.35 522.3,40.05 512.05,40.05 502.7,40.05 493.45,40.3 484.15,40.8 365.8,46.9 263.85,92.75 178.3,178.3 96.4,260.2 50.9,357.15 41.8,468.85 Q40.05,490.088 40.05,512.05 C40.05,540.9 42.3,568.8 46.75,595.25 62.7,690.7 106.55,774.1 178.3,845.85 235,902.5 298.85,941.75 369.4,963.4 406.15,974.65 444.2,981.25 484.15,983.35 484.3,983.35 484.4,983.35 484.55,983.35 493.05,983.8 501.15,984.05 509.05,984.05 510.25,984.05 511.15,984.05 512.05,984.05 522.35,984.05 532.55,983.75 542.15,983.25 544.65,983.1 546.9,982.95 549.1,982.8 569.3,981.35 589,978.75 607.8,975.1 615.75,973.55 623.6,971.8 631.2,969.95 712,949.65 783.35,908.35 845.85,845.85 894.45,797.25 930.25,743.35 953.2,684.05 964.15,655.7 972.2,626.15 977.4,595.25 980.85,574.3 983,552.7 983.75,530.55 983.95,524.5 984.05,518.3 984.05,512.05 984.05,511.4 984.05,510.7 984.05,510.05 984.05,509.7 984.05,509.4 984.05,509.05 984,495.5 983.4,482.15 982.3,468.85 980.15,442.65 976,417.05 969.75,392.05z"/>
    </g>
  </g>
  <g id="background-circle1">
    <g id="shape4">
      <path id="path2" fill="#000000" fill-opacity="0.2" d="M969.75,392.05 C968.6,387.7 967.45,383.35 966.25,379 L835.125,247.875 612.725,357.125 468.175,323.025 442.3,297.15 423.475,287.375 389.05,252.95 68.1,676.625 L68.1,676.65 C91.15,739.1 127.8,795.35 178.3,845.85 235,902.5 298.85,941.75 369.4,963.4 406.15,974.65 444.2,981.25 484.15,983.35 484.3,983.35 484.4,983.35 484.55,983.35 493.05,983.8 501.15,984.05 509.05,984.05 Q510.55,984.05 512.05,984.05 C522.35,984.05 532.55,983.75 542.15,983.25 544.65,983.1 546.9,982.95 549.1,982.8 569.3,981.35 589,978.75 607.8,975.1 615.75,973.55 623.6,971.8 631.2,969.95 712,949.65 783.35,908.35 845.85,845.85 894.45,797.25 930.25,743.35 953.2,684.05 964.15,655.7 972.2,626.15 977.4,595.25 980.85,574.3 983,552.7 983.75,530.55 983.95,524.5 984.05,518.3 984.05,512.05 984.05,511.4 984.05,510.7 984.05,510.05 984.05,509.7 984.05,509.4 984.05,509.05 984,495.5 983.4,482.15 982.3,468.85 980.15,442.65 976,417.05 969.75,392.05z"/>
    </g>
  </g>
  <g id="object-shadow">
    <g id="shape6">
      <path id="path3" fill="#FDCE5A" fill-opacity="1" d="M648.15,363.45 Q658.15,363.45 658.15,353.45 L658.15,297.15 C658.15,290.5 654.8,287.15 648.15,287.15 L591.85,287.15 C585.2,287.15 581.85,290.5 581.85,297.15 L581.85,353.45 C581.85,360.1 585.2,363.45 591.85,363.45 L648.15,363.45z"/>
      <path id="path4" fill="#6F5B26" fill-opacity="1" d="M366,353.45 C366,360.1 369.35,363.45 376,363.45 L432.3,363.45 C438.95,363.45 442.3,360.1 442.3,353.45 L442.3,297.15 C442.3,290.5 438.95,287.15 432.3,287.15 L376,287.15 C369.35,287.15 366,290.5 366,297.15 L366,353.45z"/>
    </g>
  </g>
  <g id="Calque.__203">
    <g id="shape9">
      <path id="path5" fill="#FDECA2" fill-opacity="1" d="M340.075,240.125 L358.15,222.05 C337.85,206.15 313.75,198.05 286.3,198.1 253.4,198.05 225.35,209.7 202.1,233 178.8,256.25 167.15,284.3 167.2,317.2 167.15,344.45 175.15,368.4 191.15,389.05 L209.225,370.975 L209.25,371 C198.1,355.65 192.45,337.6 192.45,317.2 192.45,291.3 201.6,269.2 219.95,250.85 238.3,232.5 260.4,223.35 286.3,223.35 306.65,223.35 324.65,229 340.1,240.15 M790.2,239.15 L808.3,221.05 C788.05,205.75 764.55,198.05 737.8,198.1 704.9,198.05 676.8,209.7 653.55,233 630.3,256.25 618.65,284.3 618.65,317.2 618.65,344.05 626.4,367.7 641.6,387.75 L659.725,369.625 Q643.938,346.659 643.9,317.2 C643.95,291.3 653.1,269.2 671.4,250.85 689.75,232.5 711.9,223.35 737.8,223.35 757.55,223.35 775.05,228.65 790.2,239.15z"/>
      <path id="path6" fill="#999999" fill-opacity="1" d="M339.675,257.525 L339.7,257.55 C338.65,256.1 337.5,254.75 336.2,253.45 334.9,252.15 333.55,251 332.15,250 331.75,249.7 331.35,249.45 331,249.2 326.55,246.25 321,244.6 314.8,244.6 306.45,244.6 299.3,247.55 293.4,253.45 L293.35,253.5 C287.45,259.4 284.5,266.55 284.5,274.9 284.5,277.25 284.75,279.55 285.2,281.7 285.95,285.05 287.25,288.2 289.1,291.1 290.45,293.1 291.8,294.75 293.35,296.3 299.3,302.25 306.45,305.2 314.8,305.2 323.15,305.2 330.3,302.25 336.2,296.3 342.15,290.4 345.1,283.25 345.1,274.9 345.1,268.35 343.3,262.6 339.7,257.55 M330.95,263.6 C333.3,266.85 334.5,270.65 334.5,274.9 334.5,280.35 332.6,284.95 328.75,288.8 L328.7,288.85 C324.85,292.7 320.25,294.6 314.8,294.6 309.35,294.6 304.7,292.65 300.85,288.8 299.9,287.85 299.1,286.9 298.4,285.9 297.85,285.05 297.35,284.2 296.9,283.3 295.75,281 295.1,278.1 295.1,274.9 295.1,269.45 297,264.8 300.85,260.95 304.7,257.1 309.35,255.2 314.8,255.2 317.95,255.2 320.8,255.85 323.2,257 325.35,258.05 327.1,259.35 328.7,260.95 329.55,261.8 330.3,262.65 330.95,263.6z"/>
      <path id="path7" fill="#000000" fill-opacity="1" d="M330.95,263.6 C330.3,262.65 329.55,261.8 328.7,260.95 327.1,259.35 325.35,258.05 323.2,257 320.8,255.85 317.95,255.2 314.8,255.2 309.35,255.2 304.7,257.1 300.85,260.95 297,264.8 295.1,269.45 295.1,274.9 295.1,278.1 295.75,281 296.9,283.3 297.35,284.2 297.85,285.05 298.4,285.9 299.1,286.9 299.9,287.85 300.85,288.8 304.7,292.65 309.35,294.6 314.8,294.6 320.25,294.6 324.85,292.7 328.7,288.85 L328.75,288.8 C332.6,284.95 334.5,280.35 334.5,274.9 334.5,270.65 333.3,266.85 330.95,263.6z"/>
      <path id="path10" fill="#FDCE5A" fill-opacity="1" d="M358.15,222.05 L340.075,240.125 L340.1,240.15 C344.65,243.4 348.75,246.9 352.7,250.85 365.75,263.9 374.15,278.85 377.9,295.75 379.45,302.6 380.2,309.75 380.2,317.2 380.15,343.1 371,365.25 352.7,383.6 334.35,401.9 312.2,411.05 286.3,411.1 276.25,411.1 266.8,409.7 257.9,406.95 243.85,402.6 231.2,394.8 219.95,383.6 216.05,379.7 212.55,375.6 209.25,371 L209.225,370.975 L191.15,389.05 C194.45,393.3 198.1,397.45 202.1,401.45 225.35,424.7 253.4,436.35 286.3,436.35 319.2,436.35 347.3,424.7 370.55,401.45 393.8,378.2 405.45,350.1 405.45,317.2 405.45,284.3 393.8,256.25 370.55,233 366.7,229.15 362.7,225.6 358.15,222.05z M808.3,221.05 L790.2,239.15 C795.2,242.65 799.8,246.5 804.15,250.85 818.25,264.95 826.95,281.3 830.2,299.85 831.15,305.4 831.65,311.2 831.65,317.2 831.65,343.1 822.5,365.25 804.15,383.6 785.8,401.9 763.7,411.05 737.8,411.1 715.15,411.05 695.35,404.05 678.45,390.05 676.05,388.05 673.7,385.9 671.4,383.6 667.05,379.25 663.2,374.65 659.75,369.65 L659.725,369.625 L641.6,387.75 C645.4,392.75 649.3,397.2 653.55,401.45 658.4,406.3 663.5,410.7 668.8,414.55 688.8,429.1 711.8,436.35 737.8,436.35 770.7,436.35 798.75,424.7 822,401.45 845.3,378.2 856.95,350.1 856.9,317.2 856.95,284.3 845.3,256.25 822,233 817.65,228.65 813.1,224.7 808.3,221.05z"/>
      <path id="path11" fill="#333333" fill-opacity="1" d="M339.675,257.525 L339.7,257.55 377.9,295.75 C374.15,278.85 365.75,263.9 352.7,250.85 348.75,246.9 344.65,243.4 340.1,240.15 324.65,229 306.65,223.35 286.3,223.35 260.4,223.35 238.3,232.5 219.95,250.85 201.6,269.2 192.45,291.3 192.45,317.2 192.45,337.6 198.1,355.65 209.25,371 212.55,375.6 216.05,379.7 219.95,383.6 231.2,394.8 243.85,402.6 257.9,406.95 L227.8,376.85 227.25,376.3 C227.2,376.25 227.1,376.15 227.05,376.1 222.8,371.8 220.15,366.85 219,361.2 218.6,359.25 218.4,357.1 218.4,354.9 218.4,346.55 221.35,339.4 227.25,333.5 L227.3,333.45 C231.85,328.9 237.15,326.1 243.2,325.05 L229.55,311.4 C228.75,310.75 228,310.05 227.25,309.3 226.5,308.55 225.8,307.8 225.15,307 220.65,301.55 218.4,295.2 218.4,287.9 218.4,279.55 221.35,272.4 227.25,266.5 L227.3,266.45 C233.2,260.55 240.35,257.6 248.7,257.6 256.15,257.6 262.65,259.95 268.15,264.65 268.8,265.2 269.45,265.8 270.1,266.45 270.75,267.1 271.35,267.75 271.95,268.45 L285.2,281.7 C284.75,279.55 284.5,277.25 284.5,274.9 284.5,266.55 287.45,259.4 293.35,253.5 L293.4,253.45 C299.3,247.55 306.45,244.6 314.8,244.6 321,244.6 326.55,246.25 331,249.2 331.35,249.45 331.75,249.7 332.15,250 333.55,251 334.9,252.15 336.2,253.45 337.5,254.75 338.65,256.1 339.7,257.55 M730.7,253.45 L730.75,253.5 C731.6,254.35 732.35,255.2 733.1,256.1 L733.075,256.075 L749.325,272.325 L749.35,272.35 C750.6,270.25 752.15,268.3 754,266.45 759,261.45 764.85,258.6 771.55,257.85 772.85,257.65 774.1,257.6 775.4,257.6 783.75,257.6 790.9,260.55 796.8,266.45 L797.4,267.05 830.175,299.825 L830.2,299.85 C826.95,281.3 818.25,264.95 804.15,250.85 799.8,246.5 795.2,242.65 790.2,239.15 775.05,228.65 757.55,223.35 737.8,223.35 711.9,223.35 689.75,232.5 671.4,250.85 653.1,269.2 643.95,291.3 643.9,317.2 Q643.938,346.659 659.725,369.625 L659.75,369.65 C663.2,374.65 667.05,379.25 671.4,383.6 673.7,385.9 676.05,388.05 678.45,390.05 L678.45,390.025 L688.975,363.35 L689,363.35 C688.65,363 688.25,362.65 687.9,362.3 684.15,358.55 681.6,354.35 680.1,349.25 679.4,346.85 679,343.95 679,340.9 679,332.55 681.95,325.4 687.9,319.45 692.25,315.1 697.25,312.4 702.9,311.25 L702.875,311.225 L689.05,297.4 C688.65,297.05 688.25,296.65 687.9,296.3 681.95,290.4 679,283.25 679,274.9 679,266.55 681.95,259.4 687.9,253.45 693.8,247.55 700.95,244.6 709.3,244.6 716.5,244.6 722.8,246.8 728.15,251.15 729,251.85 729.85,252.6 730.7,253.45z"/>
      <path id="path12" fill="#1A1A1A" fill-opacity="1" d="M339.7,257.55 C343.3,262.6 345.1,268.35 345.1,274.9 345.1,283.25 342.15,290.4 336.2,296.3 330.3,302.25 323.15,305.2 314.8,305.2 306.45,305.2 299.3,302.25 293.35,296.3 291.8,294.75 290.45,293.1 289.1,291.1 287.25,288.2 285.95,285.05 285.2,281.7 L271.95,268.45 C276.65,273.95 279,280.45 279,287.9 279,296.25 276.05,303.4 270.1,309.3 264.2,315.25 257.05,318.2 248.7,318.2 241.4,318.2 235,315.95 229.55,311.4 L243.2,325.05 C244.95,324.75 246.8,324.6 248.7,324.6 251,324.6 253.2,324.8 255,325.2 260.85,326.45 265.8,329.15 270.1,333.45 276.05,339.4 279,346.55 279,354.9 279,363.25 276.05,370.4 270.1,376.3 264.2,382.25 257.05,385.2 248.7,385.2 240.6,385.2 233.65,382.4 227.8,376.85 L257.9,406.95 C266.8,409.7 276.25,411.1 286.3,411.1 312.2,411.05 334.35,401.9 352.7,383.6 371,365.25 380.15,343.1 380.2,317.2 380.2,309.75 379.45,302.6 377.9,295.75 L339.7,257.55z M345.1,340.9 C345.1,349.25 342.15,356.4 336.2,362.3 330.3,368.25 323.15,371.2 314.8,371.2 306.45,371.2 299.3,368.25 293.35,362.3 287.45,356.4 284.5,349.25 284.5,340.9 284.5,332.55 287.45,325.4 293.35,319.5 L293.4,319.45 C299.3,313.55 306.45,310.6 314.8,310.6 323.15,310.6 330.3,313.55 336.2,319.45 342.15,325.4 345.1,332.55 345.1,340.9z"/>
      <path id="path13" fill="#999999" fill-opacity="1" d="M345.1,340.9 C345.1,332.55 342.15,325.4 336.2,319.45 330.3,313.55 323.15,310.6 314.8,310.6 306.45,310.6 299.3,313.55 293.4,319.45 L293.35,319.5 C287.45,325.4 284.5,332.55 284.5,340.9 284.5,349.25 287.45,356.4 293.35,362.3 299.3,368.25 306.45,371.2 314.8,371.2 323.15,371.2 330.3,368.25 336.2,362.3 342.15,356.4 345.1,349.25 345.1,340.9z M334.5,340.9 C334.5,346.35 332.6,350.95 328.75,354.8 L328.7,354.85 C324.85,358.7 320.25,360.6 314.8,360.6 309.35,360.6 304.7,358.65 300.85,354.8 297,350.95 295.1,346.35 295.1,340.9 295.1,335.45 297,330.8 300.85,326.95 304.7,323.1 309.35,321.2 314.8,321.2 320.25,321.2 324.85,323.1 328.7,326.95 332.55,330.8 334.5,335.45 334.5,340.9z M268.15,264.65 C262.65,259.95 256.15,257.6 248.7,257.6 240.35,257.6 233.2,260.55 227.3,266.45 L227.25,266.5 C221.35,272.4 218.4,279.55 218.4,287.9 218.4,295.2 220.65,301.55 225.15,307 225.8,307.8 226.5,308.55 227.25,309.3 228,310.05 228.75,310.75 229.55,311.4 235,315.95 241.4,318.2 248.7,318.2 257.05,318.2 264.2,315.25 270.1,309.3 276.05,303.4 279,296.25 279,287.9 279,280.45 276.65,273.95 271.95,268.45 271.35,267.75 270.75,267.1 270.1,266.45 269.45,265.8 268.8,265.2 268.15,264.65z M262.6,273.95 C266.45,277.8 268.4,282.45 268.4,287.9 268.4,293.35 266.5,297.95 262.65,301.8 L262.6,301.85 C258.75,305.7 254.15,307.6 248.7,307.6 243.25,307.6 238.6,305.65 234.75,301.8 230.9,297.95 229,293.35 229,287.9 229,282.45 230.9,277.8 234.75,273.95 238.6,270.1 243.25,268.2 248.7,268.2 254.15,268.2 258.75,270.1 262.6,273.95z M227.3,333.45 L227.25,333.5 C221.35,339.4 218.4,346.55 218.4,354.9 218.4,357.1 218.6,359.25 219,361.2 220.15,366.85 222.8,371.8 227.05,376.1 227.1,376.15 227.2,376.25 227.25,376.3 L227.8,376.85 C233.65,382.4 240.6,385.2 248.7,385.2 257.05,385.2 264.2,382.25 270.1,376.3 276.05,370.4 279,363.25 279,354.9 279,346.55 276.05,339.4 270.1,333.45 265.8,329.15 260.85,326.45 255,325.2 253.2,324.8 251,324.6 248.7,324.6 246.8,324.6 244.95,324.75 243.2,325.05 237.15,326.1 231.85,328.9 227.3,333.45z M239.55,337.4 C241.1,336.55 242.8,335.95 244.6,335.6 246.05,335.35 247.35,335.2 248.7,335.2 254.15,335.2 258.75,337.1 262.6,340.95 266.45,344.8 268.4,349.45 268.4,354.9 268.4,360.35 266.5,364.95 262.65,368.8 L262.6,368.85 C258.75,372.7 254.15,374.6 248.7,374.6 243.25,374.6 238.6,372.65 234.75,368.8 233.4,367.45 232.3,366.05 231.45,364.55 229.8,361.7 229,358.45 229,354.9 229,353.55 229.1,352.25 229.4,350.8 230.05,347.2 231.85,343.85 234.75,340.95 236.2,339.5 237.8,338.3 239.55,337.4z M730.75,253.5 L730.7,253.45 C729.85,252.6 729,251.85 728.15,251.15 722.8,246.8 716.5,244.6 709.3,244.6 700.95,244.6 693.8,247.55 687.9,253.45 681.95,259.4 679,266.55 679,274.9 679,283.25 681.95,290.4 687.9,296.3 688.25,296.65 688.65,297.05 689.05,297.4 694.7,302.6 701.45,305.2 709.3,305.2 717.65,305.2 724.8,302.25 730.75,296.3 736.65,290.4 739.6,283.25 739.6,274.9 739.6,267.7 737.45,261.45 733.1,256.1 732.35,255.2 731.6,254.35 730.75,253.5z M723.25,260.95 C727.1,264.8 729,269.45 729,274.9 729,280.35 727.1,284.95 723.25,288.8 719.4,292.65 714.75,294.6 709.3,294.6 703.85,294.6 699.25,292.7 695.4,288.85 L695.35,288.8 C691.5,284.95 689.6,280.35 689.6,274.9 689.6,269.45 691.55,264.8 695.4,260.95 699.25,257.1 703.85,255.2 709.3,255.2 714.75,255.2 719.4,257.1 723.25,260.95z M745.35,284.05 C745.15,285.6 745.1,286.75 745.1,287.9 745.1,296.25 748.05,303.4 754,309.3 759.9,315.25 767.05,318.2 775.4,318.2 783.75,318.2 790.9,315.25 796.85,309.3 802.75,303.4 805.7,296.25 805.7,287.9 805.7,279.8 802.95,272.85 797.4,267.05 L796.8,266.45 C790.9,260.55 783.75,257.6 775.4,257.6 774.1,257.6 772.85,257.65 771.55,257.85 764.85,258.6 759,261.45 754,266.45 752.15,268.3 750.6,270.25 749.35,272.35 747.15,275.9 745.8,279.8 745.35,284.05z M761.5,273.95 C765.35,270.1 769.95,268.2 775.4,268.2 780.85,268.2 785.5,270.1 789.35,273.95 793.2,277.8 795.1,282.45 795.1,287.9 795.1,293.35 793.2,297.95 789.35,301.8 785.5,305.65 780.85,307.6 775.4,307.6 769.95,307.6 765.35,305.7 761.5,301.85 L761.45,301.8 C757.6,297.95 755.7,293.35 755.7,287.9 755.7,282.45 757.65,277.8 761.5,273.95z"/>
      <path id="path16" fill="#000000" fill-opacity="1" d="M334.5,340.9 C334.5,335.45 332.55,330.8 328.7,326.95 324.85,323.1 320.25,321.2 314.8,321.2 309.35,321.2 304.7,323.1 300.85,326.95 297,330.8 295.1,335.45 295.1,340.9 295.1,346.35 297,350.95 300.85,354.8 304.7,358.65 309.35,360.6 314.8,360.6 320.25,360.6 324.85,358.7 328.7,354.85 L328.75,354.8 C332.6,350.95 334.5,346.35 334.5,340.9z"/>
      <path id="path21" fill="#000000" fill-opacity="1" d="M262.6,273.95 C258.75,270.1 254.15,268.2 248.7,268.2 243.25,268.2 238.6,270.1 234.75,273.95 230.9,277.8 229,282.45 229,287.9 229,293.35 230.9,297.95 234.75,301.8 238.6,305.65 243.25,307.6 248.7,307.6 254.15,307.6 258.75,305.7 262.6,301.85 L262.65,301.8 C266.5,297.95 268.4,293.35 268.4,287.9 268.4,282.45 266.45,277.8 262.6,273.95z"/>
      <path id="path26" fill="#000000" fill-opacity="1" d="M239.55,337.4 C237.8,338.3 236.2,339.5 234.75,340.95 231.85,343.85 230.05,347.2 229.4,350.8 229.1,352.25 229,353.55 229,354.9 229,358.45 229.8,361.7 231.45,364.55 232.3,366.05 233.4,367.45 234.75,368.8 238.6,372.65 243.25,374.6 248.7,374.6 254.15,374.6 258.75,372.7 262.6,368.85 L262.65,368.8 C266.5,364.95 268.4,360.35 268.4,354.9 268.4,349.45 266.45,344.8 262.6,340.95 258.75,337.1 254.15,335.2 248.7,335.2 247.35,335.2 246.05,335.35 244.6,335.6 242.8,335.95 241.1,336.55 239.55,337.4z"/>
      <path id="path33" fill="#000000" fill-opacity="1" d="M723.25,260.95 C719.4,257.1 714.75,255.2 709.3,255.2 703.85,255.2 699.25,257.1 695.4,260.95 691.55,264.8 689.6,269.45 689.6,274.9 689.6,280.35 691.5,284.95 695.35,288.8 L695.4,288.85 C699.25,292.7 703.85,294.6 709.3,294.6 714.75,294.6 719.4,292.65 723.25,288.8 727.1,284.95 729,280.35 729,274.9 729,269.45 727.1,264.8 723.25,260.95z"/>
      <path id="path38" fill="#000000" fill-opacity="1" d="M761.5,273.95 C757.65,277.8 755.7,282.45 755.7,287.9 755.7,293.35 757.6,297.95 761.45,301.8 L761.5,301.85 C765.35,305.7 769.95,307.6 775.4,307.6 780.85,307.6 785.5,305.65 789.35,301.8 793.2,297.95 795.1,293.35 795.1,287.9 795.1,282.45 793.2,277.8 789.35,273.95 785.5,270.1 780.85,268.2 775.4,268.2 769.95,268.2 765.35,270.1 761.5,273.95z"/>
      <path id="path45" fill="#1D1D1D" fill-opacity="1" d="M739.6,274.9 C739.6,283.25 736.65,290.4 730.75,296.3 724.8,302.25 717.65,305.2 709.3,305.2 701.45,305.2 694.7,302.6 689.05,297.4 L702.875,311.225 L702.9,311.25 C704.95,310.8 707.05,310.6 709.3,310.6 712.3,310.6 715.15,311 717.65,311.7 722.6,313.1 726.9,315.65 730.7,319.45 L730.75,319.5 C736.65,325.4 739.6,332.55 739.6,340.9 739.6,349.25 736.65,356.4 730.75,362.3 724.8,368.25 717.65,371.2 709.3,371.2 701.45,371.2 694.65,368.6 689,363.35 L688.975,363.35 L678.45,390.025 L678.45,390.05 C695.35,404.05 715.15,411.05 737.8,411.1 763.7,411.05 785.8,401.9 804.15,383.6 822.5,365.25 831.65,343.1 831.65,317.2 831.65,311.2 831.15,305.4 830.2,299.85 L830.175,299.825 L797.4,267.05 C802.95,272.85 805.7,279.8 805.7,287.9 805.7,296.25 802.75,303.4 796.85,309.3 790.9,315.25 783.75,318.2 775.4,318.2 767.05,318.2 759.9,315.25 754,309.3 748.05,303.4 745.1,296.25 745.1,287.9 745.1,286.75 745.15,285.6 745.35,284.05 745.8,279.8 747.15,275.9 749.35,272.35 L749.325,272.325 L733.075,256.075 L733.1,256.1 C737.45,261.45 739.6,267.7 739.6,274.9z M796.8,333.45 L796.85,333.5 C802.75,339.4 805.7,346.55 805.7,354.9 805.7,363.25 802.75,370.4 796.85,376.3 790.9,382.25 783.75,385.2 775.4,385.2 767.05,385.2 759.9,382.25 754,376.3 748.05,370.4 745.1,363.25 745.1,354.9 745.1,346.55 748.05,339.4 754,333.45 759.9,327.55 767.05,324.6 775.4,324.6 783.75,324.6 790.9,327.55 796.8,333.45z"/>
      <path id="path46" fill="#999999" fill-opacity="1" d="M796.8,333.45 C790.9,327.55 783.75,324.6 775.4,324.6 767.05,324.6 759.9,327.55 754,333.45 748.05,339.4 745.1,346.55 745.1,354.9 745.1,363.25 748.05,370.4 754,376.3 759.9,382.25 767.05,385.2 775.4,385.2 783.75,385.2 790.9,382.25 796.85,376.3 802.75,370.4 805.7,363.25 805.7,354.9 805.7,346.55 802.75,339.4 796.85,333.5 L796.8,333.45z M789.35,340.95 C793.2,344.8 795.1,349.45 795.1,354.9 795.1,360.35 793.2,364.95 789.35,368.8 785.5,372.65 780.85,374.6 775.4,374.6 769.95,374.6 765.35,372.7 761.5,368.85 L761.45,368.8 C757.6,364.95 755.7,360.35 755.7,354.9 755.7,349.45 757.65,344.8 761.5,340.95 765.35,337.1 769.95,335.2 775.4,335.2 780.85,335.2 785.5,337.1 789.35,340.95z M717.65,311.7 C715.15,311 712.3,310.6 709.3,310.6 707.05,310.6 704.95,310.8 702.9,311.25 697.25,312.4 692.25,315.1 687.9,319.45 681.95,325.4 679,332.55 679,340.9 679,343.95 679.4,346.85 680.1,349.25 681.6,354.35 684.15,358.55 687.9,362.3 688.25,362.65 688.65,363 689,363.35 694.65,368.6 701.45,371.2 709.3,371.2 717.65,371.2 724.8,368.25 730.75,362.3 736.65,356.4 739.6,349.25 739.6,340.9 739.6,332.55 736.65,325.4 730.75,319.5 L730.7,319.45 C726.9,315.65 722.6,313.1 717.65,311.7z M713,321.55 C716.85,322.2 720.3,324 723.25,326.95 727.1,330.8 729,335.45 729,340.9 729,346.35 727.1,350.95 723.25,354.8 719.4,358.65 714.75,360.6 709.3,360.6 703.85,360.6 699.25,358.7 695.4,354.85 L695.35,354.8 C691.5,350.95 689.6,346.35 689.6,340.9 689.6,340.5 689.6,340.1 689.65,339.75 689.9,334.8 691.85,330.55 695.4,326.95 698.95,323.4 703.2,321.5 708.15,321.25 708.5,321.2 708.9,321.2 709.3,321.2 710.55,321.2 711.8,321.3 713,321.55z"/>
      <path id="path49" fill="#000000" fill-opacity="1" d="M789.35,340.95 C785.5,337.1 780.85,335.2 775.4,335.2 769.95,335.2 765.35,337.1 761.5,340.95 757.65,344.8 755.7,349.45 755.7,354.9 755.7,360.35 757.6,364.95 761.45,368.8 L761.5,368.85 C765.35,372.7 769.95,374.6 775.4,374.6 780.85,374.6 785.5,372.65 789.35,368.8 793.2,364.95 795.1,360.35 795.1,354.9 795.1,349.45 793.2,344.8 789.35,340.95z"/>
      <path id="path54" fill="#000000" fill-opacity="1" d="M713,321.55 C711.8,321.3 710.55,321.2 709.3,321.2 708.9,321.2 708.5,321.2 708.15,321.25 703.2,321.5 698.95,323.4 695.4,326.95 691.85,330.55 689.9,334.8 689.65,339.75 689.6,340.1 689.6,340.5 689.6,340.9 689.6,346.35 691.5,350.95 695.35,354.8 L695.4,354.85 C699.25,358.7 703.85,360.6 709.3,360.6 714.75,360.6 719.4,358.65 723.25,354.8 727.1,350.95 729,346.35 729,340.9 729,335.45 727.1,330.8 723.25,326.95 720.3,324 716.85,322.2 713,321.55z"/>
    </g>
  </g>
  <g id="object">
    <g id="shape64">
      <path id="path57" fill="#181407" fill-opacity="1" d="M612.05,816.05 Q612.05,806.05 602.05,806.05 L422.05,806.05 C415.4,806.05 412.05,809.4 412.05,816.05 L412.05,926.05 C412.05,932.7 415.4,936.05 422.05,936.05 L602.05,936.05 C608.7,936.05 612.05,932.7 612.05,926.05 L612.05,816.05z"/>
    </g>
  </g>
  <mask id="background-circle2">
    <g id="g">
      <g id="shape70">
        <path id="path60" fill="#FFFFFF" fill-opacity="1" d="M969.75,392.05 C968.65,387.7 967.4,383.05 966.1,378.45 965.1,375.05 964.1,371.6 962.95,367.95 961.35,362.8 959.55,357.45 957.65,352.1 951.2,333.85 943.5,316.05 934.5,298.45 930.7,291.05 926.55,283.5 922.2,276.05 901.9,241.55 876.4,208.85 845.85,178.3 773.25,105.7 688.7,61.65 592.2,46.25 575.95,43.65 559.4,41.85 542.15,40.9 532.45,40.35 522.3,40.05 512.05,40.05 502.7,40.05 493.45,40.3 484.15,40.8 365.8,46.9 263.85,92.75 178.3,178.3 Q40.05,316.55 40.05,512.05 C40.05,642.4 86.15,753.7 178.3,845.85 235,902.5 298.85,941.75 369.4,963.4 406.15,974.65 444.2,981.25 484.15,983.35 484.3,983.35 484.4,983.35 484.55,983.35 493.05,983.8 501.15,984.05 509.05,984.05 510.25,984.05 511.15,984.05 512.05,984.05 522.35,984.05 532.55,983.75 542.15,983.25 544.65,983.1 546.9,982.95 549.1,982.8 569.3,981.35 589,978.75 607.8,975.1 615.75,973.55 623.6,971.8 631.2,969.95 712,949.65 783.35,908.35 845.85,845.85 894.45,797.25 930.25,743.35 953.2,684.05 971.65,636.4 981.85,585.25 983.75,530.55 983.95,524.5 984.05,518.3 984.05,512.05 984.05,511.4 984.05,510.7 984.05,510.05 984.05,509.7 984.05,509.4 984.05,509.05 983.85,468.4 979.1,429.55 969.75,392.05z"/>
      </g>
    </g>
  </mask>
  <g id="masked" mask="url(#background-circle2)">
    <g id="Calque.__204">
      <g id="shape66">
        <path id="path58" fill="#D0AC3D" fill-opacity="1" d="M528.05,907.675 Q520.179,907.05 512.05,907.05 C461.9,907.05 419.15,924.75 383.7,960.2 348.25,995.65 330.55,1038.4 330.55,1088.55 330.55,1138.7 348.25,1181.45 383.7,1216.9 419.15,1252.35 461.9,1270.05 512.05,1270.05 517.5,1270.05 522.8,1269.85 528.05,1269.45 484.75,1266 447.3,1248.5 415.7,1216.9 380.25,1181.45 362.55,1138.7 362.55,1088.55 362.55,1038.4 380.25,995.65 415.7,960.2 447.3,928.6 484.75,911.1 528.05,907.7"/>
        <path id="path59" fill="#705C21" fill-opacity="1" d="M640.4,960.2 C608.8,928.6 571.35,911.1 528.05,907.7 484.75,911.1 447.3,928.6 415.7,960.2 380.25,995.65 362.55,1038.4 362.55,1088.55 362.55,1138.7 380.25,1181.45 415.7,1216.9 447.3,1248.5 484.75,1266 528.05,1269.45 571.35,1266 608.8,1248.5 640.4,1216.9 675.85,1181.45 693.55,1138.7 693.55,1088.55 693.55,1038.4 675.85,995.65 640.4,960.2z"/>
      </g>
    </g>
  </g>
  <g id="Calque.__205">
    <g id="shape72">
      <path id="path61" fill="#181406" fill-opacity="1" d="M929.45,564.05 Q929.45,554.05 919.45,554.05 L109.45,554.05 C102.8,554.05 99.45,557.4 99.45,564.05 L99.45,630.05 C99.45,636.7 102.8,640.05 109.45,640.05 L919.45,640.05 C926.1,640.05 929.45,636.7 929.45,630.05 L929.45,564.05z"/>
    </g>
  </g>
  <mask id="background-circle3">
    <g id="g1">
      <g id="shape83">
        <path id="path68" fill="#FFFFFF" fill-opacity="1" d="M969.75,392.05 C968.65,387.7 967.4,383.05 966.1,378.45 965.1,375.05 964.1,371.6 962.95,367.95 961.35,362.8 959.55,357.45 957.65,352.1 951.2,333.85 943.5,316.05 934.5,298.45 930.7,291.05 926.55,283.5 922.2,276.05 901.9,241.55 876.4,208.85 845.85,178.3 773.25,105.7 688.7,61.65 592.2,46.25 575.95,43.65 559.4,41.85 542.15,40.9 532.45,40.35 522.3,40.05 512.05,40.05 502.7,40.05 493.45,40.3 484.15,40.8 365.8,46.9 263.85,92.75 178.3,178.3 Q40.05,316.55 40.05,512.05 C40.05,642.4 86.15,753.7 178.3,845.85 235,902.5 298.85,941.75 369.4,963.4 406.15,974.65 444.2,981.25 484.15,983.35 484.3,983.35 484.4,983.35 484.55,983.35 493.05,983.8 501.15,984.05 509.05,984.05 510.25,984.05 511.15,984.05 512.05,984.05 522.35,984.05 532.55,983.75 542.15,983.25 544.65,983.1 546.9,982.95 549.1,982.8 569.3,981.35 589,978.75 607.8,975.1 615.75,973.55 623.6,971.8 631.2,969.95 712,949.65 783.35,908.35 845.85,845.85 894.45,797.25 930.25,743.35 953.2,684.05 971.65,636.4 981.85,585.25 983.75,530.55 983.95,524.5 984.05,518.3 984.05,512.05 984.05,511.4 984.05,510.7 984.05,510.05 984.05,509.7 984.05,509.4 984.05,509.05 983.85,468.4 979.1,429.55 969.75,392.05z"/>
      </g>
    </g>
  </mask>
  <g id="masked1" mask="url(#background-circle3)">
    <g id="Calque.__206">
      <g id="shape74">
        <path id="path62" fill="#FDECA2" fill-opacity="1" d="M916,516.15 C909.35,516.15 906,519.5 906,526.15 L906,594.15 984,516.15 916,516.15z M118.15,526.15 C118.15,519.5 114.8,516.15 108.15,516.15 L-21.3,516.15 C-27.95,516.15 -31.3,519.5 -31.3,526.15 L-31.3,727.5 118.15,578.05 118.15,526.15z"/>
        <path id="path63" fill="#FDCE5A" fill-opacity="1" d="M1045.45,516.15 L984,516.15 906,594.15 906,869.15 C906,875.8 909.35,879.15 916,879.15 L1045.45,879.15 C1052.1,879.15 1055.45,875.8 1055.45,869.15 L1055.45,526.15 C1055.45,519.5 1052.1,516.15 1045.45,516.15z M-31.3,869.15 C-31.3,875.8 -27.95,879.15 -21.3,879.15 L108.15,879.15 C114.8,879.15 118.15,875.8 118.15,869.15 L118.15,578.05 -31.3,727.5 -31.3,869.15z"/>
      </g>
    </g>
  </g>
  <g id="Calque.__207">
    <g id="shape85">
      <path id="path69" fill="#E6BD51" fill-opacity="1" d="M159.1,619.2 L158.65,619.2 158.65,656.2 196.05,656.2 159.1,619.2z"/>
      <path id="path70" fill="#2F260F" fill-opacity="1" d="M769.5,778.75 C818.1,742.95 850.1,702.1 865.5,656.2 L515.1,656.2 343.6,827.7 C364.45,835.8 386.2,842.25 408.95,847.05 441.4,853.85 475.8,857.25 512.05,857.25 612.6,857.25 698.4,831.1 769.5,778.75z"/>
      <path id="path71" fill="#6F5B26" fill-opacity="1" d="M196.05,656.2 L158.65,656.2 C174,702.1 206,742.95 254.6,778.75 282.05,798.95 311.75,815.25 343.6,827.7 L515.1,656.2 196.05,656.2z"/>
      <path id="path72" fill="#FDCE5A" fill-opacity="1" d="M876.15,589.25 Q876.15,523.317 838.525,468.85 L838.55,468.85 C821.4,444 798.35,421 769.5,399.75 740.85,378.7 709.85,361.85 676.5,349.3 636.35,334.15 592.7,325.1 545.6,322.25 L545.6,619.2 865.5,619.2 874.15,619.2 C875.2,611.35 875.85,603.4 876.1,595.25 876.15,593.25 876.15,591.25 876.15,589.25z M482.3,322.05 C476.5,322.35 470.75,322.75 465.05,323.25 384.5,330.3 314.35,355.8 254.6,399.75 245.15,406.7 236.3,413.9 228.1,421.25 211.3,436.3 197.15,452.2 185.6,468.85 160.5,505.15 147.95,545.3 147.95,589.25 147.95,591.25 148,593.25 148.05,595.25 148.25,603.4 148.9,611.35 150,619.2 L158.65,619.2 159.1,619.2 482.3,619.2 482.3,322.05z M535.85,321.75 C535.25,321.7 534.65,321.7 534.05,321.7 526.8,321.4 519.45,321.25 512.05,321.25 505.15,321.25 498.35,321.35 491.6,321.6 491.25,321.65 490.9,321.65 490.55,321.65 489.5,321.7 488.5,321.75 487.45,321.8 L487.45,619.2 540.8,619.2 540.8,322 C539.8,321.95 538.8,321.9 537.8,321.85 537.3,321.8 536.8,321.8 536.3,321.8 536.15,321.75 536,321.75 535.85,321.75z"/>
      <path id="path73" fill="#CFAB47" fill-opacity="1" d="M865.5,656.2 L865.5,619.2 545.6,619.2 540.8,619.2 487.45,619.2 486.8,619.2 482.3,619.2 159.1,619.2 196.05,656.2 515.1,656.2 865.5,656.2z"/>
      <path id="path76" fill="#B49437" fill-opacity="1" d="M483.8,321.95 C483.3,322 482.8,322 482.3,322.05 L482.3,619.2 486.8,619.2 486.8,321.8 C485.8,321.85 484.8,321.9 483.8,321.95z"/>
      <path id="path79" fill="#B6961D" fill-opacity="1" d="M544.55,322.2 C543.3,322.1 542.05,322.05 540.8,322 L540.8,619.2 545.6,619.2 545.6,322.25 C545.25,322.2 544.9,322.2 544.55,322.2z"/>
      <path id="path80" fill="#B5952C" fill-opacity="1" d="M487.45,321.8 C487.2,321.8 487,321.8 486.8,321.8 L486.8,619.2 487.45,619.2 487.45,321.8z"/>
    </g>
  </g>
  <g id="object1">
    <g id="Symbole.__206_1" overflow="visible">
      <g id="Calque.__209">
        <g id="shape134">
          <path id="path110" fill="#B49437" fill-opacity="1" d="M584.6,439.75 C584.95,436.85 585.75,434.3 587.15,431.95 L575.8,443.3 C577.9,441.55 580.9,440.3 584.6,439.75z M439.45,439.75 C443.25,440.4 446.15,441.6 448.2,443.3 L436.85,431.95 C438.25,434.4 439.05,436.9 439.45,439.75z"/>
          <path id="path111" fill="#B3933F" fill-opacity="1" d="M816.3,566.15 C813,568.85 808.35,570.2 802.3,570.2 L604.3,570.2 C597.2,570.2 592,568.3 588.55,564.35 585.75,561.25 584.3,556.45 584.3,550.2 L584.3,531.8 545.5,531.8 545.5,546.1 569.3,546.1 569.3,565.2 C569.3,578.55 576.55,585.2 591,585.2 L671.9,585.2 794.65,585.2 C808.75,585.2 815.95,578.85 816.3,566.15z M584.3,444.2 C584.3,442.75 584.4,441.4 584.6,439.75 580.9,440.3 577.9,441.55 575.8,443.3 574.75,444.15 573.8,445.1 572.95,446.15 571.6,448 570.65,450.05 570.15,452.1 L570.125,452.1 L584.3,452.1 584.3,444.2z M439.7,452.1 L453.875,452.1 Q452.955,448.655 451.05,446.15 C450.2,445.1 449.25,444.15 448.2,443.3 446.15,441.6 443.25,440.4 439.45,439.75 439.6,441.4 439.7,442.75 439.7,444.2 L439.7,452.1z M482.25,546.1 L482.25,531.8 439.7,531.8 439.7,550.2 C439.7,563.55 433.05,570.2 419.7,570.2 L221.7,570.2 C215.75,570.2 211.15,568.9 207.7,566.15 208.05,578.85 215.25,585.2 229.35,585.2 L433,585.2 C447.45,585.2 454.7,578.55 454.7,565.2 L454.7,546.1 482.25,546.1z"/>
          <path id="path112" fill="#FDECA2" fill-opacity="1" d="M584.6,439.75 C584.4,441.4 584.3,442.75 584.3,444.2 L584.3,452.1 570.125,452.1 545.5,452.1 545.5,493.65 C565.55,491.3 584.95,488.6 603.75,485.65 608.8,484.85 613.75,484.05 618.7,483.2 616.3,480.35 615.25,477.1 615.5,473.45 615.75,469.65 617.35,466.5 620.2,464 621.7,462.65 623.35,461.75 625.1,461.2 626.65,460.7 628.35,460.5 630.1,460.65 L673.15,463.45 703.5,465.4 C732.7,457.9 756.5,449.9 774.95,441.45 L671.9,431.05 604.3,424.2 C600,424.2 596.4,424.9 593.9,426.1 590.9,427.5 588.65,429.5 587.15,431.95 585.75,434.3 584.95,436.85 584.6,439.75z M221.7,444.2 C208.15,445.55 201.7,450.85 201.7,464.2 L201.7,504.975 L201.7,505 C232.55,506.15 264.55,506.7 297.65,506.7 309.95,506.7 322.1,506.6 334.05,506.45 386.35,505.75 435.75,503.55 482.25,499.85 L482.25,452.1 453.875,452.1 439.7,452.1 439.7,444.2 C439.7,442.75 439.6,441.4 439.45,439.75 439.05,436.9 438.25,434.4 436.85,431.95 435.4,429.6 433.15,427.5 430.1,426.1 427.6,424.9 424,424.2 419.7,424.2 L307.75,435.5 221.7,444.2z"/>
          <path id="path113" fill="#EE4920" fill-opacity="1" d="M630.1,460.65 C628.35,460.5 626.65,460.7 625.1,461.2 623.35,461.75 621.7,462.65 620.2,464 617.35,466.5 615.75,469.65 615.5,473.45 615.25,477.1 616.3,480.35 618.7,483.2 618.75,483.25 618.8,483.35 618.85,483.4 621.35,486.25 624.5,487.85 628.3,488.1 L671,490.9 671.4,490.9 C675,491.05 678.2,489.95 680.95,487.5 683.8,485 685.35,481.85 685.6,478.1 685.8,475.25 685.2,472.65 683.8,470.25 683.4,469.6 682.85,468.85 682.25,468.15 679.8,465.35 676.8,463.8 673.15,463.45 L630.1,460.65z M695.35,543.55 C699,543.4 702.1,542.05 704.7,539.45 707.35,536.75 708.7,533.5 708.65,529.7 708.6,525.95 707.25,522.7 704.55,520.05 701.9,517.45 698.8,516.1 695.2,516.05 L629.15,516.45 C625.35,516.5 622.1,517.85 619.45,520.55 616.75,523.25 615.4,526.5 615.45,530.3 615.5,534.05 616.85,537.3 619.55,540 622.25,542.65 625.5,544 629.3,543.95 L695.35,543.55z"/>
          <path id="path114" fill="#FDCE5A" fill-opacity="1" d="M618.85,483.4 C618.8,483.35 618.75,483.25 618.7,483.2 613.75,484.05 608.8,484.85 603.75,485.65 584.95,488.6 565.55,491.3 545.5,493.65 L545.5,531.8 584.3,531.8 584.3,550.2 C584.3,556.45 585.75,561.25 588.55,564.35 592,568.3 597.2,570.2 604.3,570.2 L802.3,570.2 C808.35,570.2 813,568.85 816.3,566.15 820.3,562.8 822.3,557.5 822.3,550.2 L822.3,539.2 822.3,534.2 822.3,464.2 C822.3,459.9 821.65,456.45 820.15,453.4 817.45,447.85 811.5,445.1 802.3,444.2 L774.95,441.45 C756.5,449.9 732.7,457.9 703.5,465.4 L779.15,470.3 C782.4,470.5 785.2,471.7 787.5,473.85 787.85,474.2 788.2,474.55 788.55,474.95 791.1,477.8 792.25,481.1 792,484.9 791.75,488.65 790.2,491.8 787.35,494.3 784.5,496.8 781.15,497.95 777.4,497.75 L671.4,490.9 671,490.9 628.3,488.1 C624.5,487.85 621.35,486.25 618.85,483.4z M439.7,550.2 L439.7,531.8 482.25,531.8 482.25,499.85 C435.75,503.55 386.35,505.75 334.05,506.45 322.1,506.6 309.95,506.7 297.65,506.7 264.55,506.7 232.55,506.15 201.7,505 L201.7,504.975 L201.7,534.2 201.7,539.2 201.7,550.2 C201.7,557.6 203.75,562.95 207.7,566.15 211.15,568.9 215.75,570.2 221.7,570.2 L419.7,570.2 C433.05,570.2 439.7,563.55 439.7,550.2z"/>
          <path id="path115" fill="#333333" fill-opacity="1" d="M787.9,519.45 C785.2,516.75 781.95,515.4 778.15,515.45 L695.2,516.05 C698.8,516.1 701.9,517.45 704.55,520.05 707.25,522.7 708.6,525.95 708.65,529.7 708.7,533.5 707.35,536.75 704.7,539.45 702.1,542.05 699,543.4 695.35,543.55 L778.35,542.95 C782.1,542.9 785.35,541.55 788.05,538.85 789.7,537.15 790.85,535.25 791.5,533.1 791.85,531.85 792,530.5 792,529.1 791.95,525.35 790.6,522.1 787.9,519.45z M683.8,470.25 C685.2,472.65 685.8,475.25 685.6,478.1 685.35,481.85 683.8,485 680.95,487.5 678.2,489.95 675,491.05 671.4,490.9 L777.4,497.75 C781.15,497.95 784.5,496.8 787.35,494.3 790.2,491.8 791.75,488.65 792,484.9 792.25,481.1 791.1,477.8 788.55,474.95 788.2,474.55 787.85,474.2 787.5,473.85 785.2,471.7 782.4,470.5 779.15,470.3 L703.5,465.4 673.15,463.45 C676.8,463.8 679.8,465.35 682.25,468.15 682.85,468.85 683.4,469.6 683.8,470.25z M236.7,494.3 C239.55,496.85 242.85,498 246.65,497.75 L317.35,493.15 C313.7,493.3 310.5,492.15 307.75,489.7 304.9,487.2 303.35,484.05 303.1,480.3 302.85,476.5 303.95,473.2 306.5,470.35 308.95,467.6 311.95,466.05 315.55,465.7 L244.85,470.3 C241.1,470.55 237.95,472.1 235.45,474.95 232.9,477.8 231.8,481.1 232.05,484.9 232.3,488.65 233.85,491.8 236.7,494.3z M277.1,519.75 C279.75,517.15 282.85,515.8 286.5,515.75 L245.85,515.45 C242.05,515.4 238.8,516.75 236.1,519.45 233.4,522.1 232.05,525.35 232,529.1 232,530.5 232.15,531.85 232.55,533.1 233.15,535.25 234.3,537.15 236,538.85 238.65,541.55 241.9,542.9 245.65,542.95 L286.3,543.25 C282.65,543.15 279.55,541.8 277,539.15 274.3,536.45 272.95,533.2 273,529.4 273,528.7 273.05,528 273.2,527.2 273.6,524.45 274.9,521.9 277.1,519.75z"/>
          <path id="path116" fill="#EB4A2C" fill-opacity="1" d="M306.5,470.35 C303.95,473.2 302.85,476.5 303.1,480.3 303.35,484.05 304.9,487.2 307.75,489.7 310.5,492.15 313.7,493.3 317.35,493.15 L395.7,488.1 C399.45,487.85 402.6,486.3 405.1,483.45 407.65,480.6 408.8,477.25 408.55,473.5 408.3,469.7 406.75,466.55 403.9,464.05 402.45,462.8 400.9,461.85 398.95,461.2 397.55,460.75 395.8,460.55 393.95,460.65 L315.55,465.7 C311.95,466.05 308.95,467.6 306.5,470.35z M408.55,530.3 C408.6,526.5 407.25,523.25 404.6,520.55 401.9,517.85 398.65,516.5 394.9,516.45 L287.2,515.75 C287.1,515.75 287,515.75 286.85,515.75 286.7,515.75 286.6,515.75 286.5,515.75 282.85,515.8 279.75,517.15 277.1,519.75 274.9,521.9 273.6,524.45 273.2,527.2 273.05,528 273,528.7 273,529.4 272.95,533.2 274.3,536.45 277,539.15 279.55,541.8 282.65,543.15 286.3,543.25 286.4,543.25 286.5,543.25 286.65,543.25 286.8,543.25 286.9,543.25 287,543.25 L394.7,543.95 C398.5,544 401.75,542.65 404.45,540 407.15,537.3 408.5,534.05 408.55,530.3z"/>
        </g>
      </g>
    </g>
  </g>
</svg>