
<svg xmlns="http://www.w3.org/2000/svg" version="1.1" xmlns:xlink="http://www.w3.org/1999/xlink" preserveAspectRatio="none" x="0px" y="0px" width="1024px" height="1024px" viewBox="0 0 1024 1024">
<defs>
<g id="Layer3_0_FILL">
<path fill="#000000" fill-opacity="0.09803921568627451" stroke="none" d="
M 969.6 351.25
Q 961 330.4 950.2 310.4 944.1 299.05 937.3 288 907.95 240.45 865.75 198.2 727.5 59.95 531.95 59.95 336.45 59.95 198.2 198.2 59.95 336.45 59.95 531.95 59.95 727.5 198.2 865.75 336.45 1003.95 531.95 1003.95 727.5 1003.95 865.75 865.75 941.9 789.55 976.1 696 1003.95 619.75 1003.95 531.95 1003.95 464.6 987.55 404 985.7 397.15 983.65 390.4 977.5 370.45 969.6 351.25 Z"/>
</g>

<g id="Layer2_0_FILL">
<path fill="#333333" stroke="none" d="
M 969.7 392
Q 967.95 385.15 966.05 378.4 964.52578125 373.114453125 962.85 367.85 960.3787109375 359.903125 957.6 352.05 947.85 324.5 934.45 298.4 928.65 287.05 922.15 276 891.5 224 845.8 178.25 736.8 69.25 592.15 46.2 567.65 42.3 542.1 40.85 527.2 40 512 40 497.9 40 484.1 40.75 306.55 49.95 178.25 178.25 40 316.5 40 512 40 707.55 178.25 845.8 263.0400390625 930.55703125 369.35 963.35 423.8880859375 980.1630859375 484.1 983.3 484.3 983.3 484.5 983.3 496.65 983.9 509 984 510.5 984 512 984 527.25 984 542.1 983.2 545.6 983 549.05 982.75 579.1 980.6 607.75 975.05 619.55 972.75 631.15 969.9 751.75 939.85 845.8 845.8 918.7 772.85 953.15 684 980.9 612.4 983.7 530.5 984 521.3 984 512 984 511 984 510 984 509.5 984 509 983.65 447.7 969.7 392 Z"/>
</g>

<g id="Layer1_0_FILL">
<path fill="#000000" fill-opacity="0.2" stroke="none" d="
M 982.55 551.1
L 711.05 279.6 498 203.2 341 272 264.9 455.3 275.2 502 325.05 551.85 298.5 688.9 588.05 978.45
Q 597.9767578125 976.9431640625 607.75 975.05 619.55 972.75 631.15 969.9 751.75 939.85 845.8 845.8 918.7 772.85 953.15 684 977.37578125 621.4931640625 982.55 551.1 Z"/>
</g>

<g id="Layer0_0_FILL">
<path fill="#C4271D" stroke="none" d="
M 756.1 491.95
Q 762.9 463.35 762.9 431.8 762.9 327.85 689.35 254.3 615.85 180.8 511.95 180.8 408.1 180.8 334.55 254.3 261.05 327.85 261.05 431.8 261.05 463.35 267.85 491.95 270.15 501.75 278.7 507.05 287.25 512.25 297.05 509.95 306.75 507.65 312.05 499.1 316.55 491.7 315.55 483.4 350.75 467.7 442.85 555.9 460.25 613 396.65 622.85 318.55 620.55 327.4 539.75
L 292.8 525.9
Q 244.55 537.2 288.75 599.75 285.85 604.95 285.85 611.3
L 285.85 666.7
Q 285.85 676.75 293 683.9 300.05 690.95 310.1 690.95 320.15 690.95 327.3 683.9 334.35 676.75 334.35 666.7
L 334.35 656.9
Q 355.9 645.7 393.2 669.6
L 393.2 782.1
Q 393.2 792.15 400.35 799.3 407.4 806.35 417.45 806.35 427.5 806.35 434.65 799.3 441.7 792.15 441.7 782.1
L 441.7 708.95
Q 463.15 729.35 487.85 757.2
L 487.85 819.05
Q 487.85 829.1 495 836.25 502.05 843.3 511.95 843.3 521.9 843.3 528.95 836.25 536.1 829.1 536.1 819.05
L 536.1 757.2
Q 560.9 729.35 582.25 708.95
L 582.25 782.1
Q 582.25 792.15 589.3 799.3 596.45 806.35 606.5 806.35 616.55 806.35 623.6 799.3 630.75 792.15 630.75 782.1
L 630.75 669.6
Q 668 645.8 689.6 656.9
L 689.6 666.7
Q 689.6 676.75 696.65 683.9 703.8 690.95 713.85 690.95 723.9 690.95 730.9 683.9 738.05 676.75 738.05 666.7
L 738.05 611.3
Q 738.05 604.95 735.2 599.75 779.4 537.2 731.15 525.9
L 696.5 539.75
Q 705.4 620.55 627.25 622.85 563.65 613 581.1 555.9 673.2 467.7 708.4 483.4 707.35 491.7 711.85 499.1 717.2 507.65 726.9 509.95 736.7 512.25 745.25 507.05 753.75 501.75 756.1 491.95
M 713.95 415.9
L 685 452
Q 627.6 457.1 583.4 435.85
L 511.95 232.5 440.5 435.85
Q 396.3 457.1 338.95 452
L 310.1 415.9
Q 315.2 342.25 368.85 288.6 428.15 229.25 511.95 229.25 595.75 229.25 655.1 288.6 708.75 342.25 713.95 415.9
M 507.35 590.3
Q 509.65 589.35 511.95 589.35 514.3 589.35 516.6 590.3 521.55 592.25 523.5 597.2
L 542 641.05
Q 544.05 645.9 542.1 650.75 540.15 655.6 535.15 657.7 530.45 659.65 525.45 657.7 520.6 655.75 518.55 650.9
L 511.95 635.05 505.4 650.9
Q 503.3 655.75 498.45 657.7 493.5 659.65 488.75 657.7 483.8 655.6 481.85 650.75 479.9 645.9 481.95 641.05
L 500.45 597.2
Q 502.4 592.25 507.35 590.3 Z"/>

<path fill="#282828" stroke="none" d="
M 511.95 589.35
Q 509.65 589.35 507.35 590.3 502.4 592.25 500.45 597.2
L 481.95 641.05
Q 479.9 645.9 481.85 650.75 483.8 655.6 488.75 657.7 493.5 659.65 498.45 657.7 503.3 655.75 505.4 650.9
L 511.95 635.05 518.55 650.9
Q 520.6 655.75 525.45 657.7 530.45 659.65 535.15 657.7 540.15 655.6 542.1 650.75 544.05 645.9 542 641.05
L 523.5 597.2
Q 521.55 592.25 516.6 590.3 514.3 589.35 511.95 589.35 Z"/>
</g>
</defs>

<g transform="matrix( 1, 0, 0, 1, 0,0) ">
<use xlink:href="#Layer3_0_FILL"/>
</g>

<g transform="matrix( 1, 0, 0, 1, 0,0) ">
<use xlink:href="#Layer2_0_FILL"/>
</g>

<g transform="matrix( 1, 0, 0, 1, 0,0) ">
<use xlink:href="#Layer1_0_FILL"/>
</g>

<g transform="matrix( 1, 0, 0, 1, 0,0) ">
<use xlink:href="#Layer0_0_FILL"/>
</g>
</svg>
