
<svg xmlns="http://www.w3.org/2000/svg" version="1.1" xmlns:xlink="http://www.w3.org/1999/xlink" preserveAspectRatio="none" x="0px" y="0px" width="1024px" height="1024px" viewBox="0 0 1024 1024">
<defs>
<g id="Layer4_0_FILL">
<path fill="#000000" fill-opacity="0.09803921568627451" stroke="none" d="
M 969.6 351.25
Q 961 330.4 950.2 310.4 944.1 299.05 937.3 288 907.95 240.45 865.75 198.2 727.5 59.95 531.95 59.95 336.45 59.95 198.2 198.2 59.95 336.45 59.95 531.95 59.95 727.5 198.2 865.75 336.45 1003.95 531.95 1003.95 727.5 1003.95 865.75 865.75 941.9 789.55 976.1 696 1003.95 619.75 1003.95 531.95 1003.95 464.6 987.55 404 985.7 397.15 983.65 390.4 977.5 370.45 969.6 351.25 Z"/>
</g>

<g id="Layer3_0_FILL">
<path fill="#333333" stroke="none" d="
M 969.7 392
Q 967.95 385.15 966.05 378.4 964.52578125 373.114453125 962.85 367.85 960.3787109375 359.903125 957.6 352.05 947.85 324.5 934.45 298.4 928.65 287.05 922.15 276 891.5 224 845.8 178.25 736.8 69.25 592.15 46.2 567.65 42.3 542.1 40.85 527.2 40 512 40 497.9 40 484.1 40.75 306.55 49.95 178.25 178.25 40 316.5 40 512 40 707.55 178.25 845.8 263.0400390625 930.55703125 369.35 963.35 423.8880859375 980.1630859375 484.1 983.3 484.3 983.3 484.5 983.3 496.65 983.9 509 984 510.5 984 512 984 527.25 984 542.1 983.2 545.6 983 549.05 982.75 579.1 980.6 607.75 975.05 619.55 972.75 631.15 969.9 751.75 939.85 845.8 845.8 918.7 772.85 953.15 684 980.9 612.4 983.7 530.5 984 521.3 984 512 984 511 984 510 984 509.5 984 509 983.65 447.7 969.7 392 Z"/>
</g>

<g id="Layer2_0_FILL">
<path fill="#000000" fill-opacity="0.2" stroke="none" d="
M 981.95 558.7
Q 982.365625 554.3185546875 982.65 549.85
L 795 362.2 417.95 403.25 236.15 669.55 549.3 982.7
Q 553.2546875 982.446875 557.15 982.1 582.9763671875 979.8490234375 607.75 975.05 619.55 972.75 631.15 969.9 751.75 939.85 845.8 845.8 918.7 772.85 953.15 684 976.0666015625 624.8712890625 981.95 558.7 Z"/>
</g>

<g id="Layer0_0_FILL">
<path fill="#CCCCCC" stroke="none" d="
M 781.9 362.75
Q 783.95 355 776.2 352.95
L 362.8 242.15
Q 355.05 240.1 353 247.85
L 242.2 661.25
Q 240.15 669 247.9 671.05
L 661.3 781.85
Q 669.05 783.9 671.1 776.15
L 781.9 362.75
M 576 468.6
Q 583.7 470.65 581.6 478.4
L 555.45 575.95
Q 553.4 583.65 545.7 581.6
L 448.15 555.45
Q 440.4 553.35 442.45 545.65
L 468.6 448.1
Q 470.7 440.35 478.45 442.45
L 576 468.6 Z"/>
</g>

<path id="Layer0_0_1_STROKES" stroke="#FFFFFF" stroke-width="14" stroke-linejoin="round" stroke-linecap="round" fill="none" d="
M 247.9 671.05
Q 240.15 669 242.2 661.25
L 353 247.85
Q 355.05 240.1 362.8 242.15
L 776.2 352.95
M 581.6 478.4
L 555.45 575.95
Q 553.4 583.65 545.7 581.6
L 448.15 555.45"/>

<path id="Layer0_0_2_STROKES" stroke="#666666" stroke-width="14" stroke-linejoin="round" stroke-linecap="round" fill="none" d="
M 776.2 352.95
Q 783.95 355 781.9 362.75
L 671.1 776.15
Q 669.05 783.9 661.3 781.85
L 247.9 671.05
M 448.15 555.45
Q 440.4 553.35 442.45 545.65
L 468.6 448.1
Q 470.7 440.35 478.45 442.45
L 576 468.6
Q 583.7 470.65 581.6 478.4"/>
</defs>

<g transform="matrix( 1, 0, 0, 1, 0,0) ">
<use xlink:href="#Layer4_0_FILL"/>
</g>

<g transform="matrix( 1, 0, 0, 1, 0,0) ">
<use xlink:href="#Layer3_0_FILL"/>
</g>

<g transform="matrix( 1, 0, 0, 1, 0,0) ">
<use xlink:href="#Layer2_0_FILL"/>
</g>

<g transform="matrix( 1, 0, 0, 1, 0,0) ">
<use xlink:href="#Layer0_0_FILL"/>

<use xlink:href="#Layer0_0_1_STROKES"/>

<use xlink:href="#Layer0_0_2_STROKES"/>
</g>
</svg>
