
<svg xmlns="http://www.w3.org/2000/svg" version="1.1" xmlns:xlink="http://www.w3.org/1999/xlink" preserveAspectRatio="none" x="0px" y="0px" width="1024px" height="1024px" viewBox="0 0 1024 1024">
<defs>
<g id="Layer4_0_FILL">
<path fill="#000000" fill-opacity="0.09803921568627451" stroke="none" d="
M 969.6 351.25
Q 961 330.4 950.2 310.4 944.1 299.05 937.3 288 907.95 240.45 865.75 198.2 727.5 59.95 531.95 59.95 336.45 59.95 198.2 198.2 59.95 336.45 59.95 531.95 59.95 727.5 198.2 865.75 336.45 1003.95 531.95 1003.95 727.5 1003.95 865.75 865.75 941.9 789.55 976.1 696 1003.95 619.75 1003.95 531.95 1003.95 464.6 987.55 404 985.7 397.15 983.65 390.4 977.5 370.45 969.6 351.25 Z"/>
</g>

<g id="Layer3_0_FILL">
<path fill="#333333" stroke="none" d="
M 969.7 392
Q 967.95 385.15 966.05 378.4 964.52578125 373.114453125 962.85 367.85 960.3787109375 359.903125 957.6 352.05 947.85 324.5 934.45 298.4 928.65 287.05 922.15 276 891.5 224 845.8 178.25 736.8 69.25 592.15 46.2 567.65 42.3 542.1 40.85 527.2 40 512 40 497.9 40 484.1 40.75 306.55 49.95 178.25 178.25 40 316.5 40 512 40 707.55 178.25 845.8 263.0400390625 930.55703125 369.35 963.35 423.8880859375 980.1630859375 484.1 983.3 484.3 983.3 484.5 983.3 496.65 983.9 509 984 510.5 984 512 984 527.25 984 542.1 983.2 545.6 983 549.05 982.75 579.1 980.6 607.75 975.05 619.55 972.75 631.15 969.9 751.75 939.85 845.8 845.8 918.7 772.85 953.15 684 980.9 612.4 983.7 530.5 984 521.3 984 512 984 511 984 510 984 509.5 984 509 983.65 447.7 969.7 392 Z"/>
</g>

<g id="Layer2_0_FILL">
<path fill="#000000" fill-opacity="0.2" stroke="none" d="
M 983.7 530.5
Q 983.91484375 523.9134765625 983.95 517.25
L 781.55 314.85 549.35 604.1 247 310.7 417.25 749.4 636.4 968.55
Q 753.805078125 937.794921875 845.8 845.8 918.7 772.85 953.15 684 980.9 612.4 983.7 530.5 Z"/>
</g>

<g id="Layer0_0_FILL">
<path fill="#E74C3C" stroke="none" d="
M 247 310.7
Q 245.35 308.85 243.1 309.65 240.8 310.45 240.8 312.85
L 240.8 523.85
Q 241.2 529.2 244.25 533.05
L 417.25 749.4
Q 421.5 754.85 429 754.85
L 595.45 754.85
Q 597.65 754.85 598.6 752.95 599.65 751.05 598.2 749.4
L 247 310.7
M 783.35 312.6
Q 783.35 310.15 781.05 309.3 778.8 308.55 777.15 310.45
L 546.65 598.4
Q 545.25 600.05 546.2 602.05 547.15 604.1 549.35 604.1
L 715.85 604.1
Q 722.7 604.1 727.25 598.4
L 779.85 532.7
Q 783.35 528.75 783.35 523.55
L 783.35 312.6 Z"/>
</g>
</defs>

<g transform="matrix( 1, 0, 0, 1, 0,0) ">
<use xlink:href="#Layer4_0_FILL"/>
</g>

<g transform="matrix( 1, 0, 0, 1, 0,0) ">
<use xlink:href="#Layer3_0_FILL"/>
</g>

<g transform="matrix( 1, 0, 0, 1, 0,0) ">
<use xlink:href="#Layer2_0_FILL"/>
</g>

<g transform="matrix( 1, 0, 0, 1, 0,0) ">
<use xlink:href="#Layer0_0_FILL"/>
</g>
</svg>
