
<svg xmlns="http://www.w3.org/2000/svg" version="1.1" xmlns:xlink="http://www.w3.org/1999/xlink" preserveAspectRatio="none" x="0px" y="0px" width="1024px" height="1024px" viewBox="0 0 1024 1024">
<defs>
<g id="Layer4_0_FILL">
<path fill="#000000" fill-opacity="0.09803921568627451" stroke="none" d="
M 969.6 351.25
Q 961 330.4 950.2 310.4 944.1 299.05 937.3 288 907.95 240.45 865.75 198.2 727.5 59.95 531.95 59.95 336.45 59.95 198.2 198.2 59.95 336.45 59.95 531.95 59.95 727.5 198.2 865.75 336.45 1003.95 531.95 1003.95 727.5 1003.95 865.75 865.75 941.9 789.55 976.1 696 1003.95 619.75 1003.95 531.95 1003.95 464.6 987.55 404 985.7 397.15 983.65 390.4 977.5 370.45 969.6 351.25 Z"/>
</g>

<g id="Layer3_0_FILL">
<path fill="#FFCA28" stroke="none" d="
M 969.7 392
Q 967.95 385.15 966.05 378.4 964.52578125 373.114453125 962.85 367.85 960.3787109375 359.903125 957.6 352.05 947.85 324.5 934.45 298.4 928.65 287.05 922.15 276 891.5 224 845.8 178.25 736.8 69.25 592.15 46.2 567.65 42.3 542.1 40.85 527.2 40 512 40 497.9 40 484.1 40.75 306.55 49.95 178.25 178.25 40 316.5 40 512 40 707.55 178.25 845.8 263.0400390625 930.55703125 369.35 963.35 423.8880859375 980.1630859375 484.1 983.3 484.3 983.3 484.5 983.3 496.65 983.9 509 984 510.5 984 512 984 527.25 984 542.1 983.2 545.6 983 549.05 982.75 579.1 980.6 607.75 975.05 619.55 972.75 631.15 969.9 751.75 939.85 845.8 845.8 918.7 772.85 953.15 684 980.9 612.4 983.7 530.5 984 521.3 984 512 984 511 984 510 984 509.5 984 509 983.65 447.7 969.7 392 Z"/>
</g>

<g id="Layer2_0_FILL">
<path fill="#000000" fill-opacity="0.2" stroke="none" d="
M 800.15 346.05
L 722 364.4 583.65 362.7 529.95 309 206.5 714.8 474.4 982.7
Q 479.2333984375 983.046484375 484.1 983.3 484.3 983.3 484.5 983.3 496.65 983.9 509 984 510.5 984 512 984 527.25 984 542.1 983.2 545.6 983 549.05 982.75 579.1 980.6 607.75 975.05 619.55 972.75 631.15 969.9 751.75 939.85 845.8 845.8 918.7 772.85 953.15 684 980.9 612.4 983.7 530.5 983.7142578125 530.0640625 983.7 529.6
L 800.15 346.05 Z"/>
</g>

<g id="Layer1_0_FILL">
<path fill="#333333" stroke="none" d="
M 728.1 309
L 679.55 309
Q 652.45 309 629.95 324 608.05 338.65 597.5 362.7
L 529.95 362.7 529.95 309 296 309
Q 277.8 309 261.2 316.05 245.15 322.85 232.75 335.25 220.35 347.65 213.55 363.7 206.5 380.35 206.5 398.5
L 206.5 553.65
Q 206.5 568.55 211.25 582.45 215.85 596 224.45 607.4
L 206.5 607.4 206.5 714.8 344.55 714.8
Q 366.1 714.8 385.15 705.05 403.65 695.6 416.15 678.95 428.65 695.6 447.1 705.05 466.2 714.8 487.75 714.8
L 536.3 714.8
Q 557.85 714.8 576.95 705.05 595.4 695.6 607.9 678.95 620.4 695.6 638.9 705.05 658 714.8 679.55 714.8
L 817.6 714.8 817.6 398.5
Q 817.6 380.35 810.55 363.7 803.75 347.65 791.35 335.25 778.95 322.85 762.9 316.05 746.25 309 728.1 309
M 679.55 344.8
L 728.1 344.8
Q 738.95 344.8 748.95 349.05 758.6 353.15 766.05 360.55 773.45 368 777.55 377.6 781.8 387.6 781.8 398.5
L 781.8 679 679.55 679
Q 668.6 679 658.65 674.75 649 670.7 641.6 663.25 634.1 655.8 630.05 646.15 625.8 636.2 625.8 625.3
L 625.8 523.85
Q 625.8 512.95 630.05 502.95 634.1 493.3 641.6 485.9 649 478.45 658.65 474.35 668.6 470.1 679.55 470.1
L 721.7 470.1 721.7 380.6 685.9 380.6 685.9 434.3 625.8 434.3 625.8 398.5
Q 625.8 387.6 630.05 377.6 634.1 368 641.6 360.55 649 353.15 658.65 349.05 668.6 344.8 679.55 344.8
M 246.55 377.6
Q 250.6 368 258.05 360.55 265.5 353.15 275.15 349.05 285.1 344.8 296 344.8
L 398.25 344.8 398.25 625.3
Q 398.25 636.2 394 646.15 389.95 655.8 382.5 663.25 375.05 670.7 365.4 674.75 355.45 679 344.55 679
L 242.3 679 242.3 643.2 344.55 643.2
Q 351.95 643.2 357.2 637.95 362.45 632.7 362.45 625.3
L 362.45 607.4 296 607.4
Q 285.1 607.4 275.15 603.15 265.5 599.1 258.05 591.65 250.6 584.2 246.55 574.55 242.3 564.6 242.3 553.65
L 242.3 398.5
Q 242.3 387.6 246.55 377.6
M 434.05 344.8
L 494.15 344.8 494.15 398.5 590 398.5 590 434.3 494.15 434.3 494.15 643.2 529.95 643.2 529.95 470.1 590 470.1 590 625.3
Q 590 636.2 585.8 646.15 581.7 655.8 574.25 663.25 566.85 670.7 557.2 674.75 547.2 679 536.3 679
L 487.75 679
Q 476.85 679 466.85 674.75 457.25 670.7 449.8 663.25 442.35 655.8 438.3 646.15 434.05 636.2 434.05 625.3
L 434.05 344.8
M 302.35 380.6
L 302.35 571.55 338.2 571.55 338.2 380.6 302.35 380.6
M 721.7 505.95
L 685.9 505.95 685.9 643.2 721.7 643.2 721.7 505.95 Z"/>

<path fill="#FFFFFF" stroke="none" d="
M 494.15 344.8
L 434.05 344.8 434.05 625.3
Q 434.05 636.2 438.3 646.15 442.35 655.8 449.8 663.25 457.25 670.7 466.85 674.75 476.85 679 487.75 679
L 536.3 679
Q 547.2 679 557.2 674.75 566.85 670.7 574.25 663.25 581.7 655.8 585.8 646.15 590 636.2 590 625.3
L 590 470.1 529.95 470.1 529.95 643.2 494.15 643.2 494.15 434.3 590 434.3 590 398.5 494.15 398.5 494.15 344.8
M 258.05 360.55
Q 250.6 368 246.55 377.6 242.3 387.6 242.3 398.5
L 242.3 553.65
Q 242.3 564.6 246.55 574.55 250.6 584.2 258.05 591.65 265.5 599.1 275.15 603.15 285.1 607.4 296 607.4
L 362.45 607.4 362.45 625.3
Q 362.45 632.7 357.2 637.95 351.95 643.2 344.55 643.2
L 242.3 643.2 242.3 679 344.55 679
Q 355.45 679 365.4 674.75 375.05 670.7 382.5 663.25 389.95 655.8 394 646.15 398.25 636.2 398.25 625.3
L 398.25 344.8 296 344.8
Q 285.1 344.8 275.15 349.05 265.5 353.15 258.05 360.55
M 302.35 571.55
L 302.35 380.6 338.2 380.6 338.2 571.55 302.35 571.55
M 728.1 344.8
L 679.55 344.8
Q 668.6 344.8 658.65 349.05 649 353.15 641.6 360.55 634.1 368 630.05 377.6 625.8 387.6 625.8 398.5
L 625.8 434.3 685.9 434.3 685.9 380.6 721.7 380.6 721.7 470.1 679.55 470.1
Q 668.6 470.1 658.65 474.35 649 478.45 641.6 485.9 634.1 493.3 630.05 502.95 625.8 512.95 625.8 523.85
L 625.8 625.3
Q 625.8 636.2 630.05 646.15 634.1 655.8 641.6 663.25 649 670.7 658.65 674.75 668.6 679 679.55 679
L 781.8 679 781.8 398.5
Q 781.8 387.6 777.55 377.6 773.45 368 766.05 360.55 758.6 353.15 748.95 349.05 738.95 344.8 728.1 344.8
M 685.9 505.95
L 721.7 505.95 721.7 643.2 685.9 643.2 685.9 505.95 Z"/>
</g>
</defs>

<g transform="matrix( 1, 0, 0, 1, 0,0) ">
<use xlink:href="#Layer4_0_FILL"/>
</g>

<g transform="matrix( 1, 0, 0, 1, 0,0) ">
<use xlink:href="#Layer3_0_FILL"/>
</g>

<g transform="matrix( 1, 0, 0, 1, 0,0) ">
<use xlink:href="#Layer2_0_FILL"/>
</g>

<g transform="matrix( 1, 0, 0, 1, 0,0) ">
<use xlink:href="#Layer1_0_FILL"/>
</g>
</svg>
