
<svg xmlns="http://www.w3.org/2000/svg" version="1.1" xmlns:xlink="http://www.w3.org/1999/xlink" preserveAspectRatio="none" x="0px" y="0px" width="1024px" height="1024px" viewBox="0 0 1024 1024">
<defs>
<image id="Bitmap_1" x="0" y="0" width="512" height="512" xlink:href="./images/Bitmap_1.png"/>

<g id="Layer4_0_FILL">
<path fill="#000000" fill-opacity="0.09803921568627451" stroke="none" d="
M 969.6 351.25
Q 961 330.4 950.2 310.4 944.1 299.05 937.3 288 907.95 240.45 865.75 198.2 727.5 59.95 531.95 59.95 336.45 59.95 198.2 198.2 59.95 336.45 59.95 531.95 59.95 727.5 198.2 865.75 336.45 1003.95 531.95 1003.95 727.5 1003.95 865.75 865.75 941.9 789.55 976.1 696 1003.95 619.75 1003.95 531.95 1003.95 464.6 987.55 404 985.7 397.15 983.65 390.4 977.5 370.45 969.6 351.25 Z"/>
</g>

<g id="Layer3_0_FILL">
<path fill="#394A40" stroke="none" d="
M 962.85 367.85
Q 960.3787109375 359.903125 957.6 352.05 947.85 324.5 934.45 298.4 928.65 287.05 922.15 276 891.5 224 845.8 178.25 736.8 69.25 592.15 46.2 567.65 42.3 542.1 40.85 527.2 40 512 40 497.9 40 484.1 40.75 306.55 49.95 178.25 178.25 40 316.5 40 512 40 707.55 178.25 845.8 263.0400390625 930.55703125 369.35 963.35 423.8880859375 980.1630859375 484.1 983.3 484.3 983.3 484.5 983.3 496.65 983.9 509 984 510.5 984 512 984 527.25 984 542.1 983.2 545.6 983 549.05 982.75 579.1 980.6 607.75 975.05 619.55 972.75 631.15 969.9 751.75 939.85 845.8 845.8 918.7 772.85 953.15 684 980.9 612.4 983.7 530.5 984 521.3 984 512 984 511 984 510 984 509.5 984 509 983.65 447.7 969.7 392 967.95 385.15 966.05 378.4 964.52578125 373.114453125 962.85 367.85 Z"/>
</g>

<g id="Layer2_0_FILL">
<path fill="#000000" fill-opacity="0.2" stroke="none" d="
M 977.25 595.65
L 776.05 394.45 509.55 271.5 248.25 499.9 328 579.65 248.05 713.45 518.55 983.95
Q 530.454296875 983.82734375 542.1 983.2 545.6 983 549.05 982.75 579.1 980.6 607.75 975.05 619.55 972.75 631.15 969.9 751.75 939.85 845.8 845.8 918.7 772.85 953.15 684 969.57109375 641.6306640625 977.25 595.65 Z"/>
</g>

<g id="Layer0_0_FILL">
<path fill="#FFFFFF" stroke="none" d="
M 776.05 500.75
L 776.05 394.45
Q 640.45 313.05 512.05 222.05 383.65 313.05 248.05 394.45
L 248.05 500.75
Q 382.25 422.3 512.05 328.35 641.85 422.3 776.05 500.75
M 776.05 713.45
L 776.05 607.1
Q 636.95 530.4 512.05 434.7 387.1 530.4 248.05 607.1
L 248.05 713.45
Q 293.25 689.35 337.3 662.45 427.1 607.65 512.05 541.05 597 607.65 686.75 662.45 730.8 689.35 776.05 713.45 Z"/>

<path fill="#999999" stroke="none" d="
M 337.35 662.55
L 337.3 662.45
Q 293.25 689.35 248.05 713.45 352.7 793 475.35 800.65
L 337.35 662.55 Z"/>

<path fill="#CCCCCC" stroke="none" d="
M 686.75 662.45
L 686.7 662.55
Q 601.15 699.85 513.25 699.3 512.85 699.3 512.4 699.3 512.2 699.3 512.05 699.3 511.85 699.3 511.75 699.3 511.25 699.3 510.8 699.3 422.85 699.95 337.35 662.55
L 475.35 800.65
Q 492.9 801.75 510.8 801.4 511.4 801.4 512.05 801.4 512.65 801.4 513.25 801.4 656.4 804.3 776.05 713.45 730.8 689.35 686.75 662.45 Z"/>
</g>
</defs>

<g transform="matrix( 1, 0, 0, 1, 0,0) ">
<use xlink:href="#Layer4_0_FILL"/>
</g>

<g transform="matrix( 1, 0, 0, 1, 0,0) ">
<use xlink:href="#Layer3_0_FILL"/>
</g>

<g transform="matrix( 1, 0, 0, 1, 0,0) ">
<use xlink:href="#Layer2_0_FILL"/>
</g>

<g transform="matrix( 1.7578125, 0, 0, 1.7578125, -984,180) ">
<use xlink:href="#Bitmap_1"/>
</g>

<g transform="matrix( 1, 0, 0, 1, 0,0) ">
<use xlink:href="#Layer0_0_FILL"/>
</g>
</svg>
