<?xml version="1.0" encoding="utf-8"?>
<!-- Generator: flash2svg, http://dissentgraphics.com/tools/flash2svg -->
<svg xmlns:xlink="http://www.w3.org/1999/xlink" id="Starcraft-2-Wol" image-rendering="optimizeSpeed" baseProfile="basic" version="1.1" style="background-color:#ffffff" x="0px" y="0px" width="1024px" height="1024px" viewBox="0 0 1024 1024" enable-background="new 0 0 1024 1024" xmlns="http://www.w3.org/2000/svg">
  <defs transform="matrix(1 0 0 1 0 0) "/>
  <g id="shadow">
    <g id="shape">
      <path id="path" fill="#000000" fill-opacity="0.09803921568627451" d="M969.65,351.3 Q961.05,330.45 950.25,310.45 C946.2,302.9 941.9,295.4 937.35,288.05 917.8,256.35 893.95,226.4 865.8,198.25 773.65,106.1 662.35,60 532,60 401.65,60 290.4,106.1 198.25,198.25 106.1,290.4 60,401.65 60,532 60,662.35 106.1,773.65 198.25,865.8 290.4,957.95 401.65,1004 532,1004 662.35,1004 773.65,957.95 865.8,865.8 916.55,815 953.35,758.4 976.15,696.05 994.7,645.2 1004,590.55 1004,532 1004,487.1 998.55,444.45 987.6,404.05 986.35,399.5 985.05,394.95 983.7,390.45 979.6,377.15 974.9,364.1 969.65,351.3z"/>
    </g>
  </g>
  <g id="criclebg">
    <g id="shape2">
      <path id="path1" fill="#363F6A" fill-opacity="1" d="M849.15,181.65 C848.05,180.5 846.95,179.4 845.85,178.3 811.5,143.95 774.55,116.05 734.95,94.55 728.25,90.9 721.5,87.45 714.3,84 679.25,67.25 641.8,55.15 602.4,48 599.3,47.45 596.2,46.9 593.05,46.4 592.75,46.35 592.45,46.3 592.2,46.25 588,45.6 583.8,45 579.45,44.4 575.4,43.9 571.25,43.4 567.05,42.95 563.45,42.55 559.85,42.2 556.05,41.9 551.6,41.5 546.9,41.15 542.15,40.9 541.7,40.85 541.3,40.85 540.85,40.85 531.35,40.3 521.75,40.05 512.05,40.05 502.7,40.05 493.45,40.3 484.15,40.8 482.45,40.9 480.75,41 479.05,41.1 475.4,41.3 471.75,41.55 468.05,41.9 461.95,42.4 455.85,43 449.8,43.75 448,43.95 446.25,44.15 444.6,44.4 401,50.15 359.9,61.6 321.3,78.75 317.45,80.45 313.6,82.2 309.75,84.05 262.25,106.7 218.5,138.1 178.3,178.3 177.75,178.85 177.25,179.35 176.75,179.85 176.1,180.5 175.5,181.1 174.9,181.75 134.45,222.9 103.15,267.8 80.9,316.5 73.05,333.65 66.4,351.1 60.85,369 Q40.05,436.2 40.05,512.05 C40.05,637.6 82.8,745.45 168,835.25 170.45,837.85 172.65,840.15 174.9,842.45 175.5,843.05 176.1,843.65 176.75,844.3 177.25,844.8 177.75,845.3 178.3,845.85 218.7,886.2 262.75,917.75 309.75,940.1 313.7,941.95 317.5,943.7 321.3,945.4 326.85,947.85 332.1,950.05 337.4,952.15 343.85,954.75 350,957 356.2,959.1 384.8,968.9 414.4,975.8 444.6,979.75 446.5,980 448.15,980.2 449.8,980.4 461.3,981.8 472.65,982.75 484.15,983.35 484.3,983.35 484.4,983.35 484.55,983.35 493.05,983.8 501.15,984.05 509.05,984.05 510.25,984.05 511.15,984.05 512.05,984.05 521.8,984.05 531.4,983.8 540.85,983.35 541.3,983.3 541.7,983.3 542.15,983.25 544.65,983.1 546.9,982.95 549.1,982.8 559.4,982.05 569.55,981.05 579.45,979.75 587.25,978.7 594.9,977.5 602.4,976.15 604.3,975.8 606.05,975.45 607.8,975.1 615.75,973.55 623.6,971.8 631.2,969.95 660.1,962.7 687.8,952.75 714.3,940.2 721.3,936.8 728.15,933.3 734.95,929.65 760.15,915.95 784.3,899.65 807.35,880.8 820.6,869.9 833.4,858.3 845.85,845.85 846.95,844.75 848.05,843.65 849.15,842.55 849.8,841.9 850.4,841.25 851.05,840.6 852.75,838.85 854.45,837.05 856.15,835.25 876.6,813.65 894.5,791.15 909.95,767.7 927.5,741.15 941.9,713.25 953.2,684.05 957.15,673.8 960.75,663.4 963.95,652.9 975.65,614.25 982.25,573.5 983.75,530.55 983.95,524.5 984.05,518.3 984.05,512.05 984.05,511.4 984.05,510.7 984.05,510.05 984.05,509.7 984.05,509.4 984.05,509.05 983.85,468.4 979.1,429.55 969.75,392.05 968.65,387.7 967.4,383.05 966.1,378.45 963.85,370.6 961.35,362.65 958.55,354.65 958.25,353.9 957.95,353 957.65,352.1 953.4,340.1 948.65,328.3 943.25,316.5 940.55,310.55 937.6,304.5 934.5,298.45 930.7,291.05 926.55,283.5 922.2,276.05 903.15,243.65 879.5,212.85 851.05,183.6 850.4,182.95 849.8,182.3 849.15,181.65z"/>
    </g>
  </g>
  <g id="criclebg1">
    <g id="shape4">
      <path id="path2" fill="#000000" fill-opacity="0.2" d="M953.2,684.05 C957.15,673.8 960.75,663.4 963.95,652.9 975.65,614.25 982.25,573.5 983.75,530.55 983.95,524.5 984.05,518.3 984.05,512.05 984.05,511.4 984.05,510.7 984.05,510.05 984.05,509.7 984.05,509.4 984.05,509.05 Q984.012,502.399 983.825,495.825 L754.05,266.05 543.225,363.225 478.05,298.05 262.05,272.05 360.05,370.05 369.05,766.05 582.325,979.325 L582.35,979.35 C589.15,978.4 595.85,977.35 602.4,976.15 604.3,975.8 606.05,975.45 607.8,975.1 615.75,973.55 623.6,971.8 631.2,969.95 660.1,962.7 687.8,952.75 714.3,940.2 721.3,936.8 728.15,933.3 734.95,929.65 760.15,915.95 784.3,899.65 807.35,880.8 820.6,869.9 833.4,858.3 845.85,845.85 846.95,844.75 848.05,843.65 849.15,842.55 849.8,841.9 850.4,841.25 851.05,840.6 852.75,838.85 854.45,837.05 856.15,835.25 876.6,813.65 894.5,791.15 909.95,767.7 927.5,741.15 941.9,713.25 953.2,684.05z"/>
    </g>
  </g>
  <g id="Calque.__2015">
    <g id="shape6">
      <path id="path3" fill="#6C74AC" fill-opacity="1" d="M358.1,233.2 L357.35,233.55 C359.75,234.55 362.15,235.65 364.6,236.95 374.9,242.4 384.6,249.8 393.75,259.25 402.85,268.75 410.1,278.8 415.45,289.5 421,300.7 423.85,311.25 423.95,321.15 L423.95,404.45 423.95,706.75 C425.25,760.3 444.05,805.9 480.35,843.6 L480.35,299.05 479.4,298.1 358.1,233.2z M669.75,748.05 L669.7,403.45 C669.4,386.95 666.05,372.8 659.6,360.95 652.8,348.5 644.6,342.2 634.95,342.2 625.35,342.2 617.15,348.5 610.4,360.95 604.05,372.65 600.6,386.65 600.15,402.95 L600.15,705.25 C631.4,716.05 654.6,730.3 669.75,748.05z"/>
      <path id="path4" fill="#A4B7FF" fill-opacity="1" d="M353.75,234.95 L352.9,235.35 264.05,270.85 C303.95,270.05 354.4,322.6 354.35,363.95 L354.4,404.95 C354.7,388.45 358.05,374.3 364.5,362.45 371.3,350 379.5,343.75 389.15,343.75 398.75,343.75 406.95,350 413.7,362.45 420.05,374.15 423.5,388.15 423.95,404.45 L423.95,321.15 C423.85,311.25 421,300.7 415.45,289.5 410.1,278.8 402.85,268.75 393.75,259.25 384.6,249.8 374.9,242.4 364.6,236.95 362.15,235.65 359.75,234.55 357.35,233.55 L353.75,234.95z M423.95,706.75 C392.7,717.55 369.5,731.8 354.35,749.55 Q399.1,814.9 480.35,843.6 C444.05,805.9 425.25,760.3 423.95,706.75z"/>
      <path id="path5" fill="#97A8E9" fill-opacity="1" d="M389.15,343.75 C379.5,343.75 371.3,350 364.5,362.45 358.05,374.3 354.7,388.45 354.4,404.95 L354.35,749.55 C369.5,731.8 392.7,717.55 423.95,706.75 L423.95,404.45 C423.5,388.15 420.05,374.15 413.7,362.45 406.95,350 398.75,343.75 389.15,343.75z M659.5,235.45 C661.95,234.15 664.35,233.05 666.75,232.05 L666,231.7 544.7,296.6 543.75,297.55 543.75,842.1 C580.05,804.4 598.85,758.8 600.15,705.25 L600.15,402.95 600.15,319.65 C600.25,309.75 603.1,299.2 608.65,288 614,277.3 621.25,267.2 630.35,257.75 639.5,248.3 649.2,240.9 659.5,235.45z"/>
      <path id="path8" fill="#5D6791" fill-opacity="1" d="M669.75,362.45 C669.7,321.1 720.15,268.55 760.05,269.35 L671.2,233.85 670.35,233.45 666.75,232.05 C664.35,233.05 661.95,234.15 659.5,235.45 649.2,240.9 639.5,248.3 630.35,257.75 621.25,267.2 614,277.3 608.65,288 603.1,299.2 600.25,309.75 600.15,319.65 L600.15,402.95 C600.6,386.65 604.05,372.65 610.4,360.95 617.15,348.5 625.35,342.2 634.95,342.2 644.6,342.2 652.8,348.5 659.6,360.95 666.05,372.8 669.4,386.95 669.7,403.45 L669.75,362.45z M543.75,842.1 C597.9,822.95 639.9,791.6 669.75,748.05 654.6,730.3 631.4,716.05 600.15,705.25 598.85,758.8 580.05,804.4 543.75,842.1z"/>
    </g>
  </g>
  <g id="Calque.__2016">
    <g id="shape21">
      <path id="path15" fill="#FFFFFF" fill-opacity="1" d="M681.5,757.5 L733.45,749.05 681.5,740.6 673.05,688.65 664.6,740.6 612.65,749.05 664.6,757.5 673.05,809.45 681.5,757.5z M361.8,169.45 L361.8,169.25 361.75,169.35 361.75,169.45 352.6,225.55 296.5,234.65 296.3,234.65 296.4,234.7 296.5,234.7 352.6,243.85 361.75,299.95 361.75,300.1 361.8,300.2 361.8,299.95 370.9,243.85 427,234.7 427.1,234.7 427.25,234.65 427,234.65 370.9,225.55 361.8,169.45z"/>
    </g>
  </g>
  <g id="Calque.__2017">
    <g id="shape25">
      <path id="path18" fill="#FFFFFF" fill-opacity="1" d="M881.8,294.05 Q878.4,294.05 875.95,296.45 C874.35,298.1 873.55,300.05 873.55,302.3 873.55,304.55 874.35,306.5 875.95,308.1 877.6,309.75 879.55,310.55 881.8,310.55 884.05,310.55 886,309.75 887.6,308.1 889.25,306.5 890.05,304.55 890.05,302.3 890.05,300.05 889.25,298.1 887.6,296.45 886,294.85 884.05,294.05 881.8,294.05z M791.55,442.05 C789.5,442.05 787.7,442.8 786.25,444.25 784.8,445.7 784.05,447.5 784.05,449.55 784.05,451.6 784.8,453.4 786.25,454.85 787.7,456.3 789.5,457.05 791.55,457.05 793.6,457.05 795.4,456.3 796.85,454.85 798.3,453.4 799.05,451.6 799.05,449.55 799.05,447.5 798.3,445.7 796.85,444.25 795.4,442.8 793.6,442.05 791.55,442.05z M770.3,616.8 C772.8,614.35 774.05,611.35 774.05,607.8 774.05,604.25 772.8,601.25 770.3,598.75 767.85,596.3 764.85,595.05 761.3,595.05 757.75,595.05 754.75,596.3 752.25,598.75 749.8,601.25 748.55,604.25 748.55,607.8 748.55,611.35 749.8,614.35 752.25,616.8 754.75,619.3 757.75,620.55 761.3,620.55 764.85,620.55 767.85,619.3 770.3,616.8z M830.55,637.05 C825.7,637.05 821.6,638.75 818.15,642.15 814.75,645.6 813.05,649.7 813.05,654.55 813.05,659.4 814.75,663.5 818.15,666.9 821.6,670.35 825.7,672.05 830.55,672.05 835.4,672.05 839.5,670.35 842.9,666.9 846.35,663.5 848.05,659.4 848.05,654.55 848.05,649.7 846.35,645.6 842.9,642.15 839.5,638.75 835.4,637.05 830.55,637.05z M614.25,134.25 C616.45,132.05 617.55,129.4 617.55,126.3 617.55,123.2 616.45,120.55 614.25,118.35 612.05,116.15 609.4,115.05 606.3,115.05 603.2,115.05 600.55,116.15 598.35,118.35 596.15,120.55 595.05,123.2 595.05,126.3 595.05,129.4 596.15,132.05 598.35,134.25 600.55,136.45 603.2,137.55 606.3,137.55 609.4,137.55 612.05,136.45 614.25,134.25z M399.9,136.9 C398,138.8 397.05,141.1 397.05,143.8 397.05,146.5 398,148.8 399.9,150.7 401.8,152.6 404.1,153.55 406.8,153.55 409.5,153.55 411.8,152.6 413.7,150.7 415.6,148.8 416.55,146.5 416.55,143.8 416.55,141.1 415.6,138.8 413.7,136.9 411.8,135 409.5,134.05 406.8,134.05 404.1,134.05 401.8,135 399.9,136.9z M232.05,576.05 C226.25,576.05 221.3,578.1 217.2,582.2 213.1,586.3 211.05,591.25 211.05,597.05 211.05,602.85 213.1,607.8 217.2,611.9 221.3,616 226.25,618.05 232.05,618.05 237.85,618.05 242.8,616 246.9,611.9 251,607.8 253.05,602.85 253.05,597.05 253.05,591.25 251,586.3 246.9,582.2 242.8,578.1 237.85,576.05 232.05,576.05z M279.7,675.7 C281.25,674.15 282.05,672.25 282.05,670.05 282.05,667.85 281.25,665.95 279.7,664.4 278.15,662.85 276.25,662.05 274.05,662.05 271.85,662.05 269.95,662.85 268.4,664.4 266.85,665.95 266.05,667.85 266.05,670.05 266.05,672.25 266.85,674.15 268.4,675.7 269.95,677.25 271.85,678.05 274.05,678.05 276.25,678.05 278.15,677.25 279.7,675.7z M226.6,719.6 C222.9,723.35 221.05,727.8 221.05,733.05 221.05,738.3 222.9,742.75 226.6,746.45 230.35,750.2 234.8,752.05 240.05,752.05 245.3,752.05 249.75,750.2 253.45,746.45 257.2,742.75 259.05,738.3 259.05,733.05 259.05,727.8 257.2,723.35 253.45,719.6 249.75,715.9 245.3,714.05 240.05,714.05 234.8,714.05 230.35,715.9 226.6,719.6z M391.45,888.95 C393.2,887.25 394.05,885.2 394.05,882.8 394.05,880.4 393.2,878.35 391.45,876.6 389.75,874.9 387.7,874.05 385.3,874.05 382.9,874.05 380.85,874.9 379.1,876.6 377.4,878.35 376.55,880.4 376.55,882.8 376.55,885.2 377.4,887.25 379.1,888.95 380.85,890.7 382.9,891.55 385.3,891.55 387.7,891.55 389.75,890.7 391.45,888.95z"/>
      <path id="path19" fill="#999999" fill-opacity="1" d="M886.05,444.05 C888.6,441.55 889.85,438.5 889.85,434.95 889.85,431.4 888.6,428.35 886.05,425.8 883.55,423.3 880.5,422.05 876.95,422.05 873.4,422.05 870.35,423.3 867.8,425.8 865.3,428.35 864.05,431.4 864.05,434.95 864.05,438.5 865.3,441.55 867.8,444.05 870.35,446.6 873.4,447.85 876.95,447.85 880.5,447.85 883.55,446.6 886.05,444.05z M774.85,751.85 C768.3,758.4 765.05,766.3 765.05,775.55 765.05,784.8 768.3,792.7 774.85,799.25 781.4,805.8 789.3,809.05 798.55,809.05 807.8,809.05 815.7,805.8 822.25,799.25 828.8,792.7 832.05,784.8 832.05,775.55 832.05,766.3 828.8,758.4 822.25,751.85 815.7,745.3 807.8,742.05 798.55,742.05 789.3,742.05 781.4,745.3 774.85,751.85z M207.45,370.3 C197.3,360.15 185,355.05 170.6,355.05 156.2,355.05 143.9,360.15 133.7,370.3 123.55,380.5 118.45,392.8 118.45,407.2 118.45,421.6 123.55,433.9 133.7,444.05 143.9,454.25 156.2,459.35 170.6,459.35 185,459.35 197.3,454.25 207.45,444.05 217.65,433.9 222.75,421.6 222.75,407.2 222.75,392.8 217.65,380.5 207.45,370.3z"/>
    </g>
  </g>
</svg>