<?xml version="1.0" encoding="utf-8"?>
<!-- Generator: flash2svg, http://dissentgraphics.com/tools/flash2svg -->
<svg xmlns:xlink="http://www.w3.org/1999/xlink" id="Apps-Transistor" image-rendering="optimizeSpeed" baseProfile="basic" version="1.1" style="background-color:#ffffff" x="0px" y="0px" width="1024px" height="1024px" viewBox="0 0 1024 1024" enable-background="new 0 0 1024 1024" xmlns="http://www.w3.org/2000/svg">
  <defs transform="matrix(1 0 0 1 0 0) "/>
  <g id="shadow">
    <g id="shape">
      <path id="path" fill="#000000" fill-opacity="0.09803921568627451" d="M969.65,351.3 Q961.05,330.45 950.25,310.45 C946.2,302.9 941.9,295.4 937.35,288.05 917.8,256.35 893.95,226.4 865.8,198.25 773.65,106.1 662.35,60 532,60 401.65,60 290.4,106.1 198.25,198.25 106.1,290.4 60,401.65 60,532 60,662.35 106.1,773.65 198.25,865.8 290.4,957.95 401.65,1004 532,1004 662.35,1004 773.65,957.95 865.8,865.8 916.55,815 953.35,758.4 976.15,696.05 994.7,645.2 1004,590.55 1004,532 1004,487.1 998.55,444.45 987.6,404.05 986.35,399.5 985.05,394.95 983.7,390.45 979.6,377.15 974.9,364.1 969.65,351.3z"/>
    </g>
  </g>
  <g id="bg">
    <g id="shape2">
      <path id="path1" fill="#3CD5B5" fill-opacity="1" d="M929.85,289.65 C927.5,285.3 924.9,280.65 922.2,276.05 901.9,241.55 876.4,208.85 845.85,178.3 773.25,105.7 688.7,61.65 592.2,46.25 575.95,43.65 559.4,41.85 542.15,40.9 532.45,40.35 522.3,40.05 512.05,40.05 502.7,40.05 493.45,40.3 484.15,40.8 365.8,46.9 263.85,92.75 178.3,178.3 157.8,198.8 139.55,220.25 123.6,242.7 108.25,264.25 95.05,286.7 84,309.9 66.35,346.8 54,385.9 47.1,426.7 43.75,446.1 41.65,465.6 40.7,485.5 L40.7,485.475 Q40.05,498.633 40.05,512.05 C40.05,517.2 40.15,522.3 40.25,527.25 40.55,537.15 41.1,546.9 41.85,556.15 42.85,567.65 44.15,578.6 45.8,589.35 51.9,628.8 62.7,666.25 78.05,701.35 79.4,704.45 80.8,707.5 82,710.15 105.2,759.7 137.15,804.7 178.3,845.85 235,902.5 298.85,941.75 369.4,963.4 406.15,974.65 444.2,981.25 484.15,983.35 484.3,983.35 484.4,983.35 484.55,983.35 493.05,983.8 501.15,984.05 509.05,984.05 510.25,984.05 511.15,984.05 512.05,984.05 522.35,984.05 532.55,983.75 542.15,983.25 544.65,983.1 546.9,982.95 549.1,982.8 569.3,981.35 589,978.75 607.8,975.1 615.75,973.55 623.6,971.8 631.2,969.95 712,949.65 783.35,908.35 845.85,845.85 883.85,807.85 914.05,766.6 936.35,722.05 942.6,709.7 948.2,697 953.2,684.05 957.45,673.1 961.25,661.95 964.7,650.45 970.8,629.75 975.55,608.3 978.8,586.15 979.65,580.45 980.4,574.7 981.05,568.8 981.3,566.4 981.55,564 981.8,561.5 982.7,551.45 983.4,541.05 983.75,530.55 983.95,524.5 984.05,518.3 984.05,512.05 984.05,511.4 984.05,510.7 984.05,510.05 984.05,509.7 984.05,509.4 984.05,509.05 983.95,485.3 982.3,462.15 979,439.35 978.25,433.9 977.35,428.45 976.35,422.85 974.55,412.65 972.3,402.3 969.75,392.05 968.65,387.7 967.4,383.05 966.1,378.45 965.1,375.05 964.1,371.6 962.95,367.95 961.35,362.8 959.55,357.45 957.65,352.1 952.6,337.85 946.8,323.85 940.2,309.95 938.35,306.15 936.45,302.3 934.5,298.45 933.05,295.6 931.55,292.75 929.85,289.65z"/>
    </g>
  </g>
  <g id="bg1">
    <g id="shape4">
      <path id="path2" fill="#000000" fill-opacity="0.2" d="M953.2,684.05 C957.45,673.1 961.25,661.95 964.7,650.45 969.15,635.4 972.85,619.95 975.85,603.95 L766.3,394.4 604.05,309.05 291.05,503.05 219.05,629.05 101.225,746.875 L101.25,746.9 C122.1,782.4 147.65,815.2 178.3,845.85 235,902.5 298.85,941.75 369.4,963.4 406.15,974.65 444.2,981.25 484.15,983.35 484.3,983.35 484.4,983.35 484.55,983.35 493.05,983.8 501.15,984.05 509.05,984.05 Q510.55,984.05 512.05,984.05 C522.35,984.05 532.55,983.75 542.15,983.25 544.65,983.1 546.9,982.95 549.1,982.8 569.3,981.35 589,978.75 607.8,975.1 615.75,973.55 623.6,971.8 631.2,969.95 712,949.65 783.35,908.35 845.85,845.85 883.85,807.85 914.05,766.6 936.35,722.05 942.6,709.7 948.2,697 953.2,684.05z"/>
    </g>
  </g>
  <mask id="bg2">
    <g id="g">
      <g id="shape27">
        <path id="path19" fill="#FFFFFF" fill-opacity="1" d="M929.85,289.65 C927.5,285.3 924.9,280.65 922.2,276.05 901.9,241.55 876.4,208.85 845.85,178.3 773.25,105.7 688.7,61.65 592.2,46.25 575.95,43.65 559.4,41.85 542.15,40.9 532.45,40.35 522.3,40.05 512.05,40.05 502.7,40.05 493.45,40.3 484.15,40.8 365.8,46.9 263.85,92.75 178.3,178.3 157.8,198.8 139.55,220.25 123.6,242.7 108.25,264.25 95.05,286.7 84,309.9 66.35,346.8 54,385.9 47.1,426.7 43.75,446.1 41.65,465.6 40.7,485.5 L40.7,485.475 Q40.05,498.633 40.05,512.05 C40.05,517.2 40.15,522.3 40.25,527.25 40.55,537.15 41.1,546.9 41.85,556.15 42.85,567.65 44.15,578.6 45.8,589.35 51.9,628.8 62.7,666.25 78.05,701.35 79.4,704.45 80.8,707.5 82,710.15 105.2,759.7 137.15,804.7 178.3,845.85 235,902.5 298.85,941.75 369.4,963.4 406.15,974.65 444.2,981.25 484.15,983.35 484.3,983.35 484.4,983.35 484.55,983.35 493.05,983.8 501.15,984.05 509.05,984.05 510.25,984.05 511.15,984.05 512.05,984.05 522.35,984.05 532.55,983.75 542.15,983.25 544.65,983.1 546.9,982.95 549.1,982.8 569.3,981.35 589,978.75 607.8,975.1 615.75,973.55 623.6,971.8 631.2,969.95 712,949.65 783.35,908.35 845.85,845.85 883.85,807.85 914.05,766.6 936.35,722.05 942.6,709.7 948.2,697 953.2,684.05 957.45,673.1 961.25,661.95 964.7,650.45 970.8,629.75 975.55,608.3 978.8,586.15 979.65,580.45 980.4,574.7 981.05,568.8 981.3,566.4 981.55,564 981.8,561.5 982.7,551.45 983.4,541.05 983.75,530.55 983.95,524.5 984.05,518.3 984.05,512.05 984.05,511.4 984.05,510.7 984.05,510.05 984.05,509.7 984.05,509.4 984.05,509.05 983.95,485.3 982.3,462.15 979,439.35 978.25,433.9 977.35,428.45 976.35,422.85 974.55,412.65 972.3,402.3 969.75,392.05 968.65,387.7 967.4,383.05 966.1,378.45 965.1,375.05 964.1,371.6 962.95,367.95 961.35,362.8 959.55,357.45 957.65,352.1 952.6,337.85 946.8,323.85 940.2,309.95 938.35,306.15 936.45,302.3 934.5,298.45 933.05,295.6 931.55,292.75 929.85,289.65z"/>
      </g>
    </g>
  </mask>
  <g id="masked" mask="url(#bg2)">
    <g id="Calque.__201">
      <g id="shape6">
        <path id="path3" fill="#FFFFFF" fill-opacity="1" d="M760,556.5 Q775.1,541.4 770.05,526.05 L770.1,403.65 C770.1,400 768.85,396.95 766.3,394.4 L614.45,242.55 C611.9,240 608.8,238.75 605.2,238.8 L478.55,238.75 C476.95,238.6 475.35,238.65 473.7,238.8 466.75,239.15 459.9,242.75 453.05,249.55 L414.9,287.7 C413.2,289.4 412.1,291.35 411.55,293.6 409.35,294.15 407.4,295.25 405.7,296.9 L712.65,603.85 C714.35,602.2 715.5,600.25 716.05,598.1 718.2,597.5 720.15,596.35 721.85,594.65 L760,556.5z M601.25,362.75 C607.55,356.45 615.15,353.3 624.05,353.25 632.95,353.3 640.55,356.45 646.85,362.75 653.15,369 656.3,376.6 656.3,385.5 656.3,394.45 653.15,402.05 646.85,408.35 640.55,414.65 632.95,417.8 624.05,417.75 615.15,417.75 607.55,414.6 601.25,408.35 594.95,402.05 591.8,394.45 591.8,385.5 591.8,376.65 594.95,369.05 601.25,362.75z M200.45,638.95 C199.7,639.3 199,639.8 198.35,640.45 L44.95,793.9 C43.5,795.3 42.8,797 42.85,799 42.8,801 43.5,802.7 44.95,804.15 46.35,805.55 48.05,806.25 50.05,806.25 52.05,806.25 53.75,805.55 55.2,804.15 L208.6,650.7 C209.25,650.05 209.8,649.35 210.15,648.6 L200.45,638.95z M288.85,730.95 C289.5,730.3 290.05,729.6 290.4,728.85 L280.75,719.2 C280,719.55 279.25,720.05 278.6,720.7 L125.2,874.15 C123.75,875.55 123.05,877.25 123.1,879.3 123.05,881.25 123.75,882.95 125.2,884.4 126.6,885.8 128.3,886.5 130.35,886.5 132.3,886.5 134,885.8 135.45,884.4 L288.85,730.95z M369.1,811.2 C369.75,810.55 370.3,809.9 370.65,809.15 L361,799.5 C360.25,799.85 359.5,800.3 358.85,800.95 L205.45,954.4 C204,955.8 203.3,957.5 203.35,959.55 203.3,961.5 204,963.2 205.45,964.65 206.85,966.05 208.55,966.75 210.6,966.8 212.55,966.75 214.25,966.05 215.7,964.65 L369.1,811.2z"/>
        <path id="path7" fill="#B50F09" fill-opacity="1" d="M255.8,446.8 C240.25,462.35 240.25,477.95 255.85,493.55 L516.05,753.75 C531.6,769.3 547.2,769.3 562.75,753.75 L712.65,603.85 405.7,296.9 255.8,446.8z"/>
        <path id="path8" fill="#333333" fill-opacity="1" d="M323.35,582.25 L266.8,525.7 203.85,588.65 C199.15,593.35 199.15,598.05 203.85,602.75 L211.3,610.2 198.55,622.95 C193.85,627.65 193.85,632.35 198.55,637.05 L200.45,638.95 210.15,648.6 212,650.5 C216.7,655.2 221.4,655.2 226.1,650.5 L238.85,637.75 246.3,645.2 C251,649.9 255.7,649.9 260.4,645.2 L323.35,582.25z M284.15,683 L291.55,690.45 278.8,703.2 C274.1,707.9 274.1,712.6 278.8,717.3 L280.75,719.2 290.4,728.85 292.25,730.75 C297,735.45 301.7,735.45 306.4,730.75 L319.15,718 326.55,725.45 C331.25,730.15 335.95,730.15 340.65,725.45 L403.6,662.5 347.05,605.95 284.1,668.9 C279.4,673.6 279.4,678.3 284.15,683z M364.35,749.15 C359.65,753.85 359.65,758.55 364.4,763.25 L371.8,770.7 359.05,783.45 C354.35,788.15 354.35,792.85 359.1,797.55 L361,799.5 370.65,809.15 372.5,811 C377.25,815.7 381.95,815.7 386.65,811 L399.4,798.25 406.8,805.7 C411.55,810.4 416.25,810.4 420.95,805.7 L483.9,742.75 427.3,686.2 364.35,749.15z"/>
      </g>
    </g>
  </g>
</svg>