<?xml version="1.0" encoding="utf-8"?>
<!-- Generator: flash2svg, http://dissentgraphics.com/tools/flash2svg -->
<svg id="Trash-Dark-full" image-rendering="optimizeSpeed" baseProfile="basic" version="1.1" style="background-color:#FFFFFF" x="0px" y="0px" width="1024px" height="1024px" viewBox="0 0 1024 1024" enable-background="new 0 0 1024 1024" xmlns="http://www.w3.org/2000/svg" xmlns:xlink="http://www.w3.org/1999/xlink">
  <defs transform="matrix(1 0 0 1 0 0) "/>
  <g id="Shadow">
    <g id="shape">
      <path id="path" fill="#000000" fill-opacity="0.09803921568627451" d="M990.2,285.85 C990.2,277.6 987.25,270.5 981.4,264.65 975.55,258.8 968.45,255.85 960.2,255.85 L808.35,255.85 808.35,191.85 709.05,98.45 377.2,98.5 377.2,98.45 278.05,191.85 278.05,255.85 126.2,255.85 C117.95,255.85 110.85,258.8 105,264.65 99.15,270.5 96.2,277.6 96.2,285.85 L96.2,407.9 141.2,407.9 141.2,473.85 143.2,473.85 143.2,955.85 C143.2,964.1 146.15,971.2 152,977.05 157.85,982.9 164.95,985.85 173.2,985.85 L897.4,985.85 C905.65,985.85 912.75,982.9 918.6,977.05 924.45,971.2 927.4,964.1 927.4,955.85 L927.4,407.9 990.2,407.9 990.2,285.85z M709.05,255.85 L377.2,255.85 377.2,191.85 709.05,191.85 709.05,255.85z"/>
    </g>
  </g>
  <g id="Dark">
    <g id="shape5">
      <path id="path4" fill="#FFFFFF" fill-opacity="1" d="M680.25,520.35 C675.6,515.75 668.9,512.35 660,510.15 L653.5,508.6 C656.1,494.05 656.2,477.25 653.95,458.25 Q652.2,443.7 645.25,436.75 C640.6,432.15 635,429.8 628.5,429.8 614.75,431.85 591.05,453.15 557.25,493.6 542.3,492.45 527.35,491.95 512.4,491.9 497.5,491.95 482.6,492.45 467.65,493.6 433.9,453.15 410.1,431.85 396.4,429.8 389.85,429.8 384.25,432.15 379.65,436.75 375.05,441.4 372.15,448.6 371,458.25 368.65,477.25 368.8,494.05 371.35,508.6 L364.9,510.15 C356,512.35 349.25,515.75 344.6,520.35 344.3,520.75 343.9,521.1 343.6,521.5 339.55,525.55 336.05,534.05 333,547.05 328.55,565.85 326.3,588.65 326.3,615.25 326.3,641.9 328.55,664.6 333,683.45 334.85,691.3 336.9,697.5 339.1,702.1 340.25,705.25 342.05,708.1 344.6,710.7 349.25,715.3 357.25,719.2 368.5,722.25 415.95,735.05 463.95,741.35 512.4,741.3 560.95,741.35 608.95,735.05 656.45,722.25 667.7,719.2 675.6,715.3 680.25,710.7 682.8,708.1 684.7,705.25 685.85,702.1 688,697.5 690.05,691.3 691.9,683.45 696.4,664.6 698.6,641.9 698.6,615.25 698.6,588.65 696.4,565.85 691.9,547.05 688.8,534.05 685.3,525.55 681.35,521.5 681,521.1 680.7,520.75 680.25,520.35z M651.25,636.2 C651.25,644.25 650.45,652 648.85,659.65 647.8,664.55 644.95,669.35 640.35,673.95 635.7,678.65 629.55,681.4 621.8,682.3 585.1,686.65 548.6,688.85 512.4,688.85 L512.3,688.85 C476.1,688.85 439.65,686.65 402.95,682.3 395.2,681.4 389.05,678.65 384.4,673.95 379.75,669.35 376.95,664.6 375.85,659.65 374.25,652 373.45,644.25 373.45,636.2 L373.45,610.85 C373.6,603.35 374.4,595.8 375.95,588 376.95,583.05 379.75,578.25 384.4,573.65 389.05,569 395.2,566.25 402.95,565.3 439.75,560.9 476.2,558.65 512.3,558.6 L512.4,558.6 C548.55,558.65 585,560.9 621.8,565.3 629.55,566.25 635.7,569 640.35,573.65 644.95,578.25 647.75,583.05 648.8,588 650.35,595.8 651.15,603.35 651.25,610.85 L651.25,636.2z"/>
    </g>
  </g>
  <g id="Light">
    <g id="shape10">
      <path id="path8" fill="#333333" fill-opacity="1" d="M119.9,300.1 L119.9,379.8 692.1,952 874.1,952 C882.35,952 889.45,949.05 895.3,943.2 901.15,937.35 904.1,930.25 904.1,922 L904.1,300.1 119.9,300.1z"/>
      <path id="path9" fill="#666666" fill-opacity="1" d="M128.7,943.2 C134.55,949.05 141.65,952 149.9,952 L692.1,952 119.9,379.8 119.9,922 C119.9,930.25 122.85,937.35 128.7,943.2z"/>
    </g>
  </g>
  <g id="Calque.__201">
    <g id="Symbole.__209_1" overflow="visible">
      <g id="Calque.__208">
        <g id="shape39">
          <path id="path27" fill="#000000" fill-opacity="0.2" d="M734.05,374.05 Q732.45,378.7 732.45,384 L732.45,864 C732.45,872.25 735.4,879.35 741.25,885.2 747.1,891.05 754.2,894 762.45,894 L776.5,894 C784.75,894 791.85,891.05 797.7,885.2 803.55,879.35 806.5,872.25 806.5,864 L806.5,384 C806.5,380.45 805.95,377.15 804.9,374.05 L734.05,374.05z M562.4,374.05 C561.35,377.15 560.8,380.45 560.8,384 L560.8,864 C560.8,872.25 563.75,879.35 569.6,885.2 575.45,891.05 582.55,894 590.8,894 L604.85,894 C613.1,894 620.2,891.05 626.05,885.2 631.9,879.35 634.85,872.25 634.85,864 L634.85,384 C634.85,380.45 634.3,377.15 633.25,374.05 L562.4,374.05z M390.75,374.05 C389.7,377.15 389.15,380.45 389.15,384 L389.15,864 C389.15,872.25 392.1,879.35 397.95,885.2 403.8,891.05 410.9,894 419.15,894 L433.2,894 C441.45,894 448.55,891.05 454.4,885.2 460.25,879.35 463.2,872.25 463.2,864 L463.2,384 C463.2,380.45 462.65,377.15 461.6,374.05 L390.75,374.05z M219.1,374.05 C218.05,377.15 217.5,380.45 217.5,384 L217.5,864 C217.5,872.25 220.45,879.35 226.3,885.2 232.15,891.05 239.25,894 247.5,894 L261.55,894 C269.8,894 276.9,891.05 282.75,885.2 288.6,879.35 291.55,872.25 291.55,864 L291.55,384 C291.55,380.45 291,377.15 289.95,374.05 L219.1,374.05z"/>
        </g>
      </g>
    </g>
  </g>
  <g id="Ico">
    <g id="Symbole.__211_1" overflow="visible">
      <g id="Calque.__209">
        <g id="shape40">
          <path id="path28" fill="#000000" fill-opacity="0.2" d="M904.15,440 L904.15,374.05 119.9,374.05 119.9,440 904.15,440z"/>
        </g>
      </g>
    </g>
  </g>
  <g id="GITHUB-Alt">
    <g id="shape14">
      <path id="path10" fill="#000000" fill-opacity="0.2" d="M707.95,485.8 L660.85,310.05 387.1,310.05 452.5,554.25 707.95,485.8z"/>
    </g>
  </g>
  <g id="Calque.__202">
    <g id="shape16">
      <path id="path11" fill="#FFFFFF" fill-opacity="1" d="M641.35,292 L367.6,292 433,536.2 688.45,467.75 641.35,292z"/>
    </g>
  </g>
  <g id="Calque.__203">
    <g id="shape18">
      <path id="path12" fill="#000000" fill-opacity="0.2" d="M456.9,324.6 L242.55,267.15 185.1,481.55 399.45,539 456.9,324.6z"/>
    </g>
  </g>
  <g id="Calque.__204">
    <g id="shape20">
      <path id="path13" fill="#FFFFFF" fill-opacity="1" d="M436.9,304.6 L222.55,247.15 165.1,461.55 379.45,519 436.9,304.6z"/>
    </g>
  </g>
  <g id="Symbole.__208">
    <g id="Symbole.__213_1" overflow="visible">
      <g id="Calque.__210">
        <g id="shape41">
          <path id="path29" fill="#333333" fill-opacity="1" d="M677.85,158 L677.85,64.6 346,64.65 346,158 677.85,158z"/>
          <path id="path30" fill="#666666" fill-opacity="1" d="M677.85,64.6 L677.85,158 677.85,222 346,222 346,158 346,64.65 346,64.6 246.85,158 246.85,222 95,222 C86.75,222 79.65,224.95 73.8,230.8 67.95,236.65 65,243.75 65,252 L65,374.05 959,374.05 959,252 C959,243.75 956.05,236.65 950.2,230.8 944.35,224.95 937.25,222 929,222 L777.15,222 777.15,158 677.85,64.6z"/>
        </g>
      </g>
    </g>
  </g>
</svg>