<?xml version="1.0" encoding="utf-8"?>
<!-- Generator: flash2svg, http://dissentgraphics.com/tools/flash2svg -->
<svg xmlns:xlink="http://www.w3.org/1999/xlink" id="Trash-Full" image-rendering="optimizeSpeed" baseProfile="basic" version="1.1" style="background-color:#ffffff" x="0px" y="0px" width="1024px" height="1024px" viewBox="0 0 1024 1024" enable-background="new 0 0 1024 1024" xmlns="http://www.w3.org/2000/svg">
  <defs transform="matrix(1 0 0 1 0 0) "/>
  <g id="Symbole.__2014.__2F0">
    <g id="Calque.__201">
      <g id="shape">
        <path id="path" fill="#878787" fill-opacity="1" d="M687.168,881.618 L690.325,870.801 C690.843,868.99 690.636,867.282 689.756,865.677 688.876,864.021 687.582,862.934 685.771,862.468 685.719,862.417 685.667,862.417 685.616,862.417 683.908,861.951 682.251,862.158 680.647,863.038 679.043,863.917 677.956,865.263 677.438,867.075 L676.351,870.801 668.174,899.06 668.174,898.905 C668.018,899.371 667.915,899.836 667.915,900.302 666.828,906.047 664.033,911.119 659.582,915.518 653.734,921.367 646.695,924.265 638.414,924.265 630.133,924.265 623.042,921.367 617.142,915.518 611.294,909.618 608.395,902.528 608.395,894.247 608.395,889.33 609.43,884.827 611.501,880.738 612.38,879.03 612.536,877.374 611.966,875.666 L611.966,875.718 C611.449,873.958 610.414,872.664 608.809,871.784 608.757,871.733 608.706,871.733 608.654,871.733 607.05,870.853 605.342,870.646 603.634,871.215 603.582,871.215 603.478,871.215 603.427,871.267 601.719,871.836 600.425,872.923 599.545,874.528 L599.493,874.579 C596.439,880.479 594.939,887.053 594.939,894.247 594.939,906.254 599.183,916.502 607.619,925.042 616.159,933.478 626.406,937.722 638.414,937.722 650.421,937.722 660.669,933.478 669.105,925.042 675.575,918.572 679.56,911.067 681.061,902.631 L687.168,881.618z"/>
        <path id="path1" fill="#666666" fill-opacity="1" d="M615.434,809.884 C607.05,813.714 600.684,819.148 596.336,826.239 596.077,826.601 595.818,827.015 595.611,827.378 591.367,834.675 585.157,850.099 576.927,873.544 576.048,876.132 575.116,878.823 574.133,881.566 569.319,895.592 564.92,908.79 561.038,921.16 555.397,943.156 569.112,963.548 585.26,979.696 Q609.534,1003.97 643.848,1003.97 L809.52,1003.97 687.168,881.618 681.061,902.631 C679.56,911.067 675.575,918.572 669.105,925.042 660.669,933.478 650.421,937.722 638.414,937.722 626.406,937.722 616.159,933.478 607.619,925.042 599.183,916.502 594.939,906.254 594.939,894.247 594.939,887.053 596.439,880.479 599.493,874.579 L599.545,874.528 C600.425,872.923 601.719,871.836 603.427,871.267 603.478,871.215 603.582,871.215 603.634,871.215 605.342,870.646 607.05,870.853 608.654,871.733 608.706,871.733 608.757,871.733 608.809,871.784 610.414,872.664 611.449,873.958 611.966,875.718 L611.966,875.666 C612.536,877.374 612.38,879.03 611.501,880.738 609.43,884.827 608.395,889.33 608.395,894.247 608.395,902.528 611.294,909.618 617.142,915.518 623.042,921.367 630.133,924.265 638.414,924.265 646.695,924.265 653.734,921.367 659.582,915.518 664.033,911.119 666.828,906.047 667.915,900.302 667.915,899.836 668.018,899.371 668.174,898.905 L668.174,899.06 676.351,870.801 615.434,809.884z M545.77,608.138 C529.933,623.975 522.014,643.125 522.014,665.536 522.014,687.946 529.933,707.096 545.77,722.933 559.382,736.545 575.375,744.309 593.852,746.224 593.696,748.604 593.593,751.037 593.593,753.47 593.593,776.812 600.994,795.547 615.848,809.729 623.87,817.44 634.118,823.755 646.54,828.723 673.194,839.333 703.161,845.544 736.44,847.355 745.032,847.821 753.83,847.977 762.836,847.821 765.268,847.77 767.649,847.718 770.082,847.666 776.655,847.459 783.021,847.148 789.232,846.734 827.79,844.095 860.138,837.366 886.378,826.498 896.367,822.357 904.752,816.923 911.48,810.246 925.195,796.583 932.079,777.64 932.079,753.47 932.079,751.037 932.027,748.656 931.872,746.327 950.66,744.516 966.963,736.752 980.782,722.933 996.619,707.096 1004.538,687.946 1004.538,665.536 1004.538,643.125 996.619,623.975 980.782,608.138 964.944,592.3 945.794,584.382 923.384,584.382 900.973,584.382 881.824,592.3 865.986,608.138 857.498,616.626 851.287,626.097 847.302,636.5 846.94,637.484 846.578,638.519 846.215,639.606 821.424,628.582 793.631,623.044 762.836,623.044 732.403,623.044 704.869,628.426 680.233,639.243 679.922,638.312 679.612,637.38 679.25,636.5 675.264,626.097 669.054,616.626 660.566,608.138 644.728,592.3 625.578,584.382 603.168,584.382 580.757,584.382 561.608,592.3 545.77,608.138z M672.573,713.514 C681.32,713.514 688.773,717.033 694.932,724.072 701.091,731.111 704.196,739.599 704.196,749.536 704.196,759.473 701.091,767.961 694.932,775 688.773,782.039 681.32,785.558 672.573,785.558 663.826,785.558 656.373,782.039 650.214,775 644.055,767.961 640.95,759.473 640.95,749.536 640.95,739.599 644.055,731.111 650.214,724.072 656.373,717.033 663.826,713.514 672.573,713.514z M762.836,787.37 C767.235,787.37 771.013,788.923 774.119,792.028 777.276,795.185 778.829,798.963 778.829,803.363 778.829,807.762 777.276,811.54 774.119,814.645 771.013,817.803 767.235,819.355 762.836,819.355 758.437,819.355 754.658,817.803 751.501,814.645 748.396,811.54 746.843,807.762 746.843,803.363 746.843,798.963 748.396,795.185 751.501,792.028 754.658,788.923 758.437,787.37 762.836,787.37z M821.528,747.259 C821.528,737.322 824.633,728.834 830.792,721.795 836.951,714.756 844.404,711.236 853.151,711.236 861.897,711.236 869.35,714.756 875.509,721.795 881.668,728.834 884.774,737.322 884.774,747.259 884.774,757.196 881.668,765.684 875.509,772.723 869.35,779.762 861.897,783.281 853.151,783.281 844.404,783.281 836.951,779.762 830.792,772.723 824.633,765.684 821.528,757.196 821.528,747.259z"/>
        <path id="path2" fill="#535353" fill-opacity="1" d="M940.412,979.696 C956.611,963.548 969.758,940.776 964.685,921.16 964.685,921.16 941.292,847.873 930.061,827.378 929.284,825.98 928.456,824.634 927.369,823.082 923.332,817.492 918.001,813.403 911.48,810.246 904.752,816.923 896.367,822.357 886.378,826.498 860.138,837.366 827.79,844.095 789.232,846.734 L789.232,866.298 C789.232,873.182 785.764,876.65 778.88,876.65 L762.836,876.65 746.792,876.65 C739.908,876.65 736.44,873.182 736.44,866.298 L736.44,847.355 C703.161,845.544 673.194,839.333 646.54,828.723 634.118,823.755 623.87,817.44 615.848,809.729 615.693,809.78 615.589,809.832 615.434,809.884 L676.351,870.801 677.438,867.075 C677.956,865.263 679.043,863.917 680.647,863.038 682.251,862.158 683.908,861.951 685.616,862.417 685.667,862.417 685.719,862.417 685.771,862.468 687.582,862.934 688.876,864.021 689.756,865.677 690.636,867.282 690.843,868.99 690.325,870.801 L687.168,881.618 809.52,1003.97 881.875,1003.97 C904.752,1003.97 924.264,995.896 940.412,979.696z M860.862,895.489 L860.862,895.334 C861.018,895.799 861.121,896.265 861.121,896.731 862.208,902.476 865.003,907.548 869.454,911.947 875.302,917.796 882.341,920.694 890.622,920.694 898.903,920.694 905.994,917.796 911.894,911.947 917.743,906.047 920.641,898.956 920.641,890.675 920.641,885.759 919.606,881.256 917.535,877.167 916.656,875.459 916.5,873.803 917.07,872.095 L917.07,872.147 C917.587,870.387 918.622,869.093 920.227,868.213 920.279,868.161 920.33,868.161 920.382,868.161 921.987,867.282 923.694,867.075 925.402,867.644 925.454,867.644 925.558,867.644 925.609,867.696 927.317,868.265 928.611,869.352 929.491,870.956 L929.543,871.008 C932.597,876.908 934.098,883.481 934.098,890.675 934.098,902.683 929.853,912.931 921.417,921.47 912.877,929.907 902.63,934.151 890.622,934.151 878.615,934.151 868.367,929.907 859.931,921.47 853.461,915.001 849.476,907.496 847.975,899.06 L838.711,867.23 C838.193,865.418 838.4,863.71 839.28,862.106 840.16,860.45 841.454,859.363 843.265,858.897 843.317,858.845 843.369,858.845 843.42,858.845 845.128,858.38 846.785,858.587 848.389,859.466 849.994,860.346 851.08,861.692 851.598,863.503 L860.862,895.489z M575.996,636.19 C569.837,642.349 565.955,649.491 564.454,657.617 579.256,640.279 604.462,634.948 640.018,641.624 638.621,639.709 637.068,637.898 635.36,636.19 627.183,628.012 617.297,623.924 605.704,623.924 594.11,623.872 584.225,627.961 575.996,636.19z M920.848,623.924 C909.254,623.924 899.369,628.012 891.192,636.19 889.484,637.898 887.931,639.709 886.533,641.624 922.09,634.948 947.295,640.279 962.098,657.617 960.597,649.491 956.715,642.349 950.556,636.19 942.327,627.961 932.441,623.872 920.848,623.924z"/>
        <path id="path3" fill="#878787" fill-opacity="1" d="M860.862,895.489 L851.598,863.503 C851.08,861.692 849.994,860.346 848.389,859.466 846.785,858.587 845.128,858.38 843.42,858.845 843.369,858.845 843.317,858.845 843.265,858.897 841.454,859.363 840.16,860.45 839.28,862.106 838.4,863.71 838.193,865.418 838.711,867.23 L847.975,899.06 C849.476,907.496 853.461,915.001 859.931,921.47 868.367,929.907 878.615,934.151 890.622,934.151 902.63,934.151 912.877,929.907 921.417,921.47 929.853,912.931 934.098,902.683 934.098,890.675 934.098,883.481 932.597,876.908 929.543,871.008 L929.491,870.956 C928.611,869.352 927.317,868.265 925.609,867.696 925.558,867.644 925.454,867.644 925.402,867.644 923.694,867.075 921.987,867.282 920.382,868.161 920.33,868.161 920.279,868.161 920.227,868.213 918.622,869.093 917.587,870.387 917.07,872.147 L917.07,872.095 C916.5,873.803 916.656,875.459 917.535,877.167 919.606,881.256 920.641,885.759 920.641,890.675 920.641,898.956 917.743,906.047 911.894,911.947 905.994,917.796 898.903,920.694 890.622,920.694 882.341,920.694 875.302,917.796 869.454,911.947 865.003,907.548 862.208,902.476 861.121,896.731 861.121,896.265 861.018,895.799 860.862,895.334 L860.862,895.489z"/>
        <path id="path6" fill="#FFFFFF" fill-opacity="1" d="M789.232,846.734 C783.021,847.148 776.655,847.459 770.082,847.666 767.649,847.718 765.268,847.77 762.836,847.821 L762.836,876.65 778.88,876.65 C785.764,876.65 789.232,873.182 789.232,866.298 L789.232,846.734z"/>
        <path id="path7" fill="none" stroke="#999999" stroke-opacity="1" stroke-width="9.316" stroke-linecap="round" stroke-linejoin="miter" stroke-miterlimit="3" d="M762.836,847.821 L762.836,876.65"/>
        <path id="path8" fill="#FFFFFF" fill-opacity="1" d="M762.836,847.821 C753.83,847.977 745.032,847.821 736.44,847.355 L736.44,866.298 C736.44,873.182 739.908,876.65 746.792,876.65 L762.836,876.65 762.836,847.821z"/>
        <path id="path9" fill="none" stroke="#999999" stroke-opacity="1" stroke-width="9.316" stroke-linecap="round" stroke-linejoin="miter" stroke-miterlimit="3" d="M762.836,876.65 L762.836,847.821"/>
        <path id="path15" fill="#333333" fill-opacity="1" d="M548.358,665.846 C548.306,667.761 548.41,669.573 548.565,671.384 549.755,684.892 555.241,696.538 565.127,706.371 573.201,714.445 582.465,719.621 592.92,721.846 594.939,722.312 596.802,722.002 598.561,720.915 598.613,720.863 598.613,720.863 598.665,720.811 600.476,719.673 601.563,718.068 602.029,715.998 602.34,714.601 602.288,713.255 601.874,712.013 601.667,711.392 601.356,710.771 600.994,710.201 599.855,708.39 598.251,707.303 596.181,706.837 588.573,705.129 581.844,701.351 575.996,695.503 568.802,688.36 564.765,679.872 563.885,670.038 563.781,668.641 563.73,667.244 563.73,665.846 563.73,663 563.988,660.256 564.454,657.617 565.955,649.491 569.837,642.349 575.996,636.19 584.225,627.961 594.11,623.872 605.704,623.924 617.297,623.924 627.183,628.012 635.36,636.19 637.068,637.898 638.621,639.709 640.018,641.624 641.312,643.436 642.451,645.299 643.434,647.266 644.883,650.112 645.97,653.166 646.643,656.375 646.798,656.996 647.005,657.617 647.264,658.186 647.833,659.377 648.765,660.412 650.007,661.188 651.767,662.327 653.682,662.689 655.804,662.223 657.822,661.757 659.427,660.671 660.617,658.911 661.756,657.099 662.118,655.184 661.652,653.114 661.394,651.82 661.083,650.578 660.721,649.336 659.789,646.231 658.599,643.229 657.201,640.382 654.51,634.948 650.835,629.927 646.229,625.321 634.998,614.09 621.49,608.5 605.704,608.552 589.815,608.552 576.306,614.142 565.127,625.321 553.896,636.552 548.306,650.06 548.358,665.846z M891.192,636.19 C899.369,628.012 909.254,623.924 920.848,623.924 932.441,623.872 942.327,627.961 950.556,636.19 956.715,642.349 960.597,649.491 962.098,657.617 962.563,660.256 962.822,663 962.822,665.846 962.822,667.244 962.77,668.641 962.667,670.038 961.787,679.872 957.75,688.36 950.556,695.503 944.708,701.351 937.979,705.129 930.371,706.837 928.301,707.303 926.696,708.39 925.558,710.201 924.885,711.185 924.523,712.272 924.419,713.358 924.264,714.238 924.316,715.118 924.523,715.998 924.885,717.602 925.661,718.948 926.852,720.035 927.162,720.294 927.524,720.553 927.887,720.811 929.698,721.95 931.613,722.312 933.632,721.846 944.086,719.621 953.351,714.445 961.425,706.371 971.31,696.538 976.796,684.892 977.987,671.384 978.142,669.573 978.246,667.761 978.194,665.846 978.246,650.06 972.656,636.552 961.425,625.321 950.245,614.142 936.737,608.552 920.848,608.552 905.062,608.5 891.554,614.09 880.323,625.321 875.716,629.927 872.042,634.948 869.35,640.382 867.849,643.384 866.659,646.489 865.727,649.75 865.417,650.837 865.158,651.975 864.899,653.114 864.434,655.184 864.796,657.099 865.934,658.911 867.125,660.671 868.729,661.757 870.748,662.223 872.87,662.689 874.785,662.327 876.545,661.188 877.631,660.515 878.459,659.635 879.029,658.652 879.443,657.979 879.753,657.203 879.909,656.375 880.582,653.166 881.668,650.112 883.118,647.266 884.101,645.299 885.24,643.436 886.533,641.624 887.931,639.709 889.484,637.898 891.192,636.19z"/>
        <path id="path20" fill="#333333" fill-opacity="1" d="M672.573,713.514 C663.826,713.514 656.373,717.033 650.214,724.072 644.055,731.111 640.95,739.599 640.95,749.536 640.95,759.473 644.055,767.961 650.214,775 656.373,782.039 663.826,785.558 672.573,785.558 681.32,785.558 688.773,782.039 694.932,775 701.091,767.961 704.196,759.473 704.196,749.536 704.196,739.599 701.091,731.111 694.932,724.072 688.773,717.033 681.32,713.514 672.573,713.514z M672.314,736.442 C674.126,734.682 676.248,733.802 678.732,733.802 681.216,733.802 683.338,734.682 685.098,736.442 686.909,738.253 687.789,740.375 687.789,742.86 687.789,745.344 686.909,747.466 685.098,749.226 683.338,751.037 681.216,751.917 678.732,751.917 676.248,751.917 674.126,751.037 672.314,749.226 670.554,747.466 669.675,745.344 669.675,742.86 669.675,740.375 670.554,738.253 672.314,736.442z M691.723,728.678 C691.723,730.024 691.257,731.163 690.325,732.094 689.394,733.026 688.255,733.492 686.909,733.492 685.564,733.492 684.425,733.026 683.494,732.094 682.562,731.163 682.096,730.024 682.096,728.678 682.096,727.333 682.562,726.194 683.494,725.262 684.425,724.331 685.564,723.865 686.909,723.865 688.255,723.865 689.394,724.331 690.325,725.262 691.257,726.194 691.723,727.333 691.723,728.678z"/>
        <path id="path23" fill="#CCCCCC" fill-opacity="1" d="M672.314,736.442 C670.554,738.253 669.675,740.375 669.675,742.86 669.675,745.344 670.554,747.466 672.314,749.226 674.126,751.037 676.248,751.917 678.732,751.917 681.216,751.917 683.338,751.037 685.098,749.226 686.909,747.466 687.789,745.344 687.789,742.86 687.789,740.375 686.909,738.253 685.098,736.442 683.338,734.682 681.216,733.802 678.732,733.802 676.248,733.802 674.126,734.682 672.314,736.442z"/>
        <path id="path26" fill="#CCCCCC" fill-opacity="1" d="M691.723,728.678 C691.723,727.333 691.257,726.194 690.325,725.262 689.394,724.331 688.255,723.865 686.909,723.865 685.564,723.865 684.425,724.331 683.494,725.262 682.562,726.194 682.096,727.333 682.096,728.678 682.096,730.024 682.562,731.163 683.494,732.094 684.425,733.026 685.564,733.492 686.909,733.492 688.255,733.492 689.394,733.026 690.325,732.094 691.257,731.163 691.723,730.024 691.723,728.678z"/>
        <path id="path29" fill="#333333" fill-opacity="1" d="M762.836,787.37 C758.437,787.37 754.658,788.923 751.501,792.028 748.396,795.185 746.843,798.963 746.843,803.363 746.843,807.762 748.396,811.54 751.501,814.645 754.658,817.803 758.437,819.355 762.836,819.355 767.235,819.355 771.013,817.803 774.119,814.645 777.276,811.54 778.829,807.762 778.829,803.363 778.829,798.963 777.276,795.185 774.119,792.028 771.013,788.923 767.235,787.37 762.836,787.37z"/>
        <path id="path32" fill="#333333" fill-opacity="1" d="M821.528,747.259 C821.528,757.196 824.633,765.684 830.792,772.723 836.951,779.762 844.404,783.281 853.151,783.281 861.897,783.281 869.35,779.762 875.509,772.723 881.668,765.684 884.774,757.196 884.774,747.259 884.774,737.322 881.668,728.834 875.509,721.795 869.35,714.756 861.897,711.236 853.151,711.236 844.404,711.236 836.951,714.756 830.792,721.795 824.633,728.834 821.528,737.322 821.528,747.259z M860.345,734.061 C862.829,734.061 864.951,734.941 866.711,736.701 868.522,738.512 869.402,740.634 869.402,743.118 869.402,745.603 868.522,747.725 866.711,749.484 864.951,751.296 862.829,752.176 860.345,752.176 857.86,752.176 855.738,751.296 853.927,749.484 852.167,747.725 851.287,745.603 851.287,743.118 851.287,740.634 852.167,738.512 853.927,736.701 855.738,734.941 857.86,734.061 860.345,734.061z M863.709,728.937 C863.709,727.591 864.175,726.453 865.106,725.521 866.038,724.59 867.177,724.124 868.522,724.124 869.868,724.124 871.007,724.59 871.938,725.521 872.87,726.453 873.336,727.591 873.336,728.937 873.336,730.283 872.87,731.421 871.938,732.353 871.007,733.285 869.868,733.75 868.522,733.75 867.177,733.75 866.038,733.285 865.106,732.353 864.175,731.421 863.709,730.283 863.709,728.937z"/>
        <path id="path35" fill="#CCCCCC" fill-opacity="1" d="M860.345,734.061 C857.86,734.061 855.738,734.941 853.927,736.701 852.167,738.512 851.287,740.634 851.287,743.118 851.287,745.603 852.167,747.725 853.927,749.484 855.738,751.296 857.86,752.176 860.345,752.176 862.829,752.176 864.951,751.296 866.711,749.484 868.522,747.725 869.402,745.603 869.402,743.118 869.402,740.634 868.522,738.512 866.711,736.701 864.951,734.941 862.829,734.061 860.345,734.061z"/>
        <path id="path38" fill="#CCCCCC" fill-opacity="1" d="M863.709,728.937 C863.709,730.283 864.175,731.421 865.106,732.353 866.038,733.285 867.177,733.75 868.522,733.75 869.868,733.75 871.007,733.285 871.938,732.353 872.87,731.421 873.336,730.283 873.336,728.937 873.336,727.591 872.87,726.453 871.938,725.521 871.007,724.59 869.868,724.124 868.522,724.124 867.177,724.124 866.038,724.59 865.106,725.521 864.175,726.453 863.709,727.591 863.709,728.937z"/>
      </g>
    </g>
    <g id="Calque.__202">
      <g id="shape43">
        <path id="path41" fill="#333333" fill-opacity="1" d="M645.453,704.094 Q648.848,704.461 651.534,702.308 L651.56,702.334 C665.793,691 680.078,692.242 694.362,705.957 696.019,707.51 697.985,708.286 700.263,708.235 702.54,708.183 704.455,707.355 706.059,705.699 707.664,704.042 708.44,702.076 708.388,699.798 708.337,697.521 707.508,695.606 705.852,694.002 684.322,673.247 662.739,671.746 641.157,689.447 639.345,690.844 638.362,692.708 638.103,694.985 637.845,697.21 638.466,699.229 639.915,701.04 641.312,702.852 643.175,703.835 645.453,704.094z"/>
      </g>
    </g>
  </g>
</svg>