<?xml version="1.0" encoding="utf-8"?>
<!-- Generator: flash2svg, http://dissentgraphics.com/tools/flash2svg -->
<svg xmlns:xlink="http://www.w3.org/1999/xlink" id="App-Default" image-rendering="optimizeSpeed" baseProfile="basic" version="1.1" style="background-color:#ffffff" x="0px" y="0px" width="1024px" height="1024px" viewBox="0 0 1024 1024" enable-background="new 0 0 1024 1024" xmlns="http://www.w3.org/2000/svg">
  <defs transform="matrix(1 0 0 1 0 0) "/>
  <g id="shadow">
    <g id="shape">
      <path id="path" fill="#000000" fill-opacity="0.09803921568627451" d="M964.65,346.3 Q956.05,325.45 945.25,305.45 C941.2,297.9 936.9,290.4 932.35,283.05 912.8,251.35 888.95,221.4 860.8,193.25 768.65,101.1 657.35,55 527,55 396.65,55 285.4,101.1 193.25,193.25 101.1,285.4 55,396.65 55,527 55,657.35 101.1,768.65 193.25,860.8 285.4,952.95 396.65,999 527,999 657.35,999 768.65,952.95 860.8,860.8 911.55,810 948.35,753.4 971.15,691.05 989.7,640.2 999,585.55 999,527 999,482.1 993.55,439.45 982.6,399.05 981.35,394.5 980.05,389.95 978.7,385.45 974.6,372.15 969.9,359.1 964.65,346.3z"/>
    </g>
  </g>
  <g id="circle">
    <g id="shape2">
      <path id="path1" fill="#374268" fill-opacity="1" d="M969.75,392.05 C968.65,387.7 967.4,383.05 966.1,378.45 963.6,369.7 960.75,360.85 957.65,352.1 951.2,333.85 943.5,316.05 934.5,298.45 930.7,291.05 926.55,283.5 922.2,276.05 L922.175,276.05 Q891.574,224.04 845.85,178.3 C753.7,86.15 642.4,40.05 512.05,40.05 381.7,40.05 270.45,86.15 178.3,178.3 86.15,270.45 40.05,381.7 40.05,512.05 40.05,642.4 86.15,753.7 178.3,845.85 246.35,913.9 324.8,956.8 413.2,974.5 445.15,980.9 477.95,984.05 512.05,984.05 642.4,984.05 753.7,938 845.85,845.85 894.45,797.25 930.25,743.35 953.2,684.05 970.2,640.1 980.2,593.25 983.15,543.3 983.75,533.1 984.05,522.65 984.05,512.05 984.05,470.3 979.35,430.45 969.75,392.05z"/>
    </g>
  </g>
  <mask id="ico-shadow">
    <g id="g">
      <g id="shape20">
        <path id="path14" fill="#FFFFFF" fill-opacity="1" d="M969.75,392.05 C968.65,387.7 967.4,383.05 966.1,378.45 963.6,369.7 960.75,360.85 957.65,352.1 951.2,333.85 943.5,316.05 934.5,298.45 930.7,291.05 926.55,283.5 922.2,276.05 L922.175,276.05 Q891.574,224.04 845.85,178.3 C753.7,86.15 642.4,40.05 512.05,40.05 381.7,40.05 270.45,86.15 178.3,178.3 86.15,270.45 40.05,381.7 40.05,512.05 40.05,642.4 86.15,753.7 178.3,845.85 246.35,913.9 324.8,956.8 413.2,974.5 445.15,980.9 477.95,984.05 512.05,984.05 642.4,984.05 753.7,938 845.85,845.85 894.45,797.25 930.25,743.35 953.2,684.05 970.2,640.1 980.2,593.25 983.15,543.3 983.75,533.1 984.05,522.65 984.05,512.05 984.05,470.3 979.35,430.45 969.75,392.05z"/>
      </g>
    </g>
  </mask>
  <g id="masked" mask="url(#ico-shadow)">
    <g id="Calque.__202">
      <g id="shape4">
        <path id="path2" fill="#000000" fill-opacity="0.2" d="M725.609,405.538 L662.062,295.442 568.231,349.596 C558.197,355.369 547.66,357.11 536.572,354.911 L725.609,405.538z"/>
        <path id="path3" fill="#252C45" fill-opacity="1" d="M451.492,239.042 L449.751,236.018 99.029,438.479 C88.033,444.802 80.932,454.103 77.633,466.335 74.38,478.477 75.892,490.114 82.214,501.064 L468.856,1170.849 C475.179,1181.799 484.479,1188.9 496.712,1192.199 506.104,1194.719 515.13,1194.398 523.835,1191.237 526.401,1190.275 528.967,1189.083 531.487,1187.617 L976.04,931.002 C986.99,924.679 994.091,915.378 997.39,903.146 1000.643,890.958 999.131,879.367 992.808,868.417 L725.609,405.538 536.572,354.911 C535.61,354.682 534.556,354.453 533.457,354.132 532.724,353.949 531.99,353.765 531.303,353.536 530.753,353.399 530.249,353.216 529.745,353.032 530.066,353.124 530.341,353.216 530.662,353.307 519.803,349.688 511.465,342.907 505.646,332.827 L451.492,239.042z"/>
        <path id="path4" fill="#FFFFFF" fill-opacity="0.8980392156862745" d="M533.457,354.132 C534.556,354.453 535.61,354.682 536.572,354.911 547.66,357.11 558.197,355.369 568.231,349.596 L662.062,295.442 451.492,239.042 505.646,332.827 C511.465,342.907 519.803,349.688 530.662,353.307 530.891,353.353 531.074,353.445 531.303,353.536 531.99,353.765 532.724,353.949 533.457,354.132z"/>
      </g>
    </g>
    <g id="Calque.__203">
      <g id="shape12">
        <path id="path8" fill="#FFFFFF" fill-opacity="0.8980392156862745" d="M653.22,250.404 C653.357,250.45 653.449,250.542 653.586,250.633 654.411,251.183 655.281,251.687 656.152,252.237 657.068,252.741 658.03,253.245 658.947,253.703 669.072,258.697 679.656,259.797 690.881,256.819 L795.479,228.779 606.762,119.737 634.802,224.381 C637.78,235.468 643.919,244.128 653.22,250.404z"/>
        <path id="path12" fill="#717DAE" fill-opacity="1" d="M656.152,252.237 C655.281,251.687 654.411,251.183 653.586,250.633 653.907,250.817 654.136,251.046 654.411,251.183 653.861,250.817 653.311,250.45 652.807,250.175 652.945,250.221 653.082,250.313 653.22,250.404 643.919,244.128 637.78,235.468 634.802,224.381 L606.762,119.737 605.846,116.392 214.623,221.22 C202.39,224.518 193.089,231.62 186.812,242.57 180.49,253.52 178.932,265.111 182.231,277.344 L382.355,1024.375 C385.654,1036.562 392.801,1045.862 403.706,1052.139 412.136,1056.996 420.932,1059.058 430.141,1058.279 432.89,1058.05 435.685,1057.5 438.48,1056.721 L934.301,923.9 C946.534,920.601 955.835,913.5 962.111,902.55 968.48,891.6 969.992,880.008 966.693,867.821 L828.374,351.543 658.947,253.703 C658.03,253.245 657.068,252.741 656.152,252.237z"/>
        <path id="path13" fill="#626E93" fill-opacity="1" d="M690.881,256.819 C679.656,259.797 669.072,258.697 658.947,253.703 L828.374,351.543 828.42,351.566 795.479,228.779 690.881,256.819z"/>
      </g>
    </g>
  </g>
  <g id="ico">
    <g id="shape22">
      <path id="path15" fill="#FFFFFF" fill-opacity="1" d="M719.75,510.75 L719.7,510.55 691.45,518.1 691.6,518.75 696.4,536.5 691.4,537.8 686.45,519.45 658.2,527.05 666.75,558.7 661.75,560.05 653.2,528.35 648,529.75 625,535.95 629.95,554.3 624.95,555.65 620,537.25 591.75,544.8 600.25,576.5 595.25,577.8 586.75,546.15 558.5,553.75 563.35,571.65 558.35,573 553.5,555.1 541.6,558.25 523.8,664.85 709.85,615 753.05,603.4 766.45,599.85 C771.95,598.35 774.05,594.8 772.5,589.25 L751.55,510.95 C750.05,505.4 746.45,503.35 740.95,504.85 L724.7,509.2 724.75,509.4 733.2,540.9 728.2,542.2 719.75,510.75z M765.95,617.8 C764.1,616.95 762.2,616.25 760.45,615.75 L729.75,638 C729.7,639.8 729.8,641.8 729.95,643.9 730.6,650.65 732.5,657.45 735.55,664.15 737.85,669.45 740.9,674.7 744.7,679.95 753.4,691.9 763.35,700.25 774.4,705.15 775.15,705.5 775.85,705.75 776.55,706 782.4,708.2 788.8,709.85 795.8,710.7 L842.65,716.55 C836.1,715.25 829.8,708.25 823.7,695.55 817.7,682.8 813.3,673.8 810.5,668.5 807.75,663.35 805,658.4 802.3,653.7 800.95,651.3 799.65,649.1 798.6,647.3 797.55,645.55 796.6,644.15 795.7,643 787,631.05 777.1,622.6 765.95,617.8z M467.35,359.5 L461.65,393.8 497.2,399.8 532.65,405.7 566.3,411.35 572,377.05 C573.05,370.7 570.7,367 565.05,366.1 L524.3,359.2 477.5,351.35 C471.8,350.45 468.45,353.15 467.35,359.5z M429.05,588.45 L425.55,589.35 427.6,596.95 429.05,588.45z M425.6,609.05 L425.5,609.05 420.55,590.7 392.3,598.3 400.8,629.95 395.85,631.25 387.3,599.6 373.55,603.3 C368.05,604.8 366,608.3 367.45,613.85 L388.45,692.15 C389.95,697.7 393.55,699.75 399.05,698.25 L411.2,695 425.6,609.05z M401.85,759.8 C402.35,761 403.05,761.95 404.05,762.7 L431.25,805.9 C435.85,805 441,805.1 446.4,806 452,806.95 457,808.65 461.2,811.05 L502.25,778.05 C502.6,777.85 502.9,777.5 503.15,777.25 503.9,776.65 504.45,775.8 504.95,774.75 504.4,773.5 503.65,772.15 502.75,770.85 499.8,766.75 495.75,764.25 490.7,763.4 485.6,762.6 481,763.6 476.85,766.5 474.85,767.95 473.25,769.7 472,771.55 471.7,772.1 471.4,772.65 471.1,773.3 L471,773.45 470.95,773.5 C471,773.4 471,773.4 471.05,773.35 471,773.15 470.9,772.95 470.9,772.7 470.4,770.1 469.35,767.6 467.65,765.35 464.75,761.15 460.75,758.7 455.7,757.8 450.65,757 446.05,758 441.8,761 439.85,762.4 438.25,764.05 436.95,765.95 436.4,766.75 436,767.6 435.6,768.6 435.6,768.7 435.6,768.75 435.65,768.9 L435.5,768.9 435.4,768.8 435.6,768.05 C435.55,767.5 435.45,766.95 435.35,766.5 434.9,763.8 433.85,761.35 432.15,759 429.15,755 425.2,752.45 420.15,751.6 415.1,750.65 410.45,751.75 406.3,754.7 404.4,756.1 402.95,757.7 401.65,759.35 401.7,759.55 401.85,759.7 401.85,759.8z"/>
      <path id="path16" fill="#CCCCCC" fill-opacity="1" d="M724.75,509.4 L719.75,510.75 728.2,542.2 733.2,540.9 724.75,509.4z M691.6,518.75 L691.45,518.1 691.2,518.2 554.45,329.55 C551.05,324.95 547.05,324.3 542.35,327.7 L522.5,342.1 C517.9,345.45 517.25,349.45 520.65,354.2 L524.3,359.2 565.05,366.1 C570.7,367 573.05,370.7 572,377.05 L566.3,411.35 565.5,416.05 648,529.75 653.2,528.35 661.75,560.05 666.75,558.7 658.2,527.05 686.45,519.45 691.4,537.8 696.4,536.5 691.6,518.75z M729.75,638 L760.45,615.75 761.45,614.95 753.05,603.4 709.85,615 727.6,639.5 729.75,638z M529.7,422.85 L494.35,416.95 435.6,768.05 435.4,768.8 435.5,768.9 435.65,768.9 C435.6,768.75 435.6,768.7 435.6,768.6 436,767.6 436.4,766.75 436.95,765.95 438.25,764.05 439.85,762.4 441.8,761 446.05,758 450.65,757 455.7,757.8 460.75,758.7 464.75,761.15 467.65,765.35 469.35,767.6 470.4,770.1 470.9,772.7 470.9,772.95 471,773.15 471.05,773.35 471,773.4 471,773.4 470.95,773.5 L471,773.45 471.1,773.3 529.7,422.85z M558.5,553.75 L553.5,555.1 558.35,573 563.35,571.65 558.5,553.75z M625,535.95 L620,537.25 624.95,555.65 629.95,554.3 625,535.95z M586.75,546.15 L595.25,577.8 600.25,576.5 591.75,544.8 586.75,546.15z M425.55,589.35 L420.55,590.7 425.5,609.05 425.6,609.05 427.6,596.95 425.55,589.35z M387.3,599.6 L395.85,631.25 400.8,629.95 392.3,598.3 387.3,599.6z"/>
      <path id="path25" fill="#515151" fill-opacity="1" d="M566.3,411.35 L532.65,405.7 529.7,422.85 563.35,428.55 565.5,416.05 566.3,411.35z"/>
      <path id="path26" fill="#BEBEBE" fill-opacity="1" d="M563.35,428.55 L529.7,422.85 471.1,773.3 C471.4,772.65 471.7,772.1 472,771.55 473.25,769.7 474.85,767.95 476.85,766.5 481,763.6 485.6,762.6 490.7,763.4 495.75,764.25 499.8,766.75 502.75,770.85 503.65,772.15 504.4,773.5 504.95,774.75 505.4,773.7 505.8,772.45 506.05,770.9 L523.8,664.85 541.6,558.25 563.35,428.55z"/>
      <path id="path27" fill="#666666" fill-opacity="1" d="M529.7,422.85 L532.65,405.7 497.2,399.8 494.35,416.95 529.7,422.85z M565.5,416.05 L648,529.75 625,535.95 620,537.25 591.75,544.8 586.75,546.15 558.5,553.75 553.5,555.1 541.6,558.25 563.35,428.55 565.5,416.05z"/>
      <path id="path31" fill="#717171" fill-opacity="1" d="M494.35,416.95 L497.2,399.8 461.65,393.8 458.8,411 494.35,416.95z"/>
      <path id="path44" fill="#EAEAEA" fill-opacity="1" d="M458.8,411 L429.05,588.45 427.6,596.95 425.6,609.05 411.2,695 401.4,753.35 C401.1,755.35 401.15,757.15 401.45,758.55 401.6,758.8 401.6,759.15 401.65,759.35 402.95,757.7 404.4,756.1 406.3,754.7 410.45,751.75 415.1,750.65 420.15,751.6 425.2,752.45 429.15,755 432.15,759 433.85,761.35 434.9,763.8 435.35,766.5 435.45,766.95 435.55,767.5 435.6,768.05 L494.35,416.95 458.8,411z"/>
      <path id="path51" fill="#919D9F" fill-opacity="1" d="M461.2,811.05 C457,808.65 452,806.95 446.4,806 441,805.1 435.85,805 431.25,805.9 L443.5,825.2 461.2,811.05z"/>
    </g>
  </g>
</svg>