<?xml version="1.0" encoding="utf-8"?>
<!-- Generator: flash2svg, http://dissentgraphics.com/tools/flash2svg -->
<svg xmlns:xlink="http://www.w3.org/1999/xlink" id="Finder-v3" image-rendering="optimizeSpeed" baseProfile="basic" version="1.1" style="background-color:#ffffff" x="0px" y="0px" width="1024px" height="1024px" viewBox="0 0 1024 1024" enable-background="new 0 0 1024 1024" xmlns="http://www.w3.org/2000/svg">
  <defs transform="matrix(1 0 0 1 0 0) "/>
  <g id="shadow">
    <g id="shape">
      <path id="path" fill="#000000" fill-opacity="0.09803921568627451" d="M965.65,347.3 Q957.05,326.45 946.25,306.45 C942.2,298.9 937.9,291.4 933.35,284.05 913.8,252.35 889.95,222.4 861.8,194.25 769.65,102.1 658.35,56 528,56 397.65,56 286.4,102.1 194.25,194.25 102.1,286.4 56,397.65 56,528 56,658.35 102.1,769.65 194.25,861.8 286.4,953.95 397.65,1000 528,1000 658.35,1000 769.65,953.95 861.8,861.8 912.55,811 949.35,754.4 972.15,692.05 990.7,641.2 1000,586.55 1000,528 1000,483.1 994.55,440.45 983.6,400.05 982.35,395.5 981.05,390.95 979.7,386.45 975.6,373.15 970.9,360.1 965.65,347.3z"/>
    </g>
  </g>
  <g id="BackgroundInner">
    <g id="shape2">
      <path id="path1" fill="#363F6A" fill-opacity="1" d="M951.95,691.1 C974.3,636.15 985.45,576.55 985.45,512.3 Q985.45,316.5 847,178.05 C754.7,85.75 643.25,39.6 512.7,39.6 382.15,39.6 270.75,85.75 178.45,178.05 86.15,270.35 40,381.75 40,512.3 40,642.85 86.15,754.3 178.45,846.6 260.6,928.8 357.95,974.4 470.4,983.35 484.25,984.5 498.35,985.05 512.7,985.05 643.25,985.05 754.7,938.9 847,846.6 893.9,799.7 928.9,747.85 951.95,691.1z"/>
    </g>
  </g>
  <g id="ico-shadow">
    <g id="shape4">
      <path id="path2" fill="#000000" fill-opacity="0.2" d="M985.45,512.3 Q985.45,459.884 975.525,411.575 L775.15,211.2 552.95,338.1 427.675,212.825 375.85,272.975 503.95,505.075 251.25,812.9 413.85,975.5 C432.4,979.2 451.2,981.8 470.4,983.35 484.25,984.5 498.35,985.05 512.7,985.05 643.25,985.05 754.7,938.9 847,846.6 893.9,799.7 928.9,747.85 951.95,691.1 974.3,636.15 985.45,576.55 985.45,512.3z"/>
    </g>
  </g>
  <g id="ico">
    <g id="shape6">
      <path id="path3" fill="#5B658F" fill-opacity="1" d="M646.25,752.05 L644.6,753.975 594,812.9 771.25,812.9 646.25,752.05z M371.5,751.525 L370.85,750.825 251.25,812.9 428.35,812.9 371.5,751.525z"/>
      <path id="path4" fill="#A4B7FF" fill-opacity="1" d="M654.75,261.05 L654.75,261.025 654.725,261.025 598.65,211.2 512.35,378.2 426.05,211.2 365.05,261.325 508.55,514.2 654.75,261.05z"/>
      <path id="path5" fill="#97A8E9" fill-opacity="1" d="M654.75,261.025 L654.75,261.05 508.55,514.2 644.6,753.975 646.25,752.05 771.25,812.9 591.65,514.6 775.15,211.2 654.75,261.025z"/>
      <path id="path6" fill="#D6DEFA" fill-opacity="1" d="M654.725,261.025 L654.75,261.025 775.15,211.2 598.65,211.2 654.725,261.025z"/>
      <path id="path7" fill="#D5DCFC" fill-opacity="1" d="M365.025,261.35 L365.05,261.325 426.05,211.2 248.95,211.2 365.025,261.35z"/>
      <path id="path8" fill="#7782BC" fill-opacity="1" d="M365.05,261.325 L365.025,261.35 248.95,211.2 431.7,514.6 251.25,812.9 370.85,750.825 372.375,750.025 508.55,514.2 365.05,261.325z"/>
      <path id="path9" fill="#FFFFFF" fill-opacity="1" d="M370.85,750.825 L371.5,751.525 372.375,750.025 370.85,750.825z"/>
      <path id="path12" fill="#6C74AC" fill-opacity="1" d="M372.375,750.025 L371.5,751.525 428.35,812.9 512.35,651.8 594,812.9 644.6,753.975 508.55,514.2 372.375,750.025z"/>
    </g>
  </g>
</svg>