<?xml version="1.0" encoding="utf-8"?>
<!-- Generator: flash2svg, http://dissentgraphics.com/tools/flash2svg -->
<svg xmlns:xlink="http://www.w3.org/1999/xlink" id="APP-Alt" image-rendering="optimizeSpeed" baseProfile="basic" version="1.1" style="background-color:#ffffff" x="0px" y="0px" width="1024px" height="1024px" viewBox="0 0 1024 1024" enable-background="new 0 0 1024 1024" xmlns="http://www.w3.org/2000/svg">
  <defs transform="matrix(1 0 0 1 0 0) "/>
  <g id="shadow">
    <g id="shape">
      <path id="path" fill="#000000" fill-opacity="0.09803921568627451" d="M969.65,351.3 Q961.05,330.45 950.25,310.45 C946.2,302.9 941.9,295.4 937.35,288.05 917.8,256.35 893.95,226.4 865.8,198.25 773.65,106.1 662.35,60 532,60 401.65,60 290.4,106.1 198.25,198.25 106.1,290.4 60,401.65 60,532 60,662.35 106.1,773.65 198.25,865.8 290.4,957.95 401.65,1004 532,1004 662.35,1004 773.65,957.95 865.8,865.8 916.55,815 953.35,758.4 976.15,696.05 994.7,645.2 1004,590.55 1004,532 1004,487.1 998.55,444.45 987.6,404.05 986.35,399.5 985.05,394.95 983.7,390.45 979.6,377.15 974.9,364.1 969.65,351.3z"/>
    </g>
  </g>
  <g id="bg">
    <g id="shape2">
      <path id="path1" fill="#5F5C8E" fill-opacity="1" d="M962.95,367.95 C961.35,362.8 959.55,357.45 957.65,352.1 951.2,333.85 943.5,316.05 934.5,298.45 930.7,291.05 926.55,283.5 922.2,276.05 901.9,241.55 876.4,208.85 845.85,178.3 773.25,105.7 688.7,61.65 592.2,46.25 575.95,43.65 559.4,41.85 542.15,40.9 532.45,40.35 522.3,40.05 512.05,40.05 502.7,40.05 493.45,40.3 484.15,40.8 365.8,46.9 263.85,92.75 178.3,178.3 Q40.05,316.55 40.05,512.05 C40.05,642.4 86.15,753.7 178.3,845.85 235,902.5 298.85,941.75 369.4,963.4 L241.05,835.05 258.05,188.05 785.05,190.05 962.925,367.925"/>
      <path id="path2" fill="#4B4C6F" fill-opacity="1" d="M969.75,392.05 C968.65,387.7 967.4,383.05 966.1,378.45 965.1,375.05 964.1,371.6 962.95,367.95 L962.925,367.925 L785.05,190.05 258.05,188.05 241.05,835.05 369.4,963.4 C406.15,974.65 444.2,981.25 484.15,983.35 484.3,983.35 484.4,983.35 484.55,983.35 493.05,983.8 501.15,984.05 509.05,984.05 510.25,984.05 511.15,984.05 512.05,984.05 522.35,984.05 532.55,983.75 542.15,983.25 544.65,983.1 546.9,982.95 549.1,982.8 569.3,981.35 589,978.75 607.8,975.1 615.75,973.55 623.6,971.8 631.2,969.95 712,949.65 783.35,908.35 845.85,845.85 894.45,797.25 930.25,743.35 953.2,684.05 971.65,636.4 981.85,585.25 983.75,530.55 983.95,524.5 984.05,518.3 984.05,512.05 984.05,511.4 984.05,510.7 984.05,510.05 984.05,509.7 984.05,509.4 984.05,509.05 983.85,468.4 979.1,429.55 969.75,392.05z"/>
    </g>
  </g>
  <g id="Calque.__203">
    <g id="Symbole.__2020_1" overflow="visible">
      <g id="Calque.__220">
        <g id="Symbole.__2024_2" overflow="visible">
          <g id="Calque.__221">
            <g id="shape86">
              <path id="path80" fill="#28293C" fill-opacity="1" d="M774.621,178.281 C768.915,172.574 761.989,169.697 753.941,169.697 L678.879,169.697 678.879,845.303 753.941,845.303 C761.989,845.303 768.915,842.426 774.621,836.719 780.328,831.013 783.205,824.087 783.205,816.039 L783.205,198.961 Q783.205,186.865 774.621,178.281z M740.382,209.447 C746.869,209.447 750.137,212.715 750.137,219.202 L750.137,287.045 C750.137,293.532 746.869,296.8 740.382,296.8 L711.119,296.8 C704.632,296.8 701.364,293.532 701.364,287.045 L701.364,219.202 C701.364,212.715 704.632,209.447 711.119,209.447 L740.382,209.447z M740.382,336.452 C746.869,336.452 750.137,339.72 750.137,346.207 L750.137,414.051 C750.137,420.537 746.869,423.805 740.382,423.805 L711.119,423.805 C704.632,423.805 701.364,420.537 701.364,414.051 L701.364,346.207 C701.364,339.72 704.632,336.452 711.119,336.452 L740.382,336.452z M740.382,463.458 C746.869,463.458 750.137,466.726 750.137,473.212 L750.137,541.056 C750.137,547.543 746.869,550.811 740.382,550.811 L711.119,550.811 C704.632,550.811 701.364,547.543 701.364,541.056 L701.364,473.212 C701.364,466.726 704.632,463.458 711.119,463.458 L740.382,463.458z M740.382,590.463 C746.869,590.463 750.137,593.731 750.137,600.218 L750.137,668.061 C750.137,674.548 746.869,677.816 740.382,677.816 L711.119,677.816 C704.632,677.816 701.364,674.548 701.364,668.061 L701.364,600.218 C701.364,593.731 704.632,590.463 711.119,590.463 L740.382,590.463z M750.137,795.067 C750.137,801.554 746.869,804.821 740.382,804.821 L711.119,804.821 C704.632,804.821 701.364,801.554 701.364,795.067 L701.364,727.223 C701.364,720.736 704.632,717.469 711.119,717.469 L740.382,717.469 C746.869,717.469 750.137,720.736 750.137,727.223 L750.137,795.067z M243.579,178.281 C237.872,183.987 234.995,190.913 234.995,198.961 L234.995,816.039 C234.995,824.087 237.872,831.013 243.579,836.719 249.285,842.426 256.211,845.303 264.259,845.303 L339.321,845.303 339.321,169.697 264.259,169.697 C256.211,169.697 249.285,172.574 243.579,178.281z M305.521,204.277 C312.008,204.277 315.275,207.545 315.275,214.032 L315.275,281.875 C315.275,288.362 312.008,291.63 305.521,291.63 L276.257,291.63 C269.77,291.63 266.502,288.362 266.502,281.875 L266.502,214.032 C266.502,207.545 269.77,204.277 276.257,204.277 L305.521,204.277z M305.521,331.282 C312.008,331.282 315.275,334.55 315.275,341.037 L315.275,408.881 C315.275,415.367 312.008,418.635 305.521,418.635 L276.257,418.635 C269.77,418.635 266.502,415.367 266.502,408.881 L266.502,341.037 C266.502,334.55 269.77,331.282 276.257,331.282 L305.521,331.282z M305.521,458.288 C312.008,458.288 315.275,461.556 315.275,468.042 L315.275,535.886 C315.275,542.373 312.008,545.641 305.521,545.641 L276.257,545.641 C269.77,545.641 266.502,542.373 266.502,535.886 L266.502,468.042 C266.502,461.556 269.77,458.288 276.257,458.288 L305.521,458.288z M305.521,585.293 C312.008,585.293 315.275,588.561 315.275,595.048 L315.275,662.891 C315.275,669.378 312.008,672.646 305.521,672.646 L276.257,672.646 C269.77,672.646 266.502,669.378 266.502,662.891 L266.502,595.048 C266.502,588.561 269.77,585.293 276.257,585.293 L305.521,585.293z M305.521,712.299 C312.008,712.299 315.275,715.566 315.275,722.053 L315.275,789.897 C315.275,796.384 312.008,799.651 305.521,799.651 L276.257,799.651 C269.77,799.651 266.502,796.384 266.502,789.897 L266.502,722.053 C266.502,715.566 269.77,712.299 276.257,712.299 L305.521,712.299z"/>
              <path id="path81" fill="#101119" fill-opacity="1" d="M678.879,845.303 L678.879,169.697 339.321,169.697 339.321,845.303 678.879,845.303z"/>
            </g>
          </g>
        </g>
        <g id="Symbole.__2026_2" overflow="visible">
          <g id="Calque.__222">
            <g id="shape87">
              <path id="path82" fill="#CC6699" fill-opacity="1" d="M624.4,237.54 C618.693,231.834 611.768,228.956 603.72,228.956 L414.48,228.956 C406.432,228.956 399.507,231.834 393.8,237.54 Q385.216,246.124 385.216,258.22 L385.216,447.46 C385.216,449.216 385.362,450.923 385.606,452.338 L472.813,365.082 C476.471,361.424 480.129,360.254 483.445,361.424 485.494,362.156 487.25,363.326 489.005,365.082 L600.647,476.724 603.72,476.724 C611.768,476.724 618.693,473.846 624.4,468.14 630.106,462.434 632.984,455.508 632.984,447.46 L632.984,258.22 C632.984,250.173 630.106,243.247 624.4,237.54z M584.65,311.481 C591.819,318.65 595.429,327.332 595.429,337.525 595.429,347.719 591.819,356.401 584.65,363.57 577.48,370.74 568.798,374.349 558.605,374.349 548.411,374.349 539.73,370.74 532.56,363.57 525.39,356.401 521.781,347.719 521.781,337.525 521.781,327.332 525.39,318.65 532.56,311.481 539.73,304.311 548.411,300.702 558.605,300.702 568.798,300.702 577.48,304.311 584.65,311.481z M624.4,546.909 C618.693,541.202 611.768,538.325 603.72,538.325 L414.48,538.325 C406.432,538.325 399.507,541.202 393.8,546.909 393.215,547.494 392.678,548.128 392.142,548.762 387.508,554.078 385.216,560.37 385.216,567.589 L385.216,756.829 C385.216,764.876 388.094,771.802 393.8,777.508 399.507,783.215 406.432,786.092 414.48,786.092 L603.72,786.092 C611.768,786.092 618.693,783.215 624.4,777.508 630.106,771.802 632.984,764.876 632.984,756.829 L632.984,567.589 C632.984,559.541 630.106,552.615 624.4,546.909z"/>
              <path id="path83" fill="#DB80B0" fill-opacity="1" d="M584.65,311.481 C577.48,304.311 568.798,300.702 558.605,300.702 548.411,300.702 539.73,304.311 532.56,311.481 525.39,318.65 521.781,327.332 521.781,337.525 521.781,347.719 525.39,356.401 532.56,363.57 539.73,370.74 548.411,374.349 558.605,374.349 568.798,374.349 577.48,370.74 584.65,363.57 591.819,356.401 595.429,347.719 595.429,337.525 595.429,327.332 591.819,318.65 584.65,311.481z"/>
              <path id="path84" fill="#693D54" fill-opacity="1" d="M489.005,365.082 C487.25,363.326 485.494,362.156 483.445,361.424 L483.445,476.724 600.647,476.724 489.005,365.082z"/>
              <path id="path85" fill="#573246" fill-opacity="1" d="M483.445,361.424 C480.129,360.254 476.471,361.424 472.813,365.082 L385.606,452.338 C386.631,458.483 389.362,463.702 393.8,468.14 399.507,473.846 406.432,476.724 414.48,476.724 L483.445,476.724 483.445,361.424z"/>
            </g>
          </g>
        </g>
      </g>
    </g>
  </g>
  <g id="Calque.__204">
    <g id="shape6">
      <path id="path3" fill="#000000" fill-opacity="0.2" d="M810.3,498.6 C810.25,498.55 810.25,498.55 810.25,498.5 809.5,497.8 808.7,497.05 807.95,496.3 804.55,493.05 800.5,491.45 795.8,491.5 791.1,491.55 787.1,493.3 783.8,496.7 780.45,500.1 778.85,504.1 778.9,508.85 778.95,513.55 780.7,517.55 784.1,520.9 784.75,521.55 785.45,522.15 786.05,522.8 L786.1,522.9 C829,565.35 850.55,616.55 850.75,676.5 850.75,681.15 852.45,685.15 855.8,688.55 859.2,691.9 863.2,693.55 867.9,693.5 872.65,693.5 876.65,691.85 879.95,688.5 883.35,685.1 885.05,681.05 885.05,676.4 884.8,607 859.9,547.75 810.3,498.6z M757.3,549.8 C756.75,549.3 756.25,548.8 755.75,548.3 752.25,545.05 748.2,543.5 743.5,543.6 738.8,543.7 734.8,545.45 731.55,548.9 728.3,552.35 726.7,556.4 726.8,561.1 726.9,565.8 728.65,569.8 732.15,573.15 732.45,573.45 732.75,573.7 733.05,574.05 768.35,609.35 786.1,651.9 786.3,701.8 786.3,706.5 787.95,710.5 791.35,713.85 794.7,717.2 798.75,718.85 803.5,718.8 808.15,718.8 812.15,717.15 815.55,713.8 818.9,710.45 820.55,706.4 820.55,701.65 820.35,642.4 799.3,591.75 757.3,549.8z M708.3,598.85 C707.85,598.4 707.45,598 707,597.55 703.65,594.2 699.65,592.55 694.9,592.6 690.2,592.55 686.2,594.2 682.8,597.55 679.45,600.95 677.75,605 677.8,609.7 677.75,614.45 679.45,618.45 682.8,621.8 683.2,622.25 683.6,622.65 684.05,623.1 712.75,651.8 727.25,686.5 727.45,727.1 727.5,731.8 729.15,735.85 732.5,739.2 735.9,742.55 739.9,744.2 744.6,744.15 749.35,744.15 753.35,742.5 756.7,739.1 760.05,735.75 761.7,731.7 761.7,726.95 761.5,677 743.7,634.25 708.3,598.85z M699.9,746.05 C699.9,698.8 683.15,658.4 649.7,624.95 616.3,591.5 575.9,574.8 528.65,574.8 481.4,574.8 441,591.5 407.55,624.95 Q357.4,675.1 357.4,746.05 C357.4,793.3 374.15,833.7 407.55,867.1 441,900.55 481.4,917.3 528.65,917.3 575.9,917.3 616.3,900.55 649.7,867.1 683.15,833.7 699.9,793.3 699.9,746.05z"/>
    </g>
  </g>
  <g id="Calque.__205">
    <g id="Symbole.__2022_1" overflow="visible">
      <g id="Calque.__223">
        <g id="Symbole.__2028_2" overflow="visible">
          <g id="Calque.__224">
            <g id="shape88">
              <path id="path86" fill="#E4E4E4" fill-opacity="1" d="M630.255,603.446 C596.845,570.037 556.461,553.307 509.2,553.307 461.939,553.307 421.555,570.037 388.096,603.446 Q337.957,653.634 337.957,724.55 C337.957,771.811 354.687,812.195 388.096,845.605 421.555,879.063 461.939,895.793 509.2,895.793 556.461,895.793 596.845,879.063 630.255,845.605 663.713,812.195 680.443,771.811 680.443,724.55 680.443,677.289 663.713,636.905 630.255,603.446z M610.551,623.151 C638.595,651.146 652.593,684.946 652.593,724.55 652.593,764.154 638.595,797.954 610.551,825.901 582.604,853.945 548.804,867.943 509.2,867.943 469.596,867.943 435.796,853.945 407.752,825.901 379.805,797.954 365.807,764.154 365.807,724.55 365.807,684.946 379.805,651.146 407.752,623.151 435.796,595.155 469.596,581.157 509.2,581.157 548.804,581.157 582.604,595.155 610.551,623.151z"/>
              <path id="path87" fill="#282A3B" fill-opacity="1" d="M610.551,623.151 C582.604,595.155 548.804,581.157 509.2,581.157 469.596,581.157 435.796,595.155 407.752,623.151 379.805,651.146 365.807,684.946 365.807,724.55 365.807,764.154 379.805,797.954 407.752,825.901 435.796,853.945 469.596,867.943 509.2,867.943 548.804,867.943 582.604,853.945 610.551,825.901 638.595,797.954 652.593,764.154 652.593,724.55 652.593,684.946 638.595,651.146 610.551,623.151z"/>
            </g>
          </g>
        </g>
        <g id="Symbole.__2030_2" overflow="visible">
          <g id="Calque.__225">
            <g id="shape89">
              <path id="path88" fill="#7BC9CA" fill-opacity="1" d="M535.391,698.31 Q524.564,687.482 509.2,687.482 C498.958,687.482 490.227,691.092 482.96,698.31 475.742,705.577 472.132,714.308 472.132,724.55 472.132,734.792 475.742,743.523 482.96,750.741 490.227,758.008 498.958,761.618 509.2,761.618 519.442,761.618 528.173,758.008 535.391,750.741 542.658,743.523 546.268,734.792 546.268,724.55 546.268,714.308 542.658,705.577 535.391,698.31z M517.491,716.21 C519.784,718.502 520.954,721.282 520.954,724.55 520.954,727.671 519.881,730.354 517.735,732.598 517.687,732.695 517.589,732.793 517.491,732.841 515.199,735.134 512.468,736.304 509.2,736.304 505.932,736.304 503.152,735.134 500.86,732.841 498.567,730.549 497.446,727.818 497.446,724.55 497.446,721.282 498.567,718.502 500.86,716.21 500.957,716.161 501.055,716.063 501.104,715.966 503.396,713.869 506.079,712.796 509.2,712.796 512.468,712.796 515.199,713.917 517.491,716.21z"/>
              <path id="path89" fill="#FFFFFF" fill-opacity="1" d="M517.491,716.21 C515.199,713.917 512.468,712.796 509.2,712.796 506.079,712.796 503.396,713.869 501.104,715.966 501.055,716.063 500.957,716.161 500.86,716.21 498.567,718.502 497.446,721.282 497.446,724.55 497.446,727.818 498.567,730.549 500.86,732.841 503.152,735.134 505.932,736.304 509.2,736.304 512.468,736.304 515.199,735.134 517.491,732.841 517.589,732.793 517.687,732.695 517.735,732.598 519.881,730.354 520.954,727.671 520.954,724.55 520.954,721.282 519.784,718.502 517.491,716.21z"/>
            </g>
          </g>
        </g>
        <g id="Symbole.__2032_2" overflow="visible">
          <g id="Calque.__226">
            <g id="shape90">
              <path id="path90" fill="#434962" fill-opacity="1" d="M420.205,635.083 L437.422,652.299 C457.273,632.644 481.172,622.792 509.167,622.792 537.31,622.792 561.257,632.693 581.108,652.543 601.007,672.443 610.957,696.439 610.957,724.533 610.957,752.577 601.105,776.476 581.401,796.229 L598.617,813.495 C623.102,788.962 635.344,759.308 635.344,724.533 635.344,689.66 623.004,659.908 598.374,635.278 573.792,610.696 544.04,598.405 509.167,598.405 474.441,598.405 444.787,610.647 420.205,635.083z M449.128,664.005 L466.393,681.271 C478.538,669.126 493.267,663.03 510.484,663.03 527.701,663.03 542.431,669.126 554.575,681.271 566.817,693.513 572.914,708.242 572.914,725.459 572.914,742.676 566.817,757.357 554.673,769.501 L571.89,786.767 C588.814,769.843 597.301,749.407 597.301,725.459 597.301,701.463 588.814,680.978 571.841,664.005 554.917,647.081 534.481,638.643 510.484,638.643 486.488,638.643 466.052,647.081 449.128,664.005z"/>
            </g>
          </g>
        </g>
        <g id="Symbole.__2034_2" overflow="visible">
          <g id="Calque.__227">
            <g id="shape91">
              <path id="path91" fill="#E4E4E4" fill-opacity="1" d="M788.381,474.956 Q783.26,470.03 776.188,470.127 C771.506,470.176 767.506,471.932 764.19,475.346 760.873,478.712 759.264,482.76 759.313,487.491 759.361,492.173 761.117,496.172 764.531,499.538 765.165,500.172 765.848,500.806 766.482,501.44 L766.531,501.537 C809.403,543.97 830.96,595.182 831.155,655.124 831.155,659.806 832.863,663.806 836.228,667.171 839.593,670.536 843.593,672.195 848.324,672.146 853.055,672.146 857.054,670.488 860.371,667.122 863.736,663.757 865.443,659.709 865.443,655.027 865.199,585.622 840.325,526.363 790.723,477.248 790.674,477.2 790.674,477.2 790.674,477.151 789.893,476.419 789.113,475.688 788.381,474.956z M795.941,692.436 C799.307,689.07 800.965,685.022 800.965,680.291 800.77,621.032 779.7,570.405 737.706,528.46 737.17,527.924 736.682,527.436 736.145,526.948 732.682,523.68 728.634,522.12 723.903,522.217 719.221,522.315 715.222,524.071 711.954,527.533 708.686,530.996 707.125,535.045 707.223,539.727 707.32,544.458 709.076,548.457 712.539,551.774 712.88,552.066 713.173,552.359 713.466,552.7 748.778,587.963 766.531,630.542 766.726,680.437 766.726,685.12 768.384,689.119 771.75,692.484 775.115,695.85 779.163,697.508 783.894,697.459 788.576,697.459 792.576,695.801 795.941,692.436z M663.229,576.209 C659.864,579.574 658.157,583.623 658.206,588.354 658.157,593.085 659.864,597.084 663.229,600.449 663.62,600.888 664.01,601.279 664.449,601.718 693.176,630.445 707.662,665.123 707.857,705.751 707.906,710.433 709.564,714.481 712.929,717.846 716.295,721.163 720.294,722.821 725.025,722.773 729.756,722.773 733.755,721.114 737.121,717.749 740.437,714.384 742.096,710.335 742.096,705.604 741.901,655.612 724.098,612.887 688.689,577.477 688.25,577.038 687.86,576.648 687.421,576.209 684.056,572.844 680.056,571.185 675.325,571.234 670.594,571.185 666.595,572.844 663.229,576.209z"/>
            </g>
          </g>
        </g>
      </g>
    </g>
  </g>
</svg>