<?xml version="1.0" encoding="utf-8"?>
<!-- Generator: flash2svg, http://dissentgraphics.com/tools/flash2svg -->
<svg xmlns:xlink="http://www.w3.org/1999/xlink" id="APP" image-rendering="optimizeSpeed" baseProfile="basic" version="1.1" style="background-color:#ffffff" x="0px" y="0px" width="1024px" height="1024px" viewBox="0 0 1024 1024" enable-background="new 0 0 1024 1024" xmlns="http://www.w3.org/2000/svg">
  <defs transform="matrix(1 0 0 1 0 0) "/>
  <g id="shadow">
    <g id="shape">
      <path id="path" fill="#000000" fill-opacity="0.09803921568627451" d="M969.65,351.3 Q961.05,330.45 950.25,310.45 C946.2,302.9 941.9,295.4 937.35,288.05 917.8,256.35 893.95,226.4 865.8,198.25 773.65,106.1 662.35,60 532,60 401.65,60 290.4,106.1 198.25,198.25 106.1,290.4 60,401.65 60,532 60,662.35 106.1,773.65 198.25,865.8 290.4,957.95 401.65,1004 532,1004 662.35,1004 773.65,957.95 865.8,865.8 916.55,815 953.35,758.4 976.15,696.05 994.7,645.2 1004,590.55 1004,532 1004,487.1 998.55,444.45 987.6,404.05 986.35,399.5 985.05,394.95 983.7,390.45 979.6,377.15 974.9,364.1 969.65,351.3z"/>
    </g>
  </g>
  <g id="bg">
    <g id="shape2">
      <path id="path1" fill="#7387B4" fill-opacity="1" d="M969.75,392.05 C968.65,387.7 967.4,383.05 966.1,378.45 963.6,369.7 960.75,360.85 957.65,352.1 951.2,333.85 943.5,316.05 934.5,298.45 930.7,291.05 926.55,283.5 922.2,276.05 901.9,241.55 876.4,208.85 845.85,178.3 773.25,105.7 688.7,61.65 592.2,46.25 575.95,43.65 559.4,41.85 542.15,40.9 532.45,40.35 522.3,40.05 512.05,40.05 502.7,40.05 493.45,40.3 484.15,40.8 365.8,46.9 263.85,92.75 178.3,178.3 Q40.05,316.55 40.05,512.05 C40.05,642.4 86.15,753.7 178.3,845.85 263.85,931.35 365.8,977.2 484.15,983.35 484.3,983.35 484.4,983.35 484.55,983.35 493.05,983.8 501.15,984.05 509.05,984.05 510.25,984.05 511.15,984.05 512.05,984.05 522.35,984.05 532.55,983.75 542.15,983.25 544.65,983.1 546.9,982.95 549.1,982.8 569.3,981.35 589,978.75 607.8,975.1 615.75,973.55 623.6,971.8 631.2,969.95 712,949.65 783.35,908.35 845.85,845.85 894.45,797.25 930.25,743.35 953.2,684.05 971.65,636.4 981.85,585.25 983.75,530.55 983.95,524.5 984.05,518.3 984.05,512.05 984.05,511.4 984.05,510.7 984.05,510.05 984.05,509.7 984.05,509.4 984.05,509.05 983.85,468.4 979.1,429.55 969.75,392.05z"/>
    </g>
  </g>
  <g id="inner">
    <g id="shape4">
      <path id="path2" fill="#000000" fill-opacity="0.2" d="M760.1,760.1 Q862.8,657.35 862.8,512.05 C862.8,415.2 828.55,332.5 760.1,264.05 691.6,195.6 608.9,161.35 512.05,161.35 415.2,161.35 332.5,195.6 264.05,264.05 195.6,332.5 161.35,415.2 161.35,512.05 161.35,608.9 195.6,691.6 264.05,760.1 332.5,828.55 415.2,862.8 512.05,862.8 608.9,862.8 691.6,828.55 760.1,760.1z"/>
    </g>
  </g>
  <g id="Calque.__201">
    <g id="shape6">
      <path id="path3" fill="#000000" fill-opacity="0.2" d="M619.65,792 C663.9,792 699.85,756.05 699.85,711.8 699.85,667.45 663.9,631.6 619.65,631.6 575.3,631.6 539.4,667.45 539.4,711.8 539.4,756.05 575.3,792 619.65,792z M660.95,329.5 L699.85,650.7 742.55,198 372.7,330.85 449.1,697.55 426.55,389.2 660.95,329.5z M465.45,769.1 C465.45,724.75 429.55,688.9 385.2,688.9 340.95,688.9 305,724.75 305,769.1 305,813.4 340.95,849.3 385.2,849.3 Q418.45,849.3 441.95,825.8 465.45,802.3 465.45,769.1z"/>
    </g>
  </g>
  <g id="Calque.__202">
    <g id="shape12">
      <path id="path8" fill="#FFFFFF" fill-opacity="1" d="M607.65,781.05 C651.9,781.05 687.85,745.1 687.85,700.8 687.85,656.45 651.9,620.6 607.65,620.6 563.3,620.6 527.4,656.45 527.4,700.8 527.4,745.1 563.3,781.05 607.65,781.05z M648.95,318.5 L687.85,639.7 730.6,187 360.7,319.85 437.1,686.55 414.55,378.2 648.95,318.5z M373.2,677.9 C328.95,677.9 293,713.75 293,758.1 293,802.4 328.95,838.35 373.2,838.35 Q406.45,838.35 429.95,814.85 453.45,791.35 453.45,758.1 C453.45,713.75 417.55,677.9 373.2,677.9z"/>
    </g>
  </g>
</svg>