<?xml version="1.0" encoding="utf-8"?>
<!-- Generator: flash2svg, http://dissentgraphics.com/tools/flash2svg -->
<svg xmlns:xlink="http://www.w3.org/1999/xlink" id="APP-alt" image-rendering="optimizeSpeed" baseProfile="basic" version="1.1" style="background-color:#ffffff" x="0px" y="0px" width="1024px" height="1024px" viewBox="0 0 1024 1024" enable-background="new 0 0 1024 1024" xmlns="http://www.w3.org/2000/svg">
  <defs transform="matrix(1 0 0 1 0 0) "/>
  <g id="shadow">
    <g id="shape">
      <path id="path" fill="#000000" fill-opacity="0.09803921568627451" d="M965.65,347.3 Q957.05,326.45 946.25,306.45 C942.2,298.9 937.9,291.4 933.35,284.05 913.8,252.35 889.95,222.4 861.8,194.25 769.65,102.1 658.35,56 528,56 397.65,56 286.4,102.1 194.25,194.25 102.1,286.4 56,397.65 56,528 56,658.35 102.1,769.65 194.25,861.8 286.4,953.95 397.65,1000 528,1000 658.35,1000 769.65,953.95 861.8,861.8 912.55,811 949.35,754.4 972.15,692.05 990.7,641.2 1000,586.55 1000,528 1000,483.1 994.55,440.45 983.6,400.05 982.35,395.5 981.05,390.95 979.7,386.45 975.6,373.15 970.9,360.1 965.65,347.3z"/>
    </g>
  </g>
  <g id="Logo">
    <g id="shape2">
      <path id="path1" fill="#B43A29" fill-opacity="1" d="M966.05,643.05 Q966.25,642.2 966.45,641.4 C977.5,600.8 983.05,557.9 983.05,512.75 983.05,382.5 937,271.3 844.9,179.25 752.85,87.15 641.65,41.1 511.4,41.1 381.15,41.1 269.95,87.15 177.9,179.25 85.8,271.3 39.75,382.5 39.75,512.75 39.75,643 85.8,754.2 177.9,846.25 269.95,938.35 381.15,984.4 511.4,984.4 511.65,984.4 511.95,984.4 512.3,984.4 520.15,984.4 527.95,984.25 535.75,983.9 655.6,978.45 758.65,932.55 844.9,846.25 904.65,786.55 945,718.8 966.05,643.05z M700.85,675.75 C703.8,681.2 708.35,685.1 714.55,687.55 L740.6,695.7 740.6,729.2 695.55,729.2 C686.65,729.2 678.9,727.8 672.35,725 665.6,722.1 660.05,717.85 655.6,712.25 646.6,701 642.1,682.1 642.1,655.6 L642.1,424.05 696.7,424.05 696.7,647 C696.7,660.7 698.1,670.3 700.85,675.75z M370.35,253.15 L464.85,255.35 C521.3,256.8 563.35,259.55 591.05,263.6 L591.05,338.75 403.35,338.75 C387.3,338.75 377.35,342.65 373.55,350.45 371,356.6 369.75,364.85 369.75,375.2 L369.75,449.05 561.85,455.75 561.85,530.85 369.75,536.9 369.75,728.4 278.75,728.4 278.75,353 C278.75,327.2 284.15,306.4 294.9,290.55 305.9,274.7 322.4,263.7 344.35,257.55 L370.35,253.15z"/>
    </g>
  </g>
  <g id="Logo1">
    <g id="shape10">
      <path id="path8" fill="#7E2210" fill-opacity="1" d="M373.55,350.45 C371,356.6 369.75,364.85 369.75,375.2 L369.75,449.05 561.85,455.75 561.85,530.85 369.75,536.9 369.75,728.4 280.25,728.4 535.75,983.9 C655.6,978.45 758.65,932.55 844.9,846.25 904.65,786.55 945,718.8 966.05,643.05 L591.05,268.05 591.05,338.75 403.35,338.75 C387.3,338.75 377.35,342.65 373.55,350.45z M700.85,675.75 C703.8,681.2 708.35,685.1 714.55,687.55 L740.6,695.7 740.6,729.2 695.55,729.2 C686.65,729.2 678.9,727.8 672.35,725 665.6,722.1 660.05,717.85 655.6,712.25 646.6,701 642.1,682.1 642.1,655.6 L642.1,424.05 696.7,424.05 696.7,647 C696.7,660.7 698.1,670.3 700.85,675.75z"/>
    </g>
  </g>
  <g id="Calque.__201">
    <g id="shape15">
      <path id="path12" fill="#FFFFFF" fill-opacity="1" d="M714.55,687.55 C708.35,685.1 703.8,681.2 700.85,675.75 698.1,670.3 696.7,660.7 696.7,647 L696.7,424.05 642.1,424.05 642.1,655.6 C642.1,682.1 646.6,701 655.6,712.25 660.05,717.85 665.6,722.1 672.35,725 678.9,727.8 686.65,729.2 695.55,729.2 L740.6,729.2 740.6,695.7 714.55,687.55z M370.35,253.15 L344.35,257.55 C322.4,263.7 305.9,274.7 294.9,290.55 284.15,306.4 278.75,327.2 278.75,353 L278.75,728.4 369.75,728.4 369.75,536.9 561.85,530.85 561.85,455.75 369.75,449.05 369.75,375.2 C369.75,364.85 371,356.6 373.55,350.45 377.35,342.65 387.3,338.75 403.35,338.75 L591.05,338.75 591.05,263.6 C563.35,259.55 521.3,256.8 464.85,255.35 L370.35,253.15z"/>
    </g>
  </g>
</svg>