<?xml version="1.0" encoding="utf-8"?>
<!-- Generator: flash2svg, http://dissentgraphics.com/tools/flash2svg -->
<svg xmlns:xlink="http://www.w3.org/1999/xlink" id="TRASH-3-alt" image-rendering="optimizeSpeed" baseProfile="basic" version="1.1" style="background-color:#ffffff" x="0px" y="0px" width="1024px" height="1024px" viewBox="0 0 1024 1024" enable-background="new 0 0 1024 1024" xmlns="http://www.w3.org/2000/svg">
  <defs transform="matrix(1 0 0 1 0 0) "/>
  <g id="Shadow">
    <g id="shape">
      <path id="path" fill="#000000" fill-opacity="0.09803921568627451" d="M990.25,285.9 C990.25,277.65 987.3,270.55 981.45,264.7 975.6,258.85 968.5,255.9 960.25,255.9 L808.4,255.9 808.4,191.9 709.1,98.5 377.25,98.55 377.25,98.5 278.1,191.9 278.1,255.9 126.25,255.9 C118,255.9 110.9,258.85 105.05,264.7 99.2,270.55 96.25,277.65 96.25,285.9 L96.25,407.95 141.25,407.95 141.25,473.9 143.25,473.9 143.25,955.9 C143.25,964.15 146.2,971.25 152.05,977.1 157.9,982.95 165,985.9 173.25,985.9 L897.45,985.9 C905.7,985.9 912.8,982.95 918.65,977.1 924.5,971.25 927.45,964.15 927.45,955.9 L927.45,407.95 990.25,407.95 990.25,285.9z M709.1,255.9 L377.25,255.9 377.25,191.9 709.1,191.9 709.1,255.9z"/>
    </g>
  </g>
  <g id="Dark">
    <g id="shape5">
      <path id="path4" fill="#FFFFFF" fill-opacity="1" d="M680.3,520.4 C675.65,515.8 668.95,512.4 660.05,510.2 L653.55,508.65 C656.15,494.1 656.25,477.3 654,458.3 Q652.25,443.75 645.3,436.8 C640.65,432.2 635.05,429.85 628.55,429.85 614.8,431.9 591.1,453.2 557.3,493.65 542.35,492.5 527.4,492 512.45,491.95 497.55,492 482.65,492.5 467.7,493.65 433.95,453.2 410.15,431.9 396.45,429.85 389.9,429.85 384.3,432.2 379.7,436.8 375.1,441.45 372.2,448.65 371.05,458.3 368.7,477.3 368.85,494.1 371.4,508.65 L364.95,510.2 C356.05,512.4 349.3,515.8 344.65,520.4 344.35,520.8 343.95,521.15 343.65,521.55 339.6,525.6 336.1,534.1 333.05,547.1 328.6,565.9 326.35,588.7 326.35,615.3 326.35,641.95 328.6,664.65 333.05,683.5 334.9,691.35 336.95,697.55 339.15,702.15 340.3,705.3 342.1,708.15 344.65,710.75 349.3,715.35 357.3,719.25 368.55,722.3 416,735.1 464,741.4 512.45,741.35 561,741.4 609,735.1 656.5,722.3 667.75,719.25 675.65,715.35 680.3,710.75 682.85,708.15 684.75,705.3 685.9,702.15 688.05,697.55 690.1,691.35 691.95,683.5 696.45,664.65 698.65,641.95 698.65,615.3 698.65,588.7 696.45,565.9 691.95,547.1 688.85,534.1 685.35,525.6 681.4,521.55 681.05,521.15 680.75,520.8 680.3,520.4z M651.3,636.25 C651.3,644.3 650.5,652.05 648.9,659.7 647.85,664.6 645,669.4 640.4,674 635.75,678.7 629.6,681.45 621.85,682.35 585.15,686.7 548.65,688.9 512.45,688.9 L512.35,688.9 C476.15,688.9 439.7,686.7 403,682.35 395.25,681.45 389.1,678.7 384.45,674 379.8,669.4 377,664.65 375.9,659.7 374.3,652.05 373.5,644.3 373.5,636.25 L373.5,610.9 C373.65,603.4 374.45,595.85 376,588.05 377,583.1 379.8,578.3 384.45,573.7 389.1,569.05 395.25,566.3 403,565.35 439.8,560.95 476.25,558.7 512.35,558.65 L512.45,558.65 C548.6,558.7 585.05,560.95 621.85,565.35 629.6,566.3 635.75,569.05 640.4,573.7 645,578.3 647.8,583.1 648.85,588.05 650.4,595.85 651.2,603.4 651.3,610.9 L651.3,636.25z"/>
    </g>
  </g>
  <g id="Light">
    <g id="shape10">
      <path id="path8" fill="#333333" fill-opacity="1" d="M112.05,300.15 L112.05,379.85 684.25,952.05 866.25,952.05 C874.5,952.05 881.6,949.1 887.45,943.25 893.3,937.4 896.25,930.3 896.25,922.05 L896.25,300.15 112.05,300.15z"/>
      <path id="path9" fill="#666666" fill-opacity="1" d="M120.85,943.25 C126.7,949.1 133.8,952.05 142.05,952.05 L684.25,952.05 112.05,379.85 112.05,922.05 Q112.05,934.45 120.85,943.25z"/>
    </g>
  </g>
  <g id="Calque.__201">
    <g id="shape14">
      <path id="path10" fill="#000000" fill-opacity="0.2" d="M720.6,374.1 Q719,378.75 719,384.05 L719,864.05 C719,872.3 721.95,879.4 727.8,885.25 733.65,891.1 740.75,894.05 749,894.05 L763.05,894.05 C771.3,894.05 778.4,891.1 784.25,885.25 790.1,879.4 793.05,872.3 793.05,864.05 L793.05,384.05 C793.05,380.5 792.5,377.2 791.45,374.1 L720.6,374.1z M377.3,374.1 C376.25,377.2 375.7,380.5 375.7,384.05 L375.7,864.05 C375.7,872.3 378.65,879.4 384.5,885.25 390.35,891.1 397.45,894.05 405.7,894.05 L419.75,894.05 C428,894.05 435.1,891.1 440.95,885.25 446.8,879.4 449.75,872.3 449.75,864.05 L449.75,384.05 C449.75,380.5 449.2,377.2 448.15,374.1 L377.3,374.1z M548.95,374.1 C547.9,377.2 547.35,380.5 547.35,384.05 L547.35,864.05 C547.35,872.3 550.3,879.4 556.15,885.25 562,891.1 569.1,894.05 577.35,894.05 L591.4,894.05 C599.65,894.05 606.75,891.1 612.6,885.25 618.45,879.4 621.4,872.3 621.4,864.05 L621.4,384.05 C621.4,380.5 620.85,377.2 619.8,374.1 L548.95,374.1z M205.65,374.1 C204.6,377.2 204.05,380.5 204.05,384.05 L204.05,864.05 C204.05,872.3 207,879.4 212.85,885.25 218.7,891.1 225.8,894.05 234.05,894.05 L248.1,894.05 C256.35,894.05 263.45,891.1 269.3,885.25 275.15,879.4 278.1,872.3 278.1,864.05 L278.1,384.05 C278.1,380.5 277.55,377.2 276.5,374.1 L205.65,374.1z"/>
    </g>
  </g>
  <g id="Ico">
    <g id="Symbole.__209_1" overflow="visible">
      <g id="Calque.__207">
        <g id="shape39">
          <path id="path27" fill="#000000" fill-opacity="0.2" d="M896.2,440 L896.2,374.05 111.95,374.05 111.95,440 896.2,440z"/>
        </g>
      </g>
    </g>
  </g>
  <g id="GITHUB-Alt">
    <g id="shape22">
      <path id="path17" fill="#000000" fill-opacity="0.2" d="M708,485.85 L660.9,310.1 387.15,310.1 452.55,554.3 708,485.85z"/>
    </g>
  </g>
  <g id="Calque.__202">
    <g id="shape24">
      <path id="path18" fill="#FFFFFF" fill-opacity="1" d="M641.4,292.05 L367.65,292.05 433.05,536.25 688.5,467.8 641.4,292.05z"/>
    </g>
  </g>
  <g id="Calque.__203">
    <g id="shape26">
      <path id="path19" fill="#000000" fill-opacity="0.2" d="M456.95,324.65 L242.6,267.2 185.15,481.6 399.5,539.05 456.95,324.65z"/>
    </g>
  </g>
  <g id="Calque.__204">
    <g id="shape28">
      <path id="path20" fill="#FFFFFF" fill-opacity="1" d="M436.95,304.65 L222.6,247.2 165.15,461.6 379.5,519.05 436.95,304.65z"/>
    </g>
  </g>
  <g id="Symbole.__208">
    <g id="Symbole.__211_1" overflow="visible">
      <g id="Calque.__208">
        <g id="shape40">
          <path id="path28" fill="#666666" fill-opacity="1" d="M777.15,158 L677.85,64.6 677.85,158 677.85,222 346,222 346,158 346,64.65 346,64.6 246.85,158 246.85,222 95,222 C86.75,222 79.65,224.95 73.8,230.8 67.95,236.65 65,243.75 65,252 L65,374.05 959,374.05 959,252 C959,243.75 956.05,236.65 950.2,230.8 944.35,224.95 937.25,222 929,222 L777.15,222 777.15,158z"/>
          <path id="path29" fill="#333333" fill-opacity="1" d="M677.85,158 L677.85,64.6 346,64.65 346,158 677.85,158z"/>
        </g>
      </g>
    </g>
  </g>
</svg>