<?xml version="1.0" encoding="utf-8"?>
<!-- Generator: flash2svg, http://dissentgraphics.com/tools/flash2svg -->
<svg xmlns:xlink="http://www.w3.org/1999/xlink" id="TRASH-2-alt" image-rendering="optimizeSpeed" baseProfile="basic" version="1.1" style="background-color:#ffffff" x="0px" y="0px" width="1024px" height="1024px" viewBox="0 0 1024 1024" enable-background="new 0 0 1024 1024" xmlns="http://www.w3.org/2000/svg">
  <defs transform="matrix(1 0 0 1 0 0) "/>
  <g id="Shadow">
    <g id="shape">
      <path id="path" fill="#000000" fill-opacity="0.09803921568627451" d="M990.25,285.9 C990.25,277.65 987.3,270.55 981.45,264.7 975.6,258.85 968.5,255.9 960.25,255.9 L808.4,255.9 808.4,191.9 709.1,98.5 377.25,98.55 377.25,98.5 278.1,191.9 278.1,255.9 126.25,255.9 C118,255.9 110.9,258.85 105.05,264.7 99.2,270.55 96.25,277.65 96.25,285.9 L96.25,407.95 141.25,407.95 141.25,473.9 143.25,473.9 143.25,955.9 C143.25,964.15 146.2,971.25 152.05,977.1 157.9,982.95 165,985.9 173.25,985.9 L897.45,985.9 C905.7,985.9 912.8,982.95 918.65,977.1 924.5,971.25 927.45,964.15 927.45,955.9 L927.45,407.95 990.25,407.95 990.25,285.9z M709.1,255.9 L377.25,255.9 377.25,191.9 709.1,191.9 709.1,255.9z"/>
    </g>
  </g>
  <g id="Dark">
    <g id="shape5">
      <path id="path4" fill="#FFFFFF" fill-opacity="1" d="M680.3,520.4 C675.65,515.8 668.95,512.4 660.05,510.2 L653.55,508.65 C656.15,494.1 656.25,477.3 654,458.3 Q652.25,443.75 645.3,436.8 C640.65,432.2 635.05,429.85 628.55,429.85 614.8,431.9 591.1,453.2 557.3,493.65 542.35,492.5 527.4,492 512.45,491.95 497.55,492 482.65,492.5 467.7,493.65 433.95,453.2 410.15,431.9 396.45,429.85 389.9,429.85 384.3,432.2 379.7,436.8 375.1,441.45 372.2,448.65 371.05,458.3 368.7,477.3 368.85,494.1 371.4,508.65 L364.95,510.2 C356.05,512.4 349.3,515.8 344.65,520.4 344.35,520.8 343.95,521.15 343.65,521.55 339.6,525.6 336.1,534.1 333.05,547.1 328.6,565.9 326.35,588.7 326.35,615.3 326.35,641.95 328.6,664.65 333.05,683.5 334.9,691.35 336.95,697.55 339.15,702.15 340.3,705.3 342.1,708.15 344.65,710.75 349.3,715.35 357.3,719.25 368.55,722.3 416,735.1 464,741.4 512.45,741.35 561,741.4 609,735.1 656.5,722.3 667.75,719.25 675.65,715.35 680.3,710.75 682.85,708.15 684.75,705.3 685.9,702.15 688.05,697.55 690.1,691.35 691.95,683.5 696.45,664.65 698.65,641.95 698.65,615.3 698.65,588.7 696.45,565.9 691.95,547.1 688.85,534.1 685.35,525.6 681.4,521.55 681.05,521.15 680.75,520.8 680.3,520.4z M651.3,636.25 C651.3,644.3 650.5,652.05 648.9,659.7 647.85,664.6 645,669.4 640.4,674 635.75,678.7 629.6,681.45 621.85,682.35 585.15,686.7 548.65,688.9 512.45,688.9 L512.35,688.9 C476.15,688.9 439.7,686.7 403,682.35 395.25,681.45 389.1,678.7 384.45,674 379.8,669.4 377,664.65 375.9,659.7 374.3,652.05 373.5,644.3 373.5,636.25 L373.5,610.9 C373.65,603.4 374.45,595.85 376,588.05 377,583.1 379.8,578.3 384.45,573.7 389.1,569.05 395.25,566.3 403,565.35 439.8,560.95 476.25,558.7 512.35,558.65 L512.45,558.65 C548.6,558.7 585.05,560.95 621.85,565.35 629.6,566.3 635.75,569.05 640.4,573.7 645,578.3 647.8,583.1 648.85,588.05 650.4,595.85 651.2,603.4 651.3,610.9 L651.3,636.25z"/>
    </g>
  </g>
  <g id="Light">
    <g id="shape10">
      <path id="path8" fill="#999999" fill-opacity="1" d="M119.95,300.15 L119.95,379.85 692.15,952.05 874.15,952.05 C882.4,952.05 889.5,949.1 895.35,943.25 901.2,937.4 904.15,930.3 904.15,922.05 L904.15,300.15 119.95,300.15z"/>
      <path id="path9" fill="#CCCCCC" fill-opacity="1" d="M128.75,943.25 C134.6,949.1 141.7,952.05 149.95,952.05 L692.15,952.05 119.95,379.85 119.95,922.05 C119.95,930.3 122.9,937.4 128.75,943.25z"/>
    </g>
  </g>
  <g id="Calque.__201">
    <g id="Symbole.__209_1" overflow="visible">
      <g id="Calque.__208">
        <g id="shape39">
          <path id="path27" fill="#000000" fill-opacity="0.2" d="M734.05,374.05 Q732.45,378.7 732.45,384 L732.45,864 C732.45,872.25 735.4,879.35 741.25,885.2 747.1,891.05 754.2,894 762.45,894 L776.5,894 C784.75,894 791.85,891.05 797.7,885.2 803.55,879.35 806.5,872.25 806.5,864 L806.5,384 C806.5,380.45 805.95,377.15 804.9,374.05 L734.05,374.05z M562.4,374.05 C561.35,377.15 560.8,380.45 560.8,384 L560.8,864 C560.8,872.25 563.75,879.35 569.6,885.2 575.45,891.05 582.55,894 590.8,894 L604.85,894 C613.1,894 620.2,891.05 626.05,885.2 631.9,879.35 634.85,872.25 634.85,864 L634.85,384 C634.85,380.45 634.3,377.15 633.25,374.05 L562.4,374.05z M390.75,374.05 C389.7,377.15 389.15,380.45 389.15,384 L389.15,864 C389.15,872.25 392.1,879.35 397.95,885.2 403.8,891.05 410.9,894 419.15,894 L433.2,894 C441.45,894 448.55,891.05 454.4,885.2 460.25,879.35 463.2,872.25 463.2,864 L463.2,384 C463.2,380.45 462.65,377.15 461.6,374.05 L390.75,374.05z M219.1,374.05 C218.05,377.15 217.5,380.45 217.5,384 L217.5,864 C217.5,872.25 220.45,879.35 226.3,885.2 232.15,891.05 239.25,894 247.5,894 L261.55,894 C269.8,894 276.9,891.05 282.75,885.2 288.6,879.35 291.55,872.25 291.55,864 L291.55,384 C291.55,380.45 291,377.15 289.95,374.05 L219.1,374.05z"/>
        </g>
      </g>
    </g>
  </g>
  <g id="Ico">
    <g id="Symbole.__211_1" overflow="visible">
      <g id="Calque.__209">
        <g id="shape40">
          <path id="path28" fill="#000000" fill-opacity="0.2" d="M904.15,440 L904.15,374.05 119.9,374.05 119.9,440 904.15,440z"/>
        </g>
      </g>
    </g>
  </g>
  <g id="GITHUB-Alt">
    <g id="shape14">
      <path id="path10" fill="#000000" fill-opacity="0.2" d="M708,485.85 L660.9,310.1 387.15,310.1 452.55,554.3 708,485.85z"/>
    </g>
  </g>
  <g id="Calque.__202">
    <g id="shape16">
      <path id="path11" fill="#FFFFFF" fill-opacity="1" d="M641.4,292.05 L367.65,292.05 433.05,536.25 688.5,467.8 641.4,292.05z"/>
    </g>
  </g>
  <g id="Calque.__203">
    <g id="shape18">
      <path id="path12" fill="#000000" fill-opacity="0.2" d="M456.95,324.65 L242.6,267.2 185.15,481.6 399.5,539.05 456.95,324.65z"/>
    </g>
  </g>
  <g id="Calque.__204">
    <g id="shape20">
      <path id="path13" fill="#FFFFFF" fill-opacity="1" d="M436.95,304.65 L222.6,247.2 165.15,461.6 379.5,519.05 436.95,304.65z"/>
    </g>
  </g>
  <g id="Symbole.__208">
    <g id="Symbole.__213_1" overflow="visible">
      <g id="Calque.__210">
        <g id="shape41">
          <path id="path29" fill="#CCCCCC" fill-opacity="1" d="M777.15,158 L677.85,64.6 677.85,158 677.85,222 346,222 346,158 346,64.65 346,64.6 246.85,158 246.85,222 95,222 C86.75,222 79.65,224.95 73.8,230.8 67.95,236.65 65,243.75 65,252 L65,374.05 959,374.05 959,252 C959,243.75 956.05,236.65 950.2,230.8 944.35,224.95 937.25,222 929,222 L777.15,222 777.15,158z"/>
          <path id="path30" fill="#999999" fill-opacity="1" d="M677.85,158 L677.85,64.6 346,64.65 346,158 677.85,158z"/>
        </g>
      </g>
    </g>
  </g>
</svg>