<?xml version="1.0" encoding="utf-8"?>
<!-- Generator: flash2svg, http://dissentgraphics.com/tools/flash2svg -->
<svg xmlns:xlink="http://www.w3.org/1999/xlink" id="APP-alt" image-rendering="optimizeSpeed" baseProfile="basic" version="1.1" style="background-color:#ffffff" x="0px" y="0px" width="1024px" height="1024px" viewBox="0 0 1024 1024" enable-background="new 0 0 1024 1024" xmlns="http://www.w3.org/2000/svg">
  <defs transform="matrix(1 0 0 1 0 0) "/>
  <g id="shadow">
    <g id="shape">
      <path id="path" fill="#000000" fill-opacity="0.09803921568627451" d="M965.65,347.3 Q957.05,326.45 946.25,306.45 C942.2,298.9 937.9,291.4 933.35,284.05 913.8,252.35 889.95,222.4 861.8,194.25 769.65,102.1 658.35,56 528,56 397.65,56 286.4,102.1 194.25,194.25 102.1,286.4 56,397.65 56,528 56,658.35 102.1,769.65 194.25,861.8 286.4,953.95 397.65,1000 528,1000 658.35,1000 769.65,953.95 861.8,861.8 912.55,811 949.35,754.4 972.15,692.05 990.7,641.2 1000,586.55 1000,528 1000,483.1 994.55,440.45 983.6,400.05 982.35,395.5 981.05,390.95 979.7,386.45 975.6,373.15 970.9,360.1 965.65,347.3z"/>
    </g>
  </g>
  <g id="BG">
    <g id="shape2">
      <path id="path1" fill="#343764" fill-opacity="1" d="M966.2,640.1 C977.25,599.55 982.8,556.65 982.8,511.5 Q982.8,316.2 844.7,178.1 C752.65,86.05 641.5,40 511.25,40 381.05,40 269.9,86.05 177.85,178.1 85.8,270.15 39.75,381.3 39.75,511.5 39.75,641.75 85.8,752.9 177.85,844.95 269.9,937 381.05,983.05 511.25,983.05 511.5,983.05 511.8,983.05 512.15,983.05 642,982.85 752.85,936.8 844.7,844.95 904.8,784.85 945.3,716.55 966.2,640.1z"/>
    </g>
  </g>
  <g id="P">
    <g id="shape4">
      <path id="path2" fill="#292A50" fill-opacity="1" d="M706.2,451.3 L777.4,451.3 721.05,447.35 549.9,276.25 299.9,285.25 299.9,562.25 256.35,727.2 512.15,983.05 C642,982.85 752.85,936.8 844.7,844.95 904.8,784.85 945.3,716.55 966.2,640.1 L777.4,451.3"/>
      <path id="path3" fill="none" stroke="#000000" stroke-opacity="1" stroke-width="1" stroke-linecap="round" stroke-linejoin="round" d="M706.2,451.3 L777.4,451.3"/>
    </g>
  </g>
  <g id="S">
    <g id="shape7">
      <path id="path4" fill="#FFFFFF" fill-opacity="1" d="M778.1,494.55 L778.1,451.75 C766.45,448.3 750.95,445.6 731.7,443.55 L687.55,440.55 667.95,440.55 C644.9,440.8 626.55,445.9 613,455.95 605.65,461.8 600.1,469.5 596.45,479.15 592.65,488.8 590.75,500.45 590.75,514.15 L590.75,538.65 C590.75,563.75 596.9,582.65 609.2,595.35 621.5,607.9 639.9,614.15 664.35,614.15 L708.1,614.15 C713.3,614.15 717.55,614.8 720.85,616.05 725.15,617.7 728.4,620.6 730.55,624.65 732.7,628.8 733.75,634.25 733.75,641 L733.75,656.2 C733.75,666.6 729.9,673.5 722.15,676.95 L711.35,679.95 674.25,680.75 C652.8,680.75 627.85,679.35 599.3,676.55 L599.3,719.35 C625.8,727.1 662.55,730.95 709.6,730.95 718.35,730.95 726.35,730.25 733.6,728.85 740.95,727.45 747.6,725.3 753.55,722.4 776.75,711.75 788.35,689.05 788.35,654.3 L788.35,635.3 C788.35,620.45 785.75,607.1 780.55,595.15 775.5,583.2 768,574.35 758.1,568.5 748.1,562.55 735.7,559.6 720.85,559.6 L675.75,559.6 C664.35,559.6 656.45,557.8 652,554.25 647.55,550.6 645.35,543.3 645.35,532.4 L645.35,518.3 C645.35,506.15 648.05,498.45 653.5,495.3 658.95,492.25 667.55,490.75 679.2,490.75 L707.5,490.75 C725,490.75 748.55,492 778.1,494.55z M563.9,291.55 C553.35,278.25 539.5,268.35 522.4,261.8 505.25,255.25 485,251.95 461.55,251.95 L256.75,251.95 256.75,727.1 347.75,727.1 347.75,538.8 401,546.1 474.55,551.8 C495.25,551.8 514.05,547.9 530.95,540.1 543.85,534.6 554.5,526.45 562.95,515.7 571.4,505.15 578.6,489.9 584.5,470.05 590.25,450.2 593.1,426.4 593.1,398.7 593.1,350.95 583.35,315.2 563.9,291.55z M454.25,332.45 C469.9,332.45 481.6,338.05 489.45,349.25 497.45,360.25 501.55,376.95 501.8,399.35 501.8,417.1 499.9,431.45 496.1,442.45 492.5,453.45 487,461.15 479.6,465.6 473.05,469.4 464.6,471.3 454.25,471.3 L347.75,471.3 347.75,332.45 454.25,332.45z"/>
    </g>
  </g>
</svg>