<?xml version="1.0" encoding="utf-8"?>
<!-- Generator: flash2svg, http://dissentgraphics.com/tools/flash2svg -->
<svg id="DRIVE-Removable" image-rendering="optimizeSpeed" baseProfile="basic" version="1.1" style="background-color:#FFFFFF" x="0px" y="0px" width="1024px" height="1024px" viewBox="0 0 1024 1024" enable-background="new 0 0 1024 1024" xmlns="http://www.w3.org/2000/svg" xmlns:xlink="http://www.w3.org/1999/xlink">
  <defs transform="matrix(1 0 0 1 0 0) "/>
  <g id="Calque.__203">
    <g id="shape">
      <path id="path" fill="#000000" fill-opacity="0.09803921568627451" d="M956.4,92.85 C956.4,85.2 953.7,78.6 948.3,73.15 Q940.15,65 928.55,65 L844.9,65 789.8,65 399.65,65 218.25,65 177.75,65 159.45,65 C151.75,65 145.15,67.7 139.7,73.15 134.3,78.6 131.6,85.2 131.6,92.85 L131.6,842.35 131.6,879.1 131.6,946.45 131.6,983.2 C131.65,983.95 131.7,984.65 131.75,985.4 132.4,991.8 135.05,997.35 139.7,1002.05 144.3,1006.65 149.7,1009.3 155.85,1010.05 157,1010.2 158.2,1010.25 159.45,1010.25 L928.6,1010.25 C930.1,1010.25 931.55,1010.15 933,1009.95 938.85,1009.1 943.9,1006.45 948.25,1002.05 950.3,1000 952,997.8 953.25,995.45 954.9,992.4 955.95,989.05 956.3,985.4 956.4,984.45 956.45,983.45 956.45,982.4 L956.4,107.3 956.4,101.55 956.4,92.85z"/>
    </g>
  </g>
  <g id="Calque.__204">
    <g id="shape2">
      <path id="path1" fill="#CCCCCC" fill-opacity="1" d="M916.75,42 C911.3,36.55 904.7,33.85 897,33.85 L813.35,33.85 758.25,33.85 368.1,33.85 186.7,33.85 146.2,33.85 127.9,33.85 C120.2,33.85 113.6,36.55 108.15,42 102.75,47.45 100.05,54.05 100.05,61.7 L100.05,932.8 924.9,932.8 924.9,928.8 924.85,76.15 924.85,70.4 924.85,61.7 C924.85,54.05 922.15,47.45 916.75,42z"/>
    </g>
  </g>
  <g id="Calque.__205">
    <g id="shape4">
      <path id="path2" fill="#000000" fill-opacity="0.2980392156862745" d="M916.75,715.4 C911.5,710.15 905.15,707.4 897.75,707.25 L127.2,707.25 C119.8,707.4 113.45,710.15 108.15,715.4 102.9,720.7 100.2,727.05 100.05,734.4 L100.05,883.3 C100.1,884.05 100.15,884.75 100.2,885.5 Q101.15,895.1 108.15,902.15 C112.75,906.75 118.15,909.4 124.3,910.15 125.5,910.3 126.7,910.35 127.9,910.35 L897.05,910.35 C898.6,910.35 900.1,910.25 901.45,910.05 907.4,909.15 912.4,906.5 916.7,902.15 918.8,900.1 920.45,897.85 921.7,895.55 923.4,892.4 924.4,889.1 924.75,885.5 924.85,884.55 924.9,883.55 924.9,882.5 L924.9,743.8 924.85,735.1 C924.85,727.45 922.15,720.85 916.75,715.4z"/>
    </g>
  </g>
  <g id="Calque.__206">
    <g id="shape6">
      <path id="path3" fill="#FFFFFF" fill-opacity="1" d="M916.75,784.15 C911.5,778.9 905.15,776.15 897.75,776 L127.2,776 C119.8,776.15 113.45,778.9 108.15,784.15 102.9,789.45 100.2,795.8 100.05,803.15 L100.05,952.025 L100.05,952.05 C100.1,952.8 100.15,953.5 100.2,954.25 Q101.15,963.85 108.15,970.9 C112.75,975.5 118.15,978.15 124.3,978.9 125.5,979.05 126.7,979.1 127.9,979.1 L873.7,979.1 799.35,904.75 862,838.7 924.9,901.6 924.9,812.55 924.85,803.85 C924.85,796.2 922.15,789.6 916.75,784.15z"/>
      <path id="path4" fill="#CCCCCC" fill-opacity="1" d="M897.05,979.1 C898.6,979.1 900.1,979 901.45,978.8 907.4,977.9 912.4,975.25 916.7,970.9 918.8,968.85 920.45,966.6 921.7,964.3 923.4,961.15 924.4,957.85 924.75,954.25 924.85,953.3 924.9,952.3 924.9,951.25 L924.9,901.6 862,838.7 799.35,904.75 873.7,979.1 897.05,979.1z"/>
    </g>
  </g>
  <g id="Calque.__207">
    <g id="shape10">
      <path id="path5" fill="#CCCCCC" fill-opacity="1" d="M880.6,875.65 C880.6,862.95 876.1,852.15 867.15,843.25 858.25,834.3 847.45,829.8 834.75,829.8 Q815.8,829.8 802.35,843.25 C793.45,852.15 788.9,862.95 788.9,875.65 788.9,888.3 793.45,899.1 802.35,908.05 811.3,916.95 822.1,921.5 834.75,921.5 847.45,921.5 858.25,916.95 867.15,908.05 876.1,899.1 880.6,888.3 880.6,875.65z"/>
    </g>
  </g>
  <g id="Calque.__208">
    <g id="shape12">
      <path id="path6" fill="#F9D346" fill-opacity="1" d="M834.75,844.75 C826.25,844.75 818.9,847.75 812.9,853.8 806.9,859.8 803.85,867.1 803.85,875.65 803.85,884.2 806.9,891.5 812.9,897.5 818.9,903.5 826.25,906.55 834.75,906.55 843.3,906.55 850.6,903.5 856.6,897.5 862.65,891.5 865.7,884.2 865.7,875.65 865.7,867.1 862.65,859.8 856.6,853.8 Q847.55,844.75 834.75,844.75z"/>
    </g>
  </g>
  <g id="Calque.__209">
    <g id="shape14">
      <path id="path7" fill="#000000" fill-opacity="0.2980392156862745" d="M844.8,68 C840,72.85 837.6,78.65 837.6,85.5 837.6,92.35 840,98.15 844.8,102.95 849.65,107.8 855.45,110.2 862.3,110.2 869.15,110.2 874.95,107.8 879.75,102.95 884.6,98.15 887,92.35 887,85.5 887,78.65 884.6,72.85 879.75,68 874.95,63.2 869.15,60.8 862.3,60.8 855.45,60.8 849.65,63.2 844.8,68z M879.75,635.3 C874.95,630.5 869.15,628.1 862.3,628.1 855.45,628.1 849.65,630.5 844.8,635.3 840,640.15 837.6,645.95 837.6,652.8 837.6,659.65 840,665.45 844.8,670.25 849.65,675.1 855.45,677.5 862.3,677.5 869.15,677.5 874.95,675.1 879.75,670.25 884.6,665.45 887,659.65 887,652.8 887,645.95 884.6,640.15 879.75,635.3z M181,85.5 Q181,75.25 173.75,68 C168.95,63.2 163.15,60.8 156.3,60.8 149.45,60.8 143.65,63.2 138.8,68 134,72.85 131.6,78.65 131.6,85.5 131.6,92.35 134,98.15 138.8,102.95 143.65,107.8 149.45,110.2 156.3,110.2 163.15,110.2 168.95,107.8 173.75,102.95 178.6,98.15 181,92.35 181,85.5z M156.3,628.1 C149.45,628.1 143.65,630.5 138.8,635.3 134,640.15 131.6,645.95 131.6,652.8 131.6,659.65 134,665.45 138.8,670.25 143.65,675.1 149.45,677.5 156.3,677.5 163.15,677.5 168.95,675.1 173.75,670.25 178.6,665.45 181,659.65 181,652.8 181,645.95 178.6,640.15 173.75,635.3 168.95,630.5 163.15,628.1 156.3,628.1z"/>
    </g>
  </g>
</svg>