<?xml version="1.0" encoding="utf-8"?>
<!-- Generator: flash2svg, http://dissentgraphics.com/tools/flash2svg -->
<svg id="DRIVE-Internal-alt" image-rendering="optimizeSpeed" baseProfile="basic" version="1.1" style="background-color:#FFFFFF" x="0px" y="0px" width="1024px" height="1024px" viewBox="0 0 1024 1024" enable-background="new 0 0 1024 1024" xmlns="http://www.w3.org/2000/svg" xmlns:xlink="http://www.w3.org/1999/xlink">
  <defs transform="matrix(1 0 0 1 0 0) "/>
  <g id="Calque.__203">
    <g id="shape">
      <path id="path" fill="#000000" fill-opacity="0.09803921568627451" d="M956.4,92.85 C956.4,85.2 953.7,78.6 948.3,73.15 Q940.15,65 928.55,65 L844.9,65 789.8,65 399.65,65 218.25,65 177.75,65 159.45,65 C151.75,65 145.15,67.7 139.7,73.15 134.3,78.6 131.6,85.2 131.6,92.85 L131.6,842.35 131.6,879.1 131.6,946.45 131.6,983.2 C131.65,983.95 131.7,984.65 131.75,985.4 132.4,991.8 135.05,997.35 139.7,1002.05 144.3,1006.65 149.7,1009.3 155.85,1010.05 157,1010.2 158.2,1010.25 159.45,1010.25 L928.6,1010.25 C930.1,1010.25 931.55,1010.15 933,1009.95 938.85,1009.1 943.9,1006.45 948.25,1002.05 950.3,1000 952,997.8 953.25,995.45 954.9,992.4 955.95,989.05 956.3,985.4 956.4,984.45 956.45,983.45 956.45,982.4 L956.4,107.3 956.4,101.55 956.4,92.85z"/>
    </g>
  </g>
  <g id="Calque.__204">
    <g id="shape2">
      <path id="path1" fill="#4B6B91" fill-opacity="1" d="M916.75,42 C911.3,36.55 904.7,33.85 897,33.85 L813.35,33.85 758.25,33.85 368.1,33.85 186.7,33.85 146.2,33.85 127.9,33.85 C120.2,33.85 113.6,36.55 108.15,42 102.75,47.45 100.05,54.05 100.05,61.7 L100.05,932.8 924.9,932.8 924.9,928.8 924.85,76.15 924.85,70.4 924.85,61.7 C924.85,54.05 922.15,47.45 916.75,42z"/>
    </g>
  </g>
  <g id="Calque.__205">
    <g id="shape4">
      <path id="path2" fill="#000000" fill-opacity="0.2980392156862745" d="M916.75,715.4 C911.5,710.15 905.15,707.4 897.75,707.25 L127.2,707.25 C119.8,707.4 113.45,710.15 108.15,715.4 102.9,720.7 100.2,727.05 100.05,734.4 L100.05,883.3 C100.1,884.05 100.15,884.75 100.2,885.5 Q101.15,895.1 108.15,902.15 C112.75,906.75 118.15,909.4 124.3,910.15 125.5,910.3 126.7,910.35 127.9,910.35 L897.05,910.35 C898.6,910.35 900.1,910.25 901.45,910.05 907.4,909.15 912.4,906.5 916.7,902.15 918.8,900.1 920.45,897.85 921.7,895.55 923.4,892.4 924.4,889.1 924.75,885.5 924.85,884.55 924.9,883.55 924.9,882.5 L924.9,743.8 924.85,735.1 C924.85,727.45 922.15,720.85 916.75,715.4z"/>
    </g>
  </g>
  <g id="Calque.__206">
    <g id="shape6">
      <path id="path3" fill="#E3E3E3" fill-opacity="1" d="M916.75,784.15 C911.5,778.9 905.15,776.15 897.75,776 L127.2,776 C119.8,776.15 113.45,778.9 108.15,784.15 102.9,789.45 100.2,795.8 100.05,803.15 L100.05,952.025 L100.05,952.05 C100.1,952.8 100.15,953.5 100.2,954.25 Q101.15,963.85 108.15,970.9 C112.75,975.5 118.15,978.15 124.3,978.9 125.5,979.05 126.7,979.1 127.9,979.1 L873.7,979.1 799.35,904.75 862,838.7 924.9,901.6 924.9,812.55 924.85,803.85 C924.85,796.2 922.15,789.6 916.75,784.15z"/>
      <path id="path4" fill="#B5B5B5" fill-opacity="1" d="M897.05,979.1 C898.6,979.1 900.1,979 901.45,978.8 907.4,977.9 912.4,975.25 916.7,970.9 918.8,968.85 920.45,966.6 921.7,964.3 923.4,961.15 924.4,957.85 924.75,954.25 924.85,953.3 924.9,952.3 924.9,951.25 L924.9,901.6 862,838.7 799.35,904.75 873.7,979.1 897.05,979.1z"/>
    </g>
  </g>
  <g id="Calque.__207">
    <g id="shape10">
      <path id="path5" fill="#B5B5B5" fill-opacity="1" d="M880.6,875.65 C880.6,862.95 876.1,852.15 867.15,843.25 858.25,834.3 847.45,829.8 834.75,829.8 Q815.8,829.8 802.35,843.25 C793.45,852.15 788.9,862.95 788.9,875.65 788.9,888.3 793.45,899.1 802.35,908.05 811.3,916.95 822.1,921.5 834.75,921.5 847.45,921.5 858.25,916.95 867.15,908.05 876.1,899.1 880.6,888.3 880.6,875.65z"/>
    </g>
  </g>
  <g id="Calque.__208">
    <g id="shape12">
      <path id="path6" fill="#F9D346" fill-opacity="1" d="M834.75,844.75 C826.25,844.75 818.9,847.75 812.9,853.8 806.9,859.8 803.85,867.1 803.85,875.65 803.85,884.2 806.9,891.5 812.9,897.5 818.9,903.5 826.25,906.55 834.75,906.55 843.3,906.55 850.6,903.5 856.6,897.5 862.65,891.5 865.7,884.2 865.7,875.65 865.7,867.1 862.65,859.8 856.6,853.8 Q847.55,844.75 834.75,844.75z"/>
    </g>
  </g>
  <g id="Calque.__209">
    <g id="shape14">
      <path id="path7" fill="#000000" fill-opacity="0.2980392156862745" d="M844.8,68 C840,72.85 837.6,78.65 837.6,85.5 837.6,92.35 840,98.15 844.8,102.95 849.65,107.8 855.45,110.2 862.3,110.2 869.15,110.2 874.95,107.8 879.75,102.95 884.6,98.15 887,92.35 887,85.5 887,78.65 884.6,72.85 879.75,68 874.95,63.2 869.15,60.8 862.3,60.8 855.45,60.8 849.65,63.2 844.8,68z M879.75,635.3 C874.95,630.5 869.15,628.1 862.3,628.1 855.45,628.1 849.65,630.5 844.8,635.3 840,640.15 837.6,645.95 837.6,652.8 837.6,659.65 840,665.45 844.8,670.25 849.65,675.1 855.45,677.5 862.3,677.5 869.15,677.5 874.95,675.1 879.75,670.25 884.6,665.45 887,659.65 887,652.8 887,645.95 884.6,640.15 879.75,635.3z M181,85.5 Q181,75.25 173.75,68 C168.95,63.2 163.15,60.8 156.3,60.8 149.45,60.8 143.65,63.2 138.8,68 134,72.85 131.6,78.65 131.6,85.5 131.6,92.35 134,98.15 138.8,102.95 143.65,107.8 149.45,110.2 156.3,110.2 163.15,110.2 168.95,107.8 173.75,102.95 178.6,98.15 181,92.35 181,85.5z M156.3,628.1 C149.45,628.1 143.65,630.5 138.8,635.3 134,640.15 131.6,645.95 131.6,652.8 131.6,659.65 134,665.45 138.8,670.25 143.65,675.1 149.45,677.5 156.3,677.5 163.15,677.5 168.95,675.1 173.75,670.25 178.6,665.45 181,659.65 181,652.8 181,645.95 178.6,640.15 173.75,635.3 168.95,630.5 163.15,628.1 156.3,628.1z"/>
    </g>
  </g>
  <g id="Calque.__210">
    <g id="shape22">
      <path id="path14" fill="#F2C500" fill-opacity="1" d="M458.95,638.85 C455.6,635.5 451.6,633.85 446.85,633.85 442.1,633.85 438.1,635.5 434.75,638.85 431.4,642.2 429.7,646.25 429.7,650.95 429.7,655.7 431.4,659.7 434.75,663.05 438.1,666.45 442.1,668.15 446.85,668.15 Q453.95,668.15 458.95,663.05 C462.3,659.7 463.95,655.7 463.95,650.95 463.95,646.25 462.3,642.2 458.95,638.85z M593.95,642.85 C590.6,639.5 586.6,637.85 581.85,637.85 577.15,637.85 573.1,639.5 569.75,642.85 566.4,646.2 564.75,650.2 564.75,654.95 564.75,659.7 566.4,663.75 569.75,667.05 573.1,670.4 577.15,672.05 581.85,672.05 586.6,672.05 590.6,670.4 593.95,667.05 597.3,663.75 599,659.7 599,654.95 599,650.2 597.3,646.2 593.95,642.85z M514.4,636.15 C509.65,636.15 505.6,637.8 502.3,641.15 498.9,644.5 497.2,648.5 497.2,653.25 497.2,658 498.9,662 502.3,665.35 505.6,668.7 509.65,670.4 514.4,670.4 519.05,670.4 523.1,668.7 526.5,665.35 529.85,662 531.5,658 531.5,653.25 531.5,648.5 529.85,644.5 526.5,641.15 523.1,637.8 519.05,636.15 514.4,636.15z"/>
    </g>
  </g>
  <g id="Calque.__211">
    <g id="shape28">
      <path id="path19" fill="#000000" fill-opacity="0.2" d="M659.35,277.5 L659.35,257.75 C659.35,246.1 653.5,240.25 641.8,240.25 L621.1,240.25 C621.45,239 621.6,237.65 621.6,236.2 L621.6,206.4 C621.6,202.5 620.25,199.2 617.5,196.5 614.75,193.75 611.45,192.4 607.6,192.4 603.75,192.4 600.45,193.75 597.7,196.5 594.95,199.2 593.55,202.5 593.55,206.4 L593.55,236.2 C593.55,237.65 593.75,239 594.1,240.25 L525,240.25 C525.4,239 525.6,237.65 525.6,236.2 L525.6,206.4 C525.6,202.5 524.2,199.2 521.4,196.5 518.7,193.75 515.4,192.4 511.55,192.4 507.65,192.4 504.35,193.75 501.65,196.5 498.9,199.2 497.55,202.5 497.55,206.4 L497.55,236.2 C497.55,237.65 497.75,239 498.1,240.25 L429,240.25 C429.35,239 429.5,237.65 429.5,236.2 L429.5,206.4 C429.5,202.5 428.15,199.2 425.4,196.5 422.7,193.75 419.4,192.4 415.55,192.4 411.65,192.4 408.35,193.75 405.65,196.5 402.85,199.2 401.45,202.5 401.45,206.4 L401.45,236.2 C401.45,237.65 401.65,239 402.05,240.25 L382.15,240.25 C370.5,240.25 364.65,246.1 364.65,257.75 L364.65,278.35 C364.5,278.35 364.35,278.35 364.2,278.35 L334.35,278.35 C330.5,278.35 327.2,279.7 324.45,282.4 321.65,285.2 320.25,288.5 320.25,292.3 320.25,296.15 321.65,299.5 324.45,302.3 327.2,305.05 330.5,306.4 334.35,306.4 L364.2,306.4 C364.35,306.4 364.5,306.4 364.65,306.4 L364.65,374.35 C364.5,374.35 364.35,374.35 364.2,374.35 L334.35,374.35 C330.5,374.35 327.2,375.75 324.45,378.5 321.65,381.25 320.25,384.55 320.25,388.4 320.25,392.25 321.65,395.55 324.45,398.3 327.2,401.05 330.5,402.4 334.35,402.4 L364.2,402.4 C364.35,402.4 364.5,402.4 364.65,402.4 L364.65,470.4 C364.5,470.4 364.35,470.4 364.2,470.4 L334.35,470.4 C330.5,470.4 327.2,471.75 324.45,474.5 321.65,477.25 320.25,480.55 320.25,484.4 320.25,488.25 321.65,491.6 324.45,494.35 327.2,497.1 330.5,498.45 334.35,498.45 L364.2,498.45 C364.35,498.45 364.5,498.45 364.65,498.45 L364.65,517.35 C364.65,529.05 370.5,534.9 382.15,534.9 L402.3,534.9 402.3,562.5 C402.3,566.35 403.7,569.65 406.45,572.35 409.2,575.15 412.5,576.55 416.35,576.55 420.2,576.55 423.5,575.15 426.25,572.35 429,569.65 430.4,566.35 430.4,562.5 L430.4,534.9 498.35,534.9 498.35,562.5 C498.35,566.35 499.7,569.65 502.45,572.35 505.2,575.15 508.5,576.55 512.35,576.55 516.2,576.55 519.55,575.15 522.3,572.35 525.05,569.65 526.4,566.35 526.4,562.5 L526.4,534.9 594.35,534.9 594.35,562.5 C594.35,566.35 595.75,569.65 598.55,572.35 601.25,575.15 604.55,576.55 608.4,576.55 612.3,576.55 615.6,575.15 618.3,572.35 621.1,569.65 622.5,566.35 622.5,562.5 L622.5,534.9 641.8,534.9 C653.5,534.9 659.35,529.05 659.35,517.35 L659.35,497.55 C659.75,497.6 660.15,497.65 660.6,497.65 L690.45,497.65 C694.3,497.65 697.6,496.25 700.35,493.45 703.05,490.75 704.4,487.45 704.4,483.55 704.4,479.7 703.05,476.4 700.35,473.7 697.6,470.95 694.3,469.6 690.45,469.6 L660.6,469.6 C660.15,469.6 659.75,469.6 659.35,469.6 L659.35,401.55 C659.75,401.55 660.15,401.55 660.6,401.55 L690.45,401.55 C694.3,401.55 697.6,400.2 700.35,397.45 703.05,394.7 704.4,391.4 704.4,387.6 704.4,383.7 703.05,380.35 700.35,377.6 697.6,374.85 694.3,373.5 690.45,373.5 L660.6,373.5 C660.15,373.5 659.75,373.55 659.35,373.6 L659.35,305.5 C659.75,305.55 660.15,305.55 660.6,305.55 L690.45,305.55 C694.3,305.55 697.6,304.15 700.35,301.4 703.05,298.65 704.4,295.35 704.4,291.5 704.4,287.65 703.05,284.35 700.35,281.6 697.6,278.85 694.3,277.5 690.45,277.5 L660.6,277.5 C660.15,277.5 659.75,277.5 659.35,277.5z"/>
    </g>
  </g>
  <g id="Calque.__212">
    <g id="shape30">
      <path id="path20" fill="#6590C4" fill-opacity="1" d="M650.85,270.05 C653.6,273.5 656.9,275.8 660.75,276.8 L690.6,284.5 C694.45,285.5 697.75,284.95 700.5,282.9 703.25,280.9 704.65,277.95 704.65,274.1 704.65,270.25 703.25,266.6 700.5,263.1 697.75,259.65 694.45,257.45 690.6,256.45 L660.75,248.75 C656.9,247.75 653.6,248.2 650.85,250.25 648.1,252.3 646.75,255.25 646.75,259.1 646.75,262.95 648.1,266.6 650.85,270.05z M660.75,344.75 C656.9,343.75 653.6,344.25 650.85,346.3 648.1,348.35 646.75,351.3 646.75,355.15 646.75,359 648.1,362.65 650.85,366.1 653.6,369.55 656.9,371.8 660.75,372.8 L690.6,380.5 C694.45,381.5 697.75,381 700.5,378.95 703.25,376.95 704.65,374 704.65,370.15 704.65,366.3 703.25,362.65 700.5,359.15 697.75,355.7 694.45,353.45 690.6,352.45 L660.75,344.75z M660.75,440.8 C656.9,439.8 653.6,440.25 650.85,442.3 648.1,444.35 646.75,447.3 646.75,451.15 646.75,455 648.1,458.65 650.85,462.1 653.6,465.55 656.9,467.85 660.75,468.85 L690.6,476.55 C694.45,477.55 697.75,477 700.5,474.95 703.25,472.95 704.65,470 704.65,466.15 704.65,462.3 703.25,458.65 700.5,455.15 697.75,451.7 694.45,449.5 690.6,448.5 L660.75,440.8z M429.7,238.8 L429.7,208.95 C429.7,205.1 428.35,201.8 425.6,199.05 422.85,196.35 419.55,195 415.7,195 411.85,195 408.55,196.35 405.8,199.05 403.05,201.8 401.65,205.1 401.65,208.95 L401.65,238.8 C401.65,242.65 403.05,245.95 405.8,248.7 408.55,251.45 411.85,252.85 415.7,252.85 419.55,252.85 422.85,251.45 425.6,248.7 428.35,245.95 429.7,242.65 429.7,238.8z M324.6,283.75 C327.35,285.7 330.65,286.1 334.5,285.05 L364.35,276.8 C368.2,275.75 371.5,273.45 374.25,270 376.95,266.45 378.3,262.75 378.3,258.9 378.3,255.1 376.95,252.15 374.25,250.1 371.5,248.1 368.2,247.7 364.35,248.75 L334.5,257 C330.65,258.05 327.35,260.35 324.6,263.85 321.85,267.4 320.5,271.1 320.5,274.9 320.5,278.75 321.85,281.7 324.6,283.75z M334.5,381.15 L364.35,372.9 C368.2,371.85 371.5,369.5 374.25,365.95 376.95,362.5 378.3,358.85 378.3,355 378.3,351.1 376.95,348.15 374.25,346.2 371.5,344.15 368.2,343.7 364.35,344.75 L334.5,353 C330.65,354.05 327.35,356.4 324.6,359.95 321.85,363.4 320.5,367.1 320.5,371 320.5,374.85 321.85,377.75 324.6,379.7 327.35,381.75 330.65,382.2 334.5,381.15z M621.75,238.8 L621.75,208.95 C621.75,205.1 620.4,201.8 617.65,199.05 614.9,196.35 611.6,195 607.75,195 603.9,195 600.6,196.35 597.85,199.05 595.1,201.8 593.7,205.1 593.7,208.95 L593.7,238.8 C593.7,242.65 595.1,245.95 597.85,248.7 600.6,251.45 603.9,252.85 607.75,252.85 611.6,252.85 614.9,251.45 617.65,248.7 620.4,245.95 621.75,242.65 621.75,238.8z M525.75,238.8 L525.75,208.95 C525.75,205.1 524.4,201.8 521.65,199.05 518.9,196.35 515.55,195 511.7,195 507.85,195 504.55,196.35 501.8,199.05 499.05,201.8 497.7,205.1 497.7,208.95 L497.7,238.8 C497.7,242.65 499.05,245.95 501.8,248.7 504.55,251.45 507.85,252.85 511.7,252.85 515.55,252.85 518.9,251.45 521.65,248.7 524.4,245.95 525.75,242.65 525.75,238.8z M512.6,501.25 Q506.8,501.25 502.6,505.3 C499.85,508.1 498.5,511.4 498.5,515.2 L498.5,545.05 C498.5,548.9 499.85,552.2 502.6,554.95 505.4,557.75 508.75,559.15 512.6,559.15 516.4,559.15 519.7,557.75 522.5,554.95 525.2,552.2 526.55,548.9 526.55,545.05 L526.55,515.2 C526.55,511.4 525.2,508.1 522.5,505.3 519.7,502.6 516.4,501.25 512.6,501.25z M618.5,505.3 C615.75,502.6 612.45,501.25 608.6,501.25 604.75,501.25 601.45,502.6 598.7,505.3 595.9,508.1 594.5,511.4 594.5,515.2 L594.5,545.05 C594.5,548.9 595.9,552.2 598.7,554.95 601.45,557.75 604.75,559.15 608.6,559.15 612.45,559.15 615.75,557.75 618.5,554.95 621.25,552.2 622.65,548.9 622.65,545.05 L622.65,515.2 C622.65,511.4 621.25,508.1 618.5,505.3z M334.5,477.15 L364.35,468.9 C368.2,467.85 371.5,465.55 374.25,462.05 376.95,458.55 378.3,454.85 378.3,450.95 378.3,447.15 376.95,444.2 374.25,442.2 371.5,440.2 368.2,439.8 364.35,440.85 L334.5,449.1 C330.65,450.15 327.35,452.45 324.6,455.95 321.85,459.45 320.5,463.15 320.5,466.95 320.5,470.85 321.85,473.8 324.6,475.8 327.35,477.8 330.65,478.2 334.5,477.15z M402.45,515.2 L402.45,545.05 C402.45,548.9 403.85,552.2 406.6,554.95 409.35,557.75 412.65,559.15 416.5,559.15 420.35,559.15 423.65,557.75 426.4,554.95 429.15,552.2 430.55,548.9 430.55,545.05 L430.55,515.2 C430.55,511.4 429.15,508.1 426.4,505.3 423.65,502.6 420.35,501.25 416.5,501.25 412.65,501.25 409.35,502.6 406.6,505.3 403.85,508.1 402.45,511.4 402.45,515.2z"/>
    </g>
  </g>
  <g id="Calque.__213">
    <g id="shape54">
      <path id="path43" fill="#384C63" fill-opacity="1" d="M659.55,499.95 L659.55,240.3 C659.55,228.65 653.7,222.8 641.95,222.8 L382.35,222.8 C370.7,222.8 364.85,228.65 364.85,240.3 L364.85,499.95 C364.85,511.65 370.7,517.5 382.35,517.5 L641.95,517.5 C653.7,517.5 659.55,511.65 659.55,499.95z"/>
    </g>
  </g>
  <g id=".__E5.__9B.__BE.__E5.__B1.__82.__201">
    <g id="drawingObject">
      <path id="path44" fill="#F3C600" fill-opacity="1" d="M546.25,298.226 Q548.904,290.514 548.088,283.1 C539.244,283.461 528.532,289.006 522.17,296.436 516.484,303.017 511.505,313.557 512.84,323.657 522.72,324.41 532.804,318.63 538.946,311.201 Q543.799,305.326 546.25,298.226z M580.099,343.102 C569.764,327.96 553.648,325.887 547.915,325.651 534.218,324.253 521.181,333.709 514.238,333.709 507.295,333.709 496.567,325.856 485.211,326.06 470.273,326.28 456.513,334.746 448.817,348.113 433.314,375.035 444.859,414.901 459.969,436.734 467.351,447.415 476.163,459.447 487.74,459.007 498.876,458.567 503.086,451.813 516.547,451.813 530.024,451.813 533.809,459.007 545.59,458.787 557.575,458.567 565.193,447.886 572.513,437.174 581.01,424.781 584.497,412.78 584.701,412.152 584.434,412.042 561.329,403.183 561.078,376.575 560.889,354.317 579.267,343.605 580.099,343.102z"/>
    </g>
  </g>
</svg>