<?xml version="1.0" encoding="utf-8"?>
<!-- Generator: flash2svg, http://dissentgraphics.com/tools/flash2svg -->
<svg xmlns:xlink="http://www.w3.org/1999/xlink" id="APP-alt" image-rendering="optimizeSpeed" baseProfile="basic" version="1.1" style="background-color:#ffffff" x="0px" y="0px" width="1024px" height="1024px" viewBox="0 0 1024 1024" enable-background="new 0 0 1024 1024" xmlns="http://www.w3.org/2000/svg">
  <defs transform="matrix(1 0 0 1 0 0) "/>
  <g id="shadow">
    <g id="shape">
      <path id="path" fill="#000000" fill-opacity="0.09803921568627451" d="M969.65,351.3 Q961.05,330.45 950.25,310.45 C946.2,302.9 941.9,295.4 937.35,288.05 917.8,256.35 893.95,226.4 865.8,198.25 773.65,106.1 662.35,60 532,60 401.65,60 290.4,106.1 198.25,198.25 106.1,290.4 60,401.65 60,532 60,662.35 106.1,773.65 198.25,865.8 290.4,957.95 401.65,1004 532,1004 662.35,1004 773.65,957.95 865.8,865.8 916.55,815 953.35,758.4 976.15,696.05 994.7,645.2 1004,590.55 1004,532 1004,487.1 998.55,444.45 987.6,404.05 986.35,399.5 985.05,394.95 983.7,390.45 979.6,377.15 974.9,364.1 969.65,351.3z"/>
    </g>
  </g>
  <g id="bg">
    <g id="shape2">
      <path id="path1" fill="#687475" fill-opacity="1" d="M966.1,378.45 C963.6,369.7 960.75,360.85 957.65,352.1 951.2,333.85 943.5,316.05 934.5,298.45 930.7,291.05 926.55,283.5 922.2,276.05 901.9,241.55 876.4,208.85 845.85,178.3 773.25,105.7 688.7,61.65 592.2,46.25 575.95,43.65 559.4,41.85 542.15,40.9 532.45,40.35 522.3,40.05 512.05,40.05 502.7,40.05 493.45,40.3 484.15,40.8 365.8,46.9 263.85,92.75 178.3,178.3 Q40.05,316.55 40.05,512.05 C40.05,642.4 86.15,753.7 178.3,845.85 258.75,926.25 353.7,971.6 462.8,981.8 L462.775,981.775 L200.05,721.05 813.05,312.05 983.45,486.575 L983.45,486.6 C981.9,454.1 977.35,422.65 969.75,392.05 968.65,387.7 967.4,383.05 966.1,378.45z"/>
      <path id="path2" fill="#535C5D" fill-opacity="1" d="M984.05,510.05 C984.05,509.7 984.05,509.4 984.05,509.05 984,501.55 983.8,494.1 983.45,486.6 L983.45,486.575 L813.05,312.05 200.05,721.05 462.775,981.775 L462.8,981.8 C470.1,982.5 477.1,983 484.15,983.35 484.3,983.35 484.4,983.35 484.55,983.35 493.05,983.8 501.15,984.05 509.05,984.05 510.25,984.05 511.15,984.05 512.05,984.05 522.35,984.05 532.55,983.75 542.15,983.25 544.65,983.1 546.9,982.95 549.1,982.8 569.3,981.35 589,978.75 607.8,975.1 615.75,973.55 623.6,971.8 631.2,969.95 712,949.65 783.35,908.35 845.85,845.85 894.45,797.25 930.25,743.35 953.2,684.05 971.65,636.4 981.85,585.25 983.75,530.55 983.95,524.5 984.05,518.3 984.05,512.05 984.05,511.4 984.05,510.7 984.05,510.05z"/>
    </g>
  </g>
  <g id="Calque.__201">
    <g id="group">
      <g id="drawingObject">
        <path id="path3" fill="#96A6A6" fill-opacity="1" d="M831.057,350.535 C831.057,324.224 809.614,302.876 783.303,302.876 L241.537,302.876 C215.132,302.876 193.783,324.224 193.783,350.535 L193.783,691.925 C193.783,718.236 215.132,739.585 241.537,739.585 L783.303,739.585 Q803.06,739.585 817.012,725.633 831.057,711.682 831.057,691.925 L831.057,350.535z"/>
      </g>
      <g id="drawingObject1">
        <path id="path4" fill="#808B8D" fill-opacity="1" d="M640.886,380.03 C549.031,380.03 474.686,454.469 474.686,546.231 474.686,638.086 549.031,712.431 640.886,712.431 Q674.688,712.431 705.587,699.416 735.363,686.775 758.397,663.741 781.431,640.801 793.978,610.932 807.086,580.032 807.086,546.231 C807.086,454.469 732.647,380.03 640.886,380.03z"/>
      </g>
      <g id="drawingObject2">
        <path id="path5" fill="#B6C6C5" fill-opacity="1" d="M778.715,546.231 C778.715,470.106 717.01,408.401 640.886,408.401 564.761,408.401 502.963,470.106 502.963,546.231 502.963,622.355 564.761,684.06 640.886,684.06 Q668.976,684.06 694.538,673.198 719.258,662.805 738.359,643.704 757.46,624.602 767.854,599.883 778.715,574.321 778.715,546.231z"/>
      </g>
      <g id="drawingObject3">
        <path id="path6" fill="#96A6A6" fill-opacity="1" d="M353.71,326.565 C353.71,302.876 339.853,283.774 322.905,283.774 L285.17,283.774 C268.129,283.774 254.365,302.876 254.365,326.565 L254.365,370.011 C254.365,393.607 268.129,412.802 285.17,412.802 L322.905,412.802 Q335.639,412.802 344.628,400.255 353.71,387.708 353.71,370.011 L353.71,326.565z"/>
      </g>
      <g id="drawingObject4">
        <path id="path7" fill="#B6C6C5" fill-opacity="1" d="M418.318,328.063 C400.246,328.063 385.64,345.198 385.64,366.36 385.64,387.521 400.246,404.656 418.318,404.656 L478.618,404.656 Q492.195,404.656 501.746,393.42 511.296,382.277 511.296,366.36 C511.296,345.198 496.69,328.063 478.618,328.063 L418.318,328.063z"/>
      </g>
      <g id="drawingObject5">
        <path id="path8" fill="#FFFFFF" fill-opacity="1" d="M716.261,475.537 C722.535,463.084 710.269,444.076 688.827,433.214 667.384,422.353 644.819,423.664 638.451,436.211 632.084,448.758 644.444,467.672 665.886,478.533 Q681.991,486.679 696.692,485.837 711.486,484.9 716.261,475.537z"/>
      </g>
      <g id="drawingObject6">
        <path id="path9" fill="#717B7C" fill-opacity="1" d="M252.398,394.824 C252.398,368.513 226.181,347.165 193.783,347.165 L193.783,695.483 Q218.035,695.483 235.263,681.532 252.398,667.58 252.398,647.823 L252.398,394.824z"/>
      </g>
      <g id="drawingObject7">
        <path id="path10" fill="#4F814F" fill-opacity="1" d="M742.198,328.063 C733.396,328.063 726.187,335.179 726.187,344.075 726.187,352.876 733.396,360.086 742.198,360.086 L771.693,360.086 Q778.341,360.086 783.022,355.404 787.704,350.723 787.704,344.075 C787.704,335.179 780.494,328.063 771.693,328.063 L742.198,328.063z"/>
      </g>
      <g id="drawingObject8">
        <path id="path11" fill="#BF3A31" fill-opacity="1" d="M663.92,328.063 C655.118,328.063 647.909,335.179 647.909,344.075 647.909,352.876 655.118,360.086 663.92,360.086 L693.415,360.086 Q700.063,360.086 704.744,355.404 709.426,350.723 709.426,344.075 C709.426,335.179 702.31,328.063 693.415,328.063 L663.92,328.063z"/>
      </g>
    </g>
  </g>
</svg>