<?xml version="1.0" encoding="utf-8"?>
<!-- Generator: flash2svg, http://dissentgraphics.com/tools/flash2svg -->
<svg xmlns:xlink="http://www.w3.org/1999/xlink" id="APP-alt" image-rendering="optimizeSpeed" baseProfile="basic" version="1.1" style="background-color:#ffffff" x="0px" y="0px" width="1024px" height="1024px" viewBox="0 0 1024 1024" enable-background="new 0 0 1024 1024" xmlns="http://www.w3.org/2000/svg">
  <defs transform="matrix(1 0 0 1 0 0) "/>
  <g id="shadow">
    <g id="shape">
      <path id="path" fill="#000000" fill-opacity="0.09803921568627451" d="M969.65,351.3 Q961.05,330.45 950.25,310.45 C946.2,302.9 941.9,295.4 937.35,288.05 917.8,256.35 893.95,226.4 865.8,198.25 773.65,106.1 662.35,60 532,60 401.65,60 290.4,106.1 198.25,198.25 106.1,290.4 60,401.65 60,532 60,662.35 106.1,773.65 198.25,865.8 290.4,957.95 401.65,1004 532,1004 662.35,1004 773.65,957.95 865.8,865.8 916.55,815 953.35,758.4 976.15,696.05 994.7,645.2 1004,590.55 1004,532 1004,487.1 998.55,444.45 987.6,404.05 986.35,399.5 985.05,394.95 983.7,390.45 979.6,377.15 974.9,364.1 969.65,351.3z"/>
    </g>
  </g>
  <g id="bg">
    <g id="shape2">
      <path id="path1" fill="#96A6A6" fill-opacity="1" d="M969.75,392.05 C968.65,387.7 967.4,383.05 966.1,378.45 963.6,369.7 960.75,360.85 957.65,352.1 951.2,333.85 943.5,316.05 934.5,298.45 930.7,291.05 926.55,283.5 922.2,276.05 901.9,241.55 876.4,208.85 845.85,178.3 773.25,105.7 688.7,61.65 592.2,46.25 575.95,43.65 559.4,41.85 542.15,40.9 532.45,40.35 522.3,40.05 512.05,40.05 502.7,40.05 493.45,40.3 484.15,40.8 365.8,46.9 263.85,92.75 178.3,178.3 Q40.05,316.55 40.05,512.05 C40.05,642.4 86.15,753.7 178.3,845.85 261.65,929.15 360.5,974.8 474.75,982.75 L356.05,864.05 664.05,158.05 982.9,476.9 C981,447.85 976.6,419.6 969.75,392.05z"/>
      <path id="path2" fill="#788484" fill-opacity="1" d="M983.75,530.55 C983.95,524.5 984.05,518.3 984.05,512.05 984.05,511.4 984.05,510.7 984.05,510.05 984.05,509.7 984.05,509.4 984.05,509.05 984,498.25 983.65,487.6 982.9,476.9 L664.05,158.05 356.05,864.05 474.75,982.75 C478.05,983 481.1,983.2 484.15,983.35 484.3,983.35 484.4,983.35 484.55,983.35 493.05,983.8 501.15,984.05 509.05,984.05 510.25,984.05 511.15,984.05 512.05,984.05 522.35,984.05 532.55,983.75 542.15,983.25 544.65,983.1 546.9,982.95 549.1,982.8 569.3,981.35 589,978.75 607.8,975.1 615.75,973.55 623.6,971.8 631.2,969.95 712,949.65 783.35,908.35 845.85,845.85 894.45,797.25 930.25,743.35 953.2,684.05 971.65,636.4 981.85,585.25 983.75,530.55z"/>
    </g>
  </g>
  <g id="Calque.__201">
    <g id="group">
      <g id="drawingObject">
        <path id="path3" fill="#FFFFFF" fill-opacity="1" d="M299.192,245.777 C293.32,247.19 289.079,251.649 287.666,257.086 L279.293,259.043 C275.596,254.911 269.724,252.845 263.852,254.258 257.98,255.672 253.739,260.13 252.326,265.567 L241.452,268.286 C237.646,264.045 231.774,261.979 226.011,263.392 217.529,265.458 212.31,273.94 214.376,282.422 215.898,289.055 221.553,293.731 227.968,294.383 L229.599,300.907 C224.162,304.496 221.226,311.129 222.858,317.762 224.489,324.395 230.143,329.071 236.559,329.723 L238.081,336.247 C232.644,339.836 229.817,346.469 231.448,353.102 232.97,359.844 238.625,364.411 245.04,365.172 L246.671,371.587 C241.234,375.176 238.298,381.809 239.93,388.551 241.561,395.184 247.215,399.86 253.631,400.512 L255.153,407.036 C249.716,410.516 246.889,417.258 248.52,423.891 250.042,430.524 255.697,435.2 262.112,435.852 L263.743,442.376 C258.306,445.856 255.37,452.598 257.001,459.231 258.633,465.864 264.178,470.54 270.703,471.192 L272.225,477.716 C266.788,481.305 263.961,487.938 265.592,494.571 267.114,501.313 272.769,505.88 279.184,506.641 L280.815,513.057 C275.378,516.645 272.442,523.278 274.073,530.02 275.705,536.653 281.25,541.329 287.775,541.981 L289.297,548.505 C283.86,551.985 281.033,558.727 282.555,565.36 284.186,571.993 289.841,576.669 296.256,577.321 L297.887,583.845 C292.45,587.325 289.514,594.067 291.145,600.7 292.777,607.333 298.322,612.009 304.847,612.661 L306.369,619.186 C300.932,622.774 298.105,629.407 299.627,636.04 301.258,642.782 306.913,647.349 313.328,648.11 L315.72,657.896 C310.283,661.485 307.456,668.118 308.979,674.86 310.61,681.493 316.264,686.169 322.68,686.821 L324.202,693.345 C318.874,696.825 315.938,703.567 317.569,710.2 319.2,716.833 324.746,721.509 331.27,722.161 L332.792,728.685 C327.355,732.165 324.528,738.907 326.051,745.54 327.682,752.173 333.336,756.849 339.752,757.501 L341.274,764.025 C335.946,767.614 333.01,774.247 334.641,780.88 336.272,787.622 341.818,792.189 348.233,792.95 L349.864,799.366 C344.427,802.954 341.6,809.587 343.123,816.329 344.754,822.962 350.408,827.638 356.824,828.29 L358.346,834.706 C352.909,838.294 350.082,845.036 351.713,851.669 353.779,860.15 362.261,865.37 370.742,863.304 377.375,861.673 381.942,856.018 382.703,849.603 L391.729,847.428 C395.208,852.865 401.95,855.692 408.583,854.17 415.216,852.539 419.892,846.884 420.545,840.469 L427.069,838.946 C430.657,844.383 437.29,847.211 443.923,845.579 450.556,843.948 455.232,838.403 455.885,831.987 L462.409,830.356 C465.997,835.793 472.63,838.729 479.372,837.098 486.005,835.467 490.572,829.812 491.333,823.397 L497.858,821.874 C501.337,827.311 508.079,830.139 514.712,828.508 521.345,826.985 526.021,821.331 526.673,814.915 L533.198,813.284 C536.677,818.721 543.419,821.657 550.052,820.026 556.685,818.395 561.361,812.849 562.014,806.325 L568.538,804.802 C572.126,810.239 578.759,813.067 585.392,811.436 592.025,809.913 596.701,804.259 597.354,797.843 L603.878,796.212 C607.466,801.649 614.099,804.585 620.841,802.954 627.474,801.323 632.041,795.777 632.802,789.253 L639.218,787.731 C642.806,793.167 649.548,795.995 656.181,794.364 662.814,792.841 667.49,787.187 668.143,780.771 L674.667,779.249 C678.147,784.577 684.888,787.513 691.521,785.882 698.154,784.251 702.83,778.705 703.483,772.29 L710.007,770.659 C713.595,776.095 720.228,778.923 726.861,777.292 733.495,775.769 738.17,770.115 738.823,763.699 L745.347,762.177 C748.935,767.505 755.568,770.441 762.202,768.81 768.943,767.179 773.51,761.633 774.272,755.218 L782.101,753.26 C785.58,758.697 792.322,761.524 798.955,760.002 807.437,757.936 812.656,749.346 810.59,740.973 808.85,733.905 802.761,729.12 795.911,728.903 L794.497,723.031 C800.478,719.66 803.74,712.592 802,705.524 800.369,698.565 794.171,693.78 787.32,693.563 L785.907,687.582 C791.887,684.211 795.149,677.252 793.518,670.184 791.778,663.225 785.689,658.44 778.839,658.114 L777.425,652.242 C783.406,648.871 786.668,641.803 784.928,634.844 783.297,627.776 777.099,623.1 770.248,622.774 L768.835,616.902 C774.815,613.531 778.077,606.463 776.446,599.504 774.706,592.436 768.617,587.651 761.767,587.434 L760.353,581.562 C766.334,578.191 769.596,571.123 767.856,564.055 766.225,557.096 760.027,552.311 753.176,552.094 L751.001,542.742 C756.982,539.371 760.244,532.412 758.504,525.344 756.873,518.385 750.675,513.6 743.825,513.274 L742.411,507.402 C748.392,504.031 751.763,496.963 750.023,490.004 748.283,482.936 742.194,478.26 735.343,477.934 L733.929,472.062 C739.91,468.691 743.172,461.623 741.541,454.664 739.801,447.596 733.603,442.811 726.753,442.594 L725.339,436.722 C731.32,433.351 734.691,426.283 732.951,419.215 731.211,412.256 725.122,407.471 718.271,407.254 L716.857,401.382 C722.838,398.011 726.1,390.943 724.469,383.875 722.729,376.916 716.64,372.131 709.681,371.805 L708.267,365.933 C714.248,362.562 717.619,355.494 715.879,348.535 714.248,341.467 708.05,336.791 701.199,336.465 L699.786,330.593 C705.766,327.222 709.028,320.154 707.397,313.195 705.657,306.127 699.568,301.342 692.609,301.125 L691.195,295.253 C697.176,291.882 700.547,284.814 698.807,277.855 697.176,270.787 690.978,266.002 684.127,265.785 L682.714,259.913 C688.694,256.542 691.956,249.474 690.325,242.406 688.585,235.447 682.496,230.662 675.537,230.336 L674.123,224.464 C680.213,221.093 683.475,214.134 681.735,207.066 Q680.539,201.955 676.407,198.584 672.275,195.213 667.055,194.996 L665.642,189.124 C671.622,185.753 674.884,178.685 673.253,171.726 671.187,163.244 662.706,158.025 654.224,160.091 648.352,161.504 644.003,165.963 642.589,171.4 L633.02,173.792 C629.214,169.551 623.342,167.485 617.47,168.899 611.707,170.312 607.358,174.879 605.944,180.316 L597.571,182.273 C593.874,178.141 588.002,176.075 582.13,177.489 576.258,178.902 572.018,183.361 570.604,188.798 L562.231,190.864 C558.534,186.623 552.662,184.557 546.79,185.97 540.918,187.384 536.677,191.951 535.264,197.388 L526.891,199.345 C523.085,195.213 517.213,193.147 511.45,194.561 505.578,195.974 501.229,200.433 499.815,205.87 L491.551,207.936 C487.745,203.695 481.873,201.629 476.001,203.042 470.238,204.456 465.889,209.023 464.475,214.46 L456.102,216.417 C452.405,212.285 446.533,210.219 440.661,211.633 434.789,213.046 430.548,217.505 429.135,222.942 L420.762,225.008 C417.065,220.767 411.193,218.701 405.321,220.114 399.449,221.528 395.208,225.986 393.795,231.532 L385.422,233.489 C381.725,229.248 375.853,227.291 369.981,228.705 364.109,230.118 359.76,234.577 358.346,240.014 L350.082,242.08 C346.276,237.839 340.404,235.773 334.532,237.186 328.769,238.6 324.419,243.058 323.006,248.495 L314.633,250.561 C310.936,246.32 305.064,244.363 299.192,245.777z"/>
      </g>
      <g id="drawingObject1">
        <path id="path4" fill="#A4C6D2" fill-opacity="1" d="M638.131,201.738 L259.285,293.187 386.727,821.548 765.681,730.208 638.131,201.738z"/>
      </g>
    </g>
    <g id="group1">
      <g id="drawingObject2">
        <path id="path5" fill="#808B8D" fill-opacity="1" d="M609.859,457.709 L607.031,488.155 Q603.443,512.295 595.94,532.521 C595.396,543.395 590.829,556.226 582.13,571.123 574.192,584.933 563.645,598.851 550.596,612.879 537.656,626.688 524.39,638.541 510.58,648.436 496.988,658.114 484.918,664.638 474.153,667.792 497.966,661.376 522.868,648.327 548.856,628.646 576.585,607.659 596.049,586.02 607.14,563.838 620.732,536.762 612.468,500.225 609.859,456.947 L609.859,457.709z"/>
      </g>
      <g id="drawingObject3">
        <path id="path6" fill="#626A6B" fill-opacity="1" d="M471.978,668.335 C530.044,655.504 593.765,577.647 595.94,532.521 Q572.018,597.438 511.776,617.663 C447.294,639.302 421.306,614.618 411.302,593.306 398.579,618.316 378.789,672.902 388.902,709.221 388.902,709.221 424.242,678.774 471.978,668.335z"/>
      </g>
      <g id="drawingObject14">
        <path id="path7" fill="#96A6A6" fill-opacity="1" d="M523.629,453.794 C530.588,455.751 537.982,460.21 544.398,466.516 L568.103,444.116 C534.285,426.066 495.574,433.677 496.879,430.85 493.508,437.809 490.572,444.551 487.963,450.641 503.621,450.967 516.235,451.728 523.629,453.794z"/>
      </g>
      <g id="drawingObject20">
        <path id="path8" fill="#96A6A6" fill-opacity="1" d="M412.824,598.09 L409.997,597.22 411.519,600.7 412.824,598.09z"/>
      </g>
      <g id="drawingObject26">
        <path id="path9" fill="#96A6A6" fill-opacity="1" d="M607.031,488.155 C597.897,465.864 583.544,452.272 568.103,444.116 L544.398,466.516 C556.903,478.695 565.819,497.724 561.687,519.581 Q595.505,511.643 596.049,529.476 L595.94,532.521 C601.377,517.841 604.857,502.726 607.031,488.155z"/>
      </g>
      <g id="drawingObject30">
        <path id="path10" fill="#96A6A6" fill-opacity="1" d="M596.049,529.476 C595.614,516.427 581.695,514.905 561.687,519.581 558.316,538.066 545.485,558.401 517.539,578.3 481.112,604.18 444.576,607.659 412.824,598.09 L411.519,600.7 C421.414,622.121 447.294,639.302 511.776,617.663 Q572.018,597.438 595.94,532.521 L596.049,529.476z"/>
      </g>
      <g id="drawingObject55">
        <path id="path11" fill="#626A6B" fill-opacity="1" d="M559.621,350.166 L552.445,354.95 C551.466,355.712 550.379,356.364 549.4,357.234 L539.831,365.824 528.848,378.221 518.301,392.574 503.947,416.932 496.879,430.85 C495.574,433.677 534.285,426.066 568.103,444.116 L610.837,403.557 C608.662,422.26 608.771,440.093 609.859,456.839 L609.641,430.85 C610.185,414.539 611.381,398.555 616.709,385.289 626.169,361.475 656.616,351.471 656.616,351.471 L640.197,359.409 L656.616,351.471 C656.616,351.471 620.732,320.806 564.95,347.339 Q561.687,348.861 559.621,350.166z"/>
      </g>
      <g id="drawingObject56">
        <path id="path12" fill="#626A6B" fill-opacity="1" d="M607.031,488.155 L609.859,457.709 609.859,456.839 C608.771,440.093 608.662,422.26 610.837,403.557 L568.103,444.116 C583.544,452.272 597.897,465.864 607.031,488.155z"/>
      </g>
      <g id="drawingObject57">
        <path id="path13" fill="#808B8D" fill-opacity="1" d="M313.219,453.685 L307.891,420.52 C307.891,420.52 314.089,475.542 331.596,520.559 384.661,529.041 458.494,487.72 478.394,475.759 Q482.526,464.124 487.963,450.641 C432.397,449.553 338.773,453.576 307.891,420.52"/>
      </g>
      <g id="drawingObject58">
        <path id="path14" fill="#808B8D" fill-opacity="1" d="M480.568,480.435 Q476.219,476.955 477.197,474.019 C469.259,482.066 453.275,497.724 432.071,510.99 408.366,525.888 363.022,541.981 343.992,546.766 348.451,554.268 353.235,560.793 358.672,566.012 L362.261,569.274 C375.418,563.729 432.071,583.302 453.71,571.775 L480.568,480.435z"/>
      </g>
      <g id="drawingObject59">
        <path id="path15" fill="#808B8D" fill-opacity="1" d="M409.997,597.22 L408.583,593.197 404.995,595.48 409.997,597.22z"/>
      </g>
      <g id="drawingObject60">
        <path id="path16" fill="#808B8D" fill-opacity="1" d="M523.629,453.794 C516.235,451.728 503.621,450.967 487.963,450.641 483.722,461.079 422.284,541.22 422.284,541.22 Q441.096,531.216 450.883,523.604 C478.502,501.965 496.879,473.041 496.879,473.041 L484.265,490.221 L496.879,473.041 L495.9,488.373 L496.879,473.041 C496.879,473.041 499.815,495.767 480.46,527.193 L544.398,466.516 C537.982,460.21 530.588,455.751 523.629,453.794z"/>
      </g>
      <g id="drawingObject61">
        <path id="path17" fill="#808B8D" fill-opacity="1" d="M412.824,598.09 C415.977,592.11 418.478,587.76 420.001,585.368 Q415.434,588.739 408.583,593.197 L409.997,597.22 412.824,598.09z"/>
      </g>
      <g id="drawingObject62">
        <path id="path18" fill="#808B8D" fill-opacity="1" d="M561.687,519.581 C565.819,497.724 556.903,478.695 544.398,466.516 L480.46,527.193 C470.347,543.612 447.294,564.49 427.069,579.931 447.947,568.296 518.736,529.694 561.687,519.581z"/>
      </g>
      <g id="drawingObject63">
        <path id="path19" fill="#808B8D" fill-opacity="1" d="M412.824,598.09 C444.576,607.659 481.112,604.18 517.539,578.3 545.485,558.401 558.316,538.066 561.687,519.581 518.736,529.694 447.947,568.296 427.069,579.931 L420.001,585.368 C418.478,587.76 415.977,592.11 412.824,598.09z"/>
      </g>
      <g id="drawingObject64">
        <path id="path20" fill="#3A3F3F" fill-opacity="1" d="M510.798,451.728 L500.794,451.075 C479.59,522.082 375.418,563.729 362.261,569.274 Q381.725,586.781 404.995,595.48 C514.386,530.02 510.798,451.728 510.798,451.728z"/>
      </g>
      <g id="drawingObject65">
        <path id="path21" fill="#3A3F3F" fill-opacity="1" d="M483.178,450.641 C476.98,461.406 468.716,473.911 440.552,490.656 Q421.741,501.856 394.556,510.229 361.282,520.451 331.596,520.559 C335.185,529.911 339.317,538.828 343.992,546.766 363.022,541.981 457.298,521.864 492.856,450.858 492.856,450.858 485.135,450.423 483.178,450.641z"/>
      </g>
    </g>
  </g>
</svg>