<?xml version="1.0" encoding="utf-8"?>
<!-- Generator: flash2svg, http://dissentgraphics.com/tools/flash2svg -->
<svg id="APP" image-rendering="optimizeSpeed" baseProfile="basic" version="1.1" style="background-color:#FFFFFF" x="0px" y="0px" width="1024px" height="1024px" viewBox="0 0 1024 1024" enable-background="new 0 0 1024 1024" xmlns="http://www.w3.org/2000/svg" xmlns:xlink="http://www.w3.org/1999/xlink">
  <defs transform="matrix(1 0 0 1 0 0) "/>
  <g id="shadow">
    <g id="shape">
      <path id="path" fill="#000000" fill-opacity="0.09803921568627451" d="M969.6,351.25 Q961,330.4 950.2,310.4 C946.15,302.85 941.85,295.35 937.3,288 917.75,256.3 893.9,226.35 865.75,198.2 773.6,106.05 662.3,59.95 531.95,59.95 401.6,59.95 290.35,106.05 198.2,198.2 106.05,290.35 59.95,401.6 59.95,531.95 59.95,662.3 106.05,773.6 198.2,865.75 290.35,957.9 401.6,1003.95 531.95,1003.95 662.3,1003.95 773.6,957.9 865.75,865.75 916.5,814.95 953.3,758.35 976.1,696 994.65,645.15 1003.95,590.5 1003.95,531.95 1003.95,487.05 998.5,444.4 987.55,404 986.3,399.45 985,394.9 983.65,390.4 979.55,377.1 974.85,364.05 969.6,351.25z"/>
    </g>
  </g>
  <g id="bg">
    <g id="shape2">
      <path id="path1" fill="#5E7DB4" fill-opacity="1" d="M966.05,378.4 C963.55,369.65 960.7,360.8 957.6,352.05 951.15,333.8 943.45,316 934.45,298.4 930.65,291 926.5,283.45 922.15,276 901.85,241.5 876.35,208.8 845.8,178.25 773.2,105.65 688.65,61.6 592.15,46.2 575.9,43.6 559.35,41.8 542.1,40.85 532.4,40.3 522.25,40 512,40 502.65,40 493.4,40.25 484.1,40.75 365.75,46.85 263.8,92.7 178.25,178.25 Q40,316.5 40,512 C40,642.35 86.1,753.65 178.25,845.8 263.8,931.3 365.75,977.15 484.1,983.3 484.25,983.3 484.35,983.3 484.5,983.3 493,983.75 501.1,984 509,984 510.2,984 511.1,984 512,984 522.3,984 532.5,983.7 542.1,983.2 544.6,983.05 546.85,982.9 549.05,982.75 569.25,981.3 588.95,978.7 607.75,975.05 615.7,973.5 623.55,971.75 631.15,969.9 711.95,949.6 783.3,908.3 845.8,845.8 894.4,797.2 930.2,743.3 953.15,684 971.6,636.35 981.8,585.2 983.7,530.5 983.9,524.45 984,518.25 984,512 984,511.35 984,510.65 984,510 984,509.65 984,509.35 984,509 983.8,468.35 979.05,429.5 969.7,392 968.6,387.65 967.35,383 966.05,378.4z"/>
    </g>
  </g>
  <g id="inner">
    <g id="Symbole.__206_1" overflow="visible">
      <g id="Calque.__216">
        <g id="shape63">
          <path id="path71" fill="#000000" fill-opacity="0.2" d="M760.05,264 C691.55,195.55 608.85,161.3 512,161.3 415.15,161.3 332.45,195.55 264,264 195.55,332.45 161.3,415.15 161.3,512 161.3,608.85 195.55,691.55 264,760.05 332.45,828.5 415.15,862.75 512,862.75 608.85,862.75 691.55,828.5 760.05,760.05 Q862.75,657.3 862.75,512 C862.75,415.15 828.5,332.45 760.05,264z"/>
        </g>
      </g>
    </g>
  </g>
  <g id="Calque.__201">
    <g id="shape4">
      <path id="path2" fill="#000000" fill-opacity="0.2" d="M765,242.65 C765,229.3 758.35,222.65 745,222.65 L319,222.65 C305.65,222.65 299,229.3 299,242.65 L299,428.1 247.25,428.1 Q247.25,428.55 247.25,429 L247.25,795 C247.25,801.45 248.8,806.35 251.75,809.45 255.25,813.2 260.35,815 267.25,815 L796.75,815 C802.15,815 806.5,813.9 809.8,811.65 814.4,808.5 816.75,802.95 816.75,795 L816.75,429 C816.75,428.7 816.75,428.4 816.75,428.1 L765,428.1 765,242.65z"/>
    </g>
  </g>
  <g id="Calque.__202">
    <g id="Symbole.__208_1" overflow="visible">
      <g id="Calque.__217">
        <g id="Symbole.__212_2" overflow="visible">
          <g id="Calque.__218">
            <g id="shape64">
              <path id="path72" fill="#666666" fill-opacity="1" d="M227.25,408.1 Q227.25,408.55 227.25,409 L510.25,601.5 796.75,408.1 227.25,408.1z"/>
            </g>
          </g>
        </g>
        <g id="Symbole.__214_2" overflow="visible">
          <g id="Calque.__219">
            <g id="shape65">
              <path id="path73" fill="#FFFFFF" fill-opacity="1" d="M745,222.65 Q745,202.65 725,202.65 L299,202.65 C285.65,202.65 279,209.3 279,222.65 L279,603.6 C279,639.9 285.65,658.05 299,658.05 L725,658.05 C738.35,658.05 745,639.9 745,603.6 L745,222.65z M718.05,439 L308,439 308,423 718.05,423 718.05,439z M718.05,471.5 L308,471.5 308,455.5 718.05,455.5 718.05,471.5z M718.05,536.5 L308,536.5 308,520.5 718.05,520.5 718.05,536.5z M718.05,569 L308,569 308,553 718.05,553 718.05,569z M718.05,504 L308,504 308,488 718.05,488 718.05,504z M718.05,406.5 L308,406.5 308,390.5 718.05,390.5 718.05,406.5z M442,251.55 L308,251.55 308,235.55 442,235.55 442,251.55z M490,374 L308,374 308,358 490,358 490,374z M394,284 L308,284 308,268 394,268 394,284z M308,601.5 L308,585.5 718.05,585.5 718.05,601.5 308,601.5z"/>
              <path id="path74" fill="#EBEFF0" fill-opacity="1" d="M718.05,439 L718.05,423 308,423 308,439 718.05,439z"/>
              <path id="path75" fill="#EBEFF0" fill-opacity="1" d="M718.05,471.5 L718.05,455.5 308,455.5 308,471.5 718.05,471.5z"/>
              <path id="path76" fill="#EBEFF0" fill-opacity="1" d="M718.05,536.5 L718.05,520.5 308,520.5 308,536.5 718.05,536.5z"/>
              <path id="path77" fill="#EBEFF0" fill-opacity="1" d="M718.05,569 L718.05,553 308,553 308,569 718.05,569z"/>
              <path id="path78" fill="#EBEFF0" fill-opacity="1" d="M718.05,504 L718.05,488 308,488 308,504 718.05,504z"/>
              <path id="path79" fill="#EBEFF0" fill-opacity="1" d="M718.05,406.5 L718.05,390.5 308,390.5 308,406.5 718.05,406.5z"/>
              <path id="path80" fill="#EBEFF0" fill-opacity="1" d="M442,251.55 L442,235.55 308,235.55 308,251.55 442,251.55z"/>
              <path id="path81" fill="#EBEFF0" fill-opacity="1" d="M490,374 L490,358 308,358 308,374 490,374z"/>
              <path id="path82" fill="#EBEFF0" fill-opacity="1" d="M394,284 L394,268 308,268 308,284 394,284z"/>
              <path id="path83" fill="#EBEFF0" fill-opacity="1" d="M308,601.5 L718.05,601.5 718.05,585.5 308,585.5 308,601.5z"/>
            </g>
          </g>
        </g>
        <g id="Symbole.__216_2" overflow="visible">
          <g id="Calque.__220">
            <g id="shape66">
              <path id="path84" fill="#CAC8BB" fill-opacity="1" d="M796.75,409 Q796.75,408.55 796.75,408.1 L510.25,601.5 789.8,791.65 C794.4,788.5 796.75,782.95 796.75,775 L796.75,409z"/>
              <path id="path85" fill="#E4E2D4" fill-opacity="1" d="M776.75,795 C782.15,795 786.5,793.9 789.8,791.65 L510.25,601.5 227.25,409 227.25,775 C227.25,781.45 228.8,786.35 231.75,789.45 235.25,793.2 240.35,795 247.25,795 L776.75,795z"/>
            </g>
          </g>
        </g>
      </g>
    </g>
  </g>
  <g id="Calque.__203">
    <g id="Symbole.__210_1" overflow="visible">
      <g id="Calque.__221">
        <g id="shape67">
          <path id="path86" fill="#000000" fill-opacity="0.2" d="M871.3,336.05 C874.15,329.85 872.8,325.4 867.2,322.85 L781.3,283.65 C775.7,281.15 771.5,283 768.65,289.2 L592.45,675.7 C591.6,677.7 591.1,679.5 591.05,681.1 591.1,681.35 591.05,681.7 591.05,682 591.05,682.2 591.1,682.35 591.15,682.45 591.3,683.8 591.8,685 592.6,686.05 L615.9,761.2 689.25,728.9 Q689.85,728.65 690.45,728.35 C691.35,727.85 692.15,727.15 692.95,726.2 693.7,725.3 694.45,724.05 695.1,722.55 L871.3,336.05z"/>
        </g>
      </g>
      <g id="Calque.__222">
        <g id="Symbole.__218_2" overflow="visible">
          <g id="Calque.__223">
            <g id="shape68">
              <path id="path87" fill="#77B4BE" fill-opacity="1" d="M846,357.75 L861.3,324.05 C864.15,317.85 862.8,313.4 857.2,310.85 L771.3,271.65 C765.7,269.15 761.5,271 758.65,277.2 L743.35,310.95 778.25,326.85 812.95,342.65 846,357.75z"/>
              <path id="path88" fill="#717171" fill-opacity="1" d="M770.55,343.65 L778.25,326.85 743.35,310.95 735.65,327.75 770.55,343.65z"/>
              <path id="path89" fill="#666666" fill-opacity="1" d="M778.25,326.85 L770.55,343.65 805.25,359.45 812.95,342.65 778.25,326.85z"/>
              <path id="path90" fill="#515151" fill-opacity="1" d="M812.95,342.65 L805.25,359.45 838.3,374.6 846,357.75 812.95,342.65z"/>
              <path id="path91" fill="#D55240" fill-opacity="1" d="M805.25,359.45 L770.55,343.65 613.55,688.2 613.15,689 613.2,689.05 613.3,689.1 C613.35,688.95 613.35,688.9 613.4,688.75 614.1,687.85 614.75,687.15 615.5,686.45 617.35,684.85 619.45,683.6 621.85,682.7 627,680.8 632.05,681 637,683.25 641.95,685.55 645.35,689.15 647.25,694.25 648.35,697.05 648.75,699.9 648.55,702.75 648.5,702.95 648.5,703.25 648.5,703.45 648.45,703.5 648.45,703.5 648.4,703.55 L648.45,703.55 648.55,703.4 805.25,359.45z"/>
              <path id="path92" fill="#C63E2F" fill-opacity="1" d="M838.3,374.6 L805.25,359.45 648.55,703.4 C649,702.85 649.5,702.35 650,701.9 651.8,700.3 653.9,698.95 656.4,698 661.4,696.2 666.5,696.4 671.45,698.65 676.4,700.9 679.8,704.55 681.75,709.6 682.3,711.25 682.7,712.8 682.95,714.2 683.7,713.3 684.45,712.05 685.1,710.55 L838.3,374.6z"/>
              <path id="path93" fill="#F05D4B" fill-opacity="1" d="M735.65,327.75 L582.45,663.7 C581.6,665.7 581.1,667.5 581.05,669.1 581.1,669.35 581.05,669.7 581.05,670 582.8,668.55 584.75,667.35 587.15,666.45 592.15,664.6 597.2,664.75 602.15,667.05 607.1,669.3 610.5,673 612.5,678.05 613.55,680.85 614,683.7 613.7,686.6 613.7,687.05 613.65,687.65 613.55,688.2 L770.55,343.65 735.65,327.75z"/>
              <path id="path94" fill="#F4D17F" fill-opacity="1" d="M681.75,709.6 C679.8,704.55 676.4,700.9 671.45,698.65 666.5,696.4 661.4,696.2 656.4,698 653.9,698.95 651.8,700.3 650,701.9 649.5,702.35 649,702.85 648.55,703.4 L648.45,703.55 648.4,703.55 C648.45,703.5 648.45,703.5 648.5,703.45 648.5,703.25 648.5,702.95 648.55,702.75 648.75,699.9 648.35,697.05 647.25,694.25 645.35,689.15 641.95,685.55 637,683.25 632.05,681 627,680.8 621.85,682.7 619.45,683.6 617.35,684.85 615.5,686.45 614.75,687.15 614.1,687.85 613.4,688.75 613.35,688.9 613.35,688.95 613.3,689.1 L613.2,689.05 613.15,689 613.55,688.2 C613.65,687.65 613.7,687.05 613.7,686.6 614,683.7 613.55,680.85 612.5,678.05 610.5,673 607.1,669.3 602.15,667.05 597.2,664.75 592.15,664.6 587.15,666.45 584.75,667.35 582.8,668.55 581.05,670 581.05,670.2 581.1,670.35 581.15,670.45 581.3,671.8 581.8,673 582.6,674.05 L598.65,725.9 C603.65,726.3 608.85,727.75 614.2,730.25 619.7,732.7 624.3,735.8 628,739.45 L679.25,716.9 Q679.85,716.65 680.45,716.35 C681.35,715.85 682.15,715.15 682.95,714.2 682.7,712.8 682.3,711.25 681.75,709.6z"/>
              <path id="path95" fill="#333333" fill-opacity="1" d="M598.65,725.9 L605.9,749.2 628,739.45 C624.3,735.8 619.7,732.7 614.2,730.25 608.85,727.75 603.65,726.3 598.65,725.9z"/>
            </g>
          </g>
        </g>
      </g>
    </g>
  </g>
</svg>