<?xml version="1.0" encoding="utf-8"?>
<!-- Generator: flash2svg, http://dissentgraphics.com/tools/flash2svg -->
<svg xmlns:xlink="http://www.w3.org/1999/xlink" id="ADOBEILLUSTRATOR-Alt" image-rendering="optimizeSpeed" baseProfile="basic" version="1.1" style="background-color:#ffffff" x="0px" y="0px" width="1024px" height="1024px" viewBox="0 0 1024 1024" enable-background="new 0 0 1024 1024" xmlns="http://www.w3.org/2000/svg">
  <defs transform="matrix(1 0 0 1 0 0) "/>
  <g id="shadow">
    <g id="shape">
      <path id="path" fill="#000000" fill-opacity="0.09803921568627451" d="M965.65,351.3 Q957.05,330.45 946.25,310.45 C942.2,302.9 937.9,295.4 933.35,288.05 913.8,256.35 889.95,226.4 861.8,198.25 769.65,106.1 658.35,60 528,60 397.65,60 286.4,106.1 194.25,198.25 102.1,290.4 56,401.65 56,532 56,662.35 102.1,773.65 194.25,865.8 286.4,957.95 397.65,1004 528,1004 658.35,1004 769.65,957.95 861.8,865.8 912.55,815 949.35,758.4 972.15,696.05 990.7,645.2 1000,590.55 1000,532 1000,487.1 994.55,444.45 983.6,404.05 982.35,399.5 981.05,394.95 979.7,390.45 975.6,377.15 970.9,364.1 965.65,351.3z"/>
    </g>
  </g>
  <g id="Calque.__205">
    <g id="shape2">
      <path id="path1" fill="#CBA600" fill-opacity="1" d="M952.45,678.5 Q981.75,600.7 981.75,510.75 C981.75,380.6 935.75,269.55 843.75,177.5 751.7,85.45 640.6,39.45 510.45,39.45 380.3,39.45 269.25,85.45 177.2,177.5 85.15,269.55 39.15,380.6 39.15,510.75 39.15,640.9 85.15,752 177.2,844.05 269.25,936.05 380.3,982.05 510.45,982.05 513.65,982.05 516.85,982.05 520,982 L519.975,981.975 L264.05,726.05 528.05,254.1 952.45,678.5z"/>
      <path id="path2" fill="#A28400" fill-opacity="1" d="M528.05,254.1 L264.05,726.05 519.975,981.975 L520,982 C646.05,979.75 754,933.8 843.75,844.05 893.35,794.4 929.6,739.25 952.45,678.5 L528.05,254.1z"/>
    </g>
    <g id="drawingObject">
      <path id="path3" fill="#FFFFFF" fill-opacity="1" d="M528.379,251.245 L425.08,251.245 265.071,726.211 362.27,726.211 396.53,620.966 552.386,620.966 585.997,726.211 682.937,726.211 528.379,251.245z M530.844,540.507 L420.668,540.507 477.638,370.765 530.844,540.507z"/>
    </g>
    <g id="drawingObject1">
      <path id="path7" fill="#FFFFFF" fill-opacity="1" d="M710.997,445.151 C704.768,445.151 701.654,448.525 701.654,455.144 L701.654,489.533 C701.654,492.388 702.432,494.595 704.119,496.282 705.806,497.709 708.012,498.488 710.997,498.488 L751.875,498.488 C757.585,498.488 760.44,495.503 760.44,489.533 L760.44,455.144 Q760.44,445.151 751.875,445.151 L710.997,445.151z M758.104,520.419 L703.6,520.419 703.6,727.017 758.104,727.017 758.104,520.419z"/>
    </g>
  </g>
</svg>