<?xml version="1.0" encoding="utf-8"?>
<!-- Generator: flash2svg, http://dissentgraphics.com/tools/flash2svg -->
<svg xmlns:xlink="http://www.w3.org/1999/xlink" id="Batman" image-rendering="optimizeSpeed" baseProfile="basic" version="1.1" style="background-color:#ffffff" x="0px" y="0px" width="1024px" height="1024px" viewBox="0 0 1024 1024" enable-background="new 0 0 1024 1024" xmlns="http://www.w3.org/2000/svg">
  <defs transform="matrix(1 0 0 1 0 0) "/>
  <g id="shadow">
    <g id="shape">
      <path id="path" fill="#000000" fill-opacity="0.09803921568627451" d="M1003.55,100.55 C1003.55,89.5 999.65,80.1 991.8,72.25 Q980.1,60.55 963.55,60.55 L100.55,60.55 C89.5,60.55 80.1,64.45 72.25,72.25 64.45,80.1 60.55,89.5 60.55,100.55 L60.55,963.55 C60.55,974.6 64.45,984 72.25,991.8 80.1,999.65 89.5,1003.55 100.55,1003.55 L963.55,1003.55 C974.6,1003.55 984,999.65 991.8,991.8 999.65,984 1003.55,974.6 1003.55,963.55 L1003.55,100.55z"/>
    </g>
  </g>
  <g id="bg">
    <g id="shape2">
      <path id="path1" fill="#5B5B5B" fill-opacity="1" d="M971.8,52.25 Q960.1,40.55 943.55,40.55 L80.55,40.55 C69.5,40.55 60.1,44.45 52.25,52.25 44.45,60.1 40.55,69.5 40.55,80.55 L40.55,943.55 C40.55,954.6 44.45,964 52.25,971.8 60.1,979.65 69.5,983.55 80.55,983.55 L943.55,983.55 C954.6,983.55 964,979.65 971.8,971.8 979.65,964 983.55,954.6 983.55,943.55 L983.55,80.55 C983.55,69.5 979.65,60.1 971.8,52.25z"/>
    </g>
  </g>
  <g id="Calque.__207">
    <g id="shape4">
      <path id="path2" fill="#F4E15B" fill-opacity="1" d="M911.05,128.05 Q911.05,108.05 891.05,108.05 L132.05,108.05 C118.7,108.05 112.05,114.7 112.05,128.05 L112.05,887.05 C112.05,900.4 118.7,907.05 132.05,907.05 L891.05,907.05 C904.4,907.05 911.05,900.4 911.05,887.05 L911.05,128.05z"/>
    </g>
  </g>
  <g id="bg1">
    <g id="shape6">
      <path id="path3" fill="#494949" fill-opacity="1" d="M122.55,658.975 Q122.751,659.513 122.95,660.05 L127.575,660.05 L127.6,660.05 C125.6,660 123.9,659.65 122.55,659 M392.55,433.05 L369.65,433.05 C363,433.05 359.65,436.4 359.65,443.05 360.55,474.65 360.8,505.3 360.35,535.05 L382.55,535.55 C389.2,535.55 392.55,532.2 392.55,525.55 L392.55,433.05z"/>
    </g>
  </g>
  <g id="bg2">
    <g id="shape10">
      <path id="path6" fill="#000000" fill-opacity="0.2980392156862745" d="M899.95,663.3 Q906.453,646.523 911.4,629.1 L911.4,432.1 625.35,146.05 590.15,337.4 398.8,146.05 360.425,825.25 784.65,825.25 C791.75,818.95 798.7,812.4 805.55,805.55 848.25,762.8 879.7,715.4 899.95,663.3z"/>
    </g>
  </g>
  <mask id="bg3">
    <g id="g">
      <g id="shape14">
        <path id="path8" fill="#FFFFFF" fill-opacity="1" d="M911.05,128.05 Q911.05,108.05 891.05,108.05 L132.05,108.05 C118.7,108.05 112.05,114.7 112.05,128.05 L112.05,887.05 C112.05,900.4 118.7,907.05 132.05,907.05 L891.05,907.05 C904.4,907.05 911.05,900.4 911.05,887.05 L911.05,128.05z"/>
      </g>
    </g>
  </mask>
  <g id="masked" mask="url(#bg3)">
    <g id="Calque.__208">
      <g id="shape12">
        <path id="path7" fill="#333333" fill-opacity="1" d="M663.8,473.15 Q665.35,461.9 665.35,450.05 C665.35,436.4 663.8,423.4 660.75,411.05 L625.35,146.05 582.35,312.3 C561.35,301.1 538.1,295.35 512.55,295.05 512.4,295.05 512.25,295.05 512.1,295.05 511.95,295.05 511.75,295.05 511.6,295.05 486.05,295.35 462.8,301.1 441.8,312.3 L398.8,146.05 363.4,411.05 C360.35,423.4 358.95,434.6 359.2,444.6 359.45,454.6 359.85,464.1 360.35,473.15 L360.35,561.05 C231.4,589.25 134.75,612.35 70.4,630.4 L70.4,938.05 953.75,938.05 953.75,630.4 C889.4,612.35 792.75,589.25 663.8,561.05 L663.8,473.15z"/>
      </g>
    </g>
  </g>
</svg>