<?xml version="1.0" encoding="utf-8"?>
<!-- Generator: flash2svg, http://dissentgraphics.com/tools/flash2svg -->
<svg xmlns:xlink="http://www.w3.org/1999/xlink" id="Limbo" image-rendering="optimizeSpeed" baseProfile="basic" version="1.1" style="background-color:#ffffff" x="0px" y="0px" width="1024px" height="1024px" viewBox="0 0 1024 1024" enable-background="new 0 0 1024 1024" xmlns="http://www.w3.org/2000/svg">
  <defs transform="matrix(1 0 0 1 0 0) "/>
  <g id="shadow">
    <g id="shape">
      <path id="path" fill="#000000" fill-opacity="0.09803921568627451" d="M969.65,351.3 Q961.05,330.45 950.25,310.45 C946.2,302.9 941.9,295.4 937.35,288.05 917.8,256.35 893.95,226.4 865.8,198.25 773.65,106.1 662.35,60 532,60 401.65,60 290.4,106.1 198.25,198.25 106.1,290.4 60,401.65 60,532 60,662.35 106.1,773.65 198.25,865.8 290.4,957.95 401.65,1004 532,1004 662.35,1004 773.65,957.95 865.8,865.8 916.55,815 953.35,758.4 976.15,696.05 994.7,645.2 1004,590.55 1004,532 1004,487.1 998.55,444.45 987.6,404.05 986.35,399.5 985.05,394.95 983.7,390.45 979.6,377.15 974.9,364.1 969.65,351.3z"/>
    </g>
  </g>
  <g id="bg">
    <g id="shape2">
      <path id="path1" fill="#666666" fill-opacity="1" d="M962.95,367.95 C961.35,362.8 959.55,357.45 957.65,352.1 951.2,333.85 943.5,316.05 934.5,298.45 930.7,291.05 926.55,283.5 922.2,276.05 901.9,241.55 876.4,208.85 845.85,178.3 773.25,105.7 688.7,61.65 592.2,46.25 575.95,43.65 559.4,41.85 542.15,40.9 532.45,40.35 522.3,40.05 512.05,40.05 502.7,40.05 493.45,40.3 484.15,40.8 365.8,46.9 263.85,92.75 178.3,178.3 Q40.05,316.55 40.05,512.05 C40.05,642.4 86.15,753.7 178.3,845.85 235,902.5 298.85,941.75 369.4,963.4 406.15,974.65 444.2,981.25 484.15,983.35 484.3,983.35 484.4,983.35 484.55,983.35 493.05,983.8 501.15,984.05 509.05,984.05 510.25,984.05 511.15,984.05 512.05,984.05 522.35,984.05 532.55,983.75 542.15,983.25 544.65,983.1 546.9,982.95 549.1,982.8 569.3,981.35 589,978.75 607.8,975.1 615.75,973.55 623.6,971.8 631.2,969.95 712,949.65 783.35,908.35 845.85,845.85 894.45,797.25 930.25,743.35 953.2,684.05 971.65,636.4 981.85,585.25 983.75,530.55 983.95,524.5 984.05,518.3 984.05,512.05 984.05,511.4 984.05,510.7 984.05,510.05 984.05,509.7 984.05,509.4 984.05,509.05 983.85,468.4 979.1,429.55 969.75,392.05 968.65,387.7 967.4,383.05 966.1,378.45 965.1,375.05 964.1,371.6 962.95,367.95z"/>
    </g>
  </g>
  <g id="bg1">
    <g id="shape4">
      <path id="path2" fill="#000000" fill-opacity="0.2" d="M983.1,544.1 L733.05,294.05 214.05,717.05 480.125,983.125 L480.15,983.15 C481.85,983.25 483,983.3 484.15,983.35 484.3,983.35 484.4,983.35 484.55,983.35 493.05,983.8 501.15,984.05 509.05,984.05 Q510.55,984.05 512.05,984.05 C522.35,984.05 532.55,983.75 542.15,983.25 544.65,983.1 546.9,982.95 549.1,982.8 569.3,981.35 589,978.75 607.8,975.1 615.75,973.55 623.6,971.8 631.2,969.95 712,949.65 783.35,908.35 845.85,845.85 894.45,797.25 930.25,743.35 953.2,684.05 970.1,640.4 980.1,593.8 983.1,544.1z"/>
    </g>
  </g>
  <mask id="bg2">
    <g id="g">
      <g id="shape6">
        <path id="path3" fill="#FFFFFF" fill-opacity="1" d="M962.95,367.95 C961.35,362.8 959.55,357.45 957.65,352.1 951.2,333.85 943.5,316.05 934.5,298.45 930.7,291.05 926.55,283.5 922.2,276.05 901.9,241.55 876.4,208.85 845.85,178.3 773.25,105.7 688.7,61.65 592.2,46.25 575.95,43.65 559.4,41.85 542.15,40.9 532.45,40.35 522.3,40.05 512.05,40.05 502.7,40.05 493.45,40.3 484.15,40.8 365.8,46.9 263.85,92.75 178.3,178.3 Q40.05,316.55 40.05,512.05 C40.05,642.4 86.15,753.7 178.3,845.85 235,902.5 298.85,941.75 369.4,963.4 406.15,974.65 444.2,981.25 484.15,983.35 484.3,983.35 484.4,983.35 484.55,983.35 493.05,983.8 501.15,984.05 509.05,984.05 510.25,984.05 511.15,984.05 512.05,984.05 522.35,984.05 532.55,983.75 542.15,983.25 544.65,983.1 546.9,982.95 549.1,982.8 569.3,981.35 589,978.75 607.8,975.1 615.75,973.55 623.6,971.8 631.2,969.95 712,949.65 783.35,908.35 845.85,845.85 894.45,797.25 930.25,743.35 953.2,684.05 971.65,636.4 981.85,585.25 983.75,530.55 983.95,524.5 984.05,518.3 984.05,512.05 984.05,511.4 984.05,510.7 984.05,510.05 984.05,509.7 984.05,509.4 984.05,509.05 983.85,468.4 979.1,429.55 969.75,392.05 968.65,387.7 967.4,383.05 966.1,378.45 965.1,375.05 964.1,371.6 962.95,367.95z"/>
      </g>
    </g>
  </mask>
  <g id="masked" mask="url(#bg2)">
    <g id="Calque.__204">
      <g id="Symbole.__2036_1" overflow="visible">
        <g id="Calque.__208">
          <g id="shape15">
            <path id="path9" fill="#333333" fill-opacity="1" d="M687.425,277.834 C692.122,275.724 696.58,273.137 700.799,270.072 Q703.625,268.002 704.262,264.659 C704.66,262.39 704.222,260.32 702.989,258.37 701.715,256.42 699.964,255.225 697.735,254.708 L630.069,239.065 C629.87,239.025 629.671,238.986 629.512,238.946 609.093,235.563 591.101,235.602 575.499,239.025 576.971,234.369 578.006,229.353 578.563,223.94 578.762,222.109 578.404,220.398 577.489,218.766 576.573,217.134 575.26,215.979 573.588,215.223 571.876,214.427 570.125,214.228 568.334,214.586 514.281,225.333 472.09,240.817 441.759,261.077 441.919,255.862 441.282,250.489 439.809,244.996 439.371,243.364 438.496,241.971 437.262,240.817 435.948,239.662 434.475,238.946 432.804,238.707 431.092,238.428 429.5,238.667 427.948,239.384 376.402,262.748 332.38,288.979 295.88,318.075 295.84,315.209 295.562,312.343 295.084,309.438 294.806,307.607 294.01,306.054 292.696,304.741 291.382,303.427 289.79,302.631 287.999,302.353 286.168,302.074 284.417,302.313 282.785,303.149 252.654,318.154 232.553,334.912 222.563,353.46 215.517,353.659 207.119,356.286 197.447,361.341 197.407,361.381 197.327,361.381 197.248,361.421 166.798,378.098 146.061,407.473 134.995,449.545 134.955,449.824 134.876,450.063 134.836,450.301 132.209,465.666 133.125,477.646 137.582,486.244 125.841,493.846 119.353,506.305 118.039,523.54 117.88,525.45 118.318,527.241 119.392,528.873 120.467,530.505 121.9,531.62 123.731,532.296 125.522,532.933 127.353,532.973 129.224,532.376 L134.279,530.784 C132.886,552.238 135.154,574.01 141.165,596.101 147.295,618.829 157.126,641.039 170.659,662.732 L170.659,662.692 C182.162,681.201 195.297,697.759 210.144,712.367 L210.104,712.367 C223.677,725.78 235.976,735.134 247.002,740.468 295.761,764.31 332.977,785.485 358.65,803.914 380.98,819.955 393.12,832.811 395.03,842.523 L395.03,855.857 C383.925,864.813 373.497,875.918 363.745,889.173 335.047,928.061 320.28,975.665 319.444,1031.908 319.404,1090.339 334.171,1139.615 363.745,1179.697 394.035,1220.973 430.694,1241.472 473.682,1241.273 516.669,1241.472 553.328,1220.973 583.618,1179.697 613.192,1139.615 627.959,1091.175 627.959,1034.455 627.959,977.735 613.192,929.295 583.618,889.173 571.797,873.092 558.98,860.196 545.168,850.444 L545.168,809.089 C555.716,792.093 587.042,770.519 639.144,744.408 686.231,723.352 698.093,668.583 674.649,580.1 L634.049,431.435 C659.484,413.006 680.221,388.447 696.262,357.799 697.177,356.007 697.456,354.097 697.058,352.107 696.62,350.117 695.625,348.485 694.073,347.171 693.953,347.091 693.834,347.012 693.714,346.932 711.228,336.782 726.313,324.244 738.971,309.239 740.125,307.845 740.802,306.213 740.961,304.422 741.12,302.631 740.762,300.92 739.846,299.367 738.931,297.775 737.617,296.621 735.986,295.865 720.582,288.819 704.421,282.809 687.425,277.834z"/>
          </g>
          <g id="Symbole.__2038_2" overflow="visible">
            <g id="Calque.__209">
              <g id="shape16">
                <path id="path10" fill="#FFFFFF" fill-opacity="1" d="M597.867,536.812 Q597.867,544.971 603.639,550.743 C607.5,554.604 612.117,556.514 617.57,556.514 623.023,556.514 627.64,554.604 631.501,550.743 635.362,546.882 637.273,542.265 637.273,536.812 637.273,531.359 635.362,526.742 631.501,522.881 627.64,519.02 623.023,517.109 617.57,517.109 612.117,517.109 607.5,519.02 603.639,522.881 599.778,526.742 597.867,531.359 597.867,536.812z M494.498,599.9 C498.439,595.999 500.389,591.263 500.389,585.73 500.389,580.197 498.439,575.461 494.498,571.52 490.597,567.62 485.861,565.669 480.328,565.669 474.795,565.669 470.059,567.62 466.118,571.52 462.218,575.461 460.267,580.197 460.267,585.73 460.267,591.263 462.218,595.999 466.118,599.9 470.059,603.841 474.795,605.791 480.328,605.791 485.861,605.791 490.597,603.841 494.498,599.9z"/>
              </g>
            </g>
          </g>
        </g>
      </g>
    </g>
  </g>
</svg>