
<svg xmlns="http://www.w3.org/2000/svg" version="1.1" xmlns:xlink="http://www.w3.org/1999/xlink" preserveAspectRatio="none" x="0px" y="0px" width="1024px" height="1024px" viewBox="0 0 1024 1024">
<defs>
<g id="Layer6_0_FILL">
<path fill="#000000" fill-opacity="0.09803921568627451" stroke="none" d="
M 969.6 351.25
Q 961 330.4 950.2 310.4 944.1 299.05 937.3 288 907.95 240.45 865.75 198.2 727.5 59.95 531.95 59.95 336.45 59.95 198.2 198.2 59.95 336.45 59.95 531.95 59.95 727.5 198.2 865.75 336.45 1003.95 531.95 1003.95 727.5 1003.95 865.75 865.75 941.9 789.55 976.1 696 1003.95 619.75 1003.95 531.95 1003.95 464.6 987.55 404 985.7 397.15 983.65 390.4 977.5 370.45 969.6 351.25 Z"/>
</g>

<g id="Layer5_0_FILL">
<path fill="#7B6246" stroke="none" d="
M 962.85 367.85
Q 960.3787109375 359.903125 957.6 352.05 947.85 324.5 934.45 298.4 928.65 287.05 922.15 276 891.5 224 845.8 178.25 736.8 69.25 592.15 46.2 567.65 42.3 542.1 40.85 527.2 40 512 40 497.9 40 484.1 40.75 306.55 49.95 178.25 178.25 40 316.5 40 512 40 707.55 178.25 845.8 263.0400390625 930.55703125 369.35 963.35 423.8880859375 980.1630859375 484.1 983.3 484.3 983.3 484.5 983.3 496.65 983.9 509 984 510.5 984 512 984 527.25 984 542.1 983.2 545.6 983 549.05 982.75 579.1 980.6 607.75 975.05 619.55 972.75 631.15 969.9 751.75 939.85 845.8 845.8 918.7 772.85 953.15 684 980.9 612.4 983.7 530.5 984 521.3 984 512 984 511 984 510 984 509.5 984 509 983.65 447.7 969.7 392 967.95 385.15 966.05 378.4 964.52578125 373.114453125 962.85 367.85 Z"/>
</g>

<g id="Layer4_0_FILL">
<path fill="#FFFFFF" stroke="none" d="
M 708.55 325.4
L 703.25 320
Q 623.95 241 512 241 455.7791015625 241 407.8 260.9 360.0072265625 280.7677734375 320.4 320.4 241 399.75 241 512 241 524.2 241.95 536.05 248.3 616.1 297.8 678.35 303.95 686.15 310.85 693.65 315.45 698.7 320.4 703.65 399.75 783 512 783 624.25 783 703.65 703.65 715.9 691.4 726.25 678.4 731.7 671.5 736.65 664.45 776.3 607.4 782.05 536.35 782.05 536.2 782.05 536.05 783 524.2 783 512 783 403.25 708.55 325.4 Z"/>

<path fill="#000000" fill-opacity="0.2" stroke="none" d="
M 783 512
Q 783 524.2 782.05 536.05 782.05 536.2 782.05 536.35 774.35 697.4 828.05 747.15
L 829.15 748.15
Q 829.55 748.5 830 748.9 842.3 759.8 854.15 771.65 869.8 787.3 883.7 803.65 928.35 747.9 953.15 684 969.8 641 977.5 594.25
L 708.55 325.4
Q 783 403.25 783 512 Z"/>

<path fill="#F1F1F1" stroke="none" d="
M 726.25 678.4
Q 715.9 691.4 703.65 703.65 624.25 783 512 783 399.75 783 320.4 703.65 315.45 698.7 310.85 693.65 303.95 686.15 297.8 678.35 248.3 616.1 241.95 536.05 249.7 697.35 195.95 747.15
L 194.85 748.15
Q 194.45 748.5 194 748.9 181.7 759.8 169.85 771.65 154.25 787.25 140.35 803.6 157.8 825.35 178.25 845.8 263.05 930.55 369.35 963.35 423.9 980.15 484.1 983.3 484.3 983.3 484.5 983.3 496.65 983.9 509 984 510.5 984 512 984 527.25 984 542.1 983.2 545.6 983 549.05 982.75 579.1 980.6 607.75 975.05 619.55 972.75 631.15 969.9 751.75 939.85 845.8 845.8 866.25 825.35 883.7 803.65 869.8 787.3 854.15 771.65 842.3 759.8 830 748.9 829.55 748.5 829.15 748.15
L 828.05 747.15
Q 774.35 697.4 782.05 536.35 776.3 607.4 736.65 664.45 731.7 671.5 726.25 678.4 Z"/>
</g>

<g id="Symbol_2_0_Layer0_0_FILL">
<path fill="#333333" stroke="none" d="
M 25.75 -25.8
Q 15.1 -36.5 0 -36.5 -15.15 -36.5 -25.85 -25.8 -36.5 -15.1 -36.5 0 -36.5 15.1 -25.85 25.8 -15.15 36.5 0 36.5 15.1 36.5 25.75 25.8 36.5 15.1 36.5 0 36.5 -15.1 25.75 -25.8
M -11.3 -22.9
Q -5.45 -22.9 -1.3 -18.8 2.85 -14.65 2.85 -8.8 2.85 -2.95 -1.3 1.2 -5.45 5.35 -11.3 5.35 -17.15 5.35 -21.3 1.2 -25.45 -2.95 -25.45 -8.8 -25.45 -14.65 -21.3 -18.8 -17.15 -22.9 -11.3 -22.9 Z"/>

<path fill="#FFFFFF" stroke="none" d="
M -1.3 -18.8
Q -5.45 -22.9 -11.3 -22.9 -17.15 -22.9 -21.3 -18.8 -25.45 -14.65 -25.45 -8.8 -25.45 -2.95 -21.3 1.2 -17.15 5.35 -11.3 5.35 -5.45 5.35 -1.3 1.2 2.85 -2.95 2.85 -8.8 2.85 -14.65 -1.3 -18.8 Z"/>
</g>

<g id="Layer2_0_FILL">
<path fill="#E54D42" stroke="none" d="
M 566.3 166.05
Q 554.2 178.15 554 195.25 553.85 178.15 541.7 166.05 529.4 153.75 512 153.75 494.6 153.75 482.3 166.05 470.2 178.15 470 195.25 469.85 178.15 457.7 166.05 445.4 153.75 428 153.75 410.6 153.75 398.3 166.05 386 178.35 386 195.75 386 210.75 395.2 222
L 512 373.75 628.5 222.45
Q 628.65 222.2 628.8 222 638 210.8 638 195.75 638 178.35 625.7 166.05 613.4 153.75 596 153.75 578.6 153.75 566.3 166.05 Z"/>
</g>

<g id="Layer1_0_FILL">
<path fill="#E54D42" stroke="none" d="
M 429 616.55
Q 422.7 627.8 422.65 641.85 422.65 662.2 435.85 676.55 449.05 690.9 467.75 690.9 486.45 690.9 499.65 676.55
L 499.7 676.5
Q 510.25 665.05 512.35 649.75 514.45 665.05 525.05 676.5
L 525.05 676.55
Q 538.25 690.9 556.9 690.9 575.65 690.9 588.85 676.55 602 662.2 602 641.85 602 627.8 595.7 616.55
L 584.4 585.6 440.3 585.6 429 616.55 Z"/>
</g>

<g id="Layer0_0_FILL">
<path fill="#EFC230" stroke="none" d="
M 580.4 586
Q 514.29453125 551.57890625 443.6 586
L 512 678.4 580.4 586 Z"/>
</g>

<path id="Layer0_0_1_STROKES" stroke="#EFC230" stroke-width="18" stroke-linejoin="round" stroke-linecap="round" fill="none" d="
M 512 678.4
L 443.6 586
Q 514.29453125 551.57890625 580.4 586
L 512 678.4 Z"/>
</defs>

<g transform="matrix( 1, 0, 0, 1, 0,0) ">
<use xlink:href="#Layer6_0_FILL"/>
</g>

<g transform="matrix( 1, 0, 0, 1, 0,0) ">
<use xlink:href="#Layer5_0_FILL"/>
</g>

<g transform="matrix( 1, 0, 0, 1, 0,0) ">
<use xlink:href="#Layer4_0_FILL"/>
</g>

<g transform="matrix( 1, 0, 0, 1, 411.15,497.5) ">
<g transform="matrix( 1, 0, 0, 1, 0,0) ">
<use xlink:href="#Symbol_2_0_Layer0_0_FILL"/>
</g>
</g>

<g transform="matrix( 1, 0, 0, 1, 611.6,497.5) ">
<g transform="matrix( 1, 0, 0, 1, 0,0) ">
<use xlink:href="#Symbol_2_0_Layer0_0_FILL"/>
</g>
</g>

<g transform="matrix( 1, 0, 0, 1, 0,0) ">
<use xlink:href="#Layer2_0_FILL"/>
</g>

<g transform="matrix( 1, 0, 0, 1, 0,0) ">
<use xlink:href="#Layer1_0_FILL"/>
</g>

<g transform="matrix( 1, 0, 0, 1, 0,0) ">
<use xlink:href="#Layer0_0_FILL"/>

<use xlink:href="#Layer0_0_1_STROKES"/>
</g>
</svg>
