<?xml version="1.0" encoding="utf-8"?>
<!-- Generator: flash2svg, http://dissentgraphics.com/tools/flash2svg -->
<svg xmlns:xlink="http://www.w3.org/1999/xlink" id="FFX-variante" image-rendering="optimizeSpeed" baseProfile="basic" version="1.1" style="background-color:#ffffff" x="0px" y="0px" width="1024px" height="1024px" viewBox="0 0 1024 1024" enable-background="new 0 0 1024 1024" xmlns="http://www.w3.org/2000/svg">
  <defs transform="matrix(1 0 0 1 0 0) "/>
  <g id="shadow">
    <g id="shape">
      <path id="path" fill="#000000" fill-opacity="0.09803921568627451" d="M969.65,351.3 Q961.05,330.45 950.25,310.45 C946.2,302.9 941.9,295.4 937.35,288.05 917.8,256.35 893.95,226.4 865.8,198.25 773.65,106.1 662.35,60 532,60 401.65,60 290.4,106.1 198.25,198.25 106.1,290.4 60,401.65 60,532 60,662.35 106.1,773.65 198.25,865.8 290.4,957.95 401.65,1004 532,1004 662.35,1004 773.65,957.95 865.8,865.8 916.55,815 953.35,758.4 976.15,696.05 994.7,645.2 1004,590.55 1004,532 1004,487.1 998.55,444.45 987.6,404.05 986.35,399.5 985.05,394.95 983.7,390.45 979.6,377.15 974.9,364.1 969.65,351.3z"/>
    </g>
  </g>
  <g id="bg.__20circle">
    <g id="shape2">
      <path id="path1" fill="#324860" fill-opacity="1" d="M983.05,511.5 Q983.05,492.9 981.85,474.9 C973.9,360.3 928.25,261.35 844.95,178.05 752.9,86 641.75,39.95 511.5,39.95 381.25,39.95 270.1,86 178.05,178.05 86,270.1 39.95,381.25 39.95,511.5 39.95,641.75 86,752.9 178.05,844.95 270.1,937 381.25,983.05 511.5,983.05 524.25,983.05 536.9,982.6 549.35,981.75 663.4,973.6 761.9,928 844.95,844.95 937,752.9 983.05,641.75 983.05,511.5z"/>
    </g>
  </g>
  <g id="Calque.__2012">
    <g id="shape4">
      <path id="path2" fill="#202E3D" fill-opacity="1" d="M983.05,511.5 Q983.05,492.9 981.85,474.9 L674.8,167.85 646.15,342.95 548.45,381.6 334.75,167.85 274.25,471.25 450,882.4 549.35,981.75 C663.4,973.6 761.9,928 844.95,844.95 937,752.9 983.05,641.75 983.05,511.5z"/>
    </g>
  </g>
  <g id="Calque.__2013">
    <g id="shape6">
      <path id="path3" fill="#D95400" fill-opacity="1" d="M812.1,568.65 L674.8,167.85 586.8,353.5 422.8,353.5 334.75,167.85 197.5,568.65 506.15,740.65 812.1,568.65z"/>
      <path id="path4" fill="#FFFFFF" fill-opacity="1" d="M506.15,740.65 L197.5,568.65 450,882.4 504.75,827.65 559.55,882.4 812.1,568.65 506.15,740.65z"/>
      <path id="path5" fill="#DB5400" fill-opacity="1" d="M559.55,882.4 L504.75,827.65 450,882.4 559.55,882.4z"/>
    </g>
  </g>
  <g id="Calque.__2014">
    <g id="shape11">
      <path id="path6" fill="#FFFFFF" fill-opacity="1" d="M328.4,536.8 L369.25,572.1 C363,590.75 367.25,602.85 381.9,608.45 401.15,616.1 429.35,616.1 466.3,608.45 L328.4,536.8z M543.15,608.45 C580.1,616.1 608.25,616.1 627.55,608.45 Q649.4,600.05 640.2,572.1 L681.05,536.8 543.15,608.45z"/>
    </g>
  </g>
</svg>