<?xml version="1.0" encoding="utf-8"?>
<!-- Generator: flash2svg, http://dissentgraphics.com/tools/flash2svg -->
<svg xmlns:xlink="http://www.w3.org/1999/xlink" id="APP-Alt" image-rendering="optimizeSpeed" baseProfile="basic" version="1.1" style="background-color:#ffffff" x="0px" y="0px" width="1024px" height="1024px" viewBox="0 0 1024 1024" enable-background="new 0 0 1024 1024" xmlns="http://www.w3.org/2000/svg">
  <defs transform="matrix(1 0 0 1 0 0) "/>
  <g id="shadow">
    <g id="shape">
      <path id="path" fill="#000000" fill-opacity="0.09803921568627451" d="M965.65,347.3 Q957.05,326.45 946.25,306.45 C942.2,298.9 937.9,291.4 933.35,284.05 913.8,252.35 889.95,222.4 861.8,194.25 769.65,102.1 658.35,56 528,56 397.65,56 286.4,102.1 194.25,194.25 102.1,286.4 56,397.65 56,528 56,658.35 102.1,769.65 194.25,861.8 286.4,953.95 397.65,1000 528,1000 658.35,1000 769.65,953.95 861.8,861.8 912.55,811 949.35,754.4 972.15,692.05 990.7,641.2 1000,586.55 1000,528 1000,483.1 994.55,440.45 983.6,400.05 982.35,395.5 981.05,390.95 979.7,386.45 975.6,373.15 970.9,360.1 965.65,347.3z"/>
    </g>
  </g>
  <g id="BG">
    <g id="shape2">
      <path id="path1" fill="#47765B" fill-opacity="1" d="M968.1,643.95 Q968.3,643.05 968.5,642.25 C971.05,632.8 973.35,623.25 975.35,613.5 981.9,581.45 985.15,548.05 985.15,513.3 985.15,382.75 939,271.3 846.7,178.95 754.35,86.65 642.9,40.5 512.35,40.5 381.8,40.5 270.35,86.65 178,178.95 85.7,271.3 39.55,382.75 39.55,513.3 39.55,643.85 85.7,755.3 178,847.65 254.8,924.4 344.8,969.3 448,982.25 468.9,984.8 490.35,986.1 512.35,986.1 512.6,986.1 512.9,986.1 513.25,986.1 521.1,986.1 528.95,985.95 536.75,985.6 656.9,980.15 760.2,934.15 846.7,847.65 906.55,787.8 947.05,719.9 968.1,643.95z"/>
    </g>
  </g>
  <g id="BG1">
    <g id="shape4">
      <path id="path2" fill="#1C6547" fill-opacity="1" d="M885.05,523.2 L812.7,570.8 766.1,524.2 736.35,524.2 513.35,301.2 370.6,313.95 249.5,321.4 195.15,729.4 448,982.25 C468.9,984.8 490.35,986.1 512.35,986.1 512.6,986.1 512.9,986.1 513.25,986.1 521.1,986.1 528.95,985.95 536.75,985.6 656.9,980.15 760.2,934.15 846.7,847.65 906.55,787.8 947.05,719.9 968.1,643.95 968.25,643.35 968.35,642.8 968.5,642.25 971.05,632.8 973.35,623.25 975.35,613.5 L885.05,523.2z"/>
    </g>
  </g>
  <g id="Logo">
    <g id="drawingObject">
      <path id="path3" fill="#FFFFFF" fill-opacity="1" d="M397.295,252.948 L194.857,252.948 194.857,729.425 397.295,729.425 C416.171,729.425 433.486,726.821 449.108,721.744 464.86,716.667 479.051,709.116 491.679,698.961 515.242,679.824 532.947,653.136 544.794,618.767 556.641,584.529 562.629,542.609 562.629,493.269 562.629,333.012 507.561,252.948 397.295,252.948z M471.37,492.618 C471.37,544.302 464.6,583.227 451.061,609.264 437.522,635.171 417.213,648.059 390.004,648.059 L286.117,648.059 286.117,333.662 390.004,333.662 C407.839,333.662 422.42,337.828 433.876,346.16 446.374,355.403 455.748,372.327 462.127,396.672 Q471.37,433.254 471.37,492.618z"/>
    </g>
    <g id="drawingObject1">
      <path id="path7" fill="#FFFFFF" fill-opacity="1" d="M766.676,523 L712.128,523 674.896,666.204 633.497,523 574.914,523 641.308,730.255 703.536,730.255 726.709,655.268 758.084,730.255 819.01,730.255 886.186,523 827.603,523 786.594,666.204 752.356,578.589 766.676,523z"/>
    </g>
  </g>
</svg>