<?xml version="1.0" encoding="utf-8"?>
<!-- Generator: flash2svg, http://dissentgraphics.com/tools/flash2svg -->
<svg xmlns:xlink="http://www.w3.org/1999/xlink" id="APP-alt" image-rendering="optimizeSpeed" baseProfile="basic" version="1.1" style="background-color:#ffffff" x="0px" y="0px" width="1024px" height="1024px" viewBox="0 0 1024 1024" enable-background="new 0 0 1024 1024" xmlns="http://www.w3.org/2000/svg">
  <defs transform="matrix(1 0 0 1 0 0) "/>
  <g id="shadow">
    <g id="shape">
      <path id="path" fill="#000000" fill-opacity="0.09803921568627451" d="M969.65,351.3 Q961.05,330.45 950.25,310.45 C946.2,302.9 941.9,295.4 937.35,288.05 917.8,256.35 893.95,226.4 865.8,198.25 773.65,106.1 662.35,60 532,60 401.65,60 290.4,106.1 198.25,198.25 106.1,290.4 60,401.65 60,532 60,662.35 106.1,773.65 198.25,865.8 290.4,957.95 401.65,1004 532,1004 662.35,1004 773.65,957.95 865.8,865.8 916.55,815 953.35,758.4 976.15,696.05 994.7,645.2 1004,590.55 1004,532 1004,487.1 998.55,444.45 987.6,404.05 986.35,399.5 985.05,394.95 983.7,390.45 979.6,377.15 974.9,364.1 969.65,351.3z"/>
    </g>
  </g>
  <g id="inner">
    <g id="shape2">
      <path id="path1" fill="#946432" fill-opacity="1" d="M969.75,392.05 C968.65,387.7 967.4,383.05 966.1,378.45 963.6,369.7 960.75,360.85 957.65,352.1 951.2,333.85 943.5,316.05 934.5,298.45 930.7,291.05 926.55,283.5 922.2,276.05 901.9,241.55 876.4,208.85 845.85,178.3 773.25,105.7 688.7,61.65 592.2,46.25 579.55,44.2 566.7,42.7 553.65,41.7 L553.65,41.675 L553.65,982.45 C572.5,980.95 590.55,978.45 607.8,975.1 615.75,973.55 623.6,971.8 631.2,969.95 712,949.65 783.35,908.35 845.85,845.85 894.45,797.25 930.25,743.35 953.2,684.05 971.65,636.4 981.85,585.25 983.75,530.55 983.95,524.5 984.05,518.3 984.05,512.05 984.05,511.4 984.05,510.7 984.05,510.05 984.05,509.7 984.05,509.4 984.05,509.05 983.85,468.4 979.1,429.55 969.75,392.05z"/>
      <path id="path2" fill="#573D23" fill-opacity="1" d="M553.65,41.7 C550.45,41.45 547.25,41.2 544.05,41 543.4,40.95 542.8,40.95 542.15,40.9 532.45,40.35 522.3,40.05 512.05,40.05 502.7,40.05 493.45,40.3 484.15,40.8 481.8,40.9 479.45,41.05 476.85,41.2 474.7,41.35 472.55,41.5 470.45,41.7 L470.45,41.675 L470.45,982.425 L470.45,982.45 C472.65,982.6 474.75,982.75 476.85,982.9 479.45,983.1 481.8,983.25 484.15,983.35 484.3,983.35 484.4,983.35 484.55,983.35 493.05,983.8 501.15,984.05 509.05,984.05 510.25,984.05 511.15,984.05 512.05,984.05 522.35,984.05 532.55,983.75 542.15,983.25 542.8,983.2 543.4,983.15 544.05,983.15 545.75,983 547.45,982.9 549.1,982.8 550.75,982.7 552.4,982.55 553.65,982.45 L553.65,41.675"/>
      <path id="path3" fill="#CC9053" fill-opacity="1" d="M470.45,41.7 C358,50.45 260.6,96 178.3,178.3 Q40.05,316.55 40.05,512.05 C40.05,642.4 86.15,753.7 178.3,845.85 260.65,928.15 358.2,973.7 470.45,982.45 L470.45,982.425 L470.45,41.675"/>
    </g>
  </g>
  <g id="Symbole.__201">
    <g id="shape7">
      <path id="path4" fill="#000000" fill-opacity="0.2" d="M953.2,684.05 Q969.376,642.312 977.075,597.075 L591.55,211.55 432.6,232.05 450.55,343.05 339.6,417.55 354.05,446.05 465.9,557.9 470.45,538.05 470.45,562.45 465.9,557.9 403.9,828.45 553.65,978.175 557.575,982.125 L557.6,982.15 C575.2,980.55 591.85,978.2 607.8,975.1 615.75,973.55 623.6,971.8 631.2,969.95 712,949.65 783.35,908.35 845.85,845.85 894.45,797.25 930.25,743.35 953.2,684.05z"/>
      <path id="path5" fill="#CC9053" fill-opacity="1" d="M465.9,557.9 L470.45,562.45 470.45,538.05 465.9,557.9z"/>
      <path id="path6" fill="#946432" fill-opacity="1" d="M557.575,982.125 L553.65,978.175 553.65,982.45 C555.1,982.35 556.55,982.25 557.6,982.15"/>
    </g>
  </g>
  <g id="Symbole.__202">
    <g id="shape12">
      <path id="path7" fill="#F9C93A" fill-opacity="1" d="M680.45,402.1 L680.4,402.1 C676.35,396.9 672,392.5 667.35,388.9 661.5,384.5 650.1,373.95 633.05,357.3 606.55,331.6 592.7,298.25 591.55,257.3 591.55,257.15 591.55,257 591.55,256.85 591.55,256.4 591.55,255.95 591.55,255.5 L591.55,211.55 432.6,211.55 432.6,255.5 C432.6,255.95 432.6,256.4 432.6,256.85 432.6,257 432.6,257.15 432.6,257.3 431.45,298.25 417.6,331.6 391.15,357.3 374.1,373.95 362.65,384.5 356.85,388.9 352.2,392.5 347.8,396.9 343.75,402.1 341,406.05 339.6,411.2 339.6,417.55 340.75,435 354.05,450.4 379.55,463.85 388.95,433.4 396.95,410.6 403.5,395.45 410.05,380.3 416.1,369.2 421.7,362.1 427.3,354.95 431.9,350.4 435.55,348.4 439.15,346.35 444.15,344.6 450.55,343.05 L450.55,284.05 C450.55,271.65 454.95,261.05 463.75,252.25 467.75,248.25 472.1,245.15 476.85,243 482.55,240.35 488.8,239.05 495.55,239.05 L528.55,239.05 C534.1,239.05 539.25,239.95 544.05,241.7 550.05,243.85 555.5,247.4 560.35,252.25 569.15,261.05 573.55,271.65 573.55,284.05 L573.55,343.05 C581.15,343.8 588.15,347.6 594.55,354.45 600.9,361.3 605.2,366.45 607.4,369.95 609.6,373.45 613.75,381.95 619.9,395.4 626,408.85 634.25,431.7 644.6,463.9 670.1,450.45 683.4,435 684.55,417.55 684.55,411.2 683.2,406.05 680.45,402.1z M484.95,273.45 C482,276.4 480.55,279.9 480.55,284.05 L480.55,479.05 C480.55,483.2 482,486.7 484.95,489.65 487.9,492.6 491.4,494.05 495.55,494.05 L528.55,494.05 C532.7,494.05 536.2,492.6 539.15,489.65 542.1,486.7 543.55,483.2 543.55,479.05 L543.55,284.05 C543.55,279.9 542.1,276.4 539.15,273.45 536.2,270.5 532.7,269.05 528.55,269.05 L495.55,269.05 C491.4,269.05 487.9,270.5 484.95,273.45z M450.55,378.5 C446.3,379 442.8,382.05 440.1,387.7 428.05,415.65 417.1,445 407.3,475.85 404.25,485.3 401.35,494.9 398.55,504.65 377.8,576.7 362.85,656.2 353.7,743.15 354.25,774.85 369.3,802 398.95,824.65 421.55,841.8 447.5,852.8 476.85,857.65 487.7,859.45 499.05,860.4 510.8,860.55 L510.95,860.55 C511.3,860.55 511.7,860.55 512.05,860.55 512.4,860.55 512.8,860.55 513.15,860.55 L513.3,860.55 C523.95,860.45 534.2,859.65 544.05,858.15 574.7,853.55 601.7,842.4 625.15,824.65 654.8,802 669.85,774.85 670.4,743.15 661.25,656.2 646.3,576.7 625.6,504.65 622.75,494.9 619.85,485.3 616.85,475.85 607.05,445 596.1,415.65 584.05,387.7 580.9,382.05 577.4,379 573.55,378.5 L573.55,479.05 C573.55,491.45 569.15,502.05 560.35,510.85 555.5,515.7 550.05,519.25 544.05,521.45 539.25,523.2 534.1,524.05 528.55,524.05 L495.55,524.05 C488.8,524.05 482.55,522.75 476.85,520.15 472.1,517.95 467.75,514.85 463.75,510.85 454.95,502.05 450.55,491.45 450.55,479.05 L450.55,378.5z M476.85,676.05 C487.2,669.25 498.9,665.85 512.05,665.85 523.85,665.85 534.5,668.6 544.05,674.05 549.05,676.9 553.75,680.55 558.15,684.95 570.9,697.7 577.25,713.05 577.25,731.05 577.25,749.05 570.9,764.4 558.15,777.15 553.75,781.55 549.05,785.2 544.05,788.05 534.5,793.5 523.85,796.25 512.05,796.25 498.9,796.25 487.2,792.85 476.85,786.1 473,783.55 469.4,780.6 465.95,777.15 453.2,764.4 446.85,749.05 446.85,731.05 446.85,713.05 453.2,697.7 465.95,684.95 469.4,681.5 473,678.55 476.85,676.05z"/>
    </g>
  </g>
  <g id="Calque.__203">
    <g id="shape21">
      <path id="path15" fill="#330000" fill-opacity="0.2980392156862745" d="M571.35,583.9 C575.5,583.9 579,582.45 581.95,579.5 Q586.35,575.1 586.35,568.9 C586.35,564.75 584.9,561.25 581.95,558.3 579,555.35 575.5,553.9 571.35,553.9 L452.75,553.9 C448.6,553.9 445.1,555.35 442.15,558.3 439.2,561.25 437.75,564.75 437.75,568.9 437.75,573.05 439.2,576.55 442.15,579.5 445.1,582.45 448.6,583.9 452.75,583.9 L571.35,583.9z M442.15,605.5 C439.2,608.45 437.75,611.95 437.75,616.1 437.75,620.25 439.2,623.75 442.15,626.7 445.1,629.65 448.6,631.1 452.75,631.1 L571.35,631.1 C575.5,631.1 579,629.65 581.95,626.7 584.9,623.75 586.35,620.25 586.35,616.1 586.35,611.95 584.9,608.45 581.95,605.5 579,602.55 575.5,601.1 571.35,601.1 L452.75,601.1 C448.6,601.1 445.1,602.55 442.15,605.5z"/>
    </g>
  </g>
</svg>