<?xml version="1.0" encoding="utf-8"?>
<!-- Generator: flash2svg, http://dissentgraphics.com/tools/flash2svg -->
<svg xmlns:xlink="http://www.w3.org/1999/xlink" id="APP" image-rendering="optimizeSpeed" baseProfile="basic" version="1.1" style="background-color:#ffffff" x="0px" y="0px" width="1024px" height="1024px" viewBox="0 0 1024 1024" enable-background="new 0 0 1024 1024" xmlns="http://www.w3.org/2000/svg">
  <defs transform="matrix(1 0 0 1 0 0) "/>
  <g id="shadow">
    <g id="shape">
      <path id="path" fill="#000000" fill-opacity="0.09803921568627451" d="M969.65,351.3 Q961.05,330.45 950.25,310.45 C946.2,302.9 941.9,295.4 937.35,288.05 917.8,256.35 893.95,226.4 865.8,198.25 773.65,106.1 662.35,60 532,60 401.65,60 290.4,106.1 198.25,198.25 106.1,290.4 60,401.65 60,532 60,662.35 106.1,773.65 198.25,865.8 290.4,957.95 401.65,1004 532,1004 662.35,1004 773.65,957.95 865.8,865.8 916.55,815 953.35,758.4 976.15,696.05 994.7,645.2 1004,590.55 1004,532 1004,487.1 998.55,444.45 987.6,404.05 986.35,399.5 985.05,394.95 983.7,390.45 979.6,377.15 974.9,364.1 969.65,351.3z"/>
    </g>
  </g>
  <g id="bg">
    <g id="shape2">
      <path id="path1" fill="#946432" fill-opacity="1" d="M969.75,392.05 C968.65,387.7 967.4,383.05 966.1,378.45 963.6,369.7 960.75,360.85 957.65,352.1 951.2,333.85 943.5,316.05 934.5,298.45 930.7,291.05 926.55,283.5 922.2,276.05 901.9,241.55 876.4,208.85 845.85,178.3 773.25,105.7 688.7,61.65 592.2,46.25 579.55,44.2 566.7,42.7 553.65,41.7 L553.65,41.675 L553.65,982.45 C572.5,980.95 590.55,978.45 607.8,975.1 615.75,973.55 623.6,971.8 631.2,969.95 712,949.65 783.35,908.35 845.85,845.85 894.45,797.25 930.25,743.35 953.2,684.05 971.65,636.4 981.85,585.25 983.75,530.55 983.95,524.5 984.05,518.3 984.05,512.05 984.05,511.4 984.05,510.7 984.05,510.05 984.05,509.7 984.05,509.4 984.05,509.05 983.85,468.4 979.1,429.55 969.75,392.05z"/>
      <path id="path2" fill="#573D23" fill-opacity="1" d="M553.65,41.7 C550.45,41.45 547.25,41.2 544.05,41 543.4,40.95 542.8,40.95 542.15,40.9 532.45,40.35 522.3,40.05 512.05,40.05 502.7,40.05 493.45,40.3 484.15,40.8 481.8,40.9 479.45,41.05 476.85,41.2 474.7,41.35 472.55,41.5 470.45,41.7 L470.45,41.675 L470.45,982.425 L470.45,982.45 C472.65,982.6 474.75,982.75 476.85,982.9 479.45,983.1 481.8,983.25 484.15,983.35 484.3,983.35 484.4,983.35 484.55,983.35 493.05,983.8 501.15,984.05 509.05,984.05 510.25,984.05 511.15,984.05 512.05,984.05 522.35,984.05 532.55,983.75 542.15,983.25 542.8,983.2 543.4,983.15 544.05,983.15 545.75,983 547.45,982.9 549.1,982.8 550.75,982.7 552.4,982.55 553.65,982.45 L553.65,41.675"/>
      <path id="path3" fill="#CC9053" fill-opacity="1" d="M470.45,41.7 C358,50.45 260.6,96 178.3,178.3 Q40.05,316.55 40.05,512.05 C40.05,642.4 86.15,753.7 178.3,845.85 260.65,928.15 358.2,973.7 470.45,982.45 L470.45,982.425 L470.45,41.675"/>
    </g>
  </g>
  <g id="inner">
    <g id="shape7">
      <path id="path4" fill="#000000" fill-opacity="0.2" d="M760.1,760.1 Q862.8,657.35 862.8,512.05 C862.8,415.2 828.55,332.5 760.1,264.05 699.3,203.3 627.4,169.5 544.05,162.65 533.7,161.8 522.95,161.35 512.05,161.35 500.15,161.35 488.45,161.85 476.85,162.95 395.05,170.3 324.1,204 264.05,264.05 195.6,332.5 161.35,415.2 161.35,512.05 161.35,608.9 195.6,691.6 264.05,760.1 324.15,820.2 395.2,853.9 476.85,861.25 488.6,862.3 500.2,862.8 512.05,862.8 523,862.8 533.8,862.35 544.05,861.55 627.45,854.6 699.35,820.8 760.1,760.1z"/>
    </g>
  </g>
  <g id="Calque.__202">
    <g id="shape9">
      <path id="path5" fill="#000000" fill-opacity="0.2" d="M696.45,418.1 L696.4,418.1 C692.35,412.9 688,408.5 683.35,404.9 677.5,400.5 666.1,389.95 649.05,373.3 622.55,347.6 608.7,314.25 607.55,273.3 607.55,273.15 607.55,273 607.55,272.85 607.55,272.4 607.55,271.95 607.55,271.5 L607.55,227.55 448.6,227.55 448.6,271.5 C448.6,271.95 448.6,272.4 448.6,272.85 448.6,273 448.6,273.15 448.6,273.3 447.45,314.25 433.6,347.6 407.15,373.3 390.1,389.95 378.65,400.5 372.85,404.9 368.2,408.5 363.8,412.9 359.75,418.1 357,422.05 355.6,427.2 355.6,433.55 356.75,451 370.05,466.4 395.55,479.85 405.9,447.7 417.4,417.05 430.15,388 431.3,385.4 433.05,383.3 435.4,381.65 439.05,379.1 443.45,375.25 448.5,370.2 453.85,364.85 459.9,361.1 466.55,359.05 L466.55,300.05 C466.55,287.65 470.95,277.05 479.75,268.25 479.85,268.15 479.95,268.05 480.05,267.95 488.8,259.35 499.3,255.05 511.55,255.05 L544.55,255.05 C545.55,255.05 546.55,255.1 547.25,255.15 558.65,255.8 568.25,260.15 576.35,268.25 585.15,277.05 589.55,287.65 589.55,300.05 L589.55,359.05 C596.2,361.1 602.25,364.85 607.6,370.2 612.65,375.25 617.05,379.1 620.7,381.65 623.05,383.3 624.8,385.4 625.95,388 638.7,417.05 650.25,447.7 660.6,479.9 686.1,466.45 699.4,451 700.55,433.55 700.55,427.2 699.2,422.05 696.45,418.1z M511.55,285.05 C507.4,285.05 503.9,286.5 500.95,289.45 498,292.4 496.55,295.9 496.55,300.05 L496.55,495.05 C496.55,499.2 498,502.7 500.95,505.65 503.9,508.6 507.4,510.05 511.55,510.05 L544.55,510.05 C545.55,510.05 546.5,509.95 547.25,509.85 550.35,509.25 552.9,507.9 555.15,505.65 558.1,502.7 559.55,499.2 559.55,495.05 L559.55,300.05 C559.55,295.9 558.1,292.4 555.15,289.45 552.9,287.2 550.3,285.8 547.25,285.3 546.45,285.15 545.5,285.05 544.55,285.05 L511.55,285.05z M632.85,491.85 C623.05,461 612.1,431.65 600.05,403.7 596.9,401.25 593.4,398.15 589.55,394.5 L589.55,495.05 C589.55,507.45 585.15,518.05 576.35,526.85 568.25,534.95 558.6,539.35 547.25,540 546.45,540 545.5,540.05 544.55,540.05 L511.55,540.05 C499.3,540.05 488.8,535.75 480.05,527.15 479.95,527.05 479.85,526.95 479.75,526.85 470.95,518.05 466.55,507.45 466.55,495.05 L466.55,394.5 C462.75,398.15 459.25,401.25 456.1,403.7 444.05,431.65 433.1,461 423.3,491.85 420.25,501.3 417.35,510.9 414.55,520.65 393.8,592.7 378.85,672.2 369.7,759.15 370.25,790.85 385.3,818 414.95,840.65 434.25,855.3 456.05,865.45 480.05,871.1 494.9,874.6 510.4,876.4 526.8,876.55 L526.95,876.55 C527.3,876.55 527.7,876.55 528.05,876.55 528.4,876.55 528.8,876.55 529.15,876.55 L529.3,876.55 C535.45,876.5 541.45,876.2 547.25,875.7 583.25,872.5 614.55,860.8 641.15,840.65 670.8,818 685.85,790.85 686.4,759.15 677.25,672.2 662.3,592.7 641.6,520.65 638.75,510.9 635.85,501.3 632.85,491.85z M481.95,700.95 C494.7,688.2 510.05,681.85 528.05,681.85 534.85,681.85 541.3,682.75 547.25,684.55 557.3,687.6 566.25,693.05 574.15,700.95 586.9,713.7 593.25,729.05 593.25,747.05 593.25,765.05 586.9,780.4 574.15,793.15 566.3,801 557.45,806.45 547.25,809.55 541.45,811.3 534.95,812.25 528.05,812.25 510.05,812.25 494.7,805.9 481.95,793.15 481.3,792.5 480.7,791.85 480.05,791.2 468.6,778.85 462.85,764.1 462.85,747.05 462.85,730 468.6,715.3 480.05,702.95 480.7,702.25 481.3,701.6 481.95,700.95z"/>
    </g>
  </g>
  <g id="Calque.__203">
    <g id="shape18">
      <path id="path13" fill="#F9C93A" fill-opacity="1" d="M484.95,273.45 C482,276.4 480.55,279.9 480.55,284.05 L480.55,479.05 C480.55,483.2 482,486.7 484.95,489.65 487.9,492.6 491.4,494.05 495.55,494.05 L528.55,494.05 C532.7,494.05 536.2,492.6 539.15,489.65 542.1,486.7 543.55,483.2 543.55,479.05 L543.55,284.05 C543.55,279.9 542.1,276.4 539.15,273.45 536.2,270.5 532.7,269.05 528.55,269.05 L495.55,269.05 C491.4,269.05 487.9,270.5 484.95,273.45z M680.45,402.1 L680.4,402.1 C676.35,396.9 672,392.5 667.35,388.9 661.5,384.5 650.1,373.95 633.05,357.3 606.55,331.6 592.7,298.25 591.55,257.3 591.55,257.15 591.55,257 591.55,256.85 591.55,256.4 591.55,255.95 591.55,255.5 L591.55,211.55 432.6,211.55 432.6,255.5 C432.6,255.95 432.6,256.4 432.6,256.85 432.6,257 432.6,257.15 432.6,257.3 431.45,298.25 417.6,331.6 391.15,357.3 374.1,373.95 362.65,384.5 356.85,388.9 352.2,392.5 347.8,396.9 343.75,402.1 341,406.05 339.6,411.2 339.6,417.55 340.75,435 354.05,450.4 379.55,463.85 389.9,431.7 401.4,401.05 414.15,372 415.3,369.4 417.05,367.3 419.4,365.65 423.05,363.1 427.45,359.25 432.5,354.2 437.85,348.85 443.9,345.1 450.55,343.05 L450.55,284.05 C450.55,271.65 454.95,261.05 463.75,252.25 467.75,248.25 472.1,245.15 476.85,243 482.55,240.35 488.8,239.05 495.55,239.05 L528.55,239.05 C534.1,239.05 539.25,239.95 544.05,241.7 550.05,243.85 555.5,247.4 560.35,252.25 569.15,261.05 573.55,271.65 573.55,284.05 L573.55,343.05 C580.2,345.1 586.25,348.85 591.6,354.2 596.65,359.25 601.05,363.1 604.7,365.65 607.05,367.3 608.8,369.4 609.95,372 622.7,401.05 634.25,431.7 644.6,463.9 670.1,450.45 683.4,435 684.55,417.55 684.55,411.2 683.2,406.05 680.45,402.1z M450.55,378.5 C446.75,382.15 443.25,385.25 440.1,387.7 428.05,415.65 417.1,445 407.3,475.85 404.25,485.3 401.35,494.9 398.55,504.65 377.8,576.7 362.85,656.2 353.7,743.15 354.25,774.85 369.3,802 398.95,824.65 421.55,841.8 447.5,852.8 476.85,857.65 487.7,859.45 499.05,860.4 510.8,860.55 L510.95,860.55 C511.3,860.55 511.7,860.55 512.05,860.55 512.4,860.55 512.8,860.55 513.15,860.55 L513.3,860.55 C523.95,860.45 534.2,859.65 544.05,858.15 574.7,853.55 601.7,842.4 625.15,824.65 654.8,802 669.85,774.85 670.4,743.15 661.25,656.2 646.3,576.7 625.6,504.65 622.75,494.9 619.85,485.3 616.85,475.85 607.05,445 596.1,415.65 584.05,387.7 580.9,385.25 577.4,382.15 573.55,378.5 L573.55,479.05 C573.55,491.45 569.15,502.05 560.35,510.85 555.5,515.7 550.05,519.25 544.05,521.45 539.25,523.2 534.1,524.05 528.55,524.05 L495.55,524.05 C488.8,524.05 482.55,522.75 476.85,520.15 472.1,517.95 467.75,514.85 463.75,510.85 454.95,502.05 450.55,491.45 450.55,479.05 L450.55,378.5z M476.85,676.05 C487.2,669.25 498.9,665.85 512.05,665.85 523.85,665.85 534.5,668.6 544.05,674.05 549.05,676.9 553.75,680.55 558.15,684.95 570.9,697.7 577.25,713.05 577.25,731.05 577.25,749.05 570.9,764.4 558.15,777.15 553.75,781.55 549.05,785.2 544.05,788.05 534.5,793.5 523.85,796.25 512.05,796.25 498.9,796.25 487.2,792.85 476.85,786.1 473,783.55 469.4,780.6 465.95,777.15 453.2,764.4 446.85,749.05 446.85,731.05 446.85,713.05 453.2,697.7 465.95,684.95 469.4,681.5 473,678.55 476.85,676.05z"/>
    </g>
  </g>
  <g id="Calque.__204">
    <g id="shape27">
      <path id="path21" fill="#330000" fill-opacity="0.2980392156862745" d="M581.95,559.45 Q577.56,555.053 571.35,555.05 L452.75,555.05 C448.6,555.05 445.1,556.5 442.15,559.45 439.2,562.4 437.75,565.9 437.75,570.05 437.75,574.2 439.2,577.7 442.15,580.65 445.1,583.6 448.6,585.05 452.75,585.05 L571.35,585.05 C575.5,585.05 579,583.6 581.95,580.65 584.9,577.7 586.35,574.2 586.35,570.05 586.35,565.9 584.9,562.4 581.95,559.45z M437.75,617.25 C437.75,621.4 439.2,624.9 442.15,627.85 445.1,630.8 448.6,632.25 452.75,632.25 L571.35,632.25 C575.5,632.25 579,630.8 581.95,627.85 584.9,624.9 586.35,621.4 586.35,617.25 586.35,613.1 584.9,609.6 581.95,606.65 579,603.7 575.5,602.25 571.35,602.25 L452.75,602.25 C448.6,602.25 445.1,603.7 442.15,606.65 439.2,609.6 437.75,613.1 437.75,617.25z"/>
    </g>
  </g>
</svg>