<?xml version="1.0" encoding="utf-8"?>
<!-- Generator: flash2svg, http://dissentgraphics.com/tools/flash2svg -->
<svg xmlns:xlink="http://www.w3.org/1999/xlink" id="APP" image-rendering="optimizeSpeed" baseProfile="basic" version="1.1" style="background-color:#ffffff" x="0px" y="0px" width="1024px" height="1024px" viewBox="0 0 1024 1024" enable-background="new 0 0 1024 1024" xmlns="http://www.w3.org/2000/svg">
  <defs transform="matrix(1 0 0 1 0 0) "/>
  <g id="shadow">
    <g id="shape">
      <path id="path" fill="#000000" fill-opacity="0.09803921568627451" d="M969.65,351.3 Q961.05,330.45 950.25,310.45 C946.2,302.9 941.9,295.4 937.35,288.05 917.8,256.35 893.95,226.4 865.8,198.25 773.65,106.1 662.35,60 532,60 401.65,60 290.4,106.1 198.25,198.25 106.1,290.4 60,401.65 60,532 60,662.35 106.1,773.65 198.25,865.8 290.4,957.95 401.65,1004 532,1004 662.35,1004 773.65,957.95 865.8,865.8 916.55,815 953.35,758.4 976.15,696.05 994.7,645.2 1004,590.55 1004,532 1004,487.1 998.55,444.45 987.6,404.05 986.35,399.5 985.05,394.95 983.7,390.45 979.6,377.15 974.9,364.1 969.65,351.3z"/>
    </g>
  </g>
  <g id="Calque.__201">
    <g id="shape2">
      <path id="path1" fill="#343764" fill-opacity="1" d="M984.85,511.55 Q984.85,315.8 846.5,177.45 C754.25,85.2 642.85,39.05 512.4,39.05 381.9,39.05 270.55,85.2 178.3,177.45 86.05,269.7 39.9,381.05 39.9,511.55 39.9,642 86.05,753.4 178.3,845.65 270.55,937.9 381.9,984 512.4,984 642.85,984 754.25,937.9 846.5,845.65 938.75,753.4 984.85,642 984.85,511.55z"/>
    </g>
  </g>
  <g id="Calque.__202">
    <g id="shape4">
      <path id="path2" fill="#000000" fill-opacity="0.2" d="M760.4,759.55 Q863.15,656.85 863.15,511.55 C863.15,414.7 828.9,332 760.4,263.5 691.95,195.05 609.25,160.8 512.4,160.8 415.55,160.8 332.85,195.05 264.35,263.5 195.9,332 161.65,414.7 161.65,511.55 161.65,608.4 195.9,691.1 264.35,759.55 332.85,828.05 415.55,862.3 512.4,862.3 609.25,862.3 691.95,828.05 760.4,759.55z"/>
    </g>
  </g>
</svg>