<?xml version="1.0" encoding="utf-8"?>
<!-- Generator: flash2svg, http://dissentgraphics.com/tools/flash2svg -->
<svg xmlns:xlink="http://www.w3.org/1999/xlink" id="FILE" image-rendering="optimizeSpeed" baseProfile="basic" version="1.1" style="background-color:#ffffff" x="0px" y="0px" width="1024px" height="1024px" viewBox="0 0 1024 1024" enable-background="new 0 0 1024 1024" xmlns="http://www.w3.org/2000/svg">
  <defs transform="matrix(1 0 0 1 0 0) "/>
  <g id="Shadow">
    <g id="shape">
      <path id="path" fill="#000000" fill-opacity="0.09803921568627451" d="M904.4,90.05 C904.4,77.05 893.8,66.45 880.95,66.45 L389.25,66.45 175.2,275.65 175.2,983.45 C175.2,996.5 185.6,1007.05 198.6,1007.05 L880.95,1007.05 C893.8,1007.05 904.4,996.5 904.4,983.45 L904.4,90.05z"/>
    </g>
  </g>
  <g id="Bg">
    <g id="shape2">
      <path id="path1" fill="#95A3EC" fill-opacity="1" d="M880.95,66.45 C880.95,53.4 870.35,43 857.35,43 L365.65,43 151.55,252.2 151.55,960 C151.55,972.85 162.15,983.45 175.2,983.45 L857.35,983.45 C870.35,983.45 880.95,972.85 880.95,960 L880.95,66.45z"/>
    </g>
  </g>
  <g id="Ico">
    <g id="shape4">
      <path id="path2" fill="#FFFFFF" fill-opacity="0.2" d="M605.4,370.7 Q566.75,332.05 512.05,332.05 C475.6,332.05 444.45,344.95 418.65,370.7 392.9,396.5 380,427.65 380,464.1 380,500.55 392.9,531.7 418.65,557.45 444.45,583.25 475.6,596.15 512.05,596.15 548.5,596.15 579.65,583.25 605.4,557.45 631.2,531.7 644.1,500.55 644.1,464.1 644.1,427.65 631.2,396.5 605.4,370.7z"/>
    </g>
  </g>
  <g id="Text.__20Shadow">
    <g id="drawingObject">
      <path id="path3" fill="#000000" fill-opacity="0.2980392156862745" d="M630.9,917 L644.95,917 603.85,799.9 592,799.9 548.95,917 563.55,917 574.1,884.35 620.8,884.35 630.9,917z M597.75,817.95 L616.6,872.55 578.4,872.55 597.75,817.95z M496.65,799.9 L484.8,799.9 441.75,917 456.35,917 466.9,884.35 513.6,884.35 523.7,917 537.75,917 496.65,799.9z M471.2,872.55 L490.55,817.95 509.4,872.55 471.2,872.55z M417,900.2 L408.45,900.2 C405.9,900.2 404.65,901.55 404.65,904.2 L404.65,913.35 C404.65,915.8 405.9,917 408.45,917 L417,917 C419.65,917 420.95,915.8 420.95,913.35 L420.95,904.2 C420.95,901.55 419.65,900.2 417,900.2z"/>
    </g>
  </g>
  <g id="Text">
    <g id="drawingObject1">
      <path id="path14" fill="#FFFFFF" fill-opacity="1" d="M622.9,913 L636.95,913 595.85,795.9 584,795.9 540.95,913 555.55,913 566.1,880.35 612.8,880.35 622.9,913z M589.75,813.95 L608.6,868.55 570.4,868.55 589.75,813.95z M488.65,795.9 L476.8,795.9 433.75,913 448.35,913 458.9,880.35 505.6,880.35 515.7,913 529.75,913 488.65,795.9z M463.2,868.55 L482.55,813.95 501.4,868.55 463.2,868.55z M409,896.2 L400.45,896.2 C397.9,896.2 396.65,897.55 396.65,900.2 L396.65,909.35 C396.65,911.8 397.9,913 400.45,913 L409,913 C411.65,913 412.95,911.8 412.95,909.35 L412.95,900.2 C412.95,897.55 411.65,896.2 409,896.2z"/>
    </g>
  </g>
  <g id="peel">
    <g id="shape28">
      <path id="path25" fill="#000000" fill-opacity="0.2" d="M384.6,66.45 C384.6,59.95 382.35,54.45 377.65,49.95 373.6,45.85 368.9,43.65 363.4,43.2 L151.55,252.2 Q151.55,262 158.5,268.9 165.4,275.65 175.2,275.65 L360.95,275.65 C374,275.65 384.6,265.25 384.6,252.2 L384.6,66.45z"/>
    </g>
  </g>
</svg>