<?xml version="1.0" encoding="utf-8"?>
<!-- Generator: flash2svg, http://dissentgraphics.com/tools/flash2svg -->
<svg xmlns:xlink="http://www.w3.org/1999/xlink" id="APPSTOREAlt" image-rendering="optimizeSpeed" baseProfile="basic" version="1.1" style="background-color:#ffffff" x="0px" y="0px" width="1024px" height="1024px" viewBox="0 0 1024 1024" enable-background="new 0 0 1024 1024" xmlns="http://www.w3.org/2000/svg">
  <defs transform="matrix(1 0 0 1 0 0) "/>
  <g id="shadow">
    <g id="shape">
      <path id="path" fill="#000000" fill-opacity="0.09803921568627451" d="M964.65,346.3 Q956.05,325.45 945.25,305.45 C941.2,297.9 936.9,290.4 932.35,283.05 912.8,251.35 888.95,221.4 860.8,193.25 768.65,101.1 657.35,55 527,55 396.65,55 285.4,101.1 193.25,193.25 101.1,285.4 55,396.65 55,527 55,657.35 101.1,768.65 193.25,860.8 285.4,952.95 396.65,999 527,999 657.35,999 768.65,952.95 860.8,860.8 911.55,810 948.35,753.4 971.15,691.05 989.7,640.2 999,585.55 999,527 999,482.1 993.55,439.45 982.6,399.05 981.35,394.5 980.05,389.95 978.7,385.45 974.6,372.15 969.9,359.1 964.65,346.3z"/>
    </g>
  </g>
  <g id="bg.__20circle">
    <g id="shape2">
      <path id="path1" fill="#0099CC" fill-opacity="1" d="M966.1,378.45 C963.6,369.7 960.75,360.85 957.65,352.1 951.2,333.85 943.5,316.05 934.5,298.45 930.7,291.05 926.55,283.5 922.2,276.05 L922.175,276.05 Q891.574,224.04 845.85,178.3 C753.7,86.15 642.4,40.05 512.05,40.05 381.7,40.05 270.45,86.15 178.3,178.3 86.15,270.45 40.05,381.7 40.05,512.05 40.05,642.4 86.15,753.7 178.3,845.85 270.45,938 381.7,984.05 512.05,984.05 642.4,984.05 753.7,938 845.85,845.85 894.45,797.25 930.25,743.35 953.2,684.05 973.75,631 984.05,573.65 984.05,512.05 984.05,470.3 979.35,430.45 969.75,392.05 968.65,387.7 967.4,383.05 966.1,378.45z"/>
    </g>
  </g>
  <g id="inner.__20circle">
    <g id="shape4">
      <path id="path2" fill="#000000" fill-opacity="0.2980392156862745" d="M781.7,276.05 C776.55,270.25 771.05,264.45 765.35,258.75 695.4,188.8 611,153.85 512.05,153.85 413.1,153.85 328.7,188.8 258.75,258.75 188.8,328.7 153.85,413.1 153.85,512.05 153.85,611 188.8,695.4 258.75,765.35 328.7,835.3 413.1,870.25 512.05,870.25 611,870.25 695.4,835.3 765.35,765.35 790.55,740.15 811.2,713.05 827.35,684.05 Q870.25,606.944 870.25,512.05 C870.25,490.65 868.6,469.9 865.3,449.65 862.1,429.9 857.25,410.8 850.7,392.05 836.15,350.2 813.15,311.45 781.7,276.05z"/>
    </g>
  </g>
  <g id="Calque.__208">
    <g id="shape6">
      <path id="path3" fill="#000000" fill-opacity="0.2" d="M768.9,472.5 L761.3,472.5 761.3,472.25 718.25,472.25 596.55,154.5 C593.55,146.65 588.1,144.2 580.25,147.25 L546.8,160 C538.95,163.05 536.55,168.5 539.55,176.35 L542.85,184.9 479.75,156.1 C472.1,152.65 466.35,155.25 462.4,163.75 L321.8,472.25 237.95,472.25 C229.6,472.25 225.35,476.5 225.35,484.85 L225.35,603.25 C225.35,611.65 229.6,615.85 237.95,615.85 L256.35,615.85 220.5,694.45 C219.3,697.15 218.65,699.65 218.55,701.85 218.65,702.2 218.55,702.7 218.55,703.1 218.55,703.35 218.65,703.55 218.7,703.7 218.9,705.55 219.55,707.2 220.65,708.65 L252.7,811.8 353.4,767.45 C353.95,767.25 354.55,766.95 355.05,766.7 356.25,766.05 357.35,765.05 358.45,763.8 359.5,762.5 360.5,760.85 361.45,758.75 L426.6,615.85 707.9,615.85 723.7,657.2 727.3,655.8 C726.55,658.4 725.9,661.25 725.35,664.3 723.7,674.05 723.8,684.3 725.55,694.95 726.85,703.3 729.2,711.85 732.6,720.65 740.35,740.8 751.1,756.4 764.9,767.45 765.8,768.2 766.7,768.85 767.6,769.45 774.95,774.8 783.4,779.45 793,783.4 L856.9,809.35 C848.1,805.05 841.85,792.8 838.1,772.55 834.4,752.3 831.6,737.95 829.7,729.5 827.75,721.1 825.75,713.05 823.75,705.4 822.7,701.45 821.75,697.95 820.9,694.95 820.05,692.15 819.2,689.75 818.45,687.8 810.7,667.65 799.9,652.05 786.05,641.05 783.7,639.1 781.35,637.45 778.95,636 L780.7,635.35 773.25,615.85 793.45,615.85 C801.8,615.85 806.05,611.65 806.05,603.25 L806.05,484.85 C806.05,476.5 801.8,472.25 793.45,472.25 L768.9,472.25 768.9,472.5z M579.45,280.5 L652.9,472.25 492.05,472.25 579.45,280.5z"/>
    </g>
  </g>
  <g id="brush">
    <g id="shape11">
      <path id="path7" fill="#CCCCCC" fill-opacity="1" d="M763.85,623.1 L765.6,622.45 581.45,141.6 C578.45,133.75 573,131.3 565.15,134.35 L531.7,147.1 C523.85,150.15 521.45,155.6 524.45,163.45 L708.6,644.3 712.2,642.9 763.85,623.1z"/>
      <path id="path8" fill="#FFFFFF" fill-opacity="1" d="M808.65,692.5 C807.6,688.55 806.65,685.05 805.8,682.05 804.95,679.25 804.1,676.85 803.35,674.9 795.6,654.75 784.8,639.15 770.95,628.15 768.6,626.2 766.25,624.55 763.85,623.1 L712.2,642.9 C711.45,645.5 710.8,648.35 710.25,651.4 708.6,661.15 708.7,671.4 710.45,682.05 711.75,690.4 714.1,698.95 717.5,707.75 725.25,727.9 736,743.5 749.8,754.55 750.7,755.3 751.6,755.95 752.5,756.55 759.85,761.9 768.3,766.55 777.9,770.5 L841.8,796.45 C833,792.15 826.75,779.9 823,759.65 819.3,739.4 816.5,725.05 814.6,716.6 812.65,708.2 810.65,700.15 808.65,692.5z"/>
    </g>
  </g>
  <g id="ruler">
    <g id="shape15">
      <path id="path9" fill="#CCCCCC" fill-opacity="1" d="M753.8,459.6 L746.2,459.6 746.2,507.25 753.8,507.25 753.8,459.6z M703.5,459.35 L695.95,459.35 695.95,487.1 703.5,487.1 703.5,459.35z M653.25,507.25 L653.25,459.35 645.7,459.35 645.7,507.25 653.25,507.25z M251.2,459.35 L243.65,459.35 243.65,507.25 251.2,507.25 251.2,459.35z M301.45,459.35 L293.9,459.35 293.9,487.1 301.45,487.1 301.45,459.35z M603,459.35 L595.45,459.35 595.45,487.1 603,487.1 603,459.35z M502.5,459.35 L494.95,459.35 494.95,486.4 502.5,486.4 502.5,459.35z M552.75,459.35 L545.2,459.35 545.2,507.25 552.75,507.25 552.75,459.35z"/>
      <path id="path10" fill="#FFFFFF" fill-opacity="1" d="M753.8,459.35 L753.8,459.6 753.8,507.25 746.2,507.25 746.2,459.6 746.2,459.35 703.5,459.35 703.5,487.1 695.95,487.1 695.95,459.35 653.25,459.35 653.25,507.25 645.7,507.25 645.7,459.35 603,459.35 603,487.1 595.45,487.1 595.45,459.35 552.75,459.35 552.75,507.25 545.2,507.25 545.2,459.35 502.5,459.35 502.5,486.4 494.95,486.4 494.95,459.35 452.25,459.35 452.25,507.25 444.7,507.25 444.7,459.35 402,459.35 402,487.1 394.4,487.1 394.4,459.35 351.7,459.35 351.7,507.25 344.15,507.25 344.15,459.35 301.45,459.35 301.45,487.1 293.9,487.1 293.9,459.35 251.2,459.35 251.2,507.25 243.65,507.25 243.65,459.35 222.85,459.35 C214.5,459.35 210.25,463.6 210.25,471.95 L210.25,590.35 C210.25,598.75 214.5,602.95 222.85,602.95 L778.35,602.95 C786.7,602.95 790.95,598.75 790.95,590.35 L790.95,471.95 C790.95,463.6 786.7,459.35 778.35,459.35 L753.8,459.35z"/>
      <path id="path25" fill="#7D5E00" fill-opacity="1" d="M452.25,459.35 L444.7,459.35 444.7,507.25 452.25,507.25 452.25,459.35z M351.7,459.35 L344.15,459.35 344.15,507.25 351.7,507.25 351.7,459.35z"/>
      <path id="path28" fill="#967000" fill-opacity="1" d="M402,459.35 L394.4,459.35 394.4,487.1 402,487.1 402,459.35z"/>
    </g>
  </g>
  <g id="pen">
    <g id="shape37">
      <path id="path29" fill="#FFFFFF" fill-opacity="1" d="M447.3,150.85 L426.3,197.15 474.2,219 521.9,240.7 567.25,261.45 588.25,215.15 C592.15,206.65 590.3,200.55 582.65,197.05 L464.65,143.2 C457,139.75 451.25,142.35 447.3,150.85z M203.45,690.2 C203.45,690.45 203.55,690.65 203.6,690.8 203.8,692.65 204.45,694.3 205.55,695.75 L227.65,766.95 C234.5,767.45 241.65,769.5 248.95,772.9 256.5,776.3 262.85,780.5 267.95,785.55 L338.3,754.55 Q339.1,754.25 339.95,753.8 C341.15,753.15 342.25,752.15 343.35,750.9 343.05,748.95 342.5,746.8 341.7,744.55 339.05,737.6 334.4,732.6 327.6,729.5 320.75,726.4 313.8,726.15 306.9,728.65 303.5,729.95 300.6,731.75 298.1,733.95 297.45,734.6 296.75,735.3 296.1,736.05 L296,736.25 295.9,736.25 C296,736.15 296,736.15 296.05,736.1 296.05,735.8 296.05,735.45 296.1,735.15 296.4,731.25 295.85,727.35 294.35,723.5 291.75,716.5 287.05,711.5 280.25,708.4 273.45,705.25 266.55,705 259.5,707.65 256.2,708.85 253.3,710.6 250.75,712.8 249.75,713.7 248.85,714.7 247.85,715.95 247.8,716.1 247.8,716.2 247.75,716.4 L247.6,716.35 247.5,716.25 248.05,715.15 C248.2,714.4 248.25,713.6 248.3,712.95 248.7,709 248.1,705.1 246.6,701.2 243.9,694.3 239.25,689.25 232.45,686.15 225.65,683 218.7,682.75 211.8,685.3 208.55,686.55 205.85,688.2 203.45,690.2z"/>
      <path id="path30" fill="#717171" fill-opacity="1" d="M463.65,242.1 L474.2,219 426.3,197.15 415.7,220.25 463.65,242.1z"/>
      <path id="path31" fill="#666666" fill-opacity="1" d="M474.2,219 L463.65,242.1 511.3,263.8 521.9,240.7 474.2,219z"/>
      <path id="path32" fill="#EAEAEA" fill-opacity="1" d="M463.65,242.1 L415.7,220.25 205.4,681.55 C204.2,684.25 203.55,686.75 203.45,688.95 203.55,689.3 203.45,689.8 203.45,690.2 205.85,688.2 208.55,686.55 211.8,685.3 218.7,682.75 225.65,683 232.45,686.15 239.25,689.25 243.9,694.3 246.6,701.2 248.1,705.1 248.7,709 248.3,712.95 248.25,713.6 248.2,714.4 248.05,715.15 L463.65,242.1z"/>
      <path id="path33" fill="#515151" fill-opacity="1" d="M521.9,240.7 L511.3,263.8 556.65,284.55 567.25,261.45 521.9,240.7z"/>
      <path id="path34" fill="#BEBEBE" fill-opacity="1" d="M556.65,284.55 L511.3,263.8 296.1,736.05 C296.75,735.3 297.45,734.6 298.1,733.95 300.6,731.75 303.5,729.95 306.9,728.65 313.8,726.15 320.75,726.4 327.6,729.5 334.4,732.6 339.05,737.6 341.7,744.55 342.5,746.8 343.05,748.95 343.35,750.9 344.4,749.6 345.4,747.95 346.35,745.85 L556.65,284.55z"/>
      <path id="path35" fill="#CCCCCC" fill-opacity="1" d="M511.3,263.8 L463.65,242.1 248.05,715.15 247.5,716.25 247.6,716.35 247.75,716.4 C247.8,716.2 247.8,716.1 247.85,715.95 248.85,714.7 249.75,713.7 250.75,712.8 253.3,710.6 256.2,708.85 259.5,707.65 266.55,705 273.45,705.25 280.25,708.4 287.05,711.5 291.75,716.5 294.35,723.5 295.85,727.35 296.4,731.25 296.1,735.15 296.05,735.45 296.05,735.8 296.05,736.1 296,736.15 296,736.15 295.9,736.25 L296,736.25 296.1,736.05 511.3,263.8z"/>
      <path id="path38" fill="#919D9F" fill-opacity="1" d="M267.95,785.55 C262.85,780.5 256.5,776.3 248.95,772.9 241.65,769.5 234.5,767.45 227.65,766.95 L237.6,798.9 267.95,785.55z"/>
    </g>
  </g>
</svg>