<?xml version="1.0" encoding="utf-8"?>
<!-- Generator: flash2svg, http://dissentgraphics.com/tools/flash2svg -->
<svg xmlns:xlink="http://www.w3.org/1999/xlink" id="APP-alt" image-rendering="optimizeSpeed" baseProfile="basic" version="1.1" style="background-color:#ffffff" x="0px" y="0px" width="1024px" height="1024px" viewBox="0 0 1024 1024" enable-background="new 0 0 1024 1024" xmlns="http://www.w3.org/2000/svg">
  <defs transform="matrix(1 0 0 1 0 0) "/>
  <g id="shadow">
    <g id="shape">
      <path id="path" fill="#000000" fill-opacity="0.09803921568627451" d="M957.65,339.3 Q949.037,318.427 938.25,298.45 C934.2,290.9 929.9,283.4 925.35,276.05 905.8,244.35 881.95,214.4 853.8,186.25 761.65,94.1 650.35,48 520,48 389.65,48 278.4,94.1 186.25,186.25 94.1,278.4 48,389.65 48,520 48,650.35 94.1,761.65 186.25,853.8 278.4,945.95 389.65,992 520,992 650.35,992 761.65,945.95 853.8,853.8 904.55,803 941.35,746.4 964.15,684.05 982.7,633.2 992,578.55 992,520 992,475.1 986.55,432.45 975.6,392.05 974.35,387.5 973.05,382.95 971.7,378.45 967.6,365.15 962.9,352.1 957.65,339.3z"/>
    </g>
  </g>
  <g id="bg.__20circle">
    <g id="shape2">
      <path id="path1" fill="#464646" fill-opacity="1" d="M969.75,392.05 C968.65,387.7 967.4,383.05 966.1,378.45 963.6,369.7 960.75,360.85 957.65,352.1 951.2,333.85 943.5,316.05 934.5,298.45 930.7,291.05 926.55,283.5 922.2,276.05 L922.175,276.05 Q891.574,224.04 845.85,178.3 C753.7,86.15 642.4,40.05 512.05,40.05 381.7,40.05 270.45,86.15 178.3,178.3 86.15,270.45 40.05,381.7 40.05,512.05 40.05,642.4 86.15,753.7 178.3,845.85 270.45,938 381.7,984.05 512.05,984.05 524.75,984.05 537.25,983.6 549.1,982.8 569.3,981.35 589,978.75 607.8,975.1 615.75,973.55 623.6,971.8 631.2,969.95 712,949.65 783.35,908.35 845.85,845.85 894.45,797.25 930.25,743.35 953.2,684.05 971.65,636.4 981.85,585.25 983.75,530.55 983.95,524.5 984.05,518.3 984.05,512.05 984.05,470.3 979.35,430.45 969.75,392.05z"/>
    </g>
  </g>
  <g id="inner.__20circle">
    <g id="shape4">
      <path id="path2" fill="#313131" fill-opacity="1" d="M983.725,530.55 L734.75,281.6 226.05,564.8 631.175,969.925 L631.2,969.95 C712,949.65 783.35,908.35 845.85,845.85 894.45,797.25 930.25,743.35 953.2,684.05 Q980.942,612.466 983.725,530.55z M238.15,605.45 L204.95,638.65 549.075,982.775 L549.1,982.8 C569.3,981.35 589,978.75 607.8,975.1 L238.15,605.45z"/>
    </g>
  </g>
  <g id="brush">
    <g id="shape8">
      <path id="path5" fill="none" stroke="#666666" stroke-opacity="1" stroke-width="22.45" stroke-linecap="square" stroke-linejoin="bevel" d="M499.8,516.6 L499.8,516.55 499.75,516.5"/>
      <path id="path6" fill="none" stroke="#666666" stroke-opacity="1" stroke-width="22.45" stroke-linecap="square" stroke-linejoin="bevel" d="M605.35,410.9 L605.4,410.95"/>
      <path id="path7" fill="#CCCCCC" fill-opacity="1" d="M747.05,311.15 C747,299.6 742.9,289.75 734.75,281.6 L605.4,410.95 C619.25,424.8 626.55,441.4 627.2,460.75 627.25,461.75 627.25,462.75 627.25,463.7 627.3,484.3 620,501.9 605.35,516.55 590.8,531.1 573.2,538.4 552.55,538.4 531.95,538.4 514.35,531.15 499.8,516.6 L403,613.4 584.45,794.85 C586.2,789.25 587.6,782.85 588.6,775.75 L588.6,667.3 C590.15,634.85 606.7,600.25 638.1,563.55 L695.35,506.25 C710.3,490.55 720.55,472.9 726.15,453.3 726.45,452.3 726.7,451.2 727,450.2 727,450.2 747.05,316 747.05,311.15z"/>
      <path id="path8" fill="none" stroke="#666666" stroke-opacity="1" stroke-width="22.45" stroke-linecap="square" stroke-linejoin="bevel" d="M605.4,410.95 C619.25,424.8 626.55,441.4 627.2,460.75 627.25,461.75 627.25,462.75 627.25,463.7 627.3,484.3 620,501.9 605.35,516.55 590.8,531.1 573.2,538.4 552.55,538.4 531.95,538.4 514.35,531.15 499.8,516.6"/>
      <path id="path9" fill="#F1F1F1" fill-opacity="1" d="M734.7,281.5 C726.45,273.3 716.6,269.25 705.05,269.2 700.25,269.2 566.1,289.3 566.1,289.3 Q564.5,289.65 562.95,290.1 C543.35,295.7 525.7,305.95 510,320.95 L452.75,378.25 C416.05,409.65 381.4,426.15 348.9,427.65 L240.5,427.7 C233.4,428.65 227,430.05 221.5,431.9 L402.95,613.3 499.75,516.5 C485.2,501.85 477.9,484.25 477.9,463.7 477.9,462.75 477.9,461.8 477.95,460.75 478.65,441.4 485.9,424.8 499.75,410.95 514.4,396.3 532,389 552.6,389 573.15,389 590.75,396.3 605.35,410.9 L734.7,281.5z"/>
      <path id="path10" fill="none" stroke="#666666" stroke-opacity="1" stroke-width="22.45" stroke-linecap="square" stroke-linejoin="bevel" d="M499.75,516.5 C485.2,501.85 477.9,484.25 477.9,463.7 477.9,462.75 477.9,461.8 477.95,460.75 478.65,441.4 485.9,424.8 499.75,410.95 514.4,396.3 532,389 552.6,389 573.15,389 590.75,396.3 605.35,410.9"/>
      <path id="path11" fill="#999999" fill-opacity="1" d="M221.5,431.9 C210.6,435.35 202.25,440.3 196.25,446.8 L382.85,633.35 402.95,613.3 221.5,431.9z M403,613.4 L382.9,633.45 569.45,820 C575.95,813.95 580.9,805.6 584.45,794.85 L403,613.4z"/>
      <path id="path12" fill="#23CBFF" fill-opacity="1" d="M605.4,410.95 L605.35,410.9 C590.75,396.3 573.15,389 552.6,389 532,389 514.4,396.3 499.75,410.95 485.9,424.8 478.65,441.4 477.95,460.75 L627.2,460.75 C626.55,441.4 619.25,424.8 605.4,410.95z"/>
      <path id="path13" fill="none" stroke="#666666" stroke-opacity="1" stroke-width="22.45" stroke-linecap="square" stroke-linejoin="bevel" d="M627.2,460.75 C626.55,441.4 619.25,424.8 605.4,410.95 L605.35,410.9 C590.75,396.3 573.15,389 552.6,389 532,389 514.4,396.3 499.75,410.95 485.9,424.8 478.65,441.4 477.95,460.75"/>
      <path id="path14" fill="#2BB4E2" fill-opacity="1" d="M627.25,463.7 C627.25,462.75 627.25,461.75 627.2,460.75 L477.95,460.75 C477.9,461.8 477.9,462.75 477.9,463.7 477.9,484.25 485.2,501.85 499.75,516.5 L499.8,516.55 499.8,516.6 C514.35,531.15 531.95,538.4 552.55,538.4 573.2,538.4 590.8,531.1 605.35,516.55 620,501.9 627.3,484.3 627.25,463.7z"/>
      <path id="path15" fill="none" stroke="#666666" stroke-opacity="1" stroke-width="22.45" stroke-linecap="square" stroke-linejoin="bevel" d="M477.95,460.75 C477.9,461.8 477.9,462.75 477.9,463.7 477.9,484.25 485.2,501.85 499.75,516.5 L499.8,516.55 499.8,516.6 C514.35,531.15 531.95,538.4 552.55,538.4 573.2,538.4 590.8,531.1 605.35,516.55 620,501.9 627.3,484.3 627.25,463.7 C627.25,462.75 627.25,461.75 627.2,460.75"/>
      <path id="path18" fill="#FF9A00" fill-opacity="1" d="M220.75,588.05 C215.5,582.8 210.2,582.8 204.9,588.05 L187.5,605.45 C182.25,610.7 182.3,616 187.55,621.25 L204.95,638.65 C210.2,643.9 215.45,643.9 220.7,638.65 L238.1,621.25 C243.4,616 243.4,610.7 238.15,605.45 L220.75,588.05z M268.6,635.85 C263.35,630.6 258.05,630.65 252.75,635.9 L235.35,653.3 C230.1,658.55 230.15,663.8 235.4,669.05 L252.75,686.45 C258.05,691.75 263.3,691.75 268.55,686.5 L285.95,669.1 C291.25,663.85 291.25,658.55 285.95,653.25 L268.6,635.85z M316.45,683.75 C311.2,678.45 305.9,678.45 300.6,683.7 L283.2,701.1 C277.95,706.35 278,711.65 283.25,716.95 L300.65,734.35 C305.9,739.6 311.15,739.55 316.4,734.3 L333.8,716.9 C339.1,711.65 339.1,706.4 333.85,701.15 L316.45,683.75z M364.3,731.6 C359,726.3 353.7,726.3 348.4,731.55 L331,748.95 C325.75,754.2 325.8,759.5 331.1,764.8 L348.5,782.15 C353.75,787.4 358.95,787.4 364.2,782.15 L381.6,764.75 C386.9,759.5 386.95,754.2 381.7,748.95 L364.3,731.6z M412.1,779.4 C406.85,774.15 401.55,774.15 396.25,779.4 L378.85,796.8 C373.6,802.05 373.65,807.35 378.9,812.6 L396.3,830 C401.55,835.25 406.8,835.25 412.05,830 L429.45,812.6 C434.75,807.35 434.75,802.05 429.5,796.8 L412.1,779.4z"/>
      <path id="path19" fill="#666666" fill-opacity="1" d="M209,532.05 C203.8,537.3 203.8,542.6 209.1,547.85 L468.4,807.2 C473.7,812.45 479,812.45 484.2,807.2 L497.45,748.4 382.65,633.6 267.85,518.75 209,532.05z"/>
    </g>
  </g>
</svg>