<?xml version="1.0" encoding="utf-8"?>
<!-- Generator: flash2svg, http://dissentgraphics.com/tools/flash2svg -->
<svg xmlns:xlink="http://www.w3.org/1999/xlink" id="APP-alt" image-rendering="optimizeSpeed" baseProfile="basic" version="1.1" style="background-color:#ffffff" x="0px" y="0px" width="1024px" height="1024px" viewBox="0 0 1024 1024" enable-background="new 0 0 1024 1024" xmlns="http://www.w3.org/2000/svg">
  <defs transform="matrix(1 0 0 1 0 0) "/>
  <g id="shadow">
    <g id="shape">
      <path id="path" fill="#000000" fill-opacity="0.09803921568627451" d="M965.65,347.3 Q957.05,326.45 946.25,306.45 C942.2,298.9 937.9,291.4 933.35,284.05 913.8,252.35 889.95,222.4 861.8,194.25 769.65,102.1 658.35,56 528,56 397.65,56 286.4,102.1 194.25,194.25 102.1,286.4 56,397.65 56,528 56,658.35 102.1,769.65 194.25,861.8 286.4,953.95 397.65,1000 528,1000 658.35,1000 769.65,953.95 861.8,861.8 912.55,811 949.35,754.4 972.15,692.05 990.7,641.2 1000,586.55 1000,528 1000,483.1 994.55,440.45 983.6,400.05 982.35,395.5 981.05,390.95 979.7,386.45 975.6,373.15 970.9,360.1 965.65,347.3z"/>
    </g>
  </g>
  <g id="Logo">
    <g id="shape2">
      <path id="path1" fill="#7C3198" fill-opacity="1" d="M955.7,661.2 Q979.15,590.55 979.15,510.3 C979.15,380.6 933.3,269.9 841.55,178.15 749.85,86.45 639.15,40.6 509.4,40.6 379.7,40.6 269,86.45 177.25,178.15 85.55,269.9 39.7,380.6 39.7,510.3 39.7,640.05 85.55,750.75 177.25,842.45 269,934.2 379.7,980.05 509.4,980.05 517.55,980.05 525.65,979.9 533.65,979.55 653,974.1 755.6,928.4 841.55,842.45 895.45,788.55 933.5,728.15 955.7,661.2z"/>
    </g>
  </g>
  <g id="Logo1">
    <g id="shape4">
      <path id="path2" fill="#681C80" fill-opacity="1" d="M559.65,265.1 L331.95,321.55 278,723.9 533.65,979.55 C653,974.1 755.6,928.4 841.55,842.45 895.45,788.55 933.5,728.15 955.7,661.2 L559.65,265.1z"/>
    </g>
  </g>
  <g id="P">
    <g id="shape6">
      <path id="path3" fill="#FFFFFF" fill-opacity="1" d="M585.45,291.3 C574.95,278.05 561.15,268.15 544.1,261.6 527.05,255.05 506.85,251.8 483.5,251.8 L279.5,251.8 279.5,725.15 370.1,725.15 370.1,537.6 423.15,544.85 496.4,550.55 C517.05,550.55 535.8,546.65 552.65,538.85 565.5,533.4 576.1,525.3 584.5,514.55 592.95,504 600.1,488.85 606,469.05 611.65,449.3 614.5,425.6 614.5,398 614.5,350.45 604.8,314.85 585.45,291.3z M476.2,332 C491.8,332 503.5,337.6 511.25,348.75 519.25,359.7 523.35,376.35 523.6,398.65 523.6,416.3 521.7,430.65 517.9,441.6 514.35,452.55 508.85,460.2 501.45,464.65 494.95,468.45 486.55,470.35 476.2,470.35 L370.1,470.35 370.1,332 476.2,332z"/>
    </g>
  </g>
  <g id="r">
    <g id="shape11">
      <path id="path7" fill="#FFFFFF" fill-opacity="1" d="M681.5,545.9 L672.95,519.95 627.1,519.95 627.1,725.9 681.5,725.9 681.5,594.4 C687.65,585.55 694.85,579.5 703.1,576.25 711.15,573.1 721.4,571.5 733.8,571.5 L763.35,572.65 763.35,520.35 C759.2,518.7 751.55,517.85 740.4,517.85 730.45,517.85 720.6,520.2 710.85,524.9 701,529.55 691.2,536.55 681.5,545.9z"/>
    </g>
  </g>
</svg>