<?xml version="1.0" encoding="utf-8"?>
<!-- Generator: flash2svg, http://dissentgraphics.com/tools/flash2svg -->
<svg xmlns:xlink="http://www.w3.org/1999/xlink" id="APP" image-rendering="optimizeSpeed" baseProfile="basic" version="1.1" style="background-color:#ffffff" x="0px" y="0px" width="1024px" height="1024px" viewBox="0 0 1024 1024" enable-background="new 0 0 1024 1024" xmlns="http://www.w3.org/2000/svg">
  <defs transform="matrix(1 0 0 1 0 0) "/>
  <g id="shadow">
    <g id="shape">
      <path id="path" fill="#000000" fill-opacity="0.09803921568627451" d="M965.65,347.3 Q957.05,326.45 946.25,306.45 C942.2,298.9 937.9,291.4 933.35,284.05 913.8,252.35 889.95,222.4 861.8,194.25 769.65,102.1 658.35,56 528,56 397.65,56 286.4,102.1 194.25,194.25 102.1,286.4 56,397.65 56,528 56,658.35 102.1,769.65 194.25,861.8 286.4,953.95 397.65,1000 528,1000 658.35,1000 769.65,953.95 861.8,861.8 912.55,811 949.35,754.4 972.15,692.05 990.7,641.2 1000,586.55 1000,528 1000,483.1 994.55,440.45 983.6,400.05 982.35,395.5 981.05,390.95 979.7,386.45 975.6,373.15 970.9,360.1 965.65,347.3z"/>
    </g>
  </g>
  <g id="Calque.__201">
    <g id="shape2">
      <path id="path1" fill="#7C3198" fill-opacity="1" d="M980.6,510.4 Q980.6,315.45 842.8,177.6 C750.9,85.7 639.95,39.75 509.95,39.75 380,39.75 269.05,85.7 177.15,177.6 85.25,269.5 39.3,380.45 39.3,510.4 39.3,640.4 85.25,751.35 177.15,843.25 269.05,935.1 380,981.05 509.95,981.05 639.95,981.05 750.9,935.1 842.8,843.25 934.65,751.35 980.6,640.4 980.6,510.4z"/>
    </g>
  </g>
  <g id="Calque.__202">
    <g id="shape4">
      <path id="path2" fill="#67227E" fill-opacity="1" d="M757.05,757.5 Q859.35,655.15 859.35,510.4 C859.35,413.9 825.25,331.55 757.05,263.35 688.8,195.15 606.45,161.05 509.95,161.05 413.45,161.05 331.1,195.15 262.9,263.35 194.7,331.55 160.6,413.9 160.6,510.4 160.6,606.9 194.7,689.25 262.9,757.5 331.1,825.7 413.45,859.8 509.95,859.8 606.45,859.8 688.8,825.7 757.05,757.5z"/>
    </g>
  </g>
  <g id="Logo.__20Shadow">
    <g id="shape6">
      <path id="path3" fill="#000000" fill-opacity="0.2" d="M558.55,280.85 C541.45,274.3 521.2,271.05 497.8,271.05 L293.4,271.05 293.4,745.3 384.2,745.3 384.2,557.35 437.35,564.65 510.75,570.35 C531.4,570.35 550.2,566.45 567.1,558.65 579.95,553.15 590.6,545 599.05,534.25 607.5,523.7 614.65,508.55 620.55,488.7 626.25,468.85 629.1,445.15 629.1,417.5 629.1,369.85 619.4,334.2 600,310.6 589.45,297.3 575.6,287.4 558.55,280.85z M525.65,368.15 C533.65,379.1 537.75,395.8 537.95,418.15 537.95,435.9 536.05,450.25 532.3,461.2 528.7,472.15 523.2,479.85 515.85,484.3 509.3,488.05 500.85,489.95 490.5,489.95 L384.2,489.95 384.2,351.4 490.5,351.4 C506.15,351.4 517.85,357 525.65,368.15z M725.6,544.75 Q710.8,551.75 696.2,565.8 L687.65,539.8 641.7,539.8 641.7,746.15 696.2,746.15 696.2,614.4 C702.4,605.55 709.6,599.45 717.8,596.2 725.9,593.05 736.15,591.45 748.55,591.45 L778.2,592.6 778.2,540.2 C774,538.55 766.35,537.7 755.2,537.7 745.2,537.7 735.35,540.05 725.6,544.75z"/>
    </g>
  </g>
  <g id="Symbole.__205">
    <g id="shape13">
      <path id="path9" fill="#FFFFFF" fill-opacity="1" d="M580.3,290.9 C569.75,277.6 555.9,267.7 538.85,261.15 521.75,254.6 501.5,251.35 478.1,251.35 L273.7,251.35 273.7,725.6 364.5,725.6 364.5,537.65 417.65,544.95 491.05,550.65 C511.7,550.65 530.5,546.75 547.4,538.95 560.25,533.45 570.9,525.3 579.35,514.55 587.8,504 594.95,488.85 600.85,469 606.55,449.15 609.4,425.45 609.4,397.8 609.4,350.15 599.7,314.5 580.3,290.9z M470.8,331.7 C486.45,331.7 498.15,337.3 505.95,348.45 513.95,359.4 518.05,376.1 518.25,398.45 518.25,416.2 516.35,430.55 512.6,441.5 509,452.45 503.5,460.15 496.15,464.6 489.6,468.35 481.15,470.25 470.8,470.25 L364.5,470.25 364.5,331.7 470.8,331.7z M698.05,576.45 Q710.2,571.7 728.8,571.7 L758.45,572.85 758.45,520.45 C754.25,518.8 746.6,517.95 735.45,517.95 725.45,517.95 715.6,520.3 705.85,525 696,529.65 686.2,536.7 676.45,546.05 L667.9,520.05 621.95,520.05 621.95,726.4 676.45,726.4 676.45,594.65 C682.65,585.8 689.85,579.7 698.05,576.45z"/>
    </g>
  </g>
</svg>