<?xml version="1.0" encoding="utf-8"?>
<!-- Generator: flash2svg, http://dissentgraphics.com/tools/flash2svg -->
<svg xmlns:xlink="http://www.w3.org/1999/xlink" id="Activity-Monitor" image-rendering="optimizeSpeed" baseProfile="basic" version="1.1" style="background-color:#ffffff" x="0px" y="0px" width="1024px" height="1024px" viewBox="0 0 1024 1024" enable-background="new 0 0 1024 1024" xmlns="http://www.w3.org/2000/svg">
  <defs transform="matrix(1 0 0 1 0 0) ">
    <linearGradient gradientUnits="userSpaceOnUse" color-interpolation="sRGB" x1="197.625" y1="437.65" x2="826.475" y2="437.65" id="linearGradient1">
      <stop stop-color="#00FF00" stop-opacity="1" offset="0"/>
      <stop stop-color="#FF0000" stop-opacity="1" offset="1"/>
    </linearGradient>
  </defs>
  <g id="shadow">
    <g id="shape">
      <path id="path" fill="#000000" fill-opacity="0.09803921568627451" d="M969.65,351.3 Q961.05,330.45 950.25,310.45 C946.2,302.9 941.9,295.4 937.35,288.05 917.8,256.35 893.95,226.4 865.8,198.25 773.65,106.1 662.35,60 532,60 401.65,60 290.4,106.1 198.25,198.25 106.1,290.4 60,401.65 60,532 60,662.35 106.1,773.65 198.25,865.8 290.4,957.95 401.65,1004 532,1004 662.35,1004 773.65,957.95 865.8,865.8 916.55,815 953.35,758.4 976.15,696.05 994.7,645.2 1004,590.55 1004,532 1004,487.1 998.55,444.45 987.6,404.05 986.35,399.5 985.05,394.95 983.7,390.45 979.6,377.15 974.9,364.1 969.65,351.3z"/>
    </g>
  </g>
  <g id="criclebg">
    <g id="shape2">
      <path id="path1" fill="#374268" fill-opacity="1" d="M849.15,181.65 C848.05,180.5 846.95,179.4 845.85,178.3 811.5,143.95 774.55,116.05 734.95,94.55 728.25,90.9 721.5,87.45 714.3,84 679.25,67.25 641.8,55.15 602.4,48 599.3,47.45 596.2,46.9 593.05,46.4 592.75,46.35 592.45,46.3 592.2,46.25 588,45.6 583.8,45 579.45,44.4 575.4,43.9 571.25,43.4 567.05,42.95 563.45,42.55 559.85,42.2 556.05,41.9 551.6,41.5 546.9,41.15 542.15,40.9 541.7,40.85 541.3,40.85 540.85,40.85 531.35,40.3 521.75,40.05 512.05,40.05 502.7,40.05 493.45,40.3 484.15,40.8 482.45,40.9 480.75,41 479.05,41.1 475.4,41.3 471.75,41.55 468.05,41.9 461.95,42.4 455.85,43 449.8,43.75 448,43.95 446.25,44.15 444.6,44.4 401,50.15 359.9,61.6 321.3,78.75 317.45,80.45 313.6,82.2 309.75,84.05 262.25,106.7 218.5,138.1 178.3,178.3 177.75,178.85 177.25,179.35 176.75,179.85 176.1,180.5 175.5,181.1 174.9,181.75 134.45,222.9 103.15,267.8 80.9,316.5 73.05,333.65 66.4,351.1 60.85,369 Q40.05,436.2 40.05,512.05 C40.05,640.8 85,750.95 174.9,842.45 175.5,843.05 176.1,843.65 176.75,844.3 177.25,844.8 177.75,845.3 178.3,845.85 181.75,849.3 185.2,852.65 188.4,855.7 226.2,891.5 266.75,919.65 309.75,940.1 313.7,941.95 317.5,943.7 321.3,945.4 326.85,947.85 332.1,950.05 337.4,952.15 343.85,954.75 350,957 356.2,959.1 384.8,968.9 414.4,975.8 444.6,979.75 446.5,980 448.15,980.2 449.8,980.4 461.3,981.8 472.65,982.75 484.15,983.35 484.3,983.35 484.4,983.35 484.55,983.35 493.05,983.8 501.15,984.05 509.05,984.05 510.25,984.05 511.15,984.05 512.05,984.05 521.8,984.05 531.4,983.8 540.85,983.35 541.3,983.3 541.7,983.3 542.15,983.25 544.65,983.1 546.9,982.95 549.1,982.8 559.4,982.05 569.55,981.05 579.45,979.75 587.25,978.7 594.9,977.5 602.4,976.15 604.3,975.8 606.05,975.45 607.8,975.1 615.75,973.55 623.6,971.8 631.2,969.95 660.1,962.7 687.8,952.75 714.3,940.2 721.3,936.8 728.15,933.3 734.95,929.65 760.15,915.95 784.3,899.65 807.35,880.8 820.6,869.9 833.4,858.3 845.85,845.85 846.95,844.75 848.05,843.65 849.15,842.55 849.8,841.9 850.4,841.25 851.05,840.6 873.65,817.35 893.25,793.1 909.95,767.7 927.5,741.15 941.9,713.25 953.2,684.05 957.15,673.8 960.75,663.4 963.95,652.9 975.65,614.25 982.25,573.5 983.75,530.55 983.95,524.5 984.05,518.3 984.05,512.05 984.05,511.4 984.05,510.7 984.05,510.05 984.05,509.7 984.05,509.4 984.05,509.05 983.85,468.4 979.1,429.55 969.75,392.05 968.65,387.7 967.4,383.05 966.1,378.45 963.85,370.6 961.35,362.65 958.55,354.65 958.25,353.9 957.95,353 957.65,352.1 953.4,340.1 948.65,328.3 943.25,316.5 940.55,310.55 937.6,304.5 934.5,298.45 930.7,291.05 926.55,283.5 922.2,276.05 904.25,245.5 882.15,216.35 855.7,188.4 854.25,186.9 852.65,185.25 851.05,183.6 850.4,182.95 849.8,182.3 849.15,181.65z"/>
    </g>
  </g>
  <mask id="criclebg1">
    <g id="g">
      <g id="shape14">
        <path id="path12" fill="#FFFFFF" fill-opacity="1" d="M849.15,181.65 C848.05,180.5 846.95,179.4 845.85,178.3 811.5,143.95 774.55,116.05 734.95,94.55 728.25,90.9 721.5,87.45 714.3,84 679.25,67.25 641.8,55.15 602.4,48 599.3,47.45 596.2,46.9 593.05,46.4 592.75,46.35 592.45,46.3 592.2,46.25 588,45.6 583.8,45 579.45,44.4 575.4,43.9 571.25,43.4 567.05,42.95 563.45,42.55 559.85,42.2 556.05,41.9 551.6,41.5 546.9,41.15 542.15,40.9 541.7,40.85 541.3,40.85 540.85,40.85 531.35,40.3 521.75,40.05 512.05,40.05 502.7,40.05 493.45,40.3 484.15,40.8 482.45,40.9 480.75,41 479.05,41.1 475.4,41.3 471.75,41.55 468.05,41.9 461.95,42.4 455.85,43 449.8,43.75 448,43.95 446.25,44.15 444.6,44.4 401,50.15 359.9,61.6 321.3,78.75 317.45,80.45 313.6,82.2 309.75,84.05 262.25,106.7 218.5,138.1 178.3,178.3 177.75,178.85 177.25,179.35 176.75,179.85 176.1,180.5 175.5,181.1 174.9,181.75 134.45,222.9 103.15,267.8 80.9,316.5 73.05,333.65 66.4,351.1 60.85,369 Q40.05,436.2 40.05,512.05 C40.05,640.8 85,750.95 174.9,842.45 175.5,843.05 176.1,843.65 176.75,844.3 177.25,844.8 177.75,845.3 178.3,845.85 181.75,849.3 185.2,852.65 188.4,855.7 226.2,891.5 266.75,919.65 309.75,940.1 313.7,941.95 317.5,943.7 321.3,945.4 326.85,947.85 332.1,950.05 337.4,952.15 343.85,954.75 350,957 356.2,959.1 384.8,968.9 414.4,975.8 444.6,979.75 446.5,980 448.15,980.2 449.8,980.4 461.3,981.8 472.65,982.75 484.15,983.35 484.3,983.35 484.4,983.35 484.55,983.35 493.05,983.8 501.15,984.05 509.05,984.05 510.25,984.05 511.15,984.05 512.05,984.05 521.8,984.05 531.4,983.8 540.85,983.35 541.3,983.3 541.7,983.3 542.15,983.25 544.65,983.1 546.9,982.95 549.1,982.8 559.4,982.05 569.55,981.05 579.45,979.75 587.25,978.7 594.9,977.5 602.4,976.15 604.3,975.8 606.05,975.45 607.8,975.1 615.75,973.55 623.6,971.8 631.2,969.95 660.1,962.7 687.8,952.75 714.3,940.2 721.3,936.8 728.15,933.3 734.95,929.65 760.15,915.95 784.3,899.65 807.35,880.8 820.6,869.9 833.4,858.3 845.85,845.85 846.95,844.75 848.05,843.65 849.15,842.55 849.8,841.9 850.4,841.25 851.05,840.6 873.65,817.35 893.25,793.1 909.95,767.7 927.5,741.15 941.9,713.25 953.2,684.05 957.15,673.8 960.75,663.4 963.95,652.9 975.65,614.25 982.25,573.5 983.75,530.55 983.95,524.5 984.05,518.3 984.05,512.05 984.05,511.4 984.05,510.7 984.05,510.05 984.05,509.7 984.05,509.4 984.05,509.05 983.85,468.4 979.1,429.55 969.75,392.05 968.65,387.7 967.4,383.05 966.1,378.45 963.85,370.6 961.35,362.65 958.55,354.65 958.25,353.9 957.95,353 957.65,352.1 953.4,340.1 948.65,328.3 943.25,316.5 940.55,310.55 937.6,304.5 934.5,298.45 930.7,291.05 926.55,283.5 922.2,276.05 904.25,245.5 882.15,216.35 855.7,188.4 854.25,186.9 852.65,185.25 851.05,183.6 850.4,182.95 849.8,182.3 849.15,181.65z"/>
      </g>
    </g>
  </mask>
  <g id="masked" mask="url(#criclebg1)">
    <g id="bg">
      <g id="group">
        <g id="group1">
          <g id="group2">
            <g id="group3">
              <g id="drawingObject">
                <path id="path2" fill="#CCCCCC" fill-opacity="0.984313725490196" d="M455.036,803.857 C445.88,803.857 437.961,807.156 431.445,813.673 424.928,820.19 421.67,828.067 421.67,837.265 L377.167,964.133 C377.167,973.331 380.425,981.208 386.942,987.725 393.458,994.242 401.336,997.5 410.534,997.5 L626.407,997.5 C635.605,997.5 643.524,994.242 650.04,987.725 656.516,981.208 659.815,973.331 659.815,964.133 L615.313,837.265 Q615.313,823.489 605.496,813.673 C598.98,807.156 591.102,803.857 581.905,803.857 L455.036,803.857z"/>
              </g>
            </g>
          </g>
          <g id="group4">
            <g id="group5">
              <g id="drawingObject1">
                <path id="path3" fill="#000000" fill-opacity="0.2" d="M455.078,803.857 C445.921,803.857 438.002,807.156 431.486,813.673 424.969,820.19 421.711,828.067 421.711,837.265 L403.687,888.697 633.378,888.697 615.354,837.265 Q615.354,823.489 605.538,813.673 C599.021,807.156 591.143,803.857 581.946,803.857 L455.078,803.857z"/>
              </g>
            </g>
          </g>
        </g>
      </g>
      <g id="group6">
        <g id="group7">
          <g id="drawingObject2">
            <path id="path4" fill="#28293C" fill-opacity="1" d="M874.1,271.5 C878.65,276.05 880.9,281.55 880.9,288 L880.9,747.15 900.85,747.15 900.85,288 C900.85,276.15 896.6,265.85 888.15,257.4 Q875.45,244.7 857.5,244.7 L168.05,244.7 C156.2,244.7 145.9,248.9 137.45,257.4 129,265.85 124.75,276.15 124.75,288 L124.75,747.15 144.7,747.15 144.7,288 C144.7,281.55 146.95,276.05 151.55,271.5 156.1,266.9 161.6,264.6 168.05,264.6 L857.5,264.6 C863.95,264.6 869.5,266.9 874.1,271.5z"/>
          </g>
          <g id="drawingObject3">
            <path id="path5" fill="#171922" fill-opacity="1" d="M880.9,288 C880.9,281.55 878.65,276.05 874.1,271.5 Q867.15,264.6 857.5,264.6 L168.05,264.6 C161.6,264.6 156.1,266.9 151.55,271.5 146.95,276.05 144.7,281.55 144.7,288 L144.7,747.15 880.9,747.15 880.9,288z"/>
          </g>
          <g id="drawingObject4">
            <path id="path6" fill="#CCCCCC" fill-opacity="1" d="M900.863,820.856 L900.863,747.152 124.765,747.152 124.765,820.856 C124.765,832.776 129.014,843.045 137.469,851.501 145.924,859.956 156.194,864.245 168.072,864.245 L857.515,864.245 C869.476,864.245 879.664,859.956 888.16,851.501 896.615,843.045 900.863,832.776 900.863,820.856z"/>
          </g>
        </g>
      </g>
      <g id="group8">
        <g id="group9">
          <g id="group10">
            <g id="group11">
              <g id="drawingObject5">
                <path id="path7" fill="#009D9B" fill-opacity="1" d="M512.903,282.031 C511.088,282.031 509.479,282.691 508.201,283.97 Q506.262,285.908 506.262,288.672 C506.262,290.528 506.922,292.136 508.201,293.415 509.479,294.693 511.088,295.353 512.903,295.353 514.759,295.353 516.367,294.693 517.646,293.415 518.924,292.136 519.584,290.528 519.584,288.672 519.584,286.816 518.965,285.248 517.646,283.97 516.367,282.691 514.759,282.031 512.903,282.031z"/>
              </g>
            </g>
          </g>
        </g>
      </g>
      <g id="group12">
        <g id="group13">
          <g id="drawingObject6">
            <path id="path8" fill="#FFFFFF" fill-opacity="0.058823529411764705" d="M888.21,257.515 Q875.507,244.811 857.565,244.811 L399.339,244.811 900.913,746.386 900.913,288.118 C900.913,276.24 896.665,265.97 888.21,257.515z"/>
          </g>
        </g>
      </g>
      <g id="group14">
        <g id="group15">
          <g id="group16">
            <g id="group17">
              <g id="drawingObject7">
                <path id="path9" fill="#2F363F" fill-opacity="1" d="M489.599,794.989 C483.495,805.507 487.991,821.056 493.93,829.593 496.817,833.759 500.282,838.461 504.736,838.296 509.149,838.09 510.799,835.45 516.037,835.45 521.234,835.45 522.76,838.296 527.379,838.172 532.04,838.09 535.01,833.965 537.897,829.717 541.196,824.892 542.557,820.231 542.64,819.984 L541.155,819.282 C540,818.581 538.969,817.839 538.02,816.89 534.968,814.003 533.442,810.415 533.36,806.125 533.36,797.423 540.536,793.216 540.784,793.01 536.824,787.153 530.473,786.328 528.245,786.204 Q525.152,785.916 520.698,787.607 515.996,789.38 515.13,789.38 C512.366,789.38 508.201,786.328 503.787,786.369 497.931,786.493 492.569,789.793 489.599,794.989z M514.594,785.462 C518.429,785.709 522.389,783.441 524.74,780.554 527.173,777.667 528.782,773.625 528.328,769.624 524.905,769.706 520.698,771.892 518.223,774.78 515.996,777.419 514.016,781.461 514.594,785.462z"/>
              </g>
            </g>
          </g>
        </g>
      </g>
    </g>
  </g>
  <g id="Calque.__2010">
    <g id="shape16">
      <path id="path13" fill="#999999" fill-opacity="1" d="M676.85,426.15 L674.7,429.65 527.95,731.1 572.15,731.1 676.85,426.15z"/>
      <path id="path14" fill="#CCCCCC" fill-opacity="1" d="M480.475,731.1 L527.95,731.1 674.7,429.65 480.475,731.1z"/>
    </g>
  </g>
  <g id="svg2">
    <g id="shape20">
      <path id="path15" fill="url(#linearGradient1)" fill-opacity="1" d="M718.4,456 L718.45,455.95 718.375,455.975 718.4,456"/>
      <path id="path16" fill="#62DF24" fill-opacity="1" d="M271.55,423.95 C268.95,426 266.2,428.3 263.45,430.6 254.3,438.3 245.35,446.5 236.65,455.2 L236.625,455.2 L236.6,455.225 L236.6,455.25 C224.2,467.7 212.8,480.55 202.4,493.85 198.6,498.7 197.05,504.2 197.8,510.3 198.55,516.4 201.35,521.35 206.2,525.15 211.05,528.95 216.55,530.5 222.65,529.75 228.7,529 233.7,526.25 237.55,521.4 246.85,509.45 257.05,497.95 268.2,486.8 L268.2,486.775 L268.175,486.8 L268.2,486.8 C279.15,475.85 290.45,465.85 302.15,456.7 L302.125,456.675 L302.15,456.65 271.525,423.95"/>
      <path id="path17" fill="#74B92E" fill-opacity="1" d="M381.45,362.8 C380.15,363.25 378.85,363.7 377.6,364.15 L377.575,364.15 L377.6,364.15 C374.85,365.15 372.15,366.15 369.4,367.2 335.7,380.25 304.1,398.4 274.6,421.55 L274.575,421.525 L274.55,421.55 C273.6,422.3 272.65,423.05 271.55,423.95 L271.525,423.95 L302.15,456.65 C306.4,453.3 310.75,450.1 315.1,447 339.4,429.65 365.25,416 392.7,406.15 L392.725,406.15 L392.75,406.15 C396.6,404.75 400.45,403.45 404.4,402.2 L381.45,362.775"/>
      <path id="path18" fill="#6D971B" fill-opacity="1" d="M511.4,341.75 C511.15,341.75 510.95,341.75 510.7,341.75 510.15,341.75 509.6,341.75 509.05,341.75 L509.05,341.725 L508.975,341.725 L509,341.75 C463.6,341.95 421.05,348.9 381.45,362.8 L381.45,362.775 L404.4,402.2 C437.15,391.75 472.05,386.5 509.05,386.4 L509.05,386.375 L509.125,386.375 L509.15,386.4 C509.65,386.4 510.15,386.4 510.7,386.4 510.95,386.35 511.15,386.35 511.4,386.4 L511.4,386.375 L511.4,341.725"/>
      <path id="path19" fill="#87731B" fill-opacity="1" d="M511.4,341.725 L511.4,386.375 L511.4,386.4 C549.15,386.4 584.75,391.75 618.1,402.5 L634.55,360.925 L634.55,360.95 C596.3,348.25 555.15,341.85 511.4,341.75"/>
      <path id="path20" fill="#D73D2A" fill-opacity="1" d="M826.3,514.3 Q827.569,505.18 821.975,497.75 L822,497.75 C810.85,483.05 798.4,468.9 784.75,455.25 780.3,450.8 775.85,446.55 771.35,442.4 767.3,438.65 763.15,435 759,431.5 755.7,428.7 752.35,425.95 748.75,423.05 L748.725,423.025 L718.45,455.95 718.4,456 C722.35,459.05 726.25,462.25 730.1,465.55 737.95,472.2 745.65,479.3 753.2,486.8 765.35,499 776.45,511.65 786.45,524.75 790.15,529.65 795.05,532.5 801.15,533.35 807.2,534.2 812.7,532.75 817.65,529.05 822.6,525.3 825.45,520.4 826.3,514.3z"/>
      <path id="path21" fill="#B44F34" fill-opacity="1" d="M718.375,455.975 L718.45,455.95 748.725,423.025 L748.75,423.05 C719.15,399.5 687.15,380.95 653.05,367.6 649.15,366.05 645.25,364.6 641.3,363.2 L641.275,363.2 L641.25,363.2 C639.1,362.45 636.95,361.7 634.55,360.95 L634.55,360.925 L618.1,402.5 C620.9,403.4 623.7,404.35 626.45,405.3 L626.425,405.3 L626.45,405.3 C659.3,416.9 689.95,433.8 718.4,456"/>
    </g>
  </g>
</svg>