<?xml version="1.0" encoding="utf-8"?>
<!-- Generator: flash2svg, http://dissentgraphics.com/tools/flash2svg -->
<svg xmlns:xlink="http://www.w3.org/1999/xlink" id="Adobe-Illustrator-app" image-rendering="optimizeSpeed" baseProfile="basic" version="1.1" style="background-color:#ffffff" x="0px" y="0px" width="1024px" height="1024px" viewBox="0 0 1024 1024" enable-background="new 0 0 1024 1024" xmlns="http://www.w3.org/2000/svg">
  <defs transform="matrix(1 0 0 1 0 0) "/>
  <g id="shadow">
    <g id="shape">
      <path id="path" fill="#000000" fill-opacity="0.09803921568627451" d="M965.65,347.3 Q957.05,326.45 946.25,306.45 C942.2,298.9 937.9,291.4 933.35,284.05 913.8,252.35 889.95,222.4 861.8,194.25 769.65,102.1 658.35,56 528,56 397.65,56 286.4,102.1 194.25,194.25 102.1,286.4 56,397.65 56,528 56,658.35 102.1,769.65 194.25,861.8 286.4,953.95 397.65,1000 528,1000 658.35,1000 769.65,953.95 861.8,861.8 912.55,811 949.35,754.4 972.15,692.05 990.7,641.2 1000,586.55 1000,528 1000,483.1 994.55,440.45 983.6,400.05 982.35,395.5 981.05,390.95 979.7,386.45 975.6,373.15 970.9,360.1 965.65,347.3z"/>
    </g>
  </g>
  <g id="BackgroundInner">
    <g id="shape2">
      <path id="path1" fill="#AF8F29" fill-opacity="1" d="M951.95,691.1 C958.6,674.8 964.25,658.05 968.95,640.8 979.95,600.35 985.45,557.5 985.45,512.3 Q985.45,316.5 847,178.05 C754.7,85.75 643.25,39.6 512.7,39.6 382.15,39.6 270.75,85.75 178.45,178.05 86.15,270.35 40,381.75 40,512.3 40,642.85 86.15,754.3 178.45,846.6 260.6,928.8 357.95,974.4 470.4,983.35 484.25,984.5 498.35,985.05 512.7,985.05 520.2,985.05 527.65,984.9 534.7,984.6 656,979.6 760,933.6 847,846.6 893.9,799.7 928.9,747.85 951.95,691.1z"/>
    </g>
  </g>
  <g id="LogoBg">
    <g id="shape4">
      <path id="path2" fill="#000000" fill-opacity="0.2" d="M734.05,448.05 L717.2,449.2 525.35,257.35 354.825,534.05 288.1,730.05 542.275,984.225 L542.3,984.25 C660.55,977.55 761.9,931.7 847,846.6 893.9,799.7 928.9,747.85 951.95,691.1 Q955.617,682.075 958.875,672.875 L734.05,448.05z"/>
    </g>
  </g>
  <g id="Ico">
    <g id="shape6">
      <path id="path3" fill="#FFFFFF" fill-opacity="1" d="M736.15,492.3 L736.15,457.9 C736.15,451.25 733.55,447.95 728.3,447.95 L691,447.95 C685.35,447.95 682.5,451.3 682.5,457.9 L682.5,492.3 C682.5,495.15 683.2,497.35 684.75,499.05 686.3,500.5 688.3,501.25 691,501.25 L728.3,501.25 C733.55,501.25 736.15,498.3 736.15,492.3z M734.05,523.2 L684.25,523.2 684.25,729.8 734.05,729.8 734.05,523.2z M524.3,254.05 L430.05,254.05 284,729 372.7,729 403.95,623.75 546.2,623.75 576.9,729 665.4,729 524.3,254.05z M426,543.3 L478,373.55 526.55,543.3 426,543.3z"/>
    </g>
  </g>
</svg>