<?xml version="1.0" encoding="utf-8"?>
<!-- Generator: flash2svg, http://dissentgraphics.com/tools/flash2svg -->
<svg xmlns:xlink="http://www.w3.org/1999/xlink" id="Adobe-Indesign-app" image-rendering="optimizeSpeed" baseProfile="basic" version="1.1" style="background-color:#ffffff" x="0px" y="0px" width="1024px" height="1024px" viewBox="0 0 1024 1024" enable-background="new 0 0 1024 1024" xmlns="http://www.w3.org/2000/svg">
  <defs transform="matrix(1 0 0 1 0 0) "/>
  <g id="shadow">
    <g id="shape">
      <path id="path" fill="#000000" fill-opacity="0.09803921568627451" d="M965.65,347.3 Q957.05,326.45 946.25,306.45 C942.2,298.9 937.9,291.4 933.35,284.05 913.8,252.35 889.95,222.4 861.8,194.25 769.65,102.1 658.35,56 528,56 397.65,56 286.4,102.1 194.25,194.25 102.1,286.4 56,397.65 56,528 56,658.35 102.1,769.65 194.25,861.8 286.4,953.95 397.65,1000 528,1000 658.35,1000 769.65,953.95 861.8,861.8 912.55,811 949.35,754.4 972.15,692.05 990.7,641.2 1000,586.55 1000,528 1000,483.1 994.55,440.45 983.6,400.05 982.35,395.5 981.05,390.95 979.7,386.45 975.6,373.15 970.9,360.1 965.65,347.3z"/>
    </g>
  </g>
  <g id="BackgroundInner">
    <g id="shape2">
      <path id="path1" fill="#5F213B" fill-opacity="1" d="M951.95,691.1 C974.3,636.15 985.45,576.55 985.45,512.3 Q985.45,316.5 847,178.05 C754.7,85.75 643.25,39.6 512.7,39.6 382.15,39.6 270.75,85.75 178.45,178.05 86.15,270.35 40,381.75 40,512.3 40,642.85 86.15,754.3 178.45,846.6 260.6,928.8 357.95,974.4 470.4,983.35 484.25,984.5 498.35,985.05 512.7,985.05 643.25,985.05 754.7,938.9 847,846.6 893.9,799.7 928.9,747.85 951.95,691.1z"/>
    </g>
  </g>
  <g id="ico-shadow">
    <g id="shape4">
      <path id="path2" fill="#000000" fill-opacity="0.2" d="M949.675,696.575 L674.5,421.4 641.65,449.05 443.95,251.35 429.125,328.825 352.35,336.05 376.75,360.45 422.05,365.7 353,726.25 603.75,977 Q741.914,951.686 847,846.6 C892.35,801.25 926.6,751.25 949.7,696.6"/>
    </g>
  </g>
  <g id="ico">
    <g id="shape6">
      <path id="path3" fill="#FFFFFF" fill-opacity="1" d="M674.5,727.05 L674.5,421.4 619.95,421.4 619.95,530.85 C610.8,526.7 600.45,523.4 588.8,521 577.15,518.45 566.6,517.2 557.2,517.2 535.65,517.2 519.6,523.4 508.95,535.8 504,541.65 499.6,550.9 495.8,563.55 491.9,576.25 489.95,598.2 489.95,629.35 489.95,644.9 491.2,658.8 493.75,670.95 496.4,683.25 500.3,693.85 505.5,702.7 510.7,711.55 517.6,718.25 526.25,722.7 534.85,727.15 545.15,729.35 557.2,729.35 568.65,729.35 580.05,727 591.45,722.3 602.85,717.75 612.35,712.3 619.95,705.95 L629.25,727.05 674.5,727.05z M556.45,564.5 C560.1,561.45 565.2,559.95 571.65,559.95 590.3,559.95 606.4,562.55 619.95,567.75 L619.95,670.2 C613.35,674.4 606,677.5 597.9,679.55 589.95,681.7 581.2,682.75 571.65,682.75 562.3,682.75 555.4,678.25 550.95,669.25 548.8,664.8 547.15,659 546,651.75 L544.5,626.5 C544.5,606.85 545.55,592.3 547.7,582.95 549.85,573.7 552.8,567.55 556.45,564.5z M443.95,336.1 L443.95,251.35 353,251.35 353,336.1 443.95,336.1z M443.95,354.1 L353,354.1 353,726.25 443.95,726.25 443.95,354.1z"/>
    </g>
  </g>
</svg>