<?xml version="1.0" encoding="utf-8"?>
<!-- Generator: flash2svg, http://dissentgraphics.com/tools/flash2svg -->
<svg xmlns:xlink="http://www.w3.org/1999/xlink" id="Adobe-Audition" image-rendering="optimizeSpeed" baseProfile="basic" version="1.1" style="background-color:#ffffff" x="0px" y="0px" width="1024px" height="1024px" viewBox="0 0 1024 1024" enable-background="new 0 0 1024 1024" xmlns="http://www.w3.org/2000/svg">
  <defs transform="matrix(1 0 0 1 0 0) "/>
  <g id="shadow">
    <g id="shape">
      <path id="path" fill="#000000" fill-opacity="0.09803921568627451" d="M965.65,347.3 Q957.05,326.45 946.25,306.45 C942.2,298.9 937.9,291.4 933.35,284.05 913.8,252.35 889.95,222.4 861.8,194.25 769.65,102.1 658.35,56 528,56 397.65,56 286.4,102.1 194.25,194.25 102.1,286.4 56,397.65 56,528 56,658.35 102.1,769.65 194.25,861.8 286.4,953.95 397.65,1000 528,1000 658.35,1000 769.65,953.95 861.8,861.8 912.55,811 949.35,754.4 972.15,692.05 990.7,641.2 1000,586.55 1000,528 1000,483.1 994.55,440.45 983.6,400.05 982.35,395.5 981.05,390.95 979.7,386.45 975.6,373.15 970.9,360.1 965.65,347.3z"/>
    </g>
  </g>
  <g id="BackgroundInner">
    <g id="shape2">
      <path id="path1" fill="#538C4F" fill-opacity="1" d="M985.45,512.3 Q985.45,316.5 847,178.05 C754.7,85.75 643.25,39.6 512.7,39.6 382.15,39.6 270.75,85.75 178.45,178.05 86.15,270.35 40,381.75 40,512.3 40,642.85 86.15,754.3 178.45,846.6 260.6,928.8 357.95,974.4 470.4,983.35 484.25,984.5 498.35,985.05 512.7,985.05 643.25,985.05 754.7,938.9 847,846.6 893.9,799.7 928.9,747.85 951.95,691.1 974.3,636.15 985.45,576.55 985.45,512.3z"/>
    </g>
  </g>
  <g id="LogoBg">
    <g id="shape4">
      <path id="path2" fill="#000000" fill-opacity="0.2" d="M951.95,691.1 Q959.512,672.488 965.375,653.175 L826.325,514.125 778.2,566.1 469.725,257.625 197,726.85 451.65,981.5 C458.05,982.25 464.2,982.85 470.4,983.35 484.25,984.5 498.35,985.05 512.7,985.05 643.25,985.05 754.7,938.9 847,846.6 893.9,799.7 928.9,747.85 951.95,691.1z"/>
    </g>
  </g>
  <g id="Calque.__201">
    <g id="shape6">
      <path id="path3" fill="#FFFFFF" fill-opacity="1" d="M771.3,666.1 L755.3,676.85 C745.65,681.9 733.9,684.45 719.95,684.45 712.1,684.45 706.25,682.1 702.35,677.4 698.45,672.6 696.5,665.5 696.5,656.15 L696.5,513.75 640.45,513.75 640.45,654.75 C640.45,679.75 645.7,698.5 656.25,711 666.8,723.35 682.55,729.55 703.5,729.55 713.4,729.55 722.5,728.25 730.85,725.65 L741.8,720.95 751.2,715.9 771.3,703.6 782.05,726.05 827.15,726.05 827.15,513.75 771.3,513.75 771.3,666.1z M473.15,256.05 L350.9,256.05 197,726.85 307.9,726.85 338.7,632.3 481,632.3 511.75,726.85 621.75,726.85 473.15,256.05z M364.4,540.95 L413.45,391.05 457.7,540.95 364.4,540.95z"/>
    </g>
  </g>
</svg>