<?xml version="1.0" encoding="utf-8"?>
<!-- Generator: flash2svg, http://dissentgraphics.com/tools/flash2svg -->
<svg xmlns:xlink="http://www.w3.org/1999/xlink" id="Air-Video-Server-HD" image-rendering="optimizeSpeed" baseProfile="basic" version="1.1" style="background-color:#ffffff" x="0px" y="0px" width="1024px" height="1024px" viewBox="0 0 1024 1024" enable-background="new 0 0 1024 1024" xmlns="http://www.w3.org/2000/svg">
  <defs transform="matrix(1 0 0 1 0 0) "/>
  <g id="shadow">
    <g id="shape">
      <path id="path" fill="#000000" fill-opacity="0.09803921568627451" d="M969.65,351.3 Q961.05,330.45 950.25,310.45 C946.2,302.9 941.9,295.4 937.35,288.05 917.8,256.35 893.95,226.4 865.8,198.25 773.65,106.1 662.35,60 532,60 401.65,60 290.4,106.1 198.25,198.25 106.1,290.4 60,401.65 60,532 60,662.35 106.1,773.65 198.25,865.8 290.4,957.95 401.65,1004 532,1004 662.35,1004 773.65,957.95 865.8,865.8 916.55,815 953.35,758.4 976.15,696.05 994.7,645.2 1004,590.55 1004,532 1004,487.1 998.55,444.45 987.6,404.05 986.35,399.5 985.05,394.95 983.7,390.45 979.6,377.15 974.9,364.1 969.65,351.3z"/>
    </g>
  </g>
  <g id="criclebg">
    <g id="shape2">
      <path id="path1" fill="#1584D3" fill-opacity="1" d="M958.55,354.65 C958.25,353.9 957.95,353 957.65,352.1 951.2,333.85 943.5,316.05 934.5,298.45 930.7,291.05 926.55,283.5 922.2,276.05 901.9,241.55 876.4,208.85 845.85,178.3 773.4,105.85 689.1,61.85 593.05,46.4 592.75,46.35 592.45,46.3 592.2,46.25 575.95,43.65 559.4,41.85 542.15,40.9 532.45,40.35 522.3,40.05 512.05,40.05 502.7,40.05 493.45,40.3 484.15,40.8 365.8,46.9 263.85,92.75 178.3,178.3 121.8,234.8 82.65,298.45 60.85,369 Q40.05,436.2 40.05,512.05 C40.05,642.4 86.15,753.7 178.3,845.85 226.35,893.85 279.6,929.4 337.4,952.15 343.85,954.75 350,957 356.2,959.1 396.7,972.95 439.25,981 484.15,983.35 484.3,983.35 484.4,983.35 484.55,983.35 493.05,983.8 501.15,984.05 509.05,984.05 510.25,984.05 511.15,984.05 512.05,984.05 522.35,984.05 532.55,983.75 542.15,983.25 544.65,983.1 546.9,982.95 549.1,982.8 569.3,981.35 589,978.75 607.8,975.1 615.75,973.55 623.6,971.8 631.2,969.95 695.9,953.7 754.55,924 807.35,880.8 820.6,869.9 833.4,858.3 845.85,845.85 894.45,797.25 930.25,743.35 953.2,684.05 957.15,673.8 960.75,663.4 963.95,652.9 975.65,614.25 982.25,573.5 983.75,530.55 983.95,524.5 984.05,518.3 984.05,512.05 984.05,511.4 984.05,510.7 984.05,510.05 984.05,509.7 984.05,509.4 984.05,509.05 983.85,468.4 979.1,429.55 969.75,392.05 968.65,387.7 967.4,383.05 966.1,378.45 963.85,370.6 961.35,362.65 958.55,354.65z"/>
    </g>
  </g>
  <g id="criclebg1">
    <g id="shape4">
      <path id="path2" fill="#000000" fill-opacity="0.2" d="M834.05,261.9 L684.6,250.1 594.05,159.55 571.5,167.4 183.95,761.05 392.825,969.925 L392.85,969.95 C422.4,977.25 452.7,981.7 484.15,983.35 484.3,983.35 484.4,983.35 484.55,983.35 493.05,983.8 501.15,984.05 509.05,984.05 Q510.55,984.05 512.05,984.05 C522.35,984.05 532.55,983.75 542.15,983.25 544.65,983.1 546.9,982.95 549.1,982.8 569.3,981.35 589,978.75 607.8,975.1 615.75,973.55 623.6,971.8 631.2,969.95 695.9,953.7 754.55,924 807.35,880.8 820.6,869.9 833.4,858.3 845.85,845.85 894.45,797.25 930.25,743.35 953.2,684.05 957.15,673.8 960.75,663.4 963.95,652.9 975.65,614.25 982.25,573.5 983.75,530.55 983.95,524.5 984.05,518.3 984.05,512.05 984.05,511.4 984.05,510.7 984.05,510.05 984.05,509.7 984.05,509.4 984.05,509.05 983.85,471.1 979.7,434.75 971.55,399.4 L971.525,399.375 L834.05,261.9z"/>
    </g>
  </g>
  <g id="Calque.__202">
    <g id="shape6">
      <path id="path3" fill="#FFFFFF" fill-opacity="1" d="M846.7,291.85 Q846.7,274.55 834.45,262.3 C826.3,254.15 816.45,250.05 804.9,250.05 L627.35,250.05 C621,243.3 611.8,237.15 599.8,231.5 586.05,225.05 570.75,220.3 554,217.3 L594.15,177.15 C596.6,174.7 597.8,171.8 597.8,168.4 597.8,164.95 596.6,162.05 594.15,159.65 591.75,157.2 588.85,155.95 585.45,155.95 582,155.95 579.05,157.15 576.6,159.6 L522.4,213.85 C518,213.6 513.5,213.5 508.95,213.45 508.25,213.45 507.6,213.45 506.95,213.45 503.5,213.45 500.15,213.5 496.85,213.65 496.2,212.2 495.3,210.9 494.15,209.7 L396.15,111.7 C393.7,109.25 390.8,108.05 387.35,108.05 383.9,108.05 381,109.25 378.6,111.7 376.15,114.15 374.95,117.05 374.95,120.45 374.95,123.9 376.15,126.8 378.6,129.25 L465.7,216.4 C461.75,216.95 457.85,217.65 454,218.5 439.5,221.5 426.2,225.85 414.05,231.5 402.1,237.15 392.9,243.3 386.5,250.05 L214.85,250.05 C203.3,250.05 193.45,254.15 185.3,262.3 177.15,270.45 173.05,280.3 173.05,291.85 L173.05,732.9 C173.05,744.45 177.15,754.3 185.3,762.45 193.45,770.6 203.3,774.7 214.85,774.7 L804.9,774.7 C816.45,774.7 826.3,770.6 834.45,762.45 842.6,754.3 846.7,744.45 846.7,732.9 L846.7,291.85z"/>
      <path id="path4" fill="#2E78BA" fill-opacity="1" d="M821.9,291.85 C821.9,287.2 820.25,283.2 816.9,279.85 813.55,276.5 809.55,274.85 804.9,274.85 L471.65,274.85 821.9,625.1 821.9,291.85z"/>
      <path id="path5" fill="#29669D" fill-opacity="1" d="M816.9,744.95 C820.25,741.6 821.9,737.6 821.9,732.9 L821.9,625.1 471.65,274.85 214.85,274.85 C210.2,274.85 206.2,276.5 202.85,279.85 199.5,283.2 197.85,287.2 197.85,291.85 L197.85,732.9 C197.85,737.6 199.5,741.6 202.85,744.95 206.2,748.25 210.2,749.9 214.85,749.9 L804.9,749.9 C809.55,749.9 813.55,748.25 816.9,744.95z"/>
    </g>
  </g>
  <g id="Calque.__203">
    <g id="shape11">
      <path id="path6" fill="#E4E4E4" fill-opacity="1" d="M675,393.85 C674.55,393.45 674.15,393.05 673.75,392.7 671.05,390.15 667.85,388.9 664.15,388.95 660.5,389.05 657.35,390.45 654.75,393.15 652.2,395.85 651,399.05 651.05,402.7 651.1,406.4 652.5,409.55 655.2,412.15 655.45,412.4 655.7,412.65 655.95,412.9 683.7,440.6 697.6,474.05 697.75,513.2 697.75,516.85 699.05,520 701.7,522.65 704.35,525.3 707.55,526.6 711.25,526.55 714.9,526.55 718.05,525.25 720.7,522.6 723.35,519.95 724.65,516.8 724.65,513.1 724.5,466.55 707.95,426.8 675,393.85z M697.6,372.65 L697.6,372.75 C731.25,406.05 748.2,446.25 748.35,493.3 748.35,497 749.7,500.15 752.35,502.75 755,505.4 758.15,506.7 761.85,506.7 765.55,506.7 768.7,505.4 771.3,502.75 773.95,500.1 775.25,496.9 775.25,493.25 775.1,438.75 755.55,392.2 716.6,353.65 L716.55,353.6 C715.95,353 715.35,352.4 714.75,351.85 712.1,349.3 708.9,348 705.2,348.05 701.55,348.1 698.4,349.5 695.8,352.15 693.15,354.8 691.9,358 691.95,361.7 692,365.35 693.35,368.5 696.05,371.15 696.55,371.65 697.05,372.15 697.6,372.65z M674.5,542.5 C677.15,539.85 678.45,536.65 678.45,532.95 678.3,493.7 664.3,460.15 636.5,432.35 636.15,432 635.85,431.7 635.5,431.35 632.85,428.7 629.7,427.4 626,427.45 622.3,427.4 619.15,428.7 616.5,431.35 613.85,434 612.55,437.2 612.55,440.9 612.55,444.6 613.85,447.75 616.5,450.4 616.8,450.75 617.1,451.05 617.45,451.4 640,473.95 651.4,501.2 651.55,533.05 651.6,536.75 652.9,539.9 655.55,542.55 658.15,545.15 661.3,546.45 665.05,546.45 668.75,546.45 671.9,545.15 674.5,542.5z"/>
      <path id="path11" fill="#264C71" fill-opacity="1" d="M595,458.3 C573.05,436.3 546.55,425.3 515.45,425.3 484.35,425.3 457.8,436.3 435.8,458.3 413.85,480.25 402.85,506.8 402.85,537.9 402.85,569 413.85,595.5 435.8,617.45 457.8,639.5 484.35,650.5 515.45,650.5 546.55,650.5 573.05,639.5 595,617.45 617.05,595.5 628.05,569 628.05,537.9 Q628.05,491.25 595,458.3z"/>
    </g>
  </g>
  <g id="Calque.__204">
    <g id="shape18">
      <path id="path12" fill="#FFFFFF" fill-opacity="1" d="M493.6,477.65 L493.6,589.35 569.45,533.5 493.6,477.65z"/>
    </g>
  </g>
</svg>