<?xml version="1.0" encoding="utf-8"?>
<!-- Generator: flash2svg, http://dissentgraphics.com/tools/flash2svg -->
<svg xmlns:xlink="http://www.w3.org/1999/xlink" id="Alfred" image-rendering="optimizeSpeed" baseProfile="basic" version="1.1" style="background-color:#ffffff" x="0px" y="0px" width="1024px" height="1024px" viewBox="0 0 1024 1024" enable-background="new 0 0 1024 1024" xmlns="http://www.w3.org/2000/svg">
  <defs transform="matrix(1 0 0 1 0 0) "/>
  <g id="shadow">
    <g id="shape">
      <path id="path" fill="#000000" fill-opacity="0.09803921568627451" d="M969.65,351.3 Q961.05,330.45 950.25,310.45 C946.2,302.9 941.9,295.4 937.35,288.05 917.8,256.35 893.95,226.4 865.8,198.25 773.65,106.1 662.35,60 532,60 401.65,60 290.4,106.1 198.25,198.25 106.1,290.4 60,401.65 60,532 60,662.35 106.1,773.65 198.25,865.8 290.4,957.95 401.65,1004 532,1004 662.35,1004 773.65,957.95 865.8,865.8 916.55,815 953.35,758.4 976.15,696.05 994.7,645.2 1004,590.55 1004,532 1004,487.1 998.55,444.45 987.6,404.05 986.35,399.5 985.05,394.95 983.7,390.45 979.6,377.15 974.9,364.1 969.65,351.3z"/>
    </g>
  </g>
  <g id="bg">
    <g id="shape2">
      <path id="path1" fill="#734D89" fill-opacity="1" d="M929.85,289.65 C927.5,285.3 924.9,280.65 922.2,276.05 901.9,241.55 876.4,208.85 845.85,178.3 773.25,105.7 688.7,61.65 592.2,46.25 575.95,43.65 559.4,41.85 542.15,40.9 532.45,40.35 522.3,40.05 512.05,40.05 502.7,40.05 493.45,40.3 484.15,40.8 365.8,46.9 263.85,92.75 178.3,178.3 157.8,198.8 139.55,220.25 123.6,242.7 108.25,264.25 95.05,286.7 84,309.9 L83.975,309.875 Q40.05,401.873 40.05,512.05 C40.05,642.4 86.15,753.7 178.3,845.85 235,902.5 298.85,941.75 369.4,963.4 406.15,974.65 444.2,981.25 484.15,983.35 484.3,983.35 484.4,983.35 484.55,983.35 493.05,983.8 501.15,984.05 509.05,984.05 510.25,984.05 511.15,984.05 512.05,984.05 522.35,984.05 532.55,983.75 542.15,983.25 544.65,983.1 546.9,982.95 549.1,982.8 569.3,981.35 589,978.75 607.8,975.1 615.75,973.55 623.6,971.8 631.2,969.95 712,949.65 783.35,908.35 845.85,845.85 894.45,797.25 930.25,743.35 953.2,684.05 971.65,636.4 981.85,585.25 983.75,530.55 983.95,524.5 984.05,518.3 984.05,512.05 984.05,511.4 984.05,510.7 984.05,510.05 984.05,509.7 984.05,509.4 984.05,509.05 983.85,468.4 979.1,429.55 969.75,392.05 968.65,387.7 967.4,383.05 966.1,378.45 965.1,375.05 964.1,371.6 962.95,367.95 961.35,362.8 959.55,357.45 957.65,352.1 952.6,337.85 946.8,323.85 940.2,309.95 938.35,306.15 936.45,302.3 934.5,298.45 933.05,295.6 931.55,292.75 929.85,289.65z"/>
    </g>
  </g>
  <g id="bg1">
    <g id="shape4">
      <path id="path2" fill="#000000" fill-opacity="0.2" d="M981.85,560.6 L710.05,288.8 186.05,757.05 400.85,971.85 C428,978.05 455.6,981.85 484.15,983.35 484.3,983.35 484.4,983.35 484.55,983.35 493.05,983.8 501.15,984.05 509.05,984.05 Q510.55,984.05 512.05,984.05 C522.35,984.05 532.55,983.75 542.15,983.25 544.65,983.1 546.9,982.95 549.1,982.8 569.3,981.35 589,978.75 607.8,975.1 615.75,973.55 623.6,971.8 631.2,969.95 712,949.65 783.35,908.35 845.85,845.85 894.45,797.25 930.25,743.35 953.2,684.05 968.2,645.3 977.75,604.2 981.85,560.6z"/>
    </g>
  </g>
  <g id="Calque.__209">
    <g id="shape6">
      <path id="path3" fill="#1C1C1C" fill-opacity="1" d="M700.05,280.4 C692.75,274.55 685.25,269.15 677.55,264.1 656.7,260.05 634.85,258.05 611.95,258.05 538.5,258.05 475.8,278.85 423.85,320.4 375.8,358.9 349.95,404.8 346.4,458.05 L346.4,598.2 777.7,598.2 777.7,421.05 C774.9,366.5 749,319.65 700.05,280.4z"/>
      <path id="path4" fill="#333333" fill-opacity="1" d="M423.85,320.4 C475.8,278.85 538.5,258.05 611.95,258.05 634.85,258.05 656.7,260.05 677.55,264.1 630.3,233.4 575.1,218.05 511.95,218.05 438.5,218.05 375.8,238.85 323.85,280.4 275.8,318.9 249.95,364.8 246.4,418.05 L246.4,598.2 346.4,598.2 346.4,458.05 C349.95,404.8 375.8,358.9 423.85,320.4z"/>
      <path id="path5" fill="#734D89" fill-opacity="1" d="M781.8,414.95 C781.95,411.7 782.05,408.4 782.05,405.05 782.05,401.7 781.95,398.35 781.8,395.05 L781.8,414.95z"/>
    </g>
  </g>
  <g id="Calque.__210">
    <g id="Symbole.__2031_1" overflow="visible">
      <g id="Calque.__215">
        <g id="shape24">
          <path id="path13" fill="#FFFFFF" fill-opacity="1" d="M776.802,528.386 C795.08,506.996 810.636,478.216 823.399,442.119 741.587,460.504 693.717,481.859 680.035,505.795 696.899,499.325 714.683,499.148 733.315,505.264 743.427,524.073 745.159,543.836 738.548,564.519 750.958,557.412 763.756,545.321 776.802,528.386z"/>
          <path id="path14" fill="#999999" fill-opacity="1" d="M701.531,549.705 C702.875,548.362 703.546,546.7 703.546,544.791 703.546,542.882 702.875,541.22 701.496,539.912 700.188,538.533 698.526,537.861 696.617,537.862 694.708,537.862 693.046,538.533 691.738,539.912 L663.631,568.02 630.115,601.537 C628.736,602.845 628.064,604.506 628.064,606.416 628.064,608.325 628.736,609.986 630.079,611.33 631.423,612.673 633.085,613.345 634.994,613.345 636.903,613.345 638.565,612.673 639.908,611.33 L676.288,574.949 701.531,549.705z"/>
          <path id="path15" fill="#FFCC00" fill-opacity="1" d="M703.546,544.791 C703.546,546.7 702.875,548.362 701.531,549.705 L676.288,574.949 724.229,570.706 C728.932,569.398 733.669,567.347 738.548,564.519 745.159,543.836 743.427,524.073 733.315,505.264 714.683,499.148 696.899,499.325 680.035,505.795 679.01,507.598 678.232,509.224 677.595,510.85 L663.631,568.02 691.738,539.912 C693.046,538.533 694.708,537.862 696.617,537.862 698.526,537.861 700.188,538.533 701.496,539.912 702.875,541.22 703.546,542.882 703.546,544.791z"/>
        </g>
      </g>
    </g>
  </g>
  <g id="Calque.__211">
    <g id="shape11">
      <path id="path6" fill="#6F5487" fill-opacity="1" d="M777.7,675.05 L777.7,598.2 346.4,598.2 346.4,675.05 777.7,675.05z"/>
      <path id="path7" fill="#936EB3" fill-opacity="1" d="M246.4,598.2 L246.4,675.05 346.4,675.05 346.4,598.2 246.4,598.2z"/>
    </g>
  </g>
  <g id="Calque.__212">
    <g id="Symbole.__2033_1" overflow="visible">
      <g id="Calque.__216">
        <g id="shape25">
          <path id="path16" fill="#333333" fill-opacity="1" d="M850,708 L849.95,668.2 174.05,668.2 174,734 C174,742.25 176.95,749.35 182.8,755.2 188.65,761.05 195.75,764 204,764 L234,764 234,738 C234,729.75 236.95,722.65 242.8,716.8 248.65,710.95 255.75,708 264,708 L850,708z"/>
          <path id="path17" fill="#1C1C1C" fill-opacity="1" d="M841.2,755.2 C847.05,749.35 850,742.25 850,734 L850,708 264,708 C255.75,708 248.65,710.95 242.8,716.8 236.95,722.65 234,729.75 234,738 L234,764 820,764 C828.25,764 835.35,761.05 841.2,755.2z"/>
        </g>
      </g>
    </g>
  </g>
</svg>