<?xml version="1.0" encoding="utf-8"?>
<!-- Generator: flash2svg, http://dissentgraphics.com/tools/flash2svg -->
<svg xmlns:xlink="http://www.w3.org/1999/xlink" id="Android-File-Transfer" image-rendering="optimizeSpeed" baseProfile="basic" version="1.1" style="background-color:#ffffff" x="0px" y="0px" width="1024px" height="1024px" viewBox="0 0 1024 1024" enable-background="new 0 0 1024 1024" xmlns="http://www.w3.org/2000/svg">
  <defs transform="matrix(1 0 0 1 0 0) "/>
  <g id="shadow">
    <g id="shape">
      <path id="path" fill="#000000" fill-opacity="0.09803921568627451" d="M969.65,351.3 Q961.05,330.45 950.25,310.45 C946.2,302.9 941.9,295.4 937.35,288.05 917.8,256.35 893.95,226.4 865.8,198.25 773.65,106.1 662.35,60 532,60 401.65,60 290.4,106.1 198.25,198.25 106.1,290.4 60,401.65 60,532 60,662.35 106.1,773.65 198.25,865.8 290.4,957.95 401.65,1004 532,1004 662.35,1004 773.65,957.95 865.8,865.8 916.55,815 953.35,758.4 976.15,696.05 994.7,645.2 1004,590.55 1004,532 1004,487.1 998.55,444.45 987.6,404.05 986.35,399.5 985.05,394.95 983.7,390.45 979.6,377.15 974.9,364.1 969.65,351.3z"/>
    </g>
  </g>
  <g id="bg">
    <g id="shape2">
      <path id="path1" fill="#333333" fill-opacity="1" d="M929.85,289.65 C927.5,285.3 924.9,280.65 922.2,276.05 901.9,241.55 876.4,208.85 845.85,178.3 773.25,105.7 688.7,61.65 592.2,46.25 575.95,43.65 559.4,41.85 542.15,40.9 532.45,40.35 522.3,40.05 512.05,40.05 502.7,40.05 493.45,40.3 484.15,40.8 365.8,46.9 263.85,92.75 178.3,178.3 157.8,198.8 139.55,220.25 123.6,242.7 108.25,264.25 95.05,286.7 84,309.9 L83.975,309.875 Q40.05,401.873 40.05,512.05 C40.05,642.4 86.15,753.7 178.3,845.85 235,902.5 298.85,941.75 369.4,963.4 406.15,974.65 444.2,981.25 484.15,983.35 484.3,983.35 484.4,983.35 484.55,983.35 493.05,983.8 501.15,984.05 509.05,984.05 510.25,984.05 511.15,984.05 512.05,984.05 522.35,984.05 532.55,983.75 542.15,983.25 544.65,983.1 546.9,982.95 549.1,982.8 569.3,981.35 589,978.75 607.8,975.1 615.75,973.55 623.6,971.8 631.2,969.95 712,949.65 783.35,908.35 845.85,845.85 894.45,797.25 930.25,743.35 953.2,684.05 971.65,636.4 981.85,585.25 983.75,530.55 983.95,524.5 984.05,518.3 984.05,512.05 984.05,511.4 984.05,510.7 984.05,510.05 984.05,509.7 984.05,509.4 984.05,509.05 983.85,468.4 979.1,429.55 969.75,392.05 968.65,387.7 967.4,383.05 966.1,378.45 965.1,375.05 964.1,371.6 962.95,367.95 961.35,362.8 959.55,357.45 957.65,352.1 952.6,337.85 946.8,323.85 940.2,309.95 938.35,306.15 936.45,302.3 934.5,298.45 933.05,295.6 931.55,292.75 929.85,289.65z"/>
    </g>
  </g>
  <g id="Calque.__2015">
    <g id="Symbole.__2038_1" overflow="visible">
      <g id="Calque.__2022">
        <g id="shape48">
          <path id="path37" fill="#A0B73D" fill-opacity="1" d="M738.55,197.55 Q722.45,197.55 711.1,208.95 L625,295.05 C617.4,302.6 613.6,311.75 613.6,322.5 613.6,333.25 617.4,342.4 625,350 625.3,350.3 625.6,350.6 625.85,350.85 L766.9,209.8 C766.65,209.55 766.35,209.25 766.05,208.95 758.45,201.35 749.3,197.55 738.55,197.55z M246.65,236.4 C246.65,247.15 250.45,256.3 258.05,263.9 L344.15,350 C351.7,357.55 360.85,361.35 371.6,361.35 382.35,361.35 391.5,357.55 399.1,350 406.65,342.4 410.45,333.25 410.45,322.5 410.45,311.75 406.65,302.6 399.1,295.05 L313,208.95 C305.4,201.35 296.25,197.55 285.5,197.55 274.75,197.55 265.6,201.35 258.05,208.95 250.45,216.5 246.65,225.65 246.65,236.4z"/>
          <path id="path38" fill="#738D21" fill-opacity="1" d="M766.05,263.9 C773.6,256.3 777.4,247.15 777.4,236.4 777.4,226.05 773.9,217.2 766.9,209.8 L625.85,350.85 C633.25,357.85 642.1,361.35 652.45,361.35 663.2,361.35 672.35,357.55 679.95,350 L766.05,263.9z"/>
        </g>
      </g>
    </g>
  </g>
  <mask id="bg1">
    <g id="g">
      <g id="shape12">
        <path id="path8" fill="#FFFFFF" fill-opacity="1" d="M929.85,289.65 C927.5,285.3 924.9,280.65 922.2,276.05 901.9,241.55 876.4,208.85 845.85,178.3 773.25,105.7 688.7,61.65 592.2,46.25 575.95,43.65 559.4,41.85 542.15,40.9 532.45,40.35 522.3,40.05 512.05,40.05 502.7,40.05 493.45,40.3 484.15,40.8 365.8,46.9 263.85,92.75 178.3,178.3 157.8,198.8 139.55,220.25 123.6,242.7 108.25,264.25 95.05,286.7 84,309.9 L83.975,309.875 Q40.05,401.873 40.05,512.05 C40.05,642.4 86.15,753.7 178.3,845.85 235,902.5 298.85,941.75 369.4,963.4 406.15,974.65 444.2,981.25 484.15,983.35 484.3,983.35 484.4,983.35 484.55,983.35 493.05,983.8 501.15,984.05 509.05,984.05 510.25,984.05 511.15,984.05 512.05,984.05 522.35,984.05 532.55,983.75 542.15,983.25 544.65,983.1 546.9,982.95 549.1,982.8 569.3,981.35 589,978.75 607.8,975.1 615.75,973.55 623.6,971.8 631.2,969.95 712,949.65 783.35,908.35 845.85,845.85 894.45,797.25 930.25,743.35 953.2,684.05 971.65,636.4 981.85,585.25 983.75,530.55 983.95,524.5 984.05,518.3 984.05,512.05 984.05,511.4 984.05,510.7 984.05,510.05 984.05,509.7 984.05,509.4 984.05,509.05 983.85,468.4 979.1,429.55 969.75,392.05 968.65,387.7 967.4,383.05 966.1,378.45 965.1,375.05 964.1,371.6 962.95,367.95 961.35,362.8 959.55,357.45 957.65,352.1 952.6,337.85 946.8,323.85 940.2,309.95 938.35,306.15 936.45,302.3 934.5,298.45 933.05,295.6 931.55,292.75 929.85,289.65z"/>
      </g>
    </g>
  </mask>
  <g id="masked" mask="url(#bg1)">
    <g id="Calque.__2016">
      <g id="shape4">
        <path id="path2" fill="#738D21" fill-opacity="1" d="M814.05,584.05 L814.05,578.05 C813.6,495.5 784.1,425 725.6,366.5 694.8,335.7 660.65,312.95 623.2,298.25 619.5,298.1 615.8,298.05 612.05,298.05 528.65,298.05 457.45,327.55 398.5,386.5 343.35,441.65 314,507.5 310.45,584.05 L814.05,584.05z"/>
        <path id="path3" fill="#515151" fill-opacity="1" d="M814.05,628.05 L814.05,584.05 310.45,584.05 C310.3,587.35 310.15,590.7 310.1,594.05 L310.1,628.05 814.05,628.05z"/>
        <path id="path4" fill="#9ABD2F" fill-opacity="1" d="M612.05,298.05 C615.8,298.05 619.5,298.1 623.2,298.25 588.95,284.8 551.9,278.05 512.05,278.05 428.65,278.05 357.45,307.55 298.5,366.5 240.95,424.05 211.5,493.2 210.1,574.05 L210.1,578.55 C210.05,579.05 210.05,579.55 210.05,580.05 210.05,580.55 210.05,581.05 210.1,581.55 L210.1,584.05 310.45,584.05 C314,507.5 343.35,441.65 398.5,386.5 457.45,327.55 528.65,298.05 612.05,298.05z"/>
        <path id="path5" fill="#858585" fill-opacity="1" d="M310.45,584.05 L210.1,584.05 210.1,628.05 310.1,628.05 310.1,594.05 C310.15,590.7 310.3,587.35 310.45,584.05z"/>
        <path id="path6" fill="#999999" fill-opacity="1" d="M310.1,628.05 L210.1,628.05 210.1,1054.05 310.1,1054.05 310.1,628.05z"/>
        <path id="path7" fill="#666666" fill-opacity="1" d="M814.05,628.05 L310.1,628.05 310.1,1054.05 814.05,1054.05 814.05,628.05z"/>
      </g>
    </g>
  </g>
  <g id="Calque.__2017">
    <g id="shape14">
      <path id="path9" fill="#000000" fill-opacity="0.2980392156862745" d="M713.1,464.2 Q713.1,440.15 696.1,423.15 C684.8,411.85 671.15,406.2 655.1,406.2 639.05,406.2 625.4,411.85 614.05,423.15 602.75,434.5 597.1,448.15 597.1,464.2 597.1,480.25 602.75,493.9 614.05,505.2 625.4,516.55 639.05,522.2 655.1,522.2 671.15,522.2 684.8,516.55 696.1,505.2 707.45,493.9 713.1,480.25 713.1,464.2z M427,462.05 C427,446 421.35,432.35 410,421 398.7,409.7 385.05,404.05 369,404.05 352.95,404.05 339.3,409.7 327.95,421 316.65,432.35 311,446 311,462.05 311,478.1 316.65,491.75 327.95,503.05 339.3,514.4 352.95,520.05 369,520.05 385.05,520.05 398.7,514.4 410,503.05 421.35,491.75 427,478.1 427,462.05z"/>
    </g>
  </g>
  <g id="Calque.__2018">
    <g id="shape18">
      <path id="path12" fill="#FFFFFF" fill-opacity="1" d="M681.6,440.05 Q679.548,436.598 676.5,433.55 C670.3,427.35 662.8,424.25 654.05,424.25 645.3,424.25 637.8,427.35 631.55,433.55 629.5,435.6 627.85,437.75 626.5,440.05 623.65,444.8 622.25,450.15 622.25,456.05 622.25,464.8 625.35,472.3 631.55,478.5 637.8,484.75 645.3,487.85 654.05,487.85 662.8,487.85 670.3,484.75 676.5,478.5 682.75,472.3 685.85,464.8 685.85,456.05 685.85,450.15 684.45,444.8 681.6,440.05z M335.95,452.75 C335.95,461.5 339.05,469 345.25,475.2 351.5,481.45 359,484.55 367.75,484.55 376.5,484.55 384,481.45 390.2,475.2 396.45,469 399.55,461.5 399.55,452.75 399.55,448.2 398.7,443.95 397,440.05 L338.5,440.05 C336.8,443.95 335.95,448.2 335.95,452.75z"/>
    </g>
  </g>
  <g id="Calque.__2019">
    <g id="shape22">
      <path id="path15" fill="#000000" fill-opacity="0.2980392156862745" d="M763.65,657.15 Q758.7,662.15 758.7,669.2 C758.7,673.9 760.35,677.9 763.65,681.2 767,684.55 771,686.2 775.7,686.2 780.4,686.2 784.4,684.55 787.7,681.2 791.05,677.9 792.7,673.9 792.7,669.2 792.7,664.5 791.05,660.5 787.7,657.15 784.4,653.85 780.4,652.2 775.7,652.2 771,652.2 767,653.85 763.65,657.15z M661.95,669.2 C661.95,664.5 660.3,660.5 656.95,657.15 653.65,653.85 649.65,652.2 644.95,652.2 640.25,652.2 636.25,653.85 632.9,657.15 629.6,660.5 627.95,664.5 627.95,669.2 627.95,673.9 629.6,677.9 632.9,681.2 636.25,684.55 640.25,686.2 644.95,686.2 649.65,686.2 653.65,684.55 656.95,681.2 660.3,677.9 661.95,673.9 661.95,669.2z M252.7,686.2 C257.4,686.2 261.4,684.55 264.7,681.2 268.05,677.9 269.7,673.9 269.7,669.2 269.7,664.5 268.05,660.5 264.7,657.15 261.4,653.85 257.4,652.2 252.7,652.2 248,652.2 244,653.85 240.65,657.15 237.35,660.5 235.7,664.5 235.7,669.2 235.7,673.9 237.35,677.9 240.65,681.2 244,684.55 248,686.2 252.7,686.2z M371.4,657.15 C368.1,660.5 366.45,664.5 366.45,669.2 366.45,673.9 368.1,677.9 371.4,681.2 374.75,684.55 378.75,686.2 383.45,686.2 388.15,686.2 392.15,684.55 395.45,681.2 398.8,677.9 400.45,673.9 400.45,669.2 400.45,664.5 398.8,660.5 395.45,657.15 392.15,653.85 388.15,652.2 383.45,652.2 378.75,652.2 374.75,653.85 371.4,657.15z M514.2,652.2 C509.5,652.2 505.5,653.85 502.15,657.15 498.85,660.5 497.2,664.5 497.2,669.2 497.2,673.9 498.85,677.9 502.15,681.2 505.5,684.55 509.5,686.2 514.2,686.2 518.9,686.2 522.9,684.55 526.2,681.2 529.55,677.9 531.2,673.9 531.2,669.2 531.2,664.5 529.55,660.5 526.2,657.15 522.9,653.85 518.9,652.2 514.2,652.2z"/>
    </g>
  </g>
  <g id="Calque.__2020">
    <g id="shape32">
      <path id="path24" fill="#CCCCCC" fill-opacity="1" d="M769.05,646.55 Q762,646.55 757,651.5 C753.7,654.85 752.05,658.85 752.05,663.55 752.05,668.25 753.7,672.25 757,675.55 760.35,678.9 764.35,680.55 769.05,680.55 773.75,680.55 777.75,678.9 781.05,675.55 784.4,672.25 786.05,668.25 786.05,663.55 786.05,658.85 784.4,654.85 781.05,651.5 777.75,648.2 773.75,646.55 769.05,646.55z M655.3,663.55 C655.3,658.85 653.65,654.85 650.3,651.5 647,648.2 643,646.55 638.3,646.55 633.6,646.55 629.6,648.2 626.25,651.5 622.95,654.85 621.3,658.85 621.3,663.55 621.3,668.25 622.95,672.25 626.25,675.55 629.6,678.9 633.6,680.55 638.3,680.55 643,680.55 647,678.9 650.3,675.55 653.65,672.25 655.3,668.25 655.3,663.55z M246.05,680.55 C250.75,680.55 254.75,678.9 258.05,675.55 261.4,672.25 263.05,668.25 263.05,663.55 263.05,658.85 261.4,654.85 258.05,651.5 254.75,648.2 250.75,646.55 246.05,646.55 241.35,646.55 237.35,648.2 234,651.5 230.7,654.85 229.05,658.85 229.05,663.55 229.05,668.25 230.7,672.25 234,675.55 237.35,678.9 241.35,680.55 246.05,680.55z M376.8,646.55 C372.1,646.55 368.1,648.2 364.75,651.5 361.45,654.85 359.8,658.85 359.8,663.55 359.8,668.25 361.45,672.25 364.75,675.55 368.1,678.9 372.1,680.55 376.8,680.55 381.5,680.55 385.5,678.9 388.8,675.55 392.15,672.25 393.8,668.25 393.8,663.55 393.8,658.85 392.15,654.85 388.8,651.5 385.5,648.2 381.5,646.55 376.8,646.55z M524.55,663.55 C524.55,658.85 522.9,654.85 519.55,651.5 516.25,648.2 512.25,646.55 507.55,646.55 502.85,646.55 498.85,648.2 495.5,651.5 492.2,654.85 490.55,658.85 490.55,663.55 490.55,668.25 492.2,672.25 495.5,675.55 498.85,678.9 502.85,680.55 507.55,680.55 512.25,680.55 516.25,678.9 519.55,675.55 522.9,672.25 524.55,668.25 524.55,663.55z"/>
    </g>
  </g>
</svg>