<?xml version="1.0" encoding="utf-8"?>
<!-- Generator: flash2svg, http://dissentgraphics.com/tools/flash2svg -->
<svg xmlns:xlink="http://www.w3.org/1999/xlink" id="Android-Studio" image-rendering="optimizeSpeed" baseProfile="basic" version="1.1" style="background-color:#ffffff" x="0px" y="0px" width="1024px" height="1024px" viewBox="0 0 1024 1024" enable-background="new 0 0 1024 1024" xmlns="http://www.w3.org/2000/svg">
  <defs transform="matrix(1 0 0 1 0 0) "/>
  <g id="shadow">
    <g id="shape">
      <path id="path" fill="#000000" fill-opacity="0.09803921568627451" d="M969.65,351.3 Q961.05,330.45 950.25,310.45 C946.2,302.9 941.9,295.4 937.35,288.05 917.8,256.35 893.95,226.4 865.8,198.25 773.65,106.1 662.35,60 532,60 401.65,60 290.4,106.1 198.25,198.25 106.1,290.4 60,401.65 60,532 60,662.35 106.1,773.65 198.25,865.8 290.4,957.95 401.65,1004 532,1004 662.35,1004 773.65,957.95 865.8,865.8 916.55,815 953.35,758.4 976.15,696.05 994.7,645.2 1004,590.55 1004,532 1004,487.1 998.55,444.45 987.6,404.05 986.35,399.5 985.05,394.95 983.7,390.45 979.6,377.15 974.9,364.1 969.65,351.3z"/>
    </g>
  </g>
  <g id="bg">
    <g id="shape2">
      <path id="path1" fill="#333333" fill-opacity="1" d="M929.85,289.65 C927.5,285.3 924.9,280.65 922.2,276.05 901.9,241.55 876.4,208.85 845.85,178.3 773.25,105.7 688.7,61.65 592.2,46.25 575.95,43.65 559.4,41.85 542.15,40.9 532.45,40.35 522.3,40.05 512.05,40.05 502.7,40.05 493.45,40.3 484.15,40.8 365.8,46.9 263.85,92.75 178.3,178.3 157.8,198.8 139.55,220.25 123.6,242.7 108.25,264.25 95.05,286.7 84,309.9 L83.975,309.875 Q40.05,401.873 40.05,512.05 C40.05,642.4 86.15,753.7 178.3,845.85 235,902.5 298.85,941.75 369.4,963.4 406.15,974.65 444.2,981.25 484.15,983.35 484.3,983.35 484.4,983.35 484.55,983.35 493.05,983.8 501.15,984.05 509.05,984.05 510.25,984.05 511.15,984.05 512.05,984.05 522.35,984.05 532.55,983.75 542.15,983.25 544.65,983.1 546.9,982.95 549.1,982.8 569.3,981.35 589,978.75 607.8,975.1 615.75,973.55 623.6,971.8 631.2,969.95 712,949.65 783.35,908.35 845.85,845.85 894.45,797.25 930.25,743.35 953.2,684.05 971.65,636.4 981.85,585.25 983.75,530.55 983.95,524.5 984.05,518.3 984.05,512.05 984.05,511.4 984.05,510.7 984.05,510.05 984.05,509.7 984.05,509.4 984.05,509.05 983.85,468.4 979.1,429.55 969.75,392.05 968.65,387.7 967.4,383.05 966.1,378.45 965.1,375.05 964.1,371.6 962.95,367.95 961.35,362.8 959.55,357.45 957.65,352.1 952.6,337.85 946.8,323.85 940.2,309.95 938.35,306.15 936.45,302.3 934.5,298.45 933.05,295.6 931.55,292.75 929.85,289.65z"/>
    </g>
  </g>
  <g id="bg1">
    <g id="shape4">
      <path id="path2" fill="#000000" fill-opacity="0.2" d="M984.05,510.05 C984.05,509.7 984.05,509.4 984.05,509.05 983.9,478.9 981.25,449.7 976.05,421.05 L976.025,421.025 L766.05,211.05 250.375,905.875 L250.4,905.9 C287.85,931.4 327.45,950.5 369.4,963.4 406.15,974.65 444.2,981.25 484.15,983.35 484.3,983.35 484.4,983.35 484.55,983.35 493.05,983.8 501.15,984.05 509.05,984.05 Q510.55,984.05 512.05,984.05 C522.35,984.05 532.55,983.75 542.15,983.25 544.65,983.1 546.9,982.95 549.1,982.8 569.3,981.35 589,978.75 607.8,975.1 615.75,973.55 623.6,971.8 631.2,969.95 712,949.65 783.35,908.35 845.85,845.85 894.45,797.25 930.25,743.35 953.2,684.05 971.65,636.4 981.85,585.25 983.75,530.55 983.95,524.5 984.05,518.3 984.05,512.05 984.05,511.4 984.05,510.7 984.05,510.05z"/>
    </g>
  </g>
  <g id="Calque.__2015">
    <g id="Symbole.__2038_1" overflow="visible">
      <g id="Calque.__2030">
        <g id="shape83">
          <path id="path70" fill="#A0B73D" fill-opacity="1" d="M738.55,197.55 Q722.45,197.55 711.1,208.95 L625,295.05 C617.4,302.6 613.6,311.75 613.6,322.5 613.6,333.25 617.4,342.4 625,350 625.3,350.3 625.6,350.6 625.85,350.85 L766.9,209.8 C766.65,209.55 766.35,209.25 766.05,208.95 758.45,201.35 749.3,197.55 738.55,197.55z M246.65,236.4 C246.65,247.15 250.45,256.3 258.05,263.9 L344.15,350 C351.7,357.55 360.85,361.35 371.6,361.35 382.35,361.35 391.5,357.55 399.1,350 406.65,342.4 410.45,333.25 410.45,322.5 410.45,311.75 406.65,302.6 399.1,295.05 L313,208.95 C305.4,201.35 296.25,197.55 285.5,197.55 274.75,197.55 265.6,201.35 258.05,208.95 250.45,216.5 246.65,225.65 246.65,236.4z"/>
          <path id="path71" fill="#738D21" fill-opacity="1" d="M766.05,263.9 C773.6,256.3 777.4,247.15 777.4,236.4 777.4,226.05 773.9,217.2 766.9,209.8 L625.85,350.85 C633.25,357.85 642.1,361.35 652.45,361.35 663.2,361.35 672.35,357.55 679.95,350 L766.05,263.9z"/>
        </g>
      </g>
    </g>
  </g>
  <mask id="bg2">
    <g id="g">
      <g id="shape16">
        <path id="path10" fill="#FFFFFF" fill-opacity="1" d="M929.85,289.65 C927.5,285.3 924.9,280.65 922.2,276.05 901.9,241.55 876.4,208.85 845.85,178.3 773.25,105.7 688.7,61.65 592.2,46.25 575.95,43.65 559.4,41.85 542.15,40.9 532.45,40.35 522.3,40.05 512.05,40.05 502.7,40.05 493.45,40.3 484.15,40.8 365.8,46.9 263.85,92.75 178.3,178.3 157.8,198.8 139.55,220.25 123.6,242.7 108.25,264.25 95.05,286.7 84,309.9 L83.975,309.875 Q40.05,401.873 40.05,512.05 C40.05,642.4 86.15,753.7 178.3,845.85 235,902.5 298.85,941.75 369.4,963.4 406.15,974.65 444.2,981.25 484.15,983.35 484.3,983.35 484.4,983.35 484.55,983.35 493.05,983.8 501.15,984.05 509.05,984.05 510.25,984.05 511.15,984.05 512.05,984.05 522.35,984.05 532.55,983.75 542.15,983.25 544.65,983.1 546.9,982.95 549.1,982.8 569.3,981.35 589,978.75 607.8,975.1 615.75,973.55 623.6,971.8 631.2,969.95 712,949.65 783.35,908.35 845.85,845.85 894.45,797.25 930.25,743.35 953.2,684.05 971.65,636.4 981.85,585.25 983.75,530.55 983.95,524.5 984.05,518.3 984.05,512.05 984.05,511.4 984.05,510.7 984.05,510.05 984.05,509.7 984.05,509.4 984.05,509.05 983.85,468.4 979.1,429.55 969.75,392.05 968.65,387.7 967.4,383.05 966.1,378.45 965.1,375.05 964.1,371.6 962.95,367.95 961.35,362.8 959.55,357.45 957.65,352.1 952.6,337.85 946.8,323.85 940.2,309.95 938.35,306.15 936.45,302.3 934.5,298.45 933.05,295.6 931.55,292.75 929.85,289.65z"/>
      </g>
    </g>
  </mask>
  <g id="masked" mask="url(#bg2)">
    <g id="Calque.__2016">
      <g id="shape6">
        <path id="path3" fill="#738D21" fill-opacity="1" d="M814.05,584.05 L814.05,578.05 C813.6,495.5 784.1,425 725.6,366.5 694.8,335.7 660.65,312.95 623.2,298.25 619.5,298.1 615.8,298.05 612.05,298.05 528.65,298.05 457.45,327.55 398.5,386.5 343.35,441.65 314,507.5 310.45,584.05 L814.05,584.05z"/>
        <path id="path4" fill="#515151" fill-opacity="1" d="M814.05,628.05 L814.05,584.05 310.45,584.05 C310.3,587.35 310.15,590.7 310.1,594.05 L310.1,628.05 814.05,628.05z"/>
        <path id="path5" fill="#9ABD2F" fill-opacity="1" d="M612.05,298.05 C615.8,298.05 619.5,298.1 623.2,298.25 588.95,284.8 551.9,278.05 512.05,278.05 428.65,278.05 357.45,307.55 298.5,366.5 240.95,424.05 211.5,493.2 210.1,574.05 L210.1,578.55 C210.05,579.05 210.05,579.55 210.05,580.05 210.05,580.55 210.05,581.05 210.1,581.55 L210.1,584.05 310.45,584.05 C314,507.5 343.35,441.65 398.5,386.5 457.45,327.55 528.65,298.05 612.05,298.05z"/>
        <path id="path6" fill="#858585" fill-opacity="1" d="M310.45,584.05 L210.1,584.05 210.1,628.05 310.1,628.05 310.1,594.05 C310.15,590.7 310.3,587.35 310.45,584.05z"/>
        <path id="path7" fill="#999999" fill-opacity="1" d="M310.1,628.05 L210.1,628.05 210.1,1054.05 310.1,1054.05 310.1,628.05z"/>
        <path id="path8" fill="#666666" fill-opacity="1" d="M310.1,628.05 L310.1,1054.05 814.05,1054.05 814.05,628.05 310.1,628.05z"/>
      </g>
    </g>
    <g id="Calque.__2017">
      <g id="shape14">
        <path id="path9" fill="#161616" fill-opacity="1" d="M688.4,730.7 Q673.75,716.05 653.05,716.05 L371.05,716.05 C357.25,716.05 345.45,720.95 335.7,730.7 325.95,740.45 321.05,752.25 321.05,766.05 L321.05,1068.05 C321.05,1081.85 325.95,1093.65 335.7,1103.4 345.45,1113.15 357.25,1118.05 371.05,1118.05 L653.05,1118.05 C666.85,1118.05 678.65,1113.15 688.4,1103.4 698.15,1093.65 703.05,1081.85 703.05,1068.05 L703.05,766.05 C703.05,752.25 698.15,740.45 688.4,730.7z"/>
      </g>
    </g>
  </g>
  <g id="Calque.__2018">
    <g id="shape18">
      <path id="path11" fill="#000000" fill-opacity="0.2980392156862745" d="M713.1,464.2 Q713.1,440.15 696.1,423.15 C684.8,411.85 671.15,406.2 655.1,406.2 639.05,406.2 625.4,411.85 614.05,423.15 602.75,434.5 597.1,448.15 597.1,464.2 597.1,480.25 602.75,493.9 614.05,505.2 625.4,516.55 639.05,522.2 655.1,522.2 671.15,522.2 684.8,516.55 696.1,505.2 707.45,493.9 713.1,480.25 713.1,464.2z M427,462.05 C427,446 421.35,432.35 410,421 398.7,409.7 385.05,404.05 369,404.05 352.95,404.05 339.3,409.7 327.95,421 316.65,432.35 311,446 311,462.05 311,478.1 316.65,491.75 327.95,503.05 339.3,514.4 352.95,520.05 369,520.05 385.05,520.05 398.7,514.4 410,503.05 421.35,491.75 427,478.1 427,462.05z"/>
    </g>
  </g>
  <g id="Calque.__2019">
    <g id="shape22">
      <path id="path14" fill="#FFFFFF" fill-opacity="1" d="M681.6,440.05 Q679.548,436.598 676.5,433.55 C670.3,427.35 662.8,424.25 654.05,424.25 645.3,424.25 637.8,427.35 631.55,433.55 629.5,435.6 627.85,437.75 626.5,440.05 623.65,444.8 622.25,450.15 622.25,456.05 622.25,464.8 625.35,472.3 631.55,478.5 637.8,484.75 645.3,487.85 654.05,487.85 662.8,487.85 670.3,484.75 676.5,478.5 682.75,472.3 685.85,464.8 685.85,456.05 685.85,450.15 684.45,444.8 681.6,440.05z M394.8,439.05 C393.45,436.75 391.75,434.6 389.7,432.55 383.5,426.35 376,423.25 367.25,423.25 358.5,423.25 351,426.35 344.75,432.55 342.7,434.6 341.05,436.75 339.7,439.05 336.85,443.8 335.45,449.15 335.45,455.05 335.45,463.8 338.55,471.3 344.75,477.5 351,483.75 358.5,486.85 367.25,486.85 376,486.85 383.5,483.75 389.7,477.5 395.95,471.3 399.05,463.8 399.05,455.05 399.05,449.15 397.65,443.8 394.8,439.05z"/>
    </g>
  </g>
  <g id="Calque.__2020">
    <g id="shape26">
      <path id="path17" fill="#000000" fill-opacity="0.2980392156862745" d="M763.65,657.15 Q758.7,662.15 758.7,669.2 C758.7,673.9 760.35,677.9 763.65,681.2 767,684.55 771,686.2 775.7,686.2 780.4,686.2 784.4,684.55 787.7,681.2 791.05,677.9 792.7,673.9 792.7,669.2 792.7,664.5 791.05,660.5 787.7,657.15 784.4,653.85 780.4,652.2 775.7,652.2 771,652.2 767,653.85 763.65,657.15z M661.95,669.2 C661.95,664.5 660.3,660.5 656.95,657.15 653.65,653.85 649.65,652.2 644.95,652.2 640.25,652.2 636.25,653.85 632.9,657.15 629.6,660.5 627.95,664.5 627.95,669.2 627.95,673.9 629.6,677.9 632.9,681.2 636.25,684.55 640.25,686.2 644.95,686.2 649.65,686.2 653.65,684.55 656.95,681.2 660.3,677.9 661.95,673.9 661.95,669.2z M252.7,686.2 C257.4,686.2 261.4,684.55 264.7,681.2 268.05,677.9 269.7,673.9 269.7,669.2 269.7,664.5 268.05,660.5 264.7,657.15 261.4,653.85 257.4,652.2 252.7,652.2 248,652.2 244,653.85 240.65,657.15 237.35,660.5 235.7,664.5 235.7,669.2 235.7,673.9 237.35,677.9 240.65,681.2 244,684.55 248,686.2 252.7,686.2z M371.4,657.15 C368.1,660.5 366.45,664.5 366.45,669.2 366.45,673.9 368.1,677.9 371.4,681.2 374.75,684.55 378.75,686.2 383.45,686.2 388.15,686.2 392.15,684.55 395.45,681.2 398.8,677.9 400.45,673.9 400.45,669.2 400.45,664.5 398.8,660.5 395.45,657.15 392.15,653.85 388.15,652.2 383.45,652.2 378.75,652.2 374.75,653.85 371.4,657.15z M514.2,652.2 C509.5,652.2 505.5,653.85 502.15,657.15 498.85,660.5 497.2,664.5 497.2,669.2 497.2,673.9 498.85,677.9 502.15,681.2 505.5,684.55 509.5,686.2 514.2,686.2 518.9,686.2 522.9,684.55 526.2,681.2 529.55,677.9 531.2,673.9 531.2,669.2 531.2,664.5 529.55,660.5 526.2,657.15 522.9,653.85 518.9,652.2 514.2,652.2z"/>
    </g>
  </g>
  <g id="Calque.__2021">
    <g id="shape36">
      <path id="path26" fill="#CCCCCC" fill-opacity="1" d="M769.05,646.55 Q762,646.55 757,651.5 C753.7,654.85 752.05,658.85 752.05,663.55 752.05,668.25 753.7,672.25 757,675.55 760.35,678.9 764.35,680.55 769.05,680.55 773.75,680.55 777.75,678.9 781.05,675.55 784.4,672.25 786.05,668.25 786.05,663.55 786.05,658.85 784.4,654.85 781.05,651.5 777.75,648.2 773.75,646.55 769.05,646.55z M655.3,663.55 C655.3,658.85 653.65,654.85 650.3,651.5 647,648.2 643,646.55 638.3,646.55 633.6,646.55 629.6,648.2 626.25,651.5 622.95,654.85 621.3,658.85 621.3,663.55 621.3,668.25 622.95,672.25 626.25,675.55 629.6,678.9 633.6,680.55 638.3,680.55 643,680.55 647,678.9 650.3,675.55 653.65,672.25 655.3,668.25 655.3,663.55z M246.05,680.55 C250.75,680.55 254.75,678.9 258.05,675.55 261.4,672.25 263.05,668.25 263.05,663.55 263.05,658.85 261.4,654.85 258.05,651.5 254.75,648.2 250.75,646.55 246.05,646.55 241.35,646.55 237.35,648.2 234,651.5 230.7,654.85 229.05,658.85 229.05,663.55 229.05,668.25 230.7,672.25 234,675.55 237.35,678.9 241.35,680.55 246.05,680.55z M376.8,646.55 C372.1,646.55 368.1,648.2 364.75,651.5 361.45,654.85 359.8,658.85 359.8,663.55 359.8,668.25 361.45,672.25 364.75,675.55 368.1,678.9 372.1,680.55 376.8,680.55 381.5,680.55 385.5,678.9 388.8,675.55 392.15,672.25 393.8,668.25 393.8,663.55 393.8,658.85 392.15,654.85 388.8,651.5 385.5,648.2 381.5,646.55 376.8,646.55z M524.55,663.55 C524.55,658.85 522.9,654.85 519.55,651.5 516.25,648.2 512.25,646.55 507.55,646.55 502.85,646.55 498.85,648.2 495.5,651.5 492.2,654.85 490.55,658.85 490.55,663.55 490.55,668.25 492.2,672.25 495.5,675.55 498.85,678.9 502.85,680.55 507.55,680.55 512.25,680.55 516.25,678.9 519.55,675.55 522.9,672.25 524.55,668.25 524.55,663.55z"/>
    </g>
  </g>
  <mask id="bg3">
    <g id="g1">
      <g id="shape46">
        <path id="path35" fill="#FFFFFF" fill-opacity="1" d="M929.85,289.65 C927.5,285.3 924.9,280.65 922.2,276.05 901.9,241.55 876.4,208.85 845.85,178.3 773.25,105.7 688.7,61.65 592.2,46.25 575.95,43.65 559.4,41.85 542.15,40.9 532.45,40.35 522.3,40.05 512.05,40.05 502.7,40.05 493.45,40.3 484.15,40.8 365.8,46.9 263.85,92.75 178.3,178.3 157.8,198.8 139.55,220.25 123.6,242.7 108.25,264.25 95.05,286.7 84,309.9 L83.975,309.875 Q40.05,401.873 40.05,512.05 C40.05,642.4 86.15,753.7 178.3,845.85 235,902.5 298.85,941.75 369.4,963.4 406.15,974.65 444.2,981.25 484.15,983.35 484.3,983.35 484.4,983.35 484.55,983.35 493.05,983.8 501.15,984.05 509.05,984.05 510.25,984.05 511.15,984.05 512.05,984.05 522.35,984.05 532.55,983.75 542.15,983.25 544.65,983.1 546.9,982.95 549.1,982.8 569.3,981.35 589,978.75 607.8,975.1 615.75,973.55 623.6,971.8 631.2,969.95 712,949.65 783.35,908.35 845.85,845.85 894.45,797.25 930.25,743.35 953.2,684.05 971.65,636.4 981.85,585.25 983.75,530.55 983.95,524.5 984.05,518.3 984.05,512.05 984.05,511.4 984.05,510.7 984.05,510.05 984.05,509.7 984.05,509.4 984.05,509.05 983.85,468.4 979.1,429.55 969.75,392.05 968.65,387.7 967.4,383.05 966.1,378.45 965.1,375.05 964.1,371.6 962.95,367.95 961.35,362.8 959.55,357.45 957.65,352.1 952.6,337.85 946.8,323.85 940.2,309.95 938.35,306.15 936.45,302.3 934.5,298.45 933.05,295.6 931.55,292.75 929.85,289.65z"/>
      </g>
    </g>
  </mask>
  <g id="masked1" mask="url(#bg3)">
    <g id="Calque.__2022">
      <g id="Symbole.__2040_1" overflow="visible">
        <mask id="Symbole.__2044">
          <g id="g3">
            <g id="Symbole.__2049_2" overflow="visible">
              <g id="Calque.__2031">
                <g id="shape84">
                  <path id="path72" fill="#FFFFFF" fill-opacity="1" d="M703.1,766.1 Q703.1,745.4 688.45,730.75 C678.7,721 666.9,716.1 653.1,716.1 L371.1,716.1 C357.3,716.1 345.5,721 335.75,730.75 326,740.5 321.1,752.3 321.1,766.1 L321.1,1068.1 C321.1,1081.9 326,1093.7 335.75,1103.45 345.5,1113.2 357.3,1118.1 371.1,1118.1 L653.1,1118.1 C666.9,1118.1 678.7,1113.2 688.45,1103.45 698.2,1093.7 703.1,1081.9 703.1,1068.1 L703.1,766.1z"/>
                </g>
              </g>
            </g>
          </g>
        </mask>
        <g id="masked3" mask="url(#Symbole.__2044)">
          <g id="Symbole.__2052">
            <g id="Symbole.__2045_2" overflow="visible">
              <g id="Calque.__2032">
                <g id="shape85">
                  <path id="path73" fill="#555555" fill-opacity="1" d="M554.45,845.2 C559.3,839.55 565.4,836.1 572.8,834.9 570.8,819.55 566.85,804.6 560.85,790.25 553.7,793.7 546.15,794.25 538.55,791.9 530.9,789.6 525.05,784.95 520.95,778 517.3,771.45 516.1,764.5 517.45,757.1 518.75,749.9 522.2,743.85 527.8,739.1 521.1,731.9 513.8,725.35 505.95,719.3 501.2,724.95 495.2,728.35 488.05,729.55 480.65,730.9 473.65,729.7 467.25,725.9 461.15,722.5 456.85,717.5 454.2,711 451.55,704.7 451.1,698.2 452.9,691.55 443.5,688.55 433.85,686.45 423.95,685.05 422.95,692.65 419.5,698.95 413.75,704.05 408,709.1 401.25,711.65 393.55,711.65 386.15,711.65 379.7,709.35 374.1,704.7 368.45,700.15 364.9,694.3 363.45,687.25 352.5,689.65 342.15,693 332.2,697.2 334.95,704.15 335.05,711.2 332.65,718.4 330.1,725.6 325.55,731.1 319.05,735 312.85,738.65 306.2,739.85 299.25,738.85 Q288.95,737.4 281.7,730 C274.8,736.4 268.65,743.15 263.1,750.25 269.05,754.9 272.85,760.95 274.4,768.5 275.8,776.1 274.7,783.2 270.85,789.8 267.2,796.2 261.9,800.65 255.05,803.2 248.3,805.7 241.45,805.95 234.6,803.6 231.4,813.7 229.05,823.95 227.65,834.7 235.45,835.45 242,838.65 247.3,844.5 252.6,850.4 255.25,857.25 255.25,865.2 255.25,872.6 252.85,879.25 248.05,884.85 243.3,890.5 237.45,894.05 230.3,895.35 231.25,900.25 232.6,904.85 234.05,909.4 236.8,908.65 239.65,908.3 242.45,908.4 247.75,908.5 252.7,909.95 257.25,912.6 262,915.35 265.65,919 268.4,923.75 272.15,930.3 273.4,937.25 271.95,944.65 270.6,951.95 267.1,957.9 261.45,962.7 267.75,970.95 274.7,978.7 282.35,985.65 285.2,982.25 288.65,979.5 292.75,977.5 296.8,975.6 301,974.6 305.45,974.5 311.1,974.4 316.4,975.7 321.35,978.6 328.3,982.7 333.05,988.55 335.4,996.15 337.7,1003.8 337.15,1011.3 333.75,1018.5 343.35,1022.45 353.3,1025.55 363.45,1027.65 364.9,1020.7 368.45,1014.85 374.1,1010.3 379.7,1005.65 386.15,1003.35 393.55,1003.35 401.25,1003.35 408,1005.9 413.75,1011 419.5,1016.05 422.95,1022.35 423.95,1030 433.1,1028.75 442.15,1026.8 451,1024 448.7,1017.3 448.8,1010.4 451.35,1003.55 453.9,996.6 458.4,991.3 464.8,987.65 469.35,985.1 474.1,983.7 479.3,983.55 484.4,983.45 489.15,984.45 493.65,986.65 498.3,989 502.2,992.2 505.15,996.4 513.9,989.85 521.95,982.35 529.6,973.95 524.2,969.2 520.95,963.25 519.75,956.05 518.55,948.85 519.75,942 523.4,935.7 526.15,930.95 529.9,927.2 534.7,924.45 539.2,921.8 544.05,920.45 549.4,920.35 553.6,920.25 557.65,921 561.65,922.65 565.3,913.7 568.15,904.55 570.25,894.9 563.5,893.25 558,889.6 553.7,884.2 549.25,878.55 547.05,872.25 547.05,865.2 547.05,857.55 549.5,850.95 554.45,845.2z M352.2,743.85 C367.45,737.3 383.45,734.1 400.15,734.1 416.95,734.1 433,737.3 448.25,743.85 462.95,750 476.1,758.85 487.5,770.25 498.85,781.65 507.7,794.8 513.9,809.5 520.4,824.75 523.6,840.75 523.6,857.55 523.6,874.25 520.4,890.3 513.9,905.55 507.7,920.35 498.85,933.4 487.5,944.75 476.1,956.15 462.95,965 448.25,971.2 433,977.7 416.95,980.9 400.15,980.9 383.45,980.9 367.45,977.7 352.2,971.2 337.5,965 324.35,956.15 312.95,944.75 301.55,933.4 292.75,920.25 286.55,905.55 280,890.3 276.8,874.25 276.8,857.55 276.8,840.75 280,824.75 286.55,809.5 292.75,794.8 301.55,781.65 312.95,770.25 324.35,758.85 337.5,750 352.2,743.85z"/>
                  <path id="path74" fill="#282828" fill-opacity="1" d="M352.2,743.85 C337.5,750 324.35,758.85 312.95,770.25 301.55,781.65 292.75,794.8 286.55,809.5 280,824.75 276.8,840.75 276.8,857.55 276.8,874.25 280,890.3 286.55,905.55 292.75,920.25 301.55,933.4 312.95,944.75 324.35,956.15 337.5,965 352.2,971.2 367.45,977.7 383.45,980.9 400.15,980.9 416.95,980.9 433,977.7 448.25,971.2 462.95,965 476.1,956.15 487.5,944.75 498.85,933.4 507.7,920.35 513.9,905.55 520.4,890.3 523.6,874.25 523.6,857.55 523.6,840.75 520.4,824.75 513.9,809.5 507.7,794.8 498.85,781.65 487.5,770.25 476.1,758.85 462.95,750 448.25,743.85 433,737.3 416.95,734.1 400.15,734.1 383.45,734.1 367.45,737.3 352.2,743.85z M372.75,790.25 C381.25,786.6 390.1,784.85 399.5,784.85 408.8,784.85 417.65,786.6 426.15,790.25 L426.25,790.25 C434.3,793.7 441.5,798.55 447.8,804.85 L448,804.95 C454.3,811.25 459.2,818.55 462.7,826.85 L462.6,826.7 C466.25,835.25 468.05,844.1 468.05,853.35 468.05,862.65 466.25,871.5 462.6,880 L462.7,880 C459.2,888.3 454.3,895.6 448,901.9 L447.8,902 C441.5,908.2 434.3,913.05 426.25,916.45 L425.9,916.6 C417.5,920 408.65,921.8 399.5,921.8 390.2,921.8 381.35,920 372.95,916.6 L372.75,916.45 C364.6,913.05 357.45,908.25 351.2,902 351.2,902 351.1,901.9 351.1,901.9 344.65,895.55 339.7,888.25 336.3,880 332.65,871.5 330.85,862.65 330.85,853.35 330.85,844.1 332.65,835.25 336.3,826.7 L336.3,826.85 C339.7,818.55 344.65,811.25 351.1,804.95 351.1,804.95 351.2,804.85 351.2,804.85 357.45,798.55 364.6,793.7 372.75,790.25z"/>
                  <path id="path75" fill="#555555" fill-opacity="1" d="M372.75,790.25 C364.6,793.7 357.45,798.55 351.2,804.85 351.2,804.85 351.1,804.95 351.1,804.95 344.65,811.25 339.7,818.55 336.3,826.85 L336.3,826.7 C332.65,835.25 330.85,844.1 330.85,853.35 330.85,862.65 332.65,871.5 336.3,880 339.7,888.25 344.65,895.55 351.1,901.9 351.1,901.9 351.2,902 351.2,902 357.45,908.25 364.6,913.05 372.75,916.45 L372.95,916.6 C381.35,920 390.2,921.8 399.5,921.8 408.65,921.8 417.5,920 425.9,916.6 L426.25,916.45 C434.3,913.05 441.5,908.2 447.8,902 L448,901.9 C454.3,895.6 459.2,888.3 462.7,880 L462.6,880 C466.25,871.5 468.05,862.65 468.05,853.35 468.05,844.1 466.25,835.25 462.6,826.7 L462.7,826.85 C459.2,818.55 454.3,811.25 448,804.95 L447.8,804.85 C441.5,798.55 434.3,793.7 426.25,790.25 L426.15,790.25 C417.65,786.6 408.8,784.85 399.5,784.85 390.1,784.85 381.25,786.6 372.75,790.25z M389.65,843.55 C392.45,840.85 395.65,839.55 399.5,839.55 403.25,839.55 406.45,840.85 409.25,843.55 409.35,843.55 409.35,843.55 409.45,843.65 412,846.4 413.3,849.6 413.3,853.35 413.3,857.15 412,860.45 409.35,863.2 408.1,864.4 406.7,865.3 405.15,865.95 405.05,866.05 404.8,866.05 404.7,866.2 403.05,866.85 401.25,867.2 399.5,867.2 395.65,867.2 392.45,865.85 389.65,863.1 386.9,860.35 385.55,857.1 385.55,853.35 385.55,849.6 386.9,846.4 389.55,843.65 389.55,843.55 389.55,843.55 389.65,843.55z M625.85,863.95 C619.65,867.6 613,868.85 606.05,867.85 599.2,866.85 593.35,863.95 588.45,859 581.6,865.4 575.45,872.15 569.9,879.25 575.85,883.85 579.65,889.95 581.2,897.45 582.6,905.1 581.5,912.15 577.65,918.8 574,925.2 568.7,929.65 561.85,932.15 555.1,934.7 548.25,934.95 541.4,932.6 538.2,942.65 535.85,952.95 534.4,963.65 542.25,964.45 548.8,967.65 554.1,973.5 559.4,979.35 562.05,986.2 562.05,994.2 562.05,1001.6 559.6,1008.2 554.85,1013.85 550.1,1019.5 544.25,1023 537.05,1024.35 538.05,1029.2 539.4,1033.85 540.85,1038.4 543.6,1037.6 546.45,1037.3 549.25,1037.4 554.55,1037.5 559.5,1038.95 564.05,1041.6 568.8,1044.35 572.45,1048 575.2,1052.75 578.95,1059.3 580.2,1066.25 578.75,1073.65 577.4,1080.95 573.9,1086.9 568.25,1091.65 574.55,1099.95 581.5,1107.7 589.15,1114.65 592,1111.25 595.45,1108.45 599.5,1106.45 603.6,1104.6 607.8,1103.6 612.25,1103.5 617.85,1103.4 623.2,1104.7 628.15,1107.6 635.1,1111.65 639.85,1117.55 642.2,1125.15 644.5,1132.8 643.95,1140.3 640.55,1147.5 650.15,1151.45 660.1,1154.55 670.25,1156.65 671.7,1149.7 675.25,1143.85 680.85,1139.3 686.5,1134.65 692.9,1132.35 700.3,1132.35 708.05,1132.35 714.8,1134.9 720.55,1139.95 726.3,1145.05 729.75,1151.35 730.7,1158.95 739.9,1157.75 748.95,1155.75 757.8,1153 755.5,1146.25 755.6,1139.4 758.15,1132.55 760.65,1125.6 765.2,1120.3 771.6,1116.65 776.15,1114.1 780.9,1112.65 786.1,1112.55 791.2,1112.45 795.95,1113.45 800.45,1115.65 805.1,1117.95 808.95,1121.15 811.95,1125.35 820.7,1118.85 828.75,1111.35 836.4,1102.95 830.95,1098.2 827.75,1092.2 826.55,1085.05 825.35,1077.85 826.55,1071 830.2,1064.7 832.95,1059.95 836.7,1056.2 841.45,1053.4 846,1050.75 850.85,1049.45 856.15,1049.35 860.35,1049.2 864.45,1050 868.45,1051.65 872.1,1042.7 874.95,1033.5 877.05,1023.9 870.3,1022.25 864.8,1018.6 860.5,1013.2 856.05,1007.55 853.85,1001.25 853.85,994.2 853.85,986.55 856.3,979.9 861.25,974.15 866.1,968.55 872.2,965.1 879.6,963.9 877.6,948.55 873.65,933.6 867.65,919.25 860.5,922.65 852.95,923.2 845.35,920.9 837.7,918.6 831.85,913.95 827.75,906.95 824.1,900.45 822.9,893.5 824.25,886.1 825.55,878.9 829,872.8 834.6,868.05 827.85,860.9 820.6,854.35 812.75,848.3 808,853.9 802,857.35 794.85,858.55 787.4,859.9 780.45,858.65 774.05,854.9 767.95,851.5 763.65,846.5 761,840 758.35,833.7 757.9,827.15 759.7,820.55 750.3,817.55 740.65,815.45 730.7,814 729.75,821.65 726.3,827.95 720.55,833.05 714.8,838.1 708.05,840.65 700.3,840.65 692.9,840.65 686.5,838.35 680.85,833.7 675.25,829.15 671.7,823.3 670.25,816.25 659.3,818.65 648.95,821.95 639,826.15 641.75,833.15 641.85,840.2 639.4,847.4 636.9,854.6 632.35,860.1 625.85,863.95z M706.95,863.1 C723.75,863.1 739.8,866.3 755.05,872.8 769.75,879 782.9,887.85 794.25,899.25 805.65,910.6 814.5,923.75 820.7,938.45 827.2,953.7 830.4,969.75 830.4,986.55 830.4,1003.25 827.2,1019.25 820.7,1034.5 814.5,1049.35 805.65,1062.35 794.25,1073.75 782.9,1085.15 769.75,1094 755.05,1100.15 739.8,1106.7 723.75,1109.9 706.95,1109.9 690.25,1109.9 674.25,1106.7 659,1100.15 644.3,1094 631.15,1085.15 619.75,1073.75 608.35,1062.35 599.5,1049.2 593.35,1034.5 586.8,1019.25 583.6,1003.25 583.6,986.55 583.6,969.75 586.8,953.7 593.35,938.45 599.5,923.75 608.35,910.6 619.75,899.25 631.15,887.85 644.3,879 659,872.8 674.25,866.3 690.25,863.1 706.95,863.1z"/>
                  <path id="path76" fill="#282828" fill-opacity="1" d="M706.95,863.1 C690.25,863.1 674.25,866.3 659,872.8 644.3,879 631.15,887.85 619.75,899.25 608.35,910.6 599.5,923.75 593.35,938.45 586.8,953.7 583.6,969.75 583.6,986.55 583.6,1003.25 586.8,1019.25 593.35,1034.5 599.5,1049.2 608.35,1062.35 619.75,1073.75 631.15,1085.15 644.3,1094 659,1100.15 674.25,1106.7 690.25,1109.9 706.95,1109.9 723.75,1109.9 739.8,1106.7 755.05,1100.15 769.75,1094 782.9,1085.15 794.25,1073.75 805.65,1062.35 814.5,1049.35 820.7,1034.5 827.2,1019.25 830.4,1003.25 830.4,986.55 830.4,969.75 827.2,953.7 820.7,938.45 814.5,923.75 805.65,910.6 794.25,899.25 782.9,887.85 769.75,879 755.05,872.8 739.8,866.3 723.75,863.1 706.95,863.1z M706.3,913.8 C715.6,913.8 724.4,915.6 732.95,919.25 L733.05,919.25 C741.1,922.65 748.3,927.55 754.6,933.85 L754.8,933.95 C761.1,940.25 766,947.55 769.5,955.8 L769.4,955.7 C773.05,964.2 774.8,973.05 774.8,982.35 774.8,991.65 773.05,1000.5 769.4,1009 L769.5,1009 C766,1017.3 761.1,1024.55 754.8,1030.85 L754.6,1031 C748.3,1037.15 741.1,1042.05 733.05,1045.45 L732.7,1045.55 C724.3,1049 715.45,1050.75 706.3,1050.75 697,1050.75 688.15,1049 679.75,1045.55 L679.55,1045.45 C671.35,1042.05 664.2,1037.15 657.9,1030.85 L658,1031 C651.45,1024.55 646.5,1017.3 643.05,1009 639.4,1000.5 637.65,991.65 637.65,982.35 637.65,973.05 639.4,964.2 643.05,955.7 L643.05,955.8 C646.5,947.55 651.45,940.25 657.9,933.95 657.9,933.95 658,933.85 658,933.85 664.25,927.55 671.4,922.7 679.55,919.25 688.05,915.6 696.9,913.8 706.3,913.8z"/>
                  <path id="path77" fill="#555555" fill-opacity="1" d="M706.3,913.8 C696.9,913.8 688.05,915.6 679.55,919.25 671.4,922.7 664.25,927.55 658,933.85 658,933.85 657.9,933.95 657.9,933.95 651.45,940.25 646.5,947.55 643.05,955.8 L643.05,955.7 C639.4,964.2 637.65,973.05 637.65,982.35 637.65,991.65 639.4,1000.5 643.05,1009 646.5,1017.3 651.45,1024.55 658,1031 L657.9,1030.85 C664.2,1037.15 671.35,1042.05 679.55,1045.45 L679.75,1045.55 C688.15,1049 697,1050.75 706.3,1050.75 715.45,1050.75 724.3,1049 732.7,1045.55 L733.05,1045.45 C741.1,1042.05 748.3,1037.15 754.6,1031 L754.8,1030.85 C761.1,1024.55 766,1017.3 769.5,1009 L769.4,1009 C773.05,1000.5 774.8,991.65 774.8,982.35 774.8,973.05 773.05,964.2 769.4,955.7 L769.5,955.8 C766,947.55 761.1,940.25 754.8,933.95 L754.6,933.85 C748.3,927.55 741.1,922.65 733.05,919.25 L732.95,919.25 C724.4,915.6 715.6,913.8 706.3,913.8z M716,992.3 L716.15,992.2 C714.9,993.4 713.5,994.3 711.95,994.95 711.8,995.05 711.6,995.05 711.5,995.15 709.85,995.85 708.05,996.15 706.3,996.15 702.4,996.15 699.2,994.85 696.45,992.1 693.7,989.3 692.35,986.1 692.35,982.35 692.35,978.6 693.7,975.4 696.35,972.6 696.35,972.5 696.35,972.5 696.45,972.5 699.2,969.85 702.4,968.55 706.3,968.55 710.05,968.55 713.25,969.85 716,972.5 716.15,972.5 716.15,972.5 716.25,972.6 718.8,975.4 720.1,978.6 720.1,982.35 720.1,986.2 718.8,989.55 716,992.3z"/>
                </g>
              </g>
            </g>
          </g>
          <g id="Symbole.__2053">
            <g id="Symbole.__2047_2" overflow="visible">
              <g id="Calque.__2033">
                <g id="shape86">
                  <path id="path78" fill="#333333" fill-opacity="1" d="M703.1,766.1 Q703.1,745.4 688.45,730.75 C678.7,721 666.9,716.1 653.1,716.1 L371.1,716.1 C357.3,716.1 345.5,721 335.75,730.75 326,740.5 321.1,752.3 321.1,766.1 L321.1,1068.1 C321.1,1081.9 326,1093.7 335.75,1103.45 345.5,1113.2 357.3,1118.1 371.1,1118.1 L653.1,1118.1 C666.9,1118.1 678.7,1113.2 688.45,1103.45 698.2,1093.7 703.1,1081.9 703.1,1068.1 L703.1,766.1z"/>
                </g>
              </g>
            </g>
          </g>
        </g>
      </g>
    </g>
  </g>
</svg>