<?xml version="1.0" encoding="utf-8"?>
<!-- Generator: flash2svg, http://dissentgraphics.com/tools/flash2svg -->
<svg xmlns:xlink="http://www.w3.org/1999/xlink" id="Caffeine" image-rendering="optimizeSpeed" baseProfile="basic" version="1.1" style="background-color:#ffffff" x="0px" y="0px" width="1024px" height="1024px" viewBox="0 0 1024 1024" enable-background="new 0 0 1024 1024" xmlns="http://www.w3.org/2000/svg">
  <defs transform="matrix(1 0 0 1 0 0) "/>
  <g id="shadow">
    <g id="shape">
      <path id="path" fill="#000000" fill-opacity="0.09803921568627451" d="M957.65,339.3 Q949.037,318.427 938.25,298.45 C934.2,290.9 929.9,283.4 925.35,276.05 905.8,244.35 881.95,214.4 853.8,186.25 761.65,94.1 650.35,48 520,48 389.65,48 278.4,94.1 186.25,186.25 94.1,278.4 48,389.65 48,520 48,650.35 94.1,761.65 186.25,853.8 278.4,945.95 389.65,992 520,992 650.35,992 761.65,945.95 853.8,853.8 904.55,803 941.35,746.4 964.15,684.05 982.7,633.2 992,578.55 992,520 992,475.1 986.55,432.45 975.6,392.05 974.35,387.5 973.05,382.95 971.7,378.45 967.6,365.15 962.9,352.1 957.65,339.3z"/>
    </g>
  </g>
  <g id="circle">
    <g id="shape2">
      <path id="path1" fill="#684D34" fill-opacity="1" d="M969.75,392.05 C968.65,387.7 967.4,383.05 966.1,378.45 963.6,369.7 960.75,360.85 957.65,352.1 951.2,333.85 943.5,316.05 934.5,298.45 930.7,291.05 926.55,283.5 922.2,276.05 L922.175,276.05 Q891.574,224.04 845.85,178.3 C753.7,86.15 642.4,40.05 512.05,40.05 381.7,40.05 270.45,86.15 178.3,178.3 86.15,270.45 40.05,381.7 40.05,512.05 40.05,642.4 86.15,753.7 178.3,845.85 270.45,938 381.7,984.05 512.05,984.05 524.75,984.05 537.25,983.6 549.1,982.8 569.3,981.35 589,978.75 607.8,975.1 615.75,973.55 623.6,971.8 631.2,969.95 712,949.65 783.35,908.35 845.85,845.85 894.45,797.25 930.25,743.35 953.2,684.05 971.65,636.4 981.85,585.25 983.75,530.55 983.95,524.5 984.05,518.3 984.05,512.05 984.05,470.3 979.35,430.45 969.75,392.05z"/>
    </g>
  </g>
  <g id="Calque.__202">
    <g id="shape4">
      <path id="path2" fill="#000000" fill-opacity="0.2" d="M785.7,404.1 L786.9,453.2 C787.65,487.05 788.05,506.65 788.05,512.05 788.05,587.7 761.3,652.3 707.8,705.8 689.2,724.4 669.25,739.75 647.8,752 647.95,753.35 648.05,754.7 648.05,756.05 L648.05,826.05 C648.05,834.3 645.1,841.4 639.25,847.25 633.4,853.1 626.3,856.05 618.05,856.05 L406.05,856.05 C398.3,856.05 391.65,853.5 386,848.35 L521.625,983.975 L521.65,984 C531,983.8 540.2,983.4 549.1,982.8 569.3,981.35 589,978.75 607.8,975.1 615.75,973.55 623.6,971.8 631.2,969.95 712,949.65 783.35,908.35 845.85,845.85 894.45,797.25 930.25,743.35 953.2,684.05 965.35,652.65 973.9,619.7 979,585.05 L978.975,585.025 L778,384.05 C783.15,389.7 785.7,396.35 785.7,404.1z"/>
      <path id="path3" fill="#FFFFFF" fill-opacity="0.2980392156862745" d="M777.975,384.025 L778,384.05 C777.65,383.65 777.25,383.25 776.9,382.9 776.65,382.65 776.35,382.35 776.05,382.1 770.35,376.75 763.55,374.1 755.7,374.1 L266.05,374.1 C257.8,374.1 250.7,377.05 244.85,382.9 239,388.75 236.05,395.85 236.05,404.1 L236.05,520.05 C236.05,526.25 237.7,531.8 241.05,536.65 246.3,601.8 272.7,658.2 320.3,705.8 338,723.5 356.95,738.3 376.65,749.9 376.25,751.85 376.05,753.9 376.05,756.05 L376.05,826.05 C376.05,834.3 379,841.4 384.85,847.25 385.1,847.5 385.4,847.8 385.7,848.05 385.8,848.15 385.9,848.25 386,848.35 L385.975,848.325 L386,848.35 C391.65,853.5 398.3,856.05 406.05,856.05 L618.05,856.05 C626.3,856.05 633.4,853.1 639.25,847.25 645.1,841.4 648.05,834.3 648.05,826.05 L648.05,756.05 C648.05,754.7 647.95,753.35 647.8,752 669.25,739.75 689.2,724.4 707.8,705.8 761.3,652.3 788.05,587.7 788.05,512.05 788.05,506.65 787.65,487.05 786.9,453.2 L785.7,404.1 C785.7,396.35 783.15,389.7 778,384.05"/>
    </g>
  </g>
  <mask id="circle1">
    <g id="g">
      <g id="shape14">
        <path id="path9" fill="#FFFFFF" fill-opacity="1" d="M969.75,392.05 C968.65,387.7 967.4,383.05 966.1,378.45 963.6,369.7 960.75,360.85 957.65,352.1 951.2,333.85 943.5,316.05 934.5,298.45 930.7,291.05 926.55,283.5 922.2,276.05 L922.175,276.05 Q891.574,224.04 845.85,178.3 C753.7,86.15 642.4,40.05 512.05,40.05 381.7,40.05 270.45,86.15 178.3,178.3 86.15,270.45 40.05,381.7 40.05,512.05 40.05,642.4 86.15,753.7 178.3,845.85 270.45,938 381.7,984.05 512.05,984.05 524.75,984.05 537.25,983.6 549.1,982.8 569.3,981.35 589,978.75 607.8,975.1 615.75,973.55 623.6,971.8 631.2,969.95 712,949.65 783.35,908.35 845.85,845.85 894.45,797.25 930.25,743.35 953.2,684.05 971.65,636.4 981.85,585.25 983.75,530.55 983.95,524.5 984.05,518.3 984.05,512.05 984.05,470.3 979.35,430.45 969.75,392.05z"/>
      </g>
    </g>
  </mask>
  <g id="masked" mask="url(#circle1)">
    <g id="Calque.__203">
      <g id="shape8">
        <path id="path4" fill="#FFCC00" fill-opacity="1" d="M298.1,-80.25 Q285.705,-67.866 285.7,-50.35 L285.7,181.65 C285.7,193.3 289.85,203.3 298.1,211.55 306.35,219.8 316.35,223.95 328,223.95 339.65,223.95 349.65,219.8 357.9,211.55 366.15,203.3 370.3,193.3 370.3,181.65 L370.3,-50.35 C370.3,-62 366.15,-72 357.9,-80.25 349.65,-88.5 339.65,-92.65 328,-92.65 316.35,-92.65 306.35,-88.5 298.1,-80.25z M482.15,-80.25 C473.9,-72 469.75,-62 469.75,-50.35 L469.75,181.65 C469.75,193.3 473.9,203.3 482.15,211.55 490.4,219.8 500.4,223.95 512.05,223.95 523.7,223.95 533.7,219.8 541.95,211.55 550.2,203.3 554.35,193.3 554.35,181.65 L554.35,-50.35 C554.35,-62 550.2,-72 541.95,-80.25 533.7,-88.5 523.7,-92.65 512.05,-92.65 500.4,-92.65 490.4,-88.5 482.15,-80.25z M726,-80.25 C717.75,-88.5 707.75,-92.65 696.1,-92.65 684.45,-92.65 674.45,-88.5 666.2,-80.25 657.95,-72 653.8,-62 653.8,-50.35 L653.8,181.65 C653.8,193.3 657.95,203.3 666.2,211.55 674.45,219.8 684.45,223.95 696.1,223.95 707.75,223.95 717.75,219.8 726,211.55 734.25,203.3 738.4,193.3 738.4,181.65 L738.4,-50.35 C738.4,-62 734.25,-72 726,-80.25z"/>
      </g>
    </g>
  </g>
  <g id="Calque.__204">
    <g id="shape16">
      <path id="path10" fill="#FFFFFF" fill-opacity="1" d="M703.4,332.85 C697.55,327 690.45,324.05 682.2,324.05 L467.15,324.05 C503,312.75 514.6,282.1 502.05,232.1 471.5,284.2 406.3,284.8 351.05,302.05 336.7,306.55 326.75,312.6 321.1,320.25 315.75,327.5 312.75,338.35 312.1,352.8 L312.1,412.15 712.2,412.15 712.2,354.05 C712.2,345.8 709.25,338.7 703.4,332.85z"/>
      <path id="path11" fill="#403123" fill-opacity="1" d="M713.25,474.1 L712.2,412.15 312.1,412.15 312.1,518.3 C312.6,527.35 313.1,533.4 313.7,534.25 317.55,581.3 336.85,621.95 371.7,656.25 410.85,694.85 458.15,714.15 513.55,714.15 568.9,714.15 616.2,694.85 655.35,656.25 694.5,617.7 714.1,571.1 714.1,516.55 Q714.1,510.7 713.25,474.1z"/>
    </g>
  </g>
</svg>