<?xml version="1.0" encoding="utf-8"?>
<!-- Generator: flash2svg, http://dissentgraphics.com/tools/flash2svg -->
<svg id="Calendar" image-rendering="optimizeSpeed" baseProfile="basic" version="1.1" style="background-color:#FFFFFF" x="0px" y="0px" width="1024px" height="1024px" viewBox="0 0 1024 1024" enable-background="new 0 0 1024 1024" xmlns="http://www.w3.org/2000/svg" xmlns:xlink="http://www.w3.org/1999/xlink">
  <defs transform="matrix(1 0 0 1 0 0) "/>
  <g id="shadow">
    <g id="shape">
      <path id="path" fill="#000000" fill-opacity="0.09803921568627451" d="M969.6,351.25 Q961,330.4 950.2,310.4 C946.15,302.85 941.85,295.35 937.3,288 917.75,256.3 893.9,226.35 865.75,198.2 773.6,106.05 662.3,59.95 531.95,59.95 401.6,59.95 290.35,106.05 198.2,198.2 106.05,290.35 59.95,401.6 59.95,531.95 59.95,662.3 106.05,773.6 198.2,865.75 290.35,957.9 401.6,1003.95 531.95,1003.95 662.3,1003.95 773.6,957.9 865.75,865.75 916.5,814.95 953.3,758.35 976.1,696 994.65,645.15 1003.95,590.5 1003.95,531.95 1003.95,487.05 998.5,444.4 987.55,404 986.3,399.45 985,394.9 983.65,390.4 979.55,377.1 974.85,364.05 969.6,351.25z"/>
    </g>
  </g>
  <g id="circle">
    <g id="shape2">
      <path id="path1" fill="#333333" fill-opacity="1" d="M933.45,296.55 C929.35,288.4 924.9,280.25 920.25,272.2 910.5,255.45 899.65,239.4 887.55,223.75 882.4,217.2 876.95,210.6 871.3,204.05 844.95,173.9 813.8,146.55 778.15,122.15 693.35,64.25 602.05,36.7 504.4,39.45 487.95,39.9 471.35,41.15 454.25,43.45 444.55,44.7 434.55,46.3 424.45,48.2 415.3,49.95 406.25,51.9 397.2,54.1 282.05,82.05 190.35,146.05 122.15,245.95 Q11.95,407.45 48.2,599.55 C72.4,727.65 138.3,828.45 245.95,901.95 345.85,970.1 454.55,996.2 572,980.3 572.15,980.3 572.25,980.25 572.4,980.25 580.85,979.1 588.85,977.85 596.6,976.4 597.8,976.2 598.7,976 599.55,975.85 609.7,973.95 619.65,971.75 629,969.45 631.4,968.85 633.6,968.3 635.7,967.75 655.3,962.6 674.2,956.35 692,949.3 699.5,946.25 706.9,943.1 714,939.85 789.65,904.95 852.1,851.15 901.95,778.15 940.7,721.35 965.85,661.75 977.4,599.25 986.7,548.95 987.25,496.8 979,442.7 978.05,436.75 977,430.6 975.85,424.45 975.75,423.85 975.6,423.15 975.5,422.5 975.4,422.15 975.35,421.85 975.3,421.5 967.55,381.6 955.65,344.35 939.55,309.2 937.65,305.1 935.55,300.8 933.45,296.55z"/>
    </g>
  </g>
  <g id="inner-circle">
    <g id="Symbole.__203_1" overflow="visible">
      <g id="Calque.__203">
        <g id="element6" transform="matrix(1 0 0 1 80.5 80.45) "/>
      </g>
    </g>
  </g>
  <g id="txt">
    <g id="Symbole.__205_1" overflow="visible">
      <g id="Calque.__204">
        <g id="shape21">
          <path id="path19" fill="#666666" fill-opacity="1" d="M716.2,458.85 Q703.65,450.45 688.35,447.4 C678.15,445.5 667.05,445.35 655.05,446.95 L621.2,451.9 C598.05,455.55 577.9,459.75 560.75,464.6 543.6,469.3 529.45,474.65 518.25,480.65 L528,542.3 625.6,526.85 C637.7,524.95 647.1,524.3 653.85,524.95 662.1,526.3 667.05,532.1 668.65,542.3 L669.25,546 C670.2,552.15 669.35,557.5 666.7,562.05 664.25,565.25 653,568.85 632.9,572.85 L564.7,588.1 575.2,654.75 644.6,646.95 C660.25,645.3 670.85,645.2 676.3,646.6 681.9,648.15 685.4,653.35 686.8,662.3 L687.4,666.2 C688.85,675.45 687.3,681.55 682.7,684.5 678.2,687.35 667.1,690.15 649.35,692.95 L557.1,707.55 566.55,769.7 C578.2,771.95 592.55,772.7 609.6,771.95 626.85,771.2 646.8,769.05 669.5,765.45 L701.45,760.4 C727.45,756.3 746.65,746.2 759.1,730.15 765.25,722.1 769.45,712.95 771.65,702.6 773.8,692.1 773.85,680.5 771.85,667.85 L769.9,655.7 C767.05,637.8 761.85,623.9 754.25,613.95 746.6,604 736.55,598.15 724.15,596.3 735.3,590.15 743,581.5 747.35,570.25 751.6,559 752.45,545.25 749.9,529 L747.25,512.5 C745.3,500.25 741.75,489.65 736.55,480.6 731.3,471.65 724.55,464.4 716.2,458.85z M274.3,516.7 L284,578 378.7,563 C397.25,560.05 410.2,559.8 417.5,562.15 424.75,564.65 429.45,572.35 431.5,585.3 432.55,591.75 429.65,601.25 422.85,613.7 416.1,626.2 405.45,641.7 390.9,660.25 361.95,697.1 336.3,725.7 313.95,746 L325.2,816.95 546.75,781.9 535.15,708.45 446.45,722.5 468.15,693.9 490.95,658.95 C510.15,627.2 517.55,597.45 513.2,569.8 508.3,538.85 496.3,515.55 477.15,499.8 458,483.95 432.55,478.5 400.8,483.55 353.75,491 311.6,502.05 274.3,516.7z"/>
          <path id="path20" fill="#FFFFFF" fill-opacity="1" d="M367.35,340.85 C368.35,339.9 369.4,338.5 370.55,336.6 372.6,332.8 372.75,326.2 371.05,316.8 369.3,307.15 365.85,300.7 360.65,297.45 358.05,295.9 355.1,294.85 351.85,294.4 348.55,293.95 344.9,294.1 340.95,294.85 L303.95,301.55 318.95,384.25 340.85,380.25 335.25,349.4 342.35,349.8 358.3,377.1 383.25,372.6 363.3,343.85 367.35,340.85z M341.45,314 C343.8,313.55 345.5,313.9 346.6,315.05 347.7,316.2 348.55,318.25 349.1,321.25 349.65,324.25 349.65,326.45 349.2,327.9 348.7,329.3 347.15,330.25 344.5,330.7 L332.4,332.9 329.35,316.2 341.45,314z M301.15,322.9 L297.8,304.5 C283.55,305.85 271.1,307.5 260.55,309.4 257.8,309.9 255.35,310.7 253.15,311.8 250.9,312.9 248.95,314.25 247.25,315.9 245.15,317.9 243.8,320.3 243.15,323.1 242.4,325.95 242.4,329.2 243.05,332.9 L254.5,395.95 276.45,391.95 270.85,361.2 301.1,354.75 297.8,336.5 267.15,340.75 265.85,332.65 C265.8,331.9 266.2,331.1 267.05,330.25 267.9,329.3 269.2,328.7 271,328.4 L301.15,322.9z"/>
        </g>
      </g>
    </g>
  </g>
</svg>