<?xml version="1.0" encoding="utf-8"?>
<!-- Generator: flash2svg, http://dissentgraphics.com/tools/flash2svg -->
<svg id="Calendar-empty" image-rendering="optimizeSpeed" baseProfile="basic" version="1.1" style="background-color:#FFFFFF" x="0px" y="0px" width="1024px" height="1024px" viewBox="0 0 1024 1024" enable-background="new 0 0 1024 1024" xmlns="http://www.w3.org/2000/svg" xmlns:xlink="http://www.w3.org/1999/xlink">
  <defs transform="matrix(1 0 0 1 0 0) "/>
  <g id="shadow">
    <g id="shape">
      <path id="path" fill="#000000" fill-opacity="0.09803921568627451" d="M969.6,351.25 Q961,330.4 950.2,310.4 C946.15,302.85 941.85,295.35 937.3,288 917.75,256.3 893.9,226.35 865.75,198.2 773.6,106.05 662.3,59.95 531.95,59.95 401.6,59.95 290.35,106.05 198.2,198.2 106.05,290.35 59.95,401.6 59.95,531.95 59.95,662.3 106.05,773.6 198.2,865.75 290.35,957.9 401.6,1003.95 531.95,1003.95 662.3,1003.95 773.6,957.9 865.75,865.75 916.5,814.95 953.3,758.35 976.1,696 994.65,645.15 1003.95,590.5 1003.95,531.95 1003.95,487.05 998.5,444.4 987.55,404 986.3,399.45 985,394.9 983.65,390.4 979.55,377.1 974.85,364.05 969.6,351.25z"/>
    </g>
  </g>
  <g id="circle">
    <g id="shape2">
      <path id="path1" fill="#333333" fill-opacity="1" d="M933.45,296.55 C929.35,288.4 924.9,280.25 920.25,272.2 910.5,255.45 899.65,239.4 887.55,223.75 882.4,217.2 876.95,210.6 871.3,204.05 844.95,173.9 813.8,146.55 778.15,122.15 693.35,64.25 602.05,36.7 504.4,39.45 487.95,39.9 471.35,41.15 454.25,43.45 444.55,44.7 434.55,46.3 424.45,48.2 415.3,49.95 406.25,51.9 397.2,54.1 282.05,82.05 190.35,146.05 122.15,245.95 Q11.95,407.45 48.2,599.55 C72.4,727.65 138.3,828.45 245.95,901.95 345.85,970.1 454.55,996.2 572,980.3 572.15,980.3 572.25,980.25 572.4,980.25 580.85,979.1 588.85,977.85 596.6,976.4 597.8,976.2 598.7,976 599.55,975.85 609.7,973.95 619.65,971.75 629,969.45 631.4,968.85 633.6,968.3 635.7,967.75 655.3,962.6 674.2,956.35 692,949.3 699.5,946.25 706.9,943.1 714,939.85 789.65,904.95 852.1,851.15 901.95,778.15 940.7,721.35 965.85,661.75 977.4,599.25 986.7,548.95 987.25,496.8 979,442.7 978.05,436.75 977,430.6 975.85,424.45 975.75,423.85 975.6,423.15 975.5,422.5 975.4,422.15 975.35,421.85 975.3,421.5 967.55,381.6 955.65,344.35 939.55,309.2 937.65,305.1 935.55,300.8 933.45,296.55z"/>
    </g>
  </g>
  <g id="inner-circle">
    <g id="Symbole.__203_1" overflow="visible">
      <g id="Calque.__202">
        <g id="element4" transform="matrix(1 0 0 1 80.5 80.45) "/>
      </g>
    </g>
  </g>
</svg>