<?xml version="1.0" encoding="utf-8"?>
<!-- Generator: flash2svg, http://dissentgraphics.com/tools/flash2svg -->
<svg xmlns:xlink="http://www.w3.org/1999/xlink" id="ClamXav" image-rendering="optimizeSpeed" baseProfile="basic" version="1.1" style="background-color:#ffffff" x="0px" y="0px" width="1024px" height="1024px" viewBox="0 0 1024 1024" enable-background="new 0 0 1024 1024" xmlns="http://www.w3.org/2000/svg">
  <defs transform="matrix(1 0 0 1 0 0) "/>
  <g id="shadow">
    <g id="shape">
      <path id="path" fill="#000000" fill-opacity="0.09803921568627451" d="M969.65,351.3 Q961.05,330.45 950.25,310.45 C946.2,302.9 941.9,295.4 937.35,288.05 917.8,256.35 893.95,226.4 865.8,198.25 773.65,106.1 662.35,60 532,60 401.65,60 290.4,106.1 198.25,198.25 106.1,290.4 60,401.65 60,532 60,662.35 106.1,773.65 198.25,865.8 290.4,957.95 401.65,1004 532,1004 662.35,1004 773.65,957.95 865.8,865.8 916.55,815 953.35,758.4 976.15,696.05 994.7,645.2 1004,590.55 1004,532 1004,487.1 998.55,444.45 987.6,404.05 986.35,399.5 985.05,394.95 983.7,390.45 979.6,377.15 974.9,364.1 969.65,351.3z"/>
    </g>
  </g>
  <g id="ico-shadow">
    <g id="shape2">
      <path id="path1" fill="#313647" fill-opacity="1" d="M727.2,91.75 C718.5,87.4 709.35,83.1 699.95,79.05 691.35,75.3 682.8,71.85 674.05,68.65 631.95,52.9 589.8,43.3 547.6,40 478.2,34.4 408.65,45.4 338.7,73 315.25,82.3 293.05,92.9 272.1,104.9 230.8,128.6 194.5,157.55 163.6,191.6 Q112,248.2 79.05,324.15 C58.8,370.8 46.2,417.6 41.2,463.8 40.75,468.25 40.35,472.4 40,476.55 36.3,522.15 39.8,567.3 50.25,612.55 55.95,637.1 63.5,661.3 73,685.4 100.7,755.35 140.25,813.8 191.55,860.5 223,889.15 258.75,913.35 298.85,933.3 299,933.35 299.1,933.4 299.2,933.45 302.3,935 305.3,936.45 307.85,937.6 312.75,939.95 317.1,941.95 321.45,943.85 322.55,944.3 323.35,944.7 324.2,945.05 333.65,949.15 343.1,952.9 352.1,956.25 354.45,957.1 356.6,957.9 358.7,958.65 377.75,965.35 396.9,970.8 415.6,974.95 423.5,976.65 431.4,978.2 439.1,979.5 440.05,979.7 441.05,979.8 441.8,979.95 453.45,981.8 465,983.2 476.55,984.15 546.35,989.6 615.75,978.6 685.4,951.1 709.75,941.5 732.7,930.45 754.2,917.95 789.3,897.6 820.65,873.45 848.3,845.45 852.45,841.25 856.5,836.95 860.55,832.55 868.95,823.3 877.05,813.6 884.8,803.45 904.85,777.3 922.35,748.35 937.4,716.75 940,711.25 942.55,705.65 945.05,699.9 945.3,699.3 945.6,698.65 945.85,698.05 946,697.75 946.1,697.45 946.25,697.15 949.05,690.55 951.7,683.9 954.35,677.15 966,646.5 974.5,615.5 979.7,584.1 980.4,579.7 981.1,574.95 981.8,570.2 982.7,562.85 983.55,555.35 984.15,547.6 984.25,546.15 984.4,544.45 984.55,542.65 985.85,523.35 985.85,503.95 984.65,484.25 984.2,477.85 983.65,471.35 982.95,464.65 982.75,462.8 982.5,460.8 982.25,458.8 980.25,442.4 977.3,425.95 973.3,409.1 967.85,385.95 960.45,362.35 951.1,338.7 923.55,268.95 884.1,210.65 832.5,163.6 813.75,146.5 793.15,130.8 770.95,116.65 757.1,107.75 742.65,99.55 727.2,91.75z"/>
    </g>
  </g>
  <g id="ico-shadow1">
    <g id="shape4">
      <path id="path2" fill="#000000" fill-opacity="0.2" d="M958.3,358 L798.35,198.05 229.7,798.5 403.25,972.05 C407.6,973.1 411.6,974.05 415.6,974.95 423.5,976.65 431.4,978.2 439.1,979.5 440.05,979.7 441.05,979.8 441.8,979.95 453.45,981.8 465,983.2 476.55,984.15 546.35,989.6 615.75,978.6 685.4,951.1 709.75,941.5 732.7,930.45 754.2,917.95 789.3,897.6 820.65,873.45 848.3,845.45 852.45,841.25 856.5,836.95 860.55,832.55 868.95,823.3 877.05,813.6 884.8,803.45 904.85,777.3 922.35,748.35 937.4,716.75 940,711.25 942.55,705.65 945.05,699.9 945.3,699.3 945.6,698.65 945.85,698.05 946,697.75 946.1,697.45 946.25,697.15 949.05,690.55 951.7,683.9 954.35,677.15 966,646.5 974.5,615.5 979.7,584.1 980.4,579.7 981.1,574.95 981.8,570.2 982.7,562.85 983.55,555.35 984.15,547.6 984.25,546.15 984.4,544.45 984.55,542.65 985.85,523.35 985.85,503.95 984.65,484.25 984.2,477.85 983.65,471.35 982.95,464.65 982.75,462.8 982.5,460.8 982.25,458.8 980.25,442.4 977.3,425.95 973.3,409.1 Q967.272,383.571 958.3,358z"/>
    </g>
  </g>
  <g id="Calque.__209">
    <g id="shape6">
      <path id="path3" fill="#C26B50" fill-opacity="1" d="M801.65,201.4 Q801.65,198.05 798.35,198.05 L654.45,230.3 C652.2,230.3 651.1,231.4 651.1,233.65 L651.1,345.25 C651.1,347.5 652.2,348.6 654.45,348.6 L766.1,348.6 C768.25,348.6 769.35,347.5 769.35,345.25 L801.65,201.4z"/>
      <path id="path4" fill="#87402D" fill-opacity="1" d="M769.35,654.65 C769.35,652.35 768.25,651.25 766.1,651.25 L654.45,651.25 C652.2,651.25 651.1,652.35 651.1,654.65 L651.1,766.2 C651.1,768.45 652.2,769.55 654.45,769.55 L798.35,801.85 C800.55,801.85 801.65,800.75 801.65,798.5 L769.35,654.65z"/>
      <path id="path5" fill="#E9805F" fill-opacity="1" d="M380.25,233.65 C380.25,231.4 379.15,230.3 376.9,230.3 L232.95,198.05 C230.8,198.05 229.7,199.15 229.7,201.4 L261.95,345.25 C261.95,347.5 263.05,348.6 265.25,348.6 L376.9,348.6 C379.15,348.6 380.25,347.5 380.25,345.25 L380.25,233.65z"/>
      <path id="path6" fill="#A95139" fill-opacity="1" d="M265.25,651.25 C263.05,651.25 261.95,652.35 261.95,654.65 L229.7,798.5 C229.7,800.75 230.8,801.85 232.95,801.85 L376.9,769.55 C379.15,769.55 380.25,768.45 380.25,766.2 L380.25,654.65 C380.25,652.35 379.15,651.25 376.9,651.25 L265.25,651.25z"/>
    </g>
  </g>
  <g id="Calque.__210">
    <g id="shape11">
      <path id="path7" fill="#A95139" fill-opacity="1" d="M727.45,711.75 Q815.2,624 815.2,499.95 C815.2,417.2 785.95,346.6 727.45,288.1 690.3,250.9 648.15,225.55 601.1,212 552.55,226.25 509.5,257.55 471.85,305.8 418.4,374.4 391.65,457.2 391.65,554.15 391.65,648.05 416.75,728.65 466.9,795.9 482.65,798.3 498.9,799.5 515.65,799.5 515.7,799.5 515.7,799.5 515.75,799.5 598.45,799.45 669,770.2 727.45,711.75z"/>
      <path id="path8" fill="#CC6447" fill-opacity="1" d="M515.75,200.35 C515.7,200.35 515.7,200.35 515.65,200.35 432.9,200.35 362.3,229.6 303.8,288.1 245.3,346.6 216.05,417.2 216.05,499.95 216.05,582.65 245.3,653.25 303.8,711.75 350.45,758.4 404.85,786.45 466.9,795.9 416.75,728.65 391.65,648.05 391.65,554.15 391.65,457.2 418.4,374.4 471.85,305.8 509.5,257.55 552.55,226.25 601.1,212 574.25,204.25 545.8,200.35 515.75,200.35z"/>
    </g>
  </g>
  <g id="Calque.__211">
    <g id="shape15">
      <path id="path9" fill="#000000" fill-opacity="0.2" d="M746.9,523.2 Q746.9,494.05 733.75,470.35 L527.9,536.65 C530.65,561.3 541.15,582.7 559.3,600.85 580.75,622.3 606.65,633.05 637,633.05 667.35,633.05 693.25,622.3 714.7,600.85 736.15,579.4 746.9,553.55 746.9,523.2z M298.95,470.35 C290.2,486.15 285.8,503.75 285.8,523.2 285.8,553.55 296.5,579.4 317.95,600.85 339.4,622.3 365.3,633.05 395.65,633.05 426,633.05 451.9,622.3 473.35,600.85 492,582.2 502.6,560.2 505.05,534.75 L298.95,470.35z"/>
    </g>
  </g>
  <g id="Calque.__212">
    <g id="shape19">
      <path id="path12" fill="#FFFFFF" fill-opacity="1" d="M746.9,499.95 Q746.9,470.8 733.75,447.1 L527.9,513.45 C530.65,538.05 541.15,559.45 559.3,577.6 580.75,599.05 606.65,609.8 637,609.8 667.35,609.8 693.25,599.05 714.7,577.6 736.15,556.15 746.9,530.3 746.9,499.95z M285.8,499.95 C285.8,530.3 296.5,556.15 317.95,577.6 339.4,599.05 365.3,609.8 395.65,609.8 426,609.8 451.9,599.05 473.35,577.6 492,558.95 502.6,536.95 505.05,511.5 L298.95,447.1 C290.2,462.9 285.8,480.5 285.8,499.95z"/>
    </g>
  </g>
  <mask id="Calque.__214">
    <g id="g">
      <g id="shape28">
        <path id="path19" fill="#FFFFFF" fill-opacity="1" d="M746.9,499.95 Q746.9,470.8 733.75,447.1 L527.9,513.45 C530.65,538.05 541.15,559.45 559.3,577.6 580.75,599.05 606.65,609.8 637,609.8 667.35,609.8 693.25,599.05 714.7,577.6 736.15,556.15 746.9,530.3 746.9,499.95z M285.8,499.95 C285.8,530.3 296.5,556.15 317.95,577.6 339.4,599.05 365.3,609.8 395.65,609.8 426,609.8 451.9,599.05 473.35,577.6 492,558.95 502.6,536.95 505.05,511.5 L298.95,447.1 C290.2,462.9 285.8,480.5 285.8,499.95z"/>
      </g>
    </g>
  </mask>
  <g id="masked" mask="url(#Calque.__214)">
    <g id="Calque.__213">
      <g id="shape23">
        <path id="path15" fill="#333333" fill-opacity="1" d="M602.15,453.45 Q592.85,453.45 586.05,464.55 C585.75,465 585.5,465.45 585.25,465.9 580.6,474.25 578.25,484.3 578.25,496.05 578.25,507.8 580.6,517.85 585.25,526.15 587.9,530.9 590.9,534.35 594.25,536.4 596.7,537.9 599.35,538.65 602.15,538.65 608.75,538.65 614.35,534.5 619,526.15 623.7,517.85 626.05,507.8 626.05,496.05 626.05,484.3 623.7,474.25 619,465.9 614.35,457.6 608.75,453.45 602.15,453.45z M438.85,465.9 C434.2,457.6 428.6,453.45 422,453.45 415.8,453.45 410.45,457.15 405.95,464.55 405.65,465 405.35,465.45 405.1,465.9 400.45,474.25 398.15,484.3 398.15,496.05 398.15,499.3 398.35,502.45 398.7,505.5 398.85,506.6 399,507.7 399.15,508.85 400.2,515.25 402.2,521 405.1,526.15 407.75,530.9 410.8,534.35 414.15,536.4 416.6,537.9 419.2,538.65 422,538.65 428.6,538.65 434.2,534.5 438.85,526.15 443.55,517.85 445.9,507.8 445.9,496.05 445.9,484.3 443.55,474.25 438.85,465.9z"/>
        <path id="path18" fill="#FFFFFF" fill-opacity="1" d="M373.35,529.5 C373.2,528.35 373.05,527.25 372.9,526.15 370.85,527.9 368.95,530.5 367.25,533.95 363.7,541.15 361.95,549.85 361.95,560 361.95,570.15 363.7,578.8 367.25,586 370.8,593.2 375.05,596.8 380.05,596.8 381.55,596.8 383,596.45 384.45,595.8 381.1,593.75 378.05,590.3 375.4,585.55 370.75,577.25 368.45,567.2 368.45,555.45 368.45,545.6 370.1,536.95 373.35,529.5z"/>
      </g>
    </g>
  </g>
</svg>