<?xml version="1.0" encoding="utf-8"?>
<!-- Generator: flash2svg, http://dissentgraphics.com/tools/flash2svg -->
<svg xmlns:xlink="http://www.w3.org/1999/xlink" id="Codekit" image-rendering="optimizeSpeed" baseProfile="basic" version="1.1" style="background-color:#ffffff" x="0px" y="0px" width="1024px" height="1024px" viewBox="0 0 1024 1024" enable-background="new 0 0 1024 1024" xmlns="http://www.w3.org/2000/svg">
  <defs transform="matrix(1 0 0 1 0 0) "/>
  <g id="shadow">
    <g id="shape">
      <path id="path" fill="#000000" fill-opacity="0.09803921568627451" d="M969.65,351.3 Q961.05,330.45 950.25,310.45 C946.2,302.9 941.9,295.4 937.35,288.05 917.8,256.35 893.95,226.4 865.8,198.25 773.65,106.1 662.35,60 532,60 401.65,60 290.4,106.1 198.25,198.25 106.1,290.4 60,401.65 60,532 60,662.35 106.1,773.65 198.25,865.8 290.4,957.95 401.65,1004 532,1004 662.35,1004 773.65,957.95 865.8,865.8 916.55,815 953.35,758.4 976.15,696.05 994.7,645.2 1004,590.55 1004,532 1004,487.1 998.55,444.45 987.6,404.05 986.35,399.5 985.05,394.95 983.7,390.45 979.6,377.15 974.9,364.1 969.65,351.3z"/>
    </g>
  </g>
  <g id="ico-shadow">
    <g id="shape2">
      <path id="path1" fill="#FFFFFF" fill-opacity="1" d="M727.2,91.75 C718.5,87.4 709.35,83.1 699.95,79.05 691.35,75.3 682.8,71.85 674.05,68.65 631.95,52.9 589.8,43.3 547.6,40 478.2,34.4 408.65,45.4 338.7,73 315.25,82.3 293.05,92.9 272.1,104.9 230.8,128.6 194.5,157.55 163.6,191.6 Q112,248.2 79.05,324.15 C58.8,370.8 46.2,417.6 41.2,463.8 43.7,589.25 89.65,696.7 179.05,786.05 271,878 382.05,924 512.1,924 642.15,924 753.2,878 845.15,786.05 934.3,696.9 980.25,589.75 982.95,464.65 982.75,462.8 982.5,460.8 982.25,458.8 980.25,442.4 977.3,425.95 973.3,409.1 967.85,385.95 960.45,362.35 951.1,338.7 923.55,268.95 884.1,210.65 832.5,163.6 813.75,146.5 793.15,130.8 770.95,116.65 757.1,107.75 742.65,99.55 727.2,91.75z"/>
      <path id="path2" fill="#CCCCCC" fill-opacity="1" d="M945.85,698.05 C946,697.75 946.1,697.45 946.25,697.15 949.05,690.55 951.7,683.9 954.35,677.15 966,646.5 974.5,615.5 979.7,584.1 980.4,579.7 981.1,574.95 981.8,570.2 982.7,562.85 983.55,555.35 984.15,547.6 984.25,546.15 984.4,544.45 984.55,542.65 985.85,523.35 985.85,503.95 984.65,484.25 984.2,477.85 983.65,471.35 982.95,464.65 980.25,589.75 934.3,696.9 845.15,786.05 753.2,878 642.15,924 512.1,924 382.05,924 271,878 179.05,786.05 89.65,696.7 43.7,589.25 41.2,463.8 40.75,468.25 40.35,472.4 40,476.55 36.3,522.15 39.8,567.3 50.25,612.55 55.95,637.1 63.5,661.3 73,685.4 100.7,755.35 140.25,813.8 191.55,860.5 223,889.15 258.75,913.35 298.85,933.3 299,933.35 299.1,933.4 299.2,933.45 302.3,935 305.3,936.45 307.85,937.6 312.75,939.95 317.1,941.95 321.45,943.85 322.55,944.3 323.35,944.7 324.2,945.05 333.65,949.15 343.1,952.9 352.1,956.25 354.45,957.1 356.6,957.9 358.7,958.65 377.75,965.35 396.9,970.8 415.6,974.95 423.5,976.65 431.4,978.2 439.1,979.5 440.05,979.7 441.05,979.8 441.8,979.95 453.45,981.8 465,983.2 476.55,984.15 546.35,989.6 615.75,978.6 685.4,951.1 709.75,941.5 732.7,930.45 754.2,917.95 789.3,897.6 820.65,873.45 848.3,845.45 852.45,841.25 856.5,836.95 860.55,832.55 868.95,823.3 877.05,813.6 884.8,803.45 904.85,777.3 922.35,748.35 937.4,716.75 940,711.25 942.55,705.65 945.05,699.9 945.3,699.3 945.6,698.65 945.85,698.05z"/>
    </g>
  </g>
  <g id="ico">
    <g id="Symbole.__208_1" overflow="visible">
      <g id="Calque.__202">
        <g id="shape8">
          <path id="path4" fill="#FFCC00" fill-opacity="1" d="M190.212,443.672 Q188.154,445.512 186.801,447.933 L186.747,447.982 181.6,457.086 C180.547,459.023 179.875,461.008 179.628,463.091 179.381,465.173 179.576,467.207 180.272,469.095 L183.3,477.86 183.294,477.909 C183.843,479.41 184.596,480.814 185.663,482.025 L343.896,661.828 C345.091,663.184 346.514,664.249 348.22,664.976 L356.881,668.704 C360.432,670.206 364.161,670.206 368.128,668.607 L377.335,664.879 377.383,664.879 C379.17,664.104 380.846,663.039 382.363,661.683 L403.908,642.119 C405.214,640.908 406.338,639.601 407.242,638.1 L407.254,638.003 412.313,629.238 C413.414,627.301 414.091,625.267 414.338,623.185 414.585,621.102 414.391,619.068 413.749,617.131 L410.775,608.318 C410.232,606.768 409.43,605.364 408.363,604.153 L408.315,604.153 283.851,462.994 441.809,321.786 441.858,321.786 C443.272,320.478 444.461,319.025 445.377,317.427 L450.476,308.323 450.482,308.275 C451.529,306.386 452.152,304.401 452.399,302.319 452.598,300.236 452.392,298.299 451.792,296.411 L451.798,296.362 448.824,287.549 C448.282,285.999 447.48,284.595 446.413,283.384 L446.364,283.384 429.42,264.159 429.426,264.111 C428.359,262.9 427.063,261.98 425.648,261.254 L425.6,261.254 417.317,257.186 C415.538,256.266 413.556,255.83 411.474,255.83 409.391,255.83 407.354,256.266 405.32,257.089 L395.733,261.157 395.679,261.206 C393.995,261.932 392.427,262.9 391.073,264.111 L190.212,443.672z"/>
        </g>
      </g>
    </g>
    <g id="Symbole.__208_2" overflow="visible">
      <g id="Calque.__203">
        <g id="shape9">
          <path id="path5" fill="#FFCC00" fill-opacity="1" d="M827.938,443.672 Q829.996,445.512 831.349,447.933 L831.403,447.982 836.55,457.086 C837.603,459.023 838.275,461.008 838.522,463.091 838.769,465.173 838.574,467.207 837.878,469.095 L834.85,477.86 834.856,477.909 C834.307,479.41 833.554,480.814 832.487,482.025 L674.254,661.828 C673.059,663.184 671.636,664.249 669.93,664.976 L661.269,668.704 C657.718,670.206 653.989,670.206 650.022,668.607 L640.815,664.879 640.767,664.879 C638.98,664.104 637.304,663.039 635.787,661.683 L614.242,642.119 C612.936,640.908 611.812,639.601 610.908,638.1 L610.896,638.003 605.837,629.238 C604.736,627.301 604.059,625.267 603.812,623.185 603.565,621.102 603.759,619.068 604.401,617.131 L607.375,608.318 C607.918,606.768 608.72,605.364 609.787,604.153 L609.835,604.153 734.299,462.994 576.341,321.786 576.292,321.786 C574.878,320.478 573.689,319.025 572.773,317.427 L567.674,308.323 567.668,308.275 C566.621,306.386 565.998,304.401 565.751,302.319 565.552,300.236 565.758,298.299 566.358,296.411 L566.352,296.362 569.326,287.549 C569.868,285.999 570.67,284.595 571.737,283.384 L571.786,283.384 588.73,264.159 588.724,264.111 C589.791,262.9 591.087,261.98 592.502,261.254 L592.55,261.254 600.833,257.186 C602.612,256.266 604.594,255.83 606.676,255.83 608.759,255.83 610.796,256.266 612.83,257.089 L622.417,261.157 622.471,261.206 C624.155,261.932 625.723,262.9 627.077,264.111 L827.938,443.672z"/>
        </g>
      </g>
    </g>
  </g>
</svg>