<?xml version="1.0" encoding="utf-8"?>
<!-- Generator: flash2svg, http://dissentgraphics.com/tools/flash2svg -->
<svg xmlns:xlink="http://www.w3.org/1999/xlink" id="Dashboard" image-rendering="optimizeSpeed" baseProfile="basic" version="1.1" style="background-color:#ffffff" x="0px" y="0px" width="1024px" height="1024px" viewBox="0 0 1024 1024" enable-background="new 0 0 1024 1024" xmlns="http://www.w3.org/2000/svg">
  <defs transform="matrix(1 0 0 1 0 0) "/>
  <g id="shadow">
    <g id="shape">
      <path id="path" fill="#000000" fill-opacity="0.09803921568627451" d="M969.65,351.3 Q961.05,330.45 950.25,310.45 C946.2,302.9 941.9,295.4 937.35,288.05 917.8,256.35 893.95,226.4 865.8,198.25 773.65,106.1 662.35,60 532,60 401.65,60 290.4,106.1 198.25,198.25 106.1,290.4 60,401.65 60,532 60,662.35 106.1,773.65 198.25,865.8 290.4,957.95 401.65,1004 532,1004 662.35,1004 773.65,957.95 865.8,865.8 916.55,815 953.35,758.4 976.15,696.05 994.7,645.2 1004,590.55 1004,532 1004,487.1 998.55,444.45 987.6,404.05 986.35,399.5 985.05,394.95 983.7,390.45 979.6,377.15 974.9,364.1 969.65,351.3z"/>
    </g>
  </g>
  <g id="bg">
    <g id="shape2">
      <path id="path1" fill="#CCCCCC" fill-opacity="1" d="M929.85,289.65 C927.5,285.3 924.9,280.65 922.2,276.05 901.9,241.55 876.4,208.85 845.85,178.3 773.25,105.7 688.7,61.65 592.2,46.25 575.95,43.65 559.4,41.85 542.15,40.9 532.45,40.35 522.3,40.05 512.05,40.05 502.7,40.05 493.45,40.3 484.15,40.8 365.8,46.9 263.85,92.75 178.3,178.3 157.8,198.8 139.55,220.25 123.6,242.7 108.25,264.25 95.05,286.7 84,309.9 L83.975,309.875 Q40.05,401.873 40.05,512.05 C40.05,642.4 86.15,753.7 178.3,845.85 235,902.5 298.85,941.75 369.4,963.4 406.15,974.65 444.2,981.25 484.15,983.35 484.3,983.35 484.4,983.35 484.55,983.35 493.05,983.8 501.15,984.05 509.05,984.05 510.25,984.05 511.15,984.05 512.05,984.05 522.35,984.05 532.55,983.75 542.15,983.25 544.65,983.1 546.9,982.95 549.1,982.8 569.3,981.35 589,978.75 607.8,975.1 615.75,973.55 623.6,971.8 631.2,969.95 712,949.65 783.35,908.35 845.85,845.85 894.45,797.25 930.25,743.35 953.2,684.05 971.65,636.4 981.85,585.25 983.75,530.55 983.95,524.5 984.05,518.3 984.05,512.05 984.05,511.4 984.05,510.7 984.05,510.05 984.05,509.7 984.05,509.4 984.05,509.05 983.85,468.4 979.1,429.55 969.75,392.05 968.65,387.7 967.4,383.05 966.1,378.45 965.1,375.05 964.1,371.6 962.95,367.95 961.35,362.8 959.55,357.45 957.65,352.1 952.6,337.85 946.8,323.85 940.2,309.95 938.35,306.15 936.45,302.3 934.5,298.45 933.05,295.6 931.55,292.75 929.85,289.65z"/>
    </g>
  </g>
  <g id="Calque.__203">
    <g id="shape4">
      <path id="path2" fill="#374268" fill-opacity="1" d="M916.05,512.05 Q916.05,344.7 797.75,226.4 C718.85,147.5 623.6,108.05 512.05,108.05 400.5,108.05 305.25,147.5 226.4,226.4 147.5,305.25 108.05,400.5 108.05,512.05 108.05,623.6 147.5,718.85 226.4,797.75 305.25,876.6 400.5,916.05 512.05,916.05 623.6,916.05 718.85,876.6 797.75,797.75 876.6,718.85 916.05,623.6 916.05,512.05z"/>
    </g>
  </g>
  <g id="Calque.__204">
    <g id="shape6">
      <path id="path3" fill="#000000" fill-opacity="0.2" d="M450.05,824.05 L541.125,915.125 L541.15,915.15 C640.25,908.8 725.8,869.7 797.75,797.75 827.4,768.1 851.45,736.15 869.95,701.9 L512.05,344 450.05,824.05z"/>
    </g>
  </g>
  <g id="Calque.__205">
    <g id="Symbole.__2039_1" overflow="visible">
      <g id="Calque.__210">
        <g id="shape24">
          <path id="path15" fill="#999999" fill-opacity="1" d="M579.7,680 C572.95,673.25 565.65,667.7 557.85,663.35 561.95,674.05 564,685.6 564,698 564,706.25 563.1,714.1 561.3,721.6 557.25,738.2 548.8,752.95 535.85,765.85 517.1,784.6 494.5,794 468,794 451.35,794 436.25,790.3 422.65,782.9 427.3,794.8 434.55,805.65 444.3,815.4 463,834.1 485.55,843.45 512,843.45 538.45,843.45 561,834.1 579.7,815.4 598.4,796.7 607.75,774.15 607.75,747.7 607.75,722.05 598.95,700 581.3,681.6 580.75,681.05 580.25,680.55 579.7,680z"/>
          <path id="path16" fill="#6974A2" fill-opacity="1" d="M512.5,343.95 L512.1,347.3 512.1,651.95 C526.3,651.95 539.4,654.65 551.35,660.1 L551.35,660.075 L512.5,343.95z"/>
          <path id="path17" fill="#CCCCCC" fill-opacity="1" d="M551.35,660.1 C539.4,654.65 526.3,651.95 512.1,651.95 512.05,651.95 512.05,651.95 512,651.95 498.6,651.95 486.2,654.35 474.75,659.2 463.65,663.85 453.5,670.8 444.3,680 431.3,693 422.8,707.85 418.85,724.6 417.1,731.95 416.25,739.65 416.25,747.7 416.25,760.3 418.4,772.05 422.65,782.9 436.25,790.3 451.35,794 468,794 494.5,794 517.1,784.6 535.85,765.85 548.8,752.95 557.25,738.2 561.3,721.6 563.1,714.1 564,706.25 564,698 564,685.6 561.95,674.05 557.85,663.35 555.7,662.2 553.55,661.1 551.35,660.1z"/>
          <path id="path18" fill="#8696CA" fill-opacity="1" d="M512,651.95 C512.05,651.95 512.05,651.95 512.1,651.95 L512.1,347.3 474.75,659.175 L474.75,659.2 C486.2,654.35 498.6,651.95 512,651.95z"/>
        </g>
      </g>
    </g>
  </g>
  <g id="Calque.__206">
    <g id="shape8" transform="matrix(1 0 0 1 173.1 172)"/>
    <g id="Symbole.__2041_1" overflow="visible">
      <g id="Calque.__211">
        <g id="shape25" transform="matrix(1 0 0 1 268.1 276.2)"/>
      </g>
    </g>
  </g>
  <g id="Calque.__207">
    <g id="shape9">
      <path id="path4" fill="#5199C5" fill-opacity="1" d="M198.8,369.05 C192.25,369.05 186.65,371.35 182,376 177.35,380.65 175.05,386.25 175.05,392.8 175.05,399.35 177.35,404.95 182,409.6 186.65,414.25 192.25,416.55 198.8,416.55 205.35,416.55 210.95,414.25 215.6,409.6 220.25,404.95 222.55,399.35 222.55,392.8 222.55,386.25 220.25,380.65 215.6,376 210.95,371.35 205.35,369.05 198.8,369.05z M802.25,375.25 C797.6,379.9 795.3,385.5 795.3,392.05 795.3,398.6 797.6,404.2 802.25,408.85 806.9,413.5 812.5,415.8 819.05,415.8 825.6,415.8 831.2,413.5 835.85,408.85 840.5,404.2 842.8,398.6 842.8,392.05 842.8,385.5 840.5,379.9 835.85,375.25 831.2,370.6 825.6,368.3 819.05,368.3 812.5,368.3 806.9,370.6 802.25,375.25z M659.65,226.6 Q666.6,219.65 666.6,209.8 C666.6,203.25 664.3,197.65 659.65,193 655,188.35 649.4,186.05 642.85,186.05 636.3,186.05 630.7,188.35 626.05,193 621.4,197.65 619.1,203.25 619.1,209.8 619.1,216.35 621.4,221.95 626.05,226.6 630.7,231.25 636.3,233.55 642.85,233.55 649.4,233.55 655,231.25 659.65,226.6z M382.85,188.05 C376.3,188.05 370.7,190.35 366.05,195 361.4,199.65 359.1,205.25 359.1,211.8 359.1,218.35 361.4,223.95 366.05,228.6 370.7,233.25 376.3,235.55 382.85,235.55 389.4,235.55 395,233.25 399.65,228.6 404.3,223.95 406.6,218.35 406.6,211.8 406.6,205.25 404.3,199.65 399.65,195 395,190.35 389.4,188.05 382.85,188.05z"/>
    </g>
  </g>
</svg>