<?xml version="1.0" encoding="utf-8"?>
<!-- Generator: flash2svg, http://dissentgraphics.com/tools/flash2svg -->
<svg xmlns:xlink="http://www.w3.org/1999/xlink" id="Dash" image-rendering="optimizeSpeed" baseProfile="basic" version="1.1" style="background-color:#ffffff" x="0px" y="0px" width="1024px" height="1024px" viewBox="0 0 1024 1024" enable-background="new 0 0 1024 1024" xmlns="http://www.w3.org/2000/svg">
  <defs transform="matrix(1 0 0 1 0 0) "/>
  <g id="shadow">
    <g id="shape">
      <path id="path" fill="#000000" fill-opacity="0.09803921568627451" d="M964.65,346.3 Q956.05,325.45 945.25,305.45 C941.2,297.9 936.9,290.4 932.35,283.05 912.8,251.35 888.95,221.4 860.8,193.25 768.65,101.1 657.35,55 527,55 396.65,55 285.4,101.1 193.25,193.25 101.1,285.4 55,396.65 55,527 55,657.35 101.1,768.65 193.25,860.8 285.4,952.95 396.65,999 527,999 657.35,999 768.65,952.95 860.8,860.8 911.55,810 948.35,753.4 971.15,691.05 989.7,640.2 999,585.55 999,527 999,482.1 993.55,439.45 982.6,399.05 981.35,394.5 980.05,389.95 978.7,385.45 974.6,372.15 969.9,359.1 964.65,346.3z"/>
    </g>
  </g>
  <g id="circle">
    <g id="shape2">
      <path id="path1" fill="#374268" fill-opacity="1" d="M969.75,392.05 C968.65,387.7 967.4,383.05 966.1,378.45 963.6,369.7 960.75,360.85 957.65,352.1 951.2,333.85 943.5,316.05 934.5,298.45 930.7,291.05 926.55,283.5 922.2,276.05 L922.175,276.05 Q891.574,224.04 845.85,178.3 C753.7,86.15 642.4,40.05 512.05,40.05 381.7,40.05 270.45,86.15 178.3,178.3 86.15,270.45 40.05,381.7 40.05,512.05 40.05,642.4 86.15,753.7 178.3,845.85 246.35,913.9 324.8,956.8 413.2,974.5 445.15,980.9 477.95,984.05 512.05,984.05 642.4,984.05 753.7,938 845.85,845.85 894.45,797.25 930.25,743.35 953.2,684.05 970.2,640.1 980.2,593.25 983.15,543.3 983.75,533.1 984.05,522.65 984.05,512.05 984.05,470.3 979.35,430.45 969.75,392.05z"/>
    </g>
  </g>
  <mask id="ico-shadow">
    <g id="g">
      <g id="shape23">
        <path id="path14" fill="#FFFFFF" fill-opacity="1" d="M969.75,392.05 C968.65,387.7 967.4,383.05 966.1,378.45 963.6,369.7 960.75,360.85 957.65,352.1 951.2,333.85 943.5,316.05 934.5,298.45 930.7,291.05 926.55,283.5 922.2,276.05 L922.175,276.05 Q891.574,224.04 845.85,178.3 C753.7,86.15 642.4,40.05 512.05,40.05 381.7,40.05 270.45,86.15 178.3,178.3 86.15,270.45 40.05,381.7 40.05,512.05 40.05,642.4 86.15,753.7 178.3,845.85 246.35,913.9 324.8,956.8 413.2,974.5 445.15,980.9 477.95,984.05 512.05,984.05 642.4,984.05 753.7,938 845.85,845.85 894.45,797.25 930.25,743.35 953.2,684.05 970.2,640.1 980.2,593.25 983.15,543.3 983.75,533.1 984.05,522.65 984.05,512.05 984.05,470.3 979.35,430.45 969.75,392.05z"/>
      </g>
    </g>
  </mask>
  <g id="masked" mask="url(#ico-shadow)">
    <g id="Calque.__202">
      <g id="shape4">
        <path id="path2" fill="#000000" fill-opacity="0.2" d="M725.6,405.55 L662.05,295.45 568.25,349.6 C558.2,355.35 547.65,357.1 536.55,354.9 L725.6,405.55z"/>
        <path id="path3" fill="#FFFFFF" fill-opacity="0.8980392156862745" d="M530.425,353.225 L530.65,353.3 C530.9,353.35 531.05,353.45 531.3,353.55 532,353.75 532.7,353.95 533.45,354.15 534.55,354.45 535.6,354.7 536.55,354.9 547.65,357.1 558.2,355.35 568.25,349.6 L662.05,295.45 451.5,239.05 505.65,332.85 C511.4,342.85 519.7,349.65 530.45,353.25"/>
      </g>
      <g id="shape8">
        <path id="path4" fill="#97D04B" fill-opacity="1" d="M519.858,347.91 C520.107,347.929 520.313,348.003 520.562,348.021 509.679,345.798 500.798,340.171 494.017,331.128 L428.134,243.577 111.113,482.222 C101.163,489.657 95.363,499.546 93.61,511.853 Q91.014,530.186 102.16,545.062 L557.847,1150.551 C565.325,1160.446 575.214,1166.246 587.472,1168.005 596.912,1169.319 605.678,1167.952 613.766,1163.854 616.127,1162.578 618.47,1161.156 620.772,1159.394 L1022.641,856.974 C1032.542,849.544 1038.342,839.655 1040.096,827.348 1041.806,815.096 1038.968,803.992 1031.491,794.097 L716.585,375.689 526.692,348.901 C525.744,348.819 524.693,348.701 523.587,348.54 522.834,348.435 522.129,348.323 521.425,348.212 520.872,348.132 520.362,347.997 519.858,347.91z"/>
      </g>
    </g>
    <g id="Calque.__203">
      <g id="shape10">
        <path id="path5" fill="#F49A3F" fill-opacity="1" d="M768.3,385 L698.725,358.975 609.675,325.675 585,316.45 C584.05,316.15 583.05,315.8 581.95,315.4 581.25,315.15 580.55,314.9 579.85,314.65 579.4,314.45 579,314.25 578.6,314.1 578.75,314.15 578.9,314.2 579.05,314.25 568.7,309.65 561.1,302.1 556.35,291.55 L543.675,263.75 509.95,189.8 141.5,357.85 C129.95,363 122,371.6 117.5,383.5 113.1,395.25 113.5,406.95 118.7,418.45 L439.5,1122.15 C444.75,1133.7 453.3,1141.65 465.15,1146.1 474.3,1149.5 483.35,1150.05 492.3,1147.8 494.95,1147.05 497.55,1146.15 500.25,1144.85 L967.3,931.95 C978.8,926.75 986.8,918.2 991.2,906.3 995.6,894.5 995.25,882.8 990,871.25 L768.3,385z"/>
        <path id="path6" fill="#000000" fill-opacity="0.2" d="M698.725,358.975 L662.05,295.45 609.675,325.675 698.725,358.975z"/>
        <path id="path7" fill="#FFFFFF" fill-opacity="0.8980392156862745" d="M543.675,263.75 L556.35,291.55 C561.1,302.1 568.7,309.65 579.05,314.25 578.9,314.2 578.75,314.15 578.6,314.1 579,314.25 579.4,314.45 579.85,314.65 580.55,314.9 581.25,315.15 581.95,315.4 583.05,315.8 584.05,316.15 585,316.45 L609.675,325.675 662.05,295.45 543.675,263.75z"/>
      </g>
    </g>
    <g id="Calque.__204">
      <g id="shape15">
        <path id="path8" fill="#955EAF" fill-opacity="1" d="M654.4,251.2 C654.2,251.05 654,250.95 653.85,250.85 L855.375,452.375 828.35,351.55 828.4,351.55 795.5,228.8 690.9,256.8 C679.65,259.8 669.05,258.7 658.95,253.7 658.05,253.25 657.05,252.75 656.15,252.25 655.3,251.7 654.5,251.2 653.75,250.75 653.95,250.9 654.15,251.05 654.4,251.2z"/>
        <path id="path12" fill="#FFFFFF" fill-opacity="0.8980392156862745" d="M653.2,250.4 C653.35,250.45 653.45,250.55 653.6,250.65 653.65,250.7 653.7,250.7 653.75,250.75 654.5,251.2 655.3,251.7 656.15,252.25 657.05,252.75 658.05,253.25 658.95,253.7 669.05,258.7 679.65,259.8 690.9,256.8 L795.5,228.8 606.75,119.75 634.8,224.4 C636.35,230.2 638.8,235.4 641.95,239.65 645.05,243.9 648.7,247.35 653,250.3 653,250.3 653,250.3 653.05,250.35 L653.05,250.325 L653.075,250.325 L653.1,250.35 C653.15,250.35 653.15,250.35 653.2,250.4z"/>
        <path id="path13" fill="#B16FD0" fill-opacity="1" d="M652.8,250.2 C652.85,250.2 652.95,250.25 653,250.3 648.7,247.35 645.05,243.9 641.95,239.65 638.8,235.4 636.35,230.2 634.8,224.4 L606.75,119.75 605.85,116.4 214.6,221.2 C202.4,224.5 193.1,231.6 186.8,242.55 180.5,253.5 178.95,265.1 182.25,277.35 L382.35,1024.35 C385.65,1036.55 392.8,1045.85 403.7,1052.15 412.15,1057 420.95,1059.05 430.15,1058.3 432.9,1058.05 435.7,1057.5 438.5,1056.7 L934.3,923.9 C946.55,920.6 955.85,913.5 962.1,902.55 968.5,891.6 970,880 966.7,867.8 L855.375,452.375 653.85,250.85 C653.5,250.6 653.15,250.4 652.8,250.2z"/>
      </g>
    </g>
  </g>
  <g id="ico">
    <g id="shape25">
      <path id="path15" fill="#FFFFFF" fill-opacity="1" d="M685.55,475.75 C680.2,456.1 674.25,438.65 667.75,423.5 Q645.6,369.65 611.2,349.05 C588.15,335.4 560.9,332.85 529.55,341.4 L330.7,395.65 395.3,456.75 482.9,432.85 482.85,432.75 540.55,417 C548.25,414.9 554.85,415.1 560.35,417.45 565.75,420 571.75,427.75 578.35,440.6 584.85,453.5 592.05,474.45 600,503.5 607.5,537.45 610.9,559.45 610.05,569.55 608.95,584.5 602.2,593.7 589.7,597.1 L532,612.85 491.7,465.2 405.25,488.8 465.5,709.6 618.6,667.8 C656.3,657.55 680.8,637.1 691.95,606.45 697.4,591.05 699.6,572.5 698.5,550.75 697.55,528.9 693.25,503.9 685.55,475.75z"/>
    </g>
  </g>
</svg>