<?xml version="1.0" encoding="utf-8"?>
<!-- Generator: flash2svg, http://dissentgraphics.com/tools/flash2svg -->
<svg xmlns:xlink="http://www.w3.org/1999/xlink" id="Delicious-Library" image-rendering="optimizeSpeed" baseProfile="basic" version="1.1" style="background-color:#ffffff" x="0px" y="0px" width="1024px" height="1024px" viewBox="0 0 1024 1024" enable-background="new 0 0 1024 1024" xmlns="http://www.w3.org/2000/svg">
  <defs transform="matrix(1 0 0 1 0 0) "/>
  <g id="shadow">
    <g id="shape">
      <path id="path" fill="#000000" fill-opacity="0.09803921568627451" d="M969.65,351.3 Q961.05,330.45 950.25,310.45 C946.2,302.9 941.9,295.4 937.35,288.05 917.8,256.35 893.95,226.4 865.8,198.25 773.65,106.1 662.35,60 532,60 401.65,60 290.4,106.1 198.25,198.25 106.1,290.4 60,401.65 60,532 60,662.35 106.1,773.65 198.25,865.8 290.4,957.95 401.65,1004 532,1004 662.35,1004 773.65,957.95 865.8,865.8 916.55,815 953.35,758.4 976.15,696.05 994.7,645.2 1004,590.55 1004,532 1004,487.1 998.55,444.45 987.6,404.05 986.35,399.5 985.05,394.95 983.7,390.45 979.6,377.15 974.9,364.1 969.65,351.3z"/>
    </g>
  </g>
  <g id="criclebg">
    <g id="shape2">
      <path id="path1" fill="#7074A8" fill-opacity="1" d="M849.15,181.65 C848.05,180.5 846.95,179.4 845.85,178.3 811.5,143.95 774.55,116.05 734.95,94.55 728.25,90.9 721.5,87.45 714.3,84 679.25,67.25 641.8,55.15 602.4,48 599.3,47.45 596.2,46.9 593.05,46.4 592.75,46.35 592.45,46.3 592.2,46.25 588,45.6 583.8,45 579.45,44.4 575.4,43.9 571.25,43.4 567.05,42.95 563.45,42.55 559.85,42.2 556.05,41.9 551.6,41.5 546.9,41.15 542.15,40.9 541.7,40.85 541.3,40.85 540.85,40.85 531.35,40.3 521.75,40.05 512.05,40.05 502.7,40.05 493.45,40.3 484.15,40.8 482.45,40.9 480.75,41 479.05,41.1 475.4,41.3 471.75,41.55 468.05,41.9 461.95,42.4 455.85,43 449.8,43.75 448,43.95 446.25,44.15 444.6,44.4 401,50.15 359.9,61.6 321.3,78.75 317.45,80.45 313.6,82.2 309.75,84.05 262.25,106.7 218.5,138.1 178.3,178.3 177.75,178.85 177.25,179.35 176.75,179.85 176.1,180.5 175.5,181.1 174.9,181.75 134.45,222.9 103.15,267.8 80.9,316.5 73.05,333.65 66.4,351.1 60.85,369 Q40.05,436.2 40.05,512.05 C40.05,640.8 85,750.95 174.9,842.45 175.5,843.05 176.1,843.65 176.75,844.3 177.25,844.8 177.75,845.3 178.3,845.85 218.7,886.2 262.75,917.75 309.75,940.1 313.7,941.95 317.5,943.7 321.3,945.4 326.85,947.85 332.1,950.05 337.4,952.15 343.85,954.75 350,957 356.2,959.1 384.8,968.9 414.4,975.8 444.6,979.75 446.5,980 448.15,980.2 449.8,980.4 461.3,981.8 472.65,982.75 484.15,983.35 484.3,983.35 484.4,983.35 484.55,983.35 493.05,983.8 501.15,984.05 509.05,984.05 510.25,984.05 511.15,984.05 512.05,984.05 521.8,984.05 531.4,983.8 540.85,983.35 541.3,983.3 541.7,983.3 542.15,983.25 544.65,983.1 546.9,982.95 549.1,982.8 559.4,982.05 569.55,981.05 579.45,979.75 587.25,978.7 594.9,977.5 602.4,976.15 604.3,975.8 606.05,975.45 607.8,975.1 615.75,973.55 623.6,971.8 631.2,969.95 660.1,962.7 687.8,952.75 714.3,940.2 721.3,936.8 728.15,933.3 734.95,929.65 760.15,915.95 784.3,899.65 807.35,880.8 820.6,869.9 833.4,858.3 845.85,845.85 846.95,844.75 848.05,843.65 849.15,842.55 849.8,841.9 850.4,841.25 851.05,840.6 873.65,817.35 893.25,793.1 909.95,767.7 927.5,741.15 941.9,713.25 953.2,684.05 957.15,673.8 960.75,663.4 963.95,652.9 975.65,614.25 982.25,573.5 983.75,530.55 983.95,524.5 984.05,518.3 984.05,512.05 984.05,511.4 984.05,510.7 984.05,510.05 984.05,509.7 984.05,509.4 984.05,509.05 983.85,468.4 979.1,429.55 969.75,392.05 968.65,387.7 967.4,383.05 966.1,378.45 963.85,370.6 961.35,362.65 958.55,354.65 958.25,353.9 957.95,353 957.65,352.1 953.4,340.1 948.65,328.3 943.25,316.5 940.55,310.55 937.6,304.5 934.5,298.45 930.7,291.05 926.55,283.5 922.2,276.05 903.15,243.65 879.5,212.85 851.05,183.6 850.4,182.95 849.8,182.3 849.15,181.65z"/>
    </g>
  </g>
  <mask id="criclebg1">
    <g id="g">
      <g id="shape22">
        <path id="path15" fill="#FFFFFF" fill-opacity="1" d="M849.15,181.65 C848.05,180.5 846.95,179.4 845.85,178.3 811.5,143.95 774.55,116.05 734.95,94.55 728.25,90.9 721.5,87.45 714.3,84 679.25,67.25 641.8,55.15 602.4,48 599.3,47.45 596.2,46.9 593.05,46.4 592.75,46.35 592.45,46.3 592.2,46.25 588,45.6 583.8,45 579.45,44.4 575.4,43.9 571.25,43.4 567.05,42.95 563.45,42.55 559.85,42.2 556.05,41.9 551.6,41.5 546.9,41.15 542.15,40.9 541.7,40.85 541.3,40.85 540.85,40.85 531.35,40.3 521.75,40.05 512.05,40.05 502.7,40.05 493.45,40.3 484.15,40.8 482.45,40.9 480.75,41 479.05,41.1 475.4,41.3 471.75,41.55 468.05,41.9 461.95,42.4 455.85,43 449.8,43.75 448,43.95 446.25,44.15 444.6,44.4 401,50.15 359.9,61.6 321.3,78.75 317.45,80.45 313.6,82.2 309.75,84.05 262.25,106.7 218.5,138.1 178.3,178.3 177.75,178.85 177.25,179.35 176.75,179.85 176.1,180.5 175.5,181.1 174.9,181.75 134.45,222.9 103.15,267.8 80.9,316.5 73.05,333.65 66.4,351.1 60.85,369 Q40.05,436.2 40.05,512.05 C40.05,640.8 85,750.95 174.9,842.45 175.5,843.05 176.1,843.65 176.75,844.3 177.25,844.8 177.75,845.3 178.3,845.85 218.7,886.2 262.75,917.75 309.75,940.1 313.7,941.95 317.5,943.7 321.3,945.4 326.85,947.85 332.1,950.05 337.4,952.15 343.85,954.75 350,957 356.2,959.1 384.8,968.9 414.4,975.8 444.6,979.75 446.5,980 448.15,980.2 449.8,980.4 461.3,981.8 472.65,982.75 484.15,983.35 484.3,983.35 484.4,983.35 484.55,983.35 493.05,983.8 501.15,984.05 509.05,984.05 510.25,984.05 511.15,984.05 512.05,984.05 521.8,984.05 531.4,983.8 540.85,983.35 541.3,983.3 541.7,983.3 542.15,983.25 544.65,983.1 546.9,982.95 549.1,982.8 559.4,982.05 569.55,981.05 579.45,979.75 587.25,978.7 594.9,977.5 602.4,976.15 604.3,975.8 606.05,975.45 607.8,975.1 615.75,973.55 623.6,971.8 631.2,969.95 660.1,962.7 687.8,952.75 714.3,940.2 721.3,936.8 728.15,933.3 734.95,929.65 760.15,915.95 784.3,899.65 807.35,880.8 820.6,869.9 833.4,858.3 845.85,845.85 846.95,844.75 848.05,843.65 849.15,842.55 849.8,841.9 850.4,841.25 851.05,840.6 873.65,817.35 893.25,793.1 909.95,767.7 927.5,741.15 941.9,713.25 953.2,684.05 957.15,673.8 960.75,663.4 963.95,652.9 975.65,614.25 982.25,573.5 983.75,530.55 983.95,524.5 984.05,518.3 984.05,512.05 984.05,511.4 984.05,510.7 984.05,510.05 984.05,509.7 984.05,509.4 984.05,509.05 983.85,468.4 979.1,429.55 969.75,392.05 968.65,387.7 967.4,383.05 966.1,378.45 963.85,370.6 961.35,362.65 958.55,354.65 958.25,353.9 957.95,353 957.65,352.1 953.4,340.1 948.65,328.3 943.25,316.5 940.55,310.55 937.6,304.5 934.5,298.45 930.7,291.05 926.55,283.5 922.2,276.05 903.15,243.65 879.5,212.85 851.05,183.6 850.4,182.95 849.8,182.3 849.15,181.65z"/>
      </g>
    </g>
  </mask>
  <g id="masked" mask="url(#criclebg1)">
    <g id="Calque.__2012">
      <g id="shape4">
        <path id="path2" fill="#FDE990" fill-opacity="1" d="M525.45,121.5 C523.25,117.65 514.1,118.15 514.1,125.15 L511.75,262.7 C508.6,266.9 509.15,270 513.65,271.75 L586.1,248.2 C589.35,243.9 588.65,240.8 584.25,239.05 L525.45,121.5z M346.9,331.6 Q349.3,326.55 340.55,325.25 L219.15,246.7 C212.5,242.85 206.05,246.85 208,250.45 L269.15,349.25 C267.5,352.6 269.55,354.75 275.45,355.6 L346.9,331.6z"/>
      </g>
    </g>
    <g id="Calque.__2013">
      <g id="shape8">
        <path id="path5" fill="#FFFFFF" fill-opacity="1" d="M681.7,708.55 C681.7,707.7 681.7,706.85 681.65,706 662.75,705 644.15,704.55 626.05,704.45 613.65,704.4 601.5,704.6 589.5,705 589.35,706.25 589.3,707.35 589.3,708.55 L589.3,753.75 C589.3,769.5 597.15,777.35 612.9,777.35 L658.1,777.35 C673.85,777.35 681.7,769.5 681.7,753.75 L681.7,708.55z"/>
        <path id="path6" fill="#EADA80" fill-opacity="1" d="M681.65,706 C681.7,706.85 681.7,707.7 681.7,708.55 L681.7,753.75 C681.7,769.5 673.85,777.35 658.1,777.35 L612.9,777.35 C597.15,777.35 589.3,769.5 589.3,753.75 L589.3,708.55 C589.3,707.35 589.35,706.25 589.5,705 458.2,709.2 359.95,739.45 294.55,795.65 279.65,919.5 216.75,1013.8 119.35,1075 161.6,1106.1 205.65,1130.5 251.9,1148.7 260.35,1152.15 268.45,1155.1 276.55,1157.85 329.7,1176 385.55,1186.55 444.45,1189.65 444.65,1189.65 444.75,1189.65 444.95,1189.65 456.1,1190.25 466.75,1190.55 477.1,1190.55 Q479.1,1190.55 481.05,1190.55 C493.85,1190.55 506.45,1190.25 518.85,1189.65 519.45,1189.6 519.95,1189.6 520.55,1189.5 523.8,1189.3 526.75,1189.15 529.65,1188.95 556.15,1187.05 582,1183.6 606.7,1178.85 617.1,1176.8 627.4,1174.5 637.4,1172.05 722.25,1150.75 799.2,1111.8 868.5,1055.1 885.85,1040.8 902.65,1025.6 919,1009.25 930.6,997.65 941.65,985.85 952,973.95 943.6,895.55 938.3,815.6 926.2,736.6 851.25,722.65 782.05,713.2 718.45,708.35 706.05,707.35 693.85,706.55 681.65,706z"/>
        <path id="path7" fill="#FFEC88" fill-opacity="1" d="M681.65,706 C693.85,706.55 706.05,707.35 718.45,708.35 782.05,713.2 851.25,722.65 926.2,736.6 905.2,597.55 863.5,462.1 748,346.05 614.7,212 417,176.6 308.8,296.45 259.05,351.6 231.45,428.05 266.4,543.75 294.75,637.7 303.1,721.9 294.55,795.65 359.95,739.45 458.2,709.2 589.5,705 601.5,704.6 613.65,704.4 626.05,704.45 644.15,704.55 662.75,705 681.65,706z"/>
      </g>
    </g>
    <g id="Calque.__2014">
      <g id="shape13">
        <path id="path8" fill="#FFFFFF" fill-opacity="1" d="M380.35,336.2 Q357.55,356.4 343.25,389.7 C325.2,432.25 322.95,478.3 336.25,527.85 349.55,577.55 374.45,616.35 411.3,644.05 417.3,648.7 423.45,652.75 429.2,655.95 460.7,674.15 492.5,678.8 524.95,670.1 537.15,666.9 548.2,662.1 558,655.95 580.55,641.7 597.9,620 610.2,590.7 628.25,548.3 630.8,502.25 617.5,452.55 604.2,403 579,364.2 542.2,336.35 542.05,336.35 542.05,336.35 542.05,336.2 505.2,308.65 467.4,300.1 428.65,310.45 410.15,315.35 394.05,323.9 380.35,336.2z M518.95,592.15 C503.95,607.1 485.9,614.65 464.75,614.65 443.6,614.65 425.4,607.1 410.45,592.15 395.45,577.15 388.05,559.1 388.05,537.95 388.05,516.8 395.45,498.6 410.45,483.65 425.4,468.65 443.6,461.25 464.75,461.25 485.9,461.25 503.95,468.65 518.95,483.65 533.9,498.6 541.45,516.8 541.45,537.95 541.45,559.1 533.9,577.15 518.95,592.15z M492.6,518.9 C492.6,514.3 490.95,510.25 487.7,507 484.5,503.8 480.45,502.1 475.8,502.1 472.9,502.1 470.3,502.75 468.05,504 466.55,504.8 465.25,505.8 464.05,507 460.85,510.25 459.15,514.15 459.15,518.75 459.15,523.4 460.85,527.45 464.05,530.65 467.25,533.9 471.2,535.55 475.8,535.55 480.45,535.55 484.5,533.9 487.7,530.65 489.1,529.25 490.2,527.7 491.1,525.95 492.05,523.9 492.6,521.5 492.6,518.9z"/>
        <path id="path9" fill="#AAB8F5" fill-opacity="1" d="M518.95,592.15 C533.9,577.15 541.45,559.1 541.45,537.95 541.45,516.8 533.9,498.6 518.95,483.65 503.95,468.65 485.9,461.25 464.75,461.25 443.6,461.25 425.4,468.65 410.45,483.65 395.45,498.6 388.05,516.8 388.05,537.95 388.05,559.1 395.45,577.15 410.45,592.15 425.4,607.1 443.6,614.65 464.75,614.65 485.9,614.65 503.95,607.1 518.95,592.15z"/>
        <path id="path14" fill="#000000" fill-opacity="1" d="M491.1,525.95 C490.2,527.7 489.1,529.25 487.7,530.65 484.5,533.9 480.45,535.55 475.8,535.55 471.2,535.55 467.25,533.9 464.05,530.65 460.85,527.45 459.15,523.4 459.15,518.75 459.15,514.15 460.85,510.25 464.05,507 465.25,505.8 466.55,504.8 468.05,504 464.35,502.75 460.25,502.1 455.8,502.1 445.3,502.1 436.45,505.75 429.05,513.15 421.65,520.6 418,529.4 418,539.9 418,540.35 418,540.9 418,541.3 418.15,547.35 419.65,552.95 422.45,557.95 424.15,561.05 426.4,564 429.05,566.65 436.45,574.05 445.3,577.7 455.8,577.7 466.3,577.7 475.1,574.05 482.55,566.65 489.95,559.25 493.6,550.4 493.6,539.9 493.6,535 492.8,530.45 491.1,525.95z"/>
      </g>
    </g>
  </g>
</svg>