<?xml version="1.0" encoding="utf-8"?>
<!-- Generator: flash2svg, http://dissentgraphics.com/tools/flash2svg -->
<svg xmlns:xlink="http://www.w3.org/1999/xlink" id="Deluge" image-rendering="optimizeSpeed" baseProfile="basic" version="1.1" style="background-color:#ffffff" x="0px" y="0px" width="1024px" height="1024px" viewBox="0 0 1024 1024" enable-background="new 0 0 1024 1024" xmlns="http://www.w3.org/2000/svg">
  <defs transform="matrix(1 0 0 1 0 0) "/>
  <g id="shadow">
    <g id="shape">
      <path id="path" fill="#000000" fill-opacity="0.09803921568627451" d="M965.65,347.3 Q957.05,326.45 946.25,306.45 C942.2,298.9 937.9,291.4 933.35,284.05 913.8,252.35 889.95,222.4 861.8,194.25 769.65,102.1 658.35,56 528,56 397.65,56 286.4,102.1 194.25,194.25 102.1,286.4 56,397.65 56,528 56,658.35 102.1,769.65 194.25,861.8 286.4,953.95 397.65,1000 528,1000 658.35,1000 769.65,953.95 861.8,861.8 912.55,811 949.35,754.4 972.15,692.05 990.7,641.2 1000,586.55 1000,528 1000,483.1 994.55,440.45 983.6,400.05 982.35,395.5 981.05,390.95 979.7,386.45 975.6,373.15 970.9,360.1 965.65,347.3z"/>
    </g>
  </g>
  <g id="BackgroundInner">
    <g id="shape2">
      <path id="path1" fill="#3F71AA" fill-opacity="1" d="M985.45,512.05 C985.45,507.45 985.4,502.85 985.25,497.9 982.05,373.75 936,267.05 847,178.05 754.7,85.75 643.25,39.6 512.7,39.6 382.15,39.6 270.75,85.75 178.45,178.05 89.6,266.9 43.5,373.5 40.2,497.85 40.05,502.65 40,507.45 40,512.3 40,517.55 40.1,522.8 40.25,528.05 43.8,651.85 89.9,758.05 178.45,846.6 208.85,877 241.35,902.4 275.65,922.7 334.75,957.55 399.55,977.7 470.4,983.35 484.25,984.5 498.35,985.05 512.7,985.05 600.5,985.05 679.65,964.15 750.05,922.5 784.45,902.1 816.75,876.85 847,846.6 893.9,799.7 928.9,747.85 951.95,691.1 Q985.45,608.65 985.45,512.3 C985.45,512.2 985.45,512.1 985.45,512.05z"/>
    </g>
  </g>
  <g id="LogoBg">
    <g id="shape4">
      <path id="path2" fill="#000000" fill-opacity="0.2" d="M512.4,252.05 L370.075,671.975 660.8,962.7 C692,952.65 721.75,939.25 750.05,922.5 Q801.609,891.991 847,846.6 C893.8,799.8 928.75,748.1 951.8,691.45 L512.4,252.05z"/>
    </g>
  </g>
  <g id="Template">
    <g id="shape6">
      <path id="path3" fill="#CCD3DB" fill-opacity="1" d="M687.4,628 C704.65,586.65 698.15,533.45 667.9,468.5 646.3,422.05 613.9,372.05 570.75,318.5 549.45,292.05 530.25,270.2 513.2,252.85 512.95,252.6 512.65,252.3 512.4,252.05 L495.4,270.15 Q474.35,293.35 454.05,318.5 389.3,398.8 356.85,468.5 311.5,565.95 337.4,628 369.85,705.6 512.4,723.05 C512.65,723 512.95,723 513.2,722.95 607.75,711.25 665.85,679.6 687.4,628z"/>
    </g>
  </g>
  <g id="Calque.__201">
    <g id="shape8">
      <path id="path4" fill="#FFFFFF" fill-opacity="1" d="M430.9,453.5 C426,458.95 420.55,465.9 414.35,474.3 401.75,491.35 391.85,507.55 384.7,522.8 374.65,544.15 370.75,562.2 373.1,576.85 375.95,595.2 388.3,607.85 410.25,614.75 410.25,614.75 410.35,614.75 410.4,614.85 Q445,613.15 456.15,587.5 465,567 458.5,532.25 453.85,507.3 442.05,477.85 438.3,468.65 434.3,460 L431.1,453.3 C431,453.4 430.9,453.5 430.9,453.5z"/>
    </g>
  </g>
</svg>