<?xml version="1.0" encoding="utf-8"?>
<!-- Generator: flash2svg, http://dissentgraphics.com/tools/flash2svg -->
<svg xmlns:xlink="http://www.w3.org/1999/xlink" id="Droplr" image-rendering="optimizeSpeed" baseProfile="basic" version="1.1" style="background-color:#ffffff" x="0px" y="0px" width="1024px" height="1024px" viewBox="0 0 1024 1024" enable-background="new 0 0 1024 1024" xmlns="http://www.w3.org/2000/svg">
  <defs transform="matrix(1 0 0 1 0 0) "/>
  <g id="shadow">
    <g id="shape">
      <path id="path" fill="#000000" fill-opacity="0.09803921568627451" d="M969.65,351.3 Q961.05,330.45 950.25,310.45 C946.2,302.9 941.9,295.4 937.35,288.05 917.8,256.35 893.95,226.4 865.8,198.25 773.65,106.1 662.35,60 532,60 401.65,60 290.4,106.1 198.25,198.25 106.1,290.4 60,401.65 60,532 60,662.35 106.1,773.65 198.25,865.8 290.4,957.95 401.65,1004 532,1004 662.35,1004 773.65,957.95 865.8,865.8 916.55,815 953.35,758.4 976.15,696.05 994.7,645.2 1004,590.55 1004,532 1004,487.1 998.55,444.45 987.6,404.05 986.35,399.5 985.05,394.95 983.7,390.45 979.6,377.15 974.9,364.1 969.65,351.3z"/>
    </g>
  </g>
  <g id="bg">
    <g id="shape2">
      <path id="path1" fill="#3D527E" fill-opacity="1" d="M966.1,378.45 C965.1,375.05 964.1,371.6 962.95,367.95 961.35,362.8 959.55,357.45 957.65,352.1 951.2,333.85 943.5,316.05 934.5,298.45 930.7,291.05 926.55,283.5 922.2,276.05 901.9,241.55 876.4,208.85 845.85,178.3 773.25,105.7 688.7,61.65 592.2,46.25 575.95,43.65 559.4,41.85 542.15,40.9 532.45,40.35 522.3,40.05 512.05,40.05 502.7,40.05 493.45,40.3 484.15,40.8 365.8,46.9 263.85,92.75 178.3,178.3 Q40.05,316.55 40.05,512.05 C40.05,642.4 86.15,753.7 178.3,845.85 235,902.5 298.85,941.75 369.4,963.4 406.15,974.65 444.2,981.25 484.15,983.35 484.3,983.35 484.4,983.35 484.55,983.35 493.05,983.8 501.15,984.05 509.05,984.05 510.25,984.05 511.15,984.05 512.05,984.05 522.35,984.05 532.55,983.75 542.15,983.25 544.65,983.1 546.9,982.95 549.1,982.8 569.3,981.35 589,978.75 607.8,975.1 615.75,973.55 623.6,971.8 631.2,969.95 712,949.65 783.35,908.35 845.85,845.85 894.45,797.25 930.25,743.35 953.2,684.05 971.65,636.4 981.85,585.25 983.75,530.55 983.95,524.5 984.05,518.3 984.05,512.05 984.05,511.4 984.05,510.7 984.05,510.05 984.05,509.7 984.05,509.4 984.05,509.05 983.85,468.4 979.1,429.55 969.75,392.05 968.65,387.7 967.4,383.05 966.1,378.45z"/>
    </g>
  </g>
  <g id="bg1">
    <g id="shape4">
      <path id="path2" fill="#000000" fill-opacity="0.2" d="M984.05,510.05 C984.05,509.7 984.05,509.4 984.05,509.05 Q983.987,498.053 983.475,487.225 L763.05,266.8 340.25,731.25 587.575,978.575 L587.6,978.6 C594.7,977.5 601.3,976.35 607.8,975.1 615.75,973.55 623.6,971.8 631.2,969.95 712,949.65 783.35,908.35 845.85,845.85 894.45,797.25 930.25,743.35 953.2,684.05 971.65,636.4 981.85,585.25 983.75,530.55 983.95,524.5 984.05,518.3 984.05,512.05 984.05,511.4 984.05,510.7 984.05,510.05z"/>
    </g>
  </g>
  <g id="Calque.__2012">
    <g id="shape6">
      <path id="path3" fill="#6381BF" fill-opacity="1" d="M763.05,306.8 Q761.9,305.3 760.55,303.95 C755.4,298.8 749.25,296.25 742.05,296.3 L523.8,296.15 C519.9,296 516,295.9 512.05,295.95 508.7,295.95 505.35,296 502.05,296.15 501.8,296.15 501.55,296.15 501.3,296.15 501.05,296.15 500.85,296.15 500.65,296.2 436.65,298.65 381.4,322.3 334.95,367.05 L334.95,367.025 L334.95,737.05 C384.2,784.5 443.2,808.2 512.05,808.2 582.8,808.15 643.2,783.15 693.15,733.1 L693.15,733.15 C742.25,684.05 767.25,624.95 768.2,555.85 L768.2,322.4 C768.2,316.5 766.5,311.3 763.05,306.8z"/>
      <path id="path4" fill="#7193D9" fill-opacity="1" d="M334.95,367.05 C333.6,368.3 332.3,369.6 330.95,370.95 280.95,420.95 255.95,481.3 255.95,552.05 255.9,622.75 280.9,683.1 330.95,733.15 331.9,734.1 332.9,735.05 333.85,736 334.2,736.35 334.6,736.7 334.95,737.05 L334.95,367.025"/>
    </g>
  </g>
  <g id="Calque.__2013">
    <g id="shape10">
      <path id="path5" fill="#83ACFD" fill-opacity="1" d="M768.175,282.4 Q768.176,273.539 763.05,266.8 L715.925,313.925 715.925,515.15 L715.95,515.15 C715.9,515.25 715.9,515.35 715.95,515.5 715.1,570.3 695.15,617.2 656.2,656.2 L656.175,656.175 L656.175,656.2 L656.2,656.2 C616.4,696.05 568.35,715.95 512.05,715.95 457.15,715.9 410.05,696.95 370.8,659.05 L333.85,696 C383.3,744.15 442.7,768.2 512.05,768.2 582.8,768.15 643.2,743.15 693.15,693.1 L693.125,693.1 L693.125,693.125 L693.15,693.15 C742.25,644.05 767.25,584.95 768.2,515.85 L768.175,515.85 L768.175,282.4z"/>
      <path id="path6" fill="#B8CCFD" fill-opacity="1" d="M760.55,263.95 C755.4,258.8 749.25,256.25 742.05,256.3 L742.05,256.275 L523.775,256.15 L523.8,256.15 C519.9,256 516,255.9 512.05,255.95 508.7,255.95 505.35,256 502.05,256.15 501.8,256.15 501.55,256.15 501.3,256.15 501.05,256.15 500.85,256.15 500.65,256.2 434.8,258.75 378.25,283.65 330.95,330.95 280.95,380.95 255.95,441.3 255.95,512.05 255.9,582.75 280.9,643.1 330.95,693.15 331.9,694.1 332.9,695.05 333.85,696 L370.8,659.05 C369.85,658.1 368.85,657.15 367.9,656.2 328.1,616.4 308.2,568.35 308.2,512.05 308.15,455.75 328.05,407.7 367.9,367.9 405.45,330.35 450.4,310.5 502.65,308.4 L502.625,308.375 L525.375,308.525 L525.4,308.55 C525.95,308.55 526.55,308.55 527.1,308.55 L527.1,308.525 L715.925,308.525 715.925,313.925 763.05,266.8 C762.3,265.8 761.45,264.85 760.55,263.95z"/>
    </g>
    <g id="Symbole.__2026_1" overflow="visible">
      <g id="Calque.__2015">
        <g id="shape21">
          <path id="path12" fill="#2C3C5D" fill-opacity="1" d="M715.9,313.9 L715.9,308.5 527.05,308.5 C526.5,308.5 525.9,308.5 525.35,308.5 L502.6,308.35 C450.35,310.45 405.4,330.3 367.85,367.85 328,407.65 308.1,455.7 308.15,512 308.15,568.3 328.05,616.35 367.85,656.15 368.8,657.1 369.8,658.05 370.75,659 L715.9,313.9z"/>
          <path id="path13" fill="#212E47" fill-opacity="1" d="M715.9,515.45 C715.85,515.3 715.85,515.2 715.9,515.1 L715.9,313.9 370.75,659 C410,696.9 457.1,715.85 512,715.9 568.3,715.9 616.35,696 656.15,656.15 695.1,617.15 715.05,570.25 715.9,515.45z"/>
        </g>
      </g>
    </g>
  </g>
</svg>