<?xml version="1.0" encoding="utf-8"?>
<!-- Generator: flash2svg, http://dissentgraphics.com/tools/flash2svg -->
<svg xmlns:xlink="http://www.w3.org/1999/xlink" id="Dropbox" image-rendering="optimizeSpeed" baseProfile="basic" version="1.1" style="background-color:#ffffff" x="0px" y="0px" width="1024px" height="1024px" viewBox="0 0 1024 1024" enable-background="new 0 0 1024 1024" xmlns="http://www.w3.org/2000/svg">
  <defs transform="matrix(1 0 0 1 0 0) "/>
  <g id="shadow">
    <g id="shape">
      <path id="path" fill="#000000" fill-opacity="0.09803921568627451" d="M969.65,351.3 Q961.05,330.45 950.25,310.45 C946.2,302.9 941.9,295.4 937.35,288.05 917.8,256.35 893.95,226.4 865.8,198.25 773.65,106.1 662.35,60 532,60 401.65,60 290.4,106.1 198.25,198.25 106.1,290.4 60,401.65 60,532 60,662.35 106.1,773.65 198.25,865.8 290.4,957.95 401.65,1004 532,1004 662.35,1004 773.65,957.95 865.8,865.8 916.55,815 953.35,758.4 976.15,696.05 994.7,645.2 1004,590.55 1004,532 1004,487.1 998.55,444.45 987.6,404.05 986.35,399.5 985.05,394.95 983.7,390.45 979.6,377.15 974.9,364.1 969.65,351.3z"/>
    </g>
  </g>
  <g id="bg">
    <g id="shape2">
      <path id="path1" fill="#253648" fill-opacity="1" d="M962.95,367.95 C961.35,362.8 959.55,357.45 957.65,352.1 951.2,333.85 943.5,316.05 934.5,298.45 930.7,291.05 926.55,283.5 922.2,276.05 901.9,241.55 876.4,208.85 845.85,178.3 773.25,105.7 688.7,61.65 592.2,46.25 575.95,43.65 559.4,41.85 542.15,40.9 532.45,40.35 522.3,40.05 512.05,40.05 502.7,40.05 493.45,40.3 484.15,40.8 365.8,46.9 263.85,92.75 178.3,178.3 Q40.05,316.55 40.05,512.05 C40.05,642.4 86.15,753.7 178.3,845.85 235,902.5 298.85,941.75 369.4,963.4 406.15,974.65 444.2,981.25 484.15,983.35 484.3,983.35 484.4,983.35 484.55,983.35 493.05,983.8 501.15,984.05 509.05,984.05 510.25,984.05 511.15,984.05 512.05,984.05 522.35,984.05 532.55,983.75 542.15,983.25 544.65,983.1 546.9,982.95 549.1,982.8 569.3,981.35 589,978.75 607.8,975.1 615.75,973.55 623.6,971.8 631.2,969.95 712,949.65 783.35,908.35 845.85,845.85 894.45,797.25 930.25,743.35 953.2,684.05 971.65,636.4 981.85,585.25 983.75,530.55 983.95,524.5 984.05,518.3 984.05,512.05 984.05,511.4 984.05,510.7 984.05,510.05 984.05,509.7 984.05,509.4 984.05,509.05 983.85,468.4 979.1,429.55 969.75,392.05 968.65,387.7 967.4,383.05 966.1,378.45 965.1,375.05 964.1,371.6 962.95,367.95z"/>
    </g>
  </g>
  <g id="bg1">
    <g id="shape4">
      <path id="path2" fill="#000000" fill-opacity="0.2" d="M984.05,509.05 Q984.025,504.676 983.925,500.325 L827.8,344.2 196.8,365.4 332.85,501.45 291.6,679.85 589.95,978.2 C596,977.3 601.95,976.25 607.8,975.1 615.75,973.55 623.6,971.8 631.2,969.95 712,949.65 783.35,908.35 845.85,845.85 894.45,797.25 930.25,743.35 953.2,684.05 971.65,636.4 981.85,585.25 983.75,530.55 983.95,524.5 984.05,518.3 984.05,512.05 984.05,511.4 984.05,510.7 984.05,510.05 984.05,509.7 984.05,509.4 984.05,509.05z"/>
    </g>
  </g>
  <g id="dropbox02">
    <g id="shape6">
      <path id="path3" fill="#3E6181" fill-opacity="1" d="M513.65,543.2 L513.5,543.425 513.7,543.3 513.65,543.2z M511.725,275.1 L512.7,275.1 512.7,535.925 L512.7,535.95 C512.9,535.75 513.1,535.6 513.35,535.45 L513.325,535.45 L728.075,404.3 543.775,292.925 543.75,292.9 513.425,274.075 511.725,275.1z"/>
      <path id="path4" fill="#53789E" fill-opacity="1" d="M291.6,575.7 L303.55,575.7 291.6,568.45 291.6,575.7z"/>
      <path id="path5" fill="#598BB8" fill-opacity="1" d="M829.35,346.125 Q828.904,344.874 827.775,344.175 L610.075,212.075 L610.1,212.1 C609.5,211.75 608.85,211.55 608.15,211.55 607.5,211.55 606.85,211.75 606.25,212.1 L606.25,212.075 L513.35,267.675 L513.325,267.675 L513.35,267.675 L513.35,267.7 C513.2,267.65 513.1,267.55 512.95,267.5 L415.8,226.55 C415.25,226.3 414.65,226.2 414.1,226.25 413.5,226.3 412.95,226.5 412.45,226.8 L412.425,226.8 L196.275,358.85 L196.3,358.85 C195.45,359.35 194.9,360.05 194.65,360.95 194.4,361.85 194.45,362.75 194.85,363.6 195.25,364.45 195.9,365.05 196.8,365.4 L196.775,365.4 L292.35,405.65 C292.2,405.8 292.05,406 291.9,406.25 L291.875,406.25 L219.325,520.15 L219.35,520.15 C219,520.7 218.8,521.35 218.75,522.05 218.7,522.7 218.85,523.3 219.2,523.9 219.55,524.5 220,525 220.55,525.35 L220.525,525.325 L291.6,568.45 303.55,575.7 437.075,656.775 L437.1,656.8 C437.95,657.3 438.9,657.45 439.85,657.2 440.8,656.95 441.6,656.45 442.15,655.6 L442.125,655.575 L513.2,543.9 513.5,543.425 513.65,543.2 513.7,543.3 579.95,657.15 C580.3,657.7 580.75,658.2 581.35,658.55 581.95,658.85 582.6,659 583.25,659 583.9,659 584.5,658.8 585.1,658.45 L585.075,658.45 L731.4,569.075 801.275,526.4 L801.3,526.4 C802.15,525.85 802.7,525.1 802.95,524.15 803.2,523.2 803.05,522.25 802.55,521.4 L735.3,405.8 827.75,350.525 L827.75,350.55 C828.5,350.1 829.05,349.45 829.35,348.6 829.65,347.75 829.65,346.95 829.35,346.15"/>
      <path id="path6" fill="#344B63" fill-opacity="1" d="M359,368.8 L358.975,368.825 297.875,405.675 512.575,536.05 L512.6,536.05 C512.65,536 512.65,536 512.7,535.95 L512.7,535.925 L512.7,275.1 511.725,275.1 466.375,302.475 466.4,302.45 359,368.8z"/>
      <path id="path9" fill="#446C90" fill-opacity="1" d="M731.4,679.775 L731.4,569.075 585.075,658.45 L585.1,658.45 C584.5,658.8 583.9,659 583.25,659 582.6,659 581.95,658.85 581.35,658.55 580.75,658.2 580.3,657.7 579.95,657.15 L513.7,543.3 513.5,543.425 513.2,543.9 513.2,813.05 731.4,679.775z"/>
      <path id="path10" fill="#4B77A1" fill-opacity="1" d="M303.55,575.7 L291.6,575.7 291.6,679.825 511.5,814.075 513.2,813.05 513.2,543.9 442.125,655.575 L442.15,655.6 C441.6,656.45 440.8,656.95 439.85,657.2 438.9,657.45 437.95,657.3 437.1,656.8 L437.075,656.775 L303.55,575.7z"/>
    </g>
  </g>
</svg>