<?xml version="1.0" encoding="utf-8"?>
<!-- Generator: flash2svg, http://dissentgraphics.com/tools/flash2svg -->
<svg xmlns:xlink="http://www.w3.org/1999/xlink" id="Facetime" image-rendering="optimizeSpeed" baseProfile="basic" version="1.1" style="background-color:#ffffff" x="0px" y="0px" width="1024px" height="1024px" viewBox="0 0 1024 1024" enable-background="new 0 0 1024 1024" xmlns="http://www.w3.org/2000/svg">
  <defs transform="matrix(1 0 0 1 0 0) "/>
  <g id="shadow">
    <g id="shape">
      <path id="path" fill="#000000" fill-opacity="0.09803921568627451" d="M965.65,347.3 Q957.05,326.45 946.25,306.45 C942.2,298.9 937.9,291.4 933.35,284.05 913.8,252.35 889.95,222.4 861.8,194.25 769.65,102.1 658.35,56 528,56 397.65,56 286.4,102.1 194.25,194.25 102.1,286.4 56,397.65 56,528 56,658.35 102.1,769.65 194.25,861.8 286.4,953.95 397.65,1000 528,1000 658.35,1000 769.65,953.95 861.8,861.8 912.55,811 949.35,754.4 972.15,692.05 990.7,641.2 1000,586.55 1000,528 1000,483.1 994.55,440.45 983.6,400.05 982.35,395.5 981.05,390.95 979.7,386.45 975.6,373.15 970.9,360.1 965.65,347.3z"/>
    </g>
  </g>
  <g id="circle">
    <g id="shape2">
      <path id="path1" fill="#454B57" fill-opacity="1" d="M968.45,382.15 C967,376.95 965.45,371.75 963.7,366.15 950.7,324.75 931.35,285.35 905.7,248.1 L905.675,248.1 L119.775,248.1 L119.8,248.1 C94.25,285.05 74.9,324.45 61.75,366.15 60,371.55 58.45,376.85 57,382.15 51.45,402.35 47.25,423.05 44.45,444.2 41.5,466.4 40,489.05 40,512.3 40,542.1 42.4,570.85 47.15,598.2 50.1,615.5 53.95,632.05 58.65,648.2 59.45,650.95 60.3,653.7 61.05,656.25 73.95,697.6 92.55,736.25 116.85,772.25 L908.625,772.25 L908.65,772.25 C926,746.4 940.45,719.35 951.95,691.1 956.55,679.75 960.65,668.2 964.45,656.25 965.2,653.7 966.05,650.95 966.85,648.2 971.55,632.05 975.35,615.5 978.35,598.2 983.05,570.85 985.45,542.1 985.45,512.3 Q985.45,477.335 981.025,444.2 L981.05,444.2 C978.25,423.2 974.05,402.45 968.45,382.15z"/>
      <path id="path2" fill="#2B2F3B" fill-opacity="1" d="M905.7,248.1 C889,223.85 869.35,200.4 847,178.05 754.7,85.75 643.25,39.6 512.7,39.6 382.15,39.6 270.75,85.75 178.45,178.05 156.15,200.35 136.55,223.75 119.8,248.1 L119.775,248.1 L905.675,248.1 M470.4,983.35 C484.25,984.5 498.35,985.05 512.7,985.05 643.25,985.05 754.7,938.9 847,846.6 870.55,823.05 891.1,798.25 908.65,772.25 L908.625,772.25 L116.85,772.25 C134.55,798.45 155,823.15 178.45,846.6 260.6,928.8 357.95,974.4 470.4,983.35z"/>
    </g>
  </g>
  <g id="film">
    <g id="Symbole.__2015_1" overflow="visible">
      <g id="Calque.__207">
        <g id="shape48">
          <path id="path48" fill="#2B2F3B" fill-opacity="1" d="M546.1,287.7 C539.45,287.7 536.1,291.05 536.1,297.7 L536.1,327.7 C536.1,334.35 539.45,337.7 546.1,337.7 L615.65,337.7 C622.3,337.7 625.65,334.35 625.65,327.7 L625.65,297.7 C625.65,291.05 622.3,287.7 615.65,287.7 L546.1,287.7z M753.4,287.7 L683.85,287.7 C677.2,287.7 673.85,291.05 673.85,297.7 L673.85,327.7 C673.85,334.35 677.2,337.7 683.85,337.7 L753.4,337.7 C760.05,337.7 763.4,334.35 763.4,327.7 L763.4,297.7 C763.4,291.05 760.05,287.7 753.4,287.7z M821.6,287.7 C814.95,287.7 811.6,291.05 811.6,297.7 L811.6,327.7 C811.6,334.35 814.95,337.7 821.6,337.7 L891.15,337.7 C897.8,337.7 901.15,334.35 901.15,327.7 L901.15,297.7 C901.15,291.05 897.8,287.7 891.15,287.7 L821.6,287.7z M132.85,287.7 C126.2,287.7 122.85,291.05 122.85,297.7 L122.85,327.7 C122.85,334.35 126.2,337.7 132.85,337.7 L202.4,337.7 C209.05,337.7 212.4,334.35 212.4,327.7 L212.4,297.7 C212.4,291.05 209.05,287.7 202.4,287.7 L132.85,287.7z M340.15,287.7 L270.6,287.7 C263.95,287.7 260.6,291.05 260.6,297.7 L260.6,327.7 C260.6,334.35 263.95,337.7 270.6,337.7 L340.15,337.7 C346.8,337.7 350.15,334.35 350.15,327.7 L350.15,297.7 C350.15,291.05 346.8,287.7 340.15,287.7z M408.35,287.7 C401.7,287.7 398.35,291.05 398.35,297.7 L398.35,327.7 C398.35,334.35 401.7,337.7 408.35,337.7 L477.9,337.7 C484.55,337.7 487.9,334.35 487.9,327.7 L487.9,297.7 C487.9,291.05 484.55,287.7 477.9,287.7 L408.35,287.7z"/>
        </g>
      </g>
    </g>
    <g id="Symbole.__2015_2" overflow="visible">
      <g id="Calque.__208">
        <g id="shape49">
          <path id="path49" fill="#2B2F3B" fill-opacity="1" d="M546.1,690.1 C539.45,690.1 536.1,693.45 536.1,700.1 L536.1,730.1 C536.1,736.75 539.45,740.1 546.1,740.1 L615.65,740.1 C622.3,740.1 625.65,736.75 625.65,730.1 L625.65,700.1 C625.65,693.45 622.3,690.1 615.65,690.1 L546.1,690.1z M753.4,690.1 L683.85,690.1 C677.2,690.1 673.85,693.45 673.85,700.1 L673.85,730.1 C673.85,736.75 677.2,740.1 683.85,740.1 L753.4,740.1 C760.05,740.1 763.4,736.75 763.4,730.1 L763.4,700.1 C763.4,693.45 760.05,690.1 753.4,690.1z M821.6,690.1 C814.95,690.1 811.6,693.45 811.6,700.1 L811.6,730.1 C811.6,736.75 814.95,740.1 821.6,740.1 L891.15,740.1 C897.8,740.1 901.15,736.75 901.15,730.1 L901.15,700.1 C901.15,693.45 897.8,690.1 891.15,690.1 L821.6,690.1z M132.85,690.1 C126.2,690.1 122.85,693.45 122.85,700.1 L122.85,730.1 C122.85,736.75 126.2,740.1 132.85,740.1 L202.4,740.1 C209.05,740.1 212.4,736.75 212.4,730.1 L212.4,700.1 C212.4,693.45 209.05,690.1 202.4,690.1 L132.85,690.1z M340.15,690.1 L270.6,690.1 C263.95,690.1 260.6,693.45 260.6,700.1 L260.6,730.1 C260.6,736.75 263.95,740.1 270.6,740.1 L340.15,740.1 C346.8,740.1 350.15,736.75 350.15,730.1 L350.15,700.1 C350.15,693.45 346.8,690.1 340.15,690.1z M408.35,690.1 C401.7,690.1 398.35,693.45 398.35,700.1 L398.35,730.1 C398.35,736.75 401.7,740.1 408.35,740.1 L477.9,740.1 C484.55,740.1 487.9,736.75 487.9,730.1 L487.9,700.1 C487.9,693.45 484.55,690.1 477.9,690.1 L408.35,690.1z"/>
        </g>
      </g>
    </g>
  </g>
  <g id="camera-shadow">
    <g id="shape8">
      <path id="path5" fill="#2B2E3C" fill-opacity="1" d="M706.15,382.15 L672.05,348.05 637.525,382.15 706.15,382.15z"/>
      <path id="path6" fill="#000000" fill-opacity="0.2" d="M951.95,691.1 Q960.482,670.101 966.85,648.2 C967.25,646.85 967.65,645.5 968.05,644.05 L968.025,644.025 L706.15,382.15 637.525,382.15 344.05,672.05 640.65,968.675 L640.65,968.7 C717.8,947.75 786.5,907.1 847,846.6 893.9,799.7 928.9,747.85 951.95,691.1z"/>
    </g>
  </g>
  <g id="camera">
    <g id="Symbole.__2018_1" overflow="visible">
      <g id="Symbole.__2025">
        <g id="Symbole.__2021_2" overflow="visible">
          <g id="Calque.__209">
            <g id="shape50">
              <path id="path50" fill="#FFFFFF" fill-opacity="1" d="M246.75,169.75 L246.7,169.8 C237.75,178.85 233.3,189.75 233.3,202.5 233.3,215.35 237.8,226.25 246.75,235.2 255.8,244.25 266.75,248.8 279.5,248.8 292.25,248.8 303.15,244.25 312.15,235.2 312.2,235.2 312.2,235.2 312.2,235.15 321.2,226.2 325.7,215.3 325.75,202.5 325.75,189.75 321.25,178.85 312.2,169.8 303.2,160.8 292.3,156.3 279.5,156.3 266.75,156.3 255.8,160.8 246.75,169.75z M307.3,202.5 C307.3,210.2 304.6,216.75 299.15,222.1 L299.1,222.15 C293.7,227.6 287.15,230.3 279.5,230.35 271.8,230.3 265.25,227.6 259.8,222.15 254.4,216.75 251.7,210.2 251.75,202.5 251.7,194.85 254.4,188.3 259.75,182.85 259.8,182.85 259.8,182.85 259.8,182.8 265.25,177.4 271.85,174.7 279.5,174.75 287.15,174.7 293.7,177.4 299.15,182.85 L299.125,182.825 Q307.275,190.973 307.275,202.5z"/>
              <path id="path51" fill="#96A4C8" fill-opacity="0.9882352941176471" d="M307.275,202.5 Q307.275,190.973 299.125,182.825 L299.15,182.85 C293.7,177.4 287.15,174.7 279.5,174.75 271.85,174.7 265.25,177.4 259.8,182.8 259.8,182.85 259.8,182.85 259.75,182.85 254.4,188.3 251.7,194.85 251.75,202.5 251.7,210.2 254.4,216.75 259.8,222.15 265.25,227.6 271.8,230.3 279.5,230.35 287.15,230.3 293.7,227.6 299.1,222.15 L299.15,222.1 C304.6,216.75 307.3,210.2 307.3,202.5"/>
            </g>
          </g>
        </g>
      </g>
      <g id="Calque.__210">
        <g id="Symbole.__2023_2" overflow="visible">
          <g id="Calque.__211">
            <g id="shape51">
              <path id="path52" fill="#444A58" fill-opacity="1" d="M774.1,533.1 C774.1,466.55 750.55,409.7 703.5,362.65 656.45,315.6 599.65,292.1 533.1,292.1 466.55,292.1 409.7,315.6 362.65,362.65 315.6,409.7 292.1,466.55 292.1,533.1 292.1,599.65 315.6,656.45 362.65,703.5 409.7,750.55 466.55,774.1 533.1,774.1 599.65,774.1 656.45,750.55 703.5,703.5 750.55,656.45 774.1,599.65 774.1,533.1z M659.1,407.1 C624.35,372.3 582.35,354.9 533.15,354.9 488.5,354.9 449.8,369.2 417,397.8 414.35,400.15 411.7,402.55 409.1,405.1 408.45,405.75 407.75,406.45 407.1,407.1 L391.85,391.85 391.85,391.8 C392.5,391.15 393.15,390.5 393.85,389.85 396.4,387.3 399.05,384.85 401.7,382.5 438.75,349.7 482.55,333.3 533.15,333.3 588.35,333.3 635.45,352.8 674.4,391.85 713.45,430.9 732.95,478 732.95,533.15 732.95,583.75 716.55,627.55 683.7,664.5 681.35,667.15 678.9,669.8 676.4,672.4 675.75,673.05 675.05,673.75 674.4,674.4 L659.15,659.15 659.15,659.1 C659.8,658.45 660.45,657.75 661.1,657.1 663.65,654.5 666.05,651.85 668.4,649.2 697.05,616.45 711.35,577.8 711.35,533.15 711.35,483.9 693.95,441.9 659.15,407.1 L659.1,407.1z M630.85,435.55 C603.9,408.6 571.35,395.1 533.2,395.1 499.7,395.1 470.5,405.5 445.55,426.35 442.85,428.6 440.2,431 437.55,433.55 436.9,434.2 436.2,434.9 435.55,435.55 L420.3,420.3 420.3,420.25 C420.95,419.6 421.6,418.95 422.3,418.3 424.9,415.75 427.55,413.35 430.25,411.05 459.4,386 493.7,373.5 533.2,373.5 577.25,373.5 614.9,389.1 646.1,420.3 677.25,451.5 692.85,489.15 692.85,533.2 692.85,572.7 680.35,607 655.3,636.1 653,638.8 650.6,641.45 648.05,644.05 647.4,644.7 646.75,645.4 646.1,646.1 L630.85,630.85 C631.5,630.15 632.15,629.45 632.8,628.8 635.35,626.2 637.75,623.55 640,620.8 660.85,595.9 671.25,566.7 671.25,533.2 671.25,495.05 657.75,462.5 630.8,435.55 L630.85,435.55z M619.45,615.45 C618.8,616.1 618.15,616.8 617.5,617.5 L602.25,602.25 C602.9,601.55 603.55,600.85 604.2,600.2 606.75,597.55 609.1,594.8 611.25,592.05 624.3,575.1 630.8,555.5 630.8,533.15 630.8,506.2 621.3,483.2 602.25,464.15 583.15,445.05 560.1,435.5 533.15,435.5 510.85,435.5 491.25,442.05 474.3,455.1 471.5,457.25 468.8,459.6 466.15,462.15 465.45,462.8 464.75,463.45 464.1,464.1 L448.85,448.85 C449.5,448.2 450.2,447.55 450.9,446.9 453.5,444.35 456.2,442 458.95,439.75 480.1,422.5 504.85,413.9 533.15,413.9 566.05,413.9 594.15,425.55 617.5,448.9 640.75,472.15 652.4,500.25 652.4,533.15 652.4,561.5 643.8,586.25 626.6,607.4 624.35,610.15 622,612.8 619.45,615.45z M533.1,456.1 C554.35,456.1 572.45,463.6 587.5,478.65 602.55,493.7 610.1,511.85 610.1,533.1 610.1,554.35 602.55,572.45 587.5,587.5 572.45,602.55 554.35,610.1 533.1,610.1 511.85,610.1 493.7,602.55 478.65,587.5 463.6,572.45 456.1,554.35 456.1,533.1 456.1,511.85 463.6,493.7 478.65,478.65 493.7,463.6 511.85,456.1 533.1,456.1z"/>
              <path id="path53" fill="none" stroke="#FFFFFF" stroke-opacity="1" stroke-width="42.3" stroke-linecap="round" stroke-linejoin="round" d="M774.1,533.1 C774.1,466.55 750.55,409.7 703.5,362.65 656.45,315.6 599.65,292.1 533.1,292.1 466.55,292.1 409.7,315.6 362.65,362.65 315.6,409.7 292.1,466.55 292.1,533.1 292.1,599.65 315.6,656.45 362.65,703.5 409.7,750.55 466.55,774.1 533.1,774.1 599.65,774.1 656.45,750.55 703.5,703.5 750.55,656.45 774.1,599.65 774.1,533.1z"/>
              <path id="path54" fill="#5D6579" fill-opacity="1" d="M659.1,407.1 L659.15,407.1 C693.95,441.9 711.35,483.9 711.35,533.15 711.35,577.8 697.05,616.45 668.4,649.2 666.05,651.85 663.65,654.5 661.1,657.1 660.45,657.75 659.8,658.45 659.15,659.1 L659.15,659.15 674.4,674.4 C675.05,673.75 675.75,673.05 676.4,672.4 678.9,669.8 681.35,667.15 683.7,664.5 716.55,627.55 732.95,583.75 732.95,533.15 732.95,478 713.45,430.9 674.4,391.85 635.45,352.8 588.35,333.3 533.15,333.3 482.55,333.3 438.75,349.7 401.7,382.5 399.05,384.85 396.4,387.3 393.85,389.85 393.15,390.5 392.5,391.15 391.85,391.8 L391.85,391.85 407.1,407.1 C407.75,406.45 408.45,405.75 409.1,405.1 411.7,402.55 414.35,400.15 417,397.8 449.8,369.2 488.5,354.9 533.15,354.9 582.35,354.9 624.35,372.3 659.1,407.1z"/>
              <path id="path55" fill="#5D6579" fill-opacity="1" d="M630.85,435.55 L630.8,435.55 C657.75,462.5 671.25,495.05 671.25,533.2 671.25,566.7 660.85,595.9 640,620.8 637.75,623.55 635.35,626.2 632.8,628.8 632.15,629.45 631.5,630.15 630.85,630.85 L646.1,646.1 C646.75,645.4 647.4,644.7 648.05,644.05 650.6,641.45 653,638.8 655.3,636.1 680.35,607 692.85,572.7 692.85,533.2 692.85,489.15 677.25,451.5 646.1,420.3 614.9,389.1 577.25,373.5 533.2,373.5 493.7,373.5 459.4,386 430.25,411.05 427.55,413.35 424.9,415.75 422.3,418.3 421.6,418.95 420.95,419.6 420.3,420.25 L420.3,420.3 435.55,435.55 C436.2,434.9 436.9,434.2 437.55,433.55 440.2,431 442.85,428.6 445.55,426.35 470.5,405.5 499.7,395.1 533.2,395.1 571.35,395.1 603.9,408.6 630.85,435.55z"/>
              <path id="path56" fill="#5D6579" fill-opacity="1" d="M619.45,615.45 C622,612.8 624.35,610.15 626.6,607.4 643.8,586.25 652.4,561.5 652.4,533.15 652.4,500.25 640.75,472.15 617.5,448.9 594.15,425.55 566.05,413.9 533.15,413.9 504.85,413.9 480.1,422.5 458.95,439.75 456.2,442 453.5,444.35 450.9,446.9 450.2,447.55 449.5,448.2 448.85,448.85 L464.1,464.1 C464.75,463.45 465.45,462.8 466.15,462.15 468.8,459.6 471.5,457.25 474.3,455.1 491.25,442.05 510.85,435.5 533.15,435.5 560.1,435.5 583.15,445.05 602.25,464.15 621.3,483.2 630.8,506.2 630.8,533.15 630.8,555.5 624.3,575.1 611.25,592.05 609.1,594.8 606.75,597.55 604.2,600.2 603.55,600.85 602.9,601.55 602.25,602.25 L617.5,617.5 C618.15,616.8 618.8,616.1 619.45,615.45z"/>
              <path id="path57" fill="#96A4C8" fill-opacity="1" d="M533.1,456.1 C511.85,456.1 493.7,463.6 478.65,478.65 463.6,493.7 456.1,511.85 456.1,533.1 456.1,554.35 463.6,572.45 478.65,587.5 493.7,602.55 511.85,610.1 533.1,610.1 554.35,610.1 572.45,602.55 587.5,587.5 602.55,572.45 610.1,554.35 610.1,533.1 610.1,511.85 602.55,493.7 587.5,478.65 572.45,463.6 554.35,456.1 533.1,456.1z M554.15,533.1 C554.15,538.9 552.1,543.85 547.95,547.95 543.85,552.1 538.9,554.15 533.1,554.15 527.3,554.15 522.35,552.1 518.2,547.95 514.1,543.85 512.05,538.9 512.05,533.1 512.05,527.3 514.1,522.35 518.2,518.2 522.35,514.1 527.3,512.05 533.1,512.05 538.9,512.05 543.85,514.1 547.95,518.2 552.1,522.35 554.15,527.3 554.15,533.1z"/>
              <path id="path58" fill="#FFFFFF" fill-opacity="1" d="M554.15,533.1 C554.15,527.3 552.1,522.35 547.95,518.2 543.85,514.1 538.9,512.05 533.1,512.05 527.3,512.05 522.35,514.1 518.2,518.2 514.1,522.35 512.05,527.3 512.05,533.1 512.05,538.9 514.1,543.85 518.2,547.95 522.35,552.1 527.3,554.15 533.1,554.15 538.9,554.15 543.85,552.1 547.95,547.95 552.1,543.85 554.15,538.9 554.15,533.1z"/>
            </g>
          </g>
        </g>
      </g>
    </g>
  </g>
</svg>