<?xml version="1.0" encoding="utf-8"?>
<!-- Generator: flash2svg, http://dissentgraphics.com/tools/flash2svg -->
<svg xmlns:xlink="http://www.w3.org/1999/xlink" id="Facetime" image-rendering="optimizeSpeed" baseProfile="basic" version="1.1" style="background-color:#ffffff" x="0px" y="0px" width="1024px" height="1024px" viewBox="0 0 1024 1024" enable-background="new 0 0 1024 1024" xmlns="http://www.w3.org/2000/svg">
  <defs transform="matrix(1 0 0 1 0 0) "/>
  <g id="shadow">
    <g id="shape">
      <path id="path" fill="#000000" fill-opacity="0.09803921568627451" d="M965.65,347.3 Q957.05,326.45 946.25,306.45 C942.2,298.9 937.9,291.4 933.35,284.05 913.8,252.35 889.95,222.4 861.8,194.25 769.65,102.1 658.35,56 528,56 397.65,56 286.4,102.1 194.25,194.25 102.1,286.4 56,397.65 56,528 56,658.35 102.1,769.65 194.25,861.8 286.4,953.95 397.65,1000 528,1000 658.35,1000 769.65,953.95 861.8,861.8 912.55,811 949.35,754.4 972.15,692.05 990.7,641.2 1000,586.55 1000,528 1000,483.1 994.55,440.45 983.6,400.05 982.35,395.5 981.05,390.95 979.7,386.45 975.6,373.15 970.9,360.1 965.65,347.3z"/>
    </g>
  </g>
  <g id="circle">
    <g id="shape2">
      <path id="path1" fill="#2B2E3C" fill-opacity="1" d="M968.45,382.15 C947.6,306.3 907.05,238.1 847,178.05 754.7,85.75 643.25,39.6 512.7,39.6 382.15,39.6 270.75,85.75 178.45,178.05 118.4,238.1 77.9,306.2 57,382.15 L968.45,382.15z M951.95,691.1 C957.6,677.15 962.55,662.9 966.85,648.2 L58.625,648.2 L58.65,648.2 C80.1,722.1 120.05,788.2 178.45,846.6 260.6,928.8 357.95,974.4 470.4,983.35 484.25,984.5 498.35,985.05 512.7,985.05 643.25,985.05 754.7,938.9 847,846.6 893.9,799.7 928.9,747.85 951.95,691.1z"/>
      <path id="path4" fill="#42485A" fill-opacity="1" d="M985.45,512.3 Q985.45,443.706 968.45,382.15 L57,382.15 C45.65,423.35 40,466.65 40,512.3 40,560.25 46.2,605.6 58.65,648.2 L58.625,648.2 L966.85,648.2 C979.25,605.6 985.45,560.25 985.45,512.3z"/>
    </g>
  </g>
  <g id="film">
    <g id="shape8">
      <path id="path5" fill="#58629A" fill-opacity="1" d="M793.05,195.75 Q793.05,183.35 784.25,174.55 C778.4,168.7 771.3,165.75 763.05,165.75 L261.05,165.75 C252.8,165.75 245.7,168.7 239.85,174.55 234,180.4 231.05,187.5 231.05,195.75 L231.05,828.35 C231.05,836.6 234,843.7 239.85,849.55 245.7,855.4 252.8,858.35 261.05,858.35 L763.05,858.35 C771.3,858.35 778.4,855.4 784.25,849.55 790.1,843.7 793.05,836.6 793.05,828.35 L793.05,195.75z M759.15,216.5 L759.15,286.05 C759.15,292.7 755.8,296.05 749.15,296.05 L719.15,296.05 C712.5,296.05 709.15,292.7 709.15,286.05 L709.15,216.5 C709.15,209.85 712.5,206.5 719.15,206.5 L749.15,206.5 C755.8,206.5 759.15,209.85 759.15,216.5z M719.15,336.7 L749.15,336.7 C755.8,336.7 759.15,340.05 759.15,346.7 L759.15,416.25 C759.15,422.9 755.8,426.25 749.15,426.25 L719.15,426.25 C712.5,426.25 709.15,422.9 709.15,416.25 L709.15,346.7 C709.15,340.05 712.5,336.7 719.15,336.7z M759.15,476.9 L759.15,546.45 C759.15,553.1 755.8,556.45 749.15,556.45 L719.15,556.45 C712.5,556.45 709.15,553.1 709.15,546.45 L709.15,476.9 C709.15,470.25 712.5,466.9 719.15,466.9 L749.15,466.9 C755.8,466.9 759.15,470.25 759.15,476.9z M759.15,607.1 L759.15,676.65 C759.15,683.3 755.8,686.65 749.15,686.65 L719.15,686.65 C712.5,686.65 709.15,683.3 709.15,676.65 L709.15,607.1 C709.15,600.45 712.5,597.1 719.15,597.1 L749.15,597.1 C755.8,597.1 759.15,600.45 759.15,607.1z M719.15,727.3 L749.15,727.3 C755.8,727.3 759.15,730.65 759.15,737.3 L759.15,806.85 C759.15,813.5 755.8,816.85 749.15,816.85 L719.15,816.85 C712.5,816.85 709.15,813.5 709.15,806.85 L709.15,737.3 C709.15,730.65 712.5,727.3 719.15,727.3z M313.35,211.2 L313.35,280.75 C313.35,287.4 310,290.75 303.35,290.75 L273.35,290.75 C266.7,290.75 263.35,287.4 263.35,280.75 L263.35,211.2 C263.35,204.55 266.7,201.2 273.35,201.2 L303.35,201.2 C310,201.2 313.35,204.55 313.35,211.2z M313.35,341.4 L313.35,410.95 C313.35,417.6 310,420.95 303.35,420.95 L273.35,420.95 C266.7,420.95 263.35,417.6 263.35,410.95 L263.35,341.4 C263.35,334.75 266.7,331.4 273.35,331.4 L303.35,331.4 C310,331.4 313.35,334.75 313.35,341.4z M273.35,461.6 L303.35,461.6 C310,461.6 313.35,464.95 313.35,471.6 L313.35,541.15 C313.35,547.8 310,551.15 303.35,551.15 L273.35,551.15 C266.7,551.15 263.35,547.8 263.35,541.15 L263.35,471.6 C263.35,464.95 266.7,461.6 273.35,461.6z M303.35,591.8 C310,591.8 313.35,595.15 313.35,601.8 L313.35,671.35 C313.35,678 310,681.35 303.35,681.35 L273.35,681.35 C266.7,681.35 263.35,678 263.35,671.35 L263.35,601.8 C263.35,595.15 266.7,591.8 273.35,591.8 L303.35,591.8z M313.35,732 L313.35,801.55 C313.35,808.2 310,811.55 303.35,811.55 L273.35,811.55 C266.7,811.55 263.35,808.2 263.35,801.55 L263.35,732 C263.35,725.35 266.7,722 273.35,722 L303.35,722 C310,722 313.35,725.35 313.35,732z"/>
    </g>
  </g>
  <g id="camera-shadow">
    <g id="shape40">
      <path id="path36" fill="#2B2E3C" fill-opacity="1" d="M706.15,382.15 L672.05,348.05 637.525,382.15 706.15,382.15z"/>
      <path id="path37" fill="#000000" fill-opacity="0.2" d="M966.85,648.2 C967.25,646.85 967.65,645.5 968.05,644.05 L968.025,644.025 L706.15,382.15 637.525,382.15 344.05,672.05 640.65,968.675 L640.65,968.7 C717.8,947.75 786.5,907.1 847,846.6 893.9,799.7 928.9,747.85 951.95,691.1 Q960.482,670.101 966.85,648.2z"/>
    </g>
  </g>
  <g id="camera">
    <g id="Symbole.__205_1" overflow="visible">
      <g id="Calque.__205">
        <g id="shape59">
          <path id="path52" fill="#2B2D3D" fill-opacity="1" d="M738.953,530.252 Q738.953,443.783 677.815,382.645 C637.071,341.901 587.883,321.55 530.252,321.55 472.621,321.55 423.389,341.901 382.645,382.645 341.901,423.389 321.55,472.621 321.55,530.252 321.55,587.883 341.901,637.071 382.645,677.815 423.389,718.559 472.621,738.953 530.252,738.953 587.883,738.953 637.071,718.559 677.815,677.815 718.559,637.071 738.953,587.883 738.953,530.252z M530.252,463.571 C548.654,463.571 564.328,470.066 577.361,483.099 590.394,496.132 596.932,511.85 596.932,530.252 596.932,548.654 590.394,564.328 577.361,577.361 564.328,590.394 548.654,596.932 530.252,596.932 511.85,596.932 496.132,590.394 483.099,577.361 470.066,564.328 463.571,548.654 463.571,530.252 463.571,511.85 470.066,496.132 483.099,483.099 496.132,470.066 511.85,463.571 530.252,463.571z"/>
          <path id="path53" fill="none" stroke="#FFFFFF" stroke-opacity="1" stroke-width="36.631" stroke-linecap="round" stroke-linejoin="round" d="M738.953,530.252 Q738.953,443.783 677.815,382.645 C637.071,341.901 587.883,321.55 530.252,321.55 472.621,321.55 423.389,341.901 382.645,382.645 341.901,423.389 321.55,472.621 321.55,530.252 321.55,587.883 341.901,637.071 382.645,677.815 423.389,718.559 472.621,738.953 530.252,738.953 587.883,738.953 637.071,718.559 677.815,677.815 718.559,637.071 738.953,587.883 738.953,530.252z"/>
          <path id="path54" fill="#747DCC" fill-opacity="1" d="M530.252,463.571 C511.85,463.571 496.132,470.066 483.099,483.099 470.066,496.132 463.571,511.85 463.571,530.252 463.571,548.654 470.066,564.328 483.099,577.361 496.132,590.394 511.85,596.932 530.252,596.932 548.654,596.932 564.328,590.394 577.361,577.361 590.394,564.328 596.932,548.654 596.932,530.252 596.932,511.85 590.394,496.132 577.361,483.099 564.328,470.066 548.654,463.571 530.252,463.571z M548.481,530.252 C548.481,535.274 546.705,539.561 543.112,543.112 539.561,546.705 535.274,548.481 530.252,548.481 525.229,548.481 520.942,546.705 517.349,543.112 513.798,539.561 512.023,535.274 512.023,530.252 512.023,525.229 513.798,520.942 517.349,517.349 520.942,513.798 525.229,512.023 530.252,512.023 535.274,512.023 539.561,513.798 543.112,517.349 546.705,520.942 548.481,525.229 548.481,530.252z"/>
          <path id="path55" fill="#FFFFFF" fill-opacity="1" d="M548.481,530.252 C548.481,525.229 546.705,520.942 543.112,517.349 539.561,513.798 535.274,512.023 530.252,512.023 525.229,512.023 520.942,513.798 517.349,517.349 513.798,520.942 512.023,525.229 512.023,530.252 512.023,535.274 513.798,539.561 517.349,543.112 520.942,546.705 525.229,548.481 530.252,548.481 535.274,548.481 539.561,546.705 543.112,543.112 546.705,539.561 548.481,535.274 548.481,530.252z"/>
        </g>
      </g>
      <g id="Calque.__206">
        <g id="Symbole.__207_2" overflow="visible">
          <g id="Calque.__207">
            <g id="shape60">
              <path id="path56" fill="#FFFFFF" fill-opacity="0.2" d="M621.09,402.866 L621.134,402.866 C651.27,433.002 666.338,469.374 666.338,512.023 666.338,550.689 653.954,584.16 629.144,612.52 627.109,614.815 625.031,617.11 622.822,619.362 622.26,619.925 621.697,620.531 621.134,621.094 L621.134,621.137 634.34,634.343 C634.903,633.78 635.509,633.174 636.072,632.611 638.237,630.36 640.359,628.065 642.394,625.77 670.841,593.772 685.043,555.842 685.043,512.023 685.043,464.264 668.157,423.477 634.34,389.66 600.61,355.843 559.822,338.957 512.02,338.957 468.201,338.957 430.271,353.159 398.187,381.563 395.892,383.598 393.597,385.72 391.389,387.928 390.783,388.491 390.22,389.054 389.657,389.617 L389.657,389.66 402.863,402.866 C403.426,402.303 404.032,401.697 404.595,401.134 406.847,398.926 409.141,396.848 411.436,394.813 439.84,370.046 473.354,357.662 512.02,357.662 554.626,357.662 590.998,372.73 621.09,402.866z M596.626,427.503 L596.583,427.503 C619.921,450.842 631.612,479.029 631.612,512.067 631.612,541.077 622.606,566.364 604.55,587.927 602.602,590.308 600.523,592.603 598.315,594.854 597.752,595.417 597.189,596.024 596.626,596.63 L609.833,609.836 C610.396,609.23 610.958,608.624 611.521,608.061 613.73,605.809 615.808,603.514 617.8,601.176 639.493,575.976 650.317,546.273 650.317,512.067 650.317,473.92 636.808,441.316 609.833,414.297 582.814,387.279 550.21,373.769 512.063,373.769 477.857,373.769 448.154,384.594 422.91,406.287 420.572,408.279 418.277,410.357 416.026,412.565 415.42,413.128 414.857,413.691 414.294,414.254 L414.294,414.297 427.5,427.503 C428.063,426.941 428.669,426.334 429.232,425.771 431.527,423.563 433.822,421.485 436.16,419.536 457.766,401.481 483.053,392.474 512.063,392.474 545.101,392.474 573.288,404.165 596.626,427.503z M579.653,563.03 C577.791,565.411 575.756,567.793 573.548,570.087 572.985,570.65 572.422,571.256 571.859,571.863 L585.066,585.069 C585.628,584.463 586.191,583.856 586.754,583.294 588.963,580.999 590.998,578.704 592.946,576.322 607.841,558.007 615.288,536.574 615.288,512.023 615.288,483.532 605.2,459.198 585.066,439.064 564.845,418.844 540.511,408.755 512.02,408.755 487.513,408.755 466.08,416.202 447.764,431.141 445.383,433.089 443.045,435.124 440.793,437.332 440.187,437.895 439.581,438.458 439.018,439.021 L452.224,452.227 C452.787,451.664 453.393,451.101 453.999,450.539 456.294,448.33 458.632,446.295 461.057,444.433 475.735,433.132 492.709,427.46 512.02,427.46 535.358,427.46 555.319,435.73 571.859,452.271 588.356,468.767 596.583,488.685 596.583,512.023 596.583,531.378 590.954,548.351 579.653,563.03z"/>
            </g>
          </g>
        </g>
      </g>
    </g>
  </g>
</svg>