<?xml version="1.0" encoding="utf-8"?>
<!-- Generator: flash2svg, http://dissentgraphics.com/tools/flash2svg -->
<svg xmlns:xlink="http://www.w3.org/1999/xlink" id="FinalCutPro" image-rendering="optimizeSpeed" baseProfile="basic" version="1.1" style="background-color:#ffffff" x="0px" y="0px" width="1024px" height="1024px" viewBox="0 0 1024 1024" enable-background="new 0 0 1024 1024" xmlns="http://www.w3.org/2000/svg">
  <defs transform="matrix(1 0 0 1 0 0) "/>
  <g id="shadow">
    <g id="shape">
      <path id="path" fill="#000000" fill-opacity="0.09803921568627451" d="M969.65,351.3 Q961.05,330.45 950.25,310.45 C946.2,302.9 941.9,295.4 937.35,288.05 917.8,256.35 893.95,226.4 865.8,198.25 773.65,106.1 662.35,60 532,60 401.65,60 290.4,106.1 198.25,198.25 106.1,290.4 60,401.65 60,532 60,662.35 106.1,773.65 198.25,865.8 290.4,957.95 401.65,1004 532,1004 662.35,1004 773.65,957.95 865.8,865.8 916.55,815 953.35,758.4 976.15,696.05 994.7,645.2 1004,590.55 1004,532 1004,487.1 998.55,444.45 987.6,404.05 986.35,399.5 985.05,394.95 983.7,390.45 979.6,377.15 974.9,364.1 969.65,351.3z"/>
    </g>
  </g>
  <g id="circle">
    <g id="shape2">
      <path id="path1" fill="#992F32" fill-opacity="1" d="M969.75,392.05 C968.65,387.7 967.4,383.05 966.1,378.45 963.6,369.7 960.75,360.85 957.65,352.1 951.2,333.85 943.5,316.05 934.5,298.45 930.7,291.05 926.55,283.5 922.2,276.05 901.9,241.55 876.4,208.85 845.85,178.3 773.25,105.7 688.7,61.65 592.2,46.25 575.95,43.65 559.4,41.85 542.15,40.9 532.45,40.35 522.3,40.05 512.05,40.05 502.7,40.05 493.45,40.3 484.15,40.8 365.8,46.9 263.85,92.75 178.3,178.3 Q40.05,316.55 40.05,512.05 C40.05,642.4 86.15,753.7 178.3,845.85 258.45,925.95 353.05,971.25 461.65,981.65 469.3,982.4 476.7,982.95 484.15,983.35 484.3,983.35 484.4,983.35 484.55,983.35 493.05,983.8 501.15,984.05 509.05,984.05 510.25,984.05 511.15,984.05 512.05,984.05 522.35,984.05 532.55,983.75 542.15,983.25 544.65,983.1 546.9,982.95 549.1,982.8 569.3,981.35 589,978.75 607.8,975.1 615.75,973.55 623.6,971.8 631.2,969.95 712,949.65 783.35,908.35 845.85,845.85 894.45,797.25 930.25,743.35 953.2,684.05 971.65,636.4 981.85,585.25 983.75,530.55 983.9,526.15 983.95,521.7 984.05,517.05 984.05,515.45 984.05,513.75 984.05,512.05 984.05,511.4 984.05,510.7 984.05,510.05 984.05,509.7 984.05,509.4 984.05,509.05 983.85,468.4 979.1,429.55 969.75,392.05z"/>
    </g>
  </g>
  <g id="ico-shadow">
    <g id="shape4">
      <path id="path2" fill="#000000" fill-opacity="0.2" d="M983.75,530.55 C983.9,526.15 983.95,521.7 984.05,517.05 L984.025,517.025 L658.05,191.05 241.1,451.15 286.6,520.125 319.05,839.05 461.65,981.65 C469.3,982.4 476.7,982.95 484.15,983.35 484.3,983.35 484.4,983.35 484.55,983.35 493.05,983.8 501.15,984.05 509.05,984.05 Q510.544,984.05 512.05,984.05 C522.35,984.05 532.55,983.75 542.15,983.25 544.65,983.1 546.9,982.95 549.1,982.8 569.3,981.35 589,978.75 607.8,975.1 615.75,973.55 623.6,971.8 631.2,969.95 712,949.65 783.35,908.35 845.85,845.85 894.45,797.25 930.25,743.35 953.2,684.05 971.65,636.4 981.85,585.25 983.75,530.55z"/>
    </g>
  </g>
  <g id="ico">
    <g id="Symbole.__203_1" overflow="visible">
      <g id="Calque.__205">
        <g id="shape32">
          <path id="path29" fill="#000000" fill-opacity="0.2" d="M623.9,548.4 C620.1,539.9 610.5,534.85 600.9,537 L479.8,563.9 C468.8,566.35 461.85,577.25 464.3,588.25 L469.85,613.15 400.15,591.65 420.7,684.1 476.95,645.2 480.25,660.05 C482.65,671.1 493.6,678.05 504.6,675.6 L625.7,648.7 Q633.95,646.85 638.5,639.75 643.05,632.6 641.2,624.3 L626.75,559.15 646.55,561.8 640.85,536.15 623.9,548.4z"/>
        </g>
        <g id="group4">
          <g id="drawingObject24">
            <path id="path30" fill="#757777" fill-opacity="1" d="M654.101,185.7 C651.701,182.45 647.601,181 643.801,181.9 L654.101,185.7 L643.801,181.9 C647.601,181 651.701,182.45 654.101,185.7z"/>
          </g>
          <g id="drawingObject25">
            <path id="path31" fill="#1D1D1B" fill-opacity="1" d="M236.901,487 C238.651,487 240.351,486.55 241.901,485.65 L318.651,441.35 242.301,413 210.551,431.35 C205.751,434.1 204.101,440.2 206.901,445 L228.251,482 C229.551,484.3 231.751,485.95 234.301,486.65 235.151,486.85 236.001,487 236.901,487z"/>
          </g>
          <g id="drawingObject26">
            <path id="path32" fill="#1D1D1B" fill-opacity="1" d="M530.851,246.55 L607.251,274.85 662.701,242.85 586.301,214.55 530.851,246.55z"/>
          </g>
          <g id="drawingObject27">
            <path id="path33" fill="#1D1D1B" fill-opacity="1" d="M434.301,374.65 L357.901,346.3 299.251,380.15 375.601,408.5 434.301,374.65z"/>
          </g>
          <g id="drawingObject28">
            <path id="path34" fill="#1D1D1B" fill-opacity="1" d="M550.301,307.7 L473.901,279.4 414.851,313.45 491.251,341.8 550.301,307.7z"/>
          </g>
          <g id="drawingObject29">
            <path id="path35" fill="#757777" fill-opacity="1" d="M299.251,380.15 L242.301,413 318.651,441.35 375.601,408.5 299.251,380.15z"/>
          </g>
          <g id="drawingObject30">
            <path id="path36" fill="#757777" fill-opacity="1" d="M643.801,181.9 C642.851,182.1 641.951,182.45 641.051,182.95 L586.301,214.55 662.701,242.85 672.401,237.3 C674.701,235.95 676.351,233.8 677.051,231.2 677.751,228.65 677.351,225.95 676.051,223.65 L654.101,185.7 643.801,181.9z"/>
          </g>
          <g id="drawingObject31">
            <path id="path37" fill="#757777" fill-opacity="1" d="M473.901,279.4 L550.301,307.7 607.251,274.85 530.851,246.55 473.901,279.4z"/>
          </g>
          <g id="drawingObject32">
            <path id="path38" fill="#757777" fill-opacity="1" d="M357.901,346.3 L434.301,374.65 491.251,341.8 414.851,313.45 357.901,346.3z"/>
          </g>
        </g>
        <g id="group5">
          <g id="drawingObject33">
            <path id="path39" fill="#1D1D1B" fill-opacity="1" d="M558.801,398.2 L497.351,413.15 478.301,464.85 539.751,449.85 558.801,398.2z"/>
          </g>
          <g id="drawingObject34">
            <path id="path40" fill="#1D1D1B" fill-opacity="1" d="M661.401,420.2 L679.951,368.65 618.101,383.75 599.051,435.45 661.401,420.2z"/>
          </g>
          <g id="drawingObject35">
            <path id="path41" fill="#1D1D1B" fill-opacity="1" d="M419.051,479.3 L438.101,427.6 380.351,441.7 361.301,493.35 419.051,479.3z"/>
          </g>
          <g id="drawingObject36">
            <path id="path42" fill="#757777" fill-opacity="1" d="M438.101,427.6 L419.051,479.3 478.301,464.85 497.351,413.15 438.101,427.6z"/>
          </g>
          <g id="drawingObject37">
            <path id="path43" fill="#757777" fill-opacity="1" d="M618.101,383.75 L558.801,398.2 539.751,449.85 599.051,435.45 618.101,383.75z"/>
          </g>
          <g id="drawingObject38">
            <path id="path44" fill="#FFFFFF" fill-opacity="1" d="M752.8,691.8 L685.15,414.3 298.85,508.45 366.5,785.95 752.8,691.8z"/>
          </g>
        </g>
        <g id="group6">
          <g id="drawingObject39">
            <path id="path45" fill="#757777" fill-opacity="1" d="M380.351,441.7 L317.451,457 299.101,508.55 361.301,493.35 380.351,441.7z"/>
          </g>
        </g>
        <g id="group7">
          <g id="drawingObject40">
            <path id="path46" fill="#757777" fill-opacity="1" d="M685.251,414.4 L685.301,414.55 720.301,406.05 734.801,365.7 734.801,365.6 Q733.801,361.6 730.301,359.4 C728.001,358.05 725.301,357.6 722.701,358.25 L679.951,368.65 661.401,420.2 685.251,414.4z"/>
          </g>
          <g id="drawingObject41">
            <path id="path47" fill="#1D1D1B" fill-opacity="1" d="M731.801,413.55 L735.851,402.3 720.301,406.05 716.251,417.35 731.801,413.55z"/>
          </g>
          <g id="drawingObject42">
            <path id="path48" fill="#1D1D1B" fill-opacity="1" d="M734.801,365.7 L720.301,406.05 685.301,414.55 752.901,691.9 366.601,786.05 299.051,508.9 298.951,508.95 299.001,508.8 298.951,508.55 299.101,508.55 317.451,457 239.851,475.95 C237.301,476.55 235.051,478.2 233.701,480.45 232.301,482.7 231.901,485.45 232.501,488 L317.051,834.85 C317.701,837.45 319.301,839.65 321.551,841.05 323.151,842 324.951,842.5 326.751,842.5 327.551,842.5 328.351,842.4 329.151,842.2 L812.001,724.5 C817.351,723.2 820.651,717.8 819.351,712.45 L734.801,365.7z"/>
          </g>
        </g>
        <g id="drawingObject43">
          <path id="path49" fill="#797A7A" fill-opacity="1" d="M261.951,474.65 C261.951,468.4 256.901,463.3 250.601,463.3 244.351,463.3 239.301,468.4 239.301,474.65 239.301,480.9 244.351,486 250.601,486 Q255.301,486 258.651,482.65 261.951,479.35 261.951,474.65z"/>
        </g>
        <g id="FlashAICB.__2Fimovie.__2F.__26.__23060Path.__26.__23062_3_2" overflow="visible">
          <g id="Calque.__206">
            <g id="drawingObject44">
              <path id="path50" fill="#1D1D1B" fill-opacity="0.3" d="M731.7,414.45 L731.7,402.95 283,512.3 291.65,519.3 731.7,414.45z"/>
            </g>
            <g id="drawingObject45">
              <path id="path51" fill="#1D1D1B" fill-opacity="0.3" d="M731.7,414.45 L731.7,402.95 283,512.3 291.65,519.3 731.7,414.45z"/>
            </g>
          </g>
        </g>
      </g>
      <g id="Calque.__207">
        <g id="shape33">
          <path id="path52" fill="#757777" fill-opacity="1" d="M609.85,532.5 C605.25,527.85 598.1,525.45 590.95,527.05 L469.85,553.95 C458.85,556.4 451.9,567.3 454.35,578.3 L458.075,595.075 392.325,574.825 L392.35,574.85 C390.7,574.3 389.05,574.4 387.45,575.05 385.8,575.7 384.6,576.85 383.8,578.4 383,579.95 382.8,581.6 383.2,583.3 L383.175,583.275 L403.725,675.725 L403.75,675.75 C404.1,677.3 404.9,678.6 406.15,679.65 407.4,680.7 408.8,681.3 410.4,681.35 412,681.4 413.5,681 414.85,680.1 L414.85,680.075 L468.675,642.8 470.3,650.1 C472.7,661.15 483.65,668.1 494.65,665.65 L615.75,638.75 Q624,636.9 628.55,629.8 633.1,622.65 631.25,614.35 L618.45,556.7 635.675,559 L635.7,559 C637.25,559.2 638.7,558.9 640.1,558.15 641.5,557.35 642.55,556.25 643.2,554.8 643.85,553.35 644,551.85 643.65,550.3 L643.625,550.3 L637.925,524.65 L637.95,524.65 C637.6,523.05 636.75,521.75 635.5,520.7 634.25,519.65 632.8,519.05 631.15,519 629.5,518.95 628.05,519.4 626.7,520.35 L609.825,532.5"/>
        </g>
      </g>
    </g>
  </g>
</svg>