<?xml version="1.0" encoding="utf-8"?>
<!-- Generator: flash2svg, http://dissentgraphics.com/tools/flash2svg -->
<svg xmlns:xlink="http://www.w3.org/1999/xlink" id="Flamingo" image-rendering="optimizeSpeed" baseProfile="basic" version="1.1" style="background-color:#ffffff" x="0px" y="0px" width="1024px" height="1024px" viewBox="0 0 1024 1024" enable-background="new 0 0 1024 1024" xmlns="http://www.w3.org/2000/svg">
  <defs transform="matrix(1 0 0 1 0 0) "/>
  <g id="bgshadow">
    <g id="shape">
      <path id="path" fill="#000000" fill-opacity="0.09803921568627451" d="M969.65,351.3 Q961.05,330.45 950.25,310.45 C946.2,302.9 941.9,295.4 937.35,288.05 917.8,256.35 893.95,226.4 865.8,198.25 773.65,106.1 662.35,60 532,60 401.65,60 290.4,106.1 198.25,198.25 106.1,290.4 60,401.65 60,532 60,662.35 106.1,773.65 198.25,865.8 290.4,957.95 401.65,1004 532,1004 662.35,1004 773.65,957.95 865.8,865.8 916.55,815 953.35,758.4 976.15,696.05 994.7,645.2 1004,590.55 1004,532 1004,487.1 998.55,444.45 987.6,404.05 986.35,399.5 985.05,394.95 983.7,390.45 979.6,377.15 974.9,364.1 969.65,351.3z"/>
    </g>
  </g>
  <g id="bgcircle">
    <g id="shape2">
      <path id="path1" fill="#EEEEEE" fill-opacity="1" d="M966.1,378.45 C963.6,369.7 960.75,360.85 957.65,352.1 951.2,333.85 943.5,316.05 934.5,298.45 930.7,291.05 926.55,283.5 922.2,276.05 901.9,241.55 876.4,208.85 845.85,178.3 773.25,105.7 688.7,61.65 592.2,46.25 575.95,43.65 559.4,41.85 542.15,40.9 532.45,40.35 522.3,40.05 512.05,40.05 502.7,40.05 493.45,40.3 484.15,40.8 365.8,46.9 263.85,92.75 178.3,178.3 Q40.05,316.55 40.05,512.05 C40.05,642.4 86.15,753.7 178.3,845.85 263.85,931.35 365.8,977.2 484.15,983.35 484.3,983.35 484.4,983.35 484.55,983.35 493.05,983.8 501.15,984.05 509.05,984.05 510.25,984.05 511.15,984.05 512.05,984.05 513.95,984.05 515.85,984.05 517.5,984.05 526.05,983.95 534.3,983.65 542.15,983.25 544.65,983.1 546.9,982.95 549.1,982.8 569.3,981.35 589,978.75 607.8,975.1 615.75,973.55 623.6,971.8 631.2,969.95 712,949.65 783.35,908.35 845.85,845.85 894.45,797.25 930.25,743.35 953.2,684.05 969.8,641.15 979.75,595.4 982.95,546.6 983.3,541.4 983.55,536 983.75,530.55 983.95,524.5 984.05,518.3 984.05,512.05 984.05,511.4 984.05,510.7 984.05,510.05 984.05,509.7 984.05,509.4 984.05,509.05 983.85,468.4 979.1,429.55 969.75,392.05 968.65,387.7 967.4,383.05 966.1,378.45z"/>
    </g>
  </g>
  <g id="shadow">
    <g id="shape4">
      <path id="path2" fill="#000000" fill-opacity="0.2" d="M980.95,569.4 L800.6,389.05 260.05,669.8 383,792.75 385.05,835.05 533.65,983.65 Q537.9,983.5 542.15,983.25 C544.65,983.1 546.9,982.95 549.1,982.8 569.3,981.35 589,978.75 607.8,975.1 615.75,973.55 623.6,971.8 631.2,969.95 712,949.65 783.35,908.35 845.85,845.85 894.45,797.25 930.25,743.35 953.2,684.05 967.2,647.85 976.5,609.65 980.95,569.4z"/>
    </g>
  </g>
  <g id="bubble">
    <g id="shape6">
      <path id="path3" fill="#FF0050" fill-opacity="1" d="M845.8,482.7 C844.6,475.35 842.95,468 840.85,460.7 839.9,457.45 838.85,454.2 837.55,450.7 823.35,411.05 794,375.2 749.65,343.75 684.05,297.3 604.85,274.05 512.05,274.05 442.75,274.05 381.05,287 326.95,312.95 308.55,321.7 291.05,332 274.45,343.75 230.3,375 201,410.65 186.55,450.7 185.35,454 184.25,457.35 183.3,460.7 181.1,468.05 179.4,475.55 178.35,482.7 L178.325,482.7 L845.775,482.7"/>
      <path id="path4" fill="#FF3A58" fill-opacity="1" d="M838.05,572.05 C844.7,553.15 848.05,533.1 848.05,512.05 848.05,502.1 847.3,492.35 845.8,482.7 L845.775,482.7 L178.325,482.7 L178.35,482.7 C176.75,492.6 176.05,502.2 176.05,512.05 176.05,533.15 179.45,553.3 186.1,572.05 195.3,598.1 210.65,622.2 231.75,644.05 L792.35,644.05 C813.65,622 828.9,597.95 838.05,572.05z"/>
      <path id="path5" fill="#FF5059" fill-opacity="1" d="M749.65,680.35 C765.85,668.9 780.05,656.85 792.35,644.05 L231.75,644.05 C244.25,656.95 258.35,668.95 274.45,680.35 306.55,703.05 341.85,720.25 380,731.75 383.1,757 383.7,787.85 381.85,824.2 381.65,827.85 382.55,831.25 384.6,834.35 386.6,837.5 389.3,839.75 392.75,841.1 396.2,842.45 399.75,842.65 403.3,841.75 406.85,840.8 409.85,838.95 412.25,836.15 L485.05,749.4 C494.05,749.85 503,750.05 512.05,750.05 589.35,750.05 657.25,733.95 715.7,701.7 Q733.25,692 749.65,680.35z"/>
    </g>
  </g>
</svg>