<?xml version="1.0" encoding="utf-8"?>
<!-- Generator: flash2svg, http://dissentgraphics.com/tools/flash2svg -->
<svg xmlns:xlink="http://www.w3.org/1999/xlink" id="Flowdock" image-rendering="optimizeSpeed" baseProfile="basic" version="1.1" style="background-color:#ffffff" x="0px" y="0px" width="1024px" height="1024px" viewBox="0 0 1024 1024" enable-background="new 0 0 1024 1024" xmlns="http://www.w3.org/2000/svg">
  <defs transform="matrix(1 0 0 1 0 0) "/>
  <g id="shadow">
    <g id="shape">
      <path id="path" fill="#000000" fill-opacity="0.09803921568627451" d="M969.65,351.3 Q961.05,330.45 950.25,310.45 C946.2,302.9 941.9,295.4 937.35,288.05 917.8,256.35 893.95,226.4 865.8,198.25 773.65,106.1 662.35,60 532,60 401.65,60 290.4,106.1 198.25,198.25 106.1,290.4 60,401.65 60,532 60,662.35 106.1,773.65 198.25,865.8 290.4,957.95 401.65,1004 532,1004 662.35,1004 773.65,957.95 865.8,865.8 916.55,815 953.35,758.4 976.15,696.05 994.7,645.2 1004,590.55 1004,532 1004,487.1 998.55,444.45 987.6,404.05 986.35,399.5 985.05,394.95 983.7,390.45 979.6,377.15 974.9,364.1 969.65,351.3z"/>
    </g>
  </g>
  <g id="bg">
    <g id="shape2">
      <path id="path1" fill="#DB5C93" fill-opacity="1" d="M929.85,289.65 C927.5,285.3 924.9,280.65 922.2,276.05 901.9,241.55 876.4,208.85 845.85,178.3 773.25,105.7 688.7,61.65 592.2,46.25 575.95,43.65 559.4,41.85 542.15,40.9 532.45,40.35 522.3,40.05 512.05,40.05 502.7,40.05 493.45,40.3 484.15,40.8 365.8,46.9 263.85,92.75 178.3,178.3 157.8,198.8 139.55,220.25 123.6,242.7 108.25,264.25 95.05,286.7 84,309.9 L83.975,309.875 Q40.05,401.873 40.05,512.05 C40.05,642.4 86.15,753.7 178.3,845.85 235,902.5 298.85,941.75 369.4,963.4 384.6,968.05 400,971.9 415.3,974.95 437.9,979.35 460.7,982.1 484.15,983.35 484.3,983.35 484.4,983.35 484.55,983.35 493.05,983.8 501.15,984.05 509.05,984.05 510.25,984.05 511.15,984.05 512.05,984.05 522.35,984.05 532.55,983.75 542.15,983.25 544.65,983.1 546.9,982.95 549.1,982.8 569.3,981.35 589,978.75 607.8,975.1 615.75,973.55 623.6,971.8 631.2,969.95 712,949.65 783.35,908.35 845.85,845.85 894.45,797.25 930.25,743.35 953.2,684.05 971.65,636.4 981.85,585.25 983.75,530.55 983.95,524.5 984.05,518.3 984.05,512.05 984.05,511.4 984.05,510.7 984.05,510.05 984.05,509.7 984.05,509.4 984.05,509.05 983.9,475.4 980.6,443 974.1,411.15 972.8,405 971.35,398.5 969.75,392.05 968.65,387.7 967.4,383.05 966.1,378.45 965.1,375.05 964.1,371.6 962.95,367.95 961.35,362.8 959.55,357.45 957.65,352.1 952.6,337.85 946.8,323.85 940.2,309.95 938.35,306.15 936.45,302.3 934.5,298.45 933.05,295.6 931.55,292.75 929.85,289.65z"/>
    </g>
  </g>
  <g id="bg1">
    <g id="shape4">
      <path id="path2" fill="#FFFFFF" fill-opacity="1" d="M653.1,324.05 L651.6,379.05 642.825,701.05 635.525,968.85 L635.55,968.85 C714.5,948.15 784.45,907.25 845.85,845.85 894.45,797.25 930.25,743.35 953.2,684.05 971.65,636.4 981.85,585.25 983.75,530.55 983.95,524.5 984.05,518.3 984.05,512.05 984.05,511.4 984.05,510.7 984.05,510.05 984.05,509.7 984.05,509.4 984.05,509.05 983.9,475.4 980.6,443 974.1,411.15 972.8,405 971.35,398.5 969.75,392.05 968.65,387.7 967.4,383.05 966.1,378.45 965.1,375.05 964.1,371.6 962.95,367.95 961.35,362.8 959.55,357.45 957.65,352.1 952.6,337.85 946.8,323.85 940.2,309.95 938.35,306.15 936.45,302.3 934.5,298.45 933.05,295.6 931.55,292.75 929.85,289.65 927.5,285.3 924.9,280.65 922.2,276.05 915.8,265.15 908.85,254.4 901.25,243.7 L901.225,243.675 L655.05,252.05 653.1,324.05z"/>
      <path id="path3" fill="#FCE275" fill-opacity="1" d="M651.6,379.05 L653.1,324.05 C421.9,364.1 240.2,344.75 108.05,266 99.1,280.3 91.1,294.95 84,309.9 L83.975,309.875 Q40.05,401.873 40.05,512.05 C40.05,538.6 41.95,564.35 45.75,588.95 173.05,466.65 375,396.7 651.6,379.05z"/>
      <path id="path4" fill="#E2733E" fill-opacity="1" d="M653.1,324.05 L655.05,252.05 901.225,243.675 L901.25,243.7 C885.25,221.05 866.75,199.2 845.85,178.3 773.25,105.7 688.7,61.65 592.2,46.25 575.95,43.65 559.4,41.85 542.15,40.9 532.45,40.35 522.3,40.05 512.05,40.05 502.7,40.05 493.45,40.3 484.15,40.8 365.8,46.9 263.85,92.75 178.3,178.3 157.8,198.8 139.55,220.25 123.6,242.7 118.15,250.35 112.95,258.15 108.05,266 240.2,344.75 421.9,364.1 653.1,324.05z"/>
      <path id="path5" fill="#65C5EA" fill-opacity="1" d="M45.75,588.95 C52.5,633.2 65.25,674.9 83.75,713.8 276.65,781.6 463,777.35 642.85,701.05 L642.825,701.05 L651.6,379.05 C375,396.7 173.05,466.65 45.75,588.95z"/>
      <path id="path6" fill="#4F86C3" fill-opacity="1" d="M642.85,701.05 C463,777.35 276.65,781.6 83.75,713.8 106.6,761.7 138.05,805.6 178.3,845.85 235,902.5 298.85,941.75 369.4,963.4 384.6,968.05 400,971.9 415.3,974.95 437.9,979.35 460.7,982.1 484.15,983.35 484.3,983.35 484.4,983.35 484.55,983.35 493.05,983.8 501.15,984.05 509.05,984.05 510.25,984.05 511.15,984.05 512.05,984.05 522.35,984.05 532.55,983.75 542.15,983.25 544.65,983.1 546.9,982.95 549.1,982.8 569.3,981.35 589,978.75 607.8,975.1 615.75,973.55 623.6,971.8 631.2,969.95 632.6,969.6 634,969.25 635.55,968.85 L635.525,968.85 L642.825,701.05"/>
    </g>
  </g>
  <mask id="bg2">
    <g id="g">
      <g id="shape15">
        <path id="path9" fill="#FFFFFF" fill-opacity="1" d="M929.85,289.65 C927.5,285.3 924.9,280.65 922.2,276.05 901.9,241.55 876.4,208.85 845.85,178.3 773.25,105.7 688.7,61.65 592.2,46.25 575.95,43.65 559.4,41.85 542.15,40.9 532.45,40.35 522.3,40.05 512.05,40.05 502.7,40.05 493.45,40.3 484.15,40.8 365.8,46.9 263.85,92.75 178.3,178.3 157.8,198.8 139.55,220.25 123.6,242.7 108.25,264.25 95.05,286.7 84,309.9 L83.975,309.875 Q40.05,401.873 40.05,512.05 C40.05,642.4 86.15,753.7 178.3,845.85 235,902.5 298.85,941.75 369.4,963.4 384.6,968.05 400,971.9 415.3,974.95 437.9,979.35 460.7,982.1 484.15,983.35 484.3,983.35 484.4,983.35 484.55,983.35 493.05,983.8 501.15,984.05 509.05,984.05 510.25,984.05 511.15,984.05 512.05,984.05 522.35,984.05 532.55,983.75 542.15,983.25 544.65,983.1 546.9,982.95 549.1,982.8 569.3,981.35 589,978.75 607.8,975.1 615.75,973.55 623.6,971.8 631.2,969.95 712,949.65 783.35,908.35 845.85,845.85 894.45,797.25 930.25,743.35 953.2,684.05 971.65,636.4 981.85,585.25 983.75,530.55 983.95,524.5 984.05,518.3 984.05,512.05 984.05,511.4 984.05,510.7 984.05,510.05 984.05,509.7 984.05,509.4 984.05,509.05 983.9,475.4 980.6,443 974.1,411.15 972.8,405 971.35,398.5 969.75,392.05 968.65,387.7 967.4,383.05 966.1,378.45 965.1,375.05 964.1,371.6 962.95,367.95 961.35,362.8 959.55,357.45 957.65,352.1 952.6,337.85 946.8,323.85 940.2,309.95 938.35,306.15 936.45,302.3 934.5,298.45 933.05,295.6 931.55,292.75 929.85,289.65z"/>
      </g>
    </g>
  </mask>
  <g id="masked" mask="url(#bg2)">
    <g id="F">
      <g id="shape11">
        <path id="path7" fill="#FFFFFF" fill-opacity="1" d="M1029.825,161.95 L1029.8,161.95 C1027.6,161.9 944.05,161.8 779.2,161.7 765.45,161.4 751.2,161.15 736.55,160.9 L731.9,160.9 C683.6,161 641.45,174.8 605.5,202.3 L605.525,202.3 L605.55,202.3 C586.5,216.75 572.1,235.9 562.4,259.7 L562.4,259.675 L562.325,259.875 L562.35,259.9 C562.3,259.9 562.3,259.9 562.3,259.95 553.05,282.45 548.4,309.35 548.4,340.6 L548.4,1037.5 C548.4,1043.05 550.35,1047.75 554.25,1051.65 558.15,1055.55 562.85,1057.5 568.4,1057.5 L729.05,1057.5 C734.6,1057.5 739.3,1055.55 743.2,1051.65 747.1,1047.75 749.05,1043.05 749.05,1037.5 L749.05,638.15 1029.35,636.45 C1034.85,636.4 1039.55,634.4 1043.4,630.55 1047.25,626.6 1049.2,621.9 1049.2,616.45 L1049.2,468.9 C1049.2,463.45 1047.25,458.75 1043.4,454.85 L1043.4,454.825 L1043.4,454.85 C1039.55,450.95 1034.85,448.95 1029.4,448.9 L1029.375,448.9 L749.05,446.95 749.05,385.5 C749.05,373.95 750.4,364.65 753.05,357.55 757.15,353 765.85,350.65 779.2,350.55 L779.275,350.55 L779.3,350.55 C779.6,350.55 779.9,350.55 780.2,350.55 L1029.2,350.55 C1034.75,350.55 1039.45,348.6 1043.35,344.7 1047.25,340.8 1049.2,336.1 1049.2,330.55 L1049.2,181.95 C1049.2,176.55 1047.3,171.9 1043.55,168.05 L1043.55,168.025 L1043.55,168.05 C1039.8,164.15 1035.2,162.1 1029.85,161.95"/>
      </g>
    </g>
    <g id="F1">
      <g id="shape13">
        <path id="path8" fill="#333333" fill-opacity="1" d="M1029.2,330.55 L1029.2,181.95 C1025.9,181.85 782.55,181.75 779.2,181.7 765.3,181.4 750.95,181.15 736.2,180.9 L731.9,180.9 C688.25,180.9 650.15,193.35 617.65,218.2 601.4,230.65 589.1,247.05 580.85,267.45 572.55,287.85 568.4,312.25 568.4,340.6 L568.4,1037.5 729.05,1037.5 729.05,618.3 1029.2,616.45 1029.2,468.9 729.05,466.8 729.05,385.5 C729.05,369.9 731.1,357.5 735.25,348.25 740.9,336.6 755.55,330.7 779.2,330.55 779.55,330.55 779.85,330.55 780.2,330.55 L1029.2,330.55z"/>
      </g>
    </g>
  </g>
</svg>