<?xml version="1.0" encoding="utf-8"?>
<!-- Generator: flash2svg, http://dissentgraphics.com/tools/flash2svg -->
<svg id="Font-Book" image-rendering="optimizeSpeed" baseProfile="basic" version="1.1" style="background-color:#FFFFFF" x="0px" y="0px" width="1024px" height="1024px" viewBox="0 0 1024 1024" enable-background="new 0 0 1024 1024" xmlns="http://www.w3.org/2000/svg" xmlns:xlink="http://www.w3.org/1999/xlink">
  <defs transform="matrix(1 0 0 1 0 0) "/>
  <g id="shadow">
    <g id="shape">
      <path id="path" fill="#000000" fill-opacity="0.09803921568627451" d="M969.6,351.25 Q961,330.4 950.2,310.4 C946.15,302.85 941.85,295.35 937.3,288 917.75,256.3 893.9,226.35 865.75,198.2 773.6,106.05 662.3,59.95 531.95,59.95 401.6,59.95 290.35,106.05 198.2,198.2 106.05,290.35 59.95,401.6 59.95,531.95 59.95,662.3 106.05,773.6 198.2,865.75 290.35,957.9 401.6,1003.95 531.95,1003.95 662.3,1003.95 773.6,957.9 865.75,865.75 916.5,814.95 953.3,758.35 976.1,696 994.65,645.15 1003.95,590.5 1003.95,531.95 1003.95,487.05 998.5,444.4 987.55,404 986.3,399.45 985,394.9 983.65,390.4 979.55,377.1 974.85,364.05 969.6,351.25z"/>
    </g>
  </g>
  <g id="circle">
    <g id="shape2">
      <path id="path1" fill="#63786F" fill-opacity="1" d="M982.9,511.35 Q982.9,471.483 977.15,434 C962.2,336.5 918.05,251.1 844.75,177.8 752.65,85.7 641.5,39.65 511.25,39.65 381,39.65 269.8,85.7 177.7,177.8 85.6,269.9 39.55,381.1 39.55,511.35 39.55,641.6 85.6,752.75 177.7,844.85 251.05,918.2 336.55,962.35 434.2,977.3 459.1,981.1 484.8,983 511.25,983 641.5,983 752.65,936.95 844.75,844.85 936.85,752.75 982.9,641.6 982.9,511.35z"/>
    </g>
  </g>
  <g id="book-shadow">
    <g id="shape4">
      <path id="path2" fill="#000000" fill-opacity="0.2" d="M982.9,511.35 Q982.9,471.483 977.15,434 L755.15,212 256.9,800 434.2,977.3 C459.1,981.1 484.8,983 511.25,983 641.5,983 752.65,936.95 844.75,844.85 936.85,752.75 982.9,641.6 982.9,511.35z"/>
    </g>
  </g>
  <g id="book">
    <g id="Symbole.__203_1" overflow="visible">
      <g id="Calque.__202">
        <g id="shape14">
          <path id="path8" fill="#27302C" fill-opacity="1" d="M636.3,368.65 L761.2,493.15 761.2,233.65 Q761.2,202 729.55,202 L351.25,202 351.25,738.65 637.85,738.65 510.95,613 533.95,420.95 636.3,368.65z"/>
          <path id="path9" fill="#1F2723" fill-opacity="1" d="M761.2,493.15 L636.3,368.65 533.95,420.95 510.95,613 637.85,738.65 732.85,738.65 732.85,738.75 733.9,738.75 C741.35,738.55 747.75,735.8 753,730.55 758.25,725.3 761,718.9 761.2,711.45 L761.2,493.15z"/>
          <path id="path10" fill="#121715" fill-opacity="1" d="M283.1,202 C262,202 251.45,212.55 251.45,233.65 L251.45,779.2 C251.45,800.3 262,810.85 283.1,810.85 L729.55,810.85 C750.2,810.85 760.75,800.75 761.2,780.5 L701.3,780.5 701.3,780.3 302.1,780.3 C296.35,780.3 291.45,778.25 287.35,774.15 283.3,770.15 281.3,765.3 281.3,759.55 L281.3,759.45 C281.3,753.7 283.3,748.8 287.35,744.7 291.45,740.65 296.35,738.65 302.1,738.65 L351.25,738.65 351.25,202 283.1,202z"/>
          <path id="path11" fill="#B7E2D1" fill-opacity="1" d="M281.3,759.55 C281.3,765.3 283.3,770.15 287.35,774.15 291.45,778.25 296.35,780.3 302.1,780.3 L701.3,780.3 732.85,780.3 732.85,738.75 732.85,738.65 637.85,738.65 351.25,738.65 302.1,738.65 C296.35,738.65 291.45,740.65 287.35,744.7 283.3,748.8 281.3,753.7 281.3,759.45 L281.3,759.55z"/>
        </g>
      </g>
    </g>
  </g>
  <g id="T">
    <g id="shape6">
      <path id="path3" fill="#8CADA0" fill-opacity="1" d="M636.7,368.65 L451.8,368.65 451.8,422.45 511.35,422.45 511.35,612.6 577.3,612.6 577.3,422.45 636.7,422.45 636.7,368.65z"/>
    </g>
  </g>
</svg>