<?xml version="1.0" encoding="utf-8"?>
<!-- Generator: flash2svg, http://dissentgraphics.com/tools/flash2svg -->
<svg id="Geektool" image-rendering="optimizeSpeed" baseProfile="basic" version="1.1" style="background-color:#FFFFFF" x="0px" y="0px" width="1024px" height="1024px" viewBox="0 0 1024 1024" enable-background="new 0 0 1024 1024" xmlns="http://www.w3.org/2000/svg" xmlns:xlink="http://www.w3.org/1999/xlink">
  <defs transform="matrix(1 0 0 1 0 0) "/>
  <g id="shadow">
    <g id="shape">
      <path id="path" fill="#000000" fill-opacity="0.09803921568627451" d="M969.6,351.25 Q961,330.4 950.2,310.4 C946.15,302.85 941.85,295.35 937.3,288 917.75,256.3 893.9,226.35 865.75,198.2 773.6,106.05 662.3,59.95 531.95,59.95 401.6,59.95 290.35,106.05 198.2,198.2 106.05,290.35 59.95,401.6 59.95,531.95 59.95,662.3 106.05,773.6 198.2,865.75 290.35,957.9 401.6,1003.95 531.95,1003.95 662.3,1003.95 773.6,957.9 865.75,865.75 916.5,814.95 953.3,758.35 976.1,696 994.65,645.15 1003.95,590.5 1003.95,531.95 1003.95,487.05 998.5,444.4 987.55,404 986.3,399.45 985,394.9 983.65,390.4 979.55,377.1 974.85,364.05 969.6,351.25z"/>
    </g>
  </g>
  <g id="circle">
    <g id="shape2">
      <path id="path1" fill="#69798F" fill-opacity="1" d="M969.7,392 C968.6,387.65 967.35,383 966.05,378.4 963.8,370.55 961.3,362.6 958.5,354.6 958.2,353.85 957.9,352.95 957.6,352.05 951.15,333.8 943.45,316 934.45,298.4 930.65,291 926.5,283.45 922.15,276 901.85,241.5 876.35,208.8 845.8,178.25 773.2,105.65 688.65,61.6 592.15,46.2 575.9,43.6 559.35,41.8 542.1,40.85 532.4,40.3 522.25,40 512,40 502.65,40 493.4,40.25 484.1,40.75 365.75,46.85 263.8,92.7 178.25,178.25 Q40,316.5 40,512 C40,642.35 86.1,753.65 178.25,845.8 231.35,898.85 290.75,936.65 356.15,959.05 396.65,972.9 439.2,980.95 484.1,983.3 484.25,983.3 484.35,983.3 484.5,983.3 493,983.75 501.1,984 509,984 510.2,984 511.1,984 512,984 522.3,984 532.5,983.7 542.1,983.2 544.6,983.05 546.85,982.9 549.05,982.75 569.25,981.3 588.95,978.7 607.75,975.05 615.7,973.5 623.55,971.75 631.15,969.9 711.95,949.6 783.3,908.3 845.8,845.8 894.4,797.2 930.2,743.3 953.15,684 971.6,636.35 981.8,585.2 983.7,530.5 983.9,524.45 984,518.25 984,512 984,511.35 984,510.65 984,510 984,509.65 984,509.35 984,509 983.8,468.35 979.05,429.5 969.7,392z"/>
    </g>
  </g>
  <g id="circle1">
    <g id="shape4">
      <path id="path2" fill="#000000" fill-opacity="0.2" d="M969.7,392 C968.6,387.65 967.35,383 966.05,378.4 963.8,370.55 961.3,362.6 958.5,354.6 L846,242.1 169.1,772 356.15,959.05 C396.65,972.9 439.2,980.95 484.1,983.3 484.25,983.3 484.35,983.3 484.5,983.3 493,983.75 501.1,984 509,984 Q510.5,984 512,984 C522.3,984 532.5,983.7 542.1,983.2 544.6,983.05 546.85,982.9 549.05,982.75 569.25,981.3 588.95,978.7 607.75,975.05 615.7,973.5 623.55,971.75 631.15,969.9 711.95,949.6 783.3,908.3 845.8,845.8 894.4,797.2 930.2,743.3 953.15,684 971.6,636.35 981.8,585.2 983.7,530.5 983.9,524.45 984,518.25 984,512 984,511.35 984,510.65 984,510 984,509.65 984,509.35 984,509 983.8,468.35 979.05,429.5 969.7,392z"/>
    </g>
  </g>
  <g id="computer">
    <g id="Symbole.__2017_1" overflow="visible">
      <g id="Calque.__221">
        <g id="Symbole.__2019_2" overflow="visible">
          <g id="Calque.__222">
            <g id="shape44">
              <path id="path35" fill="#242A31" fill-opacity="1" d="M604,766 C604,757.75 601.05,750.65 595.2,744.8 589.35,738.95 582.25,736 574,736 L460,736 C451.75,736 444.65,738.95 438.8,744.8 Q430,753.6 430,766 L413.8,812.2 620.2,812.2 604,766z"/>
              <path id="path36" fill="#2E3640" fill-opacity="1" d="M635.2,901.2 C641.05,895.35 644,888.25 644,880 L620.2,812.2 413.8,812.2 390,880 C390,888.25 392.95,895.35 398.8,901.2 404.65,907.05 411.75,910 420,910 L614,910 C622.25,910 629.35,907.05 635.2,901.2z"/>
            </g>
          </g>
        </g>
        <g id="Symbole.__2021_2" overflow="visible">
          <g id="Calque.__223">
            <g id="shape45">
              <path id="path37" fill="#313D4A" fill-opacity="1" d="M821.75,251.55 Q830.45,251.55 836.65,257.75 C840.75,261.85 842.8,266.8 842.8,272.6 L842.8,666.45 860.7,684.35 860.7,272.6 C860.7,261.85 856.9,252.7 849.3,245.1 841.65,237.45 832.5,233.65 821.75,233.65 L410,233.65 427.9,251.55 821.75,251.55z"/>
              <path id="path38" fill="#282B3A" fill-opacity="1" d="M836.65,257.75 Q830.45,251.55 821.75,251.55 L427.9,251.55 842.8,666.45 842.8,272.6 C842.8,266.8 840.75,261.85 836.65,257.75z"/>
              <path id="path39" fill="#2C3641" fill-opacity="1" d="M860.7,684.35 L842.8,666.45 842.8,751.4 C842.8,757.2 840.75,762.15 836.65,766.3 832.5,770.4 827.55,772.45 821.75,772.45 L202.25,772.45 C196.45,772.45 191.5,770.4 187.4,766.3 183.25,762.15 181.2,757.2 181.2,751.4 L181.2,272.6 C181.2,266.8 183.25,261.85 187.4,257.75 191.5,253.6 196.45,251.55 202.25,251.55 L427.9,251.55 410,233.65 202.25,233.65 C191.5,233.65 182.35,237.45 174.75,245.1 167.1,252.7 163.3,261.85 163.3,272.6 L163.3,751.4 C163.3,762.15 167.1,771.3 174.75,778.95 182.35,786.55 191.5,790.35 202.25,790.35 L821.75,790.35 C832.5,790.35 841.65,786.55 849.3,778.95 856.9,771.3 860.7,762.15 860.7,751.4 L860.7,684.35z"/>
              <path id="path40" fill="#101118" fill-opacity="1" d="M836.65,766.3 C840.75,762.15 842.8,757.2 842.8,751.4 L842.8,666.45 427.9,251.55 202.25,251.55 C196.45,251.55 191.5,253.6 187.4,257.75 183.25,261.85 181.2,266.8 181.2,272.6 L181.2,751.4 C181.2,757.2 183.25,762.15 187.4,766.3 191.5,770.4 196.45,772.45 202.25,772.45 L821.75,772.45 C827.55,772.45 832.5,770.4 836.65,766.3z"/>
            </g>
          </g>
        </g>
        <g id="Symbole.__2023_2" overflow="visible">
          <g id="Calque.__224">
            <g id="shape46">
              <path id="path41" fill="#EEEEEE" fill-opacity="1" d="M794.75,302 Q794.75,292 784.75,292 L239.25,292 C232.6,292 229.25,295.35 229.25,302 L229.25,323 794.75,323 794.75,302z"/>
              <path id="path42" fill="#FFFFFF" fill-opacity="0.09803921568627451" d="M229.25,722 C229.25,728.65 232.6,732 239.25,732 L784.75,732 C791.4,732 794.75,728.65 794.75,722 L794.75,323 229.25,323 229.25,722z"/>
            </g>
          </g>
        </g>
        <g id="Symbole.__2025_2" overflow="visible">
          <g id="Calque.__225">
            <g id="shape47">
              <path id="path43" fill="#2E3640" fill-opacity="1" d="M248.45,297.95 Q244.65,297.95 241.95,300.65 C240.15,302.45 239.25,304.6 239.25,307.15 239.25,309.7 240.15,311.85 241.95,313.65 243.75,315.45 245.9,316.35 248.45,316.35 251,316.35 253.15,315.45 254.95,313.65 256.75,311.85 257.65,309.7 257.65,307.15 257.65,304.6 256.75,302.45 254.95,300.65 253.15,298.85 251,297.95 248.45,297.95z"/>
            </g>
          </g>
        </g>
        <g id="Symbole.__2027_2" overflow="visible">
          <g id="Calque.__226">
            <g id="shape48">
              <path id="path44" fill="#009999" fill-opacity="1" d="M507.75,268.8 C506.6,269.95 506,271.4 506,273.05 506,274.7 506.6,276.15 507.75,277.3 508.9,278.45 510.35,279.05 512,279.05 513.65,279.05 515.1,278.45 516.25,277.3 517.4,276.15 518,274.7 518,273.05 Q518,270.55 516.25,268.8 C515.1,267.65 513.65,267.05 512,267.05 510.35,267.05 508.9,267.65 507.75,268.8z"/>
            </g>
          </g>
        </g>
      </g>
    </g>
  </g>
  <g id="glasses">
    <g id="xSymbole.__2014_1" overflow="visible">
      <g id="Calque.__227">
        <g id="xSymbole.__2016_2" overflow="visible">
          <g id="Calque.__228">
            <g id="shape49">
              <path id="path45" fill="#C4CEC6" fill-opacity="1" d="M534,474.6 C542.25,474.6 549.35,477.55 555.2,483.4 561.05,489.25 564,496.35 564,504.6 L564,597.6 C564,606.95 567.35,615 574,621.65 580.65,628.3 588.7,631.65 598.05,631.65 L840.8,631.65 C850.15,631.65 858.2,628.3 864.85,621.65 871.5,615 874.85,606.95 874.85,597.6 L874.85,445.6 Q874.85,431.55 864.85,421.55 C858.2,414.9 850.15,411.55 840.8,411.55 L199.35,411.55 C190,411.55 181.95,414.9 175.3,421.55 168.65,428.2 165.35,436.25 165.35,445.6 L165.35,597.6 C165.35,606.95 168.65,615 175.3,621.65 181.95,628.3 190,631.65 199.35,631.65 L442.1,631.65 C451.5,631.65 459.5,628.3 466.15,621.65 472.8,615 475.85,606.95 475.85,597.6 L475.85,504.6 C475.85,496.35 478.3,489.25 484.15,483.4 490,477.55 497.1,474.6 505.35,474.6 L534,474.6z"/>
            </g>
          </g>
        </g>
        <g id="xSymbole.__2018_2" overflow="visible">
          <g id="Calque.__229">
            <g id="shape50">
              <path id="path46" fill="#E1EEE2" fill-opacity="1" d="M534,440.6 C542.25,440.6 549.35,443.55 555.2,449.4 561.05,455.25 564,462.35 564,470.6 L564,563.6 C564,572.95 567.35,581 574,587.65 580.65,594.3 588.7,597.65 598.05,597.65 L840.8,597.65 C850.15,597.65 858.2,594.3 864.85,587.65 871.5,581 874.85,572.95 874.85,563.6 L874.85,411.6 Q874.85,397.55 864.85,387.55 C858.2,380.9 850.15,377.55 840.8,377.55 L199.35,377.55 C190,377.55 181.95,380.9 175.3,387.55 168.65,394.2 165.35,402.25 165.35,411.6 L165.35,563.6 C165.35,572.95 168.65,581 175.3,587.65 181.95,594.3 190,597.65 199.35,597.65 L442.1,597.65 C451.5,597.65 459.5,594.3 466.15,587.65 472.8,581 475.85,572.95 475.85,563.6 L475.85,470.6 C475.85,462.35 478.3,455.25 484.15,449.4 490,443.55 497.1,440.6 505.35,440.6 L534,440.6z"/>
            </g>
          </g>
        </g>
        <g id="xSymbole.__2020_2" overflow="visible">
          <g id="Calque.__230">
            <g id="shape51">
              <path id="path47" fill="#E2593C" fill-opacity="1" d="M622.35,421.55 C618.35,421.55 616.35,423.55 616.35,427.55 L616.35,549.6 C616.35,553.6 618.35,555.6 622.35,555.6 L820.35,555.6 C824.35,555.6 826.35,553.6 826.35,549.6 L826.35,427.55 C826.35,423.55 824.35,421.55 820.35,421.55 L622.35,421.55z"/>
              <path id="path48" fill="#4EBCED" fill-opacity="1" d="M221.35,421.55 Q215.35,421.55 215.35,427.55 L215.35,549.6 C215.35,553.6 217.35,555.6 221.35,555.6 L419.35,555.6 C423.35,555.6 425.35,553.6 425.35,549.6 L425.35,427.55 C425.35,423.55 423.35,421.55 419.35,421.55 L221.35,421.55z"/>
            </g>
          </g>
        </g>
        <g id="xSymbole.__2022_2" overflow="visible">
          <g id="Calque.__231">
            <g id="shape52">
              <path id="path49" fill="#000000" fill-opacity="0.2" d="M622.35,421.55 C618.35,421.55 616.35,423.55 616.35,427.55 L616.35,441.7 826.35,441.7 826.35,427.55 C826.35,423.55 824.35,421.55 820.35,421.55 L622.35,421.55z M221.35,421.55 Q215.35,421.55 215.35,427.55 L215.35,441.7 425.35,441.7 425.35,427.55 C425.35,423.55 423.35,421.55 419.35,421.55 L221.35,421.55z"/>
            </g>
          </g>
        </g>
      </g>
    </g>
  </g>
</svg>