<?xml version="1.0" encoding="utf-8"?>
<!-- Generator: flash2svg, http://dissentgraphics.com/tools/flash2svg -->
<svg xmlns:xlink="http://www.w3.org/1999/xlink" id="Gimp" image-rendering="optimizeSpeed" baseProfile="basic" version="1.1" style="background-color:#ffffff" x="0px" y="0px" width="1024px" height="1024px" viewBox="0 0 1024 1024" enable-background="new 0 0 1024 1024" xmlns="http://www.w3.org/2000/svg">
  <defs transform="matrix(1 0 0 1 0 0) "/>
  <g id="shadow">
    <g id="shape">
      <path id="path" fill="#000000" fill-opacity="0.09803921568627451" d="M969.65,351.3 Q961.05,330.45 950.25,310.45 C946.2,302.9 941.9,295.4 937.35,288.05 917.8,256.35 893.95,226.4 865.8,198.25 773.65,106.1 662.35,60 532,60 401.65,60 290.4,106.1 198.25,198.25 106.1,290.4 60,401.65 60,532 60,662.35 106.1,773.65 198.25,865.8 290.4,957.95 401.65,1004 532,1004 662.35,1004 773.65,957.95 865.8,865.8 916.55,815 953.35,758.4 976.15,696.05 994.7,645.2 1004,590.55 1004,532 1004,487.1 998.55,444.45 987.6,404.05 986.35,399.5 985.05,394.95 983.7,390.45 979.6,377.15 974.9,364.1 969.65,351.3z"/>
    </g>
  </g>
  <g id="ico-shadow">
    <g id="shape2">
      <path id="path1" fill="#4A3224" fill-opacity="1" d="M727.2,91.75 C718.5,87.4 709.35,83.1 699.95,79.05 691.35,75.3 682.8,71.85 674.05,68.65 631.95,52.9 589.8,43.3 547.6,40 478.2,34.4 408.65,45.4 338.7,73 315.25,82.3 293.05,92.9 272.1,104.9 230.8,128.6 194.5,157.55 163.6,191.6 Q112,248.2 79.05,324.15 C58.8,370.8 46.2,417.6 41.2,463.8 40.75,468.25 40.35,472.4 40,476.55 36.3,522.15 39.8,567.3 50.25,612.55 55.95,637.1 63.5,661.3 73,685.4 100.7,755.35 140.25,813.8 191.55,860.5 223,889.15 258.75,913.35 298.85,933.3 299,933.35 299.1,933.4 299.2,933.45 302.3,935 305.3,936.45 307.85,937.6 312.75,939.95 317.1,941.95 321.45,943.85 322.55,944.3 323.35,944.7 324.2,945.05 333.65,949.15 343.1,952.9 352.1,956.25 354.45,957.1 356.6,957.9 358.7,958.65 377.75,965.35 396.9,970.8 415.6,974.95 423.5,976.65 431.4,978.2 439.1,979.5 440.05,979.7 441.05,979.8 441.8,979.95 453.45,981.8 465,983.2 476.55,984.15 546.35,989.6 615.75,978.6 685.4,951.1 709.75,941.5 732.7,930.45 754.2,917.95 789.3,897.6 820.65,873.45 848.3,845.45 852.45,841.25 856.5,836.95 860.55,832.55 868.95,823.3 877.05,813.6 884.8,803.45 904.85,777.3 922.35,748.35 937.4,716.75 940,711.25 942.55,705.65 945.05,699.9 945.3,699.3 945.6,698.65 945.85,698.05 946,697.75 946.1,697.45 946.25,697.15 949.05,690.55 951.7,683.9 954.35,677.15 966,646.5 974.5,615.5 979.7,584.1 980.4,579.7 981.1,574.95 981.8,570.2 982.7,562.85 983.55,555.35 984.15,547.6 984.25,546.15 984.4,544.45 984.55,542.65 985.85,523.35 985.85,503.95 984.65,484.25 984.2,477.85 983.65,471.35 982.95,464.65 982.75,462.8 982.5,460.8 982.25,458.8 980.25,442.4 977.3,425.95 973.3,409.1 967.85,385.95 960.45,362.35 951.1,338.7 923.55,268.95 884.1,210.65 832.5,163.6 813.75,146.5 793.15,130.8 770.95,116.65 757.1,107.75 742.65,99.55 727.2,91.75z"/>
    </g>
  </g>
  <g id="ico">
    <g id="shape4">
      <path id="path2" fill="#000000" fill-opacity="0.2" d="M957.9,356.9 L761.05,160.05 417.05,867.05 534.95,984.95 C585.35,982.1 635.3,970.9 685.4,951.1 709.75,941.5 732.7,930.45 754.2,917.95 789.3,897.6 820.65,873.45 848.3,845.45 852.45,841.25 856.5,836.95 860.55,832.55 868.95,823.3 877.05,813.6 884.8,803.45 904.85,777.3 922.35,748.35 937.4,716.75 940,711.25 942.55,705.65 945.05,699.9 945.3,699.3 945.6,698.65 945.85,698.05 946,697.75 946.1,697.45 946.25,697.15 949.05,690.55 951.7,683.9 954.35,677.15 966,646.5 974.5,615.5 979.7,584.1 980.4,579.7 981.1,574.95 981.8,570.2 982.7,562.85 983.55,555.35 984.15,547.6 984.25,546.15 984.4,544.45 984.55,542.65 985.85,523.35 985.85,503.95 984.65,484.25 984.2,477.85 983.65,471.35 982.95,464.65 982.75,462.8 982.5,460.8 982.25,458.8 980.25,442.4 977.3,425.95 973.3,409.1 Q967.145,383.032 957.9,356.9z"/>
    </g>
  </g>
  <g id="Calque.__203">
    <g id="shape6">
      <path id="path3" fill="#CC6699" fill-opacity="1" d="M602.9,757.5 Q582.2,757.45 567.55,772.1 L566.15,773.5 C556.4,783.25 551.5,795.05 551.5,808.9 551.55,822.7 556.4,834.45 566.15,844.2 L609.75,887.8 C619.5,897.55 631.3,902.45 645.1,902.45 658.9,902.45 670.7,897.55 680.45,887.8 L681.85,886.4 C691.6,876.65 696.5,864.85 696.5,851.05 696.5,837.25 691.6,825.45 681.85,815.7 L638.25,772.1 C628.5,762.35 616.75,757.5 602.9,757.5z"/>
    </g>
  </g>
  <g id="ico-shadow1">
    <g id="Symbole.__2017_1" overflow="visible">
      <g id="Calque.__220">
        <g id="shape38">
          <path id="path28" fill="#866342" fill-opacity="1" d="M786.55,226.7 C777,171.6 755.35,140.35 721.6,132.95 688.65,122.45 654.25,138.65 618.4,181.6 L618.35,181.6 C598.5,205.3 581.65,233.65 567.95,266.3 550.45,262.25 532.15,260.1 513.1,259.85 L513.1,259.825 L513.1,259.8 C512.85,259.8 512.55,259.8 512.3,259.8 L512.025,259.8 L512.05,259.8 C511.65,259.8 511.25,259.8 510.9,259.8 L510.9,259.825 L510.9,259.85 C492,260 473.75,262.2 456.05,266.3 442.35,233.65 425.5,205.3 405.65,181.6 L405.6,181.6 C369.75,138.65 335.35,122.45 302.4,132.95 268.65,140.35 247,171.6 237.45,226.7 228.9,274.75 232.75,329.05 249,389.55 256.65,418.25 266.05,444.35 277.05,467.6 275.75,481.05 275.45,494.7 275.95,508.8 277.55,553.6 333.05,745.15 378.85,821.25 413.15,878.2 444.45,893.45 510.9,894.2 L510.9,894.175 L510.9,894.2 C511.3,894.2 511.7,894.2 512.1,894.2 512.45,894.2 512.75,894.2 513.1,894.2 529.75,894 543.9,892.85 555.65,890.7 568.85,888.35 580.45,884.5 590.5,879.15 600.75,873.7 610.25,866.3 619.1,856.85 627.65,847.7 636.35,835.85 645.15,821.25 690.95,745.15 746.45,553.6 748.05,508.8 748.55,494.7 748.25,481.05 746.95,467.6 757.95,444.35 767.35,418.25 775,389.55 791.25,329.05 795.1,274.75 786.55,226.7z M751,232.85 C758.45,276.35 754.8,325.45 740.15,380.2 737.85,388.85 735.35,397.25 732.75,405.15 722.65,378.85 707.2,354.75 685.15,332.7 660.3,307.85 632.8,289.35 602.65,277.25 614.65,249.4 629.15,225.2 646.1,204.75 L646.1,204.7 C669.9,176.2 691.95,163.9 712.25,167.8 731.75,174.6 744.65,196.3 751,232.85z M377.9,204.75 C394.85,225.2 409.35,249.4 421.35,277.25 391.2,289.35 363.7,307.85 338.85,332.7 316.8,354.75 301.35,378.85 291.25,405.15 288.65,397.25 286.15,388.85 283.85,380.2 269.2,325.45 265.55,276.35 273,232.85 279.35,196.3 292.25,174.6 311.75,167.8 332.05,163.9 354.1,176.2 377.9,204.7 L377.9,204.75z"/>
          <path id="path29" fill="#CC9966" fill-opacity="1" d="M751,232.85 C744.65,196.3 731.75,174.6 712.25,167.8 691.95,163.9 669.9,176.2 646.1,204.7 L646.1,204.75 C629.15,225.2 614.65,249.4 602.65,277.25 632.8,289.35 660.3,307.85 685.15,332.7 707.2,354.75 722.65,378.85 732.75,405.15 735.35,397.25 737.85,388.85 740.15,380.2 754.8,325.45 758.45,276.35 751,232.85z"/>
          <path id="path30" fill="#CC9966" fill-opacity="1" d="M377.9,204.75 L377.9,204.7 C354.1,176.2 332.05,163.9 311.75,167.8 292.25,174.6 279.35,196.3 273,232.85 265.55,276.35 269.2,325.45 283.85,380.2 286.15,388.85 288.65,397.25 291.25,405.15 301.35,378.85 316.8,354.75 338.85,332.7 363.7,307.85 391.2,289.35 421.35,277.25 409.35,249.4 394.85,225.2 377.9,204.75z"/>
        </g>
      </g>
    </g>
  </g>
  <g id="Calque.__204">
    <g id="Symbole.__2019_1" overflow="visible">
      <g id="Calque.__221">
        <g id="Symbole.__2021_3" overflow="visible">
          <g id="Calque.__222">
            <g id="shape39">
              <path id="path31" fill="#000000" fill-opacity="0.2" d="M472.673,469.737 Q448.768,445.832 414.953,445.832 C392.429,445.832 373.149,453.82 357.172,469.737 341.255,485.714 333.267,504.994 333.267,527.518 333.267,550.041 341.255,569.322 357.172,585.238 373.149,601.215 392.429,609.204 414.953,609.204 437.476,609.204 456.756,601.215 472.673,585.238 488.65,569.322 496.638,550.041 496.638,527.518 496.638,504.994 488.65,485.714 472.673,469.737z"/>
            </g>
          </g>
          <g id="Calque.__223">
            <g id="shape40">
              <path id="path32" fill="#FFFFFF" fill-opacity="1" d="M470.271,452.919 Q446.366,429.014 412.55,429.014 C390.026,429.014 370.746,437.002 354.769,452.919 338.852,468.896 330.864,488.176 330.864,510.7 330.864,533.224 338.852,552.504 354.769,568.421 370.746,584.398 390.026,592.386 412.55,592.386 435.074,592.386 454.354,584.398 470.271,568.421 486.248,552.504 494.236,533.224 494.236,510.7 494.236,488.176 486.248,468.896 470.271,452.919z"/>
            </g>
            <g id="Symbole.__2024_6" overflow="visible">
              <g id="Calque.__224">
                <g id="shape41">
                  <path id="path33" fill="#000000" fill-opacity="1" d="M445.952,460.802 Q437.609,454.705 426.731,454.705 C421.025,454.705 415.8,455.967 411.115,458.549 403.007,460.772 395.739,465.096 389.312,471.523 379.402,481.494 374.416,493.506 374.416,507.561 374.416,521.616 379.402,533.628 389.312,543.539 399.283,553.509 411.295,558.495 425.35,558.495 439.405,558.495 451.417,553.509 461.328,543.539 471.298,533.628 476.284,521.616 476.284,507.561 476.284,493.506 471.298,481.494 461.328,471.523 456.643,466.838 451.538,463.294 445.952,460.832"/>
                </g>
              </g>
            </g>
          </g>
        </g>
        <g id="Symbole.__2021_4" overflow="visible">
          <g id="Calque.__225">
            <g id="shape42">
              <path id="path34" fill="#000000" fill-opacity="0.2" d="M551.477,469.737 Q575.382,445.832 609.197,445.832 C631.721,445.832 651.001,453.82 666.978,469.737 682.895,485.714 690.883,504.994 690.883,527.518 690.883,550.041 682.895,569.322 666.978,585.238 651.001,601.215 631.721,609.204 609.197,609.204 586.674,609.204 567.394,601.215 551.477,585.238 535.5,569.322 527.512,550.041 527.512,527.518 527.512,504.994 535.5,485.714 551.477,469.737z"/>
            </g>
          </g>
          <g id="Calque.__226">
            <g id="shape43">
              <path id="path35" fill="#FFFFFF" fill-opacity="1" d="M553.879,452.919 Q577.784,429.014 611.6,429.014 C634.124,429.014 653.404,437.002 669.381,452.919 685.298,468.896 693.286,488.176 693.286,510.7 693.286,533.224 685.298,552.504 669.381,568.421 653.404,584.398 634.124,592.386 611.6,592.386 589.076,592.386 569.796,584.398 553.879,568.421 537.902,552.504 529.914,533.224 529.914,510.7 529.914,488.176 537.902,468.896 553.879,452.919z"/>
            </g>
            <g id="Symbole.__2024_7" overflow="visible">
              <g id="Calque.__227">
                <g id="shape44">
                  <path id="path36" fill="#000000" fill-opacity="1" d="M578.198,460.802 Q586.541,454.705 597.419,454.705 C603.125,454.705 608.35,455.967 613.035,458.549 621.143,460.772 628.411,465.096 634.838,471.523 644.748,481.494 649.734,493.506 649.734,507.561 649.734,521.616 644.748,533.628 634.838,543.539 624.867,553.509 612.855,558.495 598.8,558.495 584.745,558.495 572.733,553.509 562.822,543.539 552.852,533.628 547.866,521.616 547.866,507.561 547.866,493.506 552.852,481.494 562.822,471.523 567.507,466.838 572.612,463.294 578.198,460.832"/>
                </g>
              </g>
            </g>
          </g>
        </g>
      </g>
    </g>
  </g>
  <g id="Calque.__205">
    <g id="shape8">
      <path id="path4" fill="#866342" fill-opacity="1" d="M694.05,494.05 L694.05,406.05 330.05,406.05 330.05,494.05 694.05,494.05z"/>
    </g>
  </g>
  <g id="circle">
    <g id="shape10">
      <path id="path5" fill="#000000" fill-opacity="0.2" d="M687.55,432.05 Q687.55,422.75 680.95,416.15 C676.55,411.75 671.25,409.55 665.05,409.55 L565.05,409.55 C558.85,409.55 553.55,411.75 549.15,416.15 544.75,420.55 542.55,425.85 542.55,432.05 542.55,438.25 544.75,443.55 549.15,447.95 553.55,452.35 558.85,454.55 565.05,454.55 L665.05,454.55 C671.25,454.55 676.55,452.35 680.95,447.95 685.35,443.55 687.55,438.25 687.55,432.05z M465.95,424.15 C461.55,419.75 456.25,417.55 450.05,417.55 L350.05,417.55 C343.85,417.55 338.55,419.75 334.15,424.15 329.75,428.55 327.55,433.85 327.55,440.05 327.55,446.25 329.75,451.55 334.15,455.95 338.55,460.35 343.85,462.55 350.05,462.55 L450.05,462.55 C456.25,462.55 461.55,460.35 465.95,455.95 470.35,451.55 472.55,446.25 472.55,440.05 472.55,433.85 470.35,428.55 465.95,424.15z"/>
      <path id="path8" fill="#000000" fill-opacity="1" d="M462.75,749.4 C456.3,755.9 453.05,763.7 453.05,772.85 453.05,782 456.3,789.8 462.75,796.25 469.3,802.8 477.1,806.05 486.25,806.05 L537.85,806.05 C547,806.05 554.8,802.8 561.25,796.25 567.8,789.8 571.05,782 571.05,772.85 571.05,763.7 567.8,755.9 561.25,749.4 554.8,742.9 547,739.65 537.85,739.65 L486.25,739.65 C477.1,739.65 469.3,742.9 462.75,749.4z"/>
    </g>
  </g>
</svg>