<?xml version="1.0" encoding="utf-8"?>
<!-- Generator: flash2svg, http://dissentgraphics.com/tools/flash2svg -->
<svg xmlns:xlink="http://www.w3.org/1999/xlink" id="Google-App-Launcher" image-rendering="optimizeSpeed" baseProfile="basic" version="1.1" style="background-color:#ffffff" x="0px" y="0px" width="1024px" height="1024px" viewBox="0 0 1024 1024" enable-background="new 0 0 1024 1024" xmlns="http://www.w3.org/2000/svg">
  <defs transform="matrix(1 0 0 1 0 0) "/>
  <g id="shadow">
    <g id="shape">
      <path id="path" fill="#000000" fill-opacity="0.09803921568627451" d="M969.65,351.3 Q961.05,330.45 950.25,310.45 C946.2,302.9 941.9,295.4 937.35,288.05 917.8,256.35 893.95,226.4 865.8,198.25 773.65,106.1 662.35,60 532,60 401.65,60 290.4,106.1 198.25,198.25 106.1,290.4 60,401.65 60,532 60,662.35 106.1,773.65 198.25,865.8 290.4,957.95 401.65,1004 532,1004 662.35,1004 773.65,957.95 865.8,865.8 916.55,815 953.35,758.4 976.15,696.05 994.7,645.2 1004,590.55 1004,532 1004,487.1 998.55,444.45 987.6,404.05 986.35,399.5 985.05,394.95 983.7,390.45 979.6,377.15 974.9,364.1 969.65,351.3z"/>
    </g>
  </g>
  <g id="circle">
    <g id="shape2">
      <path id="path1" fill="#E85479" fill-opacity="1" d="M982.1,517 Q982.1,514.55 982.1,512.05 C982.1,381.7 936.05,270.45 843.9,178.3 752,86.45 641.05,40.35 511.1,40.1 L511.1,515.05 513.1,515.05 513.1,517 982.1,517z"/>
      <path id="path2" fill="#00C0E6" fill-opacity="1" d="M511.1,40.1 C510.75,40.1 510.45,40.1 510.1,40.1 379.75,40.1 268.5,86.15 176.35,178.3 84.2,270.45 38.15,381.7 38.15,512.05 38.15,513.05 38.15,514.05 38.15,515.05 L511.1,515.05 511.1,40.1z"/>
      <path id="path3" fill="#EBC240" fill-opacity="1" d="M513.1,517 L513.1,515.05 511.1,515.05 38.15,515.05 C38.85,644.15 84.9,754.4 176.35,845.85 268.5,938 379.75,984.05 510.1,984.05 510.45,984.05 510.75,984.05 511.1,984.05 511.75,984.05 512.45,984.05 513.1,984.05 L513.1,517z"/>
      <path id="path4" fill="#55DA97" fill-opacity="1" d="M513.1,517 L513.1,984.05 C642.2,983.3 752.45,937.25 843.9,845.85 934.85,754.85 980.95,645.25 982.1,517 L513.1,517z"/>
    </g>
  </g>
  <g id="inner-circle">
    <g id="shape8">
      <path id="path5" fill="#FFFFFF" fill-opacity="1" d="M862.45,528.85 Q862.8,520.524 862.8,512.05 C862.8,415.2 828.55,332.5 760.1,264.05 691.6,195.6 608.9,161.35 512.05,161.35 415.2,161.35 332.5,195.6 264.05,264.05 195.6,332.5 161.35,415.2 161.35,512.05 161.35,608.9 195.6,691.6 264.05,760.1 332.5,828.55 415.2,862.8 512.05,862.8 543.45,862.8 573.35,859.2 601.8,852 661,837 713.8,806.35 760.1,760.1 824.5,695.65 858.65,618.65 862.45,528.85z"/>
    </g>
  </g>
  <g id="ico-shadow">
    <g id="shape10">
      <path id="path6" fill="#000000" fill-opacity="0.09803921568627451" d="M760.1,760.1 Q854.817,665.337 862.175,534.375 L685.1,357.3 629.05,391.775 465.175,387.2 393.05,398.35 393.05,601.05 348.55,669.05 541.225,861.725 L541.25,861.75 C562.3,860.15 582.4,856.9 601.8,852 661,837 713.8,806.35 760.1,760.1z"/>
    </g>
  </g>
  <g id="Google-Chrome">
    <g id="shape12">
      <path id="path7" fill="#96A6A6" fill-opacity="1" d="M692.45,387.05 C692.45,353.95 665.65,327.05 632.5,327.05 599.4,327.05 572.55,353.95 572.55,387.05 572.55,416.25 593.4,440.5 620.75,446 592.35,450.75 570.7,475.4 570.7,505.15 570.7,538.35 597.5,565.15 630.65,565.15 663.75,565.15 690.6,538.35 690.6,505.15 690.6,476.15 669.9,451.9 642.4,446.3 670.8,441.5 692.45,416.85 692.45,387.05z M629.45,685.05 C662.6,685.05 689.4,658.25 689.4,625.1 689.4,592 662.6,565.15 629.45,565.15 596.35,565.15 569.5,592 569.5,625.1 569.5,658.25 596.35,685.05 629.45,685.05z M392.65,327.35 C359.55,327.35 332.65,354.25 332.65,387.35 332.65,403.95 338.55,418.05 350.25,429.75 361.75,441.25 375.6,447.1 391.85,447.3 375.6,447.5 361.75,453.35 350.25,464.85 338.55,476.55 332.65,490.7 332.65,507.25 332.65,540.4 359.55,567.25 392.65,567.25 421.95,567.25 446.35,546.25 451.7,518.35 457.1,546.3 481.45,567.25 510.7,567.25 Q535.55,567.25 553.1,549.65 570.7,532.15 570.7,507.25 C570.7,478.25 550,454 522.45,448.35 550.9,443.6 572.55,418.95 572.55,389.15 572.55,356.05 545.75,329.15 512.55,329.15 479.45,329.15 452.6,356.05 452.6,389.15 452.6,418.35 473.45,442.6 500.8,448.1 475.95,452.25 456.25,471.7 451.7,496.25 449.6,484.35 444.1,473.9 435.05,464.85 423.6,453.35 409.65,447.5 393.4,447.3 409.65,447.1 423.6,441.25 435.05,429.75 446.75,418.05 452.6,403.95 452.6,387.35 452.6,354.25 425.8,327.35 392.65,327.35z M569.5,627.2 C569.5,594.1 542.65,567.25 509.5,567.25 480.2,567.25 455.7,588.35 450.5,616 445.15,588.2 420.8,567.25 391.5,567.25 358.4,567.25 331.55,594.1 331.55,627.2 331.55,660.35 358.4,687.15 391.5,687.15 420.75,687.15 445.1,666.25 450.5,638.4 456,666.35 480.35,687.15 509.5,687.15 542.65,687.15 569.5,660.35 569.5,627.2z"/>
    </g>
  </g>
</svg>