<?xml version="1.0" encoding="utf-8"?>
<!-- Generator: flash2svg, http://dissentgraphics.com/tools/flash2svg -->
<svg xmlns:xlink="http://www.w3.org/1999/xlink" id="Books" image-rendering="optimizeSpeed" baseProfile="basic" version="1.1" style="background-color:#ffffff" x="0px" y="0px" width="1024px" height="1024px" viewBox="0 0 1024 1024" enable-background="new 0 0 1024 1024" xmlns="http://www.w3.org/2000/svg">
  <defs transform="matrix(1 0 0 1 0 0) "/>
  <g id="shadow">
    <g id="shape">
      <path id="path" fill="#000000" fill-opacity="0.09803921568627451" d="M965.65,347.3 Q957.05,326.45 946.25,306.45 C942.2,298.9 937.9,291.4 933.35,284.05 913.8,252.35 889.95,222.4 861.8,194.25 769.65,102.1 658.35,56 528,56 397.65,56 286.4,102.1 194.25,194.25 102.1,286.4 56,397.65 56,528 56,658.35 102.1,769.65 194.25,861.8 286.4,953.95 397.65,1000 528,1000 658.35,1000 769.65,953.95 861.8,861.8 912.55,811 949.35,754.4 972.15,692.05 990.7,641.2 1000,586.55 1000,528 1000,483.1 994.55,440.45 983.6,400.05 982.35,395.5 981.05,390.95 979.7,386.45 975.6,373.15 970.9,360.1 965.65,347.3z"/>
    </g>
  </g>
  <g id="circle">
    <g id="shape2">
      <path id="path1" fill="#FFFFFF" fill-opacity="1" d="M968.45,382.15 C967,376.95 965.45,371.75 963.7,366.15 950.7,324.75 931.35,285.35 905.7,248.1 889,223.85 869.35,200.4 847,178.05 754.7,85.75 643.25,39.6 512.7,39.6 382.15,39.6 270.75,85.75 178.45,178.05 156.15,200.35 136.55,223.75 119.8,248.1 94.25,285.05 74.9,324.45 61.75,366.15 60,371.55 58.45,376.85 57,382.15 51.45,402.35 47.25,423.05 44.45,444.2 41.5,466.4 40,489.05 40,512.3 40,542.1 42.4,570.85 47.15,598.2 50.1,615.5 53.95,632.05 58.65,648.2 59.45,650.95 60.3,653.7 61.05,656.25 73.95,697.6 92.55,736.25 116.85,772.25 134.55,798.45 155,823.15 178.45,846.6 260.6,928.8 357.95,974.4 470.4,983.35 484.25,984.5 498.35,985.05 512.7,985.05 643.25,985.05 754.7,938.9 847,846.6 870.55,823.05 891.1,798.25 908.65,772.25 926,746.4 940.45,719.35 951.95,691.1 956.55,679.75 960.65,668.2 964.45,656.25 965.2,653.7 966.05,650.95 966.85,648.2 971.55,632.05 975.35,615.5 978.35,598.2 983.05,570.85 985.45,542.1 985.45,512.3 Q985.45,477.335 981.025,444.2 L981.05,444.2 C978.25,423.2 974.05,402.45 968.45,382.15z"/>
    </g>
  </g>
  <g id="film">
    <g id="shape4">
      <path id="path2" fill="#FF9900" fill-opacity="1" d="M901.55,374.05 C884.85,325.9 858.35,281.3 822.2,240.6 816.3,233.95 809.95,227.25 803.4,220.7 722.95,140.25 625.85,100.05 512.05,100.05 398.25,100.05 301.15,140.25 220.7,220.7 140.25,301.15 100.05,398.25 100.05,512.05 100.05,625.85 140.25,722.95 220.7,803.4 301.15,883.85 398.25,924.05 512.05,924.05 556.95,924.05 599.25,917.8 638.5,905.4 699.9,886.05 754.7,852.1 803.4,803.4 832.4,774.4 856.15,743.25 874.7,709.9 Q924.05,621.2 924.05,512.05 C924.05,500.15 923.6,488.4 922.75,476.75 921.75,464.45 920.3,452.3 918.35,440.3 914.65,417.55 909.1,395.6 901.55,374.05z"/>
    </g>
  </g>
  <g id="film1">
    <g id="shape6">
      <path id="path3" fill="#000000" fill-opacity="0.2" d="M901.55,374.05 C899.15,367.1 896.55,360.2 893.55,353.1 L893.525,353.075 L827.5,287.05 752.1,311.3 625.05,184.25 208.725,737.225 372.575,901.05 L372.6,901.05 C416.2,916.45 462.55,924.05 512.05,924.05 556.95,924.05 599.25,917.8 638.5,905.4 699.9,886.05 754.7,852.1 803.4,803.4 832.4,774.4 856.15,743.25 874.7,709.9 Q924.05,621.2 924.05,512.05 C924.05,500.15 923.6,488.4 922.75,476.75 921.75,464.45 920.3,452.3 918.35,440.3 914.65,417.55 909.1,395.6 901.55,374.05z"/>
    </g>
  </g>
  <g id="camera-shadow">
    <g id="shape8">
      <path id="path4" fill="#543718" fill-opacity="1" d="M828.65,294.75 Q828.65,277.6 811.55,277.6 L217.65,277.6 C206.25,277.6 200.55,283.3 200.55,294.75 L200.55,720.95 C200.55,732.35 206.25,738.05 217.65,738.05 L448.7,738.05 448.7,745.75 C448.7,757.15 454.35,762.85 465.8,762.85 L563.35,762.85 C574.8,762.85 580.5,757.15 580.5,745.75 L580.5,738.05 811.55,738.05 C822.95,738.05 828.65,732.35 828.65,720.95 L828.65,294.75z"/>
    </g>
  </g>
  <g id="Calque.__202">
    <g id="shape10">
      <path id="path5" fill="#FFAC55" fill-opacity="1" d="M794.4,278.45 C794.4,267.05 788.7,261.35 777.25,261.35 L537.65,295.6 C526.2,295.6 520.55,301.3 520.55,312.7 L520.55,701.25 C520.55,712.65 526.2,718.35 537.65,718.35 L777.25,684.15 C788.7,684.15 794.4,678.45 794.4,667 L794.4,278.45z"/>
      <path id="path6" fill="#FFFFFF" fill-opacity="1" d="M508.65,311.1 C508.65,299.65 503,293.95 491.55,293.95 L251.95,259.75 Q234.8,259.75 234.8,276.85 L234.8,665.4 C234.8,676.8 240.5,682.5 251.95,682.5 L491.55,716.75 C503,716.75 508.65,711.05 508.65,699.6 L508.65,311.1z"/>
    </g>
  </g>
  <g id="Calque.__203">
    <g id="shape13">
      <path id="path7" fill="#000000" fill-opacity="0.2" d="M794.4,455.45 L794.4,453.75 623.9,283.25 622.4,283.5 537.65,295.6 C526.2,295.6 520.55,301.3 520.55,312.7 L520.55,701.25 C520.55,712.65 526.2,718.35 537.65,718.35 L777.25,684.15 Q794.4,684.15 794.4,667 L794.4,455.45z"/>
    </g>
  </g>
  <g id="camera">
    <g id="shape15">
      <path id="path8" fill="#FFFFFF" fill-opacity="1" d="M614.95,179.1 Q611.7,178.9 610.15,180.9 C610.15,180.9 519.7,294.45 519.7,305.85 L519.5,701.45 C519.5,712.9 526.9,718.6 538.35,718.6 538.35,718.6 629.4,591.15 629.4,579.7 L629.4,194.6 Q629.4,186.45 621.4,181.4 618.05,179.3 614.95,179.1z"/>
    </g>
  </g>
</svg>