<?xml version="1.0" encoding="utf-8"?>
<!-- Generator: flash2svg, http://dissentgraphics.com/tools/flash2svg -->
<svg id="Image-Capture" image-rendering="optimizeSpeed" baseProfile="basic" version="1.1" style="background-color:#FFFFFF" x="0px" y="0px" width="1024px" height="1024px" viewBox="0 0 1024 1024" enable-background="new 0 0 1024 1024" xmlns="http://www.w3.org/2000/svg" xmlns:xlink="http://www.w3.org/1999/xlink">
  <defs transform="matrix(1 0 0 1 0 0) "/>
  <g id="shadow">
    <g id="shape">
      <path id="path" fill="#000000" fill-opacity="0.09803921568627451" d="M969.6,351.25 Q961,330.4 950.2,310.4 C946.15,302.85 941.85,295.35 937.3,288 917.75,256.3 893.9,226.35 865.75,198.2 773.6,106.05 662.3,59.95 531.95,59.95 401.6,59.95 290.35,106.05 198.2,198.2 106.05,290.35 59.95,401.6 59.95,531.95 59.95,662.3 106.05,773.6 198.2,865.75 290.35,957.9 401.6,1003.95 531.95,1003.95 662.3,1003.95 773.6,957.9 865.75,865.75 916.5,814.95 953.3,758.35 976.1,696 994.65,645.15 1003.95,590.5 1003.95,531.95 1003.95,487.05 998.5,444.4 987.55,404 986.3,399.45 985,394.9 983.65,390.4 979.55,377.1 974.85,364.05 969.6,351.25z"/>
    </g>
  </g>
  <g id="circle">
    <g id="shape2">
      <path id="path1" fill="#5A6263" fill-opacity="1" d="M969.7,392 C968.6,387.65 967.35,383 966.05,378.4 963.55,369.65 960.7,360.8 957.6,352.05 951.15,333.8 943.45,316 934.45,298.4 930.65,291 926.5,283.45 922.15,276 901.85,241.5 876.35,208.8 845.8,178.25 773.2,105.65 688.65,61.6 592.15,46.2 575.9,43.6 559.35,41.8 542.1,40.85 532.4,40.3 522.25,40 512,40 502.65,40 493.4,40.25 484.1,40.75 365.75,46.85 263.8,92.7 178.25,178.25 Q40,316.5 40,512 C40,642.35 86.1,753.65 178.25,845.8 258.7,926.2 353.65,971.55 462.75,981.75 470.05,982.45 477.05,982.95 484.1,983.3 484.25,983.3 484.35,983.3 484.5,983.3 493,983.75 501.1,984 509,984 510.2,984 511.1,984 512,984 522.3,984 532.5,983.7 542.1,983.2 544.6,983.05 546.85,982.9 549.05,982.75 569.25,981.3 588.95,978.7 607.75,975.05 615.7,973.5 623.55,971.75 631.15,969.9 711.95,949.6 783.3,908.3 845.8,845.8 894.4,797.2 930.2,743.3 953.15,684 971.6,636.35 981.8,585.2 983.7,530.5 983.9,524.45 984,518.25 984,512 984,511.35 984,510.65 984,510 984,509.65 984,509.35 984,509 983.95,501.5 983.75,494.05 983.4,486.55 981.85,454.05 977.3,422.6 969.7,392z"/>
    </g>
  </g>
  <g id="ico-shadow">
    <g id="shape4">
      <path id="path2" fill="#000000" fill-opacity="0.2" d="M983.7,530.5 C983.9,524.45 984,518.25 984,512 984,511.35 984,510.65 984,510 984,509.65 984,509.35 984,509 983.95,501.5 983.75,494.05 983.4,486.55 L983.4,486.525 L813,312 200,721 462.725,981.725 L462.75,981.75 C470.05,982.45 477.05,982.95 484.1,983.3 484.25,983.3 484.35,983.3 484.5,983.3 493,983.75 501.1,984 509,984 Q510.494,984 512,984 C522.3,984 532.5,983.7 542.1,983.2 544.6,983.05 546.85,982.9 549.05,982.75 569.25,981.3 588.95,978.7 607.75,975.05 615.7,973.5 623.55,971.75 631.15,969.9 711.95,949.6 783.3,908.3 845.8,845.8 894.4,797.2 930.2,743.3 953.15,684 971.6,636.35 981.8,585.2 983.7,530.5z"/>
    </g>
  </g>
  <g id="ico">
    <g id="group">
      <g id="drawingObject">
        <path id="path3" fill="#96A6A6" fill-opacity="1" d="M830.906,350.334 C830.906,324.023 809.463,302.675 783.152,302.675 L241.386,302.675 C214.981,302.675 193.632,324.023 193.632,350.334 L193.632,691.724 C193.632,718.035 214.981,739.384 241.386,739.384 L783.152,739.384 Q802.909,739.384 816.861,725.432 830.906,711.481 830.906,691.724 L830.906,350.334z"/>
      </g>
      <g id="drawingObject1">
        <path id="path4" fill="#808B8D" fill-opacity="1" d="M640.735,379.829 C548.88,379.829 474.535,454.268 474.535,546.03 474.535,637.885 548.88,712.23 640.735,712.23 Q674.537,712.23 705.436,699.215 735.212,686.574 758.246,663.54 781.28,640.6 793.827,610.731 806.935,579.831 806.935,546.03 C806.935,454.268 732.496,379.829 640.735,379.829z"/>
      </g>
      <g id="drawingObject2">
        <path id="path5" fill="#B6C6C5" fill-opacity="1" d="M778.564,546.03 C778.564,469.905 716.859,408.2 640.735,408.2 564.61,408.2 502.812,469.905 502.812,546.03 502.812,622.154 564.61,683.859 640.735,683.859 Q668.825,683.859 694.387,672.997 719.107,662.604 738.208,643.503 757.309,624.401 767.703,599.682 778.564,574.12 778.564,546.03z"/>
      </g>
      <g id="drawingObject3">
        <path id="path6" fill="#96A6A6" fill-opacity="1" d="M353.559,326.364 C353.559,302.675 339.702,283.573 322.754,283.573 L285.019,283.573 C267.978,283.573 254.214,302.675 254.214,326.364 L254.214,369.81 C254.214,393.406 267.978,412.601 285.019,412.601 L322.754,412.601 Q335.488,412.601 344.477,400.054 353.559,387.507 353.559,369.81 L353.559,326.364z"/>
      </g>
      <g id="drawingObject4">
        <path id="path7" fill="#B6C6C5" fill-opacity="1" d="M418.167,327.862 C400.095,327.862 385.489,344.997 385.489,366.159 385.489,387.32 400.095,404.455 418.167,404.455 L478.467,404.455 Q492.044,404.455 501.595,393.219 511.145,382.076 511.145,366.159 C511.145,344.997 496.539,327.862 478.467,327.862 L418.167,327.862z"/>
      </g>
      <g id="drawingObject5">
        <path id="path8" fill="#FFFFFF" fill-opacity="1" d="M716.11,475.336 C722.384,462.883 710.118,443.875 688.676,433.013 667.233,422.152 644.668,423.463 638.3,436.01 631.933,448.557 644.293,467.471 665.735,478.332 Q681.84,486.478 696.541,485.636 711.335,484.699 716.11,475.336z"/>
      </g>
      <g id="drawingObject6">
        <path id="path9" fill="#717B7C" fill-opacity="1" d="M252.247,394.623 C252.247,368.312 226.03,346.964 193.632,346.964 L193.632,695.282 Q217.884,695.282 235.112,681.331 252.247,667.379 252.247,647.622 L252.247,394.623z"/>
      </g>
      <g id="drawingObject7">
        <path id="path10" fill="#4F814F" fill-opacity="1" d="M742.047,327.862 C733.245,327.862 726.036,334.978 726.036,343.874 726.036,352.675 733.245,359.885 742.047,359.885 L771.542,359.885 Q778.19,359.885 782.871,355.203 787.553,350.522 787.553,343.874 C787.553,334.978 780.343,327.862 771.542,327.862 L742.047,327.862z"/>
      </g>
      <g id="drawingObject8">
        <path id="path11" fill="#BF3A31" fill-opacity="1" d="M663.769,327.862 C654.967,327.862 647.758,334.978 647.758,343.874 647.758,352.675 654.967,359.885 663.769,359.885 L693.264,359.885 Q699.912,359.885 704.593,355.203 709.275,350.522 709.275,343.874 C709.275,334.978 702.159,327.862 693.264,327.862 L663.769,327.862z"/>
      </g>
    </g>
  </g>
</svg>