<?xml version="1.0" encoding="utf-8"?>
<!-- Generator: Adobe Illustrator 16.0.0, SVG Export Plug-In . SVG Version: 6.00 Build 0)  -->
<!DOCTYPE svg PUBLIC "-//W3C//DTD SVG 1.1//EN" "http://www.w3.org/Graphics/SVG/1.1/DTD/svg11.dtd">
<svg version="1.1" id="Template" image-rendering="optimizeSpeed"
	 xmlns="http://www.w3.org/2000/svg" xmlns:xlink="http://www.w3.org/1999/xlink" x="0px" y="0px" width="1024px" height="1024px"
	 viewBox="0 0 1024 1024" enable-background="new 0 0 1024 1024" xml:space="preserve">
<g id="background-circle-shadow">
	<g id="shape">
		<path id="path" fill-opacity="0.098" d="M969.65,351.3c-5.733-13.9-12.2-27.517-19.4-40.85c-4.05-7.55-8.35-15.05-12.9-22.4
			c-19.55-31.7-43.399-61.65-71.55-89.8C773.65,106.1,662.35,60,532,60s-241.6,46.1-333.75,138.25S60,401.65,60,532
			s46.1,241.65,138.25,333.8C290.4,957.95,401.65,1004,532,1004s241.65-46.05,333.8-138.2C916.55,815,953.35,758.4,976.15,696.05
			C994.7,645.2,1004,590.55,1004,532c0-44.9-5.45-87.55-16.4-127.95c-1.25-4.55-2.55-9.1-3.899-13.6
			C979.6,377.15,974.9,364.1,969.65,351.3z"/>
	</g>
</g>
<g id="background-circle">
	<g id="shape2">
		<path id="path1" fill="#FFFFFF" d="M966.1,378.45c-1-3.4-2-6.85-3.149-10.5c-1.601-5.15-3.4-10.5-5.3-15.85
			c-6.45-18.25-14.15-36.05-23.15-53.65c-3.8-7.4-7.95-14.95-12.3-22.4c-20.3-34.5-45.8-67.2-76.351-97.75
			C773.25,105.7,688.7,61.65,592.2,46.25c-16.25-2.6-32.8-4.4-50.05-5.35c-9.7-0.55-19.851-0.85-30.101-0.85
			c-9.35,0-18.6,0.25-27.899,0.75C365.8,46.9,263.85,92.75,178.3,178.3C86.133,270.467,40.05,381.717,40.05,512.05
			c0,130.351,46.1,241.65,138.25,333.8C235,902.5,298.85,941.75,369.4,963.4c36.75,11.25,74.8,17.85,114.75,19.949
			c0.149,0,0.25,0,0.399,0c8.5,0.45,16.601,0.7,24.5,0.7c1.2,0,2.101,0,3,0c10.3,0,20.5-0.3,30.101-0.8
			c2.5-0.15,4.75-0.3,6.949-0.45c20.2-1.45,39.9-4.05,58.7-7.7c7.95-1.55,15.8-3.3,23.4-5.149
			C712,949.65,783.35,908.35,845.85,845.85c48.601-48.6,84.4-102.5,107.351-161.8c18.45-47.649,28.649-98.8,30.55-153.5
			c0.2-6.05,0.3-12.25,0.3-18.5c0-0.649,0-1.35,0-2c0-0.35,0-0.649,0-1c-0.2-40.649-4.95-79.5-14.3-117
			C968.65,387.7,967.4,383.05,966.1,378.45z"/>
	</g>
</g>
<g id="object-shadow">
	<g id="shape4">
		<path id="path2" fill-opacity="0.2" d="M984.05,510.05c0-0.35,0-0.649,0-1c-0.042-7.331-0.233-14.606-0.575-21.825L723.4,233.125
			l-333.999,119.7v242l-88.801,102.75l286.975,281l0.024,0.024c7.101-1.1,13.7-2.25,20.2-3.5c7.95-1.55,15.8-3.3,23.4-5.149
			C712,949.65,783.35,908.35,845.85,845.85c48.601-48.6,84.4-102.5,107.351-161.8c18.45-47.649,28.649-98.8,30.55-153.5
			c0.2-6.05,0.3-12.25,0.3-18.5C984.05,511.4,984.05,510.7,984.05,510.05z"/>
	</g>
</g>
<g>
	<path fill="#FF0000" d="M402.659,643.037c0-31.674-31.396-57.35-70.116-57.35c-38.692,0-70.086,25.676-70.086,57.35
		c0,31.717,31.395,57.391,70.086,57.391C371.263,700.428,402.659,674.754,402.659,643.037z"/>
	<rect x="379.306" y="333.401" fill="#FF0000" width="23.354" height="309.636"/>
	<polygon fill="#FF0000" points="729.457,314.293 379.306,407.761 379.306,323.852 729.169,233.125 	"/>
	<path fill="#FF0000" d="M729.457,562.693c0-31.668-31.396-57.389-70.116-57.389c-38.719,0-70.057,25.721-70.057,57.389
		c0,31.725,31.338,57.398,70.057,57.398C698.062,620.092,729.457,594.418,729.457,562.693z"/>
	<rect x="706.132" y="253.064" fill="#FF0000" width="23.325" height="309.629"/>
</g>
</svg>
