<?xml version="1.0" encoding="utf-8"?>
<!-- Generator: flash2svg, http://dissentgraphics.com/tools/flash2svg -->
<svg xmlns:xlink="http://www.w3.org/1999/xlink" id="iWorks-Pages" image-rendering="optimizeSpeed" baseProfile="basic" version="1.1" style="background-color:#ffffff" x="0px" y="0px" width="1024px" height="1024px" viewBox="0 0 1024 1024" enable-background="new 0 0 1024 1024" xmlns="http://www.w3.org/2000/svg">
  <defs transform="matrix(1 0 0 1 0 0) "/>
  <g id="shadow">
    <g id="shape">
      <path id="path" fill="#000000" fill-opacity="0.09803921568627451" d="M969.65,351.3 Q961.05,330.45 950.25,310.45 C946.2,302.9 941.9,295.4 937.35,288.05 917.8,256.35 893.95,226.4 865.8,198.25 773.65,106.1 662.35,60 532,60 401.65,60 290.4,106.1 198.25,198.25 106.1,290.4 60,401.65 60,532 60,662.35 106.1,773.65 198.25,865.8 290.4,957.95 401.65,1004 532,1004 662.35,1004 773.65,957.95 865.8,865.8 916.55,815 953.35,758.4 976.15,696.05 994.7,645.2 1004,590.55 1004,532 1004,487.1 998.55,444.45 987.6,404.05 986.35,399.5 985.05,394.95 983.7,390.45 979.6,377.15 974.9,364.1 969.65,351.3z"/>
    </g>
  </g>
  <g id="bg">
    <g id="shape2">
      <path id="path1" fill="#E7E5E8" fill-opacity="1" d="M962.95,367.95 C961.35,362.8 959.55,357.45 957.65,352.1 951.2,333.85 943.5,316.05 934.5,298.45 930.7,291.05 926.55,283.5 922.2,276.05 901.9,241.55 876.4,208.85 845.85,178.3 773.25,105.7 688.7,61.65 592.2,46.25 575.95,43.65 559.4,41.85 542.15,40.9 532.45,40.35 522.3,40.05 512.05,40.05 502.7,40.05 493.45,40.3 484.15,40.8 365.8,46.9 263.85,92.75 178.3,178.3 Q40.05,316.55 40.05,512.05 C40.05,642.4 86.15,753.7 178.3,845.85 235,902.5 298.85,941.75 369.4,963.4 406.15,974.65 444.2,981.25 484.15,983.35 484.3,983.35 484.4,983.35 484.55,983.35 493.05,983.8 501.15,984.05 509.05,984.05 510.25,984.05 511.15,984.05 512.05,984.05 522.35,984.05 532.55,983.75 542.15,983.25 544.65,983.1 546.9,982.95 549.1,982.8 569.3,981.35 589,978.75 607.8,975.1 615.75,973.55 623.6,971.8 631.2,969.95 712,949.65 783.35,908.35 845.85,845.85 894.45,797.25 930.25,743.35 953.2,684.05 971.65,636.4 981.85,585.25 983.75,530.55 983.95,524.5 984.05,518.3 984.05,512.05 984.05,511.4 984.05,510.7 984.05,510.05 984.05,509.7 984.05,509.4 984.05,509.05 983.85,468.4 979.1,429.55 969.75,392.05 968.65,387.7 967.4,383.05 966.1,378.45 965.1,375.05 964.1,371.6 962.95,367.95z"/>
    </g>
  </g>
  <g id="bg1">
    <g id="shape4">
      <path id="path2" fill="#E501B6" fill-opacity="1" d="M962.95,367.95 C961.35,362.8 959.55,357.45 957.65,352.1 951.2,333.85 943.5,316.05 934.5,298.45 930.7,291.05 926.55,283.5 922.2,276.05 901.9,241.55 876.4,208.85 845.85,178.3 773.25,105.7 688.7,61.65 592.2,46.25 575.95,43.65 559.4,41.85 542.15,40.9 532.45,40.35 522.3,40.05 512.05,40.05 502.7,40.05 493.45,40.3 484.15,40.8 372.05,46.6 274.6,88.05 192.05,165.05 L192.025,165.05 L512.05,512.05 974.725,609.775 L974.75,609.8 C979.8,584.3 982.8,557.85 983.75,530.55 983.95,524.5 984.05,518.3 984.05,512.05 984.05,511.4 984.05,510.7 984.05,510.05 984.05,509.7 984.05,509.4 984.05,509.05 983.85,468.4 979.1,429.55 969.75,392.05 968.65,387.7 967.4,383.05 966.1,378.45 965.1,375.05 964.1,371.6 962.95,367.95z"/>
      <path id="path3" fill="#FF3366" fill-opacity="1" d="M924.1,744.8 C935.4,725.2 945.1,704.95 953.2,684.05 962.45,660.2 969.6,635.45 974.75,609.8 L974.725,609.775 L512.05,512.05 924.075,744.8"/>
      <path id="path4" fill="#7C01C1" fill-opacity="1" d="M192.05,165.05 C187.35,169.4 182.8,173.8 178.3,178.3 Q40.05,316.55 40.05,512.05 C40.05,642.4 86.15,753.7 178.3,845.85 L178.275,845.825 L512.05,512.05 192.025,165.05"/>
      <path id="path5" fill="#8AD516" fill-opacity="1" d="M509.05,984.05 C510.25,984.05 511.15,984.05 512.05,984.05 522.35,984.05 532.55,983.75 542.15,983.25 544.65,983.1 546.9,982.95 549.1,982.8 569.3,981.35 589,978.75 607.8,975.1 615.75,973.55 623.6,971.8 631.2,969.95 643.05,967 654.7,963.55 666.2,959.7 L666.175,959.7 L512.05,512.05 178.275,845.825 178.3,845.85 C235,902.5 298.85,941.75 369.4,963.4 406.15,974.65 444.2,981.25 484.15,983.35 484.3,983.35 484.4,983.35 484.55,983.35 493.05,983.8 501.15,984.05 509.05,984.05z"/>
      <path id="path6" fill="#FFFF66" fill-opacity="1" d="M666.2,959.7 C732.7,937.1 792.5,899.2 845.85,845.85 L512.05,512.05 666.175,959.7"/>
      <path id="path7" fill="#FF9999" fill-opacity="1" d="M845.85,845.85 C877.3,814.4 903.45,780.7 924.1,744.8 L924.075,744.8 L512.05,512.05 845.85,845.85z"/>
    </g>
  </g>
  <g id="Calque.__204">
    <g id="Symbole.__2027_1" overflow="visible">
      <g id="Calque.__206">
        <g id="shape18">
          <path id="path13" fill="#FFFFFF" fill-opacity="1" d="M727.003,249.924 Q727.003,241.289 718.368,241.289 L305.632,241.289 C299.89,241.289 296.997,244.182 296.997,249.924 L262.459,531.413 C262.459,537.155 265.351,540.048 271.093,540.048 L752.907,540.048 C758.649,540.048 761.541,537.155 761.541,531.413 L727.003,249.924z M782.264,591.856 L783.991,569.406 C783.991,563.664 781.099,560.771 775.357,560.771 L248.643,560.771 C242.901,560.771 240.009,563.664 240.009,569.406 L241.736,591.856 C241.736,597.598 244.628,600.491 250.37,600.491 L773.63,600.491 C779.372,600.491 782.264,597.598 782.264,591.856z M544.035,628.121 C544.035,622.379 541.142,619.487 535.4,619.487 L488.643,619.487 C482.901,619.487 480.009,622.379 480.009,628.121 L480.009,856.076 C480.009,861.818 482.901,864.711 488.643,864.711 L535.4,864.711 C541.142,864.711 544.035,861.818 544.035,856.076 L544.035,628.121z"/>
        </g>
      </g>
    </g>
  </g>
</svg>