<?xml version="1.0" encoding="utf-8"?>
<!-- Generator: flash2svg, http://dissentgraphics.com/tools/flash2svg -->
<svg xmlns:xlink="http://www.w3.org/1999/xlink" id="Jetbrains-Webstorm" image-rendering="optimizeSpeed" baseProfile="basic" version="1.1" style="background-color:#ffffff" x="0px" y="0px" width="1024px" height="1024px" viewBox="0 0 1024 1024" enable-background="new 0 0 1024 1024" xmlns="http://www.w3.org/2000/svg">
  <defs transform="matrix(1 0 0 1 0 0) "/>
  <g id="shadow">
    <g id="shape">
      <path id="path" fill="#000000" fill-opacity="0.09803921568627451" d="M969.65,351.3 Q961.05,330.45 950.25,310.45 C946.2,302.9 941.9,295.4 937.35,288.05 917.8,256.35 893.95,226.4 865.8,198.25 773.65,106.1 662.35,60 532,60 401.65,60 290.4,106.1 198.25,198.25 106.1,290.4 60,401.65 60,532 60,662.35 106.1,773.65 198.25,865.8 290.4,957.95 401.65,1004 532,1004 662.35,1004 773.65,957.95 865.8,865.8 916.55,815 953.35,758.4 976.15,696.05 994.7,645.2 1004,590.55 1004,532 1004,487.1 998.55,444.45 987.6,404.05 986.35,399.5 985.05,394.95 983.7,390.45 979.6,377.15 974.9,364.1 969.65,351.3z"/>
    </g>
  </g>
  <g id="circle">
    <g id="shape2">
      <path id="path1" fill="#335769" fill-opacity="1" d="M969.75,392.05 C968.65,387.7 967.4,383.05 966.1,378.45 963.6,369.7 960.75,360.85 957.65,352.1 951.2,333.85 943.5,316.05 934.5,298.45 930.7,291.05 926.55,283.5 922.2,276.05 901.9,241.55 876.4,208.85 845.85,178.3 773.25,105.7 688.7,61.65 592.2,46.25 575.95,43.65 559.4,41.85 542.15,40.9 532.45,40.35 522.3,40.05 512.05,40.05 502.7,40.05 493.45,40.3 484.15,40.8 365.8,46.9 263.85,92.75 178.3,178.3 Q40.05,316.55 40.05,512.05 C40.05,642.4 86.15,753.7 178.3,845.85 256.8,924.3 349.1,969.4 455,981 464.75,982.1 474.4,982.85 484.15,983.35 484.3,983.35 484.4,983.35 484.55,983.35 493.05,983.8 501.15,984.05 509.05,984.05 510.25,984.05 511.15,984.05 512.05,984.05 522.35,984.05 532.55,983.75 542.15,983.25 544.65,983.1 546.9,982.95 549.1,982.8 569.3,981.35 589,978.75 607.8,975.1 615.75,973.55 623.6,971.8 631.2,969.95 712,949.65 783.35,908.35 845.85,845.85 894.45,797.25 930.25,743.35 953.2,684.05 971.65,636.4 981.85,585.25 983.75,530.55 983.95,524.5 984.05,518.3 984.05,512.05 984.05,511.4 984.05,510.7 984.05,510.05 984.05,509.7 984.05,509.4 984.05,509.05 983.95,492.2 983.1,475.7 981.45,459.35 979.15,436.45 975.25,414 969.75,392.05z"/>
    </g>
  </g>
  <g id="circle1">
    <g id="shape4">
      <path id="path2" fill="#000000" fill-opacity="0.2" d="M981.45,459.35 Q980.997,454.893 980.475,450.475 L754.05,224.05 601.45,356.65 486.05,241.25 375.125,308.275 280.05,213.2 393.625,799.05 574.45,980.35 C586.05,978.95 597.1,977.2 607.8,975.1 615.75,973.55 623.6,971.8 631.2,969.95 712,949.65 783.35,908.35 845.85,845.85 894.45,797.25 930.25,743.35 953.2,684.05 971.65,636.4 981.85,585.25 983.75,530.55 983.95,524.5 984.05,518.3 984.05,512.05 984.05,511.4 984.05,510.7 984.05,510.05 984.05,509.7 984.05,509.4 984.05,509.05 983.95,492.2 983.1,475.7 981.45,459.35z"/>
    </g>
  </g>
  <g id="Calque.__201">
    <g id="shape6">
      <path id="path3" fill="none" stroke="#F9AA0C" stroke-opacity="1" stroke-width="110.95" stroke-linecap="round" stroke-linejoin="round" d="M716.35,264.05 C692.95,277.95 674.35,292.5 660.55,307.75"/>
      <path id="path4" fill="none" stroke="#F9AA0C" stroke-opacity="1" stroke-width="110.95" stroke-linecap="round" stroke-linejoin="round" d="M712.35,527.05 L760.8,594.5 C791,646.5 772.3,702.4 704.75,762.25"/>
      <path id="path5" fill="#FFFFFF" fill-opacity="1" d="M660.55,307.75 L660.4,259.6 C660.35,244.35 654.85,231.35 644,220.5 633.1,209.65 620.05,204.3 604.8,204.35 589.55,204.35 576.5,209.8 565.65,220.7 554.8,231.55 549.4,244.65 549.45,259.95 L550,437.05 480.1,241.15 C474.9,226.75 465.4,216.25 451.55,209.7 437.7,203.1 423.55,202.4 409.2,207.55 397.1,211.9 387.75,219.3 381.2,229.85 375.15,238.8 372.15,248.95 372.2,260.35 L372.75,437.45 302.85,241.55 C297.65,227.15 288.15,216.65 274.3,210.1 260.45,203.5 246.3,202.8 231.95,207.95 217.6,213.1 207.1,222.6 200.55,236.45 193.95,250.3 193.2,264.45 198.35,278.8 L376.95,779.6 C381.5,792.25 389.6,802 401.35,808.85 413.05,815.7 425.5,817.95 438.75,815.65 452,813.3 462.95,806.95 471.7,796.55 480.4,786.15 484.75,774.25 484.7,760.8 L484.15,582.7 554.2,779.2 C558.75,791.85 566.85,801.6 578.6,808.45 590.3,815.3 602.75,817.55 616,815.25 629.25,812.9 640.2,806.55 648.95,796.15 657.65,785.75 662,773.85 661.95,760.4 734.35,682.6 751.15,604.8 712.35,527.05 L661,455.5 647.55,436.8 C621.2,389.4 625.5,346.4 660.55,307.75z"/>
      <path id="path6" fill="none" stroke="#F9AA0C" stroke-opacity="1" stroke-width="110.95" stroke-linecap="round" stroke-linejoin="round" d="M712.35,527.05 L661,455.5 647.55,436.8 C621.2,389.4 625.5,346.4 660.55,307.75"/>
      <path id="path7" fill="#FFFFFF" fill-opacity="1" d="M712.35,527.05 L661,455.5 C683.35,479.35 700.45,503.2 712.35,527.05"/>
      <path id="path8" fill="none" stroke="#F9AA0C" stroke-opacity="1" stroke-width="110.95" stroke-linecap="round" stroke-linejoin="round" d="M712.35,527.05 L661,455.5"/>
      <path id="path9" fill="#FFFFFF" fill-opacity="1" d="M661,455.5 L660.55,307.75 C625.5,346.4 621.2,389.4 647.55,436.8 L661,455.5z"/>
      <path id="path10" fill="none" stroke="#F9AA0C" stroke-opacity="1" stroke-width="110.95" stroke-linecap="round" stroke-linejoin="round" d="M660.55,307.75 C625.5,346.4 621.2,389.4 647.55,436.8 L661,455.5"/>
    </g>
  </g>
</svg>