<?xml version="1.0" encoding="utf-8"?>
<!-- Generator: flash2svg, http://dissentgraphics.com/tools/flash2svg -->
<svg xmlns:xlink="http://www.w3.org/1999/xlink" id="Jetbrains-RubyMine" image-rendering="optimizeSpeed" baseProfile="basic" version="1.1" style="background-color:#ffffff" x="0px" y="0px" width="1024px" height="1024px" viewBox="0 0 1024 1024" enable-background="new 0 0 1024 1024" xmlns="http://www.w3.org/2000/svg">
  <defs transform="matrix(1 0 0 1 0 0) "/>
  <g id="shadow">
    <g id="shape">
      <path id="path" fill="#000000" fill-opacity="0.09803921568627451" d="M969.65,351.3 Q961.05,330.45 950.25,310.45 C946.2,302.9 941.9,295.4 937.35,288.05 917.8,256.35 893.95,226.4 865.8,198.25 773.65,106.1 662.35,60 532,60 401.65,60 290.4,106.1 198.25,198.25 106.1,290.4 60,401.65 60,532 60,662.35 106.1,773.65 198.25,865.8 290.4,957.95 401.65,1004 532,1004 662.35,1004 773.65,957.95 865.8,865.8 916.55,815 953.35,758.4 976.15,696.05 994.7,645.2 1004,590.55 1004,532 1004,487.1 998.55,444.45 987.6,404.05 986.35,399.5 985.05,394.95 983.7,390.45 979.6,377.15 974.9,364.1 969.65,351.3z"/>
    </g>
  </g>
  <g id="bg">
    <g id="shape2">
      <path id="path1" fill="#9B2D2B" fill-opacity="1" d="M969.75,394 C968.65,389.65 967.4,385 966.1,380.4 963.6,371.65 960.75,362.8 957.65,354.05 951.2,335.8 943.5,318 934.5,300.4 930.7,293 926.55,285.45 922.2,278 901.9,243.5 876.4,210.8 845.85,180.25 806.9,141.3 764.5,110.55 718.35,87.9 679.05,68.6 636.9,55.35 592.2,48.2 575.95,45.6 559.4,43.8 542.15,42.85 532.45,42.3 522.3,42 512.05,42 502.7,42 493.45,42.25 484.15,42.75 477.45,43.1 470.8,43.55 464.1,44.2 407.25,49.4 354.3,64 305.15,88.2 259.55,110.6 217.25,141.3 178.3,180.25 89.05,269.5 43,376.75 40.2,501.75 Q40.05,507.85 40.05,514 C40.05,644.35 86.15,755.65 178.3,847.8 263.55,933.05 365.15,978.85 483,985.2 483.35,985.25 483.75,985.25 484.15,985.3 484.3,985.3 484.4,985.3 484.55,985.3 493.05,985.75 501.15,986 509.05,986 510.25,986 511.15,986 512.05,986 522.35,986 532.55,985.7 542.15,985.2 544.65,985.05 546.9,984.9 549.1,984.75 569.3,983.3 589,980.7 607.8,977.05 615.75,975.5 623.6,973.75 631.2,971.9 697.1,955.35 756.7,924.8 810.3,880.3 822.45,870.15 834.3,859.35 845.85,847.8 851.95,841.7 857.85,835.55 863.35,829.5 903.2,785.65 933.1,737.9 953.2,686 962.3,662.55 969.35,638.25 974.5,612.95 979.7,587.15 982.8,560.3 983.75,532.5 983.95,526.45 984.05,520.25 984.05,514 984.05,513.35 984.05,512.65 984.05,512 984.05,511.65 984.05,511.35 984.05,511 984.05,507.9 984,504.8 983.95,501.65 983.1,464.45 978.4,428.65 969.75,394z"/>
    </g>
  </g>
  <g id="bg1">
    <g id="shape4">
      <path id="path2" fill="#000000" fill-opacity="0.2" d="M782.05,300.05 L694.05,328.05 586.05,220.05 313.85,318.875 237.175,789.175 427,979 C445.55,982.15 464.05,984.2 483,985.2 483.35,985.25 483.75,985.25 484.15,985.3 484.3,985.3 484.4,985.3 484.55,985.3 493.05,985.75 501.15,986 509.05,986 Q510.55,986 512.05,986 C522.35,986 532.55,985.7 542.15,985.2 544.65,985.05 546.9,984.9 549.1,984.75 569.3,983.3 589,980.7 607.8,977.05 615.75,975.5 623.6,973.75 631.2,971.9 697.1,955.35 756.7,924.8 810.3,880.3 822.45,870.15 834.3,859.35 845.85,847.8 851.95,841.7 857.85,835.55 863.35,829.5 903.2,785.65 933.1,737.9 953.2,686 962.3,662.55 969.35,638.25 974.5,612.95 979.7,587.15 982.8,560.3 983.75,532.5 983.95,526.45 984.05,520.25 984.05,514 984.05,513.35 984.05,512.65 984.05,512 984.05,511.65 984.05,511.35 984.05,511 984,507.95 984,504.95 983.95,501.95 L782.05,300.05z"/>
    </g>
  </g>
  <g id="Calque.__201">
    <g id="shape6">
      <path id="path3" fill="#CA4F47" fill-opacity="1" d="M727.25,253.175 Q701.865,248.597 680.6,263.425 L680.6,263.45 C666.45,273.3 657.85,286.7 654.8,303.65 651.75,320.6 655.1,336.15 664.95,350.4 669.5,356.95 671.95,364.35 672.25,372.7 L672.25,372.675 L672.25,377.65 C671.75,389.35 667.3,399.4 658.85,407.85 651.8,414.9 643.65,419.2 634.4,420.75 620.65,422.75 608.85,428.65 599.05,438.45 589.2,448.25 583.3,460 581.35,473.75 579.35,487.5 581.7,500.45 588.35,512.6 L588.325,512.6 L726.025,764.25 L726.05,764.25 C734.35,779.3 746.75,789.3 763.25,794.2 779.75,799.05 795.6,797.35 810.75,789.05 825.9,780.75 835.9,768.35 840.8,751.9 845.65,735.4 843.95,719.5 835.7,704.25 L835.675,704.25 L730.15,511.4 C736.05,506.8 741.75,501.75 747.25,496.25 779.5,464 796.2,425.25 797.25,380.05 797.25,379.4 797.25,378.9 797.25,378.5 L797.25,371.85 C797.25,371.3 797.25,370.65 797.25,370 796.1,336.05 786.2,305.7 767.55,278.95 757.6,264.8 744.2,256.25 727.25,253.2"/>
      <path id="path4" fill="#EFA856" fill-opacity="1" d="M342.275,342.25 L342.25,342.3 C351.2,333.35 362,328.85 374.65,328.85 387.3,328.85 398.05,333.3 407,342.25 L406.975,342.25 L407.05,342.325 L407.05,342.35 C414.15,349.4 418.45,357.7 419.9,367.15 419.75,369.9 419.7,372.65 419.7,375.45 419.7,376.95 419.7,378.4 419.75,379.85 L419.75,385.35 C419.7,387.1 419.7,388.8 419.75,390.5 L419.75,390.475 L419.75,734.25 C419.75,751.5 425.85,766.25 438.05,778.45 444.2,784.6 451.05,789.2 458.6,792.2 L458.575,792.175 L482.25,796.75 C482.45,796.75 482.65,796.75 482.9,796.75 L506.575,792.175 L506.6,792.2 C514.1,789.2 520.95,784.6 527.1,778.45 539.3,766.25 545.4,751.5 545.4,734.25 L545.4,390.475 L545.4,390.5 C545.45,389.25 545.45,387.95 545.4,386.7 L545.4,386.675 L545.4,378.7 C545.45,377.35 545.45,376 545.45,374.65 545.45,373.4 545.45,372.2 545.4,371.05 L545.325,368.025 L545.35,368.05 C545.3,367.9 545.3,367.8 545.3,367.65 L545.3,367.6 C546.8,358.35 551.05,350.2 558.1,343.2 L558.1,343.175 L558.15,343.15 C563,338.3 568.3,334.75 574.15,332.4 590.3,326.25 601.95,315.3 609.1,299.6 616.25,283.85 616.75,267.9 610.65,251.85 604.55,235.75 593.65,224.15 577.95,217 562.2,209.85 546.3,209.3 530.25,215.35 513.3,221.55 497.6,230.65 483.1,242.65 452.3,216.8 416.15,203.85 374.65,203.85 327.5,203.85 287.2,220.55 253.85,253.9 L253.825,253.95 L253.85,253.95 C220.55,287.3 203.9,327.5 203.9,374.65 203.9,375.85 203.9,377.05 203.9,378.3 L203.9,734.25 C203.9,751.5 210,766.25 222.2,778.45 234.4,790.65 249.15,796.75 266.4,796.75 283.65,796.75 298.4,790.65 310.6,778.45 322.8,766.25 328.9,751.5 328.9,734.25 L328.9,378.3 C328.9,377.05 328.9,375.85 328.9,374.65 328.9,362 333.35,351.2 342.3,342.25"/>
    </g>
  </g>
</svg>