<?xml version="1.0" encoding="utf-8"?>
<!-- Generator: flash2svg, http://dissentgraphics.com/tools/flash2svg -->
<svg id="Launchpad" image-rendering="optimizeSpeed" baseProfile="basic" version="1.1" style="background-color:#FFFFFF" x="0px" y="0px" width="1024px" height="1024px" viewBox="0 0 1024 1024" enable-background="new 0 0 1024 1024" xmlns="http://www.w3.org/2000/svg" xmlns:xlink="http://www.w3.org/1999/xlink">
  <defs transform="matrix(1 0 0 1 0 0) "/>
  <g id="shadow">
    <g id="shape">
      <path id="path" fill="#000000" fill-opacity="0.09803921568627451" d="M957.6,339.25 Q948.987,318.377 938.2,298.4 C934.15,290.85 929.85,283.35 925.3,276 905.75,244.3 881.9,214.35 853.75,186.2 761.6,94.05 650.3,47.95 519.95,47.95 389.6,47.95 278.35,94.05 186.2,186.2 94.05,278.35 47.95,389.6 47.95,519.95 47.95,650.3 94.05,761.6 186.2,853.75 278.35,945.9 389.6,991.95 519.95,991.95 650.3,991.95 761.6,945.9 853.75,853.75 904.5,802.95 941.3,746.35 964.1,684 982.65,633.15 991.95,578.5 991.95,519.95 991.95,475.05 986.5,432.4 975.55,392 974.3,387.45 973,382.9 971.65,378.4 967.55,365.1 962.85,352.05 957.6,339.25z"/>
    </g>
  </g>
  <g id="circle">
    <g id="shape2">
      <path id="path1" fill="#464646" fill-opacity="1" d="M969.7,392 C968.6,387.65 967.35,383 966.05,378.4 963.55,369.65 960.7,360.8 957.6,352.05 951.15,333.8 943.45,316 934.45,298.4 930.65,291 926.5,283.45 922.15,276 L922.125,276 Q891.524,223.99 845.8,178.25 C753.65,86.1 642.35,40 512,40 381.65,40 270.4,86.1 178.25,178.25 86.1,270.4 40,381.65 40,512 40,642.35 86.1,753.65 178.25,845.8 270.4,937.95 381.65,984 512,984 524.7,984 537.2,983.55 549.05,982.75 569.25,981.3 588.95,978.7 607.75,975.05 615.7,973.5 623.55,971.75 631.15,969.9 711.95,949.6 783.3,908.3 845.8,845.8 894.4,797.2 930.2,743.3 953.15,684 971.6,636.35 981.8,585.2 983.7,530.5 983.9,524.45 984,518.25 984,512 984,470.25 979.3,430.4 969.7,392z"/>
    </g>
  </g>
  <g id="ico-shadow">
    <g id="shape4">
      <path id="path2" fill="#000000" fill-opacity="0.2" d="M983.675,530.5 L734.7,281.55 226,564.75 631.125,969.875 L631.15,969.9 C711.95,949.6 783.3,908.3 845.8,845.8 894.4,797.2 930.2,743.3 953.15,684 Q980.892,612.416 983.675,530.5z M238.1,605.4 L204.9,638.6 549.025,982.725 L549.05,982.75 C569.25,981.3 588.95,978.7 607.75,975.05 L238.1,605.4z"/>
    </g>
  </g>
  <g id="ico">
    <g id="Symbole.__202_1" overflow="visible">
      <g id="Calque.__202">
        <g id="shape26">
          <path id="path21" fill="#CCCCCC" fill-opacity="1" d="M747,311.1 C746.95,299.55 742.85,289.7 734.7,281.55 L605.35,410.9 C619.2,424.75 626.5,441.35 627.15,460.7 627.2,461.7 627.2,462.7 627.2,463.65 627.25,484.25 619.95,501.85 605.3,516.5 590.75,531.05 573.15,538.35 552.5,538.35 531.9,538.35 514.3,531.1 499.75,516.55 L402.95,613.35 584.4,794.8 C586.15,789.2 587.55,782.8 588.55,775.7 L588.55,667.25 C590.1,634.8 606.65,600.2 638.05,563.5 L695.3,506.2 C710.25,490.5 720.5,472.85 726.1,453.25 726.4,452.25 726.65,451.15 726.95,450.15 726.95,450.15 747,315.95 747,311.1z"/>
          <path id="path22" fill="#F1F1F1" fill-opacity="1" d="M734.65,281.45 C726.4,273.25 716.55,269.2 705,269.15 700.2,269.15 566.05,289.25 566.05,289.25 Q564.45,289.6 562.9,290.05 C543.3,295.65 525.65,305.9 509.95,320.9 L452.7,378.2 C416,409.6 381.35,426.1 348.85,427.6 L240.45,427.65 C233.35,428.6 226.95,430 221.45,431.85 L402.9,613.25 499.7,516.45 C485.15,501.8 477.85,484.2 477.85,463.65 477.85,462.7 477.85,461.75 477.9,460.7 478.6,441.35 485.85,424.75 499.7,410.9 514.35,396.25 531.95,388.95 552.55,388.95 573.1,388.95 590.7,396.25 605.3,410.85 L734.65,281.45z"/>
          <path id="path23" fill="#2BB4E2" fill-opacity="1" d="M605.35,410.9 L605.3,410.85 C590.7,396.25 573.1,388.95 552.55,388.95 531.95,388.95 514.35,396.25 499.7,410.9 485.85,424.75 478.6,441.35 477.9,460.7 477.85,461.75 477.85,462.7 477.85,463.65 477.85,484.2 485.15,501.8 499.7,516.45 L499.75,516.5 499.75,516.55 C514.3,531.1 531.9,538.35 552.5,538.35 573.15,538.35 590.75,531.05 605.3,516.5 619.95,501.85 627.25,484.25 627.2,463.65 627.2,462.7 627.2,461.7 627.15,460.7 626.5,441.35 619.2,424.75 605.35,410.9z"/>
          <path id="path24" fill="#999999" fill-opacity="1" d="M221.45,431.85 C210.55,435.3 202.2,440.25 196.2,446.75 L382.8,633.3 402.9,613.25 221.45,431.85z M402.95,613.35 L382.85,633.4 569.4,819.95 C575.9,813.9 580.85,805.55 584.4,794.8 L402.95,613.35z"/>
          <path id="path25" fill="#666666" fill-opacity="1" d="M208.95,532 C203.75,537.25 203.75,542.55 209.05,547.8 L468.35,807.15 C473.65,812.4 478.95,812.4 484.15,807.15 L497.4,748.35 382.6,633.55 267.8,518.7 208.95,532z"/>
          <path id="path26" fill="#FF9A00" fill-opacity="1" d="M204.85,588 L187.45,605.4 C182.2,610.65 182.25,615.95 187.5,621.2 L204.9,638.6 C210.15,643.85 215.4,643.85 220.65,638.6 L238.05,621.2 C243.35,615.95 243.35,610.65 238.1,605.4 L220.7,588 C215.45,582.75 210.15,582.75 204.85,588z M252.7,635.85 L235.3,653.25 C230.05,658.5 230.1,663.75 235.35,669 L252.7,686.4 C258,691.7 263.25,691.7 268.5,686.45 L285.9,669.05 C291.2,663.8 291.2,658.5 285.9,653.2 L268.55,635.8 C263.3,630.55 258,630.6 252.7,635.85z M381.65,748.9 L364.25,731.55 C358.95,726.25 353.65,726.25 348.35,731.5 L330.95,748.9 C325.7,754.15 325.75,759.45 331.05,764.75 L348.45,782.1 C353.7,787.35 358.9,787.35 364.15,782.1 L381.55,764.7 C386.85,759.45 386.9,754.15 381.65,748.9z M412.05,779.35 C406.8,774.1 401.5,774.1 396.2,779.35 L378.8,796.75 C373.55,802 373.6,807.3 378.85,812.55 L396.25,829.95 C401.5,835.2 406.75,835.2 412,829.95 L429.4,812.55 C434.7,807.3 434.7,802 429.45,796.75 L412.05,779.35z M333.8,701.1 L316.4,683.7 C311.15,678.4 305.85,678.4 300.55,683.65 L283.15,701.05 C277.9,706.3 277.95,711.6 283.2,716.9 L300.6,734.3 C305.85,739.55 311.1,739.5 316.35,734.25 L333.75,716.85 C339.05,711.6 339.05,706.35 333.8,701.1z"/>
        </g>
      </g>
    </g>
  </g>
</svg>