<?xml version="1.0" encoding="utf-8"?>
<!-- Generator: flash2svg, http://dissentgraphics.com/tools/flash2svg -->
<svg id="Messages" image-rendering="optimizeSpeed" baseProfile="basic" version="1.1" style="background-color:#FFFFFF" x="0px" y="0px" width="1024px" height="1024px" viewBox="0 0 1024 1024" enable-background="new 0 0 1024 1024" xmlns="http://www.w3.org/2000/svg" xmlns:xlink="http://www.w3.org/1999/xlink">
  <defs transform="matrix(1 0 0 1 0 0) "/>
  <g id="shadow">
    <g id="shape">
      <path id="path" fill="#000000" fill-opacity="0.09803921568627451" d="M969.6,351.25 Q961,330.4 950.2,310.4 C946.15,302.85 941.85,295.35 937.3,288 917.75,256.3 893.9,226.35 865.75,198.2 773.6,106.05 662.3,59.95 531.95,59.95 401.6,59.95 290.35,106.05 198.2,198.2 106.05,290.35 59.95,401.6 59.95,531.95 59.95,662.3 106.05,773.6 198.2,865.75 290.35,957.9 401.6,1003.95 531.95,1003.95 662.3,1003.95 773.6,957.9 865.75,865.75 916.5,814.95 953.3,758.35 976.1,696 994.65,645.15 1003.95,590.5 1003.95,531.95 1003.95,487.05 998.5,444.4 987.55,404 986.3,399.45 985,394.9 983.65,390.4 979.55,377.1 974.85,364.05 969.6,351.25z"/>
    </g>
  </g>
  <g id="circle">
    <g id="shape2">
      <path id="path1" fill="#333333" fill-opacity="1" d="M966.05,378.4 C963.55,369.65 960.7,360.8 957.6,352.05 951.15,333.8 943.45,316 934.45,298.4 930.65,291 926.5,283.45 922.15,276 901.85,241.5 876.35,208.8 845.8,178.25 773.2,105.65 688.65,61.6 592.15,46.2 575.9,43.6 559.35,41.8 542.1,40.85 532.4,40.3 522.25,40 512,40 502.65,40 493.4,40.25 484.1,40.75 365.75,46.85 263.8,92.7 178.25,178.25 Q40,316.5 40,512 C40,642.35 86.1,753.65 178.25,845.8 263.8,931.3 365.75,977.15 484.1,983.3 484.25,983.3 484.35,983.3 484.5,983.3 493,983.75 501.1,984 509,984 510.2,984 511.1,984 512,984 513.9,984 515.8,984 517.45,984 526,983.9 534.25,983.6 542.1,983.2 544.6,983.05 546.85,982.9 549.05,982.75 569.25,981.3 588.95,978.7 607.75,975.05 615.7,973.5 623.55,971.75 631.15,969.9 711.95,949.6 783.3,908.3 845.8,845.8 894.4,797.2 930.2,743.3 953.15,684 969.75,641.1 979.7,595.35 982.9,546.55 983.25,541.35 983.5,535.95 983.7,530.5 983.9,524.45 984,518.25 984,512 984,511.35 984,510.65 984,510 984,509.65 984,509.35 984,509 983.8,468.35 979.05,429.5 969.7,392 968.6,387.65 967.35,383 966.05,378.4z"/>
    </g>
  </g>
  <g id="ico-shadow">
    <g id="shape4">
      <path id="path2" fill="#000000" fill-opacity="0.2" d="M982.9,546.55 L664,227.65 212.85,631 263.3,681.45 282,748.55 517.425,983.975 Q529.897,983.857 542.1,983.2 C544.6,983.05 546.85,982.9 549.05,982.75 569.25,981.3 588.95,978.7 607.75,975.05 615.7,973.5 623.55,971.75 631.15,969.9 711.95,949.6 783.3,908.3 845.8,845.8 894.4,797.2 930.2,743.3 953.15,684 969.75,641.1 979.7,595.35 982.9,546.55z"/>
    </g>
  </g>
  <g id="ico">
    <g id="Symbole.__2012_1" overflow="visible">
      <g id="Calque.__202">
        <g id="shape19">
          <path id="path14" fill="#F1F1F1" fill-opacity="1" d="M828.45,410.05 C828.45,401.8 825.5,394.7 819.65,388.85 813.8,383 806.7,380.05 798.45,380.05 L672,380.05 465.8,380.05 C457.55,380.05 450.45,383 444.6,388.85 438.75,394.7 435.8,401.8 435.8,410.05 L435.8,636 435.8,688.05 C435.8,696.3 438.75,703.4 444.6,709.25 450.45,715.1 457.55,718.05 465.8,718.05 L623.7,718.05 724.75,819.1 C729.45,823.8 735.15,826.15 741.8,826.15 748.45,826.15 754.15,823.8 758.85,819.1 763.55,814.4 765.9,808.7 765.9,802.05 L765.9,718.05 798.45,718.05 C806.7,718.05 813.8,715.1 819.65,709.25 825.5,703.4 828.45,696.3 828.45,688.05 L828.45,410.05z M534.5,578.8 C524.95,578.8 516.85,575.4 510.1,568.65 503.35,561.9 500,553.8 500,544.25 500,534.75 503.35,526.6 510.1,519.85 516.85,513.1 524.95,509.75 534.5,509.75 544.05,509.75 552.15,513.1 558.9,519.85 565.65,526.6 569,534.75 569,544.25 569,553.8 565.65,561.9 558.9,568.65 552.15,575.4 544.05,578.8 534.5,578.8z M667,544.25 C667,553.8 663.6,561.9 656.85,568.65 650.1,575.4 642,578.8 632.5,578.8 622.95,578.8 614.8,575.4 608.05,568.65 601.3,561.9 597.95,553.8 597.95,544.25 597.95,534.75 601.3,526.6 608.05,519.85 614.8,513.1 622.95,509.75 632.5,509.75 642,509.75 650.1,513.1 656.85,519.85 663.6,526.6 667,534.75 667,544.25z M765,544.25 C765,553.8 761.6,561.9 754.85,568.65 748.1,575.4 740,578.8 730.45,578.8 720.95,578.8 712.8,575.4 706.05,568.65 699.3,561.9 695.95,553.8 695.95,544.25 695.95,534.75 699.3,526.6 706.05,519.85 712.8,513.1 720.95,509.75 730.45,509.75 740,509.75 748.1,513.1 754.85,519.85 761.6,526.6 765,534.75 765,544.25z"/>
          <path id="path15" fill="#999999" fill-opacity="1" d="M534.5,578.8 C544.05,578.8 552.15,575.4 558.9,568.65 565.65,561.9 569,553.8 569,544.25 569,534.75 565.65,526.6 558.9,519.85 552.15,513.1 544.05,509.75 534.5,509.75 524.95,509.75 516.85,513.1 510.1,519.85 503.35,526.6 500,534.75 500,544.25 500,553.8 503.35,561.9 510.1,568.65 516.85,575.4 524.95,578.8 534.5,578.8z"/>
          <path id="path16" fill="#999999" fill-opacity="1" d="M667,544.25 C667,534.75 663.6,526.6 656.85,519.85 650.1,513.1 642,509.75 632.5,509.75 622.95,509.75 614.8,513.1 608.05,519.85 601.3,526.6 597.95,534.75 597.95,544.25 597.95,553.8 601.3,561.9 608.05,568.65 614.8,575.4 622.95,578.8 632.5,578.8 642,578.8 650.1,575.4 656.85,568.65 663.6,561.9 667,553.8 667,544.25z"/>
          <path id="path17" fill="#999999" fill-opacity="1" d="M765,544.25 C765,534.75 761.6,526.6 754.85,519.85 748.1,513.1 740,509.75 730.45,509.75 720.95,509.75 712.8,513.1 706.05,519.85 699.3,526.6 695.95,534.75 695.95,544.25 695.95,553.8 699.3,561.9 706.05,568.65 712.8,575.4 720.95,578.8 730.45,578.8 740,578.8 748.1,575.4 754.85,568.65 761.6,561.9 765,553.8 765,544.25z"/>
          <path id="path18" fill="#53A7D4" fill-opacity="1" d="M672,248 C672,239.75 669.05,232.65 663.2,226.8 657.35,220.95 650.25,218 642,218 L229.35,218 C221.1,218 214,220.95 208.15,226.8 202.3,232.65 199.35,239.75 199.35,248 L199.35,606 C199.35,614.25 202.3,621.35 208.15,627.2 214,633.05 221.1,636 229.35,636 L261.9,636 261.9,720 C261.9,726.65 264.25,732.35 268.95,737.05 273.65,741.75 279.35,744.1 286,744.1 292.65,744.1 298.35,741.75 303.05,737.05 L404.1,636 435.8,636 435.8,410.05 C435.8,401.8 438.75,394.7 444.6,388.85 450.45,383 457.55,380.05 465.8,380.05 L672,380.05 672,248z"/>
        </g>
      </g>
    </g>
  </g>
</svg>