<?xml version="1.0" encoding="utf-8"?>
<!-- Generator: flash2svg, http://dissentgraphics.com/tools/flash2svg -->
<svg id="OpenOffice" image-rendering="optimizeSpeed" baseProfile="basic" version="1.1" style="background-color:#FFFFFF" x="0px" y="0px" width="1024px" height="1024px" viewBox="0 0 1024 1024" enable-background="new 0 0 1024 1024" xmlns="http://www.w3.org/2000/svg" xmlns:xlink="http://www.w3.org/1999/xlink">
  <defs transform="matrix(1 0 0 1 0 0) "/>
  <g id="shadow">
    <g id="shape">
      <path id="path" fill="#000000" fill-opacity="0.09803921568627451" d="M969.6,351.25 Q961,330.4 950.2,310.4 C946.15,302.85 941.85,295.35 937.3,288 917.75,256.3 893.9,226.35 865.75,198.2 773.6,106.05 662.3,59.95 531.95,59.95 401.6,59.95 290.35,106.05 198.2,198.2 106.05,290.35 59.95,401.6 59.95,531.95 59.95,662.3 106.05,773.6 198.2,865.75 290.35,957.9 401.6,1003.95 531.95,1003.95 662.3,1003.95 773.6,957.9 865.75,865.75 916.5,814.95 953.3,758.35 976.1,696 994.65,645.15 1003.95,590.5 1003.95,531.95 1003.95,487.05 998.5,444.4 987.55,404 986.3,399.45 985,394.9 983.65,390.4 979.55,377.1 974.85,364.05 969.6,351.25z"/>
    </g>
  </g>
  <g id="circle">
    <g id="shape2">
      <path id="path1" fill="#3989B9" fill-opacity="1" d="M969.7,392 C968.6,387.65 967.35,383 966.05,378.4 963.8,370.55 961.3,362.6 958.5,354.6 958.2,353.85 957.9,352.95 957.6,352.05 951.15,333.8 943.45,316 934.45,298.4 930.65,291 926.5,283.45 922.15,276 901.85,241.5 876.35,208.8 845.8,178.25 773.35,105.8 689.05,61.8 593,46.35 592.7,46.3 592.4,46.25 592.15,46.2 575.9,43.6 559.35,41.8 542.1,40.85 532.4,40.3 522.25,40 512,40 502.65,40 493.4,40.25 484.1,40.75 365.75,46.85 263.8,92.7 178.25,178.25 121.75,234.75 82.6,298.4 60.8,368.95 Q40,436.15 40,512 C40,642.35 86.1,753.65 178.25,845.8 206.65,874.2 236.9,898.25 268.05,917.35 271.4,919.35 274.3,921.1 277.2,922.8 296.95,934.35 316.85,944.05 337.35,952.1 343.8,954.7 349.95,956.95 356.15,959.05 372.35,964.6 388.9,969.2 405.15,972.8 431.1,978.4 457.2,981.9 484.1,983.3 484.25,983.3 484.35,983.3 484.5,983.3 493,983.75 501.1,984 509,984 510.2,984 511.1,984 512,984 522.3,984 532.5,983.7 542.1,983.2 544.6,983.05 546.85,982.9 549.05,982.75 569.25,981.3 588.95,978.7 607.75,975.05 615.7,973.5 623.55,971.75 631.15,969.9 648.5,965.55 665.45,960.2 681.95,953.95 694.35,949.2 706.5,943.9 718.4,938.1 731.2,931.8 743.75,924.9 756,917.4 759.05,915.5 762.05,913.6 765.05,911.65 779.7,902.15 793.7,891.9 807.3,880.75 820.55,869.85 833.35,858.25 845.8,845.8 857.65,833.95 868.75,821.75 879.1,809.3 911.1,770.55 935.8,728.8 953.15,684 957.1,673.75 960.7,663.35 963.9,652.85 966.1,645.55 968.15,638.15 970.05,630.55 977.9,598.7 982.5,565.3 983.7,530.5 983.9,524.45 984,518.25 984,512 984,511.35 984,510.65 984,510 984,509.65 984,509.35 984,509 983.8,468.35 979.05,429.5 969.7,392z"/>
    </g>
  </g>
  <mask id="head">
    <g id="g">
      <g id="shape16">
        <path id="path12" fill="#FFFFFF" fill-opacity="1" d="M958.5,354.6 C958.2,353.85 957.9,352.95 957.6,352.05 951.15,333.8 943.45,316 934.45,298.4 930.65,291 926.5,283.45 922.15,276 901.85,241.5 876.35,208.8 845.8,178.25 773.35,105.8 689.05,61.8 593,46.35 592.7,46.3 592.4,46.25 592.15,46.2 575.9,43.6 559.35,41.8 542.1,40.85 532.4,40.3 522.25,40 512,40 502.65,40 493.4,40.25 484.1,40.75 365.75,46.85 263.8,92.7 178.25,178.25 121.75,234.75 82.6,298.4 60.8,368.95 Q40,436.15 40,512 C40,642.35 86.1,753.65 178.25,845.8 206.65,874.2 236.9,898.25 268.05,917.35 271.4,919.35 274.3,921.1 277.2,922.8 296.95,934.35 316.85,944.05 337.35,952.1 343.8,954.7 349.95,956.95 356.15,959.05 372.35,964.6 388.9,969.2 405.15,972.8 431.1,978.4 457.2,981.9 484.1,983.3 484.25,983.3 484.35,983.3 484.5,983.3 493,983.75 501.1,984 509,984 510.2,984 511.1,984 512,984 522.3,984 532.5,983.7 542.1,983.2 544.6,983.05 546.85,982.9 549.05,982.75 569.25,981.3 588.95,978.7 607.75,975.05 615.7,973.5 623.55,971.75 631.15,969.9 661.6,962.25 690.7,951.6 718.4,938.1 731.2,931.8 743.75,924.9 756,917.4 759.05,915.5 762.05,913.6 765.05,911.65 779.7,902.15 793.7,891.9 807.3,880.75 820.55,869.85 833.35,858.25 845.8,845.8 857.65,833.95 868.75,821.75 879.1,809.3 911.1,770.55 935.8,728.8 953.15,684 957.1,673.75 960.7,663.35 963.9,652.85 966.1,645.55 968.15,638.15 970.05,630.55 977.9,598.7 982.5,565.3 983.7,530.5 983.9,524.45 984,518.25 984,512 984,511.35 984,510.65 984,510 984,509.65 984,509.35 984,509 983.8,468.35 979.05,429.5 969.7,392 968.6,387.65 967.35,383 966.05,378.4 963.8,370.55 961.3,362.6 958.5,354.6z"/>
      </g>
    </g>
  </mask>
  <g id="masked" mask="url(#head)">
    <g id="bubles">
      <g id="shape4">
        <path id="path2" fill="#FFFFFF" fill-opacity="0.2980392156862745" d="M887.15,530.85 C871.55,520.25 854.15,515 835.05,515 809.25,515 787.25,524 769.1,542.2 751,560.5 741.9,582.5 741.9,608.15 L742.15,616 C728.05,622.5 716.75,632.45 708.15,645.75 699.5,659 695.2,673.7 695.2,689.7 695.2,712.15 703.15,731.4 719.05,747.45 735.1,763.3 754.35,771.3 776.75,771.3 L974.75,771.3 C994.1,771.3 1010.65,764.45 1024.35,750.65 1037.9,737.1 1044.7,720.65 1044.7,701.35 1044.7,684.95 1039.6,670.4 1029.4,657.7 1019.2,645.05 1006.3,636.95 990.7,633.3 995.7,625.7 998.2,617.25 998.2,608.15 998.2,595.3 993.65,584.35 984.55,575.25 975.4,566 964.35,561.5 951.5,561.5 939.85,561.5 929.7,565.25 921.2,572.75 914.15,555.55 902.85,541.6 887.15,530.85z M428.4,83.45 C428.4,73.7 424.95,65.35 418.05,58.45 411.1,51.45 402.7,48 392.95,48 384.1,48 376.4,50.85 369.95,56.55 364.6,43.5 356,32.9 344.1,24.75 332.25,16.7 319.05,12.7 304.55,12.7 284.95,12.7 268.25,19.55 254.45,33.35 240.7,47.25 233.8,63.95 233.8,83.45 L234,89.4 C223.3,94.35 214.7,101.9 208.2,112 201.6,122.05 198.35,133.2 198.35,145.35 198.35,162.4 204.4,177 216.45,189.2 228.65,201.25 243.25,207.3 260.25,207.3 L410.6,207.3 C425.3,207.3 437.85,202.1 448.25,191.65 458.55,181.35 463.7,168.85 463.7,154.2 463.7,141.75 459.85,130.7 452.1,121.05 444.35,111.45 434.55,105.3 422.7,102.55 426.5,96.75 428.4,90.35 428.4,83.45z M160.6,378.15 C146.9,378.15 135.25,382.95 125.65,392.6 116.05,402.25 111.25,413.9 111.25,427.5 L111.4,431.65 C103.9,435.1 97.9,440.35 93.4,447.4 88.8,454.45 86.5,462.2 86.5,470.7 86.5,482.55 90.75,492.75 99.15,501.25 107.65,509.65 117.85,513.9 129.7,513.9 L234.55,513.9 C244.8,513.9 253.55,510.25 260.8,502.95 268,495.8 271.55,487.05 271.55,476.85 271.55,468.15 268.85,460.45 263.5,453.75 258.1,447.05 251.25,442.75 242.95,440.85 245.65,436.8 246.95,432.35 246.95,427.5 246.95,420.7 244.55,414.9 239.75,410.05 Q232.45,402.8 222.25,402.8 C216.05,402.8 210.7,404.75 206.2,408.75 202.45,399.65 196.45,392.25 188.2,386.6 179.9,380.95 170.7,378.15 160.6,378.15z"/>
      </g>
    </g>
    <g id="svg2">
      <g id="shape10">
        <path id="path7" fill="#FFFFFF" fill-opacity="1" d="M112.15,519.875 L112.175,519.85 112.15,519.85 112.15,519.875"/>
        <path id="path8" fill="#FFFFFF" fill-opacity="1" d="M653.7,534.2 C653.85,534.2 654,534.2 654.15,534.1 653.75,534.2 653.35,534.2 652.95,534.3 497.1,554.55 379.2,613.1 299,710 221.65,616.6 109.25,558.7 -38.55,536.55 -5.85,549 49.5,588.35 127.4,654.6 205.2,720.7 261.3,785.2 295.75,848.05 332.1,789.85 379.55,736.55 438.3,688.1 497.05,639.6 545.9,602 585,575.45 624.1,548.85 647,535.05 653.7,534.2z M797.4,347.7 C814.55,336.05 824.8,329.85 828.15,329.1 757.65,338.25 704.3,364.75 668,408.6 633,366.35 582.15,340.15 515.3,330.1 530.1,335.75 555.15,353.55 590.4,383.55 625.6,413.45 650.95,442.6 666.55,471.05 683,444.7 704.45,420.6 731.05,398.7 757.6,376.75 779.7,359.75 797.4,347.7z"/>
        <path id="path9" fill="#FFFFFF" fill-opacity="1" d="M828.45,329.05 C828.55,329.05 828.6,329.05 828.65,329 828.55,329.05 828.45,329.05 828.3,329.1 828.35,329.05 828.4,329.05 828.45,329.05"/>
      </g>
    </g>
  </g>
</svg>