<?xml version="1.0" encoding="utf-8"?>
<!-- Generator: flash2svg, http://dissentgraphics.com/tools/flash2svg -->
<svg id="Photo-Booth" image-rendering="optimizeSpeed" baseProfile="basic" version="1.1" style="background-color:#FFFFFF" x="0px" y="0px" width="1024px" height="1024px" viewBox="0 0 1024 1024" enable-background="new 0 0 1024 1024" xmlns="http://www.w3.org/2000/svg" xmlns:xlink="http://www.w3.org/1999/xlink">
  <defs transform="matrix(1 0 0 1 0 0) "/>
  <g id="shadow">
    <g id="shape">
      <path id="path" fill="#000000" fill-opacity="0.09803921568627451" d="M969.6,351.25 Q961,330.4 950.2,310.4 C946.15,302.85 941.85,295.35 937.3,288 917.75,256.3 893.9,226.35 865.75,198.2 773.6,106.05 662.3,59.95 531.95,59.95 401.6,59.95 290.35,106.05 198.2,198.2 106.05,290.35 59.95,401.6 59.95,531.95 59.95,662.3 106.05,773.6 198.2,865.75 290.35,957.9 401.6,1003.95 531.95,1003.95 662.3,1003.95 773.6,957.9 865.75,865.75 916.5,814.95 953.3,758.35 976.1,696 994.65,645.15 1003.95,590.5 1003.95,531.95 1003.95,487.05 998.5,444.4 987.55,404 986.3,399.45 985,394.9 983.65,390.4 979.55,377.1 974.85,364.05 969.6,351.25z"/>
    </g>
  </g>
  <g id="bg">
    <g id="shape2">
      <path id="path1" fill="#EE534D" fill-opacity="1" d="M969.7,392 C968.6,387.65 967.35,383 966.05,378.4 963.5,369.55 960.7,360.75 957.65,352.1 L957.625,352.1 L66.4,352.1 Q40,426.585 40,512 C40,573.05 50.1,629.9 70.2,682.2 L70.175,682.2 L953.85,682.2 C963.05,658.1 970.15,633.15 975.2,607.3 979.95,582.55 982.8,556.9 983.7,530.5 983.9,524.45 984,518.25 984,512 984,511.35 984,510.65 984,510 984,509.65 984,509.35 984,509 983.8,468.35 979.05,429.5 969.7,392z"/>
      <path id="path2" fill="#333333" fill-opacity="1" d="M957.65,352.1 C957.6,352.1 957.6,352.1 957.6,352.05 951.15,333.8 943.45,316 934.45,298.4 930.65,291 926.5,283.45 922.15,276 901.85,241.5 876.35,208.8 845.8,178.25 773.2,105.65 688.65,61.6 592.15,46.2 575.9,43.6 559.35,41.8 542.1,40.85 532.4,40.3 522.25,40 512,40 502.65,40 493.4,40.25 484.1,40.75 365.75,46.85 263.8,92.7 178.25,178.25 126.3,230.2 89,288.2 66.4,352.1 L957.625,352.1 M953.15,684 C953.4,683.4 953.6,682.8 953.85,682.2 L70.175,682.2 L70.2,682.2 C93.3,742.35 129.25,796.8 178.25,845.8 263.8,931.3 365.75,977.15 484.1,983.3 484.25,983.3 484.35,983.3 484.5,983.3 493,983.75 501.1,984 509,984 510.2,984 511.1,984 512,984 522.3,984 532.5,983.7 542.1,983.2 544.6,983.05 546.85,982.9 549.05,982.75 568.2,981.35 586.95,979 604.65,975.65 605.85,975.45 606.8,975.25 607.75,975.05 615.7,973.5 623.55,971.75 631.15,969.9 711.95,949.6 783.3,908.3 845.8,845.8 894.4,797.2 930.2,743.3 953.15,684z"/>
    </g>
  </g>
  <g id="ico-shadow">
    <g id="shape8">
      <path id="path5" fill="#000000" fill-opacity="0.2" d="M953.15,684 C953.4,683.4 953.6,682.8 953.85,682.2 963.05,658.1 970.15,633.15 975.2,607.3 L975.175,607.275 L720,352.1 337,708 604.65,975.65 C605.85,975.45 606.8,975.25 607.75,975.05 615.7,973.5 623.55,971.75 631.15,969.9 711.95,949.6 783.3,908.3 845.8,845.8 Q918.7,772.85 953.15,684z"/>
    </g>
  </g>
  <g id="ico">
    <g id="Symbole.__206_1" overflow="visible">
      <g id="Calque.__206">
        <g id="Symbole.__208_2" overflow="visible">
          <g id="Calque.__207">
            <g id="shape34">
              <path id="path36" fill="#333333" fill-opacity="1" d="M774.15,533.15 C774.15,466.6 750.6,409.75 703.55,362.7 656.5,315.65 599.7,292.15 533.15,292.15 466.6,292.15 409.75,315.65 362.7,362.7 315.65,409.75 292.15,466.6 292.15,533.15 292.15,599.7 315.65,656.5 362.7,703.55 409.75,750.6 466.6,774.15 533.15,774.15 599.7,774.15 656.5,750.6 703.55,703.55 750.6,656.5 774.15,599.7 774.15,533.15z M533.15,456.15 C554.4,456.15 572.5,463.65 587.55,478.7 602.6,493.75 610.15,511.9 610.15,533.15 610.15,554.4 602.6,572.5 587.55,587.55 572.5,602.6 554.4,610.15 533.15,610.15 511.9,610.15 493.75,602.6 478.7,587.55 463.65,572.5 456.15,554.4 456.15,533.15 456.15,511.9 463.65,493.75 478.7,478.7 493.75,463.65 511.9,456.15 533.15,456.15z M659.15,407.15 C624.4,372.35 582.4,354.95 533.2,354.95 488.55,354.95 449.85,369.25 417.05,397.85 414.4,400.2 411.75,402.6 409.15,405.15 408.5,405.8 407.8,406.5 407.15,407.15 L391.9,391.9 391.9,391.85 C392.55,391.2 393.2,390.55 393.9,389.9 396.45,387.35 399.1,384.9 401.75,382.55 438.8,349.75 482.6,333.35 533.2,333.35 588.4,333.35 635.5,352.85 674.45,391.9 713.5,430.95 733,478.05 733,533.2 733,583.8 716.6,627.6 683.75,664.55 681.4,667.2 678.95,669.85 676.45,672.45 675.8,673.1 675.1,673.8 674.45,674.45 L659.2,659.2 659.2,659.15 C659.85,658.5 660.5,657.8 661.15,657.15 663.7,654.55 666.1,651.9 668.45,649.25 697.1,616.5 711.4,577.85 711.4,533.2 711.4,483.95 694,441.95 659.2,407.15 L659.15,407.15z M630.9,435.6 C603.95,408.65 571.4,395.15 533.25,395.15 499.75,395.15 470.55,405.55 445.6,426.4 442.9,428.65 440.25,431.05 437.6,433.6 436.95,434.25 436.25,434.95 435.6,435.6 L420.35,420.35 420.35,420.3 C421,419.65 421.65,419 422.35,418.35 424.95,415.8 427.6,413.4 430.3,411.1 459.45,386.05 493.75,373.55 533.25,373.55 577.3,373.55 614.95,389.15 646.15,420.35 677.3,451.55 692.9,489.2 692.9,533.25 692.9,572.75 680.4,607.05 655.35,636.15 653.05,638.85 650.65,641.5 648.1,644.1 647.45,644.75 646.8,645.45 646.15,646.15 L630.9,630.9 C631.55,630.2 632.2,629.5 632.85,628.85 635.4,626.25 637.8,623.6 640.05,620.85 660.9,595.95 671.3,566.75 671.3,533.25 671.3,495.1 657.8,462.55 630.85,435.6 L630.9,435.6z M619.5,615.5 C618.85,616.15 618.2,616.85 617.55,617.55 L602.3,602.3 C602.95,601.6 603.6,600.9 604.25,600.25 606.8,597.6 609.15,594.85 611.3,592.1 624.35,575.15 630.85,555.55 630.85,533.2 630.85,506.25 621.35,483.25 602.3,464.2 583.2,445.1 560.15,435.55 533.2,435.55 510.9,435.55 491.3,442.1 474.35,455.15 471.55,457.3 468.85,459.65 466.2,462.2 465.5,462.85 464.8,463.5 464.15,464.15 L448.9,448.9 C449.55,448.25 450.25,447.6 450.95,446.95 453.55,444.4 456.25,442.05 459,439.8 480.15,422.55 504.9,413.95 533.2,413.95 566.1,413.95 594.2,425.6 617.55,448.95 640.8,472.2 652.45,500.3 652.45,533.2 652.45,561.55 643.85,586.3 626.65,607.45 624.4,610.2 622.05,612.85 619.5,615.5z"/>
              <path id="path37" fill="none" stroke="#FFFFFF" stroke-opacity="1" stroke-width="42.3" stroke-linecap="round" stroke-linejoin="round" d="M774.15,533.15 C774.15,466.6 750.6,409.75 703.55,362.7 656.5,315.65 599.7,292.15 533.15,292.15 466.6,292.15 409.75,315.65 362.7,362.7 315.65,409.75 292.15,466.6 292.15,533.15 292.15,599.7 315.65,656.5 362.7,703.55 409.75,750.6 466.6,774.15 533.15,774.15 599.7,774.15 656.5,750.6 703.55,703.55 750.6,656.5 774.15,599.7 774.15,533.15z"/>
              <path id="path38" fill="#66CCCC" fill-opacity="1" d="M533.15,456.15 C511.9,456.15 493.75,463.65 478.7,478.7 463.65,493.75 456.15,511.9 456.15,533.15 456.15,554.4 463.65,572.5 478.7,587.55 493.75,602.6 511.9,610.15 533.15,610.15 554.4,610.15 572.5,602.6 587.55,587.55 602.6,572.5 610.15,554.4 610.15,533.15 610.15,511.9 602.6,493.75 587.55,478.7 572.5,463.65 554.4,456.15 533.15,456.15z M554.2,533.15 C554.2,538.95 552.15,543.9 548,548 543.9,552.15 538.95,554.2 533.15,554.2 527.35,554.2 522.4,552.15 518.25,548 514.15,543.9 512.1,538.95 512.1,533.15 512.1,527.35 514.15,522.4 518.25,518.25 522.4,514.15 527.35,512.1 533.15,512.1 538.95,512.1 543.9,514.15 548,518.25 552.15,522.4 554.2,527.35 554.2,533.15z"/>
              <path id="path39" fill="#FFFFFF" fill-opacity="1" d="M554.2,533.15 C554.2,527.35 552.15,522.4 548,518.25 543.9,514.15 538.95,512.1 533.15,512.1 527.35,512.1 522.4,514.15 518.25,518.25 514.15,522.4 512.1,527.35 512.1,533.15 512.1,538.95 514.15,543.9 518.25,548 522.4,552.15 527.35,554.2 533.15,554.2 538.95,554.2 543.9,552.15 548,548 552.15,543.9 554.2,538.95 554.2,533.15z"/>
              <path id="path40" fill="#666666" fill-opacity="1" d="M659.15,407.15 L659.2,407.15 C694,441.95 711.4,483.95 711.4,533.2 711.4,577.85 697.1,616.5 668.45,649.25 666.1,651.9 663.7,654.55 661.15,657.15 660.5,657.8 659.85,658.5 659.2,659.15 L659.2,659.2 674.45,674.45 C675.1,673.8 675.8,673.1 676.45,672.45 678.95,669.85 681.4,667.2 683.75,664.55 716.6,627.6 733,583.8 733,533.2 733,478.05 713.5,430.95 674.45,391.9 635.5,352.85 588.4,333.35 533.2,333.35 482.6,333.35 438.8,349.75 401.75,382.55 399.1,384.9 396.45,387.35 393.9,389.9 393.2,390.55 392.55,391.2 391.9,391.85 L391.9,391.9 407.15,407.15 C407.8,406.5 408.5,405.8 409.15,405.15 411.75,402.6 414.4,400.2 417.05,397.85 449.85,369.25 488.55,354.95 533.2,354.95 582.4,354.95 624.4,372.35 659.15,407.15z"/>
              <path id="path41" fill="#666666" fill-opacity="1" d="M630.9,435.6 L630.85,435.6 C657.8,462.55 671.3,495.1 671.3,533.25 671.3,566.75 660.9,595.95 640.05,620.85 637.8,623.6 635.4,626.25 632.85,628.85 632.2,629.5 631.55,630.2 630.9,630.9 L646.15,646.15 C646.8,645.45 647.45,644.75 648.1,644.1 650.65,641.5 653.05,638.85 655.35,636.15 680.4,607.05 692.9,572.75 692.9,533.25 692.9,489.2 677.3,451.55 646.15,420.35 614.95,389.15 577.3,373.55 533.25,373.55 493.75,373.55 459.45,386.05 430.3,411.1 427.6,413.4 424.95,415.8 422.35,418.35 421.65,419 421,419.65 420.35,420.3 L420.35,420.35 435.6,435.6 C436.25,434.95 436.95,434.25 437.6,433.6 440.25,431.05 442.9,428.65 445.6,426.4 470.55,405.55 499.75,395.15 533.25,395.15 571.4,395.15 603.95,408.65 630.9,435.6z"/>
              <path id="path42" fill="#666666" fill-opacity="1" d="M619.5,615.5 C622.05,612.85 624.4,610.2 626.65,607.45 643.85,586.3 652.45,561.55 652.45,533.2 652.45,500.3 640.8,472.2 617.55,448.95 594.2,425.6 566.1,413.95 533.2,413.95 504.9,413.95 480.15,422.55 459,439.8 456.25,442.05 453.55,444.4 450.95,446.95 450.25,447.6 449.55,448.25 448.9,448.9 L464.15,464.15 C464.8,463.5 465.5,462.85 466.2,462.2 468.85,459.65 471.55,457.3 474.35,455.15 491.3,442.1 510.9,435.55 533.2,435.55 560.15,435.55 583.2,445.1 602.3,464.2 621.35,483.25 630.85,506.25 630.85,533.2 630.85,555.55 624.35,575.15 611.3,592.1 609.15,594.85 606.8,597.6 604.25,600.25 603.6,600.9 602.95,601.6 602.3,602.3 L617.55,617.55 C618.2,616.85 618.85,616.15 619.5,615.5z"/>
            </g>
          </g>
        </g>
        <g id="Symbole.__210_2" overflow="visible">
          <g id="Calque.__208">
            <g id="shape35">
              <path id="path43" fill="#FFFFFF" fill-opacity="1" d="M246.75,169.75 L246.7,169.8 C237.75,178.85 233.3,189.75 233.3,202.5 233.3,215.35 237.8,226.25 246.75,235.2 255.8,244.25 266.75,248.8 279.5,248.8 292.25,248.8 303.15,244.25 312.15,235.2 312.2,235.2 312.2,235.2 312.2,235.15 321.2,226.2 325.7,215.3 325.75,202.5 325.75,189.75 321.25,178.85 312.2,169.8 303.2,160.8 292.3,156.3 279.5,156.3 266.75,156.3 255.8,160.8 246.75,169.75z M307.3,202.5 C307.3,210.2 304.6,216.75 299.15,222.1 L299.1,222.15 C293.7,227.6 287.15,230.3 279.5,230.35 271.8,230.3 265.25,227.6 259.8,222.15 254.4,216.75 251.7,210.2 251.75,202.5 251.7,194.85 254.4,188.3 259.75,182.85 259.8,182.85 259.8,182.85 259.8,182.8 265.25,177.4 271.85,174.7 279.5,174.75 287.15,174.7 293.7,177.4 299.15,182.85 L299.125,182.825 Q307.275,190.973 307.275,202.5z"/>
              <path id="path44" fill="#FF6666" fill-opacity="0.9882352941176471" d="M307.275,202.5 Q307.275,190.973 299.125,182.825 L299.15,182.85 C293.7,177.4 287.15,174.7 279.5,174.75 271.85,174.7 265.25,177.4 259.8,182.8 259.8,182.85 259.8,182.85 259.75,182.85 254.4,188.3 251.7,194.85 251.75,202.5 251.7,210.2 254.4,216.75 259.8,222.15 265.25,227.6 271.8,230.3 279.5,230.35 287.15,230.3 293.7,227.6 299.1,222.15 L299.15,222.1 C304.6,216.75 307.3,210.2 307.3,202.5"/>
            </g>
          </g>
        </g>
      </g>
    </g>
  </g>
</svg>