<?xml version="1.0" encoding="utf-8"?>
<!-- Generator: flash2svg, http://dissentgraphics.com/tools/flash2svg -->
<svg xmlns:xlink="http://www.w3.org/1999/xlink" id="Pocket" image-rendering="optimizeSpeed" baseProfile="basic" version="1.1" style="background-color:#ffffff" x="0px" y="0px" width="1024px" height="1024px" viewBox="0 0 1024 1024" enable-background="new 0 0 1024 1024" xmlns="http://www.w3.org/2000/svg">
  <defs transform="matrix(1 0 0 1 0 0) "/>
  <g id="shadow">
    <g id="shape">
      <path id="path" fill="#000000" fill-opacity="0.09803921568627451" d="M969.65,351.3 Q961.05,330.45 950.25,310.45 C946.2,302.9 941.9,295.4 937.35,288.05 917.8,256.35 893.95,226.4 865.8,198.25 773.65,106.1 662.35,60 532,60 401.65,60 290.4,106.1 198.25,198.25 106.1,290.4 60,401.65 60,532 60,662.35 106.1,773.65 198.25,865.8 290.4,957.95 401.65,1004 532,1004 662.35,1004 773.65,957.95 865.8,865.8 916.55,815 953.35,758.4 976.15,696.05 994.7,645.2 1004,590.55 1004,532 1004,487.1 998.55,444.45 987.6,404.05 986.35,399.5 985.05,394.95 983.7,390.45 979.6,377.15 974.9,364.1 969.65,351.3z"/>
    </g>
  </g>
  <g id="circle">
    <g id="shape2">
      <path id="path1" fill="#79A8AC" fill-opacity="1" d="M982.1,517 Q982.1,514.55 982.1,512.05 C982.1,381.7 936.05,270.45 843.9,178.3 752,86.45 641.05,40.35 511.1,40.1 L511.1,515.05 513.1,515.05 513.1,517 982.1,517z"/>
      <path id="path2" fill="#A2D8AB" fill-opacity="1" d="M511.1,40.1 C510.75,40.1 510.45,40.1 510.1,40.1 379.75,40.1 268.5,86.15 176.35,178.3 84.2,270.45 38.15,381.7 38.15,512.05 38.15,513.05 38.15,514.05 38.15,515.05 L511.1,515.05 511.1,40.1z"/>
      <path id="path3" fill="#DD585E" fill-opacity="1" d="M513.1,517 L513.1,515.05 511.1,515.05 38.15,515.05 C38.85,644.15 84.9,754.4 176.35,845.85 268.5,938 379.75,984.05 510.1,984.05 510.45,984.05 510.75,984.05 511.1,984.05 511.75,984.05 512.45,984.05 513.1,984.05 L513.1,517z"/>
      <path id="path4" fill="#F3B859" fill-opacity="1" d="M513.1,517 L513.1,984.05 C642.2,983.3 752.45,937.25 843.9,845.85 934.85,754.85 980.95,645.25 982.1,517 L513.1,517z"/>
    </g>
  </g>
  <g id="inner-circle">
    <g id="shape8">
      <path id="path5" fill="#FFFFFF" fill-opacity="1" d="M862.45,528.85 Q862.8,520.524 862.8,512.05 C862.8,415.2 828.55,332.5 760.1,264.05 691.6,195.6 608.9,161.35 512.05,161.35 415.2,161.35 332.5,195.6 264.05,264.05 195.6,332.5 161.35,415.2 161.35,512.05 161.35,608.9 195.6,691.6 264.05,760.1 332.5,828.55 415.2,862.8 512.05,862.8 543.45,862.8 573.35,859.2 601.8,852 661,837 713.8,806.35 760.1,760.1 824.5,695.65 858.65,618.65 862.45,528.85z"/>
    </g>
  </g>
  <g id="inner-circle1">
    <g id="shape10">
      <path id="path6" fill="#000000" fill-opacity="0.2" d="M862.45,528.85 Q862.8,520.524 862.8,512.05 C862.8,496.4 861.9,481.1 860.1,465.9 L860.075,465.875 L723.05,328.85 358.05,634.9 579.925,856.775 L579.95,856.8 C587.5,855.4 594.7,853.8 601.8,852 661,837 713.8,806.35 760.1,760.1 824.5,695.65 858.65,618.65 862.45,528.85z"/>
    </g>
  </g>
  <g id="ico-shadow">
    <g id="shape12">
      <path id="path7" fill="#DD585E" fill-opacity="1" d="M724.05,329.8 Q719.25,325 712.5,325 L311.55,325 C307.05,325 303.2,326.6 300.05,329.8 296.85,332.95 295.25,336.8 295.25,341.3 L295.3,477.15 C295.3,477.5 295.3,478.45 295.25,479.9 295.25,480.05 295.25,480.25 295.25,480.45 L295.25,482.3 C295.8,542.75 317,593.85 358.75,635.6 401.1,677.95 452.2,699.1 512.05,699.1 571.9,699.1 623,677.95 665.35,635.6 707.15,593.8 728.3,542.7 728.85,482.3 L728.85,480.55 C728.85,480.4 728.85,480.2 728.85,480.05 728.7,472.95 728.7,426.7 728.8,341.3 728.8,336.8 727.2,332.95 724.05,329.8z"/>
    </g>
  </g>
  <g id="ico">
    <g id="shape14">
      <path id="path8" fill="#FFFFFF" fill-opacity="1" d="M654.675,477.575 Q664.844,467.418 664.85,453.05 C664.85,443.5 661.45,435.3 654.7,428.55 647.9,421.75 639.7,418.35 630.15,418.35 620.6,418.35 612.4,421.75 605.65,428.55 L605.625,428.525 L512.05,522.05 418.475,428.475 L418.5,428.5 C411.7,421.7 403.5,418.3 393.95,418.3 384.4,418.3 376.2,421.7 369.45,428.5 362.65,435.25 359.25,443.45 359.25,453 359.25,462.55 362.65,470.75 369.45,477.55 L369.425,477.525 L487.525,595.625 L487.55,595.65 C494.3,602.4 502.5,605.8 512.05,605.8 521.6,605.8 529.8,602.4 536.6,595.65 L536.575,595.625 L654.675,477.575z"/>
    </g>
  </g>
</svg>