<?xml version="1.0" encoding="utf-8"?>
<!-- Generator: flash2svg, http://dissentgraphics.com/tools/flash2svg -->
<svg xmlns:xlink="http://www.w3.org/1999/xlink" id="PushBullet" image-rendering="optimizeSpeed" baseProfile="basic" version="1.1" style="background-color:#ffffff" x="0px" y="0px" width="1024px" height="1024px" viewBox="0 0 1024 1024" enable-background="new 0 0 1024 1024" xmlns="http://www.w3.org/2000/svg">
  <defs transform="matrix(1 0 0 1 0 0) "/>
  <g id="shadow">
    <g id="shape">
      <path id="path" fill="#000000" fill-opacity="0.09803921568627451" d="M965.65,347.3 Q957.05,326.45 946.25,306.45 C942.2,298.9 937.9,291.4 933.35,284.05 913.8,252.35 889.95,222.4 861.8,194.25 769.65,102.1 658.35,56 528,56 397.65,56 286.4,102.1 194.25,194.25 102.1,286.4 56,397.65 56,528 56,658.35 102.1,769.65 194.25,861.8 286.4,953.95 397.65,1000 528,1000 658.35,1000 769.65,953.95 861.8,861.8 912.55,811 949.35,754.4 972.15,692.05 990.7,641.2 1000,586.55 1000,528 1000,483.1 994.55,440.45 983.6,400.05 982.35,395.5 981.05,390.95 979.7,386.45 975.6,373.15 970.9,360.1 965.65,347.3z"/>
    </g>
  </g>
  <g id="BackgroundInner">
    <g id="shape2">
      <path id="path1" fill="#4D8938" fill-opacity="1" d="M985.45,512.05 C985.45,507.45 985.4,502.85 985.25,497.9 982.05,373.75 936,267.05 847,178.05 754.7,85.75 643.25,39.6 512.7,39.6 382.15,39.6 270.75,85.75 178.45,178.05 89.6,266.9 43.5,373.5 40.2,497.85 40.05,502.65 40,507.45 40,512.3 40,517.55 40.1,522.8 40.25,528.05 43.8,651.85 89.9,758.05 178.45,846.6 208.85,877 241.35,902.4 275.65,922.7 334.75,957.55 399.55,977.7 470.4,983.35 484.25,984.5 498.35,985.05 512.7,985.05 600.5,985.05 679.65,964.15 750.05,922.5 784.45,902.1 816.75,876.85 847,846.6 893.9,799.7 928.9,747.85 951.95,691.1 Q985.45,608.65 985.45,512.3 C985.45,512.2 985.45,512.1 985.45,512.05z"/>
    </g>
  </g>
  <g id="LogoBg">
    <g id="shape4">
      <path id="path2" fill="#000000" fill-opacity="0.2" d="M976.775,606.775 L786.05,416.05 410.05,400.05 372.05,362.05 232.05,673.55 542.725,984.225 L542.75,984.25 C618.85,979.9 687.85,959.3 750.05,922.5 784.45,902.1 816.75,876.85 847,846.6 893.9,799.7 928.9,747.85 951.95,691.1 Q968.4,650.612 976.775,606.775z"/>
    </g>
  </g>
  <g id="BackgroundInner1">
    <g id="Symbole.__2010_1" overflow="visible">
      <g id="Calque.__202">
        <g id="shape10">
          <path id="path6" fill="#FFFFFF" fill-opacity="1" d="M665,364.05 L665,363.55 420,363.5 C413.35,363.5 410,366.85 410,373.5 L410,663.5 Q410,673.5 420,673.5 L668.25,672.5 C710.85,672.5 747.2,657.45 777.3,627.3 807.45,597.2 822.5,560.85 822.5,518.25 822.5,475.65 807.45,439.3 777.3,409.15 748.15,380 713.1,364.95 672.25,364.05 L665,364.05z M242,363.5 C235.35,363.5 232,366.85 232,373.5 L232,663.5 C232,670.15 235.35,673.5 242,673.5 L368,673.5 C374.65,673.5 378,670.15 378,663.5 L378,373.5 C378,366.85 374.65,363.5 368,363.5 L242,363.5z"/>
        </g>
      </g>
    </g>
  </g>
</svg>