<?xml version="1.0" encoding="utf-8"?>
<!-- Generator: flash2svg, http://dissentgraphics.com/tools/flash2svg -->
<svg id="Quicktime" image-rendering="optimizeSpeed" baseProfile="basic" version="1.1" style="background-color:#FFFFFF" x="0px" y="0px" width="1024px" height="1024px" viewBox="0 0 1024 1024" enable-background="new 0 0 1024 1024" xmlns="http://www.w3.org/2000/svg" xmlns:xlink="http://www.w3.org/1999/xlink">
  <defs transform="matrix(1 0 0 1 0 0) "/>
  <g id="shadow">
    <g id="shape">
      <path id="path" fill="#000000" fill-opacity="0.09803921568627451" d="M969.6,351.25 Q961,330.4 950.2,310.4 C946.15,302.85 941.85,295.35 937.3,288 917.75,256.3 893.9,226.35 865.75,198.2 773.6,106.05 662.3,59.95 531.95,59.95 401.6,59.95 290.35,106.05 198.2,198.2 106.05,290.35 59.95,401.6 59.95,531.95 59.95,662.3 106.05,773.6 198.2,865.75 290.35,957.9 401.6,1003.95 531.95,1003.95 662.3,1003.95 773.6,957.9 865.75,865.75 916.5,814.95 953.3,758.35 976.1,696 994.65,645.15 1003.95,590.5 1003.95,531.95 1003.95,487.05 998.5,444.4 987.55,404 986.3,399.45 985,394.9 983.65,390.4 979.55,377.1 974.85,364.05 969.6,351.25z"/>
    </g>
  </g>
  <g id="circle">
    <g id="shape2">
      <path id="path1" fill="#798BAF" fill-opacity="1" d="M981.8,574.6 C984.7,552.75 986.15,530.15 986.15,506.95 986.15,375.95 939.8,264.15 847.2,171.4 754.6,78.8 642.65,32.45 511.65,32.45 380.65,32.45 268.7,78.8 176.1,171.4 83.5,264.05 37.1,375.95 37.1,506.95 37.1,638 83.5,749.9 176.1,842.5 268.7,935.15 380.65,981.5 511.65,981.5 534.45,981.5 556.7,980.1 578.4,977.3 Q732.6,957.1 847.2,842.5 C923.4,766.3 968.25,677 981.8,574.6z"/>
    </g>
  </g>
  <g id="ico-shadow">
    <g id="shape4">
      <path id="path2" fill="#000000" fill-opacity="0.2" d="M981.8,574.6 L727.5,320.35 468.15,276.75 300.55,380.9 324.5,723.45 578.4,977.3 C681.05,963.9 770.7,919 847.2,842.5 923.4,766.3 968.25,677 981.8,574.6z"/>
    </g>
  </g>
  <g id="ico">
    <g id="shape6">
      <path id="path3" fill="#FFFFFF" fill-opacity="1" d="M792.7,506.35 C792.7,430.95 763.35,360.15 710,306.8 656.7,253.5 585.85,224.15 510.45,224.15 435.05,224.15 364.2,253.5 310.9,306.8 257.55,360.15 228.2,430.95 228.2,506.35 228.2,581.8 257.55,652.6 310.9,705.95 364.2,759.25 435.05,788.6 510.45,788.6 570.4,788.6 627.45,770.05 675.15,735.7 L675.15,735.675 L728.5,789.8 795.05,789.8 795.05,718.75 743.225,666.175 L743.25,666.2 C775.4,619.45 792.7,564.25 792.7,506.35z M672.85,594.75 L559.3,479.5 C540.4,460.4 509.55,460.2 490.45,479 471.35,497.9 471.05,528.75 489.95,547.85 L605.45,665 C577.55,681.7 545.1,691.3 510.45,691.3 408.5,691.3 325.5,608.35 325.5,506.35 325.5,404.4 408.5,321.55 510.45,321.55 612.4,321.55 695.3,404.4 695.3,506.35 695.3,538.45 687.1,568.65 672.85,594.75z"/>
    </g>
  </g>
</svg>