<?xml version="1.0" encoding="utf-8"?>
<!-- Generator: flash2svg, http://dissentgraphics.com/tools/flash2svg -->
<svg xmlns:xlink="http://www.w3.org/1999/xlink" id="Rdio" image-rendering="optimizeSpeed" baseProfile="basic" version="1.1" style="background-color:#ffffff" x="0px" y="0px" width="1024px" height="1024px" viewBox="0 0 1024 1024" enable-background="new 0 0 1024 1024" xmlns="http://www.w3.org/2000/svg">
  <defs transform="matrix(1 0 0 1 0 0) "/>
  <g id="shadow">
    <g id="shape">
      <path id="path" fill="#000000" fill-opacity="0.09803921568627451" d="M969.65,351.3 Q961.05,330.45 950.25,310.45 C946.2,302.9 941.9,295.4 937.35,288.05 917.8,256.35 893.95,226.4 865.8,198.25 773.65,106.1 662.35,60 532,60 401.65,60 290.4,106.1 198.25,198.25 106.1,290.4 60,401.65 60,532 60,662.35 106.1,773.65 198.25,865.8 290.4,957.95 401.65,1004 532,1004 662.35,1004 773.65,957.95 865.8,865.8 916.55,815 953.35,758.4 976.15,696.05 994.7,645.2 1004,590.55 1004,532 1004,487.1 998.55,444.45 987.6,404.05 986.35,399.5 985.05,394.95 983.7,390.45 979.6,377.15 974.9,364.1 969.65,351.3z"/>
    </g>
  </g>
  <g id="baf">
    <g id="shape2">
      <path id="path1" fill="#000000" fill-opacity="1" d="M712.8,139.55 C704.05,134.75 695.2,130.3 686.25,126.25 658.65,113.7 629.7,104.4 599.4,98.4 592.15,96.95 584.85,95.7 577.45,94.65 562,92.4 546.25,91 530.2,90.4 524.2,90.15 518.15,90.05 512.05,90.05 506.6,90.05 501.2,90.15 495.85,90.35 480,90.85 464.45,92.15 449.25,94.3 441.55,95.35 433.95,96.6 426.45,98.05 396.15,103.95 367.2,113.1 339.6,125.5 330.45,129.55 321.5,134 312.7,138.8 304.8,143.1 297,147.7 289.35,152.55 281.3,157.7 273.35,163.1 265.55,168.85 258.5,174 251.6,179.45 244.8,185.2 237.6,191.2 230.5,197.5 223.55,204.05 220.2,207.2 216.9,210.4 213.65,213.65 210.7,216.6 207.8,219.55 204.95,222.55 198.35,229.5 192.05,236.55 186.05,243.75 180.3,250.55 174.85,257.45 169.65,264.45 163.9,272.2 158.45,280.15 153.3,288.2 148.4,295.85 143.8,303.6 139.45,311.45 134.65,320.25 130.2,329.2 126.05,338.25 113.6,365.75 104.35,394.6 98.4,424.8 96.8,432.85 95.45,441 94.3,449.25 92.25,463.9 90.95,478.85 90.4,494.1 90.15,500.05 90.05,506 90.05,512.05 90.05,518.15 90.15,524.2 90.4,530.2 90.95,545.5 92.3,560.5 94.35,575.25 95.45,583.4 96.8,591.45 98.4,599.4 104.4,629.65 113.65,658.5 126.15,686.05 130.25,695.1 134.7,704.05 139.55,712.8 143.85,720.65 148.45,728.4 153.35,736.05 158.5,744.1 163.95,752 169.75,759.8 174.95,766.8 180.4,773.7 186.1,780.5 192.15,787.65 198.45,794.75 205.05,801.7 207.85,804.65 210.7,807.55 213.65,810.5 216.95,813.8 220.3,817.05 223.65,820.2 230.6,826.75 237.65,833.05 244.85,839.05 251.7,844.75 258.6,850.2 265.65,855.35 273.5,861.1 281.45,866.55 289.55,871.7 297.2,876.55 304.95,881.15 312.9,885.45 321.65,890.2 330.6,894.6 339.65,898.7 367.3,911.05 396.25,920.2 426.6,926.1 433.95,927.55 441.4,928.75 448.9,929.8 464.3,931.95 480.05,933.25 496.1,933.8 501.4,933.95 506.7,934.05 512.05,934.05 518.1,934.05 524.1,933.95 530.05,933.75 546.25,933.1 562.1,931.7 577.65,929.45 584.95,928.4 592.2,927.15 599.35,925.75 629.85,919.7 659,910.3 686.75,897.65 695.5,893.65 704.15,889.3 712.65,884.65 720.5,880.3 728.3,875.7 735.95,870.85 744,865.7 751.9,860.25 759.7,854.5 766.7,849.25 773.6,843.8 780.45,838.1 787.6,832.05 794.65,825.75 801.6,819.2 804.6,816.35 807.55,813.45 810.5,810.5 813.75,807.25 816.95,803.95 820.1,800.6 826.65,793.65 832.95,786.55 839,779.4 844.65,772.55 850.1,765.65 855.3,758.6 861.05,750.8 866.45,742.85 871.6,734.8 876.45,727.15 881.05,719.35 885.35,711.45 889.75,703.35 893.85,695.1 897.65,686.75 906.2,667.95 913.3,648.55 918.85,628.5 918.9,628.25 919,628 919.05,627.75 921.75,617.85 924.1,607.8 926.05,597.65 927.3,591.05 928.45,584.4 929.45,577.7 931.8,561.55 933.25,545.1 933.8,528.3 933.95,522.9 934.05,517.5 934.05,512.05 934.05,506.7 933.95,501.4 933.8,496.1 933.25,479.25 931.8,462.8 929.5,446.7 928.5,439.95 927.35,433.25 926.1,426.6 924.15,416.45 921.8,406.4 919.1,396.55 919.05,396.4 919,396.2 918.95,396.05 913.4,376 906.4,356.65 897.9,337.9 894.05,329.45 889.9,321.1 885.45,312.9 881.15,304.95 876.55,297.15 871.7,289.5 866.55,281.45 861.1,273.5 855.35,265.65 850.2,258.6 844.75,251.7 839.05,244.85 833.05,237.65 826.75,230.6 820.2,223.65 817.05,220.3 813.8,216.95 810.5,213.65 807.55,210.7 804.65,207.85 801.7,205.05 794.75,198.45 787.65,192.15 780.5,186.1 773.7,180.4 766.8,174.95 759.8,169.75 752,163.95 744.1,158.5 736.05,153.35 728.4,148.45 720.65,143.85 712.8,139.55z M784.75,784.75 Q897.75,671.8 897.75,512.05 C897.75,405.55 860.1,314.65 784.75,239.3 709.45,164 618.55,126.35 512.05,126.35 405.55,126.35 314.65,164 239.3,239.3 164,314.65 126.35,405.55 126.35,512.05 126.35,618.55 164,709.45 239.3,784.75 314.65,860.1 405.55,897.75 512.05,897.75 618.55,897.75 709.45,860.1 784.75,784.75z"/>
      <path id="path3" fill="none" stroke="#333333" stroke-opacity="1" stroke-width="26.25" stroke-linecap="round" stroke-linejoin="round" d="M784.75,784.75 Q897.75,671.8 897.75,512.05 C897.75,405.55 860.1,314.65 784.75,239.3 709.45,164 618.55,126.35 512.05,126.35 405.55,126.35 314.65,164 239.3,239.3 164,314.65 126.35,405.55 126.35,512.05 126.35,618.55 164,709.45 239.3,784.75 314.65,860.1 405.55,897.75 512.05,897.75 618.55,897.75 709.45,860.1 784.75,784.75z"/>
      <path id="path5" fill="#333333" fill-opacity="1" d="M649.1,188.05 C648.9,187.95 648.7,187.85 648.55,187.8 648.3,187.7 648.1,187.6 647.95,187.55 L603.85,172.7 C603.5,172.6 603.1,172.5 602.75,172.4 L590.3,184.8 571.4,165.9 C557.95,163.75 544.2,162.4 530.15,161.75 L533.1,164.7 513.1,184.7 493.05,164.65 496.05,161.7 C482.1,162.25 468.4,163.5 455.05,165.55 L435.9,184.7 423.15,171.95 C422.75,172.05 422.35,172.15 421.9,172.25 L347.4,201.3 336.2,207.65 C335.95,207.8 335.7,207.9 335.45,208.05 L335.45,208.1 320.1,223.4 316.75,220.05 C316.55,220.2 316.35,220.3 316.15,220.45 L304.45,228.9 C301.4,231.15 298.4,233.5 295.45,235.85 L301.55,241.95 281.5,262 274,254.5 C273.6,254.85 273.2,255.25 272.85,255.6 270.1,258.15 267.4,260.75 264.75,263.4 264.6,263.5 264.5,263.6 264.4,263.75 264.25,263.85 264.15,263.95 264.05,264.05 263.95,264.15 263.85,264.25 263.75,264.35 263.6,264.5 263.45,264.7 263.3,264.85 L255.95,272.45 C255.75,272.6 255.55,272.8 255.4,273 L262.95,280.55 242.9,300.6 236.7,294.4 C236.55,294.6 236.4,294.8 236.25,295 L220.8,315.6 224.35,319.15 208.05,335.45 C192.25,362.05 180.45,390.3 172.7,420.25 172.6,420.7 172.5,421.2 172.35,421.65 L185.65,434.95 165.65,454.95 165.6,454.9 C163.55,468.3 162.25,482 161.7,496.05 L165.65,492.05 185.7,512.1 165.6,532.2 161.7,528.3 C161.7,528.65 161.7,528.95 161.75,529.3 161.95,534.1 162.25,538.9 162.6,543.65 162.65,544.2 162.7,544.75 162.75,545.3 162.75,545.5 162.75,545.7 162.8,545.95 162.8,546.15 162.8,546.35 162.85,546.55 163.3,551.85 163.9,557.1 164.6,562.35 164.9,564.7 165.25,567 165.6,569.35 L165.6,569.3 185.7,589.4 172.4,602.75 C176.75,619.7 182.35,636.1 189.25,651.95 194.75,664.6 201.05,676.9 208.15,688.85 208.3,689 208.4,689.2 208.5,689.4 L224.3,705.2 220.9,708.65 C225.75,715.65 230.9,722.55 236.35,729.3 236.5,729.45 236.65,729.65 236.8,729.85 L242.85,723.75 262.9,743.8 255.45,751.25 C258.25,754.2 261.1,757.15 264.05,760.1 264.2,760.25 264.4,760.45 264.55,760.6 264.7,760.75 264.9,760.95 265.1,761.15 268.05,764.1 271.05,766.95 274.05,769.75 L281.45,762.35 301.5,782.4 295.55,788.4 C302.5,793.95 309.6,799.25 316.85,804.2 L320.05,800.95 334.8,815.7 420.3,851.5 C421.25,851.75 422.25,852 423.2,852.25 L423.25,852.25 435.85,839.55 454.9,858.6 C468.25,860.65 481.9,861.95 495.9,862.5 L493.05,859.65 513.15,839.55 533.2,859.6 530.5,862.4 C531.15,862.35 531.75,862.35 532.4,862.3 L560.3,859.85 C564.15,859.35 567.95,858.8 571.7,858.2 L590.3,839.6 602.55,851.85 C635.2,843.5 665.9,830.35 694.65,812.5 L694.8,812.35 706.15,800.95 708.55,803.35 C709.45,802.7 710.35,802.1 711.25,801.45 L729.75,787.45 724.7,782.4 744.75,762.35 751.15,768.75 C752.1,767.85 753.05,766.95 754,766.05 755.45,764.7 756.85,763.3 758.3,761.9 758.9,761.3 759.5,760.7 760.1,760.1 L767.95,752.05 C768.5,751.45 769.1,750.85 769.7,750.2 L763.3,743.8 783.35,723.75 788.3,728.7 C792.5,723.45 796.5,718.15 800.35,712.8 801.65,711.05 802.9,709.25 804.15,707.45 L804.1,707.4 801.9,705.2 812.35,694.8 812.55,694.6 C813.4,693.15 814.3,691.75 815.15,690.3 828,668.85 838.3,646.35 846,622.7 846.05,622.45 846.15,622.25 846.2,622 848.45,615.05 850.45,608.05 852.2,601 L840.55,589.35 858.2,571.8 858.2,571.75 C860.35,558.3 861.75,544.55 862.4,530.5 L860.6,532.2 840.55,512.15 860.55,492.15 862.4,494 C861.75,479.95 860.4,466.2 858.25,452.75 L840.45,434.95 852.25,423.25 852.25,423.2 C843.95,390.1 830.8,359.05 812.8,330 L812.75,329.95 801.9,319.1 804.2,316.85 C799.25,309.6 793.95,302.5 788.4,295.55 L783.35,300.55 763.3,280.5 769.75,274.05 C769.4,273.65 769.05,273.25 768.7,272.9 L760.85,264.8 C760.6,264.55 760.35,264.3 760.1,264.05 757.15,261.1 754.2,258.25 751.25,255.45 L744.75,261.95 724.7,241.9 729.85,236.8 C722.9,231.15 715.85,225.85 708.65,220.9 L706.15,223.35 694.2,211.4 C679.65,202.4 664.65,194.6 649.1,188.05z M687.6,241.9 L667.5,262 647.45,241.95 667.55,221.85 687.6,241.9z M726.2,280.5 L706.1,300.6 686.05,280.55 706.15,260.45 726.2,280.5z M687.55,319.15 L667.55,339.15 647.5,319.1 667.5,299.1 687.55,319.15z M706.15,377.75 L686.1,357.7 706.1,337.7 726.15,357.75 706.15,377.75z M764.8,319.1 L744.7,339.2 724.65,319.15 744.75,299.05 764.8,319.1z M783.35,377.85 L763.25,357.75 783.35,337.65 803.45,357.75 783.35,377.85z M821.9,416.4 L801.9,396.4 822,376.3 842,396.3 821.9,416.4z M842,473.6 L822,493.6 801.9,473.5 821.9,453.5 842,473.6z M822,570.8 L801.95,550.75 822,530.7 842.05,550.75 822,570.8z M803.35,434.95 L783.35,454.95 763.35,434.95 783.35,414.95 803.35,434.95z M744.8,416.4 L724.7,396.3 744.7,376.3 764.8,396.4 744.8,416.4z M764.8,473.5 L744.75,493.55 724.75,473.55 744.8,453.5 764.8,473.5z M726.25,434.95 L706.2,455 686.1,434.9 706.15,414.85 726.25,434.95z M667.55,416.35 L647.5,396.3 667.55,376.25 687.6,396.3 667.55,416.35z M687.65,473.55 L667.55,493.65 647.45,473.55 667.55,453.45 687.65,473.55z M706.1,532.2 L686.1,512.2 706.2,492.1 726.2,512.1 706.1,532.2z M667.5,570.8 L647.5,550.8 667.55,530.75 687.55,550.75 667.5,570.8z M726.2,589.4 L706.15,609.45 686.05,589.35 706.1,569.3 726.2,589.4z M783.4,532.2 L763.3,512.1 783.35,492.05 803.45,512.15 783.4,532.2z M744.75,570.85 L724.65,550.75 744.75,530.65 764.85,550.75 744.75,570.85z M803.45,589.35 L783.35,609.45 763.3,589.4 783.4,569.3 803.45,589.35z M764.8,628 L744.75,648.05 724.7,628 744.75,607.95 764.8,628z M803.4,666.6 L783.35,686.65 763.3,666.6 783.35,646.55 803.4,666.6z M687.6,628 L667.55,648.05 647.45,627.95 667.5,607.9 687.6,628z M726.2,666.6 L706.15,686.65 686.1,666.6 706.15,646.55 726.2,666.6z M667.55,725.25 L647.5,705.2 667.55,685.15 687.6,705.2 667.55,725.25z M687.6,782.4 L667.55,802.45 647.5,782.4 667.55,762.35 687.6,782.4z M706.15,763.85 L686.1,743.8 706.15,723.75 726.2,743.8 706.15,763.85z M744.75,725.25 L724.7,705.2 744.75,685.15 764.8,705.2 744.75,725.25z M842.05,627.95 L821.95,648.05 801.9,628 822,607.9 842.05,627.95z M454.45,203.25 L474.5,183.2 494.55,203.25 474.5,223.3 454.45,203.25z M435.9,221.8 L455.95,241.85 435.85,261.95 415.8,241.9 435.9,221.8z M474.5,260.4 L494.6,280.5 474.5,300.6 454.4,280.5 474.5,260.4z M377.25,203.35 L397.35,183.25 417.35,203.25 397.25,223.35 377.25,203.35z M358.7,221.9 L378.7,241.9 358.65,261.95 338.65,241.95 358.7,221.9z M397.25,260.45 L417.3,280.5 397.25,300.55 377.2,280.5 397.25,260.45z M338.6,319.1 L358.65,299.05 378.7,319.1 358.65,339.15 338.6,319.1z M377.2,357.7 L397.25,337.65 417.35,357.75 397.3,377.8 377.2,357.7z M435.85,299.05 L455.95,319.15 435.9,339.2 415.8,319.1 435.85,299.05z M454.45,357.75 L474.5,337.7 494.55,357.75 474.5,377.8 454.45,357.75z M608.85,203.35 L628.95,183.25 649,203.3 628.9,223.4 608.85,203.35z M590.3,221.9 L610.35,241.95 590.35,261.95 570.3,241.9 590.3,221.9z M628.9,260.5 L648.95,280.55 628.95,300.55 608.9,280.5 628.9,260.5z M531.65,203.25 L551.65,183.25 571.75,203.35 551.75,223.35 531.65,203.25z M513.1,221.8 L533.2,241.9 513.15,261.95 493.05,241.85 513.1,221.8z M551.75,260.45 L571.8,280.5 551.75,300.55 531.7,280.5 551.75,260.45z M493.05,319.15 L513.15,299.05 533.2,319.1 513.1,339.2 493.05,319.15z M531.65,357.75 L551.75,337.65 571.8,357.7 551.7,377.8 531.65,357.75z M590.35,299.05 L610.4,319.1 590.35,339.15 570.3,319.1 590.35,299.05z M608.9,357.7 L628.95,337.65 649,357.7 628.95,377.75 608.9,357.7z M320.1,260.5 L340.1,280.5 320.05,300.55 300.05,280.55 320.1,260.5z M222.85,357.75 L242.9,337.7 262.9,357.7 242.85,377.75 222.85,357.75z M281.5,299.1 L301.5,319.1 281.45,339.15 261.45,319.15 281.5,299.1z M300,357.7 L320.05,337.65 340.1,357.7 320.05,377.75 300,357.7z M320.05,414.85 L340.15,434.95 320.1,455 300,434.9 320.05,414.85z M261.4,396.3 L281.45,376.25 301.5,396.3 281.45,416.35 261.4,396.3z M261.35,473.55 L281.45,453.45 301.55,473.55 281.45,493.65 261.35,473.55z M204.2,416.4 L184.2,396.4 204.3,376.3 224.3,396.3 204.2,416.4z M242.85,414.85 L262.9,434.9 242.8,455 222.75,434.95 242.85,414.85z M224.25,473.55 L204.25,493.55 184.2,473.5 204.2,453.5 224.25,473.55z M222.8,512.1 L242.8,492.1 262.9,512.2 242.9,532.2 222.8,512.1z M204.25,570.85 L184.15,550.75 204.25,530.65 224.35,550.75 204.25,570.85z M242.9,569.3 L262.95,589.35 242.85,609.45 222.8,589.4 242.9,569.3z M300,512.2 L320.1,492.1 340.15,512.15 320.05,532.25 300,512.2z M261.45,550.75 L281.45,530.75 301.5,550.8 281.5,570.8 261.45,550.75z M320.05,569.35 L340.1,589.4 320.1,609.4 300.05,589.35 320.05,569.35z M281.5,607.9 L301.55,627.95 281.45,648.05 261.4,628 281.5,607.9z M300,666.6 L320.1,646.5 340.15,666.55 320.05,686.65 300,666.6z M224.3,628 L204.25,648.05 184.2,628 204.25,607.95 224.3,628z M222.8,666.6 L242.85,646.55 262.9,666.6 242.85,686.65 222.8,666.6z M261.4,705.2 L281.45,685.15 301.5,705.2 281.45,725.25 261.4,705.2z M300,743.8 L320.05,723.75 340.1,743.8 320.05,763.85 300,743.8z M628.95,414.85 L649,434.9 628.9,455 608.85,434.95 628.95,414.85z M570.25,396.35 L590.35,376.25 610.4,396.3 590.3,416.4 570.25,396.35z M590.3,453.5 L610.35,473.55 590.3,493.6 570.25,473.55 590.3,453.5z M551.7,414.9 L571.75,434.95 551.7,455 531.65,434.95 551.7,414.9z M493.05,396.35 L513.1,376.3 533.15,396.35 513.1,416.4 493.05,396.35z M493.05,473.55 L513.1,453.5 533.15,473.55 513.1,493.6 493.05,473.55z M531.65,512.15 L551.7,492.1 571.75,512.15 551.7,532.2 531.65,512.15z M493.05,550.75 L513.1,530.7 533.15,550.75 513.1,570.8 493.05,550.75z M551.7,569.3 L571.8,589.4 551.75,609.45 531.65,589.35 551.7,569.3z M608.85,512.15 L628.9,492.1 649,512.2 628.95,532.25 608.85,512.15z M570.25,550.75 L590.3,530.7 610.4,550.8 590.35,570.85 570.25,550.75z M628.95,569.35 L648.95,589.35 628.9,609.4 608.9,589.4 628.95,569.35z M474.5,414.9 L494.55,434.95 474.5,455 454.45,434.95 474.5,414.9z M415.85,396.35 L435.9,376.3 455.95,396.35 435.9,416.4 415.85,396.35z M415.85,473.55 L435.9,453.5 455.95,473.55 435.9,493.6 415.85,473.55z M397.3,414.9 L417.35,434.95 397.3,455 377.25,434.95 397.3,414.9z M338.6,396.3 L358.65,376.25 378.75,396.35 358.7,416.4 338.6,396.3z M338.65,473.55 L358.7,453.5 378.75,473.55 358.7,493.6 338.65,473.55z M377.25,512.15 L397.3,492.1 417.35,512.15 397.3,532.2 377.25,512.15z M338.6,550.8 L358.7,530.7 378.75,550.75 358.65,570.85 338.6,550.8z M397.3,569.3 L417.35,589.35 397.25,609.45 377.2,589.4 397.3,569.3z M454.45,512.15 L474.5,492.1 494.55,512.15 474.5,532.2 454.45,512.15z M415.85,550.75 L435.9,530.7 455.95,550.75 435.9,570.8 415.85,550.75z M474.5,569.3 L494.55,589.35 474.5,609.4 454.45,589.35 474.5,569.3z M435.9,607.9 L455.95,627.95 435.85,648.05 415.8,628 435.9,607.9z M454.4,666.6 L474.5,646.5 494.6,666.6 474.5,686.7 454.4,666.6z M358.65,607.95 L378.7,628 358.7,648 338.65,627.95 358.65,607.95z M377.25,666.55 L397.25,646.55 417.3,666.6 397.3,686.6 377.25,666.55z M338.6,705.2 L358.7,685.1 378.75,705.15 358.65,725.25 338.6,705.2z M358.65,762.35 L378.75,782.45 358.7,802.5 338.6,782.4 358.65,762.35z M377.2,743.8 L397.3,723.7 417.4,743.8 397.3,763.9 377.2,743.8z M415.85,705.15 L435.85,685.15 455.95,705.25 435.95,725.25 415.85,705.15z M435.95,762.35 L455.95,782.35 435.85,802.45 415.85,782.45 435.95,762.35z M454.5,743.8 L474.5,723.8 494.5,743.8 474.5,763.8 454.5,743.8z M590.35,607.95 L610.35,627.95 590.3,648 570.3,628 590.35,607.95z M628.9,646.5 L649,666.6 628.95,686.65 608.85,666.55 628.9,646.5z M513.1,607.9 L533.2,628 513.15,648.05 493.05,627.95 513.1,607.9z M551.75,646.55 L571.75,666.55 551.7,686.6 531.7,666.6 551.75,646.55z M493.05,705.25 L513.15,685.15 533.15,705.15 513.05,725.25 493.05,705.25z M513.05,762.35 L533.15,782.45 513.15,802.45 493.05,782.35 513.05,762.35z M531.6,743.8 L551.7,723.7 571.8,743.8 551.7,763.9 531.6,743.8z M570.25,705.15 L590.3,685.1 610.4,705.2 590.35,725.25 570.25,705.15z M590.35,762.35 L610.4,782.4 590.3,802.5 570.25,782.45 590.35,762.35z M608.9,743.8 L628.95,723.75 649,743.8 628.95,763.85 608.9,743.8z M628.95,800.95 L649,821 628.9,841.1 608.85,821.05 628.95,800.95z M551.7,801 L571.75,821.05 551.75,841.05 531.7,821 551.7,801z M474.5,800.9 L494.6,821 474.5,841.1 454.4,821 474.5,800.9z M397.3,801 L417.3,821 397.25,841.05 377.25,821.05 397.3,801z"/>
      <path id="path6" fill="#000000" fill-opacity="1" d="M687.6,241.9 L667.55,221.85 647.45,241.95 667.5,262 687.6,241.9z"/>
      <path id="path9" fill="#000000" fill-opacity="1" d="M726.2,280.5 L706.15,260.45 686.05,280.55 706.1,300.6 726.2,280.5z"/>
      <path id="path12" fill="#000000" fill-opacity="1" d="M687.55,319.15 L667.5,299.1 647.5,319.1 667.55,339.15 687.55,319.15z"/>
      <path id="path15" fill="#000000" fill-opacity="1" d="M706.15,377.75 L726.15,357.75 706.1,337.7 686.1,357.7 706.15,377.75z"/>
      <path id="path18" fill="#000000" fill-opacity="1" d="M764.8,319.1 L744.75,299.05 724.65,319.15 744.7,339.2 764.8,319.1z"/>
      <path id="path21" fill="#000000" fill-opacity="1" d="M783.35,377.85 L803.45,357.75 783.35,337.65 763.25,357.75 783.35,377.85z"/>
      <path id="path24" fill="#000000" fill-opacity="1" d="M821.9,416.4 L842,396.3 822,376.3 801.9,396.4 821.9,416.4z"/>
      <path id="path27" fill="#000000" fill-opacity="1" d="M842,473.6 L821.9,453.5 801.9,473.5 822,493.6 842,473.6z"/>
      <path id="path30" fill="#000000" fill-opacity="1" d="M822,570.8 L842.05,550.75 822,530.7 801.95,550.75 822,570.8z"/>
      <path id="path33" fill="#000000" fill-opacity="1" d="M803.35,434.95 L783.35,414.95 763.35,434.95 783.35,454.95 803.35,434.95z"/>
      <path id="path36" fill="#000000" fill-opacity="1" d="M744.8,416.4 L764.8,396.4 744.7,376.3 724.7,396.3 744.8,416.4z"/>
      <path id="path39" fill="#000000" fill-opacity="1" d="M764.8,473.5 L744.8,453.5 724.75,473.55 744.75,493.55 764.8,473.5z"/>
      <path id="path42" fill="#000000" fill-opacity="1" d="M726.25,434.95 L706.15,414.85 686.1,434.9 706.2,455 726.25,434.95z"/>
      <path id="path45" fill="#000000" fill-opacity="1" d="M667.55,416.35 L687.6,396.3 667.55,376.25 647.5,396.3 667.55,416.35z"/>
      <path id="path48" fill="#000000" fill-opacity="1" d="M687.65,473.55 L667.55,453.45 647.45,473.55 667.55,493.65 687.65,473.55z"/>
      <path id="path51" fill="#000000" fill-opacity="1" d="M706.1,532.2 L726.2,512.1 706.2,492.1 686.1,512.2 706.1,532.2z"/>
      <path id="path54" fill="#000000" fill-opacity="1" d="M667.5,570.8 L687.55,550.75 667.55,530.75 647.5,550.8 667.5,570.8z"/>
      <path id="path57" fill="#000000" fill-opacity="1" d="M726.2,589.4 L706.1,569.3 686.05,589.35 706.15,609.45 726.2,589.4z"/>
      <path id="path60" fill="#000000" fill-opacity="1" d="M783.4,532.2 L803.45,512.15 783.35,492.05 763.3,512.1 783.4,532.2z"/>
      <path id="path63" fill="#000000" fill-opacity="1" d="M744.75,570.85 L764.85,550.75 744.75,530.65 724.65,550.75 744.75,570.85z"/>
      <path id="path66" fill="#000000" fill-opacity="1" d="M803.45,589.35 L783.4,569.3 763.3,589.4 783.35,609.45 803.45,589.35z"/>
      <path id="path69" fill="#000000" fill-opacity="1" d="M764.8,628 L744.75,607.95 724.7,628 744.75,648.05 764.8,628z"/>
      <path id="path72" fill="#000000" fill-opacity="1" d="M803.4,666.6 L783.35,646.55 763.3,666.6 783.35,686.65 803.4,666.6z"/>
      <path id="path75" fill="#000000" fill-opacity="1" d="M687.6,628 L667.5,607.9 647.45,627.95 667.55,648.05 687.6,628z"/>
      <path id="path78" fill="#000000" fill-opacity="1" d="M726.2,666.6 L706.15,646.55 686.1,666.6 706.15,686.65 726.2,666.6z"/>
      <path id="path81" fill="#000000" fill-opacity="1" d="M667.55,725.25 L687.6,705.2 667.55,685.15 647.5,705.2 667.55,725.25z"/>
      <path id="path84" fill="#000000" fill-opacity="1" d="M687.6,782.4 L667.55,762.35 647.5,782.4 667.55,802.45 687.6,782.4z"/>
      <path id="path87" fill="#000000" fill-opacity="1" d="M706.15,763.85 L726.2,743.8 706.15,723.75 686.1,743.8 706.15,763.85z"/>
      <path id="path90" fill="#000000" fill-opacity="1" d="M744.75,725.25 L764.8,705.2 744.75,685.15 724.7,705.2 744.75,725.25z"/>
      <path id="path93" fill="#000000" fill-opacity="1" d="M842.05,627.95 L822,607.9 801.9,628 821.95,648.05 842.05,627.95z"/>
      <path id="path96" fill="#000000" fill-opacity="1" d="M454.45,203.25 L474.5,223.3 494.55,203.25 474.5,183.2 454.45,203.25z"/>
      <path id="path99" fill="#000000" fill-opacity="1" d="M435.9,221.8 L415.8,241.9 435.85,261.95 455.95,241.85 435.9,221.8z"/>
      <path id="path102" fill="#000000" fill-opacity="1" d="M474.5,260.4 L454.4,280.5 474.5,300.6 494.6,280.5 474.5,260.4z"/>
      <path id="path105" fill="#000000" fill-opacity="1" d="M377.25,203.35 L397.25,223.35 417.35,203.25 397.35,183.25 377.25,203.35z"/>
      <path id="path108" fill="#000000" fill-opacity="1" d="M358.7,221.9 L338.65,241.95 358.65,261.95 378.7,241.9 358.7,221.9z"/>
      <path id="path111" fill="#000000" fill-opacity="1" d="M397.25,260.45 L377.2,280.5 397.25,300.55 417.3,280.5 397.25,260.45z"/>
      <path id="path114" fill="#000000" fill-opacity="1" d="M338.6,319.1 L358.65,339.15 378.7,319.1 358.65,299.05 338.6,319.1z"/>
      <path id="path117" fill="#000000" fill-opacity="1" d="M377.2,357.7 L397.3,377.8 417.35,357.75 397.25,337.65 377.2,357.7z"/>
      <path id="path120" fill="#000000" fill-opacity="1" d="M435.85,299.05 L415.8,319.1 435.9,339.2 455.95,319.15 435.85,299.05z"/>
      <path id="path123" fill="#000000" fill-opacity="1" d="M454.45,357.75 L474.5,377.8 494.55,357.75 474.5,337.7 454.45,357.75z"/>
      <path id="path126" fill="#000000" fill-opacity="1" d="M608.85,203.35 L628.9,223.4 649,203.3 628.95,183.25 608.85,203.35z"/>
      <path id="path129" fill="#000000" fill-opacity="1" d="M590.3,221.9 L570.3,241.9 590.35,261.95 610.35,241.95 590.3,221.9z"/>
      <path id="path132" fill="#000000" fill-opacity="1" d="M628.9,260.5 L608.9,280.5 628.95,300.55 648.95,280.55 628.9,260.5z"/>
      <path id="path135" fill="#000000" fill-opacity="1" d="M531.65,203.25 L551.75,223.35 571.75,203.35 551.65,183.25 531.65,203.25z"/>
      <path id="path138" fill="#000000" fill-opacity="1" d="M513.1,221.8 L493.05,241.85 513.15,261.95 533.2,241.9 513.1,221.8z"/>
      <path id="path141" fill="#000000" fill-opacity="1" d="M551.75,260.45 L531.7,280.5 551.75,300.55 571.8,280.5 551.75,260.45z"/>
      <path id="path144" fill="#000000" fill-opacity="1" d="M493.05,319.15 L513.1,339.2 533.2,319.1 513.15,299.05 493.05,319.15z"/>
      <path id="path147" fill="#000000" fill-opacity="1" d="M531.65,357.75 L551.7,377.8 571.8,357.7 551.75,337.65 531.65,357.75z"/>
      <path id="path150" fill="#000000" fill-opacity="1" d="M590.35,299.05 L570.3,319.1 590.35,339.15 610.4,319.1 590.35,299.05z"/>
      <path id="path153" fill="#000000" fill-opacity="1" d="M608.9,357.7 L628.95,377.75 649,357.7 628.95,337.65 608.9,357.7z"/>
      <path id="path156" fill="#000000" fill-opacity="1" d="M320.1,260.5 L300.05,280.55 320.05,300.55 340.1,280.5 320.1,260.5z"/>
      <path id="path159" fill="#000000" fill-opacity="1" d="M222.85,357.75 L242.85,377.75 262.9,357.7 242.9,337.7 222.85,357.75z"/>
      <path id="path162" fill="#000000" fill-opacity="1" d="M281.5,299.1 L261.45,319.15 281.45,339.15 301.5,319.1 281.5,299.1z"/>
      <path id="path165" fill="#000000" fill-opacity="1" d="M300,357.7 L320.05,377.75 340.1,357.7 320.05,337.65 300,357.7z"/>
      <path id="path168" fill="#000000" fill-opacity="1" d="M320.05,414.85 L300,434.9 320.1,455 340.15,434.95 320.05,414.85z"/>
      <path id="path171" fill="#000000" fill-opacity="1" d="M261.4,396.3 L281.45,416.35 301.5,396.3 281.45,376.25 261.4,396.3z"/>
      <path id="path174" fill="#000000" fill-opacity="1" d="M261.35,473.55 L281.45,493.65 301.55,473.55 281.45,453.45 261.35,473.55z"/>
      <path id="path177" fill="#000000" fill-opacity="1" d="M204.2,416.4 L224.3,396.3 204.3,376.3 184.2,396.4 204.2,416.4z"/>
      <path id="path180" fill="#000000" fill-opacity="1" d="M242.85,414.85 L222.75,434.95 242.8,455 262.9,434.9 242.85,414.85z"/>
      <path id="path183" fill="#000000" fill-opacity="1" d="M224.25,473.55 L204.2,453.5 184.2,473.5 204.25,493.55 224.25,473.55z"/>
      <path id="path186" fill="#000000" fill-opacity="1" d="M222.8,512.1 L242.9,532.2 262.9,512.2 242.8,492.1 222.8,512.1z"/>
      <path id="path189" fill="#000000" fill-opacity="1" d="M204.25,570.85 L224.35,550.75 204.25,530.65 184.15,550.75 204.25,570.85z"/>
      <path id="path192" fill="#000000" fill-opacity="1" d="M242.9,569.3 L222.8,589.4 242.85,609.45 262.95,589.35 242.9,569.3z"/>
      <path id="path195" fill="#000000" fill-opacity="1" d="M300,512.2 L320.05,532.25 340.15,512.15 320.1,492.1 300,512.2z"/>
      <path id="path198" fill="#000000" fill-opacity="1" d="M261.45,550.75 L281.5,570.8 301.5,550.8 281.45,530.75 261.45,550.75z"/>
      <path id="path201" fill="#000000" fill-opacity="1" d="M320.05,569.35 L300.05,589.35 320.1,609.4 340.1,589.4 320.05,569.35z"/>
      <path id="path204" fill="#000000" fill-opacity="1" d="M281.5,607.9 L261.4,628 281.45,648.05 301.55,627.95 281.5,607.9z"/>
      <path id="path207" fill="#000000" fill-opacity="1" d="M300,666.6 L320.05,686.65 340.15,666.55 320.1,646.5 300,666.6z"/>
      <path id="path210" fill="#000000" fill-opacity="1" d="M224.3,628 L204.25,607.95 184.2,628 204.25,648.05 224.3,628z"/>
      <path id="path213" fill="#000000" fill-opacity="1" d="M222.8,666.6 L242.85,686.65 262.9,666.6 242.85,646.55 222.8,666.6z"/>
      <path id="path216" fill="#000000" fill-opacity="1" d="M261.4,705.2 L281.45,725.25 301.5,705.2 281.45,685.15 261.4,705.2z"/>
      <path id="path219" fill="#000000" fill-opacity="1" d="M300,743.8 L320.05,763.85 340.1,743.8 320.05,723.75 300,743.8z"/>
      <path id="path222" fill="#000000" fill-opacity="1" d="M628.95,414.85 L608.85,434.95 628.9,455 649,434.9 628.95,414.85z"/>
      <path id="path225" fill="#000000" fill-opacity="1" d="M570.25,396.35 L590.3,416.4 610.4,396.3 590.35,376.25 570.25,396.35z"/>
      <path id="path228" fill="#000000" fill-opacity="1" d="M590.3,453.5 L570.25,473.55 590.3,493.6 610.35,473.55 590.3,453.5z"/>
      <path id="path231" fill="#000000" fill-opacity="1" d="M551.7,414.9 L531.65,434.95 551.7,455 571.75,434.95 551.7,414.9z"/>
      <path id="path234" fill="#000000" fill-opacity="1" d="M493.05,396.35 L513.1,416.4 533.15,396.35 513.1,376.3 493.05,396.35z"/>
      <path id="path237" fill="#000000" fill-opacity="1" d="M493.05,473.55 L513.1,493.6 533.15,473.55 513.1,453.5 493.05,473.55z"/>
      <path id="path240" fill="#000000" fill-opacity="1" d="M531.65,512.15 L551.7,532.2 571.75,512.15 551.7,492.1 531.65,512.15z"/>
      <path id="path243" fill="#000000" fill-opacity="1" d="M493.05,550.75 L513.1,570.8 533.15,550.75 513.1,530.7 493.05,550.75z"/>
      <path id="path246" fill="#000000" fill-opacity="1" d="M551.7,569.3 L531.65,589.35 551.75,609.45 571.8,589.4 551.7,569.3z"/>
      <path id="path249" fill="#000000" fill-opacity="1" d="M608.85,512.15 L628.95,532.25 649,512.2 628.9,492.1 608.85,512.15z"/>
      <path id="path252" fill="#000000" fill-opacity="1" d="M570.25,550.75 L590.35,570.85 610.4,550.8 590.3,530.7 570.25,550.75z"/>
      <path id="path255" fill="#000000" fill-opacity="1" d="M628.95,569.35 L608.9,589.4 628.9,609.4 648.95,589.35 628.95,569.35z"/>
      <path id="path258" fill="#000000" fill-opacity="1" d="M474.5,414.9 L454.45,434.95 474.5,455 494.55,434.95 474.5,414.9z"/>
      <path id="path261" fill="#000000" fill-opacity="1" d="M415.85,396.35 L435.9,416.4 455.95,396.35 435.9,376.3 415.85,396.35z"/>
      <path id="path264" fill="#000000" fill-opacity="1" d="M415.85,473.55 L435.9,493.6 455.95,473.55 435.9,453.5 415.85,473.55z"/>
      <path id="path267" fill="#000000" fill-opacity="1" d="M397.3,414.9 L377.25,434.95 397.3,455 417.35,434.95 397.3,414.9z"/>
      <path id="path270" fill="#000000" fill-opacity="1" d="M338.6,396.3 L358.7,416.4 378.75,396.35 358.65,376.25 338.6,396.3z"/>
      <path id="path273" fill="#000000" fill-opacity="1" d="M338.65,473.55 L358.7,493.6 378.75,473.55 358.7,453.5 338.65,473.55z"/>
      <path id="path276" fill="#000000" fill-opacity="1" d="M377.25,512.15 L397.3,532.2 417.35,512.15 397.3,492.1 377.25,512.15z"/>
      <path id="path279" fill="#000000" fill-opacity="1" d="M338.6,550.8 L358.65,570.85 378.75,550.75 358.7,530.7 338.6,550.8z"/>
      <path id="path282" fill="#000000" fill-opacity="1" d="M397.3,569.3 L377.2,589.4 397.25,609.45 417.35,589.35 397.3,569.3z"/>
      <path id="path285" fill="#000000" fill-opacity="1" d="M454.45,512.15 L474.5,532.2 494.55,512.15 474.5,492.1 454.45,512.15z"/>
      <path id="path288" fill="#000000" fill-opacity="1" d="M415.85,550.75 L435.9,570.8 455.95,550.75 435.9,530.7 415.85,550.75z"/>
      <path id="path291" fill="#000000" fill-opacity="1" d="M474.5,569.3 L454.45,589.35 474.5,609.4 494.55,589.35 474.5,569.3z"/>
      <path id="path294" fill="#000000" fill-opacity="1" d="M435.9,607.9 L415.8,628 435.85,648.05 455.95,627.95 435.9,607.9z"/>
      <path id="path297" fill="#000000" fill-opacity="1" d="M454.4,666.6 L474.5,686.7 494.6,666.6 474.5,646.5 454.4,666.6z"/>
      <path id="path300" fill="#000000" fill-opacity="1" d="M358.65,607.95 L338.65,627.95 358.7,648 378.7,628 358.65,607.95z"/>
      <path id="path303" fill="#000000" fill-opacity="1" d="M377.25,666.55 L397.3,686.6 417.3,666.6 397.25,646.55 377.25,666.55z"/>
      <path id="path306" fill="#000000" fill-opacity="1" d="M338.6,705.2 L358.65,725.25 378.75,705.15 358.7,685.1 338.6,705.2z"/>
      <path id="path309" fill="#000000" fill-opacity="1" d="M358.65,762.35 L338.6,782.4 358.7,802.5 378.75,782.45 358.65,762.35z"/>
      <path id="path312" fill="#000000" fill-opacity="1" d="M377.2,743.8 L397.3,763.9 417.4,743.8 397.3,723.7 377.2,743.8z"/>
      <path id="path315" fill="#000000" fill-opacity="1" d="M415.85,705.15 L435.95,725.25 455.95,705.25 435.85,685.15 415.85,705.15z"/>
      <path id="path318" fill="#000000" fill-opacity="1" d="M435.95,762.35 L415.85,782.45 435.85,802.45 455.95,782.35 435.95,762.35z"/>
      <path id="path321" fill="#000000" fill-opacity="1" d="M454.5,743.8 L474.5,763.8 494.5,743.8 474.5,723.8 454.5,743.8z"/>
      <path id="path324" fill="#000000" fill-opacity="1" d="M590.35,607.95 L570.3,628 590.3,648 610.35,627.95 590.35,607.95z"/>
      <path id="path327" fill="#000000" fill-opacity="1" d="M628.9,646.5 L608.85,666.55 628.95,686.65 649,666.6 628.9,646.5z"/>
      <path id="path330" fill="#000000" fill-opacity="1" d="M513.1,607.9 L493.05,627.95 513.15,648.05 533.2,628 513.1,607.9z"/>
      <path id="path333" fill="#000000" fill-opacity="1" d="M551.75,646.55 L531.7,666.6 551.7,686.6 571.75,666.55 551.75,646.55z"/>
      <path id="path336" fill="#000000" fill-opacity="1" d="M493.05,705.25 L513.05,725.25 533.15,705.15 513.15,685.15 493.05,705.25z"/>
      <path id="path339" fill="#000000" fill-opacity="1" d="M513.05,762.35 L493.05,782.35 513.15,802.45 533.15,782.45 513.05,762.35z"/>
      <path id="path342" fill="#000000" fill-opacity="1" d="M531.6,743.8 L551.7,763.9 571.8,743.8 551.7,723.7 531.6,743.8z"/>
      <path id="path345" fill="#000000" fill-opacity="1" d="M570.25,705.15 L590.35,725.25 610.4,705.2 590.3,685.1 570.25,705.15z"/>
      <path id="path348" fill="#000000" fill-opacity="1" d="M590.35,762.35 L570.25,782.45 590.3,802.5 610.4,782.4 590.35,762.35z"/>
      <path id="path351" fill="#000000" fill-opacity="1" d="M608.9,743.8 L628.95,763.85 649,743.8 628.95,723.75 608.9,743.8z"/>
      <path id="path354" fill="#000000" fill-opacity="1" d="M628.95,800.95 L608.85,821.05 628.9,841.1 649,821 628.95,800.95z"/>
      <path id="path357" fill="#000000" fill-opacity="1" d="M551.7,801 L531.7,821 551.75,841.05 571.75,821.05 551.7,801z"/>
      <path id="path360" fill="#000000" fill-opacity="1" d="M474.5,800.9 L454.4,821 474.5,841.1 494.6,821 474.5,800.9z"/>
      <path id="path363" fill="#000000" fill-opacity="1" d="M397.3,801 L377.25,821.05 397.25,841.05 417.3,821 397.3,801z M801.9,705.2 L804.1,707.4 C806.95,703.25 809.7,699.05 812.35,694.8 L801.9,705.2z"/>
      <path id="path366" fill="#007FC4" fill-opacity="1" d="M812.25,329.15 C812.4,329.4 812.6,329.7 812.75,329.95 L812.8,330 C812.65,329.7 812.45,329.4 812.25,329.15z M852.85,425.6 C852.65,424.8 852.45,424 852.25,423.2 L852.25,423.25 C852.4,424 852.6,424.8 852.85,425.6z M804.1,707.4 L804.15,707.45 C807.05,703.2 809.85,698.9 812.55,694.6 L812.35,694.8 C809.7,699.05 806.95,703.25 804.1,707.4z M334.9,208.4 C335.05,208.3 335.25,208.2 335.45,208.1 L335.45,208.05 C335.25,208.15 335.05,208.25 334.9,208.4z M694.8,812.35 L694.65,812.5 C695.35,812.05 696.05,811.6 696.8,811.15 696.15,811.55 695.45,811.95 694.8,812.35z"/>
      <path id="path375" fill="#007FC4" fill-opacity="1" d="M423.7,852.4 C423.55,852.35 423.4,852.3 423.25,852.25 L423.2,852.25 C423.35,852.3 423.55,852.35 423.7,852.4"/>
    </g>
  </g>
  <g id="ico-shadow">
    <g id="shape380">
      <path id="path378" fill="#000000" fill-opacity="0.2980392156862745" d="M702.05,532.05 Q702.05,461.65 652.25,411.85 C619.05,378.65 579,362.05 532.05,362.05 485.1,362.05 445.05,378.65 411.85,411.85 378.65,445.05 362.05,485.1 362.05,532.05 362.05,579 378.65,619.05 411.85,652.25 445.05,685.45 485.1,702.05 532.05,702.05 579,702.05 619.05,685.45 652.25,652.25 685.45,619.05 702.05,579 702.05,532.05z"/>
    </g>
  </g>
  <g id="ico">
    <g id="shape382">
      <path id="path379" fill="#242424" fill-opacity="1" d="M670.9,574.1 Q682.05,545.4 682.05,512.05 C682.05,465.1 665.45,425.05 632.25,391.85 599.05,358.65 559,342.05 512.05,342.05 465.1,342.05 425.05,358.65 391.85,391.85 358.65,425.05 342.05,465.1 342.05,512.05 342.05,559 358.65,599.05 391.85,632.25 425.05,665.45 465.1,682.05 512.05,682.05 530,682.05 546.95,679.6 562.9,674.75 588.65,666.9 611.75,652.75 632.25,632.25 649.7,614.8 662.6,595.4 670.9,574.1z"/>
    </g>
  </g>
  <g id="Capa.__201">
    <g id="shape384">
      <path id="path380" fill="#366D9D" fill-opacity="1" d="M748.95,426.65 Q749.85,417.55 741.85,417.1 C685.75,414.2 637.8,386.85 605.35,366.7 602,364.3 598.5,362.3 595,360.35 L595,486.7 C595,528.45 569.55,561.8 540.85,575.75 512.4,589.5 481.75,588 459.6,574.05 L562.05,676.5 C632.05,654.55 682.85,588.8 682.85,511 682.85,503.55 682.25,495.95 681.35,488.5 Q717.4,477.9 739.25,447.6 748.05,435.45 748.95,426.65z"/>
      <path id="path381" fill="#3081C0" fill-opacity="1" d="M551.9,343.5 C539.3,340.45 526.25,338.65 512.75,338.65 418.6,338.65 342.6,416 342.6,511 342.6,606.25 418.6,683.4 512.75,683.4 530.05,683.4 546.7,680.8 562.05,676.5 L459.6,574.05 C452.85,569.55 446.75,563.7 441.7,556.15 439.95,553.45 438.45,550.55 437.15,547.5 421.75,511.9 442.7,466.55 484.45,446.5 507.45,435.45 531.95,434.35 551.9,441.65 L551.9,343.5z"/>
    </g>
  </g>
  <g id="Calque.__203">
    <g id="shape388">
      <path id="path382" fill="#007FC4" fill-opacity="1" d="M966.1,378.45 C963.6,369.7 960.75,360.85 957.65,352.1 951.2,333.85 943.5,316.05 934.5,298.45 930.7,291.05 926.55,283.5 922.2,276.05 901.9,241.55 876.4,208.85 845.85,178.3 773.25,105.7 688.7,61.65 592.2,46.25 575.95,43.65 559.4,41.85 542.15,40.9 532.45,40.35 522.3,40.05 512.05,40.05 502.7,40.05 493.45,40.3 484.15,40.8 365.8,46.9 263.85,92.75 178.3,178.3 86.15,270.45 40.05,381.7 40.05,512.05 40.05,642.4 86.15,753.7 178.3,845.85 263.85,931.35 365.8,977.2 484.15,983.35 484.3,983.35 484.4,983.35 484.55,983.35 493.05,983.8 501.15,984.05 509.05,984.05 510.25,984.05 511.15,984.05 512.05,984.05 522.35,984.05 532.55,983.75 542.15,983.25 544.65,983.1 546.9,982.95 549.1,982.8 569.3,981.35 589,978.75 607.8,975.1 615.75,973.55 623.6,971.8 631.2,969.95 712,949.65 783.35,908.35 845.85,845.85 894.45,797.25 930.25,743.35 953.2,684.05 971.65,636.4 981.85,585.25 983.75,530.55 983.95,524.5 984.05,518.3 984.05,512.05 984.05,511.4 984.05,510.7 984.05,510.05 984.05,509.7 984.05,509.4 984.05,509.05 983.85,468.4 979.1,429.55 969.75,392.05 968.65,387.7 967.4,383.05 966.1,378.45z M712.8,139.55 C720.65,143.85 728.4,148.45 736.05,153.35 744.1,158.5 752,163.95 759.8,169.75 766.8,174.95 773.7,180.4 780.5,186.1 787.65,192.15 794.75,198.45 801.7,205.05 804.65,207.85 807.55,210.7 810.5,213.65 813.8,216.95 817.05,220.3 820.2,223.65 826.75,230.6 833.05,237.65 839.05,244.85 844.75,251.7 850.2,258.6 855.35,265.65 861.1,273.5 866.55,281.45 871.7,289.5 876.55,297.15 881.15,304.95 885.45,312.9 889.9,321.1 894.05,329.45 897.9,337.9 906.4,356.65 913.4,376 918.95,396.05 Q919,396.3 919.1,396.55 C921.8,406.4 924.15,416.45 926.1,426.6 927.35,433.25 928.5,439.95 929.5,446.7 931.8,462.8 933.25,479.25 933.8,496.1 933.95,501.4 934.05,506.7 934.05,512.05 934.05,517.5 933.95,522.9 933.8,528.3 933.25,545.1 931.8,561.55 929.45,577.7 928.45,584.4 927.3,591.05 926.05,597.65 924.1,607.8 921.75,617.85 919.05,627.75 919,628 918.9,628.25 918.85,628.5 913.3,648.55 906.2,667.95 897.65,686.75 893.85,695.1 889.75,703.35 885.35,711.45 881.05,719.35 876.45,727.15 871.6,734.8 866.45,742.85 861.05,750.8 855.3,758.6 850.1,765.65 844.65,772.55 839,779.4 832.95,786.55 826.65,793.65 820.1,800.6 816.95,803.95 813.75,807.25 810.5,810.5 807.55,813.45 804.6,816.35 801.6,819.2 794.65,825.75 787.6,832.05 780.45,838.1 773.6,843.8 766.7,849.25 759.7,854.5 751.9,860.25 744,865.7 735.95,870.85 728.3,875.7 720.5,880.3 712.65,884.65 704.15,889.3 695.5,893.65 686.75,897.65 659,910.3 629.85,919.7 599.35,925.75 592.2,927.15 584.95,928.4 577.65,929.45 562.1,931.7 546.25,933.1 530.05,933.75 524.1,933.95 518.1,934.05 512.05,934.05 506.7,934.05 501.4,933.95 496.1,933.8 480.05,933.25 464.3,931.95 448.9,929.8 441.4,928.75 433.95,927.55 426.6,926.1 396.25,920.2 367.3,911.05 339.65,898.7 330.6,894.6 321.65,890.2 312.9,885.45 304.95,881.15 297.2,876.55 289.55,871.7 281.45,866.55 273.5,861.1 265.65,855.35 258.6,850.2 251.7,844.75 244.85,839.05 237.65,833.05 230.6,826.75 223.65,820.2 220.3,817.05 216.95,813.8 213.65,810.5 210.7,807.55 207.85,804.65 205.05,801.7 198.45,794.75 192.15,787.65 186.1,780.5 180.4,773.7 174.95,766.8 169.75,759.8 163.95,752 158.5,744.1 153.35,736.05 148.45,728.4 143.85,720.65 139.55,712.8 134.7,704.05 130.25,695.1 126.15,686.05 113.65,658.5 104.4,629.65 98.4,599.4 96.8,591.45 95.45,583.4 94.35,575.25 92.3,560.5 90.95,545.5 90.4,530.2 90.15,524.2 90.05,518.15 90.05,512.05 90.05,506 90.15,500.05 90.4,494.1 90.95,478.85 92.25,463.9 94.3,449.25 95.45,441 96.8,432.85 98.4,424.8 104.35,394.6 113.6,365.75 126.05,338.25 130.2,329.2 134.65,320.25 139.45,311.45 143.8,303.6 148.4,295.85 153.3,288.2 158.45,280.15 163.9,272.2 169.65,264.45 174.85,257.45 180.3,250.55 186.05,243.75 192.05,236.55 198.35,229.5 204.95,222.55 207.8,219.55 210.7,216.6 213.65,213.65 216.9,210.4 220.2,207.2 223.55,204.05 230.5,197.5 237.6,191.2 244.8,185.2 251.6,179.45 258.5,174 265.55,168.85 273.35,163.1 281.3,157.7 289.35,152.55 297,147.7 304.8,143.1 312.7,138.8 321.5,134 330.45,129.55 339.6,125.5 367.2,113.1 396.15,103.95 426.45,98.05 433.95,96.6 441.55,95.35 449.25,94.3 464.45,92.15 480,90.85 495.85,90.35 501.2,90.15 506.6,90.05 512.05,90.05 518.15,90.05 524.2,90.15 530.2,90.4 546.25,91 562,92.4 577.45,94.65 584.85,95.7 592.15,96.95 599.4,98.4 629.7,104.4 658.65,113.7 686.25,126.25 695.2,130.3 704.05,134.75 712.8,139.55z"/>
    </g>
  </g>
</svg>