<?xml version="1.0" encoding="utf-8"?>
<!-- Generator: flash2svg, http://dissentgraphics.com/tools/flash2svg -->
<svg xmlns:xlink="http://www.w3.org/1999/xlink" id="Reeder" image-rendering="optimizeSpeed" baseProfile="basic" version="1.1" style="background-color:#ffffff" x="0px" y="0px" width="1024px" height="1024px" viewBox="0 0 1024 1024" enable-background="new 0 0 1024 1024" xmlns="http://www.w3.org/2000/svg">
  <defs transform="matrix(1 0 0 1 0 0) "/>
  <g id="shadow">
    <g id="shape">
      <path id="path" fill="#000000" fill-opacity="0.09803921568627451" d="M969.65,351.3 Q961.05,330.45 950.25,310.45 C946.2,302.9 941.9,295.4 937.35,288.05 917.8,256.35 893.95,226.4 865.8,198.25 773.65,106.1 662.35,60 532,60 401.65,60 290.4,106.1 198.25,198.25 106.1,290.4 60,401.65 60,532 60,662.35 106.1,773.65 198.25,865.8 290.4,957.95 401.65,1004 532,1004 662.35,1004 773.65,957.95 865.8,865.8 916.55,815 953.35,758.4 976.15,696.05 994.7,645.2 1004,590.55 1004,532 1004,487.1 998.55,444.45 987.6,404.05 986.35,399.5 985.05,394.95 983.7,390.45 979.6,377.15 974.9,364.1 969.65,351.3z"/>
    </g>
  </g>
  <g id="bg">
    <g id="shape2">
      <path id="path1" fill="#B68849" fill-opacity="1" d="M969.75,392.05 C968.65,387.7 967.4,383.05 966.1,378.45 965.1,375.05 964.1,371.6 962.95,367.95 961.35,362.8 959.55,357.45 957.65,352.1 951.2,333.85 943.5,316.05 934.5,298.45 930.7,291.05 926.55,283.5 922.2,276.05 901.9,241.55 876.4,208.85 845.85,178.3 773.25,105.7 688.7,61.65 592.2,46.25 575.95,43.65 559.4,41.85 542.15,40.9 532.45,40.35 522.3,40.05 512.05,40.05 502.7,40.05 493.45,40.3 484.15,40.8 365.8,46.9 263.85,92.75 178.3,178.3 Q40.05,316.55 40.05,512.05 C40.05,642.4 86.15,753.7 178.3,845.85 235,902.5 298.85,941.75 369.4,963.4 406.15,974.65 444.2,981.25 484.15,983.35 484.3,983.35 484.4,983.35 484.55,983.35 493.05,983.8 501.15,984.05 509.05,984.05 510.25,984.05 511.15,984.05 512.05,984.05 522.35,984.05 532.55,983.75 542.15,983.25 544.65,983.1 546.9,982.95 549.1,982.8 569.3,981.35 589,978.75 607.8,975.1 615.75,973.55 623.6,971.8 631.2,969.95 712,949.65 783.35,908.35 845.85,845.85 894.45,797.25 930.25,743.35 953.2,684.05 971.65,636.4 981.85,585.25 983.75,530.55 983.95,524.5 984.05,518.3 984.05,512.05 984.05,511.4 984.05,510.7 984.05,510.05 984.05,509.7 984.05,509.4 984.05,509.05 983.85,468.4 979.1,429.55 969.75,392.05z"/>
    </g>
  </g>
  <g id="Calque.__207">
    <g id="shape4">
      <path id="path3" fill="none" stroke="#E2AD69" stroke-opacity="1" stroke-width="35.85" stroke-linecap="round" stroke-linejoin="round" d="M803.65,781.15 Q907.7,667.8 901.1,514.05 C896.7,411.55 856.7,325.6 781.15,256.25 705.6,186.9 616.55,154.4 514.05,158.8 411.55,163.15 325.6,203.15 256.25,278.7 186.9,354.25 154.4,443.3 158.8,545.8 163.2,648.3 203.2,734.25 278.75,803.6 354.3,872.95 443.35,905.45 545.85,901.1 648.35,896.7 734.3,856.7 803.65,781.15z"/>
    </g>
  </g>
  <g id="bg1">
    <g id="shape6">
      <path id="path4" fill="#000000" fill-opacity="0.2" d="M743.05,450.05 L699,466.45 516.825,285.225 457.825,481.95 272.05,475.05 387.05,590.05 354.05,725.05 604.7,975.7 C605.9,975.5 606.85,975.3 607.8,975.1 615.75,973.55 623.6,971.8 631.2,969.95 712,949.65 783.35,908.35 845.85,845.85 887.35,804.35 919.5,759.05 942.3,709.75 946.2,701.3 949.85,692.75 953.2,684.05 Q956.703,675.012 959.8,665.8 L743.05,450.05z"/>
    </g>
  </g>
  <g id="Calque.__208">
    <g id="Symbole.__2023_1" overflow="visible">
      <mask id="Calque.__211">
        <g id="g1">
          <g id="shape14">
            <path id="path8" fill="#FFFFFF" fill-opacity="1" d="M517.4,286.35 C516.15,285.9 514.15,285.25 511.5,284.5 509,284.2 506.35,284.5 503.55,285.25 501.2,286.05 498.85,287.3 496.5,289 L496.35,289.5 C495.6,289.65 494.65,290.25 493.7,291.2 492.45,292.45 491.7,293.2 491.55,293.4 490.9,293.7 490.3,294.3 489.65,295.1 489.05,296.05 488.55,296.65 488.1,297.1 486.7,298.5 485.15,300.4 483.4,302.75 481.7,305.55 480.3,307.55 479.55,308.95 478.9,309.75 478.45,310.35 478.3,310.85 477.8,311.6 477.5,312.4 477.35,313 476.7,313.65 476.1,314.6 475.3,316 474.7,317.4 474.25,318.3 473.75,319.1 467.7,330.8 462.05,344.05 456.75,358.85 452.7,369.75 448.2,383.5 443.35,400.15 443.2,400.65 443.05,401.25 443.05,402.05 442.6,403.15 442.1,404.55 441.65,406.25 440.85,409.2 440.55,410.6 440.55,410.75 440.1,411.4 439.75,412.15 439.6,413.25 439.45,413.9 439.3,414.8 439.15,415.9 438.55,416.85 438.35,417.8 438.55,418.55 437.75,419.35 437.45,420.6 437.6,422.15 437.1,422.3 436.95,422.75 436.95,423.25 436.95,423.55 436.95,424 436.95,424.5 436.65,424.8 436.5,425.25 436.35,426.05 436.2,426.5 436.2,427 436.05,427.75 435.55,428.55 435.4,429.15 435.4,429.8 L434.95,431.35 C434.8,432.45 434.65,433.05 434.65,433.5 434.3,433.85 434,434.15 433.55,434.45 432.75,434.3 432.15,434.3 431.5,434.45 430.9,434.3 430.4,434 429.95,433.85 429.35,433.85 428.85,433.85 428.55,433.7 428.1,433.7 427.75,433.7 427.3,433.85 426.85,433.85 426.35,433.85 426.05,433.7 425.6,433.7 425.1,433.85 424.8,434 424.05,433.2 423.25,433.05 422.8,433.35 421.4,433.2 419.95,433.2 418.55,433.35 417.65,432.6 416.55,432.45 415.15,432.9 413.9,432.75 412.95,432.6 412.35,432.45 411.25,432.3 410.15,432.3 409.35,432.45 405.3,431.95 400,431.65 393.45,431.5 385.05,431.2 379.75,431.05 377.4,430.85 371.5,430.7 367.15,430.55 364.5,430.55 359.65,430.55 355.3,430.7 351.55,431.2 342.35,431.2 334.25,431.65 327.05,432.75 316.95,433.5 308.65,434.95 301.95,436.95 297.15,437.75 293.4,438.85 290.75,440.55 289,441 287.45,441.5 286.05,442.25 284.5,443.05 283.1,443.95 282,445.05 280.75,445.55 279.5,446.45 278.25,447.7 277.8,448.2 276.85,449.25 275.15,451.15 271.7,455.65 271.1,462.05 273.3,470 L273.6,470.15 C273.75,471.25 274.2,472.65 275,474.2 L276.85,478.1 277.35,478.25 C277.8,479.35 278.4,480.6 279.35,482 279.85,482.8 280.6,483.9 281.7,485.6 281.85,485.75 282.3,486.05 282.8,486.85 283.1,487.6 283.55,487.95 284.05,487.95 284.5,489 285.3,490.1 286.55,491.5 288.1,493.25 289,494.3 289.5,494.8 290.25,495.4 291.85,497.3 294.3,500.25 296.35,502.6 298.05,504.15 299.8,504.9 301.2,506.65 302.9,508.35 304.9,510.25 305.7,511 307.55,512.55 310.55,515.05 327.85,530.2 347.15,544.7 368.35,558.25 370.4,560.25 372.75,561.65 375.25,562.6 376,563.55 377.25,564.5 379.15,565.25 379.45,565.7 379.9,566.05 380.7,566.35 380.85,566.5 381.3,566.8 382.4,567.3 382.7,567.75 383.05,567.9 383.2,568.05 383.5,568.35 383.8,568.55 384.25,568.35 384.45,568.85 384.6,569.15 385.05,569.3 385.35,569.45 385.85,569.8 386.3,569.95 386.45,570.25 386.6,570.55 387.1,570.7 387.25,570.7 387.7,570.85 388.35,571 388.5,571.35 388.65,571.65 389.1,571.95 389.4,572.1 389.9,572.25 390.35,572.45 L391.45,572.9 C391.9,573.35 392.05,573.65 392.05,573.85 392.25,574.15 392.05,574.45 391.9,574.9 391.6,575.1 391.3,575.25 391.15,575.7 391,576.15 391,576.5 391,576.95 390.5,577.4 390.35,577.9 390.5,578.5 390.05,578.65 389.75,578.8 389.6,579.3 389.4,579.75 389.4,580.05 389.6,580.55 389.1,581 388.8,581.45 388.8,582.1 388.5,582.25 388.15,582.7 388,583.2 387.85,583.65 387.85,584.1 388,584.6 387.25,584.75 386.95,585.5 386.75,586.75 386.3,587.25 386,587.85 385.85,588.65 385.5,589.4 385.35,590.05 385.35,590.65 384.1,592.05 383.2,594.25 382.7,597.05 381.95,598 381.3,599.4 380.7,601.25 379.9,603.6 379.3,605 378.95,605.65 371.8,624.5 365.7,643.05 360.75,661 360.6,662.05 359.8,664.85 358.7,669.1 357.75,672.35 357.3,675.15 357.15,677.35 L356.7,677.35 C356.2,680.3 355.6,684.85 354.5,690.6 353.7,695.75 353.55,700.1 353.7,703.85 353.4,706.5 353.4,709.3 353.7,712.1 353.55,712.75 353.55,713.65 353.9,714.75 354.2,716.15 354.35,717.1 354.35,717.7 354.35,717.9 354.5,718.5 354.65,719.9 354.8,720.85 355.1,721.45 355.6,721.95 355.75,723.65 356.2,725.35 357.3,727.25 357.95,728.3 359,729.75 360.6,731.75 362.45,734.1 364.95,735.65 368.2,736.6 370.85,737.5 374,737.85 377.25,737.7 378.2,737.7 379.6,737.5 381.45,737.2 383.35,736.9 384.75,736.75 385.7,736.75 L385.85,736.25 C389.25,736.1 391.75,735.35 393.45,734.25 393.95,734.25 394.25,734.25 394.7,734.1 394.9,733.95 395.35,733.8 395.95,733.6 402.5,731.3 409.35,728.15 416.55,724.45 416.7,724.25 417.3,723.95 418.75,723.35 419.65,722.85 420.3,722.4 420.6,721.95 422.3,721.15 424.2,720.2 426.35,718.95 428.7,717.55 430.6,716.45 431.65,715.7 438.2,711.8 445.25,707.3 452.7,702.15 458.15,698.4 464.85,693.55 472.8,687.65 473.3,687.3 476.55,685 482.5,680.45 486.4,677.5 489.5,675 491.7,672.8 494.05,671.75 495.9,670.15 497.45,668.15 499.15,667.35 500.25,666.6 500.9,665.5 501.35,665.35 502,664.85 502.6,664.4 503.4,663.65 503.85,663.15 504,663 504.45,662.85 504.8,662.7 505.25,662.2 505.4,662.05 505.55,661.6 506.05,661 506.95,661 507.9,660.35 508.7,658.95 509.3,658.65 509.75,658.5 509.95,658.35 510.4,658.15 510.55,657.85 510.7,657.4 511.35,657.1 511.95,657.1 512.75,657.25 512.9,657.7 513.05,658.15 513.35,658.5 513.8,658.95 514.15,658.95 514.6,658.8 514.75,659.4 515.25,659.9 515.7,660.05 516.45,661.45 517.55,662.2 518.8,662.4 518.95,662.85 519.3,663.3 519.75,663.65 520.05,664.1 520.35,664.4 520.85,664.55 521,665.05 521.45,665.35 521.95,665.65 522.25,665.8 522.7,666.1 523.5,666.6 523.8,667.2 524.25,667.85 525.05,668.45 525.35,668.6 526,669.1 527.05,669.7 527.4,670.35 528,670.95 528.8,671.6 529.25,671.9 529.9,672.35 530.8,673.15 531.3,673.3 531.9,673.9 532.85,674.85 533.6,675.65 534.4,676.25 535.2,676.4 535.35,676.9 535.65,677.2 536.1,677.5 553.4,691.7 569.95,703.85 586,714.15 L598.45,721.95 C603.3,724.75 607.5,726.9 611.4,728.5 L611.55,728.95 C617.05,731.45 622.15,733.45 626.7,735.05 627.65,735.5 628.85,735.8 630.45,735.8 L630.6,736.1 C631.5,736.25 633.1,736.6 635.1,737.05 636.85,737.35 638.4,737.5 639.65,737.35 L639.65,737.85 C646,738 651.5,736.6 655.7,733.8 657.55,732.05 659.1,730.2 660.5,727.85 661.9,725.5 662.7,723.2 663,720.7 664.4,716.8 665.05,713.35 664.55,710.55 664.75,706.95 664.75,701.8 664.55,694.8 L664.1,694.65 C664.25,692.45 663.95,689.8 663.5,686.7 662.7,681.55 662.25,679.05 662.25,678.9 660.35,668.15 657.7,656.6 654.15,644.3 651.5,634.95 648.05,623.7 643.55,610.45 643.05,609.35 642.15,606.9 641.05,603.3 639.95,600.35 639,598.15 638.25,596.45 637.9,595.2 637.45,593.65 636.65,591.6 635.75,589.25 635.1,587.7 634.95,586.95 L634.5,586.75 C634.35,585.7 634.15,585.05 634,584.6 633.7,583.65 633.4,583.05 632.95,582.7 632.75,581.95 632.75,581.45 632.75,581.15 632.6,580.55 632.3,580.2 632,580.05 631.85,579.45 631.85,579 631.7,578.65 631.5,578.05 631.35,577.75 630.9,577.55 630.9,576.95 630.75,576.35 630.3,575.85 630.3,575.4 630.3,574.9 630.1,574.45 629.95,573.85 629.8,573.5 629.35,573.35 629.5,572.9 629.2,572.25 628.7,571.8 628.85,571.5 628.7,571.2 628.55,570.7 628.4,570.25 628.1,569.95 627.8,569.8 L628.25,567.75 629.35,567.75 629.35,567.45 C629.95,567.45 630.45,567.3 630.9,566.8 631.5,566.35 631.85,566.2 632,566.2 632.45,566.05 632.75,565.7 632.95,565.25 633.4,565.25 634,565.1 634.5,564.8 634.95,564.5 635.25,564.15 635.4,563.7 635.75,563.55 636.2,563.4 636.85,563.05 637.45,562.9 637.9,562.6 638.05,562.3 638.55,562.15 639,561.85 639.8,561.35 640.55,561.05 641.05,560.75 641.2,560.25 642.75,559.8 644.15,559 645.25,557.6 646.35,557.3 647.45,556.7 648.85,555.9 649,555.75 649.9,554.95 651.95,553.55 L652.75,553.25 C663.8,546.25 673.3,539.85 681.25,534.25 691.25,527.05 700.25,520.05 708.4,513.2 709.3,512.4 710.9,511.15 712.9,509.6 714.6,508.2 716,506.8 716.95,505.4 717.75,505.25 718.35,504.75 719.15,504 720.25,502.75 721,502.1 721.15,501.95 724.75,498.4 727.25,495.75 728.65,494.3 731.45,491.35 733.65,488.55 735.35,486.05 736.45,485.3 737.55,483.9 738.6,482.15 739.1,481.25 739.85,479.85 740.95,477.8 741.75,476.7 742.5,475.45 743.15,474.2 743.95,472.8 744.4,471.4 744.55,470.15 L745,470 C745.95,466.75 746.25,463.6 746.1,460.5 745.95,457.05 745,454.1 743.3,451.45 742.05,450.05 740.95,448.8 740.2,447.85 738.8,446.6 737.55,445.7 736.3,445.05 734.55,443.35 732.1,441.95 728.8,440.85 726.15,439.6 724.45,438.85 723.95,438.65 722.1,437.9 720.4,437.6 718.85,437.4 718.2,436.95 717.4,436.65 716.5,436.35 715.4,436.2 714.45,436 713.85,435.85 710.25,434.95 707.45,434.3 705.75,434 702.45,433.2 699.65,432.9 697.3,432.9 694.65,432.1 691.4,431.65 687.2,431.2 682.65,430.85 679.25,430.55 677.05,430.25 674.7,430.1 671.3,429.8 667.05,429.65 662.4,429.45 659.1,429.3 657.1,429.15 645.4,429.15 636.65,429.15 630.9,429.15 620.6,429.15 611.9,429.3 604.7,429.8 603.95,429.65 603.15,429.8 602.05,429.95 600.95,430.1 600.2,430.25 599.55,430.4 598.95,430.25 598.15,430.1 597.25,430.1 596.15,430.25 595.5,430.25 595.05,430.25 594.6,430.1 594.1,430.1 593.65,430.25 593.15,430.4 592.7,430.55 592.4,430.85 L588.8,430.85 C588.5,430.7 588.05,430.55 587.55,430.7 586.95,430.85 586.45,430.85 586.3,430.85 585.7,430.7 585.2,430.55 585.05,430.55 584.45,430.7 584.15,430.85 584.15,431.35 583.5,431.2 582.9,431.2 582.1,431.35 L580.55,431.35 579.15,430.4 C579.3,429.8 579.3,429.3 579.3,429 579.3,428.55 579.15,428.2 578.7,428.05 L578.7,426.65 C578.7,426.05 578.5,425.25 578.05,424.35 577.9,423.55 577.9,423.1 577.75,422.75 577.75,422.15 577.6,421.7 577.25,421.5 577.25,420.45 577.1,419.35 576.65,418.55 576.65,418.1 576.65,417.8 576.5,417.3 576.35,416.7 576.2,416.2 576.05,416.05 575.85,415.15 575.85,414.5 575.85,414.35 575.7,413.55 575.4,413.1 575.1,412.8 575.1,410.75 574.8,409.2 574,407.8 573.4,404.05 572.6,401.1 571.65,398.9 567.6,381.75 561.7,363.05 554.05,342.65 551.1,335.3 549.05,330.3 547.8,327.5 545.3,321.9 542.8,317.05 540.35,313 540.35,312.4 540.15,311.75 539.7,311.15 539.25,310.35 538.75,309.9 538.6,309.6 536.9,306.8 535.65,304.75 534.7,303.35 533.15,301 531.6,299 530.2,297.6 L530.05,296.65 Q529.4,296.2 526.45,293.05 C525.05,291.5 523.65,290.4 522.4,289.95 521.3,288.55 519.6,287.3 517.4,286.35z"/>
          </g>
        </g>
      </mask>
      <g id="masked1" mask="url(#Calque.__211)">
        <g id="Calque.__213">
          <g id="shape15">
            <path id="path9" fill="#6A2B2C" fill-opacity="1" d="M517.4,286.35 C516.15,285.9 514.15,285.25 511.5,284.5 509,284.2 506.35,284.5 503.55,285.25 501.2,286.05 498.85,287.3 496.5,289 L496.35,289.5 C495.6,289.65 494.65,290.25 493.7,291.2 492.45,292.45 491.7,293.2 491.55,293.4 490.9,293.7 490.3,294.3 489.65,295.1 489.05,296.05 488.55,296.65 488.1,297.1 486.7,298.5 485.15,300.4 483.4,302.75 481.7,305.55 480.3,307.55 479.55,308.95 478.9,309.75 478.45,310.35 478.3,310.85 477.8,311.6 477.5,312.4 477.35,313 476.7,313.65 476.1,314.6 475.3,316 474.7,317.4 474.25,318.3 473.75,319.1 467.7,330.8 462.05,344.05 456.75,358.85 452.7,369.75 448.2,383.5 443.35,400.15 443.2,400.65 443.05,401.25 443.05,402.05 442.6,403.15 442.1,404.55 441.65,406.25 440.85,409.2 440.55,410.6 440.55,410.75 440.1,411.4 439.75,412.15 439.6,413.25 439.45,413.9 439.3,414.8 439.15,415.9 438.55,416.85 438.35,417.8 438.55,418.55 437.75,419.35 437.45,420.6 437.6,422.15 437.1,422.3 436.95,422.75 436.95,423.25 436.95,423.55 436.95,424 436.95,424.5 436.65,424.8 436.5,425.25 436.35,426.05 436.2,426.5 436.2,427 436.05,427.75 435.55,428.55 435.4,429.15 435.4,429.8 L434.95,431.35 C434.8,432.45 434.65,433.05 434.65,433.5 434.3,433.85 434,434.15 433.55,434.45 432.75,434.3 432.15,434.3 431.5,434.45 430.9,434.3 430.4,434 429.95,433.85 429.35,433.85 428.85,433.85 428.55,433.7 428.1,433.7 427.75,433.7 427.3,433.85 426.85,433.85 426.35,433.85 426.05,433.7 425.6,433.7 425.1,433.85 424.8,434 424.05,433.2 423.25,433.05 422.8,433.35 421.4,433.2 419.95,433.2 418.55,433.35 417.65,432.6 416.55,432.45 415.15,432.9 413.9,432.75 412.95,432.6 412.35,432.45 411.25,432.3 410.15,432.3 409.35,432.45 405.3,431.95 400,431.65 393.45,431.5 385.05,431.2 379.75,431.05 377.4,430.85 371.5,430.7 367.15,430.55 364.5,430.55 359.65,430.55 355.3,430.7 351.55,431.2 342.35,431.2 334.25,431.65 327.05,432.75 316.95,433.5 308.65,434.95 301.95,436.95 297.15,437.75 293.4,438.85 290.75,440.55 289,441 287.45,441.5 286.05,442.25 284.5,443.05 283.1,443.95 282,445.05 280.75,445.55 279.5,446.45 278.25,447.7 277.8,448.2 276.85,449.25 275.15,451.15 271.7,455.65 271.1,462.05 273.3,470 L273.6,470.15 C273.75,471.25 274.2,472.65 275,474.2 L276.85,478.1 277.35,478.25 C277.8,479.35 278.4,480.6 279.35,482 279.85,482.8 280.6,483.9 281.7,485.6 281.85,485.75 282.3,486.05 282.8,486.85 283.1,487.6 283.55,487.95 284.05,487.95 284.5,489 285.3,490.1 286.55,491.5 288.1,493.25 289,494.3 289.5,494.8 290.25,495.4 291.85,497.3 294.3,500.25 296.35,502.6 298.05,504.15 299.8,504.9 301.2,506.65 302.9,508.35 304.9,510.25 305.7,511 307.55,512.55 310.55,515.05 327.85,530.2 347.15,544.7 368.35,558.25 370.4,560.25 372.75,561.65 375.25,562.6 376,563.55 377.25,564.5 379.15,565.25 379.45,565.7 379.9,566.05 380.7,566.35 380.85,566.5 381.3,566.8 382.4,567.3 382.7,567.75 383.05,567.9 383.2,568.05 383.5,568.35 383.8,568.55 384.25,568.35 384.45,568.85 384.6,569.15 385.05,569.3 385.35,569.45 385.85,569.8 386.3,569.95 386.45,570.25 386.6,570.55 387.1,570.7 387.25,570.7 387.7,570.85 388.35,571 388.5,571.35 388.65,571.65 389.1,571.95 389.4,572.1 389.9,572.25 390.35,572.45 L391.45,572.9 C391.9,573.35 392.05,573.65 392.05,573.85 392.25,574.15 392.05,574.45 391.9,574.9 391.6,575.1 391.3,575.25 391.15,575.7 391,576.15 391,576.5 391,576.95 390.5,577.4 390.35,577.9 390.5,578.5 390.05,578.65 389.75,578.8 389.6,579.3 389.4,579.75 389.4,580.05 389.6,580.55 389.1,581 388.8,581.45 388.8,582.1 388.5,582.25 388.15,582.7 388,583.2 387.85,583.65 387.85,584.1 388,584.6 387.25,584.75 386.95,585.5 386.75,586.75 386.3,587.25 386,587.85 385.85,588.65 385.5,589.4 385.35,590.05 385.35,590.65 384.1,592.05 383.2,594.25 382.7,597.05 381.95,598 381.3,599.4 380.7,601.25 379.9,603.6 379.3,605 378.95,605.65 371.8,624.5 365.7,643.05 360.75,661 360.6,662.05 359.8,664.85 358.7,669.1 357.75,672.35 357.3,675.15 357.15,677.35 L356.7,677.35 C356.2,680.3 355.6,684.85 354.5,690.6 353.7,695.75 353.55,700.1 353.7,703.85 353.4,706.5 353.4,709.3 353.7,712.1 353.55,712.75 353.55,713.65 353.9,714.75 354.2,716.15 354.35,717.1 354.35,717.7 354.35,717.9 354.5,718.5 354.65,719.9 354.8,720.85 355.1,721.45 355.6,721.95 355.75,723.65 356.2,725.35 357.3,727.25 357.95,728.3 359,729.75 360.6,731.75 362.45,734.1 364.95,735.65 368.2,736.6 370.85,737.5 374,737.85 377.25,737.7 378.2,737.7 379.6,737.5 381.45,737.2 383.35,736.9 384.75,736.75 385.7,736.75 L385.85,736.25 C389.25,736.1 391.75,735.35 393.45,734.25 393.95,734.25 394.25,734.25 394.7,734.1 394.9,733.95 395.35,733.8 395.95,733.6 402.5,731.3 409.35,728.15 416.55,724.45 416.7,724.25 417.3,723.95 418.75,723.35 419.65,722.85 420.3,722.4 420.6,721.95 422.3,721.15 424.2,720.2 426.35,718.95 428.7,717.55 430.6,716.45 431.65,715.7 438.2,711.8 445.25,707.3 452.7,702.15 458.15,698.4 464.85,693.55 472.8,687.65 473.3,687.3 476.55,685 482.5,680.45 486.4,677.5 489.5,675 491.7,672.8 494.05,671.75 495.9,670.15 497.45,668.15 499.15,667.35 500.25,666.6 500.9,665.5 501.35,665.35 502,664.85 502.6,664.4 503.4,663.65 503.85,663.15 504,663 504.45,662.85 504.8,662.7 505.25,662.2 505.4,662.05 505.55,661.6 506.05,661 506.95,661 507.9,660.35 508.7,658.95 509.3,658.65 509.75,658.5 509.95,658.35 510.4,658.15 510.55,657.85 510.7,657.4 511.35,657.1 511.95,657.1 512.75,657.25 512.9,657.7 513.05,658.15 513.35,658.5 513.8,658.95 514.15,658.95 514.6,658.8 514.75,659.4 515.25,659.9 515.7,660.05 516.45,661.45 517.55,662.2 518.8,662.4 518.95,662.85 519.3,663.3 519.75,663.65 520.05,664.1 520.35,664.4 520.85,664.55 521,665.05 521.45,665.35 521.95,665.65 522.25,665.8 522.7,666.1 523.5,666.6 523.8,667.2 524.25,667.85 525.05,668.45 525.35,668.6 526,669.1 527.05,669.7 527.4,670.35 528,670.95 528.8,671.6 529.25,671.9 529.9,672.35 530.8,673.15 531.3,673.3 531.9,673.9 532.85,674.85 533.6,675.65 534.4,676.25 535.2,676.4 535.35,676.9 535.65,677.2 536.1,677.5 553.4,691.7 569.95,703.85 586,714.15 L598.45,721.95 C603.3,724.75 607.5,726.9 611.4,728.5 L611.55,728.95 C617.05,731.45 622.15,733.45 626.7,735.05 627.65,735.5 628.85,735.8 630.45,735.8 L630.6,736.1 C631.5,736.25 633.1,736.6 635.1,737.05 636.85,737.35 638.4,737.5 639.65,737.35 L639.65,737.85 C646,738 651.5,736.6 655.7,733.8 657.55,732.05 659.1,730.2 660.5,727.85 661.9,725.5 662.7,723.2 663,720.7 664.4,716.8 665.05,713.35 664.55,710.55 664.75,706.95 664.75,701.8 664.55,694.8 L664.1,694.65 C664.25,692.45 663.95,689.8 663.5,686.7 662.7,681.55 662.25,679.05 662.25,678.9 660.35,668.15 657.7,656.6 654.15,644.3 651.5,634.95 648.05,623.7 643.55,610.45 643.05,609.35 642.15,606.9 641.05,603.3 639.95,600.35 639,598.15 638.25,596.45 637.9,595.2 637.45,593.65 636.65,591.6 635.75,589.25 635.1,587.7 634.95,586.95 L634.5,586.75 C634.35,585.7 634.15,585.05 634,584.6 633.7,583.65 633.4,583.05 632.95,582.7 632.75,581.95 632.75,581.45 632.75,581.15 632.6,580.55 632.3,580.2 632,580.05 631.85,579.45 631.85,579 631.7,578.65 631.5,578.05 631.35,577.75 630.9,577.55 630.9,576.95 630.75,576.35 630.3,575.85 630.3,575.4 630.3,574.9 630.1,574.45 629.95,573.85 629.8,573.5 629.35,573.35 629.5,572.9 629.2,572.25 628.7,571.8 628.85,571.5 628.7,571.2 628.55,570.7 628.4,570.25 628.1,569.95 627.8,569.8 L628.25,567.75 629.35,567.75 629.35,567.45 C629.95,567.45 630.45,567.3 630.9,566.8 631.5,566.35 631.85,566.2 632,566.2 632.45,566.05 632.75,565.7 632.95,565.25 633.4,565.25 634,565.1 634.5,564.8 634.95,564.5 635.25,564.15 635.4,563.7 635.75,563.55 636.2,563.4 636.85,563.05 637.45,562.9 637.9,562.6 638.05,562.3 638.55,562.15 639,561.85 639.8,561.35 640.55,561.05 641.05,560.75 641.2,560.25 642.75,559.8 644.15,559 645.25,557.6 646.35,557.3 647.45,556.7 648.85,555.9 649,555.75 649.9,554.95 651.95,553.55 L652.75,553.25 C663.8,546.25 673.3,539.85 681.25,534.25 691.25,527.05 700.25,520.05 708.4,513.2 709.3,512.4 710.9,511.15 712.9,509.6 714.6,508.2 716,506.8 716.95,505.4 717.75,505.25 718.35,504.75 719.15,504 720.25,502.75 721,502.1 721.15,501.95 724.75,498.4 727.25,495.75 728.65,494.3 731.45,491.35 733.65,488.55 735.35,486.05 736.45,485.3 737.55,483.9 738.6,482.15 739.1,481.25 739.85,479.85 740.95,477.8 741.75,476.7 742.5,475.45 743.15,474.2 743.95,472.8 744.4,471.4 744.55,470.15 L745,470 C745.95,466.75 746.25,463.6 746.1,460.5 745.95,457.05 745,454.1 743.3,451.45 742.05,450.05 740.95,448.8 740.2,447.85 738.8,446.6 737.55,445.7 736.3,445.05 734.55,443.35 732.1,441.95 728.8,440.85 726.15,439.6 724.45,438.85 723.95,438.65 722.1,437.9 720.4,437.6 718.85,437.4 718.2,436.95 717.4,436.65 716.5,436.35 715.4,436.2 714.45,436 713.85,435.85 710.25,434.95 707.45,434.3 705.75,434 702.45,433.2 699.65,432.9 697.3,432.9 694.65,432.1 691.4,431.65 687.2,431.2 682.65,430.85 679.25,430.55 677.05,430.25 674.7,430.1 671.3,429.8 667.05,429.65 662.4,429.45 659.1,429.3 657.1,429.15 645.4,429.15 636.65,429.15 630.9,429.15 620.6,429.15 611.9,429.3 604.7,429.8 603.95,429.65 603.15,429.8 602.05,429.95 600.95,430.1 600.2,430.25 599.55,430.4 598.95,430.25 598.15,430.1 597.25,430.1 596.15,430.25 595.5,430.25 595.05,430.25 594.6,430.1 594.1,430.1 593.65,430.25 593.15,430.4 592.7,430.55 592.4,430.85 L588.8,430.85 C588.5,430.7 588.05,430.55 587.55,430.7 586.95,430.85 586.45,430.85 586.3,430.85 585.7,430.7 585.2,430.55 585.05,430.55 584.45,430.7 584.15,430.85 584.15,431.35 583.5,431.2 582.9,431.2 582.1,431.35 L580.55,431.35 579.15,430.4 C579.3,429.8 579.3,429.3 579.3,429 579.3,428.55 579.15,428.2 578.7,428.05 L578.7,426.65 C578.7,426.05 578.5,425.25 578.05,424.35 577.9,423.55 577.9,423.1 577.75,422.75 577.75,422.15 577.6,421.7 577.25,421.5 577.25,420.45 577.1,419.35 576.65,418.55 576.65,418.1 576.65,417.8 576.5,417.3 576.35,416.7 576.2,416.2 576.05,416.05 575.85,415.15 575.85,414.5 575.85,414.35 575.7,413.55 575.4,413.1 575.1,412.8 575.1,410.75 574.8,409.2 574,407.8 573.4,404.05 572.6,401.1 571.65,398.9 567.6,381.75 561.7,363.05 554.05,342.65 551.1,335.3 549.05,330.3 547.8,327.5 545.3,321.9 542.8,317.05 540.35,313 540.35,312.4 540.15,311.75 539.7,311.15 539.25,310.35 538.75,309.9 538.6,309.6 536.9,306.8 535.65,304.75 534.7,303.35 533.15,301 531.6,299 530.2,297.6 L530.05,296.65 Q529.4,296.2 526.45,293.05 C525.05,291.5 523.65,290.4 522.4,289.95 521.3,288.55 519.6,287.3 517.4,286.35z"/>
          </g>
        </g>
        <g id="Calque.__214">
          <g id="shape16">
            <path id="path10" fill="#7A3233" fill-opacity="1" d="M517.4,324.35 C516.15,323.9 514.15,323.25 511.5,322.5 509,322.2 506.35,322.5 503.55,323.25 501.2,324.05 498.85,325.3 496.5,327 L496.35,327.5 C495.6,327.65 494.65,328.25 493.7,329.2 492.45,330.45 491.7,331.2 491.55,331.4 490.9,331.7 490.3,332.3 489.65,333.1 489.05,334.05 488.55,334.65 488.1,335.1 486.7,336.5 485.15,338.4 483.4,340.75 481.7,343.55 480.3,345.55 479.55,346.95 478.9,347.75 478.45,348.35 478.3,348.85 477.8,349.6 477.5,350.4 477.35,351 476.7,351.65 476.1,352.6 475.3,354 474.7,355.4 474.25,356.3 473.75,357.1 467.7,368.8 462.05,382.05 456.75,396.85 452.7,407.75 448.2,421.5 443.35,438.15 443.2,438.65 443.05,439.25 443.05,440.05 442.6,441.15 442.1,442.55 441.65,444.25 440.85,447.2 440.55,448.6 440.55,448.75 440.1,449.4 439.75,450.15 439.6,451.25 439.45,451.9 439.3,452.8 439.15,453.9 438.55,454.85 438.35,455.8 438.55,456.55 437.75,457.35 437.45,458.6 437.6,460.15 437.1,460.3 436.95,460.75 436.95,461.25 436.95,461.55 436.95,462 436.95,462.5 436.65,462.8 436.5,463.25 436.35,464.05 436.2,464.5 436.2,465 436.05,465.75 435.55,466.55 435.4,467.15 435.4,467.8 L434.95,469.35 C434.8,470.45 434.65,471.05 434.65,471.5 434.3,471.85 434,472.15 433.55,472.45 432.75,472.3 432.15,472.3 431.5,472.45 430.9,472.3 430.4,472 429.95,471.85 429.35,471.85 428.85,471.85 428.55,471.7 428.1,471.7 427.75,471.7 427.3,471.85 426.85,471.85 426.35,471.85 426.05,471.7 425.6,471.7 425.1,471.85 424.8,472 424.05,471.2 423.25,471.05 422.8,471.35 421.4,471.2 419.95,471.2 418.55,471.35 417.65,470.6 416.55,470.45 415.15,470.9 413.9,470.75 412.95,470.6 412.35,470.45 411.25,470.3 410.15,470.3 409.35,470.45 405.3,469.95 400,469.65 393.45,469.5 385.05,469.2 379.75,469.05 377.4,468.85 371.5,468.7 367.15,468.55 364.5,468.55 359.65,468.55 355.3,468.7 351.55,469.2 342.35,469.2 334.25,469.65 327.05,470.75 316.95,471.5 308.65,472.95 301.95,474.95 297.15,475.75 293.4,476.85 290.75,478.55 289,479 287.45,479.5 286.05,480.25 284.5,481.05 283.1,481.95 282,483.05 280.75,483.55 279.5,484.45 278.25,485.7 277.8,486.2 276.85,487.25 275.15,489.15 271.7,493.65 271.1,500.05 273.3,508 L273.6,508.15 C273.75,509.25 274.2,510.65 275,512.2 L276.85,516.1 277.35,516.25 C277.8,517.35 278.4,518.6 279.35,520 279.85,520.8 280.6,521.9 281.7,523.6 281.85,523.75 282.3,524.05 282.8,524.85 283.1,525.6 283.55,525.95 284.05,525.95 284.5,527 285.3,528.1 286.55,529.5 288.1,531.25 289,532.3 289.5,532.8 290.25,533.4 291.85,535.3 294.3,538.25 296.35,540.6 298.05,542.15 299.8,542.9 301.2,544.65 302.9,546.35 304.9,548.25 305.7,549 307.55,550.55 310.55,553.05 327.85,568.2 347.15,582.7 368.35,596.25 370.4,598.25 372.75,599.65 375.25,600.6 376,601.55 377.25,602.5 379.15,603.25 379.45,603.7 379.9,604.05 380.7,604.35 380.85,604.5 381.3,604.8 382.4,605.3 382.7,605.75 383.05,605.9 383.2,606.05 383.5,606.35 383.8,606.55 384.25,606.35 384.45,606.85 384.6,607.15 385.05,607.3 385.35,607.45 385.85,607.8 386.3,607.95 386.45,608.25 386.6,608.55 387.1,608.7 387.25,608.7 387.7,608.85 388.35,609 388.5,609.35 388.65,609.65 389.1,609.95 389.4,610.1 389.9,610.25 390.35,610.45 L391.45,610.9 C391.9,611.35 392.05,611.65 392.05,611.85 392.25,612.15 392.05,612.45 391.9,612.9 391.6,613.1 391.3,613.25 391.15,613.7 391,614.15 391,614.5 391,614.95 390.5,615.4 390.35,615.9 390.5,616.5 390.05,616.65 389.75,616.8 389.6,617.3 389.4,617.75 389.4,618.05 389.6,618.55 389.1,619 388.8,619.45 388.8,620.1 388.5,620.25 388.15,620.7 388,621.2 387.85,621.65 387.85,622.1 388,622.6 387.25,622.75 386.95,623.5 386.75,624.75 386.3,625.25 386,625.85 385.85,626.65 385.5,627.4 385.35,628.05 385.35,628.65 384.1,630.05 383.2,632.25 382.7,635.05 381.95,636 381.3,637.4 380.7,639.25 379.9,641.6 379.3,643 378.95,643.65 371.8,662.5 365.7,681.05 360.75,699 360.6,700.05 359.8,702.85 358.7,707.1 357.75,710.35 357.3,713.15 357.15,715.35 L356.7,715.35 C356.2,718.3 355.6,722.85 354.5,728.6 353.7,733.75 353.55,738.1 353.7,741.85 353.4,744.5 353.4,747.3 353.7,750.1 353.55,750.75 353.55,751.65 353.9,752.75 354.2,754.15 354.35,755.1 354.35,755.7 354.35,755.9 354.5,756.5 354.65,757.9 354.8,758.85 355.1,759.45 355.6,759.95 355.75,761.65 356.2,763.35 357.3,765.25 357.95,766.3 359,767.75 360.6,769.75 362.45,772.1 364.95,773.65 368.2,774.6 370.85,775.5 374,775.85 377.25,775.7 378.2,775.7 379.6,775.5 381.45,775.2 383.35,774.9 384.75,774.75 385.7,774.75 L385.85,774.25 C389.25,774.1 391.75,773.35 393.45,772.25 393.95,772.25 394.25,772.25 394.7,772.1 394.9,771.95 395.35,771.8 395.95,771.6 402.5,769.3 409.35,766.15 416.55,762.45 416.7,762.25 417.3,761.95 418.75,761.35 419.65,760.85 420.3,760.4 420.6,759.95 422.3,759.15 424.2,758.2 426.35,756.95 428.7,755.55 430.6,754.45 431.65,753.7 438.2,749.8 445.25,745.3 452.7,740.15 458.15,736.4 464.85,731.55 472.8,725.65 473.3,725.3 476.55,723 482.5,718.45 486.4,715.5 489.5,713 491.7,710.8 494.05,709.75 495.9,708.15 497.45,706.15 499.15,705.35 500.25,704.6 500.9,703.5 501.35,703.35 502,702.85 502.6,702.4 503.4,701.65 503.85,701.15 504,701 504.45,700.85 504.8,700.7 505.25,700.2 505.4,700.05 505.55,699.6 506.05,699 506.95,699 507.9,698.35 508.7,696.95 509.3,696.65 509.75,696.5 509.95,696.35 510.4,696.15 510.55,695.85 510.7,695.4 511.35,695.1 511.95,695.1 512.75,695.25 512.9,695.7 513.05,696.15 513.35,696.5 513.8,696.95 514.15,696.95 514.6,696.8 514.75,697.4 515.25,697.9 515.7,698.05 516.45,699.45 517.55,700.2 518.8,700.4 518.95,700.85 519.3,701.3 519.75,701.65 520.05,702.1 520.35,702.4 520.85,702.55 521,703.05 521.45,703.35 521.95,703.65 522.25,703.8 522.7,704.1 523.5,704.6 523.8,705.2 524.25,705.85 525.05,706.45 525.35,706.6 526,707.1 527.05,707.7 527.4,708.35 528,708.95 528.8,709.6 529.25,709.9 529.9,710.35 530.8,711.15 531.3,711.3 531.9,711.9 532.85,712.85 533.6,713.65 534.4,714.25 535.2,714.4 535.35,714.9 535.65,715.2 536.1,715.5 553.4,729.7 569.95,741.85 586,752.15 L598.45,759.95 C603.3,762.75 607.5,764.9 611.4,766.5 L611.55,766.95 C617.05,769.45 622.15,771.45 626.7,773.05 627.65,773.5 628.85,773.8 630.45,773.8 L630.6,774.1 C631.5,774.25 633.1,774.6 635.1,775.05 636.85,775.35 638.4,775.5 639.65,775.35 L639.65,775.85 C646,776 651.5,774.6 655.7,771.8 657.55,770.05 659.1,768.2 660.5,765.85 661.9,763.5 662.7,761.2 663,758.7 664.4,754.8 665.05,751.35 664.55,748.55 664.75,744.95 664.75,739.8 664.55,732.8 L664.1,732.65 C664.25,730.45 663.95,727.8 663.5,724.7 662.7,719.55 662.25,717.05 662.25,716.9 660.35,706.15 657.7,694.6 654.15,682.3 651.5,672.95 648.05,661.7 643.55,648.45 643.05,647.35 642.15,644.9 641.05,641.3 639.95,638.35 639,636.15 638.25,634.45 637.9,633.2 637.45,631.65 636.65,629.6 635.75,627.25 635.1,625.7 634.95,624.95 L634.5,624.75 C634.35,623.7 634.15,623.05 634,622.6 633.7,621.65 633.4,621.05 632.95,620.7 632.75,619.95 632.75,619.45 632.75,619.15 632.6,618.55 632.3,618.2 632,618.05 631.85,617.45 631.85,617 631.7,616.65 631.5,616.05 631.35,615.75 630.9,615.55 630.9,614.95 630.75,614.35 630.3,613.85 630.3,613.4 630.3,612.9 630.1,612.45 629.95,611.85 629.8,611.5 629.35,611.35 629.5,610.9 629.2,610.25 628.7,609.8 628.85,609.5 628.7,609.2 628.55,608.7 628.4,608.25 628.1,607.95 627.8,607.8 L628.25,605.75 629.35,605.75 629.35,605.45 C629.95,605.45 630.45,605.3 630.9,604.8 631.5,604.35 631.85,604.2 632,604.2 632.45,604.05 632.75,603.7 632.95,603.25 633.4,603.25 634,603.1 634.5,602.8 634.95,602.5 635.25,602.15 635.4,601.7 635.75,601.55 636.2,601.4 636.85,601.05 637.45,600.9 637.9,600.6 638.05,600.3 638.55,600.15 639,599.85 639.8,599.35 640.55,599.05 641.05,598.75 641.2,598.25 642.75,597.8 644.15,597 645.25,595.6 646.35,595.3 647.45,594.7 648.85,593.9 649,593.75 649.9,592.95 651.95,591.55 L652.75,591.25 C663.8,584.25 673.3,577.85 681.25,572.25 691.25,565.05 700.25,558.05 708.4,551.2 709.3,550.4 710.9,549.15 712.9,547.6 714.6,546.2 716,544.8 716.95,543.4 717.75,543.25 718.35,542.75 719.15,542 720.25,540.75 721,540.1 721.15,539.95 724.75,536.4 727.25,533.75 728.65,532.3 731.45,529.35 733.65,526.55 735.35,524.05 736.45,523.3 737.55,521.9 738.6,520.15 739.1,519.25 739.85,517.85 740.95,515.8 741.75,514.7 742.5,513.45 743.15,512.2 743.95,510.8 744.4,509.4 744.55,508.15 L745,508 C745.95,504.75 746.25,501.6 746.1,498.5 745.95,495.05 745,492.1 743.3,489.45 742.05,488.05 740.95,486.8 740.2,485.85 738.8,484.6 737.55,483.7 736.3,483.05 734.55,481.35 732.1,479.95 728.8,478.85 726.15,477.6 724.45,476.85 723.95,476.65 722.1,475.9 720.4,475.6 718.85,475.4 718.2,474.95 717.4,474.65 716.5,474.35 715.4,474.2 714.45,474 713.85,473.85 710.25,472.95 707.45,472.3 705.75,472 702.45,471.2 699.65,470.9 697.3,470.9 694.65,470.1 691.4,469.65 687.2,469.2 682.65,468.85 679.25,468.55 677.05,468.25 674.7,468.1 671.3,467.8 667.05,467.65 662.4,467.45 659.1,467.3 657.1,467.15 645.4,467.15 636.65,467.15 630.9,467.15 620.6,467.15 611.9,467.3 604.7,467.8 603.95,467.65 603.15,467.8 602.05,467.95 600.95,468.1 600.2,468.25 599.55,468.4 598.95,468.25 598.15,468.1 597.25,468.1 596.15,468.25 595.5,468.25 595.05,468.25 594.6,468.1 594.1,468.1 593.65,468.25 593.15,468.4 592.7,468.55 592.4,468.85 L588.8,468.85 C588.5,468.7 588.05,468.55 587.55,468.7 586.95,468.85 586.45,468.85 586.3,468.85 585.7,468.7 585.2,468.55 585.05,468.55 584.45,468.7 584.15,468.85 584.15,469.35 583.5,469.2 582.9,469.2 582.1,469.35 L580.55,469.35 579.15,468.4 C579.3,467.8 579.3,467.3 579.3,467 579.3,466.55 579.15,466.2 578.7,466.05 L578.7,464.65 C578.7,464.05 578.5,463.25 578.05,462.35 577.9,461.55 577.9,461.1 577.75,460.75 577.75,460.15 577.6,459.7 577.25,459.5 577.25,458.45 577.1,457.35 576.65,456.55 576.65,456.1 576.65,455.8 576.5,455.3 576.35,454.7 576.2,454.2 576.05,454.05 575.85,453.15 575.85,452.5 575.85,452.35 575.7,451.55 575.4,451.1 575.1,450.8 575.1,448.75 574.8,447.2 574,445.8 573.4,442.05 572.6,439.1 571.65,436.9 567.6,419.75 561.7,401.05 554.05,380.65 551.1,373.3 549.05,368.3 547.8,365.5 545.3,359.9 542.8,355.05 540.35,351 540.35,350.4 540.15,349.75 539.7,349.15 539.25,348.35 538.75,347.9 538.6,347.6 536.9,344.8 535.65,342.75 534.7,341.35 533.15,339 531.6,337 530.2,335.6 L530.05,334.65 Q529.4,334.2 526.45,331.05 C525.05,329.5 523.65,328.4 522.4,327.95 521.3,326.55 519.6,325.3 517.4,324.35z"/>
          </g>
        </g>
      </g>
    </g>
  </g>
</svg>