<?xml version="1.0" encoding="utf-8"?>
<!-- Generator: flash2svg, http://dissentgraphics.com/tools/flash2svg -->
<svg xmlns:xlink="http://www.w3.org/1999/xlink" id="Simple-Comic" image-rendering="optimizeSpeed" baseProfile="basic" version="1.1" style="background-color:#ffffff" x="0px" y="0px" width="1024px" height="1024px" viewBox="0 0 1024 1024" enable-background="new 0 0 1024 1024" xmlns="http://www.w3.org/2000/svg">
  <defs transform="matrix(1 0 0 1 0 0) "/>
  <g id="shadow">
    <g id="shape">
      <path id="path" fill="#000000" fill-opacity="0.09803921568627451" d="M969.65,351.3 Q961.05,330.45 950.25,310.45 C946.2,302.9 941.9,295.4 937.35,288.05 917.8,256.35 893.95,226.4 865.8,198.25 773.65,106.1 662.35,60 532,60 401.65,60 290.4,106.1 198.25,198.25 106.1,290.4 60,401.65 60,532 60,662.35 106.1,773.65 198.25,865.8 290.4,957.95 401.65,1004 532,1004 662.35,1004 773.65,957.95 865.8,865.8 916.55,815 953.35,758.4 976.15,696.05 994.7,645.2 1004,590.55 1004,532 1004,487.1 998.55,444.45 987.6,404.05 986.35,399.5 985.05,394.95 983.7,390.45 979.6,377.15 974.9,364.1 969.65,351.3z"/>
    </g>
  </g>
  <g id="circle">
    <g id="shape2">
      <path id="path1" fill="#436485" fill-opacity="1" d="M969.75,392.05 C968.65,387.7 967.4,383.05 966.1,378.45 963.6,369.7 960.75,360.85 957.65,352.1 951.2,333.85 943.5,316.05 934.5,298.45 930.7,291.05 926.55,283.5 922.2,276.05 901.9,241.55 876.4,208.85 845.85,178.3 773.25,105.7 688.7,61.65 592.2,46.25 575.95,43.65 559.4,41.85 542.15,40.9 532.45,40.35 522.3,40.05 512.05,40.05 502.7,40.05 493.45,40.3 484.15,40.8 365.8,46.9 263.85,92.75 178.3,178.3 Q40.05,316.55 40.05,512.05 C40.05,642.4 86.15,753.7 178.3,845.85 248.7,916.2 330.2,959.7 422.25,976.25 442.7,979.9 463.15,982.25 484.15,983.35 484.3,983.35 484.4,983.35 484.55,983.35 493.05,983.8 501.15,984.05 509.05,984.05 510.25,984.05 511.15,984.05 512.05,984.05 522.35,984.05 532.55,983.75 542.15,983.25 544.65,983.1 546.9,982.95 549.1,982.8 569.3,981.35 589,978.75 607.8,975.1 615.75,973.55 623.6,971.8 631.2,969.95 712,949.65 783.35,908.35 845.85,845.85 894.45,797.25 930.25,743.35 953.2,684.05 971.65,636.4 981.85,585.25 983.75,530.55 983.95,524.5 984.05,518.3 984.05,512.05 984.05,511.4 984.05,510.7 984.05,510.05 984.05,509.7 984.05,509.4 984.05,509.05 983.95,489.15 982.8,469.7 980.5,450.5 978.1,430.7 974.55,411.2 969.75,392.05z"/>
    </g>
  </g>
  <g id="circle1">
    <g id="shape4">
      <path id="path2" fill="#000000" fill-opacity="0.2" d="M969.75,392.05 C968.65,387.7 967.4,383.05 966.1,378.45 963.6,369.7 960.75,360.85 957.65,352.1 954.85,344.1 951.8,336.2 948.45,328.3 L948.425,328.275 L838.25,175.15 396.425,970.8 L396.45,970.8 C405.25,972.95 413.7,974.7 422.25,976.25 442.7,979.9 463.15,982.25 484.15,983.35 484.3,983.35 484.4,983.35 484.55,983.35 493.05,983.8 501.15,984.05 509.05,984.05 Q510.544,984.05 512.05,984.05 C522.35,984.05 532.55,983.75 542.15,983.25 544.65,983.1 546.9,982.95 549.1,982.8 569.3,981.35 589,978.75 607.8,975.1 615.75,973.55 623.6,971.8 631.2,969.95 712,949.65 783.35,908.35 845.85,845.85 894.45,797.25 930.25,743.35 953.2,684.05 971.65,636.4 981.85,585.25 983.75,530.55 983.95,524.5 984.05,518.3 984.05,512.05 984.05,511.4 984.05,510.7 984.05,510.05 984.05,509.7 984.05,509.4 984.05,509.05 983.95,489.15 982.8,469.7 980.5,450.5 978.1,430.7 974.55,411.2 969.75,392.05z"/>
    </g>
  </g>
  <mask id="circle2">
    <g id="g">
      <g id="shape63">
        <path id="path45" fill="#FFFFFF" fill-opacity="1" d="M969.75,392.05 C968.65,387.7 967.4,383.05 966.1,378.45 963.6,369.7 960.75,360.85 957.65,352.1 951.2,333.85 943.5,316.05 934.5,298.45 930.7,291.05 926.55,283.5 922.2,276.05 901.9,241.55 876.4,208.85 845.85,178.3 773.25,105.7 688.7,61.65 592.2,46.25 575.95,43.65 559.4,41.85 542.15,40.9 532.45,40.35 522.3,40.05 512.05,40.05 502.7,40.05 493.45,40.3 484.15,40.8 365.8,46.9 263.85,92.75 178.3,178.3 Q40.05,316.55 40.05,512.05 C40.05,642.4 86.15,753.7 178.3,845.85 248.7,916.2 330.2,959.7 422.25,976.25 442.7,979.9 463.15,982.25 484.15,983.35 484.3,983.35 484.4,983.35 484.55,983.35 493.05,983.8 501.15,984.05 509.05,984.05 510.25,984.05 511.15,984.05 512.05,984.05 522.35,984.05 532.55,983.75 542.15,983.25 544.65,983.1 546.9,982.95 549.1,982.8 569.3,981.35 589,978.75 607.8,975.1 615.75,973.55 623.6,971.8 631.2,969.95 712,949.65 783.35,908.35 845.85,845.85 894.45,797.25 930.25,743.35 953.2,684.05 971.65,636.4 981.85,585.25 983.75,530.55 983.95,524.5 984.05,518.3 984.05,512.05 984.05,511.4 984.05,510.7 984.05,510.05 984.05,509.7 984.05,509.4 984.05,509.05 983.95,489.15 982.8,469.7 980.5,450.5 978.1,430.7 974.55,411.2 969.75,392.05z"/>
      </g>
    </g>
  </mask>
  <g id="masked" mask="url(#circle2)">
    <g id="Calque.__2010">
      <g id="shape6">
        <path id="path3" fill="#933A30" fill-opacity="1" d="M449.05,261.8 Q448.15,253.85 440.2,254.75 L101.5,294.6 C96.2,295.25 93.85,298.2 94.45,303.5 L181.9,1046.6 C182.55,1051.9 185.5,1054.25 190.8,1053.6 L529.5,1013.75 C534.8,1013.15 537.15,1010.2 536.5,1004.9 L449.05,261.8z"/>
      </g>
    </g>
    <g id="ico-shadow">
      <g id="shape8">
        <path id="path4" fill="#537CA4" fill-opacity="1" d="M845.75,182.7 Q845.75,175.2 838.25,175.15 L243.55,175.15 C238.5,175.15 236,177.65 236,182.65 L236,1043.75 C236.05,1048.8 238.55,1051.25 243.55,1051.25 L838.25,1051.3 C843.25,1051.25 845.75,1048.75 845.75,1043.75 L845.75,182.7z"/>
      </g>
    </g>
    <g id="Calque.__2011">
      <g id="shape10">
        <path id="path5" fill="#FFFFFF" fill-opacity="1" d="M833.7,170.45 L232.4,170.45 232.45,1042.85 833.7,1042.85 833.7,170.45z"/>
      </g>
    </g>
    <g id="ico">
      <g id="shape12">
        <path id="path6" fill="#6596C8" fill-opacity="1" d="M815.85,159.25 Q815.85,151.75 808.35,151.7 L213.65,151.7 C208.6,151.75 206.15,154.25 206.1,159.2 L206.1,1020.3 C206.1,1025.35 208.6,1027.8 213.65,1027.85 L808.35,1027.85 C813.35,1027.85 815.85,1025.35 815.85,1020.3 L815.85,159.25z"/>
      </g>
    </g>
    <g id="Calque.__2012">
      <g id="shape14">
        <path id="path7" fill="#223040" fill-opacity="1" d="M785.25,519 C766.6,523.05 747.1,525.05 726.65,525.05 661.85,525.05 606.65,504.65 560.8,463.75 527.65,434.2 506.5,400.25 497.45,361.8 L236.55,361.8 236.6,631.15 236.55,775.55 C320.55,751.2 414.8,738.9 519.35,738.95 616.9,738.95 705.55,749.55 785.2,770.95 L785.2,626.45 785.25,519z"/>
        <path id="path8" fill="#666666" fill-opacity="1" d="M726.65,525.05 C747.1,525.05 766.6,523.05 785.25,519 L785.2,361.85 497.45,361.8 C506.5,400.25 527.65,434.2 560.8,463.75 606.65,504.65 661.85,525.05 726.65,525.05z"/>
      </g>
    </g>
    <g id="Calque.__2013">
      <g id="shape18">
        <path id="path9" fill="#FFFFFF" fill-opacity="1" d="M758.2,602.6 Q759.45,601.35 759.45,599.65 C759.45,598.45 759.05,597.45 758.2,596.65 757.4,595.85 756.45,595.4 755.25,595.4 754.15,595.45 753.1,595.8 752.25,596.65 751.45,597.5 751,598.45 751,599.65 751.05,600.8 751.4,601.8 752.2,602.6 753.1,603.4 754.1,603.85 755.2,603.8 756.45,603.85 757.4,603.45 758.2,602.6z M761.6,691.1 C760.5,691.1 759.55,691.45 758.75,692.3 758,693.05 757.6,694 757.6,695.1 757.6,696.2 757.95,697.1 758.75,697.9 759.55,698.7 760.5,699.05 761.55,699.1 762.7,699.05 763.6,698.6 764.4,697.85 765.15,697.1 765.55,696.15 765.55,695.05 765.6,694 765.2,693 764.4,692.25 763.6,691.45 762.7,691.1 761.6,691.1z M744,738.9 C745.35,738.95 746.6,738.45 747.65,737.4 748.65,736.4 749.1,735.2 749.1,733.75 749.2,732.3 748.65,731.05 747.65,730.1 746.6,729.05 745.4,728.6 744,728.55 742.6,728.55 741.3,729.1 740.35,730.1 739.3,731.1 738.85,732.35 738.85,733.8 738.8,735.2 739.3,736.4 740.35,737.45 741.35,738.4 742.55,738.9 744,738.9z M315.55,428.45 C314.55,428.45 313.75,428.85 313.05,429.5 312.35,430.25 312.05,431 312.05,431.95 312.05,433 312.35,433.75 313.05,434.5 313.75,435.15 314.55,435.5 315.55,435.55 316.55,435.55 317.35,435.15 318,434.5 318.75,433.75 319.1,432.95 319.1,432 319.1,430.95 318.75,430.15 318.05,429.5 317.35,428.8 316.5,428.45 315.55,428.45z M258.9,445.45 C258.25,444.7 257.4,444.45 256.45,444.4 255.45,444.4 254.65,444.7 253.95,445.4 253.3,446.15 252.95,446.95 252.9,447.9 252.9,448.9 253.25,449.7 253.95,450.4 254.65,451.1 255.45,451.45 256.45,451.45 257.4,451.45 258.2,451.1 258.9,450.4 259.65,449.7 259.95,448.9 259.95,447.9 259.95,446.9 259.6,446.1 258.9,445.45z M259.35,730.35 C260.05,729.55 260.4,728.7 260.4,727.65 260.4,726.6 260.05,725.75 259.3,725 258.65,724.3 257.75,723.95 256.7,723.9 255.7,723.9 254.75,724.25 254,725 253.25,725.75 252.9,726.65 252.9,727.65 252.9,728.7 253.3,729.55 254.05,730.3 254.8,731.05 255.7,731.4 256.7,731.4 257.75,731.45 258.65,731.05 259.35,730.35z M329.85,593.55 C330.85,593.55 331.75,593.2 332.5,592.35 333.25,591.65 333.6,590.8 333.6,589.8 333.6,588.75 333.25,587.85 332.5,587.1 331.75,586.4 330.9,586.05 329.8,586.05 328.8,586.05 327.95,586.45 327.2,587.1 326.45,587.85 326.1,588.8 326.05,589.8 326.1,590.75 326.5,591.65 327.2,592.35 327.9,593.15 328.8,593.55 329.85,593.55z"/>
        <path id="path10" fill="#666666" fill-opacity="1" d="M756.9,661.55 C759.05,661.55 760.85,660.8 762.35,659.2 763.8,657.7 764.6,655.9 764.6,653.75 764.65,651.65 763.85,649.85 762.3,648.25 760.85,646.8 759,646.05 756.9,646.05 754.75,646.1 752.9,646.8 751.4,648.3 749.9,649.8 749.15,651.65 749.1,653.75 749.15,655.9 749.85,657.75 751.4,659.2 752.9,660.8 754.75,661.5 756.9,661.55z M266.8,384.35 C263.95,384.35 261.6,385.35 259.65,387.3 257.7,389.25 256.7,391.65 256.65,394.4 256.75,397.2 257.7,399.55 259.6,401.6 261.65,403.55 264,404.55 266.8,404.5 269.55,404.55 271.95,403.6 273.9,401.6 275.85,399.55 276.85,397.2 276.8,394.45 276.85,391.65 275.9,389.25 273.85,387.3 271.9,385.35 269.55,384.35 266.8,384.35z M272.9,665.1 C268.3,669.7 266.1,675.2 266.1,681.7 266.05,688.2 268.4,693.7 272.9,698.2 277.5,702.85 283.05,705.1 289.55,705.15 296,705.15 301.5,702.85 306.05,698.25 310.65,693.7 313,688.15 312.95,681.65 313,675.2 310.65,669.75 306.05,665.15 301.55,660.55 296,658.25 289.5,658.2 283.1,658.25 277.55,660.55 272.9,665.1z"/>
        <path id="path13" fill="#66CCFF" fill-opacity="1" d="M695.65,667.65 C694.65,667.65 693.75,668 693,668.7 692.3,669.45 691.95,670.3 691.95,671.35 691.95,672.4 692.3,673.3 693,674 693.75,674.8 694.65,675.15 695.7,675.15 696.65,675.15 697.55,674.8 698.25,674 699,673.3 699.4,672.4 699.45,671.4 699.45,670.4 699.1,669.45 698.3,668.7 697.55,668 696.7,667.65 695.65,667.65z M700.8,693.4 C699.3,695 698.5,696.8 698.5,699.05 698.45,701.2 699.3,703.1 700.8,704.6 702.35,706.25 704.25,707 706.45,707.05 708.65,707.05 710.5,706.25 712.1,704.65 713.65,703.15 714.4,701.25 714.4,699.1 714.45,696.85 713.7,695 712.1,693.45 710.5,691.9 708.65,691.1 706.5,691.1 704.25,691.05 702.4,691.85 700.8,693.4z M295.6,403.1 C296.5,403.1 297.25,402.75 297.9,402.15 298.55,401.5 298.9,400.75 298.9,399.8 298.85,398.95 298.55,398.15 297.9,397.5 297.25,396.9 296.5,396.55 295.6,396.6 294.7,396.6 293.9,396.9 293.3,397.5 292.65,398.15 292.25,398.95 292.3,399.85 292.35,400.7 292.6,401.45 293.3,402.15 293.95,402.75 294.75,403.1 295.6,403.1z M276.8,415.3 C275.4,415.3 274.2,415.75 273.2,416.8 272.2,417.85 271.7,419.05 271.7,420.5 271.7,421.9 272.2,423.1 273.2,424.15 274.2,425.1 275.5,425.6 276.85,425.6 278.3,425.65 279.5,425.15 280.5,424.1 281.5,423.1 282,421.9 282,420.5 282,419.05 281.55,417.8 280.5,416.8 279.5,415.8 278.3,415.3 276.8,415.3z"/>
      </g>
    </g>
    <g id="Calque.__2014">
      <g id="Symbole.__203_1" overflow="visible">
        <g id="Calque.__2022">
          <g id="shape101">
            <path id="path79" fill="#000000" fill-opacity="0.2" d="M552.832,187.972 L542.775,187.972 542.201,259.991 552.507,226.502 552.832,187.972z M630.341,187.972 L619.96,187.972 613.122,322.527 586.321,322.527 585.922,330.513 623.104,330.513 623.503,322.527 616.266,322.527 626.897,255.599 630.341,187.972z M717.382,228.249 C715.735,232.74 714.088,239.878 712.541,249.61 710.944,259.392 710.146,266.779 710.146,271.72 710.146,276.76 710.595,280.304 711.543,282.4 712.641,284.846 714.687,286.692 717.682,287.89 718.68,288.339 719.778,288.689 721.026,288.988 720.427,286.842 720.127,283.748 720.127,279.705 720.127,274.764 720.926,267.377 722.523,257.595 724.07,247.863 725.717,240.726 727.364,236.234 L730.01,229.446 C730.708,227.55 731.806,226.003 733.254,224.805 L737.296,221.561 C738.644,220.662 741.539,220.213 746.03,220.213 L757.759,220.213 C764.696,220.213 772.682,220.862 781.715,222.21 L790.849,223.557 795.59,194.111 C791.747,192.613 788.204,191.366 784.96,190.368 L784.935,190.368 L780.867,215.572 771.734,214.224 C762.7,212.877 754.715,212.228 747.777,212.228 L736.049,212.228 C731.557,212.228 728.662,212.677 727.314,213.575 L723.272,216.819 C721.824,218.017 720.726,219.564 720.028,221.461 L717.382,228.249z M682.696,212.577 L686.589,187.972 675.334,187.972 653.998,322.527 627.521,322.527 626.248,330.513 663.98,330.513 672.339,277.833 L672.364,277.858 C672.265,276.012 672.215,274.165 672.215,272.269 672.215,264.083 672.963,254.95 674.411,244.819 676.407,232.191 679.152,221.411 682.696,212.577z M773.88,296.674 C771.983,296.824 770.037,296.974 767.99,297.123 L767.965,297.098 L764.647,317.536 C758.058,320.082 751.57,321.779 745.232,322.527 738.794,323.326 732.505,323.725 726.266,323.725 L712.342,323.725 C704.755,323.575 698.267,322.128 692.827,319.333 699.465,327.368 709.297,331.461 722.323,331.71 L736.248,331.71 C742.487,331.71 748.775,331.311 755.214,330.513 761.552,329.764 768.04,328.067 774.628,325.522 L779.42,296.075 773.88,296.674z M521.065,322.527 L521.09,330.513 565.309,330.513 577.462,291.933 579.833,244.819 555.327,322.527 521.065,322.527z M300.241,221.561 C301.589,220.662 304.484,220.213 308.926,220.213 L320.654,220.213 C327.592,220.213 335.577,220.862 344.661,222.21 L348.454,222.784 L348.454,222.809 C348.504,222.709 348.504,222.609 348.553,222.509 350.849,215.322 353.195,209.333 355.641,204.492 356.19,203.444 356.739,202.396 357.337,201.447 L357.312,201.447 L358.485,194.111 C354.642,192.613 351.099,191.366 347.855,190.368 L347.83,190.368 L343.762,215.572 334.679,214.224 C325.595,212.877 317.61,212.228 310.672,212.228 L298.944,212.228 C294.502,212.228 291.607,212.677 290.259,213.575 L286.167,216.819 C284.72,218.017 283.622,219.564 282.923,221.461 L280.278,228.249 C278.631,232.74 277.034,239.878 275.486,249.61 273.889,259.392 273.091,266.779 273.091,271.72 273.091,276.76 273.54,280.304 274.438,282.4 275.536,284.846 277.583,286.692 280.627,287.89 281.625,288.339 282.723,288.689 283.971,288.988 283.372,286.842 283.073,283.748 283.073,279.705 283.073,274.764 283.871,267.377 285.468,257.595 287.015,247.863 288.612,240.726 290.259,236.234 L292.905,229.446 C293.603,227.55 294.701,226.003 296.149,224.805 L300.241,221.561z M386.534,226.252 C384.388,231.692 382.492,239.628 380.895,250.059 379.148,260.49 378.299,267.926 378.299,272.368 378.299,276.81 378.699,280.054 379.547,282.001 380.395,284.546 382.092,286.393 384.688,287.541 385.935,288.14 387.433,288.589 389.18,288.938 388.581,286.942 388.281,284.097 388.281,280.354 388.281,275.912 389.13,268.475 390.876,258.044 392.474,247.613 394.37,239.678 396.516,234.238 398.712,228.798 401.357,225.204 404.402,223.457 407.396,221.711 411.988,220.862 418.127,220.862 420.473,220.862 422.519,221.012 424.366,221.361 423.667,218.816 422.719,217.069 421.471,216.121 418.676,213.975 414.234,212.877 408.145,212.877 402.006,212.877 397.415,213.725 394.42,215.472 391.376,217.219 388.73,220.812 386.534,226.252z M459.601,196.656 C457.755,195.109 455.708,193.711 453.413,192.564 456.108,195.907 458.254,199.95 459.801,204.791 462.097,211.529 463.245,219.664 463.245,229.197 463.245,237.532 462.496,246.466 461.049,255.998 459.502,265.531 457.705,273.716 455.609,280.554 453.463,287.391 451.217,293.131 448.871,297.822 446.525,302.514 443.581,306.406 440.087,309.551 436.593,312.795 433.249,315.29 430.055,317.087 426.911,318.934 422.918,320.281 418.077,321.18 410.541,322.577 402.755,323.276 394.62,323.276 L376.403,322.527 C372.21,322.078 368.118,321.08 364.125,319.632 362.578,319.083 361.18,318.485 359.833,317.836 360.981,319.333 362.278,320.681 363.726,321.928 366.621,324.324 370.064,326.22 374.107,327.618 378.1,329.065 382.192,330.063 386.385,330.513 L404.601,331.261 C412.737,331.261 420.523,330.563 428.059,329.165 432.9,328.267 436.893,326.919 440.037,325.073 443.231,323.276 446.575,320.78 450.069,317.536 451.915,315.889 453.612,313.993 455.159,311.946 L455.135,311.921 L473.027,244.644 L473.027,244.669 C473.177,242.123 473.227,239.628 473.227,237.182 473.227,227.65 472.079,219.515 469.783,212.777 467.537,205.939 464.143,200.549 459.601,196.656z M464.418,322.527 L462.297,330.513 500.527,330.513 511.033,290.46 510.908,244.819 490.545,322.527 464.418,322.527z M336.775,296.674 C334.928,296.824 332.982,296.974 330.935,297.123 L330.911,297.098 L327.542,317.536 C321.004,320.082 314.515,321.779 308.177,322.527 301.739,323.326 295.45,323.725 289.211,323.725 L275.287,323.725 C267.651,323.575 261.112,322.128 255.672,319.333 262.41,327.368 272.242,331.461 285.269,331.71 L299.193,331.71 C305.432,331.71 311.72,331.311 318.159,330.513 324.497,329.764 330.985,328.067 337.523,325.522 L342.365,296.075 336.775,296.674z"/>
            <path id="path80" fill="#FFFFFF" fill-opacity="1" d="M542.775,187.972 L542.85,179.986 490.246,179.986 473.027,244.644 455.135,311.921 452.315,322.527 464.418,322.527 490.545,322.527 510.908,244.819 511.033,290.46 511.108,322.527 521.065,322.527 555.327,322.527 579.833,244.819 577.462,291.933 575.94,322.527 586.321,322.527 613.122,322.527 619.96,187.972 620.359,179.986 566.856,179.986 552.507,226.502 542.201,259.991 542.775,187.972z M676.607,179.986 L638.925,179.986 626.897,255.599 616.266,322.527 623.503,322.527 627.521,322.527 653.998,322.527 675.334,187.972 676.607,179.986z M712.541,249.61 C714.088,239.878 715.735,232.74 717.382,228.249 L720.028,221.461 C720.726,219.564 721.824,218.017 723.272,216.819 L727.314,213.575 C728.662,212.677 731.557,212.228 736.049,212.228 L747.777,212.228 C754.715,212.228 762.7,212.877 771.734,214.224 L780.867,215.572 784.935,190.368 785.608,186.125 C777.224,182.881 770.137,180.785 764.297,179.837 758.458,178.789 748.775,178.29 735.3,178.29 716.434,178.29 702.51,183.48 693.476,193.911 689.334,198.702 685.74,204.941 682.696,212.577 679.152,221.411 676.407,232.191 674.411,244.819 672.963,254.95 672.215,264.083 672.215,272.269 672.215,274.165 672.265,276.012 672.364,277.858 673.013,292.083 676.257,302.963 682.196,310.599 685.091,314.292 688.635,317.187 692.827,319.333 698.267,322.128 704.755,323.575 712.342,323.725 L726.266,323.725 C732.505,323.725 738.794,323.326 745.232,322.527 751.57,321.779 758.058,320.082 764.647,317.536 L767.965,297.098 769.438,288.09 763.898,288.689 C754.465,289.437 742.986,289.837 729.411,289.837 726.216,289.837 723.421,289.537 721.026,288.988 719.778,288.689 718.68,288.339 717.682,287.89 714.687,286.692 712.641,284.846 711.543,282.4 710.595,280.304 710.146,276.76 710.146,271.72 710.146,266.779 710.944,259.392 712.541,249.61z M256.421,193.911 C247.387,204.292 241.049,221.261 237.356,244.819 235.908,254.95 235.16,264.083 235.16,272.269 235.16,289.238 238.454,302.014 245.092,310.599 247.986,314.292 251.53,317.187 255.672,319.333 261.112,322.128 267.651,323.575 275.287,323.725 L289.211,323.725 C295.45,323.725 301.739,323.326 308.177,322.527 314.515,321.779 321.004,320.082 327.542,317.536 L330.911,297.098 332.383,288.09 326.793,288.689 C317.36,289.437 305.881,289.837 292.356,289.837 289.112,289.837 286.317,289.537 283.971,288.988 282.723,288.689 281.625,288.339 280.627,287.89 277.583,286.692 275.536,284.846 274.438,282.4 273.54,280.304 273.091,276.76 273.091,271.72 273.091,266.779 273.889,259.392 275.486,249.61 277.034,239.878 278.631,232.74 280.278,228.249 L282.923,221.461 C283.622,219.564 284.72,218.017 286.167,216.819 L290.259,213.575 C291.607,212.677 294.502,212.228 298.944,212.228 L310.672,212.228 C317.61,212.228 325.595,212.877 334.679,214.224 L343.762,215.572 347.83,190.368 348.504,186.125 C340.119,182.881 333.032,180.785 327.242,179.837 321.353,178.789 311.671,178.29 298.195,178.29 279.379,178.29 265.455,183.48 256.421,193.911z M348.454,222.809 C346.108,229.946 344.161,238.43 342.664,248.262 341.117,258.094 340.368,267.178 340.368,275.513 340.368,284.446 341.466,292.132 343.712,298.571 345.958,304.909 349.302,310.05 353.744,313.943 355.541,315.44 357.587,316.738 359.833,317.836 361.18,318.485 362.578,319.083 364.125,319.632 368.118,321.08 372.21,322.078 376.403,322.527 L394.62,323.276 C402.755,323.276 410.541,322.577 418.077,321.18 422.918,320.281 426.911,318.934 430.055,317.087 433.249,315.29 436.593,312.795 440.087,309.551 443.581,306.406 446.525,302.514 448.871,297.822 451.217,293.131 453.463,287.391 455.609,280.554 457.705,273.716 459.502,265.531 461.049,255.998 462.496,246.466 463.245,237.532 463.245,229.197 463.245,219.664 462.097,211.529 459.801,204.791 458.254,199.95 456.108,195.907 453.413,192.564 452.265,191.116 450.967,189.819 449.62,188.671 446.775,186.225 443.281,184.229 439.238,182.781 435.296,181.234 431.253,180.236 427.21,179.737 L399.561,179.238 387.083,180.885 C382.192,181.733 378.199,183.031 375.055,184.778 372.011,186.425 368.617,188.97 364.874,192.314 361.929,194.859 359.434,197.904 357.337,201.447 356.739,202.396 356.19,203.444 355.641,204.492 353.195,209.333 350.849,215.322 348.553,222.509 348.504,222.609 348.504,222.709 348.454,222.809z M424.565,222.16 C425.264,225.204 425.613,229.147 425.613,234.038 425.613,237.532 424.765,243.621 423.118,252.255 420.622,267.128 417.578,277.06 413.984,282.001 412.138,284.546 409.642,286.393 406.548,287.541 403.404,288.789 399.66,289.437 395.268,289.437 393.023,289.437 390.976,289.288 389.18,288.938 388.581,286.942 388.281,284.097 388.281,280.354 388.281,275.912 389.13,268.475 390.876,258.044 392.474,247.613 394.37,239.678 396.516,234.238 398.712,228.798 401.357,225.204 404.402,223.457 407.396,221.711 411.988,220.862 418.127,220.862 420.473,220.862 422.519,221.012 424.366,221.361 424.415,221.611 424.515,221.86 424.565,222.16z"/>
          </g>
        </g>
      </g>
    </g>
    <g id="Calque.__2015">
      <g id="shape44">
        <path id="path34" fill="#E6B6AA" fill-opacity="1" d="M522.25,497 L537.15,555.1 403.1,465.05 C388.7,482.05 381.4,502 381.4,525.05 L381.5,744.55 C381.45,746.55 381.5,748.35 381.6,750.35 L628.95,750.3 C629,748.4 629.1,746.5 629.1,744.55 L629.1,534.8 597.2,510.05 599.1,549.45 522.25,497z"/>
        <path id="path35" fill="#C04C00" fill-opacity="1" d="M537.15,555.1 L522.25,497 599.1,549.45 597.2,510.05 629.1,534.8 629.05,525.05 C629.1,499.1 619.95,477 601.6,458.7 583.3,440.45 561.2,431.25 535.3,431.25 L475.25,431.25 C449.3,431.25 427.2,440.4 408.9,458.7 Q405.75,461.8 403.1,465.05 L537.15,555.1z"/>
      </g>
    </g>
    <g id="Calque.__2016">
      <g id="shape48">
        <path id="path36" fill="#FFFFFF" fill-opacity="1" d="M600.6,588.95 L522.5,588.95 C522.25,590.75 522.15,592.6 522.15,594.45 522.1,605.3 525.95,614.65 533.7,622.35 541.4,630 550.7,633.9 561.55,633.8 572.45,633.85 581.75,630.05 589.4,622.3 597.1,614.55 600.95,605.3 600.95,594.4 600.95,592.6 600.8,590.75 600.6,588.95z M419,594.45 Q418.95,610.75 430.55,622.35 C438.2,630.05 447.55,633.85 458.35,633.85 469.25,633.85 478.55,630 486.2,622.3 493.9,614.6 497.8,605.35 497.75,594.5 497.75,592.6 497.6,590.8 497.45,589 L419.35,588.95 C419.1,590.75 419,592.6 419,594.45z"/>
        <path id="path39" fill="#AA8D83" fill-opacity="1" d="M417.15,671.55 C417.75,681.7 426.95,690.4 444.8,697.65 463.35,705.15 485.65,708.9 511.85,708.9 538,708.9 560.3,705.15 578.85,697.65 596.65,690.35 605.95,681.65 606.6,671.55 L417.15,671.55z"/>
      </g>
    </g>
    <g id="Calque.__2017">
      <g id="shape53">
        <path id="path40" fill="#FFFFFF" fill-opacity="0.2" d="M671.55,768.25 C715.9,723.95 738.1,670.45 738.1,607.75 Q738.05,513.65 671.6,447.1 C627.25,402.75 573.7,380.6 510.95,380.6 448.3,380.65 394.7,402.8 350.4,447.05 306.05,491.45 283.85,545 283.85,607.75 283.9,670.4 306.05,723.9 350.4,768.3 394.75,812.6 448.3,834.8 510.95,834.8 573.7,834.75 627.25,812.6 671.55,768.25z"/>
      </g>
    </g>
    <g id="Calque.__2018">
      <g id="shape55">
        <path id="path41" fill="#B55523" fill-opacity="1" d="M519.35,738.95 C414.8,738.9 320.55,751.2 236.55,775.55 L236.55,999.6 421.7,999.65 C421.4,999.35 421.1,999.05 420.8,998.7 395.8,973.75 383.3,943.6 383.3,908.25 383.35,872.85 395.8,842.65 420.8,817.7 445.8,792.7 476,780.2 511.4,780.15 546.7,780.2 576.85,792.7 601.9,817.7 626.85,842.65 639.4,872.85 639.4,908.25 639.4,943.55 626.9,973.7 601.85,998.75 601.55,999.05 601.3,999.4 600.95,999.65 L785.2,999.7 785.2,770.95 C705.55,749.55 616.9,738.95 519.35,738.95z"/>
        <path id="path42" fill="#773E21" fill-opacity="1" d="M639.4,908.25 C639.4,872.85 626.85,842.65 601.9,817.7 576.85,792.7 546.7,780.2 511.4,780.15 476,780.2 445.8,792.7 420.8,817.7 395.8,842.65 383.35,872.85 383.3,908.25 383.3,943.6 395.8,973.75 420.8,998.7 421.1,999.05 421.4,999.35 421.7,999.65 446.5,1024.1 476.5,1036.3 511.4,1036.3 546.35,1036.25 576.1,1024.1 600.95,999.65 601.3,999.4 601.55,999.05 601.85,998.75 626.9,973.7 639.4,943.55 639.4,908.25z"/>
      </g>
    </g>
    <g id="Calque.__2019">
      <g id="shape59">
        <path id="path43" fill="#FFFF66" fill-opacity="1" d="M591.85,874.6 C589.95,872.75 587.7,871.85 585.05,871.9 L505.15,871.85 524.5,815.8 Q524.55,815.6 524.65,815.4 C525.5,813.05 525.45,810.75 524.5,808.35 524.45,808.2 524.45,808.1 524.35,808 523.4,805.85 521.9,804.2 519.75,803.15 L519.7,803.15 C517.55,801.95 515.15,801.7 512.7,802.3 510.3,802.9 508.4,804.15 507.05,806.05 507,806.1 507,806.15 506.95,806.2 L437.15,904.3 C435.55,906.4 434.95,908.7 435.25,911.3 435.55,913.9 436.6,916.05 438.6,917.75 440.5,919.4 442.7,920.25 445.25,920.2 L503.25,920.25 464.95,988.25 C464.9,988.35 464.8,988.45 464.75,988.5 463.5,990.7 463.15,993.1 463.65,995.55 464.2,997.95 465.4,999.9 467.3,1001.35 467.35,1001.45 467.4,1001.5 467.55,1001.6 469.5,1003.1 471.7,1003.75 474.2,1003.6 474.3,1003.6 474.4,1003.6 474.55,1003.55 476.9,1003.3 478.95,1002.3 480.65,1000.65 480.75,1000.55 480.9,1000.4 481,1000.25 L592.1,889.1 C594.05,887.1 595.05,884.75 595.1,881.95 595.05,879.2 594.05,876.8 592.15,874.85 592,874.75 591.9,874.7 591.85,874.6z"/>
      </g>
    </g>
    <g id="Calque.__2020">
      <g id="shape61">
        <path id="path44" fill="#FFFFFF" fill-opacity="0.8" d="M436.1,468.65 C441,453.6 439.75,442.45 432.5,435.2 425.25,427.95 414.05,426.8 398.95,431.55 383.85,436.35 369.25,445.85 355.15,460.05 Q334,481.15 326.75,503.8 C321.95,518.85 323.1,530.05 330.4,537.3 337.6,544.6 348.75,545.75 363.8,540.9 378.95,536.05 393.55,526.55 407.65,512.4 421.75,498.35 431.3,483.75 436.1,468.65z"/>
      </g>
    </g>
  </g>
</svg>