<?xml version="1.0" encoding="utf-8"?>
<!-- Generator: flash2svg, http://dissentgraphics.com/tools/flash2svg -->
<svg xmlns:xlink="http://www.w3.org/1999/xlink" id="Simple-Comic" image-rendering="optimizeSpeed" baseProfile="basic" version="1.1" style="background-color:#ffffff" x="0px" y="0px" width="1024px" height="1024px" viewBox="0 0 1024 1024" enable-background="new 0 0 1024 1024" xmlns="http://www.w3.org/2000/svg">
  <defs transform="matrix(1 0 0 1 0 0) "/>
  <g id="shadow">
    <g id="shape">
      <path id="path" fill="#000000" fill-opacity="0.09803921568627451" d="M969.65,351.3 Q961.05,330.45 950.25,310.45 C946.2,302.9 941.9,295.4 937.35,288.05 917.8,256.35 893.95,226.4 865.8,198.25 773.65,106.1 662.35,60 532,60 401.65,60 290.4,106.1 198.25,198.25 106.1,290.4 60,401.65 60,532 60,662.35 106.1,773.65 198.25,865.8 290.4,957.95 401.65,1004 532,1004 662.35,1004 773.65,957.95 865.8,865.8 916.55,815 953.35,758.4 976.15,696.05 994.7,645.2 1004,590.55 1004,532 1004,487.1 998.55,444.45 987.6,404.05 986.35,399.5 985.05,394.95 983.7,390.45 979.6,377.15 974.9,364.1 969.65,351.3z"/>
    </g>
  </g>
  <g id="circle">
    <g id="shape2">
      <path id="path1" fill="#436485" fill-opacity="1" d="M969.75,392.05 C968.65,387.7 967.4,383.05 966.1,378.45 963.6,369.7 960.75,360.85 957.65,352.1 951.2,333.85 943.5,316.05 934.5,298.45 930.7,291.05 926.55,283.5 922.2,276.05 901.9,241.55 876.4,208.85 845.85,178.3 773.25,105.7 688.7,61.65 592.2,46.25 575.95,43.65 559.4,41.85 542.15,40.9 532.45,40.35 522.3,40.05 512.05,40.05 502.7,40.05 493.45,40.3 484.15,40.8 365.8,46.9 263.85,92.75 178.3,178.3 Q40.05,316.55 40.05,512.05 C40.05,642.4 86.15,753.7 178.3,845.85 248.7,916.2 330.2,959.7 422.25,976.25 442.7,979.9 463.15,982.25 484.15,983.35 484.3,983.35 484.4,983.35 484.55,983.35 493.05,983.8 501.15,984.05 509.05,984.05 510.25,984.05 511.15,984.05 512.05,984.05 522.35,984.05 532.55,983.75 542.15,983.25 544.65,983.1 546.9,982.95 549.1,982.8 569.3,981.35 589,978.75 607.8,975.1 615.75,973.55 623.6,971.8 631.2,969.95 712,949.65 783.35,908.35 845.85,845.85 894.45,797.25 930.25,743.35 953.2,684.05 971.65,636.4 981.85,585.25 983.75,530.55 983.95,524.5 984.05,518.3 984.05,512.05 984.05,511.4 984.05,510.7 984.05,510.05 984.05,509.7 984.05,509.4 984.05,509.05 983.95,489.15 982.8,469.7 980.5,450.5 978.1,430.7 974.55,411.2 969.75,392.05z"/>
    </g>
  </g>
  <g id="circle1">
    <g id="shape4">
      <path id="path2" fill="#000000" fill-opacity="0.2" d="M969.75,392.05 C968.65,387.7 967.4,383.05 966.1,378.45 963.6,369.7 960.75,360.85 957.65,352.1 954.85,344.1 951.8,336.2 948.45,328.3 L948.425,328.275 L755.8,135.65 396.425,970.8 L396.45,970.8 C405.25,972.95 413.7,974.7 422.25,976.25 442.7,979.9 463.15,982.25 484.15,983.35 484.3,983.35 484.4,983.35 484.55,983.35 493.05,983.8 501.15,984.05 509.05,984.05 Q510.544,984.05 512.05,984.05 C522.35,984.05 532.55,983.75 542.15,983.25 544.65,983.1 546.9,982.95 549.1,982.8 569.3,981.35 589,978.75 607.8,975.1 615.75,973.55 623.6,971.8 631.2,969.95 712,949.65 783.35,908.35 845.85,845.85 894.45,797.25 930.25,743.35 953.2,684.05 971.65,636.4 981.85,585.25 983.75,530.55 983.95,524.5 984.05,518.3 984.05,512.05 984.05,511.4 984.05,510.7 984.05,510.05 984.05,509.7 984.05,509.4 984.05,509.05 983.95,489.15 982.8,469.7 980.5,450.5 978.1,430.7 974.55,411.2 969.75,392.05z"/>
    </g>
  </g>
  <mask id="circle2">
    <g id="g">
      <g id="shape61">
        <path id="path44" fill="#FFFFFF" fill-opacity="1" d="M969.75,392.05 C968.65,387.7 967.4,383.05 966.1,378.45 963.6,369.7 960.75,360.85 957.65,352.1 951.2,333.85 943.5,316.05 934.5,298.45 930.7,291.05 926.55,283.5 922.2,276.05 901.9,241.55 876.4,208.85 845.85,178.3 773.25,105.7 688.7,61.65 592.2,46.25 575.95,43.65 559.4,41.85 542.15,40.9 532.45,40.35 522.3,40.05 512.05,40.05 502.7,40.05 493.45,40.3 484.15,40.8 365.8,46.9 263.85,92.75 178.3,178.3 Q40.05,316.55 40.05,512.05 C40.05,642.4 86.15,753.7 178.3,845.85 248.7,916.2 330.2,959.7 422.25,976.25 442.7,979.9 463.15,982.25 484.15,983.35 484.3,983.35 484.4,983.35 484.55,983.35 493.05,983.8 501.15,984.05 509.05,984.05 510.25,984.05 511.15,984.05 512.05,984.05 522.35,984.05 532.55,983.75 542.15,983.25 544.65,983.1 546.9,982.95 549.1,982.8 569.3,981.35 589,978.75 607.8,975.1 615.75,973.55 623.6,971.8 631.2,969.95 712,949.65 783.35,908.35 845.85,845.85 894.45,797.25 930.25,743.35 953.2,684.05 971.65,636.4 981.85,585.25 983.75,530.55 983.95,524.5 984.05,518.3 984.05,512.05 984.05,511.4 984.05,510.7 984.05,510.05 984.05,509.7 984.05,509.4 984.05,509.05 983.95,489.15 982.8,469.7 980.5,450.5 978.1,430.7 974.55,411.2 969.75,392.05z"/>
      </g>
    </g>
  </mask>
  <g id="masked" mask="url(#circle2)">
    <g id="ico-shadow">
      <g id="shape6">
        <path id="path3" fill="#537CA4" fill-opacity="1" d="M755.8,135.65 Q753.85,128.4 746.6,130.35 L172.15,284.25 C167.3,285.55 165.55,288.6 166.85,293.45 L389.7,1125.2 C391,1130.05 394.05,1131.8 398.9,1130.5 L973.35,976.6 C978.2,975.3 979.95,972.25 978.65,967.4 L755.8,135.65z"/>
      </g>
    </g>
    <g id="Calque.__201">
      <g id="shape8">
        <path id="path4" fill="#FFFFFF" fill-opacity="1" d="M741,127 L160.2,282.6 386,1125.25 966.8,969.65 741,127z"/>
      </g>
    </g>
    <g id="ico">
      <g id="shape10">
        <path id="path5" fill="#6596C8" fill-opacity="1" d="M720.85,120.75 Q718.9,113.5 711.65,115.45 L137.2,269.35 C132.35,270.65 130.6,273.7 131.9,278.55 L354.75,1110.3 C356.05,1115.15 359.1,1116.9 363.95,1115.6 L938.4,961.7 C943.25,960.4 945,957.35 943.7,952.5 L720.85,120.75z"/>
      </g>
    </g>
    <g id="Calque.__202">
      <g id="shape12">
        <path id="path6" fill="#223040" fill-opacity="1" d="M784.35,476.15 C767.45,484.9 749.1,491.9 729.35,497.2 666.75,513.95 608.15,508.5 553.3,480.9 513.65,460.95 484.4,433.6 465.7,398.85 L213.75,466.35 283.45,726.5 320.8,866 C395.65,820.7 483.45,784.5 584.45,757.45 678.7,732.2 767.1,719.5 849.55,719.55 L812.15,580 784.35,476.15z"/>
        <path id="path7" fill="#666666" fill-opacity="1" d="M729.35,497.2 C749.1,491.9 767.45,484.9 784.35,476.15 L743.7,324.4 465.7,398.85 C484.4,433.6 513.65,460.95 553.3,480.9 608.15,508.5 666.75,513.95 729.35,497.2z"/>
      </g>
    </g>
    <g id="Calque.__203">
      <g id="shape16">
        <path id="path8" fill="#FFFFFF" fill-opacity="1" d="M779.9,563.9 Q780.8,562.4 780.35,560.75 C780.05,559.6 779.4,558.75 778.35,558.15 777.4,557.6 776.35,557.45 775.2,557.75 774.1,558.05 773.25,558.7 772.6,559.7 772.05,560.75 771.9,561.8 772.2,562.95 772.5,564.05 773.15,564.9 774.15,565.45 775.2,566.05 776.25,566.2 777.35,565.9 778.5,565.6 779.35,564.95 779.9,563.9z M798.8,689.3 C797.4,689.65 796.35,690.45 795.65,691.7 794.95,692.95 794.8,694.25 795.15,695.65 795.5,697.05 796.3,698.1 797.55,698.8 798.75,699.5 800.05,699.65 801.45,699.3 802.8,698.95 803.85,698.15 804.6,696.9 805.3,695.65 805.45,694.35 805.1,692.95 804.75,691.55 803.95,690.5 802.7,689.8 801.45,689.1 800.15,688.95 798.8,689.3z M809.1,648.9 C808.15,648.35 807.15,648.25 806.1,648.55 805.05,648.8 804.2,649.45 803.65,650.4 803.1,651.35 803,652.4 803.25,653.45 803.55,654.5 804.15,655.3 805.1,655.85 806.05,656.4 807.1,656.5 808.15,656.25 809.2,655.95 810,655.3 810.55,654.35 811.1,653.4 811.25,652.4 810.95,651.35 810.7,650.3 810.05,649.45 809.1,648.9z M305.15,511.95 C304.65,512.8 304.55,513.65 304.8,514.6 305.05,515.55 305.55,516.25 306.4,516.75 307.25,517.2 308.15,517.35 309.1,517.1 310.05,516.85 310.75,516.3 311.2,515.45 311.7,514.6 311.85,513.7 311.6,512.75 311.35,511.8 310.8,511.1 309.95,510.65 309.1,510.15 308.2,510.05 307.25,510.3 306.3,510.55 305.6,511.1 305.15,511.95z M258.6,543.45 C258.35,542.5 257.8,541.8 256.95,541.35 256.1,540.85 255.25,540.75 254.3,541 253.35,541.25 252.65,541.75 252.15,542.6 251.7,543.45 251.55,544.35 251.8,545.3 252.05,546.25 252.6,546.95 253.45,547.4 254.3,547.9 255.15,548.05 256.1,547.8 257.05,547.55 257.75,547 258.25,546.15 258.75,545.3 258.85,544.4 258.6,543.45z M360.95,665.6 C361.85,666.15 362.8,666.3 363.8,666.05 364.8,665.8 365.55,665.2 366.05,664.25 366.6,663.35 366.7,662.4 366.45,661.45 366.2,660.45 365.6,659.7 364.7,659.15 363.8,658.65 362.85,658.55 361.85,658.8 360.85,659.05 360.1,659.65 359.6,660.5 359.05,661.45 358.95,662.4 359.2,663.4 359.45,664.35 360.05,665.1 360.95,665.6z M331.1,816.4 C331.6,815.5 331.7,814.55 331.45,813.55 331.2,812.55 330.6,811.8 329.7,811.3 328.85,810.75 327.9,810.65 326.9,810.9 325.9,811.15 325.1,811.75 324.55,812.65 324.05,813.55 323.95,814.5 324.2,815.5 324.45,816.5 325.05,817.25 325.95,817.75 326.9,818.3 327.85,818.4 328.85,818.15 329.85,817.9 330.6,817.3 331.1,816.4z"/>
        <path id="path9" fill="#666666" fill-opacity="1" d="M798.55,617.55 C799.6,615.7 799.9,613.75 799.35,611.7 798.8,609.65 797.55,608.1 795.7,607 793.9,605.95 791.95,605.7 789.9,606.25 787.85,606.8 786.25,608 785.15,609.85 784.1,611.7 783.85,613.65 784.4,615.7 784.95,617.75 786.15,619.35 788,620.4 789.85,621.5 791.85,621.75 793.9,621.2 795.95,620.65 797.5,619.45 798.55,617.55z M256.35,481.3 C253.95,479.95 251.4,479.6 248.75,480.3 246.05,481.05 244,482.6 242.6,485 241.25,487.4 240.9,489.95 241.6,492.65 242.35,495.3 243.9,497.35 246.3,498.8 248.75,500.2 251.3,500.55 254,499.8 256.65,499.1 258.7,497.55 260.05,495.1 261.45,492.65 261.8,490.1 261.05,487.45 260.35,484.75 258.8,482.7 256.35,481.3z M359.35,741.35 C353.8,738.1 347.85,737.3 341.6,738.95 335.35,740.65 330.6,744.3 327.3,749.9 324.1,755.55 323.35,761.45 325,767.7 326.7,773.95 330.35,778.7 335.9,781.9 341.55,785.15 347.5,785.95 353.75,784.25 360,782.6 364.75,778.95 367.95,773.35 371.2,767.75 372,761.8 370.3,755.55 368.65,749.3 365,744.6 359.35,741.35z"/>
        <path id="path10" fill="#66CCFF" fill-opacity="1" d="M739.15,643.25 C738.25,642.8 737.3,642.7 736.35,642.95 735.35,643.2 734.6,643.8 734.05,644.65 733.55,645.55 733.45,646.5 733.7,647.5 733.95,648.5 734.55,649.25 735.4,649.8 736.35,650.35 737.3,650.45 738.3,650.2 739.25,649.95 740,649.35 740.5,648.4 741.05,647.55 741.2,646.6 740.95,645.6 740.7,644.6 740.1,643.8 739.15,643.25z M758.9,663.6 C756.95,662.5 754.95,662.25 752.85,662.8 750.7,663.35 749.1,664.6 748,666.5 746.9,668.4 746.65,670.4 747.2,672.55 747.75,674.65 749,676.25 750.9,677.35 752.8,678.5 754.8,678.75 756.95,678.2 759.05,677.65 760.65,676.4 761.8,674.45 762.9,672.55 763.15,670.55 762.6,668.45 762.05,666.3 760.8,664.7 758.9,663.6z M282.2,484.95 C281.45,484.5 280.6,484.4 279.75,484.65 278.9,484.9 278.2,485.4 277.75,486.15 277.3,486.95 277.15,487.8 277.4,488.65 277.65,489.5 278.15,490.15 278.95,490.6 279.75,491.05 280.6,491.2 281.45,490.95 282.3,490.7 282.95,490.2 283.4,489.4 283.85,488.65 284,487.8 283.75,486.95 283.5,486.1 283,485.4 282.2,484.95z M269.15,517.55 C270.55,517.2 271.6,516.4 272.3,515.15 273,513.9 273.15,512.6 272.8,511.25 272.45,509.85 271.65,508.8 270.4,508.1 269.15,507.4 267.85,507.25 266.45,507.6 265.1,507.95 264.05,508.75 263.35,510 262.65,511.25 262.5,512.55 262.85,513.95 263.2,515.3 264,516.35 265.25,517.05 266.5,517.75 267.8,517.9 269.15,517.55z"/>
      </g>
    </g>
    <g id="Calque.__204">
      <g id="Symbole.__203_1" overflow="visible">
        <g id="Calque.__212">
          <g id="shape99">
            <path id="path78" fill="#000000" fill-opacity="0.2" d="M474.208,216.555 L464.494,219.158 482.578,288.872 483.866,253.856 474.208,216.555z M549.076,196.496 L539.048,199.183 567.267,330.923 541.379,337.859 543.06,345.676 578.975,336.053 577.294,328.236 570.304,330.109 563.251,262.71 549.076,196.496z M643.575,212.874 C643.147,217.639 643.403,224.959 644.427,234.76 645.416,244.622 646.557,251.964 647.835,256.737 649.14,261.606 650.491,264.912 651.949,266.692 653.643,268.77 656.097,270.024 659.3,270.406 660.38,270.581 661.531,270.635 662.814,270.601 661.68,268.683 660.59,265.771 659.544,261.867 658.265,257.094 657.125,249.752 656.136,239.89 655.111,230.089 654.855,222.769 655.284,218.004 L656.082,210.763 C656.266,208.75 656.926,206.972 658.014,205.44 L661.08,201.26 C662.149,200.044 664.829,198.861 669.167,197.698 L680.496,194.663 C687.197,192.867 695.079,191.427 704.153,190.391 L713.324,189.329 710.283,159.659 C706.184,159.207 702.438,158.919 699.046,158.795 L699.022,158.801 L701.616,184.199 692.445,185.261 C683.37,186.297 675.489,187.737 668.788,189.533 L657.459,192.568 C653.12,193.731 650.44,194.914 649.371,196.13 L646.306,200.31 C645.218,201.842 644.558,203.62 644.374,205.633 L643.575,212.874z M606.014,206.713 L603.407,181.939 592.536,184.852 606.75,320.344 581.175,327.196 582.012,335.239 618.458,325.474 612.9,272.426 L612.93,272.444 C612.356,270.686 611.83,268.915 611.339,267.083 609.221,259.177 607.58,250.161 606.356,240 605.016,227.287 604.878,216.163 606.014,206.713z M715.856,264.346 C714.063,264.982 712.221,265.63 710.284,266.304 L710.253,266.287 L712.337,286.887 C706.632,291.051 700.804,294.369 694.875,296.733 688.863,299.17 682.892,301.183 676.866,302.798 L663.416,306.402 C656.049,308.22 649.407,308.501 643.429,307.21 651.921,313.253 662.477,314.662 675.124,311.532 L688.574,307.928 C694.6,306.313 700.571,304.3 706.583,301.863 712.512,299.499 718.34,296.181 724.045,292.017 L721.052,262.334 715.856,264.346z M478.346,354.747 L480.437,362.454 523.15,351.01 524.904,310.6 515.001,264.477 511.441,345.88 478.346,354.747z M238.917,314.371 C239.986,313.154 242.666,311.971 246.956,310.822 L258.285,307.786 C264.986,305.991 272.868,304.551 281.99,303.502 L285.803,303.074 L285.809,303.098 C285.832,302.989 285.806,302.893 285.828,302.783 286.186,295.247 286.902,288.855 288.011,283.546 288.27,282.391 288.529,281.237 288.862,280.166 L288.838,280.172 L288.072,272.782 C283.973,272.331 280.227,272.042 276.835,271.918 L276.811,271.924 L279.405,297.322 270.282,298.372 C261.159,299.421 253.278,300.861 246.577,302.656 L235.248,305.691 C230.957,306.841 228.278,308.024 227.208,309.241 L224.095,313.433 C223.007,314.965 222.347,316.743 222.163,318.756 L221.364,325.997 C220.936,330.762 221.24,338.069 222.264,347.87 223.253,357.733 224.394,365.074 225.672,369.847 226.977,374.716 228.328,378.023 229.738,379.815 231.432,381.893 233.886,383.147 237.137,383.516 238.217,383.692 239.368,383.745 240.651,383.711 239.517,381.793 238.427,378.882 237.381,374.977 236.102,370.204 234.962,362.863 233.973,353.001 232.949,343.199 232.644,335.892 233.073,331.127 L233.871,323.886 C234.055,321.874 234.715,320.095 235.803,318.563 L238.917,314.371z M323.484,296.569 C322.819,302.38 323.04,310.536 324.197,321.025 325.21,331.552 326.315,338.955 327.464,343.245 328.614,347.536 329.839,350.566 331.162,352.227 332.641,354.466 334.758,355.81 337.561,356.248 338.922,356.503 340.484,356.55 342.262,356.435 341.167,354.662 340.141,351.991 339.172,348.376 338.023,344.085 336.918,336.682 335.906,326.155 334.749,315.666 334.527,307.51 335.192,301.7 335.905,295.876 337.53,291.721 340.019,289.246 342.459,286.783 346.675,284.776 352.605,283.187 354.87,282.58 356.886,282.195 358.76,282.054 357.426,279.776 356.058,278.335 354.608,277.742 351.352,276.392 346.778,276.481 340.896,278.057 334.967,279.645 330.751,281.653 328.311,284.116 325.822,286.591 324.197,290.746 323.484,296.569z M386.402,249.072 C384.217,248.055 381.879,247.235 379.364,246.72 382.833,249.253 385.952,252.602 388.7,256.878 392.661,262.792 395.875,270.353 398.342,279.561 400.499,287.612 402.088,296.435 403.157,306.017 404.13,315.626 404.513,323.997 404.258,331.144 403.954,338.304 403.27,344.429 402.219,349.568 401.167,354.707 399.33,359.229 396.769,363.17 394.234,367.208 391.65,370.484 389.03,373.046 386.47,375.643 382.963,377.978 378.519,380.099 371.601,383.399 364.261,386.089 356.403,388.195 L338.613,392.186 C334.448,392.837 330.236,392.932 326.005,392.567 324.368,392.437 322.863,392.221 321.394,391.943 322.89,393.092 324.492,394.058 326.213,394.888 329.629,396.453 333.447,397.394 337.713,397.697 341.944,398.062 346.156,397.967 350.322,397.316 L368.112,393.325 C375.97,391.219 383.309,388.529 390.227,385.229 394.671,383.108 398.179,380.773 400.738,378.176 403.358,375.614 405.943,372.338 408.478,368.3 409.835,366.231 410.983,363.96 411.948,361.583 L411.918,361.566 L411.789,291.95 L411.795,291.974 C411.281,289.477 410.684,287.053 410.051,284.691 407.584,275.483 404.369,267.922 400.408,262.008 396.469,255.985 391.796,251.657 386.402,249.072z M423.629,369.408 L423.647,377.67 460.575,367.776 460.357,326.37 448.424,282.315 448.866,362.646 423.629,369.408z M293.645,377.47 C291.9,378.092 290.059,378.741 288.121,379.415 L288.09,379.397 L290.125,400.01 C284.469,404.161 278.641,407.479 272.712,409.843 266.7,412.28 260.729,414.294 254.703,415.908 L241.253,419.512 C233.838,421.344 227.148,421.638 221.17,420.346 229.758,426.364 240.314,427.772 252.961,424.642 L266.411,421.038 C272.437,419.424 278.408,417.411 284.421,414.973 290.349,412.609 296.177,409.291 301.834,405.14 L298.889,375.445 293.645,377.47z"/>
            <path id="path79" fill="#FFFFFF" fill-opacity="1" d="M464.494,219.158 L462.499,211.425 411.687,225.039 411.789,291.95 411.918,361.566 411.939,372.54 423.629,369.408 448.866,362.646 448.424,282.315 460.357,326.37 468.728,357.324 478.346,354.747 511.441,345.88 515.001,264.477 524.904,310.6 531.351,340.546 541.379,337.859 567.267,330.923 539.048,199.183 537.367,191.366 485.688,205.213 483.866,253.856 482.578,288.872 464.494,219.158z M591.698,176.809 L555.301,186.561 563.251,262.71 570.304,330.109 577.294,328.236 581.175,327.196 606.75,320.344 592.536,184.852 591.698,176.809z M644.427,234.76 C643.403,224.959 643.147,217.639 643.575,212.874 L644.374,205.633 C644.558,203.62 645.218,201.842 646.306,200.31 L649.371,196.13 C650.44,194.914 653.12,193.731 657.459,192.568 L668.788,189.533 C675.489,187.737 683.37,186.297 692.445,185.261 L701.616,184.199 699.022,158.801 698.575,154.529 C689.636,153.565 682.248,153.375 676.362,153.97 670.451,154.469 660.969,156.493 647.953,159.98 629.73,164.863 617.623,173.48 611.597,185.893 608.835,191.594 606.979,198.55 606.014,206.713 604.878,216.163 605.016,227.287 606.356,240 607.58,250.161 609.221,259.177 611.339,267.083 611.83,268.915 612.356,270.686 612.93,272.444 617.238,286.016 623.187,295.685 630.9,301.524 634.652,304.343 638.824,306.222 643.429,307.21 649.407,308.501 656.049,308.22 663.416,306.402 L676.866,302.798 C682.892,301.183 688.863,299.17 694.875,296.733 700.804,294.369 706.632,291.051 712.337,286.887 L710.253,266.287 709.344,257.204 704.148,259.216 C695.23,262.381 684.245,265.737 671.133,269.25 668.047,270.077 665.27,270.511 662.814,270.601 661.531,270.635 660.38,270.581 659.3,270.406 656.097,270.024 653.643,268.77 651.949,266.692 650.491,264.912 649.14,261.606 647.835,256.737 646.557,251.964 645.416,244.622 644.427,234.76z M189.434,299.004 C183.395,311.369 181.664,329.4 184.193,353.111 185.417,363.272 187.058,372.288 189.176,380.194 193.568,396.585 200.056,408.074 208.689,414.648 212.441,417.466 216.613,419.345 221.17,420.346 227.148,421.638 233.838,421.344 241.253,419.512 L254.703,415.908 C260.729,414.294 266.7,412.28 272.712,409.843 278.641,407.479 284.469,404.161 290.125,400.01 L288.09,379.397 287.181,370.314 281.937,372.34 C273.019,375.504 262.034,378.86 248.97,382.361 245.836,383.2 243.059,383.634 240.651,383.711 239.368,383.745 238.217,383.692 237.137,383.516 233.886,383.147 231.432,381.893 229.738,379.815 228.328,378.023 226.977,374.716 225.672,369.847 224.394,365.074 223.253,357.733 222.264,347.87 221.24,338.069 220.936,330.762 221.364,325.997 L222.163,318.756 C222.347,316.743 223.007,314.965 224.095,313.433 L227.208,309.241 C228.278,308.024 230.957,306.841 235.248,305.691 L246.577,302.656 C253.278,300.861 261.159,299.421 270.282,298.372 L279.405,297.322 276.811,271.924 276.364,267.652 C267.425,266.689 260.037,266.498 254.199,267.08 248.24,267.592 238.758,269.616 225.742,273.103 207.567,277.973 195.46,286.59 189.434,299.004z M285.809,303.098 C285.39,310.599 285.706,319.299 286.804,329.183 287.855,339.081 289.482,348.048 291.639,356.099 293.951,364.729 297.001,371.869 300.837,377.506 304.647,383.047 309.207,387.148 314.505,389.758 316.628,390.739 318.94,391.463 321.394,391.943 322.863,392.221 324.368,392.437 326.005,392.567 330.236,392.932 334.448,392.837 338.613,392.186 L356.403,388.195 C364.261,386.089 371.601,383.399 378.519,380.099 382.963,377.978 386.47,375.643 389.03,373.046 391.65,370.484 394.234,367.208 396.769,363.17 399.33,359.229 401.167,354.707 402.219,349.568 403.27,344.429 403.954,338.304 404.258,331.144 404.513,323.997 404.13,315.626 403.157,306.017 402.088,296.435 400.499,287.612 398.342,279.561 395.875,270.353 392.661,262.792 388.7,256.878 385.952,252.602 382.833,249.253 379.364,246.72 377.881,245.62 376.292,244.702 374.693,243.942 371.312,242.316 367.421,241.292 363.142,240.94 358.933,240.466 354.769,240.548 350.735,241.112 L323.899,247.786 312.273,252.606 C307.768,254.691 304.247,256.978 301.662,259.479 299.147,261.858 296.528,265.195 293.778,269.393 291.592,272.614 289.97,276.201 288.862,280.166 288.529,281.237 288.27,282.391 288.011,283.546 286.902,288.855 286.186,295.247 285.828,302.783 285.806,302.893 285.832,302.989 285.809,303.098z M359.159,282.774 C360.622,285.534 361.98,289.252 363.246,293.976 364.15,297.351 364.906,303.452 365.55,312.218 366.989,327.23 366.618,337.612 364.426,343.314 363.301,346.251 361.369,348.681 358.677,350.59 355.963,352.609 352.515,354.205 348.272,355.341 346.103,355.922 344.088,356.307 342.262,356.435 341.167,354.662 340.141,351.991 339.172,348.376 338.023,344.085 336.918,336.682 335.906,326.155 334.749,315.666 334.527,307.51 335.192,301.7 335.905,295.876 337.53,291.721 340.019,289.246 342.459,286.783 346.675,284.776 352.605,283.187 354.87,282.58 356.886,282.195 358.76,282.054 358.873,282.282 359.034,282.498 359.159,282.774z"/>
          </g>
        </g>
      </g>
    </g>
    <g id="Calque.__205">
      <g id="shape42">
        <path id="path33" fill="#E6B6AA" fill-opacity="1" d="M693.25,740.05 C692.85,738.2 692.45,736.35 691.95,734.45 L637.65,531.85 600.45,516.2 612.45,553.75 524.7,522.95 554.1,575.25 401.3,522.95 C391.8,543.1 389.95,564.3 395.9,586.55 L452.75,798.55 C453.25,800.45 453.75,802.25 454.4,804.1 L693.25,740.05z"/>
        <path id="path34" fill="#C04C00" fill-opacity="1" d="M554.1,575.25 L524.7,522.95 612.45,553.75 600.45,516.2 637.65,531.85 635.1,522.45 C628.4,497.4 613.85,478.4 591.4,465.45 569,452.55 545.3,449.4 520.25,456.1 L462.25,471.65 C437.2,478.35 418.2,492.95 405.25,515.35 Q403.05,519.15 401.3,522.95 L554.1,575.25z"/>
      </g>
    </g>
    <g id="Calque.__206">
      <g id="shape46">
        <path id="path35" fill="#FFFFFF" fill-opacity="1" d="M450.15,643.85 Q454.35,659.6 468.5,667.8 C477.95,673.25 487.9,674.55 498.4,671.7 508.9,668.9 516.85,662.8 522.3,653.35 527.75,643.95 529.05,634 526.25,623.5 525.75,621.7 525.15,619.95 524.5,618.25 L449.05,638.45 C449.3,640.25 449.65,642.05 450.15,643.85z M621.95,626.65 C627.4,617.2 628.7,607.25 625.9,596.75 625.4,594.95 624.8,593.2 624.15,591.55 L548.7,611.75 C548.95,613.55 549.3,615.35 549.8,617.15 552.6,627.65 558.7,635.65 568.15,641.1 577.6,646.55 587.55,647.85 598.05,645 608.6,642.2 616.55,636.1 621.95,626.65z"/>
        <path id="path38" fill="#AA8D83" fill-opacity="1" d="M569.45,730.4 C594.7,723.6 615.3,714.2 631.25,702.15 646.6,690.5 653.3,679.7 651.3,669.75 L468.3,718.8 C471.5,728.45 482.65,734.45 501.8,736.85 521.6,739.3 544.15,737.15 569.45,730.4z"/>
      </g>
    </g>
    <g id="Calque.__207">
      <g id="shape51">
        <path id="path39" fill="#FFFFFF" fill-opacity="0.2" d="M761.8,574.1 Q737.45,483.2 656,436.15 C601.7,404.8 544.25,397.25 483.65,413.5 423.1,429.75 377.1,465 345.75,519.25 314.4,573.6 306.8,631.05 323.05,691.65 339.3,752.2 374.55,798.15 428.85,829.5 483.2,860.85 540.65,868.45 601.2,852.2 661.8,835.95 707.75,800.7 739.1,746.4 770.45,692.1 778.05,634.65 761.8,574.1z"/>
      </g>
    </g>
    <g id="Calque.__208">
      <g id="shape53">
        <path id="path40" fill="#B55523" fill-opacity="1" d="M496.9,956.2 C487.75,922 491.95,889.6 509.65,859 527.35,828.4 553.3,808.5 587.45,799.35 621.6,790.2 653.95,794.45 684.55,812.15 715.15,829.8 735.1,855.7 744.25,889.9 753.4,924.05 749.1,956.4 731.4,987.05 731.2,987.45 731.05,987.8 730.75,988.15 L908.75,940.5 849.55,719.55 C767.1,719.5 678.7,732.2 584.45,757.45 483.45,784.5 395.65,820.7 320.8,866 L378.8,1082.45 557.65,1034.55 C557.3,1034.35 556.9,1034.15 556.5,1033.9 525.9,1016.2 506.05,990.35 496.9,956.2z"/>
        <path id="path41" fill="#773E21" fill-opacity="1" d="M509.65,859 C491.95,889.6 487.75,922 496.9,956.2 506.05,990.35 525.9,1016.2 556.5,1033.9 556.9,1034.15 557.3,1034.35 557.65,1034.55 587.95,1051.75 620,1055.75 653.75,1046.7 687.5,1037.65 713.1,1018.2 730.75,988.15 731.05,987.8 731.2,987.45 731.4,987.05 749.1,956.4 753.4,924.05 744.25,889.9 735.1,855.7 715.15,829.8 684.55,812.15 653.95,794.45 621.6,790.2 587.45,799.35 553.3,808.5 527.35,828.4 509.65,859z"/>
      </g>
    </g>
    <g id="Calque.__209">
      <g id="shape57">
        <path id="path42" fill="#FFFF66" fill-opacity="1" d="M609.35,830.35 Q609.35,830.15 609.4,829.95 C609.6,827.45 608.95,825.2 607.4,823.15 607.35,823.05 607.3,822.95 607.2,822.85 605.7,821 603.8,819.85 601.5,819.35 L601.45,819.35 C599.05,818.8 596.7,819.15 594.45,820.35 592.3,821.55 590.8,823.25 589.95,825.45 589.95,825.55 589.95,825.6 589.9,825.65 L547.85,938.5 C546.9,940.85 546.9,943.25 547.85,945.7 548.8,948.15 550.4,949.9 552.75,951.05 555,952.2 557.35,952.4 559.8,951.75 L615.85,936.75 596.45,1012.35 C596.4,1012.45 596.35,1012.55 596.3,1012.65 595.7,1015.1 595.95,1017.5 597.1,1019.75 598.25,1021.9 599.9,1023.45 602.1,1024.4 602.15,1024.45 602.25,1024.5 602.4,1024.55 604.7,1025.5 607,1025.55 609.35,1024.75 609.45,1024.75 609.55,1024.7 609.65,1024.65 611.9,1023.8 613.6,1022.3 614.85,1020.25 614.9,1020.1 615,1019.95 615.05,1019.8 L693.65,883.65 C695,881.25 695.35,878.7 694.65,876 693.9,873.35 692.35,871.3 689.95,869.9 689.8,869.85 689.7,869.8 689.65,869.75 687.3,868.45 684.9,868.15 682.35,868.85 L605.15,889.5 609.35,830.35z"/>
      </g>
    </g>
    <g id="Calque.__210">
      <g id="shape59">
        <path id="path43" fill="#FFFFFF" fill-opacity="0.8" d="M353.7,530.5 Q338.75,556.4 337.6,580.15 C336.8,595.95 340.85,606.45 349.75,611.6 358.6,616.75 369.7,615 383,606.4 396.35,597.8 408,584.85 417.95,567.55 427.95,550.3 433.35,533.75 434.1,517.9 434.95,502.1 430.9,491.65 422,486.5 413.1,481.4 402,483.15 388.65,491.7 375.3,500.25 363.65,513.2 353.7,530.5z"/>
      </g>
    </g>
  </g>
</svg>