<?xml version="1.0" encoding="utf-8"?>
<!-- Generator: flash2svg, http://dissentgraphics.com/tools/flash2svg -->
<svg xmlns:xlink="http://www.w3.org/1999/xlink" id="Skype" image-rendering="optimizeSpeed" baseProfile="basic" version="1.1" style="background-color:#ffffff" x="0px" y="0px" width="1024px" height="1024px" viewBox="0 0 1024 1024" enable-background="new 0 0 1024 1024" xmlns="http://www.w3.org/2000/svg">
  <defs transform="matrix(1 0 0 1 0 0) "/>
  <g id="shadow">
    <g id="shape">
      <path id="path" fill="#000000" fill-opacity="0.09803921568627451" d="M957.65,339.3 Q949.037,318.427 938.25,298.45 C934.2,290.9 929.9,283.4 925.35,276.05 905.8,244.35 881.95,214.4 853.8,186.25 761.65,94.1 650.35,48 520,48 389.65,48 278.4,94.1 186.25,186.25 94.1,278.4 48,389.65 48,520 48,650.35 94.1,761.65 186.25,853.8 278.4,945.95 389.65,992 520,992 650.35,992 761.65,945.95 853.8,853.8 904.55,803 941.35,746.4 964.15,684.05 982.7,633.2 992,578.55 992,520 992,475.1 986.55,432.45 975.6,392.05 974.35,387.5 973.05,382.95 971.7,378.45 967.6,365.15 962.9,352.1 957.65,339.3z"/>
    </g>
  </g>
  <g id="circle">
    <g id="shape2">
      <path id="path1" fill="#04AAF4" fill-opacity="1" d="M969.75,392.05 C968.65,387.7 967.4,383.05 966.1,378.45 963.6,369.7 960.75,360.85 957.65,352.1 951.2,333.85 943.5,316.05 934.5,298.45 930.7,291.05 926.55,283.5 922.2,276.05 L922.175,276.05 Q891.574,224.04 845.85,178.3 C753.7,86.15 642.4,40.05 512.05,40.05 381.7,40.05 270.45,86.15 178.3,178.3 86.15,270.45 40.05,381.7 40.05,512.05 40.05,642.4 86.15,753.7 178.3,845.85 270.45,938 381.7,984.05 512.05,984.05 524.75,984.05 537.25,983.6 549.1,982.8 569.3,981.35 589,978.75 607.8,975.1 615.75,973.55 623.6,971.8 631.2,969.95 712,949.65 783.35,908.35 845.85,845.85 894.45,797.25 930.25,743.35 953.2,684.05 971.65,636.4 981.85,585.25 983.75,530.55 983.95,524.5 984.05,518.3 984.05,512.05 984.05,470.3 979.35,430.45 969.75,392.05z"/>
    </g>
  </g>
  <g id="circle1">
    <g id="shape4">
      <path id="path2" fill="#000000" fill-opacity="0.2" d="M980.2,575.6 L675.05,270.45 381.8,292.425 325.225,484.925 542.375,702.075 490.05,715.85 362.05,587.85 310.6,727.05 564.975,981.425 L565,981.45 C579.7,979.9 594,977.8 607.8,975.1 615.75,973.55 623.6,971.8 631.2,969.95 712,949.65 783.35,908.35 845.85,845.85 894.45,797.25 930.25,743.35 953.2,684.05 Q973.175,632.508 980.2,575.6z"/>
    </g>
  </g>
  <g id="Livello.__201">
    <g id="drawingObject">
      <path id="path3" fill="#FFFFFF" fill-opacity="1" d="M715.966,316.246 C707.521,300.467 693.963,285.243 675.739,271.019 657.626,256.906 634.623,245.46 607.398,236.904 580.173,228.459 547.725,224.236 510.721,224.236 464.493,224.236 423.6,230.681 389.262,243.349 Q336.701,262.796 308.92,299.133 C290.251,323.469 280.806,351.695 280.806,382.92 280.806,415.813 289.807,443.705 307.587,465.93 325.033,487.821 349.036,505.379 378.706,518.047 407.709,530.382 444.269,541.272 487.162,550.495 518.833,557.051 544.391,563.385 563.171,569.275 581.173,574.942 596.064,583.165 607.398,593.611 618.066,603.723 623.289,616.613 623.289,632.949 623.289,653.618 613.288,670.508 592.73,684.621 571.616,698.956 543.502,706.29 509.276,706.29 484.384,706.29 464.16,702.734 449.158,695.622 434.268,688.51 422.6,679.509 414.376,668.73 405.931,657.618 397.93,643.394 390.596,626.615 384.04,611.168 375.928,599.167 366.371,591.166 356.37,582.721 344.146,578.387 329.922,578.387 312.587,578.387 298.03,583.832 286.695,594.5 275.25,605.279 269.36,618.391 269.36,633.615 269.36,657.84 278.361,683.065 295.919,708.402 313.365,733.516 336.256,753.851 364.037,768.964 403.042,789.522 452.825,799.968 512.276,799.968 561.837,799.968 605.398,792.411 641.735,777.298 678.406,762.074 706.743,740.516 725.856,713.402 745.08,686.288 754.859,655.173 754.859,621.058 754.859,592.5 749.192,568.052 737.968,548.161 726.856,528.381 711.077,511.713 691.297,498.822 671.85,486.154 648.069,475.264 620.511,466.485 593.285,457.818 562.393,449.706 528.945,442.483 502.497,436.371 483.162,431.704 471.605,428.481 460.382,425.37 449.158,421.036 438.268,415.591 427.822,410.257 419.488,404.034 413.599,396.811 408.042,390.032 405.375,382.143 405.375,372.697 405.375,357.362 413.821,344.361 431.045,333.026 448.936,321.247 473.05,315.357 502.831,315.357 534.723,315.357 557.948,320.691 571.95,331.248 586.285,342.138 598.731,357.584 609.065,377.253 617.955,392.588 626.067,403.256 633.734,410.146 642.069,417.48 654.07,421.258 669.405,421.258 686.296,421.258 700.631,415.257 711.966,403.478 723.189,391.81 728.967,378.364 728.967,363.585 728.967,348.139 724.634,332.248 715.966,316.246z"/>
      <path id="path4" fill="none" stroke="#00A8F6" stroke-opacity="1" stroke-width="1" stroke-linecap="round" stroke-linejoin="miter" stroke-miterlimit="4" d="M715.966,316.246 C707.521,300.467 693.963,285.243 675.739,271.019 657.626,256.906 634.623,245.46 607.398,236.904 580.173,228.459 547.725,224.236 510.721,224.236 464.493,224.236 423.6,230.681 389.262,243.349 Q336.701,262.796 308.92,299.133 C290.251,323.469 280.806,351.695 280.806,382.92 280.806,415.813 289.807,443.705 307.587,465.93 325.033,487.821 349.036,505.379 378.706,518.047 407.709,530.382 444.269,541.272 487.162,550.495 518.833,557.051 544.391,563.385 563.171,569.275 581.173,574.942 596.064,583.165 607.398,593.611 618.066,603.723 623.289,616.613 623.289,632.949 623.289,653.618 613.288,670.508 592.73,684.621 571.616,698.956 543.502,706.29 509.276,706.29 484.384,706.29 464.16,702.734 449.158,695.622 434.268,688.51 422.6,679.509 414.376,668.73 405.931,657.618 397.93,643.394 390.596,626.615 384.04,611.168 375.928,599.167 366.371,591.166 356.37,582.721 344.146,578.387 329.922,578.387 312.587,578.387 298.03,583.832 286.695,594.5 275.25,605.279 269.36,618.391 269.36,633.615 269.36,657.84 278.361,683.065 295.919,708.402 313.365,733.516 336.256,753.851 364.037,768.964 403.042,789.522 452.825,799.968 512.276,799.968 561.837,799.968 605.398,792.411 641.735,777.298 678.406,762.074 706.743,740.516 725.856,713.402 745.08,686.288 754.859,655.173 754.859,621.058 754.859,592.5 749.192,568.052 737.968,548.161 726.856,528.381 711.077,511.713 691.297,498.822 671.85,486.154 648.069,475.264 620.511,466.485 593.285,457.818 562.393,449.706 528.945,442.483 502.497,436.371 483.162,431.704 471.605,428.481 460.382,425.37 449.158,421.036 438.268,415.591 427.822,410.257 419.488,404.034 413.599,396.811 408.042,390.032 405.375,382.143 405.375,372.697 405.375,357.362 413.821,344.361 431.045,333.026 448.936,321.247 473.05,315.357 502.831,315.357 534.723,315.357 557.948,320.691 571.95,331.248 586.285,342.138 598.731,357.584 609.065,377.253 617.955,392.588 626.067,403.256 633.734,410.146 642.069,417.48 654.07,421.258 669.405,421.258 686.296,421.258 700.631,415.257 711.966,403.478 723.189,391.81 728.967,378.364 728.967,363.585 728.967,348.139 724.634,332.248 715.966,316.246z"/>
    </g>
  </g>
</svg>