<?xml version="1.0" encoding="utf-8"?>
<!-- Generator: flash2svg, http://dissentgraphics.com/tools/flash2svg -->
<svg xmlns:xlink="http://www.w3.org/1999/xlink" id="Slack" image-rendering="optimizeSpeed" baseProfile="basic" version="1.1" style="background-color:#ffffff" x="0px" y="0px" width="1024px" height="1024px" viewBox="0 0 1024 1024" enable-background="new 0 0 1024 1024" xmlns="http://www.w3.org/2000/svg">
  <defs transform="matrix(1 0 0 1 0 0) "/>
  <g id="shadow">
    <g id="shape">
      <path id="path" fill="#000000" fill-opacity="0.09803921568627451" d="M969.65,351.3 Q961.05,330.45 950.25,310.45 C946.2,302.9 941.9,295.4 937.35,288.05 917.8,256.35 893.95,226.4 865.8,198.25 773.65,106.1 662.35,60 532,60 401.65,60 290.4,106.1 198.25,198.25 106.1,290.4 60,401.65 60,532 60,662.35 106.1,773.65 198.25,865.8 290.4,957.95 401.65,1004 532,1004 662.35,1004 773.65,957.95 865.8,865.8 916.55,815 953.35,758.4 976.15,696.05 994.7,645.2 1004,590.55 1004,532 1004,487.1 998.55,444.45 987.6,404.05 986.35,399.5 985.05,394.95 983.7,390.45 979.6,377.15 974.9,364.1 969.65,351.3z"/>
    </g>
  </g>
  <g id="circle">
    <g id="shape2">
      <path id="path1" fill="#779620" fill-opacity="1" d="M727.2,91.75 C718.5,87.4 709.35,83.1 699.95,79.05 691.35,75.3 682.8,71.85 674.05,68.65 631.95,52.9 589.8,43.3 547.6,40 L628.25,244.25 832.5,163.6 C813.75,146.5 793.15,130.8 770.95,116.65 757.1,107.75 742.65,99.55 727.2,91.75z"/>
      <path id="path2" fill="#E5AF23" fill-opacity="1" d="M951.1,338.7 C923.55,268.95 884.1,210.65 832.5,163.6 L628.25,244.25 779.85,628.3 984.15,547.6 C984.25,546.15 984.4,544.45 984.55,542.65 985.85,523.35 985.85,503.95 984.65,484.25 984.05,475.9 983.3,467.35 982.25,458.8 980.25,442.4 977.3,425.95 973.3,409.1 967.85,385.95 960.45,362.35 951.1,338.7z"/>
      <path id="path3" fill="#C60F0C" fill-opacity="1" d="M937.4,716.75 C940,711.25 942.55,705.65 945.05,699.9 945.3,699.3 945.6,698.65 945.85,698.05 946,697.75 946.1,697.45 946.25,697.15 949.05,690.55 951.7,683.9 954.35,677.15 966,646.5 974.5,615.5 979.7,584.1 980.4,579.7 981.1,574.95 981.8,570.2 982.7,562.85 983.55,555.35 984.15,547.6 L779.85,628.3 860.55,832.55 C868.95,823.3 877.05,813.6 884.8,803.45 904.85,777.3 922.35,748.35 937.4,716.75z"/>
      <path id="path4" fill="#83D2E1" fill-opacity="1" d="M628.25,244.25 L547.6,40 C478.2,34.4 408.65,45.4 338.7,73 315.25,82.3 293.05,92.9 272.1,104.9 230.8,128.6 194.5,157.55 163.6,191.6 L244.25,395.85 628.25,244.25z"/>
      <path id="path5" fill="#1FA58D" fill-opacity="1" d="M244.25,395.85 L163.6,191.6 Q112,248.2 79.05,324.15 C57,374.95 44,426 40,476.55 L244.25,395.85z"/>
      <path id="path6" fill="#48C4A0" fill-opacity="1" d="M50.25,612.55 C55.95,637.1 63.5,661.3 73,685.4 100.7,755.35 140.25,813.8 191.55,860.5 L395.9,779.85 244.25,395.85 40,476.55 C36.3,522.15 39.8,567.3 50.25,612.55z"/>
      <path id="path7" fill="#EDECE3" fill-opacity="1" d="M244.25,395.85 L395.9,779.85 779.85,628.3 628.25,244.25 244.25,395.85z"/>
      <path id="path8" fill="#593D57" fill-opacity="1" d="M324.2,945.05 C333.65,949.15 343.1,952.9 352.1,956.25 354.45,957.1 356.6,957.9 358.7,958.65 377.75,965.35 396.9,970.8 415.6,974.95 423.5,976.65 431.4,978.2 439.1,979.5 440.05,979.7 441.05,979.8 441.8,979.95 453.45,981.8 465,983.2 476.55,984.15 L395.9,779.85 191.55,860.5 C223,889.15 258.75,913.35 298.85,933.3 299,933.35 299.1,933.4 299.2,933.45 302.3,935 305.3,936.45 307.85,937.6 312.75,939.95 317.1,941.95 321.45,943.85 322.55,944.3 323.35,944.7 324.2,945.05z"/>
      <path id="path9" fill="#E6176F" fill-opacity="1" d="M848.3,845.45 C852.45,841.25 856.5,836.95 860.55,832.55 L779.85,628.3 395.9,779.85 476.55,984.15 C546.35,989.6 615.75,978.6 685.4,951.1 709.75,941.5 732.7,930.45 754.2,917.95 789.3,897.6 820.65,873.45 848.3,845.45z"/>
    </g>
  </g>
  <g id="ico-shadow">
    <g id="shape13">
      <path id="path10" fill="#000000" fill-opacity="0.2" d="M779.85,628.3 L730.05,502.15 598.85,370.95 467.25,391.6 432.3,504.5 571.05,643.25 424.625,653.525 507.075,735.975 779.85,628.3z"/>
    </g>
  </g>
  <g id="ico">
    <g id="shape15">
      <path id="path11" fill="#5D3957" fill-opacity="1" d="M473.8,344.3 Q473.15,344.6 472.55,344.85 C461.05,349.25 450.4,355.95 440.5,365.05 424.75,379.5 414.25,396.2 409.1,415.05 408.75,416.1 408.5,417.15 408.25,418.25 408.3,418.35 408.25,418.45 408.2,418.6 406.8,424.45 405.9,430.55 405.5,436.85 405.4,439.15 405.3,441.45 405.25,443.7 405.25,445.4 405.3,447.05 405.35,448.65 L405.35,448.75 C405.35,448.8 405.35,448.9 405.4,449 L405.4,449.15 C405.35,454.45 406.4,460.05 408.55,465.9 L408.55,465.95 C408.55,466 408.6,466.05 408.6,466.15 L408.6,466.2 C409.9,471.1 411.6,475.75 413.7,480.15 417.45,488.25 422.3,495.35 428.25,501.6 435.45,509.15 444.3,515.3 454.75,520.2 457.15,521.4 459.65,522.45 462.3,523.45 L501.2,542.55 C507.6,545.6 513.7,548.9 519.55,552.45 520.05,552.8 520.55,553.1 521.1,553.5 527.05,557.25 532.8,561.35 538.1,565.65 544.95,574.75 548.1,583.4 547.35,591.4 547.25,591.45 547.25,591.6 547.3,591.75 546.45,598.4 542.85,604.7 536.5,610.7 535.9,611.3 535.2,611.9 534.45,612.5 534.1,612.8 533.7,613.15 533.35,613.55 533.2,613.6 533,613.75 532.85,613.85 528.05,616.25 523.05,617.55 518,617.8 517.8,617.85 517.7,617.9 517.55,617.85 512.25,618.05 507.05,617.3 501.85,615.4 500.3,614.8 498.7,614.15 497.15,613.55 489.05,610.3 481.3,606.65 473.9,602.5 472.35,601.65 470.8,600.9 469.2,600 469.15,599.9 469.05,599.8 468.9,599.75 L456.8,594.25 C456.75,594.25 456.75,594.25 456.7,594.2 L456.7,594.15 C453.05,592.65 449.6,591.75 446.45,591.5 439.85,591.1 434.3,593.45 429.85,598.65 428.5,600.1 427.3,601.75 426.2,603.65 426.15,603.65 426.15,603.65 426.15,603.75 L426.2,603.75 C426.15,603.8 426.1,603.85 426.15,603.9 L415.95,622.95 C415.85,623.15 415.8,623.35 415.7,623.5 410.9,636.95 413.75,646.85 424.3,653.2 L424.35,653.3 C424.5,653.35 424.55,653.4 424.7,653.45 L434.7,658.45 C449.5,667.65 465.85,674.95 483.7,680.35 484.3,681.15 485.1,681.6 486,681.9 508.45,687.9 529.3,687.55 548.55,680.9 549.05,680.75 549.4,680.65 549.85,680.4 559.8,676.8 569.3,671.5 578.45,664.45 592.2,653.9 602.3,641.45 608.8,626.85 612.2,619.45 614.55,611.45 615.95,602.95 616,602.8 616,602.75 616,602.7 616.25,601.5 616.5,600.25 616.65,599.05 617.5,592.55 617.75,585.8 617.65,578.75 L617.6,578.65 617.65,578.55 617.6,578.1 C617.6,578.05 617.6,578 617.6,577.95 617.6,577.9 617.65,577.75 617.6,577.7 L615,561.8 C615,561.75 615,561.7 614.95,561.65 614.95,561.55 614.95,561.4 614.9,561.2 612.95,554.85 610.55,548.95 607.6,543.45 604.1,536.9 599.9,531 595.05,525.75 585.85,515.7 574.3,507.75 560.35,501.95 L521.45,482.25 C521.4,482.15 521.35,482.15 521.3,482.2 L521.25,482.15 C521.15,482.05 521.05,482 520.85,482 520.8,481.95 520.75,481.95 520.7,481.95 514.65,479.65 508.85,476.95 503.1,473.9 502.55,473.65 502.05,473.3 501.6,473 496.6,470.3 491.75,467.3 487.1,463.95 486.05,463.3 485,462.5 484,461.7 482.2,459.2 480.75,456.8 479.5,454.45 476.05,447.45 474.8,440.9 475.85,434.8 477.3,428.1 481.55,421.75 488.65,415.9 489,415.55 489.35,415.2 489.8,414.9 490.9,414.1 492.05,413.2 493.25,412.4 515.2,408.65 535.45,413.4 554.25,426.6 L554.3,426.6 554.25,426.65 C554.45,426.8 554.6,426.85 554.7,426.9 L566.15,432.7 C566.3,432.7 566.35,432.7 566.4,432.75 570.2,434.45 573.8,435.35 577.2,435.45 585,435.7 591.5,431.65 596.75,423.3 596.7,423.25 596.7,423.25 596.8,423.2 L596.85,423 607.9,403.65 C608,403.5 608.05,403.45 608.05,403.4 614.9,389.45 611.85,378.65 598.95,371 598.9,370.95 598.9,370.95 598.85,370.95 L598.85,370.9 C598.7,370.9 598.6,370.85 598.55,370.85 L588.85,365.9 C588.55,365.55 588.15,365.3 587.8,365.05 563.75,353.75 544.85,346.2 531.15,342.4 531.15,342.35 531.1,342.25 531.05,342.3 530.4,341.55 529.55,341 528.65,340.85 508.7,337.1 490.4,338.25 473.8,344.3z"/>
    </g>
  </g>
</svg>