<?xml version="1.0" encoding="utf-8"?>
<!-- Generator: flash2svg, http://dissentgraphics.com/tools/flash2svg -->
<svg xmlns:xlink="http://www.w3.org/1999/xlink" id="SourceTree" image-rendering="optimizeSpeed" baseProfile="basic" version="1.1" style="background-color:#ffffff" x="0px" y="0px" width="1024px" height="1024px" viewBox="0 0 1024 1024" enable-background="new 0 0 1024 1024" xmlns="http://www.w3.org/2000/svg">
  <defs transform="matrix(1 0 0 1 0 0) "/>
  <g id="shadow">
    <g id="shape">
      <path id="path" fill="#000000" fill-opacity="0.09803921568627451" d="M969.65,351.3 Q961.05,330.45 950.25,310.45 C946.2,302.9 941.9,295.4 937.35,288.05 917.8,256.35 893.95,226.4 865.8,198.25 773.65,106.1 662.35,60 532,60 401.65,60 290.4,106.1 198.25,198.25 106.1,290.4 60,401.65 60,532 60,662.35 106.1,773.65 198.25,865.8 290.4,957.95 401.65,1004 532,1004 662.35,1004 773.65,957.95 865.8,865.8 916.55,815 953.35,758.4 976.15,696.05 994.7,645.2 1004,590.55 1004,532 1004,487.1 998.55,444.45 987.6,404.05 986.35,399.5 985.05,394.95 983.7,390.45 979.6,377.15 974.9,364.1 969.65,351.3z"/>
    </g>
  </g>
  <g id="criclebg">
    <g id="shape2">
      <path id="path1" fill="#2B4770" fill-opacity="1" d="M785.65,258.45 C782.55,255.15 779.2,251.7 775.8,248.3 703,175.45 615.1,139.05 512.05,139.05 409,139.05 321.1,175.45 248.25,248.3 175.4,321.15 139,409.05 139,512.1 139,615.1 175.4,703 248.25,775.8 248.8,776.35 249.3,776.85 249.8,777.35 252.3,779.8 254.8,782.25 257.35,784.65 257.7,785 258.1,785.35 258.45,785.7 258.9,786.15 259.4,786.55 259.85,787 318.7,841.6 387.05,873.4 464.8,882.45 478.65,884 492.35,884.85 506.3,885.05 508.4,885.1 510.2,885.1 512.05,885.1 530.45,885.1 548.4,883.95 565.45,881.65 646,870.95 716,835.65 775.8,775.8 Q885.1,666.6 885.1,512.1 C885.1,498.15 884.45,484.45 883.1,471.05 875,390.15 842.55,319.3 785.65,258.45z"/>
    </g>
  </g>
  <g id="criclebg1">
    <g id="shape4">
      <path id="path2" fill="#000000" fill-opacity="0.2" d="M855.7,188.4 C852.7,185.25 849.3,181.75 845.85,178.3 773.4,105.85 689.1,61.85 593.05,46.4 592.75,46.35 592.45,46.3 592.2,46.25 575.95,43.65 559.4,41.85 542.15,40.9 532.45,40.35 522.3,40.05 512.05,40.05 502.7,40.05 493.45,40.3 484.15,40.8 365.8,46.9 263.85,92.75 178.3,178.3 121.8,234.8 82.65,298.45 60.85,369 Q40.05,436.2 40.05,512.05 C40.05,642.4 86.15,753.7 178.3,845.85 181.7,849.25 185.15,852.6 188.4,855.7 233.95,898.85 283.7,931 337.4,952.15 343.85,954.75 350,957 356.2,959.1 396.7,972.95 439.25,981 484.15,983.35 484.3,983.35 484.4,983.35 484.55,983.35 493.05,983.8 501.15,984.05 509.05,984.05 510.25,984.05 511.15,984.05 512.05,984.05 522.35,984.05 532.55,983.75 542.15,983.25 544.65,983.1 546.9,982.95 549.1,982.8 569.3,981.35 589,978.75 607.8,975.1 615.75,973.55 623.6,971.8 631.2,969.95 695.9,953.7 754.55,924 807.35,880.8 820.6,869.9 833.4,858.3 845.85,845.85 860.3,831.4 873.65,816.45 885.8,801.05 914.6,764.7 937.05,725.7 953.2,684.05 957.15,673.8 960.75,663.4 963.95,652.9 975.65,614.25 982.25,573.5 983.75,530.55 983.95,524.5 984.05,518.3 984.05,512.05 984.05,511.4 984.05,510.7 984.05,510.05 984.05,509.7 984.05,509.4 984.05,509.05 983.85,468.4 979.1,429.55 969.75,392.05 968.65,387.7 967.4,383.05 966.1,378.45 963.85,370.6 961.35,362.65 958.55,354.65 958.25,353.9 957.95,353 957.65,352.1 951.2,333.85 943.5,316.05 934.5,298.45 930.7,291.05 926.55,283.5 922.2,276.05 904.2,245.45 882.1,216.3 855.7,188.4z M785.65,258.45 C842.55,319.3 875,390.15 883.1,471.05 L755.05,343 681.1,389.05 563.05,271 495.725,409.3 478.575,591.325 342.05,454.8 244.85,561.05 565.45,881.65 C548.4,883.95 530.45,885.1 512.05,885.1 510.2,885.1 508.4,885.1 506.3,885.05 492.35,884.85 478.65,884 464.8,882.45 387.05,873.4 318.7,841.6 259.85,787 259.4,786.55 258.9,786.15 258.45,785.7 258.1,785.35 257.7,785 257.35,784.65 254.8,782.25 252.3,779.8 249.8,777.35 249.3,776.85 248.8,776.35 248.25,775.8 175.4,703 139,615.1 139,512.1 139,409.05 175.4,321.15 248.25,248.3 321.1,175.45 409,139.05 512.05,139.05 615.1,139.05 703,175.45 775.8,248.3 779.2,251.7 782.55,255.15 785.65,258.45z"/>
    </g>
  </g>
  <g id="V">
    <g id="shape9">
      <path id="path6" fill="#FFFFFF" fill-opacity="1" d="M717.725,419.95 Q717.75,406.109 707.925,396.25 L707.95,396.25 C701.4,389.7 693.5,386.4 684.25,386.4 675,386.35 667.1,389.65 660.5,396.2 L660.475,396.175 L545.6,511.05 545.6,349.25 C545.6,340 542.35,332.1 535.8,325.55 529.25,319 521.3,315.7 512.05,315.7 502.8,315.7 494.9,319 488.35,325.55 481.8,332.1 478.5,340 478.5,349.25 L478.5,580.9 C478.5,582.8 478.65,584.65 478.95,586.5 478.65,588.25 478.5,590.1 478.5,592.05 L478.5,649.2 335.825,506.525 L335.85,506.55 C329.3,500 321.35,496.7 312.1,496.7 302.85,496.7 294.95,500 288.4,506.55 281.85,513.1 278.55,521 278.55,530.25 278.55,539.5 281.85,547.45 288.4,554 L288.375,553.975 L478.5,744.1 478.5,946.25 C478.5,955.5 481.8,963.45 488.35,970 494.9,976.55 502.8,979.8 512.05,979.8 521.3,979.8 529.25,976.55 535.8,970 542.35,963.45 545.6,955.5 545.6,946.25 L545.6,900.15 707.925,737.825 L707.95,737.85 C714.45,731.3 717.7,723.4 717.75,714.15 717.75,704.9 714.5,697 707.95,690.45 701.4,683.9 693.5,680.6 684.25,680.6 675,680.55 667.1,683.85 660.5,690.4 L660.475,690.375 L545.6,805.25 545.6,605.95 707.925,443.625 L707.95,443.65 C714.45,437.1 717.7,429.2 717.75,419.95"/>
    </g>
  </g>
  <g id="criclebg2">
    <g id="shape11">
      <path id="path7" fill="#FFFFFF" fill-opacity="1" d="M439.55,322.55 C439.55,342.6 446.6,359.65 460.75,373.8 474.9,387.95 492,395.05 512.05,395.05 532.1,395.05 549.15,387.95 563.3,373.8 577.45,359.65 584.55,342.6 584.55,322.55 584.55,302.5 577.45,285.4 563.3,271.25 549.15,257.1 532.1,250.05 512.05,250.05 492,250.05 474.9,257.1 460.75,271.25 446.6,285.4 439.55,302.5 439.55,322.55z M704.05,322.05 Q674,322.05 652.75,343.25 C638.6,357.4 631.55,374.5 631.55,394.55 631.55,414.6 638.6,431.65 652.75,445.8 666.9,459.95 684,467.05 704.05,467.05 724.1,467.05 741.15,459.95 755.3,445.8 769.45,431.65 776.55,414.6 776.55,394.55 776.55,374.5 769.45,357.4 755.3,343.25 741.15,329.1 724.1,322.05 704.05,322.05z M784.55,682.55 C784.55,662.5 777.45,645.4 763.3,631.25 749.15,617.1 732.1,610.05 712.05,610.05 692,610.05 674.9,617.1 660.75,631.25 646.6,645.4 639.55,662.5 639.55,682.55 639.55,702.6 646.6,719.65 660.75,733.8 674.9,747.95 692,755.05 712.05,755.05 732.1,755.05 749.15,747.95 763.3,733.8 777.45,719.65 784.55,702.6 784.55,682.55z M300.1,441.55 C280.05,441.55 262.95,448.6 248.8,462.75 234.65,476.9 227.6,494 227.6,514.05 227.6,534.1 234.65,551.15 248.8,565.3 262.95,579.45 280.05,586.55 300.1,586.55 320.15,586.55 337.2,579.45 351.35,565.3 365.5,551.15 372.6,534.1 372.6,514.05 372.6,494 365.5,476.9 351.35,462.75 337.2,448.6 320.15,441.55 300.1,441.55z"/>
    </g>
  </g>
  <g id="Calque.__202">
    <g id="shape19">
      <path id="path14" fill="#FFFFFF" fill-opacity="1" d="M855.7,188.4 C852.7,185.25 849.3,181.75 845.85,178.3 773.4,105.85 689.1,61.85 593.05,46.4 592.75,46.35 592.45,46.3 592.2,46.25 575.95,43.65 559.4,41.85 542.15,40.9 532.45,40.35 522.3,40.05 512.05,40.05 502.7,40.05 493.45,40.3 484.15,40.8 365.8,46.9 263.85,92.75 178.3,178.3 121.8,234.8 82.65,298.45 60.85,369 Q40.05,436.2 40.05,512.05 C40.05,642.4 86.15,753.7 178.3,845.85 181.7,849.25 185.15,852.6 188.4,855.7 233.95,898.85 283.7,931 337.4,952.15 343.85,954.75 350,957 356.2,959.1 396.7,972.95 439.25,981 484.15,983.35 484.3,983.35 484.4,983.35 484.55,983.35 493.05,983.8 501.15,984.05 509.05,984.05 510.25,984.05 511.15,984.05 512.05,984.05 522.35,984.05 532.55,983.75 542.15,983.25 544.65,983.1 546.9,982.95 549.1,982.8 569.3,981.35 589,978.75 607.8,975.1 615.75,973.55 623.6,971.8 631.2,969.95 695.9,953.7 754.55,924 807.35,880.8 820.6,869.9 833.4,858.3 845.85,845.85 860.3,831.4 873.65,816.45 885.8,801.05 914.6,764.7 937.05,725.7 953.2,684.05 957.15,673.8 960.75,663.4 963.95,652.9 975.65,614.25 982.25,573.5 983.75,530.55 983.95,524.5 984.05,518.3 984.05,512.05 984.05,511.4 984.05,510.7 984.05,510.05 984.05,509.7 984.05,509.4 984.05,509.05 983.85,468.4 979.1,429.55 969.75,392.05 968.65,387.7 967.4,383.05 966.1,378.45 963.85,370.6 961.35,362.65 958.55,354.65 958.25,353.9 957.95,353 957.65,352.1 951.2,333.85 943.5,316.05 934.5,298.45 930.7,291.05 926.55,283.5 922.2,276.05 904.2,245.45 882.1,216.3 855.7,188.4z M785.65,258.45 C842.55,319.3 875,390.15 883.1,471.05 884.45,484.45 885.1,498.15 885.1,512.1 885.1,615.1 848.65,703 775.8,775.8 716,835.65 646,870.95 565.45,881.65 548.4,883.95 530.45,885.1 512.05,885.1 510.2,885.1 508.4,885.1 506.3,885.05 492.35,884.85 478.65,884 464.8,882.45 387.05,873.4 318.7,841.6 259.85,787 259.4,786.55 258.9,786.15 258.45,785.7 258.1,785.35 257.7,785 257.35,784.65 254.8,782.25 252.3,779.8 249.8,777.35 249.3,776.85 248.8,776.35 248.25,775.8 175.4,703 139,615.1 139,512.1 139,409.05 175.4,321.15 248.25,248.3 321.1,175.45 409,139.05 512.05,139.05 615.1,139.05 703,175.45 775.8,248.3 779.2,251.7 782.55,255.15 785.65,258.45z"/>
    </g>
  </g>
</svg>