<?xml version="1.0" encoding="utf-8"?>
<!-- Generator: flash2svg, http://dissentgraphics.com/tools/flash2svg -->
<svg id="Sparrow" image-rendering="optimizeSpeed" baseProfile="basic" version="1.1" style="background-color:#FFFFFF" x="0px" y="0px" width="1024px" height="1024px" viewBox="0 0 1024 1024" enable-background="new 0 0 1024 1024" xmlns="http://www.w3.org/2000/svg" xmlns:xlink="http://www.w3.org/1999/xlink">
  <defs transform="matrix(1 0 0 1 0 0) "/>
  <g id="shadow">
    <g id="shape">
      <path id="path" fill="#000000" fill-opacity="0.09803921568627451" d="M969.6,351.25 Q961,330.4 950.2,310.4 C946.15,302.85 941.85,295.35 937.3,288 917.75,256.3 893.9,226.35 865.75,198.2 773.6,106.05 662.3,59.95 531.95,59.95 401.6,59.95 290.35,106.05 198.2,198.2 106.05,290.35 59.95,401.6 59.95,531.95 59.95,662.3 106.05,773.6 198.2,865.75 290.35,957.9 401.6,1003.95 531.95,1003.95 662.3,1003.95 773.6,957.9 865.75,865.75 916.5,814.95 953.3,758.35 976.1,696 994.65,645.15 1003.95,590.5 1003.95,531.95 1003.95,487.05 998.5,444.4 987.55,404 986.3,399.45 985,394.9 983.65,390.4 979.55,377.1 974.85,364.05 969.6,351.25z"/>
    </g>
  </g>
  <g id="circle">
    <g id="shape2">
      <path id="path1" fill="#576091" fill-opacity="1" d="M969.7,392 C968.6,387.65 967.35,383 966.05,378.4 963.55,369.65 960.7,360.8 957.6,352.05 951.15,333.8 943.45,316 934.45,298.4 930.65,291 926.5,283.45 922.15,276 901.85,241.5 876.35,208.8 845.8,178.25 773.2,105.65 688.65,61.6 592.15,46.2 575.9,43.6 559.35,41.8 542.1,40.85 532.4,40.3 522.25,40 512,40 502.65,40 493.4,40.25 484.1,40.75 365.75,46.85 263.8,92.7 178.25,178.25 Q40,316.5 40,512 C40,642.35 86.1,753.65 178.25,845.8 255.65,923.15 346.5,968.05 450.4,980.4 461.75,981.75 472.85,982.7 484.1,983.3 484.25,983.3 484.35,983.3 484.5,983.3 493,983.75 501.1,984 509,984 510.2,984 511.1,984 512,984 522.3,984 532.5,983.7 542.1,983.2 544.6,983.05 546.85,982.9 549.05,982.75 569.25,981.3 588.95,978.7 607.75,975.05 615.7,973.5 623.55,971.75 631.15,969.9 711.95,949.6 783.3,908.3 845.8,845.8 894.4,797.2 930.2,743.3 953.15,684 964.55,654.6 972.8,623.85 977.9,591.9 981,571.85 982.95,551.45 983.7,530.5 983.9,524.45 984,518.25 984,512 984,511.35 984,510.65 984,510 984,509.65 984,509.35 984,509 983.8,468.35 979.05,429.5 969.7,392z"/>
    </g>
  </g>
  <g id="ico-shadow">
    <g id="shape4">
      <path id="path2" fill="#000000" fill-opacity="0.2" d="M953.15,684 C964.55,654.6 972.8,623.85 977.9,591.9 L977.875,591.875 L544.075,158.075 253,783 450.4,980.4 C461.75,981.75 472.85,982.7 484.1,983.3 484.25,983.3 484.35,983.3 484.5,983.3 493,983.75 501.1,984 509,984 Q510.494,984 512,984 C522.3,984 532.5,983.7 542.1,983.2 544.6,983.05 546.85,982.9 549.05,982.75 569.25,981.3 588.95,978.7 607.75,975.05 615.7,973.5 623.55,971.75 631.15,969.9 711.95,949.6 783.3,908.3 845.8,845.8 894.4,797.2 930.2,743.3 953.15,684z"/>
    </g>
  </g>
  <g id="ico">
    <g id="Symbole.__203_1" overflow="visible">
      <g id="Calque.__202">
        <g id="shape12">
          <path id="path7" fill="#DEDEDE" fill-opacity="1" d="M514.15,141.1 L514.1,141.1 C504.55,141.55 496.3,145.25 489.4,152.15 486.05,155.5 483.5,159.1 481.65,163.05 481.1,164.2 480.65,165.4 480.2,166.65 L249.1,743.3 C249.1,743.35 249.05,743.45 249,743.5 248.95,743.65 248.85,743.85 248.8,744.05 247.1,748.35 246.25,753 246.25,758.05 246.25,765.4 248.05,772 251.7,777.85 L514.1,585.15 514.15,585.1 514.15,585.05 514.15,141.1z"/>
          <path id="path8" fill="#FFFFFF" fill-opacity="1" d="M514.1,141.1 L514.15,141.1 514.15,585.05 776.55,777.8 C780.2,771.95 782,765.35 782,758 782,752.95 781.15,748.3 779.45,744 779.4,743.8 779.3,743.6 779.25,743.45 779.2,743.4 779.15,743.3 779.15,743.25 L548.05,166.6 C547.6,165.35 547.15,164.15 546.6,163 544.75,159.05 542.2,155.45 538.85,152.1 531.95,145.2 523.7,141.5 514.1,141.05 L514.1,141.1z"/>
          <path id="path9" fill="#7681BE" fill-opacity="1" d="M514.15,585.1 L514.1,585.15 251.7,777.85 C253.25,780.3 255.15,782.65 257.4,784.9 264.1,791.6 272.05,795.3 281.25,795.95 282.25,796 283.25,796.05 284.25,796.05 285.25,796.05 286.25,796 287.2,795.95 L514.15,795.95 514.15,795.9 514.15,585.1z"/>
          <path id="path10" fill="#94A1EE" fill-opacity="1" d="M514.15,585.05 L514.15,585.1 514.15,795.9 741.05,795.9 C742,795.95 743,796 744,796 745,796 746,795.95 747,795.9 756.2,795.25 764.15,791.55 770.85,784.85 773.1,782.6 775,780.25 776.55,777.8 L514.15,585.05z"/>
        </g>
      </g>
    </g>
  </g>
</svg>