<?xml version="1.0" encoding="utf-8"?>
<!-- Generator: Adobe Illustrator 16.0.0, SVG Export Plug-In . SVG Version: 6.00 Build 0)  -->
<!DOCTYPE svg PUBLIC "-//W3C//DTD SVG 1.1//EN" "http://www.w3.org/Graphics/SVG/1.1/DTD/svg11.dtd">
<svg version="1.1" id="Template" image-rendering="optimizeSpeed"
	 xmlns="http://www.w3.org/2000/svg" xmlns:xlink="http://www.w3.org/1999/xlink" x="0px" y="0px" width="1024px" height="1024px"
	 viewBox="0 0 1024 1024" enable-background="new 0 0 1024 1024" xml:space="preserve">
<path fill="none" d="z"/>
<g id="background-circle-shadow">
	<g id="shape">
		<path id="path" fill-opacity="0.098" d="M969.65,351.3c-5.733-13.9-12.2-27.517-19.4-40.85c-4.05-7.55-8.35-15.05-12.9-22.4
			c-19.55-31.7-43.399-61.65-71.55-89.8C773.65,106.1,662.35,60,532,60s-241.6,46.1-333.75,138.25S60,401.65,60,532
			s46.1,241.65,138.25,333.8C290.4,957.95,401.65,1004,532,1004s241.65-46.05,333.8-138.2C916.55,815,953.35,758.4,976.15,696.05
			C994.7,645.2,1004,590.55,1004,532c0-44.9-5.45-87.55-16.4-127.95c-1.25-4.55-2.55-9.1-3.899-13.6
			C979.6,377.15,974.9,364.1,969.65,351.3z"/>
	</g>
</g>
<path fill="#F9FF00" d="M667.375,390.812l316.11,96.25c-1.519-32.738-6.085-64.328-13.735-95.012c-1.1-4.35-2.35-9-3.65-13.6
	c-1-3.4-2-6.85-3.149-10.5c-1.601-5.15-3.4-10.5-5.3-15.85c-6.45-18.25-14.15-36.05-23.15-53.65c-3.8-7.4-7.95-14.95-12.3-22.4
	c-20.3-34.5-45.8-67.2-76.351-97.75C773.25,105.7,688.7,61.65,592.2,46.25c-16.25-2.6-32.8-4.4-50.05-5.35
	c-9.7-0.55-19.851-0.85-30.101-0.85c-9.35,0-18.6,0.25-27.899,0.75C365.8,46.9,263.85,92.75,178.3,178.3
	C86.133,270.467,40.05,381.717,40.05,512.05c0,130.351,46.1,241.65,138.25,333.8C235,902.5,298.85,941.75,369.4,963.4
	c36.75,11.25,74.8,17.85,114.75,19.949c0.149,0,0.25,0,0.399,0c8.5,0.45,16.601,0.7,24.5,0.7c1.2,0,2.101,0,3,0
	c5.225,0,10.422-0.078,15.53-0.22L391.125,669.434L667.375,390.812z"/>
<rect x="356.779" y="316.921" transform="matrix(0.7071 0.7071 -0.7071 0.7071 488.8378 -251.0016)" fill="#D0D350" width="381.25" height="295.312"/>
<rect x="307.534" y="470.342" transform="matrix(0.7071 0.7071 -0.7071 0.7071 582.8994 -171.2438)" fill="#D0D350" width="381.25" height="295.312"/>
<path fill="#D0D350" d="M549.1,982.8c20.2-1.45,39.9-4.05,58.7-7.7c7.95-1.55,15.8-3.3,23.4-5.149
	C712,949.65,783.35,908.35,845.85,845.85c48.601-48.6,84.4-102.5,107.351-161.8c18.45-47.649,28.649-98.8,30.55-153.5
	c0.2-6.05,0.3-12.25,0.3-18.5c0-0.649,0-1.35,0-2c0-0.35,0-0.649,0-1c-0.036-7.388-0.228-14.715-0.564-21.988L812.464,316.041
	l-209.151,24.772L406.438,642.375l-33.591,186.721L527.58,983.83c4.962-0.138,9.84-0.334,14.57-0.58
	C544.65,983.1,546.9,982.95,549.1,982.8z"/>
<path fill="none" d="z"/>
<rect x="353.857" y="522.559" transform="matrix(0.9952 -0.0981 0.0981 0.9952 -63.1808 54.3649)" fill="#F7F7F7" width="334.376" height="293.751"/>
<polygon fill="#D0D350" points="587.344,531.548 276.715,605.371 194.905,321.576 520.512,245.501 "/>
<rect x="218.937" y="259.562" transform="matrix(0.9738 -0.2275 0.2275 0.9738 -82.3442 98.5081)" fill="#F7F7F7" width="334.375" height="293.751"/>
<rect x="225.837" y="292.331" transform="matrix(0.9738 -0.2275 0.2275 0.9738 -62.4348 90.4383)" fill="#E5E5E5" width="270.474" height="47.42"/>
<rect x="246.723" y="360.086" transform="matrix(0.9738 -0.2275 0.2275 0.9738 -77.3026 96.9671)" fill="#E5E5E5" width="270.474" height="47.42"/>
<rect x="267.348" y="434.23" transform="matrix(0.9738 -0.2275 0.2275 0.9738 -93.6305 103.6041)" fill="#E5E5E5" width="270.474" height="47.42"/>
<rect x="380.971" y="577.209" transform="matrix(0.9952 -0.0981 0.0981 0.9952 -56.6208 52.5133)" fill="#E5E5E5" width="249.091" height="49.26"/>
<rect x="473.062" y="321.078" transform="matrix(0.9976 0.0686 -0.0686 0.9976 33.603 -42.8105)" fill="#D0D350" width="334.375" height="293.75"/>
<rect x="473.062" y="300.499" transform="matrix(0.9976 0.0686 -0.0686 0.9976 32.1915 -42.859)" fill="#F7F7F7" width="334.375" height="293.751"/>
<rect x="499.851" y="329.928" transform="matrix(0.9976 0.0686 -0.0686 0.9976 25.835 -43.5745)" fill="#E5E5E5" width="295.293" height="49.047"/>
<rect x="497.289" y="396.913" transform="matrix(0.9976 0.0686 -0.0686 0.9976 30.3798 -41.917)" fill="#E5E5E5" width="256.604" height="49.046"/>
<rect x="492.812" y="465.292" transform="matrix(0.9976 0.0686 -0.0686 0.9976 35.0104 -40.0565)" fill="#E5E5E5" width="216.041" height="49.047"/>
<rect x="388.113" y="646.804" transform="matrix(0.9952 -0.0981 0.0981 0.9952 -63.4821 52.2261)" fill="#E5E5E5" width="222.09" height="49.26"/>
<rect x="394.73" y="719.002" transform="matrix(0.9952 -0.0981 0.0981 0.9952 -70.7009 49.8552)" fill="#E5E5E5" width="153.437" height="49.26"/>
</svg>
