<?xml version="1.0" encoding="utf-8"?>
<!-- Generator: flash2svg, http://dissentgraphics.com/tools/flash2svg -->
<svg xmlns:xlink="http://www.w3.org/1999/xlink" id="Sunrise" image-rendering="optimizeSpeed" baseProfile="basic" version="1.1" style="background-color:#ffffff" x="0px" y="0px" width="1024px" height="1024px" viewBox="0 0 1024 1024" enable-background="new 0 0 1024 1024" xmlns="http://www.w3.org/2000/svg">
  <defs transform="matrix(1 0 0 1 0 0) "/>
  <g id="shadow">
    <g id="shape">
      <path id="path" fill="#000000" fill-opacity="0.09803921568627451" d="M969.65,351.3 Q961.05,330.45 950.25,310.45 C946.2,302.9 941.9,295.4 937.35,288.05 917.8,256.35 893.95,226.4 865.8,198.25 773.65,106.1 662.35,60 532,60 401.65,60 290.4,106.1 198.25,198.25 106.1,290.4 60,401.65 60,532 60,662.35 106.1,773.65 198.25,865.8 290.4,957.95 401.65,1004 532,1004 662.35,1004 773.65,957.95 865.8,865.8 916.55,815 953.35,758.4 976.15,696.05 994.7,645.2 1004,590.55 1004,532 1004,487.1 998.55,444.45 987.6,404.05 986.35,399.5 985.05,394.95 983.7,390.45 979.6,377.15 974.9,364.1 969.65,351.3z"/>
    </g>
  </g>
  <g id="criclebg">
    <g id="shape2">
      <path id="path1" fill="#FFFFFF" fill-opacity="1" d="M855.7,188.4 C852.7,185.25 849.3,181.75 845.85,178.3 773.4,105.85 689.1,61.85 593.05,46.4 592.75,46.35 592.45,46.3 592.2,46.25 575.95,43.65 559.4,41.85 542.15,40.9 532.45,40.35 522.3,40.05 512.05,40.05 502.7,40.05 493.45,40.3 484.15,40.8 365.8,46.9 263.85,92.75 178.3,178.3 121.8,234.8 82.65,298.45 60.85,369 Q40.05,436.2 40.05,512.05 C40.05,642.4 86.15,753.7 178.3,845.85 181.7,849.25 185.15,852.6 188.4,855.7 233.95,898.85 283.7,931 337.4,952.15 343.85,954.75 350,957 356.2,959.1 396.7,972.95 439.25,981 484.15,983.35 484.3,983.35 484.4,983.35 484.55,983.35 493.05,983.8 501.15,984.05 509.05,984.05 510.25,984.05 511.15,984.05 512.05,984.05 522.35,984.05 532.55,983.75 542.15,983.25 544.65,983.1 546.9,982.95 549.1,982.8 569.3,981.35 589,978.75 607.8,975.1 615.75,973.55 623.6,971.8 631.2,969.95 695.9,953.7 754.55,924 807.35,880.8 820.6,869.9 833.4,858.3 845.85,845.85 894.45,797.25 930.25,743.35 953.2,684.05 957.15,673.8 960.75,663.4 963.95,652.9 975.65,614.25 982.25,573.5 983.75,530.55 983.95,524.5 984.05,518.3 984.05,512.05 984.05,511.4 984.05,510.7 984.05,510.05 984.05,509.7 984.05,509.4 984.05,509.05 983.85,468.4 979.1,429.55 969.75,392.05 968.65,387.7 967.4,383.05 966.1,378.45 963.85,370.6 961.35,362.65 958.55,354.65 958.25,353.9 957.95,353 957.65,352.1 951.2,333.85 943.5,316.05 934.5,298.45 930.7,291.05 926.55,283.5 922.2,276.05 904.2,245.45 882.1,216.3 855.7,188.4z"/>
    </g>
  </g>
  <g id="criclebg1">
    <g id="shape4">
      <path id="path2" fill="#FFFFFF" fill-opacity="1" d="M855.7,188.4 C852.7,185.25 849.3,181.75 845.85,178.3 773.4,105.85 689.1,61.85 593.05,46.4 592.75,46.35 592.45,46.3 592.2,46.25 575.95,43.65 559.4,41.85 542.15,40.9 532.45,40.35 522.3,40.05 512.05,40.05 502.7,40.05 493.45,40.3 484.15,40.8 365.8,46.9 263.85,92.75 178.3,178.3 121.8,234.8 82.65,298.45 60.85,369 Q40.05,436.2 40.05,512.05 C40.05,642.4 86.15,753.7 178.3,845.85 181.7,849.25 185.15,852.6 188.4,855.7 233.95,898.85 283.7,931 337.4,952.15 343.85,954.75 350,957 356.2,959.1 396.7,972.95 439.25,981 484.15,983.35 484.3,983.35 484.4,983.35 484.55,983.35 493.05,983.8 501.15,984.05 509.05,984.05 510.25,984.05 511.15,984.05 512.05,984.05 522.35,984.05 532.55,983.75 542.15,983.25 544.65,983.1 546.9,982.95 549.1,982.8 569.3,981.35 589,978.75 607.8,975.1 615.75,973.55 623.6,971.8 631.2,969.95 695.9,953.7 754.55,924 807.35,880.8 820.6,869.9 833.4,858.3 845.85,845.85 894.45,797.25 930.25,743.35 953.2,684.05 957.15,673.8 960.75,663.4 963.95,652.9 975.65,614.25 982.25,573.5 983.75,530.55 983.95,524.5 984.05,518.3 984.05,512.05 984.05,511.4 984.05,510.7 984.05,510.05 984.05,509.7 984.05,509.4 984.05,509.05 983.85,468.4 979.1,429.55 969.75,392.05 968.65,387.7 967.4,383.05 966.1,378.45 963.85,370.6 961.35,362.65 958.55,354.65 958.25,353.9 957.95,353 957.65,352.1 951.2,333.85 943.5,316.05 934.5,298.45 930.7,291.05 926.55,283.5 922.2,276.05 904.2,245.45 882.1,216.3 855.7,188.4z M785.65,258.45 C852,329.4 885.1,413.9 885.1,512.1 885.1,615.1 848.65,703 775.8,775.8 703,848.65 615.1,885.1 512.05,885.1 413.85,885.1 329.35,852 258.45,785.7 255.1,782.55 251.65,779.2 248.25,775.8 175.4,703 139,615.1 139,512.1 139,409.05 175.4,321.15 248.25,248.3 321.1,175.45 409,139.05 512.05,139.05 615.1,139.05 703,175.45 775.8,248.3 779.2,251.7 782.55,255.15 785.65,258.45z"/>
    </g>
  </g>
  <g id="Symbole.__2033">
    <g id="shape9">
      <path id="path6" fill="#ED5053" fill-opacity="1" d="M785.65,258.45 C782.55,255.15 779.2,251.7 775.8,248.3 765.75,238.25 755.45,228.9 744.6,220.05 611.55,433.8 409.75,528.5 139.1,504.05 139.05,506.7 139,509.4 139,512.1 139,615.1 175.4,703 248.25,775.8 251.65,779.2 255.1,782.55 258.45,785.7 329.35,852 413.85,885.1 512.05,885.1 615.1,885.1 703,848.65 775.8,775.8 Q885.1,666.6 885.1,512.1 C885.1,413.9 852,329.4 785.65,258.45z"/>
      <path id="path7" fill="#F66C69" fill-opacity="1" d="M512.05,139.05 C409,139.05 321.1,175.45 248.25,248.3 177.3,319.25 140.95,404.5 139.1,504.05 409.75,528.5 611.55,433.8 744.6,220.05 678.5,166.15 600.9,139.05 512.05,139.05z"/>
    </g>
  </g>
  <g id="V">
    <g id="shape13">
      <path id="path8" fill="#FFFFFF" fill-opacity="1" d="M921.55,506.8 C915.65,500.9 908.55,497.95 900.25,497.95 L139.1,497.95 C130.8,497.95 123.7,500.9 117.85,506.8 111.95,512.65 109,519.75 109,528.05 109,536.35 111.95,543.45 117.85,549.35 123.7,555.2 130.8,558.15 139.1,558.15 L900.25,558.15 C908.55,558.15 915.65,555.2 921.55,549.35 927.4,543.45 930.35,536.35 930.35,528.05 Q930.346,515.586 921.525,506.775 M910.7,625.35 C910.7,617.05 907.75,609.95 901.9,604.1 896,598.2 888.9,595.25 880.6,595.25 L119.45,595.25 C111.15,595.25 104.05,598.2 98.2,604.1 92.3,609.95 89.35,617.05 89.35,625.35 89.35,633.65 92.3,640.75 98.2,646.65 104.05,652.5 111.15,655.45 119.45,655.45 L880.6,655.45 C888.9,655.45 896,652.5 901.9,646.65 907.75,640.75 910.7,633.65 910.7,625.35z M902.6,752.75 C910.9,752.75 918,749.8 923.9,743.95 929.75,738.05 932.7,730.95 932.7,722.65 932.7,714.35 929.75,707.25 923.9,701.4 918,695.5 910.9,692.55 902.6,692.55 L141.45,692.55 C133.15,692.55 126.05,695.5 120.2,701.4 114.3,707.25 111.35,714.35 111.35,722.65 111.35,730.95 114.3,738.05 120.2,743.95 126.05,749.8 133.15,752.75 141.45,752.75 L902.6,752.75z M186,819.95 C186,828.25 188.95,835.35 194.85,841.25 200.7,847.1 207.8,850.05 216.1,850.05 L810.25,850.05 C818.55,850.05 825.65,847.1 831.55,841.25 837.4,835.35 840.35,828.25 840.35,819.95 840.35,811.65 837.4,804.55 831.55,798.7 825.65,792.8 818.55,789.85 810.25,789.85 L216.1,789.85 C207.8,789.85 200.7,792.8 194.85,798.7 188.95,804.55 186,811.65 186,819.95z"/>
    </g>
  </g>
</svg>