<?xml version="1.0" encoding="utf-8"?>
<!-- Generator: flash2svg, http://dissentgraphics.com/tools/flash2svg -->
<svg xmlns:xlink="http://www.w3.org/1999/xlink" id="Telegram" image-rendering="optimizeSpeed" baseProfile="basic" version="1.1" style="background-color:#ffffff" x="0px" y="0px" width="1024px" height="1024px" viewBox="0 0 1024 1024" enable-background="new 0 0 1024 1024" xmlns="http://www.w3.org/2000/svg">
  <defs transform="matrix(1 0 0 1 0 0) ">
    <linearGradient gradientUnits="userSpaceOnUse" color-interpolation="sRGB" x1="572.439" y1="662.647" x2="674.453" y2="499.526" id="linearGradient3">
      <stop stop-color="#EEF7FD" stop-opacity="1" offset="0"/>
      <stop stop-color="#FFFFFF" stop-opacity="1" offset="1"/>
    </linearGradient>
  </defs>
  <g id="shadow">
    <g id="shape">
      <path id="path" fill="#000000" fill-opacity="0.09803921568627451" d="M969.65,351.3 Q961.05,330.45 950.25,310.45 C946.2,302.9 941.9,295.4 937.35,288.05 917.8,256.35 893.95,226.4 865.8,198.25 773.65,106.1 662.35,60 532,60 401.65,60 290.4,106.1 198.25,198.25 106.1,290.4 60,401.65 60,532 60,662.35 106.1,773.65 198.25,865.8 290.4,957.95 401.65,1004 532,1004 662.35,1004 773.65,957.95 865.8,865.8 916.55,815 953.35,758.4 976.15,696.05 994.7,645.2 1004,590.55 1004,532 1004,487.1 998.55,444.45 987.6,404.05 986.35,399.5 985.05,394.95 983.7,390.45 979.6,377.15 974.9,364.1 969.65,351.3z"/>
    </g>
  </g>
  <g id="circle">
    <g id="shape2">
      <path id="path1" fill="#73AAD1" fill-opacity="1" d="M969.75,392.05 C968.65,387.7 967.4,383.05 966.1,378.45 963.85,370.6 961.35,362.65 958.55,354.65 958.25,353.9 957.95,353 957.65,352.1 951.2,333.85 943.5,316.05 934.5,298.45 930.7,291.05 926.55,283.5 922.2,276.05 901.9,241.55 876.4,208.85 845.85,178.3 773.4,105.85 689.1,61.85 593.05,46.4 592.75,46.35 592.45,46.3 592.2,46.25 575.95,43.65 559.4,41.85 542.15,40.9 532.45,40.35 522.3,40.05 512.05,40.05 502.7,40.05 493.45,40.3 484.15,40.8 365.8,46.9 263.85,92.75 178.3,178.3 121.8,234.8 82.65,298.45 60.85,369 Q40.05,436.2 40.05,512.05 C40.05,642.4 86.15,753.7 178.3,845.85 206.7,874.25 236.95,898.3 268.1,917.4 271.45,919.4 274.35,921.15 277.25,922.85 297,934.4 316.9,944.1 337.4,952.15 343.85,954.75 350,957 356.2,959.1 372.4,964.65 388.95,969.25 405.2,972.85 431.15,978.45 457.25,981.95 484.15,983.35 484.3,983.35 484.4,983.35 484.55,983.35 493.05,983.8 501.15,984.05 509.05,984.05 510.25,984.05 511.15,984.05 512.05,984.05 522.35,984.05 532.55,983.75 542.15,983.25 544.65,983.1 546.9,982.95 549.1,982.8 569.3,981.35 589,978.75 607.8,975.1 615.75,973.55 623.6,971.8 631.2,969.95 648.55,965.6 665.5,960.25 682,954 694.4,949.25 706.55,943.95 718.45,938.15 731.25,931.85 743.8,924.95 756.05,917.45 759.1,915.55 762.1,913.65 765.1,911.7 779.75,902.2 793.75,891.95 807.35,880.8 820.6,869.9 833.4,858.3 845.85,845.85 857.7,834 868.8,821.8 879.15,809.35 911.15,770.6 935.85,728.85 953.2,684.05 957.15,673.8 960.75,663.4 963.95,652.9 966.15,645.6 968.2,638.2 970.1,630.6 977.95,598.75 982.55,565.35 983.75,530.55 983.95,524.5 984.05,518.3 984.05,512.05 984.05,511.4 984.05,510.7 984.05,510.05 984.05,509.7 984.05,509.4 984.05,509.05 983.85,468.4 979.1,429.55 969.75,392.05z"/>
    </g>
  </g>
  <g id="circle1">
    <g id="shape4">
      <path id="path2" fill="#000000" fill-opacity="0.2" d="M953.2,684.05 C957.15,673.8 960.75,663.4 963.95,652.9 966.15,645.6 968.2,638.2 970.1,630.6 977.95,598.75 982.55,565.35 983.75,530.55 Q984.05,521.35 984.05,512.05 C984.05,511.4 984.05,510.7 984.05,510.05 984.05,509.7 984.05,509.4 984.05,509.05 L772.05,297.05 244.05,500.05 426.75,682.75 433.05,705.05 682,954 C694.4,949.25 706.55,943.95 718.45,938.15 731.25,931.85 743.8,924.95 756.05,917.45 759.1,915.55 762.1,913.65 765.1,911.7 779.75,902.2 793.75,891.95 807.35,880.8 820.6,869.9 833.4,858.3 845.85,845.85 857.7,834 868.8,821.8 879.15,809.35 911.15,770.6 935.85,728.85 953.2,684.05z"/>
    </g>
  </g>
  <mask id="head">
    <g id="g">
      <g id="shape12">
        <path id="path8" fill="#FFFFFF" fill-opacity="1" d="M958.55,354.65 C958.25,353.9 957.95,353 957.65,352.1 951.2,333.85 943.5,316.05 934.5,298.45 930.7,291.05 926.55,283.5 922.2,276.05 901.9,241.55 876.4,208.85 845.85,178.3 773.4,105.85 689.1,61.85 593.05,46.4 592.75,46.35 592.45,46.3 592.2,46.25 575.95,43.65 559.4,41.85 542.15,40.9 532.45,40.35 522.3,40.05 512.05,40.05 502.7,40.05 493.45,40.3 484.15,40.8 365.8,46.9 263.85,92.75 178.3,178.3 121.8,234.8 82.65,298.45 60.85,369 Q40.05,436.2 40.05,512.05 C40.05,642.4 86.15,753.7 178.3,845.85 206.7,874.25 236.95,898.3 268.1,917.4 271.45,919.4 274.35,921.15 277.25,922.85 297,934.4 316.9,944.1 337.4,952.15 343.85,954.75 350,957 356.2,959.1 372.4,964.65 388.95,969.25 405.2,972.85 431.15,978.45 457.25,981.95 484.15,983.35 484.3,983.35 484.4,983.35 484.55,983.35 493.05,983.8 501.15,984.05 509.05,984.05 510.25,984.05 511.15,984.05 512.05,984.05 522.35,984.05 532.55,983.75 542.15,983.25 544.65,983.1 546.9,982.95 549.1,982.8 569.3,981.35 589,978.75 607.8,975.1 615.75,973.55 623.6,971.8 631.2,969.95 661.65,962.3 690.75,951.65 718.45,938.15 731.25,931.85 743.8,924.95 756.05,917.45 759.1,915.55 762.1,913.65 765.1,911.7 779.75,902.2 793.75,891.95 807.35,880.8 820.6,869.9 833.4,858.3 845.85,845.85 857.7,834 868.8,821.8 879.15,809.35 911.15,770.6 935.85,728.85 953.2,684.05 957.15,673.8 960.75,663.4 963.95,652.9 966.15,645.6 968.2,638.2 970.1,630.6 977.95,598.75 982.55,565.35 983.75,530.55 983.95,524.5 984.05,518.3 984.05,512.05 984.05,511.4 984.05,510.7 984.05,510.05 984.05,509.7 984.05,509.4 984.05,509.05 983.85,468.4 979.1,429.55 969.75,392.05 968.65,387.7 967.4,383.05 966.1,378.45 963.85,370.6 961.35,362.65 958.55,354.65z"/>
      </g>
    </g>
  </mask>
  <g id="masked" mask="url(#head)">
    <g id="bubles">
      <g id="shape6">
        <path id="path3" fill="#FFFFFF" fill-opacity="0.2980392156862745" d="M160.65,378.2 C146.95,378.2 135.3,383 125.7,392.65 116.1,402.3 111.3,413.95 111.3,427.55 L111.45,431.7 C103.95,435.15 97.95,440.4 93.45,447.45 88.85,454.5 86.55,462.25 86.55,470.75 86.55,482.6 90.8,492.8 99.2,501.3 107.7,509.7 117.9,513.95 129.75,513.95 L234.6,513.95 C244.85,513.95 253.6,510.3 260.85,503 268.05,495.85 271.6,487.1 271.6,476.9 271.6,468.2 268.9,460.5 263.55,453.8 258.15,447.1 251.3,442.8 243,440.9 245.7,436.85 247,432.4 247,427.55 247,420.75 244.6,414.95 239.8,410.1 Q232.5,402.85 222.3,402.85 C216.1,402.85 210.75,404.8 206.25,408.8 202.5,399.7 196.5,392.3 188.25,386.65 179.95,381 170.75,378.2 160.65,378.2z M428.45,83.5 C428.45,73.75 425,65.4 418.1,58.5 411.15,51.5 402.75,48.05 393,48.05 384.15,48.05 376.45,50.9 370,56.6 364.65,43.55 356.05,32.95 344.15,24.8 332.3,16.75 319.1,12.75 304.6,12.75 285,12.75 268.3,19.6 254.5,33.4 240.75,47.3 233.85,64 233.85,83.5 L234.05,89.45 C223.35,94.4 214.75,101.95 208.25,112.05 201.65,122.1 198.4,133.25 198.4,145.4 198.4,162.45 204.45,177.05 216.5,189.25 228.7,201.3 243.3,207.35 260.3,207.35 L410.65,207.35 C425.35,207.35 437.9,202.15 448.3,191.7 458.6,181.4 463.75,168.9 463.75,154.25 463.75,141.8 459.9,130.75 452.15,121.1 444.4,111.5 434.6,105.35 422.75,102.6 426.55,96.8 428.45,90.4 428.45,83.5z M887.2,530.9 C871.6,520.3 854.2,515.05 835.1,515.05 809.3,515.05 787.3,524.05 769.15,542.25 751.05,560.55 741.95,582.55 741.95,608.2 L742.2,616.05 C728.1,622.55 716.8,632.5 708.2,645.8 699.55,659.05 695.25,673.75 695.25,689.75 695.25,712.2 703.2,731.45 719.1,747.5 735.15,763.35 754.4,771.35 776.8,771.35 L974.8,771.35 C994.15,771.35 1010.7,764.5 1024.4,750.7 1037.95,737.15 1044.75,720.7 1044.75,701.4 1044.75,685 1039.65,670.45 1029.45,657.75 1019.25,645.1 1006.35,637 990.75,633.35 995.75,625.75 998.25,617.3 998.25,608.2 998.25,595.35 993.7,584.4 984.6,575.3 975.45,566.05 964.4,561.55 951.55,561.55 939.9,561.55 929.75,565.3 921.25,572.8 914.2,555.6 902.9,541.65 887.2,530.9z"/>
      </g>
    </g>
  </g>
  <g id="svg2">
    <g id="Symbole.__2028_1" overflow="visible">
      <g id="Calque.__202">
        <g id="drawingObject3">
          <path id="path12" fill="#C5DAEB" fill-opacity="1" d="M703.425,362.164 L669.557,353.391 380.652,533.956 427.375,687.385 Q430.231,694.934 432.884,703.503 435.74,708.4 446.146,708.4 L675.269,438.879 703.425,362.164z"/>
        </g>
        <g id="drawingObject4">
          <path id="path13" fill="#A3C9DF" fill-opacity="1" d="M533.878,533.14 L456.347,582.107 446.146,704.32 446.146,708.4 Q454.307,708.4 460.427,704.728 463.896,702.687 470.629,696.158 L617.529,553.339 533.878,533.14z"/>
        </g>
        <g id="drawingObject5">
          <path id="path14" fill="url(#linearGradient3)" fill-opacity="1" d="M776.467,329.928 C784.628,297.079 763.818,282.185 742.395,291.978 L270.681,473.768 C238.445,486.621 238.649,504.78 264.764,512.737 L385.753,550.482 666.088,373.59 C679.35,365.633 691.388,369.917 681.39,378.894 L454.307,583.739 651.806,729.415 C674.249,741.861 690.571,735.536 696.08,708.604 L776.467,329.928z"/>
        </g>
      </g>
    </g>
  </g>
</svg>