<?xml version="1.0" encoding="utf-8"?>
<!-- Generator: flash2svg, http://dissentgraphics.com/tools/flash2svg -->
<svg xmlns:xlink="http://www.w3.org/1999/xlink" id="Terminal" image-rendering="optimizeSpeed" baseProfile="basic" version="1.1" style="background-color:#ffffff" x="0px" y="0px" width="1024px" height="1024px" viewBox="0 0 1024 1024" enable-background="new 0 0 1024 1024" xmlns="http://www.w3.org/2000/svg">
  <defs transform="matrix(1 0 0 1 0 0) "/>
  <g id="shadow">
    <g id="shape">
      <path id="path" fill="#000000" fill-opacity="0.09803921568627451" d="M969.65,351.3 Q961.05,330.45 950.25,310.45 C946.2,302.9 941.9,295.4 937.35,288.05 917.8,256.35 893.95,226.4 865.8,198.25 773.65,106.1 662.35,60 532,60 401.65,60 290.4,106.1 198.25,198.25 106.1,290.4 60,401.65 60,532 60,662.35 106.1,773.65 198.25,865.8 290.4,957.95 401.65,1004 532,1004 662.35,1004 773.65,957.95 865.8,865.8 916.55,815 953.35,758.4 976.15,696.05 994.7,645.2 1004,590.55 1004,532 1004,487.1 998.55,444.45 987.6,404.05 986.35,399.5 985.05,394.95 983.7,390.45 979.6,377.15 974.9,364.1 969.65,351.3z"/>
    </g>
  </g>
  <g id="bg">
    <g id="shape2">
      <path id="path1" fill="#58584E" fill-opacity="1" d="M966.1,378.45 C965.1,375.05 964.1,371.6 962.95,367.95 961.35,362.8 959.55,357.45 957.65,352.1 951.2,333.85 943.5,316.05 934.5,298.45 930.7,291.05 926.55,283.5 922.2,276.05 901.9,241.55 876.4,208.85 845.85,178.3 773.25,105.7 688.7,61.65 592.2,46.25 575.95,43.65 559.4,41.85 542.15,40.9 532.45,40.35 522.3,40.05 512.05,40.05 502.7,40.05 493.45,40.3 484.15,40.8 365.8,46.9 263.85,92.75 178.3,178.3 Q40.05,316.55 40.05,512.05 C40.05,642.4 86.15,753.7 178.3,845.85 235,902.5 298.85,941.75 369.4,963.4 406.15,974.65 444.2,981.25 484.15,983.35 484.3,983.35 484.4,983.35 484.55,983.35 493.05,983.8 501.15,984.05 509.05,984.05 510.25,984.05 511.15,984.05 512.05,984.05 522.35,984.05 532.55,983.75 542.15,983.25 544.65,983.1 546.9,982.95 549.1,982.8 569.3,981.35 589,978.75 607.8,975.1 615.75,973.55 623.6,971.8 631.2,969.95 712,949.65 783.35,908.35 845.85,845.85 894.45,797.25 930.25,743.35 953.2,684.05 971.65,636.4 981.85,585.25 983.75,530.55 983.95,524.5 984.05,518.3 984.05,512.05 984.05,511.4 984.05,510.7 984.05,510.05 984.05,509.7 984.05,509.4 984.05,509.05 983.85,468.4 979.1,429.55 969.75,392.05 968.65,387.7 967.4,383.05 966.1,378.45z"/>
    </g>
  </g>
  <mask id="bg1">
    <g id="g">
      <g id="shape16">
        <path id="path10" fill="#FFFFFF" fill-opacity="1" d="M969.75,392.05 C968.65,387.7 967.4,383.05 966.1,378.45 965.1,375.05 964.1,371.6 962.95,367.95 961.35,362.8 959.55,357.45 957.65,352.1 951.2,333.85 943.5,316.05 934.5,298.45 930.7,291.05 926.55,283.5 922.2,276.05 901.9,241.55 876.4,208.85 845.85,178.3 773.25,105.7 688.7,61.65 592.2,46.25 575.95,43.65 559.4,41.85 542.15,40.9 532.45,40.35 522.3,40.05 512.05,40.05 502.7,40.05 493.45,40.3 484.15,40.8 365.8,46.9 263.85,92.75 178.3,178.3 Q40.05,316.55 40.05,512.05 C40.05,642.4 86.15,753.7 178.3,845.85 235,902.5 298.85,941.75 369.4,963.4 406.15,974.65 444.2,981.25 484.15,983.35 484.3,983.35 484.4,983.35 484.55,983.35 493.05,983.8 501.15,984.05 509.05,984.05 510.25,984.05 511.15,984.05 512.05,984.05 522.35,984.05 532.55,983.75 542.15,983.25 544.65,983.1 546.9,982.95 549.1,982.8 569.3,981.35 589,978.75 607.8,975.1 615.75,973.55 623.6,971.8 631.2,969.95 712,949.65 783.35,908.35 845.85,845.85 894.45,797.25 930.25,743.35 953.2,684.05 971.65,636.4 981.85,585.25 983.75,530.55 983.95,524.5 984.05,518.3 984.05,512.05 984.05,511.4 984.05,510.7 984.05,510.05 984.05,509.7 984.05,509.4 984.05,509.05 983.85,468.4 979.1,429.55 969.75,392.05z"/>
      </g>
    </g>
  </mask>
  <g id="masked" mask="url(#bg1)">
    <g id="Calque.__203">
      <g id="shape4">
        <path id="path2" fill="#DFDCC6" fill-opacity="1" d="M1094.65,178.35 C1088.95,172.6 1082.05,169.75 1074,169.75 L619.9,169.75 264.3,169.75 C257.4,169.75 251.35,171.85 246.2,176.05 245.35,176.75 244.5,177.5 243.65,178.35 237.9,184.05 235.05,190.95 235.05,199 L235.05,254.1 1103.25,254.1 1103.25,250.1 1103.25,199 Q1103.25,186.9 1094.65,178.35z"/>
        <path id="path3" fill="#0F0F0D" fill-opacity="1" d="M1103.25,258.15 L1103.25,254.1 235.05,254.1 235.05,996.1 C235.05,1004.15 237.9,1011.05 243.65,1016.75 249.35,1022.5 256.25,1025.35 264.3,1025.35 L334.1,1025.35 339.35,1025.35 678.95,1025.35 1074,1025.35 C1080.2,1025.35 1085.7,1023.65 1090.45,1020.3 1091.9,1019.25 1093.3,1018.1 1094.65,1016.75 1100.4,1011.05 1103.25,1004.15 1103.25,996.1 L1103.25,653.1 1103.25,308.15 1103.25,258.15z"/>
      </g>
    </g>
    <g id="Calque.__204">
      <g id="shape8">
        <path id="path4" fill="#58564E" fill-opacity="1" d="M358.4,197.2 Q352.25,191.05 343.55,191.05 C337.75,191.05 332.8,193.1 328.7,197.2 324.6,201.3 322.55,206.25 322.55,212.05 322.55,217.85 324.6,222.8 328.7,226.9 332.8,231 337.75,233.05 343.55,233.05 349.35,233.05 354.3,231 358.4,226.9 362.5,222.8 364.55,217.85 364.55,212.05 364.55,206.25 362.5,201.3 358.4,197.2z M404.05,191.05 C398.25,191.05 393.3,193.1 389.2,197.2 385.1,201.3 383.05,206.25 383.05,212.05 383.05,217.85 385.1,222.8 389.2,226.9 393.3,231 398.25,233.05 404.05,233.05 409.85,233.05 414.8,231 418.9,226.9 423,222.8 425.05,217.85 425.05,212.05 425.05,206.25 423,201.3 418.9,197.2 414.8,193.1 409.85,191.05 404.05,191.05z M283.05,191.05 C277.25,191.05 272.3,193.1 268.2,197.2 264.1,201.3 262.05,206.25 262.05,212.05 262.05,217.85 264.1,222.8 268.2,226.9 272.3,231 277.25,233.05 283.05,233.05 288.85,233.05 293.8,231 297.9,226.9 302,222.8 304.05,217.85 304.05,212.05 304.05,206.25 302,201.3 297.9,197.2 293.8,193.1 288.85,191.05 283.05,191.05z"/>
      </g>
    </g>
    <g id="Calque.__205">
      <g id="shape14">
        <path id="path9" fill="#FFFFFF" fill-opacity="0.0784313725490196" d="M1094.65,178.35 C1088.95,172.6 1082.05,169.75 1074,169.75 L619.9,169.75 1103.25,653.1 1103.25,308.15 1103.25,258.15 1103.25,250.1 1103.25,199 Q1103.25,186.9 1094.65,178.35z"/>
      </g>
    </g>
  </g>
  <g id="Calque.__206">
    <g id="shape18">
      <path id="path11" fill="#FFFFFF" fill-opacity="1" d="M348.6,350.3 Q343.4,345.1 336.05,345.1 C331.15,345.1 326.95,346.85 323.45,350.35 320,353.8 318.25,358 318.25,362.9 318.25,367.8 320,372 323.45,375.45 L377.9,429.9 323.5,484.3 C320,487.8 318.25,492 318.2,496.9 318.25,501.8 320,506 323.45,509.45 326.95,512.9 331.15,514.65 336,514.7 340.95,514.7 345.15,512.95 348.65,509.45 L409.15,448.9 C421.85,436.25 421.85,423.55 409.15,410.85 L348.6,350.3z M585.75,484.4 C582.25,480.9 578,479.15 573.05,479.15 L573.05,479.125 L456.25,479.125 L456.25,479.15 C451.3,479.15 447.1,480.9 443.6,484.4 440.1,487.9 438.35,492.1 438.35,497.05 438.35,502 440.1,506.25 443.6,509.75 447.1,513.25 451.3,515 456.25,515 L456.25,514.975 L573.05,514.975 L573.05,515 C578,515 582.25,513.25 585.75,509.75 589.25,506.25 591,502 591,497.05 591,492.1 589.25,487.9 585.75,484.4z"/>
    </g>
  </g>
  <g id="Calque.__207">
    <g id="shape22">
      <path id="path14" fill="#0F0F0D" fill-opacity="1" d="M354.1,282.1 Q354.1,288.7 358.75,293.35 C361.9,296.5 365.65,298.05 370.05,298.05 374.45,298.05 378.2,296.5 381.3,293.35 384.45,290.25 386,286.5 386,282.1 386,277.7 384.45,273.95 381.3,270.8 378.2,267.7 374.45,266.15 370.05,266.15 365.65,266.15 361.9,267.7 358.75,270.8 355.65,273.95 354.1,277.7 354.1,282.1z"/>
    </g>
  </g>
</svg>