<?xml version="1.0" encoding="utf-8"?>
<!-- Generator: flash2svg, http://dissentgraphics.com/tools/flash2svg -->
<svg xmlns:xlink="http://www.w3.org/1999/xlink" id="TextEdit" image-rendering="optimizeSpeed" baseProfile="basic" version="1.1" style="background-color:#ffffff" x="0px" y="0px" width="1024px" height="1024px" viewBox="0 0 1024 1024" enable-background="new 0 0 1024 1024" xmlns="http://www.w3.org/2000/svg">
  <defs transform="matrix(1 0 0 1 0 0) "/>
  <g id="shadow">
    <g id="shape">
      <path id="path" fill="#000000" fill-opacity="0.09803921568627451" d="M969.65,351.3 Q961.05,330.45 950.25,310.45 C946.2,302.9 941.9,295.4 937.35,288.05 917.8,256.35 893.95,226.4 865.8,198.25 773.65,106.1 662.35,60 532,60 401.65,60 290.4,106.1 198.25,198.25 106.1,290.4 60,401.65 60,532 60,662.35 106.1,773.65 198.25,865.8 290.4,957.95 401.65,1004 532,1004 662.35,1004 773.65,957.95 865.8,865.8 916.55,815 953.35,758.4 976.15,696.05 994.7,645.2 1004,590.55 1004,532 1004,487.1 998.55,444.45 987.6,404.05 986.35,399.5 985.05,394.95 983.7,390.45 979.6,377.15 974.9,364.1 969.65,351.3z"/>
    </g>
  </g>
  <g id="bg">
    <g id="shape2">
      <path id="path1" fill="#363F6A" fill-opacity="1" d="M969.75,392.05 C968.65,387.7 967.4,383.05 966.1,378.45 965.1,375.05 964.1,371.6 962.95,367.95 961.35,362.8 959.55,357.45 957.65,352.1 951.2,333.85 943.5,316.05 934.5,298.45 930.7,291.05 926.55,283.5 922.2,276.05 901.9,241.55 876.4,208.85 845.85,178.3 773.25,105.7 688.7,61.65 592.2,46.25 575.95,43.65 559.4,41.85 542.15,40.9 532.45,40.35 522.3,40.05 512.05,40.05 502.7,40.05 493.45,40.3 484.15,40.8 365.8,46.9 263.85,92.75 178.3,178.3 Q40.05,316.55 40.05,512.05 C40.05,642.4 86.15,753.7 178.3,845.85 235,902.5 298.85,941.75 369.4,963.4 406.15,974.65 444.2,981.25 484.15,983.35 484.3,983.35 484.4,983.35 484.55,983.35 493.05,983.8 501.15,984.05 509.05,984.05 510.25,984.05 511.15,984.05 512.05,984.05 522.35,984.05 532.55,983.75 542.15,983.25 544.65,983.1 546.9,982.95 549.1,982.8 569.3,981.35 589,978.75 607.8,975.1 615.75,973.55 623.6,971.8 631.2,969.95 712,949.65 783.35,908.35 845.85,845.85 894.45,797.25 930.25,743.35 953.2,684.05 971.65,636.4 981.85,585.25 983.75,530.55 983.95,524.5 984.05,518.3 984.05,512.05 984.05,511.4 984.05,510.7 984.05,510.05 984.05,509.7 984.05,509.4 984.05,509.05 983.85,468.4 979.1,429.55 969.75,392.05z"/>
    </g>
  </g>
  <g id="bg1">
    <g id="shape4">
      <path id="path2" fill="#000000" fill-opacity="0.2" d="M984.05,510.05 C984.05,509.7 984.05,509.4 984.05,509.05 983.9,476.2 980.75,444.5 974.6,413.6 L769.05,208.05 245.3,861.85 334.425,950.975 L334.45,951 C346.3,955.8 357.75,959.85 369.4,963.4 406.15,974.65 444.2,981.25 484.15,983.35 484.3,983.35 484.4,983.35 484.55,983.35 493.05,983.8 501.15,984.05 509.05,984.05 Q510.55,984.05 512.05,984.05 C522.35,984.05 532.55,983.75 542.15,983.25 544.65,983.1 546.9,982.95 549.1,982.8 569.3,981.35 589,978.75 607.8,975.1 615.75,973.55 623.6,971.8 631.2,969.95 712,949.65 783.35,908.35 845.85,845.85 894.45,797.25 930.25,743.35 953.2,684.05 971.65,636.4 981.85,585.25 983.75,530.55 983.95,524.5 984.05,518.3 984.05,512.05 984.05,511.4 984.05,510.7 984.05,510.05z"/>
    </g>
  </g>
  <g id="bg2">
    <g id="shape6">
      <path id="path3" fill="#30343D" fill-opacity="1" d="M789.05,244.05 Q789.05,204.05 749.05,204.05 L275.05,204.05 C261.8,204.05 251.85,207.45 245.3,214.3 238.45,220.85 235.05,230.8 235.05,244.05 L235.05,832.05 C235.05,845.3 238.45,855.25 245.3,861.85 251.85,868.65 261.8,872.05 275.05,872.05 L749.05,872.05 C762.3,872.05 772.25,868.65 778.85,861.85 785.65,855.25 789.05,845.3 789.05,832.05 L789.05,244.05z"/>
    </g>
  </g>
  <g id="Calque.__207">
    <g id="shape8">
      <path id="path4" fill="#FFFFFF" fill-opacity="1" d="M769.05,208.05 Q769.05,188.05 749.05,188.05 L275.05,188.05 C261.7,188.05 255.05,194.7 255.05,208.05 L255.05,816.05 C255.05,829.4 261.7,836.05 275.05,836.05 L749.05,836.05 C762.4,836.05 769.05,829.4 769.05,816.05 L769.05,208.05z"/>
    </g>
  </g>
  <g id="Calque.__208">
    <g id="shape10">
      <path id="path5" fill="#999999" fill-opacity="1" d="M728,288.6 L728,264.6 296.1,264.6 296.1,288.6 728,288.6z M728,383.85 L728,359.85 296.1,359.85 296.1,383.85 728,383.85z M728,479.1 L728,455.1 296.1,455.1 296.1,479.1 728,479.1z M728,574.35 L728,550.35 296.1,550.35 296.1,574.35 728,574.35z M728,669.6 L728,645.6 296.1,645.6 296.1,669.6 728,669.6z M728,764.85 L728,740.85 296.1,740.85 296.1,764.85 728,764.85z"/>
    </g>
  </g>
  <g id="Calque.__209">
    <g id="shape22">
      <path id="path16" fill="#000000" fill-opacity="0.2" d="M749.05,836.05 Q769.05,836.05 769.05,816.05 L769.05,472.575 604.05,740.85 699.25,836.05 749.05,836.05z"/>
    </g>
  </g>
  <g id="pen">
    <g id="Symbole.__208_1" overflow="visible">
      <g id="Calque.__211">
        <g id="shape33">
          <path id="path24" fill="#666666" fill-opacity="1" d="M680.25,712.9 Q680.85,712.65 681.45,712.35 C682.35,711.85 683.15,711.15 683.95,710.2 L651.125,695.95 616.1,680.775 582.05,666 C582.05,666.2 582.1,666.35 582.15,666.45 582.3,667.8 582.8,669 583.6,670.05 L599.65,721.9 C604.65,722.3 609.85,723.75 615.2,726.25 620.7,728.7 625.3,731.8 629,735.45 L680.25,712.9z"/>
          <path id="path25" fill="#333333" fill-opacity="1" d="M599.65,721.9 L606.9,745.2 629,735.45 C625.3,731.8 620.7,728.7 615.2,726.25 609.85,723.75 604.65,722.3 599.65,721.9z M847,353.75 L862.3,320.05 C865.15,313.85 863.8,309.4 858.2,306.85 L772.3,267.65 C766.7,265.15 762.5,267 759.65,273.2 L744.35,306.95 779.25,322.85 813.95,338.65 847,353.75z"/>
          <path id="path26" fill="#97A8E9" fill-opacity="1" d="M813.95,338.65 L779.25,322.85 616.1,680.775 651.125,695.95 813.95,338.65z"/>
          <path id="path27" fill="#A4B7FC" fill-opacity="1" d="M779.25,322.85 L744.35,306.95 583.45,659.7 C582.6,661.7 582.1,663.5 582.05,665.1 582.1,665.35 582.05,665.7 582.05,666 L616.1,680.775 779.25,322.85z"/>
          <path id="path28" fill="#6C74AC" fill-opacity="1" d="M847,353.75 L813.95,338.65 651.125,695.95 683.95,710.2 C684.7,709.3 685.45,708.05 686.1,706.55 L847,353.75z"/>
        </g>
      </g>
    </g>
  </g>
</svg>