<?xml version="1.0" encoding="utf-8"?>
<!-- Generator: flash2svg, http://dissentgraphics.com/tools/flash2svg -->
<svg xmlns:xlink="http://www.w3.org/1999/xlink" id="TextWrangler" image-rendering="optimizeSpeed" baseProfile="basic" version="1.1" style="background-color:#ffffff" x="0px" y="0px" width="1024px" height="1024px" viewBox="0 0 1024 1024" enable-background="new 0 0 1024 1024" xmlns="http://www.w3.org/2000/svg">
  <defs transform="matrix(1 0 0 1 0 0) "/>
  <g id="shadow">
    <g id="shape">
      <path id="path" fill="#000000" fill-opacity="0.09803921568627451" d="M969.65,351.3 Q961.05,330.45 950.25,310.45 C946.2,302.9 941.9,295.4 937.35,288.05 917.8,256.35 893.95,226.4 865.8,198.25 773.65,106.1 662.35,60 532,60 401.65,60 290.4,106.1 198.25,198.25 106.1,290.4 60,401.65 60,532 60,662.35 106.1,773.65 198.25,865.8 290.4,957.95 401.65,1004 532,1004 662.35,1004 773.65,957.95 865.8,865.8 916.55,815 953.35,758.4 976.15,696.05 994.7,645.2 1004,590.55 1004,532 1004,487.1 998.55,444.45 987.6,404.05 986.35,399.5 985.05,394.95 983.7,390.45 979.6,377.15 974.9,364.1 969.65,351.3z"/>
    </g>
  </g>
  <g id="bg">
    <g id="shape2">
      <path id="path1" fill="#67CEE8" fill-opacity="1" d="M969.75,394 C968.65,389.65 967.4,385 966.1,380.4 963.6,371.65 960.75,362.8 957.65,354.05 951.2,335.8 943.5,318 934.5,300.4 930.7,293 926.55,285.45 922.2,278 901.9,243.5 876.4,210.8 845.85,180.25 806.9,141.3 764.5,110.55 718.35,87.9 679.05,68.6 636.9,55.35 592.2,48.2 575.95,45.6 559.4,43.8 542.15,42.85 535.1,42.45 527.8,42.2 520.15,42.1 L520.15,42.075 L520.15,512.15 984.05,512.15 C984.05,512.1 984.05,512.05 984.05,512 984.05,511.65 984.05,511.35 984.05,511 984.05,507.9 984,504.8 983.95,501.65 983.1,464.45 978.4,428.65 969.75,394z M516.15,516.15 L40.05,516.15 C40.55,645.65 86.7,756.2 178.3,847.8 263.55,933.05 365.15,978.85 483,985.2 483.35,985.25 483.75,985.25 484.15,985.3 484.3,985.3 484.4,985.3 484.55,985.3 493.05,985.75 501.15,986 509.05,986 510.25,986 511.15,986 512.05,986 513.5,986 514.95,986 516.15,986 L516.15,985.975 L516.15,516.15z"/>
      <path id="path2" fill="#54A8BD" fill-opacity="1" d="M984.05,514 C984.05,513.4 984.05,512.8 984.05,512.15 L520.15,512.15 520.15,42.075 L520.15,42.1 C518.95,42.05 517.55,42.05 516.15,42.05 514.85,42 513.45,42 512.05,42 502.7,42 493.45,42.25 484.15,42.75 477.45,43.1 470.8,43.55 464.1,44.2 407.25,49.4 354.3,64 305.15,88.2 259.55,110.6 217.25,141.3 178.3,180.25 89.05,269.5 43,376.75 40.2,501.75 Q40.05,507.85 40.05,514 C40.05,514.75 40.05,515.5 40.05,516.15 L516.15,516.15 516.15,985.975 L516.15,986 C525.2,985.9 533.9,985.65 542.15,985.2 544.65,985.05 546.9,984.9 549.1,984.75 569.3,983.3 589,980.7 607.8,977.05 615.75,975.5 623.6,973.75 631.2,971.9 697.1,955.35 756.7,924.8 810.3,880.3 822.45,870.15 834.3,859.35 845.85,847.8 851.95,841.7 857.85,835.55 863.35,829.5 903.2,785.65 933.1,737.9 953.2,686 962.3,662.55 969.35,638.25 974.5,612.95 979.7,587.15 982.8,560.3 983.75,532.5 983.95,526.45 984.05,520.25 984.05,514z"/>
    </g>
  </g>
  <g id="bg1">
    <g id="shape8">
      <path id="path5" fill="#000000" fill-opacity="0.2" d="M983.75,532.5 C983.95,526.45 984.05,520.25 984.05,514 984.05,513.4 984.05,512.8 984.05,512.15 984.05,512.1 984.05,512.05 984.05,512 984.05,511.65 984.05,511.35 984.05,511 984.05,507.9 984,504.8 983.95,501.65 Q983.76,493.434 983.325,485.325 L724.05,226.05 722.05,404.05 590.05,272.05 454.05,322.05 364.05,232.05 220.625,385.175 106.05,400.05 232.15,526.15 346.05,770.05 559.875,983.875 L559.9,983.9 C576.5,982.3 592.45,980.05 607.8,977.05 615.75,975.5 623.6,973.75 631.2,971.9 697.1,955.35 756.7,924.8 810.3,880.3 822.45,870.15 834.3,859.35 845.85,847.8 851.95,841.7 857.85,835.55 863.35,829.5 903.2,785.65 933.1,737.9 953.2,686 962.3,662.55 969.35,638.25 974.5,612.95 979.7,587.15 982.8,560.3 983.75,532.5z"/>
    </g>
  </g>
  <g id="Calque.__203">
    <g id="shape10">
      <path id="path6" fill="#FFF872" fill-opacity="1" d="M757.125,271.725 L757.125,271.75 Q745.889,253.014 733.7,238.075 L733.7,238.1 C726.6,229.45 717.5,224.55 706.45,223.4 695.4,222.25 685.5,225.2 676.8,232.25 668.15,239.3 663.25,248.4 662.1,259.45 660.95,270.5 663.85,280.4 670.9,289.15 676.7,296.3 682.3,304.4 687.7,313.35 L687.675,313.35 L687.675,313.375 L687.7,313.4 C715.95,361.25 730.05,418.9 730.1,486.4 730.1,553.9 715.95,611.55 687.7,659.4 L687.675,659.375 L687.7,659.375 L687.7,659.4 C664.6,697.9 637.4,718.1 606.1,720.05 597.15,719.8 588.6,718.05 580.4,714.75 L580.4,714.725 L658.425,792.775 L658.45,792.8 C695.75,779.1 728.65,748.5 757.15,701.05 L757.125,701.025 L757.1,701.025 L757.1,701.05 C793.05,641.85 811,570.3 811.05,486.4 811.05,402.5 793.1,330.95 757.15,271.75 M364.5,230.05 C355.85,224.2 346.35,222.05 336,223.6 325.65,225.15 317.2,229.95 310.55,238 302.4,247.95 294.55,259.2 287.05,271.75 281.9,280.35 277.1,289.2 272.7,298.3 235.85,348.6 200.05,363.25 165.3,342.25 156.2,335.7 146.15,333.3 135.15,335.05 124.15,336.8 115.35,342.25 108.8,351.35 102.25,360.4 99.85,370.45 101.6,381.45 103.35,392.4 108.75,401.2 117.8,407.8 157.35,438.85 196.6,447.6 235.65,434 235.6,434 235.6,434 235.65,434 275.8,416.4 311.55,384.85 342.85,339.4 354.35,322.95 365.9,304.15 377.45,283 382.45,273.75 383.7,264.05 381.25,254 378.75,243.9 373.15,235.9 364.5,230.05z M455.75,271.9 C454.9,272.35 452.1,277 447.35,285.8 L447.35,285.775 L447.45,285.55 C443.85,292.05 441.3,297 439.75,300.4 431.2,318.15 424.05,336.85 418.4,356.5 L418.4,356.475 L418.45,356.375 L418.45,356.4 C407.35,394.25 401.6,436.7 401.15,483.75 L401.15,483.725 L401.15,485.05 C401.3,570.15 419.3,642.15 455.05,701.05 457.9,705.8 460.85,710.4 463.8,714.8 455.6,718.1 447.05,719.85 438.1,720.05 406.8,718.1 379.6,697.9 356.45,659.4 332,618.05 318.15,569.3 314.85,513.2 L235.625,434 L235.65,434 C234,450.9 233.15,468.35 233.15,486.4 233.15,570.3 251.1,641.85 287.05,701.05 328.2,769.6 378.55,802.95 438.1,801 468.25,801.25 496.25,792.7 522.05,775.35 522.2,775.45 522.3,775.55 522.45,775.65 543.4,758 562.7,737.7 580.4,714.75 583.35,710.35 586.2,705.8 589.05,701.05 589.05,701.05 589.05,701.05 589.1,701 625.05,641.8 643.05,569 643,482.6 642.15,416.7 630.85,359.25 609,310.25 L608.975,310.225 L609.05,310.35 C607.4,306.6 605.5,302.45 603.35,297.85 L603.35,297.825 L603.25,297.6 C598.2,286.95 593.9,279.05 590.35,273.9 L590.35,273.875 L590.25,273.7 C583.5,262.35 571.8,253 555.25,245.75 L555.225,245.75 L555.15,245.7 C542,239.95 531.3,237.4 523,238.05 496.55,237.4 474.15,248.65 455.75,271.9z M534.95,342.9 C553.05,384.45 562.1,432.25 562.1,486.4 562.05,551.95 548.7,608.25 522.05,655.25 495.4,608.25 482.05,551.95 482.1,486.4 482.05,447.35 486.75,411.55 496.15,379.05 L496.15,379.025 L496.2,378.925 L496.2,378.95 C500.6,363.6 506.15,349 512.8,335.2 L512.8,335.175 L512.975,334.825 L513,334.85 C514.1,332.55 515.9,329.15 518.35,324.65 L518.45,324.425 L518.45,324.45 C519.05,323.3 519.2,322.65 518.95,322.45 L518.95,322.425 L519.1,322.25 C520.35,320.7 521.65,319.6 523,319 522.45,319.45 522.4,319.75 522.75,319.9 L522.675,319.85 L522.7,319.85 C523.15,320.05 523.2,319.65 522.95,318.7 L522.85,318.525 L522.85,318.55 C524.8,321.6 527.2,326.25 530.15,332.4 531.95,336.25 533.5,339.7 534.85,342.75 L534.925,342.875z"/>
      <path id="path7" fill="#D0C665" fill-opacity="1" d="M580.4,714.75 C562.7,737.7 543.4,758 522.45,775.65 548.1,792.9 576,801.35 606.1,801 624.4,801.6 641.85,798.85 658.45,792.8 L658.425,792.775 L580.4,714.725 M235.625,434 L314.85,513.2 C314.3,504.45 314.05,495.5 314.1,486.4 314.05,430.7 323.65,381.7 342.85,339.4 311.55,384.85 275.8,416.4 235.65,434z"/>
    </g>
  </g>
</svg>