<?xml version="1.0" encoding="utf-8"?>
<!-- Generator: flash2svg, http://dissentgraphics.com/tools/flash2svg -->
<svg id="The-Unarchiver" image-rendering="optimizeSpeed" baseProfile="basic" version="1.1" style="background-color:#FFFFFF" x="0px" y="0px" width="1024px" height="1024px" viewBox="0 0 1024 1024" enable-background="new 0 0 1024 1024" xmlns="http://www.w3.org/2000/svg" xmlns:xlink="http://www.w3.org/1999/xlink">
  <defs transform="matrix(1 0 0 1 0 0) "/>
  <g id="shadow">
    <g id="shape">
      <path id="path" fill="#000000" fill-opacity="0.09803921568627451" d="M969.6,351.25 Q961,330.4 950.2,310.4 C946.15,302.85 941.85,295.35 937.3,288 917.75,256.3 893.9,226.35 865.75,198.2 773.6,106.05 662.3,59.95 531.95,59.95 401.6,59.95 290.35,106.05 198.2,198.2 106.05,290.35 59.95,401.6 59.95,531.95 59.95,662.3 106.05,773.6 198.2,865.75 290.35,957.9 401.6,1003.95 531.95,1003.95 662.3,1003.95 773.6,957.9 865.75,865.75 916.5,814.95 953.3,758.35 976.1,696 994.65,645.15 1003.95,590.5 1003.95,531.95 1003.95,487.05 998.5,444.4 987.55,404 986.3,399.45 985,394.9 983.65,390.4 979.55,377.1 974.85,364.05 969.6,351.25z"/>
    </g>
  </g>
  <g id="inner">
    <g id="shape2">
      <path id="path1" fill="#946432" fill-opacity="1" d="M969.7,392 C968.6,387.65 967.35,383 966.05,378.4 963.55,369.65 960.7,360.8 957.6,352.05 951.15,333.8 943.45,316 934.45,298.4 930.65,291 926.5,283.45 922.15,276 901.85,241.5 876.35,208.8 845.8,178.25 773.2,105.65 688.65,61.6 592.15,46.2 579.5,44.15 566.65,42.65 553.6,41.65 L553.6,41.625 L553.6,982.4 C572.45,980.9 590.5,978.4 607.75,975.05 615.7,973.5 623.55,971.75 631.15,969.9 711.95,949.6 783.3,908.3 845.8,845.8 894.4,797.2 930.2,743.3 953.15,684 971.6,636.35 981.8,585.2 983.7,530.5 983.9,524.45 984,518.25 984,512 984,511.35 984,510.65 984,510 984,509.65 984,509.35 984,509 983.8,468.35 979.05,429.5 969.7,392z"/>
      <path id="path2" fill="#573D23" fill-opacity="1" d="M553.6,41.65 C550.4,41.4 547.2,41.15 544,40.95 543.35,40.9 542.75,40.9 542.1,40.85 532.4,40.3 522.25,40 512,40 502.65,40 493.4,40.25 484.1,40.75 481.75,40.85 479.4,41 476.8,41.15 474.65,41.3 472.5,41.45 470.4,41.65 L470.4,41.625 L470.4,982.375 L470.4,982.4 C472.6,982.55 474.7,982.7 476.8,982.85 479.4,983.05 481.75,983.2 484.1,983.3 484.25,983.3 484.35,983.3 484.5,983.3 493,983.75 501.1,984 509,984 510.2,984 511.1,984 512,984 522.3,984 532.5,983.7 542.1,983.2 542.75,983.15 543.35,983.1 544,983.1 545.7,982.95 547.4,982.85 549.05,982.75 550.7,982.65 552.35,982.5 553.6,982.4 L553.6,41.625"/>
      <path id="path3" fill="#CC9053" fill-opacity="1" d="M470.4,41.65 C357.95,50.4 260.55,95.95 178.25,178.25 Q40,316.5 40,512 C40,642.35 86.1,753.65 178.25,845.8 260.6,928.1 358.15,973.65 470.4,982.4 L470.4,982.375 L470.4,41.625"/>
    </g>
  </g>
  <g id="Symbole.__201">
    <g id="shape7">
      <path id="path4" fill="#000000" fill-opacity="0.2" d="M953.15,684 Q969.326,642.262 977.025,597.025 L591.5,211.5 432.55,232 450.5,343 339.55,417.5 354,446 465.85,557.85 470.4,538 470.4,562.4 465.85,557.85 403.85,828.4 553.6,978.125 557.525,982.075 L557.55,982.1 C575.15,980.5 591.8,978.15 607.75,975.05 615.7,973.5 623.55,971.75 631.15,969.9 711.95,949.6 783.3,908.3 845.8,845.8 894.4,797.2 930.2,743.3 953.15,684z"/>
      <path id="path5" fill="#CC9053" fill-opacity="1" d="M465.85,557.85 L470.4,562.4 470.4,538 465.85,557.85z"/>
      <path id="path6" fill="#946432" fill-opacity="1" d="M557.525,982.075 L553.6,978.125 553.6,982.4 C555.05,982.3 556.5,982.2 557.55,982.1"/>
    </g>
  </g>
  <g id="Calque.__203">
    <g id="Symbole.__202_1" overflow="visible">
      <g id="Calque.__207">
        <g id="shape37">
          <path id="path27" fill="#DEB437" fill-opacity="1" d="M680.4,402.05 L680.35,402.05 C676.3,396.85 671.95,392.45 667.3,388.85 661.45,384.45 650.05,373.9 633,357.25 622.05,346.6 613.25,334.65 606.5,321.2 597.2,302.65 592.15,281.25 591.5,257.25 591.5,257.1 591.5,256.95 591.5,256.8 591.5,256.35 591.5,255.9 591.5,255.45 L591.5,211.5 432.55,211.5 432.55,255.45 C432.55,255.9 432.55,256.35 432.55,256.8 432.55,256.95 432.55,257.1 432.55,257.25 431.4,298.2 417.55,331.55 391.1,357.25 374.05,373.9 362.6,384.45 356.8,388.85 352.15,392.45 347.75,396.85 343.7,402.05 340.95,406 339.55,411.15 339.55,417.5 340.7,434.95 362.35,457.95 404.5,486.5 404.3,485.2 404.1,483.9 403.9,482.5 407,484.95 410.3,486.95 413.35,488.35 417.85,500.6 425,511.7 434.8,521.65 452.95,540.2 474.9,549.5 500.55,549.5 507.7,549.5 514.6,548.75 520.85,547.4 529.7,552.8 539.25,555.5 549.55,555.5 549.7,555.5 549.9,555.5 550.1,555.5 571.4,555.3 589.6,543.5 604.7,520.05 611.75,509.1 617.2,497.05 621,483.95 620.85,485.4 620.7,486.6 620.55,487.85 662.05,458.4 683.35,434.95 684.5,417.5 684.5,411.15 683.15,406 680.4,402.05z"/>
        </g>
      </g>
      <g id="Calque.__208">
        <g id="shape38">
          <path id="path28" fill="#000000" fill-opacity="0.2" d="M680.4,402.05 L680.35,402.05 C676.3,396.85 671.95,392.45 667.3,388.85 661.45,384.45 650.05,373.9 633,357.25 622.05,346.6 613.25,334.65 606.5,321.2 L540.5,255.2 484.55,489.95 550.1,555.5 C571.4,555.3 589.6,543.5 604.7,520.05 611.75,509.1 617.2,497.05 621,483.95 620.85,485.4 620.7,486.6 620.55,487.85 662.05,458.4 683.35,434.95 684.5,417.5 684.5,411.15 683.15,406 680.4,402.05z"/>
        </g>
      </g>
      <g id="Symbole.__206">
        <g id="shape39">
          <path id="path29" fill="#FED55D" fill-opacity="1" d="M528.6,375.5 C518.9,375.5 510.3,378.35 502.7,383.9 502.1,382.35 501.25,380.9 500.2,379.6 497.95,376.85 495.25,375.5 492.05,375.5 489.15,375.5 486.65,376.65 484.5,378.9 484.4,378.15 484.1,377.45 483.65,376.85 483.1,376.1 482.4,375.7 481.55,375.7 481.1,375.7 480.7,375.8 480.35,376 L480.5,375.5 C456.25,377.95 442.75,382 440.05,387.65 428,415.6 417.05,444.95 407.25,475.8 404.2,485.25 401.3,494.85 398.5,504.6 377.75,576.65 362.8,656.15 353.65,743.1 354.2,774.8 369.25,801.95 398.9,824.6 421.5,841.75 447.45,852.75 476.8,857.6 487.65,859.4 499,860.35 510.75,860.5 L510.9,860.5 C511.25,860.5 511.65,860.5 512,860.5 512.35,860.5 512.75,860.5 513.1,860.5 L513.25,860.5 C523.9,860.4 534.15,859.6 544,858.1 574.65,853.5 601.65,842.35 625.1,824.6 654.75,801.95 669.8,774.8 670.35,743.1 661.2,656.15 646.25,576.65 625.55,504.6 Q621.3,490 616.8,475.8 C607,444.95 596.05,415.6 584,387.65 580.85,382 567.35,378.3 543.5,376.5 L543.85,377.625 L543.85,377.65 C543.8,377.6 543.8,377.6 543.75,377.6 543.55,377.55 543.3,377.5 543,377.5 542.75,377.5 542.5,377.55 542.3,377.6 538,376.2 533.45,375.5 528.6,375.5z M437.7,568.85 C437.7,564.7 439.15,561.2 442.1,558.25 445.05,555.3 448.55,553.85 452.7,553.85 L571.3,553.85 C575.45,553.85 578.95,555.3 581.9,558.25 584.85,561.2 586.3,564.7 586.3,568.85 586.3,573 584.85,576.5 581.9,579.45 578.95,582.4 575.45,583.85 571.3,583.85 L452.7,583.85 C448.55,583.85 445.05,582.4 442.1,579.45 439.15,576.5 437.7,573 437.7,568.85z M452.7,601.05 L571.3,601.05 C575.45,601.05 578.95,602.5 581.9,605.45 584.85,608.4 586.3,611.9 586.3,616.05 586.3,620.2 584.85,623.7 581.9,626.65 578.95,629.6 575.45,631.05 571.3,631.05 L452.7,631.05 C448.55,631.05 445.05,629.6 442.1,626.65 439.15,623.7 437.7,620.2 437.7,616.05 437.7,611.9 439.15,608.4 442.1,605.45 445.05,602.5 448.55,601.05 452.7,601.05z M558.1,684.9 C570.85,697.65 577.2,713 577.2,731 577.2,749 570.85,764.35 558.1,777.1 553.7,781.5 549,785.15 544,788 534.45,793.45 523.8,796.2 512,796.2 498.85,796.2 487.15,792.8 476.8,786.05 472.95,783.5 469.35,780.55 465.9,777.1 453.15,764.35 446.8,749 446.8,731 446.8,713 453.15,697.65 465.9,684.9 469.35,681.45 472.95,678.5 476.8,676 487.15,669.2 498.85,665.8 512,665.8 523.8,665.8 534.45,668.55 544,674 549,676.85 553.7,680.5 558.1,684.9z M544,378.2 C543.95,378.15 543.85,378.15 543.8,378.1 543.85,378.05 543.9,378.05 543.95,378 L544,378.175z"/>
          <path id="path30" fill="#DEB437" fill-opacity="1" d="M437.7,568.85 C437.7,573 439.15,576.5 442.1,579.45 445.05,582.4 448.55,583.85 452.7,583.85 L571.3,583.85 C575.45,583.85 578.95,582.4 581.9,579.45 584.85,576.5 586.3,573 586.3,568.85 586.3,564.7 584.85,561.2 581.9,558.25 578.95,555.3 575.45,553.85 571.3,553.85 L452.7,553.85 C448.55,553.85 445.05,555.3 442.1,558.25 439.15,561.2 437.7,564.7 437.7,568.85z"/>
          <path id="path31" fill="#DEB437" fill-opacity="1" d="M452.7,601.05 C448.55,601.05 445.05,602.5 442.1,605.45 439.15,608.4 437.7,611.9 437.7,616.05 437.7,620.2 439.15,623.7 442.1,626.65 445.05,629.6 448.55,631.05 452.7,631.05 L571.3,631.05 C575.45,631.05 578.95,629.6 581.9,626.65 584.85,623.7 586.3,620.2 586.3,616.05 586.3,611.9 584.85,608.4 581.9,605.45 578.95,602.5 575.45,601.05 571.3,601.05 L452.7,601.05z"/>
        </g>
      </g>
      <g id="Symbole.__207">
        <g id="shape40">
          <path id="path32" fill="#000000" fill-opacity="0.09803921568627451" d="M528.6,375.5 C519.45,375.5 511.25,378 503.95,383 L503.925,383 L485.55,491.4 660.45,666.3 C651.7,609 640,555 625.55,504.6 Q621.3,490 616.8,475.8 C607,444.95 596.05,415.6 584,387.65 580.85,382 567.35,378.3 543.5,376.5 L543.85,377.625 L543.85,377.65 C543.8,377.6 543.8,377.6 543.75,377.6 543.55,377.55 543.3,377.5 543,377.5 542.75,377.5 542.5,377.55 542.3,377.6 538,376.2 533.45,375.5 528.6,375.5z M544,378.2 C543.95,378.15 543.85,378.15 543.8,378.1 543.85,378.05 543.9,378.05 543.95,378 L544,378.175z"/>
        </g>
      </g>
      <g id="Calque.__209">
        <g id="shape41">
          <path id="path33" fill="#F9C93A" fill-opacity="1" d="M539.1,253.4 C536.15,250.45 532.65,249 528.5,249 L495.5,249 C491.35,249 487.85,250.45 484.9,253.4 Q480.5,257.8 480.5,264 L480.5,479 C480.5,483.15 481.95,486.65 484.9,489.6 487.85,492.55 491.35,494 495.5,494 L528.5,494 C532.65,494 536.15,492.55 539.1,489.6 542.05,486.65 543.5,483.15 543.5,479 L543.5,264 C543.5,259.85 542.05,256.35 539.1,253.4z"/>
        </g>
      </g>
    </g>
  </g>
</svg>