<?xml version="1.0" encoding="utf-8"?>
<!-- Generator: flash2svg, http://dissentgraphics.com/tools/flash2svg -->
<svg xmlns:xlink="http://www.w3.org/1999/xlink" id="Time-machine" image-rendering="optimizeSpeed" baseProfile="basic" version="1.1" style="background-color:#ffffff" x="0px" y="0px" width="1024px" height="1024px" viewBox="0 0 1024 1024" enable-background="new 0 0 1024 1024" xmlns="http://www.w3.org/2000/svg">
  <defs transform="matrix(1 0 0 1 0 0) "/>
  <g id="shadow">
    <g id="shape">
      <path id="path" fill="#000000" fill-opacity="0.09803921568627451" d="M969.65,351.3 Q961.05,330.45 950.25,310.45 C946.2,302.9 941.9,295.4 937.35,288.05 917.8,256.35 893.95,226.4 865.8,198.25 773.65,106.1 662.35,60 532,60 401.65,60 290.4,106.1 198.25,198.25 106.1,290.4 60,401.65 60,532 60,662.35 106.1,773.65 198.25,865.8 290.4,957.95 401.65,1004 532,1004 662.35,1004 773.65,957.95 865.8,865.8 916.55,815 953.35,758.4 976.15,696.05 994.7,645.2 1004,590.55 1004,532 1004,487.1 998.55,444.45 987.6,404.05 986.35,399.5 985.05,394.95 983.7,390.45 979.6,377.15 974.9,364.1 969.65,351.3z"/>
    </g>
  </g>
  <g id="bg">
    <g id="shape2">
      <path id="path1" fill="#3C6D67" fill-opacity="1" d="M962.95,367.95 C961.35,362.8 959.55,357.45 957.65,352.1 951.2,333.85 943.5,316.05 934.5,298.45 930.7,291.05 926.55,283.5 922.2,276.05 901.9,241.55 876.4,208.85 845.85,178.3 773.25,105.7 688.7,61.65 592.2,46.25 575.95,43.65 559.4,41.85 542.15,40.9 532.45,40.35 522.3,40.05 512.05,40.05 502.7,40.05 493.45,40.3 484.15,40.8 365.8,46.9 263.85,92.75 178.3,178.3 Q40.05,316.55 40.05,512.05 C40.05,642.4 86.15,753.7 178.3,845.85 235,902.5 298.85,941.75 369.4,963.4 406.15,974.65 444.2,981.25 484.15,983.35 484.3,983.35 484.4,983.35 484.55,983.35 493.05,983.8 501.15,984.05 509.05,984.05 510.25,984.05 511.15,984.05 512.05,984.05 522.35,984.05 532.55,983.75 542.15,983.25 544.65,983.1 546.9,982.95 549.1,982.8 569.3,981.35 589,978.75 607.8,975.1 615.75,973.55 623.6,971.8 631.2,969.95 712,949.65 783.35,908.35 845.85,845.85 894.45,797.25 930.25,743.35 953.2,684.05 971.65,636.4 981.85,585.25 983.75,530.55 983.95,524.5 984.05,518.3 984.05,512.05 984.05,511.4 984.05,510.7 984.05,510.05 984.05,509.7 984.05,509.4 984.05,509.05 983.85,468.4 979.1,429.55 969.75,392.05 968.65,387.7 967.4,383.05 966.1,378.45 965.1,375.05 964.1,371.6 962.95,367.95z"/>
    </g>
  </g>
  <g id="RECUPERE.__20LAUNCHPAD-Alt">
    <g id="shape4">
      <path id="path2" fill="none" stroke="#FFFFFF" stroke-opacity="1" stroke-width="1" stroke-linecap="round" stroke-linejoin="round" d="M579.05,1047.9 L515.2,984.05"/>
      <path id="path3" fill="none" stroke="#FFFFFF" stroke-opacity="1" stroke-width="1" stroke-linecap="round" stroke-linejoin="round" d="M984.025,517.275 L1037.65,570.9"/>
      <path id="path4" fill="#000000" fill-opacity="0.2" d="M983.75,530.55 C983.9,526.25 983.95,521.9 984.05,517.3 L984.025,517.275 L757.05,290.3 310.2,779.05 515.2,984.05 Q528.831,983.968 542.15,983.25 C544.65,983.1 546.9,982.95 549.1,982.8 569.3,981.35 589,978.75 607.8,975.1 615.75,973.55 623.6,971.8 631.2,969.95 712,949.65 783.35,908.35 845.85,845.85 894.45,797.25 930.25,743.35 953.2,684.05 971.65,636.4 981.85,585.25 983.75,530.55z"/>
    </g>
  </g>
  <g id="timemachine">
    <g id="shape7">
      <path id="path5" fill="#629892" fill-opacity="1" d="M845.15,515.15 C845.15,332.35 697,184.15 514.15,184.15 331.35,184.15 183.15,332.35 183.15,515.15 183.15,697.95 331.35,846.15 514.15,846.15 Q581.5,846.15 643,820.15 702.4,795 748.2,749.2 794,703.4 819.15,644 845.15,582.5 845.15,515.15z M732.4,515.15 C732.4,635.7 634.7,733.4 514.15,733.4 393.65,733.4 295.95,635.7 295.95,515.15 295.95,394.6 393.65,296.9 514.15,296.9 634.7,296.9 732.4,394.6 732.4,515.15z M532.45,236.5 C532.45,247.25 523.75,256 512.95,256 502.2,256 493.45,247.25 493.45,236.5 493.45,225.7 502.2,217 512.95,217 523.75,217 532.45,225.7 532.45,236.5z M512.95,764 C523.75,764 532.45,772.7 532.45,783.5 532.45,794.25 523.75,803 512.95,803 502.2,803 493.45,794.25 493.45,783.5 493.45,772.7 502.2,764 512.95,764z M239.45,490.5 C250.25,490.5 258.95,499.2 258.95,510 258.95,520.75 250.25,529.5 239.45,529.5 228.7,529.5 219.95,520.75 219.95,510 219.95,499.2 228.7,490.5 239.45,490.5z M805.95,510 C805.95,520.75 797.25,529.5 786.45,529.5 775.7,529.5 766.95,520.75 766.95,510 766.95,499.2 775.7,490.5 786.45,490.5 797.25,490.5 805.95,499.2 805.95,510z M333.35,330.35 C325.75,338 313.4,338 305.8,330.35 298.15,322.75 298.15,310.4 305.8,302.8 313.4,295.2 325.75,295.2 333.35,302.8 340.95,310.4 340.95,322.75 333.35,330.35z M720.15,689.6 C727.75,697.2 727.75,709.55 720.15,717.15 712.55,724.8 700.2,724.8 692.55,717.15 684.95,709.55 684.95,697.2 692.55,689.6 700.2,681.95 712.55,681.95 720.15,689.6z M333.35,689.6 C340.95,697.2 340.95,709.55 333.35,717.15 325.75,724.8 313.4,724.8 305.8,717.15 298.15,709.55 298.15,697.2 305.8,689.6 313.4,681.95 325.75,681.95 333.35,689.6z M720.15,302.8 C727.75,310.4 727.75,322.75 720.15,330.35 712.55,338 700.2,338 692.55,330.35 684.95,322.75 684.95,310.4 692.55,302.8 700.2,295.2 712.55,295.2 720.15,302.8z"/>
      <path id="path6" fill="#34514E" fill-opacity="1" d="M732.4,515.15 C732.4,394.6 634.7,296.9 514.15,296.9 393.65,296.9 295.95,394.6 295.95,515.15 295.95,635.7 393.65,733.4 514.15,733.4 634.7,733.4 732.4,635.7 732.4,515.15z"/>
      <path id="path9" fill="none" stroke="#FFFFFF" stroke-opacity="1" stroke-width="34" stroke-linecap="round" stroke-linejoin="round" d="M384.1,513.95 C384.1,440.45 443.7,380.8 517.25,380.8 590.75,380.8 650.4,440.45 650.4,513.95 650.4,587.5 590.75,647.1 517.25,647.1"/>
      <path id="path10" fill="none" stroke="#FFFFFF" stroke-opacity="1" stroke-width="34" stroke-linecap="round" stroke-linejoin="round" d="M433.15,490.5 L381.75,538.5 347.95,471.9"/>
      <path id="path11" fill="none" stroke="#FFFFFF" stroke-opacity="1" stroke-width="34" stroke-linecap="round" stroke-linejoin="round" d="M512.95,445.45 L514.15,515.15 535.9,544.15"/>
      <path id="path12" fill="#85BBB5" fill-opacity="1" d="M532.45,236.5 C532.45,225.7 523.75,217 512.95,217 502.2,217 493.45,225.7 493.45,236.5 493.45,247.25 502.2,256 512.95,256 523.75,256 532.45,247.25 532.45,236.5z"/>
      <path id="path15" fill="#85BBB5" fill-opacity="1" d="M512.95,764 C502.2,764 493.45,772.7 493.45,783.5 493.45,794.25 502.2,803 512.95,803 523.75,803 532.45,794.25 532.45,783.5 532.45,772.7 523.75,764 512.95,764z"/>
      <path id="path18" fill="#85BBB5" fill-opacity="1" d="M239.45,490.5 C228.7,490.5 219.95,499.2 219.95,510 219.95,520.75 228.7,529.5 239.45,529.5 250.25,529.5 258.95,520.75 258.95,510 258.95,499.2 250.25,490.5 239.45,490.5z"/>
      <path id="path21" fill="#85BBB5" fill-opacity="1" d="M805.95,510 C805.95,499.2 797.25,490.5 786.45,490.5 775.7,490.5 766.95,499.2 766.95,510 766.95,520.75 775.7,529.5 786.45,529.5 797.25,529.5 805.95,520.75 805.95,510z"/>
      <path id="path24" fill="#85BBB5" fill-opacity="1" d="M333.35,330.35 C340.95,322.75 340.95,310.4 333.35,302.8 325.75,295.2 313.4,295.2 305.8,302.8 298.15,310.4 298.15,322.75 305.8,330.35 313.4,338 325.75,338 333.35,330.35z"/>
      <path id="path27" fill="#85BBB5" fill-opacity="1" d="M720.15,689.6 C712.55,681.95 700.2,681.95 692.55,689.6 684.95,697.2 684.95,709.55 692.55,717.15 700.2,724.8 712.55,724.8 720.15,717.15 727.75,709.55 727.75,697.2 720.15,689.6z"/>
      <path id="path30" fill="#85BBB5" fill-opacity="1" d="M333.35,689.6 C325.75,681.95 313.4,681.95 305.8,689.6 298.15,697.2 298.15,709.55 305.8,717.15 313.4,724.8 325.75,724.8 333.35,717.15 340.95,709.55 340.95,697.2 333.35,689.6z"/>
      <path id="path33" fill="#85BBB5" fill-opacity="1" d="M720.15,302.8 C712.55,295.2 700.2,295.2 692.55,302.8 684.95,310.4 684.95,322.75 692.55,330.35 700.2,338 712.55,338 720.15,330.35 727.75,322.75 727.75,310.4 720.15,302.8z"/>
    </g>
  </g>
</svg>