<?xml version="1.0" encoding="utf-8"?>
<!-- Generator: flash2svg, http://dissentgraphics.com/tools/flash2svg -->
<svg xmlns:xlink="http://www.w3.org/1999/xlink" id="Transmission" image-rendering="optimizeSpeed" baseProfile="basic" version="1.1" style="background-color:#ffffff" x="0px" y="0px" width="1024px" height="1024px" viewBox="0 0 1024 1024" enable-background="new 0 0 1024 1024" xmlns="http://www.w3.org/2000/svg">
  <defs transform="matrix(1 0 0 1 0 0) "/>
  <g id="shadow">
    <g id="shape">
      <path id="path" fill="#000000" fill-opacity="0.09803921568627451" d="M957.65,339.3 Q949.037,318.427 938.25,298.45 C934.2,290.9 929.9,283.4 925.35,276.05 905.8,244.35 881.95,214.4 853.8,186.25 761.65,94.1 650.35,48 520,48 389.65,48 278.4,94.1 186.25,186.25 122.55,249.95 80.8,322.8 61.2,404.65 52.4,441.4 48,479.8 48,520 48,650.35 94.1,761.65 186.25,853.8 278.4,945.95 389.65,992 520,992 650.35,992 761.65,945.95 853.8,853.8 904.55,803 941.35,746.4 964.15,684.05 982.7,633.2 992,578.55 992,520 992,479.85 987.6,441.45 978.85,404.65 977.85,400.6 976.75,396.3 975.6,392.05 974.35,387.5 973.05,382.95 971.7,378.45 967.6,365.15 962.9,352.1 957.65,339.3z"/>
    </g>
  </g>
  <g id="circle">
    <g id="shape2">
      <path id="path1" fill="#333333" fill-opacity="1" d="M512.05,984.05 C524.75,984.05 537.25,983.6 549.1,982.8 569.3,981.35 589,978.75 607.8,975.1 615.75,973.55 623.6,971.8 631.2,969.95 712,949.65 783.35,908.35 845.85,845.85 869.85,821.85 890.75,796.5 908.4,770.05 L115.725,770.05 L115.75,770.05 C133.6,796.75 154.4,821.95 178.3,845.85 270.45,938 381.7,984.05 512.05,984.05z"/>
      <path id="path2" fill="#663333" fill-opacity="1" d="M966.1,378.45 C963.6,369.7 960.75,360.85 957.65,352.1 951.2,333.85 943.5,316.05 934.5,298.45 930.7,291.05 926.55,283.5 922.2,276.05 L922.175,276.05 Q891.574,224.04 845.85,178.3 C753.7,86.15 642.4,40.05 512.05,40.05 381.7,40.05 270.45,86.15 178.3,178.3 112.45,244.15 70.1,319.75 51.45,404.65 43.8,439.2 40.05,474.85 40.05,512.05 40.05,608.6 65.35,694.7 115.75,770.05 L115.725,770.05 L908.4,770.05 C926.7,742.65 941.6,714.05 953.2,684.05 971.65,636.4 981.85,585.25 983.75,530.55 983.95,524.5 984.05,518.3 984.05,512.05 984.05,474.85 980.3,439.2 972.7,404.65 971.8,400.45 970.8,396.25 969.75,392.05 968.65,387.7 967.4,383.05 966.1,378.45z"/>
    </g>
  </g>
  <mask id="circle2">
    <g id="g">
      <g id="shape14">
        <path id="path9" fill="#FFFFFF" fill-opacity="1" d="M969.75,392.05 C968.65,387.7 967.4,383.05 966.1,378.45 963.6,369.7 960.75,360.85 957.65,352.1 951.2,333.85 943.5,316.05 934.5,298.45 930.7,291.05 926.55,283.5 922.2,276.05 L922.175,276.05 Q891.574,224.04 845.85,178.3 C753.7,86.15 642.4,40.05 512.05,40.05 381.7,40.05 270.45,86.15 178.3,178.3 86.15,270.45 40.05,381.7 40.05,512.05 40.05,608.6 65.35,694.7 115.75,770.05 133.6,796.75 154.4,821.95 178.3,845.85 270.45,938 381.7,984.05 512.05,984.05 524.75,984.05 537.25,983.6 549.1,982.8 569.3,981.35 589,978.75 607.8,975.1 615.75,973.55 623.6,971.8 631.2,969.95 712,949.65 783.35,908.35 845.85,845.85 869.85,821.85 890.75,796.5 908.4,770.05 926.7,742.65 941.6,714.05 953.2,684.05 971.65,636.4 981.85,585.25 983.75,530.55 983.95,524.5 984.05,518.3 984.05,512.05 984.05,470.3 979.35,430.45 969.75,392.05z"/>
      </g>
    </g>
  </mask>
  <g id="masked" mask="url(#circle2)">
    <g id="circle1">
      <g id="shape6">
        <path id="path3" fill="#666666" fill-opacity="1" d="M244.05,560 Q121.45,560 34.75,649.65 C-23.05,709.45 -51.95,781.6 -51.95,866.15 -51.95,950.7 -23.05,1022.85 34.75,1082.6 92.55,1142.4 162.3,1172.3 244.05,1172.3 325.8,1172.3 395.55,1142.4 453.35,1082.6 460.8,1074.9 467.8,1067 474.3,1058.85 L474.275,1058.85 L209.95,794.5 441.575,638.05 L441.6,638.05 C386.2,586.05 320.35,560 244.05,560z"/>
        <path id="path4" fill="#2E2E2E" fill-opacity="1" d="M518.05,867.05 C507,867.05 497.6,870.95 489.75,878.75 481.95,886.6 478.05,896 478.05,907.05 L478.05,983.05 C478.05,994.1 481.95,1003.5 489.75,1011.3 493.2,1014.75 497,1017.45 501.15,1019.4 502.9,1016.35 504.6,1013.2 506.25,1010.05 L506.225,1010.05 L566.5,1010.05 C573.55,1002.5 577.05,993.5 577.05,983.05 L577.05,907.05 C577.05,896 573.15,886.6 565.3,878.75 557.5,870.95 548.1,867.05 537.05,867.05 L518.05,867.05z M548.95,935.95 C543.25,941.7 536.35,944.55 528.3,944.55 520.25,944.55 513.35,941.7 507.6,935.95 501.9,930.25 499.05,923.35 499.05,915.3 499.05,907.25 501.9,900.35 507.6,894.6 513.35,888.9 520.25,886.05 528.3,886.05 536.35,886.05 543.25,888.9 548.95,894.6 554.7,900.35 557.55,907.25 557.55,915.3 557.55,923.35 554.7,930.25 548.95,935.95z"/>
        <path id="path5" fill="#CCCCCC" fill-opacity="1" d="M548.95,935.95 C554.7,930.25 557.55,923.35 557.55,915.3 557.55,907.25 554.7,900.35 548.95,894.6 543.25,888.9 536.35,886.05 528.3,886.05 520.25,886.05 513.35,888.9 507.6,894.6 501.9,900.35 499.05,907.25 499.05,915.3 499.05,923.35 501.9,930.25 507.6,935.95 513.35,941.7 520.25,944.55 528.3,944.55 536.35,944.55 543.25,941.7 548.95,935.95z"/>
        <path id="path8" fill="#545454" fill-opacity="1" d="M453.35,649.65 C449.5,645.7 445.6,641.85 441.6,638.05 L441.575,638.05 L209.95,794.5 474.275,1058.85 L474.3,1058.85 C484.4,1046.25 493.3,1033.05 501.15,1019.4 497,1017.45 493.2,1014.75 489.75,1011.3 481.95,1003.5 478.05,994.1 478.05,983.05 L478.05,907.05 C478.05,896 481.95,886.6 489.75,878.75 497.6,870.95 507,867.05 518.05,867.05 L537.05,867.05 C548.1,867.05 557.5,870.95 565.3,878.75 573.15,886.6 577.05,896 577.05,907.05 L577.05,983.05 C577.05,993.5 573.55,1002.5 566.5,1010.05 L759.85,1010.05 559.05,770.05 C525.35,727.8 490.1,687.7 453.35,649.65z"/>
      </g>
    </g>
  </g>
  <g id="Livello.__201">
    <g id="shape16">
      <path id="path10" fill="#888888" fill-opacity="1" d="M230.6,535.9 Q198.35,535.9 198.35,568.15 L198.35,708.35 330.95,708.35 284.3,661.7 363.55,583.95 341.3,583.95 341.3,568.15 C341.3,546.65 330.55,535.9 309.05,535.9 L230.6,535.9z M198.35,738.65 L198.35,769.6 C198.35,791.05 209.1,801.8 230.6,801.8 L424.45,801.8 361.25,738.65 198.35,738.65z"/>
      <path id="path11" fill="#545454" fill-opacity="1" d="M198.35,708.35 L198.35,738.65 361.25,738.65 330.95,708.35 198.35,708.35z"/>
      <path id="path14" fill="#717171" fill-opacity="1" d="M445.65,583.95 L363.55,583.95 284.3,661.7 330.95,708.35 477.85,708.35 477.85,616.15 C477.85,594.7 467.1,583.95 445.65,583.95z M477.85,786.65 L477.85,738.65 361.25,738.65 424.45,801.8 462.7,801.8 C466.9,801.8 470.5,800.3 473.45,797.35 476.4,794.4 477.85,790.85 477.85,786.65z"/>
      <path id="path15" fill="#333333" fill-opacity="1" d="M330.95,708.35 L361.25,738.65 477.85,738.65 477.85,708.35 330.95,708.35z"/>
    </g>
  </g>
  <g id="Calque.__201">
    <g id="shape26">
      <path id="path18" fill="#545454" fill-opacity="1" d="M269.25,646.65 L284.3,661.7 C296.2,673.6 310.55,679.55 327.35,679.45 344.1,679.55 358.45,673.6 370.3,661.7 L476.85,555.2 C488.7,543.35 387.65,442.3 375.8,454.15 L269.3,560.65 Q251.45,578.4 251.45,603.6 C251.45,620.4 257.45,634.75 269.25,646.65z M290.4,601.85 C290.4,591.15 294.2,581.95 301.75,574.35 309.35,566.8 318.5,563 329.2,563 339.95,563 349.1,566.8 356.65,574.35 364.25,581.95 368.05,591.15 368.05,601.85 368.05,612.55 364.25,621.75 356.65,629.3 349.1,636.9 339.95,640.7 329.2,640.7 318.5,640.7 309.35,636.9 301.75,629.3 294.2,621.75 290.4,612.55 290.4,601.85z"/>
      <path id="path19" fill="#333333" fill-opacity="1" d="M290.4,601.85 C290.4,612.55 294.2,621.75 301.75,629.3 309.35,636.9 318.5,640.7 329.2,640.7 339.95,640.7 349.1,636.9 356.65,629.3 364.25,621.75 368.05,612.55 368.05,601.85 368.05,591.15 364.25,581.95 356.65,574.35 349.1,566.8 339.95,563 329.2,563 318.5,563 309.35,566.8 301.75,574.35 294.2,581.95 290.4,591.15 290.4,601.85z"/>
    </g>
  </g>
  <g id="Calque.__202">
    <g id="shape31">
      <path id="path22" fill="#CCCCCC" fill-opacity="1" d="M553.25,336.275 Q539.945,336.245 530.4,345.675 L421.15,454.925 L421.15,454.95 C414.9,461.25 411.75,468.85 411.75,477.7 411.7,486.55 414.85,494.15 421.15,500.5 427.45,506.8 435.05,509.95 443.9,510 452.75,510 460.4,506.85 466.75,500.6 L466.75,500.575 L576,391.325 L576,391.35 C582.25,385 585.4,377.4 585.45,368.55 585.45,359.7 582.3,352.1 576,345.8 569.7,339.45 562.1,336.3 553.25,336.3"/>
    </g>
  </g>
  <g id="Calque.__203">
    <g id="shape33">
      <path id="path23" fill="#999999" fill-opacity="1" d="M376.45,281.35 Q376.453,264.758 364.725,253.025 L364.75,253.05 C356.9,245.2 347.45,241.3 336.4,241.3 325.35,241.3 315.9,245.2 308.1,253.05 300.25,260.85 296.35,270.3 296.35,281.35 296.45,332.15 306.4,378.9 326.25,421.55 L326.225,421.525 L326.25,421.55 C342.3,456.2 364.95,488.15 394.1,517.3 L394.075,517.275 L394.075,517.25 L394.1,517.25 C458.55,581.75 536.2,614.35 627.05,615 638.1,615.05 647.55,611.2 655.45,603.45 663.3,595.65 667.3,586.25 667.4,575.25 667.45,564.2 663.6,554.75 655.85,546.9 648.05,539 638.65,535 627.65,534.9 558.65,534.35 499.7,509.6 450.75,460.65 L450.725,460.625 L450.725,460.65 L450.75,460.65 C428.5,438.4 411.2,414.1 398.85,387.75 L398.875,387.775 L398.9,387.8 C383.85,355.45 376.35,319.95 376.45,281.35z"/>
    </g>
  </g>
  <g id="Calque.__204">
    <g id="shape35">
      <path id="path24" fill="#FF5A4F" fill-opacity="1" d="M517.3,349.6 C517.3,365.15 522.8,378.45 533.8,389.5 541.65,397.35 550.7,402.4 560.9,404.65 564.95,405.55 569.25,406 573.7,406 578.15,406 582.45,405.55 586.5,404.65 596.65,402.4 605.7,397.35 613.55,389.5 624.55,378.45 630.05,365.15 630.05,349.6 630.05,334.05 624.55,320.8 613.55,309.75 602.55,298.75 589.25,293.25 573.7,293.25 558.15,293.25 544.85,298.75 533.8,309.75 522.8,320.8 517.3,334.05 517.3,349.6z"/>
      <path id="path25" fill="#FFFFFF" fill-opacity="0.4" d="M717.75,112.9 Q716.4,111.9 715.1,111 C711.15,108.1 706.8,107 702.05,107.7 697.3,108.45 693.5,110.75 690.6,114.65 687.65,118.55 686.55,122.9 687.25,127.7 688,132.45 690.3,136.3 694.25,139.2 695,139.75 695.75,140.35 696.5,140.9 L696.55,141 C745.95,178.2 774.85,227.25 783.3,288.1 783.95,292.85 786.25,296.7 790.1,299.65 793.95,302.6 798.3,303.75 803.1,303.05 807.9,302.4 811.75,300.15 814.65,296.3 817.6,292.4 818.8,288.05 818.15,283.3 808.4,212.8 774.95,156 717.8,112.95 717.75,112.95 717.75,112.95 717.75,112.9z M669.2,171 C665.25,168.15 660.9,167.1 656.1,167.85 651.35,168.6 647.55,170.95 644.7,174.9 641.85,178.85 640.8,183.2 641.55,187.95 642.3,192.7 644.65,196.55 648.6,199.4 648.95,199.65 649.35,199.95 649.7,200.25 690.4,231.2 714.3,272 721.35,322.65 722,327.4 724.25,331.3 728.1,334.25 732,337.2 736.35,338.3 741.15,337.6 745.9,336.95 749.75,334.7 752.7,330.85 755.65,326.95 756.8,322.6 756.15,317.8 747.8,257.65 719.4,209.15 670.95,172.3 670.4,171.85 669.8,171.4 669.2,171z M671.85,368.1 C675.7,371.05 680,372.15 684.8,371.45 689.6,370.8 693.45,368.55 696.4,364.7 699.35,360.75 700.45,356.4 699.8,351.65 692.75,300.9 668.8,259.95 627.95,228.85 627.45,228.5 626.95,228.1 626.45,227.7 622.6,224.75 618.3,223.65 613.5,224.35 608.7,224.95 604.8,227.2 601.85,231.05 598.9,234.95 597.75,239.3 598.45,244.05 599.05,248.85 601.3,252.7 605.2,255.65 605.65,256 606.15,256.4 606.6,256.8 639.75,282.05 659.25,315.25 665.05,356.5 665.7,361.25 668,365.1 671.85,368.1z"/>
    </g>
  </g>
</svg>