<?xml version="1.0" encoding="utf-8"?>
<!-- Generator: flash2svg, http://dissentgraphics.com/tools/flash2svg -->
<svg xmlns:xlink="http://www.w3.org/1999/xlink" id="Tweetbot" image-rendering="optimizeSpeed" baseProfile="basic" version="1.1" style="background-color:#ffffff" x="0px" y="0px" width="1024px" height="1024px" viewBox="0 0 1024 1024" enable-background="new 0 0 1024 1024" xmlns="http://www.w3.org/2000/svg">
  <defs transform="matrix(1 0 0 1 0 0) "/>
  <g id="shadow">
    <g id="shape">
      <path id="path" fill="#000000" fill-opacity="0.09803921568627451" d="M969.65,351.3 Q961.05,330.45 950.25,310.45 C946.2,302.9 941.9,295.4 937.35,288.05 917.8,256.35 893.95,226.4 865.8,198.25 773.65,106.1 662.35,60 532,60 401.65,60 290.4,106.1 198.25,198.25 106.1,290.4 60,401.65 60,532 60,662.35 106.1,773.65 198.25,865.8 290.4,957.95 401.65,1004 532,1004 662.35,1004 773.65,957.95 865.8,865.8 916.55,815 953.35,758.4 976.15,696.05 994.7,645.2 1004,590.55 1004,532 1004,487.1 998.55,444.45 987.6,404.05 986.35,399.5 985.05,394.95 983.7,390.45 979.6,377.15 974.9,364.1 969.65,351.3z"/>
    </g>
  </g>
  <mask id="criclebg1">
    <g id="g">
      <g id="shape7">
        <path id="path11" fill="#FFFFFF" fill-opacity="1" d="M943.25,316.5 C940.55,310.55 937.6,304.5 934.5,298.45 930.7,291.05 926.55,283.5 922.2,276.05 901.9,241.55 876.4,208.85 845.85,178.3 773.4,105.85 689.1,61.85 593.05,46.4 592.75,46.35 592.45,46.3 592.2,46.25 583.95,44.95 575.6,43.85 567.05,42.95 563.45,42.55 559.85,42.2 556.05,41.9 551.6,41.5 546.9,41.15 542.15,40.9 541.7,40.85 541.3,40.85 540.85,40.85 531.35,40.3 521.75,40.05 512.05,40.05 502.7,40.05 493.45,40.3 484.15,40.8 482.45,40.9 480.75,41 479.05,41.1 475.4,41.3 471.75,41.55 468.05,41.9 356.6,51.15 260,96.6 178.3,178.3 136.15,220.45 103.65,266.6 80.9,316.5 73.05,333.65 66.4,351.1 60.85,369 Q40.05,436.2 40.05,512.05 C40.05,642.4 86.15,753.7 178.3,845.85 226.35,893.85 279.6,929.4 337.4,952.15 343.85,954.75 350,957 356.2,959.1 396.7,972.95 439.25,981 484.15,983.35 484.3,983.35 484.4,983.35 484.55,983.35 493.05,983.8 501.15,984.05 509.05,984.05 510.25,984.05 511.15,984.05 512.05,984.05 521.8,984.05 531.4,983.8 540.85,983.35 541.3,983.3 541.7,983.3 542.15,983.25 544.65,983.1 546.9,982.95 549.1,982.8 569.3,981.35 589,978.75 607.8,975.1 615.75,973.55 623.6,971.8 631.2,969.95 695.9,953.7 754.55,924 807.35,880.8 820.6,869.9 833.4,858.3 845.85,845.85 870.55,821.15 891.95,795.1 909.95,767.7 927.5,741.15 941.9,713.25 953.2,684.05 957.15,673.8 960.75,663.4 963.95,652.9 975.65,614.25 982.25,573.5 983.75,530.55 983.95,524.5 984.05,518.3 984.05,512.05 984.05,511.4 984.05,510.7 984.05,510.05 984.05,509.7 984.05,509.4 984.05,509.05 983.85,468.4 979.1,429.55 969.75,392.05 968.65,387.7 967.4,383.05 966.1,378.45 963.85,370.6 961.35,362.65 958.55,354.65 958.25,353.9 957.95,353 957.65,352.1 953.4,340.1 948.65,328.3 943.25,316.5z"/>
      </g>
    </g>
  </mask>
  <g id="masked" mask="url(#criclebg1)">
    <g id="criclebg">
      <g id="shape2">
        <path id="path1" fill="#2E6690" fill-opacity="1" d="M943.25,318.65 C940.55,312.7 937.6,306.65 934.5,300.6 930.7,293.2 926.55,285.65 922.2,278.2 901.9,243.7 876.4,211 845.85,180.45 773.4,108 689.1,64 593.05,48.55 592.75,48.5 592.45,48.45 592.2,48.4 583.95,47.1 575.6,46 567.05,45.1 563.45,44.7 559.85,44.35 556.05,44.05 L556.05,44.025 L556.05,482.9 540.85,482.9 540.85,985.475 L540.85,985.5 C541.3,985.45 541.7,985.45 542.15,985.4 544.65,985.25 546.9,985.1 549.1,984.95 569.3,983.5 589,980.9 607.8,977.25 615.75,975.7 623.6,973.95 631.2,972.1 695.9,955.85 754.55,926.15 807.35,882.95 820.6,872.05 833.4,860.45 845.85,848 870.55,823.3 891.95,797.25 909.95,769.85 927.5,743.3 941.9,715.4 953.2,686.2 957.15,675.95 960.75,665.55 963.95,655.05 975.65,616.4 982.25,575.65 983.75,532.7 983.95,526.65 984.05,520.45 984.05,514.2 984.05,513.55 984.05,512.85 984.05,512.2 984.05,511.85 984.05,511.55 984.05,511.2 983.85,470.55 979.1,431.7 969.75,394.2 968.65,389.85 967.4,385.2 966.1,380.6 963.85,372.75 961.35,364.8 958.55,356.8 958.25,356.05 957.95,355.15 957.65,354.25 953.4,342.25 948.65,330.45 943.25,318.65z"/>
        <path id="path2" fill="none" stroke="#294964" stroke-opacity="1" stroke-width="8.05" stroke-linecap="round" stroke-linejoin="round" d="M556.05,44.025 L556.05,482.9"/>
        <path id="path3" fill="none" stroke="#000000" stroke-opacity="1" stroke-width="8.05" stroke-linecap="round" stroke-linejoin="round" d="M556.05,482.9 L540.85,482.9"/>
        <path id="path4" fill="#3777A6" fill-opacity="1" d="M542.15,43.05 C541.7,43 541.3,43 540.85,43 531.35,42.45 521.75,42.2 512.05,42.2 502.7,42.2 493.45,42.45 484.15,42.95 482.45,43.05 480.75,43.15 479.05,43.25 475.4,43.45 471.75,43.7 468.05,44.05 L468.05,482.9 540.85,482.9 556.05,482.9 556.05,44.025 L556.05,44.05 C551.6,43.65 546.9,43.3 542.15,43.05z"/>
        <path id="path5" fill="none" stroke="#579AD4" stroke-opacity="1" stroke-width="8.05" stroke-linecap="round" stroke-linejoin="round" d="M468.05,44.05 L468.05,482.9"/>
        <path id="path6" fill="none" stroke="#000000" stroke-opacity="1" stroke-width="8.05" stroke-linecap="round" stroke-linejoin="round" d="M468.05,482.9 L540.85,482.9 556.05,482.9"/>
        <path id="path7" fill="none" stroke="#294964" stroke-opacity="1" stroke-width="8.05" stroke-linecap="round" stroke-linejoin="round" d="M556.05,482.9 L556.05,44.025"/>
        <path id="path8" fill="#666666" fill-opacity="1" d="M80.9,318.65 C73.05,335.8 66.4,353.25 60.85,371.15 Q40.05,438.35 40.05,514.2 C40.05,644.55 86.15,755.85 178.3,848 226.35,896 279.6,931.55 337.4,954.3 343.85,956.9 350,959.15 356.2,961.25 396.7,975.1 439.25,983.15 484.15,985.5 484.3,985.5 484.4,985.5 484.55,985.5 493.05,985.95 501.15,986.2 509.05,986.2 510.25,986.2 511.15,986.2 512.05,986.2 521.8,986.2 531.4,985.95 540.85,985.5 L540.85,985.475 L540.85,482.9 468.05,482.9 468.05,44.05 C356.6,53.3 260,98.75 178.3,180.45 136.15,222.6 103.65,268.75 80.9,318.65z"/>
        <path id="path9" fill="none" stroke="#000000" stroke-opacity="1" stroke-width="8.05" stroke-linecap="round" stroke-linejoin="round" d="M540.85,482.9 L468.05,482.9"/>
        <path id="path10" fill="none" stroke="#579AD4" stroke-opacity="1" stroke-width="8.05" stroke-linecap="round" stroke-linejoin="round" d="M468.05,482.9 L468.05,44.05"/>
      </g>
    </g>
  </g>
  <g id="Calque.__208">
    <g id="shape9">
      <path id="path12" fill="#000000" fill-opacity="0.24705882352941178" d="M189.05,512.05 Q189.05,645.8 283.65,740.45 C336.55,793.4 398.65,824.1 469.9,832.65 470.65,832.75 471.35,832.85 472.1,832.9 485.15,834.35 498.45,835.1 512.05,835.1 512.7,835.1 513.4,835.1 514.05,835.1 L514.05,578.3 465.85,578.3 465.85,506 463.85,506 463.85,192.275 L463.85,192.3 C395.1,201.8 335.05,232.25 283.65,283.65 220.6,346.7 189.05,422.85 189.05,512.05z"/>
    </g>
  </g>
  <g id="criclebg2">
    <g id="shape11">
      <path id="path13" fill="#000000" fill-opacity="0.2" d="M909.95,767.7 L696.3,554.05 540.85,746.425 540.85,983.325 L540.85,983.35 C541.3,983.3 541.7,983.3 542.15,983.25 544.65,983.1 546.9,982.95 549.1,982.8 569.3,981.35 589,978.75 607.8,975.1 615.75,973.55 623.6,971.8 631.2,969.95 695.9,953.7 754.55,924 807.35,880.8 820.6,869.9 833.4,858.3 845.85,845.85 Q882.852,808.823 909.95,767.7z"/>
    </g>
  </g>
  <g id="Calque.__209">
    <g id="shape13">
      <path id="path14" fill="#BA9751" fill-opacity="1" d="M620.1,481.6 Q575.35,436.85 512.05,436.85 C469.85,436.85 433.85,451.75 404,481.6 374.15,511.45 359.25,547.45 359.25,589.65 359.25,631.85 374.15,667.85 404,697.7 433.85,727.55 469.85,742.45 512.05,742.45 554.25,742.45 590.25,727.55 620.1,697.7 649.95,667.85 664.85,631.85 664.85,589.65 664.85,547.45 649.95,511.45 620.1,481.6z"/>
    </g>
  </g>
  <g id="criclebg3">
    <g id="shape15">
      <path id="path15" fill="#FFCB5B" fill-opacity="1" d="M766.9,730.05 C766.85,659.7 741.95,599.6 692.2,549.85 642.45,500.1 582.4,475.25 512.05,475.25 441.7,475.2 381.6,500.1 331.85,549.85 L331.825,549.85 L331.85,549.825 L331.85,549.85 C282.1,599.6 257.2,659.7 257.25,730.05 257.25,800.4 282.1,860.45 331.85,910.2 381.6,959.95 441.7,984.85 512.05,984.9 582.4,984.85 642.45,960 692.2,910.25 L692.2,910.225 L692.225,910.2 L692.25,910.2 C742,860.45 766.85,800.4 766.9,730.05z M701.2,731.75 C700.45,783.65 681.95,827.65 645.8,863.8 L645.775,863.8 L645.8,863.775 L645.8,863.8 C608.85,900.75 564.3,919.25 512.05,919.25 459.8,919.25 415.2,900.75 378.25,863.8 341.3,826.85 322.85,782.3 322.9,730.05 322.9,677.8 341.35,633.25 378.25,596.3 L378.25,596.275 L378.275,596.25 L378.3,596.25 C415.25,559.35 459.8,540.9 512.05,540.9 564.3,540.85 608.85,559.3 645.8,596.25 682.65,633.1 701.15,678.15 701.2,731.3 L701.2,731.725z"/>
      <path id="path16" fill="#3C311A" fill-opacity="1" d="M701.2,731.725 L701.2,731.3 C701.15,678.15 682.65,633.1 645.8,596.25 608.85,559.3 564.3,540.85 512.05,540.9 459.8,540.9 415.25,559.35 378.3,596.25 L378.275,596.25 L378.25,596.275 L378.25,596.3 C341.35,633.25 322.9,677.8 322.9,730.05 322.85,782.3 341.3,826.85 378.25,863.8 415.2,900.75 459.8,919.25 512.05,919.25 564.3,919.25 608.85,900.75 645.8,863.8 L645.8,863.775 L645.775,863.8 L645.8,863.8 C681.95,827.65 700.45,783.65 701.2,731.75"/>
    </g>
  </g>
  <g id="V">
    <g id="Symbole.__2028_1" overflow="visible">
      <g id="Calque.__215">
        <g id="shape49">
          <path id="path43" fill="#666666" fill-opacity="1" d="M578.466,621.534 C578.266,621.334 578.133,621.2 578,621.067 559.733,603 537.733,594 512,594 486.067,594 463.867,603.2 445.534,621.534 427.2,639.867 418,662.067 418,688 418,713.733 427,735.733 445.067,754 445.2,754.133 445.334,754.266 445.534,754.466 463.867,772.8 486.067,782 512,782 537.933,782 560.133,772.8 578.466,754.466 596.8,736.133 606,713.933 606,688 606,662.067 596.8,639.867 578.466,621.534z"/>
        </g>
      </g>
    </g>
  </g>
  <g id="Calque.__210">
    <g id="shape20">
      <path id="path19" fill="#191919" fill-opacity="1" d="M730.05,395.55 L730.05,316.05 627.65,316.05 627.65,395.55 C627.65,409.7 632.65,421.75 642.65,431.75 652.65,441.75 664.7,446.75 678.85,446.75 693,446.75 705.05,441.75 715.05,431.75 725.05,421.75 730.05,409.7 730.05,395.55z M389.25,395.55 L389.25,316.05 286.85,316.05 286.85,395.55 C286.85,409.7 291.85,421.75 301.85,431.75 311.85,441.75 323.9,446.75 338.05,446.75 352.2,446.75 364.25,441.75 374.25,431.75 384.25,421.75 389.25,409.7 389.25,395.55z"/>
    </g>
  </g>
  <g id="Calque.__211">
    <g id="shape24">
      <path id="path22" fill="#FFFFFF" fill-opacity="1" d="M712.05,323.55 Q712.05,319.85 711.35,316.4 L646.8,316.4 C646.3,318.7 646.05,321.1 646.05,323.55 646.05,332.65 649.25,340.4 655.7,346.85 662.15,353.3 669.95,356.55 679.05,356.55 688.15,356.55 695.9,353.3 702.35,346.85 708.8,340.4 712.05,332.65 712.05,323.55z"/>
      <path id="path23" fill="#FF6600" fill-opacity="1" d="M372.05,323.55 C372.05,321.1 371.8,318.7 371.35,316.4 L306.8,316.4 C306.3,318.7 306.05,321.1 306.05,323.55 306.05,332.65 309.25,340.4 315.7,346.85 322.15,353.3 329.95,356.55 339.05,356.55 348.15,356.55 355.9,353.3 362.35,346.85 368.8,340.4 372.05,332.65 372.05,323.55z"/>
    </g>
  </g>
  <g id="Calque.__212">
    <g id="shape27">
      <path id="path24" fill="#333333" fill-opacity="1" d="M391.65,122.25 Q384.65,129.3 384.65,139.25 C384.65,145.9 387,151.55 391.65,156.2 396.35,160.9 402,163.25 408.65,163.25 415.3,163.25 420.95,160.9 425.6,156.2 430.3,151.55 432.65,145.9 432.65,139.25 432.65,132.6 430.3,126.95 425.6,122.25 420.95,117.6 415.3,115.25 408.65,115.25 402,115.25 396.35,117.6 391.65,122.25z M155.95,373.8 C151.3,369.15 145.65,366.8 139,366.8 132.35,366.8 126.7,369.15 122,373.8 117.35,378.5 115,384.15 115,390.8 115,397.45 117.35,403.1 122,407.75 126.7,412.45 132.35,414.8 139,414.8 145.65,414.8 151.3,412.45 155.95,407.75 160.65,403.1 163,397.45 163,390.8 163,384.15 160.65,378.5 155.95,373.8z M266.9,232.8 C266.9,226.15 264.55,220.5 259.85,215.8 255.2,211.15 249.55,208.8 242.9,208.8 236.25,208.8 230.6,211.15 225.9,215.8 221.25,220.5 218.9,226.15 218.9,232.8 218.9,239.45 221.25,245.1 225.9,249.75 230.6,254.45 236.25,256.8 242.9,256.8 249.55,256.8 255.2,254.45 259.85,249.75 264.55,245.1 266.9,239.45 266.9,232.8z M105.6,563.5 C100.95,568.2 98.6,573.85 98.6,580.5 98.6,587.15 100.95,592.8 105.6,597.45 110.3,602.15 115.95,604.5 122.6,604.5 129.25,604.5 134.9,602.15 139.55,597.45 144.25,592.8 146.6,587.15 146.6,580.5 146.6,573.85 144.25,568.2 139.55,563.5 134.9,558.85 129.25,556.5 122.6,556.5 115.95,556.5 110.3,558.85 105.6,563.5z M196.1,731.55 C189.45,731.55 183.8,733.9 179.1,738.55 174.45,743.25 172.1,748.9 172.1,755.55 172.1,762.2 174.45,767.85 179.1,772.5 183.8,777.2 189.45,779.55 196.1,779.55 202.75,779.55 208.4,777.2 213.05,772.5 217.75,767.85 220.1,762.2 220.1,755.55 220.1,748.9 217.75,743.25 213.05,738.55 208.4,733.9 202.75,731.55 196.1,731.55z"/>
    </g>
  </g>
  <g id="Calque.__213">
    <g id="shape37">
      <path id="path33" fill="#999999" fill-opacity="1" d="M384.65,131.25 Q384.65,141.2 391.65,148.2 C396.35,152.9 402,155.25 408.65,155.25 415.3,155.25 420.95,152.9 425.6,148.2 430.3,143.55 432.65,137.9 432.65,131.25 432.65,124.6 430.3,118.95 425.6,114.25 420.95,109.6 415.3,107.25 408.65,107.25 402,107.25 396.35,109.6 391.65,114.25 387,118.95 384.65,124.6 384.65,131.25z M155.95,365.8 C151.3,361.15 145.65,358.8 139,358.8 132.35,358.8 126.7,361.15 122,365.8 117.35,370.5 115,376.15 115,382.8 115,389.45 117.35,395.1 122,399.75 126.7,404.45 132.35,406.8 139,406.8 145.65,406.8 151.3,404.45 155.95,399.75 160.65,395.1 163,389.45 163,382.8 163,376.15 160.65,370.5 155.95,365.8z M259.85,241.75 C264.55,237.1 266.9,231.45 266.9,224.8 266.9,218.15 264.55,212.5 259.85,207.8 255.2,203.15 249.55,200.8 242.9,200.8 236.25,200.8 230.6,203.15 225.9,207.8 221.25,212.5 218.9,218.15 218.9,224.8 218.9,231.45 221.25,237.1 225.9,241.75 230.6,246.45 236.25,248.8 242.9,248.8 249.55,248.8 255.2,246.45 259.85,241.75z M98.6,572.5 C98.6,579.15 100.95,584.8 105.6,589.45 110.3,594.15 115.95,596.5 122.6,596.5 129.25,596.5 134.9,594.15 139.55,589.45 144.25,584.8 146.6,579.15 146.6,572.5 146.6,565.85 144.25,560.2 139.55,555.5 134.9,550.85 129.25,548.5 122.6,548.5 115.95,548.5 110.3,550.85 105.6,555.5 100.95,560.2 98.6,565.85 98.6,572.5z M196.1,723.55 C189.45,723.55 183.8,725.9 179.1,730.55 174.45,735.25 172.1,740.9 172.1,747.55 172.1,754.2 174.45,759.85 179.1,764.5 183.8,769.2 189.45,771.55 196.1,771.55 202.75,771.55 208.4,769.2 213.05,764.5 217.75,759.85 220.1,754.2 220.1,747.55 220.1,740.9 217.75,735.25 213.05,730.55 208.4,725.9 202.75,723.55 196.1,723.55z"/>
    </g>
  </g>
</svg>