<?xml version="1.0" encoding="utf-8"?>
<!-- Generator: flash2svg, http://dissentgraphics.com/tools/flash2svg -->
<svg xmlns:xlink="http://www.w3.org/1999/xlink" id="Twitterrific" image-rendering="optimizeSpeed" baseProfile="basic" version="1.1" style="background-color:#ffffff" x="0px" y="0px" width="1024px" height="1024px" viewBox="0 0 1024 1024" enable-background="new 0 0 1024 1024" xmlns="http://www.w3.org/2000/svg">
  <defs transform="matrix(1 0 0 1 0 0) "/>
  <g id="temp">
    <g id="shape">
      <path id="path" fill="#CCCC99" fill-opacity="1" d="M708,642.35 Q706.962,641.062 705.75,639.85 C699.9,634 692.8,631.05 684.55,631.05 L339.55,631.05 C331.3,631.05 324.2,634 318.35,639.85 317.9,640.3 317.5,640.75 317.05,641.2 L427.025,751.175 513.1,837.25 600.05,750.3 708,642.35z"/>
      <path id="path1" fill="#A5A56E" fill-opacity="1" d="M714.55,661.05 C714.55,655.35 713.15,650.25 710.2,645.4 709.7,644.55 708.9,643.45 708,642.35 L600.05,750.3 714.35,864.6 C714.5,863.45 714.55,862.25 714.55,861.05 L714.55,661.05z M317.05,641.2 C312.05,646.8 309.55,653.4 309.55,661.05 L309.55,861.05 C309.55,863.45 309.8,865.75 310.3,867.95 L310.275,867.925 L427.025,751.175 317.05,641.2z"/>
      <path id="path4" fill="#C0C085" fill-opacity="1" d="M310.3,867.95 C311.5,873.3 314.2,878.1 318.35,882.25 324.2,888.1 331.3,891.05 339.55,891.05 L684.55,891.05 C692.8,891.05 699.9,888.1 705.75,882.25 707.45,880.55 708.95,878.7 710.2,876.7 712.45,873.1 713.85,869.05 714.35,864.6 L600.05,750.3 513.1,837.25 427.025,751.175 310.275,867.925"/>
    </g>
    <g id="element1" transform="matrix(1 0 0 1 0 0) "/>
  </g>
  <g id="temp1">
    <g id="shape7">
      <path id="path5" fill="#CCCC99" fill-opacity="1" d="M708,642.35 Q706.962,641.062 705.75,639.85 C699.9,634 692.8,631.05 684.55,631.05 L339.55,631.05 C331.3,631.05 324.2,634 318.35,639.85 317.9,640.3 317.5,640.75 317.05,641.2 L427.025,751.175 513.1,837.25 600.05,750.3 708,642.35z"/>
      <path id="path6" fill="#A5A56E" fill-opacity="1" d="M714.55,661.05 C714.55,655.35 713.15,650.25 710.2,645.4 709.7,644.55 708.9,643.45 708,642.35 L600.05,750.3 714.35,864.6 C714.5,863.45 714.55,862.25 714.55,861.05 L714.55,661.05z M317.05,641.2 C312.05,646.8 309.55,653.4 309.55,661.05 L309.55,861.05 C309.55,863.45 309.8,865.75 310.3,867.95 L310.275,867.925 L427.025,751.175 317.05,641.2z"/>
      <path id="path9" fill="#C0C085" fill-opacity="1" d="M310.3,867.95 C311.5,873.3 314.2,878.1 318.35,882.25 324.2,888.1 331.3,891.05 339.55,891.05 L684.55,891.05 C692.8,891.05 699.9,888.1 705.75,882.25 707.45,880.55 708.95,878.7 710.2,876.7 712.45,873.1 713.85,869.05 714.35,864.6 L600.05,750.3 513.1,837.25 427.025,751.175 310.275,867.925"/>
    </g>
    <g id="element3" transform="matrix(1 0 0 1 0 0) "/>
  </g>
  <g id="temp2">
    <g id="shape14">
      <path id="path10" fill="#CCCC99" fill-opacity="1" d="M708,642.35 Q706.962,641.062 705.75,639.85 C699.9,634 692.8,631.05 684.55,631.05 L339.55,631.05 C331.3,631.05 324.2,634 318.35,639.85 317.9,640.3 317.5,640.75 317.05,641.2 L427.025,751.175 513.1,837.25 600.05,750.3 708,642.35z"/>
      <path id="path11" fill="#A5A56E" fill-opacity="1" d="M714.55,661.05 C714.55,655.35 713.15,650.25 710.2,645.4 709.7,644.55 708.9,643.45 708,642.35 L600.05,750.3 714.35,864.6 C714.5,863.45 714.55,862.25 714.55,861.05 L714.55,661.05z M317.05,641.2 C312.05,646.8 309.55,653.4 309.55,661.05 L309.55,861.05 C309.55,863.45 309.8,865.75 310.3,867.95 L310.275,867.925 L427.025,751.175 317.05,641.2z"/>
      <path id="path14" fill="#C0C085" fill-opacity="1" d="M310.3,867.95 C311.5,873.3 314.2,878.1 318.35,882.25 324.2,888.1 331.3,891.05 339.55,891.05 L684.55,891.05 C692.8,891.05 699.9,888.1 705.75,882.25 707.45,880.55 708.95,878.7 710.2,876.7 712.45,873.1 713.85,869.05 714.35,864.6 L600.05,750.3 513.1,837.25 427.025,751.175 310.275,867.925"/>
    </g>
    <g id="element5" transform="matrix(1 0 0 1 0 0) "/>
  </g>
  <g id="temp3">
    <g id="shape21">
      <path id="path15" fill="#CCCC99" fill-opacity="1" d="M708,642.35 Q706.962,641.062 705.75,639.85 C699.9,634 692.8,631.05 684.55,631.05 L339.55,631.05 C331.3,631.05 324.2,634 318.35,639.85 317.9,640.3 317.5,640.75 317.05,641.2 L427.025,751.175 513.1,837.25 600.05,750.3 708,642.35z"/>
      <path id="path16" fill="#A5A56E" fill-opacity="1" d="M714.55,661.05 C714.55,655.35 713.15,650.25 710.2,645.4 709.7,644.55 708.9,643.45 708,642.35 L600.05,750.3 714.35,864.6 C714.5,863.45 714.55,862.25 714.55,861.05 L714.55,661.05z M317.05,641.2 C312.05,646.8 309.55,653.4 309.55,661.05 L309.55,861.05 C309.55,863.45 309.8,865.75 310.3,867.95 L310.275,867.925 L427.025,751.175 317.05,641.2z"/>
      <path id="path19" fill="#C0C085" fill-opacity="1" d="M310.3,867.95 C311.5,873.3 314.2,878.1 318.35,882.25 324.2,888.1 331.3,891.05 339.55,891.05 L684.55,891.05 C692.8,891.05 699.9,888.1 705.75,882.25 707.45,880.55 708.95,878.7 710.2,876.7 712.45,873.1 713.85,869.05 714.35,864.6 L600.05,750.3 513.1,837.25 427.025,751.175 310.275,867.925"/>
    </g>
    <g id="element7" transform="matrix(1 0 0 1 0 0) "/>
  </g>
  <g id="shadow">
    <g id="shape28">
      <path id="path20" fill="#000000" fill-opacity="0.09803921568627451" d="M969.65,351.3 Q961.05,330.45 950.25,310.45 C946.2,302.9 941.9,295.4 937.35,288.05 917.8,256.35 893.95,226.4 865.8,198.25 773.65,106.1 662.35,60 532,60 401.65,60 290.4,106.1 198.25,198.25 106.1,290.4 60,401.65 60,532 60,662.35 106.1,773.65 198.25,865.8 285.75,953.3 390.5,999.25 512.15,1003.65 518.95,1003.9 525.45,1004 532,1004 596.1,1004 655.6,992.85 710.2,970.7 767.25,947.55 819,912.6 865.8,865.8 916.55,815 953.35,758.4 976.15,696.05 994.7,645.2 1004,590.55 1004,532 1004,487.1 998.55,444.45 987.6,404.05 986.35,399.5 985.05,394.95 983.7,390.45 979.6,377.15 974.9,364.1 969.65,351.3z"/>
    </g>
  </g>
  <g id="circle">
    <g id="shape30">
      <path id="path21" fill="#1B335B" fill-opacity="1" d="M958.55,354.65 C958.25,353.9 957.95,353 957.65,352.1 951.2,333.85 943.5,316.05 934.5,298.45 930.7,291.05 926.55,283.5 922.2,276.05 901.9,241.55 876.4,208.85 845.85,178.3 773.4,105.85 689.1,61.85 593.05,46.4 592.75,46.35 592.45,46.3 592.2,46.25 575.95,43.65 559.4,41.85 542.15,40.9 532.45,40.35 522.3,40.05 512.05,40.05 502.7,40.05 493.45,40.3 484.15,40.8 365.8,46.9 263.85,92.75 178.3,178.3 121.8,234.8 82.65,298.45 60.85,369 Q40.05,436.2 40.05,512.05 C40.05,642.4 86.15,753.7 178.3,845.85 206.7,874.25 236.95,898.3 268.1,917.4 271.45,919.4 274.35,921.15 277.25,922.85 297,934.4 316.9,944.1 337.4,952.15 343.85,954.75 350,957 356.2,959.1 372.4,964.65 388.95,969.25 405.2,972.85 431.15,978.45 457.25,981.95 484.15,983.35 484.3,983.35 484.4,983.35 484.55,983.35 493.05,983.8 501.15,984.05 509.05,984.05 510.25,984.05 511.15,984.05 512.05,984.05 512.1,984.05 512.1,984.05 512.15,984.05 522.3,984.05 532.3,983.8 542.15,983.25 544.65,983.1 546.9,982.95 549.1,982.8 569.3,981.35 589,978.75 607.8,975.1 615.75,973.55 623.6,971.8 631.2,969.95 648.55,965.6 665.5,960.25 682,954 691.6,950.35 701.05,946.35 710.2,942.1 713.05,940.75 715.75,939.45 718.45,938.15 731.25,931.85 743.8,924.95 756.05,917.45 759.1,915.55 762.1,913.65 765.1,911.7 779.75,902.2 793.75,891.95 807.35,880.8 820.6,869.9 833.4,858.3 845.85,845.85 857.7,834 868.8,821.8 879.15,809.35 911.15,770.6 935.85,728.85 953.2,684.05 957.15,673.8 960.75,663.4 963.95,652.9 966.15,645.6 968.2,638.2 970.1,630.6 977.95,598.75 982.55,565.35 983.75,530.55 983.95,524.5 984.05,518.3 984.05,512.05 984.05,511.4 984.05,510.7 984.05,510.05 984.05,509.7 984.05,509.4 984.05,509.05 983.85,468.4 979.1,429.55 969.75,392.05 968.65,387.7 967.4,383.05 966.1,378.45 963.85,370.6 961.35,362.65 958.55,354.65z"/>
    </g>
  </g>
  <mask id="circle1">
    <g id="g">
      <g id="shape36">
        <path id="path24" fill="#FFFFFF" fill-opacity="1" d="M958.55,354.65 C958.25,353.9 957.95,353 957.65,352.1 951.2,333.85 943.5,316.05 934.5,298.45 930.7,291.05 926.55,283.5 922.2,276.05 901.9,241.55 876.4,208.85 845.85,178.3 773.4,105.85 689.1,61.85 593.05,46.4 592.75,46.35 592.45,46.3 592.2,46.25 575.95,43.65 559.4,41.85 542.15,40.9 532.45,40.35 522.3,40.05 512.05,40.05 502.7,40.05 493.45,40.3 484.15,40.8 365.8,46.9 263.85,92.75 178.3,178.3 121.8,234.8 82.65,298.45 60.85,369 Q40.05,436.2 40.05,512.05 C40.05,642.4 86.15,753.7 178.3,845.85 206.7,874.25 236.95,898.3 268.1,917.4 271.45,919.4 274.35,921.15 277.25,922.85 297,934.4 316.9,944.1 337.4,952.15 343.85,954.75 350,957 356.2,959.1 372.4,964.65 388.95,969.25 405.2,972.85 431.15,978.45 457.25,981.95 484.15,983.35 484.3,983.35 484.4,983.35 484.55,983.35 493.05,983.8 501.15,984.05 509.05,984.05 510.25,984.05 511.15,984.05 512.05,984.05 522.35,984.05 532.55,983.75 542.15,983.25 544.65,983.1 546.9,982.95 549.1,982.8 569.3,981.35 589,978.75 607.8,975.1 615.75,973.55 623.6,971.8 631.2,969.95 648.55,965.6 665.5,960.25 682,954 694.4,949.25 706.55,943.95 718.45,938.15 731.25,931.85 743.8,924.95 756.05,917.45 759.1,915.55 762.1,913.65 765.1,911.7 779.75,902.2 793.75,891.95 807.35,880.8 820.6,869.9 833.4,858.3 845.85,845.85 857.7,834 868.8,821.8 879.15,809.35 911.15,770.6 935.85,728.85 953.2,684.05 957.15,673.8 960.75,663.4 963.95,652.9 966.15,645.6 968.2,638.2 970.1,630.6 977.95,598.75 982.55,565.35 983.75,530.55 983.95,524.5 984.05,518.3 984.05,512.05 984.05,511.4 984.05,510.7 984.05,510.05 984.05,509.7 984.05,509.4 984.05,509.05 983.85,468.4 979.1,429.55 969.75,392.05 968.65,387.7 967.4,383.05 966.1,378.45 963.85,370.6 961.35,362.65 958.55,354.65z"/>
      </g>
    </g>
  </mask>
  <g id="masked" mask="url(#circle1)">
    <g id="Calque.__202">
      <g id="shape32">
        <path id="path22" fill="#246DCA" fill-opacity="1" d="M883.15,300.65 C819.4,236.95 745.35,198.05 661,184 576.7,198.05 502.6,236.95 438.8,300.65 357.05,382.5 316.15,481.2 316.15,596.9 L316.15,943.15 C316.15,1058.85 357.05,1157.55 438.8,1239.3 502.6,1303.1 576.7,1342.05 661,1356.1 745.35,1342.05 819.4,1303.1 883.15,1239.3 964.95,1157.55 1005.9,1058.85 1005.9,943.15 L1005.9,596.9 C1005.9,481.2 964.95,382.5 883.15,300.65z"/>
        <path id="path23" fill="#2A84F6" fill-opacity="1" d="M587,178 L427.85,178 C312.15,178 213.45,218.9 131.65,300.65 49.9,382.5 8.95,481.2 8.95,596.9 L8.95,943.15 C8.95,1058.85 49.9,1157.55 131.65,1239.3 213.45,1321.1 312.15,1362 427.85,1362 L587,1362 C612.5,1362 637.2,1360.05 661,1356.1 576.7,1342.05 502.6,1303.1 438.8,1239.3 357.05,1157.55 316.15,1058.85 316.15,943.15 L316.15,596.9 C316.15,481.2 357.05,382.5 438.8,300.65 502.6,236.95 576.7,198.05 661,184 637.2,180.05 612.5,178 587,178z"/>
      </g>
    </g>
  </g>
  <g id="Calque.__203">
    <g id="shape38">
      <path id="path25" fill="#C69F2D" fill-opacity="1" d="M413.85,783.55 L391.35,772.35 C391.8,788.65 397.85,802.6 409.5,814.2 L468,872.85 C480.15,884.9 494.85,891 512,891.05 512.05,891.05 512.1,891.05 512.15,891.05 529.25,890.95 543.85,884.9 555.9,872.85 L614.55,814.2 C626.6,802.1 632.7,787.45 632.8,770.25 L610.45,781.75 C609.5,791.8 606.9,801.25 602.75,810.05 597.9,820.15 591,829.45 581.95,837.9 562.65,856 539.35,865.05 512.05,865.05 510.45,865.05 508.85,865 507.3,864.95 482.05,863.95 460.3,854.95 442.15,837.9 425.7,822.5 416.3,804.4 413.85,783.55z"/>
      <path id="path26" fill="#660000" fill-opacity="1" d="M581.95,837.9 C591,829.45 597.9,820.15 602.75,810.05 606.9,801.25 609.5,791.8 610.45,781.75 L555.575,810.025 512.15,832.375 512,832.45 413.85,783.55 C416.3,804.4 425.7,822.5 442.15,837.9 460.3,854.95 482.05,863.95 507.3,864.95 508.85,865 510.45,865.05 512.05,865.05 539.35,865.05 562.65,856 581.95,837.9z"/>
    </g>
  </g>
  <g id="Calque.__204">
    <g id="shape42">
      <path id="path27" fill="#2A84F6" fill-opacity="1" d="M593.75,188.35 C589.15,178.35 583.65,167.85 577.4,157 559.65,126.3 540.95,102.1 521.3,84.45 501.65,66.85 486.85,60.95 476.8,66.75 Q462.69,74.906 468.975,109.425 L469,109.45 C455.75,98.75 442.1,90.8 428.3,85.8 408.75,78.6 394.65,79.45 385.8,88.25 377,97.05 376.15,111.2 383.3,130.8 386.4,139.3 390.6,147.75 395.95,156.15 393.55,154.5 390.7,152.7 387.65,150.95 375.95,144.2 365.05,139.95 354.9,138.4 344.8,136.8 338.4,138.3 335.8,142.75 333.25,147.25 335.15,153.5 341.55,161.55 348,169.5 357.1,176.85 368.8,183.6 380.55,190.4 391.45,194.6 401.55,196.2 411.7,197.7 418.1,196.25 420.65,191.75 421.3,190.65 421.65,189.4 421.8,187.9 421.95,188.05 422.1,188.2 422.25,188.35 441.1,207.2 460.25,220.15 479.75,227.3 499.3,234.35 513.5,233.55 522.3,224.75 530.2,216.9 531.65,204.8 526.8,188.35 L526.775,188.35 L593.75,188.35z"/>
    </g>
    <g id="Symbole.__2033_1" overflow="visible">
      <g id="Calque.__208">
        <g id="shape66">
          <path id="path46" fill="#000000" fill-opacity="1" d="M388.869,524.002 C376.637,511.769 361.859,505.618 344.5,505.618 327.212,505.618 312.399,511.769 300.166,524.002 287.934,536.199 281.818,551.012 281.818,568.335 Q281.818,594.32 300.166,612.669 C312.399,624.902 327.212,631.018 344.5,631.018 361.859,631.018 376.637,624.902 388.869,612.669 401.102,600.437 407.218,585.623 407.218,568.335 407.218,551.012 401.102,536.199 388.869,524.002z M315.192,528.527 C318.515,528.527 321.343,529.729 323.712,532.062 326.045,534.431 327.247,537.259 327.247,540.583 327.247,543.906 326.045,546.734 323.712,549.068 321.343,551.401 318.515,552.603 315.192,552.603 311.868,552.603 309.04,551.401 306.707,549.068 304.373,546.734 303.171,543.906 303.171,540.583 303.171,537.259 304.373,534.431 306.707,532.062 309.04,529.729 311.868,528.527 315.192,528.527z M385.758,557.128 C389.187,557.234 392.122,558.578 394.49,561.123 396.859,563.669 397.955,566.674 397.849,570.103 397.389,583.255 392.404,594.568 382.965,604.007 373.066,613.942 361.116,618.891 347.116,618.891 346.621,618.891 346.126,618.891 345.667,618.891 342.202,618.856 339.268,617.654 336.828,615.215 334.389,612.775 333.151,609.805 333.151,606.341 333.151,602.876 334.389,599.942 336.828,597.502 339.268,595.063 342.202,593.825 345.667,593.825 346.126,593.825 346.621,593.825 347.116,593.825 354.187,593.79 360.232,591.28 365.217,586.295 L365.253,586.26 C370.025,581.487 372.536,575.83 372.783,569.219 372.889,565.755 374.233,562.856 376.778,560.487 379.324,558.118 382.329,556.987 385.758,557.128z"/>
          <path id="path47" fill="#FFFFFF" fill-opacity="1" d="M315.192,528.527 C311.868,528.527 309.04,529.729 306.707,532.062 304.373,534.431 303.171,537.259 303.171,540.583 303.171,543.906 304.373,546.734 306.707,549.068 309.04,551.401 311.868,552.603 315.192,552.603 318.515,552.603 321.343,551.401 323.712,549.068 326.045,546.734 327.247,543.906 327.247,540.583 327.247,537.259 326.045,534.431 323.712,532.062 321.343,529.729 318.515,528.527 315.192,528.527z"/>
          <path id="path48" fill="#333333" fill-opacity="1" d="M385.758,557.128 C382.329,556.987 379.324,558.118 376.778,560.487 374.233,562.856 372.889,565.755 372.783,569.219 372.536,575.83 370.025,581.487 365.253,586.26 L365.217,586.295 C360.232,591.28 354.187,593.79 347.116,593.825 346.621,593.825 346.126,593.825 345.667,593.825 342.202,593.825 339.268,595.063 336.828,597.502 334.389,599.942 333.151,602.876 333.151,606.341 333.151,609.805 334.389,612.775 336.828,615.215 339.268,617.654 342.202,618.856 345.667,618.891 346.126,618.891 346.621,618.891 347.116,618.891 361.116,618.891 373.066,613.942 382.965,604.007 392.404,594.568 397.389,583.255 397.849,570.103 397.955,566.674 396.859,563.669 394.49,561.123 392.122,558.578 389.187,557.234 385.758,557.128z"/>
        </g>
      </g>
    </g>
    <g id="Symbole.__2035_1" overflow="visible">
      <g id="Calque.__209">
        <g id="shape67">
          <path id="path49" fill="#000000" fill-opacity="1" d="M724.084,524.002 Q705.735,505.618 679.75,505.618 C662.427,505.618 647.613,511.769 635.416,524.002 623.184,536.199 617.068,551.012 617.068,568.335 617.068,575.441 618.093,582.123 620.037,588.027 623.113,597.361 628.204,605.457 635.416,612.669 647.613,624.902 662.427,631.018 679.75,631.018 697.073,631.018 711.851,624.902 724.084,612.669 726.488,610.265 728.644,607.79 730.518,605.28 738.473,594.533 742.432,582.229 742.432,568.335 742.432,551.012 736.316,536.199 724.084,524.002z M659.245,531.921 C661.012,534.077 661.896,536.588 661.896,539.487 661.896,542.81 660.694,545.638 658.361,547.972 655.992,550.305 653.164,551.507 649.841,551.507 646.517,551.507 643.689,550.305 641.356,547.972 639.376,545.992 638.245,543.729 637.926,541.078 637.856,540.547 637.82,540.052 637.82,539.487 637.82,536.163 639.022,533.335 641.356,530.966 643.689,528.633 646.517,527.431 649.841,527.431 653.164,527.431 655.992,528.633 658.361,530.966 658.679,531.285 658.962,531.603 659.245,531.921z M719.7,557.128 C723.129,557.234 726.064,558.578 728.432,561.123 730.801,563.669 731.897,566.674 731.791,570.103 731.543,576.502 730.271,582.477 727.902,588.027 725.392,593.861 721.75,599.164 716.907,604.007 707.008,613.942 695.058,618.891 681.058,618.891 680.563,618.891 680.068,618.891 679.609,618.891 676.144,618.856 673.21,617.654 670.77,615.215 668.331,612.775 667.093,609.805 667.093,606.341 667.093,602.876 668.331,599.942 670.77,597.502 673.21,595.063 676.144,593.825 679.609,593.825 680.068,593.825 680.563,593.825 681.058,593.825 687.245,593.79 692.654,591.881 697.25,588.027 697.922,587.497 698.558,586.896 699.159,586.295 L699.195,586.26 C703.967,581.487 706.478,575.83 706.725,569.219 706.831,565.755 708.174,562.856 710.72,560.487 713.265,558.118 716.271,556.987 719.7,557.128z"/>
          <path id="path50" fill="#FFFFFF" fill-opacity="1" d="M659.245,531.921 C658.962,531.603 658.679,531.285 658.361,530.966 655.992,528.633 653.164,527.431 649.841,527.431 646.517,527.431 643.689,528.633 641.356,530.966 639.022,533.335 637.82,536.163 637.82,539.487 637.82,540.052 637.856,540.547 637.926,541.078 638.245,543.729 639.376,545.992 641.356,547.972 643.689,550.305 646.517,551.507 649.841,551.507 653.164,551.507 655.992,550.305 658.361,547.972 660.694,545.638 661.896,542.81 661.896,539.487 661.896,536.588 661.012,534.077 659.245,531.921z"/>
          <path id="path51" fill="#333333" fill-opacity="1" d="M719.7,557.128 C716.271,556.987 713.265,558.118 710.72,560.487 708.174,562.856 706.831,565.755 706.725,569.219 706.478,575.83 703.967,581.487 699.195,586.26 L699.159,586.295 C698.558,586.896 697.922,587.497 697.25,588.027 692.654,591.881 687.245,593.79 681.058,593.825 680.563,593.825 680.068,593.825 679.609,593.825 676.144,593.825 673.21,595.063 670.77,597.502 668.331,599.942 667.093,602.876 667.093,606.341 667.093,609.805 668.331,612.775 670.77,615.215 673.21,617.654 676.144,618.856 679.609,618.891 680.068,618.891 680.563,618.891 681.058,618.891 695.058,618.891 707.008,613.942 716.907,604.007 721.75,599.164 725.392,593.861 727.902,588.027 730.271,582.477 731.543,576.502 731.791,570.103 731.897,566.674 730.801,563.669 728.432,561.123 726.064,558.578 723.129,557.234 719.7,557.128z"/>
        </g>
      </g>
    </g>
  </g>
  <g id="temp4">
    <g id="shape44">
      <path id="path28" fill="#FFCC00" fill-opacity="1" d="M391.3,770.4 Q391.3,771.45 391.4,772.35 L512.05,832.45 512.15,832.4 632.85,770.25 C632.85,753.1 626.75,738.45 614.6,726.3 L556.05,667.7 C543.9,655.65 529.25,649.6 512.15,649.6 L512.1,649.6 C494.85,649.6 480.15,655.65 468.05,667.7 L409.4,726.3 C397.35,738.45 391.3,753.15 391.3,770.4z"/>
    </g>
  </g>
  <g id="Calque.__205">
    <g id="shape46">
      <path id="path29" fill="#87691D" fill-opacity="1" d="M429.3,735.05 Q424.55,735.05 421.15,738.4 C418.9,740.65 417.8,743.4 417.8,746.55 417.8,749.7 418.9,752.4 421.15,754.65 423.4,756.9 426.15,758.05 429.3,758.05 432.45,758.05 435.15,756.9 437.4,754.65 439.65,752.4 440.8,749.7 440.8,746.55 440.8,743.4 439.65,740.65 437.4,738.4 435.15,736.15 432.45,735.05 429.3,735.05z M594.8,734.55 C591.65,734.55 588.9,735.65 586.65,737.9 584.4,740.15 583.3,742.9 583.3,746.05 583.3,749.2 584.4,751.9 586.65,754.15 588.9,756.4 591.65,757.55 594.8,757.55 597.95,757.55 600.65,756.4 602.9,754.15 605.15,751.9 606.3,749.2 606.3,746.05 606.3,742.9 605.15,740.15 602.9,737.9 600.65,735.65 597.95,734.55 594.8,734.55z"/>
    </g>
  </g>
</svg>