<?xml version="1.0" encoding="utf-8"?>
<!-- Generator: flash2svg, http://dissentgraphics.com/tools/flash2svg -->
<svg id="Videolan" image-rendering="optimizeSpeed" baseProfile="basic" version="1.1" style="background-color:#FFFFFF" x="0px" y="0px" width="1024px" height="1024px" viewBox="0 0 1024 1024" enable-background="new 0 0 1024 1024" xmlns="http://www.w3.org/2000/svg" xmlns:xlink="http://www.w3.org/1999/xlink">
  <defs transform="matrix(1 0 0 1 0 0) "/>
  <g id="shadow">
    <g id="shape">
      <path id="path" fill="#000000" fill-opacity="0.09803921568627451" d="M969.6,351.25 Q961,330.4 950.2,310.4 C946.15,302.85 941.85,295.35 937.3,288 917.75,256.3 893.9,226.35 865.75,198.2 773.6,106.05 662.3,59.95 531.95,59.95 401.6,59.95 290.35,106.05 198.2,198.2 106.05,290.35 59.95,401.6 59.95,531.95 59.95,662.3 106.05,773.6 198.2,865.75 290.35,957.9 401.6,1003.95 531.95,1003.95 662.3,1003.95 773.6,957.9 865.75,865.75 916.5,814.95 953.3,758.35 976.1,696 994.65,645.15 1003.95,590.5 1003.95,531.95 1003.95,487.05 998.5,444.4 987.55,404 986.3,399.45 985,394.9 983.65,390.4 979.55,377.1 974.85,364.05 969.6,351.25z"/>
    </g>
  </g>
  <g id="circle">
    <g id="shape2">
      <path id="path1" fill="#666666" fill-opacity="1" d="M969.7,392 C968.6,387.65 967.35,383 966.05,378.4 963.55,369.65 960.7,360.8 957.6,352.05 951.15,333.8 943.45,316 934.45,298.4 930.65,291 926.5,283.45 922.15,276 901.85,241.5 876.35,208.8 845.8,178.25 773.2,105.65 688.65,61.6 592.15,46.2 575.9,43.6 559.35,41.8 542.1,40.85 532.4,40.3 522.25,40 512,40 502.65,40 493.4,40.25 484.1,40.75 365.75,46.85 263.8,92.7 178.25,178.25 Q40,316.5 40,512 C40,642.35 86.1,753.65 178.25,845.8 231.35,898.85 290.75,936.65 356,959 396.65,972.9 439.2,980.95 484.1,983.3 484.25,983.3 484.35,983.3 484.5,983.3 493,983.75 501.1,984 509,984 510.2,984 511.1,984 512,984 522.3,984 532.5,983.7 542.1,983.2 544.6,983.05 546.85,982.9 549.05,982.75 569.25,981.3 588.95,978.7 607.75,975.05 615.7,973.5 623.55,971.75 631.15,969.9 711.95,949.6 783.3,908.3 845.8,845.8 894.4,797.2 930.2,743.3 953.15,684 964.55,654.6 972.8,623.85 977.9,591.9 981,571.85 982.95,551.45 983.7,530.5 983.9,524.45 984,518.25 984,512 984,511.35 984,510.65 984,510 984,509.65 984,509.35 984,509 983.8,468.35 979.05,429.5 969.7,392z"/>
    </g>
  </g>
  <g id="ico-shadow">
    <g id="shape4">
      <path id="path2" fill="#000000" fill-opacity="0.2" d="M953.15,684 C964.55,654.6 972.8,623.85 977.9,591.9 L977.875,591.875 L572,186 230,833 355.975,958.975 L356,959 C396.65,972.9 439.2,980.95 484.1,983.3 484.25,983.3 484.35,983.3 484.5,983.3 493,983.75 501.1,984 509,984 Q510.494,984 512,984 C522.3,984 532.5,983.7 542.1,983.2 544.6,983.05 546.85,982.9 549.05,982.75 569.25,981.3 588.95,978.7 607.75,975.05 615.7,973.5 623.55,971.75 631.15,969.9 711.95,949.6 783.3,908.3 845.8,845.8 894.4,797.2 930.2,743.3 953.15,684z"/>
    </g>
  </g>
  <g id="ico">
    <g id="group">
      <g id="group1">
        <g id="drawingObject">
          <path id="path3" fill="#C57F00" fill-opacity="1" d="M747.35,563.85 Q739.85,529.5 707.8,529.5 L589.85,529.5 307.15,703.65 444.5,841 768.1,841 C789.5,841 800.3,830.15 800.3,808.8 L747.35,563.85z"/>
        </g>
        <g id="drawingObject1">
          <path id="path4" fill="#F9A000" fill-opacity="1" d="M316,529.55 L316,529.5 Q283.75,529.5 278.3,555.15 L223.6,808.8 C223.6,830.15 234.35,841 255.8,841 L444.5,841 307.15,703.65 589.85,529.55 316,529.55z"/>
        </g>
      </g>
    </g>
    <g id="group2">
      <g id="group3">
        <g id="drawingObject2">
          <path id="path5" fill="#F9A000" fill-opacity="1" d="M679.3,524.8 L656.6,451.55 C614.5,466.2 568.15,473.45 517.8,473.45 487.85,473.45 459.35,470.85 432.35,465.8 410,461.45 388.6,455.35 368.15,447.55 L368.1,447.55 344.15,524.8 344.15,524.85 C369.8,536.5 397.3,545 426.3,550.5 453.3,555.55 481.8,558.15 511.65,558.15 574,558.15 629.65,547 679.3,524.8z M703,601.3 C702.65,601.35 702.5,601.55 702.15,601.65 647.15,631.35 583.65,646.3 511.85,646.3 482,646.3 453.5,643.65 426.5,638.55 388.3,631.3 353,618.8 320.8,601.15 L298.4,673.65 C298.3,673.8 298.3,673.85 298.3,674 297.4,676.65 296.9,679.35 296.9,682.15 296.9,701.05 317.85,717.15 359.85,730.5 401.85,743.85 452.5,750.5 511.85,750.5 571.3,750.5 621.85,743.85 663.85,730.5 705.85,717.15 726.85,701.05 726.85,682.15 726.85,679.65 726.6,677.3 725.85,675 L725.35,673.5 725.3,673.5 703,601.3z M571.15,186.45 C565.5,180.8 558.6,177.95 550.6,177.95 L473.15,177.95 C465.15,177.95 458.3,180.8 452.6,186.45 448.8,190.3 446.3,194.55 445,199.55 L393,367.8 393.1,367.8 C405.85,371.7 419,374.85 432.6,377.45 459.6,382.55 488.1,385.2 518,385.2 558.6,385.2 596.5,380.45 631.65,370.95 L631.6,370.85 579.35,202.55 Q578.85,198.3 576.8,194.2 C575.35,191.35 573.5,188.8 571.15,186.45z"/>
        </g>
        <g id="drawingObject3">
          <path id="path10" fill="#FFFFFF" fill-opacity="1" d="M703,601.3 L702.85,601.3 679.15,524.8 C629.65,547 573.85,558.15 511.8,558.15 481.85,558.15 453.35,555.55 426.35,550.5 397.35,545 369.85,536.35 344.3,524.85 L344.3,524.8 320.65,601.15 C353,618.8 388.15,631.15 426.35,638.55 453.35,643.65 481.85,646.3 511.8,646.3 583.65,646.3 647.15,631.35 702.15,601.65 702.5,601.55 702.65,601.35 703,601.3z M393,367.7 L392.85,367.7 368.15,447.55 368.3,447.55 C388.65,455.35 410.1,461.45 432.5,465.8 459.5,470.85 488,473.45 517.85,473.45 568.15,473.45 614.6,466.2 656.65,451.55 L631.7,370.975 L631.7,371 C596.05,380.45 558.2,385.2 518.1,385.2 488,385.2 459.5,382.45 432.5,377.35 Q412.95,373.7 393,367.7z"/>
        </g>
      </g>
    </g>
  </g>
</svg>