<?xml version="1.0" encoding="utf-8"?>
<!-- Generator: flash2svg, http://dissentgraphics.com/tools/flash2svg -->
<svg id="Wirecast-Desktop-Presenter" image-rendering="optimizeSpeed" baseProfile="basic" version="1.1" style="background-color:#FFFFFF" x="0px" y="0px" width="1024px" height="1024px" viewBox="0 0 1024 1024" enable-background="new 0 0 1024 1024" xmlns="http://www.w3.org/2000/svg" xmlns:xlink="http://www.w3.org/1999/xlink">
  <defs transform="matrix(1 0 0 1 0 0) "/>
  <g id="shadow">
    <g id="shape">
      <path id="path" fill="#000000" fill-opacity="0.09803921568627451" d="M969.6,351.25 Q961,330.4 950.2,310.4 C946.15,302.85 941.85,295.35 937.3,288 917.75,256.3 893.9,226.35 865.75,198.2 773.6,106.05 662.3,59.95 531.95,59.95 401.6,59.95 290.35,106.05 198.2,198.2 106.05,290.35 59.95,401.6 59.95,531.95 59.95,662.3 106.05,773.6 198.2,865.75 290.35,957.9 401.6,1003.95 531.95,1003.95 662.3,1003.95 773.6,957.9 865.75,865.75 916.5,814.95 953.3,758.35 976.1,696 994.65,645.15 1003.95,590.5 1003.95,531.95 1003.95,487.05 998.5,444.4 987.55,404 986.3,399.45 985,394.9 983.65,390.4 979.55,377.1 974.85,364.05 969.6,351.25z"/>
    </g>
  </g>
  <g id="bg">
    <g id="shape2">
      <path id="path1" fill="#5F5C8E" fill-opacity="1" d="M969.7,392 C968.6,387.65 967.35,383 966.05,378.4 965.05,375 964.05,371.55 962.9,367.9 961.3,362.75 959.5,357.4 957.6,352.05 951.15,333.8 943.45,316 934.45,298.4 930.65,291 926.5,283.45 922.15,276 901.85,241.5 876.35,208.8 845.8,178.25 773.2,105.65 688.65,61.6 592.15,46.2 575.9,43.6 559.35,41.8 542.1,40.85 532.4,40.3 522.25,40 512,40 502.65,40 493.4,40.25 484.1,40.75 365.75,46.85 263.8,92.7 178.25,178.25 Q40,316.5 40,512 C40,642.35 86.1,753.65 178.25,845.8 234.95,902.45 298.8,941.7 369.35,963.35 406.1,974.6 444.15,981.2 484.1,983.3 484.25,983.3 484.35,983.3 484.5,983.3 493,983.75 501.1,984 509,984 510.2,984 511.1,984 512,984 522.3,984 532.5,983.7 542.1,983.2 544.6,983.05 546.85,982.9 549.05,982.75 569.25,981.3 588.95,978.7 607.75,975.05 615.7,973.5 623.55,971.75 631.15,969.9 711.95,949.6 783.3,908.3 845.8,845.8 894.4,797.2 930.2,743.3 953.15,684 971.6,636.35 981.8,585.2 983.7,530.5 983.9,524.45 984,518.25 984,512 984,511.35 984,510.65 984,510 984,509.65 984,509.35 984,509 983.8,468.35 979.05,429.5 969.7,392z"/>
    </g>
  </g>
  <g id="inner">
    <g id="shape4">
      <path id="path2" fill="#000000" fill-opacity="0.2" d="M760.05,760.05 Q862.75,657.3 862.75,512 C862.75,415.15 828.5,332.45 760.05,264 691.55,195.55 608.85,161.3 512,161.3 415.15,161.3 332.45,195.55 264,264 195.55,332.45 161.3,415.15 161.3,512 161.3,608.85 195.55,691.55 264,760.05 332.45,828.5 415.15,862.75 512,862.75 608.85,862.75 691.55,828.5 760.05,760.05z"/>
    </g>
  </g>
  <mask id="bg1">
    <g id="g">
      <g id="shape14">
        <path id="path9" fill="#FFFFFF" fill-opacity="1" d="M969.7,392 C968.6,387.65 967.35,383 966.05,378.4 965.05,375 964.05,371.55 962.9,367.9 961.3,362.75 959.5,357.4 957.6,352.05 951.15,333.8 943.45,316 934.45,298.4 930.65,291 926.5,283.45 922.15,276 901.85,241.5 876.35,208.8 845.8,178.25 773.2,105.65 688.65,61.6 592.15,46.2 575.9,43.6 559.35,41.8 542.1,40.85 532.4,40.3 522.25,40 512,40 502.65,40 493.4,40.25 484.1,40.75 365.75,46.85 263.8,92.7 178.25,178.25 Q40,316.5 40,512 C40,642.35 86.1,753.65 178.25,845.8 234.95,902.45 298.8,941.7 369.35,963.35 406.1,974.6 444.15,981.2 484.1,983.3 484.25,983.3 484.35,983.3 484.5,983.3 493,983.75 501.1,984 509,984 510.2,984 511.1,984 512,984 522.3,984 532.5,983.7 542.1,983.2 544.6,983.05 546.85,982.9 549.05,982.75 569.25,981.3 588.95,978.7 607.75,975.05 615.7,973.5 623.55,971.75 631.15,969.9 711.95,949.6 783.3,908.3 845.8,845.8 894.4,797.2 930.2,743.3 953.15,684 971.6,636.35 981.8,585.2 983.7,530.5 983.9,524.45 984,518.25 984,512 984,511.35 984,510.65 984,510 984,509.65 984,509.35 984,509 983.8,468.35 979.05,429.5 969.7,392z"/>
      </g>
    </g>
  </mask>
  <g id="masked" mask="url(#bg1)">
    <g id="Calque.__203">
      <g id="shape6">
        <path id="path3" fill="#28293C" fill-opacity="1" d="M1094.6,178.3 C1088.9,172.55 1082,169.7 1073.95,169.7 L619.85,169.7 708.25,258.1 1103.2,258.1 1103.2,250.05 1103.2,198.95 Q1103.2,186.85 1094.6,178.3z"/>
        <path id="path4" fill="#D58CB6" fill-opacity="1" d="M1103.2,308.1 L1103.2,258.1 708.25,258.1 758.25,308.1 1103.2,308.1z"/>
        <path id="path5" fill="#D189B1" fill-opacity="1" d="M758.25,308.1 L708.25,258.1 334.05,258.1 334.05,308.1 758.25,308.1z"/>
        <path id="path6" fill="#674357" fill-opacity="1" d="M1103.2,653.05 L1103.2,308.1 758.25,308.1 1103.2,653.05z"/>
        <path id="path7" fill="#533646" fill-opacity="1" d="M1103.2,653.05 L758.25,308.1 334.05,308.1 334.05,1025.3 339.3,1025.3 678.9,1025.3 1073.95,1025.3 C1080.15,1025.3 1085.65,1023.6 1090.4,1020.25 1091.85,1019.2 1093.25,1018.05 1094.6,1016.7 1100.35,1011 1103.2,1004.1 1103.2,996.05 L1103.2,653.05z"/>
        <path id="path8" fill="#171922" fill-opacity="1" d="M334.05,308.1 L334.05,258.1 708.25,258.1 619.85,169.7 264.25,169.7 C257.35,169.7 251.3,171.8 246.15,176 245.3,176.7 244.45,177.45 243.6,178.3 237.85,184 235,190.9 235,198.95 L235,996.05 C235,1004.1 237.85,1011 243.6,1016.7 249.3,1022.45 256.2,1025.3 264.25,1025.3 L334.05,1025.3 334.05,308.1z"/>
      </g>
    </g>
  </g>
  <g id="Calque.__204">
    <g id="shape16">
      <path id="path10" fill="#533646" fill-opacity="1" d="M354.05,282.05 Q354.05,288.65 358.7,293.3 C361.85,296.45 365.6,298 370,298 374.4,298 378.15,296.45 381.25,293.3 384.4,290.2 385.95,286.45 385.95,282.05 385.95,277.65 384.4,273.9 381.25,270.75 378.15,267.65 374.4,266.1 370,266.1 365.6,266.1 361.85,267.65 358.7,270.75 355.6,273.9 354.05,277.65 354.05,282.05z"/>
    </g>
  </g>
  <g id="Calque.__205">
    <g id="shape18">
      <path id="path11" fill="#000000" fill-opacity="0.2" d="M810.25,498.55 C810.2,498.5 810.2,498.5 810.2,498.45 809.45,497.75 808.65,497 807.9,496.25 804.5,493 800.45,491.4 795.75,491.45 791.05,491.5 787.05,493.25 783.75,496.65 780.4,500.05 778.8,504.05 778.85,508.8 778.9,513.5 780.65,517.5 784.05,520.85 784.7,521.5 785.4,522.1 786,522.75 L786.05,522.85 C828.95,565.3 850.5,616.5 850.7,676.45 850.7,681.1 852.4,685.1 855.75,688.5 859.15,691.85 863.15,693.5 867.85,693.45 872.6,693.45 876.6,691.8 879.9,688.45 883.3,685.05 885,681 885,676.35 884.75,606.95 859.85,547.7 810.25,498.55z M757.25,549.75 C756.7,549.25 756.2,548.75 755.7,548.25 752.2,545 748.15,543.45 743.45,543.55 738.75,543.65 734.75,545.4 731.5,548.85 728.25,552.3 726.65,556.35 726.75,561.05 726.85,565.75 728.6,569.75 732.1,573.1 732.4,573.4 732.7,573.65 733,574 768.3,609.3 786.05,651.85 786.25,701.75 786.25,706.45 787.9,710.45 791.3,713.8 794.65,717.15 798.7,718.8 803.45,718.75 808.1,718.75 812.1,717.1 815.5,713.75 818.85,710.4 820.5,706.35 820.5,701.6 820.3,642.35 799.25,591.7 757.25,549.75z M708.25,598.8 C707.8,598.35 707.4,597.95 706.95,597.5 703.6,594.15 699.6,592.5 694.85,592.55 690.15,592.5 686.15,594.15 682.75,597.5 679.4,600.9 677.7,604.95 677.75,609.65 677.7,614.4 679.4,618.4 682.75,621.75 683.15,622.2 683.55,622.6 684,623.05 712.7,651.75 727.2,686.45 727.4,727.05 727.45,731.75 729.1,735.8 732.45,739.15 735.85,742.5 739.85,744.15 744.55,744.1 749.3,744.1 753.3,742.45 756.65,739.05 760,735.7 761.65,731.65 761.65,726.9 761.45,676.95 743.65,634.2 708.25,598.8z M699.85,746 C699.85,698.75 683.1,658.35 649.65,624.9 616.25,591.45 575.85,574.75 528.6,574.75 481.35,574.75 440.95,591.45 407.5,624.9 Q357.35,675.05 357.35,746 C357.35,793.25 374.1,833.65 407.5,867.05 440.95,900.5 481.35,917.25 528.6,917.25 575.85,917.25 616.25,900.5 649.65,867.05 683.1,833.65 699.85,793.25 699.85,746z"/>
    </g>
  </g>
  <g id="Calque.__206">
    <g id="Symbole.__2017_1" overflow="visible">
      <g id="Calque.__216">
        <g id="Symbole.__2019_2" overflow="visible">
          <g id="Calque.__217">
            <g id="shape50">
              <path id="path40" fill="#E4E4E4" fill-opacity="1" d="M630.155,603.446 C596.745,570.037 556.361,553.307 509.1,553.307 461.839,553.307 421.455,570.037 387.996,603.446 Q337.857,653.634 337.857,724.55 C337.857,771.811 354.587,812.195 387.996,845.605 421.455,879.063 461.839,895.793 509.1,895.793 556.361,895.793 596.745,879.063 630.155,845.605 663.613,812.195 680.343,771.811 680.343,724.55 680.343,677.289 663.613,636.905 630.155,603.446z M610.451,623.151 C638.495,651.146 652.493,684.946 652.493,724.55 652.493,764.154 638.495,797.954 610.451,825.901 582.504,853.945 548.704,867.943 509.1,867.943 469.496,867.943 435.696,853.945 407.652,825.901 379.705,797.954 365.707,764.154 365.707,724.55 365.707,684.946 379.705,651.146 407.652,623.151 435.696,595.155 469.496,581.157 509.1,581.157 548.704,581.157 582.504,595.155 610.451,623.151z"/>
              <path id="path41" fill="#282A3B" fill-opacity="1" d="M610.451,623.151 C582.504,595.155 548.704,581.157 509.1,581.157 469.496,581.157 435.696,595.155 407.652,623.151 379.705,651.146 365.707,684.946 365.707,724.55 365.707,764.154 379.705,797.954 407.652,825.901 435.696,853.945 469.496,867.943 509.1,867.943 548.704,867.943 582.504,853.945 610.451,825.901 638.495,797.954 652.493,764.154 652.493,724.55 652.493,684.946 638.495,651.146 610.451,623.151z"/>
            </g>
          </g>
        </g>
        <g id="Symbole.__2021_2" overflow="visible">
          <g id="Calque.__218">
            <g id="shape51">
              <path id="path42" fill="#7BC9CA" fill-opacity="1" d="M535.291,698.31 Q524.464,687.482 509.1,687.482 C498.858,687.482 490.127,691.092 482.86,698.31 475.642,705.577 472.032,714.308 472.032,724.55 472.032,734.792 475.642,743.523 482.86,750.741 490.127,758.008 498.858,761.618 509.1,761.618 519.342,761.618 528.073,758.008 535.291,750.741 542.558,743.523 546.168,734.792 546.168,724.55 546.168,714.308 542.558,705.577 535.291,698.31z M517.391,716.21 C519.684,718.502 520.854,721.282 520.854,724.55 520.854,727.671 519.781,730.354 517.635,732.598 517.587,732.695 517.489,732.793 517.391,732.841 515.099,735.134 512.368,736.304 509.1,736.304 505.832,736.304 503.052,735.134 500.76,732.841 498.467,730.549 497.346,727.818 497.346,724.55 497.346,721.282 498.467,718.502 500.76,716.21 500.857,716.161 500.955,716.063 501.004,715.966 503.296,713.869 505.979,712.796 509.1,712.796 512.368,712.796 515.099,713.917 517.391,716.21z"/>
              <path id="path43" fill="#FFFFFF" fill-opacity="1" d="M517.391,716.21 C515.099,713.917 512.368,712.796 509.1,712.796 505.979,712.796 503.296,713.869 501.004,715.966 500.955,716.063 500.857,716.161 500.76,716.21 498.467,718.502 497.346,721.282 497.346,724.55 497.346,727.818 498.467,730.549 500.76,732.841 503.052,735.134 505.832,736.304 509.1,736.304 512.368,736.304 515.099,735.134 517.391,732.841 517.489,732.793 517.587,732.695 517.635,732.598 519.781,730.354 520.854,727.671 520.854,724.55 520.854,721.282 519.684,718.502 517.391,716.21z"/>
            </g>
          </g>
        </g>
        <g id="Symbole.__2023_2" overflow="visible">
          <g id="Calque.__219">
            <g id="shape52">
              <path id="path44" fill="#434962" fill-opacity="1" d="M420.105,635.083 L437.322,652.299 C457.173,632.644 481.072,622.792 509.067,622.792 537.21,622.792 561.157,632.693 581.008,652.543 600.907,672.443 610.857,696.439 610.857,724.533 610.857,752.577 601.005,776.476 581.301,796.229 L598.517,813.495 C623.002,788.962 635.244,759.308 635.244,724.533 635.244,689.66 622.904,659.908 598.274,635.278 573.692,610.696 543.94,598.405 509.067,598.405 474.341,598.405 444.687,610.647 420.105,635.083z M449.028,664.005 L466.293,681.271 C478.438,669.126 493.167,663.03 510.384,663.03 527.601,663.03 542.331,669.126 554.475,681.271 566.717,693.513 572.814,708.242 572.814,725.459 572.814,742.676 566.717,757.357 554.573,769.501 L571.79,786.767 C588.714,769.843 597.201,749.407 597.201,725.459 597.201,701.463 588.714,680.978 571.741,664.005 554.817,647.081 534.381,638.643 510.384,638.643 486.388,638.643 465.952,647.081 449.028,664.005z"/>
            </g>
          </g>
        </g>
        <g id="Symbole.__2025_2" overflow="visible">
          <g id="Calque.__220">
            <g id="shape53">
              <path id="path45" fill="#E4E4E4" fill-opacity="1" d="M788.381,474.856 Q783.26,469.93 776.188,470.027 C771.506,470.076 767.506,471.832 764.19,475.246 760.873,478.612 759.264,482.66 759.313,487.391 759.361,492.073 761.117,496.072 764.531,499.438 765.165,500.072 765.848,500.706 766.482,501.34 L766.531,501.437 C809.403,543.87 830.96,595.082 831.155,655.024 831.155,659.706 832.863,663.706 836.228,667.071 839.593,670.436 843.593,672.095 848.324,672.046 853.055,672.046 857.054,670.388 860.371,667.022 863.736,663.657 865.443,659.609 865.443,654.927 865.199,585.522 840.325,526.263 790.723,477.148 790.674,477.1 790.674,477.1 790.674,477.051 789.893,476.319 789.113,475.588 788.381,474.856z M795.941,692.336 C799.307,688.97 800.965,684.922 800.965,680.191 800.77,620.932 779.7,570.305 737.706,528.36 737.17,527.824 736.682,527.336 736.145,526.848 732.682,523.58 728.634,522.02 723.903,522.117 719.221,522.215 715.222,523.971 711.954,527.433 708.686,530.896 707.125,534.945 707.223,539.627 707.32,544.358 709.076,548.357 712.539,551.674 712.88,551.966 713.173,552.259 713.466,552.6 748.778,587.863 766.531,630.442 766.726,680.337 766.726,685.02 768.384,689.019 771.75,692.384 775.115,695.75 779.163,697.408 783.894,697.359 788.576,697.359 792.576,695.701 795.941,692.336z M663.229,576.109 C659.864,579.474 658.157,583.523 658.206,588.254 658.157,592.985 659.864,596.984 663.229,600.349 663.62,600.788 664.01,601.179 664.449,601.618 693.176,630.345 707.662,665.023 707.857,705.651 707.906,710.333 709.564,714.381 712.929,717.746 716.295,721.063 720.294,722.721 725.025,722.673 729.756,722.673 733.755,721.014 737.121,717.649 740.437,714.284 742.096,710.235 742.096,705.504 741.901,655.512 724.098,612.787 688.689,577.377 688.25,576.938 687.86,576.548 687.421,576.109 684.056,572.744 680.056,571.085 675.325,571.134 670.594,571.085 666.595,572.744 663.229,576.109z"/>
            </g>
          </g>
        </g>
      </g>
    </g>
  </g>
</svg>