<?xml version="1.0" encoding="utf-8"?>
<!-- Generator: flash2svg, http://dissentgraphics.com/tools/flash2svg -->
<svg xmlns:xlink="http://www.w3.org/1999/xlink" id="Wunderlist" image-rendering="optimizeSpeed" baseProfile="basic" version="1.1" style="background-color:#ffffff" x="0px" y="0px" width="1024px" height="1024px" viewBox="0 0 1024 1024" enable-background="new 0 0 1024 1024" xmlns="http://www.w3.org/2000/svg">
  <defs transform="matrix(1 0 0 1 0 0) "/>
  <g id="shadow">
    <g id="shape">
      <path id="path" fill="#000000" fill-opacity="0.09803921568627451" d="M969.65,351.3 Q961.05,330.45 950.25,310.45 C946.2,302.9 941.9,295.4 937.35,288.05 917.8,256.35 893.95,226.4 865.8,198.25 773.65,106.1 662.35,60 532,60 401.65,60 290.4,106.1 198.25,198.25 106.1,290.4 60,401.65 60,532 60,662.35 106.1,773.65 198.25,865.8 290.4,957.95 401.65,1004 532,1004 662.35,1004 773.65,957.95 865.8,865.8 916.55,815 953.35,758.4 976.15,696.05 994.7,645.2 1004,590.55 1004,532 1004,487.1 998.55,444.45 987.6,404.05 986.35,399.5 985.05,394.95 983.7,390.45 979.6,377.15 974.9,364.1 969.65,351.3z"/>
    </g>
  </g>
  <g id="bg">
    <g id="shape2">
      <path id="path1" fill="#DA8349" fill-opacity="1" d="M969.75,392.05 C968.65,387.7 967.4,383.05 966.1,378.45 965.1,375.05 964.1,371.6 962.95,367.95 961.35,362.8 959.55,357.45 957.65,352.1 951.2,333.85 943.5,316.05 934.5,298.45 930.7,291.05 926.55,283.5 922.2,276.05 901.9,241.55 876.4,208.85 845.85,178.3 773.25,105.7 688.7,61.65 592.2,46.25 575.95,43.65 559.4,41.85 542.15,40.9 532.45,40.35 522.3,40.05 512.05,40.05 502.7,40.05 493.45,40.3 484.15,40.8 365.8,46.9 263.85,92.75 178.3,178.3 Q40.05,316.55 40.05,512.05 C40.05,642.4 86.15,753.7 178.3,845.85 235,902.5 298.85,941.75 369.4,963.4 406.15,974.65 444.2,981.25 484.15,983.35 484.3,983.35 484.4,983.35 484.55,983.35 493.05,983.8 501.15,984.05 509.05,984.05 510.25,984.05 511.15,984.05 512.05,984.05 522.35,984.05 532.55,983.75 542.15,983.25 544.65,983.1 546.9,982.95 549.1,982.8 569.3,981.35 589,978.75 607.8,975.1 615.75,973.55 623.6,971.8 631.2,969.95 712,949.65 783.35,908.35 845.85,845.85 894.45,797.25 930.25,743.35 953.2,684.05 971.65,636.4 981.85,585.25 983.75,530.55 983.95,524.5 984.05,518.3 984.05,512.05 984.05,511.4 984.05,510.7 984.05,510.05 984.05,509.7 984.05,509.4 984.05,509.05 983.85,468.4 979.1,429.55 969.75,392.05z"/>
    </g>
  </g>
  <g id="Calque.__207">
    <g id="shape4">
      <path id="path2" fill="#FFFFFF" fill-opacity="1" d="M769.45,769.45 Q876.05,662.85 876.05,512.05 C876.05,411.5 840.5,325.7 769.45,254.65 698.4,183.6 612.6,148.05 512.05,148.05 411.55,148.05 325.75,183.6 254.65,254.65 183.6,325.7 148.05,411.5 148.05,512.05 148.05,612.6 183.6,698.4 254.65,769.45 325.75,840.5 411.55,876.05 512.05,876.05 612.6,876.05 698.4,840.5 769.45,769.45z"/>
    </g>
  </g>
  <mask id="Calque.__210">
    <g id="g">
      <g id="shape10">
        <path id="path5" fill="#FFFFFF" fill-opacity="1" d="M759.05,779.5 Q764.302,774.598 769.45,769.45 C840.5,698.4 876.05,612.6 876.05,512.05 876.05,411.5 840.5,325.7 769.45,254.65 698.4,183.6 612.6,148.05 512.05,148.05 411.55,148.05 325.75,183.6 254.65,254.65 183.6,325.7 148.05,411.5 148.05,512.05 148.05,612.6 183.6,698.4 254.65,769.45 258.4,773.2 262.2,776.9 266.05,780.45 L266.05,780.425 L266.05,915.55 759.05,915.55 759.05,779.5z"/>
      </g>
    </g>
  </mask>
  <g id="masked" mask="url(#Calque.__210)">
    <g id="Calque.__208">
      <g id="shape6">
        <path id="path3" fill="#B6331E" fill-opacity="1" d="M704.05,-55.95 L320.05,-55.95 320.05,849.5 514.05,750.2 704.05,849.5 704.05,-55.95z"/>
      </g>
    </g>
    <g id="Calque.__209">
      <g id="shape8">
        <path id="path4" fill="#E84228" fill-opacity="1" d="M704.05,-75.95 L320.05,-75.95 320.05,829.5 514.05,730.2 704.05,829.5 704.05,-75.95z"/>
      </g>
    </g>
  </g>
  <g id="bg1">
    <g id="shape12">
      <path id="path6" fill="#AB412E" fill-opacity="1" d="M659.7,429.15 Q657.95,427.55 654.8,426.45 C653.05,425.65 652,425.15 651.65,425 650.45,424.55 649.35,424.25 648.35,424.2 647.95,423.95 647.45,423.7 646.85,423.5 646.1,423.35 645.5,423.25 645.1,423.2 642.75,422.6 641,422.2 639.85,422 637.75,421.5 635.9,421.25 634.35,421.25 632.65,420.8 630.45,420.4 627.8,420.15 624.8,419.95 622.6,419.75 621.2,419.55 619.65,419.4 617.45,419.3 614.7,419.15 611.65,419.1 609.5,419 608.25,418.85 600.7,418.85 595,418.85 591.2,418.85 584.55,418.85 578.85,419 574.2,419.25 573.75,419.2 573.15,419.2 572.45,419.35 571.8,419.5 571.25,419.6 570.85,419.65 570.45,419.5 569.95,419.45 569.35,419.45 568.65,419.5 568.15,419.55 567.9,419.55 567.55,419.4 567.25,419.4 567,419.55 566.65,419.6 566.4,419.75 566.2,419.95 L563.85,419.95 C563.65,419.8 563.4,419.8 563.05,419.85 562.65,419.9 562.4,419.95 562.25,419.95 561.85,419.8 561.6,419.75 561.45,419.75 561.05,419.8 560.85,420 560.85,420.25 560.4,420.1 559.95,420.1 559.5,420.25 L558.5,420.25 557.6,419.65 C557.65,419.25 557.7,418.95 557.7,418.75 557.7,418.4 557.55,418.15 557.3,418.1 L557.3,417.2 C557.3,416.8 557.15,416.3 556.9,415.7 556.85,415.25 556.75,414.9 556.7,414.65 556.7,414.3 556.6,414 556.35,413.85 556.35,413.1 556.2,412.5 555.95,411.95 555.95,411.7 555.9,411.4 555.85,411.15 555.75,410.75 555.65,410.45 555.6,410.3 555.5,409.7 555.45,409.35 555.45,409.2 555.3,408.75 555.15,408.4 554.95,408.2 554.95,406.95 554.7,405.85 554.25,404.95 553.85,402.5 553.35,400.6 552.7,399.2 550.1,388.05 546.3,375.9 541.3,362.65 539.4,357.9 538.05,354.65 537.25,352.8 535.6,349.15 534,346 532.4,343.35 532.4,343 532.25,342.6 531.95,342.15 531.6,341.7 531.4,341.35 531.25,341.15 530.15,339.35 529.3,338 528.7,337.1 527.7,335.55 526.75,334.3 525.8,333.35 L525.7,332.75 C525.4,332.55 524.6,331.75 523.35,330.4 522.4,329.4 521.55,328.75 520.7,328.4 519.95,327.45 518.9,326.65 517.5,326.05 516.65,325.7 515.4,325.3 513.65,324.85 512,324.65 510.3,324.8 508.5,325.35 506.95,325.9 505.4,326.7 503.9,327.8 L503.8,328.1 C503.25,328.25 502.7,328.6 502.1,329.2 501.3,330 500.85,330.5 500.7,330.65 500.25,330.85 499.85,331.2 499.45,331.75 499.05,332.35 498.7,332.8 498.45,333.05 497.5,333.9 496.45,335.15 495.4,336.7 494.25,338.55 493.4,339.9 492.9,340.75 492.45,341.3 492.2,341.7 492.05,341.95 491.7,342.5 491.5,343 491.45,343.35 491.05,343.8 490.6,344.45 490.1,345.3 489.75,346.15 489.4,346.85 489.1,347.35 485.2,354.95 481.5,363.55 478.05,373.15 475.45,380.25 472.55,389.2 469.35,400 469.2,400.35 469.15,400.75 469.15,401.25 468.8,401.9 468.5,402.8 468.25,403.95 467.8,405.85 467.55,406.85 467.55,406.9 467.3,407.3 467.1,407.85 466.95,408.5 466.8,408.9 466.7,409.45 466.65,410.2 466.2,410.85 466.1,411.4 466.25,411.95 465.8,412.5 465.6,413.25 465.65,414.3 465.35,414.45 465.2,414.65 465.2,415 465.2,415.2 465.2,415.45 465.2,415.8 465,416 464.85,416.35 464.8,416.8 464.75,417.05 464.65,417.45 464.6,417.9 464.35,418.4 464.2,418.85 464.2,419.25 L463.9,420.25 C463.75,420.9 463.7,421.4 463.7,421.65 463.5,421.9 463.25,422.1 463,422.3 462.55,422.15 462.1,422.15 461.65,422.3 461.3,422.15 460.95,422.05 460.65,421.9 460.25,421.9 459.95,421.85 459.75,421.8 459.5,421.8 459.2,421.85 458.95,421.9 458.6,421.9 458.3,421.85 458.15,421.8 457.8,421.8 457.55,421.85 457.3,422 456.75,421.5 456.35,421.35 456,421.55 455.05,421.4 454.15,421.4 453.25,421.55 452.65,421 451.9,420.9 451.05,421.25 450.2,421.1 449.6,421.05 449.25,421 448.5,420.85 447.85,420.85 447.3,421 444.65,420.7 441.2,420.5 436.95,420.35 431.5,420.15 428,420 426.5,419.95 422.65,419.8 419.9,419.75 418.15,419.75 414.95,419.75 412.15,419.9 409.7,420.15 403.75,420.15 398.45,420.5 393.8,421.15 387.25,421.65 381.85,422.55 377.5,423.9 374.4,424.35 371.95,425.15 370.2,426.25 369.15,426.5 368.1,426.9 367.15,427.35 366.15,427.9 365.3,428.5 364.55,429.15 363.75,429.5 362.95,430.1 362.1,430.9 361.85,431.15 361.15,431.9 360.1,433.15 357.85,436.1 357.45,440.2 358.9,445.35 L359.1,445.45 C359.15,446.2 359.45,447.1 360,448.1 L361.2,450.65 361.5,450.75 C361.75,451.4 362.2,452.2 362.8,453.15 363.15,453.65 363.7,454.45 364.35,455.5 364.5,455.55 364.7,455.85 365.05,456.3 365.25,456.8 365.5,457.05 365.85,457.05 366.1,457.7 366.65,458.5 367.5,459.35 368.5,460.4 369.15,461.15 369.4,461.5 369.9,461.9 370.95,463.1 372.55,465.05 373.85,466.5 375.05,467.5 376.1,468.05 376.95,469.1 378.05,470.25 379.4,471.5 379.95,471.95 381.2,473 383.1,474.65 394.35,484.5 406.9,493.85 420.65,502.7 422,503.95 423.5,504.9 425.1,505.55 425.55,506.15 426.4,506.7 427.65,507.25 427.85,507.55 428.2,507.8 428.65,507.95 428.7,508 429.1,508.25 429.75,508.6 429.95,508.85 430.15,509 430.3,509.05 430.5,509.3 430.7,509.35 430.95,509.25 431.05,509.55 431.25,509.75 431.5,509.9 431.7,510.05 431.95,510.15 432.3,510.3 432.35,510.5 432.55,510.65 432.8,510.8 432.95,510.8 433.2,510.85 433.65,511 433.7,511.2 433.85,511.4 434.1,511.6 434.35,511.65 434.6,511.8 434.95,511.95 L435.65,512.25 C435.9,512.5 436.05,512.7 436.05,512.85 436.1,513.05 436.1,513.25 435.95,513.5 435.75,513.6 435.6,513.8 435.45,514.05 435.4,514.3 435.35,514.6 435.35,514.85 435.1,515.1 435,515.45 435.05,515.85 434.8,515.9 434.6,516.1 434.45,516.4 434.35,516.65 434.35,516.9 434.45,517.2 434.1,517.45 433.95,517.8 433.95,518.2 433.75,518.35 433.55,518.55 433.4,518.9 433.25,519.25 433.25,519.55 433.4,519.85 432.95,519.95 432.65,520.4 432.6,521.2 432.35,521.55 432.15,522 432,522.45 431.8,522.9 431.7,523.35 431.7,523.75 430.9,524.7 430.3,526.1 429.95,527.9 429.5,528.5 429.05,529.4 428.65,530.65 428.1,532.15 427.75,533.1 427.55,533.5 422.9,545.75 418.95,557.75 415.7,569.45 415.55,570.2 415.1,571.95 414.35,574.75 413.75,576.9 413.4,578.65 413.35,580.1 L413.05,580.1 C412.8,582.05 412.3,584.9 411.65,588.7 411.2,592 411,594.85 411.1,597.3 410.95,599.05 410.95,600.85 411.1,602.65 411,603.1 411.05,603.65 411.25,604.4 411.45,605.25 411.55,605.9 411.55,606.3 411.55,606.4 411.6,606.9 411.75,607.75 411.9,608.35 412.1,608.8 412.35,609.05 412.4,610.15 412.8,611.3 413.45,612.5 413.9,613.15 414.6,614.15 415.6,615.45 416.8,616.9 418.45,617.95 420.55,618.6 422.3,619.2 424.25,619.45 426.4,619.3 427.05,619.3 427.95,619.2 429.15,618.95 430.35,618.8 431.25,618.7 431.9,618.7 L432,618.35 C434.25,618.2 435.9,617.8 436.95,617.05 437.2,617.05 437.5,617 437.75,616.95 437.9,616.9 438.2,616.8 438.55,616.65 442.8,615.1 447.3,613.1 451.95,610.7 452,610.6 452.5,610.35 453.4,609.95 454,609.7 454.4,609.4 454.6,609.05 455.65,608.6 456.9,607.95 458.3,607.1 459.85,606.15 461,605.45 461.75,605 466,602.5 470.6,599.55 475.45,596.2 478.95,593.75 483.3,590.65 488.5,586.8 488.85,586.55 490.95,585 494.8,582.1 497.35,580.2 499.35,578.55 500.8,577.15 502.25,576.4 503.5,575.35 504.5,574.1 505.6,573.65 506.35,573.05 506.75,572.4 507.1,572.25 507.45,572 507.85,571.65 508.3,571.2 508.6,570.9 508.75,570.75 509.05,570.7 509.35,570.5 509.6,570.25 509.65,570.1 509.85,569.85 510.1,569.45 510.7,569.45 511.25,569 511.8,568.15 512.2,567.95 512.5,567.8 512.65,567.75 512.9,567.6 513.05,567.35 513.1,567.1 513.55,566.9 514,566.9 514.45,567.05 514.5,567.35 514.65,567.6 514.85,567.85 515.1,568.1 515.4,568.2 515.65,568.05 515.8,568.45 516,568.7 516.35,568.85 516.9,569.7 517.6,570.2 518.4,570.35 518.55,570.7 518.75,570.95 519,571.2 519.2,571.45 519.45,571.6 519.7,571.75 519.85,572.05 520.1,572.3 520.45,572.5 520.6,572.65 520.95,572.85 521.45,573.1 521.65,573.5 522,573.9 522.45,574.3 522.65,574.45 523.1,574.7 523.75,575.1 523.95,575.55 524.35,575.95 524.9,576.35 525.15,576.55 525.55,576.9 526.2,577.35 526.45,577.5 526.9,577.85 527.5,578.45 528.05,579 528.6,579.3 529.05,579.45 529.2,579.75 529.35,580 529.6,580.2 540.85,589.35 551.65,597.3 562.05,604 L570.15,609.05 C573.25,610.9 576.05,612.3 578.55,613.3 L578.65,613.6 C582.25,615.25 585.55,616.55 588.5,617.55 589.1,617.9 589.9,618.05 590.9,618.05 L591,618.25 C591.65,618.4 592.6,618.6 593.95,618.85 595.1,619.05 596.05,619.1 596.9,619.05 L596.9,619.4 C601.05,619.45 604.55,618.6 607.35,616.75 608.55,615.7 609.6,614.4 610.45,612.9 611.35,611.45 611.9,609.9 612.05,608.25 613,605.7 613.35,603.5 613.1,601.65 613.25,599.35 613.25,595.95 613.1,591.4 L612.8,591.35 C612.85,589.9 612.75,588.2 612.4,586.15 611.85,582.85 611.6,581.15 611.6,581.1 610.35,574.15 608.6,566.65 606.3,558.6 604.65,552.55 602.35,545.2 599.45,536.6 599.1,535.85 598.55,534.35 597.8,532 597.15,530.1 596.55,528.6 596,527.55 595.75,526.7 595.4,525.65 594.95,524.35 594.35,522.9 594,521.9 593.85,521.35 L593.55,521.2 C593.4,520.55 593.3,520.1 593.25,519.85 593.05,519.2 592.8,518.8 592.55,518.6 592.45,518.15 592.4,517.8 592.4,517.6 592.25,517.15 592.1,516.9 591.95,516.85 591.9,516.5 591.8,516.2 591.75,515.95 591.65,515.6 591.45,515.35 591.2,515.25 591.2,514.85 591.1,514.5 590.85,514.15 590.85,513.8 590.8,513.5 590.7,513.25 590.65,512.8 590.45,512.55 590.2,512.5 590.25,512.2 590.15,511.85 589.8,511.5 589.85,511.3 589.85,511.05 589.7,510.8 589.55,510.45 589.4,510.25 589.2,510.2 L589.5,508.9 590.2,508.9 590.2,508.7 C590.65,508.7 590.95,508.55 591.2,508.25 591.65,508 591.9,507.85 591.95,507.85 592.2,507.75 592.4,507.55 592.55,507.25 592.9,507.25 593.2,507.15 593.55,506.95 593.8,506.75 594,506.5 594.15,506.25 594.35,506.2 594.65,506.05 595.1,505.85 595.45,505.7 595.7,505.55 595.85,505.35 596.15,505.2 596.55,505 597,504.7 597.45,504.55 597.75,504.3 597.9,504 598.95,503.75 599.8,503.15 600.55,502.3 601.2,502.1 602,501.75 602.9,501.2 602.95,501.15 603.6,500.6 604.9,499.65 L605.4,499.45 C612.55,494.85 618.75,490.75 623.95,487.1 630.4,482.45 636.3,477.9 641.55,473.45 642.2,472.9 643.15,472.15 644.5,471.1 645.65,470.15 646.5,469.2 647.1,468.35 647.6,468.3 648.1,468 648.55,467.45 649.3,466.65 649.7,466.2 649.85,466.15 652.2,463.8 653.85,462.1 654.7,461.15 656.55,459.2 658,457.45 659.05,455.8 659.8,455.25 660.55,454.4 661.2,453.25 661.55,452.65 662.05,451.7 662.7,450.45 663.25,449.7 663.75,448.95 664.15,448.1 664.6,447.15 664.9,446.3 665.05,445.45 L665.35,445.35 C665.95,443.25 666.2,441.2 666.05,439.2 665.9,436.95 665.3,435 664.25,433.3 663.45,432.35 662.8,431.6 662.25,431 661.35,430.2 660.5,429.6 659.7,429.15z"/>
    </g>
  </g>
  <mask id="bg3">
    <g id="g1">
      <g id="shape16">
        <path id="path8" fill="#FFFFFF" fill-opacity="1" d="M659.7,429.15 Q657.95,427.55 654.8,426.45 C653.05,425.65 652,425.15 651.65,425 650.45,424.55 649.35,424.25 648.35,424.2 647.95,423.95 647.45,423.7 646.85,423.5 646.1,423.35 645.5,423.25 645.1,423.2 642.75,422.6 641,422.2 639.85,422 637.75,421.5 635.9,421.25 634.35,421.25 632.65,420.8 630.45,420.4 627.8,420.15 624.8,419.95 622.6,419.75 621.2,419.55 619.65,419.4 617.45,419.3 614.7,419.15 611.65,419.1 609.5,419 608.25,418.85 600.7,418.85 595,418.85 591.2,418.85 584.55,418.85 578.85,419 574.2,419.25 573.75,419.2 573.15,419.2 572.45,419.35 571.8,419.5 571.25,419.6 570.85,419.65 570.45,419.5 569.95,419.45 569.35,419.45 568.65,419.5 568.15,419.55 567.9,419.55 567.55,419.4 567.25,419.4 567,419.55 566.65,419.6 566.4,419.75 566.2,419.95 L563.85,419.95 C563.65,419.8 563.4,419.8 563.05,419.85 562.65,419.9 562.4,419.95 562.25,419.95 561.85,419.8 561.6,419.75 561.45,419.75 561.05,419.8 560.85,420 560.85,420.25 560.4,420.1 559.95,420.1 559.5,420.25 L558.5,420.25 557.6,419.65 C557.65,419.25 557.7,418.95 557.7,418.75 557.7,418.4 557.55,418.15 557.3,418.1 L557.3,417.2 C557.3,416.8 557.15,416.3 556.9,415.7 556.85,415.25 556.75,414.9 556.7,414.65 556.7,414.3 556.6,414 556.35,413.85 556.35,413.1 556.2,412.5 555.95,411.95 555.95,411.7 555.9,411.4 555.85,411.15 555.75,410.75 555.65,410.45 555.6,410.3 555.5,409.7 555.45,409.35 555.45,409.2 555.3,408.75 555.15,408.4 554.95,408.2 554.95,406.95 554.7,405.85 554.25,404.95 553.85,402.5 553.35,400.6 552.7,399.2 550.1,388.05 546.3,375.9 541.3,362.65 539.4,357.9 538.05,354.65 537.25,352.8 535.6,349.15 534,346 532.4,343.35 532.4,343 532.25,342.6 531.95,342.15 531.6,341.7 531.4,341.35 531.25,341.15 530.15,339.35 529.3,338 528.7,337.1 527.7,335.55 526.75,334.3 525.8,333.35 L525.7,332.75 C525.4,332.55 524.6,331.75 523.35,330.4 522.4,329.4 521.55,328.75 520.7,328.4 519.95,327.45 518.9,326.65 517.5,326.05 516.65,325.7 515.4,325.3 513.65,324.85 512,324.65 510.3,324.8 508.5,325.35 506.95,325.9 505.4,326.7 503.9,327.8 L503.8,328.1 C503.25,328.25 502.7,328.6 502.1,329.2 501.3,330 500.85,330.5 500.7,330.65 500.25,330.85 499.85,331.2 499.45,331.75 499.05,332.35 498.7,332.8 498.45,333.05 497.5,333.9 496.45,335.15 495.4,336.7 494.25,338.55 493.4,339.9 492.9,340.75 492.45,341.3 492.2,341.7 492.05,341.95 491.7,342.5 491.5,343 491.45,343.35 491.05,343.8 490.6,344.45 490.1,345.3 489.75,346.15 489.4,346.85 489.1,347.35 485.2,354.95 481.5,363.55 478.05,373.15 475.45,380.25 472.55,389.2 469.35,400 469.2,400.35 469.15,400.75 469.15,401.25 468.8,401.9 468.5,402.8 468.25,403.95 467.8,405.85 467.55,406.85 467.55,406.9 467.3,407.3 467.1,407.85 466.95,408.5 466.8,408.9 466.7,409.45 466.65,410.2 466.2,410.85 466.1,411.4 466.25,411.95 465.8,412.5 465.6,413.25 465.65,414.3 465.35,414.45 465.2,414.65 465.2,415 465.2,415.2 465.2,415.45 465.2,415.8 465,416 464.85,416.35 464.8,416.8 464.75,417.05 464.65,417.45 464.6,417.9 464.35,418.4 464.2,418.85 464.2,419.25 L463.9,420.25 C463.75,420.9 463.7,421.4 463.7,421.65 463.5,421.9 463.25,422.1 463,422.3 462.55,422.15 462.1,422.15 461.65,422.3 461.3,422.15 460.95,422.05 460.65,421.9 460.25,421.9 459.95,421.85 459.75,421.8 459.5,421.8 459.2,421.85 458.95,421.9 458.6,421.9 458.3,421.85 458.15,421.8 457.8,421.8 457.55,421.85 457.3,422 456.75,421.5 456.35,421.35 456,421.55 455.05,421.4 454.15,421.4 453.25,421.55 452.65,421 451.9,420.9 451.05,421.25 450.2,421.1 449.6,421.05 449.25,421 448.5,420.85 447.85,420.85 447.3,421 444.65,420.7 441.2,420.5 436.95,420.35 431.5,420.15 428,420 426.5,419.95 422.65,419.8 419.9,419.75 418.15,419.75 414.95,419.75 412.15,419.9 409.7,420.15 403.75,420.15 398.45,420.5 393.8,421.15 387.25,421.65 381.85,422.55 377.5,423.9 374.4,424.35 371.95,425.15 370.2,426.25 369.15,426.5 368.1,426.9 367.15,427.35 366.15,427.9 365.3,428.5 364.55,429.15 363.75,429.5 362.95,430.1 362.1,430.9 361.85,431.15 361.15,431.9 360.1,433.15 357.85,436.1 357.45,440.2 358.9,445.35 L359.1,445.45 C359.15,446.2 359.45,447.1 360,448.1 L361.2,450.65 361.5,450.75 C361.75,451.4 362.2,452.2 362.8,453.15 363.15,453.65 363.7,454.45 364.35,455.5 364.5,455.55 364.7,455.85 365.05,456.3 365.25,456.8 365.5,457.05 365.85,457.05 366.1,457.7 366.65,458.5 367.5,459.35 368.5,460.4 369.15,461.15 369.4,461.5 369.9,461.9 370.95,463.1 372.55,465.05 373.85,466.5 375.05,467.5 376.1,468.05 376.95,469.1 378.05,470.25 379.4,471.5 379.95,471.95 381.2,473 383.1,474.65 394.35,484.5 406.9,493.85 420.65,502.7 422,503.95 423.5,504.9 425.1,505.55 425.55,506.15 426.4,506.7 427.65,507.25 427.85,507.55 428.2,507.8 428.65,507.95 428.7,508 429.1,508.25 429.75,508.6 429.95,508.85 430.15,509 430.3,509.05 430.5,509.3 430.7,509.35 430.95,509.25 431.05,509.55 431.25,509.75 431.5,509.9 431.7,510.05 431.95,510.15 432.3,510.3 432.35,510.5 432.55,510.65 432.8,510.8 432.95,510.8 433.2,510.85 433.65,511 433.7,511.2 433.85,511.4 434.1,511.6 434.35,511.65 434.6,511.8 434.95,511.95 L435.65,512.25 C435.9,512.5 436.05,512.7 436.05,512.85 436.1,513.05 436.1,513.25 435.95,513.5 435.75,513.6 435.6,513.8 435.45,514.05 435.4,514.3 435.35,514.6 435.35,514.85 435.1,515.1 435,515.45 435.05,515.85 434.8,515.9 434.6,516.1 434.45,516.4 434.35,516.65 434.35,516.9 434.45,517.2 434.1,517.45 433.95,517.8 433.95,518.2 433.75,518.35 433.55,518.55 433.4,518.9 433.25,519.25 433.25,519.55 433.4,519.85 432.95,519.95 432.65,520.4 432.6,521.2 432.35,521.55 432.15,522 432,522.45 431.8,522.9 431.7,523.35 431.7,523.75 430.9,524.7 430.3,526.1 429.95,527.9 429.5,528.5 429.05,529.4 428.65,530.65 428.1,532.15 427.75,533.1 427.55,533.5 422.9,545.75 418.95,557.75 415.7,569.45 415.55,570.2 415.1,571.95 414.35,574.75 413.75,576.9 413.4,578.65 413.35,580.1 L413.05,580.1 C412.8,582.05 412.3,584.9 411.65,588.7 411.2,592 411,594.85 411.1,597.3 410.95,599.05 410.95,600.85 411.1,602.65 411,603.1 411.05,603.65 411.25,604.4 411.45,605.25 411.55,605.9 411.55,606.3 411.55,606.4 411.6,606.9 411.75,607.75 411.9,608.35 412.1,608.8 412.35,609.05 412.4,610.15 412.8,611.3 413.45,612.5 413.9,613.15 414.6,614.15 415.6,615.45 416.8,616.9 418.45,617.95 420.55,618.6 422.3,619.2 424.25,619.45 426.4,619.3 427.05,619.3 427.95,619.2 429.15,618.95 430.35,618.8 431.25,618.7 431.9,618.7 L432,618.35 C434.25,618.2 435.9,617.8 436.95,617.05 437.2,617.05 437.5,617 437.75,616.95 437.9,616.9 438.2,616.8 438.55,616.65 442.8,615.1 447.3,613.1 451.95,610.7 452,610.6 452.5,610.35 453.4,609.95 454,609.7 454.4,609.4 454.6,609.05 455.65,608.6 456.9,607.95 458.3,607.1 459.85,606.15 461,605.45 461.75,605 466,602.5 470.6,599.55 475.45,596.2 478.95,593.75 483.3,590.65 488.5,586.8 488.85,586.55 490.95,585 494.8,582.1 497.35,580.2 499.35,578.55 500.8,577.15 502.25,576.4 503.5,575.35 504.5,574.1 505.6,573.65 506.35,573.05 506.75,572.4 507.1,572.25 507.45,572 507.85,571.65 508.3,571.2 508.6,570.9 508.75,570.75 509.05,570.7 509.35,570.5 509.6,570.25 509.65,570.1 509.85,569.85 510.1,569.45 510.7,569.45 511.25,569 511.8,568.15 512.2,567.95 512.5,567.8 512.65,567.75 512.9,567.6 513.05,567.35 513.1,567.1 513.55,566.9 514,566.9 514.45,567.05 514.5,567.35 514.65,567.6 514.85,567.85 515.1,568.1 515.4,568.2 515.65,568.05 515.8,568.45 516,568.7 516.35,568.85 516.9,569.7 517.6,570.2 518.4,570.35 518.55,570.7 518.75,570.95 519,571.2 519.2,571.45 519.45,571.6 519.7,571.75 519.85,572.05 520.1,572.3 520.45,572.5 520.6,572.65 520.95,572.85 521.45,573.1 521.65,573.5 522,573.9 522.45,574.3 522.65,574.45 523.1,574.7 523.75,575.1 523.95,575.55 524.35,575.95 524.9,576.35 525.15,576.55 525.55,576.9 526.2,577.35 526.45,577.5 526.9,577.85 527.5,578.45 528.05,579 528.6,579.3 529.05,579.45 529.2,579.75 529.35,580 529.6,580.2 540.85,589.35 551.65,597.3 562.05,604 L570.15,609.05 C573.25,610.9 576.05,612.3 578.55,613.3 L578.65,613.6 C582.25,615.25 585.55,616.55 588.5,617.55 589.1,617.9 589.9,618.05 590.9,618.05 L591,618.25 C591.65,618.4 592.6,618.6 593.95,618.85 595.1,619.05 596.05,619.1 596.9,619.05 L596.9,619.4 C601.05,619.45 604.55,618.6 607.35,616.75 608.55,615.7 609.6,614.4 610.45,612.9 611.35,611.45 611.9,609.9 612.05,608.25 613,605.7 613.35,603.5 613.1,601.65 613.25,599.35 613.25,595.95 613.1,591.4 L612.8,591.35 C612.85,589.9 612.75,588.2 612.4,586.15 611.85,582.85 611.6,581.15 611.6,581.1 610.35,574.15 608.6,566.65 606.3,558.6 604.65,552.55 602.35,545.2 599.45,536.6 599.1,535.85 598.55,534.35 597.8,532 597.15,530.1 596.55,528.6 596,527.55 595.75,526.7 595.4,525.65 594.95,524.35 594.35,522.9 594,521.9 593.85,521.35 L593.55,521.2 C593.4,520.55 593.3,520.1 593.25,519.85 593.05,519.2 592.8,518.8 592.55,518.6 592.45,518.15 592.4,517.8 592.4,517.6 592.25,517.15 592.1,516.9 591.95,516.85 591.9,516.5 591.8,516.2 591.75,515.95 591.65,515.6 591.45,515.35 591.2,515.25 591.2,514.85 591.1,514.5 590.85,514.15 590.85,513.8 590.8,513.5 590.7,513.25 590.65,512.8 590.45,512.55 590.2,512.5 590.25,512.2 590.15,511.85 589.8,511.5 589.85,511.3 589.85,511.05 589.7,510.8 589.55,510.45 589.4,510.25 589.2,510.2 L589.5,508.9 590.2,508.9 590.2,508.7 C590.65,508.7 590.95,508.55 591.2,508.25 591.65,508 591.9,507.85 591.95,507.85 592.2,507.75 592.4,507.55 592.55,507.25 592.9,507.25 593.2,507.15 593.55,506.95 593.8,506.75 594,506.5 594.15,506.25 594.35,506.2 594.65,506.05 595.1,505.85 595.45,505.7 595.7,505.55 595.85,505.35 596.15,505.2 596.55,505 597,504.7 597.45,504.55 597.75,504.3 597.9,504 598.95,503.75 599.8,503.15 600.55,502.3 601.2,502.1 602,501.75 602.9,501.2 602.95,501.15 603.6,500.6 604.9,499.65 L605.4,499.45 C612.55,494.85 618.75,490.75 623.95,487.1 630.4,482.45 636.3,477.9 641.55,473.45 642.2,472.9 643.15,472.15 644.5,471.1 645.65,470.15 646.5,469.2 647.1,468.35 647.6,468.3 648.1,468 648.55,467.45 649.3,466.65 649.7,466.2 649.85,466.15 652.2,463.8 653.85,462.1 654.7,461.15 656.55,459.2 658,457.45 659.05,455.8 659.8,455.25 660.55,454.4 661.2,453.25 661.55,452.65 662.05,451.7 662.7,450.45 663.25,449.7 663.75,448.95 664.15,448.1 664.6,447.15 664.9,446.3 665.05,445.45 L665.35,445.35 C665.95,443.25 666.2,441.2 666.05,439.2 665.9,436.95 665.3,435 664.25,433.3 663.45,432.35 662.8,431.6 662.25,431 661.35,430.2 660.5,429.6 659.7,429.15z"/>
      </g>
    </g>
  </mask>
  <g id="masked1" mask="url(#bg3)">
    <g id="bg2">
      <g id="shape14">
        <path id="path7" fill="#FFFFFF" fill-opacity="1" d="M651.65,445 C650.45,444.55 649.35,444.25 648.35,444.2 647.95,443.95 647.45,443.7 646.85,443.5 646.1,443.35 645.5,443.25 645.1,443.2 642.75,442.6 641,442.2 639.85,442 637.75,441.5 635.9,441.25 634.35,441.25 632.65,440.8 630.45,440.4 627.8,440.15 624.8,439.95 622.6,439.75 621.2,439.55 619.65,439.4 617.45,439.3 614.7,439.15 611.65,439.1 609.5,439 608.25,438.85 600.7,438.85 595,438.85 591.2,438.85 584.55,438.85 578.85,439 574.2,439.25 573.75,439.2 573.15,439.2 572.45,439.35 571.8,439.5 571.25,439.6 570.85,439.65 570.45,439.5 569.95,439.45 569.35,439.45 568.65,439.5 568.15,439.55 567.9,439.55 567.55,439.4 567.25,439.4 567,439.55 566.65,439.6 566.4,439.75 566.2,439.95 L563.85,439.95 C563.65,439.8 563.4,439.8 563.05,439.85 562.65,439.9 562.4,439.95 562.25,439.95 561.85,439.8 561.6,439.75 561.45,439.75 561.05,439.8 560.85,440 560.85,440.25 560.4,440.1 559.95,440.1 559.5,440.25 L558.5,440.25 557.6,439.65 C557.65,439.25 557.7,438.95 557.7,438.75 557.7,438.4 557.55,438.15 557.3,438.1 L557.3,437.2 C557.3,436.8 557.15,436.3 556.9,435.7 556.85,435.25 556.75,434.9 556.7,434.65 556.7,434.3 556.6,434 556.35,433.85 556.35,433.1 556.2,432.5 555.95,431.95 555.95,431.7 555.9,431.4 555.85,431.15 555.75,430.75 555.65,430.45 555.6,430.3 555.5,429.7 555.45,429.35 555.45,429.2 555.3,428.75 555.15,428.4 554.95,428.2 554.95,426.95 554.7,425.85 554.25,424.95 553.85,422.5 553.35,420.6 552.7,419.2 550.1,408.05 546.3,395.9 541.3,382.65 539.4,377.9 538.05,374.65 537.25,372.8 535.6,369.15 534,366 532.4,363.35 532.4,363 532.25,362.6 531.95,362.15 531.6,361.7 531.4,361.35 531.25,361.15 530.15,359.35 529.3,358 528.7,357.1 527.7,355.55 526.75,354.3 525.8,353.35 L525.7,352.75 C525.4,352.55 524.6,351.75 523.35,350.4 522.4,349.4 521.55,348.75 520.7,348.4 519.95,347.45 518.9,346.65 517.5,346.05 516.65,345.7 515.4,345.3 513.65,344.85 512,344.65 510.3,344.8 508.5,345.35 506.95,345.9 505.4,346.7 503.9,347.8 L503.8,348.1 C503.25,348.25 502.7,348.6 502.1,349.2 501.3,350 500.85,350.5 500.7,350.65 500.25,350.85 499.85,351.2 499.45,351.75 499.05,352.35 498.7,352.8 498.45,353.05 497.5,353.9 496.45,355.15 495.4,356.7 494.25,358.55 493.4,359.9 492.9,360.75 492.45,361.3 492.2,361.7 492.05,361.95 491.7,362.5 491.5,363 491.45,363.35 491.05,363.8 490.6,364.45 490.1,365.3 489.75,366.15 489.4,366.85 489.1,367.35 485.2,374.95 481.5,383.55 478.05,393.15 475.45,400.25 472.55,409.2 469.35,420 469.2,420.35 469.15,420.75 469.15,421.25 468.8,421.9 468.5,422.8 468.25,423.95 467.8,425.85 467.55,426.85 467.55,426.9 467.3,427.3 467.1,427.85 466.95,428.5 466.8,428.9 466.7,429.45 466.65,430.2 466.2,430.85 466.1,431.4 466.25,431.95 465.8,432.5 465.6,433.25 465.65,434.3 465.35,434.45 465.2,434.65 465.2,435 465.2,435.2 465.2,435.45 465.2,435.8 465,436 464.85,436.35 464.8,436.8 464.75,437.05 464.65,437.45 464.6,437.9 464.35,438.4 464.2,438.85 464.2,439.25 L463.9,440.25 C463.75,440.9 463.7,441.4 463.7,441.65 463.5,441.9 463.25,442.1 463,442.3 462.55,442.15 462.1,442.15 461.65,442.3 461.3,442.15 460.95,442.05 460.65,441.9 460.25,441.9 459.95,441.85 459.75,441.8 459.5,441.8 459.2,441.85 458.95,441.9 458.6,441.9 458.3,441.85 458.15,441.8 457.8,441.8 457.55,441.85 457.3,442 456.75,441.5 456.35,441.35 456,441.55 455.05,441.4 454.15,441.4 453.25,441.55 452.65,441 451.9,440.9 451.05,441.25 450.2,441.1 449.6,441.05 449.25,441 448.5,440.85 447.85,440.85 447.3,441 444.65,440.7 441.2,440.5 436.95,440.35 431.5,440.15 428,440 426.5,439.95 422.65,439.8 419.9,439.75 418.15,439.75 414.95,439.75 412.15,439.9 409.7,440.15 403.75,440.15 398.45,440.5 393.8,441.15 387.25,441.65 381.85,442.55 377.5,443.9 374.4,444.35 371.95,445.15 370.2,446.25 369.15,446.5 368.1,446.9 367.15,447.35 366.15,447.9 365.3,448.5 364.55,449.15 363.75,449.5 362.95,450.1 362.1,450.9 361.85,451.15 361.15,451.9 360.1,453.15 357.85,456.1 357.45,460.2 358.9,465.35 L359.1,465.45 C359.15,466.2 359.45,467.1 360,468.1 L361.2,470.65 361.5,470.75 C361.75,471.4 362.2,472.2 362.8,473.15 363.15,473.65 363.7,474.45 364.35,475.5 364.5,475.55 364.7,475.85 365.05,476.3 365.25,476.8 365.5,477.05 365.85,477.05 366.1,477.7 366.65,478.5 367.5,479.35 368.5,480.4 369.15,481.15 369.4,481.5 369.9,481.9 370.95,483.1 372.55,485.05 373.85,486.5 375.05,487.5 376.1,488.05 376.95,489.1 378.05,490.25 379.4,491.5 379.95,491.95 381.2,493 383.1,494.65 394.35,504.5 406.9,513.85 420.65,522.7 422,523.95 423.5,524.9 425.1,525.55 425.55,526.15 426.4,526.7 427.65,527.25 427.85,527.55 428.2,527.8 428.65,527.95 428.7,528 429.1,528.25 429.75,528.6 429.95,528.85 430.15,529 430.3,529.05 430.5,529.3 430.7,529.35 430.95,529.25 431.05,529.55 431.25,529.75 431.5,529.9 431.7,530.05 431.95,530.15 432.3,530.3 432.35,530.5 432.55,530.65 432.8,530.8 432.95,530.8 433.2,530.85 433.65,531 433.7,531.2 433.85,531.4 434.1,531.6 434.35,531.65 434.6,531.8 434.95,531.95 L435.65,532.25 C435.9,532.5 436.05,532.7 436.05,532.85 436.1,533.05 436.1,533.25 435.95,533.5 435.75,533.6 435.6,533.8 435.45,534.05 435.4,534.3 435.35,534.6 435.35,534.85 435.1,535.1 435,535.45 435.05,535.85 434.8,535.9 434.6,536.1 434.45,536.4 434.35,536.65 434.35,536.9 434.45,537.2 434.1,537.45 433.95,537.8 433.95,538.2 433.75,538.35 433.55,538.55 433.4,538.9 433.25,539.25 433.25,539.55 433.4,539.85 432.95,539.95 432.65,540.4 432.6,541.2 432.35,541.55 432.15,542 432,542.45 431.8,542.9 431.7,543.35 431.7,543.75 430.9,544.7 430.3,546.1 429.95,547.9 429.5,548.5 429.05,549.4 428.65,550.65 428.1,552.15 427.75,553.1 427.55,553.5 422.9,565.75 418.95,577.75 415.7,589.45 415.55,590.2 415.1,591.95 414.35,594.75 413.75,596.9 413.4,598.65 413.35,600.1 L413.05,600.1 C412.8,602.05 412.3,604.9 411.65,608.7 411.2,612 411,614.85 411.1,617.3 410.95,619.05 410.95,620.85 411.1,622.65 411,623.1 411.05,623.65 411.25,624.4 411.45,625.25 411.55,625.9 411.55,626.3 411.55,626.4 411.6,626.9 411.75,627.75 411.9,628.35 412.1,628.8 412.35,629.05 412.4,630.15 412.8,631.3 413.45,632.5 413.9,633.15 414.6,634.15 415.6,635.45 416.8,636.9 418.45,637.95 420.55,638.6 422.3,639.2 424.25,639.45 426.4,639.3 427.05,639.3 427.95,639.2 429.15,638.95 430.35,638.8 431.25,638.7 431.9,638.7 L432,638.35 C434.25,638.2 435.9,637.8 436.95,637.05 437.2,637.05 437.5,637 437.75,636.95 437.9,636.9 438.2,636.8 438.55,636.65 442.8,635.1 447.3,633.1 451.95,630.7 452,630.6 452.5,630.35 453.4,629.95 454,629.7 454.4,629.4 454.6,629.05 455.65,628.6 456.9,627.95 458.3,627.1 459.85,626.15 461,625.45 461.75,625 466,622.5 470.6,619.55 475.45,616.2 478.95,613.75 483.3,610.65 488.5,606.8 488.85,606.55 490.95,605 494.8,602.1 497.35,600.2 499.35,598.55 500.8,597.15 502.25,596.4 503.5,595.35 504.5,594.1 505.6,593.65 506.35,593.05 506.75,592.4 507.1,592.25 507.45,592 507.85,591.65 508.3,591.2 508.6,590.9 508.75,590.75 509.05,590.7 509.35,590.5 509.6,590.25 509.65,590.1 509.85,589.85 510.1,589.45 510.7,589.45 511.25,589 511.8,588.15 512.2,587.95 512.5,587.8 512.65,587.75 512.9,587.6 513.05,587.35 513.1,587.1 513.55,586.9 514,586.9 514.45,587.05 514.5,587.35 514.65,587.6 514.85,587.85 515.1,588.1 515.4,588.2 515.65,588.05 515.8,588.45 516,588.7 516.35,588.85 516.9,589.7 517.6,590.2 518.4,590.35 518.55,590.7 518.75,590.95 519,591.2 519.2,591.45 519.45,591.6 519.7,591.75 519.85,592.05 520.1,592.3 520.45,592.5 520.6,592.65 520.95,592.85 521.45,593.1 521.65,593.5 522,593.9 522.45,594.3 522.65,594.45 523.1,594.7 523.75,595.1 523.95,595.55 524.35,595.95 524.9,596.35 525.15,596.55 525.55,596.9 526.2,597.35 526.45,597.5 526.9,597.85 527.5,598.45 528.05,599 528.6,599.3 529.05,599.45 529.2,599.75 529.35,600 529.6,600.2 540.85,609.35 551.65,617.3 562.05,624 L570.15,629.05 C573.25,630.9 576.05,632.3 578.55,633.3 L578.65,633.6 C582.25,635.25 585.55,636.55 588.5,637.55 589.1,637.9 589.9,638.05 590.9,638.05 L591,638.25 C591.65,638.4 592.6,638.6 593.95,638.85 595.1,639.05 596.05,639.1 596.9,639.05 L596.9,639.4 C601.05,639.45 604.55,638.6 607.35,636.75 608.55,635.7 609.6,634.4 610.45,632.9 611.35,631.45 611.9,629.9 612.05,628.25 613,625.7 613.35,623.5 613.1,621.65 613.25,619.35 613.25,615.95 613.1,611.4 L612.8,611.35 C612.85,609.9 612.75,608.2 612.4,606.15 611.85,602.85 611.6,601.15 611.6,601.1 610.35,594.15 608.6,586.65 606.3,578.6 604.65,572.55 602.35,565.2 599.45,556.6 599.1,555.85 598.55,554.35 597.8,552 597.15,550.1 596.55,548.6 596,547.55 595.75,546.7 595.4,545.65 594.95,544.35 594.35,542.9 594,541.9 593.85,541.35 L593.55,541.2 C593.4,540.55 593.3,540.1 593.25,539.85 593.05,539.2 592.8,538.8 592.55,538.6 592.45,538.15 592.4,537.8 592.4,537.6 592.25,537.15 592.1,536.9 591.95,536.85 591.9,536.5 591.8,536.2 591.75,535.95 591.65,535.6 591.45,535.35 591.2,535.25 591.2,534.85 591.1,534.5 590.85,534.15 590.85,533.8 590.8,533.5 590.7,533.25 590.65,532.8 590.45,532.55 590.2,532.5 590.25,532.2 590.15,531.85 589.8,531.5 589.85,531.3 589.85,531.05 589.7,530.8 589.55,530.45 589.4,530.25 589.2,530.2 L589.5,528.9 590.2,528.9 590.2,528.7 C590.65,528.7 590.95,528.55 591.2,528.25 591.65,528 591.9,527.85 591.95,527.85 592.2,527.75 592.4,527.55 592.55,527.25 592.9,527.25 593.2,527.15 593.55,526.95 593.8,526.75 594,526.5 594.15,526.25 594.35,526.2 594.65,526.05 595.1,525.85 595.45,525.7 595.7,525.55 595.85,525.35 596.15,525.2 596.55,525 597,524.7 597.45,524.55 597.75,524.3 597.9,524 598.95,523.75 599.8,523.15 600.55,522.3 601.2,522.1 602,521.75 602.9,521.2 602.95,521.15 603.6,520.6 604.9,519.65 L605.4,519.45 C612.55,514.85 618.75,510.75 623.95,507.1 630.4,502.45 636.3,497.9 641.55,493.45 642.2,492.9 643.15,492.15 644.5,491.1 645.65,490.15 646.5,489.2 647.1,488.35 647.6,488.3 648.1,488 648.55,487.45 649.3,486.65 649.7,486.2 649.85,486.15 652.2,483.8 653.85,482.1 654.7,481.15 656.55,479.2 658,477.45 659.05,475.8 659.8,475.25 660.55,474.4 661.2,473.25 661.55,472.65 662.05,471.7 662.7,470.45 663.25,469.7 663.75,468.95 664.15,468.1 664.6,467.15 664.9,466.3 665.05,465.45 L665.35,465.35 C665.95,463.25 666.2,461.2 666.05,459.2 665.9,456.95 665.3,455 664.25,453.3 663.45,452.35 662.8,451.6 662.25,451 Q660.9,449.8 659.7,449.15 C658.55,448.1 656.9,447.2 654.8,446.45 653.05,445.65 652,445.15 651.65,445z"/>
      </g>
    </g>
  </g>
</svg>