<?xml version="1.0" encoding="utf-8"?>
<!-- Generator: flash2svg, http://dissentgraphics.com/tools/flash2svg -->
<svg xmlns:xlink="http://www.w3.org/1999/xlink" id="X-Code" image-rendering="optimizeSpeed" baseProfile="basic" version="1.1" style="background-color:#ffffff" x="0px" y="0px" width="1024px" height="1024px" viewBox="0 0 1024 1024" enable-background="new 0 0 1024 1024" xmlns="http://www.w3.org/2000/svg">
  <defs transform="matrix(1 0 0 1 0 0) "/>
  <g id="shadow">
    <g id="shape">
      <path id="path" fill="#000000" fill-opacity="0.09803921568627451" d="M964.65,346.3 Q956.05,325.45 945.25,305.45 C941.2,297.9 936.9,290.4 932.35,283.05 912.8,251.35 888.95,221.4 860.8,193.25 768.65,101.1 657.35,55 527,55 396.65,55 285.4,101.1 193.25,193.25 101.1,285.4 55,396.65 55,527 55,657.35 101.1,768.65 193.25,860.8 285.4,952.95 396.65,999 527,999 657.35,999 768.65,952.95 860.8,860.8 911.55,810 948.35,753.4 971.15,691.05 989.7,640.2 999,585.55 999,527 999,482.1 993.55,439.45 982.6,399.05 981.35,394.5 980.05,389.95 978.7,385.45 974.6,372.15 969.9,359.1 964.65,346.3z"/>
    </g>
  </g>
  <g id="circle">
    <g id="shape2">
      <path id="path1" fill="#445D6E" fill-opacity="1" d="M969.75,392.05 C968.65,387.7 967.4,383.05 966.1,378.45 963.6,369.7 960.75,360.85 957.65,352.1 951.2,333.85 943.5,316.05 934.5,298.45 930.7,291.05 926.55,283.5 922.2,276.05 L922.175,276.05 Q891.574,224.04 845.85,178.3 C753.7,86.15 642.4,40.05 512.05,40.05 381.7,40.05 270.45,86.15 178.3,178.3 86.15,270.45 40.05,381.7 40.05,512.05 40.05,642.4 86.15,753.7 178.3,845.85 246.35,913.9 324.8,956.8 413.2,974.5 445.15,980.9 477.95,984.05 512.05,984.05 642.4,984.05 753.7,938 845.85,845.85 894.45,797.25 930.25,743.35 953.2,684.05 970.2,640.1 980.2,593.25 983.15,543.3 983.75,533.1 984.05,522.65 984.05,512.05 984.05,470.3 979.35,430.45 969.75,392.05z"/>
    </g>
  </g>
  <g id="ico">
    <g id="Symbole.__201_1" overflow="visible">
      <g id="Calque.__207">
        <g id="shape54">
          <path id="path47" fill="#577184" fill-opacity="1" d="M531.65,147.05 C523.8,150.1 521.4,155.55 524.4,163.4 L527.7,171.95 582.6,197 C590.25,200.5 592.1,206.6 588.2,215.1 L567.2,261.4 564.35,267.65 637.75,459.3 645.65,459.3 645.65,507.2 653.2,507.2 653.2,459.3 695.9,459.3 695.9,487.05 703.45,487.05 703.45,460.3 703.45,459.3 703.1,459.3 581.4,141.55 C578.4,133.7 572.95,131.25 565.1,134.3 L531.65,147.05z M552.7,459.3 L545.15,459.3 545.15,507.2 552.7,507.2 552.7,459.3z M602.95,459.3 L595.4,459.3 595.4,487.05 602.95,487.05 602.95,459.3z M753.75,459.55 L746.15,459.55 746.15,507.2 753.75,507.2 753.75,459.55z M251.15,459.3 L243.6,459.3 243.6,507.2 251.15,507.2 251.15,459.3z M301.4,459.3 L293.85,459.3 293.85,487.05 294,487.05 301.4,470.8 301.4,459.3z M502.45,459.3 L494.9,459.3 494.9,486.35 502.45,486.35 502.45,459.3z"/>
          <path id="path48" fill="#A5C9E5" fill-opacity="1" d="M588.2,215.1 C592.1,206.6 590.25,200.5 582.6,197 L527.7,171.95 464.6,143.15 C456.95,139.7 451.2,142.3 447.25,150.8 L426.25,197.1 474.15,218.95 521.85,240.65 567.2,261.4 588.2,215.1z M306.85,728.6 C303.45,729.9 300.55,731.7 298.05,733.9 297.4,734.55 296.7,735.25 296.05,736 L295.95,736.2 295.85,736.2 C295.95,736.1 295.95,736.1 296,736.05 296,735.75 296,735.4 296.05,735.1 296.35,731.2 295.8,727.3 294.3,723.45 291.7,716.45 287,711.45 280.2,708.35 273.4,705.2 266.5,704.95 259.45,707.6 256.15,708.8 253.25,710.55 250.7,712.75 249.7,713.65 248.8,714.65 247.8,715.9 247.75,716.05 247.75,716.15 247.7,716.35 L247.55,716.3 247.45,716.2 248,715.1 C248.15,714.35 248.2,713.55 248.25,712.9 248.65,708.95 248.05,705.05 246.55,701.15 243.85,694.25 239.2,689.2 232.4,686.1 225.6,682.95 218.65,682.7 211.75,685.25 208.5,686.5 205.8,688.15 203.4,690.15 203.4,690.4 203.5,690.6 203.55,690.75 203.75,692.6 204.4,694.25 205.5,695.7 L227.6,766.9 C234.45,767.4 241.6,769.45 248.9,772.85 256.45,776.25 262.8,780.45 267.9,785.5 L338.25,754.5 C338.8,754.3 339.4,754 339.9,753.75 341.1,753.1 342.2,752.1 343.3,750.85 343,748.9 342.45,746.75 341.65,744.5 339,737.55 334.35,732.55 327.55,729.45 320.7,726.35 313.75,726.1 306.85,728.6z"/>
          <path id="path49" fill="#515151" fill-opacity="1" d="M564.35,267.65 L567.2,261.4 521.85,240.65 511.25,263.75 556.6,284.5 564.35,267.65z"/>
          <path id="path50" fill="#96BDDB" fill-opacity="1" d="M595.4,459.3 L552.7,459.3 552.7,507.2 545.15,507.2 545.15,459.3 502.45,459.3 502.45,486.35 494.9,486.35 494.9,459.3 476.9,459.3 411.45,602.9 692.75,602.9 758.1,602.9 778.3,602.9 C786.65,602.9 790.9,598.7 790.9,590.3 L790.9,471.9 C790.9,463.55 786.65,459.3 778.3,459.3 L753.75,459.3 753.75,459.55 753.75,507.2 746.15,507.2 746.15,459.55 746.15,459.3 703.45,459.3 703.45,460.3 703.45,487.05 695.9,487.05 695.9,459.3 653.2,459.3 653.2,507.2 645.65,507.2 645.65,459.3 637.75,459.3 602.95,459.3 602.95,487.05 595.4,487.05 595.4,459.3z M243.6,459.3 L222.8,459.3 C214.45,459.3 210.2,463.55 210.2,471.9 L210.2,590.3 C210.2,598.7 214.45,602.9 222.8,602.9 L241.2,602.9 294,487.05 293.85,487.05 293.85,459.3 251.15,459.3 251.15,507.2 243.6,507.2 243.6,459.3z"/>
          <path id="path51" fill="#717171" fill-opacity="1" d="M426.25,197.1 L415.65,220.2 463.6,242.05 474.15,218.95 426.25,197.1z"/>
          <path id="path52" fill="#666666" fill-opacity="1" d="M474.15,218.95 L463.6,242.05 511.25,263.75 521.85,240.65 474.15,218.95z"/>
          <path id="path53" fill="#638298" fill-opacity="1" d="M511.25,263.75 L463.6,242.05 248,715.1 247.45,716.2 247.55,716.3 247.7,716.35 C247.75,716.15 247.75,716.05 247.8,715.9 248.8,714.65 249.7,713.65 250.7,712.75 253.25,710.55 256.15,708.8 259.45,707.6 266.5,704.95 273.4,705.2 280.2,708.35 287,711.45 291.7,716.45 294.3,723.45 295.8,727.3 296.35,731.2 296.05,735.1 296,735.4 296,735.75 296,736.05 295.95,736.1 295.95,736.1 295.85,736.2 L295.95,736.2 296.05,736 511.25,263.75z"/>
          <path id="path54" fill="#7E9FB7" fill-opacity="1" d="M463.6,242.05 L415.65,220.2 306.65,459.3 301.4,470.8 294,487.05 241.2,602.9 205.35,681.5 C204.15,684.2 203.5,686.7 203.4,688.9 203.5,689.25 203.4,689.75 203.4,690.15 205.8,688.15 208.5,686.5 211.75,685.25 218.65,682.7 225.6,682.95 232.4,686.1 239.2,689.2 243.85,694.25 246.55,701.15 248.05,705.05 248.65,708.95 248.25,712.9 248.2,713.55 248.15,714.35 248,715.1 L463.6,242.05z"/>
          <path id="path55" fill="#9CBDD9" fill-opacity="1" d="M306.65,459.3 L301.4,459.3 301.4,470.8 306.65,459.3z"/>
          <path id="path56" fill="#527186" fill-opacity="1" d="M298.05,733.9 C300.55,731.7 303.45,729.9 306.85,728.6 313.75,726.1 320.7,726.35 327.55,729.45 334.35,732.55 339,737.55 341.65,744.5 342.45,746.75 343,748.9 343.3,750.85 344.35,749.55 345.35,747.9 346.3,745.8 L411.45,602.9 476.9,459.3 556.6,284.5 511.25,263.75 296.05,736 C296.7,735.25 297.4,734.55 298.05,733.9z"/>
          <path id="path57" fill="#1F2930" fill-opacity="1" d="M267.9,785.5 C262.8,780.45 256.45,776.25 248.9,772.85 241.6,769.45 234.45,767.4 227.6,766.9 L237.55,798.85 267.9,785.5z"/>
          <path id="path58" fill="#ABC9E3" fill-opacity="1" d="M712.15,642.85 C711.4,645.45 710.75,648.3 710.2,651.35 708.55,661.1 708.65,671.35 710.4,682 711.7,690.35 714.05,698.9 717.45,707.7 725.2,727.85 735.95,743.45 749.75,754.5 750.65,755.25 751.55,755.9 752.45,756.5 759.8,761.85 768.25,766.5 777.85,770.45 L841.75,796.4 C832.95,792.1 826.7,779.85 822.95,759.6 819.25,739.35 816.45,725 814.55,716.55 812.6,708.15 810.6,700.1 808.6,692.45 807.55,688.5 806.6,685 805.75,682 804.9,679.2 804.05,676.8 803.3,674.85 795.55,654.7 784.75,639.1 770.9,628.1 768.55,626.15 766.2,624.5 763.8,623.05 L712.15,642.85z"/>
          <path id="path59" fill="#688296" fill-opacity="1" d="M708.55,644.25 L712.15,642.85 763.8,623.05 765.55,622.4 758.1,602.9 692.75,602.9 708.55,644.25z"/>
        </g>
      </g>
    </g>
  </g>
  <g id="circle1">
    <g id="shape4">
      <path id="path2" fill="#000000" fill-opacity="0.2" d="M969.75,392.05 C968.65,387.7 967.4,383.05 966.1,378.45 963.6,369.7 960.75,360.85 957.65,352.1 951.2,333.85 943.5,316.05 934.5,298.45 930.7,291.05 926.55,283.5 922.2,276.05 L922.175,276.05 Q892.35,225.359 848.15,180.625 L550.05,424.05 671.25,545.25 596.05,838.05 703.225,945.225 L703.25,945.25 C755.2,922.15 802.65,889.05 845.85,845.85 894.45,797.25 930.25,743.35 953.2,684.05 970.2,640.1 980.2,593.25 983.15,543.3 983.75,533.1 984.05,522.65 984.05,512.05 984.05,470.3 979.35,430.45 969.75,392.05z"/>
    </g>
  </g>
  <g id="ico-shadow">
    <g id="Symbole.__203_1" overflow="visible">
      <g id="Calque.__208">
        <g id="Symbole.__205_2" overflow="visible">
          <g id="Calque.__209">
            <g id="shape55">
              <path id="path60" fill="#CCCCCC" fill-opacity="1" d="M742.164,324.805 C744.26,311.89 738.87,304.413 725.956,302.318 L693.065,296.982 C680.151,294.886 672.674,300.276 670.578,313.19 L648.605,448.623 711.814,511.871 742.164,324.805z"/>
              <path id="path61" fill="#F4F4F4" fill-opacity="1" d="M610.843,681.374 Q605.243,684.983 599.405,696.793 592.018,711.729 589.86,725.03 L594.14,821.037 C592.045,833.952 597.434,841.428 610.348,843.524 L631.631,846.977 C644.545,849.072 652.022,843.683 654.117,830.768 L688.532,741.039 C690.267,730.35 690.11,703.468 682.428,692.988 L711.814,511.871 648.605,448.623 610.843,681.374z"/>
            </g>
          </g>
        </g>
        <g id="Symbole.__207_2" overflow="visible">
          <g id="Calque.__210">
            <g id="shape56">
              <path id="path62" fill="#E7BA02" fill-opacity="1" d="M844.379,147.384 C844.088,147.038 843.845,146.701 843.545,146.404 L819.163,296.686 C818.292,302.055 815.668,306.296 811.283,309.457 806.898,312.617 802.045,313.766 796.676,312.895 L779.263,310.07 C773.894,309.199 769.654,306.575 766.493,302.19 763.333,297.805 762.184,292.952 763.055,287.583 L792.162,108.183 C785.317,105.087 778.16,102.387 770.642,100.075 L740.805,283.973 C739.934,289.342 737.31,293.583 732.925,296.743 728.54,299.904 723.688,301.053 718.319,300.182 L700.906,297.357 C695.537,296.486 691.296,293.861 688.136,289.477 684.975,285.092 683.826,280.239 684.697,274.87 L714.534,90.972 C712.206,90.941 709.877,90.911 707.59,90.937 702.466,91 697.457,91.279 692.561,91.775 692.207,91.817 691.901,91.867 691.547,91.908 L662.448,271.26 C661.577,276.629 658.953,280.87 654.568,284.03 650.183,287.191 645.33,288.34 639.961,287.469 L622.548,284.643 C617.179,283.772 612.939,281.148 609.778,276.763 606.618,272.379 605.469,267.526 606.34,262.157 L630.707,111.972 C610.499,124.231 598.081,140.187 593.413,159.783 593.016,161.307 592.678,163.089 592.356,165.072 592.034,167.055 591.792,168.852 591.678,170.472 L571.267,296.279 569.54,306.921 C570.467,307.021 571.346,307.114 572.265,307.263 583.486,309.084 592.42,314.604 599.065,323.823 605.711,333.043 608.123,343.264 606.302,354.485 604.482,365.707 598.962,374.64 589.742,381.286 580.523,387.931 570.302,390.344 559.081,388.523 558.162,388.374 557.291,388.233 556.38,388.035 L549.623,429.681 820.206,473.532 826.963,431.886 C826.036,431.785 825.165,431.644 824.246,431.495 813.025,429.674 804.091,424.154 797.446,414.935 790.8,405.715 788.388,395.495 790.209,384.273 792.029,373.052 797.549,364.118 806.769,357.473 815.988,350.827 826.209,348.415 837.43,350.235 Q838.736,350.447 840.075,350.764 L863.831,204.649 C865.847,184.574 859.368,165.453 844.379,147.384z"/>
              <path id="path63" fill="#C5A12E" fill-opacity="1" d="M843.545,146.404 C840.752,143.122 837.66,139.84 834.271,136.56 822.323,125.14 808.596,115.814 793.082,108.63 792.759,108.479 792.485,108.335 792.162,108.183 L763.055,287.583 C762.184,292.952 763.333,297.805 766.493,302.19 769.654,306.575 773.894,309.199 779.263,310.07 L796.676,312.895 C802.045,313.766 806.898,312.617 811.283,309.457 815.668,306.296 818.292,302.055 819.163,296.686 L843.545,146.404z M763.996,98.202 C757.245,96.362 750.238,94.878 742.934,93.693 733.212,92.116 723.727,91.222 714.534,90.972 L684.697,274.87 C683.826,280.239 684.975,285.092 688.136,289.477 691.296,293.861 695.537,296.486 700.906,297.357 L718.319,300.182 C723.688,301.053 728.54,299.904 732.925,296.743 737.31,293.583 739.934,289.342 740.805,283.973 L770.642,100.075 C768.464,99.424 766.23,98.813 763.996,98.202z M642.73,105.483 C638.863,107.288 635.222,109.229 631.807,111.306 631.43,111.493 631.092,111.736 630.707,111.972 L606.34,262.157 C605.469,267.526 606.618,272.379 609.778,276.763 612.939,281.148 617.179,283.772 622.548,284.643 L639.961,287.469 C645.33,288.34 650.183,287.191 654.568,284.03 658.953,280.87 661.577,276.629 662.448,271.26 L691.547,91.908 C674.218,93.763 657.949,98.272 642.73,105.483z"/>
            </g>
          </g>
        </g>
      </g>
    </g>
  </g>
</svg>