<?xml version="1.0" encoding="utf-8"?>
<!-- Generator: flash2svg, http://dissentgraphics.com/tools/flash2svg -->
<svg xmlns:xlink="http://www.w3.org/1999/xlink" id="Launchpad" image-rendering="optimizeSpeed" baseProfile="basic" version="1.1" style="background-color:#ffffff" x="0px" y="0px" width="1024px" height="1024px" viewBox="0 0 1024 1024" enable-background="new 0 0 1024 1024" xmlns="http://www.w3.org/2000/svg">
  <defs transform="matrix(1 0 0 1 0 0) "/>
  <g id="shadow">
    <g id="shape">
      <path id="path" fill="#000000" fill-opacity="0.09803921568627451" d="M957.65,339.3 Q949.037,318.427 938.25,298.45 C934.2,290.9 929.9,283.4 925.35,276.05 905.8,244.35 881.95,214.4 853.8,186.25 761.65,94.1 650.35,48 520,48 389.65,48 278.4,94.1 186.25,186.25 94.1,278.4 48,389.65 48,520 48,650.35 94.1,761.65 186.25,853.8 278.4,945.95 389.65,992 520,992 650.35,992 761.65,945.95 853.8,853.8 904.55,803 941.35,746.4 964.15,684.05 982.7,633.2 992,578.55 992,520 992,475.1 986.55,432.45 975.6,392.05 974.35,387.5 973.05,382.95 971.7,378.45 967.6,365.15 962.9,352.1 957.65,339.3z"/>
    </g>
  </g>
  <g id="circle">
    <g id="shape2">
      <path id="path1" fill="#363F6A" fill-opacity="1" d="M969.75,392.05 C968.65,387.7 967.4,383.05 966.1,378.45 963.6,369.7 960.75,360.85 957.65,352.1 951.2,333.85 943.5,316.05 934.5,298.45 930.7,291.05 926.55,283.5 922.2,276.05 L922.175,276.05 Q891.574,224.04 845.85,178.3 C753.7,86.15 642.4,40.05 512.05,40.05 381.7,40.05 270.45,86.15 178.3,178.3 86.15,270.45 40.05,381.7 40.05,512.05 40.05,642.4 86.15,753.7 178.3,845.85 270.45,938 381.7,984.05 512.05,984.05 524.75,984.05 537.25,983.6 549.1,982.8 569.3,981.35 589,978.75 607.8,975.1 615.75,973.55 623.6,971.8 631.2,969.95 712,949.65 783.35,908.35 845.85,845.85 894.45,797.25 930.25,743.35 953.2,684.05 971.65,636.4 981.85,585.25 983.75,530.55 983.95,524.5 984.05,518.3 984.05,512.05 984.05,470.3 979.35,430.45 969.75,392.05z"/>
    </g>
  </g>
  <g id="Calque.__202">
    <g id="shape4">
      <path id="path2" fill="#A4B7FF" fill-opacity="1" d="M401.15,125.15 C397.75,128.6 396.05,132.7 396.05,137.55 396.05,142.4 397.75,146.5 401.15,149.9 404.6,153.35 408.7,155.05 413.55,155.05 418.4,155.05 422.5,153.35 425.9,149.9 429.35,146.5 431.05,142.4 431.05,137.55 431.05,132.7 429.35,128.6 425.9,125.15 422.5,121.75 418.4,120.05 413.55,120.05 408.7,120.05 404.6,121.75 401.15,125.15z M742.55,726.05 C737.45,726.05 733.1,727.85 729.45,731.45 725.85,735.1 724.05,739.45 724.05,744.55 724.05,749.65 725.85,754 729.45,757.6 733.1,761.25 737.45,763.05 742.55,763.05 747.65,763.05 752,761.25 755.6,757.6 759.25,754 761.05,749.65 761.05,744.55 761.05,739.45 759.25,735.1 755.6,731.45 752,727.85 747.65,726.05 742.55,726.05z M788.5,232.5 Q792.05,229 792.05,224.05 C792.05,220.75 790.85,217.9 788.5,215.55 786.15,213.2 783.35,212.05 780.05,212.05 776.75,212.05 773.9,213.2 771.55,215.55 769.2,217.9 768.05,220.75 768.05,224.05 768.05,227.35 769.2,230.15 771.55,232.5 773.9,234.85 776.75,236.05 780.05,236.05 783.35,236.05 786.15,234.85 788.5,232.5z M881.7,591.7 C883.25,590.15 884.05,588.25 884.05,586.05 884.05,583.85 883.25,581.95 881.7,580.4 880.15,578.85 878.25,578.05 876.05,578.05 873.85,578.05 871.95,578.85 870.4,580.4 868.85,581.95 868.05,583.85 868.05,586.05 868.05,588.25 868.85,590.15 870.4,591.7 871.95,593.25 873.85,594.05 876.05,594.05 878.25,594.05 880.15,593.25 881.7,591.7z M139,305.1 C128.95,315.15 123.9,327.3 123.9,341.55 123.9,355.8 128.95,367.95 139,378 149.05,388.05 161.2,393.1 175.45,393.1 189.7,393.1 201.85,388.05 211.9,378 221.95,367.95 227,355.8 227,341.55 227,327.3 221.95,315.15 211.9,305.1 201.85,295.05 189.7,290 175.45,290 161.2,290 149.05,295.05 139,305.1z"/>
      <path id="path5" fill="#F1F1F1" fill-opacity="1" d="M759.7,611.7 C761.25,610.15 762.05,608.25 762.05,606.05 762.05,603.85 761.25,601.95 759.7,600.4 758.15,598.85 756.25,598.05 754.05,598.05 751.85,598.05 749.95,598.85 748.4,600.4 746.85,601.95 746.05,603.85 746.05,606.05 746.05,608.25 746.85,610.15 748.4,611.7 749.95,613.25 751.85,614.05 754.05,614.05 756.25,614.05 758.15,613.25 759.7,611.7z M253.55,287.55 C251.2,289.9 250.05,292.7 250.05,296.05 250.05,299.35 251.2,302.15 253.55,304.5 255.9,306.85 258.7,308 262.05,308 265.35,308 268.15,306.85 270.5,304.5 272.85,302.15 274.05,299.35 274.05,296.05 274.05,292.7 272.85,289.9 270.5,287.55 268.15,285.2 265.35,284.05 262.05,284.05 258.7,284.05 255.9,285.2 253.55,287.55z M843.65,287.65 C842.6,288.7 842.05,290 842.05,291.55 842.05,293.05 842.6,294.35 843.65,295.4 844.75,296.5 846.05,297.05 847.55,297.05 849.1,297.05 850.4,296.5 851.45,295.4 852.5,294.35 853.05,293.05 853.05,291.55 853.05,290 852.5,288.7 851.45,287.65 850.4,286.6 849.1,286.05 847.55,286.05 846.05,286.05 844.75,286.6 843.65,287.65z"/>
    </g>
  </g>
  <g id="ico-shadow">
    <g id="shape19">
      <path id="path16" fill="#000000" fill-opacity="0.2" d="M983.725,530.55 L734.75,281.6 226.05,564.8 631.175,969.925 L631.2,969.95 C712,949.65 783.35,908.35 845.85,845.85 894.45,797.25 930.25,743.35 953.2,684.05 Q980.942,612.466 983.725,530.55z M238.15,605.45 L204.95,638.65 549.075,982.775 L549.1,982.8 C569.3,981.35 589,978.75 607.8,975.1 L238.15,605.45z"/>
    </g>
  </g>
  <mask id="circle1">
    <g id="g">
      <g id="shape23">
        <path id="path19" fill="#FFFFFF" fill-opacity="1" d="M969.75,392.05 C968.65,387.7 967.4,383.05 966.1,378.45 963.6,369.7 960.75,360.85 957.65,352.1 951.2,333.85 943.5,316.05 934.5,298.45 930.7,291.05 926.55,283.5 922.2,276.05 L922.175,276.05 Q891.574,224.04 845.85,178.3 C753.7,86.15 642.4,40.05 512.05,40.05 381.7,40.05 270.45,86.15 178.3,178.3 86.15,270.45 40.05,381.7 40.05,512.05 40.05,642.4 86.15,753.7 178.3,845.85 270.45,938 381.7,984.05 512.05,984.05 524.75,984.05 537.25,983.6 549.1,982.8 569.3,981.35 589,978.75 607.8,975.1 615.75,973.55 623.6,971.8 631.2,969.95 712,949.65 783.35,908.35 845.85,845.85 894.45,797.25 930.25,743.35 953.2,684.05 971.65,636.4 981.85,585.25 983.75,530.55 983.95,524.5 984.05,518.3 984.05,512.05 984.05,470.3 979.35,430.45 969.75,392.05z"/>
      </g>
    </g>
  </mask>
  <g id="masked" mask="url(#circle1)">
    <g id="ico">
      <g id="Symbole.__202_1" overflow="visible">
        <g id="Calque.__205">
          <g id="shape39">
            <path id="path31" fill="#CCCCCC" fill-opacity="1" d="M747.05,311.1 C747,299.55 742.9,289.7 734.75,281.55 L605.4,410.9 C619.25,424.75 626.55,441.35 627.2,460.7 627.25,461.7 627.25,462.7 627.25,463.65 627.3,484.25 620,501.85 605.35,516.5 590.8,531.05 573.2,538.35 552.55,538.35 531.95,538.35 514.35,531.1 499.8,516.55 L403,613.35 584.45,794.8 C586.2,789.2 587.6,782.8 588.6,775.7 L588.6,667.25 C590.15,634.8 606.7,600.2 638.1,563.5 L695.35,506.2 C710.3,490.5 720.55,472.85 726.15,453.25 726.45,452.25 726.7,451.15 727,450.15 727,450.15 747.05,315.95 747.05,311.1z"/>
            <path id="path32" fill="#F1F1F1" fill-opacity="1" d="M734.7,281.45 C726.45,273.25 716.6,269.2 705.05,269.15 700.25,269.15 566.1,289.25 566.1,289.25 Q564.5,289.6 562.95,290.05 C543.35,295.65 525.7,305.9 510,320.9 L452.75,378.2 C416.05,409.6 381.4,426.1 348.9,427.6 L240.5,427.65 C233.4,428.6 227,430 221.5,431.85 L402.95,613.25 499.75,516.45 C485.2,501.8 477.9,484.2 477.9,463.65 477.9,462.7 477.9,461.75 477.95,460.7 478.65,441.35 485.9,424.75 499.75,410.9 514.4,396.25 532,388.95 552.6,388.95 573.15,388.95 590.75,396.25 605.35,410.85 L734.7,281.45z"/>
            <path id="path33" fill="#4B5277" fill-opacity="1" d="M605.4,410.9 L605.35,410.85 C590.75,396.25 573.15,388.95 552.6,388.95 532,388.95 514.4,396.25 499.75,410.9 485.9,424.75 478.65,441.35 477.95,460.7 477.9,461.75 477.9,462.7 477.9,463.65 477.9,484.2 485.2,501.8 499.75,516.45 L499.8,516.5 499.8,516.55 C514.35,531.1 531.95,538.35 552.55,538.35 573.2,538.35 590.8,531.05 605.35,516.5 620,501.85 627.3,484.25 627.25,463.65 627.25,462.7 627.25,461.7 627.2,460.7 626.55,441.35 619.25,424.75 605.4,410.9z"/>
            <path id="path34" fill="#999999" fill-opacity="1" d="M221.5,431.85 C210.6,435.3 202.25,440.25 196.25,446.75 L382.85,633.3 402.95,613.25 221.5,431.85z M403,613.35 L382.9,633.4 569.45,819.95 C575.95,813.9 580.9,805.55 584.45,794.8 L403,613.35z"/>
            <path id="path35" fill="#666666" fill-opacity="1" d="M209,532 C203.8,537.25 203.8,542.55 209.1,547.8 L468.4,807.15 C473.7,812.4 479,812.4 484.2,807.15 L497.45,748.35 382.65,633.55 267.85,518.7 209,532z"/>
            <path id="path36" fill="#A4B7FC" fill-opacity="1" d="M380.65,849.15 C415.7,814.4 415.7,779.4 380.95,744.65 L265.95,629.65 C231.25,594.95 196.2,594.95 161.15,629.65 L46.1,744.65 C11.4,779.4 11.75,814.4 46.45,849.15 L161.5,964.15 C196.2,998.85 230.9,998.85 265.6,964.15 L380.65,849.15z M-305.4,588.15 C-318.65,588.15 -330,592.85 -339.35,602.2 -348.7,611.55 -353.4,622.9 -353.4,636.15 L-353.4,854.15 C-353.4,867.4 -348.7,878.75 -339.35,888.1 -330,897.45 -318.65,902.15 -305.4,902.15 -292.15,902.15 -280.8,897.45 -271.45,888.1 -262.1,878.75 -257.4,867.4 -257.4,854.15 L-257.4,636.15 C-257.4,622.9 -262.1,611.55 -271.45,602.2 -280.8,592.85 -292.15,588.15 -305.4,588.15z"/>
          </g>
        </g>
        <g id="Calque.__206">
          <g id="shape40">
            <path id="path37" fill="none" stroke="#FFFFFF" stroke-opacity="0.4980392156862745" stroke-width="16" stroke-linecap="round" stroke-linejoin="miter" stroke-miterlimit="3" d="M591.6,436.65 Q579,426.45 562.15,426.45 C549,426.45 537.8,431.1 528.5,440.4 519.25,449.7 514.6,460.85 514.6,474 514.6,485.25 518,495.05 524.8,503.45"/>
          </g>
        </g>
      </g>
    </g>
  </g>
</svg>