<?xml version="1.0" encoding="utf-8"?>
<!-- Generator: flash2svg, http://dissentgraphics.com/tools/flash2svg -->
<svg xmlns:xlink="http://www.w3.org/1999/xlink" id="APP" image-rendering="optimizeSpeed" baseProfile="basic" version="1.1" style="background-color:#ffffff" x="0px" y="0px" width="1024px" height="1024px" viewBox="0 0 1024 1024" enable-background="new 0 0 1024 1024" xmlns="http://www.w3.org/2000/svg">
  <defs transform="matrix(1 0 0 1 0 0) "/>
  <g id="shadow">
    <g id="shape">
      <path id="path" fill="#000000" fill-opacity="0.09803921568627451" d="M965.65,347.3 Q957.05,326.45 946.25,306.45 C942.2,298.9 937.9,291.4 933.35,284.05 913.8,252.35 889.95,222.4 861.8,194.25 769.65,102.1 658.35,56 528,56 397.65,56 286.4,102.1 194.25,194.25 102.1,286.4 56,397.65 56,528 56,658.35 102.1,769.65 194.25,861.8 286.4,953.95 397.65,1000 528,1000 658.35,1000 769.65,953.95 861.8,861.8 912.55,811 949.35,754.4 972.15,692.05 990.7,641.2 1000,586.55 1000,528 1000,483.1 994.55,440.45 983.6,400.05 982.35,395.5 981.05,390.95 979.7,386.45 975.6,373.15 970.9,360.1 965.65,347.3z"/>
    </g>
  </g>
  <g id="Calque.__206">
    <g id="shape2">
      <path id="path1" fill="#B43A29" fill-opacity="1" d="M985.95,512.45 Q985.95,317.1 847.85,178.95 C755.75,86.9 644.6,40.85 514.35,40.85 384.1,40.85 272.95,86.9 180.85,178.95 88.8,271.05 42.75,382.2 42.75,512.45 42.75,642.7 88.8,753.85 180.85,845.95 272.95,938 384.1,984.05 514.35,984.05 644.6,984.05 755.75,938 847.85,845.95 939.9,753.85 985.95,642.7 985.95,512.45z"/>
    </g>
  </g>
  <g id="Calque.__207">
    <g id="shape4">
      <path id="path2" fill="#7D2316" fill-opacity="1" d="M761.9,760 Q864.45,657.5 864.45,512.45 C864.45,415.75 830.25,333.25 761.9,264.9 693.55,196.55 611.05,162.35 514.35,162.35 417.65,162.35 335.15,196.55 266.8,264.9 198.45,333.25 164.25,415.75 164.25,512.45 164.25,609.15 198.45,691.65 266.8,760 335.15,828.35 417.65,862.55 514.35,862.55 611.05,862.55 693.55,828.35 761.9,760z"/>
    </g>
  </g>
  <g id="F">
    <g id="shape6">
      <path id="path3" fill="#000000" fill-opacity="0.2" d="M393.1,272.55 L367.1,277 C345.15,283.15 328.65,294.15 317.65,310 306.9,325.85 301.5,346.65 301.5,372.45 L301.5,747.8 392.45,747.8 392.45,556.3 584.6,550.3 584.6,475.15 392.45,468.5 392.45,394.65 C392.45,384.3 393.7,376.05 396.25,369.9 400.05,362.05 410,358.15 426.05,358.15 L613.75,358.15 613.75,283.05 C586.05,279 544,276.25 487.55,274.8 L393.1,272.55z"/>
    </g>
  </g>
  <g id="l">
    <g id="shape8">
      <path id="path4" fill="#000000" fill-opacity="0.2" d="M719.4,443.55 L664.85,443.55 664.85,675.05 C664.85,701.55 669.35,720.45 678.35,731.7 682.8,737.3 688.35,741.55 695.05,744.45 701.65,747.25 709.4,748.65 718.3,748.65 L763.35,748.65 763.35,715.15 737.3,707 C731.1,704.6 726.55,700.65 723.6,695.2 720.8,689.75 719.4,680.15 719.4,666.5 L719.4,443.55z"/>
    </g>
  </g>
  <g id="F1">
    <g id="shape10">
      <path id="path5" fill="#FFFFFF" fill-opacity="1" d="M373.3,252.8 L347.3,257.25 C325.35,263.4 308.85,274.4 297.85,290.25 287.1,306.1 281.7,326.9 281.7,352.7 L281.7,728.05 372.65,728.05 372.65,536.55 564.8,530.55 564.8,455.4 372.65,448.75 372.65,374.9 C372.65,364.55 373.9,356.3 376.45,350.15 380.25,342.3 390.2,338.4 406.25,338.4 L593.95,338.4 593.95,263.3 C566.25,259.25 524.2,256.5 467.75,255.05 L373.3,252.8z"/>
    </g>
  </g>
  <g id="l1">
    <g id="shape12">
      <path id="path6" fill="#FFFFFF" fill-opacity="1" d="M703.85,675.4 Q699.65,667.2 699.65,646.7 L699.65,423.75 645.1,423.75 645.1,655.25 C645.1,681.75 649.6,700.65 658.6,711.9 663.05,717.5 668.6,721.75 675.3,724.65 681.9,727.45 689.65,728.85 698.55,728.85 L743.6,728.85 743.6,695.35 717.55,687.2 C711.35,684.8 706.8,680.85 703.85,675.4z"/>
    </g>
  </g>
</svg>