<?xml version="1.0" encoding="utf-8"?>
<!-- Generator: flash2svg, http://dissentgraphics.com/tools/flash2svg -->
<svg xmlns:xlink="http://www.w3.org/1999/xlink" id="FFX" image-rendering="optimizeSpeed" baseProfile="basic" version="1.1" style="background-color:#ffffff" x="0px" y="0px" width="512px" height="512px" viewBox="0 0 512 512" enable-background="new 0 0 512 512" xmlns="http://www.w3.org/2000/svg">
  <defs transform="matrix(1 0 0 1 0 0) "/>
  <g id="Calque.__201">
    <g id="shape">
      <path id="path" fill="#000000" fill-opacity="0.09803921568627451" d="M507.05,268.55 Q507.05,169.75 437.2,99.9 C390.65,53.35 334.4,30.05 268.55,30.05 202.7,30.05 146.45,53.35 99.9,99.9 53.35,146.45 30.05,202.7 30.05,268.55 30.05,334.4 53.35,390.65 99.9,437.2 146.45,483.75 202.7,507.05 268.55,507.05 334.4,507.05 390.65,483.75 437.2,437.2 483.75,390.65 507.05,334.4 507.05,268.55z"/>
    </g>
  </g>
  <g id="Calque.__202">
    <g id="shape2">
      <path id="path1" fill="#324860" fill-opacity="1" d="M497.05,258.55 Q497.05,159.75 427.2,89.9 C380.65,43.35 324.4,20.05 258.55,20.05 192.7,20.05 136.45,43.35 89.9,89.9 43.35,136.45 20.05,192.7 20.05,258.55 20.05,324.4 43.35,380.65 89.9,427.2 136.45,473.75 192.7,497.05 258.55,497.05 324.4,497.05 380.65,473.75 427.2,427.2 473.75,380.65 497.05,324.4 497.05,258.55z"/>
    </g>
  </g>
  <g id="Calque.__203">
    <g id="shape4">
      <path id="path2" fill="#233242" fill-opacity="1" d="M383.75,383.75 Q435.6,331.9 435.6,258.55 C435.6,209.65 418.3,167.9 383.75,133.35 349.2,98.8 307.45,81.5 258.55,81.5 209.65,81.5 167.9,98.8 133.35,133.35 98.8,167.9 81.5,209.65 81.5,258.55 81.5,307.45 98.8,349.2 133.35,383.75 167.9,418.3 209.65,435.6 258.55,435.6 307.45,435.6 349.2,418.3 383.75,383.75z"/>
    </g>
  </g>
  <g id="Calque.__204">
    <g id="shape6">
      <path id="path3" fill="#000000" fill-opacity="0.2" d="M410.6,297.45 L341.15,94.75 296.65,188.65 213.7,188.65 169.15,94.75 99.75,297.45 227.45,456.15 282.85,456.15 410.6,297.45z"/>
    </g>
  </g>
  <g id="Calque.__205">
    <g id="shape8">
      <path id="path4" fill="#D95400" fill-opacity="1" d="M410.6,287.45 L341.15,84.75 296.65,178.65 213.7,178.65 169.15,84.75 99.75,287.45 255.85,374.45 410.6,287.45z"/>
      <path id="path5" fill="#FFFFFF" fill-opacity="1" d="M255.85,374.45 L99.75,287.45 227.45,446.15 255.15,418.45 282.85,446.15 410.6,287.45 255.85,374.45z"/>
      <path id="path6" fill="#DB5400" fill-opacity="1" d="M282.85,446.15 L255.15,418.45 227.45,446.15 282.85,446.15z"/>
    </g>
  </g>
  <g id="Calque.__206">
    <g id="shape13">
      <path id="path7" fill="#FFFFFF" fill-opacity="1" d="M165.95,271.35 L186.6,289.2 C183.45,298.65 185.6,304.75 193,307.6 202.75,311.45 217,311.45 235.7,307.6 L165.95,271.35z M274.55,307.6 C293.25,311.45 307.5,311.45 317.25,307.6 Q328.3,303.35 323.65,289.2 L344.3,271.35 274.55,307.6z"/>
    </g>
  </g>
</svg>