<?xml version="1.0" encoding="utf-8"?>
<!-- Generator: flash2svg, http://dissentgraphics.com/tools/flash2svg -->
<svg xmlns:xlink="http://www.w3.org/1999/xlink" id="APP-alt" image-rendering="optimizeSpeed" baseProfile="basic" version="1.1" style="background-color:#ffffff" x="0px" y="0px" width="1024px" height="1024px" viewBox="0 0 1024 1024" enable-background="new 0 0 1024 1024" xmlns="http://www.w3.org/2000/svg">
  <defs transform="matrix(1 0 0 1 0 0) "/>
  <g id="shadow">
    <g id="shape">
      <path id="path" fill="#000000" fill-opacity="0.09803921568627451" d="M969.65,351.3 Q961.05,330.45 950.25,310.45 C946.2,302.9 941.9,295.4 937.35,288.05 917.8,256.35 893.95,226.4 865.8,198.25 773.65,106.1 662.35,60 532,60 401.65,60 290.4,106.1 198.25,198.25 106.1,290.4 60,401.65 60,532 60,662.35 106.1,773.65 198.25,865.8 290.4,957.95 401.65,1004 532,1004 662.35,1004 773.65,957.95 865.8,865.8 916.55,815 953.35,758.4 976.15,696.05 994.7,645.2 1004,590.55 1004,532 1004,487.1 998.55,444.45 987.6,404.05 986.35,399.5 985.05,394.95 983.7,390.45 979.6,377.15 974.9,364.1 969.65,351.3z"/>
    </g>
  </g>
  <g id="Calque.__202">
    <g id="shape2">
      <path id="path1" fill="#E85479" fill-opacity="1" d="M982.1,517 Q982.1,514.55 982.1,512.05 C982.1,381.7 936.05,270.45 843.9,178.3 752,86.45 641.05,40.35 511.1,40.1 L511.1,515.05 513.1,515.05 513.1,517 982.1,517z"/>
      <path id="path2" fill="#00C0E6" fill-opacity="1" d="M511.1,40.1 C510.75,40.1 510.45,40.1 510.1,40.1 379.75,40.1 268.5,86.15 176.35,178.3 84.2,270.45 38.15,381.7 38.15,512.05 38.15,513.05 38.15,514.05 38.15,515.05 L511.1,515.05 511.1,40.1z"/>
      <path id="path3" fill="#EBC240" fill-opacity="1" d="M513.1,515.05 L511.1,515.05 38.15,515.05 C38.85,644.15 84.9,754.4 176.35,845.85 268.5,938 379.75,984.05 510.1,984.05 510.45,984.05 510.75,984.05 511.1,984.05 511.75,984.05 512.45,984.05 513.1,984.05 L513.1,517 513.1,515.05z"/>
      <path id="path4" fill="#55DA97" fill-opacity="1" d="M843.9,845.85 C934.85,754.85 980.95,645.25 982.1,517 L513.1,517 513.1,984.05 C642.2,983.3 752.45,937.25 843.9,845.85z"/>
    </g>
  </g>
  <g id="inner">
    <g id="shape8">
      <path id="path5" fill="#E85479" fill-opacity="1" d="M519.175,483.025 L511.1,476.075 511.1,515.05 513.1,515.05 513.1,517 529.275,517 519.175,483.025z"/>
      <path id="path6" fill="#000000" fill-opacity="0.2" d="M634.55,300.95 L486.2,308.3 449.025,348.025 426.525,403.2 511.1,476.075 519.175,483.025 529.275,517 513.1,517 513.1,539.7 430.05,566.05 401.75,656.05 694.05,948.35 C748.7,925.25 798.6,891.1 843.9,845.85 905.9,783.8 947.05,713.15 967.35,633.75 L634.55,300.95z"/>
    </g>
  </g>
  <g id=".__EF.__86.__A0">
    <g id="shape12">
      <path id="path7" fill="#FFFFFF" fill-opacity="1" d="M443.7,331.2 C433.9,339.65 426.2,349.85 420.6,361.85 415.05,373.85 412.25,386.25 412.25,399.05 412.25,422.1 420.15,441.1 435.95,456.05 451.75,471.05 471.15,478.55 494.2,478.55 L510.1,477.7 C506.85,484.65 505.2,491.3 505.2,497.55 505.2,503.95 506.45,509.65 508.9,514.7 L519.95,531.9 C477.4,534.6 445.95,542.35 425.5,555.15 414.05,562.4 404.9,571.4 397.95,582.15 391,592.8 387.5,604.45 387.5,617.1 387.5,628.25 390.3,638.5 395.9,647.75 404.85,662.6 418.3,673.3 436.15,679.85 454,686.25 473.2,689.45 493.75,689.45 518.7,689.45 541.9,685 563.45,676.15 574.2,671.65 583.7,665.85 591.85,658.8 600,651.85 606.85,643.6 612.3,634.05 619.95,621.4 623.75,607.95 623.75,593.8 623.75,581.65 621.3,570.55 616.4,560.5 611.35,550.55 605.25,542.5 598.2,536.35 L577.15,519.2 559.15,503.25 C554.1,497.8 551.6,492.3 551.6,486.7 551.6,481.4 553.5,476.3 557.35,471.4 L571.2,457.1 587.35,441.75 C592.8,436.3 597.45,429.1 601.25,420.1 605.1,411.1 607,401 607,389.85 607,375.8 604.05,363.35 598.2,352.45 592.2,341.55 583.4,331.2 571.85,321.4 L602.5,321.4 634.55,300.95 537.1,300.95 C519.65,300.95 502.7,303.4 486.2,308.3 469.75,313.35 455.55,320.95 443.7,331.2z M481.9,324.65 C488.15,321.5 494.6,319.95 501.15,319.95 511.2,319.95 520.35,323.15 528.5,329.55 536.85,335.95 543.4,344 548.15,353.65 553.05,363.5 556.8,373.55 559.35,383.9 561.95,394.25 563.25,404 563.25,413.15 563.25,429.2 559.15,441.6 551,450.35 547.05,454.55 541.9,457.95 535.65,460.55 529.4,463.15 523.35,464.45 517.5,464.45 509.45,464.45 501.95,462.4 495,458.3 488.05,454.25 482.15,449 477.4,442.55 472.75,436.15 468.75,429 465.35,421.1 461.95,413.05 459.5,405.05 458,397 L455.75,374.1 C455.75,358.45 459.3,346.05 466.4,336.9 Q472.5,329.15 481.9,324.65z M525.25,546.2 L536.7,546.6 C538.85,548.1 541.7,550.15 545.25,552.7 L563.45,566.4 572.45,574.4 579.4,582.55 585.75,592.35 589,602.15 590.65,613.6 C590.65,623.3 588.55,631.75 584.3,638.95 579.95,646.3 574.2,652.05 567.15,656.15 560.05,660.2 552.35,663.2 544.05,665.1 535.75,667.15 527.1,668.2 518.1,668.2 L494.4,666.35 C486.5,665 478.65,662.65 470.9,659.4 463.25,656.25 456.5,652.4 450.65,647.75 444.8,643.25 440,637.4 436.35,630.15 432.7,622.95 430.85,615 430.85,606.25 430.85,597.1 432.95,588.95 437.15,581.75 441.4,574.5 446.75,568.7 453.3,564.35 459.7,560 467.2,556.4 475.8,553.55 L500.9,547.8 525.25,546.2z"/>
    </g>
  </g>
</svg>