<?xml version="1.0" encoding="utf-8"?>
<!-- Generator: flash2svg, http://dissentgraphics.com/tools/flash2svg -->
<svg xmlns:xlink="http://www.w3.org/1999/xlink" id="FOLDER-Burn" image-rendering="optimizeSpeed" baseProfile="basic" version="1.1" style="background-color:#ffffff" x="0px" y="0px" width="1024px" height="1024px" viewBox="0 0 1024 1024" enable-background="new 0 0 1024 1024" xmlns="http://www.w3.org/2000/svg">
  <defs transform="matrix(1 0 0 1 0 0) "/>
  <g id="Shadow">
    <g id="shape">
      <path id="path" fill="#000000" fill-opacity="0.09803921568627451" d="M782.05,94.45 L782.05,96.4 290.2,96.4 290.2,94.45 191.05,189.8 191.05,262.3 63.15,262.3 63.15,945 C63.15,957.55 73.5,967.85 86,967.85 L982.45,967.85 C994.95,967.85 1005.3,957.55 1005.3,945 L1005.3,262.3 881.35,262.3 881.35,189.8 782.05,94.45z M782.05,262.3 L290.2,262.3 290.2,189.8 782.05,189.8 782.05,262.3z"/>
    </g>
  </g>
  <g id="Dark">
    <g id="shape5">
      <path id="path4" fill="#AE3017" fill-opacity="1" d="M857.8,168.4 L758.5,75 266.6,75.05 167.5,168.4 857.8,168.4z M453.525,536.05 L623.05,493.05 981.75,851.75 981.75,301.85 39.6,301.85 39.6,923.6 C39.6,936.15 49.95,946.45 62.45,946.45 L636.15,946.45 400.05,710.35 453.525,536.05z"/>
      <path id="path7" fill="#8B2406" fill-opacity="1" d="M623.05,493.05 L453.525,536.05 400.05,710.35 636.15,946.45 958.9,946.45 C971.4,946.45 981.75,936.15 981.75,923.6 L981.75,851.75 623.05,493.05z"/>
    </g>
  </g>
  <g id="Light">
    <g id="shape11">
      <path id="path8" fill="#EB4A2C" fill-opacity="1" d="M981.75,301.85 L981.75,240.9 857.8,240.9 857.8,168.4 758.5,75 758.5,240.9 266.65,240.9 266.65,75 167.5,168.4 167.5,240.9 39.6,240.9 39.6,301.85 981.75,301.85z"/>
    </g>
  </g>
  <g id="Calque.__201">
    <g id="shape13">
      <path id="path9" fill="#FFFFFF" fill-opacity="1" d="M511.8,585.05 C506.65,585.05 502.2,586.9 498.55,590.55 494.9,594.2 493.05,598.65 493.05,603.8 493.05,608.95 494.9,613.4 498.55,617.05 502.2,620.7 506.65,622.55 511.8,622.55 516.95,622.55 521.4,620.7 525.05,617.05 528.7,613.4 530.55,608.95 530.55,603.8 530.55,598.65 528.7,594.2 525.05,590.55 Q519.55,585.05 511.8,585.05z"/>
    </g>
  </g>
  <g id="Ico">
    <g id="shape15">
      <path id="path10" fill="#FFFFFF" fill-opacity="1" d="M622.75,491.85 C592.2,461.3 555.3,446 512.05,446 468.8,446 431.9,461.3 401.35,491.85 370.8,522.4 355.5,559.3 355.5,602.55 355.5,645.8 370.8,682.7 401.35,713.25 431.9,743.8 468.8,759.1 512.05,759.1 555.3,759.1 592.2,743.8 622.75,713.25 653.3,682.7 668.6,645.8 668.6,602.55 668.6,559.3 653.3,522.4 622.75,491.85z M548.7,565.85 C558.85,576 563.9,588.2 563.9,602.55 563.9,616.9 558.85,629.1 548.7,639.2 538.6,649.35 526.4,654.4 512.05,654.4 497.7,654.4 485.5,649.35 475.35,639.2 465.25,629.1 460.2,616.9 460.2,602.55 460.2,588.2 465.25,576 475.35,565.85 485.5,555.75 497.7,550.7 512.05,550.7 Q533.55,550.7 548.7,565.85z"/>
    </g>
  </g>
</svg>