<?xml version="1.0" encoding="utf-8"?>
<!-- Generator: flash2svg, http://dissentgraphics.com/tools/flash2svg -->
<svg xmlns:xlink="http://www.w3.org/1999/xlink" id="APP" image-rendering="optimizeSpeed" baseProfile="basic" version="1.1" style="background-color:#ffffff" x="0px" y="0px" width="1024px" height="1024px" viewBox="0 0 1024 1024" enable-background="new 0 0 1024 1024" xmlns="http://www.w3.org/2000/svg">
  <defs transform="matrix(1 0 0 1 0 0) "/>
  <g id="shadow">
    <g id="shape">
      <path id="path" fill="#000000" fill-opacity="0.09803921568627451" d="M965.65,347.3 Q957.05,326.45 946.25,306.45 C942.2,298.9 937.9,291.4 933.35,284.05 913.8,252.35 889.95,222.4 861.8,194.25 769.65,102.1 658.35,56 528,56 397.65,56 286.4,102.1 194.25,194.25 102.1,286.4 56,397.65 56,528 56,658.35 102.1,769.65 194.25,861.8 286.4,953.95 397.65,1000 528,1000 658.35,1000 769.65,953.95 861.8,861.8 912.55,811 949.35,754.4 972.15,692.05 990.7,641.2 1000,586.55 1000,528 1000,483.1 994.55,440.45 983.6,400.05 982.35,395.5 981.05,390.95 979.7,386.45 975.6,373.15 970.9,360.1 965.65,347.3z"/>
    </g>
  </g>
  <g id="BG">
    <g id="shape2">
      <path id="path1" fill="#387A5A" fill-opacity="1" d="M984.75,512.55 Q984.75,316.8 846.4,178.4 C754.15,86.15 642.75,40 512.25,40 381.75,40 270.35,86.15 178.1,178.4 85.85,270.65 39.7,382.05 39.7,512.55 39.7,643.05 85.85,754.45 178.1,846.7 270.35,938.95 381.75,985.05 512.25,985.05 642.75,985.05 754.15,938.95 846.4,846.7 938.65,754.45 984.75,643.05 984.75,512.55z"/>
    </g>
  </g>
  <g id="Calque.__201">
    <g id="shape4">
      <path id="path2" fill="#1C6547" fill-opacity="1" d="M760.3,760.6 Q863.05,657.85 863.05,512.55 C863.05,415.7 828.8,333 760.3,264.5 691.8,196 609.1,161.75 512.25,161.75 415.4,161.75 332.7,196 264.2,264.5 195.7,333 161.45,415.7 161.45,512.55 161.45,609.4 195.7,692.1 264.2,760.6 332.7,829.1 415.4,863.35 512.25,863.35 609.1,863.35 691.8,829.1 760.3,760.6z"/>
    </g>
  </g>
  <g id="Logo.__20Shadow">
    <g id="shape6">
      <path id="path3" fill="#000000" fill-opacity="0.2" d="M919.55,542.1 L861.05,542.1 820.05,685.2 785.75,597.75 800.05,542.1 745.55,542.1 708.4,685.2 667,542.1 608.5,542.1 674.85,749.25 736.95,749.25 760.2,674.35 791.45,749.25 852.45,749.25 919.55,542.1z M411.2,748.4 C430.05,748.4 447.3,745.85 462.95,740.8 478.65,735.7 492.85,728.05 505.55,717.9 529.05,698.85 546.75,672.15 558.6,637.85 570.45,603.55 576.4,561.75 576.4,512.4 576.4,352.3 521.35,272.25 411.2,272.25 L208.85,272.25 208.85,748.4 411.2,748.4z M447.75,365.3 C460.2,374.65 469.65,391.45 476,415.8 482.15,440.15 485.2,472.15 485.2,511.75 485.2,563.4 478.45,602.3 464.9,628.35 451.35,654.2 431,667.1 403.9,667.1 L300,667.1 300,352.95 403.9,352.95 C421.65,352.95 436.3,357.05 447.75,365.3z"/>
    </g>
  </g>
  <g id="Logo">
    <g id="shape13">
      <path id="path9" fill="#FFFFFF" fill-opacity="1" d="M899.75,522.25 L841.25,522.25 800.25,665.35 765.95,577.9 780.25,522.25 725.75,522.25 688.6,665.35 647.2,522.25 588.7,522.25 655.05,729.4 717.15,729.4 740.4,654.5 771.65,729.4 832.65,729.4 899.75,522.25z M443.15,721 C458.85,715.9 473.05,708.25 485.75,698.1 509.25,679.05 526.95,652.35 538.8,618.05 550.65,583.75 556.6,541.95 556.6,492.6 556.6,332.5 501.55,252.45 391.4,252.45 L189.05,252.45 189.05,728.6 391.4,728.6 C410.25,728.6 427.5,726.05 443.15,721z M456.2,396 C462.35,420.35 465.4,452.35 465.4,491.95 465.4,543.6 458.65,582.5 445.1,608.55 431.55,634.4 411.2,647.3 384.1,647.3 L280.2,647.3 280.2,333.15 384.1,333.15 C401.85,333.15 416.5,337.25 427.95,345.5 440.4,354.85 449.85,371.65 456.2,396z"/>
    </g>
  </g>
</svg>