<?xml version="1.0" encoding="utf-8"?>
<!-- Generator: flash2svg, http://dissentgraphics.com/tools/flash2svg -->
<svg xmlns:xlink="http://www.w3.org/1999/xlink" id="APP" image-rendering="optimizeSpeed" baseProfile="basic" version="1.1" style="background-color:#ffffff" x="0px" y="0px" width="1024px" height="1024px" viewBox="0 0 1024 1024" enable-background="new 0 0 1024 1024" xmlns="http://www.w3.org/2000/svg">
  <defs transform="matrix(1 0 0 1 0 0) "/>
  <g id="shadow">
    <g id="shape">
      <path id="path" fill="#000000" fill-opacity="0.09803921568627451" d="M969.65,351.3 Q961.05,330.45 950.25,310.45 C946.2,302.9 941.9,295.4 937.35,288.05 917.8,256.35 893.95,226.4 865.8,198.25 773.65,106.1 662.35,60 532,60 401.65,60 290.4,106.1 198.25,198.25 106.1,290.4 60,401.65 60,532 60,662.35 106.1,773.65 198.25,865.8 290.4,957.95 401.65,1004 532,1004 662.35,1004 773.65,957.95 865.8,865.8 916.55,815 953.35,758.4 976.15,696.05 994.7,645.2 1004,590.55 1004,532 1004,487.1 998.55,444.45 987.6,404.05 986.35,399.5 985.05,394.95 983.7,390.45 979.6,377.15 974.9,364.1 969.65,351.3z"/>
    </g>
  </g>
  <g id="bg">
    <g id="shape2">
      <path id="path1" fill="#333333" fill-opacity="1" d="M966.1,378.45 C963.6,369.7 960.75,360.85 957.65,352.1 951.2,333.85 943.5,316.05 934.5,298.45 930.7,291.05 926.55,283.5 922.2,276.05 901.9,241.55 876.4,208.85 845.85,178.3 773.25,105.7 688.7,61.65 592.2,46.25 575.95,43.65 559.4,41.85 542.15,40.9 532.45,40.35 522.3,40.05 512.05,40.05 502.7,40.05 493.45,40.3 484.15,40.8 365.8,46.9 263.85,92.75 178.3,178.3 Q40.05,316.55 40.05,512.05 C40.05,642.4 86.15,753.7 178.3,845.85 263.85,931.35 365.8,977.2 484.15,983.35 484.3,983.35 484.4,983.35 484.55,983.35 493.05,983.8 501.15,984.05 509.05,984.05 510.25,984.05 511.15,984.05 512.05,984.05 522.35,984.05 532.55,983.75 542.15,983.25 544.65,983.1 546.9,982.95 549.1,982.8 569.3,981.35 589,978.75 607.8,975.1 615.75,973.55 623.6,971.8 631.2,969.95 712,949.65 783.35,908.35 845.85,845.85 894.45,797.25 930.25,743.35 953.2,684.05 971.65,636.4 981.85,585.25 983.75,530.55 983.95,524.5 984.05,518.3 984.05,512.05 984.05,511.4 984.05,510.7 984.05,510.05 984.05,509.7 984.05,509.4 984.05,509.05 983.85,468.4 979.1,429.55 969.75,392.05 968.65,387.7 967.4,383.05 966.1,378.45z"/>
    </g>
  </g>
  <g id="inner">
    <g id="shape4">
      <path id="path2" fill="#000000" fill-opacity="0.2" d="M760.1,760.1 Q862.8,657.35 862.8,512.05 C862.8,415.2 828.55,332.5 760.1,264.05 691.6,195.6 608.9,161.35 512.05,161.35 415.2,161.35 332.5,195.6 264.05,264.05 195.6,332.5 161.35,415.2 161.35,512.05 161.35,608.9 195.6,691.6 264.05,760.1 332.5,828.55 415.2,862.8 512.05,862.8 608.9,862.8 691.6,828.55 760.1,760.1z"/>
    </g>
  </g>
  <g id="Calque.__208">
    <g id="shape6">
      <path id="path3" fill="#000000" fill-opacity="0.2" d="M683.5,247.95 C677.65,242.1 670.55,239.15 662.3,239.15 L249.65,239.15 C241.4,239.15 234.3,242.1 228.45,247.95 222.6,253.8 219.65,260.9 219.65,269.15 L219.65,627.15 C219.65,635.4 222.6,642.5 228.45,648.35 234.3,654.2 241.4,657.15 249.65,657.15 L282.2,657.15 282.2,741.15 C282.2,747.8 284.55,753.5 289.25,758.2 293.95,762.9 299.65,765.25 306.3,765.25 312.95,765.25 318.65,762.9 323.35,758.2 L424.4,657.15 456.1,657.15 456.1,709.2 C456.1,717.45 459.05,724.55 464.9,730.4 470.75,736.25 477.85,739.2 486.1,739.2 L644,739.2 745.05,840.25 C749.75,844.95 755.45,847.3 762.1,847.3 768.75,847.3 774.45,844.95 779.15,840.25 783.85,835.55 786.2,829.85 786.2,823.2 L786.2,739.2 818.75,739.2 C827,739.2 834.1,736.25 839.95,730.4 845.8,724.55 848.75,717.45 848.75,709.2 L848.75,431.2 C848.75,422.95 845.8,415.85 839.95,410 834.1,404.15 827,401.2 818.75,401.2 L692.3,401.2 692.3,269.15 C692.3,260.9 689.35,253.8 683.5,247.95z"/>
    </g>
  </g>
  <g id="Calque.__209">
    <g id="shape8">
      <path id="path4" fill="#53A7D4" fill-opacity="1" d="M672.05,248.05 C672.05,239.8 669.1,232.7 663.25,226.85 657.4,221 650.3,218.05 642.05,218.05 L229.4,218.05 C221.15,218.05 214.05,221 208.2,226.85 202.35,232.7 199.4,239.8 199.4,248.05 L199.4,606.05 C199.4,614.3 202.35,621.4 208.2,627.25 214.05,633.1 221.15,636.05 229.4,636.05 L261.95,636.05 261.95,720.05 C261.95,726.7 264.3,732.4 269,737.1 273.7,741.8 279.4,744.15 286.05,744.15 292.7,744.15 298.4,741.8 303.1,737.1 L404.15,636.05 642.05,636.05 C650.3,636.05 657.4,633.1 663.25,627.25 669.1,621.4 672.05,614.3 672.05,606.05 L672.05,248.05z"/>
    </g>
  </g>
  <g id="Calque.__210">
    <g id="shape10">
      <path id="path5" fill="#F1F1F1" fill-opacity="1" d="M819.7,388.9 C813.85,383.05 806.75,380.1 798.5,380.1 L465.85,380.1 C457.6,380.1 450.5,383.05 444.65,388.9 438.8,394.75 435.85,401.85 435.85,410.1 L435.85,688.1 C435.85,696.35 438.8,703.45 444.65,709.3 450.5,715.15 457.6,718.1 465.85,718.1 L623.75,718.1 724.8,819.15 C729.5,823.85 735.2,826.2 741.85,826.2 748.5,826.2 754.2,823.85 758.9,819.15 763.6,814.45 765.95,808.75 765.95,802.1 L765.95,718.1 798.5,718.1 C806.75,718.1 813.85,715.15 819.7,709.3 825.55,703.45 828.5,696.35 828.5,688.1 L828.5,410.1 C828.5,401.85 825.55,394.75 819.7,388.9z"/>
    </g>
  </g>
  <g id="Calque.__211">
    <g id="shape12">
      <path id="path6" fill="#999999" fill-opacity="1" d="M706.1,519.9 Q696,530.05 696,544.3 C696,553.85 699.35,561.95 706.1,568.7 712.85,575.45 721,578.85 730.5,578.85 740.05,578.85 748.15,575.45 754.9,568.7 761.65,561.95 765.05,553.85 765.05,544.3 765.05,534.8 761.65,526.65 754.9,519.9 748.15,513.15 740.05,509.8 730.5,509.8 721,509.8 712.85,513.15 706.1,519.9z M667.05,544.3 C667.05,534.8 663.65,526.65 656.9,519.9 650.15,513.15 642.05,509.8 632.55,509.8 623,509.8 614.85,513.15 608.1,519.9 601.35,526.65 598,534.8 598,544.3 598,553.85 601.35,561.95 608.1,568.7 614.85,575.45 623,578.85 632.55,578.85 642.05,578.85 650.15,575.45 656.9,568.7 663.65,561.95 667.05,553.85 667.05,544.3z M558.95,519.9 C552.2,513.15 544.1,509.8 534.55,509.8 525,509.8 516.9,513.15 510.15,519.9 503.4,526.65 500.05,534.8 500.05,544.3 500.05,553.85 503.4,561.95 510.15,568.7 516.9,575.45 525,578.85 534.55,578.85 544.1,578.85 552.2,575.45 558.95,568.7 565.7,561.95 569.05,553.85 569.05,544.3 569.05,534.8 565.7,526.65 558.95,519.9z"/>
    </g>
  </g>
</svg>