<?xml version="1.0" encoding="utf-8"?>
<!-- Generator: flash2svg, http://dissentgraphics.com/tools/flash2svg -->
<svg xmlns:xlink="http://www.w3.org/1999/xlink" id="App-Github" image-rendering="optimizeSpeed" baseProfile="basic" version="1.1" style="background-color:#ffffff" x="0px" y="0px" width="1024px" height="1024px" viewBox="0 0 1024 1024" enable-background="new 0 0 1024 1024" xmlns="http://www.w3.org/2000/svg">
  <defs transform="matrix(1 0 0 1 0 0) "/>
  <g id="folder-shadow">
    <g id="shape">
      <path id="path" fill="#000000" fill-opacity="0.09803921568627451" d="M782.05,94.45 L782.05,96.4 290.2,96.4 290.2,94.45 191.05,189.8 191.05,262.3 63.15,262.3 63.15,945 C63.15,957.55 73.5,967.85 86,967.85 L982.45,967.85 C994.95,967.85 1005.3,957.55 1005.3,945 L1005.3,262.3 881.35,262.3 881.35,189.8 782.05,94.45z M782.05,262.3 L290.2,262.3 290.2,189.8 782.05,189.8 782.05,262.3z"/>
    </g>
  </g>
  <g id="folder">
    <g id="shape5">
      <path id="path4" fill="#626B6D" fill-opacity="1" d="M758.5,73.05 L758.5,75 266.65,75 266.65,73.05 167.5,168.4 167.5,240.9 39.6,240.9 39.6,923.6 C39.6,936.15 49.95,946.45 62.45,946.45 L958.9,946.45 C971.4,946.45 981.75,936.15 981.75,923.6 L981.75,240.9 857.8,240.9 857.8,168.4 758.5,73.05z M758.5,240.9 L266.65,240.9 266.65,168.4 758.5,168.4 758.5,240.9z"/>
    </g>
  </g>
  <g id="folder-dark">
    <g id="shape10">
      <path id="path8" fill="#000000" fill-opacity="0.2" d="M758.5,168.4 L758.5,75 266.65,75 266.65,168.4 758.5,168.4z M39.6,923.6 C39.6,936.15 49.95,946.45 62.45,946.45 L958.9,946.45 C971.4,946.45 981.75,936.15 981.75,923.6 L981.75,301.85 39.6,301.85 39.6,923.6z"/>
    </g>
  </g>
  <g id="ico-shadow">
    <g id="shape14">
      <path id="path11" fill="#000000" fill-opacity="0.2" d="M645.2,453.05 L605.85,560.5 370.025,568.3 344.05,726.5 564,946.45 958.9,946.45 Q968.25,946.45 975,939.7 981.75,932.95 981.75,923.6 L981.75,789.6 645.2,453.05z"/>
    </g>
  </g>
  <g id="Ico">
    <g id="shape16">
      <path id="path12" fill="#FFFFFF" fill-opacity="1" d="M679.7,536.55 C675.1,531.9 668.35,528.5 659.45,526.3 657.3,525.8 655.15,525.3 653,524.75 655.6,510.25 655.7,493.45 653.4,474.45 Q651.65,459.9 644.75,452.95 C640.1,448.35 634.55,446.05 628,446.05 614.3,448.05 590.55,469.35 556.8,509.8 541.85,508.65 526.95,508.1 512,508.1 497.1,508.1 482.15,508.65 467.25,509.8 433.5,469.35 409.75,448.05 396.05,446.05 389.5,446.05 383.9,448.35 379.3,452.95 374.7,457.6 371.8,464.75 370.6,474.45 368.3,493.45 368.45,510.25 371.05,524.75 368.9,525.3 366.75,525.8 364.55,526.3 355.7,528.5 348.95,531.9 344.3,536.55 343.95,536.95 343.55,537.3 343.25,537.7 339.25,541.75 335.75,550.2 332.65,563.2 328.2,582 325.95,604.75 325.95,631.35 325.95,658 328.2,680.7 332.65,699.55 334.55,707.4 336.55,713.6 338.75,718.15 339.9,721.3 341.75,724.15 344.3,726.75 348.95,731.4 356.9,735.25 368.15,738.25 415.55,751.1 463.55,757.4 512,757.3 560.5,757.4 608.45,751.1 655.9,738.25 667.15,735.25 675.1,731.4 679.7,726.75 682.3,724.15 684.15,721.3 685.3,718.15 687.45,713.6 689.5,707.4 691.35,699.55 695.85,680.7 698.05,658 698.05,631.35 698.05,604.75 695.85,582 691.35,563.2 688.3,550.2 684.75,541.75 680.8,537.7 680.5,537.3 680.15,536.95 679.7,536.55z M650.75,627 C650.75,627.05 650.75,627.15 650.75,627.25 650.75,636.1 650.75,645 650.75,652.3 650.75,660.35 650,668.15 648.4,675.75 647.3,680.7 644.45,685.45 639.85,690.1 635.2,694.7 629.05,697.45 621.35,698.4 584.65,702.75 548.2,704.9 512,704.95 512,704.95 511.95,704.95 511.9,704.95 475.7,704.9 439.3,702.75 402.55,698.4 394.85,697.45 388.7,694.7 384.05,690.1 379.45,685.45 376.6,680.7 375.55,675.75 373.95,668.15 373.15,660.35 373.15,652.3 373.15,645 373.15,636.1 373.15,627.25 373.15,627.15 373.15,627.05 373.15,627 373.25,619.5 374.1,611.9 375.65,604.15 376.65,599.2 379.45,594.45 384.05,589.8 388.7,585.15 394.85,582.4 402.55,581.45 439.35,577.05 475.8,574.85 511.9,574.8 511.95,574.8 512,574.8 512,574.8 548.1,574.8 584.55,577.05 621.35,581.45 629.05,582.4 635.2,585.15 639.85,589.8 644.45,594.45 647.3,599.2 648.3,604.15 649.85,611.9 650.65,619.5 650.75,627z"/>
    </g>
  </g>
</svg>