<?xml version="1.0" encoding="utf-8"?>
<!-- Generator: flash2svg, http://dissentgraphics.com/tools/flash2svg -->
<svg id="App-Dropbox-folder" image-rendering="optimizeSpeed" baseProfile="basic" version="1.1" style="background-color:#FFFFFF" x="0px" y="0px" width="1024px" height="1024px" viewBox="0 0 1024 1024" enable-background="new 0 0 1024 1024" xmlns="http://www.w3.org/2000/svg" xmlns:xlink="http://www.w3.org/1999/xlink">
  <defs transform="matrix(1 0 0 1 0 0) "/>
  <g id="folder-shadow">
    <g id="shape">
      <path id="path" fill="#000000" fill-opacity="0.09803921568627451" d="M782,94.4 L782,96.35 290.15,96.35 290.15,94.4 191,189.75 191,262.25 63.1,262.25 63.1,944.95 C63.1,957.5 73.45,967.8 85.95,967.8 L982.4,967.8 C994.9,967.8 1005.25,957.5 1005.25,944.95 L1005.25,262.25 881.3,262.25 881.3,189.75 782,94.4z M782,262.25 L290.15,262.25 290.15,189.75 782,189.75 782,262.25z"/>
    </g>
  </g>
  <g id="folder">
    <g id="shape5">
      <path id="path4" fill="#4976A3" fill-opacity="1" d="M758.45,73 L758.45,74.95 266.6,74.95 266.6,73 167.45,168.35 167.45,240.85 39.55,240.85 39.55,923.55 C39.55,936.1 49.9,946.4 62.4,946.4 L958.85,946.4 C971.35,946.4 981.7,936.1 981.7,923.55 L981.7,240.85 857.75,240.85 857.75,168.35 758.45,73z M758.45,240.85 L266.6,240.85 266.6,168.35 758.45,168.35 758.45,240.85z"/>
    </g>
  </g>
  <g id="folder-dark">
    <g id="shape10">
      <path id="path8" fill="#000000" fill-opacity="0.2" d="M758.45,168.35 L758.45,74.95 266.6,74.95 266.6,168.35 758.45,168.35z M39.55,923.55 C39.55,936.1 49.9,946.4 62.4,946.4 L958.85,946.4 C971.35,946.4 981.7,936.1 981.7,923.55 L981.7,301.8 39.55,301.8 39.55,923.55z"/>
    </g>
  </g>
  <g id="ico-shadow">
    <g id="shape14">
      <path id="path11" fill="#000000" fill-opacity="0.2" d="M338.45,526.9 L388.45,576.9 352.625,614.025 407.225,668.625 404,697.55 652.85,946.4 958.85,946.4 Q968.2,946.4 974.95,939.65 981.7,932.9 981.7,923.55 L981.7,813.3 684.8,517 466,466.5 338.45,526.9z"/>
    </g>
  </g>
  <g id="Calque.__201">
    <g id="shape16">
      <path id="path12" fill="#FFFFFF" fill-opacity="1" d="M687.6,516.25 Q687.4,515.55 686.75,515.2 L566.6,442.25 C566.3,442.05 565.9,441.95 565.5,441.95 565.15,441.95 564.75,442.05 564.45,442.25 L513.15,472.95 C513.1,472.9 513.05,472.85 512.95,472.85 L459.3,450.25 C459.05,450.1 458.7,450.05 458.35,450.05 458.05,450.1 457.75,450.2 457.5,450.35 L338.15,523.25 C337.65,523.55 337.35,523.95 337.25,524.4 337.1,524.95 337.15,525.4 337.35,525.85 337.55,526.35 337.95,526.7 338.45,526.9 L391.15,549.1 C391.1,549.2 391,549.3 390.95,549.45 L350.9,612.3 C350.65,612.6 350.55,613 350.5,613.35 350.5,613.7 350.6,614 350.8,614.4 351,614.7 351.25,615 351.55,615.15 L471.05,687.7 C471.55,688.05 472.05,688.1 472.6,688 473.15,687.8 473.55,687.55 473.85,687.1 L513.35,625 513.35,625.05 549.95,687.95 C550.15,688.25 550.35,688.5 550.75,688.7 551.05,688.85 551.4,688.95 551.75,688.95 552.15,688.95 552.45,688.85 552.8,688.65 L672.15,615.75 C672.65,615.45 672.9,615.05 673.05,614.5 673.2,613.95 673.1,613.45 672.85,613 L635.7,549.2 686.7,518.65 C687.15,518.45 687.45,518.1 687.6,517.6 687.8,517.15 687.8,516.7 687.6,516.25z M487.25,492.2 L513.25,476.45 529.95,486.85 530,486.9 631.75,548.35 513.15,620.75 C513.05,620.8 512.95,620.9 512.85,621 512.8,621.05 512.8,621.05 512.75,621.05 L394.25,549.15 487.25,492.1 487.25,492.2z M492.6,501.05 C492.35,501.2 492.15,501.3 492,501.4 L414.2,549.15 512.7,608.95 611.8,548.4 524.6,495.7 524.6,495.75 C524.55,495.7 524.5,495.7 524.45,495.65 L513.15,488.65 492.6,501.05z M482.65,692.65 C482.55,692.75 482.5,692.85 482.45,692.9 482.4,692.95 482.4,692.95 482.4,693 482.35,693.05 482.35,693.05 482.3,693.1 480.55,695.6 478.2,697.25 475.3,698.05 L475.4,698 C475.2,698.05 475,698.1 474.85,698.15 474.7,698.15 474.6,698.15 474.55,698.2 471.5,698.75 468.7,698.25 466.05,696.8 466,696.8 466,696.8 465.95,696.75 465.9,696.7 465.9,696.7 465.85,696.7 465.8,696.65 465.75,696.65 465.7,696.6 L401.05,657.4 401.1,694.65 512.15,762.45 623.2,694.6 623.2,657.8 558.2,697.5 558.15,697.55 C556,698.85 553.85,699.45 551.7,699.35 551.65,699.35 551.65,699.35 551.6,699.35 549.45,699.3 547.45,698.75 545.7,697.75 545.6,697.7 545.5,697.65 545.4,697.6 543.45,696.45 541.95,694.95 541,693.15 L512.95,644.9 482.65,692.65z"/>
    </g>
  </g>
</svg>