<?xml version="1.0" encoding="utf-8"?>
<!-- Generator: flash2svg, http://dissentgraphics.com/tools/flash2svg -->
<svg xmlns:xlink="http://www.w3.org/1999/xlink" id="User-Applications" image-rendering="optimizeSpeed" baseProfile="basic" version="1.1" style="background-color:#ffffff" x="0px" y="0px" width="1024px" height="1024px" viewBox="0 0 1024 1024" enable-background="new 0 0 1024 1024" xmlns="http://www.w3.org/2000/svg">
  <defs transform="matrix(1 0 0 1 0 0) "/>
  <g id="folder-shadow">
    <g id="shape">
      <path id="path" fill="#000000" fill-opacity="0.09803921568627451" d="M782.05,94.45 L782.05,96.4 290.2,96.4 290.2,94.45 191.05,189.8 191.05,262.3 63.15,262.3 63.15,945 C63.15,957.55 73.5,967.85 86,967.85 L982.45,967.85 C994.95,967.85 1005.3,957.55 1005.3,945 L1005.3,262.3 881.35,262.3 881.35,189.8 782.05,94.45z M782.05,262.3 L290.2,262.3 290.2,189.8 782.05,189.8 782.05,262.3z"/>
    </g>
  </g>
  <g id="folder">
    <g id="shape5">
      <path id="path4" fill="#3B99CB" fill-opacity="1" d="M758.5,73.05 L758.5,75 266.65,75 266.65,73.05 167.5,168.4 167.5,240.9 39.6,240.9 39.6,923.6 C39.6,936.15 49.95,946.45 62.45,946.45 L958.9,946.45 C971.4,946.45 981.75,936.15 981.75,923.6 L981.75,240.9 857.8,240.9 857.8,168.4 758.5,73.05z M758.5,240.9 L266.65,240.9 266.65,168.4 758.5,168.4 758.5,240.9z"/>
    </g>
  </g>
  <g id="folder-dark">
    <g id="shape10">
      <path id="path8" fill="#000000" fill-opacity="0.2" d="M758.5,168.4 L758.5,75 266.65,75 266.65,168.4 758.5,168.4z M39.6,923.6 C39.6,936.15 49.95,946.45 62.45,946.45 L958.9,946.45 C971.4,946.45 981.75,936.15 981.75,923.6 L981.75,301.85 39.6,301.85 39.6,923.6z"/>
    </g>
  </g>
  <g id="folder-dark1">
    <g id="shape14">
      <path id="path11" fill="#000000" fill-opacity="0.2" d="M545.3,447.5 L522.05,464.8 410.675,602.675 403.8,595.8 361.6,658 377.65,674.05 379.225,757.05 568.65,946.45 958.9,946.45 Q968.25,946.45 975,939.7 981.75,932.95 981.75,923.6 L981.75,883.95 545.3,447.5z"/>
    </g>
  </g>
  <g id="ico-shadow">
    <g id="shape16">
      <path id="path12" fill="#FFFFFF" fill-opacity="1" d="M656.6,740.4 C654.9,731.2 653.65,724.65 652.75,720.8 651.9,716.95 650.95,713.3 650.1,709.8 649.6,708 649.15,706.4 648.8,705.05 648.4,703.8 648,702.65 647.65,701.8 644.1,692.6 639.2,685.5 632.9,680.5 631.8,679.55 630.75,678.85 629.65,678.15 L630.45,677.85 627.05,669 597.25,669 604.45,687.85 606.1,687.2 C605.75,688.35 605.5,689.7 605.25,691.1 604.45,695.5 604.5,700.2 605.35,705.05 605.9,708.9 607,712.75 608.55,716.75 612.05,725.95 616.95,733.1 623.25,738.1 623.65,738.45 624.1,738.7 624.5,739 627.85,741.45 631.7,743.6 636.05,745.4 L665.15,757.2 C661.2,755.25 658.3,749.65 656.6,740.4z M520.55,460.9 L522.05,464.8 547.05,476.25 C550.55,477.8 551.4,480.6 549.65,484.45 L538.75,508.4 569.1,587.6 598.85,587.6 546.55,450.95 C545.15,447.35 542.7,446.25 539.1,447.65 L523.85,453.45 C520.3,454.85 519.15,457.35 520.55,460.9z M539.55,489.1 C541.3,485.25 540.45,482.45 536.95,480.9 L483.15,456.35 C479.7,454.75 477.1,455.95 475.3,459.8 L365,701.75 C364.5,702.95 364.2,704.05 364.15,705.1 364.2,705.25 364.15,705.5 364.15,705.65 364.15,705.75 364.2,705.85 364.2,705.9 364.3,706.8 364.55,707.5 365.05,708.2 L379.7,755.2 425.55,735 C425.8,734.9 426.1,734.8 426.35,734.65 426.9,734.35 427.35,733.9 427.9,733.35 428.4,732.75 428.8,731.95 429.25,731.05 L539.55,489.1z M378.45,595.8 L365.6,595.8 C361.75,595.8 359.8,597.7 359.8,601.5 L359.8,655.45 C359.8,659.3 361.75,661.2 365.6,661.2 L373.95,661.2 403.8,595.8 378.45,595.8z M642.8,601.5 C642.8,597.7 640.85,595.8 637,595.8 L499.7,595.8 469.85,661.2 637,661.2 C640.85,661.2 642.8,659.3 642.8,655.45 L642.8,601.5z"/>
    </g>
  </g>
</svg>