<?xml version="1.0" encoding="utf-8"?>
<!-- Generator: flash2svg, http://dissentgraphics.com/tools/flash2svg -->
<svg id="User-Games" image-rendering="optimizeSpeed" baseProfile="basic" version="1.1" style="background-color:#FFFFFF" x="0px" y="0px" width="1024px" height="1024px" viewBox="0 0 1024 1024" enable-background="new 0 0 1024 1024" xmlns="http://www.w3.org/2000/svg" xmlns:xlink="http://www.w3.org/1999/xlink">
  <defs transform="matrix(1 0 0 1 0 0) "/>
  <g id="Shadow">
    <g id="shape">
      <path id="path" fill="#000000" fill-opacity="0.09803921568627451" d="M782,94.4 L782,96.35 290.15,96.35 290.15,94.4 191,189.75 191,262.25 63.1,262.25 63.1,944.95 C63.1,957.5 73.45,967.8 85.95,967.8 L982.4,967.8 C994.9,967.8 1005.25,957.5 1005.25,944.95 L1005.25,262.25 881.3,262.25 881.3,189.75 782,94.4z M782,262.25 L290.15,262.25 290.15,189.75 782,189.75 782,262.25z"/>
    </g>
  </g>
  <g id="FolderDark">
    <g id="shape5">
      <path id="path4" fill="#B87E3B" fill-opacity="1" d="M857.75,168.35 L760.4,74.95 264.6,74.95 167.45,168.35 857.75,168.35z M39.55,923.55 C39.55,936.1 49.9,946.4 62.4,946.4 L958.85,946.4 C971.35,946.4 981.7,936.1 981.7,923.55 L981.7,301.8 39.55,301.8 39.55,923.55z"/>
    </g>
  </g>
  <g id="FolderLight">
    <g id="shape9">
      <path id="path7" fill="#EB8E0C" fill-opacity="1" d="M981.7,301.8 L981.7,240.85 857.75,240.85 857.75,168.35 758.45,73 758.45,240.85 266.6,240.85 266.6,73 167.45,168.35 167.45,240.85 39.55,240.85 39.55,301.8 981.7,301.8z"/>
    </g>
  </g>
  <g id="IcoShadow">
    <g id="shape11">
      <path id="path8" fill="#A86C27" fill-opacity="1" d="M626.15,446 L545,487.275 507.175,574.475 371.925,589.875 327.4,720 553.8,946.4 958.85,946.4 Q968.2,946.4 974.95,939.65 981.7,932.9 981.7,923.55 L981.7,801.55 626.15,446z"/>
    </g>
  </g>
  <g id="Icon">
    <g id="shape13">
      <path id="path9" fill="#FFFFFF" fill-opacity="1" d="M714.2,658 C714.2,641.8 710.85,627 703.95,613.15 699.4,604.15 693,595.35 684.9,587.25 668.1,570.45 648.3,560.9 625.15,558.55 621.8,558.2 618.05,558 614.2,558 L523.05,558 C523.5,552.55 524.4,547 525.75,541.6 530,524.7 538.7,509.65 551.9,496.45 L551.95,496.4 C571.45,476.95 594.95,467.2 622.5,467.2 623.4,467.2 624.3,467.2 625.15,467.25 L625.15,445.85 C624.3,445.8 623.4,445.8 622.5,445.8 589.05,445.8 560.5,457.65 536.8,481.3 519.35,498.75 508.35,518.85 503.75,541.6 502.65,547 501.9,552.55 501.6,558 L406,558 C378.35,558 354.8,567.75 335.25,587.25 315.75,606.8 306,630.35 306,658 306,685.65 315.75,709.2 335.25,728.7 354.8,748.25 378.35,758 406,758 L614.2,758 C632.45,758 648.95,753.75 663.7,745.2 666.35,743.65 668.9,742 671.45,740.2 673.55,738.7 675.6,737.1 677.65,735.4 678.8,734.4 680,733.35 681.15,732.3 682.4,731.15 683.65,729.95 684.9,728.7 704.45,709.2 714.2,685.65 714.2,658z M675.6,657.85 C675.6,662.8 673.85,667.05 670.35,670.55 666.8,674.1 662.55,675.85 657.6,675.85 652.65,675.85 648.4,674.1 644.85,670.55 641.35,667.05 639.6,662.8 639.6,657.85 639.6,652.9 641.35,648.6 644.85,645.1 648.4,641.6 652.65,639.85 657.6,639.85 662.55,639.85 666.8,641.6 670.35,645.1 673.85,648.6 675.6,652.9 675.6,657.85z M436.05,614.6 L436.05,635.6 457.05,635.6 C463.7,635.6 467.05,638.95 467.05,645.6 L467.05,669.6 C467.05,676.25 463.7,679.6 457.05,679.6 L436.05,679.6 436.05,700.6 C436.05,707.25 432.7,710.6 426.05,710.6 L402.05,710.6 C395.4,710.6 392.05,707.25 392.05,700.6 L392.05,679.6 371.05,679.6 C364.4,679.6 361.05,676.25 361.05,669.6 L361.05,645.6 C361.05,638.95 364.4,635.6 371.05,635.6 L392.05,635.6 392.05,614.6 C392.05,607.95 395.4,604.6 402.05,604.6 L426.05,604.6 C432.7,604.6 436.05,607.95 436.05,614.6z M624.4,642 C619.45,642 615.15,640.25 611.65,636.75 608.15,633.2 606.4,628.95 606.4,624 606.4,619.05 608.15,614.8 611.65,611.25 615.15,607.75 619.45,606 624.4,606 624.65,606 624.9,606 625.15,606.05 629.8,606.2 633.75,607.9 637.1,611.25 637.7,611.85 638.25,612.5 638.8,613.15 641.2,616.3 642.4,619.9 642.4,624 642.4,628.95 640.65,633.2 637.1,636.75 633.6,640.25 629.35,642 624.4,642z M589.7,675.85 C584.75,675.85 580.5,674.1 577,670.55 573.45,667.05 571.7,662.8 571.7,657.85 571.7,652.9 573.45,648.6 577,645.1 580.5,641.6 584.75,639.85 589.7,639.85 594.65,639.85 598.9,641.6 602.45,645.1 605.95,648.6 607.7,652.9 607.7,657.85 607.7,662.8 605.95,667.05 602.45,670.55 598.9,674.1 594.65,675.85 589.7,675.85z M637.1,679.15 C640.65,682.7 642.4,686.95 642.4,691.9 642.4,696.85 640.65,701.1 637.1,704.6 633.6,708.15 629.35,709.9 624.4,709.9 619.45,709.9 615.15,708.15 611.65,704.6 608.15,701.1 606.4,696.85 606.4,691.9 606.4,686.95 608.15,682.7 611.65,679.15 615.15,675.65 619.45,673.9 624.4,673.9 629.35,673.9 633.6,675.65 637.1,679.15z"/>
    </g>
  </g>
</svg>