<?xml version="1.0" encoding="utf-8"?>
<!-- Generator: flash2svg, http://dissentgraphics.com/tools/flash2svg -->
<svg id="User-Public" image-rendering="optimizeSpeed" baseProfile="basic" version="1.1" style="background-color:#FFFFFF" x="0px" y="0px" width="1024px" height="1024px" viewBox="0 0 1024 1024" enable-background="new 0 0 1024 1024" xmlns="http://www.w3.org/2000/svg" xmlns:xlink="http://www.w3.org/1999/xlink">
  <defs transform="matrix(1 0 0 1 0 0) "/>
  <g id="Shadow">
    <g id="shape">
      <path id="path" fill="#000000" fill-opacity="0.09803921568627451" d="M782,94.4 L782,96.35 290.15,96.35 290.15,94.4 191,189.75 191,262.25 63.1,262.25 63.1,944.95 C63.1,957.5 73.45,967.8 85.95,967.8 L982.4,967.8 C994.9,967.8 1005.25,957.5 1005.25,944.95 L1005.25,262.25 881.3,262.25 881.3,189.75 782,94.4z M782,262.25 L290.15,262.25 290.15,189.75 782,189.75 782,262.25z"/>
    </g>
  </g>
  <g id="Dark">
    <g id="shape5">
      <path id="path4" fill="#BC9C2A" fill-opacity="1" d="M857.75,168.35 L758.45,74.95 266.55,75 167.45,168.35 857.75,168.35z M981.7,779.25 L981.7,301.8 39.55,301.8 39.55,923.55 C39.55,936.1 49.9,946.4 62.4,946.4 L563.7,946.4 359,741.7 426.425,636.975 362.425,572.975 513.575,464.5 627.175,518.45 664,461.55 981.7,779.25z"/>
      <path id="path7" fill="#A18623" fill-opacity="1" d="M981.7,779.25 L664,461.55 627.175,518.45 513.575,464.5 362.425,572.975 426.425,636.975 359,741.7 563.7,946.4 958.85,946.4 C971.35,946.4 981.7,936.1 981.7,923.55 L981.7,779.25z"/>
    </g>
  </g>
  <g id="Light">
    <g id="shape11">
      <path id="path8" fill="#ECC32E" fill-opacity="1" d="M981.7,301.8 L981.7,240.85 857.75,240.85 857.75,168.35 758.45,74.95 758.45,240.85 266.6,240.85 266.6,74.95 167.45,168.35 167.45,240.85 39.55,240.85 39.55,301.8 981.7,301.8z"/>
    </g>
  </g>
  <g id="ico">
    <g id="shape13">
      <path id="path9" fill="#FFFFFF" fill-opacity="1" d="M665.05,462.5 Q661.1,458.55 655.8,458.55 C652.35,458.55 649.3,459.85 646.65,462.5 L620,488.7 C605.55,475.05 588.9,464.45 570.1,456.8 551.35,449.25 532.05,445.5 512.2,445.5 474.7,445.5 442,456.8 414.15,479.45 386.3,502.1 367.95,531.65 359.1,568.2 L359.1,569.65 360.95,574.05 365.55,576.05 406.3,576.05 C409.25,576.05 411.25,574.5 412.35,571.4 L423.05,547.5 C432.6,532 445.3,519.85 461.1,511.1 476.95,502.15 493.95,497.7 512.2,497.7 539.45,497.7 563.25,507 583.5,525.65 L555.2,553.95 C552.6,556.4 551.3,559.45 551.3,563.05 551.3,566.6 552.6,569.7 555.2,572.3 557.85,574.8 560.9,576.05 564.35,576.05 L655.8,576.05 C659.35,576.05 662.4,574.8 665.05,572.3 667.6,569.7 668.85,566.6 668.85,563.05 L668.85,471.6 C668.85,468 667.6,464.95 665.05,462.5z M661.8,630.3 L657.2,628.35 618.05,628.35 C615.1,628.35 613.1,629.9 612,633.05 L601.15,656.95 C591.6,672.45 578.9,684.6 563.05,693.4 547.35,702.3 530.4,706.75 512.2,706.75 498.95,706.75 486.25,704.35 474,699.5 461.7,694.45 450.75,687.5 441.1,678.6 L469.15,650.5 C471.6,648.05 472.85,645 472.85,641.4 472.85,637.85 471.6,634.8 469.15,632.3 466.5,629.65 463.45,628.35 459.9,628.35 L368.45,628.35 C364.85,628.35 361.8,629.65 359.3,632.3 356.7,634.8 355.4,637.85 355.4,641.4 L355.4,732.85 C355.4,736.4 356.7,739.45 359.3,742 361.8,744.6 364.85,745.9 368.45,745.9 372,745.9 375.05,744.6 377.7,742 L404,715.75 C418.5,729.65 435.05,740.3 453.6,747.65 472.2,755.2 491.45,758.95 511.3,758.95 548.55,758.95 581.05,747.65 608.8,725 636.65,702.35 654.95,672.75 663.65,636.2 663.75,635.75 663.8,635.25 663.8,634.8 L661.8,630.3z"/>
    </g>
  </g>
</svg>