<?xml version="1.0" encoding="utf-8"?>
<!-- Generator: flash2svg, http://dissentgraphics.com/tools/flash2svg -->
<svg id="User-Sites" image-rendering="optimizeSpeed" baseProfile="basic" version="1.1" style="background-color:#FFFFFF" x="0px" y="0px" width="1024px" height="1024px" viewBox="0 0 1024 1024" enable-background="new 0 0 1024 1024" xmlns="http://www.w3.org/2000/svg" xmlns:xlink="http://www.w3.org/1999/xlink">
  <defs transform="matrix(1 0 0 1 0 0) "/>
  <g id="folder-shadow">
    <g id="shape">
      <path id="path" fill="#000000" fill-opacity="0.09803921568627451" d="M782,94.4 L782,96.35 290.15,96.35 290.15,94.4 191,189.75 191,262.25 63.1,262.25 63.1,944.95 C63.1,957.5 73.45,967.8 85.95,967.8 L982.4,967.8 C994.9,967.8 1005.25,957.5 1005.25,944.95 L1005.25,262.25 881.3,262.25 881.3,189.75 782,94.4z M782,262.25 L290.15,262.25 290.15,189.75 782,189.75 782,262.25z"/>
    </g>
  </g>
  <g id="folder">
    <g id="shape5">
      <path id="path4" fill="#407A84" fill-opacity="1" d="M758.45,73 L758.45,74.95 266.6,74.95 266.6,73 167.45,168.35 167.45,240.85 39.55,240.85 39.55,923.55 C39.55,936.1 49.9,946.4 62.4,946.4 L958.85,946.4 C971.35,946.4 981.7,936.1 981.7,923.55 L981.7,240.85 857.75,240.85 857.75,168.35 758.45,73z M758.45,240.85 L266.6,240.85 266.6,168.35 758.45,168.35 758.45,240.85z"/>
    </g>
  </g>
  <g id="folder-dark">
    <g id="shape10">
      <path id="path8" fill="#000000" fill-opacity="0.2" d="M758.45,168.35 L758.45,74.95 266.6,74.95 266.6,168.35 758.45,168.35z M39.55,923.55 C39.55,936.1 49.9,946.4 62.4,946.4 L958.85,946.4 C971.35,946.4 981.7,936.1 981.7,923.55 L981.7,301.8 39.55,301.8 39.55,923.55z"/>
    </g>
  </g>
  <g id="ico-shadow">
    <g id="shape14">
      <path id="path11" fill="#000000" fill-opacity="0.2" d="M981.7,759.75 L668.95,447 580.625,520.875 505.6,445.85 492.025,572 359.85,588.1 436.25,664.5 358.4,755.45 549.375,946.4 958.85,946.4 Q968.2,946.4 974.95,939.65 981.7,932.9 981.7,923.55 L981.7,759.75z"/>
    </g>
  </g>
  <g id="Ico">
    <g id="shape16">
      <path id="path12" fill="#FFFFFF" fill-opacity="1" d="M557.1,596.8 L535.1,622.4 510.1,644 522.15,754 539.3,626 667.95,611.85 557.1,596.8z M501.3,588.75 L355,758.8 525.1,612.4 669.8,444 501.3,588.75z M507.4,592.75 C509.35,590.85 511.6,589.95 514.25,589.95 519.65,589.95 523.9,594.25 523.9,599.6 523.9,602.25 523,604.45 521.15,606.3 520.8,606.7 520.4,607 520,607.3 518.35,608.55 516.4,609.25 514.25,609.25 Q510.25,609.25 507.4,606.3 504.65,603.55 504.65,599.6 C504.65,597.4 505.25,595.5 506.45,593.9 506.75,593.45 507.05,593.1 507.4,592.75z M491.3,578.75 L517.7,556 505.6,445.85 488.5,573.95 359.85,588.1 470.3,603.2 491.3,578.75z"/>
    </g>
  </g>
</svg>