<?xml version="1.0" encoding="utf-8"?>
<!-- Generator: flash2svg, http://dissentgraphics.com/tools/flash2svg -->
<svg xmlns:xlink="http://www.w3.org/1999/xlink" id="User-Public" image-rendering="optimizeSpeed" baseProfile="basic" version="1.1" style="background-color:#ffffff" x="0px" y="0px" width="1024px" height="1024px" viewBox="0 0 1024 1024" enable-background="new 0 0 1024 1024" xmlns="http://www.w3.org/2000/svg">
  <defs transform="matrix(1 0 0 1 0 0) "/>
  <g id="folder-shadow">
    <g id="shape">
      <path id="path" fill="#000000" fill-opacity="0.09803921568627451" d="M782.05,94.45 L782.05,96.4 290.2,96.4 290.2,94.45 191.05,189.8 191.05,262.3 63.15,262.3 63.15,945 C63.15,957.55 73.5,967.85 86,967.85 L982.45,967.85 C994.95,967.85 1005.3,957.55 1005.3,945 L1005.3,262.3 881.35,262.3 881.35,189.8 782.05,94.45z M782.05,262.3 L290.2,262.3 290.2,189.8 782.05,189.8 782.05,262.3z"/>
    </g>
  </g>
  <g id="folder">
    <g id="shape5">
      <path id="path4" fill="#ECC32E" fill-opacity="1" d="M758.5,73.05 L758.5,75 266.65,75 266.65,73.05 167.5,168.4 167.5,240.9 39.6,240.9 39.6,923.6 C39.6,936.15 49.95,946.45 62.45,946.45 L958.9,946.45 C971.4,946.45 981.75,936.15 981.75,923.6 L981.75,240.9 857.8,240.9 857.8,168.4 758.5,73.05z M758.5,240.9 L266.65,240.9 266.65,168.4 758.5,168.4 758.5,240.9z"/>
    </g>
  </g>
  <g id="folder-dark">
    <g id="shape10">
      <path id="path8" fill="#000000" fill-opacity="0.2" d="M758.5,168.4 L758.5,75 266.65,75 266.65,168.4 758.5,168.4z M39.6,923.6 C39.6,936.15 49.95,946.45 62.45,946.45 L958.9,946.45 C971.4,946.45 981.75,936.15 981.75,923.6 L981.75,301.85 39.6,301.85 39.6,923.6z"/>
    </g>
  </g>
  <g id="ico-shadow">
    <g id="shape14">
      <path id="path11" fill="#000000" fill-opacity="0.2" d="M981.75,763.4 L678.05,459.7 642.325,491.375 534.15,487.05 589.3,542.2 582.1,550.15 482,450.05 374.5,599.05 416.5,641.05 376.05,746.95 575.55,946.45 958.9,946.45 Q968.25,946.45 975,939.7 981.75,932.95 981.75,923.6 L981.75,763.4z"/>
    </g>
  </g>
  <g id="Ico">
    <g id="shape16">
      <path id="path12" fill="#FFFFFF" fill-opacity="1" d="M671.35,457.5 C668.3,457.5 665.6,458.65 663.25,461 L639.6,484.3 C626.75,472.15 612,462.75 595.3,455.95 578.65,449.25 561.55,445.95 543.95,445.95 510.65,445.95 527.75,492.25 543.95,492.25 568.1,492.25 589.25,500.5 607.2,517.05 L582.1,542.2 C579.8,544.35 578.65,547.05 578.65,550.25 578.65,553.4 579.8,556.15 582.1,558.45 584.45,560.7 587.15,561.8 590.2,561.8 L671.35,561.8 C674.5,561.8 677.2,560.7 679.55,558.45 681.85,556.15 682.95,553.4 682.95,550.25 L682.95,469.1 C682.95,465.9 681.85,463.2 679.55,461 677.2,458.65 674.5,457.5 671.35,457.5z M682.9,620.6 C682.9,587.3 636.55,604.4 636.55,620.6 636.55,644.75 628.3,665.9 611.75,683.85 L586.65,658.75 C584.5,656.45 581.75,655.3 578.6,655.3 575.45,655.3 572.7,656.45 570.35,658.75 568.15,661.1 567.05,663.8 567.05,666.85 L567.05,748 C567.05,751.15 568.15,753.85 570.35,756.2 572.7,758.5 575.45,759.6 578.6,759.6 L659.75,759.6 C662.95,759.6 665.65,758.5 667.8,756.2 Q671.3,752.7 671.3,748 C671.3,744.95 670.15,742.25 667.8,739.9 L644.55,716.25 C656.65,703.4 666.1,688.65 672.85,671.95 679.55,655.3 682.9,638.2 682.9,620.6z M481.65,449.4 C479.4,447.1 476.7,445.95 473.55,445.95 L392.4,445.95 C389.25,445.95 386.55,447.1 384.3,449.4 382,451.6 380.8,454.35 380.8,457.5 380.8,460.65 382,463.4 384.3,465.75 L407.6,489.05 C395.25,501.95 385.8,516.6 379.25,533.1 372.55,549.6 369.25,566.65 369.25,584.3 369.25,617.35 415.55,601.25 415.55,585.1 415.55,573.35 417.7,562.05 422,551.2 426.5,540.25 432.65,530.55 440.55,522 L465.5,546.9 C467.65,549.05 470.35,550.15 473.55,550.15 476.7,550.15 479.4,549.05 481.65,546.9 484,544.55 485.15,541.85 485.15,538.65 L485.15,457.5 C485.15,454.35 484,451.6 481.65,449.4z M473.5,655.3 C473.5,652.15 472.4,649.4 470.25,647.2 467.9,644.85 465.15,643.7 462,643.7 L380.85,643.7 C377.65,643.7 374.95,644.85 372.75,647.2 370.45,649.4 369.3,652.15 369.3,655.3 L369.3,736.45 C369.3,739.6 370.45,742.3 372.75,744.55 374.95,746.85 377.65,748 380.85,748 384,748 386.7,746.85 389.05,744.55 L412.4,721.25 C425.3,733.6 439.95,743.05 456.45,749.55 472.95,756.25 490,759.6 507.65,759.6 540.7,759.6 524.6,713.25 508.45,713.25 496.65,713.25 485.4,711.15 474.55,706.85 463.6,702.35 453.9,696.2 445.35,688.3 L470.25,663.35 C472.4,661.2 473.5,658.45 473.5,655.3z"/>
    </g>
  </g>
</svg>