<?xml version="1.0" encoding="utf-8"?>
<!-- Generator: flash2svg, http://dissentgraphics.com/tools/flash2svg -->
<svg id="User-Downloads" image-rendering="optimizeSpeed" baseProfile="basic" version="1.1" style="background-color:#FFFFFF" x="0px" y="0px" width="1024px" height="1024px" viewBox="0 0 1024 1024" enable-background="new 0 0 1024 1024" xmlns="http://www.w3.org/2000/svg" xmlns:xlink="http://www.w3.org/1999/xlink">
  <defs transform="matrix(1 0 0 1 0 0) "/>
  <g id="Shadow">
    <g id="shape">
      <path id="path" fill="#000000" fill-opacity="0.09803921568627451" d="M782,94.4 L782,96.35 290.15,96.35 290.15,94.4 191,189.75 191,262.25 63.1,262.25 63.1,944.95 C63.1,957.5 73.45,967.8 85.95,967.8 L982.4,967.8 C994.9,967.8 1005.25,957.5 1005.25,944.95 L1005.25,262.25 881.3,262.25 881.3,189.75 782,94.4z M782,262.25 L290.15,262.25 290.15,189.75 782,189.75 782,262.25z"/>
    </g>
  </g>
  <g id="Dark">
    <g id="shape5">
      <path id="path4" fill="#4F8C52" fill-opacity="1" d="M857.75,168.35 L758.45,74.95 266.55,75 167.45,168.35 857.75,168.35z M484,643 L550.1,454 981.7,885.6 981.7,301.8 39.55,301.8 39.55,923.55 C39.55,936.1 49.9,946.4 62.4,946.4 L540.45,946.4 350.325,756.275 555,710 484,643z"/>
      <path id="path7" fill="#407342" fill-opacity="1" d="M550.1,454 L484,643 555,710 350.325,756.275 540.45,946.4 958.85,946.4 C971.35,946.4 981.7,936.1 981.7,923.55 L981.7,885.6 550.1,454z"/>
    </g>
  </g>
  <g id="Light">
    <g id="shape11">
      <path id="path8" fill="#66B66A" fill-opacity="1" d="M981.7,301.8 L981.7,240.85 857.75,240.85 857.75,168.35 758.45,74.95 758.45,240.85 266.6,240.85 266.6,74.95 167.45,168.35 167.45,240.85 39.55,240.85 39.55,301.8 981.7,301.8z"/>
    </g>
  </g>
  <g id="Calque.__202">
    <g id="shape13">
      <path id="path9" fill="#FFFFFF" fill-opacity="1" d="M676.6,660.05 C672.85,656.3 668.25,654.35 662.75,654.35 L568.4,654.35 540.55,681.95 C532.65,689.6 523.55,693.4 512.95,693.4 502.4,693.4 493.15,689.6 485.25,681.95 L457.75,654.35 363.15,654.35 C357.7,654.35 353.05,656.3 349.3,660.05 345.5,663.85 343.55,668.45 343.55,673.95 L343.55,739 C343.55,744.45 345.5,749.05 349.3,752.85 353.05,756.6 357.7,758.55 363.15,758.55 L662.75,758.55 C668.25,758.55 672.85,756.6 676.6,752.85 680.4,749.05 682.35,744.45 682.35,739 L682.35,673.95 C682.35,668.45 680.4,663.85 676.6,660.05z M652.45,728.65 C649.85,731.2 646.7,732.55 643.2,732.55 639.65,732.55 636.6,731.2 634.05,728.65 631.5,726.1 630.15,723.05 630.15,719.5 630.15,716 631.5,712.85 634.05,710.3 636.6,707.75 639.65,706.4 643.2,706.4 646.7,706.4 649.85,707.75 652.45,710.3 655,712.85 656.2,716 656.2,719.5 656.2,723.05 655,726.1 652.45,728.65z M591.15,706.4 C594.65,706.4 597.7,707.75 600.25,710.3 602.8,712.85 604.15,716 604.15,719.5 604.15,723.05 602.8,726.1 600.25,728.65 597.7,731.2 594.65,732.55 591.15,732.55 587.6,732.55 584.45,731.2 581.9,728.65 579.35,726.1 578.15,723.05 578.15,719.5 578.15,716 579.35,712.85 581.9,710.3 584.45,707.75 587.6,706.4 591.15,706.4z M548.2,449.7 C545.65,447.15 542.5,445.95 539,445.95 L486.95,445.95 Q481.6,445.95 477.7,449.7 C475.15,452.25 473.8,455.4 473.8,458.95 L473.8,550.15 421.75,550.15 C416.05,550.15 412.05,552.8 409.6,558.05 407.4,563.5 408.4,568.25 412.5,572.25 L503.7,663.45 C506.25,666 509.3,667.35 512.95,667.35 516.6,667.35 519.65,666 522.1,663.45 L613.25,572.25 C617.55,568.25 618.5,563.5 616.05,558.05 613.75,552.8 609.85,550.15 604.15,550.15 L552,550.15 552,458.95 C552,455.4 550.75,452.25 548.2,449.7z"/>
    </g>
  </g>
</svg>