<?xml version="1.0" encoding="utf-8"?>
<!-- Generator: flash2svg, http://dissentgraphics.com/tools/flash2svg -->
<svg id="User-System" image-rendering="optimizeSpeed" baseProfile="basic" version="1.1" style="background-color:#FFFFFF" x="0px" y="0px" width="1024px" height="1024px" viewBox="0 0 1024 1024" enable-background="new 0 0 1024 1024" xmlns="http://www.w3.org/2000/svg" xmlns:xlink="http://www.w3.org/1999/xlink">
  <defs transform="matrix(1 0 0 1 0 0) "/>
  <g id="Shadow">
    <g id="shape">
      <path id="path" fill="#000000" fill-opacity="0.09803921568627451" d="M782,94.4 L782,96.35 290.15,96.35 290.15,94.4 191,189.75 191,262.25 63.1,262.25 63.1,944.95 C63.1,957.5 73.45,967.8 85.95,967.8 L982.4,967.8 C994.9,967.8 1005.25,957.5 1005.25,944.95 L1005.25,262.25 881.3,262.25 881.3,189.75 782,94.4z M782,262.25 L290.15,262.25 290.15,189.75 782,189.75 782,262.25z"/>
    </g>
  </g>
  <g id="FolderDark">
    <g id="shape5">
      <path id="path4" fill="#999999" fill-opacity="1" d="M857.75,168.35 L760.4,74.95 264.6,74.95 167.45,168.35 857.75,168.35z M981.7,779.55 L981.7,301.8 39.55,301.8 39.55,923.55 C39.55,936.1 49.9,946.4 62.4,946.4 L568.45,946.4 379.5,757.45 647.025,445.15 981.7,779.55z"/>
      <path id="path7" fill="#365477" fill-opacity="1" d="M647.025,445.15 L379.5,757.45 568.45,946.4 958.85,946.4 C971.35,946.4 981.7,936.1 981.7,923.55 L981.7,779.55 647.025,445.15z"/>
    </g>
  </g>
  <g id="FolderLight">
    <g id="shape11">
      <path id="path8" fill="#C3C3C3" fill-opacity="1" d="M981.7,301.8 L981.7,240.85 857.75,240.85 857.75,168.35 758.45,73 758.45,240.85 266.6,240.85 266.6,73 167.45,168.35 167.45,240.85 39.55,240.85 39.55,301.8 981.7,301.8z"/>
    </g>
  </g>
  <g id="IcoShadow">
    <g id="shape13">
      <path id="path9" fill="#666666" fill-opacity="1" d="M647.025,445.15 L379.5,757.45 568.45,946.4 958.85,946.4 Q968.2,946.4 974.95,939.65 981.7,932.9 981.7,923.55 L981.7,779.55 647.025,445.15z"/>
    </g>
  </g>
  <g id="Ico">
    <g id="shape15">
      <path id="path10" fill="#FFFFFF" fill-opacity="1" d="M647.95,447.05 L557.35,447.05 513,532.85 468.65,447.05 377.8,447.05 471.6,602.9 378.95,756.1 469.85,756.1 513,673.4 555,756.1 646,756.1 553.8,602.9 647.95,447.05z"/>
    </g>
  </g>
</svg>