<?xml version="1.0" encoding="utf-8"?>
<!-- Generator: flash2svg, http://dissentgraphics.com/tools/flash2svg -->
<svg id="User-Documents" image-rendering="optimizeSpeed" baseProfile="basic" version="1.1" style="background-color:#FFFFFF" x="0px" y="0px" width="1024px" height="1024px" viewBox="0 0 1024 1024" enable-background="new 0 0 1024 1024" xmlns="http://www.w3.org/2000/svg" xmlns:xlink="http://www.w3.org/1999/xlink">
  <defs transform="matrix(1 0 0 1 0 0) "/>
  <g id="Shadow">
    <g id="shape">
      <path id="path" fill="#000000" fill-opacity="0.09803921568627451" d="M782,94.4 L782,96.35 290.15,96.35 290.15,94.4 191,189.75 191,262.25 63.1,262.25 63.1,944.95 C63.1,957.5 73.45,967.8 85.95,967.8 L982.4,967.8 C994.9,967.8 1005.25,957.5 1005.25,944.95 L1005.25,262.25 881.3,262.25 881.3,189.75 782,94.4z M782,262.25 L290.15,262.25 290.15,189.75 782,189.75 782,262.25z"/>
    </g>
  </g>
  <g id="FolderDark">
    <g id="shape5">
      <path id="path4" fill="#5D9193" fill-opacity="1" d="M857.75,168.35 L760.4,74.95 264.6,74.95 167.45,168.35 857.75,168.35z M39.55,923.55 C39.55,936.1 49.9,946.4 62.4,946.4 L958.85,946.4 C971.35,946.4 981.7,936.1 981.7,923.55 L981.7,301.8 39.55,301.8 39.55,923.55z"/>
    </g>
  </g>
  <g id="FolderLight">
    <g id="shape9">
      <path id="path7" fill="#7DB0B4" fill-opacity="1" d="M981.7,301.8 L981.7,240.85 857.75,240.85 857.75,168.35 758.45,73 758.45,240.85 266.6,240.85 266.6,73 167.45,168.35 167.45,240.85 39.55,240.85 39.55,301.8 981.7,301.8z"/>
    </g>
  </g>
  <g id="IcoShadow">
    <g id="shape11">
      <path id="path8" fill="#5D9193" fill-opacity="1" d="M411,467 L626.625,448.475 981.7,803.55 981.7,301.8 39.55,301.8 39.55,923.55 C39.55,936.1 49.9,946.4 62.4,946.4 L585.5,946.4 398.15,759.05 411,467z"/>
      <path id="path9" fill="#4F7C7F" fill-opacity="1" d="M626.625,448.475 L411,467 398.15,759.05 585.5,946.4 958.85,946.4 Q968.2,946.4 974.95,939.65 981.7,932.9 981.7,923.55 L981.7,803.55 626.625,448.475z"/>
    </g>
  </g>
  <g id="Ico">
    <g id="shape15">
      <path id="path10" fill="#FFFFFF" fill-opacity="1" d="M631.05,462 Q631.05,446 615.05,446 L409,446 C398.35,446 393,451.35 393,462 L393,746 C393,756.65 398.35,762 409,762 L615.05,762 C625.7,762 631.05,756.65 631.05,746 L631.05,462z M563.85,535.2 L424.4,535.2 424.4,517.2 563.85,517.2 563.85,535.2z M594.8,573.4 L424.4,573.4 424.4,555.4 594.8,555.4 594.8,573.4z M510.4,497 L424.4,497 424.4,479 510.4,479 510.4,497z M563.85,593.6 L563.85,611.6 424.4,611.6 424.4,593.6 563.85,593.6z"/>
    </g>
  </g>
</svg>