<?xml version="1.0" encoding="utf-8"?>
<!-- Generator: flash2svg, http://dissentgraphics.com/tools/flash2svg -->
<svg xmlns:xlink="http://www.w3.org/1999/xlink" id="User-Desktop" image-rendering="optimizeSpeed" baseProfile="basic" version="1.1" style="background-color:#ffffff" x="0px" y="0px" width="1024px" height="1024px" viewBox="0 0 1024 1024" enable-background="new 0 0 1024 1024" xmlns="http://www.w3.org/2000/svg">
  <defs transform="matrix(1 0 0 1 0 0) "/>
  <g id="folder-shadow">
    <g id="shape">
      <path id="path" fill="#000000" fill-opacity="0.09803921568627451" d="M782.05,94.45 L782.05,96.4 290.2,96.4 290.2,94.45 191.05,189.8 191.05,262.3 63.15,262.3 63.15,945 C63.15,957.55 73.5,967.85 86,967.85 L982.45,967.85 C994.95,967.85 1005.3,957.55 1005.3,945 L1005.3,262.3 881.35,262.3 881.35,189.8 782.05,94.45z M782.05,262.3 L290.2,262.3 290.2,189.8 782.05,189.8 782.05,262.3z"/>
    </g>
  </g>
  <g id="folder">
    <g id="shape5">
      <path id="path4" fill="#4E5066" fill-opacity="1" d="M758.5,73.05 L758.5,75 266.65,75 266.65,73.05 167.5,168.4 167.5,240.9 39.6,240.9 39.6,923.6 C39.6,936.15 49.95,946.45 62.45,946.45 L958.9,946.45 C971.4,946.45 981.75,936.15 981.75,923.6 L981.75,240.9 857.8,240.9 857.8,168.4 758.5,73.05z M758.5,240.9 L266.65,240.9 266.65,168.4 758.5,168.4 758.5,240.9z"/>
    </g>
  </g>
  <g id="folder-dark">
    <g id="shape10">
      <path id="path8" fill="#000000" fill-opacity="0.2" d="M758.5,168.4 L758.5,75 266.65,75 266.65,168.4 758.5,168.4z M39.6,923.6 C39.6,936.15 49.95,946.45 62.45,946.45 L958.9,946.45 C971.4,946.45 981.75,936.15 981.75,923.6 L981.75,301.85 39.6,301.85 39.6,923.6z"/>
    </g>
  </g>
  <g id="ico-shadow">
    <g id="shape14">
      <path id="path11" fill="#000000" fill-opacity="0.2" d="M981.75,729.95 L702.85,451.05 332.85,454.05 319.4,502.6 397.45,580.65 325.4,755.7 516.15,946.45 958.9,946.45 Q968.25,946.45 975,939.7 981.75,932.95 981.75,923.6 L981.75,729.95z"/>
    </g>
  </g>
  <g id="Ico">
    <g id="shape16">
      <path id="path12" fill="#FFFFFF" fill-opacity="1" d="M706.45,466.05 Q706.45,446.05 686.45,446.05 L337.65,446.05 C324.3,446.05 317.65,452.7 317.65,466.05 L317.65,500.85 706.45,500.85 706.45,466.05z M406.8,483.45 C403.95,483.45 401.55,482.45 399.55,480.45 397.55,478.45 396.55,476.05 396.55,473.2 396.55,470.35 397.55,467.95 399.55,465.95 401.55,463.95 403.95,462.95 406.8,462.95 409.65,462.95 412.05,463.95 414.05,465.95 416.05,467.95 417.05,470.35 417.05,473.2 417.05,476.05 416.05,478.45 414.05,480.45 412.05,482.45 409.65,483.45 406.8,483.45z M347.1,483.45 C344.25,483.45 341.85,482.45 339.85,480.45 337.85,478.45 336.85,476.05 336.85,473.2 336.85,470.35 337.85,467.95 339.85,465.95 341.85,463.95 344.25,462.95 347.1,462.95 349.95,462.95 352.35,463.95 354.35,465.95 356.35,467.95 357.35,470.35 357.35,473.2 357.35,476.05 356.35,478.45 354.35,480.45 352.35,482.45 349.95,483.45 347.1,483.45z M384.2,465.95 C386.2,467.95 387.2,470.35 387.2,473.2 387.2,476.05 386.2,478.45 384.2,480.45 382.2,482.45 379.8,483.45 376.95,483.45 374.1,483.45 371.7,482.45 369.7,480.45 367.7,478.45 366.7,476.05 366.7,473.2 366.7,470.35 367.7,467.95 369.7,465.95 371.7,463.95 374.1,462.95 376.95,462.95 379.8,462.95 382.2,463.95 384.2,465.95z M686.45,758.05 C699.8,758.05 706.45,751.4 706.45,738.05 L706.45,521.65 317.65,521.65 317.65,738.05 C317.65,751.4 324.3,758.05 337.65,758.05 L686.45,758.05z"/>
    </g>
  </g>
</svg>