<?xml version="1.0" encoding="utf-8"?>
<!-- Generator: flash2svg, http://dissentgraphics.com/tools/flash2svg -->
<svg id="User-Burnable" image-rendering="optimizeSpeed" baseProfile="basic" version="1.1" style="background-color:#FFFFFF" x="0px" y="0px" width="1024px" height="1024px" viewBox="0 0 1024 1024" enable-background="new 0 0 1024 1024" xmlns="http://www.w3.org/2000/svg" xmlns:xlink="http://www.w3.org/1999/xlink">
  <defs transform="matrix(1 0 0 1 0 0) "/>
  <g id="Shadow">
    <g id="shape">
      <path id="path" fill="#000000" fill-opacity="0.09803921568627451" d="M782,94.4 L782,96.35 290.15,96.35 290.15,94.4 191,189.75 191,262.25 63.1,262.25 63.1,944.95 C63.1,957.5 73.45,967.8 85.95,967.8 L982.4,967.8 C994.9,967.8 1005.25,957.5 1005.25,944.95 L1005.25,262.25 881.3,262.25 881.3,189.75 782,94.4z M782,262.25 L290.15,262.25 290.15,189.75 782,189.75 782,262.25z"/>
    </g>
  </g>
  <g id="Dark">
    <g id="shape5">
      <path id="path4" fill="#AE3017" fill-opacity="1" d="M857.75,168.35 L758.45,74.95 266.55,75 167.45,168.35 857.75,168.35z M453.475,536 L623,493 981.7,851.7 981.7,301.8 39.55,301.8 39.55,923.55 C39.55,936.1 49.9,946.4 62.4,946.4 L636.1,946.4 400,710.3 453.475,536z"/>
      <path id="path7" fill="#8B2406" fill-opacity="1" d="M623,493 L453.475,536 400,710.3 636.1,946.4 958.85,946.4 C971.35,946.4 981.7,936.1 981.7,923.55 L981.7,851.7 623,493z"/>
    </g>
  </g>
  <g id="Light">
    <g id="shape11">
      <path id="path8" fill="#EB4A2C" fill-opacity="1" d="M981.7,301.8 L981.7,240.85 857.75,240.85 857.75,168.35 758.45,74.95 758.45,240.85 266.6,240.85 266.6,74.95 167.45,168.35 167.45,240.85 39.55,240.85 39.55,301.8 981.7,301.8z"/>
    </g>
  </g>
  <g id="Calque.__201">
    <g id="shape13">
      <path id="path9" fill="#FFFFFF" fill-opacity="1" d="M511.75,585 C506.6,585 502.15,586.85 498.5,590.5 494.85,594.15 493,598.6 493,603.75 493,608.9 494.85,613.35 498.5,617 502.15,620.65 506.6,622.5 511.75,622.5 516.9,622.5 521.35,620.65 525,617 528.65,613.35 530.5,608.9 530.5,603.75 530.5,598.6 528.65,594.15 525,590.5 Q519.5,585 511.75,585z"/>
    </g>
  </g>
  <g id="Ico">
    <g id="shape15">
      <path id="path10" fill="#FFFFFF" fill-opacity="1" d="M622.7,491.8 C592.15,461.25 555.25,445.95 512,445.95 468.75,445.95 431.85,461.25 401.3,491.8 370.75,522.35 355.45,559.25 355.45,602.5 355.45,645.75 370.75,682.65 401.3,713.2 431.85,743.75 468.75,759.05 512,759.05 555.25,759.05 592.15,743.75 622.7,713.2 653.25,682.65 668.55,645.75 668.55,602.5 668.55,559.25 653.25,522.35 622.7,491.8z M548.65,565.8 C558.8,575.95 563.85,588.15 563.85,602.5 563.85,616.85 558.8,629.05 548.65,639.15 538.55,649.3 526.35,654.35 512,654.35 497.65,654.35 485.45,649.3 475.3,639.15 465.2,629.05 460.15,616.85 460.15,602.5 460.15,588.15 465.2,575.95 475.3,565.8 485.45,555.7 497.65,550.65 512,550.65 Q533.5,550.65 548.65,565.8z"/>
    </g>
  </g>
</svg>