<?xml version="1.0" encoding="utf-8"?>
<!-- Generator: flash2svg, http://dissentgraphics.com/tools/flash2svg -->
<svg id="User-Smart" image-rendering="optimizeSpeed" baseProfile="basic" version="1.1" style="background-color:#FFFFFF" x="0px" y="0px" width="1024px" height="1024px" viewBox="0 0 1024 1024" enable-background="new 0 0 1024 1024" xmlns="http://www.w3.org/2000/svg" xmlns:xlink="http://www.w3.org/1999/xlink">
  <defs transform="matrix(1 0 0 1 0 0) "/>
  <g id="Shadow">
    <g id="shape">
      <path id="path" fill="#000000" fill-opacity="0.09803921568627451" d="M782,94.4 L782,96.35 290.15,96.35 290.15,94.4 191,189.75 191,262.25 63.1,262.25 63.1,944.95 C63.1,957.5 73.45,967.8 85.95,967.8 L982.4,967.8 C994.9,967.8 1005.25,957.5 1005.25,944.95 L1005.25,262.25 881.3,262.25 881.3,189.75 782,94.4z M782,262.25 L290.15,262.25 290.15,189.75 782,189.75 782,262.25z"/>
    </g>
  </g>
  <g id="Dark">
    <g id="shape5">
      <path id="path4" fill="#7C3198" fill-opacity="1" d="M857.75,168.35 L758.45,74.95 266.55,75 167.45,168.35 857.75,168.35z M453.475,536 L623,493 981.7,851.7 981.7,301.8 39.55,301.8 39.55,923.55 C39.55,936.1 49.9,946.4 62.4,946.4 L636.1,946.4 400,710.3 453.475,536z"/>
      <path id="path7" fill="#672880" fill-opacity="1" d="M623,493 L453.475,536 400,710.3 636.1,946.4 958.85,946.4 C971.35,946.4 981.7,936.1 981.7,923.55 L981.7,851.7 623,493z"/>
    </g>
  </g>
  <g id="Light">
    <g id="shape11">
      <path id="path8" fill="#9E51BC" fill-opacity="1" d="M981.7,301.8 L981.7,240.85 857.75,240.85 857.75,168.35 758.45,74.95 758.45,240.85 266.6,240.85 266.6,74.95 167.45,168.35 167.45,240.85 39.55,240.85 39.55,301.8 981.7,301.8z"/>
    </g>
  </g>
  <g id="ico">
    <g id="shape13">
      <path id="path9" fill="#FFFFFF" fill-opacity="1" d="M666.55,575.25 L662.2,572.7 625,567 616.65,547.1 638,519.15 639.6,514.55 638.25,510.05 C633.4,503.15 622.2,491.65 604.75,475.55 L599.65,473.5 C597.6,473.5 596,474.05 594.8,475.2 L566,497.05 547.65,489.4 541.95,452.1 539.65,447.85 534.65,446.05 489.5,446.05 C485.6,446.05 483.15,447.95 482.2,451.75 L476.35,489.4 457.8,497.3 429.75,475.55 424.4,473.5 C421.4,473.5 415,478.35 405.2,488.05 L385.25,509.9 383.35,514.55 385.4,519.4 407.15,547.45 399.1,566.15 361.35,571.85 357.45,574.55 355.9,579.15 355.9,624.35 357.45,629.05 361.7,631.6 398.9,637.1 C400.85,643.75 403.6,650.45 407.25,657.25 L386,685.2 384.3,689.8 385.75,694.4 C391.1,701.75 402.35,713.15 419.4,728.55 420.85,730.1 422.55,730.85 424.4,730.85 L429.5,729.15 458.15,707.15 476.5,714.8 482.2,752.2 C482.35,754 483.15,755.5 484.5,756.7 L489.5,758.3 534.65,758.3 C538.6,758.3 541.05,756.4 541.95,752.6 L547.9,714.8 566.35,707.05 594.4,729.15 599.65,730.85 C602.55,730.85 608.95,726.05 618.85,716.5 L639,694.4 640.7,689.8 638.75,684.8 616.9,656.65 624.9,638.2 662.45,632.45 666.55,629.8 668.15,625.2 668.15,580 666.55,575.25z M548.85,565.45 C559,575.5 564.05,587.75 564.05,602.25 564.05,616.55 559,628.75 548.85,638.9 538.65,649.1 526.4,654.2 512.05,654.2 497.7,654.2 485.45,649.1 475.25,638.9 465.05,628.75 459.95,616.55 459.95,602.25 459.95,587.75 465.05,575.5 475.25,565.45 485.45,555.2 497.7,550.1 512.05,550.1 526.4,550.1 538.65,555.2 548.85,565.45z"/>
    </g>
  </g>
</svg>