<?xml version="1.0" encoding="utf-8"?>
<!-- Generator: flash2svg, http://dissentgraphics.com/tools/flash2svg -->
<svg id="User-cloud" image-rendering="optimizeSpeed" baseProfile="basic" version="1.1" style="background-color:#FFFFFF" x="0px" y="0px" width="1024px" height="1024px" viewBox="0 0 1024 1024" enable-background="new 0 0 1024 1024" xmlns="http://www.w3.org/2000/svg" xmlns:xlink="http://www.w3.org/1999/xlink">
  <defs transform="matrix(1 0 0 1 0 0) "/>
  <g id="Shadow">
    <g id="shape">
      <path id="path" fill="#000000" fill-opacity="0.09803921568627451" d="M782,94.4 L782,96.35 290.15,96.35 290.15,94.4 191,189.75 191,262.25 63.1,262.25 63.1,944.95 C63.1,957.5 73.45,967.8 85.95,967.8 L982.4,967.8 C994.9,967.8 1005.25,957.5 1005.25,944.95 L1005.25,262.25 881.3,262.25 881.3,189.75 782,94.4z M782,262.25 L290.15,262.25 290.15,189.75 782,189.75 782,262.25z"/>
    </g>
  </g>
  <g id="Dark">
    <g id="shape5">
      <path id="path4" fill="#3D6896" fill-opacity="1" d="M857.75,168.35 L760.4,74.95 264.6,74.95 167.45,168.35 857.75,168.35z M39.55,923.55 C39.55,936.1 49.9,946.4 62.4,946.4 L546.55,946.4 328.225,728.075 650.925,524.775 981.7,855.55 981.7,301.8 39.55,301.8 39.55,923.55z"/>
      <path id="path7" fill="#305379" fill-opacity="1" d="M958.85,946.4 C971.35,946.4 981.7,936.1 981.7,923.55 L981.7,855.55 650.925,524.775 328.225,728.075 546.55,946.4 958.85,946.4z"/>
    </g>
  </g>
  <g id="Light">
    <g id="shape11">
      <path id="path8" fill="#5B8CC4" fill-opacity="1" d="M981.7,301.8 L981.7,240.85 857.75,240.85 857.75,168.35 758.45,73 758.45,240.85 266.6,240.85 266.6,73 167.45,168.35 167.45,240.85 39.55,240.85 39.55,301.8 981.7,301.8z"/>
    </g>
  </g>
  <g id="Calque.__201">
    <g id="shape13">
      <path id="path9" fill="#FFFFFF" fill-opacity="1" d="M657.4,590.3 Q666.6,576.35 666.6,559.6 C666.6,543.95 661,530.55 649.85,519.4 638.7,508.25 625.3,502.65 609.65,502.65 595.4,502.65 583.1,507.25 572.75,516.5 564.05,495.5 550.2,478.45 531.15,465.4 512.1,452.45 490.95,445.95 467.6,445.95 436.15,445.95 409.35,457 387.2,479.15 365.05,501.45 353.95,528.25 353.95,559.6 L354.35,569.1 C337.1,577.15 323.25,589.25 312.8,605.45 302.3,621.6 297.05,639.5 297.05,659.1 297.05,686.4 306.75,709.8 326.2,729.35 345.75,748.8 369.2,758.55 396.5,758.55 L638.05,758.55 C661.6,758.55 681.75,750.2 698.45,733.5 715,716.95 723.3,696.85 723.3,673.2 723.3,653.3 717.1,635.55 704.65,620 692.25,604.6 676.5,594.7 657.4,590.3z"/>
    </g>
  </g>
</svg>