<?xml version="1.0" encoding="utf-8"?>
<!-- Generator: flash2svg, http://dissentgraphics.com/tools/flash2svg -->
<svg id="APP" image-rendering="optimizeSpeed" baseProfile="basic" version="1.1" style="background-color:#FFFFFF" x="0px" y="0px" width="1024px" height="1024px" viewBox="0 0 1024 1024" enable-background="new 0 0 1024 1024" xmlns="http://www.w3.org/2000/svg" xmlns:xlink="http://www.w3.org/1999/xlink">
  <defs transform="matrix(1 0 0 1 0 0) "/>
  <g id="shadow">
    <g id="shape">
      <path id="path" fill="#000000" fill-opacity="0.09803921568627451" d="M969.6,351.25 Q961,330.4 950.2,310.4 C946.15,302.85 941.85,295.35 937.3,288 917.75,256.3 893.9,226.35 865.75,198.2 773.6,106.05 662.3,59.95 531.95,59.95 401.6,59.95 290.35,106.05 198.2,198.2 106.05,290.35 59.95,401.6 59.95,531.95 59.95,662.3 106.05,773.6 198.2,865.75 290.35,957.9 401.6,1003.95 531.95,1003.95 662.3,1003.95 773.6,957.9 865.75,865.75 916.5,814.95 953.3,758.35 976.1,696 994.65,645.15 1003.95,590.5 1003.95,531.95 1003.95,487.05 998.5,444.4 987.55,404 986.3,399.45 985,394.9 983.65,390.4 979.55,377.1 974.85,364.05 969.6,351.25z"/>
    </g>
  </g>
  <g id="bg">
    <g id="shape2">
      <path id="path1" fill="#67B14B" fill-opacity="1" d="M969.7,392 C968.6,387.65 967.35,383 966.05,378.4 963.55,369.65 960.7,360.8 957.6,352.05 951.15,333.8 943.45,316 934.45,298.4 930.65,291 926.5,283.45 922.15,276 901.85,241.5 876.35,208.8 845.8,178.25 773.2,105.65 688.65,61.6 592.15,46.2 575.9,43.6 559.35,41.8 542.1,40.85 532.4,40.3 522.25,40 512,40 502.65,40 493.4,40.25 484.1,40.75 365.75,46.85 263.8,92.7 178.25,178.25 Q40,316.5 40,512 C40,642.35 86.1,753.65 178.25,845.8 263.8,931.3 365.75,977.15 484.1,983.3 484.25,983.3 484.35,983.3 484.5,983.3 493,983.75 501.1,984 509,984 510.2,984 511.1,984 512,984 522.3,984 532.5,983.7 542.1,983.2 544.6,983.05 546.85,982.9 549.05,982.75 569.25,981.3 588.95,978.7 607.75,975.05 615.7,973.5 623.55,971.75 631.15,969.9 711.95,949.6 783.3,908.3 845.8,845.8 894.4,797.2 930.2,743.3 953.15,684 971.6,636.35 981.8,585.2 983.7,530.5 983.9,524.45 984,518.25 984,512 984,511.35 984,510.65 984,510 984,509.65 984,509.35 984,509 983.8,468.35 979.05,429.5 969.7,392z"/>
    </g>
  </g>
  <g id="Calque.__205">
    <g id="shape4">
      <path id="path2" fill="#000000" fill-opacity="1" d="M934,512 Q934,337.2 810.45,213.6 C728.05,131.2 628.55,90 512,90 395.45,90 296,131.2 213.6,213.6 131.2,296 90,395.45 90,512 90,628.55 131.2,728.05 213.6,810.45 296,892.8 395.45,934 512,934 628.55,934 728.05,892.8 810.45,810.45 892.8,728.05 934,628.55 934,512z"/>
    </g>
  </g>
  <g id="Calque.__206">
    <g id="shape6">
      <path id="path4" fill="none" stroke="#333333" stroke-opacity="1" stroke-width="26.25" stroke-linecap="round" stroke-linejoin="round" d="M797.8,797.8 Q910.8,684.85 910.8,525.1 C910.8,418.6 873.15,327.7 797.8,252.35 722.5,177.05 631.6,139.4 525.1,139.4 418.6,139.4 327.7,177.05 252.35,252.35 177.05,327.7 139.4,418.6 139.4,525.1 139.4,631.6 177.05,722.5 252.35,797.8 327.7,873.15 418.6,910.8 525.1,910.8 631.6,910.8 722.5,873.15 797.8,797.8z"/>
    </g>
  </g>
  <mask id="inner">
    <g id="g">
      <g id="shape8">
        <path id="path5" fill="#FFFFFF" fill-opacity="1" d="M760.05,760.05 Q862.75,657.3 862.75,512 C862.75,415.15 828.5,332.45 760.05,264 691.55,195.55 608.85,161.3 512,161.3 415.15,161.3 332.45,195.55 264,264 195.55,332.45 161.3,415.15 161.3,512 161.3,608.85 195.55,691.55 264,760.05 332.45,828.5 415.15,862.75 512,862.75 608.85,862.75 691.55,828.5 760.05,760.05z"/>
      </g>
    </g>
  </mask>
  <g id="masked" mask="url(#inner)" transform="matrix(1 0 0 1 0 0) "/>
  <mask id="inner1">
    <g id="g1">
      <g id="shape12">
        <path id="path6" fill="#FFFFFF" fill-opacity="1" d="M760.05,760.05 Q862.75,657.3 862.75,512 C862.75,415.15 828.5,332.45 760.05,264 691.55,195.55 608.85,161.3 512,161.3 415.15,161.3 332.45,195.55 264,264 195.55,332.45 161.3,415.15 161.3,512 161.3,608.85 195.55,691.55 264,760.05 332.45,828.5 415.15,862.75 512,862.75 608.85,862.75 691.55,828.5 760.05,760.05z"/>
      </g>
    </g>
  </mask>
  <g id="masked1" mask="url(#inner1)">
    <g id="Calque.__207">
      <g id="shape10" transform="matrix(1 0 0 1 -367.2 -309.55)"/>
    </g>
    <g id="Calque.__208">
      <g id="shape11" transform="matrix(1 0 0 1 -385.85 -270.95)"/>
    </g>
  </g>
  <g id="Calque.__209">
    <g id="shape14">
      <path id="path7" fill="#000000" fill-opacity="0.2980392156862745" d="M702,532 Q702,461.6 652.2,411.8 C619,378.6 578.95,362 532,362 485.05,362 445,378.6 411.8,411.8 378.6,445 362,485.05 362,532 362,578.95 378.6,619 411.8,652.2 445,685.4 485.05,702 532,702 578.95,702 619,685.4 652.2,652.2 685.4,619 702,578.95 702,532z"/>
    </g>
  </g>
  <g id="Calque.__210">
    <g id="shape16">
      <path id="path8" fill="#67B14B" fill-opacity="1" d="M670.85,574.05 Q682,545.328 682,512 C682,465.05 665.4,425 632.2,391.8 599,358.6 558.95,342 512,342 465.05,342 425,358.6 391.8,391.8 358.6,425 342,465.05 342,512 342,558.95 358.6,599 391.8,632.2 425,665.4 465.05,682 512,682 529.95,682 546.9,679.55 562.85,674.7 L405,516.85 474,527.15 427.85,481 486,475.1 446.2,435.3 500,438.1 616,519.2 670.85,574.05z"/>
      <path id="path9" fill="#4E8B37" fill-opacity="1" d="M616,519.2 L500,438.1 446.2,435.3 486,475.1 427.85,481 474,527.15 405,516.85 562.85,674.7 C588.6,666.85 611.7,652.7 632.2,632.2 649.65,614.75 662.55,595.35 670.85,574.05 L616,519.2z"/>
    </g>
  </g>
  <g id="svg3176">
    <g id="shape20">
      <path id="path10" fill="#FFFFFF" fill-opacity="1" d="M555,573 C556.3,575.35 557.5,577.55 560.4,579.25 566.25,582.65 573.6,580.6 576.95,574.8 577.2,574.4 577.4,574.05 577.6,573.7 579.45,568.5 578.85,565.9 576.55,561.65 560.2,532.15 531.65,502.6 494.3,481 474.8,469.75 455.35,462.25 437.55,457.95 431.65,456.4 426.85,458.25 423.85,461.95 423.55,462.45 423.25,462.85 422.95,463.35 419.6,469.2 421.55,476.65 427.35,480 429.85,481.4 431.75,481.5 434.8,482.25 448.85,486.05 465,492.15 482.05,502 515.3,521.2 540.6,547.35 555,573z M622.05,540.2 C623.55,535.55 623.35,531.3 620.3,526.25 600.5,491.85 564.7,459.9 524.2,436.55 499.85,422.5 477.65,413.35 455.2,407.8 449.45,406.4 443.45,408.4 439.6,413.55 439.4,413.8 439.25,414.05 439.05,414.35 434.9,421.55 437.15,430.35 444.35,434.5 446.8,435.95 449.85,436.45 452.1,437.05 471.75,442.25 491.35,451.15 509.65,461.7 546.2,482.8 579.4,512.7 595.3,541.4 597.05,544.25 598.35,545.85 601.1,547.4 607.9,551.35 616.8,549.55 621.05,542.15 621.45,541.5 621.75,540.85 622.05,540.2z M538.25,592.8 C524.25,567.15 502.05,544.1 471.15,526.25 451.45,514.9 433,508.1 417.55,503.1 Q413.8,501.75 410.4,502.85 407.95,503.7 406.05,505.7 C405.75,506.1 405.4,506.65 405.1,507.15 402.55,511.6 403.65,517.6 408.75,520.55 410.4,521.5 413.65,522.25 416.15,523.05 431.4,528.1 446.95,534.6 461.35,542.95 487.15,557.85 507.85,578.05 520.6,601.15 521.9,603.55 523,605.25 525.15,606.5 529.55,609.05 535.55,607.7 538.35,602.85 538.65,602.35 538.9,601.9 539.1,601.45 539.5,600.2 539.7,599.05 539.7,598 539.7,596.3 539.2,594.55 538.25,592.8z"/>
      <path id="path11" fill="#83A645" fill-opacity="1" d="M576.55,561.65 C578.85,565.9 579.45,568.5 577.6,573.7 578.6,571.65 579.1,569.65 579.1,567.85 579.15,565.5 578.45,563.15 576.95,560.6 559.45,529.05 530.4,500.55 495.2,480.2 472.65,467.2 455.35,461.5 437.8,456.95 431.9,455.4 427.2,457.1 423.85,461.95 426.85,458.25 431.65,456.4 437.55,457.95 455.35,462.25 474.8,469.75 494.3,481 531.65,502.6 560.2,532.15 576.55,561.65z"/>
      <path id="path12" fill="#82A745" fill-opacity="1" d="M620.3,526.25 C623.35,531.3 623.55,535.55 622.05,540.2 624.5,534.7 623.65,530.15 621.2,525.9 601.1,490.5 564.2,458.35 524.65,435.55 501.35,422.1 478.35,412.3 455.95,406.95 452.75,406.1 449.75,406.3 446.95,407.4 443.95,408.5 441.45,410.55 439.6,413.55 443.45,408.4 449.45,406.4 455.2,407.8 477.65,413.35 499.85,422.5 524.2,436.55 564.7,459.9 600.5,491.85 620.3,526.25z"/>
      <path id="path15" fill="#7B9E45" fill-opacity="1" d="M471.15,526.25 C502.05,544.1 524.25,567.15 538.25,592.8 539.2,594.55 539.7,596.3 539.7,598 539.7,599.05 539.5,600.2 539.1,601.45 539.95,599.65 540.3,598 540.2,596.45 540.1,594.85 539.45,592.95 538.25,590.8 523.4,564.2 501.1,542.3 471.65,525.3 454.4,515.35 436.55,507.95 417.75,502.15 415.3,501.3 413,501.3 410.95,501.95 409.05,502.6 407.45,503.85 406.05,505.7 Q407.95,503.7 410.4,502.85 413.8,501.75 417.55,503.1 C433,508.1 451.45,514.9 471.15,526.25z"/>
    </g>
  </g>
</svg>