<?xml version="1.0" encoding="utf-8"?>
<!-- Generator: flash2svg, http://dissentgraphics.com/tools/flash2svg -->
<svg xmlns:xlink="http://www.w3.org/1999/xlink" id="FINDER-1-Alt" image-rendering="optimizeSpeed" baseProfile="basic" version="1.1" style="background-color:#ffffff" x="0px" y="0px" width="1024px" height="1024px" viewBox="0 0 1024 1024" enable-background="new 0 0 1024 1024" xmlns="http://www.w3.org/2000/svg">
  <defs transform="matrix(1 0 0 1 0 0) "/>
  <g id="shadow">
    <g id="shape">
      <path id="path" fill="#000000" fill-opacity="0.09803921568627451" d="M969.65,351.3 Q961.05,330.45 950.25,310.45 C946.2,302.9 941.9,295.4 937.35,288.05 917.8,256.35 893.95,226.4 865.8,198.25 773.65,106.1 662.35,60 532,60 401.65,60 290.4,106.1 198.25,198.25 106.1,290.4 60,401.65 60,532 60,662.35 106.1,773.65 198.25,865.8 290.4,957.95 401.65,1004 532,1004 662.35,1004 773.65,957.95 865.8,865.8 916.55,815 953.35,758.4 976.15,696.05 994.7,645.2 1004,590.55 1004,532 1004,487.1 998.55,444.45 987.6,404.05 986.35,399.5 985.05,394.95 983.7,390.45 979.6,377.15 974.9,364.1 969.65,351.3z"/>
    </g>
  </g>
  <g id="inner.__20circle">
    <g id="shape2">
      <path id="path1" fill="#949DEF" fill-opacity="1" d="M969.75,392.05 C968.65,387.7 967.4,383.05 966.1,378.45 963.6,369.7 960.75,360.85 957.65,352.1 951.2,333.85 943.5,316.05 934.5,298.45 930.7,291.05 926.55,283.5 922.2,276.05 Q891.55,224.05 845.85,178.3 C773.25,105.7 688.7,61.65 592.2,46.25 575.95,43.65 559.4,41.85 542.15,40.9 L542.15,304.6 C636.7,308.1 718.25,328.2 786.95,364.95 812.85,378.85 834.3,393.65 851.05,409.15 855,412.8 858.55,416.35 861.9,419.95 887.95,448.05 900.8,478.6 900.8,512.05 900.8,569.5 862.85,618.5 786.95,659.1 718.3,695.85 636.75,715.95 542.15,719.5 L542.15,983.225 L542.15,983.25 C544.65,983.1 546.9,982.95 549.1,982.8 569.3,981.35 589,978.75 607.8,975.1 615.75,973.55 623.6,971.8 631.2,969.95 712,949.65 783.35,908.35 845.85,845.85 894.45,797.25 930.25,743.35 953.2,684.05 971.65,636.4 981.85,585.25 983.75,530.55 983.95,524.5 984.05,518.3 984.05,512.05 984.05,511.4 984.05,510.7 984.05,510.05 984.05,509.7 984.05,509.4 984.05,509.05 983.85,468.4 979.1,429.55 969.75,392.05z"/>
      <path id="path5" fill="#43466D" fill-opacity="1" d="M542.15,40.9 C532.45,40.35 522.3,40.05 512.05,40.05 502.7,40.05 493.45,40.3 484.15,40.8 L484.15,40.775 L484.15,304.525 L484.15,304.55 C493.4,304.2 502.65,304.05 512.05,304.05 522.25,304.05 532.35,304.25 542.15,304.6 L542.15,40.9z M542.15,719.5 C532.45,719.85 522.3,720.05 512.05,720.05 502.75,720.05 493.6,719.9 484.15,719.6 L484.15,719.575 L484.15,983.325 L484.15,983.35 C484.3,983.35 484.4,983.35 484.55,983.35 493.05,983.8 501.15,984.05 509.05,984.05 510.25,984.05 511.15,984.05 512.05,984.05 522.35,984.05 532.55,983.75 542.15,983.25 L542.15,983.225 L542.15,719.5z"/>
      <path id="path6" fill="#6C6FAF" fill-opacity="1" d="M484.15,304.525 L484.15,40.775 L484.15,40.8 C365.8,46.9 263.85,92.75 178.3,178.3 86.15,270.45 40.05,381.7 40.05,512.05 40.05,642.4 86.15,753.7 178.3,845.85 263.85,931.35 365.8,977.2 484.15,983.35 L484.15,983.325 L484.15,719.575 L484.15,719.6 C389,716.4 306.5,696.25 237.15,659.1 205.8,642.35 180.9,624.15 162.25,604.15 162.1,604 162,603.9 161.85,603.75 136.15,576.05 123.3,545.5 123.3,512.05 123.3,454.6 161.25,405.6 237.15,364.95 306.4,327.9 388.8,307.75 484.15,304.55"/>
    </g>
  </g>
  <g id="Calque.__206">
    <g id="shape12">
      <path id="path10" fill="none" stroke="#000000" stroke-opacity="0.2" stroke-width="44.15" stroke-linecap="round" stroke-linejoin="round" d="M828.05,701.4 Q941.9,640.5 941.9,554.35 C941.9,496.9 903.95,447.9 828.05,407.25 752.15,366.65 660.5,346.35 553.15,346.35 445.8,346.35 354.15,366.65 278.25,407.25 202.35,447.9 164.4,496.9 164.4,554.35 164.4,611.8 202.35,660.8 278.25,701.4 354.15,742.05 445.8,762.35 553.15,762.35 660.5,762.35 752.15,742.05 828.05,701.4z"/>
    </g>
  </g>
  <g id="Calque.__207">
    <g id="shape14">
      <path id="path11" fill="#CCCCCC" fill-opacity="1" d="M786.95,659.1 Q900.8,598.2 900.8,512.05 C900.8,454.6 862.85,405.6 786.95,364.95 711.05,324.35 619.4,304.05 512.05,304.05 L512.05,720.05 C619.4,720.05 711.05,699.75 786.95,659.1z"/>
      <path id="path12" fill="#FFFFFF" fill-opacity="1" d="M123.3,512.05 C123.3,569.5 161.25,618.5 237.15,659.1 313.05,699.75 404.7,720.05 512.05,720.05 L512.05,304.05 C404.7,304.05 313.05,324.35 237.15,364.95 161.25,405.6 123.3,454.6 123.3,512.05z"/>
    </g>
  </g>
  <g id="Calque.__208">
    <g id="shape18">
      <path id="path13" fill="#00A1C9" fill-opacity="1" d="M530.8,331.7 Q521.6,330.75 512.05,330.75 L512.05,667.75 C518.4,667.75 524.65,667.45 530.8,666.85 539.8,665.95 548.55,664.35 557,662.1 584.7,654.75 609.45,640.15 631.2,618.4 664.1,585.5 680.55,545.8 680.55,499.25 680.55,452.7 664.1,413 631.2,380.1 602.8,351.7 569.35,335.55 530.8,331.7z"/>
      <path id="path14" fill="#00CCFF" fill-opacity="1" d="M512.05,330.75 C465.5,330.75 425.8,347.2 392.9,380.1 360,413 343.55,452.7 343.55,499.25 343.55,545.8 360,585.5 392.9,618.4 425.8,651.3 465.5,667.75 512.05,667.75 L512.05,330.75z"/>
    </g>
  </g>
  <g id="Calque.__209">
    <g id="shape22">
      <path id="path15" fill="#000000" fill-opacity="1" d="M583.45,567.45 Q613.05,537.9 613.05,496.05 C613.05,468.15 603.2,444.35 583.45,424.6 563.75,404.9 539.95,395.05 512.05,395.05 484.15,395.05 460.35,404.9 440.6,424.6 429.9,435.35 422.1,447.3 417.2,460.45 L417.2,460.425 L518.05,510.05 411.925,510.05 L411.95,510.05 C414.7,532 424.25,551.1 440.6,567.45 460.35,587.2 484.15,597.05 512.05,597.05 539.95,597.05 563.75,587.2 583.45,567.45z"/>
    </g>
  </g>
  <g id="Calque.__210">
    <g id="shape24">
      <path id="path17" fill="none" stroke="#43476C" stroke-opacity="1" stroke-width="44.15" stroke-linecap="round" stroke-linejoin="round" d="M809,681.15 Q922.85,620.25 922.85,534.1 C922.85,476.65 884.9,427.65 809,387 733.1,346.4 641.45,326.1 534.1,326.1 426.75,326.1 335.1,346.4 259.2,387 183.3,427.65 145.35,476.65 145.35,534.1 145.35,591.55 183.3,640.55 259.2,681.15 335.1,721.8 426.75,742.1 534.1,742.1 641.45,742.1 733.1,721.8 809,681.15z"/>
    </g>
  </g>
  <g id="bg.__20circle">
    <g id="shape26">
      <path id="path18" fill="#FFFFFF" fill-opacity="1" d="M603.45,380.15 Q590.35,367.05 571.8,367.05 C559.45,367.05 548.9,371.4 540.15,380.15 531.4,388.9 527.05,399.45 527.05,411.8 527.05,424.15 531.4,434.7 540.15,443.45 548.9,452.2 559.45,456.55 571.8,456.55 584.15,456.55 594.7,452.2 603.45,443.45 612.2,434.7 616.55,424.15 616.55,411.8 616.55,399.45 612.2,388.9 603.45,380.15z M633.8,476.55 C638.45,476.55 642.4,474.9 645.65,471.65 648.9,468.4 650.55,464.45 650.55,459.8 650.55,455.15 648.9,451.2 645.65,447.95 642.4,444.7 638.45,443.05 633.8,443.05 629.15,443.05 625.2,444.7 621.95,447.95 618.7,451.2 617.05,455.15 617.05,459.8 617.05,464.45 618.7,468.4 621.95,471.65 625.2,474.9 629.15,476.55 633.8,476.55z"/>
    </g>
  </g>
</svg>