<?xml version="1.0" encoding="utf-8"?>
<!-- Generator: flash2svg, http://dissentgraphics.com/tools/flash2svg -->
<svg id="APP-2" image-rendering="optimizeSpeed" baseProfile="basic" version="1.1" style="background-color:#FFFFFF" x="0px" y="0px" width="1024px" height="1024px" viewBox="0 0 1024 1024" enable-background="new 0 0 1024 1024" xmlns="http://www.w3.org/2000/svg" xmlns:xlink="http://www.w3.org/1999/xlink">
  <defs transform="matrix(1 0 0 1 0 0) "/>
  <g id="shadow">
    <g id="shape">
      <path id="path" fill="#000000" fill-opacity="0.09803921568627451" d="M969.6,351.25 Q961,330.4 950.2,310.4 C946.15,302.85 941.85,295.35 937.3,288 917.75,256.3 893.9,226.35 865.75,198.2 773.6,106.05 662.3,59.95 531.95,59.95 401.6,59.95 290.35,106.05 198.2,198.2 106.05,290.35 59.95,401.6 59.95,531.95 59.95,662.3 106.05,773.6 198.2,865.75 290.35,957.9 401.6,1003.95 531.95,1003.95 662.3,1003.95 773.6,957.9 865.75,865.75 916.5,814.95 953.3,758.35 976.1,696 994.65,645.15 1003.95,590.5 1003.95,531.95 1003.95,487.05 998.5,444.4 987.55,404 986.3,399.45 985,394.9 983.65,390.4 979.55,377.1 974.85,364.05 969.6,351.25z"/>
    </g>
  </g>
  <g id="bg">
    <g id="shape2">
      <path id="path1" fill="#353B6C" fill-opacity="1" d="M962.9,367.9 C961.3,362.75 959.5,357.4 957.6,352.05 951.15,333.8 943.45,316 934.45,298.4 930.65,291 926.5,283.45 922.15,276 901.85,241.5 876.35,208.8 845.8,178.25 773.2,105.65 688.65,61.6 592.15,46.2 575.9,43.6 559.35,41.8 542.1,40.85 532.4,40.3 522.25,40 512,40 502.65,40 493.4,40.25 484.1,40.75 365.75,46.85 263.8,92.7 178.25,178.25 Q40,316.5 40,512 C40,642.35 86.1,753.65 178.25,845.8 234.95,902.45 298.8,941.7 369.35,963.35 406.1,974.6 444.15,981.2 484.1,983.3 484.25,983.3 484.35,983.3 484.5,983.3 493,983.75 501.1,984 509,984 510.2,984 511.1,984 512,984 522.3,984 532.5,983.7 542.1,983.2 544.6,983.05 546.85,982.9 549.05,982.75 569.25,981.3 588.95,978.7 607.75,975.05 615.7,973.5 623.55,971.75 631.15,969.9 711.95,949.6 783.3,908.3 845.8,845.8 894.4,797.2 930.2,743.3 953.15,684 971.6,636.35 981.8,585.2 983.7,530.5 983.9,524.45 984,518.25 984,512 984,511.35 984,510.65 984,510 984,509.65 984,509.35 984,509 983.8,468.35 979.05,429.5 969.7,392 968.6,387.65 967.35,383 966.05,378.4 965.05,375 964.05,371.55 962.9,367.9z"/>
    </g>
  </g>
  <g id="inner">
    <g id="shape4">
      <path id="path2" fill="#000000" fill-opacity="0.2" d="M760.05,760.05 Q862.75,657.3 862.75,512 C862.75,415.15 828.5,332.45 760.05,264 691.55,195.55 608.85,161.3 512,161.3 415.15,161.3 332.45,195.55 264,264 195.55,332.45 161.3,415.15 161.3,512 161.3,608.85 195.55,691.55 264,760.05 332.45,828.5 415.15,862.75 512,862.75 608.85,862.75 691.55,828.5 760.05,760.05z"/>
    </g>
  </g>
  <mask id="bg1">
    <g id="g">
      <g id="shape14">
        <path id="path9" fill="#FFFFFF" fill-opacity="1" d="M969.7,392 C968.6,387.65 967.35,383 966.05,378.4 965.05,375 964.05,371.55 962.9,367.9 961.3,362.75 959.5,357.4 957.6,352.05 951.15,333.8 943.45,316 934.45,298.4 930.65,291 926.5,283.45 922.15,276 901.85,241.5 876.35,208.8 845.8,178.25 773.2,105.65 688.65,61.6 592.15,46.2 575.9,43.6 559.35,41.8 542.1,40.85 532.4,40.3 522.25,40 512,40 502.65,40 493.4,40.25 484.1,40.75 365.75,46.85 263.8,92.7 178.25,178.25 Q40,316.5 40,512 C40,642.35 86.1,753.65 178.25,845.8 234.95,902.45 298.8,941.7 369.35,963.35 406.1,974.6 444.15,981.2 484.1,983.3 484.25,983.3 484.35,983.3 484.5,983.3 493,983.75 501.1,984 509,984 510.2,984 511.1,984 512,984 522.3,984 532.5,983.7 542.1,983.2 544.6,983.05 546.85,982.9 549.05,982.75 569.25,981.3 588.95,978.7 607.75,975.05 615.7,973.5 623.55,971.75 631.15,969.9 711.95,949.6 783.3,908.3 845.8,845.8 894.4,797.2 930.2,743.3 953.15,684 971.6,636.35 981.8,585.2 983.7,530.5 983.9,524.45 984,518.25 984,512 984,511.35 984,510.65 984,510 984,509.65 984,509.35 984,509 983.8,468.35 979.05,429.5 969.7,392z"/>
      </g>
    </g>
  </mask>
  <g id="masked" mask="url(#bg1)">
    <g id="Calque.__203">
      <g id="shape6">
        <path id="path3" fill="#28293C" fill-opacity="1" d="M1094.6,178.3 C1088.9,172.55 1082,169.7 1073.95,169.7 L619.85,169.7 708.25,258.1 1103.2,258.1 1103.2,250.05 1103.2,198.95 Q1103.2,186.85 1094.6,178.3z"/>
        <path id="path4" fill="#FFFFFF" fill-opacity="1" d="M1103.2,308.1 L1103.2,258.1 708.25,258.1 758.25,308.1 1103.2,308.1z"/>
        <path id="path5" fill="#E4E4E4" fill-opacity="1" d="M758.25,308.1 L708.25,258.1 334.05,258.1 334.05,308.1 758.25,308.1z"/>
        <path id="path6" fill="#6666CC" fill-opacity="1" d="M1103.2,653.05 L1103.2,308.1 758.25,308.1 1103.2,653.05z"/>
        <path id="path7" fill="#5554AC" fill-opacity="1" d="M1103.2,653.05 L758.25,308.1 334.05,308.1 334.05,1025.3 339.3,1025.3 678.9,1025.3 1073.95,1025.3 C1080.15,1025.3 1085.65,1023.6 1090.4,1020.25 1091.85,1019.2 1093.25,1018.05 1094.6,1016.7 1100.35,1011 1103.2,1004.1 1103.2,996.05 L1103.2,653.05z"/>
        <path id="path8" fill="#171922" fill-opacity="1" d="M334.05,308.1 L334.05,258.1 708.25,258.1 619.85,169.7 264.25,169.7 C257.35,169.7 251.3,171.8 246.15,176 245.3,176.7 244.45,177.45 243.6,178.3 237.85,184 235,190.9 235,198.95 L235,996.05 C235,1004.1 237.85,1011 243.6,1016.7 249.3,1022.45 256.2,1025.3 264.25,1025.3 L334.05,1025.3 334.05,308.1z"/>
      </g>
    </g>
  </g>
  <g id="Calque.__204">
    <g id="shape16">
      <path id="path10" fill="#282B3A" fill-opacity="1" d="M354.05,282.05 Q354.05,288.65 358.7,293.3 C361.85,296.45 365.6,298 370,298 374.4,298 378.15,296.45 381.25,293.3 384.4,290.2 385.95,286.45 385.95,282.05 385.95,277.65 384.4,273.9 381.25,270.75 378.15,267.65 374.4,266.1 370,266.1 365.6,266.1 361.85,267.65 358.7,270.75 355.6,273.9 354.05,277.65 354.05,282.05z"/>
    </g>
  </g>
  <g id="Calque.__205">
    <g id="Symbole.__2022_1" overflow="visible">
      <g id="Calque.__210">
        <g id="shape29">
          <path id="path19" fill="#000000" fill-opacity="0.2980392156862745" d="M507.5,391.75 C507.5,385.1 504.15,381.75 497.5,381.75 L451.75,381.75 451.5,381.75 417.5,415.75 417.5,506.75 C417.5,513.4 420.85,516.75 427.5,516.75 L497.5,516.75 C504.15,516.75 507.5,513.4 507.5,506.75 L507.5,391.75z M403,539.75 L403,556.9 522,556.9 522,539.75 403,539.75z"/>
        </g>
      </g>
      <g id="Calque.__211">
        <g id="shape30">
          <path id="path20" fill="#FFFFFF" fill-opacity="1" d="M512,546.9 L512,529.75 393,529.75 393,546.9 512,546.9z"/>
        </g>
        <g id="Symbole.__2026_2" overflow="visible">
          <g id="Calque.__212">
            <g id="shape31">
              <path id="path21" fill="#00C6C8" fill-opacity="1" d="M497.5,381.75 C497.5,375.1 494.15,371.75 487.5,371.75 L441.75,371.75 441.75,395.75 C441.75,402.4 438.4,405.75 431.75,405.75 L407.5,405.75 407.5,496.75 C407.5,503.4 410.85,506.75 417.5,506.75 L487.5,506.75 C494.15,506.75 497.5,503.4 497.5,496.75 L497.5,381.75z"/>
              <path id="path22" fill="#59DCE1" fill-opacity="1" d="M441.75,371.75 L441.5,371.75 407.5,405.75 431.75,405.75 C438.4,405.75 441.75,402.4 441.75,395.75 L441.75,371.75z"/>
            </g>
          </g>
        </g>
      </g>
    </g>
    <g id="Symbole.__2022_2" overflow="visible">
      <g id="Calque.__213">
        <g id="shape32">
          <path id="path23" fill="#000000" fill-opacity="0.2980392156862745" d="M507.5,598.45 C507.5,591.8 504.15,588.45 497.5,588.45 L451.75,588.45 451.5,588.45 417.5,622.45 417.5,713.45 C417.5,720.1 420.85,723.45 427.5,723.45 L497.5,723.45 C504.15,723.45 507.5,720.1 507.5,713.45 L507.5,598.45z M403,746.45 L403,763.6 522,763.6 522,746.45 403,746.45z"/>
        </g>
      </g>
      <g id="Calque.__214">
        <g id="shape33">
          <path id="path24" fill="#FFFFFF" fill-opacity="1" d="M512,753.6 L512,736.45 393,736.45 393,753.6 512,753.6z"/>
        </g>
        <g id="Symbole.__2026_3" overflow="visible">
          <g id="Calque.__215">
            <g id="shape34">
              <path id="path25" fill="#00C6C8" fill-opacity="1" d="M497.5,588.45 C497.5,581.8 494.15,578.45 487.5,578.45 L441.75,578.45 441.75,602.45 C441.75,609.1 438.4,612.45 431.75,612.45 L407.5,612.45 407.5,703.45 C407.5,710.1 410.85,713.45 417.5,713.45 L487.5,713.45 C494.15,713.45 497.5,710.1 497.5,703.45 L497.5,588.45z"/>
              <path id="path26" fill="#59DCE1" fill-opacity="1" d="M441.75,578.45 L441.5,578.45 407.5,612.45 431.75,612.45 C438.4,612.45 441.75,609.1 441.75,602.45 L441.75,578.45z"/>
            </g>
          </g>
        </g>
      </g>
    </g>
    <g id="Symbole.__2022_3" overflow="visible">
      <g id="Calque.__216">
        <g id="shape35">
          <path id="path27" fill="#000000" fill-opacity="0.2980392156862745" d="M653,391.75 C653,385.1 649.65,381.75 643,381.75 L597.25,381.75 597,381.75 563,415.75 563,506.75 C563,513.4 566.35,516.75 573,516.75 L643,516.75 C649.65,516.75 653,513.4 653,506.75 L653,391.75z M548.5,539.75 L548.5,556.9 667.5,556.9 667.5,539.75 548.5,539.75z"/>
        </g>
      </g>
      <g id="Calque.__217">
        <g id="shape36">
          <path id="path28" fill="#FFFFFF" fill-opacity="1" d="M657.5,546.9 L657.5,529.75 538.5,529.75 538.5,546.9 657.5,546.9z"/>
        </g>
        <g id="Symbole.__2026_4" overflow="visible">
          <g id="Calque.__218">
            <g id="shape37">
              <path id="path29" fill="#00C6C8" fill-opacity="1" d="M643,381.75 C643,375.1 639.65,371.75 633,371.75 L587.25,371.75 587.25,395.75 C587.25,402.4 583.9,405.75 577.25,405.75 L553,405.75 553,496.75 C553,503.4 556.35,506.75 563,506.75 L633,506.75 C639.65,506.75 643,503.4 643,496.75 L643,381.75z"/>
              <path id="path30" fill="#59DCE1" fill-opacity="1" d="M587.25,371.75 L587,371.75 553,405.75 577.25,405.75 C583.9,405.75 587.25,402.4 587.25,395.75 L587.25,371.75z"/>
            </g>
          </g>
        </g>
      </g>
    </g>
  </g>
</svg>