<?xml version="1.0" encoding="utf-8"?>
<!-- Generator: flash2svg, http://dissentgraphics.com/tools/flash2svg -->
<svg xmlns:xlink="http://www.w3.org/1999/xlink" id="EVERNOTE-alt" image-rendering="optimizeSpeed" baseProfile="basic" version="1.1" style="background-color:#ffffff" x="0px" y="0px" width="1024px" height="1024px" viewBox="0 0 1024 1024" enable-background="new 0 0 1024 1024" xmlns="http://www.w3.org/2000/svg">
  <defs transform="matrix(1 0 0 1 0 0) "/>
  <g id="shadow">
    <g id="shape">
      <path id="path" fill="#000000" fill-opacity="0.09803921568627451" d="M969.65,351.3 Q961.05,330.45 950.25,310.45 C946.2,302.9 941.9,295.4 937.35,288.05 917.8,256.35 893.95,226.4 865.8,198.25 773.65,106.1 662.35,60 532,60 401.65,60 290.4,106.1 198.25,198.25 106.1,290.4 60,401.65 60,532 60,662.35 106.1,773.65 198.25,865.8 290.4,957.95 401.65,1004 532,1004 662.35,1004 773.65,957.95 865.8,865.8 916.55,815 953.35,758.4 976.15,696.05 994.7,645.2 1004,590.55 1004,532 1004,487.1 998.55,444.45 987.6,404.05 986.35,399.5 985.05,394.95 983.7,390.45 979.6,377.15 974.9,364.1 969.65,351.3z"/>
    </g>
  </g>
  <g id="Calque.__209">
    <g id="shape2">
      <path id="path1" fill="#589557" fill-opacity="1" d="M817.2,241.1 L969.25,393.15 Q939.3,271.95 844.95,177.6 C752.95,85.6 641.85,39.55 511.7,39.55 381.6,39.55 270.45,85.6 178.5,177.6 86.5,269.55 40.45,380.7 40.45,510.8 40.45,640.95 86.5,752.05 178.5,844.05 270.45,936.05 381.6,982.05 511.7,982.05 529.6,982.05 547.2,981.2 563.5,979.6 L477.25,893.35 498,864.7 489.1,809.1 305.35,622.55 817.2,241.1z"/>
      <path id="path2" fill="#4B834B" fill-opacity="1" d="M969.25,393.15 L817.2,241.1 305.35,622.55 489.1,809.1 498,864.7 477.25,893.35 563.5,979.6 C672.05,968.55 765.6,923.4 844.95,844.05 936.95,752.05 982.95,640.95 982.95,510.8 982.95,469.9 978.4,430.9 969.25,393.15z"/>
    </g>
  </g>
  <g id="bg.__20circle">
    <g id="group">
      <g id="drawingObject">
        <path id="path3" fill="#585F60" fill-opacity="1" d="M507.017,198.229 C484.598,197.637 462.376,208.896 441.635,199.415 415.265,184.797 353.439,172.551 252.601,206.032 106.134,254.624 229.49,416.103 258.132,532.151 280.255,621.828 306.427,649.779 366.97,614.421 425.043,580.644 426.722,615.507 439.364,665.68 452.005,715.95 480.351,882.862 480.351,882.862 L478.079,885.627 L480.351,882.862 C480.351,882.862 460.4,900.244 511.659,900.244 561.041,900.244 540.696,884.936 540.696,884.936 L543.066,887.306 L540.696,884.936 C540.696,884.936 562.029,715.95 574.67,665.68 587.312,615.507 589.09,580.644 647.064,614.421 707.706,649.779 733.878,621.828 755.902,532.151 784.544,416.103 907.999,254.624 761.532,206.032 Q693.484,183.514 639.065,184.699 597.386,185.588 572.498,199.415 C551.757,208.896 529.535,197.637 507.017,198.229z"/>
      </g>
      <g id="drawingObject1">
        <path id="path4" fill="#FFFFFF" fill-opacity="1" d="M439.265,605.236 C435.907,588.841 404.5,591.903 401.537,602.767 Q399.167,611.458 407.562,660.248 415.957,709.63 420.796,709.63 C427.611,709.63 442.623,621.73 439.265,605.236z"/>
      </g>
      <g id="drawingObject2">
        <path id="path5" fill="#FFFFFF" fill-opacity="1" d="M612.596,602.767 C609.633,591.903 578.127,588.841 574.769,605.236 571.411,621.73 586.522,709.63 593.238,709.63 Q598.077,709.63 606.571,660.248 614.966,611.458 612.596,602.767z"/>
      </g>
      <g id="drawingObject3">
        <path id="path6" fill="#FFFFFF" fill-opacity="1" d="M418.728,468.453 C431.468,468.453 453.69,466.774 464.357,466.082 L358.383,408.108 392.555,437.243 C388.703,440.206 386.333,444.453 387.518,451.366 389.099,460.848 399.666,468.453 418.728,468.453z"/>
      </g>
      <g id="drawingObject4">
        <path id="path7" fill="#FFFFFF" fill-opacity="1" d="M560.257,466.082 C570.923,466.774 593.145,468.453 605.886,468.453 624.947,468.453 635.515,460.848 637.095,451.366 638.28,444.453 635.91,440.206 632.058,437.243 L666.329,408.108 560.257,466.082z"/>
      </g>
    </g>
  </g>
</svg>