<?xml version="1.0" encoding="utf-8"?>
<!-- Generator: flash2svg, http://dissentgraphics.com/tools/flash2svg -->
<svg xmlns:xlink="http://www.w3.org/1999/xlink" id="EVERNOTE" image-rendering="optimizeSpeed" baseProfile="basic" version="1.1" style="background-color:#ffffff" x="0px" y="0px" width="1024px" height="1024px" viewBox="0 0 1024 1024" enable-background="new 0 0 1024 1024" xmlns="http://www.w3.org/2000/svg">
  <defs transform="matrix(1 0 0 1 0 0) "/>
  <g id="shadow">
    <g id="shape">
      <path id="path" fill="#000000" fill-opacity="0.09803921568627451" d="M969.65,351.3 Q961.05,330.45 950.25,310.45 C946.2,302.9 941.9,295.4 937.35,288.05 917.8,256.35 893.95,226.4 865.8,198.25 773.65,106.1 662.35,60 532,60 401.65,60 290.4,106.1 198.25,198.25 106.1,290.4 60,401.65 60,532 60,662.35 106.1,773.65 198.25,865.8 290.4,957.95 401.65,1004 532,1004 662.35,1004 773.65,957.95 865.8,865.8 916.55,815 953.35,758.4 976.15,696.05 994.7,645.2 1004,590.55 1004,532 1004,487.1 998.55,444.45 987.6,404.05 986.35,399.5 985.05,394.95 983.7,390.45 979.6,377.15 974.9,364.1 969.65,351.3z"/>
    </g>
  </g>
  <g id="Calque.__208">
    <g id="shape2">
      <path id="path1" fill="#589557" fill-opacity="1" d="M982.75,511.7 Q982.75,316.4 844.65,178.35 C752.65,86.35 641.5,40.3 511.35,40.3 381.2,40.3 270,86.35 178,178.35 86,270.35 39.95,381.55 39.95,511.7 39.95,641.85 86,753 178,845 270,937.05 381.2,983.1 511.35,983.1 641.5,983.1 752.65,937.05 844.65,845 936.7,753 982.75,641.85 982.75,511.7z"/>
    </g>
  </g>
  <g id="Calque.__209">
    <g id="shape4">
      <path id="path2" fill="#4D824D" fill-opacity="1" d="M758.8,759.15 Q861.25,656.65 861.25,511.7 C861.25,415.05 827.1,332.5 758.8,264.2 690.5,195.95 608,161.75 511.35,161.75 414.7,161.75 332.15,195.95 263.85,264.2 195.6,332.5 161.4,415.05 161.4,511.7 161.4,608.35 195.6,690.85 263.85,759.15 332.15,827.45 414.7,861.6 511.35,861.6 608,861.6 690.5,827.45 758.8,759.15z"/>
    </g>
  </g>
  <g id="Calque.__210">
    <g id="shape6">
      <path id="path3" fill="#000000" fill-opacity="0.2980392156862745" d="M763.35,549.75 C792,433.6 915.55,272.05 768.95,223.4 Q700.9,200.85 646.4,202.05 604.7,202.95 579.8,216.8 C559.05,226.25 536.85,215 514.3,215.6 491.85,215 469.65,226.25 448.85,216.8 422.5,202.15 360.6,189.9 259.7,223.4 113.15,272.05 236.6,433.6 265.25,549.75 287.4,639.45 313.6,667.45 374.15,632.05 388.2,623.85 399.55,619.4 408.25,618.7 408.65,618.6 409.05,618.6 409.55,618.6 409.25,619.2 408.95,619.8 408.75,620.4 405.8,631.25 421.3,727.3 428,727.3 431.95,727.3 438.7,697.75 443.15,668.8 444.15,673.45 445.3,678.3 446.6,683.35 459.25,733.65 487.6,900.65 487.6,900.65 L485.35,903.45 L487.6,900.65 C487.6,900.65 467.65,918.05 518.95,918.05 568.35,918.05 548,902.75 548,902.75 L550.35,905.1 L548,902.75 C548,902.75 569.35,733.65 582,683.35 583.2,678.5 584.25,673.85 585.45,668.8 590,697.75 596.7,727.3 600.55,727.3 607.3,727.3 622.9,631.25 619.95,620.4 619.75,619.8 619.55,619.2 619.25,618.7 619.65,618.7 620.05,618.7 620.45,618.7 629.05,619.4 640.4,623.85 654.45,632.05 715.1,667.45 741.3,639.45 763.35,549.75z"/>
    </g>
  </g>
  <g id="Calque.__211">
    <g id="group">
      <g id="drawingObject">
        <path id="path4" fill="#585F60" fill-opacity="1" d="M505.205,200.664 C482.769,200.071 460.531,211.339 439.775,201.85 413.385,187.222 351.513,174.967 250.6,208.473 104.024,257.1 227.472,418.699 256.135,534.833 278.275,624.577 304.466,652.548 365.054,617.165 423.17,583.362 424.85,618.252 437.501,668.461 450.153,718.769 478.519,885.804 478.519,885.804 L476.246,888.572 L478.519,885.804 C478.519,885.804 458.554,903.2 509.85,903.2 559.269,903.2 538.908,887.88 538.908,887.88 L541.281,890.252 L538.908,887.88 C538.908,887.88 560.257,718.769 572.908,668.461 585.56,618.252 587.339,583.362 645.356,617.165 706.042,652.548 732.234,624.577 754.275,534.833 782.938,418.699 906.484,257.1 759.909,208.473 Q691.81,185.938 637.35,187.124 595.641,188.013 570.734,201.85 C549.978,211.339 527.74,200.071 505.205,200.664z"/>
      </g>
      <g id="drawingObject1">
        <path id="path5" fill="#FFFFFF" fill-opacity="1" d="M437.403,607.973 C434.042,591.566 402.612,594.63 399.647,605.502 Q397.275,614.2 405.676,663.025 414.077,712.444 418.92,712.444 C425.74,712.444 440.763,624.479 437.403,607.973z"/>
      </g>
      <g id="drawingObject2">
        <path id="path6" fill="#FFFFFF" fill-opacity="1" d="M610.862,605.502 C607.897,594.63 576.368,591.566 573.007,607.973 569.647,624.479 584.769,712.444 591.49,712.444 Q596.333,712.444 604.833,663.025 613.234,614.2 610.862,605.502z"/>
      </g>
      <g id="drawingObject3">
        <path id="path7" fill="#FFFFFF" fill-opacity="1" d="M420.489,469.972 C433.239,469.972 455.478,468.292 466.152,467.6 L360.1,409.583 394.297,438.74 C390.443,441.705 388.071,445.955 389.257,452.874 390.838,462.362 401.414,469.972 420.489,469.972z"/>
      </g>
      <g id="drawingObject4">
        <path id="path8" fill="#FFFFFF" fill-opacity="1" d="M562.123,467.6 C572.797,468.292 595.036,469.972 607.786,469.972 626.861,469.972 637.437,462.362 639.018,452.874 640.204,445.955 637.832,441.705 633.978,438.74 L668.274,409.583 562.123,467.6z"/>
      </g>
    </g>
  </g>
</svg>