<?xml version="1.0" encoding="utf-8"?>
<!-- Generator: flash2svg, http://dissentgraphics.com/tools/flash2svg -->
<svg id="Card-SD" image-rendering="optimizeSpeed" baseProfile="basic" version="1.1" style="background-color:#FFFFFF" x="0px" y="0px" width="1024px" height="1024px" viewBox="0 0 1024 1024" enable-background="new 0 0 1024 1024" xmlns="http://www.w3.org/2000/svg" xmlns:xlink="http://www.w3.org/1999/xlink">
  <defs transform="matrix(1 0 0 1 0 0) "/>
  <g id="Calque.__203">
    <g id="shape">
      <path id="path" fill="#000000" fill-opacity="0.09803921568627451" d="M947.9,208.4 L796.3,56.85 150.85,56.85 C143.2,56.85 136.6,59.55 131.15,64.95 125.7,70.4 123,77 123,84.7 L123,974.2 C123,981.9 125.7,988.45 131.15,993.85 136.6,999.3 143.2,1002.05 150.85,1002.05 L920,1002.05 C927.7,1002.05 934.25,999.3 939.7,993.85 945.15,988.45 947.9,981.9 947.9,974.2 L947.9,208.4z"/>
    </g>
  </g>
  <g id="Calque.__204">
    <g id="shape2">
      <path id="path1" fill="#333333" fill-opacity="1" d="M924.9,145.4 L813.35,33.85 758.25,33.85 368.1,33.85 186.7,33.85 127.9,33.85 C120.2,33.85 113.6,36.55 108.15,42 102.75,47.45 100.05,54.05 100.05,61.7 L100.05,951.25 C100.05,952.3 100.1,953.3 100.2,954.25 100.85,960.65 103.5,966.2 108.15,970.9 113.6,976.35 120.2,979.1 127.9,979.1 L157.35,979.1 157.35,752.15 157.35,404.1 C157.35,390.75 164,384.1 177.35,384.1 L846.7,384.1 C860.05,384.1 866.7,390.75 866.7,404.1 L866.7,752.15 866.7,979.1 897.05,979.1 C904.75,979.1 911.3,976.35 916.7,970.9 921.45,966.2 924.1,960.65 924.75,954.25 924.85,953.3 924.9,952.3 924.9,951.25 L924.9,145.4z"/>
      <path id="path2" fill="#CCCCCC" fill-opacity="1" d="M866.7,752.15 L866.7,404.1 C866.7,390.75 860.05,384.1 846.7,384.1 L177.35,384.1 C164,384.1 157.35,390.75 157.35,404.1 L157.35,752.15 866.7,752.15z"/>
      <path id="path3" fill="#6499CE" fill-opacity="1" d="M866.7,752.15 L157.35,752.15 157.35,979.1 866.7,979.1 866.7,752.15z"/>
    </g>
  </g>
  <g id="Calque.__205">
    <g id="shape7">
      <path id="path4" fill="#F9D345" fill-opacity="1" d="M701.35,94.15 C690.2,94.15 684.6,99.7 684.6,110.85 L684.6,326.85 C684.6,338 690.2,343.6 701.35,343.6 L739.25,343.6 C750.4,343.6 755.95,338 755.95,326.85 L755.95,110.85 C755.95,99.7 750.4,94.15 739.25,94.15 L701.35,94.15z M651.55,326.85 L651.55,110.85 C651.55,99.7 646,94.15 634.85,94.15 L596.95,94.15 C585.8,94.15 580.2,99.7 580.2,110.85 L580.2,326.85 C580.2,338 585.8,343.6 596.95,343.6 L634.85,343.6 C646,343.6 651.55,338 651.55,326.85z M530.45,94.15 L492.55,94.15 C481.4,94.15 475.8,99.7 475.8,110.85 L475.8,326.85 C475.8,338 481.4,343.6 492.55,343.6 L530.45,343.6 C541.6,343.6 547.15,338 547.15,326.85 L547.15,110.85 C547.15,99.7 541.6,94.15 530.45,94.15z M388.15,94.15 C377,94.15 371.4,99.7 371.4,110.85 L371.4,326.85 C371.4,338 377,343.6 388.15,343.6 L426.05,343.6 C437.2,343.6 442.75,338 442.75,326.85 L442.75,110.85 C442.75,99.7 437.2,94.15 426.05,94.15 L388.15,94.15z M338.35,326.85 L338.35,110.85 C338.35,99.7 332.8,94.15 321.65,94.15 L283.75,94.15 C272.6,94.15 267,99.7 267,110.85 L267,326.85 C267,338 272.6,343.6 283.75,343.6 L321.65,343.6 C332.8,343.6 338.35,338 338.35,326.85z M217.25,94.15 L179.35,94.15 C168.2,94.15 162.6,99.7 162.6,110.85 L162.6,326.85 C162.6,338 168.2,343.6 179.35,343.6 L217.25,343.6 C228.4,343.6 233.95,338 233.95,326.85 L233.95,110.85 Q233.95,94.15 217.25,94.15z M789,326.85 C789,338 794.6,343.6 805.75,343.6 L843.65,343.6 C854.8,343.6 860.35,338 860.35,326.85 L860.35,210.85 C860.35,199.7 854.8,194.15 843.65,194.15 L805.75,194.15 C794.6,194.15 789,199.7 789,210.85 L789,326.85z"/>
    </g>
  </g>
</svg>