<?xml version="1.0" encoding="utf-8"?>
<!-- Generator: flash2svg, http://dissentgraphics.com/tools/flash2svg -->
<svg id="CD" image-rendering="optimizeSpeed" baseProfile="basic" version="1.1" style="background-color:#FFFFFF" x="0px" y="0px" width="1024px" height="1024px" viewBox="0 0 1024 1024" enable-background="new 0 0 1024 1024" xmlns="http://www.w3.org/2000/svg" xmlns:xlink="http://www.w3.org/1999/xlink">
  <defs transform="matrix(1 0 0 1 0 0) "/>
  <g id="shadow">
    <g id="shape">
      <path id="path" fill="#000000" fill-opacity="0.09803921568627451" d="M969.6,351.25 Q961,330.4 950.2,310.4 C946.15,302.85 941.85,295.35 937.3,288 917.75,256.3 893.9,226.35 865.75,198.2 773.6,106.05 662.3,59.95 531.95,59.95 401.6,59.95 290.35,106.05 198.2,198.2 106.05,290.35 59.95,401.6 59.95,531.95 59.95,662.3 106.05,773.6 198.2,865.75 290.35,957.9 401.6,1003.95 531.95,1003.95 662.3,1003.95 773.6,957.9 865.75,865.75 916.5,814.95 953.3,758.35 976.1,696 994.65,645.15 1003.95,590.5 1003.95,531.95 1003.95,487.05 998.5,444.4 987.55,404 986.3,399.45 985,394.9 983.65,390.4 979.55,377.1 974.85,364.05 969.6,351.25z"/>
    </g>
  </g>
  <g id="inner">
    <g id="shape2">
      <path id="path1" fill="#506C8F" fill-opacity="1" d="M966.05,378.4 C963.55,369.65 960.7,360.8 957.6,352.05 951.15,333.8 943.45,316 934.45,298.4 930.65,291 926.5,283.45 922.15,276 901.85,241.5 876.35,208.8 845.8,178.25 773.2,105.65 688.65,61.6 592.15,46.2 575.9,43.6 559.35,41.8 542.1,40.85 532.4,40.3 522.25,40 512,40 502.65,40 493.4,40.25 484.1,40.75 365.75,46.85 263.8,92.7 178.25,178.25 Q40,316.5 40,512 C40,642.35 86.1,753.65 178.25,845.8 263.8,931.3 365.75,977.15 484.1,983.3 484.25,983.3 484.35,983.3 484.5,983.3 493,983.75 501.1,984 509,984 510.2,984 511.1,984 512,984 522.3,984 532.5,983.7 542.1,983.2 544.6,983.05 546.85,982.9 549.05,982.75 569.25,981.3 588.95,978.7 607.75,975.05 615.7,973.5 623.55,971.75 631.15,969.9 711.95,949.6 783.3,908.3 845.8,845.8 894.4,797.2 930.2,743.3 953.15,684 971.6,636.35 981.8,585.2 983.7,530.5 983.9,524.45 984,518.25 984,512 984,511.35 984,510.65 984,510 984,509.65 984,509.35 984,509 983.8,468.35 979.05,429.5 969.7,392 968.6,387.65 967.35,383 966.05,378.4z M610.65,486.6 C612.6,494.65 613.6,503.15 613.65,512 613.6,539.85 603.85,563.65 584.4,583.4 L584.375,583.4 L584.375,583.425 L584.4,583.45 C584.15,583.65 583.95,583.85 583.7,584.05 564.6,603.1 541.65,613 514.9,613.65 514.85,613.65 514.85,613.65 514.8,613.65 L514.8,613.625 L512.2,613.625 L512.2,613.65 C512.1,613.65 512.05,613.65 512,613.65 L512,613.625 L510.1,613.625 L510.1,613.65 C500.4,613.5 491.2,612.15 482.45,609.6 466.65,604.95 452.5,596.35 440.05,583.9 427.6,571.45 419.1,557.4 414.55,541.65 411.8,532.35 410.4,522.45 410.4,512 410.4,503.05 411.4,494.55 413.4,486.5 417.65,469.1 426.55,453.6 440.05,440.05 440.1,439.95 440.2,439.85 440.35,439.8 440.45,439.65 440.55,439.55 440.7,439.5 460.4,420.1 484.15,410.4 512,410.4 540.15,410.35 564.1,420.25 583.9,440.05 597.45,453.6 606.35,469.1 610.65,486.6z"/>
      <path id="path2" fill="#FFFFFF" fill-opacity="1" d="M610.65,486.6 C606.35,469.1 597.45,453.6 583.9,440.05 564.1,420.25 540.15,410.35 512,410.4 484.15,410.4 460.4,420.1 440.7,439.5 440.55,439.55 440.45,439.65 440.35,439.8 440.2,439.85 440.1,439.95 440.05,440.05 426.55,453.6 417.65,469.1 413.4,486.5 411.4,494.55 410.4,503.05 410.4,512 410.4,522.45 411.8,532.35 414.55,541.65 419.1,557.4 427.6,571.45 440.05,583.9 452.5,596.35 466.65,604.95 482.45,609.6 491.2,612.15 500.4,613.5 510.1,613.65 L510.1,613.625 L512,613.625 L512,613.65 C512.05,613.65 512.1,613.65 512.2,613.65 L512.2,613.625 L514.8,613.625 L514.8,613.65 C514.85,613.65 514.85,613.65 514.9,613.65 541.65,613 564.6,603.1 583.7,584.05 583.95,583.85 584.15,583.65 584.4,583.45 L584.375,583.425 L584.375,583.4 L584.4,583.4 C603.85,563.65 613.6,539.85 613.65,512 613.6,503.15 612.6,494.65 610.65,486.6z M603.6,488.35 C605.45,495.85 606.4,503.75 606.4,512 606.4,537.85 597.35,559.95 579.25,578.3 L579.225,578.3 L579.225,578.275 L579.25,578.3 C579.15,578.35 579.1,578.45 579.05,578.5 578.9,578.55 578.8,578.65 578.75,578.75 561,596.55 539.7,605.75 514.8,606.4 L514.8,606.375 L512.2,606.375 L512.2,606.4 C512.1,606.4 512.05,606.4 512,606.4 L512,606.375 L510.15,606.375 L510.15,606.4 C501.15,606.25 492.6,605 484.5,602.65 469.85,598.3 456.75,590.3 445.2,578.75 433.65,567.2 425.75,554.15 421.5,539.6 418.9,530.95 417.6,521.75 417.65,512 417.6,503.65 418.55,495.75 420.45,488.25 424.4,472.2 432.6,457.9 445,445.35 445.05,445.3 445.15,445.2 445.25,445.15 445.35,445.05 445.45,444.95 445.6,444.85 463.95,426.7 486.05,417.6 512,417.65 538.15,417.65 560.4,426.85 578.75,445.2 591.3,457.75 599.6,472.15 603.6,488.35z"/>
      <path id="path5" fill="#506C8F" fill-opacity="1" d="M603.6,488.35 C599.6,472.15 591.3,457.75 578.75,445.2 560.4,426.85 538.15,417.65 512,417.65 486.05,417.6 463.95,426.7 445.6,444.85 445.45,444.95 445.35,445.05 445.25,445.15 445.15,445.2 445.05,445.3 445,445.35 432.6,457.9 424.4,472.2 420.45,488.25 418.55,495.75 417.6,503.65 417.65,512 417.6,521.75 418.9,530.95 421.5,539.6 425.75,554.15 433.65,567.2 445.2,578.75 456.75,590.3 469.85,598.3 484.5,602.65 492.6,605 501.15,606.25 510.15,606.4 L510.15,606.375 L512,606.375 L512,606.4 C512.05,606.4 512.1,606.4 512.2,606.4 L512.2,606.375 L514.8,606.375 L514.8,606.4 C539.7,605.75 561,596.55 578.75,578.75 578.8,578.65 578.9,578.55 579.05,578.5 579.1,578.45 579.15,578.35 579.25,578.3 L579.225,578.275 L579.225,578.3 L579.25,578.3 C597.35,559.95 606.4,537.85 606.4,512 606.4,503.75 605.45,495.85 603.6,488.35z M576.3,462.65 C587.55,477.05 593,493.4 593,512 593,516.85 592.65,521.55 591.95,525.8 589.2,542.5 581.65,556.85 569.25,569.25 553.45,585.1 534.35,593 512,593 489.65,593 470.55,585.1 454.7,569.25 438.9,553.45 431,534.35 431,512 431,493.3 436.5,476.9 447.7,462.6 449.7,460 452.1,457.3 454.7,454.7 467.2,442.25 481.7,434.75 498.15,432.1 502.65,431.35 507.25,431 512,431 534.35,431 553.45,438.9 569.25,454.7 571.9,457.35 574.35,460.1 576.3,462.65z"/>
      <path id="path8" fill="#FFFFFF" fill-opacity="1" d="M576.3,462.65 C574.35,460.1 571.9,457.35 569.25,454.7 553.45,438.9 534.35,431 512,431 507.25,431 502.65,431.35 498.15,432.1 481.7,434.75 467.2,442.25 454.7,454.7 452.1,457.3 449.7,460 447.7,462.6 436.5,476.9 431,493.3 431,512 431,534.35 438.9,553.45 454.7,569.25 470.55,585.1 489.65,593 512,593 534.35,593 553.45,585.1 569.25,569.25 581.65,556.85 589.2,542.5 591.95,525.8 592.65,521.55 593,516.85 593,512 593,493.4 587.55,477.05 576.3,462.65z M512,478.5 C521.25,478.5 529.15,481.75 535.7,488.3 542.25,494.85 545.5,502.75 545.5,512 545.5,521.25 542.25,529.15 535.7,535.7 532.6,538.8 529.2,541.2 525.45,542.85 521.9,544.4 518.05,545.25 513.9,545.5 L513.9,545.475 L512.125,545.5 L512.15,545.5 C512.1,545.5 512.05,545.5 512,545.5 L510.725,545.475 L510.75,545.5 C502,545.2 494.55,541.95 488.3,535.7 481.75,529.15 478.5,521.25 478.5,512 478.5,507.15 479.4,502.7 481.2,498.6 482.8,494.85 485.15,491.45 488.3,488.3 494.85,481.75 502.75,478.5 512,478.5z"/>
    </g>
  </g>
  <g id="Calque.__201">
    <g id="shape16">
      <path id="path14" fill="#F4D059" fill-opacity="1" d="M796.25,227.75 L796.25,227.775 L796.25,227.8 C837.2,268.7 867.5,314.05 887.1,363.75 904.95,409.1 913.95,458.1 914.1,510.75 L944.1,510.75 C943.95,454.3 934.35,401.75 915.2,352.9 894.2,299.5 861.6,250.65 817.45,206.55 L817.45,206.525 L817.45,206.55 C816.8,205.9 816.1,205.2 815.45,204.55 771.6,161.2 723.1,129.15 669.9,108.45 621.4,89.6 569,80.1 512.75,80 L512.75,110 C565.05,110.05 613.75,118.85 658.8,136.4 708.3,155.65 753.45,185.45 794.25,225.75 794.9,226.4 795.6,227.1 796.25,227.75z M747.55,272.5 C748.2,273.15 748.9,273.85 749.55,274.5 783.55,308.5 808.75,346.35 825,387.75 839.95,425.8 847.5,466.7 847.9,510.75 L877.95,510.75 C877.8,462.95 869.65,418.45 853.3,376.8 835.65,331.9 808.05,290.6 770.75,253.3 770.1,252.65 769.4,251.95 768.75,251.3 731.6,214.65 690.5,187.55 645.45,170.1 604.5,154.2 560.25,146.2 512.75,146.1 L512.75,176.1 C556.3,176.15 596.8,183.5 634.35,198.05 675.7,214.1 713.45,238.9 747.55,272.5z M749.55,274.5 C783.55,308.5 808.75,346.35 825,387.75 839.95,425.8 847.5,466.7 847.9,510.75 847.9,511.55 847.9,512.35 847.95,513.2 L847.925,513.175 L847.925,514.35 L847.95,514.35 C847.15,583.75 828.6,645.05 792.35,698.2 780.1,716.15 765.8,733.25 749.55,749.55 L749.525,749.55 L749.55,749.55 C744.15,754.95 738.65,760.15 733.1,765.1 716.35,779.95 698.8,792.85 680.4,803.75 L680.375,803.75 L680.375,803.725 L680.4,803.75 C630.4,833.2 574.25,847.95 512,847.9 511.55,847.9 511.15,847.9 510.75,847.9 418.55,847.6 339.8,814.8 274.5,749.55 L274.5,749.525 L274.5,749.55 C258.2,733.25 243.95,716.15 231.75,698.25 L231.75,698.225 L231.725,698.175 L231.75,698.2 C199.7,651.3 181.5,598.7 177.15,540.4 L177.15,540.375 L177.15,540.325 L177.15,540.35 C176.45,531.3 176.1,522.1 176.05,512.75 176.05,512.5 176.05,512.25 176.05,512 176.05,426.85 203.7,353.15 259,291 263.95,285.4 269.1,279.9 274.5,274.55 L274.5,274.525 L274.5,274.5 C340.1,208.9 419.25,176.1 512,176.1 512.25,176.1 512.5,176.1 512.75,176.1 556.3,176.15 596.8,183.5 634.35,198.05 675.7,214.1 713.45,238.9 747.55,272.5 748.2,273.15 748.9,273.85 749.55,274.5z M703.8,316.2 C704.45,316.85 705.15,317.55 705.8,318.2 733.45,345.85 753.95,376.45 767.3,410 779.65,441.05 785.9,474.65 786.05,510.75 L816.05,510.75 C815.9,470.9 809.05,433.8 795.4,399.2 780.7,362 757.85,327.85 727,297 726.35,296.35 725.65,295.65 725,295 694.15,264.65 660,242.2 622.55,227.75 588.65,214.65 552.05,208.05 512.75,207.95 L512.75,237.95 C548.1,238 581,243.95 611.5,255.7 645.25,268.75 676,288.9 703.8,316.2z M705.8,318.2 C733.45,345.85 753.95,376.45 767.3,410 779.65,441.05 785.9,474.65 786.05,510.75 786.05,511.15 786.05,511.55 786.05,512 786.05,531 784.4,549.3 781.05,566.9 774.05,603.5 759.75,637.1 738.15,667.65 L738.175,667.6 L738.2,667.6 C728.75,680.85 717.95,693.6 705.8,705.8 L705.775,705.8 L705.8,705.8 C700.4,711.2 694.9,716.35 689.25,721.25 639.1,764.45 580.05,786.05 512,786.05 511.55,786.05 511.15,786.05 510.75,786.05 435.6,785.75 371.4,759 318.2,705.8 278.1,665.7 253.05,619.4 243.05,566.9 L243.025,566.9 L243.025,566.85 L243.05,566.85 C239.7,549.5 238,531.45 237.95,512.75 237.95,512.5 237.95,512.25 237.95,512 237.9,477.3 243.5,444.95 254.75,414.95 265.55,386.1 281.55,359.35 302.8,334.8 307.65,329.15 312.8,323.6 318.2,318.2 371.7,264.7 436.3,237.95 512,237.95 512.25,237.95 512.5,237.95 512.75,237.95 548.1,238 581,243.95 611.5,255.7 645.25,268.75 676,288.9 703.8,316.2 704.45,316.85 705.15,317.55 705.8,318.2z"/>
      <path id="path28" fill="#000000" fill-opacity="0.2" d="M816.05,512 C816.05,511.6 816.05,511.2 816.05,510.75 L786.05,510.75 C786.05,511.15 786.05,511.55 786.05,512 786.05,531 784.4,549.3 781.05,566.9 774.05,603.5 759.75,637.1 738.15,667.65 L738.175,667.6 L738.2,667.6 C728.75,680.85 717.95,693.6 705.8,705.8 L705.775,705.8 L705.8,705.8 727,727 727.025,727 L727.05,727 C740.4,713.6 752.3,699.6 762.65,685 L762.625,685 L762.65,684.95 C786.7,650.85 802.65,613.4 810.5,572.55 814.2,553.1 816.05,532.95 816.05,512z M512,237.95 C512.25,237.95 512.5,237.95 512.75,237.95 L512.75,207.95 C512.5,207.95 512.25,207.95 512,207.95 428.05,207.95 356.35,237.65 297,297 L318.2,318.2 C371.7,264.7 436.3,237.95 512,237.95z M877.95,512 C877.95,511.6 877.95,511.2 877.95,510.75 L847.9,510.75 C847.9,511.55 847.9,512.35 847.95,513.2 L847.925,513.175 L847.925,514.35 L847.95,514.35 C847.15,583.75 828.6,645.05 792.35,698.2 780.1,716.15 765.8,733.25 749.55,749.55 L770.75,770.75 C788.4,753.1 803.9,734.55 817.15,715.1 857.65,655.75 877.9,588.05 877.95,512z M512.75,146.1 C512.5,146.1 512.25,146.1 512,146.1 411,146.1 324.75,181.85 253.3,253.3 L274.5,274.5 C340.1,208.9 419.25,176.1 512,176.1 512.25,176.1 512.5,176.1 512.75,176.1 L512.75,146.1z M944.1,512 C944.1,511.55 944.1,511.15 944.1,510.75 L914.1,510.75 C914.1,511.15 914.1,511.55 914.1,512 914.15,595.45 891.95,669.75 847.5,734.9 L847.525,734.875 L847.55,734.9 C832.85,756.35 815.75,776.8 796.3,796.3 L796.275,796.275 L817.475,817.475 L817.5,817.5 C838.3,796.65 856.55,774.8 872.3,751.85 L872.275,751.825 L872.3,751.8 C920.15,681.75 944.05,601.8 944.1,512z M512.75,80 C512.5,80 512.25,80 512,80 392.75,80 290.9,122.2 206.55,206.55 L227.75,227.75 C306.25,149.25 401,110 512,110 512.25,110 512.5,110 512.75,110 L512.75,80z"/>
      <path id="path29" fill="#000000" fill-opacity="0.047058823529411764" d="M710.5,742.5 C716.1,737.55 721.6,732.4 727,727 L705.8,705.8 C700.4,711.2 694.9,716.35 689.25,721.25 639.1,764.45 580.05,786.05 512,786.05 511.55,786.05 511.15,786.05 510.75,786.05 435.6,785.75 371.4,759 318.2,705.8 278.1,665.7 253.05,619.4 243.05,566.9 L243.025,566.9 L243.025,566.85 L243.05,566.85 C239.7,549.5 238,531.45 237.95,512.75 237.95,512.5 237.95,512.25 237.95,512 237.9,477.3 243.5,444.95 254.75,414.95 265.55,386.1 281.55,359.35 302.8,334.8 307.65,329.15 312.8,323.6 318.2,318.2 L297,297 C291.6,302.4 286.45,307.9 281.55,313.55 257.2,341.3 238.9,371.6 226.65,404.45 214.2,437.7 208,473.55 207.95,512 207.95,512.25 207.95,512.5 207.95,512.75 208,533.45 209.9,553.4 213.6,572.55 L213.575,572.55 L213.575,572.5 L213.6,572.5 C224.65,630.95 252.45,682.45 297,727 356.05,786.05 427.3,815.75 510.75,816.05 511.2,816.05 511.6,816.05 512,816.05 588.35,816.05 654.5,791.55 710.5,742.5z M749.55,749.55 C744.15,754.95 738.65,760.15 733.1,765.1 716.35,779.95 698.8,792.85 680.4,803.75 L680.375,803.725 L680.375,803.75 L680.4,803.75 C630.4,833.2 574.25,847.95 512,847.9 511.55,847.9 511.15,847.9 510.75,847.9 418.55,847.6 339.8,814.8 274.5,749.55 L274.5,749.525 L274.5,749.55 C258.2,733.25 243.95,716.15 231.75,698.25 L231.725,698.175 L231.75,698.225 L231.75,698.2 C199.7,651.3 181.5,598.7 177.15,540.4 L177.15,540.325 L177.15,540.375 L177.15,540.35 C176.45,531.3 176.1,522.1 176.05,512.75 176.05,512.5 176.05,512.25 176.05,512 176.05,426.85 203.7,353.15 259,291 263.95,285.4 269.1,279.9 274.5,274.55 L274.5,274.525 L274.5,274.5 253.3,253.3 C247.9,258.65 242.7,264.15 237.7,269.7 176.6,337.8 146.05,418.55 146.05,512 146.05,512.25 146.05,512.5 146.05,512.75 146.1,522.9 146.5,532.85 147.25,542.7 152.05,606.4 171.95,663.9 207,715.15 L206.975,715.125 L206.95,715.075 L206.95,715.1 C220.15,734.55 235.6,753.15 253.3,770.8 L253.3,770.775 L253.3,770.75 C324.45,841.9 410.3,877.6 510.75,877.9 511.2,877.9 511.6,877.9 512,877.9 579.85,877.85 641.1,861.75 695.65,829.6 716.15,817.45 735.7,803.05 754.35,786.35 759.9,781.35 765.4,776.15 770.8,770.8 L770.775,770.775 L770.775,770.75 770.75,770.75 749.55,749.55z M227.75,227.775 L227.75,227.75 206.55,206.55 C201.15,211.9 195.95,217.35 190.9,222.9 117.05,303.8 80.05,400.2 79.95,512.1 L79.95,512.75 C80,524.8 80.45,536.65 81.3,548.25 86.95,623.4 110.5,691.25 151.85,751.8 L151.825,751.8 L151.8,751.8 C167.45,774.75 185.7,796.65 206.55,817.5 290.6,901.55 392,943.7 510.75,944 511.15,944 511.55,944 512,944 592.15,943.95 664.4,924.95 728.75,886.95 754.1,872 778.25,854.05 801.15,833.15 806.65,828.1 812.1,822.9 817.5,817.5 L817.475,817.5 L817.45,817.5 817.475,817.475 796.275,796.275 796.25,796.3 L796.225,796.3 L796.25,796.3 C790.85,801.65 785.4,806.85 779.9,811.9 758.85,830.95 736.75,847.35 713.5,861.1 653.7,896.4 586.55,914.05 512,914 511.6,914 511.2,914 510.75,914 400.3,913.7 305.95,874.45 227.75,796.3 208.3,776.8 191.25,756.35 176.6,734.9 L176.575,734.9 L176.6,734.9 C138.2,678.7 116.4,615.75 111.2,546 110.35,535.1 109.95,524 109.95,512.75 109.95,512.5 109.95,512.25 109.95,512 109.95,408.55 144,319.3 212.15,244.15 217.15,238.6 222.35,233.15 227.75,227.8z"/>
    </g>
  </g>
</svg>