<?xml version="1.0" encoding="utf-8"?>
<!-- Generator: flash2svg, http://dissentgraphics.com/tools/flash2svg -->
<svg xmlns:xlink="http://www.w3.org/1999/xlink" id="DRIVE-TimeMachine" image-rendering="optimizeSpeed" baseProfile="basic" version="1.1" style="background-color:#ffffff" x="0px" y="0px" width="1024px" height="1024px" viewBox="0 0 1024 1024" enable-background="new 0 0 1024 1024" xmlns="http://www.w3.org/2000/svg">
  <defs transform="matrix(1 0 0 1 0 0) "/>
  <g id="Calque.__206">
    <g id="shape">
      <path id="path" fill="#ADADAD" fill-opacity="1" d="M908.75,70.45 L908.75,61.75 C908.75,54.1 906.05,47.5 900.65,42.05 895.2,36.6 888.65,33.9 880.9,33.9 L161.1,33.9 142.8,33.9 C135.05,33.9 128.5,36.6 123.05,42.05 117.65,47.5 114.95,54.1 114.95,61.75 L99.45,800.25 121.1,799.2 121.1,808.25 254.95,808.25 259.45,932.85 826.1,932.85 826.1,810.25 880.2,810.25 898.7,810.25 898.7,799.7 924.3,800.25 924.65,752.15 924.2,733.1 908.75,76.2 908.75,70.45z"/>
    </g>
  </g>
  <g id="Calque.__207">
    <g id="shape2">
      <path id="path1" fill="#000000" fill-opacity="0.2980392156862745" d="M916.35,715.45 Q908.45,707.55 897.35,707.3 L128.3,707.3 C120.95,707.45 114.6,710.2 109.25,715.45 104,720.75 101.3,727.1 101.15,734.45 L99.65,800.25 924.5,800.25 924.45,735.15 C924.45,727.5 921.75,720.9 916.35,715.45z"/>
    </g>
  </g>
  <g id="Calque.__208">
    <g id="Symbole.__203_1" overflow="visible">
      <g id="Calque.__217">
        <g id="shape32">
          <path id="path22" fill="#74888C" fill-opacity="1" d="M826.709,126.158 Q826.709,103.051 803.603,103.051 L220.397,103.051 C204.974,103.051 197.291,110.734 197.291,126.158 L190.359,602.9 C190.359,618.324 198.042,626.007 213.466,626.007 L810.534,626.007 C825.958,626.007 833.641,618.324 833.641,602.9 L826.709,126.158z"/>
        </g>
      </g>
    </g>
  </g>
  <g id="Calque.__209">
    <g id="shape4">
      <path id="path2" fill="#D0D0D0" fill-opacity="1" d="M916.35,784.2 Q908.45,776.3 897.35,776.05 L353.45,776.05 556.55,979.15 876.65,979.15 C878.25,979.15 879.7,979.05 881.05,978.85 886.9,978 891.95,975.35 896.3,970.95 898.3,969 899.95,966.8 901.3,964.35 903,961.2 904,957.85 904.35,954.3 904.45,953.35 904.5,952.35 904.5,951.3 L924.5,812.6 924.45,803.9 C924.45,796.25 921.75,789.65 916.35,784.2z"/>
      <path id="path3" fill="#E3E3E3" fill-opacity="1" d="M126.8,776.05 C119.45,776.2 113.1,778.95 107.75,784.2 102.5,789.5 99.8,795.85 99.65,803.2 L119.65,952.1 119.8,954.3 C120.45,960.7 123.1,966.25 127.75,970.95 132.3,975.5 137.7,978.2 143.9,978.95 144.95,979.1 146.15,979.15 147.5,979.15 L556.55,979.15 353.45,776.05 126.8,776.05z"/>
    </g>
  </g>
  <g id="Calque.__210">
    <g id="shape8">
      <path id="path4" fill="#B5B5B5" fill-opacity="1" d="M880.65,875.7 C880.65,863 876.15,852.2 867.2,843.3 858.3,834.35 847.5,829.85 834.8,829.85 Q815.85,829.85 802.4,843.3 C793.5,852.2 788.95,863 788.95,875.7 788.95,888.35 793.5,899.15 802.4,908.1 811.35,917 822.15,921.55 834.8,921.55 847.5,921.55 858.3,917 867.2,908.1 876.15,899.15 880.65,888.35 880.65,875.7z"/>
    </g>
  </g>
  <g id="Calque.__211">
    <g id="Symbole.__205_1" overflow="visible">
      <g id="Calque.__218">
        <g id="shape33">
          <path id="path23" fill="#F9D346" fill-opacity="1" d="M856.6,853.8 Q847.55,844.75 834.75,844.75 C826.25,844.75 818.9,847.75 812.9,853.8 806.9,859.8 803.85,867.1 803.85,875.65 803.85,884.2 806.9,891.5 812.9,897.5 818.9,903.5 826.25,906.55 834.75,906.55 843.3,906.55 850.6,903.5 856.6,897.5 862.65,891.5 865.7,884.2 865.7,875.65 865.7,867.1 862.65,859.8 856.6,853.8z"/>
        </g>
      </g>
      <g id="Calque.__219">
        <g id="shape34">
          <path id="path24" fill="#FFFFCC" fill-opacity="1" d="M837.4,875.25 Q841.35,871.3 841.35,865.75 C841.35,862.05 840.05,858.9 837.4,856.25 834.75,853.6 831.6,852.3 827.9,852.3 824.2,852.3 821.05,853.6 818.4,856.25 815.75,858.9 814.45,862.05 814.45,865.75 814.45,869.45 815.75,872.6 818.4,875.25 821.05,877.9 824.2,879.2 827.9,879.2 831.6,879.2 834.75,877.9 837.4,875.25z"/>
        </g>
      </g>
    </g>
  </g>
  <g id="Calque.__212">
    <g id="shape10">
      <path id="path5" fill="#000000" fill-opacity="0.09803921568627451" d="M846.85,68.05 C842.05,72.9 839.65,78.7 839.65,85.55 839.65,92.4 842.05,98.2 846.85,103 851.7,107.85 857.5,110.25 864.35,110.25 871.2,110.25 877,107.85 881.8,103 886.65,98.2 889.05,92.4 889.05,85.55 889.05,78.7 886.65,72.9 881.8,68.05 877,63.25 871.2,60.85 864.35,60.85 857.5,60.85 851.7,63.25 846.85,68.05z M893.8,676.3 C898.65,671.5 901.05,665.7 901.05,658.85 901.05,652 898.65,646.2 893.8,641.35 889,636.55 883.2,634.15 876.35,634.15 869.5,634.15 863.7,636.55 858.85,641.35 854.05,646.2 851.65,652 851.65,658.85 851.65,665.7 854.05,671.5 858.85,676.3 863.7,681.15 869.5,683.55 876.35,683.55 883.2,683.55 889,681.15 893.8,676.3z M195.05,85.55 C195.05,78.7 192.65,72.9 187.8,68.05 183,63.25 177.2,60.85 170.35,60.85 163.5,60.85 157.7,63.25 152.85,68.05 148.05,72.9 145.65,78.7 145.65,85.55 145.65,92.4 148.05,98.2 152.85,103 157.7,107.85 163.5,110.25 170.35,110.25 177.2,110.25 183,107.85 187.8,103 192.65,98.2 195.05,92.4 195.05,85.55z M139.65,658.85 C139.65,665.7 142.05,671.5 146.85,676.3 151.7,681.15 157.5,683.55 164.35,683.55 171.2,683.55 177,681.15 181.8,676.3 186.65,671.5 189.05,665.7 189.05,658.85 Q189.05,648.6 181.8,641.35 C177,636.55 171.2,634.15 164.35,634.15 157.5,634.15 151.7,636.55 146.85,641.35 142.05,646.2 139.65,652 139.65,658.85z"/>
    </g>
  </g>
  <g id="Calque.__213">
    <g id="shape18">
      <path id="path12" fill="#E3E3E3" fill-opacity="1" d="M831.65,77.55 C831.65,84.4 834.05,90.2 838.85,95 843.7,99.85 849.5,102.25 856.35,102.25 863.2,102.25 869,99.85 873.8,95 878.65,90.2 881.05,84.4 881.05,77.55 881.05,70.7 878.65,64.9 873.8,60.05 869,55.25 863.2,52.85 856.35,52.85 849.5,52.85 843.7,55.25 838.85,60.05 834.05,64.9 831.65,70.7 831.65,77.55z M868.35,626.15 C861.5,626.15 855.7,628.55 850.85,633.35 846.05,638.2 843.65,644 843.65,650.85 843.65,657.7 846.05,663.5 850.85,668.3 855.7,673.15 861.5,675.55 868.35,675.55 875.2,675.55 881,673.15 885.8,668.3 890.65,663.5 893.05,657.7 893.05,650.85 893.05,644 890.65,638.2 885.8,633.35 881,628.55 875.2,626.15 868.35,626.15z M179.8,60.05 C175,55.25 169.2,52.85 162.35,52.85 155.5,52.85 149.7,55.25 144.85,60.05 140.05,64.9 137.65,70.7 137.65,77.55 137.65,84.4 140.05,90.2 144.85,95 149.7,99.85 155.5,102.25 162.35,102.25 169.2,102.25 175,99.85 179.8,95 184.65,90.2 187.05,84.4 187.05,77.55 187.05,70.7 184.65,64.9 179.8,60.05z M156.35,626.15 C149.5,626.15 143.7,628.55 138.85,633.35 134.05,638.2 131.65,644 131.65,650.85 131.65,657.7 134.05,663.5 138.85,668.3 143.7,673.15 149.5,675.55 156.35,675.55 163.2,675.55 169,673.15 173.8,668.3 178.65,663.5 181.05,657.7 181.05,650.85 Q181.05,640.6 173.8,633.35 C169,628.55 163.2,626.15 156.35,626.15z"/>
    </g>
  </g>
</svg>