<?xml version="1.0" encoding="utf-8"?>
<!-- Generator: flash2svg, http://dissentgraphics.com/tools/flash2svg -->
<svg xmlns:xlink="http://www.w3.org/1999/xlink" id="DRIVE-Internal-alt" image-rendering="optimizeSpeed" baseProfile="basic" version="1.1" style="background-color:#ffffff" x="0px" y="0px" width="1024px" height="1024px" viewBox="0 0 1024 1024" enable-background="new 0 0 1024 1024" xmlns="http://www.w3.org/2000/svg">
  <defs transform="matrix(1 0 0 1 0 0) "/>
  <g id="Calque.__206">
    <g id="shape">
      <path id="path" fill="#ADADAD" fill-opacity="1" d="M908.75,70.45 L908.75,61.75 C908.75,54.1 906.05,47.5 900.65,42.05 895.2,36.6 888.65,33.9 880.9,33.9 L161.1,33.9 142.8,33.9 C135.05,33.9 128.5,36.6 123.05,42.05 117.65,47.5 114.95,54.1 114.95,61.75 L99.45,800.25 121.1,799.2 121.1,808.25 254.95,808.25 259.45,932.85 826.1,932.85 826.1,810.25 880.2,810.25 898.7,810.25 898.7,799.7 924.3,800.25 924.65,752.15 924.2,733.1 908.75,76.2 908.75,70.45z"/>
    </g>
  </g>
  <g id="Calque.__207">
    <g id="shape2">
      <path id="path1" fill="#000000" fill-opacity="0.2980392156862745" d="M916.35,715.45 Q908.45,707.55 897.35,707.3 L128.3,707.3 C120.95,707.45 114.6,710.2 109.25,715.45 104,720.75 101.3,727.1 101.15,734.45 L99.65,800.25 924.5,800.25 924.45,735.15 C924.45,727.5 921.75,720.9 916.35,715.45z"/>
    </g>
  </g>
  <g id="Calque.__208">
    <g id="Symbole.__203_1" overflow="visible">
      <g id="Calque.__221">
        <g id="shape69">
          <path id="path55" fill="#4B6B91" fill-opacity="1" d="M826.709,126.158 Q826.709,103.051 803.603,103.051 L220.397,103.051 C204.974,103.051 197.291,110.734 197.291,126.158 L190.359,602.9 C190.359,618.324 198.042,626.007 213.466,626.007 L810.534,626.007 C825.958,626.007 833.641,618.324 833.641,602.9 L826.709,126.158z"/>
        </g>
      </g>
    </g>
  </g>
  <g id="Calque.__209">
    <g id="shape4">
      <path id="path2" fill="#D0D0D0" fill-opacity="1" d="M916.35,784.2 Q908.45,776.3 897.35,776.05 L353.45,776.05 556.55,979.15 876.65,979.15 C878.25,979.15 879.7,979.05 881.05,978.85 886.9,978 891.95,975.35 896.3,970.95 898.3,969 899.95,966.8 901.3,964.35 903,961.2 904,957.85 904.35,954.3 904.45,953.35 904.5,952.35 904.5,951.3 L924.5,812.6 924.45,803.9 C924.45,796.25 921.75,789.65 916.35,784.2z"/>
      <path id="path3" fill="#E3E3E3" fill-opacity="1" d="M126.8,776.05 C119.45,776.2 113.1,778.95 107.75,784.2 102.5,789.5 99.8,795.85 99.65,803.2 L119.65,952.1 119.8,954.3 C120.45,960.7 123.1,966.25 127.75,970.95 132.3,975.5 137.7,978.2 143.9,978.95 144.95,979.1 146.15,979.15 147.5,979.15 L556.55,979.15 353.45,776.05 126.8,776.05z"/>
    </g>
  </g>
  <g id="Calque.__210">
    <g id="shape8">
      <path id="path4" fill="#B5B5B5" fill-opacity="1" d="M880.65,875.7 C880.65,863 876.15,852.2 867.2,843.3 858.3,834.35 847.5,829.85 834.8,829.85 Q815.85,829.85 802.4,843.3 C793.5,852.2 788.95,863 788.95,875.7 788.95,888.35 793.5,899.15 802.4,908.1 811.35,917 822.15,921.55 834.8,921.55 847.5,921.55 858.3,917 867.2,908.1 876.15,899.15 880.65,888.35 880.65,875.7z"/>
    </g>
  </g>
  <g id="Calque.__211">
    <g id="Symbole.__205_1" overflow="visible">
      <g id="Calque.__222">
        <g id="shape70">
          <path id="path56" fill="#F9D346" fill-opacity="1" d="M856.6,853.8 Q847.55,844.75 834.75,844.75 C826.25,844.75 818.9,847.75 812.9,853.8 806.9,859.8 803.85,867.1 803.85,875.65 803.85,884.2 806.9,891.5 812.9,897.5 818.9,903.5 826.25,906.55 834.75,906.55 843.3,906.55 850.6,903.5 856.6,897.5 862.65,891.5 865.7,884.2 865.7,875.65 865.7,867.1 862.65,859.8 856.6,853.8z"/>
        </g>
      </g>
      <g id="Calque.__223">
        <g id="shape71">
          <path id="path57" fill="#FFFFCC" fill-opacity="1" d="M837.4,875.25 Q841.35,871.3 841.35,865.75 C841.35,862.05 840.05,858.9 837.4,856.25 834.75,853.6 831.6,852.3 827.9,852.3 824.2,852.3 821.05,853.6 818.4,856.25 815.75,858.9 814.45,862.05 814.45,865.75 814.45,869.45 815.75,872.6 818.4,875.25 821.05,877.9 824.2,879.2 827.9,879.2 831.6,879.2 834.75,877.9 837.4,875.25z"/>
        </g>
      </g>
    </g>
  </g>
  <g id="Calque.__212">
    <g id="shape10">
      <path id="path5" fill="#000000" fill-opacity="0.09803921568627451" d="M846.85,68.05 C842.05,72.9 839.65,78.7 839.65,85.55 839.65,92.4 842.05,98.2 846.85,103 851.7,107.85 857.5,110.25 864.35,110.25 871.2,110.25 877,107.85 881.8,103 886.65,98.2 889.05,92.4 889.05,85.55 889.05,78.7 886.65,72.9 881.8,68.05 877,63.25 871.2,60.85 864.35,60.85 857.5,60.85 851.7,63.25 846.85,68.05z M893.8,676.3 C898.65,671.5 901.05,665.7 901.05,658.85 901.05,652 898.65,646.2 893.8,641.35 889,636.55 883.2,634.15 876.35,634.15 869.5,634.15 863.7,636.55 858.85,641.35 854.05,646.2 851.65,652 851.65,658.85 851.65,665.7 854.05,671.5 858.85,676.3 863.7,681.15 869.5,683.55 876.35,683.55 883.2,683.55 889,681.15 893.8,676.3z M195.05,85.55 C195.05,78.7 192.65,72.9 187.8,68.05 183,63.25 177.2,60.85 170.35,60.85 163.5,60.85 157.7,63.25 152.85,68.05 148.05,72.9 145.65,78.7 145.65,85.55 145.65,92.4 148.05,98.2 152.85,103 157.7,107.85 163.5,110.25 170.35,110.25 177.2,110.25 183,107.85 187.8,103 192.65,98.2 195.05,92.4 195.05,85.55z M139.65,658.85 C139.65,665.7 142.05,671.5 146.85,676.3 151.7,681.15 157.5,683.55 164.35,683.55 171.2,683.55 177,681.15 181.8,676.3 186.65,671.5 189.05,665.7 189.05,658.85 Q189.05,648.6 181.8,641.35 C177,636.55 171.2,634.15 164.35,634.15 157.5,634.15 151.7,636.55 146.85,641.35 142.05,646.2 139.65,652 139.65,658.85z"/>
    </g>
  </g>
  <g id="Calque.__213">
    <g id="shape18">
      <path id="path12" fill="#E3E3E3" fill-opacity="1" d="M831.65,77.55 C831.65,84.4 834.05,90.2 838.85,95 843.7,99.85 849.5,102.25 856.35,102.25 863.2,102.25 869,99.85 873.8,95 878.65,90.2 881.05,84.4 881.05,77.55 881.05,70.7 878.65,64.9 873.8,60.05 869,55.25 863.2,52.85 856.35,52.85 849.5,52.85 843.7,55.25 838.85,60.05 834.05,64.9 831.65,70.7 831.65,77.55z M868.35,626.15 C861.5,626.15 855.7,628.55 850.85,633.35 846.05,638.2 843.65,644 843.65,650.85 843.65,657.7 846.05,663.5 850.85,668.3 855.7,673.15 861.5,675.55 868.35,675.55 875.2,675.55 881,673.15 885.8,668.3 890.65,663.5 893.05,657.7 893.05,650.85 893.05,644 890.65,638.2 885.8,633.35 881,628.55 875.2,626.15 868.35,626.15z M179.8,60.05 C175,55.25 169.2,52.85 162.35,52.85 155.5,52.85 149.7,55.25 144.85,60.05 140.05,64.9 137.65,70.7 137.65,77.55 137.65,84.4 140.05,90.2 144.85,95 149.7,99.85 155.5,102.25 162.35,102.25 169.2,102.25 175,99.85 179.8,95 184.65,90.2 187.05,84.4 187.05,77.55 187.05,70.7 184.65,64.9 179.8,60.05z M156.35,626.15 C149.5,626.15 143.7,628.55 138.85,633.35 134.05,638.2 131.65,644 131.65,650.85 131.65,657.7 134.05,663.5 138.85,668.3 143.7,673.15 149.5,675.55 156.35,675.55 163.2,675.55 169,673.15 173.8,668.3 178.65,663.5 181.05,657.7 181.05,650.85 Q181.05,640.6 173.8,633.35 C169,628.55 163.2,626.15 156.35,626.15z"/>
    </g>
  </g>
  <g id="Calque.__214">
    <g id="shape26">
      <path id="path19" fill="#F2C500" fill-opacity="1" d="M495.05,574.45 C495.05,579.2 496.75,583.2 500.15,586.55 503.45,589.9 507.5,591.6 512.25,591.6 516.9,591.6 520.95,589.9 524.35,586.55 527.7,583.2 529.35,579.2 529.35,574.45 529.35,569.7 527.7,565.7 524.35,562.35 520.95,559 516.9,557.35 512.25,557.35 507.5,557.35 503.45,559 500.15,562.35 496.75,565.7 495.05,569.7 495.05,574.45z M591.8,588.25 C595.15,584.95 596.85,580.9 596.85,576.15 596.85,571.4 595.15,567.4 591.8,564.05 588.45,560.7 584.45,559.05 579.7,559.05 575,559.05 570.95,560.7 567.6,564.05 564.25,567.4 562.6,571.4 562.6,576.15 562.6,580.9 564.25,584.95 567.6,588.25 570.95,591.6 575,593.25 579.7,593.25 584.45,593.25 588.45,591.6 591.8,588.25z M427.55,572.15 C427.55,576.9 429.25,580.9 432.6,584.25 435.95,587.65 439.95,589.35 444.7,589.35 Q451.8,589.35 456.8,584.25 C460.15,580.9 461.8,576.9 461.8,572.15 461.8,567.45 460.15,563.4 456.8,560.05 453.45,556.7 449.45,555.05 444.7,555.05 439.95,555.05 435.95,556.7 432.6,560.05 429.25,563.4 427.55,567.45 427.55,572.15z"/>
    </g>
  </g>
  <g id="Calque.__215">
    <g id="shape32">
      <path id="path24" fill="#000000" fill-opacity="0.2" d="M700.4,241.65 C697.65,238.9 694.35,237.55 690.5,237.55 L660.65,237.55 C660.2,237.55 659.8,237.55 659.4,237.55 L659.4,217.8 C659.4,206.15 653.55,200.3 641.85,200.3 L621.15,200.3 C621.5,199.05 621.65,197.7 621.65,196.25 L621.65,166.45 C621.65,162.55 620.3,159.25 617.55,156.55 614.8,153.8 611.5,152.45 607.65,152.45 603.8,152.45 600.5,153.8 597.75,156.55 595,159.25 593.6,162.55 593.6,166.45 L593.6,196.25 C593.6,197.7 593.8,199.05 594.15,200.3 L525.05,200.3 C525.45,199.05 525.65,197.7 525.65,196.25 L525.65,166.45 C525.65,162.55 524.25,159.25 521.45,156.55 518.75,153.8 515.45,152.45 511.6,152.45 507.7,152.45 504.4,153.8 501.7,156.55 498.95,159.25 497.6,162.55 497.6,166.45 L497.6,196.25 C497.6,197.7 497.8,199.05 498.15,200.3 L429.05,200.3 C429.4,199.05 429.55,197.7 429.55,196.25 L429.55,166.45 C429.55,162.55 428.2,159.25 425.45,156.55 422.75,153.8 419.45,152.45 415.6,152.45 411.7,152.45 408.4,153.8 405.7,156.55 402.9,159.25 401.5,162.55 401.5,166.45 L401.5,196.25 C401.5,197.7 401.7,199.05 402.1,200.3 L382.2,200.3 C370.55,200.3 364.7,206.15 364.7,217.8 L364.7,238.4 C364.55,238.4 364.4,238.4 364.25,238.4 L334.4,238.4 C330.55,238.4 327.25,239.75 324.5,242.45 321.7,245.25 320.3,248.55 320.3,252.35 320.3,256.2 321.7,259.55 324.5,262.35 327.25,265.1 330.55,266.45 334.4,266.45 L364.25,266.45 C364.4,266.45 364.55,266.45 364.7,266.45 L364.7,334.4 C364.55,334.4 364.4,334.4 364.25,334.4 L334.4,334.4 C330.55,334.4 327.25,335.8 324.5,338.55 321.7,341.3 320.3,344.6 320.3,348.45 320.3,352.3 321.7,355.6 324.5,358.35 327.25,361.1 330.55,362.45 334.4,362.45 L364.25,362.45 C364.4,362.45 364.55,362.45 364.7,362.45 L364.7,430.45 C364.55,430.45 364.4,430.45 364.25,430.45 L334.4,430.45 C330.55,430.45 327.25,431.8 324.5,434.55 321.7,437.3 320.3,440.6 320.3,444.45 320.3,448.3 321.7,451.65 324.5,454.4 327.25,457.15 330.55,458.5 334.4,458.5 L364.25,458.5 C364.4,458.5 364.55,458.5 364.7,458.5 L364.7,477.4 C364.7,489.1 370.55,494.95 382.2,494.95 L402.35,494.95 402.35,522.55 C402.35,526.4 403.75,529.7 406.5,532.4 409.25,535.2 412.55,536.6 416.4,536.6 420.25,536.6 423.55,535.2 426.3,532.4 429.05,529.7 430.45,526.4 430.45,522.55 L430.45,494.95 498.4,494.95 498.4,522.55 C498.4,526.4 499.75,529.7 502.5,532.4 505.25,535.2 508.55,536.6 512.4,536.6 516.25,536.6 519.6,535.2 522.35,532.4 525.1,529.7 526.45,526.4 526.45,522.55 L526.45,494.95 594.4,494.95 594.4,522.55 C594.4,526.4 595.8,529.7 598.6,532.4 601.3,535.2 604.6,536.6 608.45,536.6 612.35,536.6 615.65,535.2 618.35,532.4 621.15,529.7 622.55,526.4 622.55,522.55 L622.55,494.95 641.85,494.95 C653.55,494.95 659.4,489.1 659.4,477.4 L659.4,457.6 C659.8,457.65 660.2,457.7 660.65,457.7 L690.5,457.7 C694.35,457.7 697.65,456.3 700.4,453.5 703.1,450.8 704.45,447.5 704.45,443.6 704.45,439.75 703.1,436.45 700.4,433.75 697.65,431 694.35,429.65 690.5,429.65 L660.65,429.65 C660.2,429.65 659.8,429.65 659.4,429.65 L659.4,361.6 C659.8,361.6 660.2,361.6 660.65,361.6 L690.5,361.6 C694.35,361.6 697.65,360.25 700.4,357.5 703.1,354.75 704.45,351.45 704.45,347.65 704.45,343.75 703.1,340.4 700.4,337.65 697.65,334.9 694.35,333.55 690.5,333.55 L660.65,333.55 C660.2,333.55 659.8,333.6 659.4,333.65 L659.4,265.55 C659.8,265.6 660.2,265.6 660.65,265.6 L690.5,265.6 C694.35,265.6 697.65,264.2 700.4,261.45 703.1,258.7 704.45,255.4 704.45,251.55 704.45,247.7 703.1,244.4 700.4,241.65z"/>
    </g>
  </g>
  <g id="Calque.__216">
    <g id="shape34">
      <path id="path25" fill="#6590C4" fill-opacity="1" d="M704.7,234.15 C704.7,230.3 703.3,226.65 700.55,223.15 697.8,219.7 694.5,217.5 690.65,216.5 L660.8,208.8 C656.95,207.8 653.65,208.25 650.9,210.3 648.15,212.35 646.8,215.3 646.8,219.15 646.8,223 648.15,226.65 650.9,230.1 653.65,233.55 656.95,235.85 660.8,236.85 L690.65,244.55 C694.5,245.55 697.8,245 700.55,242.95 703.3,240.95 704.7,238 704.7,234.15z M704.7,330.2 C704.7,326.35 703.3,322.7 700.55,319.2 697.8,315.75 694.5,313.5 690.65,312.5 L660.8,304.8 C656.95,303.8 653.65,304.3 650.9,306.35 648.15,308.4 646.8,311.35 646.8,315.2 646.8,319.05 648.15,322.7 650.9,326.15 653.65,329.6 656.95,331.85 660.8,332.85 L690.65,340.55 C694.5,341.55 697.8,341.05 700.55,339 703.3,337 704.7,334.05 704.7,330.2z M704.7,426.2 C704.7,422.35 703.3,418.7 700.55,415.2 697.8,411.75 694.5,409.55 690.65,408.55 L660.8,400.85 C656.95,399.85 653.65,400.3 650.9,402.35 648.15,404.4 646.8,407.35 646.8,411.2 646.8,415.05 648.15,418.7 650.9,422.15 653.65,425.6 656.95,427.9 660.8,428.9 L690.65,436.6 C694.5,437.6 697.8,437.05 700.55,435 703.3,433 704.7,430.05 704.7,426.2z M511.75,155.05 C507.9,155.05 504.6,156.4 501.85,159.1 499.1,161.85 497.75,165.15 497.75,169 L497.75,198.85 C497.75,202.7 499.1,206 501.85,208.75 504.6,211.5 507.9,212.9 511.75,212.9 515.6,212.9 518.95,211.5 521.7,208.75 524.45,206 525.8,202.7 525.8,198.85 L525.8,169 C525.8,165.15 524.45,161.85 521.7,159.1 518.95,156.4 515.6,155.05 511.75,155.05z M597.9,159.1 C595.15,161.85 593.75,165.15 593.75,169 L593.75,198.85 C593.75,202.7 595.15,206 597.9,208.75 600.65,211.5 603.95,212.9 607.8,212.9 611.65,212.9 614.95,211.5 617.7,208.75 620.45,206 621.8,202.7 621.8,198.85 L621.8,169 C621.8,165.15 620.45,161.85 617.7,159.1 614.95,156.4 611.65,155.05 607.8,155.05 603.95,155.05 600.65,156.4 597.9,159.1z M415.75,155.05 C411.9,155.05 408.6,156.4 405.85,159.1 403.1,161.85 401.7,165.15 401.7,169 L401.7,198.85 C401.7,202.7 403.1,206 405.85,208.75 408.6,211.5 411.9,212.9 415.75,212.9 419.6,212.9 422.9,211.5 425.65,208.75 428.4,206 429.75,202.7 429.75,198.85 L429.75,169 C429.75,165.15 428.4,161.85 425.65,159.1 422.9,156.4 419.6,155.05 415.75,155.05z M374.3,230.05 C377,226.5 378.35,222.8 378.35,218.95 378.35,215.15 377,212.2 374.3,210.15 371.55,208.15 368.25,207.75 364.4,208.8 L334.55,217.05 C330.7,218.1 327.4,220.4 324.65,223.9 321.9,227.45 320.55,231.15 320.55,234.95 320.55,238.8 321.9,241.75 324.65,243.8 327.4,245.75 330.7,246.15 334.55,245.1 L364.4,236.85 C368.25,235.8 371.55,233.5 374.3,230.05z M374.3,326 C377,322.55 378.35,318.9 378.35,315.05 378.35,311.15 377,308.2 374.3,306.25 371.55,304.2 368.25,303.75 364.4,304.8 L334.55,313.05 C330.7,314.1 327.4,316.45 324.65,320 321.9,323.45 320.55,327.15 320.55,331.05 320.55,334.9 321.9,337.8 324.65,339.75 327.4,341.8 330.7,342.25 334.55,341.2 L364.4,332.95 C368.25,331.9 371.55,329.55 374.3,326z M598.75,465.35 C595.95,468.15 594.55,471.45 594.55,475.25 L594.55,505.1 C594.55,508.95 595.95,512.25 598.75,515 601.5,517.8 604.8,519.2 608.65,519.2 612.5,519.2 615.8,517.8 618.55,515 621.3,512.25 622.7,508.95 622.7,505.1 L622.7,475.25 C622.7,471.45 621.3,468.15 618.55,465.35 615.8,462.65 612.5,461.3 608.65,461.3 604.8,461.3 601.5,462.65 598.75,465.35z M502.65,465.35 C499.9,468.15 498.55,471.45 498.55,475.25 L498.55,505.1 C498.55,508.95 499.9,512.25 502.65,515 505.45,517.8 508.8,519.2 512.65,519.2 516.45,519.2 519.75,517.8 522.55,515 525.25,512.25 526.6,508.95 526.6,505.1 L526.6,475.25 C526.6,471.45 525.25,468.15 522.55,465.35 519.75,462.65 516.45,461.3 512.65,461.3 Q506.85,461.3 502.65,465.35z M430.6,475.25 C430.6,471.45 429.2,468.15 426.45,465.35 423.7,462.65 420.4,461.3 416.55,461.3 412.7,461.3 409.4,462.65 406.65,465.35 403.9,468.15 402.5,471.45 402.5,475.25 L402.5,505.1 C402.5,508.95 403.9,512.25 406.65,515 409.4,517.8 412.7,519.2 416.55,519.2 420.4,519.2 423.7,517.8 426.45,515 429.2,512.25 430.6,508.95 430.6,505.1 L430.6,475.25z M374.3,422.1 C377,418.6 378.35,414.9 378.35,411 378.35,407.2 377,404.25 374.3,402.25 371.55,400.25 368.25,399.85 364.4,400.9 L334.55,409.15 C330.7,410.2 327.4,412.5 324.65,416 321.9,419.5 320.55,423.2 320.55,427 320.55,430.9 321.9,433.85 324.65,435.85 327.4,437.85 330.7,438.25 334.55,437.2 L364.4,428.95 C368.25,427.9 371.55,425.6 374.3,422.1z"/>
    </g>
  </g>
  <g id="Calque.__217">
    <g id="shape58">
      <path id="path48" fill="#384C63" fill-opacity="1" d="M659.6,460 L659.6,200.35 C659.6,188.7 653.75,182.85 642,182.85 L382.4,182.85 C370.75,182.85 364.9,188.7 364.9,200.35 L364.9,460 C364.9,471.7 370.75,477.55 382.4,477.55 L642,477.55 C653.75,477.55 659.6,471.7 659.6,460z"/>
    </g>
  </g>
  <g id=".__E5.__9B.__BE.__E5.__B1.__82.__201">
    <g id="drawingObject">
      <path id="path49" fill="#F3C600" fill-opacity="1" d="M546.25,258.226 Q548.904,250.514 548.088,243.1 C539.244,243.461 528.532,249.006 522.17,256.436 516.484,263.017 511.505,273.557 512.84,283.657 522.72,284.41 532.804,278.63 538.946,271.201 Q543.799,265.326 546.25,258.226z M580.099,303.102 C569.764,287.96 553.648,285.887 547.915,285.651 534.218,284.253 521.181,293.709 514.238,293.709 507.295,293.709 496.567,285.856 485.211,286.06 470.273,286.28 456.513,294.746 448.817,308.113 433.314,335.035 444.859,374.901 459.969,396.734 467.351,407.415 476.163,419.447 487.74,419.007 498.876,418.567 503.086,411.813 516.547,411.813 530.024,411.813 533.809,419.007 545.59,418.787 557.575,418.567 565.193,407.886 572.513,397.174 581.01,384.781 584.497,372.78 584.701,372.152 584.434,372.042 561.329,363.183 561.078,336.575 560.889,314.317 579.267,303.605 580.099,303.102z"/>
    </g>
  </g>
</svg>