<?xml version="1.0" encoding="utf-8"?>
<!-- Generator: flash2svg, http://dissentgraphics.com/tools/flash2svg -->
<svg xmlns:xlink="http://www.w3.org/1999/xlink" id="CODA" image-rendering="optimizeSpeed" baseProfile="basic" version="1.1" style="background-color:#ffffff" x="0px" y="0px" width="1024px" height="1024px" viewBox="0 0 1024 1024" enable-background="new 0 0 1024 1024" xmlns="http://www.w3.org/2000/svg">
  <defs transform="matrix(1 0 0 1 0 0) "/>
  <g id="shadow">
    <g id="shape">
      <path id="path" fill="#000000" fill-opacity="0.09803921568627451" d="M965.65,350.3 Q957.05,329.45 946.25,309.45 C942.2,301.9 937.9,294.4 933.35,287.05 913.8,255.35 889.95,225.4 861.8,197.25 769.65,105.1 658.35,59 528,59 397.65,59 286.4,105.1 194.25,197.25 102.1,289.4 56,400.65 56,531 56,661.35 102.1,772.65 194.25,864.8 286.4,956.95 397.65,1003 528,1003 658.35,1003 769.65,956.95 861.8,864.8 912.55,814 949.35,757.4 972.15,695.05 990.7,644.2 1000,589.55 1000,531 1000,486.1 994.55,443.45 983.6,403.05 982.35,398.5 981.05,393.95 979.7,389.45 975.6,376.15 970.9,363.1 965.65,350.3z"/>
    </g>
  </g>
  <g id="Calque.__203">
    <g id="shape2">
      <path id="path1" fill="#4F5691" fill-opacity="1" d="M983.05,511.55 Q983.05,316.2 844.95,178.15 C752.9,86.1 641.75,40.05 511.55,40.05 381.3,40.05 270.2,86.1 178.15,178.15 86.1,270.2 40.05,381.3 40.05,511.55 40.05,641.75 86.1,752.9 178.15,844.95 270.2,937 381.3,983.05 511.55,983.05 641.75,983.05 752.9,937 844.95,844.95 937,752.9 983.05,641.75 983.05,511.55z"/>
    </g>
  </g>
  <g id="Calque.__204">
    <g id="shape4">
      <path id="path2" fill="#343863" fill-opacity="1" d="M759.05,759.05 Q861.55,656.55 861.55,511.55 C861.55,414.9 827.4,332.4 759.05,264.05 690.7,195.7 608.2,161.5 511.55,161.5 414.9,161.5 332.4,195.7 264.05,264.05 195.7,332.4 161.5,414.9 161.5,511.55 161.5,608.2 195.7,690.7 264.05,759.05 332.4,827.4 414.9,861.55 511.55,861.55 608.2,861.55 690.7,827.4 759.05,759.05z"/>
    </g>
  </g>
  <g id="Calque.__205">
    <g id="shape6">
      <path id="path3" fill="#000000" fill-opacity="0.2" d="M727.2,267.1 L706.55,216.8 C518.85,423.45 369.2,365.25 279.95,548.4 Q224.1,663.05 264.8,751.95 285.3,796.5 316.8,817.95 C364.45,618.9 605.65,478.35 605.65,478.35 385.5,677.4 384.5,845.25 384.5,845.25 L410,851 L384.5,845.25 C384.5,845.25 531.4,901.4 693.1,711 854.95,520.25 706.55,216.8 706.55,216.8"/>
    </g>
  </g>
  <g id="brush.__20copy">
    <g id="drawingObject">
      <path id="path4" fill="#659D65" fill-opacity="1" d="M673.4,691.225 C835.168,500.53 686.764,197.037 686.764,197.037 L707.548,247.415 L686.764,197.037 C499.111,403.742 349.494,345.569 260.209,528.691 Q204.395,643.308 245.088,732.224 265.527,776.841 297.044,798.243 C344.727,599.116 585.915,458.582 585.915,458.582 365.754,657.657 364.767,825.566 364.767,825.566 L390.223,831.306 L364.767,825.566 C364.767,825.566 511.699,881.669 673.4,691.225z"/>
    </g>
    <g id="drawingObject1">
      <path id="path5" fill="#568357" fill-opacity="1" d="M673.4,691.225 Q774.451,571.992 740.673,372.635 730.149,310.158 707.548,247.415 L686.764,197.037 C729.178,364.156 585.915,458.582 585.915,458.582 365.754,657.657 364.767,825.566 364.767,825.566 L390.223,831.306 L364.767,825.566 C364.767,825.566 511.699,881.669 673.4,691.225z"/>
    </g>
    <g id="drawingObject2">
      <path id="path6" fill="#659D65" fill-opacity="1" d="M479.016,737.672 C480.905,730.62 473.423,709.18 474.746,698.197 470.216,708.051 453.201,723.198 451.311,730.25 449.422,737.302 454.166,744.781 461.722,746.806 Q467.515,748.358 472.557,745.66 477.599,742.962 479.016,737.672z"/>
    </g>
    <g id="drawingObject3">
      <path id="path7" fill="#659D65" fill-opacity="1" d="M679.444,564.893 C683.56,549.53 667.206,502.767 670.072,478.971 659.969,500.559 623.114,533.334 618.998,548.698 614.814,564.313 625.108,580.298 641.731,584.752 Q654.324,588.126 665.298,582.428 676.34,576.479 679.444,564.893z"/>
    </g>
    <g id="drawingObject4">
      <path id="path8" fill="#82D282" fill-opacity="1" d="M384.248,528.182 C387.149,517.352 375.8,485.158 377.784,468.683 370.83,483.556 345.341,506.151 342.439,516.981 339.605,527.559 346.562,538.871 358.147,541.975 Q366.711,544.269 374.559,540.163 382.088,536.242 384.248,528.182z"/>
    </g>
  </g>
</svg>