<?xml version="1.0" encoding="utf-8"?>
<!-- Generator: flash2svg, http://dissentgraphics.com/tools/flash2svg -->
<svg xmlns:xlink="http://www.w3.org/1999/xlink" id="GITHUB" image-rendering="optimizeSpeed" baseProfile="basic" version="1.1" style="background-color:#ffffff" x="0px" y="0px" width="1024px" height="1024px" viewBox="0 0 1024 1024" enable-background="new 0 0 1024 1024" xmlns="http://www.w3.org/2000/svg">
  <defs transform="matrix(1 0 0 1 0 0) "/>
  <g id="shadow">
    <g id="shape">
      <path id="path" fill="#000000" fill-opacity="0.09803921568627451" d="M965.65,350.3 Q957.05,329.45 946.25,309.45 C942.2,301.9 937.9,294.4 933.35,287.05 913.8,255.35 889.95,225.4 861.8,197.25 769.65,105.1 658.35,59 528,59 397.65,59 286.4,105.1 194.25,197.25 102.1,289.4 56,400.65 56,531 56,661.35 102.1,772.65 194.25,864.8 286.4,956.95 397.65,1003 528,1003 658.35,1003 769.65,956.95 861.8,864.8 912.55,814 949.35,757.4 972.15,695.05 990.7,644.2 1000,589.55 1000,531 1000,486.1 994.55,443.45 983.6,403.05 982.35,398.5 981.05,393.95 979.7,389.45 975.6,376.15 970.9,363.1 965.65,350.3z"/>
    </g>
  </g>
  <g id="Calque.__203">
    <g id="shape2">
      <path id="path1" fill="#616B6D" fill-opacity="1" d="M983.05,511.55 Q983.05,316.2 844.95,178.15 C752.9,86.1 641.75,40.05 511.55,40.05 381.3,40.05 270.2,86.1 178.15,178.15 86.1,270.2 40.05,381.3 40.05,511.55 40.05,641.75 86.1,752.9 178.15,844.95 270.2,937 381.3,983.05 511.55,983.05 641.75,983.05 752.9,937 844.95,844.95 937,752.9 983.05,641.75 983.05,511.55z"/>
    </g>
  </g>
  <g id="Calque.__204">
    <g id="shape4">
      <path id="path2" fill="#4B5355" fill-opacity="1" d="M759.05,759.05 Q861.55,656.55 861.55,511.55 C861.55,414.9 827.4,332.4 759.05,264.05 690.7,195.7 608.2,161.5 511.55,161.5 414.9,161.5 332.4,195.7 264.05,264.05 195.7,332.4 161.5,414.9 161.5,511.55 161.5,608.2 195.7,690.7 264.05,759.05 332.4,827.4 414.9,861.55 511.55,861.55 608.2,861.55 690.7,827.4 759.05,759.05z"/>
    </g>
  </g>
  <g id="Calque.__205">
    <g id="shape6">
      <path id="path3" fill="#000000" fill-opacity="0.2" d="M785.25,220.45 C776.3,211.65 765.7,207.25 753.2,207.25 727.05,211.1 681.6,251.8 617.1,329.1 588.55,326.95 560.05,325.85 531.45,325.8 502.9,325.85 474.4,326.95 445.85,329.1 381.3,251.8 335.85,211.1 309.7,207.25 297.2,207.25 286.6,211.65 277.7,220.45 268.85,229.3 263.3,243.05 261.1,261.5 256.7,297.85 257,329.95 261.9,357.75 257.8,358.75 253.75,359.7 249.6,360.7 232.55,364.9 219.65,371.4 210.8,380.2 210.05,381 209.4,381.7 208.75,382.45 201.2,390.15 194.45,406.4 188.55,431.2 180,467.2 175.8,510.65 175.8,561.5 175.8,612.45 180,655.9 188.55,691.9 192.15,706.85 195.95,718.7 200.15,727.5 202.4,733.5 205.85,739 210.8,743.9 219.65,752.85 234.8,760.1 256.4,765.95 347,790.4 438.8,802.5 531.45,802.35 624.15,802.5 715.9,790.4 806.55,765.95 828.1,760.1 843.2,752.85 852.15,743.9 857.05,739 860.55,733.5 862.75,727.5 866.95,718.7 870.8,706.85 874.35,691.9 882.9,655.9 887.1,612.45 887.1,561.5 887.1,510.65 882.9,467.2 874.35,431.2 868.45,406.4 861.7,390.15 854.15,382.45 853.55,381.7 852.85,381 852.15,380.2 843.2,371.4 830.35,364.9 813.3,360.7 809.2,359.7 805.15,358.75 801,357.75 805.9,329.95 806.2,297.85 801.75,261.5 Q798.45,233.75 785.25,220.45z"/>
    </g>
  </g>
  <g id="brush.__20copy">
    <g id="shape8">
      <path id="path4" fill="#313637" fill-opacity="1" d="M782.4,244.35 Q779.05,216.55 765.8,203.25 C756.95,194.45 746.3,190.05 733.85,190.05 707.6,193.9 662.2,234.6 597.65,311.9 569.1,309.75 540.6,308.7 512.05,308.65 483.5,308.7 455,309.75 426.45,311.9 361.9,234.6 316.5,193.9 290.3,190.05 277.8,190.05 267.15,194.45 258.3,203.25 249.5,212.15 243.95,225.85 241.7,244.35 237.3,280.65 237.55,312.75 242.5,340.55 238.4,341.55 234.3,342.5 230.15,343.5 213.15,347.7 200.25,354.2 191.4,363.05 190.7,363.8 189.95,364.5 189.35,365.25 181.75,373 175.05,389.2 169.15,414 160.6,450 156.35,493.45 156.35,544.35 156.35,595.25 160.6,638.65 169.15,674.7 172.75,689.7 176.6,701.55 180.8,710.3 182.95,716.35 186.5,721.8 191.4,726.7 200.25,735.6 215.45,742.95 236.95,748.75 327.65,773.25 419.35,785.3 512.05,785.15 604.75,785.3 696.45,773.25 787.15,748.75 808.7,742.95 823.85,735.6 832.7,726.7 837.6,721.8 841.15,716.35 843.4,710.3 847.5,701.55 851.4,689.7 854.95,674.7 863.5,638.65 867.75,595.25 867.75,544.35 867.75,493.45 863.5,450 854.95,414 849.1,389.2 842.35,373 834.75,365.25 834.15,364.5 833.5,363.8 832.7,363.05 823.85,354.2 810.95,347.7 793.95,343.5 789.8,342.5 785.7,341.55 781.6,340.55 786.55,312.75 786.8,280.65 782.4,244.35z"/>
    </g>
  </g>
  <g id="Calque.__206">
    <g id="Symbole.__203_1" overflow="visible">
      <g id="Calque.__208">
        <g id="shape22">
          <path id="path14" fill="#FFC09C" fill-opacity="1" d="M772.563,492.288 C770.64,482.843 765.267,473.681 756.445,464.802 747.565,455.979 735.802,450.663 721.041,448.91 650.686,440.483 581.01,436.185 512.013,436.129 511.957,436.129 511.843,436.129 511.787,436.129 442.79,436.242 373.114,440.483 302.759,448.91 287.998,450.663 276.235,455.979 267.355,464.802 258.533,473.681 253.16,482.843 251.237,492.288 248.296,507.105 246.713,521.64 246.487,535.948 246.487,536.118 246.487,536.231 246.487,536.401 246.487,553.367 246.487,570.391 246.487,584.36 246.487,599.743 248.014,614.617 251.068,629.151 Q254.122,643.347 267.355,656.581 C276.235,665.46 287.998,670.719 302.759,672.473 372.944,680.786 442.62,684.971 511.787,685.028 511.843,685.028 511.957,685.028 512.013,685.028 581.18,684.971 650.856,680.786 721.041,672.473 735.802,670.719 747.565,665.46 756.445,656.581 765.267,647.758 770.696,638.596 772.732,629.151 775.786,614.617 777.313,599.743 777.313,584.36 777.313,570.391 777.313,553.367 777.313,536.401 777.313,536.231 777.313,536.118 777.313,535.948 777.087,521.64 775.504,507.105 772.563,492.288z"/>
        </g>
      </g>
    </g>
  </g>
  <g id="brush">
    <g id="shape10">
      <path id="path5" fill="#FFFFFF" fill-opacity="1" d="M695.3,525.15 C695.3,519.45 694.8,514.05 693.85,508.85 691.8,498.2 687.65,488.7 681.4,480.3 672.1,467.95 660.9,461.75 647.75,461.75 634.65,461.75 623.45,467.95 614.2,480.3 607.95,488.65 603.8,498.1 601.8,508.85 600.8,513.9 600.3,519.4 600.3,525.15 600.3,542.6 604.9,557.55 614.2,569.9 623.45,582.3 634.65,588.45 647.75,588.45 660.9,588.45 672.1,582.3 681.4,569.9 690.65,557.55 695.3,542.6 695.3,525.15z M376.35,465.2 C363.2,465.2 352,471.35 342.7,483.75 337.1,491.25 333.2,499.7 331,508.85 329.55,515.2 328.8,521.65 328.8,528.5 328.8,545.95 333.45,560.9 342.7,573.3 352,585.65 363.2,591.85 376.35,591.85 389.45,591.85 400.65,585.65 409.9,573.3 419.2,560.9 423.8,545.95 423.8,528.5 423.8,521.7 423.1,515.25 421.6,508.85 419.5,499.75 415.55,491.3 409.9,483.75 Q396.05,465.2 376.35,465.2z"/>
    </g>
  </g>
  <g id="ruler">
    <g id="shape14">
      <path id="path8" fill="#B1603D" fill-opacity="1" d="M512.05,572.6 C508.7,572.6 505.8,573.8 503.45,576.2 501.05,578.55 499.85,581.45 499.85,584.8 499.85,588.15 501.05,591 503.45,593.4 505.8,595.75 508.7,596.95 512.05,596.95 515.4,596.95 518.3,595.75 520.65,593.4 523.05,591 524.25,588.15 524.25,584.8 524.25,581.45 523.05,578.55 520.65,576.2 518.3,573.8 515.4,572.6 512.05,572.6z M671.85,523.75 Q671.85,515.66 669.775,508.85 L669.8,508.85 C668.6,505 666.9,501.4 664.75,498.15 660,491.1 654.25,487.55 647.55,487.55 640.85,487.55 635.1,491.1 630.35,498.15 628.2,501.4 626.5,505 625.35,508.85 623.95,513.4 623.25,518.35 623.25,523.75 623.25,533.75 625.6,542.3 630.35,549.35 635.1,556.4 640.85,559.95 647.55,559.95 654.25,559.95 660,556.4 664.75,549.35 669.5,542.3 671.85,533.75 671.85,523.75z M401.2,525.15 C401.2,519.2 400.35,513.75 398.7,508.85 397.55,505.5 396,502.35 394.05,499.5 389.3,492.45 383.6,488.9 376.9,488.9 370.15,488.9 364.45,492.45 359.7,499.5 357.75,502.35 356.25,505.5 355.1,508.85 353.4,513.75 352.55,519.2 352.55,525.15 352.55,535.1 354.95,543.65 359.7,550.7 364.45,557.75 370.15,561.3 376.9,561.3 383.6,561.3 389.3,557.75 394.05,550.7 398.8,543.65 401.2,535.1 401.2,525.15z"/>
    </g>
  </g>
</svg>