<?xml version="1.0" encoding="utf-8"?>
<!-- Generator: flash2svg, http://dissentgraphics.com/tools/flash2svg -->
<svg xmlns:xlink="http://www.w3.org/1999/xlink" id="APP" image-rendering="optimizeSpeed" baseProfile="basic" version="1.1" style="background-color:#ffffff" x="0px" y="0px" width="1024px" height="1024px" viewBox="0 0 1024 1024" enable-background="new 0 0 1024 1024" xmlns="http://www.w3.org/2000/svg">
  <defs transform="matrix(1 0 0 1 0 0) "/>
  <g id="shadow">
    <g id="shape">
      <path id="path" fill="#000000" fill-opacity="0.09803921568627451" d="M965.65,347.3 Q957.05,326.45 946.25,306.45 C942.2,298.9 937.9,291.4 933.35,284.05 913.8,252.35 889.95,222.4 861.8,194.25 769.65,102.1 658.35,56 528,56 397.65,56 286.4,102.1 194.25,194.25 102.1,286.4 56,397.65 56,528 56,658.35 102.1,769.65 194.25,861.8 286.4,953.95 397.65,1000 528,1000 658.35,1000 769.65,953.95 861.8,861.8 912.55,811 949.35,754.4 972.15,692.05 990.7,641.2 1000,586.55 1000,528 1000,483.1 994.55,440.45 983.6,400.05 982.35,395.5 981.05,390.95 979.7,386.45 975.6,373.15 970.9,360.1 965.65,347.3z"/>
    </g>
  </g>
  <g id="Calque.__201">
    <g id="shape2">
      <path id="path1" fill="#343764" fill-opacity="1" d="M984.85,511.55 Q984.85,315.8 846.5,177.45 C754.25,85.2 642.85,39.05 512.4,39.05 381.9,39.05 270.55,85.2 178.3,177.45 86.05,269.7 39.9,381.05 39.9,511.55 39.9,642 86.05,753.4 178.3,845.65 270.55,937.9 381.9,984 512.4,984 642.85,984 754.25,937.9 846.5,845.65 938.75,753.4 984.85,642 984.85,511.55z"/>
    </g>
  </g>
  <g id="Calque.__202">
    <g id="shape4">
      <path id="path2" fill="#292B4F" fill-opacity="1" d="M760.4,759.55 Q863.15,656.85 863.15,511.55 C863.15,414.7 828.9,332 760.4,263.5 691.95,195.05 609.25,160.8 512.4,160.8 415.55,160.8 332.85,195.05 264.35,263.5 195.9,332 161.65,414.7 161.65,511.55 161.65,608.4 195.9,691.1 264.35,759.55 332.85,828.05 415.55,862.3 512.4,862.3 609.25,862.3 691.95,828.05 760.4,759.55z"/>
    </g>
  </g>
  <g id="Logo">
    <g id="shape6">
      <path id="path3" fill="#000000" fill-opacity="0.2" d="M584.95,311 C574.35,297.65 560.5,287.7 543.35,281.15 526.2,274.6 505.85,271.3 482.35,271.3 L277.2,271.3 277.2,747.4 368.35,747.4 368.35,558.75 421.7,566.05 495.4,571.75 C516.15,571.75 534.95,567.85 551.9,560 564.85,554.5 575.55,546.35 584,535.55 592.45,524.95 599.65,509.7 605.6,489.8 611.3,469.9 614.15,446.1 614.15,418.35 614.15,370.5 604.4,334.7 584.95,311z M475.05,351.95 C490.7,351.95 502.45,357.55 510.3,368.8 518.35,379.8 522.5,396.55 522.7,419 522.7,436.75 520.8,451.15 517,462.2 513.4,473.2 507.9,480.9 500.45,485.35 493.9,489.2 485.4,491.1 475.05,491.1 L368.35,491.1 368.35,351.95 475.05,351.95z M799.6,471.5 Q782.05,466.35 753.1,463.3 L708.9,460.25 689.25,460.25 C666.15,460.5 647.8,465.65 634.2,475.7 626.85,481.55 621.3,489.3 617.6,498.95 613.8,508.6 611.9,520.25 611.9,534 L611.9,558.6 C611.9,583.75 618.05,602.65 630.35,615.35 642.7,627.95 661.1,634.25 685.65,634.25 L729.45,634.25 C734.7,634.25 738.95,634.9 742.25,636.15 746.55,637.8 749.8,640.65 751.95,644.7 754.1,648.9 755.2,654.35 755.2,661.1 L755.2,676.35 C755.2,686.8 751.3,693.7 743.55,697.15 L732.7,700.2 695.55,700.95 C674.1,700.95 649.05,699.55 620.45,696.75 L620.45,739.6 C647,747.35 683.85,751.25 731,751.25 739.75,751.25 747.75,750.55 755,749.15 762.35,747.75 769.05,745.6 775,742.65 798.25,732 809.9,709.25 809.9,674.45 L809.9,655.4 C809.9,640.55 807.3,627.15 802.1,615.2 797,603.25 789.5,594.35 779.6,588.5 769.55,582.55 757.1,579.55 742.25,579.55 L697.05,579.55 C685.6,579.55 677.7,577.75 673.25,574.2 668.8,570.55 666.6,563.25 666.6,552.3 L666.6,538.2 C666.6,526 669.35,518.3 674.8,515.15 680.25,512.1 688.8,510.55 700.5,510.55 L728.9,510.55 C746.45,510.55 770,511.8 799.6,514.35 L799.6,471.5z"/>
    </g>
  </g>
  <g id="S">
    <g id="shape13">
      <path id="path9" fill="#FFFFFF" fill-opacity="1" d="M565.15,291.2 C554.55,277.85 540.7,267.9 523.55,261.35 506.4,254.8 486.05,251.5 462.55,251.5 L257.4,251.5 257.4,727.6 348.55,727.6 348.55,538.95 401.9,546.25 475.6,551.95 C496.35,551.95 515.15,548.05 532.1,540.2 545.05,534.7 555.75,526.55 564.2,515.75 572.65,505.15 579.85,489.9 585.8,470 591.5,450.1 594.35,426.3 594.35,398.55 594.35,350.7 584.6,314.9 565.15,291.2z M455.25,332.15 C470.9,332.15 482.65,337.75 490.5,349 498.55,360 502.7,376.75 502.9,399.2 502.9,416.95 501,431.35 497.2,442.4 493.6,453.4 488.1,461.1 480.65,465.55 474.1,469.4 465.6,471.3 455.25,471.3 L348.55,471.3 348.55,332.15 455.25,332.15z M779.8,494.55 L779.8,451.7 C768.1,448.25 752.6,445.55 733.3,443.5 L689.1,440.45 669.45,440.45 C646.35,440.7 628,445.85 614.4,455.9 607.05,461.75 601.5,469.5 597.8,479.15 594,488.8 592.1,500.45 592.1,514.2 L592.1,538.8 C592.1,563.95 598.25,582.85 610.55,595.55 622.9,608.15 641.3,614.45 665.85,614.45 L709.65,614.45 C714.9,614.45 719.15,615.1 722.45,616.35 726.75,618 730,620.85 732.15,624.9 734.3,629.1 735.4,634.55 735.4,641.3 L735.4,656.55 C735.4,667 731.5,673.9 723.75,677.35 L712.9,680.4 675.75,681.15 C654.3,681.15 629.25,679.75 600.65,676.95 L600.65,719.8 C627.2,727.55 664.05,731.45 711.2,731.45 719.95,731.45 727.95,730.75 735.2,729.35 742.55,727.95 749.25,725.8 755.2,722.85 778.45,712.2 790.1,689.45 790.1,654.65 L790.1,635.6 C790.1,620.75 787.5,607.35 782.3,595.4 777.2,583.45 769.7,574.55 759.8,568.7 749.75,562.75 737.3,559.75 722.45,559.75 L677.25,559.75 C665.8,559.75 657.9,557.95 653.45,554.4 649,550.75 646.8,543.45 646.8,532.5 L646.8,518.4 C646.8,506.2 649.55,498.5 655,495.35 660.45,492.3 669,490.75 680.7,490.75 L709.1,490.75 C726.65,490.75 750.2,492 779.8,494.55z"/>
    </g>
  </g>
</svg>