<?xml version="1.0" encoding="utf-8"?>
<!-- Generator: flash2svg, http://dissentgraphics.com/tools/flash2svg -->
<svg id="APP-2-empty" image-rendering="optimizeSpeed" baseProfile="basic" version="1.1" style="background-color:#FFFFFF" x="0px" y="0px" width="1024px" height="1024px" viewBox="0 0 1024 1024" enable-background="new 0 0 1024 1024" xmlns="http://www.w3.org/2000/svg" xmlns:xlink="http://www.w3.org/1999/xlink">
  <defs transform="matrix(1 0 0 1 0 0) "/>
  <g id="shadow">
    <g id="shape">
      <path id="path" fill="#000000" fill-opacity="0.09803921568627451" d="M969.6,351.25 Q961,330.4 950.2,310.4 C946.15,302.85 941.85,295.35 937.3,288 917.75,256.3 893.9,226.35 865.75,198.2 773.6,106.05 662.3,59.95 531.95,59.95 401.6,59.95 290.35,106.05 198.2,198.2 106.05,290.35 59.95,401.6 59.95,531.95 59.95,662.3 106.05,773.6 198.2,865.75 290.35,957.9 401.6,1003.95 531.95,1003.95 662.3,1003.95 773.6,957.9 865.75,865.75 916.5,814.95 953.3,758.35 976.1,696 994.65,645.15 1003.95,590.5 1003.95,531.95 1003.95,487.05 998.5,444.4 987.55,404 986.3,399.45 985,394.9 983.65,390.4 979.55,377.1 974.85,364.05 969.6,351.25z"/>
    </g>
  </g>
  <g id="bg">
    <g id="shape2">
      <path id="path1" fill="#333333" fill-opacity="1" d="M933.45,296.55 C929.35,288.4 924.9,280.25 920.25,272.2 910.5,255.45 899.65,239.4 887.55,223.75 882.4,217.2 876.95,210.6 871.3,204.05 844.95,173.9 813.8,146.55 778.15,122.15 693.35,64.25 602.05,36.7 504.4,39.45 487.95,39.9 471.35,41.15 454.25,43.45 444.55,44.7 434.55,46.3 424.45,48.2 415.3,49.95 406.25,51.9 397.2,54.1 282.05,82.05 190.35,146.05 122.15,245.95 Q11.95,407.45 48.2,599.55 C72.4,727.65 138.3,828.45 245.95,901.95 345.85,970.1 454.55,996.2 572,980.3 572.15,980.3 572.25,980.25 572.4,980.25 580.85,979.1 588.85,977.85 596.6,976.4 597.8,976.2 598.7,976 599.55,975.85 609.7,973.95 619.65,971.75 629,969.45 631.4,968.85 633.6,968.3 635.7,967.75 655.3,962.6 674.2,956.35 692,949.3 699.5,946.25 706.9,943.1 714,939.85 789.65,904.95 852.1,851.15 901.95,778.15 940.7,721.35 965.85,661.75 977.4,599.25 986.7,548.95 987.25,496.8 979,442.7 978.05,436.75 977,430.6 975.85,424.45 975.75,423.85 975.6,423.15 975.5,422.5 975.4,422.15 975.35,421.85 975.3,421.5 967.55,381.6 955.65,344.35 939.55,309.2 937.65,305.1 935.55,300.8 933.45,296.55z"/>
    </g>
  </g>
  <g id="inner">
    <g id="shape4">
      <path id="path2" fill="#FF6666" fill-opacity="1" d="M756.4,157 C734.5,142.25 710.55,129.15 684.75,117.85 601.15,81.35 517.05,71.55 432.2,88.6 L485.75,372.5 885.3,297.05 C880.85,289.05 876.15,281.25 871.1,273.4 841.2,227.1 802.9,188.15 756.4,157z"/>
      <path id="path3" fill="#FFFFFF" fill-opacity="1" d="M895.15,315.55 C894.55,314.4 893.95,313.25 893.3,311.95 L488.75,388.3 592,935.45 C617.85,930.2 643.25,922.65 668.7,912.75 779.35,869.45 858.5,793.45 906.25,684.6 939.2,609.2 950.45,533.25 939.8,456.75 Q932.55,406.1 912.8,355.35 C907.45,341.65 901.6,328.45 895.15,315.55z"/>
      <path id="path4" fill="#CCCCCC" fill-opacity="1" d="M893.3,311.95 C890.75,307 888.2,302.1 885.3,297.05 L485.75,372.5 85.55,448 C84.55,453.85 83.8,459.45 83.25,464.8 L488.75,388.3 893.3,311.95z"/>
      <path id="path5" fill="#E35E5E" fill-opacity="1" d="M432.2,88.6 C406.85,93.65 381.2,101.25 355.45,111.3 244.8,154.5 165.55,230.65 118.05,339.35 106.65,365.15 97.9,391 91.8,416.75 91.45,418.05 91.15,419.4 90.85,420.65 88.75,429.9 86.95,439.05 85.55,448 L485.75,372.5 432.2,88.6z"/>
      <path id="path6" fill="#E9E9E9" fill-opacity="1" d="M83.25,464.8 C83,466.3 82.9,467.55 82.8,468.9 75.7,535.35 85.3,601.8 111.35,668.55 124.65,702.6 141.1,733.65 160.3,761.35 204.5,824.95 264.1,873.1 339.55,906.1 423.2,942.8 507.6,952.5 592,935.45 L488.75,388.3 83.25,464.8z"/>
    </g>
  </g>
  <g id="Calque.__206">
    <g id="shape11" transform="matrix(1 0 0 1 246.5 88.75)"/>
  </g>
</svg>