<?xml version="1.0" encoding="utf-8"?>
<!-- Generator: flash2svg, http://dissentgraphics.com/tools/flash2svg -->
<svg id="APP-1-alt" image-rendering="optimizeSpeed" baseProfile="basic" version="1.1" style="background-color:#FFFFFF" x="0px" y="0px" width="1024px" height="1024px" viewBox="0 0 1024 1024" enable-background="new 0 0 1024 1024" xmlns="http://www.w3.org/2000/svg" xmlns:xlink="http://www.w3.org/1999/xlink">
  <defs transform="matrix(1 0 0 1 0 0) "/>
  <g id="shadow">
    <g id="shape">
      <path id="path" fill="#000000" fill-opacity="0.09803921568627451" d="M969.6,351.25 Q961,330.4 950.2,310.4 C946.15,302.85 941.85,295.35 937.3,288 917.75,256.3 893.9,226.35 865.75,198.2 773.6,106.05 662.3,59.95 531.95,59.95 401.6,59.95 290.35,106.05 198.2,198.2 106.05,290.35 59.95,401.6 59.95,531.95 59.95,662.3 106.05,773.6 198.2,865.75 290.35,957.9 401.6,1003.95 531.95,1003.95 662.3,1003.95 773.6,957.9 865.75,865.75 916.5,814.95 953.3,758.35 976.1,696 994.65,645.15 1003.95,590.5 1003.95,531.95 1003.95,487.05 998.5,444.4 987.55,404 986.3,399.45 985,394.9 983.65,390.4 979.55,377.1 974.85,364.05 969.6,351.25z"/>
    </g>
  </g>
  <g id="bg">
    <g id="shape2">
      <path id="path1" fill="#C95454" fill-opacity="1" d="M969.7,392 C968.6,387.65 967.35,383 966.05,378.4 963.55,369.65 960.7,360.8 957.6,352.05 951.15,333.8 943.45,316 934.45,298.4 930.65,291 926.5,283.45 922.15,276 901.85,241.5 876.35,208.8 845.8,178.25 773.2,105.65 688.65,61.6 592.15,46.2 575.9,43.6 559.35,41.8 542.1,40.85 532.4,40.3 522.25,40 512,40 502.65,40 493.4,40.25 484.1,40.75 365.75,46.85 263.8,92.7 178.25,178.25 Q40,316.5 40,512 C40,642.35 86.1,753.65 178.25,845.8 251.35,918.85 336.4,963 433,978 L259.6,804.6 794,264 977.875,432.175 L977.9,432.2 C975.75,418.75 973,405.3 969.7,392z"/>
      <path id="path2" fill="#A04343" fill-opacity="1" d="M983.7,530.5 C983.9,524.45 984,518.25 984,512 984,511.35 984,510.65 984,510 984,509.65 984,509.35 984,509 983.85,482.75 981.85,457.25 977.9,432.2 L977.875,432.175 L794,264 259.6,804.6 433,978 C450,980.65 466.9,982.4 484.1,983.3 484.25,983.3 484.35,983.3 484.5,983.3 493,983.75 501.1,984 509,984 510.2,984 511.1,984 512,984 522.3,984 532.5,983.7 542.1,983.2 544.6,983.05 546.85,982.9 549.05,982.75 569.25,981.3 588.95,978.7 607.75,975.05 615.7,973.5 623.55,971.75 631.15,969.9 711.95,949.6 783.3,908.3 845.8,845.8 894.4,797.2 930.2,743.3 953.15,684 971.6,636.35 981.8,585.2 983.7,530.5z"/>
    </g>
  </g>
  <g id="Calque.__203">
    <g id="shape6">
      <path id="path3" fill="#FFFFFF" fill-opacity="1" d="M785.1,785.1 Q898.2,672 898.2,512 C898.2,405.35 860.5,314.3 785.1,238.9 709.7,163.5 618.65,125.8 512,125.8 405.35,125.8 314.3,163.5 238.9,238.9 163.5,314.3 125.8,405.35 125.8,512 125.8,618.65 163.5,709.7 238.9,785.1 314.3,860.5 405.35,898.2 512,898.2 618.65,898.2 709.7,860.5 785.1,785.1z"/>
    </g>
  </g>
  <g id="inner">
    <g id="shape8">
      <path id="path4" fill="#FF7878" fill-opacity="1" d="M760.05,760.05 Q862.75,657.3 862.75,512 L161.3,512 C161.3,608.85 195.55,691.55 264,760.05 332.45,828.5 415.15,862.75 512,862.75 608.85,862.75 691.55,828.5 760.05,760.05z"/>
      <path id="path5" fill="#E76565" fill-opacity="1" d="M862.75,512 C862.75,415.15 828.5,332.45 760.05,264 691.55,195.55 608.85,161.3 512,161.3 415.15,161.3 332.45,195.55 264,264 195.55,332.45 161.3,415.15 161.3,512 L862.75,512z"/>
    </g>
  </g>
  <g id="Calque.__204">
    <g id="shape12">
      <path id="path6" fill="#FFFFFF" fill-opacity="1" d="M882.1,493.9 Q874.2,486 863,486 C855.55,486 849.15,488.65 843.9,493.9 838.65,499.15 836,505.55 836,513 836,520.45 838.65,526.85 843.9,532.1 849.15,537.35 855.55,540 863,540 870.45,540 876.85,537.35 882.1,532.1 887.35,526.85 890,520.45 890,513 890,505.55 887.35,499.15 882.1,493.9z M182.1,493.9 C176.85,488.65 170.45,486 163,486 155.55,486 149.15,488.65 143.9,493.9 138.65,499.15 136,505.55 136,513 136,520.45 138.65,526.85 143.9,532.1 149.15,537.35 155.55,540 163,540 170.45,540 176.85,537.35 182.1,532.1 187.35,526.85 190,520.45 190,513 190,505.55 187.35,499.15 182.1,493.9z"/>
    </g>
  </g>
  <g id="Calque.__205">
    <g id="shape16">
      <path id="path9" fill="#CCCCCC" fill-opacity="1" d="M699.7,463.4 L699.7,450.05 C699.7,440.2 698.15,431.4 695.1,423.55 692.15,415.95 687.7,409.4 681.75,403.95 675.9,398.5 669.1,394.3 661.3,391.35 653.45,388.6 644.75,387.15 635.1,386.9 L607.7,386.5 C589.05,386.5 572.7,387.35 558.55,389 544.3,390.55 532.45,393 522.95,396.3 L522.95,446.35 601.8,446.35 C611.65,446.35 619.2,447 624.45,448.3 630.7,450.45 633.85,455.6 633.85,463.75 L633.85,466.8 C633.85,471.8 632.55,475.9 629.95,479.1 627.6,481.35 618.2,482.8 601.8,483.55 L546.1,486.9 546.1,512.1 674.25,512.1 C682.2,508.55 688.25,503.05 692.4,495.65 697.25,487.35 699.7,476.6 699.7,463.4z M429.7,384.05 C391.75,384.05 357.1,387.5 325.75,394.35 L325.75,444 402.45,444 C417.4,444 427.65,445.35 433.1,448.1 438.55,450.95 441.25,457.65 441.25,468.2 441.25,473.45 437.8,480.55 430.95,489.6 425.95,496.05 419.1,503.55 410.4,512.1 L494.35,512.1 C503.2,496.7 507.65,481.35 507.65,466.1 507.65,441.05 501.05,421.2 487.9,406.45 474.85,391.5 455.45,384.05 429.7,384.05z"/>
      <path id="path10" fill="#FFFFFF" fill-opacity="1" d="M670.9,513.45 C672.05,513.05 673.15,512.6 674.25,512.1 L546.1,512.1 546.1,540.85 601.8,543.35 C614.4,544.05 622.75,545.3 626.9,547.1 631.2,548.95 633.35,553.55 633.35,560.8 L633.35,564 C633.35,571.35 631.35,575.9 627.3,577.7 623.35,579.45 614.2,580.35 599.85,580.35 L525.3,580.35 524.95,630.55 C533.85,633.75 545.05,636.15 558.55,637.7 572.3,639.25 588.35,640 606.65,640 L632.6,640 C653.6,640 670,634.4 681.75,623.25 687.7,617.8 692.15,611.1 695.1,603.15 698.15,595.1 699.7,585.95 699.7,575.75 L699.7,565.95 C699.7,551.5 697.25,539.85 692.4,531.05 687.65,522.3 680.5,516.4 670.9,513.45z M399.8,522.15 C372.4,547.7 348.6,567.1 328.4,580.35 L328.4,637.7 507.65,637.7 507.65,578.2 435.95,578.2 456.6,558.45 479,533.75 C485.1,526.5 490.2,519.3 494.35,512.1 L410.4,512.1 C407.15,515.3 403.6,518.65 399.8,522.15z"/>
    </g>
    <g id="drawingObject">
      <path id="path15" fill="#CCCCCC" fill-opacity="1" d="M374.05,328.4 L386.05,329.35 395.75,349 402.55,349 392.45,329.05 394.6,328.4 396.05,327.65 397.4,326.5 C397.9,326.05 398.35,325.45 398.7,324.75 L400,321.6 C400.5,320.25 400.75,318 400.75,314.85 400.75,304.9 396.8,299.95 388.95,299.95 L367.9,299.95 367.9,349 374.05,349 374.05,328.4z M394.1,310.15 C394.4,311.4 394.55,313.25 394.55,315.6 394.55,318 394.15,319.9 393.4,321.25 393.05,321.9 392.5,322.4 391.7,322.75 390.9,323.05 389.9,323.2 388.65,323.2 L374.05,323.2 374.05,305.85 388.65,305.85 C390.3,305.85 391.65,306.35 392.7,307.4 393.3,307.95 393.75,308.9 394.1,310.15z M361.35,306 L361.35,301.05 339.6,299.95 C338.4,299.95 337.3,300.15 336.3,300.5 335.3,300.85 334.35,301.4 333.5,302.1 331.85,303.55 331,305.85 331,309.1 L331,349 337.15,349 337.15,327.9 358.55,327.2 358.55,322.25 337.15,321.5 337.15,309.75 C337.15,308.7 337.3,307.85 337.55,307.2 338,306.4 339,306 340.65,306 L361.35,306z"/>
    </g>
  </g>
</svg>