<?xml version="1.0" encoding="utf-8"?>
<!-- Generator: flash2svg, http://dissentgraphics.com/tools/flash2svg -->
<svg id="APP-1-empty" image-rendering="optimizeSpeed" baseProfile="basic" version="1.1" style="background-color:#FFFFFF" x="0px" y="0px" width="1024px" height="1024px" viewBox="0 0 1024 1024" enable-background="new 0 0 1024 1024" xmlns="http://www.w3.org/2000/svg" xmlns:xlink="http://www.w3.org/1999/xlink">
  <defs transform="matrix(1 0 0 1 0 0) "/>
  <g id="shadow">
    <g id="shape">
      <path id="path" fill="#000000" fill-opacity="0.09803921568627451" d="M969.6,351.25 Q961,330.4 950.2,310.4 C946.15,302.85 941.85,295.35 937.3,288 917.75,256.3 893.9,226.35 865.75,198.2 773.6,106.05 662.3,59.95 531.95,59.95 401.6,59.95 290.35,106.05 198.2,198.2 106.05,290.35 59.95,401.6 59.95,531.95 59.95,662.3 106.05,773.6 198.2,865.75 290.35,957.9 401.6,1003.95 531.95,1003.95 662.3,1003.95 773.6,957.9 865.75,865.75 916.5,814.95 953.3,758.35 976.1,696 994.65,645.15 1003.95,590.5 1003.95,531.95 1003.95,487.05 998.5,444.4 987.55,404 986.3,399.45 985,394.9 983.65,390.4 979.55,377.1 974.85,364.05 969.6,351.25z"/>
    </g>
  </g>
  <g id="bg">
    <g id="shape2">
      <path id="path1" fill="#C95454" fill-opacity="1" d="M969.7,392 C968.6,387.65 967.35,383 966.05,378.4 963.55,369.65 960.7,360.8 957.6,352.05 951.15,333.8 943.45,316 934.45,298.4 930.65,291 926.5,283.45 922.15,276 901.85,241.5 876.35,208.8 845.8,178.25 773.2,105.65 688.65,61.6 592.15,46.2 575.9,43.6 559.35,41.8 542.1,40.85 532.4,40.3 522.25,40 512,40 502.65,40 493.4,40.25 484.1,40.75 365.75,46.85 263.8,92.7 178.25,178.25 Q40,316.5 40,512 C40,642.35 86.1,753.65 178.25,845.8 263.8,931.3 365.75,977.15 484.1,983.3 484.25,983.3 484.35,983.3 484.5,983.3 493,983.75 501.1,984 509,984 510.2,984 511.1,984 512,984 522.3,984 532.5,983.7 542.1,983.2 544.6,983.05 546.85,982.9 549.05,982.75 569.25,981.3 588.95,978.7 607.75,975.05 615.7,973.5 623.55,971.75 631.15,969.9 711.95,949.6 783.3,908.3 845.8,845.8 894.4,797.2 930.2,743.3 953.15,684 971.6,636.35 981.8,585.2 983.7,530.5 983.9,524.45 984,518.25 984,512 984,511.35 984,510.65 984,510 984,509.65 984,509.35 984,509 983.8,468.35 979.05,429.5 969.7,392z"/>
    </g>
  </g>
  <g id="Calque.__204">
    <g id="shape4">
      <path id="path2" fill="#000000" fill-opacity="0.2" d="M918.2,532 Q918.2,372 805.1,258.9 C729.7,183.5 638.65,145.8 532,145.8 425.35,145.8 334.3,183.5 258.9,258.9 183.5,334.3 145.8,425.35 145.8,532 145.8,638.65 183.5,729.7 258.9,805.1 334.3,880.5 425.35,918.2 532,918.2 638.65,918.2 729.7,880.5 805.1,805.1 880.5,729.7 918.2,638.65 918.2,532z"/>
    </g>
  </g>
  <g id="Calque.__205">
    <g id="shape6">
      <path id="path3" fill="#FFFFFF" fill-opacity="1" d="M830.9,729.85 Q921.15,597.75 891.55,440.5 C871.8,335.7 817.95,253.25 729.9,193.1 641.85,132.95 545.4,112.7 440.55,132.45 335.75,152.2 253.3,206.05 193.15,294.1 133,382.15 112.75,478.6 132.5,583.4 152.25,688.25 206.1,770.7 294.15,830.85 382.2,891 478.65,911.25 583.45,891.5 688.3,871.75 770.75,817.9 830.9,729.85z"/>
    </g>
  </g>
  <g id="inner">
    <g id="shape8">
      <path id="path4" fill="#E76565" fill-opacity="1" d="M761.45,264.55 C746.1,249.4 728.9,235.3 709.95,222.35 629.9,167.8 542.35,149.4 447.15,167.3 352,185.2 277,234.2 222.45,314.1 209.45,333.05 198.55,352.45 189.75,372.15 L761.45,264.55z"/>
      <path id="path5" fill="#FF7878" fill-opacity="1" d="M863,532.35 Q864.9,490.75 856.7,447.05 C843.05,374.5 811.35,313.65 761.45,264.55 L189.75,372.15 C161.1,436.05 153.7,504.25 167.35,576.8 172.85,606.1 181.35,633.45 192.55,658.55 218.35,716.2 258.8,763.75 314.2,801.6 394.1,856.2 481.75,874.55 576.9,856.65 672.1,838.75 747,789.8 801.7,709.85 839.5,654.4 860,595.25 863,532.35z"/>
    </g>
  </g>
  <g id="Calque.__206">
    <g id="shape12">
      <path id="path6" fill="#FFFFFF" fill-opacity="1" d="M883.7,443.05 Q881.6,432.05 872.4,425.75 C866.25,421.5 859.5,420.1 852.15,421.45 844.8,422.85 839.05,426.65 834.85,432.8 830.6,438.95 829.2,445.65 830.6,453 831.95,460.35 835.75,466.1 841.9,470.3 848.05,474.55 854.8,475.95 862.15,474.55 869.5,473.2 875.25,469.4 879.45,463.25 883.65,457.1 885.05,450.4 883.7,443.05z M195.75,572.5 C194.35,565.15 190.6,559.4 184.45,555.2 178.3,551 171.6,549.6 164.25,550.95 156.9,552.3 151.15,556.1 146.9,562.3 142.7,568.45 141.3,575.15 142.7,582.5 144.05,589.85 147.8,595.6 153.95,599.8 160.15,604 166.9,605.4 174.25,604.05 181.6,602.7 187.35,598.9 191.5,592.7 195.7,586.55 197.1,579.85 195.75,572.5z"/>
    </g>
  </g>
</svg>