<?xml version="1.0" encoding="utf-8"?>
<!-- Generator: flash2svg, http://dissentgraphics.com/tools/flash2svg -->
<svg xmlns:xlink="http://www.w3.org/1999/xlink" id="FOLDER-Public" image-rendering="optimizeSpeed" baseProfile="basic" version="1.1" style="background-color:#ffffff" x="0px" y="0px" width="1024px" height="1024px" viewBox="0 0 1024 1024" enable-background="new 0 0 1024 1024" xmlns="http://www.w3.org/2000/svg">
  <defs transform="matrix(1 0 0 1 0 0) "/>
  <g id="Shadow">
    <g id="shape">
      <path id="path" fill="#000000" fill-opacity="0.09803921568627451" d="M782.05,94.45 L782.05,96.4 290.2,96.4 290.2,94.45 191.05,189.8 191.05,262.3 63.15,262.3 63.15,945 C63.15,957.55 73.5,967.85 86,967.85 L982.45,967.85 C994.95,967.85 1005.3,957.55 1005.3,945 L1005.3,262.3 881.35,262.3 881.35,189.8 782.05,94.45z M782.05,262.3 L290.2,262.3 290.2,189.8 782.05,189.8 782.05,262.3z"/>
    </g>
  </g>
  <g id="Dark">
    <g id="shape5">
      <path id="path4" fill="#BC9C2A" fill-opacity="1" d="M857.8,168.4 L758.5,75 266.6,75.05 167.5,168.4 857.8,168.4z M664.05,461.6 L981.75,779.3 981.75,301.85 39.6,301.85 39.6,923.6 C39.6,936.15 49.95,946.45 62.45,946.45 L563.75,946.45 359.05,741.75 426.475,637.025 362.475,573.025 513.625,464.55 627.225,518.5 664.05,461.6z"/>
      <path id="path7" fill="#A18623" fill-opacity="1" d="M981.75,779.3 L664.05,461.6 627.225,518.5 513.625,464.55 362.475,573.025 426.475,637.025 359.05,741.75 563.75,946.45 958.9,946.45 C971.4,946.45 981.75,936.15 981.75,923.6 L981.75,779.3z"/>
    </g>
  </g>
  <g id="Light">
    <g id="shape11">
      <path id="path8" fill="#ECC32E" fill-opacity="1" d="M981.75,301.85 L981.75,240.9 857.8,240.9 857.8,168.4 758.5,75 758.5,240.9 266.65,240.9 266.65,75 167.5,168.4 167.5,240.9 39.6,240.9 39.6,301.85 981.75,301.85z"/>
    </g>
  </g>
  <g id="Calque.__202">
    <g id="shape13">
      <path id="path9" fill="#FFFFFF" fill-opacity="1" d="M665.1,462.55 Q661.15,458.6 655.85,458.6 C652.4,458.6 649.35,459.9 646.7,462.55 L620.05,488.75 C605.6,475.1 588.95,464.5 570.15,456.85 551.4,449.3 532.1,445.55 512.25,445.55 474.75,445.55 442.05,456.85 414.2,479.5 386.35,502.15 368,531.7 359.15,568.25 L359.15,569.7 361,574.1 365.6,576.1 406.35,576.1 C409.3,576.1 411.3,574.55 412.4,571.45 L423.1,547.55 C432.65,532.05 445.35,519.9 461.15,511.15 477,502.2 494,497.75 512.25,497.75 539.5,497.75 563.3,507.05 583.55,525.7 L555.25,554 C552.65,556.45 551.35,559.5 551.35,563.1 551.35,566.65 552.65,569.75 555.25,572.35 557.9,574.85 560.95,576.1 564.4,576.1 L655.85,576.1 C659.4,576.1 662.45,574.85 665.1,572.35 667.65,569.75 668.9,566.65 668.9,563.1 L668.9,471.65 C668.9,468.05 667.65,465 665.1,462.55z M661.85,630.35 L657.25,628.4 618.1,628.4 C615.15,628.4 613.15,629.95 612.05,633.1 L601.2,657 C591.65,672.5 578.95,684.65 563.1,693.45 547.4,702.35 530.45,706.8 512.25,706.8 499,706.8 486.3,704.4 474.05,699.55 461.75,694.5 450.8,687.55 441.15,678.65 L469.2,650.55 C471.65,648.1 472.9,645.05 472.9,641.45 472.9,637.9 471.65,634.85 469.2,632.35 466.55,629.7 463.5,628.4 459.95,628.4 L368.5,628.4 C364.9,628.4 361.85,629.7 359.35,632.35 356.75,634.85 355.45,637.9 355.45,641.45 L355.45,732.9 C355.45,736.45 356.75,739.5 359.35,742.05 361.85,744.65 364.9,745.95 368.5,745.95 372.05,745.95 375.1,744.65 377.75,742.05 L404.05,715.8 C418.55,729.7 435.1,740.35 453.65,747.7 472.25,755.25 491.5,759 511.35,759 548.6,759 581.1,747.7 608.85,725.05 636.7,702.4 655,672.8 663.7,636.25 663.8,635.8 663.85,635.3 663.85,634.85 L661.85,630.35z"/>
    </g>
  </g>
</svg>