<?xml version="1.0" encoding="utf-8"?>
<!-- Generator: flash2svg, http://dissentgraphics.com/tools/flash2svg -->
<svg xmlns:xlink="http://www.w3.org/1999/xlink" id="FOLDER-Downloads" image-rendering="optimizeSpeed" baseProfile="basic" version="1.1" style="background-color:#ffffff" x="0px" y="0px" width="1024px" height="1024px" viewBox="0 0 1024 1024" enable-background="new 0 0 1024 1024" xmlns="http://www.w3.org/2000/svg">
  <defs transform="matrix(1 0 0 1 0 0) "/>
  <g id="Shadow">
    <g id="shape">
      <path id="path" fill="#000000" fill-opacity="0.09803921568627451" d="M782.05,94.45 L782.05,96.4 290.2,96.4 290.2,94.45 191.05,189.8 191.05,262.3 63.15,262.3 63.15,945 C63.15,957.55 73.5,967.85 86,967.85 L982.45,967.85 C994.95,967.85 1005.3,957.55 1005.3,945 L1005.3,262.3 881.35,262.3 881.35,189.8 782.05,94.45z M782.05,262.3 L290.2,262.3 290.2,189.8 782.05,189.8 782.05,262.3z"/>
    </g>
  </g>
  <g id="Dark">
    <g id="shape5">
      <path id="path4" fill="#4F8C52" fill-opacity="1" d="M857.8,168.4 L758.5,75 266.6,75.05 167.5,168.4 857.8,168.4z M350.375,756.325 L555.05,710.05 484.05,643.05 550.15,454.05 981.75,885.65 981.75,301.85 39.6,301.85 39.6,923.6 C39.6,936.15 49.95,946.45 62.45,946.45 L540.5,946.45 350.375,756.325z"/>
      <path id="path7" fill="#407342" fill-opacity="1" d="M555.05,710.05 L350.375,756.325 540.5,946.45 958.9,946.45 C971.4,946.45 981.75,936.15 981.75,923.6 L981.75,885.65 550.15,454.05 484.05,643.05 555.05,710.05z"/>
    </g>
  </g>
  <g id="Light">
    <g id="shape11">
      <path id="path8" fill="#66B66A" fill-opacity="1" d="M981.75,301.85 L981.75,240.9 857.8,240.9 857.8,168.4 758.5,75 758.5,240.9 266.65,240.9 266.65,75 167.5,168.4 167.5,240.9 39.6,240.9 39.6,301.85 981.75,301.85z"/>
    </g>
  </g>
  <g id="Calque.__202">
    <g id="shape13">
      <path id="path9" fill="#FFFFFF" fill-opacity="1" d="M676.65,660.1 C672.9,656.35 668.3,654.4 662.8,654.4 L568.45,654.4 540.6,682 C532.7,689.65 523.6,693.45 513,693.45 502.45,693.45 493.2,689.65 485.3,682 L457.8,654.4 363.2,654.4 C357.75,654.4 353.1,656.35 349.35,660.1 345.55,663.9 343.6,668.5 343.6,674 L343.6,739.05 C343.6,744.5 345.55,749.1 349.35,752.9 353.1,756.65 357.75,758.6 363.2,758.6 L662.8,758.6 C668.3,758.6 672.9,756.65 676.65,752.9 680.45,749.1 682.4,744.5 682.4,739.05 L682.4,674 C682.4,668.5 680.45,663.9 676.65,660.1z M652.5,728.7 C649.9,731.25 646.75,732.6 643.25,732.6 639.7,732.6 636.65,731.25 634.1,728.7 631.55,726.15 630.2,723.1 630.2,719.55 630.2,716.05 631.55,712.9 634.1,710.35 636.65,707.8 639.7,706.45 643.25,706.45 646.75,706.45 649.9,707.8 652.5,710.35 655.05,712.9 656.25,716.05 656.25,719.55 656.25,723.1 655.05,726.15 652.5,728.7z M591.2,706.45 C594.7,706.45 597.75,707.8 600.3,710.35 602.85,712.9 604.2,716.05 604.2,719.55 604.2,723.1 602.85,726.15 600.3,728.7 597.75,731.25 594.7,732.6 591.2,732.6 587.65,732.6 584.5,731.25 581.95,728.7 579.4,726.15 578.2,723.1 578.2,719.55 578.2,716.05 579.4,712.9 581.95,710.35 584.5,707.8 587.65,706.45 591.2,706.45z M548.25,449.75 C545.7,447.2 542.55,446 539.05,446 L487,446 Q481.65,446 477.75,449.75 C475.2,452.3 473.85,455.45 473.85,459 L473.85,550.2 421.8,550.2 C416.1,550.2 412.1,552.85 409.65,558.1 407.45,563.55 408.45,568.3 412.55,572.3 L503.75,663.5 C506.3,666.05 509.35,667.4 513,667.4 516.65,667.4 519.7,666.05 522.15,663.5 L613.3,572.3 C617.6,568.3 618.55,563.55 616.1,558.1 613.8,552.85 609.9,550.2 604.2,550.2 L552.05,550.2 552.05,459 C552.05,455.45 550.8,452.3 548.25,449.75z"/>
    </g>
  </g>
</svg>