<?xml version="1.0" encoding="utf-8"?>
<!-- Generator: flash2svg, http://dissentgraphics.com/tools/flash2svg -->
<svg xmlns:xlink="http://www.w3.org/1999/xlink" id="FOLDER-Games" image-rendering="optimizeSpeed" baseProfile="basic" version="1.1" style="background-color:#ffffff" x="0px" y="0px" width="1024px" height="1024px" viewBox="0 0 1024 1024" enable-background="new 0 0 1024 1024" xmlns="http://www.w3.org/2000/svg">
  <defs transform="matrix(1 0 0 1 0 0) "/>
  <g id="Shadow">
    <g id="shape">
      <path id="path" fill="#000000" fill-opacity="0.09803921568627451" d="M782.05,94.45 L782.05,96.4 290.2,96.4 290.2,94.45 191.05,189.8 191.05,262.3 63.15,262.3 63.15,945 C63.15,957.55 73.5,967.85 86,967.85 L982.45,967.85 C994.95,967.85 1005.3,957.55 1005.3,945 L1005.3,262.3 881.35,262.3 881.35,189.8 782.05,94.45z M782.05,262.3 L290.2,262.3 290.2,189.8 782.05,189.8 782.05,262.3z"/>
    </g>
  </g>
  <g id="FolderDark">
    <g id="shape5">
      <path id="path4" fill="#B87E3B" fill-opacity="1" d="M857.8,168.4 L760.45,75 264.65,75 167.5,168.4 857.8,168.4z M39.6,923.6 C39.6,936.15 49.95,946.45 62.45,946.45 L958.9,946.45 C971.4,946.45 981.75,936.15 981.75,923.6 L981.75,301.85 39.6,301.85 39.6,923.6z"/>
    </g>
  </g>
  <g id="FolderLight">
    <g id="shape9">
      <path id="path7" fill="#EB8E0C" fill-opacity="1" d="M981.75,301.85 L981.75,240.9 857.8,240.9 857.8,168.4 758.5,73.05 758.5,240.9 266.65,240.9 266.65,73.05 167.5,168.4 167.5,240.9 39.6,240.9 39.6,301.85 981.75,301.85z"/>
    </g>
  </g>
  <g id="IcoShadow">
    <g id="shape11">
      <path id="path8" fill="#A86C27" fill-opacity="1" d="M626.2,446.05 L545.05,487.325 507.225,574.525 371.975,589.925 327.45,720.05 553.85,946.45 958.9,946.45 Q968.25,946.45 975,939.7 981.75,932.95 981.75,923.6 L981.75,801.6 626.2,446.05z"/>
    </g>
  </g>
  <g id="Icon">
    <g id="shape13">
      <path id="path9" fill="#FFFFFF" fill-opacity="1" d="M714.25,658.05 C714.25,641.85 710.9,627.05 704,613.2 699.45,604.2 693.05,595.4 684.95,587.3 668.15,570.5 648.35,560.95 625.2,558.6 621.85,558.25 618.1,558.05 614.25,558.05 L523.1,558.05 C523.55,552.6 524.45,547.05 525.8,541.65 530.05,524.75 538.75,509.7 551.95,496.5 L552,496.45 C571.5,477 595,467.25 622.55,467.25 623.45,467.25 624.35,467.25 625.2,467.3 L625.2,445.9 C624.35,445.85 623.45,445.85 622.55,445.85 589.1,445.85 560.55,457.7 536.85,481.35 519.4,498.8 508.4,518.9 503.8,541.65 502.7,547.05 501.95,552.6 501.65,558.05 L406.05,558.05 C378.4,558.05 354.85,567.8 335.3,587.3 315.8,606.85 306.05,630.4 306.05,658.05 306.05,685.7 315.8,709.25 335.3,728.75 354.85,748.3 378.4,758.05 406.05,758.05 L614.25,758.05 C632.5,758.05 649,753.8 663.75,745.25 666.4,743.7 668.95,742.05 671.5,740.25 673.6,738.75 675.65,737.15 677.7,735.45 678.85,734.45 680.05,733.4 681.2,732.35 682.45,731.2 683.7,730 684.95,728.75 704.5,709.25 714.25,685.7 714.25,658.05z M675.65,657.9 C675.65,662.85 673.9,667.1 670.4,670.6 666.85,674.15 662.6,675.9 657.65,675.9 652.7,675.9 648.45,674.15 644.9,670.6 641.4,667.1 639.65,662.85 639.65,657.9 639.65,652.95 641.4,648.65 644.9,645.15 648.45,641.65 652.7,639.9 657.65,639.9 662.6,639.9 666.85,641.65 670.4,645.15 673.9,648.65 675.65,652.95 675.65,657.9z M436.1,614.65 L436.1,635.65 457.1,635.65 C463.75,635.65 467.1,639 467.1,645.65 L467.1,669.65 C467.1,676.3 463.75,679.65 457.1,679.65 L436.1,679.65 436.1,700.65 C436.1,707.3 432.75,710.65 426.1,710.65 L402.1,710.65 C395.45,710.65 392.1,707.3 392.1,700.65 L392.1,679.65 371.1,679.65 C364.45,679.65 361.1,676.3 361.1,669.65 L361.1,645.65 C361.1,639 364.45,635.65 371.1,635.65 L392.1,635.65 392.1,614.65 C392.1,608 395.45,604.65 402.1,604.65 L426.1,604.65 C432.75,604.65 436.1,608 436.1,614.65z M624.45,642.05 C619.5,642.05 615.2,640.3 611.7,636.8 608.2,633.25 606.45,629 606.45,624.05 606.45,619.1 608.2,614.85 611.7,611.3 615.2,607.8 619.5,606.05 624.45,606.05 624.7,606.05 624.95,606.05 625.2,606.1 629.85,606.25 633.8,607.95 637.15,611.3 637.75,611.9 638.3,612.55 638.85,613.2 641.25,616.35 642.45,619.95 642.45,624.05 642.45,629 640.7,633.25 637.15,636.8 633.65,640.3 629.4,642.05 624.45,642.05z M589.75,675.9 C584.8,675.9 580.55,674.15 577.05,670.6 573.5,667.1 571.75,662.85 571.75,657.9 571.75,652.95 573.5,648.65 577.05,645.15 580.55,641.65 584.8,639.9 589.75,639.9 594.7,639.9 598.95,641.65 602.5,645.15 606,648.65 607.75,652.95 607.75,657.9 607.75,662.85 606,667.1 602.5,670.6 598.95,674.15 594.7,675.9 589.75,675.9z M637.15,679.2 C640.7,682.75 642.45,687 642.45,691.95 642.45,696.9 640.7,701.15 637.15,704.65 633.65,708.2 629.4,709.95 624.45,709.95 619.5,709.95 615.2,708.2 611.7,704.65 608.2,701.15 606.45,696.9 606.45,691.95 606.45,687 608.2,682.75 611.7,679.2 615.2,675.7 619.5,673.95 624.45,673.95 629.4,673.95 633.65,675.7 637.15,679.2z"/>
    </g>
  </g>
</svg>