<?xml version="1.0" encoding="utf-8"?>
<!-- Generator: flash2svg, http://dissentgraphics.com/tools/flash2svg -->
<svg id="Finder-v2" image-rendering="optimizeSpeed" baseProfile="basic" version="1.1" style="background-color:#FFFFFF" x="0px" y="0px" width="1024px" height="1024px" viewBox="0 0 1024 1024" enable-background="new 0 0 1024 1024" xmlns="http://www.w3.org/2000/svg" xmlns:xlink="http://www.w3.org/1999/xlink">
  <defs transform="matrix(1 0 0 1 0 0) "/>
  <g id="shadow">
    <g id="shape">
      <path id="path" fill="#000000" fill-opacity="0.09803921568627451" d="M969.6,351.25 Q961,330.4 950.2,310.4 C946.15,302.85 941.85,295.35 937.3,288 917.75,256.3 893.9,226.35 865.75,198.2 773.6,106.05 662.3,59.95 531.95,59.95 401.6,59.95 290.35,106.05 198.2,198.2 106.05,290.35 59.95,401.6 59.95,531.95 59.95,662.3 106.05,773.6 198.2,865.75 290.35,957.9 401.6,1003.95 531.95,1003.95 662.3,1003.95 773.6,957.9 865.75,865.75 916.5,814.95 953.3,758.35 976.1,696 994.65,645.15 1003.95,590.5 1003.95,531.95 1003.95,487.05 998.5,444.4 987.55,404 986.3,399.45 985,394.9 983.65,390.4 979.55,377.1 974.85,364.05 969.6,351.25z"/>
    </g>
  </g>
  <g id="inner.__20circle">
    <g id="shape2">
      <path id="path1" fill="#949DEF" fill-opacity="1" d="M969.7,392 C968.6,387.65 967.35,383 966.05,378.4 963.55,369.65 960.7,360.8 957.6,352.05 951.15,333.8 943.45,316 934.45,298.4 930.65,291 926.5,283.45 922.15,276 901.85,241.5 876.35,208.8 845.8,178.25 773.2,105.65 688.65,61.6 592.15,46.2 575.9,43.6 559.35,41.8 542.1,40.85 L542.1,304.55 C636.65,308.05 718.2,328.15 786.9,364.9 812.8,378.8 834.25,393.6 851,409.1 854.95,412.75 858.5,416.3 861.85,419.9 887.9,448 900.75,478.55 900.75,512 900.75,569.45 862.8,618.45 786.9,659.05 718.25,695.8 636.7,715.9 542.1,719.45 L542.1,983.175 L542.1,983.2 C544.6,983.05 546.85,982.9 549.05,982.75 569.25,981.3 588.95,978.7 607.75,975.05 615.7,973.5 623.55,971.75 631.15,969.9 711.95,949.6 783.3,908.3 845.8,845.8 894.4,797.2 930.2,743.3 953.15,684 971.6,636.35 981.8,585.2 983.7,530.5 983.9,524.45 984,518.25 984,512 984,511.35 984,510.65 984,510 984,509.65 984,509.35 984,509 983.8,468.35 979.05,429.5 969.7,392z"/>
      <path id="path5" fill="#43466D" fill-opacity="1" d="M542.1,40.85 C532.4,40.3 522.25,40 512,40 502.65,40 493.4,40.25 484.1,40.75 L484.1,40.725 L484.1,304.475 L484.1,304.5 C493.35,304.15 502.6,304 512,304 522.2,304 532.3,304.2 542.1,304.55 L542.1,40.85z M542.1,719.45 C532.4,719.8 522.25,720 512,720 502.7,720 493.55,719.85 484.1,719.55 L484.1,719.525 L484.1,983.275 L484.1,983.3 C484.25,983.3 484.35,983.3 484.5,983.3 493,983.75 501.1,984 509,984 510.2,984 511.1,984 512,984 522.3,984 532.5,983.7 542.1,983.2 L542.1,983.175 L542.1,719.45z"/>
      <path id="path6" fill="#6C6FAF" fill-opacity="1" d="M484.1,304.475 L484.1,40.725 L484.1,40.75 C365.75,46.85 263.8,92.7 178.25,178.25 Q40,316.5 40,512 C40,642.35 86.1,753.65 178.25,845.8 263.8,931.3 365.75,977.15 484.1,983.3 L484.1,983.275 L484.1,719.525 L484.1,719.55 C388.95,716.35 306.45,696.2 237.1,659.05 205.75,642.3 180.85,624.1 162.2,604.1 162.05,603.95 161.95,603.85 161.8,603.7 136.1,576 123.25,545.45 123.25,512 123.25,454.55 161.2,405.55 237.1,364.9 306.35,327.85 388.75,307.7 484.1,304.5"/>
    </g>
  </g>
  <g id="Calque.__206">
    <g id="shape12">
      <path id="path9" fill="#000000" fill-opacity="0.2" d="M876,402 L850.975,409.075 L851,409.1 C854.95,412.75 858.5,416.3 861.85,419.9 887.9,448 900.75,478.55 900.75,512 900.75,569.45 862.8,618.45 786.9,659.05 718.25,695.8 636.7,715.9 542.1,719.45 532.4,719.8 522.25,720 512,720 502.7,720 493.55,719.85 484.1,719.55 388.95,716.35 306.45,696.2 237.1,659.05 205.75,642.3 180.85,624.1 162.2,604.1 L162.175,604.1 L136,611 509,984 Q510.494,984 512,984 C522.3,984 532.5,983.7 542.1,983.2 544.6,983.05 546.85,982.9 549.05,982.75 569.25,981.3 588.95,978.7 607.75,975.05 615.7,973.5 623.55,971.75 631.15,969.9 711.95,949.6 783.3,908.3 845.8,845.8 894.4,797.2 930.2,743.3 953.15,684 971.6,636.35 981.8,585.2 983.7,530.5 983.9,524.45 984,518.25 984,512 984,511.35 984,510.65 984,510 L876,402z"/>
    </g>
  </g>
  <g id="Calque.__207">
    <g id="shape14">
      <path id="path10" fill="#CCCCCC" fill-opacity="1" d="M786.9,659.05 Q900.75,598.15 900.75,512 C900.75,454.55 862.8,405.55 786.9,364.9 711,324.3 619.35,304 512,304 L512,720 C619.35,720 711,699.7 786.9,659.05z"/>
      <path id="path11" fill="#FFFFFF" fill-opacity="1" d="M123.25,512 C123.25,569.45 161.2,618.45 237.1,659.05 313,699.7 404.65,720 512,720 L512,304 C404.65,304 313,324.3 237.1,364.9 161.2,405.55 123.25,454.55 123.25,512z"/>
    </g>
  </g>
  <g id="Calque.__208">
    <g id="shape18">
      <path id="path12" fill="#00A1C9" fill-opacity="1" d="M530.75,331.65 Q521.55,330.7 512,330.7 L512,667.7 C518.35,667.7 524.6,667.4 530.75,666.8 539.75,665.9 548.5,664.3 556.95,662.05 584.65,654.7 609.4,640.1 631.15,618.35 664.05,585.45 680.5,545.75 680.5,499.2 680.5,452.65 664.05,412.95 631.15,380.05 602.75,351.65 569.3,335.5 530.75,331.65z"/>
      <path id="path13" fill="#00CCFF" fill-opacity="1" d="M512,330.7 C465.45,330.7 425.75,347.15 392.85,380.05 359.95,412.95 343.5,452.65 343.5,499.2 343.5,545.75 359.95,585.45 392.85,618.35 425.75,651.25 465.45,667.7 512,667.7 L512,330.7z"/>
    </g>
  </g>
  <g id="Calque.__209">
    <g id="shape22">
      <path id="path14" fill="#000000" fill-opacity="1" d="M583.4,567.4 Q613,537.85 613,496 C613,468.1 603.15,444.3 583.4,424.55 563.7,404.85 539.9,395 512,395 484.1,395 460.3,404.85 440.55,424.55 429.85,435.3 422.05,447.25 417.15,460.4 L417.15,460.375 L518,510 411.875,510 L411.9,510 C414.65,531.95 424.2,551.05 440.55,567.4 460.3,587.15 484.1,597 512,597 539.9,597 563.7,587.15 583.4,567.4z"/>
    </g>
  </g>
  <g id="Calque.__210">
    <g id="shape24">
      <path id="path16" fill="none" stroke="#43476C" stroke-opacity="1" stroke-width="44.15" stroke-linecap="round" stroke-linejoin="round" d="M808.95,681.1 Q922.8,620.2 922.8,534.05 C922.8,476.6 884.85,427.6 808.95,386.95 733.05,346.35 641.4,326.05 534.05,326.05 426.7,326.05 335.05,346.35 259.15,386.95 183.25,427.6 145.3,476.6 145.3,534.05 145.3,591.5 183.25,640.5 259.15,681.1 335.05,721.75 426.7,742.05 534.05,742.05 641.4,742.05 733.05,721.75 808.95,681.1z"/>
    </g>
  </g>
  <g id="bg.__20circle">
    <g id="shape26">
      <path id="path17" fill="#FFFFFF" fill-opacity="1" d="M603.4,380.1 Q590.3,367 571.75,367 C559.4,367 548.85,371.35 540.1,380.1 531.35,388.85 527,399.4 527,411.75 527,424.1 531.35,434.65 540.1,443.4 548.85,452.15 559.4,456.5 571.75,456.5 584.1,456.5 594.65,452.15 603.4,443.4 612.15,434.65 616.5,424.1 616.5,411.75 616.5,399.4 612.15,388.85 603.4,380.1z M633.75,476.5 C638.4,476.5 642.35,474.85 645.6,471.6 648.85,468.35 650.5,464.4 650.5,459.75 650.5,455.1 648.85,451.15 645.6,447.9 642.35,444.65 638.4,443 633.75,443 629.1,443 625.15,444.65 621.9,447.9 618.65,451.15 617,455.1 617,459.75 617,464.4 618.65,468.35 621.9,471.6 625.15,474.85 629.1,476.5 633.75,476.5z"/>
    </g>
  </g>
</svg>