<?xml version="1.0" encoding="utf-8"?>
<!-- Generator: flash2svg, http://dissentgraphics.com/tools/flash2svg -->
<svg xmlns:xlink="http://www.w3.org/1999/xlink" id="CLEAR" image-rendering="optimizeSpeed" baseProfile="basic" version="1.1" style="background-color:#ffffff" x="0px" y="0px" width="1024px" height="1024px" viewBox="0 0 1024 1024" enable-background="new 0 0 1024 1024" xmlns="http://www.w3.org/2000/svg">
  <defs transform="matrix(1 0 0 1 0 0) "/>
  <g id="shadow">
    <g id="shape">
      <path id="path" fill="#000000" fill-opacity="0.09803921568627451" d="M965.65,350.3 Q957.05,329.45 946.25,309.45 C942.2,301.9 937.9,294.4 933.35,287.05 913.8,255.35 889.95,225.4 861.8,197.25 769.65,105.1 658.35,59 528,59 397.65,59 286.4,105.1 194.25,197.25 102.1,289.4 56,400.65 56,531 56,661.35 102.1,772.65 194.25,864.8 286.4,956.95 397.65,1003 528,1003 658.35,1003 769.65,956.95 861.8,864.8 912.55,814 949.35,757.4 972.15,695.05 990.7,644.2 1000,589.55 1000,531 1000,486.1 994.55,443.45 983.6,403.05 982.35,398.5 981.05,393.95 979.7,389.45 975.6,376.15 970.9,363.1 965.65,350.3z"/>
    </g>
  </g>
  <g id="bg.__20circle">
    <g id="shape2">
      <path id="path1" fill="#D70000" fill-opacity="1" d="M969.75,392.05 C968.65,387.7 967.4,383.05 966.1,378.45 963.6,369.7 960.75,360.85 957.65,352.1 951.2,333.85 943.5,316.05 934.5,298.45 930.7,291.05 926.55,283.5 922.2,276.05 L922.175,276.05 Q891.574,224.04 845.85,178.3 C753.7,86.15 642.5,40.1 512.15,40.05 L512.15,512.2 514.15,512.2 514.15,514.2 984.05,514.2 C984.05,513.55 984.05,512.8 984.05,512.05 984.05,470.3 979.35,430.45 969.75,392.05z"/>
      <path id="path2" fill="#F89500" fill-opacity="1" d="M983.15,543.3 C983.7,533.8 984.05,524.15 984.05,514.2 L514.15,514.2 514.15,984.05 C585.25,983.8 650.65,969.8 710.1,942.15 759.35,919.25 804.55,887.15 845.85,845.85 894.45,797.25 930.25,743.35 953.2,684.05 964.75,654.2 973.1,622.95 978.15,590.4 980.55,575 982.2,559.3 983.15,543.3z"/>
      <path id="path3" fill="#F95B00" fill-opacity="1" d="M512.15,40.05 C512.1,40.05 512.1,40.05 512.05,40.05 381.7,40.05 270.45,86.15 178.3,178.3 86.15,270.45 40.05,381.7 40.05,512.05 40.05,512.1 40.05,512.15 40.05,512.2 L512.15,512.2 512.15,40.05z"/>
      <path id="path4" fill="#FB2C00" fill-opacity="1" d="M514.15,514.2 L514.15,512.2 512.15,512.2 40.05,512.2 C40.1,642.5 86.15,753.7 178.3,845.85 246.35,913.9 324.8,956.8 413.2,974.5 445.15,980.9 477.95,984.05 512.05,984.05 512.8,984.05 513.55,984.05 514.15,984.05 L514.15,514.2z"/>
    </g>
  </g>
  <g id="brush">
    <g id="shape8">
      <path id="path5" fill="#000000" fill-opacity="0.2" d="M954.55,683.3 Q971.9,638.5 979.5,589.65 L742.4,352.55 513.5,497.75 513.5,511.45 491.9,511.45 456.4,533.95 355.65,511.45 281.5,511.45 711.45,941.4 C760.7,918.5 805.9,886.4 847.2,845.1 895.8,796.5 931.6,742.6 954.55,683.3z"/>
    </g>
  </g>
  <g id="inner.__20circle">
    <g id="shape10">
      <path id="path6" fill="#FFFFFF" fill-opacity="1" d="M679.05,291.3 Q671.95,284.25 664.9,291.3 L462.45,493.75 359.25,390.5 C354.5,385.75 349.8,385.75 345.05,390.5 L258.8,476.75 C254.1,481.45 254.1,486.15 258.85,490.9 L455.4,687.45 C459.55,691.6 463.7,692.15 467.8,689 L469.55,687.5 765.35,391.7 C770.05,387 770.05,382.3 765.3,377.55 L679.05,291.3z"/>
    </g>
  </g>
</svg>