<?xml version="1.0" encoding="utf-8"?>
<!-- Generator: flash2svg, http://dissentgraphics.com/tools/flash2svg -->
<svg xmlns:xlink="http://www.w3.org/1999/xlink" id="APPSTORE" image-rendering="optimizeSpeed" baseProfile="basic" version="1.1" style="background-color:#ffffff" x="0px" y="0px" width="1024px" height="1024px" viewBox="0 0 1024 1024" enable-background="new 0 0 1024 1024" xmlns="http://www.w3.org/2000/svg">
  <defs transform="matrix(1 0 0 1 0 0) "/>
  <g id="shadow">
    <g id="shape">
      <path id="path" fill="#000000" fill-opacity="0.09803921568627451" d="M964.65,346.3 Q956.05,325.45 945.25,305.45 C941.2,297.9 936.9,290.4 932.35,283.05 912.8,251.35 888.95,221.4 860.8,193.25 768.65,101.1 657.35,55 527,55 396.65,55 285.4,101.1 193.25,193.25 101.1,285.4 55,396.65 55,527 55,657.35 101.1,768.65 193.25,860.8 285.4,952.95 396.65,999 527,999 657.35,999 768.65,952.95 860.8,860.8 911.55,810 948.35,753.4 971.15,691.05 989.7,640.2 999,585.55 999,527 999,482.1 993.55,439.45 982.6,399.05 981.35,394.5 980.05,389.95 978.7,385.45 974.6,372.15 969.9,359.1 964.65,346.3z"/>
    </g>
  </g>
  <g id="bg.__20circle">
    <g id="shape2">
      <path id="path1" fill="#0099CC" fill-opacity="1" d="M969.75,392.05 C968.65,387.7 967.4,383.05 966.1,378.45 963.6,369.7 960.75,360.85 957.65,352.1 951.2,333.85 943.5,316.05 934.5,298.45 930.7,291.05 926.55,283.5 922.2,276.05 L922.175,276.05 Q891.574,224.04 845.85,178.3 C753.7,86.15 642.4,40.05 512.05,40.05 381.7,40.05 270.45,86.15 178.3,178.3 86.15,270.45 40.05,381.7 40.05,512.05 40.05,642.4 86.15,753.7 178.3,845.85 246.35,913.9 324.8,956.8 413.2,974.5 445.15,980.9 477.95,984.05 512.05,984.05 642.4,984.05 753.7,938 845.85,845.85 894.45,797.25 930.25,743.35 953.2,684.05 970.2,640.1 980.2,593.25 983.15,543.3 983.75,533.1 984.05,522.65 984.05,512.05 984.05,470.3 979.35,430.45 969.75,392.05z"/>
    </g>
  </g>
  <g id="inner.__20circle">
    <g id="shape4">
      <path id="path2" fill="#006A91" fill-opacity="1" d="M953.2,684.05 C970.2,640.1 980.2,593.25 983.15,543.3 L581.45,141.6 237.6,798.9 413.2,974.5 Q460.642,984.05 512.05,984.05 C642.4,984.05 753.7,938 845.85,845.85 894.45,797.25 930.25,743.35 953.2,684.05z"/>
    </g>
  </g>
  <g id="src">
    <g id="shape6">
      <path id="path3" fill="#CCCCCC" fill-opacity="1" d="M753.8,459.6 L746.2,459.6 746.2,507.25 753.8,507.25 753.8,459.6z M695.95,459.35 L695.95,487.1 703.5,487.1 703.5,460.325 703.5,459.35 703.125,459.35 581.45,141.6 C578.45,133.75 573,131.3 565.15,134.35 L531.7,147.1 C523.85,150.15 521.45,155.6 524.45,163.45 L527.725,171.975 582.65,197.05 C590.3,200.55 592.15,206.65 588.25,215.15 L567.25,261.45 564.375,267.7 637.775,459.35 645.7,459.35 645.7,507.25 653.25,507.25 653.25,459.35 695.95,459.35z M763.85,623.1 L765.6,622.45 758.125,602.95 692.775,602.95 708.6,644.3 712.2,642.9 763.85,623.1z M511.3,263.8 L463.65,242.1 248.05,715.15 247.5,716.25 247.6,716.35 247.75,716.4 C247.8,716.2 247.8,716.1 247.85,715.95 248.85,714.7 249.75,713.7 250.75,712.8 253.3,710.6 256.2,708.85 259.5,707.65 266.55,705 273.45,705.25 280.25,708.4 287.05,711.5 291.75,716.5 294.35,723.5 295.85,727.35 296.4,731.25 296.1,735.15 296.05,735.45 296.05,735.8 296.05,736.1 296,736.15 296,736.15 295.9,736.25 L296,736.25 296.1,736.05 511.3,263.8z M251.2,459.35 L243.65,459.35 243.65,507.25 251.2,507.25 251.2,459.35z M293.9,459.35 L293.9,487.1 294.05,487.1 301.45,470.85 301.45,459.35 293.9,459.35z M603,459.35 L595.45,459.35 595.45,487.1 603,487.1 603,459.35z M502.5,459.35 L494.95,459.35 494.95,486.4 502.5,486.4 502.5,459.35z M552.75,459.35 L545.2,459.35 545.2,507.25 552.75,507.25 552.75,459.35z"/>
      <path id="path4" fill="#FFFFFF" fill-opacity="1" d="M746.2,459.6 L746.2,459.35 703.5,459.35 703.5,460.325 703.5,487.1 695.95,487.1 695.95,459.35 653.25,459.35 653.25,507.25 645.7,507.25 645.7,459.35 637.775,459.35 603,459.35 603,487.1 595.45,487.1 595.45,459.35 552.75,459.35 552.75,507.25 545.2,507.25 545.2,459.35 502.5,459.35 502.5,486.4 494.95,486.4 494.95,459.35 476.95,459.35 411.5,602.95 692.775,602.95 758.125,602.95 778.35,602.95 C786.7,602.95 790.95,598.75 790.95,590.35 L790.95,471.95 C790.95,463.6 786.7,459.35 778.35,459.35 L753.8,459.35 753.8,459.6 753.8,507.25 746.2,507.25 746.2,459.6z M808.65,692.5 C807.6,688.55 806.65,685.05 805.8,682.05 804.95,679.25 804.1,676.85 803.35,674.9 795.6,654.75 784.8,639.15 770.95,628.15 768.6,626.2 766.25,624.55 763.85,623.1 L712.2,642.9 C711.45,645.5 710.8,648.35 710.25,651.4 708.6,661.15 708.7,671.4 710.45,682.05 711.75,690.4 714.1,698.95 717.5,707.75 725.25,727.9 736,743.5 749.8,754.55 750.7,755.3 751.6,755.95 752.5,756.55 759.85,761.9 768.3,766.55 777.9,770.5 L841.8,796.45 C833,792.15 826.75,779.9 823,759.65 819.3,739.4 816.5,725.05 814.6,716.6 812.65,708.2 810.65,700.15 808.65,692.5z M582.65,197.05 L527.725,171.975 464.65,143.2 C457,139.75 451.25,142.35 447.3,150.85 L426.3,197.15 474.2,219 521.9,240.7 567.25,261.45 588.25,215.15 C592.15,206.65 590.3,200.55 582.65,197.05z M293.9,487.1 L293.9,459.35 251.2,459.35 251.2,507.25 243.65,507.25 243.65,459.35 222.85,459.35 C214.5,459.35 210.25,463.6 210.25,471.95 L210.25,590.35 C210.25,598.75 214.5,602.95 222.85,602.95 L241.225,602.95 294.05,487.1 293.9,487.1z M301.45,459.35 L301.45,470.85 306.7,459.35 301.45,459.35z M232.45,686.15 C225.65,683 218.7,682.75 211.8,685.3 208.55,686.55 205.85,688.2 203.45,690.2 203.45,690.45 203.55,690.65 203.6,690.8 203.8,692.65 204.45,694.3 205.55,695.75 L227.65,766.95 C234.5,767.45 241.65,769.5 248.95,772.9 256.5,776.3 262.85,780.5 267.95,785.55 L338.3,754.55 C338.85,754.35 339.45,754.05 339.95,753.8 341.15,753.15 342.25,752.15 343.35,750.9 343.05,748.95 342.5,746.8 341.7,744.55 339.05,737.6 334.4,732.6 327.6,729.5 320.75,726.4 313.8,726.15 306.9,728.65 303.5,729.95 300.6,731.75 298.1,733.95 297.45,734.6 296.75,735.3 296.1,736.05 L296,736.25 295.9,736.25 C296,736.15 296,736.15 296.05,736.1 296.05,735.8 296.05,735.45 296.1,735.15 296.4,731.25 295.85,727.35 294.35,723.5 291.75,716.5 287.05,711.5 280.25,708.4 273.45,705.25 266.55,705 259.5,707.65 256.2,708.85 253.3,710.6 250.75,712.8 249.75,713.7 248.85,714.7 247.85,715.95 247.8,716.1 247.8,716.2 247.75,716.4 L247.6,716.35 247.5,716.25 248.05,715.15 C248.2,714.4 248.25,713.6 248.3,712.95 248.7,709 248.1,705.1 246.6,701.2 243.9,694.3 239.25,689.25 232.45,686.15z"/>
      <path id="path13" fill="#717171" fill-opacity="1" d="M463.65,242.1 L474.2,219 426.3,197.15 415.7,220.25 463.65,242.1z"/>
      <path id="path14" fill="#666666" fill-opacity="1" d="M474.2,219 L463.65,242.1 511.3,263.8 521.9,240.7 474.2,219z"/>
      <path id="path15" fill="#EAEAEA" fill-opacity="1" d="M463.65,242.1 L415.7,220.25 306.7,459.35 301.45,470.85 294.05,487.1 241.225,602.95 205.4,681.55 C204.2,684.25 203.55,686.75 203.45,688.95 203.55,689.3 203.45,689.8 203.45,690.2 205.85,688.2 208.55,686.55 211.8,685.3 218.7,682.75 225.65,683 232.45,686.15 239.25,689.25 243.9,694.3 246.6,701.2 248.1,705.1 248.7,709 248.3,712.95 248.25,713.6 248.2,714.4 248.05,715.15 L463.65,242.1z"/>
      <path id="path16" fill="#515151" fill-opacity="1" d="M556.65,284.55 L564.375,267.7 567.25,261.45 521.9,240.7 511.3,263.8 556.65,284.55z"/>
      <path id="path20" fill="#BEBEBE" fill-opacity="1" d="M556.65,284.55 L511.3,263.8 296.1,736.05 C296.75,735.3 297.45,734.6 298.1,733.95 300.6,731.75 303.5,729.95 306.9,728.65 313.8,726.15 320.75,726.4 327.6,729.5 334.4,732.6 339.05,737.6 341.7,744.55 342.5,746.8 343.05,748.95 343.35,750.9 344.4,749.6 345.4,747.95 346.35,745.85 L411.5,602.95 476.95,459.35 556.65,284.55z"/>
      <path id="path33" fill="#919D9F" fill-opacity="1" d="M267.95,785.55 C262.85,780.5 256.5,776.3 248.95,772.9 241.65,769.5 234.5,767.45 227.65,766.95 L237.6,798.9 267.95,785.55z"/>
    </g>
  </g>
</svg>