<?xml version="1.0" encoding="utf-8"?>
<!-- Generator: flash2svg, http://dissentgraphics.com/tools/flash2svg -->
<svg xmlns:xlink="http://www.w3.org/1999/xlink" id="CODAVARIANTE" image-rendering="optimizeSpeed" baseProfile="basic" version="1.1" style="background-color:#ffffff" x="0px" y="0px" width="1024px" height="1024px" viewBox="0 0 1024 1024" enable-background="new 0 0 1024 1024" xmlns="http://www.w3.org/2000/svg">
  <defs transform="matrix(1 0 0 1 0 0) "/>
  <g id="shadow">
    <g id="shape">
      <path id="path" fill="#000000" fill-opacity="0.09803921568627451" d="M965.65,350.3 Q957.05,329.45 946.25,309.45 C942.2,301.9 937.9,294.4 933.35,287.05 913.8,255.35 889.95,225.4 861.8,197.25 769.65,105.1 658.35,59 528,59 397.65,59 286.4,105.1 194.25,197.25 102.1,289.4 56,400.65 56,531 56,661.35 102.1,772.65 194.25,864.8 286.4,956.95 397.65,1003 528,1003 658.35,1003 769.65,956.95 861.8,864.8 912.55,814 949.35,757.4 972.15,695.05 990.7,644.2 1000,589.55 1000,531 1000,486.1 994.55,443.45 983.6,403.05 982.35,398.5 981.05,393.95 979.7,389.45 975.6,376.15 970.9,363.1 965.65,350.3z"/>
    </g>
  </g>
  <g id="brush.__20copy">
    <g id="shape2">
      <path id="path1" fill="#4F5691" fill-opacity="1" d="M983.05,511.55 Q983.05,502.25 982.75,493.05 C978.5,370.75 932.6,265.8 844.95,178.15 752.9,86.1 641.75,40.05 511.55,40.05 381.3,40.05 270.2,86.1 178.15,178.15 86.1,270.2 40.05,381.3 40.05,511.55 40.05,641.75 86.1,752.9 178.15,844.95 262.15,928.95 362.1,974.65 477.95,982.05 488.95,982.7 500.15,983.05 511.55,983.05 641.75,983.05 752.9,937 844.95,844.95 937,752.9 983.05,641.75 983.05,511.55z"/>
    </g>
  </g>
  <g id="Calque.__204">
    <g id="shape4">
      <path id="path2" fill="#333764" fill-opacity="1" d="M983.05,511.55 Q983.05,502.25 982.75,493.05 L686.7,197 643.2,301.9 306.25,594.05 278.35,782.45 477.95,982.05 C488.95,982.7 500.15,983.05 511.55,983.05 641.75,983.05 752.9,937 844.95,844.95 937,752.9 983.05,641.75 983.05,511.55z"/>
    </g>
  </g>
  <g id="brush">
    <g id="drawingObject">
      <path id="path3" fill="#659D65" fill-opacity="1" d="M673.43,691.271 C835.197,500.576 686.794,197.085 686.794,197.085 L707.578,247.463 L686.794,197.085 C499.142,403.789 349.526,345.616 260.241,528.737 Q204.428,643.353 245.12,732.268 265.559,776.885 297.076,798.287 C344.759,599.161 585.946,458.629 585.946,458.629 365.786,657.703 364.798,825.61 364.798,825.61 L390.254,831.35 L364.798,825.61 C364.798,825.61 511.73,881.713 673.43,691.271z"/>
    </g>
    <g id="drawingObject1">
      <path id="path4" fill="#568357" fill-opacity="1" d="M673.43,691.271 Q774.48,572.038 740.703,372.682 730.179,310.206 707.578,247.463 L686.794,197.085 C729.208,364.203 585.946,458.629 585.946,458.629 365.786,657.703 364.798,825.61 364.798,825.61 L390.254,831.35 L364.798,825.61 C364.798,825.61 511.73,881.713 673.43,691.271z"/>
    </g>
    <g id="drawingObject2">
      <path id="path5" fill="#659D65" fill-opacity="1" d="M479.047,737.717 C480.936,730.665 473.454,709.225 474.777,698.242 470.247,708.096 453.232,723.242 451.342,730.294 449.453,737.346 454.197,744.826 461.753,746.851 Q467.546,748.403 472.588,745.704 477.63,743.006 479.047,737.717z"/>
    </g>
    <g id="drawingObject3">
      <path id="path6" fill="#659D65" fill-opacity="1" d="M679.474,564.939 C683.59,549.576 667.236,502.814 670.103,479.017 660,500.605 623.144,533.381 619.028,548.744 614.844,564.359 625.138,580.344 641.761,584.798 Q654.354,588.172 665.328,582.474 676.37,576.525 679.474,564.939z"/>
    </g>
    <g id="drawingObject4">
      <path id="path7" fill="#82D282" fill-opacity="1" d="M384.28,528.228 C387.181,517.398 375.832,485.204 377.816,468.73 370.862,483.602 345.373,506.196 342.471,517.026 339.637,527.604 346.594,538.916 358.179,542.02 Q366.743,544.315 374.591,540.209 382.12,536.288 384.28,528.228z"/>
    </g>
  </g>
</svg>