<?xml version="1.0" encoding="utf-8"?>
<!-- Generator: flash2svg, http://dissentgraphics.com/tools/flash2svg -->
<svg xmlns:xlink="http://www.w3.org/1999/xlink" id="Adobe-After-Effect-file" image-rendering="optimizeSpeed" baseProfile="basic" version="1.1" style="background-color:#ffffff" x="0px" y="0px" width="1024px" height="1024px" viewBox="0 0 1024 1024" enable-background="new 0 0 1024 1024" xmlns="http://www.w3.org/2000/svg">
  <defs transform="matrix(1 0 0 1 0 0) "/>
  <g id="Shadow">
    <g id="shape">
      <path id="path" fill="#000000" fill-opacity="0.09803921568627451" d="M904.4,90.05 C904.4,77.05 893.8,66.45 880.95,66.45 L389.25,66.45 175.2,275.65 175.2,983.45 C175.2,996.5 185.6,1007.05 198.6,1007.05 L880.95,1007.05 C893.8,1007.05 904.4,996.5 904.4,983.45 L904.4,90.05z"/>
    </g>
  </g>
  <g id="Bg">
    <g id="shape2">
      <path id="path1" fill="#6C5D87" fill-opacity="1" d="M880.95,66.45 C880.95,53.4 870.35,43 857.35,43 L365.65,43 151.55,252.2 151.55,960 Q151.55,969.6 158.5,976.5 165.4,983.45 175.2,983.45 L857.35,983.45 C861.8,983.45 866,982.2 869.65,980.05 871.2,979.1 872.65,977.9 874.05,976.5 874.35,976.2 874.65,975.9 874.95,975.6 878.95,971.15 880.95,965.95 880.95,960 L880.95,66.45z"/>
    </g>
  </g>
  <g id="Ico">
    <g id="shape4">
      <path id="path2" fill="#000000" fill-opacity="0.2" d="M661.15,534.05 C658.9,532.9 655.9,532 652.25,531.35 L641.5,529.95 626.55,529.7 C620.1,529.7 614.4,530.1 609.45,531.05 603.55,532 598.6,533.75 594.6,536.35 590.6,538.95 587.5,542.3 585.3,546.45 583.15,550.7 581.5,556.25 580.35,563.3 579.3,570.4 578.8,578.95 578.8,588.95 578.8,598.8 579.45,607.35 580.8,614.65 582.15,621.85 584.25,627.6 586.95,632 589.65,636.45 593.5,639.8 598.35,642.05 603.2,644.2 609.2,645.25 616.2,645.25 L641.7,644.85 655.1,643.8 C661.55,643.2 668,641.75 674.45,639.3 L674.45,618.95 C664.2,620.55 653.5,621.35 642.35,621.35 L621.85,620.8 C619.45,620.45 617.05,619.55 614.75,618.15 612.4,616.85 610.85,614.7 610.05,611.7 609.25,608.7 608.8,604.7 608.8,599.65 L644.95,599.65 C658.9,599.65 668.2,595.6 672.95,587.45 675.4,583.2 676.65,576.9 676.65,568.55 Q676.65,556 672.75,546.4 C671.6,543.5 669.95,541.05 667.85,539 L661.15,534.05z M643.75,555.7 C645.65,557.8 646.65,562.4 646.65,569.5 646.65,575.2 643.5,578.05 637.2,578.05 L608.8,578.05 608.8,572.8 609.6,563.5 C610.2,560.25 611.5,557.8 613.6,556.1 615.6,554.5 617.75,553.55 620,553.2 L632.1,552.55 C637.95,552.55 641.85,553.6 643.75,555.7z M491,382.65 L434.25,382.65 346.3,643.75 399.8,643.75 418.55,585.9 504.3,585.9 522.75,643.75 576.05,643.75 491,382.65z M463.2,448.3 L492.45,541.65 431.85,541.65 463.2,448.3z"/>
    </g>
  </g>
  <g id="peel">
    <g id="shape14">
      <path id="path11" fill="#000000" fill-opacity="0.2" d="M384.6,66.45 C384.6,59.95 382.35,54.45 377.65,49.95 373.6,45.85 368.9,43.65 363.4,43.2 L151.55,252.2 Q151.55,262 158.5,268.9 165.4,275.65 175.2,275.65 L360.95,275.65 C374,275.65 384.6,265.25 384.6,252.2 L384.6,66.45z"/>
    </g>
  </g>
</svg>