<?xml version="1.0" encoding="utf-8"?>
<!-- Generator: flash2svg, http://dissentgraphics.com/tools/flash2svg -->
<svg xmlns:xlink="http://www.w3.org/1999/xlink" id="Adobe-Lightroom-file" image-rendering="optimizeSpeed" baseProfile="basic" version="1.1" style="background-color:#ffffff" x="0px" y="0px" width="1024px" height="1024px" viewBox="0 0 1024 1024" enable-background="new 0 0 1024 1024" xmlns="http://www.w3.org/2000/svg">
  <defs transform="matrix(1 0 0 1 0 0) "/>
  <g id="Shadow">
    <g id="shape">
      <path id="path" fill="#000000" fill-opacity="0.09803921568627451" d="M904.4,90.05 C904.4,77.05 893.8,66.45 880.95,66.45 L389.25,66.45 175.2,275.65 175.2,983.45 C175.2,996.5 185.6,1007.05 198.6,1007.05 L880.95,1007.05 C893.8,1007.05 904.4,996.5 904.4,983.45 L904.4,90.05z"/>
    </g>
  </g>
  <g id="Bg">
    <g id="shape2">
      <path id="path1" fill="#374558" fill-opacity="1" d="M880.95,66.45 C880.95,53.4 870.35,43 857.35,43 L365.65,43 151.55,252.2 151.55,960 Q151.55,969.6 158.5,976.5 165.4,983.45 175.2,983.45 L857.35,983.45 C861.8,983.45 866,982.2 869.65,980.05 871.2,979.1 872.65,977.9 874.05,976.5 874.35,976.2 874.65,975.9 874.95,975.6 878.95,971.15 880.95,965.95 880.95,960 L880.95,66.45z"/>
    </g>
  </g>
  <g id="Ico">
    <g id="shape4">
      <path id="path2" fill="#000000" fill-opacity="0.2" d="M433.9,381.35 L383.5,381.35 383.5,593.55 C383.5,610.65 388.05,623.4 397.2,631.85 406.35,640.4 419.95,644.7 438.15,644.7 L546.5,644.7 546.5,598.3 456.2,598.3 C449.9,598.3 445,597.6 441.45,596.2 436.45,594.2 433.9,588.6 433.9,579.5 L433.9,381.35z M630.3,529.35 C624.75,529.35 619.25,530.65 613.85,533.3 608.35,535.9 602.95,539.8 597.5,545 L592.75,530.55 567.25,530.55 567.25,645.1 597.5,645.1 597.5,571.95 C600.95,567.05 604.95,563.65 609.55,561.85 614,560.1 619.7,559.2 626.6,559.2 L643.05,559.85 643.05,530.75 C640.75,529.85 636.5,529.35 630.3,529.35z"/>
    </g>
  </g>
  <g id="peel">
    <g id="shape8">
      <path id="path5" fill="#000000" fill-opacity="0.2" d="M384.6,66.45 C384.6,59.95 382.35,54.45 377.65,49.95 373.6,45.85 368.9,43.65 363.4,43.2 L151.55,252.2 Q151.55,262 158.5,268.9 165.4,275.65 175.2,275.65 L360.95,275.65 C374,275.65 384.6,265.25 384.6,252.2 L384.6,66.45z"/>
    </g>
  </g>
</svg>