<?xml version="1.0" encoding="utf-8"?>
<!-- Generator: flash2svg, http://dissentgraphics.com/tools/flash2svg -->
<svg xmlns:xlink="http://www.w3.org/1999/xlink" id="Adobe-Illustrator-file" image-rendering="optimizeSpeed" baseProfile="basic" version="1.1" style="background-color:#ffffff" x="0px" y="0px" width="1024px" height="1024px" viewBox="0 0 1024 1024" enable-background="new 0 0 1024 1024" xmlns="http://www.w3.org/2000/svg">
  <defs transform="matrix(1 0 0 1 0 0) "/>
  <g id="Shadow">
    <g id="shape">
      <path id="path" fill="#000000" fill-opacity="0.09803921568627451" d="M904.4,90.05 C904.4,77.05 893.8,66.45 880.95,66.45 L389.25,66.45 175.2,275.65 175.2,983.45 C175.2,996.5 185.6,1007.05 198.6,1007.05 L880.95,1007.05 C893.8,1007.05 904.4,996.5 904.4,983.45 L904.4,90.05z"/>
    </g>
  </g>
  <g id="Bg">
    <g id="shape2">
      <path id="path1" fill="#AF8F29" fill-opacity="1" d="M880.95,66.45 C880.95,53.4 870.35,43 857.35,43 L365.65,43 151.55,252.2 151.55,960 Q151.55,969.6 158.5,976.5 165.4,983.45 175.2,983.45 L857.35,983.45 C861.8,983.45 866,982.2 869.65,980.05 871.2,979.1 872.65,977.9 874.05,976.5 874.35,976.2 874.65,975.9 874.95,975.6 878.95,971.15 880.95,965.95 880.95,960 L880.95,66.45z"/>
    </g>
  </g>
  <g id="Ico">
    <g id="shape4">
      <path id="path2" fill="#000000" fill-opacity="0.2" d="M520,381.9 L467.5,381.9 386.15,646.5 435.55,646.5 452.95,587.9 532.25,587.9 549.35,646.5 598.65,646.5 520,381.9z M521.3,543.05 L465.25,543.05 494.25,448.5 521.3,543.05z M633.7,489.95 L612.9,489.95 C609.75,489.95 608.15,491.8 608.15,495.5 L608.15,514.65 C608.15,516.25 608.55,517.45 609.4,518.4 610.3,519.2 611.4,519.65 612.9,519.65 L633.7,519.65 C636.6,519.65 638.05,518 638.05,514.65 L638.05,495.5 C638.05,491.8 636.6,489.95 633.7,489.95z M636.9,531.85 L609.15,531.85 609.15,646.95 636.9,646.95 636.9,531.85z"/>
    </g>
  </g>
  <g id="peel">
    <g id="shape13">
      <path id="path10" fill="#000000" fill-opacity="0.2" d="M384.6,66.45 C384.6,59.95 382.35,54.45 377.65,49.95 373.6,45.85 368.9,43.65 363.4,43.2 L151.55,252.2 Q151.55,262 158.5,268.9 165.4,275.65 175.2,275.65 L360.95,275.65 C374,275.65 384.6,265.25 384.6,252.2 L384.6,66.45z"/>
    </g>
  </g>
</svg>