<?xml version="1.0" encoding="utf-8"?>
<!-- Generator: flash2svg, http://dissentgraphics.com/tools/flash2svg -->
<svg xmlns:xlink="http://www.w3.org/1999/xlink" id="Adobe-Indesign-file" image-rendering="optimizeSpeed" baseProfile="basic" version="1.1" style="background-color:#ffffff" x="0px" y="0px" width="1024px" height="1024px" viewBox="0 0 1024 1024" enable-background="new 0 0 1024 1024" xmlns="http://www.w3.org/2000/svg">
  <defs transform="matrix(1 0 0 1 0 0) "/>
  <g id="Shadow">
    <g id="shape">
      <path id="path" fill="#000000" fill-opacity="0.09803921568627451" d="M904.4,90.05 C904.4,77.05 893.8,66.45 880.95,66.45 L389.25,66.45 175.2,275.65 175.2,983.45 C175.2,996.5 185.6,1007.05 198.6,1007.05 L880.95,1007.05 C893.8,1007.05 904.4,996.5 904.4,983.45 L904.4,90.05z"/>
    </g>
  </g>
  <g id="Bg">
    <g id="shape2">
      <path id="path1" fill="#5F213B" fill-opacity="1" d="M880.95,66.45 C880.95,53.4 870.35,43 857.35,43 L365.65,43 151.55,252.2 151.55,960 Q151.55,969.6 158.5,976.5 165.4,983.45 175.2,983.45 L857.35,983.45 C861.8,983.45 866,982.2 869.65,980.05 871.2,979.1 872.65,977.9 874.05,976.5 874.35,976.2 874.65,975.9 874.95,975.6 878.95,971.15 880.95,965.95 880.95,960 L880.95,66.45z"/>
    </g>
  </g>
  <g id="Ico">
    <g id="shape4">
      <path id="path2" fill="#000000" fill-opacity="0.2" d="M473.95,381.55 L423.45,381.55 423.45,428.65 473.95,428.65 473.95,381.55z M602.05,476.05 L571.75,476.05 571.75,536.85 C566.65,534.55 560.9,532.7 554.45,531.4 547.95,529.95 542.1,529.25 536.9,529.25 524.9,529.25 516,532.7 510.1,539.6 507.35,542.85 504.9,548 502.8,555 500.6,562.05 499.55,574.25 499.55,591.55 499.55,600.2 500.2,607.95 501.65,614.7 503.1,621.5 505.3,627.4 508.15,632.35 511.05,637.25 514.9,640.95 519.7,643.45 524.45,645.9 530.2,647.15 536.9,647.15 543.25,647.15 549.6,645.85 555.9,643.2 562.25,640.7 567.55,637.65 571.75,634.15 L576.9,645.85 602.05,645.85 602.05,476.05z M531.6,565.8 C532.8,560.65 534.45,557.25 536.45,555.55 538.5,553.85 541.35,553 544.9,553 555.3,553 564.2,554.45 571.75,557.35 L571.75,614.25 C568.1,616.6 564,618.35 559.5,619.45 555.1,620.65 550.2,621.25 544.9,621.25 539.7,621.25 535.9,618.75 533.4,613.75 532.2,611.25 531.3,608.05 530.65,604 L529.85,590 C529.85,579.05 530.4,571 531.6,565.8z M473.95,438.65 L423.45,438.65 423.45,645.4 473.95,645.4 473.95,438.65z"/>
    </g>
  </g>
  <g id="peel">
    <g id="shape13">
      <path id="path10" fill="#000000" fill-opacity="0.2" d="M384.6,66.45 C384.6,59.95 382.35,54.45 377.65,49.95 373.6,45.85 368.9,43.65 363.4,43.2 L151.55,252.2 Q151.55,262 158.5,268.9 165.4,275.65 175.2,275.65 L360.95,275.65 C374,275.65 384.6,265.25 384.6,252.2 L384.6,66.45z"/>
    </g>
  </g>
</svg>