<?xml version="1.0" encoding="utf-8"?>
<!-- Generator: flash2svg, http://dissentgraphics.com/tools/flash2svg -->
<svg xmlns:xlink="http://www.w3.org/1999/xlink" id="Adobe-Premiere-file" image-rendering="optimizeSpeed" baseProfile="basic" version="1.1" style="background-color:#ffffff" x="0px" y="0px" width="1024px" height="1024px" viewBox="0 0 1024 1024" enable-background="new 0 0 1024 1024" xmlns="http://www.w3.org/2000/svg">
  <defs transform="matrix(1 0 0 1 0 0) "/>
  <g id="Shadow">
    <g id="shape">
      <path id="path" fill="#000000" fill-opacity="0.09803921568627451" d="M904.4,90.05 C904.4,77.05 893.8,66.45 880.95,66.45 L389.25,66.45 175.2,275.65 175.2,983.45 C175.2,996.5 185.6,1007.05 198.6,1007.05 L880.95,1007.05 C893.8,1007.05 904.4,996.5 904.4,983.45 L904.4,90.05z"/>
    </g>
  </g>
  <g id="Bg">
    <g id="shape2">
      <path id="path1" fill="#554265" fill-opacity="1" d="M880.95,66.45 C880.95,53.4 870.35,43 857.35,43 L365.65,43 151.55,252.2 151.55,960 Q151.55,969.6 158.5,976.5 165.4,983.45 175.2,983.45 L857.35,983.45 C861.8,983.45 866,982.2 869.65,980.05 871.2,979.1 872.65,977.9 874.05,976.5 874.35,976.2 874.65,975.9 874.95,975.6 878.95,971.15 880.95,965.95 880.95,960 L880.95,66.45z"/>
    </g>
  </g>
  <g id="Ico">
    <g id="shape4">
      <path id="path2" fill="#000000" fill-opacity="0.2" d="M523.75,386.6 C514.2,382.9 502.9,381.05 489.85,381.05 L375.75,381.05 375.75,645.85 426.4,645.85 426.4,540.95 456.05,545 497.05,548.2 C508.6,548.2 519.1,546.05 528.5,541.7 535.75,538.6 541.65,534.05 546.35,528.1 551.1,522.2 555.05,513.7 558.4,502.6 561.55,491.6 563.15,478.3 563.15,462.85 563.15,436.3 557.7,416.4 546.9,403.15 541,395.8 533.3,390.2 523.75,386.6z M509.05,487.3 C507.1,493.4 504,497.65 499.9,500.15 496.25,502.3 491.55,503.35 485.8,503.35 L426.4,503.35 426.4,425.95 485.8,425.95 C494.5,425.95 501.05,429.05 505.35,435.3 509.85,441.45 512.15,450.8 512.25,463.25 512.25,473.15 511.2,481.1 509.05,487.3z M633.55,529.95 C628,529.95 622.5,531.25 617,533.85 611.5,536.45 606.05,540.4 600.6,545.6 L595.8,531.1 570.2,531.1 570.2,646.3 600.6,646.3 600.6,572.75 C604.05,567.8 608.1,564.4 612.7,562.6 617.2,560.85 622.9,559.95 629.85,559.95 L646.4,560.55 646.4,531.35 C644.05,530.4 639.8,529.95 633.55,529.95z"/>
    </g>
  </g>
  <g id="peel">
    <g id="shape11">
      <path id="path8" fill="#000000" fill-opacity="0.2" d="M384.6,66.45 C384.6,59.95 382.35,54.45 377.65,49.95 373.6,45.85 368.9,43.65 363.4,43.2 L151.55,252.2 Q151.55,262 158.5,268.9 165.4,275.65 175.2,275.65 L360.95,275.65 C374,275.65 384.6,265.25 384.6,252.2 L384.6,66.45z"/>
    </g>
  </g>
</svg>