<?xml version="1.0" encoding="utf-8"?>
<!-- Generator: flash2svg, http://dissentgraphics.com/tools/flash2svg -->
<svg xmlns:xlink="http://www.w3.org/1999/xlink" id="Adobe-Flash-file" image-rendering="optimizeSpeed" baseProfile="basic" version="1.1" style="background-color:#ffffff" x="0px" y="0px" width="1024px" height="1024px" viewBox="0 0 1024 1024" enable-background="new 0 0 1024 1024" xmlns="http://www.w3.org/2000/svg">
  <defs transform="matrix(1 0 0 1 0 0) "/>
  <g id="Shadow">
    <g id="shape">
      <path id="path" fill="#000000" fill-opacity="0.09803921568627451" d="M904.4,90.05 C904.4,77.05 893.8,66.45 880.95,66.45 L389.25,66.45 175.2,275.65 175.2,983.45 C175.2,996.5 185.6,1007.05 198.6,1007.05 L880.95,1007.05 C893.8,1007.05 904.4,996.5 904.4,983.45 L904.4,90.05z"/>
    </g>
  </g>
  <g id="Bg">
    <g id="shape2">
      <path id="path1" fill="#9E4F00" fill-opacity="1" d="M880.95,66.45 C880.95,53.4 870.35,43 857.35,43 L365.65,43 151.55,252.2 151.55,960 Q151.55,969.6 158.5,976.5 165.4,983.45 175.2,983.45 L857.35,983.45 C861.8,983.45 866,982.2 869.65,980.05 871.2,979.1 872.65,977.9 874.05,976.5 874.35,976.2 874.65,975.9 874.95,975.6 878.95,971.15 880.95,965.95 880.95,960 L880.95,66.45z"/>
    </g>
  </g>
  <g id="Ico">
    <g id="shape4">
      <path id="path2" fill="#000000" fill-opacity="0.2" d="M436,382.35 L421.6,384.8 C409.45,388.2 400.35,394.3 394.2,403.05 388.25,411.85 385.3,423.4 385.3,437.65 L385.3,645.6 435.7,645.6 435.7,539.55 542.05,536.15 542.05,494.55 435.7,490.85 435.7,449.95 C435.7,444.25 436.4,439.65 437.75,436.25 439.85,431.9 445.4,429.75 454.25,429.75 L558.25,429.75 558.25,388.15 C542.9,385.9 519.6,384.35 488.35,383.6 L436,382.35z M616.8,477 L586.5,477 586.5,605.25 C586.5,619.95 589,630.4 594,636.6 596.45,639.75 599.5,642.1 603.25,643.7 606.9,645.25 611.2,646.05 616.1,646.05 L641.05,646.05 641.05,627.5 626.65,622.95 C623.2,621.6 620.7,619.45 619.05,616.4 617.5,613.4 616.8,608.1 616.8,600.5 L616.8,477z"/>
    </g>
  </g>
  <g id="peel">
    <g id="shape8">
      <path id="path5" fill="#000000" fill-opacity="0.2" d="M384.6,66.45 C384.6,59.95 382.35,54.45 377.65,49.95 373.6,45.85 368.9,43.65 363.4,43.2 L151.55,252.2 Q151.55,262 158.5,268.9 165.4,275.65 175.2,275.65 L360.95,275.65 C374,275.65 384.6,265.25 384.6,252.2 L384.6,66.45z"/>
    </g>
  </g>
</svg>