<?xml version="1.0" encoding="utf-8"?>
<!-- Generator: flash2svg, http://dissentgraphics.com/tools/flash2svg -->
<svg xmlns:xlink="http://www.w3.org/1999/xlink" id="Adobe-Dreamweaver-file" image-rendering="optimizeSpeed" baseProfile="basic" version="1.1" style="background-color:#ffffff" x="0px" y="0px" width="1024px" height="1024px" viewBox="0 0 1024 1024" enable-background="new 0 0 1024 1024" xmlns="http://www.w3.org/2000/svg">
  <defs transform="matrix(1 0 0 1 0 0) "/>
  <g id="Shadow">
    <g id="shape">
      <path id="path" fill="#000000" fill-opacity="0.09803921568627451" d="M904.4,90.05 C904.4,77.05 893.8,66.45 880.95,66.45 L389.25,66.45 175.2,275.65 175.2,983.45 C175.2,996.5 185.6,1007.05 198.6,1007.05 L880.95,1007.05 C893.8,1007.05 904.4,996.5 904.4,983.45 L904.4,90.05z"/>
    </g>
  </g>
  <g id="Bg">
    <g id="shape2">
      <path id="path1" fill="#45664D" fill-opacity="1" d="M880.95,66.45 C880.95,53.4 870.35,43 857.35,43 L365.65,43 151.55,252.2 151.55,960 Q151.55,969.6 158.5,976.5 165.4,983.45 175.2,983.45 L857.35,983.45 C861.8,983.45 866,982.2 869.65,980.05 871.2,979.1 872.65,977.9 874.05,976.5 874.35,976.2 874.65,975.9 874.95,975.6 878.95,971.15 880.95,965.95 880.95,960 L880.95,66.45z"/>
    </g>
  </g>
  <g id="Calque.__201">
    <g id="shape4">
      <path id="path2" fill="#000000" fill-opacity="0.2" d="M681.35,531.8 L651,531.8 630.3,611.4 607.3,531.8 574.75,531.8 611.65,647 646.25,647 659.15,605.35 676.55,647 710.45,647 747.75,531.8 715.2,531.8 692.4,611.4 673.4,562.7 681.35,531.8z M476.05,381.7 L363.55,381.7 363.55,646.55 476.05,646.55 C486.55,646.55 496.15,645.1 504.85,642.25 513.6,639.45 521.5,635.25 528.5,629.6 541.6,618.95 551.4,604.15 558,585.05 564.6,566 567.95,542.7 567.95,515.3 567.95,426.25 537.35,381.7 476.05,381.7z M512.1,461.6 C515.5,475.15 517.2,492.9 517.2,514.95 Q517.2,558 505.95,579.75 C498.4,594.15 487.1,601.3 472,601.3 L414.25,601.3 414.25,426.6 472,426.6 C481.9,426.6 490,428.9 496.4,433.55 503.3,438.7 508.5,448.05 512.1,461.6z"/>
    </g>
  </g>
  <g id="peel">
    <g id="shape11">
      <path id="path8" fill="#000000" fill-opacity="0.2" d="M384.6,66.45 C384.6,59.95 382.35,54.45 377.65,49.95 373.6,45.85 368.9,43.65 363.4,43.2 L151.55,252.2 Q151.55,262 158.5,268.9 165.4,275.65 175.2,275.65 L360.95,275.65 C374,275.65 384.6,265.25 384.6,252.2 L384.6,66.45z"/>
    </g>
  </g>
</svg>