<?xml version="1.0" encoding="utf-8"?>
<!-- Generator: flash2svg, http://dissentgraphics.com/tools/flash2svg -->
<svg xmlns:xlink="http://www.w3.org/1999/xlink" id="Caffeine" image-rendering="optimizeSpeed" baseProfile="basic" version="1.1" style="background-color:#ffffff" x="0px" y="0px" width="1024px" height="1024px" viewBox="0 0 1024 1024" enable-background="new 0 0 1024 1024" xmlns="http://www.w3.org/2000/svg">
  <defs transform="matrix(1 0 0 1 0 0) "/>
  <g id="Shadow">
    <g id="shape">
      <path id="path" fill="#000000" fill-opacity="0.09803921568627451" d="M688.05,63.85 L688.05,60.05 246.05,60.05 C232.25,60.05 220.45,64.95 210.7,74.7 200.95,84.45 196.05,96.25 196.05,110.05 L196.05,954.05 C196.05,967.85 200.95,979.65 210.7,989.4 218.2,996.9 226.9,1001.55 236.85,1003.3 239.8,1003.8 242.9,1004.05 246.05,1004.05 L806.25,1004.05 C820.05,1004.05 831.85,999.15 841.6,989.4 851.35,979.65 856.25,967.85 856.25,954.05 L856.25,232.05 688.05,63.85z"/>
    </g>
  </g>
  <g id="background">
    <g id="shape2">
      <path id="path1" fill="#684D34" fill-opacity="1" d="M668.05,43.85 L668.05,40.05 226.05,40.05 C212.25,40.05 200.45,44.95 190.7,54.7 180.95,64.45 176.05,76.25 176.05,90.05 L176.05,934.05 C176.05,947.85 180.95,959.65 190.7,969.4 198.2,976.9 206.9,981.55 216.85,983.3 219.8,983.8 222.9,984.05 226.05,984.05 L786.25,984.05 C800.05,984.05 811.85,979.15 821.6,969.4 831.35,959.65 836.25,947.85 836.25,934.05 L836.25,212.05 668.05,43.85z M679.8,194.3 C680.05,194.55 680.25,194.8 680.5,195.05 680.75,195.3 680.95,195.6 681.2,195.85 680.7,195.3 680.25,194.8 679.8,194.3z"/>
    </g>
  </g>
  <g id="corner-sadow">
    <g id="shape7">
      <path id="path5" fill="#000000" fill-opacity="0.2" d="M718.05,212.05 Q699.111,212.05 685.225,199.775 L836.25,350.8 836.25,212.05 718.05,212.05z"/>
    </g>
  </g>
  <g id="corner">
    <g id="shape9">
      <path id="path6" fill="#FFFFFF" fill-opacity="0.8980392156862745" d="M680.5,195.05 Q681.549,196.249 682.7,197.4 C683.55,198.25 684.4,199.05 685.25,199.8 694.5,207.95 705.4,212.05 718.05,212.05 L836.25,212.05 668.05,43.85 668.05,162.05 C668.05,174.75 672.2,185.75 680.5,195.05z"/>
    </g>
  </g>
  <g id="Content">
    <g id="shape11">
      <path id="path7" fill="#000000" fill-opacity="0.2" d="M479.45,387.3 C475.5,388.6 469.5,390.15 461.45,392 453.1,393.95 447.05,395.5 443.25,396.65 437.1,398.6 432.85,401.2 430.45,404.45 428.2,407.55 426.9,412.2 426.6,418.35 L426.6,443.7 597.6,443.7 597.6,427.45 597.6,418.9 C597.6,415.35 596.35,412.35 593.85,409.8 591.3,407.3 588.3,406.05 584.75,406.05 L492.85,406.05 C508.2,401.2 513.15,388.1 507.8,366.75 504.75,371.95 500.65,376.3 495.5,379.8 491.2,382.7 485.85,385.2 479.45,387.3z M630.35,431.45 L609.25,431.45 609.75,479.95 C610,491.8 610.15,498.65 610.15,500.5 610.15,526.95 600.65,549.5 581.65,568.25 562.65,586.9 539.75,596.25 512.95,596.25 486.1,596.25 463.2,586.9 444.2,568.25 427.3,551.6 417.95,531.9 416.05,509.1 415.8,508.7 415.55,506.15 415.25,501.35 L415.25,431.45 393,431.45 C388.95,431.45 385.55,432.85 382.65,435.7 379.8,438.55 378.4,441.95 378.4,445.95 L378.4,502.15 C378.4,505.15 379.2,507.9 380.85,510.2 383.4,541.8 396.15,569.15 419.25,592.25 427.75,600.75 436.9,607.9 446.6,613.6 446.4,614.55 446.3,615.55 446.3,616.6 L446.3,650.55 C446.3,654.55 447.7,657.95 450.55,660.8 450.65,660.9 450.75,661 450.95,661.2 451,661.25 451.05,661.25 451.1,661.3 453.85,663.8 457.05,665.05 460.8,665.05 L563.55,665.05 C567.6,665.05 571,663.65 573.85,660.8 576.65,657.95 578.1,654.55 578.1,650.55 L578.1,616.6 C578.1,615.95 578.05,615.25 578,614.65 588.35,608.75 598.05,601.25 607.05,592.25 633,566.3 646,535 646,498.3 646,495.7 645.8,486.15 645.4,469.8 L644.85,445.95 C644.85,442.2 643.6,439 641.1,436.25 Q640.8,436 640.6,435.7 C640.4,435.6 640.3,435.45 640.2,435.3 637.4,432.75 634.15,431.45 630.35,431.45z M598.05,482.2 L597.6,455.7 426.6,455.7 426.6,501.1 C426.85,505.3 427.05,507.55 427.3,507.9 428.95,528 437.2,545.4 452.1,560.05 468.85,576.5 489.05,584.75 512.7,584.75 536.35,584.75 556.55,576.5 573.3,560.05 590.05,543.55 598.4,523.65 598.4,500.35 598.4,498.7 598.3,492.65 598.05,482.2z"/>
    </g>
  </g>
</svg>