<?xml version="1.0" encoding="utf-8"?>
<!-- Generator: flash2svg, http://dissentgraphics.com/tools/flash2svg -->
<svg id="Coda-file" image-rendering="optimizeSpeed" baseProfile="basic" version="1.1" style="background-color:#FFFFFF" x="0px" y="0px" width="1024px" height="1024px" viewBox="0 0 1024 1024" enable-background="new 0 0 1024 1024" xmlns="http://www.w3.org/2000/svg" xmlns:xlink="http://www.w3.org/1999/xlink">
  <defs transform="matrix(1 0 0 1 0 0) "/>
  <g id="Shadow">
    <g id="shape">
      <path id="path" fill="#000000" fill-opacity="0.09803921568627451" d="M904.35,90 C904.35,77 893.75,66.4 880.9,66.4 L389.2,66.4 175.15,275.6 175.15,983.4 C175.15,996.45 185.55,1007 198.55,1007 L880.9,1007 C893.75,1007 904.35,996.45 904.35,983.4 L904.35,90z"/>
    </g>
  </g>
  <g id="Bg">
    <g id="shape2">
      <path id="path1" fill="#659D65" fill-opacity="1" d="M880.9,66.4 C880.9,53.35 870.3,42.95 857.3,42.95 L365.6,42.95 151.5,252.15 151.5,959.95 Q151.5,969.55 158.45,976.45 165.35,983.4 175.15,983.4 L857.3,983.4 C861.75,983.4 865.95,982.15 869.6,980 871.15,979.05 872.6,977.85 874,976.45 874.3,976.15 874.6,975.85 874.9,975.55 878.9,971.1 880.9,965.9 880.9,959.95 L880.9,66.4z"/>
    </g>
  </g>
  <g id="Ico">
    <g id="shape4">
      <path id="path2" fill="#000000" fill-opacity="0.2" d="M595.3,379 C595.35,379.1 595.35,379.2 595.4,379.3 L595.375,379.3 L595.25,379 C516.9,465.35 454.3,441.05 417.05,517.6 Q393.7,565.5 410.7,602.6 419.25,621.3 432.4,630.25 C452.35,547 553.15,488.3 553.15,488.3 L473.95,592.7 C460.8,622.7 460.7,641.65 460.7,641.65 L471.35,644.05 C471.5,644.1 471.65,644.1 471.8,644.1 L471.775,644.1 L483.6,644.9 C488.05,644.9 492.55,644.55 497.2,643.9 497.35,643.85 497.45,643.85 497.6,643.85 497.75,643.8 497.9,643.8 498.05,643.75 498.2,643.7 498.35,643.7 498.5,643.7 498.65,643.65 498.8,643.65 498.95,643.6 499.1,643.55 499.25,643.55 499.4,643.55 499.55,643.5 499.7,643.5 499.85,643.45 531.6,638 561.55,618.65 589.7,585.5 617.85,552.3 627.2,507.95 617.8,452.4 617.75,452.15 617.7,451.85 617.65,451.6 617.6,451.45 617.6,451.3 617.6,451.2 617.55,450.95 617.5,450.65 617.45,450.4 614.6,434.2 610.3,417.95 604.55,401.7 604.4,401.15 604.2,400.65 604,400.1 L595.3,379z"/>
    </g>
  </g>
  <g id="peel">
    <g id="shape6">
      <path id="path3" fill="#000000" fill-opacity="0.2" d="M384.55,66.4 C384.55,59.9 382.3,54.4 377.6,49.9 373.55,45.8 368.85,43.6 363.35,43.15 L151.5,252.15 Q151.5,261.95 158.45,268.85 165.35,275.6 175.15,275.6 L360.9,275.6 C373.95,275.6 384.55,265.2 384.55,252.15 L384.55,66.4z"/>
    </g>
  </g>
</svg>