<?xml version="1.0" encoding="utf-8"?>
<!-- Generator: flash2svg, http://dissentgraphics.com/tools/flash2svg -->
<svg id="Contacts-file" image-rendering="optimizeSpeed" baseProfile="basic" version="1.1" style="background-color:#FFFFFF" x="0px" y="0px" width="1024px" height="1024px" viewBox="0 0 1024 1024" enable-background="new 0 0 1024 1024" xmlns="http://www.w3.org/2000/svg" xmlns:xlink="http://www.w3.org/1999/xlink">
  <defs transform="matrix(1 0 0 1 0 0) "/>
  <g id="Shadow">
    <g id="shape">
      <path id="path" fill="#000000" fill-opacity="0.09803921568627451" d="M904.35,90 C904.35,77 893.75,66.4 880.9,66.4 L389.2,66.4 175.15,275.6 175.15,983.4 C175.15,996.45 185.55,1007 198.55,1007 L880.9,1007 C893.75,1007 904.35,996.45 904.35,983.4 L904.35,90z"/>
    </g>
  </g>
  <g id="Bg">
    <g id="shape2">
      <path id="path1" fill="#B79B5C" fill-opacity="1" d="M880.9,66.4 C880.9,53.35 870.3,42.95 857.3,42.95 L365.6,42.95 151.5,252.15 151.5,959.95 Q151.5,969.55 158.45,976.45 165.35,983.4 175.15,983.4 L857.3,983.4 C861.75,983.4 865.95,982.15 869.6,980 871.15,979.05 872.6,977.85 874,976.45 874.3,976.15 874.6,975.85 874.9,975.55 878.9,971.1 880.9,965.9 880.9,959.95 L880.9,66.4z"/>
    </g>
  </g>
  <g id="Ico">
    <g id="shape4">
      <path id="path2" fill="#000000" fill-opacity="0.2" d="M604.75,413.25 C585,393.3 556.9,382.35 525.6,382.35 486.75,382.35 451.65,397.55 426.75,425.1 403,451.35 389.95,486.75 389.95,524.75 389.95,558.95 401.65,588.45 423.75,610.05 444.55,630.4 472.9,641.6 503.6,641.6 529.75,641.6 550.1,637.05 569.65,626.7 L574.45,624.2 564.35,597.05 558.05,600.55 C544.7,608.05 526.75,612.2 507.5,612.2 483,612.2 461.95,603.95 446.7,588.4 430.9,572.3 422.55,549.55 422.55,522.65 422.55,489.8 432.85,461.6 452.4,441 470.7,421.7 495.7,411.05 522.75,411.05 571.9,411.05 602.4,442.55 602.4,493.2 602.4,531.5 584,551.9 570.7,551.9 L570.5,551.9 C567.95,551.85 566.9,550.9 566.2,550.05 564.65,548.1 561.45,541.2 565.75,519.5 L578.7,450.55 574.3,448.55 C563.25,443.45 548.5,440.55 533.75,440.55 508.8,440.55 485.7,450.3 468.75,468 452.7,484.75 443.5,507.65 443.5,530.8 443.5,564.2 465.9,581.7 488,581.7 507.05,581.7 522.5,574.35 534.95,559.4 536.75,565.3 539.6,569.4 542.25,572.15 548.1,578.3 556.4,581.7 565.7,581.7 600.15,581.7 635,550.55 635,491.05 635,460.55 624.25,432.9 604.75,413.25z M540.05,472.65 L533.7,507 C530.15,526.95 513.15,550.15 496.5,550.15 481.55,550.15 479.3,537.1 479.3,529.35 479.3,498.1 502.3,471.7 529.5,471.7 Q534.75,471.7 540.05,472.65z"/>
    </g>
  </g>
  <g id="peel">
    <g id="shape9">
      <path id="path6" fill="#000000" fill-opacity="0.2" d="M384.55,66.4 C384.55,59.9 382.3,54.4 377.6,49.9 373.55,45.8 368.85,43.6 363.35,43.15 L151.5,252.15 Q151.5,261.95 158.45,268.85 165.35,275.6 175.15,275.6 L360.9,275.6 C373.95,275.6 384.55,265.2 384.55,252.15 L384.55,66.4z"/>
    </g>
  </g>
</svg>