<?xml version="1.0" encoding="utf-8"?>
<!-- Generator: flash2svg, http://dissentgraphics.com/tools/flash2svg -->
<svg id="Google-Chrome-file" image-rendering="optimizeSpeed" baseProfile="basic" version="1.1" style="background-color:#FFFFFF" x="0px" y="0px" width="1024px" height="1024px" viewBox="0 0 1024 1024" enable-background="new 0 0 1024 1024" xmlns="http://www.w3.org/2000/svg" xmlns:xlink="http://www.w3.org/1999/xlink">
  <defs transform="matrix(1 0 0 1 0 0) "/>
  <g id="Shadow">
    <g id="shape">
      <path id="path" fill="#000000" fill-opacity="0.09803921568627451" d="M904.35,90 C904.35,77 893.75,66.4 880.9,66.4 L389.2,66.4 175.15,275.6 175.15,983.4 C175.15,996.45 185.55,1007 198.55,1007 L880.9,1007 C893.75,1007 904.35,996.45 904.35,983.4 L904.35,90z"/>
    </g>
  </g>
  <g id="Bg">
    <g id="shape2">
      <path id="path1" fill="#96A6A6" fill-opacity="1" d="M880.9,66.4 C880.9,53.35 870.3,42.95 857.3,42.95 L365.6,42.95 151.5,252.15 151.5,959.95 Q151.5,969.55 158.45,976.45 165.35,983.4 175.15,983.4 L857.3,983.4 C861.75,983.4 865.95,982.15 869.6,980 871.15,979.05 872.6,977.85 874,976.45 874.3,976.15 874.6,975.85 874.9,975.55 878.9,971.1 880.9,965.9 880.9,959.95 L880.9,66.4z"/>
    </g>
  </g>
  <g id="Ico">
    <g id="shape4">
      <path id="path2" fill="#000000" fill-opacity="0.2" d="M529.65,384 C518.15,384 507,385.6 496.1,388.85 485.3,392.15 475.95,397.15 468.15,403.95 461.65,409.5 456.6,416.2 452.9,424.1 449.25,432 447.4,440.2 447.4,448.6 447.4,463.8 452.6,476.3 463,486.15 473.45,496.05 486.2,501 501.4,501 L511.85,500.4 C509.7,505 508.65,509.4 508.65,513.5 508.65,517.7 509.45,521.45 511.1,524.8 L518.35,536.15 C490.35,537.9 469.6,543 456.15,551.45 448.6,556.2 442.55,562.15 438,569.2 433.4,576.25 431.1,583.9 431.1,592.25 431.1,599.6 432.95,606.35 436.65,612.45 442.55,622.2 451.4,629.25 463.15,633.6 474.9,637.8 487.55,639.9 501.1,639.9 517.55,639.9 532.8,636.95 547,631.15 554.1,628.2 560.35,624.35 565.7,619.7 571.1,615.15 575.6,609.7 579.2,603.4 584.2,595.1 586.75,586.2 586.75,576.9 586.75,568.9 585.1,561.6 581.9,554.95 578.55,548.4 574.55,543.1 569.9,539.05 L556.05,527.75 544.15,517.25 C540.85,513.65 539.2,510.05 539.2,506.35 539.2,502.85 540.45,499.5 543,496.25 L552.1,486.85 562.75,476.75 C566.35,473.15 569.4,468.4 571.9,462.5 574.45,456.55 575.7,449.9 575.7,442.55 575.7,433.3 573.75,425.1 569.9,417.9 565.95,410.75 560.15,403.95 552.55,397.45 L572.75,397.45 593.85,384 529.65,384z M544.3,438.65 C546,445.45 546.9,451.9 546.9,457.9 546.9,468.5 544.15,476.65 538.8,482.4 536.2,485.2 532.8,487.4 528.7,489.15 524.6,490.85 520.6,491.7 516.75,491.7 511.45,491.7 506.5,490.35 501.9,487.65 497.35,485 493.45,481.5 490.35,477.25 487.25,473.05 484.65,468.35 482.4,463.15 480.15,457.85 478.55,452.55 477.55,447.25 L476.05,432.2 C476.05,421.9 478.4,413.7 483.1,407.7 Q487.1,402.6 493.3,399.6 C497.4,397.55 501.65,396.5 505.95,396.5 512.6,396.5 518.6,398.6 524,402.85 529.5,407.05 533.8,412.35 536.95,418.7 540.15,425.2 542.65,431.8 544.3,438.65z M505.8,546.6 L521.85,545.55 529.4,545.8 C530.8,546.8 532.7,548.15 535,549.85 L547,558.85 552.95,564.1 557.5,569.5 561.7,575.95 563.85,582.4 564.9,589.95 C564.9,596.35 563.55,601.9 560.75,606.65 557.9,611.5 554.1,615.25 549.45,617.95 544.75,620.65 539.7,622.6 534.25,623.85 528.75,625.2 523.05,625.9 517.15,625.9 L501.5,624.7 C496.3,623.8 491.15,622.25 486.05,620.1 481,618.05 476.55,615.5 472.7,612.45 468.85,609.45 465.7,605.6 463.3,600.85 460.9,596.1 459.65,590.85 459.65,585.1 459.65,579.05 461.05,573.7 463.8,568.95 466.6,564.2 470.15,560.35 474.45,557.5 478.65,554.65 483.6,552.25 489.25,550.4 L505.8,546.6z"/>
    </g>
  </g>
  <g id="peel">
    <g id="shape12">
      <path id="path9" fill="#000000" fill-opacity="0.2" d="M384.55,66.4 C384.55,59.9 382.3,54.4 377.6,49.9 373.55,45.8 368.85,43.6 363.35,43.15 L151.5,252.15 Q151.5,261.95 158.45,268.85 165.35,275.6 175.15,275.6 L360.9,275.6 C373.95,275.6 384.55,265.2 384.55,252.15 L384.55,66.4z"/>
    </g>
  </g>
</svg>