<?xml version="1.0" encoding="utf-8"?>
<!-- Generator: flash2svg, http://dissentgraphics.com/tools/flash2svg -->
<svg id="Imovie-file" image-rendering="optimizeSpeed" baseProfile="basic" version="1.1" style="background-color:#FFFFFF" x="0px" y="0px" width="1024px" height="1024px" viewBox="0 0 1024 1024" enable-background="new 0 0 1024 1024" xmlns="http://www.w3.org/2000/svg" xmlns:xlink="http://www.w3.org/1999/xlink">
  <defs transform="matrix(1 0 0 1 0 0) "/>
  <g id="Shadow">
    <g id="shape">
      <path id="path" fill="#000000" fill-opacity="0.09803921568627451" d="M904.35,90 C904.35,77 893.75,66.4 880.9,66.4 L389.2,66.4 175.15,275.6 175.15,983.4 C175.15,996.45 185.55,1007 198.55,1007 L880.9,1007 C893.75,1007 904.35,996.45 904.35,983.4 L904.35,90z"/>
    </g>
  </g>
  <g id="Bg">
    <g id="shape2">
      <path id="path1" fill="#8C63A5" fill-opacity="1" d="M880.9,66.4 C880.9,53.35 870.3,42.95 857.3,42.95 L365.6,42.95 151.5,252.15 151.5,959.95 Q151.5,969.55 158.45,976.45 165.35,983.4 175.15,983.4 L857.3,983.4 C861.75,983.4 865.95,982.15 869.6,980 871.15,979.05 872.6,977.85 874,976.45 874.3,976.15 874.6,975.85 874.9,975.55 878.9,971.1 880.9,965.9 880.9,959.95 L880.9,66.4z"/>
    </g>
  </g>
  <g id="Symbole.__203">
    <g id="shape4">
      <path id="path2" fill="#000000" fill-opacity="0.2" d="M581.7,389.8 L572.4,373.7 Q571.65,372.7 570.45,372.25 569.25,371.8 568.05,372.1 C567.65,372.2 567.25,372.35 566.85,372.55 L384.55,477.75 C382.5,478.9 381.8,481.5 383,483.55 L392.05,499.2 C392.45,499.95 393,500.5 393.75,500.85 393.75,501.15 393.8,501.45 393.85,501.75 L429.65,648.65 C429.95,649.75 430.6,650.7 431.55,651.25 432.25,651.65 433,651.9 433.75,651.9 434.1,651.9 434.45,651.85 434.75,651.75 L639.25,601.9 C641.55,601.35 642.95,599.05 642.4,596.8 L606.55,449.95 606.55,449.9 C606.3,448.8 605.6,447.9 604.65,447.3 603.7,446.7 602.55,446.5 601.45,446.8 L410.8,493.25 580.15,395.6 C581.1,395 581.8,394.1 582.1,393 582.4,391.9 582.25,390.75 581.7,389.8z"/>
    </g>
  </g>
  <g id="peel">
    <g id="shape7">
      <path id="path4" fill="#000000" fill-opacity="0.2" d="M384.55,66.4 C384.55,59.9 382.3,54.4 377.6,49.9 373.55,45.8 368.85,43.6 363.35,43.15 L151.5,252.15 Q151.5,261.95 158.45,268.85 165.35,275.6 175.15,275.6 L360.9,275.6 C373.95,275.6 384.55,265.2 384.55,252.15 L384.55,66.4z"/>
    </g>
  </g>
</svg>