<?xml version="1.0" encoding="utf-8"?>
<!-- Generator: flash2svg, http://dissentgraphics.com/tools/flash2svg -->
<svg xmlns:xlink="http://www.w3.org/1999/xlink" id="Itunes" image-rendering="optimizeSpeed" baseProfile="basic" version="1.1" style="background-color:#ffffff" x="0px" y="0px" width="1024px" height="1024px" viewBox="0 0 1024 1024" enable-background="new 0 0 1024 1024" xmlns="http://www.w3.org/2000/svg">
  <defs transform="matrix(1 0 0 1 0 0) "/>
  <g id="Shadow">
    <g id="shape">
      <path id="path" fill="#000000" fill-opacity="0.09803921568627451" d="M688.05,63.85 L688.05,60.05 246.05,60.05 C232.25,60.05 220.45,64.95 210.7,74.7 200.95,84.45 196.05,96.25 196.05,110.05 L196.05,954.05 C196.05,967.85 200.95,979.65 210.7,989.4 218.2,996.9 226.9,1001.55 236.85,1003.3 239.8,1003.8 242.9,1004.05 246.05,1004.05 L806.25,1004.05 C820.05,1004.05 831.85,999.15 841.6,989.4 851.35,979.65 856.25,967.85 856.25,954.05 L856.25,232.05 688.05,63.85z"/>
    </g>
  </g>
  <g id="background">
    <g id="shape2">
      <path id="path1" fill="#EA4D4C" fill-opacity="1" d="M668.05,43.85 L668.05,40.05 226.05,40.05 C212.25,40.05 200.45,44.95 190.7,54.7 180.95,64.45 176.05,76.25 176.05,90.05 L176.05,934.05 C176.05,947.85 180.95,959.65 190.7,969.4 198.2,976.9 206.9,981.55 216.85,983.3 219.8,983.8 222.9,984.05 226.05,984.05 L786.25,984.05 C800.05,984.05 811.85,979.15 821.6,969.4 831.35,959.65 836.25,947.85 836.25,934.05 L836.25,212.05 668.05,43.85z M680.5,195.05 C680.75,195.3 680.95,195.6 681.2,195.85 680.7,195.3 680.25,194.8 679.8,194.3 680.05,194.55 680.25,194.8 680.5,195.05z"/>
    </g>
  </g>
  <g id="corner-sadow">
    <g id="shape7">
      <path id="path5" fill="#000000" fill-opacity="0.2" d="M718.05,212.05 Q699.111,212.05 685.225,199.775 L836.25,350.8 836.25,212.05 718.05,212.05z"/>
    </g>
  </g>
  <g id="corner">
    <g id="shape9">
      <path id="path6" fill="#FFFFFF" fill-opacity="0.8980392156862745" d="M680.5,195.05 Q681.549,196.249 682.7,197.4 C683.55,198.25 684.4,199.05 685.25,199.8 694.5,207.95 705.4,212.05 718.05,212.05 L836.25,212.05 668.05,43.85 668.05,162.05 C668.05,174.75 672.2,185.75 680.5,195.05z"/>
    </g>
  </g>
  <g id="Calque.__201">
    <g id="shape11">
      <path id="path7" fill="#000000" fill-opacity="0.2" d="M624.6,359.9 Q623.65,359.9 622.7,360.1 L436.4,386.55 C423.3,386.9 416.75,393.75 416.75,407.2 L416.75,586.35 399.5,586.35 C385.75,586.35 378.85,593.25 378.85,607 L378.85,643.55 C378.85,657.3 385.75,664.2 399.5,664.2 L436.05,664.2 C449.8,664.2 456.7,657.3 456.7,643.55 L456.7,491.85 605.3,469.6 605.3,560.9 588,560.9 C574.25,560.9 567.35,567.8 567.35,581.55 L567.35,618.15 C567.35,631.9 574.25,638.8 588,638.8 L624.6,638.8 C638.35,638.8 645.25,631.9 645.25,618.15 L645.25,380.55 C645.25,366.8 638.35,359.9 624.6,359.9z"/>
    </g>
  </g>
</svg>