<?xml version="1.0" encoding="utf-8"?>
<!-- Generator: flash2svg, http://dissentgraphics.com/tools/flash2svg -->
<svg id="Mail-file" image-rendering="optimizeSpeed" baseProfile="basic" version="1.1" style="background-color:#FFFFFF" x="0px" y="0px" width="1024px" height="1024px" viewBox="0 0 1024 1024" enable-background="new 0 0 1024 1024" xmlns="http://www.w3.org/2000/svg" xmlns:xlink="http://www.w3.org/1999/xlink">
  <defs transform="matrix(1 0 0 1 0 0) "/>
  <g id="Shadow">
    <g id="shape">
      <path id="path" fill="#000000" fill-opacity="0.09803921568627451" d="M904.35,90 C904.35,77 893.75,66.4 880.9,66.4 L389.2,66.4 175.15,275.6 175.15,983.4 C175.15,996.45 185.55,1007 198.55,1007 L880.9,1007 C893.75,1007 904.35,996.45 904.35,983.4 L904.35,90z"/>
    </g>
  </g>
  <g id="Bg">
    <g id="shape2">
      <path id="path1" fill="#4B648F" fill-opacity="1" d="M880.9,66.4 C880.9,53.35 870.3,42.95 857.3,42.95 L365.6,42.95 151.5,252.15 151.5,959.95 Q151.5,969.55 158.45,976.45 165.35,983.4 175.15,983.4 L857.3,983.4 C861.75,983.4 865.95,982.15 869.6,980 871.15,979.05 872.6,977.85 874,976.45 874.3,976.15 874.6,975.85 874.9,975.55 878.9,971.1 880.9,965.9 880.9,959.95 L880.9,66.4z"/>
    </g>
  </g>
  <g id="Symbole.__203">
    <g id="shape4">
      <path id="path2" fill="#000000" fill-opacity="0.2" d="M418.3,381 C412.4,381 409.45,383.95 409.45,389.85 L409.45,471.85 386.55,471.85 Q386.55,472.05 386.55,472.25 L386.55,634.1 C386.55,636.95 387.25,639.1 388.55,640.45 390.1,642.15 392.35,642.95 395.4,642.95 L629.5,642.95 C631.9,642.95 633.85,642.45 635.3,641.45 637.35,640.05 638.35,637.6 638.35,634.1 L638.35,472.25 C638.35,472.1 638.35,472 638.35,471.85 L615.5,471.85 615.5,389.85 C615.5,383.95 612.55,381 606.65,381 L418.3,381z M481.5,395.55 L481.5,402.6 422.25,402.6 422.25,395.55 481.5,395.55z M603.6,471.15 L422.25,471.15 422.25,464.05 603.6,464.05 603.6,471.15z M603.6,485.5 L422.25,485.5 422.25,478.45 603.6,478.45 603.6,485.5z M502.75,456.75 L422.25,456.75 422.25,449.7 502.75,449.7 502.75,456.75z M460.3,416.95 L422.25,416.95 422.25,409.9 460.3,409.9 460.3,416.95z M532.95,543 L490.6,543 480.15,535.9 543.475,535.9 532.95,543z M554.275,528.6 L469.425,528.6 459.05,521.55 564.7,521.55 554.275,528.6z M575.525,514.25 L448.325,514.25 437.875,507.15 586.025,507.15 575.525,514.25z M596.775,499.9 L427.225,499.9 422.25,496.525 422.25,492.8 603.6,492.8 603.6,495.3 596.775,499.9z"/>
    </g>
  </g>
  <g id="peel">
    <g id="shape33">
      <path id="path30" fill="#000000" fill-opacity="0.2" d="M384.55,66.4 C384.55,59.9 382.3,54.4 377.6,49.9 373.55,45.8 368.85,43.6 363.35,43.15 L151.5,252.15 Q151.5,261.95 158.45,268.85 165.35,275.6 175.15,275.6 L360.9,275.6 C373.95,275.6 384.55,265.2 384.55,252.15 L384.55,66.4z"/>
    </g>
  </g>
</svg>