<?xml version="1.0" encoding="utf-8"?>
<!-- Generator: flash2svg, http://dissentgraphics.com/tools/flash2svg -->
<svg id="Messages-file" image-rendering="optimizeSpeed" baseProfile="basic" version="1.1" style="background-color:#FFFFFF" x="0px" y="0px" width="1024px" height="1024px" viewBox="0 0 1024 1024" enable-background="new 0 0 1024 1024" xmlns="http://www.w3.org/2000/svg" xmlns:xlink="http://www.w3.org/1999/xlink">
  <defs transform="matrix(1 0 0 1 0 0) "/>
  <g id="Shadow">
    <g id="shape">
      <path id="path" fill="#000000" fill-opacity="0.09803921568627451" d="M904.35,90 C904.35,77 893.75,66.4 880.9,66.4 L389.2,66.4 175.15,275.6 175.15,983.4 C175.15,996.45 185.55,1007 198.55,1007 L880.9,1007 C893.75,1007 904.35,996.45 904.35,983.4 L904.35,90z"/>
    </g>
  </g>
  <g id="Bg">
    <g id="shape2">
      <path id="path1" fill="#53A7D4" fill-opacity="1" d="M880.9,66.4 C880.9,53.35 870.3,42.95 857.3,42.95 L365.6,42.95 151.5,252.15 151.5,959.95 Q151.5,969.55 158.45,976.45 165.35,983.4 175.15,983.4 L857.3,983.4 C861.75,983.4 865.95,982.15 869.6,980 871.15,979.05 872.6,977.85 874,976.45 874.3,976.15 874.6,975.85 874.9,975.55 878.9,971.1 880.9,965.9 880.9,959.95 L880.9,66.4z"/>
    </g>
  </g>
  <g id="Ico">
    <g id="shape4">
      <path id="path2" fill="#000000" fill-opacity="0.2" d="M414.05,380 C409.2,380 405,381.75 401.55,385.2 398.05,388.7 396.35,392.9 396.35,397.75 L396.35,531.45 396.35,562.2 C396.35,567.1 398.05,571.3 401.55,574.75 405,578.2 409.2,579.95 414.05,579.95 L507.5,579.95 567.25,639.75 C570.05,642.5 573.4,643.9 577.35,643.9 581.3,643.9 584.65,642.5 587.45,639.75 590.2,636.95 591.6,633.6 591.6,629.65 L591.6,579.95 610.85,579.95 C615.75,579.95 619.95,578.2 623.4,574.75 626.85,571.3 628.6,567.1 628.6,562.2 L628.6,397.75 C628.6,392.9 626.85,388.7 623.4,385.2 619.95,381.75 615.75,380 610.85,380 L536.05,380 414.05,380z M585.05,462.7 C589.05,466.7 591.05,471.55 591.05,477.15 591.05,482.8 589.05,487.6 585.05,491.6 581.05,495.6 576.3,497.6 570.65,497.6 565,497.6 560.2,495.6 556.2,491.6 552.2,487.6 550.2,482.8 550.2,477.15 550.2,471.55 552.2,466.7 556.2,462.7 560.2,458.7 565,456.75 570.65,456.75 576.3,456.75 581.05,458.7 585.05,462.7z M492.25,477.15 C492.25,471.55 494.25,466.7 498.2,462.7 502.2,458.7 507.05,456.75 512.7,456.75 518.3,456.75 523.1,458.7 527.1,462.7 531.1,466.7 533.1,471.55 533.1,477.15 533.1,482.8 531.1,487.6 527.1,491.6 523.1,495.6 518.3,497.6 512.7,497.6 507.05,497.6 502.2,495.6 498.2,491.6 494.25,487.6 492.25,482.8 492.25,477.15z M434.3,477.15 C434.3,471.55 436.3,466.7 440.3,462.7 444.25,458.7 449.05,456.75 454.7,456.75 460.35,456.75 465.15,458.7 469.15,462.7 473.15,466.7 475.1,471.55 475.1,477.15 475.1,482.8 473.15,487.6 469.15,491.6 465.15,495.6 460.35,497.6 454.7,497.6 449.05,497.6 444.25,495.6 440.3,491.6 436.3,487.6 434.3,482.8 434.3,477.15z"/>
    </g>
  </g>
  <g id="peel">
    <g id="shape15">
      <path id="path12" fill="#000000" fill-opacity="0.2" d="M384.55,66.4 C384.55,59.9 382.3,54.4 377.6,49.9 373.55,45.8 368.85,43.6 363.35,43.15 L151.5,252.15 Q151.5,261.95 158.45,268.85 165.35,275.6 175.15,275.6 L360.9,275.6 C373.95,275.6 384.55,265.2 384.55,252.15 L384.55,66.4z"/>
    </g>
  </g>
</svg>