<?xml version="1.0" encoding="utf-8"?>
<!-- Generator: flash2svg, http://dissentgraphics.com/tools/flash2svg -->
<svg id="Ms-Excel-file" image-rendering="optimizeSpeed" baseProfile="basic" version="1.1" style="background-color:#FFFFFF" x="0px" y="0px" width="1024px" height="1024px" viewBox="0 0 1024 1024" enable-background="new 0 0 1024 1024" xmlns="http://www.w3.org/2000/svg" xmlns:xlink="http://www.w3.org/1999/xlink">
  <defs transform="matrix(1 0 0 1 0 0) "/>
  <g id="Shadow">
    <g id="shape">
      <path id="path" fill="#000000" fill-opacity="0.09803921568627451" d="M904.35,90 C904.35,77 893.75,66.4 880.9,66.4 L389.2,66.4 175.15,275.6 175.15,983.4 C175.15,996.45 185.55,1007 198.55,1007 L880.9,1007 C893.75,1007 904.35,996.45 904.35,983.4 L904.35,90z"/>
    </g>
  </g>
  <g id="Bg">
    <g id="shape2">
      <path id="path1" fill="#3B5C2D" fill-opacity="1" d="M880.9,66.4 C880.9,53.35 870.3,42.95 857.3,42.95 L365.6,42.95 151.5,252.15 151.5,959.95 Q151.5,969.55 158.45,976.45 165.35,983.4 175.15,983.4 L857.3,983.4 C861.75,983.4 865.95,982.15 869.6,980 871.15,979.05 872.6,977.85 874,976.45 874.3,976.15 874.6,975.85 874.9,975.55 878.9,971.1 880.9,965.9 880.9,959.95 L880.9,66.4z"/>
    </g>
  </g>
  <g id="Ico">
    <g id="shape4">
      <path id="path2" fill="#000000" fill-opacity="0.2" d="M490.85,385.55 C490.05,385.55 489.1,385.55 488.15,385.55 476,385.55 465.6,387.15 456.8,390.35 442.4,395.6 432.75,405.25 427.95,419.2 425.45,426.4 424.2,434.6 424.2,443.95 L424.2,581.95 C424.2,592 425.8,600.75 429.2,608.1 432.45,615.45 436.55,621 441.4,624.75 446.25,628.55 451.8,631.6 458.45,633.9 465.05,636.25 470.45,637.5 474.55,637.85 L491.1,637.95 491.1,563.3 C490.95,562.1 490.85,560.5 490.85,558.85 L490.85,543.75 582.95,545 582.95,482.7 490.85,481.4 490.85,385.55z M582.95,385.2 C552.75,385.45 525.35,385.55 500.85,385.55 L500.85,456.95 C501.6,454.6 503.35,452.45 506.25,450.4 509.1,448.1 513.25,447 518.8,447 L582.95,447 582.95,385.2z M522.15,576.9 C516.6,576.9 511.95,576.2 508.05,574.6 504.5,573.3 502.35,570.2 501.35,565.1 501.25,564.55 501.2,564.05 501.1,563.3 L501.1,637.95 520.95,638 C544.5,637.55 565.3,637.5 582.95,637.9 L582.95,576.9 522.15,576.9z"/>
    </g>
  </g>
  <g id="peel">
    <g id="shape10">
      <path id="path7" fill="#000000" fill-opacity="0.2" d="M384.55,66.4 C384.55,59.9 382.3,54.4 377.6,49.9 373.55,45.8 368.85,43.6 363.35,43.15 L151.5,252.15 Q151.5,261.95 158.45,268.85 165.35,275.6 175.15,275.6 L360.9,275.6 C373.95,275.6 384.55,265.2 384.55,252.15 L384.55,66.4z"/>
    </g>
  </g>
</svg>