<?xml version="1.0" encoding="utf-8"?>
<!-- Generator: flash2svg, http://dissentgraphics.com/tools/flash2svg -->
<svg id="Ms-Powerpoint-file" image-rendering="optimizeSpeed" baseProfile="basic" version="1.1" style="background-color:#FFFFFF" x="0px" y="0px" width="1024px" height="1024px" viewBox="0 0 1024 1024" enable-background="new 0 0 1024 1024" xmlns="http://www.w3.org/2000/svg" xmlns:xlink="http://www.w3.org/1999/xlink">
  <defs transform="matrix(1 0 0 1 0 0) "/>
  <g id="Shadow">
    <g id="shape">
      <path id="path" fill="#000000" fill-opacity="0.09803921568627451" d="M904.35,90 C904.35,77 893.75,66.4 880.9,66.4 L389.2,66.4 175.15,275.6 175.15,983.4 C175.15,996.45 185.55,1007 198.55,1007 L880.9,1007 C893.75,1007 904.35,996.45 904.35,983.4 L904.35,90z"/>
    </g>
  </g>
  <g id="Bg">
    <g id="shape2">
      <path id="path1" fill="#AE7013" fill-opacity="1" d="M880.9,66.4 C880.9,53.35 870.3,42.95 857.3,42.95 L365.6,42.95 151.5,252.15 151.5,959.95 Q151.5,969.55 158.45,976.45 165.35,983.4 175.15,983.4 L857.3,983.4 C861.75,983.4 865.95,982.15 869.6,980 871.15,979.05 872.6,977.85 874,976.45 874.3,976.15 874.6,975.85 874.9,975.55 878.9,971.1 880.9,965.9 880.9,959.95 L880.9,66.4z"/>
    </g>
  </g>
  <g id="Ico">
    <g id="shape4">
      <path id="path2" fill="#000000" fill-opacity="0.2" d="M483.1,383 L479.85,383 413.55,449.3 413.55,644.95 483.1,644.95 482.55,556 483.1,497.5 483.1,383z M565.65,385.25 C558.3,383.8 549.85,383 540.5,383 L493.1,383 493.1,442.1 533.2,442.1 C539.35,442.1 543.85,444.35 546.8,448.85 549.95,453.5 551.5,460.6 551.5,469.9 551.5,488.35 545.3,497.5 533.2,497.5 L493.1,497.5 492.55,556 563.6,555.85 C568.6,555.3 575.15,553.45 582.8,550.1 590.45,546.9 596.95,542.05 602.4,535.9 607.75,529.75 612.4,521 615.95,509.4 619.5,497.7 621.4,484.1 621.4,468.8 621.4,454.3 619.85,441.85 616.85,431.4 616.7,430.95 616.5,430.4 616.35,429.8 612.8,419.2 608.5,411 603.3,405.2 597.15,397.75 588.75,392.2 578.15,388.65 576.3,387.95 574.4,387.4 572.25,386.8 570.1,386.2 567.9,385.7 565.65,385.25z"/>
    </g>
  </g>
  <g id="peel">
    <g id="shape8">
      <path id="path5" fill="#000000" fill-opacity="0.2" d="M384.55,66.4 C384.55,59.9 382.3,54.4 377.6,49.9 373.55,45.8 368.85,43.6 363.35,43.15 L151.5,252.15 Q151.5,261.95 158.45,268.85 165.35,275.6 175.15,275.6 L360.9,275.6 C373.95,275.6 384.55,265.2 384.55,252.15 L384.55,66.4z"/>
    </g>
  </g>
</svg>