<?xml version="1.0" encoding="utf-8"?>
<!-- Generator: flash2svg, http://dissentgraphics.com/tools/flash2svg -->
<svg id="Preview-file" image-rendering="optimizeSpeed" baseProfile="basic" version="1.1" style="background-color:#FFFFFF" x="0px" y="0px" width="1024px" height="1024px" viewBox="0 0 1024 1024" enable-background="new 0 0 1024 1024" xmlns="http://www.w3.org/2000/svg" xmlns:xlink="http://www.w3.org/1999/xlink">
  <defs transform="matrix(1 0 0 1 0 0) "/>
  <g id="Shadow">
    <g id="shape">
      <path id="path" fill="#000000" fill-opacity="0.09803921568627451" d="M904.35,90 C904.35,77 893.75,66.4 880.9,66.4 L389.2,66.4 175.15,275.6 175.15,983.4 C175.15,996.45 185.55,1007 198.55,1007 L880.9,1007 C893.75,1007 904.35,996.45 904.35,983.4 L904.35,90z"/>
    </g>
  </g>
  <g id="Bg">
    <g id="shape2">
      <path id="path1" fill="#9D9670" fill-opacity="1" d="M880.9,66.4 C880.9,53.35 870.3,42.95 857.3,42.95 L365.6,42.95 151.5,252.15 151.5,959.95 Q151.5,969.55 158.45,976.45 165.35,983.4 175.15,983.4 L857.3,983.4 C861.75,983.4 865.95,982.15 869.6,980 871.15,979.05 872.6,977.85 874,976.45 874.3,976.15 874.6,975.85 874.9,975.55 878.9,971.1 880.9,965.9 880.9,959.95 L880.9,66.4z"/>
    </g>
  </g>
  <g id="Calque.__201">
    <g id="shape4">
      <path id="path2" fill="#000000" fill-opacity="0.2" d="M655.35,632.15 C655.35,627.75 653.8,624 650.7,620.9 L592.9,563.15 C592.35,562.6 591.8,562.15 591.25,561.7 603.05,543.65 610.05,521.85 610.05,498.45 610.05,434.7 558.35,383.05 494.6,383.05 Q471.15,383.05 449.7,392.1 428.95,400.85 413,416.85 397,432.8 388.25,453.55 379.2,475 379.2,498.45 C379.2,562.2 430.85,613.9 494.6,613.9 523.6,613.9 550.1,603.2 570.4,585.5 570.45,585.55 570.45,585.55 570.5,585.6 L628.25,643.35 C631.35,646.45 635.1,648 639.5,648 643.85,648 647.6,646.45 650.7,643.35 653.8,640.25 655.35,636.5 655.35,632.15z M581.15,498.45 C581.15,546.2 542.35,585 494.6,585 446.9,585 408.05,546.2 408.05,498.45 408.05,450.75 446.9,411.9 494.6,411.9 542.35,411.9 581.15,450.75 581.15,498.45z"/>
    </g>
  </g>
  <g id="peel">
    <g id="shape9">
      <path id="path6" fill="#000000" fill-opacity="0.2" d="M384.55,66.4 C384.55,59.9 382.3,54.4 377.6,49.9 373.55,45.8 368.85,43.6 363.35,43.15 L151.5,252.15 Q151.5,261.95 158.45,268.85 165.35,275.6 175.15,275.6 L360.9,275.6 C373.95,275.6 384.55,265.2 384.55,252.15 L384.55,66.4z"/>
    </g>
  </g>
</svg>