<?xml version="1.0" encoding="utf-8"?>
<!-- Generator: flash2svg, http://dissentgraphics.com/tools/flash2svg -->
<svg id="Sublime-Text-file" image-rendering="optimizeSpeed" baseProfile="basic" version="1.1" style="background-color:#FFFFFF" x="0px" y="0px" width="1024px" height="1024px" viewBox="0 0 1024 1024" enable-background="new 0 0 1024 1024" xmlns="http://www.w3.org/2000/svg" xmlns:xlink="http://www.w3.org/1999/xlink">
  <defs transform="matrix(1 0 0 1 0 0) "/>
  <g id="Shadow">
    <g id="shape">
      <path id="path" fill="#000000" fill-opacity="0.09803921568627451" d="M904.35,90 C904.35,77 893.75,66.4 880.9,66.4 L389.2,66.4 175.15,275.6 175.15,983.4 C175.15,996.45 185.55,1007 198.55,1007 L880.9,1007 C893.75,1007 904.35,996.45 904.35,983.4 L904.35,90z"/>
    </g>
  </g>
  <g id="Bg">
    <g id="shape2">
      <path id="path1" fill="#CCCAC2" fill-opacity="1" d="M880.9,66.4 C880.9,53.35 870.3,42.95 857.3,42.95 L365.6,42.95 151.5,252.15 151.5,959.95 Q151.5,969.55 158.45,976.45 165.35,983.4 175.15,983.4 L857.3,983.4 C861.75,983.4 865.95,982.15 869.6,980 871.15,979.05 872.6,977.85 874,976.45 874.3,976.15 874.6,975.85 874.9,975.55 878.9,971.1 880.9,965.9 880.9,959.95 L880.9,66.4z"/>
    </g>
  </g>
  <g id="Ico">
    <g id="shape4">
      <path id="path2" fill="#000000" fill-opacity="0.2" d="M512.05,381.55 C511.7,381.6 511.3,381.65 511,381.7 501.8,383 492.75,386.2 483.95,391.3 469.9,399.35 459.35,409.9 452.45,422.9 452.05,423.65 451.65,424.4 451.3,425.15 451.25,425.2 451.2,425.3 451.2,425.4 449.15,429.55 447.5,433.9 446.15,438.45 445.65,440.15 445.2,441.8 444.85,443.45 444.55,444.75 444.3,445.9 444.05,447.15 444.05,447.2 444.05,447.3 444,447.35 L444,447.4 C443.1,451.35 442.9,455.65 443.5,460.3 443.55,460.35 443.55,460.35 443.55,460.4 443.5,460.45 443.5,460.45 443.5,460.5 L443.5,460.55 C443.75,464.5 444.25,468.35 444.95,471.8 446.45,478.5 448.8,484.5 452.15,490.05 456.25,496.85 461.7,502.9 468.55,508.15 470.25,509.5 471.9,510.7 473.6,511.85 L499.1,532.4 C503.35,535.7 507.3,539.2 511,542.8 511.3,543.15 511.7,543.5 512.05,543.85 515.85,547.65 519.3,551.55 522.5,555.6 526,563.55 526.85,570.4 525,576.15 524.95,576.25 524.95,576.3 524.95,576.4 523.15,581.15 519.5,585.25 513.8,588.6 513.25,588.95 512.65,589.25 512.05,589.6 511.7,589.8 511.3,589.95 511,590.15 510.85,590.2 510.75,590.25 510.6,590.3 506.65,591.25 502.75,591.4 498.95,590.75 L498.9,590.75 C498.8,590.75 498.75,590.7 498.65,590.7 494.7,590 491,588.55 487.4,586.25 486.4,585.6 485.35,584.9 484.3,584.15 478.9,580.5 473.75,576.45 468.95,572.15 468,571.3 467,570.35 466,569.45 465.9,569.35 465.8,569.3 465.75,569.25 L457.7,563.1 457.65,563.1 457.65,563.05 C455.25,561.35 452.9,560.1 450.5,559.4 445.8,557.95 441.25,558.75 437.05,561.9 435.85,562.75 434.7,563.8 433.6,565 L433.55,565 433.5,565.05 C433.5,565.05 433.45,565.1 433.45,565.15 L422.75,577.55 C422.7,577.65 422.6,577.8 422.5,577.9 416.7,587.05 417.15,594.8 423.85,601.25 423.85,601.3 423.9,601.3 423.9,601.3 424,601.35 424.05,601.4 424.15,601.5 L430.65,606.85 C440.1,616.15 450.95,624.25 463.2,631.2 463.5,631.9 464,632.4 464.65,632.7 480.2,640.9 495.65,644.15 511,642.45 511.3,642.4 511.7,642.35 512.05,642.3 520,641.3 527.9,638.95 535.75,635.3 547.65,629.8 557.2,622.25 564.45,612.65 568.15,607.65 571.3,602.15 573.8,596.15 573.8,596.1 573.85,596.05 573.85,595.95 574.2,595.1 574.5,594.25 574.85,593.4 576.55,588.75 577.95,583.8 579,578.55 L579,578.5 C579,578.45 579,578.45 579.05,578.45 L579.05,578.4 579.1,578.1 C579.15,578.05 579.15,578 579.15,577.95 579.15,577.85 579.15,577.8 579.15,577.8 L579.15,577.75 579.9,565.6 C579.9,565.55 579.9,565.55 579.9,565.5 579.9,565.4 579.95,565.3 579.9,565.2 579.6,560.2 578.8,555.5 577.5,550.85 576.05,545.55 573.9,540.4 571.15,535.65 566.1,526.75 558.85,518.95 549.55,512.35 L524.15,491.25 C524.1,491.2 524.05,491.2 524.05,491.2 L524,491.15 C523.95,491.1 523.85,491.05 523.75,491 523.75,490.95 523.65,490.95 523.65,490.95 519.6,488.25 515.75,485.3 512.05,482.05 511.7,481.8 511.3,481.45 511,481.15 507.8,478.35 504.8,475.35 501.85,472.05 501.25,471.45 500.6,470.65 499.9,469.9 499.05,467.8 498.35,465.8 497.85,463.75 496.4,458.1 496.6,453 498.4,448.65 500.6,443.9 504.8,439.95 511,436.8 511.3,436.6 511.7,436.45 512.05,436.3 512.95,435.85 513.95,435.4 515,435 531.8,435.9 546,442.8 557.6,455.7 L557.65,455.7 C557.65,455.75 557.65,455.75 557.7,455.75 557.75,455.85 557.85,455.95 557.95,456.05 L565.45,462.2 C565.5,462.2 565.5,462.2 565.55,462.25 568.2,464.2 570.8,465.5 573.15,466.05 579,467.45 584.4,465.55 589.55,460.3 L601.1,447.75 C601.15,447.65 601.2,447.6 601.25,447.55 608.6,438.4 608.15,429.9 599.9,422.1 L599.85,422.05 C599.75,422 599.7,421.95 599.7,421.95 L593.3,416.65 C593.15,416.35 592.9,416.1 592.65,415.85 576.8,403.5 564.15,394.8 554.65,389.7 554.65,389.65 554.65,389.6 554.6,389.55 554.25,388.9 553.7,388.4 553.05,388.1 539,382.05 525.35,379.85 512.05,381.55z"/>
    </g>
  </g>
  <g id="peel">
    <g id="shape6">
      <path id="path3" fill="#000000" fill-opacity="0.2" d="M384.55,66.4 C384.55,59.9 382.3,54.4 377.6,49.9 373.55,45.8 368.85,43.6 363.35,43.15 L151.5,252.15 Q151.5,261.95 158.45,268.85 165.35,275.6 175.15,275.6 L360.9,275.6 C373.95,275.6 384.55,265.2 384.55,252.15 L384.55,66.4z"/>
    </g>
  </g>
</svg>