<?xml version="1.0" encoding="utf-8"?>
<!-- Generator: flash2svg, http://dissentgraphics.com/tools/flash2svg -->
<svg id="The-Unarchiver-File" image-rendering="optimizeSpeed" baseProfile="basic" version="1.1" style="background-color:#FFFFFF" x="0px" y="0px" width="1024px" height="1024px" viewBox="0 0 1024 1024" enable-background="new 0 0 1024 1024" xmlns="http://www.w3.org/2000/svg" xmlns:xlink="http://www.w3.org/1999/xlink">
  <defs transform="matrix(1 0 0 1 0 0) "/>
  <g id="Shadow">
    <g id="shape">
      <path id="path" fill="#000000" fill-opacity="0.09803921568627451" d="M904.35,90 C904.35,77 893.75,66.4 880.9,66.4 L389.2,66.4 175.15,275.6 175.15,983.4 C175.15,996.45 185.55,1007 198.55,1007 L880.9,1007 C893.75,1007 904.35,996.45 904.35,983.4 L904.35,90z"/>
    </g>
  </g>
  <g id="Bg">
    <g id="shape2">
      <path id="path1" fill="#946432" fill-opacity="1" d="M880.9,66.4 C880.9,53.35 870.3,42.95 857.3,42.95 L365.6,42.95 151.5,252.15 151.5,959.95 Q151.5,969.55 158.45,976.45 165.35,983.4 175.15,983.4 L857.3,983.4 C861.75,983.4 865.95,982.15 869.6,980 871.15,979.05 872.6,977.85 874,976.45 874.3,976.15 874.6,975.85 874.9,975.55 878.9,971.1 880.9,965.9 880.9,959.95 L880.9,66.4z"/>
    </g>
  </g>
  <g id="Ico">
    <g id="shape4">
      <path id="path2" fill="#000000" fill-opacity="0.2" d="M498.2,391.05 C500.55,389.95 503.15,389.4 505.95,389.4 L519.65,389.4 C521.95,389.4 524.1,389.75 526.1,390.5 528.55,391.4 530.85,392.85 532.85,394.9 536.5,398.55 538.3,402.9 538.3,408.05 L538.3,432.55 C541.45,432.85 544.4,434.45 547.05,437.25 549.65,440.1 551.45,442.25 552.35,443.7 553.3,445.15 555,448.7 557.55,454.25 560.1,459.85 563.5,469.3 567.8,482.7 578.35,477.1 583.9,470.7 584.35,463.45 Q584.35,459.5 582.65,457.05 C580.95,454.9 579.15,453.05 577.25,451.55 574.8,449.75 570.1,445.35 563,438.45 552,427.8 546.25,413.95 545.8,396.95 545.8,396.9 545.8,396.85 545.8,396.8 545.8,396.6 545.8,396.4 545.8,396.2 L545.8,378 479.85,378 479.85,396.2 C479.85,396.4 479.85,396.6 479.85,396.8 479.85,396.85 479.85,396.9 479.85,396.95 479.35,413.95 473.6,427.8 462.65,438.45 455.6,445.35 450.85,449.75 448.4,451.55 446.5,453.05 444.65,454.9 443,457.05 441.85,458.7 441.25,460.8 441.25,463.45 441.75,470.7 447.25,477.1 457.85,482.65 461.75,470.05 465.05,460.55 467.75,454.3 470.5,448 473,443.4 475.3,440.45 477.65,437.5 479.55,435.6 481.05,434.75 482.55,433.9 484.65,433.2 487.3,432.55 L487.3,408.05 C487.3,402.9 489.1,398.55 492.75,394.9 494.45,393.2 496.25,391.95 498.2,391.05z M505.95,401.85 C504.25,401.85 502.8,402.45 501.55,403.65 500.35,404.9 499.75,406.35 499.75,408.05 L499.75,488.95 C499.75,490.7 500.35,492.15 501.55,493.35 502.8,494.6 504.25,495.2 505.95,495.2 L519.65,495.2 C521.35,495.2 522.85,494.6 524.05,493.35 525.25,492.15 525.85,490.7 525.85,488.95 L525.85,408.05 C525.85,406.35 525.25,404.9 524.05,403.65 522.85,402.45 521.35,401.85 519.65,401.85 L505.95,401.85z M487.3,488.95 L487.3,447.25 C485.55,447.45 484.1,448.7 482.95,451.05 477.95,462.65 473.4,474.85 469.35,487.65 468.1,491.55 466.9,495.55 465.7,499.6 457.1,529.5 450.9,562.45 447.1,598.55 447.35,611.7 453.6,622.95 465.9,632.35 475.25,639.45 486.05,644 498.2,646.05 502.7,646.8 507.4,647.15 512.3,647.25 L512.35,647.25 C512.5,647.25 512.65,647.25 512.8,647.25 512.95,647.25 513.1,647.25 513.25,647.25 L513.3,647.25 C517.75,647.2 522,646.85 526.1,646.25 538.8,644.35 550,639.7 559.75,632.35 572.05,622.95 578.25,611.7 578.5,598.55 574.7,562.45 568.5,529.5 559.9,499.6 558.75,495.55 557.55,491.55 556.3,487.65 552.2,474.85 547.65,462.65 542.7,451.05 541.35,448.7 539.9,447.45 538.3,447.25 L538.3,488.95 C538.3,494.1 536.5,498.5 532.85,502.15 530.85,504.15 528.55,505.65 526.1,506.55 524.1,507.3 521.95,507.65 519.65,507.65 L505.95,507.65 C503.15,507.65 500.55,507.1 498.2,506 496.25,505.1 494.45,503.8 492.75,502.15 489.1,498.5 487.3,494.1 487.3,488.95z M512.8,566.45 C517.7,566.45 522.1,567.6 526.1,569.85 528.15,571.05 530.1,572.55 531.95,574.4 537.2,579.65 539.85,586.05 539.85,593.5 539.85,601 537.2,607.35 531.95,612.65 530.1,614.45 528.15,615.95 526.1,617.15 522.1,619.4 517.7,620.55 512.8,620.55 507.35,620.55 502.5,619.15 498.2,616.35 496.6,615.3 495.1,614.05 493.7,612.65 488.4,607.35 485.75,601 485.75,593.5 485.75,586.05 488.4,579.65 493.7,574.4 495.1,572.95 496.6,571.75 498.2,570.7 502.5,567.85 507.35,566.45 512.8,566.45z"/>
    </g>
  </g>
  <g id="peel">
    <g id="shape13">
      <path id="path10" fill="#000000" fill-opacity="0.2" d="M384.55,66.4 C384.55,59.9 382.3,54.4 377.6,49.9 373.55,45.8 368.85,43.6 363.35,43.15 L151.5,252.15 Q151.5,261.95 158.45,268.85 165.35,275.6 175.15,275.6 L360.9,275.6 C373.95,275.6 384.55,265.2 384.55,252.15 L384.55,66.4z"/>
    </g>
  </g>
</svg>