<?xml version="1.0" encoding="utf-8"?>
<!-- Generator: flash2svg, http://dissentgraphics.com/tools/flash2svg -->
<svg xmlns:xlink="http://www.w3.org/1999/xlink" id="Unison-file" image-rendering="optimizeSpeed" baseProfile="basic" version="1.1" style="background-color:#ffffff" x="0px" y="0px" width="1024px" height="1024px" viewBox="0 0 1024 1024" enable-background="new 0 0 1024 1024" xmlns="http://www.w3.org/2000/svg">
  <defs transform="matrix(1 0 0 1 0 0) "/>
  <g id="Shadow">
    <g id="shape">
      <path id="path" fill="#000000" fill-opacity="0.09803921568627451" d="M904.4,90.05 C904.4,77.05 893.8,66.45 880.95,66.45 L389.25,66.45 175.2,275.65 175.2,983.45 C175.2,996.5 185.6,1007.05 198.6,1007.05 L880.95,1007.05 C893.8,1007.05 904.4,996.5 904.4,983.45 L904.4,90.05z"/>
    </g>
  </g>
  <g id="Bg">
    <g id="shape2">
      <path id="path1" fill="#8F2118" fill-opacity="1" d="M880.95,66.45 C880.95,53.4 870.35,43 857.35,43 L365.65,43 151.55,252.2 151.55,960 Q151.55,969.6 158.5,976.5 165.4,983.45 175.2,983.45 L857.35,983.45 C861.8,983.45 866,982.2 869.65,980.05 871.2,979.1 872.65,977.9 874.05,976.5 874.35,976.2 874.65,975.9 874.95,975.6 878.95,971.15 880.95,965.95 880.95,960 L880.95,66.45z"/>
    </g>
  </g>
  <g id="Ico">
    <g id="shape4">
      <path id="path2" fill="#000000" fill-opacity="0.2" d="M435.3,383.05 L410.6,383.05 410.6,527.85 C410.6,549.8 412.75,568.35 417,583.4 421.15,598.5 425.95,609.85 431.4,617.55 433.95,621.2 437.15,624.45 440.85,627.15 444.95,630.2 449.6,632.7 454.95,634.7 465.45,638.55 474.05,640.7 480.75,641.15 L520.75,641.95 542.35,640.5 557.95,637.65 572,631.6 C577.5,628.85 582.05,625.7 585.65,622.15 L596.6,607.9 C607.8,591 613.4,564.3 613.4,527.85 L613.4,383.05 589.75,383.05 C577.55,383.4 567.1,387.95 558.4,396.65 549.6,405.45 545.05,416.05 544.8,428.35 L544.75,527.85 C544.75,539.75 544.2,549.3 543,556.65 541.75,563.9 539.9,568.8 537.3,571.35 532,577.65 523.8,580.75 512.85,580.75 504.8,580.75 498.15,579.45 492.85,576.7 490.55,575.5 488.4,573.95 486.6,572.1 481.3,566.45 478.7,551.7 478.7,527.85 L478.7,428.3 C478.45,418.2 475.35,409.25 469.35,401.4 468.1,399.8 466.65,398.2 465.05,396.6 461.7,393.25 458.1,390.5 454.25,388.4 448.5,385.25 442.2,383.45 435.3,383.05z"/>
    </g>
  </g>
  <g id="peel">
    <g id="shape6">
      <path id="path3" fill="#000000" fill-opacity="0.2" d="M384.6,66.45 C384.6,59.95 382.35,54.45 377.65,49.95 373.6,45.85 368.9,43.65 363.4,43.2 L151.55,252.2 Q151.55,262 158.5,268.9 165.4,275.65 175.2,275.65 L360.95,275.65 C374,275.65 384.6,265.25 384.6,252.2 L384.6,66.45z"/>
    </g>
  </g>
</svg>