<?xml version="1.0" encoding="utf-8"?>
<!-- Generator: flash2svg, http://dissentgraphics.com/tools/flash2svg -->
<svg id="Videolan-file" image-rendering="optimizeSpeed" baseProfile="basic" version="1.1" style="background-color:#FFFFFF" x="0px" y="0px" width="1024px" height="1024px" viewBox="0 0 1024 1024" enable-background="new 0 0 1024 1024" xmlns="http://www.w3.org/2000/svg" xmlns:xlink="http://www.w3.org/1999/xlink">
  <defs transform="matrix(1 0 0 1 0 0) "/>
  <g id="Shadow">
    <g id="shape">
      <path id="path" fill="#000000" fill-opacity="0.09803921568627451" d="M904.35,90 C904.35,77 893.75,66.4 880.9,66.4 L389.2,66.4 175.15,275.6 175.15,983.4 C175.15,996.45 185.55,1007 198.55,1007 L880.9,1007 C893.75,1007 904.35,996.45 904.35,983.4 L904.35,90z"/>
    </g>
  </g>
  <g id="Bg">
    <g id="shape2">
      <path id="path1" fill="#F9A000" fill-opacity="1" d="M880.9,66.4 C880.9,53.35 870.3,42.95 857.3,42.95 L365.6,42.95 151.5,252.15 151.5,959.95 Q151.5,969.55 158.45,976.45 165.35,983.4 175.15,983.4 L857.3,983.4 C861.75,983.4 865.95,982.15 869.6,980 871.15,979.05 872.6,977.85 874,976.45 874.3,976.15 874.6,975.85 874.9,975.55 878.9,971.1 880.9,965.9 880.9,959.95 L880.9,66.4z"/>
    </g>
  </g>
  <g id="Ico">
    <g id="shape4">
      <path id="path2" fill="#000000" fill-opacity="0.2" d="M490.35,387.2 C488.9,388.65 487.95,390.2 487.5,392.1 L468.1,454.8 468,454.8 458.8,484.6 458.85,484.6 C466.45,487.6 474.45,489.85 482.8,491.45 483.05,491.5 483.3,491.55 483.55,491.6 483.3,491.55 483,491.5 482.75,491.45 474.4,489.85 466.45,487.6 458.8,484.6 L458.75,484.6 449.8,513.45 449.8,513.5 449.9,513.55 441.05,541.95 441.1,542 432.75,569.05 C432.7,569.15 432.7,569.15 432.7,569.2 432.4,570.15 432.2,571.2 432.2,572.25 432.2,579.3 440.05,585.3 455.7,590.3 471.4,595.3 490.3,597.7 512.45,597.7 534.6,597.7 553.55,595.3 569.15,590.3 584.85,585.3 592.65,579.3 592.65,572.25 592.65,571.3 592.6,570.45 592.35,569.55 L592.2,569 592.15,569 583.8,542.1 583.75,542.1 574.85,513.5 C574.9,513.45 574.9,513.45 574.95,513.45 L557.15,456.1 C556.5,456.25 555.85,456.45 555.2,456.6 555.85,456.45 556.5,456.2 557.15,456.05 L557.1,456.05 537.65,393.15 C537.5,392.1 537.15,391.05 536.7,390.05 536.15,389 535.4,388.05 534.55,387.2 532.45,385.1 529.9,384 526.9,384 L498.05,384 C495,384 492.45,385.1 490.35,387.2z M583.05,512.8 L592.4,542.9 592.45,542.9 601.75,573.05 601.8,573.05 602.05,573.7 C602.3,574.7 602.4,575.65 602.4,576.75 602.4,584.65 593.65,591.35 576.05,596.95 558.5,602.55 537.3,605.3 512.45,605.3 487.6,605.3 466.4,602.55 448.8,596.95 431.2,591.35 422.45,584.65 422.45,576.75 422.45,575.55 422.65,574.4 423.05,573.3 423.05,573.25 423.05,573.25 423.1,573.1 L432.45,542.85 432.4,542.8 441.7,512.8 430.45,512.8 C421.55,512.8 416.2,516.35 414.7,523.5 L391.75,629.7 C391.75,638.65 396.3,643.15 405.3,643.15 L619.65,643.15 C628.65,643.15 633.2,638.65 633.2,629.7 L611,527.2 Q607.9,512.8 594.45,512.8 L583.05,512.8z"/>
    </g>
  </g>
  <g id="peel">
    <g id="shape12">
      <path id="path8" fill="#000000" fill-opacity="0.2" d="M384.55,66.4 C384.55,59.9 382.3,54.4 377.6,49.9 373.55,45.8 368.85,43.6 363.35,43.15 L151.5,252.15 Q151.5,261.95 158.45,268.85 165.35,275.6 175.15,275.6 L360.9,275.6 C373.95,275.6 384.55,265.2 384.55,252.15 L384.55,66.4z"/>
    </g>
  </g>
</svg>