<?xml version="1.0" encoding="utf-8"?>
<!-- Generator: flash2svg, http://dissentgraphics.com/tools/flash2svg -->
<svg xmlns:xlink="http://www.w3.org/1999/xlink" id="VMWare-Fusion-file" image-rendering="optimizeSpeed" baseProfile="basic" version="1.1" style="background-color:#ffffff" x="0px" y="0px" width="1024px" height="1024px" viewBox="0 0 1024 1024" enable-background="new 0 0 1024 1024" xmlns="http://www.w3.org/2000/svg">
  <defs transform="matrix(1 0 0 1 0 0) "/>
  <g id="Shadow">
    <g id="shape">
      <path id="path" fill="#000000" fill-opacity="0.09803921568627451" d="M904.4,90.05 C904.4,77.05 893.8,66.45 880.95,66.45 L389.25,66.45 175.2,275.65 175.2,983.45 C175.2,996.5 185.6,1007.05 198.6,1007.05 L880.95,1007.05 C893.8,1007.05 904.4,996.5 904.4,983.45 L904.4,90.05z"/>
    </g>
  </g>
  <g id="Bg">
    <g id="shape2">
      <path id="path1" fill="#264261" fill-opacity="1" d="M880.95,66.45 C880.95,53.4 870.35,43 857.35,43 L365.65,43 151.55,252.2 151.55,960 Q151.55,969.6 158.5,976.5 165.4,983.45 175.2,983.45 L857.35,983.45 C861.8,983.45 866,982.2 869.65,980.05 871.2,979.1 872.65,977.9 874.05,976.5 874.35,976.2 874.65,975.9 874.95,975.6 878.95,971.15 880.95,965.95 880.95,960 L880.95,66.45z"/>
    </g>
  </g>
  <g id="Ico">
    <g id="shape4">
      <path id="path2" fill="#000000" fill-opacity="0.2" d="M406.6,381.05 C402.3,381.05 398.65,382.55 395.6,385.6 392.55,388.65 391.05,392.3 391.05,396.6 L391.05,526.8 C391.05,531.1 392.55,534.8 395.6,537.8 398.65,540.85 402.3,542.4 406.6,542.4 L471.7,542.4 471.7,461.7 552.4,542.4 552.4,471.7 552.4,396.6 C552.4,392.3 550.85,388.65 547.8,385.6 544.8,382.55 541.1,381.05 536.8,381.05 L406.6,381.05z M638.5,490.3 C635.45,487.25 631.8,485.7 627.5,485.7 L562.4,485.7 562.4,556.4 562.4,566.4 481.7,485.7 481.7,631.5 C481.7,635.8 483.25,639.45 486.3,642.5 489.3,645.55 493,647.05 497.3,647.05 L627.5,647.05 C631.8,647.05 635.45,645.55 638.5,642.5 641.55,639.45 643.05,635.8 643.05,631.5 L643.05,501.3 C643.05,497 641.55,493.3 638.5,490.3z"/>
    </g>
  </g>
  <g id="peel">
    <g id="shape8">
      <path id="path5" fill="#000000" fill-opacity="0.2" d="M384.6,66.45 C384.6,59.95 382.35,54.45 377.65,49.95 373.6,45.85 368.9,43.65 363.4,43.2 L151.55,252.2 Q151.55,262 158.5,268.9 165.4,275.65 175.2,275.65 L360.95,275.65 C374,275.65 384.6,265.25 384.6,252.2 L384.6,66.45z"/>
    </g>
  </g>
</svg>