<?xml version="1.0" encoding="utf-8"?>
<!-- Generator: flash2svg, http://dissentgraphics.com/tools/flash2svg -->
<svg id="Wirecast-file" image-rendering="optimizeSpeed" baseProfile="basic" version="1.1" style="background-color:#FFFFFF" x="0px" y="0px" width="1024px" height="1024px" viewBox="0 0 1024 1024" enable-background="new 0 0 1024 1024" xmlns="http://www.w3.org/2000/svg" xmlns:xlink="http://www.w3.org/1999/xlink">
  <defs transform="matrix(1 0 0 1 0 0) "/>
  <g id="Shadow">
    <g id="shape">
      <path id="path" fill="#000000" fill-opacity="0.09803921568627451" d="M904.35,90 C904.35,77 893.75,66.4 880.9,66.4 L389.2,66.4 175.15,275.6 175.15,983.4 C175.15,996.45 185.55,1007 198.55,1007 L880.9,1007 C893.75,1007 904.35,996.45 904.35,983.4 L904.35,90z"/>
    </g>
  </g>
  <g id="Bg">
    <g id="shape2">
      <path id="path1" fill="#5F5C8E" fill-opacity="1" d="M880.9,66.4 C880.9,53.35 870.3,42.95 857.3,42.95 L365.6,42.95 151.5,252.15 151.5,959.95 Q151.5,969.55 158.45,976.45 165.35,983.4 175.15,983.4 L857.3,983.4 C861.75,983.4 865.95,982.15 869.6,980 871.15,979.05 872.6,977.85 874,976.45 874.3,976.15 874.6,975.85 874.9,975.55 878.9,971.1 880.9,965.9 880.9,959.95 L880.9,66.4z"/>
    </g>
  </g>
  <g id="Ico">
    <g id="shape4">
      <path id="path2" fill="#000000" fill-opacity="0.2" d="M656.75,502.2 C658.8,504.25 661.3,505.3 664.2,505.25 667.1,505.25 669.55,504.25 671.6,502.15 673.65,500.1 674.7,497.6 674.7,494.75 674.55,452.05 659.25,415.6 628.75,385.4 628.75,385.35 628.75,385.35 628.75,385.3 628.25,384.85 627.75,384.4 627.3,383.95 625.2,381.95 622.75,380.95 619.8,381 616.95,381.05 614.5,382.1 612.45,384.2 610.4,386.3 609.4,388.75 609.45,391.7 609.45,394.55 610.55,397 612.65,399.1 613.05,399.5 613.45,399.85 613.85,400.25 L613.9,400.3 C640.25,426.4 653.5,457.9 653.65,494.8 653.65,497.65 654.7,500.15 656.75,502.2z M587.65,413.05 C584.8,413.1 582.3,414.2 580.3,416.3 578.3,418.45 577.35,420.95 577.4,423.8 577.45,426.7 578.55,429.2 580.65,431.2 580.9,431.4 581.05,431.6 581.25,431.8 602.95,453.5 613.9,479.65 614,510.35 614,513.25 615,515.7 617.1,517.75 619.15,519.85 621.65,520.85 624.55,520.85 627.45,520.85 629.9,519.8 631.95,517.75 634.05,515.65 635.05,513.2 635.05,510.25 634.95,473.8 622,442.7 596.15,416.9 595.8,416.55 595.5,416.25 595.2,415.95 593.05,413.95 590.55,413 587.65,413.05z M550.35,446.25 C548.25,448.3 547.2,450.8 547.25,453.7 547.2,456.65 548.25,459.1 550.35,461.15 550.6,461.45 550.8,461.65 551.1,461.95 568.75,479.6 577.65,500.95 577.8,525.95 577.8,528.8 578.85,531.3 580.9,533.35 583,535.4 585.45,536.45 588.35,536.4 591.25,536.4 593.7,535.4 595.8,533.3 597.85,531.25 598.85,528.75 598.85,525.85 598.75,495.1 587.8,468.8 566,447.05 565.75,446.75 565.5,446.5 565.2,446.25 563.15,444.2 560.7,443.15 557.8,443.2 554.85,443.15 552.4,444.2 550.35,446.25z M560.85,537.55 C560.85,508.5 550.55,483.65 529.95,463.1 509.4,442.55 484.6,432.25 455.5,432.25 426.45,432.25 401.6,442.55 381,463.1 Q350.2,493.95 350.2,537.55 C350.2,566.65 360.45,591.5 381,612.05 401.6,632.6 426.45,642.9 455.5,642.9 484.6,642.9 509.4,632.6 529.95,612.05 550.55,591.5 560.85,566.65 560.85,537.55z M543.7,537.55 C543.7,561.95 535.1,582.7 517.85,599.9 500.65,617.15 479.85,625.75 455.5,625.75 431.15,625.75 410.35,617.15 393.1,599.9 375.9,582.7 367.3,561.95 367.3,537.55 367.3,513.2 375.9,492.4 393.1,475.2 410.35,458 431.15,449.35 455.5,449.35 479.85,449.35 500.65,458 517.85,475.2 535.1,492.4 543.7,513.2 543.7,537.55z M509.7,538.15 C509.7,523.4 504.5,510.8 494.05,500.35 483.65,489.95 471.1,484.75 456.3,484.75 441.55,484.75 429,489.95 418.6,500.35 L429.2,510.95 C436.65,503.5 445.75,499.75 456.3,499.75 466.9,499.75 475.95,503.5 483.45,510.95 490.95,518.5 494.7,527.55 494.7,538.15 494.7,548.75 490.95,557.75 483.5,565.25 L494.1,575.85 C504.5,565.45 509.7,552.85 509.7,538.15z M499.95,581.65 L510.55,592.3 C525.6,577.2 533.1,558.95 533.1,537.55 533.1,516.1 525.55,497.8 510.4,482.65 495.25,467.55 476.95,460 455.5,460 434.15,460 415.9,467.5 400.8,482.55 L411.4,493.15 C423.6,481.05 438.3,475 455.5,475 472.8,475 487.55,481.1 499.75,493.3 512,505.55 518.1,520.3 518.1,537.55 518.1,554.8 512.05,569.5 499.95,581.65z M478.3,537.55 C478.3,531.25 476.1,525.9 471.6,521.45 467.2,517 461.8,514.75 455.5,514.75 449.2,514.75 443.85,517 439.35,521.45 434.95,525.9 432.7,531.25 432.7,537.55 432.7,543.85 434.95,549.25 439.35,553.7 443.85,558.15 449.2,560.35 455.5,560.35 461.8,560.35 467.2,558.15 471.6,553.7 476.1,549.25 478.3,543.85 478.3,537.55z M460.75,542.5 C460.75,542.6 460.65,542.65 460.6,542.65 459.2,544.1 457.5,544.8 455.5,544.8 453.5,544.8 451.8,544.1 450.4,542.65 448.95,541.25 448.3,539.6 448.3,537.55 448.3,535.55 448.95,533.85 450.4,532.45 450.45,532.4 450.5,532.35 450.55,532.3 451.95,531 453.6,530.35 455.5,530.35 457.5,530.35 459.2,531.05 460.6,532.45 462,533.85 462.75,535.55 462.75,537.55 462.75,539.5 462.1,541.15 460.75,542.5z"/>
    </g>
  </g>
  <g id="peel">
    <g id="shape24">
      <path id="path21" fill="#000000" fill-opacity="0.2" d="M384.55,66.4 C384.55,59.9 382.3,54.4 377.6,49.9 373.55,45.8 368.85,43.6 363.35,43.15 L151.5,252.15 Q151.5,261.95 158.45,268.85 165.35,275.6 175.15,275.6 L360.9,275.6 C373.95,275.6 384.55,265.2 384.55,252.15 L384.55,66.4z"/>
    </g>
  </g>
</svg>