<?xml version="1.0" encoding="utf-8"?>
<!-- Generator: flash2svg, http://dissentgraphics.com/tools/flash2svg -->
<svg xmlns:xlink="http://www.w3.org/1999/xlink" id="Adobe-After-Effect" image-rendering="optimizeSpeed" baseProfile="basic" version="1.1" style="background-color:#ffffff" x="0px" y="0px" width="1024px" height="1024px" viewBox="0 0 1024 1024" enable-background="new 0 0 1024 1024" xmlns="http://www.w3.org/2000/svg">
  <defs transform="matrix(1 0 0 1 0 0) "/>
  <g id="Shadow">
    <g id="shape">
      <path id="path" fill="#000000" fill-opacity="0.09803921568627451" d="M688.05,63.85 L688.05,60.05 246.05,60.05 C232.25,60.05 220.45,64.95 210.7,74.7 200.95,84.45 196.05,96.25 196.05,110.05 L196.05,954.05 C196.05,967.85 200.95,979.65 210.7,989.4 218.2,996.9 226.9,1001.55 236.85,1003.3 239.8,1003.8 242.9,1004.05 246.05,1004.05 L806.25,1004.05 C820.05,1004.05 831.85,999.15 841.6,989.4 851.35,979.65 856.25,967.85 856.25,954.05 L856.25,232.05 688.05,63.85z"/>
    </g>
  </g>
  <g id="background">
    <g id="shape2">
      <path id="path1" fill="#6C5D87" fill-opacity="1" d="M668.05,43.85 L668.05,40.05 226.05,40.05 C212.25,40.05 200.45,44.95 190.7,54.7 180.95,64.45 176.05,76.25 176.05,90.05 L176.05,934.05 C176.05,947.85 180.95,959.65 190.7,969.4 198.2,976.9 206.9,981.55 216.85,983.3 219.8,983.8 222.9,984.05 226.05,984.05 L786.25,984.05 C800.05,984.05 811.85,979.15 821.6,969.4 831.35,959.65 836.25,947.85 836.25,934.05 L836.25,212.05 668.05,43.85z M681.2,195.85 C680.7,195.3 680.25,194.8 679.8,194.3 680.05,194.55 680.25,194.8 680.5,195.05 680.75,195.3 680.95,195.6 681.2,195.85z"/>
    </g>
  </g>
  <g id="corner-sadow">
    <g id="shape7">
      <path id="path5" fill="#000000" fill-opacity="0.2" d="M718.05,212.05 Q699.111,212.05 685.225,199.775 L836.25,350.8 836.25,212.05 718.05,212.05z"/>
    </g>
  </g>
  <g id="corner">
    <g id="shape9">
      <path id="path6" fill="#FFFFFF" fill-opacity="0.8980392156862745" d="M680.5,195.05 Q681.549,196.249 682.7,197.4 C683.55,198.25 684.4,199.05 685.25,199.8 694.5,207.95 705.4,212.05 718.05,212.05 L836.25,212.05 668.05,43.85 668.05,162.05 C668.05,174.75 672.2,185.75 680.5,195.05z"/>
    </g>
  </g>
  <g id="Content">
    <g id="shape11">
      <path id="path7" fill="#000000" fill-opacity="0.2" d="M661.15,534.05 C658.9,532.9 655.9,532 652.25,531.35 L641.5,529.95 626.55,529.7 C620.1,529.7 614.4,530.1 609.45,531.05 603.55,532 598.6,533.75 594.6,536.35 590.6,538.95 587.5,542.3 585.3,546.45 583.15,550.7 581.5,556.25 580.35,563.3 579.3,570.4 578.8,578.95 578.8,588.95 578.8,598.8 579.45,607.35 580.8,614.65 582.15,621.85 584.25,627.6 586.95,632 589.65,636.45 593.5,639.8 598.35,642.05 603.2,644.2 609.2,645.25 616.2,645.25 L641.7,644.85 655.1,643.8 C661.55,643.2 668,641.75 674.45,639.3 L674.45,618.95 C664.2,620.55 653.5,621.35 642.35,621.35 L621.85,620.8 C619.45,620.45 617.05,619.55 614.75,618.15 612.4,616.85 610.85,614.7 610.05,611.7 609.25,608.7 608.8,604.7 608.8,599.65 L644.95,599.65 C658.9,599.65 668.2,595.6 672.95,587.45 675.4,583.2 676.65,576.9 676.65,568.55 Q676.65,556 672.75,546.4 C671.6,543.5 669.95,541.05 667.85,539 L661.15,534.05z M643.75,555.7 C645.65,557.8 646.65,562.4 646.65,569.5 646.65,575.2 643.5,578.05 637.2,578.05 L608.8,578.05 608.8,572.8 609.6,563.5 C610.2,560.25 611.5,557.8 613.6,556.1 615.6,554.5 617.75,553.55 620,553.2 L632.1,552.55 C637.95,552.55 641.85,553.6 643.75,555.7z M491,382.65 L434.25,382.65 346.3,643.75 399.8,643.75 418.55,585.9 504.3,585.9 522.75,643.75 576.05,643.75 491,382.65z M463.2,448.3 L492.45,541.65 431.85,541.65 463.2,448.3z"/>
    </g>
  </g>
</svg>