<?xml version="1.0" encoding="utf-8"?>
<!-- Generator: flash2svg, http://dissentgraphics.com/tools/flash2svg -->
<svg xmlns:xlink="http://www.w3.org/1999/xlink" id="Bittorrent" image-rendering="optimizeSpeed" baseProfile="basic" version="1.1" style="background-color:#ffffff" x="0px" y="0px" width="1024px" height="1024px" viewBox="0 0 1024 1024" enable-background="new 0 0 1024 1024" xmlns="http://www.w3.org/2000/svg">
  <defs transform="matrix(1 0 0 1 0 0) "/>
  <g id="Shadow">
    <g id="shape">
      <path id="path" fill="#000000" fill-opacity="0.09803921568627451" d="M688.05,63.85 L688.05,60.05 246.05,60.05 C232.25,60.05 220.45,64.95 210.7,74.7 200.95,84.45 196.05,96.25 196.05,110.05 L196.05,954.05 C196.05,967.85 200.95,979.65 210.7,989.4 218.2,996.9 226.9,1001.55 236.85,1003.3 239.8,1003.8 242.9,1004.05 246.05,1004.05 L806.25,1004.05 C820.05,1004.05 831.85,999.15 841.6,989.4 851.35,979.65 856.25,967.85 856.25,954.05 L856.25,232.05 688.05,63.85z"/>
    </g>
  </g>
  <g id="background">
    <g id="shape2">
      <path id="path1" fill="#7769AB" fill-opacity="1" d="M668.05,43.85 L668.05,40.05 226.05,40.05 C212.25,40.05 200.45,44.95 190.7,54.7 180.95,64.45 176.05,76.25 176.05,90.05 L176.05,934.05 C176.05,947.85 180.95,959.65 190.7,969.4 198.2,976.9 206.9,981.55 216.85,983.3 219.8,983.8 222.9,984.05 226.05,984.05 L786.25,984.05 C800.05,984.05 811.85,979.15 821.6,969.4 831.35,959.65 836.25,947.85 836.25,934.05 L836.25,212.05 668.05,43.85z M679.8,194.3 C680.05,194.55 680.25,194.8 680.5,195.05 680.75,195.3 680.95,195.6 681.2,195.85 680.7,195.3 680.25,194.8 679.8,194.3z"/>
    </g>
  </g>
  <g id="corner-sadow">
    <g id="shape7">
      <path id="path5" fill="#000000" fill-opacity="0.2" d="M718.05,212.05 Q699.111,212.05 685.225,199.775 L836.25,350.8 836.25,212.05 718.05,212.05z"/>
    </g>
  </g>
  <g id="corner">
    <g id="shape9">
      <path id="path6" fill="#FFFFFF" fill-opacity="0.8980392156862745" d="M680.5,195.05 Q681.549,196.249 682.7,197.4 C683.55,198.25 684.4,199.05 685.25,199.8 694.5,207.95 705.4,212.05 718.05,212.05 L836.25,212.05 668.05,43.85 668.05,162.05 C668.05,174.75 672.2,185.75 680.5,195.05z"/>
    </g>
  </g>
  <g id="Content">
    <g id="shape11">
      <path id="path7" fill="#000000" fill-opacity="0.2" d="M485.5,386.8 C482.75,385.1 479.8,384.6 476.7,385.35 454.15,390.7 434.15,402.05 416.7,419.45 391.45,444.55 378.85,474.9 378.85,510.4 378.85,545.9 391.45,576.25 416.7,601.35 441.8,626.35 472.1,638.9 507.6,639 508.35,639 509.1,638.95 509.8,638.8 L647.4,638.8 647.4,615.4 504.45,615.4 C503.95,615.4 503.45,615.45 502.95,615.5 475.9,614.4 452.65,604.15 433.2,584.8 412.55,564.25 402.25,539.45 402.25,510.4 402.25,481.35 412.55,456.55 433.2,436 447.45,421.8 463.75,412.5 482.1,408.1 485.2,407.35 487.65,405.6 489.35,402.85 Q491.9,398.7 490.75,394.05 C490,390.9 488.25,388.5 485.5,386.8z M496.4,437.7 C499.55,437.25 502.1,435.7 504.05,433.15 506,430.55 506.75,427.65 506.3,424.5 505.8,421.3 504.3,418.75 501.7,416.8 499.1,414.85 496.25,414.1 493.05,414.55 472.6,417.5 454.75,426.6 439.45,441.9 420.55,460.8 411.1,483.6 411.1,510.4 411.1,537.15 420.55,560 439.45,578.9 458.3,597.7 481,607.2 507.55,607.25 508.05,607.25 508.6,607.25 509.1,607.2 L647.4,607.2 647.4,583.8 507.1,583.8 C506.7,583.8 506.25,583.8 505.85,583.85 486.45,583.4 469.85,576.2 456,562.4 442,548.4 434.85,531.3 434.5,511.15 434.5,511.1 434.5,511 434.5,510.95 L434.5,510.4 C434.65,489.9 441.85,472.6 456,458.4 467.55,446.85 481,439.95 496.4,437.7z M510.65,469.6 C513.85,469.75 516.65,468.75 519.05,466.6 521.5,464.45 522.75,461.75 522.95,458.55 523.1,455.35 522.1,452.55 519.95,450.15 517.8,447.7 515.15,446.4 511.9,446.25 510.6,446.15 509.3,446.15 508,446.15 490.25,446.15 475.1,452.4 462.55,464.95 450,477.5 443.7,492.65 443.7,510.4 443.7,528.15 450,543.3 462.55,555.85 475,568.25 490,574.55 507.55,574.65 L647.4,574.65 647.4,551.3 507.6,551.3 C496.45,551.2 486.95,547.2 479.1,539.3 471.1,531.35 467.1,521.7 467.1,510.4 467.1,499.1 471.1,489.5 479.1,481.5 487.05,473.5 496.7,469.5 508,469.5 508.85,469.5 509.75,469.55 510.65,469.6z"/>
    </g>
  </g>
</svg>