<?xml version="1.0" encoding="utf-8"?>
<!-- Generator: flash2svg, http://dissentgraphics.com/tools/flash2svg -->
<svg xmlns:xlink="http://www.w3.org/1999/xlink" id="Coda" image-rendering="optimizeSpeed" baseProfile="basic" version="1.1" style="background-color:#ffffff" x="0px" y="0px" width="1024px" height="1024px" viewBox="0 0 1024 1024" enable-background="new 0 0 1024 1024" xmlns="http://www.w3.org/2000/svg">
  <defs transform="matrix(1 0 0 1 0 0) "/>
  <g id="Shadow">
    <g id="shape">
      <path id="path" fill="#000000" fill-opacity="0.09803921568627451" d="M688.05,63.85 L688.05,60.05 246.05,60.05 C232.25,60.05 220.45,64.95 210.7,74.7 200.95,84.45 196.05,96.25 196.05,110.05 L196.05,954.05 C196.05,967.85 200.95,979.65 210.7,989.4 218.2,996.9 226.9,1001.55 236.85,1003.3 239.8,1003.8 242.9,1004.05 246.05,1004.05 L806.25,1004.05 C820.05,1004.05 831.85,999.15 841.6,989.4 851.35,979.65 856.25,967.85 856.25,954.05 L856.25,232.05 688.05,63.85z"/>
    </g>
  </g>
  <g id="background">
    <g id="shape2">
      <path id="path1" fill="#659D65" fill-opacity="1" d="M668.05,43.85 L668.05,40.05 226.05,40.05 C212.25,40.05 200.45,44.95 190.7,54.7 180.95,64.45 176.05,76.25 176.05,90.05 L176.05,934.05 C176.05,947.85 180.95,959.65 190.7,969.4 198.2,976.9 206.9,981.55 216.85,983.3 219.8,983.8 222.9,984.05 226.05,984.05 L786.25,984.05 C800.05,984.05 811.85,979.15 821.6,969.4 831.35,959.65 836.25,947.85 836.25,934.05 L836.25,212.05 668.05,43.85z M680.5,195.05 C680.75,195.3 680.95,195.6 681.2,195.85 680.7,195.3 680.25,194.8 679.8,194.3 680.05,194.55 680.25,194.8 680.5,195.05z"/>
    </g>
  </g>
  <g id="corner-sadow">
    <g id="shape7">
      <path id="path5" fill="#000000" fill-opacity="0.2" d="M718.05,212.05 Q699.111,212.05 685.225,199.775 L836.25,350.8 836.25,212.05 718.05,212.05z"/>
    </g>
  </g>
  <g id="corner">
    <g id="shape9">
      <path id="path6" fill="#FFFFFF" fill-opacity="0.8980392156862745" d="M680.5,195.05 Q681.549,196.249 682.7,197.4 C683.55,198.25 684.4,199.05 685.25,199.8 694.5,207.95 705.4,212.05 718.05,212.05 L836.25,212.05 668.05,43.85 668.05,162.05 C668.05,174.75 672.2,185.75 680.5,195.05z"/>
    </g>
  </g>
  <g id="Content">
    <g id="shape11">
      <path id="path7" fill="#000000" fill-opacity="0.2" d="M595.35,379.05 C595.4,379.15 595.4,379.25 595.45,379.35 L595.425,379.35 L595.3,379.05 C516.95,465.4 454.35,441.1 417.1,517.65 Q393.75,565.55 410.75,602.65 419.3,621.35 432.45,630.3 C452.4,547.05 553.2,488.35 553.2,488.35 L474,592.75 C460.85,622.75 460.75,641.7 460.75,641.7 L471.4,644.1 C471.55,644.15 471.7,644.15 471.85,644.15 L471.825,644.15 L483.65,644.95 C488.1,644.95 492.6,644.6 497.25,643.95 497.4,643.9 497.5,643.9 497.65,643.9 497.8,643.85 497.95,643.85 498.1,643.8 498.25,643.75 498.4,643.75 498.55,643.75 498.7,643.7 498.85,643.7 499,643.65 499.15,643.6 499.3,643.6 499.45,643.6 499.6,643.55 499.75,643.55 499.9,643.5 531.65,638.05 561.6,618.7 589.75,585.55 617.9,552.35 627.25,508 617.85,452.45 617.8,452.2 617.75,451.9 617.7,451.65 617.65,451.5 617.65,451.35 617.65,451.25 617.6,451 617.55,450.7 617.5,450.45 614.65,434.25 610.35,418 604.6,401.75 604.45,401.2 604.25,400.7 604.05,400.15 L595.35,379.05z"/>
    </g>
  </g>
</svg>