<?xml version="1.0" encoding="utf-8"?>
<!-- Generator: flash2svg, http://dissentgraphics.com/tools/flash2svg -->
<svg xmlns:xlink="http://www.w3.org/1999/xlink" id="Codekit" image-rendering="optimizeSpeed" baseProfile="basic" version="1.1" style="background-color:#ffffff" x="0px" y="0px" width="1024px" height="1024px" viewBox="0 0 1024 1024" enable-background="new 0 0 1024 1024" xmlns="http://www.w3.org/2000/svg">
  <defs transform="matrix(1 0 0 1 0 0) "/>
  <g id="Shadow">
    <g id="shape">
      <path id="path" fill="#000000" fill-opacity="0.09803921568627451" d="M688.05,63.85 L688.05,60.05 246.05,60.05 C232.25,60.05 220.45,64.95 210.7,74.7 200.95,84.45 196.05,96.25 196.05,110.05 L196.05,954.05 C196.05,967.85 200.95,979.65 210.7,989.4 218.2,996.9 226.9,1001.55 236.85,1003.3 239.8,1003.8 242.9,1004.05 246.05,1004.05 L806.25,1004.05 C820.05,1004.05 831.85,999.15 841.6,989.4 851.35,979.65 856.25,967.85 856.25,954.05 L856.25,232.05 688.05,63.85z"/>
    </g>
  </g>
  <g id="background">
    <g id="shape2">
      <path id="path1" fill="#FFCC00" fill-opacity="1" d="M668.05,43.85 L668.05,40.05 226.05,40.05 C212.25,40.05 200.45,44.95 190.7,54.7 180.95,64.45 176.05,76.25 176.05,90.05 L176.05,934.05 C176.05,947.85 180.95,959.65 190.7,969.4 198.2,976.9 206.9,981.55 216.85,983.3 219.8,983.8 222.9,984.05 226.05,984.05 L786.25,984.05 C800.05,984.05 811.85,979.15 821.6,969.4 831.35,959.65 836.25,947.85 836.25,934.05 L836.25,212.05 668.05,43.85z M679.8,194.3 C680.05,194.55 680.25,194.8 680.5,195.05 680.75,195.3 680.95,195.6 681.2,195.85 680.7,195.3 680.25,194.8 679.8,194.3z"/>
    </g>
  </g>
  <g id="corner-sadow">
    <g id="shape7">
      <path id="path5" fill="#000000" fill-opacity="0.2" d="M718.05,212.05 Q699.111,212.05 685.225,199.775 L836.25,350.8 836.25,212.05 718.05,212.05z"/>
    </g>
  </g>
  <g id="corner">
    <g id="shape9">
      <path id="path6" fill="#FFFFFF" fill-opacity="0.8980392156862745" d="M680.5,195.05 Q681.549,196.249 682.7,197.4 C683.55,198.25 684.4,199.05 685.25,199.8 694.5,207.95 705.4,212.05 718.05,212.05 L836.25,212.05 668.05,43.85 668.05,162.05 C668.05,174.75 672.2,185.75 680.5,195.05z"/>
    </g>
  </g>
  <g id="Calque.__201">
    <g id="shape11">
      <path id="path7" fill="#000000" fill-opacity="0.2" d="M659.9,503.15 L659.85,503.15 C659.95,504.7 659.75,506.25 659.25,507.65 L659.25,507.6 658.1,510.9 C658.1,510.95 658.05,511.05 658,511.15 657.55,512.5 656.9,513.7 655.95,514.8 L592.2,587.25 C591.15,588.4 589.9,589.3 588.5,589.95 588.45,589.95 588.4,590 588.35,590.05 L584.8,591.5 584.9,591.5 C582.05,592.8 579,592.8 575.7,591.55 L572.25,590.15 C572.05,590.05 571.9,590 571.7,589.9 570.5,589.35 569.35,588.65 568.25,587.7 568.25,587.65 568.2,587.6 568.15,587.6 L559.45,579.7 C558.55,578.85 557.75,577.9 557.05,576.85 557,576.65 556.9,576.5 556.8,576.3 L554.95,573.1 554.9,573.1 C554.3,571.9 553.8,570.7 553.5,569.45 553.25,570.65 553.2,571.9 553.35,573.1 L554.6,602.9 C554.85,604.4 555.35,605.8 556.1,607.2 L556.1,607.25 557.95,610.45 C558.1,610.65 558.15,610.8 558.25,611 558.95,612.05 559.75,613 560.65,613.85 L569.35,621.75 C569.4,621.75 569.4,621.8 569.45,621.85 570.5,622.75 571.7,623.5 572.9,624.1 573.1,624.1 573.25,624.25 573.45,624.25 L576.9,625.65 C580.15,627 583.2,626.95 586.05,625.65 L589.55,624.15 C589.55,624.1 589.6,624.1 589.7,624.1 591.1,623.45 592.35,622.55 593.35,621.35 L657.15,548.9 C658.05,547.85 658.75,546.65 659.2,545.3 659.25,545.2 659.25,545.15 659.3,545.05 L660.4,541.8 C660.95,540.35 661.15,538.85 661,537.3 L661.05,537.35 659.9,503.15z M369.1,503.15 L369.05,503.15 367.9,537.35 367.95,537.3 C367.85,538.85 368,540.35 368.55,541.8 L369.65,545.05 C369.7,545.15 369.7,545.2 369.75,545.3 370.2,546.65 370.9,547.85 371.8,548.9 L435.6,621.35 C436.6,622.55 437.85,623.45 439.3,624.1 439.35,624.1 439.4,624.1 439.45,624.15 L442.95,625.65 442.9,625.65 C445.75,626.95 448.8,627 452.1,625.65 L455.5,624.25 C455.7,624.25 455.85,624.1 456.05,624.1 457.3,623.5 458.45,622.75 459.5,621.85 459.55,621.8 459.6,621.75 459.6,621.75 L468.3,613.85 C469.2,613 470,612.05 470.7,611 470.8,610.8 470.9,610.65 471,610.45 L472.85,607.25 472.85,607.2 C473.65,605.8 474.1,604.4 474.35,602.9 L475.6,573.1 C475.75,571.9 475.7,570.65 475.45,569.45 475.2,570.7 474.7,571.9 474.05,573.1 L474,573.1 472.15,576.3 C472.05,576.5 471.95,576.65 471.9,576.85 471.2,577.9 470.45,578.85 469.55,579.7 L460.8,587.6 C460.75,587.6 460.7,587.65 460.7,587.7 459.6,588.65 458.45,589.35 457.25,589.9 457.05,590 456.9,590.05 456.7,590.15 L453.25,591.55 C450,592.8 446.95,592.8 444.05,591.5 L444.15,591.5 440.65,590.05 C440.55,590 440.5,589.95 440.5,589.95 439.05,589.3 437.8,588.4 436.75,587.25 L373.05,514.8 C372.1,513.7 371.4,512.5 370.95,511.15 370.9,511.05 370.9,510.95 370.9,510.9 L369.7,507.6 369.7,507.65 C369.2,506.25 369,504.7 369.1,503.15z M487.2,419.05 C487.05,418.9 486.95,418.75 486.8,418.65 L480.45,411.45 C480.35,411.35 480.25,411.25 480.2,411.15 479.25,410.05 478.1,409.2 476.8,408.6 476.7,408.55 476.65,408.5 476.6,408.45 L473.5,406.95 C471.9,406.15 470.25,405.8 468.45,405.8 466.8,405.75 465.25,406.1 463.7,406.75 L459.75,408.4 C459.6,408.45 459.45,408.5 459.3,408.6 458.25,409.1 457.2,409.8 456.25,410.6 L375.35,482.95 C374.4,483.8 373.6,484.8 372.95,485.9 372.85,486 372.85,486.05 372.75,486.15 L370.7,489.9 C369.85,491.35 369.35,492.9 369.2,494.45 369.15,494.5 369.15,494.55 369.15,494.55 369.15,494.75 369.1,494.95 369.1,495.15 369,496.7 369.2,498.25 369.7,499.65 L369.7,499.6 370.9,502.9 C370.9,502.95 370.9,503.05 370.95,503.15 371.4,504.5 372.1,505.7 373.05,506.8 L436.75,579.25 C437.8,580.4 439.05,581.3 440.5,581.95 440.5,581.95 440.55,582 440.65,582.05 L444.15,583.5 444.05,583.5 C446.95,584.8 450,584.8 453.25,583.55 L456.7,582.15 C456.9,582.05 457.05,582 457.25,581.9 458.45,581.35 459.6,580.65 460.7,579.7 460.7,579.65 460.75,579.6 460.8,579.6 L469.55,571.7 C470.45,570.85 471.2,569.9 471.9,568.85 471.95,568.65 472.05,568.5 472.15,568.3 L474,565.1 474.05,565.1 C474.7,563.9 475.2,562.7 475.45,561.45 475.5,561.15 475.55,560.75 475.6,560.4 L475.6,560.3 C475.8,558.55 475.65,556.9 475.1,555.35 L473.95,551.75 C473.85,551.65 473.8,551.55 473.8,551.45 473.35,550.25 472.7,549.15 471.9,548.15 471.75,548 471.65,547.85 471.5,547.7 L425.55,495.65 484.35,443.2 C484.5,443.1 484.65,442.9 484.85,442.75 485.8,441.85 486.65,440.8 487.25,439.75 487.3,439.65 487.35,439.6 487.4,439.55 L489.3,436.05 C489.4,435.95 489.45,435.8 489.5,435.75 490.25,434.3 490.75,432.85 490.9,431.3 L490.9,431.2 C490.9,431.15 490.9,431.1 490.9,431.1 491.05,429.55 490.9,428.1 490.55,426.7 490.5,426.55 490.45,426.35 490.45,426.2 L489.25,422.65 C489.2,422.6 489.15,422.5 489.1,422.45 488.65,421.1 488,420 487.2,419.05z M495.25,439.75 C494.65,440.8 493.8,441.85 492.85,442.75 492.65,442.9 492.5,443.1 492.35,443.2 L433.55,495.65 449.9,514.2 491.1,477.35 C491.3,477.2 491.5,477.05 491.7,476.9 492.65,476 493.4,475 494.1,473.85 494.1,473.8 494.15,473.75 494.2,473.65 L496.15,470.2 C496.15,470.1 496.25,470 496.3,469.85 497.1,468.45 497.55,466.95 497.7,465.45 497.7,465.35 497.7,465.3 497.75,465.25 497.75,465 497.75,464.75 497.8,464.55 497.8,464.5 497.8,464.45 497.8,464.4 497.8,464.15 497.8,463.9 497.8,463.7 L498.9,431.3 C498.75,432.85 498.25,434.3 497.5,435.75 497.45,435.8 497.4,435.95 497.3,436.05 L495.4,439.55 C495.35,439.6 495.3,439.65 495.25,439.75z M659.8,494.45 C659.65,492.9 659.1,491.35 658.25,489.9 L656.2,486.15 C656.15,486.05 656.1,486 656,485.9 655.35,484.8 654.55,483.8 653.6,482.95 L572.7,410.6 C571.75,409.8 570.75,409.1 569.65,408.6 569.5,408.5 569.35,408.45 569.2,408.4 L565.25,406.75 C563.75,406.1 562.15,405.75 560.55,405.8 558.7,405.8 557.05,406.15 555.5,406.95 L552.35,408.45 C552.3,408.5 552.25,408.55 552.15,408.6 550.85,409.2 549.7,410.05 548.8,411.15 548.7,411.25 548.65,411.35 548.5,411.45 L542.2,418.65 C542.05,418.75 541.9,418.9 541.75,419.05 541,420 540.3,421.1 539.85,422.45 539.8,422.5 539.75,422.6 539.75,422.65 L538.55,426.2 C538.5,426.35 538.45,426.55 538.4,426.7 538.05,428.1 537.9,429.55 538.05,431.1 538.05,431.1 538.05,431.15 538.05,431.2 L538.05,431.3 C538.25,432.85 538.7,434.3 539.45,435.75 539.5,435.8 539.6,435.95 539.65,436.05 L541.6,439.55 C541.6,439.6 541.65,439.65 541.7,439.75 542.35,440.8 543.15,441.85 544.1,442.75 544.3,442.9 544.5,443.1 544.65,443.2 L603.4,495.65 557.5,547.7 C557.35,547.85 557.2,548 557.05,548.15 556.25,549.15 555.65,550.25 555.15,551.45 555.15,551.55 555.1,551.65 555.05,551.75 L553.85,555.35 C553.35,556.9 553.2,558.55 553.35,560.3 L553.35,560.4 C553.4,560.75 553.45,561.15 553.5,561.45 553.8,562.7 554.3,563.9 554.9,565.1 L554.95,565.1 556.8,568.3 C556.9,568.5 557,568.65 557.05,568.85 557.75,569.9 558.55,570.85 559.45,571.7 L568.15,579.6 C568.2,579.6 568.25,579.65 568.25,579.7 569.35,580.65 570.5,581.35 571.7,581.9 571.9,582 572.05,582.05 572.25,582.15 L575.7,583.55 C579,584.8 582.05,584.8 584.9,583.5 L584.8,583.5 588.35,582.05 C588.4,582 588.45,581.95 588.5,581.95 589.9,581.3 591.15,580.4 592.2,579.25 L655.95,506.8 C656.9,505.7 657.55,504.5 658,503.15 658.05,503.05 658.1,502.95 658.1,502.9 L659.25,499.6 659.25,499.65 C659.75,498.25 659.95,496.7 659.85,495.15 659.85,494.95 659.8,494.75 659.8,494.55 659.8,494.55 659.8,494.5 659.8,494.45z M531.65,436.05 C531.6,435.95 531.5,435.8 531.45,435.75 530.7,434.3 530.25,432.85 530.05,431.3 L531.15,463.7 C531.15,463.9 531.15,464.15 531.15,464.4 531.15,464.45 531.15,464.5 531.15,464.55 531.2,464.75 531.2,465 531.2,465.25 531.25,465.3 531.25,465.35 531.25,465.45 531.45,466.95 531.9,468.45 532.65,469.85 532.7,470 532.8,470.1 532.85,470.2 L534.75,473.65 C534.8,473.75 534.85,473.8 534.85,473.85 535.55,475 536.35,476 537.25,476.9 537.45,477.05 537.65,477.2 537.85,477.35 L579.05,514.2 595.4,495.65 536.65,443.2 C536.5,443.1 536.3,442.9 536.1,442.75 535.15,441.85 534.35,440.8 533.7,439.75 533.65,439.65 533.6,439.6 533.6,439.55 L531.65,436.05z"/>
    </g>
  </g>
</svg>