<?xml version="1.0" encoding="utf-8"?>
<!-- Generator: flash2svg, http://dissentgraphics.com/tools/flash2svg -->
<svg xmlns:xlink="http://www.w3.org/1999/xlink" id="Eclipse" image-rendering="optimizeSpeed" baseProfile="basic" version="1.1" style="background-color:#ffffff" x="0px" y="0px" width="1024px" height="1024px" viewBox="0 0 1024 1024" enable-background="new 0 0 1024 1024" xmlns="http://www.w3.org/2000/svg">
  <defs transform="matrix(1 0 0 1 0 0) "/>
  <g id="Shadow">
    <g id="shape">
      <path id="path" fill="#000000" fill-opacity="0.09803921568627451" d="M688.05,63.85 L688.05,60.05 246.05,60.05 C232.25,60.05 220.45,64.95 210.7,74.7 200.95,84.45 196.05,96.25 196.05,110.05 L196.05,954.05 C196.05,967.85 200.95,979.65 210.7,989.4 218.2,996.9 226.9,1001.55 236.85,1003.3 239.8,1003.8 242.9,1004.05 246.05,1004.05 L806.25,1004.05 C820.05,1004.05 831.85,999.15 841.6,989.4 851.35,979.65 856.25,967.85 856.25,954.05 L856.25,232.05 688.05,63.85z"/>
    </g>
  </g>
  <g id="background">
    <g id="shape2">
      <path id="path1" fill="#2C2056" fill-opacity="1" d="M668.05,43.85 L668.05,40.05 226.05,40.05 C212.25,40.05 200.45,44.95 190.7,54.7 180.95,64.45 176.05,76.25 176.05,90.05 L176.05,934.05 C176.05,947.85 180.95,959.65 190.7,969.4 198.2,976.9 206.9,981.55 216.85,983.3 219.8,983.8 222.9,984.05 226.05,984.05 L786.25,984.05 C800.05,984.05 811.85,979.15 821.6,969.4 831.35,959.65 836.25,947.85 836.25,934.05 L836.25,212.05 668.05,43.85z M679.8,194.3 C680.05,194.55 680.25,194.8 680.5,195.05 680.75,195.3 680.95,195.6 681.2,195.85 680.7,195.3 680.25,194.8 679.8,194.3z"/>
    </g>
  </g>
  <g id="corner-sadow">
    <g id="shape7">
      <path id="path5" fill="#000000" fill-opacity="0.2" d="M718.05,212.05 Q699.111,212.05 685.225,199.775 L836.25,350.8 836.25,212.05 718.05,212.05z"/>
    </g>
  </g>
  <g id="corner">
    <g id="shape9">
      <path id="path6" fill="#FFFFFF" fill-opacity="0.8980392156862745" d="M680.5,195.05 Q681.549,196.249 682.7,197.4 C683.55,198.25 684.4,199.05 685.25,199.8 694.5,207.95 705.4,212.05 718.05,212.05 L836.25,212.05 668.05,43.85 668.05,162.05 C668.05,174.75 672.2,185.75 680.5,195.05z"/>
    </g>
  </g>
  <g id="Content">
    <g id="shape11">
      <path id="path7" fill="#000000" fill-opacity="0.2" d="M520.5,385.75 C517.8,385.6 514.95,385.5 512.1,385.5 509.5,385.5 506.95,385.55 504.35,385.7 471.45,387.4 443.1,400.15 419.3,423.95 403.75,439.5 392.95,456.95 386.85,476.25 L637.4,476.25 C637.05,475.2 636.7,474.1 636.3,473 636.2,472.8 636.1,472.55 636.05,472.3 634.25,467.2 632.1,462.25 629.6,457.35 628.55,455.3 627.4,453.2 626.2,451.15 620.55,441.55 613.45,432.45 604.95,423.95 584.8,403.8 561.35,391.55 534.65,387.25 534.55,387.25 534.5,387.25 534.4,387.2 529.9,386.5 525.3,386 520.5,385.75z M641.5,540 C642.3,535.25 642.85,530.4 643.15,525.4 L381.1,525.4 C381.4,530.45 381.95,535.35 382.75,540 L641.5,540z M634.8,564.6 C635.75,562.2 636.6,559.75 637.4,557.25 L386.85,557.25 C393.05,576.75 403.85,594.15 419.3,609.6 427.2,617.5 435.6,624.2 444.25,629.5 445.2,630.05 446,630.55 446.8,631 452.3,634.2 457.85,636.9 463.55,639.15 465.35,639.9 467.05,640.5 468.75,641.1 473.3,642.65 477.9,643.9 482.4,644.9 489.6,646.5 496.85,647.45 504.35,647.85 504.4,647.85 504.45,647.85 504.45,647.85 506.85,647.95 509.1,648.05 511.3,648.05 511.6,648.05 511.85,648.05 512.1,648.05 515,648.05 517.8,647.95 520.5,647.8 521.2,647.75 521.8,647.75 522.4,647.7 528.05,647.3 533.5,646.55 538.75,645.55 540.95,645.1 543.15,644.65 545.25,644.1 550.1,642.9 554.8,641.4 559.4,639.7 562.85,638.35 566.2,636.9 569.5,635.25 573.1,633.5 576.55,631.6 579.95,629.5 580.8,629 581.65,628.45 582.5,627.9 586.55,625.25 590.45,622.4 594.25,619.3 597.95,616.3 601.5,613.05 604.95,609.6 608.25,606.3 611.35,602.9 614.2,599.45 623.1,588.65 630,577.05 634.8,564.6z M643.15,508.15 C642.85,503.2 642.3,498.35 641.5,493.55 L382.75,493.55 Q381.55,500.7 381.1,508.15 L643.15,508.15z"/>
    </g>
  </g>
</svg>