<?xml version="1.0" encoding="utf-8"?>
<!-- Generator: flash2svg, http://dissentgraphics.com/tools/flash2svg -->
<svg xmlns:xlink="http://www.w3.org/1999/xlink" id="Messages" image-rendering="optimizeSpeed" baseProfile="basic" version="1.1" style="background-color:#ffffff" x="0px" y="0px" width="1024px" height="1024px" viewBox="0 0 1024 1024" enable-background="new 0 0 1024 1024" xmlns="http://www.w3.org/2000/svg">
  <defs transform="matrix(1 0 0 1 0 0) "/>
  <g id="Shadow">
    <g id="shape">
      <path id="path" fill="#000000" fill-opacity="0.09803921568627451" d="M688.05,63.85 L688.05,60.05 246.05,60.05 C232.25,60.05 220.45,64.95 210.7,74.7 200.95,84.45 196.05,96.25 196.05,110.05 L196.05,954.05 C196.05,967.85 200.95,979.65 210.7,989.4 218.2,996.9 226.9,1001.55 236.85,1003.3 239.8,1003.8 242.9,1004.05 246.05,1004.05 L806.25,1004.05 C820.05,1004.05 831.85,999.15 841.6,989.4 851.35,979.65 856.25,967.85 856.25,954.05 L856.25,232.05 688.05,63.85z"/>
    </g>
  </g>
  <g id="background">
    <g id="shape2">
      <path id="path1" fill="#53A7D4" fill-opacity="1" d="M668.05,43.85 L668.05,40.05 226.05,40.05 C212.25,40.05 200.45,44.95 190.7,54.7 180.95,64.45 176.05,76.25 176.05,90.05 L176.05,934.05 C176.05,947.85 180.95,959.65 190.7,969.4 198.2,976.9 206.9,981.55 216.85,983.3 219.8,983.8 222.9,984.05 226.05,984.05 L786.25,984.05 C800.05,984.05 811.85,979.15 821.6,969.4 831.35,959.65 836.25,947.85 836.25,934.05 L836.25,212.05 668.05,43.85z M680.5,195.05 C680.75,195.3 680.95,195.6 681.2,195.85 680.7,195.3 680.25,194.8 679.8,194.3 680.05,194.55 680.25,194.8 680.5,195.05z"/>
    </g>
  </g>
  <g id="corner-sadow">
    <g id="shape7">
      <path id="path5" fill="#000000" fill-opacity="0.2" d="M718.05,212.05 Q699.111,212.05 685.225,199.775 L836.25,350.8 836.25,212.05 718.05,212.05z"/>
    </g>
  </g>
  <g id="corner">
    <g id="shape9">
      <path id="path6" fill="#FFFFFF" fill-opacity="0.8980392156862745" d="M680.5,195.05 Q681.549,196.249 682.7,197.4 C683.55,198.25 684.4,199.05 685.25,199.8 694.5,207.95 705.4,212.05 718.05,212.05 L836.25,212.05 668.05,43.85 668.05,162.05 C668.05,174.75 672.2,185.75 680.5,195.05z"/>
    </g>
  </g>
  <g id="Calque.__201">
    <g id="shape11">
      <path id="path7" fill="#000000" fill-opacity="0.2" d="M414.1,380.05 C409.25,380.05 405.05,381.8 401.6,385.25 398.1,388.75 396.4,392.95 396.4,397.8 L396.4,531.5 396.4,562.25 C396.4,567.15 398.1,571.35 401.6,574.8 405.05,578.25 409.25,580 414.1,580 L507.55,580 567.3,639.8 C570.1,642.55 573.45,643.95 577.4,643.95 581.35,643.95 584.7,642.55 587.5,639.8 590.25,637 591.65,633.65 591.65,629.7 L591.65,580 610.9,580 C615.8,580 620,578.25 623.45,574.8 626.9,571.35 628.65,567.15 628.65,562.25 L628.65,397.8 C628.65,392.95 626.9,388.75 623.45,385.25 620,381.8 615.8,380.05 610.9,380.05 L536.1,380.05 414.1,380.05z M585.1,462.75 C589.1,466.75 591.1,471.6 591.1,477.2 591.1,482.85 589.1,487.65 585.1,491.65 581.1,495.65 576.35,497.65 570.7,497.65 565.05,497.65 560.25,495.65 556.25,491.65 552.25,487.65 550.25,482.85 550.25,477.2 550.25,471.6 552.25,466.75 556.25,462.75 560.25,458.75 565.05,456.8 570.7,456.8 576.35,456.8 581.1,458.75 585.1,462.75z M492.3,477.2 C492.3,471.6 494.3,466.75 498.25,462.75 502.25,458.75 507.1,456.8 512.75,456.8 518.35,456.8 523.15,458.75 527.15,462.75 531.15,466.75 533.15,471.6 533.15,477.2 533.15,482.85 531.15,487.65 527.15,491.65 523.15,495.65 518.35,497.65 512.75,497.65 507.1,497.65 502.25,495.65 498.25,491.65 494.3,487.65 492.3,482.85 492.3,477.2z M434.35,477.2 C434.35,471.6 436.35,466.75 440.35,462.75 444.3,458.75 449.1,456.8 454.75,456.8 460.4,456.8 465.2,458.75 469.2,462.75 473.2,466.75 475.15,471.6 475.15,477.2 475.15,482.85 473.2,487.65 469.2,491.65 465.2,495.65 460.4,497.65 454.75,497.65 449.1,497.65 444.3,495.65 440.35,491.65 436.35,487.65 434.35,482.85 434.35,477.2z"/>
    </g>
  </g>
</svg>