<?xml version="1.0" encoding="utf-8"?>
<!-- Generator: flash2svg, http://dissentgraphics.com/tools/flash2svg -->
<svg xmlns:xlink="http://www.w3.org/1999/xlink" id="Ms-Excel" image-rendering="optimizeSpeed" baseProfile="basic" version="1.1" style="background-color:#ffffff" x="0px" y="0px" width="1024px" height="1024px" viewBox="0 0 1024 1024" enable-background="new 0 0 1024 1024" xmlns="http://www.w3.org/2000/svg">
  <defs transform="matrix(1 0 0 1 0 0) "/>
  <g id="Shadow">
    <g id="shape">
      <path id="path" fill="#000000" fill-opacity="0.09803921568627451" d="M688.05,63.85 L688.05,60.05 246.05,60.05 C232.25,60.05 220.45,64.95 210.7,74.7 200.95,84.45 196.05,96.25 196.05,110.05 L196.05,954.05 C196.05,967.85 200.95,979.65 210.7,989.4 218.2,996.9 226.9,1001.55 236.85,1003.3 239.8,1003.8 242.9,1004.05 246.05,1004.05 L806.25,1004.05 C820.05,1004.05 831.85,999.15 841.6,989.4 851.35,979.65 856.25,967.85 856.25,954.05 L856.25,232.05 688.05,63.85z"/>
    </g>
  </g>
  <g id="background">
    <g id="shape2">
      <path id="path1" fill="#3B5C2D" fill-opacity="1" d="M668.05,43.85 L668.05,40.05 226.05,40.05 C212.25,40.05 200.45,44.95 190.7,54.7 180.95,64.45 176.05,76.25 176.05,90.05 L176.05,934.05 C176.05,947.85 180.95,959.65 190.7,969.4 198.2,976.9 206.9,981.55 216.85,983.3 219.8,983.8 222.9,984.05 226.05,984.05 L786.25,984.05 C800.05,984.05 811.85,979.15 821.6,969.4 831.35,959.65 836.25,947.85 836.25,934.05 L836.25,212.05 668.05,43.85z M680.5,195.05 C680.75,195.3 680.95,195.6 681.2,195.85 680.7,195.3 680.25,194.8 679.8,194.3 680.05,194.55 680.25,194.8 680.5,195.05z"/>
    </g>
  </g>
  <g id="corner-sadow">
    <g id="shape7">
      <path id="path5" fill="#000000" fill-opacity="0.2" d="M718.05,212.05 Q699.111,212.05 685.225,199.775 L836.25,350.8 836.25,212.05 718.05,212.05z"/>
    </g>
  </g>
  <g id="corner">
    <g id="shape9">
      <path id="path6" fill="#FFFFFF" fill-opacity="0.8980392156862745" d="M680.5,195.05 Q681.549,196.249 682.7,197.4 C683.55,198.25 684.4,199.05 685.25,199.8 694.5,207.95 705.4,212.05 718.05,212.05 L836.25,212.05 668.05,43.85 668.05,162.05 C668.05,174.75 672.2,185.75 680.5,195.05z"/>
    </g>
  </g>
  <g id="Calque.__201">
    <g id="shape11">
      <path id="path7" fill="#000000" fill-opacity="0.2" d="M583,385.25 C552.8,385.5 525.4,385.6 500.9,385.6 L500.9,457 C501.65,454.65 503.4,452.5 506.3,450.45 Q510.6,447.05 518.85,447.05 L583,447.05 583,385.25z M522.2,576.95 C516.65,576.95 512,576.25 508.1,574.65 504.55,573.35 502.4,570.25 501.4,565.15 501.3,564.6 501.25,564.1 501.15,563.35 L501.15,638 521,638.05 C544.55,637.6 565.35,637.55 583,637.95 L583,576.95 522.2,576.95z M490.9,385.6 C490.1,385.6 489.15,385.6 488.2,385.6 476.05,385.6 465.65,387.2 456.85,390.4 442.45,395.65 432.8,405.3 428,419.25 425.5,426.45 424.25,434.65 424.25,444 L424.25,582 C424.25,592.05 425.85,600.8 429.25,608.15 432.5,615.5 436.6,621.05 441.45,624.8 446.3,628.6 451.85,631.65 458.5,633.95 465.1,636.3 470.5,637.55 474.6,637.9 L491.15,638 491.15,563.35 C491,562.15 490.9,560.55 490.9,558.9 L490.9,543.8 583,545.05 583,482.75 490.9,481.45 490.9,385.6z"/>
    </g>
  </g>
</svg>