<?xml version="1.0" encoding="utf-8"?>
<!-- Generator: flash2svg, http://dissentgraphics.com/tools/flash2svg -->
<svg xmlns:xlink="http://www.w3.org/1999/xlink" id="DRIVE-Internal-alt" image-rendering="optimizeSpeed" baseProfile="basic" version="1.1" style="background-color:#ffffff" x="0px" y="0px" width="1024px" height="1024px" viewBox="0 0 1024 1024" enable-background="new 0 0 1024 1024" xmlns="http://www.w3.org/2000/svg">
  <defs transform="matrix(1 0 0 1 0 0) "/>
  <g id="Calque.__203">
    <g id="shape">
      <path id="path" fill="#000000" fill-opacity="0.09803921568627451" d="M956.45,92.9 C956.45,85.25 953.75,78.65 948.35,73.2 Q940.2,65.05 928.6,65.05 L844.95,65.05 789.85,65.05 399.7,65.05 218.3,65.05 177.8,65.05 159.5,65.05 C151.8,65.05 145.2,67.75 139.75,73.2 134.35,78.65 131.65,85.25 131.65,92.9 L131.65,842.4 131.65,879.15 131.65,946.5 131.65,983.25 C131.7,984 131.75,984.7 131.8,985.45 132.45,991.85 135.1,997.4 139.75,1002.1 144.35,1006.7 149.75,1009.35 155.9,1010.1 157.05,1010.25 158.25,1010.3 159.5,1010.3 L928.65,1010.3 C930.15,1010.3 931.6,1010.2 933.05,1010 938.9,1009.15 943.95,1006.5 948.3,1002.1 950.35,1000.05 952.05,997.85 953.3,995.5 954.95,992.45 956,989.1 956.35,985.45 956.45,984.5 956.5,983.5 956.5,982.45 L956.45,107.35 956.45,101.6 956.45,92.9z"/>
    </g>
  </g>
  <g id="Calque.__204">
    <g id="shape2">
      <path id="path1" fill="#4B6B91" fill-opacity="1" d="M916.8,42.05 C911.35,36.6 904.75,33.9 897.05,33.9 L813.4,33.9 758.3,33.9 368.15,33.9 186.75,33.9 146.25,33.9 127.95,33.9 C120.25,33.9 113.65,36.6 108.2,42.05 102.8,47.5 100.1,54.1 100.1,61.75 L100.1,932.85 924.95,932.85 924.95,928.85 924.9,76.2 924.9,70.45 924.9,61.75 C924.9,54.1 922.2,47.5 916.8,42.05z"/>
    </g>
  </g>
  <g id="Calque.__205">
    <g id="shape4">
      <path id="path2" fill="#000000" fill-opacity="0.2980392156862745" d="M916.8,715.45 C911.55,710.2 905.2,707.45 897.8,707.3 L127.25,707.3 C119.85,707.45 113.5,710.2 108.2,715.45 102.95,720.75 100.25,727.1 100.1,734.45 L100.1,883.35 C100.15,884.1 100.2,884.8 100.25,885.55 Q101.2,895.15 108.2,902.2 C112.8,906.8 118.2,909.45 124.35,910.2 125.55,910.35 126.75,910.4 127.95,910.4 L897.1,910.4 C898.65,910.4 900.15,910.3 901.5,910.1 907.45,909.2 912.45,906.55 916.75,902.2 918.85,900.15 920.5,897.9 921.75,895.6 923.45,892.45 924.45,889.15 924.8,885.55 924.9,884.6 924.95,883.6 924.95,882.55 L924.95,743.85 924.9,735.15 C924.9,727.5 922.2,720.9 916.8,715.45z"/>
    </g>
  </g>
  <g id="Calque.__206">
    <g id="shape6">
      <path id="path3" fill="#E3E3E3" fill-opacity="1" d="M916.8,784.2 C911.55,778.95 905.2,776.2 897.8,776.05 L127.25,776.05 C119.85,776.2 113.5,778.95 108.2,784.2 102.95,789.5 100.25,795.85 100.1,803.2 L100.1,952.075 L100.1,952.1 C100.15,952.85 100.2,953.55 100.25,954.3 Q101.2,963.9 108.2,970.95 C112.8,975.55 118.2,978.2 124.35,978.95 125.55,979.1 126.75,979.15 127.95,979.15 L873.75,979.15 799.4,904.8 862.05,838.75 924.95,901.65 924.95,812.6 924.9,803.9 C924.9,796.25 922.2,789.65 916.8,784.2z"/>
      <path id="path4" fill="#B5B5B5" fill-opacity="1" d="M897.1,979.15 C898.65,979.15 900.15,979.05 901.5,978.85 907.45,977.95 912.45,975.3 916.75,970.95 918.85,968.9 920.5,966.65 921.75,964.35 923.45,961.2 924.45,957.9 924.8,954.3 924.9,953.35 924.95,952.35 924.95,951.3 L924.95,901.65 862.05,838.75 799.4,904.8 873.75,979.15 897.1,979.15z"/>
    </g>
  </g>
  <g id="Calque.__207">
    <g id="shape10">
      <path id="path5" fill="#B5B5B5" fill-opacity="1" d="M880.65,875.7 C880.65,863 876.15,852.2 867.2,843.3 858.3,834.35 847.5,829.85 834.8,829.85 Q815.85,829.85 802.4,843.3 C793.5,852.2 788.95,863 788.95,875.7 788.95,888.35 793.5,899.15 802.4,908.1 811.35,917 822.15,921.55 834.8,921.55 847.5,921.55 858.3,917 867.2,908.1 876.15,899.15 880.65,888.35 880.65,875.7z"/>
    </g>
  </g>
  <g id="Calque.__208">
    <g id="shape12">
      <path id="path6" fill="#F9D346" fill-opacity="1" d="M834.8,844.8 C826.3,844.8 818.95,847.8 812.95,853.85 806.95,859.85 803.9,867.15 803.9,875.7 803.9,884.25 806.95,891.55 812.95,897.55 818.95,903.55 826.3,906.6 834.8,906.6 843.35,906.6 850.65,903.55 856.65,897.55 862.7,891.55 865.75,884.25 865.75,875.7 865.75,867.15 862.7,859.85 856.65,853.85 Q847.6,844.8 834.8,844.8z"/>
    </g>
  </g>
  <g id="Calque.__209">
    <g id="shape14">
      <path id="path7" fill="#000000" fill-opacity="0.2980392156862745" d="M844.85,68.05 C840.05,72.9 837.65,78.7 837.65,85.55 837.65,92.4 840.05,98.2 844.85,103 849.7,107.85 855.5,110.25 862.35,110.25 869.2,110.25 875,107.85 879.8,103 884.65,98.2 887.05,92.4 887.05,85.55 887.05,78.7 884.65,72.9 879.8,68.05 875,63.25 869.2,60.85 862.35,60.85 855.5,60.85 849.7,63.25 844.85,68.05z M879.8,635.35 C875,630.55 869.2,628.15 862.35,628.15 855.5,628.15 849.7,630.55 844.85,635.35 840.05,640.2 837.65,646 837.65,652.85 837.65,659.7 840.05,665.5 844.85,670.3 849.7,675.15 855.5,677.55 862.35,677.55 869.2,677.55 875,675.15 879.8,670.3 884.65,665.5 887.05,659.7 887.05,652.85 887.05,646 884.65,640.2 879.8,635.35z M181.05,85.55 Q181.05,75.3 173.8,68.05 C169,63.25 163.2,60.85 156.35,60.85 149.5,60.85 143.7,63.25 138.85,68.05 134.05,72.9 131.65,78.7 131.65,85.55 131.65,92.4 134.05,98.2 138.85,103 143.7,107.85 149.5,110.25 156.35,110.25 163.2,110.25 169,107.85 173.8,103 178.65,98.2 181.05,92.4 181.05,85.55z M156.35,628.15 C149.5,628.15 143.7,630.55 138.85,635.35 134.05,640.2 131.65,646 131.65,652.85 131.65,659.7 134.05,665.5 138.85,670.3 143.7,675.15 149.5,677.55 156.35,677.55 163.2,677.55 169,675.15 173.8,670.3 178.65,665.5 181.05,659.7 181.05,652.85 181.05,646 178.65,640.2 173.8,635.35 169,630.55 163.2,628.15 156.35,628.15z"/>
    </g>
  </g>
  <g id="Calque.__210">
    <g id="shape22">
      <path id="path14" fill="#F2C500" fill-opacity="1" d="M446.9,630.2 Q454,630.2 459,625.1 C462.35,621.75 464,617.75 464,613 464,608.3 462.35,604.25 459,600.9 455.65,597.55 451.65,595.9 446.9,595.9 442.15,595.9 438.15,597.55 434.8,600.9 431.45,604.25 429.75,608.3 429.75,613 429.75,617.75 431.45,621.75 434.8,625.1 438.15,628.5 442.15,630.2 446.9,630.2z M594,629.1 C597.35,625.8 599.05,621.75 599.05,617 599.05,612.25 597.35,608.25 594,604.9 590.65,601.55 586.65,599.9 581.9,599.9 577.2,599.9 573.15,601.55 569.8,604.9 566.45,608.25 564.8,612.25 564.8,617 564.8,621.75 566.45,625.8 569.8,629.1 573.15,632.45 577.2,634.1 581.9,634.1 586.65,634.1 590.65,632.45 594,629.1z M526.55,627.4 C529.9,624.05 531.55,620.05 531.55,615.3 531.55,610.55 529.9,606.55 526.55,603.2 523.15,599.85 519.1,598.2 514.45,598.2 509.7,598.2 505.65,599.85 502.35,603.2 498.95,606.55 497.25,610.55 497.25,615.3 497.25,620.05 498.95,624.05 502.35,627.4 505.65,630.75 509.7,632.45 514.45,632.45 519.1,632.45 523.15,630.75 526.55,627.4z"/>
    </g>
  </g>
  <g id="Calque.__211">
    <g id="shape28">
      <path id="path19" fill="#000000" fill-opacity="0.2" d="M659.4,287.55 L659.4,267.8 C659.4,256.15 653.55,250.3 641.85,250.3 L621.15,250.3 C621.5,249.05 621.65,247.7 621.65,246.25 L621.65,216.45 C621.65,212.55 620.3,209.25 617.55,206.55 614.8,203.8 611.5,202.45 607.65,202.45 603.8,202.45 600.5,203.8 597.75,206.55 595,209.25 593.6,212.55 593.6,216.45 L593.6,246.25 C593.6,247.7 593.8,249.05 594.15,250.3 L525.05,250.3 C525.45,249.05 525.65,247.7 525.65,246.25 L525.65,216.45 C525.65,212.55 524.25,209.25 521.45,206.55 518.75,203.8 515.45,202.45 511.6,202.45 507.7,202.45 504.4,203.8 501.7,206.55 498.95,209.25 497.6,212.55 497.6,216.45 L497.6,246.25 C497.6,247.7 497.8,249.05 498.15,250.3 L429.05,250.3 C429.4,249.05 429.55,247.7 429.55,246.25 L429.55,216.45 C429.55,212.55 428.2,209.25 425.45,206.55 422.75,203.8 419.45,202.45 415.6,202.45 411.7,202.45 408.4,203.8 405.7,206.55 402.9,209.25 401.5,212.55 401.5,216.45 L401.5,246.25 C401.5,247.7 401.7,249.05 402.1,250.3 L382.2,250.3 C370.55,250.3 364.7,256.15 364.7,267.8 L364.7,288.4 C364.55,288.4 364.4,288.4 364.25,288.4 L334.4,288.4 C330.55,288.4 327.25,289.75 324.5,292.45 321.7,295.25 320.3,298.55 320.3,302.35 320.3,306.2 321.7,309.55 324.5,312.35 327.25,315.1 330.55,316.45 334.4,316.45 L364.25,316.45 C364.4,316.45 364.55,316.45 364.7,316.45 L364.7,384.4 C364.55,384.4 364.4,384.4 364.25,384.4 L334.4,384.4 C330.55,384.4 327.25,385.8 324.5,388.55 321.7,391.3 320.3,394.6 320.3,398.45 320.3,402.3 321.7,405.6 324.5,408.35 327.25,411.1 330.55,412.45 334.4,412.45 L364.25,412.45 C364.4,412.45 364.55,412.45 364.7,412.45 L364.7,480.45 C364.55,480.45 364.4,480.45 364.25,480.45 L334.4,480.45 C330.55,480.45 327.25,481.8 324.5,484.55 321.7,487.3 320.3,490.6 320.3,494.45 320.3,498.3 321.7,501.65 324.5,504.4 327.25,507.15 330.55,508.5 334.4,508.5 L364.25,508.5 C364.4,508.5 364.55,508.5 364.7,508.5 L364.7,527.4 C364.7,539.1 370.55,544.95 382.2,544.95 L402.35,544.95 402.35,572.55 C402.35,576.4 403.75,579.7 406.5,582.4 409.25,585.2 412.55,586.6 416.4,586.6 420.25,586.6 423.55,585.2 426.3,582.4 429.05,579.7 430.45,576.4 430.45,572.55 L430.45,544.95 498.4,544.95 498.4,572.55 C498.4,576.4 499.75,579.7 502.5,582.4 505.25,585.2 508.55,586.6 512.4,586.6 516.25,586.6 519.6,585.2 522.35,582.4 525.1,579.7 526.45,576.4 526.45,572.55 L526.45,544.95 594.4,544.95 594.4,572.55 C594.4,576.4 595.8,579.7 598.6,582.4 601.3,585.2 604.6,586.6 608.45,586.6 612.35,586.6 615.65,585.2 618.35,582.4 621.15,579.7 622.55,576.4 622.55,572.55 L622.55,544.95 641.85,544.95 C653.55,544.95 659.4,539.1 659.4,527.4 L659.4,507.6 C659.8,507.65 660.2,507.7 660.65,507.7 L690.5,507.7 C694.35,507.7 697.65,506.3 700.4,503.5 703.1,500.8 704.45,497.5 704.45,493.6 704.45,489.75 703.1,486.45 700.4,483.75 697.65,481 694.35,479.65 690.5,479.65 L660.65,479.65 C660.2,479.65 659.8,479.65 659.4,479.65 L659.4,411.6 C659.8,411.6 660.2,411.6 660.65,411.6 L690.5,411.6 C694.35,411.6 697.65,410.25 700.4,407.5 703.1,404.75 704.45,401.45 704.45,397.65 704.45,393.75 703.1,390.4 700.4,387.65 697.65,384.9 694.35,383.55 690.5,383.55 L660.65,383.55 C660.2,383.55 659.8,383.6 659.4,383.65 L659.4,315.55 C659.8,315.6 660.2,315.6 660.65,315.6 L690.5,315.6 C694.35,315.6 697.65,314.2 700.4,311.45 703.1,308.7 704.45,305.4 704.45,301.55 704.45,297.7 703.1,294.4 700.4,291.65 697.65,288.9 694.35,287.55 690.5,287.55 L660.65,287.55 C660.2,287.55 659.8,287.55 659.4,287.55z"/>
    </g>
  </g>
  <g id="Calque.__212">
    <g id="shape30">
      <path id="path20" fill="#6590C4" fill-opacity="1" d="M660.8,270.15 Q655,270.15 650.9,274.25 C648.15,277 646.8,280.3 646.8,284.15 646.8,288 648.15,291.3 650.9,294.05 653.65,296.8 656.95,298.2 660.8,298.2 L690.65,298.2 C694.5,298.2 697.8,296.8 700.55,294.05 703.3,291.3 704.7,288 704.7,284.15 704.7,280.3 703.3,277 700.55,274.25 697.8,271.5 694.5,270.15 690.65,270.15 L660.8,270.15z M650.9,390.1 C653.65,392.85 656.95,394.2 660.8,394.2 L690.65,394.2 C694.5,394.2 697.8,392.85 700.55,390.1 703.3,387.35 704.7,384.05 704.7,380.2 704.7,376.35 703.3,373.05 700.55,370.3 697.8,367.55 694.5,366.15 690.65,366.15 L660.8,366.15 C656.95,366.15 653.65,367.55 650.9,370.3 648.15,373.05 646.8,376.35 646.8,380.2 646.8,384.05 648.15,387.35 650.9,390.1z M650.9,486.1 C653.65,488.85 656.95,490.25 660.8,490.25 L690.65,490.25 C694.5,490.25 697.8,488.85 700.55,486.1 703.3,483.35 704.7,480.05 704.7,476.2 704.7,472.35 703.3,469.05 700.55,466.3 697.8,463.55 694.5,462.2 690.65,462.2 L660.8,462.2 C656.95,462.2 653.65,463.55 650.9,466.3 648.15,469.05 646.8,472.35 646.8,476.2 646.8,480.05 648.15,483.35 650.9,486.1z M511.75,185.05 C507.9,185.05 504.6,186.4 501.85,189.1 499.1,191.85 497.75,195.15 497.75,199 L497.75,228.85 C497.75,232.7 499.1,236 501.85,238.75 504.6,241.5 507.9,242.9 511.75,242.9 515.6,242.9 518.95,241.5 521.7,238.75 524.45,236 525.8,232.7 525.8,228.85 L525.8,199 C525.8,195.15 524.45,191.85 521.7,189.1 518.95,186.4 515.6,185.05 511.75,185.05z M617.7,189.1 C614.95,186.4 611.65,185.05 607.8,185.05 603.95,185.05 600.65,186.4 597.9,189.1 595.15,191.85 593.75,195.15 593.75,199 L593.75,228.85 C593.75,232.7 595.15,236 597.9,238.75 600.65,241.5 603.95,242.9 607.8,242.9 611.65,242.9 614.95,241.5 617.7,238.75 620.45,236 621.8,232.7 621.8,228.85 L621.8,199 C621.8,195.15 620.45,191.85 617.7,189.1z M425.65,189.1 C422.9,186.4 419.6,185.05 415.75,185.05 411.9,185.05 408.6,186.4 405.85,189.1 403.1,191.85 401.7,195.15 401.7,199 L401.7,228.85 C401.7,232.7 403.1,236 405.85,238.75 408.6,241.5 411.9,242.9 415.75,242.9 419.6,242.9 422.9,241.5 425.65,238.75 428.4,236 429.75,232.7 429.75,228.85 L429.75,199 C429.75,195.15 428.4,191.85 425.65,189.1z M364.4,270.95 L334.55,270.95 C330.7,270.95 327.4,272.3 324.65,275.05 321.9,277.85 320.55,281.15 320.55,284.95 320.55,288.8 321.9,292.15 324.65,294.95 327.4,297.65 330.7,299 334.55,299 L364.4,299 C368.25,299 371.55,297.65 374.3,294.95 377,292.15 378.35,288.8 378.35,284.95 378.35,281.15 377,277.85 374.3,275.05 371.55,272.3 368.25,270.95 364.4,270.95z M364.4,366.95 L334.55,366.95 C330.7,366.95 327.4,368.35 324.65,371.15 321.9,373.85 320.55,377.15 320.55,381.05 320.55,384.9 321.9,388.2 324.65,390.9 327.4,393.7 330.7,395.1 334.55,395.1 L364.4,395.1 C368.25,395.1 371.55,393.7 374.3,390.9 377,388.2 378.35,384.9 378.35,381.05 378.35,377.15 377,373.85 374.3,371.15 371.55,368.35 368.25,366.95 364.4,366.95z M512.65,511.3 C508.8,511.3 505.45,512.65 502.65,515.35 499.9,518.15 498.55,521.45 498.55,525.25 L498.55,555.1 C498.55,558.95 499.9,562.25 502.65,565 505.45,567.8 508.8,569.2 512.65,569.2 516.45,569.2 519.75,567.8 522.55,565 525.25,562.25 526.6,558.95 526.6,555.1 L526.6,525.25 C526.6,521.45 525.25,518.15 522.55,515.35 519.75,512.65 516.45,511.3 512.65,511.3z M618.55,515.35 C615.8,512.65 612.5,511.3 608.65,511.3 604.8,511.3 601.5,512.65 598.75,515.35 595.95,518.15 594.55,521.45 594.55,525.25 L594.55,555.1 C594.55,558.95 595.95,562.25 598.75,565 601.5,567.8 604.8,569.2 608.65,569.2 612.5,569.2 615.8,567.8 618.55,565 621.3,562.25 622.7,558.95 622.7,555.1 L622.7,525.25 C622.7,521.45 621.3,518.15 618.55,515.35z M364.4,463.05 L334.55,463.05 C330.7,463.05 327.4,464.4 324.65,467.15 321.9,469.9 320.55,473.2 320.55,477 320.55,480.9 321.9,484.25 324.65,487 327.4,489.75 330.7,491.1 334.55,491.1 L364.4,491.1 C368.25,491.1 371.55,489.75 374.3,487 377,484.25 378.35,480.9 378.35,477 378.35,473.2 377,469.9 374.3,467.15 371.55,464.4 368.25,463.05 364.4,463.05z M402.5,525.25 L402.5,555.1 C402.5,558.95 403.9,562.25 406.65,565 409.4,567.8 412.7,569.2 416.55,569.2 420.4,569.2 423.7,567.8 426.45,565 429.2,562.25 430.6,558.95 430.6,555.1 L430.6,525.25 C430.6,521.45 429.2,518.15 426.45,515.35 423.7,512.65 420.4,511.3 416.55,511.3 412.7,511.3 409.4,512.65 406.65,515.35 403.9,518.15 402.5,521.45 402.5,525.25z"/>
    </g>
  </g>
  <g id="Calque.__213">
    <g id="shape54">
      <path id="path43" fill="#384C63" fill-opacity="1" d="M659.6,510 L659.6,250.35 C659.6,238.7 653.75,232.85 642,232.85 L382.4,232.85 C370.75,232.85 364.9,238.7 364.9,250.35 L364.9,510 C364.9,521.7 370.75,527.55 382.4,527.55 L642,527.55 C653.75,527.55 659.6,521.7 659.6,510z"/>
    </g>
  </g>
  <g id=".__E5.__9B.__BE.__E5.__B1.__82.__201">
    <g id="drawingObject">
      <path id="path44" fill="#F3C600" fill-opacity="1" d="M546.255,308.227 Q548.91,300.514 548.093,293.1 C539.249,293.461 528.536,299.006 522.174,306.436 516.488,313.018 511.508,323.558 512.844,333.658 522.724,334.412 532.809,328.632 538.951,321.202 Q543.804,315.327 546.255,308.227z M580.106,353.105 C569.77,337.963 553.653,335.889 547.92,335.653 534.222,334.255 521.185,343.712 514.242,343.712 507.299,343.712 496.57,335.858 485.213,336.062 470.274,336.282 456.514,344.748 448.817,358.116 433.313,385.04 444.859,424.907 459.97,446.742 467.353,457.423 476.165,469.456 487.742,469.016 498.879,468.576 503.089,461.821 516.551,461.821 530.028,461.821 533.814,469.016 545.595,468.796 557.58,468.576 565.199,457.894 572.519,447.181 581.017,434.788 584.504,422.787 584.708,422.158 584.441,422.048 561.335,413.189 561.083,386.579 560.895,364.321 579.273,353.608 580.106,353.105z"/>
    </g>
  </g>
</svg>