<?xml version="1.0" encoding="utf-8"?>
<!-- Generator: flash2svg, http://dissentgraphics.com/tools/flash2svg -->
<svg xmlns:xlink="http://www.w3.org/1999/xlink" id="DRIVE-Removable" image-rendering="optimizeSpeed" baseProfile="basic" version="1.1" style="background-color:#ffffff" x="0px" y="0px" width="1024px" height="1024px" viewBox="0 0 1024 1024" enable-background="new 0 0 1024 1024" xmlns="http://www.w3.org/2000/svg">
  <defs transform="matrix(1 0 0 1 0 0) "/>
  <g id="Calque.__203">
    <g id="shape">
      <path id="path" fill="#000000" fill-opacity="0.09803921568627451" d="M956.45,92.9 C956.45,85.25 953.75,78.65 948.35,73.2 Q940.2,65.05 928.6,65.05 L844.95,65.05 789.85,65.05 399.7,65.05 218.3,65.05 177.8,65.05 159.5,65.05 C151.8,65.05 145.2,67.75 139.75,73.2 134.35,78.65 131.65,85.25 131.65,92.9 L131.65,842.4 131.65,879.15 131.65,946.5 131.65,983.25 C131.7,984 131.75,984.7 131.8,985.45 132.45,991.85 135.1,997.4 139.75,1002.1 144.35,1006.7 149.75,1009.35 155.9,1010.1 157.05,1010.25 158.25,1010.3 159.5,1010.3 L928.65,1010.3 C930.15,1010.3 931.6,1010.2 933.05,1010 938.9,1009.15 943.95,1006.5 948.3,1002.1 950.35,1000.05 952.05,997.85 953.3,995.5 954.95,992.45 956,989.1 956.35,985.45 956.45,984.5 956.5,983.5 956.5,982.45 L956.45,107.35 956.45,101.6 956.45,92.9z"/>
    </g>
  </g>
  <g id="Calque.__204">
    <g id="shape2">
      <path id="path1" fill="#CCCCCC" fill-opacity="1" d="M916.8,42.05 C911.35,36.6 904.75,33.9 897.05,33.9 L813.4,33.9 758.3,33.9 368.15,33.9 186.75,33.9 146.25,33.9 127.95,33.9 C120.25,33.9 113.65,36.6 108.2,42.05 102.8,47.5 100.1,54.1 100.1,61.75 L100.1,932.85 924.95,932.85 924.95,928.85 924.9,76.2 924.9,70.45 924.9,61.75 C924.9,54.1 922.2,47.5 916.8,42.05z"/>
    </g>
  </g>
  <g id="Calque.__205">
    <g id="shape4">
      <path id="path2" fill="#000000" fill-opacity="0.2980392156862745" d="M916.8,715.45 C911.55,710.2 905.2,707.45 897.8,707.3 L127.25,707.3 C119.85,707.45 113.5,710.2 108.2,715.45 102.95,720.75 100.25,727.1 100.1,734.45 L100.1,883.35 C100.15,884.1 100.2,884.8 100.25,885.55 Q101.2,895.15 108.2,902.2 C112.8,906.8 118.2,909.45 124.35,910.2 125.55,910.35 126.75,910.4 127.95,910.4 L897.1,910.4 C898.65,910.4 900.15,910.3 901.5,910.1 907.45,909.2 912.45,906.55 916.75,902.2 918.85,900.15 920.5,897.9 921.75,895.6 923.45,892.45 924.45,889.15 924.8,885.55 924.9,884.6 924.95,883.6 924.95,882.55 L924.95,743.85 924.9,735.15 C924.9,727.5 922.2,720.9 916.8,715.45z"/>
    </g>
  </g>
  <g id="Calque.__206">
    <g id="shape6">
      <path id="path3" fill="#FFFFFF" fill-opacity="1" d="M916.8,784.2 C911.55,778.95 905.2,776.2 897.8,776.05 L127.25,776.05 C119.85,776.2 113.5,778.95 108.2,784.2 102.95,789.5 100.25,795.85 100.1,803.2 L100.1,952.075 L100.1,952.1 C100.15,952.85 100.2,953.55 100.25,954.3 Q101.2,963.9 108.2,970.95 C112.8,975.55 118.2,978.2 124.35,978.95 125.55,979.1 126.75,979.15 127.95,979.15 L873.75,979.15 799.4,904.8 862.05,838.75 924.95,901.65 924.95,812.6 924.9,803.9 C924.9,796.25 922.2,789.65 916.8,784.2z"/>
      <path id="path4" fill="#CCCCCC" fill-opacity="1" d="M916.75,970.95 C918.85,968.9 920.5,966.65 921.75,964.35 923.45,961.2 924.45,957.9 924.8,954.3 924.9,953.35 924.95,952.35 924.95,951.3 L924.95,901.65 862.05,838.75 799.4,904.8 873.75,979.15 897.1,979.15 C898.65,979.15 900.15,979.05 901.5,978.85 907.45,977.95 912.45,975.3 916.75,970.95z"/>
    </g>
  </g>
  <g id="Calque.__207">
    <g id="shape10">
      <path id="path5" fill="#CCCCCC" fill-opacity="1" d="M880.65,875.7 C880.65,863 876.15,852.2 867.2,843.3 858.3,834.35 847.5,829.85 834.8,829.85 Q815.85,829.85 802.4,843.3 C793.5,852.2 788.95,863 788.95,875.7 788.95,888.35 793.5,899.15 802.4,908.1 811.35,917 822.15,921.55 834.8,921.55 847.5,921.55 858.3,917 867.2,908.1 876.15,899.15 880.65,888.35 880.65,875.7z"/>
    </g>
  </g>
  <g id="Calque.__208">
    <g id="shape12">
      <path id="path6" fill="#F9D346" fill-opacity="1" d="M834.8,844.8 C826.3,844.8 818.95,847.8 812.95,853.85 806.95,859.85 803.9,867.15 803.9,875.7 803.9,884.25 806.95,891.55 812.95,897.55 818.95,903.55 826.3,906.6 834.8,906.6 843.35,906.6 850.65,903.55 856.65,897.55 862.7,891.55 865.75,884.25 865.75,875.7 865.75,867.15 862.7,859.85 856.65,853.85 Q847.6,844.8 834.8,844.8z"/>
    </g>
  </g>
  <g id="Calque.__209">
    <g id="shape14">
      <path id="path7" fill="#000000" fill-opacity="0.2980392156862745" d="M844.85,68.05 C840.05,72.9 837.65,78.7 837.65,85.55 837.65,92.4 840.05,98.2 844.85,103 849.7,107.85 855.5,110.25 862.35,110.25 869.2,110.25 875,107.85 879.8,103 884.65,98.2 887.05,92.4 887.05,85.55 887.05,78.7 884.65,72.9 879.8,68.05 875,63.25 869.2,60.85 862.35,60.85 855.5,60.85 849.7,63.25 844.85,68.05z M181.05,85.55 Q181.05,75.3 173.8,68.05 C169,63.25 163.2,60.85 156.35,60.85 149.5,60.85 143.7,63.25 138.85,68.05 134.05,72.9 131.65,78.7 131.65,85.55 131.65,92.4 134.05,98.2 138.85,103 143.7,107.85 149.5,110.25 156.35,110.25 163.2,110.25 169,107.85 173.8,103 178.65,98.2 181.05,92.4 181.05,85.55z M879.8,635.35 C875,630.55 869.2,628.15 862.35,628.15 855.5,628.15 849.7,630.55 844.85,635.35 840.05,640.2 837.65,646 837.65,652.85 837.65,659.7 840.05,665.5 844.85,670.3 849.7,675.15 855.5,677.55 862.35,677.55 869.2,677.55 875,675.15 879.8,670.3 884.65,665.5 887.05,659.7 887.05,652.85 887.05,646 884.65,640.2 879.8,635.35z M156.35,628.15 C149.5,628.15 143.7,630.55 138.85,635.35 134.05,640.2 131.65,646 131.65,652.85 131.65,659.7 134.05,665.5 138.85,670.3 143.7,675.15 149.5,677.55 156.35,677.55 163.2,677.55 169,675.15 173.8,670.3 178.65,665.5 181.05,659.7 181.05,652.85 181.05,646 178.65,640.2 173.8,635.35 169,630.55 163.2,628.15 156.35,628.15z"/>
    </g>
  </g>
</svg>