<?xml version="1.0" encoding="utf-8"?>
<!-- Generator: flash2svg, http://dissentgraphics.com/tools/flash2svg -->
<svg xmlns:xlink="http://www.w3.org/1999/xlink" id="FLOPPY" image-rendering="optimizeSpeed" baseProfile="basic" version="1.1" style="background-color:#ffffff" x="0px" y="0px" width="1024px" height="1024px" viewBox="0 0 1024 1024" enable-background="new 0 0 1024 1024" xmlns="http://www.w3.org/2000/svg">
  <defs transform="matrix(1 0 0 1 0 0) "/>
  <g id="Calque.__203">
    <g id="shape">
      <path id="path" fill="#000000" fill-opacity="0.09803921568627451" d="M947.95,208.45 L796.35,56.9 150.9,56.9 C143.25,56.9 136.65,59.6 131.2,65 125.75,70.45 123.05,77.05 123.05,84.75 L123.05,974.25 C123.05,981.95 125.75,988.5 131.2,993.9 136.65,999.35 143.25,1002.1 150.9,1002.1 L920.05,1002.1 C927.75,1002.1 934.3,999.35 939.75,993.9 945.2,988.5 947.95,981.95 947.95,974.25 L947.95,208.45z"/>
    </g>
  </g>
  <g id="Calque.__204">
    <g id="shape2">
      <path id="path1" fill="#CCCCCC" fill-opacity="1" d="M741.6,318.25 C752.4,318.25 757.95,313.05 758.3,302.6 L758.3,33.9 368.15,33.9 368.15,318.25 741.6,318.25z"/>
      <path id="path2" fill="#666666" fill-opacity="1" d="M368.15,318.25 L368.15,33.9 186.75,33.9 186.75,302.6 C187.1,313.05 192.65,318.25 203.45,318.25 L368.15,318.25z"/>
      <path id="path3" fill="#333333" fill-opacity="1" d="M924.95,145.45 L813.4,33.9 758.3,33.9 758.3,302.6 C757.95,313.05 752.4,318.25 741.6,318.25 L368.15,318.25 203.45,318.25 C192.65,318.25 187.1,313.05 186.75,302.6 L186.75,33.9 127.95,33.9 C120.25,33.9 113.65,36.6 108.2,42.05 102.8,47.5 100.1,54.1 100.1,61.75 L100.1,951.3 C100.1,952.35 100.15,953.35 100.25,954.3 100.9,960.7 103.55,966.25 108.2,970.95 113.65,976.4 120.25,979.15 127.95,979.15 L182.6,979.15 182.6,942.3 182.6,545.65 C182.6,534.5 188.15,528.9 199.3,528.9 L825.7,528.9 C836.85,528.9 842.45,534.5 842.45,545.65 L842.45,942.3 842.45,979.15 897.1,979.15 C904.8,979.15 911.35,976.4 916.75,970.95 921.5,966.25 924.15,960.7 924.8,954.3 924.9,953.35 924.95,952.35 924.95,951.3 L924.95,145.45z"/>
      <path id="path4" fill="#DBF2F7" fill-opacity="1" d="M842.45,545.65 C842.45,534.5 836.85,528.9 825.7,528.9 L199.3,528.9 C188.15,528.9 182.6,534.5 182.6,545.65 L182.6,942.3 842.45,942.3 842.45,545.65z"/>
      <path id="path5" fill="#A8BABE" fill-opacity="1" d="M182.6,942.3 L182.6,979.15 842.45,979.15 842.45,942.3 182.6,942.3z"/>
    </g>
  </g>
  <g id="Calque.__205">
    <g id="shape9" transform="matrix(1 0 0 1 238.05 606.15)"/>
  </g>
  <g id="Calque.__206">
    <g id="shape10">
      <path id="path6" fill="#666666" fill-opacity="1" d="M694,110.9 Q694,94.2 677.3,94.2 L639.4,94.2 C628.25,94.2 622.65,99.75 622.65,110.9 L622.65,246.9 C622.65,258.05 628.25,263.65 639.4,263.65 L677.3,263.65 C688.45,263.65 694,258.05 694,246.9 L694,110.9z"/>
    </g>
  </g>
  <g id="Calque.__207">
    <g id="shape12">
      <path id="path7" fill="#FFFFFF" fill-opacity="1" d="M162.05,186.1 L162.05,104.1 C162.05,97.45 158.7,94.1 152.05,94.1 L133.05,94.1 C126.4,94.1 123.05,97.45 123.05,104.1 L123.05,186.1 C123.05,192.75 126.4,196.1 133.05,196.1 L152.05,196.1 C158.7,196.1 162.05,192.75 162.05,186.1z"/>
      <path id="path8" fill="#F9D346" fill-opacity="1" d="M142.95,904.25 C136.35,904.25 130.7,906.6 126.05,911.25 121.4,915.9 119.05,921.55 119.05,928.15 119.05,934.75 121.4,940.4 126.05,945.05 130.7,949.7 136.35,952.05 142.95,952.05 149.55,952.05 155.2,949.7 159.85,945.05 164.5,940.4 166.85,934.75 166.85,928.15 166.85,921.55 164.5,915.9 159.85,911.25 155.2,906.6 149.55,904.25 142.95,904.25z M867.45,911.25 C862.8,915.9 860.45,921.55 860.45,928.15 860.45,934.75 862.8,940.4 867.45,945.05 872.1,949.7 877.75,952.05 884.35,952.05 890.95,952.05 896.6,949.7 901.25,945.05 905.9,940.4 908.25,934.75 908.25,928.15 908.25,921.55 905.9,915.9 901.25,911.25 896.6,906.6 890.95,904.25 884.35,904.25 877.75,904.25 872.1,906.6 867.45,911.25z"/>
    </g>
  </g>
</svg>