<?xml version="1.0" encoding="utf-8"?>
<!-- Generator: flash2svg, http://dissentgraphics.com/tools/flash2svg -->
<svg xmlns:xlink="http://www.w3.org/1999/xlink" id="FONTBOOK" image-rendering="optimizeSpeed" baseProfile="basic" version="1.1" style="background-color:#ffffff" x="0px" y="0px" width="1024px" height="1024px" viewBox="0 0 1024 1024" enable-background="new 0 0 1024 1024" xmlns="http://www.w3.org/2000/svg">
  <defs transform="matrix(1 0 0 1 0 0) "/>
  <g id="shadow">
    <g id="shape">
      <path id="path" fill="#000000" fill-opacity="0.09803921568627451" d="M969.65,351.3 Q961.05,330.45 950.25,310.45 C946.2,302.9 941.9,295.4 937.35,288.05 917.8,256.35 893.95,226.4 865.8,198.25 773.65,106.1 662.35,60 532,60 401.65,60 290.4,106.1 198.25,198.25 106.1,290.4 60,401.65 60,532 60,662.35 106.1,773.65 198.25,865.8 290.4,957.95 401.65,1004 532,1004 662.35,1004 773.65,957.95 865.8,865.8 916.55,815 953.35,758.4 976.15,696.05 994.7,645.2 1004,590.55 1004,532 1004,487.1 998.55,444.45 987.6,404.05 986.35,399.5 985.05,394.95 983.7,390.45 979.6,377.15 974.9,364.1 969.65,351.3z"/>
    </g>
  </g>
  <g id="Calque.__209">
    <g id="shape2">
      <path id="path1" fill="#63786F" fill-opacity="1" d="M982.95,511.4 Q982.95,316 844.8,177.85 C752.7,85.75 641.55,39.7 511.3,39.7 381.05,39.7 269.85,85.75 177.75,177.85 85.65,269.95 39.6,381.15 39.6,511.4 39.6,641.65 85.65,752.8 177.75,844.9 269.85,937 381.05,983.05 511.3,983.05 641.55,983.05 752.7,937 844.8,844.9 936.9,752.8 982.95,641.65 982.95,511.4z"/>
    </g>
  </g>
  <g id="Calque.__210">
    <g id="shape4">
      <path id="path2" fill="#4F6059" fill-opacity="1" d="M758.9,759 Q861.45,656.45 861.45,511.4 C861.45,414.65 827.25,332.1 758.9,263.75 690.55,195.4 608,161.25 511.3,161.25 414.55,161.25 332,195.4 263.65,263.75 195.3,332.1 161.15,414.65 161.15,511.4 161.15,608.1 195.3,690.65 263.65,759 332,827.35 414.55,861.55 511.3,861.55 608,861.55 690.55,827.35 758.9,759z"/>
    </g>
  </g>
  <g id="Calque.__211">
    <g id="shape6">
      <path id="path3" fill="#000000" fill-opacity="0.2" d="M781.25,253.3 Q781.25,221.65 749.6,221.65 L303.15,221.65 C282.05,221.65 271.5,232.2 271.5,253.3 L271.5,798.85 C271.5,819.95 282.05,830.5 303.15,830.5 L749.6,830.5 C770.25,830.5 780.8,820.4 781.25,800.15 L721.35,800.15 721.35,799.95 752.9,799.95 752.9,758.4 753.95,758.4 C761.4,758.2 767.8,755.45 773.05,750.2 778.3,744.95 781.05,738.55 781.25,731.1 L781.25,253.3z"/>
    </g>
  </g>
  <g id="Calque.__212">
    <g id="shape8">
      <path id="path4" fill="#27302C" fill-opacity="1" d="M761.25,233.7 Q761.25,202.05 729.6,202.05 L351.3,202.05 351.3,762.75 662.2,762.75 511,613.05 534,421 636.35,368.7 761.25,493.2 761.25,233.7z"/>
      <path id="path5" fill="#121715" fill-opacity="1" d="M701.35,780.55 L701.35,762.75 662.2,762.75 351.3,762.75 351.3,202.05 283.15,202.05 C262.05,202.05 251.5,212.6 251.5,233.7 L251.5,779.25 C251.5,800.35 262.05,810.9 283.15,810.9 L729.6,810.9 C750.25,810.9 760.8,800.8 761.25,780.55 L701.35,780.55z"/>
      <path id="path6" fill="#1F2723" fill-opacity="1" d="M728.45,752.95 L723.6,752.95 723.6,738.8 733.95,738.8 C741.4,738.6 747.8,735.85 753.05,730.6 758.3,725.35 761.05,718.95 761.25,711.5 L761.25,493.2 636.35,368.7 534,421 511,613.05 662.2,762.75 701.35,762.75 701.35,754.05 728.45,754.05 728.45,752.95z"/>
    </g>
  </g>
  <g id="T">
    <g id="shape13">
      <path id="path7" fill="#8CADA0" fill-opacity="1" d="M636.75,368.7 L451.85,368.7 451.85,422.5 511.4,422.5 511.4,612.65 577.35,612.65 577.35,422.5 636.75,422.5 636.75,368.7z"/>
    </g>
  </g>
  <g id="Calque.__213">
    <g id="shape15">
      <path id="path8" fill="#B7E2D1" fill-opacity="1" d="M732.9,780.35 L732.9,738.7 302.15,738.7 C296.4,738.7 291.5,740.7 287.4,744.75 283.35,748.85 281.35,753.75 281.35,759.5 L281.35,759.6 C281.35,765.35 283.35,770.2 287.4,774.2 291.5,778.3 296.4,780.35 302.15,780.35 L732.9,780.35z"/>
    </g>
  </g>
</svg>