<?xml version="1.0" encoding="utf-8"?>
<!-- Generator: flash2svg, http://dissentgraphics.com/tools/flash2svg -->
<svg xmlns:xlink="http://www.w3.org/1999/xlink" id="APP-alt" image-rendering="optimizeSpeed" baseProfile="basic" version="1.1" style="background-color:#ffffff" x="0px" y="0px" width="1024px" height="1024px" viewBox="0 0 1024 1024" enable-background="new 0 0 1024 1024" xmlns="http://www.w3.org/2000/svg">
  <defs transform="matrix(1 0 0 1 0 0) "/>
  <g id="shadow">
    <g id="shape">
      <path id="path" fill="#000000" fill-opacity="0.09803921568627451" d="M969.65,351.3 Q961.05,330.45 950.25,310.45 C946.2,302.9 941.9,295.4 937.35,288.05 917.8,256.35 893.95,226.4 865.8,198.25 773.65,106.1 662.35,60 532,60 401.65,60 290.4,106.1 198.25,198.25 106.1,290.4 60,401.65 60,532 60,662.35 106.1,773.65 198.25,865.8 290.4,957.95 401.65,1004 532,1004 662.35,1004 773.65,957.95 865.8,865.8 916.55,815 953.35,758.4 976.15,696.05 994.7,645.2 1004,590.55 1004,532 1004,487.1 998.55,444.45 987.6,404.05 986.35,399.5 985.05,394.95 983.7,390.45 979.6,377.15 974.9,364.1 969.65,351.3z"/>
    </g>
  </g>
  <g id="Calque.__2011">
    <g id="shape2">
      <path id="path1" fill="#CB5E31" fill-opacity="1" d="M983.3,511.4 C983.3,503.45 983.1,495.55 982.8,487.85 Q974.8,307.7 845.25,178 C753.2,86 642.05,39.95 511.85,39.95 381.7,39.95 270.5,86 178.5,178 86.45,270 40.4,381.2 40.4,511.4 40.4,641.55 86.45,752.75 178.5,844.75 264.65,931.05 367.85,976.9 487.65,982.35 495.65,982.65 503.65,982.85 511.85,982.85 642.05,982.85 753.2,936.75 845.25,844.75 937.25,752.75 983.3,641.55 983.3,511.4z"/>
    </g>
  </g>
  <g id="Calque.__2012">
    <g id="shape4">
      <path id="path2" fill="#A84929" fill-opacity="1" d="M861.85,511.4 C861.85,608.05 827.65,690.55 759.35,758.85 691.05,827.15 608.5,861.35 511.85,861.35 417.75,861.35 337,828.95 269.8,764.2 L269.7,764.4 487.65,982.35 C495.65,982.65 503.65,982.85 511.85,982.85 642.05,982.85 753.2,936.75 845.25,844.75 937.25,752.75 983.3,641.55 983.3,511.4 983.3,503.45 983.1,495.55 982.8,487.85 L770.4,275.45 C831.3,341.5 861.85,420.15 861.85,511.4z"/>
    </g>
  </g>
  <g id="Symbole.__205">
    <g id="Symbole.__207_1" overflow="visible">
      <g id="Calque.__2015">
        <g id="drawingObject4">
          <path id="path14" fill="#A84929" fill-opacity="1" d="M161.931,511.433 L511.911,511.433 511.911,161.453 Q366.918,161.453 264.424,263.946 C196.128,332.242 161.931,414.771 161.931,511.433z"/>
        </g>
        <g id="drawingObject5">
          <path id="path15" fill="#893B24" fill-opacity="1" d="M161.931,511.433 Q161.931,656.426 264.424,758.919 C332.72,827.216 415.249,861.413 511.911,861.413 L511.911,511.433 161.931,511.433z"/>
        </g>
        <g id="drawingObject6">
          <path id="path16" fill="#CB5E31" fill-opacity="1" d="M759.397,263.946 C691.101,195.65 608.573,161.453 511.911,161.453 L511.911,511.433 861.891,511.433 Q861.891,366.44 759.397,263.946z"/>
        </g>
        <g id="drawingObject7">
          <path id="path17" fill="#97A6A6" fill-opacity="1" d="M511.911,861.413 C608.573,861.413 691.101,827.216 759.397,758.919 827.693,690.623 861.891,608.095 861.891,511.433 L511.911,511.433 511.911,861.413z"/>
        </g>
      </g>
    </g>
  </g>
  <g id="Symbole.__206">
    <g id="shape6">
      <path id="path3" fill="#596061" fill-opacity="1" d="M714.075,587.025 Q712.264,585.204 709.7,585.2 L599.6,585.2 C597.9,585.2 596.45,585.8 595.25,587.05 594,588.25 593.4,589.7 593.4,591.4 593.4,593.1 594,594.55 595.25,595.8 596.45,597 597.9,597.6 599.6,597.6 L709.7,597.6 C711.4,597.6 712.85,597 714.1,595.8 715.3,594.55 715.9,593.1 715.9,591.4 715.9,589.7 715.3,588.25 714.1,587.05 M714.1,666.1 C712.85,664.85 711.4,664.25 709.7,664.25 L599.6,664.25 C597.9,664.25 596.45,664.85 595.25,666.1 594,667.3 593.4,668.75 593.4,670.45 593.4,672.15 594,673.6 595.25,674.85 596.45,676.05 597.9,676.65 599.6,676.65 L709.7,676.65 C711.4,676.65 712.85,676.05 714.1,674.85 715.3,673.6 715.9,672.15 715.9,670.45 715.9,668.75 715.3,667.3 714.1,666.1z"/>
      <path id="path6" fill="#FFFFFF" fill-opacity="1" d="M352.8,301.7 C351.55,302.9 350.95,304.35 350.95,306.05 L350.95,354.9 302.1,354.9 C300.4,354.9 298.95,355.5 297.75,356.75 296.5,357.95 295.9,359.4 295.9,361.1 295.9,362.8 296.5,364.25 297.75,365.5 298.95,366.7 300.4,367.3 302.1,367.3 L350.95,367.3 350.95,416.15 C350.95,417.85 351.55,419.3 352.8,420.55 354,421.75 355.45,422.35 357.15,422.35 358.85,422.35 360.3,421.75 361.55,420.55 362.75,419.3 363.35,417.85 363.35,416.15 L363.35,367.3 412.2,367.3 C413.9,367.3 415.35,366.7 416.6,365.5 417.8,364.25 418.4,362.8 418.4,361.1 418.4,359.4 417.8,357.95 416.6,356.75 415.35,355.5 413.9,354.9 412.2,354.9 L363.35,354.9 363.35,306.05 C363.35,304.35 362.75,302.9 361.55,301.7 360.3,300.45 358.85,299.85 357.15,299.85 355.45,299.85 354,300.45 352.8,301.7z M313.85,586.75 C312.6,587.95 312,589.4 312,591.1 312,592.8 312.6,594.25 313.85,595.5 L313.825,595.5 L348.375,630 313.825,664.475 L313.85,664.5 C312.6,665.7 312,667.15 312,668.85 312,670.55 312.6,672 313.85,673.25 315.05,674.45 316.5,675.05 318.2,675.05 319.9,675.05 321.35,674.45 322.6,673.25 L322.575,673.225 L357.15,638.75 391.725,673.25 L391.75,673.25 C392.95,674.45 394.4,675.05 396.1,675.05 397.8,675.05 399.25,674.45 400.5,673.25 401.7,672 402.3,670.55 402.3,668.85 402.3,667.15 401.7,665.7 400.5,664.45 L400.475,664.45 L365.925,629.975 400.475,595.475 L400.5,595.5 C401.7,594.25 402.3,592.8 402.3,591.1 402.3,589.4 401.7,587.95 400.5,586.75 399.25,585.5 397.8,584.9 396.1,584.9 394.4,584.9 392.95,585.5 391.75,586.75 L391.725,586.725 L357.15,621.225 322.575,586.7 L322.6,586.7 C321.35,585.5 319.9,584.9 318.2,584.9 316.5,584.9 315.05,585.5 313.85,586.75z"/>
    </g>
  </g>
  <g id="Calque.__2013">
    <g id="shape13">
      <path id="path9" fill="#FFFFFF" fill-opacity="1" d="M714.075,353.725 Q712.264,351.904 709.7,351.9 L599.6,351.9 C597.9,351.9 596.45,352.5 595.25,353.75 594,354.95 593.4,356.4 593.4,358.1 593.4,359.8 594,361.25 595.25,362.5 596.45,363.7 597.9,364.3 599.6,364.3 L709.7,364.3 C711.4,364.3 712.85,363.7 714.1,362.5 715.3,361.25 715.9,359.8 715.9,358.1 715.9,356.4 715.3,354.95 714.1,353.75"/>
    </g>
  </g>
</svg>