<?xml version="1.0" encoding="utf-8"?>
<!-- Generator: flash2svg, http://dissentgraphics.com/tools/flash2svg -->
<svg xmlns:xlink="http://www.w3.org/1999/xlink" id="APP" image-rendering="optimizeSpeed" baseProfile="basic" version="1.1" style="background-color:#ffffff" x="0px" y="0px" width="1024px" height="1024px" viewBox="0 0 1024 1024" enable-background="new 0 0 1024 1024" xmlns="http://www.w3.org/2000/svg">
  <defs transform="matrix(1 0 0 1 0 0) "/>
  <g id="Calque.__2021">
    <g id="shape">
      <path id="path" fill="#000000" fill-opacity="0.09803921568627451" d="M969.65,351.3 Q961.05,330.45 950.25,310.45 C946.2,302.9 941.9,295.4 937.35,288.05 917.8,256.35 893.95,226.4 865.8,198.25 773.65,106.1 662.35,60 532,60 401.65,60 290.4,106.1 198.25,198.25 106.1,290.4 60,401.65 60,532 60,662.35 106.1,773.65 198.25,865.8 290.4,957.95 401.65,1004 532,1004 662.35,1004 773.65,957.95 865.8,865.8 916.55,815 953.35,758.4 976.15,696.05 994.7,645.2 1004,590.55 1004,532 1004,487.1 998.55,444.45 987.6,404.05 986.35,399.5 985.05,394.95 983.7,390.45 979.6,377.15 974.9,364.1 969.65,351.3z"/>
    </g>
  </g>
  <g id="Calque.__2022">
    <g id="shape2">
      <path id="path1" fill="#CB5E31" fill-opacity="1" d="M982.45,513.3 C982.45,382.95 936.35,271.75 844.3,179.7 Q706.15,41.55 510.7,41.55 C380.45,41.55 269.2,87.6 177.15,179.7 85.05,271.75 38.95,383.05 38.95,513.3 38.95,643.5 85.05,754.8 177.15,846.85 269.2,938.95 380.45,985 510.7,985 640.95,985 752.2,938.95 844.3,846.85 936.35,754.8 982.45,643.5 982.45,513.3z"/>
    </g>
  </g>
  <g id="Calque.__2023">
    <g id="drawingObject">
      <path id="path2" fill="#A84929" fill-opacity="1" d="M772.244,279.533 Q669.687,176.976 524.604,176.976 C427.882,176.976 345.303,211.195 276.965,279.533 208.627,347.871 174.408,430.45 174.408,527.172 174.408,623.894 208.627,706.474 276.965,774.812 345.303,843.15 427.882,877.369 524.604,877.369 621.326,877.369 703.905,843.15 772.244,774.812 840.582,706.375 874.8,623.894 874.8,527.172 874.8,430.45 840.582,347.871 772.244,279.533z"/>
    </g>
  </g>
  <g id="Calque.__2024">
    <g id="drawingObject1">
      <path id="path3" fill="#A84929" fill-opacity="1" d="M510.65,513.25 L510.65,163.05 Q365.55,163.05 263,265.6 C194.7,333.9 160.45,416.5 160.45,513.25 L510.65,513.25z"/>
    </g>
  </g>
  <g id="Calque.__2025">
    <g id="drawingObject2">
      <path id="path4" fill="#893B24" fill-opacity="1" d="M160.562,513.327 Q160.562,658.409 263.119,760.966 C331.457,829.304 414.037,863.523 510.759,863.523 L510.759,513.327 160.562,513.327z"/>
    </g>
  </g>
  <g id="Calque.__2026">
    <g id="drawingObject3">
      <path id="path5" fill="#CB5E31" fill-opacity="1" d="M758.398,265.687 C690.06,197.349 607.48,163.13 510.759,163.13 L510.759,513.327 860.955,513.327 Q860.955,368.244 758.398,265.687z"/>
    </g>
  </g>
  <g id="Calque.__2027">
    <g id="drawingObject4">
      <path id="path6" fill="#97A6A6" fill-opacity="1" d="M510.759,863.523 C607.48,863.523 690.06,829.304 758.398,760.966 826.736,692.529 860.955,610.048 860.955,513.327 L510.759,513.327 510.759,863.523z"/>
    </g>
  </g>
  <g id="Calque.__2028">
    <g id="shape9">
      <path id="path7" fill="#FFFFFF" fill-opacity="1" d="M353,302.1 C351.75,303.3 351.15,304.75 351.15,306.45 L351.15,416.7 C351.15,418.4 351.75,419.85 353,421.1 354.2,422.3 355.65,422.9 357.35,422.9 359.05,422.9 360.5,422.3 361.75,421.1 362.95,419.85 363.55,418.4 363.55,416.7 L363.55,306.45 Q363.546,303.886 361.725,302.075 L361.75,302.1 C360.5,300.85 359.05,300.25 357.35,300.25 355.65,300.25 354.2,300.85 353,302.1z"/>
    </g>
  </g>
  <g id="Calque.__2029">
    <g id="shape11">
      <path id="path8" fill="#FFFFFF" fill-opacity="1" d="M416.85,357.25 C415.6,356 414.15,355.4 412.45,355.4 L302.2,355.4 C300.5,355.4 299.05,356 297.85,357.25 296.6,358.45 296,359.9 296,361.6 296,363.3 296.6,364.75 297.85,366 299.05,367.2 300.5,367.8 302.2,367.8 L412.45,367.8 Q415.014,367.796 416.825,365.975 L416.85,366 C418.05,364.75 418.65,363.3 418.65,361.6 418.65,359.9 418.05,358.45 416.85,357.25z"/>
    </g>
  </g>
  <g id="Calque.__2030">
    <g id="shape13">
      <path id="path9" fill="#FFFFFF" fill-opacity="1" d="M314,587.4 C312.75,588.6 312.15,590.05 312.15,591.75 312.15,593.45 312.75,594.9 314,596.15 L313.975,596.125 L391.925,674.025 L391.95,674.05 C393.15,675.25 394.6,675.85 396.3,675.85 398,675.85 399.45,675.25 400.7,674.05 401.9,672.8 402.5,671.35 402.5,669.65 402.5,667.95 401.9,666.5 400.7,665.3 L400.675,665.275 L322.725,587.375 Q320.899,585.554 318.35,585.55 C316.65,585.55 315.2,586.15 314,587.4z"/>
    </g>
  </g>
  <g id="Calque.__2031">
    <g id="shape15">
      <path id="path10" fill="#FFFFFF" fill-opacity="1" d="M318.35,675.85 C320.05,675.85 321.5,675.25 322.75,674.05 L322.725,674.025 L400.675,596.125 L400.7,596.15 C401.9,594.9 402.5,593.45 402.5,591.75 402.5,590.05 401.9,588.6 400.7,587.4 399.45,586.15 398,585.55 396.3,585.55 394.6,585.55 393.15,586.15 391.95,587.4 L391.925,587.375 L313.975,665.275 Q312.154,667.086 312.15,669.65 C312.15,671.35 312.75,672.8 314,674.05 315.2,675.25 316.65,675.85 318.35,675.85z"/>
    </g>
  </g>
  <g id="Calque.__2032">
    <g id="shape17">
      <path id="path11" fill="#FFFFFF" fill-opacity="1" d="M714.7,354.25 C713.45,353 712,352.4 710.3,352.4 L600.05,352.4 C598.35,352.4 596.9,353 595.7,354.25 594.45,355.45 593.85,356.9 593.85,358.6 593.85,360.3 594.45,361.75 595.7,363 596.9,364.2 598.35,364.8 600.05,364.8 L710.3,364.8 Q712.864,364.796 714.675,362.975 L714.7,363 C715.9,361.75 716.5,360.3 716.5,358.6 716.5,356.9 715.9,355.45 714.7,354.25z"/>
    </g>
  </g>
  <g id="Calque.__2033">
    <g id="shape19">
      <path id="path12" fill="#596061" fill-opacity="1" d="M714.7,587.8 C713.45,586.55 712,585.95 710.3,585.95 L600.05,585.95 C598.35,585.95 596.9,586.55 595.7,587.8 594.45,589 593.85,590.45 593.85,592.15 593.85,593.85 594.45,595.3 595.7,596.55 596.9,597.75 598.35,598.35 600.05,598.35 L710.3,598.35 C712,598.35 713.45,597.75 714.7,596.55 715.9,595.3 716.5,593.85 716.5,592.15 Q716.496,589.586 714.675,587.775"/>
    </g>
  </g>
  <g id="Calque.__2034">
    <g id="shape21">
      <path id="path13" fill="#596061" fill-opacity="1" d="M714.7,666.95 C713.45,665.7 712,665.1 710.3,665.1 L600.05,665.1 C598.35,665.1 596.9,665.7 595.7,666.95 594.45,668.15 593.85,669.6 593.85,671.3 593.85,673 594.45,674.45 595.7,675.7 596.9,676.9 598.35,677.5 600.05,677.5 L710.3,677.5 Q712.864,677.496 714.675,675.675 L714.7,675.7 C715.9,674.45 716.5,673 716.5,671.3 716.5,669.6 715.9,668.15 714.7,666.95z"/>
    </g>
  </g>
</svg>