<?xml version="1.0" encoding="utf-8"?>
<!-- Generator: flash2svg, http://dissentgraphics.com/tools/flash2svg -->
<svg xmlns:xlink="http://www.w3.org/1999/xlink" id="AE-alt" image-rendering="optimizeSpeed" baseProfile="basic" version="1.1" style="background-color:#ffffff" x="0px" y="0px" width="1024px" height="1024px" viewBox="0 0 1024 1024" enable-background="new 0 0 1024 1024" xmlns="http://www.w3.org/2000/svg">
  <defs transform="matrix(1 0 0 1 0 0) "/>
  <g id="shadow">
    <g id="shape">
      <path id="path" fill="#000000" fill-opacity="0.09803921568627451" d="M965.65,347.3 Q957.05,326.45 946.25,306.45 C942.2,298.9 937.9,291.4 933.35,284.05 913.8,252.35 889.95,222.4 861.8,194.25 769.65,102.1 658.35,56 528,56 397.65,56 286.4,102.1 194.25,194.25 102.1,286.4 56,397.65 56,528 56,658.35 102.1,769.65 194.25,861.8 286.4,953.95 397.65,1000 528,1000 658.35,1000 769.65,953.95 861.8,861.8 912.55,811 949.35,754.4 972.15,692.05 990.7,641.2 1000,586.55 1000,528 1000,483.1 994.55,440.45 983.6,400.05 982.35,395.5 981.05,390.95 979.7,386.45 975.6,373.15 970.9,360.1 965.65,347.3z"/>
    </g>
  </g>
  <g id="BG">
    <g id="shape2">
      <path id="path1" fill="#9D7ABB" fill-opacity="1" d="M747.6,521.25 L787.15,526.2 951.95,691.1 C974.3,636.15 985.45,576.55 985.45,512.3 985.45,381.75 939.3,270.35 847,178.05 754.7,85.75 643.25,39.6 512.7,39.6 382.15,39.6 270.75,85.75 178.45,178.05 86.15,270.35 40,381.75 40,512.3 40,642.85 86.15,754.3 178.45,846.6 260.6,928.8 357.95,974.4 470.4,983.35 L214.4,727.35 477.05,250.7 747.6,521.25z"/>
      <path id="path2" fill="#725489" fill-opacity="1" d="M787.15,526.2 L747.6,521.25 477.05,250.7 214.4,727.35 470.4,983.35 C484.25,984.5 498.35,985.05 512.7,985.05 643.25,985.05 754.7,938.9 847,846.6 893.9,799.7 928.9,747.85 951.95,691.1 L787.15,526.2z"/>
    </g>
  </g>
  <g id="Logo">
    <g id="shape6">
      <path id="path3" fill="#FFFFFF" fill-opacity="1" d="M817.75,591.25 Q817.75,568.4 810.7,550.85 C808.55,545.6 805.55,541.1 801.7,537.3 L789.5,528.35 C785.35,526.2 779.95,524.55 773.3,523.4 L753.65,520.9 726.4,520.35 C714.6,520.35 704.2,521.15 695.15,522.8 684.45,524.55 675.4,527.8 668.05,532.55 660.8,537.25 655.15,543.4 651.1,551 647.15,558.65 644.2,568.85 642.15,581.7 640.2,594.65 639.25,610.25 639.25,628.45 639.25,646.5 640.45,662.1 642.9,675.35 645.45,688.45 649.2,699 654.15,707 659.1,715.15 666.05,721.25 674.95,725.3 683.8,729.25 694.7,731.2 707.55,731.2 L754.05,730.45 778.45,728.55 C790.3,727.5 802.05,724.8 813.75,720.35 L813.75,683.15 C795.05,686.1 775.55,687.55 755.2,687.55 L717.85,686.6 C713.4,685.95 709.05,684.35 704.85,681.8 700.65,679.4 697.8,675.45 696.3,670 694.75,664.55 694,657.2 694,648.05 L759.95,648.05 C785.4,648.05 802.4,640.6 811.05,625.75 815.5,618 817.75,606.5 817.75,591.25z M702.75,568.55 C706.45,565.65 710.35,563.9 714.4,563.25 L736.5,562.1 C747.2,562.1 754.25,564 757.7,567.8 761.25,571.6 763,580 763,592.95 763,603.4 757.3,608.6 745.85,608.6 L694,608.6 694,599.05 695.5,582.1 C696.55,576.15 698.95,571.6 702.75,568.55z M479.15,252.1 L375.55,252.1 215.1,728.45 312.65,728.45 346.95,622.95 503.3,622.95 537,728.45 634.25,728.45 479.15,252.1z M371.15,542.25 L428.35,371.9 481.7,542.25 371.15,542.25z"/>
    </g>
  </g>
</svg>