<?xml version="1.0" encoding="utf-8"?>
<!-- Generator: flash2svg, http://dissentgraphics.com/tools/flash2svg -->
<svg xmlns:xlink="http://www.w3.org/1999/xlink" id="AE" image-rendering="optimizeSpeed" baseProfile="basic" version="1.1" style="background-color:#ffffff" x="0px" y="0px" width="1024px" height="1024px" viewBox="0 0 1024 1024" enable-background="new 0 0 1024 1024" xmlns="http://www.w3.org/2000/svg">
  <defs transform="matrix(1 0 0 1 0 0) "/>
  <g id="shadow">
    <g id="shape">
      <path id="path" fill="#000000" fill-opacity="0.09803921568627451" d="M965.65,347.3 Q957.05,326.45 946.25,306.45 C942.2,298.9 937.9,291.4 933.35,284.05 913.8,252.35 889.95,222.4 861.8,194.25 769.65,102.1 658.35,56 528,56 397.65,56 286.4,102.1 194.25,194.25 102.1,286.4 56,397.65 56,528 56,658.35 102.1,769.65 194.25,861.8 286.4,953.95 397.65,1000 528,1000 658.35,1000 769.65,953.95 861.8,861.8 912.55,811 949.35,754.4 972.15,692.05 990.7,641.2 1000,586.55 1000,528 1000,483.1 994.55,440.45 983.6,400.05 982.35,395.5 981.05,390.95 979.7,386.45 975.6,373.15 970.9,360.1 965.65,347.3z"/>
    </g>
  </g>
  <g id="BG">
    <g id="shape2">
      <path id="path1" fill="#9D7ABB" fill-opacity="1" d="M985.3,512.6 C985.3,382.15 939.2,270.8 846.95,178.55 754.7,86.3 643.35,40.15 512.85,40.15 382.4,40.15 271.05,86.3 178.8,178.55 86.55,270.8 40.4,382.15 40.4,512.6 40.4,643.1 86.55,754.45 178.8,846.7 271.05,938.95 382.4,985.05 512.85,985.05 643.35,985.05 754.7,938.95 846.95,846.7 939.2,754.45 985.3,643.1 985.3,512.6z M760.9,760.65 C692.4,829.1 609.7,863.35 512.85,863.35 416,863.35 333.3,829.1 264.85,760.65 196.4,692.15 162.15,609.45 162.15,512.6 162.15,415.75 196.4,333.05 264.85,264.6 333.3,196.15 416,161.9 512.85,161.9 609.7,161.9 692.4,196.15 760.9,264.6 829.35,333.05 863.6,415.75 863.6,512.6 Q863.6,657.9 760.9,760.65z"/>
      <path id="path2" fill="#725588" fill-opacity="1" d="M760.9,760.65 Q863.6,657.9 863.6,512.6 C863.6,415.75 829.35,333.05 760.9,264.6 692.4,196.15 609.7,161.9 512.85,161.9 416,161.9 333.3,196.15 264.85,264.6 196.4,333.05 162.15,415.75 162.15,512.6 162.15,609.45 196.4,692.15 264.85,760.65 333.3,829.1 416,863.35 512.85,863.35 609.7,863.35 692.4,829.1 760.9,760.65z"/>
    </g>
  </g>
  <g id="Logo.__20Shadow">
    <g id="shape7">
      <path id="path5" fill="#000000" fill-opacity="0.2" d="M820.6,570.9 Q817.35,563.05 811.6,557.35 L799.45,548.4 C795.25,546.25 789.85,544.6 783.25,543.45 L763.6,540.95 736.35,540.4 C724.55,540.4 714.15,541.2 705.1,542.85 694.45,544.65 685.4,547.9 678.05,552.6 670.8,557.3 665.15,563.45 661.1,571.1 657.15,578.7 654.15,588.9 652.1,601.75 650.2,614.7 649.25,630.3 649.25,648.45 649.25,666.5 650.45,682.1 652.9,695.3 655.45,708.4 659.2,718.95 664.15,726.95 669.1,735.1 676,741.2 684.9,745.25 693.8,749.2 704.65,751.15 717.5,751.15 L764,750.4 788.35,748.5 C800.2,747.45 811.95,744.75 823.65,740.3 L823.65,703.15 C804.95,706.05 785.45,707.5 765.1,707.5 L727.75,706.55 C723.3,705.9 719,704.35 714.8,701.8 710.65,699.4 707.8,695.45 706.25,690 704.7,684.55 703.95,677.2 703.95,668.05 L769.9,668.05 C795.3,668.05 812.3,660.65 820.95,645.8 825.4,638.05 827.65,626.55 827.65,611.3 827.65,596.05 825.3,582.55 820.6,570.9z M724.35,583.25 L746.45,582.15 C757.1,582.15 764.15,584.05 767.6,587.85 771.15,591.65 772.95,600.05 772.95,613 772.95,623.45 767.25,628.65 755.8,628.65 L703.95,628.65 703.95,619.1 705.5,602.15 C706.5,596.2 708.9,591.65 712.7,588.6 716.4,585.65 720.3,583.9 724.35,583.25z M489.25,272.4 L385.7,272.4 225.35,748.5 322.85,748.5 357.15,643.05 513.4,643.05 547.05,748.5 644.25,748.5 489.25,272.4z M381.25,562.4 L438.45,392.15 491.8,562.4 381.25,562.4z"/>
    </g>
  </g>
  <g id="Logo">
    <g id="Symbole.__201_1" overflow="visible">
      <g id="Calque.__202">
        <g id="shape27">
          <path id="path23" fill="#FFFFFF" fill-opacity="1" d="M469.4,252.5 L365.85,252.5 205.5,728.6 303,728.6 337.3,623.15 493.55,623.15 527.2,728.6 624.4,728.6 469.4,252.5z M361.4,542.5 L418.6,372.25 471.95,542.5 361.4,542.5z M779.6,528.55 C775.4,526.4 770,524.75 763.4,523.6 L743.75,521.1 716.5,520.55 C704.7,520.55 694.3,521.35 685.25,523 674.6,524.8 665.55,528.05 658.2,532.75 650.95,537.45 645.3,543.6 641.25,551.25 637.3,558.85 634.3,569.05 632.25,581.9 630.35,594.85 629.4,610.45 629.4,628.6 629.4,646.65 630.6,662.25 633.05,675.45 635.6,688.55 639.35,699.1 644.3,707.1 649.25,715.25 656.15,721.35 665.05,725.4 673.95,729.35 684.8,731.3 697.65,731.3 L744.15,730.55 768.5,728.65 C780.35,727.6 792.1,724.9 803.8,720.45 L803.8,683.3 C785.1,686.2 765.6,687.65 745.25,687.65 L707.9,686.7 C703.45,686.05 699.15,684.5 694.95,681.95 690.8,679.55 687.95,675.6 686.4,670.15 684.85,664.7 684.1,657.35 684.1,648.2 L750.05,648.2 C775.45,648.2 792.45,640.8 801.1,625.95 805.55,618.2 807.8,606.7 807.8,591.45 807.8,576.2 805.45,562.7 800.75,551.05 798.6,545.8 795.6,541.3 791.75,537.5 L779.6,528.55z M692.85,568.75 C696.55,565.8 700.45,564.05 704.5,563.4 L726.6,562.3 C737.25,562.3 744.3,564.2 747.75,568 751.3,571.8 753.1,580.2 753.1,593.15 753.1,603.6 747.4,608.8 735.95,608.8 L684.1,608.8 684.1,599.25 685.65,582.3 C686.65,576.35 689.05,571.8 692.85,568.75z"/>
        </g>
      </g>
    </g>
  </g>
</svg>