<?xml version="1.0" encoding="utf-8"?>
<!-- Generator: flash2svg, http://dissentgraphics.com/tools/flash2svg -->
<svg xmlns:xlink="http://www.w3.org/1999/xlink" id="QUICKTIME-Alt" image-rendering="optimizeSpeed" baseProfile="basic" version="1.1" style="background-color:#ffffff" x="0px" y="0px" width="1024px" height="1024px" viewBox="0 0 1024 1024" enable-background="new 0 0 1024 1024" xmlns="http://www.w3.org/2000/svg">
  <defs transform="matrix(1 0 0 1 0 0) "/>
  <g id="shadow">
    <g id="shape">
      <path id="path" fill="#000000" fill-opacity="0.09803921568627451" d="M969.65,351.3 Q961.05,330.45 950.25,310.45 C946.2,302.9 941.9,295.4 937.35,288.05 917.8,256.35 893.95,226.4 865.8,198.25 773.65,106.1 662.35,60 532,60 401.65,60 290.4,106.1 198.25,198.25 106.1,290.4 60,401.65 60,532 60,662.35 106.1,773.65 198.25,865.8 290.4,957.95 401.65,1004 532,1004 662.35,1004 773.65,957.95 865.8,865.8 916.55,815 953.35,758.4 976.15,696.05 994.7,645.2 1004,590.55 1004,532 1004,487.1 998.55,444.45 987.6,404.05 986.35,399.5 985.05,394.95 983.7,390.45 979.6,377.15 974.9,364.1 969.65,351.3z"/>
    </g>
  </g>
  <g id="Calque.__203">
    <g id="shape2">
      <path id="path1" fill="#798BAF" fill-opacity="1" d="M981.85,574.65 C984.75,552.8 986.2,530.2 986.2,507 986.2,376 939.85,264.2 847.25,171.45 754.65,78.85 642.7,32.5 511.7,32.5 380.7,32.5 268.75,78.85 176.15,171.45 83.55,264.1 37.15,376 37.15,507 37.15,638.05 83.55,749.95 176.15,842.55 268.75,935.2 380.7,981.55 511.7,981.55 534.5,981.55 556.75,980.15 578.45,977.35 Q732.65,957.15 847.25,842.55 C923.45,766.35 968.3,677.05 981.85,574.65z"/>
    </g>
  </g>
  <g id="Calque.__204">
    <g id="shape4">
      <path id="path2" fill="#61708C" fill-opacity="1" d="M981.85,574.65 L727.55,320.4 468.2,276.8 300.6,380.95 324.55,723.5 578.45,977.35 C681.1,963.95 770.75,919.05 847.25,842.55 923.45,766.35 968.3,677.05 981.85,574.65z"/>
    </g>
  </g>
  <g id="Calque.__205">
    <g id="group">
      <g id="group1">
        <g id="drawingObject">
          <path id="path3" fill="#FFFFFF" fill-opacity="1" d="M510.552,224.242 C435.146,224.242 364.315,253.589 310.993,306.911 257.671,360.233 228.324,431.063 228.324,506.47 228.324,581.877 257.671,652.707 310.993,706.029 364.315,759.351 435.146,788.698 510.552,788.698 585.959,788.698 656.79,759.351 710.112,706.029 763.434,652.707 792.78,581.877 792.78,506.47 792.78,431.063 763.434,360.233 710.112,306.911 656.79,253.589 585.959,224.242 510.552,224.242z M340.141,434.545 Q354.267,401.418 379.834,375.851 405.5,350.185 438.627,336.158 473.048,321.634 510.552,321.634 C612.521,321.634 695.388,404.502 695.388,506.47 695.388,608.438 612.521,691.406 510.552,691.406 408.584,691.406 325.617,608.438 325.617,506.47 Q325.617,468.966 340.141,434.545z"/>
        </g>
      </g>
      <g id="drawingObject1">
        <path id="path7" fill="#FFFFFF" fill-opacity="1" d="M490.557,479.113 C471.456,498.014 471.158,528.853 490.059,547.954 L728.615,789.892 795.168,789.892 795.168,718.862 559.398,479.61 C540.496,460.51 509.657,460.311 490.557,479.113z"/>
      </g>
    </g>
  </g>
</svg>