<?xml version="1.0" encoding="utf-8"?>
<!-- Generator: flash2svg, http://dissentgraphics.com/tools/flash2svg -->
<svg xmlns:xlink="http://www.w3.org/1999/xlink" id="QUICKTIME" image-rendering="optimizeSpeed" baseProfile="basic" version="1.1" style="background-color:#ffffff" x="0px" y="0px" width="1024px" height="1024px" viewBox="0 0 1024 1024" enable-background="new 0 0 1024 1024" xmlns="http://www.w3.org/2000/svg">
  <defs transform="matrix(1 0 0 1 0 0) "/>
  <g id="shadow">
    <g id="shape">
      <path id="path" fill="#000000" fill-opacity="0.09803921568627451" d="M969.65,351.3 Q961.05,330.45 950.25,310.45 C946.2,302.9 941.9,295.4 937.35,288.05 917.8,256.35 893.95,226.4 865.8,198.25 773.65,106.1 662.35,60 532,60 401.65,60 290.4,106.1 198.25,198.25 106.1,290.4 60,401.65 60,532 60,662.35 106.1,773.65 198.25,865.8 290.4,957.95 401.65,1004 532,1004 662.35,1004 773.65,957.95 865.8,865.8 916.55,815 953.35,758.4 976.15,696.05 994.7,645.2 1004,590.55 1004,532 1004,487.1 998.55,444.45 987.6,404.05 986.35,399.5 985.05,394.95 983.7,390.45 979.6,377.15 974.9,364.1 969.65,351.3z"/>
    </g>
  </g>
  <g id="Calque.__206">
    <g id="group">
      <g id="group1">
        <g id="drawingObject">
          <path id="path1" fill="#798BAF" fill-opacity="1" d="M846.064,176.568 C754.03,84.534 642.818,38.468 512.627,38.468 382.435,38.468 271.223,84.534 179.189,176.568 87.155,268.602 41.089,379.814 41.089,510.006 41.089,640.197 87.155,751.409 179.189,843.443 271.223,935.477 382.435,981.543 512.627,981.543 642.818,981.543 754.03,935.477 846.064,843.443 938.098,751.409 984.164,640.197 984.164,510.006 Q984.164,314.669 846.064,176.568z"/>
        </g>
      </g>
    </g>
  </g>
  <g id="Calque.__207">
    <g id="group2">
      <g id="group3">
        <g id="drawingObject1">
          <path id="path2" fill="#61708C" fill-opacity="1" d="M760.159,262.473 C691.85,194.164 609.307,159.961 512.627,159.961 415.946,159.961 333.403,194.164 265.094,262.473 196.785,330.782 162.582,413.326 162.582,510.006 162.582,606.686 196.785,689.229 265.094,757.538 333.403,825.847 415.946,860.051 512.627,860.051 609.307,860.051 691.85,825.847 760.159,757.538 Q862.671,655.026 862.671,510.006 C862.671,413.326 828.468,330.782 760.159,262.473z"/>
        </g>
      </g>
    </g>
  </g>
  <g id=".__3CGroup.__3E_1">
    <g id="FlashAICB.__2FCalque.__201.__2F.__3CGroup.__3E_1_1" overflow="visible">
      <g id="Calque.__210">
        <g id="group8">
          <g id="group9">
            <g id="drawingObject6">
              <path id="path13" fill="#1E1E1C" fill-opacity="0.3" d="M726.891,330.172 C673.889,277.171 603.386,248 528.531,248 453.578,248 383.074,277.171 330.172,330.172 277.171,383.173 248,453.578 248,528.531 248,603.485 277.171,673.889 330.172,726.891 383.074,779.892 453.578,809.062 528.531,809.062 603.386,809.062 673.889,779.892 726.891,726.891 779.793,673.889 808.964,603.485 808.964,528.531 808.964,453.578 779.793,383.173 726.891,330.172z M712.256,528.531 C712.256,629.886 629.787,712.355 528.531,712.355 427.176,712.355 344.708,629.886 344.708,528.531 Q344.708,491.252 359.145,457.039 373.186,424.111 398.599,398.599 424.111,373.186 457.039,359.145 491.252,344.708 528.531,344.708 C629.787,344.708 712.256,427.176 712.256,528.531z"/>
            </g>
          </g>
          <g id="drawingObject7">
            <path id="path14" fill="#1E1E1C" fill-opacity="0.3" d="M508.656,501.338 C489.571,520.126 489.374,550.681 508.161,569.765 L745.184,810.249 811.436,810.249 811.436,739.647 576.984,501.833 C558.295,482.847 527.641,482.551 508.656,501.338z"/>
          </g>
        </g>
      </g>
    </g>
  </g>
  <g id="Calque.__208">
    <g id="group4">
      <g id="group5">
        <g id="drawingObject2">
          <path id="path3" fill="#FFFFFF" fill-opacity="1" d="M708.359,309.133 C655.373,256.146 584.889,226.984 510.056,226.984 435.124,226.984 364.641,256.146 311.753,309.133 258.767,362.119 229.605,432.503 229.605,507.435 229.605,582.367 258.767,652.752 311.753,705.738 364.641,758.724 435.124,787.887 510.056,787.887 584.889,787.887 655.373,758.724 708.359,705.738 761.246,652.752 790.409,582.367 790.409,507.435 790.409,432.503 761.246,362.119 708.359,309.133z M693.729,507.435 C693.729,608.762 611.284,691.207 510.056,691.207 408.73,691.207 326.285,608.762 326.285,507.435 Q326.285,470.167 340.718,435.963 354.755,403.045 380.161,377.54 405.666,352.135 438.584,338.097 472.788,323.664 510.056,323.664 C611.284,323.664 693.729,406.109 693.729,507.435z"/>
        </g>
      </g>
      <g id="drawingObject3">
        <path id="path7" fill="#FFFFFF" fill-opacity="1" d="M490.186,480.25 C471.107,499.033 470.91,529.579 489.692,548.658 L726.647,789.073 792.88,789.073 792.88,718.49 558.495,480.745 C539.812,461.765 509.167,461.468 490.186,480.25z"/>
      </g>
    </g>
  </g>
</svg>