<?xml version="1.0" encoding="utf-8"?>
<!-- Generator: flash2svg, http://dissentgraphics.com/tools/flash2svg -->
<svg xmlns:xlink="http://www.w3.org/1999/xlink" id="bg-5120x2880-2" image-rendering="optimizeSpeed" baseProfile="basic" version="1.1" style="background-color:#ffffff" x="0px" y="0px" width="5120px" height="2880px" viewBox="0 0 5120 2880" enable-background="new 0 0 5120 2880" xmlns="http://www.w3.org/2000/svg">
  <defs transform="matrix(1 0 0 1 0 0) "/>
  <g id="bg">
    <g id="Symbole.__2019_1" overflow="visible">
      <g id="Calque.__2038">
        <g id="shape77">
          <path id="path77" fill="#24323D" fill-opacity="1" d="M5120,2880 L5120,0 0,0 0,2880 5120,2880z"/>
        </g>
      </g>
    </g>
  </g>
  <g id="Calque.__2011">
    <g id="shape">
      <path id="path" fill="#FFFFFF" fill-opacity="0.047058823529411764" d="M3110.05,0 L5120.05,2010 5120.05,0 3110.05,0z"/>
    </g>
  </g>
  <g id="mountains">
    <g id="Symbole.__2021_1" overflow="visible">
      <g id="mountain-d1">
        <g id="Symbole.__2033_4" overflow="visible">
          <g id="Calque.__2039">
            <g id="shape78">
              <path id="path78" fill="#FFFFFF" fill-opacity="1" d="M4074.397,2037.639 L3975.517,1923.414 C3967.702,1914.493 3958.21,1908.391 3946.969,1905.072 3941.402,1903.431 3935.836,1902.61 3930.055,1902.574 L3930.055,2062.618 C3983.688,2062.047 4031.791,2053.733 4074.397,2037.639z"/>
              <path id="path79" fill="#4A575A" fill-opacity="1" d="M4335.82,2553.811 L4335.82,2339.67 4074.397,2037.639 C4031.791,2053.733 3983.688,2062.047 3930.055,2062.618 L3930.055,2553.811 4335.82,2553.811z"/>
              <path id="path80" fill="#CCCCCC" fill-opacity="1" d="M3918.565,1903.752 C3917.03,1904.037 3915.139,1904.501 3913.248,1905.072 Q3896.369,1910.032 3884.665,1923.414 L3782.929,2040.993 C3824.822,2055.445 3871.854,2062.654 3924.024,2062.654 3926.058,2062.654 3928.057,2062.654 3930.055,2062.618 L3930.055,1902.574 C3926.379,1902.574 3922.49,1902.967 3918.565,1903.752z"/>
              <path id="path81" fill="#434D4F" fill-opacity="1" d="M3930.055,2062.618 C3928.057,2062.654 3926.058,2062.654 3924.024,2062.654 3871.854,2062.654 3824.822,2055.445 3782.929,2040.993 L3425.052,2454.395 C3414.561,2466.563 3409.708,2480.623 3410.493,2496.609 3411.242,2512.596 3417.451,2526.12 3429.049,2537.218 3440.646,2548.28 3454.456,2553.811 3470.478,2553.811 L3930.055,2553.811 3930.055,2062.618z"/>
            </g>
          </g>
        </g>
      </g>
      <g id="mountain-c1">
        <g id="Symbole.__2035_3" overflow="visible">
          <g id="Calque.__2040">
            <g id="shape79">
              <path id="path82" fill="#FFFFFF" fill-opacity="1" d="M3219.467,1719.911 C3211.724,1709.991 3201.839,1703.139 3189.885,1699.357 3182.962,1697.18 3176.039,1696.252 3169.152,1696.573 L3169.152,1964.312 C3246.266,1963.741 3316.171,1951.073 3378.868,1926.344 L3219.467,1719.911z"/>
              <path id="path83" fill="#47585B" fill-opacity="1" d="M3836.304,2544.68 C3837.625,2529.193 3833.485,2515.24 3823.957,2502.822 L3378.868,1926.344 C3316.171,1951.073 3246.266,1963.741 3169.152,1964.312 L3169.152,2599.634 3776.39,2599.634 C3791.984,2599.634 3805.544,2594.352 3817.035,2583.754 3828.525,2573.156 3834.948,2560.131 3836.304,2544.68z"/>
              <path id="path84" fill="#CCCCCC" fill-opacity="1" d="M3169.152,1696.573 Q3161.552,1696.93 3153.951,1699.357 C3141.961,1703.139 3132.112,1709.991 3124.369,1719.911 L2961.256,1931.161 C3022.133,1953.25 3089.612,1964.312 3163.693,1964.312 3165.513,1964.312 3167.332,1964.312 3169.152,1964.312 L3169.152,1696.573z"/>
              <path id="path85" fill="#414D4F" fill-opacity="1" d="M3169.152,1964.312 C3167.332,1964.312 3165.513,1964.312 3163.693,1964.312 3089.612,1964.312 3022.133,1953.25 2961.256,1931.161 L2519.878,2502.822 C2510.315,2515.24 2506.211,2529.193 2507.531,2544.68 2508.852,2560.131 2515.275,2573.156 2526.765,2583.754 2538.256,2594.352 2551.816,2599.634 2567.41,2599.634 L3169.152,2599.634 3169.152,1964.312z"/>
            </g>
          </g>
        </g>
      </g>
      <g id="mountain-a1">
        <g id="Symbole.__2033_5" overflow="visible">
          <g id="Calque.__2041">
            <g id="shape80">
              <path id="path86" fill="#FFFFFF" fill-opacity="1" d="M776.35,1699.95 L637.8,1539.9 C626.85,1527.4 613.55,1518.85 597.8,1514.2 590,1511.9 582.2,1510.75 574.1,1510.7 L574.1,1734.95 C649.25,1734.15 716.65,1722.5 776.35,1699.95z"/>
              <path id="path87" fill="#4A575A" fill-opacity="1" d="M1142.65,2423.2 L1142.65,2123.15 776.35,1699.95 C716.65,1722.5 649.25,1734.15 574.1,1734.95 L574.1,2423.2 1142.65,2423.2z"/>
              <path id="path88" fill="#CCCCCC" fill-opacity="1" d="M558,1512.35 C555.85,1512.75 553.2,1513.4 550.55,1514.2 Q526.9,1521.15 510.5,1539.9 L367.95,1704.65 C426.65,1724.9 492.55,1735 565.65,1735 568.5,1735 571.3,1735 574.1,1734.95 L574.1,1510.7 C568.95,1510.7 563.5,1511.25 558,1512.35z"/>
              <path id="path89" fill="#434D4F" fill-opacity="1" d="M574.1,1734.95 C571.3,1735 568.5,1735 565.65,1735 492.55,1735 426.65,1724.9 367.95,1704.65 L-133.5,2283.9 C-148.2,2300.95 -155,2320.65 -153.9,2343.05 -152.85,2365.45 -144.15,2384.4 -127.9,2399.95 -111.65,2415.45 -92.3,2423.2 -69.85,2423.2 L574.1,2423.2 574.1,1734.95z"/>
            </g>
          </g>
        </g>
      </g>
      <g id="moutain-e1">
        <g id="Symbole.__2033_6" overflow="visible">
          <g id="Calque.__2042">
            <g id="shape81">
              <path id="path90" fill="#FFFFFF" fill-opacity="1" d="M4895.7,1696.5 L4757.15,1536.45 C4746.2,1523.95 4732.9,1515.4 4717.15,1510.75 4709.35,1508.45 4701.55,1507.3 4693.45,1507.25 L4693.45,1731.5 C4768.6,1730.7 4836,1719.05 4895.7,1696.5z"/>
              <path id="path91" fill="#4A575A" fill-opacity="1" d="M5262,2419.75 L5262,2119.7 4895.7,1696.5 C4836,1719.05 4768.6,1730.7 4693.45,1731.5 L4693.45,2419.75 5262,2419.75z"/>
              <path id="path92" fill="#CCCCCC" fill-opacity="1" d="M4677.35,1508.9 C4675.2,1509.3 4672.55,1509.95 4669.9,1510.75 Q4646.25,1517.7 4629.85,1536.45 L4487.3,1701.2 C4546,1721.45 4611.9,1731.55 4685,1731.55 4687.85,1731.55 4690.65,1731.55 4693.45,1731.5 L4693.45,1507.25 C4688.3,1507.25 4682.85,1507.8 4677.35,1508.9z"/>
              <path id="path93" fill="#434D4F" fill-opacity="1" d="M4693.45,1731.5 C4690.65,1731.55 4687.85,1731.55 4685,1731.55 4611.9,1731.55 4546,1721.45 4487.3,1701.2 L3985.85,2280.45 C3971.15,2297.5 3964.35,2317.2 3965.45,2339.6 3966.5,2362 3975.2,2380.95 3991.45,2396.5 4007.7,2412 4027.05,2419.75 4049.5,2419.75 L4693.45,2419.75 4693.45,1731.5z"/>
            </g>
          </g>
        </g>
      </g>
      <g id="mountain-b1">
        <g id="Symbole.__2035_4" overflow="visible">
          <g id="Calque.__2043">
            <g id="shape82">
              <path id="path94" fill="#FFFFFF" fill-opacity="1" d="M1720.75,1207.65 C1709.9,1193.75 1696.05,1184.15 1679.3,1178.85 1669.6,1175.8 1659.9,1174.5 1650.25,1174.95 L1650.25,1550.1 C1758.3,1549.3 1856.25,1531.55 1944.1,1496.9 L1720.75,1207.65z"/>
              <path id="path95" fill="#47585B" fill-opacity="1" d="M2585.05,2363.3 C2586.9,2341.6 2581.1,2322.05 2567.75,2304.65 L1944.1,1496.9 C1856.25,1531.55 1758.3,1549.3 1650.25,1550.1 L1650.25,2440.3 2501.1,2440.3 C2522.95,2440.3 2541.95,2432.9 2558.05,2418.05 2574.15,2403.2 2583.15,2384.95 2585.05,2363.3z"/>
              <path id="path96" fill="#CCCCCC" fill-opacity="1" d="M1650.25,1174.95 Q1639.6,1175.45 1628.95,1178.85 C1612.15,1184.15 1598.35,1193.75 1587.5,1207.65 L1358.95,1503.65 C1444.25,1534.6 1538.8,1550.1 1642.6,1550.1 1645.15,1550.1 1647.7,1550.1 1650.25,1550.1 L1650.25,1174.95z"/>
              <path id="path97" fill="#414D4F" fill-opacity="1" d="M1650.25,1550.1 C1647.7,1550.1 1645.15,1550.1 1642.6,1550.1 1538.8,1550.1 1444.25,1534.6 1358.95,1503.65 L740.5,2304.65 C727.1,2322.05 721.35,2341.6 723.2,2363.3 725.05,2384.95 734.05,2403.2 750.15,2418.05 766.25,2432.9 785.25,2440.3 807.1,2440.3 L1650.25,2440.3 1650.25,1550.1z"/>
            </g>
          </g>
        </g>
      </g>
    </g>
  </g>
  <g id="ground">
    <g id="Symbole.__2023_1" overflow="visible">
      <g id="Calque.__2044">
        <g id="shape83">
          <path id="path98" fill="#1B252E" fill-opacity="1" d="M5120,2891 L5120,2280 2743,2280 3354.025,2891 5120,2891z M0,2280 L0,2891 3057.025,2891 2445.95,2280 0,2280z"/>
          <path id="path99" fill="#141C23" fill-opacity="1" d="M3354.025,2891 L2743,2280 2445.95,2280 3057.025,2891 3354.025,2891z"/>
        </g>
      </g>
    </g>
  </g>
  <g id="tree">
    <g id="Symbole.__2025_1" overflow="visible">
      <g id="Calque.__2045">
        <g id="Symbole.__2040_2" overflow="visible">
          <g id="Calque.__2046">
            <g id="shape84">
              <path id="path100" fill="#556F71" fill-opacity="1" d="M2409.8,1158.75 C2412.75,1162.3 2415.8,1165.8 2418.85,1169.3 2419.6,1170.15 2423.1,1176.05 2429.35,1187 L2430,1188.45 C2433.5,1196.45 2436.45,1204.9 2438.8,1213.9 2443.15,1230.55 2445.65,1249 2446.25,1269.3 L2446.3,1601.2 2446.5,2246.75 C2446.5,2255.55 2449.6,2263.05 2455.85,2269.3 2462.1,2275.55 2469.55,2278.65 2478.4,2278.65 L2602.2,2278.65 2602.2,1117.55 C2563.75,1126.65 2528,1121.45 2494.9,1101.95 2434.95,1045.55 2388.05,982.2 2354.25,911.95 2347.3,902 2337.85,895.95 2325.95,893.75 2314.05,891.55 2303.05,893.9 2293.05,900.85 2283,907.75 2276.9,917.2 2274.7,929.1 2272.55,941 2274.9,952.05 2281.8,962.15 2305.7,1012.35 2334.7,1060.6 2368.7,1106.85 2381.65,1124.4 2395.35,1141.75 2409.8,1158.75z"/>
              <path id="path101" fill="#69898B" fill-opacity="1" d="M2648.75,1059.85 C2648.75,1071.45 2648.15,1081.55 2646.8,1090.3 2645.5,1099 2636.9,1106.25 2621,1112 2614.65,1114.2 2608.4,1116.05 2602.2,1117.55 L2602.2,2278.65 2709.45,2278.65 C2718.25,2278.65 2725.8,2275.55 2731.95,2269.3 Q2741.3,2260 2741.3,2246.75 L2741.15,1517.95 C2741.6,1498.2 2749.3,1481.25 2764.2,1467.15 2770.95,1460.85 2778.3,1455.9 2786.2,1452.3 2795.25,1450.35 2804.35,1448.15 2813.3,1445.6 2913,1417.95 3016.6,1356.2 3124.3,1260.4 3130.1,1255.25 3133.25,1248.75 3133.7,1241.1 3134.1,1233.35 3131.75,1226.6 3126.65,1220.75 3121.45,1214.95 3115,1211.8 3107.3,1211.35 3099.6,1210.95 3092.8,1213.3 3086.95,1218.4 2995.5,1299.75 2907.45,1349.35 2822.2,1367.3 2816.55,1368.5 2810.85,1369.5 2804.85,1370.5 2795.8,1371.9 2788.1,1372.45 2781.75,1372.05 2772.3,1371.3 2764.8,1368.05 2759.2,1362.25 2757.4,1360.35 2755.7,1358.35 2754.05,1356.05 2747.15,1346.6 2742.85,1335.7 2741.1,1323.05 L2741.1,1142.6 C2741.1,1139.1 2740.95,1124.55 2740.6,1099 2740.55,1103.45 2740.45,1097.1 2740.3,1080 2739.95,1070.05 2739.3,1060.35 2738.2,1050.8 2736.8,1038.7 2731.4,1028.85 2721.85,1021.25 2712.35,1013.65 2701.6,1010.5 2689.5,1011.9 2677.5,1013.25 2667.65,1018.65 2660.05,1028.2 2652.45,1037.7 2648.7,1048.25 2648.75,1059.85z"/>
            </g>
          </g>
        </g>
        <g id="Symbole.__2042_2" overflow="visible">
          <g id="Calque.__2047">
            <g id="shape85">
              <path id="path102" fill="#9AB258" fill-opacity="1" d="M2174.05,621.5 C2171,624.45 2168.15,627.5 2165.4,630.65 2153.95,624.95 2141.35,622.1 2127.6,622.1 2104,622.1 2083.85,630.45 2067.15,647.15 2058.1,656.2 2051.55,666.2 2047.4,677.25 2030.55,671.3 2012.2,668.25 1992.6,668.25 1948.75,668.25 1911.3,683.4 1880.3,713.65 1876.65,717.25 1873.15,720.95 1869.95,724.75 1869.05,725.8 1868.15,726.85 1867.25,727.95 1867.2,727.85 1867.2,727.75 1867.2,727.7 1855.35,743.55 1847,760.85 1842.15,779.6 1841.4,779.8 1840.55,780.05 1839.7,780.3 1839.45,780.35 1839.15,780.45 1838.9,780.5 1836.4,781.3 1833.8,782.2 1831.25,783.2 1818.85,788.15 1807.45,795.8 1797.1,806.1 1777.1,826.15 1767.1,850.3 1767.1,878.6 1767.1,906.9 1777.1,931.05 1797.1,951.05 1816.5,970.45 1839.8,980.45 1866.95,981.1 L2393,981.1 C2393.55,981.1 2394.05,981.1 2394.6,981.1 L2398.5,981.1 C2438.65,980.15 2473.05,965.35 2501.7,936.7 2531.3,907.15 2546.1,871.45 2546.1,829.6 Q2546.1,766.85 2501.7,722.45 C2479.05,699.8 2452.85,685.85 2423,680.55 2422.35,680.4 2421.7,678.6 2421.1,675.1 L2421.1,675 C2413.95,655.45 2402.15,637.55 2385.75,621.5 2356.5,592.95 2321.25,578.7 2279.9,578.7 2238.6,578.7 2203.3,592.95 2174.05,621.5z M1872.6,776.1 C1874.6,776.1 1876.5,776.15 1878.2,776.25 1878.2,776.3 1878.2,776.4 1878.25,776.45 1876.15,776.3 1874,776.15 1871.85,776.1 1872.1,776.1 1872.35,776.1 1872.6,776.1z"/>
            </g>
          </g>
        </g>
        <g id="Symbole.__2044_2" overflow="visible">
          <g id="Calque.__2048">
            <g id="shape86">
              <path id="path103" fill="#7C8A4A" fill-opacity="1" d="M2886.75,760.7 Q2878.4,729.2 2853.65,704.45 C2828.75,679.55 2798.7,667.1 2763.5,667.1 2728.3,667.1 2698.25,679.55 2673.35,704.45 2648.5,729.3 2636.05,759.3 2636,794.45 2632.7,794.2 2629.35,794.1 2626,794.1 2589.55,794.1 2558.4,807 2532.65,832.75 2506.9,858.5 2494,889.65 2494,926.1 2494,962.55 2506.9,993.7 2532.65,1019.45 2554.3,1041.1 2579.7,1053.65 2608.85,1057.1 L3110,1057.1 C3129.5,1053.45 3146.1,1044.7 3159.85,1030.95 3164.45,1026.35 3168.5,1021.55 3171.95,1016.5 3182.65,1000.9 3188,983.1 3188,963.1 3188,936.65 3178.65,914 3159.9,895.25 L3159.85,895.2 C3142.1,877.45 3120.9,868.15 3096.2,867.2 3090.05,839.7 3076.3,815.3 3055.05,794.05 3025.1,764.1 2988.9,749.1 2946.5,749.1 2924.95,749.1 2905.05,752.95 2886.75,760.7z"/>
            </g>
          </g>
        </g>
        <g id="Symbole.__2046_2" overflow="visible">
          <g id="Calque.__2049">
            <g id="shape87">
              <path id="path104" fill="#9EAD5E" fill-opacity="1" d="M3180.1,1107.2 C3174.95,1112.35 3170.55,1117.75 3166.9,1123.5 3163.25,1117.85 3158.85,1112.45 3153.75,1107.35 3135.6,1089.2 3113.65,1080.1 3088,1080.1 3062.35,1080.1 3040.4,1089.2 3022.25,1107.35 3006.8,1122.8 2997.95,1140.9 2995.65,1161.75 Q2983.15,1154.1 2967.5,1154.1 C2952.45,1154.1 2939.6,1159.4 2928.95,1170.05 2918.3,1180.7 2913,1193.55 2913,1208.6 2913,1223.65 2918.3,1236.5 2928.95,1247.15 2936.9,1255.1 2946.15,1260.1 2956.6,1262.1 2959.35,1262.65 2964.3,1263.15 2971.45,1263.65 2973.7,1263.95 2975.85,1264.1 2978,1264.1 L3068,1264.1 C3074.6,1265.45 3081.15,1266.1 3088,1266.1 3095.1,1266.1 3101.85,1265.4 3108.05,1264.1 L3196.15,1264.1 C3224.3,1264.8 3240.6,1265.1 3245.5,1265.1 3254,1265.1 3262.1,1264.1 3269.75,1262.1 3285.1,1258.1 3298.85,1250.05 3310.9,1238 3328.95,1219.95 3338,1198.15 3338,1172.6 3338,1147.05 3328.95,1125.25 3310.9,1107.2 3292.85,1089.15 3271.05,1080.1 3245.5,1080.1 3219.95,1080.1 3198.15,1089.15 3180.1,1107.2z"/>
            </g>
          </g>
        </g>
      </g>
    </g>
  </g>
  <g id="moon">
    <g id="Symbole.__2027_1" overflow="visible">
      <g id="Calque.__2050">
        <g id="shape88">
          <path id="path105" fill="#FFFCCF" fill-opacity="0.09803921568627451" d="M869.1,432.25 Q770.45,333.65 631,333.65 C538.05,333.65 458.7,366.5 392.95,432.25 327.2,498 294.35,577.35 294.35,670.3 294.35,763.25 327.2,842.65 392.95,908.4 458.7,974.1 538.05,1006.95 631,1007 723.95,1006.95 803.35,974.1 869.1,908.4 934.8,842.65 967.65,763.25 967.7,670.3 967.65,577.35 934.8,498 869.1,432.25z M809.55,491.75 C858.85,541.05 883.5,600.55 883.5,670.3 883.5,740.05 858.85,799.55 809.55,848.85 760.25,898.15 700.75,922.8 631,922.8 561.25,922.8 501.75,898.15 452.45,848.85 403.15,799.55 378.5,740.05 378.5,670.3 378.5,600.55 403.15,541.05 452.45,491.75 501.75,442.45 561.25,417.8 631,417.8 700.75,417.8 760.25,442.45 809.55,491.75z"/>
          <path id="path106" fill="#FFFFCC" fill-opacity="1" d="M809.55,491.75 C760.25,442.45 700.75,417.8 631,417.8 561.25,417.8 501.75,442.45 452.45,491.75 403.15,541.05 378.5,600.55 378.5,670.3 378.5,740.05 403.15,799.55 452.45,848.85 501.75,898.15 561.25,922.8 631,922.8 700.75,922.8 760.25,898.15 809.55,848.85 858.85,799.55 883.5,740.05 883.5,670.3 883.5,600.55 858.85,541.05 809.55,491.75z"/>
        </g>
      </g>
    </g>
  </g>
  <g id="stars">
    <g id="Symbole.__2029_1" overflow="visible">
      <g id="Calque.__2051">
        <g id="shape89">
          <path id="path107" fill="#FFFFFF" fill-opacity="1" d="M4086.7,1339.7 C4090.25,1336.2 4092,1331.95 4092,1327 4092,1322.05 4090.25,1317.8 4086.7,1314.25 4083.2,1310.75 4078.95,1309 4074,1309 4069.05,1309 4064.8,1310.75 4061.25,1314.25 4057.75,1317.8 4056,1322.05 4056,1327 4056,1331.95 4057.75,1336.2 4061.25,1339.7 4064.8,1343.25 4069.05,1345 4074,1345 4078.95,1345 4083.2,1343.25 4086.7,1339.7z M3036,305 C3042.65,305 3048.3,302.65 3052.95,297.95 3057.65,293.3 3060,287.65 3060,281 3060,274.35 3057.65,268.7 3052.95,264 3048.3,259.35 3042.65,257 3036,257 3029.35,257 3023.7,259.35 3019,264 3014.35,268.7 3012,274.35 3012,281 3012,287.65 3014.35,293.3 3019,297.95 3023.7,302.65 3029.35,305 3036,305z M1355.5,875 C1347.05,875 1339.85,877.95 1333.9,883.9 1327.95,889.85 1325,897.05 1325,905.5 1325,913.95 1327.95,921.1 1333.9,927.05 1339.85,933 1347.05,936 1355.5,936 1363.95,936 1371.1,933 1377.05,927.05 1383,921.1 1386,913.95 1386,905.5 1386,897.05 1383,889.85 1377.05,883.9 1371.1,877.95 1363.95,875 1355.5,875z"/>
          <path id="path108" fill="#98C9F3" fill-opacity="1" d="M2007.8,281.2 C2002.35,275.75 1995.75,273 1988,273 1980.25,273 1973.65,275.75 1968.2,281.2 1962.75,286.65 1960,293.25 1960,301 1960,308.75 1962.75,315.35 1968.2,320.8 1973.65,326.25 1980.25,329 1988,329 1995.75,329 2002.35,326.25 2007.8,320.8 2013.25,315.35 2016,308.75 2016,301 2016,293.25 2013.25,286.65 2007.8,281.2z M1116.95,288 C1112.3,283.35 1106.65,281 1100,281 1093.35,281 1087.7,283.35 1083,288 1078.35,292.7 1076,298.35 1076,305 1076,311.65 1078.35,317.3 1083,321.95 1087.7,326.65 1093.35,329 1100,329 1106.65,329 1112.3,326.65 1116.95,321.95 1121.65,317.3 1124,311.65 1124,305 1124,298.35 1121.65,292.7 1116.95,288z M366,1267 C366,1274.15 368.55,1280.3 373.6,1285.35 378.7,1290.45 384.85,1293 392,1293 399.15,1293 405.3,1290.45 410.35,1285.35 415.45,1280.3 418,1274.15 418,1267 418,1259.85 415.45,1253.7 410.35,1248.6 405.3,1243.55 399.15,1241 392,1241 384.85,1241 378.7,1243.55 373.6,1248.6 368.55,1253.7 366,1259.85 366,1267z M3585.55,736.05 C3584.9,735.2 3584.15,734.4 3583.35,733.6 3578.3,728.55 3572.15,726 3565,726 3557.85,726 3551.7,728.55 3546.6,733.6 3541.55,738.7 3539,744.85 3539,752 3539,759.15 3541.55,765.3 3546.6,770.35 3551.7,775.45 3557.85,778 3565,778 3572.15,778 3578.3,775.45 3583.35,770.35 3584.15,769.55 3584.9,768.75 3585.55,767.9 3589.2,763.35 3591,758.05 3591,752 3591,745.95 3589.2,740.65 3585.55,736.05z M3600.45,1680.45 C3607.5,1673.4 3611,1664.95 3611,1655 3611,1645.05 3607.5,1636.6 3600.45,1629.55 3593.4,1622.5 3584.95,1619 3575,1619 3565.05,1619 3556.6,1622.5 3549.55,1629.55 3542.5,1636.6 3539,1645.05 3539,1655 3539,1664.95 3542.5,1673.4 3549.55,1680.45 3556.6,1687.5 3565.05,1691 3575,1691 3584.95,1691 3593.4,1687.5 3600.45,1680.45z M4056,730 Q4056,749.9 4070.05,763.95 C4079.4,773.3 4090.75,778 4104,778 4117.25,778 4128.6,773.3 4137.95,763.95 4147.3,754.6 4152,743.25 4152,730 4152,716.75 4147.3,705.4 4137.95,696.05 4128.6,686.7 4117.25,682 4104,682 4090.75,682 4079.4,686.7 4070.05,696.05 4060.7,705.4 4056,716.75 4056,730z"/>
        </g>
      </g>
    </g>
  </g>
  <g id="Clock">
    <g id="Symbole.__2031_1" overflow="visible">
      <g id="Calque.__2052">
        <g id="Symbole.__2048_2" overflow="visible">
          <g id="Calque.__2053">
            <g id="shape90">
              <path id="path109" fill="#855A20" fill-opacity="1" d="M4177.5,0.1 L4058.5,0.1 4058.5,168.1 C4058.5,176.35 4061.45,183.45 4067.3,189.3 4073.15,195.15 4080.25,198.1 4088.5,198.1 L4147.5,198.1 C4155.75,198.1 4162.85,195.15 4168.7,189.3 4174.55,183.45 4177.5,176.35 4177.5,168.1 L4177.5,0.1z M3834.5,0.1 L3715.5,0.1 3715.5,168.1 C3715.5,176.35 3718.45,183.45 3724.3,189.3 3730.15,195.15 3737.25,198.1 3745.5,198.1 L3804.5,198.1 C3812.75,198.1 3819.85,195.15 3825.7,189.3 3831.55,183.45 3834.5,176.35 3834.5,168.1 L3834.5,0.1z"/>
            </g>
          </g>
        </g>
      </g>
      <g id="Calque.__2054">
        <g id="Symbole.__2050_2" overflow="visible">
          <g id="Calque.__2055">
            <g id="shape91">
              <path id="path110" fill="#A17233" fill-opacity="1" d="M4248.35,136.15 C4240.4,131.9 4231.65,129.8 4222,129.85 L3671,129.85 C3661.35,129.8 3652.6,131.9 3644.65,136.15 3639.75,138.8 3635.2,142.2 3630.95,146.45 3619.85,157.5 3614.3,170.85 3614.35,186.5 L3614.35,398.5 C3614.3,414.15 3619.85,427.5 3630.95,438.55 3642,449.65 3655.35,455.2 3671,455.2 L4222,455.2 C4237.65,455.2 4251,449.65 4262.05,438.55 4273.15,427.5 4278.7,414.15 4278.7,398.5 L4278.7,186.5 C4278.7,170.85 4273.15,157.5 4262.05,146.45 4257.8,142.2 4253.25,138.8 4248.35,136.15z"/>
              <path id="path111" fill="#6E4F25" fill-opacity="1" d="M4224.35,184.15 Q4223.35,183.2 4222,183.2 L3671,183.2 C3670.1,183.2 3669.3,183.5 3668.65,184.15 3668,184.8 3667.7,185.6 3667.7,186.5 L3667.7,208.3 4225.35,208.3 4225.35,186.5 C4225.3,185.6 4225,184.8 4224.35,184.15z"/>
              <path id="path112" fill="#805B2A" fill-opacity="1" d="M4224.35,400.85 C4225,400.2 4225.3,399.4 4225.35,398.5 L4225.35,208.3 3667.7,208.3 3667.7,398.5 C3667.7,399.4 3668,400.2 3668.65,400.85 3669.3,401.5 3670.1,401.8 3671,401.85 L4222,401.85 C4222.9,401.8 4223.7,401.5 4224.35,400.85z"/>
            </g>
          </g>
        </g>
      </g>
    </g>
  </g>
</svg>