<?xml version="1.0" encoding="utf-8"?>
<!-- Generator: flash2svg, http://dissentgraphics.com/tools/flash2svg -->
<svg id="Cpu" image-rendering="optimizeSpeed" baseProfile="basic" version="1.1" style="background-color:#FFFFFF" x="0px" y="0px" width="1024px" height="1024px" viewBox="0 0 1024 1024" enable-background="new 0 0 1024 1024" xmlns="http://www.w3.org/2000/svg" xmlns:xlink="http://www.w3.org/1999/xlink">
  <defs transform="matrix(1 0 0 1 0 0) "/>
  <g id="shadow">
    <g id="shape">
      <path id="path" fill="#000000" fill-opacity="0.09803921568627451" d="M969.6,351.25 Q961,330.4 950.2,310.4 C946.15,302.85 941.85,295.35 937.3,288 917.75,256.3 893.9,226.35 865.75,198.2 773.6,106.05 662.3,59.95 531.95,59.95 401.6,59.95 290.35,106.05 198.2,198.2 106.05,290.35 59.95,401.6 59.95,531.95 59.95,662.3 106.05,773.6 198.2,865.75 290.35,957.9 401.6,1003.95 531.95,1003.95 662.3,1003.95 773.6,957.9 865.75,865.75 916.5,814.95 953.3,758.35 976.1,696 994.65,645.15 1003.95,590.5 1003.95,531.95 1003.95,487.05 998.5,444.4 987.55,404 986.3,399.45 985,394.9 983.65,390.4 979.55,377.1 974.85,364.05 969.6,351.25z"/>
    </g>
  </g>
  <g id="inner.__20circle">
    <g id="shape2">
      <path id="path1" fill="#3E5774" fill-opacity="1" d="M776.525,270.625 L800.55,215.05 968.225,386.375 L968.25,386.4 C967.55,383.9 966.8,381.15 966.05,378.4 963.55,369.65 960.7,360.8 957.6,352.05 951.15,333.8 943.45,316 934.45,298.4 930.65,291 926.5,283.45 922.15,276 Q891.5,224 845.8,178.25 C773.2,105.65 688.65,61.6 592.15,46.2 566.35,42.05 539.6,40 512,40 381.65,40 270.4,86.1 178.25,178.25 86.5,270 40.45,380.6 40,510.1 40,510.75 40,511.35 40,512 40,512.75 40,513.5 40,514.1 40.5,643.65 86.65,754.2 178.25,845.8 232.05,899.6 292.4,937.7 358.8,959.95 L358.775,959.925 L223,824.15 283.925,763.225 L283.95,763.25 C282.1,760.45 280.25,757.65 278.5,754.85 276.55,753 274.65,751.1 272.75,749.2 204.9,681.35 171,599.45 171,503.5 171,407.55 204.9,325.6 272.75,257.75 340.6,189.9 422.55,156 518.5,156 614.45,156 696.35,189.9 764.2,257.75 768.45,262 772.55,266.3 776.55,270.65"/>
      <path id="path2" fill="#3D5675" fill-opacity="1" d="M800.55,215.05 L776.525,270.625 L776.55,270.65 C825.1,323.8 853.9,385.2 862.95,454.75 879.7,494.2 888.1,537.1 888.1,583.5 888.1,674.2 856,751.6 791.85,815.75 727.7,879.9 650.3,912 559.6,912 468.9,912 391.45,879.9 327.3,815.75 310.7,799.15 296.25,781.65 283.95,763.25 L283.925,763.225 L223,824.15 358.775,959.925 L358.8,959.95 C398.7,973.35 440.5,981.1 484.5,983.3 493,983.75 501.1,984 509,984 510.2,984 511.1,984 512,984 524.7,984 537.2,983.55 549.05,982.75 569.25,981.3 588.95,978.7 607.75,975.05 615.7,973.5 623.55,971.75 631.15,969.9 711.95,949.6 783.3,908.3 845.8,845.8 894.4,797.2 930.2,743.3 953.15,684 971.6,636.35 981.8,585.2 983.7,530.5 983.9,525.15 984,519.7 984,514.1 984,513.5 984,512.75 984,512 984,511.35 984,510.75 984,510.1 984,509.75 984,509.35 984,509 983.8,468.35 979.05,429.5 969.7,392 969.25,390.25 968.8,388.4 968.25,386.4 L968.225,386.375 L800.55,215.05z"/>
      <path id="path3" fill="#3C5576" fill-opacity="1" d="M776.55,270.65 C772.55,266.3 768.45,262 764.2,257.75 696.35,189.9 614.45,156 518.5,156 422.55,156 340.6,189.9 272.75,257.75 204.9,325.6 171,407.55 171,503.5 171,599.45 204.9,681.35 272.75,749.2 274.65,751.1 276.55,753 278.5,754.85 280.25,757.65 282.1,760.45 283.95,763.25 296.25,781.65 310.7,799.15 327.3,815.75 391.45,879.9 468.9,912 559.6,912 650.3,912 727.7,879.9 791.85,815.75 856,751.6 888.1,674.2 888.1,583.5 888.1,537.1 879.7,494.2 862.95,454.75 853.9,385.2 825.1,323.8 776.55,270.65z"/>
    </g>
  </g>
  <g id="Calque.__206">
    <g id="shape7">
      <path id="path5" fill="none" stroke="#223243" stroke-opacity="1" stroke-width="64.2" stroke-linecap="round" stroke-linejoin="round" d="M798,798 Q903.2,692.85 903.2,544.1 C903.2,444.95 868.15,360.3 798,290.15 727.9,220.05 643.25,185 544.1,185 444.95,185 360.3,220.05 290.15,290.15 220.05,360.3 185,444.95 185,544.1 185,643.25 220.05,727.9 290.15,798 360.3,868.15 444.95,903.2 544.1,903.2 643.25,903.2 727.9,868.15 798,798z"/>
    </g>
  </g>
  <g id="Calque.__207">
    <g id="shape9">
      <path id="path6" fill="#213144" fill-opacity="1" d="M705.2,252.45 Q705.2,275.25 721.3,291.35 C732.05,302.1 745,307.45 760.2,307.45 775.4,307.45 788.35,302.1 799.1,291.35 809.85,280.6 815.2,267.65 815.2,252.45 815.2,237.25 809.85,224.3 799.1,213.55 788.35,202.8 775.4,197.45 760.2,197.45 745,197.45 732.05,202.8 721.3,213.55 710.55,224.3 705.2,237.25 705.2,252.45z M721.1,738.8 C710.35,749.55 705,762.5 705,777.7 705,792.9 710.35,805.85 721.1,816.6 731.85,827.35 744.8,832.7 760,832.7 775.2,832.7 788.15,827.35 798.9,816.6 809.65,805.85 815,792.9 815,777.7 815,762.5 809.65,749.55 798.9,738.8 788.15,728.05 775.2,722.7 760,722.7 744.8,722.7 731.85,728.05 721.1,738.8z M297.9,296 C308.65,285.25 314,272.3 314,257.1 314,241.9 308.65,228.95 297.9,218.2 287.15,207.45 274.2,202.1 259,202.1 243.8,202.1 230.85,207.45 220.1,218.2 209.35,228.95 204,241.9 204,257.1 204,272.3 209.35,285.25 220.1,296 230.85,306.75 243.8,312.1 259,312.1 274.2,312.1 287.15,306.75 297.9,296z M219.9,743.45 C209.15,754.2 203.8,767.15 203.8,782.35 203.8,797.55 209.15,810.5 219.9,821.25 230.65,832 243.6,837.35 258.8,837.35 274,837.35 286.95,832 297.7,821.25 308.45,810.5 313.8,797.55 313.8,782.35 313.8,767.15 308.45,754.2 297.7,743.45 286.95,732.7 274,727.35 258.8,727.35 243.6,727.35 230.65,732.7 219.9,743.45z"/>
      <path id="path13" fill="#F2C500" fill-opacity="1" d="M418,777.5 C418,782.9 419.9,787.5 423.7,791.3 427.5,795.1 432.1,797 437.5,797 442.9,797 447.5,795.1 451.3,791.3 455.1,787.5 457,782.9 457,777.5 457,772.1 455.1,767.5 451.3,763.7 447.5,759.9 442.9,758 437.5,758 432.1,758 427.5,759.9 423.7,763.7 419.9,767.5 418,772.1 418,777.5z M500.7,766.3 C496.9,770.1 495,774.7 495,780.1 495,785.5 496.9,790.1 500.7,793.9 504.5,797.7 509.1,799.6 514.5,799.6 519.9,799.6 524.5,797.7 528.3,793.9 532.1,790.1 534,785.5 534,780.1 534,774.7 532.1,770.1 528.3,766.3 524.5,762.5 519.9,760.6 514.5,760.6 509.1,760.6 504.5,762.5 500.7,766.3z M577.7,768.2 C573.9,772 572,776.6 572,782 572,787.4 573.9,792 577.7,795.8 581.5,799.6 586.1,801.5 591.5,801.5 596.9,801.5 601.5,799.6 605.3,795.8 609.1,792 611,787.4 611,782 611,776.6 609.1,772 605.3,768.2 601.5,764.4 596.9,762.5 591.5,762.5 586.1,762.5 581.5,764.4 577.7,768.2z"/>
    </g>
  </g>
  <g id="Calque.__208">
    <g id="shape22">
      <path id="path18" fill="#638FC6" fill-opacity="1" d="M760,223.9 Q748.2,223.9 739.85,232.2 C734.3,237.75 731.55,244.5 731.55,252.35 731.55,260.2 734.3,266.9 739.85,272.45 745.4,278 752.15,280.8 760,280.8 767.85,280.8 774.55,278 780.1,272.45 785.65,266.9 788.45,260.2 788.45,252.35 788.45,244.5 785.65,237.75 780.1,232.2 774.55,226.65 767.85,223.9 760,223.9z M739.4,758.35 C733.85,763.9 731.1,770.65 731.1,778.5 731.1,786.35 733.85,793.05 739.4,798.6 744.95,804.15 751.7,806.95 759.55,806.95 767.4,806.95 774.1,804.15 779.65,798.6 785.2,793.05 788,786.35 788,778.5 788,770.65 785.2,763.9 779.65,758.35 774.1,752.8 767.4,750.05 759.55,750.05 751.7,750.05 744.95,752.8 739.4,758.35z M279.55,237.25 C274,231.7 267.3,228.95 259.45,228.95 251.6,228.95 244.85,231.7 239.3,237.25 233.75,242.8 231,249.55 231,257.4 231,265.25 233.75,271.95 239.3,277.5 244.85,283.05 251.6,285.85 259.45,285.85 267.3,285.85 274,283.05 279.55,277.5 285.1,271.95 287.9,265.25 287.9,257.4 287.9,249.55 285.1,242.8 279.55,237.25z M238.85,763.4 C233.3,768.95 230.55,775.7 230.55,783.55 230.55,791.4 233.3,798.1 238.85,803.65 244.4,809.2 251.15,812 259,812 266.85,812 273.55,809.2 279.1,803.65 284.65,798.1 287.45,791.4 287.45,783.55 287.45,775.7 284.65,768.95 279.1,763.4 273.55,757.85 266.85,755.1 259,755.1 251.15,755.1 244.4,757.85 238.85,763.4z"/>
    </g>
  </g>
  <g id="Calque.__209">
    <g id="shape30">
      <path id="path25" fill="#000000" fill-opacity="0.2" d="M679.8,383.85 Q679.8,363.85 659.8,363.85 L636.2,363.85 C636.6,362.4 636.8,360.9 636.8,359.3 L636.8,325.3 C636.8,320.9 635.25,317.15 632.1,314 628.95,310.85 625.2,309.3 620.8,309.3 616.4,309.3 612.65,310.85 609.5,314 606.35,317.15 604.8,320.9 604.8,325.3 L604.8,359.3 C604.8,360.9 605,362.4 605.45,363.85 L526.7,363.85 C527.1,362.4 527.3,360.9 527.3,359.3 L527.3,325.3 C527.3,320.9 525.75,317.15 522.6,314 519.45,310.85 515.7,309.3 511.3,309.3 506.9,309.3 503.15,310.85 500,314 496.85,317.15 495.3,320.9 495.3,325.3 L495.3,359.3 C495.3,360.9 495.5,362.4 495.95,363.85 L417.2,363.85 C417.6,362.4 417.8,360.9 417.8,359.3 L417.8,325.3 C417.8,320.9 416.25,317.15 413.1,314 409.95,310.85 406.2,309.3 401.8,309.3 397.4,309.3 393.65,310.85 390.5,314 387.35,317.15 385.8,320.9 385.8,325.3 L385.8,359.3 C385.8,360.9 386,362.4 386.45,363.85 L363.8,363.85 C350.45,363.85 343.8,370.5 343.8,383.85 L343.8,407.3 C343.65,407.3 343.45,407.3 343.25,407.3 L309.25,407.3 C304.85,407.3 301.1,408.85 297.95,412 294.8,415.15 293.25,418.9 293.25,423.3 293.25,427.7 294.8,431.45 297.95,434.6 301.1,437.75 304.85,439.3 309.25,439.3 L343.25,439.3 C343.45,439.3 343.65,439.3 343.8,439.3 L343.8,516.8 C343.65,516.8 343.45,516.8 343.25,516.8 L309.25,516.8 C304.85,516.8 301.1,518.35 297.95,521.5 294.8,524.65 293.25,528.4 293.25,532.8 293.25,537.2 294.8,540.95 297.95,544.1 301.1,547.25 304.85,548.8 309.25,548.8 L343.25,548.8 C343.45,548.8 343.65,548.8 343.8,548.8 L343.8,626.3 C343.65,626.3 343.45,626.3 343.25,626.3 L309.25,626.3 C304.85,626.3 301.1,627.85 297.95,631 294.8,634.15 293.25,637.9 293.25,642.3 293.25,646.7 294.8,650.45 297.95,653.6 301.1,656.75 304.85,658.3 309.25,658.3 L343.25,658.3 C343.45,658.3 343.65,658.3 343.8,658.3 L343.8,679.85 C343.8,693.2 350.45,699.85 363.8,699.85 L386.75,699.85 386.75,731.3 C386.75,735.7 388.3,739.45 391.45,742.6 394.6,745.75 398.35,747.3 402.75,747.3 407.15,747.3 410.9,745.75 414.05,742.6 417.2,739.45 418.75,735.7 418.75,731.3 L418.75,699.85 496.25,699.85 496.25,731.3 C496.25,735.7 497.8,739.45 500.95,742.6 504.1,745.75 507.85,747.3 512.25,747.3 516.65,747.3 520.4,745.75 523.55,742.6 526.7,739.45 528.25,735.7 528.25,731.3 L528.25,699.85 605.75,699.85 605.75,731.3 C605.75,735.7 607.3,739.45 610.45,742.6 613.6,745.75 617.35,747.3 621.75,747.3 626.15,747.3 629.9,745.75 633.05,742.6 636.2,739.45 637.75,735.7 637.75,731.3 L637.75,699.85 659.8,699.85 C673.15,699.85 679.8,693.2 679.8,679.85 L679.8,657.3 C680.25,657.35 680.75,657.35 681.25,657.35 L715.25,657.35 C719.65,657.35 723.4,655.8 726.55,652.65 729.7,649.5 731.25,645.75 731.25,641.35 731.25,636.95 729.7,633.2 726.55,630.05 723.4,626.9 719.65,625.35 715.25,625.35 L681.25,625.35 C680.75,625.35 680.25,625.35 679.8,625.4 L679.8,547.8 C680.25,547.85 680.75,547.85 681.25,547.85 L715.25,547.85 C719.65,547.85 723.4,546.3 726.55,543.15 729.7,540 731.25,536.25 731.25,531.85 731.25,527.45 729.7,523.7 726.55,520.55 723.4,517.4 719.65,515.85 715.25,515.85 L681.25,515.85 C680.75,515.85 680.25,515.85 679.8,515.9 L679.8,438.3 C680.25,438.35 680.75,438.35 681.25,438.35 L715.25,438.35 C719.65,438.35 723.4,436.8 726.55,433.65 729.7,430.5 731.25,426.75 731.25,422.35 731.25,417.95 729.7,414.2 726.55,411.05 723.4,407.9 719.65,406.35 715.25,406.35 L681.25,406.35 C680.75,406.35 680.25,406.35 679.8,406.4 L679.8,383.85z"/>
    </g>
  </g>
  <g id="Calque.__210">
    <g id="shape32">
      <path id="path26" fill="#6590C4" fill-opacity="1" d="M681.45,386.5 Q674.85,386.5 670.15,391.2 C667,394.35 665.45,398.1 665.45,402.5 665.45,406.9 667,410.65 670.15,413.8 673.3,416.95 677.05,418.5 681.45,418.5 L715.45,418.5 C719.85,418.5 723.6,416.95 726.75,413.8 729.9,410.65 731.45,406.9 731.45,402.5 731.45,398.1 729.9,394.35 726.75,391.2 723.6,388.05 719.85,386.5 715.45,386.5 L681.45,386.5z M726.75,500.7 C723.6,497.55 719.85,496 715.45,496 L681.45,496 C677.05,496 673.3,497.55 670.15,500.7 667,503.85 665.45,507.6 665.45,512 665.45,516.4 667,520.15 670.15,523.3 673.3,526.45 677.05,528 681.45,528 L715.45,528 C719.85,528 723.6,526.45 726.75,523.3 729.9,520.15 731.45,516.4 731.45,512 731.45,507.6 729.9,503.85 726.75,500.7z M726.75,610.2 C723.6,607.05 719.85,605.5 715.45,605.5 L681.45,605.5 C677.05,605.5 673.3,607.05 670.15,610.2 667,613.35 665.45,617.1 665.45,621.5 665.45,625.9 667,629.65 670.15,632.8 673.3,635.95 677.05,637.5 681.45,637.5 L715.45,637.5 C719.85,637.5 723.6,635.95 726.75,632.8 729.9,629.65 731.45,625.9 731.45,621.5 731.45,617.1 729.9,613.35 726.75,610.2z M402,289.45 C397.6,289.45 393.85,291 390.7,294.15 387.55,297.3 386,301.05 386,305.45 L386,339.45 C386,343.85 387.55,347.6 390.7,350.75 393.85,353.9 397.6,355.45 402,355.45 406.4,355.45 410.15,353.9 413.3,350.75 416.45,347.6 418,343.85 418,339.45 L418,305.45 C418,301.05 416.45,297.3 413.3,294.15 410.15,291 406.4,289.45 402,289.45z M354.75,392.15 C351.6,389 347.85,387.45 343.45,387.45 L309.45,387.45 C305.05,387.45 301.3,389 298.15,392.15 295,395.3 293.45,399.05 293.45,403.45 293.45,407.85 295,411.6 298.15,414.75 301.3,417.9 305.05,419.45 309.45,419.45 L343.45,419.45 C347.85,419.45 351.6,417.9 354.75,414.75 357.9,411.6 359.45,407.85 359.45,403.45 359.45,399.05 357.9,395.3 354.75,392.15z M621,289.45 C616.6,289.45 612.85,291 609.7,294.15 606.55,297.3 605,301.05 605,305.45 L605,339.45 C605,343.85 606.55,347.6 609.7,350.75 612.85,353.9 616.6,355.45 621,355.45 625.4,355.45 629.15,353.9 632.3,350.75 635.45,347.6 637,343.85 637,339.45 L637,305.45 C637,301.05 635.45,297.3 632.3,294.15 629.15,291 625.4,289.45 621,289.45z M522.8,294.15 C519.65,291 515.9,289.45 511.5,289.45 507.1,289.45 503.35,291 500.2,294.15 497.05,297.3 495.5,301.05 495.5,305.45 L495.5,339.45 C495.5,343.85 497.05,347.6 500.2,350.75 503.35,353.9 507.1,355.45 511.5,355.45 515.9,355.45 519.65,353.9 522.8,350.75 525.95,347.6 527.5,343.85 527.5,339.45 L527.5,305.45 C527.5,301.05 525.95,297.3 522.8,294.15z M309.45,496.95 C305.05,496.95 301.3,498.5 298.15,501.65 295,504.8 293.45,508.55 293.45,512.95 293.45,517.35 295,521.1 298.15,524.25 301.3,527.4 305.05,528.95 309.45,528.95 L343.45,528.95 C347.85,528.95 351.6,527.4 354.75,524.25 357.9,521.1 359.45,517.35 359.45,512.95 359.45,508.55 357.9,504.8 354.75,501.65 351.6,498.5 347.85,496.95 343.45,496.95 L309.45,496.95z M309.45,606.45 C305.05,606.45 301.3,608 298.15,611.15 295,614.3 293.45,618.05 293.45,622.45 293.45,626.85 295,630.6 298.15,633.75 301.3,636.9 305.05,638.45 309.45,638.45 L343.45,638.45 C347.85,638.45 351.6,636.9 354.75,633.75 357.9,630.6 359.45,626.85 359.45,622.45 359.45,618.05 357.9,614.3 354.75,611.15 351.6,608 347.85,606.45 343.45,606.45 L309.45,606.45z M418.95,677.45 C418.95,673.05 417.4,669.3 414.25,666.15 411.1,663 407.35,661.45 402.95,661.45 398.55,661.45 394.8,663 391.65,666.15 388.5,669.3 386.95,673.05 386.95,677.45 L386.95,711.45 C386.95,715.85 388.5,719.6 391.65,722.75 394.8,725.9 398.55,727.45 402.95,727.45 407.35,727.45 411.1,725.9 414.25,722.75 417.4,719.6 418.95,715.85 418.95,711.45 L418.95,677.45z M637.95,677.45 C637.95,673.05 636.4,669.3 633.25,666.15 630.1,663 626.35,661.45 621.95,661.45 617.55,661.45 613.8,663 610.65,666.15 607.5,669.3 605.95,673.05 605.95,677.45 L605.95,711.45 C605.95,715.85 607.5,719.6 610.65,722.75 613.8,725.9 617.55,727.45 621.95,727.45 626.35,727.45 630.1,725.9 633.25,722.75 636.4,719.6 637.95,715.85 637.95,711.45 L637.95,677.45z M501.15,666.15 C498,669.3 496.45,673.05 496.45,677.45 L496.45,711.45 C496.45,715.85 498,719.6 501.15,722.75 504.3,725.9 508.05,727.45 512.45,727.45 516.85,727.45 520.6,725.9 523.75,722.75 526.9,719.6 528.45,715.85 528.45,711.45 L528.45,677.45 C528.45,673.05 526.9,669.3 523.75,666.15 520.6,663 516.85,661.45 512.45,661.45 508.05,661.45 504.3,663 501.15,666.15z"/>
    </g>
  </g>
  <g id="Calque.__211">
    <g id="shape56">
      <path id="path49" fill="#233242" fill-opacity="1" d="M680,364 Q680,344 660,344 L364,344 C350.65,344 344,350.65 344,364 L344,660 C344,673.35 350.65,680 364,680 L660,680 C673.35,680 680,673.35 680,660 L680,364z"/>
    </g>
  </g>
  <g id=".__E5.__9B.__BE.__E5.__B1.__82.__201">
    <g id="drawingObject">
      <path id="path50" fill="#F3C600" fill-opacity="1" d="M550.851,429.948 Q553.878,421.154 552.946,412.7 C542.862,413.112 530.647,419.434 523.393,427.906 516.91,435.411 511.232,447.429 512.754,458.946 524.02,459.805 535.519,453.214 542.522,444.742 Q548.057,438.044 550.851,429.948z M589.448,481.119 C577.663,463.853 559.287,461.489 552.749,461.22 537.131,459.626 522.265,470.408 514.348,470.408 506.432,470.408 494.199,461.453 481.249,461.686 464.216,461.937 448.526,471.591 439.75,486.833 422.072,517.532 435.237,562.989 452.467,587.885 460.885,600.065 470.933,613.784 484.133,613.283 496.832,612.781 501.632,605.08 516.981,605.08 532.349,605.08 536.665,613.283 550.098,613.032 563.764,612.781 572.451,600.602 580.797,588.387 590.487,574.255 594.463,560.571 594.696,559.855 594.392,559.729 568.045,549.628 567.758,519.287 567.543,493.907 588.499,481.692 589.448,481.119z"/>
    </g>
  </g>
</svg>