<?xml version="1.0" encoding="utf-8"?>
<!-- Generator: flash2svg, http://dissentgraphics.com/tools/flash2svg -->
<svg id="Dragon-Ball" image-rendering="optimizeSpeed" baseProfile="basic" version="1.1" style="background-color:#FFFFFF" x="0px" y="0px" width="1024px" height="1024px" viewBox="0 0 1024 1024" enable-background="new 0 0 1024 1024" xmlns="http://www.w3.org/2000/svg" xmlns:xlink="http://www.w3.org/1999/xlink">
  <defs transform="matrix(1 0 0 1 0 0) "/>
  <g id="shadow">
    <g id="shape">
      <path id="path" fill="#000000" fill-opacity="0.09803921568627451" d="M969.6,351.25 Q961,330.4 950.2,310.4 C946.15,302.85 941.85,295.35 937.3,288 917.75,256.3 893.9,226.35 865.75,198.2 773.6,106.05 662.3,59.95 531.95,59.95 401.6,59.95 290.35,106.05 198.2,198.2 106.05,290.35 59.95,401.6 59.95,531.95 59.95,662.3 106.05,773.6 198.2,865.75 290.35,957.9 401.6,1003.95 531.95,1003.95 662.3,1003.95 773.6,957.9 865.75,865.75 916.5,814.95 953.3,758.35 976.1,696 994.65,645.15 1003.95,590.5 1003.95,531.95 1003.95,487.05 998.5,444.4 987.55,404 986.3,399.45 985,394.9 983.65,390.4 979.55,377.1 974.85,364.05 969.6,351.25z"/>
    </g>
  </g>
  <g id="bg">
    <g id="shape2">
      <path id="path1" fill="#E4E4E4" fill-opacity="1" d="M969.7,392 C968.6,387.65 967.35,383 966.05,378.4 965.2,375.4 964.3,372.35 963.35,369.35 L830,236 210,798 360.5,960.5 C399.7,973.5 440.8,981.05 484.1,983.3 484.25,983.3 484.35,983.3 484.5,983.3 486.7,983.4 488.85,983.5 490.6,983.6 497.2,983.85 503.15,984 509,984 510.2,984 511.1,984 512,984 522.3,984 532.5,983.7 542.1,983.2 544.6,983.05 546.85,982.9 549.05,982.75 569.25,981.3 588.95,978.7 607.75,975.05 615.7,973.5 623.55,971.75 631.15,969.9 711.95,949.6 783.3,908.3 845.8,845.8 894.4,797.2 930.2,743.3 953.15,684 971.6,636.35 981.8,585.2 983.7,530.5 983.9,524.45 984,518.25 984,512 984,511.35 984,510.65 984,510 984,509.65 984,509.35 984,509 983.95,504.35 983.85,499.75 983.75,494.75 983.7,494.25 983.7,493.5 983.7,492.7 982.45,458.05 977.8,424.5 969.7,392z"/>
      <path id="path2" fill="#FFFFFF" fill-opacity="1" d="M963.35,369.35 C961.55,363.55 959.65,357.8 957.6,352.05 951.15,333.8 943.45,316 934.45,298.4 930.65,291 926.5,283.45 922.15,276 901.85,241.5 876.35,208.8 845.8,178.25 773.2,105.65 688.65,61.6 592.15,46.2 575.9,43.6 559.35,41.8 542.1,40.85 532.4,40.3 522.25,40 512,40 502.65,40 493.4,40.25 484.1,40.75 365.75,46.85 263.8,92.7 178.25,178.25 Q40,316.5 40,512 C40,642.35 86.1,753.65 178.25,845.8 232.5,900.05 293.35,938.35 360.5,960.5 L210,798 830,236 963.35,369.35z"/>
    </g>
  </g>
  <g id="inner">
    <g id="Symbole.__203_1" overflow="visible">
      <g id="Calque.__204">
        <g id="shape24">
          <path id="path18" fill="#FF9900" fill-opacity="1" d="M807.689,210.121 C725.467,127.96 626.201,86.849 509.95,86.849 393.699,86.849 294.433,127.96 212.271,210.121 130.11,292.283 88.999,391.549 88.999,507.8 88.999,624.051 130.11,723.317 212.271,805.539 294.433,887.7 393.699,928.811 509.95,928.811 626.201,928.811 725.467,887.7 807.689,805.539 Q930.961,682.206 930.961,507.8 C930.961,391.549 889.85,292.283 807.689,210.121z"/>
        </g>
      </g>
    </g>
  </g>
  <g id="Calque.__201">
    <g id="shape6">
      <path id="path3" fill="#FF6600" fill-opacity="1" d="M683.75,358.55 L683.7,358.7 C683.45,358.75 683.15,358.95 682.85,359.25 682.45,359.65 682.2,359.9 682.15,359.95 681.95,360.05 681.75,360.25 681.55,360.5 681.35,360.8 681.2,361 681.05,361.15 680.6,361.6 680.1,362.2 679.55,362.95 679,363.85 678.55,364.5 678.3,364.95 678.1,365.2 677.95,365.4 677.9,365.55 677.75,365.8 677.65,366.05 677.6,366.25 677.4,366.45 677.2,366.75 676.95,367.2 676.75,367.65 676.6,367.95 676.45,368.2 674.5,371.95 672.7,376.2 671,380.95 669.7,384.45 668.25,388.85 666.7,394.2 666.65,394.35 666.6,394.55 666.6,394.8 666.45,395.15 666.3,395.6 666.15,396.15 665.9,397.1 665.8,397.55 665.8,397.6 665.65,397.8 665.55,398.05 665.5,398.4 665.45,398.6 665.4,398.9 665.35,399.25 665.15,399.55 665.1,399.85 665.15,400.1 664.9,400.35 664.8,400.75 664.85,401.25 664.7,401.3 664.65,401.45 664.65,401.6 664.65,401.7 664.65,401.85 664.65,402 664.55,402.1 664.5,402.25 664.45,402.5 664.4,402.65 664.4,402.8 664.35,403.05 664.2,403.3 664.15,403.5 664.15,403.7 L664,404.2 C663.95,404.55 663.9,404.75 663.9,404.9 663.8,405 663.7,405.1 663.55,405.2 663.3,405.15 663.1,405.15 662.9,405.2 662.7,405.15 662.55,405.05 662.4,405 662.2,405 662.05,405 661.95,404.95 661.8,404.95 661.7,404.95 661.55,405 661.4,405 661.25,405 661.15,404.95 661,404.95 660.85,405 660.75,405.05 660.5,404.8 660.25,404.75 660.1,404.85 659.65,404.8 659.2,404.8 658.75,404.85 658.45,404.6 658.1,404.55 657.65,404.7 657.25,404.65 656.95,404.6 656.75,404.55 656.4,404.5 656.05,404.5 655.8,404.55 654.5,404.4 652.8,404.3 650.7,404.25 648,404.15 646.3,404.1 645.55,404.05 643.65,404 642.25,403.95 641.4,403.95 639.85,403.95 638.45,404 637.25,404.15 634.3,404.15 631.7,404.3 629.4,404.65 626.15,404.9 623.5,405.35 621.35,406 619.8,406.25 618.6,406.6 617.75,407.15 617.2,407.3 616.7,407.45 616.25,407.7 615.75,407.95 615.3,408.25 614.95,408.6 614.55,408.75 614.15,409.05 613.75,409.45 613.6,409.6 613.3,409.95 612.75,410.55 611.65,412 611.45,414.05 612.15,416.6 L612.25,416.65 C612.3,417 612.45,417.45 612.7,417.95 L613.3,419.2 613.45,419.25 C613.6,419.6 613.8,420 614.1,420.45 614.25,420.7 614.5,421.05 614.85,421.6 614.9,421.65 615.05,421.75 615.2,422 615.3,422.25 615.45,422.35 615.6,422.35 615.75,422.7 616,423.05 616.4,423.5 616.9,424.05 617.2,424.4 617.35,424.55 617.6,424.75 618.1,425.35 618.9,426.3 619.55,427.05 620.1,427.55 620.65,427.8 621.1,428.35 621.65,428.9 622.3,429.5 622.55,429.75 623.15,430.25 624.1,431.05 629.65,435.9 635.85,440.55 642.65,444.9 643.3,445.55 644.05,446 644.85,446.3 645.1,446.6 645.5,446.9 646.1,447.15 646.2,447.3 646.35,447.4 646.6,447.5 646.65,447.55 646.8,447.65 647.15,447.8 647.25,447.95 647.35,448 647.4,448.05 647.5,448.15 647.6,448.2 647.75,448.15 647.8,448.3 647.85,448.4 648,448.45 648.1,448.5 648.25,448.6 648.4,448.65 648.45,448.75 648.5,448.85 648.65,448.9 648.7,448.9 648.85,448.95 649.05,449 649.1,449.1 649.15,449.2 649.3,449.3 649.4,449.35 649.55,449.4 649.7,449.45 L650.05,449.6 C650.2,449.75 650.25,449.85 650.25,449.9 650.3,450 650.25,450.1 650.2,450.25 650.1,450.3 650,450.35 649.95,450.5 649.9,450.65 649.9,450.75 649.9,450.9 649.75,451.05 649.7,451.2 649.75,451.4 649.6,451.45 649.5,451.5 649.45,451.65 649.4,451.8 649.4,451.9 649.45,452.05 649.3,452.2 649.2,452.35 649.2,452.55 649.1,452.6 649,452.75 648.95,452.9 648.9,453.05 648.9,453.2 648.95,453.35 648.7,453.4 648.6,453.65 648.55,454.05 648.4,454.2 648.3,454.4 648.25,454.65 648.15,454.9 648.1,455.1 648.1,455.3 647.7,455.75 647.4,456.45 647.25,457.35 647,457.65 646.8,458.1 646.6,458.7 646.35,459.45 646.15,459.9 646.05,460.1 643.75,466.15 641.8,472.1 640.2,477.85 640.15,478.2 639.9,479.1 639.55,480.45 639.25,481.5 639.1,482.4 639.05,483.1 L638.9,483.1 C638.75,484.05 638.55,485.5 638.2,487.35 637.95,489 637.9,490.4 637.95,491.6 637.85,492.45 637.85,493.35 637.95,494.25 637.9,494.45 637.9,494.75 638,495.1 638.1,495.55 638.15,495.85 638.15,496.05 638.15,496.1 638.2,496.3 638.25,496.75 638.3,497.05 638.4,497.25 638.55,497.4 638.6,497.95 638.75,498.5 639.1,499.1 639.3,499.45 639.65,499.9 640.15,500.55 640.75,501.3 641.55,501.8 642.6,502.1 643.45,502.4 644.45,502.5 645.5,502.45 645.8,502.45 646.25,502.4 646.85,502.3 647.45,502.2 647.9,502.15 648.2,502.15 L648.25,502 C649.35,501.95 650.15,501.7 650.7,501.35 650.85,501.35 650.95,501.35 651.1,501.3 651.15,501.25 651.3,501.2 651.5,501.15 653.6,500.4 655.8,499.4 658.1,498.2 658.15,498.15 658.35,498.05 658.8,497.85 659.1,497.7 659.3,497.55 659.4,497.4 659.95,497.15 660.55,496.85 661.25,496.45 662,496 662.6,495.65 662.95,495.4 665.05,494.15 667.3,492.7 669.7,491.05 671.45,489.85 673.6,488.3 676.15,486.4 676.3,486.3 677.35,485.55 679.25,484.1 680.5,483.15 681.5,482.35 682.2,481.65 682.95,481.3 683.55,480.8 684.05,480.15 684.6,479.9 684.95,479.65 685.15,479.3 685.3,479.25 685.5,479.1 685.7,478.95 685.95,478.7 686.1,478.55 686.15,478.5 686.3,478.45 686.4,478.4 686.55,478.25 686.6,478.2 686.65,478.05 686.8,477.85 687.1,477.85 687.4,477.65 687.65,477.2 687.85,477.1 688,477.05 688.05,477 688.2,476.95 688.25,476.85 688.3,476.7 688.5,476.6 688.7,476.6 688.95,476.65 689,476.8 689.05,476.95 689.15,477.05 689.3,477.2 689.4,477.2 689.55,477.15 689.6,477.35 689.75,477.5 689.9,477.55 690.15,478 690.5,478.25 690.9,478.3 690.95,478.45 691.05,478.6 691.2,478.7 691.3,478.85 691.4,478.95 691.55,479 691.6,479.15 691.75,479.25 691.9,479.35 692,479.4 692.15,479.5 692.4,479.65 692.5,479.85 692.65,480.05 692.9,480.25 693,480.3 693.2,480.45 693.55,480.65 693.65,480.85 693.85,481.05 694.1,481.25 694.25,481.35 694.45,481.5 694.75,481.75 694.9,481.8 695.1,482 695.4,482.3 695.65,482.55 695.9,482.75 696.15,482.8 696.2,482.95 696.3,483.05 696.45,483.15 702,487.7 707.3,491.6 712.45,494.9 L716.45,497.4 C718,498.3 719.35,499 720.6,499.5 L720.65,499.65 C722.4,500.45 724.05,501.1 725.5,501.6 725.8,501.75 726.2,501.85 726.7,501.85 L726.75,501.95 C727.05,502 727.55,502.1 728.2,502.25 728.75,502.35 729.25,502.4 729.65,502.35 L729.65,502.5 C731.7,502.55 733.45,502.1 734.8,501.2 735.4,500.65 735.9,500.05 736.35,499.3 736.8,498.55 737.05,497.8 737.15,497 737.6,495.75 737.8,494.65 737.65,493.75 737.7,492.6 737.7,490.95 737.65,488.7 L737.5,488.65 C737.55,487.95 737.45,487.1 737.3,486.1 737.05,484.45 736.9,483.65 736.9,483.6 736.3,480.15 735.45,476.45 734.3,472.5 733.45,469.5 732.35,465.9 730.9,461.65 730.75,461.3 730.45,460.5 730.1,459.35 729.75,458.4 729.45,457.7 729.2,457.15 729.1,456.75 728.95,456.25 728.7,455.6 728.4,454.85 728.2,454.35 728.15,454.1 L728,454.05 C727.95,453.7 727.9,453.5 727.85,453.35 727.75,453.05 727.65,452.85 727.5,452.75 727.45,452.5 727.45,452.35 727.45,452.25 727.4,452.05 727.3,451.95 727.2,451.9 727.15,451.7 727.15,451.55 727.1,451.45 727.05,451.25 727,451.15 726.85,451.1 726.85,450.9 726.8,450.7 726.65,450.55 726.65,450.4 726.65,450.25 726.6,450.1 726.55,449.9 726.5,449.8 726.35,449.75 726.4,449.6 726.3,449.4 726.15,449.25 726.2,449.15 726.15,449.05 726.1,448.9 726.05,448.75 725.95,448.65 725.85,448.6 L726,447.95 726.35,447.95 726.35,447.85 C726.55,447.85 726.7,447.8 726.85,447.65 727.05,447.5 727.15,447.45 727.2,447.45 727.35,447.4 727.45,447.3 727.5,447.15 727.65,447.15 727.85,447.1 728,447 728.15,446.9 728.25,446.8 728.3,446.65 728.4,446.6 728.55,446.55 728.75,446.45 728.95,446.4 729.1,446.3 729.15,446.2 729.3,446.15 729.45,446.05 729.7,445.9 729.95,445.8 730.1,445.7 730.15,445.55 730.65,445.4 731.1,445.15 731.45,444.7 731.8,444.6 732.15,444.4 732.6,444.15 732.65,444.1 732.95,443.85 733.6,443.4 L733.85,443.3 C737.4,441.05 740.45,439 743,437.2 746.2,434.9 749.1,432.65 751.7,430.45 752,430.2 752.5,429.8 753.15,429.3 753.7,428.85 754.15,428.4 754.45,427.95 754.7,427.9 754.9,427.75 755.15,427.5 755.5,427.1 755.75,426.9 755.8,426.85 756.95,425.7 757.75,424.85 758.2,424.4 759.1,423.45 759.8,422.55 760.35,421.75 760.7,421.5 761.05,421.05 761.4,420.5 761.55,420.2 761.8,419.75 762.15,419.1 762.4,418.75 762.65,418.35 762.85,417.95 763.1,417.5 763.25,417.05 763.3,416.65 L763.45,416.6 C763.75,415.55 763.85,414.55 763.8,413.55 763.75,412.45 763.45,411.5 762.9,410.65 762.5,410.2 762.15,409.8 761.9,409.5 761.45,409.1 761.05,408.8 760.65,408.6 760.1,408.05 759.3,407.6 758.25,407.25 757.4,406.85 756.85,406.6 756.7,406.55 756.1,406.3 755.55,406.2 755.05,406.15 754.85,406 754.6,405.9 754.3,405.8 753.95,405.75 753.65,405.7 753.45,405.65 752.3,405.35 751.4,405.15 750.85,405.05 749.8,404.8 748.9,404.7 748.15,404.7 747.3,404.45 746.25,404.3 744.9,404.15 743.45,404.05 742.35,403.95 741.65,403.85 740.9,403.8 739.8,403.7 738.45,403.65 736.95,403.6 735.9,403.55 735.25,403.5 731.5,403.5 728.7,403.5 726.85,403.5 723.55,403.5 720.75,403.55 718.45,403.7 718.2,403.65 717.95,403.7 717.6,403.75 717.25,403.8 717,403.85 716.8,403.9 716.6,403.85 716.35,403.8 716.05,403.8 715.7,403.85 715.5,403.85 715.35,403.85 715.2,403.8 715.05,403.8 714.9,403.85 714.75,403.9 714.6,403.95 714.5,404.05 L713.35,404.05 C713.25,404 713.1,403.95 712.95,404 712.75,404.05 712.6,404.05 712.55,404.05 712.35,404 712.2,403.95 712.15,403.95 711.95,404 711.85,404.05 711.85,404.2 711.65,404.15 711.45,404.15 711.2,404.2 L710.7,404.2 710.25,403.9 C710.3,403.7 710.3,403.55 710.3,403.45 710.3,403.3 710.25,403.2 710.1,403.15 L710.1,402.7 C710.1,402.5 710.05,402.25 709.9,401.95 709.85,401.7 709.85,401.55 709.8,401.45 709.8,401.25 709.75,401.1 709.65,401.05 709.65,400.7 709.6,400.35 709.45,400.1 709.45,399.95 709.45,399.85 709.4,399.7 709.35,399.5 709.3,399.35 709.25,399.3 709.2,399 709.2,398.8 709.2,398.75 709.15,398.5 709.05,398.35 708.95,398.25 708.95,397.6 708.85,397.1 708.6,396.65 708.4,395.45 708.15,394.5 707.85,393.8 706.55,388.3 704.65,382.3 702.2,375.75 701.25,373.4 700.6,371.8 700.2,370.9 699.4,369.1 698.6,367.55 697.8,366.25 697.8,366.05 697.75,365.85 697.6,365.65 697.45,365.4 697.3,365.25 697.25,365.15 696.7,364.25 696.3,363.6 696,363.15 695.5,362.4 695,361.75 694.55,361.3 L694.5,361 C694.35,360.9 694,360.5 693.35,359.85 692.9,359.35 692.45,359 692.05,358.85 691.7,358.4 691.15,358 690.45,357.7 690.05,357.55 689.4,357.35 688.55,357.1 687.75,357 686.9,357.1 686,357.35 685.25,357.6 684.5,358 683.75,358.55z M690.45,523.75 C690.05,523.6 689.4,523.4 688.55,523.15 687.75,523.05 686.9,523.15 686,523.4 685.25,523.65 684.5,524.05 683.75,524.6 L683.7,524.75 C683.45,524.8 683.15,525 682.85,525.3 682.45,525.7 682.2,525.95 682.15,526 681.95,526.1 681.75,526.3 681.55,526.55 681.35,526.85 681.2,527.05 681.05,527.2 680.6,527.65 680.1,528.25 679.55,529 679,529.9 678.55,530.55 678.3,531 678.1,531.25 677.95,531.45 677.9,531.6 677.75,531.85 677.65,532.1 677.6,532.3 677.4,532.5 677.2,532.8 676.95,533.25 676.75,533.7 676.6,534 676.45,534.25 674.5,538 672.7,542.25 671,547 669.7,550.5 668.25,554.9 666.7,560.25 666.65,560.4 666.6,560.6 666.6,560.85 666.45,561.2 666.3,561.65 666.15,562.2 665.9,563.15 665.8,563.6 665.8,563.65 665.65,563.85 665.55,564.1 665.5,564.45 665.45,564.65 665.4,564.95 665.35,565.3 665.15,565.6 665.1,565.9 665.15,566.15 664.9,566.4 664.8,566.8 664.85,567.3 664.7,567.35 664.65,567.5 664.65,567.65 664.65,567.75 664.65,567.9 664.65,568.05 664.55,568.15 664.5,568.3 664.45,568.55 664.4,568.7 664.4,568.85 664.35,569.1 664.2,569.35 664.15,569.55 664.15,569.75 L664,570.25 C663.95,570.6 663.9,570.8 663.9,570.95 663.8,571.05 663.7,571.15 663.55,571.25 663.3,571.2 663.1,571.2 662.9,571.25 662.7,571.2 662.55,571.1 662.4,571.05 662.2,571.05 662.05,571.05 661.95,571 661.8,571 661.7,571 661.55,571.05 661.4,571.05 661.25,571.05 661.15,571 661,571 660.85,571.05 660.75,571.1 660.5,570.85 660.25,570.8 660.1,570.9 659.65,570.85 659.2,570.85 658.75,570.9 658.45,570.65 658.1,570.6 657.65,570.75 657.25,570.7 656.95,570.65 656.75,570.6 656.4,570.55 656.05,570.55 655.8,570.6 654.5,570.45 652.8,570.35 650.7,570.3 648,570.2 646.3,570.15 645.55,570.1 643.65,570.05 642.25,570 641.4,570 639.85,570 638.45,570.05 637.25,570.2 634.3,570.2 631.7,570.35 629.4,570.7 626.15,570.95 623.5,571.4 621.35,572.05 619.8,572.3 618.6,572.65 617.75,573.2 617.2,573.35 616.7,573.5 616.25,573.75 615.75,574 615.3,574.3 614.95,574.65 614.55,574.8 614.15,575.1 613.75,575.5 613.6,575.65 613.3,576 612.75,576.6 611.65,578.05 611.45,580.1 612.15,582.65 L612.25,582.7 C612.3,583.05 612.45,583.5 612.7,584 L613.3,585.25 613.45,585.3 C613.6,585.65 613.8,586.05 614.1,586.5 614.25,586.75 614.5,587.1 614.85,587.65 614.9,587.7 615.05,587.8 615.2,588.05 615.3,588.3 615.45,588.4 615.6,588.4 615.75,588.75 616,589.1 616.4,589.55 616.9,590.1 617.2,590.45 617.35,590.6 617.6,590.8 618.1,591.4 618.9,592.35 619.55,593.1 620.1,593.6 620.65,593.85 621.1,594.4 621.65,594.95 622.3,595.55 622.55,595.8 623.15,596.3 624.1,597.1 629.65,601.95 635.85,606.6 642.65,610.95 643.3,611.6 644.05,612.05 644.85,612.35 645.1,612.65 645.5,612.95 646.1,613.2 646.2,613.35 646.35,613.45 646.6,613.55 646.65,613.6 646.8,613.7 647.15,613.85 647.25,614 647.35,614.05 647.4,614.1 647.5,614.2 647.6,614.25 647.75,614.2 647.8,614.35 647.85,614.45 648,614.5 648.1,614.55 648.25,614.65 648.4,614.7 648.45,614.8 648.5,614.9 648.65,614.95 648.7,614.95 648.85,615 649.05,615.05 649.1,615.15 649.15,615.25 649.3,615.35 649.4,615.4 649.55,615.45 649.7,615.5 L650.05,615.65 C650.2,615.8 650.25,615.9 650.25,615.95 650.3,616.05 650.25,616.15 650.2,616.3 650.1,616.35 650,616.4 649.95,616.55 649.9,616.7 649.9,616.8 649.9,616.95 649.75,617.1 649.7,617.25 649.75,617.45 649.6,617.5 649.5,617.55 649.45,617.7 649.4,617.85 649.4,617.95 649.45,618.1 649.3,618.25 649.2,618.4 649.2,618.6 649.1,618.65 649,618.8 648.95,618.95 648.9,619.1 648.9,619.25 648.95,619.4 648.7,619.45 648.6,619.7 648.55,620.1 648.4,620.25 648.3,620.45 648.25,620.7 648.15,620.95 648.1,621.15 648.1,621.35 647.7,621.8 647.4,622.5 647.25,623.4 647,623.7 646.8,624.15 646.6,624.75 646.35,625.5 646.15,625.95 646.05,626.15 643.75,632.2 641.8,638.15 640.2,643.9 640.15,644.25 639.9,645.15 639.55,646.5 639.25,647.55 639.1,648.45 639.05,649.15 L638.9,649.15 C638.75,650.1 638.55,651.55 638.2,653.4 637.95,655.05 637.9,656.45 637.95,657.65 637.85,658.5 637.85,659.4 637.95,660.3 637.9,660.5 637.9,660.8 638,661.15 638.1,661.6 638.15,661.9 638.15,662.1 638.15,662.15 638.2,662.35 638.25,662.8 638.3,663.1 638.4,663.3 638.55,663.45 638.6,664 638.75,664.55 639.1,665.15 639.3,665.5 639.65,665.95 640.15,666.6 640.75,667.35 641.55,667.85 642.6,668.15 643.45,668.45 644.45,668.55 645.5,668.5 645.8,668.5 646.25,668.45 646.85,668.35 647.45,668.25 647.9,668.2 648.2,668.2 L648.25,668.05 C649.35,668 650.15,667.75 650.7,667.4 650.85,667.4 650.95,667.4 651.1,667.35 651.15,667.3 651.3,667.25 651.5,667.2 653.6,666.45 655.8,665.45 658.1,664.25 658.15,664.2 658.35,664.1 658.8,663.9 659.1,663.75 659.3,663.6 659.4,663.45 659.95,663.2 660.55,662.9 661.25,662.5 662,662.05 662.6,661.7 662.95,661.45 665.05,660.2 667.3,658.75 669.7,657.1 671.45,655.9 673.6,654.35 676.15,652.45 676.3,652.35 677.35,651.6 679.25,650.15 680.5,649.2 681.5,648.4 682.2,647.7 682.95,647.35 683.55,646.85 684.05,646.2 684.6,645.95 684.95,645.7 685.15,645.35 685.3,645.3 685.5,645.15 685.7,645 685.95,644.75 686.1,644.6 686.15,644.55 686.3,644.5 686.4,644.45 686.55,644.3 686.6,644.25 686.65,644.1 686.8,643.9 687.1,643.9 687.4,643.7 687.65,643.25 687.85,643.15 688,643.1 688.05,643.05 688.2,643 688.25,642.9 688.3,642.75 688.5,642.65 688.7,642.65 688.95,642.7 689,642.85 689.05,643 689.15,643.1 689.3,643.25 689.4,643.25 689.55,643.2 689.6,643.4 689.75,643.55 689.9,643.6 690.15,644.05 690.5,644.3 690.9,644.35 690.95,644.5 691.05,644.65 691.2,644.75 691.3,644.9 691.4,645 691.55,645.05 691.6,645.2 691.75,645.3 691.9,645.4 692,645.45 692.15,645.55 692.4,645.7 692.5,645.9 692.65,646.1 692.9,646.3 693,646.35 693.2,646.5 693.55,646.7 693.65,646.9 693.85,647.1 694.1,647.3 694.25,647.4 694.45,647.55 694.75,647.8 694.9,647.85 695.1,648.05 695.4,648.35 695.65,648.6 695.9,648.8 696.15,648.85 696.2,649 696.3,649.1 696.45,649.2 702,653.75 707.3,657.65 712.45,660.95 L716.45,663.45 C718,664.35 719.35,665.05 720.6,665.55 L720.65,665.7 C722.4,666.5 724.05,667.15 725.5,667.65 725.8,667.8 726.2,667.9 726.7,667.9 L726.75,668 C727.05,668.05 727.55,668.15 728.2,668.3 728.75,668.4 729.25,668.45 729.65,668.4 L729.65,668.55 C731.7,668.6 733.45,668.15 734.8,667.25 735.4,666.7 735.9,666.1 736.35,665.35 736.8,664.6 737.05,663.85 737.15,663.05 737.6,661.8 737.8,660.7 737.65,659.8 737.7,658.65 737.7,657 737.65,654.75 L737.5,654.7 C737.55,654 737.45,653.15 737.3,652.15 737.05,650.5 736.9,649.7 736.9,649.65 736.3,646.2 735.45,642.5 734.3,638.55 733.45,635.55 732.35,631.95 730.9,627.7 730.75,627.35 730.45,626.55 730.1,625.4 729.75,624.45 729.45,623.75 729.2,623.2 729.1,622.8 728.95,622.3 728.7,621.65 728.4,620.9 728.2,620.4 728.15,620.15 L728,620.1 C727.95,619.75 727.9,619.55 727.85,619.4 727.75,619.1 727.65,618.9 727.5,618.8 727.45,618.55 727.45,618.4 727.45,618.3 727.4,618.1 727.3,618 727.2,617.95 727.15,617.75 727.15,617.6 727.1,617.5 727.05,617.3 727,617.2 726.85,617.15 726.85,616.95 726.8,616.75 726.65,616.6 726.65,616.45 726.65,616.3 726.6,616.15 726.55,615.95 726.5,615.85 726.35,615.8 726.4,615.65 726.3,615.45 726.15,615.3 726.2,615.2 726.15,615.1 726.1,614.95 726.05,614.8 725.95,614.7 725.85,614.65 L726,614 726.35,614 726.35,613.9 C726.55,613.9 726.7,613.85 726.85,613.7 727.05,613.55 727.15,613.5 727.2,613.5 727.35,613.45 727.45,613.35 727.5,613.2 727.65,613.2 727.85,613.15 728,613.05 728.15,612.95 728.25,612.85 728.3,612.7 728.4,612.65 728.55,612.6 728.75,612.5 728.95,612.45 729.1,612.35 729.15,612.25 729.3,612.2 729.45,612.1 729.7,611.95 729.95,611.85 730.1,611.75 730.15,611.6 730.65,611.45 731.1,611.2 731.45,610.75 731.8,610.65 732.15,610.45 732.6,610.2 732.65,610.15 732.95,609.9 733.6,609.45 L733.85,609.35 C737.4,607.1 740.45,605.05 743,603.25 746.2,600.95 749.1,598.7 751.7,596.5 752,596.25 752.5,595.85 753.15,595.35 753.7,594.9 754.15,594.45 754.45,594 754.7,593.95 754.9,593.8 755.15,593.55 755.5,593.15 755.75,592.95 755.8,592.9 756.95,591.75 757.75,590.9 758.2,590.45 759.1,589.5 759.8,588.6 760.35,587.8 760.7,587.55 761.05,587.1 761.4,586.55 761.55,586.25 761.8,585.8 762.15,585.15 762.4,584.8 762.65,584.4 762.85,584 763.1,583.55 763.25,583.1 763.3,582.7 L763.45,582.65 C763.75,581.6 763.85,580.6 763.8,579.6 763.75,578.5 763.45,577.55 762.9,576.7 762.5,576.25 762.15,575.85 761.9,575.55 761.45,575.15 761.05,574.85 760.65,574.65 760.1,574.1 759.3,573.65 758.25,573.3 757.4,572.9 756.85,572.65 756.7,572.6 756.1,572.35 755.55,572.25 755.05,572.2 754.85,572.05 754.6,571.95 754.3,571.85 753.95,571.8 753.65,571.75 753.45,571.7 752.3,571.4 751.4,571.2 750.85,571.1 749.8,570.85 748.9,570.75 748.15,570.75 747.3,570.5 746.25,570.35 744.9,570.2 743.45,570.1 742.35,570 741.65,569.9 740.9,569.85 739.8,569.75 738.45,569.7 736.95,569.65 735.9,569.6 735.25,569.55 731.5,569.55 728.7,569.55 726.85,569.55 723.55,569.55 720.75,569.6 718.45,569.75 718.2,569.7 717.95,569.75 717.6,569.8 717.25,569.85 717,569.9 716.8,569.95 716.6,569.9 716.35,569.85 716.05,569.85 715.7,569.9 715.5,569.9 715.35,569.9 715.2,569.85 715.05,569.85 714.9,569.9 714.75,569.95 714.6,570 714.5,570.1 L713.35,570.1 C713.25,570.05 713.1,570 712.95,570.05 712.75,570.1 712.6,570.1 712.55,570.1 712.35,570.05 712.2,570 712.15,570 711.95,570.05 711.85,570.1 711.85,570.25 711.65,570.2 711.45,570.2 711.2,570.25 L710.7,570.25 710.25,569.95 C710.3,569.75 710.3,569.6 710.3,569.5 710.3,569.35 710.25,569.25 710.1,569.2 L710.1,568.75 C710.1,568.55 710.05,568.3 709.9,568 709.85,567.75 709.85,567.6 709.8,567.5 709.8,567.3 709.75,567.15 709.65,567.1 709.65,566.75 709.6,566.4 709.45,566.15 709.45,566 709.45,565.9 709.4,565.75 709.35,565.55 709.3,565.4 709.25,565.35 709.2,565.05 709.2,564.85 709.2,564.8 709.15,564.55 709.05,564.4 708.95,564.3 708.95,563.65 708.85,563.15 708.6,562.7 708.4,561.5 708.15,560.55 707.85,559.85 706.55,554.35 704.65,548.35 702.2,541.8 701.25,539.45 700.6,537.85 700.2,536.95 699.4,535.15 698.6,533.6 697.8,532.3 697.8,532.1 697.75,531.9 697.6,531.7 697.45,531.45 697.3,531.3 697.25,531.2 696.7,530.3 696.3,529.65 696,529.2 695.5,528.45 695,527.8 694.55,527.35 L694.5,527.05 C694.35,526.95 694,526.55 693.35,525.9 692.9,525.4 692.45,525.05 692.05,524.9 691.7,524.45 691.15,524.05 690.45,523.75z M350.4,363.45 C349.9,362.7 349.4,362.05 348.95,361.6 L348.9,361.3 C348.75,361.2 348.4,360.8 347.75,360.15 347.3,359.65 346.85,359.3 346.45,359.15 346.1,358.7 345.55,358.3 344.85,358 344.45,357.85 343.8,357.65 342.95,357.4 342.15,357.3 341.3,357.4 340.4,357.65 339.65,357.9 338.9,358.3 338.15,358.85 L338.1,359 C337.85,359.05 337.55,359.25 337.25,359.55 336.85,359.95 336.6,360.2 336.55,360.25 336.35,360.35 336.15,360.55 335.95,360.8 335.75,361.1 335.6,361.3 335.45,361.45 335,361.9 334.5,362.5 333.95,363.25 333.4,364.15 332.95,364.8 332.7,365.25 332.5,365.5 332.35,365.7 332.3,365.85 332.15,366.1 332.05,366.35 332,366.55 331.8,366.75 331.6,367.05 331.35,367.5 331.15,367.95 331,368.25 330.85,368.5 328.9,372.25 327.1,376.5 325.4,381.25 324.1,384.75 322.65,389.15 321.1,394.5 321.05,394.65 321,394.85 321,395.1 320.85,395.45 320.7,395.9 320.55,396.45 320.3,397.4 320.2,397.85 320.2,397.9 320.05,398.1 319.95,398.35 319.9,398.7 319.85,398.9 319.8,399.2 319.75,399.55 319.55,399.85 319.5,400.15 319.55,400.4 319.3,400.65 319.2,401.05 319.25,401.55 319.1,401.6 319.05,401.75 319.05,401.9 319.05,402 319.05,402.15 319.05,402.3 318.95,402.4 318.9,402.55 318.85,402.8 318.8,402.95 318.8,403.1 318.75,403.35 318.6,403.6 318.55,403.8 318.55,404 L318.4,404.5 C318.35,404.85 318.3,405.05 318.3,405.2 318.2,405.3 318.1,405.4 317.95,405.5 317.7,405.45 317.5,405.45 317.3,405.5 317.1,405.45 316.95,405.35 316.8,405.3 316.6,405.3 316.45,405.3 316.35,405.25 316.2,405.25 316.1,405.25 315.95,405.3 315.8,405.3 315.65,405.3 315.55,405.25 315.4,405.25 315.25,405.3 315.15,405.35 314.9,405.1 314.65,405.05 314.5,405.15 314.05,405.1 313.6,405.1 313.15,405.15 312.85,404.9 312.5,404.85 312.05,405 311.65,404.95 311.35,404.9 311.15,404.85 310.8,404.8 310.45,404.8 310.2,404.85 308.9,404.7 307.2,404.6 305.1,404.55 302.4,404.45 300.7,404.4 299.95,404.35 298.05,404.3 296.65,404.25 295.8,404.25 294.25,404.25 292.85,404.3 291.65,404.45 288.7,404.45 286.1,404.6 283.8,404.95 280.55,405.2 277.9,405.65 275.75,406.3 274.2,406.55 273,406.9 272.15,407.45 271.6,407.6 271.1,407.75 270.65,408 270.15,408.25 269.7,408.55 269.35,408.9 268.95,409.05 268.55,409.35 268.15,409.75 268,409.9 267.7,410.25 267.15,410.85 266.05,412.3 265.85,414.35 266.55,416.9 L266.65,416.95 C266.7,417.3 266.85,417.75 267.1,418.25 L267.7,419.5 267.85,419.55 C268,419.9 268.2,420.3 268.5,420.75 268.65,421 268.9,421.35 269.25,421.9 269.3,421.95 269.45,422.05 269.6,422.3 269.7,422.55 269.85,422.65 270,422.65 270.15,423 270.4,423.35 270.8,423.8 271.3,424.35 271.6,424.7 271.75,424.85 272,425.05 272.5,425.65 273.3,426.6 273.95,427.35 274.5,427.85 275.05,428.1 275.5,428.65 276.05,429.2 276.7,429.8 276.95,430.05 277.55,430.55 278.5,431.35 284.05,436.2 290.25,440.85 297.05,445.2 297.7,445.85 298.45,446.3 299.25,446.6 299.5,446.9 299.9,447.2 300.5,447.45 300.6,447.6 300.75,447.7 301,447.8 301.05,447.85 301.2,447.95 301.55,448.1 301.65,448.25 301.75,448.3 301.8,448.35 301.9,448.45 302,448.5 302.15,448.45 302.2,448.6 302.25,448.7 302.4,448.75 302.5,448.8 302.65,448.9 302.8,448.95 302.85,449.05 302.9,449.15 303.05,449.2 303.1,449.2 303.25,449.25 303.45,449.3 303.5,449.4 303.55,449.5 303.7,449.6 303.8,449.65 303.95,449.7 304.1,449.75 L304.45,449.9 C304.6,450.05 304.65,450.15 304.65,450.2 304.7,450.3 304.65,450.4 304.6,450.55 304.5,450.6 304.4,450.65 304.35,450.8 304.3,450.95 304.3,451.05 304.3,451.2 304.15,451.35 304.1,451.5 304.15,451.7 304,451.75 303.9,451.8 303.85,451.95 303.8,452.1 303.8,452.2 303.85,452.35 303.7,452.5 303.6,452.65 303.6,452.85 303.5,452.9 303.4,453.05 303.35,453.2 303.3,453.35 303.3,453.5 303.35,453.65 303.1,453.7 303,453.95 302.95,454.35 302.8,454.5 302.7,454.7 302.65,454.95 302.55,455.2 302.5,455.4 302.5,455.6 302.1,456.05 301.8,456.75 301.65,457.65 301.4,457.95 301.2,458.4 301,459 300.75,459.75 300.55,460.2 300.45,460.4 298.15,466.45 296.2,472.4 294.6,478.15 294.55,478.5 294.3,479.4 293.95,480.75 293.65,481.8 293.5,482.7 293.45,483.4 L293.3,483.4 C293.15,484.35 292.95,485.8 292.6,487.65 292.35,489.3 292.3,490.7 292.35,491.9 292.25,492.75 292.25,493.65 292.35,494.55 292.3,494.75 292.3,495.05 292.4,495.4 292.5,495.85 292.55,496.15 292.55,496.35 292.55,496.4 292.6,496.6 292.65,497.05 292.7,497.35 292.8,497.55 292.95,497.7 293,498.25 293.15,498.8 293.5,499.4 293.7,499.75 294.05,500.2 294.55,500.85 295.15,501.6 295.95,502.1 297,502.4 297.85,502.7 298.85,502.8 299.9,502.75 300.2,502.75 300.65,502.7 301.25,502.6 301.85,502.5 302.3,502.45 302.6,502.45 L302.65,502.3 C303.75,502.25 304.55,502 305.1,501.65 305.25,501.65 305.35,501.65 305.5,501.6 305.55,501.55 305.7,501.5 305.9,501.45 308,500.7 310.2,499.7 312.5,498.5 312.55,498.45 312.75,498.35 313.2,498.15 313.5,498 313.7,497.85 313.8,497.7 314.35,497.45 314.95,497.15 315.65,496.75 316.4,496.3 317,495.95 317.35,495.7 319.45,494.45 321.7,493 324.1,491.35 325.85,490.15 328,488.6 330.55,486.7 330.7,486.6 331.75,485.85 333.65,484.4 334.9,483.45 335.9,482.65 336.6,481.95 337.35,481.6 337.95,481.1 338.45,480.45 339,480.2 339.35,479.95 339.55,479.6 339.7,479.55 339.9,479.4 340.1,479.25 340.35,479 340.5,478.85 340.55,478.8 340.7,478.75 340.8,478.7 340.95,478.55 341,478.5 341.05,478.35 341.2,478.15 341.5,478.15 341.8,477.95 342.05,477.5 342.25,477.4 342.4,477.35 342.45,477.3 342.6,477.25 342.65,477.15 342.7,477 342.9,476.9 343.1,476.9 343.35,476.95 343.4,477.1 343.45,477.25 343.55,477.35 343.7,477.5 343.8,477.5 343.95,477.45 344,477.65 344.15,477.8 344.3,477.85 344.55,478.3 344.9,478.55 345.3,478.6 345.35,478.75 345.45,478.9 345.6,479 345.7,479.15 345.8,479.25 345.95,479.3 346,479.45 346.15,479.55 346.3,479.65 346.4,479.7 346.55,479.8 346.8,479.95 346.9,480.15 347.05,480.35 347.3,480.55 347.4,480.6 347.6,480.75 347.95,480.95 348.05,481.15 348.25,481.35 348.5,481.55 348.65,481.65 348.85,481.8 349.15,482.05 349.3,482.1 349.5,482.3 349.8,482.6 350.05,482.85 350.3,483.05 350.55,483.1 350.6,483.25 350.7,483.35 350.85,483.45 356.4,488 361.7,491.9 366.85,495.2 L370.85,497.7 C372.4,498.6 373.75,499.3 375,499.8 L375.05,499.95 C376.8,500.75 378.45,501.4 379.9,501.9 380.2,502.05 380.6,502.15 381.1,502.15 L381.15,502.25 C381.45,502.3 381.95,502.4 382.6,502.55 383.15,502.65 383.65,502.7 384.05,502.65 L384.05,502.8 C386.1,502.85 387.85,502.4 389.2,501.5 389.8,500.95 390.3,500.35 390.75,499.6 391.2,498.85 391.45,498.1 391.55,497.3 392,496.05 392.2,494.95 392.05,494.05 392.1,492.9 392.1,491.25 392.05,489 L391.9,488.95 C391.95,488.25 391.85,487.4 391.7,486.4 391.45,484.75 391.3,483.95 391.3,483.9 390.7,480.45 389.85,476.75 388.7,472.8 387.85,469.8 386.75,466.2 385.3,461.95 385.15,461.6 384.85,460.8 384.5,459.65 384.15,458.7 383.85,458 383.6,457.45 383.5,457.05 383.35,456.55 383.1,455.9 382.8,455.15 382.6,454.65 382.55,454.4 L382.4,454.35 C382.35,454 382.3,453.8 382.25,453.65 382.15,453.35 382.05,453.15 381.9,453.05 381.85,452.8 381.85,452.65 381.85,452.55 381.8,452.35 381.7,452.25 381.6,452.2 381.55,452 381.55,451.85 381.5,451.75 381.45,451.55 381.4,451.45 381.25,451.4 381.25,451.2 381.2,451 381.05,450.85 381.05,450.7 381.05,450.55 381,450.4 380.95,450.2 380.9,450.1 380.75,450.05 380.8,449.9 380.7,449.7 380.55,449.55 380.6,449.45 380.55,449.35 380.5,449.2 380.45,449.05 380.35,448.95 380.25,448.9 L380.4,448.25 380.75,448.25 380.75,448.15 C380.95,448.15 381.1,448.1 381.25,447.95 381.45,447.8 381.55,447.75 381.6,447.75 381.75,447.7 381.85,447.6 381.9,447.45 382.05,447.45 382.25,447.4 382.4,447.3 382.55,447.2 382.65,447.1 382.7,446.95 382.8,446.9 382.95,446.85 383.15,446.75 383.35,446.7 383.5,446.6 383.55,446.5 383.7,446.45 383.85,446.35 384.1,446.2 384.35,446.1 384.5,446 384.55,445.85 385.05,445.7 385.5,445.45 385.85,445 386.2,444.9 386.55,444.7 387,444.45 387.05,444.4 387.35,444.15 388,443.7 L388.25,443.6 C391.8,441.35 394.85,439.3 397.4,437.5 400.6,435.2 403.5,432.95 406.1,430.75 406.4,430.5 406.9,430.1 407.55,429.6 408.1,429.15 408.55,428.7 408.85,428.25 409.1,428.2 409.3,428.05 409.55,427.8 409.9,427.4 410.15,427.2 410.2,427.15 411.35,426 412.15,425.15 412.6,424.7 413.5,423.75 414.2,422.85 414.75,422.05 415.1,421.8 415.45,421.35 415.8,420.8 415.95,420.5 416.2,420.05 416.55,419.4 416.8,419.05 417.05,418.65 417.25,418.25 417.5,417.8 417.65,417.35 417.7,416.95 L417.85,416.9 C418.15,415.85 418.25,414.85 418.2,413.85 418.15,412.75 417.85,411.8 417.3,410.95 416.9,410.5 416.55,410.1 416.3,409.8 415.85,409.4 415.45,409.1 415.05,408.9 414.5,408.35 413.7,407.9 412.65,407.55 411.8,407.15 411.25,406.9 411.1,406.85 410.5,406.6 409.95,406.5 409.45,406.45 409.25,406.3 409,406.2 408.7,406.1 408.35,406.05 408.05,406 407.85,405.95 406.7,405.65 405.8,405.45 405.25,405.35 404.2,405.1 403.3,405 402.55,405 401.7,404.75 400.65,404.6 399.3,404.45 397.85,404.35 396.75,404.25 396.05,404.15 395.3,404.1 394.2,404 392.85,403.95 391.35,403.9 390.3,403.85 389.65,403.8 385.9,403.8 383.1,403.8 381.25,403.8 377.95,403.8 375.15,403.85 372.85,404 372.6,403.95 372.35,404 372,404.05 371.65,404.1 371.4,404.15 371.2,404.2 371,404.15 370.75,404.1 370.45,404.1 370.1,404.15 369.9,404.15 369.75,404.15 369.6,404.1 369.45,404.1 369.3,404.15 369.15,404.2 369,404.25 368.9,404.35 L367.75,404.35 C367.65,404.3 367.5,404.25 367.35,404.3 367.15,404.35 367,404.35 366.95,404.35 366.75,404.3 366.6,404.25 366.55,404.25 366.35,404.3 366.25,404.35 366.25,404.5 366.05,404.45 365.85,404.45 365.6,404.5 L365.1,404.5 364.65,404.2 C364.7,404 364.7,403.85 364.7,403.75 364.7,403.6 364.65,403.5 364.5,403.45 L364.5,403 C364.5,402.8 364.45,402.55 364.3,402.25 364.25,402 364.25,401.85 364.2,401.75 364.2,401.55 364.15,401.4 364.05,401.35 364.05,401 364,400.65 363.85,400.4 363.85,400.25 363.85,400.15 363.8,400 363.75,399.8 363.7,399.65 363.65,399.6 363.6,399.3 363.6,399.1 363.6,399.05 363.55,398.8 363.45,398.65 363.35,398.55 363.35,397.9 363.25,397.4 363,396.95 362.8,395.75 362.55,394.8 362.25,394.1 360.95,388.6 359.05,382.6 356.6,376.05 355.65,373.7 355,372.1 354.6,371.2 353.8,369.4 353,367.85 352.2,366.55 352.2,366.35 352.15,366.15 352,365.95 351.85,365.7 351.7,365.55 351.65,365.45 351.1,364.55 350.7,363.9 350.4,363.45z M446.8,344.35 C447.45,345.1 448,345.6 448.55,345.85 449,346.4 449.55,346.95 450.2,347.55 450.45,347.8 451.05,348.3 452,349.1 457.55,353.95 463.75,358.6 470.55,362.95 471.2,363.6 471.95,364.05 472.75,364.35 473,364.65 473.4,364.95 474,365.2 474.1,365.35 474.25,365.45 474.5,365.55 474.55,365.6 474.7,365.7 475.05,365.85 475.15,366 475.25,366.05 475.3,366.1 475.4,366.2 475.5,366.25 475.65,366.2 475.7,366.35 475.75,366.45 475.9,366.5 476,366.55 476.15,366.65 476.3,366.7 476.35,366.8 476.4,366.9 476.55,366.95 476.6,366.95 476.75,367 476.95,367.05 477,367.15 477.05,367.25 477.2,367.35 477.3,367.4 477.45,367.45 477.6,367.5 L477.95,367.65 C478.1,367.8 478.15,367.9 478.15,367.95 478.2,368.05 478.15,368.15 478.1,368.3 478,368.35 477.9,368.4 477.85,368.55 477.8,368.7 477.8,368.8 477.8,368.95 477.65,369.1 477.6,369.25 477.65,369.45 477.5,369.5 477.4,369.55 477.35,369.7 477.3,369.85 477.3,369.95 477.35,370.1 477.2,370.25 477.1,370.4 477.1,370.6 477,370.65 476.9,370.8 476.85,370.95 476.8,371.1 476.8,371.25 476.85,371.4 476.6,371.45 476.5,371.7 476.45,372.1 476.3,372.25 476.2,372.45 476.15,372.7 476.05,372.95 476,373.15 476,373.35 475.6,373.8 475.3,374.5 475.15,375.4 474.9,375.7 474.7,376.15 474.5,376.75 474.25,377.5 474.05,377.95 473.95,378.15 471.65,384.2 469.7,390.15 468.1,395.9 468.05,396.25 467.8,397.15 467.45,398.5 467.15,399.55 467,400.45 466.95,401.15 L466.8,401.15 C466.65,402.1 466.45,403.55 466.1,405.4 465.85,407.05 465.8,408.45 465.85,409.65 465.75,410.5 465.75,411.4 465.85,412.3 465.8,412.5 465.8,412.8 465.9,413.15 466,413.6 466.05,413.9 466.05,414.1 466.05,414.15 466.1,414.35 466.15,414.8 466.2,415.1 466.3,415.3 466.45,415.45 466.5,416 466.65,416.55 467,417.15 467.2,417.5 467.55,417.95 468.05,418.6 468.65,419.35 469.45,419.85 470.5,420.15 471.35,420.45 472.35,420.55 473.4,420.5 473.7,420.5 474.15,420.45 474.75,420.35 475.35,420.25 475.8,420.2 476.1,420.2 L476.15,420.05 C477.25,420 478.05,419.75 478.6,419.4 478.75,419.4 478.85,419.4 479,419.35 479.05,419.3 479.2,419.25 479.4,419.2 481.5,418.45 483.7,417.45 486,416.25 486.05,416.2 486.25,416.1 486.7,415.9 487,415.75 487.2,415.6 487.3,415.45 487.85,415.2 488.45,414.9 489.15,414.5 489.9,414.05 490.5,413.7 490.85,413.45 492.95,412.2 495.2,410.75 497.6,409.1 499.35,407.9 501.5,406.35 504.05,404.45 504.2,404.35 505.25,403.6 507.15,402.15 508.4,401.2 509.4,400.4 510.1,399.7 510.85,399.35 511.45,398.85 511.95,398.2 512.5,397.95 512.85,397.7 513.05,397.35 513.2,397.3 513.4,397.15 513.6,397 513.85,396.75 514,396.6 514.05,396.55 514.2,396.5 514.3,396.45 514.45,396.3 514.5,396.25 514.55,396.1 514.7,395.9 515,395.9 515.3,395.7 515.55,395.25 515.75,395.15 515.9,395.1 515.95,395.05 516.1,395 516.15,394.9 516.2,394.75 516.4,394.65 516.6,394.65 516.85,394.7 516.9,394.85 516.95,395 517.05,395.1 517.2,395.25 517.3,395.25 517.45,395.2 517.5,395.4 517.65,395.55 517.8,395.6 518.05,396.05 518.4,396.3 518.8,396.35 518.85,396.5 518.95,396.65 519.1,396.75 519.2,396.9 519.3,397 519.45,397.05 519.5,397.2 519.65,397.3 519.8,397.4 519.9,397.45 520.05,397.55 520.3,397.7 520.4,397.9 520.55,398.1 520.8,398.3 520.9,398.35 521.1,398.5 521.45,398.7 521.55,398.9 521.75,399.1 522,399.3 522.15,399.4 522.35,399.55 522.65,399.8 522.8,399.85 523,400.05 523.3,400.35 523.55,400.6 523.8,400.8 524.05,400.85 524.1,401 524.2,401.1 524.35,401.2 529.9,405.75 535.2,409.65 540.35,412.95 L544.35,415.45 C545.9,416.35 547.25,417.05 548.5,417.55 L548.55,417.7 C550.3,418.5 551.95,419.15 553.4,419.65 553.7,419.8 554.1,419.9 554.6,419.9 L554.65,420 C554.95,420.05 555.45,420.15 556.1,420.3 556.65,420.4 557.15,420.45 557.55,420.4 L557.55,420.55 C559.6,420.6 561.35,420.15 562.7,419.25 563.3,418.7 563.8,418.1 564.25,417.35 564.7,416.6 564.95,415.85 565.05,415.05 565.5,413.8 565.7,412.7 565.55,411.8 565.6,410.65 565.6,409 565.55,406.75 L565.4,406.7 C565.45,406 565.35,405.15 565.2,404.15 564.95,402.5 564.8,401.7 564.8,401.65 564.2,398.2 563.35,394.5 562.2,390.55 561.35,387.55 560.25,383.95 558.8,379.7 558.65,379.35 558.35,378.55 558,377.4 557.65,376.45 557.35,375.75 557.1,375.2 557,374.8 556.85,374.3 556.6,373.65 556.3,372.9 556.1,372.4 556.05,372.15 L555.9,372.1 C555.85,371.75 555.8,371.55 555.75,371.4 555.65,371.1 555.55,370.9 555.4,370.8 555.35,370.55 555.35,370.4 555.35,370.3 555.3,370.1 555.2,370 555.1,369.95 555.05,369.75 555.05,369.6 555,369.5 554.95,369.3 554.9,369.2 554.75,369.15 554.75,368.95 554.7,368.75 554.55,368.6 554.55,368.45 554.55,368.3 554.5,368.15 554.45,367.95 554.4,367.85 554.25,367.8 554.3,367.65 554.2,367.45 554.05,367.3 554.1,367.2 554.05,367.1 554,366.95 553.95,366.8 553.85,366.7 553.75,366.65 L553.9,366 554.25,366 554.25,365.9 C554.45,365.9 554.6,365.85 554.75,365.7 554.95,365.55 555.05,365.5 555.1,365.5 555.25,365.45 555.35,365.35 555.4,365.2 555.55,365.2 555.75,365.15 555.9,365.05 556.05,364.95 556.15,364.85 556.2,364.7 556.3,364.65 556.45,364.6 556.65,364.5 556.85,364.45 557,364.35 557.05,364.25 557.2,364.2 557.35,364.1 557.6,363.95 557.85,363.85 558,363.75 558.05,363.6 558.55,363.45 559,363.2 559.35,362.75 559.7,362.65 560.05,362.45 560.5,362.2 560.55,362.15 560.85,361.9 561.5,361.45 L561.75,361.35 C565.3,359.1 568.35,357.05 570.9,355.25 574.1,352.95 577,350.7 579.6,348.5 579.9,348.25 580.4,347.85 581.05,347.35 581.6,346.9 582.05,346.45 582.35,346 582.6,345.95 582.8,345.8 583.05,345.55 583.4,345.15 583.65,344.95 583.7,344.9 584.85,343.75 585.65,342.9 586.1,342.45 587,341.5 587.7,340.6 588.25,339.8 588.6,339.55 588.95,339.1 589.3,338.55 589.45,338.25 589.7,337.8 590.05,337.15 590.3,336.8 590.55,336.4 590.75,336 591,335.55 591.15,335.1 591.2,334.7 L591.35,334.65 C591.65,333.6 591.75,332.6 591.7,331.6 591.65,330.5 591.35,329.55 590.8,328.7 590.4,328.25 590.05,327.85 589.8,327.55 589.35,327.15 588.95,326.85 588.55,326.65 588,326.1 587.2,325.65 586.15,325.3 585.3,324.9 584.75,324.65 584.6,324.6 584,324.35 583.45,324.25 582.95,324.2 582.75,324.05 582.5,323.95 582.2,323.85 581.85,323.8 581.55,323.75 581.35,323.7 580.2,323.4 579.3,323.2 578.75,323.1 577.7,322.85 576.8,322.75 576.05,322.75 575.2,322.5 574.15,322.35 572.8,322.2 571.35,322.1 570.25,322 569.55,321.9 568.8,321.85 567.7,321.75 566.35,321.7 564.85,321.65 563.8,321.6 563.15,321.55 559.4,321.55 556.6,321.55 554.75,321.55 551.45,321.55 548.65,321.6 546.35,321.75 546.1,321.7 545.85,321.75 545.5,321.8 545.15,321.85 544.9,321.9 544.7,321.95 544.5,321.9 544.25,321.85 543.95,321.85 543.6,321.9 543.4,321.9 543.25,321.9 543.1,321.85 542.95,321.85 542.8,321.9 542.65,321.95 542.5,322 542.4,322.1 L541.25,322.1 C541.15,322.05 541,322 540.85,322.05 540.65,322.1 540.5,322.1 540.45,322.1 540.25,322.05 540.1,322 540.05,322 539.85,322.05 539.75,322.1 539.75,322.25 539.55,322.2 539.35,322.2 539.1,322.25 L538.6,322.25 538.15,321.95 C538.2,321.75 538.2,321.6 538.2,321.5 538.2,321.35 538.15,321.25 538,321.2 L538,320.75 C538,320.55 537.95,320.3 537.8,320 537.75,319.75 537.75,319.6 537.7,319.5 537.7,319.3 537.65,319.15 537.55,319.1 537.55,318.75 537.5,318.4 537.35,318.15 537.35,318 537.35,317.9 537.3,317.75 537.25,317.55 537.2,317.4 537.15,317.35 537.1,317.05 537.1,316.85 537.1,316.8 537.05,316.55 536.95,316.4 536.85,316.3 536.85,315.65 536.75,315.15 536.5,314.7 536.3,313.5 536.05,312.55 535.75,311.85 534.45,306.35 532.55,300.35 530.1,293.8 529.15,291.45 528.5,289.85 528.1,288.95 527.3,287.15 526.5,285.6 525.7,284.3 525.7,284.1 525.65,283.9 525.5,283.7 525.35,283.45 525.2,283.3 525.15,283.2 524.6,282.3 524.2,281.65 523.9,281.2 523.4,280.45 522.9,279.8 522.45,279.35 L522.4,279.05 C522.25,278.95 521.9,278.55 521.25,277.9 520.8,277.4 520.35,277.05 519.95,276.9 519.6,276.45 519.05,276.05 518.35,275.75 517.95,275.6 517.3,275.4 516.45,275.15 515.65,275.05 514.8,275.15 513.9,275.4 513.15,275.65 512.4,276.05 511.65,276.6 L511.6,276.75 C511.35,276.8 511.05,277 510.75,277.3 510.35,277.7 510.1,277.95 510.05,278 509.85,278.1 509.65,278.3 509.45,278.55 509.25,278.85 509.1,279.05 508.95,279.2 508.5,279.65 508,280.25 507.45,281 506.9,281.9 506.45,282.55 506.2,283 506,283.25 505.85,283.45 505.8,283.6 505.65,283.85 505.55,284.1 505.5,284.3 505.3,284.5 505.1,284.8 504.85,285.25 504.65,285.7 504.5,286 504.35,286.25 502.4,290 500.6,294.25 498.9,299 497.6,302.5 496.15,306.9 494.6,312.25 494.55,312.4 494.5,312.6 494.5,312.85 494.35,313.2 494.2,313.65 494.05,314.2 493.8,315.15 493.7,315.6 493.7,315.65 493.55,315.85 493.45,316.1 493.4,316.45 493.35,316.65 493.3,316.95 493.25,317.3 493.05,317.6 493,317.9 493.05,318.15 492.8,318.4 492.7,318.8 492.75,319.3 492.6,319.35 492.55,319.5 492.55,319.65 492.55,319.75 492.55,319.9 492.55,320.05 492.45,320.15 492.4,320.3 492.35,320.55 492.3,320.7 492.3,320.85 492.25,321.1 492.1,321.35 492.05,321.55 492.05,321.75 L491.9,322.25 C491.85,322.6 491.8,322.8 491.8,322.95 491.7,323.05 491.6,323.15 491.45,323.25 491.2,323.2 491,323.2 490.8,323.25 490.6,323.2 490.45,323.1 490.3,323.05 490.1,323.05 489.95,323.05 489.85,323 489.7,323 489.6,323 489.45,323.05 489.3,323.05 489.15,323.05 489.05,323 488.9,323 488.75,323.05 488.65,323.1 488.4,322.85 488.15,322.8 488,322.9 487.55,322.85 487.1,322.85 486.65,322.9 486.35,322.65 486,322.6 485.55,322.75 485.15,322.7 484.85,322.65 484.65,322.6 484.3,322.55 483.95,322.55 483.7,322.6 482.4,322.45 480.7,322.35 478.6,322.3 475.9,322.2 474.2,322.15 473.45,322.1 471.55,322.05 470.15,322 469.3,322 467.75,322 466.35,322.05 465.15,322.2 462.2,322.2 459.6,322.35 457.3,322.7 454.05,322.95 451.4,323.4 449.25,324.05 447.7,324.3 446.5,324.65 445.65,325.2 445.1,325.35 444.6,325.5 444.15,325.75 443.65,326 443.2,326.3 442.85,326.65 442.45,326.8 442.05,327.1 441.65,327.5 441.5,327.65 441.2,328 440.65,328.6 439.55,330.05 439.35,332.1 440.05,334.65 L440.15,334.7 C440.2,335.05 440.35,335.5 440.6,336 L441.2,337.25 441.35,337.3 C441.5,337.65 441.7,338.05 442,338.5 442.15,338.75 442.4,339.1 442.75,339.65 442.8,339.7 442.95,339.8 443.1,340.05 443.2,340.3 443.35,340.4 443.5,340.4 443.65,340.75 443.9,341.1 444.3,341.55 444.8,342.1 445.1,342.45 445.25,342.6 445.5,342.8 446,343.4 446.8,344.35z M268.15,575.8 C268,575.95 267.7,576.3 267.15,576.9 266.05,578.35 265.85,580.4 266.55,582.95 L266.65,583 C266.7,583.35 266.85,583.8 267.1,584.3 L267.7,585.55 267.85,585.6 C268,585.95 268.2,586.35 268.5,586.8 268.65,587.05 268.9,587.4 269.25,587.95 269.3,588 269.45,588.1 269.6,588.35 269.7,588.6 269.85,588.7 270,588.7 270.15,589.05 270.4,589.4 270.8,589.85 271.3,590.4 271.6,590.75 271.75,590.9 272,591.1 272.5,591.7 273.3,592.65 273.95,593.4 274.5,593.9 275.05,594.15 275.5,594.7 276.05,595.25 276.7,595.85 276.95,596.1 277.55,596.6 278.5,597.4 284.05,602.25 290.25,606.9 297.05,611.25 297.7,611.9 298.45,612.35 299.25,612.65 299.5,612.95 299.9,613.25 300.5,613.5 300.6,613.65 300.75,613.75 301,613.85 301.05,613.9 301.2,614 301.55,614.15 301.65,614.3 301.75,614.35 301.8,614.4 301.9,614.5 302,614.55 302.15,614.5 302.2,614.65 302.25,614.75 302.4,614.8 302.5,614.85 302.65,614.95 302.8,615 302.85,615.1 302.9,615.2 303.05,615.25 303.1,615.25 303.25,615.3 303.45,615.35 303.5,615.45 303.55,615.55 303.7,615.65 303.8,615.7 303.95,615.75 304.1,615.8 L304.45,615.95 C304.6,616.1 304.65,616.2 304.65,616.25 304.7,616.35 304.65,616.45 304.6,616.6 304.5,616.65 304.4,616.7 304.35,616.85 304.3,617 304.3,617.1 304.3,617.25 304.15,617.4 304.1,617.55 304.15,617.75 304,617.8 303.9,617.85 303.85,618 303.8,618.15 303.8,618.25 303.85,618.4 303.7,618.55 303.6,618.7 303.6,618.9 303.5,618.95 303.4,619.1 303.35,619.25 303.3,619.4 303.3,619.55 303.35,619.7 303.1,619.75 303,620 302.95,620.4 302.8,620.55 302.7,620.75 302.65,621 302.55,621.25 302.5,621.45 302.5,621.65 302.1,622.1 301.8,622.8 301.65,623.7 301.4,624 301.2,624.45 301,625.05 300.75,625.8 300.55,626.25 300.45,626.45 298.15,632.5 296.2,638.45 294.6,644.2 294.55,644.55 294.3,645.45 293.95,646.8 293.65,647.85 293.5,648.75 293.45,649.45 L293.3,649.45 C293.15,650.4 292.95,651.85 292.6,653.7 292.35,655.35 292.3,656.75 292.35,657.95 292.25,658.8 292.25,659.7 292.35,660.6 292.3,660.8 292.3,661.1 292.4,661.45 292.5,661.9 292.55,662.2 292.55,662.4 292.55,662.45 292.6,662.65 292.65,663.1 292.7,663.4 292.8,663.6 292.95,663.75 293,664.3 293.15,664.85 293.5,665.45 293.7,665.8 294.05,666.25 294.55,666.9 295.15,667.65 295.95,668.15 297,668.45 297.85,668.75 298.85,668.85 299.9,668.8 300.2,668.8 300.65,668.75 301.25,668.65 301.85,668.55 302.3,668.5 302.6,668.5 L302.65,668.35 C303.75,668.3 304.55,668.05 305.1,667.7 305.25,667.7 305.35,667.7 305.5,667.65 305.55,667.6 305.7,667.55 305.9,667.5 308,666.75 310.2,665.75 312.5,664.55 312.55,664.5 312.75,664.4 313.2,664.2 313.5,664.05 313.7,663.9 313.8,663.75 314.35,663.5 314.95,663.2 315.65,662.8 316.4,662.35 317,662 317.35,661.75 319.45,660.5 321.7,659.05 324.1,657.4 325.85,656.2 328,654.65 330.55,652.75 330.7,652.65 331.75,651.9 333.65,650.45 334.9,649.5 335.9,648.7 336.6,648 337.35,647.65 337.95,647.15 338.45,646.5 339,646.25 339.35,646 339.55,645.65 339.7,645.6 339.9,645.45 340.1,645.3 340.35,645.05 340.5,644.9 340.55,644.85 340.7,644.8 340.8,644.75 340.95,644.6 341,644.55 341.05,644.4 341.2,644.2 341.5,644.2 341.8,644 342.05,643.55 342.25,643.45 342.4,643.4 342.45,643.35 342.6,643.3 342.65,643.2 342.7,643.05 342.9,642.95 343.1,642.95 343.35,643 343.4,643.15 343.45,643.3 343.55,643.4 343.7,643.55 343.8,643.55 343.95,643.5 344,643.7 344.15,643.85 344.3,643.9 344.55,644.35 344.9,644.6 345.3,644.65 345.35,644.8 345.45,644.95 345.6,645.05 345.7,645.2 345.8,645.3 345.95,645.35 346,645.5 346.15,645.6 346.3,645.7 346.4,645.75 346.55,645.85 346.8,646 346.9,646.2 347.05,646.4 347.3,646.6 347.4,646.65 347.6,646.8 347.95,647 348.05,647.2 348.25,647.4 348.5,647.6 348.65,647.7 348.85,647.85 349.15,648.1 349.3,648.15 349.5,648.35 349.8,648.65 350.05,648.9 350.3,649.1 350.55,649.15 350.6,649.3 350.7,649.4 350.85,649.5 356.4,654.05 361.7,657.95 366.85,661.25 L370.85,663.75 C372.4,664.65 373.75,665.35 375,665.85 L375.05,666 C376.8,666.8 378.45,667.45 379.9,667.95 380.2,668.1 380.6,668.2 381.1,668.2 L381.15,668.3 C381.45,668.35 381.95,668.45 382.6,668.6 383.15,668.7 383.65,668.75 384.05,668.7 L384.05,668.85 C386.1,668.9 387.85,668.45 389.2,667.55 389.8,667 390.3,666.4 390.75,665.65 391.2,664.9 391.45,664.15 391.55,663.35 392,662.1 392.2,661 392.05,660.1 392.1,658.95 392.1,657.3 392.05,655.05 L391.9,655 C391.95,654.3 391.85,653.45 391.7,652.45 391.45,650.8 391.3,650 391.3,649.95 390.7,646.5 389.85,642.8 388.7,638.85 387.85,635.85 386.75,632.25 385.3,628 385.15,627.65 384.85,626.85 384.5,625.7 384.15,624.75 383.85,624.05 383.6,623.5 383.5,623.1 383.35,622.6 383.1,621.95 382.8,621.2 382.6,620.7 382.55,620.45 L382.4,620.4 C382.35,620.05 382.3,619.85 382.25,619.7 382.15,619.4 382.05,619.2 381.9,619.1 381.85,618.85 381.85,618.7 381.85,618.6 381.8,618.4 381.7,618.3 381.6,618.25 381.55,618.05 381.55,617.9 381.5,617.8 381.45,617.6 381.4,617.5 381.25,617.45 381.25,617.25 381.2,617.05 381.05,616.9 381.05,616.75 381.05,616.6 381,616.45 380.95,616.25 380.9,616.15 380.75,616.1 380.8,615.95 380.7,615.75 380.55,615.6 380.6,615.5 380.55,615.4 380.5,615.25 380.45,615.1 380.35,615 380.25,614.95 L380.4,614.3 380.75,614.3 380.75,614.2 C380.95,614.2 381.1,614.15 381.25,614 381.45,613.85 381.55,613.8 381.6,613.8 381.75,613.75 381.85,613.65 381.9,613.5 382.05,613.5 382.25,613.45 382.4,613.35 382.55,613.25 382.65,613.15 382.7,613 382.8,612.95 382.95,612.9 383.15,612.8 383.35,612.75 383.5,612.65 383.55,612.55 383.7,612.5 383.85,612.4 384.1,612.25 384.35,612.15 384.5,612.05 384.55,611.9 385.05,611.75 385.5,611.5 385.85,611.05 386.2,610.95 386.55,610.75 387,610.5 387.05,610.45 387.35,610.2 388,609.75 L388.25,609.65 C391.8,607.4 394.85,605.35 397.4,603.55 400.6,601.25 403.5,599 406.1,596.8 406.4,596.55 406.9,596.15 407.55,595.65 408.1,595.2 408.55,594.75 408.85,594.3 409.1,594.25 409.3,594.1 409.55,593.85 409.9,593.45 410.15,593.25 410.2,593.2 411.35,592.05 412.15,591.2 412.6,590.75 413.5,589.8 414.2,588.9 414.75,588.1 415.1,587.85 415.45,587.4 415.8,586.85 415.95,586.55 416.2,586.1 416.55,585.45 416.8,585.1 417.05,584.7 417.25,584.3 417.5,583.85 417.65,583.4 417.7,583 L417.85,582.95 C418.15,581.9 418.25,580.9 418.2,579.9 418.15,578.8 417.85,577.85 417.3,577 416.9,576.55 416.55,576.15 416.3,575.85 415.85,575.45 415.45,575.15 415.05,574.95 414.5,574.4 413.7,573.95 412.65,573.6 411.8,573.2 411.25,572.95 411.1,572.9 410.5,572.65 409.95,572.55 409.45,572.5 409.25,572.35 409,572.25 408.7,572.15 408.35,572.1 408.05,572.05 407.85,572 406.7,571.7 405.8,571.5 405.25,571.4 404.2,571.15 403.3,571.05 402.55,571.05 401.7,570.8 400.65,570.65 399.3,570.5 397.85,570.4 396.75,570.3 396.05,570.2 395.3,570.15 394.2,570.05 392.85,570 391.35,569.95 390.3,569.9 389.65,569.85 385.9,569.85 383.1,569.85 381.25,569.85 377.95,569.85 375.15,569.9 372.85,570.05 372.6,570 372.35,570.05 372,570.1 371.65,570.15 371.4,570.2 371.2,570.25 371,570.2 370.75,570.15 370.45,570.15 370.1,570.2 369.9,570.2 369.75,570.2 369.6,570.15 369.45,570.15 369.3,570.2 369.15,570.25 369,570.3 368.9,570.4 L367.75,570.4 C367.65,570.35 367.5,570.3 367.35,570.35 367.15,570.4 367,570.4 366.95,570.4 366.75,570.35 366.6,570.3 366.55,570.3 366.35,570.35 366.25,570.4 366.25,570.55 366.05,570.5 365.85,570.5 365.6,570.55 L365.1,570.55 364.65,570.25 C364.7,570.05 364.7,569.9 364.7,569.8 364.7,569.65 364.65,569.55 364.5,569.5 L364.5,569.05 C364.5,568.85 364.45,568.6 364.3,568.3 364.25,568.05 364.25,567.9 364.2,567.8 364.2,567.6 364.15,567.45 364.05,567.4 364.05,567.05 364,566.7 363.85,566.45 363.85,566.3 363.85,566.2 363.8,566.05 363.75,565.85 363.7,565.7 363.65,565.65 363.6,565.35 363.6,565.15 363.6,565.1 363.55,564.85 363.45,564.7 363.35,564.6 363.35,563.95 363.25,563.45 363,563 362.8,561.8 362.55,560.85 362.25,560.15 360.95,554.65 359.05,548.65 356.6,542.1 355.65,539.75 355,538.15 354.6,537.25 353.8,535.45 353,533.9 352.2,532.6 352.2,532.4 352.15,532.2 352,532 351.85,531.75 351.7,531.6 351.65,531.5 351.1,530.6 350.7,529.95 350.4,529.5 349.9,528.75 349.4,528.1 348.95,527.65 L348.9,527.35 C348.75,527.25 348.4,526.85 347.75,526.2 347.3,525.7 346.85,525.35 346.45,525.2 346.1,524.75 345.55,524.35 344.85,524.05 344.45,523.9 343.8,523.7 342.95,523.45 342.15,523.35 341.3,523.45 340.4,523.7 339.65,523.95 338.9,524.35 338.15,524.9 L338.1,525.05 C337.85,525.1 337.55,525.3 337.25,525.6 336.85,526 336.6,526.25 336.55,526.3 336.35,526.4 336.15,526.6 335.95,526.85 335.75,527.15 335.6,527.35 335.45,527.5 335,527.95 334.5,528.55 333.95,529.3 333.4,530.2 332.95,530.85 332.7,531.3 332.5,531.55 332.35,531.75 332.3,531.9 332.15,532.15 332.05,532.4 332,532.6 331.8,532.8 331.6,533.1 331.35,533.55 331.15,534 331,534.3 330.85,534.55 328.9,538.3 327.1,542.55 325.4,547.3 324.1,550.8 322.65,555.2 321.1,560.55 321.05,560.7 321,560.9 321,561.15 320.85,561.5 320.7,561.95 320.55,562.5 320.3,563.45 320.2,563.9 320.2,563.95 320.05,564.15 319.95,564.4 319.9,564.75 319.85,564.95 319.8,565.25 319.75,565.6 319.55,565.9 319.5,566.2 319.55,566.45 319.3,566.7 319.2,567.1 319.25,567.6 319.1,567.65 319.05,567.8 319.05,567.95 319.05,568.05 319.05,568.2 319.05,568.35 318.95,568.45 318.9,568.6 318.85,568.85 318.8,569 318.8,569.15 318.75,569.4 318.6,569.65 318.55,569.85 318.55,570.05 L318.4,570.55 C318.35,570.9 318.3,571.1 318.3,571.25 318.2,571.35 318.1,571.45 317.95,571.55 317.7,571.5 317.5,571.5 317.3,571.55 317.1,571.5 316.95,571.4 316.8,571.35 316.6,571.35 316.45,571.35 316.35,571.3 316.2,571.3 316.1,571.3 315.95,571.35 315.8,571.35 315.65,571.35 315.55,571.3 315.4,571.3 315.25,571.35 315.15,571.4 314.9,571.15 314.65,571.1 314.5,571.2 314.05,571.15 313.6,571.15 313.15,571.2 312.85,570.95 312.5,570.9 312.05,571.05 311.65,571 311.35,570.95 311.15,570.9 310.8,570.85 310.45,570.85 310.2,570.9 308.9,570.75 307.2,570.65 305.1,570.6 302.4,570.5 300.7,570.45 299.95,570.4 298.05,570.35 296.65,570.3 295.8,570.3 294.25,570.3 292.85,570.35 291.65,570.5 288.7,570.5 286.1,570.65 283.8,571 280.55,571.25 277.9,571.7 275.75,572.35 274.2,572.6 273,572.95 272.15,573.5 271.6,573.65 271.1,573.8 270.65,574.05 270.15,574.3 269.7,574.6 269.35,574.95 268.95,575.1 268.55,575.4 268.15,575.8z M572.8,488.25 C571.35,488.15 570.25,488.05 569.55,487.95 568.8,487.9 567.7,487.8 566.35,487.75 564.85,487.7 563.8,487.65 563.15,487.6 559.4,487.6 556.6,487.6 554.75,487.6 551.45,487.6 548.65,487.65 546.35,487.8 546.1,487.75 545.85,487.8 545.5,487.85 545.15,487.9 544.9,487.95 544.7,488 544.5,487.95 544.25,487.9 543.95,487.9 543.6,487.95 543.4,487.95 543.25,487.95 543.1,487.9 542.95,487.9 542.8,487.95 542.65,488 542.5,488.05 542.4,488.15 L541.25,488.15 C541.15,488.1 541,488.05 540.85,488.1 540.65,488.15 540.5,488.15 540.45,488.15 540.25,488.1 540.1,488.05 540.05,488.05 539.85,488.1 539.75,488.15 539.75,488.3 539.55,488.25 539.35,488.25 539.1,488.3 L538.6,488.3 538.15,488 C538.2,487.8 538.2,487.65 538.2,487.55 538.2,487.4 538.15,487.3 538,487.25 L538,486.8 C538,486.6 537.95,486.35 537.8,486.05 537.75,485.8 537.75,485.65 537.7,485.55 537.7,485.35 537.65,485.2 537.55,485.15 537.55,484.8 537.5,484.45 537.35,484.2 537.35,484.05 537.35,483.95 537.3,483.8 537.25,483.6 537.2,483.45 537.15,483.4 537.1,483.1 537.1,482.9 537.1,482.85 537.05,482.6 536.95,482.45 536.85,482.35 536.85,481.7 536.75,481.2 536.5,480.75 536.3,479.55 536.05,478.6 535.75,477.9 534.45,472.4 532.55,466.4 530.1,459.85 529.15,457.5 528.5,455.9 528.1,455 527.3,453.2 526.5,451.65 525.7,450.35 525.7,450.15 525.65,449.95 525.5,449.75 525.35,449.5 525.2,449.35 525.15,449.25 524.6,448.35 524.2,447.7 523.9,447.25 523.4,446.5 522.9,445.85 522.45,445.4 L522.4,445.1 C522.25,445 521.9,444.6 521.25,443.95 520.8,443.45 520.35,443.1 519.95,442.95 519.6,442.5 519.05,442.1 518.35,441.8 517.95,441.65 517.3,441.45 516.45,441.2 515.65,441.1 514.8,441.2 513.9,441.45 513.15,441.7 512.4,442.1 511.65,442.65 L511.6,442.8 C511.35,442.85 511.05,443.05 510.75,443.35 510.35,443.75 510.1,444 510.05,444.05 509.85,444.15 509.65,444.35 509.45,444.6 509.25,444.9 509.1,445.1 508.95,445.25 508.5,445.7 508,446.3 507.45,447.05 506.9,447.95 506.45,448.6 506.2,449.05 506,449.3 505.85,449.5 505.8,449.65 505.65,449.9 505.55,450.15 505.5,450.35 505.3,450.55 505.1,450.85 504.85,451.3 504.65,451.75 504.5,452.05 504.35,452.3 502.4,456.05 500.6,460.3 498.9,465.05 497.6,468.55 496.15,472.95 494.6,478.3 494.55,478.45 494.5,478.65 494.5,478.9 494.35,479.25 494.2,479.7 494.05,480.25 493.8,481.2 493.7,481.65 493.7,481.7 493.55,481.9 493.45,482.15 493.4,482.5 493.35,482.7 493.3,483 493.25,483.35 493.05,483.65 493,483.95 493.05,484.2 492.8,484.45 492.7,484.85 492.75,485.35 492.6,485.4 492.55,485.55 492.55,485.7 492.55,485.8 492.55,485.95 492.55,486.1 492.45,486.2 492.4,486.35 492.35,486.6 492.3,486.75 492.3,486.9 492.25,487.15 492.1,487.4 492.05,487.6 492.05,487.8 L491.9,488.3 C491.85,488.65 491.8,488.85 491.8,489 491.7,489.1 491.6,489.2 491.45,489.3 491.2,489.25 491,489.25 490.8,489.3 490.6,489.25 490.45,489.15 490.3,489.1 490.1,489.1 489.95,489.1 489.85,489.05 489.7,489.05 489.6,489.05 489.45,489.1 489.3,489.1 489.15,489.1 489.05,489.05 488.9,489.05 488.75,489.1 488.65,489.15 488.4,488.9 488.15,488.85 488,488.95 487.55,488.9 487.1,488.9 486.65,488.95 486.35,488.7 486,488.65 485.55,488.8 485.15,488.75 484.85,488.7 484.65,488.65 484.3,488.6 483.95,488.6 483.7,488.65 482.4,488.5 480.7,488.4 478.6,488.35 475.9,488.25 474.2,488.2 473.45,488.15 471.55,488.1 470.15,488.05 469.3,488.05 467.75,488.05 466.35,488.1 465.15,488.25 462.2,488.25 459.6,488.4 457.3,488.75 454.05,489 451.4,489.45 449.25,490.1 447.7,490.35 446.5,490.7 445.65,491.25 445.1,491.4 444.6,491.55 444.15,491.8 443.65,492.05 443.2,492.35 442.85,492.7 442.45,492.85 442.05,493.15 441.65,493.55 441.5,493.7 441.2,494.05 440.65,494.65 439.55,496.1 439.35,498.15 440.05,500.7 L440.15,500.75 C440.2,501.1 440.35,501.55 440.6,502.05 L441.2,503.3 441.35,503.35 C441.5,503.7 441.7,504.1 442,504.55 442.15,504.8 442.4,505.15 442.75,505.7 442.8,505.75 442.95,505.85 443.1,506.1 443.2,506.35 443.35,506.45 443.5,506.45 443.65,506.8 443.9,507.15 444.3,507.6 444.8,508.15 445.1,508.5 445.25,508.65 445.5,508.85 446,509.45 446.8,510.4 447.45,511.15 448,511.65 448.55,511.9 449,512.45 449.55,513 450.2,513.6 450.45,513.85 451.05,514.35 452,515.15 457.55,520 463.75,524.65 470.55,529 471.2,529.65 471.95,530.1 472.75,530.4 473,530.7 473.4,531 474,531.25 474.1,531.4 474.25,531.5 474.5,531.6 474.55,531.65 474.7,531.75 475.05,531.9 475.15,532.05 475.25,532.1 475.3,532.15 475.4,532.25 475.5,532.3 475.65,532.25 475.7,532.4 475.75,532.5 475.9,532.55 476,532.6 476.15,532.7 476.3,532.75 476.35,532.85 476.4,532.95 476.55,533 476.6,533 476.75,533.05 476.95,533.1 477,533.2 477.05,533.3 477.2,533.4 477.3,533.45 477.45,533.5 477.6,533.55 L477.95,533.7 C478.1,533.85 478.15,533.95 478.15,534 478.2,534.1 478.15,534.2 478.1,534.35 478,534.4 477.9,534.45 477.85,534.6 477.8,534.75 477.8,534.85 477.8,535 477.65,535.15 477.6,535.3 477.65,535.5 477.5,535.55 477.4,535.6 477.35,535.75 477.3,535.9 477.3,536 477.35,536.15 477.2,536.3 477.1,536.45 477.1,536.65 477,536.7 476.9,536.85 476.85,537 476.8,537.15 476.8,537.3 476.85,537.45 476.6,537.5 476.5,537.75 476.45,538.15 476.3,538.3 476.2,538.5 476.15,538.75 476.05,539 476,539.2 476,539.4 475.6,539.85 475.3,540.55 475.15,541.45 474.9,541.75 474.7,542.2 474.5,542.8 474.25,543.55 474.05,544 473.95,544.2 471.65,550.25 469.7,556.2 468.1,561.95 468.05,562.3 467.8,563.2 467.45,564.55 467.15,565.6 467,566.5 466.95,567.2 L466.8,567.2 C466.65,568.15 466.45,569.6 466.1,571.45 465.85,573.1 465.8,574.5 465.85,575.7 465.75,576.55 465.75,577.45 465.85,578.35 465.8,578.55 465.8,578.85 465.9,579.2 466,579.65 466.05,579.95 466.05,580.15 466.05,580.2 466.1,580.4 466.15,580.85 466.2,581.15 466.3,581.35 466.45,581.5 466.5,582.05 466.65,582.6 467,583.2 467.2,583.55 467.55,584 468.05,584.65 468.65,585.4 469.45,585.9 470.5,586.2 471.35,586.5 472.35,586.6 473.4,586.55 473.7,586.55 474.15,586.5 474.75,586.4 475.35,586.3 475.8,586.25 476.1,586.25 L476.15,586.1 C477.25,586.05 478.05,585.8 478.6,585.45 478.75,585.45 478.85,585.45 479,585.4 479.05,585.35 479.2,585.3 479.4,585.25 481.5,584.5 483.7,583.5 486,582.3 486.05,582.25 486.25,582.15 486.7,581.95 487,581.8 487.2,581.65 487.3,581.5 487.85,581.25 488.45,580.95 489.15,580.55 489.9,580.1 490.5,579.75 490.85,579.5 492.95,578.25 495.2,576.8 497.6,575.15 499.35,573.95 501.5,572.4 504.05,570.5 504.2,570.4 505.25,569.65 507.15,568.2 508.4,567.25 509.4,566.45 510.1,565.75 510.85,565.4 511.45,564.9 511.95,564.25 512.5,564 512.85,563.75 513.05,563.4 513.2,563.35 513.4,563.2 513.6,563.05 513.85,562.8 514,562.65 514.05,562.6 514.2,562.55 514.3,562.5 514.45,562.35 514.5,562.3 514.55,562.15 514.7,561.95 515,561.95 515.3,561.75 515.55,561.3 515.75,561.2 515.9,561.15 515.95,561.1 516.1,561.05 516.15,560.95 516.2,560.8 516.4,560.7 516.6,560.7 516.85,560.75 516.9,560.9 516.95,561.05 517.05,561.15 517.2,561.3 517.3,561.3 517.45,561.25 517.5,561.45 517.65,561.6 517.8,561.65 518.05,562.1 518.4,562.35 518.8,562.4 518.85,562.55 518.95,562.7 519.1,562.8 519.2,562.95 519.3,563.05 519.45,563.1 519.5,563.25 519.65,563.35 519.8,563.45 519.9,563.5 520.05,563.6 520.3,563.75 520.4,563.95 520.55,564.15 520.8,564.35 520.9,564.4 521.1,564.55 521.45,564.75 521.55,564.95 521.75,565.15 522,565.35 522.15,565.45 522.35,565.6 522.65,565.85 522.8,565.9 523,566.1 523.3,566.4 523.55,566.65 523.8,566.85 524.05,566.9 524.1,567.05 524.2,567.15 524.35,567.25 529.9,571.8 535.2,575.7 540.35,579 L544.35,581.5 C545.9,582.4 547.25,583.1 548.5,583.6 L548.55,583.75 C550.3,584.55 551.95,585.2 553.4,585.7 553.7,585.85 554.1,585.95 554.6,585.95 L554.65,586.05 C554.95,586.1 555.45,586.2 556.1,586.35 556.65,586.45 557.15,586.5 557.55,586.45 L557.55,586.6 C559.6,586.65 561.35,586.2 562.7,585.3 563.3,584.75 563.8,584.15 564.25,583.4 564.7,582.65 564.95,581.9 565.05,581.1 565.5,579.85 565.7,578.75 565.55,577.85 565.6,576.7 565.6,575.05 565.55,572.8 L565.4,572.75 C565.45,572.05 565.35,571.2 565.2,570.2 564.95,568.55 564.8,567.75 564.8,567.7 564.2,564.25 563.35,560.55 562.2,556.6 561.35,553.6 560.25,550 558.8,545.75 558.65,545.4 558.35,544.6 558,543.45 557.65,542.5 557.35,541.8 557.1,541.25 557,540.85 556.85,540.35 556.6,539.7 556.3,538.95 556.1,538.45 556.05,538.2 L555.9,538.15 C555.85,537.8 555.8,537.6 555.75,537.45 555.65,537.15 555.55,536.95 555.4,536.85 555.35,536.6 555.35,536.45 555.35,536.35 555.3,536.15 555.2,536.05 555.1,536 555.05,535.8 555.05,535.65 555,535.55 554.95,535.35 554.9,535.25 554.75,535.2 554.75,535 554.7,534.8 554.55,534.65 554.55,534.5 554.55,534.35 554.5,534.2 554.45,534 554.4,533.9 554.25,533.85 554.3,533.7 554.2,533.5 554.05,533.35 554.1,533.25 554.05,533.15 554,533 553.95,532.85 553.85,532.75 553.75,532.7 L553.9,532.05 554.25,532.05 554.25,531.95 C554.45,531.95 554.6,531.9 554.75,531.75 554.95,531.6 555.05,531.55 555.1,531.55 555.25,531.5 555.35,531.4 555.4,531.25 555.55,531.25 555.75,531.2 555.9,531.1 556.05,531 556.15,530.9 556.2,530.75 556.3,530.7 556.45,530.65 556.65,530.55 556.85,530.5 557,530.4 557.05,530.3 557.2,530.25 557.35,530.15 557.6,530 557.85,529.9 558,529.8 558.05,529.65 558.55,529.5 559,529.25 559.35,528.8 559.7,528.7 560.05,528.5 560.5,528.25 560.55,528.2 560.85,527.95 561.5,527.5 L561.75,527.4 C565.3,525.15 568.35,523.1 570.9,521.3 574.1,519 577,516.75 579.6,514.55 579.9,514.3 580.4,513.9 581.05,513.4 581.6,512.95 582.05,512.5 582.35,512.05 582.6,512 582.8,511.85 583.05,511.6 583.4,511.2 583.65,511 583.7,510.95 584.85,509.8 585.65,508.95 586.1,508.5 587,507.55 587.7,506.65 588.25,505.85 588.6,505.6 588.95,505.15 589.3,504.6 589.45,504.3 589.7,503.85 590.05,503.2 590.3,502.85 590.55,502.45 590.75,502.05 591,501.6 591.15,501.15 591.2,500.75 L591.35,500.7 C591.65,499.65 591.75,498.65 591.7,497.65 591.65,496.55 591.35,495.6 590.8,494.75 590.4,494.3 590.05,493.9 589.8,493.6 589.35,493.2 588.95,492.9 588.55,492.7 588,492.15 587.2,491.7 586.15,491.35 585.3,490.95 584.75,490.7 584.6,490.65 584,490.4 583.45,490.3 582.95,490.25 582.75,490.1 582.5,490 582.2,489.9 581.85,489.85 581.55,489.8 581.35,489.75 580.2,489.45 579.3,489.25 578.75,489.15 577.7,488.9 576.8,488.8 576.05,488.8 575.2,488.55 574.15,488.4 572.8,488.25z M440.15,666.8 C440.2,667.15 440.35,667.6 440.6,668.1 L441.2,669.35 441.35,669.4 C441.5,669.75 441.7,670.15 442,670.6 442.15,670.85 442.4,671.2 442.75,671.75 442.8,671.8 442.95,671.9 443.1,672.15 443.2,672.4 443.35,672.5 443.5,672.5 443.65,672.85 443.9,673.2 444.3,673.65 444.8,674.2 445.1,674.55 445.25,674.7 445.5,674.9 446,675.5 446.8,676.45 447.45,677.2 448,677.7 448.55,677.95 449,678.5 449.55,679.05 450.2,679.65 450.45,679.9 451.05,680.4 452,681.2 457.55,686.05 463.75,690.7 470.55,695.05 471.2,695.7 471.95,696.15 472.75,696.45 473,696.75 473.4,697.05 474,697.3 474.1,697.45 474.25,697.55 474.5,697.65 474.55,697.7 474.7,697.8 475.05,697.95 475.15,698.1 475.25,698.15 475.3,698.2 475.4,698.3 475.5,698.35 475.65,698.3 475.7,698.45 475.75,698.55 475.9,698.6 476,698.65 476.15,698.75 476.3,698.8 476.35,698.9 476.4,699 476.55,699.05 476.6,699.05 476.75,699.1 476.95,699.15 477,699.25 477.05,699.35 477.2,699.45 477.3,699.5 477.45,699.55 477.6,699.6 L477.95,699.75 C478.1,699.9 478.15,700 478.15,700.05 478.2,700.15 478.15,700.25 478.1,700.4 478,700.45 477.9,700.5 477.85,700.65 477.8,700.8 477.8,700.9 477.8,701.05 477.65,701.2 477.6,701.35 477.65,701.55 477.5,701.6 477.4,701.65 477.35,701.8 477.3,701.95 477.3,702.05 477.35,702.2 477.2,702.35 477.1,702.5 477.1,702.7 477,702.75 476.9,702.9 476.85,703.05 476.8,703.2 476.8,703.35 476.85,703.5 476.6,703.55 476.5,703.8 476.45,704.2 476.3,704.35 476.2,704.55 476.15,704.8 476.05,705.05 476,705.25 476,705.45 475.6,705.9 475.3,706.6 475.15,707.5 474.9,707.8 474.7,708.25 474.5,708.85 474.25,709.6 474.05,710.05 473.95,710.25 471.65,716.3 469.7,722.25 468.1,728 468.05,728.35 467.8,729.25 467.45,730.6 467.15,731.65 467,732.55 466.95,733.25 L466.8,733.25 C466.65,734.2 466.45,735.65 466.1,737.5 465.85,739.15 465.8,740.55 465.85,741.75 465.75,742.6 465.75,743.5 465.85,744.4 465.8,744.6 465.8,744.9 465.9,745.25 466,745.7 466.05,746 466.05,746.2 466.05,746.25 466.1,746.45 466.15,746.9 466.2,747.2 466.3,747.4 466.45,747.55 466.5,748.1 466.65,748.65 467,749.25 467.2,749.6 467.55,750.05 468.05,750.7 468.65,751.45 469.45,751.95 470.5,752.25 471.35,752.55 472.35,752.65 473.4,752.6 473.7,752.6 474.15,752.55 474.75,752.45 475.35,752.35 475.8,752.3 476.1,752.3 L476.15,752.15 C477.25,752.1 478.05,751.85 478.6,751.5 478.75,751.5 478.85,751.5 479,751.45 479.05,751.4 479.2,751.35 479.4,751.3 481.5,750.55 483.7,749.55 486,748.35 486.05,748.3 486.25,748.2 486.7,748 487,747.85 487.2,747.7 487.3,747.55 487.85,747.3 488.45,747 489.15,746.6 489.9,746.15 490.5,745.8 490.85,745.55 492.95,744.3 495.2,742.85 497.6,741.2 499.35,740 501.5,738.45 504.05,736.55 504.2,736.45 505.25,735.7 507.15,734.25 508.4,733.3 509.4,732.5 510.1,731.8 510.85,731.45 511.45,730.95 511.95,730.3 512.5,730.05 512.85,729.8 513.05,729.45 513.2,729.4 513.4,729.25 513.6,729.1 513.85,728.85 514,728.7 514.05,728.65 514.2,728.6 514.3,728.55 514.45,728.4 514.5,728.35 514.55,728.2 514.7,728 515,728 515.3,727.8 515.55,727.35 515.75,727.25 515.9,727.2 515.95,727.15 516.1,727.1 516.15,727 516.2,726.85 516.4,726.75 516.6,726.75 516.85,726.8 516.9,726.95 516.95,727.1 517.05,727.2 517.2,727.35 517.3,727.35 517.45,727.3 517.5,727.5 517.65,727.65 517.8,727.7 518.05,728.15 518.4,728.4 518.8,728.45 518.85,728.6 518.95,728.75 519.1,728.85 519.2,729 519.3,729.1 519.45,729.15 519.5,729.3 519.65,729.4 519.8,729.5 519.9,729.55 520.05,729.65 520.3,729.8 520.4,730 520.55,730.2 520.8,730.4 520.9,730.45 521.1,730.6 521.45,730.8 521.55,731 521.75,731.2 522,731.4 522.15,731.5 522.35,731.65 522.65,731.9 522.8,731.95 523,732.15 523.3,732.45 523.55,732.7 523.8,732.9 524.05,732.95 524.1,733.1 524.2,733.2 524.35,733.3 529.9,737.85 535.2,741.75 540.35,745.05 L544.35,747.55 C545.9,748.45 547.25,749.15 548.5,749.65 L548.55,749.8 C550.3,750.6 551.95,751.25 553.4,751.75 553.7,751.9 554.1,752 554.6,752 L554.65,752.1 C554.95,752.15 555.45,752.25 556.1,752.4 556.65,752.5 557.15,752.55 557.55,752.5 L557.55,752.65 C559.6,752.7 561.35,752.25 562.7,751.35 563.3,750.8 563.8,750.2 564.25,749.45 564.7,748.7 564.95,747.95 565.05,747.15 565.5,745.9 565.7,744.8 565.55,743.9 565.6,742.75 565.6,741.1 565.55,738.85 L565.4,738.8 C565.45,738.1 565.35,737.25 565.2,736.25 564.95,734.6 564.8,733.8 564.8,733.75 564.2,730.3 563.35,726.6 562.2,722.65 561.35,719.65 560.25,716.05 558.8,711.8 558.65,711.45 558.35,710.65 558,709.5 557.65,708.55 557.35,707.85 557.1,707.3 557,706.9 556.85,706.4 556.6,705.75 556.3,705 556.1,704.5 556.05,704.25 L555.9,704.2 C555.85,703.85 555.8,703.65 555.75,703.5 555.65,703.2 555.55,703 555.4,702.9 555.35,702.65 555.35,702.5 555.35,702.4 555.3,702.2 555.2,702.1 555.1,702.05 555.05,701.85 555.05,701.7 555,701.6 554.95,701.4 554.9,701.3 554.75,701.25 554.75,701.05 554.7,700.85 554.55,700.7 554.55,700.55 554.55,700.4 554.5,700.25 554.45,700.05 554.4,699.95 554.25,699.9 554.3,699.75 554.2,699.55 554.05,699.4 554.1,699.3 554.05,699.2 554,699.05 553.95,698.9 553.85,698.8 553.75,698.75 L553.9,698.1 554.25,698.1 554.25,698 C554.45,698 554.6,697.95 554.75,697.8 554.95,697.65 555.05,697.6 555.1,697.6 555.25,697.55 555.35,697.45 555.4,697.3 555.55,697.3 555.75,697.25 555.9,697.15 556.05,697.05 556.15,696.95 556.2,696.8 556.3,696.75 556.45,696.7 556.65,696.6 556.85,696.55 557,696.45 557.05,696.35 557.2,696.3 557.35,696.2 557.6,696.05 557.85,695.95 558,695.85 558.05,695.7 558.55,695.55 559,695.3 559.35,694.85 559.7,694.75 560.05,694.55 560.5,694.3 560.55,694.25 560.85,694 561.5,693.55 L561.75,693.45 C565.3,691.2 568.35,689.15 570.9,687.35 574.1,685.05 577,682.8 579.6,680.6 579.9,680.35 580.4,679.95 581.05,679.45 581.6,679 582.05,678.55 582.35,678.1 582.6,678.05 582.8,677.9 583.05,677.65 583.4,677.25 583.65,677.05 583.7,677 584.85,675.85 585.65,675 586.1,674.55 587,673.6 587.7,672.7 588.25,671.9 588.6,671.65 588.95,671.2 589.3,670.65 589.45,670.35 589.7,669.9 590.05,669.25 590.3,668.9 590.55,668.5 590.75,668.1 591,667.65 591.15,667.2 591.2,666.8 L591.35,666.75 C591.65,665.7 591.75,664.7 591.7,663.7 591.65,662.6 591.35,661.65 590.8,660.8 590.4,660.35 590.05,659.95 589.8,659.65 589.35,659.25 588.95,658.95 588.55,658.75 588,658.2 587.2,657.75 586.15,657.4 585.3,657 584.75,656.75 584.6,656.7 584,656.45 583.45,656.35 582.95,656.3 582.75,656.15 582.5,656.05 582.2,655.95 581.85,655.9 581.55,655.85 581.35,655.8 580.2,655.5 579.3,655.3 578.75,655.2 577.7,654.95 576.8,654.85 576.05,654.85 575.2,654.6 574.15,654.45 572.8,654.3 571.35,654.2 570.25,654.1 569.55,654 568.8,653.95 567.7,653.85 566.35,653.8 564.85,653.75 563.8,653.7 563.15,653.65 559.4,653.65 556.6,653.65 554.75,653.65 551.45,653.65 548.65,653.7 546.35,653.85 546.1,653.8 545.85,653.85 545.5,653.9 545.15,653.95 544.9,654 544.7,654.05 544.5,654 544.25,653.95 543.95,653.95 543.6,654 543.4,654 543.25,654 543.1,653.95 542.95,653.95 542.8,654 542.65,654.05 542.5,654.1 542.4,654.2 L541.25,654.2 C541.15,654.15 541,654.1 540.85,654.15 540.65,654.2 540.5,654.2 540.45,654.2 540.25,654.15 540.1,654.1 540.05,654.1 539.85,654.15 539.75,654.2 539.75,654.35 539.55,654.3 539.35,654.3 539.1,654.35 L538.6,654.35 538.15,654.05 C538.2,653.85 538.2,653.7 538.2,653.6 538.2,653.45 538.15,653.35 538,653.3 L538,652.85 C538,652.65 537.95,652.4 537.8,652.1 537.75,651.85 537.75,651.7 537.7,651.6 537.7,651.4 537.65,651.25 537.55,651.2 537.55,650.85 537.5,650.5 537.35,650.25 537.35,650.1 537.35,650 537.3,649.85 537.25,649.65 537.2,649.5 537.15,649.45 537.1,649.15 537.1,648.95 537.1,648.9 537.05,648.65 536.95,648.5 536.85,648.4 536.85,647.75 536.75,647.25 536.5,646.8 536.3,645.6 536.05,644.65 535.75,643.95 534.45,638.45 532.55,632.45 530.1,625.9 529.15,623.55 528.5,621.95 528.1,621.05 527.3,619.25 526.5,617.7 525.7,616.4 525.7,616.2 525.65,616 525.5,615.8 525.35,615.55 525.2,615.4 525.15,615.3 524.6,614.4 524.2,613.75 523.9,613.3 523.4,612.55 522.9,611.9 522.45,611.45 L522.4,611.15 C522.25,611.05 521.9,610.65 521.25,610 520.8,609.5 520.35,609.15 519.95,609 519.6,608.55 519.05,608.15 518.35,607.85 517.95,607.7 517.3,607.5 516.45,607.25 515.65,607.15 514.8,607.25 513.9,607.5 513.15,607.75 512.4,608.15 511.65,608.7 L511.6,608.85 C511.35,608.9 511.05,609.1 510.75,609.4 510.35,609.8 510.1,610.05 510.05,610.1 509.85,610.2 509.65,610.4 509.45,610.65 509.25,610.95 509.1,611.15 508.95,611.3 508.5,611.75 508,612.35 507.45,613.1 506.9,614 506.45,614.65 506.2,615.1 506,615.35 505.85,615.55 505.8,615.7 505.65,615.95 505.55,616.2 505.5,616.4 505.3,616.6 505.1,616.9 504.85,617.35 504.65,617.8 504.5,618.1 504.35,618.35 502.4,622.1 500.6,626.35 498.9,631.1 497.6,634.6 496.15,639 494.6,644.35 494.55,644.5 494.5,644.7 494.5,644.95 494.35,645.3 494.2,645.75 494.05,646.3 493.8,647.25 493.7,647.7 493.7,647.75 493.55,647.95 493.45,648.2 493.4,648.55 493.35,648.75 493.3,649.05 493.25,649.4 493.05,649.7 493,650 493.05,650.25 492.8,650.5 492.7,650.9 492.75,651.4 492.6,651.45 492.55,651.6 492.55,651.75 492.55,651.85 492.55,652 492.55,652.15 492.45,652.25 492.4,652.4 492.35,652.65 492.3,652.8 492.3,652.95 492.25,653.2 492.1,653.45 492.05,653.65 492.05,653.85 L491.9,654.35 C491.85,654.7 491.8,654.9 491.8,655.05 491.7,655.15 491.6,655.25 491.45,655.35 491.2,655.3 491,655.3 490.8,655.35 490.6,655.3 490.45,655.2 490.3,655.15 490.1,655.15 489.95,655.15 489.85,655.1 489.7,655.1 489.6,655.1 489.45,655.15 489.3,655.15 489.15,655.15 489.05,655.1 488.9,655.1 488.75,655.15 488.65,655.2 488.4,654.95 488.15,654.9 488,655 487.55,654.95 487.1,654.95 486.65,655 486.35,654.75 486,654.7 485.55,654.85 485.15,654.8 484.85,654.75 484.65,654.7 484.3,654.65 483.95,654.65 483.7,654.7 482.4,654.55 480.7,654.45 478.6,654.4 475.9,654.3 474.2,654.25 473.45,654.2 471.55,654.15 470.15,654.1 469.3,654.1 467.75,654.1 466.35,654.15 465.15,654.3 462.2,654.3 459.6,654.45 457.3,654.8 454.05,655.05 451.4,655.5 449.25,656.15 447.7,656.4 446.5,656.75 445.65,657.3 445.1,657.45 444.6,657.6 444.15,657.85 443.65,658.1 443.2,658.4 442.85,658.75 442.45,658.9 442.05,659.2 441.65,659.6 441.5,659.75 441.2,660.1 440.65,660.7 439.55,662.15 439.35,664.2 440.05,666.75 L440.15,666.8z"/>
    </g>
  </g>
  <g id="Calque.__202">
    <g id="shape20">
      <path id="path16" fill="#FFFFFF" fill-opacity="0.2980392156862745" d="M437.25,197.35 Q426.65,190.2 414.2,192.65 C359.95,203.15 312.05,229.15 270.6,270.6 214.95,326.2 187.15,393.45 187.15,472.4 187.3,480.8 190.3,487.9 196.15,493.75 202.15,499.75 209.4,502.75 217.9,502.8 226.4,502.75 233.65,499.75 239.65,493.75 245.65,487.75 248.65,480.5 248.7,472 248.65,410.35 270.45,357.7 314.1,314.15 L314.1,314.1 C346.45,281.75 383.75,261.4 426,253.05 434.35,251.4 440.9,247.05 445.65,240 450.4,232.95 451.95,225.25 450.3,216.95 448.65,208.6 444.3,202.1 437.25,197.35z"/>
    </g>
  </g>
</svg>