<?xml version="1.0" encoding="utf-8"?>
<!-- Generator: flash2svg, http://dissentgraphics.com/tools/flash2svg -->
<svg xmlns:xlink="http://www.w3.org/1999/xlink" id="Eyeball" image-rendering="optimizeSpeed" baseProfile="basic" version="1.1" style="background-color:#ffffff" x="0px" y="0px" width="1024px" height="1024px" viewBox="0 0 1024 1024" enable-background="new 0 0 1024 1024" xmlns="http://www.w3.org/2000/svg">
  <defs transform="matrix(1 0 0 1 0 0) "/>
  <g id="shadow">
    <g id="shape">
      <path id="path" fill="#000000" fill-opacity="0.09803921568627451" d="M969.65,351.3 Q961.05,330.45 950.25,310.45 C946.2,302.9 941.9,295.4 937.35,288.05 917.8,256.35 893.95,226.4 865.8,198.25 773.65,106.1 662.35,60 532,60 401.65,60 290.4,106.1 198.25,198.25 106.1,290.4 60,401.65 60,532 60,662.35 106.1,773.65 198.25,865.8 290.4,957.95 401.65,1004 532,1004 662.35,1004 773.65,957.95 865.8,865.8 916.55,815 953.35,758.4 976.15,696.05 994.7,645.2 1004,590.55 1004,532 1004,487.1 998.55,444.45 987.6,404.05 986.35,399.5 985.05,394.95 983.7,390.45 979.6,377.15 974.9,364.1 969.65,351.3z"/>
    </g>
  </g>
  <g id="inner.__20circle">
    <g id="shape2">
      <path id="path1" fill="#CCCCCC" fill-opacity="1" d="M969.75,392.05 C968.65,387.7 967.4,383.05 966.1,378.45 963.6,369.7 960.75,360.85 957.65,352.1 951.2,333.85 943.5,316.05 934.5,298.45 930.7,291.05 926.55,283.5 922.2,276.05 901.9,241.55 876.4,208.85 845.85,178.3 773.25,105.7 688.7,61.65 592.2,46.25 575.95,43.65 559.4,41.85 542.15,40.9 532.25,40.35 522.25,40.05 512.15,40.05 L512.15,304.05 C522.3,304.05 532.3,304.25 542.15,304.6 636.7,308.1 718.25,328.2 786.95,364.95 812.85,378.85 834.3,393.65 851.05,409.15 855,412.8 858.55,416.35 861.9,419.95 887.95,448.05 900.8,478.6 900.8,512.05 900.8,569.5 862.85,618.5 786.95,659.1 718.3,695.85 636.75,715.95 542.15,719.5 532.3,719.85 522.3,720.05 512.15,720.05 L512.15,984.05 C522.3,984.05 532.3,983.8 542.15,983.25 544.65,983.1 546.9,982.95 549.1,982.8 569.3,981.35 589,978.75 607.8,975.1 615.75,973.55 623.6,971.8 631.2,969.95 712,949.65 783.35,908.35 845.85,845.85 894.45,797.25 930.25,743.35 953.2,684.05 971.65,636.4 981.85,585.25 983.75,530.55 983.95,524.5 984.05,518.3 984.05,512.05 984.05,511.4 984.05,510.7 984.05,510.05 984.05,509.7 984.05,509.4 984.05,509.05 983.85,468.4 979.1,429.55 969.75,392.05z"/>
      <path id="path5" fill="#FFFFFF" fill-opacity="1" d="M512.15,40.05 C512.1,40.05 512.1,40.05 512.05,40.05 502.7,40.05 493.45,40.3 484.15,40.8 365.8,46.9 263.85,92.75 178.3,178.3 Q40.05,316.55 40.05,512.05 C40.05,642.4 86.15,753.7 178.3,845.85 263.85,931.35 365.8,977.2 484.15,983.35 484.3,983.35 484.4,983.35 484.55,983.35 493.05,983.8 501.15,984.05 509.05,984.05 510.25,984.05 511.15,984.05 512.05,984.05 512.1,984.05 512.1,984.05 512.15,984.05 L512.15,720.05 C512.1,720.05 512.1,720.05 512.05,720.05 502.75,720.05 493.6,719.9 484.15,719.6 389,716.4 306.5,696.25 237.15,659.1 205.8,642.35 180.9,624.15 162.25,604.15 162.1,604 162,603.9 161.85,603.75 136.15,576.05 123.3,545.5 123.3,512.05 123.3,454.6 161.25,405.6 237.15,364.95 306.4,327.9 388.8,307.75 484.15,304.55 493.4,304.2 502.65,304.05 512.05,304.05 512.1,304.05 512.1,304.05 512.15,304.05 L512.15,40.05z"/>
    </g>
  </g>
  <g id="Calque.__204">
    <g id="shape9">
      <path id="path6" fill="#CCCCCC" fill-opacity="1" d="M786.95,659.1 Q900.8,598.2 900.8,512.05 C900.8,454.6 862.85,405.6 786.95,364.95 711.05,324.35 619.4,304.05 512.05,304.05 L512.05,720.05 C619.4,720.05 711.05,699.75 786.95,659.1z"/>
      <path id="path7" fill="#FFFFFF" fill-opacity="1" d="M123.3,512.05 C123.3,569.5 161.25,618.5 237.15,659.1 313.05,699.75 404.7,720.05 512.05,720.05 L512.05,304.05 C404.7,304.05 313.05,324.35 237.15,364.95 161.25,405.6 123.3,454.6 123.3,512.05z"/>
    </g>
  </g>
  <g id="bg.__20circle">
    <g id="Symbole.__203_1" overflow="visible">
      <g id="Calque.__206">
        <g id="shape25">
          <path id="path18" fill="#00A1C9" fill-opacity="1" d="M512,513.621 L520.012,513.621 512,509.682 512,513.621z M537.037,275.468 Q524.752,274.2 512,274.2 L512,360.061 C520.145,360.061 528.024,360.661 535.501,361.93 538.239,354.052 542.979,346.707 549.522,340.164 561.206,328.48 575.294,322.672 591.785,322.672 608.276,322.672 622.364,328.48 634.048,340.164 645.731,351.848 651.54,365.936 651.54,382.427 651.54,398.918 645.731,413.006 634.048,424.69 632.645,426.092 631.243,427.36 629.841,428.562 641.258,448.658 646.867,470.624 646.867,494.927 646.867,532.182 633.714,563.963 607.341,590.268 581.036,616.641 549.255,629.794 512,629.794 L512,724.2 C520.479,724.2 528.825,723.799 537.037,722.998 549.055,721.796 560.739,719.66 572.022,716.656 609.01,706.841 642.059,687.345 671.102,658.302 715.034,614.371 737,561.359 737,499.2 737,437.041 715.034,384.029 671.102,340.098 633.18,302.175 588.513,280.609 537.037,275.468z M690.398,430.699 C694.737,435.038 696.941,440.313 696.941,446.522 696.941,452.731 694.737,458.006 690.398,462.345 686.058,466.685 680.783,468.888 674.574,468.888 668.365,468.888 663.091,466.685 658.751,462.345 654.411,458.006 652.208,452.731 652.208,446.522 652.208,440.313 654.411,435.038 658.751,430.699 663.091,426.359 668.365,424.155 674.574,424.155 680.783,424.155 686.058,426.359 690.398,430.699z"/>
          <path id="path19" fill="#00CCFF" fill-opacity="1" d="M512,360.061 L512,274.2 C449.841,274.2 396.829,296.166 352.898,340.098 308.966,384.029 287,437.041 287,499.2 287,561.359 308.966,614.371 352.898,658.302 396.829,702.234 449.841,724.2 512,724.2 L512,629.794 C474.745,629.794 442.964,616.641 416.592,590.268 394.76,568.436 382.007,542.931 378.335,513.621 L512,513.621 512,509.682 385.346,447.39 C391.889,429.831 402.304,413.874 416.592,399.519 442.964,373.213 474.745,360.061 512,360.061z"/>
          <path id="path20" fill="#FFFFFF" fill-opacity="1" d="M690.398,430.699 C686.058,426.359 680.783,424.155 674.574,424.155 668.365,424.155 663.091,426.359 658.751,430.699 654.411,435.038 652.208,440.313 652.208,446.522 652.208,452.731 654.411,458.006 658.751,462.345 663.091,466.685 668.365,468.888 674.574,468.888 680.783,468.888 686.058,466.685 690.398,462.345 694.737,458.006 696.941,452.731 696.941,446.522 696.941,440.313 694.737,435.038 690.398,430.699z M549.522,340.164 C542.979,346.707 538.239,354.052 535.501,361.93 533.165,368.473 532.03,375.216 532.03,382.427 532.03,398.918 537.838,413.006 549.522,424.69 561.206,436.374 575.294,442.182 591.785,442.182 606.34,442.182 619.025,437.642 629.841,428.562 631.243,427.36 632.645,426.092 634.048,424.69 645.731,413.006 651.54,398.918 651.54,382.427 651.54,365.936 645.731,351.848 634.048,340.164 622.364,328.48 608.276,322.672 591.785,322.672 575.294,322.672 561.206,328.48 549.522,340.164z"/>
          <path id="path21" fill="#000000" fill-opacity="1" d="M535.501,361.93 C528.024,360.661 520.145,360.061 512,360.061 474.745,360.061 442.964,373.213 416.592,399.519 402.304,413.874 391.889,429.831 385.346,447.39 L512,509.682 520.012,513.621 512,513.621 378.335,513.621 C382.007,542.931 394.76,568.436 416.592,590.268 442.964,616.641 474.745,629.794 512,629.794 549.255,629.794 581.036,616.641 607.341,590.268 633.714,563.963 646.867,532.182 646.867,494.927 646.867,470.624 641.258,448.658 629.841,428.562 619.025,437.642 606.34,442.182 591.785,442.182 575.294,442.182 561.206,436.374 549.522,424.69 537.838,413.006 532.03,398.918 532.03,382.427 532.03,375.216 533.165,368.473 535.501,361.93z"/>
        </g>
      </g>
    </g>
  </g>
</svg>