<?xml version="1.0" encoding="utf-8"?>
<!-- Generator: flash2svg, http://dissentgraphics.com/tools/flash2svg -->
<svg xmlns:xlink="http://www.w3.org/1999/xlink" id="Home" image-rendering="optimizeSpeed" baseProfile="basic" version="1.1" style="background-color:#ffffff" x="0px" y="0px" width="1024px" height="1024px" viewBox="0 0 1024 1024" enable-background="new 0 0 1024 1024" xmlns="http://www.w3.org/2000/svg">
  <defs transform="matrix(1 0 0 1 0 0) "/>
  <g id="shadow">
    <g id="shape">
      <path id="path" fill="#000000" fill-opacity="0.09803921568627451" d="M969.65,351.3 Q961.05,330.45 950.25,310.45 C946.2,302.9 941.9,295.4 937.35,288.05 917.8,256.35 893.95,226.4 865.8,198.25 773.65,106.1 662.35,60 532,60 401.65,60 290.4,106.1 198.25,198.25 106.1,290.4 60,401.65 60,532 60,662.35 106.1,773.65 198.25,865.8 290.4,957.95 401.65,1004 532,1004 662.35,1004 773.65,957.95 865.8,865.8 916.55,815 953.35,758.4 976.15,696.05 994.7,645.2 1004,590.55 1004,532 1004,487.1 998.55,444.45 987.6,404.05 986.35,399.5 985.05,394.95 983.7,390.45 979.6,377.15 974.9,364.1 969.65,351.3z"/>
    </g>
  </g>
  <g id="bg">
    <g id="shape2">
      <path id="path1" fill="#638EC1" fill-opacity="1" d="M962.95,367.95 C961.35,362.8 959.55,357.45 957.65,352.1 951.2,333.85 943.5,316.05 934.5,298.45 930.7,291.05 926.55,283.5 922.2,276.05 901.9,241.55 876.4,208.85 845.85,178.3 773.25,105.7 688.7,61.65 592.2,46.25 575.95,43.65 559.4,41.85 542.15,40.9 532.45,40.35 522.3,40.05 512.05,40.05 502.7,40.05 493.45,40.3 484.15,40.8 365.8,46.9 263.85,92.75 178.3,178.3 Q40.05,316.55 40.05,512.05 C40.05,642.4 86.15,753.7 178.3,845.85 235,902.5 298.85,941.75 369.4,963.4 406.15,974.65 444.2,981.25 484.15,983.35 484.3,983.35 484.4,983.35 484.55,983.35 493.05,983.8 501.15,984.05 509.05,984.05 510.25,984.05 511.15,984.05 512.05,984.05 522.35,984.05 532.55,983.75 542.15,983.25 544.65,983.1 546.9,982.95 549.1,982.8 569.3,981.35 589,978.75 607.8,975.1 615.75,973.55 623.6,971.8 631.2,969.95 712,949.65 783.35,908.35 845.85,845.85 894.45,797.25 930.25,743.35 953.2,684.05 971.65,636.4 981.85,585.25 983.75,530.55 983.95,524.5 984.05,518.3 984.05,512.05 984.05,511.4 984.05,510.7 984.05,510.05 984.05,509.7 984.05,509.4 984.05,509.05 983.85,468.4 979.1,429.55 969.75,392.05 968.65,387.7 967.4,383.05 966.1,378.45 965.1,375.05 964.1,371.6 962.95,367.95z"/>
    </g>
  </g>
  <mask id="bg1">
    <g id="g">
      <g id="shape12">
        <path id="path8" fill="#FFFFFF" fill-opacity="1" d="M969.75,392.05 C968.65,387.7 967.4,383.05 966.1,378.45 965.1,375.05 964.1,371.6 962.95,367.95 961.35,362.8 959.55,357.45 957.65,352.1 951.2,333.85 943.5,316.05 934.5,298.45 930.7,291.05 926.55,283.5 922.2,276.05 901.9,241.55 876.4,208.85 845.85,178.3 773.25,105.7 688.7,61.65 592.2,46.25 575.95,43.65 559.4,41.85 542.15,40.9 532.45,40.35 522.3,40.05 512.05,40.05 502.7,40.05 493.45,40.3 484.15,40.8 365.8,46.9 263.85,92.75 178.3,178.3 Q40.05,316.55 40.05,512.05 C40.05,642.4 86.15,753.7 178.3,845.85 235,902.5 298.85,941.75 369.4,963.4 406.15,974.65 444.2,981.25 484.15,983.35 484.3,983.35 484.4,983.35 484.55,983.35 493.05,983.8 501.15,984.05 509.05,984.05 510.25,984.05 511.15,984.05 512.05,984.05 522.35,984.05 532.55,983.75 542.15,983.25 544.65,983.1 546.9,982.95 549.1,982.8 569.3,981.35 589,978.75 607.8,975.1 615.75,973.55 623.6,971.8 631.2,969.95 712,949.65 783.35,908.35 845.85,845.85 894.45,797.25 930.25,743.35 953.2,684.05 971.65,636.4 981.85,585.25 983.75,530.55 983.95,524.5 984.05,518.3 984.05,512.05 984.05,511.4 984.05,510.7 984.05,510.05 984.05,509.7 984.05,509.4 984.05,509.05 983.85,468.4 979.1,429.55 969.75,392.05z"/>
      </g>
    </g>
  </mask>
  <g id="masked" mask="url(#bg1)">
    <g id="Calque.__203">
      <g id="shape4">
        <path id="path2" fill="#28293C" fill-opacity="1" d="M1094.65,178.35 C1088.95,172.6 1082.05,169.75 1074,169.75 L619.9,169.75 708.3,258.15 1103.25,258.15 1103.25,250.1 1103.25,199 Q1103.25,186.9 1094.65,178.35z"/>
        <path id="path3" fill="#FFFFFF" fill-opacity="1" d="M1103.25,308.15 L1103.25,258.15 708.3,258.15 758.3,308.15 1103.25,308.15z"/>
        <path id="path4" fill="#E4E4E4" fill-opacity="1" d="M758.3,308.15 L708.3,258.15 334.1,258.15 334.1,308.15 758.3,308.15z"/>
        <path id="path5" fill="#3E5675" fill-opacity="1" d="M758.3,308.15 L1103.25,653.1 1103.25,308.15 758.3,308.15z"/>
        <path id="path6" fill="#2D415A" fill-opacity="1" d="M1103.25,653.1 L758.3,308.15 334.1,308.15 334.1,1025.35 339.35,1025.35 678.95,1025.35 1074,1025.35 C1080.2,1025.35 1085.7,1023.65 1090.45,1020.3 1091.9,1019.25 1093.3,1018.1 1094.65,1016.75 1100.4,1011.05 1103.25,1004.15 1103.25,996.1 L1103.25,653.1z"/>
        <path id="path7" fill="#171922" fill-opacity="1" d="M334.1,308.15 L334.1,258.15 708.3,258.15 619.9,169.75 264.3,169.75 C257.4,169.75 251.35,171.85 246.2,176.05 245.35,176.75 244.5,177.5 243.65,178.35 237.9,184.05 235.05,190.95 235.05,199 L235.05,996.1 C235.05,1004.15 237.9,1011.05 243.65,1016.75 249.35,1022.5 256.25,1025.35 264.3,1025.35 L334.1,1025.35 334.1,308.15z"/>
      </g>
    </g>
  </g>
  <g id="Calque.__204">
    <g id="shape14">
      <path id="path9" fill="#282B3A" fill-opacity="1" d="M354.1,282.1 Q354.1,288.7 358.75,293.35 C361.9,296.5 365.65,298.05 370.05,298.05 374.45,298.05 378.2,296.5 381.3,293.35 384.45,290.25 386,286.5 386,282.1 386,277.7 384.45,273.95 381.3,270.8 378.2,267.7 374.45,266.15 370.05,266.15 365.65,266.15 361.9,267.7 358.75,270.8 355.65,273.95 354.1,277.7 354.1,282.1z"/>
    </g>
  </g>
  <g id="Calque.__205">
    <g id="Symbole.__2022_1" overflow="visible">
      <g id="Calque.__210">
        <g id="shape27">
          <path id="path18" fill="#000000" fill-opacity="0.2980392156862745" d="M507.5,391.75 C507.5,385.1 504.15,381.75 497.5,381.75 L451.75,381.75 451.5,381.75 417.5,415.75 417.5,506.75 C417.5,513.4 420.85,516.75 427.5,516.75 L497.5,516.75 C504.15,516.75 507.5,513.4 507.5,506.75 L507.5,391.75z M403,539.75 L403,556.9 522,556.9 522,539.75 403,539.75z"/>
        </g>
      </g>
      <g id="Calque.__211">
        <g id="shape28">
          <path id="path19" fill="#FFFFFF" fill-opacity="1" d="M512,546.9 L512,529.75 393,529.75 393,546.9 512,546.9z"/>
        </g>
        <g id="Symbole.__2026_2" overflow="visible">
          <g id="Calque.__212">
            <g id="shape29">
              <path id="path20" fill="#638EC1" fill-opacity="1" d="M497.5,381.85 C497.5,375.2 494.15,371.85 487.5,371.85 L441.75,371.85 441.75,395.85 C441.75,402.5 438.4,405.85 431.75,405.85 L407.5,405.85 407.5,496.85 C407.5,503.5 410.85,506.85 417.5,506.85 L487.5,506.85 C494.15,506.85 497.5,503.5 497.5,496.85 L497.5,381.85z"/>
              <path id="path21" fill="#76ABED" fill-opacity="1" d="M441.75,371.85 L441.5,371.85 407.5,405.85 431.75,405.85 C438.4,405.85 441.75,402.5 441.75,395.85 L441.75,371.85z"/>
            </g>
          </g>
        </g>
      </g>
    </g>
    <g id="Symbole.__2022_2" overflow="visible">
      <g id="Calque.__213">
        <g id="shape30">
          <path id="path22" fill="#000000" fill-opacity="0.2980392156862745" d="M507.5,598.45 C507.5,591.8 504.15,588.45 497.5,588.45 L451.75,588.45 451.5,588.45 417.5,622.45 417.5,713.45 C417.5,720.1 420.85,723.45 427.5,723.45 L497.5,723.45 C504.15,723.45 507.5,720.1 507.5,713.45 L507.5,598.45z M403,746.45 L403,763.6 522,763.6 522,746.45 403,746.45z"/>
        </g>
      </g>
      <g id="Calque.__214">
        <g id="shape31">
          <path id="path23" fill="#FFFFFF" fill-opacity="1" d="M512,753.6 L512,736.45 393,736.45 393,753.6 512,753.6z"/>
        </g>
        <g id="Symbole.__2026_3" overflow="visible">
          <g id="Calque.__215">
            <g id="shape32">
              <path id="path24" fill="#638EC1" fill-opacity="1" d="M497.5,588.55 C497.5,581.9 494.15,578.55 487.5,578.55 L441.75,578.55 441.75,602.55 C441.75,609.2 438.4,612.55 431.75,612.55 L407.5,612.55 407.5,703.55 C407.5,710.2 410.85,713.55 417.5,713.55 L487.5,713.55 C494.15,713.55 497.5,710.2 497.5,703.55 L497.5,588.55z"/>
              <path id="path25" fill="#76ABED" fill-opacity="1" d="M441.75,578.55 L441.5,578.55 407.5,612.55 431.75,612.55 C438.4,612.55 441.75,609.2 441.75,602.55 L441.75,578.55z"/>
            </g>
          </g>
        </g>
      </g>
    </g>
    <g id="Symbole.__2022_3" overflow="visible">
      <g id="Calque.__216">
        <g id="shape33">
          <path id="path26" fill="#000000" fill-opacity="0.2980392156862745" d="M653,391.75 C653,385.1 649.65,381.75 643,381.75 L597.25,381.75 597,381.75 563,415.75 563,506.75 C563,513.4 566.35,516.75 573,516.75 L643,516.75 C649.65,516.75 653,513.4 653,506.75 L653,391.75z M548.5,539.75 L548.5,556.9 667.5,556.9 667.5,539.75 548.5,539.75z"/>
        </g>
      </g>
      <g id="Calque.__217">
        <g id="shape34">
          <path id="path27" fill="#FFFFFF" fill-opacity="1" d="M657.5,546.9 L657.5,529.75 538.5,529.75 538.5,546.9 657.5,546.9z"/>
        </g>
        <g id="Symbole.__2026_4" overflow="visible">
          <g id="Calque.__218">
            <g id="shape35">
              <path id="path28" fill="#638EC1" fill-opacity="1" d="M643,381.85 C643,375.2 639.65,371.85 633,371.85 L587.25,371.85 587.25,395.85 C587.25,402.5 583.9,405.85 577.25,405.85 L553,405.85 553,496.85 C553,503.5 556.35,506.85 563,506.85 L633,506.85 C639.65,506.85 643,503.5 643,496.85 L643,381.85z"/>
              <path id="path29" fill="#76ABED" fill-opacity="1" d="M587.25,371.85 L587,371.85 553,405.85 577.25,405.85 C583.9,405.85 587.25,402.5 587.25,395.85 L587.25,371.85z"/>
            </g>
          </g>
        </g>
      </g>
    </g>
  </g>
</svg>