<?xml version="1.0" encoding="utf-8"?>
<!-- Generator: flash2svg, http://dissentgraphics.com/tools/flash2svg -->
<svg id="Neutron" image-rendering="optimizeSpeed" baseProfile="basic" version="1.1" style="background-color:#FFFFFF" x="0px" y="0px" width="1024px" height="1024px" viewBox="0 0 1024 1024" enable-background="new 0 0 1024 1024" xmlns="http://www.w3.org/2000/svg" xmlns:xlink="http://www.w3.org/1999/xlink">
  <defs transform="matrix(1 0 0 1 0 0) "/>
  <g id="shadow">
    <g id="shape">
      <path id="path" fill="#000000" fill-opacity="0.09803921568627451" d="M969.6,351.25 Q961,330.4 950.2,310.4 C946.15,302.85 941.85,295.35 937.3,288 917.75,256.3 893.9,226.35 865.75,198.2 773.6,106.05 662.3,59.95 531.95,59.95 401.6,59.95 290.35,106.05 198.2,198.2 106.05,290.35 59.95,401.6 59.95,531.95 59.95,662.3 106.05,773.6 198.2,865.75 290.35,957.9 401.6,1003.95 531.95,1003.95 662.3,1003.95 773.6,957.9 865.75,865.75 916.5,814.95 953.3,758.35 976.1,696 994.65,645.15 1003.95,590.5 1003.95,531.95 1003.95,487.05 998.5,444.4 987.55,404 986.3,399.45 985,394.9 983.65,390.4 979.55,377.1 974.85,364.05 969.6,351.25z"/>
    </g>
  </g>
  <g id="bg">
    <g id="shape2">
      <path id="path1" fill="#95AA79" fill-opacity="1" d="M681,328 L805,346 983.85,524.85 C983.95,520.65 984,516.35 984,512 984,511.35 984,510.65 984,510 984,509.65 984,509.35 984,509 983.8,468.35 979.05,429.5 969.7,392 968.6,387.65 967.35,383 966.05,378.4 963.55,369.65 960.7,360.8 957.6,352.05 951.15,333.8 943.45,316 934.45,298.4 930.65,291 926.5,283.45 922.15,276 901.85,241.5 876.35,208.8 845.8,178.25 773.2,105.65 688.65,61.6 592.15,46.2 575.9,43.6 559.35,41.8 542.1,40.85 532.4,40.3 522.25,40 512,40 502.65,40 493.4,40.25 484.1,40.75 365.75,46.85 263.8,92.7 178.25,178.25 Q40,316.5 40,512 C40,642.35 86.1,753.65 178.25,845.8 263.8,931.3 365.75,977.15 484.1,983.3 484.25,983.3 484.35,983.3 484.5,983.3 493,983.75 501.1,984 509,984 510.2,984 511.1,984 512,984 515.15,984 518.25,983.95 520.95,983.95 L520.925,983.925 L221,684 260,580 342.55,507.2 224.075,374.225 245.475,333 429,363 474,205 513.175,188.55 564,211 681,328z"/>
      <path id="path2" fill="#778860" fill-opacity="1" d="M805,346 L681,328 564,211 513.175,188.55 474,205 429,363 245.475,333 224.075,374.225 342.55,507.2 260,580 221,684 520.925,983.925 L520.95,983.95 C528.45,983.8 535.4,983.55 542.1,983.2 544.6,983.05 546.85,982.9 549.05,982.75 569.25,981.3 588.95,978.7 607.75,975.05 615.7,973.5 623.55,971.75 631.15,969.9 711.95,949.6 783.3,908.3 845.8,845.8 894.4,797.2 930.2,743.3 953.15,684 971.6,636.35 981.8,585.2 983.7,530.5 983.75,528.65 983.8,526.8 983.85,524.85 L805,346z"/>
    </g>
  </g>
  <g id="Calque.__203">
    <g id="Symbole.__206_1" overflow="visible">
      <g id="Calque.__213">
        <g id="Symbole.__208_4" overflow="visible">
          <g id="Calque.__214">
            <g id="shape24">
              <path id="path18" fill="#FFFFFF" fill-opacity="1" d="M616,512 C616,421 606.85,343.3 588.6,278.95 568.45,207.9 542.95,173.25 512,175 481.05,173.25 455.55,207.9 435.4,278.95 417.15,343.3 408,421 408,512 408,603 417.15,680.7 435.4,745.1 455.55,816.15 481.05,850.75 512,849 542.95,850.75 568.45,816.15 588.6,745.1 606.85,680.7 616,603 616,512z M565.5,285.5 C583.15,348.05 592,423.55 592,512 592,600.45 583.15,676 565.5,738.55 549.65,794.5 531.85,823.35 512,825 492.15,823.35 474.35,794.5 458.5,738.55 440.85,676 432,600.45 432,512 432,423.55 440.85,348.05 458.5,285.5 474.35,229.5 492.15,200.65 512,199 Q541.735,201.517 565.5,285.475z"/>
            </g>
          </g>
        </g>
        <g id="Symbole.__208_5" overflow="visible">
          <g id="Calque.__215">
            <g id="shape25">
              <path id="path19" fill="#FFFFFF" fill-opacity="1" d="M459.999,602.135 C381.193,556.635 318.48,509.862 271.878,461.882 220.424,408.907 203.168,369.499 220.158,343.572 234.118,315.894 276.874,311.136 348.478,329.211 413.33,345.582 485.193,376.508 563.999,422.008 642.805,467.508 705.518,514.282 752.163,562.286 803.617,615.261 820.831,654.644 803.84,680.572 789.881,708.249 747.167,713.032 675.563,694.957 610.668,678.562 538.805,647.635 459.999,602.135z M289.101,445.153 C334.444,491.712 395.402,537.127 471.999,581.352 548.597,625.577 618.448,655.687 681.441,671.678 737.818,685.927 771.702,684.937 783.056,668.572 791.552,650.557 775.468,620.717 734.941,579.016 689.598,532.456 628.597,487.017 551.999,442.792 475.402,398.567 405.594,368.481 342.601,352.491 286.18,338.217 252.296,339.207 240.942,355.572 Q228.254,382.58 289.079,445.14z"/>
            </g>
          </g>
        </g>
        <g id="Symbole.__208_6" overflow="visible">
          <g id="Calque.__216">
            <g id="shape26">
              <path id="path20" fill="#FFFFFF" fill-opacity="1" d="M564.001,602.135 C642.807,556.635 705.52,509.862 752.122,461.882 803.576,408.907 820.832,369.499 803.842,343.572 789.882,315.894 747.126,311.136 675.522,329.211 610.67,345.582 538.807,376.508 460.001,422.008 381.195,467.508 318.482,514.282 271.837,562.286 220.383,615.261 203.169,654.644 220.16,680.572 234.119,708.249 276.833,713.032 348.437,694.957 413.332,678.562 485.195,647.635 564.001,602.135z M734.899,445.153 C689.556,491.712 628.598,537.127 552.001,581.352 475.403,625.577 405.552,655.687 342.559,671.678 286.182,685.927 252.298,684.937 240.944,668.572 232.448,650.557 248.532,620.717 289.059,579.016 334.402,532.456 395.403,487.017 472.001,442.792 548.598,398.567 618.406,368.481 681.399,352.491 737.82,338.217 771.704,339.207 783.058,355.572 Q795.746,382.58 734.921,445.14z"/>
            </g>
          </g>
        </g>
        <g id="Symbole.__212_2" overflow="visible">
          <g id="Calque.__217">
            <g id="shape27">
              <path id="path21" fill="#72193A" fill-opacity="1" d="M549.45,549.45 Q565,533.95 565,512 C565,497.35 559.8,484.85 549.45,474.5 539.1,464.15 526.65,459 512,459 497.35,459 484.85,464.15 474.5,474.5 464.15,484.85 459,497.35 459,512 459,526.65 464.15,539.1 474.5,549.45 484.85,559.8 497.35,565 512,565 526.65,565 539.1,559.8 549.45,549.45z"/>
            </g>
          </g>
        </g>
        <g id="Symbole.__214_2" overflow="visible">
          <g id="Calque.__218">
            <g id="shape28">
              <path id="path22" fill="#F0E070" fill-opacity="1" d="M780.5,450 Q780.5,435.3 770.1,424.9 C763.15,417.95 754.8,414.5 745,414.5 735.2,414.5 726.85,417.95 719.9,424.9 712.95,431.85 709.5,440.2 709.5,450 709.5,459.8 712.95,468.15 719.9,475.1 726.85,482.05 735.2,485.5 745,485.5 754.8,485.5 763.15,482.05 770.1,475.1 777.05,468.15 780.5,459.8 780.5,450z M375,337.5 C375,327.7 371.55,319.35 364.6,312.4 357.65,305.45 349.3,302 339.5,302 329.7,302 321.35,305.45 314.4,312.4 307.45,319.35 304,327.7 304,337.5 304,347.3 307.45,355.65 314.4,362.6 321.35,369.55 329.7,373 339.5,373 349.3,373 357.65,369.55 364.6,362.6 371.55,355.65 375,347.3 375,337.5z M614.5,736 C614.5,726.2 611.05,717.85 604.1,710.9 597.15,703.95 588.8,700.5 579,700.5 569.2,700.5 560.85,703.95 553.9,710.9 546.95,717.85 543.5,726.2 543.5,736 543.5,745.8 546.95,754.15 553.9,761.1 560.85,768.05 569.2,771.5 579,771.5 588.8,771.5 597.15,768.05 604.1,761.1 611.05,754.15 614.5,745.8 614.5,736z"/>
            </g>
          </g>
        </g>
      </g>
    </g>
  </g>
</svg>