<?xml version="1.0" encoding="utf-8"?>
<!-- Generator: flash2svg, http://dissentgraphics.com/tools/flash2svg -->
<svg id="Pokeball" image-rendering="optimizeSpeed" baseProfile="basic" version="1.1" style="background-color:#FFFFFF" x="0px" y="0px" width="1024px" height="1024px" viewBox="0 0 1024 1024" enable-background="new 0 0 1024 1024" xmlns="http://www.w3.org/2000/svg" xmlns:xlink="http://www.w3.org/1999/xlink">
  <defs transform="matrix(1 0 0 1 0 0) "/>
  <g id="shadow">
    <g id="shape">
      <path id="path" fill="#000000" fill-opacity="0.09803921568627451" d="M969.6,351.25 Q961,330.4 950.2,310.4 C946.15,302.85 941.85,295.35 937.3,288 917.75,256.3 893.9,226.35 865.75,198.2 773.6,106.05 662.3,59.95 531.95,59.95 401.6,59.95 290.35,106.05 198.2,198.2 106.05,290.35 59.95,401.6 59.95,531.95 59.95,662.3 106.05,773.6 198.2,865.75 290.35,957.9 401.6,1003.95 531.95,1003.95 662.3,1003.95 773.6,957.9 865.75,865.75 916.5,814.95 953.3,758.35 976.1,696 994.65,645.15 1003.95,590.5 1003.95,531.95 1003.95,487.05 998.5,444.4 987.55,404 986.3,399.45 985,394.9 983.65,390.4 979.55,377.1 974.85,364.05 969.6,351.25z"/>
    </g>
  </g>
  <g id="bg">
    <g id="shape2">
      <path id="path1" fill="#E4E4E4" fill-opacity="1" d="M969.7,392 C968.6,387.65 967.35,383 966.05,378.4 965.2,375.4 964.3,372.35 963.35,369.35 L830,236 210,798 360.5,960.5 C399.7,973.5 440.8,981.05 484.1,983.3 484.25,983.3 484.35,983.3 484.5,983.3 486.7,983.4 488.85,983.5 490.6,983.6 497.2,983.85 503.15,984 509,984 510.2,984 511.1,984 512,984 522.3,984 532.5,983.7 542.1,983.2 544.6,983.05 546.85,982.9 549.05,982.75 569.25,981.3 588.95,978.7 607.75,975.05 615.7,973.5 623.55,971.75 631.15,969.9 711.95,949.6 783.3,908.3 845.8,845.8 894.4,797.2 930.2,743.3 953.15,684 971.6,636.35 981.8,585.2 983.7,530.5 983.9,524.45 984,518.25 984,512 984,511.35 984,510.65 984,510 984,509.65 984,509.35 984,509 983.95,504.35 983.85,499.75 983.75,494.75 983.7,494.25 983.7,493.5 983.7,492.7 982.45,458.05 977.8,424.5 969.7,392z"/>
      <path id="path2" fill="#FFFFFF" fill-opacity="1" d="M963.35,369.35 C961.55,363.55 959.65,357.8 957.6,352.05 951.15,333.8 943.45,316 934.45,298.4 930.65,291 926.5,283.45 922.15,276 901.85,241.5 876.35,208.8 845.8,178.25 773.2,105.65 688.65,61.6 592.15,46.2 575.9,43.6 559.35,41.8 542.1,40.85 532.4,40.3 522.25,40 512,40 502.65,40 493.4,40.25 484.1,40.75 365.75,46.85 263.8,92.7 178.25,178.25 Q40,316.5 40,512 C40,642.35 86.1,753.65 178.25,845.8 232.5,900.05 293.35,938.35 360.5,960.5 L210,798 830,236 963.35,369.35z"/>
    </g>
  </g>
  <g id="inner">
    <g id="Symbole.__203_1" overflow="visible">
      <g id="Calque.__207">
        <g id="shape20">
          <path id="path11" fill="none" stroke="#000000" stroke-opacity="1" stroke-width="0.12" stroke-linecap="round" stroke-linejoin="round" d="M930.931,512.601 L966.071,512.601"/>
          <path id="path12" fill="#CC3300" fill-opacity="1" d="M807.689,210.121 C725.467,127.96 626.201,86.849 509.95,86.849 393.699,86.849 294.433,127.96 212.271,210.121 134.731,287.662 93.74,380.446 89.419,488.115 89.359,489.555 89.299,490.996 89.239,492.136 L930.721,492.136 C930.721,490.876 930.661,489.495 930.601,488.115 926.16,380.326 885.169,287.602 807.689,210.121z"/>
          <path id="path13" fill="#999999" fill-opacity="1" d="M88.999,507.8 C88.999,509.48 88.999,511.161 89.059,512.601 90.199,626.932 131.31,724.517 212.271,805.539 294.433,887.7 393.699,928.811 509.95,928.811 626.201,928.811 725.467,887.7 807.689,805.539 888.71,724.457 929.761,626.811 930.961,512.601 L930.931,512.601 Q930.961,510.206 930.961,507.8 C930.961,502.579 930.841,497.417 930.721,492.136 L89.239,492.136 C89.119,497.657 88.999,502.699 88.999,507.8z"/>
        </g>
      </g>
      <mask id="Calque.__204">
        <g id="g1">
          <g id="shape21">
            <path id="path14" fill="none" stroke="#FFFFFF" stroke-opacity="1" stroke-width="0.12" stroke-linecap="round" stroke-linejoin="round" d="M930.931,512.601 L966.071,512.601"/>
            <path id="path15" fill="#FFFFFF" fill-opacity="1" d="M807.689,210.121 C725.467,127.96 626.201,86.849 509.95,86.849 393.699,86.849 294.433,127.96 212.271,210.121 130.11,292.283 88.999,391.549 88.999,507.8 88.999,509.48 88.999,511.161 89.059,512.601 90.199,626.932 131.31,724.517 212.271,805.539 294.433,887.7 393.699,928.811 509.95,928.811 626.201,928.811 725.467,887.7 807.689,805.539 888.71,724.457 929.761,626.811 930.961,512.601 L930.931,512.601 Q930.961,510.206 930.961,507.8 C930.961,391.549 889.85,292.283 807.689,210.121z"/>
          </g>
        </g>
      </mask>
      <g id="masked1" mask="url(#Calque.__204)">
        <g id="Calque.__209">
          <g id="shape22" transform="matrix(1.2003173828125 0 0 1.2003173828125 89.05 470.95)"/>
        </g>
      </g>
      <g id="Calque.__210">
        <g id="shape23">
          <path id="path16" fill="#000000" fill-opacity="1" d="M600.394,382.727 Q562.944,345.277 509.95,345.277 C474.661,345.277 444.533,357.76 419.566,382.727 394.599,407.694 382.116,437.821 382.116,473.111 382.116,508.46 394.599,538.588 419.566,563.555 444.533,588.521 474.661,601.005 509.95,601.005 545.299,601.005 575.427,588.521 600.394,563.555 625.361,538.588 637.844,508.46 637.844,473.111 637.844,437.821 625.361,407.694 600.394,382.727z"/>
        </g>
      </g>
      <g id="Calque.__211">
        <g id="shape24">
          <path id="path17" fill="#FFFFFF" fill-opacity="1" d="M585.57,473.111 Q585.57,441.843 563.364,419.697 C548.6,404.933 530.776,397.551 509.89,397.551 489.064,397.551 471.24,404.933 456.476,419.697 441.712,434.461 434.33,452.285 434.33,473.111 434.33,493.996 441.712,511.821 456.476,526.585 471.24,541.349 489.064,548.731 509.89,548.731 530.776,548.731 548.6,541.349 563.364,526.585 578.188,511.821 585.57,493.996 585.57,473.111z"/>
        </g>
      </g>
    </g>
  </g>
  <g id="Calque.__201">
    <g id="shape6">
      <path id="path3" fill="#FFFFFF" fill-opacity="0.2980392156862745" d="M437.25,197.35 Q426.65,190.2 414.2,192.65 C359.95,203.15 312.05,229.15 270.6,270.6 214.95,326.2 187.15,393.45 187.15,472.4 187.3,480.8 190.3,487.9 196.15,493.75 202.15,499.75 209.4,502.75 217.9,502.8 226.4,502.75 233.65,499.75 239.65,493.75 245.65,487.75 248.65,480.5 248.7,472 248.65,410.35 270.45,357.7 314.1,314.15 L314.1,314.1 C346.45,281.75 383.75,261.4 426,253.05 434.35,251.4 440.9,247.05 445.65,240 450.4,232.95 451.95,225.25 450.3,216.95 448.65,208.6 444.3,202.1 437.25,197.35z"/>
    </g>
  </g>
</svg>