<?xml version="1.0" encoding="utf-8"?>
<!-- Generator: flash2svg, http://dissentgraphics.com/tools/flash2svg -->
<svg xmlns:xlink="http://www.w3.org/1999/xlink" id="Shortcut" image-rendering="optimizeSpeed" baseProfile="basic" version="1.1" style="background-color:#ffffff" x="0px" y="0px" width="1024px" height="1024px" viewBox="0 0 1024 1024" enable-background="new 0 0 1024 1024" xmlns="http://www.w3.org/2000/svg">
  <defs transform="matrix(1 0 0 1 0 0) "/>
  <g id="shadow">
    <g id="shape">
      <path id="path" fill="#000000" fill-opacity="0.09803921568627451" d="M799.15,759.95 C788.45,759.95 779.3,763.7 771.7,771.3 764.15,778.85 760.4,788 760.45,798.65 L760.4,954.5 C760.45,965.15 764.2,974.3 771.75,981.85 779.3,989.4 788.5,993.2 799.1,993.2 809.8,993.2 818.9,989.4 826.5,981.9 834,974.3 837.85,965.15 837.85,954.45 L837.85,890.75 928.25,981.15 C935.8,988.7 944.95,992.45 955.65,992.45 966.35,992.45 975.4,988.7 983.05,981.15 990.55,973.55 994.35,964.45 994.35,953.75 994.35,943.05 990.55,933.95 983.05,926.35 L895.45,838.75 953.55,838.75 C964.25,838.75 973.3,835 980.95,827.45 988.45,819.85 992.25,810.75 992.25,800.05 992.3,789.4 988.45,780.25 980.95,772.65 973.35,765.15 964.25,761.35 953.55,761.35 L809.85,761.35 Q804.8,759.9 799.15,759.95z"/>
    </g>
  </g>
  <g id="arow">
    <g id="shape2">
      <path id="path1" fill="#FFFFFF" fill-opacity="1" d="M761.75,761.3 C754.15,768.85 750.45,778 750.45,788.65 L750.4,944.5 C750.45,955.15 754.2,964.3 761.75,971.85 769.3,979.45 778.5,983.2 789.1,983.25 799.8,983.2 808.9,979.45 816.5,971.9 824,964.35 827.85,955.15 827.85,944.5 L827.85,880.75 918.25,971.15 C925.8,978.7 934.95,982.5 945.65,982.45 956.35,982.45 965.4,978.7 973.05,971.15 980.55,963.55 984.4,954.45 984.35,943.75 984.35,933.1 980.55,923.95 973.05,916.35 L885.45,828.75 943.55,828.8 C954.25,828.75 963.3,825.05 970.95,817.45 978.45,809.9 982.3,800.75 982.25,790.1 982.3,779.4 978.45,770.3 970.95,762.65 963.35,755.15 954.25,751.35 943.55,751.35 L799.85,751.4 Q794.8,749.95 789.15,749.95 C778.45,749.95 769.3,753.7 761.75,761.3z"/>
    </g>
  </g>
</svg>