<?xml version="1.0" encoding="utf-8"?>
<!-- Generator: flash2svg, http://dissentgraphics.com/tools/flash2svg -->
<svg id="Vinyl" image-rendering="optimizeSpeed" baseProfile="basic" version="1.1" style="background-color:#FFFFFF" x="0px" y="0px" width="1024px" height="1024px" viewBox="0 0 1024 1024" enable-background="new 0 0 1024 1024" xmlns="http://www.w3.org/2000/svg" xmlns:xlink="http://www.w3.org/1999/xlink">
  <defs transform="matrix(1 0 0 1 0 0) "/>
  <g id="background-circle-shadow">
    <g id="shape">
      <path id="path" fill="#000000" fill-opacity="0.09803921568627451" d="M969.6,351.25 Q961,330.4 950.2,310.4 C946.15,302.85 941.85,295.35 937.3,288 917.75,256.3 893.9,226.35 865.75,198.2 773.6,106.05 662.3,59.95 531.95,59.95 401.6,59.95 290.35,106.05 198.2,198.2 106.05,290.35 59.95,401.6 59.95,531.95 59.95,662.3 106.05,773.6 198.2,865.75 290.35,957.9 401.6,1003.95 531.95,1003.95 662.3,1003.95 773.6,957.9 865.75,865.75 916.5,814.95 953.3,758.35 976.1,696 994.65,645.15 1003.95,590.5 1003.95,531.95 1003.95,487.05 998.5,444.4 987.55,404 986.3,399.45 985,394.9 983.65,390.4 979.55,377.1 974.85,364.05 969.6,351.25z"/>
    </g>
  </g>
  <g id="background-circle">
    <g id="shape2">
      <path id="path1" fill="#2F2F2E" fill-opacity="1" d="M966.05,378.4 C965.05,375 964.05,371.55 962.9,367.9 961.3,362.75 959.5,357.4 957.6,352.05 951.15,333.8 943.45,316 934.45,298.4 930.65,291 926.5,283.45 922.15,276 901.85,241.5 876.35,208.8 845.8,178.25 773.2,105.65 688.65,61.6 592.15,46.2 575.9,43.6 559.35,41.8 542.1,40.85 532.4,40.3 522.25,40 512,40 502.65,40 493.4,40.25 484.1,40.75 365.75,46.85 263.8,92.7 178.25,178.25 Q40,316.5 40,512 C40,642.35 86.1,753.65 178.25,845.8 234.95,902.45 298.8,941.7 369.35,963.35 406.1,974.6 444.15,981.2 484.1,983.3 484.25,983.3 484.35,983.3 484.5,983.3 493,983.75 501.1,984 509,984 510.2,984 511.1,984 512,984 522.3,984 532.5,983.7 542.1,983.2 544.6,983.05 546.85,982.9 549.05,982.75 569.25,981.3 588.95,978.7 607.75,975.05 615.7,973.5 623.55,971.75 631.15,969.9 711.95,949.6 783.3,908.3 845.8,845.8 894.4,797.2 930.2,743.3 953.15,684 971.6,636.35 981.8,585.2 983.7,530.5 983.9,524.45 984,518.25 984,512 984,511.35 984,510.65 984,510 984,509.65 984,509.35 984,509 983.8,468.35 979.05,429.5 969.7,392 968.6,387.65 967.35,383 966.05,378.4z"/>
    </g>
  </g>
  <g id="object-shadow">
    <g id="shape4">
      <path id="path2" fill="#BC4E3F" fill-opacity="1" d="M623.2,583.65 C637.05,562.65 644,538.75 644,512 Q644,457.35 605.35,418.7 C579.6,392.9 548.45,380 512,380 475.55,380 444.4,392.9 418.65,418.7 392.9,444.45 380,475.55 380,512 380,548.45 392.9,579.6 418.65,605.35 444.4,631.1 475.55,644 512,644 538.75,644 562.7,637.05 583.75,623.1 L494.05,533.4 531,491.45 623.175,583.65"/>
      <path id="path3" fill="#A14536" fill-opacity="1" d="M623.175,583.65 L531,491.45 494.05,533.4 583.75,623.1 C591.3,618.15 598.5,612.2 605.35,605.35 612.2,598.5 618.15,591.25 623.2,583.65"/>
    </g>
  </g>
  <g id="object">
    <g id="shape8">
      <path id="path4" fill="#FFFFFF" fill-opacity="1" d="M512,485.25 C504.6,485.25 498.3,487.85 493.05,493.05 487.85,498.3 485.25,504.6 485.25,512 485.25,519.4 487.85,525.7 493.05,530.9 498.3,536.15 504.6,538.75 512,538.75 519.4,538.75 525.7,536.15 530.9,530.9 536.15,525.7 538.75,519.4 538.75,512 538.75,504.6 536.15,498.3 530.9,493.05 Q523.1,485.25 512,485.25z"/>
    </g>
  </g>
  <g id="Calque.__201">
    <g id="shape10">
      <path id="path6" fill="none" stroke="#3A3B3A" stroke-opacity="1" stroke-width="13.25" stroke-linecap="round" stroke-linejoin="round" d="M951.6,518.6 C951.6,399.05 909.3,296.95 824.75,212.4 740.2,127.85 638.15,85.6 518.6,85.6 399.05,85.6 296.95,127.85 212.4,212.4 127.85,296.95 85.6,399.05 85.6,518.6 85.6,638.15 127.85,740.2 212.4,824.75 296.95,909.3 399.05,951.6 518.6,951.6 638.15,951.6 740.2,909.3 824.75,824.75 909.3,740.2 951.6,638.15 951.6,518.6z"/>
      <path id="path8" fill="none" stroke="#3A3B3A" stroke-opacity="1" stroke-width="13.25" stroke-linecap="round" stroke-linejoin="round" d="M922.25,518.6 Q922.25,351.4 804,233.15 C725.25,154.4 630.1,115 518.65,115 407.15,115 312,154.4 233.2,233.15 154.35,312 114.95,407.15 114.95,518.6 114.95,630.1 154.35,725.25 233.2,804 312,882.85 407.15,922.25 518.65,922.25 630.1,922.25 725.25,882.85 804,804 882.85,725.25 922.25,630.1 922.25,518.6z"/>
    </g>
  </g>
  <g id="Calque.__202">
    <g id="shape13">
      <path id="path10" fill="none" stroke="#3A3B3A" stroke-opacity="1" stroke-width="13.25" stroke-linecap="round" stroke-linejoin="round" d="M783.75,783.6 C856.95,710.4 893.55,622.05 893.55,518.6 893.55,415.1 856.95,326.75 783.75,253.5 710.55,180.35 622.2,143.8 518.75,143.8 415.25,143.8 326.9,180.35 253.65,253.5 180.5,326.75 143.9,415.1 143.9,518.6 143.9,622.05 180.5,710.4 253.65,783.6 326.9,856.8 415.25,893.4 518.75,893.4 622.2,893.4 710.55,856.8 783.75,783.6z"/>
      <path id="path12" fill="none" stroke="#3A3B3A" stroke-opacity="1" stroke-width="13.25" stroke-linecap="round" stroke-linejoin="round" d="M762.95,762.8 Q864.15,661.7 864.15,518.6 C864.15,423.15 830.4,341.75 762.95,274.3 695.55,206.85 614.15,173.15 518.75,173.15 423.3,173.15 341.9,206.85 274.45,274.3 207,341.75 173.25,423.15 173.25,518.6 173.25,614 207,695.4 274.45,762.8 341.9,830.25 423.3,864 518.75,864 614.15,864 695.55,830.25 762.95,762.8z"/>
    </g>
  </g>
  <g id="Calque.__203">
    <g id="element6" transform="matrix(1 0 0 1 0 0) "/>
  </g>
</svg>