<?xml version="1.0" encoding="utf-8"?>
<!-- Generator: flash2svg, http://dissentgraphics.com/tools/flash2svg -->
<svg xmlns:xlink="http://www.w3.org/1999/xlink" id="APP-alt" image-rendering="optimizeSpeed" baseProfile="basic" version="1.1" style="background-color:#ffffff" x="0px" y="0px" width="1024px" height="1024px" viewBox="0 0 1024 1024" enable-background="new 0 0 1024 1024" xmlns="http://www.w3.org/2000/svg">
  <defs transform="matrix(1 0 0 1 0 0) "/>
  <g id="shadow">
    <g id="shape">
      <path id="path" fill="#000000" fill-opacity="0.09803921568627451" d="M969.65,351.3 Q961.05,330.45 950.25,310.45 C946.2,302.9 941.9,295.4 937.35,288.05 917.8,256.35 893.95,226.4 865.8,198.25 773.65,106.1 662.35,60 532,60 401.65,60 290.4,106.1 198.25,198.25 106.1,290.4 60,401.65 60,532 60,662.35 106.1,773.65 198.25,865.8 290.4,957.95 401.65,1004 532,1004 662.35,1004 773.65,957.95 865.8,865.8 916.55,815 953.35,758.4 976.15,696.05 994.7,645.2 1004,590.55 1004,532 1004,487.1 998.55,444.45 987.6,404.05 986.35,399.5 985.05,394.95 983.7,390.45 979.6,377.15 974.9,364.1 969.65,351.3z"/>
    </g>
  </g>
  <g id="bg">
    <g id="shape2">
      <path id="path1" fill="#576091" fill-opacity="1" d="M969.75,392.05 C968.65,387.7 967.4,383.05 966.1,378.45 963.6,369.7 960.75,360.85 957.65,352.1 951.2,333.85 943.5,316.05 934.5,298.45 930.7,291.05 926.55,283.5 922.2,276.05 901.9,241.55 876.4,208.85 845.85,178.3 773.25,105.7 688.7,61.65 592.2,46.25 575.95,43.65 559.4,41.85 542.15,40.9 532.45,40.35 522.3,40.05 512.05,40.05 502.7,40.05 493.45,40.3 484.15,40.8 365.8,46.9 263.85,92.75 178.3,178.3 Q40.05,316.55 40.05,512.05 C40.05,642.4 86.15,753.7 178.3,845.85 255.7,923.2 346.55,968.1 450.45,980.45 L253.05,783.05 544.125,158.125 977.925,591.925 L977.95,591.95 C981.05,571.9 983,551.5 983.75,530.55 983.95,524.5 984.05,518.3 984.05,512.05 984.05,511.4 984.05,510.7 984.05,510.05 984.05,509.7 984.05,509.4 984.05,509.05 983.85,468.4 979.1,429.55 969.75,392.05z"/>
      <path id="path2" fill="#444B75" fill-opacity="1" d="M953.2,684.05 C964.6,654.65 972.85,623.9 977.95,591.95 L977.925,591.925 L544.125,158.125 253.05,783.05 450.45,980.45 C461.8,981.8 472.9,982.75 484.15,983.35 484.3,983.35 484.4,983.35 484.55,983.35 493.05,983.8 501.15,984.05 509.05,984.05 510.25,984.05 511.15,984.05 512.05,984.05 522.35,984.05 532.55,983.75 542.15,983.25 544.65,983.1 546.9,982.95 549.1,982.8 569.3,981.35 589,978.75 607.8,975.1 615.75,973.55 623.6,971.8 631.2,969.95 712,949.65 783.35,908.35 845.85,845.85 894.45,797.25 930.25,743.35 953.2,684.05z"/>
    </g>
  </g>
  <g id="Calque.__201">
    <g id="Symbole.__203_1" overflow="visible">
      <g id="Calque.__203">
        <g id="shape12">
          <path id="path7" fill="#DEDEDE" fill-opacity="1" d="M514.15,141.1 L514.1,141.1 C504.55,141.55 496.3,145.25 489.4,152.15 486.05,155.5 483.5,159.1 481.65,163.05 481.1,164.2 480.65,165.4 480.2,166.65 L249.1,743.3 C249.1,743.35 249.05,743.45 249,743.5 248.95,743.65 248.85,743.85 248.8,744.05 247.1,748.35 246.25,753 246.25,758.05 246.25,765.4 248.05,772 251.7,777.85 L514.1,585.15 514.15,585.1 514.15,585.05 514.15,141.1z"/>
          <path id="path8" fill="#FFFFFF" fill-opacity="1" d="M514.1,141.1 L514.15,141.1 514.15,585.05 776.55,777.8 C780.2,771.95 782,765.35 782,758 782,752.95 781.15,748.3 779.45,744 779.4,743.8 779.3,743.6 779.25,743.45 779.2,743.4 779.15,743.3 779.15,743.25 L548.05,166.6 C547.6,165.35 547.15,164.15 546.6,163 544.75,159.05 542.2,155.45 538.85,152.1 531.95,145.2 523.7,141.5 514.1,141.05 L514.1,141.1z"/>
          <path id="path9" fill="#7681BE" fill-opacity="1" d="M514.15,585.1 L514.1,585.15 251.7,777.85 C253.25,780.3 255.15,782.65 257.4,784.9 264.1,791.6 272.05,795.3 281.25,795.95 282.25,796 283.25,796.05 284.25,796.05 285.25,796.05 286.25,796 287.2,795.95 L514.15,795.95 514.15,795.9 514.15,585.1z"/>
          <path id="path10" fill="#94A1EE" fill-opacity="1" d="M514.15,585.05 L514.15,585.1 514.15,795.9 741.05,795.9 C742,795.95 743,796 744,796 745,796 746,795.95 747,795.9 756.2,795.25 764.15,791.55 770.85,784.85 773.1,782.6 775,780.25 776.55,777.8 L514.15,585.05z"/>
        </g>
      </g>
    </g>
  </g>
</svg>