<?xml version="1.0" encoding="utf-8"?>
<!-- Generator: flash2svg, http://dissentgraphics.com/tools/flash2svg -->
<svg xmlns:xlink="http://www.w3.org/1999/xlink" id="APP" image-rendering="optimizeSpeed" baseProfile="basic" version="1.1" style="background-color:#ffffff" x="0px" y="0px" width="1024px" height="1024px" viewBox="0 0 1024 1024" enable-background="new 0 0 1024 1024" xmlns="http://www.w3.org/2000/svg">
  <defs transform="matrix(1 0 0 1 0 0) "/>
  <g id="shadow">
    <g id="shape">
      <path id="path" fill="#000000" fill-opacity="0.09803921568627451" d="M969.65,351.3 Q961.05,330.45 950.25,310.45 C946.2,302.9 941.9,295.4 937.35,288.05 917.8,256.35 893.95,226.4 865.8,198.25 773.65,106.1 662.35,60 532,60 401.65,60 290.4,106.1 198.25,198.25 106.1,290.4 60,401.65 60,532 60,662.35 106.1,773.65 198.25,865.8 290.4,957.95 401.65,1004 532,1004 662.35,1004 773.65,957.95 865.8,865.8 916.55,815 953.35,758.4 976.15,696.05 994.7,645.2 1004,590.55 1004,532 1004,487.1 998.55,444.45 987.6,404.05 986.35,399.5 985.05,394.95 983.7,390.45 979.6,377.15 974.9,364.1 969.65,351.3z"/>
    </g>
  </g>
  <g id="bg">
    <g id="shape2">
      <path id="path1" fill="#576091" fill-opacity="1" d="M969.75,392.05 C968.65,387.7 967.4,383.05 966.1,378.45 963.6,369.7 960.75,360.85 957.65,352.1 951.2,333.85 943.5,316.05 934.5,298.45 930.7,291.05 926.55,283.5 922.2,276.05 901.9,241.55 876.4,208.85 845.85,178.3 773.25,105.7 688.7,61.65 592.2,46.25 575.95,43.65 559.4,41.85 542.15,40.9 532.45,40.35 522.3,40.05 512.05,40.05 502.7,40.05 493.45,40.3 484.15,40.8 365.8,46.9 263.85,92.75 178.3,178.3 Q40.05,316.55 40.05,512.05 C40.05,642.4 86.15,753.7 178.3,845.85 263.85,931.35 365.8,977.2 484.15,983.35 484.3,983.35 484.4,983.35 484.55,983.35 493.05,983.8 501.15,984.05 509.05,984.05 510.25,984.05 511.15,984.05 512.05,984.05 522.35,984.05 532.55,983.75 542.15,983.25 544.65,983.1 546.9,982.95 549.1,982.8 569.3,981.35 589,978.75 607.8,975.1 615.75,973.55 623.6,971.8 631.2,969.95 712,949.65 783.35,908.35 845.85,845.85 894.45,797.25 930.25,743.35 953.2,684.05 971.65,636.4 981.85,585.25 983.75,530.55 983.95,524.5 984.05,518.3 984.05,512.05 984.05,511.4 984.05,510.7 984.05,510.05 984.05,509.7 984.05,509.4 984.05,509.05 983.85,468.4 979.1,429.55 969.75,392.05z"/>
    </g>
  </g>
  <g id="inner">
    <g id="shape4">
      <path id="path2" fill="#000000" fill-opacity="0.2" d="M760.1,760.1 Q862.8,657.35 862.8,512.05 C862.8,415.2 828.55,332.5 760.1,264.05 691.6,195.6 608.9,161.35 512.05,161.35 415.2,161.35 332.5,195.6 264.05,264.05 195.6,332.5 161.35,415.2 161.35,512.05 161.35,608.9 195.6,691.6 264.05,760.1 332.5,828.55 415.2,862.8 512.05,862.8 608.9,862.8 691.6,828.55 760.1,760.1z"/>
    </g>
  </g>
  <g id="Calque.__202">
    <g id="shape6">
      <path id="path3" fill="#000000" fill-opacity="0.2" d="M799.15,762.9 Q799.05,762.8 799.05,762.7 L567.95,186.05 C567.5,184.8 567.05,183.6 566.5,182.45 564.65,178.5 562.1,174.9 558.75,171.55 551.85,164.65 543.6,160.95 534,160.5 L534,160.55 C524.45,161 516.2,164.7 509.3,171.6 505.95,174.95 503.4,178.55 501.55,182.5 501,183.65 500.55,184.85 500.1,186.1 L269,762.75 C269,762.8 268.95,762.9 268.9,762.95 268.85,763.1 268.75,763.3 268.7,763.5 267,767.8 266.15,772.45 266.15,777.5 266.15,784.85 267.95,791.45 271.6,797.3 273.15,799.75 275.05,802.1 277.3,804.35 284,811.05 291.95,814.75 301.15,815.4 302.15,815.45 303.15,815.5 304.15,815.5 305.15,815.5 306.15,815.45 307.1,815.4 L534.05,815.4 534.05,815.35 760.95,815.35 C761.9,815.4 762.9,815.45 763.9,815.45 764.9,815.45 765.9,815.4 766.9,815.35 776.1,814.7 784.05,811 790.75,804.3 793,802.05 794.9,799.7 796.45,797.25 800.1,791.4 801.9,784.8 801.9,777.45 801.9,772.4 801.05,767.75 799.35,763.45 799.3,763.25 799.2,763.05 799.15,762.9z"/>
    </g>
  </g>
  <g id="Calque.__203">
    <g id="Symbole.__203_1" overflow="visible">
      <g id="Calque.__205">
        <g id="shape14">
          <path id="path8" fill="#DEDEDE" fill-opacity="1" d="M514.15,141.1 L514.1,141.1 C504.55,141.55 496.3,145.25 489.4,152.15 486.05,155.5 483.5,159.1 481.65,163.05 481.1,164.2 480.65,165.4 480.2,166.65 L249.1,743.3 C249.1,743.35 249.05,743.45 249,743.5 248.95,743.65 248.85,743.85 248.8,744.05 247.1,748.35 246.25,753 246.25,758.05 246.25,765.4 248.05,772 251.7,777.85 L514.1,585.15 514.15,585.1 514.15,585.05 514.15,141.1z"/>
          <path id="path9" fill="#FFFFFF" fill-opacity="1" d="M514.1,141.1 L514.15,141.1 514.15,585.05 776.55,777.8 C780.2,771.95 782,765.35 782,758 782,752.95 781.15,748.3 779.45,744 779.4,743.8 779.3,743.6 779.25,743.45 779.2,743.4 779.15,743.3 779.15,743.25 L548.05,166.6 C547.6,165.35 547.15,164.15 546.6,163 544.75,159.05 542.2,155.45 538.85,152.1 531.95,145.2 523.7,141.5 514.1,141.05 L514.1,141.1z"/>
          <path id="path10" fill="#7681BE" fill-opacity="1" d="M514.15,585.1 L514.1,585.15 251.7,777.85 C253.25,780.3 255.15,782.65 257.4,784.9 264.1,791.6 272.05,795.3 281.25,795.95 282.25,796 283.25,796.05 284.25,796.05 285.25,796.05 286.25,796 287.2,795.95 L514.15,795.95 514.15,795.9 514.15,585.1z"/>
          <path id="path11" fill="#94A1EE" fill-opacity="1" d="M514.15,585.05 L514.15,585.1 514.15,795.9 741.05,795.9 C742,795.95 743,796 744,796 745,796 746,795.95 747,795.9 756.2,795.25 764.15,791.55 770.85,784.85 773.1,782.6 775,780.25 776.55,777.8 L514.15,585.05z"/>
        </g>
      </g>
    </g>
  </g>
</svg>