<?xml version="1.0" encoding="utf-8"?>
<!-- Generator: flash2svg, http://dissentgraphics.com/tools/flash2svg -->
<svg xmlns:xlink="http://www.w3.org/1999/xlink" id="APP-alt" image-rendering="optimizeSpeed" baseProfile="basic" version="1.1" style="background-color:#ffffff" x="0px" y="0px" width="1024px" height="1024px" viewBox="0 0 1024 1024" enable-background="new 0 0 1024 1024" xmlns="http://www.w3.org/2000/svg">
  <defs transform="matrix(1 0 0 1 0 0) "/>
  <g id="shadow">
    <g id="shape">
      <path id="path" fill="#000000" fill-opacity="0.09803921568627451" d="M969.65,351.3 Q961.05,330.45 950.25,310.45 C946.2,302.9 941.9,295.4 937.35,288.05 917.8,256.35 893.95,226.4 865.8,198.25 773.65,106.1 662.35,60 532,60 401.65,60 290.4,106.1 198.25,198.25 106.1,290.4 60,401.65 60,532 60,662.35 106.1,773.65 198.25,865.8 290.4,957.95 401.65,1004 532,1004 662.35,1004 773.65,957.95 865.8,865.8 916.55,815 953.35,758.4 976.15,696.05 994.7,645.2 1004,590.55 1004,532 1004,487.1 998.55,444.45 987.6,404.05 986.35,399.5 985.05,394.95 983.7,390.45 979.6,377.15 974.9,364.1 969.65,351.3z"/>
    </g>
  </g>
  <g id="bg">
    <g id="shape2">
      <path id="path1" fill="#5B6B91" fill-opacity="1" d="M509.05,984.05 C510.25,984.05 511.15,984.05 512.05,984.05 522.35,984.05 532.55,983.75 542.15,983.25 544.65,983.1 546.9,982.95 549.1,982.8 569.3,981.35 589,978.75 607.8,975.1 615.75,973.55 623.6,971.8 631.2,969.95 648.5,965.6 665.35,960.25 681.8,954.1 L681.775,954.075 L437.65,709.95 312.05,810.05 485.4,983.4 C493.2,983.8 501.1,984 509.05,984.05z M983.75,530.55 C983.95,524.5 984.05,518.3 984.05,512.05 984.05,511.4 984.05,510.7 984.05,510.05 984.05,509.7 984.05,509.4 984.05,509.05 983.9,483.65 982,458.95 978.35,434.75 L978.325,434.725 L730.6,187 389.65,363.05 437.1,686.55 698.05,947.5 C751.95,924.35 801.15,890.55 845.85,845.85 894.45,797.25 930.25,743.35 953.2,684.05 971.65,636.4 981.85,585.25 983.75,530.55z"/>
      <path id="path2" fill="#7387B4" fill-opacity="1" d="M969.75,392.05 C968.65,387.7 967.4,383.05 966.1,378.45 963.6,369.7 960.75,360.85 957.65,352.1 951.2,333.85 943.5,316.05 934.5,298.45 930.7,291.05 926.55,283.5 922.2,276.05 901.9,241.55 876.4,208.85 845.85,178.3 773.25,105.7 688.7,61.65 592.2,46.25 575.95,43.65 559.4,41.85 542.15,40.9 532.45,40.35 522.3,40.05 512.05,40.05 502.7,40.05 493.45,40.3 484.15,40.8 365.8,46.9 263.85,92.75 178.3,178.3 Q40.05,316.55 40.05,512.05 C40.05,642.4 86.15,753.7 178.3,845.85 263.85,931.35 365.8,977.2 484.15,983.35 484.3,983.35 484.4,983.35 484.55,983.35 484.8,983.35 485.1,983.35 485.4,983.4 L312.05,810.05 437.65,709.95 681.775,954.075 L681.8,954.1 C687.25,951.95 692.65,949.8 698.05,947.5 L437.1,686.55 389.65,363.05 730.6,187 978.325,434.725 L978.35,434.75 C976.1,420.35 973.25,406.1 969.75,392.05z"/>
    </g>
  </g>
  <g id="Calque.__201">
    <g id="shape8">
      <path id="path5" fill="#FFFFFF" fill-opacity="1" d="M607.65,781.05 C651.9,781.05 687.85,745.1 687.85,700.8 687.85,656.45 651.9,620.6 607.65,620.6 563.3,620.6 527.4,656.45 527.4,700.8 527.4,745.1 563.3,781.05 607.65,781.05z M648.95,318.5 L687.85,639.7 730.6,187 360.7,319.85 437.1,686.55 414.55,378.2 648.95,318.5z M373.2,677.9 C328.95,677.9 293,713.75 293,758.1 293,802.4 328.95,838.35 373.2,838.35 Q406.45,838.35 429.95,814.85 453.45,791.35 453.45,758.1 C453.45,713.75 417.55,677.9 373.2,677.9z"/>
    </g>
  </g>
</svg>